%MOIN*%
%OFA0B0*%
%FSLAX46Y46*%
%IPPOS*%
%LPD*%
%ADD10C,0.0039370078740157488*%
%ADD11C,0.070866141732283464*%
%ADD12R,0.070866141732283464X0.070866141732283464*%
%ADD13C,0.0787*%
%ADD14C,0.19685039370078741*%
%ADD15C,0.090000000000000011*%
%ADD16C,0.70000000000000007*%
%ADD17R,0.055000000000000007X0.055000000000000007*%
%ADD18C,0.055000000000000007*%
%ADD19C,0.016*%
%ADD30C,0.0039370078740157488*%
%ADD31C,0.070866141732283464*%
%ADD32R,0.070866141732283464X0.070866141732283464*%
%ADD33C,0.0787*%
%ADD34C,0.19685039370078741*%
%ADD35C,0.090000000000000011*%
%ADD36C,0.70000000000000007*%
%ADD37R,0.055000000000000007X0.055000000000000007*%
%ADD38C,0.055000000000000007*%
%ADD39C,0.016*%
%ADD40C,0.0039370078740157488*%
%ADD41C,0.070866141732283464*%
%ADD42R,0.070866141732283464X0.070866141732283464*%
%ADD43C,0.0787*%
%ADD44C,0.19685039370078741*%
%ADD45C,0.090000000000000011*%
%ADD46C,0.70000000000000007*%
%ADD47R,0.055000000000000007X0.055000000000000007*%
%ADD48C,0.055000000000000007*%
%ADD49C,0.016*%
%ADD50C,0.0039370078740157488*%
%ADD51C,0.070866141732283464*%
%ADD52R,0.070866141732283464X0.070866141732283464*%
%ADD53C,0.0787*%
%ADD54C,0.19685039370078741*%
%ADD55C,0.090000000000000011*%
%ADD56C,0.70000000000000007*%
%ADD57R,0.055000000000000007X0.055000000000000007*%
%ADD58C,0.055000000000000007*%
%ADD59C,0.016*%
%ADD60C,0.0039370078740157488*%
%ADD61C,0.070866141732283464*%
%ADD62R,0.070866141732283464X0.070866141732283464*%
%ADD63C,0.0787*%
%ADD64C,0.19685039370078741*%
%ADD65C,0.090000000000000011*%
%ADD66C,0.70000000000000007*%
%ADD67R,0.055000000000000007X0.055000000000000007*%
%ADD68C,0.055000000000000007*%
%ADD69C,0.016*%
%ADD70C,0.0039370078740157488*%
%ADD71C,0.070866141732283464*%
%ADD72R,0.070866141732283464X0.070866141732283464*%
%ADD73C,0.0787*%
%ADD74C,0.19685039370078741*%
%ADD75C,0.090000000000000011*%
%ADD76C,0.70000000000000007*%
%ADD77R,0.055000000000000007X0.055000000000000007*%
%ADD78C,0.055000000000000007*%
%ADD79C,0.016*%
%ADD80C,0.0039370078740157488*%
%ADD81C,0.070866141732283464*%
%ADD82R,0.070866141732283464X0.070866141732283464*%
%ADD83C,0.0787*%
%ADD84C,0.19685039370078741*%
%ADD85C,0.090000000000000011*%
%ADD86C,0.70000000000000007*%
%ADD87R,0.055000000000000007X0.055000000000000007*%
%ADD88C,0.055000000000000007*%
%ADD89C,0.016*%
%ADD90C,0.0039370078740157488*%
%ADD91C,0.070866141732283464*%
%ADD92R,0.070866141732283464X0.070866141732283464*%
%ADD93C,0.0787*%
%ADD94C,0.19685039370078741*%
%ADD95C,0.090000000000000011*%
%ADD96C,0.70000000000000007*%
%ADD97R,0.055000000000000007X0.055000000000000007*%
%ADD98C,0.055000000000000007*%
%ADD99C,0.016*%
%ADD100C,0.0039370078740157488*%
%ADD101C,0.070866141732283464*%
%ADD102R,0.070866141732283464X0.070866141732283464*%
%ADD103C,0.0787*%
%ADD104C,0.19685039370078741*%
%ADD105C,0.090000000000000011*%
%ADD106C,0.70000000000000007*%
%ADD107R,0.055000000000000007X0.055000000000000007*%
%ADD108C,0.055000000000000007*%
%ADD109C,0.016*%
G01*
D10*
D11*
X-0006300000Y0004050000D02*
X0000549999Y0000925000D03*
D12*
X0000649999Y0000925000D03*
D13*
X0001124999Y0000837480D03*
X0001124999Y0000522519D03*
D14*
X0000599999Y0001100000D03*
D15*
X0001009999Y0000340000D03*
X0000189999Y0000340000D03*
X0001009999Y0000460000D03*
X0000189999Y0000460000D03*
D16*
X0000599999Y0000400000D03*
D17*
X0000099999Y0000625000D03*
D18*
X0000099999Y0000725000D03*
X0000099999Y0000825000D03*
D19*
X0000189999Y0000460000D02*
X0000189999Y0000615000D01*
X0001009999Y0000590000D02*
X0001009999Y0000460000D01*
X0000774999Y0000825000D02*
X0001009999Y0000590000D01*
X0000399999Y0000825000D02*
X0000774999Y0000825000D01*
X0000189999Y0000615000D02*
X0000399999Y0000825000D01*
X0000189999Y0000460000D02*
X0000189999Y0000660000D01*
X0000189999Y0000660000D02*
X0000124999Y0000725000D01*
X0000124999Y0000725000D02*
X0000099999Y0000725000D01*
X0001009999Y0000340000D02*
X0001009999Y0000460000D01*
X0000189999Y0000340000D02*
X0000189999Y0000460000D01*
X0001027480Y0000930000D02*
X0001124999Y0000837480D01*
X0000649999Y0000930000D02*
X0001027480Y0000930000D01*
X0000179999Y0000930000D02*
X0000549999Y0000930000D01*
X0000099999Y0000825000D02*
X0000099999Y0000850000D01*
X0000099999Y0000850000D02*
X0000179999Y0000930000D01*
X0001124999Y0000522519D02*
X0001124999Y0000250000D01*
X0001099999Y0000225000D02*
X0000774999Y0000225000D01*
X0001124999Y0000250000D02*
X0001099999Y0000225000D01*
X0000774999Y0000225000D02*
X0000599999Y0000400000D01*
X0001124999Y0000522519D02*
X0001124999Y0000555000D01*
X0000792519Y0000592519D02*
X0000599999Y0000400000D01*
X0000599999Y0000400000D02*
X0000774999Y0000400000D01*
G04 next file*
G04 #@! TF.FileFunction,Copper,L2,Bot,Signal*
G04 Gerber Fmt 4.6, Leading zero omitted, Abs format (unit mm)*
G04 Created by KiCad (PCBNEW 4.0.7) date 02/19/20 21:01:50*
G01*
G04 APERTURE LIST*
G04 APERTURE END LIST*
D30*
D31*
X-0006300000Y0005349212D02*
X0000549999Y0002224212D03*
D32*
X0000649999Y0002224212D03*
D33*
X0001124999Y0002136692D03*
X0001124999Y0001821732D03*
D34*
X0000599999Y0002399212D03*
D35*
X0001009999Y0001639212D03*
X0000189999Y0001639212D03*
X0001009999Y0001759212D03*
X0000189999Y0001759212D03*
D36*
X0000599999Y0001699212D03*
D37*
X0000099999Y0001924212D03*
D38*
X0000099999Y0002024212D03*
X0000099999Y0002124212D03*
D39*
X0000189999Y0001759212D02*
X0000189999Y0001914212D01*
X0001009999Y0001889212D02*
X0001009999Y0001759212D01*
X0000774999Y0002124212D02*
X0001009999Y0001889212D01*
X0000399999Y0002124212D02*
X0000774999Y0002124212D01*
X0000189999Y0001914212D02*
X0000399999Y0002124212D01*
X0000189999Y0001759212D02*
X0000189999Y0001959212D01*
X0000189999Y0001959212D02*
X0000124999Y0002024212D01*
X0000124999Y0002024212D02*
X0000099999Y0002024212D01*
X0001009999Y0001639212D02*
X0001009999Y0001759212D01*
X0000189999Y0001639212D02*
X0000189999Y0001759212D01*
X0001027480Y0002229212D02*
X0001124999Y0002136692D01*
X0000649999Y0002229212D02*
X0001027480Y0002229212D01*
X0000179999Y0002229212D02*
X0000549999Y0002229212D01*
X0000099999Y0002124212D02*
X0000099999Y0002149212D01*
X0000099999Y0002149212D02*
X0000179999Y0002229212D01*
X0001124999Y0001821732D02*
X0001124999Y0001549212D01*
X0001099999Y0001524212D02*
X0000774999Y0001524212D01*
X0001124999Y0001549212D02*
X0001099999Y0001524212D01*
X0000774999Y0001524212D02*
X0000599999Y0001699212D01*
X0001124999Y0001821732D02*
X0001124999Y0001854212D01*
X0000792519Y0001891732D02*
X0000599999Y0001699212D01*
X0000599999Y0001699212D02*
X0000774999Y0001699212D01*
G04 next file*
G04 #@! TF.FileFunction,Copper,L2,Bot,Signal*
G04 Gerber Fmt 4.6, Leading zero omitted, Abs format (unit mm)*
G04 Created by KiCad (PCBNEW 4.0.7) date 02/19/20 21:01:50*
G01*
G04 APERTURE LIST*
G04 APERTURE END LIST*
D40*
D41*
X-0006300000Y0006648425D02*
X0000549999Y0003523425D03*
D42*
X0000649999Y0003523425D03*
D43*
X0001124999Y0003435905D03*
X0001124999Y0003120944D03*
D44*
X0000599999Y0003698425D03*
D45*
X0001009999Y0002938425D03*
X0000189999Y0002938425D03*
X0001009999Y0003058425D03*
X0000189999Y0003058425D03*
D46*
X0000599999Y0002998425D03*
D47*
X0000099999Y0003223425D03*
D48*
X0000099999Y0003323425D03*
X0000099999Y0003423425D03*
D49*
X0000189999Y0003058425D02*
X0000189999Y0003213425D01*
X0001009999Y0003188425D02*
X0001009999Y0003058425D01*
X0000774999Y0003423425D02*
X0001009999Y0003188425D01*
X0000399999Y0003423425D02*
X0000774999Y0003423425D01*
X0000189999Y0003213425D02*
X0000399999Y0003423425D01*
X0000189999Y0003058425D02*
X0000189999Y0003258425D01*
X0000189999Y0003258425D02*
X0000124999Y0003323425D01*
X0000124999Y0003323425D02*
X0000099999Y0003323425D01*
X0001009999Y0002938425D02*
X0001009999Y0003058425D01*
X0000189999Y0002938425D02*
X0000189999Y0003058425D01*
X0001027480Y0003528425D02*
X0001124999Y0003435905D01*
X0000649999Y0003528425D02*
X0001027480Y0003528425D01*
X0000179999Y0003528425D02*
X0000549999Y0003528425D01*
X0000099999Y0003423425D02*
X0000099999Y0003448425D01*
X0000099999Y0003448425D02*
X0000179999Y0003528425D01*
X0001124999Y0003120944D02*
X0001124999Y0002848425D01*
X0001099999Y0002823425D02*
X0000774999Y0002823425D01*
X0001124999Y0002848425D02*
X0001099999Y0002823425D01*
X0000774999Y0002823425D02*
X0000599999Y0002998425D01*
X0001124999Y0003120944D02*
X0001124999Y0003153425D01*
X0000792519Y0003190944D02*
X0000599999Y0002998425D01*
X0000599999Y0002998425D02*
X0000774999Y0002998425D01*
G04 next file*
G04 #@! TF.FileFunction,Copper,L2,Bot,Signal*
G04 Gerber Fmt 4.6, Leading zero omitted, Abs format (unit mm)*
G04 Created by KiCad (PCBNEW 4.0.7) date 02/19/20 21:01:50*
G01*
G04 APERTURE LIST*
G04 APERTURE END LIST*
D50*
D51*
X-0005000787Y0004050000D02*
X0001849212Y0000925000D03*
D52*
X0001949212Y0000925000D03*
D53*
X0002424212Y0000837480D03*
X0002424212Y0000522519D03*
D54*
X0001899212Y0001100000D03*
D55*
X0002309212Y0000340000D03*
X0001489212Y0000340000D03*
X0002309212Y0000460000D03*
X0001489212Y0000460000D03*
D56*
X0001899212Y0000400000D03*
D57*
X0001399212Y0000625000D03*
D58*
X0001399212Y0000725000D03*
X0001399212Y0000825000D03*
D59*
X0001489212Y0000460000D02*
X0001489212Y0000615000D01*
X0002309212Y0000590000D02*
X0002309212Y0000460000D01*
X0002074212Y0000825000D02*
X0002309212Y0000590000D01*
X0001699212Y0000825000D02*
X0002074212Y0000825000D01*
X0001489212Y0000615000D02*
X0001699212Y0000825000D01*
X0001489212Y0000460000D02*
X0001489212Y0000660000D01*
X0001489212Y0000660000D02*
X0001424212Y0000725000D01*
X0001424212Y0000725000D02*
X0001399212Y0000725000D01*
X0002309212Y0000340000D02*
X0002309212Y0000460000D01*
X0001489212Y0000340000D02*
X0001489212Y0000460000D01*
X0002326693Y0000930000D02*
X0002424212Y0000837480D01*
X0001949212Y0000930000D02*
X0002326693Y0000930000D01*
X0001479212Y0000930000D02*
X0001849212Y0000930000D01*
X0001399212Y0000825000D02*
X0001399212Y0000850000D01*
X0001399212Y0000850000D02*
X0001479212Y0000930000D01*
X0002424212Y0000522519D02*
X0002424212Y0000250000D01*
X0002399212Y0000225000D02*
X0002074212Y0000225000D01*
X0002424212Y0000250000D02*
X0002399212Y0000225000D01*
X0002074212Y0000225000D02*
X0001899212Y0000400000D01*
X0002424212Y0000522519D02*
X0002424212Y0000555000D01*
X0002091732Y0000592519D02*
X0001899212Y0000400000D01*
X0001899212Y0000400000D02*
X0002074212Y0000400000D01*
G04 next file*
G04 #@! TF.FileFunction,Copper,L2,Bot,Signal*
G04 Gerber Fmt 4.6, Leading zero omitted, Abs format (unit mm)*
G04 Created by KiCad (PCBNEW 4.0.7) date 02/19/20 21:01:50*
G01*
G04 APERTURE LIST*
G04 APERTURE END LIST*
D60*
D61*
X-0003701574Y0004050000D02*
X0003148425Y0000925000D03*
D62*
X0003248425Y0000925000D03*
D63*
X0003723425Y0000837480D03*
X0003723425Y0000522519D03*
D64*
X0003198425Y0001100000D03*
D65*
X0003608425Y0000340000D03*
X0002788425Y0000340000D03*
X0003608425Y0000460000D03*
X0002788425Y0000460000D03*
D66*
X0003198425Y0000400000D03*
D67*
X0002698425Y0000625000D03*
D68*
X0002698425Y0000725000D03*
X0002698425Y0000825000D03*
D69*
X0002788425Y0000460000D02*
X0002788425Y0000615000D01*
X0003608425Y0000590000D02*
X0003608425Y0000460000D01*
X0003373425Y0000825000D02*
X0003608425Y0000590000D01*
X0002998425Y0000825000D02*
X0003373425Y0000825000D01*
X0002788425Y0000615000D02*
X0002998425Y0000825000D01*
X0002788425Y0000460000D02*
X0002788425Y0000660000D01*
X0002788425Y0000660000D02*
X0002723425Y0000725000D01*
X0002723425Y0000725000D02*
X0002698425Y0000725000D01*
X0003608425Y0000340000D02*
X0003608425Y0000460000D01*
X0002788425Y0000340000D02*
X0002788425Y0000460000D01*
X0003625905Y0000930000D02*
X0003723425Y0000837480D01*
X0003248425Y0000930000D02*
X0003625905Y0000930000D01*
X0002778425Y0000930000D02*
X0003148425Y0000930000D01*
X0002698425Y0000825000D02*
X0002698425Y0000850000D01*
X0002698425Y0000850000D02*
X0002778425Y0000930000D01*
X0003723425Y0000522519D02*
X0003723425Y0000250000D01*
X0003698425Y0000225000D02*
X0003373425Y0000225000D01*
X0003723425Y0000250000D02*
X0003698425Y0000225000D01*
X0003373425Y0000225000D02*
X0003198425Y0000400000D01*
X0003723425Y0000522519D02*
X0003723425Y0000555000D01*
X0003390945Y0000592519D02*
X0003198425Y0000400000D01*
X0003198425Y0000400000D02*
X0003373425Y0000400000D01*
G04 next file*
G04 #@! TF.FileFunction,Copper,L2,Bot,Signal*
G04 Gerber Fmt 4.6, Leading zero omitted, Abs format (unit mm)*
G04 Created by KiCad (PCBNEW 4.0.7) date 02/19/20 21:01:50*
G01*
G04 APERTURE LIST*
G04 APERTURE END LIST*
D70*
D71*
X-0005000787Y0005349212D02*
X0001849212Y0002224212D03*
D72*
X0001949212Y0002224212D03*
D73*
X0002424212Y0002136692D03*
X0002424212Y0001821732D03*
D74*
X0001899212Y0002399212D03*
D75*
X0002309212Y0001639212D03*
X0001489212Y0001639212D03*
X0002309212Y0001759212D03*
X0001489212Y0001759212D03*
D76*
X0001899212Y0001699212D03*
D77*
X0001399212Y0001924212D03*
D78*
X0001399212Y0002024212D03*
X0001399212Y0002124212D03*
D79*
X0001489212Y0001759212D02*
X0001489212Y0001914212D01*
X0002309212Y0001889212D02*
X0002309212Y0001759212D01*
X0002074212Y0002124212D02*
X0002309212Y0001889212D01*
X0001699212Y0002124212D02*
X0002074212Y0002124212D01*
X0001489212Y0001914212D02*
X0001699212Y0002124212D01*
X0001489212Y0001759212D02*
X0001489212Y0001959212D01*
X0001489212Y0001959212D02*
X0001424212Y0002024212D01*
X0001424212Y0002024212D02*
X0001399212Y0002024212D01*
X0002309212Y0001639212D02*
X0002309212Y0001759212D01*
X0001489212Y0001639212D02*
X0001489212Y0001759212D01*
X0002326693Y0002229212D02*
X0002424212Y0002136692D01*
X0001949212Y0002229212D02*
X0002326693Y0002229212D01*
X0001479212Y0002229212D02*
X0001849212Y0002229212D01*
X0001399212Y0002124212D02*
X0001399212Y0002149212D01*
X0001399212Y0002149212D02*
X0001479212Y0002229212D01*
X0002424212Y0001821732D02*
X0002424212Y0001549212D01*
X0002399212Y0001524212D02*
X0002074212Y0001524212D01*
X0002424212Y0001549212D02*
X0002399212Y0001524212D01*
X0002074212Y0001524212D02*
X0001899212Y0001699212D01*
X0002424212Y0001821732D02*
X0002424212Y0001854212D01*
X0002091732Y0001891732D02*
X0001899212Y0001699212D01*
X0001899212Y0001699212D02*
X0002074212Y0001699212D01*
G04 next file*
G04 #@! TF.FileFunction,Copper,L2,Bot,Signal*
G04 Gerber Fmt 4.6, Leading zero omitted, Abs format (unit mm)*
G04 Created by KiCad (PCBNEW 4.0.7) date 02/19/20 21:01:50*
G01*
G04 APERTURE LIST*
G04 APERTURE END LIST*
D80*
D81*
X-0005000787Y0006648425D02*
X0001849212Y0003523425D03*
D82*
X0001949212Y0003523425D03*
D83*
X0002424212Y0003435905D03*
X0002424212Y0003120944D03*
D84*
X0001899212Y0003698425D03*
D85*
X0002309212Y0002938425D03*
X0001489212Y0002938425D03*
X0002309212Y0003058425D03*
X0001489212Y0003058425D03*
D86*
X0001899212Y0002998425D03*
D87*
X0001399212Y0003223425D03*
D88*
X0001399212Y0003323425D03*
X0001399212Y0003423425D03*
D89*
X0001489212Y0003058425D02*
X0001489212Y0003213425D01*
X0002309212Y0003188425D02*
X0002309212Y0003058425D01*
X0002074212Y0003423425D02*
X0002309212Y0003188425D01*
X0001699212Y0003423425D02*
X0002074212Y0003423425D01*
X0001489212Y0003213425D02*
X0001699212Y0003423425D01*
X0001489212Y0003058425D02*
X0001489212Y0003258425D01*
X0001489212Y0003258425D02*
X0001424212Y0003323425D01*
X0001424212Y0003323425D02*
X0001399212Y0003323425D01*
X0002309212Y0002938425D02*
X0002309212Y0003058425D01*
X0001489212Y0002938425D02*
X0001489212Y0003058425D01*
X0002326693Y0003528425D02*
X0002424212Y0003435905D01*
X0001949212Y0003528425D02*
X0002326693Y0003528425D01*
X0001479212Y0003528425D02*
X0001849212Y0003528425D01*
X0001399212Y0003423425D02*
X0001399212Y0003448425D01*
X0001399212Y0003448425D02*
X0001479212Y0003528425D01*
X0002424212Y0003120944D02*
X0002424212Y0002848425D01*
X0002399212Y0002823425D02*
X0002074212Y0002823425D01*
X0002424212Y0002848425D02*
X0002399212Y0002823425D01*
X0002074212Y0002823425D02*
X0001899212Y0002998425D01*
X0002424212Y0003120944D02*
X0002424212Y0003153425D01*
X0002091732Y0003190944D02*
X0001899212Y0002998425D01*
X0001899212Y0002998425D02*
X0002074212Y0002998425D01*
G04 next file*
G04 #@! TF.FileFunction,Copper,L2,Bot,Signal*
G04 Gerber Fmt 4.6, Leading zero omitted, Abs format (unit mm)*
G04 Created by KiCad (PCBNEW 4.0.7) date 02/19/20 21:01:50*
G01*
G04 APERTURE LIST*
G04 APERTURE END LIST*
D90*
D91*
X-0003701574Y0005349212D02*
X0003148425Y0002224212D03*
D92*
X0003248425Y0002224212D03*
D93*
X0003723425Y0002136692D03*
X0003723425Y0001821732D03*
D94*
X0003198425Y0002399212D03*
D95*
X0003608425Y0001639212D03*
X0002788425Y0001639212D03*
X0003608425Y0001759212D03*
X0002788425Y0001759212D03*
D96*
X0003198425Y0001699212D03*
D97*
X0002698425Y0001924212D03*
D98*
X0002698425Y0002024212D03*
X0002698425Y0002124212D03*
D99*
X0002788425Y0001759212D02*
X0002788425Y0001914212D01*
X0003608425Y0001889212D02*
X0003608425Y0001759212D01*
X0003373425Y0002124212D02*
X0003608425Y0001889212D01*
X0002998425Y0002124212D02*
X0003373425Y0002124212D01*
X0002788425Y0001914212D02*
X0002998425Y0002124212D01*
X0002788425Y0001759212D02*
X0002788425Y0001959212D01*
X0002788425Y0001959212D02*
X0002723425Y0002024212D01*
X0002723425Y0002024212D02*
X0002698425Y0002024212D01*
X0003608425Y0001639212D02*
X0003608425Y0001759212D01*
X0002788425Y0001639212D02*
X0002788425Y0001759212D01*
X0003625905Y0002229212D02*
X0003723425Y0002136692D01*
X0003248425Y0002229212D02*
X0003625905Y0002229212D01*
X0002778425Y0002229212D02*
X0003148425Y0002229212D01*
X0002698425Y0002124212D02*
X0002698425Y0002149212D01*
X0002698425Y0002149212D02*
X0002778425Y0002229212D01*
X0003723425Y0001821732D02*
X0003723425Y0001549212D01*
X0003698425Y0001524212D02*
X0003373425Y0001524212D01*
X0003723425Y0001549212D02*
X0003698425Y0001524212D01*
X0003373425Y0001524212D02*
X0003198425Y0001699212D01*
X0003723425Y0001821732D02*
X0003723425Y0001854212D01*
X0003390945Y0001891732D02*
X0003198425Y0001699212D01*
X0003198425Y0001699212D02*
X0003373425Y0001699212D01*
G04 next file*
G04 #@! TF.FileFunction,Copper,L2,Bot,Signal*
G04 Gerber Fmt 4.6, Leading zero omitted, Abs format (unit mm)*
G04 Created by KiCad (PCBNEW 4.0.7) date 02/19/20 21:01:50*
G01*
G04 APERTURE LIST*
G04 APERTURE END LIST*
D100*
D101*
X-0003701574Y0006648425D02*
X0003148425Y0003523425D03*
D102*
X0003248425Y0003523425D03*
D103*
X0003723425Y0003435905D03*
X0003723425Y0003120944D03*
D104*
X0003198425Y0003698425D03*
D105*
X0003608425Y0002938425D03*
X0002788425Y0002938425D03*
X0003608425Y0003058425D03*
X0002788425Y0003058425D03*
D106*
X0003198425Y0002998425D03*
D107*
X0002698425Y0003223425D03*
D108*
X0002698425Y0003323425D03*
X0002698425Y0003423425D03*
D109*
X0002788425Y0003058425D02*
X0002788425Y0003213425D01*
X0003608425Y0003188425D02*
X0003608425Y0003058425D01*
X0003373425Y0003423425D02*
X0003608425Y0003188425D01*
X0002998425Y0003423425D02*
X0003373425Y0003423425D01*
X0002788425Y0003213425D02*
X0002998425Y0003423425D01*
X0002788425Y0003058425D02*
X0002788425Y0003258425D01*
X0002788425Y0003258425D02*
X0002723425Y0003323425D01*
X0002723425Y0003323425D02*
X0002698425Y0003323425D01*
X0003608425Y0002938425D02*
X0003608425Y0003058425D01*
X0002788425Y0002938425D02*
X0002788425Y0003058425D01*
X0003625905Y0003528425D02*
X0003723425Y0003435905D01*
X0003248425Y0003528425D02*
X0003625905Y0003528425D01*
X0002778425Y0003528425D02*
X0003148425Y0003528425D01*
X0002698425Y0003423425D02*
X0002698425Y0003448425D01*
X0002698425Y0003448425D02*
X0002778425Y0003528425D01*
X0003723425Y0003120944D02*
X0003723425Y0002848425D01*
X0003698425Y0002823425D02*
X0003373425Y0002823425D01*
X0003723425Y0002848425D02*
X0003698425Y0002823425D01*
X0003373425Y0002823425D02*
X0003198425Y0002998425D01*
X0003723425Y0003120944D02*
X0003723425Y0003153425D01*
X0003390945Y0003190944D02*
X0003198425Y0002998425D01*
X0003198425Y0002998425D02*
X0003373425Y0002998425D01*
M02*