%MOIN*%
%OFA0B0*%
%FSLAX46Y46*%
%IPPOS*%
%LPD*%
%ADD10C,0.005905511811023622*%
%ADD11C,0.065*%
%ADD12R,0.055000000000000007X0.055000000000000007*%
%ADD13C,0.055000000000000007*%
%ADD14R,0.066929133858267723X0.066929133858267723*%
%ADD15O,0.066929133858267723X0.066929133858267723*%
%ADD16C,0.07*%
%ADD17C,0.70000000000000007*%
%ADD18R,0.1X0.2*%
%ADD19C,0.2*%
%ADD20C,0.066*%
%ADD31C,0.005905511811023622*%
%ADD32C,0.065*%
%ADD33R,0.055000000000000007X0.055000000000000007*%
%ADD34C,0.055000000000000007*%
%ADD35R,0.066929133858267723X0.066929133858267723*%
%ADD36O,0.066929133858267723X0.066929133858267723*%
%ADD37C,0.07*%
%ADD38C,0.70000000000000007*%
%ADD39R,0.1X0.2*%
%ADD40C,0.2*%
%ADD41C,0.066*%
%ADD42C,0.005905511811023622*%
%ADD43C,0.065*%
%ADD44R,0.055000000000000007X0.055000000000000007*%
%ADD45C,0.055000000000000007*%
%ADD46R,0.066929133858267723X0.066929133858267723*%
%ADD47O,0.066929133858267723X0.066929133858267723*%
%ADD48C,0.07*%
%ADD49C,0.70000000000000007*%
%ADD50R,0.1X0.2*%
%ADD51C,0.2*%
%ADD52C,0.066*%
%ADD53C,0.005905511811023622*%
%ADD54C,0.065*%
%ADD55R,0.055000000000000007X0.055000000000000007*%
%ADD56C,0.055000000000000007*%
%ADD57R,0.066929133858267723X0.066929133858267723*%
%ADD58O,0.066929133858267723X0.066929133858267723*%
%ADD59C,0.07*%
%ADD60C,0.70000000000000007*%
%ADD61R,0.1X0.2*%
%ADD62C,0.2*%
%ADD63C,0.066*%
%ADD64C,0.005905511811023622*%
%ADD65C,0.065*%
%ADD66R,0.055000000000000007X0.055000000000000007*%
%ADD67C,0.055000000000000007*%
%ADD68R,0.066929133858267723X0.066929133858267723*%
%ADD69O,0.066929133858267723X0.066929133858267723*%
%ADD70C,0.07*%
%ADD71C,0.70000000000000007*%
%ADD72R,0.1X0.2*%
%ADD73C,0.2*%
%ADD74C,0.066*%
%ADD75C,0.005905511811023622*%
%ADD76C,0.065*%
%ADD77R,0.055000000000000007X0.055000000000000007*%
%ADD78C,0.055000000000000007*%
%ADD79R,0.066929133858267723X0.066929133858267723*%
%ADD80O,0.066929133858267723X0.066929133858267723*%
%ADD81C,0.07*%
%ADD82C,0.70000000000000007*%
%ADD83R,0.1X0.2*%
%ADD84C,0.2*%
%ADD85C,0.066*%
G01*
D10*
D11*
X-0005099999Y0005600000D02*
X0000250000Y0001450000D03*
X0000250000Y0001550000D03*
X0000250000Y0001350000D03*
X0000120000Y0001550000D03*
X0000120000Y0001450000D03*
X0000120000Y0001350000D03*
D12*
X0000100000Y0001200000D03*
D13*
X0000100000Y0001100000D03*
X0000100000Y0001000000D03*
X0000100000Y0000900000D03*
X0000400000Y0000900000D03*
X0000400000Y0001000000D03*
X0000400000Y0001100000D03*
X0000400000Y0001200000D03*
D14*
X0000750000Y0001550000D03*
D15*
X0000850000Y0001550000D03*
X0000750000Y0001450000D03*
X0000850000Y0001450000D03*
X0000750000Y0001350000D03*
X0000850000Y0001350000D03*
D16*
X0000850000Y0001000000D03*
X0000650000Y0001000000D03*
D17*
X0000500000Y0000400000D03*
D18*
X0000050000Y0000400000D03*
X0000950000Y0000400000D03*
D19*
X0000500000Y0001600000D03*
D11*
X0000650000Y0001750000D03*
X0000350000Y0001750000D03*
D13*
X0000100000Y0000750000D03*
X0000200000Y0000750000D03*
D20*
X0000550000Y0001850000D03*
X0000450000Y0001850000D03*
G04 next file*
G04 #@! TF.FileFunction,Soldermask,Top*
G04 Gerber Fmt 4.6, Leading zero omitted, Abs format (unit mm)*
G04 Created by KiCad (PCBNEW 4.0.7) date 02/16/20 19:40:50*
G01*
G04 APERTURE LIST*
G04 APERTURE END LIST*
D31*
D32*
X0006102362Y-0001692913D02*
X0000752362Y0002457086D03*
X0000752362Y0002357086D03*
X0000752362Y0002557086D03*
X0000882362Y0002357086D03*
X0000882362Y0002457086D03*
X0000882362Y0002557086D03*
D33*
X0000902362Y0002707086D03*
D34*
X0000902362Y0002807086D03*
X0000902362Y0002907086D03*
X0000902362Y0003007086D03*
X0000602362Y0003007086D03*
X0000602362Y0002907086D03*
X0000602362Y0002807086D03*
X0000602362Y0002707086D03*
D35*
X0000252362Y0002357086D03*
D36*
X0000152362Y0002357086D03*
X0000252362Y0002457086D03*
X0000152362Y0002457086D03*
X0000252362Y0002557086D03*
X0000152362Y0002557086D03*
D37*
X0000152362Y0002907086D03*
X0000352362Y0002907086D03*
D38*
X0000502362Y0003507086D03*
D39*
X0000952362Y0003507086D03*
X0000052362Y0003507086D03*
D40*
X0000502362Y0002307086D03*
D32*
X0000352362Y0002157086D03*
X0000652362Y0002157086D03*
D34*
X0000902362Y0003157086D03*
X0000802362Y0003157086D03*
D41*
X0000452362Y0002057086D03*
X0000552362Y0002057086D03*
G04 next file*
G04 #@! TF.FileFunction,Soldermask,Top*
G04 Gerber Fmt 4.6, Leading zero omitted, Abs format (unit mm)*
G04 Created by KiCad (PCBNEW 4.0.7) date 02/16/20 19:40:50*
G01*
G04 APERTURE LIST*
G04 APERTURE END LIST*
D42*
D43*
X-0003976377Y0005590551D02*
X0001373622Y0001440551D03*
X0001373622Y0001540551D03*
X0001373622Y0001340551D03*
X0001243622Y0001540551D03*
X0001243622Y0001440551D03*
X0001243622Y0001340551D03*
D44*
X0001223622Y0001190551D03*
D45*
X0001223622Y0001090551D03*
X0001223622Y0000990551D03*
X0001223622Y0000890551D03*
X0001523622Y0000890551D03*
X0001523622Y0000990551D03*
X0001523622Y0001090551D03*
X0001523622Y0001190551D03*
D46*
X0001873622Y0001540551D03*
D47*
X0001973622Y0001540551D03*
X0001873622Y0001440551D03*
X0001973622Y0001440551D03*
X0001873622Y0001340551D03*
X0001973622Y0001340551D03*
D48*
X0001973622Y0000990551D03*
X0001773622Y0000990551D03*
D49*
X0001623622Y0000390551D03*
D50*
X0001173622Y0000390551D03*
X0002073622Y0000390551D03*
D51*
X0001623622Y0001590551D03*
D43*
X0001773622Y0001740551D03*
X0001473622Y0001740551D03*
D45*
X0001223622Y0000740551D03*
X0001323622Y0000740551D03*
D52*
X0001673622Y0001840551D03*
X0001573622Y0001840551D03*
G04 next file*
G04 #@! TF.FileFunction,Soldermask,Top*
G04 Gerber Fmt 4.6, Leading zero omitted, Abs format (unit mm)*
G04 Created by KiCad (PCBNEW 4.0.7) date 02/16/20 19:40:50*
G01*
G04 APERTURE LIST*
G04 APERTURE END LIST*
D53*
D54*
X-0002874015Y0005590551D02*
X0002475984Y0001440551D03*
X0002475984Y0001540551D03*
X0002475984Y0001340551D03*
X0002345984Y0001540551D03*
X0002345984Y0001440551D03*
X0002345984Y0001340551D03*
D55*
X0002325984Y0001190551D03*
D56*
X0002325984Y0001090551D03*
X0002325984Y0000990551D03*
X0002325984Y0000890551D03*
X0002625984Y0000890551D03*
X0002625984Y0000990551D03*
X0002625984Y0001090551D03*
X0002625984Y0001190551D03*
D57*
X0002975984Y0001540551D03*
D58*
X0003075984Y0001540551D03*
X0002975984Y0001440551D03*
X0003075984Y0001440551D03*
X0002975984Y0001340551D03*
X0003075984Y0001340551D03*
D59*
X0003075984Y0000990551D03*
X0002875984Y0000990551D03*
D60*
X0002725984Y0000390551D03*
D61*
X0002275984Y0000390551D03*
X0003175984Y0000390551D03*
D62*
X0002725984Y0001590551D03*
D54*
X0002875984Y0001740551D03*
X0002575984Y0001740551D03*
D56*
X0002325984Y0000740551D03*
X0002425984Y0000740551D03*
D63*
X0002775984Y0001840551D03*
X0002675984Y0001840551D03*
G04 next file*
G04 #@! TF.FileFunction,Soldermask,Top*
G04 Gerber Fmt 4.6, Leading zero omitted, Abs format (unit mm)*
G04 Created by KiCad (PCBNEW 4.0.7) date 02/16/20 19:40:50*
G01*
G04 APERTURE LIST*
G04 APERTURE END LIST*
D64*
D65*
X0007204724Y-0001692913D02*
X0001854724Y0002457086D03*
X0001854724Y0002357086D03*
X0001854724Y0002557086D03*
X0001984724Y0002357086D03*
X0001984724Y0002457086D03*
X0001984724Y0002557086D03*
D66*
X0002004724Y0002707086D03*
D67*
X0002004724Y0002807086D03*
X0002004724Y0002907086D03*
X0002004724Y0003007086D03*
X0001704724Y0003007086D03*
X0001704724Y0002907086D03*
X0001704724Y0002807086D03*
X0001704724Y0002707086D03*
D68*
X0001354724Y0002357086D03*
D69*
X0001254724Y0002357086D03*
X0001354724Y0002457086D03*
X0001254724Y0002457086D03*
X0001354724Y0002557086D03*
X0001254724Y0002557086D03*
D70*
X0001254724Y0002907086D03*
X0001454724Y0002907086D03*
D71*
X0001604724Y0003507086D03*
D72*
X0002054724Y0003507086D03*
X0001154724Y0003507086D03*
D73*
X0001604724Y0002307086D03*
D65*
X0001454724Y0002157086D03*
X0001754724Y0002157086D03*
D67*
X0002004724Y0003157086D03*
X0001904724Y0003157086D03*
D74*
X0001554724Y0002057086D03*
X0001654724Y0002057086D03*
G04 next file*
G04 #@! TF.FileFunction,Soldermask,Top*
G04 Gerber Fmt 4.6, Leading zero omitted, Abs format (unit mm)*
G04 Created by KiCad (PCBNEW 4.0.7) date 02/16/20 19:40:50*
G01*
G04 APERTURE LIST*
G04 APERTURE END LIST*
D75*
D76*
X0008307086Y-0001692913D02*
X0002957086Y0002457086D03*
X0002957086Y0002357086D03*
X0002957086Y0002557086D03*
X0003087086Y0002357086D03*
X0003087086Y0002457086D03*
X0003087086Y0002557086D03*
D77*
X0003107086Y0002707086D03*
D78*
X0003107086Y0002807086D03*
X0003107086Y0002907086D03*
X0003107086Y0003007086D03*
X0002807086Y0003007086D03*
X0002807086Y0002907086D03*
X0002807086Y0002807086D03*
X0002807086Y0002707086D03*
D79*
X0002457086Y0002357086D03*
D80*
X0002357086Y0002357086D03*
X0002457086Y0002457086D03*
X0002357086Y0002457086D03*
X0002457086Y0002557086D03*
X0002357086Y0002557086D03*
D81*
X0002357086Y0002907086D03*
X0002557086Y0002907086D03*
D82*
X0002707086Y0003507086D03*
D83*
X0003157086Y0003507086D03*
X0002257086Y0003507086D03*
D84*
X0002707086Y0002307086D03*
D76*
X0002557086Y0002157086D03*
X0002857086Y0002157086D03*
D78*
X0003107086Y0003157086D03*
X0003007086Y0003157086D03*
D85*
X0002657086Y0002057086D03*
X0002757086Y0002057086D03*
M02*