%MOIN*%
%OFA0B0*%
%FSLAX46Y46*%
%IPPOS*%
%LPD*%
%ADD10C,0.005905511811023622*%
%ADD11C,0.01*%
%ADD12C,0.065*%
%ADD13R,0.055000000000000007X0.055000000000000007*%
%ADD14C,0.055000000000000007*%
%ADD15R,0.066929133858267723X0.066929133858267723*%
%ADD16C,0.07*%
%ADD17C,0.2*%
%ADD18R,0.04X0.04*%
%ADD19C,0.066*%
%ADD20C,0.016*%
%ADD31C,0.005905511811023622*%
%ADD32C,0.01*%
%ADD33C,0.065*%
%ADD34R,0.055000000000000007X0.055000000000000007*%
%ADD35C,0.055000000000000007*%
%ADD36R,0.066929133858267723X0.066929133858267723*%
%ADD37C,0.07*%
%ADD38C,0.2*%
%ADD39R,0.04X0.04*%
%ADD40C,0.066*%
%ADD41C,0.016*%
%ADD42C,0.005905511811023622*%
%ADD43C,0.01*%
%ADD44C,0.065*%
%ADD45R,0.055000000000000007X0.055000000000000007*%
%ADD46C,0.055000000000000007*%
%ADD47R,0.066929133858267723X0.066929133858267723*%
%ADD48C,0.07*%
%ADD49C,0.2*%
%ADD50R,0.04X0.04*%
%ADD51C,0.066*%
%ADD52C,0.016*%
%ADD53C,0.005905511811023622*%
%ADD54C,0.01*%
%ADD55C,0.065*%
%ADD56R,0.055000000000000007X0.055000000000000007*%
%ADD57C,0.055000000000000007*%
%ADD58R,0.066929133858267723X0.066929133858267723*%
%ADD59C,0.07*%
%ADD60C,0.2*%
%ADD61R,0.04X0.04*%
%ADD62C,0.066*%
%ADD63C,0.016*%
%ADD64C,0.005905511811023622*%
%ADD65C,0.01*%
%ADD66C,0.065*%
%ADD67R,0.055000000000000007X0.055000000000000007*%
%ADD68C,0.055000000000000007*%
%ADD69R,0.066929133858267723X0.066929133858267723*%
%ADD70C,0.07*%
%ADD71C,0.2*%
%ADD72R,0.04X0.04*%
%ADD73C,0.066*%
%ADD74C,0.016*%
%ADD75C,0.005905511811023622*%
%ADD76C,0.01*%
%ADD77C,0.065*%
%ADD78R,0.055000000000000007X0.055000000000000007*%
%ADD79C,0.055000000000000007*%
%ADD80R,0.066929133858267723X0.066929133858267723*%
%ADD81C,0.07*%
%ADD82C,0.2*%
%ADD83R,0.04X0.04*%
%ADD84C,0.066*%
%ADD85C,0.016*%
G01*
D10*
D11*
X0000135000Y0000300000D02*
X0000355000Y0000300000D01*
X0000135000Y0000500000D02*
X0000355000Y0000500000D01*
X0000415000Y0000320000D02*
X0000175000Y0000320000D01*
X0000415000Y0000480000D02*
X0000175000Y0000480000D01*
X0000135000Y0000340000D02*
X0000395000Y0000340000D01*
X0000135000Y0000460000D02*
X0000395000Y0000460000D01*
X0000415000Y0000440000D02*
X0000155000Y0000440000D01*
X0000415000Y0000360000D02*
X0000155000Y0000360000D01*
X0000135000Y0000380000D02*
X0000395000Y0000380000D01*
X0000135000Y0000420000D02*
X0000395000Y0000420000D01*
X0000415000Y0000400000D02*
X0000155000Y0000400000D01*
X0000395000Y0000270000D02*
X0000415000Y0000290000D01*
X0000415000Y0000290000D02*
X0000415000Y0000520000D01*
X0000415000Y0000520000D02*
X0000395000Y0000540000D01*
X0000135000Y0000280000D02*
X0000135000Y0000510000D01*
X0000135000Y0000510000D02*
X0000155000Y0000530000D01*
D12*
X0000250000Y0001450000D03*
X0000250000Y0001550000D03*
X0000250000Y0001350000D03*
X0000120000Y0001550000D03*
X0000120000Y0001450000D03*
X0000120000Y0001350000D03*
D13*
X0000100000Y0001200000D03*
D14*
X0000100000Y0001100000D03*
X0000100000Y0001000000D03*
X0000100000Y0000900000D03*
X0000400000Y0000900000D03*
X0000400000Y0001000000D03*
X0000400000Y0001100000D03*
X0000400000Y0001200000D03*
D15*
X0000750000Y0001550000D03*
D16*
X0000850000Y0001000000D03*
X0000650000Y0001000000D03*
D17*
X0000500000Y0001600000D03*
D12*
X0000650000Y0001750000D03*
X0000350000Y0001750000D03*
D18*
X0000400000Y0000530000D03*
X0000150000Y0000525000D03*
X0000400000Y0000280000D03*
X0000150000Y0000280000D03*
D14*
X0000100000Y0000750000D03*
X0000200000Y0000750000D03*
D19*
X0000550000Y0001850000D03*
X0000450000Y0001850000D03*
D20*
X0000400000Y0001200000D02*
X0000370000Y0001200000D01*
X0000060000Y0000750000D02*
X0000100000Y0000750000D01*
X0000055000Y0000745000D02*
X0000060000Y0000750000D01*
X0000055000Y0000775000D02*
X0000055000Y0000745000D01*
X0000050000Y0000780000D02*
X0000055000Y0000775000D01*
X0000050000Y0001110000D02*
X0000050000Y0000780000D01*
X0000050000Y0001400000D02*
X0000050000Y0001110000D01*
X0000175000Y0001400000D02*
X0000050000Y0001400000D01*
X0000365000Y0001400000D02*
X0000175000Y0001400000D01*
X0000365000Y0001205000D02*
X0000365000Y0001400000D01*
X0000370000Y0001200000D02*
X0000365000Y0001205000D01*
X0000150000Y0000525000D02*
X0000105000Y0000525000D01*
X0000200000Y0000570000D02*
X0000200000Y0000750000D01*
X0000105000Y0000570000D02*
X0000200000Y0000570000D01*
X0000100000Y0000575000D02*
X0000105000Y0000570000D01*
X0000100000Y0000525000D02*
X0000100000Y0000575000D01*
X0000105000Y0000525000D02*
X0000100000Y0000525000D01*
X0000400000Y0001000000D02*
X0000338582Y0001000000D01*
X0000758267Y0001509449D02*
X0000750000Y0001517716D01*
X0000758267Y0001383464D02*
X0000758267Y0001509449D01*
X0000486614Y0001383464D02*
X0000758267Y0001383464D01*
X0000486614Y0001155118D02*
X0000486614Y0001383464D01*
X0000490551Y0001151181D02*
X0000486614Y0001155118D01*
X0000344882Y0001151181D02*
X0000490551Y0001151181D01*
X0000340945Y0001155118D02*
X0000344882Y0001151181D01*
X0000340945Y0001002362D02*
X0000340945Y0001155118D01*
X0000338582Y0001000000D02*
X0000340945Y0001002362D01*
X0000750000Y0001517716D02*
X0000750000Y0001550000D01*
X0000750000Y0001550000D02*
X0000750000Y0001800393D01*
X0000550000Y0001812204D02*
X0000550000Y0001850000D01*
X0000557480Y0001804724D02*
X0000550000Y0001812204D01*
X0000745669Y0001804724D02*
X0000557480Y0001804724D01*
X0000750000Y0001800393D02*
X0000745669Y0001804724D01*
X0000400000Y0000530000D02*
X0000483543Y0000530000D01*
X0000486614Y0001100000D02*
X0000400000Y0001100000D01*
X0000486614Y0000533071D02*
X0000486614Y0001100000D01*
X0000483543Y0000530000D02*
X0000486614Y0000533071D01*
G04 next file*
G04 #@! TF.FileFunction,Copper,L2,Bot,Signal*
G04 Gerber Fmt 4.6, Leading zero omitted, Abs format (unit mm)*
G04 Created by KiCad (PCBNEW 4.0.7) date 02/16/20 19:40:50*
G01*
G04 APERTURE LIST*
G04 APERTURE END LIST*
D31*
D32*
X0000867362Y0003607086D02*
X0000647362Y0003607086D01*
X0000867362Y0003407086D02*
X0000647362Y0003407086D01*
X0000587362Y0003587086D02*
X0000827362Y0003587086D01*
X0000587362Y0003427086D02*
X0000827362Y0003427086D01*
X0000867362Y0003567086D02*
X0000607362Y0003567086D01*
X0000867362Y0003447086D02*
X0000607362Y0003447086D01*
X0000587362Y0003467086D02*
X0000847362Y0003467086D01*
X0000587362Y0003547086D02*
X0000847362Y0003547086D01*
X0000867362Y0003527086D02*
X0000607362Y0003527086D01*
X0000867362Y0003487086D02*
X0000607362Y0003487086D01*
X0000587362Y0003507086D02*
X0000847362Y0003507086D01*
X0000607362Y0003637086D02*
X0000587362Y0003617086D01*
X0000587362Y0003617086D02*
X0000587362Y0003387086D01*
X0000587362Y0003387086D02*
X0000607362Y0003367086D01*
X0000867362Y0003627086D02*
X0000867362Y0003397086D01*
X0000867362Y0003397086D02*
X0000847362Y0003377086D01*
D33*
X0000752362Y0002457086D03*
X0000752362Y0002357086D03*
X0000752362Y0002557086D03*
X0000882362Y0002357086D03*
X0000882362Y0002457086D03*
X0000882362Y0002557086D03*
D34*
X0000902362Y0002707086D03*
D35*
X0000902362Y0002807086D03*
X0000902362Y0002907086D03*
X0000902362Y0003007086D03*
X0000602362Y0003007086D03*
X0000602362Y0002907086D03*
X0000602362Y0002807086D03*
X0000602362Y0002707086D03*
D36*
X0000252362Y0002357086D03*
D37*
X0000152362Y0002907086D03*
X0000352362Y0002907086D03*
D38*
X0000502362Y0002307086D03*
D33*
X0000352362Y0002157086D03*
X0000652362Y0002157086D03*
D39*
X0000602362Y0003377086D03*
X0000852362Y0003382086D03*
X0000602362Y0003627086D03*
X0000852362Y0003627086D03*
D35*
X0000902362Y0003157086D03*
X0000802362Y0003157086D03*
D40*
X0000452362Y0002057086D03*
X0000552362Y0002057086D03*
D41*
X0000602362Y0002707086D02*
X0000632362Y0002707086D01*
X0000942362Y0003157086D02*
X0000902362Y0003157086D01*
X0000947362Y0003162086D02*
X0000942362Y0003157086D01*
X0000947362Y0003132086D02*
X0000947362Y0003162086D01*
X0000952362Y0003127086D02*
X0000947362Y0003132086D01*
X0000952362Y0002797086D02*
X0000952362Y0003127086D01*
X0000952362Y0002507086D02*
X0000952362Y0002797086D01*
X0000827362Y0002507086D02*
X0000952362Y0002507086D01*
X0000637362Y0002507086D02*
X0000827362Y0002507086D01*
X0000637362Y0002702086D02*
X0000637362Y0002507086D01*
X0000632362Y0002707086D02*
X0000637362Y0002702086D01*
X0000852362Y0003382086D02*
X0000897362Y0003382086D01*
X0000802362Y0003337086D02*
X0000802362Y0003157086D01*
X0000897362Y0003337086D02*
X0000802362Y0003337086D01*
X0000902362Y0003332086D02*
X0000897362Y0003337086D01*
X0000902362Y0003382086D02*
X0000902362Y0003332086D01*
X0000897362Y0003382086D02*
X0000902362Y0003382086D01*
X0000602362Y0002907086D02*
X0000663779Y0002907086D01*
X0000244094Y0002397637D02*
X0000252362Y0002389370D01*
X0000244094Y0002523622D02*
X0000244094Y0002397637D01*
X0000515747Y0002523622D02*
X0000244094Y0002523622D01*
X0000515747Y0002751968D02*
X0000515747Y0002523622D01*
X0000511811Y0002755905D02*
X0000515747Y0002751968D01*
X0000657480Y0002755905D02*
X0000511811Y0002755905D01*
X0000661417Y0002751968D02*
X0000657480Y0002755905D01*
X0000661417Y0002904724D02*
X0000661417Y0002751968D01*
X0000663779Y0002907086D02*
X0000661417Y0002904724D01*
X0000252362Y0002389370D02*
X0000252362Y0002357086D01*
X0000252362Y0002357086D02*
X0000252362Y0002106692D01*
X0000452362Y0002094881D02*
X0000452362Y0002057086D01*
X0000444881Y0002102362D02*
X0000452362Y0002094881D01*
X0000256692Y0002102362D02*
X0000444881Y0002102362D01*
X0000252362Y0002106692D02*
X0000256692Y0002102362D01*
X0000602362Y0003377086D02*
X0000518818Y0003377086D01*
X0000515747Y0002807086D02*
X0000602362Y0002807086D01*
X0000515748Y0003374015D02*
X0000515747Y0002807086D01*
X0000518818Y0003377086D02*
X0000515748Y0003374015D01*
G04 next file*
G04 #@! TF.FileFunction,Copper,L2,Bot,Signal*
G04 Gerber Fmt 4.6, Leading zero omitted, Abs format (unit mm)*
G04 Created by KiCad (PCBNEW 4.0.7) date 02/16/20 19:40:50*
G01*
G04 APERTURE LIST*
G04 APERTURE END LIST*
D42*
D43*
X0001258622Y0000290551D02*
X0001478622Y0000290551D01*
X0001258622Y0000490551D02*
X0001478622Y0000490551D01*
X0001538622Y0000310551D02*
X0001298622Y0000310551D01*
X0001538622Y0000470551D02*
X0001298622Y0000470551D01*
X0001258622Y0000330551D02*
X0001518622Y0000330551D01*
X0001258622Y0000450551D02*
X0001518622Y0000450551D01*
X0001538622Y0000430551D02*
X0001278622Y0000430551D01*
X0001538622Y0000350551D02*
X0001278622Y0000350551D01*
X0001258622Y0000370551D02*
X0001518622Y0000370551D01*
X0001258622Y0000410551D02*
X0001518622Y0000410551D01*
X0001538622Y0000390551D02*
X0001278622Y0000390551D01*
X0001518622Y0000260551D02*
X0001538622Y0000280551D01*
X0001538622Y0000280551D02*
X0001538622Y0000510551D01*
X0001538622Y0000510551D02*
X0001518622Y0000530551D01*
X0001258622Y0000270551D02*
X0001258622Y0000500551D01*
X0001258622Y0000500551D02*
X0001278622Y0000520551D01*
D44*
X0001373622Y0001440551D03*
X0001373622Y0001540551D03*
X0001373622Y0001340551D03*
X0001243622Y0001540551D03*
X0001243622Y0001440551D03*
X0001243622Y0001340551D03*
D45*
X0001223622Y0001190551D03*
D46*
X0001223622Y0001090551D03*
X0001223622Y0000990551D03*
X0001223622Y0000890551D03*
X0001523622Y0000890551D03*
X0001523622Y0000990551D03*
X0001523622Y0001090551D03*
X0001523622Y0001190551D03*
D47*
X0001873622Y0001540551D03*
D48*
X0001973622Y0000990551D03*
X0001773622Y0000990551D03*
D49*
X0001623622Y0001590551D03*
D44*
X0001773622Y0001740551D03*
X0001473622Y0001740551D03*
D50*
X0001523622Y0000520551D03*
X0001273622Y0000515551D03*
X0001523622Y0000270551D03*
X0001273622Y0000270551D03*
D46*
X0001223622Y0000740551D03*
X0001323622Y0000740551D03*
D51*
X0001673622Y0001840551D03*
X0001573622Y0001840551D03*
D52*
X0001523622Y0001190551D02*
X0001493622Y0001190551D01*
X0001183622Y0000740551D02*
X0001223622Y0000740551D01*
X0001178622Y0000735551D02*
X0001183622Y0000740551D01*
X0001178622Y0000765551D02*
X0001178622Y0000735551D01*
X0001173622Y0000770551D02*
X0001178622Y0000765551D01*
X0001173622Y0001100551D02*
X0001173622Y0000770551D01*
X0001173622Y0001390551D02*
X0001173622Y0001100551D01*
X0001298622Y0001390551D02*
X0001173622Y0001390551D01*
X0001488622Y0001390551D02*
X0001298622Y0001390551D01*
X0001488622Y0001195551D02*
X0001488622Y0001390551D01*
X0001493622Y0001190551D02*
X0001488622Y0001195551D01*
X0001273622Y0000515551D02*
X0001228622Y0000515551D01*
X0001323622Y0000560551D02*
X0001323622Y0000740551D01*
X0001228622Y0000560551D02*
X0001323622Y0000560551D01*
X0001223622Y0000565551D02*
X0001228622Y0000560551D01*
X0001223622Y0000515551D02*
X0001223622Y0000565551D01*
X0001228622Y0000515551D02*
X0001223622Y0000515551D01*
X0001523622Y0000990551D02*
X0001462204Y0000990551D01*
X0001881889Y0001499999D02*
X0001873622Y0001508267D01*
X0001881889Y0001374015D02*
X0001881889Y0001499999D01*
X0001610236Y0001374015D02*
X0001881889Y0001374015D01*
X0001610236Y0001145669D02*
X0001610236Y0001374015D01*
X0001614173Y0001141732D02*
X0001610236Y0001145669D01*
X0001468503Y0001141732D02*
X0001614173Y0001141732D01*
X0001464566Y0001145669D02*
X0001468503Y0001141732D01*
X0001464566Y0000992913D02*
X0001464566Y0001145669D01*
X0001462204Y0000990551D02*
X0001464566Y0000992913D01*
X0001873622Y0001508267D02*
X0001873622Y0001540551D01*
X0001873622Y0001540551D02*
X0001873622Y0001790944D01*
X0001673622Y0001802755D02*
X0001673622Y0001840551D01*
X0001681102Y0001795275D02*
X0001673622Y0001802755D01*
X0001869291Y0001795275D02*
X0001681102Y0001795275D01*
X0001873622Y0001790944D02*
X0001869291Y0001795275D01*
X0001523622Y0000520551D02*
X0001607165Y0000520551D01*
X0001610236Y0001090551D02*
X0001523622Y0001090551D01*
X0001610236Y0000523622D02*
X0001610236Y0001090551D01*
X0001607165Y0000520551D02*
X0001610236Y0000523622D01*
G04 next file*
G04 #@! TF.FileFunction,Copper,L2,Bot,Signal*
G04 Gerber Fmt 4.6, Leading zero omitted, Abs format (unit mm)*
G04 Created by KiCad (PCBNEW 4.0.7) date 02/16/20 19:40:50*
G01*
G04 APERTURE LIST*
G04 APERTURE END LIST*
D53*
D54*
X0002360984Y0000290551D02*
X0002580984Y0000290551D01*
X0002360984Y0000490551D02*
X0002580984Y0000490551D01*
X0002640984Y0000310551D02*
X0002400984Y0000310551D01*
X0002640984Y0000470551D02*
X0002400984Y0000470551D01*
X0002360984Y0000330551D02*
X0002620984Y0000330551D01*
X0002360984Y0000450551D02*
X0002620984Y0000450551D01*
X0002640984Y0000430551D02*
X0002380984Y0000430551D01*
X0002640984Y0000350551D02*
X0002380984Y0000350551D01*
X0002360984Y0000370551D02*
X0002620984Y0000370551D01*
X0002360984Y0000410551D02*
X0002620984Y0000410551D01*
X0002640984Y0000390551D02*
X0002380984Y0000390551D01*
X0002620984Y0000260551D02*
X0002640984Y0000280551D01*
X0002640984Y0000280551D02*
X0002640984Y0000510551D01*
X0002640984Y0000510551D02*
X0002620984Y0000530551D01*
X0002360984Y0000270551D02*
X0002360984Y0000500551D01*
X0002360984Y0000500551D02*
X0002380984Y0000520551D01*
D55*
X0002475984Y0001440551D03*
X0002475984Y0001540551D03*
X0002475984Y0001340551D03*
X0002345984Y0001540551D03*
X0002345984Y0001440551D03*
X0002345984Y0001340551D03*
D56*
X0002325984Y0001190551D03*
D57*
X0002325984Y0001090551D03*
X0002325984Y0000990551D03*
X0002325984Y0000890551D03*
X0002625984Y0000890551D03*
X0002625984Y0000990551D03*
X0002625984Y0001090551D03*
X0002625984Y0001190551D03*
D58*
X0002975984Y0001540551D03*
D59*
X0003075984Y0000990551D03*
X0002875984Y0000990551D03*
D60*
X0002725984Y0001590551D03*
D55*
X0002875984Y0001740551D03*
X0002575984Y0001740551D03*
D61*
X0002625984Y0000520551D03*
X0002375984Y0000515551D03*
X0002625984Y0000270551D03*
X0002375984Y0000270551D03*
D57*
X0002325984Y0000740551D03*
X0002425984Y0000740551D03*
D62*
X0002775984Y0001840551D03*
X0002675984Y0001840551D03*
D63*
X0002625984Y0001190551D02*
X0002595984Y0001190551D01*
X0002285984Y0000740551D02*
X0002325984Y0000740551D01*
X0002280984Y0000735551D02*
X0002285984Y0000740551D01*
X0002280984Y0000765551D02*
X0002280984Y0000735551D01*
X0002275984Y0000770551D02*
X0002280984Y0000765551D01*
X0002275984Y0001100551D02*
X0002275984Y0000770551D01*
X0002275984Y0001390551D02*
X0002275984Y0001100551D01*
X0002400984Y0001390551D02*
X0002275984Y0001390551D01*
X0002590984Y0001390551D02*
X0002400984Y0001390551D01*
X0002590984Y0001195551D02*
X0002590984Y0001390551D01*
X0002595984Y0001190551D02*
X0002590984Y0001195551D01*
X0002375984Y0000515551D02*
X0002330984Y0000515551D01*
X0002425984Y0000560551D02*
X0002425984Y0000740551D01*
X0002330984Y0000560551D02*
X0002425984Y0000560551D01*
X0002325984Y0000565551D02*
X0002330984Y0000560551D01*
X0002325984Y0000515551D02*
X0002325984Y0000565551D01*
X0002330984Y0000515551D02*
X0002325984Y0000515551D01*
X0002625984Y0000990551D02*
X0002564566Y0000990551D01*
X0002984251Y0001499999D02*
X0002975984Y0001508267D01*
X0002984251Y0001374015D02*
X0002984251Y0001499999D01*
X0002712598Y0001374015D02*
X0002984251Y0001374015D01*
X0002712598Y0001145669D02*
X0002712598Y0001374015D01*
X0002716535Y0001141732D02*
X0002712598Y0001145669D01*
X0002570866Y0001141732D02*
X0002716535Y0001141732D01*
X0002566929Y0001145669D02*
X0002570866Y0001141732D01*
X0002566929Y0000992913D02*
X0002566929Y0001145669D01*
X0002564566Y0000990551D02*
X0002566929Y0000992913D01*
X0002975984Y0001508267D02*
X0002975984Y0001540551D01*
X0002975984Y0001540551D02*
X0002975984Y0001790944D01*
X0002775984Y0001802755D02*
X0002775984Y0001840551D01*
X0002783464Y0001795275D02*
X0002775984Y0001802755D01*
X0002971653Y0001795275D02*
X0002783464Y0001795275D01*
X0002975984Y0001790944D02*
X0002971653Y0001795275D01*
X0002625984Y0000520551D02*
X0002709527Y0000520551D01*
X0002712598Y0001090551D02*
X0002625984Y0001090551D01*
X0002712598Y0000523622D02*
X0002712598Y0001090551D01*
X0002709527Y0000520551D02*
X0002712598Y0000523622D01*
G04 next file*
G04 #@! TF.FileFunction,Copper,L2,Bot,Signal*
G04 Gerber Fmt 4.6, Leading zero omitted, Abs format (unit mm)*
G04 Created by KiCad (PCBNEW 4.0.7) date 02/16/20 19:40:50*
G01*
G04 APERTURE LIST*
G04 APERTURE END LIST*
D64*
D65*
X0001969724Y0003607086D02*
X0001749724Y0003607086D01*
X0001969724Y0003407086D02*
X0001749724Y0003407086D01*
X0001689724Y0003587086D02*
X0001929724Y0003587086D01*
X0001689724Y0003427086D02*
X0001929724Y0003427086D01*
X0001969724Y0003567086D02*
X0001709724Y0003567086D01*
X0001969724Y0003447086D02*
X0001709724Y0003447086D01*
X0001689724Y0003467086D02*
X0001949724Y0003467086D01*
X0001689724Y0003547086D02*
X0001949724Y0003547086D01*
X0001969724Y0003527086D02*
X0001709724Y0003527086D01*
X0001969724Y0003487086D02*
X0001709724Y0003487086D01*
X0001689724Y0003507086D02*
X0001949724Y0003507086D01*
X0001709724Y0003637086D02*
X0001689724Y0003617086D01*
X0001689724Y0003617086D02*
X0001689724Y0003387086D01*
X0001689724Y0003387086D02*
X0001709724Y0003367086D01*
X0001969724Y0003627086D02*
X0001969724Y0003397086D01*
X0001969724Y0003397086D02*
X0001949724Y0003377086D01*
D66*
X0001854724Y0002457086D03*
X0001854724Y0002357086D03*
X0001854724Y0002557086D03*
X0001984724Y0002357086D03*
X0001984724Y0002457086D03*
X0001984724Y0002557086D03*
D67*
X0002004724Y0002707086D03*
D68*
X0002004724Y0002807086D03*
X0002004724Y0002907086D03*
X0002004724Y0003007086D03*
X0001704724Y0003007086D03*
X0001704724Y0002907086D03*
X0001704724Y0002807086D03*
X0001704724Y0002707086D03*
D69*
X0001354724Y0002357086D03*
D70*
X0001254724Y0002907086D03*
X0001454724Y0002907086D03*
D71*
X0001604724Y0002307086D03*
D66*
X0001454724Y0002157086D03*
X0001754724Y0002157086D03*
D72*
X0001704724Y0003377086D03*
X0001954724Y0003382086D03*
X0001704724Y0003627086D03*
X0001954724Y0003627086D03*
D68*
X0002004724Y0003157086D03*
X0001904724Y0003157086D03*
D73*
X0001554724Y0002057086D03*
X0001654724Y0002057086D03*
D74*
X0001704724Y0002707086D02*
X0001734724Y0002707086D01*
X0002044724Y0003157086D02*
X0002004724Y0003157086D01*
X0002049724Y0003162086D02*
X0002044724Y0003157086D01*
X0002049724Y0003132086D02*
X0002049724Y0003162086D01*
X0002054724Y0003127086D02*
X0002049724Y0003132086D01*
X0002054724Y0002797086D02*
X0002054724Y0003127086D01*
X0002054724Y0002507086D02*
X0002054724Y0002797086D01*
X0001929724Y0002507086D02*
X0002054724Y0002507086D01*
X0001739724Y0002507086D02*
X0001929724Y0002507086D01*
X0001739724Y0002702086D02*
X0001739724Y0002507086D01*
X0001734724Y0002707086D02*
X0001739724Y0002702086D01*
X0001954724Y0003382086D02*
X0001999724Y0003382086D01*
X0001904724Y0003337086D02*
X0001904724Y0003157086D01*
X0001999724Y0003337086D02*
X0001904724Y0003337086D01*
X0002004724Y0003332086D02*
X0001999724Y0003337086D01*
X0002004724Y0003382086D02*
X0002004724Y0003332086D01*
X0001999724Y0003382086D02*
X0002004724Y0003382086D01*
X0001704724Y0002907086D02*
X0001766141Y0002907086D01*
X0001346456Y0002397637D02*
X0001354724Y0002389370D01*
X0001346456Y0002523622D02*
X0001346456Y0002397637D01*
X0001618110Y0002523622D02*
X0001346456Y0002523622D01*
X0001618110Y0002751968D02*
X0001618110Y0002523622D01*
X0001614173Y0002755905D02*
X0001618110Y0002751968D01*
X0001759842Y0002755905D02*
X0001614173Y0002755905D01*
X0001763779Y0002751968D02*
X0001759842Y0002755905D01*
X0001763779Y0002904724D02*
X0001763779Y0002751968D01*
X0001766141Y0002907086D02*
X0001763779Y0002904724D01*
X0001354724Y0002389370D02*
X0001354724Y0002357086D01*
X0001354724Y0002357086D02*
X0001354724Y0002106692D01*
X0001554724Y0002094881D02*
X0001554724Y0002057086D01*
X0001547244Y0002102362D02*
X0001554724Y0002094881D01*
X0001359055Y0002102362D02*
X0001547244Y0002102362D01*
X0001354724Y0002106692D02*
X0001359055Y0002102362D01*
X0001704724Y0003377086D02*
X0001621181Y0003377086D01*
X0001618110Y0002807086D02*
X0001704724Y0002807086D01*
X0001618110Y0003374015D02*
X0001618110Y0002807086D01*
X0001621181Y0003377086D02*
X0001618110Y0003374015D01*
G04 next file*
G04 #@! TF.FileFunction,Copper,L2,Bot,Signal*
G04 Gerber Fmt 4.6, Leading zero omitted, Abs format (unit mm)*
G04 Created by KiCad (PCBNEW 4.0.7) date 02/16/20 19:40:50*
G01*
G04 APERTURE LIST*
G04 APERTURE END LIST*
D75*
D76*
X0003072086Y0003607086D02*
X0002852086Y0003607086D01*
X0003072086Y0003407086D02*
X0002852086Y0003407086D01*
X0002792086Y0003587086D02*
X0003032086Y0003587086D01*
X0002792086Y0003427086D02*
X0003032086Y0003427086D01*
X0003072086Y0003567086D02*
X0002812086Y0003567086D01*
X0003072086Y0003447086D02*
X0002812086Y0003447086D01*
X0002792086Y0003467086D02*
X0003052086Y0003467086D01*
X0002792086Y0003547086D02*
X0003052086Y0003547086D01*
X0003072086Y0003527086D02*
X0002812086Y0003527086D01*
X0003072086Y0003487086D02*
X0002812086Y0003487086D01*
X0002792086Y0003507086D02*
X0003052086Y0003507086D01*
X0002812086Y0003637086D02*
X0002792086Y0003617086D01*
X0002792086Y0003617086D02*
X0002792086Y0003387086D01*
X0002792086Y0003387086D02*
X0002812086Y0003367086D01*
X0003072086Y0003627086D02*
X0003072086Y0003397086D01*
X0003072086Y0003397086D02*
X0003052086Y0003377086D01*
D77*
X0002957086Y0002457086D03*
X0002957086Y0002357086D03*
X0002957086Y0002557086D03*
X0003087086Y0002357086D03*
X0003087086Y0002457086D03*
X0003087086Y0002557086D03*
D78*
X0003107086Y0002707086D03*
D79*
X0003107086Y0002807086D03*
X0003107086Y0002907086D03*
X0003107086Y0003007086D03*
X0002807086Y0003007086D03*
X0002807086Y0002907086D03*
X0002807086Y0002807086D03*
X0002807086Y0002707086D03*
D80*
X0002457086Y0002357086D03*
D81*
X0002357086Y0002907086D03*
X0002557086Y0002907086D03*
D82*
X0002707086Y0002307086D03*
D77*
X0002557086Y0002157086D03*
X0002857086Y0002157086D03*
D83*
X0002807086Y0003377086D03*
X0003057086Y0003382086D03*
X0002807086Y0003627086D03*
X0003057086Y0003627086D03*
D79*
X0003107086Y0003157086D03*
X0003007086Y0003157086D03*
D84*
X0002657086Y0002057086D03*
X0002757086Y0002057086D03*
D85*
X0002807086Y0002707086D02*
X0002837086Y0002707086D01*
X0003147086Y0003157086D02*
X0003107086Y0003157086D01*
X0003152086Y0003162086D02*
X0003147086Y0003157086D01*
X0003152086Y0003132086D02*
X0003152086Y0003162086D01*
X0003157086Y0003127086D02*
X0003152086Y0003132086D01*
X0003157086Y0002797086D02*
X0003157086Y0003127086D01*
X0003157086Y0002507086D02*
X0003157086Y0002797086D01*
X0003032086Y0002507086D02*
X0003157086Y0002507086D01*
X0002842086Y0002507086D02*
X0003032086Y0002507086D01*
X0002842086Y0002702086D02*
X0002842086Y0002507086D01*
X0002837086Y0002707086D02*
X0002842086Y0002702086D01*
X0003057086Y0003382086D02*
X0003102086Y0003382086D01*
X0003007086Y0003337086D02*
X0003007086Y0003157086D01*
X0003102086Y0003337086D02*
X0003007086Y0003337086D01*
X0003107086Y0003332086D02*
X0003102086Y0003337086D01*
X0003107086Y0003382086D02*
X0003107086Y0003332086D01*
X0003102086Y0003382086D02*
X0003107086Y0003382086D01*
X0002807086Y0002907086D02*
X0002868503Y0002907086D01*
X0002448818Y0002397637D02*
X0002457086Y0002389370D01*
X0002448818Y0002523622D02*
X0002448818Y0002397637D01*
X0002720472Y0002523622D02*
X0002448818Y0002523622D01*
X0002720472Y0002751968D02*
X0002720472Y0002523622D01*
X0002716535Y0002755905D02*
X0002720472Y0002751968D01*
X0002862204Y0002755905D02*
X0002716535Y0002755905D01*
X0002866141Y0002751968D02*
X0002862204Y0002755905D01*
X0002866141Y0002904724D02*
X0002866141Y0002751968D01*
X0002868503Y0002907086D02*
X0002866141Y0002904724D01*
X0002457086Y0002389370D02*
X0002457086Y0002357086D01*
X0002457086Y0002357086D02*
X0002457086Y0002106692D01*
X0002657086Y0002094881D02*
X0002657086Y0002057086D01*
X0002649606Y0002102362D02*
X0002657086Y0002094881D01*
X0002461417Y0002102362D02*
X0002649606Y0002102362D01*
X0002457086Y0002106692D02*
X0002461417Y0002102362D01*
X0002807086Y0003377086D02*
X0002723543Y0003377086D01*
X0002720472Y0002807086D02*
X0002807086Y0002807086D01*
X0002720472Y0003374015D02*
X0002720472Y0002807086D01*
X0002723543Y0003377086D02*
X0002720472Y0003374015D01*
M02*