  0
SECTION
  2
HEADER
  9
$ACADVER
  1
AC1014
  9
$HANDSEED
  5
FFFF
  9
$MEASUREMENT
 70
     1
  0
ENDSEC
  0
SECTION
  2
TABLES
  0
TABLE
  2
VPORT
  5
8
330
0
100
AcDbSymbolTable
 70
     4
  0
VPORT
  5
2E
330
8
100
AcDbSymbolTableRecord
100
AcDbViewportTableRecord
  2
*ACTIVE
 70
     0
 10
0.0
 20
0.0
 11
1.0
 21
1.0
 12
210.0
 22
148.5
 13
0.0
 23
0.0
 14
10.0
 24
10.0
 15
10.0
 25
10.0
 16
0.0
 26
0.0
 36
1.0
 17
0.0
 27
0.0
 37
0.0
 40
341.0
 41
1.24
 42
50.0
 43
0.0
 44
0.0
 50
0.0
 51
0.0
 71
     0
 72
   100
 73
     1
 74
     3
 75
     0
 76
     0
 77
     0
 78
     0
  0
ENDTAB
  0
TABLE
  2
LTYPE
  5
5
330
0
100
AcDbSymbolTable
 70
     1
  0
LTYPE
  5
14
330
5
100
AcDbSymbolTableRecord
100
AcDbLinetypeTableRecord
  2
BYBLOCK
 70
     0
  3

 72
    65
 73
     0
 40
0.0
  0
LTYPE
  5
15
330
5
100
AcDbSymbolTableRecord
100
AcDbLinetypeTableRecord
  2
BYLAYER
 70
     0
  3

 72
    65
 73
     0
 40
0.0
  0
LTYPE
  5
16
330
5
100
AcDbSymbolTableRecord
100
AcDbLinetypeTableRecord
  2
CONTINUOUS
 70
     0
  3
Solid line
 72
    65
 73
     0
 40
0.0
  0
ENDTAB
  0
TABLE
  2
LAYER
  5
2
100
AcDbSymbolTable
 70
2
  0
LAYER
  5
50
100
AcDbSymbolTableRecord
100
AcDbLayerTableRecord
  2
0
 70
0
  6
CONTINUOUS
  0
LAYER
  5
51
100
AcDbSymbolTableRecord
100
AcDbLayerTableRecord
  2
Edge.Cuts
 70
0
  6
CONTINUOUS
  0
ENDTAB
  0
TABLE
  2
STYLE
  5
3
330
0
100
AcDbSymbolTable
 70
     1
  0
STYLE
  5
11
330
3
100
AcDbSymbolTableRecord
100
AcDbTextStyleTableRecord
  2
STANDARD
 70
     0
 40
0.0
 41
1.0
 50
0.0
 71
     0
 42
2.5
  3
txt
  4

  0
ENDTAB
  0
TABLE
  2
VIEW
  5
6
330
0
100
AcDbSymbolTable
 70
     0
  0
ENDTAB
  0
TABLE
  2
UCS
  5
7
330
0
100
AcDbSymbolTable
 70
     0
  0
ENDTAB
  0
TABLE
  2
APPID
  5
9
330
0
100
AcDbSymbolTable
 70
     2
  0
APPID
  5
12
330
9
100
AcDbSymbolTableRecord
100
AcDbRegAppTableRecord
  2
ACAD
 70
     0
  0
ENDTAB
  0
TABLE
  2
DIMSTYLE
  5
A
330
0
100
AcDbSymbolTable
 70
     1
  0
DIMSTYLE
105
27
330
A
100
AcDbSymbolTableRecord
100
AcDbDimStyleTableRecord
  2
ISO-25
 70
     0
  3

  4

  5

  6

  7

 40
1.0
 41
2.5
 42
0.625
 43
3.75
 44
1.25
 45
0.0
 46
0.0
 47
0.0
 48
0.0
140
2.5
141
2.5
142
0.0
143
0.03937007874016
144
1.0
145
0.0
146
1.0
147
0.625
 71
     0
 72
     0
 73
     0
 74
     0
 75
     0
 76
     0
 77
     1
 78
     8
170
     0
171
     3
172
     1
173
     0
174
     0
175
     0
176
     0
177
     0
178
     0
270
     2
271
     2
272
     2
273
     2
274
     3
340
11
275
     0
280
     0
281
     0
282
     0
283
     0
284
     8
285
     0
286
     0
287
     3
288
     0
  0
ENDTAB
  0
TABLE
  2
BLOCK_RECORD
  5
1
330
0
100
AcDbSymbolTable
 70
     1
  0
BLOCK_RECORD
  5
1F
330
1
100
AcDbSymbolTableRecord
100
AcDbBlockTableRecord
  2
*MODEL_SPACE
  0
BLOCK_RECORD
  5
1B
330
1
100
AcDbSymbolTableRecord
100
AcDbBlockTableRecord
  2
*PAPER_SPACE
  0
ENDTAB
  0
ENDSEC
  0
SECTION
  2
BLOCKS
  0
BLOCK
  5
20
330
1F
100
AcDbEntity
  8
0
100
AcDbBlockBegin
  2
*MODEL_SPACE
 70
     0
 10
0.0
 20
0.0
 30
0.0
  3
*MODEL_SPACE
  1

  0
ENDBLK
  5
21
330
1F
100
AcDbEntity
  8
0
100
AcDbBlockEnd
  0
BLOCK
  5
1C
330
1B
100
AcDbEntity
 67
     1
  8
0
100
AcDbBlockBegin
  2
*PAPER_SPACE
  1

  0
ENDBLK
  5
1D
330
1B
100
AcDbEntity
 67
     1
  8
0
100
AcDbBlockEnd
  0
ENDSEC
  0
SECTION
  2
ENTITIES
  0
SPLINE
  5
100
100
AcDbEntity
  8
Edge.Cuts
 62
2
100
AcDbSpline
 70
8
 71
3
 72
8
 73
4
 74
0
 40
0
 40
0
 40
0
 40
0
 40
1
 40
1
 40
1
 40
1
 10
62.597325
 20
266.729136
 30
0.0
 10
63.247989
 20
266.729136
 30
0.0
 10
63.778621
 20
266.221171
 30
0.0
 10
63.815151
 20
265.579742
 30
0.0
  0
LINE
  5
101
100
AcDbEntity
  8
Edge.Cuts
 62
2
100
AcDbLine
 10
63.815151
 20
265.579742
 30
0.0
 11
63.815151
 21
261.839110
 31
0.0
  0
SPLINE
  5
102
100
AcDbEntity
  8
Edge.Cuts
 62
2
100
AcDbSpline
 70
8
 71
3
 72
8
 73
4
 74
0
 40
0
 40
0
 40
0
 40
0
 40
1
 40
1
 40
1
 40
1
 10
63.815151
 20
261.839110
 30
0.0
 10
63.770050
 20
261.743539
 30
0.0
 10
63.721797
 20
261.655439
 30
0.0
 10
63.658225
 20
261.588701
 30
0.0
  0
SPLINE
  5
103
100
AcDbEntity
  8
Edge.Cuts
 62
2
100
AcDbSpline
 70
8
 71
3
 72
8
 73
4
 74
0
 40
0
 40
0
 40
0
 40
0
 40
1
 40
1
 40
1
 40
1
 10
63.658225
 20
261.588701
 30
0.0
 10
63.592482
 20
261.519683
 30
0.0
 10
63.511945
 20
261.471575
 30
0.0
 10
63.391991
 20
261.455485
 30
0.0
  0
SPLINE
  5
104
100
AcDbEntity
  8
Edge.Cuts
 62
2
100
AcDbSpline
 70
8
 71
3
 72
8
 73
4
 74
0
 40
0
 40
0
 40
0
 40
0
 40
1
 40
1
 40
1
 40
1
 10
63.391991
 20
261.455485
 30
0.0
 10
63.389886
 20
261.455202
 30
0.0
 10
63.387802
 20
261.454786
 30
0.0
 10
63.385750
 20
261.454239
 30
0.0
  0
LINE
  5
105
100
AcDbEntity
  8
Edge.Cuts
 62
2
100
AcDbLine
 10
63.385750
 20
261.454239
 30
0.0
 11
62.338417
 21
261.174838
 31
0.0
  0
SPLINE
  5
106
100
AcDbEntity
  8
Edge.Cuts
 62
2
100
AcDbSpline
 70
8
 71
3
 72
8
 73
4
 74
0
 40
0
 40
0
 40
0
 40
0
 40
1
 40
1
 40
1
 40
1
 10
62.338417
 20
261.174838
 30
0.0
 10
62.337591
 20
261.174617
 30
0.0
 10
62.336771
 20
261.174376
 30
0.0
 10
62.335957
 20
261.174114
 30
0.0
  0
LINE
  5
107
100
AcDbEntity
  8
Edge.Cuts
 62
2
100
AcDbLine
 10
62.335957
 20
261.174114
 30
0.0
 11
60.997371
 21
260.742312
 31
0.0
  0
SPLINE
  5
108
100
AcDbEntity
  8
Edge.Cuts
 62
2
100
AcDbSpline
 70
8
 71
3
 72
8
 73
4
 74
0
 40
0
 40
0
 40
0
 40
0
 40
1
 40
1
 40
1
 40
1
 10
60.997371
 20
260.742312
 30
0.0
 10
60.996209
 20
260.741938
 30
0.0
 10
60.995061
 20
260.741521
 30
0.0
 10
60.993929
 20
260.741062
 30
0.0
  0
LINE
  5
109
100
AcDbEntity
  8
Edge.Cuts
 62
2
100
AcDbLine
 10
60.993929
 20
260.741062
 30
0.0
 11
59.729004
 21
260.227980
 31
0.0
  0
SPLINE
  5
10a
100
AcDbEntity
  8
Edge.Cuts
 62
2
100
AcDbSpline
 70
8
 71
3
 72
8
 73
4
 74
0
 40
0
 40
0
 40
0
 40
0
 40
1
 40
1
 40
1
 40
1
 10
59.729004
 20
260.227980
 30
0.0
 10
59.726867
 20
260.227112
 30
0.0
 10
59.724794
 20
260.226098
 30
0.0
 10
59.722797
 20
260.224944
 30
0.0
  0
SPLINE
  5
10b
100
AcDbEntity
  8
Edge.Cuts
 62
2
100
AcDbSpline
 70
8
 71
3
 72
8
 73
4
 74
0
 40
0
 40
0
 40
0
 40
0
 40
1
 40
1
 40
1
 40
1
 10
59.722797
 20
260.224944
 30
0.0
 10
59.442567
 20
260.063153
 30
0.0
 10
59.109596
 20
260.019320
 30
0.0
 10
58.797038
 20
260.103068
 30
0.0
  0
SPLINE
  5
10c
100
AcDbEntity
  8
Edge.Cuts
 62
2
100
AcDbSpline
 70
8
 71
3
 72
8
 73
4
 74
0
 40
0
 40
0
 40
0
 40
0
 40
1
 40
1
 40
1
 40
1
 10
58.797038
 20
260.103068
 30
0.0
 10
58.484481
 20
260.186817
 30
0.0
 10
58.218039
 20
260.391264
 30
0.0
 10
58.056233
 20
260.671510
 30
0.0
  0
SPLINE
  5
10d
100
AcDbEntity
  8
Edge.Cuts
 62
2
100
AcDbSpline
 70
8
 71
3
 72
8
 73
4
 74
0
 40
0
 40
0
 40
0
 40
0
 40
1
 40
1
 40
1
 40
1
 10
58.056233
 20
260.671510
 30
0.0
 10
57.894429
 20
260.951756
 30
0.0
 10
57.850590
 20
261.284722
 30
0.0
 10
57.934343
 20
261.597279
 30
0.0
  0
SPLINE
  5
10e
100
AcDbEntity
  8
Edge.Cuts
 62
2
100
AcDbSpline
 70
8
 71
3
 72
8
 73
4
 74
0
 40
0
 40
0
 40
0
 40
0
 40
1
 40
1
 40
1
 40
1
 10
57.934343
 20
261.597279
 30
0.0
 10
58.018091
 20
261.909835
 30
0.0
 10
58.221626
 20
262.176787
 30
0.0
 10
58.555445
 20
262.409253
 30
0.0
  0
SPLINE
  5
10f
100
AcDbEntity
  8
Edge.Cuts
 62
2
100
AcDbSpline
 70
8
 71
3
 72
8
 73
4
 74
0
 40
0
 40
0
 40
0
 40
0
 40
1
 40
1
 40
1
 40
1
 10
58.555445
 20
262.409253
 30
0.0
 10
58.557054
 20
262.410374
 30
0.0
 10
58.558596
 20
262.411588
 30
0.0
 10
58.560063
 20
262.412890
 30
0.0
  0
SPLINE
  5
110
100
AcDbEntity
  8
Edge.Cuts
 62
2
100
AcDbSpline
 70
8
 71
3
 72
8
 73
4
 74
0
 40
0
 40
0
 40
0
 40
0
 40
1
 40
1
 40
1
 40
1
 10
58.560063
 20
262.412890
 30
0.0
 10
59.553170
 20
263.294395
 30
0.0
 10
60.312268
 20
264.237292
 30
0.0
 10
60.801796
 20
265.226784
 30
0.0
  0
SPLINE
  5
111
100
AcDbEntity
  8
Edge.Cuts
 62
2
100
AcDbSpline
 70
8
 71
3
 72
8
 73
4
 74
0
 40
0
 40
0
 40
0
 40
0
 40
1
 40
1
 40
1
 40
1
 10
60.801796
 20
265.226784
 30
0.0
 10
60.964252
 20
265.524749
 30
0.0
 10
61.500173
 20
266.137331
 30
0.0
 10
61.734649
 20
266.371808
 30
0.0
  0
SPLINE
  5
112
100
AcDbEntity
  8
Edge.Cuts
 62
2
100
AcDbSpline
 70
8
 71
3
 72
8
 73
4
 74
0
 40
0
 40
0
 40
0
 40
0
 40
1
 40
1
 40
1
 40
1
 10
61.734649
 20
266.371808
 30
0.0
 10
61.963458
 20
266.600616
 30
0.0
 10
62.273741
 20
266.729136
 30
0.0
 10
62.597325
 20
266.729136
 30
0.0
  0
LINE
  5
113
100
AcDbEntity
  8
Edge.Cuts
 62
2
100
AcDbLine
 10
62.597325
 20
266.729136
 30
0.0
 11
62.597325
 21
266.729136
 31
0.0
  0
SPLINE
  5
114
100
AcDbEntity
  8
Edge.Cuts
 62
2
100
AcDbSpline
 70
8
 71
3
 72
8
 73
4
 74
0
 40
0
 40
0
 40
0
 40
0
 40
1
 40
1
 40
1
 40
1
 10
74.027435
 20
266.729136
 30
0.0
 10
74.343590
 20
266.729136
 30
0.0
 10
74.601871
 20
266.529040
 30
0.0
 10
74.901257
 20
266.363409
 30
0.0
  0
SPLINE
  5
115
100
AcDbEntity
  8
Edge.Cuts
 62
2
100
AcDbSpline
 70
8
 71
3
 72
8
 73
4
 74
0
 40
0
 40
0
 40
0
 40
0
 40
1
 40
1
 40
1
 40
1
 10
74.901257
 20
266.363409
 30
0.0
 10
75.125788
 20
266.239191
 30
0.0
 10
75.531375
 20
265.914505
 30
0.0
 10
75.693219
 20
265.608212
 30
0.0
  0
LINE
  5
116
100
AcDbEntity
  8
Edge.Cuts
 62
2
100
AcDbLine
 10
75.693219
 20
265.608212
 30
0.0
 11
75.950723
 21
265.074741
 31
0.0
  0
SPLINE
  5
117
100
AcDbEntity
  8
Edge.Cuts
 62
2
100
AcDbSpline
 70
8
 71
3
 72
8
 73
4
 74
0
 40
0
 40
0
 40
0
 40
0
 40
1
 40
1
 40
1
 40
1
 10
75.950723
 20
265.074741
 30
0.0
 10
75.950799
 20
265.074599
 30
0.0
 10
75.950850
 20
265.074456
 30
0.0
 10
75.950926
 20
265.074314
 30
0.0
  0
SPLINE
  5
118
100
AcDbEntity
  8
Edge.Cuts
 62
2
100
AcDbSpline
 70
8
 71
3
 72
8
 73
4
 74
0
 40
0
 40
0
 40
0
 40
0
 40
1
 40
1
 40
1
 40
1
 10
75.950926
 20
265.074314
 30
0.0
 10
76.426533
 20
264.112415
 30
0.0
 10
77.156806
 20
263.194523
 30
0.0
 10
78.064791
 20
262.397025
 30
0.0
  0
SPLINE
  5
119
100
AcDbEntity
  8
Edge.Cuts
 62
2
100
AcDbSpline
 70
8
 71
3
 72
8
 73
4
 74
0
 40
0
 40
0
 40
0
 40
0
 40
1
 40
1
 40
1
 40
1
 10
78.064791
 20
262.397025
 30
0.0
 10
78.067262
 20
262.394853
 30
0.0
 10
78.069942
 20
262.392930
 30
0.0
 10
78.072792
 20
262.391285
 30
0.0
  0
SPLINE
  5
11a
100
AcDbEntity
  8
Edge.Cuts
 62
2
100
AcDbSpline
 70
8
 71
3
 72
8
 73
4
 74
0
 40
0
 40
0
 40
0
 40
0
 40
1
 40
1
 40
1
 40
1
 10
78.072792
 20
262.391285
 30
0.0
 10
78.342899
 20
262.235392
 30
0.0
 10
78.568574
 20
261.821960
 30
0.0
 10
78.653032
 20
261.506925
 30
0.0
  0
SPLINE
  5
11b
100
AcDbEntity
  8
Edge.Cuts
 62
2
100
AcDbSpline
 70
8
 71
3
 72
8
 73
4
 74
0
 40
0
 40
0
 40
0
 40
0
 40
1
 40
1
 40
1
 40
1
 10
78.653032
 20
261.506925
 30
0.0
 10
78.736819
 20
261.194365
 30
0.0
 10
78.693017
 20
260.861378
 30
0.0
 10
78.531243
 20
260.581121
 30
0.0
  0
SPLINE
  5
11c
100
AcDbEntity
  8
Edge.Cuts
 62
2
100
AcDbSpline
 70
8
 71
3
 72
8
 73
4
 74
0
 40
0
 40
0
 40
0
 40
0
 40
1
 40
1
 40
1
 40
1
 10
78.531243
 20
260.581121
 30
0.0
 10
78.531116
 20
260.580892
 30
0.0
 10
78.531015
 20
260.580665
 30
0.0
 10
78.530893
 20
260.580436
 30
0.0
  0
SPLINE
  5
11d
100
AcDbEntity
  8
Edge.Cuts
 62
2
100
AcDbSpline
 70
8
 71
3
 72
8
 73
4
 74
0
 40
0
 40
0
 40
0
 40
0
 40
1
 40
1
 40
1
 40
1
 10
78.530893
 20
260.580436
 30
0.0
 10
78.369059
 20
260.300490
 30
0.0
 10
78.102772
 20
260.096246
 30
0.0
 10
77.790409
 20
260.012560
 30
0.0
  0
SPLINE
  5
11e
100
AcDbEntity
  8
Edge.Cuts
 62
2
100
AcDbSpline
 70
8
 71
3
 72
8
 73
4
 74
0
 40
0
 40
0
 40
0
 40
0
 40
1
 40
1
 40
1
 40
1
 10
77.790409
 20
260.012560
 30
0.0
 10
77.485328
 20
259.930826
 30
0.0
 10
77.185919
 20
260.058392
 30
0.0
 10
76.897547
 20
260.224944
 30
0.0
  0
SPLINE
  5
11f
100
AcDbEntity
  8
Edge.Cuts
 62
2
100
AcDbSpline
 70
8
 71
3
 72
8
 73
4
 74
0
 40
0
 40
0
 40
0
 40
0
 40
1
 40
1
 40
1
 40
1
 10
76.897547
 20
260.224944
 30
0.0
 10
76.895558
 20
260.226092
 30
0.0
 10
76.893493
 20
260.227101
 30
0.0
 10
76.891365
 20
260.227965
 30
0.0
  0
LINE
  5
120
100
AcDbEntity
  8
Edge.Cuts
 62
2
100
AcDbLine
 10
76.891365
 20
260.227965
 30
0.0
 11
75.628980
 21
260.741047
 31
0.0
  0
SPLINE
  5
121
100
AcDbEntity
  8
Edge.Cuts
 62
2
100
AcDbSpline
 70
8
 71
3
 72
8
 73
4
 74
0
 40
0
 40
0
 40
0
 40
0
 40
1
 40
1
 40
1
 40
1
 10
75.628980
 20
260.741047
 30
0.0
 10
75.627837
 20
260.741512
 30
0.0
 10
75.626676
 20
260.741934
 30
0.0
 10
75.625502
 20
260.742312
 30
0.0
  0
LINE
  5
122
100
AcDbEntity
  8
Edge.Cuts
 62
2
100
AcDbLine
 10
75.625502
 20
260.742312
 30
0.0
 11
74.286917
 21
261.174114
 31
0.0
  0
SPLINE
  5
123
100
AcDbEntity
  8
Edge.Cuts
 62
2
100
AcDbSpline
 70
8
 71
3
 72
8
 73
4
 74
0
 40
0
 40
0
 40
0
 40
0
 40
1
 40
1
 40
1
 40
1
 10
74.286917
 20
261.174114
 30
0.0
 10
74.285548
 20
261.174555
 30
0.0
 10
74.284161
 20
261.174938
 30
0.0
 10
74.282759
 20
261.175260
 30
0.0
  0
LINE
  5
124
100
AcDbEntity
  8
Edge.Cuts
 62
2
100
AcDbLine
 10
74.282759
 20
261.175260
 30
0.0
 11
73.071870
 21
261.453337
 31
0.0
  0
SPLINE
  5
125
100
AcDbEntity
  8
Edge.Cuts
 62
2
100
AcDbSpline
 70
8
 71
3
 72
8
 73
4
 74
0
 40
0
 40
0
 40
0
 40
0
 40
1
 40
1
 40
1
 40
1
 10
73.071870
 20
261.453337
 30
0.0
 10
73.005617
 20
261.485520
 30
0.0
 10
72.946643
 20
261.516002
 30
0.0
 10
72.901050
 20
261.567270
 30
0.0
  0
SPLINE
  5
126
100
AcDbEntity
  8
Edge.Cuts
 62
2
100
AcDbSpline
 70
8
 71
3
 72
8
 73
4
 74
0
 40
0
 40
0
 40
0
 40
0
 40
1
 40
1
 40
1
 40
1
 10
72.901050
 20
261.567270
 30
0.0
 10
72.854534
 20
261.619572
 30
0.0
 10
72.818012
 20
261.695555
 30
0.0
 10
72.805185
 20
261.830404
 30
0.0
  0
LINE
  5
127
100
AcDbEntity
  8
Edge.Cuts
 62
2
100
AcDbLine
 10
72.805185
 20
261.830404
 30
0.0
 11
72.805185
 21
265.493842
 31
0.0
  0
SPLINE
  5
128
100
AcDbEntity
  8
Edge.Cuts
 62
2
100
AcDbSpline
 70
8
 71
3
 72
8
 73
4
 74
0
 40
0
 40
0
 40
0
 40
0
 40
1
 40
1
 40
1
 40
1
 10
72.805185
 20
265.493842
 30
0.0
 10
72.806716
 20
265.498793
 30
0.0
 10
72.807468
 20
265.503951
 30
0.0
 10
72.807415
 20
265.509132
 30
0.0
  0
SPLINE
  5
129
100
AcDbEntity
  8
Edge.Cuts
 62
2
100
AcDbSpline
 70
8
 71
3
 72
8
 73
4
 74
0
 40
0
 40
0
 40
0
 40
0
 40
1
 40
1
 40
1
 40
1
 10
72.807415
 20
265.509132
 30
0.0
 10
72.807415
 20
266.183514
 30
0.0
 10
73.353039
 20
266.729136
 30
0.0
 10
74.027430
 20
266.729136
 30
0.0
  0
LINE
  5
12a
100
AcDbEntity
  8
Edge.Cuts
 62
2
100
AcDbLine
 10
74.027430
 20
266.729136
 30
0.0
 11
74.027435
 21
266.729136
 31
0.0
  0
SPLINE
  5
12b
100
AcDbEntity
  8
Edge.Cuts
 62
2
100
AcDbSpline
 70
8
 71
3
 72
8
 73
4
 74
0
 40
0
 40
0
 40
0
 40
0
 40
1
 40
1
 40
1
 40
1
 10
72.757421
 20
269.573141
 30
0.0
 10
72.757421
 20
268.871738
 30
0.0
 10
73.326022
 20
268.303138
 30
0.0
 10
74.027425
 20
268.303139
 30
0.0
  0
SPLINE
  5
12c
100
AcDbEntity
  8
Edge.Cuts
 62
2
100
AcDbSpline
 70
8
 71
3
 72
8
 73
4
 74
0
 40
0
 40
0
 40
0
 40
0
 40
1
 40
1
 40
1
 40
1
 10
74.027425
 20
268.303139
 30
0.0
 10
74.364250
 20
268.303139
 30
0.0
 10
74.857508
 20
268.315349
 30
0.0
 10
75.095680
 20
268.553522
 30
0.0
  0
SPLINE
  5
12d
100
AcDbEntity
  8
Edge.Cuts
 62
2
100
AcDbSpline
 70
8
 71
3
 72
8
 73
4
 74
0
 40
0
 40
0
 40
0
 40
0
 40
1
 40
1
 40
1
 40
1
 10
75.095680
 20
268.553522
 30
0.0
 10
75.468851
 20
268.787909
 30
0.0
 10
75.680327
 20
269.022297
 30
0.0
 10
75.861107
 20
269.256684
 30
0.0
  0
SPLINE
  5
12e
100
AcDbEntity
  8
Edge.Cuts
 62
2
100
AcDbSpline
 70
8
 71
3
 72
8
 73
4
 74
0
 40
0
 40
0
 40
0
 40
0
 40
1
 40
1
 40
1
 40
1
 10
75.861107
 20
269.256684
 30
0.0
 10
75.941917
 20
269.396648
 30
0.0
 10
76.032485
 20
269.530044
 30
0.0
 10
76.132291
 20
269.656593
 30
0.0
  0
SPLINE
  5
12f
100
AcDbEntity
  8
Edge.Cuts
 62
2
100
AcDbSpline
 70
8
 71
3
 72
8
 73
4
 74
0
 40
0
 40
0
 40
0
 40
0
 40
1
 40
1
 40
1
 40
1
 10
76.132291
 20
269.656593
 30
0.0
 10
76.441941
 20
270.049217
 30
0.0
 10
76.840488
 20
270.375919
 30
0.0
 10
77.312232
 20
270.628300
 30
0.0
  0
SPLINE
  5
130
100
AcDbEntity
  8
Edge.Cuts
 62
2
100
AcDbSpline
 70
8
 71
3
 72
8
 73
4
 74
0
 40
0
 40
0
 40
0
 40
0
 40
1
 40
1
 40
1
 40
1
 10
77.312232
 20
270.628300
 30
0.0
 10
77.936030
 20
270.962026
 30
0.0
 10
78.687809
 20
271.165799
 30
0.0
 10
79.531272
 20
271.220196
 30
0.0
  0
SPLINE
  5
131
100
AcDbEntity
  8
Edge.Cuts
 62
2
100
AcDbSpline
 70
8
 71
3
 72
8
 73
4
 74
0
 40
0
 40
0
 40
0
 40
0
 40
1
 40
1
 40
1
 40
1
 10
79.531272
 20
271.220196
 30
0.0
 10
81.218197
 20
271.328991
 30
0.0
 10
83.133666
 20
270.831373
 30
0.0
 10
84.856297
 20
269.836811
 30
0.0
  0
SPLINE
  5
132
100
AcDbEntity
  8
Edge.Cuts
 62
2
100
AcDbSpline
 70
8
 71
3
 72
8
 73
4
 74
0
 40
0
 40
0
 40
0
 40
0
 40
1
 40
1
 40
1
 40
1
 10
84.856297
 20
269.836811
 30
0.0
 10
86.578928
 20
268.842249
 30
0.0
 10
87.967614
 20
267.432214
 30
0.0
 10
88.716856
 20
265.916896
 30
0.0
  0
SPLINE
  5
133
100
AcDbEntity
  8
Edge.Cuts
 62
2
100
AcDbSpline
 70
8
 71
3
 72
8
 73
4
 74
0
 40
0
 40
0
 40
0
 40
0
 40
1
 40
1
 40
1
 40
1
 10
88.716856
 20
265.916896
 30
0.0
 10
89.466101
 20
264.401579
 30
0.0
 10
89.514527
 20
262.905106
 30
0.0
 10
88.851487
 20
261.756686
 30
0.0
  0
SPLINE
  5
134
100
AcDbEntity
  8
Edge.Cuts
 62
2
100
AcDbSpline
 70
8
 71
3
 72
8
 73
4
 74
0
 40
0
 40
0
 40
0
 40
0
 40
1
 40
1
 40
1
 40
1
 10
88.851487
 20
261.756686
 30
0.0
 10
88.188446
 20
260.608265
 30
0.0
 10
86.868247
 20
259.901968
 30
0.0
 10
85.181324
 20
259.793173
 30
0.0
  0
SPLINE
  5
135
100
AcDbEntity
  8
Edge.Cuts
 62
2
100
AcDbSpline
 70
8
 71
3
 72
8
 73
4
 74
0
 40
0
 40
0
 40
0
 40
0
 40
1
 40
1
 40
1
 40
1
 10
85.181324
 20
259.793173
 30
0.0
 10
84.111111
 20
259.724153
 30
0.0
 10
82.948913
 20
259.899203
 30
0.0
 10
81.802328
 20
260.290372
 30
0.0
  0
SPLINE
  5
136
100
AcDbEntity
  8
Edge.Cuts
 62
2
100
AcDbSpline
 70
8
 71
3
 72
8
 73
4
 74
0
 40
0
 40
0
 40
0
 40
0
 40
1
 40
1
 40
1
 40
1
 10
81.802328
 20
260.290372
 30
0.0
 10
81.510633
 20
260.458775
 30
0.0
 10
80.990811
 20
260.473004
 30
0.0
 10
80.665469
 20
260.385832
 30
0.0
  0
SPLINE
  5
137
100
AcDbEntity
  8
Edge.Cuts
 62
2
100
AcDbSpline
 70
8
 71
3
 72
8
 73
4
 74
0
 40
0
 40
0
 40
0
 40
0
 40
1
 40
1
 40
1
 40
1
 10
80.665469
 20
260.385832
 30
0.0
 10
80.340129
 20
260.298652
 30
0.0
 10
80.062743
 20
260.085814
 30
0.0
 10
79.894328
 20
259.794122
 30
0.0
  0
SPLINE
  5
138
100
AcDbEntity
  8
Edge.Cuts
 62
2
100
AcDbSpline
 70
8
 71
3
 72
8
 73
4
 74
0
 40
0
 40
0
 40
0
 40
0
 40
1
 40
1
 40
1
 40
1
 10
79.894328
 20
259.794122
 30
0.0
 10
79.725915
 20
259.502426
 30
0.0
 10
79.680274
 20
259.155777
 30
0.0
 10
79.767444
 20
258.830431
 30
0.0
  0
SPLINE
  5
139
100
AcDbEntity
  8
Edge.Cuts
 62
2
100
AcDbSpline
 70
8
 71
3
 72
8
 73
4
 74
0
 40
0
 40
0
 40
0
 40
0
 40
1
 40
1
 40
1
 40
1
 10
79.767444
 20
258.830431
 30
0.0
 10
79.854614
 20
258.505084
 30
0.0
 10
80.149500
 20
258.117429
 30
0.0
 10
80.441192
 20
257.949011
 30
0.0
  0
LINE
  5
13a
100
AcDbEntity
  8
Edge.Cuts
 62
2
100
AcDbLine
 10
80.441192
 20
257.949011
 30
0.0
 11
81.546095
 21
256.859349
 31
0.0
  0
LINE
  5
13b
100
AcDbEntity
  8
Edge.Cuts
 62
2
100
AcDbLine
 10
81.546095
 20
256.859349
 30
0.0
 11
82.437635
 21
255.673166
 31
0.0
  0
LINE
  5
13c
100
AcDbEntity
  8
Edge.Cuts
 62
2
100
AcDbLine
 10
82.437635
 20
255.673166
 30
0.0
 11
83.100578
 21
254.405703
 31
0.0
  0
LINE
  5
13d
100
AcDbEntity
  8
Edge.Cuts
 62
2
100
AcDbLine
 10
83.100578
 20
254.405703
 30
0.0
 11
83.509518
 21
253.064581
 31
0.0
  0
LINE
  5
13e
100
AcDbEntity
  8
Edge.Cuts
 62
2
100
AcDbLine
 10
83.509518
 20
253.064581
 30
0.0
 11
83.651758
 21
251.667578
 31
0.0
  0
LINE
  5
13f
100
AcDbEntity
  8
Edge.Cuts
 62
2
100
AcDbLine
 10
83.651758
 20
251.667578
 30
0.0
 11
83.509518
 21
250.270575
 31
0.0
  0
LINE
  5
140
100
AcDbEntity
  8
Edge.Cuts
 62
2
100
AcDbLine
 10
83.509518
 20
250.270575
 30
0.0
 11
83.100578
 21
248.929452
 31
0.0
  0
LINE
  5
141
100
AcDbEntity
  8
Edge.Cuts
 62
2
100
AcDbLine
 10
83.100578
 20
248.929452
 30
0.0
 11
82.437635
 21
247.661989
 31
0.0
  0
LINE
  5
142
100
AcDbEntity
  8
Edge.Cuts
 62
2
100
AcDbLine
 10
82.437635
 20
247.661989
 30
0.0
 11
81.546095
 21
246.475807
 31
0.0
  0
LINE
  5
143
100
AcDbEntity
  8
Edge.Cuts
 62
2
100
AcDbLine
 10
81.546095
 20
246.475807
 30
0.0
 11
80.441192
 21
245.386145
 31
0.0
  0
LINE
  5
144
100
AcDbEntity
  8
Edge.Cuts
 62
2
100
AcDbLine
 10
80.441192
 20
245.386145
 30
0.0
 11
79.143250
 21
244.400622
 31
0.0
  0
LINE
  5
145
100
AcDbEntity
  8
Edge.Cuts
 62
2
100
AcDbLine
 10
79.143250
 20
244.400622
 30
0.0
 11
78.053587
 21
243.740222
 31
0.0
  0
LINE
  5
146
100
AcDbEntity
  8
Edge.Cuts
 62
2
100
AcDbLine
 10
78.053587
 20
243.740222
 30
0.0
 11
76.872484
 21
243.153479
 31
0.0
  0
LINE
  5
147
100
AcDbEntity
  8
Edge.Cuts
 62
2
100
AcDbLine
 10
76.872484
 20
243.153479
 30
0.0
 11
75.610102
 21
242.640399
 31
0.0
  0
LINE
  5
148
100
AcDbEntity
  8
Edge.Cuts
 62
2
100
AcDbLine
 10
75.610102
 20
242.640399
 30
0.0
 11
74.271519
 21
242.208597
 31
0.0
  0
LINE
  5
149
100
AcDbEntity
  8
Edge.Cuts
 62
2
100
AcDbLine
 10
74.271519
 20
242.208597
 30
0.0
 11
72.864356
 21
241.865697
 31
0.0
  0
LINE
  5
14a
100
AcDbEntity
  8
Edge.Cuts
 62
2
100
AcDbLine
 10
72.864356
 20
241.865697
 30
0.0
 11
71.396232
 21
241.614237
 31
0.0
  0
LINE
  5
14b
100
AcDbEntity
  8
Edge.Cuts
 62
2
100
AcDbLine
 10
71.396232
 20
241.614237
 30
0.0
 11
69.877309
 21
241.459297
 31
0.0
  0
LINE
  5
14c
100
AcDbEntity
  8
Edge.Cuts
 62
2
100
AcDbLine
 10
69.877309
 20
241.459297
 30
0.0
 11
68.310126
 21
241.405957
 31
0.0
  0
LINE
  5
14d
100
AcDbEntity
  8
Edge.Cuts
 62
2
100
AcDbLine
 10
68.310126
 20
241.405957
 30
0.0
 11
66.745483
 21
241.459297
 31
0.0
  0
LINE
  5
14e
100
AcDbEntity
  8
Edge.Cuts
 62
2
100
AcDbLine
 10
66.745483
 20
241.459297
 30
0.0
 11
65.226560
 21
241.614237
 31
0.0
  0
LINE
  5
14f
100
AcDbEntity
  8
Edge.Cuts
 62
2
100
AcDbLine
 10
65.226560
 20
241.614237
 30
0.0
 11
63.758437
 21
241.865697
 31
0.0
  0
LINE
  5
150
100
AcDbEntity
  8
Edge.Cuts
 62
2
100
AcDbLine
 10
63.758437
 20
241.865697
 30
0.0
 11
62.351274
 21
242.208597
 31
0.0
  0
LINE
  5
151
100
AcDbEntity
  8
Edge.Cuts
 62
2
100
AcDbLine
 10
62.351274
 20
242.208597
 30
0.0
 11
61.012691
 21
242.640399
 31
0.0
  0
LINE
  5
152
100
AcDbEntity
  8
Edge.Cuts
 62
2
100
AcDbLine
 10
61.012691
 20
242.640399
 30
0.0
 11
59.747768
 21
243.153479
 31
0.0
  0
LINE
  5
153
100
AcDbEntity
  8
Edge.Cuts
 62
2
100
AcDbLine
 10
59.747768
 20
243.153479
 30
0.0
 11
58.569206
 21
243.740222
 31
0.0
  0
LINE
  5
154
100
AcDbEntity
  8
Edge.Cuts
 62
2
100
AcDbLine
 10
58.569206
 20
243.740222
 30
0.0
 11
57.479544
 21
244.400622
 31
0.0
  0
LINE
  5
155
100
AcDbEntity
  8
Edge.Cuts
 62
2
100
AcDbLine
 10
57.479544
 20
244.400622
 30
0.0
 11
56.181601
 21
245.386145
 31
0.0
  0
LINE
  5
156
100
AcDbEntity
  8
Edge.Cuts
 62
2
100
AcDbLine
 10
56.181601
 20
245.386145
 30
0.0
 11
55.076699
 21
246.475807
 31
0.0
  0
LINE
  5
157
100
AcDbEntity
  8
Edge.Cuts
 62
2
100
AcDbLine
 10
55.076699
 20
246.475807
 30
0.0
 11
54.182617
 21
247.661989
 31
0.0
  0
LINE
  5
158
100
AcDbEntity
  8
Edge.Cuts
 62
2
100
AcDbLine
 10
54.182617
 20
247.661989
 30
0.0
 11
53.522216
 21
248.929452
 31
0.0
  0
LINE
  5
159
100
AcDbEntity
  8
Edge.Cuts
 62
2
100
AcDbLine
 10
53.522216
 20
248.929452
 30
0.0
 11
53.113275
 21
250.270575
 31
0.0
  0
LINE
  5
15a
100
AcDbEntity
  8
Edge.Cuts
 62
2
100
AcDbLine
 10
53.113275
 20
250.270575
 30
0.0
 11
52.971034
 21
251.667578
 31
0.0
  0
LINE
  5
15b
100
AcDbEntity
  8
Edge.Cuts
 62
2
100
AcDbLine
 10
52.971034
 20
251.667578
 30
0.0
 11
53.113275
 21
253.064581
 31
0.0
  0
LINE
  5
15c
100
AcDbEntity
  8
Edge.Cuts
 62
2
100
AcDbLine
 10
53.113275
 20
253.064581
 30
0.0
 11
53.522216
 21
254.405703
 31
0.0
  0
LINE
  5
15d
100
AcDbEntity
  8
Edge.Cuts
 62
2
100
AcDbLine
 10
53.522216
 20
254.405703
 30
0.0
 11
54.182617
 21
255.673166
 31
0.0
  0
LINE
  5
15e
100
AcDbEntity
  8
Edge.Cuts
 62
2
100
AcDbLine
 10
54.182617
 20
255.673166
 30
0.0
 11
55.076699
 21
256.859349
 31
0.0
  0
LINE
  5
15f
100
AcDbEntity
  8
Edge.Cuts
 62
2
100
AcDbLine
 10
55.076699
 20
256.859349
 30
0.0
 11
56.253776
 21
258.070784
 31
0.0
  0
SPLINE
  5
160
100
AcDbEntity
  8
Edge.Cuts
 62
2
100
AcDbSpline
 70
8
 71
3
 72
8
 73
4
 74
0
 40
0
 40
0
 40
0
 40
0
 40
1
 40
1
 40
1
 40
1
 10
56.253776
 20
258.070784
 30
0.0
 10
56.617647
 20
258.360972
 30
0.0
 10
56.770093
 20
258.608162
 30
0.0
 10
56.857268
 20
258.933509
 30
0.0
  0
SPLINE
  5
161
100
AcDbEntity
  8
Edge.Cuts
 62
2
100
AcDbSpline
 70
8
 71
3
 72
8
 73
4
 74
0
 40
0
 40
0
 40
0
 40
0
 40
1
 40
1
 40
1
 40
1
 10
56.857268
 20
258.933509
 30
0.0
 10
56.944448
 20
259.258856
 30
0.0
 10
56.898808
 20
259.605508
 30
0.0
 10
56.730395
 20
259.897206
 30
0.0
  0
SPLINE
  5
162
100
AcDbEntity
  8
Edge.Cuts
 62
2
100
AcDbSpline
 70
8
 71
3
 72
8
 73
4
 74
0
 40
0
 40
0
 40
0
 40
0
 40
1
 40
1
 40
1
 40
1
 10
56.730395
 20
259.897206
 30
0.0
 10
56.561980
 20
260.188902
 30
0.0
 10
56.284589
 20
260.401750
 30
0.0
 10
55.959242
 20
260.488926
 30
0.0
  0
SPLINE
  5
163
100
AcDbEntity
  8
Edge.Cuts
 62
2
100
AcDbSpline
 70
8
 71
3
 72
8
 73
4
 74
0
 40
0
 40
0
 40
0
 40
0
 40
1
 40
1
 40
1
 40
1
 10
55.959242
 20
260.488926
 30
0.0
 10
55.633895
 20
260.576096
 30
0.0
 10
55.224089
 20
260.606300
 30
0.0
 10
54.932391
 20
260.437886
 30
0.0
  0
SPLINE
  5
164
100
AcDbEntity
  8
Edge.Cuts
 62
2
100
AcDbSpline
 70
8
 71
3
 72
8
 73
4
 74
0
 40
0
 40
0
 40
0
 40
0
 40
1
 40
1
 40
1
 40
1
 10
54.932391
 20
260.437886
 30
0.0
 10
54.695659
 20
260.357616
 30
0.0
 10
54.458287
 20
260.286570
 30
0.0
 10
54.221220
 20
260.224983
 30
0.0
  0
SPLINE
  5
165
100
AcDbEntity
  8
Edge.Cuts
 62
2
100
AcDbSpline
 70
8
 71
3
 72
8
 73
4
 74
0
 40
0
 40
0
 40
0
 40
0
 40
1
 40
1
 40
1
 40
1
 10
54.221220
 20
260.224983
 30
0.0
 10
53.316159
 20
259.989857
 30
0.0
 10
52.415560
 20
259.892651
 30
0.0
 10
51.572098
 20
259.947049
 30
0.0
  0
SPLINE
  5
166
100
AcDbEntity
  8
Edge.Cuts
 62
2
100
AcDbSpline
 70
8
 71
3
 72
8
 73
4
 74
0
 40
0
 40
0
 40
0
 40
0
 40
1
 40
1
 40
1
 40
1
 10
51.572098
 20
259.947049
 30
0.0
 10
49.885173
 20
260.055847
 30
0.0
 10
48.564976
 20
260.762143
 30
0.0
 10
47.901935
 20
261.910564
 30
0.0
  0
SPLINE
  5
167
100
AcDbEntity
  8
Edge.Cuts
 62
2
100
AcDbSpline
 70
8
 71
3
 72
8
 73
4
 74
0
 40
0
 40
0
 40
0
 40
0
 40
1
 40
1
 40
1
 40
1
 10
47.901935
 20
261.910564
 30
0.0
 10
47.238893
 20
263.058984
 30
0.0
 10
47.287321
 20
264.555457
 30
0.0
 10
48.036565
 20
266.070774
 30
0.0
  0
SPLINE
  5
168
100
AcDbEntity
  8
Edge.Cuts
 62
2
100
AcDbSpline
 70
8
 71
3
 72
8
 73
4
 74
0
 40
0
 40
0
 40
0
 40
0
 40
1
 40
1
 40
1
 40
1
 10
48.036565
 20
266.070774
 30
0.0
 10
48.785808
 20
267.586092
 30
0.0
 10
50.174492
 20
268.996127
 30
0.0
 10
51.897123
 20
269.990689
 30
0.0
  0
SPLINE
  5
169
100
AcDbEntity
  8
Edge.Cuts
 62
2
100
AcDbSpline
 70
8
 71
3
 72
8
 73
4
 74
0
 40
0
 40
0
 40
0
 40
0
 40
1
 40
1
 40
1
 40
1
 10
51.897123
 20
269.990689
 30
0.0
 10
53.619755
 20
270.985250
 30
0.0
 10
55.535223
 20
271.482869
 30
0.0
 10
57.222148
 20
271.374074
 30
0.0
  0
SPLINE
  5
16a
100
AcDbEntity
  8
Edge.Cuts
 62
2
100
AcDbSpline
 70
8
 71
3
 72
8
 73
4
 74
0
 40
0
 40
0
 40
0
 40
0
 40
1
 40
1
 40
1
 40
1
 10
57.222148
 20
271.374074
 30
0.0
 10
58.909073
 20
271.265278
 30
0.0
 10
60.229270
 20
270.558982
 30
0.0
 10
60.892311
 20
269.410561
 30
0.0
  0
SPLINE
  5
16b
100
AcDbEntity
  8
Edge.Cuts
 62
2
100
AcDbSpline
 70
8
 71
3
 72
8
 73
4
 74
0
 40
0
 40
0
 40
0
 40
0
 40
1
 40
1
 40
1
 40
1
 10
60.892311
 20
269.410561
 30
0.0
 10
61.038221
 20
269.073736
 30
0.0
 10
61.315215
 20
268.840331
 30
0.0
 10
61.553387
 20
268.602159
 30
0.0
  0
SPLINE
  5
16c
100
AcDbEntity
  8
Edge.Cuts
 62
2
100
AcDbSpline
 70
8
 71
3
 72
8
 73
4
 74
0
 40
0
 40
0
 40
0
 40
0
 40
1
 40
1
 40
1
 40
1
 10
61.553387
 20
268.602159
 30
0.0
 10
61.791558
 20
268.363987
 30
0.0
 10
62.260499
 20
268.303139
 30
0.0
 10
62.597324
 20
268.303139
 30
0.0
  0
SPLINE
  5
16d
100
AcDbEntity
  8
Edge.Cuts
 62
2
100
AcDbSpline
 70
8
 71
3
 72
8
 73
4
 74
0
 40
0
 40
0
 40
0
 40
0
 40
1
 40
1
 40
1
 40
1
 10
62.597324
 20
268.303139
 30
0.0
 10
63.298727
 20
268.303139
 30
0.0
 10
63.867327
 20
268.871738
 30
0.0
 10
63.867327
 20
269.573141
 30
0.0
  0
LINE
  5
16e
100
AcDbEntity
  8
Edge.Cuts
 62
2
100
AcDbLine
 10
63.867327
 20
269.573141
 30
0.0
 11
63.865127
 21
269.447601
 31
0.0
  0
LINE
  5
16f
100
AcDbEntity
  8
Edge.Cuts
 62
2
100
AcDbLine
 10
63.865127
 20
269.447601
 30
0.0
 11
63.866227
 21
270.716869
 31
0.0
  0
SPLINE
  5
170
100
AcDbEntity
  8
Edge.Cuts
 62
2
100
AcDbSpline
 70
8
 71
3
 72
8
 73
4
 74
0
 40
0
 40
0
 40
0
 40
0
 40
1
 40
1
 40
1
 40
1
 10
63.866227
 20
270.716869
 30
0.0
 10
63.867327
 20
271.066835
 30
0.0
 10
64.151645
 20
271.351135
 30
0.0
 10
64.501251
 20
271.351872
 30
0.0
  0
LINE
  5
171
100
AcDbEntity
  8
Edge.Cuts
 62
2
100
AcDbLine
 10
64.501251
 20
271.351872
 30
0.0
 11
72.121327
 21
271.351872
 31
0.0
  0
SPLINE
  5
172
100
AcDbEntity
  8
Edge.Cuts
 62
2
100
AcDbSpline
 70
8
 71
3
 72
8
 73
4
 74
0
 40
0
 40
0
 40
0
 40
0
 40
1
 40
1
 40
1
 40
1
 10
72.121327
 20
271.351872
 30
0.0
 10
72.473173
 20
271.351135
 30
0.0
 10
72.757473
 20
271.066835
 30
0.0
 10
72.756330
 20
270.716870
 30
0.0
  0
LINE
  5
173
100
AcDbEntity
  8
Edge.Cuts
 62
2
100
AcDbLine
 10
72.756330
 20
270.716870
 30
0.0
 11
72.755230
 21
269.447601
 31
0.0
  0
ENDSEC
  0
SECTION
  2
OBJECTS
  0
DICTIONARY
  5
C
330
0
100
AcDbDictionary
  3
ACAD_GROUP
350
D
  3
ACAD_MLINESTYLE
350
17
  0
DICTIONARY
  5
D
330
C
100
AcDbDictionary
  0
DICTIONARY
  5
1A
330
C
100
AcDbDictionary
  0
DICTIONARY
  5
17
330
C
100
AcDbDictionary
  3
STANDARD
350
18
  0
DICTIONARY
  5
19
330
C
100
AcDbDictionary
  0
ENDSEC
  0
EOF
