  0
SECTION
  2
HEADER
  9
$ACADVER
  1
AC1014
  9
$HANDSEED
  5
FFFF
  9
$MEASUREMENT
 70
     1
  0
ENDSEC
  0
SECTION
  2
TABLES
  0
TABLE
  2
VPORT
  5
8
330
0
100
AcDbSymbolTable
 70
     4
  0
VPORT
  5
2E
330
8
100
AcDbSymbolTableRecord
100
AcDbViewportTableRecord
  2
*ACTIVE
 70
     0
 10
0.0
 20
0.0
 11
1.0
 21
1.0
 12
210.0
 22
148.5
 13
0.0
 23
0.0
 14
10.0
 24
10.0
 15
10.0
 25
10.0
 16
0.0
 26
0.0
 36
1.0
 17
0.0
 27
0.0
 37
0.0
 40
341.0
 41
1.24
 42
50.0
 43
0.0
 44
0.0
 50
0.0
 51
0.0
 71
     0
 72
   100
 73
     1
 74
     3
 75
     0
 76
     0
 77
     0
 78
     0
  0
ENDTAB
  0
TABLE
  2
LTYPE
  5
5
330
0
100
AcDbSymbolTable
 70
     1
  0
LTYPE
  5
14
330
5
100
AcDbSymbolTableRecord
100
AcDbLinetypeTableRecord
  2
BYBLOCK
 70
     0
  3

 72
    65
 73
     0
 40
0.0
  0
LTYPE
  5
15
330
5
100
AcDbSymbolTableRecord
100
AcDbLinetypeTableRecord
  2
BYLAYER
 70
     0
  3

 72
    65
 73
     0
 40
0.0
  0
LTYPE
  5
16
330
5
100
AcDbSymbolTableRecord
100
AcDbLinetypeTableRecord
  2
CONTINUOUS
 70
     0
  3
Solid line
 72
    65
 73
     0
 40
0.0
  0
ENDTAB
  0
TABLE
  2
LAYER
  5
2
100
AcDbSymbolTable
 70
3
  0
LAYER
  5
50
100
AcDbSymbolTableRecord
100
AcDbLayerTableRecord
  2
0
 70
0
  6
CONTINUOUS
  0
LAYER
  5
51
100
AcDbSymbolTableRecord
100
AcDbLayerTableRecord
  2
Edge.Cuts
 70
0
  6
CONTINUOUS
  0
LAYER
  5
52
100
AcDbSymbolTableRecord
100
AcDbLayerTableRecord
  2
F.Cu
 70
0
  6
CONTINUOUS
  0
ENDTAB
  0
TABLE
  2
STYLE
  5
3
330
0
100
AcDbSymbolTable
 70
     1
  0
STYLE
  5
11
330
3
100
AcDbSymbolTableRecord
100
AcDbTextStyleTableRecord
  2
STANDARD
 70
     0
 40
0.0
 41
1.0
 50
0.0
 71
     0
 42
2.5
  3
txt
  4

  0
ENDTAB
  0
TABLE
  2
VIEW
  5
6
330
0
100
AcDbSymbolTable
 70
     0
  0
ENDTAB
  0
TABLE
  2
UCS
  5
7
330
0
100
AcDbSymbolTable
 70
     0
  0
ENDTAB
  0
TABLE
  2
APPID
  5
9
330
0
100
AcDbSymbolTable
 70
     2
  0
APPID
  5
12
330
9
100
AcDbSymbolTableRecord
100
AcDbRegAppTableRecord
  2
ACAD
 70
     0
  0
ENDTAB
  0
TABLE
  2
DIMSTYLE
  5
A
330
0
100
AcDbSymbolTable
 70
     1
  0
DIMSTYLE
105
27
330
A
100
AcDbSymbolTableRecord
100
AcDbDimStyleTableRecord
  2
ISO-25
 70
     0
  3

  4

  5

  6

  7

 40
1.0
 41
2.5
 42
0.625
 43
3.75
 44
1.25
 45
0.0
 46
0.0
 47
0.0
 48
0.0
140
2.5
141
2.5
142
0.0
143
0.03937007874016
144
1.0
145
0.0
146
1.0
147
0.625
 71
     0
 72
     0
 73
     0
 74
     0
 75
     0
 76
     0
 77
     1
 78
     8
170
     0
171
     3
172
     1
173
     0
174
     0
175
     0
176
     0
177
     0
178
     0
270
     2
271
     2
272
     2
273
     2
274
     3
340
11
275
     0
280
     0
281
     0
282
     0
283
     0
284
     8
285
     0
286
     0
287
     3
288
     0
  0
ENDTAB
  0
TABLE
  2
BLOCK_RECORD
  5
1
330
0
100
AcDbSymbolTable
 70
     1
  0
BLOCK_RECORD
  5
1F
330
1
100
AcDbSymbolTableRecord
100
AcDbBlockTableRecord
  2
*MODEL_SPACE
  0
BLOCK_RECORD
  5
1B
330
1
100
AcDbSymbolTableRecord
100
AcDbBlockTableRecord
  2
*PAPER_SPACE
  0
ENDTAB
  0
ENDSEC
  0
SECTION
  2
BLOCKS
  0
BLOCK
  5
20
330
1F
100
AcDbEntity
  8
0
100
AcDbBlockBegin
  2
*MODEL_SPACE
 70
     0
 10
0.0
 20
0.0
 30
0.0
  3
*MODEL_SPACE
  1

  0
ENDBLK
  5
21
330
1F
100
AcDbEntity
  8
0
100
AcDbBlockEnd
  0
BLOCK
  5
1C
330
1B
100
AcDbEntity
 67
     1
  8
0
100
AcDbBlockBegin
  2
*PAPER_SPACE
  1

  0
ENDBLK
  5
1D
330
1B
100
AcDbEntity
 67
     1
  8
0
100
AcDbBlockEnd
  0
ENDSEC
  0
SECTION
  2
ENTITIES
  0
LINE
  5
100
100
AcDbEntity
  8
Edge.Cuts
 62
2
100
AcDbLine
 10
63.865152
 20
265.637586
 30
0.0
 11
63.865152
 21
261.827571
 31
0.0
  0
SPLINE
  5
101
100
AcDbEntity
  8
Edge.Cuts
 62
2
100
AcDbSpline
 70
8
 71
3
 72
8
 73
4
 74
0
 40
0
 40
0
 40
0
 40
0
 40
1
 40
1
 40
1
 40
1
 10
63.865152
 20
261.827571
 30
0.0
 10
63.770875
 20
261.625797
 30
0.0
 10
63.659674
 20
261.440945
 30
0.0
 10
63.398638
 20
261.405930
 30
0.0
  0
LINE
  5
102
100
AcDbEntity
  8
Edge.Cuts
 62
2
100
AcDbLine
 10
63.398638
 20
261.405930
 30
0.0
 11
62.351306
 21
261.126528
 31
0.0
  0
LINE
  5
103
100
AcDbEntity
  8
Edge.Cuts
 62
2
100
AcDbLine
 10
62.351306
 20
261.126528
 30
0.0
 11
61.012721
 21
260.694727
 31
0.0
  0
LINE
  5
104
100
AcDbEntity
  8
Edge.Cuts
 62
2
100
AcDbLine
 10
61.012721
 20
260.694727
 30
0.0
 11
59.747796
 21
260.181645
 31
0.0
  0
SPLINE
  5
105
100
AcDbEntity
  8
Edge.Cuts
 62
2
100
AcDbSpline
 70
8
 71
3
 72
8
 73
4
 74
0
 40
0
 40
0
 40
0
 40
0
 40
1
 40
1
 40
1
 40
1
 10
59.747796
 20
260.181645
 30
0.0
 10
59.456097
 20
260.013233
 30
0.0
 10
59.109445
 20
259.967596
 30
0.0
 10
58.784097
 20
260.054771
 30
0.0
  0
SPLINE
  5
106
100
AcDbEntity
  8
Edge.Cuts
 62
2
100
AcDbSpline
 70
8
 71
3
 72
8
 73
4
 74
0
 40
0
 40
0
 40
0
 40
0
 40
1
 40
1
 40
1
 40
1
 10
58.784097
 20
260.054771
 30
0.0
 10
58.458750
 20
260.141947
 30
0.0
 10
58.181358
 20
260.354795
 30
0.0
 10
58.012931
 20
260.646507
 30
0.0
  0
SPLINE
  5
107
100
AcDbEntity
  8
Edge.Cuts
 62
2
100
AcDbSpline
 70
8
 71
3
 72
8
 73
4
 74
0
 40
0
 40
0
 40
0
 40
0
 40
1
 40
1
 40
1
 40
1
 10
58.012931
 20
260.646507
 30
0.0
 10
57.844506
 20
260.938220
 30
0.0
 10
57.798866
 20
261.284871
 30
0.0
 10
57.886046
 20
261.610218
 30
0.0
  0
SPLINE
  5
108
100
AcDbEntity
  8
Edge.Cuts
 62
2
100
AcDbSpline
 70
8
 71
3
 72
8
 73
4
 74
0
 40
0
 40
0
 40
0
 40
0
 40
1
 40
1
 40
1
 40
1
 10
57.886046
 20
261.610218
 30
0.0
 10
57.973221
 20
261.935565
 30
0.0
 10
58.186069
 20
262.212956
 30
0.0
 10
58.526869
 20
262.450284
 30
0.0
  0
SPLINE
  5
109
100
AcDbEntity
  8
Edge.Cuts
 62
2
100
AcDbSpline
 70
8
 71
3
 72
8
 73
4
 74
0
 40
0
 40
0
 40
0
 40
0
 40
1
 40
1
 40
1
 40
1
 10
58.526869
 20
262.450284
 30
0.0
 10
59.516664
 20
263.328850
 30
0.0
 10
60.271691
 20
264.267452
 30
0.0
 10
60.757681
 20
265.250350
 30
0.0
  0
SPLINE
  5
10a
100
AcDbEntity
  8
Edge.Cuts
 62
2
100
AcDbSpline
 70
8
 71
3
 72
8
 73
4
 74
0
 40
0
 40
0
 40
0
 40
0
 40
1
 40
1
 40
1
 40
1
 10
60.757681
 20
265.250350
 30
0.0
 10
60.927909
 20
265.562858
 30
0.0
 10
61.461125
 20
266.168989
 30
0.0
 10
61.699296
 20
266.407161
 30
0.0
  0
SPLINE
  5
10b
100
AcDbEntity
  8
Edge.Cuts
 62
2
100
AcDbSpline
 70
8
 71
3
 72
8
 73
4
 74
0
 40
0
 40
0
 40
0
 40
0
 40
1
 40
1
 40
1
 40
1
 10
61.699296
 20
266.407161
 30
0.0
 10
61.937468
 20
266.645332
 30
0.0
 10
62.260499
 20
266.779136
 30
0.0
 10
62.597324
 20
266.779136
 30
0.0
  0
SPLINE
  5
10c
100
AcDbEntity
  8
Edge.Cuts
 62
2
100
AcDbSpline
 70
8
 71
3
 72
8
 73
4
 74
0
 40
0
 40
0
 40
0
 40
0
 40
1
 40
1
 40
1
 40
1
 10
62.597324
 20
266.779136
 30
0.0
 10
63.298727
 20
266.779136
 30
0.0
 10
63.867327
 20
266.210536
 30
0.0
 10
63.867327
 20
265.509133
 30
0.0
  0
LINE
  5
10d
100
AcDbEntity
  8
Edge.Cuts
 62
2
100
AcDbLine
 10
72.755187
 20
265.637586
 30
0.0
 11
72.755187
 21
261.827571
 31
0.0
  0
SPLINE
  5
10e
100
AcDbEntity
  8
Edge.Cuts
 62
2
100
AcDbSpline
 70
8
 71
3
 72
8
 73
4
 74
0
 40
0
 40
0
 40
0
 40
0
 40
1
 40
1
 40
1
 40
1
 10
72.755187
 20
261.827571
 30
0.0
 10
72.781898
 20
261.540631
 30
0.0
 10
72.917918
 20
261.472312
 30
0.0
 10
73.054908
 20
261.405930
 30
0.0
  0
LINE
  5
10f
100
AcDbEntity
  8
Edge.Cuts
 62
2
100
AcDbLine
 10
73.054908
 20
261.405930
 30
0.0
 11
74.271573
 21
261.126528
 31
0.0
  0
LINE
  5
110
100
AcDbEntity
  8
Edge.Cuts
 62
2
100
AcDbLine
 10
74.271573
 20
261.126528
 30
0.0
 11
75.610158
 21
260.694727
 31
0.0
  0
LINE
  5
111
100
AcDbEntity
  8
Edge.Cuts
 62
2
100
AcDbLine
 10
75.610158
 20
260.694727
 30
0.0
 11
76.872543
 21
260.181645
 31
0.0
  0
SPLINE
  5
112
100
AcDbEntity
  8
Edge.Cuts
 62
2
100
AcDbSpline
 70
8
 71
3
 72
8
 73
4
 74
0
 40
0
 40
0
 40
0
 40
0
 40
1
 40
1
 40
1
 40
1
 10
76.872543
 20
260.181645
 30
0.0
 10
77.164263
 20
260.013161
 30
0.0
 10
77.477949
 20
259.877083
 30
0.0
 10
77.803353
 20
259.964262
 30
0.0
  0
SPLINE
  5
113
100
AcDbEntity
  8
Edge.Cuts
 62
2
100
AcDbSpline
 70
8
 71
3
 72
8
 73
4
 74
0
 40
0
 40
0
 40
0
 40
0
 40
1
 40
1
 40
1
 40
1
 10
77.803353
 20
259.964262
 30
0.0
 10
78.128756
 20
260.051441
 30
0.0
 10
78.406189
 20
260.264334
 30
0.0
 10
78.574604
 20
260.556093
 30
0.0
  0
LINE
  5
114
100
AcDbEntity
  8
Edge.Cuts
 62
2
100
AcDbLine
 10
78.574604
 20
260.556093
 30
0.0
 11
78.574553
 21
260.556123
 31
0.0
  0
SPLINE
  5
115
100
AcDbEntity
  8
Edge.Cuts
 62
2
100
AcDbSpline
 70
8
 71
3
 72
8
 73
4
 74
0
 40
0
 40
0
 40
0
 40
0
 40
1
 40
1
 40
1
 40
1
 10
78.574553
 20
260.556123
 30
0.0
 10
78.742946
 20
260.847849
 30
0.0
 10
78.788549
 20
261.194521
 30
0.0
 10
78.701333
 20
261.519872
 30
0.0
  0
SPLINE
  5
116
100
AcDbEntity
  8
Edge.Cuts
 62
2
100
AcDbSpline
 70
8
 71
3
 72
8
 73
4
 74
0
 40
0
 40
0
 40
0
 40
0
 40
1
 40
1
 40
1
 40
1
 10
78.701333
 20
261.519872
 30
0.0
 10
78.614111
 20
261.845221
 30
0.0
 10
78.389526
 20
262.266213
 30
0.0
 10
78.097791
 20
262.434589
 30
0.0
  0
SPLINE
  5
117
100
AcDbEntity
  8
Edge.Cuts
 62
2
100
AcDbSpline
 70
8
 71
3
 72
8
 73
4
 74
0
 40
0
 40
0
 40
0
 40
0
 40
1
 40
1
 40
1
 40
1
 10
78.097791
 20
262.434589
 30
0.0
 10
77.194114
 20
263.228303
 30
0.0
 10
76.467942
 20
264.141479
 30
0.0
 10
75.995750
 20
265.096473
 30
0.0
  0
LINE
  5
118
100
AcDbEntity
  8
Edge.Cuts
 62
2
100
AcDbLine
 10
75.995750
 20
265.096473
 30
0.0
 11
75.737664
 21
265.631162
 31
0.0
  0
SPLINE
  5
119
100
AcDbEntity
  8
Edge.Cuts
 62
2
100
AcDbSpline
 70
8
 71
3
 72
8
 73
4
 74
0
 40
0
 40
0
 40
0
 40
0
 40
1
 40
1
 40
1
 40
1
 10
75.737664
 20
265.631162
 30
0.0
 10
75.567036
 20
265.954470
 30
0.0
 10
75.159418
 20
266.277729
 30
0.0
 10
74.925463
 20
266.407161
 30
0.0
  0
SPLINE
  5
11a
100
AcDbEntity
  8
Edge.Cuts
 62
2
100
AcDbSpline
 70
8
 71
3
 72
8
 73
4
 74
0
 40
0
 40
0
 40
0
 40
0
 40
1
 40
1
 40
1
 40
1
 10
74.925463
 20
266.407161
 30
0.0
 10
74.630735
 20
266.570215
 30
0.0
 10
74.364263
 20
266.779137
 30
0.0
 10
74.027432
 20
266.779136
 30
0.0
  0
SPLINE
  5
11b
100
AcDbEntity
  8
Edge.Cuts
 62
2
100
AcDbSpline
 70
8
 71
3
 72
8
 73
4
 74
0
 40
0
 40
0
 40
0
 40
0
 40
1
 40
1
 40
1
 40
1
 10
74.027432
 20
266.779136
 30
0.0
 10
73.326021
 20
266.779137
 30
0.0
 10
72.757420
 20
266.210537
 30
0.0
 10
72.757422
 20
265.509133
 30
0.0
  0
SPLINE
  5
11c
100
AcDbEntity
  8
Edge.Cuts
 62
2
100
AcDbSpline
 70
8
 71
3
 72
8
 73
4
 74
0
 40
0
 40
0
 40
0
 40
0
 40
1
 40
1
 40
1
 40
1
 10
72.757421
 20
269.573141
 30
0.0
 10
72.757421
 20
268.871738
 30
0.0
 10
73.326022
 20
268.303138
 30
0.0
 10
74.027425
 20
268.303139
 30
0.0
  0
SPLINE
  5
11d
100
AcDbEntity
  8
Edge.Cuts
 62
2
100
AcDbSpline
 70
8
 71
3
 72
8
 73
4
 74
0
 40
0
 40
0
 40
0
 40
0
 40
1
 40
1
 40
1
 40
1
 10
74.027425
 20
268.303139
 30
0.0
 10
74.364250
 20
268.303139
 30
0.0
 10
74.857508
 20
268.315349
 30
0.0
 10
75.095680
 20
268.553522
 30
0.0
  0
SPLINE
  5
11e
100
AcDbEntity
  8
Edge.Cuts
 62
2
100
AcDbSpline
 70
8
 71
3
 72
8
 73
4
 74
0
 40
0
 40
0
 40
0
 40
0
 40
1
 40
1
 40
1
 40
1
 10
75.095680
 20
268.553522
 30
0.0
 10
75.468851
 20
268.787909
 30
0.0
 10
75.680327
 20
269.022297
 30
0.0
 10
75.861107
 20
269.256684
 30
0.0
  0
SPLINE
  5
11f
100
AcDbEntity
  8
Edge.Cuts
 62
2
100
AcDbSpline
 70
8
 71
3
 72
8
 73
4
 74
0
 40
0
 40
0
 40
0
 40
0
 40
1
 40
1
 40
1
 40
1
 10
75.861107
 20
269.256684
 30
0.0
 10
75.941917
 20
269.396648
 30
0.0
 10
76.032485
 20
269.530044
 30
0.0
 10
76.132291
 20
269.656593
 30
0.0
  0
SPLINE
  5
120
100
AcDbEntity
  8
Edge.Cuts
 62
2
100
AcDbSpline
 70
8
 71
3
 72
8
 73
4
 74
0
 40
0
 40
0
 40
0
 40
0
 40
1
 40
1
 40
1
 40
1
 10
76.132291
 20
269.656593
 30
0.0
 10
76.441941
 20
270.049217
 30
0.0
 10
76.840488
 20
270.375919
 30
0.0
 10
77.312232
 20
270.628300
 30
0.0
  0
SPLINE
  5
121
100
AcDbEntity
  8
Edge.Cuts
 62
2
100
AcDbSpline
 70
8
 71
3
 72
8
 73
4
 74
0
 40
0
 40
0
 40
0
 40
0
 40
1
 40
1
 40
1
 40
1
 10
77.312232
 20
270.628300
 30
0.0
 10
77.936030
 20
270.962026
 30
0.0
 10
78.687809
 20
271.165799
 30
0.0
 10
79.531272
 20
271.220196
 30
0.0
  0
SPLINE
  5
122
100
AcDbEntity
  8
Edge.Cuts
 62
2
100
AcDbSpline
 70
8
 71
3
 72
8
 73
4
 74
0
 40
0
 40
0
 40
0
 40
0
 40
1
 40
1
 40
1
 40
1
 10
79.531272
 20
271.220196
 30
0.0
 10
81.218197
 20
271.328991
 30
0.0
 10
83.133666
 20
270.831373
 30
0.0
 10
84.856297
 20
269.836811
 30
0.0
  0
SPLINE
  5
123
100
AcDbEntity
  8
Edge.Cuts
 62
2
100
AcDbSpline
 70
8
 71
3
 72
8
 73
4
 74
0
 40
0
 40
0
 40
0
 40
0
 40
1
 40
1
 40
1
 40
1
 10
84.856297
 20
269.836811
 30
0.0
 10
86.578928
 20
268.842249
 30
0.0
 10
87.967614
 20
267.432214
 30
0.0
 10
88.716856
 20
265.916896
 30
0.0
  0
SPLINE
  5
124
100
AcDbEntity
  8
Edge.Cuts
 62
2
100
AcDbSpline
 70
8
 71
3
 72
8
 73
4
 74
0
 40
0
 40
0
 40
0
 40
0
 40
1
 40
1
 40
1
 40
1
 10
88.716856
 20
265.916896
 30
0.0
 10
89.466101
 20
264.401579
 30
0.0
 10
89.514527
 20
262.905106
 30
0.0
 10
88.851487
 20
261.756686
 30
0.0
  0
SPLINE
  5
125
100
AcDbEntity
  8
Edge.Cuts
 62
2
100
AcDbSpline
 70
8
 71
3
 72
8
 73
4
 74
0
 40
0
 40
0
 40
0
 40
0
 40
1
 40
1
 40
1
 40
1
 10
88.851487
 20
261.756686
 30
0.0
 10
88.188446
 20
260.608265
 30
0.0
 10
86.868247
 20
259.901968
 30
0.0
 10
85.181324
 20
259.793173
 30
0.0
  0
SPLINE
  5
126
100
AcDbEntity
  8
Edge.Cuts
 62
2
100
AcDbSpline
 70
8
 71
3
 72
8
 73
4
 74
0
 40
0
 40
0
 40
0
 40
0
 40
1
 40
1
 40
1
 40
1
 10
85.181324
 20
259.793173
 30
0.0
 10
84.111111
 20
259.724153
 30
0.0
 10
82.948913
 20
259.899203
 30
0.0
 10
81.802328
 20
260.290372
 30
0.0
  0
SPLINE
  5
127
100
AcDbEntity
  8
Edge.Cuts
 62
2
100
AcDbSpline
 70
8
 71
3
 72
8
 73
4
 74
0
 40
0
 40
0
 40
0
 40
0
 40
1
 40
1
 40
1
 40
1
 10
81.802328
 20
260.290372
 30
0.0
 10
81.510633
 20
260.458775
 30
0.0
 10
80.990811
 20
260.473004
 30
0.0
 10
80.665469
 20
260.385832
 30
0.0
  0
SPLINE
  5
128
100
AcDbEntity
  8
Edge.Cuts
 62
2
100
AcDbSpline
 70
8
 71
3
 72
8
 73
4
 74
0
 40
0
 40
0
 40
0
 40
0
 40
1
 40
1
 40
1
 40
1
 10
80.665469
 20
260.385832
 30
0.0
 10
80.340129
 20
260.298652
 30
0.0
 10
80.062743
 20
260.085814
 30
0.0
 10
79.894328
 20
259.794122
 30
0.0
  0
SPLINE
  5
129
100
AcDbEntity
  8
Edge.Cuts
 62
2
100
AcDbSpline
 70
8
 71
3
 72
8
 73
4
 74
0
 40
0
 40
0
 40
0
 40
0
 40
1
 40
1
 40
1
 40
1
 10
79.894328
 20
259.794122
 30
0.0
 10
79.725915
 20
259.502426
 30
0.0
 10
79.680274
 20
259.155777
 30
0.0
 10
79.767444
 20
258.830431
 30
0.0
  0
SPLINE
  5
12a
100
AcDbEntity
  8
Edge.Cuts
 62
2
100
AcDbSpline
 70
8
 71
3
 72
8
 73
4
 74
0
 40
0
 40
0
 40
0
 40
0
 40
1
 40
1
 40
1
 40
1
 10
79.767444
 20
258.830431
 30
0.0
 10
79.854614
 20
258.505084
 30
0.0
 10
80.149500
 20
258.117429
 30
0.0
 10
80.441192
 20
257.949011
 30
0.0
  0
LINE
  5
12b
100
AcDbEntity
  8
Edge.Cuts
 62
2
100
AcDbLine
 10
80.441192
 20
257.949011
 30
0.0
 11
81.546095
 21
256.859349
 31
0.0
  0
LINE
  5
12c
100
AcDbEntity
  8
Edge.Cuts
 62
2
100
AcDbLine
 10
81.546095
 20
256.859349
 30
0.0
 11
82.437635
 21
255.673166
 31
0.0
  0
LINE
  5
12d
100
AcDbEntity
  8
Edge.Cuts
 62
2
100
AcDbLine
 10
82.437635
 20
255.673166
 30
0.0
 11
83.100578
 21
254.405703
 31
0.0
  0
LINE
  5
12e
100
AcDbEntity
  8
Edge.Cuts
 62
2
100
AcDbLine
 10
83.100578
 20
254.405703
 30
0.0
 11
83.509518
 21
253.064581
 31
0.0
  0
LINE
  5
12f
100
AcDbEntity
  8
Edge.Cuts
 62
2
100
AcDbLine
 10
83.509518
 20
253.064581
 30
0.0
 11
83.651758
 21
251.667578
 31
0.0
  0
LINE
  5
130
100
AcDbEntity
  8
Edge.Cuts
 62
2
100
AcDbLine
 10
83.651758
 20
251.667578
 30
0.0
 11
83.509518
 21
250.270575
 31
0.0
  0
LINE
  5
131
100
AcDbEntity
  8
Edge.Cuts
 62
2
100
AcDbLine
 10
83.509518
 20
250.270575
 30
0.0
 11
83.100578
 21
248.929452
 31
0.0
  0
LINE
  5
132
100
AcDbEntity
  8
Edge.Cuts
 62
2
100
AcDbLine
 10
83.100578
 20
248.929452
 30
0.0
 11
82.437635
 21
247.661989
 31
0.0
  0
LINE
  5
133
100
AcDbEntity
  8
Edge.Cuts
 62
2
100
AcDbLine
 10
82.437635
 20
247.661989
 30
0.0
 11
81.546095
 21
246.475807
 31
0.0
  0
LINE
  5
134
100
AcDbEntity
  8
Edge.Cuts
 62
2
100
AcDbLine
 10
81.546095
 20
246.475807
 30
0.0
 11
80.441192
 21
245.386145
 31
0.0
  0
LINE
  5
135
100
AcDbEntity
  8
Edge.Cuts
 62
2
100
AcDbLine
 10
80.441192
 20
245.386145
 30
0.0
 11
79.143250
 21
244.400622
 31
0.0
  0
LINE
  5
136
100
AcDbEntity
  8
Edge.Cuts
 62
2
100
AcDbLine
 10
79.143250
 20
244.400622
 30
0.0
 11
78.053587
 21
243.740222
 31
0.0
  0
LINE
  5
137
100
AcDbEntity
  8
Edge.Cuts
 62
2
100
AcDbLine
 10
78.053587
 20
243.740222
 30
0.0
 11
76.872484
 21
243.153479
 31
0.0
  0
LINE
  5
138
100
AcDbEntity
  8
Edge.Cuts
 62
2
100
AcDbLine
 10
76.872484
 20
243.153479
 30
0.0
 11
75.610102
 21
242.640399
 31
0.0
  0
LINE
  5
139
100
AcDbEntity
  8
Edge.Cuts
 62
2
100
AcDbLine
 10
75.610102
 20
242.640399
 30
0.0
 11
74.271519
 21
242.208597
 31
0.0
  0
LINE
  5
13a
100
AcDbEntity
  8
Edge.Cuts
 62
2
100
AcDbLine
 10
74.271519
 20
242.208597
 30
0.0
 11
72.864356
 21
241.865697
 31
0.0
  0
LINE
  5
13b
100
AcDbEntity
  8
Edge.Cuts
 62
2
100
AcDbLine
 10
72.864356
 20
241.865697
 30
0.0
 11
71.396232
 21
241.614237
 31
0.0
  0
LINE
  5
13c
100
AcDbEntity
  8
Edge.Cuts
 62
2
100
AcDbLine
 10
71.396232
 20
241.614237
 30
0.0
 11
69.877309
 21
241.459297
 31
0.0
  0
LINE
  5
13d
100
AcDbEntity
  8
Edge.Cuts
 62
2
100
AcDbLine
 10
69.877309
 20
241.459297
 30
0.0
 11
68.310126
 21
241.405957
 31
0.0
  0
LINE
  5
13e
100
AcDbEntity
  8
Edge.Cuts
 62
2
100
AcDbLine
 10
68.310126
 20
241.405957
 30
0.0
 11
66.745483
 21
241.459297
 31
0.0
  0
LINE
  5
13f
100
AcDbEntity
  8
Edge.Cuts
 62
2
100
AcDbLine
 10
66.745483
 20
241.459297
 30
0.0
 11
65.226560
 21
241.614237
 31
0.0
  0
LINE
  5
140
100
AcDbEntity
  8
Edge.Cuts
 62
2
100
AcDbLine
 10
65.226560
 20
241.614237
 30
0.0
 11
63.758437
 21
241.865697
 31
0.0
  0
LINE
  5
141
100
AcDbEntity
  8
Edge.Cuts
 62
2
100
AcDbLine
 10
63.758437
 20
241.865697
 30
0.0
 11
62.351274
 21
242.208597
 31
0.0
  0
LINE
  5
142
100
AcDbEntity
  8
Edge.Cuts
 62
2
100
AcDbLine
 10
62.351274
 20
242.208597
 30
0.0
 11
61.012691
 21
242.640399
 31
0.0
  0
LINE
  5
143
100
AcDbEntity
  8
Edge.Cuts
 62
2
100
AcDbLine
 10
61.012691
 20
242.640399
 30
0.0
 11
59.747768
 21
243.153479
 31
0.0
  0
LINE
  5
144
100
AcDbEntity
  8
Edge.Cuts
 62
2
100
AcDbLine
 10
59.747768
 20
243.153479
 30
0.0
 11
58.569206
 21
243.740222
 31
0.0
  0
LINE
  5
145
100
AcDbEntity
  8
Edge.Cuts
 62
2
100
AcDbLine
 10
58.569206
 20
243.740222
 30
0.0
 11
57.479544
 21
244.400622
 31
0.0
  0
LINE
  5
146
100
AcDbEntity
  8
Edge.Cuts
 62
2
100
AcDbLine
 10
57.479544
 20
244.400622
 30
0.0
 11
56.181601
 21
245.386145
 31
0.0
  0
LINE
  5
147
100
AcDbEntity
  8
Edge.Cuts
 62
2
100
AcDbLine
 10
56.181601
 20
245.386145
 30
0.0
 11
55.076699
 21
246.475807
 31
0.0
  0
LINE
  5
148
100
AcDbEntity
  8
Edge.Cuts
 62
2
100
AcDbLine
 10
55.076699
 20
246.475807
 30
0.0
 11
54.182617
 21
247.661989
 31
0.0
  0
LINE
  5
149
100
AcDbEntity
  8
Edge.Cuts
 62
2
100
AcDbLine
 10
54.182617
 20
247.661989
 30
0.0
 11
53.522216
 21
248.929452
 31
0.0
  0
LINE
  5
14a
100
AcDbEntity
  8
Edge.Cuts
 62
2
100
AcDbLine
 10
53.522216
 20
248.929452
 30
0.0
 11
53.113275
 21
250.270575
 31
0.0
  0
LINE
  5
14b
100
AcDbEntity
  8
Edge.Cuts
 62
2
100
AcDbLine
 10
53.113275
 20
250.270575
 30
0.0
 11
52.971034
 21
251.667578
 31
0.0
  0
LINE
  5
14c
100
AcDbEntity
  8
Edge.Cuts
 62
2
100
AcDbLine
 10
52.971034
 20
251.667578
 30
0.0
 11
53.113275
 21
253.064581
 31
0.0
  0
LINE
  5
14d
100
AcDbEntity
  8
Edge.Cuts
 62
2
100
AcDbLine
 10
53.113275
 20
253.064581
 30
0.0
 11
53.522216
 21
254.405703
 31
0.0
  0
LINE
  5
14e
100
AcDbEntity
  8
Edge.Cuts
 62
2
100
AcDbLine
 10
53.522216
 20
254.405703
 30
0.0
 11
54.182617
 21
255.673166
 31
0.0
  0
LINE
  5
14f
100
AcDbEntity
  8
Edge.Cuts
 62
2
100
AcDbLine
 10
54.182617
 20
255.673166
 30
0.0
 11
55.076699
 21
256.859349
 31
0.0
  0
LINE
  5
150
100
AcDbEntity
  8
Edge.Cuts
 62
2
100
AcDbLine
 10
55.076699
 20
256.859349
 30
0.0
 11
56.253776
 21
258.070784
 31
0.0
  0
SPLINE
  5
151
100
AcDbEntity
  8
Edge.Cuts
 62
2
100
AcDbSpline
 70
8
 71
3
 72
8
 73
4
 74
0
 40
0
 40
0
 40
0
 40
0
 40
1
 40
1
 40
1
 40
1
 10
56.253776
 20
258.070784
 30
0.0
 10
56.617647
 20
258.360972
 30
0.0
 10
56.770093
 20
258.608162
 30
0.0
 10
56.857268
 20
258.933509
 30
0.0
  0
SPLINE
  5
152
100
AcDbEntity
  8
Edge.Cuts
 62
2
100
AcDbSpline
 70
8
 71
3
 72
8
 73
4
 74
0
 40
0
 40
0
 40
0
 40
0
 40
1
 40
1
 40
1
 40
1
 10
56.857268
 20
258.933509
 30
0.0
 10
56.944448
 20
259.258856
 30
0.0
 10
56.898808
 20
259.605508
 30
0.0
 10
56.730395
 20
259.897206
 30
0.0
  0
SPLINE
  5
153
100
AcDbEntity
  8
Edge.Cuts
 62
2
100
AcDbSpline
 70
8
 71
3
 72
8
 73
4
 74
0
 40
0
 40
0
 40
0
 40
0
 40
1
 40
1
 40
1
 40
1
 10
56.730395
 20
259.897206
 30
0.0
 10
56.561980
 20
260.188902
 30
0.0
 10
56.284589
 20
260.401750
 30
0.0
 10
55.959242
 20
260.488926
 30
0.0
  0
SPLINE
  5
154
100
AcDbEntity
  8
Edge.Cuts
 62
2
100
AcDbSpline
 70
8
 71
3
 72
8
 73
4
 74
0
 40
0
 40
0
 40
0
 40
0
 40
1
 40
1
 40
1
 40
1
 10
55.959242
 20
260.488926
 30
0.0
 10
55.633895
 20
260.576096
 30
0.0
 10
55.224089
 20
260.606300
 30
0.0
 10
54.932391
 20
260.437886
 30
0.0
  0
SPLINE
  5
155
100
AcDbEntity
  8
Edge.Cuts
 62
2
100
AcDbSpline
 70
8
 71
3
 72
8
 73
4
 74
0
 40
0
 40
0
 40
0
 40
0
 40
1
 40
1
 40
1
 40
1
 10
54.932391
 20
260.437886
 30
0.0
 10
54.695659
 20
260.357616
 30
0.0
 10
54.458287
 20
260.286570
 30
0.0
 10
54.221220
 20
260.224983
 30
0.0
  0
SPLINE
  5
156
100
AcDbEntity
  8
Edge.Cuts
 62
2
100
AcDbSpline
 70
8
 71
3
 72
8
 73
4
 74
0
 40
0
 40
0
 40
0
 40
0
 40
1
 40
1
 40
1
 40
1
 10
54.221220
 20
260.224983
 30
0.0
 10
53.316159
 20
259.989857
 30
0.0
 10
52.415560
 20
259.892651
 30
0.0
 10
51.572098
 20
259.947049
 30
0.0
  0
SPLINE
  5
157
100
AcDbEntity
  8
Edge.Cuts
 62
2
100
AcDbSpline
 70
8
 71
3
 72
8
 73
4
 74
0
 40
0
 40
0
 40
0
 40
0
 40
1
 40
1
 40
1
 40
1
 10
51.572098
 20
259.947049
 30
0.0
 10
49.885173
 20
260.055847
 30
0.0
 10
48.564976
 20
260.762143
 30
0.0
 10
47.901935
 20
261.910564
 30
0.0
  0
SPLINE
  5
158
100
AcDbEntity
  8
Edge.Cuts
 62
2
100
AcDbSpline
 70
8
 71
3
 72
8
 73
4
 74
0
 40
0
 40
0
 40
0
 40
0
 40
1
 40
1
 40
1
 40
1
 10
47.901935
 20
261.910564
 30
0.0
 10
47.238893
 20
263.058984
 30
0.0
 10
47.287321
 20
264.555457
 30
0.0
 10
48.036565
 20
266.070774
 30
0.0
  0
SPLINE
  5
159
100
AcDbEntity
  8
Edge.Cuts
 62
2
100
AcDbSpline
 70
8
 71
3
 72
8
 73
4
 74
0
 40
0
 40
0
 40
0
 40
0
 40
1
 40
1
 40
1
 40
1
 10
48.036565
 20
266.070774
 30
0.0
 10
48.785808
 20
267.586092
 30
0.0
 10
50.174492
 20
268.996127
 30
0.0
 10
51.897123
 20
269.990689
 30
0.0
  0
SPLINE
  5
15a
100
AcDbEntity
  8
Edge.Cuts
 62
2
100
AcDbSpline
 70
8
 71
3
 72
8
 73
4
 74
0
 40
0
 40
0
 40
0
 40
0
 40
1
 40
1
 40
1
 40
1
 10
51.897123
 20
269.990689
 30
0.0
 10
53.619755
 20
270.985250
 30
0.0
 10
55.535223
 20
271.482869
 30
0.0
 10
57.222148
 20
271.374074
 30
0.0
  0
SPLINE
  5
15b
100
AcDbEntity
  8
Edge.Cuts
 62
2
100
AcDbSpline
 70
8
 71
3
 72
8
 73
4
 74
0
 40
0
 40
0
 40
0
 40
0
 40
1
 40
1
 40
1
 40
1
 10
57.222148
 20
271.374074
 30
0.0
 10
58.909073
 20
271.265278
 30
0.0
 10
60.229270
 20
270.558982
 30
0.0
 10
60.892311
 20
269.410561
 30
0.0
  0
SPLINE
  5
15c
100
AcDbEntity
  8
Edge.Cuts
 62
2
100
AcDbSpline
 70
8
 71
3
 72
8
 73
4
 74
0
 40
0
 40
0
 40
0
 40
0
 40
1
 40
1
 40
1
 40
1
 10
60.892311
 20
269.410561
 30
0.0
 10
61.038221
 20
269.073736
 30
0.0
 10
61.315215
 20
268.840331
 30
0.0
 10
61.553387
 20
268.602159
 30
0.0
  0
SPLINE
  5
15d
100
AcDbEntity
  8
Edge.Cuts
 62
2
100
AcDbSpline
 70
8
 71
3
 72
8
 73
4
 74
0
 40
0
 40
0
 40
0
 40
0
 40
1
 40
1
 40
1
 40
1
 10
61.553387
 20
268.602159
 30
0.0
 10
61.791558
 20
268.363987
 30
0.0
 10
62.260499
 20
268.303139
 30
0.0
 10
62.597324
 20
268.303139
 30
0.0
  0
SPLINE
  5
15e
100
AcDbEntity
  8
Edge.Cuts
 62
2
100
AcDbSpline
 70
8
 71
3
 72
8
 73
4
 74
0
 40
0
 40
0
 40
0
 40
0
 40
1
 40
1
 40
1
 40
1
 10
62.597324
 20
268.303139
 30
0.0
 10
63.298727
 20
268.303139
 30
0.0
 10
63.867327
 20
268.871738
 30
0.0
 10
63.867327
 20
269.573141
 30
0.0
  0
LINE
  5
15f
100
AcDbEntity
  8
Edge.Cuts
 62
2
100
AcDbLine
 10
63.867327
 20
269.573141
 30
0.0
 11
63.865127
 21
269.447601
 31
0.0
  0
LINE
  5
160
100
AcDbEntity
  8
Edge.Cuts
 62
2
100
AcDbLine
 10
63.865127
 20
269.447601
 30
0.0
 11
63.866227
 21
270.716869
 31
0.0
  0
SPLINE
  5
161
100
AcDbEntity
  8
Edge.Cuts
 62
2
100
AcDbSpline
 70
8
 71
3
 72
8
 73
4
 74
0
 40
0
 40
0
 40
0
 40
0
 40
1
 40
1
 40
1
 40
1
 10
63.866227
 20
270.716869
 30
0.0
 10
63.867327
 20
271.066835
 30
0.0
 10
64.151645
 20
271.351135
 30
0.0
 10
64.501251
 20
271.351872
 30
0.0
  0
LINE
  5
162
100
AcDbEntity
  8
Edge.Cuts
 62
2
100
AcDbLine
 10
64.501251
 20
271.351872
 30
0.0
 11
72.121327
 21
271.351872
 31
0.0
  0
SPLINE
  5
163
100
AcDbEntity
  8
Edge.Cuts
 62
2
100
AcDbSpline
 70
8
 71
3
 72
8
 73
4
 74
0
 40
0
 40
0
 40
0
 40
0
 40
1
 40
1
 40
1
 40
1
 10
72.121327
 20
271.351872
 30
0.0
 10
72.473173
 20
271.351135
 30
0.0
 10
72.757473
 20
271.066835
 30
0.0
 10
72.756330
 20
270.716870
 30
0.0
  0
LINE
  5
164
100
AcDbEntity
  8
Edge.Cuts
 62
2
100
AcDbLine
 10
72.756330
 20
270.716870
 30
0.0
 11
72.755230
 21
269.447601
 31
0.0
  0
ENDSEC
  0
SECTION
  2
OBJECTS
  0
DICTIONARY
  5
C
330
0
100
AcDbDictionary
  3
ACAD_GROUP
350
D
  3
ACAD_MLINESTYLE
350
17
  0
DICTIONARY
  5
D
330
C
100
AcDbDictionary
  0
DICTIONARY
  5
1A
330
C
100
AcDbDictionary
  0
DICTIONARY
  5
17
330
C
100
AcDbDictionary
  3
STANDARD
350
18
  0
DICTIONARY
  5
19
330
C
100
AcDbDictionary
  0
ENDSEC
  0
EOF
