G04 #@! TF.FileFunction,Legend,Top*
%FSLAX46Y46*%
G04 Gerber Fmt 4.6, Leading zero omitted, Abs format (unit mm)*
G04 Created by KiCad (PCBNEW 4.0.7) date 08/08/19 18:58:54*
%MOMM*%
%LPD*%
G01*
G04 APERTURE LIST*
%ADD10C,0.100000*%
%ADD11C,0.175000*%
%ADD12C,0.200000*%
%ADD13C,0.150000*%
%ADD14C,0.500000*%
%ADD15C,0.120000*%
%ADD16C,0.010000*%
G04 APERTURE END LIST*
D10*
D11*
X188288333Y-115201476D02*
X188321667Y-115087190D01*
X188321667Y-114896714D01*
X188288333Y-114820524D01*
X188255000Y-114782428D01*
X188188333Y-114744333D01*
X188121667Y-114744333D01*
X188055000Y-114782428D01*
X188021667Y-114820524D01*
X187988333Y-114896714D01*
X187955000Y-115049095D01*
X187921667Y-115125286D01*
X187888333Y-115163381D01*
X187821667Y-115201476D01*
X187755000Y-115201476D01*
X187688333Y-115163381D01*
X187655000Y-115125286D01*
X187621667Y-115049095D01*
X187621667Y-114858619D01*
X187655000Y-114744333D01*
X188321667Y-114401476D02*
X187621667Y-114401476D01*
X187655000Y-113601476D02*
X187621667Y-113677667D01*
X187621667Y-113791952D01*
X187655000Y-113906238D01*
X187721667Y-113982429D01*
X187788333Y-114020524D01*
X187921667Y-114058619D01*
X188021667Y-114058619D01*
X188155000Y-114020524D01*
X188221667Y-113982429D01*
X188288333Y-113906238D01*
X188321667Y-113791952D01*
X188321667Y-113715762D01*
X188288333Y-113601476D01*
X188255000Y-113563381D01*
X188021667Y-113563381D01*
X188021667Y-113715762D01*
X189546667Y-115734810D02*
X188846667Y-115734810D01*
X188846667Y-115430048D01*
X188880000Y-115353857D01*
X188913333Y-115315762D01*
X188980000Y-115277667D01*
X189080000Y-115277667D01*
X189146667Y-115315762D01*
X189180000Y-115353857D01*
X189213333Y-115430048D01*
X189213333Y-115734810D01*
X188846667Y-115011000D02*
X189546667Y-114820524D01*
X189046667Y-114668143D01*
X189546667Y-114515762D01*
X188846667Y-114325286D01*
X189546667Y-113563381D02*
X189213333Y-113830048D01*
X189546667Y-114020524D02*
X188846667Y-114020524D01*
X188846667Y-113715762D01*
X188880000Y-113639571D01*
X188913333Y-113601476D01*
X188980000Y-113563381D01*
X189080000Y-113563381D01*
X189146667Y-113601476D01*
X189180000Y-113639571D01*
X189213333Y-113715762D01*
X189213333Y-114020524D01*
X190105000Y-115239571D02*
X190071667Y-115315762D01*
X190071667Y-115430047D01*
X190105000Y-115544333D01*
X190171667Y-115620524D01*
X190238333Y-115658619D01*
X190371667Y-115696714D01*
X190471667Y-115696714D01*
X190605000Y-115658619D01*
X190671667Y-115620524D01*
X190738333Y-115544333D01*
X190771667Y-115430047D01*
X190771667Y-115353857D01*
X190738333Y-115239571D01*
X190705000Y-115201476D01*
X190471667Y-115201476D01*
X190471667Y-115353857D01*
X190771667Y-114858619D02*
X190071667Y-114858619D01*
X190771667Y-114401476D01*
X190071667Y-114401476D01*
X190771667Y-114020524D02*
X190071667Y-114020524D01*
X190071667Y-113830048D01*
X190105000Y-113715762D01*
X190171667Y-113639571D01*
X190238333Y-113601476D01*
X190371667Y-113563381D01*
X190471667Y-113563381D01*
X190605000Y-113601476D01*
X190671667Y-113639571D01*
X190738333Y-113715762D01*
X190771667Y-113830048D01*
X190771667Y-114020524D01*
X163037833Y-116268238D02*
X163071167Y-116153952D01*
X163071167Y-115963476D01*
X163037833Y-115887286D01*
X163004500Y-115849190D01*
X162937833Y-115811095D01*
X162871167Y-115811095D01*
X162804500Y-115849190D01*
X162771167Y-115887286D01*
X162737833Y-115963476D01*
X162704500Y-116115857D01*
X162671167Y-116192048D01*
X162637833Y-116230143D01*
X162571167Y-116268238D01*
X162504500Y-116268238D01*
X162437833Y-116230143D01*
X162404500Y-116192048D01*
X162371167Y-116115857D01*
X162371167Y-115925381D01*
X162404500Y-115811095D01*
X163071167Y-115468238D02*
X162371167Y-115468238D01*
X162371167Y-115277762D01*
X162404500Y-115163476D01*
X162471167Y-115087285D01*
X162537833Y-115049190D01*
X162671167Y-115011095D01*
X162771167Y-115011095D01*
X162904500Y-115049190D01*
X162971167Y-115087285D01*
X163037833Y-115163476D01*
X163071167Y-115277762D01*
X163071167Y-115468238D01*
X162871167Y-114706333D02*
X162871167Y-114325381D01*
X163071167Y-114782524D02*
X162371167Y-114515857D01*
X163071167Y-114249190D01*
X164262833Y-116230143D02*
X164296167Y-116115857D01*
X164296167Y-115925381D01*
X164262833Y-115849191D01*
X164229500Y-115811095D01*
X164162833Y-115773000D01*
X164096167Y-115773000D01*
X164029500Y-115811095D01*
X163996167Y-115849191D01*
X163962833Y-115925381D01*
X163929500Y-116077762D01*
X163896167Y-116153953D01*
X163862833Y-116192048D01*
X163796167Y-116230143D01*
X163729500Y-116230143D01*
X163662833Y-116192048D01*
X163629500Y-116153953D01*
X163596167Y-116077762D01*
X163596167Y-115887286D01*
X163629500Y-115773000D01*
X164229500Y-114973000D02*
X164262833Y-115011095D01*
X164296167Y-115125381D01*
X164296167Y-115201571D01*
X164262833Y-115315857D01*
X164196167Y-115392048D01*
X164129500Y-115430143D01*
X163996167Y-115468238D01*
X163896167Y-115468238D01*
X163762833Y-115430143D01*
X163696167Y-115392048D01*
X163629500Y-115315857D01*
X163596167Y-115201571D01*
X163596167Y-115125381D01*
X163629500Y-115011095D01*
X163662833Y-114973000D01*
X164296167Y-114249190D02*
X164296167Y-114630143D01*
X163596167Y-114630143D01*
X164821167Y-116382524D02*
X165521167Y-116115857D01*
X164821167Y-115849190D01*
X165454500Y-115125381D02*
X165487833Y-115163476D01*
X165521167Y-115277762D01*
X165521167Y-115353952D01*
X165487833Y-115468238D01*
X165421167Y-115544429D01*
X165354500Y-115582524D01*
X165221167Y-115620619D01*
X165121167Y-115620619D01*
X164987833Y-115582524D01*
X164921167Y-115544429D01*
X164854500Y-115468238D01*
X164821167Y-115353952D01*
X164821167Y-115277762D01*
X164854500Y-115163476D01*
X164887833Y-115125381D01*
X165454500Y-114325381D02*
X165487833Y-114363476D01*
X165521167Y-114477762D01*
X165521167Y-114553952D01*
X165487833Y-114668238D01*
X165421167Y-114744429D01*
X165354500Y-114782524D01*
X165221167Y-114820619D01*
X165121167Y-114820619D01*
X164987833Y-114782524D01*
X164921167Y-114744429D01*
X164854500Y-114668238D01*
X164821167Y-114553952D01*
X164821167Y-114477762D01*
X164854500Y-114363476D01*
X164887833Y-114325381D01*
X166079500Y-116001571D02*
X166046167Y-116077762D01*
X166046167Y-116192047D01*
X166079500Y-116306333D01*
X166146167Y-116382524D01*
X166212833Y-116420619D01*
X166346167Y-116458714D01*
X166446167Y-116458714D01*
X166579500Y-116420619D01*
X166646167Y-116382524D01*
X166712833Y-116306333D01*
X166746167Y-116192047D01*
X166746167Y-116115857D01*
X166712833Y-116001571D01*
X166679500Y-115963476D01*
X166446167Y-115963476D01*
X166446167Y-116115857D01*
X166746167Y-115620619D02*
X166046167Y-115620619D01*
X166746167Y-115163476D01*
X166046167Y-115163476D01*
X166746167Y-114782524D02*
X166046167Y-114782524D01*
X166046167Y-114592048D01*
X166079500Y-114477762D01*
X166146167Y-114401571D01*
X166212833Y-114363476D01*
X166346167Y-114325381D01*
X166446167Y-114325381D01*
X166579500Y-114363476D01*
X166646167Y-114401571D01*
X166712833Y-114477762D01*
X166746167Y-114592048D01*
X166746167Y-114782524D01*
X140958667Y-111848524D02*
X140258667Y-111848524D01*
X140258667Y-111543762D01*
X140292000Y-111467571D01*
X140325333Y-111429476D01*
X140392000Y-111391381D01*
X140492000Y-111391381D01*
X140558667Y-111429476D01*
X140592000Y-111467571D01*
X140625333Y-111543762D01*
X140625333Y-111848524D01*
X140925333Y-111086619D02*
X140958667Y-110972333D01*
X140958667Y-110781857D01*
X140925333Y-110705667D01*
X140892000Y-110667571D01*
X140825333Y-110629476D01*
X140758667Y-110629476D01*
X140692000Y-110667571D01*
X140658667Y-110705667D01*
X140625333Y-110781857D01*
X140592000Y-110934238D01*
X140558667Y-111010429D01*
X140525333Y-111048524D01*
X140458667Y-111086619D01*
X140392000Y-111086619D01*
X140325333Y-111048524D01*
X140292000Y-111010429D01*
X140258667Y-110934238D01*
X140258667Y-110743762D01*
X140292000Y-110629476D01*
X140958667Y-110286619D02*
X140258667Y-110286619D01*
X140592000Y-110286619D02*
X140592000Y-109829476D01*
X140958667Y-109829476D02*
X140258667Y-109829476D01*
X140958667Y-108991381D02*
X140625333Y-109258048D01*
X140958667Y-109448524D02*
X140258667Y-109448524D01*
X140258667Y-109143762D01*
X140292000Y-109067571D01*
X140325333Y-109029476D01*
X140392000Y-108991381D01*
X140492000Y-108991381D01*
X140558667Y-109029476D01*
X140592000Y-109067571D01*
X140625333Y-109143762D01*
X140625333Y-109448524D01*
X143408667Y-110400905D02*
X143075333Y-110667572D01*
X143408667Y-110858048D02*
X142708667Y-110858048D01*
X142708667Y-110553286D01*
X142742000Y-110477095D01*
X142775333Y-110439000D01*
X142842000Y-110400905D01*
X142942000Y-110400905D01*
X143008667Y-110439000D01*
X143042000Y-110477095D01*
X143075333Y-110553286D01*
X143075333Y-110858048D01*
X143042000Y-110058048D02*
X143042000Y-109791381D01*
X143408667Y-109677095D02*
X143408667Y-110058048D01*
X142708667Y-110058048D01*
X142708667Y-109677095D01*
X142708667Y-109448524D02*
X143408667Y-109181857D01*
X142708667Y-108915190D01*
X145492000Y-110629476D02*
X145525333Y-110515190D01*
X145558667Y-110477095D01*
X145625333Y-110439000D01*
X145725333Y-110439000D01*
X145792000Y-110477095D01*
X145825333Y-110515190D01*
X145858667Y-110591381D01*
X145858667Y-110896143D01*
X145158667Y-110896143D01*
X145158667Y-110629476D01*
X145192000Y-110553286D01*
X145225333Y-110515190D01*
X145292000Y-110477095D01*
X145358667Y-110477095D01*
X145425333Y-110515190D01*
X145458667Y-110553286D01*
X145492000Y-110629476D01*
X145492000Y-110896143D01*
X145158667Y-110210429D02*
X145158667Y-109753286D01*
X145858667Y-109981857D02*
X145158667Y-109981857D01*
X145858667Y-109486619D02*
X145158667Y-109486619D01*
X145858667Y-109029476D01*
X145158667Y-109029476D01*
X147608667Y-111353286D02*
X147608667Y-110896143D01*
X148308667Y-111124714D02*
X147608667Y-111124714D01*
X148308667Y-110172333D02*
X147975333Y-110439000D01*
X148308667Y-110629476D02*
X147608667Y-110629476D01*
X147608667Y-110324714D01*
X147642000Y-110248523D01*
X147675333Y-110210428D01*
X147742000Y-110172333D01*
X147842000Y-110172333D01*
X147908667Y-110210428D01*
X147942000Y-110248523D01*
X147975333Y-110324714D01*
X147975333Y-110629476D01*
X148308667Y-109829476D02*
X147608667Y-109829476D01*
X147642000Y-109029476D02*
X147608667Y-109105667D01*
X147608667Y-109219952D01*
X147642000Y-109334238D01*
X147708667Y-109410429D01*
X147775333Y-109448524D01*
X147908667Y-109486619D01*
X148008667Y-109486619D01*
X148142000Y-109448524D01*
X148208667Y-109410429D01*
X148275333Y-109334238D01*
X148308667Y-109219952D01*
X148308667Y-109143762D01*
X148275333Y-109029476D01*
X148242000Y-108991381D01*
X148008667Y-108991381D01*
X148008667Y-109143762D01*
X150692000Y-110819952D02*
X150725333Y-110858047D01*
X150758667Y-110972333D01*
X150758667Y-111048523D01*
X150725333Y-111162809D01*
X150658667Y-111239000D01*
X150592000Y-111277095D01*
X150458667Y-111315190D01*
X150358667Y-111315190D01*
X150225333Y-111277095D01*
X150158667Y-111239000D01*
X150092000Y-111162809D01*
X150058667Y-111048523D01*
X150058667Y-110972333D01*
X150092000Y-110858047D01*
X150125333Y-110819952D01*
X150758667Y-110096142D02*
X150758667Y-110477095D01*
X150058667Y-110477095D01*
X150758667Y-109829476D02*
X150058667Y-109829476D01*
X150758667Y-109448524D02*
X150058667Y-109448524D01*
X150058667Y-109143762D01*
X150092000Y-109067571D01*
X150125333Y-109029476D01*
X150192000Y-108991381D01*
X150292000Y-108991381D01*
X150358667Y-109029476D01*
X150392000Y-109067571D01*
X150425333Y-109143762D01*
X150425333Y-109448524D01*
D12*
X154559048Y-108910429D02*
X155320953Y-108910429D01*
X154940001Y-109291381D02*
X154940001Y-108529476D01*
D13*
X144018000Y-64135000D02*
X144653000Y-64770000D01*
D12*
X209677048Y-97226429D02*
X210438953Y-97226429D01*
X210058001Y-97607381D02*
X210058001Y-96845476D01*
D14*
X141931357Y-121066667D02*
X143121834Y-121066667D01*
X141603976Y-121780952D02*
X142749810Y-119280952D01*
X143270643Y-121780952D01*
X144103976Y-121780952D02*
X144312309Y-120114286D01*
X144252786Y-120590476D02*
X144401595Y-120352381D01*
X144535523Y-120233333D01*
X144788500Y-120114286D01*
X145026595Y-120114286D01*
X146723024Y-121780952D02*
X147035524Y-119280952D01*
X146737905Y-121661905D02*
X146484928Y-121780952D01*
X146008738Y-121780952D01*
X145785524Y-121661905D01*
X145681357Y-121542857D01*
X145592071Y-121304762D01*
X145681357Y-120590476D01*
X145830166Y-120352381D01*
X145964095Y-120233333D01*
X146217071Y-120114286D01*
X146693261Y-120114286D01*
X146916476Y-120233333D01*
X149193262Y-120114286D02*
X148984929Y-121780952D01*
X148121833Y-120114286D02*
X147958143Y-121423810D01*
X148047429Y-121661905D01*
X148270643Y-121780952D01*
X148627786Y-121780952D01*
X148880762Y-121661905D01*
X149014691Y-121542857D01*
X150071238Y-121661905D02*
X150413500Y-121780952D01*
X151008738Y-121780952D01*
X151261715Y-121661905D01*
X151395643Y-121542857D01*
X151544453Y-121304762D01*
X151574215Y-121066667D01*
X151484929Y-120828571D01*
X151380763Y-120709524D01*
X151157548Y-120590476D01*
X150696238Y-120471429D01*
X150473024Y-120352381D01*
X150368857Y-120233333D01*
X150279571Y-119995238D01*
X150309333Y-119757143D01*
X150458143Y-119519048D01*
X150592072Y-119400000D01*
X150845048Y-119280952D01*
X151440286Y-119280952D01*
X151782548Y-119400000D01*
X152407547Y-120114286D02*
X153359928Y-120114286D01*
X152868857Y-119280952D02*
X152601000Y-121423810D01*
X152690286Y-121661905D01*
X152913500Y-121780952D01*
X153151595Y-121780952D01*
X153984928Y-121780952D02*
X154193261Y-120114286D01*
X154133738Y-120590476D02*
X154282547Y-120352381D01*
X154416475Y-120233333D01*
X154669452Y-120114286D01*
X154907547Y-120114286D01*
X155532547Y-121780952D02*
X155740880Y-120114286D01*
X155845047Y-119280952D02*
X155711118Y-119400000D01*
X155815285Y-119519048D01*
X155949214Y-119400000D01*
X155845047Y-119280952D01*
X155815285Y-119519048D01*
X156723023Y-121780952D02*
X157035523Y-119280952D01*
X157080166Y-120828571D02*
X157675404Y-121780952D01*
X157883737Y-120114286D02*
X156812309Y-121066667D01*
X159714095Y-121661905D02*
X159461119Y-121780952D01*
X158984928Y-121780952D01*
X158761714Y-121661905D01*
X158672428Y-121423810D01*
X158791475Y-120471429D01*
X158940285Y-120233333D01*
X159193261Y-120114286D01*
X159669452Y-120114286D01*
X159892666Y-120233333D01*
X159981952Y-120471429D01*
X159952191Y-120709524D01*
X158731952Y-120947619D01*
D15*
X183388000Y-117475000D02*
X173228000Y-117475000D01*
X183388000Y-118745000D02*
X183388000Y-111125000D01*
X183388000Y-111125000D02*
X173228000Y-111125000D01*
X173228000Y-111125000D02*
X173228000Y-118745000D01*
X173228000Y-118745000D02*
X183388000Y-118745000D01*
D16*
G36*
X190604794Y-117605769D02*
X190796582Y-117609793D01*
X191579891Y-117628649D01*
X192149870Y-117650238D01*
X192548446Y-117680345D01*
X192817548Y-117724755D01*
X192999103Y-117789255D01*
X193135039Y-117879629D01*
X193205225Y-117942155D01*
X193524033Y-118146981D01*
X193846090Y-118229341D01*
X194120811Y-118266486D01*
X194248566Y-118338122D01*
X194400317Y-118401646D01*
X194736571Y-118466668D01*
X195186989Y-118519853D01*
X195224379Y-118523074D01*
X195702614Y-118581625D01*
X196093228Y-118662837D01*
X196313827Y-118749448D01*
X196317074Y-118752046D01*
X196538610Y-118831218D01*
X196963369Y-118857611D01*
X197614456Y-118832720D01*
X198251358Y-118801301D01*
X198675910Y-118828336D01*
X198929942Y-118948623D01*
X199055281Y-119196965D01*
X199093757Y-119608160D01*
X199090448Y-120060705D01*
X199071670Y-120581243D01*
X199026798Y-120922318D01*
X198934910Y-121159689D01*
X198775087Y-121369118D01*
X198709924Y-121438701D01*
X198379912Y-121686310D01*
X198040861Y-121793298D01*
X197757013Y-121758070D01*
X197592614Y-121579034D01*
X197574692Y-121466856D01*
X197484432Y-121122303D01*
X197269707Y-120883475D01*
X196997651Y-120821821D01*
X196973641Y-120827143D01*
X196739964Y-120791967D01*
X196665965Y-120676469D01*
X196570540Y-120463010D01*
X196876804Y-120463010D01*
X196940623Y-120526829D01*
X197004442Y-120463010D01*
X196940623Y-120399191D01*
X196876804Y-120463010D01*
X196570540Y-120463010D01*
X196448278Y-120189520D01*
X196330707Y-120058822D01*
X196536435Y-120058822D01*
X196553956Y-120134703D01*
X196621527Y-120143914D01*
X196726588Y-120097213D01*
X196706619Y-120058822D01*
X196555143Y-120043546D01*
X196536435Y-120058822D01*
X196330707Y-120058822D01*
X196178243Y-119889337D01*
X196175982Y-119888638D01*
X197119089Y-119888638D01*
X197469260Y-120347736D01*
X197690867Y-120620023D01*
X197826530Y-120709722D01*
X197935397Y-120644283D01*
X197981363Y-120585381D01*
X198073914Y-120299002D01*
X198016111Y-120126282D01*
X197774507Y-119931513D01*
X197504008Y-119888638D01*
X197119089Y-119888638D01*
X196175982Y-119888638D01*
X195886531Y-119799187D01*
X195646644Y-119903242D01*
X195448515Y-119976108D01*
X195071775Y-120047065D01*
X194592806Y-120102207D01*
X194523168Y-120107781D01*
X193953546Y-120177442D01*
X193627111Y-120288158D01*
X193533643Y-120450131D01*
X193662925Y-120673563D01*
X193813487Y-120816309D01*
X193970343Y-121048508D01*
X194044973Y-121356379D01*
X194043458Y-121670553D01*
X193971878Y-121921665D01*
X193836315Y-122040347D01*
X193708939Y-122008938D01*
X193534902Y-122020843D01*
X193483490Y-122076126D01*
X193465264Y-122164500D01*
X193558211Y-122122306D01*
X193665270Y-122088837D01*
X193634218Y-122166404D01*
X193440519Y-122295056D01*
X193320929Y-122313763D01*
X193049048Y-122388586D01*
X192959954Y-122452523D01*
X192800894Y-122505712D01*
X192685745Y-122350577D01*
X192639262Y-122033354D01*
X192643657Y-121922538D01*
X193334229Y-121922538D01*
X193351688Y-121930849D01*
X193468169Y-121840994D01*
X193494392Y-121803211D01*
X193526917Y-121683883D01*
X193509457Y-121675572D01*
X193392977Y-121765427D01*
X193366753Y-121803211D01*
X193334229Y-121922538D01*
X192643657Y-121922538D01*
X192645899Y-121866041D01*
X192579908Y-121458815D01*
X192384831Y-121210853D01*
X192104686Y-121015040D01*
X191846800Y-120902211D01*
X192281829Y-120902211D01*
X192374483Y-121032187D01*
X192409467Y-121037382D01*
X192533787Y-120993833D01*
X192537105Y-120981095D01*
X192447665Y-120872122D01*
X192409467Y-120845924D01*
X192291851Y-120856044D01*
X192281829Y-120902211D01*
X191846800Y-120902211D01*
X191795932Y-120879956D01*
X191534197Y-120828067D01*
X191395109Y-120881837D01*
X191388362Y-120914844D01*
X191474103Y-120993306D01*
X191547909Y-120971630D01*
X191591966Y-120972759D01*
X191484090Y-121073897D01*
X191379394Y-121200404D01*
X191312605Y-121407076D01*
X191275995Y-121745030D01*
X191261835Y-122265377D01*
X191260723Y-122551201D01*
X191260723Y-123845422D01*
X189218512Y-123845422D01*
X189218512Y-122973143D01*
X189346150Y-122973143D01*
X189425155Y-123036613D01*
X189473789Y-123015773D01*
X189591593Y-123021608D01*
X189601427Y-123064527D01*
X189507633Y-123242674D01*
X189460162Y-123279472D01*
X189377651Y-123389623D01*
X189526885Y-123462738D01*
X189886364Y-123493921D01*
X190354342Y-123483080D01*
X190762121Y-123443098D01*
X191044030Y-123382320D01*
X191133085Y-123323532D01*
X191017665Y-123259838D01*
X190719932Y-123217594D01*
X190431075Y-123207231D01*
X189974405Y-123179417D01*
X189761987Y-123112641D01*
X189790939Y-123031897D01*
X190058378Y-122962183D01*
X190462985Y-122930497D01*
X191196904Y-122909040D01*
X190431075Y-122833370D01*
X189879185Y-122792926D01*
X189540138Y-122807373D01*
X189376457Y-122881540D01*
X189346150Y-122973143D01*
X189218512Y-122973143D01*
X189218512Y-122537130D01*
X189345863Y-122537130D01*
X189462307Y-122578730D01*
X189769077Y-122598356D01*
X190201869Y-122592168D01*
X190239330Y-122590475D01*
X190679812Y-122554268D01*
X190999014Y-122498816D01*
X191132375Y-122435645D01*
X191133085Y-122430928D01*
X191017666Y-122366761D01*
X190719936Y-122324204D01*
X190431075Y-122313763D01*
X189978790Y-122284775D01*
X189763258Y-122215653D01*
X189787573Y-122133168D01*
X190054831Y-122064086D01*
X190399166Y-122037682D01*
X191069266Y-122016878D01*
X190367256Y-121939863D01*
X189830157Y-121898029D01*
X189506736Y-121919537D01*
X189362206Y-122009150D01*
X189346150Y-122079676D01*
X189425155Y-122143145D01*
X189473789Y-122122306D01*
X189583060Y-122151242D01*
X189601427Y-122242412D01*
X189534787Y-122417048D01*
X189473789Y-122441402D01*
X189349416Y-122514933D01*
X189345863Y-122537130D01*
X189218512Y-122537130D01*
X189218512Y-122485438D01*
X189217034Y-121885339D01*
X189209537Y-121602992D01*
X189355434Y-121602992D01*
X189407460Y-121673128D01*
X189695583Y-121705721D01*
X190211258Y-121698313D01*
X190240365Y-121696968D01*
X190674991Y-121660865D01*
X190968142Y-121605827D01*
X191065090Y-121542470D01*
X191062768Y-121537420D01*
X190901959Y-121471015D01*
X190578154Y-121431804D01*
X190182424Y-121422173D01*
X189805840Y-121444504D01*
X189548047Y-121497771D01*
X189355434Y-121602992D01*
X189209537Y-121602992D01*
X189206885Y-121503145D01*
X189179494Y-121301486D01*
X189126292Y-121242990D01*
X189038707Y-121290286D01*
X188960220Y-121359206D01*
X188708103Y-121499812D01*
X188529632Y-121396750D01*
X188431454Y-121101402D01*
X188387744Y-120983482D01*
X188281610Y-120898463D01*
X188076896Y-120841150D01*
X187737449Y-120806350D01*
X187227113Y-120788866D01*
X186509734Y-120783505D01*
X186219015Y-120783513D01*
X185471618Y-120758822D01*
X185215042Y-120718286D01*
X189856703Y-120718286D01*
X189920522Y-120782105D01*
X189984341Y-120718286D01*
X190111980Y-120718286D01*
X190175799Y-120782105D01*
X190239618Y-120718286D01*
X190175799Y-120654467D01*
X190111980Y-120718286D01*
X189984341Y-120718286D01*
X189920522Y-120654467D01*
X189856703Y-120718286D01*
X185215042Y-120718286D01*
X184944851Y-120675599D01*
X184883610Y-120647795D01*
X190435199Y-120647795D01*
X190479050Y-120710875D01*
X190659805Y-120711352D01*
X190869783Y-120659727D01*
X190980171Y-120594651D01*
X190930716Y-120541448D01*
X190778976Y-120526829D01*
X190527893Y-120578032D01*
X190435199Y-120647795D01*
X184883610Y-120647795D01*
X184608543Y-120522914D01*
X184432525Y-120289840D01*
X184392947Y-120122045D01*
X184326984Y-119963943D01*
X184614813Y-119963943D01*
X184655735Y-120221529D01*
X184785105Y-120402296D01*
X184846904Y-120427493D01*
X185068954Y-120431472D01*
X185134090Y-120399633D01*
X185284426Y-120362222D01*
X185619135Y-120334800D01*
X186067350Y-120323040D01*
X186091377Y-120322965D01*
X186551033Y-120340139D01*
X186908318Y-120386945D01*
X187088159Y-120453390D01*
X187090290Y-120455913D01*
X187158061Y-120493646D01*
X187143835Y-120399191D01*
X187070416Y-120317381D01*
X191696384Y-120317381D01*
X191706900Y-120398289D01*
X191890534Y-120521502D01*
X191895772Y-120518518D01*
X192440761Y-120518518D01*
X192458221Y-120526829D01*
X192574701Y-120436974D01*
X192600924Y-120399191D01*
X192633449Y-120279863D01*
X192615990Y-120271552D01*
X192499509Y-120361407D01*
X192473286Y-120399191D01*
X192440761Y-120518518D01*
X191895772Y-120518518D01*
X192080568Y-120413263D01*
X192095620Y-120390699D01*
X192124437Y-120211811D01*
X192112633Y-120207733D01*
X192281829Y-120207733D01*
X192345648Y-120271552D01*
X192409467Y-120207733D01*
X192345648Y-120143914D01*
X192281829Y-120207733D01*
X192112633Y-120207733D01*
X191966894Y-120157385D01*
X191832510Y-120191064D01*
X191696384Y-120317381D01*
X187070416Y-120317381D01*
X187051471Y-120296272D01*
X186812885Y-120228214D01*
X186385562Y-120186139D01*
X186049194Y-120170662D01*
X185532555Y-120146424D01*
X185220761Y-120109663D01*
X185063384Y-120046492D01*
X185009996Y-119943021D01*
X185006452Y-119883476D01*
X184925376Y-119679423D01*
X184814995Y-119633361D01*
X184666510Y-119733300D01*
X184614813Y-119963943D01*
X184326984Y-119963943D01*
X184269476Y-119826109D01*
X184105761Y-119722127D01*
X183914990Y-119561631D01*
X183896493Y-119489788D01*
X185167255Y-119489788D01*
X185260756Y-119428613D01*
X185277567Y-119412122D01*
X185353535Y-119286022D01*
X187565112Y-119286022D01*
X187644308Y-119420631D01*
X187809003Y-119510195D01*
X187857711Y-119467778D01*
X188277101Y-119467778D01*
X188452683Y-119485570D01*
X188546295Y-119475207D01*
X188890957Y-119475207D01*
X189016418Y-119495647D01*
X189181967Y-119472179D01*
X189183944Y-119428608D01*
X189013114Y-119398139D01*
X188939304Y-119418532D01*
X188890957Y-119475207D01*
X188546295Y-119475207D01*
X188633882Y-119465511D01*
X188612231Y-119421191D01*
X188350911Y-119404333D01*
X188293135Y-119421191D01*
X188277101Y-119467778D01*
X187857711Y-119467778D01*
X187882050Y-119446583D01*
X187824793Y-119326678D01*
X187744116Y-119161446D01*
X187836970Y-119084863D01*
X188277101Y-119084863D01*
X188452683Y-119102655D01*
X188546290Y-119092293D01*
X188890957Y-119092293D01*
X189016418Y-119112732D01*
X189181967Y-119089265D01*
X189183944Y-119045694D01*
X189013114Y-119015224D01*
X188939304Y-119035617D01*
X188890957Y-119092293D01*
X188546290Y-119092293D01*
X188633882Y-119082597D01*
X188612231Y-119038276D01*
X188350911Y-119021418D01*
X188293135Y-119038276D01*
X188277101Y-119084863D01*
X187836970Y-119084863D01*
X187841074Y-119081479D01*
X187897391Y-119024173D01*
X187782583Y-119005247D01*
X187597737Y-119089073D01*
X187565112Y-119286022D01*
X185353535Y-119286022D01*
X185378386Y-119244773D01*
X185365467Y-119186628D01*
X186027558Y-119186628D01*
X186091377Y-119250447D01*
X186155196Y-119186628D01*
X186921025Y-119186628D01*
X186984844Y-119250447D01*
X187048663Y-119186628D01*
X186984844Y-119122809D01*
X186921025Y-119186628D01*
X186155196Y-119186628D01*
X186091377Y-119122809D01*
X186027558Y-119186628D01*
X185365467Y-119186628D01*
X185364716Y-119183250D01*
X185269770Y-119221554D01*
X185206116Y-119340671D01*
X185167255Y-119489788D01*
X183896493Y-119489788D01*
X183843127Y-119282518D01*
X183890111Y-118992031D01*
X183893402Y-118988167D01*
X183985346Y-118988167D01*
X184097948Y-119049933D01*
X184381435Y-119063500D01*
X184527809Y-119052908D01*
X184964645Y-119016881D01*
X185356771Y-118998687D01*
X185421276Y-118998119D01*
X185676010Y-118968223D01*
X185771995Y-118901469D01*
X185890235Y-118863906D01*
X186208800Y-118841758D01*
X186673067Y-118837500D01*
X187015311Y-118845103D01*
X187530535Y-118853756D01*
X187921838Y-118843884D01*
X188139940Y-118817735D01*
X188165105Y-118792684D01*
X187995014Y-118742981D01*
X187620423Y-118697821D01*
X187092103Y-118660383D01*
X186706316Y-118644165D01*
X188867114Y-118644165D01*
X189030307Y-118742806D01*
X189440056Y-118810725D01*
X189923835Y-118841441D01*
X190434067Y-118866634D01*
X190766953Y-118913551D01*
X191000355Y-119009649D01*
X191212138Y-119182385D01*
X191381430Y-119355422D01*
X191624254Y-119598377D01*
X191829917Y-119740157D01*
X192078701Y-119807663D01*
X192450888Y-119827800D01*
X192792382Y-119828247D01*
X193749668Y-119824819D01*
X193601298Y-119674927D01*
X196098082Y-119674927D01*
X196325638Y-119746054D01*
X196366251Y-119753336D01*
X196798980Y-119783822D01*
X197289688Y-119756922D01*
X197731003Y-119683620D01*
X197998305Y-119586379D01*
X198141350Y-119384376D01*
X198153186Y-119306733D01*
X198264374Y-119160851D01*
X198472281Y-119122809D01*
X198712059Y-119073580D01*
X198791377Y-118978857D01*
X198679001Y-118893315D01*
X198338048Y-118907986D01*
X198272724Y-118917842D01*
X197843146Y-118979057D01*
X197309735Y-119045217D01*
X196996342Y-119079976D01*
X196539643Y-119150071D01*
X196295433Y-119233033D01*
X196274197Y-119313293D01*
X196486421Y-119375287D01*
X196781075Y-119399541D01*
X197323537Y-119420998D01*
X196812985Y-119467827D01*
X196354141Y-119527898D01*
X196111711Y-119599570D01*
X196098082Y-119674927D01*
X193601298Y-119674927D01*
X192473286Y-118535345D01*
X191624216Y-118541891D01*
X191206997Y-118558123D01*
X190923315Y-118594466D01*
X190833419Y-118643123D01*
X190834010Y-118644165D01*
X190752552Y-118696182D01*
X190480819Y-118730949D01*
X190190864Y-118739894D01*
X189788933Y-118718404D01*
X189499816Y-118663094D01*
X189409970Y-118612256D01*
X189314337Y-118548437D01*
X190111980Y-118548437D01*
X190175799Y-118612256D01*
X190239618Y-118548437D01*
X190367256Y-118548437D01*
X190431075Y-118612256D01*
X190494894Y-118548437D01*
X190431075Y-118484618D01*
X190367256Y-118548437D01*
X190239618Y-118548437D01*
X190175799Y-118484618D01*
X190111980Y-118548437D01*
X189314337Y-118548437D01*
X189251305Y-118506374D01*
X189038433Y-118489652D01*
X188883009Y-118555528D01*
X188867114Y-118644165D01*
X186706316Y-118644165D01*
X186460827Y-118633845D01*
X185777367Y-118621385D01*
X185429391Y-118621445D01*
X184767405Y-118626007D01*
X184716928Y-118140488D01*
X184686368Y-117872579D01*
X184667902Y-117827833D01*
X184654258Y-118018462D01*
X184644994Y-118261251D01*
X184619452Y-118628522D01*
X184552106Y-118807216D01*
X184405512Y-118863995D01*
X184304442Y-118867532D01*
X184064533Y-118908843D01*
X183985346Y-118988167D01*
X183893402Y-118988167D01*
X184055883Y-118797413D01*
X184106288Y-118778628D01*
X184282624Y-118658835D01*
X184372980Y-118377721D01*
X184393473Y-118184296D01*
X184441845Y-117839198D01*
X184543356Y-117684604D01*
X184687357Y-117654969D01*
X184878686Y-117721739D01*
X184969353Y-117962295D01*
X184982629Y-118069794D01*
X185088854Y-118389378D01*
X185324385Y-118489031D01*
X185530892Y-118420799D01*
X186410472Y-118420799D01*
X186474291Y-118484618D01*
X186538110Y-118420799D01*
X186665748Y-118420799D01*
X186729568Y-118484618D01*
X186793387Y-118420799D01*
X187176301Y-118420799D01*
X187240120Y-118484618D01*
X187303939Y-118420799D01*
X187282666Y-118399526D01*
X187601762Y-118399526D01*
X187619283Y-118475406D01*
X187686854Y-118484618D01*
X187791915Y-118437917D01*
X187771946Y-118399526D01*
X187620469Y-118384250D01*
X187601762Y-118399526D01*
X187282666Y-118399526D01*
X187240120Y-118356980D01*
X187176301Y-118420799D01*
X186793387Y-118420799D01*
X186729568Y-118356980D01*
X186665748Y-118420799D01*
X186538110Y-118420799D01*
X186474291Y-118356980D01*
X186410472Y-118420799D01*
X185530892Y-118420799D01*
X185688746Y-118368643D01*
X185856218Y-118268242D01*
X186010037Y-118204574D01*
X189175770Y-118204574D01*
X189299619Y-118384809D01*
X189466366Y-118483643D01*
X189481884Y-118484618D01*
X189639052Y-118392616D01*
X189665246Y-118356980D01*
X189815921Y-118293160D01*
X193175296Y-118293160D01*
X193239115Y-118356980D01*
X193302934Y-118293160D01*
X193239115Y-118229341D01*
X193175296Y-118293160D01*
X189815921Y-118293160D01*
X189825778Y-118288985D01*
X190161821Y-118242685D01*
X190509960Y-118229341D01*
X190946810Y-118210360D01*
X191175176Y-118156738D01*
X191180106Y-118144249D01*
X192707290Y-118144249D01*
X192724810Y-118220130D01*
X192792382Y-118229341D01*
X192897442Y-118182641D01*
X192877474Y-118144249D01*
X192725997Y-118128973D01*
X192707290Y-118144249D01*
X191180106Y-118144249D01*
X191196904Y-118101703D01*
X191041779Y-118043343D01*
X190710968Y-118001756D01*
X190283614Y-117978655D01*
X189838864Y-117975749D01*
X189455862Y-117994749D01*
X189213753Y-118037365D01*
X189177074Y-118058050D01*
X189175770Y-118204574D01*
X186010037Y-118204574D01*
X186180435Y-118134044D01*
X186674741Y-118059760D01*
X187185520Y-118038547D01*
X187752565Y-118015522D01*
X188126610Y-117956759D01*
X188173597Y-117936120D01*
X192489161Y-117936120D01*
X192664743Y-117953912D01*
X192845942Y-117933853D01*
X192824291Y-117889533D01*
X192562972Y-117872674D01*
X192505196Y-117889533D01*
X192489161Y-117936120D01*
X188173597Y-117936120D01*
X188368815Y-117850371D01*
X188439076Y-117794922D01*
X188557132Y-117709262D01*
X188718124Y-117649514D01*
X188962718Y-117612485D01*
X189331582Y-117594980D01*
X189865385Y-117593806D01*
X190604794Y-117605769D01*
X190604794Y-117605769D01*
G37*
X190604794Y-117605769D02*
X190796582Y-117609793D01*
X191579891Y-117628649D01*
X192149870Y-117650238D01*
X192548446Y-117680345D01*
X192817548Y-117724755D01*
X192999103Y-117789255D01*
X193135039Y-117879629D01*
X193205225Y-117942155D01*
X193524033Y-118146981D01*
X193846090Y-118229341D01*
X194120811Y-118266486D01*
X194248566Y-118338122D01*
X194400317Y-118401646D01*
X194736571Y-118466668D01*
X195186989Y-118519853D01*
X195224379Y-118523074D01*
X195702614Y-118581625D01*
X196093228Y-118662837D01*
X196313827Y-118749448D01*
X196317074Y-118752046D01*
X196538610Y-118831218D01*
X196963369Y-118857611D01*
X197614456Y-118832720D01*
X198251358Y-118801301D01*
X198675910Y-118828336D01*
X198929942Y-118948623D01*
X199055281Y-119196965D01*
X199093757Y-119608160D01*
X199090448Y-120060705D01*
X199071670Y-120581243D01*
X199026798Y-120922318D01*
X198934910Y-121159689D01*
X198775087Y-121369118D01*
X198709924Y-121438701D01*
X198379912Y-121686310D01*
X198040861Y-121793298D01*
X197757013Y-121758070D01*
X197592614Y-121579034D01*
X197574692Y-121466856D01*
X197484432Y-121122303D01*
X197269707Y-120883475D01*
X196997651Y-120821821D01*
X196973641Y-120827143D01*
X196739964Y-120791967D01*
X196665965Y-120676469D01*
X196570540Y-120463010D01*
X196876804Y-120463010D01*
X196940623Y-120526829D01*
X197004442Y-120463010D01*
X196940623Y-120399191D01*
X196876804Y-120463010D01*
X196570540Y-120463010D01*
X196448278Y-120189520D01*
X196330707Y-120058822D01*
X196536435Y-120058822D01*
X196553956Y-120134703D01*
X196621527Y-120143914D01*
X196726588Y-120097213D01*
X196706619Y-120058822D01*
X196555143Y-120043546D01*
X196536435Y-120058822D01*
X196330707Y-120058822D01*
X196178243Y-119889337D01*
X196175982Y-119888638D01*
X197119089Y-119888638D01*
X197469260Y-120347736D01*
X197690867Y-120620023D01*
X197826530Y-120709722D01*
X197935397Y-120644283D01*
X197981363Y-120585381D01*
X198073914Y-120299002D01*
X198016111Y-120126282D01*
X197774507Y-119931513D01*
X197504008Y-119888638D01*
X197119089Y-119888638D01*
X196175982Y-119888638D01*
X195886531Y-119799187D01*
X195646644Y-119903242D01*
X195448515Y-119976108D01*
X195071775Y-120047065D01*
X194592806Y-120102207D01*
X194523168Y-120107781D01*
X193953546Y-120177442D01*
X193627111Y-120288158D01*
X193533643Y-120450131D01*
X193662925Y-120673563D01*
X193813487Y-120816309D01*
X193970343Y-121048508D01*
X194044973Y-121356379D01*
X194043458Y-121670553D01*
X193971878Y-121921665D01*
X193836315Y-122040347D01*
X193708939Y-122008938D01*
X193534902Y-122020843D01*
X193483490Y-122076126D01*
X193465264Y-122164500D01*
X193558211Y-122122306D01*
X193665270Y-122088837D01*
X193634218Y-122166404D01*
X193440519Y-122295056D01*
X193320929Y-122313763D01*
X193049048Y-122388586D01*
X192959954Y-122452523D01*
X192800894Y-122505712D01*
X192685745Y-122350577D01*
X192639262Y-122033354D01*
X192643657Y-121922538D01*
X193334229Y-121922538D01*
X193351688Y-121930849D01*
X193468169Y-121840994D01*
X193494392Y-121803211D01*
X193526917Y-121683883D01*
X193509457Y-121675572D01*
X193392977Y-121765427D01*
X193366753Y-121803211D01*
X193334229Y-121922538D01*
X192643657Y-121922538D01*
X192645899Y-121866041D01*
X192579908Y-121458815D01*
X192384831Y-121210853D01*
X192104686Y-121015040D01*
X191846800Y-120902211D01*
X192281829Y-120902211D01*
X192374483Y-121032187D01*
X192409467Y-121037382D01*
X192533787Y-120993833D01*
X192537105Y-120981095D01*
X192447665Y-120872122D01*
X192409467Y-120845924D01*
X192291851Y-120856044D01*
X192281829Y-120902211D01*
X191846800Y-120902211D01*
X191795932Y-120879956D01*
X191534197Y-120828067D01*
X191395109Y-120881837D01*
X191388362Y-120914844D01*
X191474103Y-120993306D01*
X191547909Y-120971630D01*
X191591966Y-120972759D01*
X191484090Y-121073897D01*
X191379394Y-121200404D01*
X191312605Y-121407076D01*
X191275995Y-121745030D01*
X191261835Y-122265377D01*
X191260723Y-122551201D01*
X191260723Y-123845422D01*
X189218512Y-123845422D01*
X189218512Y-122973143D01*
X189346150Y-122973143D01*
X189425155Y-123036613D01*
X189473789Y-123015773D01*
X189591593Y-123021608D01*
X189601427Y-123064527D01*
X189507633Y-123242674D01*
X189460162Y-123279472D01*
X189377651Y-123389623D01*
X189526885Y-123462738D01*
X189886364Y-123493921D01*
X190354342Y-123483080D01*
X190762121Y-123443098D01*
X191044030Y-123382320D01*
X191133085Y-123323532D01*
X191017665Y-123259838D01*
X190719932Y-123217594D01*
X190431075Y-123207231D01*
X189974405Y-123179417D01*
X189761987Y-123112641D01*
X189790939Y-123031897D01*
X190058378Y-122962183D01*
X190462985Y-122930497D01*
X191196904Y-122909040D01*
X190431075Y-122833370D01*
X189879185Y-122792926D01*
X189540138Y-122807373D01*
X189376457Y-122881540D01*
X189346150Y-122973143D01*
X189218512Y-122973143D01*
X189218512Y-122537130D01*
X189345863Y-122537130D01*
X189462307Y-122578730D01*
X189769077Y-122598356D01*
X190201869Y-122592168D01*
X190239330Y-122590475D01*
X190679812Y-122554268D01*
X190999014Y-122498816D01*
X191132375Y-122435645D01*
X191133085Y-122430928D01*
X191017666Y-122366761D01*
X190719936Y-122324204D01*
X190431075Y-122313763D01*
X189978790Y-122284775D01*
X189763258Y-122215653D01*
X189787573Y-122133168D01*
X190054831Y-122064086D01*
X190399166Y-122037682D01*
X191069266Y-122016878D01*
X190367256Y-121939863D01*
X189830157Y-121898029D01*
X189506736Y-121919537D01*
X189362206Y-122009150D01*
X189346150Y-122079676D01*
X189425155Y-122143145D01*
X189473789Y-122122306D01*
X189583060Y-122151242D01*
X189601427Y-122242412D01*
X189534787Y-122417048D01*
X189473789Y-122441402D01*
X189349416Y-122514933D01*
X189345863Y-122537130D01*
X189218512Y-122537130D01*
X189218512Y-122485438D01*
X189217034Y-121885339D01*
X189209537Y-121602992D01*
X189355434Y-121602992D01*
X189407460Y-121673128D01*
X189695583Y-121705721D01*
X190211258Y-121698313D01*
X190240365Y-121696968D01*
X190674991Y-121660865D01*
X190968142Y-121605827D01*
X191065090Y-121542470D01*
X191062768Y-121537420D01*
X190901959Y-121471015D01*
X190578154Y-121431804D01*
X190182424Y-121422173D01*
X189805840Y-121444504D01*
X189548047Y-121497771D01*
X189355434Y-121602992D01*
X189209537Y-121602992D01*
X189206885Y-121503145D01*
X189179494Y-121301486D01*
X189126292Y-121242990D01*
X189038707Y-121290286D01*
X188960220Y-121359206D01*
X188708103Y-121499812D01*
X188529632Y-121396750D01*
X188431454Y-121101402D01*
X188387744Y-120983482D01*
X188281610Y-120898463D01*
X188076896Y-120841150D01*
X187737449Y-120806350D01*
X187227113Y-120788866D01*
X186509734Y-120783505D01*
X186219015Y-120783513D01*
X185471618Y-120758822D01*
X185215042Y-120718286D01*
X189856703Y-120718286D01*
X189920522Y-120782105D01*
X189984341Y-120718286D01*
X190111980Y-120718286D01*
X190175799Y-120782105D01*
X190239618Y-120718286D01*
X190175799Y-120654467D01*
X190111980Y-120718286D01*
X189984341Y-120718286D01*
X189920522Y-120654467D01*
X189856703Y-120718286D01*
X185215042Y-120718286D01*
X184944851Y-120675599D01*
X184883610Y-120647795D01*
X190435199Y-120647795D01*
X190479050Y-120710875D01*
X190659805Y-120711352D01*
X190869783Y-120659727D01*
X190980171Y-120594651D01*
X190930716Y-120541448D01*
X190778976Y-120526829D01*
X190527893Y-120578032D01*
X190435199Y-120647795D01*
X184883610Y-120647795D01*
X184608543Y-120522914D01*
X184432525Y-120289840D01*
X184392947Y-120122045D01*
X184326984Y-119963943D01*
X184614813Y-119963943D01*
X184655735Y-120221529D01*
X184785105Y-120402296D01*
X184846904Y-120427493D01*
X185068954Y-120431472D01*
X185134090Y-120399633D01*
X185284426Y-120362222D01*
X185619135Y-120334800D01*
X186067350Y-120323040D01*
X186091377Y-120322965D01*
X186551033Y-120340139D01*
X186908318Y-120386945D01*
X187088159Y-120453390D01*
X187090290Y-120455913D01*
X187158061Y-120493646D01*
X187143835Y-120399191D01*
X187070416Y-120317381D01*
X191696384Y-120317381D01*
X191706900Y-120398289D01*
X191890534Y-120521502D01*
X191895772Y-120518518D01*
X192440761Y-120518518D01*
X192458221Y-120526829D01*
X192574701Y-120436974D01*
X192600924Y-120399191D01*
X192633449Y-120279863D01*
X192615990Y-120271552D01*
X192499509Y-120361407D01*
X192473286Y-120399191D01*
X192440761Y-120518518D01*
X191895772Y-120518518D01*
X192080568Y-120413263D01*
X192095620Y-120390699D01*
X192124437Y-120211811D01*
X192112633Y-120207733D01*
X192281829Y-120207733D01*
X192345648Y-120271552D01*
X192409467Y-120207733D01*
X192345648Y-120143914D01*
X192281829Y-120207733D01*
X192112633Y-120207733D01*
X191966894Y-120157385D01*
X191832510Y-120191064D01*
X191696384Y-120317381D01*
X187070416Y-120317381D01*
X187051471Y-120296272D01*
X186812885Y-120228214D01*
X186385562Y-120186139D01*
X186049194Y-120170662D01*
X185532555Y-120146424D01*
X185220761Y-120109663D01*
X185063384Y-120046492D01*
X185009996Y-119943021D01*
X185006452Y-119883476D01*
X184925376Y-119679423D01*
X184814995Y-119633361D01*
X184666510Y-119733300D01*
X184614813Y-119963943D01*
X184326984Y-119963943D01*
X184269476Y-119826109D01*
X184105761Y-119722127D01*
X183914990Y-119561631D01*
X183896493Y-119489788D01*
X185167255Y-119489788D01*
X185260756Y-119428613D01*
X185277567Y-119412122D01*
X185353535Y-119286022D01*
X187565112Y-119286022D01*
X187644308Y-119420631D01*
X187809003Y-119510195D01*
X187857711Y-119467778D01*
X188277101Y-119467778D01*
X188452683Y-119485570D01*
X188546295Y-119475207D01*
X188890957Y-119475207D01*
X189016418Y-119495647D01*
X189181967Y-119472179D01*
X189183944Y-119428608D01*
X189013114Y-119398139D01*
X188939304Y-119418532D01*
X188890957Y-119475207D01*
X188546295Y-119475207D01*
X188633882Y-119465511D01*
X188612231Y-119421191D01*
X188350911Y-119404333D01*
X188293135Y-119421191D01*
X188277101Y-119467778D01*
X187857711Y-119467778D01*
X187882050Y-119446583D01*
X187824793Y-119326678D01*
X187744116Y-119161446D01*
X187836970Y-119084863D01*
X188277101Y-119084863D01*
X188452683Y-119102655D01*
X188546290Y-119092293D01*
X188890957Y-119092293D01*
X189016418Y-119112732D01*
X189181967Y-119089265D01*
X189183944Y-119045694D01*
X189013114Y-119015224D01*
X188939304Y-119035617D01*
X188890957Y-119092293D01*
X188546290Y-119092293D01*
X188633882Y-119082597D01*
X188612231Y-119038276D01*
X188350911Y-119021418D01*
X188293135Y-119038276D01*
X188277101Y-119084863D01*
X187836970Y-119084863D01*
X187841074Y-119081479D01*
X187897391Y-119024173D01*
X187782583Y-119005247D01*
X187597737Y-119089073D01*
X187565112Y-119286022D01*
X185353535Y-119286022D01*
X185378386Y-119244773D01*
X185365467Y-119186628D01*
X186027558Y-119186628D01*
X186091377Y-119250447D01*
X186155196Y-119186628D01*
X186921025Y-119186628D01*
X186984844Y-119250447D01*
X187048663Y-119186628D01*
X186984844Y-119122809D01*
X186921025Y-119186628D01*
X186155196Y-119186628D01*
X186091377Y-119122809D01*
X186027558Y-119186628D01*
X185365467Y-119186628D01*
X185364716Y-119183250D01*
X185269770Y-119221554D01*
X185206116Y-119340671D01*
X185167255Y-119489788D01*
X183896493Y-119489788D01*
X183843127Y-119282518D01*
X183890111Y-118992031D01*
X183893402Y-118988167D01*
X183985346Y-118988167D01*
X184097948Y-119049933D01*
X184381435Y-119063500D01*
X184527809Y-119052908D01*
X184964645Y-119016881D01*
X185356771Y-118998687D01*
X185421276Y-118998119D01*
X185676010Y-118968223D01*
X185771995Y-118901469D01*
X185890235Y-118863906D01*
X186208800Y-118841758D01*
X186673067Y-118837500D01*
X187015311Y-118845103D01*
X187530535Y-118853756D01*
X187921838Y-118843884D01*
X188139940Y-118817735D01*
X188165105Y-118792684D01*
X187995014Y-118742981D01*
X187620423Y-118697821D01*
X187092103Y-118660383D01*
X186706316Y-118644165D01*
X188867114Y-118644165D01*
X189030307Y-118742806D01*
X189440056Y-118810725D01*
X189923835Y-118841441D01*
X190434067Y-118866634D01*
X190766953Y-118913551D01*
X191000355Y-119009649D01*
X191212138Y-119182385D01*
X191381430Y-119355422D01*
X191624254Y-119598377D01*
X191829917Y-119740157D01*
X192078701Y-119807663D01*
X192450888Y-119827800D01*
X192792382Y-119828247D01*
X193749668Y-119824819D01*
X193601298Y-119674927D01*
X196098082Y-119674927D01*
X196325638Y-119746054D01*
X196366251Y-119753336D01*
X196798980Y-119783822D01*
X197289688Y-119756922D01*
X197731003Y-119683620D01*
X197998305Y-119586379D01*
X198141350Y-119384376D01*
X198153186Y-119306733D01*
X198264374Y-119160851D01*
X198472281Y-119122809D01*
X198712059Y-119073580D01*
X198791377Y-118978857D01*
X198679001Y-118893315D01*
X198338048Y-118907986D01*
X198272724Y-118917842D01*
X197843146Y-118979057D01*
X197309735Y-119045217D01*
X196996342Y-119079976D01*
X196539643Y-119150071D01*
X196295433Y-119233033D01*
X196274197Y-119313293D01*
X196486421Y-119375287D01*
X196781075Y-119399541D01*
X197323537Y-119420998D01*
X196812985Y-119467827D01*
X196354141Y-119527898D01*
X196111711Y-119599570D01*
X196098082Y-119674927D01*
X193601298Y-119674927D01*
X192473286Y-118535345D01*
X191624216Y-118541891D01*
X191206997Y-118558123D01*
X190923315Y-118594466D01*
X190833419Y-118643123D01*
X190834010Y-118644165D01*
X190752552Y-118696182D01*
X190480819Y-118730949D01*
X190190864Y-118739894D01*
X189788933Y-118718404D01*
X189499816Y-118663094D01*
X189409970Y-118612256D01*
X189314337Y-118548437D01*
X190111980Y-118548437D01*
X190175799Y-118612256D01*
X190239618Y-118548437D01*
X190367256Y-118548437D01*
X190431075Y-118612256D01*
X190494894Y-118548437D01*
X190431075Y-118484618D01*
X190367256Y-118548437D01*
X190239618Y-118548437D01*
X190175799Y-118484618D01*
X190111980Y-118548437D01*
X189314337Y-118548437D01*
X189251305Y-118506374D01*
X189038433Y-118489652D01*
X188883009Y-118555528D01*
X188867114Y-118644165D01*
X186706316Y-118644165D01*
X186460827Y-118633845D01*
X185777367Y-118621385D01*
X185429391Y-118621445D01*
X184767405Y-118626007D01*
X184716928Y-118140488D01*
X184686368Y-117872579D01*
X184667902Y-117827833D01*
X184654258Y-118018462D01*
X184644994Y-118261251D01*
X184619452Y-118628522D01*
X184552106Y-118807216D01*
X184405512Y-118863995D01*
X184304442Y-118867532D01*
X184064533Y-118908843D01*
X183985346Y-118988167D01*
X183893402Y-118988167D01*
X184055883Y-118797413D01*
X184106288Y-118778628D01*
X184282624Y-118658835D01*
X184372980Y-118377721D01*
X184393473Y-118184296D01*
X184441845Y-117839198D01*
X184543356Y-117684604D01*
X184687357Y-117654969D01*
X184878686Y-117721739D01*
X184969353Y-117962295D01*
X184982629Y-118069794D01*
X185088854Y-118389378D01*
X185324385Y-118489031D01*
X185530892Y-118420799D01*
X186410472Y-118420799D01*
X186474291Y-118484618D01*
X186538110Y-118420799D01*
X186665748Y-118420799D01*
X186729568Y-118484618D01*
X186793387Y-118420799D01*
X187176301Y-118420799D01*
X187240120Y-118484618D01*
X187303939Y-118420799D01*
X187282666Y-118399526D01*
X187601762Y-118399526D01*
X187619283Y-118475406D01*
X187686854Y-118484618D01*
X187791915Y-118437917D01*
X187771946Y-118399526D01*
X187620469Y-118384250D01*
X187601762Y-118399526D01*
X187282666Y-118399526D01*
X187240120Y-118356980D01*
X187176301Y-118420799D01*
X186793387Y-118420799D01*
X186729568Y-118356980D01*
X186665748Y-118420799D01*
X186538110Y-118420799D01*
X186474291Y-118356980D01*
X186410472Y-118420799D01*
X185530892Y-118420799D01*
X185688746Y-118368643D01*
X185856218Y-118268242D01*
X186010037Y-118204574D01*
X189175770Y-118204574D01*
X189299619Y-118384809D01*
X189466366Y-118483643D01*
X189481884Y-118484618D01*
X189639052Y-118392616D01*
X189665246Y-118356980D01*
X189815921Y-118293160D01*
X193175296Y-118293160D01*
X193239115Y-118356980D01*
X193302934Y-118293160D01*
X193239115Y-118229341D01*
X193175296Y-118293160D01*
X189815921Y-118293160D01*
X189825778Y-118288985D01*
X190161821Y-118242685D01*
X190509960Y-118229341D01*
X190946810Y-118210360D01*
X191175176Y-118156738D01*
X191180106Y-118144249D01*
X192707290Y-118144249D01*
X192724810Y-118220130D01*
X192792382Y-118229341D01*
X192897442Y-118182641D01*
X192877474Y-118144249D01*
X192725997Y-118128973D01*
X192707290Y-118144249D01*
X191180106Y-118144249D01*
X191196904Y-118101703D01*
X191041779Y-118043343D01*
X190710968Y-118001756D01*
X190283614Y-117978655D01*
X189838864Y-117975749D01*
X189455862Y-117994749D01*
X189213753Y-118037365D01*
X189177074Y-118058050D01*
X189175770Y-118204574D01*
X186010037Y-118204574D01*
X186180435Y-118134044D01*
X186674741Y-118059760D01*
X187185520Y-118038547D01*
X187752565Y-118015522D01*
X188126610Y-117956759D01*
X188173597Y-117936120D01*
X192489161Y-117936120D01*
X192664743Y-117953912D01*
X192845942Y-117933853D01*
X192824291Y-117889533D01*
X192562972Y-117872674D01*
X192505196Y-117889533D01*
X192489161Y-117936120D01*
X188173597Y-117936120D01*
X188368815Y-117850371D01*
X188439076Y-117794922D01*
X188557132Y-117709262D01*
X188718124Y-117649514D01*
X188962718Y-117612485D01*
X189331582Y-117594980D01*
X189865385Y-117593806D01*
X190604794Y-117605769D01*
D15*
X134888264Y-115789721D02*
G75*
G02X133998000Y-116045000I-890264J1424721D01*
G01*
X135423505Y-113474807D02*
G75*
G02X135423000Y-115256000I-1425505J-890193D01*
G01*
X133108106Y-112939642D02*
G75*
G02X134864000Y-112925000I889894J-1425358D01*
G01*
X132572642Y-115254894D02*
G75*
G02X132558000Y-113499000I1425358J889894D01*
G01*
X134026674Y-116045099D02*
G75*
G02X133132000Y-115805000I-28674J1680099D01*
G01*
X139178000Y-114365000D02*
G75*
G03X139178000Y-114365000I-1680000J0D01*
G01*
X132188000Y-118465000D02*
X139308000Y-118465000D01*
X132188000Y-117365000D02*
X139308000Y-117365000D01*
X132188000Y-111205000D02*
X139308000Y-111205000D01*
X132188000Y-118925000D02*
X139308000Y-118925000D01*
X132188000Y-111205000D02*
X132188000Y-118925000D01*
X139308000Y-111205000D02*
X139308000Y-118925000D01*
X138773000Y-113296000D02*
X138644000Y-113424000D01*
X136523000Y-115546000D02*
X136429000Y-115639000D01*
X138568000Y-113090000D02*
X138474000Y-113184000D01*
X136353000Y-115306000D02*
X136224000Y-115434000D01*
X131948000Y-118525000D02*
X131948000Y-119165000D01*
X131948000Y-119165000D02*
X132348000Y-119165000D01*
X160588000Y-100905000D02*
X155388000Y-100905000D01*
X160588000Y-106045000D02*
X160588000Y-100905000D01*
X155388000Y-108645000D02*
X155388000Y-100905000D01*
X160588000Y-106045000D02*
X157988000Y-106045000D01*
X157988000Y-106045000D02*
X157988000Y-108645000D01*
X157988000Y-108645000D02*
X155388000Y-108645000D01*
X160588000Y-107315000D02*
X160588000Y-108645000D01*
X160588000Y-108645000D02*
X159258000Y-108645000D01*
X169628000Y-109232000D02*
X171748000Y-109232000D01*
X169628000Y-107172000D02*
X169628000Y-109232000D01*
X171748000Y-107172000D02*
X171748000Y-109232000D01*
X169628000Y-107172000D02*
X171748000Y-107172000D01*
X169628000Y-106172000D02*
X169628000Y-105112000D01*
X169628000Y-105112000D02*
X170688000Y-105112000D01*
X209423000Y-116840000D02*
X199263000Y-116840000D01*
X209423000Y-118110000D02*
X209423000Y-110490000D01*
X209423000Y-110490000D02*
X199263000Y-110490000D01*
X199263000Y-110490000D02*
X199263000Y-118110000D01*
X199263000Y-118110000D02*
X209423000Y-118110000D01*
X198208000Y-91305000D02*
X198208000Y-90305000D01*
X196508000Y-90305000D02*
X196508000Y-91305000D01*
X190588000Y-91305000D02*
X190588000Y-90305000D01*
X188888000Y-90305000D02*
X188888000Y-91305000D01*
X171188000Y-89955000D02*
X170188000Y-89955000D01*
X170188000Y-91655000D02*
X171188000Y-91655000D01*
X150868000Y-89955000D02*
X149868000Y-89955000D01*
X149868000Y-91655000D02*
X150868000Y-91655000D01*
X150868000Y-92495000D02*
X149868000Y-92495000D01*
X149868000Y-94195000D02*
X150868000Y-94195000D01*
X150868000Y-97575000D02*
X149868000Y-97575000D01*
X149868000Y-99275000D02*
X150868000Y-99275000D01*
X182888000Y-92925000D02*
X183888000Y-92925000D01*
X183888000Y-91225000D02*
X182888000Y-91225000D01*
X150868000Y-95035000D02*
X149868000Y-95035000D01*
X149868000Y-96735000D02*
X150868000Y-96735000D01*
X208118000Y-100575000D02*
X206918000Y-100575000D01*
X206918000Y-98815000D02*
X208118000Y-98815000D01*
X145888000Y-91685000D02*
X144688000Y-91685000D01*
X144688000Y-89925000D02*
X145888000Y-89925000D01*
X140808000Y-91685000D02*
X139608000Y-91685000D01*
X139608000Y-89925000D02*
X140808000Y-89925000D01*
X145888000Y-94225000D02*
X144688000Y-94225000D01*
X144688000Y-92465000D02*
X145888000Y-92465000D01*
X140808000Y-94225000D02*
X139608000Y-94225000D01*
X139608000Y-92465000D02*
X140808000Y-92465000D01*
X178908000Y-104385000D02*
X177708000Y-104385000D01*
X177708000Y-102625000D02*
X178908000Y-102625000D01*
X145888000Y-99305000D02*
X144688000Y-99305000D01*
X144688000Y-97545000D02*
X145888000Y-97545000D01*
X140808000Y-99305000D02*
X139608000Y-99305000D01*
X139608000Y-97545000D02*
X140808000Y-97545000D01*
X178908000Y-106925000D02*
X177708000Y-106925000D01*
X177708000Y-105165000D02*
X178908000Y-105165000D01*
X183988000Y-90415000D02*
X182788000Y-90415000D01*
X182788000Y-88655000D02*
X183988000Y-88655000D01*
X140808000Y-96765000D02*
X139608000Y-96765000D01*
X139608000Y-95005000D02*
X140808000Y-95005000D01*
X145888000Y-96765000D02*
X144688000Y-96765000D01*
X144688000Y-95005000D02*
X145888000Y-95005000D01*
X192948000Y-102625000D02*
X194148000Y-102625000D01*
X194148000Y-104385000D02*
X192948000Y-104385000D01*
X192948000Y-105165000D02*
X194148000Y-105165000D01*
X194148000Y-106925000D02*
X192948000Y-106925000D01*
X192348000Y-92585000D02*
X191148000Y-92585000D01*
X191148000Y-92585000D02*
X191148000Y-89885000D01*
X195948000Y-88585000D02*
X195948000Y-92585000D01*
X195948000Y-92585000D02*
X194748000Y-92585000D01*
D13*
X171773000Y-94800000D02*
X171548000Y-94800000D01*
X171773000Y-102050000D02*
X171448000Y-102050000D01*
X164523000Y-102050000D02*
X164848000Y-102050000D01*
X164523000Y-94800000D02*
X164848000Y-94800000D01*
X171773000Y-94800000D02*
X171773000Y-95125000D01*
X164523000Y-94800000D02*
X164523000Y-95125000D01*
X164523000Y-102050000D02*
X164523000Y-101725000D01*
X171773000Y-102050000D02*
X171773000Y-101725000D01*
X171548000Y-94800000D02*
X171548000Y-93375000D01*
D15*
X166913000Y-109055000D02*
X167863000Y-109055000D01*
X167863000Y-109055000D02*
X167863000Y-109455000D01*
X161763000Y-109055000D02*
X160813000Y-109055000D01*
X160813000Y-109055000D02*
X160813000Y-109455000D01*
X167863000Y-113155000D02*
X167863000Y-113555000D01*
X167863000Y-113555000D02*
X164338000Y-113555000D01*
X160813000Y-113155000D02*
X160813000Y-113555000D01*
X160813000Y-113555000D02*
X164338000Y-113555000D01*
X161763000Y-109055000D02*
X161763000Y-107555000D01*
X185348000Y-96355000D02*
X186298000Y-96355000D01*
X186298000Y-96355000D02*
X186298000Y-96755000D01*
X182698000Y-96355000D02*
X181748000Y-96355000D01*
X181748000Y-96355000D02*
X181748000Y-96755000D01*
X186298000Y-100455000D02*
X186298000Y-100855000D01*
X186298000Y-100855000D02*
X184023000Y-100855000D01*
X181748000Y-100455000D02*
X181748000Y-100855000D01*
X181748000Y-100855000D02*
X184023000Y-100855000D01*
X182698000Y-96355000D02*
X182698000Y-94855000D01*
X190948000Y-108565000D02*
X191898000Y-108565000D01*
X191898000Y-108565000D02*
X191898000Y-108965000D01*
X187048000Y-108565000D02*
X186098000Y-108565000D01*
X186098000Y-108565000D02*
X186098000Y-108965000D01*
X191898000Y-112665000D02*
X191898000Y-113065000D01*
X191898000Y-113065000D02*
X188998000Y-113065000D01*
X186098000Y-112665000D02*
X186098000Y-113065000D01*
X186098000Y-113065000D02*
X188998000Y-113065000D01*
X187048000Y-108565000D02*
X187048000Y-107065000D01*
X151613000Y-103975000D02*
X152563000Y-103975000D01*
X152563000Y-103975000D02*
X152563000Y-104375000D01*
X138963000Y-103975000D02*
X138013000Y-103975000D01*
X138013000Y-103975000D02*
X138013000Y-104375000D01*
X152563000Y-108075000D02*
X152563000Y-108475000D01*
X152563000Y-108475000D02*
X145288000Y-108475000D01*
X138013000Y-108075000D02*
X138013000Y-108475000D01*
X138013000Y-108475000D02*
X145288000Y-108475000D01*
X138963000Y-103975000D02*
X138963000Y-102475000D01*
D13*
X177974667Y-111847381D02*
X177974667Y-112561667D01*
X177927047Y-112704524D01*
X177831809Y-112799762D01*
X177688952Y-112847381D01*
X177593714Y-112847381D01*
X178498476Y-112847381D02*
X178688952Y-112847381D01*
X178784191Y-112799762D01*
X178831810Y-112752143D01*
X178927048Y-112609286D01*
X178974667Y-112418810D01*
X178974667Y-112037857D01*
X178927048Y-111942619D01*
X178879429Y-111895000D01*
X178784191Y-111847381D01*
X178593714Y-111847381D01*
X178498476Y-111895000D01*
X178450857Y-111942619D01*
X178403238Y-112037857D01*
X178403238Y-112275952D01*
X178450857Y-112371190D01*
X178498476Y-112418810D01*
X178593714Y-112466429D01*
X178784191Y-112466429D01*
X178879429Y-112418810D01*
X178927048Y-112371190D01*
X178974667Y-112275952D01*
X177252524Y-120467381D02*
X177252524Y-119467381D01*
X177585858Y-120181667D01*
X177919191Y-119467381D01*
X177919191Y-120467381D01*
X178252524Y-119467381D02*
X178823953Y-119467381D01*
X178538238Y-120467381D02*
X178538238Y-119467381D01*
X179728715Y-120467381D02*
X179395381Y-119991190D01*
X179157286Y-120467381D02*
X179157286Y-119467381D01*
X179538239Y-119467381D01*
X179633477Y-119515000D01*
X179681096Y-119562619D01*
X179728715Y-119657857D01*
X179728715Y-119800714D01*
X179681096Y-119895952D01*
X179633477Y-119943571D01*
X179538239Y-119991190D01*
X179157286Y-119991190D01*
X180109667Y-120419762D02*
X180252524Y-120467381D01*
X180490620Y-120467381D01*
X180585858Y-120419762D01*
X180633477Y-120372143D01*
X180681096Y-120276905D01*
X180681096Y-120181667D01*
X180633477Y-120086429D01*
X180585858Y-120038810D01*
X180490620Y-119991190D01*
X180300143Y-119943571D01*
X180204905Y-119895952D01*
X180157286Y-119848333D01*
X180109667Y-119753095D01*
X180109667Y-119657857D01*
X180157286Y-119562619D01*
X180204905Y-119515000D01*
X180300143Y-119467381D01*
X180538239Y-119467381D01*
X180681096Y-119515000D01*
X135429667Y-115657381D02*
X135429667Y-116371667D01*
X135382047Y-116514524D01*
X135286809Y-116609762D01*
X135143952Y-116657381D01*
X135048714Y-116657381D01*
X135810619Y-115657381D02*
X136429667Y-115657381D01*
X136096333Y-116038333D01*
X136239191Y-116038333D01*
X136334429Y-116085952D01*
X136382048Y-116133571D01*
X136429667Y-116228810D01*
X136429667Y-116466905D01*
X136382048Y-116562143D01*
X136334429Y-116609762D01*
X136239191Y-116657381D01*
X135953476Y-116657381D01*
X135858238Y-116609762D01*
X135810619Y-116562143D01*
X133259905Y-120317381D02*
X133259905Y-119317381D01*
X133640858Y-119317381D01*
X133736096Y-119365000D01*
X133783715Y-119412619D01*
X133831334Y-119507857D01*
X133831334Y-119650714D01*
X133783715Y-119745952D01*
X133736096Y-119793571D01*
X133640858Y-119841190D01*
X133259905Y-119841190D01*
X134259905Y-119317381D02*
X134259905Y-120126905D01*
X134307524Y-120222143D01*
X134355143Y-120269762D01*
X134450381Y-120317381D01*
X134640858Y-120317381D01*
X134736096Y-120269762D01*
X134783715Y-120222143D01*
X134831334Y-120126905D01*
X134831334Y-119317381D01*
X135259905Y-120269762D02*
X135402762Y-120317381D01*
X135640858Y-120317381D01*
X135736096Y-120269762D01*
X135783715Y-120222143D01*
X135831334Y-120126905D01*
X135831334Y-120031667D01*
X135783715Y-119936429D01*
X135736096Y-119888810D01*
X135640858Y-119841190D01*
X135450381Y-119793571D01*
X135355143Y-119745952D01*
X135307524Y-119698333D01*
X135259905Y-119603095D01*
X135259905Y-119507857D01*
X135307524Y-119412619D01*
X135355143Y-119365000D01*
X135450381Y-119317381D01*
X135688477Y-119317381D01*
X135831334Y-119365000D01*
X136259905Y-120317381D02*
X136259905Y-119317381D01*
X136259905Y-119793571D02*
X136831334Y-119793571D01*
X136831334Y-120317381D02*
X136831334Y-119317381D01*
X137307524Y-119793571D02*
X137640858Y-119793571D01*
X137783715Y-120317381D02*
X137307524Y-120317381D01*
X137307524Y-119317381D01*
X137783715Y-119317381D01*
X138783715Y-120317381D02*
X138450381Y-119841190D01*
X138212286Y-120317381D02*
X138212286Y-119317381D01*
X138593239Y-119317381D01*
X138688477Y-119365000D01*
X138736096Y-119412619D01*
X138783715Y-119507857D01*
X138783715Y-119650714D01*
X138736096Y-119745952D01*
X138688477Y-119793571D01*
X138593239Y-119841190D01*
X138212286Y-119841190D01*
X157265810Y-100655381D02*
X157265810Y-99655381D01*
X157694381Y-100607762D02*
X157837238Y-100655381D01*
X158075334Y-100655381D01*
X158170572Y-100607762D01*
X158218191Y-100560143D01*
X158265810Y-100464905D01*
X158265810Y-100369667D01*
X158218191Y-100274429D01*
X158170572Y-100226810D01*
X158075334Y-100179190D01*
X157884857Y-100131571D01*
X157789619Y-100083952D01*
X157742000Y-100036333D01*
X157694381Y-99941095D01*
X157694381Y-99845857D01*
X157742000Y-99750619D01*
X157789619Y-99703000D01*
X157884857Y-99655381D01*
X158122953Y-99655381D01*
X158265810Y-99703000D01*
X158694381Y-100655381D02*
X158694381Y-99655381D01*
X159075334Y-99655381D01*
X159170572Y-99703000D01*
X159218191Y-99750619D01*
X159265810Y-99845857D01*
X159265810Y-99988714D01*
X159218191Y-100083952D01*
X159170572Y-100131571D01*
X159075334Y-100179190D01*
X158694381Y-100179190D01*
X171751714Y-106338667D02*
X172227905Y-106338667D01*
X171656476Y-106624381D02*
X171989809Y-105624381D01*
X172323143Y-106624381D01*
X172608857Y-105719619D02*
X172656476Y-105672000D01*
X172751714Y-105624381D01*
X172989810Y-105624381D01*
X173085048Y-105672000D01*
X173132667Y-105719619D01*
X173180286Y-105814857D01*
X173180286Y-105910095D01*
X173132667Y-106052952D01*
X172561238Y-106624381D01*
X173180286Y-106624381D01*
X204009667Y-111212381D02*
X204009667Y-111926667D01*
X203962047Y-112069524D01*
X203866809Y-112164762D01*
X203723952Y-112212381D01*
X203628714Y-112212381D01*
X204438238Y-111307619D02*
X204485857Y-111260000D01*
X204581095Y-111212381D01*
X204819191Y-111212381D01*
X204914429Y-111260000D01*
X204962048Y-111307619D01*
X205009667Y-111402857D01*
X205009667Y-111498095D01*
X204962048Y-111640952D01*
X204390619Y-112212381D01*
X205009667Y-112212381D01*
X202081096Y-119308571D02*
X202223953Y-119356190D01*
X202271572Y-119403810D01*
X202319191Y-119499048D01*
X202319191Y-119641905D01*
X202271572Y-119737143D01*
X202223953Y-119784762D01*
X202128715Y-119832381D01*
X201747762Y-119832381D01*
X201747762Y-118832381D01*
X202081096Y-118832381D01*
X202176334Y-118880000D01*
X202223953Y-118927619D01*
X202271572Y-119022857D01*
X202271572Y-119118095D01*
X202223953Y-119213333D01*
X202176334Y-119260952D01*
X202081096Y-119308571D01*
X201747762Y-119308571D01*
X202700143Y-119546667D02*
X203176334Y-119546667D01*
X202604905Y-119832381D02*
X202938238Y-118832381D01*
X203271572Y-119832381D01*
X203462048Y-118832381D02*
X204033477Y-118832381D01*
X203747762Y-119832381D02*
X203747762Y-118832381D01*
X204223953Y-118832381D02*
X204795382Y-118832381D01*
X204509667Y-119832381D02*
X204509667Y-118832381D01*
X204890620Y-119927619D02*
X205652525Y-119927619D01*
X205890620Y-119832381D02*
X205890620Y-118832381D01*
X206366810Y-119832381D02*
X206366810Y-118832381D01*
X206938239Y-119832381D01*
X206938239Y-118832381D01*
X199461381Y-91527238D02*
X199461381Y-92098667D01*
X199461381Y-91812953D02*
X198461381Y-91812953D01*
X198604238Y-91908191D01*
X198699476Y-92003429D01*
X198747095Y-92098667D01*
X198794714Y-90670095D02*
X199461381Y-90670095D01*
X198794714Y-91098667D02*
X199318524Y-91098667D01*
X199413762Y-91051048D01*
X199461381Y-90955810D01*
X199461381Y-90812952D01*
X199413762Y-90717714D01*
X199366143Y-90670095D01*
X198937571Y-89860571D02*
X198937571Y-90193905D01*
X199461381Y-90193905D02*
X198461381Y-90193905D01*
X198461381Y-89717714D01*
X188285381Y-91400238D02*
X188285381Y-91971667D01*
X188285381Y-91685953D02*
X187285381Y-91685953D01*
X187428238Y-91781191D01*
X187523476Y-91876429D01*
X187571095Y-91971667D01*
X187618714Y-90543095D02*
X188285381Y-90543095D01*
X187618714Y-90971667D02*
X188142524Y-90971667D01*
X188237762Y-90924048D01*
X188285381Y-90828810D01*
X188285381Y-90685952D01*
X188237762Y-90590714D01*
X188190143Y-90543095D01*
X187761571Y-89733571D02*
X187761571Y-90066905D01*
X188285381Y-90066905D02*
X187285381Y-90066905D01*
X187285381Y-89590714D01*
X169172143Y-88606381D02*
X169267382Y-88606381D01*
X169362620Y-88654000D01*
X169410239Y-88701619D01*
X169457858Y-88796857D01*
X169505477Y-88987333D01*
X169505477Y-89225429D01*
X169457858Y-89415905D01*
X169410239Y-89511143D01*
X169362620Y-89558762D01*
X169267382Y-89606381D01*
X169172143Y-89606381D01*
X169076905Y-89558762D01*
X169029286Y-89511143D01*
X168981667Y-89415905D01*
X168934048Y-89225429D01*
X168934048Y-88987333D01*
X168981667Y-88796857D01*
X169029286Y-88701619D01*
X169076905Y-88654000D01*
X169172143Y-88606381D01*
X169934048Y-89511143D02*
X169981667Y-89558762D01*
X169934048Y-89606381D01*
X169886429Y-89558762D01*
X169934048Y-89511143D01*
X169934048Y-89606381D01*
X170934048Y-89606381D02*
X170362619Y-89606381D01*
X170648333Y-89606381D02*
X170648333Y-88606381D01*
X170553095Y-88749238D01*
X170457857Y-88844476D01*
X170362619Y-88892095D01*
X171791191Y-88939714D02*
X171791191Y-89606381D01*
X171362619Y-88939714D02*
X171362619Y-89463524D01*
X171410238Y-89558762D01*
X171505476Y-89606381D01*
X171648334Y-89606381D01*
X171743572Y-89558762D01*
X171791191Y-89511143D01*
X172600715Y-89082571D02*
X172267381Y-89082571D01*
X172267381Y-89606381D02*
X172267381Y-88606381D01*
X172743572Y-88606381D01*
X148725143Y-88352381D02*
X148820382Y-88352381D01*
X148915620Y-88400000D01*
X148963239Y-88447619D01*
X149010858Y-88542857D01*
X149058477Y-88733333D01*
X149058477Y-88971429D01*
X149010858Y-89161905D01*
X148963239Y-89257143D01*
X148915620Y-89304762D01*
X148820382Y-89352381D01*
X148725143Y-89352381D01*
X148629905Y-89304762D01*
X148582286Y-89257143D01*
X148534667Y-89161905D01*
X148487048Y-88971429D01*
X148487048Y-88733333D01*
X148534667Y-88542857D01*
X148582286Y-88447619D01*
X148629905Y-88400000D01*
X148725143Y-88352381D01*
X149487048Y-89257143D02*
X149534667Y-89304762D01*
X149487048Y-89352381D01*
X149439429Y-89304762D01*
X149487048Y-89257143D01*
X149487048Y-89352381D01*
X150487048Y-89352381D02*
X149915619Y-89352381D01*
X150201333Y-89352381D02*
X150201333Y-88352381D01*
X150106095Y-88495238D01*
X150010857Y-88590476D01*
X149915619Y-88638095D01*
X151344191Y-88685714D02*
X151344191Y-89352381D01*
X150915619Y-88685714D02*
X150915619Y-89209524D01*
X150963238Y-89304762D01*
X151058476Y-89352381D01*
X151201334Y-89352381D01*
X151296572Y-89304762D01*
X151344191Y-89257143D01*
X152153715Y-88828571D02*
X151820381Y-88828571D01*
X151820381Y-89352381D02*
X151820381Y-88352381D01*
X152296572Y-88352381D01*
X181618143Y-93178381D02*
X181713382Y-93178381D01*
X181808620Y-93226000D01*
X181856239Y-93273619D01*
X181903858Y-93368857D01*
X181951477Y-93559333D01*
X181951477Y-93797429D01*
X181903858Y-93987905D01*
X181856239Y-94083143D01*
X181808620Y-94130762D01*
X181713382Y-94178381D01*
X181618143Y-94178381D01*
X181522905Y-94130762D01*
X181475286Y-94083143D01*
X181427667Y-93987905D01*
X181380048Y-93797429D01*
X181380048Y-93559333D01*
X181427667Y-93368857D01*
X181475286Y-93273619D01*
X181522905Y-93226000D01*
X181618143Y-93178381D01*
X182380048Y-94083143D02*
X182427667Y-94130762D01*
X182380048Y-94178381D01*
X182332429Y-94130762D01*
X182380048Y-94083143D01*
X182380048Y-94178381D01*
X183380048Y-94178381D02*
X182808619Y-94178381D01*
X183094333Y-94178381D02*
X183094333Y-93178381D01*
X182999095Y-93321238D01*
X182903857Y-93416476D01*
X182808619Y-93464095D01*
X184237191Y-93511714D02*
X184237191Y-94178381D01*
X183808619Y-93511714D02*
X183808619Y-94035524D01*
X183856238Y-94130762D01*
X183951476Y-94178381D01*
X184094334Y-94178381D01*
X184189572Y-94130762D01*
X184237191Y-94083143D01*
X185046715Y-93654571D02*
X184713381Y-93654571D01*
X184713381Y-94178381D02*
X184713381Y-93178381D01*
X185189572Y-93178381D01*
X207303715Y-101897381D02*
X206732286Y-101897381D01*
X207018000Y-101897381D02*
X207018000Y-100897381D01*
X206922762Y-101040238D01*
X206827524Y-101135476D01*
X206732286Y-101183095D01*
X207732286Y-101897381D02*
X207732286Y-100897381D01*
X208303715Y-101897381D02*
X207875143Y-101325952D01*
X208303715Y-100897381D02*
X207732286Y-101468810D01*
X144597524Y-89352381D02*
X144026095Y-89352381D01*
X144311809Y-89352381D02*
X144311809Y-88352381D01*
X144216571Y-88495238D01*
X144121333Y-88590476D01*
X144026095Y-88638095D01*
X145216571Y-88352381D02*
X145311810Y-88352381D01*
X145407048Y-88400000D01*
X145454667Y-88447619D01*
X145502286Y-88542857D01*
X145549905Y-88733333D01*
X145549905Y-88971429D01*
X145502286Y-89161905D01*
X145454667Y-89257143D01*
X145407048Y-89304762D01*
X145311810Y-89352381D01*
X145216571Y-89352381D01*
X145121333Y-89304762D01*
X145073714Y-89257143D01*
X145026095Y-89161905D01*
X144978476Y-88971429D01*
X144978476Y-88733333D01*
X145026095Y-88542857D01*
X145073714Y-88447619D01*
X145121333Y-88400000D01*
X145216571Y-88352381D01*
X145978476Y-89352381D02*
X145978476Y-88352381D01*
X146549905Y-89352381D02*
X146121333Y-88780952D01*
X146549905Y-88352381D02*
X145978476Y-88923810D01*
X139993715Y-89352381D02*
X139422286Y-89352381D01*
X139708000Y-89352381D02*
X139708000Y-88352381D01*
X139612762Y-88495238D01*
X139517524Y-88590476D01*
X139422286Y-88638095D01*
X140422286Y-89352381D02*
X140422286Y-88352381D01*
X140993715Y-89352381D02*
X140565143Y-88780952D01*
X140993715Y-88352381D02*
X140422286Y-88923810D01*
X175712762Y-102433381D02*
X175141333Y-102433381D01*
X175427047Y-102433381D02*
X175427047Y-101433381D01*
X175331809Y-101576238D01*
X175236571Y-101671476D01*
X175141333Y-101719095D01*
X176331809Y-101433381D02*
X176427048Y-101433381D01*
X176522286Y-101481000D01*
X176569905Y-101528619D01*
X176617524Y-101623857D01*
X176665143Y-101814333D01*
X176665143Y-102052429D01*
X176617524Y-102242905D01*
X176569905Y-102338143D01*
X176522286Y-102385762D01*
X176427048Y-102433381D01*
X176331809Y-102433381D01*
X176236571Y-102385762D01*
X176188952Y-102338143D01*
X176141333Y-102242905D01*
X176093714Y-102052429D01*
X176093714Y-101814333D01*
X176141333Y-101623857D01*
X176188952Y-101528619D01*
X176236571Y-101481000D01*
X176331809Y-101433381D01*
X177284190Y-101433381D02*
X177379429Y-101433381D01*
X177474667Y-101481000D01*
X177522286Y-101528619D01*
X177569905Y-101623857D01*
X177617524Y-101814333D01*
X177617524Y-102052429D01*
X177569905Y-102242905D01*
X177522286Y-102338143D01*
X177474667Y-102385762D01*
X177379429Y-102433381D01*
X177284190Y-102433381D01*
X177188952Y-102385762D01*
X177141333Y-102338143D01*
X177093714Y-102242905D01*
X177046095Y-102052429D01*
X177046095Y-101814333D01*
X177093714Y-101623857D01*
X177141333Y-101528619D01*
X177188952Y-101481000D01*
X177284190Y-101433381D01*
X178046095Y-102433381D02*
X178046095Y-101433381D01*
X178617524Y-102433381D02*
X178188952Y-101861952D01*
X178617524Y-101433381D02*
X178046095Y-102004810D01*
X180331810Y-102433381D02*
X179760381Y-102433381D01*
X180046095Y-102433381D02*
X180046095Y-101433381D01*
X179950857Y-101576238D01*
X179855619Y-101671476D01*
X179760381Y-101719095D01*
X180712762Y-102433381D02*
X181474667Y-101433381D01*
X180855619Y-101433381D02*
X180950857Y-101481000D01*
X180998476Y-101576238D01*
X180950857Y-101671476D01*
X180855619Y-101719095D01*
X180760381Y-101671476D01*
X180712762Y-101576238D01*
X180760381Y-101481000D01*
X180855619Y-101433381D01*
X181427048Y-102385762D02*
X181474667Y-102290524D01*
X181427048Y-102195286D01*
X181331810Y-102147667D01*
X181236572Y-102195286D01*
X181188953Y-102290524D01*
X181236572Y-102385762D01*
X181331810Y-102433381D01*
X181427048Y-102385762D01*
X176188953Y-108275381D02*
X175617524Y-108275381D01*
X175903238Y-108275381D02*
X175903238Y-107275381D01*
X175808000Y-107418238D01*
X175712762Y-107513476D01*
X175617524Y-107561095D01*
X176808000Y-107275381D02*
X176903239Y-107275381D01*
X176998477Y-107323000D01*
X177046096Y-107370619D01*
X177093715Y-107465857D01*
X177141334Y-107656333D01*
X177141334Y-107894429D01*
X177093715Y-108084905D01*
X177046096Y-108180143D01*
X176998477Y-108227762D01*
X176903239Y-108275381D01*
X176808000Y-108275381D01*
X176712762Y-108227762D01*
X176665143Y-108180143D01*
X176617524Y-108084905D01*
X176569905Y-107894429D01*
X176569905Y-107656333D01*
X176617524Y-107465857D01*
X176665143Y-107370619D01*
X176712762Y-107323000D01*
X176808000Y-107275381D01*
X177569905Y-108275381D02*
X177569905Y-107275381D01*
X178141334Y-108275381D02*
X177712762Y-107703952D01*
X178141334Y-107275381D02*
X177569905Y-107846810D01*
X179855620Y-108275381D02*
X179284191Y-108275381D01*
X179569905Y-108275381D02*
X179569905Y-107275381D01*
X179474667Y-107418238D01*
X179379429Y-107513476D01*
X179284191Y-107561095D01*
X180236572Y-108275381D02*
X180998477Y-107275381D01*
X180379429Y-107275381D02*
X180474667Y-107323000D01*
X180522286Y-107418238D01*
X180474667Y-107513476D01*
X180379429Y-107561095D01*
X180284191Y-107513476D01*
X180236572Y-107418238D01*
X180284191Y-107323000D01*
X180379429Y-107275381D01*
X180950858Y-108227762D02*
X180998477Y-108132524D01*
X180950858Y-108037286D01*
X180855620Y-107989667D01*
X180760382Y-108037286D01*
X180712763Y-108132524D01*
X180760382Y-108227762D01*
X180855620Y-108275381D01*
X180950858Y-108227762D01*
X182697524Y-88082381D02*
X182126095Y-88082381D01*
X182411809Y-88082381D02*
X182411809Y-87082381D01*
X182316571Y-87225238D01*
X182221333Y-87320476D01*
X182126095Y-87368095D01*
X183316571Y-87082381D02*
X183411810Y-87082381D01*
X183507048Y-87130000D01*
X183554667Y-87177619D01*
X183602286Y-87272857D01*
X183649905Y-87463333D01*
X183649905Y-87701429D01*
X183602286Y-87891905D01*
X183554667Y-87987143D01*
X183507048Y-88034762D01*
X183411810Y-88082381D01*
X183316571Y-88082381D01*
X183221333Y-88034762D01*
X183173714Y-87987143D01*
X183126095Y-87891905D01*
X183078476Y-87701429D01*
X183078476Y-87463333D01*
X183126095Y-87272857D01*
X183173714Y-87177619D01*
X183221333Y-87130000D01*
X183316571Y-87082381D01*
X184078476Y-88082381D02*
X184078476Y-87082381D01*
X184649905Y-88082381D02*
X184221333Y-87510952D01*
X184649905Y-87082381D02*
X184078476Y-87653810D01*
X192857524Y-102207381D02*
X192286095Y-102207381D01*
X192571809Y-102207381D02*
X192571809Y-101207381D01*
X192476571Y-101350238D01*
X192381333Y-101445476D01*
X192286095Y-101493095D01*
X193476571Y-101207381D02*
X193571810Y-101207381D01*
X193667048Y-101255000D01*
X193714667Y-101302619D01*
X193762286Y-101397857D01*
X193809905Y-101588333D01*
X193809905Y-101826429D01*
X193762286Y-102016905D01*
X193714667Y-102112143D01*
X193667048Y-102159762D01*
X193571810Y-102207381D01*
X193476571Y-102207381D01*
X193381333Y-102159762D01*
X193333714Y-102112143D01*
X193286095Y-102016905D01*
X193238476Y-101826429D01*
X193238476Y-101588333D01*
X193286095Y-101397857D01*
X193333714Y-101302619D01*
X193381333Y-101255000D01*
X193476571Y-101207381D01*
X194238476Y-102207381D02*
X194238476Y-101207381D01*
X194809905Y-102207381D02*
X194381333Y-101635952D01*
X194809905Y-101207381D02*
X194238476Y-101778810D01*
X192881334Y-108402381D02*
X192309905Y-108402381D01*
X192595619Y-108402381D02*
X192595619Y-107402381D01*
X192500381Y-107545238D01*
X192405143Y-107640476D01*
X192309905Y-107688095D01*
X193500381Y-107402381D02*
X193595620Y-107402381D01*
X193690858Y-107450000D01*
X193738477Y-107497619D01*
X193786096Y-107592857D01*
X193833715Y-107783333D01*
X193833715Y-108021429D01*
X193786096Y-108211905D01*
X193738477Y-108307143D01*
X193690858Y-108354762D01*
X193595620Y-108402381D01*
X193500381Y-108402381D01*
X193405143Y-108354762D01*
X193357524Y-108307143D01*
X193309905Y-108211905D01*
X193262286Y-108021429D01*
X193262286Y-107783333D01*
X193309905Y-107592857D01*
X193357524Y-107497619D01*
X193405143Y-107450000D01*
X193500381Y-107402381D01*
X194452762Y-107402381D02*
X194548001Y-107402381D01*
X194643239Y-107450000D01*
X194690858Y-107497619D01*
X194738477Y-107592857D01*
X194786096Y-107783333D01*
X194786096Y-108021429D01*
X194738477Y-108211905D01*
X194690858Y-108307143D01*
X194643239Y-108354762D01*
X194548001Y-108402381D01*
X194452762Y-108402381D01*
X194357524Y-108354762D01*
X194309905Y-108307143D01*
X194262286Y-108211905D01*
X194214667Y-108021429D01*
X194214667Y-107783333D01*
X194262286Y-107592857D01*
X194309905Y-107497619D01*
X194357524Y-107450000D01*
X194452762Y-107402381D01*
X195961095Y-87082381D02*
X195961095Y-87891905D01*
X196008714Y-87987143D01*
X196056333Y-88034762D01*
X196151571Y-88082381D01*
X196342048Y-88082381D01*
X196437286Y-88034762D01*
X196484905Y-87987143D01*
X196532524Y-87891905D01*
X196532524Y-87082381D01*
X197532524Y-88082381D02*
X196961095Y-88082381D01*
X197246809Y-88082381D02*
X197246809Y-87082381D01*
X197151571Y-87225238D01*
X197056333Y-87320476D01*
X196961095Y-87368095D01*
X190944905Y-96337381D02*
X190944905Y-95337381D01*
X191278239Y-96051667D01*
X191611572Y-95337381D01*
X191611572Y-96337381D01*
X192659191Y-96242143D02*
X192611572Y-96289762D01*
X192468715Y-96337381D01*
X192373477Y-96337381D01*
X192230619Y-96289762D01*
X192135381Y-96194524D01*
X192087762Y-96099286D01*
X192040143Y-95908810D01*
X192040143Y-95765952D01*
X192087762Y-95575476D01*
X192135381Y-95480238D01*
X192230619Y-95385000D01*
X192373477Y-95337381D01*
X192468715Y-95337381D01*
X192611572Y-95385000D01*
X192659191Y-95432619D01*
X193087762Y-96337381D02*
X193087762Y-95337381D01*
X193468715Y-95337381D01*
X193563953Y-95385000D01*
X193611572Y-95432619D01*
X193659191Y-95527857D01*
X193659191Y-95670714D01*
X193611572Y-95765952D01*
X193563953Y-95813571D01*
X193468715Y-95861190D01*
X193087762Y-95861190D01*
X194611572Y-96337381D02*
X194040143Y-96337381D01*
X194325857Y-96337381D02*
X194325857Y-95337381D01*
X194230619Y-95480238D01*
X194135381Y-95575476D01*
X194040143Y-95623095D01*
X194944905Y-95337381D02*
X195611572Y-95337381D01*
X195183000Y-96337381D01*
X196183000Y-95337381D02*
X196278239Y-95337381D01*
X196373477Y-95385000D01*
X196421096Y-95432619D01*
X196468715Y-95527857D01*
X196516334Y-95718333D01*
X196516334Y-95956429D01*
X196468715Y-96146905D01*
X196421096Y-96242143D01*
X196373477Y-96289762D01*
X196278239Y-96337381D01*
X196183000Y-96337381D01*
X196087762Y-96289762D01*
X196040143Y-96242143D01*
X195992524Y-96146905D01*
X195944905Y-95956429D01*
X195944905Y-95718333D01*
X195992524Y-95527857D01*
X196040143Y-95432619D01*
X196087762Y-95385000D01*
X196183000Y-95337381D01*
X196897286Y-95432619D02*
X196944905Y-95385000D01*
X197040143Y-95337381D01*
X197278239Y-95337381D01*
X197373477Y-95385000D01*
X197421096Y-95432619D01*
X197468715Y-95527857D01*
X197468715Y-95623095D01*
X197421096Y-95765952D01*
X196849667Y-96337381D01*
X197468715Y-96337381D01*
X169291095Y-95337381D02*
X169291095Y-96146905D01*
X169338714Y-96242143D01*
X169386333Y-96289762D01*
X169481571Y-96337381D01*
X169672048Y-96337381D01*
X169767286Y-96289762D01*
X169814905Y-96242143D01*
X169862524Y-96146905D01*
X169862524Y-95337381D01*
X170814905Y-95337381D02*
X170338714Y-95337381D01*
X170291095Y-95813571D01*
X170338714Y-95765952D01*
X170433952Y-95718333D01*
X170672048Y-95718333D01*
X170767286Y-95765952D01*
X170814905Y-95813571D01*
X170862524Y-95908810D01*
X170862524Y-96146905D01*
X170814905Y-96242143D01*
X170767286Y-96289762D01*
X170672048Y-96337381D01*
X170433952Y-96337381D01*
X170338714Y-96289762D01*
X170291095Y-96242143D01*
X163648000Y-104433667D02*
X164124191Y-104433667D01*
X163552762Y-104719381D02*
X163886095Y-103719381D01*
X164219429Y-104719381D01*
X164409905Y-103719381D02*
X164981334Y-103719381D01*
X164695619Y-104719381D02*
X164695619Y-103719381D01*
X165314667Y-104719381D02*
X165314667Y-103719381D01*
X165648001Y-104433667D01*
X165981334Y-103719381D01*
X165981334Y-104719381D01*
X166457524Y-104195571D02*
X166790858Y-104195571D01*
X166933715Y-104719381D02*
X166457524Y-104719381D01*
X166457524Y-103719381D01*
X166933715Y-103719381D01*
X167886096Y-103767000D02*
X167790858Y-103719381D01*
X167648001Y-103719381D01*
X167505143Y-103767000D01*
X167409905Y-103862238D01*
X167362286Y-103957476D01*
X167314667Y-104147952D01*
X167314667Y-104290810D01*
X167362286Y-104481286D01*
X167409905Y-104576524D01*
X167505143Y-104671762D01*
X167648001Y-104719381D01*
X167743239Y-104719381D01*
X167886096Y-104671762D01*
X167933715Y-104624143D01*
X167933715Y-104290810D01*
X167743239Y-104290810D01*
X168314667Y-104433667D02*
X168790858Y-104433667D01*
X168219429Y-104719381D02*
X168552762Y-103719381D01*
X168886096Y-104719381D01*
X169124191Y-103719381D02*
X169743239Y-103719381D01*
X169409905Y-104100333D01*
X169552763Y-104100333D01*
X169648001Y-104147952D01*
X169695620Y-104195571D01*
X169743239Y-104290810D01*
X169743239Y-104528905D01*
X169695620Y-104624143D01*
X169648001Y-104671762D01*
X169552763Y-104719381D01*
X169267048Y-104719381D01*
X169171810Y-104671762D01*
X169124191Y-104624143D01*
X170124191Y-103814619D02*
X170171810Y-103767000D01*
X170267048Y-103719381D01*
X170505144Y-103719381D01*
X170600382Y-103767000D01*
X170648001Y-103814619D01*
X170695620Y-103909857D01*
X170695620Y-104005095D01*
X170648001Y-104147952D01*
X170076572Y-104719381D01*
X170695620Y-104719381D01*
X171267048Y-104147952D02*
X171171810Y-104100333D01*
X171124191Y-104052714D01*
X171076572Y-103957476D01*
X171076572Y-103909857D01*
X171124191Y-103814619D01*
X171171810Y-103767000D01*
X171267048Y-103719381D01*
X171457525Y-103719381D01*
X171552763Y-103767000D01*
X171600382Y-103814619D01*
X171648001Y-103909857D01*
X171648001Y-103957476D01*
X171600382Y-104052714D01*
X171552763Y-104100333D01*
X171457525Y-104147952D01*
X171267048Y-104147952D01*
X171171810Y-104195571D01*
X171124191Y-104243190D01*
X171076572Y-104338429D01*
X171076572Y-104528905D01*
X171124191Y-104624143D01*
X171171810Y-104671762D01*
X171267048Y-104719381D01*
X171457525Y-104719381D01*
X171552763Y-104671762D01*
X171600382Y-104624143D01*
X171648001Y-104528905D01*
X171648001Y-104338429D01*
X171600382Y-104243190D01*
X171552763Y-104195571D01*
X171457525Y-104147952D01*
X172076572Y-104719381D02*
X172076572Y-103719381D01*
X172457525Y-103719381D01*
X172552763Y-103767000D01*
X172600382Y-103814619D01*
X172648001Y-103909857D01*
X172648001Y-104052714D01*
X172600382Y-104147952D01*
X172552763Y-104195571D01*
X172457525Y-104243190D01*
X172076572Y-104243190D01*
X164384863Y-89774629D02*
X163984863Y-89774629D01*
X164184863Y-89774629D02*
X164184863Y-89074629D01*
X164118197Y-89174629D01*
X164051530Y-89241295D01*
X163984863Y-89274629D01*
X164984864Y-89074629D02*
X164851530Y-89074629D01*
X164784864Y-89107962D01*
X164751530Y-89141295D01*
X164684864Y-89241295D01*
X164651530Y-89374629D01*
X164651530Y-89641295D01*
X164684864Y-89707962D01*
X164718197Y-89741295D01*
X164784864Y-89774629D01*
X164918197Y-89774629D01*
X164984864Y-89741295D01*
X165018197Y-89707962D01*
X165051530Y-89641295D01*
X165051530Y-89474629D01*
X165018197Y-89407962D01*
X164984864Y-89374629D01*
X164918197Y-89341295D01*
X164784864Y-89341295D01*
X164718197Y-89374629D01*
X164684864Y-89407962D01*
X164651530Y-89474629D01*
X165351531Y-89774629D02*
X165351531Y-89074629D01*
X165584864Y-89574629D01*
X165818197Y-89074629D01*
X165818197Y-89774629D01*
X166151531Y-89774629D02*
X166151531Y-89074629D01*
X166451531Y-89774629D02*
X166451531Y-89407962D01*
X166418197Y-89341295D01*
X166351531Y-89307962D01*
X166251531Y-89307962D01*
X166184864Y-89341295D01*
X166151531Y-89374629D01*
X166718197Y-89307962D02*
X167084864Y-89307962D01*
X166718197Y-89774629D01*
X167084864Y-89774629D01*
X164004667Y-111212381D02*
X164004667Y-111926667D01*
X163957047Y-112069524D01*
X163861809Y-112164762D01*
X163718952Y-112212381D01*
X163623714Y-112212381D01*
X164957048Y-111212381D02*
X164480857Y-111212381D01*
X164433238Y-111688571D01*
X164480857Y-111640952D01*
X164576095Y-111593333D01*
X164814191Y-111593333D01*
X164909429Y-111640952D01*
X164957048Y-111688571D01*
X165004667Y-111783810D01*
X165004667Y-112021905D01*
X164957048Y-112117143D01*
X164909429Y-112164762D01*
X164814191Y-112212381D01*
X164576095Y-112212381D01*
X164480857Y-112164762D01*
X164433238Y-112117143D01*
X163361810Y-107132381D02*
X163361810Y-106132381D01*
X163790381Y-106227619D02*
X163838000Y-106180000D01*
X163933238Y-106132381D01*
X164171334Y-106132381D01*
X164266572Y-106180000D01*
X164314191Y-106227619D01*
X164361810Y-106322857D01*
X164361810Y-106418095D01*
X164314191Y-106560952D01*
X163742762Y-107132381D01*
X164361810Y-107132381D01*
X165361810Y-107037143D02*
X165314191Y-107084762D01*
X165171334Y-107132381D01*
X165076096Y-107132381D01*
X164933238Y-107084762D01*
X164838000Y-106989524D01*
X164790381Y-106894286D01*
X164742762Y-106703810D01*
X164742762Y-106560952D01*
X164790381Y-106370476D01*
X164838000Y-106275238D01*
X164933238Y-106180000D01*
X165076096Y-106132381D01*
X165171334Y-106132381D01*
X165314191Y-106180000D01*
X165361810Y-106227619D01*
X183689667Y-97877381D02*
X183689667Y-98591667D01*
X183642047Y-98734524D01*
X183546809Y-98829762D01*
X183403952Y-98877381D01*
X183308714Y-98877381D01*
X184594429Y-98210714D02*
X184594429Y-98877381D01*
X184356333Y-97829762D02*
X184118238Y-98544048D01*
X184737286Y-98544048D01*
X179990858Y-94702381D02*
X179990858Y-95416667D01*
X179943238Y-95559524D01*
X179848000Y-95654762D01*
X179705143Y-95702381D01*
X179609905Y-95702381D01*
X180419429Y-95416667D02*
X180895620Y-95416667D01*
X180324191Y-95702381D02*
X180657524Y-94702381D01*
X180990858Y-95702381D01*
X181324191Y-95702381D02*
X181324191Y-94702381D01*
X181657525Y-95416667D01*
X181990858Y-94702381D01*
X181990858Y-95702381D01*
X188769667Y-110577381D02*
X188769667Y-111291667D01*
X188722047Y-111434524D01*
X188626809Y-111529762D01*
X188483952Y-111577381D01*
X188388714Y-111577381D01*
X189388714Y-111005952D02*
X189293476Y-110958333D01*
X189245857Y-110910714D01*
X189198238Y-110815476D01*
X189198238Y-110767857D01*
X189245857Y-110672619D01*
X189293476Y-110625000D01*
X189388714Y-110577381D01*
X189579191Y-110577381D01*
X189674429Y-110625000D01*
X189722048Y-110672619D01*
X189769667Y-110767857D01*
X189769667Y-110815476D01*
X189722048Y-110910714D01*
X189674429Y-110958333D01*
X189579191Y-111005952D01*
X189388714Y-111005952D01*
X189293476Y-111053571D01*
X189245857Y-111101190D01*
X189198238Y-111196429D01*
X189198238Y-111386905D01*
X189245857Y-111482143D01*
X189293476Y-111529762D01*
X189388714Y-111577381D01*
X189579191Y-111577381D01*
X189674429Y-111529762D01*
X189722048Y-111482143D01*
X189769667Y-111386905D01*
X189769667Y-111196429D01*
X189722048Y-111101190D01*
X189674429Y-111053571D01*
X189579191Y-111005952D01*
X186253714Y-106497381D02*
X186253714Y-105497381D01*
X186634667Y-105497381D01*
X186729905Y-105545000D01*
X186777524Y-105592619D01*
X186825143Y-105687857D01*
X186825143Y-105830714D01*
X186777524Y-105925952D01*
X186729905Y-105973571D01*
X186634667Y-106021190D01*
X186253714Y-106021190D01*
X187253714Y-106497381D02*
X187253714Y-105497381D01*
X187253714Y-105973571D02*
X187825143Y-105973571D01*
X187825143Y-106497381D02*
X187825143Y-105497381D01*
X188491809Y-105497381D02*
X188682286Y-105497381D01*
X188777524Y-105545000D01*
X188872762Y-105640238D01*
X188920381Y-105830714D01*
X188920381Y-106164048D01*
X188872762Y-106354524D01*
X188777524Y-106449762D01*
X188682286Y-106497381D01*
X188491809Y-106497381D01*
X188396571Y-106449762D01*
X188301333Y-106354524D01*
X188253714Y-106164048D01*
X188253714Y-105830714D01*
X188301333Y-105640238D01*
X188396571Y-105545000D01*
X188491809Y-105497381D01*
X189206095Y-105497381D02*
X189777524Y-105497381D01*
X189491809Y-106497381D02*
X189491809Y-105497381D01*
X190301333Y-105497381D02*
X190491810Y-105497381D01*
X190587048Y-105545000D01*
X190682286Y-105640238D01*
X190729905Y-105830714D01*
X190729905Y-106164048D01*
X190682286Y-106354524D01*
X190587048Y-106449762D01*
X190491810Y-106497381D01*
X190301333Y-106497381D01*
X190206095Y-106449762D01*
X190110857Y-106354524D01*
X190063238Y-106164048D01*
X190063238Y-105830714D01*
X190110857Y-105640238D01*
X190206095Y-105545000D01*
X190301333Y-105497381D01*
X144954667Y-105497381D02*
X144954667Y-106211667D01*
X144907047Y-106354524D01*
X144811809Y-106449762D01*
X144668952Y-106497381D01*
X144573714Y-106497381D01*
X145859429Y-105497381D02*
X145668952Y-105497381D01*
X145573714Y-105545000D01*
X145526095Y-105592619D01*
X145430857Y-105735476D01*
X145383238Y-105925952D01*
X145383238Y-106306905D01*
X145430857Y-106402143D01*
X145478476Y-106449762D01*
X145573714Y-106497381D01*
X145764191Y-106497381D01*
X145859429Y-106449762D01*
X145907048Y-106402143D01*
X145954667Y-106306905D01*
X145954667Y-106068810D01*
X145907048Y-105973571D01*
X145859429Y-105925952D01*
X145764191Y-105878333D01*
X145573714Y-105878333D01*
X145478476Y-105925952D01*
X145430857Y-105973571D01*
X145383238Y-106068810D01*
X142883238Y-102052381D02*
X142883238Y-101052381D01*
X143359428Y-102052381D02*
X143359428Y-101052381D01*
X143930857Y-102052381D01*
X143930857Y-101052381D01*
X144407047Y-102052381D02*
X144407047Y-101052381D01*
X144788000Y-101052381D01*
X144883238Y-101100000D01*
X144930857Y-101147619D01*
X144978476Y-101242857D01*
X144978476Y-101385714D01*
X144930857Y-101480952D01*
X144883238Y-101528571D01*
X144788000Y-101576190D01*
X144407047Y-101576190D01*
X145407047Y-101052381D02*
X145407047Y-101861905D01*
X145454666Y-101957143D01*
X145502285Y-102004762D01*
X145597523Y-102052381D01*
X145788000Y-102052381D01*
X145883238Y-102004762D01*
X145930857Y-101957143D01*
X145978476Y-101861905D01*
X145978476Y-101052381D01*
X146311809Y-101052381D02*
X146883238Y-101052381D01*
X146597523Y-102052381D02*
X146597523Y-101052381D01*
X147168952Y-102004762D02*
X147311809Y-102052381D01*
X147549905Y-102052381D01*
X147645143Y-102004762D01*
X147692762Y-101957143D01*
X147740381Y-101861905D01*
X147740381Y-101766667D01*
X147692762Y-101671429D01*
X147645143Y-101623810D01*
X147549905Y-101576190D01*
X147359428Y-101528571D01*
X147264190Y-101480952D01*
X147216571Y-101433333D01*
X147168952Y-101338095D01*
X147168952Y-101242857D01*
X147216571Y-101147619D01*
X147264190Y-101100000D01*
X147359428Y-101052381D01*
X147597524Y-101052381D01*
X147740381Y-101100000D01*
M02*
