%MOIN*%
%OFA0B0*%
%FSLAX46Y46*%
%IPPOS*%
%LPD*%
%ADD10O,0.031496062992125991X0.051181102362204731*%
%ADD11R,0.066929133858267723X0.066929133858267723*%
%ADD12O,0.066929133858267723X0.066929133858267723*%
%ADD13C,0.066*%
%ADD14R,0.070866141732283464X0.070866141732283464*%
%ADD15C,0.070866141732283464*%
%ADD26O,0.051181102362204731X0.031496062992125991*%
%ADD27R,0.066929133858267723X0.066929133858267723*%
%ADD28O,0.066929133858267723X0.066929133858267723*%
%ADD29C,0.066*%
%ADD30R,0.070866141732283464X0.070866141732283464*%
%ADD31C,0.070866141732283464*%
%ADD32O,0.031496062992125991X0.051181102362204731*%
%ADD33R,0.066929133858267723X0.066929133858267723*%
%ADD34O,0.066929133858267723X0.066929133858267723*%
%ADD35C,0.066*%
%ADD36R,0.070866141732283464X0.070866141732283464*%
%ADD37C,0.070866141732283464*%
%ADD38O,0.031496062992125991X0.051181102362204731*%
%ADD39R,0.066929133858267723X0.066929133858267723*%
%ADD40O,0.066929133858267723X0.066929133858267723*%
%ADD41C,0.066*%
%ADD42R,0.070866141732283464X0.070866141732283464*%
%ADD43C,0.070866141732283464*%
G01*
G36*
G01*
X0000740748Y0002367716D02*
X0000740748Y0002332283D01*
G75*
G02*
X0000732874Y0002324409I-0000007874D01*
G01*
X0000717125Y0002324409D01*
G75*
G02*
X0000709251Y0002332283J0000007874D01*
G01*
X0000709251Y0002367716D01*
G75*
G02*
X0000717125Y0002375590I0000007874D01*
G01*
X0000732874Y0002375590D01*
G75*
G02*
X0000740748Y0002367716J-0000007874D01*
G01*
G37*
D10*
X0000675787Y0002350000D03*
X0000626574Y0002350000D03*
X0000577362Y0002350000D03*
X0000528149Y0002350000D03*
X0000478937Y0002350000D03*
D11*
X0000500000Y0000099999D03*
D12*
X0000600000Y0000099999D03*
X0000700000Y0000099999D03*
D13*
X0001049999Y0000350787D03*
X0000950000Y0000350787D03*
X0000150000Y0002149999D03*
X0000250000Y0002149999D03*
D14*
X0000950000Y0002149999D03*
D15*
X0001049999Y0002149999D03*
D14*
X0000250000Y0000349999D03*
D15*
X0000150000Y0000349999D03*
D14*
X0000549999Y0002149999D03*
D15*
X0000650000Y0002149999D03*
D14*
X0000549999Y0000349999D03*
D15*
X0000650000Y0000349999D03*
G04 next file*
G04 Gerber Fmt 4.6, Leading zero omitted, Abs format (unit mm)*
G04 Created by KiCad (PCBNEW (5.1.10)-1) date 2021-09-22 20:24:30*
G01*
G04 APERTURE LIST*
G04 APERTURE END LIST*
G36*
G01*
X0000191338Y0003417913D02*
X0000226771Y0003417913D01*
G75*
G02*
X0000234645Y0003410039J-0000007874D01*
G01*
X0000234645Y0003394291D01*
G75*
G02*
X0000226771Y0003386417I-0000007874D01*
G01*
X0000191338Y0003386417D01*
G75*
G02*
X0000183464Y0003394291J0000007874D01*
G01*
X0000183464Y0003410039D01*
G75*
G02*
X0000191338Y0003417913I0000007874D01*
G01*
G37*
D26*
X0000209055Y0003352952D03*
X0000209055Y0003303740D03*
X0000209055Y0003254527D03*
X0000209055Y0003205314D03*
X0000209055Y0003156102D03*
D27*
X0002459055Y0003177165D03*
D28*
X0002459055Y0003277165D03*
X0002459055Y0003377165D03*
D29*
X0002208267Y0003727165D03*
X0002208267Y0003627165D03*
X0000409055Y0002827165D03*
X0000409055Y0002927165D03*
D30*
X0000409055Y0003627165D03*
D31*
X0000409055Y0003727165D03*
D30*
X0002209055Y0002927165D03*
D31*
X0002209055Y0002827165D03*
D30*
X0000409055Y0003227165D03*
D31*
X0000409055Y0003327165D03*
D30*
X0002209055Y0003227165D03*
D31*
X0002209055Y0003327165D03*
G04 next file*
G04 Gerber Fmt 4.6, Leading zero omitted, Abs format (unit mm)*
G04 Created by KiCad (PCBNEW (5.1.10)-1) date 2021-09-22 20:24:30*
G01*
G04 APERTURE LIST*
G04 APERTURE END LIST*
G36*
G01*
X0003338937Y0002362637D02*
X0003338937Y0002327204D01*
G75*
G02*
X0003331062Y0002319330I-0000007874D01*
G01*
X0003315314Y0002319330D01*
G75*
G02*
X0003307440Y0002327204J0000007874D01*
G01*
X0003307440Y0002362637D01*
G75*
G02*
X0003315314Y0002370511I0000007874D01*
G01*
X0003331062Y0002370511D01*
G75*
G02*
X0003338937Y0002362637J-0000007874D01*
G01*
G37*
D32*
X0003273976Y0002344921D03*
X0003224763Y0002344921D03*
X0003175551Y0002344921D03*
X0003126338Y0002344921D03*
X0003077125Y0002344921D03*
D33*
X0003098188Y0000094921D03*
D34*
X0003198188Y0000094921D03*
X0003298188Y0000094921D03*
D35*
X0003648188Y0000345708D03*
X0003548188Y0000345708D03*
X0002748188Y0002144921D03*
X0002848188Y0002144921D03*
D36*
X0003548188Y0002144921D03*
D37*
X0003648188Y0002144921D03*
D36*
X0002848188Y0000344921D03*
D37*
X0002748188Y0000344921D03*
D36*
X0003148188Y0002144921D03*
D37*
X0003248188Y0002144921D03*
D36*
X0003148188Y0000344921D03*
D37*
X0003248188Y0000344921D03*
G04 next file*
G04 Gerber Fmt 4.6, Leading zero omitted, Abs format (unit mm)*
G04 Created by KiCad (PCBNEW (5.1.10)-1) date 2021-09-22 20:24:30*
G01*
G04 APERTURE LIST*
G04 APERTURE END LIST*
G36*
G01*
X0002039960Y0002367716D02*
X0002039960Y0002332283D01*
G75*
G02*
X0002032086Y0002324409I-0000007874D01*
G01*
X0002016338Y0002324409D01*
G75*
G02*
X0002008464Y0002332283J0000007874D01*
G01*
X0002008464Y0002367716D01*
G75*
G02*
X0002016338Y0002375590I0000007874D01*
G01*
X0002032086Y0002375590D01*
G75*
G02*
X0002039960Y0002367716J-0000007874D01*
G01*
G37*
D38*
X0001975000Y0002350000D03*
X0001925787Y0002350000D03*
X0001876574Y0002350000D03*
X0001827362Y0002350000D03*
X0001778149Y0002350000D03*
D39*
X0001799212Y0000099999D03*
D40*
X0001899212Y0000099999D03*
X0001999212Y0000099999D03*
D41*
X0002349212Y0000350787D03*
X0002249212Y0000350787D03*
X0001449212Y0002149999D03*
X0001549212Y0002149999D03*
D42*
X0002249212Y0002149999D03*
D43*
X0002349212Y0002149999D03*
D42*
X0001549212Y0000349999D03*
D43*
X0001449212Y0000349999D03*
D42*
X0001849212Y0002149999D03*
D43*
X0001949212Y0002149999D03*
D42*
X0001849212Y0000349999D03*
D43*
X0001949212Y0000349999D03*
M02*