%MOIN*%
%OFA0B0*%
%FSLAX46Y46*%
%IPPOS*%
%LPD*%
%ADD10O,0.031496062992125991X0.051181102362204731*%
%ADD11R,0.066929133858267723X0.066929133858267723*%
%ADD12O,0.066929133858267723X0.066929133858267723*%
%ADD13C,0.066*%
%ADD14R,0.070866141732283464X0.070866141732283464*%
%ADD15C,0.070866141732283464*%
%ADD16C,0.023622047244094488*%
%ADD17C,0.016*%
%ADD18C,0.012000000000000002*%
%ADD29O,0.051181102362204731X0.031496062992125991*%
%ADD30R,0.066929133858267723X0.066929133858267723*%
%ADD31O,0.066929133858267723X0.066929133858267723*%
%ADD32C,0.066*%
%ADD33R,0.070866141732283464X0.070866141732283464*%
%ADD34C,0.070866141732283464*%
%ADD35C,0.023622047244094488*%
%ADD36C,0.016*%
%ADD37C,0.012000000000000002*%
%ADD38O,0.031496062992125991X0.051181102362204731*%
%ADD39R,0.066929133858267723X0.066929133858267723*%
%ADD40O,0.066929133858267723X0.066929133858267723*%
%ADD41C,0.066*%
%ADD42R,0.070866141732283464X0.070866141732283464*%
%ADD43C,0.070866141732283464*%
%ADD44C,0.023622047244094488*%
%ADD45C,0.016*%
%ADD46C,0.012000000000000002*%
%ADD47O,0.031496062992125991X0.051181102362204731*%
%ADD48R,0.066929133858267723X0.066929133858267723*%
%ADD49O,0.066929133858267723X0.066929133858267723*%
%ADD50C,0.066*%
%ADD51R,0.070866141732283464X0.070866141732283464*%
%ADD52C,0.070866141732283464*%
%ADD53C,0.023622047244094488*%
%ADD54C,0.016*%
%ADD55C,0.012000000000000002*%
G01*
G36*
G01*
X0000740748Y0002367716D02*
X0000740748Y0002332283D01*
G75*
G02*
X0000732874Y0002324409I-0000007874D01*
G01*
X0000717125Y0002324409D01*
G75*
G02*
X0000709251Y0002332283J0000007874D01*
G01*
X0000709251Y0002367716D01*
G75*
G02*
X0000717125Y0002375590I0000007874D01*
G01*
X0000732874Y0002375590D01*
G75*
G02*
X0000740748Y0002367716J-0000007874D01*
G01*
G37*
D10*
X0000675787Y0002350000D03*
X0000626574Y0002350000D03*
X0000577362Y0002350000D03*
X0000528149Y0002350000D03*
X0000478937Y0002350000D03*
D11*
X0000500000Y0000099999D03*
D12*
X0000600000Y0000099999D03*
X0000700000Y0000099999D03*
D13*
X0001049999Y0000350787D03*
X0000950000Y0000350787D03*
X0000150000Y0002149999D03*
X0000250000Y0002149999D03*
D14*
X0000950000Y0002149999D03*
D15*
X0001049999Y0002149999D03*
D14*
X0000250000Y0000349999D03*
D15*
X0000150000Y0000349999D03*
D14*
X0000549999Y0002149999D03*
D15*
X0000650000Y0002149999D03*
D14*
X0000549999Y0000349999D03*
D15*
X0000650000Y0000349999D03*
D16*
X0000125000Y0001874999D03*
X0001000000Y0000549999D03*
X0000850000Y0000349999D03*
D17*
X0000478937Y0002324999D02*
X0000475000Y0002324999D01*
X0000475000Y0002324999D02*
X0000400000Y0002249999D01*
X0000400000Y0002249999D02*
X0000199999Y0002249999D01*
X0000150000Y0002199999D02*
X0000150000Y0002149999D01*
X0000199999Y0002249999D02*
X0000150000Y0002199999D01*
X0000549999Y0000349999D02*
X0000250000Y0000349999D01*
D18*
X0000950000Y0002149999D02*
X0000950000Y0002099999D01*
X0000549999Y0002074999D02*
X0000549999Y0002149999D01*
X0000625000Y0002000000D02*
X0000549999Y0002074999D01*
X0000850000Y0002000000D02*
X0000625000Y0002000000D01*
X0000950000Y0002099999D02*
X0000850000Y0002000000D01*
D17*
X0000775000Y0002350000D02*
X0000725000Y0002350000D01*
X0000900000Y0002224999D02*
X0000775000Y0002350000D01*
X0001100000Y0002224999D02*
X0000900000Y0002224999D01*
X0001124999Y0002199999D02*
X0001100000Y0002224999D01*
X0001124999Y0000300000D02*
X0001124999Y0002199999D01*
X0000625000Y0000274999D02*
X0001100000Y0000274999D01*
X0000500000Y0000150000D02*
X0000625000Y0000274999D01*
X0001100000Y0000274999D02*
X0001124999Y0000300000D01*
X0000500000Y0000099999D02*
X0000500000Y0000150000D01*
X0000675787Y0002374212D02*
X0000600000Y0002449999D01*
X0000600000Y0002449999D02*
X0000425000Y0002449999D01*
X0000425000Y0002449999D02*
X0000274999Y0002299999D01*
X0000274999Y0002299999D02*
X0000175000Y0002299999D01*
X0000175000Y0002299999D02*
X0000075000Y0002199999D01*
X0000075000Y0002199999D02*
X0000075000Y0002099999D01*
X0000075000Y0002099999D02*
X0000125000Y0002049999D01*
X0000125000Y0002049999D02*
X0000199999Y0002049999D01*
X0000250000Y0002099999D02*
X0000250000Y0002149999D01*
X0000199999Y0002049999D02*
X0000250000Y0002099999D01*
X0000675787Y0002350000D02*
X0000675000Y0002350000D01*
X0000675787Y0002350000D02*
X0000675787Y0002374212D01*
X0000528149Y0002324999D02*
X0000528149Y0002278149D01*
X0000125000Y0001874999D02*
X0000125000Y0001874999D01*
X0000528149Y0002278149D02*
X0000125000Y0001874999D01*
X0000850000Y0000399999D02*
X0000850000Y0000349999D01*
X0001000000Y0000549999D02*
X0000850000Y0000399999D01*
G04 next file*
G04 Gerber Fmt 4.6, Leading zero omitted, Abs format (unit mm)*
G04 Created by KiCad (PCBNEW (5.1.10)-1) date 2021-09-22 20:24:30*
G01*
G04 APERTURE LIST*
G04 APERTURE END LIST*
G36*
G01*
X0000191338Y0003417913D02*
X0000226771Y0003417913D01*
G75*
G02*
X0000234645Y0003410039J-0000007874D01*
G01*
X0000234645Y0003394291D01*
G75*
G02*
X0000226771Y0003386417I-0000007874D01*
G01*
X0000191338Y0003386417D01*
G75*
G02*
X0000183464Y0003394291J0000007874D01*
G01*
X0000183464Y0003410039D01*
G75*
G02*
X0000191338Y0003417913I0000007874D01*
G01*
G37*
D29*
X0000209055Y0003352952D03*
X0000209055Y0003303740D03*
X0000209055Y0003254527D03*
X0000209055Y0003205314D03*
X0000209055Y0003156102D03*
D30*
X0002459055Y0003177165D03*
D31*
X0002459055Y0003277165D03*
X0002459055Y0003377165D03*
D32*
X0002208267Y0003727165D03*
X0002208267Y0003627165D03*
X0000409055Y0002827165D03*
X0000409055Y0002927165D03*
D33*
X0000409055Y0003627165D03*
D34*
X0000409055Y0003727165D03*
D33*
X0002209055Y0002927165D03*
D34*
X0002209055Y0002827165D03*
D33*
X0000409055Y0003227165D03*
D34*
X0000409055Y0003327165D03*
D33*
X0002209055Y0003227165D03*
D34*
X0002209055Y0003327165D03*
D35*
X0000684055Y0002802165D03*
X0002009055Y0003677165D03*
X0002209055Y0003527165D03*
D36*
X0000234055Y0003156102D02*
X0000234055Y0003152165D01*
X0000234055Y0003152165D02*
X0000309055Y0003077165D01*
X0000309055Y0003077165D02*
X0000309055Y0002877165D01*
X0000359055Y0002827165D02*
X0000409055Y0002827165D01*
X0000309055Y0002877165D02*
X0000359055Y0002827165D01*
X0002209055Y0003227165D02*
X0002209055Y0002927165D01*
D37*
X0000409055Y0003627165D02*
X0000459055Y0003627165D01*
X0000484055Y0003227165D02*
X0000409055Y0003227165D01*
X0000559055Y0003302165D02*
X0000484055Y0003227165D01*
X0000559055Y0003527165D02*
X0000559055Y0003302165D01*
X0000459055Y0003627165D02*
X0000559055Y0003527165D01*
D36*
X0000209055Y0003452165D02*
X0000209055Y0003402165D01*
X0000334055Y0003577165D02*
X0000209055Y0003452165D01*
X0000334055Y0003777165D02*
X0000334055Y0003577165D01*
X0000359055Y0003802165D02*
X0000334055Y0003777165D01*
X0002259055Y0003802165D02*
X0000359055Y0003802165D01*
X0002284055Y0003302165D02*
X0002284055Y0003777165D01*
X0002409055Y0003177165D02*
X0002284055Y0003302165D01*
X0002284055Y0003777165D02*
X0002259055Y0003802165D01*
X0002459055Y0003177165D02*
X0002409055Y0003177165D01*
X0000184842Y0003352952D02*
X0000109055Y0003277165D01*
X0000109055Y0003277165D02*
X0000109055Y0003102165D01*
X0000109055Y0003102165D02*
X0000259055Y0002952165D01*
X0000259055Y0002952165D02*
X0000259055Y0002852165D01*
X0000259055Y0002852165D02*
X0000359055Y0002752165D01*
X0000359055Y0002752165D02*
X0000459055Y0002752165D01*
X0000459055Y0002752165D02*
X0000509055Y0002802165D01*
X0000509055Y0002802165D02*
X0000509055Y0002877165D01*
X0000459055Y0002927165D02*
X0000409055Y0002927165D01*
X0000509055Y0002877165D02*
X0000459055Y0002927165D01*
X0000209055Y0003352952D02*
X0000209055Y0003352165D01*
X0000209055Y0003352952D02*
X0000184842Y0003352952D01*
X0000234055Y0003205314D02*
X0000280905Y0003205314D01*
X0000684055Y0002802165D02*
X0000684055Y0002802165D01*
X0000280905Y0003205314D02*
X0000684055Y0002802165D01*
X0002159055Y0003527165D02*
X0002209055Y0003527165D01*
X0002009055Y0003677165D02*
X0002159055Y0003527165D01*
G04 next file*
G04 Gerber Fmt 4.6, Leading zero omitted, Abs format (unit mm)*
G04 Created by KiCad (PCBNEW (5.1.10)-1) date 2021-09-22 20:24:30*
G01*
G04 APERTURE LIST*
G04 APERTURE END LIST*
G36*
G01*
X0003338937Y0002362637D02*
X0003338937Y0002327204D01*
G75*
G02*
X0003331062Y0002319330I-0000007874D01*
G01*
X0003315314Y0002319330D01*
G75*
G02*
X0003307440Y0002327204J0000007874D01*
G01*
X0003307440Y0002362637D01*
G75*
G02*
X0003315314Y0002370511I0000007874D01*
G01*
X0003331062Y0002370511D01*
G75*
G02*
X0003338937Y0002362637J-0000007874D01*
G01*
G37*
D38*
X0003273976Y0002344921D03*
X0003224763Y0002344921D03*
X0003175551Y0002344921D03*
X0003126338Y0002344921D03*
X0003077125Y0002344921D03*
D39*
X0003098188Y0000094921D03*
D40*
X0003198188Y0000094921D03*
X0003298188Y0000094921D03*
D41*
X0003648188Y0000345708D03*
X0003548188Y0000345708D03*
X0002748188Y0002144921D03*
X0002848188Y0002144921D03*
D42*
X0003548188Y0002144921D03*
D43*
X0003648188Y0002144921D03*
D42*
X0002848188Y0000344921D03*
D43*
X0002748188Y0000344921D03*
D42*
X0003148188Y0002144921D03*
D43*
X0003248188Y0002144921D03*
D42*
X0003148188Y0000344921D03*
D43*
X0003248188Y0000344921D03*
D44*
X0002723188Y0001869921D03*
X0003598188Y0000544921D03*
X0003448188Y0000344921D03*
D45*
X0003077125Y0002319921D02*
X0003073188Y0002319921D01*
X0003073188Y0002319921D02*
X0002998188Y0002244921D01*
X0002998188Y0002244921D02*
X0002798188Y0002244921D01*
X0002748188Y0002194921D02*
X0002748188Y0002144921D01*
X0002798188Y0002244921D02*
X0002748188Y0002194921D01*
X0003148188Y0000344921D02*
X0002848188Y0000344921D01*
D46*
X0003548188Y0002144921D02*
X0003548188Y0002094921D01*
X0003148188Y0002069921D02*
X0003148188Y0002144921D01*
X0003223188Y0001994921D02*
X0003148188Y0002069921D01*
X0003448188Y0001994921D02*
X0003223188Y0001994921D01*
X0003548188Y0002094921D02*
X0003448188Y0001994921D01*
D45*
X0003373188Y0002344921D02*
X0003323188Y0002344921D01*
X0003498188Y0002219921D02*
X0003373188Y0002344921D01*
X0003698188Y0002219921D02*
X0003498188Y0002219921D01*
X0003723188Y0002194921D02*
X0003698188Y0002219921D01*
X0003723188Y0000294921D02*
X0003723188Y0002194921D01*
X0003223188Y0000269921D02*
X0003698188Y0000269921D01*
X0003098188Y0000144921D02*
X0003223188Y0000269921D01*
X0003698188Y0000269921D02*
X0003723188Y0000294921D01*
X0003098188Y0000094921D02*
X0003098188Y0000144921D01*
X0003273976Y0002369133D02*
X0003198188Y0002444921D01*
X0003198188Y0002444921D02*
X0003023188Y0002444921D01*
X0003023188Y0002444921D02*
X0002873188Y0002294921D01*
X0002873188Y0002294921D02*
X0002773188Y0002294921D01*
X0002773188Y0002294921D02*
X0002673188Y0002194921D01*
X0002673188Y0002194921D02*
X0002673188Y0002094921D01*
X0002673188Y0002094921D02*
X0002723188Y0002044921D01*
X0002723188Y0002044921D02*
X0002798188Y0002044921D01*
X0002848188Y0002094921D02*
X0002848188Y0002144921D01*
X0002798188Y0002044921D02*
X0002848188Y0002094921D01*
X0003273976Y0002344921D02*
X0003273188Y0002344921D01*
X0003273976Y0002344921D02*
X0003273976Y0002369133D01*
X0003126338Y0002319921D02*
X0003126338Y0002273070D01*
X0002723188Y0001869921D02*
X0002723188Y0001869921D01*
X0003126338Y0002273070D02*
X0002723188Y0001869921D01*
X0003448188Y0000394921D02*
X0003448188Y0000344921D01*
X0003598188Y0000544921D02*
X0003448188Y0000394921D01*
G04 next file*
G04 Gerber Fmt 4.6, Leading zero omitted, Abs format (unit mm)*
G04 Created by KiCad (PCBNEW (5.1.10)-1) date 2021-09-22 20:24:30*
G01*
G04 APERTURE LIST*
G04 APERTURE END LIST*
G36*
G01*
X0002039960Y0002367716D02*
X0002039960Y0002332283D01*
G75*
G02*
X0002032086Y0002324409I-0000007874D01*
G01*
X0002016338Y0002324409D01*
G75*
G02*
X0002008464Y0002332283J0000007874D01*
G01*
X0002008464Y0002367716D01*
G75*
G02*
X0002016338Y0002375590I0000007874D01*
G01*
X0002032086Y0002375590D01*
G75*
G02*
X0002039960Y0002367716J-0000007874D01*
G01*
G37*
D47*
X0001975000Y0002350000D03*
X0001925787Y0002350000D03*
X0001876574Y0002350000D03*
X0001827362Y0002350000D03*
X0001778149Y0002350000D03*
D48*
X0001799212Y0000099999D03*
D49*
X0001899212Y0000099999D03*
X0001999212Y0000099999D03*
D50*
X0002349212Y0000350787D03*
X0002249212Y0000350787D03*
X0001449212Y0002149999D03*
X0001549212Y0002149999D03*
D51*
X0002249212Y0002149999D03*
D52*
X0002349212Y0002149999D03*
D51*
X0001549212Y0000349999D03*
D52*
X0001449212Y0000349999D03*
D51*
X0001849212Y0002149999D03*
D52*
X0001949212Y0002149999D03*
D51*
X0001849212Y0000349999D03*
D52*
X0001949212Y0000349999D03*
D53*
X0001424212Y0001874999D03*
X0002299212Y0000549999D03*
X0002149212Y0000349999D03*
D54*
X0001778149Y0002324999D02*
X0001774212Y0002324999D01*
X0001774212Y0002324999D02*
X0001699212Y0002249999D01*
X0001699212Y0002249999D02*
X0001499212Y0002249999D01*
X0001449212Y0002199999D02*
X0001449212Y0002149999D01*
X0001499212Y0002249999D02*
X0001449212Y0002199999D01*
X0001849212Y0000349999D02*
X0001549212Y0000349999D01*
D55*
X0002249212Y0002149999D02*
X0002249212Y0002099999D01*
X0001849212Y0002074999D02*
X0001849212Y0002149999D01*
X0001924212Y0002000000D02*
X0001849212Y0002074999D01*
X0002149212Y0002000000D02*
X0001924212Y0002000000D01*
X0002249212Y0002099999D02*
X0002149212Y0002000000D01*
D54*
X0002074212Y0002350000D02*
X0002024212Y0002350000D01*
X0002199212Y0002224999D02*
X0002074212Y0002350000D01*
X0002399212Y0002224999D02*
X0002199212Y0002224999D01*
X0002424212Y0002199999D02*
X0002399212Y0002224999D01*
X0002424212Y0000300000D02*
X0002424212Y0002199999D01*
X0001924212Y0000274999D02*
X0002399212Y0000274999D01*
X0001799212Y0000150000D02*
X0001924212Y0000274999D01*
X0002399212Y0000274999D02*
X0002424212Y0000300000D01*
X0001799212Y0000099999D02*
X0001799212Y0000150000D01*
X0001975000Y0002374212D02*
X0001899212Y0002449999D01*
X0001899212Y0002449999D02*
X0001724212Y0002449999D01*
X0001724212Y0002449999D02*
X0001574212Y0002299999D01*
X0001574212Y0002299999D02*
X0001474212Y0002299999D01*
X0001474212Y0002299999D02*
X0001374212Y0002199999D01*
X0001374212Y0002199999D02*
X0001374212Y0002099999D01*
X0001374212Y0002099999D02*
X0001424212Y0002049999D01*
X0001424212Y0002049999D02*
X0001499212Y0002049999D01*
X0001549212Y0002099999D02*
X0001549212Y0002149999D01*
X0001499212Y0002049999D02*
X0001549212Y0002099999D01*
X0001975000Y0002350000D02*
X0001974212Y0002350000D01*
X0001975000Y0002350000D02*
X0001975000Y0002374212D01*
X0001827362Y0002324999D02*
X0001827362Y0002278149D01*
X0001424212Y0001874999D02*
X0001424212Y0001874999D01*
X0001827362Y0002278149D02*
X0001424212Y0001874999D01*
X0002149212Y0000399999D02*
X0002149212Y0000349999D01*
X0002299212Y0000549999D02*
X0002149212Y0000399999D01*
M02*