%
M48
METRIC,000.000
T01C0.50
%
T01
X026798Y023110
X025798Y023110
X024798Y023110
X023798Y023110
X022798Y023110
X021798Y023110
X021742Y024750
X022742Y024750
X023742Y024750
X024742Y024750
X025742Y024750
X051049Y009160
X051049Y010160
X051049Y011160
X051049Y012160
X051049Y013160
X051049Y014160
X052889Y013898
X052889Y012898
X052889Y011898
X052889Y010898
X052889Y009898
X052889Y008898
X052889Y036898
X052889Y035898
X052889Y034898
X052889Y033898
X052889Y032898
X052889Y031898
X051049Y032160
X051049Y033160
X051049Y034160
X051049Y035160
X051049Y036160
X051049Y037160
X012798Y073110
X011798Y073110
X010798Y073110
X009798Y073110
X008798Y073110
X008742Y074750
X009742Y074750
X010742Y074750
X011742Y074750
X012742Y074750
X013742Y074750
X039798Y073110
X038798Y073110
X037798Y073110
X036798Y073110
X035798Y073110
X034798Y073110
X034742Y074750
X035742Y074750
X036742Y074750
X037742Y074750
X038742Y074750
X039742Y074750
X012798Y048110
X011798Y048110
X010798Y048110
X009798Y048110
X008798Y048110
X007798Y048110
X007742Y049750
X008742Y049750
X009742Y049750
X010742Y049750
X011742Y049750
X012742Y049750
X039798Y048110
X038798Y048110
X037798Y048110
X036798Y048110
X035798Y048110
X034798Y048110
X034742Y049750
X035742Y049750
X036742Y049750
X037742Y049750
X038742Y049750
X039742Y049750
M30