G04 #@! TF.FileFunction,Soldermask,Top*
%FSLAX46Y46*%
G04 Gerber Fmt 4.6, Leading zero omitted, Abs format (unit mm)*
G04 Created by KiCad (PCBNEW (2015-08-15 BZR 6092)-product) date 11/30/2015 7:36:40 PM*
%MOMM*%
G01*
G04 APERTURE LIST*
%ADD10C,0.100000*%
%ADD11C,1.998980*%
%ADD12C,1.524000*%
%ADD13R,1.524000X1.524000*%
%ADD14O,1.524000X1.524000*%
%ADD15C,2.286000*%
%ADD16C,17.780000*%
%ADD17R,1.397000X1.397000*%
%ADD18C,1.397000*%
%ADD19C,2.000000*%
%ADD20C,1.900000*%
%ADD21C,1.676400*%
%ADD22C,2.540000*%
%ADD23O,3.048000X2.540000*%
%ADD24C,0.330200*%
%ADD25C,1.778000*%
%ADD26C,7.620000*%
%ADD27R,1.800860X1.597660*%
%ADD28R,1.700000X0.900000*%
G04 APERTURE END LIST*
D10*
D11*
X169959097Y-98654771D03*
X167352903Y-105815229D03*
D12*
X143129000Y-86614000D03*
D13*
X143129000Y-89154000D03*
D12*
X140589000Y-86614000D03*
X140589000Y-89154000D03*
X138049000Y-86614000D03*
D14*
X138049000Y-89154000D03*
D15*
X118745000Y-86614000D03*
X118745000Y-107442000D03*
X121793000Y-86614000D03*
X121793000Y-107442000D03*
D16*
X120269000Y-97028000D03*
D17*
X136779000Y-93218000D03*
D18*
X136779000Y-95758000D03*
X136779000Y-98298000D03*
X136779000Y-100838000D03*
X144399000Y-100838000D03*
X144399000Y-98298000D03*
X144399000Y-95758000D03*
X144399000Y-93218000D03*
X146431000Y-89154000D03*
X146431000Y-91694000D03*
D19*
X170180000Y-102362000D03*
D20*
X171976051Y-104158051D03*
D21*
X169154974Y-90179026D03*
X170951026Y-88382974D03*
D22*
X127649131Y-85837869D02*
X127289921Y-86197079D01*
D23*
X132918200Y-94234000D03*
D22*
X114158869Y-85837869D02*
X114518079Y-86197079D01*
D23*
X148259800Y-99822000D03*
D22*
X173685743Y-86801486D02*
X173269613Y-87092862D01*
X167244869Y-91962131D02*
X167604079Y-91602921D01*
X133244810Y-108251065D02*
X133571346Y-107861915D01*
X147933190Y-108251065D02*
X147606654Y-107861915D01*
D23*
X148259800Y-94234000D03*
D22*
X148002065Y-85873810D02*
X147612915Y-86200346D01*
X133244810Y-85804935D02*
X133571346Y-86194085D01*
D23*
X132918200Y-99822000D03*
D22*
X114158869Y-108218131D02*
X114518079Y-107858921D01*
X127649131Y-108218131D02*
X127289921Y-107858921D01*
X153274869Y-98283869D02*
X153634079Y-98643079D01*
X162193131Y-108472131D02*
X161833921Y-108112921D01*
D12*
X136525000Y-106426000D03*
X139065000Y-106426000D03*
X141605000Y-106426000D03*
X141605000Y-103886000D03*
X139065000Y-103886000D03*
X136525000Y-103886000D03*
D23*
X161848800Y-93091000D03*
X153492200Y-85725000D03*
D22*
X173623131Y-105932131D02*
X173263921Y-105572921D01*
X167319486Y-98221257D02*
X167610862Y-98637387D01*
D24*
X129413000Y-91694000D03*
X129413000Y-89662000D03*
X129413000Y-90678000D03*
X131445000Y-91694000D03*
X131445000Y-89662000D03*
X131445000Y-90678000D03*
X129413000Y-104394000D03*
X129413000Y-102362000D03*
X129413000Y-103378000D03*
X131445000Y-104394000D03*
X131445000Y-102362000D03*
X131445000Y-103378000D03*
X149733000Y-104394000D03*
X149733000Y-102362000D03*
X149733000Y-103378000D03*
X151765000Y-104394000D03*
X151765000Y-102362000D03*
X151765000Y-103378000D03*
X163703000Y-103124000D03*
X163703000Y-101092000D03*
X163703000Y-102108000D03*
X165735000Y-90424000D03*
X165735000Y-88392000D03*
X165735000Y-89408000D03*
X163703000Y-90424000D03*
X163703000Y-88392000D03*
X163703000Y-89408000D03*
X165735000Y-103124000D03*
X165735000Y-101092000D03*
X165735000Y-102108000D03*
X149733000Y-91694000D03*
X149733000Y-89662000D03*
X149733000Y-90678000D03*
X151765000Y-91694000D03*
X151765000Y-89662000D03*
X151765000Y-90678000D03*
X171450000Y-96647000D03*
X169418000Y-96647000D03*
X170434000Y-96647000D03*
X171450000Y-93599000D03*
X169418000Y-93599000D03*
X170434000Y-93599000D03*
D25*
X154584223Y-92847552D03*
X153269422Y-87940649D03*
X161944578Y-90875351D03*
X160629777Y-85968448D03*
D26*
X157607000Y-89408000D03*
D19*
X160107000Y-103378000D03*
X155107000Y-103378000D03*
D27*
X145034000Y-108353860D03*
X145034000Y-105514140D03*
D28*
X147574000Y-102182000D03*
X147574000Y-105082000D03*
M02*
