G04 #@! TF.FileFunction,Copper,L1,Top,Signal*
%FSLAX46Y46*%
G04 Gerber Fmt 4.6, Leading zero omitted, Abs format (unit mm)*
G04 Created by KiCad (PCBNEW (2015-08-15 BZR 6092)-product) date 3/22/2016 8:23:16 PM*
%MOMM*%
G01*
G04 APERTURE LIST*
%ADD10C,0.100000*%
%ADD11C,1.727200*%
%ADD12C,2.032000*%
%ADD13O,2.032000X2.032000*%
%ADD14R,1.727200X2.032000*%
%ADD15O,1.727200X2.032000*%
%ADD16R,1.060000X0.650000*%
%ADD17R,1.800860X1.597660*%
%ADD18R,1.700000X0.900000*%
%ADD19C,0.406400*%
G04 APERTURE END LIST*
D10*
G36*
X132822082Y-96521973D02*
X133685682Y-98017773D01*
X131925918Y-99033773D01*
X131062318Y-97537973D01*
X132822082Y-96521973D01*
X132822082Y-96521973D01*
G37*
D11*
X133735982Y-99832095D02*
X133472018Y-99984495D01*
X135005982Y-102031800D02*
X134742018Y-102184200D01*
D10*
G36*
X143000318Y-102360027D02*
X143863918Y-100864227D01*
X145623682Y-101880227D01*
X144760082Y-103376027D01*
X143000318Y-102360027D01*
X143000318Y-102360027D01*
G37*
D11*
X145410018Y-99913505D02*
X145673982Y-100065905D01*
X146680018Y-97713800D02*
X146943982Y-97866200D01*
D12*
X140970000Y-101600000D03*
D13*
X138430000Y-101600000D03*
D14*
X137160000Y-90170000D03*
D15*
X139700000Y-90170000D03*
X142240000Y-90170000D03*
D16*
X131996000Y-88204000D03*
X131996000Y-89154000D03*
X131996000Y-90104000D03*
X134196000Y-90104000D03*
X134196000Y-88204000D03*
D17*
X145796000Y-87779860D03*
X145796000Y-84940140D03*
D18*
X145796000Y-92890000D03*
X145796000Y-89990000D03*
X149606000Y-95684000D03*
X149606000Y-92784000D03*
X130302000Y-95430000D03*
X130302000Y-92530000D03*
D19*
X149606000Y-92784000D02*
X149532000Y-92784000D01*
X149532000Y-92784000D02*
X146812000Y-95504000D01*
X146812000Y-95504000D02*
X146812000Y-97790000D01*
X131996000Y-90104000D02*
X131996000Y-94826000D01*
X131392000Y-95430000D02*
X130302000Y-95430000D01*
X131996000Y-94826000D02*
X131392000Y-95430000D01*
X131996000Y-90104000D02*
X133030000Y-90104000D01*
X135785860Y-84940140D02*
X145796000Y-84940140D01*
X133096000Y-87630000D02*
X135785860Y-84940140D01*
X133096000Y-90038000D02*
X133096000Y-87630000D01*
X133030000Y-90104000D02*
X133096000Y-90038000D01*
X149606000Y-92784000D02*
X149606000Y-90932000D01*
X147828000Y-86972140D02*
X145796000Y-84940140D01*
X147828000Y-89154000D02*
X147828000Y-86972140D01*
X149606000Y-90932000D02*
X147828000Y-89154000D01*
X142240000Y-90170000D02*
X142240000Y-86360000D01*
X143659860Y-84940140D02*
X145796000Y-84940140D01*
X142240000Y-86360000D02*
X143659860Y-84940140D01*
X145796000Y-87779860D02*
X145796000Y-89990000D01*
X128270000Y-98552000D02*
X131318000Y-101600000D01*
X129032000Y-91694000D02*
X127762000Y-92964000D01*
X127762000Y-92964000D02*
X127762000Y-98044000D01*
X127762000Y-98044000D02*
X128270000Y-98552000D01*
X131996000Y-88204000D02*
X130744000Y-88204000D01*
X129032000Y-89916000D02*
X129032000Y-91186000D01*
X130744000Y-88204000D02*
X129032000Y-89916000D01*
X129032000Y-91186000D02*
X129032000Y-91694000D01*
X141478000Y-105918000D02*
X142367000Y-105029000D01*
X133858000Y-105918000D02*
X141478000Y-105918000D01*
X131318000Y-103378000D02*
X133858000Y-105918000D01*
X131318000Y-101600000D02*
X131318000Y-103378000D01*
X145542000Y-99989705D02*
X145709705Y-99989705D01*
X145709705Y-99989705D02*
X147066000Y-101346000D01*
X140970000Y-103632000D02*
X140970000Y-101600000D01*
X142494000Y-105156000D02*
X142367000Y-105029000D01*
X142367000Y-105029000D02*
X141224000Y-103886000D01*
X141224000Y-103886000D02*
X140970000Y-103632000D01*
X145034000Y-105156000D02*
X142494000Y-105156000D01*
X147066000Y-103124000D02*
X145034000Y-105156000D01*
X147066000Y-101346000D02*
X147066000Y-103124000D01*
X149606000Y-95684000D02*
X149606000Y-98552000D01*
X148336000Y-99822000D02*
X145709705Y-99822000D01*
X149606000Y-98552000D02*
X148336000Y-99822000D01*
X145709705Y-99822000D02*
X145542000Y-99989705D01*
X137160000Y-90170000D02*
X137160000Y-89662000D01*
X137160000Y-89662000D02*
X135702000Y-88204000D01*
X135702000Y-88204000D02*
X134196000Y-88204000D01*
X138430000Y-101600000D02*
X138430000Y-103632000D01*
X132588000Y-100924295D02*
X133604000Y-99908295D01*
X132588000Y-102870000D02*
X132588000Y-100924295D01*
X134620000Y-104902000D02*
X132588000Y-102870000D01*
X137160000Y-104902000D02*
X134620000Y-104902000D01*
X138430000Y-103632000D02*
X137160000Y-104902000D01*
X130302000Y-92530000D02*
X129720000Y-92530000D01*
X129720000Y-92530000D02*
X128778000Y-93472000D01*
X131404295Y-99908295D02*
X133604000Y-99908295D01*
X128778000Y-97282000D02*
X131404295Y-99908295D01*
X128778000Y-93472000D02*
X128778000Y-97282000D01*
X131996000Y-89154000D02*
X131064000Y-89154000D01*
X130302000Y-89916000D02*
X130302000Y-92530000D01*
X131064000Y-89154000D02*
X130302000Y-89916000D01*
X139700000Y-90170000D02*
X139700000Y-91948000D01*
X134196000Y-90104000D02*
X134196000Y-90254000D01*
X134196000Y-90254000D02*
X135890000Y-91948000D01*
X135890000Y-91948000D02*
X139700000Y-91948000D01*
X139700000Y-91948000D02*
X144854000Y-91948000D01*
X144854000Y-91948000D02*
X145796000Y-92890000D01*
M02*
