<?xml version="1.0" standalone="no"?>
 <!DOCTYPE svg PUBLIC "-//W3C//DTD SVG 1.1//EN" 
 "http://www.w3.org/Graphics/SVG/1.1/DTD/svg11.dtd"> 
<svg xmlns="http://www.w3.org/2000/svg" version="1.1" 
    width="4.36118cm" height="2.99974cm" viewBox="0 0 17170 11810 ">
<title>SVG Picture created as BIT-brd.svg date 2016/04/24 14:53:59 </title>
  <desc>Picture generated by PCBNEW </desc>
<g style="fill:#000000; fill-opacity:1;stroke:#000000; stroke-opacity:1;
stroke-linecap:round; stroke-linejoin:round; "
 transform="translate(0 0) scale(1 1)">
</g>
<g style="fill:#000000; fill-opacity:0.0; 
stroke:#000000; stroke-width:-0.000393701; stroke-opacity:1; 
stroke-linecap:round; stroke-linejoin:round;">
</g>
<g style="fill:#000000; fill-opacity:0.0; 
stroke:#000000; stroke-width:0; stroke-opacity:1; 
stroke-linecap:round; stroke-linejoin:round;">
</g>
<g style="fill:#000000; fill-opacity:1.0; 
stroke:#000000; stroke-width:0; stroke-opacity:1; 
stroke-linecap:round; stroke-linejoin:round;">
<polyline style="fill-rule:evenodd;"
points="3336,2789
3336,2533
3753,2533
3753,2789
3336,2789
" /> 
<polyline style="fill-rule:evenodd;"
points="3336,3163
3336,2907
3753,2907
3753,3163
3336,3163
" /> 
<polyline style="fill-rule:evenodd;"
points="3336,3537
3336,3281
3753,3281
3753,3537
3336,3537
" /> 
<polyline style="fill-rule:evenodd;"
points="4202,3537
4202,3281
4619,3281
4619,3537
4202,3537
" /> 
<polyline style="fill-rule:evenodd;"
points="4202,2789
4202,2533
4619,2533
4619,2789
4202,2789
" /> 
<polyline style="fill-rule:evenodd;"
points="9332,2808
8623,2808
8623,2179
9332,2179
9332,2808
" /> 
<polyline style="fill-rule:evenodd;"
points="9332,1690
8623,1690
8623,1061
9332,1061
9332,1690
" /> 
<polyline style="fill-rule:evenodd;"
points="9312,4683
8643,4683
8643,4329
9312,4329
9312,4683
" /> 
<polyline style="fill-rule:evenodd;"
points="9312,3541
8643,3541
8643,3187
9312,3187
9312,3541
" /> 
<polyline style="fill-rule:evenodd;"
points="10812,5783
10143,5783
10143,5429
10812,5429
10812,5783
" /> 
<polyline style="fill-rule:evenodd;"
points="10812,4641
10143,4641
10143,4287
10812,4287
10812,4641
" /> 
<polyline style="fill-rule:evenodd;"
points="3212,5683
2543,5683
2543,5329
3212,5329
3212,5683
" /> 
<polyline style="fill-rule:evenodd;"
points="3212,4541
2543,4541
2543,4187
3212,4187
3212,4541
" /> 
</g> 
</svg>
