G04 #@! TF.FileFunction,Copper,L2,Bot,Signal*
%FSLAX46Y46*%
G04 Gerber Fmt 4.6, Leading zero omitted, Abs format (unit mm)*
G04 Created by KiCad (PCBNEW (2015-08-15 BZR 6092)-product) date 3/20/2016 7:48:22 PM*
%MOMM*%
G01*
G04 APERTURE LIST*
%ADD10C,0.100000*%
%ADD11R,1.270000X1.270000*%
%ADD12C,2.540000*%
%ADD13C,0.685800*%
%ADD14C,0.254000*%
G04 APERTURE END LIST*
D10*
D11*
X216535000Y-100965000D03*
D12*
X217170000Y-101600000D03*
D13*
X210820000Y-89916000D03*
X208915000Y-100330000D03*
X216535000Y-95250000D03*
X208026000Y-89535000D03*
X216154000Y-90678000D03*
D14*
X217420000Y-93650000D02*
X217420000Y-93595000D01*
X210820000Y-89916000D02*
X210820000Y-95250000D01*
X210820000Y-95250000D02*
X210820000Y-98425000D01*
X210820000Y-98425000D02*
X208915000Y-100330000D01*
X210820000Y-98679000D02*
X210820000Y-95250000D01*
X209804000Y-94234000D02*
X210820000Y-95250000D01*
X209550000Y-101600000D02*
X209677000Y-101600000D01*
X209677000Y-101600000D02*
X210820000Y-100457000D01*
X215900000Y-95885000D02*
X216535000Y-95250000D01*
X215900000Y-98171000D02*
X215900000Y-95885000D01*
X213614000Y-100457000D02*
X215900000Y-98171000D01*
X210820000Y-100457000D02*
X213614000Y-100457000D01*
X210820000Y-102870000D02*
X212090000Y-101600000D01*
X208915000Y-102870000D02*
X210820000Y-102870000D01*
X205740000Y-99695000D02*
X208915000Y-102870000D01*
X205740000Y-96266000D02*
X205740000Y-99695000D01*
X205486000Y-96012000D02*
X205740000Y-96266000D01*
X205486000Y-94488000D02*
X205486000Y-96012000D01*
X205740000Y-94234000D02*
X205486000Y-94488000D01*
X205740000Y-92710000D02*
X205740000Y-94234000D01*
X205486000Y-92456000D02*
X205740000Y-92710000D01*
X205486000Y-90932000D02*
X205486000Y-92456000D01*
X206883000Y-89535000D02*
X205486000Y-90932000D01*
X208026000Y-89535000D02*
X206883000Y-89535000D01*
X213868000Y-90678000D02*
X212090000Y-88900000D01*
X216154000Y-90678000D02*
X213868000Y-90678000D01*
M02*
