G04 #@! TF.FileFunction,Soldermask,Top*
%FSLAX46Y46*%
G04 Gerber Fmt 4.6, Leading zero omitted, Abs format (unit mm)*
G04 Created by KiCad (PCBNEW 4.0.7) date 09/22/19 21:58:39*
%MOMM*%
%LPD*%
G01*
G04 APERTURE LIST*
%ADD10C,0.100000*%
%ADD11C,0.300000*%
%ADD12C,0.687500*%
%ADD13C,1.998980*%
%ADD14C,2.286000*%
%ADD15R,1.800000X1.800000*%
%ADD16C,1.800000*%
%ADD17R,1.397000X1.397000*%
%ADD18C,1.397000*%
G04 APERTURE END LIST*
D10*
D11*
X178353084Y-75537143D02*
X178467966Y-75608571D01*
X178715585Y-75608571D01*
X178848322Y-75537143D01*
X178928084Y-75394286D01*
X178937013Y-75322857D01*
X178892965Y-75180000D01*
X178778085Y-75108571D01*
X178592370Y-75108571D01*
X178477489Y-75037143D01*
X178433441Y-74894286D01*
X178442370Y-74822857D01*
X178522132Y-74680000D01*
X178654870Y-74608571D01*
X178840585Y-74608571D01*
X178955465Y-74680000D01*
X179644156Y-75608571D02*
X179529275Y-75537143D01*
X179476299Y-75465714D01*
X179432251Y-75322857D01*
X179485822Y-74894286D01*
X179565584Y-74751429D01*
X179636418Y-74680000D01*
X179769156Y-74608571D01*
X179954870Y-74608571D01*
X180069751Y-74680000D01*
X180122727Y-74751429D01*
X180166774Y-74894286D01*
X180113203Y-75322857D01*
X180033442Y-75465714D01*
X179962608Y-75537143D01*
X179829870Y-75608571D01*
X179644156Y-75608571D01*
X180820346Y-75608571D02*
X180705465Y-75537143D01*
X180661417Y-75394286D01*
X180822132Y-74108571D01*
X181872727Y-75608571D02*
X182060227Y-74108571D01*
X181881655Y-75537143D02*
X181748917Y-75608571D01*
X181501298Y-75608571D01*
X181386417Y-75537143D01*
X181333441Y-75465714D01*
X181289393Y-75322857D01*
X181342964Y-74894286D01*
X181422726Y-74751429D01*
X181493560Y-74680000D01*
X181626298Y-74608571D01*
X181873917Y-74608571D01*
X181988798Y-74680000D01*
X182995940Y-75537143D02*
X182863202Y-75608571D01*
X182615583Y-75608571D01*
X182500702Y-75537143D01*
X182456654Y-75394286D01*
X182528083Y-74822857D01*
X182607845Y-74680000D01*
X182740583Y-74608571D01*
X182988202Y-74608571D01*
X183103083Y-74680000D01*
X183147131Y-74822857D01*
X183129274Y-74965714D01*
X182492369Y-75108571D01*
X183606060Y-75608571D02*
X183731060Y-74608571D01*
X183695345Y-74894286D02*
X183775107Y-74751429D01*
X183845940Y-74680000D01*
X183978679Y-74608571D01*
X184102488Y-74608571D01*
X185958441Y-75608571D02*
X186056655Y-74822857D01*
X186012607Y-74680000D01*
X185897726Y-74608571D01*
X185650107Y-74608571D01*
X185517369Y-74680000D01*
X185967369Y-75537143D02*
X185834631Y-75608571D01*
X185525107Y-75608571D01*
X185410226Y-75537143D01*
X185366178Y-75394286D01*
X185384035Y-75251429D01*
X185463798Y-75108571D01*
X185596535Y-75037143D01*
X185906059Y-75037143D01*
X186038798Y-74965714D01*
X186516774Y-74608571D02*
X187012012Y-74608571D01*
X186764988Y-74108571D02*
X186604273Y-75394286D01*
X186648321Y-75537143D01*
X186763202Y-75608571D01*
X186887012Y-75608571D01*
X160726252Y-75608571D02*
X160913752Y-74108571D01*
X162521490Y-75608571D02*
X162406609Y-75537143D01*
X162362561Y-75394286D01*
X162523276Y-74108571D01*
X163520894Y-75537143D02*
X163388156Y-75608571D01*
X163140537Y-75608571D01*
X163025656Y-75537143D01*
X162981608Y-75394286D01*
X163053037Y-74822857D01*
X163132799Y-74680000D01*
X163265537Y-74608571D01*
X163513156Y-74608571D01*
X163628037Y-74680000D01*
X163672085Y-74822857D01*
X163654228Y-74965714D01*
X163017323Y-75108571D01*
X164688157Y-75608571D02*
X164786371Y-74822857D01*
X164742323Y-74680000D01*
X164627442Y-74608571D01*
X164379823Y-74608571D01*
X164247085Y-74680000D01*
X164697085Y-75537143D02*
X164564347Y-75608571D01*
X164254823Y-75608571D01*
X164139942Y-75537143D01*
X164095894Y-75394286D01*
X164113751Y-75251429D01*
X164193514Y-75108571D01*
X164326251Y-75037143D01*
X164635775Y-75037143D01*
X164768514Y-74965714D01*
X165307204Y-75608571D02*
X165432204Y-74608571D01*
X165396489Y-74894286D02*
X165476251Y-74751429D01*
X165547084Y-74680000D01*
X165679823Y-74608571D01*
X165803632Y-74608571D01*
X166236966Y-74608571D02*
X166111966Y-75608571D01*
X166219108Y-74751429D02*
X166289942Y-74680000D01*
X166422680Y-74608571D01*
X166608394Y-74608571D01*
X166723275Y-74680000D01*
X166767323Y-74822857D01*
X166669109Y-75608571D01*
X167792322Y-75537143D02*
X167659584Y-75608571D01*
X167411965Y-75608571D01*
X167297084Y-75537143D01*
X167253036Y-75394286D01*
X167324465Y-74822857D01*
X167404227Y-74680000D01*
X167536965Y-74608571D01*
X167784584Y-74608571D01*
X167899465Y-74680000D01*
X167943513Y-74822857D01*
X167925656Y-74965714D01*
X167288751Y-75108571D01*
X168959585Y-75608571D02*
X169147085Y-74108571D01*
X168968513Y-75537143D02*
X168835775Y-75608571D01*
X168588156Y-75608571D01*
X168473275Y-75537143D01*
X168420299Y-75465714D01*
X168376251Y-75322857D01*
X168429822Y-74894286D01*
X168509584Y-74751429D01*
X168580418Y-74680000D01*
X168713156Y-74608571D01*
X168960775Y-74608571D01*
X169075656Y-74680000D01*
X170508394Y-74608571D02*
X171003632Y-74608571D01*
X170756608Y-74108571D02*
X170595893Y-75394286D01*
X170639941Y-75537143D01*
X170754822Y-75608571D01*
X170878632Y-75608571D01*
X171497679Y-75608571D02*
X171382798Y-75537143D01*
X171329822Y-75465714D01*
X171285774Y-75322857D01*
X171339345Y-74894286D01*
X171419107Y-74751429D01*
X171489941Y-74680000D01*
X171622679Y-74608571D01*
X171808393Y-74608571D01*
X171923274Y-74680000D01*
X171976250Y-74751429D01*
X172020297Y-74894286D01*
X171966726Y-75322857D01*
X171886965Y-75465714D01*
X171816131Y-75537143D01*
X171683393Y-75608571D01*
X171497679Y-75608571D01*
D12*
X161814315Y-101052143D02*
X162189315Y-98052143D01*
X163236934Y-98052143D01*
X163480982Y-98195000D01*
X163594077Y-98337857D01*
X163689315Y-98623571D01*
X163635743Y-99052143D01*
X163469077Y-99337857D01*
X163320268Y-99480714D01*
X163040506Y-99623571D01*
X161992887Y-99623571D01*
X164564315Y-101052143D02*
X164939315Y-98052143D01*
X165742886Y-101052143D02*
X165939315Y-99480714D01*
X165844077Y-99195000D01*
X165600029Y-99052143D01*
X165207172Y-99052143D01*
X164927410Y-99195000D01*
X164778601Y-99337857D01*
X167052410Y-101052143D02*
X167302410Y-99052143D01*
X167427410Y-98052143D02*
X167278601Y-98195000D01*
X167391696Y-98337857D01*
X167540505Y-98195000D01*
X167427410Y-98052143D01*
X167391696Y-98337857D01*
X168754791Y-101052143D02*
X168510743Y-100909286D01*
X168415506Y-100623571D01*
X168736934Y-98052143D01*
X170998838Y-100909286D02*
X170719077Y-101052143D01*
X170195267Y-101052143D01*
X169951219Y-100909286D01*
X169838124Y-100766429D01*
X169742887Y-100480714D01*
X169850030Y-99623571D01*
X170016696Y-99337857D01*
X170165505Y-99195000D01*
X170445267Y-99052143D01*
X170969077Y-99052143D01*
X171213124Y-99195000D01*
X172552410Y-101052143D02*
X172308362Y-100909286D01*
X172195267Y-100766429D01*
X172100030Y-100480714D01*
X172207173Y-99623571D01*
X172373839Y-99337857D01*
X172522648Y-99195000D01*
X172802410Y-99052143D01*
X173195267Y-99052143D01*
X173439315Y-99195000D01*
X173552410Y-99337857D01*
X173647649Y-99623571D01*
X173540506Y-100480714D01*
X173373838Y-100766429D01*
X173225029Y-100909286D01*
X172945267Y-101052143D01*
X172552410Y-101052143D01*
X174897648Y-99052143D02*
X174647648Y-101052143D01*
X174861934Y-99337857D02*
X175010743Y-99195000D01*
X175290505Y-99052143D01*
X175683362Y-99052143D01*
X175927410Y-99195000D01*
X176022648Y-99480714D01*
X175826219Y-101052143D01*
X179439315Y-98337857D02*
X179588124Y-98195000D01*
X179867886Y-98052143D01*
X180522648Y-98052143D01*
X180766695Y-98195000D01*
X180879791Y-98337857D01*
X180975029Y-98623571D01*
X180939314Y-98909286D01*
X180754791Y-99337857D01*
X178969076Y-101052143D01*
X180671457Y-101052143D01*
X182748838Y-98052143D02*
X183010743Y-98052143D01*
X183254791Y-98195000D01*
X183367886Y-98337857D01*
X183463125Y-98623571D01*
X183522648Y-99195000D01*
X183433362Y-99909286D01*
X183230982Y-100480714D01*
X183064314Y-100766429D01*
X182915505Y-100909286D01*
X182635743Y-101052143D01*
X182373838Y-101052143D01*
X182129791Y-100909286D01*
X182016695Y-100766429D01*
X181921458Y-100480714D01*
X181861934Y-99909286D01*
X181951220Y-99195000D01*
X182153601Y-98623571D01*
X182320267Y-98337857D01*
X182469077Y-98195000D01*
X182748838Y-98052143D01*
X185909553Y-101052143D02*
X184338125Y-101052143D01*
X185123839Y-101052143D02*
X185498839Y-98052143D01*
X185183363Y-98480714D01*
X184885743Y-98766429D01*
X184605982Y-98909286D01*
X187219077Y-101052143D02*
X187742887Y-101052143D01*
X188022649Y-100909286D01*
X188171458Y-100766429D01*
X188486935Y-100337857D01*
X188689315Y-99766429D01*
X188832173Y-98623571D01*
X188736935Y-98337857D01*
X188623839Y-98195000D01*
X188379792Y-98052143D01*
X187855982Y-98052143D01*
X187576220Y-98195000D01*
X187427411Y-98337857D01*
X187260745Y-98623571D01*
X187171459Y-99337857D01*
X187266697Y-99623571D01*
X187379791Y-99766429D01*
X187623839Y-99909286D01*
X188147649Y-99909286D01*
X188427410Y-99766429D01*
X188576221Y-99623571D01*
X188742887Y-99337857D01*
D13*
X188595000Y-81598000D03*
X188595000Y-89598000D03*
D14*
X185674000Y-94234000D03*
X164846000Y-94234000D03*
X185674000Y-91186000D03*
X164846000Y-91186000D03*
D15*
X176530000Y-79248000D03*
D16*
X173990000Y-79248000D03*
D17*
X162560000Y-86995000D03*
D18*
X162560000Y-84455000D03*
X162560000Y-81915000D03*
M02*
