<?xml version="1.0" standalone="no"?>
 <!DOCTYPE svg PUBLIC "-//W3C//DTD SVG 1.1//EN" 
 "http://www.w3.org/Graphics/SVG/1.1/DTD/svg11.dtd"> 
<svg xmlns="http://www.w3.org/2000/svg" version="1.1" 
    width="4.62534cm" height="2.9464cm" viewBox="0 0 18210 11600 ">
<title>SVG Picture created as base-brd.svg date 2017/09/21 21:40:42 </title>
  <desc>Picture generated by PCBNEW </desc>
<g style="fill:#000000; fill-opacity:1;stroke:#000000; stroke-opacity:1;
stroke-linecap:round; stroke-linejoin:round; "
 transform="translate(0 0) scale(1 1)">
</g>
<g style="fill:#000000; fill-opacity:0.0; 
stroke:#000000; stroke-width:-0.000393701; stroke-opacity:1; 
stroke-linecap:round; stroke-linejoin:round;">
</g>
<g style="fill:#840000; fill-opacity:0.0; 
stroke:#840000; stroke-width:-0.000393701; stroke-opacity:1; 
stroke-linecap:round; stroke-linejoin:round;">
</g>
<g style="fill:#840000; fill-opacity:0.0; 
stroke:#840000; stroke-width:0; stroke-opacity:1; 
stroke-linecap:round; stroke-linejoin:round;">
</g>
<g style="fill:#840000; fill-opacity:1.0; 
stroke:#840000; stroke-width:0; stroke-opacity:1; 
stroke-linecap:round; stroke-linejoin:round;">
<polyline style="fill-rule:evenodd;"
points="3100,2380
3219,2499
3141,2577
3022,2458
3100,2380
" /> 
<polyline style="fill-rule:evenodd;"
points="2958,2522
3077,2641
2999,2719
2880,2600
2958,2522
" /> 
<polyline style="fill-rule:evenodd;"
points="4278,4427
4278,4172
4947,4172
4947,4427
4278,4427
" /> 
<polyline style="fill-rule:evenodd;"
points="4278,4927
4278,4672
4947,4672
4947,4927
4278,4927
" /> 
<polyline style="fill-rule:evenodd;"
points="4278,5427
4278,5172
4947,5172
4947,5427
4278,5427
" /> 
<polyline style="fill-rule:evenodd;"
points="4278,5927
4278,5672
4947,5672
4947,5927
4278,5927
" /> 
<polyline style="fill-rule:evenodd;"
points="7152,5927
7152,5672
7821,5672
7821,5927
7152,5927
" /> 
<polyline style="fill-rule:evenodd;"
points="7152,5427
7152,5172
7821,5172
7821,5427
7152,5427
" /> 
<polyline style="fill-rule:evenodd;"
points="7152,4927
7152,4672
7821,4672
7821,4927
7152,4927
" /> 
<polyline style="fill-rule:evenodd;"
points="7152,4427
7152,4172
7821,4172
7821,4427
7152,4427
" /> 
<polyline style="fill-rule:evenodd;"
points="3370,8675
3175,8870
3008,8703
3203,8508
3370,8675
" /> 
<polyline style="fill-rule:evenodd;"
points="3063,8369
2869,8563
2702,8396
2896,8202
3063,8369
" /> 
<polyline style="fill-rule:evenodd;"
points="3174,7868
3174,7631
3410,7631
3410,7868
3174,7868
" /> 
<polyline style="fill-rule:evenodd;"
points="3528,7868
3528,7631
3764,7631
3764,7868
3528,7868
" /> 
<polyline style="fill-rule:evenodd;"
points="9325,8052
9547,8274
9269,8552
9047,8330
9325,8052
" /> 
<polyline style="fill-rule:evenodd;"
points="8830,8547
9052,8769
8774,9047
8552,8825
8830,8547
" /> 
<polyline style="fill-rule:evenodd;"
points="8383,2217
8717,1883
9079,2245
8745,2579
8383,2217
" /> 
<polyline style="fill-rule:evenodd;"
points="9055,2889
9389,2555
9751,2917
9417,3251
9055,2889
" /> 
<polyline style="fill-rule:evenodd;"
points="9137,7472
9137,7827
8862,7827
8862,7472
9137,7472
" /> 
<polyline style="fill-rule:evenodd;"
points="8387,7472
8387,7827
8112,7827
8112,7472
8387,7472
" /> 
<polyline style="fill-rule:evenodd;"
points="8677,3294
8677,3805
8322,3805
8322,3294
8677,3294
" /> 
<polyline style="fill-rule:evenodd;"
points="7777,3294
7777,3805
7422,3805
7422,3294
7777,3294
" /> 
<circle cx="6050" cy="1550" r="590.551" /> 
</g>
<g style="fill:#840000; fill-opacity:1.0; 
stroke:#840000; stroke-width:39.3701; stroke-opacity:1; 
stroke-linecap:round; stroke-linejoin:round;">
</g>
<g style="fill:#840000; fill-opacity:1.0; 
stroke:#840000; stroke-width:0; stroke-opacity:1; 
stroke-linecap:round; stroke-linejoin:round;">
<polyline style="fill-rule:evenodd;"
points="3404,3424
3404,3255
3514,3255
3514,3424
3404,3424
" /> 
<polyline style="fill-rule:evenodd;"
points="3605,3424
3605,3255
3715,3255
3715,3424
3605,3424
" /> 
<polyline style="fill-rule:evenodd;"
points="5459,3296
5459,2803
5853,2803
5853,3296
5459,3296
" /> 
<polyline style="fill-rule:evenodd;"
points="6246,3296
6246,2803
6640,2803
6640,3296
6246,3296
" /> 
<polyline style="fill-rule:evenodd;"
points="6758,8459
6758,8065
8018,8065
8018,8459
6758,8459
" /> 
<polyline style="fill-rule:evenodd;"
points="4081,8459
4081,8065
5341,8065
5341,8459
4081,8459
" /> 
<polyline style="fill-rule:evenodd;"
points="4081,10034
4081,9640
5341,9640
5341,10034
4081,10034
" /> 
<polyline style="fill-rule:evenodd;"
points="6758,10034
6758,9640
8018,9640
8018,10034
6758,10034
" /> 
</g>
<g style="fill:#000000; fill-opacity:1.0; 
stroke:#000000; stroke-width:0; stroke-opacity:1; 
stroke-linecap:round; stroke-linejoin:round;">
</g>
<g style="fill:#840000; fill-opacity:1.0; 
stroke:#840000; stroke-width:0; stroke-opacity:1; 
stroke-linecap:round; stroke-linejoin:round;">
<polyline style="fill-rule:evenodd;"
points="3100,2380
3219,2499
3141,2577
3022,2458
3100,2380
" /> 
<polyline style="fill-rule:evenodd;"
points="2958,2522
3077,2641
2999,2719
2880,2600
2958,2522
" /> 
<polyline style="fill-rule:evenodd;"
points="4278,4427
4278,4172
4947,4172
4947,4427
4278,4427
" /> 
<polyline style="fill-rule:evenodd;"
points="4278,4927
4278,4672
4947,4672
4947,4927
4278,4927
" /> 
<polyline style="fill-rule:evenodd;"
points="4278,5427
4278,5172
4947,5172
4947,5427
4278,5427
" /> 
<polyline style="fill-rule:evenodd;"
points="4278,5927
4278,5672
4947,5672
4947,5927
4278,5927
" /> 
<polyline style="fill-rule:evenodd;"
points="7152,5927
7152,5672
7821,5672
7821,5927
7152,5927
" /> 
<polyline style="fill-rule:evenodd;"
points="7152,5427
7152,5172
7821,5172
7821,5427
7152,5427
" /> 
<polyline style="fill-rule:evenodd;"
points="7152,4927
7152,4672
7821,4672
7821,4927
7152,4927
" /> 
<polyline style="fill-rule:evenodd;"
points="7152,4427
7152,4172
7821,4172
7821,4427
7152,4427
" /> 
<polyline style="fill-rule:evenodd;"
points="3370,8675
3175,8870
3008,8703
3203,8508
3370,8675
" /> 
<polyline style="fill-rule:evenodd;"
points="3063,8369
2869,8563
2702,8396
2896,8202
3063,8369
" /> 
<polyline style="fill-rule:evenodd;"
points="3174,7868
3174,7631
3410,7631
3410,7868
3174,7868
" /> 
<polyline style="fill-rule:evenodd;"
points="3528,7868
3528,7631
3764,7631
3764,7868
3528,7868
" /> 
<polyline style="fill-rule:evenodd;"
points="9325,8052
9547,8274
9269,8552
9047,8330
9325,8052
" /> 
<polyline style="fill-rule:evenodd;"
points="8830,8547
9052,8769
8774,9047
8552,8825
8830,8547
" /> 
<polyline style="fill-rule:evenodd;"
points="8383,2217
8717,1883
9079,2245
8745,2579
8383,2217
" /> 
<polyline style="fill-rule:evenodd;"
points="9055,2889
9389,2555
9751,2917
9417,3251
9055,2889
" /> 
<polyline style="fill-rule:evenodd;"
points="9137,7472
9137,7827
8862,7827
8862,7472
9137,7472
" /> 
<polyline style="fill-rule:evenodd;"
points="8387,7472
8387,7827
8112,7827
8112,7472
8387,7472
" /> 
<polyline style="fill-rule:evenodd;"
points="8677,3294
8677,3805
8322,3805
8322,3294
8677,3294
" /> 
<polyline style="fill-rule:evenodd;"
points="7777,3294
7777,3805
7422,3805
7422,3294
7777,3294
" /> 
<polyline style="fill-rule:evenodd;"
points="3404,3424
3404,3255
3514,3255
3514,3424
3404,3424
" /> 
<polyline style="fill-rule:evenodd;"
points="3605,3424
3605,3255
3715,3255
3715,3424
3605,3424
" /> 
<polyline style="fill-rule:evenodd;"
points="5459,3296
5459,2803
5853,2803
5853,3296
5459,3296
" /> 
<polyline style="fill-rule:evenodd;"
points="6246,3296
6246,2803
6640,2803
6640,3296
6246,3296
" /> 
<polyline style="fill-rule:evenodd;"
points="6758,8459
6758,8065
8018,8065
8018,8459
6758,8459
" /> 
<polyline style="fill-rule:evenodd;"
points="4081,8459
4081,8065
5341,8065
5341,8459
4081,8459
" /> 
<polyline style="fill-rule:evenodd;"
points="4081,10034
4081,9640
5341,9640
5341,10034
4081,10034
" /> 
<polyline style="fill-rule:evenodd;"
points="6758,10034
6758,9640
8018,9640
8018,10034
6758,10034
" /> 
</g>
<g style="fill:#000000; fill-opacity:1.0; 
stroke:#000000; stroke-width:0; stroke-opacity:1; 
stroke-linecap:round; stroke-linejoin:round;">
</g>
<g style="fill:#008484; fill-opacity:1.0; 
stroke:#008484; stroke-width:0; stroke-opacity:1; 
stroke-linecap:round; stroke-linejoin:round;">
</g>
<g style="fill:#008484; fill-opacity:0.0; 
stroke:#008484; stroke-width:0; stroke-opacity:1; 
stroke-linecap:round; stroke-linejoin:round;">
</g>
<g style="fill:#008484; fill-opacity:0.0; 
stroke:#008484; stroke-width:68.8976; stroke-opacity:1; 
stroke-linecap:round; stroke-linejoin:round;">
<path d="M8735 7774
L8643 7643
" />
<path d="M8577 7774
L8577 7499
L8682 7499
L8709 7512
L8722 7525
L8735 7551
L8735 7590
L8722 7617
L8709 7630
L8682 7643
L8577 7643
" />
</g>
<g style="fill:#008484; fill-opacity:0.0; 
stroke:#008484; stroke-width:98.4252; stroke-opacity:1; 
stroke-linecap:round; stroke-linejoin:round;">
<path d="M8171 3778
L8040 3590
" />
<path d="M7946 3778
L7946 3384
L8096 3384
L8134 3403
L8153 3421
L8171 3459
L8171 3515
L8153 3553
L8134 3571
L8096 3590
L7946 3590
" />
<path d="M6171 3190
L6153 3209
L6096 3228
L6059 3228
L6003 3209
L5965 3171
L5946 3134
L5928 3059
L5928 3003
L5946 2928
L5965 2890
L6003 2853
L6059 2834
L6096 2834
L6153 2853
L6171 2871
" />
<path d="M1968 3334
L2006 3334
L2043 3353
L2062 3371
L2081 3409
L2100 3484
L2100 3578
L2081 3653
L2062 3690
L2043 3709
L2006 3728
L1968 3728
L1931 3709
L1912 3690
L1893 3653
L1875 3578
L1875 3484
L1893 3409
L1912 3371
L1931 3353
L1968 3334
" />
<path d="M2250 3371
L2268 3353
L2306 3334
L2400 3334
L2437 3353
L2456 3371
L2475 3409
L2475 3446
L2456 3503
L2231 3728
L2475 3728
" />
<path d="M2718 3334
L2756 3334
L2793 3353
L2812 3371
L2831 3409
L2849 3484
L2849 3578
L2831 3653
L2812 3690
L2793 3709
L2756 3728
L2718 3728
L2681 3709
L2662 3690
L2643 3653
L2624 3578
L2624 3484
L2643 3409
L2662 3371
L2681 3353
L2718 3334
" />
<path d="M3224 3728
L2999 3728
" />
<path d="M3112 3728
L3112 3334
L3074 3390
L3037 3428
L2999 3446
" />
</g>
<g style="fill:#008484; fill-opacity:0.0; 
stroke:#008484; stroke-width:196.85; stroke-opacity:1; 
stroke-linecap:round; stroke-linejoin:round;">
<path d="M1849 7151
L1806 7198
L1688 7245
L1613 7245
L1506 7198
L1443 7104
L1417 7010
L1403 6823
L1421 6682
L1481 6495
L1531 6401
L1617 6307
L1736 6261
L1811 6261
L1917 6307
L1949 6354
" />
<path d="M2175 7245
L2298 6261
" />
<path d="M2513 7245
L2577 6729
L2551 6635
L2482 6589
L2370 6589
L2289 6635
L2245 6682
" />
<path d="M3225 7245
L3289 6729
L3264 6635
L3195 6589
L3045 6589
L2964 6635
" />
<path d="M3231 7198
L3150 7245
L2963 7245
L2893 7198
L2868 7104
L2879 7010
L2929 6917
L3009 6870
L3197 6870
L3278 6823
" />
<path d="M3712 7245
L3643 7198
L3618 7104
L3723 6261
" />
<path d="M4125 7245
L4056 7198
L4030 7104
L4135 6261
" />
<path d="M4731 7198
L4650 7245
L4500 7245
L4431 7198
L4405 7104
L4452 6729
L4501 6635
L4582 6589
L4732 6589
L4801 6635
L4827 6729
L4815 6823
L4428 6917
" />
<path d="M5182 6589
L5100 7245
" />
<path d="M5170 6682
L5213 6635
L5294 6589
L5407 6589
L5476 6635
L5502 6729
L5437 7245
" />
<path d="M6232 6589
L6132 7385
L6083 7479
L6039 7526
L5959 7573
L5846 7573
L5777 7526
" />
<path d="M6155 7198
L6075 7245
L5925 7245
L5856 7198
L5824 7151
L5798 7057
L5833 6776
L5882 6682
L5926 6635
L6007 6589
L6157 6589
L6226 6635
" />
<path d="M6830 7198
L6750 7245
L6600 7245
L6530 7198
L6505 7104
L6552 6729
L6601 6635
L6682 6589
L6832 6589
L6901 6635
L6926 6729
L6915 6823
L6528 6917
" />
<path d="M1443 5698
L1550 5745
L1737 5745
L1818 5698
L1862 5651
L1911 5557
L1923 5464
L1897 5370
L1865 5323
L1796 5276
L1652 5229
L1583 5182
L1551 5135
L1525 5042
L1537 4948
L1586 4854
L1630 4807
L1711 4761
L1898 4761
L2005 4807
" />
<path d="M2225 5745
L2348 4761
L2523 5464
L2873 4761
L2750 5745
" />
<path d="M3125 5745
L3248 4761
L3435 4761
L3542 4807
L3605 4901
L3631 4995
L3645 5182
L3627 5323
L3567 5510
L3517 5604
L3431 5698
L3312 5745
L3125 5745
" />
</g>
<g style="fill:#008484; fill-opacity:0.0; 
stroke:#008484; stroke-width:98.4252; stroke-opacity:1; 
stroke-linecap:round; stroke-linejoin:round;">
<path d="M2668 9034
L2706 9034
L2743 9053
L2762 9071
L2781 9109
L2800 9184
L2800 9278
L2781 9353
L2762 9390
L2743 9409
L2706 9428
L2668 9428
L2631 9409
L2612 9390
L2593 9353
L2575 9278
L2575 9184
L2593 9109
L2612 9071
L2631 9053
L2668 9034
" />
<path d="M3137 9165
L3137 9428
" />
<path d="M3043 9015
L2950 9296
L3193 9296
" />
<path d="M3418 9034
L3456 9034
L3493 9053
L3512 9071
L3531 9109
L3549 9184
L3549 9278
L3531 9353
L3512 9390
L3493 9409
L3456 9428
L3418 9428
L3381 9409
L3362 9390
L3343 9353
L3324 9278
L3324 9184
L3343 9109
L3362 9071
L3381 9053
L3418 9034
" />
<path d="M3699 9071
L3718 9053
L3756 9034
L3849 9034
L3887 9053
L3906 9071
L3924 9109
L3924 9146
L3906 9203
L3681 9428
L3924 9428
" />
<path d="M8168 9134
L8206 9134
L8243 9153
L8262 9171
L8281 9209
L8300 9284
L8300 9378
L8281 9453
L8262 9490
L8243 9509
L8206 9528
L8168 9528
L8131 9509
L8112 9490
L8093 9453
L8075 9378
L8075 9284
L8093 9209
L8112 9171
L8131 9153
L8168 9134
" />
<path d="M8637 9134
L8562 9134
L8525 9153
L8506 9171
L8468 9228
L8450 9303
L8450 9453
L8468 9490
L8487 9509
L8525 9528
L8600 9528
L8637 9509
L8656 9490
L8675 9453
L8675 9359
L8656 9321
L8637 9303
L8600 9284
L8525 9284
L8487 9303
L8468 9321
L8450 9359
" />
<path d="M8918 9134
L8956 9134
L8993 9153
L9012 9171
L9031 9209
L9049 9284
L9049 9378
L9031 9453
L9012 9490
L8993 9509
L8956 9528
L8918 9528
L8881 9509
L8862 9490
L8843 9453
L8824 9378
L8824 9284
L8843 9209
L8862 9171
L8881 9153
L8918 9134
" />
<path d="M9181 9134
L9424 9134
L9293 9284
L9349 9284
L9387 9303
L9406 9321
L9424 9359
L9424 9453
L9406 9490
L9387 9509
L9349 9528
L9237 9528
L9199 9509
L9181 9490
" />
<path d="M9218 3434
L9256 3434
L9293 3453
L9312 3471
L9331 3509
L9350 3584
L9350 3678
L9331 3753
L9312 3790
L9293 3809
L9256 3828
L9218 3828
L9181 3809
L9162 3790
L9143 3753
L9125 3678
L9125 3584
L9143 3509
L9162 3471
L9181 3453
L9218 3434
" />
<path d="M9575 3603
L9537 3584
L9518 3565
L9500 3528
L9500 3509
L9518 3471
L9537 3453
L9575 3434
L9650 3434
L9687 3453
L9706 3471
L9725 3509
L9725 3528
L9706 3565
L9687 3584
L9650 3603
L9575 3603
L9537 3621
L9518 3640
L9500 3678
L9500 3753
L9518 3790
L9537 3809
L9575 3828
L9650 3828
L9687 3809
L9706 3790
L9725 3753
L9725 3678
L9706 3640
L9687 3621
L9650 3603
" />
<path d="M9968 3434
L10006 3434
L10043 3453
L10062 3471
L10081 3509
L10099 3584
L10099 3678
L10081 3753
L10062 3790
L10043 3809
L10006 3828
L9968 3828
L9931 3809
L9912 3790
L9893 3753
L9874 3678
L9874 3584
L9893 3509
L9912 3471
L9931 3453
L9968 3434
" />
<path d="M10456 3434
L10268 3434
L10249 3621
L10268 3603
L10306 3584
L10399 3584
L10437 3603
L10456 3621
L10474 3659
L10474 3753
L10456 3790
L10437 3809
L10399 3828
L10306 3828
L10268 3809
L10249 3790
" />
</g>
<g style="fill:#008484; fill-opacity:0.0; 
stroke:#008484; stroke-width:59.0551; stroke-opacity:1; 
stroke-linecap:round; stroke-linejoin:round;">
<path d="M5187 5090
L5375 5090
" />
<path d="M5150 5203
L5281 4809
L5412 5203
" />
<path d="M5487 4809
L5712 4809
" />
<path d="M5600 5203
L5600 4809
" />
<path d="M5787 4809
L6012 4809
" />
<path d="M5900 5203
L5900 4809
" />
<path d="M6143 5203
L6143 4809
" />
<path d="M6331 5203
L6331 4809
L6556 5203
L6556 4809
" />
<path d="M6818 5015
L6818 5203
" />
<path d="M6687 4809
L6818 5015
L6949 4809
" />
<path d="M5825 5627
L5787 5609
L5768 5590
L5750 5552
L5750 5534
L5768 5496
L5787 5477
L5825 5459
L5900 5459
L5937 5477
L5956 5496
L5975 5534
L5975 5552
L5956 5590
L5937 5609
L5900 5627
L5825 5627
L5787 5646
L5768 5665
L5750 5702
L5750 5777
L5768 5815
L5787 5834
L5825 5852
L5900 5852
L5937 5834
L5956 5815
L5975 5777
L5975 5702
L5956 5665
L5937 5646
L5900 5627
" />
<path d="M6331 5459
L6143 5459
L6124 5646
L6143 5627
L6181 5609
L6274 5609
L6312 5627
L6331 5646
L6349 5684
L6349 5777
L6331 5815
L6312 5834
L6274 5852
L6181 5852
L6143 5834
L6124 5815
" />
</g>
<g style="fill:#008484; fill-opacity:0.0; 
stroke:#008484; stroke-width:39.3701; stroke-opacity:1; 
stroke-linecap:round; stroke-linejoin:round;">
<path d="M3262 2337
L3191 2408
" />
<path d="M3332 2267
L3403 2196
" />
<path d="M3403 2337
L3262 2196
" />
<path d="M3332 2267
L3191 2267
" />
<path d="M3332 2267
L3332 2408
" />
<path d="M3332 2408
L3191 2267
" />
</g>
<g style="fill:#008484; fill-opacity:0.0; 
stroke:#008484; stroke-width:59.0551; stroke-opacity:1; 
stroke-linecap:round; stroke-linejoin:round;">
<path d="M3140 2704
L3204 2640
" />
<path d="M2959 2395
L2895 2459
" />
</g>
<g style="fill:#008484; fill-opacity:0.0; 
stroke:#008484; stroke-width:39.3701; stroke-opacity:1; 
stroke-linecap:round; stroke-linejoin:round;">
<circle cx="5250" cy="4350" r="100" /> 
</g>
<g style="fill:#008484; fill-opacity:0.0; 
stroke:#008484; stroke-width:59.0551; stroke-opacity:1; 
stroke-linecap:round; stroke-linejoin:round;">
<path d="M4967 3965
L4967 4083
" />
<path d="M7132 3965
L7132 4083
" />
<path d="M7132 6134
L7132 6016
" />
<path d="M4967 6134
L4967 6016
" />
<path d="M4967 3965
L7132 3965
" />
<path d="M4967 6134
L7132 6134
" />
<path d="M4967 4083
L4278 4083
" />
</g>
<g style="fill:#008484; fill-opacity:0.0; 
stroke:#008484; stroke-width:39.3701; stroke-opacity:1; 
stroke-linecap:round; stroke-linejoin:round;">
<path d="M3008 8508
L3161 8494
" />
<path d="M3161 8494
L2994 8661
" />
<path d="M2994 8661
L3008 8508
" />
<path d="M3077 8410
L2910 8577
" />
</g>
<g style="fill:#008484; fill-opacity:0.0; 
stroke:#008484; stroke-width:59.0551; stroke-opacity:1; 
stroke-linecap:round; stroke-linejoin:round;">
<path d="M2590 8396
L3119 8925
" />
<path d="M2896 8090
L3425 8619
" />
<path d="M3548 7543
L3351 7543
" />
<path d="M3351 7956
L3548 7956
" />
<path d="M9105 8494
L9147 8452
" />
<path d="M8952 8647
L9008 8591
" />
<path d="M9022 8577
L9008 8396
" />
<path d="M9008 8396
L9203 8591
" />
<path d="M9203 8591
L8994 8605
" />
<path d="M8994 8605
L9008 8591
" />
<path d="M8882 8494
L9091 8703
" />
<path d="M8896 9009
L9425 8480
" />
<path d="M8590 8703
L9119 8174
" />
<path d="M8966 2466
L8924 2424
" />
<path d="M9203 2703
L9105 2605
" />
<path d="M9119 2619
L8813 2619
" />
<path d="M8813 2619
L9119 2313
" />
<path d="M9119 2313
L9119 2619
" />
<path d="M9050 2744
L9008 2786
" />
<path d="M9244 2550
L9286 2508
" />
<path d="M9704 2786
L8952 2034
" />
<path d="M9286 3204
L8534 2452
" />
<path d="M9050 2744
L9244 2550
" />
<path d="M8453 7384
L8846 7384
" />
<path d="M8846 7915
L8453 7915
" />
<path d="M7813 3205
L8286 3205
" />
<path d="M8286 3894
L7813 3894
" />
<path d="M3605 3166
L3514 3166
" />
<path d="M3514 3513
L3605 3513
" />
<path d="M6246 2715
L5853 2715
" />
<path d="M5853 3384
L6246 3384
" />
<path d="M7329 7868
L7329 7947
" />
<path d="M7329 10231
L7329 10152
" />
<path d="M4770 10231
L4770 10152
" />
<path d="M4770 7868
L4770 7947
" />
<path d="M4770 8577
L4770 9522
" />
<path d="M7329 8577
L7329 9522
" />
<path d="M7329 7868
L4770 7868
" />
<path d="M4770 10231
L7329 10231
" />
<circle cx="6050" cy="9050" r="748.031" /> 
<circle cx="6050" cy="9050" r="590.551" /> 
</g>
<g style="fill:#C2C200; fill-opacity:0.0; 
stroke:#C2C200; stroke-width:59.0551; stroke-opacity:1; 
stroke-linecap:round; stroke-linejoin:round;">
<path d="M5525 9209
L5581 9228
L5675 9228
L5712 9209
L5731 9190
L5750 9153
L5750 9115
L5731 9078
L5712 9059
L5675 9040
L5600 9021
L5562 9003
L5543 8984
L5525 8946
L5525 8909
L5543 8871
L5562 8853
L5600 8834
L5693 8834
L5750 8853
" />
<path d="M5881 8834
L5975 9228
L6050 8946
L6124 9228
L6218 8834
" />
<path d="M6574 9228
L6349 9228
" />
<path d="M6462 9228
L6462 8834
L6424 8890
L6387 8928
L6349 8946
" />
</g>
<g style="fill:#000000; fill-opacity:0.0; 
stroke:#000000; stroke-width:59.0551; stroke-opacity:1; 
stroke-linecap:round; stroke-linejoin:round;">
</g>
<g style="fill:#C2C200; fill-opacity:0.0; 
stroke:#C2C200; stroke-width:59.0551; stroke-opacity:1; 
stroke-linecap:round; stroke-linejoin:round;">
</g>
<g style="fill:#C2C200; fill-opacity:0.0; 
stroke:#C2C200; stroke-width:39.3701; stroke-opacity:1; 
stroke-linecap:round; stroke-linejoin:round;">
<circle cx="6050" cy="5550" r="5315.07" /> 
</g> 
</svg>
