G04 #@! TF.FileFunction,Copper,L1,Top,Signal*
%FSLAX46Y46*%
G04 Gerber Fmt 4.6, Leading zero omitted, Abs format (unit mm)*
G04 Created by KiCad (PCBNEW 4.0.7) date 09/15/19 19:52:21*
%MOMM*%
%LPD*%
G01*
G04 APERTURE LIST*
%ADD10C,0.100000*%
%ADD11R,1.800000X1.800000*%
%ADD12C,1.800000*%
%ADD13C,2.000000*%
%ADD14R,1.700000X1.700000*%
%ADD15O,1.700000X1.700000*%
%ADD16C,0.406400*%
G04 APERTURE END LIST*
D10*
D11*
X153035000Y-109220000D03*
D12*
X153035000Y-111760000D03*
D11*
X153035000Y-105410000D03*
D12*
X153035000Y-102870000D03*
D13*
X158115000Y-82550000D03*
X150495000Y-82550000D03*
X150495000Y-95250000D03*
X158115000Y-95250000D03*
D14*
X158115000Y-85090000D03*
D15*
X158115000Y-87630000D03*
X158115000Y-90170000D03*
X158115000Y-92710000D03*
D11*
X153035000Y-74930000D03*
D12*
X153035000Y-72390000D03*
D11*
X153035000Y-66040000D03*
D12*
X153035000Y-68580000D03*
D16*
X153035000Y-66040000D02*
X151765000Y-66040000D01*
X151765000Y-66040000D02*
X150495000Y-67310000D01*
X158115000Y-85090000D02*
X157480000Y-85090000D01*
X157480000Y-85090000D02*
X156210000Y-83820000D01*
X154305000Y-66040000D02*
X153035000Y-66040000D01*
X156210000Y-67945000D02*
X154305000Y-66040000D01*
X156210000Y-83820000D02*
X156210000Y-67945000D01*
X150495000Y-67310000D02*
X150495000Y-73660000D01*
X150495000Y-73660000D02*
X151765000Y-74930000D01*
X153035000Y-109220000D02*
X153035000Y-105410000D01*
X151765000Y-74930000D02*
X153035000Y-74930000D01*
X153035000Y-102870000D02*
X156210000Y-102870000D01*
X156210000Y-102870000D02*
X158115000Y-100965000D01*
X158115000Y-100965000D02*
X158115000Y-95250000D01*
X154940000Y-73660000D02*
X153670000Y-72390000D01*
X154940000Y-80645000D02*
X154940000Y-73660000D01*
X153670000Y-72390000D02*
X153035000Y-72390000D01*
X153035000Y-82550000D02*
X154940000Y-80645000D01*
X150495000Y-82550000D02*
X153035000Y-82550000D01*
X153035000Y-68580000D02*
X153670000Y-68580000D01*
X153670000Y-68580000D02*
X155575000Y-70485000D01*
X155575000Y-70485000D02*
X155575000Y-86360000D01*
X155575000Y-86360000D02*
X156845000Y-87630000D01*
X156845000Y-87630000D02*
X158115000Y-87630000D01*
X150495000Y-95250000D02*
X151765000Y-95250000D01*
X154305000Y-92710000D02*
X158115000Y-92710000D01*
X151765000Y-95250000D02*
X154305000Y-92710000D01*
M02*
