<?xml version="1.0" encoding="UTF-8" standalone="no"?>
<!-- Created with Inkscape (http://www.inkscape.org/) -->

<svg
   xmlns:dc="http://purl.org/dc/elements/1.1/"
   xmlns:cc="http://creativecommons.org/ns#"
   xmlns:rdf="http://www.w3.org/1999/02/22-rdf-syntax-ns#"
   xmlns:svg="http://www.w3.org/2000/svg"
   xmlns="http://www.w3.org/2000/svg"
   xmlns:sodipodi="http://sodipodi.sourceforge.net/DTD/sodipodi-0.dtd"
   xmlns:inkscape="http://www.inkscape.org/namespaces/inkscape"
   width="210mm"
   height="297mm"
   viewBox="0 0 210 297"
   version="1.1"
   id="svg5297"
   inkscape:version="0.92.3 (2405546, 2018-03-11)"
   sodipodi:docname="edge_cuts2.svg">
  <defs
     id="defs5291" />
  <sodipodi:namedview
     id="base"
     pagecolor="#ffffff"
     bordercolor="#666666"
     borderopacity="1.0"
     inkscape:pageopacity="0.0"
     inkscape:pageshadow="2"
     inkscape:zoom="4.64"
     inkscape:cx="284.4643"
     inkscape:cy="974.23135"
     inkscape:document-units="mm"
     inkscape:current-layer="g4677"
     showgrid="false"
     inkscape:window-width="1601"
     inkscape:window-height="890"
     inkscape:window-x="1972"
     inkscape:window-y="59"
     inkscape:window-maximized="0" />
  <metadata
     id="metadata5294">
    <rdf:RDF>
      <cc:Work
         rdf:about="">
        <dc:format>image/svg+xml</dc:format>
        <dc:type
           rdf:resource="http://purl.org/dc/dcmitype/StillImage" />
        <dc:title />
      </cc:Work>
    </rdf:RDF>
  </metadata>
  <g
     inkscape:label="Edge.Cuts"
     inkscape:groupmode="layer"
     id="layer1">
    <g
       transform="matrix(0.00254001,0,0,0.00254001,45.076698,20.491171)"
       style="fill:none;fill-opacity:0;stroke:#ffcc00;stroke-width:39.36992417;stroke-linecap:round;stroke-linejoin:round;stroke-opacity:1"
       id="g4677">
      <path
         style="color:#000000;font-style:normal;font-variant:normal;font-weight:normal;font-stretch:normal;font-size:medium;line-height:normal;font-family:sans-serif;font-variant-ligatures:normal;font-variant-position:normal;font-variant-caps:normal;font-variant-numeric:normal;font-variant-alternates:normal;font-feature-settings:normal;text-indent:0;text-align:start;text-decoration:none;text-decoration-line:none;text-decoration-style:solid;text-decoration-color:#000000;letter-spacing:normal;word-spacing:normal;text-transform:none;writing-mode:lr-tb;direction:ltr;text-orientation:mixed;dominant-baseline:auto;baseline-shift:baseline;text-anchor:start;white-space:normal;shape-padding:0;clip-rule:nonzero;display:inline;overflow:visible;visibility:visible;opacity:1;isolation:auto;mix-blend-mode:normal;color-interpolation:sRGB;color-interpolation-filters:linearRGB;solid-color:#000000;solid-opacity:1;vector-effect:none;fill:none;fill-opacity:1;fill-rule:nonzero;stroke:#ffff00;stroke-width:39.36992264;stroke-linecap:butt;stroke-linejoin:miter;stroke-miterlimit:4;stroke-dasharray:none;stroke-dashoffset:0;stroke-opacity:1;color-rendering:auto;image-rendering:auto;shape-rendering:auto;text-rendering:auto;enable-background:accumulate"
         d="m 6897.8574,3850.2578 c 256.1662,-10e-5 465.0753,199.9855 479.4571,452.5156 V 5775.457 c -17.7559,37.6266 -36.7532,72.3112 -61.7813,98.586 -25.883,27.1723 -57.5904,46.1123 -104.8164,52.4472 -0.8286,0.1111 -1.6492,0.2749 -2.457,0.4903 l -412.334,110 c -0.3253,0.087 -0.6484,0.1818 -0.9688,0.2851 l -527,170 c -0.4577,0.1475 -0.9098,0.3116 -1.3554,0.4922 l -498,202 c -0.8411,0.3416 -1.6575,0.741 -2.4434,1.1953 -110.3267,63.6969 -241.4171,80.9541 -364.4707,47.9824 -123.0534,-32.9717 -227.9514,-113.4624 -291.6543,-223.7949 -63.7024,-110.3327 -80.9616,-241.4214 -47.9883,-364.4746 32.9716,-123.0533 113.1034,-228.1521 244.5274,-319.6738 0.6337,-0.4412 1.2408,-0.9192 1.8183,-1.4317 390.9852,-347.0478 689.8418,-718.2656 882.5684,-1107.8281 63.959,-117.3084 274.9506,-358.4816 367.2637,-450.7949 90.0818,-90.0815 212.2402,-140.6797 339.6347,-140.6797 z"
         id="path4663"
         inkscape:connector-curvature="0"
         sodipodi:nodetypes="sccsccccccccsccccccs" />
      <path
         style="color:#000000;font-style:normal;font-variant:normal;font-weight:normal;font-stretch:normal;font-size:medium;line-height:normal;font-family:sans-serif;font-variant-ligatures:normal;font-variant-position:normal;font-variant-caps:normal;font-variant-numeric:normal;font-variant-alternates:normal;font-feature-settings:normal;text-indent:0;text-align:start;text-decoration:none;text-decoration-line:none;text-decoration-style:solid;text-decoration-color:#000000;letter-spacing:normal;word-spacing:normal;text-transform:none;writing-mode:lr-tb;direction:ltr;text-orientation:mixed;dominant-baseline:auto;baseline-shift:baseline;text-anchor:start;white-space:normal;shape-padding:0;clip-rule:nonzero;display:inline;overflow:visible;visibility:visible;opacity:1;isolation:auto;mix-blend-mode:normal;color-interpolation:sRGB;color-interpolation-filters:linearRGB;solid-color:#000000;solid-opacity:1;vector-effect:none;fill:none;fill-opacity:1;fill-rule:nonzero;stroke:#ffcc00;stroke-width:39.36992264;stroke-linecap:butt;stroke-linejoin:miter;stroke-miterlimit:4;stroke-dasharray:none;stroke-dashoffset:0;stroke-opacity:1;color-rendering:auto;image-rendering:auto;shape-rendering:auto;text-rendering:auto;enable-background:accumulate"
         d="m 11397.883,3850.2578 c 124.47,-10e-5 226.155,78.7775 344.023,143.9863 88.398,48.9045 248.077,176.7333 311.795,297.3204 l 101.379,210.0273 c 0.03,0.056 0.05,0.1121 0.08,0.168 187.246,378.699 474.754,740.0725 832.227,1054.0468 0.973,0.8551 2.028,1.612 3.15,2.2598 106.341,61.3748 195.189,224.1428 228.44,348.1719 32.987,123.0545 15.742,254.1511 -47.948,364.4883 -0.05,0.09 -0.09,0.1793 -0.138,0.2695 -63.714,110.2148 -168.551,190.6254 -291.528,223.5723 -120.11,32.1788 -237.987,-18.044 -351.519,-83.6153 -0.783,-0.4519 -1.596,-0.8493 -2.434,-1.1894 l -497,-202 c -0.45,-0.1829 -0.907,-0.349 -1.369,-0.4981 l -527,-170 c -0.539,-0.1738 -1.085,-0.3243 -1.637,-0.4511 l -476.726,-109.4786 c -26.084,-12.6705 -49.302,-24.6714 -67.252,-44.8554 -18.313,-20.5912 -32.692,-50.506 -37.742,-103.5957 v -1442.293 c 0.603,-1.9489 0.899,-3.9796 0.878,-6.0195 0,-265.5035 214.812,-480.3147 480.319,-480.3145 z"
         id="path4665"
         inkscape:connector-curvature="0"
         sodipodi:nodetypes="scccccccccscccccccccccss" />
    </g>
    <path
       inkscape:connector-curvature="0"
       style="fill:none;fill-opacity:0;stroke:#ffcc00;stroke-width:0.1;stroke-linecap:round;stroke-linejoin:round;stroke-opacity:1"
       d="m 72.757421,27.426859 c 0,0.701403 0.568601,1.270003 1.270004,1.270002 0.336825,0 0.830083,-0.01221 1.068255,-0.250383 0.373171,-0.234387 0.584647,-0.468775 0.765427,-0.703162 0.08081,-0.139964 0.171378,-0.27336 0.271184,-0.399909 0.30965,-0.392624 0.708197,-0.719326 1.179941,-0.971707 0.623798,-0.333726 1.375577,-0.537499 2.21904,-0.591896 1.686925,-0.108795 3.602394,0.388823 5.325025,1.383385 1.722631,0.994562 3.111317,2.404597 3.860559,3.919915 0.749245,1.515317 0.797671,3.01179 0.134631,4.16021 -0.663041,1.148421 -1.98324,1.854718 -3.670163,1.963513 -1.070213,0.06902 -2.232411,-0.10603 -3.378996,-0.497199 -0.291695,-0.168403 -0.811517,-0.182632 -1.136859,-0.09546 -0.32534,0.08718 -0.602726,0.300018 -0.771141,0.59171 -0.168413,0.291696 -0.214054,0.638345 -0.126884,0.963691 0.08717,0.325347 0.382056,0.713002 0.673748,0.88142 l 1.104903,1.089662 0.89154,1.186183 0.662943,1.267463 0.40894,1.341122 0.14224,1.397003 -0.14224,1.397003 -0.40894,1.341123 -0.662943,1.267463 -0.89154,1.186182 -1.104903,1.089662 -1.297942,0.985523 -1.089663,0.6604 -1.181103,0.586743 -1.262382,0.51308 -1.338583,0.431802 -1.407163,0.3429 -1.468124,0.25146 -1.518923,0.15494 -1.567183,0.05334 -1.564643,-0.05334 -1.518923,-0.15494 -1.468123,-0.25146 -1.407163,-0.3429 -1.338583,-0.431802 -1.264923,-0.51308 -1.178562,-0.586743 -1.089662,-0.6604 -1.297943,-0.985523 -1.104902,-1.089662 -0.894082,-1.186182 -0.660401,-1.267463 -0.408941,-1.341123 -0.142241,-1.397003 0.142241,-1.397003 0.408941,-1.341122 0.660401,-1.267463 0.894082,-1.186183 1.177077,-1.211435 c 0.363871,-0.290188 0.516317,-0.537378 0.603492,-0.862725 0.08718,-0.325347 0.04154,-0.671999 -0.126873,-0.963697 -0.168415,-0.291696 -0.445806,-0.504544 -0.771153,-0.59172 -0.325347,-0.08717 -0.735153,-0.117374 -1.026851,0.05104 -0.236732,0.08027 -0.474104,0.151316 -0.711171,0.212903 -0.905061,0.235126 -1.80566,0.332332 -2.649122,0.277934 -1.686925,-0.108798 -3.007122,-0.815094 -3.670163,-1.963515 -0.663042,-1.14842 -0.614614,-2.644893 0.13463,-4.16021 0.749243,-1.515318 2.137927,-2.925353 3.860558,-3.919915 1.722632,-0.994561 3.6381,-1.49218 5.325025,-1.383385 1.686925,0.108796 3.007122,0.815092 3.670163,1.963513 0.14591,0.336825 0.422904,0.57023 0.661076,0.808402 0.238171,0.238172 0.707112,0.29902 1.043937,0.29902 0.701403,0 1.270003,-0.568599 1.270003,-1.270002 l -0.0022,0.12554 0.0011,-1.269268 c 0.0011,-0.349966 0.285418,-0.634266 0.635024,-0.635003 h 7.620076 c 0.351846,7.37e-4 0.636146,0.285037 0.635003,0.635002 l -0.0011,1.269269"
       id="path4683"
       sodipodi:nodetypes="ccccssssssscscscccccccccccccccccccccccccccccccccccccccscscsssssscscccccccc" />
  </g>
</svg>
