%
M48
METRIC,000.000
T01C0.33
T02C2.01
T03C0.89
T10C0.50
%
T01
X005499Y010998
X019500Y024999
X030399Y004900
X030500Y000998
X005499Y044998
X019500Y058999
X030399Y038900
X030500Y034998
X005499Y078998
X019500Y092999
X030399Y072900
X030500Y068999
X039499Y010998
X053500Y024999
X064399Y004900
X064500Y000998
X073499Y010998
X087500Y024999
X098399Y004900
X098501Y000998
X039499Y044998
X053500Y058999
X064399Y038900
X064500Y034998
X039499Y078998
X053500Y092999
X064399Y072900
X064500Y068999
X073499Y044998
X087500Y058999
X098399Y038900
X098501Y034998
X073499Y078998
X087500Y092999
X098399Y072900
X098501Y068999
T02
X011999Y019500
X011999Y053500
X011999Y087500
X045999Y019500
X079999Y019500
X045999Y053500
X045999Y087500
X079999Y053500
X079999Y087500
T03
X006749Y014400
X006749Y007600
X006749Y048400
X006749Y041600
X006749Y082400
X006749Y075600
X040749Y014400
X040749Y007600
X074749Y014400
X074749Y007600
X040749Y048400
X040749Y041600
X040749Y082400
X040749Y075600
X074749Y048400
X074749Y041600
X074749Y082400
X074749Y075600
T10
X022274Y065673
X021277Y065744
X020278Y065723
X019284Y065612
X018306Y065405
X018057Y067750
X019057Y067750
X020057Y067750
X021057Y067750
X022057Y067750
X023260Y031507
X022274Y031673
X021277Y031744
X020278Y031723
X019284Y031612
X018306Y031405
X019057Y033750
X020057Y033750
X021057Y033750
X022057Y033750
X023057Y033750
X057260Y031507
X056274Y031673
X055277Y031744
X054278Y031723
X053284Y031612
X052306Y031405
X052057Y033750
X053057Y033750
X054057Y033750
X055057Y033750
X056057Y033750
X057057Y033750
X057260Y065507
X056274Y065673
X055277Y065744
X054278Y065723
X053284Y065612
X052306Y065405
X052057Y067750
X053057Y067750
X054057Y067750
X055057Y067750
X056057Y067750
X057057Y067750
X091260Y065507
X090274Y065673
X089277Y065744
X088278Y065723
X087284Y065612
X086306Y065405
X086057Y067750
X087057Y067750
X088057Y067750
X089057Y067750
X090057Y067750
X091057Y067750
X091260Y031507
X090274Y031673
X089277Y031744
X088278Y031723
X087284Y031612
X087057Y033750
X088057Y033750
X089057Y033750
X090057Y033750
X091057Y033750
X065749Y007607
X065749Y008607
X065749Y009607
X065749Y010607
X065749Y011607
X065749Y012607
X067864Y012051
X067766Y011056
X067759Y010057
X067848Y009061
X068028Y008077
X031749Y007607
X031749Y008607
X031749Y009607
X031749Y010607
X031749Y011607
X031749Y012607
X033864Y012051
X033766Y011056
X033759Y010057
X033848Y009061
X034028Y008077
X031749Y075607
X031749Y076607
X031749Y077607
X031749Y078607
X031749Y079607
X031749Y080607
X033864Y080051
X033766Y079056
X033759Y078057
X033848Y077061
X034028Y076078
X065749Y075607
X065749Y076607
X065749Y077607
X065749Y078607
X065749Y079607
X065749Y080607
X067864Y080051
X067766Y079056
X067759Y078057
X067848Y077061
X068028Y076078
M30