M48
;DRILL file {KiCad 4.0.6} date 04/23/19 17:33:21
;FORMAT={-:-/ absolute / inch / decimal}
FMAT,2
INCH,TZ
T1C0.028
T2C0.031
T3C0.032
T4C0.035
T5C0.039
%
G90
G05
M72
T1
X5.8465Y-3.363
X5.8465Y-3.563
X5.9449Y-3.5894
X5.9449Y-3.7894
X6.1024Y-2.9035
X6.2438Y-2.7621
X6.4732Y-4.1634
X6.6732Y-4.1634
X6.8898Y-2.7559
X6.896Y-2.8999
X7.0312Y-2.8973
X7.0374Y-3.0413
X7.2047Y-3.5894
X7.2047Y-3.7894
X7.3031Y-3.363
X7.3031Y-3.563
T2
X6.2697Y-4.0551
X6.2697Y-4.0551
X6.3697Y-4.0551
X6.3697Y-4.0551
X6.4697Y-4.0551
X6.4697Y-4.0551
T3
X5.9449Y-3.3752
X5.9449Y-3.4752
T4
X5.9475Y-3.1966
X5.9817Y-3.1026
X6.1034Y-3.9049
X6.18Y-3.9691
X6.5248Y-2.7559
X6.6248Y-2.7559
X6.9696Y-3.9691
X7.0462Y-3.9049
X7.1679Y-3.1026
X7.2021Y-3.1966
X7.2047Y-3.376
X7.2047Y-3.476
T5
X6.5748Y-4.0551
X6.6748Y-4.0551
X6.7748Y-4.0551
X6.8748Y-4.0551
T0
M30
