G04 #@! TF.FileFunction,Soldermask,Top*
%FSLAX46Y46*%
G04 Gerber Fmt 4.6, Leading zero omitted, Abs format (unit mm)*
G04 Created by KiCad (PCBNEW 4.0.6) date 04/23/19 17:34:01*
%MOMM*%
%LPD*%
G01*
G04 APERTURE LIST*
%ADD10C,0.100000*%
%ADD11C,1.800000*%
%ADD12R,1.676400X1.676400*%
%ADD13C,1.676400*%
%ADD14C,1.400000*%
%ADD15O,1.400000X1.400000*%
%ADD16C,1.400000*%
%ADD17R,1.800000X1.800000*%
%ADD18R,1.700000X1.700000*%
%ADD19O,1.700000X1.700000*%
%ADD20C,1.520000*%
%ADD21R,1.520000X1.520000*%
G04 APERTURE END LIST*
D10*
G36*
X184087907Y-81731315D02*
X182396461Y-82346951D01*
X181780825Y-80655505D01*
X183472271Y-80039869D01*
X184087907Y-81731315D01*
X184087907Y-81731315D01*
G37*
D11*
X182065634Y-78806590D03*
D12*
X151000000Y-85730000D03*
D13*
X151000000Y-88270000D03*
D14*
X148500000Y-90500000D03*
D15*
X148500000Y-85420000D03*
D14*
X169500000Y-105750000D03*
D15*
X164420000Y-105750000D03*
D14*
X178750000Y-77250000D03*
D16*
X175157898Y-73657898D02*
X175157898Y-73657898D01*
D14*
X175000000Y-70000000D03*
D16*
X178592102Y-73592102D02*
X178592102Y-73592102D01*
D14*
X183000000Y-96250000D03*
D15*
X183000000Y-91170000D03*
D14*
X151000000Y-96250000D03*
D15*
X151000000Y-91170000D03*
D14*
X155000000Y-73750000D03*
D16*
X158592102Y-70157898D02*
X158592102Y-70157898D01*
D14*
X185500000Y-90500000D03*
D15*
X185500000Y-85420000D03*
D10*
G36*
X153759175Y-99294591D02*
X154916193Y-97915711D01*
X156295073Y-99072729D01*
X155138055Y-100451609D01*
X153759175Y-99294591D01*
X153759175Y-99294591D01*
G37*
D11*
X156972876Y-100816340D03*
D10*
G36*
X151603539Y-82346951D02*
X149912093Y-81731315D01*
X150527729Y-80039869D01*
X152219175Y-80655505D01*
X151603539Y-82346951D01*
X151603539Y-82346951D01*
G37*
D11*
X151934366Y-78806590D03*
D17*
X165730000Y-70000000D03*
D11*
X168270000Y-70000000D03*
D17*
X183000000Y-85750000D03*
D11*
X183000000Y-88290000D03*
D10*
G36*
X176916193Y-102084289D02*
X175759175Y-100705409D01*
X177138055Y-99548391D01*
X178295073Y-100927271D01*
X176916193Y-102084289D01*
X176916193Y-102084289D01*
G37*
D11*
X178972876Y-99183660D03*
D18*
X167000000Y-103000000D03*
D19*
X169540000Y-103000000D03*
X172080000Y-103000000D03*
X174620000Y-103000000D03*
D20*
X161790000Y-103000000D03*
X164330000Y-103000000D03*
D21*
X159250000Y-103000000D03*
D20*
X161790000Y-103000000D03*
X164330000Y-103000000D03*
D21*
X159250000Y-103000000D03*
M02*
