G04 #@! TF.FileFunction,Copper,L1,Top,Signal*
%FSLAX46Y46*%
G04 Gerber Fmt 4.6, Leading zero omitted, Abs format (unit mm)*
G04 Created by KiCad (PCBNEW (2015-08-15 BZR 6092)-product) date 3/20/2016 7:48:22 PM*
%MOMM*%
G01*
G04 APERTURE LIST*
%ADD10C,0.100000*%
%ADD11R,0.300000X0.730000*%
%ADD12R,0.730000X0.300000*%
%ADD13R,1.250000X1.250000*%
%ADD14R,1.000000X1.500000*%
%ADD15R,1.300000X0.700000*%
%ADD16R,0.700000X1.300000*%
%ADD17R,1.000000X1.250000*%
%ADD18C,0.685800*%
%ADD19C,0.609600*%
%ADD20C,0.254000*%
G04 APERTURE END LIST*
D10*
D11*
X209280000Y-90745000D03*
X208780000Y-90745000D03*
X208280000Y-90745000D03*
X207780000Y-90745000D03*
X207280000Y-90745000D03*
D12*
X206315000Y-91710000D03*
X206315000Y-92210000D03*
X206315000Y-92710000D03*
X206315000Y-93210000D03*
X206315000Y-93710000D03*
D11*
X207280000Y-94675000D03*
X207780000Y-94675000D03*
X208280000Y-94675000D03*
X208780000Y-94675000D03*
X209280000Y-94675000D03*
D12*
X210245000Y-93710000D03*
X210245000Y-93210000D03*
X210245000Y-92710000D03*
X210245000Y-92210000D03*
X210245000Y-91710000D03*
D13*
X207655000Y-93335000D03*
X208905000Y-93335000D03*
X207655000Y-92085000D03*
X208905000Y-92085000D03*
D14*
X211860000Y-99763000D03*
X213360000Y-99763000D03*
X214860000Y-99763000D03*
X214860000Y-95663000D03*
X213360000Y-95663000D03*
X211860000Y-95663000D03*
D15*
X212979000Y-91506000D03*
X212979000Y-93406000D03*
X214884000Y-91506000D03*
X214884000Y-93406000D03*
D16*
X207330000Y-97028000D03*
X209230000Y-97028000D03*
D17*
X207280000Y-99060000D03*
X209280000Y-99060000D03*
D18*
X210820000Y-89916000D03*
X208915000Y-100330000D03*
X216535000Y-95250000D03*
X208026000Y-89535000D03*
X216154000Y-90678000D03*
D19*
X217420000Y-96850000D02*
X217420000Y-93650000D01*
D20*
X209280000Y-99965000D02*
X209280000Y-99060000D01*
X208915000Y-100330000D02*
X209280000Y-99965000D01*
X208905000Y-92085000D02*
X210820000Y-90170000D01*
X214249000Y-87757000D02*
X214630000Y-88138000D01*
X212979000Y-87757000D02*
X214249000Y-87757000D01*
X211455000Y-87757000D02*
X212979000Y-87757000D01*
X210820000Y-88392000D02*
X211455000Y-87757000D01*
X210820000Y-90170000D02*
X210820000Y-89916000D01*
X210820000Y-89916000D02*
X210820000Y-88392000D01*
X214630000Y-88138000D02*
X214630000Y-88900000D01*
X214630000Y-89662000D02*
X214630000Y-88900000D01*
X208905000Y-92085000D02*
X208905000Y-93335000D01*
X207655000Y-92085000D02*
X208905000Y-92085000D01*
X207655000Y-93335000D02*
X207655000Y-92085000D01*
X206315000Y-92710000D02*
X207030000Y-92710000D01*
X207030000Y-92710000D02*
X207655000Y-93335000D01*
X209530000Y-99060000D02*
X209530000Y-97128000D01*
X209530000Y-97128000D02*
X209630000Y-97028000D01*
X211860000Y-99763000D02*
X210233000Y-99763000D01*
X210233000Y-99763000D02*
X209530000Y-99060000D01*
X213360000Y-99763000D02*
X211860000Y-99763000D01*
X206315000Y-93210000D02*
X205732000Y-93210000D01*
X207518000Y-88900000D02*
X209550000Y-88900000D01*
X205359000Y-91059000D02*
X207518000Y-88900000D01*
X205359000Y-92837000D02*
X205359000Y-91059000D01*
X205732000Y-93210000D02*
X205359000Y-92837000D01*
X206315000Y-93210000D02*
X204660000Y-93210000D01*
X204660000Y-93210000D02*
X204220000Y-93650000D01*
D19*
X204220000Y-96850000D02*
X204220000Y-93650000D01*
X207030000Y-99060000D02*
X205105000Y-99060000D01*
X204220000Y-98175000D02*
X204220000Y-96850000D01*
X205105000Y-99060000D02*
X204220000Y-98175000D01*
D20*
X215392000Y-90170000D02*
X215900000Y-89662000D01*
X215900000Y-94615000D02*
X216535000Y-95250000D01*
X215900000Y-92329000D02*
X215900000Y-94615000D01*
X216916000Y-91313000D02*
X215900000Y-92329000D01*
X216916000Y-90170000D02*
X216916000Y-91313000D01*
X216408000Y-89662000D02*
X216916000Y-90170000D01*
X215900000Y-89662000D02*
X216408000Y-89662000D01*
X210245000Y-91710000D02*
X210296000Y-91710000D01*
X210296000Y-91710000D02*
X211836000Y-90170000D01*
X211836000Y-90170000D02*
X215392000Y-90170000D01*
X215392000Y-90170000D02*
X215519000Y-90170000D01*
X216535000Y-95250000D02*
X216122000Y-95663000D01*
X216122000Y-95663000D02*
X214860000Y-95663000D01*
X214979000Y-95663000D02*
X214860000Y-95663000D01*
X214884000Y-93406000D02*
X214884000Y-93806000D01*
X214884000Y-93806000D02*
X213360000Y-95457000D01*
X213360000Y-95663000D02*
X213360000Y-95457000D01*
X213360000Y-95663000D02*
X213360000Y-95076000D01*
X212979000Y-93406000D02*
X212979000Y-93806000D01*
X212979000Y-93806000D02*
X211860000Y-94925000D01*
X211860000Y-95663000D02*
X211860000Y-94925000D01*
X214630000Y-101600000D02*
X214630000Y-101854000D01*
X214630000Y-101854000D02*
X213614000Y-102870000D01*
X213614000Y-102870000D02*
X208915000Y-102870000D01*
X208915000Y-102870000D02*
X208280000Y-102235000D01*
X208280000Y-102235000D02*
X208280000Y-98171000D01*
X208280000Y-98171000D02*
X208153000Y-98044000D01*
X208153000Y-98044000D02*
X206756000Y-98044000D01*
X206756000Y-98044000D02*
X206248000Y-97536000D01*
X206248000Y-97536000D02*
X206248000Y-96266000D01*
X206248000Y-96266000D02*
X207010000Y-95504000D01*
X207010000Y-95504000D02*
X208026000Y-95504000D01*
X208026000Y-95504000D02*
X208280000Y-95250000D01*
X208280000Y-95250000D02*
X208280000Y-94675000D01*
X209280000Y-90745000D02*
X209280000Y-90186000D01*
X208566000Y-90075000D02*
X208026000Y-89535000D01*
X209169000Y-90075000D02*
X208566000Y-90075000D01*
X209280000Y-90186000D02*
X209169000Y-90075000D01*
X209296000Y-90729000D02*
X209280000Y-90745000D01*
X214376000Y-92583000D02*
X214503000Y-92583000D01*
X212344000Y-92583000D02*
X214376000Y-92583000D01*
X211963000Y-92964000D02*
X212344000Y-92583000D01*
X211963000Y-93853000D02*
X211963000Y-92964000D01*
X210312000Y-95504000D02*
X211963000Y-93853000D01*
X209067402Y-95504000D02*
X210312000Y-95504000D01*
X208780000Y-95216598D02*
X209067402Y-95504000D01*
X208780000Y-94675000D02*
X208780000Y-95216598D01*
X214884000Y-92202000D02*
X214884000Y-91506000D01*
X214503000Y-92583000D02*
X214884000Y-92202000D01*
X210245000Y-93710000D02*
X210836000Y-93710000D01*
X212090000Y-90678000D02*
X216154000Y-90678000D01*
X211709000Y-91059000D02*
X212090000Y-90678000D01*
X211709000Y-91694000D02*
X211709000Y-91059000D01*
X211074000Y-92329000D02*
X211709000Y-91694000D01*
X211074000Y-93472000D02*
X211074000Y-92329000D01*
X210836000Y-93710000D02*
X211074000Y-93472000D01*
X209280000Y-94675000D02*
X210506000Y-94675000D01*
X211556598Y-92795662D02*
X212979000Y-91373260D01*
X211556598Y-93624402D02*
X211556598Y-92795662D01*
X210506000Y-94675000D02*
X211556598Y-93624402D01*
X207010000Y-97028000D02*
X208026000Y-96012000D01*
X208026000Y-96012000D02*
X210439000Y-96012000D01*
X210439000Y-96012000D02*
X210947000Y-96520000D01*
X210947000Y-96520000D02*
X210947000Y-97028000D01*
X210947000Y-97028000D02*
X212090000Y-98171000D01*
X212090000Y-98171000D02*
X214376000Y-98171000D01*
X214376000Y-98171000D02*
X214860000Y-98655000D01*
X214860000Y-98655000D02*
X214860000Y-99763000D01*
M02*
