<?xml version="1.0" encoding="UTF-8" standalone="no"?>
<svg
   xmlns:dc="http://purl.org/dc/elements/1.1/"
   xmlns:cc="http://creativecommons.org/ns#"
   xmlns:rdf="http://www.w3.org/1999/02/22-rdf-syntax-ns#"
   xmlns:svg="http://www.w3.org/2000/svg"
   xmlns="http://www.w3.org/2000/svg"
   xmlns:sodipodi="http://sodipodi.sourceforge.net/DTD/sodipodi-0.dtd"
   xmlns:inkscape="http://www.inkscape.org/namespaces/inkscape"
   version="1.1"
   width="3.0810204cm"
   height="3.0500798cm"
   viewBox="0 0 12129.978 12008.188"
   id="svg2"
   inkscape:version="0.91 r13725"
   sodipodi:docname="SpinnerSMDcombined.svg">
  <metadata
     id="metadata124">
    <rdf:RDF>
      <cc:Work
         rdf:about="">
        <dc:format>image/svg+xml</dc:format>
        <dc:type
           rdf:resource="http://purl.org/dc/dcmitype/StillImage" />
        <dc:title>SVG Picture created as base-brd.svg date 2017/06/19 07:27:07 </dc:title>
      </cc:Work>
    </rdf:RDF>
  </metadata>
  <defs
     id="defs122" />
  <sodipodi:namedview
     pagecolor="#ffffff"
     bordercolor="#666666"
     borderopacity="1"
     objecttolerance="10"
     gridtolerance="10"
     guidetolerance="10"
     inkscape:pageopacity="0"
     inkscape:pageshadow="2"
     inkscape:window-width="1304"
     inkscape:window-height="746"
     id="namedview120"
     showgrid="false"
     fit-margin-top="0"
     fit-margin-left="0"
     fit-margin-right="0"
     fit-margin-bottom="0"
     inkscape:zoom="2.12"
     inkscape:cx="133.76193"
     inkscape:cy="70.939691"
     inkscape:window-x="54"
     inkscape:window-y="-8"
     inkscape:window-maximized="1"
     inkscape:current-layer="svg2" />
  <title
     id="title4">SVG Picture created as base-brd.svg date 2017/06/19 07:27:07 </title>
  <desc
     id="desc6">Picture generated by PCBNEW </desc>
  <g
     style="fill:#000000;fill-opacity:1;stroke:#000000;stroke-linecap:round;stroke-linejoin:round;stroke-opacity:1"
     id="g8"
     transform="translate(-5622.6024,-3249)" />
  <g
     style="fill:#000000;fill-opacity:0;stroke:#000000;stroke-width:-0.0003937;stroke-linecap:round;stroke-linejoin:round;stroke-opacity:1"
     id="g10"
     transform="translate(-5622.6024,-3249)" />
  <g
     style="fill:#840000;fill-opacity:0;stroke:#840000;stroke-width:-0.0003937;stroke-linecap:round;stroke-linejoin:round;stroke-opacity:1"
     id="g12"
     transform="translate(-5622.6024,-3249)" />
  <g
     style="fill:#840000;fill-opacity:1;stroke:#840000;stroke-width:39.37009811;stroke-linecap:round;stroke-linejoin:round;stroke-opacity:1"
     id="g18"
     transform="translate(-5622.6024,-3249)" />
  <g
     style="fill:#840000;fill-opacity:1;stroke:#840000;stroke-width:39.37009811;stroke-linecap:round;stroke-linejoin:round;stroke-opacity:1"
     id="g24"
     transform="translate(-5622.6024,-3249)" />
  <g
     style="fill:#840000;fill-opacity:1;stroke:#840000;stroke-width:39.37009811;stroke-linecap:round;stroke-linejoin:round;stroke-opacity:1"
     id="g30"
     transform="translate(-5622.6024,-3249)" />
  <g
     style="fill:#840000;fill-opacity:1;stroke:#840000;stroke-width:39.37009811;stroke-linecap:round;stroke-linejoin:round;stroke-opacity:1"
     id="g36"
     transform="translate(-5622.6024,-3249)" />
  <g
     style="fill:#ff0000;fill-opacity:1;stroke:#840000;stroke-width:0;stroke-linecap:round;stroke-linejoin:round;stroke-opacity:1"
     id="g38"
     transform="translate(-5622.6024,-3249)">
    <polyline
       style="fill:#ff0000;fill-rule:evenodd"
       points="16404,6870 15695,6870 15695,6241 16404,6241 16404,6870 "
       id="polyline40" />
    <polyline
       style="fill:#ff0000;fill-rule:evenodd"
       points="16404,5752 15695,5752 15695,5123 16404,5123 16404,5752 "
       id="polyline42" />
    <polyline
       style="fill:#ff0000;fill-rule:evenodd"
       points="15154,6870 14445,6870 14445,6241 15154,6241 15154,6870 "
       id="polyline44" />
    <polyline
       style="fill:#ff0000;fill-rule:evenodd"
       points="15154,5752 14445,5752 14445,5123 15154,5123 15154,5752 "
       id="polyline46" />
    <polyline
       style="fill:#ff0000;fill-rule:evenodd"
       points="13904,6870 13195,6870 13195,6241 13904,6241 13904,6870 "
       id="polyline48" />
    <polyline
       style="fill:#ff0000;fill-rule:evenodd"
       points="13904,5752 13195,5752 13195,5123 13904,5123 13904,5752 "
       id="polyline50" />
    <polyline
       style="fill:#ff0000;fill-rule:evenodd"
       points="12654,6870 11945,6870 11945,6241 12654,6241 12654,6870 "
       id="polyline52" />
    <polyline
       style="fill:#ff0000;fill-rule:evenodd"
       points="12654,5752 11945,5752 11945,5123 12654,5123 12654,5752 "
       id="polyline54" />
    <polyline
       style="fill:#ff0000;fill-rule:evenodd"
       points="11404,6870 10695,6870 10695,6241 11404,6241 11404,6870 "
       id="polyline56" />
    <polyline
       style="fill:#ff0000;fill-rule:evenodd"
       points="11404,5752 10695,5752 10695,5123 11404,5123 11404,5752 "
       id="polyline58" />
    <polyline
       style="fill:#ff0000;fill-rule:evenodd"
       points="10154,6870 9445,6870 9445,6241 10154,6241 10154,6870 "
       id="polyline60" />
    <polyline
       style="fill:#ff0000;fill-rule:evenodd"
       points="10154,5752 9445,5752 9445,5123 10154,5123 10154,5752 "
       id="polyline62" />
    <polyline
       style="fill:#ff0000;fill-rule:evenodd"
       points="8904,6870 8195,6870 8195,6241 8904,6241 8904,6870 "
       id="polyline64" />
    <polyline
       style="fill:#ff0000;fill-rule:evenodd"
       points="8904,5752 8195,5752 8195,5123 8904,5123 8904,5752 "
       id="polyline66" />
    <polyline
       style="fill:#ff0000;fill-rule:evenodd"
       points="7654,6870 6945,6870 6945,6241 7654,6241 7654,6870 "
       id="polyline68" />
    <polyline
       style="fill:#ff0000;fill-rule:evenodd"
       points="7654,5752 6945,5752 6945,5123 7654,5123 7654,5752 "
       id="polyline70" />
    <polyline
       style="fill:#ff0000;fill-rule:evenodd"
       points="16384,4745 15715,4745 15715,4390 16384,4390 16384,4745 "
       id="polyline72" />
    <polyline
       style="fill:#ff0000;fill-rule:evenodd"
       points="16384,3603 15715,3603 15715,3249 16384,3249 16384,3603 "
       id="polyline74" />
    <polyline
       style="fill:#ff0000;fill-rule:evenodd"
       points="15134,4745 14465,4745 14465,4390 15134,4390 15134,4745 "
       id="polyline76" />
    <polyline
       style="fill:#ff0000;fill-rule:evenodd"
       points="15134,3603 14465,3603 14465,3249 15134,3249 15134,3603 "
       id="polyline78" />
    <polyline
       style="fill:#ff0000;fill-rule:evenodd"
       points="13884,4745 13215,4745 13215,4390 13884,4390 13884,4745 "
       id="polyline80" />
    <polyline
       style="fill:#ff0000;fill-rule:evenodd"
       points="13884,3603 13215,3603 13215,3249 13884,3249 13884,3603 "
       id="polyline82" />
    <polyline
       style="fill:#ff0000;fill-rule:evenodd"
       points="12634,4745 11965,4745 11965,4390 12634,4390 12634,4745 "
       id="polyline84" />
    <polyline
       style="fill:#ff0000;fill-rule:evenodd"
       points="12634,3603 11965,3603 11965,3249 12634,3249 12634,3603 "
       id="polyline86" />
    <polyline
       style="fill:#ff0000;fill-rule:evenodd"
       points="11384,4745 10715,4745 10715,4390 11384,4390 11384,4745 "
       id="polyline88" />
    <polyline
       style="fill:#ff0000;fill-rule:evenodd"
       points="11384,3603 10715,3603 10715,3249 11384,3249 11384,3603 "
       id="polyline90" />
    <polyline
       style="fill:#ff0000;fill-rule:evenodd"
       points="10134,4745 9465,4745 9465,4390 10134,4390 10134,4745 "
       id="polyline92" />
    <polyline
       style="fill:#ff0000;fill-rule:evenodd"
       points="10134,3603 9465,3603 9465,3249 10134,3249 10134,3603 "
       id="polyline94" />
    <polyline
       style="fill:#ff0000;fill-rule:evenodd"
       points="8884,4745 8215,4745 8215,4390 8884,4390 8884,4745 "
       id="polyline96" />
    <polyline
       style="fill:#ff0000;fill-rule:evenodd"
       points="8884,3603 8215,3603 8215,3249 8884,3249 8884,3603 "
       id="polyline98" />
    <polyline
       style="fill:#ff0000;fill-rule:evenodd"
       points="7634,4745 6965,4745 6965,4390 7634,4390 7634,4745 "
       id="polyline100" />
    <polyline
       style="fill:#ff0000;fill-rule:evenodd"
       points="7634,3603 6965,3603 6965,3249 7634,3249 7634,3603 "
       id="polyline102" />
  </g>
  <g
     style="fill:#840000;fill-opacity:1;stroke:#840000;stroke-width:39.37009811;stroke-linecap:round;stroke-linejoin:round;stroke-opacity:1"
     id="g106"
     transform="translate(-5622.6024,-3249)" />
  <g
     style="fill:#840000;fill-opacity:1;stroke:#840000;stroke-width:39.37009811;stroke-linecap:round;stroke-linejoin:round;stroke-opacity:1"
     id="g112"
     transform="translate(-5622.6024,-3249)" />
  <g
     style="fill:#840000;fill-opacity:1;stroke:#840000;stroke-width:39.37009811;stroke-linecap:round;stroke-linejoin:round;stroke-opacity:1"
     id="g118"
     transform="translate(-5622.6024,-3249)" />
  <g
     transform="translate(-20919.011,1495.1878)"
     style="fill:#ff0000;fill-opacity:1;stroke:#008400;stroke-width:0;stroke-linecap:round;stroke-linejoin:round;stroke-opacity:1"
     id="g50">
    <polyline
       style="fill:#ff0000;fill-rule:evenodd"
       points="24105,6784 24734,6784 24734,6390 24105,6390 24105,6784 "
       id="polyline52-5" />
    <polyline
       style="fill:#ff0000;fill-rule:evenodd"
       points="24105,5603 24734,5603 24734,5209 24105,5209 24105,5603 "
       id="polyline54-4" />
  </g>
  <g
     transform="translate(-20919.011,1495.1878)"
     style="fill:#ff0000;fill-opacity:1;stroke:#008400;stroke-width:0;stroke-linecap:round;stroke-linejoin:round;stroke-opacity:1"
     id="g82">
    <polyline
       style="fill:#ff0000;fill-rule:evenodd"
       points="30372,8369 30372,7975 29112,7975 29112,8369 30372,8369 "
       id="polyline84-9" />
    <polyline
       style="fill:#ff0000;fill-rule:evenodd"
       points="30372,9944 30372,9550 29112,9550 29112,9944 30372,9944 "
       id="polyline86-1" />
    <polyline
       style="fill:#ff0000;fill-rule:evenodd"
       points="33049,9944 33049,9550 31790,9550 31790,9944 33049,9944 "
       id="polyline88-5" />
    <polyline
       style="fill:#ff0000;fill-rule:evenodd"
       points="33049,8369 33049,7975 31790,7975 31790,8369 33049,8369 "
       id="polyline90-5" />
  </g>
  <g
     transform="translate(-20919.011,1495.1878)"
     style="fill:#ff0000;fill-opacity:1;stroke:#008400;stroke-width:0;stroke-linecap:round;stroke-linejoin:round;stroke-opacity:1"
     id="g100">
    <polyline
       style="fill:#ff0000;fill-rule:evenodd"
       points="23699,8505 23699,9489 24171,9489 24171,8505 23699,8505 "
       id="polyline102-9" />
    <polyline
       style="fill:#ff0000;fill-rule:evenodd"
       points="24699,8505 24699,9489 25171,9489 25171,8505 24699,8505 "
       id="polyline104" />
    <polyline
       style="fill:#ff0000;fill-rule:evenodd"
       points="25668,8505 25668,9489 26140,9489 26140,8505 25668,8505 "
       id="polyline106" />
  </g>
  <g
     transform="translate(-20919.011,1495.1878)"
     style="fill:#ff0000;fill-opacity:1;stroke:#008400;stroke-width:0;stroke-linecap:round;stroke-linejoin:round;stroke-opacity:1"
     id="g116">
    <polyline
       style="fill:#ff0000;fill-rule:evenodd"
       points="21211,10290 21434,10513 21656,10290 21434,10067 21211,10290 "
       id="polyline118" />
    <polyline
       style="fill:#ff0000;fill-rule:evenodd"
       points="21740,9761 21963,9984 22185,9761 21963,9538 21740,9761 "
       id="polyline120" />
    <polyline
       style="fill:#ff0000;fill-rule:evenodd"
       points="20919,9469 21142,9692 21364,9469 21142,9246 20919,9469 "
       id="polyline122" />
    <polyline
       style="fill:#ff0000;fill-rule:evenodd"
       points="25319,7072 25319,7522 25519,7522 25519,7072 25319,7072 "
       id="polyline124" />
    <polyline
       style="fill:#ff0000;fill-rule:evenodd"
       points="25819,7072 25819,7522 26019,7522 26019,7072 25819,7072 "
       id="polyline126" />
    <polyline
       style="fill:#ff0000;fill-rule:evenodd"
       points="26319,7072 26319,7522 26519,7522 26519,7072 26319,7072 "
       id="polyline128" />
    <polyline
       style="fill:#ff0000;fill-rule:evenodd"
       points="26819,7072 26819,7522 27019,7522 27019,7072 26819,7072 "
       id="polyline130" />
    <polyline
       style="fill:#ff0000;fill-rule:evenodd"
       points="27319,7072 27319,7522 27519,7522 27519,7072 27319,7072 "
       id="polyline132" />
    <polyline
       style="fill:#ff0000;fill-rule:evenodd"
       points="27819,7072 27819,7522 28019,7522 28019,7072 27819,7072 "
       id="polyline134" />
    <polyline
       style="fill:#ff0000;fill-rule:evenodd"
       points="28319,7072 28319,7522 28519,7522 28519,7072 28319,7072 "
       id="polyline136" />
    <polyline
       style="fill:#ff0000;fill-rule:evenodd"
       points="28319,4572 28319,5022 28519,5022 28519,4572 28319,4572 "
       id="polyline138" />
    <polyline
       style="fill:#ff0000;fill-rule:evenodd"
       points="27819,4572 27819,5022 28019,5022 28019,4572 27819,4572 "
       id="polyline140" />
    <polyline
       style="fill:#ff0000;fill-rule:evenodd"
       points="26819,4572 26819,5022 27019,5022 27019,4572 26819,4572 "
       id="polyline142" />
    <polyline
       style="fill:#ff0000;fill-rule:evenodd"
       points="26319,4572 26319,5022 26519,5022 26519,4572 26319,4572 "
       id="polyline144" />
    <polyline
       style="fill:#ff0000;fill-rule:evenodd"
       points="25819,4572 25819,5022 26019,5022 26019,4572 25819,4572 "
       id="polyline146" />
    <polyline
       style="fill:#ff0000;fill-rule:evenodd"
       points="25319,4572 25319,5022 25519,5022 25519,4572 25319,4572 "
       id="polyline148" />
    <polyline
       style="fill:#ff0000;fill-rule:evenodd"
       points="27319,4572 27319,5022 27519,5022 27519,4572 27319,4572 "
       id="polyline150" />
  </g>
</svg>
