G04 #@! TF.FileFunction,Copper,L1,Top,Signal*
%FSLAX46Y46*%
G04 Gerber Fmt 4.6, Leading zero omitted, Abs format (unit mm)*
G04 Created by KiCad (PCBNEW 4.0.7) date 01/30/18 20:10:09*
%MOMM*%
%LPD*%
G01*
G04 APERTURE LIST*
%ADD10C,0.100000*%
%ADD11O,1.600000X1.600000*%
%ADD12R,1.600000X1.600000*%
%ADD13R,3.200000X1.000000*%
%ADD14R,2.500000X1.200000*%
%ADD15R,0.650000X1.700000*%
%ADD16R,2.000000X1.800860*%
%ADD17C,3.000000*%
%ADD18R,2.000000X1.600000*%
%ADD19R,2.000000X1.700000*%
%ADD20C,0.685800*%
%ADD21C,0.406400*%
%ADD22C,0.304800*%
G04 APERTURE END LIST*
D10*
D11*
X211820000Y-88250000D03*
D12*
X211820000Y-85710000D03*
D11*
X214360000Y-88250000D03*
X214360000Y-85710000D03*
X216900000Y-88250000D03*
X216900000Y-85710000D03*
D13*
X206020000Y-77250000D03*
X206020000Y-81250000D03*
X212820000Y-81250000D03*
X212820000Y-77250000D03*
D14*
X197820000Y-90750000D03*
X197820000Y-93290000D03*
X197820000Y-95750000D03*
D15*
X211915000Y-101900000D03*
X213185000Y-101900000D03*
X214455000Y-101900000D03*
X215725000Y-101900000D03*
X215725000Y-94600000D03*
X214455000Y-94600000D03*
X213185000Y-94600000D03*
X211915000Y-94600000D03*
D16*
X208280000Y-90805000D03*
X204470000Y-90805000D03*
D17*
X200320000Y-84750000D03*
D18*
X208375000Y-85090000D03*
X204375000Y-85090000D03*
D19*
X204375000Y-96520000D03*
X208375000Y-96520000D03*
D20*
X207820000Y-79250000D03*
X218720000Y-99350000D03*
X193820000Y-93250000D03*
X218820000Y-103250000D03*
D21*
X207820000Y-79250000D02*
X206020000Y-77450000D01*
X206020000Y-77450000D02*
X206020000Y-77250000D01*
D22*
X219220000Y-98850000D02*
X219220000Y-96950000D01*
X218720000Y-99350000D02*
X219220000Y-98850000D01*
D21*
X208375000Y-85090000D02*
X208375000Y-84905000D01*
X208375000Y-84905000D02*
X206520000Y-83050000D01*
X206520000Y-83050000D02*
X203820000Y-83050000D01*
X203820000Y-83050000D02*
X203220000Y-82450000D01*
X203220000Y-82450000D02*
X203220000Y-78450000D01*
X203220000Y-78450000D02*
X204420000Y-77250000D01*
X204420000Y-77250000D02*
X206020000Y-77250000D01*
D22*
X216900000Y-85710000D02*
X216900000Y-79130000D01*
X215020000Y-77250000D02*
X212820000Y-77250000D01*
X216900000Y-79130000D02*
X215020000Y-77250000D01*
X215725000Y-101900000D02*
X215725000Y-100445000D01*
X217880000Y-85710000D02*
X216900000Y-85710000D01*
X219220000Y-87050000D02*
X217880000Y-85710000D01*
X219220000Y-96950000D02*
X219220000Y-87050000D01*
X215725000Y-100445000D02*
X219220000Y-96950000D01*
D21*
X212820000Y-77250000D02*
X206020000Y-77250000D01*
X215725000Y-101900000D02*
X215725000Y-101345000D01*
X211915000Y-94600000D02*
X211915000Y-97055000D01*
X201120000Y-92550000D02*
X199320000Y-90750000D01*
X201120000Y-96850000D02*
X201120000Y-92550000D01*
X202820000Y-98550000D02*
X201120000Y-96850000D01*
X210420000Y-98550000D02*
X202820000Y-98550000D01*
X211915000Y-97055000D02*
X210420000Y-98550000D01*
X211820000Y-85710000D02*
X211660000Y-85710000D01*
X211660000Y-85710000D02*
X210420000Y-86950000D01*
X210420000Y-86950000D02*
X206235000Y-86950000D01*
X206235000Y-86950000D02*
X204375000Y-85090000D01*
X197820000Y-90750000D02*
X199320000Y-90750000D01*
X199320000Y-90750000D02*
X204375000Y-85695000D01*
X204375000Y-85695000D02*
X204375000Y-85090000D01*
X193860000Y-93290000D02*
X197820000Y-93290000D01*
X193820000Y-93250000D02*
X193860000Y-93290000D01*
X204375000Y-96520000D02*
X204375000Y-90900000D01*
X204375000Y-90900000D02*
X204470000Y-90805000D01*
D22*
X211915000Y-101900000D02*
X211915000Y-99455000D01*
X216900000Y-90530000D02*
X216900000Y-88250000D01*
X217620000Y-91250000D02*
X216900000Y-90530000D01*
X217620000Y-96450000D02*
X217620000Y-91250000D01*
X216620000Y-97450000D02*
X217620000Y-96450000D01*
X213920000Y-97450000D02*
X216620000Y-97450000D01*
X211915000Y-99455000D02*
X213920000Y-97450000D01*
X212820000Y-81250000D02*
X206020000Y-81250000D01*
X213185000Y-101900000D02*
X213185000Y-99385000D01*
X215520000Y-83950000D02*
X212820000Y-81250000D01*
X215520000Y-86350000D02*
X215520000Y-83950000D01*
X216120000Y-86950000D02*
X215520000Y-86350000D01*
X217820000Y-86950000D02*
X216120000Y-86950000D01*
X218520000Y-87650000D02*
X217820000Y-86950000D01*
X218520000Y-96550000D02*
X218520000Y-87650000D01*
X216820000Y-98250000D02*
X218520000Y-96550000D01*
X214320000Y-98250000D02*
X216820000Y-98250000D01*
X213185000Y-99385000D02*
X214320000Y-98250000D01*
X218820000Y-103250000D02*
X218620000Y-103450000D01*
X218620000Y-103450000D02*
X214920000Y-103450000D01*
X214920000Y-103450000D02*
X214455000Y-102985000D01*
X214455000Y-102985000D02*
X214455000Y-101900000D01*
X214360000Y-85710000D02*
X214360000Y-85910000D01*
X214360000Y-85910000D02*
X213120000Y-87150000D01*
X213120000Y-87150000D02*
X213120000Y-90805000D01*
D21*
X208280000Y-90805000D02*
X213120000Y-90805000D01*
X213120000Y-90805000D02*
X214375000Y-90805000D01*
X215725000Y-92155000D02*
X215725000Y-94600000D01*
X214375000Y-90805000D02*
X215725000Y-92155000D01*
D22*
X208375000Y-96520000D02*
X208375000Y-94805000D01*
X207720000Y-88250000D02*
X211820000Y-88250000D01*
X206520000Y-89450000D02*
X207720000Y-88250000D01*
X206520000Y-92950000D02*
X206520000Y-89450000D01*
X208375000Y-94805000D02*
X206520000Y-92950000D01*
D21*
X214455000Y-94600000D02*
X214455000Y-92885000D01*
X208375000Y-94695000D02*
X208375000Y-96520000D01*
X210820000Y-92250000D02*
X208375000Y-94695000D01*
X213820000Y-92250000D02*
X210820000Y-92250000D01*
X214455000Y-92885000D02*
X213820000Y-92250000D01*
D22*
X213185000Y-94600000D02*
X213185000Y-95715000D01*
X214360000Y-89490000D02*
X214360000Y-88250000D01*
X216820000Y-91950000D02*
X214360000Y-89490000D01*
X216820000Y-96050000D02*
X216820000Y-91950000D01*
X216620000Y-96250000D02*
X216820000Y-96050000D01*
X213720000Y-96250000D02*
X216620000Y-96250000D01*
X213185000Y-95715000D02*
X213720000Y-96250000D01*
M02*
