<?xml version="1.0" standalone="no"?>
 <!DOCTYPE svg PUBLIC "-//W3C//DTD SVG 1.1//EN" 
 "http://www.w3.org/Graphics/SVG/1.1/DTD/svg11.dtd"> 
<svg xmlns="http://www.w3.org/2000/svg" version="1.1" 
    width="10.4064cm" height="3.7465cm" viewBox="0 0 40970 14750 ">
<title>SVG Picture created as base-brd.svg date 2017/06/19 07:27:07 </title>
  <desc>Picture generated by PCBNEW </desc>
<g style="fill:#000000; fill-opacity:1;stroke:#000000; stroke-opacity:1;
stroke-linecap:round; stroke-linejoin:round; "
 transform="translate(0 0) scale(1 1)">
</g>
<g style="fill:#000000; fill-opacity:0.0; 
stroke:#000000; stroke-width:-0.000393701; stroke-opacity:1; 
stroke-linecap:round; stroke-linejoin:round;">
</g>
<g style="fill:#840000; fill-opacity:0.0; 
stroke:#840000; stroke-width:-0.000393701; stroke-opacity:1; 
stroke-linecap:round; stroke-linejoin:round;">
</g>
<g style="fill:#840000; fill-opacity:1.0; 
stroke:#840000; stroke-width:0; stroke-opacity:1; 
stroke-linecap:round; stroke-linejoin:round;">
<circle cx="35050" cy="10247.3" r="590.551" /> 
</g>
<g style="fill:#840000; fill-opacity:1.0; 
stroke:#840000; stroke-width:39.3701; stroke-opacity:1; 
stroke-linecap:round; stroke-linejoin:round;">
</g>
<g style="fill:#840000; fill-opacity:1.0; 
stroke:#840000; stroke-width:0; stroke-opacity:1; 
stroke-linecap:round; stroke-linejoin:round;">
<circle cx="35050" cy="2247.29" r="590.551" /> 
</g>
<g style="fill:#840000; fill-opacity:1.0; 
stroke:#840000; stroke-width:39.3701; stroke-opacity:1; 
stroke-linecap:round; stroke-linejoin:round;">
</g>
<g style="fill:#840000; fill-opacity:1.0; 
stroke:#840000; stroke-width:0; stroke-opacity:1; 
stroke-linecap:round; stroke-linejoin:round;">
<circle cx="13050" cy="2247.29" r="590.551" /> 
</g>
<g style="fill:#840000; fill-opacity:1.0; 
stroke:#840000; stroke-width:39.3701; stroke-opacity:1; 
stroke-linecap:round; stroke-linejoin:round;">
</g>
<g style="fill:#840000; fill-opacity:1.0; 
stroke:#840000; stroke-width:0; stroke-opacity:1; 
stroke-linecap:round; stroke-linejoin:round;">
<circle cx="13050" cy="10247.3" r="590.551" /> 
</g>
<g style="fill:#840000; fill-opacity:1.0; 
stroke:#840000; stroke-width:39.3701; stroke-opacity:1; 
stroke-linecap:round; stroke-linejoin:round;">
</g>
<g style="fill:#840000; fill-opacity:1.0; 
stroke:#840000; stroke-width:0; stroke-opacity:1; 
stroke-linecap:round; stroke-linejoin:round;">
<polyline style="fill-rule:evenodd;"
points="16404,6870
15695,6870
15695,6241
16404,6241
16404,6870
" /> 
<polyline style="fill-rule:evenodd;"
points="16404,5752
15695,5752
15695,5123
16404,5123
16404,5752
" /> 
<polyline style="fill-rule:evenodd;"
points="15154,6870
14445,6870
14445,6241
15154,6241
15154,6870
" /> 
<polyline style="fill-rule:evenodd;"
points="15154,5752
14445,5752
14445,5123
15154,5123
15154,5752
" /> 
<polyline style="fill-rule:evenodd;"
points="13904,6870
13195,6870
13195,6241
13904,6241
13904,6870
" /> 
<polyline style="fill-rule:evenodd;"
points="13904,5752
13195,5752
13195,5123
13904,5123
13904,5752
" /> 
<polyline style="fill-rule:evenodd;"
points="12654,6870
11945,6870
11945,6241
12654,6241
12654,6870
" /> 
<polyline style="fill-rule:evenodd;"
points="12654,5752
11945,5752
11945,5123
12654,5123
12654,5752
" /> 
<polyline style="fill-rule:evenodd;"
points="11404,6870
10695,6870
10695,6241
11404,6241
11404,6870
" /> 
<polyline style="fill-rule:evenodd;"
points="11404,5752
10695,5752
10695,5123
11404,5123
11404,5752
" /> 
<polyline style="fill-rule:evenodd;"
points="10154,6870
9445,6870
9445,6241
10154,6241
10154,6870
" /> 
<polyline style="fill-rule:evenodd;"
points="10154,5752
9445,5752
9445,5123
10154,5123
10154,5752
" /> 
<polyline style="fill-rule:evenodd;"
points="8904,6870
8195,6870
8195,6241
8904,6241
8904,6870
" /> 
<polyline style="fill-rule:evenodd;"
points="8904,5752
8195,5752
8195,5123
8904,5123
8904,5752
" /> 
<polyline style="fill-rule:evenodd;"
points="7654,6870
6945,6870
6945,6241
7654,6241
7654,6870
" /> 
<polyline style="fill-rule:evenodd;"
points="7654,5752
6945,5752
6945,5123
7654,5123
7654,5752
" /> 
<polyline style="fill-rule:evenodd;"
points="16384,4745
15715,4745
15715,4390
16384,4390
16384,4745
" /> 
<polyline style="fill-rule:evenodd;"
points="16384,3603
15715,3603
15715,3249
16384,3249
16384,3603
" /> 
<polyline style="fill-rule:evenodd;"
points="15134,4745
14465,4745
14465,4390
15134,4390
15134,4745
" /> 
<polyline style="fill-rule:evenodd;"
points="15134,3603
14465,3603
14465,3249
15134,3249
15134,3603
" /> 
<polyline style="fill-rule:evenodd;"
points="13884,4745
13215,4745
13215,4390
13884,4390
13884,4745
" /> 
<polyline style="fill-rule:evenodd;"
points="13884,3603
13215,3603
13215,3249
13884,3249
13884,3603
" /> 
<polyline style="fill-rule:evenodd;"
points="12634,4745
11965,4745
11965,4390
12634,4390
12634,4745
" /> 
<polyline style="fill-rule:evenodd;"
points="12634,3603
11965,3603
11965,3249
12634,3249
12634,3603
" /> 
<polyline style="fill-rule:evenodd;"
points="11384,4745
10715,4745
10715,4390
11384,4390
11384,4745
" /> 
<polyline style="fill-rule:evenodd;"
points="11384,3603
10715,3603
10715,3249
11384,3249
11384,3603
" /> 
<polyline style="fill-rule:evenodd;"
points="10134,4745
9465,4745
9465,4390
10134,4390
10134,4745
" /> 
<polyline style="fill-rule:evenodd;"
points="10134,3603
9465,3603
9465,3249
10134,3249
10134,3603
" /> 
<polyline style="fill-rule:evenodd;"
points="8884,4745
8215,4745
8215,4390
8884,4390
8884,4745
" /> 
<polyline style="fill-rule:evenodd;"
points="8884,3603
8215,3603
8215,3249
8884,3249
8884,3603
" /> 
<polyline style="fill-rule:evenodd;"
points="7634,4745
6965,4745
6965,4390
7634,4390
7634,4745
" /> 
<polyline style="fill-rule:evenodd;"
points="7634,3603
6965,3603
6965,3249
7634,3249
7634,3603
" /> 
<circle cx="14711.4" cy="10080" r="177.165" /> 
</g>
<g style="fill:#840000; fill-opacity:1.0; 
stroke:#840000; stroke-width:39.3701; stroke-opacity:1; 
stroke-linecap:round; stroke-linejoin:round;">
</g>
<g style="fill:#840000; fill-opacity:1.0; 
stroke:#840000; stroke-width:0; stroke-opacity:1; 
stroke-linecap:round; stroke-linejoin:round;">
<circle cx="17388.6" cy="10080" r="177.165" /> 
</g>
<g style="fill:#840000; fill-opacity:1.0; 
stroke:#840000; stroke-width:39.3701; stroke-opacity:1; 
stroke-linecap:round; stroke-linejoin:round;">
</g>
<g style="fill:#840000; fill-opacity:1.0; 
stroke:#840000; stroke-width:0; stroke-opacity:1; 
stroke-linecap:round; stroke-linejoin:round;">
<circle cx="23050" cy="6247.29" r="4724.41" /> 
</g>
<g style="fill:#840000; fill-opacity:1.0; 
stroke:#840000; stroke-width:39.3701; stroke-opacity:1; 
stroke-linecap:round; stroke-linejoin:round;">
</g> 
</svg>
