%MOIN*%
%OFA0B0*%
%FSLAX46Y46*%
%IPPOS*%
%LPD*%
%ADD10C,0.0039370078740157488*%
%ADD11C,0.70000000000000007*%
%ADD12R,0.1X0.2*%
%ADD13C,0.11811023622047245*%
%ADD14C,0.027*%
%ADD15C,0.012000000000000002*%
%ADD26C,0.0039370078740157488*%
%ADD27C,0.70000000000000007*%
%ADD28R,0.1X0.2*%
%ADD29C,0.11811023622047245*%
%ADD30C,0.027*%
%ADD31C,0.012000000000000002*%
%ADD32C,0.0039370078740157488*%
%ADD33C,0.70000000000000007*%
%ADD34R,0.1X0.2*%
%ADD35C,0.11811023622047245*%
%ADD36C,0.027*%
%ADD37C,0.012000000000000002*%
%ADD38C,0.0039370078740157488*%
%ADD39C,0.70000000000000007*%
%ADD40R,0.1X0.2*%
%ADD41C,0.11811023622047245*%
%ADD42C,0.027*%
%ADD43C,0.012000000000000002*%
%ADD44C,0.0039370078740157488*%
%ADD45C,0.70000000000000007*%
%ADD46R,0.1X0.2*%
%ADD47C,0.11811023622047245*%
%ADD48C,0.027*%
%ADD49C,0.012000000000000002*%
%ADD50C,0.0039370078740157488*%
%ADD51C,0.70000000000000007*%
%ADD52R,0.1X0.2*%
%ADD53C,0.11811023622047245*%
%ADD54C,0.027*%
%ADD55C,0.012000000000000002*%
%ADD56C,0.0039370078740157488*%
%ADD57C,0.70000000000000007*%
%ADD58R,0.1X0.2*%
%ADD59C,0.11811023622047245*%
%ADD60C,0.027*%
%ADD61C,0.012000000000000002*%
%ADD62C,0.0039370078740157488*%
%ADD63C,0.70000000000000007*%
%ADD64R,0.1X0.2*%
%ADD65C,0.11811023622047245*%
%ADD66C,0.027*%
%ADD67C,0.012000000000000002*%
%ADD68C,0.0039370078740157488*%
%ADD69C,0.70000000000000007*%
%ADD70R,0.1X0.2*%
%ADD71C,0.11811023622047245*%
%ADD72C,0.027*%
%ADD73C,0.012000000000000002*%
G01*
D10*
D11*
X-0007643492Y0004156443D02*
X0000531507Y0000481443D03*
D12*
X0000981507Y0000481443D03*
X0000081507Y0000481443D03*
D13*
X0000531507Y0000956443D03*
D14*
X0000206507Y0000706443D03*
X0000951507Y0000306443D03*
X0000716507Y0000081443D03*
X0000906507Y0000576443D03*
D15*
X0000206507Y0000706443D02*
X0000491507Y0000481443D01*
X0000491507Y0000481443D02*
X0000531507Y0000481443D01*
X0000951507Y0000306443D02*
X0000776507Y0000481443D01*
X0000776507Y0000481443D02*
X0000531507Y0000481443D01*
X0000316507Y0000116443D02*
X0000351507Y0000081443D01*
X0000316507Y0000116443D02*
X0000081507Y0000351443D01*
X0000081507Y0000481443D02*
X0000081507Y0000351443D01*
X0000351507Y0000081443D02*
X0000716507Y0000081443D01*
X0000906507Y0000576443D02*
X0000981507Y0000501443D01*
X0000981507Y0000501443D02*
X0000981507Y0000481443D01*
X0000981507Y0000481443D02*
X0000981507Y0000686443D01*
X0000981507Y0000686443D02*
X0000801507Y0000866443D01*
X0000801507Y0000866443D02*
X0000286507Y0000866443D01*
X0000286507Y0000866443D02*
X0000081507Y0000661443D01*
X0000081507Y0000661443D02*
X0000081507Y0000481443D01*
G04 next file*
G04 #@! TF.FileFunction,Copper,L2,Bot,Signal*
G04 Gerber Fmt 4.6, Leading zero omitted, Abs format (unit mm)*
G04 Created by KiCad (PCBNEW 4.0.6) date 08/25/20 16:41:01*
G01*
G04 APERTURE LIST*
G04 APERTURE END LIST*
D26*
D27*
X-0006462368Y0004156443D02*
X0001712631Y0000481443D03*
D28*
X0002162631Y0000481443D03*
X0001262631Y0000481443D03*
D29*
X0001712631Y0000956443D03*
D30*
X0001387631Y0000706443D03*
X0002132631Y0000306443D03*
X0001897631Y0000081443D03*
X0002087631Y0000576443D03*
D31*
X0001387631Y0000706443D02*
X0001672631Y0000481443D01*
X0001672631Y0000481443D02*
X0001712631Y0000481443D01*
X0002132631Y0000306443D02*
X0001957631Y0000481443D01*
X0001957631Y0000481443D02*
X0001712631Y0000481443D01*
X0001497631Y0000116443D02*
X0001532631Y0000081443D01*
X0001497631Y0000116443D02*
X0001262631Y0000351443D01*
X0001262631Y0000481443D02*
X0001262631Y0000351443D01*
X0001532631Y0000081443D02*
X0001897631Y0000081443D01*
X0002087631Y0000576443D02*
X0002162631Y0000501443D01*
X0002162631Y0000501443D02*
X0002162631Y0000481443D01*
X0002162631Y0000481443D02*
X0002162631Y0000686443D01*
X0002162631Y0000686443D02*
X0001982631Y0000866443D01*
X0001982631Y0000866443D02*
X0001467631Y0000866443D01*
X0001467631Y0000866443D02*
X0001262631Y0000661443D01*
X0001262631Y0000661443D02*
X0001262631Y0000481443D01*
G04 next file*
G04 #@! TF.FileFunction,Copper,L2,Bot,Signal*
G04 Gerber Fmt 4.6, Leading zero omitted, Abs format (unit mm)*
G04 Created by KiCad (PCBNEW 4.0.6) date 08/25/20 16:41:01*
G01*
G04 APERTURE LIST*
G04 APERTURE END LIST*
D32*
D33*
X-0005281242Y0004156443D02*
X0002893757Y0000481443D03*
D34*
X0003343757Y0000481443D03*
X0002443757Y0000481443D03*
D35*
X0002893757Y0000956443D03*
D36*
X0002568757Y0000706443D03*
X0003313757Y0000306443D03*
X0003078757Y0000081443D03*
X0003268757Y0000576443D03*
D37*
X0002568757Y0000706443D02*
X0002853757Y0000481443D01*
X0002853757Y0000481443D02*
X0002893757Y0000481443D01*
X0003313757Y0000306443D02*
X0003138757Y0000481443D01*
X0003138757Y0000481443D02*
X0002893757Y0000481443D01*
X0002678757Y0000116443D02*
X0002713757Y0000081443D01*
X0002678757Y0000116443D02*
X0002443757Y0000351443D01*
X0002443757Y0000481443D02*
X0002443757Y0000351443D01*
X0002713757Y0000081443D02*
X0003078757Y0000081443D01*
X0003268757Y0000576443D02*
X0003343757Y0000501443D01*
X0003343757Y0000501443D02*
X0003343757Y0000481443D01*
X0003343757Y0000481443D02*
X0003343757Y0000686443D01*
X0003343757Y0000686443D02*
X0003163757Y0000866443D01*
X0003163757Y0000866443D02*
X0002648757Y0000866443D01*
X0002648757Y0000866443D02*
X0002443757Y0000661443D01*
X0002443757Y0000661443D02*
X0002443757Y0000481443D01*
G04 next file*
G04 #@! TF.FileFunction,Copper,L2,Bot,Signal*
G04 Gerber Fmt 4.6, Leading zero omitted, Abs format (unit mm)*
G04 Created by KiCad (PCBNEW 4.0.6) date 08/25/20 16:41:01*
G01*
G04 APERTURE LIST*
G04 APERTURE END LIST*
D38*
D39*
X-0007643492Y0005337439D02*
X0000531507Y0001662439D03*
D40*
X0000981507Y0001662439D03*
X0000081507Y0001662439D03*
D41*
X0000531507Y0002137439D03*
D42*
X0000206507Y0001887439D03*
X0000951507Y0001487439D03*
X0000716507Y0001262439D03*
X0000906507Y0001757439D03*
D43*
X0000206507Y0001887439D02*
X0000491507Y0001662439D01*
X0000491507Y0001662439D02*
X0000531507Y0001662439D01*
X0000951507Y0001487439D02*
X0000776507Y0001662439D01*
X0000776507Y0001662439D02*
X0000531507Y0001662439D01*
X0000316507Y0001297439D02*
X0000351507Y0001262439D01*
X0000316507Y0001297439D02*
X0000081507Y0001532439D01*
X0000081507Y0001662439D02*
X0000081507Y0001532439D01*
X0000351507Y0001262439D02*
X0000716507Y0001262439D01*
X0000906507Y0001757439D02*
X0000981507Y0001682439D01*
X0000981507Y0001682439D02*
X0000981507Y0001662439D01*
X0000981507Y0001662439D02*
X0000981507Y0001867439D01*
X0000981507Y0001867439D02*
X0000801507Y0002047439D01*
X0000801507Y0002047439D02*
X0000286507Y0002047439D01*
X0000286507Y0002047439D02*
X0000081507Y0001842439D01*
X0000081507Y0001842439D02*
X0000081507Y0001662439D01*
G04 next file*
G04 #@! TF.FileFunction,Copper,L2,Bot,Signal*
G04 Gerber Fmt 4.6, Leading zero omitted, Abs format (unit mm)*
G04 Created by KiCad (PCBNEW 4.0.6) date 08/25/20 16:41:01*
G01*
G04 APERTURE LIST*
G04 APERTURE END LIST*
D44*
D45*
X-0007643492Y0006518435D02*
X0000531507Y0002843435D03*
D46*
X0000981507Y0002843435D03*
X0000081507Y0002843435D03*
D47*
X0000531507Y0003318435D03*
D48*
X0000206507Y0003068435D03*
X0000951507Y0002668435D03*
X0000716507Y0002443435D03*
X0000906507Y0002938435D03*
D49*
X0000206507Y0003068435D02*
X0000491507Y0002843435D01*
X0000491507Y0002843435D02*
X0000531507Y0002843435D01*
X0000951507Y0002668435D02*
X0000776507Y0002843435D01*
X0000776507Y0002843435D02*
X0000531507Y0002843435D01*
X0000316507Y0002478435D02*
X0000351507Y0002443435D01*
X0000316507Y0002478435D02*
X0000081507Y0002713435D01*
X0000081507Y0002843435D02*
X0000081507Y0002713435D01*
X0000351507Y0002443435D02*
X0000716507Y0002443435D01*
X0000906507Y0002938435D02*
X0000981507Y0002863435D01*
X0000981507Y0002863435D02*
X0000981507Y0002843435D01*
X0000981507Y0002843435D02*
X0000981507Y0003048435D01*
X0000981507Y0003048435D02*
X0000801507Y0003228435D01*
X0000801507Y0003228435D02*
X0000286507Y0003228435D01*
X0000286507Y0003228435D02*
X0000081507Y0003023435D01*
X0000081507Y0003023435D02*
X0000081507Y0002843435D01*
G04 next file*
G04 #@! TF.FileFunction,Copper,L2,Bot,Signal*
G04 Gerber Fmt 4.6, Leading zero omitted, Abs format (unit mm)*
G04 Created by KiCad (PCBNEW 4.0.6) date 08/25/20 16:41:01*
G01*
G04 APERTURE LIST*
G04 APERTURE END LIST*
D50*
D51*
X-0006462368Y0005337439D02*
X0001712631Y0001662439D03*
D52*
X0002162631Y0001662439D03*
X0001262631Y0001662439D03*
D53*
X0001712631Y0002137439D03*
D54*
X0001387631Y0001887439D03*
X0002132631Y0001487439D03*
X0001897631Y0001262439D03*
X0002087631Y0001757439D03*
D55*
X0001387631Y0001887439D02*
X0001672631Y0001662439D01*
X0001672631Y0001662439D02*
X0001712631Y0001662439D01*
X0002132631Y0001487439D02*
X0001957631Y0001662439D01*
X0001957631Y0001662439D02*
X0001712631Y0001662439D01*
X0001497631Y0001297439D02*
X0001532631Y0001262439D01*
X0001497631Y0001297439D02*
X0001262631Y0001532439D01*
X0001262631Y0001662439D02*
X0001262631Y0001532439D01*
X0001532631Y0001262439D02*
X0001897631Y0001262439D01*
X0002087631Y0001757439D02*
X0002162631Y0001682439D01*
X0002162631Y0001682439D02*
X0002162631Y0001662439D01*
X0002162631Y0001662439D02*
X0002162631Y0001867439D01*
X0002162631Y0001867439D02*
X0001982631Y0002047439D01*
X0001982631Y0002047439D02*
X0001467631Y0002047439D01*
X0001467631Y0002047439D02*
X0001262631Y0001842439D01*
X0001262631Y0001842439D02*
X0001262631Y0001662439D01*
G04 next file*
G04 #@! TF.FileFunction,Copper,L2,Bot,Signal*
G04 Gerber Fmt 4.6, Leading zero omitted, Abs format (unit mm)*
G04 Created by KiCad (PCBNEW 4.0.6) date 08/25/20 16:41:01*
G01*
G04 APERTURE LIST*
G04 APERTURE END LIST*
D56*
D57*
X-0005281242Y0005337439D02*
X0002893757Y0001662439D03*
D58*
X0003343757Y0001662439D03*
X0002443757Y0001662439D03*
D59*
X0002893757Y0002137439D03*
D60*
X0002568757Y0001887439D03*
X0003313757Y0001487439D03*
X0003078757Y0001262439D03*
X0003268757Y0001757439D03*
D61*
X0002568757Y0001887439D02*
X0002853757Y0001662439D01*
X0002853757Y0001662439D02*
X0002893757Y0001662439D01*
X0003313757Y0001487439D02*
X0003138757Y0001662439D01*
X0003138757Y0001662439D02*
X0002893757Y0001662439D01*
X0002678757Y0001297439D02*
X0002713757Y0001262439D01*
X0002678757Y0001297439D02*
X0002443757Y0001532439D01*
X0002443757Y0001662439D02*
X0002443757Y0001532439D01*
X0002713757Y0001262439D02*
X0003078757Y0001262439D01*
X0003268757Y0001757439D02*
X0003343757Y0001682439D01*
X0003343757Y0001682439D02*
X0003343757Y0001662439D01*
X0003343757Y0001662439D02*
X0003343757Y0001867439D01*
X0003343757Y0001867439D02*
X0003163757Y0002047439D01*
X0003163757Y0002047439D02*
X0002648757Y0002047439D01*
X0002648757Y0002047439D02*
X0002443757Y0001842439D01*
X0002443757Y0001842439D02*
X0002443757Y0001662439D01*
G04 next file*
G04 #@! TF.FileFunction,Copper,L2,Bot,Signal*
G04 Gerber Fmt 4.6, Leading zero omitted, Abs format (unit mm)*
G04 Created by KiCad (PCBNEW 4.0.6) date 08/25/20 16:41:01*
G01*
G04 APERTURE LIST*
G04 APERTURE END LIST*
D62*
D63*
X-0006462368Y0006518435D02*
X0001712631Y0002843435D03*
D64*
X0002162631Y0002843435D03*
X0001262631Y0002843435D03*
D65*
X0001712631Y0003318435D03*
D66*
X0001387631Y0003068435D03*
X0002132631Y0002668435D03*
X0001897631Y0002443435D03*
X0002087631Y0002938435D03*
D67*
X0001387631Y0003068435D02*
X0001672631Y0002843435D01*
X0001672631Y0002843435D02*
X0001712631Y0002843435D01*
X0002132631Y0002668435D02*
X0001957631Y0002843435D01*
X0001957631Y0002843435D02*
X0001712631Y0002843435D01*
X0001497631Y0002478435D02*
X0001532631Y0002443435D01*
X0001497631Y0002478435D02*
X0001262631Y0002713435D01*
X0001262631Y0002843435D02*
X0001262631Y0002713435D01*
X0001532631Y0002443435D02*
X0001897631Y0002443435D01*
X0002087631Y0002938435D02*
X0002162631Y0002863435D01*
X0002162631Y0002863435D02*
X0002162631Y0002843435D01*
X0002162631Y0002843435D02*
X0002162631Y0003048435D01*
X0002162631Y0003048435D02*
X0001982631Y0003228435D01*
X0001982631Y0003228435D02*
X0001467631Y0003228435D01*
X0001467631Y0003228435D02*
X0001262631Y0003023435D01*
X0001262631Y0003023435D02*
X0001262631Y0002843435D01*
G04 next file*
G04 #@! TF.FileFunction,Copper,L2,Bot,Signal*
G04 Gerber Fmt 4.6, Leading zero omitted, Abs format (unit mm)*
G04 Created by KiCad (PCBNEW 4.0.6) date 08/25/20 16:41:01*
G01*
G04 APERTURE LIST*
G04 APERTURE END LIST*
D68*
D69*
X-0005281242Y0006518435D02*
X0002893757Y0002843435D03*
D70*
X0003343757Y0002843435D03*
X0002443757Y0002843435D03*
D71*
X0002893757Y0003318435D03*
D72*
X0002568757Y0003068435D03*
X0003313757Y0002668435D03*
X0003078757Y0002443435D03*
X0003268757Y0002938435D03*
D73*
X0002568757Y0003068435D02*
X0002853757Y0002843435D01*
X0002853757Y0002843435D02*
X0002893757Y0002843435D01*
X0003313757Y0002668435D02*
X0003138757Y0002843435D01*
X0003138757Y0002843435D02*
X0002893757Y0002843435D01*
X0002678757Y0002478435D02*
X0002713757Y0002443435D01*
X0002678757Y0002478435D02*
X0002443757Y0002713435D01*
X0002443757Y0002843435D02*
X0002443757Y0002713435D01*
X0002713757Y0002443435D02*
X0003078757Y0002443435D01*
X0003268757Y0002938435D02*
X0003343757Y0002863435D01*
X0003343757Y0002863435D02*
X0003343757Y0002843435D01*
X0003343757Y0002843435D02*
X0003343757Y0003048435D01*
X0003343757Y0003048435D02*
X0003163757Y0003228435D01*
X0003163757Y0003228435D02*
X0002648757Y0003228435D01*
X0002648757Y0003228435D02*
X0002443757Y0003023435D01*
X0002443757Y0003023435D02*
X0002443757Y0002843435D01*
M02*