%MOIN*%
%OFA0B0*%
%FSLAX44Y44*%
%IPPOS*%
%LPD*%
%ADD10C,0*%
D10*
X00006064Y00022386D02*
X00006064Y00022386D01*
X00006037Y00022391D01*
X00006010Y00022398D01*
X00005984Y00022407D01*
X00005958Y00022418D01*
X00005933Y00022431D01*
X00005909Y00022446D01*
X00005886Y00022462D01*
X00005865Y00022480D01*
X00005844Y00022499D01*
X00005825Y00022520D01*
X00005808Y00022541D01*
X00005792Y00022565D01*
X00005778Y00022589D01*
X00005766Y00022614D01*
X00005756Y00022640D01*
X00005747Y00022666D01*
X00005740Y00022694D01*
X00005735Y00022721D01*
X00005733Y00022749D01*
X00005732Y00022777D01*
X00005735Y00023286D01*
X00005736Y00023314D01*
X00005739Y00023341D01*
X00005744Y00023368D01*
X00005751Y00023395D01*
X00005760Y00023422D01*
X00005770Y00023447D01*
X00005783Y00023472D01*
X00005797Y00023496D01*
X00005812Y00023519D01*
X00005830Y00023540D01*
X00005849Y00023561D01*
X00005869Y00023580D01*
X00005890Y00023597D01*
X00005913Y00023613D01*
X00005937Y00023628D01*
X00005961Y00023640D01*
X00005987Y00023651D01*
X00006013Y00023660D01*
X00006040Y00023667D01*
X00006067Y00023673D01*
X00006219Y00023696D01*
X00006382Y00023727D01*
X00006543Y00023763D01*
X00006704Y00023803D01*
X00006862Y00023849D01*
X00007020Y00023900D01*
X00007176Y00023955D01*
X00007329Y00024016D01*
X00007481Y00024081D01*
X00007631Y00024150D01*
X00007779Y00024225D01*
X00007924Y00024304D01*
X00008067Y00024387D01*
X00008207Y00024475D01*
X00008344Y00024567D01*
X00008479Y00024663D01*
X00008610Y00024764D01*
X00008738Y00024868D01*
X00008863Y00024977D01*
X00008984Y00025089D01*
X00009102Y00025205D01*
X00009216Y00025324D01*
X00009327Y00025448D01*
X00009433Y00025574D01*
X00009535Y00025704D01*
X00009634Y00025837D01*
X00009728Y00025972D01*
X00009818Y00026111D01*
X00009904Y00026252D01*
X00009985Y00026397D01*
X00010062Y00026543D01*
X00010134Y00026692D01*
X00010201Y00026843D01*
X00010264Y00026996D01*
X00010322Y00027151D01*
X00010375Y00027307D01*
X00010423Y00027465D01*
X00010466Y00027625D01*
X00010504Y00027786D01*
X00010537Y00027948D01*
X00010565Y00028111D01*
X00010579Y00028209D01*
X00010585Y00028239D01*
X00010593Y00028269D01*
X00010603Y00028299D01*
X00010616Y00028327D01*
X00010630Y00028355D01*
X00010647Y00028381D01*
X00010666Y00028405D01*
X00010687Y00028428D01*
X00010709Y00028450D01*
X00010733Y00028469D01*
X00010759Y00028487D01*
X00010786Y00028502D01*
X00010814Y00028516D01*
X00010843Y00028527D01*
X00010873Y00028536D01*
X00010903Y00028542D01*
X00010934Y00028546D01*
X00010965Y00028548D01*
X00010996Y00028547D01*
X00011027Y00028543D01*
X00011540Y00028468D01*
X00011564Y00028463D01*
X00011589Y00028457D01*
X00011613Y00028449D01*
X00011637Y00028440D01*
X00011659Y00028429D01*
X00011682Y00028417D01*
X00011703Y00028404D01*
X00011723Y00028389D01*
X00011743Y00028373D01*
X00011761Y00028355D01*
X00011778Y00028337D01*
X00011794Y00028317D01*
X00011809Y00028297D01*
X00011823Y00028275D01*
X00011834Y00028253D01*
X00011845Y00028230D01*
X00011854Y00028207D01*
X00011861Y00028182D01*
X00011867Y00028158D01*
X00011872Y00028133D01*
X00011875Y00028111D01*
X00011903Y00027948D01*
X00011936Y00027786D01*
X00011974Y00027625D01*
X00012018Y00027465D01*
X00012066Y00027307D01*
X00012119Y00027151D01*
X00012177Y00026996D01*
X00012239Y00026843D01*
X00012307Y00026692D01*
X00012379Y00026543D01*
X00012455Y00026397D01*
X00012537Y00026252D01*
X00012622Y00026111D01*
X00012712Y00025972D01*
X00012806Y00025837D01*
X00012905Y00025704D01*
X00013007Y00025574D01*
X00013114Y00025448D01*
X00013224Y00025324D01*
X00013338Y00025205D01*
X00013456Y00025089D01*
X00013578Y00024977D01*
X00013702Y00024868D01*
X00013830Y00024764D01*
X00013962Y00024663D01*
X00014096Y00024567D01*
X00014233Y00024475D01*
X00014373Y00024387D01*
X00014516Y00024304D01*
X00014661Y00024225D01*
X00014809Y00024150D01*
X00014959Y00024081D01*
X00015111Y00024016D01*
X00015265Y00023955D01*
X00015421Y00023900D01*
X00015578Y00023849D01*
X00015737Y00023803D01*
X00015897Y00023763D01*
X00016059Y00023727D01*
X00016221Y00023696D01*
X00016384Y00023671D01*
X00016548Y00023650D01*
X00016713Y00023635D01*
X00016878Y00023625D01*
X00017043Y00023619D01*
X00017208Y00023619D01*
X00017374Y00023625D01*
X00017539Y00023635D01*
X00017703Y00023650D01*
X00017867Y00023671D01*
X00018031Y00023696D01*
X00018193Y00023727D01*
X00018355Y00023763D01*
X00018515Y00023803D01*
X00018674Y00023849D01*
X00018831Y00023900D01*
X00018987Y00023955D01*
X00019141Y00024016D01*
X00019293Y00024081D01*
X00019443Y00024150D01*
X00019590Y00024225D01*
X00019735Y00024304D01*
X00019878Y00024387D01*
X00020018Y00024475D01*
X00020156Y00024567D01*
X00020290Y00024663D01*
X00020421Y00024764D01*
X00020549Y00024868D01*
X00020674Y00024977D01*
X00020795Y00025089D01*
X00020913Y00025205D01*
X00021027Y00025324D01*
X00021138Y00025448D01*
X00021244Y00025574D01*
X00021347Y00025704D01*
X00021445Y00025837D01*
X00021539Y00025972D01*
X00021629Y00026111D01*
X00021715Y00026252D01*
X00021796Y00026397D01*
X00021873Y00026543D01*
X00021945Y00026692D01*
X00022012Y00026843D01*
X00022075Y00026996D01*
X00022133Y00027151D01*
X00022186Y00027307D01*
X00022234Y00027465D01*
X00022277Y00027625D01*
X00022315Y00027786D01*
X00022349Y00027948D01*
X00022377Y00028111D01*
X00022383Y00028154D01*
X00022388Y00028184D01*
X00022396Y00028213D01*
X00022406Y00028242D01*
X00022418Y00028270D01*
X00022432Y00028297D01*
X00022448Y00028323D01*
X00022467Y00028347D01*
X00022487Y00028370D01*
X00022508Y00028391D01*
X00022532Y00028410D01*
X00022556Y00028428D01*
X00022582Y00028444D01*
X00022610Y00028457D01*
X00022638Y00028469D01*
X00022667Y00028478D01*
X00022696Y00028485D01*
X00022726Y00028490D01*
X00022756Y00028493D01*
X00022787Y00028493D01*
X00022817Y00028490D01*
X00023343Y00028431D01*
X00023368Y00028427D01*
X00023393Y00028422D01*
X00023417Y00028415D01*
X00023441Y00028407D01*
X00023465Y00028397D01*
X00023487Y00028385D01*
X00023509Y00028372D01*
X00023530Y00028358D01*
X00023550Y00028343D01*
X00023569Y00028326D01*
X00023587Y00028308D01*
X00023604Y00028289D01*
X00023619Y00028269D01*
X00023633Y00028248D01*
X00023646Y00028226D01*
X00023657Y00028203D01*
X00023667Y00028180D01*
X00023675Y00028156D01*
X00023682Y00028131D01*
X00023687Y00028107D01*
X00023714Y00027948D01*
X00023747Y00027786D01*
X00023786Y00027625D01*
X00023829Y00027465D01*
X00023877Y00027307D01*
X00023930Y00027151D01*
X00023988Y00026996D01*
X00024051Y00026843D01*
X00024118Y00026692D01*
X00024190Y00026543D01*
X00024267Y00026397D01*
X00024348Y00026252D01*
X00024434Y00026111D01*
X00024523Y00025972D01*
X00024618Y00025837D01*
X00024716Y00025704D01*
X00024819Y00025574D01*
X00024925Y00025448D01*
X00025035Y00025324D01*
X00025150Y00025205D01*
X00025267Y00025089D01*
X00025389Y00024977D01*
X00025514Y00024868D01*
X00025642Y00024764D01*
X00025773Y00024663D01*
X00025907Y00024567D01*
X00026045Y00024475D01*
X00026185Y00024387D01*
X00026327Y00024304D01*
X00026473Y00024225D01*
X00026620Y00024150D01*
X00026770Y00024081D01*
X00026922Y00024016D01*
X00027076Y00023955D01*
X00027232Y00023900D01*
X00027389Y00023849D01*
X00027548Y00023803D01*
X00027708Y00023763D01*
X00027870Y00023727D01*
X00028031Y00023697D01*
X00028059Y00023690D01*
X00028087Y00023682D01*
X00028113Y00023671D01*
X00028139Y00023659D01*
X00028164Y00023645D01*
X00028188Y00023629D01*
X00028211Y00023611D01*
X00028232Y00023592D01*
X00028252Y00023571D01*
X00028271Y00023549D01*
X00028287Y00023525D01*
X00028302Y00023501D01*
X00028315Y00023475D01*
X00028326Y00023448D01*
X00028335Y00023421D01*
X00028343Y00023393D01*
X00028348Y00023365D01*
X00028351Y00023336D01*
X00028352Y00023307D01*
X00028350Y00023279D01*
X00028305Y00022708D01*
X00028302Y00022683D01*
X00028298Y00022658D01*
X00028292Y00022633D01*
X00028284Y00022608D01*
X00028274Y00022584D01*
X00028263Y00022561D01*
X00028251Y00022538D01*
X00028237Y00022517D01*
X00028222Y00022496D01*
X00028206Y00022476D01*
X00028188Y00022458D01*
X00028169Y00022441D01*
X00028149Y00022424D01*
X00028128Y00022410D01*
X00028106Y00022396D01*
X00028083Y00022385D01*
X00028059Y00022374D01*
X00028035Y00022365D01*
X00028011Y00022358D01*
X00027986Y00022353D01*
X00027870Y00022331D01*
X00027708Y00022295D01*
X00027548Y00022254D01*
X00027389Y00022209D01*
X00027232Y00022158D01*
X00027076Y00022103D01*
X00026922Y00022042D01*
X00026770Y00021977D01*
X00026620Y00021907D01*
X00026473Y00021833D01*
X00026327Y00021754D01*
X00026185Y00021671D01*
X00026045Y00021583D01*
X00025907Y00021491D01*
X00025773Y00021395D01*
X00025642Y00021294D01*
X00025514Y00021190D01*
X00025389Y00021081D01*
X00025267Y00020969D01*
X00025150Y00020853D01*
X00025035Y00020733D01*
X00024925Y00020610D01*
X00024819Y00020484D01*
X00024716Y00020354D01*
X00024618Y00020221D01*
X00024523Y00020085D01*
X00024434Y00019947D01*
X00024348Y00019805D01*
X00024267Y00019661D01*
X00024190Y00019515D01*
X00024118Y00019366D01*
X00024051Y00019215D01*
X00023988Y00019062D01*
X00023930Y00018907D01*
X00023877Y00018751D01*
X00023829Y00018592D01*
X00023786Y00018433D01*
X00023747Y00018272D01*
X00023714Y00018110D01*
X00023702Y00018040D01*
X00023696Y00018013D01*
X00023689Y00017986D01*
X00023679Y00017960D01*
X00023668Y00017934D01*
X00023655Y00017910D01*
X00023641Y00017887D01*
X00023624Y00017864D01*
X00023606Y00017843D01*
X00023587Y00017823D01*
X00023567Y00017805D01*
X00023545Y00017788D01*
X00023522Y00017772D01*
X00023498Y00017758D01*
X00023473Y00017746D01*
X00023447Y00017736D01*
X00023421Y00017728D01*
X00023394Y00017721D01*
X00023366Y00017716D01*
X00023339Y00017714D01*
X00023311Y00017713D01*
X00022745Y00017717D01*
X00022717Y00017719D01*
X00022690Y00017722D01*
X00022663Y00017727D01*
X00022637Y00017733D01*
X00022611Y00017742D01*
X00022585Y00017753D01*
X00022561Y00017765D01*
X00022537Y00017779D01*
X00022515Y00017794D01*
X00022493Y00017811D01*
X00022473Y00017829D01*
X00022454Y00017849D01*
X00022437Y00017870D01*
X00022421Y00017893D01*
X00022406Y00017916D01*
X00022393Y00017940D01*
X00022382Y00017965D01*
X00022373Y00017991D01*
X00022366Y00018017D01*
X00022360Y00018044D01*
X00022349Y00018110D01*
X00022315Y00018272D01*
X00022277Y00018433D01*
X00022234Y00018592D01*
X00022186Y00018751D01*
X00022133Y00018907D01*
X00022075Y00019062D01*
X00022012Y00019215D01*
X00021945Y00019366D01*
X00021873Y00019515D01*
X00021796Y00019661D01*
X00021715Y00019805D01*
X00021629Y00019947D01*
X00021539Y00020085D01*
X00021445Y00020221D01*
X00021347Y00020354D01*
X00021244Y00020484D01*
X00021138Y00020610D01*
X00021027Y00020733D01*
X00020913Y00020853D01*
X00020795Y00020969D01*
X00020674Y00021081D01*
X00020549Y00021190D01*
X00020421Y00021294D01*
X00020290Y00021395D01*
X00020156Y00021491D01*
X00020018Y00021583D01*
X00019878Y00021671D01*
X00019735Y00021754D01*
X00019590Y00021833D01*
X00019443Y00021907D01*
X00019293Y00021977D01*
X00019141Y00022042D01*
X00018987Y00022103D01*
X00018831Y00022158D01*
X00018674Y00022209D01*
X00018515Y00022254D01*
X00018355Y00022295D01*
X00018193Y00022331D01*
X00018031Y00022361D01*
X00017867Y00022387D01*
X00017703Y00022408D01*
X00017539Y00022423D01*
X00017374Y00022433D01*
X00017208Y00022438D01*
X00017043Y00022438D01*
X00016878Y00022433D01*
X00016713Y00022423D01*
X00016548Y00022408D01*
X00016384Y00022387D01*
X00016221Y00022361D01*
X00016059Y00022331D01*
X00015897Y00022295D01*
X00015737Y00022254D01*
X00015578Y00022209D01*
X00015421Y00022158D01*
X00015265Y00022103D01*
X00015111Y00022042D01*
X00014959Y00021977D01*
X00014809Y00021907D01*
X00014661Y00021833D01*
X00014516Y00021754D01*
X00014373Y00021671D01*
X00014233Y00021583D01*
X00014096Y00021491D01*
X00013962Y00021395D01*
X00013830Y00021294D01*
X00013702Y00021190D01*
X00013578Y00021081D01*
X00013456Y00020969D01*
X00013338Y00020853D01*
X00013224Y00020733D01*
X00013114Y00020610D01*
X00013007Y00020484D01*
X00012905Y00020354D01*
X00012806Y00020221D01*
X00012712Y00020085D01*
X00012622Y00019947D01*
X00012537Y00019805D01*
X00012455Y00019661D01*
X00012379Y00019515D01*
X00012307Y00019366D01*
X00012239Y00019215D01*
X00012177Y00019062D01*
X00012119Y00018907D01*
X00012066Y00018751D01*
X00012018Y00018592D01*
X00011974Y00018433D01*
X00011936Y00018272D01*
X00011907Y00018131D01*
X00011901Y00018106D01*
X00011894Y00018081D01*
X00011884Y00018057D01*
X00011874Y00018034D01*
X00011862Y00018011D01*
X00011848Y00017989D01*
X00011833Y00017969D01*
X00011816Y00017949D01*
X00011799Y00017930D01*
X00011780Y00017913D01*
X00011760Y00017896D01*
X00011739Y00017881D01*
X00011717Y00017868D01*
X00011694Y00017856D01*
X00011671Y00017845D01*
X00011647Y00017836D01*
X00011622Y00017829D01*
X00011597Y00017823D01*
X00011572Y00017819D01*
X00011546Y00017817D01*
X00010951Y00017779D01*
X00010922Y00017779D01*
X00010893Y00017780D01*
X00010865Y00017783D01*
X00010837Y00017789D01*
X00010809Y00017796D01*
X00010782Y00017806D01*
X00010755Y00017818D01*
X00010730Y00017831D01*
X00010705Y00017846D01*
X00010682Y00017863D01*
X00010660Y00017882D01*
X00010640Y00017902D01*
X00010621Y00017924D01*
X00010603Y00017947D01*
X00010588Y00017971D01*
X00010574Y00017996D01*
X00010562Y00018022D01*
X00010552Y00018049D01*
X00010544Y00018077D01*
X00010538Y00018105D01*
X00010537Y00018110D01*
X00010504Y00018272D01*
X00010466Y00018433D01*
X00010423Y00018592D01*
X00010375Y00018751D01*
X00010322Y00018907D01*
X00010264Y00019062D01*
X00010201Y00019215D01*
X00010134Y00019366D01*
X00010062Y00019515D01*
X00009985Y00019661D01*
X00009904Y00019805D01*
X00009818Y00019947D01*
X00009728Y00020085D01*
X00009634Y00020221D01*
X00009535Y00020354D01*
X00009433Y00020484D01*
X00009327Y00020610D01*
X00009216Y00020733D01*
X00009102Y00020853D01*
X00008984Y00020969D01*
X00008863Y00021081D01*
X00008738Y00021190D01*
X00008610Y00021294D01*
X00008479Y00021395D01*
X00008344Y00021491D01*
X00008207Y00021583D01*
X00008067Y00021671D01*
X00007924Y00021754D01*
X00007779Y00021833D01*
X00007631Y00021907D01*
X00007481Y00021977D01*
X00007329Y00022042D01*
X00007176Y00022103D01*
X00007020Y00022158D01*
X00006862Y00022209D01*
X00006704Y00022254D01*
X00006543Y00022295D01*
X00006382Y00022331D01*
X00006219Y00022361D01*
X00006064Y00022386D01*
X00006107Y00010569D02*
X00006107Y00010569D01*
X00006080Y00010574D01*
X00006054Y00010581D01*
X00006028Y00010590D01*
X00006003Y00010601D01*
X00005979Y00010613D01*
X00005955Y00010627D01*
X00005933Y00010642D01*
X00005911Y00010659D01*
X00005891Y00010678D01*
X00005873Y00010697D01*
X00005855Y00010718D01*
X00005840Y00010740D01*
X00005825Y00010764D01*
X00005813Y00010788D01*
X00005802Y00010813D01*
X00005793Y00010838D01*
X00005785Y00010864D01*
X00005780Y00010891D01*
X00005776Y00010918D01*
X00005774Y00010945D01*
X00005757Y00011464D01*
X00005757Y00011493D01*
X00005760Y00011521D01*
X00005764Y00011549D01*
X00005770Y00011577D01*
X00005778Y00011605D01*
X00005788Y00011631D01*
X00005801Y00011657D01*
X00005814Y00011682D01*
X00005830Y00011706D01*
X00005848Y00011728D01*
X00005866Y00011749D01*
X00005887Y00011769D01*
X00005909Y00011788D01*
X00005932Y00011804D01*
X00005956Y00011819D01*
X00005981Y00011832D01*
X00006007Y00011844D01*
X00006034Y00011853D01*
X00006062Y00011861D01*
X00006090Y00011866D01*
X00006219Y00011886D01*
X00006382Y00011917D01*
X00006543Y00011953D01*
X00006704Y00011994D01*
X00006862Y00012039D01*
X00007020Y00012090D01*
X00007176Y00012145D01*
X00007329Y00012206D01*
X00007481Y00012271D01*
X00007631Y00012340D01*
X00007779Y00012415D01*
X00007924Y00012494D01*
X00008067Y00012577D01*
X00008207Y00012665D01*
X00008344Y00012757D01*
X00008479Y00012853D01*
X00008610Y00012954D01*
X00008738Y00013058D01*
X00008863Y00013167D01*
X00008984Y00013279D01*
X00009102Y00013395D01*
X00009216Y00013515D01*
X00009327Y00013638D01*
X00009433Y00013764D01*
X00009535Y00013894D01*
X00009634Y00014027D01*
X00009728Y00014162D01*
X00009818Y00014301D01*
X00009904Y00014443D01*
X00009985Y00014587D01*
X00010062Y00014733D01*
X00010134Y00014882D01*
X00010201Y00015033D01*
X00010264Y00015186D01*
X00010322Y00015341D01*
X00010375Y00015497D01*
X00010423Y00015655D01*
X00010466Y00015815D01*
X00010504Y00015976D01*
X00010537Y00016138D01*
X00010548Y00016199D01*
X00010554Y00016227D01*
X00010562Y00016254D01*
X00010571Y00016281D01*
X00010583Y00016307D01*
X00010597Y00016332D01*
X00010612Y00016356D01*
X00010629Y00016378D01*
X00010647Y00016400D01*
X00010668Y00016420D01*
X00010689Y00016439D01*
X00010712Y00016456D01*
X00010736Y00016471D01*
X00010761Y00016485D01*
X00010787Y00016496D01*
X00010813Y00016506D01*
X00010841Y00016514D01*
X00010868Y00016520D01*
X00010897Y00016524D01*
X00010925Y00016525D01*
X00010953Y00016525D01*
X00011526Y00016500D01*
X00011553Y00016498D01*
X00011579Y00016494D01*
X00011605Y00016488D01*
X00011631Y00016481D01*
X00011656Y00016472D01*
X00011680Y00016461D01*
X00011704Y00016449D01*
X00011727Y00016435D01*
X00011748Y00016419D01*
X00011769Y00016402D01*
X00011788Y00016384D01*
X00011807Y00016364D01*
X00011823Y00016343D01*
X00011839Y00016322D01*
X00011852Y00016299D01*
X00011865Y00016275D01*
X00011875Y00016251D01*
X00011884Y00016225D01*
X00011891Y00016200D01*
X00011897Y00016174D01*
X00011903Y00016138D01*
X00011936Y00015976D01*
X00011974Y00015815D01*
X00012018Y00015655D01*
X00012066Y00015497D01*
X00012119Y00015341D01*
X00012177Y00015186D01*
X00012239Y00015033D01*
X00012307Y00014882D01*
X00012379Y00014733D01*
X00012455Y00014587D01*
X00012537Y00014443D01*
X00012622Y00014301D01*
X00012712Y00014162D01*
X00012806Y00014027D01*
X00012905Y00013894D01*
X00013007Y00013764D01*
X00013114Y00013638D01*
X00013224Y00013515D01*
X00013338Y00013395D01*
X00013456Y00013279D01*
X00013578Y00013167D01*
X00013702Y00013058D01*
X00013830Y00012954D01*
X00013962Y00012853D01*
X00014096Y00012757D01*
X00014233Y00012665D01*
X00014373Y00012577D01*
X00014516Y00012494D01*
X00014661Y00012415D01*
X00014809Y00012340D01*
X00014959Y00012271D01*
X00015111Y00012206D01*
X00015265Y00012145D01*
X00015421Y00012090D01*
X00015578Y00012039D01*
X00015737Y00011994D01*
X00015897Y00011953D01*
X00016059Y00011917D01*
X00016221Y00011886D01*
X00016384Y00011861D01*
X00016548Y00011840D01*
X00016713Y00011825D01*
X00016878Y00011815D01*
X00017043Y00011809D01*
X00017208Y00011809D01*
X00017374Y00011815D01*
X00017539Y00011825D01*
X00017703Y00011840D01*
X00017867Y00011861D01*
X00018031Y00011886D01*
X00018193Y00011917D01*
X00018355Y00011953D01*
X00018515Y00011994D01*
X00018674Y00012039D01*
X00018831Y00012090D01*
X00018987Y00012145D01*
X00019141Y00012206D01*
X00019293Y00012271D01*
X00019443Y00012340D01*
X00019590Y00012415D01*
X00019735Y00012494D01*
X00019878Y00012577D01*
X00020018Y00012665D01*
X00020156Y00012757D01*
X00020290Y00012853D01*
X00020421Y00012954D01*
X00020549Y00013058D01*
X00020674Y00013167D01*
X00020795Y00013279D01*
X00020913Y00013395D01*
X00021027Y00013515D01*
X00021138Y00013638D01*
X00021244Y00013764D01*
X00021347Y00013894D01*
X00021445Y00014027D01*
X00021539Y00014162D01*
X00021629Y00014301D01*
X00021715Y00014443D01*
X00021796Y00014587D01*
X00021873Y00014733D01*
X00021945Y00014882D01*
X00022012Y00015033D01*
X00022075Y00015186D01*
X00022133Y00015341D01*
X00022186Y00015497D01*
X00022234Y00015655D01*
X00022277Y00015815D01*
X00022315Y00015976D01*
X00022343Y00016108D01*
X00022349Y00016134D01*
X00022357Y00016160D01*
X00022367Y00016185D01*
X00022378Y00016209D01*
X00022391Y00016232D01*
X00022406Y00016255D01*
X00022422Y00016276D01*
X00022439Y00016296D01*
X00022458Y00016315D01*
X00022478Y00016333D01*
X00022499Y00016349D01*
X00022522Y00016364D01*
X00022545Y00016377D01*
X00022569Y00016389D01*
X00022594Y00016399D01*
X00022619Y00016407D01*
X00022645Y00016414D01*
X00022672Y00016419D01*
X00022698Y00016421D01*
X00022725Y00016423D01*
X00023331Y00016427D01*
X00023358Y00016426D01*
X00023385Y00016424D01*
X00023412Y00016419D01*
X00023438Y00016413D01*
X00023464Y00016405D01*
X00023489Y00016395D01*
X00023514Y00016384D01*
X00023537Y00016371D01*
X00023560Y00016356D01*
X00023582Y00016339D01*
X00023602Y00016322D01*
X00023621Y00016303D01*
X00023639Y00016282D01*
X00023655Y00016261D01*
X00023670Y00016238D01*
X00023683Y00016214D01*
X00023695Y00016190D01*
X00023705Y00016165D01*
X00023713Y00016139D01*
X00023719Y00016113D01*
X00023747Y00015976D01*
X00023786Y00015815D01*
X00023829Y00015655D01*
X00023877Y00015497D01*
X00023930Y00015341D01*
X00023988Y00015186D01*
X00024051Y00015033D01*
X00024118Y00014882D01*
X00024190Y00014733D01*
X00024267Y00014587D01*
X00024348Y00014443D01*
X00024434Y00014301D01*
X00024523Y00014162D01*
X00024618Y00014027D01*
X00024716Y00013894D01*
X00024819Y00013764D01*
X00024925Y00013638D01*
X00025035Y00013515D01*
X00025150Y00013395D01*
X00025267Y00013279D01*
X00025389Y00013167D01*
X00025514Y00013058D01*
X00025642Y00012954D01*
X00025773Y00012853D01*
X00025907Y00012757D01*
X00026045Y00012665D01*
X00026185Y00012577D01*
X00026327Y00012494D01*
X00026473Y00012415D01*
X00026620Y00012340D01*
X00026770Y00012271D01*
X00026922Y00012206D01*
X00027076Y00012145D01*
X00027232Y00012090D01*
X00027389Y00012039D01*
X00027548Y00011994D01*
X00027708Y00011953D01*
X00027870Y00011917D01*
X00027914Y00011909D01*
X00027941Y00011903D01*
X00027968Y00011894D01*
X00027995Y00011884D01*
X00028020Y00011872D01*
X00028045Y00011859D01*
X00028068Y00011843D01*
X00028090Y00011826D01*
X00028112Y00011808D01*
X00028131Y00011788D01*
X00028150Y00011766D01*
X00028166Y00011744D01*
X00028181Y00011720D01*
X00028194Y00011695D01*
X00028206Y00011670D01*
X00028216Y00011643D01*
X00028223Y00011616D01*
X00028229Y00011589D01*
X00028233Y00011561D01*
X00028235Y00011533D01*
X00028234Y00011505D01*
X00028207Y00010894D01*
X00028205Y00010867D01*
X00028201Y00010841D01*
X00028196Y00010815D01*
X00028189Y00010790D01*
X00028180Y00010765D01*
X00028169Y00010741D01*
X00028157Y00010718D01*
X00028143Y00010695D01*
X00028128Y00010674D01*
X00028111Y00010653D01*
X00028094Y00010634D01*
X00028074Y00010616D01*
X00028054Y00010599D01*
X00028033Y00010583D01*
X00028010Y00010570D01*
X00027987Y00010557D01*
X00027963Y00010546D01*
X00027938Y00010537D01*
X00027913Y00010530D01*
X00027887Y00010524D01*
X00027870Y00010521D01*
X00027708Y00010485D01*
X00027548Y00010444D01*
X00027389Y00010399D01*
X00027232Y00010348D01*
X00027076Y00010293D01*
X00026922Y00010232D01*
X00026770Y00010167D01*
X00026620Y00010098D01*
X00026473Y00010023D01*
X00026327Y00009944D01*
X00026185Y00009861D01*
X00026045Y00009773D01*
X00025907Y00009681D01*
X00025773Y00009585D01*
X00025642Y00009484D01*
X00025514Y00009380D01*
X00025389Y00009271D01*
X00025267Y00009159D01*
X00025150Y00009043D01*
X00025035Y00008923D01*
X00024925Y00008800D01*
X00024819Y00008674D01*
X00024716Y00008544D01*
X00024618Y00008411D01*
X00024523Y00008275D01*
X00024434Y00008137D01*
X00024348Y00007995D01*
X00024267Y00007851D01*
X00024190Y00007705D01*
X00024118Y00007556D01*
X00024051Y00007405D01*
X00023988Y00007252D01*
X00023930Y00007097D01*
X00023877Y00006941D01*
X00023829Y00006782D01*
X00023786Y00006623D01*
X00023747Y00006462D01*
X00023714Y00006300D01*
X00023699Y00006212D01*
X00023693Y00006185D01*
X00023686Y00006158D01*
X00023676Y00006132D01*
X00023665Y00006107D01*
X00023652Y00006082D01*
X00023637Y00006059D01*
X00023621Y00006036D01*
X00023603Y00006015D01*
X00023584Y00005995D01*
X00023563Y00005977D01*
X00023542Y00005960D01*
X00023519Y00005944D01*
X00023495Y00005930D01*
X00023470Y00005918D01*
X00023444Y00005908D01*
X00023417Y00005900D01*
X00023391Y00005893D01*
X00023363Y00005889D01*
X00023336Y00005886D01*
X00023308Y00005885D01*
X00022748Y00005889D01*
X00022721Y00005891D01*
X00022693Y00005894D01*
X00022666Y00005899D01*
X00022640Y00005906D01*
X00022614Y00005914D01*
X00022589Y00005925D01*
X00022564Y00005937D01*
X00022540Y00005951D01*
X00022518Y00005966D01*
X00022496Y00005983D01*
X00022476Y00006001D01*
X00022457Y00006021D01*
X00022440Y00006042D01*
X00022424Y00006065D01*
X00022409Y00006088D01*
X00022396Y00006112D01*
X00022385Y00006137D01*
X00022376Y00006163D01*
X00022369Y00006189D01*
X00022363Y00006216D01*
X00022349Y00006300D01*
X00022315Y00006462D01*
X00022277Y00006623D01*
X00022234Y00006782D01*
X00022186Y00006941D01*
X00022133Y00007097D01*
X00022075Y00007252D01*
X00022012Y00007405D01*
X00021945Y00007556D01*
X00021873Y00007705D01*
X00021796Y00007851D01*
X00021715Y00007995D01*
X00021629Y00008137D01*
X00021539Y00008275D01*
X00021445Y00008411D01*
X00021347Y00008544D01*
X00021244Y00008674D01*
X00021138Y00008800D01*
X00021027Y00008923D01*
X00020913Y00009043D01*
X00020795Y00009159D01*
X00020674Y00009271D01*
X00020549Y00009380D01*
X00020421Y00009484D01*
X00020290Y00009585D01*
X00020156Y00009681D01*
X00020018Y00009773D01*
X00019878Y00009861D01*
X00019735Y00009944D01*
X00019590Y00010023D01*
X00019443Y00010098D01*
X00019293Y00010167D01*
X00019141Y00010232D01*
X00018987Y00010293D01*
X00018831Y00010348D01*
X00018674Y00010399D01*
X00018515Y00010444D01*
X00018355Y00010485D01*
X00018193Y00010521D01*
X00018031Y00010551D01*
X00017867Y00010577D01*
X00017703Y00010598D01*
X00017539Y00010613D01*
X00017374Y00010623D01*
X00017208Y00010628D01*
X00017043Y00010628D01*
X00016878Y00010623D01*
X00016713Y00010613D01*
X00016548Y00010598D01*
X00016384Y00010577D01*
X00016221Y00010551D01*
X00016059Y00010521D01*
X00015897Y00010485D01*
X00015737Y00010444D01*
X00015578Y00010399D01*
X00015421Y00010348D01*
X00015265Y00010293D01*
X00015111Y00010232D01*
X00014959Y00010167D01*
X00014809Y00010098D01*
X00014661Y00010023D01*
X00014516Y00009944D01*
X00014373Y00009861D01*
X00014233Y00009773D01*
X00014096Y00009681D01*
X00013962Y00009585D01*
X00013830Y00009484D01*
X00013702Y00009380D01*
X00013578Y00009271D01*
X00013456Y00009159D01*
X00013338Y00009043D01*
X00013224Y00008923D01*
X00013114Y00008800D01*
X00013007Y00008674D01*
X00012905Y00008544D01*
X00012806Y00008411D01*
X00012712Y00008275D01*
X00012622Y00008137D01*
X00012537Y00007995D01*
X00012455Y00007851D01*
X00012379Y00007705D01*
X00012307Y00007556D01*
X00012239Y00007405D01*
X00012177Y00007252D01*
X00012119Y00007097D01*
X00012066Y00006941D01*
X00012018Y00006782D01*
X00011974Y00006623D01*
X00011936Y00006462D01*
X00011903Y00006300D01*
X00011879Y00006162D01*
X00011873Y00006134D01*
X00011865Y00006106D01*
X00011856Y00006080D01*
X00011844Y00006054D01*
X00011830Y00006029D01*
X00011815Y00006005D01*
X00011798Y00005982D01*
X00011779Y00005960D01*
X00011759Y00005940D01*
X00011737Y00005921D01*
X00011714Y00005904D01*
X00011690Y00005889D01*
X00011665Y00005876D01*
X00011639Y00005864D01*
X00011612Y00005854D01*
X00011585Y00005846D01*
X00011557Y00005841D01*
X00011529Y00005837D01*
X00011500Y00005835D01*
X00011472Y00005836D01*
X00010925Y00005863D01*
X00010898Y00005865D01*
X00010872Y00005869D01*
X00010846Y00005875D01*
X00010821Y00005882D01*
X00010796Y00005891D01*
X00010772Y00005902D01*
X00010748Y00005915D01*
X00010726Y00005929D01*
X00010704Y00005944D01*
X00010684Y00005961D01*
X00010664Y00005979D01*
X00010646Y00005999D01*
X00010630Y00006020D01*
X00010614Y00006041D01*
X00010601Y00006064D01*
X00010589Y00006088D01*
X00010578Y00006112D01*
X00010569Y00006137D01*
X00010562Y00006163D01*
X00010557Y00006189D01*
X00010537Y00006300D01*
X00010504Y00006462D01*
X00010466Y00006623D01*
X00010423Y00006782D01*
X00010375Y00006941D01*
X00010322Y00007097D01*
X00010264Y00007252D01*
X00010201Y00007405D01*
X00010134Y00007556D01*
X00010062Y00007705D01*
X00009985Y00007851D01*
X00009904Y00007995D01*
X00009818Y00008137D01*
X00009728Y00008275D01*
X00009634Y00008411D01*
X00009535Y00008544D01*
X00009433Y00008674D01*
X00009327Y00008800D01*
X00009216Y00008923D01*
X00009102Y00009043D01*
X00008984Y00009159D01*
X00008863Y00009271D01*
X00008738Y00009380D01*
X00008610Y00009484D01*
X00008479Y00009585D01*
X00008344Y00009681D01*
X00008207Y00009773D01*
X00008067Y00009861D01*
X00007924Y00009944D01*
X00007779Y00010023D01*
X00007631Y00010098D01*
X00007481Y00010167D01*
X00007329Y00010232D01*
X00007176Y00010293D01*
X00007020Y00010348D01*
X00006862Y00010399D01*
X00006704Y00010444D01*
X00006543Y00010485D01*
X00006382Y00010521D01*
X00006219Y00010551D01*
X00006107Y00010569D01*
X00004181Y00011932D02*
X00004181Y00011932D01*
X00004207Y00011925D01*
X00004233Y00011916D01*
X00004258Y00011906D01*
X00004282Y00011894D01*
X00004306Y00011880D01*
X00004328Y00011865D01*
X00004349Y00011848D01*
X00004370Y00011830D01*
X00004388Y00011810D01*
X00004406Y00011790D01*
X00004422Y00011768D01*
X00004436Y00011745D01*
X00004449Y00011721D01*
X00004460Y00011696D01*
X00004470Y00011670D01*
X00004477Y00011644D01*
X00004483Y00011618D01*
X00004487Y00011591D01*
X00004489Y00011564D01*
X00004489Y00011536D01*
X00004471Y00010875D01*
X00004469Y00010849D01*
X00004466Y00010823D01*
X00004461Y00010798D01*
X00004454Y00010773D01*
X00004446Y00010748D01*
X00004436Y00010724D01*
X00004424Y00010700D01*
X00004411Y00010678D01*
X00004396Y00010656D01*
X00004381Y00010636D01*
X00004363Y00010616D01*
X00004345Y00010598D01*
X00004325Y00010581D01*
X00004304Y00010565D01*
X00004282Y00010550D01*
X00004260Y00010538D01*
X00004236Y00010526D01*
X00004212Y00010516D01*
X00004187Y00010508D01*
X00004162Y00010502D01*
X00004086Y00010485D01*
X00003926Y00010444D01*
X00003767Y00010399D01*
X00003609Y00010348D01*
X00003454Y00010293D01*
X00003300Y00010232D01*
X00003148Y00010167D01*
X00002998Y00010098D01*
X00002850Y00010023D01*
X00002705Y00009944D01*
X00002562Y00009861D01*
X00002422Y00009773D01*
X00002285Y00009681D01*
X00002150Y00009585D01*
X00002019Y00009484D01*
X00001891Y00009380D01*
X00001766Y00009271D01*
X00001645Y00009159D01*
X00001527Y00009043D01*
X00001413Y00008923D01*
X00001303Y00008800D01*
X00001196Y00008674D01*
X00001094Y00008544D01*
X00000995Y00008411D01*
X00000901Y00008275D01*
X00000811Y00008137D01*
X00000725Y00007995D01*
X00000644Y00007851D01*
X00000568Y00007705D01*
X00000496Y00007556D01*
X00000428Y00007405D01*
X00000365Y00007252D01*
X00000308Y00007097D01*
X00000255Y00006941D01*
X00000206Y00006782D01*
X00000163Y00006623D01*
X00000125Y00006462D01*
X00000092Y00006300D01*
X00000064Y00006137D01*
X00000041Y00005974D01*
X00000023Y00005809D01*
X00000010Y00005644D01*
X00000002Y00005479D01*
X00000000Y00005314D01*
X00000002Y00005149D01*
X00000010Y00004983D01*
X00000023Y00004819D01*
X00000041Y00004654D01*
X00000064Y00004491D01*
X00000092Y00004328D01*
X00000125Y00004166D01*
X00000163Y00004005D01*
X00000206Y00003845D01*
X00000255Y00003687D01*
X00000308Y00003531D01*
X00000365Y00003376D01*
X00000428Y00003223D01*
X00000496Y00003072D01*
X00000568Y00002923D01*
X00000644Y00002777D01*
X00000725Y00002633D01*
X00000811Y00002491D01*
X00000901Y00002352D01*
X00000995Y00002217D01*
X00001094Y00002084D01*
X00001196Y00001954D01*
X00001303Y00001828D01*
X00001413Y00001705D01*
X00001527Y00001585D01*
X00001645Y00001469D01*
X00001766Y00001357D01*
X00001891Y00001248D01*
X00002019Y00001144D01*
X00002150Y00001043D01*
X00002285Y00000947D01*
X00002422Y00000855D01*
X00002562Y00000767D01*
X00002705Y00000684D01*
X00002850Y00000605D01*
X00002998Y00000530D01*
X00003148Y00000461D01*
X00003300Y00000396D01*
X00003454Y00000335D01*
X00003609Y00000280D01*
X00003767Y00000229D01*
X00003926Y00000184D01*
X00004086Y00000143D01*
X00004247Y00000107D01*
X00004410Y00000076D01*
X00004573Y00000051D01*
X00004737Y00000030D01*
X00004902Y00000015D01*
X00005067Y00000005D01*
X00005232Y00000000D01*
X00005397Y00000000D01*
X00005562Y00000005D01*
X00005727Y00000015D01*
X00005892Y00000030D01*
X00006056Y00000051D01*
X00006219Y00000076D01*
X00006382Y00000107D01*
X00006543Y00000143D01*
X00006704Y00000184D01*
X00006862Y00000229D01*
X00007020Y00000280D01*
X00007176Y00000335D01*
X00007329Y00000396D01*
X00007481Y00000461D01*
X00007631Y00000530D01*
X00007779Y00000605D01*
X00007924Y00000684D01*
X00008067Y00000767D01*
X00008207Y00000855D01*
X00008344Y00000947D01*
X00008479Y00001043D01*
X00008610Y00001144D01*
X00008738Y00001248D01*
X00008863Y00001357D01*
X00008984Y00001469D01*
X00009102Y00001585D01*
X00009216Y00001705D01*
X00009327Y00001828D01*
X00009433Y00001954D01*
X00009535Y00002084D01*
X00009634Y00002217D01*
X00009728Y00002352D01*
X00009818Y00002491D01*
X00009904Y00002633D01*
X00009985Y00002777D01*
X00010062Y00002923D01*
X00010134Y00003072D01*
X00010201Y00003223D01*
X00010264Y00003376D01*
X00010322Y00003531D01*
X00010375Y00003687D01*
X00010423Y00003845D01*
X00010466Y00004005D01*
X00010504Y00004166D01*
X00010518Y00004231D01*
X00010524Y00004257D01*
X00010531Y00004282D01*
X00010541Y00004306D01*
X00010552Y00004329D01*
X00010564Y00004352D01*
X00010578Y00004374D01*
X00010594Y00004395D01*
X00010610Y00004415D01*
X00010628Y00004434D01*
X00010648Y00004452D01*
X00010668Y00004468D01*
X00010689Y00004483D01*
X00010712Y00004496D01*
X00010735Y00004508D01*
X00010759Y00004518D01*
X00010783Y00004527D01*
X00010808Y00004534D01*
X00010834Y00004540D01*
X00010859Y00004544D01*
X00010885Y00004546D01*
X00011513Y00004574D01*
X00011541Y00004575D01*
X00011569Y00004573D01*
X00011596Y00004569D01*
X00011624Y00004564D01*
X00011651Y00004556D01*
X00011677Y00004547D01*
X00011702Y00004536D01*
X00011727Y00004523D01*
X00011751Y00004508D01*
X00011773Y00004492D01*
X00011794Y00004474D01*
X00011814Y00004454D01*
X00011833Y00004434D01*
X00011850Y00004412D01*
X00011866Y00004389D01*
X00011880Y00004365D01*
X00011892Y00004340D01*
X00011902Y00004314D01*
X00011910Y00004287D01*
X00011917Y00004260D01*
X00011936Y00004166D01*
X00011974Y00004005D01*
X00012018Y00003845D01*
X00012066Y00003687D01*
X00012119Y00003531D01*
X00012177Y00003376D01*
X00012239Y00003223D01*
X00012307Y00003072D01*
X00012379Y00002923D01*
X00012455Y00002777D01*
X00012537Y00002633D01*
X00012622Y00002491D01*
X00012712Y00002352D01*
X00012806Y00002217D01*
X00012905Y00002084D01*
X00013007Y00001954D01*
X00013114Y00001828D01*
X00013224Y00001705D01*
X00013338Y00001585D01*
X00013456Y00001469D01*
X00013578Y00001357D01*
X00013702Y00001248D01*
X00013830Y00001144D01*
X00013962Y00001043D01*
X00014096Y00000947D01*
X00014233Y00000855D01*
X00014373Y00000767D01*
X00014516Y00000684D01*
X00014661Y00000605D01*
X00014809Y00000530D01*
X00014959Y00000461D01*
X00015111Y00000396D01*
X00015265Y00000335D01*
X00015421Y00000280D01*
X00015578Y00000229D01*
X00015737Y00000184D01*
X00015897Y00000143D01*
X00016059Y00000107D01*
X00016221Y00000076D01*
X00016384Y00000051D01*
X00016548Y00000030D01*
X00016713Y00000015D01*
X00016878Y00000005D01*
X00017043Y00000000D01*
X00017208Y00000000D01*
X00017374Y00000005D01*
X00017539Y00000015D01*
X00017703Y00000030D01*
X00017867Y00000051D01*
X00018031Y00000076D01*
X00018193Y00000107D01*
X00018355Y00000143D01*
X00018515Y00000184D01*
X00018674Y00000229D01*
X00018831Y00000280D01*
X00018987Y00000335D01*
X00019141Y00000396D01*
X00019293Y00000461D01*
X00019443Y00000530D01*
X00019590Y00000605D01*
X00019735Y00000684D01*
X00019878Y00000767D01*
X00020018Y00000855D01*
X00020156Y00000947D01*
X00020290Y00001043D01*
X00020421Y00001144D01*
X00020549Y00001248D01*
X00020674Y00001357D01*
X00020795Y00001469D01*
X00020913Y00001585D01*
X00021027Y00001705D01*
X00021138Y00001828D01*
X00021244Y00001954D01*
X00021347Y00002084D01*
X00021445Y00002217D01*
X00021539Y00002352D01*
X00021629Y00002491D01*
X00021715Y00002633D01*
X00021796Y00002777D01*
X00021873Y00002923D01*
X00021945Y00003072D01*
X00022012Y00003223D01*
X00022075Y00003376D01*
X00022133Y00003531D01*
X00022186Y00003687D01*
X00022234Y00003845D01*
X00022277Y00004005D01*
X00022315Y00004166D01*
X00022339Y00004280D01*
X00022345Y00004307D01*
X00022353Y00004332D01*
X00022363Y00004357D01*
X00022374Y00004381D01*
X00022387Y00004405D01*
X00022402Y00004427D01*
X00022418Y00004449D01*
X00022436Y00004469D01*
X00022454Y00004488D01*
X00022475Y00004506D01*
X00022496Y00004522D01*
X00022518Y00004537D01*
X00022541Y00004550D01*
X00022566Y00004562D01*
X00022590Y00004572D01*
X00022616Y00004580D01*
X00022642Y00004586D01*
X00022668Y00004591D01*
X00022695Y00004594D01*
X00022722Y00004595D01*
X00023334Y00004600D01*
X00023362Y00004599D01*
X00023388Y00004596D01*
X00023415Y00004592D01*
X00023442Y00004586D01*
X00023467Y00004578D01*
X00023493Y00004568D01*
X00023517Y00004556D01*
X00023541Y00004543D01*
X00023563Y00004528D01*
X00023585Y00004512D01*
X00023606Y00004494D01*
X00023625Y00004475D01*
X00023643Y00004455D01*
X00023659Y00004433D01*
X00023674Y00004410D01*
X00023687Y00004387D01*
X00023699Y00004362D01*
X00023709Y00004337D01*
X00023717Y00004311D01*
X00023723Y00004285D01*
X00023747Y00004166D01*
X00023786Y00004005D01*
X00023829Y00003845D01*
X00023877Y00003687D01*
X00023930Y00003531D01*
X00023988Y00003376D01*
X00024051Y00003223D01*
X00024118Y00003072D01*
X00024190Y00002923D01*
X00024267Y00002777D01*
X00024348Y00002633D01*
X00024434Y00002491D01*
X00024523Y00002352D01*
X00024618Y00002217D01*
X00024716Y00002084D01*
X00024819Y00001954D01*
X00024925Y00001828D01*
X00025035Y00001705D01*
X00025150Y00001585D01*
X00025267Y00001469D01*
X00025389Y00001357D01*
X00025514Y00001248D01*
X00025642Y00001144D01*
X00025773Y00001043D01*
X00025907Y00000947D01*
X00026045Y00000855D01*
X00026185Y00000767D01*
X00026327Y00000684D01*
X00026473Y00000605D01*
X00026620Y00000530D01*
X00026770Y00000461D01*
X00026922Y00000396D01*
X00027076Y00000335D01*
X00027232Y00000280D01*
X00027389Y00000229D01*
X00027548Y00000184D01*
X00027708Y00000143D01*
X00027870Y00000107D01*
X00028032Y00000076D01*
X00028196Y00000051D01*
X00028360Y00000030D01*
X00028524Y00000015D01*
X00028689Y00000005D01*
X00028854Y00000000D01*
X00029020Y00000000D01*
X00029185Y00000005D01*
X00029350Y00000015D01*
X00029515Y00000030D01*
X00029679Y00000051D01*
X00029842Y00000076D01*
X00030004Y00000107D01*
X00030166Y00000143D01*
X00030326Y00000184D01*
X00030485Y00000229D01*
X00030642Y00000280D01*
X00030798Y00000335D01*
X00030952Y00000396D01*
X00031104Y00000461D01*
X00031254Y00000530D01*
X00031401Y00000605D01*
X00031547Y00000684D01*
X00031689Y00000767D01*
X00031830Y00000855D01*
X00031967Y00000947D01*
X00032101Y00001043D01*
X00032232Y00001144D01*
X00032361Y00001248D01*
X00032485Y00001357D01*
X00032607Y00001469D01*
X00032725Y00001585D01*
X00032839Y00001705D01*
X00032949Y00001828D01*
X00033055Y00001954D01*
X00033158Y00002084D01*
X00033256Y00002217D01*
X00033351Y00002352D01*
X00033441Y00002491D01*
X00033526Y00002633D01*
X00033607Y00002777D01*
X00033684Y00002923D01*
X00033756Y00003072D01*
X00033823Y00003223D01*
X00033886Y00003376D01*
X00033944Y00003531D01*
X00033997Y00003687D01*
X00034045Y00003845D01*
X00034088Y00004005D01*
X00034127Y00004166D01*
X00034160Y00004328D01*
X00034188Y00004491D01*
X00034211Y00004654D01*
X00034229Y00004819D01*
X00034242Y00004983D01*
X00034250Y00005149D01*
X00034252Y00005314D01*
X00034250Y00005479D01*
X00034242Y00005644D01*
X00034229Y00005809D01*
X00034211Y00005974D01*
X00034188Y00006137D01*
X00034160Y00006300D01*
X00034127Y00006462D01*
X00034088Y00006623D01*
X00034045Y00006782D01*
X00033997Y00006941D01*
X00033944Y00007097D01*
X00033886Y00007252D01*
X00033823Y00007405D01*
X00033756Y00007556D01*
X00033684Y00007705D01*
X00033607Y00007851D01*
X00033526Y00007995D01*
X00033441Y00008137D01*
X00033351Y00008275D01*
X00033256Y00008411D01*
X00033158Y00008544D01*
X00033055Y00008674D01*
X00032949Y00008800D01*
X00032839Y00008923D01*
X00032725Y00009043D01*
X00032607Y00009159D01*
X00032485Y00009271D01*
X00032361Y00009380D01*
X00032232Y00009484D01*
X00032101Y00009585D01*
X00031967Y00009681D01*
X00031830Y00009773D01*
X00031689Y00009861D01*
X00031547Y00009944D01*
X00031401Y00010023D01*
X00031254Y00010098D01*
X00031104Y00010167D01*
X00030952Y00010232D01*
X00030798Y00010293D01*
X00030642Y00010348D01*
X00030485Y00010399D01*
X00030326Y00010444D01*
X00030166Y00010485D01*
X00030004Y00010521D01*
X00029845Y00010551D01*
X00029845Y00010551D01*
X00029820Y00010556D01*
X00029795Y00010564D01*
X00029771Y00010573D01*
X00029747Y00010583D01*
X00029724Y00010595D01*
X00029702Y00010609D01*
X00029681Y00010624D01*
X00029661Y00010640D01*
X00029642Y00010657D01*
X00029624Y00010676D01*
X00029607Y00010696D01*
X00029592Y00010717D01*
X00029578Y00010739D01*
X00029566Y00010762D01*
X00029555Y00010785D01*
X00029546Y00010809D01*
X00029538Y00010834D01*
X00029532Y00010859D01*
X00029528Y00010885D01*
X00029526Y00010911D01*
X00029487Y00011467D01*
X00029487Y00011496D01*
X00029488Y00011525D01*
X00029491Y00011554D01*
X00029497Y00011583D01*
X00029504Y00011611D01*
X00029514Y00011639D01*
X00029526Y00011665D01*
X00029540Y00011691D01*
X00029555Y00011716D01*
X00029572Y00011739D01*
X00029592Y00011762D01*
X00029612Y00011782D01*
X00029634Y00011801D01*
X00029658Y00011819D01*
X00029682Y00011834D01*
X00029708Y00011848D01*
X00029735Y00011860D01*
X00029762Y00011870D01*
X00029791Y00011877D01*
X00029819Y00011883D01*
X00029842Y00011886D01*
X00030004Y00011917D01*
X00030166Y00011953D01*
X00030326Y00011994D01*
X00030485Y00012039D01*
X00030642Y00012090D01*
X00030798Y00012145D01*
X00030952Y00012206D01*
X00031104Y00012271D01*
X00031254Y00012340D01*
X00031401Y00012415D01*
X00031547Y00012494D01*
X00031689Y00012577D01*
X00031830Y00012665D01*
X00031967Y00012757D01*
X00032101Y00012853D01*
X00032232Y00012954D01*
X00032361Y00013058D01*
X00032485Y00013167D01*
X00032607Y00013279D01*
X00032725Y00013395D01*
X00032839Y00013515D01*
X00032949Y00013638D01*
X00033055Y00013764D01*
X00033158Y00013894D01*
X00033256Y00014027D01*
X00033351Y00014162D01*
X00033441Y00014301D01*
X00033526Y00014443D01*
X00033607Y00014587D01*
X00033684Y00014733D01*
X00033756Y00014882D01*
X00033823Y00015033D01*
X00033886Y00015186D01*
X00033944Y00015341D01*
X00033997Y00015497D01*
X00034045Y00015655D01*
X00034088Y00015815D01*
X00034127Y00015976D01*
X00034160Y00016138D01*
X00034188Y00016301D01*
X00034211Y00016464D01*
X00034229Y00016629D01*
X00034242Y00016793D01*
X00034250Y00016959D01*
X00034252Y00017124D01*
X00034250Y00017289D01*
X00034242Y00017454D01*
X00034229Y00017619D01*
X00034211Y00017783D01*
X00034188Y00017947D01*
X00034160Y00018110D01*
X00034127Y00018272D01*
X00034088Y00018433D01*
X00034045Y00018592D01*
X00033997Y00018751D01*
X00033944Y00018907D01*
X00033886Y00019062D01*
X00033823Y00019215D01*
X00033756Y00019366D01*
X00033684Y00019515D01*
X00033607Y00019661D01*
X00033526Y00019805D01*
X00033441Y00019947D01*
X00033351Y00020085D01*
X00033256Y00020221D01*
X00033158Y00020354D01*
X00033055Y00020484D01*
X00032949Y00020610D01*
X00032839Y00020733D01*
X00032725Y00020853D01*
X00032607Y00020969D01*
X00032485Y00021081D01*
X00032361Y00021190D01*
X00032232Y00021294D01*
X00032101Y00021395D01*
X00031967Y00021491D01*
X00031830Y00021583D01*
X00031689Y00021671D01*
X00031547Y00021754D01*
X00031401Y00021833D01*
X00031254Y00021907D01*
X00031104Y00021977D01*
X00030952Y00022042D01*
X00030798Y00022103D01*
X00030642Y00022158D01*
X00030485Y00022209D01*
X00030326Y00022254D01*
X00030166Y00022295D01*
X00030004Y00022331D01*
X00029963Y00022339D01*
X00029938Y00022344D01*
X00029913Y00022351D01*
X00029889Y00022360D01*
X00029865Y00022371D01*
X00029842Y00022382D01*
X00029820Y00022396D01*
X00029799Y00022411D01*
X00029779Y00022427D01*
X00029760Y00022444D01*
X00029743Y00022463D01*
X00029726Y00022482D01*
X00029711Y00022503D01*
X00029697Y00022525D01*
X00029685Y00022547D01*
X00029674Y00022571D01*
X00029664Y00022595D01*
X00029657Y00022619D01*
X00029651Y00022644D01*
X00029646Y00022669D01*
X00029643Y00022695D01*
X00029597Y00023293D01*
X00029596Y00023322D01*
X00029596Y00023351D01*
X00029599Y00023379D01*
X00029605Y00023407D01*
X00029612Y00023435D01*
X00029621Y00023463D01*
X00029632Y00023489D01*
X00029645Y00023515D01*
X00029660Y00023539D01*
X00029677Y00023563D01*
X00029695Y00023585D01*
X00029715Y00023606D01*
X00029736Y00023625D01*
X00029759Y00023643D01*
X00029783Y00023659D01*
X00029808Y00023673D01*
X00029834Y00023685D01*
X00029861Y00023696D01*
X00029888Y00023704D01*
X00029916Y00023710D01*
X00030004Y00023727D01*
X00030166Y00023763D01*
X00030326Y00023803D01*
X00030485Y00023849D01*
X00030642Y00023900D01*
X00030798Y00023955D01*
X00030952Y00024016D01*
X00031104Y00024081D01*
X00031254Y00024150D01*
X00031401Y00024225D01*
X00031547Y00024304D01*
X00031689Y00024387D01*
X00031830Y00024475D01*
X00031967Y00024567D01*
X00032101Y00024663D01*
X00032232Y00024764D01*
X00032361Y00024868D01*
X00032485Y00024977D01*
X00032607Y00025089D01*
X00032725Y00025205D01*
X00032839Y00025324D01*
X00032949Y00025448D01*
X00033055Y00025574D01*
X00033158Y00025704D01*
X00033256Y00025837D01*
X00033351Y00025972D01*
X00033441Y00026111D01*
X00033526Y00026252D01*
X00033607Y00026397D01*
X00033684Y00026543D01*
X00033756Y00026692D01*
X00033823Y00026843D01*
X00033886Y00026996D01*
X00033944Y00027151D01*
X00033997Y00027307D01*
X00034045Y00027465D01*
X00034088Y00027625D01*
X00034127Y00027786D01*
X00034160Y00027948D01*
X00034188Y00028111D01*
X00034211Y00028274D01*
X00034229Y00028439D01*
X00034242Y00028603D01*
X00034250Y00028769D01*
X00034252Y00028934D01*
X00034250Y00029099D01*
X00034242Y00029264D01*
X00034229Y00029429D01*
X00034211Y00029593D01*
X00034188Y00029757D01*
X00034160Y00029920D01*
X00034127Y00030082D01*
X00034088Y00030243D01*
X00034045Y00030402D01*
X00033997Y00030561D01*
X00033944Y00030717D01*
X00033886Y00030872D01*
X00033823Y00031025D01*
X00033756Y00031176D01*
X00033684Y00031325D01*
X00033607Y00031471D01*
X00033526Y00031615D01*
X00033441Y00031757D01*
X00033351Y00031895D01*
X00033256Y00032031D01*
X00033158Y00032164D01*
X00033055Y00032294D01*
X00032949Y00032420D01*
X00032839Y00032543D01*
X00032725Y00032663D01*
X00032607Y00032779D01*
X00032485Y00032891D01*
X00032361Y00033000D01*
X00032232Y00033104D01*
X00032101Y00033205D01*
X00031967Y00033301D01*
X00031830Y00033393D01*
X00031689Y00033481D01*
X00031547Y00033564D01*
X00031401Y00033643D01*
X00031254Y00033717D01*
X00031104Y00033787D01*
X00030952Y00033852D01*
X00030798Y00033912D01*
X00030642Y00033968D01*
X00030485Y00034019D01*
X00030326Y00034064D01*
X00030166Y00034105D01*
X00030004Y00034141D01*
X00029842Y00034171D01*
X00029679Y00034197D01*
X00029515Y00034217D01*
X00029350Y00034233D01*
X00029185Y00034243D01*
X00029020Y00034248D01*
X00028854Y00034248D01*
X00028689Y00034243D01*
X00028524Y00034233D01*
X00028360Y00034217D01*
X00028196Y00034197D01*
X00028032Y00034171D01*
X00027870Y00034141D01*
X00027708Y00034105D01*
X00027548Y00034064D01*
X00027389Y00034019D01*
X00027232Y00033968D01*
X00027076Y00033912D01*
X00026922Y00033852D01*
X00026770Y00033787D01*
X00026620Y00033717D01*
X00026473Y00033643D01*
X00026327Y00033564D01*
X00026185Y00033481D01*
X00026045Y00033393D01*
X00025907Y00033301D01*
X00025773Y00033205D01*
X00025642Y00033104D01*
X00025514Y00033000D01*
X00025389Y00032891D01*
X00025267Y00032779D01*
X00025150Y00032663D01*
X00025035Y00032543D01*
X00024925Y00032420D01*
X00024819Y00032294D01*
X00024716Y00032164D01*
X00024618Y00032031D01*
X00024523Y00031895D01*
X00024434Y00031757D01*
X00024348Y00031615D01*
X00024267Y00031471D01*
X00024190Y00031325D01*
X00024118Y00031176D01*
X00024051Y00031025D01*
X00023988Y00030872D01*
X00023930Y00030717D01*
X00023877Y00030561D01*
X00023829Y00030402D01*
X00023786Y00030243D01*
X00023748Y00030082D01*
X00023741Y00030059D01*
X00023733Y00030036D01*
X00023724Y00030013D01*
X00023713Y00029991D01*
X00023701Y00029970D01*
X00023688Y00029949D01*
X00023674Y00029929D01*
X00023658Y00029911D01*
X00023641Y00029893D01*
X00023623Y00029876D01*
X00023604Y00029861D01*
X00023584Y00029847D01*
X00023564Y00029834D01*
X00023542Y00029822D01*
X00023520Y00029812D01*
X00023498Y00029803D01*
X00023474Y00029795D01*
X00023451Y00029789D01*
X00023427Y00029784D01*
X00023402Y00029781D01*
X00022749Y00029718D01*
X00022721Y00029716D01*
X00022692Y00029717D01*
X00022663Y00029719D01*
X00022635Y00029724D01*
X00022607Y00029731D01*
X00022579Y00029739D01*
X00022552Y00029750D01*
X00022526Y00029763D01*
X00022501Y00029777D01*
X00022478Y00029793D01*
X00022455Y00029811D01*
X00022434Y00029831D01*
X00022414Y00029852D01*
X00022396Y00029874D01*
X00022380Y00029898D01*
X00022365Y00029923D01*
X00022352Y00029949D01*
X00022342Y00029975D01*
X00022333Y00030003D01*
X00022326Y00030031D01*
X00022315Y00030082D01*
X00022277Y00030243D01*
X00022234Y00030402D01*
X00022186Y00030561D01*
X00022133Y00030717D01*
X00022075Y00030872D01*
X00022012Y00031025D01*
X00021945Y00031176D01*
X00021873Y00031325D01*
X00021796Y00031471D01*
X00021715Y00031615D01*
X00021629Y00031757D01*
X00021539Y00031895D01*
X00021445Y00032031D01*
X00021347Y00032164D01*
X00021244Y00032294D01*
X00021138Y00032420D01*
X00021027Y00032543D01*
X00020913Y00032663D01*
X00020795Y00032779D01*
X00020674Y00032891D01*
X00020549Y00033000D01*
X00020421Y00033104D01*
X00020290Y00033205D01*
X00020156Y00033301D01*
X00020018Y00033393D01*
X00019878Y00033481D01*
X00019735Y00033564D01*
X00019590Y00033643D01*
X00019443Y00033717D01*
X00019293Y00033787D01*
X00019141Y00033852D01*
X00018987Y00033912D01*
X00018831Y00033968D01*
X00018674Y00034019D01*
X00018515Y00034064D01*
X00018355Y00034105D01*
X00018193Y00034141D01*
X00018031Y00034171D01*
X00017867Y00034197D01*
X00017703Y00034217D01*
X00017539Y00034233D01*
X00017374Y00034243D01*
X00017208Y00034248D01*
X00017043Y00034248D01*
X00016878Y00034243D01*
X00016713Y00034233D01*
X00016548Y00034217D01*
X00016384Y00034197D01*
X00016221Y00034171D01*
X00016059Y00034141D01*
X00015897Y00034105D01*
X00015737Y00034064D01*
X00015578Y00034019D01*
X00015421Y00033968D01*
X00015265Y00033912D01*
X00015111Y00033852D01*
X00014959Y00033787D01*
X00014809Y00033717D01*
X00014661Y00033643D01*
X00014516Y00033564D01*
X00014373Y00033481D01*
X00014233Y00033393D01*
X00014096Y00033301D01*
X00013962Y00033205D01*
X00013830Y00033104D01*
X00013702Y00033000D01*
X00013578Y00032891D01*
X00013456Y00032779D01*
X00013338Y00032663D01*
X00013224Y00032543D01*
X00013114Y00032420D01*
X00013007Y00032294D01*
X00012905Y00032164D01*
X00012806Y00032031D01*
X00012712Y00031895D01*
X00012622Y00031757D01*
X00012537Y00031615D01*
X00012455Y00031471D01*
X00012379Y00031325D01*
X00012307Y00031176D01*
X00012239Y00031025D01*
X00012177Y00030872D01*
X00012119Y00030717D01*
X00012066Y00030561D01*
X00012018Y00030402D01*
X00011974Y00030243D01*
X00011948Y00030133D01*
X00011948Y00030133D01*
X00011942Y00030111D01*
X00011935Y00030088D01*
X00011926Y00030066D01*
X00011916Y00030045D01*
X00011905Y00030024D01*
X00011892Y00030005D01*
X00011878Y00029985D01*
X00011863Y00029967D01*
X00011848Y00029950D01*
X00011831Y00029933D01*
X00011813Y00029918D01*
X00011794Y00029904D01*
X00011774Y00029891D01*
X00011754Y00029879D01*
X00011733Y00029868D01*
X00011712Y00029859D01*
X00011689Y00029851D01*
X00011667Y00029844D01*
X00011644Y00029839D01*
X00011621Y00029835D01*
X00010952Y00029740D01*
X00010922Y00029737D01*
X00010892Y00029736D01*
X00010863Y00029737D01*
X00010833Y00029741D01*
X00010804Y00029747D01*
X00010775Y00029755D01*
X00010748Y00029765D01*
X00010721Y00029777D01*
X00010694Y00029791D01*
X00010670Y00029808D01*
X00010646Y00029826D01*
X00010624Y00029845D01*
X00010603Y00029867D01*
X00010584Y00029890D01*
X00010567Y00029914D01*
X00010552Y00029939D01*
X00010538Y00029966D01*
X00010527Y00029993D01*
X00010518Y00030021D01*
X00010511Y00030050D01*
X00010504Y00030082D01*
X00010466Y00030243D01*
X00010423Y00030402D01*
X00010375Y00030561D01*
X00010322Y00030717D01*
X00010264Y00030872D01*
X00010201Y00031025D01*
X00010134Y00031176D01*
X00010062Y00031325D01*
X00009985Y00031471D01*
X00009904Y00031615D01*
X00009818Y00031757D01*
X00009728Y00031895D01*
X00009634Y00032031D01*
X00009535Y00032164D01*
X00009433Y00032294D01*
X00009327Y00032420D01*
X00009216Y00032543D01*
X00009102Y00032663D01*
X00008984Y00032779D01*
X00008863Y00032891D01*
X00008738Y00033000D01*
X00008610Y00033104D01*
X00008479Y00033205D01*
X00008344Y00033301D01*
X00008207Y00033393D01*
X00008067Y00033481D01*
X00007924Y00033564D01*
X00007779Y00033643D01*
X00007631Y00033717D01*
X00007481Y00033787D01*
X00007329Y00033852D01*
X00007176Y00033912D01*
X00007020Y00033968D01*
X00006862Y00034019D01*
X00006704Y00034064D01*
X00006543Y00034105D01*
X00006382Y00034141D01*
X00006219Y00034171D01*
X00006056Y00034197D01*
X00005892Y00034217D01*
X00005727Y00034233D01*
X00005562Y00034243D01*
X00005397Y00034248D01*
X00005232Y00034248D01*
X00005067Y00034243D01*
X00004902Y00034233D01*
X00004737Y00034217D01*
X00004573Y00034197D01*
X00004410Y00034171D01*
X00004247Y00034141D01*
X00004086Y00034105D01*
X00003926Y00034064D01*
X00003767Y00034019D01*
X00003609Y00033968D01*
X00003454Y00033912D01*
X00003300Y00033852D01*
X00003148Y00033787D01*
X00002998Y00033717D01*
X00002850Y00033643D01*
X00002705Y00033564D01*
X00002562Y00033481D01*
X00002422Y00033393D01*
X00002285Y00033301D01*
X00002150Y00033205D01*
X00002019Y00033104D01*
X00001891Y00033000D01*
X00001766Y00032891D01*
X00001645Y00032779D01*
X00001527Y00032663D01*
X00001413Y00032543D01*
X00001303Y00032420D01*
X00001196Y00032294D01*
X00001094Y00032164D01*
X00000995Y00032031D01*
X00000901Y00031895D01*
X00000811Y00031757D01*
X00000725Y00031615D01*
X00000644Y00031471D01*
X00000568Y00031325D01*
X00000496Y00031176D01*
X00000428Y00031025D01*
X00000365Y00030872D01*
X00000308Y00030717D01*
X00000255Y00030561D01*
X00000206Y00030402D01*
X00000163Y00030243D01*
X00000125Y00030082D01*
X00000092Y00029920D01*
X00000064Y00029757D01*
X00000041Y00029593D01*
X00000023Y00029429D01*
X00000010Y00029264D01*
X00000002Y00029099D01*
X00000000Y00028934D01*
X00000002Y00028769D01*
X00000010Y00028603D01*
X00000023Y00028439D01*
X00000041Y00028274D01*
X00000064Y00028111D01*
X00000092Y00027948D01*
X00000125Y00027786D01*
X00000163Y00027625D01*
X00000206Y00027465D01*
X00000255Y00027307D01*
X00000308Y00027151D01*
X00000365Y00026996D01*
X00000428Y00026843D01*
X00000496Y00026692D01*
X00000568Y00026543D01*
X00000644Y00026397D01*
X00000725Y00026252D01*
X00000811Y00026111D01*
X00000901Y00025972D01*
X00000995Y00025837D01*
X00001094Y00025704D01*
X00001196Y00025574D01*
X00001303Y00025448D01*
X00001413Y00025324D01*
X00001527Y00025205D01*
X00001645Y00025089D01*
X00001766Y00024977D01*
X00001891Y00024868D01*
X00002019Y00024764D01*
X00002150Y00024663D01*
X00002285Y00024567D01*
X00002422Y00024475D01*
X00002562Y00024387D01*
X00002705Y00024304D01*
X00002850Y00024225D01*
X00002998Y00024150D01*
X00003148Y00024081D01*
X00003300Y00024016D01*
X00003454Y00023955D01*
X00003609Y00023900D01*
X00003767Y00023849D01*
X00003926Y00023803D01*
X00004086Y00023763D01*
X00004139Y00023751D01*
X00004165Y00023744D01*
X00004190Y00023736D01*
X00004214Y00023726D01*
X00004238Y00023714D01*
X00004261Y00023701D01*
X00004283Y00023687D01*
X00004304Y00023670D01*
X00004324Y00023653D01*
X00004343Y00023634D01*
X00004360Y00023614D01*
X00004376Y00023593D01*
X00004391Y00023570D01*
X00004404Y00023547D01*
X00004415Y00023523D01*
X00004425Y00023499D01*
X00004433Y00023473D01*
X00004439Y00023448D01*
X00004444Y00023421D01*
X00004447Y00023395D01*
X00004448Y00023369D01*
X00004451Y00022694D01*
X00004450Y00022667D01*
X00004447Y00022640D01*
X00004443Y00022614D01*
X00004437Y00022588D01*
X00004429Y00022563D01*
X00004419Y00022538D01*
X00004408Y00022513D01*
X00004395Y00022490D01*
X00004381Y00022468D01*
X00004365Y00022446D01*
X00004347Y00022426D01*
X00004329Y00022407D01*
X00004309Y00022389D01*
X00004287Y00022373D01*
X00004265Y00022358D01*
X00004242Y00022344D01*
X00004218Y00022333D01*
X00004193Y00022322D01*
X00004168Y00022314D01*
X00004142Y00022307D01*
X00004086Y00022295D01*
X00003926Y00022254D01*
X00003767Y00022209D01*
X00003609Y00022158D01*
X00003454Y00022103D01*
X00003300Y00022042D01*
X00003148Y00021977D01*
X00002998Y00021907D01*
X00002850Y00021833D01*
X00002705Y00021754D01*
X00002562Y00021671D01*
X00002422Y00021583D01*
X00002285Y00021491D01*
X00002150Y00021395D01*
X00002019Y00021294D01*
X00001891Y00021190D01*
X00001766Y00021081D01*
X00001645Y00020969D01*
X00001527Y00020853D01*
X00001413Y00020733D01*
X00001303Y00020610D01*
X00001196Y00020484D01*
X00001094Y00020354D01*
X00000995Y00020221D01*
X00000901Y00020085D01*
X00000811Y00019947D01*
X00000725Y00019805D01*
X00000644Y00019661D01*
X00000568Y00019515D01*
X00000496Y00019366D01*
X00000428Y00019215D01*
X00000365Y00019062D01*
X00000308Y00018907D01*
X00000255Y00018751D01*
X00000206Y00018592D01*
X00000163Y00018433D01*
X00000125Y00018272D01*
X00000092Y00018110D01*
X00000064Y00017947D01*
X00000041Y00017783D01*
X00000023Y00017619D01*
X00000010Y00017454D01*
X00000002Y00017289D01*
X00000000Y00017124D01*
X00000002Y00016959D01*
X00000010Y00016793D01*
X00000023Y00016629D01*
X00000041Y00016464D01*
X00000064Y00016301D01*
X00000092Y00016138D01*
X00000125Y00015976D01*
X00000163Y00015815D01*
X00000206Y00015655D01*
X00000255Y00015497D01*
X00000308Y00015341D01*
X00000365Y00015186D01*
X00000428Y00015033D01*
X00000496Y00014882D01*
X00000568Y00014733D01*
X00000644Y00014587D01*
X00000725Y00014443D01*
X00000811Y00014301D01*
X00000901Y00014162D01*
X00000995Y00014027D01*
X00001094Y00013894D01*
X00001196Y00013764D01*
X00001303Y00013638D01*
X00001413Y00013515D01*
X00001527Y00013395D01*
X00001645Y00013279D01*
X00001766Y00013167D01*
X00001891Y00013058D01*
X00002019Y00012954D01*
X00002150Y00012853D01*
X00002285Y00012757D01*
X00002422Y00012665D01*
X00002562Y00012577D01*
X00002705Y00012494D01*
X00002850Y00012415D01*
X00002998Y00012340D01*
X00003148Y00012271D01*
X00003300Y00012206D01*
X00003454Y00012145D01*
X00003609Y00012090D01*
X00003767Y00012039D01*
X00003926Y00011994D01*
X00004086Y00011953D01*
X00004181Y00011932D01*
M02*