<?xml version="1.0" standalone="no"?>
 <!DOCTYPE svg PUBLIC "-//W3C//DTD SVG 1.1//EN" 
 "http://www.w3.org/Graphics/SVG/1.1/DTD/svg11.dtd"> 
<svg xmlns="http://www.w3.org/2000/svg" version="1.1" 
    width="27.94cm" height="21.59cm" viewBox="0 0 110000 85000 ">
<title>SVG Picture created as project-brd.svg date 2020/03/10 07:41:28 </title>
  <desc>Picture generated by PCBNEW </desc>
<g style="fill:#000000; fill-opacity:1;stroke:#000000; stroke-opacity:1;
stroke-linecap:round; stroke-linejoin:round; "
 transform="translate(0 0) scale(1 1)">
</g>
<g style="fill:#000000; fill-opacity:0.0; 
stroke:#000000; stroke-width:-0.000393701; stroke-opacity:1; 
stroke-linecap:round; stroke-linejoin:round;">
</g>
<g style="fill:#000000; fill-opacity:0.0; 
stroke:#000000; stroke-width:39.3701; stroke-opacity:1; 
stroke-linecap:round; stroke-linejoin:round;">
</g>
<g style="fill:#000000; fill-opacity:0.0; 
stroke:#000000; stroke-width:59.0551; stroke-opacity:1; 
stroke-linecap:round; stroke-linejoin:round;">
<rect x="62755.9" y="67677.2" width="42519.7" height="12598.4" rx="0" />
</g>
<g style="fill:#000000; fill-opacity:0.0; 
stroke:#000000; stroke-width:39.3701; stroke-opacity:1; 
stroke-linecap:round; stroke-linejoin:round;">
</g>
<g style="fill:#000000; fill-opacity:0.0; 
stroke:#000000; stroke-width:59.0551; stroke-opacity:1; 
stroke-linecap:round; stroke-linejoin:round;">
<rect x="3937.01" y="3937.01" width="102126" height="77126" rx="0" />
</g>
<g style="fill:#000000; fill-opacity:0.0; 
stroke:#000000; stroke-width:39.3701; stroke-opacity:1; 
stroke-linecap:round; stroke-linejoin:round;">
</g>
<g style="fill:#000000; fill-opacity:0.0; 
stroke:#000000; stroke-width:59.0551; stroke-opacity:1; 
stroke-linecap:round; stroke-linejoin:round;">
<rect x="4724.41" y="4724.41" width="100551" height="75551.2" rx="0" />
</g>
<g style="fill:#000000; fill-opacity:0.0; 
stroke:#000000; stroke-width:39.3701; stroke-opacity:1; 
stroke-linecap:round; stroke-linejoin:round;">
</g>
<g style="fill:#000000; fill-opacity:0.0; 
stroke:#000000; stroke-width:59.0551; stroke-opacity:1; 
stroke-linecap:round; stroke-linejoin:round;">
<path d="M23622 4724
L23622 3937
" />
</g>
<g style="fill:#000000; fill-opacity:0.0; 
stroke:#000000; stroke-width:39.3701; stroke-opacity:1; 
stroke-linecap:round; stroke-linejoin:round;">
</g>
<g style="fill:#000000; fill-opacity:0.0; 
stroke:#000000; stroke-width:59.0551; stroke-opacity:1; 
stroke-linecap:round; stroke-linejoin:round;">
<path d="M43307 4724
L43307 3937
" />
</g>
<g style="fill:#000000; fill-opacity:0.0; 
stroke:#000000; stroke-width:39.3701; stroke-opacity:1; 
stroke-linecap:round; stroke-linejoin:round;">
</g>
<g style="fill:#000000; fill-opacity:0.0; 
stroke:#000000; stroke-width:59.0551; stroke-opacity:1; 
stroke-linecap:round; stroke-linejoin:round;">
<path d="M62992 4724
L62992 3937
" />
</g>
<g style="fill:#000000; fill-opacity:0.0; 
stroke:#000000; stroke-width:39.3701; stroke-opacity:1; 
stroke-linecap:round; stroke-linejoin:round;">
</g>
<g style="fill:#000000; fill-opacity:0.0; 
stroke:#000000; stroke-width:59.0551; stroke-opacity:1; 
stroke-linecap:round; stroke-linejoin:round;">
<path d="M82677 4724
L82677 3937
" />
</g>
<g style="fill:#000000; fill-opacity:0.0; 
stroke:#000000; stroke-width:39.3701; stroke-opacity:1; 
stroke-linecap:round; stroke-linejoin:round;">
</g>
<g style="fill:#000000; fill-opacity:0.0; 
stroke:#000000; stroke-width:59.0551; stroke-opacity:1; 
stroke-linecap:round; stroke-linejoin:round;">
<path d="M102362 4724
L102362 3937
" />
</g>
<g style="fill:#000000; fill-opacity:0.0; 
stroke:#000000; stroke-width:39.3701; stroke-opacity:1; 
stroke-linecap:round; stroke-linejoin:round;">
</g>
<g style="fill:#000000; fill-opacity:0.0; 
stroke:#000000; stroke-width:59.0551; stroke-opacity:1; 
stroke-linecap:round; stroke-linejoin:round;">
<path d="M14169 4562
L13877 4562
" />
<path d="M14023 4562
L14023 4050
L13974 4123
L13925 4172
L13877 4196
" />
</g>
<g style="fill:#000000; fill-opacity:0.0; 
stroke:#000000; stroke-width:39.3701; stroke-opacity:1; 
stroke-linecap:round; stroke-linejoin:round;">
</g>
<g style="fill:#000000; fill-opacity:0.0; 
stroke:#000000; stroke-width:59.0551; stroke-opacity:1; 
stroke-linecap:round; stroke-linejoin:round;">
<path d="M33562 4099
L33586 4074
L33635 4050
L33757 4050
L33805 4074
L33830 4099
L33854 4147
L33854 4196
L33830 4269
L33537 4562
L33854 4562
" />
</g>
<g style="fill:#000000; fill-opacity:0.0; 
stroke:#000000; stroke-width:39.3701; stroke-opacity:1; 
stroke-linecap:round; stroke-linejoin:round;">
</g>
<g style="fill:#000000; fill-opacity:0.0; 
stroke:#000000; stroke-width:59.0551; stroke-opacity:1; 
stroke-linecap:round; stroke-linejoin:round;">
<path d="M53222 4050
L53539 4050
L53368 4245
L53442 4245
L53490 4269
L53515 4294
L53539 4342
L53539 4464
L53515 4513
L53490 4537
L53442 4562
L53295 4562
L53247 4537
L53222 4513
" />
</g>
<g style="fill:#000000; fill-opacity:0.0; 
stroke:#000000; stroke-width:39.3701; stroke-opacity:1; 
stroke-linecap:round; stroke-linejoin:round;">
</g>
<g style="fill:#000000; fill-opacity:0.0; 
stroke:#000000; stroke-width:59.0551; stroke-opacity:1; 
stroke-linecap:round; stroke-linejoin:round;">
<path d="M73175 4221
L73175 4562
" />
<path d="M73053 4026
L72932 4391
L73248 4391
" />
</g>
<g style="fill:#000000; fill-opacity:0.0; 
stroke:#000000; stroke-width:39.3701; stroke-opacity:1; 
stroke-linecap:round; stroke-linejoin:round;">
</g>
<g style="fill:#000000; fill-opacity:0.0; 
stroke:#000000; stroke-width:59.0551; stroke-opacity:1; 
stroke-linecap:round; stroke-linejoin:round;">
<path d="M92885 4050
L92641 4050
L92617 4294
L92641 4269
L92690 4245
L92812 4245
L92860 4269
L92885 4294
L92909 4342
L92909 4464
L92885 4513
L92860 4537
L92812 4562
L92690 4562
L92641 4537
L92617 4513
" />
</g>
<g style="fill:#000000; fill-opacity:0.0; 
stroke:#000000; stroke-width:39.3701; stroke-opacity:1; 
stroke-linecap:round; stroke-linejoin:round;">
</g>
<g style="fill:#000000; fill-opacity:0.0; 
stroke:#000000; stroke-width:59.0551; stroke-opacity:1; 
stroke-linecap:round; stroke-linejoin:round;">
<path d="M23622 80275
L23622 81062
" />
</g>
<g style="fill:#000000; fill-opacity:0.0; 
stroke:#000000; stroke-width:39.3701; stroke-opacity:1; 
stroke-linecap:round; stroke-linejoin:round;">
</g>
<g style="fill:#000000; fill-opacity:0.0; 
stroke:#000000; stroke-width:59.0551; stroke-opacity:1; 
stroke-linecap:round; stroke-linejoin:round;">
<path d="M43307 80275
L43307 81062
" />
</g>
<g style="fill:#000000; fill-opacity:0.0; 
stroke:#000000; stroke-width:39.3701; stroke-opacity:1; 
stroke-linecap:round; stroke-linejoin:round;">
</g>
<g style="fill:#000000; fill-opacity:0.0; 
stroke:#000000; stroke-width:59.0551; stroke-opacity:1; 
stroke-linecap:round; stroke-linejoin:round;">
<path d="M62992 80275
L62992 81062
" />
</g>
<g style="fill:#000000; fill-opacity:0.0; 
stroke:#000000; stroke-width:39.3701; stroke-opacity:1; 
stroke-linecap:round; stroke-linejoin:round;">
</g>
<g style="fill:#000000; fill-opacity:0.0; 
stroke:#000000; stroke-width:59.0551; stroke-opacity:1; 
stroke-linecap:round; stroke-linejoin:round;">
<path d="M82677 80275
L82677 81062
" />
</g>
<g style="fill:#000000; fill-opacity:0.0; 
stroke:#000000; stroke-width:39.3701; stroke-opacity:1; 
stroke-linecap:round; stroke-linejoin:round;">
</g>
<g style="fill:#000000; fill-opacity:0.0; 
stroke:#000000; stroke-width:59.0551; stroke-opacity:1; 
stroke-linecap:round; stroke-linejoin:round;">
<path d="M102362 80275
L102362 81062
" />
</g>
<g style="fill:#000000; fill-opacity:0.0; 
stroke:#000000; stroke-width:39.3701; stroke-opacity:1; 
stroke-linecap:round; stroke-linejoin:round;">
</g>
<g style="fill:#000000; fill-opacity:0.0; 
stroke:#000000; stroke-width:59.0551; stroke-opacity:1; 
stroke-linecap:round; stroke-linejoin:round;">
<path d="M14169 80900
L13877 80900
" />
<path d="M14023 80900
L14023 80389
L13974 80462
L13925 80510
L13877 80535
" />
</g>
<g style="fill:#000000; fill-opacity:0.0; 
stroke:#000000; stroke-width:39.3701; stroke-opacity:1; 
stroke-linecap:round; stroke-linejoin:round;">
</g>
<g style="fill:#000000; fill-opacity:0.0; 
stroke:#000000; stroke-width:59.0551; stroke-opacity:1; 
stroke-linecap:round; stroke-linejoin:round;">
<path d="M33562 80437
L33586 80413
L33635 80389
L33757 80389
L33805 80413
L33830 80437
L33854 80486
L33854 80535
L33830 80608
L33537 80900
L33854 80900
" />
</g>
<g style="fill:#000000; fill-opacity:0.0; 
stroke:#000000; stroke-width:39.3701; stroke-opacity:1; 
stroke-linecap:round; stroke-linejoin:round;">
</g>
<g style="fill:#000000; fill-opacity:0.0; 
stroke:#000000; stroke-width:59.0551; stroke-opacity:1; 
stroke-linecap:round; stroke-linejoin:round;">
<path d="M53222 80389
L53539 80389
L53368 80583
L53442 80583
L53490 80608
L53515 80632
L53539 80681
L53539 80803
L53515 80852
L53490 80876
L53442 80900
L53295 80900
L53247 80876
L53222 80852
" />
</g>
<g style="fill:#000000; fill-opacity:0.0; 
stroke:#000000; stroke-width:39.3701; stroke-opacity:1; 
stroke-linecap:round; stroke-linejoin:round;">
</g>
<g style="fill:#000000; fill-opacity:0.0; 
stroke:#000000; stroke-width:59.0551; stroke-opacity:1; 
stroke-linecap:round; stroke-linejoin:round;">
<path d="M73175 80559
L73175 80900
" />
<path d="M73053 80364
L72932 80730
L73248 80730
" />
</g>
<g style="fill:#000000; fill-opacity:0.0; 
stroke:#000000; stroke-width:39.3701; stroke-opacity:1; 
stroke-linecap:round; stroke-linejoin:round;">
</g>
<g style="fill:#000000; fill-opacity:0.0; 
stroke:#000000; stroke-width:59.0551; stroke-opacity:1; 
stroke-linecap:round; stroke-linejoin:round;">
<path d="M92885 80389
L92641 80389
L92617 80632
L92641 80608
L92690 80583
L92812 80583
L92860 80608
L92885 80632
L92909 80681
L92909 80803
L92885 80852
L92860 80876
L92812 80900
L92690 80900
L92641 80876
L92617 80852
" />
</g>
<g style="fill:#000000; fill-opacity:0.0; 
stroke:#000000; stroke-width:39.3701; stroke-opacity:1; 
stroke-linecap:round; stroke-linejoin:round;">
</g>
<g style="fill:#000000; fill-opacity:0.0; 
stroke:#000000; stroke-width:59.0551; stroke-opacity:1; 
stroke-linecap:round; stroke-linejoin:round;">
<path d="M3937 23622
L4724 23622
" />
</g>
<g style="fill:#000000; fill-opacity:0.0; 
stroke:#000000; stroke-width:39.3701; stroke-opacity:1; 
stroke-linecap:round; stroke-linejoin:round;">
</g>
<g style="fill:#000000; fill-opacity:0.0; 
stroke:#000000; stroke-width:59.0551; stroke-opacity:1; 
stroke-linecap:round; stroke-linejoin:round;">
<path d="M3937 43307
L4724 43307
" />
</g>
<g style="fill:#000000; fill-opacity:0.0; 
stroke:#000000; stroke-width:39.3701; stroke-opacity:1; 
stroke-linecap:round; stroke-linejoin:round;">
</g>
<g style="fill:#000000; fill-opacity:0.0; 
stroke:#000000; stroke-width:59.0551; stroke-opacity:1; 
stroke-linecap:round; stroke-linejoin:round;">
<path d="M3937 62992
L4724 62992
" />
</g>
<g style="fill:#000000; fill-opacity:0.0; 
stroke:#000000; stroke-width:39.3701; stroke-opacity:1; 
stroke-linecap:round; stroke-linejoin:round;">
</g>
<g style="fill:#000000; fill-opacity:0.0; 
stroke:#000000; stroke-width:59.0551; stroke-opacity:1; 
stroke-linecap:round; stroke-linejoin:round;">
<path d="M4208 13864
L4452 13864
" />
<path d="M4160 14011
L4330 13499
L4501 14011
" />
</g>
<g style="fill:#000000; fill-opacity:0.0; 
stroke:#000000; stroke-width:39.3701; stroke-opacity:1; 
stroke-linecap:round; stroke-linejoin:round;">
</g>
<g style="fill:#000000; fill-opacity:0.0; 
stroke:#000000; stroke-width:59.0551; stroke-opacity:1; 
stroke-linecap:round; stroke-linejoin:round;">
<path d="M4367 33428
L4440 33452
L4464 33476
L4489 33525
L4489 33598
L4464 33647
L4440 33671
L4391 33696
L4196 33696
L4196 33184
L4367 33184
L4416 33208
L4440 33233
L4464 33281
L4464 33330
L4440 33379
L4416 33403
L4367 33428
L4196 33428
" />
</g>
<g style="fill:#000000; fill-opacity:0.0; 
stroke:#000000; stroke-width:39.3701; stroke-opacity:1; 
stroke-linecap:round; stroke-linejoin:round;">
</g>
<g style="fill:#000000; fill-opacity:0.0; 
stroke:#000000; stroke-width:59.0551; stroke-opacity:1; 
stroke-linecap:round; stroke-linejoin:round;">
<path d="M4489 53332
L4464 53356
L4391 53381
L4342 53381
L4269 53356
L4221 53308
L4196 53259
L4172 53161
L4172 53088
L4196 52991
L4221 52942
L4269 52893
L4342 52869
L4391 52869
L4464 52893
L4489 52918
" />
</g>
<g style="fill:#000000; fill-opacity:0.0; 
stroke:#000000; stroke-width:39.3701; stroke-opacity:1; 
stroke-linecap:round; stroke-linejoin:round;">
</g>
<g style="fill:#000000; fill-opacity:0.0; 
stroke:#000000; stroke-width:59.0551; stroke-opacity:1; 
stroke-linecap:round; stroke-linejoin:round;">
<path d="M4196 73066
L4196 72554
L4318 72554
L4391 72578
L4440 72627
L4464 72676
L4489 72773
L4489 72846
L4464 72944
L4440 72993
L4391 73041
L4318 73066
L4196 73066
" />
</g>
<g style="fill:#000000; fill-opacity:0.0; 
stroke:#000000; stroke-width:39.3701; stroke-opacity:1; 
stroke-linecap:round; stroke-linejoin:round;">
</g>
<g style="fill:#000000; fill-opacity:0.0; 
stroke:#000000; stroke-width:59.0551; stroke-opacity:1; 
stroke-linecap:round; stroke-linejoin:round;">
<path d="M106062 23622
L105275 23622
" />
</g>
<g style="fill:#000000; fill-opacity:0.0; 
stroke:#000000; stroke-width:39.3701; stroke-opacity:1; 
stroke-linecap:round; stroke-linejoin:round;">
</g>
<g style="fill:#000000; fill-opacity:0.0; 
stroke:#000000; stroke-width:59.0551; stroke-opacity:1; 
stroke-linecap:round; stroke-linejoin:round;">
<path d="M106062 43307
L105275 43307
" />
</g>
<g style="fill:#000000; fill-opacity:0.0; 
stroke:#000000; stroke-width:39.3701; stroke-opacity:1; 
stroke-linecap:round; stroke-linejoin:round;">
</g>
<g style="fill:#000000; fill-opacity:0.0; 
stroke:#000000; stroke-width:59.0551; stroke-opacity:1; 
stroke-linecap:round; stroke-linejoin:round;">
<path d="M106062 62992
L105275 62992
" />
</g>
<g style="fill:#000000; fill-opacity:0.0; 
stroke:#000000; stroke-width:39.3701; stroke-opacity:1; 
stroke-linecap:round; stroke-linejoin:round;">
</g>
<g style="fill:#000000; fill-opacity:0.0; 
stroke:#000000; stroke-width:59.0551; stroke-opacity:1; 
stroke-linecap:round; stroke-linejoin:round;">
<path d="M105547 13864
L105791 13864
" />
<path d="M105498 14011
L105669 13499
L105839 14011
" />
</g>
<g style="fill:#000000; fill-opacity:0.0; 
stroke:#000000; stroke-width:39.3701; stroke-opacity:1; 
stroke-linecap:round; stroke-linejoin:round;">
</g>
<g style="fill:#000000; fill-opacity:0.0; 
stroke:#000000; stroke-width:59.0551; stroke-opacity:1; 
stroke-linecap:round; stroke-linejoin:round;">
<path d="M105705 33428
L105778 33452
L105803 33476
L105827 33525
L105827 33598
L105803 33647
L105778 33671
L105730 33696
L105535 33696
L105535 33184
L105705 33184
L105754 33208
L105778 33233
L105803 33281
L105803 33330
L105778 33379
L105754 33403
L105705 33428
L105535 33428
" />
</g>
<g style="fill:#000000; fill-opacity:0.0; 
stroke:#000000; stroke-width:39.3701; stroke-opacity:1; 
stroke-linecap:round; stroke-linejoin:round;">
</g>
<g style="fill:#000000; fill-opacity:0.0; 
stroke:#000000; stroke-width:59.0551; stroke-opacity:1; 
stroke-linecap:round; stroke-linejoin:round;">
<path d="M105827 53332
L105803 53356
L105730 53381
L105681 53381
L105608 53356
L105559 53308
L105535 53259
L105510 53161
L105510 53088
L105535 52991
L105559 52942
L105608 52893
L105681 52869
L105730 52869
L105803 52893
L105827 52918
" />
</g>
<g style="fill:#000000; fill-opacity:0.0; 
stroke:#000000; stroke-width:39.3701; stroke-opacity:1; 
stroke-linecap:round; stroke-linejoin:round;">
</g>
<g style="fill:#000000; fill-opacity:0.0; 
stroke:#000000; stroke-width:59.0551; stroke-opacity:1; 
stroke-linecap:round; stroke-linejoin:round;">
<path d="M105535 73066
L105535 72554
L105657 72554
L105730 72578
L105778 72627
L105803 72676
L105827 72773
L105827 72846
L105803 72944
L105778 72993
L105730 73041
L105657 73066
L105535 73066
" />
</g>
<g style="fill:#000000; fill-opacity:0.0; 
stroke:#000000; stroke-width:39.3701; stroke-opacity:1; 
stroke-linecap:round; stroke-linejoin:round;">
</g>
<g style="fill:#000000; fill-opacity:0.0; 
stroke:#000000; stroke-width:59.0551; stroke-opacity:1; 
stroke-linecap:round; stroke-linejoin:round;">
<path d="M71951 78613
L71951 78023
L72092 78023
L72176 78051
L72232 78107
L72260 78163
L72289 78276
L72289 78360
L72260 78473
L72232 78529
L72176 78585
L72092 78613
L71951 78613
" />
<path d="M72795 78613
L72795 78304
L72767 78248
L72710 78219
L72598 78219
L72542 78248
" />
<path d="M72795 78585
L72739 78613
L72598 78613
L72542 78585
L72514 78529
L72514 78473
L72542 78416
L72598 78388
L72739 78388
L72795 78360
" />
<path d="M72992 78219
L73217 78219
" />
<path d="M73076 78023
L73076 78529
L73104 78585
L73160 78613
L73217 78613
" />
<path d="M73638 78585
L73582 78613
L73470 78613
L73413 78585
L73385 78529
L73385 78304
L73413 78248
L73470 78219
L73582 78219
L73638 78248
L73667 78304
L73667 78360
L73385 78416
" />
<path d="M73920 78557
L73948 78585
L73920 78613
L73892 78585
L73920 78557
L73920 78613
" />
<path d="M73920 78248
L73948 78276
L73920 78304
L73892 78276
L73920 78248
L73920 78304
" />
<path d="M74623 78079
L74651 78051
L74707 78023
L74848 78023
L74904 78051
L74932 78079
L74960 78135
L74960 78191
L74932 78276
L74595 78613
L74960 78613
" />
<path d="M75326 78023
L75382 78023
L75438 78051
L75466 78079
L75494 78135
L75523 78248
L75523 78388
L75494 78501
L75466 78557
L75438 78585
L75382 78613
L75326 78613
L75269 78585
L75241 78557
L75213 78501
L75185 78388
L75185 78248
L75213 78135
L75241 78079
L75269 78051
L75326 78023
" />
<path d="M75748 78079
L75776 78051
L75832 78023
L75973 78023
L76029 78051
L76057 78079
L76085 78135
L76085 78191
L76057 78276
L75719 78613
L76085 78613
" />
<path d="M76451 78023
L76507 78023
L76563 78051
L76591 78079
L76619 78135
L76647 78248
L76647 78388
L76619 78501
L76591 78557
L76563 78585
L76507 78613
L76451 78613
L76394 78585
L76366 78557
L76338 78501
L76310 78388
L76310 78248
L76338 78135
L76366 78079
L76394 78051
L76451 78023
" />
<path d="M76901 78388
L77350 78388
" />
<path d="M77744 78023
L77800 78023
L77857 78051
L77885 78079
L77913 78135
L77941 78248
L77941 78388
L77913 78501
L77885 78557
L77857 78585
L77800 78613
L77744 78613
L77688 78585
L77660 78557
L77632 78501
L77604 78388
L77604 78248
L77632 78135
L77660 78079
L77688 78051
L77744 78023
" />
<path d="M78166 78079
L78194 78051
L78250 78023
L78391 78023
L78447 78051
L78475 78079
L78503 78135
L78503 78191
L78475 78276
L78138 78613
L78503 78613
" />
<path d="M78757 78388
L79206 78388
" />
<path d="M79460 78079
L79488 78051
L79544 78023
L79685 78023
L79741 78051
L79769 78079
L79797 78135
L79797 78191
L79769 78276
L79431 78613
L79797 78613
" />
<path d="M80331 78023
L80050 78023
L80022 78304
L80050 78276
L80106 78248
L80247 78248
L80303 78276
L80331 78304
L80359 78360
L80359 78501
L80331 78557
L80303 78585
L80247 78613
L80106 78613
L80050 78585
L80022 78557
" />
</g>
<g style="fill:#000000; fill-opacity:0.0; 
stroke:#000000; stroke-width:39.3701; stroke-opacity:1; 
stroke-linecap:round; stroke-linejoin:round;">
</g>
<g style="fill:#000000; fill-opacity:0.0; 
stroke:#000000; stroke-width:59.0551; stroke-opacity:1; 
stroke-linecap:round; stroke-linejoin:round;">
<path d="M62755 78897
L105275 78897
" />
</g>
<g style="fill:#000000; fill-opacity:0.0; 
stroke:#000000; stroke-width:39.3701; stroke-opacity:1; 
stroke-linecap:round; stroke-linejoin:round;">
</g>
<g style="fill:#000000; fill-opacity:0.0; 
stroke:#000000; stroke-width:59.0551; stroke-opacity:1; 
stroke-linecap:round; stroke-linejoin:round;">
<path d="M63290 79715
L63290 79125
" />
<path d="M63627 79715
L63374 79378
" />
<path d="M63627 79125
L63290 79462
" />
<path d="M63880 79715
L63880 79322
" />
<path d="M63880 79125
L63852 79153
L63880 79181
L63908 79153
L63880 79125
L63880 79181
" />
<path d="M64499 79659
L64471 79687
L64386 79715
L64330 79715
L64246 79687
L64190 79631
L64161 79575
L64133 79462
L64133 79378
L64161 79266
L64190 79209
L64246 79153
L64330 79125
L64386 79125
L64471 79153
L64499 79181
" />
<path d="M65005 79715
L65005 79406
L64977 79350
L64921 79322
L64808 79322
L64752 79350
" />
<path d="M65005 79687
L64949 79715
L64808 79715
L64752 79687
L64724 79631
L64724 79575
L64752 79519
L64808 79491
L64949 79491
L65005 79462
" />
<path d="M65539 79715
L65539 79125
" />
<path d="M65539 79687
L65483 79715
L65371 79715
L65314 79687
L65286 79659
L65258 79603
L65258 79434
L65286 79378
L65314 79350
L65371 79322
L65483 79322
L65539 79350
" />
<path d="M66271 79406
L66467 79406
" />
<path d="M66552 79715
L66271 79715
L66271 79125
L66552 79125
" />
<path d="M66805 79659
L66833 79687
L66805 79715
L66777 79687
L66805 79659
L66805 79715
" />
<path d="M67086 79715
L67086 79125
L67227 79125
L67311 79153
L67367 79209
L67395 79266
L67424 79378
L67424 79462
L67395 79575
L67367 79631
L67311 79687
L67227 79715
L67086 79715
" />
<path d="M67677 79659
L67705 79687
L67677 79715
L67649 79687
L67677 79659
L67677 79715
" />
<path d="M67930 79547
L68211 79547
" />
<path d="M67874 79715
L68070 79125
L68267 79715
" />
<path d="M68464 79659
L68492 79687
L68464 79715
L68436 79687
L68464 79659
L68464 79715
" />
<path d="M69645 79715
L69645 79125
" />
<path d="M69701 79491
L69870 79715
" />
<path d="M69870 79322
L69645 79547
" />
<path d="M70123 79715
L70123 79322
" />
<path d="M70123 79125
L70095 79153
L70123 79181
L70151 79153
L70123 79125
L70123 79181
" />
<path d="M70658 79687
L70601 79715
L70489 79715
L70433 79687
L70404 79659
L70376 79603
L70376 79434
L70404 79378
L70433 79350
L70489 79322
L70601 79322
L70658 79350
" />
<path d="M71164 79715
L71164 79406
L71136 79350
L71079 79322
L70967 79322
L70911 79350
" />
<path d="M71164 79687
L71107 79715
L70967 79715
L70911 79687
L70883 79631
L70883 79575
L70911 79519
L70967 79491
L71107 79491
L71164 79462
" />
<path d="M71698 79715
L71698 79125
" />
<path d="M71698 79687
L71642 79715
L71529 79715
L71473 79687
L71445 79659
L71417 79603
L71417 79434
L71445 79378
L71473 79350
L71529 79322
L71642 79322
L71698 79350
" />
<path d="M72682 79322
L72682 79715
" />
<path d="M72542 79097
L72401 79519
L72767 79519
" />
<path d="M72992 79659
L73020 79687
L72992 79715
L72964 79687
L72992 79659
L72992 79715
" />
<path d="M73385 79125
L73442 79125
L73498 79153
L73526 79181
L73554 79237
L73582 79350
L73582 79491
L73554 79603
L73526 79659
L73498 79687
L73442 79715
L73385 79715
L73329 79687
L73301 79659
L73273 79603
L73245 79491
L73245 79350
L73273 79237
L73301 79181
L73329 79153
L73385 79125
" />
<path d="M73835 79659
L73863 79687
L73835 79715
L73807 79687
L73835 79659
L73835 79715
" />
<path d="M74370 79125
L74257 79125
L74201 79153
L74173 79181
L74116 79266
L74088 79378
L74088 79603
L74116 79659
L74145 79687
L74201 79715
L74313 79715
L74370 79687
L74398 79659
L74426 79603
L74426 79462
L74398 79406
L74370 79378
L74313 79350
L74201 79350
L74145 79378
L74116 79406
L74088 79462
" />
</g>
<g style="fill:#000000; fill-opacity:0.0; 
stroke:#000000; stroke-width:39.3701; stroke-opacity:1; 
stroke-linecap:round; stroke-linejoin:round;">
</g>
<g style="fill:#000000; fill-opacity:0.0; 
stroke:#000000; stroke-width:59.0551; stroke-opacity:1; 
stroke-linecap:round; stroke-linejoin:round;">
<path d="M62755 77716
L105275 77716
" />
</g>
<g style="fill:#000000; fill-opacity:0.0; 
stroke:#000000; stroke-width:39.3701; stroke-opacity:1; 
stroke-linecap:round; stroke-linejoin:round;">
</g>
<g style="fill:#000000; fill-opacity:0.0; 
stroke:#000000; stroke-width:118.11; stroke-opacity:1; 
stroke-linecap:round; stroke-linejoin:round;">
<path d="M97092 78613
L96895 78332
" />
<path d="M96754 78613
L96754 78023
L96979 78023
L97035 78051
L97064 78079
L97092 78135
L97092 78219
L97064 78276
L97035 78304
L96979 78332
L96754 78332
" />
<path d="M97570 78585
L97514 78613
L97401 78613
L97345 78585
L97317 78529
L97317 78304
L97345 78248
L97401 78219
L97514 78219
L97570 78248
L97598 78304
L97598 78360
L97317 78416
" />
<path d="M97795 78219
L97935 78613
L98076 78219
" />
<path d="M98301 78557
L98329 78585
L98301 78613
L98273 78585
L98301 78557
L98301 78613
" />
<path d="M98301 78248
L98329 78276
L98301 78304
L98273 78276
L98301 78248
L98301 78304
" />
<path d="M99145 78023
L99201 78023
L99257 78051
L99285 78079
L99313 78135
L99341 78248
L99341 78388
L99313 78501
L99285 78557
L99257 78585
L99201 78613
L99145 78613
L99088 78585
L99060 78557
L99032 78501
L99004 78388
L99004 78248
L99032 78135
L99060 78079
L99088 78051
L99145 78023
" />
<path d="M99595 78557
L99623 78585
L99595 78613
L99566 78585
L99595 78557
L99595 78613
" />
<path d="M99988 78023
L100044 78023
L100101 78051
L100129 78079
L100157 78135
L100185 78248
L100185 78388
L100157 78501
L100129 78557
L100101 78585
L100044 78613
L99988 78613
L99932 78585
L99904 78557
L99876 78501
L99848 78388
L99848 78248
L99876 78135
L99904 78079
L99932 78051
L99988 78023
" />
</g>
<g style="fill:#000000; fill-opacity:0.0; 
stroke:#000000; stroke-width:39.3701; stroke-opacity:1; 
stroke-linecap:round; stroke-linejoin:round;">
</g>
<g style="fill:#000000; fill-opacity:0.0; 
stroke:#000000; stroke-width:59.0551; stroke-opacity:1; 
stroke-linecap:round; stroke-linejoin:round;">
<path d="M63262 78585
L63346 78613
L63487 78613
L63543 78585
L63571 78557
L63599 78501
L63599 78444
L63571 78388
L63543 78360
L63487 78332
L63374 78304
L63318 78276
L63290 78248
L63262 78191
L63262 78135
L63290 78079
L63318 78051
L63374 78023
L63515 78023
L63599 78051
" />
<path d="M63852 78613
L63852 78219
" />
<path d="M63852 78023
L63824 78051
L63852 78079
L63880 78051
L63852 78023
L63852 78079
" />
<path d="M64077 78219
L64386 78219
L64077 78613
L64386 78613
" />
<path d="M64836 78585
L64780 78613
L64668 78613
L64611 78585
L64583 78529
L64583 78304
L64611 78248
L64668 78219
L64780 78219
L64836 78248
L64865 78304
L64865 78360
L64583 78416
" />
<path d="M65118 78557
L65146 78585
L65118 78613
L65089 78585
L65118 78557
L65118 78613
" />
<path d="M65118 78248
L65146 78276
L65118 78304
L65089 78276
L65118 78248
L65118 78304
" />
<path d="M65821 78444
L66102 78444
" />
<path d="M65764 78613
L65961 78023
L66158 78613
" />
</g>
<g style="fill:#000000; fill-opacity:0.0; 
stroke:#000000; stroke-width:39.3701; stroke-opacity:1; 
stroke-linecap:round; stroke-linejoin:round;">
</g>
<g style="fill:#000000; fill-opacity:0.0; 
stroke:#000000; stroke-width:59.0551; stroke-opacity:1; 
stroke-linecap:round; stroke-linejoin:round;">
<path d="M96754 79715
L96754 79125
" />
<path d="M97289 79715
L97289 79125
" />
<path d="M97289 79687
L97232 79715
L97120 79715
L97064 79687
L97035 79659
L97007 79603
L97007 79434
L97035 79378
L97064 79350
L97120 79322
L97232 79322
L97289 79350
" />
<path d="M97570 79659
L97598 79687
L97570 79715
L97542 79687
L97570 79659
L97570 79715
" />
<path d="M97570 79350
L97598 79378
L97570 79406
L97542 79378
L97570 79350
L97570 79406
" />
<path d="M98610 79715
L98273 79715
" />
<path d="M98442 79715
L98442 79125
L98385 79209
L98329 79266
L98273 79294
" />
<path d="M99285 79097
L98779 79856
" />
<path d="M99791 79715
L99454 79715
" />
<path d="M99623 79715
L99623 79125
L99566 79209
L99510 79266
L99454 79294
" />
</g>
<g style="fill:#000000; fill-opacity:0.0; 
stroke:#000000; stroke-width:39.3701; stroke-opacity:1; 
stroke-linecap:round; stroke-linejoin:round;">
</g>
<g style="fill:#000000; fill-opacity:0.0; 
stroke:#000000; stroke-width:59.0551; stroke-opacity:1; 
stroke-linecap:round; stroke-linejoin:round;">
<path d="M62755 76141
L105275 76141
" />
</g>
<g style="fill:#000000; fill-opacity:0.0; 
stroke:#000000; stroke-width:39.3701; stroke-opacity:1; 
stroke-linecap:round; stroke-linejoin:round;">
</g>
<g style="fill:#000000; fill-opacity:0.0; 
stroke:#000000; stroke-width:157.48; stroke-opacity:1; 
stroke-linecap:round; stroke-linejoin:round;">
<path d="M63327 76419
L63777 76419
" />
<path d="M63454 77206
L63552 76419
" />
<path d="M63941 77206
L64007 76681
" />
<path d="M64040 76419
L63997 76456
L64030 76494
L64072 76456
L64040 76419
L64030 76494
" />
<path d="M64269 76681
L64569 76681
" />
<path d="M64415 76419
L64330 77094
L64358 77169
L64429 77206
L64504 77206
" />
<path d="M64879 77206
L64808 77169
L64780 77094
L64865 76419
" />
<path d="M65483 77169
L65404 77206
L65254 77206
L65183 77169
L65155 77094
L65193 76794
L65239 76719
L65319 76681
L65469 76681
L65539 76719
L65568 76794
L65558 76869
L65174 76944
" />
<path d="M65863 77131
L65896 77169
L65853 77206
L65821 77169
L65863 77131
L65853 77206
" />
<path d="M65914 76719
L65947 76756
L65905 76794
L65872 76756
L65914 76719
L65905 76794
" />
<path d="M66819 76981
L67194 76981
" />
<path d="M66716 77206
L67077 76419
L67241 77206
" />
<path d="M67456 76681
L67756 76681
" />
<path d="M67602 76419
L67517 77094
L67545 77169
L67616 77206
L67691 77206
" />
<path d="M67906 76681
L68206 76681
" />
<path d="M68052 76419
L67967 77094
L67995 77169
L68066 77206
L68141 77206
" />
<path d="M68403 77206
L68469 76681
" />
<path d="M68502 76419
L68459 76456
L68492 76494
L68534 76456
L68502 76419
L68492 76494
" />
<path d="M68844 76681
L68778 77206
" />
<path d="M68834 76756
L68877 76719
L68956 76681
L69069 76681
L69139 76719
L69167 76794
L69116 77206
" />
<path d="M69481 76681
L69603 77206
" />
<path d="M69856 76681
L69603 77206
L69505 77394
L69462 77431
L69383 77469
" />
<path d="M70690 77206
L70789 76419
" />
<path d="M70742 76794
L71192 76794
" />
<path d="M71140 77206
L71239 76419
" />
<path d="M71553 76906
L72153 76906
" />
<path d="M72804 76794
L72912 76831
L72945 76869
L72973 76944
L72959 77056
L72912 77131
L72870 77169
L72790 77206
L72490 77206
L72589 76419
L72851 76419
L72921 76456
L72954 76494
L72982 76569
L72973 76644
L72926 76719
L72884 76756
L72804 76794
L72542 76794
" />
<path d="M73278 77206
L73343 76681
" />
<path d="M73324 76831
L73371 76756
L73413 76719
L73493 76681
L73568 76681
" />
<path d="M73765 77206
L73831 76681
" />
<path d="M73863 76419
L73821 76456
L73854 76494
L73896 76456
L73863 76419
L73854 76494
" />
<path d="M74477 77206
L74576 76419
" />
<path d="M74482 77169
L74402 77206
L74252 77206
L74182 77169
L74149 77131
L74121 77056
L74149 76831
L74196 76756
L74238 76719
L74318 76681
L74468 76681
L74538 76719
" />
<path d="M75255 76681
L75176 77319
L75129 77394
L75087 77431
L75007 77469
L74895 77469
L74824 77431
" />
<path d="M75194 77169
L75115 77206
L74965 77206
L74895 77169
L74862 77131
L74834 77056
L74862 76831
L74909 76756
L74951 76719
L75030 76681
L75180 76681
L75251 76719
" />
<path d="M75869 77169
L75790 77206
L75640 77206
L75569 77169
L75541 77094
L75579 76794
L75626 76719
L75705 76681
L75855 76681
L75926 76719
L75954 76794
L75944 76869
L75560 76944
" />
</g>
<g style="fill:#000000; fill-opacity:0.0; 
stroke:#000000; stroke-width:39.3701; stroke-opacity:1; 
stroke-linecap:round; stroke-linejoin:round;">
</g>
<g style="fill:#000000; fill-opacity:0.0; 
stroke:#000000; stroke-width:59.0551; stroke-opacity:1; 
stroke-linecap:round; stroke-linejoin:round;">
<path d="M63487 75390
L63290 75390
" />
<path d="M63290 75700
L63290 75109
L63571 75109
" />
<path d="M63796 75700
L63796 75306
" />
<path d="M63796 75109
L63768 75137
L63796 75165
L63824 75137
L63796 75109
L63796 75165
" />
<path d="M64161 75700
L64105 75672
L64077 75615
L64077 75109
" />
<path d="M64611 75672
L64555 75700
L64443 75700
L64386 75672
L64358 75615
L64358 75390
L64386 75334
L64443 75306
L64555 75306
L64611 75334
L64640 75390
L64640 75447
L64358 75503
" />
<path d="M64893 75643
L64921 75672
L64893 75700
L64865 75672
L64893 75643
L64893 75700
" />
<path d="M64893 75334
L64921 75362
L64893 75390
L64865 75362
L64893 75334
L64893 75390
" />
<path d="M65624 75306
L65624 75897
" />
<path d="M65624 75334
L65680 75306
L65793 75306
L65849 75334
L65877 75362
L65905 75419
L65905 75587
L65877 75643
L65849 75672
L65793 75700
L65680 75700
L65624 75672
" />
<path d="M66158 75700
L66158 75306
" />
<path d="M66158 75419
L66186 75362
L66214 75334
L66271 75306
L66327 75306
" />
<path d="M66608 75700
L66552 75672
L66524 75643
L66496 75587
L66496 75419
L66524 75362
L66552 75334
L66608 75306
L66692 75306
L66749 75334
L66777 75362
L66805 75419
L66805 75587
L66777 75643
L66749 75672
L66692 75700
L66608 75700
" />
<path d="M67058 75306
L67058 75812
L67030 75868
L66974 75897
L66946 75897
" />
<path d="M67058 75109
L67030 75137
L67058 75165
L67086 75137
L67058 75109
L67058 75165
" />
<path d="M67564 75672
L67508 75700
L67395 75700
L67339 75672
L67311 75615
L67311 75390
L67339 75334
L67395 75306
L67508 75306
L67564 75334
L67592 75390
L67592 75447
L67311 75503
" />
<path d="M68098 75672
L68042 75700
L67930 75700
L67874 75672
L67845 75643
L67817 75587
L67817 75419
L67845 75362
L67874 75334
L67930 75306
L68042 75306
L68098 75334
" />
<path d="M68267 75306
L68492 75306
" />
<path d="M68352 75109
L68352 75615
L68380 75672
L68436 75700
L68492 75700
" />
<path d="M68689 75643
L68717 75672
L68689 75700
L68661 75672
L68689 75643
L68689 75700
" />
<path d="M68970 75700
L68970 75109
" />
<path d="M69026 75475
L69195 75700
" />
<path d="M69195 75306
L68970 75531
" />
<path d="M69448 75700
L69448 75306
" />
<path d="M69448 75109
L69420 75137
L69448 75165
L69476 75137
L69448 75109
L69448 75165
" />
<path d="M69983 75672
L69926 75700
L69814 75700
L69758 75672
L69730 75643
L69701 75587
L69701 75419
L69730 75362
L69758 75334
L69814 75306
L69926 75306
L69983 75334
" />
<path d="M70489 75700
L70489 75390
L70461 75334
L70404 75306
L70292 75306
L70236 75334
" />
<path d="M70489 75672
L70433 75700
L70292 75700
L70236 75672
L70208 75615
L70208 75559
L70236 75503
L70292 75475
L70433 75475
L70489 75447
" />
<path d="M71023 75700
L71023 75109
" />
<path d="M71023 75672
L70967 75700
L70854 75700
L70798 75672
L70770 75643
L70742 75587
L70742 75419
L70770 75362
L70798 75334
L70854 75306
L70967 75306
L71023 75334
" />
<path d="M71164 75756
L71614 75756
" />
<path d="M71754 75306
L71754 75897
" />
<path d="M71754 75334
L71811 75306
L71923 75306
L71979 75334
L72007 75362
L72035 75419
L72035 75587
L72007 75643
L71979 75672
L71923 75700
L71811 75700
L71754 75672
" />
<path d="M72542 75672
L72485 75700
L72373 75700
L72317 75672
L72289 75643
L72260 75587
L72260 75419
L72289 75362
L72317 75334
L72373 75306
L72485 75306
L72542 75334
" />
<path d="M72795 75700
L72795 75109
" />
<path d="M72795 75334
L72851 75306
L72964 75306
L73020 75334
L73048 75362
L73076 75419
L73076 75587
L73048 75643
L73020 75672
L72964 75700
L72851 75700
L72795 75672
" />
</g>
<g style="fill:#000000; fill-opacity:0.0; 
stroke:#000000; stroke-width:39.3701; stroke-opacity:1; 
stroke-linecap:round; stroke-linejoin:round;">
</g>
<g style="fill:#000000; fill-opacity:0.0; 
stroke:#000000; stroke-width:59.0551; stroke-opacity:1; 
stroke-linecap:round; stroke-linejoin:round;">
<path d="M62755 73779
L105275 73779
" />
</g>
<g style="fill:#000000; fill-opacity:0.0; 
stroke:#000000; stroke-width:39.3701; stroke-opacity:1; 
stroke-linecap:round; stroke-linejoin:round;">
</g>
<g style="fill:#000000; fill-opacity:0.0; 
stroke:#000000; stroke-width:59.0551; stroke-opacity:1; 
stroke-linecap:round; stroke-linejoin:round;">
<path d="M63262 74609
L63346 74637
L63487 74637
L63543 74609
L63571 74580
L63599 74524
L63599 74468
L63571 74412
L63543 74384
L63487 74356
L63374 74327
L63318 74299
L63290 74271
L63262 74215
L63262 74159
L63290 74102
L63318 74074
L63374 74046
L63515 74046
L63599 74074
" />
<path d="M63852 74637
L63852 74046
" />
<path d="M64105 74637
L64105 74327
L64077 74271
L64021 74243
L63937 74243
L63880 74271
L63852 74299
" />
<path d="M64611 74609
L64555 74637
L64443 74637
L64386 74609
L64358 74552
L64358 74327
L64386 74271
L64443 74243
L64555 74243
L64611 74271
L64640 74327
L64640 74384
L64358 74440
" />
<path d="M65118 74609
L65061 74637
L64949 74637
L64893 74609
L64865 74552
L64865 74327
L64893 74271
L64949 74243
L65061 74243
L65118 74271
L65146 74327
L65146 74384
L64865 74440
" />
<path d="M65314 74243
L65539 74243
" />
<path d="M65399 74046
L65399 74552
L65427 74609
L65483 74637
L65539 74637
" />
<path d="M65736 74580
L65764 74609
L65736 74637
L65708 74609
L65736 74580
L65736 74637
" />
<path d="M65736 74271
L65764 74299
L65736 74327
L65708 74299
L65736 74271
L65736 74327
" />
</g>
<g style="fill:#000000; fill-opacity:0.0; 
stroke:#000000; stroke-width:39.3701; stroke-opacity:1; 
stroke-linecap:round; stroke-linejoin:round;">
</g>
<g style="fill:#000000; fill-opacity:0.0; 
stroke:#000000; stroke-width:118.11; stroke-opacity:1; 
stroke-linecap:round; stroke-linejoin:round;">
<path d="M63233 73062
L63346 73456
L63458 73174
L63571 73456
L63683 73062
" />
<path d="M63852 73062
L63965 73456
L64077 73174
L64190 73456
L64302 73062
" />
<path d="M64471 73062
L64583 73456
L64696 73174
L64808 73456
L64921 73062
" />
<path d="M65146 73399
L65174 73428
L65146 73456
L65118 73428
L65146 73399
L65146 73456
" />
<path d="M65427 73456
L65427 72865
L65624 73287
L65821 72865
L65821 73456
" />
<path d="M66355 73456
L66355 73146
L66327 73090
L66271 73062
L66158 73062
L66102 73090
" />
<path d="M66355 73428
L66299 73456
L66158 73456
L66102 73428
L66074 73371
L66074 73315
L66102 73259
L66158 73231
L66299 73231
L66355 73203
" />
<path d="M66636 73456
L66636 72865
" />
<path d="M66692 73231
L66861 73456
" />
<path d="M66861 73062
L66636 73287
" />
<path d="M67339 73428
L67283 73456
L67170 73456
L67114 73428
L67086 73371
L67086 73146
L67114 73090
L67170 73062
L67283 73062
L67339 73090
L67367 73146
L67367 73203
L67086 73259
" />
<path d="M67620 73456
L67620 73062
" />
<path d="M67620 73174
L67649 73118
L67677 73090
L67733 73062
L67789 73062
" />
<path d="M67958 73428
L68014 73456
L68127 73456
L68183 73428
L68211 73371
L68211 73343
L68183 73287
L68127 73259
L68042 73259
L67986 73231
L67958 73174
L67958 73146
L67986 73090
L68042 73062
L68127 73062
L68183 73090
" />
<path d="M68661 73146
L68745 73174
L68773 73203
L68802 73259
L68802 73343
L68773 73399
L68745 73428
L68689 73456
L68464 73456
L68464 72865
L68661 72865
L68717 72893
L68745 72921
L68773 72978
L68773 73034
L68745 73090
L68717 73118
L68661 73146
L68464 73146
" />
<path d="M69139 73456
L69083 73428
L69055 73399
L69026 73343
L69026 73174
L69055 73118
L69083 73090
L69139 73062
L69223 73062
L69280 73090
L69308 73118
L69336 73174
L69336 73343
L69308 73399
L69280 73428
L69223 73456
L69139 73456
" />
<path d="M69533 73456
L69842 73062
" />
<path d="M69533 73062
L69842 73456
" />
<path d="M70067 73399
L70095 73428
L70067 73456
L70039 73428
L70067 73399
L70067 73456
" />
<path d="M70601 73062
L70601 73456
" />
<path d="M70348 73062
L70348 73371
L70376 73428
L70433 73456
L70517 73456
L70573 73428
L70601 73399
" />
<path d="M70854 73428
L70911 73456
L71023 73456
L71079 73428
L71107 73371
L71107 73343
L71079 73287
L71023 73259
L70939 73259
L70883 73231
L70854 73174
L70854 73146
L70883 73090
L70939 73062
L71023 73062
L71079 73090
" />
</g>
<g style="fill:#000000; fill-opacity:0.0; 
stroke:#000000; stroke-width:39.3701; stroke-opacity:1; 
stroke-linecap:round; stroke-linejoin:round;">
</g>
<g style="fill:#000000; fill-opacity:0.0; 
stroke:#000000; stroke-width:59.0551; stroke-opacity:1; 
stroke-linecap:round; stroke-linejoin:round;">
<path d="M63543 71684
L63430 71684
L63374 71712
L63346 71740
L63290 71825
L63262 71937
L63262 72162
L63290 72218
L63318 72246
L63374 72275
L63487 72275
L63543 72246
L63571 72218
L63599 72162
L63599 72021
L63571 71965
L63543 71937
L63487 71909
L63374 71909
L63318 71937
L63290 71965
L63262 72021
" />
<path d="M64105 71881
L64105 72275
" />
<path d="M63965 71656
L63824 72078
L64190 72078
" />
<path d="M64499 71937
L64443 71909
L64415 71881
L64386 71825
L64386 71796
L64415 71740
L64443 71712
L64499 71684
L64611 71684
L64668 71712
L64696 71740
L64724 71796
L64724 71825
L64696 71881
L64668 71909
L64611 71937
L64499 71937
L64443 71965
L64415 71993
L64386 72050
L64386 72162
L64415 72218
L64443 72246
L64499 72275
L64611 72275
L64668 72246
L64696 72218
L64724 72162
L64724 72050
L64696 71993
L64668 71965
L64611 71937
" />
<path d="M64977 72218
L65005 72246
L64977 72275
L64949 72246
L64977 72218
L64977 72275
" />
<path d="M65258 72275
L65258 71684
" />
<path d="M65314 72050
L65483 72275
" />
<path d="M65483 71881
L65258 72106
" />
<path d="M65961 72246
L65905 72275
L65793 72275
L65736 72246
L65708 72190
L65708 71965
L65736 71909
L65793 71881
L65905 71881
L65961 71909
L65989 71965
L65989 72021
L65708 72078
" />
<path d="M66242 71881
L66242 72275
" />
<path d="M66242 71937
L66271 71909
L66327 71881
L66411 71881
L66467 71909
L66496 71965
L66496 72275
" />
<path d="M67142 71993
L67114 71965
L67058 71937
L67002 71937
L66946 71965
L66917 71993
L66889 72050
L66889 72106
L66917 72162
L66946 72190
L67002 72218
L67058 72218
L67114 72190
L67142 72162
" />
<path d="M67142 71937
L67142 72162
L67170 72190
L67199 72190
L67255 72162
L67283 72106
L67283 71965
L67227 71881
L67142 71825
L67030 71796
L66917 71825
L66833 71881
L66777 71965
L66749 72078
L66777 72190
L66833 72275
L66917 72331
L67030 72359
L67142 72331
L67227 72275
" />
<path d="M67789 71881
L67789 72359
L67761 72415
L67733 72443
L67677 72471
L67592 72471
L67536 72443
" />
<path d="M67789 72246
L67733 72275
L67620 72275
L67564 72246
L67536 72218
L67508 72162
L67508 71993
L67536 71937
L67564 71909
L67620 71881
L67733 71881
L67789 71909
" />
<path d="M68070 72275
L68070 71881
" />
<path d="M68070 71937
L68098 71909
L68155 71881
L68239 71881
L68295 71909
L68323 71965
L68323 72275
" />
<path d="M68323 71965
L68352 71909
L68408 71881
L68492 71881
L68548 71909
L68577 71965
L68577 72275
" />
<path d="M69111 72275
L69111 71965
L69083 71909
L69026 71881
L68914 71881
L68858 71909
" />
<path d="M69111 72246
L69055 72275
L68914 72275
L68858 72246
L68830 72190
L68830 72134
L68858 72078
L68914 72050
L69055 72050
L69111 72021
" />
<path d="M69392 72275
L69392 71881
" />
<path d="M69392 71684
L69364 71712
L69392 71740
L69420 71712
L69392 71684
L69392 71740
" />
<path d="M69758 72275
L69701 72246
L69673 72190
L69673 71684
" />
<path d="M69983 72218
L70011 72246
L69983 72275
L69955 72246
L69983 72218
L69983 72275
" />
<path d="M70517 72246
L70461 72275
L70348 72275
L70292 72246
L70264 72218
L70236 72162
L70236 71993
L70264 71937
L70292 71909
L70348 71881
L70461 71881
L70517 71909
" />
<path d="M70854 72275
L70798 72246
L70770 72218
L70742 72162
L70742 71993
L70770 71937
L70798 71909
L70854 71881
L70939 71881
L70995 71909
L71023 71937
L71051 71993
L71051 72162
L71023 72218
L70995 72246
L70939 72275
L70854 72275
" />
<path d="M71304 72275
L71304 71881
" />
<path d="M71304 71937
L71332 71909
L71389 71881
L71473 71881
L71529 71909
L71557 71965
L71557 72275
" />
<path d="M71557 71965
L71586 71909
L71642 71881
L71726 71881
L71782 71909
L71811 71965
L71811 72275
" />
</g>
<g style="fill:#000000; fill-opacity:0.0; 
stroke:#000000; stroke-width:39.3701; stroke-opacity:1; 
stroke-linecap:round; stroke-linejoin:round;">
</g>
<g style="fill:#000000; fill-opacity:0.0; 
stroke:#000000; stroke-width:59.0551; stroke-opacity:1; 
stroke-linecap:round; stroke-linejoin:round;">
<path d="M70629 77716
L70629 78897
" />
</g>
<g style="fill:#000000; fill-opacity:0.0; 
stroke:#000000; stroke-width:39.3701; stroke-opacity:1; 
stroke-linecap:round; stroke-linejoin:round;">
</g>
<g style="fill:#000000; fill-opacity:0.0; 
stroke:#000000; stroke-width:59.0551; stroke-opacity:1; 
stroke-linecap:round; stroke-linejoin:round;">
<path d="M95826 77716
L95826 80275
" />
</g>
<g style="fill:#840084; fill-opacity:0.0; 
stroke:#840084; stroke-width:59.0551; stroke-opacity:1; 
stroke-linecap:round; stroke-linejoin:round;">
</g>
<g style="fill:#840084; fill-opacity:0.0; 
stroke:#840084; stroke-width:78.7402; stroke-opacity:1; 
stroke-linecap:round; stroke-linejoin:round;">
<path d="M78525 45191
L78525 44876
" />
<path d="M78420 44981
L78300 44981
" />
<path d="M78375 45191
L78375 44921
L78360 44891
L78330 44876
L78300 44876
" />
<path d="M78000 44876
L77895 45191
L77790 44876
" />
<path d="M77685 45191
L77685 44876
L77580 45101
L77475 44876
L77475 45191
" />
<path d="M76845 44981
L77085 45071
L76845 45161
" />
<path d="M76305 44876
L76455 44876
L76470 45026
L76455 45011
L76425 44996
L76350 44996
L76320 45011
L76305 45026
L76290 45056
L76290 45131
L76305 45161
L76320 45176
L76350 45191
L76425 45191
L76455 45176
L76470 45161
" />
<path d="M76200 44876
L76095 45191
L75990 44876
" />
<path d="M75645 45191
L75645 44876
" />
<path d="M75645 44996
L75615 44981
L75555 44981
L75525 44996
L75510 45011
L75495 45041
L75495 45131
L75510 45161
L75525 45176
L75555 45191
L75615 45191
L75645 45176
" />
<path d="M75360 45191
L75360 44981
" />
<path d="M75360 45041
L75345 45011
L75330 44996
L75300 44981
L75270 44981
" />
<path d="M75165 45191
L75165 44981
" />
<path d="M75165 44876
L75180 44891
L75165 44906
L75150 44891
L75165 44876
L75165 44906
" />
<path d="M74880 45191
L74880 44876
" />
<path d="M74880 45176
L74910 45191
L74970 45191
L75000 45176
L75015 45161
L75030 45131
L75030 45041
L75015 45011
L75000 44996
L74970 44981
L74910 44981
L74880 44996
" />
<path d="M74595 44981
L74595 45236
L74610 45266
L74625 45281
L74655 45296
L74700 45296
L74730 45281
" />
<path d="M74595 45176
L74625 45191
L74685 45191
L74715 45176
L74730 45161
L74745 45131
L74745 45041
L74730 45011
L74715 44996
L74685 44981
L74625 44981
L74595 44996
" />
<path d="M74325 45176
L74355 45191
L74415 45191
L74445 45176
L74460 45146
L74460 45026
L74445 44996
L74415 44981
L74355 44981
L74325 44996
L74310 45026
L74310 45056
L74460 45086
" />
<path d="M73845 44876
L73845 45101
L73860 45146
L73890 45176
L73935 45191
L73965 45191
" />
<path d="M73695 45191
L73695 44876
L73590 45101
L73485 44876
L73485 45191
" />
<path d="M73335 45191
L73335 44876
L73215 44876
L73185 44891
L73170 44906
L73155 44936
L73155 44981
L73170 45011
L73185 45026
L73215 45041
L73335 45041
" />
<path d="M78570 45427
L78465 45742
L78360 45427
" />
<path d="M78255 45742
L78255 45427
L78150 45652
L78045 45427
L78045 45742
" />
<path d="M77490 45742
L77670 45742
" />
<path d="M77580 45742
L77580 45427
L77610 45472
L77640 45502
L77670 45517
" />
<path d="M77310 45562
L77340 45547
L77355 45532
L77370 45502
L77370 45487
L77355 45457
L77340 45442
L77310 45427
L77250 45427
L77220 45442
L77205 45457
L77190 45487
L77190 45502
L77205 45532
L77220 45547
L77250 45562
L77310 45562
L77340 45577
L77355 45592
L77370 45622
L77370 45682
L77355 45712
L77340 45727
L77310 45742
L77250 45742
L77220 45727
L77205 45712
L77190 45682
L77190 45622
L77205 45592
L77220 45577
L77250 45562
" />
<path d="M77100 45427
L76995 45742
L76890 45427
" />
<path d="M76380 45742
L76560 45742
" />
<path d="M76470 45742
L76470 45427
L76500 45472
L76530 45502
L76560 45517
" />
<path d="M76245 45712
L76230 45727
L76245 45742
L76260 45727
L76245 45712
L76245 45742
" />
<path d="M75945 45427
L76095 45427
L76110 45577
L76095 45562
L76065 45547
L75990 45547
L75960 45562
L75945 45577
L75930 45607
L75930 45682
L75945 45712
L75960 45727
L75990 45742
L76065 45742
L76095 45727
L76110 45712
" />
<path d="M75570 45652
L75420 45652
" />
<path d="M75600 45742
L75495 45427
L75390 45742
" />
<path d="M75045 45742
L75045 45427
L74940 45652
L74835 45427
L74835 45742
" />
<path d="M74700 45652
L74550 45652
" />
<path d="M74730 45742
L74625 45427
L74520 45742
" />
<path d="M74445 45427
L74235 45742
" />
<path d="M74235 45427
L74445 45742
" />
<path d="M78570 45978
L78465 46293
L78360 45978
" />
<path d="M78075 46263
L78090 46278
L78135 46293
L78165 46293
L78210 46278
L78240 46248
L78255 46218
L78270 46158
L78270 46113
L78255 46053
L78240 46023
L78210 45993
L78165 45978
L78135 45978
L78090 45993
L78075 46008
" />
<path d="M77760 46263
L77775 46278
L77820 46293
L77850 46293
L77895 46278
L77925 46248
L77940 46218
L77955 46158
L77955 46113
L77940 46053
L77925 46023
L77895 45993
L77850 45978
L77820 45978
L77775 45993
L77760 46008
" />
<path d="M77235 45978
L77385 45978
L77400 46128
L77385 46113
L77355 46098
L77280 46098
L77250 46113
L77235 46128
L77220 46158
L77220 46233
L77235 46263
L77250 46278
L77280 46293
L77355 46293
L77385 46278
L77400 46263
" />
<path d="M77130 45978
L77025 46293
L76920 45978
" />
<path d="M76575 46293
L76575 45978
L76470 46203
L76365 45978
L76365 46293
" />
<path d="M76230 46203
L76080 46203
" />
<path d="M76260 46293
L76155 45978
L76050 46293
" />
<path d="M75975 45978
L75765 46293
" />
<path d="M75765 45978
L75975 46293
" />
<path d="M81508 49196
L81321 49196
" />
<path d="M81560 49308
L81379 48915
L81297 49308
" />
<path d="M81189 49046
L81039 49046
" />
<path d="M81117 48915
L81159 49252
L81145 49290
L81110 49308
L81072 49308
" />
<path d="M80964 49046
L80814 49046
" />
<path d="M80892 48915
L80934 49252
L80920 49290
L80885 49308
L80847 49308
" />
<path d="M80716 49308
L80683 49046
" />
<path d="M80667 48915
L80688 48933
L80671 48952
L80650 48933
L80667 48915
L80671 48952
" />
<path d="M80496 49046
L80529 49308
" />
<path d="M80500 49083
L80479 49065
L80439 49046
L80383 49046
L80348 49065
L80334 49102
L80360 49308
" />
<path d="M80177 49046
L80116 49308
" />
<path d="M79990 49046
L80116 49308
L80165 49402
L80186 49421
L80226 49440
" />
<path d="M79572 49308
L79523 48915
L79427 49196
L79261 48915
L79310 49308
" />
<path d="M79146 49046
L78996 49046
" />
<path d="M79073 48915
L79115 49252
L79101 49290
L79066 49308
L79029 49308
" />
<path d="M78897 49308
L78865 49046
" />
<path d="M78874 49121
L78851 49083
L78830 49065
L78790 49046
L78752 49046
" />
<path d="M78124 49271
L78145 49290
L78204 49308
L78241 49308
L78295 49290
L78328 49252
L78342 49215
L78351 49140
L78344 49083
L78316 49008
L78293 48971
L78251 48933
L78192 48915
L78155 48915
L78101 48933
L78084 48952
" />
<path d="M77984 49046
L77834 49046
" />
<path d="M77911 48915
L77953 49252
L77939 49290
L77904 49308
L77866 49308
" />
<path d="M77735 49308
L77702 49046
" />
<path d="M77712 49121
L77688 49083
L77667 49065
L77627 49046
L77590 49046
" />
<path d="M77435 49308
L77470 49290
L77484 49252
L77442 48915
" />
<path d="M81510 49584
L81428 49978
L81248 49584
" />
<path d="M81014 49959
L81053 49978
L81128 49978
L81164 49959
L81178 49921
L81159 49771
L81135 49734
L81096 49715
L81021 49715
L80986 49734
L80971 49771
L80976 49809
L81168 49846
" />
<path d="M80829 49978
L80796 49715
" />
<path d="M80805 49790
L80782 49753
L80761 49734
L80721 49715
L80683 49715
" />
<path d="M80161 49584
L80123 49584
L80088 49603
L80072 49621
L80058 49659
L80048 49734
L80060 49828
L80088 49903
L80111 49940
L80132 49959
L80172 49978
L80210 49978
L80245 49959
L80261 49940
L80275 49903
L80285 49828
L80273 49734
L80245 49659
L80222 49621
L80200 49603
L80161 49584
" />
<path d="M79905 49940
L79889 49959
L79910 49978
L79926 49959
L79905 49940
L79910 49978
" />
<path d="M79598 49584
L79561 49584
L79526 49603
L79509 49621
L79495 49659
L79486 49734
L79497 49828
L79526 49903
L79549 49940
L79570 49959
L79610 49978
L79647 49978
L79683 49959
L79699 49940
L79713 49903
L79722 49828
L79711 49734
L79683 49659
L79659 49621
L79638 49603
L79598 49584
" />
<path d="M81346 50441
L81478 50441
" />
<path d="M81503 50647
L81454 50253
L81267 50253
" />
<path d="M81014 50628
L81053 50647
L81128 50647
L81164 50628
L81178 50591
L81159 50441
L81135 50403
L81096 50384
L81021 50384
L80986 50403
L80971 50441
L80976 50478
L81168 50516
" />
<path d="M80829 50647
L80779 50253
" />
<path d="M80798 50403
L80758 50384
L80683 50384
L80648 50403
L80632 50422
L80618 50459
L80632 50572
L80655 50609
L80676 50628
L80716 50647
L80791 50647
L80826 50628
" />
<path d="M80147 50291
L80125 50272
L80086 50253
L79992 50253
L79957 50272
L79940 50291
L79926 50328
L79931 50366
L79957 50422
L80210 50647
L79966 50647
" />
<path d="M79673 50253
L79636 50253
L79601 50272
L79584 50291
L79570 50328
L79561 50403
L79572 50497
L79601 50572
L79624 50609
L79645 50628
L79685 50647
L79722 50647
L79758 50628
L79774 50609
L79788 50572
L79797 50497
L79786 50403
L79758 50328
L79734 50291
L79713 50272
L79673 50253
" />
<path d="M79397 50291
L79376 50272
L79336 50253
L79242 50253
L79207 50272
L79190 50291
L79176 50328
L79181 50366
L79207 50422
L79460 50647
L79216 50647
" />
<path d="M78923 50253
L78886 50253
L78851 50272
L78834 50291
L78820 50328
L78811 50403
L78823 50497
L78851 50572
L78874 50609
L78895 50628
L78935 50647
L78972 50647
L79008 50628
L79024 50609
L79038 50572
L79047 50497
L79036 50403
L79008 50328
L78984 50291
L78963 50272
L78923 50253
" />
</g>
<g style="fill:#000000; fill-opacity:0.0; 
stroke:#000000; stroke-width:78.7402; stroke-opacity:1; 
stroke-linecap:round; stroke-linejoin:round;">
</g>
<g style="fill:#840000; fill-opacity:0.0; 
stroke:#840000; stroke-width:78.7402; stroke-opacity:1; 
stroke-linecap:round; stroke-linejoin:round;">
</g>
<g style="fill:#840000; fill-opacity:1.0; 
stroke:#840000; stroke-width:0; stroke-opacity:1; 
stroke-linecap:round; stroke-linejoin:round;">
<circle cx="75500" cy="43300" r="334.646" /> 
</g>
<g style="fill:#840000; fill-opacity:1.0; 
stroke:#840000; stroke-width:39.3701; stroke-opacity:1; 
stroke-linecap:round; stroke-linejoin:round;">
</g>
<g style="fill:#840000; fill-opacity:1.0; 
stroke:#840000; stroke-width:669.291; stroke-opacity:1; 
stroke-linecap:round; stroke-linejoin:round;">
</g>
<g style="fill:#840000; fill-opacity:0.0; 
stroke:#840000; stroke-width:669.291; stroke-opacity:1; 
stroke-linecap:round; stroke-linejoin:round;">
<path d="M76500 43300
L76500 43300
" />
</g>
<g style="fill:#840000; fill-opacity:0.0; 
stroke:#840000; stroke-width:0; stroke-opacity:1; 
stroke-linecap:round; stroke-linejoin:round;">
</g>
<g style="fill:#840000; fill-opacity:1.0; 
stroke:#840000; stroke-width:0; stroke-opacity:1; 
stroke-linecap:round; stroke-linejoin:round;">
<polyline style="fill-rule:evenodd;"
points="79734,43634
79065,43634
79065,42965
79734,42965
79734,43634
" /> 
</g>
<g style="fill:#840000; fill-opacity:1.0; 
stroke:#840000; stroke-width:669.291; stroke-opacity:1; 
stroke-linecap:round; stroke-linejoin:round;">
</g>
<g style="fill:#840000; fill-opacity:0.0; 
stroke:#840000; stroke-width:669.291; stroke-opacity:1; 
stroke-linecap:round; stroke-linejoin:round;">
<path d="M80400 43300
L80400 43300
" />
</g>
<g style="fill:#840000; fill-opacity:0.0; 
stroke:#840000; stroke-width:0; stroke-opacity:1; 
stroke-linecap:round; stroke-linejoin:round;">
</g>
<g style="fill:#840000; fill-opacity:1.0; 
stroke:#840000; stroke-width:0; stroke-opacity:1; 
stroke-linecap:round; stroke-linejoin:round;">
<polyline style="fill-rule:evenodd;"
points="80465,46634
80465,45965
81134,45965
81134,46634
80465,46634
" /> 
</g>
<g style="fill:#840000; fill-opacity:1.0; 
stroke:#840000; stroke-width:669.291; stroke-opacity:1; 
stroke-linecap:round; stroke-linejoin:round;">
</g>
<g style="fill:#840000; fill-opacity:0.0; 
stroke:#840000; stroke-width:669.291; stroke-opacity:1; 
stroke-linecap:round; stroke-linejoin:round;">
<path d="M80800 47300
L80800 47300
" />
</g>
<g style="fill:#840000; fill-opacity:0.0; 
stroke:#840000; stroke-width:0; stroke-opacity:1; 
stroke-linecap:round; stroke-linejoin:round;">
</g>
<g style="fill:#840000; fill-opacity:1.0; 
stroke:#840000; stroke-width:0; stroke-opacity:1; 
stroke-linecap:round; stroke-linejoin:round;">
<polyline style="fill-rule:evenodd;"
points="71584,44584
70915,44584
70915,43915
71584,43915
71584,44584
" /> 
</g>
<g style="fill:#840000; fill-opacity:1.0; 
stroke:#840000; stroke-width:669.291; stroke-opacity:1; 
stroke-linecap:round; stroke-linejoin:round;">
</g>
<g style="fill:#840000; fill-opacity:0.0; 
stroke:#840000; stroke-width:669.291; stroke-opacity:1; 
stroke-linecap:round; stroke-linejoin:round;">
<path d="M71250 43250
L71250 43250
" />
<path d="M72250 44250
L72250 44250
" />
<path d="M72250 43250
L72250 43250
" />
<path d="M73250 44250
L73250 44250
" />
<path d="M73250 43250
L73250 43250
" />
</g>
<g style="fill:#840000; fill-opacity:0.0; 
stroke:#840000; stroke-width:0; stroke-opacity:1; 
stroke-linecap:round; stroke-linejoin:round;">
</g>
<g style="fill:#840000; fill-opacity:1.0; 
stroke:#840000; stroke-width:0; stroke-opacity:1; 
stroke-linecap:round; stroke-linejoin:round;">
<polyline style="fill-rule:evenodd;"
points="70565,46634
70565,45965
71234,45965
71234,46634
70565,46634
" /> 
</g>
<g style="fill:#840000; fill-opacity:1.0; 
stroke:#840000; stroke-width:669.291; stroke-opacity:1; 
stroke-linecap:round; stroke-linejoin:round;">
</g>
<g style="fill:#840000; fill-opacity:0.0; 
stroke:#840000; stroke-width:669.291; stroke-opacity:1; 
stroke-linecap:round; stroke-linejoin:round;">
<path d="M70900 47300
L70900 47300
" />
</g>
<g style="fill:#000000; fill-opacity:0.0; 
stroke:#000000; stroke-width:669.291; stroke-opacity:1; 
stroke-linecap:round; stroke-linejoin:round;">
</g>
<g style="fill:#840000; fill-opacity:0.0; 
stroke:#840000; stroke-width:669.291; stroke-opacity:1; 
stroke-linecap:round; stroke-linejoin:round;">
</g>
<g style="fill:#840000; fill-opacity:1.0; 
stroke:#840000; stroke-width:0; stroke-opacity:1; 
stroke-linecap:round; stroke-linejoin:round;">
<circle cx="75500" cy="43300" r="334.646" /> 
</g>
<g style="fill:#840000; fill-opacity:1.0; 
stroke:#840000; stroke-width:39.3701; stroke-opacity:1; 
stroke-linecap:round; stroke-linejoin:round;">
</g>
<g style="fill:#840000; fill-opacity:1.0; 
stroke:#840000; stroke-width:669.291; stroke-opacity:1; 
stroke-linecap:round; stroke-linejoin:round;">
</g>
<g style="fill:#840000; fill-opacity:0.0; 
stroke:#840000; stroke-width:669.291; stroke-opacity:1; 
stroke-linecap:round; stroke-linejoin:round;">
<path d="M76500 43300
L76500 43300
" />
</g>
<g style="fill:#840000; fill-opacity:0.0; 
stroke:#840000; stroke-width:0; stroke-opacity:1; 
stroke-linecap:round; stroke-linejoin:round;">
</g>
<g style="fill:#840000; fill-opacity:1.0; 
stroke:#840000; stroke-width:0; stroke-opacity:1; 
stroke-linecap:round; stroke-linejoin:round;">
<polyline style="fill-rule:evenodd;"
points="79734,43634
79065,43634
79065,42965
79734,42965
79734,43634
" /> 
</g>
<g style="fill:#840000; fill-opacity:1.0; 
stroke:#840000; stroke-width:669.291; stroke-opacity:1; 
stroke-linecap:round; stroke-linejoin:round;">
</g>
<g style="fill:#840000; fill-opacity:0.0; 
stroke:#840000; stroke-width:669.291; stroke-opacity:1; 
stroke-linecap:round; stroke-linejoin:round;">
<path d="M80400 43300
L80400 43300
" />
</g>
<g style="fill:#840000; fill-opacity:0.0; 
stroke:#840000; stroke-width:0; stroke-opacity:1; 
stroke-linecap:round; stroke-linejoin:round;">
</g>
<g style="fill:#840000; fill-opacity:1.0; 
stroke:#840000; stroke-width:0; stroke-opacity:1; 
stroke-linecap:round; stroke-linejoin:round;">
<polyline style="fill-rule:evenodd;"
points="80465,46634
80465,45965
81134,45965
81134,46634
80465,46634
" /> 
</g>
<g style="fill:#840000; fill-opacity:1.0; 
stroke:#840000; stroke-width:669.291; stroke-opacity:1; 
stroke-linecap:round; stroke-linejoin:round;">
</g>
<g style="fill:#840000; fill-opacity:0.0; 
stroke:#840000; stroke-width:669.291; stroke-opacity:1; 
stroke-linecap:round; stroke-linejoin:round;">
<path d="M80800 47300
L80800 47300
" />
</g>
<g style="fill:#840000; fill-opacity:0.0; 
stroke:#840000; stroke-width:0; stroke-opacity:1; 
stroke-linecap:round; stroke-linejoin:round;">
</g>
<g style="fill:#840000; fill-opacity:1.0; 
stroke:#840000; stroke-width:0; stroke-opacity:1; 
stroke-linecap:round; stroke-linejoin:round;">
<polyline style="fill-rule:evenodd;"
points="71584,44584
70915,44584
70915,43915
71584,43915
71584,44584
" /> 
</g>
<g style="fill:#840000; fill-opacity:1.0; 
stroke:#840000; stroke-width:669.291; stroke-opacity:1; 
stroke-linecap:round; stroke-linejoin:round;">
</g>
<g style="fill:#840000; fill-opacity:0.0; 
stroke:#840000; stroke-width:669.291; stroke-opacity:1; 
stroke-linecap:round; stroke-linejoin:round;">
<path d="M71250 43250
L71250 43250
" />
<path d="M72250 44250
L72250 44250
" />
<path d="M72250 43250
L72250 43250
" />
<path d="M73250 44250
L73250 44250
" />
<path d="M73250 43250
L73250 43250
" />
</g>
<g style="fill:#840000; fill-opacity:0.0; 
stroke:#840000; stroke-width:0; stroke-opacity:1; 
stroke-linecap:round; stroke-linejoin:round;">
</g>
<g style="fill:#840000; fill-opacity:1.0; 
stroke:#840000; stroke-width:0; stroke-opacity:1; 
stroke-linecap:round; stroke-linejoin:round;">
<polyline style="fill-rule:evenodd;"
points="70565,46634
70565,45965
71234,45965
71234,46634
70565,46634
" /> 
</g>
<g style="fill:#840000; fill-opacity:1.0; 
stroke:#840000; stroke-width:669.291; stroke-opacity:1; 
stroke-linecap:round; stroke-linejoin:round;">
</g>
<g style="fill:#840000; fill-opacity:0.0; 
stroke:#840000; stroke-width:669.291; stroke-opacity:1; 
stroke-linecap:round; stroke-linejoin:round;">
<path d="M70900 47300
L70900 47300
" />
</g>
<g style="fill:#C2C2C2; fill-opacity:0.0; 
stroke:#C2C2C2; stroke-width:669.291; stroke-opacity:1; 
stroke-linecap:round; stroke-linejoin:round;">
</g>
<g style="fill:#C2C2C2; fill-opacity:1.0; 
stroke:#C2C2C2; stroke-width:0; stroke-opacity:1; 
stroke-linecap:round; stroke-linejoin:round;">
<circle cx="77700" cy="48500" r="118.11" /> 
</g>
<g style="fill:#C2C2C2; fill-opacity:1.0; 
stroke:#C2C2C2; stroke-width:39.3701; stroke-opacity:1; 
stroke-linecap:round; stroke-linejoin:round;">
</g>
<g style="fill:#C2C2C2; fill-opacity:1.0; 
stroke:#C2C2C2; stroke-width:0; stroke-opacity:1; 
stroke-linecap:round; stroke-linejoin:round;">
<circle cx="77700" cy="48000" r="118.11" /> 
</g>
<g style="fill:#C2C2C2; fill-opacity:1.0; 
stroke:#C2C2C2; stroke-width:39.3701; stroke-opacity:1; 
stroke-linecap:round; stroke-linejoin:round;">
</g>
<g style="fill:#C2C2C2; fill-opacity:1.0; 
stroke:#C2C2C2; stroke-width:0; stroke-opacity:1; 
stroke-linecap:round; stroke-linejoin:round;">
<circle cx="79300" cy="47900" r="118.11" /> 
</g>
<g style="fill:#C2C2C2; fill-opacity:1.0; 
stroke:#C2C2C2; stroke-width:39.3701; stroke-opacity:1; 
stroke-linecap:round; stroke-linejoin:round;">
</g>
<g style="fill:#C2C2C2; fill-opacity:1.0; 
stroke:#C2C2C2; stroke-width:0; stroke-opacity:1; 
stroke-linecap:round; stroke-linejoin:round;">
<circle cx="79250" cy="48600" r="118.11" /> 
</g>
<g style="fill:#C2C2C2; fill-opacity:1.0; 
stroke:#C2C2C2; stroke-width:39.3701; stroke-opacity:1; 
stroke-linecap:round; stroke-linejoin:round;">
</g>
<g style="fill:#C2C2C2; fill-opacity:1.0; 
stroke:#C2C2C2; stroke-width:0; stroke-opacity:1; 
stroke-linecap:round; stroke-linejoin:round;">
<circle cx="74500" cy="46370" r="118.11" /> 
</g>
<g style="fill:#C2C2C2; fill-opacity:1.0; 
stroke:#C2C2C2; stroke-width:39.3701; stroke-opacity:1; 
stroke-linecap:round; stroke-linejoin:round;">
</g>
<g style="fill:#C2C2C2; fill-opacity:1.0; 
stroke:#C2C2C2; stroke-width:0; stroke-opacity:1; 
stroke-linecap:round; stroke-linejoin:round;">
<circle cx="74500" cy="47600" r="118.11" /> 
</g>
<g style="fill:#C2C2C2; fill-opacity:1.0; 
stroke:#C2C2C2; stroke-width:39.3701; stroke-opacity:1; 
stroke-linecap:round; stroke-linejoin:round;">
</g>
<g style="fill:#C2C2C2; fill-opacity:1.0; 
stroke:#C2C2C2; stroke-width:0; stroke-opacity:1; 
stroke-linecap:round; stroke-linejoin:round;">
<circle cx="74060" cy="47560" r="118.11" /> 
</g>
<g style="fill:#C2C2C2; fill-opacity:1.0; 
stroke:#C2C2C2; stroke-width:39.3701; stroke-opacity:1; 
stroke-linecap:round; stroke-linejoin:round;">
</g>
<g style="fill:#008400; fill-opacity:1.0; 
stroke:#008400; stroke-width:39.3701; stroke-opacity:1; 
stroke-linecap:round; stroke-linejoin:round;">
</g>
<g style="fill:#008400; fill-opacity:1.0; 
stroke:#008400; stroke-width:240; stroke-opacity:1; 
stroke-linecap:round; stroke-linejoin:round;">
</g>
<g style="fill:#008400; fill-opacity:0.0; 
stroke:#008400; stroke-width:240; stroke-opacity:1; 
stroke-linecap:round; stroke-linejoin:round;">
<path d="M79300 47900
L79300 44400
" />
<path d="M79300 44400
L80400 43300
" />
<path d="M79250 48600
L79300 48600
" />
<path d="M78830 42580
L80080 42580
" />
<path d="M78830 42580
L73590 42580
" />
<path d="M73250 42920
L73590 42580
" />
<path d="M80400 42900
L80400 43300
" />
<path d="M80080 42580
L80400 42900
" />
<path d="M73250 42920
L73250 43250
" />
<path d="M70900 47300
L70400 47300
" />
<path d="M73250 42880
L73250 43250
" />
<path d="M72930 42560
L73250 42880
" />
<path d="M70730 42560
L72930 42560
" />
<path d="M70210 43080
L70730 42560
" />
<path d="M70210 47110
L70210 43080
" />
<path d="M70400 47300
L70210 47110
" />
</g>
<g style="fill:#008400; fill-opacity:0.0; 
stroke:#008400; stroke-width:160; stroke-opacity:1; 
stroke-linecap:round; stroke-linejoin:round;">
<path d="M72250 44250
L72250 44190
" />
<path d="M72250 44190
L72690 43750
" />
<path d="M75050 43750
L75500 43300
" />
<path d="M72690 43750
L75050 43750
" />
<path d="M71250 44640
L71250 44250
" />
<path d="M72060 45450
L71250 44640
" />
<path d="M73580 45450
L72060 45450
" />
<path d="M74500 46370
L73580 45450
" />
</g>
<g style="fill:#008400; fill-opacity:0.0; 
stroke:#008400; stroke-width:240; stroke-opacity:1; 
stroke-linecap:round; stroke-linejoin:round;">
<path d="M71250 43250
L70840 43250
" />
<path d="M70840 43250
L70610 43480
" />
<path d="M70900 45090
L70900 46300
" />
<path d="M70610 44800
L70900 45090
" />
<path d="M70610 43480
L70610 44800
" />
</g>
<g style="fill:#008400; fill-opacity:0.0; 
stroke:#008400; stroke-width:160; stroke-opacity:1; 
stroke-linecap:round; stroke-linejoin:round;">
<path d="M76500 45600
L76500 43300
" />
<path d="M74500 47600
L76500 45600
" />
<path d="M73660 44250
L73250 44250
" />
<path d="M74970 45560
L73660 44250
" />
<path d="M74970 46650
L74970 45560
" />
<path d="M74060 47560
L74970 46650
" />
</g>
<g style="fill:#008400; fill-opacity:1.0; 
stroke:#008400; stroke-width:100; stroke-opacity:1; 
stroke-linecap:round; stroke-linejoin:round;">
<polyline style="fill-rule:evenodd;"
points="80250,47073
80248,47076
80203,47300
80248,47523
80250,47526
80250,49650
76850,49650
76850,46850
80250,46850
80250,47073
" /> 
</g>
<g style="fill:#FFFFFF; fill-opacity:1.0; 
stroke:#FFFFFF; stroke-width:100; stroke-opacity:1; 
stroke-linecap:round; stroke-linejoin:round;">
</g>
<g style="fill:#FFFFFF; fill-opacity:1.0; 
stroke:#FFFFFF; stroke-width:0; stroke-opacity:1; 
stroke-linecap:round; stroke-linejoin:round;">
<circle cx="77700" cy="48500" r="78.7402" /> 
</g>
<g style="fill:#FFFFFF; fill-opacity:1.0; 
stroke:#FFFFFF; stroke-width:39.3701; stroke-opacity:1; 
stroke-linecap:round; stroke-linejoin:round;">
</g>
<g style="fill:#FFFFFF; fill-opacity:1.0; 
stroke:#FFFFFF; stroke-width:0; stroke-opacity:1; 
stroke-linecap:round; stroke-linejoin:round;">
<circle cx="77700" cy="48000" r="78.7402" /> 
</g>
<g style="fill:#FFFFFF; fill-opacity:1.0; 
stroke:#FFFFFF; stroke-width:39.3701; stroke-opacity:1; 
stroke-linecap:round; stroke-linejoin:round;">
</g>
<g style="fill:#FFFFFF; fill-opacity:1.0; 
stroke:#FFFFFF; stroke-width:0; stroke-opacity:1; 
stroke-linecap:round; stroke-linejoin:round;">
<circle cx="79300" cy="47900" r="78.7402" /> 
</g>
<g style="fill:#FFFFFF; fill-opacity:1.0; 
stroke:#FFFFFF; stroke-width:39.3701; stroke-opacity:1; 
stroke-linecap:round; stroke-linejoin:round;">
</g>
<g style="fill:#FFFFFF; fill-opacity:1.0; 
stroke:#FFFFFF; stroke-width:0; stroke-opacity:1; 
stroke-linecap:round; stroke-linejoin:round;">
<circle cx="79250" cy="48600" r="78.7402" /> 
</g>
<g style="fill:#FFFFFF; fill-opacity:1.0; 
stroke:#FFFFFF; stroke-width:39.3701; stroke-opacity:1; 
stroke-linecap:round; stroke-linejoin:round;">
</g>
<g style="fill:#FFFFFF; fill-opacity:1.0; 
stroke:#FFFFFF; stroke-width:0; stroke-opacity:1; 
stroke-linecap:round; stroke-linejoin:round;">
<circle cx="74500" cy="46370" r="78.7402" /> 
</g>
<g style="fill:#FFFFFF; fill-opacity:1.0; 
stroke:#FFFFFF; stroke-width:39.3701; stroke-opacity:1; 
stroke-linecap:round; stroke-linejoin:round;">
</g>
<g style="fill:#FFFFFF; fill-opacity:1.0; 
stroke:#FFFFFF; stroke-width:0; stroke-opacity:1; 
stroke-linecap:round; stroke-linejoin:round;">
<circle cx="74500" cy="47600" r="78.7402" /> 
</g>
<g style="fill:#FFFFFF; fill-opacity:1.0; 
stroke:#FFFFFF; stroke-width:39.3701; stroke-opacity:1; 
stroke-linecap:round; stroke-linejoin:round;">
</g>
<g style="fill:#FFFFFF; fill-opacity:1.0; 
stroke:#FFFFFF; stroke-width:0; stroke-opacity:1; 
stroke-linecap:round; stroke-linejoin:round;">
<circle cx="74060" cy="47560" r="78.7402" /> 
</g>
<g style="fill:#FFFFFF; fill-opacity:1.0; 
stroke:#FFFFFF; stroke-width:39.3701; stroke-opacity:1; 
stroke-linecap:round; stroke-linejoin:round;">
</g>
<g style="fill:#FFFFFF; fill-opacity:1.0; 
stroke:#FFFFFF; stroke-width:0; stroke-opacity:1; 
stroke-linecap:round; stroke-linejoin:round;">
<circle cx="75500" cy="43300" r="196.85" /> 
</g>
<g style="fill:#FFFFFF; fill-opacity:1.0; 
stroke:#FFFFFF; stroke-width:39.3701; stroke-opacity:1; 
stroke-linecap:round; stroke-linejoin:round;">
</g>
<g style="fill:#FFFFFF; fill-opacity:1.0; 
stroke:#FFFFFF; stroke-width:0; stroke-opacity:1; 
stroke-linecap:round; stroke-linejoin:round;">
<circle cx="76500" cy="43300" r="196.85" /> 
</g>
<g style="fill:#FFFFFF; fill-opacity:1.0; 
stroke:#FFFFFF; stroke-width:39.3701; stroke-opacity:1; 
stroke-linecap:round; stroke-linejoin:round;">
</g>
<g style="fill:#FFFFFF; fill-opacity:1.0; 
stroke:#FFFFFF; stroke-width:0; stroke-opacity:1; 
stroke-linecap:round; stroke-linejoin:round;">
<circle cx="79400" cy="43300" r="196.85" /> 
</g>
<g style="fill:#FFFFFF; fill-opacity:1.0; 
stroke:#FFFFFF; stroke-width:39.3701; stroke-opacity:1; 
stroke-linecap:round; stroke-linejoin:round;">
</g>
<g style="fill:#FFFFFF; fill-opacity:1.0; 
stroke:#FFFFFF; stroke-width:0; stroke-opacity:1; 
stroke-linecap:round; stroke-linejoin:round;">
<circle cx="80400" cy="43300" r="196.85" /> 
</g>
<g style="fill:#FFFFFF; fill-opacity:1.0; 
stroke:#FFFFFF; stroke-width:39.3701; stroke-opacity:1; 
stroke-linecap:round; stroke-linejoin:round;">
</g>
<g style="fill:#FFFFFF; fill-opacity:1.0; 
stroke:#FFFFFF; stroke-width:0; stroke-opacity:1; 
stroke-linecap:round; stroke-linejoin:round;">
<circle cx="80800" cy="46300" r="196.85" /> 
</g>
<g style="fill:#FFFFFF; fill-opacity:1.0; 
stroke:#FFFFFF; stroke-width:39.3701; stroke-opacity:1; 
stroke-linecap:round; stroke-linejoin:round;">
</g>
<g style="fill:#FFFFFF; fill-opacity:1.0; 
stroke:#FFFFFF; stroke-width:0; stroke-opacity:1; 
stroke-linecap:round; stroke-linejoin:round;">
<circle cx="80800" cy="47300" r="196.85" /> 
</g>
<g style="fill:#FFFFFF; fill-opacity:1.0; 
stroke:#FFFFFF; stroke-width:39.3701; stroke-opacity:1; 
stroke-linecap:round; stroke-linejoin:round;">
</g>
<g style="fill:#FFFFFF; fill-opacity:1.0; 
stroke:#FFFFFF; stroke-width:0; stroke-opacity:1; 
stroke-linecap:round; stroke-linejoin:round;">
<circle cx="71250" cy="44250" r="196.85" /> 
</g>
<g style="fill:#FFFFFF; fill-opacity:1.0; 
stroke:#FFFFFF; stroke-width:39.3701; stroke-opacity:1; 
stroke-linecap:round; stroke-linejoin:round;">
</g>
<g style="fill:#FFFFFF; fill-opacity:1.0; 
stroke:#FFFFFF; stroke-width:0; stroke-opacity:1; 
stroke-linecap:round; stroke-linejoin:round;">
<circle cx="71250" cy="43250" r="196.85" /> 
</g>
<g style="fill:#FFFFFF; fill-opacity:1.0; 
stroke:#FFFFFF; stroke-width:39.3701; stroke-opacity:1; 
stroke-linecap:round; stroke-linejoin:round;">
</g>
<g style="fill:#FFFFFF; fill-opacity:1.0; 
stroke:#FFFFFF; stroke-width:0; stroke-opacity:1; 
stroke-linecap:round; stroke-linejoin:round;">
<circle cx="72250" cy="44250" r="196.85" /> 
</g>
<g style="fill:#FFFFFF; fill-opacity:1.0; 
stroke:#FFFFFF; stroke-width:39.3701; stroke-opacity:1; 
stroke-linecap:round; stroke-linejoin:round;">
</g>
<g style="fill:#FFFFFF; fill-opacity:1.0; 
stroke:#FFFFFF; stroke-width:0; stroke-opacity:1; 
stroke-linecap:round; stroke-linejoin:round;">
<circle cx="72250" cy="43250" r="196.85" /> 
</g>
<g style="fill:#FFFFFF; fill-opacity:1.0; 
stroke:#FFFFFF; stroke-width:39.3701; stroke-opacity:1; 
stroke-linecap:round; stroke-linejoin:round;">
</g>
<g style="fill:#FFFFFF; fill-opacity:1.0; 
stroke:#FFFFFF; stroke-width:0; stroke-opacity:1; 
stroke-linecap:round; stroke-linejoin:round;">
<circle cx="73250" cy="44250" r="196.85" /> 
</g>
<g style="fill:#FFFFFF; fill-opacity:1.0; 
stroke:#FFFFFF; stroke-width:39.3701; stroke-opacity:1; 
stroke-linecap:round; stroke-linejoin:round;">
</g>
<g style="fill:#FFFFFF; fill-opacity:1.0; 
stroke:#FFFFFF; stroke-width:0; stroke-opacity:1; 
stroke-linecap:round; stroke-linejoin:round;">
<circle cx="73250" cy="43250" r="196.85" /> 
</g>
<g style="fill:#FFFFFF; fill-opacity:1.0; 
stroke:#FFFFFF; stroke-width:39.3701; stroke-opacity:1; 
stroke-linecap:round; stroke-linejoin:round;">
</g>
<g style="fill:#FFFFFF; fill-opacity:1.0; 
stroke:#FFFFFF; stroke-width:0; stroke-opacity:1; 
stroke-linecap:round; stroke-linejoin:round;">
<circle cx="70900" cy="46300" r="196.85" /> 
</g>
<g style="fill:#FFFFFF; fill-opacity:1.0; 
stroke:#FFFFFF; stroke-width:39.3701; stroke-opacity:1; 
stroke-linecap:round; stroke-linejoin:round;">
</g>
<g style="fill:#FFFFFF; fill-opacity:1.0; 
stroke:#FFFFFF; stroke-width:0; stroke-opacity:1; 
stroke-linecap:round; stroke-linejoin:round;">
<circle cx="70900" cy="47300" r="196.85" /> 
</g>
<g style="fill:#FFFFFF; fill-opacity:1.0; 
stroke:#FFFFFF; stroke-width:39.3701; stroke-opacity:1; 
stroke-linecap:round; stroke-linejoin:round;">
</g>
<g style="fill:#000000; fill-opacity:1.0; 
stroke:#000000; stroke-width:39.3701; stroke-opacity:1; 
stroke-linecap:round; stroke-linejoin:round;">
</g>
<g style="fill:#840000; fill-opacity:1.0; 
stroke:#840000; stroke-width:39.3701; stroke-opacity:1; 
stroke-linecap:round; stroke-linejoin:round;">
</g>
<g style="fill:#840000; fill-opacity:1.0; 
stroke:#840000; stroke-width:0; stroke-opacity:1; 
stroke-linecap:round; stroke-linejoin:round;">
<polyline style="fill-rule:evenodd;"
points="78216,42822
78216,43177
78019,43177
78019,42822
78216,42822
" /> 
<polyline style="fill-rule:evenodd;"
points="77980,42822
77980,43177
77783,43177
77783,42822
77980,42822
" /> 
<polyline style="fill-rule:evenodd;"
points="79131,46831
79368,46831
79368,47442
79131,47442
79131,46831
" /> 
<polyline style="fill-rule:evenodd;"
points="78631,46831
78868,46831
78868,47442
78631,47442
78631,46831
" /> 
<polyline style="fill-rule:evenodd;"
points="78131,46831
78368,46831
78368,47442
78131,47442
78131,46831
" /> 
<polyline style="fill-rule:evenodd;"
points="77631,46831
77868,46831
77868,47442
77631,47442
77631,46831
" /> 
<polyline style="fill-rule:evenodd;"
points="77631,48957
77868,48957
77868,49568
77631,49568
77631,48957
" /> 
<polyline style="fill-rule:evenodd;"
points="78131,48957
78368,48957
78368,49568
78131,49568
78131,48957
" /> 
<polyline style="fill-rule:evenodd;"
points="78631,48957
78868,48957
78868,49568
78631,49568
78631,48957
" /> 
<polyline style="fill-rule:evenodd;"
points="79131,48957
79368,48957
79368,49568
79131,49568
79131,48957
" /> 
<polyline style="fill-rule:evenodd;"
points="78037,48200
78500,48200
78500,48662
78037,48662
78037,48200
" /> 
<polyline style="fill-rule:evenodd;"
points="78500,48200
78962,48200
78962,48662
78500,48662
78500,48200
" /> 
<polyline style="fill-rule:evenodd;"
points="78037,47737
78500,47737
78500,48200
78037,48200
78037,47737
" /> 
<polyline style="fill-rule:evenodd;"
points="78500,47737
78962,47737
78962,48200
78500,48200
78500,47737
" /> 
<circle cx="75500" cy="43300" r="334.646" /> 
</g>
<g style="fill:#840000; fill-opacity:1.0; 
stroke:#840000; stroke-width:39.3701; stroke-opacity:1; 
stroke-linecap:round; stroke-linejoin:round;">
</g>
<g style="fill:#840000; fill-opacity:1.0; 
stroke:#840000; stroke-width:669.291; stroke-opacity:1; 
stroke-linecap:round; stroke-linejoin:round;">
</g>
<g style="fill:#840000; fill-opacity:0.0; 
stroke:#840000; stroke-width:669.291; stroke-opacity:1; 
stroke-linecap:round; stroke-linejoin:round;">
<path d="M76500 43300
L76500 43300
" />
</g>
<g style="fill:#840000; fill-opacity:0.0; 
stroke:#840000; stroke-width:0; stroke-opacity:1; 
stroke-linecap:round; stroke-linejoin:round;">
</g>
<g style="fill:#840000; fill-opacity:1.0; 
stroke:#840000; stroke-width:0; stroke-opacity:1; 
stroke-linecap:round; stroke-linejoin:round;">
<polyline style="fill-rule:evenodd;"
points="79734,43634
79065,43634
79065,42965
79734,42965
79734,43634
" /> 
</g>
<g style="fill:#840000; fill-opacity:1.0; 
stroke:#840000; stroke-width:669.291; stroke-opacity:1; 
stroke-linecap:round; stroke-linejoin:round;">
</g>
<g style="fill:#840000; fill-opacity:0.0; 
stroke:#840000; stroke-width:669.291; stroke-opacity:1; 
stroke-linecap:round; stroke-linejoin:round;">
<path d="M80400 43300
L80400 43300
" />
</g>
<g style="fill:#840000; fill-opacity:0.0; 
stroke:#840000; stroke-width:0; stroke-opacity:1; 
stroke-linecap:round; stroke-linejoin:round;">
</g>
<g style="fill:#840000; fill-opacity:1.0; 
stroke:#840000; stroke-width:0; stroke-opacity:1; 
stroke-linecap:round; stroke-linejoin:round;">
<polyline style="fill-rule:evenodd;"
points="72253,46212
72746,46212
72746,46803
72253,46803
72253,46212
" /> 
<polyline style="fill-rule:evenodd;"
points="72253,47196
72746,47196
72746,47787
72253,47787
72253,47196
" /> 
<polyline style="fill-rule:evenodd;"
points="73627,48771
73372,48771
73372,48102
73627,48102
73627,48771
" /> 
<polyline style="fill-rule:evenodd;"
points="74127,48771
73872,48771
73872,48102
74127,48102
74127,48771
" /> 
<polyline style="fill-rule:evenodd;"
points="74627,48771
74372,48771
74372,48102
74627,48102
74627,48771
" /> 
<polyline style="fill-rule:evenodd;"
points="75127,48771
74872,48771
74872,48102
75127,48102
75127,48771
" /> 
<polyline style="fill-rule:evenodd;"
points="75127,45897
74872,45897
74872,45228
75127,45228
75127,45897
" /> 
<polyline style="fill-rule:evenodd;"
points="74627,45897
74372,45897
74372,45228
74627,45228
74627,45897
" /> 
<polyline style="fill-rule:evenodd;"
points="74127,45897
73872,45897
73872,45228
74127,45228
74127,45897
" /> 
<polyline style="fill-rule:evenodd;"
points="73627,45897
73372,45897
73372,45228
73627,45228
73627,45897
" /> 
<polyline style="fill-rule:evenodd;"
points="80465,46634
80465,45965
81134,45965
81134,46634
80465,46634
" /> 
</g>
<g style="fill:#840000; fill-opacity:1.0; 
stroke:#840000; stroke-width:669.291; stroke-opacity:1; 
stroke-linecap:round; stroke-linejoin:round;">
</g>
<g style="fill:#840000; fill-opacity:0.0; 
stroke:#840000; stroke-width:669.291; stroke-opacity:1; 
stroke-linecap:round; stroke-linejoin:round;">
<path d="M80800 47300
L80800 47300
" />
</g>
<g style="fill:#840000; fill-opacity:0.0; 
stroke:#840000; stroke-width:0; stroke-opacity:1; 
stroke-linecap:round; stroke-linejoin:round;">
</g>
<g style="fill:#840000; fill-opacity:1.0; 
stroke:#840000; stroke-width:0; stroke-opacity:1; 
stroke-linecap:round; stroke-linejoin:round;">
<polyline style="fill-rule:evenodd;"
points="75670,50425
75670,49952
76142,49952
76142,50425
75670,50425
" /> 
<polyline style="fill-rule:evenodd;"
points="76004,49224
76004,48594
76595,48594
76595,49224
76004,49224
" /> 
<polyline style="fill-rule:evenodd;"
points="76457,50425
76457,49952
76929,49952
76929,50425
76457,50425
" /> 
<polyline style="fill-rule:evenodd;"
points="71584,44584
70915,44584
70915,43915
71584,43915
71584,44584
" /> 
</g>
<g style="fill:#840000; fill-opacity:1.0; 
stroke:#840000; stroke-width:669.291; stroke-opacity:1; 
stroke-linecap:round; stroke-linejoin:round;">
</g>
<g style="fill:#840000; fill-opacity:0.0; 
stroke:#840000; stroke-width:669.291; stroke-opacity:1; 
stroke-linecap:round; stroke-linejoin:round;">
<path d="M71250 43250
L71250 43250
" />
<path d="M72250 44250
L72250 44250
" />
<path d="M72250 43250
L72250 43250
" />
<path d="M73250 44250
L73250 44250
" />
<path d="M73250 43250
L73250 43250
" />
</g>
<g style="fill:#840000; fill-opacity:0.0; 
stroke:#840000; stroke-width:0; stroke-opacity:1; 
stroke-linecap:round; stroke-linejoin:round;">
</g>
<g style="fill:#840000; fill-opacity:1.0; 
stroke:#840000; stroke-width:0; stroke-opacity:1; 
stroke-linecap:round; stroke-linejoin:round;">
<polyline style="fill-rule:evenodd;"
points="70565,46634
70565,45965
71234,45965
71234,46634
70565,46634
" /> 
</g>
<g style="fill:#840000; fill-opacity:1.0; 
stroke:#840000; stroke-width:669.291; stroke-opacity:1; 
stroke-linecap:round; stroke-linejoin:round;">
</g>
<g style="fill:#840000; fill-opacity:0.0; 
stroke:#840000; stroke-width:669.291; stroke-opacity:1; 
stroke-linecap:round; stroke-linejoin:round;">
<path d="M70900 47300
L70900 47300
" />
</g>
<g style="fill:#840000; fill-opacity:0.0; 
stroke:#840000; stroke-width:0; stroke-opacity:1; 
stroke-linecap:round; stroke-linejoin:round;">
</g>
<g style="fill:#840000; fill-opacity:1.0; 
stroke:#840000; stroke-width:0; stroke-opacity:1; 
stroke-linecap:round; stroke-linejoin:round;">
<polyline style="fill-rule:evenodd;"
points="71370,50425
71370,49952
71842,49952
71842,50425
71370,50425
" /> 
<polyline style="fill-rule:evenodd;"
points="71704,49224
71704,48594
72295,48594
72295,49224
71704,49224
" /> 
<polyline style="fill-rule:evenodd;"
points="72157,50425
72157,49952
72629,49952
72629,50425
72157,50425
" /> 
<polyline style="fill-rule:evenodd;"
points="77924,44985
77924,45614
76743,45614
76743,44985
77924,44985
" /> 
<polyline style="fill-rule:evenodd;"
points="79656,44985
79656,45614
78475,45614
78475,44985
79656,44985
" /> 
</g>
<g style="fill:#000000; fill-opacity:1.0; 
stroke:#000000; stroke-width:0; stroke-opacity:1; 
stroke-linecap:round; stroke-linejoin:round;">
</g>
<g style="fill:#840000; fill-opacity:1.0; 
stroke:#840000; stroke-width:0; stroke-opacity:1; 
stroke-linecap:round; stroke-linejoin:round;">
<polyline style="fill-rule:evenodd;"
points="78216,42822
78216,43177
78019,43177
78019,42822
78216,42822
" /> 
<polyline style="fill-rule:evenodd;"
points="77980,42822
77980,43177
77783,43177
77783,42822
77980,42822
" /> 
<polyline style="fill-rule:evenodd;"
points="79131,46831
79368,46831
79368,47442
79131,47442
79131,46831
" /> 
<polyline style="fill-rule:evenodd;"
points="78631,46831
78868,46831
78868,47442
78631,47442
78631,46831
" /> 
<polyline style="fill-rule:evenodd;"
points="78131,46831
78368,46831
78368,47442
78131,47442
78131,46831
" /> 
<polyline style="fill-rule:evenodd;"
points="77631,46831
77868,46831
77868,47442
77631,47442
77631,46831
" /> 
<polyline style="fill-rule:evenodd;"
points="77631,48957
77868,48957
77868,49568
77631,49568
77631,48957
" /> 
<polyline style="fill-rule:evenodd;"
points="78131,48957
78368,48957
78368,49568
78131,49568
78131,48957
" /> 
<polyline style="fill-rule:evenodd;"
points="78631,48957
78868,48957
78868,49568
78631,49568
78631,48957
" /> 
<polyline style="fill-rule:evenodd;"
points="79131,48957
79368,48957
79368,49568
79131,49568
79131,48957
" /> 
<polyline style="fill-rule:evenodd;"
points="78129,48292
78407,48292
78407,48570
78129,48570
78129,48292
" /> 
<polyline style="fill-rule:evenodd;"
points="78592,48292
78870,48292
78870,48570
78592,48570
78592,48292
" /> 
<polyline style="fill-rule:evenodd;"
points="78129,47829
78407,47829
78407,48107
78129,48107
78129,47829
" /> 
<polyline style="fill-rule:evenodd;"
points="78592,47829
78870,47829
78870,48107
78592,48107
78592,47829
" /> 
<polyline style="fill-rule:evenodd;"
points="72253,46212
72746,46212
72746,46803
72253,46803
72253,46212
" /> 
<polyline style="fill-rule:evenodd;"
points="72253,47196
72746,47196
72746,47787
72253,47787
72253,47196
" /> 
<polyline style="fill-rule:evenodd;"
points="73627,48771
73372,48771
73372,48102
73627,48102
73627,48771
" /> 
<polyline style="fill-rule:evenodd;"
points="74127,48771
73872,48771
73872,48102
74127,48102
74127,48771
" /> 
<polyline style="fill-rule:evenodd;"
points="74627,48771
74372,48771
74372,48102
74627,48102
74627,48771
" /> 
<polyline style="fill-rule:evenodd;"
points="75127,48771
74872,48771
74872,48102
75127,48102
75127,48771
" /> 
<polyline style="fill-rule:evenodd;"
points="75127,45897
74872,45897
74872,45228
75127,45228
75127,45897
" /> 
<polyline style="fill-rule:evenodd;"
points="74627,45897
74372,45897
74372,45228
74627,45228
74627,45897
" /> 
<polyline style="fill-rule:evenodd;"
points="74127,45897
73872,45897
73872,45228
74127,45228
74127,45897
" /> 
<polyline style="fill-rule:evenodd;"
points="73627,45897
73372,45897
73372,45228
73627,45228
73627,45897
" /> 
<polyline style="fill-rule:evenodd;"
points="77924,44985
77924,45614
76743,45614
76743,44985
77924,44985
" /> 
<polyline style="fill-rule:evenodd;"
points="79656,44985
79656,45614
78475,45614
78475,44985
79656,44985
" /> 
</g>
<g style="fill:#000000; fill-opacity:1.0; 
stroke:#000000; stroke-width:0; stroke-opacity:1; 
stroke-linecap:round; stroke-linejoin:round;">
</g>
<g style="fill:#C2C2C2; fill-opacity:1.0; 
stroke:#C2C2C2; stroke-width:0; stroke-opacity:1; 
stroke-linecap:round; stroke-linejoin:round;">
</g>
<g style="fill:#C2C2C2; fill-opacity:1.0; 
stroke:#C2C2C2; stroke-width:78.7402; stroke-opacity:1; 
stroke-linecap:round; stroke-linejoin:round;">
</g>
<g style="fill:#C2C2C2; fill-opacity:0.0; 
stroke:#C2C2C2; stroke-width:78.7402; stroke-opacity:1; 
stroke-linecap:round; stroke-linejoin:round;">
<path d="M75984 51574
L75984 41732
" />
<path d="M68503 46850
L83464 46850
" />
</g>
<g style="fill:#C2C2C2; fill-opacity:0.0; 
stroke:#C2C2C2; stroke-width:118.11; stroke-opacity:1; 
stroke-linecap:round; stroke-linejoin:round;">
<path d="M73509 53751
L73875 53751
L73678 53976
L73762 53976
L73818 54004
L73847 54032
L73875 54088
L73875 54229
L73847 54285
L73818 54313
L73762 54341
L73593 54341
L73537 54313
L73509 54285
" />
<path d="M74100 53807
L74128 53779
L74184 53751
L74325 53751
L74381 53779
L74409 53807
L74437 53863
L74437 53920
L74409 54004
L74071 54341
L74437 54341
" />
<path d="M74690 54285
L74718 54313
L74690 54341
L74662 54313
L74690 54285
L74690 54341
" />
<path d="M75084 53751
L75140 53751
L75196 53779
L75224 53807
L75253 53863
L75281 53976
L75281 54116
L75253 54229
L75224 54285
L75196 54313
L75140 54341
L75084 54341
L75028 54313
L75000 54285
L74971 54229
L74943 54116
L74943 53976
L74971 53863
L75000 53807
L75028 53779
L75084 53751
" />
<path d="M75646 53751
L75703 53751
L75759 53779
L75787 53807
L75815 53863
L75843 53976
L75843 54116
L75815 54229
L75787 54285
L75759 54313
L75703 54341
L75646 54341
L75590 54313
L75562 54285
L75534 54229
L75506 54116
L75506 53976
L75534 53863
L75562 53807
L75590 53779
L75646 53751
" />
<path d="M76209 53751
L76265 53751
L76321 53779
L76349 53807
L76377 53863
L76406 53976
L76406 54116
L76377 54229
L76349 54285
L76321 54313
L76265 54341
L76209 54341
L76152 54313
L76124 54285
L76096 54229
L76068 54116
L76068 53976
L76096 53863
L76124 53807
L76152 53779
L76209 53751
" />
<path d="M77109 54341
L77109 53948
" />
<path d="M77109 54004
L77137 53976
L77193 53948
L77277 53948
L77334 53976
L77362 54032
L77362 54341
" />
<path d="M77362 54032
L77390 53976
L77446 53948
L77530 53948
L77587 53976
L77615 54032
L77615 54341
" />
<path d="M77896 54341
L77896 53948
" />
<path d="M77896 54004
L77924 53976
L77980 53948
L78065 53948
L78121 53976
L78149 54032
L78149 54341
" />
<path d="M78149 54032
L78177 53976
L78233 53948
L78318 53948
L78374 53976
L78402 54032
L78402 54341
" />
<path d="M69685 53543
L82283 53543
" />
<path d="M69685 51181
L69685 54606
" />
<path d="M82283 51181
L82283 54606
" />
<path d="M82283 53543
L81839 53774
" />
<path d="M82283 53543
L81839 53312
" />
<path d="M69685 53543
L70128 53774
" />
<path d="M69685 53543
L70128 53312
" />
<path d="M65146 49001
L65118 48973
L65089 48917
L65089 48776
L65118 48720
L65146 48692
L65202 48664
L65258 48664
L65343 48692
L65680 49029
L65680 48664
" />
<path d="M65089 48467
L65089 48101
L65314 48298
L65314 48214
L65343 48158
L65371 48129
L65427 48101
L65568 48101
L65624 48129
L65652 48158
L65680 48214
L65680 48383
L65652 48439
L65624 48467
" />
<path d="M65624 47848
L65652 47820
L65680 47848
L65652 47876
L65624 47848
L65680 47848
" />
<path d="M65089 47286
L65089 47567
L65371 47595
L65343 47567
L65314 47511
L65314 47370
L65343 47314
L65371 47286
L65427 47258
L65568 47258
L65624 47286
L65652 47314
L65680 47370
L65680 47511
L65652 47567
L65624 47595
" />
<path d="M65089 46892
L65089 46836
L65118 46780
L65146 46751
L65202 46723
L65314 46695
L65455 46695
L65568 46723
L65624 46751
L65652 46780
L65680 46836
L65680 46892
L65652 46948
L65624 46976
L65568 47005
L65455 47033
L65314 47033
L65202 47005
L65146 46976
L65118 46948
L65089 46892
" />
<path d="M65089 46330
L65089 46273
L65118 46217
L65146 46189
L65202 46161
L65314 46133
L65455 46133
L65568 46161
L65624 46189
L65652 46217
L65680 46273
L65680 46330
L65652 46386
L65624 46414
L65568 46442
L65455 46470
L65314 46470
L65202 46442
L65146 46414
L65118 46386
L65089 46330
" />
<path d="M65680 45430
L65286 45430
" />
<path d="M65343 45430
L65314 45402
L65286 45345
L65286 45261
L65314 45205
L65371 45177
L65680 45177
" />
<path d="M65371 45177
L65314 45149
L65286 45092
L65286 45008
L65314 44952
L65371 44924
L65680 44924
" />
<path d="M65680 44642
L65286 44642
" />
<path d="M65343 44642
L65314 44614
L65286 44558
L65286 44474
L65314 44417
L65371 44389
L65680 44389
" />
<path d="M65371 44389
L65314 44361
L65286 44305
L65286 44221
L65314 44164
L65371 44136
L65680 44136
" />
<path d="M65944 51181
L65944 41929
" />
<path d="M69685 51181
L64881 51181
" />
<path d="M69685 41929
L64881 41929
" />
<path d="M65944 41929
L66175 42372
" />
<path d="M65944 41929
L65714 42372
" />
<path d="M65944 51181
L66175 50737
" />
<path d="M65944 51181
L65714 50737
" />
</g>
<g style="fill:#000000; fill-opacity:0.0; 
stroke:#000000; stroke-width:118.11; stroke-opacity:1; 
stroke-linecap:round; stroke-linejoin:round;">
</g>
<g style="fill:#C2C200; fill-opacity:0.0; 
stroke:#C2C200; stroke-width:118.11; stroke-opacity:1; 
stroke-linecap:round; stroke-linejoin:round;">
</g>
<g style="fill:#C2C200; fill-opacity:0.0; 
stroke:#C2C200; stroke-width:59.0551; stroke-opacity:1; 
stroke-linecap:round; stroke-linejoin:round;">
<path d="M81496.1 51181.1 A787.402 787.402 0.0 0 0 82283.5 50393.7 " />
<path d="M82283.5 42913.4 A787.402 787.402 0.0 0 0 81496.1 42126 " />
<path d="M70472.4 42126 A787.402 787.402 0.0 0 0 69685 42913.4 " />
<path d="M69685 50393.7 A787.402 787.402 0.0 0 0 70472.4 51181.1 " />
<path d="M69685 42913
L69685 50393
" />
<path d="M70472 42125
L81496 42125
" />
<path d="M82283 50393
L82283 42913
" />
<path d="M70472 51181
L81496 51181
" />
</g> 
</svg>
