G04 #@! TF.FileFunction,Legend,Top*
%FSLAX46Y46*%
G04 Gerber Fmt 4.6, Leading zero omitted, Abs format (unit mm)*
G04 Created by KiCad (PCBNEW 4.0.6) date 08/28/18 17:36:48*
%MOMM*%
%LPD*%
G01*
G04 APERTURE LIST*
%ADD10C,0.100000*%
%ADD11C,0.254000*%
%ADD12C,0.250000*%
%ADD13C,0.150000*%
%ADD14C,0.120000*%
%ADD15C,0.200000*%
G04 APERTURE END LIST*
D10*
D11*
X127029981Y-113665000D02*
G75*
G03X127029981Y-113665000I-283981J0D01*
G01*
D12*
X120174143Y-115609667D02*
X120650334Y-115609667D01*
X120078905Y-115895381D02*
X120412238Y-114895381D01*
X120745572Y-115895381D01*
X120936048Y-114895381D02*
X121507477Y-114895381D01*
X121221762Y-115895381D02*
X121221762Y-114895381D01*
X121697953Y-114895381D02*
X122269382Y-114895381D01*
X121983667Y-115895381D02*
X121983667Y-114895381D01*
X122602715Y-115895381D02*
X122602715Y-114895381D01*
X123078905Y-115895381D02*
X123078905Y-114895381D01*
X123650334Y-115895381D01*
X123650334Y-114895381D01*
X124317000Y-115419190D02*
X124317000Y-115895381D01*
X123983667Y-114895381D02*
X124317000Y-115419190D01*
X124650334Y-114895381D01*
X125126524Y-115323952D02*
X125031286Y-115276333D01*
X124983667Y-115228714D01*
X124936048Y-115133476D01*
X124936048Y-115085857D01*
X124983667Y-114990619D01*
X125031286Y-114943000D01*
X125126524Y-114895381D01*
X125317001Y-114895381D01*
X125412239Y-114943000D01*
X125459858Y-114990619D01*
X125507477Y-115085857D01*
X125507477Y-115133476D01*
X125459858Y-115228714D01*
X125412239Y-115276333D01*
X125317001Y-115323952D01*
X125126524Y-115323952D01*
X125031286Y-115371571D01*
X124983667Y-115419190D01*
X124936048Y-115514429D01*
X124936048Y-115704905D01*
X124983667Y-115800143D01*
X125031286Y-115847762D01*
X125126524Y-115895381D01*
X125317001Y-115895381D01*
X125412239Y-115847762D01*
X125459858Y-115800143D01*
X125507477Y-115704905D01*
X125507477Y-115514429D01*
X125459858Y-115419190D01*
X125412239Y-115371571D01*
X125317001Y-115323952D01*
X126364620Y-115228714D02*
X126364620Y-115895381D01*
X126126524Y-114847762D02*
X125888429Y-115562048D01*
X126507477Y-115562048D01*
D10*
X130683000Y-116078000D02*
X132080000Y-116078000D01*
X132080000Y-116078000D02*
X132080000Y-117094000D01*
X132080000Y-117094000D02*
X130683000Y-117094000D01*
X130964000Y-116436000D02*
X130964000Y-116736000D01*
X131164000Y-116586000D02*
X130964000Y-116436000D01*
X131164000Y-116586000D02*
X130964000Y-116736000D01*
X128143000Y-121031000D02*
X129159000Y-121031000D01*
X129159000Y-121031000D02*
X129159000Y-120269000D01*
X129159000Y-120269000D02*
X128143000Y-120269000D01*
D13*
X115108000Y-110490000D02*
X115258000Y-110490000D01*
X114258000Y-110490000D02*
X114608000Y-110490000D01*
X114558000Y-110490000D02*
X115108000Y-109940000D01*
X115108000Y-109940000D02*
X115108000Y-111040000D01*
X115108000Y-111040000D02*
X114558000Y-110490000D01*
X114458000Y-110140000D02*
X114458000Y-109990000D01*
X114458000Y-110840000D02*
X114458000Y-110990000D01*
X113208000Y-111240000D02*
X115908000Y-111240000D01*
X113208000Y-109740000D02*
X115908000Y-109740000D01*
X114458000Y-110140000D02*
X114458000Y-110840000D01*
X125684000Y-109474000D02*
X125534000Y-109474000D01*
X126534000Y-109474000D02*
X126184000Y-109474000D01*
X126234000Y-109474000D02*
X125684000Y-110024000D01*
X125684000Y-110024000D02*
X125684000Y-108924000D01*
X125684000Y-108924000D02*
X126234000Y-109474000D01*
X126334000Y-109824000D02*
X126334000Y-109974000D01*
X126334000Y-109124000D02*
X126334000Y-108974000D01*
X127584000Y-108724000D02*
X124884000Y-108724000D01*
X127584000Y-110224000D02*
X124884000Y-110224000D01*
X126334000Y-109824000D02*
X126334000Y-109124000D01*
X130864000Y-107950000D02*
X130714000Y-107950000D01*
X131414000Y-107950000D02*
X131214000Y-107950000D01*
X131164000Y-107950000D02*
X130864000Y-108300000D01*
X130864000Y-108300000D02*
X130864000Y-107600000D01*
X130864000Y-107600000D02*
X131264000Y-107950000D01*
X131264000Y-107950000D02*
X131214000Y-107950000D01*
X131264000Y-108350000D02*
X131264000Y-107600000D01*
X132164000Y-107400000D02*
X130264000Y-107400000D01*
X132164000Y-108500000D02*
X130264000Y-108500000D01*
X114208000Y-107583000D02*
X115408000Y-107583000D01*
X115408000Y-109333000D02*
X114208000Y-109333000D01*
X121504000Y-110349000D02*
X120304000Y-110349000D01*
X120304000Y-108599000D02*
X121504000Y-108599000D01*
X131564000Y-110149000D02*
X130564000Y-110149000D01*
X130564000Y-108799000D02*
X131564000Y-108799000D01*
X128639000Y-121226000D02*
X128409000Y-121226000D01*
X128409000Y-122106000D02*
X128639000Y-122106000D01*
X132388000Y-112522000D02*
X132238000Y-112522000D01*
X132938000Y-112522000D02*
X132738000Y-112522000D01*
X132688000Y-112522000D02*
X132388000Y-112872000D01*
X132388000Y-112872000D02*
X132388000Y-112172000D01*
X132388000Y-112172000D02*
X132788000Y-112522000D01*
X132788000Y-112522000D02*
X132738000Y-112522000D01*
X132788000Y-112922000D02*
X132788000Y-112172000D01*
X133688000Y-111972000D02*
X131788000Y-111972000D01*
X133688000Y-113072000D02*
X131788000Y-113072000D01*
X133088000Y-114721000D02*
X132088000Y-114721000D01*
X132088000Y-113371000D02*
X133088000Y-113371000D01*
X131314000Y-117585000D02*
X130814000Y-117585000D01*
X130814000Y-118635000D02*
X131314000Y-118635000D01*
X123055000Y-121982000D02*
X123055000Y-121882000D01*
X123055000Y-123382000D02*
X123055000Y-123482000D01*
X122255000Y-122682000D02*
X121955000Y-122682000D01*
X122255000Y-121882000D02*
X122255000Y-123382000D01*
X122255000Y-123382000D02*
X122255000Y-123482000D01*
X122355000Y-121982000D02*
X122255000Y-121882000D01*
X122355000Y-123382000D02*
X122255000Y-123482000D01*
X123255000Y-122682000D02*
X123055000Y-122682000D01*
X123055000Y-122182000D02*
X123055000Y-121982000D01*
X123055000Y-123182000D02*
X123055000Y-123382000D01*
X122955000Y-122682000D02*
X122355000Y-121982000D01*
X122355000Y-123382000D02*
X122955000Y-122782000D01*
X124705000Y-121632000D02*
X121105000Y-121632000D01*
X124705000Y-123732000D02*
X121105000Y-123732000D01*
X123055000Y-123182000D02*
X123055000Y-122182000D01*
X123428000Y-121217000D02*
X121428000Y-121217000D01*
X121428000Y-119067000D02*
X123428000Y-119067000D01*
X114816000Y-118302000D02*
X114816000Y-118402000D01*
X114816000Y-116902000D02*
X114816000Y-116802000D01*
X115616000Y-117602000D02*
X115916000Y-117602000D01*
X115616000Y-118402000D02*
X115616000Y-116902000D01*
X115616000Y-116902000D02*
X115616000Y-116802000D01*
X115516000Y-118302000D02*
X115616000Y-118402000D01*
X115516000Y-116902000D02*
X115616000Y-116802000D01*
X114616000Y-117602000D02*
X114816000Y-117602000D01*
X114816000Y-118102000D02*
X114816000Y-118302000D01*
X114816000Y-117102000D02*
X114816000Y-116902000D01*
X114916000Y-117602000D02*
X115516000Y-118302000D01*
X115516000Y-116902000D02*
X114916000Y-117502000D01*
X113166000Y-118652000D02*
X116766000Y-118652000D01*
X113166000Y-116552000D02*
X116766000Y-116552000D01*
X114816000Y-117102000D02*
X114816000Y-118102000D01*
X114316000Y-113987000D02*
X116316000Y-113987000D01*
X116316000Y-116137000D02*
X114316000Y-116137000D01*
D14*
X128520000Y-112030000D02*
X128520000Y-114030000D01*
X130560000Y-114030000D02*
X130560000Y-112030000D01*
D13*
X127640000Y-112860000D02*
X127615000Y-112860000D01*
X127640000Y-117010000D02*
X127525000Y-117010000D01*
X118740000Y-117010000D02*
X118855000Y-117010000D01*
X118740000Y-112860000D02*
X118855000Y-112860000D01*
X127640000Y-112860000D02*
X127640000Y-117010000D01*
X118740000Y-112860000D02*
X118740000Y-117010000D01*
X127615000Y-112860000D02*
X127615000Y-111485000D01*
X114681000Y-108802714D02*
X114427000Y-108439857D01*
X114245572Y-108802714D02*
X114245572Y-108040714D01*
X114535857Y-108040714D01*
X114608429Y-108077000D01*
X114644714Y-108113286D01*
X114681000Y-108185857D01*
X114681000Y-108294714D01*
X114644714Y-108367286D01*
X114608429Y-108403571D01*
X114535857Y-108439857D01*
X114245572Y-108439857D01*
X114935000Y-108040714D02*
X115406714Y-108040714D01*
X115152714Y-108331000D01*
X115261572Y-108331000D01*
X115334143Y-108367286D01*
X115370429Y-108403571D01*
X115406714Y-108476143D01*
X115406714Y-108657571D01*
X115370429Y-108730143D01*
X115334143Y-108766429D01*
X115261572Y-108802714D01*
X115043857Y-108802714D01*
X114971286Y-108766429D01*
X114935000Y-108730143D01*
X120777000Y-109818714D02*
X120523000Y-109455857D01*
X120341572Y-109818714D02*
X120341572Y-109056714D01*
X120631857Y-109056714D01*
X120704429Y-109093000D01*
X120740714Y-109129286D01*
X120777000Y-109201857D01*
X120777000Y-109310714D01*
X120740714Y-109383286D01*
X120704429Y-109419571D01*
X120631857Y-109455857D01*
X120341572Y-109455857D01*
X121430143Y-109310714D02*
X121430143Y-109818714D01*
X121248714Y-109020429D02*
X121067286Y-109564714D01*
X121539000Y-109564714D01*
X130937000Y-109818714D02*
X130683000Y-109455857D01*
X130501572Y-109818714D02*
X130501572Y-109056714D01*
X130791857Y-109056714D01*
X130864429Y-109093000D01*
X130900714Y-109129286D01*
X130937000Y-109201857D01*
X130937000Y-109310714D01*
X130900714Y-109383286D01*
X130864429Y-109419571D01*
X130791857Y-109455857D01*
X130501572Y-109455857D01*
X131626429Y-109056714D02*
X131263572Y-109056714D01*
X131227286Y-109419571D01*
X131263572Y-109383286D01*
X131336143Y-109347000D01*
X131517572Y-109347000D01*
X131590143Y-109383286D01*
X131626429Y-109419571D01*
X131662714Y-109492143D01*
X131662714Y-109673571D01*
X131626429Y-109746143D01*
X131590143Y-109782429D01*
X131517572Y-109818714D01*
X131336143Y-109818714D01*
X131263572Y-109782429D01*
X131227286Y-109746143D01*
X132461000Y-114390714D02*
X132207000Y-114027857D01*
X132025572Y-114390714D02*
X132025572Y-113628714D01*
X132315857Y-113628714D01*
X132388429Y-113665000D01*
X132424714Y-113701286D01*
X132461000Y-113773857D01*
X132461000Y-113882714D01*
X132424714Y-113955286D01*
X132388429Y-113991571D01*
X132315857Y-114027857D01*
X132025572Y-114027857D01*
X133114143Y-113628714D02*
X132969000Y-113628714D01*
X132896429Y-113665000D01*
X132860143Y-113701286D01*
X132787572Y-113810143D01*
X132751286Y-113955286D01*
X132751286Y-114245571D01*
X132787572Y-114318143D01*
X132823857Y-114354429D01*
X132896429Y-114390714D01*
X133041572Y-114390714D01*
X133114143Y-114354429D01*
X133150429Y-114318143D01*
X133186714Y-114245571D01*
X133186714Y-114064143D01*
X133150429Y-113991571D01*
X133114143Y-113955286D01*
X133041572Y-113919000D01*
X132896429Y-113919000D01*
X132823857Y-113955286D01*
X132787572Y-113991571D01*
X132751286Y-114064143D01*
D15*
X122219667Y-120707476D02*
X121803000Y-120112238D01*
X121505381Y-120707476D02*
X121505381Y-119457476D01*
X121981572Y-119457476D01*
X122100619Y-119517000D01*
X122160143Y-119576524D01*
X122219667Y-119695571D01*
X122219667Y-119874143D01*
X122160143Y-119993190D01*
X122100619Y-120052714D01*
X121981572Y-120112238D01*
X121505381Y-120112238D01*
X123410143Y-120707476D02*
X122695857Y-120707476D01*
X123053000Y-120707476D02*
X123053000Y-119457476D01*
X122933952Y-119636048D01*
X122814905Y-119755095D01*
X122695857Y-119814619D01*
X115107667Y-115627476D02*
X114691000Y-115032238D01*
X114393381Y-115627476D02*
X114393381Y-114377476D01*
X114869572Y-114377476D01*
X114988619Y-114437000D01*
X115048143Y-114496524D01*
X115107667Y-114615571D01*
X115107667Y-114794143D01*
X115048143Y-114913190D01*
X114988619Y-114972714D01*
X114869572Y-115032238D01*
X114393381Y-115032238D01*
X115583857Y-114496524D02*
X115643381Y-114437000D01*
X115762429Y-114377476D01*
X116060048Y-114377476D01*
X116179095Y-114437000D01*
X116238619Y-114496524D01*
X116298143Y-114615571D01*
X116298143Y-114734619D01*
X116238619Y-114913190D01*
X115524333Y-115627476D01*
X116298143Y-115627476D01*
D13*
X129373334Y-113387143D02*
X129325715Y-113434762D01*
X129182858Y-113482381D01*
X129087620Y-113482381D01*
X128944762Y-113434762D01*
X128849524Y-113339524D01*
X128801905Y-113244286D01*
X128754286Y-113053810D01*
X128754286Y-112910952D01*
X128801905Y-112720476D01*
X128849524Y-112625238D01*
X128944762Y-112530000D01*
X129087620Y-112482381D01*
X129182858Y-112482381D01*
X129325715Y-112530000D01*
X129373334Y-112577619D01*
X130325715Y-113482381D02*
X129754286Y-113482381D01*
X130040000Y-113482381D02*
X130040000Y-112482381D01*
X129944762Y-112625238D01*
X129849524Y-112720476D01*
X129754286Y-112768095D01*
X120142095Y-113371381D02*
X120142095Y-114180905D01*
X120189714Y-114276143D01*
X120237333Y-114323762D01*
X120332571Y-114371381D01*
X120523048Y-114371381D01*
X120618286Y-114323762D01*
X120665905Y-114276143D01*
X120713524Y-114180905D01*
X120713524Y-113371381D01*
X121713524Y-114371381D02*
X121142095Y-114371381D01*
X121427809Y-114371381D02*
X121427809Y-113371381D01*
X121332571Y-113514238D01*
X121237333Y-113609476D01*
X121142095Y-113657095D01*
M02*
