G04 #@! TF.GenerationSoftware,KiCad,Pcbnew,(5.1.10)-1*
G04 #@! TF.CreationDate,2021-09-22T19:22:54-07:00*
G04 #@! TF.ProjectId,HW_IR Featherwing,48575f49-5220-4466-9561-746865727769,rev?*
G04 #@! TF.SameCoordinates,Original*
G04 #@! TF.FileFunction,Soldermask,Bot*
G04 #@! TF.FilePolarity,Negative*
%FSLAX46Y46*%
G04 Gerber Fmt 4.6, Leading zero omitted, Abs format (unit mm)*
G04 Created by KiCad (PCBNEW (5.1.10)-1) date 2021-09-22 19:22:54*
%MOMM*%
%LPD*%
G01*
G04 APERTURE LIST*
%ADD10C,1.740000*%
%ADD11R,1.700000X1.700000*%
%ADD12O,1.700000X1.700000*%
%ADD13O,0.800000X1.300000*%
%ADD14C,2.700000*%
%ADD15R,1.800000X1.800000*%
%ADD16C,1.800000*%
%ADD17C,2.000000*%
G04 APERTURE END LIST*
D10*
X27940000Y-39370000D03*
X27940000Y-36830000D03*
G36*
G01*
X27319999Y-33420000D02*
X28560001Y-33420000D01*
G75*
G02*
X28810000Y-33669999I0J-249999D01*
G01*
X28810000Y-34910001D01*
G75*
G02*
X28560001Y-35160000I-249999J0D01*
G01*
X27319999Y-35160000D01*
G75*
G02*
X27070000Y-34910001I0J249999D01*
G01*
X27070000Y-33669999D01*
G75*
G02*
X27319999Y-33420000I249999J0D01*
G01*
G37*
G36*
G01*
X47525000Y-34380000D02*
X47725000Y-34380000D01*
G75*
G02*
X47825000Y-34480000I0J-100000D01*
G01*
X47825000Y-34740000D01*
G75*
G02*
X47725000Y-34840000I-100000J0D01*
G01*
X47525000Y-34840000D01*
G75*
G02*
X47425000Y-34740000I0J100000D01*
G01*
X47425000Y-34480000D01*
G75*
G02*
X47525000Y-34380000I100000J0D01*
G01*
G37*
G36*
G01*
X47525000Y-33740000D02*
X47725000Y-33740000D01*
G75*
G02*
X47825000Y-33840000I0J-100000D01*
G01*
X47825000Y-34100000D01*
G75*
G02*
X47725000Y-34200000I-100000J0D01*
G01*
X47525000Y-34200000D01*
G75*
G02*
X47425000Y-34100000I0J100000D01*
G01*
X47425000Y-33840000D01*
G75*
G02*
X47525000Y-33740000I100000J0D01*
G01*
G37*
D11*
X69850000Y-26670000D03*
D12*
X67310000Y-26670000D03*
X64770000Y-26670000D03*
X62230000Y-26670000D03*
X59690000Y-26670000D03*
X57150000Y-26670000D03*
X54610000Y-26670000D03*
X52070000Y-26670000D03*
X49530000Y-26670000D03*
X46990000Y-26670000D03*
X44450000Y-26670000D03*
X41910000Y-26670000D03*
D13*
X47418000Y-38100000D03*
X46168000Y-38100000D03*
X44918000Y-38100000D03*
X43668000Y-38100000D03*
G36*
G01*
X42018000Y-38550000D02*
X42018000Y-37650000D01*
G75*
G02*
X42218000Y-37450000I200000J0D01*
G01*
X42618000Y-37450000D01*
G75*
G02*
X42818000Y-37650000I0J-200000D01*
G01*
X42818000Y-38550000D01*
G75*
G02*
X42618000Y-38750000I-200000J0D01*
G01*
X42218000Y-38750000D01*
G75*
G02*
X42018000Y-38550000I0J200000D01*
G01*
G37*
D14*
X73660000Y-27940000D03*
X73660000Y-45720000D03*
X27940000Y-45720000D03*
X27940000Y-27940000D03*
D11*
X69850000Y-46990000D03*
D12*
X67310000Y-46990000D03*
X64770000Y-46990000D03*
X62230000Y-46990000D03*
X59690000Y-46990000D03*
X57150000Y-46990000D03*
X54610000Y-46990000D03*
X52070000Y-46990000D03*
X49530000Y-46990000D03*
X46990000Y-46990000D03*
X44450000Y-46990000D03*
X41910000Y-46990000D03*
X39370000Y-46990000D03*
X36830000Y-46990000D03*
X34290000Y-46990000D03*
X31750000Y-46990000D03*
D15*
X72390000Y-36322000D03*
D16*
X74930000Y-36322000D03*
D17*
X61976000Y-34726000D03*
X61976000Y-30226000D03*
X68476000Y-34726000D03*
X68476000Y-30226000D03*
G36*
G01*
X51162000Y-38550000D02*
X51162000Y-37650000D01*
G75*
G02*
X51362000Y-37450000I200000J0D01*
G01*
X51762000Y-37450000D01*
G75*
G02*
X51962000Y-37650000I0J-200000D01*
G01*
X51962000Y-38550000D01*
G75*
G02*
X51762000Y-38750000I-200000J0D01*
G01*
X51362000Y-38750000D01*
G75*
G02*
X51162000Y-38550000I0J200000D01*
G01*
G37*
D13*
X52812000Y-38100000D03*
X54062000Y-38100000D03*
X55312000Y-38100000D03*
X56562000Y-38100000D03*
X57812000Y-38100000D03*
X68226000Y-38100000D03*
X66976000Y-38100000D03*
X65726000Y-38100000D03*
X64476000Y-38100000D03*
X63226000Y-38100000D03*
G36*
G01*
X61576000Y-38550000D02*
X61576000Y-37650000D01*
G75*
G02*
X61776000Y-37450000I200000J0D01*
G01*
X62176000Y-37450000D01*
G75*
G02*
X62376000Y-37650000I0J-200000D01*
G01*
X62376000Y-38550000D01*
G75*
G02*
X62176000Y-38750000I-200000J0D01*
G01*
X61776000Y-38750000D01*
G75*
G02*
X61576000Y-38550000I0J200000D01*
G01*
G37*
G36*
G01*
X32874000Y-38550000D02*
X32874000Y-37650000D01*
G75*
G02*
X33074000Y-37450000I200000J0D01*
G01*
X33474000Y-37450000D01*
G75*
G02*
X33674000Y-37650000I0J-200000D01*
G01*
X33674000Y-38550000D01*
G75*
G02*
X33474000Y-38750000I-200000J0D01*
G01*
X33074000Y-38750000D01*
G75*
G02*
X32874000Y-38550000I0J200000D01*
G01*
G37*
X34524000Y-38100000D03*
X35774000Y-38100000D03*
X37024000Y-38100000D03*
X38274000Y-38100000D03*
M02*
