%MOIN*%
%OFA0B0*%
%FSLAX46Y46*%
%IPPOS*%
%LPD*%
%ADD10C,0.0039370078740157488*%
%ADD11C,0.19685039370078741*%
%ADD12C,0.70000000000000007*%
%ADD13R,0.1X0.2*%
%ADD14C,0.062992125984251982*%
%ADD15C,0.062992125984251982*%
%ADD16C,0.027*%
%ADD17C,0.016*%
%ADD18C,0.012000000000000002*%
%ADD19C,0.0078740157480314977*%
%ADD30C,0.0039370078740157488*%
%ADD31C,0.19685039370078741*%
%ADD32C,0.70000000000000007*%
%ADD33R,0.1X0.2*%
%ADD34C,0.062992125984251982*%
%ADD35C,0.062992125984251982*%
%ADD36C,0.027*%
%ADD37C,0.016*%
%ADD38C,0.012000000000000002*%
%ADD39C,0.0078740157480314977*%
%ADD40C,0.0039370078740157488*%
%ADD41C,0.19685039370078741*%
%ADD42C,0.70000000000000007*%
%ADD43R,0.1X0.2*%
%ADD44C,0.062992125984251982*%
%ADD45C,0.062992125984251982*%
%ADD46C,0.027*%
%ADD47C,0.016*%
%ADD48C,0.012000000000000002*%
%ADD49C,0.0078740157480314977*%
%ADD50C,0.0039370078740157488*%
%ADD51C,0.19685039370078741*%
%ADD52C,0.70000000000000007*%
%ADD53R,0.1X0.2*%
%ADD54C,0.062992125984251982*%
%ADD55C,0.062992125984251982*%
%ADD56C,0.027*%
%ADD57C,0.016*%
%ADD58C,0.012000000000000002*%
%ADD59C,0.0078740157480314977*%
%ADD60C,0.0039370078740157488*%
%ADD61C,0.19685039370078741*%
%ADD62C,0.70000000000000007*%
%ADD63R,0.1X0.2*%
%ADD64C,0.062992125984251982*%
%ADD65C,0.062992125984251982*%
%ADD66C,0.027*%
%ADD67C,0.016*%
%ADD68C,0.012000000000000002*%
%ADD69C,0.0078740157480314977*%
%ADD70C,0.0039370078740157488*%
%ADD71C,0.19685039370078741*%
%ADD72C,0.70000000000000007*%
%ADD73R,0.1X0.2*%
%ADD74C,0.062992125984251982*%
%ADD75C,0.062992125984251982*%
%ADD76C,0.027*%
%ADD77C,0.016*%
%ADD78C,0.012000000000000002*%
%ADD79C,0.0078740157480314977*%
%ADD80C,0.0039370078740157488*%
%ADD81C,0.19685039370078741*%
%ADD82C,0.70000000000000007*%
%ADD83R,0.1X0.2*%
%ADD84C,0.062992125984251982*%
%ADD85C,0.062992125984251982*%
%ADD86C,0.027*%
%ADD87C,0.016*%
%ADD88C,0.012000000000000002*%
%ADD89C,0.0078740157480314977*%
%ADD90C,0.0039370078740157488*%
%ADD91C,0.19685039370078741*%
%ADD92C,0.70000000000000007*%
%ADD93R,0.1X0.2*%
%ADD94C,0.062992125984251982*%
%ADD95C,0.062992125984251982*%
%ADD96C,0.027*%
%ADD97C,0.016*%
%ADD98C,0.012000000000000002*%
%ADD99C,0.0078740157480314977*%
%ADD100C,0.0039370078740157488*%
%ADD101C,0.19685039370078741*%
%ADD102C,0.70000000000000007*%
%ADD103R,0.1X0.2*%
%ADD104C,0.062992125984251982*%
%ADD105C,0.062992125984251982*%
%ADD106C,0.027*%
%ADD107C,0.016*%
%ADD108C,0.012000000000000002*%
%ADD109C,0.0078740157480314977*%
G01*
D10*
D11*
X-0007591779Y0004208262D02*
X0000608220Y0001058262D03*
D12*
X0000608220Y0000408262D03*
D13*
X0001058220Y0000408262D03*
X0000158220Y0000408262D03*
D10*
G36*
X0000958220Y0000813720D02*
X0000913677Y0000858262D01*
X0000958220Y0000902804D01*
X0001002762Y0000858262D01*
X0000958220Y0000813720D01*
X0000958220Y0000813720D01*
G37*
D14*
X0001028930Y0000928972D03*
D15*
X0000887509Y0000928972D02*
X0000887509Y0000928972D01*
X0000958220Y0000999683D02*
X0000958220Y0000999683D01*
X0000816798Y0000999683D02*
X0000816798Y0000999683D01*
X0000887509Y0001070394D02*
X0000887509Y0001070394D01*
D10*
G36*
X0000226718Y0000677163D02*
X0000157121Y0000746760D01*
X0000190527Y0000780167D01*
X0000260124Y0000710569D01*
X0000226718Y0000677163D01*
X0000226718Y0000677163D01*
G37*
G36*
X0000297428Y0000747873D02*
X0000227831Y0000817471D01*
X0000261238Y0000850877D01*
X0000330835Y0000781280D01*
X0000297428Y0000747873D01*
X0000297428Y0000747873D01*
G37*
G36*
X0000365912Y0000816357D02*
X0000296315Y0000885954D01*
X0000329722Y0000919361D01*
X0000399319Y0000849764D01*
X0000365912Y0000816357D01*
X0000365912Y0000816357D01*
G37*
D16*
X0000233220Y0000208262D03*
X0000958220Y0000183262D03*
X0000398220Y0001048262D03*
X0001108220Y0000638262D03*
X0000958220Y0000638262D03*
X0000908220Y0000638262D03*
X0001008220Y0000638262D03*
X0000168220Y0000978262D03*
D17*
X0000608220Y0001058262D02*
X0000658220Y0001058262D01*
X0000658220Y0001058262D02*
X0000708220Y0001108262D01*
X0000849641Y0001108262D02*
X0000887509Y0001070394D01*
X0000708220Y0001108262D02*
X0000849641Y0001108262D01*
X0000608220Y0000408262D02*
X0000433220Y0000408262D01*
X0000433220Y0000408262D02*
X0000233220Y0000208262D01*
X0000608220Y0000408262D02*
X0000733220Y0000408262D01*
X0000733220Y0000408262D02*
X0000958220Y0000183262D01*
X0000438220Y0000958262D02*
X0000347817Y0000867859D01*
X0000438220Y0001008262D02*
X0000438220Y0000958262D01*
X0000398220Y0001048262D02*
X0000438220Y0001008262D01*
X0000347817Y0000868665D02*
X0000347817Y0000867859D01*
X0001083220Y0000683262D02*
X0001083220Y0000663262D01*
X0001083220Y0000683262D02*
X0001083220Y0000874683D01*
X0001028930Y0000928972D02*
X0001083220Y0000874683D01*
X0001083220Y0000663262D02*
X0001108220Y0000638262D01*
X0000368220Y0000850489D02*
X0000334333Y0000884375D01*
X0000332106Y0000884375D02*
X0000334333Y0000884375D01*
D18*
X0000958220Y0000638262D02*
X0000958220Y0000858262D01*
X0000888220Y0000678262D02*
X0000887509Y0000678972D01*
X0000888220Y0000658262D02*
X0000888220Y0000678262D01*
X0000908220Y0000638262D02*
X0000888220Y0000658262D01*
X0000887509Y0000678972D02*
X0000887509Y0000928972D01*
X0001008220Y0000883262D02*
X0001033220Y0000858262D01*
X0001008220Y0000883262D02*
X0000958220Y0000933262D01*
X0000958220Y0000999683D02*
X0000958220Y0000933262D01*
X0001033220Y0000683262D02*
X0001008220Y0000638262D01*
X0001033220Y0000758262D02*
X0001033220Y0000683262D01*
X0001033220Y0000858262D02*
X0001033220Y0000758262D01*
X0000725377Y0000908262D02*
X0000816798Y0000999683D01*
X0000518220Y0000908262D02*
X0000725377Y0000908262D01*
X0000398220Y0000788262D02*
X0000518220Y0000908262D01*
X0000358220Y0000788262D02*
X0000398220Y0000788262D01*
X0000168220Y0000978262D02*
X0000358220Y0000788262D01*
D17*
X0000158220Y0000558262D02*
X0000168220Y0000558262D01*
X0000158220Y0000408262D02*
X0000158220Y0000558262D01*
X0000318220Y0000760489D02*
X0000279333Y0000799375D01*
X0000318220Y0000708262D02*
X0000318220Y0000760489D01*
X0000168220Y0000558262D02*
X0000318220Y0000708262D01*
D19*
G36*
X0000919851Y0001029477D02*
X0000912071Y0001017834D01*
X0000908325Y0000999001D01*
X0000912071Y0000980169D01*
X0000922236Y0000964956D01*
X0000907024Y0000975121D01*
X0000888191Y0000978867D01*
X0000869358Y0000975121D01*
X0000853392Y0000964453D01*
X0000852029Y0000963089D01*
X0000841361Y0000947124D01*
X0000837615Y0000928291D01*
X0000841361Y0000909458D01*
X0000852029Y0000893492D01*
X0000863792Y0000885632D01*
X0000863792Y0000683407D01*
X0000827387Y0000720235D01*
X0000691317Y0000780359D01*
X0000542596Y0000783835D01*
X0000403866Y0000730133D01*
X0000389052Y0000720235D01*
X0000347179Y0000677876D01*
X0000608220Y0000416836D01*
X0000608776Y0000417393D01*
X0000617351Y0000408819D01*
X0000616794Y0000408262D01*
X0000877834Y0000147222D01*
X0000920193Y0000189095D01*
X0000980317Y0000325164D01*
X0000983792Y0000473885D01*
X0000930091Y0000612615D01*
X0000928740Y0000614638D01*
X0000933225Y0000619115D01*
X0000940514Y0000611813D01*
X0000951983Y0000607051D01*
X0000964402Y0000607040D01*
X0000975879Y0000611782D01*
X0000983225Y0000619115D01*
X0000990514Y0000611813D01*
X0001001983Y0000607051D01*
X0001014402Y0000607040D01*
X0001025879Y0000611782D01*
X0001034668Y0000620556D01*
X0001039431Y0000632025D01*
X0001039442Y0000644444D01*
X0001039162Y0000645122D01*
X0001053952Y0000671744D01*
X0001054370Y0000673047D01*
X0001055131Y0000674186D01*
X0001055774Y0000677418D01*
X0001056781Y0000680555D01*
X0001056669Y0000681919D01*
X0001056936Y0000683262D01*
X0001056936Y0000858262D01*
X0001055363Y0000866171D01*
X0001057503Y0000864031D01*
X0001057503Y0000663262D01*
X0001059461Y0000653420D01*
X0001065035Y0000645077D01*
X0001076999Y0000633114D01*
X0001076998Y0000632080D01*
X0001081740Y0000620602D01*
X0001090514Y0000611813D01*
X0001101983Y0000607051D01*
X0001114402Y0000607040D01*
X0001125879Y0000611782D01*
X0001134668Y0000620556D01*
X0001139431Y0000632025D01*
X0001139442Y0000644444D01*
X0001134699Y0000655921D01*
X0001125925Y0000664710D01*
X0001114456Y0000669473D01*
X0001113376Y0000669474D01*
X0001108936Y0000673914D01*
X0001108936Y0000874683D01*
X0001106979Y0000884524D01*
X0001101404Y0000892867D01*
X0001077253Y0000917018D01*
X0001078134Y0000919141D01*
X0001078151Y0000938719D01*
X0001072391Y0000952660D01*
X0001152007Y0000833506D01*
X0001196811Y0000608262D01*
X0001152007Y0000383018D01*
X0001126283Y0000344519D01*
X0001126283Y0000508262D01*
X0001125048Y0000514827D01*
X0001121168Y0000520857D01*
X0001115247Y0000524902D01*
X0001108220Y0000526325D01*
X0001008220Y0000526325D01*
X0001001654Y0000525090D01*
X0000995624Y0000521210D01*
X0000991579Y0000515290D01*
X0000990156Y0000508262D01*
X0000990156Y0000308262D01*
X0000991391Y0000301696D01*
X0000995272Y0000295667D01*
X0001001192Y0000291621D01*
X0001008220Y0000290198D01*
X0001089987Y0000290198D01*
X0001024417Y0000192065D01*
X0000833464Y0000064474D01*
X0000674029Y0000032761D01*
X0000812573Y0000086391D01*
X0000827387Y0000096289D01*
X0000869260Y0000138647D01*
X0000608220Y0000399687D01*
X0000347179Y0000138647D01*
X0000389052Y0000096289D01*
X0000524979Y0000036228D01*
X0000382976Y0000064474D01*
X0000192023Y0000192065D01*
X0000126452Y0000290198D01*
X0000208220Y0000290198D01*
X0000214785Y0000291434D01*
X0000220815Y0000295314D01*
X0000224860Y0000301234D01*
X0000226283Y0000308262D01*
X0000226283Y0000342638D01*
X0000232647Y0000342638D01*
X0000286349Y0000203908D01*
X0000296247Y0000189095D01*
X0000338605Y0000147222D01*
X0000599645Y0000408262D01*
X0000338605Y0000669302D01*
X0000296247Y0000627429D01*
X0000236123Y0000491359D01*
X0000232647Y0000342638D01*
X0000226283Y0000342638D01*
X0000226283Y0000508262D01*
X0000225048Y0000514827D01*
X0000221168Y0000520857D01*
X0000215247Y0000524902D01*
X0000208220Y0000526325D01*
X0000183936Y0000526325D01*
X0000183936Y0000538429D01*
X0000186404Y0000540077D01*
X0000336404Y0000690077D01*
X0000338426Y0000693103D01*
X0000341979Y0000698420D01*
X0000343936Y0000708262D01*
X0000343936Y0000760489D01*
X0000342551Y0000767451D01*
X0000343608Y0000768507D01*
X0000344331Y0000769566D01*
X0000349144Y0000766351D01*
X0000358220Y0000764545D01*
X0000398220Y0000764545D01*
X0000407296Y0000766351D01*
X0000414990Y0000771492D01*
X0000528043Y0000884545D01*
X0000725377Y0000884545D01*
X0000734453Y0000886351D01*
X0000742147Y0000891492D01*
X0000803044Y0000952389D01*
X0000816117Y0000949789D01*
X0000834949Y0000953535D01*
X0000850915Y0000964203D01*
X0000852279Y0000965566D01*
X0000862947Y0000981532D01*
X0000866693Y0001000365D01*
X0000862947Y0001019198D01*
X0000861241Y0001021750D01*
X0000872901Y0001016920D01*
X0000894477Y0001015400D01*
X0000914991Y0001022252D01*
X0000917953Y0001031376D01*
X0000919851Y0001029477D01*
X0000919851Y0001029477D01*
G37*
X0000919851Y0001029477D02*
X0000912071Y0001017834D01*
X0000908325Y0000999001D01*
X0000912071Y0000980169D01*
X0000922236Y0000964956D01*
X0000907024Y0000975121D01*
X0000888191Y0000978867D01*
X0000869358Y0000975121D01*
X0000853392Y0000964453D01*
X0000852029Y0000963089D01*
X0000841361Y0000947124D01*
X0000837615Y0000928291D01*
X0000841361Y0000909458D01*
X0000852029Y0000893492D01*
X0000863792Y0000885632D01*
X0000863792Y0000683407D01*
X0000827387Y0000720235D01*
X0000691317Y0000780359D01*
X0000542596Y0000783835D01*
X0000403866Y0000730133D01*
X0000389052Y0000720235D01*
X0000347179Y0000677876D01*
X0000608220Y0000416836D01*
X0000608776Y0000417393D01*
X0000617351Y0000408819D01*
X0000616794Y0000408262D01*
X0000877834Y0000147222D01*
X0000920193Y0000189095D01*
X0000980317Y0000325164D01*
X0000983792Y0000473885D01*
X0000930091Y0000612615D01*
X0000928740Y0000614638D01*
X0000933225Y0000619115D01*
X0000940514Y0000611813D01*
X0000951983Y0000607051D01*
X0000964402Y0000607040D01*
X0000975879Y0000611782D01*
X0000983225Y0000619115D01*
X0000990514Y0000611813D01*
X0001001983Y0000607051D01*
X0001014402Y0000607040D01*
X0001025879Y0000611782D01*
X0001034668Y0000620556D01*
X0001039431Y0000632025D01*
X0001039442Y0000644444D01*
X0001039162Y0000645122D01*
X0001053952Y0000671744D01*
X0001054370Y0000673047D01*
X0001055131Y0000674186D01*
X0001055774Y0000677418D01*
X0001056781Y0000680555D01*
X0001056669Y0000681919D01*
X0001056936Y0000683262D01*
X0001056936Y0000858262D01*
X0001055363Y0000866171D01*
X0001057503Y0000864031D01*
X0001057503Y0000663262D01*
X0001059461Y0000653420D01*
X0001065035Y0000645077D01*
X0001076999Y0000633114D01*
X0001076998Y0000632080D01*
X0001081740Y0000620602D01*
X0001090514Y0000611813D01*
X0001101983Y0000607051D01*
X0001114402Y0000607040D01*
X0001125879Y0000611782D01*
X0001134668Y0000620556D01*
X0001139431Y0000632025D01*
X0001139442Y0000644444D01*
X0001134699Y0000655921D01*
X0001125925Y0000664710D01*
X0001114456Y0000669473D01*
X0001113376Y0000669474D01*
X0001108936Y0000673914D01*
X0001108936Y0000874683D01*
X0001106979Y0000884524D01*
X0001101404Y0000892867D01*
X0001077253Y0000917018D01*
X0001078134Y0000919141D01*
X0001078151Y0000938719D01*
X0001072391Y0000952660D01*
X0001152007Y0000833506D01*
X0001196811Y0000608262D01*
X0001152007Y0000383018D01*
X0001126283Y0000344519D01*
X0001126283Y0000508262D01*
X0001125048Y0000514827D01*
X0001121168Y0000520857D01*
X0001115247Y0000524902D01*
X0001108220Y0000526325D01*
X0001008220Y0000526325D01*
X0001001654Y0000525090D01*
X0000995624Y0000521210D01*
X0000991579Y0000515290D01*
X0000990156Y0000508262D01*
X0000990156Y0000308262D01*
X0000991391Y0000301696D01*
X0000995272Y0000295667D01*
X0001001192Y0000291621D01*
X0001008220Y0000290198D01*
X0001089987Y0000290198D01*
X0001024417Y0000192065D01*
X0000833464Y0000064474D01*
X0000674029Y0000032761D01*
X0000812573Y0000086391D01*
X0000827387Y0000096289D01*
X0000869260Y0000138647D01*
X0000608220Y0000399687D01*
X0000347179Y0000138647D01*
X0000389052Y0000096289D01*
X0000524979Y0000036228D01*
X0000382976Y0000064474D01*
X0000192023Y0000192065D01*
X0000126452Y0000290198D01*
X0000208220Y0000290198D01*
X0000214785Y0000291434D01*
X0000220815Y0000295314D01*
X0000224860Y0000301234D01*
X0000226283Y0000308262D01*
X0000226283Y0000342638D01*
X0000232647Y0000342638D01*
X0000286349Y0000203908D01*
X0000296247Y0000189095D01*
X0000338605Y0000147222D01*
X0000599645Y0000408262D01*
X0000338605Y0000669302D01*
X0000296247Y0000627429D01*
X0000236123Y0000491359D01*
X0000232647Y0000342638D01*
X0000226283Y0000342638D01*
X0000226283Y0000508262D01*
X0000225048Y0000514827D01*
X0000221168Y0000520857D01*
X0000215247Y0000524902D01*
X0000208220Y0000526325D01*
X0000183936Y0000526325D01*
X0000183936Y0000538429D01*
X0000186404Y0000540077D01*
X0000336404Y0000690077D01*
X0000338426Y0000693103D01*
X0000341979Y0000698420D01*
X0000343936Y0000708262D01*
X0000343936Y0000760489D01*
X0000342551Y0000767451D01*
X0000343608Y0000768507D01*
X0000344331Y0000769566D01*
X0000349144Y0000766351D01*
X0000358220Y0000764545D01*
X0000398220Y0000764545D01*
X0000407296Y0000766351D01*
X0000414990Y0000771492D01*
X0000528043Y0000884545D01*
X0000725377Y0000884545D01*
X0000734453Y0000886351D01*
X0000742147Y0000891492D01*
X0000803044Y0000952389D01*
X0000816117Y0000949789D01*
X0000834949Y0000953535D01*
X0000850915Y0000964203D01*
X0000852279Y0000965566D01*
X0000862947Y0000981532D01*
X0000866693Y0001000365D01*
X0000862947Y0001019198D01*
X0000861241Y0001021750D01*
X0000872901Y0001016920D01*
X0000894477Y0001015400D01*
X0000914991Y0001022252D01*
X0000917953Y0001031376D01*
X0000919851Y0001029477D01*
G36*
X0000833464Y0001152049D02*
X0000875757Y0001123790D01*
X0000860027Y0001118535D01*
X0000857065Y0001109412D01*
X0000887509Y0001078968D01*
X0000888066Y0001079525D01*
X0000896640Y0001070951D01*
X0000896083Y0001070394D01*
X0000896640Y0001069837D01*
X0000888066Y0001061263D01*
X0000887509Y0001061819D01*
X0000886952Y0001061263D01*
X0000878378Y0001069837D01*
X0000878935Y0001070394D01*
X0000848491Y0001100837D01*
X0000839368Y0001097876D01*
X0000832515Y0001077361D01*
X0000834035Y0001055786D01*
X0000838865Y0001044126D01*
X0000836313Y0001045831D01*
X0000817480Y0001049577D01*
X0000798647Y0001045831D01*
X0000782681Y0001035163D01*
X0000781318Y0001033800D01*
X0000770650Y0001017834D01*
X0000766904Y0000999001D01*
X0000769504Y0000985929D01*
X0000715553Y0000931978D01*
X0000518220Y0000931978D01*
X0000509144Y0000930173D01*
X0000501450Y0000925032D01*
X0000388396Y0000811978D01*
X0000387079Y0000811978D01*
X0000412092Y0000836991D01*
X0000415860Y0000842507D01*
X0000417381Y0000849514D01*
X0000416055Y0000856561D01*
X0000412092Y0000862537D01*
X0000395477Y0000879151D01*
X0000456404Y0000940077D01*
X0000461979Y0000948420D01*
X0000463936Y0000958262D01*
X0000463936Y0000970097D01*
X0000528630Y0000970097D01*
X0000539880Y0000953885D01*
X0000585025Y0000935677D01*
X0000633702Y0000936132D01*
X0000676560Y0000953885D01*
X0000687810Y0000970097D01*
X0000608220Y0001049687D01*
X0000528630Y0000970097D01*
X0000463936Y0000970097D01*
X0000463936Y0001008262D01*
X0000461979Y0001018103D01*
X0000456404Y0001026446D01*
X0000429441Y0001053409D01*
X0000429442Y0001054444D01*
X0000424699Y0001065921D01*
X0000415925Y0001074710D01*
X0000404456Y0001079473D01*
X0000392038Y0001079484D01*
X0000380560Y0001074741D01*
X0000371771Y0001065968D01*
X0000367009Y0001054498D01*
X0000366998Y0001042080D01*
X0000371740Y0001030602D01*
X0000380514Y0001021813D01*
X0000391983Y0001017051D01*
X0000393063Y0001017050D01*
X0000412503Y0000997610D01*
X0000412503Y0000968914D01*
X0000359109Y0000915519D01*
X0000342494Y0000932134D01*
X0000336979Y0000935903D01*
X0000329971Y0000937423D01*
X0000322924Y0000936097D01*
X0000316949Y0000932134D01*
X0000283542Y0000898727D01*
X0000282630Y0000897392D01*
X0000217568Y0000962454D01*
X0000260876Y0000962454D01*
X0000266259Y0000949426D01*
X0000276217Y0000939450D01*
X0000289236Y0000934044D01*
X0000303332Y0000934032D01*
X0000316360Y0000939415D01*
X0000326336Y0000949373D01*
X0000331742Y0000962392D01*
X0000331754Y0000976488D01*
X0000326371Y0000989516D01*
X0000316412Y0000999492D01*
X0000303394Y0001004898D01*
X0000289298Y0001004910D01*
X0000276270Y0000999527D01*
X0000266294Y0000989568D01*
X0000260888Y0000976550D01*
X0000260876Y0000962454D01*
X0000217568Y0000962454D01*
X0000199438Y0000980583D01*
X0000199442Y0000984444D01*
X0000194699Y0000995921D01*
X0000185925Y0001004710D01*
X0000180369Y0001007018D01*
X0000192023Y0001024459D01*
X0000277326Y0001081456D01*
X0000485635Y0001081456D01*
X0000486090Y0001032780D01*
X0000503843Y0000989922D01*
X0000520055Y0000978672D01*
X0000599645Y0001058262D01*
X0000616794Y0001058262D01*
X0000696384Y0000978672D01*
X0000712597Y0000989922D01*
X0000730804Y0001035067D01*
X0000730349Y0001083744D01*
X0000712597Y0001126602D01*
X0000696384Y0001137852D01*
X0000616794Y0001058262D01*
X0000599645Y0001058262D01*
X0000520055Y0001137852D01*
X0000503843Y0001126602D01*
X0000485635Y0001081456D01*
X0000277326Y0001081456D01*
X0000374560Y0001146426D01*
X0000528630Y0001146426D01*
X0000608220Y0001066836D01*
X0000687810Y0001146426D01*
X0000676560Y0001162639D01*
X0000631414Y0001180846D01*
X0000582738Y0001180391D01*
X0000539880Y0001162639D01*
X0000528630Y0001146426D01*
X0000374560Y0001146426D01*
X0000382976Y0001152049D01*
X0000608220Y0001196853D01*
X0000833464Y0001152049D01*
X0000833464Y0001152049D01*
G37*
X0000833464Y0001152049D02*
X0000875757Y0001123790D01*
X0000860027Y0001118535D01*
X0000857065Y0001109412D01*
X0000887509Y0001078968D01*
X0000888066Y0001079525D01*
X0000896640Y0001070951D01*
X0000896083Y0001070394D01*
X0000896640Y0001069837D01*
X0000888066Y0001061263D01*
X0000887509Y0001061819D01*
X0000886952Y0001061263D01*
X0000878378Y0001069837D01*
X0000878935Y0001070394D01*
X0000848491Y0001100837D01*
X0000839368Y0001097876D01*
X0000832515Y0001077361D01*
X0000834035Y0001055786D01*
X0000838865Y0001044126D01*
X0000836313Y0001045831D01*
X0000817480Y0001049577D01*
X0000798647Y0001045831D01*
X0000782681Y0001035163D01*
X0000781318Y0001033800D01*
X0000770650Y0001017834D01*
X0000766904Y0000999001D01*
X0000769504Y0000985929D01*
X0000715553Y0000931978D01*
X0000518220Y0000931978D01*
X0000509144Y0000930173D01*
X0000501450Y0000925032D01*
X0000388396Y0000811978D01*
X0000387079Y0000811978D01*
X0000412092Y0000836991D01*
X0000415860Y0000842507D01*
X0000417381Y0000849514D01*
X0000416055Y0000856561D01*
X0000412092Y0000862537D01*
X0000395477Y0000879151D01*
X0000456404Y0000940077D01*
X0000461979Y0000948420D01*
X0000463936Y0000958262D01*
X0000463936Y0000970097D01*
X0000528630Y0000970097D01*
X0000539880Y0000953885D01*
X0000585025Y0000935677D01*
X0000633702Y0000936132D01*
X0000676560Y0000953885D01*
X0000687810Y0000970097D01*
X0000608220Y0001049687D01*
X0000528630Y0000970097D01*
X0000463936Y0000970097D01*
X0000463936Y0001008262D01*
X0000461979Y0001018103D01*
X0000456404Y0001026446D01*
X0000429441Y0001053409D01*
X0000429442Y0001054444D01*
X0000424699Y0001065921D01*
X0000415925Y0001074710D01*
X0000404456Y0001079473D01*
X0000392038Y0001079484D01*
X0000380560Y0001074741D01*
X0000371771Y0001065968D01*
X0000367009Y0001054498D01*
X0000366998Y0001042080D01*
X0000371740Y0001030602D01*
X0000380514Y0001021813D01*
X0000391983Y0001017051D01*
X0000393063Y0001017050D01*
X0000412503Y0000997610D01*
X0000412503Y0000968914D01*
X0000359109Y0000915519D01*
X0000342494Y0000932134D01*
X0000336979Y0000935903D01*
X0000329971Y0000937423D01*
X0000322924Y0000936097D01*
X0000316949Y0000932134D01*
X0000283542Y0000898727D01*
X0000282630Y0000897392D01*
X0000217568Y0000962454D01*
X0000260876Y0000962454D01*
X0000266259Y0000949426D01*
X0000276217Y0000939450D01*
X0000289236Y0000934044D01*
X0000303332Y0000934032D01*
X0000316360Y0000939415D01*
X0000326336Y0000949373D01*
X0000331742Y0000962392D01*
X0000331754Y0000976488D01*
X0000326371Y0000989516D01*
X0000316412Y0000999492D01*
X0000303394Y0001004898D01*
X0000289298Y0001004910D01*
X0000276270Y0000999527D01*
X0000266294Y0000989568D01*
X0000260888Y0000976550D01*
X0000260876Y0000962454D01*
X0000217568Y0000962454D01*
X0000199438Y0000980583D01*
X0000199442Y0000984444D01*
X0000194699Y0000995921D01*
X0000185925Y0001004710D01*
X0000180369Y0001007018D01*
X0000192023Y0001024459D01*
X0000277326Y0001081456D01*
X0000485635Y0001081456D01*
X0000486090Y0001032780D01*
X0000503843Y0000989922D01*
X0000520055Y0000978672D01*
X0000599645Y0001058262D01*
X0000616794Y0001058262D01*
X0000696384Y0000978672D01*
X0000712597Y0000989922D01*
X0000730804Y0001035067D01*
X0000730349Y0001083744D01*
X0000712597Y0001126602D01*
X0000696384Y0001137852D01*
X0000616794Y0001058262D01*
X0000599645Y0001058262D01*
X0000520055Y0001137852D01*
X0000503843Y0001126602D01*
X0000485635Y0001081456D01*
X0000277326Y0001081456D01*
X0000374560Y0001146426D01*
X0000528630Y0001146426D01*
X0000608220Y0001066836D01*
X0000687810Y0001146426D01*
X0000676560Y0001162639D01*
X0000631414Y0001180846D01*
X0000582738Y0001180391D01*
X0000539880Y0001162639D01*
X0000528630Y0001146426D01*
X0000374560Y0001146426D01*
X0000382976Y0001152049D01*
X0000608220Y0001196853D01*
X0000833464Y0001152049D01*
G04 next file*
G04 #@! TF.FileFunction,Copper,L2,Bot,Signal*
G04 Gerber Fmt 4.6, Leading zero omitted, Abs format (unit mm)*
G04 Created by KiCad (PCBNEW 4.0.7) date 09/05/18 21:08:50*
G01*
G04 APERTURE LIST*
G04 APERTURE END LIST*
D30*
D31*
X-0007591779Y0005542896D02*
X0000608220Y0002392896D03*
D32*
X0000608220Y0001742896D03*
D33*
X0001058220Y0001742896D03*
X0000158220Y0001742896D03*
D30*
G36*
X0000958220Y0002148354D02*
X0000913677Y0002192896D01*
X0000958220Y0002237439D01*
X0001002762Y0002192896D01*
X0000958220Y0002148354D01*
X0000958220Y0002148354D01*
G37*
D34*
X0001028930Y0002263607D03*
D35*
X0000887509Y0002263607D02*
X0000887509Y0002263607D01*
X0000958220Y0002334318D02*
X0000958220Y0002334318D01*
X0000816798Y0002334318D02*
X0000816798Y0002334318D01*
X0000887509Y0002405028D02*
X0000887509Y0002405028D01*
D30*
G36*
X0000226718Y0002011797D02*
X0000157121Y0002081395D01*
X0000190527Y0002114801D01*
X0000260124Y0002045204D01*
X0000226718Y0002011797D01*
X0000226718Y0002011797D01*
G37*
G36*
X0000297428Y0002082508D02*
X0000227831Y0002152105D01*
X0000261238Y0002185512D01*
X0000330835Y0002115915D01*
X0000297428Y0002082508D01*
X0000297428Y0002082508D01*
G37*
G36*
X0000365912Y0002150992D02*
X0000296315Y0002220589D01*
X0000329722Y0002253995D01*
X0000399319Y0002184398D01*
X0000365912Y0002150992D01*
X0000365912Y0002150992D01*
G37*
D36*
X0000233220Y0001542896D03*
X0000958220Y0001517896D03*
X0000398220Y0002382896D03*
X0001108220Y0001972896D03*
X0000958220Y0001972896D03*
X0000908220Y0001972896D03*
X0001008220Y0001972896D03*
X0000168220Y0002312896D03*
D37*
X0000608220Y0002392896D02*
X0000658220Y0002392896D01*
X0000658220Y0002392896D02*
X0000708220Y0002442896D01*
X0000849641Y0002442896D02*
X0000887509Y0002405028D01*
X0000708220Y0002442896D02*
X0000849641Y0002442896D01*
X0000608220Y0001742896D02*
X0000433220Y0001742896D01*
X0000433220Y0001742896D02*
X0000233220Y0001542896D01*
X0000608220Y0001742896D02*
X0000733220Y0001742896D01*
X0000733220Y0001742896D02*
X0000958220Y0001517896D01*
X0000438220Y0002292896D02*
X0000347817Y0002202494D01*
X0000438220Y0002342896D02*
X0000438220Y0002292896D01*
X0000398220Y0002382896D02*
X0000438220Y0002342896D01*
X0000347817Y0002203299D02*
X0000347817Y0002202494D01*
X0001083220Y0002017896D02*
X0001083220Y0001997896D01*
X0001083220Y0002017896D02*
X0001083220Y0002209318D01*
X0001028930Y0002263607D02*
X0001083220Y0002209318D01*
X0001083220Y0001997896D02*
X0001108220Y0001972896D01*
X0000368220Y0002185123D02*
X0000334333Y0002219010D01*
X0000332106Y0002219010D02*
X0000334333Y0002219010D01*
D38*
X0000958220Y0001972896D02*
X0000958220Y0002192896D01*
X0000888220Y0002012896D02*
X0000887509Y0002013607D01*
X0000888220Y0001992896D02*
X0000888220Y0002012896D01*
X0000908220Y0001972896D02*
X0000888220Y0001992896D01*
X0000887509Y0002013607D02*
X0000887509Y0002263607D01*
X0001008220Y0002217896D02*
X0001033220Y0002192896D01*
X0001008220Y0002217896D02*
X0000958220Y0002267896D01*
X0000958220Y0002334318D02*
X0000958220Y0002267896D01*
X0001033220Y0002017896D02*
X0001008220Y0001972896D01*
X0001033220Y0002092896D02*
X0001033220Y0002017896D01*
X0001033220Y0002192896D02*
X0001033220Y0002092896D01*
X0000725377Y0002242896D02*
X0000816798Y0002334318D01*
X0000518220Y0002242896D02*
X0000725377Y0002242896D01*
X0000398220Y0002122896D02*
X0000518220Y0002242896D01*
X0000358220Y0002122896D02*
X0000398220Y0002122896D01*
X0000168220Y0002312896D02*
X0000358220Y0002122896D01*
D37*
X0000158220Y0001892896D02*
X0000168220Y0001892896D01*
X0000158220Y0001742896D02*
X0000158220Y0001892896D01*
X0000318220Y0002095123D02*
X0000279333Y0002134010D01*
X0000318220Y0002042896D02*
X0000318220Y0002095123D01*
X0000168220Y0001892896D02*
X0000318220Y0002042896D01*
D39*
G36*
X0000919851Y0002364112D02*
X0000912071Y0002352469D01*
X0000908325Y0002333636D01*
X0000912071Y0002314803D01*
X0000922236Y0002299591D01*
X0000907024Y0002309755D01*
X0000888191Y0002313501D01*
X0000869358Y0002309755D01*
X0000853392Y0002299087D01*
X0000852029Y0002297724D01*
X0000841361Y0002281758D01*
X0000837615Y0002262925D01*
X0000841361Y0002244092D01*
X0000852029Y0002228127D01*
X0000863792Y0002220267D01*
X0000863792Y0002018042D01*
X0000827387Y0002054869D01*
X0000691317Y0002114993D01*
X0000542596Y0002118469D01*
X0000403866Y0002064767D01*
X0000389052Y0002054869D01*
X0000347179Y0002012511D01*
X0000608220Y0001751471D01*
X0000608776Y0001752028D01*
X0000617351Y0001743453D01*
X0000616794Y0001742896D01*
X0000877834Y0001481856D01*
X0000920193Y0001523729D01*
X0000980317Y0001659799D01*
X0000983792Y0001808520D01*
X0000930091Y0001947250D01*
X0000928740Y0001949272D01*
X0000933225Y0001953750D01*
X0000940514Y0001946448D01*
X0000951983Y0001941685D01*
X0000964402Y0001941674D01*
X0000975879Y0001946417D01*
X0000983225Y0001953750D01*
X0000990514Y0001946448D01*
X0001001983Y0001941685D01*
X0001014402Y0001941674D01*
X0001025879Y0001946417D01*
X0001034668Y0001955191D01*
X0001039431Y0001966660D01*
X0001039442Y0001979079D01*
X0001039162Y0001979756D01*
X0001053952Y0002006379D01*
X0001054370Y0002007682D01*
X0001055131Y0002008820D01*
X0001055774Y0002012052D01*
X0001056781Y0002015189D01*
X0001056669Y0002016554D01*
X0001056936Y0002017896D01*
X0001056936Y0002192896D01*
X0001055363Y0002200806D01*
X0001057503Y0002198666D01*
X0001057503Y0001997896D01*
X0001059461Y0001988055D01*
X0001065035Y0001979712D01*
X0001076999Y0001967749D01*
X0001076998Y0001966714D01*
X0001081740Y0001955237D01*
X0001090514Y0001946448D01*
X0001101983Y0001941685D01*
X0001114402Y0001941674D01*
X0001125879Y0001946417D01*
X0001134668Y0001955191D01*
X0001139431Y0001966660D01*
X0001139442Y0001979079D01*
X0001134699Y0001990556D01*
X0001125925Y0001999345D01*
X0001114456Y0002004107D01*
X0001113376Y0002004108D01*
X0001108936Y0002008549D01*
X0001108936Y0002209318D01*
X0001106979Y0002219159D01*
X0001101404Y0002227502D01*
X0001077253Y0002251653D01*
X0001078134Y0002253775D01*
X0001078151Y0002273353D01*
X0001072391Y0002287294D01*
X0001152007Y0002168140D01*
X0001196811Y0001942896D01*
X0001152007Y0001717652D01*
X0001126283Y0001679154D01*
X0001126283Y0001842896D01*
X0001125048Y0001849462D01*
X0001121168Y0001855492D01*
X0001115247Y0001859537D01*
X0001108220Y0001860960D01*
X0001008220Y0001860960D01*
X0001001654Y0001859725D01*
X0000995624Y0001855845D01*
X0000991579Y0001849924D01*
X0000990156Y0001842896D01*
X0000990156Y0001642896D01*
X0000991391Y0001636331D01*
X0000995272Y0001630301D01*
X0001001192Y0001626256D01*
X0001008220Y0001624833D01*
X0001089987Y0001624833D01*
X0001024417Y0001526700D01*
X0000833464Y0001399109D01*
X0000674029Y0001367395D01*
X0000812573Y0001421025D01*
X0000827387Y0001430924D01*
X0000869260Y0001473282D01*
X0000608220Y0001734322D01*
X0000347179Y0001473282D01*
X0000389052Y0001430924D01*
X0000524979Y0001370863D01*
X0000382976Y0001399109D01*
X0000192023Y0001526700D01*
X0000126452Y0001624833D01*
X0000208220Y0001624833D01*
X0000214785Y0001626068D01*
X0000220815Y0001629948D01*
X0000224860Y0001635869D01*
X0000226283Y0001642896D01*
X0000226283Y0001677273D01*
X0000232647Y0001677273D01*
X0000286349Y0001538543D01*
X0000296247Y0001523729D01*
X0000338605Y0001481856D01*
X0000599645Y0001742896D01*
X0000338605Y0002003937D01*
X0000296247Y0001962064D01*
X0000236123Y0001825994D01*
X0000232647Y0001677273D01*
X0000226283Y0001677273D01*
X0000226283Y0001842896D01*
X0000225048Y0001849462D01*
X0000221168Y0001855492D01*
X0000215247Y0001859537D01*
X0000208220Y0001860960D01*
X0000183936Y0001860960D01*
X0000183936Y0001873063D01*
X0000186404Y0001874712D01*
X0000336404Y0002024712D01*
X0000338426Y0002027738D01*
X0000341979Y0002033055D01*
X0000343936Y0002042896D01*
X0000343936Y0002095123D01*
X0000342551Y0002102085D01*
X0000343608Y0002103142D01*
X0000344331Y0002104201D01*
X0000349144Y0002100985D01*
X0000358220Y0002099180D01*
X0000398220Y0002099180D01*
X0000407296Y0002100985D01*
X0000414990Y0002106126D01*
X0000528043Y0002219180D01*
X0000725377Y0002219180D01*
X0000734453Y0002220985D01*
X0000742147Y0002226126D01*
X0000803044Y0002287024D01*
X0000816117Y0002284423D01*
X0000834949Y0002288170D01*
X0000850915Y0002298837D01*
X0000852279Y0002300201D01*
X0000862947Y0002316167D01*
X0000866693Y0002334999D01*
X0000862947Y0002353832D01*
X0000861241Y0002356384D01*
X0000872901Y0002351554D01*
X0000894477Y0002350035D01*
X0000914991Y0002356887D01*
X0000917953Y0002366010D01*
X0000919851Y0002364112D01*
X0000919851Y0002364112D01*
G37*
X0000919851Y0002364112D02*
X0000912071Y0002352469D01*
X0000908325Y0002333636D01*
X0000912071Y0002314803D01*
X0000922236Y0002299591D01*
X0000907024Y0002309755D01*
X0000888191Y0002313501D01*
X0000869358Y0002309755D01*
X0000853392Y0002299087D01*
X0000852029Y0002297724D01*
X0000841361Y0002281758D01*
X0000837615Y0002262925D01*
X0000841361Y0002244092D01*
X0000852029Y0002228127D01*
X0000863792Y0002220267D01*
X0000863792Y0002018042D01*
X0000827387Y0002054869D01*
X0000691317Y0002114993D01*
X0000542596Y0002118469D01*
X0000403866Y0002064767D01*
X0000389052Y0002054869D01*
X0000347179Y0002012511D01*
X0000608220Y0001751471D01*
X0000608776Y0001752028D01*
X0000617351Y0001743453D01*
X0000616794Y0001742896D01*
X0000877834Y0001481856D01*
X0000920193Y0001523729D01*
X0000980317Y0001659799D01*
X0000983792Y0001808520D01*
X0000930091Y0001947250D01*
X0000928740Y0001949272D01*
X0000933225Y0001953750D01*
X0000940514Y0001946448D01*
X0000951983Y0001941685D01*
X0000964402Y0001941674D01*
X0000975879Y0001946417D01*
X0000983225Y0001953750D01*
X0000990514Y0001946448D01*
X0001001983Y0001941685D01*
X0001014402Y0001941674D01*
X0001025879Y0001946417D01*
X0001034668Y0001955191D01*
X0001039431Y0001966660D01*
X0001039442Y0001979079D01*
X0001039162Y0001979756D01*
X0001053952Y0002006379D01*
X0001054370Y0002007682D01*
X0001055131Y0002008820D01*
X0001055774Y0002012052D01*
X0001056781Y0002015189D01*
X0001056669Y0002016554D01*
X0001056936Y0002017896D01*
X0001056936Y0002192896D01*
X0001055363Y0002200806D01*
X0001057503Y0002198666D01*
X0001057503Y0001997896D01*
X0001059461Y0001988055D01*
X0001065035Y0001979712D01*
X0001076999Y0001967749D01*
X0001076998Y0001966714D01*
X0001081740Y0001955237D01*
X0001090514Y0001946448D01*
X0001101983Y0001941685D01*
X0001114402Y0001941674D01*
X0001125879Y0001946417D01*
X0001134668Y0001955191D01*
X0001139431Y0001966660D01*
X0001139442Y0001979079D01*
X0001134699Y0001990556D01*
X0001125925Y0001999345D01*
X0001114456Y0002004107D01*
X0001113376Y0002004108D01*
X0001108936Y0002008549D01*
X0001108936Y0002209318D01*
X0001106979Y0002219159D01*
X0001101404Y0002227502D01*
X0001077253Y0002251653D01*
X0001078134Y0002253775D01*
X0001078151Y0002273353D01*
X0001072391Y0002287294D01*
X0001152007Y0002168140D01*
X0001196811Y0001942896D01*
X0001152007Y0001717652D01*
X0001126283Y0001679154D01*
X0001126283Y0001842896D01*
X0001125048Y0001849462D01*
X0001121168Y0001855492D01*
X0001115247Y0001859537D01*
X0001108220Y0001860960D01*
X0001008220Y0001860960D01*
X0001001654Y0001859725D01*
X0000995624Y0001855845D01*
X0000991579Y0001849924D01*
X0000990156Y0001842896D01*
X0000990156Y0001642896D01*
X0000991391Y0001636331D01*
X0000995272Y0001630301D01*
X0001001192Y0001626256D01*
X0001008220Y0001624833D01*
X0001089987Y0001624833D01*
X0001024417Y0001526700D01*
X0000833464Y0001399109D01*
X0000674029Y0001367395D01*
X0000812573Y0001421025D01*
X0000827387Y0001430924D01*
X0000869260Y0001473282D01*
X0000608220Y0001734322D01*
X0000347179Y0001473282D01*
X0000389052Y0001430924D01*
X0000524979Y0001370863D01*
X0000382976Y0001399109D01*
X0000192023Y0001526700D01*
X0000126452Y0001624833D01*
X0000208220Y0001624833D01*
X0000214785Y0001626068D01*
X0000220815Y0001629948D01*
X0000224860Y0001635869D01*
X0000226283Y0001642896D01*
X0000226283Y0001677273D01*
X0000232647Y0001677273D01*
X0000286349Y0001538543D01*
X0000296247Y0001523729D01*
X0000338605Y0001481856D01*
X0000599645Y0001742896D01*
X0000338605Y0002003937D01*
X0000296247Y0001962064D01*
X0000236123Y0001825994D01*
X0000232647Y0001677273D01*
X0000226283Y0001677273D01*
X0000226283Y0001842896D01*
X0000225048Y0001849462D01*
X0000221168Y0001855492D01*
X0000215247Y0001859537D01*
X0000208220Y0001860960D01*
X0000183936Y0001860960D01*
X0000183936Y0001873063D01*
X0000186404Y0001874712D01*
X0000336404Y0002024712D01*
X0000338426Y0002027738D01*
X0000341979Y0002033055D01*
X0000343936Y0002042896D01*
X0000343936Y0002095123D01*
X0000342551Y0002102085D01*
X0000343608Y0002103142D01*
X0000344331Y0002104201D01*
X0000349144Y0002100985D01*
X0000358220Y0002099180D01*
X0000398220Y0002099180D01*
X0000407296Y0002100985D01*
X0000414990Y0002106126D01*
X0000528043Y0002219180D01*
X0000725377Y0002219180D01*
X0000734453Y0002220985D01*
X0000742147Y0002226126D01*
X0000803044Y0002287024D01*
X0000816117Y0002284423D01*
X0000834949Y0002288170D01*
X0000850915Y0002298837D01*
X0000852279Y0002300201D01*
X0000862947Y0002316167D01*
X0000866693Y0002334999D01*
X0000862947Y0002353832D01*
X0000861241Y0002356384D01*
X0000872901Y0002351554D01*
X0000894477Y0002350035D01*
X0000914991Y0002356887D01*
X0000917953Y0002366010D01*
X0000919851Y0002364112D01*
G36*
X0000833464Y0002486684D02*
X0000875757Y0002458424D01*
X0000860027Y0002453170D01*
X0000857065Y0002444046D01*
X0000887509Y0002413603D01*
X0000888066Y0002414160D01*
X0000896640Y0002405585D01*
X0000896083Y0002405028D01*
X0000896640Y0002404472D01*
X0000888066Y0002395897D01*
X0000887509Y0002396454D01*
X0000886952Y0002395897D01*
X0000878378Y0002404472D01*
X0000878935Y0002405028D01*
X0000848491Y0002435472D01*
X0000839368Y0002432511D01*
X0000832515Y0002411996D01*
X0000834035Y0002390420D01*
X0000838865Y0002378761D01*
X0000836313Y0002380466D01*
X0000817480Y0002384212D01*
X0000798647Y0002380466D01*
X0000782681Y0002369798D01*
X0000781318Y0002368435D01*
X0000770650Y0002352469D01*
X0000766904Y0002333636D01*
X0000769504Y0002320564D01*
X0000715553Y0002266613D01*
X0000518220Y0002266613D01*
X0000509144Y0002264808D01*
X0000501450Y0002259667D01*
X0000388396Y0002146613D01*
X0000387079Y0002146613D01*
X0000412092Y0002171625D01*
X0000415860Y0002177141D01*
X0000417381Y0002184149D01*
X0000416055Y0002191195D01*
X0000412092Y0002197171D01*
X0000395477Y0002213785D01*
X0000456404Y0002274712D01*
X0000461979Y0002283055D01*
X0000463936Y0002292896D01*
X0000463936Y0002304732D01*
X0000528630Y0002304732D01*
X0000539880Y0002288519D01*
X0000585025Y0002270312D01*
X0000633702Y0002270767D01*
X0000676560Y0002288519D01*
X0000687810Y0002304732D01*
X0000608220Y0002384322D01*
X0000528630Y0002304732D01*
X0000463936Y0002304732D01*
X0000463936Y0002342896D01*
X0000461979Y0002352738D01*
X0000456404Y0002361081D01*
X0000429441Y0002388044D01*
X0000429442Y0002389079D01*
X0000424699Y0002400556D01*
X0000415925Y0002409345D01*
X0000404456Y0002414107D01*
X0000392038Y0002414118D01*
X0000380560Y0002409376D01*
X0000371771Y0002400602D01*
X0000367009Y0002389133D01*
X0000366998Y0002376714D01*
X0000371740Y0002365237D01*
X0000380514Y0002356448D01*
X0000391983Y0002351685D01*
X0000393063Y0002351684D01*
X0000412503Y0002332244D01*
X0000412503Y0002303549D01*
X0000359109Y0002250154D01*
X0000342494Y0002266768D01*
X0000336979Y0002270537D01*
X0000329971Y0002272057D01*
X0000322924Y0002270731D01*
X0000316949Y0002266768D01*
X0000283542Y0002233362D01*
X0000282630Y0002232027D01*
X0000217568Y0002297088D01*
X0000260876Y0002297088D01*
X0000266259Y0002284060D01*
X0000276217Y0002274084D01*
X0000289236Y0002268678D01*
X0000303332Y0002268666D01*
X0000316360Y0002274049D01*
X0000326336Y0002284008D01*
X0000331742Y0002297026D01*
X0000331754Y0002311122D01*
X0000326371Y0002324150D01*
X0000316412Y0002334127D01*
X0000303394Y0002339532D01*
X0000289298Y0002339545D01*
X0000276270Y0002334162D01*
X0000266294Y0002324203D01*
X0000260888Y0002311184D01*
X0000260876Y0002297088D01*
X0000217568Y0002297088D01*
X0000199438Y0002315218D01*
X0000199442Y0002319079D01*
X0000194699Y0002330556D01*
X0000185925Y0002339345D01*
X0000180369Y0002341652D01*
X0000192023Y0002359093D01*
X0000277326Y0002416091D01*
X0000485635Y0002416091D01*
X0000486090Y0002367414D01*
X0000503843Y0002324556D01*
X0000520055Y0002313306D01*
X0000599645Y0002392896D01*
X0000616794Y0002392896D01*
X0000696384Y0002313306D01*
X0000712597Y0002324556D01*
X0000730804Y0002369702D01*
X0000730349Y0002418378D01*
X0000712597Y0002461236D01*
X0000696384Y0002472486D01*
X0000616794Y0002392896D01*
X0000599645Y0002392896D01*
X0000520055Y0002472486D01*
X0000503843Y0002461236D01*
X0000485635Y0002416091D01*
X0000277326Y0002416091D01*
X0000374560Y0002481061D01*
X0000528630Y0002481061D01*
X0000608220Y0002401471D01*
X0000687810Y0002481061D01*
X0000676560Y0002497273D01*
X0000631414Y0002515481D01*
X0000582738Y0002515026D01*
X0000539880Y0002497273D01*
X0000528630Y0002481061D01*
X0000374560Y0002481061D01*
X0000382976Y0002486684D01*
X0000608220Y0002531488D01*
X0000833464Y0002486684D01*
X0000833464Y0002486684D01*
G37*
X0000833464Y0002486684D02*
X0000875757Y0002458424D01*
X0000860027Y0002453170D01*
X0000857065Y0002444046D01*
X0000887509Y0002413603D01*
X0000888066Y0002414160D01*
X0000896640Y0002405585D01*
X0000896083Y0002405028D01*
X0000896640Y0002404472D01*
X0000888066Y0002395897D01*
X0000887509Y0002396454D01*
X0000886952Y0002395897D01*
X0000878378Y0002404472D01*
X0000878935Y0002405028D01*
X0000848491Y0002435472D01*
X0000839368Y0002432511D01*
X0000832515Y0002411996D01*
X0000834035Y0002390420D01*
X0000838865Y0002378761D01*
X0000836313Y0002380466D01*
X0000817480Y0002384212D01*
X0000798647Y0002380466D01*
X0000782681Y0002369798D01*
X0000781318Y0002368435D01*
X0000770650Y0002352469D01*
X0000766904Y0002333636D01*
X0000769504Y0002320564D01*
X0000715553Y0002266613D01*
X0000518220Y0002266613D01*
X0000509144Y0002264808D01*
X0000501450Y0002259667D01*
X0000388396Y0002146613D01*
X0000387079Y0002146613D01*
X0000412092Y0002171625D01*
X0000415860Y0002177141D01*
X0000417381Y0002184149D01*
X0000416055Y0002191195D01*
X0000412092Y0002197171D01*
X0000395477Y0002213785D01*
X0000456404Y0002274712D01*
X0000461979Y0002283055D01*
X0000463936Y0002292896D01*
X0000463936Y0002304732D01*
X0000528630Y0002304732D01*
X0000539880Y0002288519D01*
X0000585025Y0002270312D01*
X0000633702Y0002270767D01*
X0000676560Y0002288519D01*
X0000687810Y0002304732D01*
X0000608220Y0002384322D01*
X0000528630Y0002304732D01*
X0000463936Y0002304732D01*
X0000463936Y0002342896D01*
X0000461979Y0002352738D01*
X0000456404Y0002361081D01*
X0000429441Y0002388044D01*
X0000429442Y0002389079D01*
X0000424699Y0002400556D01*
X0000415925Y0002409345D01*
X0000404456Y0002414107D01*
X0000392038Y0002414118D01*
X0000380560Y0002409376D01*
X0000371771Y0002400602D01*
X0000367009Y0002389133D01*
X0000366998Y0002376714D01*
X0000371740Y0002365237D01*
X0000380514Y0002356448D01*
X0000391983Y0002351685D01*
X0000393063Y0002351684D01*
X0000412503Y0002332244D01*
X0000412503Y0002303549D01*
X0000359109Y0002250154D01*
X0000342494Y0002266768D01*
X0000336979Y0002270537D01*
X0000329971Y0002272057D01*
X0000322924Y0002270731D01*
X0000316949Y0002266768D01*
X0000283542Y0002233362D01*
X0000282630Y0002232027D01*
X0000217568Y0002297088D01*
X0000260876Y0002297088D01*
X0000266259Y0002284060D01*
X0000276217Y0002274084D01*
X0000289236Y0002268678D01*
X0000303332Y0002268666D01*
X0000316360Y0002274049D01*
X0000326336Y0002284008D01*
X0000331742Y0002297026D01*
X0000331754Y0002311122D01*
X0000326371Y0002324150D01*
X0000316412Y0002334127D01*
X0000303394Y0002339532D01*
X0000289298Y0002339545D01*
X0000276270Y0002334162D01*
X0000266294Y0002324203D01*
X0000260888Y0002311184D01*
X0000260876Y0002297088D01*
X0000217568Y0002297088D01*
X0000199438Y0002315218D01*
X0000199442Y0002319079D01*
X0000194699Y0002330556D01*
X0000185925Y0002339345D01*
X0000180369Y0002341652D01*
X0000192023Y0002359093D01*
X0000277326Y0002416091D01*
X0000485635Y0002416091D01*
X0000486090Y0002367414D01*
X0000503843Y0002324556D01*
X0000520055Y0002313306D01*
X0000599645Y0002392896D01*
X0000616794Y0002392896D01*
X0000696384Y0002313306D01*
X0000712597Y0002324556D01*
X0000730804Y0002369702D01*
X0000730349Y0002418378D01*
X0000712597Y0002461236D01*
X0000696384Y0002472486D01*
X0000616794Y0002392896D01*
X0000599645Y0002392896D01*
X0000520055Y0002472486D01*
X0000503843Y0002461236D01*
X0000485635Y0002416091D01*
X0000277326Y0002416091D01*
X0000374560Y0002481061D01*
X0000528630Y0002481061D01*
X0000608220Y0002401471D01*
X0000687810Y0002481061D01*
X0000676560Y0002497273D01*
X0000631414Y0002515481D01*
X0000582738Y0002515026D01*
X0000539880Y0002497273D01*
X0000528630Y0002481061D01*
X0000374560Y0002481061D01*
X0000382976Y0002486684D01*
X0000608220Y0002531488D01*
X0000833464Y0002486684D01*
G04 next file*
G04 #@! TF.FileFunction,Copper,L2,Bot,Signal*
G04 Gerber Fmt 4.6, Leading zero omitted, Abs format (unit mm)*
G04 Created by KiCad (PCBNEW 4.0.7) date 09/05/18 21:08:50*
G01*
G04 APERTURE LIST*
G04 APERTURE END LIST*
D40*
D41*
X-0007591779Y0006877531D02*
X0000608220Y0003727531D03*
D42*
X0000608220Y0003077531D03*
D43*
X0001058220Y0003077531D03*
X0000158220Y0003077531D03*
D40*
G36*
X0000958220Y0003482989D02*
X0000913677Y0003527531D01*
X0000958220Y0003572073D01*
X0001002762Y0003527531D01*
X0000958220Y0003482989D01*
X0000958220Y0003482989D01*
G37*
D44*
X0001028930Y0003598242D03*
D45*
X0000887509Y0003598242D02*
X0000887509Y0003598242D01*
X0000958220Y0003668952D02*
X0000958220Y0003668952D01*
X0000816798Y0003668952D02*
X0000816798Y0003668952D01*
X0000887509Y0003739663D02*
X0000887509Y0003739663D01*
D40*
G36*
X0000226718Y0003346432D02*
X0000157121Y0003416029D01*
X0000190527Y0003449436D01*
X0000260124Y0003379839D01*
X0000226718Y0003346432D01*
X0000226718Y0003346432D01*
G37*
G36*
X0000297428Y0003417143D02*
X0000227831Y0003486740D01*
X0000261238Y0003520146D01*
X0000330835Y0003450549D01*
X0000297428Y0003417143D01*
X0000297428Y0003417143D01*
G37*
G36*
X0000365912Y0003485626D02*
X0000296315Y0003555223D01*
X0000329722Y0003588630D01*
X0000399319Y0003519033D01*
X0000365912Y0003485626D01*
X0000365912Y0003485626D01*
G37*
D46*
X0000233220Y0002877531D03*
X0000958220Y0002852531D03*
X0000398220Y0003717531D03*
X0001108220Y0003307531D03*
X0000958220Y0003307531D03*
X0000908220Y0003307531D03*
X0001008220Y0003307531D03*
X0000168220Y0003647531D03*
D47*
X0000608220Y0003727531D02*
X0000658220Y0003727531D01*
X0000658220Y0003727531D02*
X0000708220Y0003777531D01*
X0000849641Y0003777531D02*
X0000887509Y0003739663D01*
X0000708220Y0003777531D02*
X0000849641Y0003777531D01*
X0000608220Y0003077531D02*
X0000433220Y0003077531D01*
X0000433220Y0003077531D02*
X0000233220Y0002877531D01*
X0000608220Y0003077531D02*
X0000733220Y0003077531D01*
X0000733220Y0003077531D02*
X0000958220Y0002852531D01*
X0000438220Y0003627531D02*
X0000347817Y0003537128D01*
X0000438220Y0003677531D02*
X0000438220Y0003627531D01*
X0000398220Y0003717531D02*
X0000438220Y0003677531D01*
X0000347817Y0003537934D02*
X0000347817Y0003537128D01*
X0001083220Y0003352531D02*
X0001083220Y0003332531D01*
X0001083220Y0003352531D02*
X0001083220Y0003543952D01*
X0001028930Y0003598242D02*
X0001083220Y0003543952D01*
X0001083220Y0003332531D02*
X0001108220Y0003307531D01*
X0000368220Y0003519758D02*
X0000334333Y0003553645D01*
X0000332106Y0003553645D02*
X0000334333Y0003553645D01*
D48*
X0000958220Y0003307531D02*
X0000958220Y0003527531D01*
X0000888220Y0003347531D02*
X0000887509Y0003348242D01*
X0000888220Y0003327531D02*
X0000888220Y0003347531D01*
X0000908220Y0003307531D02*
X0000888220Y0003327531D01*
X0000887509Y0003348242D02*
X0000887509Y0003598242D01*
X0001008220Y0003552531D02*
X0001033220Y0003527531D01*
X0001008220Y0003552531D02*
X0000958220Y0003602531D01*
X0000958220Y0003668952D02*
X0000958220Y0003602531D01*
X0001033220Y0003352531D02*
X0001008220Y0003307531D01*
X0001033220Y0003427531D02*
X0001033220Y0003352531D01*
X0001033220Y0003527531D02*
X0001033220Y0003427531D01*
X0000725377Y0003577531D02*
X0000816798Y0003668952D01*
X0000518220Y0003577531D02*
X0000725377Y0003577531D01*
X0000398220Y0003457531D02*
X0000518220Y0003577531D01*
X0000358220Y0003457531D02*
X0000398220Y0003457531D01*
X0000168220Y0003647531D02*
X0000358220Y0003457531D01*
D47*
X0000158220Y0003227531D02*
X0000168220Y0003227531D01*
X0000158220Y0003077531D02*
X0000158220Y0003227531D01*
X0000318220Y0003429758D02*
X0000279333Y0003468645D01*
X0000318220Y0003377531D02*
X0000318220Y0003429758D01*
X0000168220Y0003227531D02*
X0000318220Y0003377531D01*
D49*
G36*
X0000919851Y0003698746D02*
X0000912071Y0003687103D01*
X0000908325Y0003668271D01*
X0000912071Y0003649438D01*
X0000922236Y0003634225D01*
X0000907024Y0003644390D01*
X0000888191Y0003648136D01*
X0000869358Y0003644390D01*
X0000853392Y0003633722D01*
X0000852029Y0003632358D01*
X0000841361Y0003616393D01*
X0000837615Y0003597560D01*
X0000841361Y0003578727D01*
X0000852029Y0003562761D01*
X0000863792Y0003554901D01*
X0000863792Y0003352676D01*
X0000827387Y0003389504D01*
X0000691317Y0003449628D01*
X0000542596Y0003453104D01*
X0000403866Y0003399402D01*
X0000389052Y0003389504D01*
X0000347179Y0003347146D01*
X0000608220Y0003086105D01*
X0000608776Y0003086662D01*
X0000617351Y0003078088D01*
X0000616794Y0003077531D01*
X0000877834Y0002816491D01*
X0000920193Y0002858364D01*
X0000980317Y0002994434D01*
X0000983792Y0003143154D01*
X0000930091Y0003281885D01*
X0000928740Y0003283907D01*
X0000933225Y0003288384D01*
X0000940514Y0003281082D01*
X0000951983Y0003276320D01*
X0000964402Y0003276309D01*
X0000975879Y0003281051D01*
X0000983225Y0003288384D01*
X0000990514Y0003281082D01*
X0001001983Y0003276320D01*
X0001014402Y0003276309D01*
X0001025879Y0003281051D01*
X0001034668Y0003289825D01*
X0001039431Y0003301294D01*
X0001039442Y0003313713D01*
X0001039162Y0003314391D01*
X0001053952Y0003341013D01*
X0001054370Y0003342317D01*
X0001055131Y0003343455D01*
X0001055774Y0003346687D01*
X0001056781Y0003349824D01*
X0001056669Y0003351188D01*
X0001056936Y0003352531D01*
X0001056936Y0003527531D01*
X0001055363Y0003535440D01*
X0001057503Y0003533300D01*
X0001057503Y0003332531D01*
X0001059461Y0003322690D01*
X0001065035Y0003314347D01*
X0001076999Y0003302383D01*
X0001076998Y0003301349D01*
X0001081740Y0003289871D01*
X0001090514Y0003281082D01*
X0001101983Y0003276320D01*
X0001114402Y0003276309D01*
X0001125879Y0003281051D01*
X0001134668Y0003289825D01*
X0001139431Y0003301294D01*
X0001139442Y0003313713D01*
X0001134699Y0003325191D01*
X0001125925Y0003333980D01*
X0001114456Y0003338742D01*
X0001113376Y0003338743D01*
X0001108936Y0003343183D01*
X0001108936Y0003543952D01*
X0001106979Y0003553794D01*
X0001101404Y0003562137D01*
X0001077253Y0003586287D01*
X0001078134Y0003588410D01*
X0001078151Y0003607988D01*
X0001072391Y0003621929D01*
X0001152007Y0003502775D01*
X0001196811Y0003277531D01*
X0001152007Y0003052287D01*
X0001126283Y0003013789D01*
X0001126283Y0003177531D01*
X0001125048Y0003184096D01*
X0001121168Y0003190126D01*
X0001115247Y0003194171D01*
X0001108220Y0003195595D01*
X0001008220Y0003195595D01*
X0001001654Y0003194359D01*
X0000995624Y0003190479D01*
X0000991579Y0003184559D01*
X0000990156Y0003177531D01*
X0000990156Y0002977531D01*
X0000991391Y0002970966D01*
X0000995272Y0002964936D01*
X0001001192Y0002960891D01*
X0001008220Y0002959467D01*
X0001089987Y0002959467D01*
X0001024417Y0002861334D01*
X0000833464Y0002733744D01*
X0000674029Y0002702030D01*
X0000812573Y0002755660D01*
X0000827387Y0002765558D01*
X0000869260Y0002807916D01*
X0000608220Y0003068957D01*
X0000347179Y0002807916D01*
X0000389052Y0002765558D01*
X0000524979Y0002705497D01*
X0000382976Y0002733744D01*
X0000192023Y0002861334D01*
X0000126452Y0002959467D01*
X0000208220Y0002959467D01*
X0000214785Y0002960703D01*
X0000220815Y0002964583D01*
X0000224860Y0002970503D01*
X0000226283Y0002977531D01*
X0000226283Y0003011908D01*
X0000232647Y0003011908D01*
X0000286349Y0002873177D01*
X0000296247Y0002858364D01*
X0000338605Y0002816491D01*
X0000599645Y0003077531D01*
X0000338605Y0003338571D01*
X0000296247Y0003296698D01*
X0000236123Y0003160628D01*
X0000232647Y0003011908D01*
X0000226283Y0003011908D01*
X0000226283Y0003177531D01*
X0000225048Y0003184096D01*
X0000221168Y0003190126D01*
X0000215247Y0003194171D01*
X0000208220Y0003195595D01*
X0000183936Y0003195595D01*
X0000183936Y0003207698D01*
X0000186404Y0003209347D01*
X0000336404Y0003359347D01*
X0000338426Y0003362372D01*
X0000341979Y0003367690D01*
X0000343936Y0003377531D01*
X0000343936Y0003429758D01*
X0000342551Y0003436720D01*
X0000343608Y0003437776D01*
X0000344331Y0003438835D01*
X0000349144Y0003435620D01*
X0000358220Y0003433814D01*
X0000398220Y0003433814D01*
X0000407296Y0003435620D01*
X0000414990Y0003440761D01*
X0000528043Y0003553814D01*
X0000725377Y0003553814D01*
X0000734453Y0003555620D01*
X0000742147Y0003560761D01*
X0000803044Y0003621658D01*
X0000816117Y0003619058D01*
X0000834949Y0003622804D01*
X0000850915Y0003633472D01*
X0000852279Y0003634835D01*
X0000862947Y0003650801D01*
X0000866693Y0003669634D01*
X0000862947Y0003688467D01*
X0000861241Y0003691019D01*
X0000872901Y0003686189D01*
X0000894477Y0003684669D01*
X0000914991Y0003691522D01*
X0000917953Y0003700645D01*
X0000919851Y0003698746D01*
X0000919851Y0003698746D01*
G37*
X0000919851Y0003698746D02*
X0000912071Y0003687103D01*
X0000908325Y0003668271D01*
X0000912071Y0003649438D01*
X0000922236Y0003634225D01*
X0000907024Y0003644390D01*
X0000888191Y0003648136D01*
X0000869358Y0003644390D01*
X0000853392Y0003633722D01*
X0000852029Y0003632358D01*
X0000841361Y0003616393D01*
X0000837615Y0003597560D01*
X0000841361Y0003578727D01*
X0000852029Y0003562761D01*
X0000863792Y0003554901D01*
X0000863792Y0003352676D01*
X0000827387Y0003389504D01*
X0000691317Y0003449628D01*
X0000542596Y0003453104D01*
X0000403866Y0003399402D01*
X0000389052Y0003389504D01*
X0000347179Y0003347146D01*
X0000608220Y0003086105D01*
X0000608776Y0003086662D01*
X0000617351Y0003078088D01*
X0000616794Y0003077531D01*
X0000877834Y0002816491D01*
X0000920193Y0002858364D01*
X0000980317Y0002994434D01*
X0000983792Y0003143154D01*
X0000930091Y0003281885D01*
X0000928740Y0003283907D01*
X0000933225Y0003288384D01*
X0000940514Y0003281082D01*
X0000951983Y0003276320D01*
X0000964402Y0003276309D01*
X0000975879Y0003281051D01*
X0000983225Y0003288384D01*
X0000990514Y0003281082D01*
X0001001983Y0003276320D01*
X0001014402Y0003276309D01*
X0001025879Y0003281051D01*
X0001034668Y0003289825D01*
X0001039431Y0003301294D01*
X0001039442Y0003313713D01*
X0001039162Y0003314391D01*
X0001053952Y0003341013D01*
X0001054370Y0003342317D01*
X0001055131Y0003343455D01*
X0001055774Y0003346687D01*
X0001056781Y0003349824D01*
X0001056669Y0003351188D01*
X0001056936Y0003352531D01*
X0001056936Y0003527531D01*
X0001055363Y0003535440D01*
X0001057503Y0003533300D01*
X0001057503Y0003332531D01*
X0001059461Y0003322690D01*
X0001065035Y0003314347D01*
X0001076999Y0003302383D01*
X0001076998Y0003301349D01*
X0001081740Y0003289871D01*
X0001090514Y0003281082D01*
X0001101983Y0003276320D01*
X0001114402Y0003276309D01*
X0001125879Y0003281051D01*
X0001134668Y0003289825D01*
X0001139431Y0003301294D01*
X0001139442Y0003313713D01*
X0001134699Y0003325191D01*
X0001125925Y0003333980D01*
X0001114456Y0003338742D01*
X0001113376Y0003338743D01*
X0001108936Y0003343183D01*
X0001108936Y0003543952D01*
X0001106979Y0003553794D01*
X0001101404Y0003562137D01*
X0001077253Y0003586287D01*
X0001078134Y0003588410D01*
X0001078151Y0003607988D01*
X0001072391Y0003621929D01*
X0001152007Y0003502775D01*
X0001196811Y0003277531D01*
X0001152007Y0003052287D01*
X0001126283Y0003013789D01*
X0001126283Y0003177531D01*
X0001125048Y0003184096D01*
X0001121168Y0003190126D01*
X0001115247Y0003194171D01*
X0001108220Y0003195595D01*
X0001008220Y0003195595D01*
X0001001654Y0003194359D01*
X0000995624Y0003190479D01*
X0000991579Y0003184559D01*
X0000990156Y0003177531D01*
X0000990156Y0002977531D01*
X0000991391Y0002970966D01*
X0000995272Y0002964936D01*
X0001001192Y0002960891D01*
X0001008220Y0002959467D01*
X0001089987Y0002959467D01*
X0001024417Y0002861334D01*
X0000833464Y0002733744D01*
X0000674029Y0002702030D01*
X0000812573Y0002755660D01*
X0000827387Y0002765558D01*
X0000869260Y0002807916D01*
X0000608220Y0003068957D01*
X0000347179Y0002807916D01*
X0000389052Y0002765558D01*
X0000524979Y0002705497D01*
X0000382976Y0002733744D01*
X0000192023Y0002861334D01*
X0000126452Y0002959467D01*
X0000208220Y0002959467D01*
X0000214785Y0002960703D01*
X0000220815Y0002964583D01*
X0000224860Y0002970503D01*
X0000226283Y0002977531D01*
X0000226283Y0003011908D01*
X0000232647Y0003011908D01*
X0000286349Y0002873177D01*
X0000296247Y0002858364D01*
X0000338605Y0002816491D01*
X0000599645Y0003077531D01*
X0000338605Y0003338571D01*
X0000296247Y0003296698D01*
X0000236123Y0003160628D01*
X0000232647Y0003011908D01*
X0000226283Y0003011908D01*
X0000226283Y0003177531D01*
X0000225048Y0003184096D01*
X0000221168Y0003190126D01*
X0000215247Y0003194171D01*
X0000208220Y0003195595D01*
X0000183936Y0003195595D01*
X0000183936Y0003207698D01*
X0000186404Y0003209347D01*
X0000336404Y0003359347D01*
X0000338426Y0003362372D01*
X0000341979Y0003367690D01*
X0000343936Y0003377531D01*
X0000343936Y0003429758D01*
X0000342551Y0003436720D01*
X0000343608Y0003437776D01*
X0000344331Y0003438835D01*
X0000349144Y0003435620D01*
X0000358220Y0003433814D01*
X0000398220Y0003433814D01*
X0000407296Y0003435620D01*
X0000414990Y0003440761D01*
X0000528043Y0003553814D01*
X0000725377Y0003553814D01*
X0000734453Y0003555620D01*
X0000742147Y0003560761D01*
X0000803044Y0003621658D01*
X0000816117Y0003619058D01*
X0000834949Y0003622804D01*
X0000850915Y0003633472D01*
X0000852279Y0003634835D01*
X0000862947Y0003650801D01*
X0000866693Y0003669634D01*
X0000862947Y0003688467D01*
X0000861241Y0003691019D01*
X0000872901Y0003686189D01*
X0000894477Y0003684669D01*
X0000914991Y0003691522D01*
X0000917953Y0003700645D01*
X0000919851Y0003698746D01*
G36*
X0000833464Y0003821318D02*
X0000875757Y0003793059D01*
X0000860027Y0003787804D01*
X0000857065Y0003778681D01*
X0000887509Y0003748237D01*
X0000888066Y0003748794D01*
X0000896640Y0003740220D01*
X0000896083Y0003739663D01*
X0000896640Y0003739106D01*
X0000888066Y0003730532D01*
X0000887509Y0003731089D01*
X0000886952Y0003730532D01*
X0000878378Y0003739106D01*
X0000878935Y0003739663D01*
X0000848491Y0003770107D01*
X0000839368Y0003767146D01*
X0000832515Y0003746631D01*
X0000834035Y0003725055D01*
X0000838865Y0003713395D01*
X0000836313Y0003715101D01*
X0000817480Y0003718847D01*
X0000798647Y0003715101D01*
X0000782681Y0003704433D01*
X0000781318Y0003703069D01*
X0000770650Y0003687103D01*
X0000766904Y0003668271D01*
X0000769504Y0003655198D01*
X0000715553Y0003601248D01*
X0000518220Y0003601248D01*
X0000509144Y0003599442D01*
X0000501450Y0003594301D01*
X0000388396Y0003481248D01*
X0000387079Y0003481248D01*
X0000412092Y0003506260D01*
X0000415860Y0003511776D01*
X0000417381Y0003518783D01*
X0000416055Y0003525830D01*
X0000412092Y0003531806D01*
X0000395477Y0003548420D01*
X0000456404Y0003609347D01*
X0000461979Y0003617690D01*
X0000463936Y0003627531D01*
X0000463936Y0003639367D01*
X0000528630Y0003639367D01*
X0000539880Y0003623154D01*
X0000585025Y0003604947D01*
X0000633702Y0003605402D01*
X0000676560Y0003623154D01*
X0000687810Y0003639367D01*
X0000608220Y0003718957D01*
X0000528630Y0003639367D01*
X0000463936Y0003639367D01*
X0000463936Y0003677531D01*
X0000461979Y0003687372D01*
X0000456404Y0003695715D01*
X0000429441Y0003722679D01*
X0000429442Y0003723713D01*
X0000424699Y0003735191D01*
X0000415925Y0003743980D01*
X0000404456Y0003748742D01*
X0000392038Y0003748753D01*
X0000380560Y0003744011D01*
X0000371771Y0003735237D01*
X0000367009Y0003723768D01*
X0000366998Y0003711349D01*
X0000371740Y0003699871D01*
X0000380514Y0003691082D01*
X0000391983Y0003686320D01*
X0000393063Y0003686319D01*
X0000412503Y0003666879D01*
X0000412503Y0003638183D01*
X0000359109Y0003584789D01*
X0000342494Y0003601403D01*
X0000336979Y0003605172D01*
X0000329971Y0003606692D01*
X0000322924Y0003605366D01*
X0000316949Y0003601403D01*
X0000283542Y0003567996D01*
X0000282630Y0003566661D01*
X0000217568Y0003631723D01*
X0000260876Y0003631723D01*
X0000266259Y0003618695D01*
X0000276217Y0003608719D01*
X0000289236Y0003603313D01*
X0000303332Y0003603301D01*
X0000316360Y0003608684D01*
X0000326336Y0003618642D01*
X0000331742Y0003631661D01*
X0000331754Y0003645757D01*
X0000326371Y0003658785D01*
X0000316412Y0003668761D01*
X0000303394Y0003674167D01*
X0000289298Y0003674179D01*
X0000276270Y0003668796D01*
X0000266294Y0003658837D01*
X0000260888Y0003645819D01*
X0000260876Y0003631723D01*
X0000217568Y0003631723D01*
X0000199438Y0003649853D01*
X0000199442Y0003653713D01*
X0000194699Y0003665191D01*
X0000185925Y0003673980D01*
X0000180369Y0003676287D01*
X0000192023Y0003693728D01*
X0000277326Y0003750726D01*
X0000485635Y0003750726D01*
X0000486090Y0003702049D01*
X0000503843Y0003659191D01*
X0000520055Y0003647941D01*
X0000599645Y0003727531D01*
X0000616794Y0003727531D01*
X0000696384Y0003647941D01*
X0000712597Y0003659191D01*
X0000730804Y0003704336D01*
X0000730349Y0003753013D01*
X0000712597Y0003795871D01*
X0000696384Y0003807121D01*
X0000616794Y0003727531D01*
X0000599645Y0003727531D01*
X0000520055Y0003807121D01*
X0000503843Y0003795871D01*
X0000485635Y0003750726D01*
X0000277326Y0003750726D01*
X0000374560Y0003815695D01*
X0000528630Y0003815695D01*
X0000608220Y0003736105D01*
X0000687810Y0003815695D01*
X0000676560Y0003831908D01*
X0000631414Y0003850115D01*
X0000582738Y0003849660D01*
X0000539880Y0003831908D01*
X0000528630Y0003815695D01*
X0000374560Y0003815695D01*
X0000382976Y0003821318D01*
X0000608220Y0003866122D01*
X0000833464Y0003821318D01*
X0000833464Y0003821318D01*
G37*
X0000833464Y0003821318D02*
X0000875757Y0003793059D01*
X0000860027Y0003787804D01*
X0000857065Y0003778681D01*
X0000887509Y0003748237D01*
X0000888066Y0003748794D01*
X0000896640Y0003740220D01*
X0000896083Y0003739663D01*
X0000896640Y0003739106D01*
X0000888066Y0003730532D01*
X0000887509Y0003731089D01*
X0000886952Y0003730532D01*
X0000878378Y0003739106D01*
X0000878935Y0003739663D01*
X0000848491Y0003770107D01*
X0000839368Y0003767146D01*
X0000832515Y0003746631D01*
X0000834035Y0003725055D01*
X0000838865Y0003713395D01*
X0000836313Y0003715101D01*
X0000817480Y0003718847D01*
X0000798647Y0003715101D01*
X0000782681Y0003704433D01*
X0000781318Y0003703069D01*
X0000770650Y0003687103D01*
X0000766904Y0003668271D01*
X0000769504Y0003655198D01*
X0000715553Y0003601248D01*
X0000518220Y0003601248D01*
X0000509144Y0003599442D01*
X0000501450Y0003594301D01*
X0000388396Y0003481248D01*
X0000387079Y0003481248D01*
X0000412092Y0003506260D01*
X0000415860Y0003511776D01*
X0000417381Y0003518783D01*
X0000416055Y0003525830D01*
X0000412092Y0003531806D01*
X0000395477Y0003548420D01*
X0000456404Y0003609347D01*
X0000461979Y0003617690D01*
X0000463936Y0003627531D01*
X0000463936Y0003639367D01*
X0000528630Y0003639367D01*
X0000539880Y0003623154D01*
X0000585025Y0003604947D01*
X0000633702Y0003605402D01*
X0000676560Y0003623154D01*
X0000687810Y0003639367D01*
X0000608220Y0003718957D01*
X0000528630Y0003639367D01*
X0000463936Y0003639367D01*
X0000463936Y0003677531D01*
X0000461979Y0003687372D01*
X0000456404Y0003695715D01*
X0000429441Y0003722679D01*
X0000429442Y0003723713D01*
X0000424699Y0003735191D01*
X0000415925Y0003743980D01*
X0000404456Y0003748742D01*
X0000392038Y0003748753D01*
X0000380560Y0003744011D01*
X0000371771Y0003735237D01*
X0000367009Y0003723768D01*
X0000366998Y0003711349D01*
X0000371740Y0003699871D01*
X0000380514Y0003691082D01*
X0000391983Y0003686320D01*
X0000393063Y0003686319D01*
X0000412503Y0003666879D01*
X0000412503Y0003638183D01*
X0000359109Y0003584789D01*
X0000342494Y0003601403D01*
X0000336979Y0003605172D01*
X0000329971Y0003606692D01*
X0000322924Y0003605366D01*
X0000316949Y0003601403D01*
X0000283542Y0003567996D01*
X0000282630Y0003566661D01*
X0000217568Y0003631723D01*
X0000260876Y0003631723D01*
X0000266259Y0003618695D01*
X0000276217Y0003608719D01*
X0000289236Y0003603313D01*
X0000303332Y0003603301D01*
X0000316360Y0003608684D01*
X0000326336Y0003618642D01*
X0000331742Y0003631661D01*
X0000331754Y0003645757D01*
X0000326371Y0003658785D01*
X0000316412Y0003668761D01*
X0000303394Y0003674167D01*
X0000289298Y0003674179D01*
X0000276270Y0003668796D01*
X0000266294Y0003658837D01*
X0000260888Y0003645819D01*
X0000260876Y0003631723D01*
X0000217568Y0003631723D01*
X0000199438Y0003649853D01*
X0000199442Y0003653713D01*
X0000194699Y0003665191D01*
X0000185925Y0003673980D01*
X0000180369Y0003676287D01*
X0000192023Y0003693728D01*
X0000277326Y0003750726D01*
X0000485635Y0003750726D01*
X0000486090Y0003702049D01*
X0000503843Y0003659191D01*
X0000520055Y0003647941D01*
X0000599645Y0003727531D01*
X0000616794Y0003727531D01*
X0000696384Y0003647941D01*
X0000712597Y0003659191D01*
X0000730804Y0003704336D01*
X0000730349Y0003753013D01*
X0000712597Y0003795871D01*
X0000696384Y0003807121D01*
X0000616794Y0003727531D01*
X0000599645Y0003727531D01*
X0000520055Y0003807121D01*
X0000503843Y0003795871D01*
X0000485635Y0003750726D01*
X0000277326Y0003750726D01*
X0000374560Y0003815695D01*
X0000528630Y0003815695D01*
X0000608220Y0003736105D01*
X0000687810Y0003815695D01*
X0000676560Y0003831908D01*
X0000631414Y0003850115D01*
X0000582738Y0003849660D01*
X0000539880Y0003831908D01*
X0000528630Y0003815695D01*
X0000374560Y0003815695D01*
X0000382976Y0003821318D01*
X0000608220Y0003866122D01*
X0000833464Y0003821318D01*
G04 next file*
G04 #@! TF.FileFunction,Copper,L2,Bot,Signal*
G04 Gerber Fmt 4.6, Leading zero omitted, Abs format (unit mm)*
G04 Created by KiCad (PCBNEW 4.0.7) date 09/05/18 21:08:50*
G01*
G04 APERTURE LIST*
G04 APERTURE END LIST*
D50*
D51*
X-0006257173Y0004208262D02*
X0001942826Y0001058262D03*
D52*
X0001942826Y0000408262D03*
D53*
X0002392826Y0000408262D03*
X0001492826Y0000408262D03*
D50*
G36*
X0002292826Y0000813720D02*
X0002248284Y0000858262D01*
X0002292826Y0000902804D01*
X0002337368Y0000858262D01*
X0002292826Y0000813720D01*
X0002292826Y0000813720D01*
G37*
D54*
X0002363537Y0000928972D03*
D55*
X0002222115Y0000928972D02*
X0002222115Y0000928972D01*
X0002292826Y0000999683D02*
X0002292826Y0000999683D01*
X0002151405Y0000999683D02*
X0002151405Y0000999683D01*
X0002222115Y0001070394D02*
X0002222115Y0001070394D01*
D50*
G36*
X0001561324Y0000677163D02*
X0001491727Y0000746760D01*
X0001525134Y0000780167D01*
X0001594731Y0000710569D01*
X0001561324Y0000677163D01*
X0001561324Y0000677163D01*
G37*
G36*
X0001632035Y0000747873D02*
X0001562438Y0000817471D01*
X0001595844Y0000850877D01*
X0001665441Y0000781280D01*
X0001632035Y0000747873D01*
X0001632035Y0000747873D01*
G37*
G36*
X0001700518Y0000816357D02*
X0001630921Y0000885954D01*
X0001664328Y0000919361D01*
X0001733925Y0000849764D01*
X0001700518Y0000816357D01*
X0001700518Y0000816357D01*
G37*
D56*
X0001567826Y0000208262D03*
X0002292826Y0000183262D03*
X0001732826Y0001048262D03*
X0002442826Y0000638262D03*
X0002292826Y0000638262D03*
X0002242826Y0000638262D03*
X0002342826Y0000638262D03*
X0001502826Y0000978262D03*
D57*
X0001942826Y0001058262D02*
X0001992826Y0001058262D01*
X0001992826Y0001058262D02*
X0002042826Y0001108262D01*
X0002184247Y0001108262D02*
X0002222115Y0001070394D01*
X0002042826Y0001108262D02*
X0002184247Y0001108262D01*
X0001942826Y0000408262D02*
X0001767826Y0000408262D01*
X0001767826Y0000408262D02*
X0001567826Y0000208262D01*
X0001942826Y0000408262D02*
X0002067826Y0000408262D01*
X0002067826Y0000408262D02*
X0002292826Y0000183262D01*
X0001772826Y0000958262D02*
X0001682423Y0000867859D01*
X0001772826Y0001008262D02*
X0001772826Y0000958262D01*
X0001732826Y0001048262D02*
X0001772826Y0001008262D01*
X0001682423Y0000868665D02*
X0001682423Y0000867859D01*
X0002417826Y0000683262D02*
X0002417826Y0000663262D01*
X0002417826Y0000683262D02*
X0002417826Y0000874683D01*
X0002363537Y0000928972D02*
X0002417826Y0000874683D01*
X0002417826Y0000663262D02*
X0002442826Y0000638262D01*
X0001702826Y0000850489D02*
X0001668940Y0000884375D01*
X0001666712Y0000884375D02*
X0001668940Y0000884375D01*
D58*
X0002292826Y0000638262D02*
X0002292826Y0000858262D01*
X0002222826Y0000678262D02*
X0002222115Y0000678972D01*
X0002222826Y0000658262D02*
X0002222826Y0000678262D01*
X0002242826Y0000638262D02*
X0002222826Y0000658262D01*
X0002222115Y0000678972D02*
X0002222115Y0000928972D01*
X0002342826Y0000883262D02*
X0002367826Y0000858262D01*
X0002342826Y0000883262D02*
X0002292826Y0000933262D01*
X0002292826Y0000999683D02*
X0002292826Y0000933262D01*
X0002367826Y0000683262D02*
X0002342826Y0000638262D01*
X0002367826Y0000758262D02*
X0002367826Y0000683262D01*
X0002367826Y0000858262D02*
X0002367826Y0000758262D01*
X0002059983Y0000908262D02*
X0002151405Y0000999683D01*
X0001852826Y0000908262D02*
X0002059983Y0000908262D01*
X0001732826Y0000788262D02*
X0001852826Y0000908262D01*
X0001692826Y0000788262D02*
X0001732826Y0000788262D01*
X0001502826Y0000978262D02*
X0001692826Y0000788262D01*
D57*
X0001492826Y0000558262D02*
X0001502826Y0000558262D01*
X0001492826Y0000408262D02*
X0001492826Y0000558262D01*
X0001652826Y0000760489D02*
X0001613940Y0000799375D01*
X0001652826Y0000708262D02*
X0001652826Y0000760489D01*
X0001502826Y0000558262D02*
X0001652826Y0000708262D01*
D59*
G36*
X0002254457Y0001029477D02*
X0002246678Y0001017834D01*
X0002242932Y0000999001D01*
X0002246678Y0000980169D01*
X0002256843Y0000964956D01*
X0002241630Y0000975121D01*
X0002222797Y0000978867D01*
X0002203964Y0000975121D01*
X0002187999Y0000964453D01*
X0002186635Y0000963089D01*
X0002175967Y0000947124D01*
X0002172221Y0000928291D01*
X0002175967Y0000909458D01*
X0002186635Y0000893492D01*
X0002198399Y0000885632D01*
X0002198399Y0000683407D01*
X0002161993Y0000720235D01*
X0002025923Y0000780359D01*
X0001877203Y0000783835D01*
X0001738472Y0000730133D01*
X0001723659Y0000720235D01*
X0001681786Y0000677876D01*
X0001942826Y0000416836D01*
X0001943383Y0000417393D01*
X0001951957Y0000408819D01*
X0001951400Y0000408262D01*
X0002212441Y0000147222D01*
X0002254799Y0000189095D01*
X0002314923Y0000325164D01*
X0002318399Y0000473885D01*
X0002264697Y0000612615D01*
X0002263346Y0000614638D01*
X0002267831Y0000619115D01*
X0002275120Y0000611813D01*
X0002286589Y0000607051D01*
X0002299008Y0000607040D01*
X0002310486Y0000611782D01*
X0002317831Y0000619115D01*
X0002325120Y0000611813D01*
X0002336589Y0000607051D01*
X0002349008Y0000607040D01*
X0002360486Y0000611782D01*
X0002369275Y0000620556D01*
X0002374037Y0000632025D01*
X0002374048Y0000644444D01*
X0002373768Y0000645122D01*
X0002388558Y0000671744D01*
X0002388977Y0000673047D01*
X0002389737Y0000674186D01*
X0002390380Y0000677418D01*
X0002391388Y0000680555D01*
X0002391275Y0000681919D01*
X0002391543Y0000683262D01*
X0002391543Y0000858262D01*
X0002389969Y0000866171D01*
X0002392110Y0000864031D01*
X0002392110Y0000663262D01*
X0002394067Y0000653420D01*
X0002399642Y0000645077D01*
X0002411605Y0000633114D01*
X0002411604Y0000632080D01*
X0002416347Y0000620602D01*
X0002425120Y0000611813D01*
X0002436589Y0000607051D01*
X0002449008Y0000607040D01*
X0002460486Y0000611782D01*
X0002469275Y0000620556D01*
X0002474037Y0000632025D01*
X0002474048Y0000644444D01*
X0002469306Y0000655921D01*
X0002460532Y0000664710D01*
X0002449063Y0000669473D01*
X0002447983Y0000669474D01*
X0002443543Y0000673914D01*
X0002443543Y0000874683D01*
X0002441585Y0000884524D01*
X0002436010Y0000892867D01*
X0002411860Y0000917018D01*
X0002412741Y0000919141D01*
X0002412758Y0000938719D01*
X0002406998Y0000952660D01*
X0002486613Y0000833506D01*
X0002531417Y0000608262D01*
X0002486613Y0000383018D01*
X0002460890Y0000344519D01*
X0002460890Y0000508262D01*
X0002459654Y0000514827D01*
X0002455774Y0000520857D01*
X0002449854Y0000524902D01*
X0002442826Y0000526325D01*
X0002342826Y0000526325D01*
X0002336261Y0000525090D01*
X0002330231Y0000521210D01*
X0002326186Y0000515290D01*
X0002324762Y0000508262D01*
X0002324762Y0000308262D01*
X0002325998Y0000301696D01*
X0002329878Y0000295667D01*
X0002335798Y0000291621D01*
X0002342826Y0000290198D01*
X0002424593Y0000290198D01*
X0002359023Y0000192065D01*
X0002168070Y0000064474D01*
X0002008635Y0000032761D01*
X0002147180Y0000086391D01*
X0002161993Y0000096289D01*
X0002203866Y0000138647D01*
X0001942826Y0000399687D01*
X0001681786Y0000138647D01*
X0001723659Y0000096289D01*
X0001859585Y0000036228D01*
X0001717582Y0000064474D01*
X0001526629Y0000192065D01*
X0001461059Y0000290198D01*
X0001542826Y0000290198D01*
X0001549391Y0000291434D01*
X0001555421Y0000295314D01*
X0001559467Y0000301234D01*
X0001560890Y0000308262D01*
X0001560890Y0000342638D01*
X0001567253Y0000342638D01*
X0001620955Y0000203908D01*
X0001630853Y0000189095D01*
X0001673211Y0000147222D01*
X0001934252Y0000408262D01*
X0001673211Y0000669302D01*
X0001630853Y0000627429D01*
X0001570729Y0000491359D01*
X0001567253Y0000342638D01*
X0001560890Y0000342638D01*
X0001560890Y0000508262D01*
X0001559654Y0000514827D01*
X0001555774Y0000520857D01*
X0001549854Y0000524902D01*
X0001542826Y0000526325D01*
X0001518543Y0000526325D01*
X0001518543Y0000538429D01*
X0001521010Y0000540077D01*
X0001671010Y0000690077D01*
X0001673032Y0000693103D01*
X0001676585Y0000698420D01*
X0001678543Y0000708262D01*
X0001678543Y0000760489D01*
X0001677158Y0000767451D01*
X0001678214Y0000768507D01*
X0001678938Y0000769566D01*
X0001683750Y0000766351D01*
X0001692826Y0000764545D01*
X0001732826Y0000764545D01*
X0001741902Y0000766351D01*
X0001749596Y0000771492D01*
X0001862650Y0000884545D01*
X0002059983Y0000884545D01*
X0002069059Y0000886351D01*
X0002076753Y0000891492D01*
X0002137651Y0000952389D01*
X0002150723Y0000949789D01*
X0002169556Y0000953535D01*
X0002185522Y0000964203D01*
X0002186885Y0000965566D01*
X0002197553Y0000981532D01*
X0002201299Y0001000365D01*
X0002197553Y0001019198D01*
X0002195848Y0001021750D01*
X0002207507Y0001016920D01*
X0002229083Y0001015400D01*
X0002249598Y0001022252D01*
X0002252559Y0001031376D01*
X0002254457Y0001029477D01*
X0002254457Y0001029477D01*
G37*
X0002254457Y0001029477D02*
X0002246678Y0001017834D01*
X0002242932Y0000999001D01*
X0002246678Y0000980169D01*
X0002256843Y0000964956D01*
X0002241630Y0000975121D01*
X0002222797Y0000978867D01*
X0002203964Y0000975121D01*
X0002187999Y0000964453D01*
X0002186635Y0000963089D01*
X0002175967Y0000947124D01*
X0002172221Y0000928291D01*
X0002175967Y0000909458D01*
X0002186635Y0000893492D01*
X0002198399Y0000885632D01*
X0002198399Y0000683407D01*
X0002161993Y0000720235D01*
X0002025923Y0000780359D01*
X0001877203Y0000783835D01*
X0001738472Y0000730133D01*
X0001723659Y0000720235D01*
X0001681786Y0000677876D01*
X0001942826Y0000416836D01*
X0001943383Y0000417393D01*
X0001951957Y0000408819D01*
X0001951400Y0000408262D01*
X0002212441Y0000147222D01*
X0002254799Y0000189095D01*
X0002314923Y0000325164D01*
X0002318399Y0000473885D01*
X0002264697Y0000612615D01*
X0002263346Y0000614638D01*
X0002267831Y0000619115D01*
X0002275120Y0000611813D01*
X0002286589Y0000607051D01*
X0002299008Y0000607040D01*
X0002310486Y0000611782D01*
X0002317831Y0000619115D01*
X0002325120Y0000611813D01*
X0002336589Y0000607051D01*
X0002349008Y0000607040D01*
X0002360486Y0000611782D01*
X0002369275Y0000620556D01*
X0002374037Y0000632025D01*
X0002374048Y0000644444D01*
X0002373768Y0000645122D01*
X0002388558Y0000671744D01*
X0002388977Y0000673047D01*
X0002389737Y0000674186D01*
X0002390380Y0000677418D01*
X0002391388Y0000680555D01*
X0002391275Y0000681919D01*
X0002391543Y0000683262D01*
X0002391543Y0000858262D01*
X0002389969Y0000866171D01*
X0002392110Y0000864031D01*
X0002392110Y0000663262D01*
X0002394067Y0000653420D01*
X0002399642Y0000645077D01*
X0002411605Y0000633114D01*
X0002411604Y0000632080D01*
X0002416347Y0000620602D01*
X0002425120Y0000611813D01*
X0002436589Y0000607051D01*
X0002449008Y0000607040D01*
X0002460486Y0000611782D01*
X0002469275Y0000620556D01*
X0002474037Y0000632025D01*
X0002474048Y0000644444D01*
X0002469306Y0000655921D01*
X0002460532Y0000664710D01*
X0002449063Y0000669473D01*
X0002447983Y0000669474D01*
X0002443543Y0000673914D01*
X0002443543Y0000874683D01*
X0002441585Y0000884524D01*
X0002436010Y0000892867D01*
X0002411860Y0000917018D01*
X0002412741Y0000919141D01*
X0002412758Y0000938719D01*
X0002406998Y0000952660D01*
X0002486613Y0000833506D01*
X0002531417Y0000608262D01*
X0002486613Y0000383018D01*
X0002460890Y0000344519D01*
X0002460890Y0000508262D01*
X0002459654Y0000514827D01*
X0002455774Y0000520857D01*
X0002449854Y0000524902D01*
X0002442826Y0000526325D01*
X0002342826Y0000526325D01*
X0002336261Y0000525090D01*
X0002330231Y0000521210D01*
X0002326186Y0000515290D01*
X0002324762Y0000508262D01*
X0002324762Y0000308262D01*
X0002325998Y0000301696D01*
X0002329878Y0000295667D01*
X0002335798Y0000291621D01*
X0002342826Y0000290198D01*
X0002424593Y0000290198D01*
X0002359023Y0000192065D01*
X0002168070Y0000064474D01*
X0002008635Y0000032761D01*
X0002147180Y0000086391D01*
X0002161993Y0000096289D01*
X0002203866Y0000138647D01*
X0001942826Y0000399687D01*
X0001681786Y0000138647D01*
X0001723659Y0000096289D01*
X0001859585Y0000036228D01*
X0001717582Y0000064474D01*
X0001526629Y0000192065D01*
X0001461059Y0000290198D01*
X0001542826Y0000290198D01*
X0001549391Y0000291434D01*
X0001555421Y0000295314D01*
X0001559467Y0000301234D01*
X0001560890Y0000308262D01*
X0001560890Y0000342638D01*
X0001567253Y0000342638D01*
X0001620955Y0000203908D01*
X0001630853Y0000189095D01*
X0001673211Y0000147222D01*
X0001934252Y0000408262D01*
X0001673211Y0000669302D01*
X0001630853Y0000627429D01*
X0001570729Y0000491359D01*
X0001567253Y0000342638D01*
X0001560890Y0000342638D01*
X0001560890Y0000508262D01*
X0001559654Y0000514827D01*
X0001555774Y0000520857D01*
X0001549854Y0000524902D01*
X0001542826Y0000526325D01*
X0001518543Y0000526325D01*
X0001518543Y0000538429D01*
X0001521010Y0000540077D01*
X0001671010Y0000690077D01*
X0001673032Y0000693103D01*
X0001676585Y0000698420D01*
X0001678543Y0000708262D01*
X0001678543Y0000760489D01*
X0001677158Y0000767451D01*
X0001678214Y0000768507D01*
X0001678938Y0000769566D01*
X0001683750Y0000766351D01*
X0001692826Y0000764545D01*
X0001732826Y0000764545D01*
X0001741902Y0000766351D01*
X0001749596Y0000771492D01*
X0001862650Y0000884545D01*
X0002059983Y0000884545D01*
X0002069059Y0000886351D01*
X0002076753Y0000891492D01*
X0002137651Y0000952389D01*
X0002150723Y0000949789D01*
X0002169556Y0000953535D01*
X0002185522Y0000964203D01*
X0002186885Y0000965566D01*
X0002197553Y0000981532D01*
X0002201299Y0001000365D01*
X0002197553Y0001019198D01*
X0002195848Y0001021750D01*
X0002207507Y0001016920D01*
X0002229083Y0001015400D01*
X0002249598Y0001022252D01*
X0002252559Y0001031376D01*
X0002254457Y0001029477D01*
G36*
X0002168070Y0001152049D02*
X0002210363Y0001123790D01*
X0002194633Y0001118535D01*
X0002191672Y0001109412D01*
X0002222115Y0001078968D01*
X0002222672Y0001079525D01*
X0002231247Y0001070951D01*
X0002230690Y0001070394D01*
X0002231247Y0001069837D01*
X0002222672Y0001061263D01*
X0002222115Y0001061819D01*
X0002221559Y0001061263D01*
X0002212984Y0001069837D01*
X0002213541Y0001070394D01*
X0002183097Y0001100837D01*
X0002173974Y0001097876D01*
X0002167121Y0001077361D01*
X0002168641Y0001055786D01*
X0002173471Y0001044126D01*
X0002170919Y0001045831D01*
X0002152086Y0001049577D01*
X0002133254Y0001045831D01*
X0002117288Y0001035163D01*
X0002115924Y0001033800D01*
X0002105256Y0001017834D01*
X0002101510Y0000999001D01*
X0002104111Y0000985929D01*
X0002050160Y0000931978D01*
X0001852826Y0000931978D01*
X0001843750Y0000930173D01*
X0001836056Y0000925032D01*
X0001723002Y0000811978D01*
X0001721686Y0000811978D01*
X0001746698Y0000836991D01*
X0001750467Y0000842507D01*
X0001751987Y0000849514D01*
X0001750661Y0000856561D01*
X0001746698Y0000862537D01*
X0001730084Y0000879151D01*
X0001791010Y0000940077D01*
X0001796585Y0000948420D01*
X0001798543Y0000958262D01*
X0001798543Y0000970097D01*
X0001863236Y0000970097D01*
X0001874486Y0000953885D01*
X0001919631Y0000935677D01*
X0001968308Y0000936132D01*
X0002011166Y0000953885D01*
X0002022416Y0000970097D01*
X0001942826Y0001049687D01*
X0001863236Y0000970097D01*
X0001798543Y0000970097D01*
X0001798543Y0001008262D01*
X0001796585Y0001018103D01*
X0001791010Y0001026446D01*
X0001764047Y0001053409D01*
X0001764048Y0001054444D01*
X0001759306Y0001065921D01*
X0001750532Y0001074710D01*
X0001739063Y0001079473D01*
X0001726644Y0001079484D01*
X0001715166Y0001074741D01*
X0001706377Y0001065968D01*
X0001701615Y0001054498D01*
X0001701604Y0001042080D01*
X0001706347Y0001030602D01*
X0001715120Y0001021813D01*
X0001726589Y0001017051D01*
X0001727669Y0001017050D01*
X0001747110Y0000997610D01*
X0001747110Y0000968914D01*
X0001693715Y0000915519D01*
X0001677101Y0000932134D01*
X0001671585Y0000935903D01*
X0001664577Y0000937423D01*
X0001657531Y0000936097D01*
X0001651555Y0000932134D01*
X0001618148Y0000898727D01*
X0001617236Y0000897392D01*
X0001552174Y0000962454D01*
X0001595482Y0000962454D01*
X0001600865Y0000949426D01*
X0001610824Y0000939450D01*
X0001623842Y0000934044D01*
X0001637938Y0000934032D01*
X0001650966Y0000939415D01*
X0001660942Y0000949373D01*
X0001666348Y0000962392D01*
X0001666360Y0000976488D01*
X0001660977Y0000989516D01*
X0001651019Y0000999492D01*
X0001638000Y0001004898D01*
X0001623904Y0001004910D01*
X0001610876Y0000999527D01*
X0001600900Y0000989568D01*
X0001595494Y0000976550D01*
X0001595482Y0000962454D01*
X0001552174Y0000962454D01*
X0001534045Y0000980583D01*
X0001534048Y0000984444D01*
X0001529306Y0000995921D01*
X0001520532Y0001004710D01*
X0001514975Y0001007018D01*
X0001526629Y0001024459D01*
X0001611932Y0001081456D01*
X0001820242Y0001081456D01*
X0001820697Y0001032780D01*
X0001838449Y0000989922D01*
X0001854662Y0000978672D01*
X0001934252Y0001058262D01*
X0001951400Y0001058262D01*
X0002030990Y0000978672D01*
X0002047203Y0000989922D01*
X0002065410Y0001035067D01*
X0002064955Y0001083744D01*
X0002047203Y0001126602D01*
X0002030990Y0001137852D01*
X0001951400Y0001058262D01*
X0001934252Y0001058262D01*
X0001854662Y0001137852D01*
X0001838449Y0001126602D01*
X0001820242Y0001081456D01*
X0001611932Y0001081456D01*
X0001709167Y0001146426D01*
X0001863236Y0001146426D01*
X0001942826Y0001066836D01*
X0002022416Y0001146426D01*
X0002011166Y0001162639D01*
X0001966021Y0001180846D01*
X0001917344Y0001180391D01*
X0001874486Y0001162639D01*
X0001863236Y0001146426D01*
X0001709167Y0001146426D01*
X0001717582Y0001152049D01*
X0001942826Y0001196853D01*
X0002168070Y0001152049D01*
X0002168070Y0001152049D01*
G37*
X0002168070Y0001152049D02*
X0002210363Y0001123790D01*
X0002194633Y0001118535D01*
X0002191672Y0001109412D01*
X0002222115Y0001078968D01*
X0002222672Y0001079525D01*
X0002231247Y0001070951D01*
X0002230690Y0001070394D01*
X0002231247Y0001069837D01*
X0002222672Y0001061263D01*
X0002222115Y0001061819D01*
X0002221559Y0001061263D01*
X0002212984Y0001069837D01*
X0002213541Y0001070394D01*
X0002183097Y0001100837D01*
X0002173974Y0001097876D01*
X0002167121Y0001077361D01*
X0002168641Y0001055786D01*
X0002173471Y0001044126D01*
X0002170919Y0001045831D01*
X0002152086Y0001049577D01*
X0002133254Y0001045831D01*
X0002117288Y0001035163D01*
X0002115924Y0001033800D01*
X0002105256Y0001017834D01*
X0002101510Y0000999001D01*
X0002104111Y0000985929D01*
X0002050160Y0000931978D01*
X0001852826Y0000931978D01*
X0001843750Y0000930173D01*
X0001836056Y0000925032D01*
X0001723002Y0000811978D01*
X0001721686Y0000811978D01*
X0001746698Y0000836991D01*
X0001750467Y0000842507D01*
X0001751987Y0000849514D01*
X0001750661Y0000856561D01*
X0001746698Y0000862537D01*
X0001730084Y0000879151D01*
X0001791010Y0000940077D01*
X0001796585Y0000948420D01*
X0001798543Y0000958262D01*
X0001798543Y0000970097D01*
X0001863236Y0000970097D01*
X0001874486Y0000953885D01*
X0001919631Y0000935677D01*
X0001968308Y0000936132D01*
X0002011166Y0000953885D01*
X0002022416Y0000970097D01*
X0001942826Y0001049687D01*
X0001863236Y0000970097D01*
X0001798543Y0000970097D01*
X0001798543Y0001008262D01*
X0001796585Y0001018103D01*
X0001791010Y0001026446D01*
X0001764047Y0001053409D01*
X0001764048Y0001054444D01*
X0001759306Y0001065921D01*
X0001750532Y0001074710D01*
X0001739063Y0001079473D01*
X0001726644Y0001079484D01*
X0001715166Y0001074741D01*
X0001706377Y0001065968D01*
X0001701615Y0001054498D01*
X0001701604Y0001042080D01*
X0001706347Y0001030602D01*
X0001715120Y0001021813D01*
X0001726589Y0001017051D01*
X0001727669Y0001017050D01*
X0001747110Y0000997610D01*
X0001747110Y0000968914D01*
X0001693715Y0000915519D01*
X0001677101Y0000932134D01*
X0001671585Y0000935903D01*
X0001664577Y0000937423D01*
X0001657531Y0000936097D01*
X0001651555Y0000932134D01*
X0001618148Y0000898727D01*
X0001617236Y0000897392D01*
X0001552174Y0000962454D01*
X0001595482Y0000962454D01*
X0001600865Y0000949426D01*
X0001610824Y0000939450D01*
X0001623842Y0000934044D01*
X0001637938Y0000934032D01*
X0001650966Y0000939415D01*
X0001660942Y0000949373D01*
X0001666348Y0000962392D01*
X0001666360Y0000976488D01*
X0001660977Y0000989516D01*
X0001651019Y0000999492D01*
X0001638000Y0001004898D01*
X0001623904Y0001004910D01*
X0001610876Y0000999527D01*
X0001600900Y0000989568D01*
X0001595494Y0000976550D01*
X0001595482Y0000962454D01*
X0001552174Y0000962454D01*
X0001534045Y0000980583D01*
X0001534048Y0000984444D01*
X0001529306Y0000995921D01*
X0001520532Y0001004710D01*
X0001514975Y0001007018D01*
X0001526629Y0001024459D01*
X0001611932Y0001081456D01*
X0001820242Y0001081456D01*
X0001820697Y0001032780D01*
X0001838449Y0000989922D01*
X0001854662Y0000978672D01*
X0001934252Y0001058262D01*
X0001951400Y0001058262D01*
X0002030990Y0000978672D01*
X0002047203Y0000989922D01*
X0002065410Y0001035067D01*
X0002064955Y0001083744D01*
X0002047203Y0001126602D01*
X0002030990Y0001137852D01*
X0001951400Y0001058262D01*
X0001934252Y0001058262D01*
X0001854662Y0001137852D01*
X0001838449Y0001126602D01*
X0001820242Y0001081456D01*
X0001611932Y0001081456D01*
X0001709167Y0001146426D01*
X0001863236Y0001146426D01*
X0001942826Y0001066836D01*
X0002022416Y0001146426D01*
X0002011166Y0001162639D01*
X0001966021Y0001180846D01*
X0001917344Y0001180391D01*
X0001874486Y0001162639D01*
X0001863236Y0001146426D01*
X0001709167Y0001146426D01*
X0001717582Y0001152049D01*
X0001942826Y0001196853D01*
X0002168070Y0001152049D01*
G04 next file*
G04 #@! TF.FileFunction,Copper,L2,Bot,Signal*
G04 Gerber Fmt 4.6, Leading zero omitted, Abs format (unit mm)*
G04 Created by KiCad (PCBNEW 4.0.7) date 09/05/18 21:08:50*
G01*
G04 APERTURE LIST*
G04 APERTURE END LIST*
D60*
D61*
X-0004922567Y0004208262D02*
X0003277432Y0001058262D03*
D62*
X0003277432Y0000408262D03*
D63*
X0003727432Y0000408262D03*
X0002827432Y0000408262D03*
D60*
G36*
X0003627432Y0000813720D02*
X0003582890Y0000858262D01*
X0003627432Y0000902804D01*
X0003671975Y0000858262D01*
X0003627432Y0000813720D01*
X0003627432Y0000813720D01*
G37*
D64*
X0003698143Y0000928972D03*
D65*
X0003556722Y0000928972D02*
X0003556722Y0000928972D01*
X0003627432Y0000999683D02*
X0003627432Y0000999683D01*
X0003486011Y0000999683D02*
X0003486011Y0000999683D01*
X0003556722Y0001070394D02*
X0003556722Y0001070394D01*
D60*
G36*
X0002895931Y0000677163D02*
X0002826333Y0000746760D01*
X0002859740Y0000780167D01*
X0002929337Y0000710569D01*
X0002895931Y0000677163D01*
X0002895931Y0000677163D01*
G37*
G36*
X0002966641Y0000747873D02*
X0002897044Y0000817471D01*
X0002930451Y0000850877D01*
X0003000048Y0000781280D01*
X0002966641Y0000747873D01*
X0002966641Y0000747873D01*
G37*
G36*
X0003035125Y0000816357D02*
X0002965528Y0000885954D01*
X0002998934Y0000919361D01*
X0003068531Y0000849764D01*
X0003035125Y0000816357D01*
X0003035125Y0000816357D01*
G37*
D66*
X0002902432Y0000208262D03*
X0003627432Y0000183262D03*
X0003067432Y0001048262D03*
X0003777432Y0000638262D03*
X0003627432Y0000638262D03*
X0003577432Y0000638262D03*
X0003677432Y0000638262D03*
X0002837432Y0000978262D03*
D67*
X0003277432Y0001058262D02*
X0003327432Y0001058262D01*
X0003327432Y0001058262D02*
X0003377432Y0001108262D01*
X0003518854Y0001108262D02*
X0003556722Y0001070394D01*
X0003377432Y0001108262D02*
X0003518854Y0001108262D01*
X0003277432Y0000408262D02*
X0003102432Y0000408262D01*
X0003102432Y0000408262D02*
X0002902432Y0000208262D01*
X0003277432Y0000408262D02*
X0003402432Y0000408262D01*
X0003402432Y0000408262D02*
X0003627432Y0000183262D01*
X0003107432Y0000958262D02*
X0003017030Y0000867859D01*
X0003107432Y0001008262D02*
X0003107432Y0000958262D01*
X0003067432Y0001048262D02*
X0003107432Y0001008262D01*
X0003017030Y0000868665D02*
X0003017030Y0000867859D01*
X0003752432Y0000683262D02*
X0003752432Y0000663262D01*
X0003752432Y0000683262D02*
X0003752432Y0000874683D01*
X0003698143Y0000928972D02*
X0003752432Y0000874683D01*
X0003752432Y0000663262D02*
X0003777432Y0000638262D01*
X0003037432Y0000850489D02*
X0003003546Y0000884375D01*
X0003001319Y0000884375D02*
X0003003546Y0000884375D01*
D68*
X0003627432Y0000638262D02*
X0003627432Y0000858262D01*
X0003557432Y0000678262D02*
X0003556722Y0000678972D01*
X0003557432Y0000658262D02*
X0003557432Y0000678262D01*
X0003577432Y0000638262D02*
X0003557432Y0000658262D01*
X0003556722Y0000678972D02*
X0003556722Y0000928972D01*
X0003677432Y0000883262D02*
X0003702432Y0000858262D01*
X0003677432Y0000883262D02*
X0003627432Y0000933262D01*
X0003627432Y0000999683D02*
X0003627432Y0000933262D01*
X0003702432Y0000683262D02*
X0003677432Y0000638262D01*
X0003702432Y0000758262D02*
X0003702432Y0000683262D01*
X0003702432Y0000858262D02*
X0003702432Y0000758262D01*
X0003394590Y0000908262D02*
X0003486011Y0000999683D01*
X0003187432Y0000908262D02*
X0003394590Y0000908262D01*
X0003067432Y0000788262D02*
X0003187432Y0000908262D01*
X0003027432Y0000788262D02*
X0003067432Y0000788262D01*
X0002837432Y0000978262D02*
X0003027432Y0000788262D01*
D67*
X0002827432Y0000558262D02*
X0002837432Y0000558262D01*
X0002827432Y0000408262D02*
X0002827432Y0000558262D01*
X0002987432Y0000760489D02*
X0002948546Y0000799375D01*
X0002987432Y0000708262D02*
X0002987432Y0000760489D01*
X0002837432Y0000558262D02*
X0002987432Y0000708262D01*
D69*
G36*
X0003589064Y0001029477D02*
X0003581284Y0001017834D01*
X0003577538Y0000999001D01*
X0003581284Y0000980169D01*
X0003591449Y0000964956D01*
X0003576236Y0000975121D01*
X0003557403Y0000978867D01*
X0003538571Y0000975121D01*
X0003522605Y0000964453D01*
X0003521241Y0000963089D01*
X0003510574Y0000947124D01*
X0003506827Y0000928291D01*
X0003510574Y0000909458D01*
X0003521241Y0000893492D01*
X0003533005Y0000885632D01*
X0003533005Y0000683407D01*
X0003496600Y0000720235D01*
X0003360530Y0000780359D01*
X0003211809Y0000783835D01*
X0003073079Y0000730133D01*
X0003058265Y0000720235D01*
X0003016392Y0000677876D01*
X0003277432Y0000416836D01*
X0003277989Y0000417393D01*
X0003286564Y0000408819D01*
X0003286007Y0000408262D01*
X0003547047Y0000147222D01*
X0003589405Y0000189095D01*
X0003649529Y0000325164D01*
X0003653005Y0000473885D01*
X0003599303Y0000612615D01*
X0003597952Y0000614638D01*
X0003602438Y0000619115D01*
X0003609727Y0000611813D01*
X0003621196Y0000607051D01*
X0003633615Y0000607040D01*
X0003645092Y0000611782D01*
X0003652438Y0000619115D01*
X0003659727Y0000611813D01*
X0003671196Y0000607051D01*
X0003683615Y0000607040D01*
X0003695092Y0000611782D01*
X0003703881Y0000620556D01*
X0003708644Y0000632025D01*
X0003708654Y0000644444D01*
X0003708374Y0000645122D01*
X0003723164Y0000671744D01*
X0003723583Y0000673047D01*
X0003724344Y0000674186D01*
X0003724986Y0000677418D01*
X0003725994Y0000680555D01*
X0003725882Y0000681919D01*
X0003726149Y0000683262D01*
X0003726149Y0000858262D01*
X0003724576Y0000866171D01*
X0003726716Y0000864031D01*
X0003726716Y0000663262D01*
X0003728673Y0000653420D01*
X0003734248Y0000645077D01*
X0003746211Y0000633114D01*
X0003746210Y0000632080D01*
X0003750953Y0000620602D01*
X0003759727Y0000611813D01*
X0003771196Y0000607051D01*
X0003783615Y0000607040D01*
X0003795092Y0000611782D01*
X0003803881Y0000620556D01*
X0003808644Y0000632025D01*
X0003808654Y0000644444D01*
X0003803912Y0000655921D01*
X0003795138Y0000664710D01*
X0003783669Y0000669473D01*
X0003782589Y0000669474D01*
X0003778149Y0000673914D01*
X0003778149Y0000874683D01*
X0003776191Y0000884524D01*
X0003770617Y0000892867D01*
X0003746466Y0000917018D01*
X0003747347Y0000919141D01*
X0003747364Y0000938719D01*
X0003741604Y0000952660D01*
X0003821220Y0000833506D01*
X0003866024Y0000608262D01*
X0003821220Y0000383018D01*
X0003795496Y0000344519D01*
X0003795496Y0000508262D01*
X0003794261Y0000514827D01*
X0003790381Y0000520857D01*
X0003784460Y0000524902D01*
X0003777432Y0000526325D01*
X0003677432Y0000526325D01*
X0003670867Y0000525090D01*
X0003664837Y0000521210D01*
X0003660792Y0000515290D01*
X0003659369Y0000508262D01*
X0003659369Y0000308262D01*
X0003660604Y0000301696D01*
X0003664484Y0000295667D01*
X0003670405Y0000291621D01*
X0003677432Y0000290198D01*
X0003759200Y0000290198D01*
X0003693629Y0000192065D01*
X0003502677Y0000064474D01*
X0003343241Y0000032761D01*
X0003481786Y0000086391D01*
X0003496600Y0000096289D01*
X0003538473Y0000138647D01*
X0003277432Y0000399687D01*
X0003016392Y0000138647D01*
X0003058265Y0000096289D01*
X0003194191Y0000036228D01*
X0003052188Y0000064474D01*
X0002861236Y0000192065D01*
X0002795665Y0000290198D01*
X0002877432Y0000290198D01*
X0002883998Y0000291434D01*
X0002890028Y0000295314D01*
X0002894073Y0000301234D01*
X0002895496Y0000308262D01*
X0002895496Y0000342638D01*
X0002901860Y0000342638D01*
X0002955561Y0000203908D01*
X0002965460Y0000189095D01*
X0003007818Y0000147222D01*
X0003268858Y0000408262D01*
X0003007818Y0000669302D01*
X0002965460Y0000627429D01*
X0002905335Y0000491359D01*
X0002901860Y0000342638D01*
X0002895496Y0000342638D01*
X0002895496Y0000508262D01*
X0002894261Y0000514827D01*
X0002890381Y0000520857D01*
X0002884460Y0000524902D01*
X0002877432Y0000526325D01*
X0002853149Y0000526325D01*
X0002853149Y0000538429D01*
X0002855617Y0000540077D01*
X0003005617Y0000690077D01*
X0003007638Y0000693103D01*
X0003011191Y0000698420D01*
X0003013149Y0000708262D01*
X0003013149Y0000760489D01*
X0003011764Y0000767451D01*
X0003012821Y0000768507D01*
X0003013544Y0000769566D01*
X0003018356Y0000766351D01*
X0003027432Y0000764545D01*
X0003067432Y0000764545D01*
X0003076508Y0000766351D01*
X0003084203Y0000771492D01*
X0003197256Y0000884545D01*
X0003394590Y0000884545D01*
X0003403666Y0000886351D01*
X0003411360Y0000891492D01*
X0003472257Y0000952389D01*
X0003485329Y0000949789D01*
X0003504162Y0000953535D01*
X0003520128Y0000964203D01*
X0003521491Y0000965566D01*
X0003532159Y0000981532D01*
X0003535905Y0001000365D01*
X0003532159Y0001019198D01*
X0003530454Y0001021750D01*
X0003542114Y0001016920D01*
X0003563689Y0001015400D01*
X0003584204Y0001022252D01*
X0003587165Y0001031376D01*
X0003589064Y0001029477D01*
X0003589064Y0001029477D01*
G37*
X0003589064Y0001029477D02*
X0003581284Y0001017834D01*
X0003577538Y0000999001D01*
X0003581284Y0000980169D01*
X0003591449Y0000964956D01*
X0003576236Y0000975121D01*
X0003557403Y0000978867D01*
X0003538571Y0000975121D01*
X0003522605Y0000964453D01*
X0003521241Y0000963089D01*
X0003510574Y0000947124D01*
X0003506827Y0000928291D01*
X0003510574Y0000909458D01*
X0003521241Y0000893492D01*
X0003533005Y0000885632D01*
X0003533005Y0000683407D01*
X0003496600Y0000720235D01*
X0003360530Y0000780359D01*
X0003211809Y0000783835D01*
X0003073079Y0000730133D01*
X0003058265Y0000720235D01*
X0003016392Y0000677876D01*
X0003277432Y0000416836D01*
X0003277989Y0000417393D01*
X0003286564Y0000408819D01*
X0003286007Y0000408262D01*
X0003547047Y0000147222D01*
X0003589405Y0000189095D01*
X0003649529Y0000325164D01*
X0003653005Y0000473885D01*
X0003599303Y0000612615D01*
X0003597952Y0000614638D01*
X0003602438Y0000619115D01*
X0003609727Y0000611813D01*
X0003621196Y0000607051D01*
X0003633615Y0000607040D01*
X0003645092Y0000611782D01*
X0003652438Y0000619115D01*
X0003659727Y0000611813D01*
X0003671196Y0000607051D01*
X0003683615Y0000607040D01*
X0003695092Y0000611782D01*
X0003703881Y0000620556D01*
X0003708644Y0000632025D01*
X0003708654Y0000644444D01*
X0003708374Y0000645122D01*
X0003723164Y0000671744D01*
X0003723583Y0000673047D01*
X0003724344Y0000674186D01*
X0003724986Y0000677418D01*
X0003725994Y0000680555D01*
X0003725882Y0000681919D01*
X0003726149Y0000683262D01*
X0003726149Y0000858262D01*
X0003724576Y0000866171D01*
X0003726716Y0000864031D01*
X0003726716Y0000663262D01*
X0003728673Y0000653420D01*
X0003734248Y0000645077D01*
X0003746211Y0000633114D01*
X0003746210Y0000632080D01*
X0003750953Y0000620602D01*
X0003759727Y0000611813D01*
X0003771196Y0000607051D01*
X0003783615Y0000607040D01*
X0003795092Y0000611782D01*
X0003803881Y0000620556D01*
X0003808644Y0000632025D01*
X0003808654Y0000644444D01*
X0003803912Y0000655921D01*
X0003795138Y0000664710D01*
X0003783669Y0000669473D01*
X0003782589Y0000669474D01*
X0003778149Y0000673914D01*
X0003778149Y0000874683D01*
X0003776191Y0000884524D01*
X0003770617Y0000892867D01*
X0003746466Y0000917018D01*
X0003747347Y0000919141D01*
X0003747364Y0000938719D01*
X0003741604Y0000952660D01*
X0003821220Y0000833506D01*
X0003866024Y0000608262D01*
X0003821220Y0000383018D01*
X0003795496Y0000344519D01*
X0003795496Y0000508262D01*
X0003794261Y0000514827D01*
X0003790381Y0000520857D01*
X0003784460Y0000524902D01*
X0003777432Y0000526325D01*
X0003677432Y0000526325D01*
X0003670867Y0000525090D01*
X0003664837Y0000521210D01*
X0003660792Y0000515290D01*
X0003659369Y0000508262D01*
X0003659369Y0000308262D01*
X0003660604Y0000301696D01*
X0003664484Y0000295667D01*
X0003670405Y0000291621D01*
X0003677432Y0000290198D01*
X0003759200Y0000290198D01*
X0003693629Y0000192065D01*
X0003502677Y0000064474D01*
X0003343241Y0000032761D01*
X0003481786Y0000086391D01*
X0003496600Y0000096289D01*
X0003538473Y0000138647D01*
X0003277432Y0000399687D01*
X0003016392Y0000138647D01*
X0003058265Y0000096289D01*
X0003194191Y0000036228D01*
X0003052188Y0000064474D01*
X0002861236Y0000192065D01*
X0002795665Y0000290198D01*
X0002877432Y0000290198D01*
X0002883998Y0000291434D01*
X0002890028Y0000295314D01*
X0002894073Y0000301234D01*
X0002895496Y0000308262D01*
X0002895496Y0000342638D01*
X0002901860Y0000342638D01*
X0002955561Y0000203908D01*
X0002965460Y0000189095D01*
X0003007818Y0000147222D01*
X0003268858Y0000408262D01*
X0003007818Y0000669302D01*
X0002965460Y0000627429D01*
X0002905335Y0000491359D01*
X0002901860Y0000342638D01*
X0002895496Y0000342638D01*
X0002895496Y0000508262D01*
X0002894261Y0000514827D01*
X0002890381Y0000520857D01*
X0002884460Y0000524902D01*
X0002877432Y0000526325D01*
X0002853149Y0000526325D01*
X0002853149Y0000538429D01*
X0002855617Y0000540077D01*
X0003005617Y0000690077D01*
X0003007638Y0000693103D01*
X0003011191Y0000698420D01*
X0003013149Y0000708262D01*
X0003013149Y0000760489D01*
X0003011764Y0000767451D01*
X0003012821Y0000768507D01*
X0003013544Y0000769566D01*
X0003018356Y0000766351D01*
X0003027432Y0000764545D01*
X0003067432Y0000764545D01*
X0003076508Y0000766351D01*
X0003084203Y0000771492D01*
X0003197256Y0000884545D01*
X0003394590Y0000884545D01*
X0003403666Y0000886351D01*
X0003411360Y0000891492D01*
X0003472257Y0000952389D01*
X0003485329Y0000949789D01*
X0003504162Y0000953535D01*
X0003520128Y0000964203D01*
X0003521491Y0000965566D01*
X0003532159Y0000981532D01*
X0003535905Y0001000365D01*
X0003532159Y0001019198D01*
X0003530454Y0001021750D01*
X0003542114Y0001016920D01*
X0003563689Y0001015400D01*
X0003584204Y0001022252D01*
X0003587165Y0001031376D01*
X0003589064Y0001029477D01*
G36*
X0003502677Y0001152049D02*
X0003544970Y0001123790D01*
X0003529239Y0001118535D01*
X0003526278Y0001109412D01*
X0003556722Y0001078968D01*
X0003557279Y0001079525D01*
X0003565853Y0001070951D01*
X0003565296Y0001070394D01*
X0003565853Y0001069837D01*
X0003557279Y0001061263D01*
X0003556722Y0001061819D01*
X0003556165Y0001061263D01*
X0003547591Y0001069837D01*
X0003548147Y0001070394D01*
X0003517704Y0001100837D01*
X0003508580Y0001097876D01*
X0003501728Y0001077361D01*
X0003503248Y0001055786D01*
X0003508078Y0001044126D01*
X0003505526Y0001045831D01*
X0003486693Y0001049577D01*
X0003467860Y0001045831D01*
X0003451894Y0001035163D01*
X0003450531Y0001033800D01*
X0003439863Y0001017834D01*
X0003436117Y0000999001D01*
X0003438717Y0000985929D01*
X0003384766Y0000931978D01*
X0003187432Y0000931978D01*
X0003178356Y0000930173D01*
X0003170662Y0000925032D01*
X0003057609Y0000811978D01*
X0003056292Y0000811978D01*
X0003081304Y0000836991D01*
X0003085073Y0000842507D01*
X0003086593Y0000849514D01*
X0003085267Y0000856561D01*
X0003081304Y0000862537D01*
X0003064690Y0000879151D01*
X0003125617Y0000940077D01*
X0003131191Y0000948420D01*
X0003133149Y0000958262D01*
X0003133149Y0000970097D01*
X0003197842Y0000970097D01*
X0003209092Y0000953885D01*
X0003254238Y0000935677D01*
X0003302914Y0000936132D01*
X0003345772Y0000953885D01*
X0003357022Y0000970097D01*
X0003277432Y0001049687D01*
X0003197842Y0000970097D01*
X0003133149Y0000970097D01*
X0003133149Y0001008262D01*
X0003131191Y0001018103D01*
X0003125617Y0001026446D01*
X0003098653Y0001053409D01*
X0003098654Y0001054444D01*
X0003093912Y0001065921D01*
X0003085138Y0001074710D01*
X0003073669Y0001079473D01*
X0003061250Y0001079484D01*
X0003049773Y0001074741D01*
X0003040984Y0001065968D01*
X0003036221Y0001054498D01*
X0003036210Y0001042080D01*
X0003040953Y0001030602D01*
X0003049727Y0001021813D01*
X0003061196Y0001017051D01*
X0003062276Y0001017050D01*
X0003081716Y0000997610D01*
X0003081716Y0000968914D01*
X0003028321Y0000915519D01*
X0003011707Y0000932134D01*
X0003006191Y0000935903D01*
X0002999184Y0000937423D01*
X0002992137Y0000936097D01*
X0002986161Y0000932134D01*
X0002952755Y0000898727D01*
X0002951842Y0000897392D01*
X0002886781Y0000962454D01*
X0002930088Y0000962454D01*
X0002935471Y0000949426D01*
X0002945430Y0000939450D01*
X0002958449Y0000934044D01*
X0002972545Y0000934032D01*
X0002985573Y0000939415D01*
X0002995549Y0000949373D01*
X0003000955Y0000962392D01*
X0003000967Y0000976488D01*
X0002995584Y0000989516D01*
X0002985625Y0000999492D01*
X0002972607Y0001004898D01*
X0002958510Y0001004910D01*
X0002945483Y0000999527D01*
X0002935506Y0000989568D01*
X0002930101Y0000976550D01*
X0002930088Y0000962454D01*
X0002886781Y0000962454D01*
X0002868651Y0000980583D01*
X0002868654Y0000984444D01*
X0002863912Y0000995921D01*
X0002855138Y0001004710D01*
X0002849582Y0001007018D01*
X0002861236Y0001024459D01*
X0002946539Y0001081456D01*
X0003154848Y0001081456D01*
X0003155303Y0001032780D01*
X0003173055Y0000989922D01*
X0003189268Y0000978672D01*
X0003268858Y0001058262D01*
X0003286007Y0001058262D01*
X0003365597Y0000978672D01*
X0003381809Y0000989922D01*
X0003400017Y0001035067D01*
X0003399562Y0001083744D01*
X0003381809Y0001126602D01*
X0003365597Y0001137852D01*
X0003286007Y0001058262D01*
X0003268858Y0001058262D01*
X0003189268Y0001137852D01*
X0003173055Y0001126602D01*
X0003154848Y0001081456D01*
X0002946539Y0001081456D01*
X0003043773Y0001146426D01*
X0003197842Y0001146426D01*
X0003277432Y0001066836D01*
X0003357022Y0001146426D01*
X0003345772Y0001162639D01*
X0003300627Y0001180846D01*
X0003251950Y0001180391D01*
X0003209092Y0001162639D01*
X0003197842Y0001146426D01*
X0003043773Y0001146426D01*
X0003052188Y0001152049D01*
X0003277432Y0001196853D01*
X0003502677Y0001152049D01*
X0003502677Y0001152049D01*
G37*
X0003502677Y0001152049D02*
X0003544970Y0001123790D01*
X0003529239Y0001118535D01*
X0003526278Y0001109412D01*
X0003556722Y0001078968D01*
X0003557279Y0001079525D01*
X0003565853Y0001070951D01*
X0003565296Y0001070394D01*
X0003565853Y0001069837D01*
X0003557279Y0001061263D01*
X0003556722Y0001061819D01*
X0003556165Y0001061263D01*
X0003547591Y0001069837D01*
X0003548147Y0001070394D01*
X0003517704Y0001100837D01*
X0003508580Y0001097876D01*
X0003501728Y0001077361D01*
X0003503248Y0001055786D01*
X0003508078Y0001044126D01*
X0003505526Y0001045831D01*
X0003486693Y0001049577D01*
X0003467860Y0001045831D01*
X0003451894Y0001035163D01*
X0003450531Y0001033800D01*
X0003439863Y0001017834D01*
X0003436117Y0000999001D01*
X0003438717Y0000985929D01*
X0003384766Y0000931978D01*
X0003187432Y0000931978D01*
X0003178356Y0000930173D01*
X0003170662Y0000925032D01*
X0003057609Y0000811978D01*
X0003056292Y0000811978D01*
X0003081304Y0000836991D01*
X0003085073Y0000842507D01*
X0003086593Y0000849514D01*
X0003085267Y0000856561D01*
X0003081304Y0000862537D01*
X0003064690Y0000879151D01*
X0003125617Y0000940077D01*
X0003131191Y0000948420D01*
X0003133149Y0000958262D01*
X0003133149Y0000970097D01*
X0003197842Y0000970097D01*
X0003209092Y0000953885D01*
X0003254238Y0000935677D01*
X0003302914Y0000936132D01*
X0003345772Y0000953885D01*
X0003357022Y0000970097D01*
X0003277432Y0001049687D01*
X0003197842Y0000970097D01*
X0003133149Y0000970097D01*
X0003133149Y0001008262D01*
X0003131191Y0001018103D01*
X0003125617Y0001026446D01*
X0003098653Y0001053409D01*
X0003098654Y0001054444D01*
X0003093912Y0001065921D01*
X0003085138Y0001074710D01*
X0003073669Y0001079473D01*
X0003061250Y0001079484D01*
X0003049773Y0001074741D01*
X0003040984Y0001065968D01*
X0003036221Y0001054498D01*
X0003036210Y0001042080D01*
X0003040953Y0001030602D01*
X0003049727Y0001021813D01*
X0003061196Y0001017051D01*
X0003062276Y0001017050D01*
X0003081716Y0000997610D01*
X0003081716Y0000968914D01*
X0003028321Y0000915519D01*
X0003011707Y0000932134D01*
X0003006191Y0000935903D01*
X0002999184Y0000937423D01*
X0002992137Y0000936097D01*
X0002986161Y0000932134D01*
X0002952755Y0000898727D01*
X0002951842Y0000897392D01*
X0002886781Y0000962454D01*
X0002930088Y0000962454D01*
X0002935471Y0000949426D01*
X0002945430Y0000939450D01*
X0002958449Y0000934044D01*
X0002972545Y0000934032D01*
X0002985573Y0000939415D01*
X0002995549Y0000949373D01*
X0003000955Y0000962392D01*
X0003000967Y0000976488D01*
X0002995584Y0000989516D01*
X0002985625Y0000999492D01*
X0002972607Y0001004898D01*
X0002958510Y0001004910D01*
X0002945483Y0000999527D01*
X0002935506Y0000989568D01*
X0002930101Y0000976550D01*
X0002930088Y0000962454D01*
X0002886781Y0000962454D01*
X0002868651Y0000980583D01*
X0002868654Y0000984444D01*
X0002863912Y0000995921D01*
X0002855138Y0001004710D01*
X0002849582Y0001007018D01*
X0002861236Y0001024459D01*
X0002946539Y0001081456D01*
X0003154848Y0001081456D01*
X0003155303Y0001032780D01*
X0003173055Y0000989922D01*
X0003189268Y0000978672D01*
X0003268858Y0001058262D01*
X0003286007Y0001058262D01*
X0003365597Y0000978672D01*
X0003381809Y0000989922D01*
X0003400017Y0001035067D01*
X0003399562Y0001083744D01*
X0003381809Y0001126602D01*
X0003365597Y0001137852D01*
X0003286007Y0001058262D01*
X0003268858Y0001058262D01*
X0003189268Y0001137852D01*
X0003173055Y0001126602D01*
X0003154848Y0001081456D01*
X0002946539Y0001081456D01*
X0003043773Y0001146426D01*
X0003197842Y0001146426D01*
X0003277432Y0001066836D01*
X0003357022Y0001146426D01*
X0003345772Y0001162639D01*
X0003300627Y0001180846D01*
X0003251950Y0001180391D01*
X0003209092Y0001162639D01*
X0003197842Y0001146426D01*
X0003043773Y0001146426D01*
X0003052188Y0001152049D01*
X0003277432Y0001196853D01*
X0003502677Y0001152049D01*
G04 next file*
G04 #@! TF.FileFunction,Copper,L2,Bot,Signal*
G04 Gerber Fmt 4.6, Leading zero omitted, Abs format (unit mm)*
G04 Created by KiCad (PCBNEW 4.0.7) date 09/05/18 21:08:50*
G01*
G04 APERTURE LIST*
G04 APERTURE END LIST*
D70*
D71*
X-0006257173Y0005542896D02*
X0001942826Y0002392896D03*
D72*
X0001942826Y0001742896D03*
D73*
X0002392826Y0001742896D03*
X0001492826Y0001742896D03*
D70*
G36*
X0002292826Y0002148354D02*
X0002248284Y0002192896D01*
X0002292826Y0002237439D01*
X0002337368Y0002192896D01*
X0002292826Y0002148354D01*
X0002292826Y0002148354D01*
G37*
D74*
X0002363537Y0002263607D03*
D75*
X0002222115Y0002263607D02*
X0002222115Y0002263607D01*
X0002292826Y0002334318D02*
X0002292826Y0002334318D01*
X0002151405Y0002334318D02*
X0002151405Y0002334318D01*
X0002222115Y0002405028D02*
X0002222115Y0002405028D01*
D70*
G36*
X0001561324Y0002011797D02*
X0001491727Y0002081395D01*
X0001525134Y0002114801D01*
X0001594731Y0002045204D01*
X0001561324Y0002011797D01*
X0001561324Y0002011797D01*
G37*
G36*
X0001632035Y0002082508D02*
X0001562438Y0002152105D01*
X0001595844Y0002185512D01*
X0001665441Y0002115915D01*
X0001632035Y0002082508D01*
X0001632035Y0002082508D01*
G37*
G36*
X0001700518Y0002150992D02*
X0001630921Y0002220589D01*
X0001664328Y0002253995D01*
X0001733925Y0002184398D01*
X0001700518Y0002150992D01*
X0001700518Y0002150992D01*
G37*
D76*
X0001567826Y0001542896D03*
X0002292826Y0001517896D03*
X0001732826Y0002382896D03*
X0002442826Y0001972896D03*
X0002292826Y0001972896D03*
X0002242826Y0001972896D03*
X0002342826Y0001972896D03*
X0001502826Y0002312896D03*
D77*
X0001942826Y0002392896D02*
X0001992826Y0002392896D01*
X0001992826Y0002392896D02*
X0002042826Y0002442896D01*
X0002184247Y0002442896D02*
X0002222115Y0002405028D01*
X0002042826Y0002442896D02*
X0002184247Y0002442896D01*
X0001942826Y0001742896D02*
X0001767826Y0001742896D01*
X0001767826Y0001742896D02*
X0001567826Y0001542896D01*
X0001942826Y0001742896D02*
X0002067826Y0001742896D01*
X0002067826Y0001742896D02*
X0002292826Y0001517896D01*
X0001772826Y0002292896D02*
X0001682423Y0002202494D01*
X0001772826Y0002342896D02*
X0001772826Y0002292896D01*
X0001732826Y0002382896D02*
X0001772826Y0002342896D01*
X0001682423Y0002203299D02*
X0001682423Y0002202494D01*
X0002417826Y0002017896D02*
X0002417826Y0001997896D01*
X0002417826Y0002017896D02*
X0002417826Y0002209318D01*
X0002363537Y0002263607D02*
X0002417826Y0002209318D01*
X0002417826Y0001997896D02*
X0002442826Y0001972896D01*
X0001702826Y0002185123D02*
X0001668940Y0002219010D01*
X0001666712Y0002219010D02*
X0001668940Y0002219010D01*
D78*
X0002292826Y0001972896D02*
X0002292826Y0002192896D01*
X0002222826Y0002012896D02*
X0002222115Y0002013607D01*
X0002222826Y0001992896D02*
X0002222826Y0002012896D01*
X0002242826Y0001972896D02*
X0002222826Y0001992896D01*
X0002222115Y0002013607D02*
X0002222115Y0002263607D01*
X0002342826Y0002217896D02*
X0002367826Y0002192896D01*
X0002342826Y0002217896D02*
X0002292826Y0002267896D01*
X0002292826Y0002334318D02*
X0002292826Y0002267896D01*
X0002367826Y0002017896D02*
X0002342826Y0001972896D01*
X0002367826Y0002092896D02*
X0002367826Y0002017896D01*
X0002367826Y0002192896D02*
X0002367826Y0002092896D01*
X0002059983Y0002242896D02*
X0002151405Y0002334318D01*
X0001852826Y0002242896D02*
X0002059983Y0002242896D01*
X0001732826Y0002122896D02*
X0001852826Y0002242896D01*
X0001692826Y0002122896D02*
X0001732826Y0002122896D01*
X0001502826Y0002312896D02*
X0001692826Y0002122896D01*
D77*
X0001492826Y0001892896D02*
X0001502826Y0001892896D01*
X0001492826Y0001742896D02*
X0001492826Y0001892896D01*
X0001652826Y0002095123D02*
X0001613940Y0002134010D01*
X0001652826Y0002042896D02*
X0001652826Y0002095123D01*
X0001502826Y0001892896D02*
X0001652826Y0002042896D01*
D79*
G36*
X0002254457Y0002364112D02*
X0002246678Y0002352469D01*
X0002242932Y0002333636D01*
X0002246678Y0002314803D01*
X0002256843Y0002299591D01*
X0002241630Y0002309755D01*
X0002222797Y0002313501D01*
X0002203964Y0002309755D01*
X0002187999Y0002299087D01*
X0002186635Y0002297724D01*
X0002175967Y0002281758D01*
X0002172221Y0002262925D01*
X0002175967Y0002244092D01*
X0002186635Y0002228127D01*
X0002198399Y0002220267D01*
X0002198399Y0002018042D01*
X0002161993Y0002054869D01*
X0002025923Y0002114993D01*
X0001877203Y0002118469D01*
X0001738472Y0002064767D01*
X0001723659Y0002054869D01*
X0001681786Y0002012511D01*
X0001942826Y0001751471D01*
X0001943383Y0001752028D01*
X0001951957Y0001743453D01*
X0001951400Y0001742896D01*
X0002212441Y0001481856D01*
X0002254799Y0001523729D01*
X0002314923Y0001659799D01*
X0002318399Y0001808520D01*
X0002264697Y0001947250D01*
X0002263346Y0001949272D01*
X0002267831Y0001953750D01*
X0002275120Y0001946448D01*
X0002286589Y0001941685D01*
X0002299008Y0001941674D01*
X0002310486Y0001946417D01*
X0002317831Y0001953750D01*
X0002325120Y0001946448D01*
X0002336589Y0001941685D01*
X0002349008Y0001941674D01*
X0002360486Y0001946417D01*
X0002369275Y0001955191D01*
X0002374037Y0001966660D01*
X0002374048Y0001979079D01*
X0002373768Y0001979756D01*
X0002388558Y0002006379D01*
X0002388977Y0002007682D01*
X0002389737Y0002008820D01*
X0002390380Y0002012052D01*
X0002391388Y0002015189D01*
X0002391275Y0002016554D01*
X0002391543Y0002017896D01*
X0002391543Y0002192896D01*
X0002389969Y0002200806D01*
X0002392110Y0002198666D01*
X0002392110Y0001997896D01*
X0002394067Y0001988055D01*
X0002399642Y0001979712D01*
X0002411605Y0001967749D01*
X0002411604Y0001966714D01*
X0002416347Y0001955237D01*
X0002425120Y0001946448D01*
X0002436589Y0001941685D01*
X0002449008Y0001941674D01*
X0002460486Y0001946417D01*
X0002469275Y0001955191D01*
X0002474037Y0001966660D01*
X0002474048Y0001979079D01*
X0002469306Y0001990556D01*
X0002460532Y0001999345D01*
X0002449063Y0002004107D01*
X0002447983Y0002004108D01*
X0002443543Y0002008549D01*
X0002443543Y0002209318D01*
X0002441585Y0002219159D01*
X0002436010Y0002227502D01*
X0002411860Y0002251653D01*
X0002412741Y0002253775D01*
X0002412758Y0002273353D01*
X0002406998Y0002287294D01*
X0002486613Y0002168140D01*
X0002531417Y0001942896D01*
X0002486613Y0001717652D01*
X0002460890Y0001679154D01*
X0002460890Y0001842896D01*
X0002459654Y0001849462D01*
X0002455774Y0001855492D01*
X0002449854Y0001859537D01*
X0002442826Y0001860960D01*
X0002342826Y0001860960D01*
X0002336261Y0001859725D01*
X0002330231Y0001855845D01*
X0002326186Y0001849924D01*
X0002324762Y0001842896D01*
X0002324762Y0001642896D01*
X0002325998Y0001636331D01*
X0002329878Y0001630301D01*
X0002335798Y0001626256D01*
X0002342826Y0001624833D01*
X0002424593Y0001624833D01*
X0002359023Y0001526700D01*
X0002168070Y0001399109D01*
X0002008635Y0001367395D01*
X0002147180Y0001421025D01*
X0002161993Y0001430924D01*
X0002203866Y0001473282D01*
X0001942826Y0001734322D01*
X0001681786Y0001473282D01*
X0001723659Y0001430924D01*
X0001859585Y0001370863D01*
X0001717582Y0001399109D01*
X0001526629Y0001526700D01*
X0001461059Y0001624833D01*
X0001542826Y0001624833D01*
X0001549391Y0001626068D01*
X0001555421Y0001629948D01*
X0001559467Y0001635869D01*
X0001560890Y0001642896D01*
X0001560890Y0001677273D01*
X0001567253Y0001677273D01*
X0001620955Y0001538543D01*
X0001630853Y0001523729D01*
X0001673211Y0001481856D01*
X0001934252Y0001742896D01*
X0001673211Y0002003937D01*
X0001630853Y0001962064D01*
X0001570729Y0001825994D01*
X0001567253Y0001677273D01*
X0001560890Y0001677273D01*
X0001560890Y0001842896D01*
X0001559654Y0001849462D01*
X0001555774Y0001855492D01*
X0001549854Y0001859537D01*
X0001542826Y0001860960D01*
X0001518543Y0001860960D01*
X0001518543Y0001873063D01*
X0001521010Y0001874712D01*
X0001671010Y0002024712D01*
X0001673032Y0002027738D01*
X0001676585Y0002033055D01*
X0001678543Y0002042896D01*
X0001678543Y0002095123D01*
X0001677158Y0002102085D01*
X0001678214Y0002103142D01*
X0001678938Y0002104201D01*
X0001683750Y0002100985D01*
X0001692826Y0002099180D01*
X0001732826Y0002099180D01*
X0001741902Y0002100985D01*
X0001749596Y0002106126D01*
X0001862650Y0002219180D01*
X0002059983Y0002219180D01*
X0002069059Y0002220985D01*
X0002076753Y0002226126D01*
X0002137651Y0002287024D01*
X0002150723Y0002284423D01*
X0002169556Y0002288170D01*
X0002185522Y0002298837D01*
X0002186885Y0002300201D01*
X0002197553Y0002316167D01*
X0002201299Y0002334999D01*
X0002197553Y0002353832D01*
X0002195848Y0002356384D01*
X0002207507Y0002351554D01*
X0002229083Y0002350035D01*
X0002249598Y0002356887D01*
X0002252559Y0002366010D01*
X0002254457Y0002364112D01*
X0002254457Y0002364112D01*
G37*
X0002254457Y0002364112D02*
X0002246678Y0002352469D01*
X0002242932Y0002333636D01*
X0002246678Y0002314803D01*
X0002256843Y0002299591D01*
X0002241630Y0002309755D01*
X0002222797Y0002313501D01*
X0002203964Y0002309755D01*
X0002187999Y0002299087D01*
X0002186635Y0002297724D01*
X0002175967Y0002281758D01*
X0002172221Y0002262925D01*
X0002175967Y0002244092D01*
X0002186635Y0002228127D01*
X0002198399Y0002220267D01*
X0002198399Y0002018042D01*
X0002161993Y0002054869D01*
X0002025923Y0002114993D01*
X0001877203Y0002118469D01*
X0001738472Y0002064767D01*
X0001723659Y0002054869D01*
X0001681786Y0002012511D01*
X0001942826Y0001751471D01*
X0001943383Y0001752028D01*
X0001951957Y0001743453D01*
X0001951400Y0001742896D01*
X0002212441Y0001481856D01*
X0002254799Y0001523729D01*
X0002314923Y0001659799D01*
X0002318399Y0001808520D01*
X0002264697Y0001947250D01*
X0002263346Y0001949272D01*
X0002267831Y0001953750D01*
X0002275120Y0001946448D01*
X0002286589Y0001941685D01*
X0002299008Y0001941674D01*
X0002310486Y0001946417D01*
X0002317831Y0001953750D01*
X0002325120Y0001946448D01*
X0002336589Y0001941685D01*
X0002349008Y0001941674D01*
X0002360486Y0001946417D01*
X0002369275Y0001955191D01*
X0002374037Y0001966660D01*
X0002374048Y0001979079D01*
X0002373768Y0001979756D01*
X0002388558Y0002006379D01*
X0002388977Y0002007682D01*
X0002389737Y0002008820D01*
X0002390380Y0002012052D01*
X0002391388Y0002015189D01*
X0002391275Y0002016554D01*
X0002391543Y0002017896D01*
X0002391543Y0002192896D01*
X0002389969Y0002200806D01*
X0002392110Y0002198666D01*
X0002392110Y0001997896D01*
X0002394067Y0001988055D01*
X0002399642Y0001979712D01*
X0002411605Y0001967749D01*
X0002411604Y0001966714D01*
X0002416347Y0001955237D01*
X0002425120Y0001946448D01*
X0002436589Y0001941685D01*
X0002449008Y0001941674D01*
X0002460486Y0001946417D01*
X0002469275Y0001955191D01*
X0002474037Y0001966660D01*
X0002474048Y0001979079D01*
X0002469306Y0001990556D01*
X0002460532Y0001999345D01*
X0002449063Y0002004107D01*
X0002447983Y0002004108D01*
X0002443543Y0002008549D01*
X0002443543Y0002209318D01*
X0002441585Y0002219159D01*
X0002436010Y0002227502D01*
X0002411860Y0002251653D01*
X0002412741Y0002253775D01*
X0002412758Y0002273353D01*
X0002406998Y0002287294D01*
X0002486613Y0002168140D01*
X0002531417Y0001942896D01*
X0002486613Y0001717652D01*
X0002460890Y0001679154D01*
X0002460890Y0001842896D01*
X0002459654Y0001849462D01*
X0002455774Y0001855492D01*
X0002449854Y0001859537D01*
X0002442826Y0001860960D01*
X0002342826Y0001860960D01*
X0002336261Y0001859725D01*
X0002330231Y0001855845D01*
X0002326186Y0001849924D01*
X0002324762Y0001842896D01*
X0002324762Y0001642896D01*
X0002325998Y0001636331D01*
X0002329878Y0001630301D01*
X0002335798Y0001626256D01*
X0002342826Y0001624833D01*
X0002424593Y0001624833D01*
X0002359023Y0001526700D01*
X0002168070Y0001399109D01*
X0002008635Y0001367395D01*
X0002147180Y0001421025D01*
X0002161993Y0001430924D01*
X0002203866Y0001473282D01*
X0001942826Y0001734322D01*
X0001681786Y0001473282D01*
X0001723659Y0001430924D01*
X0001859585Y0001370863D01*
X0001717582Y0001399109D01*
X0001526629Y0001526700D01*
X0001461059Y0001624833D01*
X0001542826Y0001624833D01*
X0001549391Y0001626068D01*
X0001555421Y0001629948D01*
X0001559467Y0001635869D01*
X0001560890Y0001642896D01*
X0001560890Y0001677273D01*
X0001567253Y0001677273D01*
X0001620955Y0001538543D01*
X0001630853Y0001523729D01*
X0001673211Y0001481856D01*
X0001934252Y0001742896D01*
X0001673211Y0002003937D01*
X0001630853Y0001962064D01*
X0001570729Y0001825994D01*
X0001567253Y0001677273D01*
X0001560890Y0001677273D01*
X0001560890Y0001842896D01*
X0001559654Y0001849462D01*
X0001555774Y0001855492D01*
X0001549854Y0001859537D01*
X0001542826Y0001860960D01*
X0001518543Y0001860960D01*
X0001518543Y0001873063D01*
X0001521010Y0001874712D01*
X0001671010Y0002024712D01*
X0001673032Y0002027738D01*
X0001676585Y0002033055D01*
X0001678543Y0002042896D01*
X0001678543Y0002095123D01*
X0001677158Y0002102085D01*
X0001678214Y0002103142D01*
X0001678938Y0002104201D01*
X0001683750Y0002100985D01*
X0001692826Y0002099180D01*
X0001732826Y0002099180D01*
X0001741902Y0002100985D01*
X0001749596Y0002106126D01*
X0001862650Y0002219180D01*
X0002059983Y0002219180D01*
X0002069059Y0002220985D01*
X0002076753Y0002226126D01*
X0002137651Y0002287024D01*
X0002150723Y0002284423D01*
X0002169556Y0002288170D01*
X0002185522Y0002298837D01*
X0002186885Y0002300201D01*
X0002197553Y0002316167D01*
X0002201299Y0002334999D01*
X0002197553Y0002353832D01*
X0002195848Y0002356384D01*
X0002207507Y0002351554D01*
X0002229083Y0002350035D01*
X0002249598Y0002356887D01*
X0002252559Y0002366010D01*
X0002254457Y0002364112D01*
G36*
X0002168070Y0002486684D02*
X0002210363Y0002458424D01*
X0002194633Y0002453170D01*
X0002191672Y0002444046D01*
X0002222115Y0002413603D01*
X0002222672Y0002414160D01*
X0002231247Y0002405585D01*
X0002230690Y0002405028D01*
X0002231247Y0002404472D01*
X0002222672Y0002395897D01*
X0002222115Y0002396454D01*
X0002221559Y0002395897D01*
X0002212984Y0002404472D01*
X0002213541Y0002405028D01*
X0002183097Y0002435472D01*
X0002173974Y0002432511D01*
X0002167121Y0002411996D01*
X0002168641Y0002390420D01*
X0002173471Y0002378761D01*
X0002170919Y0002380466D01*
X0002152086Y0002384212D01*
X0002133254Y0002380466D01*
X0002117288Y0002369798D01*
X0002115924Y0002368435D01*
X0002105256Y0002352469D01*
X0002101510Y0002333636D01*
X0002104111Y0002320564D01*
X0002050160Y0002266613D01*
X0001852826Y0002266613D01*
X0001843750Y0002264808D01*
X0001836056Y0002259667D01*
X0001723002Y0002146613D01*
X0001721686Y0002146613D01*
X0001746698Y0002171625D01*
X0001750467Y0002177141D01*
X0001751987Y0002184149D01*
X0001750661Y0002191195D01*
X0001746698Y0002197171D01*
X0001730084Y0002213785D01*
X0001791010Y0002274712D01*
X0001796585Y0002283055D01*
X0001798543Y0002292896D01*
X0001798543Y0002304732D01*
X0001863236Y0002304732D01*
X0001874486Y0002288519D01*
X0001919631Y0002270312D01*
X0001968308Y0002270767D01*
X0002011166Y0002288519D01*
X0002022416Y0002304732D01*
X0001942826Y0002384322D01*
X0001863236Y0002304732D01*
X0001798543Y0002304732D01*
X0001798543Y0002342896D01*
X0001796585Y0002352738D01*
X0001791010Y0002361081D01*
X0001764047Y0002388044D01*
X0001764048Y0002389079D01*
X0001759306Y0002400556D01*
X0001750532Y0002409345D01*
X0001739063Y0002414107D01*
X0001726644Y0002414118D01*
X0001715166Y0002409376D01*
X0001706377Y0002400602D01*
X0001701615Y0002389133D01*
X0001701604Y0002376714D01*
X0001706347Y0002365237D01*
X0001715120Y0002356448D01*
X0001726589Y0002351685D01*
X0001727669Y0002351684D01*
X0001747110Y0002332244D01*
X0001747110Y0002303549D01*
X0001693715Y0002250154D01*
X0001677101Y0002266768D01*
X0001671585Y0002270537D01*
X0001664577Y0002272057D01*
X0001657531Y0002270731D01*
X0001651555Y0002266768D01*
X0001618148Y0002233362D01*
X0001617236Y0002232027D01*
X0001552174Y0002297088D01*
X0001595482Y0002297088D01*
X0001600865Y0002284060D01*
X0001610824Y0002274084D01*
X0001623842Y0002268678D01*
X0001637938Y0002268666D01*
X0001650966Y0002274049D01*
X0001660942Y0002284008D01*
X0001666348Y0002297026D01*
X0001666360Y0002311122D01*
X0001660977Y0002324150D01*
X0001651019Y0002334127D01*
X0001638000Y0002339532D01*
X0001623904Y0002339545D01*
X0001610876Y0002334162D01*
X0001600900Y0002324203D01*
X0001595494Y0002311184D01*
X0001595482Y0002297088D01*
X0001552174Y0002297088D01*
X0001534045Y0002315218D01*
X0001534048Y0002319079D01*
X0001529306Y0002330556D01*
X0001520532Y0002339345D01*
X0001514975Y0002341652D01*
X0001526629Y0002359093D01*
X0001611932Y0002416091D01*
X0001820242Y0002416091D01*
X0001820697Y0002367414D01*
X0001838449Y0002324556D01*
X0001854662Y0002313306D01*
X0001934252Y0002392896D01*
X0001951400Y0002392896D01*
X0002030990Y0002313306D01*
X0002047203Y0002324556D01*
X0002065410Y0002369702D01*
X0002064955Y0002418378D01*
X0002047203Y0002461236D01*
X0002030990Y0002472486D01*
X0001951400Y0002392896D01*
X0001934252Y0002392896D01*
X0001854662Y0002472486D01*
X0001838449Y0002461236D01*
X0001820242Y0002416091D01*
X0001611932Y0002416091D01*
X0001709167Y0002481061D01*
X0001863236Y0002481061D01*
X0001942826Y0002401471D01*
X0002022416Y0002481061D01*
X0002011166Y0002497273D01*
X0001966021Y0002515481D01*
X0001917344Y0002515026D01*
X0001874486Y0002497273D01*
X0001863236Y0002481061D01*
X0001709167Y0002481061D01*
X0001717582Y0002486684D01*
X0001942826Y0002531488D01*
X0002168070Y0002486684D01*
X0002168070Y0002486684D01*
G37*
X0002168070Y0002486684D02*
X0002210363Y0002458424D01*
X0002194633Y0002453170D01*
X0002191672Y0002444046D01*
X0002222115Y0002413603D01*
X0002222672Y0002414160D01*
X0002231247Y0002405585D01*
X0002230690Y0002405028D01*
X0002231247Y0002404472D01*
X0002222672Y0002395897D01*
X0002222115Y0002396454D01*
X0002221559Y0002395897D01*
X0002212984Y0002404472D01*
X0002213541Y0002405028D01*
X0002183097Y0002435472D01*
X0002173974Y0002432511D01*
X0002167121Y0002411996D01*
X0002168641Y0002390420D01*
X0002173471Y0002378761D01*
X0002170919Y0002380466D01*
X0002152086Y0002384212D01*
X0002133254Y0002380466D01*
X0002117288Y0002369798D01*
X0002115924Y0002368435D01*
X0002105256Y0002352469D01*
X0002101510Y0002333636D01*
X0002104111Y0002320564D01*
X0002050160Y0002266613D01*
X0001852826Y0002266613D01*
X0001843750Y0002264808D01*
X0001836056Y0002259667D01*
X0001723002Y0002146613D01*
X0001721686Y0002146613D01*
X0001746698Y0002171625D01*
X0001750467Y0002177141D01*
X0001751987Y0002184149D01*
X0001750661Y0002191195D01*
X0001746698Y0002197171D01*
X0001730084Y0002213785D01*
X0001791010Y0002274712D01*
X0001796585Y0002283055D01*
X0001798543Y0002292896D01*
X0001798543Y0002304732D01*
X0001863236Y0002304732D01*
X0001874486Y0002288519D01*
X0001919631Y0002270312D01*
X0001968308Y0002270767D01*
X0002011166Y0002288519D01*
X0002022416Y0002304732D01*
X0001942826Y0002384322D01*
X0001863236Y0002304732D01*
X0001798543Y0002304732D01*
X0001798543Y0002342896D01*
X0001796585Y0002352738D01*
X0001791010Y0002361081D01*
X0001764047Y0002388044D01*
X0001764048Y0002389079D01*
X0001759306Y0002400556D01*
X0001750532Y0002409345D01*
X0001739063Y0002414107D01*
X0001726644Y0002414118D01*
X0001715166Y0002409376D01*
X0001706377Y0002400602D01*
X0001701615Y0002389133D01*
X0001701604Y0002376714D01*
X0001706347Y0002365237D01*
X0001715120Y0002356448D01*
X0001726589Y0002351685D01*
X0001727669Y0002351684D01*
X0001747110Y0002332244D01*
X0001747110Y0002303549D01*
X0001693715Y0002250154D01*
X0001677101Y0002266768D01*
X0001671585Y0002270537D01*
X0001664577Y0002272057D01*
X0001657531Y0002270731D01*
X0001651555Y0002266768D01*
X0001618148Y0002233362D01*
X0001617236Y0002232027D01*
X0001552174Y0002297088D01*
X0001595482Y0002297088D01*
X0001600865Y0002284060D01*
X0001610824Y0002274084D01*
X0001623842Y0002268678D01*
X0001637938Y0002268666D01*
X0001650966Y0002274049D01*
X0001660942Y0002284008D01*
X0001666348Y0002297026D01*
X0001666360Y0002311122D01*
X0001660977Y0002324150D01*
X0001651019Y0002334127D01*
X0001638000Y0002339532D01*
X0001623904Y0002339545D01*
X0001610876Y0002334162D01*
X0001600900Y0002324203D01*
X0001595494Y0002311184D01*
X0001595482Y0002297088D01*
X0001552174Y0002297088D01*
X0001534045Y0002315218D01*
X0001534048Y0002319079D01*
X0001529306Y0002330556D01*
X0001520532Y0002339345D01*
X0001514975Y0002341652D01*
X0001526629Y0002359093D01*
X0001611932Y0002416091D01*
X0001820242Y0002416091D01*
X0001820697Y0002367414D01*
X0001838449Y0002324556D01*
X0001854662Y0002313306D01*
X0001934252Y0002392896D01*
X0001951400Y0002392896D01*
X0002030990Y0002313306D01*
X0002047203Y0002324556D01*
X0002065410Y0002369702D01*
X0002064955Y0002418378D01*
X0002047203Y0002461236D01*
X0002030990Y0002472486D01*
X0001951400Y0002392896D01*
X0001934252Y0002392896D01*
X0001854662Y0002472486D01*
X0001838449Y0002461236D01*
X0001820242Y0002416091D01*
X0001611932Y0002416091D01*
X0001709167Y0002481061D01*
X0001863236Y0002481061D01*
X0001942826Y0002401471D01*
X0002022416Y0002481061D01*
X0002011166Y0002497273D01*
X0001966021Y0002515481D01*
X0001917344Y0002515026D01*
X0001874486Y0002497273D01*
X0001863236Y0002481061D01*
X0001709167Y0002481061D01*
X0001717582Y0002486684D01*
X0001942826Y0002531488D01*
X0002168070Y0002486684D01*
G04 next file*
G04 #@! TF.FileFunction,Copper,L2,Bot,Signal*
G04 Gerber Fmt 4.6, Leading zero omitted, Abs format (unit mm)*
G04 Created by KiCad (PCBNEW 4.0.7) date 09/05/18 21:08:50*
G01*
G04 APERTURE LIST*
G04 APERTURE END LIST*
D80*
D81*
X-0006257173Y0006877531D02*
X0001942826Y0003727531D03*
D82*
X0001942826Y0003077531D03*
D83*
X0002392826Y0003077531D03*
X0001492826Y0003077531D03*
D80*
G36*
X0002292826Y0003482989D02*
X0002248284Y0003527531D01*
X0002292826Y0003572073D01*
X0002337368Y0003527531D01*
X0002292826Y0003482989D01*
X0002292826Y0003482989D01*
G37*
D84*
X0002363537Y0003598242D03*
D85*
X0002222115Y0003598242D02*
X0002222115Y0003598242D01*
X0002292826Y0003668952D02*
X0002292826Y0003668952D01*
X0002151405Y0003668952D02*
X0002151405Y0003668952D01*
X0002222115Y0003739663D02*
X0002222115Y0003739663D01*
D80*
G36*
X0001561324Y0003346432D02*
X0001491727Y0003416029D01*
X0001525134Y0003449436D01*
X0001594731Y0003379839D01*
X0001561324Y0003346432D01*
X0001561324Y0003346432D01*
G37*
G36*
X0001632035Y0003417143D02*
X0001562438Y0003486740D01*
X0001595844Y0003520146D01*
X0001665441Y0003450549D01*
X0001632035Y0003417143D01*
X0001632035Y0003417143D01*
G37*
G36*
X0001700518Y0003485626D02*
X0001630921Y0003555223D01*
X0001664328Y0003588630D01*
X0001733925Y0003519033D01*
X0001700518Y0003485626D01*
X0001700518Y0003485626D01*
G37*
D86*
X0001567826Y0002877531D03*
X0002292826Y0002852531D03*
X0001732826Y0003717531D03*
X0002442826Y0003307531D03*
X0002292826Y0003307531D03*
X0002242826Y0003307531D03*
X0002342826Y0003307531D03*
X0001502826Y0003647531D03*
D87*
X0001942826Y0003727531D02*
X0001992826Y0003727531D01*
X0001992826Y0003727531D02*
X0002042826Y0003777531D01*
X0002184247Y0003777531D02*
X0002222115Y0003739663D01*
X0002042826Y0003777531D02*
X0002184247Y0003777531D01*
X0001942826Y0003077531D02*
X0001767826Y0003077531D01*
X0001767826Y0003077531D02*
X0001567826Y0002877531D01*
X0001942826Y0003077531D02*
X0002067826Y0003077531D01*
X0002067826Y0003077531D02*
X0002292826Y0002852531D01*
X0001772826Y0003627531D02*
X0001682423Y0003537128D01*
X0001772826Y0003677531D02*
X0001772826Y0003627531D01*
X0001732826Y0003717531D02*
X0001772826Y0003677531D01*
X0001682423Y0003537934D02*
X0001682423Y0003537128D01*
X0002417826Y0003352531D02*
X0002417826Y0003332531D01*
X0002417826Y0003352531D02*
X0002417826Y0003543952D01*
X0002363537Y0003598242D02*
X0002417826Y0003543952D01*
X0002417826Y0003332531D02*
X0002442826Y0003307531D01*
X0001702826Y0003519758D02*
X0001668940Y0003553645D01*
X0001666712Y0003553645D02*
X0001668940Y0003553645D01*
D88*
X0002292826Y0003307531D02*
X0002292826Y0003527531D01*
X0002222826Y0003347531D02*
X0002222115Y0003348242D01*
X0002222826Y0003327531D02*
X0002222826Y0003347531D01*
X0002242826Y0003307531D02*
X0002222826Y0003327531D01*
X0002222115Y0003348242D02*
X0002222115Y0003598242D01*
X0002342826Y0003552531D02*
X0002367826Y0003527531D01*
X0002342826Y0003552531D02*
X0002292826Y0003602531D01*
X0002292826Y0003668952D02*
X0002292826Y0003602531D01*
X0002367826Y0003352531D02*
X0002342826Y0003307531D01*
X0002367826Y0003427531D02*
X0002367826Y0003352531D01*
X0002367826Y0003527531D02*
X0002367826Y0003427531D01*
X0002059983Y0003577531D02*
X0002151405Y0003668952D01*
X0001852826Y0003577531D02*
X0002059983Y0003577531D01*
X0001732826Y0003457531D02*
X0001852826Y0003577531D01*
X0001692826Y0003457531D02*
X0001732826Y0003457531D01*
X0001502826Y0003647531D02*
X0001692826Y0003457531D01*
D87*
X0001492826Y0003227531D02*
X0001502826Y0003227531D01*
X0001492826Y0003077531D02*
X0001492826Y0003227531D01*
X0001652826Y0003429758D02*
X0001613940Y0003468645D01*
X0001652826Y0003377531D02*
X0001652826Y0003429758D01*
X0001502826Y0003227531D02*
X0001652826Y0003377531D01*
D89*
G36*
X0002254457Y0003698746D02*
X0002246678Y0003687103D01*
X0002242932Y0003668271D01*
X0002246678Y0003649438D01*
X0002256843Y0003634225D01*
X0002241630Y0003644390D01*
X0002222797Y0003648136D01*
X0002203964Y0003644390D01*
X0002187999Y0003633722D01*
X0002186635Y0003632358D01*
X0002175967Y0003616393D01*
X0002172221Y0003597560D01*
X0002175967Y0003578727D01*
X0002186635Y0003562761D01*
X0002198399Y0003554901D01*
X0002198399Y0003352676D01*
X0002161993Y0003389504D01*
X0002025923Y0003449628D01*
X0001877203Y0003453104D01*
X0001738472Y0003399402D01*
X0001723659Y0003389504D01*
X0001681786Y0003347146D01*
X0001942826Y0003086105D01*
X0001943383Y0003086662D01*
X0001951957Y0003078088D01*
X0001951400Y0003077531D01*
X0002212441Y0002816491D01*
X0002254799Y0002858364D01*
X0002314923Y0002994434D01*
X0002318399Y0003143154D01*
X0002264697Y0003281885D01*
X0002263346Y0003283907D01*
X0002267831Y0003288384D01*
X0002275120Y0003281082D01*
X0002286589Y0003276320D01*
X0002299008Y0003276309D01*
X0002310486Y0003281051D01*
X0002317831Y0003288384D01*
X0002325120Y0003281082D01*
X0002336589Y0003276320D01*
X0002349008Y0003276309D01*
X0002360486Y0003281051D01*
X0002369275Y0003289825D01*
X0002374037Y0003301294D01*
X0002374048Y0003313713D01*
X0002373768Y0003314391D01*
X0002388558Y0003341013D01*
X0002388977Y0003342317D01*
X0002389737Y0003343455D01*
X0002390380Y0003346687D01*
X0002391388Y0003349824D01*
X0002391275Y0003351188D01*
X0002391543Y0003352531D01*
X0002391543Y0003527531D01*
X0002389969Y0003535440D01*
X0002392110Y0003533300D01*
X0002392110Y0003332531D01*
X0002394067Y0003322690D01*
X0002399642Y0003314347D01*
X0002411605Y0003302383D01*
X0002411604Y0003301349D01*
X0002416347Y0003289871D01*
X0002425120Y0003281082D01*
X0002436589Y0003276320D01*
X0002449008Y0003276309D01*
X0002460486Y0003281051D01*
X0002469275Y0003289825D01*
X0002474037Y0003301294D01*
X0002474048Y0003313713D01*
X0002469306Y0003325191D01*
X0002460532Y0003333980D01*
X0002449063Y0003338742D01*
X0002447983Y0003338743D01*
X0002443543Y0003343183D01*
X0002443543Y0003543952D01*
X0002441585Y0003553794D01*
X0002436010Y0003562137D01*
X0002411860Y0003586287D01*
X0002412741Y0003588410D01*
X0002412758Y0003607988D01*
X0002406998Y0003621929D01*
X0002486613Y0003502775D01*
X0002531417Y0003277531D01*
X0002486613Y0003052287D01*
X0002460890Y0003013789D01*
X0002460890Y0003177531D01*
X0002459654Y0003184096D01*
X0002455774Y0003190126D01*
X0002449854Y0003194171D01*
X0002442826Y0003195595D01*
X0002342826Y0003195595D01*
X0002336261Y0003194359D01*
X0002330231Y0003190479D01*
X0002326186Y0003184559D01*
X0002324762Y0003177531D01*
X0002324762Y0002977531D01*
X0002325998Y0002970966D01*
X0002329878Y0002964936D01*
X0002335798Y0002960891D01*
X0002342826Y0002959467D01*
X0002424593Y0002959467D01*
X0002359023Y0002861334D01*
X0002168070Y0002733744D01*
X0002008635Y0002702030D01*
X0002147180Y0002755660D01*
X0002161993Y0002765558D01*
X0002203866Y0002807916D01*
X0001942826Y0003068957D01*
X0001681786Y0002807916D01*
X0001723659Y0002765558D01*
X0001859585Y0002705497D01*
X0001717582Y0002733744D01*
X0001526629Y0002861334D01*
X0001461059Y0002959467D01*
X0001542826Y0002959467D01*
X0001549391Y0002960703D01*
X0001555421Y0002964583D01*
X0001559467Y0002970503D01*
X0001560890Y0002977531D01*
X0001560890Y0003011908D01*
X0001567253Y0003011908D01*
X0001620955Y0002873177D01*
X0001630853Y0002858364D01*
X0001673211Y0002816491D01*
X0001934252Y0003077531D01*
X0001673211Y0003338571D01*
X0001630853Y0003296698D01*
X0001570729Y0003160628D01*
X0001567253Y0003011908D01*
X0001560890Y0003011908D01*
X0001560890Y0003177531D01*
X0001559654Y0003184096D01*
X0001555774Y0003190126D01*
X0001549854Y0003194171D01*
X0001542826Y0003195595D01*
X0001518543Y0003195595D01*
X0001518543Y0003207698D01*
X0001521010Y0003209347D01*
X0001671010Y0003359347D01*
X0001673032Y0003362372D01*
X0001676585Y0003367690D01*
X0001678543Y0003377531D01*
X0001678543Y0003429758D01*
X0001677158Y0003436720D01*
X0001678214Y0003437776D01*
X0001678938Y0003438835D01*
X0001683750Y0003435620D01*
X0001692826Y0003433814D01*
X0001732826Y0003433814D01*
X0001741902Y0003435620D01*
X0001749596Y0003440761D01*
X0001862650Y0003553814D01*
X0002059983Y0003553814D01*
X0002069059Y0003555620D01*
X0002076753Y0003560761D01*
X0002137651Y0003621658D01*
X0002150723Y0003619058D01*
X0002169556Y0003622804D01*
X0002185522Y0003633472D01*
X0002186885Y0003634835D01*
X0002197553Y0003650801D01*
X0002201299Y0003669634D01*
X0002197553Y0003688467D01*
X0002195848Y0003691019D01*
X0002207507Y0003686189D01*
X0002229083Y0003684669D01*
X0002249598Y0003691522D01*
X0002252559Y0003700645D01*
X0002254457Y0003698746D01*
X0002254457Y0003698746D01*
G37*
X0002254457Y0003698746D02*
X0002246678Y0003687103D01*
X0002242932Y0003668271D01*
X0002246678Y0003649438D01*
X0002256843Y0003634225D01*
X0002241630Y0003644390D01*
X0002222797Y0003648136D01*
X0002203964Y0003644390D01*
X0002187999Y0003633722D01*
X0002186635Y0003632358D01*
X0002175967Y0003616393D01*
X0002172221Y0003597560D01*
X0002175967Y0003578727D01*
X0002186635Y0003562761D01*
X0002198399Y0003554901D01*
X0002198399Y0003352676D01*
X0002161993Y0003389504D01*
X0002025923Y0003449628D01*
X0001877203Y0003453104D01*
X0001738472Y0003399402D01*
X0001723659Y0003389504D01*
X0001681786Y0003347146D01*
X0001942826Y0003086105D01*
X0001943383Y0003086662D01*
X0001951957Y0003078088D01*
X0001951400Y0003077531D01*
X0002212441Y0002816491D01*
X0002254799Y0002858364D01*
X0002314923Y0002994434D01*
X0002318399Y0003143154D01*
X0002264697Y0003281885D01*
X0002263346Y0003283907D01*
X0002267831Y0003288384D01*
X0002275120Y0003281082D01*
X0002286589Y0003276320D01*
X0002299008Y0003276309D01*
X0002310486Y0003281051D01*
X0002317831Y0003288384D01*
X0002325120Y0003281082D01*
X0002336589Y0003276320D01*
X0002349008Y0003276309D01*
X0002360486Y0003281051D01*
X0002369275Y0003289825D01*
X0002374037Y0003301294D01*
X0002374048Y0003313713D01*
X0002373768Y0003314391D01*
X0002388558Y0003341013D01*
X0002388977Y0003342317D01*
X0002389737Y0003343455D01*
X0002390380Y0003346687D01*
X0002391388Y0003349824D01*
X0002391275Y0003351188D01*
X0002391543Y0003352531D01*
X0002391543Y0003527531D01*
X0002389969Y0003535440D01*
X0002392110Y0003533300D01*
X0002392110Y0003332531D01*
X0002394067Y0003322690D01*
X0002399642Y0003314347D01*
X0002411605Y0003302383D01*
X0002411604Y0003301349D01*
X0002416347Y0003289871D01*
X0002425120Y0003281082D01*
X0002436589Y0003276320D01*
X0002449008Y0003276309D01*
X0002460486Y0003281051D01*
X0002469275Y0003289825D01*
X0002474037Y0003301294D01*
X0002474048Y0003313713D01*
X0002469306Y0003325191D01*
X0002460532Y0003333980D01*
X0002449063Y0003338742D01*
X0002447983Y0003338743D01*
X0002443543Y0003343183D01*
X0002443543Y0003543952D01*
X0002441585Y0003553794D01*
X0002436010Y0003562137D01*
X0002411860Y0003586287D01*
X0002412741Y0003588410D01*
X0002412758Y0003607988D01*
X0002406998Y0003621929D01*
X0002486613Y0003502775D01*
X0002531417Y0003277531D01*
X0002486613Y0003052287D01*
X0002460890Y0003013789D01*
X0002460890Y0003177531D01*
X0002459654Y0003184096D01*
X0002455774Y0003190126D01*
X0002449854Y0003194171D01*
X0002442826Y0003195595D01*
X0002342826Y0003195595D01*
X0002336261Y0003194359D01*
X0002330231Y0003190479D01*
X0002326186Y0003184559D01*
X0002324762Y0003177531D01*
X0002324762Y0002977531D01*
X0002325998Y0002970966D01*
X0002329878Y0002964936D01*
X0002335798Y0002960891D01*
X0002342826Y0002959467D01*
X0002424593Y0002959467D01*
X0002359023Y0002861334D01*
X0002168070Y0002733744D01*
X0002008635Y0002702030D01*
X0002147180Y0002755660D01*
X0002161993Y0002765558D01*
X0002203866Y0002807916D01*
X0001942826Y0003068957D01*
X0001681786Y0002807916D01*
X0001723659Y0002765558D01*
X0001859585Y0002705497D01*
X0001717582Y0002733744D01*
X0001526629Y0002861334D01*
X0001461059Y0002959467D01*
X0001542826Y0002959467D01*
X0001549391Y0002960703D01*
X0001555421Y0002964583D01*
X0001559467Y0002970503D01*
X0001560890Y0002977531D01*
X0001560890Y0003011908D01*
X0001567253Y0003011908D01*
X0001620955Y0002873177D01*
X0001630853Y0002858364D01*
X0001673211Y0002816491D01*
X0001934252Y0003077531D01*
X0001673211Y0003338571D01*
X0001630853Y0003296698D01*
X0001570729Y0003160628D01*
X0001567253Y0003011908D01*
X0001560890Y0003011908D01*
X0001560890Y0003177531D01*
X0001559654Y0003184096D01*
X0001555774Y0003190126D01*
X0001549854Y0003194171D01*
X0001542826Y0003195595D01*
X0001518543Y0003195595D01*
X0001518543Y0003207698D01*
X0001521010Y0003209347D01*
X0001671010Y0003359347D01*
X0001673032Y0003362372D01*
X0001676585Y0003367690D01*
X0001678543Y0003377531D01*
X0001678543Y0003429758D01*
X0001677158Y0003436720D01*
X0001678214Y0003437776D01*
X0001678938Y0003438835D01*
X0001683750Y0003435620D01*
X0001692826Y0003433814D01*
X0001732826Y0003433814D01*
X0001741902Y0003435620D01*
X0001749596Y0003440761D01*
X0001862650Y0003553814D01*
X0002059983Y0003553814D01*
X0002069059Y0003555620D01*
X0002076753Y0003560761D01*
X0002137651Y0003621658D01*
X0002150723Y0003619058D01*
X0002169556Y0003622804D01*
X0002185522Y0003633472D01*
X0002186885Y0003634835D01*
X0002197553Y0003650801D01*
X0002201299Y0003669634D01*
X0002197553Y0003688467D01*
X0002195848Y0003691019D01*
X0002207507Y0003686189D01*
X0002229083Y0003684669D01*
X0002249598Y0003691522D01*
X0002252559Y0003700645D01*
X0002254457Y0003698746D01*
G36*
X0002168070Y0003821318D02*
X0002210363Y0003793059D01*
X0002194633Y0003787804D01*
X0002191672Y0003778681D01*
X0002222115Y0003748237D01*
X0002222672Y0003748794D01*
X0002231247Y0003740220D01*
X0002230690Y0003739663D01*
X0002231247Y0003739106D01*
X0002222672Y0003730532D01*
X0002222115Y0003731089D01*
X0002221559Y0003730532D01*
X0002212984Y0003739106D01*
X0002213541Y0003739663D01*
X0002183097Y0003770107D01*
X0002173974Y0003767146D01*
X0002167121Y0003746631D01*
X0002168641Y0003725055D01*
X0002173471Y0003713395D01*
X0002170919Y0003715101D01*
X0002152086Y0003718847D01*
X0002133254Y0003715101D01*
X0002117288Y0003704433D01*
X0002115924Y0003703069D01*
X0002105256Y0003687103D01*
X0002101510Y0003668271D01*
X0002104111Y0003655198D01*
X0002050160Y0003601248D01*
X0001852826Y0003601248D01*
X0001843750Y0003599442D01*
X0001836056Y0003594301D01*
X0001723002Y0003481248D01*
X0001721686Y0003481248D01*
X0001746698Y0003506260D01*
X0001750467Y0003511776D01*
X0001751987Y0003518783D01*
X0001750661Y0003525830D01*
X0001746698Y0003531806D01*
X0001730084Y0003548420D01*
X0001791010Y0003609347D01*
X0001796585Y0003617690D01*
X0001798543Y0003627531D01*
X0001798543Y0003639367D01*
X0001863236Y0003639367D01*
X0001874486Y0003623154D01*
X0001919631Y0003604947D01*
X0001968308Y0003605402D01*
X0002011166Y0003623154D01*
X0002022416Y0003639367D01*
X0001942826Y0003718957D01*
X0001863236Y0003639367D01*
X0001798543Y0003639367D01*
X0001798543Y0003677531D01*
X0001796585Y0003687372D01*
X0001791010Y0003695715D01*
X0001764047Y0003722679D01*
X0001764048Y0003723713D01*
X0001759306Y0003735191D01*
X0001750532Y0003743980D01*
X0001739063Y0003748742D01*
X0001726644Y0003748753D01*
X0001715166Y0003744011D01*
X0001706377Y0003735237D01*
X0001701615Y0003723768D01*
X0001701604Y0003711349D01*
X0001706347Y0003699871D01*
X0001715120Y0003691082D01*
X0001726589Y0003686320D01*
X0001727669Y0003686319D01*
X0001747110Y0003666879D01*
X0001747110Y0003638183D01*
X0001693715Y0003584789D01*
X0001677101Y0003601403D01*
X0001671585Y0003605172D01*
X0001664577Y0003606692D01*
X0001657531Y0003605366D01*
X0001651555Y0003601403D01*
X0001618148Y0003567996D01*
X0001617236Y0003566661D01*
X0001552174Y0003631723D01*
X0001595482Y0003631723D01*
X0001600865Y0003618695D01*
X0001610824Y0003608719D01*
X0001623842Y0003603313D01*
X0001637938Y0003603301D01*
X0001650966Y0003608684D01*
X0001660942Y0003618642D01*
X0001666348Y0003631661D01*
X0001666360Y0003645757D01*
X0001660977Y0003658785D01*
X0001651019Y0003668761D01*
X0001638000Y0003674167D01*
X0001623904Y0003674179D01*
X0001610876Y0003668796D01*
X0001600900Y0003658837D01*
X0001595494Y0003645819D01*
X0001595482Y0003631723D01*
X0001552174Y0003631723D01*
X0001534045Y0003649853D01*
X0001534048Y0003653713D01*
X0001529306Y0003665191D01*
X0001520532Y0003673980D01*
X0001514975Y0003676287D01*
X0001526629Y0003693728D01*
X0001611932Y0003750726D01*
X0001820242Y0003750726D01*
X0001820697Y0003702049D01*
X0001838449Y0003659191D01*
X0001854662Y0003647941D01*
X0001934252Y0003727531D01*
X0001951400Y0003727531D01*
X0002030990Y0003647941D01*
X0002047203Y0003659191D01*
X0002065410Y0003704336D01*
X0002064955Y0003753013D01*
X0002047203Y0003795871D01*
X0002030990Y0003807121D01*
X0001951400Y0003727531D01*
X0001934252Y0003727531D01*
X0001854662Y0003807121D01*
X0001838449Y0003795871D01*
X0001820242Y0003750726D01*
X0001611932Y0003750726D01*
X0001709167Y0003815695D01*
X0001863236Y0003815695D01*
X0001942826Y0003736105D01*
X0002022416Y0003815695D01*
X0002011166Y0003831908D01*
X0001966021Y0003850115D01*
X0001917344Y0003849660D01*
X0001874486Y0003831908D01*
X0001863236Y0003815695D01*
X0001709167Y0003815695D01*
X0001717582Y0003821318D01*
X0001942826Y0003866122D01*
X0002168070Y0003821318D01*
X0002168070Y0003821318D01*
G37*
X0002168070Y0003821318D02*
X0002210363Y0003793059D01*
X0002194633Y0003787804D01*
X0002191672Y0003778681D01*
X0002222115Y0003748237D01*
X0002222672Y0003748794D01*
X0002231247Y0003740220D01*
X0002230690Y0003739663D01*
X0002231247Y0003739106D01*
X0002222672Y0003730532D01*
X0002222115Y0003731089D01*
X0002221559Y0003730532D01*
X0002212984Y0003739106D01*
X0002213541Y0003739663D01*
X0002183097Y0003770107D01*
X0002173974Y0003767146D01*
X0002167121Y0003746631D01*
X0002168641Y0003725055D01*
X0002173471Y0003713395D01*
X0002170919Y0003715101D01*
X0002152086Y0003718847D01*
X0002133254Y0003715101D01*
X0002117288Y0003704433D01*
X0002115924Y0003703069D01*
X0002105256Y0003687103D01*
X0002101510Y0003668271D01*
X0002104111Y0003655198D01*
X0002050160Y0003601248D01*
X0001852826Y0003601248D01*
X0001843750Y0003599442D01*
X0001836056Y0003594301D01*
X0001723002Y0003481248D01*
X0001721686Y0003481248D01*
X0001746698Y0003506260D01*
X0001750467Y0003511776D01*
X0001751987Y0003518783D01*
X0001750661Y0003525830D01*
X0001746698Y0003531806D01*
X0001730084Y0003548420D01*
X0001791010Y0003609347D01*
X0001796585Y0003617690D01*
X0001798543Y0003627531D01*
X0001798543Y0003639367D01*
X0001863236Y0003639367D01*
X0001874486Y0003623154D01*
X0001919631Y0003604947D01*
X0001968308Y0003605402D01*
X0002011166Y0003623154D01*
X0002022416Y0003639367D01*
X0001942826Y0003718957D01*
X0001863236Y0003639367D01*
X0001798543Y0003639367D01*
X0001798543Y0003677531D01*
X0001796585Y0003687372D01*
X0001791010Y0003695715D01*
X0001764047Y0003722679D01*
X0001764048Y0003723713D01*
X0001759306Y0003735191D01*
X0001750532Y0003743980D01*
X0001739063Y0003748742D01*
X0001726644Y0003748753D01*
X0001715166Y0003744011D01*
X0001706377Y0003735237D01*
X0001701615Y0003723768D01*
X0001701604Y0003711349D01*
X0001706347Y0003699871D01*
X0001715120Y0003691082D01*
X0001726589Y0003686320D01*
X0001727669Y0003686319D01*
X0001747110Y0003666879D01*
X0001747110Y0003638183D01*
X0001693715Y0003584789D01*
X0001677101Y0003601403D01*
X0001671585Y0003605172D01*
X0001664577Y0003606692D01*
X0001657531Y0003605366D01*
X0001651555Y0003601403D01*
X0001618148Y0003567996D01*
X0001617236Y0003566661D01*
X0001552174Y0003631723D01*
X0001595482Y0003631723D01*
X0001600865Y0003618695D01*
X0001610824Y0003608719D01*
X0001623842Y0003603313D01*
X0001637938Y0003603301D01*
X0001650966Y0003608684D01*
X0001660942Y0003618642D01*
X0001666348Y0003631661D01*
X0001666360Y0003645757D01*
X0001660977Y0003658785D01*
X0001651019Y0003668761D01*
X0001638000Y0003674167D01*
X0001623904Y0003674179D01*
X0001610876Y0003668796D01*
X0001600900Y0003658837D01*
X0001595494Y0003645819D01*
X0001595482Y0003631723D01*
X0001552174Y0003631723D01*
X0001534045Y0003649853D01*
X0001534048Y0003653713D01*
X0001529306Y0003665191D01*
X0001520532Y0003673980D01*
X0001514975Y0003676287D01*
X0001526629Y0003693728D01*
X0001611932Y0003750726D01*
X0001820242Y0003750726D01*
X0001820697Y0003702049D01*
X0001838449Y0003659191D01*
X0001854662Y0003647941D01*
X0001934252Y0003727531D01*
X0001951400Y0003727531D01*
X0002030990Y0003647941D01*
X0002047203Y0003659191D01*
X0002065410Y0003704336D01*
X0002064955Y0003753013D01*
X0002047203Y0003795871D01*
X0002030990Y0003807121D01*
X0001951400Y0003727531D01*
X0001934252Y0003727531D01*
X0001854662Y0003807121D01*
X0001838449Y0003795871D01*
X0001820242Y0003750726D01*
X0001611932Y0003750726D01*
X0001709167Y0003815695D01*
X0001863236Y0003815695D01*
X0001942826Y0003736105D01*
X0002022416Y0003815695D01*
X0002011166Y0003831908D01*
X0001966021Y0003850115D01*
X0001917344Y0003849660D01*
X0001874486Y0003831908D01*
X0001863236Y0003815695D01*
X0001709167Y0003815695D01*
X0001717582Y0003821318D01*
X0001942826Y0003866122D01*
X0002168070Y0003821318D01*
G04 next file*
G04 #@! TF.FileFunction,Copper,L2,Bot,Signal*
G04 Gerber Fmt 4.6, Leading zero omitted, Abs format (unit mm)*
G04 Created by KiCad (PCBNEW 4.0.7) date 09/05/18 21:08:50*
G01*
G04 APERTURE LIST*
G04 APERTURE END LIST*
D90*
D91*
X-0004922567Y0005542896D02*
X0003277432Y0002392896D03*
D92*
X0003277432Y0001742896D03*
D93*
X0003727432Y0001742896D03*
X0002827432Y0001742896D03*
D90*
G36*
X0003627432Y0002148354D02*
X0003582890Y0002192896D01*
X0003627432Y0002237439D01*
X0003671975Y0002192896D01*
X0003627432Y0002148354D01*
X0003627432Y0002148354D01*
G37*
D94*
X0003698143Y0002263607D03*
D95*
X0003556722Y0002263607D02*
X0003556722Y0002263607D01*
X0003627432Y0002334318D02*
X0003627432Y0002334318D01*
X0003486011Y0002334318D02*
X0003486011Y0002334318D01*
X0003556722Y0002405028D02*
X0003556722Y0002405028D01*
D90*
G36*
X0002895931Y0002011797D02*
X0002826333Y0002081395D01*
X0002859740Y0002114801D01*
X0002929337Y0002045204D01*
X0002895931Y0002011797D01*
X0002895931Y0002011797D01*
G37*
G36*
X0002966641Y0002082508D02*
X0002897044Y0002152105D01*
X0002930451Y0002185512D01*
X0003000048Y0002115915D01*
X0002966641Y0002082508D01*
X0002966641Y0002082508D01*
G37*
G36*
X0003035125Y0002150992D02*
X0002965528Y0002220589D01*
X0002998934Y0002253995D01*
X0003068531Y0002184398D01*
X0003035125Y0002150992D01*
X0003035125Y0002150992D01*
G37*
D96*
X0002902432Y0001542896D03*
X0003627432Y0001517896D03*
X0003067432Y0002382896D03*
X0003777432Y0001972896D03*
X0003627432Y0001972896D03*
X0003577432Y0001972896D03*
X0003677432Y0001972896D03*
X0002837432Y0002312896D03*
D97*
X0003277432Y0002392896D02*
X0003327432Y0002392896D01*
X0003327432Y0002392896D02*
X0003377432Y0002442896D01*
X0003518854Y0002442896D02*
X0003556722Y0002405028D01*
X0003377432Y0002442896D02*
X0003518854Y0002442896D01*
X0003277432Y0001742896D02*
X0003102432Y0001742896D01*
X0003102432Y0001742896D02*
X0002902432Y0001542896D01*
X0003277432Y0001742896D02*
X0003402432Y0001742896D01*
X0003402432Y0001742896D02*
X0003627432Y0001517896D01*
X0003107432Y0002292896D02*
X0003017030Y0002202494D01*
X0003107432Y0002342896D02*
X0003107432Y0002292896D01*
X0003067432Y0002382896D02*
X0003107432Y0002342896D01*
X0003017030Y0002203299D02*
X0003017030Y0002202494D01*
X0003752432Y0002017896D02*
X0003752432Y0001997896D01*
X0003752432Y0002017896D02*
X0003752432Y0002209318D01*
X0003698143Y0002263607D02*
X0003752432Y0002209318D01*
X0003752432Y0001997896D02*
X0003777432Y0001972896D01*
X0003037432Y0002185123D02*
X0003003546Y0002219010D01*
X0003001319Y0002219010D02*
X0003003546Y0002219010D01*
D98*
X0003627432Y0001972896D02*
X0003627432Y0002192896D01*
X0003557432Y0002012896D02*
X0003556722Y0002013607D01*
X0003557432Y0001992896D02*
X0003557432Y0002012896D01*
X0003577432Y0001972896D02*
X0003557432Y0001992896D01*
X0003556722Y0002013607D02*
X0003556722Y0002263607D01*
X0003677432Y0002217896D02*
X0003702432Y0002192896D01*
X0003677432Y0002217896D02*
X0003627432Y0002267896D01*
X0003627432Y0002334318D02*
X0003627432Y0002267896D01*
X0003702432Y0002017896D02*
X0003677432Y0001972896D01*
X0003702432Y0002092896D02*
X0003702432Y0002017896D01*
X0003702432Y0002192896D02*
X0003702432Y0002092896D01*
X0003394590Y0002242896D02*
X0003486011Y0002334318D01*
X0003187432Y0002242896D02*
X0003394590Y0002242896D01*
X0003067432Y0002122896D02*
X0003187432Y0002242896D01*
X0003027432Y0002122896D02*
X0003067432Y0002122896D01*
X0002837432Y0002312896D02*
X0003027432Y0002122896D01*
D97*
X0002827432Y0001892896D02*
X0002837432Y0001892896D01*
X0002827432Y0001742896D02*
X0002827432Y0001892896D01*
X0002987432Y0002095123D02*
X0002948546Y0002134010D01*
X0002987432Y0002042896D02*
X0002987432Y0002095123D01*
X0002837432Y0001892896D02*
X0002987432Y0002042896D01*
D99*
G36*
X0003589064Y0002364112D02*
X0003581284Y0002352469D01*
X0003577538Y0002333636D01*
X0003581284Y0002314803D01*
X0003591449Y0002299591D01*
X0003576236Y0002309755D01*
X0003557403Y0002313501D01*
X0003538571Y0002309755D01*
X0003522605Y0002299087D01*
X0003521241Y0002297724D01*
X0003510574Y0002281758D01*
X0003506827Y0002262925D01*
X0003510574Y0002244092D01*
X0003521241Y0002228127D01*
X0003533005Y0002220267D01*
X0003533005Y0002018042D01*
X0003496600Y0002054869D01*
X0003360530Y0002114993D01*
X0003211809Y0002118469D01*
X0003073079Y0002064767D01*
X0003058265Y0002054869D01*
X0003016392Y0002012511D01*
X0003277432Y0001751471D01*
X0003277989Y0001752028D01*
X0003286564Y0001743453D01*
X0003286007Y0001742896D01*
X0003547047Y0001481856D01*
X0003589405Y0001523729D01*
X0003649529Y0001659799D01*
X0003653005Y0001808520D01*
X0003599303Y0001947250D01*
X0003597952Y0001949272D01*
X0003602438Y0001953750D01*
X0003609727Y0001946448D01*
X0003621196Y0001941685D01*
X0003633615Y0001941674D01*
X0003645092Y0001946417D01*
X0003652438Y0001953750D01*
X0003659727Y0001946448D01*
X0003671196Y0001941685D01*
X0003683615Y0001941674D01*
X0003695092Y0001946417D01*
X0003703881Y0001955191D01*
X0003708644Y0001966660D01*
X0003708654Y0001979079D01*
X0003708374Y0001979756D01*
X0003723164Y0002006379D01*
X0003723583Y0002007682D01*
X0003724344Y0002008820D01*
X0003724986Y0002012052D01*
X0003725994Y0002015189D01*
X0003725882Y0002016554D01*
X0003726149Y0002017896D01*
X0003726149Y0002192896D01*
X0003724576Y0002200806D01*
X0003726716Y0002198666D01*
X0003726716Y0001997896D01*
X0003728673Y0001988055D01*
X0003734248Y0001979712D01*
X0003746211Y0001967749D01*
X0003746210Y0001966714D01*
X0003750953Y0001955237D01*
X0003759727Y0001946448D01*
X0003771196Y0001941685D01*
X0003783615Y0001941674D01*
X0003795092Y0001946417D01*
X0003803881Y0001955191D01*
X0003808644Y0001966660D01*
X0003808654Y0001979079D01*
X0003803912Y0001990556D01*
X0003795138Y0001999345D01*
X0003783669Y0002004107D01*
X0003782589Y0002004108D01*
X0003778149Y0002008549D01*
X0003778149Y0002209318D01*
X0003776191Y0002219159D01*
X0003770617Y0002227502D01*
X0003746466Y0002251653D01*
X0003747347Y0002253775D01*
X0003747364Y0002273353D01*
X0003741604Y0002287294D01*
X0003821220Y0002168140D01*
X0003866024Y0001942896D01*
X0003821220Y0001717652D01*
X0003795496Y0001679154D01*
X0003795496Y0001842896D01*
X0003794261Y0001849462D01*
X0003790381Y0001855492D01*
X0003784460Y0001859537D01*
X0003777432Y0001860960D01*
X0003677432Y0001860960D01*
X0003670867Y0001859725D01*
X0003664837Y0001855845D01*
X0003660792Y0001849924D01*
X0003659369Y0001842896D01*
X0003659369Y0001642896D01*
X0003660604Y0001636331D01*
X0003664484Y0001630301D01*
X0003670405Y0001626256D01*
X0003677432Y0001624833D01*
X0003759200Y0001624833D01*
X0003693629Y0001526700D01*
X0003502677Y0001399109D01*
X0003343241Y0001367395D01*
X0003481786Y0001421025D01*
X0003496600Y0001430924D01*
X0003538473Y0001473282D01*
X0003277432Y0001734322D01*
X0003016392Y0001473282D01*
X0003058265Y0001430924D01*
X0003194191Y0001370863D01*
X0003052188Y0001399109D01*
X0002861236Y0001526700D01*
X0002795665Y0001624833D01*
X0002877432Y0001624833D01*
X0002883998Y0001626068D01*
X0002890028Y0001629948D01*
X0002894073Y0001635869D01*
X0002895496Y0001642896D01*
X0002895496Y0001677273D01*
X0002901860Y0001677273D01*
X0002955561Y0001538543D01*
X0002965460Y0001523729D01*
X0003007818Y0001481856D01*
X0003268858Y0001742896D01*
X0003007818Y0002003937D01*
X0002965460Y0001962064D01*
X0002905335Y0001825994D01*
X0002901860Y0001677273D01*
X0002895496Y0001677273D01*
X0002895496Y0001842896D01*
X0002894261Y0001849462D01*
X0002890381Y0001855492D01*
X0002884460Y0001859537D01*
X0002877432Y0001860960D01*
X0002853149Y0001860960D01*
X0002853149Y0001873063D01*
X0002855617Y0001874712D01*
X0003005617Y0002024712D01*
X0003007638Y0002027738D01*
X0003011191Y0002033055D01*
X0003013149Y0002042896D01*
X0003013149Y0002095123D01*
X0003011764Y0002102085D01*
X0003012821Y0002103142D01*
X0003013544Y0002104201D01*
X0003018356Y0002100985D01*
X0003027432Y0002099180D01*
X0003067432Y0002099180D01*
X0003076508Y0002100985D01*
X0003084203Y0002106126D01*
X0003197256Y0002219180D01*
X0003394590Y0002219180D01*
X0003403666Y0002220985D01*
X0003411360Y0002226126D01*
X0003472257Y0002287024D01*
X0003485329Y0002284423D01*
X0003504162Y0002288170D01*
X0003520128Y0002298837D01*
X0003521491Y0002300201D01*
X0003532159Y0002316167D01*
X0003535905Y0002334999D01*
X0003532159Y0002353832D01*
X0003530454Y0002356384D01*
X0003542114Y0002351554D01*
X0003563689Y0002350035D01*
X0003584204Y0002356887D01*
X0003587165Y0002366010D01*
X0003589064Y0002364112D01*
X0003589064Y0002364112D01*
G37*
X0003589064Y0002364112D02*
X0003581284Y0002352469D01*
X0003577538Y0002333636D01*
X0003581284Y0002314803D01*
X0003591449Y0002299591D01*
X0003576236Y0002309755D01*
X0003557403Y0002313501D01*
X0003538571Y0002309755D01*
X0003522605Y0002299087D01*
X0003521241Y0002297724D01*
X0003510574Y0002281758D01*
X0003506827Y0002262925D01*
X0003510574Y0002244092D01*
X0003521241Y0002228127D01*
X0003533005Y0002220267D01*
X0003533005Y0002018042D01*
X0003496600Y0002054869D01*
X0003360530Y0002114993D01*
X0003211809Y0002118469D01*
X0003073079Y0002064767D01*
X0003058265Y0002054869D01*
X0003016392Y0002012511D01*
X0003277432Y0001751471D01*
X0003277989Y0001752028D01*
X0003286564Y0001743453D01*
X0003286007Y0001742896D01*
X0003547047Y0001481856D01*
X0003589405Y0001523729D01*
X0003649529Y0001659799D01*
X0003653005Y0001808520D01*
X0003599303Y0001947250D01*
X0003597952Y0001949272D01*
X0003602438Y0001953750D01*
X0003609727Y0001946448D01*
X0003621196Y0001941685D01*
X0003633615Y0001941674D01*
X0003645092Y0001946417D01*
X0003652438Y0001953750D01*
X0003659727Y0001946448D01*
X0003671196Y0001941685D01*
X0003683615Y0001941674D01*
X0003695092Y0001946417D01*
X0003703881Y0001955191D01*
X0003708644Y0001966660D01*
X0003708654Y0001979079D01*
X0003708374Y0001979756D01*
X0003723164Y0002006379D01*
X0003723583Y0002007682D01*
X0003724344Y0002008820D01*
X0003724986Y0002012052D01*
X0003725994Y0002015189D01*
X0003725882Y0002016554D01*
X0003726149Y0002017896D01*
X0003726149Y0002192896D01*
X0003724576Y0002200806D01*
X0003726716Y0002198666D01*
X0003726716Y0001997896D01*
X0003728673Y0001988055D01*
X0003734248Y0001979712D01*
X0003746211Y0001967749D01*
X0003746210Y0001966714D01*
X0003750953Y0001955237D01*
X0003759727Y0001946448D01*
X0003771196Y0001941685D01*
X0003783615Y0001941674D01*
X0003795092Y0001946417D01*
X0003803881Y0001955191D01*
X0003808644Y0001966660D01*
X0003808654Y0001979079D01*
X0003803912Y0001990556D01*
X0003795138Y0001999345D01*
X0003783669Y0002004107D01*
X0003782589Y0002004108D01*
X0003778149Y0002008549D01*
X0003778149Y0002209318D01*
X0003776191Y0002219159D01*
X0003770617Y0002227502D01*
X0003746466Y0002251653D01*
X0003747347Y0002253775D01*
X0003747364Y0002273353D01*
X0003741604Y0002287294D01*
X0003821220Y0002168140D01*
X0003866024Y0001942896D01*
X0003821220Y0001717652D01*
X0003795496Y0001679154D01*
X0003795496Y0001842896D01*
X0003794261Y0001849462D01*
X0003790381Y0001855492D01*
X0003784460Y0001859537D01*
X0003777432Y0001860960D01*
X0003677432Y0001860960D01*
X0003670867Y0001859725D01*
X0003664837Y0001855845D01*
X0003660792Y0001849924D01*
X0003659369Y0001842896D01*
X0003659369Y0001642896D01*
X0003660604Y0001636331D01*
X0003664484Y0001630301D01*
X0003670405Y0001626256D01*
X0003677432Y0001624833D01*
X0003759200Y0001624833D01*
X0003693629Y0001526700D01*
X0003502677Y0001399109D01*
X0003343241Y0001367395D01*
X0003481786Y0001421025D01*
X0003496600Y0001430924D01*
X0003538473Y0001473282D01*
X0003277432Y0001734322D01*
X0003016392Y0001473282D01*
X0003058265Y0001430924D01*
X0003194191Y0001370863D01*
X0003052188Y0001399109D01*
X0002861236Y0001526700D01*
X0002795665Y0001624833D01*
X0002877432Y0001624833D01*
X0002883998Y0001626068D01*
X0002890028Y0001629948D01*
X0002894073Y0001635869D01*
X0002895496Y0001642896D01*
X0002895496Y0001677273D01*
X0002901860Y0001677273D01*
X0002955561Y0001538543D01*
X0002965460Y0001523729D01*
X0003007818Y0001481856D01*
X0003268858Y0001742896D01*
X0003007818Y0002003937D01*
X0002965460Y0001962064D01*
X0002905335Y0001825994D01*
X0002901860Y0001677273D01*
X0002895496Y0001677273D01*
X0002895496Y0001842896D01*
X0002894261Y0001849462D01*
X0002890381Y0001855492D01*
X0002884460Y0001859537D01*
X0002877432Y0001860960D01*
X0002853149Y0001860960D01*
X0002853149Y0001873063D01*
X0002855617Y0001874712D01*
X0003005617Y0002024712D01*
X0003007638Y0002027738D01*
X0003011191Y0002033055D01*
X0003013149Y0002042896D01*
X0003013149Y0002095123D01*
X0003011764Y0002102085D01*
X0003012821Y0002103142D01*
X0003013544Y0002104201D01*
X0003018356Y0002100985D01*
X0003027432Y0002099180D01*
X0003067432Y0002099180D01*
X0003076508Y0002100985D01*
X0003084203Y0002106126D01*
X0003197256Y0002219180D01*
X0003394590Y0002219180D01*
X0003403666Y0002220985D01*
X0003411360Y0002226126D01*
X0003472257Y0002287024D01*
X0003485329Y0002284423D01*
X0003504162Y0002288170D01*
X0003520128Y0002298837D01*
X0003521491Y0002300201D01*
X0003532159Y0002316167D01*
X0003535905Y0002334999D01*
X0003532159Y0002353832D01*
X0003530454Y0002356384D01*
X0003542114Y0002351554D01*
X0003563689Y0002350035D01*
X0003584204Y0002356887D01*
X0003587165Y0002366010D01*
X0003589064Y0002364112D01*
G36*
X0003502677Y0002486684D02*
X0003544970Y0002458424D01*
X0003529239Y0002453170D01*
X0003526278Y0002444046D01*
X0003556722Y0002413603D01*
X0003557279Y0002414160D01*
X0003565853Y0002405585D01*
X0003565296Y0002405028D01*
X0003565853Y0002404472D01*
X0003557279Y0002395897D01*
X0003556722Y0002396454D01*
X0003556165Y0002395897D01*
X0003547591Y0002404472D01*
X0003548147Y0002405028D01*
X0003517704Y0002435472D01*
X0003508580Y0002432511D01*
X0003501728Y0002411996D01*
X0003503248Y0002390420D01*
X0003508078Y0002378761D01*
X0003505526Y0002380466D01*
X0003486693Y0002384212D01*
X0003467860Y0002380466D01*
X0003451894Y0002369798D01*
X0003450531Y0002368435D01*
X0003439863Y0002352469D01*
X0003436117Y0002333636D01*
X0003438717Y0002320564D01*
X0003384766Y0002266613D01*
X0003187432Y0002266613D01*
X0003178356Y0002264808D01*
X0003170662Y0002259667D01*
X0003057609Y0002146613D01*
X0003056292Y0002146613D01*
X0003081304Y0002171625D01*
X0003085073Y0002177141D01*
X0003086593Y0002184149D01*
X0003085267Y0002191195D01*
X0003081304Y0002197171D01*
X0003064690Y0002213785D01*
X0003125617Y0002274712D01*
X0003131191Y0002283055D01*
X0003133149Y0002292896D01*
X0003133149Y0002304732D01*
X0003197842Y0002304732D01*
X0003209092Y0002288519D01*
X0003254238Y0002270312D01*
X0003302914Y0002270767D01*
X0003345772Y0002288519D01*
X0003357022Y0002304732D01*
X0003277432Y0002384322D01*
X0003197842Y0002304732D01*
X0003133149Y0002304732D01*
X0003133149Y0002342896D01*
X0003131191Y0002352738D01*
X0003125617Y0002361081D01*
X0003098653Y0002388044D01*
X0003098654Y0002389079D01*
X0003093912Y0002400556D01*
X0003085138Y0002409345D01*
X0003073669Y0002414107D01*
X0003061250Y0002414118D01*
X0003049773Y0002409376D01*
X0003040984Y0002400602D01*
X0003036221Y0002389133D01*
X0003036210Y0002376714D01*
X0003040953Y0002365237D01*
X0003049727Y0002356448D01*
X0003061196Y0002351685D01*
X0003062276Y0002351684D01*
X0003081716Y0002332244D01*
X0003081716Y0002303549D01*
X0003028321Y0002250154D01*
X0003011707Y0002266768D01*
X0003006191Y0002270537D01*
X0002999184Y0002272057D01*
X0002992137Y0002270731D01*
X0002986161Y0002266768D01*
X0002952755Y0002233362D01*
X0002951842Y0002232027D01*
X0002886781Y0002297088D01*
X0002930088Y0002297088D01*
X0002935471Y0002284060D01*
X0002945430Y0002274084D01*
X0002958449Y0002268678D01*
X0002972545Y0002268666D01*
X0002985573Y0002274049D01*
X0002995549Y0002284008D01*
X0003000955Y0002297026D01*
X0003000967Y0002311122D01*
X0002995584Y0002324150D01*
X0002985625Y0002334127D01*
X0002972607Y0002339532D01*
X0002958510Y0002339545D01*
X0002945483Y0002334162D01*
X0002935506Y0002324203D01*
X0002930101Y0002311184D01*
X0002930088Y0002297088D01*
X0002886781Y0002297088D01*
X0002868651Y0002315218D01*
X0002868654Y0002319079D01*
X0002863912Y0002330556D01*
X0002855138Y0002339345D01*
X0002849582Y0002341652D01*
X0002861236Y0002359093D01*
X0002946539Y0002416091D01*
X0003154848Y0002416091D01*
X0003155303Y0002367414D01*
X0003173055Y0002324556D01*
X0003189268Y0002313306D01*
X0003268858Y0002392896D01*
X0003286007Y0002392896D01*
X0003365597Y0002313306D01*
X0003381809Y0002324556D01*
X0003400017Y0002369702D01*
X0003399562Y0002418378D01*
X0003381809Y0002461236D01*
X0003365597Y0002472486D01*
X0003286007Y0002392896D01*
X0003268858Y0002392896D01*
X0003189268Y0002472486D01*
X0003173055Y0002461236D01*
X0003154848Y0002416091D01*
X0002946539Y0002416091D01*
X0003043773Y0002481061D01*
X0003197842Y0002481061D01*
X0003277432Y0002401471D01*
X0003357022Y0002481061D01*
X0003345772Y0002497273D01*
X0003300627Y0002515481D01*
X0003251950Y0002515026D01*
X0003209092Y0002497273D01*
X0003197842Y0002481061D01*
X0003043773Y0002481061D01*
X0003052188Y0002486684D01*
X0003277432Y0002531488D01*
X0003502677Y0002486684D01*
X0003502677Y0002486684D01*
G37*
X0003502677Y0002486684D02*
X0003544970Y0002458424D01*
X0003529239Y0002453170D01*
X0003526278Y0002444046D01*
X0003556722Y0002413603D01*
X0003557279Y0002414160D01*
X0003565853Y0002405585D01*
X0003565296Y0002405028D01*
X0003565853Y0002404472D01*
X0003557279Y0002395897D01*
X0003556722Y0002396454D01*
X0003556165Y0002395897D01*
X0003547591Y0002404472D01*
X0003548147Y0002405028D01*
X0003517704Y0002435472D01*
X0003508580Y0002432511D01*
X0003501728Y0002411996D01*
X0003503248Y0002390420D01*
X0003508078Y0002378761D01*
X0003505526Y0002380466D01*
X0003486693Y0002384212D01*
X0003467860Y0002380466D01*
X0003451894Y0002369798D01*
X0003450531Y0002368435D01*
X0003439863Y0002352469D01*
X0003436117Y0002333636D01*
X0003438717Y0002320564D01*
X0003384766Y0002266613D01*
X0003187432Y0002266613D01*
X0003178356Y0002264808D01*
X0003170662Y0002259667D01*
X0003057609Y0002146613D01*
X0003056292Y0002146613D01*
X0003081304Y0002171625D01*
X0003085073Y0002177141D01*
X0003086593Y0002184149D01*
X0003085267Y0002191195D01*
X0003081304Y0002197171D01*
X0003064690Y0002213785D01*
X0003125617Y0002274712D01*
X0003131191Y0002283055D01*
X0003133149Y0002292896D01*
X0003133149Y0002304732D01*
X0003197842Y0002304732D01*
X0003209092Y0002288519D01*
X0003254238Y0002270312D01*
X0003302914Y0002270767D01*
X0003345772Y0002288519D01*
X0003357022Y0002304732D01*
X0003277432Y0002384322D01*
X0003197842Y0002304732D01*
X0003133149Y0002304732D01*
X0003133149Y0002342896D01*
X0003131191Y0002352738D01*
X0003125617Y0002361081D01*
X0003098653Y0002388044D01*
X0003098654Y0002389079D01*
X0003093912Y0002400556D01*
X0003085138Y0002409345D01*
X0003073669Y0002414107D01*
X0003061250Y0002414118D01*
X0003049773Y0002409376D01*
X0003040984Y0002400602D01*
X0003036221Y0002389133D01*
X0003036210Y0002376714D01*
X0003040953Y0002365237D01*
X0003049727Y0002356448D01*
X0003061196Y0002351685D01*
X0003062276Y0002351684D01*
X0003081716Y0002332244D01*
X0003081716Y0002303549D01*
X0003028321Y0002250154D01*
X0003011707Y0002266768D01*
X0003006191Y0002270537D01*
X0002999184Y0002272057D01*
X0002992137Y0002270731D01*
X0002986161Y0002266768D01*
X0002952755Y0002233362D01*
X0002951842Y0002232027D01*
X0002886781Y0002297088D01*
X0002930088Y0002297088D01*
X0002935471Y0002284060D01*
X0002945430Y0002274084D01*
X0002958449Y0002268678D01*
X0002972545Y0002268666D01*
X0002985573Y0002274049D01*
X0002995549Y0002284008D01*
X0003000955Y0002297026D01*
X0003000967Y0002311122D01*
X0002995584Y0002324150D01*
X0002985625Y0002334127D01*
X0002972607Y0002339532D01*
X0002958510Y0002339545D01*
X0002945483Y0002334162D01*
X0002935506Y0002324203D01*
X0002930101Y0002311184D01*
X0002930088Y0002297088D01*
X0002886781Y0002297088D01*
X0002868651Y0002315218D01*
X0002868654Y0002319079D01*
X0002863912Y0002330556D01*
X0002855138Y0002339345D01*
X0002849582Y0002341652D01*
X0002861236Y0002359093D01*
X0002946539Y0002416091D01*
X0003154848Y0002416091D01*
X0003155303Y0002367414D01*
X0003173055Y0002324556D01*
X0003189268Y0002313306D01*
X0003268858Y0002392896D01*
X0003286007Y0002392896D01*
X0003365597Y0002313306D01*
X0003381809Y0002324556D01*
X0003400017Y0002369702D01*
X0003399562Y0002418378D01*
X0003381809Y0002461236D01*
X0003365597Y0002472486D01*
X0003286007Y0002392896D01*
X0003268858Y0002392896D01*
X0003189268Y0002472486D01*
X0003173055Y0002461236D01*
X0003154848Y0002416091D01*
X0002946539Y0002416091D01*
X0003043773Y0002481061D01*
X0003197842Y0002481061D01*
X0003277432Y0002401471D01*
X0003357022Y0002481061D01*
X0003345772Y0002497273D01*
X0003300627Y0002515481D01*
X0003251950Y0002515026D01*
X0003209092Y0002497273D01*
X0003197842Y0002481061D01*
X0003043773Y0002481061D01*
X0003052188Y0002486684D01*
X0003277432Y0002531488D01*
X0003502677Y0002486684D01*
G04 next file*
G04 #@! TF.FileFunction,Copper,L2,Bot,Signal*
G04 Gerber Fmt 4.6, Leading zero omitted, Abs format (unit mm)*
G04 Created by KiCad (PCBNEW 4.0.7) date 09/05/18 21:08:50*
G01*
G04 APERTURE LIST*
G04 APERTURE END LIST*
D100*
D101*
X-0004922567Y0006877531D02*
X0003277432Y0003727531D03*
D102*
X0003277432Y0003077531D03*
D103*
X0003727432Y0003077531D03*
X0002827432Y0003077531D03*
D100*
G36*
X0003627432Y0003482989D02*
X0003582890Y0003527531D01*
X0003627432Y0003572073D01*
X0003671975Y0003527531D01*
X0003627432Y0003482989D01*
X0003627432Y0003482989D01*
G37*
D104*
X0003698143Y0003598242D03*
D105*
X0003556722Y0003598242D02*
X0003556722Y0003598242D01*
X0003627432Y0003668952D02*
X0003627432Y0003668952D01*
X0003486011Y0003668952D02*
X0003486011Y0003668952D01*
X0003556722Y0003739663D02*
X0003556722Y0003739663D01*
D100*
G36*
X0002895931Y0003346432D02*
X0002826333Y0003416029D01*
X0002859740Y0003449436D01*
X0002929337Y0003379839D01*
X0002895931Y0003346432D01*
X0002895931Y0003346432D01*
G37*
G36*
X0002966641Y0003417143D02*
X0002897044Y0003486740D01*
X0002930451Y0003520146D01*
X0003000048Y0003450549D01*
X0002966641Y0003417143D01*
X0002966641Y0003417143D01*
G37*
G36*
X0003035125Y0003485626D02*
X0002965528Y0003555223D01*
X0002998934Y0003588630D01*
X0003068531Y0003519033D01*
X0003035125Y0003485626D01*
X0003035125Y0003485626D01*
G37*
D106*
X0002902432Y0002877531D03*
X0003627432Y0002852531D03*
X0003067432Y0003717531D03*
X0003777432Y0003307531D03*
X0003627432Y0003307531D03*
X0003577432Y0003307531D03*
X0003677432Y0003307531D03*
X0002837432Y0003647531D03*
D107*
X0003277432Y0003727531D02*
X0003327432Y0003727531D01*
X0003327432Y0003727531D02*
X0003377432Y0003777531D01*
X0003518854Y0003777531D02*
X0003556722Y0003739663D01*
X0003377432Y0003777531D02*
X0003518854Y0003777531D01*
X0003277432Y0003077531D02*
X0003102432Y0003077531D01*
X0003102432Y0003077531D02*
X0002902432Y0002877531D01*
X0003277432Y0003077531D02*
X0003402432Y0003077531D01*
X0003402432Y0003077531D02*
X0003627432Y0002852531D01*
X0003107432Y0003627531D02*
X0003017030Y0003537128D01*
X0003107432Y0003677531D02*
X0003107432Y0003627531D01*
X0003067432Y0003717531D02*
X0003107432Y0003677531D01*
X0003017030Y0003537934D02*
X0003017030Y0003537128D01*
X0003752432Y0003352531D02*
X0003752432Y0003332531D01*
X0003752432Y0003352531D02*
X0003752432Y0003543952D01*
X0003698143Y0003598242D02*
X0003752432Y0003543952D01*
X0003752432Y0003332531D02*
X0003777432Y0003307531D01*
X0003037432Y0003519758D02*
X0003003546Y0003553645D01*
X0003001319Y0003553645D02*
X0003003546Y0003553645D01*
D108*
X0003627432Y0003307531D02*
X0003627432Y0003527531D01*
X0003557432Y0003347531D02*
X0003556722Y0003348242D01*
X0003557432Y0003327531D02*
X0003557432Y0003347531D01*
X0003577432Y0003307531D02*
X0003557432Y0003327531D01*
X0003556722Y0003348242D02*
X0003556722Y0003598242D01*
X0003677432Y0003552531D02*
X0003702432Y0003527531D01*
X0003677432Y0003552531D02*
X0003627432Y0003602531D01*
X0003627432Y0003668952D02*
X0003627432Y0003602531D01*
X0003702432Y0003352531D02*
X0003677432Y0003307531D01*
X0003702432Y0003427531D02*
X0003702432Y0003352531D01*
X0003702432Y0003527531D02*
X0003702432Y0003427531D01*
X0003394590Y0003577531D02*
X0003486011Y0003668952D01*
X0003187432Y0003577531D02*
X0003394590Y0003577531D01*
X0003067432Y0003457531D02*
X0003187432Y0003577531D01*
X0003027432Y0003457531D02*
X0003067432Y0003457531D01*
X0002837432Y0003647531D02*
X0003027432Y0003457531D01*
D107*
X0002827432Y0003227531D02*
X0002837432Y0003227531D01*
X0002827432Y0003077531D02*
X0002827432Y0003227531D01*
X0002987432Y0003429758D02*
X0002948546Y0003468645D01*
X0002987432Y0003377531D02*
X0002987432Y0003429758D01*
X0002837432Y0003227531D02*
X0002987432Y0003377531D01*
D109*
G36*
X0003589064Y0003698746D02*
X0003581284Y0003687103D01*
X0003577538Y0003668271D01*
X0003581284Y0003649438D01*
X0003591449Y0003634225D01*
X0003576236Y0003644390D01*
X0003557403Y0003648136D01*
X0003538571Y0003644390D01*
X0003522605Y0003633722D01*
X0003521241Y0003632358D01*
X0003510574Y0003616393D01*
X0003506827Y0003597560D01*
X0003510574Y0003578727D01*
X0003521241Y0003562761D01*
X0003533005Y0003554901D01*
X0003533005Y0003352676D01*
X0003496600Y0003389504D01*
X0003360530Y0003449628D01*
X0003211809Y0003453104D01*
X0003073079Y0003399402D01*
X0003058265Y0003389504D01*
X0003016392Y0003347146D01*
X0003277432Y0003086105D01*
X0003277989Y0003086662D01*
X0003286564Y0003078088D01*
X0003286007Y0003077531D01*
X0003547047Y0002816491D01*
X0003589405Y0002858364D01*
X0003649529Y0002994434D01*
X0003653005Y0003143154D01*
X0003599303Y0003281885D01*
X0003597952Y0003283907D01*
X0003602438Y0003288384D01*
X0003609727Y0003281082D01*
X0003621196Y0003276320D01*
X0003633615Y0003276309D01*
X0003645092Y0003281051D01*
X0003652438Y0003288384D01*
X0003659727Y0003281082D01*
X0003671196Y0003276320D01*
X0003683615Y0003276309D01*
X0003695092Y0003281051D01*
X0003703881Y0003289825D01*
X0003708644Y0003301294D01*
X0003708654Y0003313713D01*
X0003708374Y0003314391D01*
X0003723164Y0003341013D01*
X0003723583Y0003342317D01*
X0003724344Y0003343455D01*
X0003724986Y0003346687D01*
X0003725994Y0003349824D01*
X0003725882Y0003351188D01*
X0003726149Y0003352531D01*
X0003726149Y0003527531D01*
X0003724576Y0003535440D01*
X0003726716Y0003533300D01*
X0003726716Y0003332531D01*
X0003728673Y0003322690D01*
X0003734248Y0003314347D01*
X0003746211Y0003302383D01*
X0003746210Y0003301349D01*
X0003750953Y0003289871D01*
X0003759727Y0003281082D01*
X0003771196Y0003276320D01*
X0003783615Y0003276309D01*
X0003795092Y0003281051D01*
X0003803881Y0003289825D01*
X0003808644Y0003301294D01*
X0003808654Y0003313713D01*
X0003803912Y0003325191D01*
X0003795138Y0003333980D01*
X0003783669Y0003338742D01*
X0003782589Y0003338743D01*
X0003778149Y0003343183D01*
X0003778149Y0003543952D01*
X0003776191Y0003553794D01*
X0003770617Y0003562137D01*
X0003746466Y0003586287D01*
X0003747347Y0003588410D01*
X0003747364Y0003607988D01*
X0003741604Y0003621929D01*
X0003821220Y0003502775D01*
X0003866024Y0003277531D01*
X0003821220Y0003052287D01*
X0003795496Y0003013789D01*
X0003795496Y0003177531D01*
X0003794261Y0003184096D01*
X0003790381Y0003190126D01*
X0003784460Y0003194171D01*
X0003777432Y0003195595D01*
X0003677432Y0003195595D01*
X0003670867Y0003194359D01*
X0003664837Y0003190479D01*
X0003660792Y0003184559D01*
X0003659369Y0003177531D01*
X0003659369Y0002977531D01*
X0003660604Y0002970966D01*
X0003664484Y0002964936D01*
X0003670405Y0002960891D01*
X0003677432Y0002959467D01*
X0003759200Y0002959467D01*
X0003693629Y0002861334D01*
X0003502677Y0002733744D01*
X0003343241Y0002702030D01*
X0003481786Y0002755660D01*
X0003496600Y0002765558D01*
X0003538473Y0002807916D01*
X0003277432Y0003068957D01*
X0003016392Y0002807916D01*
X0003058265Y0002765558D01*
X0003194191Y0002705497D01*
X0003052188Y0002733744D01*
X0002861236Y0002861334D01*
X0002795665Y0002959467D01*
X0002877432Y0002959467D01*
X0002883998Y0002960703D01*
X0002890028Y0002964583D01*
X0002894073Y0002970503D01*
X0002895496Y0002977531D01*
X0002895496Y0003011908D01*
X0002901860Y0003011908D01*
X0002955561Y0002873177D01*
X0002965460Y0002858364D01*
X0003007818Y0002816491D01*
X0003268858Y0003077531D01*
X0003007818Y0003338571D01*
X0002965460Y0003296698D01*
X0002905335Y0003160628D01*
X0002901860Y0003011908D01*
X0002895496Y0003011908D01*
X0002895496Y0003177531D01*
X0002894261Y0003184096D01*
X0002890381Y0003190126D01*
X0002884460Y0003194171D01*
X0002877432Y0003195595D01*
X0002853149Y0003195595D01*
X0002853149Y0003207698D01*
X0002855617Y0003209347D01*
X0003005617Y0003359347D01*
X0003007638Y0003362372D01*
X0003011191Y0003367690D01*
X0003013149Y0003377531D01*
X0003013149Y0003429758D01*
X0003011764Y0003436720D01*
X0003012821Y0003437776D01*
X0003013544Y0003438835D01*
X0003018356Y0003435620D01*
X0003027432Y0003433814D01*
X0003067432Y0003433814D01*
X0003076508Y0003435620D01*
X0003084203Y0003440761D01*
X0003197256Y0003553814D01*
X0003394590Y0003553814D01*
X0003403666Y0003555620D01*
X0003411360Y0003560761D01*
X0003472257Y0003621658D01*
X0003485329Y0003619058D01*
X0003504162Y0003622804D01*
X0003520128Y0003633472D01*
X0003521491Y0003634835D01*
X0003532159Y0003650801D01*
X0003535905Y0003669634D01*
X0003532159Y0003688467D01*
X0003530454Y0003691019D01*
X0003542114Y0003686189D01*
X0003563689Y0003684669D01*
X0003584204Y0003691522D01*
X0003587165Y0003700645D01*
X0003589064Y0003698746D01*
X0003589064Y0003698746D01*
G37*
X0003589064Y0003698746D02*
X0003581284Y0003687103D01*
X0003577538Y0003668271D01*
X0003581284Y0003649438D01*
X0003591449Y0003634225D01*
X0003576236Y0003644390D01*
X0003557403Y0003648136D01*
X0003538571Y0003644390D01*
X0003522605Y0003633722D01*
X0003521241Y0003632358D01*
X0003510574Y0003616393D01*
X0003506827Y0003597560D01*
X0003510574Y0003578727D01*
X0003521241Y0003562761D01*
X0003533005Y0003554901D01*
X0003533005Y0003352676D01*
X0003496600Y0003389504D01*
X0003360530Y0003449628D01*
X0003211809Y0003453104D01*
X0003073079Y0003399402D01*
X0003058265Y0003389504D01*
X0003016392Y0003347146D01*
X0003277432Y0003086105D01*
X0003277989Y0003086662D01*
X0003286564Y0003078088D01*
X0003286007Y0003077531D01*
X0003547047Y0002816491D01*
X0003589405Y0002858364D01*
X0003649529Y0002994434D01*
X0003653005Y0003143154D01*
X0003599303Y0003281885D01*
X0003597952Y0003283907D01*
X0003602438Y0003288384D01*
X0003609727Y0003281082D01*
X0003621196Y0003276320D01*
X0003633615Y0003276309D01*
X0003645092Y0003281051D01*
X0003652438Y0003288384D01*
X0003659727Y0003281082D01*
X0003671196Y0003276320D01*
X0003683615Y0003276309D01*
X0003695092Y0003281051D01*
X0003703881Y0003289825D01*
X0003708644Y0003301294D01*
X0003708654Y0003313713D01*
X0003708374Y0003314391D01*
X0003723164Y0003341013D01*
X0003723583Y0003342317D01*
X0003724344Y0003343455D01*
X0003724986Y0003346687D01*
X0003725994Y0003349824D01*
X0003725882Y0003351188D01*
X0003726149Y0003352531D01*
X0003726149Y0003527531D01*
X0003724576Y0003535440D01*
X0003726716Y0003533300D01*
X0003726716Y0003332531D01*
X0003728673Y0003322690D01*
X0003734248Y0003314347D01*
X0003746211Y0003302383D01*
X0003746210Y0003301349D01*
X0003750953Y0003289871D01*
X0003759727Y0003281082D01*
X0003771196Y0003276320D01*
X0003783615Y0003276309D01*
X0003795092Y0003281051D01*
X0003803881Y0003289825D01*
X0003808644Y0003301294D01*
X0003808654Y0003313713D01*
X0003803912Y0003325191D01*
X0003795138Y0003333980D01*
X0003783669Y0003338742D01*
X0003782589Y0003338743D01*
X0003778149Y0003343183D01*
X0003778149Y0003543952D01*
X0003776191Y0003553794D01*
X0003770617Y0003562137D01*
X0003746466Y0003586287D01*
X0003747347Y0003588410D01*
X0003747364Y0003607988D01*
X0003741604Y0003621929D01*
X0003821220Y0003502775D01*
X0003866024Y0003277531D01*
X0003821220Y0003052287D01*
X0003795496Y0003013789D01*
X0003795496Y0003177531D01*
X0003794261Y0003184096D01*
X0003790381Y0003190126D01*
X0003784460Y0003194171D01*
X0003777432Y0003195595D01*
X0003677432Y0003195595D01*
X0003670867Y0003194359D01*
X0003664837Y0003190479D01*
X0003660792Y0003184559D01*
X0003659369Y0003177531D01*
X0003659369Y0002977531D01*
X0003660604Y0002970966D01*
X0003664484Y0002964936D01*
X0003670405Y0002960891D01*
X0003677432Y0002959467D01*
X0003759200Y0002959467D01*
X0003693629Y0002861334D01*
X0003502677Y0002733744D01*
X0003343241Y0002702030D01*
X0003481786Y0002755660D01*
X0003496600Y0002765558D01*
X0003538473Y0002807916D01*
X0003277432Y0003068957D01*
X0003016392Y0002807916D01*
X0003058265Y0002765558D01*
X0003194191Y0002705497D01*
X0003052188Y0002733744D01*
X0002861236Y0002861334D01*
X0002795665Y0002959467D01*
X0002877432Y0002959467D01*
X0002883998Y0002960703D01*
X0002890028Y0002964583D01*
X0002894073Y0002970503D01*
X0002895496Y0002977531D01*
X0002895496Y0003011908D01*
X0002901860Y0003011908D01*
X0002955561Y0002873177D01*
X0002965460Y0002858364D01*
X0003007818Y0002816491D01*
X0003268858Y0003077531D01*
X0003007818Y0003338571D01*
X0002965460Y0003296698D01*
X0002905335Y0003160628D01*
X0002901860Y0003011908D01*
X0002895496Y0003011908D01*
X0002895496Y0003177531D01*
X0002894261Y0003184096D01*
X0002890381Y0003190126D01*
X0002884460Y0003194171D01*
X0002877432Y0003195595D01*
X0002853149Y0003195595D01*
X0002853149Y0003207698D01*
X0002855617Y0003209347D01*
X0003005617Y0003359347D01*
X0003007638Y0003362372D01*
X0003011191Y0003367690D01*
X0003013149Y0003377531D01*
X0003013149Y0003429758D01*
X0003011764Y0003436720D01*
X0003012821Y0003437776D01*
X0003013544Y0003438835D01*
X0003018356Y0003435620D01*
X0003027432Y0003433814D01*
X0003067432Y0003433814D01*
X0003076508Y0003435620D01*
X0003084203Y0003440761D01*
X0003197256Y0003553814D01*
X0003394590Y0003553814D01*
X0003403666Y0003555620D01*
X0003411360Y0003560761D01*
X0003472257Y0003621658D01*
X0003485329Y0003619058D01*
X0003504162Y0003622804D01*
X0003520128Y0003633472D01*
X0003521491Y0003634835D01*
X0003532159Y0003650801D01*
X0003535905Y0003669634D01*
X0003532159Y0003688467D01*
X0003530454Y0003691019D01*
X0003542114Y0003686189D01*
X0003563689Y0003684669D01*
X0003584204Y0003691522D01*
X0003587165Y0003700645D01*
X0003589064Y0003698746D01*
G36*
X0003502677Y0003821318D02*
X0003544970Y0003793059D01*
X0003529239Y0003787804D01*
X0003526278Y0003778681D01*
X0003556722Y0003748237D01*
X0003557279Y0003748794D01*
X0003565853Y0003740220D01*
X0003565296Y0003739663D01*
X0003565853Y0003739106D01*
X0003557279Y0003730532D01*
X0003556722Y0003731089D01*
X0003556165Y0003730532D01*
X0003547591Y0003739106D01*
X0003548147Y0003739663D01*
X0003517704Y0003770107D01*
X0003508580Y0003767146D01*
X0003501728Y0003746631D01*
X0003503248Y0003725055D01*
X0003508078Y0003713395D01*
X0003505526Y0003715101D01*
X0003486693Y0003718847D01*
X0003467860Y0003715101D01*
X0003451894Y0003704433D01*
X0003450531Y0003703069D01*
X0003439863Y0003687103D01*
X0003436117Y0003668271D01*
X0003438717Y0003655198D01*
X0003384766Y0003601248D01*
X0003187432Y0003601248D01*
X0003178356Y0003599442D01*
X0003170662Y0003594301D01*
X0003057609Y0003481248D01*
X0003056292Y0003481248D01*
X0003081304Y0003506260D01*
X0003085073Y0003511776D01*
X0003086593Y0003518783D01*
X0003085267Y0003525830D01*
X0003081304Y0003531806D01*
X0003064690Y0003548420D01*
X0003125617Y0003609347D01*
X0003131191Y0003617690D01*
X0003133149Y0003627531D01*
X0003133149Y0003639367D01*
X0003197842Y0003639367D01*
X0003209092Y0003623154D01*
X0003254238Y0003604947D01*
X0003302914Y0003605402D01*
X0003345772Y0003623154D01*
X0003357022Y0003639367D01*
X0003277432Y0003718957D01*
X0003197842Y0003639367D01*
X0003133149Y0003639367D01*
X0003133149Y0003677531D01*
X0003131191Y0003687372D01*
X0003125617Y0003695715D01*
X0003098653Y0003722679D01*
X0003098654Y0003723713D01*
X0003093912Y0003735191D01*
X0003085138Y0003743980D01*
X0003073669Y0003748742D01*
X0003061250Y0003748753D01*
X0003049773Y0003744011D01*
X0003040984Y0003735237D01*
X0003036221Y0003723768D01*
X0003036210Y0003711349D01*
X0003040953Y0003699871D01*
X0003049727Y0003691082D01*
X0003061196Y0003686320D01*
X0003062276Y0003686319D01*
X0003081716Y0003666879D01*
X0003081716Y0003638183D01*
X0003028321Y0003584789D01*
X0003011707Y0003601403D01*
X0003006191Y0003605172D01*
X0002999184Y0003606692D01*
X0002992137Y0003605366D01*
X0002986161Y0003601403D01*
X0002952755Y0003567996D01*
X0002951842Y0003566661D01*
X0002886781Y0003631723D01*
X0002930088Y0003631723D01*
X0002935471Y0003618695D01*
X0002945430Y0003608719D01*
X0002958449Y0003603313D01*
X0002972545Y0003603301D01*
X0002985573Y0003608684D01*
X0002995549Y0003618642D01*
X0003000955Y0003631661D01*
X0003000967Y0003645757D01*
X0002995584Y0003658785D01*
X0002985625Y0003668761D01*
X0002972607Y0003674167D01*
X0002958510Y0003674179D01*
X0002945483Y0003668796D01*
X0002935506Y0003658837D01*
X0002930101Y0003645819D01*
X0002930088Y0003631723D01*
X0002886781Y0003631723D01*
X0002868651Y0003649853D01*
X0002868654Y0003653713D01*
X0002863912Y0003665191D01*
X0002855138Y0003673980D01*
X0002849582Y0003676287D01*
X0002861236Y0003693728D01*
X0002946539Y0003750726D01*
X0003154848Y0003750726D01*
X0003155303Y0003702049D01*
X0003173055Y0003659191D01*
X0003189268Y0003647941D01*
X0003268858Y0003727531D01*
X0003286007Y0003727531D01*
X0003365597Y0003647941D01*
X0003381809Y0003659191D01*
X0003400017Y0003704336D01*
X0003399562Y0003753013D01*
X0003381809Y0003795871D01*
X0003365597Y0003807121D01*
X0003286007Y0003727531D01*
X0003268858Y0003727531D01*
X0003189268Y0003807121D01*
X0003173055Y0003795871D01*
X0003154848Y0003750726D01*
X0002946539Y0003750726D01*
X0003043773Y0003815695D01*
X0003197842Y0003815695D01*
X0003277432Y0003736105D01*
X0003357022Y0003815695D01*
X0003345772Y0003831908D01*
X0003300627Y0003850115D01*
X0003251950Y0003849660D01*
X0003209092Y0003831908D01*
X0003197842Y0003815695D01*
X0003043773Y0003815695D01*
X0003052188Y0003821318D01*
X0003277432Y0003866122D01*
X0003502677Y0003821318D01*
X0003502677Y0003821318D01*
G37*
X0003502677Y0003821318D02*
X0003544970Y0003793059D01*
X0003529239Y0003787804D01*
X0003526278Y0003778681D01*
X0003556722Y0003748237D01*
X0003557279Y0003748794D01*
X0003565853Y0003740220D01*
X0003565296Y0003739663D01*
X0003565853Y0003739106D01*
X0003557279Y0003730532D01*
X0003556722Y0003731089D01*
X0003556165Y0003730532D01*
X0003547591Y0003739106D01*
X0003548147Y0003739663D01*
X0003517704Y0003770107D01*
X0003508580Y0003767146D01*
X0003501728Y0003746631D01*
X0003503248Y0003725055D01*
X0003508078Y0003713395D01*
X0003505526Y0003715101D01*
X0003486693Y0003718847D01*
X0003467860Y0003715101D01*
X0003451894Y0003704433D01*
X0003450531Y0003703069D01*
X0003439863Y0003687103D01*
X0003436117Y0003668271D01*
X0003438717Y0003655198D01*
X0003384766Y0003601248D01*
X0003187432Y0003601248D01*
X0003178356Y0003599442D01*
X0003170662Y0003594301D01*
X0003057609Y0003481248D01*
X0003056292Y0003481248D01*
X0003081304Y0003506260D01*
X0003085073Y0003511776D01*
X0003086593Y0003518783D01*
X0003085267Y0003525830D01*
X0003081304Y0003531806D01*
X0003064690Y0003548420D01*
X0003125617Y0003609347D01*
X0003131191Y0003617690D01*
X0003133149Y0003627531D01*
X0003133149Y0003639367D01*
X0003197842Y0003639367D01*
X0003209092Y0003623154D01*
X0003254238Y0003604947D01*
X0003302914Y0003605402D01*
X0003345772Y0003623154D01*
X0003357022Y0003639367D01*
X0003277432Y0003718957D01*
X0003197842Y0003639367D01*
X0003133149Y0003639367D01*
X0003133149Y0003677531D01*
X0003131191Y0003687372D01*
X0003125617Y0003695715D01*
X0003098653Y0003722679D01*
X0003098654Y0003723713D01*
X0003093912Y0003735191D01*
X0003085138Y0003743980D01*
X0003073669Y0003748742D01*
X0003061250Y0003748753D01*
X0003049773Y0003744011D01*
X0003040984Y0003735237D01*
X0003036221Y0003723768D01*
X0003036210Y0003711349D01*
X0003040953Y0003699871D01*
X0003049727Y0003691082D01*
X0003061196Y0003686320D01*
X0003062276Y0003686319D01*
X0003081716Y0003666879D01*
X0003081716Y0003638183D01*
X0003028321Y0003584789D01*
X0003011707Y0003601403D01*
X0003006191Y0003605172D01*
X0002999184Y0003606692D01*
X0002992137Y0003605366D01*
X0002986161Y0003601403D01*
X0002952755Y0003567996D01*
X0002951842Y0003566661D01*
X0002886781Y0003631723D01*
X0002930088Y0003631723D01*
X0002935471Y0003618695D01*
X0002945430Y0003608719D01*
X0002958449Y0003603313D01*
X0002972545Y0003603301D01*
X0002985573Y0003608684D01*
X0002995549Y0003618642D01*
X0003000955Y0003631661D01*
X0003000967Y0003645757D01*
X0002995584Y0003658785D01*
X0002985625Y0003668761D01*
X0002972607Y0003674167D01*
X0002958510Y0003674179D01*
X0002945483Y0003668796D01*
X0002935506Y0003658837D01*
X0002930101Y0003645819D01*
X0002930088Y0003631723D01*
X0002886781Y0003631723D01*
X0002868651Y0003649853D01*
X0002868654Y0003653713D01*
X0002863912Y0003665191D01*
X0002855138Y0003673980D01*
X0002849582Y0003676287D01*
X0002861236Y0003693728D01*
X0002946539Y0003750726D01*
X0003154848Y0003750726D01*
X0003155303Y0003702049D01*
X0003173055Y0003659191D01*
X0003189268Y0003647941D01*
X0003268858Y0003727531D01*
X0003286007Y0003727531D01*
X0003365597Y0003647941D01*
X0003381809Y0003659191D01*
X0003400017Y0003704336D01*
X0003399562Y0003753013D01*
X0003381809Y0003795871D01*
X0003365597Y0003807121D01*
X0003286007Y0003727531D01*
X0003268858Y0003727531D01*
X0003189268Y0003807121D01*
X0003173055Y0003795871D01*
X0003154848Y0003750726D01*
X0002946539Y0003750726D01*
X0003043773Y0003815695D01*
X0003197842Y0003815695D01*
X0003277432Y0003736105D01*
X0003357022Y0003815695D01*
X0003345772Y0003831908D01*
X0003300627Y0003850115D01*
X0003251950Y0003849660D01*
X0003209092Y0003831908D01*
X0003197842Y0003815695D01*
X0003043773Y0003815695D01*
X0003052188Y0003821318D01*
X0003277432Y0003866122D01*
X0003502677Y0003821318D01*
M02*