G04 #@! TF.FileFunction,Legend,Top*
%FSLAX46Y46*%
G04 Gerber Fmt 4.6, Leading zero omitted, Abs format (unit mm)*
G04 Created by KiCad (PCBNEW 4.0.6) date 03/27/19 07:52:48*
%MOMM*%
%LPD*%
G01*
G04 APERTURE LIST*
%ADD10C,0.100000*%
%ADD11C,0.120000*%
%ADD12C,0.200000*%
%ADD13C,0.150000*%
G04 APERTURE END LIST*
D10*
D11*
X170189000Y-78070000D02*
X170189000Y-76870000D01*
X171949000Y-76870000D02*
X171949000Y-78070000D01*
X170189000Y-81118000D02*
X170189000Y-79918000D01*
X171949000Y-79918000D02*
X171949000Y-81118000D01*
X171669000Y-85208000D02*
X170469000Y-85208000D01*
X170469000Y-83448000D02*
X171669000Y-83448000D01*
D12*
X148669000Y-73978000D02*
X148669000Y-72978000D01*
X148669000Y-72978000D02*
X142669000Y-72978000D01*
X142669000Y-72978000D02*
X142669000Y-73978000D01*
X142669000Y-77978000D02*
X142669000Y-82978000D01*
X142669000Y-82978000D02*
X148669000Y-82978000D01*
X148669000Y-82978000D02*
X148669000Y-73978000D01*
X142669000Y-73978000D02*
X142669000Y-77978000D01*
X153669000Y-82978000D02*
X153669000Y-90978000D01*
X153669000Y-69978000D02*
X153669000Y-64978000D01*
X153669000Y-82978000D02*
X152669000Y-81978000D01*
X152669000Y-81978000D02*
X152669000Y-70978000D01*
X152669000Y-70978000D02*
X153669000Y-69978000D01*
X147669000Y-91978000D02*
X152669000Y-91978000D01*
X147669000Y-63978000D02*
X152669000Y-63978000D01*
X137669000Y-90978000D02*
X137669000Y-64978000D01*
X143669000Y-91978000D02*
X138669000Y-91978000D01*
X138669000Y-63978000D02*
G75*
G03X137669000Y-64978000I0J-1000000D01*
G01*
X153669000Y-64978000D02*
G75*
G03X152669000Y-63978000I-1000000J0D01*
G01*
X152669000Y-91978000D02*
G75*
G03X153669000Y-90978000I0J1000000D01*
G01*
X137669000Y-90978000D02*
G75*
G03X138669000Y-91978000I1000000J0D01*
G01*
X143669000Y-63978000D02*
X138669000Y-63978000D01*
D10*
X160509000Y-68688000D02*
X160509000Y-69488000D01*
X160509000Y-69088000D02*
X161109000Y-68688000D01*
X161109000Y-69488000D02*
X160509000Y-69088000D01*
X161109000Y-68688000D02*
X161109000Y-69488000D01*
D11*
X161909000Y-69838000D02*
X158709000Y-69838000D01*
X158709000Y-68338000D02*
X161909000Y-68338000D01*
X158709000Y-68338000D02*
X158709000Y-69838000D01*
D13*
X169696500Y-76180500D02*
X169491500Y-76180500D01*
X169696500Y-81680500D02*
X169396500Y-81680500D01*
X164186500Y-81680500D02*
X164486500Y-81680500D01*
X164186500Y-76180500D02*
X164486500Y-76180500D01*
X169696500Y-76180500D02*
X169696500Y-81680500D01*
X164186500Y-76180500D02*
X164186500Y-81680500D01*
X169491500Y-76180500D02*
X169491500Y-74430500D01*
D11*
X161509000Y-67428000D02*
X160309000Y-67428000D01*
X160309000Y-65668000D02*
X161509000Y-65668000D01*
D13*
X190174000Y-83003000D02*
X181174000Y-83003000D01*
X181174000Y-83003000D02*
X181174000Y-92003000D01*
X181174000Y-92003000D02*
X190174000Y-92003000D01*
X190174000Y-92003000D02*
X190174000Y-83003000D01*
D11*
X157519000Y-90638000D02*
X159219000Y-90638000D01*
X159219000Y-90588000D02*
X159219000Y-86538000D01*
X157519000Y-90588000D02*
X157519000Y-86538000D01*
D13*
X173672810Y-84240381D02*
X173672810Y-83240381D01*
X174101381Y-84192762D02*
X174244238Y-84240381D01*
X174482334Y-84240381D01*
X174577572Y-84192762D01*
X174625191Y-84145143D01*
X174672810Y-84049905D01*
X174672810Y-83954667D01*
X174625191Y-83859429D01*
X174577572Y-83811810D01*
X174482334Y-83764190D01*
X174291857Y-83716571D01*
X174196619Y-83668952D01*
X174149000Y-83621333D01*
X174101381Y-83526095D01*
X174101381Y-83430857D01*
X174149000Y-83335619D01*
X174196619Y-83288000D01*
X174291857Y-83240381D01*
X174529953Y-83240381D01*
X174672810Y-83288000D01*
X175101381Y-84240381D02*
X175101381Y-83240381D01*
X175482334Y-83240381D01*
X175577572Y-83288000D01*
X175625191Y-83335619D01*
X175672810Y-83430857D01*
X175672810Y-83573714D01*
X175625191Y-83668952D01*
X175577572Y-83716571D01*
X175482334Y-83764190D01*
X175101381Y-83764190D01*
X172268048Y-75859429D02*
X173029953Y-75859429D01*
X172268048Y-83359429D02*
X173029953Y-83359429D01*
X172649001Y-83740381D02*
X172649001Y-82978476D01*
X171426143Y-79922666D02*
X171473762Y-79970285D01*
X171521381Y-80113142D01*
X171521381Y-80208380D01*
X171473762Y-80351238D01*
X171378524Y-80446476D01*
X171283286Y-80494095D01*
X171092810Y-80541714D01*
X170949952Y-80541714D01*
X170759476Y-80494095D01*
X170664238Y-80446476D01*
X170569000Y-80351238D01*
X170521381Y-80208380D01*
X170521381Y-80113142D01*
X170569000Y-79970285D01*
X170616619Y-79922666D01*
X171521381Y-78970285D02*
X171521381Y-79541714D01*
X171521381Y-79256000D02*
X170521381Y-79256000D01*
X170664238Y-79351238D01*
X170759476Y-79446476D01*
X170807095Y-79541714D01*
X171521381Y-82970666D02*
X171045190Y-83304000D01*
X171521381Y-83542095D02*
X170521381Y-83542095D01*
X170521381Y-83161142D01*
X170569000Y-83065904D01*
X170616619Y-83018285D01*
X170711857Y-82970666D01*
X170854714Y-82970666D01*
X170949952Y-83018285D01*
X170997571Y-83065904D01*
X171045190Y-83161142D01*
X171045190Y-83542095D01*
X170616619Y-82589714D02*
X170569000Y-82542095D01*
X170521381Y-82446857D01*
X170521381Y-82208761D01*
X170569000Y-82113523D01*
X170616619Y-82065904D01*
X170711857Y-82018285D01*
X170807095Y-82018285D01*
X170949952Y-82065904D01*
X171521381Y-82637333D01*
X171521381Y-82018285D01*
X173188334Y-84780381D02*
X172855000Y-84304190D01*
X172616905Y-84780381D02*
X172616905Y-83780381D01*
X172997858Y-83780381D01*
X173093096Y-83828000D01*
X173140715Y-83875619D01*
X173188334Y-83970857D01*
X173188334Y-84113714D01*
X173140715Y-84208952D01*
X173093096Y-84256571D01*
X172997858Y-84304190D01*
X172616905Y-84304190D01*
X173521667Y-83780381D02*
X174140715Y-83780381D01*
X173807381Y-84161333D01*
X173950239Y-84161333D01*
X174045477Y-84208952D01*
X174093096Y-84256571D01*
X174140715Y-84351810D01*
X174140715Y-84589905D01*
X174093096Y-84685143D01*
X174045477Y-84732762D01*
X173950239Y-84780381D01*
X173664524Y-84780381D01*
X173569286Y-84732762D01*
X173521667Y-84685143D01*
X142740429Y-63358952D02*
X142740429Y-62597047D01*
X142740429Y-93358952D02*
X142740429Y-92597047D01*
X143121381Y-92977999D02*
X142359476Y-92977999D01*
X160170905Y-67840381D02*
X160170905Y-66840381D01*
X160409000Y-66840381D01*
X160551858Y-66888000D01*
X160647096Y-66983238D01*
X160694715Y-67078476D01*
X160742334Y-67268952D01*
X160742334Y-67411810D01*
X160694715Y-67602286D01*
X160647096Y-67697524D01*
X160551858Y-67792762D01*
X160409000Y-67840381D01*
X160170905Y-67840381D01*
X161694715Y-67840381D02*
X161123286Y-67840381D01*
X161409000Y-67840381D02*
X161409000Y-66840381D01*
X161313762Y-66983238D01*
X161218524Y-67078476D01*
X161123286Y-67126095D01*
X167333881Y-80171690D02*
X166333881Y-80171690D01*
X167238643Y-79124071D02*
X167286262Y-79171690D01*
X167333881Y-79314547D01*
X167333881Y-79409785D01*
X167286262Y-79552643D01*
X167191024Y-79647881D01*
X167095786Y-79695500D01*
X166905310Y-79743119D01*
X166762452Y-79743119D01*
X166571976Y-79695500D01*
X166476738Y-79647881D01*
X166381500Y-79552643D01*
X166333881Y-79409785D01*
X166333881Y-79314547D01*
X166381500Y-79171690D01*
X166429119Y-79124071D01*
X167333881Y-78171690D02*
X167333881Y-78743119D01*
X167333881Y-78457405D02*
X166333881Y-78457405D01*
X166476738Y-78552643D01*
X166571976Y-78647881D01*
X166619595Y-78743119D01*
X160742334Y-65300381D02*
X160409000Y-64824190D01*
X160170905Y-65300381D02*
X160170905Y-64300381D01*
X160551858Y-64300381D01*
X160647096Y-64348000D01*
X160694715Y-64395619D01*
X160742334Y-64490857D01*
X160742334Y-64633714D01*
X160694715Y-64728952D01*
X160647096Y-64776571D01*
X160551858Y-64824190D01*
X160170905Y-64824190D01*
X161694715Y-65300381D02*
X161123286Y-65300381D01*
X161409000Y-65300381D02*
X161409000Y-64300381D01*
X161313762Y-64443238D01*
X161218524Y-64538476D01*
X161123286Y-64586095D01*
X186478762Y-88764905D02*
X186526381Y-88622048D01*
X186526381Y-88383952D01*
X186478762Y-88288714D01*
X186431143Y-88241095D01*
X186335905Y-88193476D01*
X186240667Y-88193476D01*
X186145429Y-88241095D01*
X186097810Y-88288714D01*
X186050190Y-88383952D01*
X186002571Y-88574429D01*
X185954952Y-88669667D01*
X185907333Y-88717286D01*
X185812095Y-88764905D01*
X185716857Y-88764905D01*
X185621619Y-88717286D01*
X185574000Y-88669667D01*
X185526381Y-88574429D01*
X185526381Y-88336333D01*
X185574000Y-88193476D01*
X186526381Y-87764905D02*
X185526381Y-87764905D01*
X185526381Y-87383952D01*
X185574000Y-87288714D01*
X185621619Y-87241095D01*
X185716857Y-87193476D01*
X185859714Y-87193476D01*
X185954952Y-87241095D01*
X186002571Y-87288714D01*
X186050190Y-87383952D01*
X186050190Y-87764905D01*
X186526381Y-86241095D02*
X186526381Y-86812524D01*
X186526381Y-86526810D02*
X185526381Y-86526810D01*
X185669238Y-86622048D01*
X185764476Y-86717286D01*
X185812095Y-86812524D01*
X184778762Y-90622048D02*
X184826381Y-90479191D01*
X184826381Y-90241095D01*
X184778762Y-90145857D01*
X184731143Y-90098238D01*
X184635905Y-90050619D01*
X184540667Y-90050619D01*
X184445429Y-90098238D01*
X184397810Y-90145857D01*
X184350190Y-90241095D01*
X184302571Y-90431572D01*
X184254952Y-90526810D01*
X184207333Y-90574429D01*
X184112095Y-90622048D01*
X184016857Y-90622048D01*
X183921619Y-90574429D01*
X183874000Y-90526810D01*
X183826381Y-90431572D01*
X183826381Y-90193476D01*
X183874000Y-90050619D01*
X184826381Y-89622048D02*
X183826381Y-89622048D01*
X183826381Y-89241095D01*
X183874000Y-89145857D01*
X183921619Y-89098238D01*
X184016857Y-89050619D01*
X184159714Y-89050619D01*
X184254952Y-89098238D01*
X184302571Y-89145857D01*
X184350190Y-89241095D01*
X184350190Y-89622048D01*
X184302571Y-88622048D02*
X184302571Y-88288714D01*
X184826381Y-88145857D02*
X184826381Y-88622048D01*
X183826381Y-88622048D01*
X183826381Y-88145857D01*
X184540667Y-87764905D02*
X184540667Y-87288714D01*
X184826381Y-87860143D02*
X183826381Y-87526810D01*
X184826381Y-87193476D01*
X184826381Y-86860143D02*
X183826381Y-86860143D01*
X184826381Y-86288714D02*
X184254952Y-86717286D01*
X183826381Y-86288714D02*
X184397810Y-86860143D01*
X184302571Y-85860143D02*
X184302571Y-85526809D01*
X184826381Y-85383952D02*
X184826381Y-85860143D01*
X183826381Y-85860143D01*
X183826381Y-85383952D01*
X184826381Y-84383952D02*
X184350190Y-84717286D01*
X184826381Y-84955381D02*
X183826381Y-84955381D01*
X183826381Y-84574428D01*
X183874000Y-84479190D01*
X183921619Y-84431571D01*
X184016857Y-84383952D01*
X184159714Y-84383952D01*
X184254952Y-84431571D01*
X184302571Y-84479190D01*
X184350190Y-84574428D01*
X184350190Y-84955381D01*
X157316619Y-88233238D02*
X157269000Y-88328476D01*
X157173762Y-88423714D01*
X157030905Y-88566571D01*
X156983286Y-88661810D01*
X156983286Y-88757048D01*
X157221381Y-88709429D02*
X157173762Y-88804667D01*
X157078524Y-88899905D01*
X156888048Y-88947524D01*
X156554714Y-88947524D01*
X156364238Y-88899905D01*
X156269000Y-88804667D01*
X156221381Y-88709429D01*
X156221381Y-88518952D01*
X156269000Y-88423714D01*
X156364238Y-88328476D01*
X156554714Y-88280857D01*
X156888048Y-88280857D01*
X157078524Y-88328476D01*
X157173762Y-88423714D01*
X157221381Y-88518952D01*
X157221381Y-88709429D01*
X157221381Y-87328476D02*
X157221381Y-87899905D01*
X157221381Y-87614191D02*
X156221381Y-87614191D01*
X156364238Y-87709429D01*
X156459476Y-87804667D01*
X156507095Y-87899905D01*
M02*
