G04 #@! TF.FileFunction,Copper,L1,Top,Signal*
%FSLAX46Y46*%
G04 Gerber Fmt 4.6, Leading zero omitted, Abs format (unit mm)*
G04 Created by KiCad (PCBNEW 4.0.7) date 06/29/18 14:44:45*
%MOMM*%
%LPD*%
G01*
G04 APERTURE LIST*
%ADD10C,0.100000*%
%ADD11C,0.010000*%
%ADD12R,2.500000X1.200000*%
%ADD13R,2.000000X1.800860*%
%ADD14R,2.000000X1.600000*%
%ADD15R,1.600000X1.600000*%
%ADD16C,1.600000*%
%ADD17O,1.600000X1.600000*%
%ADD18C,5.000000*%
%ADD19R,2.000000X1.700000*%
%ADD20R,0.650000X1.700000*%
%ADD21C,0.685800*%
%ADD22C,0.304800*%
G04 APERTURE END LIST*
D10*
D11*
G36*
X201490950Y-98233755D02*
X201729776Y-98309650D01*
X201955539Y-98452550D01*
X202158730Y-98664515D01*
X202162923Y-98670035D01*
X202299272Y-98901016D01*
X202368174Y-99150015D01*
X202372368Y-99429812D01*
X202354695Y-99564352D01*
X202328315Y-99699989D01*
X202294066Y-99826676D01*
X202247062Y-99952031D01*
X202182417Y-100083675D01*
X202095247Y-100229227D01*
X201980666Y-100396306D01*
X201833788Y-100592530D01*
X201649729Y-100825519D01*
X201423603Y-101102893D01*
X201178680Y-101398462D01*
X200971117Y-101646796D01*
X200778849Y-101874929D01*
X200607663Y-102076142D01*
X200463343Y-102243715D01*
X200351673Y-102370929D01*
X200278440Y-102451066D01*
X200249662Y-102477469D01*
X200218988Y-102447825D01*
X200144962Y-102364352D01*
X200033407Y-102233968D01*
X199890146Y-102063589D01*
X199721000Y-101860133D01*
X199531792Y-101630517D01*
X199360692Y-101421353D01*
X199152251Y-101163626D01*
X198954414Y-100915062D01*
X198774057Y-100684598D01*
X198618056Y-100481173D01*
X198493290Y-100313724D01*
X198406634Y-100191190D01*
X198372066Y-100136447D01*
X198259329Y-99887321D01*
X198183644Y-99619948D01*
X198149950Y-99359017D01*
X198163187Y-99129217D01*
X198166878Y-99110767D01*
X198264758Y-98826204D01*
X198425228Y-98585202D01*
X198583143Y-98437804D01*
X198778188Y-98311285D01*
X198968346Y-98242888D01*
X199184581Y-98223325D01*
X199285599Y-98227110D01*
X199454970Y-98247121D01*
X199583697Y-98289225D01*
X199699150Y-98358417D01*
X199885901Y-98526747D01*
X200052104Y-98745912D01*
X200177781Y-98988591D01*
X200196741Y-99038808D01*
X200266400Y-99236611D01*
X200316085Y-99070152D01*
X200433632Y-98787270D01*
X200595161Y-98559035D01*
X200791165Y-98387506D01*
X201012137Y-98274743D01*
X201248567Y-98222806D01*
X201490950Y-98233755D01*
X201490950Y-98233755D01*
G37*
X201490950Y-98233755D02*
X201729776Y-98309650D01*
X201955539Y-98452550D01*
X202158730Y-98664515D01*
X202162923Y-98670035D01*
X202299272Y-98901016D01*
X202368174Y-99150015D01*
X202372368Y-99429812D01*
X202354695Y-99564352D01*
X202328315Y-99699989D01*
X202294066Y-99826676D01*
X202247062Y-99952031D01*
X202182417Y-100083675D01*
X202095247Y-100229227D01*
X201980666Y-100396306D01*
X201833788Y-100592530D01*
X201649729Y-100825519D01*
X201423603Y-101102893D01*
X201178680Y-101398462D01*
X200971117Y-101646796D01*
X200778849Y-101874929D01*
X200607663Y-102076142D01*
X200463343Y-102243715D01*
X200351673Y-102370929D01*
X200278440Y-102451066D01*
X200249662Y-102477469D01*
X200218988Y-102447825D01*
X200144962Y-102364352D01*
X200033407Y-102233968D01*
X199890146Y-102063589D01*
X199721000Y-101860133D01*
X199531792Y-101630517D01*
X199360692Y-101421353D01*
X199152251Y-101163626D01*
X198954414Y-100915062D01*
X198774057Y-100684598D01*
X198618056Y-100481173D01*
X198493290Y-100313724D01*
X198406634Y-100191190D01*
X198372066Y-100136447D01*
X198259329Y-99887321D01*
X198183644Y-99619948D01*
X198149950Y-99359017D01*
X198163187Y-99129217D01*
X198166878Y-99110767D01*
X198264758Y-98826204D01*
X198425228Y-98585202D01*
X198583143Y-98437804D01*
X198778188Y-98311285D01*
X198968346Y-98242888D01*
X199184581Y-98223325D01*
X199285599Y-98227110D01*
X199454970Y-98247121D01*
X199583697Y-98289225D01*
X199699150Y-98358417D01*
X199885901Y-98526747D01*
X200052104Y-98745912D01*
X200177781Y-98988591D01*
X200196741Y-99038808D01*
X200266400Y-99236611D01*
X200316085Y-99070152D01*
X200433632Y-98787270D01*
X200595161Y-98559035D01*
X200791165Y-98387506D01*
X201012137Y-98274743D01*
X201248567Y-98222806D01*
X201490950Y-98233755D01*
G36*
X208045181Y-98387666D02*
X208189907Y-98431345D01*
X208344585Y-98521500D01*
X208445951Y-98633652D01*
X208487707Y-98755001D01*
X208463556Y-98872744D01*
X208430388Y-98920154D01*
X208416052Y-98945948D01*
X208406272Y-98991236D01*
X208401268Y-99063767D01*
X208401261Y-99171294D01*
X208406472Y-99321567D01*
X208417122Y-99522338D01*
X208433431Y-99781358D01*
X208455622Y-100106378D01*
X208470014Y-100310462D01*
X208496576Y-100677706D01*
X208519425Y-100975637D01*
X208539585Y-101212954D01*
X208558077Y-101398352D01*
X208575923Y-101540532D01*
X208594146Y-101648189D01*
X208613769Y-101730021D01*
X208635814Y-101794727D01*
X208647779Y-101822748D01*
X208695110Y-101934073D01*
X208709765Y-102003783D01*
X208693609Y-102060370D01*
X208666274Y-102105435D01*
X208562443Y-102197301D01*
X208414917Y-102240188D01*
X208241042Y-102233922D01*
X208058164Y-102178332D01*
X207938179Y-102112706D01*
X207818992Y-102007881D01*
X207773703Y-101892564D01*
X207798135Y-101752748D01*
X207817132Y-101706791D01*
X207838807Y-101647943D01*
X207851854Y-101577058D01*
X207856452Y-101480344D01*
X207852776Y-101344007D01*
X207841003Y-101154256D01*
X207826631Y-100964330D01*
X207804436Y-100673476D01*
X207786134Y-100453274D01*
X207767095Y-100303680D01*
X207742690Y-100224645D01*
X207708292Y-100216123D01*
X207659271Y-100278068D01*
X207590999Y-100410433D01*
X207498846Y-100613171D01*
X207378184Y-100886235D01*
X207345691Y-100959481D01*
X207223617Y-101235519D01*
X207130606Y-101450487D01*
X207063160Y-101614362D01*
X207017779Y-101737121D01*
X206990967Y-101828742D01*
X206979223Y-101899200D01*
X206979049Y-101958474D01*
X206983128Y-101993394D01*
X206992036Y-102108047D01*
X206968809Y-102182855D01*
X206918401Y-102239807D01*
X206833885Y-102299379D01*
X206761596Y-102322923D01*
X206671247Y-102331972D01*
X206641965Y-102338896D01*
X206570111Y-102339803D01*
X206468855Y-102319851D01*
X206466163Y-102319080D01*
X206330802Y-102250102D01*
X206222776Y-102140790D01*
X206159310Y-102013267D01*
X206151829Y-101915344D01*
X206148086Y-101842089D01*
X206120363Y-101720157D01*
X206066922Y-101543828D01*
X205986025Y-101307378D01*
X205875931Y-101005086D01*
X205871923Y-100994308D01*
X205773752Y-100732590D01*
X205698553Y-100538096D01*
X205643302Y-100404349D01*
X205604975Y-100324870D01*
X205580546Y-100293179D01*
X205566991Y-100302800D01*
X205562307Y-100331180D01*
X205561457Y-100418072D01*
X205567010Y-100562490D01*
X205577731Y-100749067D01*
X205592384Y-100962437D01*
X205609733Y-101187233D01*
X205628542Y-101408090D01*
X205647575Y-101609639D01*
X205665597Y-101776516D01*
X205681371Y-101893353D01*
X205691776Y-101941074D01*
X205685116Y-102019328D01*
X205624813Y-102106366D01*
X205530651Y-102184210D01*
X205422414Y-102234882D01*
X205357557Y-102244770D01*
X205197158Y-102212289D01*
X205036376Y-102127514D01*
X204906842Y-102009447D01*
X204866900Y-101950012D01*
X204824323Y-101860362D01*
X204821847Y-101799528D01*
X204858841Y-101729627D01*
X204863116Y-101723074D01*
X204880638Y-101691348D01*
X204893987Y-101650474D01*
X204903212Y-101592057D01*
X204908360Y-101507702D01*
X204909479Y-101389016D01*
X204906618Y-101227605D01*
X204899824Y-101015073D01*
X204889145Y-100743028D01*
X204874629Y-100403075D01*
X204871102Y-100322395D01*
X204854704Y-99977209D01*
X204837199Y-99661038D01*
X204819253Y-99383088D01*
X204801532Y-99152568D01*
X204784700Y-98978686D01*
X204769422Y-98870651D01*
X204764803Y-98850908D01*
X204737461Y-98743645D01*
X204740961Y-98678836D01*
X204782559Y-98624427D01*
X204824516Y-98587139D01*
X204954240Y-98516274D01*
X205111952Y-98489428D01*
X205280220Y-98501584D01*
X205441611Y-98547723D01*
X205578692Y-98622825D01*
X205674031Y-98721872D01*
X205710194Y-98839846D01*
X205710195Y-98842120D01*
X205724061Y-98897551D01*
X205762988Y-99011782D01*
X205822643Y-99174049D01*
X205898688Y-99373586D01*
X205986789Y-99599627D01*
X206082611Y-99841407D01*
X206181818Y-100088162D01*
X206280074Y-100329124D01*
X206373044Y-100553529D01*
X206456394Y-100750612D01*
X206525786Y-100909607D01*
X206576886Y-101019749D01*
X206605359Y-101070272D01*
X206608341Y-101072330D01*
X206632641Y-101037698D01*
X206681672Y-100940777D01*
X206751109Y-100791830D01*
X206836627Y-100601121D01*
X206933901Y-100378913D01*
X207038606Y-100135469D01*
X207146417Y-99881052D01*
X207253009Y-99625925D01*
X207354058Y-99380352D01*
X207445237Y-99154596D01*
X207522223Y-98958920D01*
X207580690Y-98803586D01*
X207616314Y-98698859D01*
X207625461Y-98658698D01*
X207657869Y-98523259D01*
X207746858Y-98429625D01*
X207880079Y-98382769D01*
X208045181Y-98387666D01*
X208045181Y-98387666D01*
G37*
X208045181Y-98387666D02*
X208189907Y-98431345D01*
X208344585Y-98521500D01*
X208445951Y-98633652D01*
X208487707Y-98755001D01*
X208463556Y-98872744D01*
X208430388Y-98920154D01*
X208416052Y-98945948D01*
X208406272Y-98991236D01*
X208401268Y-99063767D01*
X208401261Y-99171294D01*
X208406472Y-99321567D01*
X208417122Y-99522338D01*
X208433431Y-99781358D01*
X208455622Y-100106378D01*
X208470014Y-100310462D01*
X208496576Y-100677706D01*
X208519425Y-100975637D01*
X208539585Y-101212954D01*
X208558077Y-101398352D01*
X208575923Y-101540532D01*
X208594146Y-101648189D01*
X208613769Y-101730021D01*
X208635814Y-101794727D01*
X208647779Y-101822748D01*
X208695110Y-101934073D01*
X208709765Y-102003783D01*
X208693609Y-102060370D01*
X208666274Y-102105435D01*
X208562443Y-102197301D01*
X208414917Y-102240188D01*
X208241042Y-102233922D01*
X208058164Y-102178332D01*
X207938179Y-102112706D01*
X207818992Y-102007881D01*
X207773703Y-101892564D01*
X207798135Y-101752748D01*
X207817132Y-101706791D01*
X207838807Y-101647943D01*
X207851854Y-101577058D01*
X207856452Y-101480344D01*
X207852776Y-101344007D01*
X207841003Y-101154256D01*
X207826631Y-100964330D01*
X207804436Y-100673476D01*
X207786134Y-100453274D01*
X207767095Y-100303680D01*
X207742690Y-100224645D01*
X207708292Y-100216123D01*
X207659271Y-100278068D01*
X207590999Y-100410433D01*
X207498846Y-100613171D01*
X207378184Y-100886235D01*
X207345691Y-100959481D01*
X207223617Y-101235519D01*
X207130606Y-101450487D01*
X207063160Y-101614362D01*
X207017779Y-101737121D01*
X206990967Y-101828742D01*
X206979223Y-101899200D01*
X206979049Y-101958474D01*
X206983128Y-101993394D01*
X206992036Y-102108047D01*
X206968809Y-102182855D01*
X206918401Y-102239807D01*
X206833885Y-102299379D01*
X206761596Y-102322923D01*
X206671247Y-102331972D01*
X206641965Y-102338896D01*
X206570111Y-102339803D01*
X206468855Y-102319851D01*
X206466163Y-102319080D01*
X206330802Y-102250102D01*
X206222776Y-102140790D01*
X206159310Y-102013267D01*
X206151829Y-101915344D01*
X206148086Y-101842089D01*
X206120363Y-101720157D01*
X206066922Y-101543828D01*
X205986025Y-101307378D01*
X205875931Y-101005086D01*
X205871923Y-100994308D01*
X205773752Y-100732590D01*
X205698553Y-100538096D01*
X205643302Y-100404349D01*
X205604975Y-100324870D01*
X205580546Y-100293179D01*
X205566991Y-100302800D01*
X205562307Y-100331180D01*
X205561457Y-100418072D01*
X205567010Y-100562490D01*
X205577731Y-100749067D01*
X205592384Y-100962437D01*
X205609733Y-101187233D01*
X205628542Y-101408090D01*
X205647575Y-101609639D01*
X205665597Y-101776516D01*
X205681371Y-101893353D01*
X205691776Y-101941074D01*
X205685116Y-102019328D01*
X205624813Y-102106366D01*
X205530651Y-102184210D01*
X205422414Y-102234882D01*
X205357557Y-102244770D01*
X205197158Y-102212289D01*
X205036376Y-102127514D01*
X204906842Y-102009447D01*
X204866900Y-101950012D01*
X204824323Y-101860362D01*
X204821847Y-101799528D01*
X204858841Y-101729627D01*
X204863116Y-101723074D01*
X204880638Y-101691348D01*
X204893987Y-101650474D01*
X204903212Y-101592057D01*
X204908360Y-101507702D01*
X204909479Y-101389016D01*
X204906618Y-101227605D01*
X204899824Y-101015073D01*
X204889145Y-100743028D01*
X204874629Y-100403075D01*
X204871102Y-100322395D01*
X204854704Y-99977209D01*
X204837199Y-99661038D01*
X204819253Y-99383088D01*
X204801532Y-99152568D01*
X204784700Y-98978686D01*
X204769422Y-98870651D01*
X204764803Y-98850908D01*
X204737461Y-98743645D01*
X204740961Y-98678836D01*
X204782559Y-98624427D01*
X204824516Y-98587139D01*
X204954240Y-98516274D01*
X205111952Y-98489428D01*
X205280220Y-98501584D01*
X205441611Y-98547723D01*
X205578692Y-98622825D01*
X205674031Y-98721872D01*
X205710194Y-98839846D01*
X205710195Y-98842120D01*
X205724061Y-98897551D01*
X205762988Y-99011782D01*
X205822643Y-99174049D01*
X205898688Y-99373586D01*
X205986789Y-99599627D01*
X206082611Y-99841407D01*
X206181818Y-100088162D01*
X206280074Y-100329124D01*
X206373044Y-100553529D01*
X206456394Y-100750612D01*
X206525786Y-100909607D01*
X206576886Y-101019749D01*
X206605359Y-101070272D01*
X206608341Y-101072330D01*
X206632641Y-101037698D01*
X206681672Y-100940777D01*
X206751109Y-100791830D01*
X206836627Y-100601121D01*
X206933901Y-100378913D01*
X207038606Y-100135469D01*
X207146417Y-99881052D01*
X207253009Y-99625925D01*
X207354058Y-99380352D01*
X207445237Y-99154596D01*
X207522223Y-98958920D01*
X207580690Y-98803586D01*
X207616314Y-98698859D01*
X207625461Y-98658698D01*
X207657869Y-98523259D01*
X207746858Y-98429625D01*
X207880079Y-98382769D01*
X208045181Y-98387666D01*
G36*
X210446152Y-98464118D02*
X210603849Y-98568843D01*
X210751401Y-98739529D01*
X210780923Y-98782149D01*
X210860612Y-98917352D01*
X210898559Y-99038024D01*
X210907923Y-99179093D01*
X210890285Y-99405621D01*
X210840674Y-99685713D01*
X210764042Y-100004053D01*
X210665339Y-100345324D01*
X210549518Y-100694210D01*
X210421530Y-101035395D01*
X210286328Y-101353562D01*
X210148862Y-101633394D01*
X210069125Y-101773614D01*
X209979558Y-101904225D01*
X209872521Y-102035783D01*
X209762700Y-102152894D01*
X209664780Y-102240163D01*
X209593446Y-102282196D01*
X209582391Y-102283847D01*
X209514798Y-102295695D01*
X209494580Y-102301960D01*
X209424840Y-102299808D01*
X209328372Y-102269564D01*
X209325307Y-102268222D01*
X209239553Y-102227661D01*
X209174203Y-102184595D01*
X209126255Y-102128295D01*
X209092705Y-102048032D01*
X209070552Y-101933077D01*
X209056792Y-101772701D01*
X209048422Y-101556174D01*
X209042441Y-101272768D01*
X209042147Y-101256493D01*
X209034974Y-100924325D01*
X209025449Y-100584891D01*
X209014064Y-100248852D01*
X209001307Y-99926870D01*
X208987668Y-99629605D01*
X208973637Y-99367717D01*
X208967537Y-99273219D01*
X209618384Y-99273219D01*
X209618384Y-100130568D01*
X209619524Y-100450145D01*
X209623206Y-100698290D01*
X209629827Y-100881695D01*
X209639782Y-101007053D01*
X209653468Y-101081057D01*
X209671279Y-101110398D01*
X209676398Y-101111539D01*
X209692413Y-101076785D01*
X209729560Y-100980990D01*
X209783084Y-100836858D01*
X209848233Y-100657089D01*
X209884789Y-100554693D01*
X210005786Y-100207981D01*
X210099700Y-99923836D01*
X210169202Y-99692554D01*
X210216963Y-99504435D01*
X210245655Y-99349774D01*
X210257948Y-99218871D01*
X210258632Y-99196770D01*
X210257684Y-99071624D01*
X210243739Y-99004711D01*
X210210296Y-98976382D01*
X210183764Y-98970478D01*
X210113291Y-98985257D01*
X210002015Y-99034819D01*
X209872911Y-99108780D01*
X209861379Y-99116164D01*
X209618384Y-99273219D01*
X208967537Y-99273219D01*
X208959702Y-99151869D01*
X208946355Y-98992720D01*
X208934083Y-98900931D01*
X208933956Y-98900337D01*
X208926105Y-98814726D01*
X208957008Y-98747650D01*
X209036495Y-98671640D01*
X209129825Y-98603861D01*
X209215789Y-98578997D01*
X209334770Y-98585880D01*
X209342835Y-98586926D01*
X209477889Y-98591689D01*
X209625445Y-98566408D01*
X209794230Y-98513602D01*
X210053137Y-98439708D01*
X210266513Y-98422143D01*
X210446152Y-98464118D01*
X210446152Y-98464118D01*
G37*
X210446152Y-98464118D02*
X210603849Y-98568843D01*
X210751401Y-98739529D01*
X210780923Y-98782149D01*
X210860612Y-98917352D01*
X210898559Y-99038024D01*
X210907923Y-99179093D01*
X210890285Y-99405621D01*
X210840674Y-99685713D01*
X210764042Y-100004053D01*
X210665339Y-100345324D01*
X210549518Y-100694210D01*
X210421530Y-101035395D01*
X210286328Y-101353562D01*
X210148862Y-101633394D01*
X210069125Y-101773614D01*
X209979558Y-101904225D01*
X209872521Y-102035783D01*
X209762700Y-102152894D01*
X209664780Y-102240163D01*
X209593446Y-102282196D01*
X209582391Y-102283847D01*
X209514798Y-102295695D01*
X209494580Y-102301960D01*
X209424840Y-102299808D01*
X209328372Y-102269564D01*
X209325307Y-102268222D01*
X209239553Y-102227661D01*
X209174203Y-102184595D01*
X209126255Y-102128295D01*
X209092705Y-102048032D01*
X209070552Y-101933077D01*
X209056792Y-101772701D01*
X209048422Y-101556174D01*
X209042441Y-101272768D01*
X209042147Y-101256493D01*
X209034974Y-100924325D01*
X209025449Y-100584891D01*
X209014064Y-100248852D01*
X209001307Y-99926870D01*
X208987668Y-99629605D01*
X208973637Y-99367717D01*
X208967537Y-99273219D01*
X209618384Y-99273219D01*
X209618384Y-100130568D01*
X209619524Y-100450145D01*
X209623206Y-100698290D01*
X209629827Y-100881695D01*
X209639782Y-101007053D01*
X209653468Y-101081057D01*
X209671279Y-101110398D01*
X209676398Y-101111539D01*
X209692413Y-101076785D01*
X209729560Y-100980990D01*
X209783084Y-100836858D01*
X209848233Y-100657089D01*
X209884789Y-100554693D01*
X210005786Y-100207981D01*
X210099700Y-99923836D01*
X210169202Y-99692554D01*
X210216963Y-99504435D01*
X210245655Y-99349774D01*
X210257948Y-99218871D01*
X210258632Y-99196770D01*
X210257684Y-99071624D01*
X210243739Y-99004711D01*
X210210296Y-98976382D01*
X210183764Y-98970478D01*
X210113291Y-98985257D01*
X210002015Y-99034819D01*
X209872911Y-99108780D01*
X209861379Y-99116164D01*
X209618384Y-99273219D01*
X208967537Y-99273219D01*
X208959702Y-99151869D01*
X208946355Y-98992720D01*
X208934083Y-98900931D01*
X208933956Y-98900337D01*
X208926105Y-98814726D01*
X208957008Y-98747650D01*
X209036495Y-98671640D01*
X209129825Y-98603861D01*
X209215789Y-98578997D01*
X209334770Y-98585880D01*
X209342835Y-98586926D01*
X209477889Y-98591689D01*
X209625445Y-98566408D01*
X209794230Y-98513602D01*
X210053137Y-98439708D01*
X210266513Y-98422143D01*
X210446152Y-98464118D01*
G36*
X203753430Y-98405141D02*
X203954595Y-98511391D01*
X204114311Y-98682674D01*
X204231236Y-98917574D01*
X204301339Y-99197627D01*
X204335202Y-99467345D01*
X204336546Y-99670350D01*
X204303366Y-99811878D01*
X204233658Y-99897167D01*
X204125417Y-99931453D01*
X204022007Y-99927433D01*
X203857986Y-99871538D01*
X203727322Y-99763113D01*
X203641086Y-99619824D01*
X203610350Y-99459337D01*
X203638791Y-99315989D01*
X203667864Y-99220825D01*
X203653911Y-99157833D01*
X203639586Y-99138119D01*
X203556971Y-99084587D01*
X203465749Y-99097611D01*
X203377240Y-99168172D01*
X203302761Y-99287256D01*
X203253687Y-99445542D01*
X203234416Y-99641010D01*
X203260871Y-99807195D01*
X203339774Y-99954379D01*
X203477848Y-100092844D01*
X203681815Y-100232872D01*
X203820100Y-100311872D01*
X204058532Y-100457163D01*
X204231984Y-100601723D01*
X204352480Y-100758179D01*
X204432046Y-100939158D01*
X204439015Y-100961773D01*
X204490343Y-101254217D01*
X204471198Y-101536319D01*
X204383448Y-101796012D01*
X204285415Y-101953815D01*
X204121878Y-102106761D01*
X203914863Y-102205382D01*
X203680703Y-102245659D01*
X203435733Y-102223570D01*
X203322509Y-102190858D01*
X203086671Y-102070098D01*
X202889000Y-101886863D01*
X202812275Y-101785610D01*
X202713834Y-101657126D01*
X202604853Y-101535768D01*
X202556690Y-101489770D01*
X202466091Y-101401732D01*
X202398760Y-101321383D01*
X202386285Y-101301564D01*
X202369488Y-101203525D01*
X202420178Y-101116441D01*
X202527767Y-101047766D01*
X202681666Y-101004957D01*
X202822652Y-100994308D01*
X202958068Y-101016654D01*
X203076066Y-101089596D01*
X203186473Y-101221984D01*
X203299117Y-101422672D01*
X203299847Y-101424154D01*
X203369129Y-101558004D01*
X203422930Y-101636136D01*
X203476549Y-101674670D01*
X203545287Y-101689726D01*
X203552622Y-101690469D01*
X203640957Y-101689893D01*
X203693881Y-101652752D01*
X203738238Y-101564724D01*
X203788486Y-101384309D01*
X203784118Y-101195654D01*
X203754168Y-101060435D01*
X203729117Y-100988031D01*
X203690862Y-100931611D01*
X203624317Y-100878750D01*
X203514398Y-100817023D01*
X203374770Y-100747902D01*
X203079741Y-100579762D01*
X202857261Y-100393290D01*
X202702587Y-100181740D01*
X202610979Y-99938367D01*
X202577695Y-99656426D01*
X202577419Y-99613620D01*
X202606021Y-99303625D01*
X202684129Y-99024208D01*
X202805597Y-98783574D01*
X202964281Y-98589929D01*
X203154038Y-98451476D01*
X203368724Y-98376422D01*
X203512158Y-98365338D01*
X203753430Y-98405141D01*
X203753430Y-98405141D01*
G37*
X203753430Y-98405141D02*
X203954595Y-98511391D01*
X204114311Y-98682674D01*
X204231236Y-98917574D01*
X204301339Y-99197627D01*
X204335202Y-99467345D01*
X204336546Y-99670350D01*
X204303366Y-99811878D01*
X204233658Y-99897167D01*
X204125417Y-99931453D01*
X204022007Y-99927433D01*
X203857986Y-99871538D01*
X203727322Y-99763113D01*
X203641086Y-99619824D01*
X203610350Y-99459337D01*
X203638791Y-99315989D01*
X203667864Y-99220825D01*
X203653911Y-99157833D01*
X203639586Y-99138119D01*
X203556971Y-99084587D01*
X203465749Y-99097611D01*
X203377240Y-99168172D01*
X203302761Y-99287256D01*
X203253687Y-99445542D01*
X203234416Y-99641010D01*
X203260871Y-99807195D01*
X203339774Y-99954379D01*
X203477848Y-100092844D01*
X203681815Y-100232872D01*
X203820100Y-100311872D01*
X204058532Y-100457163D01*
X204231984Y-100601723D01*
X204352480Y-100758179D01*
X204432046Y-100939158D01*
X204439015Y-100961773D01*
X204490343Y-101254217D01*
X204471198Y-101536319D01*
X204383448Y-101796012D01*
X204285415Y-101953815D01*
X204121878Y-102106761D01*
X203914863Y-102205382D01*
X203680703Y-102245659D01*
X203435733Y-102223570D01*
X203322509Y-102190858D01*
X203086671Y-102070098D01*
X202889000Y-101886863D01*
X202812275Y-101785610D01*
X202713834Y-101657126D01*
X202604853Y-101535768D01*
X202556690Y-101489770D01*
X202466091Y-101401732D01*
X202398760Y-101321383D01*
X202386285Y-101301564D01*
X202369488Y-101203525D01*
X202420178Y-101116441D01*
X202527767Y-101047766D01*
X202681666Y-101004957D01*
X202822652Y-100994308D01*
X202958068Y-101016654D01*
X203076066Y-101089596D01*
X203186473Y-101221984D01*
X203299117Y-101422672D01*
X203299847Y-101424154D01*
X203369129Y-101558004D01*
X203422930Y-101636136D01*
X203476549Y-101674670D01*
X203545287Y-101689726D01*
X203552622Y-101690469D01*
X203640957Y-101689893D01*
X203693881Y-101652752D01*
X203738238Y-101564724D01*
X203788486Y-101384309D01*
X203784118Y-101195654D01*
X203754168Y-101060435D01*
X203729117Y-100988031D01*
X203690862Y-100931611D01*
X203624317Y-100878750D01*
X203514398Y-100817023D01*
X203374770Y-100747902D01*
X203079741Y-100579762D01*
X202857261Y-100393290D01*
X202702587Y-100181740D01*
X202610979Y-99938367D01*
X202577695Y-99656426D01*
X202577419Y-99613620D01*
X202606021Y-99303625D01*
X202684129Y-99024208D01*
X202805597Y-98783574D01*
X202964281Y-98589929D01*
X203154038Y-98451476D01*
X203368724Y-98376422D01*
X203512158Y-98365338D01*
X203753430Y-98405141D01*
G36*
X197316389Y-98447743D02*
X197425845Y-98493110D01*
X197558213Y-98575184D01*
X197621742Y-98659357D01*
X197624449Y-98761907D01*
X197598431Y-98843539D01*
X197583912Y-98891050D01*
X197572877Y-98957189D01*
X197565234Y-99049830D01*
X197560893Y-99176843D01*
X197559763Y-99346099D01*
X197561754Y-99565470D01*
X197566774Y-99842827D01*
X197574732Y-100186042D01*
X197580392Y-100408154D01*
X197589654Y-100740810D01*
X197599505Y-101054000D01*
X197609551Y-101337850D01*
X197619396Y-101582481D01*
X197628643Y-101778018D01*
X197636898Y-101914584D01*
X197643400Y-101980370D01*
X197654641Y-102078638D01*
X197633670Y-102130393D01*
X197568182Y-102164698D01*
X197564811Y-102165985D01*
X197428734Y-102198926D01*
X197282201Y-102189856D01*
X197143376Y-102153843D01*
X196972132Y-102077438D01*
X196870751Y-101979742D01*
X196841852Y-101864965D01*
X196886008Y-101740561D01*
X196898149Y-101701172D01*
X196906593Y-101623703D01*
X196911347Y-101501990D01*
X196912416Y-101329871D01*
X196909806Y-101101185D01*
X196903522Y-100809767D01*
X196893571Y-100449456D01*
X196887373Y-100246399D01*
X196876473Y-99915649D01*
X196865181Y-99605450D01*
X196853930Y-99325493D01*
X196843153Y-99085469D01*
X196833285Y-98895072D01*
X196824758Y-98763993D01*
X196818351Y-98703513D01*
X196824930Y-98579703D01*
X196891429Y-98487579D01*
X197004442Y-98431781D01*
X197150564Y-98416955D01*
X197316389Y-98447743D01*
X197316389Y-98447743D01*
G37*
X197316389Y-98447743D02*
X197425845Y-98493110D01*
X197558213Y-98575184D01*
X197621742Y-98659357D01*
X197624449Y-98761907D01*
X197598431Y-98843539D01*
X197583912Y-98891050D01*
X197572877Y-98957189D01*
X197565234Y-99049830D01*
X197560893Y-99176843D01*
X197559763Y-99346099D01*
X197561754Y-99565470D01*
X197566774Y-99842827D01*
X197574732Y-100186042D01*
X197580392Y-100408154D01*
X197589654Y-100740810D01*
X197599505Y-101054000D01*
X197609551Y-101337850D01*
X197619396Y-101582481D01*
X197628643Y-101778018D01*
X197636898Y-101914584D01*
X197643400Y-101980370D01*
X197654641Y-102078638D01*
X197633670Y-102130393D01*
X197568182Y-102164698D01*
X197564811Y-102165985D01*
X197428734Y-102198926D01*
X197282201Y-102189856D01*
X197143376Y-102153843D01*
X196972132Y-102077438D01*
X196870751Y-101979742D01*
X196841852Y-101864965D01*
X196886008Y-101740561D01*
X196898149Y-101701172D01*
X196906593Y-101623703D01*
X196911347Y-101501990D01*
X196912416Y-101329871D01*
X196909806Y-101101185D01*
X196903522Y-100809767D01*
X196893571Y-100449456D01*
X196887373Y-100246399D01*
X196876473Y-99915649D01*
X196865181Y-99605450D01*
X196853930Y-99325493D01*
X196843153Y-99085469D01*
X196833285Y-98895072D01*
X196824758Y-98763993D01*
X196818351Y-98703513D01*
X196824930Y-98579703D01*
X196891429Y-98487579D01*
X197004442Y-98431781D01*
X197150564Y-98416955D01*
X197316389Y-98447743D01*
D12*
X200025000Y-90210000D03*
X200025000Y-92750000D03*
X200025000Y-95210000D03*
D13*
X208280000Y-90805000D03*
X204470000Y-90805000D03*
D14*
X204375000Y-85090000D03*
X208375000Y-85090000D03*
D15*
X213360000Y-85090000D03*
D16*
X215900000Y-85090000D03*
D17*
X213360000Y-87630000D03*
X215900000Y-87630000D03*
X213360000Y-90170000D03*
X215900000Y-90170000D03*
D18*
X208820000Y-78250000D03*
D19*
X204375000Y-96520000D03*
X208375000Y-96520000D03*
D20*
X212725000Y-101186000D03*
X213995000Y-101186000D03*
X215265000Y-101186000D03*
X216535000Y-101186000D03*
X216535000Y-93886000D03*
X215265000Y-93886000D03*
X213995000Y-93886000D03*
X212725000Y-93886000D03*
D21*
X205740000Y-81280000D03*
X198120000Y-92710000D03*
D22*
X195199000Y-98171000D02*
X195199000Y-90170000D01*
X204470000Y-82550000D02*
X204470000Y-84995000D01*
X205740000Y-81280000D02*
X204470000Y-82550000D01*
X205740000Y-81280000D02*
X205740000Y-81280000D01*
X204470000Y-84995000D02*
X204375000Y-85090000D01*
X216535000Y-101186000D02*
X216535000Y-102108000D01*
X201803000Y-87376000D02*
X202819000Y-86360000D01*
X197993000Y-87376000D02*
X201803000Y-87376000D01*
X195199000Y-90170000D02*
X197993000Y-87376000D01*
X197358000Y-100330000D02*
X195199000Y-98171000D01*
X209423000Y-100330000D02*
X197358000Y-100330000D01*
X211709000Y-102616000D02*
X209423000Y-100330000D01*
X216027000Y-102616000D02*
X211709000Y-102616000D01*
X216535000Y-102108000D02*
X216027000Y-102616000D01*
X204375000Y-85090000D02*
X204089000Y-85090000D01*
X204089000Y-85090000D02*
X202819000Y-86360000D01*
X216535000Y-101186000D02*
X216535000Y-97409000D01*
X215900000Y-96774000D02*
X215900000Y-90170000D01*
X216535000Y-97409000D02*
X215900000Y-96774000D01*
X215900000Y-85090000D02*
X215900000Y-83439000D01*
X215900000Y-83439000D02*
X215392000Y-82931000D01*
X215392000Y-82931000D02*
X210534000Y-82931000D01*
X210534000Y-82931000D02*
X208375000Y-85090000D01*
X200025000Y-90210000D02*
X201890000Y-90210000D01*
X204978000Y-87122000D02*
X206375000Y-87122000D01*
X201890000Y-90210000D02*
X204978000Y-87122000D01*
X208375000Y-85090000D02*
X208375000Y-85122000D01*
X208375000Y-85122000D02*
X206375000Y-87122000D01*
X207805000Y-93886000D02*
X212725000Y-93886000D01*
X206375000Y-87122000D02*
X206375000Y-92456000D01*
X206375000Y-92456000D02*
X207805000Y-93886000D01*
X201208000Y-90210000D02*
X200025000Y-90210000D01*
X198160000Y-92750000D02*
X200025000Y-92750000D01*
X198120000Y-92710000D02*
X198160000Y-92750000D01*
X213360000Y-90805000D02*
X214630000Y-92075000D01*
X214630000Y-92075000D02*
X214630000Y-95250000D01*
X214630000Y-95250000D02*
X213995000Y-95885000D01*
X213995000Y-95885000D02*
X212090000Y-95885000D01*
X206375000Y-95250000D02*
X206375000Y-97409000D01*
X212090000Y-95885000D02*
X210820000Y-94615000D01*
X210820000Y-94615000D02*
X207010000Y-94615000D01*
X207010000Y-94615000D02*
X206375000Y-95250000D01*
X212725000Y-98933000D02*
X212725000Y-101186000D01*
X211836000Y-98044000D02*
X212725000Y-98933000D01*
X207010000Y-98044000D02*
X211836000Y-98044000D01*
X206375000Y-97409000D02*
X207010000Y-98044000D01*
X213360000Y-90170000D02*
X213360000Y-90805000D01*
X213360000Y-90170000D02*
X213360000Y-90678000D01*
X204375000Y-96520000D02*
X204375000Y-90900000D01*
X204375000Y-90900000D02*
X204470000Y-90805000D01*
X204375000Y-90900000D02*
X204470000Y-90805000D01*
X215265000Y-93886000D02*
X215265000Y-91567000D01*
X214630000Y-86868000D02*
X213360000Y-85598000D01*
X214630000Y-90932000D02*
X214630000Y-86868000D01*
X215265000Y-91567000D02*
X214630000Y-90932000D01*
X213995000Y-93886000D02*
X213995000Y-92329000D01*
X211836000Y-88392000D02*
X212598000Y-87630000D01*
X211836000Y-90932000D02*
X211836000Y-88392000D01*
X212598000Y-91694000D02*
X211836000Y-90932000D01*
X213360000Y-91694000D02*
X212598000Y-91694000D01*
X213995000Y-92329000D02*
X213360000Y-91694000D01*
X212598000Y-87630000D02*
X213360000Y-87630000D01*
X210439000Y-86995000D02*
X210439000Y-88646000D01*
X210439000Y-88646000D02*
X208280000Y-90805000D01*
X212344000Y-83566000D02*
X210439000Y-85471000D01*
X210439000Y-85471000D02*
X210439000Y-86995000D01*
X215900000Y-87376000D02*
X214630000Y-86106000D01*
X213868000Y-83566000D02*
X212598000Y-83566000D01*
X214630000Y-84328000D02*
X213868000Y-83566000D01*
X214630000Y-86106000D02*
X214630000Y-84328000D01*
X212598000Y-83566000D02*
X212344000Y-83566000D01*
X216535000Y-93886000D02*
X216535000Y-92075000D01*
X217424000Y-88392000D02*
X216662000Y-87630000D01*
X217424000Y-91186000D02*
X217424000Y-88392000D01*
X216535000Y-92075000D02*
X217424000Y-91186000D01*
X208788000Y-90297000D02*
X208280000Y-90805000D01*
X215900000Y-87630000D02*
X215900000Y-87376000D01*
X215900000Y-87630000D02*
X216154000Y-87630000D01*
X216662000Y-87630000D02*
X215900000Y-87630000D01*
X208375000Y-90900000D02*
X208280000Y-90805000D01*
X208375000Y-96520000D02*
X213868000Y-96520000D01*
X213868000Y-96520000D02*
X215265000Y-97917000D01*
X215265000Y-97917000D02*
X215265000Y-101186000D01*
M02*
