<?xml version="1.0" encoding="UTF-8" standalone="no"?>
<svg
   xmlns:dc="http://purl.org/dc/elements/1.1/"
   xmlns:cc="http://creativecommons.org/ns#"
   xmlns:rdf="http://www.w3.org/1999/02/22-rdf-syntax-ns#"
   xmlns:svg="http://www.w3.org/2000/svg"
   xmlns="http://www.w3.org/2000/svg"
   xmlns:sodipodi="http://sodipodi.sourceforge.net/DTD/sodipodi-0.dtd"
   xmlns:inkscape="http://www.inkscape.org/namespaces/inkscape"
   version="1.1"
   width="3.4671cm"
   height="3.429cm"
   viewBox="0 0 13650 13500 "
   id="svg2"
   inkscape:version="0.91 r13725"
   sodipodi:docname="base-brd.svg">
  <metadata
     id="metadata102">
    <rdf:RDF>
      <cc:Work
         rdf:about="">
        <dc:format>image/svg+xml</dc:format>
        <dc:type
           rdf:resource="http://purl.org/dc/dcmitype/StillImage" />
      </cc:Work>
    </rdf:RDF>
  </metadata>
  <defs
     id="defs100" />
  <sodipodi:namedview
     pagecolor="#ffffff"
     bordercolor="#666666"
     borderopacity="1"
     objecttolerance="10"
     gridtolerance="10"
     guidetolerance="10"
     inkscape:pageopacity="0"
     inkscape:pageshadow="2"
     inkscape:window-width="715"
     inkscape:window-height="480"
     id="namedview98"
     showgrid="false"
     inkscape:zoom="2.74"
     inkscape:cx="61.424998"
     inkscape:cy="60.749998"
     inkscape:window-x="209"
     inkscape:window-y="116"
     inkscape:window-maximized="0"
     inkscape:current-layer="g14" />
  <title
     id="title4">SVG Picture created as base-brd.svg date 2017/02/09 18:50:22 </title>
  <desc
     id="desc6">Picture generated by PCBNEW </desc>
  <g
     style="fill:#000000; fill-opacity:1;stroke:#000000; stroke-opacity:1; stroke-linecap:round; stroke-linejoin:round; "
     transform="translate(0 0) scale(1 1)"
     id="g8" />
  <g
     style="fill:#000000; fill-opacity:0.0;  stroke:#000000; stroke-width:-0.000393701; stroke-opacity:1;  stroke-linecap:round; stroke-linejoin:round;"
     id="g10" />
  <g
     style="fill:#000000; fill-opacity:0.0;  stroke:#000000; stroke-width:0; stroke-opacity:1;  stroke-linecap:round; stroke-linejoin:round;"
     id="g12" />
  <g
     style="fill:#000000; fill-opacity:1.0;  stroke:#000000; stroke-width:0; stroke-opacity:1;  stroke-linecap:round; stroke-linejoin:round;"
     id="g14">
    <polyline
       style="fill-rule:evenodd;"
       points="8521,7989 9111,7989 9111,8383 8521,8383 8521,7989 "
       id="polyline16" />
    <polyline
       style="fill-rule:evenodd;"
       points="8521,7398 9111,7398 9111,7792 8521,7792 8521,7398 "
       id="polyline18" />
    <polyline
       style="fill-rule:evenodd;"
       points="8521,6808 9111,6808 9111,7202 8521,7202 8521,6808 "
       id="polyline20" />
    <polyline
       style="fill-rule:evenodd;"
       points="6906,6808 7497,6808 7497,7202 6906,7202 6906,6808 "
       id="polyline22" />
    <polyline
       style="fill-rule:evenodd;"
       points="6906,7398 7497,7398 7497,7792 6906,7792 6906,7398 "
       id="polyline24" />
    <polyline
       style="fill-rule:evenodd;"
       points="6906,7989 7497,7989 7497,8383 6906,8383 6906,7989 "
       id="polyline26" />
    <polyline
       style="fill-rule:evenodd;"
       points="9026,3987 9026,4380 7766,4380 7766,3987 9026,3987 "
       id="polyline28" />
    <polyline
       style="fill-rule:evenodd;"
       points="9026,5561 9026,5955 7766,5955 7766,5561 9026,5561 "
       id="polyline30" />
    <polyline
       style="fill-rule:evenodd;"
       points="11703,5561 11703,5955 10443,5955 10443,5561 11703,5561 "
       id="polyline32" />
    <polyline
       style="fill-rule:evenodd;"
       points="11703,3987 11703,4380 10443,4380 10443,3987 11703,3987 "
       id="polyline34" />
  </g>
  <g
     style="fill:#000000; fill-opacity:1.0;  stroke:#000000; stroke-width:39.3701; stroke-opacity:1;  stroke-linecap:round; stroke-linejoin:round;"
     id="g38" />
  <g
     style="fill:#000000; fill-opacity:1.0;  stroke:#000000; stroke-width:0; stroke-opacity:1;  stroke-linecap:round; stroke-linejoin:round;"
     id="g40">
    <polyline
       style="fill-rule:evenodd;"
       points="5266,8081 6250,8081 6250,8554 5266,8554 5266,8081 "
       id="polyline42" />
    <polyline
       style="fill-rule:evenodd;"
       points="5266,9081 6250,9081 6250,9554 5266,9554 5266,9081 "
       id="polyline44" />
    <polyline
       style="fill-rule:evenodd;"
       points="5266,10050 6250,10050 6250,10522 5266,10522 5266,10050 "
       id="polyline46" />
  </g>
  <g
     style="fill:#000000; fill-opacity:1.0;  stroke:#000000; stroke-width:39.3701; stroke-opacity:1;  stroke-linecap:round; stroke-linejoin:round;"
     id="g50" />
  <g
     style="fill:#000000; fill-opacity:1.0;  stroke:#000000; stroke-width:0; stroke-opacity:1;  stroke-linecap:round; stroke-linejoin:round;"
     id="g52">
    <polyline
       style="fill-rule:evenodd;"
       points="8804,12383 8174,12383 8174,11989 8804,11989 8804,12383 "
       id="polyline54" />
    <polyline
       style="fill-rule:evenodd;"
       points="8804,11202 8174,11202 8174,10808 8804,10808 8804,11202 "
       id="polyline56" />
    <polyline
       style="fill-rule:evenodd;"
       points="12689,9270 12689,9720 12489,9720 12489,9270 12689,9270 "
       id="polyline58" />
    <polyline
       style="fill-rule:evenodd;"
       points="12189,9270 12189,9720 11989,9720 11989,9270 12189,9270 "
       id="polyline60" />
    <polyline
       style="fill-rule:evenodd;"
       points="11689,9270 11689,9720 11489,9720 11489,9270 11689,9270 "
       id="polyline62" />
    <polyline
       style="fill-rule:evenodd;"
       points="11189,9270 11189,9720 10989,9720 10989,9270 11189,9270 "
       id="polyline64" />
    <polyline
       style="fill-rule:evenodd;"
       points="10689,9270 10689,9720 10489,9720 10489,9270 10689,9270 "
       id="polyline66" />
    <polyline
       style="fill-rule:evenodd;"
       points="10189,9270 10189,9720 9989,9720 9989,9270 10189,9270 "
       id="polyline68" />
    <polyline
       style="fill-rule:evenodd;"
       points="9689,9270 9689,9720 9489,9720 9489,9270 9689,9270 "
       id="polyline70" />
    <polyline
       style="fill-rule:evenodd;"
       points="9689,11770 9689,12220 9489,12220 9489,11770 9689,11770 "
       id="polyline72" />
    <polyline
       style="fill-rule:evenodd;"
       points="10189,11770 10189,12220 9989,12220 9989,11770 10189,11770 "
       id="polyline74" />
    <polyline
       style="fill-rule:evenodd;"
       points="11189,11770 11189,12220 10989,12220 10989,11770 11189,11770 "
       id="polyline76" />
    <polyline
       style="fill-rule:evenodd;"
       points="11689,11770 11689,12220 11489,12220 11489,11770 11689,11770 "
       id="polyline78" />
    <polyline
       style="fill-rule:evenodd;"
       points="12189,11770 12189,12220 11989,12220 11989,11770 12189,11770 "
       id="polyline80" />
    <polyline
       style="fill-rule:evenodd;"
       points="12689,11770 12689,12220 12489,12220 12489,11770 12689,11770 "
       id="polyline82" />
    <polyline
       style="fill-rule:evenodd;"
       points="10689,11770 10689,12220 10489,12220 10489,11770 10689,11770 "
       id="polyline84" />
    <polyline
       style="fill-rule:evenodd;"
       points="8154,9047 8824,9047 8824,9402 8154,9402 8154,9047 "
       id="polyline86" />
    <polyline
       style="fill-rule:evenodd;"
       points="8154,10189 8824,10189 8824,10543 8154,10543 8154,10189 "
       id="polyline88" />
    <polyline
       style="fill-rule:evenodd;"
       points="6954,9047 7624,9047 7624,9402 6954,9402 6954,9047 "
       id="polyline90" />
    <polyline
       style="fill-rule:evenodd;"
       points="6954,10189 7624,10189 7624,10543 6954,10543 6954,10189 "
       id="polyline92" />
    <polyline
       style="fill-rule:evenodd;"
       points="7624,12343 6954,12343 6954,11989 7624,11989 7624,12343 "
       id="polyline94" />
    <polyline
       style="fill-rule:evenodd;"
       points="7624,11202 6954,11202 6954,10847 7624,10847 7624,11202 "
       id="polyline96" />
  </g>
</svg>
