%TF.GenerationSoftware,KiCad,Pcbnew,(5.1.10)-1*%
%TF.CreationDate,2021-09-22T20:24:30-07:00*%
%TF.ProjectId,project,70726f6a-6563-4742-9e6b-696361645f70,0.0*%
%TF.SameCoordinates,Original*%
%TF.FileFunction,Copper,L2,Bot*%
%TF.FilePolarity,Positive*%
%FSLAX46Y46*%
G04 Gerber Fmt 4.6, Leading zero omitted, Abs format (unit mm)*
G04 Created by KiCad (PCBNEW (5.1.10)-1) date 2021-09-22 20:24:30*
%MOMM*%
%LPD*%
G01*
G04 APERTURE LIST*
%TA.AperFunction,ComponentPad*%
%ADD10O,0.800000X1.300000*%
%TD*%
%TA.AperFunction,ComponentPad*%
%ADD11R,1.700000X1.700000*%
%TD*%
%TA.AperFunction,ComponentPad*%
%ADD12O,1.700000X1.700000*%
%TD*%
%TA.AperFunction,ComponentPad*%
%ADD13C,1.676400*%
%TD*%
%TA.AperFunction,ComponentPad*%
%ADD14R,1.800000X1.800000*%
%TD*%
%TA.AperFunction,ComponentPad*%
%ADD15C,1.800000*%
%TD*%
%TA.AperFunction,ViaPad*%
%ADD16C,0.600000*%
%TD*%
%TA.AperFunction,Conductor*%
%ADD17C,0.406400*%
%TD*%
%TA.AperFunction,Conductor*%
%ADD18C,0.304800*%
%TD*%
G04 APERTURE END LIST*
%TO.P,J1,1*%
%TO.N,VCC*%
%TA.AperFunction,ComponentPad*%
G36*
G01*
X59709000Y-82989000D02*
X59709000Y-83889000D01*
G75*
G02*
X59509000Y-84089000I-200000J0D01*
G01*
X59109000Y-84089000D01*
G75*
G02*
X58909000Y-83889000I0J200000D01*
G01*
X58909000Y-82989000D01*
G75*
G02*
X59109000Y-82789000I200000J0D01*
G01*
X59509000Y-82789000D01*
G75*
G02*
X59709000Y-82989000I0J-200000D01*
G01*
G37*
%TD.AperFunction*%
D10*
%TO.P,J1,2*%
%TO.N,/NPN1*%
X58059000Y-83439000D03*
%TO.P,J1,3*%
%TO.N,/NPN2*%
X56809000Y-83439000D03*
%TO.P,J1,4*%
%TO.N,/LED*%
X55559000Y-83439000D03*
%TO.P,J1,5*%
%TO.N,/SERVO*%
X54309000Y-83439000D03*
%TO.P,J1,6*%
%TO.N,GND*%
X53059000Y-83439000D03*
%TD*%
D11*
%TO.P,J2,1*%
%TO.N,VCC*%
X53594000Y-140589000D03*
D12*
%TO.P,J2,2*%
%TO.N,/SERVO*%
X56134000Y-140589000D03*
%TO.P,J2,3*%
%TO.N,GND*%
X58674000Y-140589000D03*
%TD*%
D13*
%TO.P,Q2,2*%
%TO.N,GND*%
X67564000Y-134219000D03*
%TO.P,Q2,1*%
%TO.N,/NPN2*%
X65024000Y-134219000D03*
%TD*%
%TO.P,Q1,2*%
%TO.N,GND*%
X44704000Y-88519000D03*
%TO.P,Q1,1*%
%TO.N,/NPN1*%
X47244000Y-88519000D03*
%TD*%
D14*
%TO.P,D8,1*%
%TO.N,GND*%
X65024000Y-88519000D03*
D15*
%TO.P,D8,2*%
%TO.N,Net-(D8-Pad2)*%
X67564000Y-88519000D03*
%TD*%
D14*
%TO.P,D7,1*%
%TO.N,GND*%
X47244000Y-134239000D03*
D15*
%TO.P,D7,2*%
%TO.N,Net-(D7-Pad2)*%
X44704000Y-134239000D03*
%TD*%
D14*
%TO.P,D1,1*%
%TO.N,GND*%
X54864000Y-88519000D03*
D15*
%TO.P,D1,2*%
%TO.N,Net-(D1-Pad2)*%
X57404000Y-88519000D03*
%TD*%
D14*
%TO.P,D2,1*%
%TO.N,GND*%
X54864000Y-134239000D03*
D15*
%TO.P,D2,2*%
%TO.N,Net-(D2-Pad2)*%
X57404000Y-134239000D03*
%TD*%
D16*
%TO.N,/SERVO*%
X44069000Y-95504000D03*
%TO.N,/LED*%
X66294000Y-129159000D03*
X62484000Y-134239000D03*
%TD*%
D17*
%TO.N,GND*%
X53059000Y-84074000D02*
X52959000Y-84074000D01*
X52959000Y-84074000D02*
X51054000Y-85979000D01*
X51054000Y-85979000D02*
X45974000Y-85979000D01*
X44704000Y-87249000D02*
X44704000Y-88519000D01*
X45974000Y-85979000D02*
X44704000Y-87249000D01*
X54864000Y-134239000D02*
X47244000Y-134239000D01*
D18*
X65024000Y-88519000D02*
X65024000Y-89789000D01*
X54864000Y-90424000D02*
X54864000Y-88519000D01*
X56769000Y-92329000D02*
X54864000Y-90424000D01*
X62484000Y-92329000D02*
X56769000Y-92329000D01*
X65024000Y-89789000D02*
X62484000Y-92329000D01*
D17*
%TO.N,VCC*%
X60579000Y-83439000D02*
X59309000Y-83439000D01*
X63754000Y-86614000D02*
X60579000Y-83439000D01*
X68834000Y-86614000D02*
X63754000Y-86614000D01*
X69469000Y-87249000D02*
X68834000Y-86614000D01*
X69469000Y-135509000D02*
X69469000Y-87249000D01*
X56769000Y-136144000D02*
X68834000Y-136144000D01*
X53594000Y-139319000D02*
X56769000Y-136144000D01*
X68834000Y-136144000D02*
X69469000Y-135509000D01*
X53594000Y-140589000D02*
X53594000Y-139319000D01*
%TO.N,/NPN1*%
X58059000Y-82824000D02*
X56134000Y-80899000D01*
X56134000Y-80899000D02*
X51689000Y-80899000D01*
X51689000Y-80899000D02*
X47879000Y-84709000D01*
X47879000Y-84709000D02*
X45339000Y-84709000D01*
X45339000Y-84709000D02*
X42799000Y-87249000D01*
X42799000Y-87249000D02*
X42799000Y-89789000D01*
X42799000Y-89789000D02*
X44069000Y-91059000D01*
X44069000Y-91059000D02*
X45974000Y-91059000D01*
X47244000Y-89789000D02*
X47244000Y-88519000D01*
X45974000Y-91059000D02*
X47244000Y-89789000D01*
X58059000Y-83439000D02*
X58039000Y-83439000D01*
X58059000Y-83439000D02*
X58059000Y-82824000D01*
%TO.N,/SERVO*%
X54309000Y-84074000D02*
X54309000Y-85264000D01*
X44069000Y-95504000D02*
X44069000Y-95504000D01*
X54309000Y-85264000D02*
X44069000Y-95504000D01*
%TO.N,/LED*%
X62484000Y-132969000D02*
X62484000Y-134239000D01*
X66294000Y-129159000D02*
X62484000Y-132969000D01*
%TD*%
M02*
