M48
; DRILL file {KiCad (5.1.10)-1} date 10/24/21 19:50:35
; FORMAT={-:-/ absolute / inch / decimal}
; #@! TF.CreationDate,2021-10-24T19:50:35-07:00
; #@! TF.GenerationSoftware,Kicad,Pcbnew,(5.1.10)-1
FMAT,2
INCH
T1C0.0157
T2C0.0197
T3C0.0276
T4C0.0299
T5C0.0354
T6C0.0394
T7C0.0429
T8C0.0433
T9C0.1260
%
G90
G05
T1
X5.72Y-4.04
X5.96Y-3.98
X6.1Y-3.98
X6.13Y-3.53
X6.2Y-3.42
X6.36Y-4.33
X6.45Y-4.5
X6.46Y-4.24
X6.47Y-4.17
X6.47Y-4.46
X6.49Y-4.28
X6.51Y-4.42
T2
X6.85Y-3.55
X6.85Y-3.5992
X6.85Y-3.6484
X6.85Y-3.6976
X6.85Y-3.7469
X6.85Y-3.7961
X6.85Y-4.6
X6.85Y-4.6492
X6.85Y-4.6984
X6.85Y-4.7476
X6.85Y-4.7969
X6.85Y-4.8461
T3
X5.45Y-4.1
X5.45Y-4.3
X5.55Y-4.1
X5.55Y-4.3
X5.65Y-3.8
X5.65Y-3.9
X5.65Y-4.5
X5.65Y-4.6
X5.85Y-3.8
X5.85Y-3.9
X5.85Y-4.5
X5.85Y-4.6
X5.95Y-3.8
X5.95Y-3.9
X5.95Y-4.5
X5.95Y-4.6
X6.15Y-3.8
X6.15Y-3.9
X6.15Y-4.5
X6.15Y-4.6
X6.95Y-4.1
X6.95Y-4.3
X7.05Y-4.1
X7.05Y-4.3
T4
X6.3Y-3.5
X6.3Y-3.6
X6.3Y-3.7
X6.3Y-3.8
X6.3Y-4.55
X6.3Y-4.65
X6.3Y-4.75
X6.3Y-4.85
X6.4Y-3.55
X6.4Y-3.65
X6.4Y-3.75
X6.4Y-3.85
X6.4Y-4.6
X6.4Y-4.7
X6.4Y-4.8
X6.4Y-4.9
T5
X5.45Y-3.85
X5.45Y-3.95
X5.45Y-4.45
X5.45Y-4.55
T6
X5.3902Y-3.25
X5.4902Y-3.25
X5.55Y-5.15
X5.5902Y-3.25
X5.65Y-5.15
X5.6902Y-3.25
X5.75Y-5.15
X5.7902Y-3.25
X5.85Y-5.15
X5.8902Y-3.25
X5.95Y-5.15
X5.9902Y-3.25
X6.05Y-5.15
X6.0902Y-3.25
X6.15Y-5.15
X6.25Y-3.25
X6.25Y-5.15
X6.35Y-3.25
X6.45Y-3.25
X6.45Y-5.15
X6.55Y-3.25
X6.55Y-5.15
X6.65Y-3.25
X6.65Y-4.15
X6.65Y-4.25
X6.65Y-5.15
X6.75Y-3.25
X6.75Y-4.15
X6.75Y-4.25
X6.75Y-5.15
X6.85Y-3.25
X6.85Y-5.15
X6.95Y-3.25
X6.95Y-5.15
T7
X5.75Y-4.15
X5.85Y-3.55
X5.85Y-4.15
X5.85Y-4.85
X5.95Y-3.55
X5.95Y-4.85
X6.05Y-3.55
X6.05Y-4.85
X6.15Y-4.15
X6.25Y-4.15
T8
X5.3728Y-3.4
X5.3728Y-3.6559
X5.4228Y-4.75
X5.4228Y-5.0059
X5.55Y-3.4
X5.55Y-3.6559
X5.6Y-4.75
X5.6Y-5.0059
T9
X6.65Y-3.45
X6.65Y-3.9
X6.65Y-4.5
X6.65Y-4.95
T0
M30
