G04 #@! TF.FileFunction,Soldermask,Top*
%FSLAX46Y46*%
G04 Gerber Fmt 4.6, Leading zero omitted, Abs format (unit mm)*
G04 Created by KiCad (PCBNEW 4.0.7) date 08/30/19 18:47:50*
%MOMM*%
%LPD*%
G01*
G04 APERTURE LIST*
%ADD10C,0.100000*%
%ADD11O,0.900000X1.800000*%
%ADD12R,0.900000X1.700000*%
%ADD13R,0.850000X1.700000*%
%ADD14O,0.850000X1.800000*%
%ADD15C,1.600000*%
%ADD16R,2.200000X2.200000*%
%ADD17O,2.200000X2.200000*%
%ADD18C,2.000000*%
%ADD19C,1.778000*%
%ADD20R,1.700000X1.700000*%
%ADD21O,1.700000X1.700000*%
%ADD22C,3.000000*%
%ADD23C,1.750000*%
%ADD24R,1.750000X1.750000*%
%ADD25R,1.600000X1.600000*%
%ADD26O,1.600000X1.600000*%
%ADD27R,2.600000X2.600000*%
%ADD28C,2.600000*%
%ADD29C,1.700000*%
%ADD30C,1.400000*%
%ADD31O,1.400000X1.400000*%
%ADD32R,0.400000X0.600000*%
G04 APERTURE END LIST*
D10*
D11*
X150358000Y-92380000D03*
X149088000Y-92380000D03*
D12*
X151628000Y-92380000D03*
D13*
X139055000Y-86500000D03*
D14*
X137805000Y-86500000D03*
X136555000Y-86500000D03*
D13*
X147310000Y-86500000D03*
D14*
X146060000Y-86500000D03*
X144810000Y-86500000D03*
X143560000Y-86500000D03*
D15*
X133350000Y-105410000D03*
X133350000Y-113030000D03*
D16*
X125720000Y-92615000D03*
D17*
X125720000Y-102775000D03*
D18*
X127900000Y-89440000D03*
X133700000Y-89440000D03*
D19*
X126228000Y-109125000D03*
X121148000Y-109125000D03*
D20*
X161788000Y-105315000D03*
D21*
X164328000Y-105315000D03*
X166868000Y-105315000D03*
X169408000Y-105315000D03*
X171948000Y-105315000D03*
X174488000Y-105315000D03*
D22*
X167998000Y-90365000D03*
D23*
X170918000Y-108365000D03*
X173458000Y-108365000D03*
D24*
X175998000Y-108365000D03*
D22*
X126998000Y-80365000D03*
D25*
X169408000Y-102775000D03*
D26*
X136388000Y-95155000D03*
X166868000Y-102775000D03*
X138928000Y-95155000D03*
X164328000Y-102775000D03*
X141468000Y-95155000D03*
X161788000Y-102775000D03*
X144008000Y-95155000D03*
X159248000Y-102775000D03*
X146548000Y-95155000D03*
X156708000Y-102775000D03*
X149088000Y-95155000D03*
X154168000Y-102775000D03*
X151628000Y-95155000D03*
X151628000Y-102775000D03*
X154168000Y-95155000D03*
X149088000Y-102775000D03*
X156708000Y-95155000D03*
X146548000Y-102775000D03*
X159248000Y-95155000D03*
X144008000Y-102775000D03*
X161788000Y-95155000D03*
X141468000Y-102775000D03*
X164328000Y-95155000D03*
X138928000Y-102775000D03*
X166868000Y-95155000D03*
X136388000Y-102775000D03*
X169408000Y-95155000D03*
D27*
X132070000Y-86265000D03*
D28*
X128570000Y-86265000D03*
D27*
X123053000Y-86265000D03*
D28*
X119553000Y-86265000D03*
D29*
X147818000Y-105315000D03*
X150318000Y-105315000D03*
X152818000Y-105315000D03*
D30*
X164368000Y-110395000D03*
D31*
X169448000Y-110395000D03*
D30*
X169368000Y-112935000D03*
D31*
X164288000Y-112935000D03*
D15*
X154168000Y-90075000D03*
X154168000Y-92575000D03*
X146548000Y-90075000D03*
X146548000Y-92575000D03*
X159248000Y-105315000D03*
X156748000Y-105315000D03*
X144008000Y-90075000D03*
X144008000Y-92575000D03*
X165598000Y-107855000D03*
X168098000Y-107855000D03*
D30*
X171988000Y-102775000D03*
D31*
X177068000Y-102775000D03*
D15*
X164328000Y-92615000D03*
X164328000Y-90115000D03*
D30*
X156748000Y-90075000D03*
D31*
X161828000Y-90075000D03*
D30*
X161748000Y-92615000D03*
D31*
X156668000Y-92615000D03*
D23*
X155918000Y-108365000D03*
X158458000Y-108365000D03*
D24*
X160998000Y-108365000D03*
D23*
X140918000Y-108365000D03*
X143458000Y-108365000D03*
D24*
X145998000Y-108365000D03*
D30*
X141428000Y-92615000D03*
D31*
X136348000Y-92615000D03*
D30*
X141428000Y-90075000D03*
D31*
X136348000Y-90075000D03*
D30*
X171948000Y-95115000D03*
D31*
X171948000Y-90035000D03*
D15*
X135890000Y-105410000D03*
X135890000Y-113030000D03*
D30*
X130810000Y-112990000D03*
D31*
X130810000Y-107910000D03*
D20*
X138928000Y-100235000D03*
D21*
X138928000Y-97695000D03*
X141468000Y-100235000D03*
X141468000Y-97695000D03*
X144008000Y-100235000D03*
X144008000Y-97695000D03*
D32*
X140583000Y-104680000D03*
X141083000Y-104680000D03*
X142988000Y-104680000D03*
X142488000Y-104680000D03*
D15*
X138430000Y-105410000D03*
X138430000Y-113030000D03*
D13*
X172710000Y-86500000D03*
D14*
X171460000Y-86500000D03*
D13*
X164455000Y-86500000D03*
D14*
X163205000Y-86500000D03*
D13*
X178425000Y-86500000D03*
D14*
X177175000Y-86500000D03*
D13*
X153025000Y-86500000D03*
D14*
X151775000Y-86500000D03*
D13*
X158740000Y-86500000D03*
D14*
X157490000Y-86500000D03*
M02*
