<?xml version="1.0" encoding="UTF-8" standalone="no"?>
<svg
   xmlns:dc="http://purl.org/dc/elements/1.1/"
   xmlns:cc="http://creativecommons.org/ns#"
   xmlns:rdf="http://www.w3.org/1999/02/22-rdf-syntax-ns#"
   xmlns:svg="http://www.w3.org/2000/svg"
   xmlns="http://www.w3.org/2000/svg"
   xmlns:sodipodi="http://sodipodi.sourceforge.net/DTD/sodipodi-0.dtd"
   xmlns:inkscape="http://www.inkscape.org/namespaces/inkscape"
   version="1.1"
   width="27.94cm"
   height="21.59cm"
   viewBox="0 0 110000 85000 "
   id="svg670"
   sodipodi:docname="project.sch.svg"
   inkscape:version="0.92.2 (5c3e80d, 2017-08-06)">
  <metadata
     id="metadata676">
    <rdf:RDF>
      <cc:Work
         rdf:about="">
        <dc:format>image/svg+xml</dc:format>
        <dc:type
           rdf:resource="http://purl.org/dc/dcmitype/StillImage" />
      </cc:Work>
    </rdf:RDF>
  </metadata>
  <defs
     id="defs674" />
  <sodipodi:namedview
     pagecolor="#ffffff"
     bordercolor="#666666"
     borderopacity="1"
     objecttolerance="10"
     gridtolerance="10"
     guidetolerance="10"
     inkscape:pageopacity="0"
     inkscape:pageshadow="2"
     inkscape:window-width="1524"
     inkscape:window-height="877"
     id="namedview672"
     showgrid="false"
     inkscape:zoom="3.0748431"
     inkscape:cx="528.00001"
     inkscape:cy="408"
     inkscape:window-x="68"
     inkscape:window-y="-8"
     inkscape:window-maximized="1"
     inkscape:current-layer="g592" />
  <title
     id="title2">SVG Picture created as project.sch.svg date 2019/08/23 22:22:55 </title>
  <desc
     id="desc4">Picture generated by Eeschema-SVG </desc>
  <g
     style="fill:#000000; fill-opacity:1;stroke:#000000; stroke-opacity:1; stroke-linecap:round; stroke-linejoin:round; "
     transform="translate(0 0) scale(1 1)"
     id="g6" />
  <g
     style="fill:#000000; fill-opacity:0.0;  stroke:#000000; stroke-width:0; stroke-opacity:1;  stroke-linecap:round; stroke-linejoin:round;"
     id="g8" />
  <g
     style="fill:#000000; fill-opacity:0.0;  stroke:#000000; stroke-width:60; stroke-opacity:1;  stroke-linecap:round; stroke-linejoin:round;"
     id="g36">
    <path
       d="M9000 9000 L9000 9000 "
       id="path10" />
    <polyline
       fill="none;"
       points="9000,9000 9000,8500 8600,8250 9000,8000 9400,8250 9000,8500 "
       id="polyline12" />
    <path
       d="M7270 7760 L7270 7260 L7460 7260 L7510 7280 L7530 7300 L7550 7350 L7550 7420 L7530 7470 L7510 7490 L7460 7520 L7270 7520 "
       id="path14" />
    <path
       d="M7720 7260 L7840 7760 L7940 7400 L8030 7760 L8150 7260 "
       id="path16" />
    <path
       d="M8620 7760 L8460 7520 "
       id="path18" />
    <path
       d="M8340 7760 L8340 7260 L8530 7260 L8580 7280 L8600 7300 L8620 7350 L8620 7420 L8600 7470 L8580 7490 L8530 7520 L8340 7520 "
       id="path20" />
    <path
       d="M8720 7800 L9100 7800 "
       id="path22" />
    <path
       d="M9390 7490 L9220 7490 "
       id="path24" />
    <path
       d="M9220 7760 L9220 7260 L9460 7260 "
       id="path26" />
    <path
       d="M9890 7760 L9650 7760 L9650 7260 "
       id="path28" />
    <path
       d="M10030 7610 L10260 7610 "
       id="path30" />
    <path
       d="M9980 7760 L10140 7260 L10310 7760 "
       id="path32" />
    <path
       d="M10740 7280 L10690 7260 L10620 7260 L10550 7280 L10500 7330 L10480 7380 L10460 7470 L10460 7540 L10480 7640 L10500 7680 L10550 7730 L10620 7760 L10670 7760 L10740 7730 L10760 7710 L10760 7540 L10670 7540 "
       id="path34" />
  </g>
  <g
     style="fill:#000000; fill-opacity:0.0;  stroke:#000000; stroke-width:0; stroke-opacity:1;  stroke-linecap:round; stroke-linejoin:round;"
     id="g38" />
  <g
     style="fill:#000000; fill-opacity:0.0;  stroke:#000000; stroke-width:60; stroke-opacity:1;  stroke-linecap:round; stroke-linejoin:round;"
     id="g66">
    <path
       d="M13500 9000 L13500 9000 "
       id="path40" />
    <polyline
       fill="none;"
       points="13500,9000 13500,8500 13100,8250 13500,8000 13900,8250 13500,8500 "
       id="polyline42" />
    <path
       d="M11770 7760 L11770 7260 L11960 7260 L12010 7280 L12030 7300 L12050 7350 L12050 7420 L12030 7470 L12010 7490 L11960 7520 L11770 7520 "
       id="path44" />
    <path
       d="M12220 7260 L12340 7760 L12440 7400 L12530 7760 L12650 7260 "
       id="path46" />
    <path
       d="M13120 7760 L12960 7520 "
       id="path48" />
    <path
       d="M12840 7760 L12840 7260 L13030 7260 L13080 7280 L13100 7300 L13120 7350 L13120 7420 L13100 7470 L13080 7490 L13030 7520 L12840 7520 "
       id="path50" />
    <path
       d="M13220 7800 L13600 7800 "
       id="path52" />
    <path
       d="M13890 7490 L13720 7490 "
       id="path54" />
    <path
       d="M13720 7760 L13720 7260 L13960 7260 "
       id="path56" />
    <path
       d="M14390 7760 L14150 7760 L14150 7260 "
       id="path58" />
    <path
       d="M14530 7610 L14760 7610 "
       id="path60" />
    <path
       d="M14480 7760 L14640 7260 L14810 7760 "
       id="path62" />
    <path
       d="M15240 7280 L15190 7260 L15120 7260 L15050 7280 L15000 7330 L14980 7380 L14960 7470 L14960 7540 L14980 7640 L15000 7680 L15050 7730 L15120 7760 L15170 7760 L15240 7730 L15260 7710 L15260 7540 L15170 7540 "
       id="path64" />
  </g>
  <g
     style="fill:#000000; fill-opacity:0.0;  stroke:#000000; stroke-width:0; stroke-opacity:1;  stroke-linecap:round; stroke-linejoin:round;"
     id="g68" />
  <g
     style="fill:#000000; fill-opacity:0.0;  stroke:#000000; stroke-width:60; stroke-opacity:1;  stroke-linecap:round; stroke-linejoin:round;"
     id="g80">
    <circle
       cx="9000"
       cy="9750"
       r="250"
       id="circle70" />
    <polyline
       fill="none;"
       points="9000,9000 9000,9500 "
       id="polyline72" />
    <path
       d="M8330 10190 L8490 10690 L8660 10190 "
       id="path74" />
    <path
       d="M9110 10640 L9090 10660 L9020 10690 L8970 10690 L8900 10660 L8850 10610 L8830 10570 L8810 10470 L8810 10400 L8830 10310 L8850 10260 L8900 10210 L8970 10190 L9020 10190 L9090 10210 L9110 10230 "
       id="path76" />
    <path
       d="M9610 10640 L9590 10660 L9520 10690 L9470 10690 L9400 10660 L9350 10610 L9330 10570 L9310 10470 L9310 10400 L9330 10310 L9350 10260 L9400 10210 L9470 10190 L9520 10190 L9590 10210 L9610 10230 "
       id="path78" />
  </g>
  <g
     style="fill:#000000; fill-opacity:0.0;  stroke:#000000; stroke-width:0; stroke-opacity:1;  stroke-linecap:round; stroke-linejoin:round;"
     id="g82" />
  <g
     style="fill:#000000; fill-opacity:0.0;  stroke:#000000; stroke-width:60; stroke-opacity:1;  stroke-linecap:round; stroke-linejoin:round;"
     id="g92">
    <polyline
       fill="none;"
       points="13500,9000 13500,9500 14000,9500 13500,10000 13000,9500 13500,9500 "
       id="polyline84" />
    <path
       d="M13120 10280 L13070 10260 L13000 10260 L12930 10280 L12880 10330 L12860 10380 L12840 10470 L12840 10540 L12860 10640 L12880 10680 L12930 10730 L13000 10760 L13050 10760 L13120 10730 L13140 10710 L13140 10540 L13050 10540 "
       id="path86" />
    <path
       d="M13360 10760 L13360 10260 L13640 10760 L13640 10260 "
       id="path88" />
    <path
       d="M13880 10760 L13880 10260 L14000 10260 L14070 10280 L14120 10330 L14140 10380 L14160 10470 L14160 10540 L14140 10640 L14120 10680 L14070 10730 L14000 10760 L13880 10760 "
       id="path90" />
  </g>
  <g
     style="fill:#000000; fill-opacity:0.0;  stroke:#000000; stroke-width:0; stroke-opacity:1;  stroke-linecap:round; stroke-linejoin:round;"
     id="g94" />
  <g
     style="fill:#000000; fill-opacity:0.0;  stroke:#000000; stroke-width:60; stroke-opacity:1;  stroke-linecap:round; stroke-linejoin:round;"
     id="g130">
    <rect
       x="51450"
       y="71000"
       width="100"
       height="600"
       rx="0"
       id="rect96" />
    <rect
       x="51000"
       y="71000"
       width="1000"
       height="1000"
       rx="0"
       id="rect98" />
    <path
       d="M51500 71000 L51500 69500 "
       id="path100" />
    <path
       d="M51380 70110 L51380 70390 "
       id="path102" />
    <path
       d="M51380 70250 L50880 70250 L50950 70300 L51000 70350 L51020 70390 "
       id="path104" />
    <path
       d="M52190 71910 L52540 71910 L52610 71930 L52660 71980 L52690 72050 L52690 72100 "
       id="path106" />
    <path
       d="M52690 71410 L52690 71690 "
       id="path108" />
    <path
       d="M52690 71550 L52190 71550 L52260 71600 L52310 71650 L52330 71690 "
       id="path110" />
    <path
       d="M52350 70980 L52690 70980 "
       id="path112" />
    <path
       d="M52160 71100 L52520 71210 L52520 70910 "
       id="path114" />
    <path
       d="M50660 72760 L50660 72260 L50940 72760 L50940 72260 "
       id="path116" />
    <path
       d="M51180 72760 L51180 72260 L51370 72260 L51420 72280 L51440 72300 L51460 72350 L51460 72420 L51440 72470 L51420 72490 L51370 72520 L51180 72520 "
       id="path118" />
    <path
       d="M51610 72260 L51890 72260 "
       id="path120" />
    <path
       d="M51750 72760 L51750 72260 "
       id="path122" />
    <path
       d="M52060 72760 L52060 72260 "
       id="path124" />
    <path
       d="M52060 72490 L52340 72490 "
       id="path126" />
    <path
       d="M52340 72760 L52340 72260 "
       id="path128" />
  </g>
  <g
     style="fill:#000000; fill-opacity:0.0;  stroke:#000000; stroke-width:0; stroke-opacity:1;  stroke-linecap:round; stroke-linejoin:round;"
     id="g132" />
  <g
     style="fill:#000000;fill-opacity:0;stroke:#000000;stroke-width:100;stroke-linecap:round;stroke-linejoin:round;stroke-opacity:1"
     id="g136"
     transform="matrix(0.51483723,0,0,0.51483723,24321.037,20498.127)">
    <rect
       x="56500"
       y="37500"
       width="1000"
       height="2000"
       rx="0"
       id="rect134" />
  </g>
  <g
     style="fill:#000000;fill-opacity:0;stroke:#000000;stroke-width:60;stroke-linecap:round;stroke-linejoin:round;stroke-opacity:1"
     id="g152"
     transform="matrix(0.51483723,0,0,0.51483723,24321.037,20498.127)">
    <rect
       x="56500"
       y="37950"
       width="500"
       height="100"
       rx="0"
       id="rect138" />
    <rect
       x="56500"
       y="38950"
       width="500"
       height="100"
       rx="0"
       id="rect140" />
    <path
       d="M 56500,39000 H 55500"
       id="path142"
       inkscape:connector-curvature="0" />
    <path
       d="M 56500,38000 H 55500"
       id="path148"
       inkscape:connector-curvature="0" />
  </g>
  <g
     style="fill:#000000;fill-opacity:0;stroke:#000000;stroke-width:100;stroke-linecap:round;stroke-linejoin:round;stroke-opacity:1"
     id="g170"
     transform="matrix(0.51483723,0,0,0.51483723,24321.037,20498.127)">
    <path
       d="m 57230,42820 30,-70 v -120 l -30,-40 -20,-30 -50,-20 h -50 l -40,20 -30,30 -20,40 -30,100 -20,50 -20,20 -50,20 h -50 l -50,-20 -20,-20 -20,-50 v -120 l 20,-70"
       id="path154"
       inkscape:connector-curvature="0" />
    <path
       d="m 56760,42230 v -100 l 20,-50 50,-40 90,-30 h 170 l 90,30 50,40 30,50 v 100 l -30,40 -50,50 -90,20 h -170 l -90,-20 -50,-50 -20,-40"
       id="path156"
       inkscape:connector-curvature="0" />
    <path
       d="m 57260,41560 v 240 h -500"
       id="path158"
       inkscape:connector-curvature="0" />
    <path
       d="m 57260,41400 h -500 v -120 l 20,-70 50,-50 50,-20 90,-20 h 70 l 100,20 40,20 50,50 30,70 v 120"
       id="path160"
       inkscape:connector-curvature="0" />
    <path
       d="m 56990,40900 v -170"
       id="path162"
       inkscape:connector-curvature="0" />
    <path
       d="m 57260,40660 v 240 h -500 v -240"
       id="path164"
       inkscape:connector-curvature="0" />
    <path
       d="m 57260,40170 -240,160"
       id="path166"
       inkscape:connector-curvature="0" />
    <path
       d="m 57260,40450 h -500 v -190 l 20,-50 20,-20 50,-20 h 70 l 50,20 20,20 30,50 v 190"
       id="path168"
       inkscape:connector-curvature="0" />
  </g>
  <g
     style="fill:#000000; fill-opacity:0.0;  stroke:#000000; stroke-width:0; stroke-opacity:1;  stroke-linecap:round; stroke-linejoin:round;"
     id="g172" />
  <g
     style="fill:#000000;fill-opacity:0;stroke:#000000;stroke-width:100;stroke-linecap:round;stroke-linejoin:round;stroke-opacity:1"
     id="g176"
     transform="matrix(0.51483723,0,0,0.51483723,24321.037,20498.127)">
    <rect
       x="44200"
       y="38000"
       width="600"
       height="2000"
       rx="0"
       id="rect174" />
  </g>
  <g
     style="fill:#000000;fill-opacity:0;stroke:#000000;stroke-width:60;stroke-linecap:round;stroke-linejoin:round;stroke-opacity:1"
     id="g186"
     transform="matrix(0.51483723,0,0,0.51483723,24321.037,20498.127)">
    <polyline
       fill="none;"
       points="44500,38000 44500,40000 "
       id="polyline178" />
    <polyline
       fill="none;"
       points="43900,38000 43900,38400 45100,39600 45100,40000 "
       id="polyline180" />
    <path
       d="m 44500,38000 v -500"
       id="path182"
       inkscape:connector-curvature="0" />
    <path
       d="m 44500,40000 v 500"
       id="path184"
       inkscape:connector-curvature="0" />
  </g>
  <g
     style="fill:#000000;fill-opacity:0;stroke:#000000;stroke-width:100;stroke-linecap:round;stroke-linejoin:round;stroke-opacity:1"
     id="g200"
     transform="matrix(0.51483723,0,0,0.51483723,24321.037,20498.127)">
    <path
       d="m 42990,39650 v 170"
       id="path188"
       inkscape:connector-curvature="0" />
    <path
       d="m 43260,39820 h -500 v -240"
       id="path190"
       inkscape:connector-curvature="0" />
    <path
       d="m 42760,39390 h 400 l 50,-20 20,-30 30,-40 v -100 l -30,-50 -20,-20 -50,-20 h -400"
       id="path192"
       inkscape:connector-curvature="0" />
    <path
       d="m 43230,38890 30,-70 v -120 l -30,-40 -20,-30 -50,-20 h -50 l -40,20 -30,30 -20,40 -30,100 -20,50 -20,20 -50,20 h -50 l -50,-20 -20,-20 -20,-50 v -120 l 20,-70"
       id="path194"
       inkscape:connector-curvature="0" />
    <path
       d="m 42990,38390 v -170"
       id="path196"
       inkscape:connector-curvature="0" />
    <path
       d="m 43260,38150 v 240 h -500 v -240"
       id="path198"
       inkscape:connector-curvature="0" />
  </g>
  <g
     style="fill:#000000; fill-opacity:0.0;  stroke:#000000; stroke-width:0; stroke-opacity:1;  stroke-linecap:round; stroke-linejoin:round;"
     id="g202" />
  <g
     style="fill:#000000;fill-opacity:1;stroke:#000000;stroke-width:60;stroke-linecap:round;stroke-linejoin:round;stroke-opacity:1"
     id="g212"
     transform="matrix(0.51483723,0,0,0.51483723,24321.037,20498.127)">
    <rect
       x="43700"
       y="45050"
       width="1600"
       height="100"
       rx="0"
       id="rect204" />
    <rect
       x="43700"
       y="43800"
       width="1600"
       height="100"
       rx="0"
       id="rect206" />
    <rect
       x="43980"
       y="45280"
       width="1020"
       height="200"
       rx="0"
       id="rect208" />
    <rect
       x="43980"
       y="44030"
       width="1020"
       height="200"
       rx="0"
       id="rect210" />
  </g>
  <g
     style="fill:#000000;fill-opacity:0;stroke:#000000;stroke-width:60;stroke-linecap:round;stroke-linejoin:round;stroke-opacity:1"
     id="g226"
     transform="matrix(0.51483723,0,0,0.51483723,24321.037,20498.127)">
    <polyline
       fill="none;"
       points="44500,45100 44500,45000 "
       id="polyline214" />
    <polyline
       fill="none;"
       points="44500,44900 44500,44800 "
       id="polyline216" />
    <polyline
       fill="none;"
       points="44500,44700 44500,44600 "
       id="polyline218" />
    <polyline
       fill="none;"
       points="44500,44500 44500,44400 "
       id="polyline220" />
    <polyline
       fill="none;"
       points="44500,44300 44500,44200 "
       id="polyline222" />
    <polyline
       fill="none;"
       points="44500,43800 44500,43500 "
       id="polyline224" />
  </g>
  <g
     style="fill:#000000;fill-opacity:0;stroke:#000000;stroke-width:100;stroke-linecap:round;stroke-linejoin:round;stroke-opacity:1"
     id="g232"
     transform="matrix(0.51483723,0,0,0.51483723,24321.037,20498.127)">
    <polyline
       fill="none;"
       points="44600,43450 45000,43450 "
       id="polyline228" />
    <polyline
       fill="none;"
       points="44800,43250 44800,43650 "
       id="polyline230" />
  </g>
  <g
     style="fill:#000000;fill-opacity:0;stroke:#000000;stroke-width:60;stroke-linecap:round;stroke-linejoin:round;stroke-opacity:1"
     id="g238"
     transform="matrix(0.51483723,0,0,0.51483723,24321.037,20498.127)">
    <path
       d="M 44500,43500 V 42500"
       id="path234"
       inkscape:connector-curvature="0" />
    <path
       d="m 44500,45500 v 1000"
       id="path236"
       inkscape:connector-curvature="0" />
  </g>
  <g
     style="fill:#000000;fill-opacity:0;stroke:#000000;stroke-width:100;stroke-linecap:round;stroke-linejoin:round;stroke-opacity:1"
     id="g254"
     transform="matrix(0.51483723,0,0,0.51483723,24321.037,20498.127)">
    <path
       d="m 42990,45200 30,-70 20,-20 50,-20 h 70 l 50,20 20,20 30,50 v 190 h -500 v -170 l 20,-40 20,-30 50,-20 h 50 l 50,20 20,30 20,40 v 170"
       id="path240"
       inkscape:connector-curvature="0" />
    <path
       d="m 43110,44890 v -230"
       id="path242"
       inkscape:connector-curvature="0" />
    <path
       d="m 43260,44940 -500,-160 500,-170"
       id="path244"
       inkscape:connector-curvature="0" />
    <path
       d="m 42760,44510 v -280"
       id="path246"
       inkscape:connector-curvature="0" />
    <path
       d="m 43260,44370 h -500"
       id="path248"
       inkscape:connector-curvature="0" />
    <path
       d="m 42760,44130 v -280"
       id="path250"
       inkscape:connector-curvature="0" />
    <path
       d="m 43260,43990 h -500"
       id="path252"
       inkscape:connector-curvature="0" />
  </g>
  <g
     style="fill:#000000; fill-opacity:0.0;  stroke:#000000; stroke-width:0; stroke-opacity:1;  stroke-linecap:round; stroke-linejoin:round;"
     id="g256" />
  <g
     style="fill:#000000;fill-opacity:0;stroke:#000000;stroke-width:80;stroke-linecap:round;stroke-linejoin:round;stroke-opacity:1"
     id="g260"
     transform="matrix(0.51483723,0,0,0.51483723,24321.037,20498.127)">
    <polyline
       fill="none;"
       points="52000,38500 51000,38500 "
       id="polyline258" />
  </g>
  <g
     style="fill:#000000;fill-opacity:0;stroke:#000000;stroke-width:60;stroke-linecap:round;stroke-linejoin:round;stroke-opacity:1"
     id="g264"
     transform="matrix(0.51483723,0,0,0.51483723,24321.037,20498.127)">
    <polyline
       fill="none;"
       points="51500,39500 51500,38500 "
       id="polyline262" />
  </g>
  <g
     style="fill:#000000;fill-opacity:0;stroke:#000000;stroke-width:80;stroke-linecap:round;stroke-linejoin:round;stroke-opacity:1"
     id="g268"
     transform="matrix(0.51483723,0,0,0.51483723,24321.037,20498.127)">
    <polyline
       fill="none;"
       points="52000,39500 51000,39500 51500,38500 52000,39500 "
       id="polyline266" />
  </g>
  <g
     style="fill:#000000;fill-opacity:0;stroke:#000000;stroke-width:60;stroke-linecap:round;stroke-linejoin:round;stroke-opacity:1"
     id="g274"
     transform="matrix(0.51483723,0,0,0.51483723,24321.037,20498.127)">
    <path
       d="M 51500,38500 V 37500"
       id="path270"
       inkscape:connector-curvature="0" />
    <path
       d="m 51500,39500 v 1000"
       id="path272"
       inkscape:connector-curvature="0" />
  </g>
  <g
     style="fill:#000000;fill-opacity:0;stroke:#000000;stroke-width:100;stroke-linecap:round;stroke-linejoin:round;stroke-opacity:1"
     id="g306"
     transform="matrix(0.51483723,0,0,0.51483723,24321.037,20498.127)">
    <path
       d="m 50690,40710 h -500"
       id="path276"
       inkscape:connector-curvature="0" />
    <path
       d="m 50690,40430 -290,210"
       id="path278"
       inkscape:connector-curvature="0" />
    <path
       d="m 50190,40430 280,280"
       id="path280"
       inkscape:connector-curvature="0" />
    <path
       d="m 50690,40210 h -500"
       id="path282"
       inkscape:connector-curvature="0" />
    <path
       d="m 50640,39690 20,20 30,70 v 50 l -30,70 -50,50 -40,20 -100,20 h -70 l -90,-20 -50,-20 -50,-50 -20,-70 v -50 l 20,-70 20,-20"
       id="path284"
       inkscape:connector-curvature="0" />
    <path
       d="m 50690,39470 h -500"
       id="path286"
       inkscape:connector-curvature="0" />
    <path
       d="m 50690,39190 -290,210"
       id="path288"
       inkscape:connector-curvature="0" />
    <path
       d="m 50190,39190 280,280"
       id="path290"
       inkscape:connector-curvature="0" />
    <path
       d="m 50420,38800 30,-70 20,-20 50,-20 h 70 l 50,20 20,20 30,50 v 190 h -500 v -170 l 20,-40 20,-30 50,-20 h 50 l 50,20 20,30 20,40 v 170"
       id="path292"
       inkscape:connector-curvature="0" />
    <path
       d="m 50540,38490 v -230"
       id="path294"
       inkscape:connector-curvature="0" />
    <path
       d="m 50690,38540 -500,-160 500,-170"
       id="path296"
       inkscape:connector-curvature="0" />
    <path
       d="m 50640,37760 20,20 30,70 v 50 l -30,70 -50,50 -40,20 -100,20 h -70 l -90,-20 -50,-20 -50,-50 -20,-70 v -50 l 20,-70 20,-20"
       id="path298"
       inkscape:connector-curvature="0" />
    <path
       d="m 50690,37540 h -500"
       id="path300"
       inkscape:connector-curvature="0" />
    <path
       d="m 50690,37260 -290,210"
       id="path302"
       inkscape:connector-curvature="0" />
    <path
       d="m 50190,37260 280,280"
       id="path304"
       inkscape:connector-curvature="0" />
  </g>
  <g
     style="fill:#000000; fill-opacity:0.0;  stroke:#000000; stroke-width:0; stroke-opacity:1;  stroke-linecap:round; stroke-linejoin:round;"
     id="g308" />
  <g
     style="fill:#000000;fill-opacity:0;stroke:#000000;stroke-width:100;stroke-linecap:round;stroke-linejoin:round;stroke-opacity:1"
     id="g312"
     transform="matrix(0.51483723,0,0,0.51483723,24321.037,20498.127)">
    <circle
       cx="48350"
       cy="44500"
       r="1110"
       id="circle310" />
  </g>
  <g
     style="fill:#000000;fill-opacity:1;stroke:#000000;stroke-width:60;stroke-linecap:round;stroke-linejoin:round;stroke-opacity:1"
     id="g318"
     transform="matrix(0.51483723,0,0,0.51483723,24321.037,20498.127)">
    <circle
       cx="48000"
       cy="45200"
       r="110"
       id="circle314" />
    <circle
       cx="48000"
       cy="43800"
       r="110"
       id="circle316" />
  </g>
  <g
     style="fill:#000000;fill-opacity:0;stroke:#000000;stroke-width:60;stroke-linecap:round;stroke-linejoin:round;stroke-opacity:1"
     id="g324"
     transform="matrix(0.51483723,0,0,0.51483723,24321.037,20498.127)">
    <polyline
       fill="none;"
       points="48980,44500 48900,44500 "
       id="polyline320" />
    <polyline
       fill="none;"
       points="48700,45200 48000,45200 "
       id="polyline322" />
  </g>
  <g
     style="fill:#000000;fill-opacity:0;stroke:#000000;stroke-width:100;stroke-linecap:round;stroke-linejoin:round;stroke-opacity:1"
     id="g328"
     transform="matrix(0.51483723,0,0,0.51483723,24321.037,20498.127)">
    <polyline
       fill="none;"
       points="48700,45000 48700,45400 "
       id="polyline326" />
  </g>
  <g
     style="fill:#000000;fill-opacity:0;stroke:#000000;stroke-width:60;stroke-linecap:round;stroke-linejoin:round;stroke-opacity:1"
     id="g332"
     transform="matrix(0.51483723,0,0,0.51483723,24321.037,20498.127)">
    <polyline
       fill="none;"
       points="48700,44500 48000,44500 "
       id="polyline330" />
  </g>
  <g
     style="fill:#000000;fill-opacity:0;stroke:#000000;stroke-width:100;stroke-linecap:round;stroke-linejoin:round;stroke-opacity:1"
     id="g336"
     transform="matrix(0.51483723,0,0,0.51483723,24321.037,20498.127)">
    <polyline
       fill="none;"
       points="48700,44300 48700,44700 "
       id="polyline334" />
  </g>
  <g
     style="fill:#000000;fill-opacity:0;stroke:#000000;stroke-width:60;stroke-linecap:round;stroke-linejoin:round;stroke-opacity:1"
     id="g340"
     transform="matrix(0.51483723,0,0,0.51483723,24321.037,20498.127)">
    <polyline
       fill="none;"
       points="48700,43800 48000,43800 "
       id="polyline338" />
  </g>
  <g
     style="fill:#000000;fill-opacity:0;stroke:#000000;stroke-width:100;stroke-linecap:round;stroke-linejoin:round;stroke-opacity:1"
     id="g344"
     transform="matrix(0.51483723,0,0,0.51483723,24321.037,20498.127)">
    <polyline
       fill="none;"
       points="48700,43600 48700,44000 "
       id="polyline342" />
  </g>
  <g
     style="fill:#000000;fill-opacity:0;stroke:#000000;stroke-width:60;stroke-linecap:round;stroke-linejoin:round;stroke-opacity:1"
     id="g352"
     transform="matrix(0.51483723,0,0,0.51483723,24321.037,20498.127)">
    <polyline
       fill="none;"
       points="48000,45200 48000,45500 "
       id="polyline346" />
    <polyline
       fill="none;"
       points="48000,45200 48000,44500 "
       id="polyline348" />
    <polyline
       fill="none;"
       points="48000,43500 48000,43800 "
       id="polyline350" />
  </g>
  <g
     style="fill:#000000;fill-opacity:0;stroke:#000000;stroke-width:100;stroke-linecap:round;stroke-linejoin:round;stroke-opacity:1"
     id="g356"
     transform="matrix(0.51483723,0,0,0.51483723,24321.037,20498.127)">
    <polyline
       fill="none;"
       points="48900,43750 48900,45250 48900,45250 "
       id="polyline354" />
  </g>
  <g
     style="fill:#000000;fill-opacity:1;stroke:#000000;stroke-width:60;stroke-linecap:round;stroke-linejoin:round;stroke-opacity:1"
     id="g360"
     transform="matrix(0.51483723,0,0,0.51483723,24321.037,20498.127)">
    <polyline
       style="fill-rule:evenodd"
       points="48600,44500 48200,44350 48200,44650 48600,44500 "
       id="polyline358" />
  </g>
  <g
     style="fill:#000000;fill-opacity:0;stroke:#000000;stroke-width:60;stroke-linecap:round;stroke-linejoin:round;stroke-opacity:1"
     id="g382"
     transform="matrix(0.51483723,0,0,0.51483723,24321.037,20498.127)">
    <polyline
       fill="none;"
       points="48000,45200 47700,45200 47700,43800 48000,43800 "
       id="polyline362" />
    <polyline
       fill="none;"
       points="47900,44300 47850,44350 47550,44350 47500,44400 "
       id="polyline364" />
    <polyline
       fill="none;"
       points="47700,44350 47850,44600 47550,44600 47700,44350 "
       id="polyline366" />
    <path
       d="m 49000,44500 h 2000"
       id="path368"
       inkscape:connector-curvature="0" />
    <path
       d="M 48000,43500 V 42500"
       id="path374"
       inkscape:connector-curvature="0" />
    <path
       d="m 48000,45500 v 1000"
       id="path378"
       inkscape:connector-curvature="0" />
  </g>
  <g
     style="fill:#000000;fill-opacity:0;stroke:#000000;stroke-width:100;stroke-linecap:round;stroke-linejoin:round;stroke-opacity:1"
     id="g402"
     transform="matrix(0.51483723,0,0,0.51483723,24321.037,20498.127)">
    <path
       d="m 46690,45870 h -500 l 350,-170 -350,-160 h 500"
       id="path384"
       inkscape:connector-curvature="0" />
    <path
       d="m 46190,45210 v -100 l 20,-50 50,-40 90,-30 h 170 l 90,30 50,40 30,50 v 100 l -30,40 -50,50 -90,20 h -170 l -90,-20 -50,-50 -20,-40"
       id="path386"
       inkscape:connector-curvature="0" />
    <path
       d="m 46660,44800 30,-70 v -120 l -30,-40 -20,-30 -50,-20 h -50 l -40,20 -30,30 -20,40 -30,100 -20,50 -20,20 -50,20 h -50 l -50,-20 -20,-20 -20,-50 v -120 l 20,-70"
       id="path388"
       inkscape:connector-curvature="0" />
    <path
       d="m 46420,44130 v 170"
       id="path390"
       inkscape:connector-curvature="0" />
    <path
       d="m 46690,44300 h -500 v -240"
       id="path392"
       inkscape:connector-curvature="0" />
    <path
       d="m 46420,43870 v -170"
       id="path394"
       inkscape:connector-curvature="0" />
    <path
       d="m 46690,43630 v 240 h -500 v -240"
       id="path396"
       inkscape:connector-curvature="0" />
    <path
       d="m 46190,43490 v -280"
       id="path398"
       inkscape:connector-curvature="0" />
    <path
       d="m 46690,43350 h -500"
       id="path400"
       inkscape:connector-curvature="0" />
  </g>
  <g
     style="fill:#000000; fill-opacity:0.0;  stroke:#000000; stroke-width:0; stroke-opacity:1;  stroke-linecap:round; stroke-linejoin:round;"
     id="g404" />
  <g
     style="fill:#000000;fill-opacity:0;stroke:#000000;stroke-width:100;stroke-linecap:round;stroke-linejoin:round;stroke-opacity:1"
     id="g408"
     transform="matrix(0.51483723,0,0,0.51483723,24321.037,20498.127)">
    <rect
       x="53600"
       y="45500"
       width="800"
       height="2000"
       rx="0"
       id="rect406" />
  </g>
  <g
     style="fill:#000000;fill-opacity:0;stroke:#000000;stroke-width:60;stroke-linecap:round;stroke-linejoin:round;stroke-opacity:1"
     id="g426"
     transform="matrix(0.51483723,0,0,0.51483723,24321.037,20498.127)">
    <path
       d="m 54000,47500 v 500"
       id="path410"
       inkscape:connector-curvature="0" />
    <path
       d="m 54000,45500 v -500"
       id="path412"
       inkscape:connector-curvature="0" />
    <path
       d="m 54190,46850 v 280"
       id="path414"
       inkscape:connector-curvature="0" />
    <path
       d="m 54190,46990 h -500 l 70,50 50,50 20,40"
       id="path416"
       inkscape:connector-curvature="0" />
    <path
       d="m 53690,46540 v -50 l 20,-50 20,-20 50,-30 100,-20 h 120 l 90,20 50,30 20,20 30,50 v 50 l -30,40 -20,30 -50,20 -90,20 h -120 l -100,-20 -50,-20 -20,-30 -20,-40"
       id="path418"
       inkscape:connector-curvature="0" />
    <path
       d="m 54190,46150 h -500"
       id="path420"
       inkscape:connector-curvature="0" />
    <path
       d="m 54190,45870 -290,210"
       id="path422"
       inkscape:connector-curvature="0" />
    <path
       d="m 53690,45870 280,280"
       id="path424"
       inkscape:connector-curvature="0" />
  </g>
  <g
     style="fill:#000000; fill-opacity:0.0;  stroke:#000000; stroke-width:0; stroke-opacity:1;  stroke-linecap:round; stroke-linejoin:round;"
     id="g428" />
  <g
     style="fill:#000000;fill-opacity:0;stroke:#000000;stroke-width:60;stroke-linecap:round;stroke-linejoin:round;stroke-opacity:1"
     id="g446"
     transform="matrix(0.51483723,0,0,0.51483723,24321.037,20498.127)">
    <circle
       cx="54000"
       cy="41800"
       r="200"
       id="circle430" />
    <circle
       cx="54000"
       cy="40200"
       r="200"
       id="circle432" />
    <polyline
       fill="none;"
       points="53900,41600 53300,40400 "
       id="polyline434" />
    <path
       d="m 54000,42000 v 1000"
       id="path436"
       inkscape:connector-curvature="0" />
    <path
       d="M 54000,40000 V 39000"
       id="path442"
       inkscape:connector-curvature="0" />
  </g>
  <g
     style="fill:#000000;fill-opacity:0;stroke:#000000;stroke-width:100;stroke-linecap:round;stroke-linejoin:round;stroke-opacity:1"
     id="g464"
     transform="matrix(0.51483723,0,0,0.51483723,24213.779,20498.127)">
    <path
       d="m 53260,41990 -240,160"
       id="path448"
       inkscape:connector-curvature="0" />
    <path
       d="m 53260,42270 h -500 v -190 l 20,-50 20,-20 50,-20 h 70 l 50,20 20,20 30,50 v 190"
       id="path450"
       inkscape:connector-curvature="0" />
    <path
       d="m 52990,41770 v -170"
       id="path452"
       inkscape:connector-curvature="0" />
    <path
       d="m 53260,41530 v 240 h -500 v -240"
       id="path454"
       inkscape:connector-curvature="0" />
    <path
       d="m 52760,41390 500,-160 -500,-170"
       id="path456"
       inkscape:connector-curvature="0" />
    <path
       d="m 53300,41010 v -380"
       id="path458"
       inkscape:connector-curvature="0" />
    <path
       d="m 53230,40530 30,-70 v -120 l -30,-40 -20,-30 -50,-20 h -50 l -40,20 -30,30 -20,40 -30,100 -20,50 -20,20 -50,20 h -50 l -50,-20 -20,-20 -20,-50 v -120 l 20,-70"
       id="path460"
       inkscape:connector-curvature="0" />
    <path
       d="m 52760,40080 500,-120 -360,-100 360,-90 -500,-120"
       id="path462"
       inkscape:connector-curvature="0" />
  </g>
  <g
     style="fill:#000000;fill-opacity:0;stroke:#000000;stroke-width:60;stroke-linecap:round;stroke-linejoin:round;stroke-opacity:1"
     id="g480"
     transform="matrix(0.51483723,0,0,0.51483723,24321.037,20498.127)">
    <path
       d="m 48000,36000 v 500"
       id="path466"
       inkscape:connector-curvature="0" />
    <path
       d="m 48000,41500 v 500"
       id="path468"
       inkscape:connector-curvature="0" />
    <path
       d="m 48000,42000 v 500"
       id="path470"
       inkscape:connector-curvature="0" />
    <path
       d="m 48000,46500 v 2000"
       id="path472"
       inkscape:connector-curvature="0" />
    <path
       d="m 44500,48500 h 3500"
       id="path474"
       inkscape:connector-curvature="0" />
    <path
       d="m 48000,48500 h 6000"
       id="path476"
       inkscape:connector-curvature="0" />
    <path
       d="M 44500,48500 V 46500"
       id="path478"
       inkscape:connector-curvature="0" />
  </g>
  <g
     style="fill:#000000; fill-opacity:0.0;  stroke:#000000; stroke-width:0; stroke-opacity:1;  stroke-linecap:round; stroke-linejoin:round;"
     id="g482" />
  <g
     style="fill:#000000;fill-opacity:1;stroke:#000000;stroke-width:100;stroke-linecap:round;stroke-linejoin:round;stroke-opacity:1"
     id="g486"
     transform="matrix(0.51483723,0,0,0.51483723,24321.037,20498.127)">
    <circle
       cx="48000"
       cy="48500"
       r="200"
       id="circle484" />
  </g>
  <g
     style="fill:#000000; fill-opacity:1.0;  stroke:#000000; stroke-width:60; stroke-opacity:1;  stroke-linecap:round; stroke-linejoin:round;"
     id="g488" />
  <g
     style="fill:#000000;fill-opacity:0;stroke:#000000;stroke-width:60;stroke-linecap:round;stroke-linejoin:round;stroke-opacity:1"
     id="g498"
     transform="matrix(0.51483723,0,0,0.51483723,24321.037,20498.127)">
    <path
       d="m 51000,44500 h 3000"
       id="path490"
       inkscape:connector-curvature="0" />
    <path
       d="m 54000,44500 h 1500"
       id="path492"
       inkscape:connector-curvature="0" />
    <path
       d="m 48000,42000 h 3500"
       id="path494"
       inkscape:connector-curvature="0" />
    <path
       d="M 51500,42000 V 40500"
       id="path496"
       inkscape:connector-curvature="0" />
  </g>
  <g
     style="fill:#000000; fill-opacity:0.0;  stroke:#000000; stroke-width:0; stroke-opacity:1;  stroke-linecap:round; stroke-linejoin:round;"
     id="g500" />
  <g
     style="fill:#000000;fill-opacity:1;stroke:#000000;stroke-width:100;stroke-linecap:round;stroke-linejoin:round;stroke-opacity:1"
     id="g504"
     transform="matrix(0.51483723,0,0,0.51483723,24321.037,20498.127)">
    <circle
       cx="48000"
       cy="42000"
       r="200"
       id="circle502" />
  </g>
  <g
     style="fill:#000000; fill-opacity:1.0;  stroke:#000000; stroke-width:60; stroke-opacity:1;  stroke-linecap:round; stroke-linejoin:round;"
     id="g506" />
  <g
     style="fill:#000000;fill-opacity:0;stroke:#000000;stroke-width:60;stroke-linecap:round;stroke-linejoin:round;stroke-opacity:1"
     id="g518"
     transform="matrix(0.51483723,0,0,0.51483723,24321.037,20498.127)">
    <path
       d="m 44500,36000 h 3500"
       id="path508"
       inkscape:connector-curvature="0" />
    <path
       d="m 48000,36000 h 3500"
       id="path510"
       inkscape:connector-curvature="0" />
    <path
       d="m 51500,36000 h 2500"
       id="path512"
       inkscape:connector-curvature="0" />
    <path
       d="m 54000,36000 h 1500"
       id="path514"
       inkscape:connector-curvature="0" />
    <path
       d="m 51500,36000 v 1500"
       id="path516"
       inkscape:connector-curvature="0" />
  </g>
  <g
     style="fill:#000000; fill-opacity:0.0;  stroke:#000000; stroke-width:0; stroke-opacity:1;  stroke-linecap:round; stroke-linejoin:round;"
     id="g520" />
  <g
     style="fill:#000000;fill-opacity:1;stroke:#000000;stroke-width:100;stroke-linecap:round;stroke-linejoin:round;stroke-opacity:1"
     id="g524"
     transform="matrix(0.51483723,0,0,0.51483723,24321.037,20498.127)">
    <circle
       cx="48000"
       cy="36000"
       r="200"
       id="circle522" />
  </g>
  <g
     style="fill:#000000; fill-opacity:1.0;  stroke:#000000; stroke-width:60; stroke-opacity:1;  stroke-linecap:round; stroke-linejoin:round;"
     id="g526" />
  <g
     style="fill:#000000;fill-opacity:0;stroke:#000000;stroke-width:60;stroke-linecap:round;stroke-linejoin:round;stroke-opacity:1"
     id="g532"
     transform="matrix(0.51483723,0,0,0.51483723,24321.037,20498.127)">
    <path
       d="M 44500,42500 V 40500"
       id="path528"
       inkscape:connector-curvature="0" />
    <path
       d="M 44500,37500 V 36000"
       id="path530"
       inkscape:connector-curvature="0" />
  </g>
  <g
     style="fill:#000000; fill-opacity:0.0;  stroke:#000000; stroke-width:0; stroke-opacity:1;  stroke-linecap:round; stroke-linejoin:round;"
     id="g534" />
  <g
     style="fill:#000000;fill-opacity:1;stroke:#000000;stroke-width:100;stroke-linecap:round;stroke-linejoin:round;stroke-opacity:1"
     id="g538"
     transform="matrix(0.51483723,0,0,0.51483723,24321.037,20498.127)">
    <circle
       cx="51500"
       cy="36000"
       r="200"
       id="circle536" />
  </g>
  <g
     style="fill:#000000; fill-opacity:1.0;  stroke:#000000; stroke-width:60; stroke-opacity:1;  stroke-linecap:round; stroke-linejoin:round;"
     id="g540" />
  <g
     style="fill:#000000;fill-opacity:0;stroke:#000000;stroke-width:60;stroke-linecap:round;stroke-linejoin:round;stroke-opacity:1"
     id="g548"
     transform="matrix(0.51483723,0,0,0.51483723,24321.037,20498.127)">
    <path
       d="m 54000,48500 v -500"
       id="path542"
       inkscape:connector-curvature="0" />
    <path
       d="m 54000,43000 v 1500"
       id="path544"
       inkscape:connector-curvature="0" />
    <path
       d="m 54000,44500 v 500"
       id="path546"
       inkscape:connector-curvature="0" />
  </g>
  <g
     style="fill:#000000; fill-opacity:0.0;  stroke:#000000; stroke-width:0; stroke-opacity:1;  stroke-linecap:round; stroke-linejoin:round;"
     id="g550" />
  <g
     style="fill:#000000;fill-opacity:1;stroke:#000000;stroke-width:100;stroke-linecap:round;stroke-linejoin:round;stroke-opacity:1"
     id="g554"
     transform="matrix(0.51483723,0,0,0.51483723,24321.037,20498.127)">
    <circle
       cx="54000"
       cy="44500"
       r="200"
       id="circle552" />
  </g>
  <g
     style="fill:#000000; fill-opacity:1.0;  stroke:#000000; stroke-width:60; stroke-opacity:1;  stroke-linecap:round; stroke-linejoin:round;"
     id="g556" />
  <g
     style="fill:#000000;fill-opacity:0;stroke:#000000;stroke-width:60;stroke-linecap:round;stroke-linejoin:round;stroke-opacity:1"
     id="g560"
     transform="matrix(0.51483723,0,0,0.51483723,24321.037,20498.127)">
    <path
       d="m 54000,36000 v 3000"
       id="path558"
       inkscape:connector-curvature="0" />
  </g>
  <g
     style="fill:#000000; fill-opacity:0.0;  stroke:#000000; stroke-width:0; stroke-opacity:1;  stroke-linecap:round; stroke-linejoin:round;"
     id="g562" />
  <g
     style="fill:#000000;fill-opacity:0;stroke:#000000;stroke-width:100;stroke-linecap:round;stroke-linejoin:round;stroke-opacity:1"
     id="g566"
     transform="matrix(0.51483723,0,0,0.51483723,24321.037,20498.127)">
    <circle
       cx="48000"
       cy="39100"
       r="1170"
       id="circle564" />
  </g>
  <g
     style="fill:#000000; fill-opacity:0.0;  stroke:#000000; stroke-width:60; stroke-opacity:1;  stroke-linecap:round; stroke-linejoin:round;"
     id="g592">
    <polyline
       fill="none;"
       points="47500,40200 47500,40500 48500,40500 48500,40200 "
       id="polyline568"
       transform="matrix(0.51483723,0,0,0.51483723,24321.037,20498.127)" />
    <polyline
       fill="none;"
       points="47500,38000 47500,37700 48500,37700 48500,38000 "
       id="polyline570"
       transform="matrix(0.51483723,0,0,0.51483723,24321.037,20498.127)" />
    <polyline
       fill="none;"
       points="48000,37700 48000,37500 "
       id="polyline574"
       transform="matrix(0.51483723,0,0,0.51483723,24321.037,20498.127)" />
    <path
       d="m 49033.224,39804.523 v -514.837"
       id="path576"
       inkscape:connector-curvature="0"
       style="stroke-width:30.89023399" />
    <path
       d="m 48873.624,39644.924 v -195.639"
       id="path578"
       inkscape:connector-curvature="0"
       style="stroke-width:30.89023399" />
    <path
       d="m 48971.443,39547.105 h -195.638"
       id="path580"
       inkscape:connector-curvature="0"
       style="stroke-width:30.89023399" />
    <path
       d="m 49033.224,41349.035 v 514.837"
       id="path586"
       inkscape:connector-curvature="0"
       style="stroke-width:30.89023399" />
    <path
       d="m 48873.624,41704.273 v -195.639"
       id="path588"
       inkscape:connector-curvature="0"
       style="stroke-width:30.89023399" />
    <text
       xml:space="preserve"
       style="font-style:normal;font-variant:normal;font-weight:normal;font-stretch:normal;font-size:2145.15527344px;line-height:1.25;font-family:Stencil;-inkscape-font-specification:Stencil;letter-spacing:0px;word-spacing:0px;fill:#000000;fill-opacity:1;stroke:none;stroke-width:3217.73266602"
       x="48721.242"
       y="40957.883"
       id="text1485"><tspan
         sodipodi:role="line"
         id="tspan1483"
         x="48721.242"
         y="40957.883"
         style="font-style:normal;font-variant:normal;font-weight:normal;font-stretch:normal;font-size:1144.08276367px;font-family:Consolas;-inkscape-font-specification:Consolas;stroke-width:3217.73266602">M</tspan></text>
  </g>
  <g
     style="fill:#000000;fill-opacity:0;stroke:#000000;stroke-width:100;stroke-linecap:round;stroke-linejoin:round;stroke-opacity:1"
     id="g606"
     transform="matrix(0.51483723,0,0,0.51483723,24321.037,20498.127)">
    <path
       d="m 46540,39870 h -500 l 350,-170 -350,-160 h 500"
       id="path594"
       inkscape:connector-curvature="0" />
    <path
       d="m 46040,39370 v -280"
       id="path596"
       inkscape:connector-curvature="0" />
    <path
       d="m 46540,39230 h -500"
       id="path598"
       inkscape:connector-curvature="0" />
    <path
       d="m 46540,38640 -240,160"
       id="path600"
       inkscape:connector-curvature="0" />
    <path
       d="m 46540,38920 h -500 v -190 l 20,-50 20,-20 50,-20 h 70 l 50,20 20,20 30,50 v 190"
       id="path602"
       inkscape:connector-curvature="0" />
    <path
       d="m 46510,38440 30,-70 v -120 l -30,-40 -20,-30 -50,-20 h -50 l -40,20 -30,30 -20,40 -30,100 -20,50 -20,20 -50,20 h -50 l -50,-20 -20,-20 -20,-50 v -120 l 20,-70"
       id="path604"
       inkscape:connector-curvature="0" />
  </g>
  <g
     style="fill:#000000;fill-opacity:0;stroke:#000000;stroke-width:60;stroke-linecap:round;stroke-linejoin:round;stroke-opacity:1"
     id="g610"
     transform="matrix(0.51483723,0,0,0.51483723,24321.037,20498.127)">
    <path
       d="m 55500,36000 v 2000"
       id="path608"
       inkscape:connector-curvature="0" />
  </g>
  <g
     style="fill:#000000; fill-opacity:0.0;  stroke:#000000; stroke-width:0; stroke-opacity:1;  stroke-linecap:round; stroke-linejoin:round;"
     id="g612" />
  <g
     style="fill:#000000;fill-opacity:1;stroke:#000000;stroke-width:100;stroke-linecap:round;stroke-linejoin:round;stroke-opacity:1"
     id="g616"
     transform="matrix(0.51483723,0,0,0.51483723,24321.037,20498.127)">
    <circle
       cx="54000"
       cy="36000"
       r="200"
       id="circle614" />
  </g>
  <g
     style="fill:#000000; fill-opacity:1.0;  stroke:#000000; stroke-width:60; stroke-opacity:1;  stroke-linecap:round; stroke-linejoin:round;"
     id="g618" />
  <g
     style="fill:#000000;fill-opacity:0;stroke:#000000;stroke-width:60;stroke-linecap:round;stroke-linejoin:round;stroke-opacity:1"
     id="g622"
     transform="matrix(0.51483723,0,0,0.51483723,24321.037,20498.127)">
    <path
       d="M 55500,44500 V 39000"
       id="path620"
       inkscape:connector-curvature="0" />
  </g>
  <g
     style="fill:#000000;fill-opacity:0;stroke:#000000;stroke-width:80;stroke-linecap:round;stroke-linejoin:round;stroke-opacity:1"
     id="g668"
     transform="matrix(0.51483723,0,0,0.51483723,24321.037,20498.127)">
    <path
       d="m 48225.001,43271.667 v -400 h 90 l 60,20 40,40 10,40 20,70 v 60 l -20,80 -10,30 -40,40 -60,20 h -90"
       id="path624"
       inkscape:connector-curvature="0" />
    <path
       d="m 48845.001,43271.667 -130,-190"
       id="path626"
       inkscape:connector-curvature="0" />
    <path
       d="m 48625.001,43271.667 v -400 h 150 l 40,20 10,20 20,40 v 50 l -20,40 -10,20 -40,20 h -150"
       id="path628"
       inkscape:connector-curvature="0" />
    <path
       d="m 49005.001,43161.667 h 190"
       id="path630"
       inkscape:connector-curvature="0" />
    <path
       d="m 48965.001,43271.667 130,-400 130,400"
       id="path632"
       inkscape:connector-curvature="0" />
    <path
       d="m 49365.001,43271.667 v -400"
       id="path634"
       inkscape:connector-curvature="0" />
    <path
       d="m 49555.001,43271.667 v -400 l 220,400 v -400"
       id="path636"
       inkscape:connector-curvature="0" />
    <path
       d="m 49900,43891.667 -30,-20 h -60 l -60,20 -40,40 -10,40 -20,70 v 60 l 20,80 10,30 40,40 60,20 h 40 l 50,-20 20,-20 v -130 h -70"
       id="path638"
       inkscape:connector-curvature="0" />
    <path
       d="m 50080,44161.667 h 190"
       id="path640"
       inkscape:connector-curvature="0" />
    <path
       d="m 50040,44271.667 130,-400 130,400"
       id="path642"
       inkscape:connector-curvature="0" />
    <path
       d="m 50380,43871.667 h 230"
       id="path644"
       inkscape:connector-curvature="0" />
    <path
       d="m 50490,44271.667 v -400"
       id="path646"
       inkscape:connector-curvature="0" />
    <path
       d="m 50740,44061.667 h 130"
       id="path648"
       inkscape:connector-curvature="0" />
    <path
       d="m 50930,44271.667 h -190 v -400 h 190"
       id="path650"
       inkscape:connector-curvature="0" />
    <path
       d="m 48283.334,46251.667 50,20 h 100 l 40,-20 20,-20 10,-40 v -30 l -10,-40 -20,-20 -40,-20 -80,-20 -40,-20 -10,-20 -20,-30 v -40 l 20,-40 10,-20 40,-20 h 100 l 50,20"
       id="path652"
       inkscape:connector-curvature="0" />
    <path
       d="m 48753.334,45871.667 h 80 l 40,20 30,40 20,70 v 140 l -20,70 -30,40 -40,20 h -80 l -40,-20 -30,-40 -20,-70 v -140 l 20,-70 30,-40 40,-20"
       id="path654"
       inkscape:connector-curvature="0" />
    <path
       d="m 49103.334,45871.667 v 320 l 10,40 20,20 40,20 h 80 l 40,-20 10,-20 20,-40 v -320"
       id="path656"
       inkscape:connector-curvature="0" />
    <path
       d="m 49743.334,46271.667 -130,-190"
       id="path658"
       inkscape:connector-curvature="0" />
    <path
       d="m 49523.334,46271.667 v -400 h 150 l 40,20 10,20 20,40 v 50 l -20,40 -10,20 -40,20 h -150"
       id="path660"
       inkscape:connector-curvature="0" />
    <path
       d="m 50143.334,46231.667 -20,20 -50,20 h -40 l -60,-20 -40,-40 -10,-30 -20,-80 v -60 l 20,-70 10,-40 40,-40 60,-20 h 40 l 50,20 20,20"
       id="path662"
       inkscape:connector-curvature="0" />
    <path
       d="m 50323.334,46061.667 h 130"
       id="path664"
       inkscape:connector-curvature="0" />
    <path
       d="m 50513.334,46271.667 h -190 v -400 h 190"
       id="path666"
       inkscape:connector-curvature="0" />
  </g>
</svg>
