M48
;DRILL file {KiCad 4.0.6} date 06/30/20 08:24:03
;FORMAT={-:-/ absolute / inch / decimal}
FMAT,2
INCH,TZ
T1C0.016
T2C0.020
T3C0.020
T4C0.024
T5C0.032
T6C0.033
T7C0.035
T8C0.039
T9C0.043
T10C0.128
T11C0.138
%
G90
G05
M72
T1
X1.6328Y-4.9988
X1.6368Y-4.9653
X1.6446Y-5.0283
X1.7588Y-4.9358
X1.7726Y-4.8511
X1.7726Y-4.9004
X1.7824Y-5.0578
X1.9596Y-4.0441
X1.9694Y-3.7094
X2.0383Y-3.3059
X2.0383Y-3.6307
X2.0679Y-4.6346
X2.1053Y-4.6346
X2.245Y-4.9889
X2.2746Y-5.0185
X2.3238Y-1.8393
X2.3238Y-1.8787
X2.4517Y-5.0677
X2.5108Y-1.8098
X2.6092Y-5.0677
T2
X1.7431Y-4.0244
X1.7431Y-4.0736
X1.7431Y-4.1228
X1.7431Y-4.172
T3
X2.5994Y-4.6248
X2.5994Y-4.7248
X2.5994Y-4.8248
X2.6994Y-4.6248
X2.6994Y-4.7248
X2.6994Y-4.8248
T5
X2.3624Y-1.5047
X2.3624Y-5.2842
X2.4624Y-1.5047
X2.4624Y-5.2842
T6
X1.7569Y-3.5716
X1.7569Y-3.7685
T7
X2.058Y-2.8826
X2.058Y-2.9826
X2.058Y-3.0826
X2.058Y-3.1826
X2.158Y-2.9326
X2.158Y-3.0326
X2.158Y-3.1326
X2.158Y-3.2326
X2.3616Y-3.5126
X2.3631Y-3.3157
X2.4616Y-3.5126
X2.4631Y-3.3157
X2.5698Y-1.5047
X2.6092Y-5.2842
X2.6698Y-1.5047
X2.7092Y-5.2842
T8
X2.4124Y-2.9614
X2.4124Y-3.0614
X2.4124Y-3.1614
X2.4124Y-3.67
X2.4124Y-3.77
X2.4124Y-3.87
T9
X1.7234Y-1.485
X1.7234Y-1.6622
X1.9793Y-1.485
X1.9793Y-1.6622
T10
X1.808Y-2.824
X1.808Y-3.2913
T11
X2.1368Y-2.4102
X2.1368Y-4.3787
X2.1761Y-1.5441
X2.1761Y-3.7881
X2.1761Y-5.2448
X2.688Y-2.4102
X2.688Y-4.3787
T4
X1.6368Y-3.5322G85X1.6643Y-3.5322
G05
X1.6643Y-3.8078G85X1.6368Y-3.8078
G05
T0
M30
