%MOIN*%
%OFA0B0*%
%FSLAX44Y44*%
%IPPOS*%
%LPD*%
%ADD10C,0*%
D10*
X00031476Y00004943D02*
X00031476Y00004943D01*
X00031475Y00004911D01*
X00031471Y00004879D01*
X00031464Y00004848D01*
X00031455Y00004817D01*
X00031443Y00004787D01*
X00031430Y00004758D01*
X00031413Y00004730D01*
X00031395Y00004704D01*
X00031374Y00004679D01*
X00031352Y00004656D01*
X00031327Y00004635D01*
X00031301Y00004616D01*
X00031274Y00004600D01*
X00031245Y00004585D01*
X00031215Y00004573D01*
X00031185Y00004563D01*
X00031153Y00004556D01*
X00031122Y00004552D01*
X00031089Y00004550D01*
X00031057Y00004550D01*
X00030683Y00004574D01*
X00030654Y00004577D01*
X00030625Y00004582D01*
X00030596Y00004590D01*
X00030568Y00004599D01*
X00030540Y00004611D01*
X00030514Y00004624D01*
X00030489Y00004640D01*
X00030465Y00004658D01*
X00030442Y00004677D01*
X00030421Y00004698D01*
X00030402Y00004720D01*
X00030384Y00004744D01*
X00030368Y00004769D01*
X00030354Y00004795D01*
X00030342Y00004822D01*
X00030332Y00004850D01*
X00030324Y00004879D01*
X00030319Y00004908D01*
X00030316Y00004937D01*
X00030314Y00004967D01*
X00030314Y00017374D01*
X00030316Y00017405D01*
X00030319Y00017436D01*
X00030326Y00017467D01*
X00030334Y00017497D01*
X00030345Y00017526D01*
X00030358Y00017554D01*
X00030373Y00017581D01*
X00030391Y00017607D01*
X00030410Y00017632D01*
X00030432Y00017654D01*
X00030455Y00017675D01*
X00030479Y00017695D01*
X00030505Y00017712D01*
X00030533Y00017727D01*
X00030561Y00017739D01*
X00030591Y00017750D01*
X00030621Y00017758D01*
X00030651Y00017764D01*
X00030682Y00017767D01*
X00030714Y00017768D01*
X00031088Y00017763D01*
X00031118Y00017761D01*
X00031149Y00017757D01*
X00031179Y00017751D01*
X00031208Y00017742D01*
X00031237Y00017731D01*
X00031264Y00017718D01*
X00031291Y00017703D01*
X00031316Y00017685D01*
X00031340Y00017666D01*
X00031362Y00017645D01*
X00031383Y00017623D01*
X00031402Y00017599D01*
X00031419Y00017573D01*
X00031434Y00017546D01*
X00031446Y00017518D01*
X00031457Y00017490D01*
X00031465Y00017460D01*
X00031471Y00017430D01*
X00031475Y00017400D01*
X00031476Y00017369D01*
X00031476Y00004943D01*
X00022814Y00004911D02*
X00022814Y00004911D01*
X00022813Y00004880D01*
X00022810Y00004850D01*
X00022804Y00004820D01*
X00022795Y00004790D01*
X00022785Y00004761D01*
X00022772Y00004733D01*
X00022757Y00004707D01*
X00022740Y00004681D01*
X00022721Y00004657D01*
X00022701Y00004634D01*
X00022678Y00004613D01*
X00022654Y00004594D01*
X00022629Y00004577D01*
X00022602Y00004562D01*
X00022574Y00004548D01*
X00022546Y00004538D01*
X00022516Y00004529D01*
X00022486Y00004523D01*
X00022456Y00004519D01*
X00022425Y00004517D01*
X00021897Y00004512D01*
X00021866Y00004513D01*
X00021835Y00004516D01*
X00021805Y00004522D01*
X00021775Y00004530D01*
X00021745Y00004540D01*
X00021717Y00004553D01*
X00021690Y00004568D01*
X00021664Y00004585D01*
X00021639Y00004604D01*
X00021616Y00004625D01*
X00021595Y00004648D01*
X00021576Y00004673D01*
X00021558Y00004698D01*
X00021543Y00004726D01*
X00021530Y00004754D01*
X00021519Y00004783D01*
X00021511Y00004813D01*
X00021504Y00004843D01*
X00021501Y00004874D01*
X00021500Y00004905D01*
X00021500Y00006499D01*
X00021487Y00006656D01*
X00021451Y00006809D01*
X00021391Y00006953D01*
X00021309Y00007087D01*
X00021207Y00007207D01*
X00021087Y00007309D01*
X00020953Y00007391D01*
X00020809Y00007451D01*
X00020656Y00007487D01*
X00020499Y00007500D01*
X00020499Y00007499D01*
X00017933Y00007499D01*
X00017903Y00007501D01*
X00017873Y00007504D01*
X00017843Y00007510D01*
X00017813Y00007518D01*
X00017785Y00007529D01*
X00017757Y00007541D01*
X00017730Y00007556D01*
X00017705Y00007573D01*
X00017680Y00007592D01*
X00017658Y00007612D01*
X00017637Y00007634D01*
X00017618Y00007658D01*
X00017600Y00007683D01*
X00017585Y00007710D01*
X00017572Y00007737D01*
X00017561Y00007766D01*
X00017552Y00007795D01*
X00017546Y00007825D01*
X00017542Y00007855D01*
X00017540Y00007885D01*
X00017532Y00008259D01*
X00017533Y00008291D01*
X00017536Y00008322D01*
X00017542Y00008353D01*
X00017550Y00008383D01*
X00017560Y00008412D01*
X00017573Y00008441D01*
X00017588Y00008469D01*
X00017605Y00008495D01*
X00017624Y00008520D01*
X00017645Y00008543D01*
X00017668Y00008564D01*
X00017692Y00008584D01*
X00017718Y00008601D01*
X00017745Y00008617D01*
X00017774Y00008630D01*
X00017803Y00008641D01*
X00017833Y00008650D01*
X00017864Y00008656D01*
X00017895Y00008660D01*
X00017926Y00008661D01*
X00020499Y00008661D01*
X00020656Y00008673D01*
X00020809Y00008710D01*
X00020953Y00008770D01*
X00021087Y00008852D01*
X00021207Y00008954D01*
X00021309Y00009073D01*
X00021391Y00009207D01*
X00021451Y00009352D01*
X00021487Y00009504D01*
X00021500Y00009661D01*
X00021500Y00011294D01*
X00021501Y00011325D01*
X00021504Y00011355D01*
X00021510Y00011385D01*
X00021519Y00011415D01*
X00021529Y00011444D01*
X00021542Y00011472D01*
X00021557Y00011499D01*
X00021574Y00011524D01*
X00021593Y00011549D01*
X00021614Y00011571D01*
X00021636Y00011592D01*
X00021660Y00011611D01*
X00021686Y00011629D01*
X00021713Y00011644D01*
X00021741Y00011657D01*
X00021769Y00011668D01*
X00021799Y00011676D01*
X00021829Y00011682D01*
X00021860Y00011686D01*
X00021890Y00011687D01*
X00022418Y00011691D01*
X00022449Y00011690D01*
X00022480Y00011687D01*
X00022510Y00011681D01*
X00022540Y00011673D01*
X00022570Y00011662D01*
X00022598Y00011649D01*
X00022625Y00011634D01*
X00022651Y00011617D01*
X00022675Y00011598D01*
X00022698Y00011577D01*
X00022719Y00011554D01*
X00022739Y00011530D01*
X00022756Y00011504D01*
X00022771Y00011477D01*
X00022784Y00011449D01*
X00022795Y00011420D01*
X00022803Y00011390D01*
X00022810Y00011359D01*
X00022813Y00011328D01*
X00022814Y00011297D01*
X00022814Y00004911D01*
X00004953Y00007499D02*
X00004953Y00007499D01*
X00004922Y00007501D01*
X00004891Y00007504D01*
X00004861Y00007511D01*
X00004831Y00007519D01*
X00004802Y00007530D01*
X00004773Y00007543D01*
X00004746Y00007558D01*
X00004721Y00007576D01*
X00004696Y00007595D01*
X00004673Y00007616D01*
X00004652Y00007639D01*
X00004633Y00007664D01*
X00004616Y00007690D01*
X00004601Y00007717D01*
X00004588Y00007746D01*
X00004578Y00007775D01*
X00004570Y00007805D01*
X00004564Y00007836D01*
X00004561Y00007866D01*
X00004560Y00007898D01*
X00004564Y00008272D01*
X00004565Y00008302D01*
X00004569Y00008333D01*
X00004576Y00008363D01*
X00004584Y00008392D01*
X00004595Y00008421D01*
X00004608Y00008449D01*
X00004623Y00008475D01*
X00004641Y00008501D01*
X00004660Y00008525D01*
X00004681Y00008547D01*
X00004703Y00008568D01*
X00004728Y00008587D01*
X00004753Y00008604D01*
X00004780Y00008619D01*
X00004808Y00008631D01*
X00004837Y00008642D01*
X00004866Y00008650D01*
X00004896Y00008656D01*
X00004927Y00008660D01*
X00004958Y00008661D01*
X00015877Y00008661D01*
X00015908Y00008660D01*
X00015939Y00008656D01*
X00015970Y00008650D01*
X00016000Y00008641D01*
X00016029Y00008630D01*
X00016057Y00008617D01*
X00016085Y00008601D01*
X00016111Y00008584D01*
X00016135Y00008564D01*
X00016158Y00008543D01*
X00016179Y00008520D01*
X00016198Y00008495D01*
X00016215Y00008469D01*
X00016230Y00008441D01*
X00016243Y00008412D01*
X00016253Y00008383D01*
X00016261Y00008353D01*
X00016266Y00008322D01*
X00016270Y00008291D01*
X00016270Y00008259D01*
X00016263Y00007885D01*
X00016261Y00007855D01*
X00016257Y00007825D01*
X00016250Y00007795D01*
X00016242Y00007766D01*
X00016231Y00007737D01*
X00016217Y00007710D01*
X00016202Y00007683D01*
X00016185Y00007658D01*
X00016166Y00007634D01*
X00016145Y00007612D01*
X00016122Y00007592D01*
X00016098Y00007573D01*
X00016072Y00007556D01*
X00016046Y00007541D01*
X00016018Y00007529D01*
X00015989Y00007518D01*
X00015960Y00007510D01*
X00015930Y00007504D01*
X00015900Y00007501D01*
X00015869Y00007499D01*
X00004953Y00007499D01*
X00004962Y00016161D02*
X00004962Y00016161D01*
X00004932Y00016162D01*
X00004902Y00016166D01*
X00004872Y00016171D01*
X00004843Y00016179D01*
X00004814Y00016190D01*
X00004787Y00016202D01*
X00004760Y00016216D01*
X00004735Y00016233D01*
X00004711Y00016251D01*
X00004688Y00016271D01*
X00004668Y00016293D01*
X00004648Y00016317D01*
X00004631Y00016341D01*
X00004616Y00016367D01*
X00004602Y00016394D01*
X00004591Y00016422D01*
X00004582Y00016451D01*
X00004575Y00016481D01*
X00004571Y00016511D01*
X00004568Y00016541D01*
X00004555Y00016915D01*
X00004556Y00016946D01*
X00004558Y00016978D01*
X00004563Y00017009D01*
X00004571Y00017040D01*
X00004581Y00017070D01*
X00004594Y00017099D01*
X00004609Y00017127D01*
X00004626Y00017153D01*
X00004645Y00017178D01*
X00004666Y00017202D01*
X00004688Y00017224D01*
X00004713Y00017244D01*
X00004739Y00017262D01*
X00004766Y00017278D01*
X00004795Y00017291D01*
X00004825Y00017302D01*
X00004855Y00017311D01*
X00004886Y00017317D01*
X00004917Y00017321D01*
X00004949Y00017322D01*
X00015922Y00017322D01*
X00015954Y00017321D01*
X00015985Y00017317D01*
X00016016Y00017311D01*
X00016047Y00017302D01*
X00016076Y00017291D01*
X00016105Y00017278D01*
X00016132Y00017262D01*
X00016158Y00017244D01*
X00016183Y00017224D01*
X00016205Y00017202D01*
X00016227Y00017178D01*
X00016246Y00017153D01*
X00016263Y00017127D01*
X00016277Y00017099D01*
X00016290Y00017070D01*
X00016300Y00017040D01*
X00016308Y00017009D01*
X00016313Y00016978D01*
X00016316Y00016946D01*
X00016316Y00016915D01*
X00016303Y00016541D01*
X00016300Y00016511D01*
X00016296Y00016481D01*
X00016289Y00016451D01*
X00016280Y00016422D01*
X00016269Y00016394D01*
X00016255Y00016367D01*
X00016240Y00016341D01*
X00016223Y00016317D01*
X00016204Y00016293D01*
X00016183Y00016271D01*
X00016160Y00016251D01*
X00016136Y00016233D01*
X00016111Y00016216D01*
X00016084Y00016202D01*
X00016057Y00016190D01*
X00016028Y00016179D01*
X00015999Y00016171D01*
X00015969Y00016166D01*
X00015939Y00016162D01*
X00015909Y00016161D01*
X00004962Y00016161D01*
X00004987Y00024822D02*
X00004987Y00024822D01*
X00004955Y00024824D01*
X00004923Y00024828D01*
X00004892Y00024834D01*
X00004861Y00024843D01*
X00004831Y00024855D01*
X00004802Y00024868D01*
X00004775Y00024885D01*
X00004748Y00024903D01*
X00004724Y00024923D01*
X00004701Y00024946D01*
X00004680Y00024970D01*
X00004661Y00024996D01*
X00004644Y00025023D01*
X00004629Y00025052D01*
X00004617Y00025081D01*
X00004607Y00025112D01*
X00004600Y00025143D01*
X00004596Y00025175D01*
X00004594Y00025207D01*
X00004594Y00025239D01*
X00004616Y00025613D01*
X00004619Y00025643D01*
X00004624Y00025672D01*
X00004631Y00025701D01*
X00004641Y00025729D01*
X00004652Y00025756D01*
X00004666Y00025783D01*
X00004681Y00025808D01*
X00004699Y00025832D01*
X00004718Y00025855D01*
X00004739Y00025876D01*
X00004761Y00025896D01*
X00004785Y00025914D01*
X00004810Y00025930D01*
X00004836Y00025944D01*
X00004864Y00025956D01*
X00004892Y00025966D01*
X00004920Y00025974D01*
X00004950Y00025979D01*
X00004979Y00025983D01*
X00005009Y00025984D01*
X00015905Y00025984D01*
X00015935Y00025983D01*
X00015964Y00025979D01*
X00015994Y00025974D01*
X00016022Y00025966D01*
X00016050Y00025956D01*
X00016078Y00025944D01*
X00016104Y00025930D01*
X00016129Y00025914D01*
X00016153Y00025896D01*
X00016175Y00025876D01*
X00016196Y00025855D01*
X00016215Y00025832D01*
X00016233Y00025808D01*
X00016248Y00025783D01*
X00016262Y00025756D01*
X00016273Y00025729D01*
X00016283Y00025701D01*
X00016290Y00025672D01*
X00016295Y00025643D01*
X00016298Y00025613D01*
X00016320Y00025239D01*
X00016320Y00025207D01*
X00016318Y00025175D01*
X00016314Y00025143D01*
X00016306Y00025112D01*
X00016297Y00025081D01*
X00016285Y00025052D01*
X00016270Y00025023D01*
X00016253Y00024996D01*
X00016234Y00024970D01*
X00016213Y00024946D01*
X00016190Y00024923D01*
X00016166Y00024903D01*
X00016139Y00024885D01*
X00016112Y00024868D01*
X00016083Y00024855D01*
X00016053Y00024843D01*
X00016022Y00024834D01*
X00015991Y00024828D01*
X00015959Y00024824D01*
X00015927Y00024822D01*
X00004987Y00024822D01*
X00002931Y00025984D02*
X00002931Y00025984D01*
X00002960Y00025983D01*
X00002990Y00025979D01*
X00003019Y00025974D01*
X00003048Y00025966D01*
X00003076Y00025956D01*
X00003103Y00025944D01*
X00003129Y00025930D01*
X00003155Y00025914D01*
X00003178Y00025896D01*
X00003201Y00025876D01*
X00003222Y00025855D01*
X00003241Y00025832D01*
X00003258Y00025808D01*
X00003274Y00025783D01*
X00003287Y00025756D01*
X00003299Y00025729D01*
X00003308Y00025701D01*
X00003316Y00025672D01*
X00003321Y00025643D01*
X00003324Y00025613D01*
X00003346Y00025239D01*
X00003346Y00025207D01*
X00003344Y00025175D01*
X00003339Y00025143D01*
X00003332Y00025112D01*
X00003322Y00025081D01*
X00003310Y00025052D01*
X00003296Y00025023D01*
X00003279Y00024996D01*
X00003260Y00024970D01*
X00003239Y00024946D01*
X00003216Y00024923D01*
X00003191Y00024903D01*
X00003165Y00024885D01*
X00003137Y00024868D01*
X00003108Y00024855D01*
X00003078Y00024843D01*
X00003048Y00024834D01*
X00003016Y00024828D01*
X00002984Y00024824D01*
X00002952Y00024822D01*
X00000999Y00024822D01*
X00000843Y00024810D01*
X00000690Y00024773D01*
X00000546Y00024713D01*
X00000412Y00024631D01*
X00000292Y00024529D01*
X00000190Y00024410D01*
X00000108Y00024276D01*
X00000048Y00024131D01*
X00000012Y00023979D01*
X00000000Y00023822D01*
X00000000Y00018322D01*
X00000012Y00018166D01*
X00000048Y00018013D01*
X00000108Y00017868D01*
X00000190Y00017735D01*
X00000292Y00017615D01*
X00000412Y00017513D01*
X00000546Y00017431D01*
X00000690Y00017371D01*
X00000843Y00017335D01*
X00000999Y00017322D01*
X00002905Y00017322D01*
X00002937Y00017321D01*
X00002968Y00017317D01*
X00002999Y00017311D01*
X00003029Y00017302D01*
X00003059Y00017291D01*
X00003088Y00017278D01*
X00003115Y00017262D01*
X00003141Y00017244D01*
X00003166Y00017224D01*
X00003188Y00017202D01*
X00003209Y00017178D01*
X00003228Y00017153D01*
X00003245Y00017127D01*
X00003260Y00017099D01*
X00003273Y00017070D01*
X00003283Y00017040D01*
X00003291Y00017009D01*
X00003296Y00016978D01*
X00003298Y00016946D01*
X00003299Y00016915D01*
X00003285Y00016541D01*
X00003283Y00016511D01*
X00003279Y00016481D01*
X00003272Y00016451D01*
X00003263Y00016422D01*
X00003252Y00016394D01*
X00003238Y00016367D01*
X00003223Y00016341D01*
X00003206Y00016317D01*
X00003186Y00016293D01*
X00003165Y00016271D01*
X00003143Y00016251D01*
X00003119Y00016233D01*
X00003094Y00016216D01*
X00003067Y00016202D01*
X00003039Y00016190D01*
X00003011Y00016179D01*
X00002982Y00016171D01*
X00002952Y00016166D01*
X00002922Y00016162D01*
X00002892Y00016161D01*
X00000999Y00016161D01*
X00000843Y00016149D01*
X00000690Y00016112D01*
X00000546Y00016052D01*
X00000412Y00015970D01*
X00000292Y00015868D01*
X00000190Y00015749D01*
X00000108Y00015615D01*
X00000048Y00015470D01*
X00000012Y00015317D01*
X00000000Y00015161D01*
X00000000Y00009661D01*
X00000012Y00009504D01*
X00000048Y00009352D01*
X00000108Y00009207D01*
X00000190Y00009073D01*
X00000292Y00008954D01*
X00000412Y00008852D01*
X00000546Y00008770D01*
X00000690Y00008710D01*
X00000843Y00008673D01*
X00000999Y00008661D01*
X00002896Y00008661D01*
X00002927Y00008660D01*
X00002958Y00008656D01*
X00002988Y00008650D01*
X00003017Y00008642D01*
X00003046Y00008631D01*
X00003074Y00008619D01*
X00003101Y00008604D01*
X00003126Y00008587D01*
X00003151Y00008568D01*
X00003173Y00008547D01*
X00003194Y00008525D01*
X00003213Y00008501D01*
X00003231Y00008475D01*
X00003246Y00008449D01*
X00003259Y00008421D01*
X00003270Y00008392D01*
X00003278Y00008363D01*
X00003285Y00008333D01*
X00003289Y00008302D01*
X00003290Y00008272D01*
X00003294Y00007898D01*
X00003293Y00007866D01*
X00003290Y00007836D01*
X00003284Y00007805D01*
X00003276Y00007775D01*
X00003266Y00007746D01*
X00003253Y00007717D01*
X00003238Y00007690D01*
X00003221Y00007664D01*
X00003202Y00007639D01*
X00003181Y00007616D01*
X00003158Y00007595D01*
X00003133Y00007576D01*
X00003108Y00007558D01*
X00003081Y00007543D01*
X00003052Y00007530D01*
X00003023Y00007519D01*
X00002993Y00007511D01*
X00002963Y00007504D01*
X00002932Y00007501D01*
X00002901Y00007499D01*
X00000999Y00007499D01*
X00000843Y00007487D01*
X00000690Y00007451D01*
X00000546Y00007391D01*
X00000412Y00007309D01*
X00000292Y00007207D01*
X00000190Y00007087D01*
X00000108Y00006953D01*
X00000048Y00006809D01*
X00000012Y00006656D01*
X00000000Y00006499D01*
X00000000Y00001000D01*
X00000012Y00000843D01*
X00000048Y00000690D01*
X00000108Y00000546D01*
X00000190Y00000412D01*
X00000292Y00000292D01*
X00000412Y00000190D01*
X00000546Y00000108D01*
X00000690Y00000048D01*
X00000843Y00000012D01*
X00000999Y00000000D01*
X00020499Y00000000D01*
X00020656Y00000012D01*
X00020809Y00000048D01*
X00020953Y00000108D01*
X00021087Y00000190D01*
X00021207Y00000292D01*
X00021309Y00000412D01*
X00021391Y00000546D01*
X00021451Y00000690D01*
X00021487Y00000843D01*
X00021500Y00001000D01*
X00021500Y00002949D01*
X00021501Y00002980D01*
X00021504Y00003011D01*
X00021511Y00003041D01*
X00021519Y00003071D01*
X00021530Y00003100D01*
X00021543Y00003128D01*
X00021558Y00003156D01*
X00021576Y00003181D01*
X00021595Y00003206D01*
X00021616Y00003228D01*
X00021639Y00003249D01*
X00021664Y00003269D01*
X00021690Y00003286D01*
X00021717Y00003301D01*
X00021745Y00003314D01*
X00021775Y00003324D01*
X00021805Y00003332D01*
X00021835Y00003338D01*
X00021866Y00003341D01*
X00021897Y00003342D01*
X00022425Y00003337D01*
X00022456Y00003335D01*
X00022486Y00003331D01*
X00022516Y00003325D01*
X00022546Y00003316D01*
X00022574Y00003306D01*
X00022602Y00003292D01*
X00022629Y00003277D01*
X00022654Y00003260D01*
X00022678Y00003241D01*
X00022701Y00003220D01*
X00022721Y00003197D01*
X00022740Y00003173D01*
X00022757Y00003147D01*
X00022772Y00003121D01*
X00022785Y00003093D01*
X00022795Y00003064D01*
X00022804Y00003034D01*
X00022810Y00003004D01*
X00022813Y00002974D01*
X00022814Y00002943D01*
X00022814Y00000999D01*
X00022827Y00000843D01*
X00022863Y00000690D01*
X00022923Y00000546D01*
X00023005Y00000412D01*
X00023107Y00000292D01*
X00023227Y00000190D01*
X00023360Y00000108D01*
X00023505Y00000048D01*
X00023658Y00000012D01*
X00023814Y00000000D01*
X00029314Y00000000D01*
X00029471Y00000012D01*
X00029623Y00000048D01*
X00029768Y00000108D01*
X00029902Y00000190D01*
X00030022Y00000292D01*
X00030123Y00000412D01*
X00030205Y00000546D01*
X00030266Y00000690D01*
X00030302Y00000843D01*
X00030314Y00000999D01*
X00030314Y00002887D01*
X00030316Y00002917D01*
X00030319Y00002946D01*
X00030324Y00002975D01*
X00030332Y00003004D01*
X00030342Y00003032D01*
X00030354Y00003059D01*
X00030368Y00003085D01*
X00030384Y00003110D01*
X00030402Y00003134D01*
X00030421Y00003156D01*
X00030442Y00003177D01*
X00030465Y00003196D01*
X00030489Y00003214D01*
X00030514Y00003229D01*
X00030540Y00003243D01*
X00030568Y00003255D01*
X00030596Y00003264D01*
X00030625Y00003272D01*
X00030654Y00003277D01*
X00030683Y00003280D01*
X00031057Y00003304D01*
X00031089Y00003304D01*
X00031122Y00003302D01*
X00031153Y00003298D01*
X00031185Y00003291D01*
X00031215Y00003281D01*
X00031245Y00003269D01*
X00031274Y00003254D01*
X00031301Y00003238D01*
X00031327Y00003219D01*
X00031352Y00003198D01*
X00031374Y00003175D01*
X00031395Y00003150D01*
X00031413Y00003124D01*
X00031430Y00003096D01*
X00031443Y00003067D01*
X00031455Y00003037D01*
X00031464Y00003006D01*
X00031471Y00002975D01*
X00031475Y00002943D01*
X00031476Y00002911D01*
X00031476Y00000999D01*
X00031488Y00000843D01*
X00031525Y00000690D01*
X00031585Y00000546D01*
X00031667Y00000412D01*
X00031769Y00000292D01*
X00031888Y00000190D01*
X00032022Y00000108D01*
X00032167Y00000048D01*
X00032319Y00000012D01*
X00032476Y00000000D01*
X00037976Y00000000D01*
X00038132Y00000012D01*
X00038285Y00000048D01*
X00038430Y00000108D01*
X00038564Y00000190D01*
X00038683Y00000292D01*
X00038785Y00000412D01*
X00038867Y00000546D01*
X00038927Y00000690D01*
X00038964Y00000843D01*
X00038976Y00000999D01*
X00038976Y00020499D01*
X00038964Y00020656D01*
X00038927Y00020809D01*
X00038867Y00020953D01*
X00038785Y00021087D01*
X00038683Y00021207D01*
X00038564Y00021309D01*
X00038430Y00021391D01*
X00038285Y00021451D01*
X00038132Y00021487D01*
X00037976Y00021500D01*
X00032476Y00021500D01*
X00032319Y00021487D01*
X00032167Y00021451D01*
X00032022Y00021391D01*
X00031888Y00021309D01*
X00031769Y00021207D01*
X00031667Y00021087D01*
X00031585Y00020953D01*
X00031525Y00020809D01*
X00031488Y00020656D01*
X00031476Y00020499D01*
X00031476Y00020499D01*
X00031476Y00019431D01*
X00031475Y00019400D01*
X00031471Y00019370D01*
X00031465Y00019340D01*
X00031457Y00019310D01*
X00031446Y00019282D01*
X00031434Y00019254D01*
X00031419Y00019227D01*
X00031402Y00019201D01*
X00031383Y00019177D01*
X00031362Y00019155D01*
X00031340Y00019134D01*
X00031316Y00019114D01*
X00031291Y00019097D01*
X00031264Y00019082D01*
X00031237Y00019069D01*
X00031208Y00019058D01*
X00031179Y00019049D01*
X00031149Y00019043D01*
X00031118Y00019039D01*
X00031088Y00019037D01*
X00030714Y00019032D01*
X00030682Y00019033D01*
X00030651Y00019036D01*
X00030621Y00019042D01*
X00030591Y00019050D01*
X00030561Y00019061D01*
X00030533Y00019073D01*
X00030505Y00019088D01*
X00030479Y00019105D01*
X00030455Y00019125D01*
X00030432Y00019146D01*
X00030410Y00019168D01*
X00030391Y00019193D01*
X00030373Y00019218D01*
X00030358Y00019246D01*
X00030345Y00019274D01*
X00030334Y00019303D01*
X00030326Y00019333D01*
X00030319Y00019364D01*
X00030316Y00019395D01*
X00030314Y00019426D01*
X00030314Y00020499D01*
X00030302Y00020656D01*
X00030266Y00020809D01*
X00030205Y00020953D01*
X00030123Y00021087D01*
X00030022Y00021207D01*
X00029902Y00021309D01*
X00029768Y00021391D01*
X00029623Y00021451D01*
X00029471Y00021487D01*
X00029314Y00021500D01*
X00023814Y00021500D01*
X00023658Y00021487D01*
X00023505Y00021451D01*
X00023360Y00021391D01*
X00023227Y00021309D01*
X00023107Y00021207D01*
X00023005Y00021087D01*
X00022923Y00020953D01*
X00022863Y00020809D01*
X00022827Y00020656D01*
X00022814Y00020499D01*
X00022814Y00020499D01*
X00022814Y00013256D01*
X00022813Y00013225D01*
X00022810Y00013194D01*
X00022803Y00013164D01*
X00022795Y00013134D01*
X00022784Y00013105D01*
X00022771Y00013077D01*
X00022756Y00013050D01*
X00022739Y00013024D01*
X00022719Y00013000D01*
X00022698Y00012977D01*
X00022675Y00012956D01*
X00022651Y00012937D01*
X00022625Y00012920D01*
X00022598Y00012904D01*
X00022570Y00012892D01*
X00022540Y00012881D01*
X00022510Y00012873D01*
X00022480Y00012867D01*
X00022449Y00012863D01*
X00022418Y00012862D01*
X00021890Y00012866D01*
X00021860Y00012867D01*
X00021829Y00012871D01*
X00021799Y00012877D01*
X00021769Y00012886D01*
X00021741Y00012897D01*
X00021713Y00012910D01*
X00021686Y00012925D01*
X00021660Y00012942D01*
X00021636Y00012961D01*
X00021614Y00012982D01*
X00021593Y00013005D01*
X00021574Y00013029D01*
X00021557Y00013055D01*
X00021542Y00013082D01*
X00021529Y00013110D01*
X00021519Y00013139D01*
X00021510Y00013168D01*
X00021504Y00013198D01*
X00021501Y00013229D01*
X00021500Y00013260D01*
X00021500Y00015161D01*
X00021487Y00015317D01*
X00021451Y00015470D01*
X00021391Y00015615D01*
X00021309Y00015749D01*
X00021207Y00015868D01*
X00021087Y00015970D01*
X00020953Y00016052D01*
X00020809Y00016112D01*
X00020656Y00016149D01*
X00020499Y00016161D01*
X00020499Y00016161D01*
X00017979Y00016161D01*
X00017949Y00016162D01*
X00017919Y00016166D01*
X00017889Y00016171D01*
X00017860Y00016179D01*
X00017832Y00016190D01*
X00017804Y00016202D01*
X00017777Y00016216D01*
X00017752Y00016233D01*
X00017728Y00016251D01*
X00017706Y00016271D01*
X00017685Y00016293D01*
X00017665Y00016317D01*
X00017648Y00016341D01*
X00017633Y00016367D01*
X00017619Y00016394D01*
X00017608Y00016422D01*
X00017599Y00016451D01*
X00017592Y00016481D01*
X00017588Y00016511D01*
X00017586Y00016541D01*
X00017572Y00016915D01*
X00017573Y00016946D01*
X00017575Y00016978D01*
X00017581Y00017009D01*
X00017588Y00017040D01*
X00017598Y00017070D01*
X00017611Y00017099D01*
X00017626Y00017127D01*
X00017643Y00017153D01*
X00017662Y00017178D01*
X00017683Y00017202D01*
X00017706Y00017224D01*
X00017730Y00017244D01*
X00017756Y00017262D01*
X00017784Y00017278D01*
X00017812Y00017291D01*
X00017842Y00017302D01*
X00017872Y00017311D01*
X00017903Y00017317D01*
X00017934Y00017321D01*
X00017966Y00017322D01*
X00020499Y00017322D01*
X00020656Y00017335D01*
X00020809Y00017371D01*
X00020953Y00017431D01*
X00021087Y00017513D01*
X00021207Y00017615D01*
X00021309Y00017735D01*
X00021391Y00017868D01*
X00021451Y00018013D01*
X00021487Y00018166D01*
X00021500Y00018322D01*
X00021500Y00023822D01*
X00021487Y00023979D01*
X00021451Y00024131D01*
X00021391Y00024276D01*
X00021309Y00024410D01*
X00021207Y00024529D01*
X00021087Y00024631D01*
X00020953Y00024713D01*
X00020809Y00024773D01*
X00020656Y00024810D01*
X00020499Y00024822D01*
X00020499Y00024822D01*
X00017961Y00024822D01*
X00017929Y00024824D01*
X00017898Y00024828D01*
X00017866Y00024834D01*
X00017835Y00024843D01*
X00017806Y00024855D01*
X00017777Y00024868D01*
X00017749Y00024885D01*
X00017723Y00024903D01*
X00017698Y00024923D01*
X00017675Y00024946D01*
X00017654Y00024970D01*
X00017635Y00024996D01*
X00017618Y00025023D01*
X00017604Y00025052D01*
X00017591Y00025081D01*
X00017582Y00025112D01*
X00017575Y00025143D01*
X00017570Y00025175D01*
X00017568Y00025207D01*
X00017568Y00025239D01*
X00017590Y00025613D01*
X00017593Y00025643D01*
X00017598Y00025672D01*
X00017605Y00025701D01*
X00017615Y00025729D01*
X00017626Y00025756D01*
X00017640Y00025783D01*
X00017656Y00025808D01*
X00017673Y00025832D01*
X00017692Y00025855D01*
X00017713Y00025876D01*
X00017735Y00025896D01*
X00017759Y00025914D01*
X00017784Y00025930D01*
X00017811Y00025944D01*
X00017838Y00025956D01*
X00017866Y00025966D01*
X00017895Y00025974D01*
X00017924Y00025979D01*
X00017953Y00025983D01*
X00017983Y00025984D01*
X00020499Y00025984D01*
X00020656Y00025996D01*
X00020809Y00026033D01*
X00020953Y00026093D01*
X00021087Y00026175D01*
X00021207Y00026277D01*
X00021309Y00026396D01*
X00021391Y00026530D01*
X00021451Y00026675D01*
X00021487Y00026827D01*
X00021500Y00026984D01*
X00021500Y00032484D01*
X00021487Y00032640D01*
X00021451Y00032793D01*
X00021391Y00032938D01*
X00021309Y00033072D01*
X00021207Y00033191D01*
X00021087Y00033293D01*
X00020953Y00033375D01*
X00020809Y00033435D01*
X00020656Y00033471D01*
X00020499Y00033484D01*
X00020499Y00033484D01*
X00000999Y00033484D01*
X00000843Y00033471D01*
X00000690Y00033435D01*
X00000546Y00033375D01*
X00000412Y00033293D01*
X00000292Y00033191D01*
X00000190Y00033072D01*
X00000108Y00032938D01*
X00000048Y00032793D01*
X00000012Y00032640D01*
X00000000Y00032484D01*
X00000000Y00026984D01*
X00000012Y00026827D01*
X00000048Y00026675D01*
X00000108Y00026530D01*
X00000190Y00026396D01*
X00000292Y00026277D01*
X00000412Y00026175D01*
X00000546Y00026093D01*
X00000690Y00026033D01*
X00000843Y00025996D01*
X00000999Y00025984D01*
X00002931Y00025984D01*
M02*