<?xml version="1.0" encoding="UTF-8" standalone="no"?>
<svg
   xmlns:dc="http://purl.org/dc/elements/1.1/"
   xmlns:cc="http://creativecommons.org/ns#"
   xmlns:rdf="http://www.w3.org/1999/02/22-rdf-syntax-ns#"
   xmlns:svg="http://www.w3.org/2000/svg"
   xmlns="http://www.w3.org/2000/svg"
   xmlns:sodipodi="http://sodipodi.sourceforge.net/DTD/sodipodi-0.dtd"
   xmlns:inkscape="http://www.inkscape.org/namespaces/inkscape"
   version="1.1"
   width="6.626860cm"
   height="2.413000cm"
   viewBox="0 0 26090 9500"
   id="svg300"
   sodipodi:docname="attiny826_LiPo V1.svg"
   inkscape:version="1.0.2-2 (e86c870879, 2021-01-15)">
  <metadata
     id="metadata306">
    <rdf:RDF>
      <cc:Work
         rdf:about="">
        <dc:format>image/svg+xml</dc:format>
        <dc:type
           rdf:resource="http://purl.org/dc/dcmitype/StillImage" />
      </cc:Work>
    </rdf:RDF>
  </metadata>
  <defs
     id="defs304" />
  <sodipodi:namedview
     pagecolor="#ffffff"
     bordercolor="#666666"
     borderopacity="1"
     objecttolerance="10"
     gridtolerance="10"
     guidetolerance="10"
     inkscape:pageopacity="0"
     inkscape:pageshadow="2"
     inkscape:window-width="1522"
     inkscape:window-height="877"
     id="namedview302"
     showgrid="false"
     inkscape:zoom="3.1789088"
     inkscape:cx="120.6524"
     inkscape:cy="-40.279403"
     inkscape:window-x="70"
     inkscape:window-y="-8"
     inkscape:window-maximized="1"
     inkscape:current-layer="svg300" />
  <title
     id="title2">SVG Picture created as project-brd.svg date 2022/05/13 17:48:29 </title>
  <desc
     id="desc4">Picture generated by PCBNEW </desc>
  <g
     style="fill:#000000; fill-opacity:1;stroke:#000000; stroke-opacity:1; stroke-linecap:round; stroke-linejoin:round;"
     transform="translate(0 0) scale(1 1)"
     id="g6" />
  <g
     id="g8"
     style="fill:#000000;fill-opacity:0;stroke:none;stroke-width:-0.0003937;stroke-linecap:round;stroke-linejoin:round;stroke-opacity:1"
     transform="translate(-819.20141,-1867.7792)" />
  <g
     style="fill:#000000;fill-opacity:0;stroke:none;stroke-width:0;stroke-linecap:round;stroke-linejoin:round;stroke-opacity:1"
     id="g10"
     transform="translate(-819.20141,-1867.7792)" />
  <g
     style="fill:#000000;fill-opacity:1;stroke:none;stroke-width:0;stroke-linecap:round;stroke-linejoin:round;stroke-opacity:1"
     id="g60"
     transform="translate(-819.20141,-1867.7792)">
    <path
       style="fill:#000000;fill-opacity:1;fill-rule:evenodd;stroke:none;stroke-width:0;stroke-linecap:round;stroke-linejoin:round;stroke-opacity:1"
       d="m 21790.7,4320.49 -3.7,-1.12 -3.4,-1.82 -2.9,-2.45 -20,-19.96 -2.5,-2.99 -1.8,-3.4 -1.1,-3.69 -0.4,-3.84 v -19.41 l 0.4,-3.84 1.1,-3.69 1.8,-3.41 2.5,-2.98 3,-2.45 3.4,-1.82 3.7,-1.12 3.8,-0.37 h 275.6 l 3.8,0.37 3.7,1.12 3.4,1.82 3,2.45 2.5,2.98 1.8,3.41 1.1,3.69 0.4,3.84 v 39.37 l -0.4,3.84 -1.1,3.69 -1.8,3.41 -2.5,2.98 -3,2.45 -3.4,1.82 -3.7,1.12 -3.8,0.38 h -255.6 z"
       id="path12" />
    <path
       style="fill:#000000;fill-opacity:1;fill-rule:evenodd;stroke:none;stroke-width:0;stroke-linecap:round;stroke-linejoin:round;stroke-opacity:1"
       d="m 22052.1,4084.74 1.9,0.28 1.9,0.47 1.8,0.65 1.8,0.83 1.6,0.99 1.6,1.15 1.4,1.3 1.3,1.43 1.2,1.55 1,1.66 0.8,1.75 0.6,1.82 0.5,1.87 0.3,1.91 0.1,1.93 v 39.37 l -0.1,1.93 -0.3,1.91 -0.5,1.88 -0.6,1.81 -0.8,1.75 -1,1.66 -1.2,1.55 -1.3,1.43 -1.4,1.3 -1.6,1.15 -1.6,0.99 -1.8,0.83 -1.8,0.65 -1.9,0.47 -1.9,0.28 -1.9,0.1 h -275.6 l -1.9,-0.1 -1.9,-0.28 -1.9,-0.47 -1.8,-0.65 -1.8,-0.83 -1.6,-0.99 -1.6,-1.15 -1.4,-1.3 -1.3,-1.43 -1.2,-1.55 -1,-1.66 -0.8,-1.75 -0.6,-1.81 -0.5,-1.88 -0.3,-1.91 -0.1,-1.93 v -39.37 l 0.1,-1.93 0.3,-1.91 0.5,-1.87 0.6,-1.82 0.8,-1.75 1,-1.66 1.2,-1.55 1.3,-1.43 1.4,-1.3 1.6,-1.15 1.6,-0.99 1.8,-0.83 1.8,-0.65 1.9,-0.47 1.9,-0.28 1.9,-0.09 h 275.6 z"
       id="path14" />
    <path
       style="fill:#000000;fill-opacity:1;fill-rule:evenodd;stroke:none;stroke-width:0;stroke-linecap:round;stroke-linejoin:round;stroke-opacity:1"
       d="m 22052.1,3927.26 1.9,0.28 1.9,0.47 1.8,0.65 1.8,0.83 1.6,0.99 1.6,1.15 1.4,1.3 1.3,1.43 1.2,1.55 1,1.66 0.8,1.75 0.6,1.82 0.5,1.87 0.3,1.91 0.1,1.93 v 39.37 l -0.1,1.93 -0.3,1.91 -0.5,1.88 -0.6,1.81 -0.8,1.75 -1,1.66 -1.2,1.55 -1.3,1.43 -1.4,1.3 -1.6,1.15 -1.6,0.99 -1.8,0.83 -1.8,0.65 -1.9,0.47 -1.9,0.28 -1.9,0.1 h -275.6 l -1.9,-0.1 -1.9,-0.28 -1.9,-0.47 -1.8,-0.65 -1.8,-0.83 -1.6,-0.99 -1.6,-1.15 -1.4,-1.3 -1.3,-1.43 -1.2,-1.55 -1,-1.66 -0.8,-1.75 -0.6,-1.81 -0.5,-1.88 -0.3,-1.91 -0.1,-1.93 v -39.37 l 0.1,-1.93 0.3,-1.91 0.5,-1.87 0.6,-1.82 0.8,-1.75 1,-1.66 1.2,-1.55 1.3,-1.43 1.4,-1.3 1.6,-1.15 1.6,-0.99 1.8,-0.83 1.8,-0.65 1.9,-0.47 1.9,-0.28 1.9,-0.09 h 275.6 z"
       id="path16" />
    <path
       style="fill:#000000;fill-opacity:1;fill-rule:evenodd;stroke:none;stroke-width:0;stroke-linecap:round;stroke-linejoin:round;stroke-opacity:1"
       d="m 22052.1,3769.78 1.9,0.28 1.9,0.47 1.8,0.65 1.8,0.83 1.6,0.99 1.6,1.15 1.4,1.3 1.3,1.43 1.2,1.55 1,1.66 0.8,1.75 0.6,1.82 0.5,1.87 0.3,1.91 0.1,1.93 v 39.37 l -0.1,1.93 -0.3,1.91 -0.5,1.87 -0.6,1.82 -0.8,1.75 -1,1.66 -1.2,1.55 -1.3,1.43 -1.4,1.3 -1.6,1.15 -1.6,0.99 -1.8,0.83 -1.8,0.65 -1.9,0.47 -1.9,0.28 -1.9,0.1 h -275.6 l -1.9,-0.1 -1.9,-0.28 -1.9,-0.47 -1.8,-0.65 -1.8,-0.83 -1.6,-0.99 -1.6,-1.15 -1.4,-1.3 -1.3,-1.43 -1.2,-1.55 -1,-1.66 -0.8,-1.75 -0.6,-1.82 -0.5,-1.87 -0.3,-1.91 -0.1,-1.93 v -39.37 l 0.1,-1.93 0.3,-1.91 0.5,-1.87 0.6,-1.82 0.8,-1.75 1,-1.66 1.2,-1.55 1.3,-1.43 1.4,-1.3 1.6,-1.15 1.6,-0.99 1.8,-0.83 1.8,-0.65 1.9,-0.47 1.9,-0.28 1.9,-0.09 h 275.6 z"
       id="path18" />
    <path
       style="fill:#000000;fill-opacity:1;fill-rule:evenodd;stroke:none;stroke-width:0;stroke-linecap:round;stroke-linejoin:round;stroke-opacity:1"
       d="m 21770.8,3690.57 -3.7,-1.12 -3.4,-1.82 -3,-2.45 -2.5,-2.98 -1.8,-3.41 -1.1,-3.69 -0.4,-3.84 v -19.4 l 0.4,-3.85 1.1,-3.69 1.8,-3.4 2.5,-2.98 20,-19.97 2.9,-2.45 3.4,-1.82 3.7,-1.12 3.9,-0.37 h 255.6 l 3.8,0.37 3.7,1.12 3.4,1.82 3,2.45 2.5,2.98 1.8,3.41 1.1,3.69 0.4,3.84 v 39.37 l -0.4,3.84 -1.1,3.69 -1.8,3.41 -2.5,2.98 -3,2.45 -3.4,1.82 -3.7,1.12 -3.8,0.38 h -275.6 z"
       id="path20" />
    <path
       style="fill:#000000;fill-opacity:1;fill-rule:evenodd;stroke:none;stroke-width:0;stroke-linecap:round;stroke-linejoin:round;stroke-opacity:1"
       d="m 21633,3552.77 -3.7,-1.12 -3.4,-1.82 -3,-2.45 -2.5,-2.98 -1.8,-3.4 -1.1,-3.69 -0.4,-3.85 v -275.59 l 0.4,-3.84 1.1,-3.69 1.8,-3.4 2.5,-2.98 3,-2.45 3.4,-1.82 3.7,-1.12 3.8,-0.38 h 39.4 l 3.8,0.38 3.7,1.12 3.4,1.82 3,2.45 2.4,2.98 1.9,3.4 1.1,3.69 0.4,3.84 v 255.63 l -0.4,3.84 -1.1,3.69 -1.9,3.41 -2.4,2.98 -20,19.96 -2.9,2.45 -3.5,1.82 -3.6,1.12 -3.9,0.38 h -19.4 z"
       id="path22" />
    <path
       style="fill:#000000;fill-opacity:1;fill-rule:evenodd;stroke:none;stroke-width:0;stroke-linecap:round;stroke-linejoin:round;stroke-opacity:1"
       d="m 21520.6,3238.28 1.9,0.29 1.9,0.47 1.8,0.65 1.8,0.82 1.6,1 1.6,1.15 1.4,1.3 1.3,1.43 1.2,1.55 1,1.65 0.8,1.75 0.6,1.82 0.5,1.87 0.3,1.91 0.1,1.93 v 275.59 l -0.1,1.93 -0.3,1.92 -0.5,1.87 -0.6,1.82 -0.8,1.74 -1,1.66 -1.2,1.55 -1.3,1.43 -1.4,1.3 -1.6,1.15 -1.6,1 -1.8,0.82 -1.8,0.65 -1.9,0.47 -1.9,0.29 -1.9,0.09 h -39.4 l -1.9,-0.09 -1.9,-0.29 -1.9,-0.47 -1.8,-0.65 -1.7,-0.82 -1.7,-1 -1.6,-1.15 -1.4,-1.3 -1.3,-1.43 -1.1,-1.55 -1,-1.66 -0.9,-1.74 -0.6,-1.82 -0.5,-1.87 -0.3,-1.92 -0.1,-1.93 v -275.59 l 0.1,-1.93 0.3,-1.91 0.5,-1.87 0.6,-1.82 0.9,-1.75 1,-1.65 1.1,-1.55 1.3,-1.43 1.4,-1.3 1.6,-1.15 1.7,-1 1.7,-0.82 1.8,-0.65 1.9,-0.47 1.9,-0.29 1.9,-0.09 h 39.4 z"
       id="path24" />
    <path
       style="fill:#000000;fill-opacity:1;fill-rule:evenodd;stroke:none;stroke-width:0;stroke-linecap:round;stroke-linejoin:round;stroke-opacity:1"
       d="m 21363.2,3238.28 1.9,0.29 1.8,0.47 1.9,0.65 1.7,0.82 1.7,1 1.5,1.15 1.4,1.3 1.3,1.43 1.2,1.55 1,1.65 0.8,1.75 0.7,1.82 0.4,1.87 0.3,1.91 0.1,1.93 v 275.59 l -0.1,1.93 -0.3,1.92 -0.4,1.87 -0.7,1.82 -0.8,1.74 -1,1.66 -1.2,1.55 -1.3,1.43 -1.4,1.3 -1.5,1.15 -1.7,1 -1.7,0.82 -1.9,0.65 -1.8,0.47 -1.9,0.29 -2,0.09 h -39.3 l -2,-0.09 -1.9,-0.29 -1.9,-0.47 -1.8,-0.65 -1.7,-0.82 -1.7,-1 -1.5,-1.15 -1.5,-1.3 -1.3,-1.43 -1.1,-1.55 -1,-1.66 -0.8,-1.74 -0.7,-1.82 -0.5,-1.87 -0.2,-1.92 -0.1,-1.93 v -275.59 l 0.1,-1.93 0.2,-1.91 0.5,-1.87 0.7,-1.82 0.8,-1.75 1,-1.65 1.1,-1.55 1.3,-1.43 1.5,-1.3 1.5,-1.15 1.7,-1 1.7,-0.82 1.8,-0.65 1.9,-0.47 1.9,-0.29 2,-0.09 h 39.3 z"
       id="path26" />
    <path
       style="fill:#000000;fill-opacity:1;fill-rule:evenodd;stroke:none;stroke-width:0;stroke-linecap:round;stroke-linejoin:round;stroke-opacity:1"
       d="m 21205.7,3238.28 1.9,0.29 1.9,0.47 1.8,0.65 1.7,0.82 1.7,1 1.5,1.15 1.5,1.3 1.3,1.43 1.1,1.55 1,1.65 0.8,1.75 0.7,1.82 0.4,1.87 0.3,1.91 0.1,1.93 v 275.59 l -0.1,1.93 -0.3,1.92 -0.4,1.87 -0.7,1.82 -0.8,1.74 -1,1.66 -1.1,1.55 -1.3,1.43 -1.5,1.3 -1.5,1.15 -1.7,1 -1.7,0.82 -1.8,0.65 -1.9,0.47 -1.9,0.29 -2,0.09 h -39.3 l -2,-0.09 -1.9,-0.29 -1.8,-0.47 -1.9,-0.65 -1.7,-0.82 -1.7,-1 -1.5,-1.15 -1.4,-1.3 -1.3,-1.43 -1.2,-1.55 -1,-1.66 -0.8,-1.74 -0.7,-1.82 -0.4,-1.87 -0.3,-1.92 -0.1,-1.93 v -275.59 l 0.1,-1.93 0.3,-1.91 0.4,-1.87 0.7,-1.82 0.8,-1.75 1,-1.65 1.2,-1.55 1.3,-1.43 1.4,-1.3 1.5,-1.15 1.7,-1 1.7,-0.82 1.9,-0.65 1.8,-0.47 1.9,-0.29 2,-0.09 h 39.3 z"
       id="path28" />
    <path
       style="fill:#000000;fill-opacity:1;fill-rule:evenodd;stroke:none;stroke-width:0;stroke-linecap:round;stroke-linejoin:round;stroke-opacity:1"
       d="m 21023,3552.77 -3.7,-1.12 -3.4,-1.82 -3,-2.45 -19.9,-19.96 -2.5,-2.98 -1.8,-3.41 -1.1,-3.69 -0.4,-3.84 v -255.63 l 0.4,-3.84 1.1,-3.69 1.8,-3.4 2.5,-2.98 3,-2.45 3.4,-1.82 3.6,-1.12 3.9,-0.38 h 39.4 l 3.8,0.38 3.7,1.12 3.4,1.82 3,2.45 2.4,2.98 1.8,3.4 1.2,3.69 0.3,3.84 v 275.59 l -0.3,3.85 -1.2,3.69 -1.8,3.4 -2.4,2.98 -3,2.45 -3.4,1.82 -3.7,1.12 -3.8,0.38 h -19.4 z"
       id="path30" />
    <path
       style="fill:#000000;fill-opacity:1;fill-rule:evenodd;stroke:none;stroke-width:0;stroke-linecap:round;stroke-linejoin:round;stroke-opacity:1"
       d="m 20629,3690.57 -3.7,-1.12 -3.4,-1.82 -2.9,-2.45 -2.5,-2.98 -1.8,-3.41 -1.1,-3.69 -0.4,-3.84 v -39.37 l 0.4,-3.84 1.1,-3.69 1.8,-3.41 2.5,-2.98 2.9,-2.45 3.4,-1.82 3.7,-1.12 3.9,-0.37 h 255.6 l 3.8,0.37 3.7,1.12 3.4,1.82 3,2.45 20,19.97 2.4,2.98 1.9,3.4 1.1,3.69 0.3,3.85 v 19.4 l -0.3,3.84 -1.1,3.69 -1.9,3.41 -2.4,2.98 -3,2.45 -3.4,1.82 -3.7,1.12 -3.8,0.38 h -275.6 z"
       id="path32" />
    <path
       style="fill:#000000;fill-opacity:1;fill-rule:evenodd;stroke:none;stroke-width:0;stroke-linecap:round;stroke-linejoin:round;stroke-opacity:1"
       d="m 20910.4,3769.78 1.9,0.28 1.9,0.47 1.8,0.65 1.7,0.83 1.7,0.99 1.6,1.15 1.4,1.3 1.3,1.43 1.1,1.55 1,1.66 0.9,1.75 0.6,1.82 0.5,1.87 0.3,1.91 v 1.93 39.37 1.93 l -0.3,1.91 -0.5,1.87 -0.6,1.82 -0.9,1.75 -1,1.66 -1.1,1.55 -1.3,1.43 -1.4,1.3 -1.6,1.15 -1.7,0.99 -1.7,0.83 -1.8,0.65 -1.9,0.47 -1.9,0.28 -1.9,0.1 h -275.6 l -2,-0.1 -1.9,-0.28 -1.8,-0.47 -1.9,-0.65 -1.7,-0.83 -1.7,-0.99 -1.5,-1.15 -1.4,-1.3 -1.3,-1.43 -1.2,-1.55 -1,-1.66 -0.8,-1.75 -0.7,-1.82 -0.4,-1.87 -0.3,-1.91 -0.1,-1.93 v -39.37 l 0.1,-1.93 0.3,-1.91 0.4,-1.87 0.7,-1.82 0.8,-1.75 1,-1.66 1.2,-1.55 1.3,-1.43 1.4,-1.3 1.5,-1.15 1.7,-0.99 1.7,-0.83 1.9,-0.65 1.8,-0.47 1.9,-0.28 2,-0.09 h 275.6 z"
       id="path34" />
    <path
       style="fill:#000000;fill-opacity:1;fill-rule:evenodd;stroke:none;stroke-width:0;stroke-linecap:round;stroke-linejoin:round;stroke-opacity:1"
       d="m 20910.4,3927.26 1.9,0.28 1.9,0.47 1.8,0.65 1.7,0.83 1.7,0.99 1.6,1.15 1.4,1.3 1.3,1.43 1.1,1.55 1,1.66 0.9,1.75 0.6,1.82 0.5,1.87 0.3,1.91 v 1.93 39.37 1.93 l -0.3,1.91 -0.5,1.88 -0.6,1.81 -0.9,1.75 -1,1.66 -1.1,1.55 -1.3,1.43 -1.4,1.3 -1.6,1.15 -1.7,0.99 -1.7,0.83 -1.8,0.65 -1.9,0.47 -1.9,0.28 -1.9,0.1 h -275.6 l -2,-0.1 -1.9,-0.28 -1.8,-0.47 -1.9,-0.65 -1.7,-0.83 -1.7,-0.99 -1.5,-1.15 -1.4,-1.3 -1.3,-1.43 -1.2,-1.55 -1,-1.66 -0.8,-1.75 -0.7,-1.81 -0.4,-1.88 -0.3,-1.91 -0.1,-1.93 v -39.37 l 0.1,-1.93 0.3,-1.91 0.4,-1.87 0.7,-1.82 0.8,-1.75 1,-1.66 1.2,-1.55 1.3,-1.43 1.4,-1.3 1.5,-1.15 1.7,-0.99 1.7,-0.83 1.9,-0.65 1.8,-0.47 1.9,-0.28 2,-0.09 h 275.6 z"
       id="path36" />
    <path
       style="fill:#000000;fill-opacity:1;fill-rule:evenodd;stroke:none;stroke-width:0;stroke-linecap:round;stroke-linejoin:round;stroke-opacity:1"
       d="m 20910.4,4084.74 1.9,0.28 1.9,0.47 1.8,0.65 1.7,0.83 1.7,0.99 1.6,1.15 1.4,1.3 1.3,1.43 1.1,1.55 1,1.66 0.9,1.75 0.6,1.82 0.5,1.87 0.3,1.91 v 1.93 39.37 1.93 l -0.3,1.91 -0.5,1.88 -0.6,1.81 -0.9,1.75 -1,1.66 -1.1,1.55 -1.3,1.43 -1.4,1.3 -1.6,1.15 -1.7,0.99 -1.7,0.83 -1.8,0.65 -1.9,0.47 -1.9,0.28 -1.9,0.1 h -275.6 l -2,-0.1 -1.9,-0.28 -1.8,-0.47 -1.9,-0.65 -1.7,-0.83 -1.7,-0.99 -1.5,-1.15 -1.4,-1.3 -1.3,-1.43 -1.2,-1.55 -1,-1.66 -0.8,-1.75 -0.7,-1.81 -0.4,-1.88 -0.3,-1.91 -0.1,-1.93 v -39.37 l 0.1,-1.93 0.3,-1.91 0.4,-1.87 0.7,-1.82 0.8,-1.75 1,-1.66 1.2,-1.55 1.3,-1.43 1.4,-1.3 1.5,-1.15 1.7,-0.99 1.7,-0.83 1.9,-0.65 1.8,-0.47 1.9,-0.28 2,-0.09 h 275.6 z"
       id="path38" />
    <path
       style="fill:#000000;fill-opacity:1;fill-rule:evenodd;stroke:none;stroke-width:0;stroke-linecap:round;stroke-linejoin:round;stroke-opacity:1"
       d="m 20629,4320.49 -3.7,-1.12 -3.4,-1.82 -2.9,-2.45 -2.5,-2.98 -1.8,-3.41 -1.1,-3.69 -0.4,-3.84 v -39.37 l 0.4,-3.84 1.1,-3.69 1.8,-3.41 2.5,-2.98 2.9,-2.45 3.4,-1.82 3.7,-1.12 3.9,-0.37 h 275.6 l 3.8,0.37 3.7,1.12 3.4,1.82 3,2.45 2.4,2.98 1.9,3.41 1.1,3.69 0.3,3.84 v 19.41 l -0.3,3.84 -1.1,3.69 -1.9,3.4 -2.4,2.99 -20,19.96 -3,2.45 -3.4,1.82 -3.7,1.12 -3.8,0.38 h -255.6 z"
       id="path40" />
    <path
       style="fill:#000000;fill-opacity:1;fill-rule:evenodd;stroke:none;stroke-width:0;stroke-linecap:round;stroke-linejoin:round;stroke-opacity:1"
       d="m 21003,4694.5 -3.6,-1.12 -3.4,-1.82 -3,-2.44 -2.5,-2.99 -1.8,-3.4 -1.1,-3.69 -0.4,-3.84 v -255.63 l 0.4,-3.84 1.1,-3.69 1.8,-3.4 2.5,-2.99 19.9,-19.96 3,-2.45 3.4,-1.82 3.7,-1.12 3.9,-0.38 h 19.4 l 3.8,0.38 3.7,1.12 3.4,1.82 3,2.45 2.4,2.98 1.8,3.4 1.2,3.7 0.3,3.84 v 275.59 l -0.3,3.84 -1.2,3.69 -1.8,3.4 -2.4,2.99 -3,2.44 -3.4,1.82 -3.7,1.12 -3.8,0.38 h -39.4 z"
       id="path42" />
    <path
       style="fill:#000000;fill-opacity:1;fill-rule:evenodd;stroke:none;stroke-width:0;stroke-linecap:round;stroke-linejoin:round;stroke-opacity:1"
       d="m 21205.7,4380.02 1.9,0.28 1.9,0.47 1.8,0.65 1.7,0.83 1.7,0.99 1.5,1.15 1.5,1.3 1.3,1.43 1.1,1.55 1,1.66 0.8,1.74 0.7,1.82 0.4,1.88 0.3,1.91 0.1,1.93 v 275.59 l -0.1,1.93 -0.3,1.91 -0.4,1.87 -0.7,1.82 -0.8,1.75 -1,1.65 -1.1,1.56 -1.3,1.43 -1.5,1.29 -1.5,1.15 -1.7,1 -1.7,0.82 -1.8,0.65 -1.9,0.47 -1.9,0.29 -2,0.09 h -39.3 l -2,-0.09 -1.9,-0.29 -1.8,-0.47 -1.9,-0.65 -1.7,-0.82 -1.7,-1 -1.5,-1.15 -1.4,-1.29 -1.3,-1.43 -1.2,-1.56 -1,-1.65 -0.8,-1.75 -0.7,-1.82 -0.4,-1.87 -0.3,-1.91 -0.1,-1.93 v -275.59 l 0.1,-1.93 0.3,-1.91 0.4,-1.88 0.7,-1.82 0.8,-1.74 1,-1.66 1.2,-1.55 1.3,-1.43 1.4,-1.3 1.5,-1.15 1.7,-0.99 1.7,-0.83 1.9,-0.65 1.8,-0.47 1.9,-0.28 2,-0.1 h 39.3 z"
       id="path44" />
    <path
       style="fill:#000000;fill-opacity:1;fill-rule:evenodd;stroke:none;stroke-width:0;stroke-linecap:round;stroke-linejoin:round;stroke-opacity:1"
       d="m 21363.2,4380.02 1.9,0.28 1.8,0.47 1.9,0.65 1.7,0.83 1.7,0.99 1.5,1.15 1.4,1.3 1.3,1.43 1.2,1.55 1,1.66 0.8,1.74 0.7,1.82 0.4,1.88 0.3,1.91 0.1,1.93 v 275.59 l -0.1,1.93 -0.3,1.91 -0.4,1.87 -0.7,1.82 -0.8,1.75 -1,1.65 -1.2,1.56 -1.3,1.43 -1.4,1.29 -1.5,1.15 -1.7,1 -1.7,0.82 -1.9,0.65 -1.8,0.47 -1.9,0.29 -2,0.09 h -39.3 l -2,-0.09 -1.9,-0.29 -1.9,-0.47 -1.8,-0.65 -1.7,-0.82 -1.7,-1 -1.5,-1.15 -1.5,-1.29 -1.3,-1.43 -1.1,-1.56 -1,-1.65 -0.8,-1.75 -0.7,-1.82 -0.5,-1.87 -0.2,-1.91 -0.1,-1.93 v -275.59 l 0.1,-1.93 0.2,-1.91 0.5,-1.88 0.7,-1.82 0.8,-1.74 1,-1.66 1.1,-1.55 1.3,-1.43 1.5,-1.3 1.5,-1.15 1.7,-0.99 1.7,-0.83 1.8,-0.65 1.9,-0.47 1.9,-0.28 2,-0.1 h 39.3 z"
       id="path46" />
    <path
       style="fill:#000000;fill-opacity:1;fill-rule:evenodd;stroke:none;stroke-width:0;stroke-linecap:round;stroke-linejoin:round;stroke-opacity:1"
       d="m 21520.6,4380.02 1.9,0.28 1.9,0.47 1.8,0.65 1.8,0.83 1.6,0.99 1.6,1.15 1.4,1.3 1.3,1.43 1.2,1.55 1,1.66 0.8,1.74 0.6,1.82 0.5,1.88 0.3,1.91 0.1,1.93 v 275.59 l -0.1,1.93 -0.3,1.91 -0.5,1.87 -0.6,1.82 -0.8,1.75 -1,1.65 -1.2,1.56 -1.3,1.43 -1.4,1.29 -1.6,1.15 -1.6,1 -1.8,0.82 -1.8,0.65 -1.9,0.47 -1.9,0.29 -1.9,0.09 h -39.4 l -1.9,-0.09 -1.9,-0.29 -1.9,-0.47 -1.8,-0.65 -1.7,-0.82 -1.7,-1 -1.6,-1.15 -1.4,-1.29 -1.3,-1.43 -1.1,-1.56 -1,-1.65 -0.9,-1.75 -0.6,-1.82 -0.5,-1.87 -0.3,-1.91 -0.1,-1.93 v -275.59 l 0.1,-1.93 0.3,-1.91 0.5,-1.88 0.6,-1.82 0.9,-1.74 1,-1.66 1.1,-1.55 1.3,-1.43 1.4,-1.3 1.6,-1.15 1.7,-0.99 1.7,-0.83 1.8,-0.65 1.9,-0.47 1.9,-0.28 1.9,-0.1 h 39.4 z"
       id="path48" />
    <path
       style="fill:#000000;fill-opacity:1;fill-rule:evenodd;stroke:none;stroke-width:0;stroke-linecap:round;stroke-linejoin:round;stroke-opacity:1"
       d="m 21633,4694.5 -3.7,-1.12 -3.4,-1.82 -3,-2.44 -2.5,-2.99 -1.8,-3.4 -1.1,-3.69 -0.4,-3.84 v -275.59 l 0.4,-3.84 1.1,-3.7 1.8,-3.4 2.5,-2.98 3,-2.45 3.4,-1.82 3.7,-1.12 3.8,-0.38 h 19.4 l 3.9,0.38 3.6,1.12 3.5,1.82 2.9,2.45 20,19.96 2.4,2.99 1.9,3.4 1.1,3.69 0.4,3.84 v 255.63 l -0.4,3.84 -1.1,3.69 -1.9,3.4 -2.4,2.99 -3,2.44 -3.4,1.82 -3.7,1.12 -3.8,0.38 h -39.4 z"
       id="path50" />
    <path
       style="fill:#000000;fill-opacity:1;fill-rule:evenodd;stroke:none;stroke-width:0;stroke-linecap:round;stroke-linejoin:round;stroke-opacity:1"
       d="m 21409.621,3830.3738 6.6,0.98 6.5,1.62 6.3,2.24 6,2.85 5.7,3.43 5.4,3.97 4.9,4.47 4.5,4.94 3.9,5.35 3.5,5.72 2.8,6.03 2.3,6.27 1.6,6.47 1,6.59 0.3,6.66 v 135.82 l -0.3,6.66 -1,6.59 -1.6,6.47 -2.3,6.27 -2.8,6.03 -3.5,5.71 -3.9,5.36 -4.5,4.93 -4.9,4.48 -5.4,3.97 -5.7,3.43 -6,2.85 -6.3,2.24 -6.5,1.62 -6.6,0.98 -6.6,0.33 h -135.9 l -6.6,-0.33 -6.6,-0.98 -6.5,-1.62 -6.2,-2.24 -6.1,-2.85 -5.7,-3.43 -5.3,-3.97 -5,-4.48 -4.5,-4.93 -3.9,-5.36 -3.4,-5.71 -2.9,-6.03 -2.2,-6.27 -1.7,-6.47 -0.9,-6.59 -0.4,-6.66 v -135.82 l 0.4,-6.66 0.9,-6.59 1.7,-6.47 2.2,-6.27 2.9,-6.03 3.4,-5.72 3.9,-5.35 4.5,-4.94 5,-4.47 5.3,-3.97 5.7,-3.43 6.1,-2.85 6.2,-2.24 6.5,-1.62 6.6,-0.98 6.6,-0.33 h 135.9 z"
       id="path52" />
  </g>
  <g
     id="g62"
     style="fill:#000000;fill-opacity:0;stroke:none;stroke-width:-0.0003937;stroke-linecap:round;stroke-linejoin:round;stroke-opacity:1"
     transform="translate(-819.20141,-1867.7792)" />
  <g
     style="fill:#000000;fill-opacity:1;stroke:none;stroke-width:0;stroke-linecap:round;stroke-linejoin:round;stroke-opacity:1"
     id="g68"
     transform="translate(-819.20141,-1867.7792)">
    <path
       style="fill:#000000;fill-opacity:1;fill-rule:evenodd;stroke:none;stroke-width:0;stroke-linecap:round;stroke-linejoin:round;stroke-opacity:1"
       d="m 3802.17,3966.54 h -354.34 v -196.85 h 354.34 z"
       id="path64" />
    <path
       style="fill:#000000;fill-opacity:1;fill-rule:evenodd;stroke:none;stroke-width:0;stroke-linecap:round;stroke-linejoin:round;stroke-opacity:1"
       d="m 3802.17,4557.09 h -354.34 v -196.85 h 354.34 z"
       id="path66" />
  </g>
  <g
     id="g70"
     style="fill:#000000;fill-opacity:0;stroke:none;stroke-width:-0.0003937;stroke-linecap:round;stroke-linejoin:round;stroke-opacity:1"
     transform="translate(-819.20141,-1867.7792)" />
  <g
     style="fill:#000000;fill-opacity:1;stroke:none;stroke-width:0;stroke-linecap:round;stroke-linejoin:round;stroke-opacity:1"
     id="g76"
     transform="translate(-819.20141,-1867.7792)">
    <path
       style="fill:#000000;fill-opacity:1;fill-rule:evenodd;stroke:none;stroke-width:0;stroke-linecap:round;stroke-linejoin:round;stroke-opacity:1"
       d="m 8172.24,5541.34 h 354.33 v 196.85 h -354.33 z"
       id="path72" />
    <path
       style="fill:#000000;fill-opacity:1;fill-rule:evenodd;stroke:none;stroke-width:0;stroke-linecap:round;stroke-linejoin:round;stroke-opacity:1"
       d="m 8172.24,4950.79 h 354.33 v 196.85 h -354.33 z"
       id="path74" />
  </g>
  <g
     id="g78"
     style="fill:#000000;fill-opacity:0;stroke:none;stroke-width:-0.0003937;stroke-linecap:round;stroke-linejoin:round;stroke-opacity:1"
     transform="translate(-819.20141,-1867.7792)" />
  <g
     style="fill:#000000;fill-opacity:1;stroke:none;stroke-width:0;stroke-linecap:round;stroke-linejoin:round;stroke-opacity:1"
     id="g84"
     transform="translate(-819.20141,-1867.7792)">
    <path
       style="fill:#000000;fill-opacity:1;fill-rule:evenodd;stroke:none;stroke-width:0;stroke-linecap:round;stroke-linejoin:round;stroke-opacity:1"
       d="m 8526.57,2391.73 h -354.33 v -196.85 h 354.33 z"
       id="path80" />
    <path
       style="fill:#000000;fill-opacity:1;fill-rule:evenodd;stroke:none;stroke-width:0;stroke-linecap:round;stroke-linejoin:round;stroke-opacity:1"
       d="m 8526.57,2982.28 h -354.33 v -196.85 h 354.33 z"
       id="path82" />
  </g>
  <g
     id="g86"
     style="fill:#000000;fill-opacity:0;stroke:none;stroke-width:-0.0003937;stroke-linecap:round;stroke-linejoin:round;stroke-opacity:1"
     transform="translate(-819.20141,-1867.7792)" />
  <g
     style="fill:#000000;fill-opacity:1;stroke:none;stroke-width:0;stroke-linecap:round;stroke-linejoin:round;stroke-opacity:1"
     id="g92"
     transform="translate(-819.20141,-1867.7792)">
    <path
       style="fill:#000000;fill-opacity:1;fill-rule:evenodd;stroke:none;stroke-width:0;stroke-linecap:round;stroke-linejoin:round;stroke-opacity:1"
       d="m 3802.17,4950.79 h -354.34 v -196.85 h 354.34 z"
       id="path88" />
    <path
       style="fill:#000000;fill-opacity:1;fill-rule:evenodd;stroke:none;stroke-width:0;stroke-linecap:round;stroke-linejoin:round;stroke-opacity:1"
       d="m 3802.17,5541.34 h -354.34 v -196.85 h 354.34 z"
       id="path90" />
  </g>
  <g
     id="g94"
     style="fill:#000000;fill-opacity:0;stroke:none;stroke-width:-0.0003937;stroke-linecap:round;stroke-linejoin:round;stroke-opacity:1"
     transform="translate(-819.20141,-1867.7792)" />
  <g
     style="fill:#000000;fill-opacity:1;stroke:none;stroke-width:0;stroke-linecap:round;stroke-linejoin:round;stroke-opacity:1"
     id="g100"
     transform="translate(-819.20141,-1867.7792)">
    <path
       style="fill:#000000;fill-opacity:1;fill-rule:evenodd;stroke:none;stroke-width:0;stroke-linecap:round;stroke-linejoin:round;stroke-opacity:1"
       d="m 19569.9,5167.32 v 354.33 H 19373 v -354.33 z"
       id="path96" />
    <path
       style="fill:#000000;fill-opacity:1;fill-rule:evenodd;stroke:none;stroke-width:0;stroke-linecap:round;stroke-linejoin:round;stroke-opacity:1"
       d="m 20160.4,5167.32 v 354.33 h -196.8 v -354.33 z"
       id="path98" />
  </g>
  <g
     id="g102"
     style="fill:#000000;fill-opacity:0;stroke:none;stroke-width:-0.0003937;stroke-linecap:round;stroke-linejoin:round;stroke-opacity:1"
     transform="translate(-819.20141,-1867.7792)" />
  <g
     style="fill:#000000;fill-opacity:1;stroke:none;stroke-width:0;stroke-linecap:round;stroke-linejoin:round;stroke-opacity:1"
     id="g108"
     transform="translate(-819.20141,-1867.7792)">
    <path
       style="fill:#000000;fill-opacity:1;fill-rule:evenodd;stroke:none;stroke-width:0;stroke-linecap:round;stroke-linejoin:round;stroke-opacity:1"
       d="M 19569.9,2214.57 V 2568.9 H 19373 v -354.33 z"
       id="path104" />
    <path
       style="fill:#000000;fill-opacity:1;fill-rule:evenodd;stroke:none;stroke-width:0;stroke-linecap:round;stroke-linejoin:round;stroke-opacity:1"
       d="m 20160.4,2214.57 v 354.33 h -196.8 v -354.33 z"
       id="path106" />
  </g>
  <g
     id="g110"
     style="fill:#000000;fill-opacity:0;stroke:none;stroke-width:-0.0003937;stroke-linecap:round;stroke-linejoin:round;stroke-opacity:1"
     transform="translate(-819.20141,-1867.7792)" />
  <g
     style="fill:#000000;fill-opacity:1;stroke:none;stroke-width:0;stroke-linecap:round;stroke-linejoin:round;stroke-opacity:1"
     id="g116"
     transform="translate(-819.20141,-1867.7792)">
    <path
       style="fill:#000000;fill-opacity:1;fill-rule:evenodd;stroke:none;stroke-width:0;stroke-linecap:round;stroke-linejoin:round;stroke-opacity:1"
       d="m 19569.9,2805.12 v 354.33 H 19373 v -354.33 z"
       id="path112" />
    <path
       style="fill:#000000;fill-opacity:1;fill-rule:evenodd;stroke:none;stroke-width:0;stroke-linecap:round;stroke-linejoin:round;stroke-opacity:1"
       d="m 20160.4,2805.12 v 354.33 h -196.8 v -354.33 z"
       id="path114" />
  </g>
  <g
     id="g118"
     style="fill:#000000;fill-opacity:0;stroke:none;stroke-width:-0.0003937;stroke-linecap:round;stroke-linejoin:round;stroke-opacity:1"
     transform="translate(-819.20141,-1867.7792)" />
  <g
     style="fill:#000000;fill-opacity:1;stroke:none;stroke-width:0;stroke-linecap:round;stroke-linejoin:round;stroke-opacity:1"
     id="g124"
     transform="translate(-819.20141,-1867.7792)">
    <path
       style="fill:#000000;fill-opacity:1;fill-rule:evenodd;stroke:none;stroke-width:0;stroke-linecap:round;stroke-linejoin:round;stroke-opacity:1"
       d="m 19569.9,3986.22 v 354.33 H 19373 v -354.33 z"
       id="path120" />
    <path
       style="fill:#000000;fill-opacity:1;fill-rule:evenodd;stroke:none;stroke-width:0;stroke-linecap:round;stroke-linejoin:round;stroke-opacity:1"
       d="m 20160.4,3986.22 v 354.33 h -196.8 v -354.33 z"
       id="path122" />
  </g>
  <g
     id="g126"
     style="fill:#000000;fill-opacity:0;stroke:none;stroke-width:-0.0003937;stroke-linecap:round;stroke-linejoin:round;stroke-opacity:1"
     transform="translate(-819.20141,-1867.7792)" />
  <g
     style="fill:#000000;fill-opacity:1;stroke:none;stroke-width:0;stroke-linecap:round;stroke-linejoin:round;stroke-opacity:1"
     id="g132"
     transform="translate(-819.20141,-1867.7792)">
    <path
       style="fill:#000000;fill-opacity:1;fill-rule:evenodd;stroke:none;stroke-width:0;stroke-linecap:round;stroke-linejoin:round;stroke-opacity:1"
       d="M 19569.9,3395.67 V 3750 H 19373 v -354.33 z"
       id="path128" />
    <path
       style="fill:#000000;fill-opacity:1;fill-rule:evenodd;stroke:none;stroke-width:0;stroke-linecap:round;stroke-linejoin:round;stroke-opacity:1"
       d="M 20160.4,3395.67 V 3750 h -196.8 v -354.33 z"
       id="path130" />
  </g>
  <g
     id="g134"
     style="fill:#000000;fill-opacity:0;stroke:none;stroke-width:-0.0003937;stroke-linecap:round;stroke-linejoin:round;stroke-opacity:1"
     transform="translate(-819.20141,-1867.7792)" />
  <g
     style="fill:#000000;fill-opacity:1;stroke:none;stroke-width:0;stroke-linecap:round;stroke-linejoin:round;stroke-opacity:1"
     id="g140"
     transform="translate(-819.20141,-1867.7792)">
    <path
       style="fill:#000000;fill-opacity:1;fill-rule:evenodd;stroke:none;stroke-width:0;stroke-linecap:round;stroke-linejoin:round;stroke-opacity:1"
       d="M 19569.9,4576.77 V 4931.1 H 19373 v -354.33 z"
       id="path136" />
    <path
       style="fill:#000000;fill-opacity:1;fill-rule:evenodd;stroke:none;stroke-width:0;stroke-linecap:round;stroke-linejoin:round;stroke-opacity:1"
       d="m 20160.4,4576.77 v 354.33 h -196.8 v -354.33 z"
       id="path138" />
  </g>
  <g
     id="g142"
     style="fill:#000000;fill-opacity:0;stroke:none;stroke-width:-0.0003937;stroke-linecap:round;stroke-linejoin:round;stroke-opacity:1"
     transform="translate(-819.20141,-1867.7792)" />
  <g
     style="fill:#000000;fill-opacity:1;stroke:none;stroke-width:0;stroke-linecap:round;stroke-linejoin:round;stroke-opacity:1"
     id="g148"
     transform="translate(-819.20141,-1867.7792)">
    <path
       style="fill:#000000;fill-opacity:1;fill-rule:evenodd;stroke:none;stroke-width:0;stroke-linecap:round;stroke-linejoin:round;stroke-opacity:1"
       d="m 21144.7,5364.17 v 354.33 h -196.9 v -354.33 z"
       id="path144" />
    <path
       style="fill:#000000;fill-opacity:1;fill-rule:evenodd;stroke:none;stroke-width:0;stroke-linecap:round;stroke-linejoin:round;stroke-opacity:1"
       d="m 21735.2,5364.17 v 354.33 h -196.8 v -354.33 z"
       id="path146" />
  </g>
  <g
     id="g150"
     style="fill:#000000;fill-opacity:0;stroke:none;stroke-width:-0.0003937;stroke-linecap:round;stroke-linejoin:round;stroke-opacity:1"
     transform="translate(-819.20141,-1867.7792)" />
  <g
     style="fill:#000000;fill-opacity:1;stroke:none;stroke-width:0;stroke-linecap:round;stroke-linejoin:round;stroke-opacity:1"
     id="g156"
     transform="translate(-819.20141,-1867.7792)">
    <path
       style="fill:#000000;fill-opacity:1;fill-rule:evenodd;stroke:none;stroke-width:0;stroke-linecap:round;stroke-linejoin:round;stroke-opacity:1"
       d="m 22424.2,5718.5 v -354.33 h 196.9 v 354.33 z"
       id="path152" />
    <path
       style="fill:#000000;fill-opacity:1;fill-rule:evenodd;stroke:none;stroke-width:0;stroke-linecap:round;stroke-linejoin:round;stroke-opacity:1"
       d="m 21833.7,5718.5 v -354.33 h 196.8 v 354.33 z"
       id="path154" />
  </g>
  <g
     id="g158"
     style="fill:#000000;fill-opacity:0;stroke:none;stroke-width:-0.0003937;stroke-linecap:round;stroke-linejoin:round;stroke-opacity:1"
     transform="translate(-819.20141,-1867.7792)" />
  <g
     style="fill:#000000;fill-opacity:1;stroke:none;stroke-width:0;stroke-linecap:round;stroke-linejoin:round;stroke-opacity:1"
     id="g164"
     transform="translate(-819.20141,-1867.7792)">
    <path
       style="fill:#000000;fill-opacity:1;fill-rule:evenodd;stroke:none;stroke-width:0;stroke-linecap:round;stroke-linejoin:round;stroke-opacity:1"
       d="M 18857.3,4448.82 H 18503 v -196.85 h 354.3 z"
       id="path160" />
    <path
       style="fill:#000000;fill-opacity:1;fill-rule:evenodd;stroke:none;stroke-width:0;stroke-linecap:round;stroke-linejoin:round;stroke-opacity:1"
       d="M 18857.3,5039.37 H 18503 v -196.85 h 354.3 z"
       id="path162" />
  </g>
  <g
     id="g166"
     style="fill:#000000;fill-opacity:0;stroke:none;stroke-width:-0.0003937;stroke-linecap:round;stroke-linejoin:round;stroke-opacity:1"
     transform="translate(-819.20141,-1867.7792)" />
  <g
     style="fill:#000000;fill-opacity:1;stroke:none;stroke-width:0;stroke-linecap:round;stroke-linejoin:round;stroke-opacity:1"
     id="g172"
     transform="translate(-819.20141,-1867.7792)">
    <path
       style="fill:#000000;fill-opacity:1;fill-rule:evenodd;stroke:none;stroke-width:0;stroke-linecap:round;stroke-linejoin:round;stroke-opacity:1"
       d="M 18857.3,3051.18 H 18503 v -196.85 h 354.3 z"
       id="path168" />
    <path
       style="fill:#000000;fill-opacity:1;fill-rule:evenodd;stroke:none;stroke-width:0;stroke-linecap:round;stroke-linejoin:round;stroke-opacity:1"
       d="M 18857.3,3641.73 H 18503 v -196.85 h 354.3 z"
       id="path170" />
  </g>
  <g
     id="g174"
     style="fill:#000000;fill-opacity:0;stroke:none;stroke-width:-0.0003937;stroke-linecap:round;stroke-linejoin:round;stroke-opacity:1"
     transform="translate(-819.20141,-1867.7792)" />
  <g
     style="fill:#000000;fill-opacity:1;stroke:none;stroke-width:0;stroke-linecap:round;stroke-linejoin:round;stroke-opacity:1"
     id="g182"
     transform="translate(-819.20141,-1867.7792)">
    <path
       style="fill:#000000;fill-opacity:1;fill-rule:evenodd;stroke:none;stroke-width:0;stroke-linecap:round;stroke-linejoin:round;stroke-opacity:1"
       d="m 23802.2,5187.01 h -984.3 v -472.44 h 984.3 z"
       id="path176" />
    <path
       style="fill:#000000;fill-opacity:1;fill-rule:evenodd;stroke:none;stroke-width:0;stroke-linecap:round;stroke-linejoin:round;stroke-opacity:1"
       d="m 23802.2,4187.01 h -984.3 v -472.44 h 984.3 z"
       id="path178" />
    <path
       style="fill:#000000;fill-opacity:1;fill-rule:evenodd;stroke:none;stroke-width:0;stroke-linecap:round;stroke-linejoin:round;stroke-opacity:1"
       d="m 23802.2,3218.5 h -984.3 v -472.44 h 984.3 z"
       id="path180" />
  </g>
  <g
     id="g184"
     style="fill:#000000;fill-opacity:0;stroke:none;stroke-width:-0.0003937;stroke-linecap:round;stroke-linejoin:round;stroke-opacity:1"
     transform="translate(-819.20141,-1867.7792)" />
  <g
     style="fill:#000000;fill-opacity:1;stroke:none;stroke-width:0;stroke-linecap:round;stroke-linejoin:round;stroke-opacity:1"
     id="g190"
     transform="translate(-819.20141,-1867.7792)">
    <path
       style="fill:#000000;fill-opacity:1;fill-rule:evenodd;stroke:none;stroke-width:0;stroke-linecap:round;stroke-linejoin:round;stroke-opacity:1"
       d="m 7168.31,2834.65 v -492.13 h 393.7 v 492.13 z"
       id="path186" />
    <path
       style="fill:#000000;fill-opacity:1;fill-rule:evenodd;stroke:none;stroke-width:0;stroke-linecap:round;stroke-linejoin:round;stroke-opacity:1"
       d="m 6380.91,2834.65 v -492.13 h 393.7 v 492.13 z"
       id="path188" />
  </g>
  <g
     id="g192"
     style="fill:#000000;fill-opacity:0;stroke:none;stroke-width:-0.0003937;stroke-linecap:round;stroke-linejoin:round;stroke-opacity:1"
     transform="translate(-819.20141,-1867.7792)" />
  <g
     style="fill:#000000;fill-opacity:1;stroke:none;stroke-width:0;stroke-linecap:round;stroke-linejoin:round;stroke-opacity:1"
     id="g198"
     transform="translate(-819.20141,-1867.7792)">
    <path
       style="fill:#000000;fill-opacity:1;fill-rule:evenodd;stroke:none;stroke-width:0;stroke-linecap:round;stroke-linejoin:round;stroke-opacity:1"
       d="m 7562.01,5000 v 492.13 h -393.7 V 5000 Z"
       id="path194" />
    <path
       style="fill:#000000;fill-opacity:1;fill-rule:evenodd;stroke:none;stroke-width:0;stroke-linecap:round;stroke-linejoin:round;stroke-opacity:1"
       d="m 6774.61,5000 v 492.13 h -393.7 V 5000 Z"
       id="path196" />
  </g>
  <g
     id="g200"
     style="fill:#000000;fill-opacity:0;stroke:none;stroke-width:-0.0003937;stroke-linecap:round;stroke-linejoin:round;stroke-opacity:1"
     transform="translate(-819.20141,-1867.7792)" />
  <g
     style="fill:#000000;fill-opacity:1;stroke:none;stroke-width:0;stroke-linecap:round;stroke-linejoin:round;stroke-opacity:1"
     id="g216"
     transform="translate(-819.20141,-1867.7792)">
    <path
       style="fill:#000000;fill-opacity:1;fill-rule:evenodd;stroke:none;stroke-width:0;stroke-linecap:round;stroke-linejoin:round;stroke-opacity:1"
       d="m 1144.69,4064.96 h 748.03 v 590.55 h -748.03 z"
       id="path202" />
    <path
       style="fill:#000000;fill-opacity:1;fill-rule:evenodd;stroke:none;stroke-width:0;stroke-linecap:round;stroke-linejoin:round;stroke-opacity:1"
       d="m 2315.94,3631.89 h 531.5 v 157.48 h -531.5 z"
       id="path204" />
    <path
       style="fill:#000000;fill-opacity:1;fill-rule:evenodd;stroke:none;stroke-width:0;stroke-linecap:round;stroke-linejoin:round;stroke-opacity:1"
       d="m 2315.94,3375.98 h 531.5 v 157.48 h -531.5 z"
       id="path206" />
    <path
       style="fill:#000000;fill-opacity:1;fill-rule:evenodd;stroke:none;stroke-width:0;stroke-linecap:round;stroke-linejoin:round;stroke-opacity:1"
       d="m 2315.94,4399.61 h 531.5 v 157.48 h -531.5 z"
       id="path208" />
    <path
       style="fill:#000000;fill-opacity:1;fill-rule:evenodd;stroke:none;stroke-width:0;stroke-linecap:round;stroke-linejoin:round;stroke-opacity:1"
       d="m 2315.94,4143.7 h 531.5 v 157.48 h -531.5 z"
       id="path210" />
    <path
       style="fill:#000000;fill-opacity:1;fill-rule:evenodd;stroke:none;stroke-width:0;stroke-linecap:round;stroke-linejoin:round;stroke-opacity:1"
       d="m 2315.94,3887.8 h 531.5 v 157.48 h -531.5 z"
       id="path212" />
    <path
       style="fill:#000000;fill-opacity:1;fill-rule:evenodd;stroke:none;stroke-width:0;stroke-linecap:round;stroke-linejoin:round;stroke-opacity:1"
       d="m 1144.69,3277.56 h 748.03 v 590.55 h -748.03 z"
       id="path214" />
  </g>
  <g
     id="g218"
     style="fill:#000000;fill-opacity:0;stroke:none;stroke-width:-0.0003937;stroke-linecap:round;stroke-linejoin:round;stroke-opacity:1"
     transform="translate(-819.20141,-1867.7792)" />
  <g
     style="fill:#000000;fill-opacity:1;stroke:none;stroke-width:0;stroke-linecap:round;stroke-linejoin:round;stroke-opacity:1"
     id="g224"
     transform="translate(-819.20141,-1867.7792)">
    <path
       style="fill:#000000;fill-opacity:1;fill-rule:evenodd;stroke:none;stroke-width:0;stroke-linecap:round;stroke-linejoin:round;stroke-opacity:1"
       d="m 21932.1,2145.67 v 492.13 h -393.7 v -492.13 z"
       id="path220" />
    <path
       style="fill:#000000;fill-opacity:1;fill-rule:evenodd;stroke:none;stroke-width:0;stroke-linecap:round;stroke-linejoin:round;stroke-opacity:1"
       d="M 21144.7,2145.67 V 2637.8 H 20751 v -492.13 z"
       id="path222" />
  </g>
  <g
     id="g226"
     style="fill:#000000;fill-opacity:0;stroke:none;stroke-width:-0.0003937;stroke-linecap:round;stroke-linejoin:round;stroke-opacity:1"
     transform="translate(-819.20141,-1867.7792)" />
  <g
     style="fill:#000000;fill-opacity:1;stroke:none;stroke-width:0;stroke-linecap:round;stroke-linejoin:round;stroke-opacity:1"
     id="g232"
     transform="translate(-819.20141,-1867.7792)">
    <path
       style="fill:#000000;fill-opacity:1;fill-rule:evenodd;stroke:none;stroke-width:0;stroke-linecap:round;stroke-linejoin:round;stroke-opacity:1"
       d="m 22375,3612.21 h 295.3 v 314.96 H 22375 Z"
       id="path228" />
    <path
       style="fill:#000000;fill-opacity:1;fill-rule:evenodd;stroke:none;stroke-width:0;stroke-linecap:round;stroke-linejoin:round;stroke-opacity:1"
       d="m 22375,3021.65 h 295.3 v 314.96 H 22375 Z"
       id="path230" />
  </g>
  <g
     id="g234"
     style="fill:#000000;fill-opacity:0;stroke:none;stroke-width:-0.0003937;stroke-linecap:round;stroke-linejoin:round;stroke-opacity:1"
     transform="translate(-819.20141,-1867.7792)" />
  <g
     id="g236"
     style="fill:#000000;fill-opacity:0;stroke:none;stroke-width:-0.0003937;stroke-linecap:round;stroke-linejoin:round;stroke-opacity:1"
     transform="translate(-819.20141,-1867.7792)" />
  <g
     id="g238"
     style="fill:#000000;fill-opacity:0;stroke:none;stroke-width:-0.0003937;stroke-linecap:round;stroke-linejoin:round;stroke-opacity:1"
     transform="translate(-819.20141,-1867.7792)" />
  <g
     id="g240"
     style="fill:#000000;fill-opacity:0;stroke:none;stroke-width:-0.0003937;stroke-linecap:round;stroke-linejoin:round;stroke-opacity:1"
     transform="translate(-819.20141,-1867.7792)" />
  <g
     id="g242"
     style="fill:#000000;fill-opacity:0;stroke:none;stroke-width:-0.0003937;stroke-linecap:round;stroke-linejoin:round;stroke-opacity:1"
     transform="translate(-819.20141,-1867.7792)" />
  <g
     id="g244"
     style="fill:#000000;fill-opacity:0;stroke:none;stroke-width:-0.0003937;stroke-linecap:round;stroke-linejoin:round;stroke-opacity:1"
     transform="translate(-819.20141,-1867.7792)" />
  <g
     id="g246"
     style="fill:#000000;fill-opacity:0;stroke:none;stroke-width:-0.0003937;stroke-linecap:round;stroke-linejoin:round;stroke-opacity:1"
     transform="translate(-819.20141,-1867.7792)" />
  <g
     id="g248"
     style="fill:#000000;fill-opacity:0;stroke:none;stroke-width:-0.0003937;stroke-linecap:round;stroke-linejoin:round;stroke-opacity:1"
     transform="translate(-819.20141,-1867.7792)" />
  <g
     id="g250"
     style="fill:#000000;fill-opacity:0;stroke:none;stroke-width:-0.0003937;stroke-linecap:round;stroke-linejoin:round;stroke-opacity:1"
     transform="translate(-819.20141,-1867.7792)" />
  <g
     style="fill:#000000;fill-opacity:1;stroke:none;stroke-width:0;stroke-linecap:round;stroke-linejoin:round;stroke-opacity:1"
     id="g272"
     transform="translate(-819.20141,-1867.7792)">
    <path
       style="fill:#000000;fill-opacity:1;fill-rule:evenodd;stroke:none;stroke-width:0;stroke-linecap:round;stroke-linejoin:round;stroke-opacity:1"
       d="m 6223.43,3631.89 v -118.11 h 551.18 v 118.11 z"
       id="path252" />
    <path
       style="fill:#000000;fill-opacity:1;fill-rule:evenodd;stroke:none;stroke-width:0;stroke-linecap:round;stroke-linejoin:round;stroke-opacity:1"
       d="m 6223.43,3828.74 v -118.11 h 551.18 v 118.11 z"
       id="path254" />
    <path
       style="fill:#000000;fill-opacity:1;fill-rule:evenodd;stroke:none;stroke-width:0;stroke-linecap:round;stroke-linejoin:round;stroke-opacity:1"
       d="m 6223.43,4025.59 v -118.11 h 551.18 v 118.11 z"
       id="path256" />
    <path
       style="fill:#000000;fill-opacity:1;fill-rule:evenodd;stroke:none;stroke-width:0;stroke-linecap:round;stroke-linejoin:round;stroke-opacity:1"
       d="m 6223.43,4222.44 v -118.11 h 551.18 v 118.11 z"
       id="path258" />
    <path
       style="fill:#000000;fill-opacity:1;fill-rule:evenodd;stroke:none;stroke-width:0;stroke-linecap:round;stroke-linejoin:round;stroke-opacity:1"
       d="m 6223.43,4419.29 v -118.11 h 551.18 v 118.11 z"
       id="path260" />
    <path
       style="fill:#000000;fill-opacity:1;fill-rule:evenodd;stroke:none;stroke-width:0;stroke-linecap:round;stroke-linejoin:round;stroke-opacity:1"
       d="m 7955.71,4419.29 v -118.11 h 551.18 v 118.11 z"
       id="path262" />
    <path
       style="fill:#000000;fill-opacity:1;fill-rule:evenodd;stroke:none;stroke-width:0;stroke-linecap:round;stroke-linejoin:round;stroke-opacity:1"
       d="m 7955.71,4222.44 v -118.11 h 551.18 v 118.11 z"
       id="path264" />
    <path
       style="fill:#000000;fill-opacity:1;fill-rule:evenodd;stroke:none;stroke-width:0;stroke-linecap:round;stroke-linejoin:round;stroke-opacity:1"
       d="m 7955.71,4025.59 v -118.11 h 551.18 v 118.11 z"
       id="path266" />
    <path
       style="fill:#000000;fill-opacity:1;fill-rule:evenodd;stroke:none;stroke-width:0;stroke-linecap:round;stroke-linejoin:round;stroke-opacity:1"
       d="m 7955.71,3828.74 v -118.11 h 551.18 v 118.11 z"
       id="path268" />
    <path
       style="fill:#000000;fill-opacity:1;fill-rule:evenodd;stroke:none;stroke-width:0;stroke-linecap:round;stroke-linejoin:round;stroke-opacity:1"
       d="m 7955.71,3631.89 v -118.11 h 551.18 v 118.11 z"
       id="path270" />
  </g>
  <g
     id="g274"
     style="fill:#000000;fill-opacity:0;stroke:none;stroke-width:-0.0003937;stroke-linecap:round;stroke-linejoin:round;stroke-opacity:1"
     transform="translate(-819.20141,-1867.7792)" />
  <g
     style="fill:#000000;fill-opacity:1;stroke:none;stroke-width:0;stroke-linecap:round;stroke-linejoin:round;stroke-opacity:1"
     id="g280"
     transform="translate(-819.20141,-1867.7792)">
    <path
       style="fill:#000000;fill-opacity:1;fill-rule:evenodd;stroke:none;stroke-width:0;stroke-linecap:round;stroke-linejoin:round;stroke-opacity:1"
       d="m 5871.12,2313.45 9.31,1.39 9.14,2.28 8.87,3.18 8.51,4.02 8.08,4.85 7.56,5.61 6.98,6.32 6.32,6.98 5.61,7.56 4.85,8.08 4.02,8.51 3.17,8.87 2.29,9.14 1.38,9.31 0.47,9.41 v 359.25 l -0.47,9.41 -1.38,9.31 -2.29,9.14 -3.17,8.86 -4.02,8.52 -4.85,8.07 -5.61,7.57 -6.32,6.98 -6.98,6.32 -7.56,5.61 -8.08,4.84 -8.51,4.03 -8.87,3.17 -9.14,2.29 -9.31,1.38 -9.41,0.46 h -191.93 l -9.4,-0.46 -9.32,-1.38 -9.13,-2.29 -8.87,-3.17 -8.51,-4.03 -8.08,-4.84 -7.57,-5.61 -6.97,-6.32 -6.33,-6.98 -5.61,-7.57 -4.84,-8.07 -4.03,-8.52 -3.17,-8.86 -2.29,-9.14 -1.38,-9.31 -0.46,-9.41 v -359.25 l 0.46,-9.41 1.38,-9.31 2.29,-9.14 3.17,-8.87 4.03,-8.51 4.84,-8.08 5.61,-7.56 6.33,-6.98 6.97,-6.32 7.57,-5.61 8.08,-4.85 8.51,-4.02 8.87,-3.18 9.13,-2.28 9.32,-1.39 9.4,-0.46 h 191.93 z"
       id="path276" />
    <path
       style="fill:#000000;fill-opacity:1;fill-rule:evenodd;stroke:none;stroke-width:0;stroke-linecap:round;stroke-linejoin:round;stroke-opacity:1"
       d="m 5132.93,2313.45 9.32,1.39 9.13,2.28 8.87,3.18 8.51,4.02 8.08,4.85 7.56,5.61 6.98,6.32 6.33,6.98 5.61,7.56 4.84,8.08 4.02,8.51 3.18,8.87 2.28,9.14 1.39,9.31 0.46,9.41 v 359.25 l -0.46,9.41 -1.39,9.31 -2.28,9.14 -3.18,8.86 -4.02,8.52 -4.84,8.07 -5.61,7.57 -6.33,6.98 -6.98,6.32 -7.56,5.61 -8.08,4.84 -8.51,4.03 -8.87,3.17 -9.13,2.29 -9.32,1.38 -9.41,0.46 h -191.93 l -9.4,-0.46 -9.32,-1.38 -9.13,-2.29 -8.87,-3.17 -8.51,-4.03 -8.08,-4.84 -7.56,-5.61 -6.98,-6.32 -6.33,-6.98 -5.61,-7.57 -4.84,-8.07 -4.03,-8.52 -3.17,-8.86 -2.29,-9.14 -1.38,-9.31 -0.46,-9.41 v -359.25 l 0.46,-9.41 1.38,-9.31 2.29,-9.14 3.17,-8.87 4.03,-8.51 4.84,-8.08 5.61,-7.56 6.33,-6.98 6.98,-6.32 7.56,-5.61 8.08,-4.85 8.51,-4.02 8.87,-3.18 9.13,-2.28 9.32,-1.39 9.4,-0.46 h 191.93 z"
       id="path278" />
  </g>
  <g
     id="g282"
     style="fill:#000000;fill-opacity:0;stroke:none;stroke-width:-0.0003937;stroke-linecap:round;stroke-linejoin:round;stroke-opacity:1"
     transform="translate(-819.20141,-1867.7792)" />
  <g
     style="fill:#000000;fill-opacity:1;stroke:none;stroke-width:0;stroke-linecap:round;stroke-linejoin:round;stroke-opacity:1"
     id="g288"
     transform="translate(-819.20141,-1867.7792)">
    <path
       style="fill:#000000;fill-opacity:1;fill-rule:evenodd;stroke:none;stroke-width:0;stroke-linecap:round;stroke-linejoin:round;stroke-opacity:1"
       d="m 3558.13,2313.45 9.31,1.39 9.14,2.28 8.86,3.18 8.52,4.02 8.08,4.85 7.56,5.61 6.98,6.32 6.32,6.98 5.61,7.56 4.84,8.08 4.03,8.51 3.17,8.87 2.29,9.14 1.38,9.31 0.47,9.41 v 359.25 l -0.47,9.41 -1.38,9.31 -2.29,9.14 -3.17,8.86 -4.03,8.52 -4.84,8.07 -5.61,7.57 -6.32,6.98 -6.98,6.32 -7.56,5.61 -8.08,4.84 -8.52,4.03 -8.86,3.17 -9.14,2.29 -9.31,1.38 -9.41,0.46 h -191.93 l -9.4,-0.46 -9.32,-1.38 -9.14,-2.29 -8.86,-3.17 -8.52,-4.03 -8.07,-4.84 -7.57,-5.61 -6.98,-6.32 -6.32,-6.98 -5.61,-7.57 -4.84,-8.07 -4.03,-8.52 -3.17,-8.86 -2.29,-9.14 -1.38,-9.31 -0.46,-9.41 v -359.25 l 0.46,-9.41 1.38,-9.31 2.29,-9.14 3.17,-8.87 4.03,-8.51 4.84,-8.08 5.61,-7.56 6.32,-6.98 6.98,-6.32 7.57,-5.61 8.07,-4.85 8.52,-4.02 8.86,-3.18 9.14,-2.28 9.32,-1.39 9.4,-0.46 h 191.93 z"
       id="path284" />
    <path
       style="fill:#000000;fill-opacity:1;fill-rule:evenodd;stroke:none;stroke-width:0;stroke-linecap:round;stroke-linejoin:round;stroke-opacity:1"
       d="m 4296.32,2313.45 9.31,1.39 9.14,2.28 8.86,3.18 8.52,4.02 8.07,4.85 7.57,5.61 6.98,6.32 6.32,6.98 5.61,7.56 4.84,8.08 4.03,8.51 3.17,8.87 2.29,9.14 1.38,9.31 0.46,9.41 v 359.25 l -0.46,9.41 -1.38,9.31 -2.29,9.14 -3.17,8.86 -4.03,8.52 -4.84,8.07 -5.61,7.57 -6.32,6.98 -6.98,6.32 -7.57,5.61 -8.07,4.84 -8.52,4.03 -8.86,3.17 -9.14,2.29 -9.31,1.38 -9.41,0.46 h -191.93 l -9.41,-0.46 -9.31,-1.38 -9.14,-2.29 -8.86,-3.17 -8.52,-4.03 -8.07,-4.84 -7.57,-5.61 -6.98,-6.32 -6.32,-6.98 -5.61,-7.57 -4.84,-8.07 -4.03,-8.52 -3.17,-8.86 -2.29,-9.14 -1.38,-9.31 -0.46,-9.41 v -359.25 l 0.46,-9.41 1.38,-9.31 2.29,-9.14 3.17,-8.87 4.03,-8.51 4.84,-8.08 5.61,-7.56 6.32,-6.98 6.98,-6.32 7.57,-5.61 8.07,-4.85 8.52,-4.02 8.86,-3.18 9.14,-2.28 9.31,-1.39 9.41,-0.46 h 191.93 z"
       id="path286" />
  </g>
  <g
     id="g290"
     style="fill:#000000;fill-opacity:0;stroke:none;stroke-width:-0.0003937;stroke-linecap:round;stroke-linejoin:round;stroke-opacity:1"
     transform="translate(-819.20141,-1867.7792)" />
  <g
     id="g292"
     style="fill:#000000;fill-opacity:0;stroke:none;stroke-width:-0.0003937;stroke-linecap:round;stroke-linejoin:round;stroke-opacity:1"
     transform="translate(-819.20141,-1867.7792)" />
  <g
     id="g294"
     style="fill:#000000;fill-opacity:0;stroke:none;stroke-width:-0.0003937;stroke-linecap:round;stroke-linejoin:round;stroke-opacity:1"
     transform="translate(-819.20141,-1867.7792)" />
  <g
     id="g296"
     style="fill:#000000;fill-opacity:0;stroke:none;stroke-width:-0.0003937;stroke-linecap:round;stroke-linejoin:round;stroke-opacity:1"
     transform="translate(-819.20141,-1867.7792)" />
  <text
     xml:space="preserve"
     style="font-weight:bold;font-stretch:condensed;font-size:1388.89px;line-height:0;font-family:Arial;-inkscape-font-specification:'Arial Bold Condensed';text-align:end;text-anchor:end;fill:#000000;stroke:none;stroke-width:104.167;stroke-linecap:round"
     x="14581.785"
     y="5111.8169"
     id="text1133"><tspan
       sodipodi:role="line"
       id="tspan1131"
       x="14581.785"
       y="5111.8169"
       style="font-size:555.556px;stroke:none;stroke-width:104.167">attiny826_LiPo V1</tspan></text>
</svg>
