<?xml version="1.0" standalone="no"?>
 <!DOCTYPE svg PUBLIC "-//W3C//DTD SVG 1.1//EN" 
 "http://www.w3.org/Graphics/SVG/1.1/DTD/svg11.dtd"> 
<svg xmlns="http://www.w3.org/2000/svg" version="1.1" 
    width="27.94cm" height="21.59cm" viewBox="0 0 109999 84999 ">
<title>SVG Picture created as JouleThief.svg date 2014/06/28 18:11:23 </title>
  <desc>Picture generated by Eeschema-SVG </desc>
<g style="fill:#000000; fill-opacity:1;stroke:#000000; stroke-opacity:1;
stroke-linecap:round; stroke-linejoin:round; "
 transform="translate(0 0) scale(1 1)">
</g>
<g style="fill:#9F0000; fill-opacity:0.0; 
stroke:#9F0000; stroke-width:100; stroke-opacity:1; 
stroke-linecap:round; stroke-linejoin:round;">
<path d="M4000 4000
L106000 4000
L106000 81000
L4000 81000
L4000 4000
" />
<path d="M4700 4700
L105300 4700
L105300 80300
L4700 80300
L4700 4700
" />
<path d="M24400 4000
L24400 4700
" />
<path d="M14340 4550
L14060 4550
" />
<path d="M14200 4550
L14200 4050
L14150 4120
L14100 4170
L14060 4200
" />
<path d="M24400 81000
L24400 80300
" />
<path d="M14340 80850
L14060 80850
" />
<path d="M14200 80850
L14200 80350
L14150 80420
L14100 80470
L14060 80500
" />
<path d="M44800 4000
L44800 4700
" />
<path d="M34460 4100
L34480 4080
L34530 4050
L34650 4050
L34690 4080
L34720 4100
L34740 4150
L34740 4200
L34720 4270
L34430 4550
L34740 4550
" />
<path d="M44800 81000
L44800 80300
" />
<path d="M34460 80400
L34480 80380
L34530 80350
L34650 80350
L34690 80380
L34720 80400
L34740 80450
L34740 80500
L34720 80570
L34430 80850
L34740 80850
" />
<path d="M65200 4000
L65200 4700
" />
<path d="M54830 4050
L55140 4050
L54970 4240
L55050 4240
L55090 4270
L55120 4290
L55140 4340
L55140 4460
L55120 4500
L55090 4530
L55050 4550
L54900 4550
L54860 4530
L54830 4500
" />
<path d="M65200 81000
L65200 80300
" />
<path d="M54830 80350
L55140 80350
L54970 80540
L55050 80540
L55090 80570
L55120 80590
L55140 80640
L55140 80760
L55120 80800
L55090 80830
L55050 80850
L54900 80850
L54860 80830
L54830 80800
" />
<path d="M85600 4000
L85600 4700
" />
<path d="M75490 4220
L75490 4550
" />
<path d="M75370 4030
L75260 4390
L75560 4390
" />
<path d="M85600 81000
L85600 80300
" />
<path d="M75490 80520
L75490 80850
" />
<path d="M75370 80330
L75260 80690
L75560 80690
" />
<path d="M95920 4050
L95680 4050
L95660 4290
L95680 4270
L95730 4240
L95850 4240
L95890 4270
L95920 4290
L95940 4340
L95940 4460
L95920 4500
L95890 4530
L95850 4550
L95730 4550
L95680 4530
L95660 4500
" />
<path d="M95920 80350
L95680 80350
L95660 80590
L95680 80570
L95730 80540
L95850 80540
L95890 80570
L95920 80590
L95940 80640
L95940 80760
L95920 80800
L95890 80830
L95850 80850
L95730 80850
L95680 80830
L95660 80800
" />
<path d="M4000 29660
L4700 29660
" />
<path d="M4240 16890
L4470 16890
" />
<path d="M4190 17030
L4350 16530
L4520 17030
" />
<path d="M106000 29660
L105300 29660
" />
<path d="M105540 16890
L105770 16890
" />
<path d="M105490 17030
L105650 16530
L105820 17030
" />
<path d="M4000 55320
L4700 55320
" />
<path d="M4390 42430
L4460 42450
L4480 42480
L4500 42530
L4500 42600
L4480 42640
L4460 42670
L4410 42690
L4220 42690
L4220 42190
L4390 42190
L4430 42220
L4460 42240
L4480 42290
L4480 42340
L4460 42380
L4430 42410
L4390 42430
L4220 42430
" />
<path d="M106000 55320
L105300 55320
" />
<path d="M105690 42430
L105760 42450
L105780 42480
L105800 42530
L105800 42600
L105780 42640
L105760 42670
L105710 42690
L105520 42690
L105520 42190
L105690 42190
L105730 42220
L105760 42240
L105780 42290
L105780 42340
L105760 42380
L105730 42410
L105690 42430
L105520 42430
" />
<path d="M4500 68300
L4480 68330
L4410 68350
L4360 68350
L4290 68330
L4240 68280
L4220 68230
L4200 68140
L4200 68070
L4220 67970
L4240 67920
L4290 67880
L4360 67850
L4410 67850
L4480 67880
L4500 67900
" />
<path d="M105800 68300
L105780 68330
L105710 68350
L105660 68350
L105590 68330
L105540 68280
L105520 68230
L105500 68140
L105500 68070
L105520 67970
L105540 67920
L105590 67880
L105660 67850
L105710 67850
L105780 67880
L105800 67900
" />
<path d="M72450 78740
L72520 78140
L72670 78140
L72750 78170
L72800 78230
L72820 78290
L72840 78400
L72830 78490
L72790 78600
L72750 78660
L72680 78710
L72600 78740
L72450 78740
" />
<path d="M73310 78740
L73350 78430
L73320 78370
L73270 78340
L73160 78340
L73090 78370
" />
<path d="M73310 78710
L73250 78740
L73110 78740
L73050 78710
L73030 78660
L73040 78600
L73070 78540
L73140 78510
L73280 78510
L73340 78490
" />
<path d="M73560 78340
L73790 78340
" />
<path d="M73660 78140
L73600 78660
L73620 78710
L73680 78740
L73740 78740
" />
<path d="M74160 78710
L74100 78740
L73990 78740
L73930 78710
L73910 78660
L73940 78430
L73970 78370
L74040 78340
L74150 78340
L74200 78370
L74230 78430
L74220 78490
L73920 78540
" />
<path d="M74440 78690
L74470 78710
L74440 78740
L74410 78710
L74440 78690
L74440 78740
" />
<path d="M74480 78370
L74510 78400
L74480 78430
L74450 78400
L74480 78370
L74480 78430
" />
<path d="M75230 78200
L75260 78170
L75320 78140
L75460 78140
L75520 78170
L75550 78200
L75570 78260
L75560 78310
L75520 78400
L75140 78740
L75510 78740
" />
<path d="M75790 78740
L75910 78740
L75960 78710
L75990 78690
L76070 78600
L76110 78490
L76140 78260
L76120 78200
L76090 78170
L76030 78140
L75920 78140
L75860 78170
L75830 78200
L75790 78260
L75770 78400
L75790 78460
L75820 78490
L75880 78510
L75990 78510
L76050 78490
L76080 78460
L76120 78400
" />
<path d="M76790 78740
L76840 78340
" />
<path d="M76830 78400
L76860 78370
L76930 78340
L77010 78340
L77060 78370
L77090 78430
L77050 78740
" />
<path d="M77090 78430
L77120 78370
L77190 78340
L77270 78340
L77320 78370
L77350 78430
L77310 78740
" />
<path d="M77850 78740
L77890 78430
L77860 78370
L77810 78340
L77700 78340
L77630 78370
" />
<path d="M77850 78710
L77790 78740
L77650 78740
L77590 78710
L77570 78660
L77580 78600
L77610 78540
L77680 78510
L77820 78510
L77880 78490
" />
<path d="M78130 78340
L78220 78740
" />
<path d="M78410 78340
L78220 78740
L78140 78890
L78110 78910
L78050 78940
" />
<path d="M79090 78200
L79120 78170
L79180 78140
L79320 78140
L79380 78170
L79410 78200
L79430 78260
L79420 78310
L79380 78400
L79000 78740
L79370 78740
" />
<path d="M79810 78140
L79860 78140
L79920 78170
L79950 78200
L79970 78260
L79980 78370
L79970 78510
L79920 78630
L79880 78690
L79850 78710
L79790 78740
L79740 78740
L79680 78710
L79650 78690
L79630 78630
L79620 78510
L79630 78370
L79680 78260
L79720 78200
L79750 78170
L79810 78140
" />
<path d="M80510 78740
L80160 78740
" />
<path d="M80340 78740
L80410 78140
L80340 78230
L80270 78290
L80210 78310
" />
<path d="M81070 78340
L81020 78740
" />
<path d="M80960 78110
L80750 78540
L81130 78540
" />
<path d="M64040 79940
L64040 79340
" />
<path d="M64390 79940
L64130 79600
" />
<path d="M64390 79340
L64040 79690
" />
<path d="M64640 79940
L64640 79540
" />
<path d="M64640 79340
L64610 79370
L64640 79400
L64670 79370
L64640 79340
L64640 79400
" />
<path d="M65280 79890
L65250 79910
L65160 79940
L65100 79940
L65020 79910
L64960 79860
L64930 79800
L64900 79690
L64900 79600
L64930 79490
L64960 79430
L65020 79370
L65100 79340
L65160 79340
L65250 79370
L65280 79400
" />
<path d="M65790 79940
L65790 79630
L65760 79570
L65700 79540
L65590 79540
L65530 79570
" />
<path d="M65790 79910
L65730 79940
L65590 79940
L65530 79910
L65500 79860
L65500 79800
L65530 79740
L65590 79710
L65730 79710
L65790 79690
" />
<path d="M66330 79940
L66330 79340
" />
<path d="M66330 79910
L66270 79940
L66160 79940
L66100 79910
L66070 79890
L66040 79830
L66040 79660
L66070 79600
L66100 79570
L66160 79540
L66270 79540
L66330 79570
" />
<path d="M67070 79630
L67270 79630
" />
<path d="M67360 79940
L67070 79940
L67070 79340
L67360 79340
" />
<path d="M67610 79890
L67640 79910
L67610 79940
L67580 79910
L67610 79890
L67610 79940
" />
<path d="M67900 79940
L67900 79340
L68050 79340
L68130 79370
L68190 79430
L68220 79490
L68250 79600
L68250 79690
L68220 79800
L68190 79860
L68130 79910
L68050 79940
L67900 79940
" />
<path d="M68500 79890
L68530 79910
L68500 79940
L68470 79910
L68500 79890
L68500 79940
" />
<path d="M68760 79770
L69050 79770
" />
<path d="M68710 79940
L68910 79340
L69110 79940
" />
<path d="M69300 79890
L69330 79910
L69300 79940
L69270 79910
L69300 79890
L69300 79940
" />
<path d="M97600 78740
L97430 78460
" />
<path d="M97250 78740
L97320 78140
L97550 78140
L97610 78170
L97640 78200
L97660 78260
L97650 78340
L97610 78400
L97580 78430
L97510 78460
L97280 78460
" />
<path d="M98080 78710
L98020 78740
L97910 78740
L97850 78710
L97830 78660
L97860 78430
L97890 78370
L97960 78340
L98070 78340
L98120 78370
L98150 78430
L98140 78490
L97840 78540
" />
<path d="M98360 78340
L98450 78740
L98640 78340
" />
<path d="M98820 78690
L98850 78710
L98820 78740
L98790 78710
L98820 78690
L98820 78740
" />
<path d="M98860 78370
L98890 78400
L98860 78430
L98830 78400
L98860 78370
L98860 78430
" />
<path d="M64010 78710
L64100 78740
L64240 78740
L64300 78710
L64330 78690
L64360 78630
L64360 78570
L64330 78510
L64300 78490
L64240 78460
L64130 78430
L64070 78400
L64040 78370
L64010 78310
L64010 78260
L64040 78200
L64070 78170
L64130 78140
L64270 78140
L64360 78170
" />
<path d="M64610 78740
L64610 78340
" />
<path d="M64610 78140
L64580 78170
L64610 78200
L64640 78170
L64610 78140
L64610 78200
" />
<path d="M64850 78340
L65160 78340
L64850 78740
L65160 78740
" />
<path d="M65620 78710
L65560 78740
L65450 78740
L65390 78710
L65360 78660
L65360 78430
L65390 78370
L65450 78340
L65560 78340
L65620 78370
L65650 78430
L65650 78490
L65360 78540
" />
<path d="M65900 78690
L65930 78710
L65900 78740
L65870 78710
L65900 78690
L65900 78740
" />
<path d="M65900 78370
L65930 78400
L65900 78430
L65870 78400
L65900 78370
L65900 78430
" />
<path d="M66650 78140
L66650 78630
L66680 78690
L66710 78710
L66770 78740
L66880 78740
L66940 78710
L66970 78690
L67000 78630
L67000 78140
" />
<path d="M67250 78710
L67340 78740
L67480 78740
L67540 78710
L67570 78690
L67600 78630
L67600 78570
L67570 78510
L67540 78490
L67480 78460
L67370 78430
L67310 78400
L67280 78370
L67250 78310
L67250 78260
L67280 78200
L67310 78170
L67370 78140
L67510 78140
L67600 78170
" />
<path d="M68140 78740
L67850 78740
L67850 78140
" />
<path d="M68570 78710
L68510 78740
L68400 78740
L68340 78710
L68310 78660
L68310 78430
L68340 78370
L68400 78340
L68510 78340
L68570 78370
L68600 78430
L68600 78490
L68310 78540
" />
<path d="M68770 78340
L69000 78340
" />
<path d="M68850 78140
L68850 78660
L68880 78710
L68940 78740
L69000 78740
" />
<path d="M69110 78340
L69340 78340
" />
<path d="M69190 78140
L69190 78660
L69220 78710
L69280 78740
L69340 78740
" />
<path d="M69760 78710
L69700 78740
L69590 78740
L69530 78710
L69500 78660
L69500 78430
L69530 78370
L69590 78340
L69700 78340
L69760 78370
L69790 78430
L69790 78490
L69500 78540
" />
<path d="M70040 78740
L70040 78340
" />
<path d="M70040 78460
L70070 78400
L70100 78370
L70160 78340
L70210 78340
" />
<path d="M97240 79940
L97240 79340
" />
<path d="M97790 79940
L97790 79340
" />
<path d="M97790 79910
L97730 79940
L97620 79940
L97560 79910
L97530 79890
L97500 79830
L97500 79660
L97530 79600
L97560 79570
L97620 79540
L97730 79540
L97790 79570
" />
<path d="M98070 79890
L98100 79910
L98070 79940
L98040 79910
L98070 79890
L98070 79940
" />
<path d="M98070 79570
L98100 79600
L98070 79630
L98040 79600
L98070 79570
L98070 79630
" />
<path d="M99140 79940
L98790 79940
" />
<path d="M98970 79940
L98970 79340
L98910 79430
L98850 79490
L98790 79510
" />
<path d="M99820 79310
L99310 80090
" />
<path d="M100340 79940
L99990 79940
" />
<path d="M100170 79940
L100170 79340
L100110 79430
L100050 79490
L99990 79510
" />
<path d="M64040 76940
L64380 76940
" />
<path d="M64140 77540
L64210 76940
" />
<path d="M64510 77540
L64560 77140
" />
<path d="M64580 76940
L64550 76970
L64580 77000
L64610 76970
L64580 76940
L64580 77000
" />
<path d="M64770 77140
L65000 77140
" />
<path d="M64870 76940
L64810 77460
L64830 77510
L64890 77540
L64950 77540
" />
<path d="M65230 77540
L65170 77510
L65150 77460
L65210 76940
" />
<path d="M65680 77510
L65620 77540
L65510 77540
L65450 77510
L65430 77460
L65460 77230
L65490 77170
L65560 77140
L65670 77140
L65720 77170
L65750 77230
L65740 77290
L65440 77340
" />
<path d="M65960 77490
L65990 77510
L65960 77540
L65930 77510
L65960 77490
L65960 77540
" />
<path d="M66000 77170
L66030 77200
L66000 77230
L65970 77200
L66000 77170
L66000 77230
" />
<path d="M66950 76940
L66900 77370
L66870 77460
L66800 77510
L66710 77540
L66660 77540
" />
<path d="M67260 77540
L67200 77510
L67170 77490
L67150 77430
L67170 77260
L67210 77200
L67240 77170
L67310 77140
L67390 77140
L67440 77170
L67470 77200
L67490 77260
L67470 77430
L67430 77490
L67400 77510
L67340 77540
L67260 77540
" />
<path d="M68020 77140
L67970 77540
" />
<path d="M67760 77140
L67720 77460
L67740 77510
L67800 77540
L67880 77540
L67940 77510
L67970 77490
" />
<path d="M68340 77540
L68280 77510
L68260 77460
L68320 76940
" />
<path d="M68790 77510
L68730 77540
L68620 77540
L68560 77510
L68540 77460
L68570 77230
L68600 77170
L68670 77140
L68780 77140
L68830 77170
L68860 77230
L68850 77290
L68550 77340
" />
<path d="M69520 76940
L69860 76940
" />
<path d="M69620 77540
L69690 76940
" />
<path d="M69990 77540
L70060 76940
" />
<path d="M70250 77540
L70290 77230
L70260 77170
L70210 77140
L70130 77140
L70060 77170
L70030 77200
" />
<path d="M70530 77540
L70580 77140
" />
<path d="M70600 76940
L70570 76970
L70600 77000
L70630 76970
L70600 76940
L70600 77000
" />
<path d="M71050 77510
L70990 77540
L70880 77540
L70820 77510
L70800 77460
L70830 77230
L70860 77170
L70930 77140
L71040 77140
L71090 77170
L71120 77230
L71110 77290
L70810 77340
" />
<path d="M71300 77140
L71530 77140
" />
<path d="M71330 77540
L71390 77030
L71430 76970
L71490 76940
L71550 76940
" />
<path d="M64240 74830
L64040 74830
" />
<path d="M64040 75140
L64040 74540
L64330 74540
" />
<path d="M64550 75140
L64550 74740
" />
<path d="M64550 74540
L64520 74570
L64550 74600
L64580 74570
L64550 74540
L64550 74600
" />
<path d="M64930 75140
L64870 75110
L64840 75060
L64840 74540
" />
<path d="M65380 75110
L65320 75140
L65210 75140
L65150 75110
L65120 75060
L65120 74830
L65150 74770
L65210 74740
L65320 74740
L65380 74770
L65410 74830
L65410 74890
L65120 74940
" />
<path d="M65660 75090
L65690 75110
L65660 75140
L65630 75110
L65660 75090
L65660 75140
" />
<path d="M65660 74770
L65690 74800
L65660 74830
L65630 74800
L65660 74770
L65660 74830
" />
<path d="M66580 74540
L66580 74970
L66560 75060
L66500 75110
L66410 75140
L66360 75140
" />
<path d="M66960 75140
L66900 75110
L66870 75090
L66840 75030
L66840 74860
L66870 74800
L66900 74770
L66960 74740
L67040 74740
L67100 74770
L67130 74800
L67160 74860
L67160 75030
L67130 75090
L67100 75110
L67040 75140
L66960 75140
" />
<path d="M67670 74740
L67670 75140
" />
<path d="M67410 74740
L67410 75060
L67440 75110
L67500 75140
L67580 75140
L67640 75110
L67670 75090
" />
<path d="M68040 75140
L67980 75110
L67950 75060
L67950 74540
" />
<path d="M68490 75110
L68430 75140
L68320 75140
L68260 75110
L68230 75060
L68230 74830
L68260 74770
L68320 74740
L68430 74740
L68490 74770
L68520 74830
L68520 74890
L68230 74940
" />
<path d="M68690 74540
L69030 74540
" />
<path d="M68860 75140
L68860 74540
" />
<path d="M69230 75140
L69230 74540
" />
<path d="M69490 75140
L69490 74830
L69460 74770
L69400 74740
L69320 74740
L69260 74770
L69230 74800
" />
<path d="M69770 75140
L69770 74740
" />
<path d="M69770 74540
L69740 74570
L69770 74600
L69800 74570
L69770 74540
L69770 74600
" />
<path d="M70290 75110
L70230 75140
L70120 75140
L70060 75110
L70030 75060
L70030 74830
L70060 74770
L70120 74740
L70230 74740
L70290 74770
L70320 74830
L70320 74890
L70030 74940
" />
<path d="M70490 74740
L70720 74740
" />
<path d="M70570 75140
L70570 74630
L70600 74570
L70660 74540
L70720 74540
" />
<path d="M70910 75090
L70940 75110
L70910 75140
L70880 75110
L70910 75090
L70910 75140
" />
<path d="M71170 75110
L71230 75140
L71350 75140
L71400 75110
L71430 75060
L71430 75030
L71400 74970
L71350 74940
L71260 74940
L71200 74910
L71170 74860
L71170 74830
L71200 74770
L71260 74740
L71350 74740
L71400 74770
" />
<path d="M71950 75110
L71890 75140
L71780 75140
L71720 75110
L71690 75090
L71660 75030
L71660 74860
L71690 74800
L71720 74770
L71780 74740
L71890 74740
L71950 74770
" />
<path d="M72200 75140
L72200 74540
" />
<path d="M72460 75140
L72460 74830
L72430 74770
L72370 74740
L72290 74740
L72230 74770
L72200 74800
" />
<path d="M64010 76310
L64100 76340
L64240 76340
L64300 76310
L64330 76290
L64360 76230
L64360 76170
L64330 76110
L64300 76090
L64240 76060
L64130 76030
L64070 76000
L64040 75970
L64010 75910
L64010 75860
L64040 75800
L64070 75770
L64130 75740
L64270 75740
L64360 75770
" />
<path d="M64610 76340
L64610 75740
" />
<path d="M64870 76340
L64870 76030
L64840 75970
L64780 75940
L64700 75940
L64640 75970
L64610 76000
" />
<path d="M65380 76310
L65320 76340
L65210 76340
L65150 76310
L65120 76260
L65120 76030
L65150 75970
L65210 75940
L65320 75940
L65380 75970
L65410 76030
L65410 76090
L65120 76140
" />
<path d="M65890 76310
L65830 76340
L65720 76340
L65660 76310
L65630 76260
L65630 76030
L65660 75970
L65720 75940
L65830 75940
L65890 75970
L65920 76030
L65920 76090
L65630 76140
" />
<path d="M66090 75940
L66320 75940
" />
<path d="M66170 75740
L66170 76260
L66200 76310
L66260 76340
L66320 76340
" />
<path d="M66510 76290
L66540 76310
L66510 76340
L66480 76310
L66510 76290
L66510 76340
" />
<path d="M66510 75970
L66540 76000
L66510 76030
L66480 76000
L66510 75970
L66510 76030
" />
<path d="M67690 75710
L67180 76490
" />
<path d="M63300 74300
L63300 80300
" />
<path d="M63300 74300
L105300 74300
" />
<path d="M63300 74300
L105300 74300
" />
<path d="M63300 76700
L105300 76700
" />
<path d="M96500 77900
L96500 80300
" />
<path d="M63300 79100
L105300 79100
" />
<path d="M63300 77900
L105300 77900
" />
<path d="M69900 77900
L69900 79100
" />
</g>
<g style="fill:#9F0000; fill-opacity:0.0; 
stroke:#9F0000; stroke-width:0; stroke-opacity:1; 
stroke-linecap:round; stroke-linejoin:round;">
</g>
<g style="fill:#9F0000; fill-opacity:0.0; 
stroke:#9F0000; stroke-width:60; stroke-opacity:1; 
stroke-linecap:round; stroke-linejoin:round;">
<circle cx="35500" cy="35500" r="1500" /> 
<polyline fill="none;"
points="35500,34500
35500,34000
" /> 
<polyline fill="none;"
points="36400,34500
34610,34500
" /> 
<polyline fill="none;"
points="36000,35190
35000,35190
" /> 
<polyline fill="none;"
points="36400,35890
34610,35890
" /> 
<polyline fill="none;"
points="35500,36500
35500,37000
" /> 
<polyline fill="none;"
points="36000,36500
35000,36500
" /> 
<path d="M35500 34000
L35500 32500
" />
</g>
<g style="fill:#009F9F; fill-opacity:0.0; 
stroke:#009F9F; stroke-width:60; stroke-opacity:1; 
stroke-linecap:round; stroke-linejoin:round;">
<path d="M35160 33440
L35160 33060
" />
<path d="M35350 33250
L34970 33250
" />
</g>
<g style="fill:#9F0000; fill-opacity:0.0; 
stroke:#9F0000; stroke-width:60; stroke-opacity:1; 
stroke-linecap:round; stroke-linejoin:round;">
<path d="M36050 33110
L36050 33390
" />
<path d="M36050 33250
L35550 33250
L35620 33300
L35670 33350
L35700 33390
" />
<path d="M35500 37000
L35500 38500
" />
</g>
<g style="fill:#009F9F; fill-opacity:0.0; 
stroke:#009F9F; stroke-width:60; stroke-opacity:1; 
stroke-linecap:round; stroke-linejoin:round;">
<path d="M35160 37940
L35160 37560
" />
</g>
<g style="fill:#9F0000; fill-opacity:0.0; 
stroke:#9F0000; stroke-width:60; stroke-opacity:1; 
stroke-linecap:round; stroke-linejoin:round;">
<path d="M35600 37890
L35580 37870
L35550 37820
L35550 37700
L35580 37660
L35600 37630
L35650 37610
L35700 37610
L35770 37630
L36050 37920
L36050 37610
" />
</g>
<g style="fill:#009F9F; fill-opacity:0.0; 
stroke:#009F9F; stroke-width:60; stroke-opacity:1; 
stroke-linecap:round; stroke-linejoin:round;">
<path d="M37470 35890
L37490 35820
L37520 35800
L37570 35780
L37640 35780
L37680 35800
L37710 35820
L37730 35870
L37730 36060
L37230 36060
L37230 35890
L37260 35850
L37280 35820
L37330 35800
L37380 35800
L37420 35820
L37450 35850
L37470 35890
L37470 36060
" />
<path d="M37230 35630
L37230 35350
" />
<path d="M37730 35490
L37230 35490
" />
<path d="M37730 34920
L37730 35200
" />
<path d="M37730 35060
L37230 35060
L37300 35110
L37350 35160
L37380 35200
" />
<path d="M33570 36740
L33590 36670
L33620 36650
L33670 36630
L33740 36630
L33780 36650
L33810 36670
L33830 36720
L33830 36910
L33330 36910
L33330 36740
L33360 36700
L33380 36670
L33430 36650
L33480 36650
L33520 36670
L33550 36700
L33570 36740
L33570 36910
" />
<path d="M33690 36430
L33690 36200
" />
<path d="M33830 36480
L33330 36320
L33830 36150
" />
<path d="M33330 36050
L33330 35770
" />
<path d="M33830 35910
L33330 35910
" />
<path d="M33330 35670
L33330 35390
" />
<path d="M33830 35530
L33330 35530
" />
<path d="M33570 35220
L33570 35050
" />
<path d="M33830 34980
L33830 35220
L33330 35220
L33330 34980
" />
<path d="M33830 34490
L33590 34650
" />
<path d="M33830 34770
L33330 34770
L33330 34580
L33360 34530
L33380 34510
L33430 34490
L33500 34490
L33550 34510
L33570 34530
L33590 34580
L33590 34770
" />
<path d="M33590 34180
L33830 34180
" />
<path d="M33330 34340
L33590 34180
L33330 34010
" />
</g>
<g style="fill:#009F9F; fill-opacity:0.0; 
stroke:#009F9F; stroke-width:0; stroke-opacity:1; 
stroke-linecap:round; stroke-linejoin:round;">
</g>
<g style="fill:#9F0000; fill-opacity:0.0; 
stroke:#9F0000; stroke-width:60; stroke-opacity:1; 
stroke-linecap:round; stroke-linejoin:round;">
<path d="M52500 31500 A500 500 0.0 0 0 52001.7 31000 " />
<path d="M52000.9 32000 A500 500 0.0 0 0 52500 31500.9 " />
<path d="M52500 30500 A500 500 0.0 0 0 52001.7 30000 " />
<path d="M52000.9 31000 A500 500 0.0 0 0 52500 30500.9 " />
<path d="M52500 29500 A500 500 0.0 0 0 52001.7 29000 " />
<path d="M52000.9 30000 A500 500 0.0 0 0 52500 29500.9 " />
<path d="M52500 28500 A500 500 0.0 0 0 52001.7 28000 " />
<path d="M52000.9 29000 A500 500 0.0 0 0 52500 28500.9 " />
<path d="M54001.7 30000 A500 500 0.0 0 0 53500 30500.9 " />
<path d="M53500 30498.3 A500 500 0.0 0 0 54000.9 31000 " />
<path d="M54001.7 29000 A500 500 0.0 0 0 53500 29500.9 " />
<path d="M53500 29498.3 A500 500 0.0 0 0 54000.9 30000 " />
<path d="M54001.7 28000 A500 500 0.0 0 0 53500 28500.9 " />
<path d="M53500 28498.3 A500 500 0.0 0 0 54000.9 29000 " />
<path d="M54002.1 31000.1 A500 500 0.0 0 0 53510 31500.9 " />
<path d="M53510 31500.9 A500 500 0.0 0 0 53999.5 31999.9 " />
<polyline fill="none;"
points="52750,28000
52750,32000
" /> 
<polyline fill="none;"
points="53250,32000
53250,28000
" /> 
<path d="M52000 28000
L49000 28000
" />
<path d="M50680 27840
L50330 27840
" />
<path d="M50510 27840
L50510 27240
L50450 27330
L50390 27390
L50330 27410
" />
<path d="M52000 32000
L49000 32000
" />
<path d="M50330 31300
L50360 31270
L50420 31240
L50560 31240
L50620 31270
L50650 31300
L50680 31360
L50680 31410
L50650 31500
L50310 31840
L50680 31840
" />
<path d="M54000 32000
L57000 32000
" />
<path d="M55310 31240
L55680 31240
L55480 31470
L55560 31470
L55620 31500
L55650 31530
L55680 31590
L55680 31730
L55650 31790
L55620 31810
L55560 31840
L55390 31840
L55330 31810
L55310 31790
" />
<path d="M54000 28000
L57000 28000
" />
<path d="M55620 27440
L55620 27840
" />
<path d="M55480 27210
L55330 27640
L55710 27640
" />
</g>
<g style="fill:#009F9F; fill-opacity:0.0; 
stroke:#009F9F; stroke-width:60; stroke-opacity:1; 
stroke-linecap:round; stroke-linejoin:round;">
<path d="M52470 27050
L52870 27050
" />
<path d="M52670 27750
L52670 27050
" />
<path d="M53460 27750
L53060 27750
" />
<path d="M53260 27750
L53260 27050
L53200 27150
L53130 27220
L53060 27250
" />
<path d="M50790 32550
L51190 32550
" />
<path d="M50990 33250
L50990 32550
" />
<path d="M51820 33250
L51580 32920
" />
<path d="M51420 33250
L51420 32550
L51680 32550
L51750 32590
L51780 32620
L51820 32690
L51820 32790
L51780 32850
L51750 32890
L51680 32920
L51420 32920
" />
<path d="M52080 33050
L52420 33050
" />
<path d="M52020 33250
L52250 32550
L52480 33250
" />
<path d="M52720 33250
L52720 32550
L53120 33250
L53120 32550
" />
<path d="M53410 33220
L53510 33250
L53680 33250
L53750 33220
L53780 33190
L53810 33120
L53810 33050
L53780 32990
L53750 32950
L53680 32920
L53550 32890
L53480 32850
L53450 32820
L53410 32750
L53410 32690
L53450 32620
L53480 32590
L53550 32550
L53710 32550
L53810 32590
" />
<path d="M54350 32890
L54120 32890
" />
<path d="M54120 33250
L54120 32550
L54450 32550
" />
<path d="M54850 32550
L54980 32550
L55050 32590
L55120 32650
L55150 32790
L55150 33020
L55120 33150
L55050 33220
L54980 33250
L54850 33250
L54780 33220
L54720 33150
L54680 33020
L54680 32790
L54720 32650
L54780 32590
L54850 32550
" />
</g>
<g style="fill:#009F9F; fill-opacity:0.0; 
stroke:#009F9F; stroke-width:0; stroke-opacity:1; 
stroke-linecap:round; stroke-linejoin:round;">
</g>
<g style="fill:#9F0000; fill-opacity:0.0; 
stroke:#9F0000; stroke-width:60; stroke-opacity:1; 
stroke-linecap:round; stroke-linejoin:round;">
<circle cx="41000" cy="28000" r="500" /> 
<circle cx="44000" cy="28000" r="500" /> 
<polyline fill="none;"
points="41500,28000
43500,27000
" /> 
<path d="M40500 28000
L37500 28000
" />
</g>
<g style="fill:#009F9F; fill-opacity:0.0; 
stroke:#009F9F; stroke-width:60; stroke-opacity:1; 
stroke-linecap:round; stroke-linejoin:round;">
<path d="M39200 27830
L38800 27830
" />
<path d="M39000 27830
L39000 27130
L38940 27230
L38870 27300
L38800 27330
" />
</g>
<g style="fill:#9F0000; fill-opacity:0.0; 
stroke:#9F0000; stroke-width:60; stroke-opacity:1; 
stroke-linecap:round; stroke-linejoin:round;">
<path d="M44500 28000
L47500 28000
" />
</g>
<g style="fill:#009F9F; fill-opacity:0.0; 
stroke:#009F9F; stroke-width:60; stroke-opacity:1; 
stroke-linecap:round; stroke-linejoin:round;">
<path d="M45800 27200
L45840 27170
L45900 27130
L46070 27130
L46140 27170
L46170 27200
L46200 27270
L46200 27330
L46170 27430
L45770 27830
L46200 27830
" />
<path d="M41560 27220
L41660 27250
L41830 27250
L41900 27220
L41930 27190
L41960 27120
L41960 27050
L41930 26990
L41900 26950
L41830 26920
L41700 26890
L41630 26850
L41600 26820
L41560 26750
L41560 26690
L41600 26620
L41630 26590
L41700 26550
L41860 26550
L41960 26590
" />
<path d="M42200 26550
L42370 27250
L42500 26750
L42630 27250
L42800 26550
" />
<path d="M43430 27250
L43030 27250
" />
<path d="M43230 27250
L43230 26550
L43170 26650
L43100 26720
L43030 26750
" />
<path d="M41350 29220
L41450 29250
L41620 29250
L41690 29220
L41720 29190
L41750 29120
L41750 29050
L41720 28990
L41690 28950
L41620 28920
L41490 28890
L41420 28850
L41390 28820
L41350 28750
L41350 28690
L41390 28620
L41420 28590
L41490 28550
L41650 28550
L41750 28590
" />
<path d="M42060 29250
L42060 28550
L42320 28550
L42390 28590
L42420 28620
L42460 28690
L42460 28790
L42420 28850
L42390 28890
L42320 28920
L42060 28920
" />
<path d="M42720 29220
L42820 29250
L42990 29250
L43060 29220
L43090 29190
L43120 29120
L43120 29050
L43090 28990
L43060 28950
L42990 28920
L42860 28890
L42790 28850
L42760 28820
L42720 28750
L42720 28690
L42760 28620
L42790 28590
L42860 28550
L43020 28550
L43120 28590
" />
<path d="M43330 28550
L43730 28550
" />
<path d="M43530 29250
L43530 28550
" />
</g>
<g style="fill:#009F9F; fill-opacity:0.0; 
stroke:#009F9F; stroke-width:0; stroke-opacity:1; 
stroke-linecap:round; stroke-linejoin:round;">
</g>
<g style="fill:#9F0000; fill-opacity:0.0; 
stroke:#9F0000; stroke-width:120; stroke-opacity:1; 
stroke-linecap:round; stroke-linejoin:round;">
<rect x="48600" y="36000" width="800" height="3000" rx="0" />
</g>
<g style="fill:#9F0000; fill-opacity:0.0; 
stroke:#9F0000; stroke-width:60; stroke-opacity:1; 
stroke-linecap:round; stroke-linejoin:round;">
<path d="M49000 36000
L49000 35000
" />
</g>
<g style="fill:#009F9F; fill-opacity:0.0; 
stroke:#009F9F; stroke-width:60; stroke-opacity:1; 
stroke-linecap:round; stroke-linejoin:round;">
</g>
<g style="fill:#9F0000; fill-opacity:0.0; 
stroke:#9F0000; stroke-width:60; stroke-opacity:1; 
stroke-linecap:round; stroke-linejoin:round;">
<path d="M49000 39000
L49000 40000
" />
</g>
<g style="fill:#009F9F; fill-opacity:0.0; 
stroke:#009F9F; stroke-width:60; stroke-opacity:1; 
stroke-linecap:round; stroke-linejoin:round;">
<path d="M49930 37570
L49740 37700
" />
<path d="M49930 37790
L49530 37790
L49530 37640
L49550 37600
L49570 37590
L49610 37570
L49670 37570
L49700 37590
L49720 37600
L49740 37640
L49740 37790
" />
<path d="M49930 37190
L49930 37410
" />
<path d="M49930 37300
L49530 37300
L49590 37340
L49630 37380
L49650 37410
" />
<path d="M49200 37950
L49200 38170
" />
<path d="M49200 38060
L48800 38060
L48860 38100
L48900 38140
L48920 38170
" />
<path d="M48800 37700
L48800 37660
L48820 37620
L48840 37600
L48880 37580
L48950 37570
L49050 37570
L49130 37580
L49160 37600
L49180 37620
L49200 37660
L49200 37700
L49180 37740
L49160 37760
L49130 37770
L49050 37790
L48950 37790
L48880 37770
L48840 37760
L48820 37740
L48800 37700
" />
<path d="M48800 37320
L48800 37280
L48820 37240
L48840 37220
L48880 37200
L48950 37190
L49050 37190
L49130 37200
L49160 37220
L49180 37240
L49200 37280
L49200 37320
L49180 37360
L49160 37380
L49130 37390
L49050 37410
L48950 37410
L48880 37390
L48840 37380
L48820 37360
L48800 37320
" />
<path d="M48800 36940
L48800 36900
L48820 36860
L48840 36840
L48880 36820
L48950 36810
L49050 36810
L49130 36820
L49160 36840
L49180 36860
L49200 36900
L49200 36940
L49180 36980
L49160 37000
L49130 37010
L49050 37030
L48950 37030
L48880 37010
L48840 37000
L48820 36980
L48800 36940
" />
</g>
<g style="fill:#009F9F; fill-opacity:0.0; 
stroke:#009F9F; stroke-width:0; stroke-opacity:1; 
stroke-linecap:round; stroke-linejoin:round;">
</g>
<g style="fill:#9F0000; fill-opacity:0.0; 
stroke:#9F0000; stroke-width:100; stroke-opacity:1; 
stroke-linecap:round; stroke-linejoin:round;">
<circle cx="54500" cy="40000" r="1110" /> 
</g>
<g style="fill:#9F0000; fill-opacity:0.0; 
stroke:#9F0000; stroke-width:60; stroke-opacity:1; 
stroke-linecap:round; stroke-linejoin:round;">
<polyline fill="none;"
points="55000,41000
54250,40250
" /> 
<polyline fill="none;"
points="55000,39000
54250,39750
" /> 
</g>
<g style="fill:#9F0000; fill-opacity:0.0; 
stroke:#9F0000; stroke-width:200; stroke-opacity:1; 
stroke-linecap:round; stroke-linejoin:round;">
<polyline fill="none;"
points="54250,39250
54250,40750
54250,40750
" /> 
</g>
<g style="fill:#9F0000; fill-opacity:0.0; 
stroke:#9F0000; stroke-width:60; stroke-opacity:1; 
stroke-linecap:round; stroke-linejoin:round;">
<polyline fill="none;"
points="54950,40950
54750,40750
54750,40750
" /> 
</g>
<g style="fill:#9F0000; fill-opacity:1.0; 
stroke:#9F0000; stroke-width:60; stroke-opacity:1; 
stroke-linecap:round; stroke-linejoin:round;">
<polyline style="fill-rule:evenodd;"
points="54550,40750
54750,40550
54950,40950
54550,40750
54550,40750
" /> 
<path d="M55000 41000
L55000 42000
" />
</g>
<g style="fill:#009F9F; fill-opacity:0.0; 
stroke:#009F9F; stroke-width:60; stroke-opacity:1; 
stroke-linecap:round; stroke-linejoin:round;">
<path d="M54650 41580
L54650 41450
" />
<path d="M54860 41390
L54860 41580
L54460 41580
L54460 41390
" />
</g>
<g style="fill:#9F0000; fill-opacity:0.0; 
stroke:#9F0000; stroke-width:60; stroke-opacity:1; 
stroke-linecap:round; stroke-linejoin:round;">
<path d="M55460 41390
L55460 41610
" />
<path d="M55460 41500
L55060 41500
L55120 41540
L55160 41580
L55180 41610
" />
<path d="M54250 40000
L52000 40000
" />
</g>
<g style="fill:#009F9F; fill-opacity:0.0; 
stroke:#009F9F; stroke-width:60; stroke-opacity:1; 
stroke-linecap:round; stroke-linejoin:round;">
<path d="M53150 39650
L53210 39670
L53220 39690
L53240 39730
L53240 39790
L53220 39820
L53210 39840
L53170 39860
L53020 39860
L53020 39460
L53150 39460
L53190 39480
L53210 39500
L53220 39540
L53220 39580
L53210 39610
L53190 39630
L53150 39650
L53020 39650
" />
</g>
<g style="fill:#9F0000; fill-opacity:0.0; 
stroke:#9F0000; stroke-width:60; stroke-opacity:1; 
stroke-linecap:round; stroke-linejoin:round;">
<path d="M53010 40100
L53030 40080
L53060 40060
L53160 40060
L53200 40080
L53220 40100
L53230 40140
L53230 40180
L53220 40230
L52990 40460
L53230 40460
" />
<path d="M55000 39000
L55000 38000
" />
</g>
<g style="fill:#009F9F; fill-opacity:0.0; 
stroke:#009F9F; stroke-width:60; stroke-opacity:1; 
stroke-linecap:round; stroke-linejoin:round;">
<path d="M54820 38380
L54840 38400
L54860 38450
L54860 38490
L54840 38550
L54800 38590
L54770 38600
L54690 38620
L54630 38620
L54560 38600
L54520 38590
L54480 38550
L54460 38490
L54460 38450
L54480 38400
L54500 38380
" />
</g>
<g style="fill:#9F0000; fill-opacity:0.0; 
stroke:#9F0000; stroke-width:60; stroke-opacity:1; 
stroke-linecap:round; stroke-linejoin:round;">
<path d="M55060 38630
L55060 38390
L55210 38520
L55210 38460
L55230 38420
L55250 38400
L55290 38390
L55390 38390
L55420 38400
L55440 38420
L55460 38460
L55460 38580
L55440 38610
L55420 38630
" />
</g>
<g style="fill:#009F9F; fill-opacity:0.0; 
stroke:#009F9F; stroke-width:60; stroke-opacity:1; 
stroke-linecap:round; stroke-linejoin:round;">
<path d="M53560 41650
L53520 41630
L53490 41590
L53430 41540
L53390 41520
L53350 41520
" />
<path d="M53370 41610
L53330 41590
L53300 41550
L53280 41480
L53280 41350
L53300 41270
L53330 41230
L53370 41210
L53450 41210
L53490 41230
L53520 41270
L53540 41350
L53540 41480
L53520 41550
L53490 41590
L53450 41610
L53370 41610
" />
<path d="M53920 41610
L53700 41610
" />
<path d="M53810 41610
L53810 41210
L53770 41270
L53730 41310
L53700 41330
" />
<path d="M51420 38630
L51420 38230
L51570 38230
L51610 38250
L51620 38270
L51640 38310
L51640 38370
L51620 38400
L51610 38420
L51570 38440
L51420 38440
" />
<path d="M51820 38630
L51820 38230
L52040 38630
L52040 38230
" />
<path d="M52220 38270
L52240 38250
L52270 38230
L52370 38230
L52410 38250
L52430 38270
L52440 38310
L52440 38350
L52430 38400
L52200 38630
L52440 38630
" />
<path d="M52600 38270
L52620 38250
L52650 38230
L52750 38230
L52790 38250
L52810 38270
L52820 38310
L52820 38350
L52810 38400
L52580 38630
L52820 38630
" />
<path d="M52980 38270
L53000 38250
L53030 38230
L53130 38230
L53170 38250
L53190 38270
L53200 38310
L53200 38350
L53190 38400
L52960 38630
L53200 38630
" />
<path d="M53360 38270
L53380 38250
L53410 38230
L53510 38230
L53550 38250
L53570 38270
L53580 38310
L53580 38350
L53570 38400
L53340 38630
L53580 38630
" />
<path d="M53740 38520
L53930 38520
" />
<path d="M53700 38630
L53830 38230
L53960 38630
" />
</g>
<g style="fill:#9F009F; fill-opacity:0.0; 
stroke:#9F009F; stroke-width:50; stroke-opacity:1; 
stroke-linecap:round; stroke-linejoin:round;">
<path d="M52490 38780
L52650 38780
" />
<path d="M52570 39070
L52570 38780
" />
<path d="M52800 38780
L52860 38780
L52890 38800
L52910 38820
L52930 38880
L52930 38980
L52910 39030
L52890 39060
L52860 39070
L52800 39070
L52780 39060
L52750 39030
L52740 38980
L52740 38880
L52750 38820
L52780 38800
L52800 38780
" />
<path d="M53060 39070
L53120 39070
L53150 39060
L53160 39040
L53190 39000
L53200 38950
L53200 38840
L53190 38810
L53170 38800
L53150 38780
L53090 38780
L53060 38800
L53050 38810
L53040 38840
L53040 38910
L53050 38930
L53060 38950
L53090 38960
L53150 38960
L53170 38950
L53190 38930
L53200 38910
" />
<path d="M53320 38810
L53330 38800
L53360 38780
L53430 38780
L53450 38800
L53470 38810
L53480 38840
L53480 38870
L53470 38910
L53300 39070
L53480 39070
" />
</g>
<g style="fill:#9F009F; fill-opacity:0.0; 
stroke:#9F009F; stroke-width:0; stroke-opacity:1; 
stroke-linecap:round; stroke-linejoin:round;">
</g>
<g style="fill:#9F0000; fill-opacity:0.0; 
stroke:#9F0000; stroke-width:60; stroke-opacity:1; 
stroke-linecap:round; stroke-linejoin:round;">
<polyline fill="none;"
points="59000,36000
58000,36000
" /> 
</g>
<g style="fill:#9F0000; fill-opacity:1.0; 
stroke:#9F0000; stroke-width:60; stroke-opacity:1; 
stroke-linecap:round; stroke-linejoin:round;">
<polyline style="fill-rule:evenodd;"
points="59000,35000
58500,36000
58000,35000
" /> 
</g>
<g style="fill:#9F0000; fill-opacity:0.0; 
stroke:#9F0000; stroke-width:60; stroke-opacity:1; 
stroke-linecap:round; stroke-linejoin:round;">
<polyline fill="none;"
points="58100,36150
57700,36600
57950,36550
" /> 
<polyline fill="none;"
points="58250,36300
57850,36750
58100,36700
" /> 
<path d="M58500 35000
L58500 33500
" />
<path d="M58360 34140
L58360 34360
" />
<path d="M58360 34250
L57960 34250
L58020 34290
L58060 34330
L58080 34360
" />
<path d="M58500 36000
L58500 37500
" />
<path d="M58000 36860
L57980 36840
L57960 36810
L57960 36710
L57980 36670
L58000 36650
L58040 36640
L58080 36640
L58130 36650
L58360 36880
L58360 36640
" />
</g>
<g style="fill:#009F9F; fill-opacity:0.0; 
stroke:#009F9F; stroke-width:60; stroke-opacity:1; 
stroke-linecap:round; stroke-linejoin:round;">
<path d="M59730 35870
L59230 35870
L59230 35750
L59260 35680
L59300 35630
L59350 35610
L59450 35590
L59520 35590
L59610 35610
L59660 35630
L59710 35680
L59730 35750
L59730 35870
" />
<path d="M59730 35110
L59730 35390
" />
<path d="M59730 35250
L59230 35250
L59300 35300
L59350 35350
L59380 35390
" />
<path d="M57730 35810
L57730 36050
L57230 36050
" />
<path d="M57470 35650
L57470 35480
" />
<path d="M57730 35410
L57730 35650
L57230 35650
L57230 35410
" />
<path d="M57730 35200
L57230 35200
L57230 35080
L57260 35010
L57300 34960
L57350 34940
L57450 34920
L57520 34920
L57610 34940
L57660 34960
L57710 35010
L57730 35080
L57730 35200
" />
</g>
<g style="fill:#009F00; fill-opacity:0.0; 
stroke:#009F00; stroke-width:60; stroke-opacity:1; 
stroke-linecap:round; stroke-linejoin:round;">
<path d="M35500 32500
L35500 28000
" />
<path d="M35500 28000
L37500 28000
" />
<path d="M47500 28000
L49000 28000
" />
<path d="M49000 28000
L49000 26000
" />
<path d="M49000 26000
L57000 26000
" />
<path d="M57000 26000
L57000 28000
" />
<path d="M49000 32000
L49000 35000
" />
<path d="M49000 40000
L52000 40000
" />
<path d="M58500 32000
L58500 33500
" />
<path d="M58500 37500
L58500 42000
" />
<path d="M58500 42000
L35500 42000
" />
<path d="M35500 42000
L35500 38500
" />
</g>
<g style="fill:#009F00; fill-opacity:0.0; 
stroke:#009F00; stroke-width:0; stroke-opacity:1; 
stroke-linecap:round; stroke-linejoin:round;">
</g>
<g style="fill:#009F00; fill-opacity:1.0; 
stroke:#009F00; stroke-width:100; stroke-opacity:1; 
stroke-linecap:round; stroke-linejoin:round;">
<circle cx="55000" cy="42000" r="160" /> 
</g>
<g style="fill:#009F00; fill-opacity:1.0; 
stroke:#009F00; stroke-width:60; stroke-opacity:1; 
stroke-linecap:round; stroke-linejoin:round;">
<path d="M57000 32000
L58500 32000
" />
<path d="M55000 38000
L55000 33500
" />
<path d="M55000 33500
L58500 33500
" />
</g>
<g style="fill:#0000FF; fill-opacity:0.0; 
stroke:#0000FF; stroke-width:60; stroke-opacity:1; 
stroke-linecap:round; stroke-linejoin:round;">
<path d="M50230 28240
L50230 28390
" />
<path d="M50090 28330
L50230 28390
L50370 28330
" />
<path d="M50140 28500
L50230 28390
L50310 28500
" />
<path d="M56230 32240
L56230 32390
" />
<path d="M56090 32330
L56230 32390
L56370 32330
" />
<path d="M56140 32500
L56230 32390
L56310 32500
" />
</g>
<g style="fill:#000000; fill-opacity:0.0; 
stroke:#000000; stroke-width:60; stroke-opacity:1; 
stroke-linecap:round; stroke-linejoin:round;">
<path d="M35960 38770
L35900 38740
L35810 38740
L35730 38770
L35670 38830
L35640 38890
L35610 39000
L35610 39090
L35640 39200
L35670 39260
L35730 39310
L35810 39340
L35870 39340
L35960 39310
L35990 39290
L35990 39090
L35870 39090
" />
<path d="M36240 39340
L36240 38740
L36590 39340
L36590 38740
" />
<path d="M36870 39340
L36870 38740
L37020 38740
L37100 38770
L37160 38830
L37190 38890
L37220 39000
L37220 39090
L37190 39200
L37160 39260
L37100 39310
L37020 39340
L36870 39340
" />
</g> 
</svg>
