%MOIN*%
%OFA0B0*%
%FSLAX44Y44*%
%IPPOS*%
%LPD*%
%ADD10C,0*%
D10*
X00011999Y00023992D02*
X00011999Y00023992D01*
X00011987Y00024148D01*
X00011951Y00024301D01*
X00011891Y00024446D01*
X00011809Y00024579D01*
X00011707Y00024699D01*
X00011587Y00024801D01*
X00011453Y00024883D01*
X00011309Y00024943D01*
X00011156Y00024979D01*
X00011000Y00024992D01*
X00006769Y00024992D01*
X00006737Y00024993D01*
X00006706Y00024997D01*
X00006675Y00025003D01*
X00006645Y00025012D01*
X00006615Y00025023D01*
X00006587Y00025036D01*
X00006559Y00025052D01*
X00006533Y00025070D01*
X00006509Y00025089D01*
X00006486Y00025111D01*
X00006465Y00025135D01*
X00006446Y00025160D01*
X00006429Y00025186D01*
X00006414Y00025214D01*
X00006402Y00025243D01*
X00006391Y00025273D01*
X00006384Y00025303D01*
X00006378Y00025334D01*
X00006375Y00025366D01*
X00006375Y00025397D01*
X00006381Y00025602D01*
X00006383Y00025632D01*
X00006388Y00025662D01*
X00006394Y00025692D01*
X00006403Y00025721D01*
X00006415Y00025749D01*
X00006428Y00025776D01*
X00006443Y00025802D01*
X00006461Y00025827D01*
X00006480Y00025851D01*
X00006501Y00025873D01*
X00006523Y00025893D01*
X00006547Y00025911D01*
X00006573Y00025928D01*
X00006599Y00025942D01*
X00006627Y00025955D01*
X00006655Y00025965D01*
X00006685Y00025973D01*
X00006714Y00025979D01*
X00006744Y00025983D01*
X00006775Y00025984D01*
X00011000Y00025984D01*
X00011156Y00025996D01*
X00011309Y00026033D01*
X00011453Y00026093D01*
X00011587Y00026175D01*
X00011707Y00026277D01*
X00011809Y00026396D01*
X00011891Y00026530D01*
X00011951Y00026675D01*
X00011987Y00026827D01*
X00011999Y00026984D01*
X00011999Y00030356D01*
X00012001Y00030390D01*
X00012006Y00030425D01*
X00012013Y00030459D01*
X00012024Y00030492D01*
X00012037Y00030524D01*
X00012053Y00030554D01*
X00012072Y00030583D01*
X00012093Y00030611D01*
X00012117Y00030636D01*
X00012142Y00030659D01*
X00012170Y00030680D01*
X00012199Y00030698D01*
X00012230Y00030714D01*
X00012262Y00030727D01*
X00012296Y00030737D01*
X00012329Y00030744D01*
X00012364Y00030748D01*
X00012398Y00030749D01*
X00012433Y00030747D01*
X00012467Y00030742D01*
X00012672Y00030703D01*
X00012699Y00030697D01*
X00012725Y00030689D01*
X00012750Y00030680D01*
X00012775Y00030668D01*
X00012799Y00030655D01*
X00012821Y00030641D01*
X00012843Y00030624D01*
X00012864Y00030607D01*
X00012883Y00030588D01*
X00012901Y00030567D01*
X00012918Y00030546D01*
X00012933Y00030523D01*
X00012947Y00030500D01*
X00012958Y00030475D01*
X00012968Y00030450D01*
X00012977Y00030424D01*
X00012983Y00030398D01*
X00012988Y00030371D01*
X00012991Y00030344D01*
X00012992Y00030317D01*
X00012992Y00026984D01*
X00013004Y00026827D01*
X00013041Y00026675D01*
X00013101Y00026530D01*
X00013183Y00026396D01*
X00013285Y00026277D01*
X00013404Y00026175D01*
X00013538Y00026093D01*
X00013683Y00026033D01*
X00013835Y00025996D01*
X00013992Y00025984D01*
X00023992Y00025984D01*
X00024148Y00025996D01*
X00024301Y00026033D01*
X00024446Y00026093D01*
X00024579Y00026175D01*
X00024699Y00026277D01*
X00024801Y00026396D01*
X00024883Y00026530D01*
X00024943Y00026675D01*
X00024979Y00026827D01*
X00024992Y00026984D01*
X00024992Y00030444D01*
X00024994Y00030484D01*
X00025000Y00030524D01*
X00025010Y00030563D01*
X00025024Y00030600D01*
X00025041Y00030636D01*
X00025063Y00030670D01*
X00025087Y00030701D01*
X00025115Y00030730D01*
X00025145Y00030756D01*
X00025178Y00030779D01*
X00025213Y00030798D01*
X00025250Y00030814D01*
X00025288Y00030826D01*
X00025327Y00030834D01*
X00025367Y00030838D01*
X00025407Y00030837D01*
X00025447Y00030833D01*
X00025486Y00030825D01*
X00025524Y00030813D01*
X00025561Y00030797D01*
X00025766Y00030695D01*
X00025785Y00030684D01*
X00025804Y00030673D01*
X00025822Y00030661D01*
X00025839Y00030648D01*
X00025855Y00030633D01*
X00025871Y00030618D01*
X00025886Y00030602D01*
X00025900Y00030585D01*
X00025913Y00030568D01*
X00025925Y00030550D01*
X00025936Y00030531D01*
X00025946Y00030511D01*
X00025954Y00030491D01*
X00025962Y00030471D01*
X00025969Y00030450D01*
X00025974Y00030429D01*
X00025978Y00030408D01*
X00025981Y00030386D01*
X00025983Y00030364D01*
X00025984Y00030342D01*
X00025984Y00026984D01*
X00025996Y00026827D01*
X00026033Y00026675D01*
X00026093Y00026530D01*
X00026175Y00026396D01*
X00026277Y00026277D01*
X00026396Y00026175D01*
X00026530Y00026093D01*
X00026675Y00026033D01*
X00026827Y00025996D01*
X00026984Y00025984D01*
X00030824Y00025984D01*
X00030850Y00025983D01*
X00030876Y00025980D01*
X00030901Y00025976D01*
X00030927Y00025970D01*
X00030951Y00025963D01*
X00030975Y00025954D01*
X00030999Y00025943D01*
X00031022Y00025931D01*
X00031044Y00025917D01*
X00031065Y00025902D01*
X00031085Y00025885D01*
X00031103Y00025868D01*
X00031121Y00025849D01*
X00031137Y00025829D01*
X00031152Y00025808D01*
X00031166Y00025786D01*
X00031178Y00025763D01*
X00031189Y00025739D01*
X00031198Y00025715D01*
X00031205Y00025690D01*
X00031259Y00025486D01*
X00031266Y00025450D01*
X00031271Y00025415D01*
X00031272Y00025379D01*
X00031270Y00025343D01*
X00031264Y00025307D01*
X00031255Y00025272D01*
X00031243Y00025238D01*
X00031228Y00025206D01*
X00031211Y00025174D01*
X00031190Y00025145D01*
X00031167Y00025117D01*
X00031141Y00025092D01*
X00031113Y00025069D01*
X00031083Y00025049D01*
X00031052Y00025032D01*
X00031019Y00025018D01*
X00030985Y00025006D01*
X00030950Y00024998D01*
X00030914Y00024993D01*
X00030878Y00024992D01*
X00026984Y00024992D01*
X00026827Y00024979D01*
X00026675Y00024943D01*
X00026530Y00024883D01*
X00026396Y00024801D01*
X00026277Y00024699D01*
X00026175Y00024579D01*
X00026093Y00024446D01*
X00026033Y00024301D01*
X00025996Y00024148D01*
X00025984Y00023992D01*
X00025984Y00020118D01*
X00025982Y00020083D01*
X00025978Y00020048D01*
X00025970Y00020014D01*
X00025959Y00019981D01*
X00025946Y00019949D01*
X00025930Y00019918D01*
X00025911Y00019889D01*
X00025889Y00019861D01*
X00025865Y00019836D01*
X00025839Y00019813D01*
X00025811Y00019792D01*
X00025782Y00019774D01*
X00025751Y00019758D01*
X00025718Y00019745D01*
X00025685Y00019735D01*
X00025651Y00019729D01*
X00025616Y00019725D01*
X00025581Y00019724D01*
X00025546Y00019726D01*
X00025512Y00019732D01*
X00025307Y00019773D01*
X00025281Y00019779D01*
X00025255Y00019787D01*
X00025230Y00019797D01*
X00025206Y00019809D01*
X00025182Y00019822D01*
X00025159Y00019837D01*
X00025138Y00019853D01*
X00025117Y00019870D01*
X00025098Y00019890D01*
X00025081Y00019910D01*
X00025064Y00019931D01*
X00025049Y00019954D01*
X00025036Y00019977D01*
X00025024Y00020002D01*
X00025015Y00020027D01*
X00025006Y00020052D01*
X00025000Y00020079D01*
X00024995Y00020105D01*
X00024993Y00020132D01*
X00024992Y00020159D01*
X00024992Y00023992D01*
X00024979Y00024148D01*
X00024943Y00024301D01*
X00024883Y00024446D01*
X00024801Y00024579D01*
X00024699Y00024699D01*
X00024579Y00024801D01*
X00024446Y00024883D01*
X00024301Y00024943D01*
X00024148Y00024979D01*
X00023992Y00024992D01*
X00013992Y00024992D01*
X00013835Y00024979D01*
X00013683Y00024943D01*
X00013538Y00024883D01*
X00013404Y00024801D01*
X00013285Y00024699D01*
X00013183Y00024579D01*
X00013101Y00024446D01*
X00013041Y00024301D01*
X00013004Y00024148D01*
X00012992Y00023992D01*
X00012992Y00020084D01*
X00012990Y00020052D01*
X00012987Y00020021D01*
X00012980Y00019990D01*
X00012971Y00019959D01*
X00012960Y00019929D01*
X00012947Y00019901D01*
X00012931Y00019873D01*
X00012913Y00019847D01*
X00012893Y00019823D01*
X00012871Y00019800D01*
X00012847Y00019779D01*
X00012821Y00019760D01*
X00012795Y00019743D01*
X00012767Y00019728D01*
X00012737Y00019716D01*
X00012707Y00019706D01*
X00012676Y00019698D01*
X00012645Y00019693D01*
X00012614Y00019690D01*
X00012582Y00019690D01*
X00012377Y00019699D01*
X00012347Y00019701D01*
X00012317Y00019706D01*
X00012288Y00019713D01*
X00012259Y00019722D01*
X00012231Y00019733D01*
X00012205Y00019747D01*
X00012179Y00019762D01*
X00012154Y00019779D01*
X00012131Y00019799D01*
X00012109Y00019820D01*
X00012089Y00019842D01*
X00012071Y00019866D01*
X00012055Y00019891D01*
X00012040Y00019918D01*
X00012028Y00019945D01*
X00012018Y00019974D01*
X00012010Y00020003D01*
X00012004Y00020032D01*
X00012001Y00020062D01*
X00011999Y00020092D01*
X00011999Y00023992D01*
X00011999Y00011000D02*
X00011999Y00011000D01*
X00011987Y00011156D01*
X00011951Y00011309D01*
X00011891Y00011453D01*
X00011809Y00011587D01*
X00011707Y00011707D01*
X00011587Y00011809D01*
X00011453Y00011891D01*
X00011309Y00011951D01*
X00011156Y00011987D01*
X00011000Y00012000D01*
X00006597Y00012000D01*
X00006562Y00012001D01*
X00006528Y00012006D01*
X00006494Y00012013D01*
X00006461Y00012024D01*
X00006429Y00012037D01*
X00006398Y00012053D01*
X00006369Y00012072D01*
X00006342Y00012093D01*
X00006317Y00012117D01*
X00006293Y00012142D01*
X00006272Y00012170D01*
X00006254Y00012199D01*
X00006238Y00012230D01*
X00006225Y00012262D01*
X00006215Y00012296D01*
X00006208Y00012329D01*
X00006204Y00012364D01*
X00006203Y00012399D01*
X00006205Y00012433D01*
X00006210Y00012467D01*
X00006249Y00012672D01*
X00006255Y00012699D01*
X00006263Y00012725D01*
X00006273Y00012750D01*
X00006284Y00012775D01*
X00006297Y00012799D01*
X00006312Y00012821D01*
X00006328Y00012843D01*
X00006346Y00012864D01*
X00006365Y00012883D01*
X00006385Y00012901D01*
X00006407Y00012918D01*
X00006429Y00012933D01*
X00006453Y00012947D01*
X00006478Y00012958D01*
X00006503Y00012968D01*
X00006529Y00012977D01*
X00006555Y00012983D01*
X00006582Y00012988D01*
X00006609Y00012991D01*
X00006636Y00012992D01*
X00011000Y00012992D01*
X00011156Y00013004D01*
X00011309Y00013041D01*
X00011453Y00013101D01*
X00011587Y00013183D01*
X00011707Y00013285D01*
X00011809Y00013404D01*
X00011891Y00013538D01*
X00011951Y00013683D01*
X00011987Y00013835D01*
X00011999Y00013992D01*
X00011999Y00017940D01*
X00012001Y00017970D01*
X00012004Y00018000D01*
X00012010Y00018030D01*
X00012018Y00018059D01*
X00012028Y00018087D01*
X00012040Y00018115D01*
X00012055Y00018141D01*
X00012071Y00018166D01*
X00012089Y00018190D01*
X00012109Y00018213D01*
X00012131Y00018234D01*
X00012154Y00018253D01*
X00012179Y00018270D01*
X00012205Y00018286D01*
X00012231Y00018299D01*
X00012259Y00018310D01*
X00012288Y00018320D01*
X00012317Y00018326D01*
X00012347Y00018331D01*
X00012377Y00018334D01*
X00012582Y00018342D01*
X00012614Y00018342D01*
X00012645Y00018339D01*
X00012676Y00018334D01*
X00012707Y00018327D01*
X00012737Y00018317D01*
X00012767Y00018304D01*
X00012795Y00018290D01*
X00012821Y00018273D01*
X00012847Y00018254D01*
X00012871Y00018233D01*
X00012893Y00018210D01*
X00012913Y00018185D01*
X00012931Y00018159D01*
X00012947Y00018132D01*
X00012960Y00018103D01*
X00012971Y00018073D01*
X00012980Y00018043D01*
X00012987Y00018012D01*
X00012990Y00017980D01*
X00012992Y00017949D01*
X00012992Y00013992D01*
X00013004Y00013835D01*
X00013041Y00013683D01*
X00013101Y00013538D01*
X00013183Y00013404D01*
X00013285Y00013285D01*
X00013404Y00013183D01*
X00013538Y00013101D01*
X00013683Y00013041D01*
X00013835Y00013004D01*
X00013992Y00012992D01*
X00023992Y00012992D01*
X00024148Y00013004D01*
X00024301Y00013041D01*
X00024446Y00013101D01*
X00024579Y00013183D01*
X00024699Y00013285D01*
X00024801Y00013404D01*
X00024883Y00013538D01*
X00024943Y00013683D01*
X00024979Y00013835D01*
X00024992Y00013992D01*
X00024992Y00017976D01*
X00024993Y00018003D01*
X00024995Y00018030D01*
X00025000Y00018056D01*
X00025006Y00018083D01*
X00025015Y00018108D01*
X00025024Y00018133D01*
X00025036Y00018158D01*
X00025049Y00018181D01*
X00025064Y00018204D01*
X00025081Y00018225D01*
X00025098Y00018246D01*
X00025117Y00018265D01*
X00025138Y00018282D01*
X00025159Y00018299D01*
X00025182Y00018313D01*
X00025206Y00018326D01*
X00025230Y00018338D01*
X00025255Y00018348D01*
X00025281Y00018356D01*
X00025307Y00018362D01*
X00025512Y00018403D01*
X00025546Y00018409D01*
X00025581Y00018411D01*
X00025616Y00018410D01*
X00025651Y00018407D01*
X00025685Y00018400D01*
X00025718Y00018390D01*
X00025751Y00018377D01*
X00025782Y00018361D01*
X00025811Y00018343D01*
X00025839Y00018322D01*
X00025865Y00018299D01*
X00025889Y00018274D01*
X00025911Y00018246D01*
X00025930Y00018217D01*
X00025946Y00018186D01*
X00025959Y00018154D01*
X00025970Y00018121D01*
X00025978Y00018087D01*
X00025982Y00018052D01*
X00025984Y00018018D01*
X00025984Y00013992D01*
X00025996Y00013835D01*
X00026033Y00013683D01*
X00026093Y00013538D01*
X00026175Y00013404D01*
X00026277Y00013285D01*
X00026396Y00013183D01*
X00026530Y00013101D01*
X00026675Y00013041D01*
X00026827Y00013004D01*
X00026984Y00012992D01*
X00031162Y00012992D01*
X00031194Y00012990D01*
X00031225Y00012987D01*
X00031256Y00012980D01*
X00031287Y00012971D01*
X00031316Y00012960D01*
X00031345Y00012946D01*
X00031372Y00012931D01*
X00031399Y00012913D01*
X00031423Y00012893D01*
X00031446Y00012871D01*
X00031467Y00012847D01*
X00031486Y00012821D01*
X00031503Y00012795D01*
X00031518Y00012767D01*
X00031530Y00012737D01*
X00031540Y00012707D01*
X00031548Y00012676D01*
X00031553Y00012645D01*
X00031555Y00012614D01*
X00031555Y00012582D01*
X00031547Y00012377D01*
X00031545Y00012347D01*
X00031540Y00012317D01*
X00031533Y00012288D01*
X00031524Y00012259D01*
X00031513Y00012231D01*
X00031499Y00012205D01*
X00031484Y00012179D01*
X00031466Y00012154D01*
X00031447Y00012131D01*
X00031426Y00012109D01*
X00031404Y00012089D01*
X00031380Y00012071D01*
X00031355Y00012055D01*
X00031328Y00012040D01*
X00031301Y00012028D01*
X00031272Y00012018D01*
X00031243Y00012010D01*
X00031214Y00012004D01*
X00031184Y00012001D01*
X00031154Y00012000D01*
X00026984Y00012000D01*
X00026827Y00011987D01*
X00026675Y00011951D01*
X00026530Y00011891D01*
X00026396Y00011809D01*
X00026277Y00011707D01*
X00026175Y00011587D01*
X00026093Y00011453D01*
X00026033Y00011309D01*
X00025996Y00011156D01*
X00025984Y00011000D01*
X00025984Y00006466D01*
X00025983Y00006436D01*
X00025979Y00006406D01*
X00025973Y00006376D01*
X00025965Y00006347D01*
X00025955Y00006318D01*
X00025942Y00006291D01*
X00025928Y00006264D01*
X00025911Y00006239D01*
X00025893Y00006215D01*
X00025873Y00006192D01*
X00025851Y00006171D01*
X00025827Y00006152D01*
X00025802Y00006135D01*
X00025776Y00006119D01*
X00025749Y00006106D01*
X00025721Y00006095D01*
X00025692Y00006086D01*
X00025662Y00006079D01*
X00025632Y00006075D01*
X00025602Y00006073D01*
X00025397Y00006067D01*
X00025366Y00006067D01*
X00025334Y00006070D01*
X00025303Y00006075D01*
X00025273Y00006083D01*
X00025243Y00006093D01*
X00025214Y00006106D01*
X00025186Y00006120D01*
X00025160Y00006137D01*
X00025135Y00006157D01*
X00025111Y00006178D01*
X00025089Y00006200D01*
X00025070Y00006225D01*
X00025052Y00006251D01*
X00025036Y00006278D01*
X00025023Y00006307D01*
X00025012Y00006336D01*
X00025003Y00006366D01*
X00024997Y00006397D01*
X00024993Y00006429D01*
X00024992Y00006460D01*
X00024992Y00011000D01*
X00024979Y00011156D01*
X00024943Y00011309D01*
X00024883Y00011453D01*
X00024801Y00011587D01*
X00024699Y00011707D01*
X00024579Y00011809D01*
X00024446Y00011891D01*
X00024301Y00011951D01*
X00024148Y00011987D01*
X00023992Y00012000D01*
X00013992Y00012000D01*
X00013835Y00011987D01*
X00013683Y00011951D01*
X00013538Y00011891D01*
X00013404Y00011809D01*
X00013285Y00011707D01*
X00013183Y00011587D01*
X00013101Y00011453D01*
X00013041Y00011309D01*
X00013004Y00011156D01*
X00012992Y00011000D01*
X00012992Y00006996D01*
X00012991Y00006969D01*
X00012988Y00006942D01*
X00012983Y00006915D01*
X00012977Y00006889D01*
X00012968Y00006863D01*
X00012958Y00006837D01*
X00012947Y00006813D01*
X00012933Y00006789D01*
X00012918Y00006767D01*
X00012901Y00006745D01*
X00012883Y00006725D01*
X00012864Y00006706D01*
X00012843Y00006688D01*
X00012821Y00006672D01*
X00012799Y00006657D01*
X00012775Y00006644D01*
X00012750Y00006633D01*
X00012725Y00006623D01*
X00012699Y00006615D01*
X00012672Y00006609D01*
X00012467Y00006570D01*
X00012433Y00006565D01*
X00012398Y00006563D01*
X00012364Y00006564D01*
X00012329Y00006568D01*
X00012296Y00006575D01*
X00012262Y00006585D01*
X00012230Y00006598D01*
X00012199Y00006614D01*
X00012170Y00006632D01*
X00012142Y00006653D01*
X00012117Y00006676D01*
X00012093Y00006702D01*
X00012072Y00006729D01*
X00012053Y00006758D01*
X00012037Y00006789D01*
X00012024Y00006821D01*
X00012013Y00006854D01*
X00012006Y00006888D01*
X00012001Y00006922D01*
X00011999Y00006957D01*
X00011999Y00011000D01*
X00000999Y00000000D02*
X00000999Y00000000D01*
X00011000Y00000000D01*
X00011156Y00000012D01*
X00011309Y00000048D01*
X00011453Y00000108D01*
X00011587Y00000190D01*
X00011707Y00000292D01*
X00011809Y00000412D01*
X00011891Y00000546D01*
X00011951Y00000690D01*
X00011987Y00000843D01*
X00011999Y00001000D01*
X00011999Y00004854D01*
X00012001Y00004889D01*
X00012006Y00004923D01*
X00012013Y00004957D01*
X00012024Y00004990D01*
X00012037Y00005022D01*
X00012053Y00005053D01*
X00012072Y00005082D01*
X00012093Y00005109D01*
X00012117Y00005135D01*
X00012142Y00005158D01*
X00012170Y00005179D01*
X00012199Y00005197D01*
X00012230Y00005213D01*
X00012262Y00005226D01*
X00012296Y00005236D01*
X00012329Y00005243D01*
X00012364Y00005247D01*
X00012398Y00005248D01*
X00012433Y00005246D01*
X00012467Y00005241D01*
X00012672Y00005202D01*
X00012699Y00005196D01*
X00012725Y00005188D01*
X00012750Y00005178D01*
X00012775Y00005167D01*
X00012799Y00005154D01*
X00012821Y00005139D01*
X00012843Y00005123D01*
X00012864Y00005105D01*
X00012883Y00005086D01*
X00012901Y00005066D01*
X00012918Y00005044D01*
X00012933Y00005022D01*
X00012947Y00004998D01*
X00012958Y00004974D01*
X00012968Y00004948D01*
X00012977Y00004922D01*
X00012983Y00004896D01*
X00012988Y00004869D01*
X00012991Y00004842D01*
X00012992Y00004815D01*
X00012992Y00001000D01*
X00013004Y00000843D01*
X00013041Y00000690D01*
X00013101Y00000546D01*
X00013183Y00000412D01*
X00013285Y00000292D01*
X00013404Y00000190D01*
X00013538Y00000108D01*
X00013683Y00000048D01*
X00013835Y00000012D01*
X00013992Y00000000D01*
X00023992Y00000000D01*
X00024148Y00000012D01*
X00024301Y00000048D01*
X00024446Y00000108D01*
X00024579Y00000190D01*
X00024699Y00000292D01*
X00024801Y00000412D01*
X00024883Y00000546D01*
X00024943Y00000690D01*
X00024979Y00000843D01*
X00024992Y00001000D01*
X00024992Y00004323D01*
X00024993Y00004354D01*
X00024997Y00004385D01*
X00025003Y00004416D01*
X00025012Y00004446D01*
X00025023Y00004476D01*
X00025036Y00004504D01*
X00025052Y00004532D01*
X00025070Y00004558D01*
X00025089Y00004582D01*
X00025111Y00004605D01*
X00025135Y00004626D01*
X00025160Y00004645D01*
X00025186Y00004662D01*
X00025214Y00004677D01*
X00025243Y00004690D01*
X00025273Y00004700D01*
X00025303Y00004708D01*
X00025334Y00004713D01*
X00025366Y00004716D01*
X00025397Y00004716D01*
X00025602Y00004710D01*
X00025632Y00004708D01*
X00025662Y00004703D01*
X00025692Y00004697D01*
X00025721Y00004688D01*
X00025749Y00004677D01*
X00025776Y00004663D01*
X00025802Y00004648D01*
X00025827Y00004631D01*
X00025851Y00004611D01*
X00025873Y00004591D01*
X00025893Y00004568D01*
X00025911Y00004544D01*
X00025928Y00004519D01*
X00025942Y00004492D01*
X00025955Y00004464D01*
X00025965Y00004436D01*
X00025973Y00004407D01*
X00025979Y00004377D01*
X00025983Y00004347D01*
X00025984Y00004316D01*
X00025984Y00001000D01*
X00025996Y00000843D01*
X00026033Y00000690D01*
X00026093Y00000546D01*
X00026175Y00000412D01*
X00026277Y00000292D01*
X00026396Y00000190D01*
X00026530Y00000108D01*
X00026675Y00000048D01*
X00026827Y00000012D01*
X00026984Y00000000D01*
X00036984Y00000000D01*
X00037140Y00000012D01*
X00037293Y00000048D01*
X00037438Y00000108D01*
X00037572Y00000190D01*
X00037691Y00000292D01*
X00037793Y00000412D01*
X00037875Y00000546D01*
X00037935Y00000690D01*
X00037971Y00000843D01*
X00037984Y00001000D01*
X00037984Y00011000D01*
X00037971Y00011156D01*
X00037935Y00011309D01*
X00037875Y00011453D01*
X00037793Y00011587D01*
X00037691Y00011707D01*
X00037572Y00011809D01*
X00037438Y00011891D01*
X00037293Y00011951D01*
X00037140Y00011987D01*
X00036984Y00012000D01*
X00033306Y00012000D01*
X00033276Y00012001D01*
X00033246Y00012004D01*
X00033216Y00012010D01*
X00033187Y00012018D01*
X00033159Y00012028D01*
X00033131Y00012040D01*
X00033105Y00012055D01*
X00033079Y00012071D01*
X00033056Y00012089D01*
X00033033Y00012109D01*
X00033012Y00012131D01*
X00032993Y00012154D01*
X00032976Y00012179D01*
X00032960Y00012205D01*
X00032947Y00012231D01*
X00032935Y00012259D01*
X00032926Y00012288D01*
X00032919Y00012317D01*
X00032915Y00012347D01*
X00032912Y00012377D01*
X00032904Y00012582D01*
X00032904Y00012614D01*
X00032906Y00012645D01*
X00032912Y00012676D01*
X00032919Y00012707D01*
X00032929Y00012737D01*
X00032942Y00012767D01*
X00032956Y00012795D01*
X00032973Y00012821D01*
X00032992Y00012847D01*
X00033013Y00012871D01*
X00033036Y00012893D01*
X00033061Y00012913D01*
X00033087Y00012931D01*
X00033114Y00012946D01*
X00033143Y00012960D01*
X00033173Y00012971D01*
X00033203Y00012980D01*
X00033234Y00012987D01*
X00033266Y00012990D01*
X00033297Y00012992D01*
X00036984Y00012992D01*
X00037140Y00013004D01*
X00037293Y00013041D01*
X00037438Y00013101D01*
X00037572Y00013183D01*
X00037691Y00013285D01*
X00037793Y00013404D01*
X00037875Y00013538D01*
X00037935Y00013683D01*
X00037971Y00013835D01*
X00037984Y00013992D01*
X00037984Y00023992D01*
X00037971Y00024148D01*
X00037935Y00024301D01*
X00037875Y00024446D01*
X00037793Y00024579D01*
X00037691Y00024699D01*
X00037572Y00024801D01*
X00037438Y00024883D01*
X00037293Y00024943D01*
X00037140Y00024979D01*
X00036984Y00024992D01*
X00032964Y00024992D01*
X00032928Y00024993D01*
X00032893Y00024998D01*
X00032858Y00025006D01*
X00032823Y00025018D01*
X00032790Y00025032D01*
X00032759Y00025049D01*
X00032729Y00025069D01*
X00032701Y00025092D01*
X00032676Y00025117D01*
X00032652Y00025145D01*
X00032632Y00025174D01*
X00032614Y00025206D01*
X00032599Y00025238D01*
X00032587Y00025272D01*
X00032578Y00025307D01*
X00032573Y00025343D01*
X00032571Y00025379D01*
X00032572Y00025415D01*
X00032576Y00025450D01*
X00032583Y00025486D01*
X00032637Y00025690D01*
X00032645Y00025715D01*
X00032654Y00025739D01*
X00032664Y00025763D01*
X00032676Y00025786D01*
X00032690Y00025808D01*
X00032705Y00025829D01*
X00032721Y00025849D01*
X00032739Y00025868D01*
X00032758Y00025885D01*
X00032778Y00025902D01*
X00032799Y00025917D01*
X00032821Y00025931D01*
X00032843Y00025943D01*
X00032867Y00025954D01*
X00032891Y00025963D01*
X00032916Y00025970D01*
X00032941Y00025976D01*
X00032966Y00025980D01*
X00032992Y00025983D01*
X00033018Y00025984D01*
X00036984Y00025984D01*
X00037140Y00025996D01*
X00037293Y00026033D01*
X00037438Y00026093D01*
X00037572Y00026175D01*
X00037691Y00026277D01*
X00037793Y00026396D01*
X00037875Y00026530D01*
X00037935Y00026675D01*
X00037971Y00026827D01*
X00037984Y00026984D01*
X00037984Y00036984D01*
X00037971Y00037140D01*
X00037935Y00037293D01*
X00037875Y00037438D01*
X00037793Y00037572D01*
X00037691Y00037691D01*
X00037572Y00037793D01*
X00037438Y00037875D01*
X00037293Y00037935D01*
X00037140Y00037971D01*
X00036984Y00037984D01*
X00026984Y00037984D01*
X00026827Y00037971D01*
X00026675Y00037935D01*
X00026530Y00037875D01*
X00026396Y00037793D01*
X00026277Y00037691D01*
X00026175Y00037572D01*
X00026093Y00037438D01*
X00026033Y00037293D01*
X00025996Y00037140D01*
X00025984Y00036984D01*
X00025984Y00032574D01*
X00025983Y00032553D01*
X00025981Y00032531D01*
X00025978Y00032509D01*
X00025974Y00032488D01*
X00025969Y00032467D01*
X00025962Y00032446D01*
X00025954Y00032426D01*
X00025946Y00032406D01*
X00025936Y00032386D01*
X00025925Y00032367D01*
X00025913Y00032349D01*
X00025900Y00032332D01*
X00025886Y00032315D01*
X00025871Y00032299D01*
X00025855Y00032284D01*
X00025839Y00032269D01*
X00025822Y00032256D01*
X00025804Y00032244D01*
X00025785Y00032232D01*
X00025766Y00032222D01*
X00025561Y00032120D01*
X00025524Y00032104D01*
X00025486Y00032092D01*
X00025447Y00032084D01*
X00025407Y00032079D01*
X00025367Y00032079D01*
X00025327Y00032083D01*
X00025288Y00032091D01*
X00025250Y00032103D01*
X00025213Y00032118D01*
X00025178Y00032138D01*
X00025145Y00032160D01*
X00025115Y00032186D01*
X00025087Y00032215D01*
X00025063Y00032247D01*
X00025041Y00032281D01*
X00025024Y00032317D01*
X00025010Y00032354D01*
X00025000Y00032393D01*
X00024994Y00032433D01*
X00024992Y00032472D01*
X00024992Y00036984D01*
X00024979Y00037140D01*
X00024943Y00037293D01*
X00024883Y00037438D01*
X00024801Y00037572D01*
X00024699Y00037691D01*
X00024579Y00037793D01*
X00024446Y00037875D01*
X00024301Y00037935D01*
X00024148Y00037971D01*
X00023992Y00037984D01*
X00013992Y00037984D01*
X00013835Y00037971D01*
X00013683Y00037935D01*
X00013538Y00037875D01*
X00013404Y00037793D01*
X00013285Y00037691D01*
X00013183Y00037572D01*
X00013101Y00037438D01*
X00013041Y00037293D01*
X00013004Y00037140D01*
X00012992Y00036984D01*
X00012992Y00032498D01*
X00012991Y00032470D01*
X00012988Y00032443D01*
X00012983Y00032417D01*
X00012977Y00032390D01*
X00012968Y00032364D01*
X00012958Y00032339D01*
X00012947Y00032314D01*
X00012933Y00032291D01*
X00012918Y00032268D01*
X00012901Y00032247D01*
X00012883Y00032226D01*
X00012864Y00032207D01*
X00012843Y00032190D01*
X00012821Y00032173D01*
X00012799Y00032159D01*
X00012775Y00032146D01*
X00012750Y00032134D01*
X00012725Y00032125D01*
X00012699Y00032117D01*
X00012672Y00032111D01*
X00012467Y00032072D01*
X00012433Y00032067D01*
X00012398Y00032065D01*
X00012364Y00032066D01*
X00012329Y00032070D01*
X00012296Y00032077D01*
X00012262Y00032087D01*
X00012230Y00032100D01*
X00012199Y00032116D01*
X00012170Y00032134D01*
X00012142Y00032155D01*
X00012117Y00032178D01*
X00012093Y00032203D01*
X00012072Y00032231D01*
X00012053Y00032260D01*
X00012037Y00032291D01*
X00012024Y00032322D01*
X00012013Y00032355D01*
X00012006Y00032389D01*
X00012001Y00032424D01*
X00011999Y00032458D01*
X00011999Y00036984D01*
X00011987Y00037140D01*
X00011951Y00037293D01*
X00011891Y00037438D01*
X00011809Y00037572D01*
X00011707Y00037691D01*
X00011587Y00037793D01*
X00011453Y00037875D01*
X00011309Y00037935D01*
X00011156Y00037971D01*
X00011000Y00037984D01*
X00000999Y00037984D01*
X00000843Y00037971D01*
X00000690Y00037935D01*
X00000546Y00037875D01*
X00000412Y00037793D01*
X00000292Y00037691D01*
X00000190Y00037572D01*
X00000108Y00037438D01*
X00000048Y00037293D01*
X00000012Y00037140D01*
X00000000Y00036984D01*
X00000000Y00026984D01*
X00000012Y00026827D01*
X00000048Y00026675D01*
X00000108Y00026530D01*
X00000190Y00026396D01*
X00000292Y00026277D01*
X00000412Y00026175D01*
X00000546Y00026093D01*
X00000690Y00026033D01*
X00000843Y00025996D01*
X00000999Y00025984D01*
X00004625Y00025984D01*
X00004655Y00025983D01*
X00004685Y00025979D01*
X00004715Y00025973D01*
X00004744Y00025965D01*
X00004773Y00025955D01*
X00004800Y00025942D01*
X00004827Y00025928D01*
X00004852Y00025911D01*
X00004876Y00025893D01*
X00004899Y00025873D01*
X00004920Y00025851D01*
X00004939Y00025827D01*
X00004956Y00025802D01*
X00004972Y00025776D01*
X00004985Y00025749D01*
X00004996Y00025721D01*
X00005005Y00025692D01*
X00005012Y00025662D01*
X00005016Y00025632D01*
X00005018Y00025602D01*
X00005025Y00025397D01*
X00005024Y00025366D01*
X00005021Y00025334D01*
X00005016Y00025303D01*
X00005008Y00025273D01*
X00004998Y00025243D01*
X00004986Y00025214D01*
X00004971Y00025186D01*
X00004954Y00025160D01*
X00004935Y00025135D01*
X00004914Y00025111D01*
X00004891Y00025089D01*
X00004866Y00025070D01*
X00004840Y00025052D01*
X00004813Y00025036D01*
X00004784Y00025023D01*
X00004755Y00025012D01*
X00004725Y00025003D01*
X00004694Y00024997D01*
X00004663Y00024993D01*
X00004631Y00024992D01*
X00000999Y00024992D01*
X00000843Y00024979D01*
X00000690Y00024943D01*
X00000546Y00024883D01*
X00000412Y00024801D01*
X00000292Y00024699D01*
X00000190Y00024579D01*
X00000108Y00024446D01*
X00000048Y00024301D01*
X00000012Y00024148D01*
X00000000Y00023992D01*
X00000000Y00013992D01*
X00000012Y00013835D01*
X00000048Y00013683D01*
X00000108Y00013538D01*
X00000190Y00013404D01*
X00000292Y00013285D01*
X00000412Y00013183D01*
X00000546Y00013101D01*
X00000690Y00013041D01*
X00000843Y00013004D01*
X00000999Y00012992D01*
X00004455Y00012992D01*
X00004482Y00012991D01*
X00004509Y00012988D01*
X00004536Y00012983D01*
X00004562Y00012977D01*
X00004588Y00012968D01*
X00004614Y00012958D01*
X00004638Y00012947D01*
X00004662Y00012933D01*
X00004684Y00012918D01*
X00004706Y00012901D01*
X00004726Y00012883D01*
X00004745Y00012864D01*
X00004763Y00012843D01*
X00004779Y00012821D01*
X00004794Y00012799D01*
X00004807Y00012775D01*
X00004818Y00012750D01*
X00004828Y00012725D01*
X00004836Y00012699D01*
X00004842Y00012672D01*
X00004881Y00012467D01*
X00004886Y00012433D01*
X00004888Y00012399D01*
X00004887Y00012364D01*
X00004883Y00012329D01*
X00004876Y00012296D01*
X00004866Y00012262D01*
X00004853Y00012230D01*
X00004837Y00012199D01*
X00004819Y00012170D01*
X00004798Y00012142D01*
X00004775Y00012117D01*
X00004749Y00012093D01*
X00004722Y00012072D01*
X00004693Y00012053D01*
X00004662Y00012037D01*
X00004630Y00012024D01*
X00004597Y00012013D01*
X00004563Y00012006D01*
X00004529Y00012001D01*
X00004494Y00012000D01*
X00000999Y00012000D01*
X00000843Y00011987D01*
X00000690Y00011951D01*
X00000546Y00011891D01*
X00000412Y00011809D01*
X00000292Y00011707D01*
X00000190Y00011587D01*
X00000108Y00011453D01*
X00000048Y00011309D01*
X00000012Y00011156D01*
X00000000Y00011000D01*
X00000000Y00001000D01*
X00000012Y00000843D01*
X00000048Y00000690D01*
X00000108Y00000546D01*
X00000190Y00000412D01*
X00000292Y00000292D01*
X00000412Y00000190D01*
X00000546Y00000108D01*
X00000690Y00000048D01*
X00000843Y00000012D01*
X00000999Y00000000D01*
M02*