%MOIN*%
%OFA0B0*%
%FSLAX46Y46*%
%IPPOS*%
%LPD*%
%ADD10C,0.0039370078740157488*%
%ADD11R,0.070866141732283464X0.070866141732283464*%
%ADD12C,0.070866141732283464*%
%ADD13C,0.12795275590551181*%
%ADD14C,0.07874015748031496*%
%ADD15R,0.066929133858267723X0.066929133858267723*%
%ADD16O,0.066929133858267723X0.066929133858267723*%
%ADD27C,0.0039370078740157488*%
%ADD28R,0.070866141732283464X0.070866141732283464*%
%ADD29C,0.070866141732283464*%
%ADD30C,0.12795275590551181*%
%ADD31C,0.07874015748031496*%
%ADD32R,0.066929133858267723X0.066929133858267723*%
%ADD33O,0.066929133858267723X0.066929133858267723*%
%ADD34C,0.0039370078740157488*%
%ADD35R,0.070866141732283464X0.070866141732283464*%
%ADD36C,0.070866141732283464*%
%ADD37C,0.12795275590551181*%
%ADD38C,0.07874015748031496*%
%ADD39R,0.066929133858267723X0.066929133858267723*%
%ADD40O,0.066929133858267723X0.066929133858267723*%
%ADD41C,0.0039370078740157488*%
%ADD42R,0.070866141732283464X0.070866141732283464*%
%ADD43C,0.070866141732283464*%
%ADD44C,0.12795275590551181*%
%ADD45C,0.07874015748031496*%
%ADD46R,0.066929133858267723X0.066929133858267723*%
%ADD47O,0.066929133858267723X0.066929133858267723*%
%ADD48C,0.0039370078740157488*%
%ADD49R,0.070866141732283464X0.070866141732283464*%
%ADD50C,0.070866141732283464*%
%ADD51C,0.12795275590551181*%
%ADD52C,0.07874015748031496*%
%ADD53R,0.066929133858267723X0.066929133858267723*%
%ADD54O,0.066929133858267723X0.066929133858267723*%
%ADD55C,0.0039370078740157488*%
%ADD56R,0.070866141732283464X0.070866141732283464*%
%ADD57C,0.070866141732283464*%
%ADD58C,0.12795275590551181*%
%ADD59C,0.07874015748031496*%
%ADD60R,0.066929133858267723X0.066929133858267723*%
%ADD61O,0.066929133858267723X0.066929133858267723*%
%ADD62C,0.0039370078740157488*%
%ADD63R,0.070866141732283464X0.070866141732283464*%
%ADD64C,0.070866141732283464*%
%ADD65C,0.12795275590551181*%
%ADD66C,0.07874015748031496*%
%ADD67R,0.066929133858267723X0.066929133858267723*%
%ADD68O,0.066929133858267723X0.066929133858267723*%
%ADD69C,0.0039370078740157488*%
%ADD70R,0.070866141732283464X0.070866141732283464*%
%ADD71C,0.070866141732283464*%
%ADD72C,0.12795275590551181*%
%ADD73C,0.07874015748031496*%
%ADD74R,0.066929133858267723X0.066929133858267723*%
%ADD75O,0.066929133858267723X0.066929133858267723*%
%ADD76C,0.0039370078740157488*%
%ADD77R,0.070866141732283464X0.070866141732283464*%
%ADD78C,0.070866141732283464*%
%ADD79C,0.12795275590551181*%
%ADD80C,0.07874015748031496*%
%ADD81R,0.066929133858267723X0.066929133858267723*%
%ADD82O,0.066929133858267723X0.066929133858267723*%
%ADD83C,0.0039370078740157488*%
%ADD84R,0.070866141732283464X0.070866141732283464*%
%ADD85C,0.070866141732283464*%
%ADD86C,0.12795275590551181*%
%ADD87C,0.07874015748031496*%
%ADD88R,0.066929133858267723X0.066929133858267723*%
%ADD89O,0.066929133858267723X0.066929133858267723*%
G01*
D10*
D11*
X-0005849999Y0004500000D02*
X0000175000Y0000200000D03*
D12*
X0000175000Y0000100000D03*
D11*
X0000175000Y0000350000D03*
D12*
X0000175000Y0000450000D03*
D13*
X0000125000Y0000600000D03*
X0000125000Y0001400000D03*
D14*
X0000375000Y0001250000D03*
X0000075000Y0001250000D03*
X0000075000Y0000750000D03*
X0000375000Y0000750000D03*
D15*
X0000375000Y0001150000D03*
D16*
X0000375000Y0001050000D03*
X0000375000Y0000950000D03*
X0000375000Y0000850000D03*
D11*
X0000175000Y0001550000D03*
D12*
X0000175000Y0001650000D03*
D11*
X0000175000Y0001900000D03*
D12*
X0000175000Y0001800000D03*
G04 next file*
G04 #@! TF.FileFunction,Soldermask,Top*
G04 Gerber Fmt 4.6, Leading zero omitted, Abs format (unit mm)*
G04 Created by KiCad (PCBNEW 4.0.7) date 09/15/19 19:52:21*
G01*
G04 APERTURE LIST*
G04 APERTURE END LIST*
D27*
D28*
X-0002492126Y-0003763385D02*
X0001807873Y0002261614D03*
D29*
X0001907873Y0002261614D03*
D28*
X0001657873Y0002261614D03*
D29*
X0001557873Y0002261614D03*
D30*
X0001407873Y0002211614D03*
X0000607873Y0002211614D03*
D31*
X0000757873Y0002461614D03*
X0000757873Y0002161614D03*
X0001257873Y0002161614D03*
X0001257873Y0002461614D03*
D32*
X0000857873Y0002461614D03*
D33*
X0000957873Y0002461614D03*
X0001057873Y0002461614D03*
X0001157873Y0002461614D03*
D28*
X0000457873Y0002261614D03*
D29*
X0000357873Y0002261614D03*
D28*
X0000107873Y0002261614D03*
D29*
X0000207873Y0002261614D03*
G04 next file*
G04 #@! TF.FileFunction,Soldermask,Top*
G04 Gerber Fmt 4.6, Leading zero omitted, Abs format (unit mm)*
G04 Created by KiCad (PCBNEW 4.0.7) date 09/15/19 19:52:21*
G01*
G04 APERTURE LIST*
G04 APERTURE END LIST*
D34*
D35*
X-0002492126Y-0003212204D02*
X0001807873Y0002812795D03*
D36*
X0001907873Y0002812795D03*
D35*
X0001657873Y0002812795D03*
D36*
X0001557873Y0002812795D03*
D37*
X0001407873Y0002762795D03*
X0000607873Y0002762795D03*
D38*
X0000757873Y0003012795D03*
X0000757873Y0002712795D03*
X0001257873Y0002712795D03*
X0001257873Y0003012795D03*
D39*
X0000857873Y0003012795D03*
D40*
X0000957873Y0003012795D03*
X0001057873Y0003012795D03*
X0001157873Y0003012795D03*
D35*
X0000457873Y0002812795D03*
D36*
X0000357873Y0002812795D03*
D35*
X0000107873Y0002812795D03*
D36*
X0000207873Y0002812795D03*
G04 next file*
G04 #@! TF.FileFunction,Soldermask,Top*
G04 Gerber Fmt 4.6, Leading zero omitted, Abs format (unit mm)*
G04 Created by KiCad (PCBNEW 4.0.7) date 09/15/19 19:52:21*
G01*
G04 APERTURE LIST*
G04 APERTURE END LIST*
D41*
D42*
X-0002492126Y-0002661023D02*
X0001807873Y0003363976D03*
D43*
X0001907873Y0003363976D03*
D42*
X0001657873Y0003363976D03*
D43*
X0001557873Y0003363976D03*
D44*
X0001407873Y0003313976D03*
X0000607873Y0003313976D03*
D45*
X0000757873Y0003563976D03*
X0000757873Y0003263976D03*
X0001257873Y0003263976D03*
X0001257873Y0003563976D03*
D46*
X0000857873Y0003563976D03*
D47*
X0000957873Y0003563976D03*
X0001057873Y0003563976D03*
X0001157873Y0003563976D03*
D42*
X0000457873Y0003363976D03*
D43*
X0000357873Y0003363976D03*
D42*
X0000107873Y0003363976D03*
D43*
X0000207873Y0003363976D03*
G04 next file*
G04 #@! TF.FileFunction,Soldermask,Top*
G04 Gerber Fmt 4.6, Leading zero omitted, Abs format (unit mm)*
G04 Created by KiCad (PCBNEW 4.0.7) date 09/15/19 19:52:21*
G01*
G04 APERTURE LIST*
G04 APERTURE END LIST*
D48*
D49*
X-0005298818Y0004500000D02*
X0000726181Y0000200000D03*
D50*
X0000726181Y0000100000D03*
D49*
X0000726181Y0000350000D03*
D50*
X0000726181Y0000450000D03*
D51*
X0000676181Y0000600000D03*
X0000676181Y0001400000D03*
D52*
X0000926181Y0001250000D03*
X0000626181Y0001250000D03*
X0000626181Y0000750000D03*
X0000926181Y0000750000D03*
D53*
X0000926181Y0001150000D03*
D54*
X0000926181Y0001050000D03*
X0000926181Y0000950000D03*
X0000926181Y0000850000D03*
D49*
X0000726181Y0001550000D03*
D50*
X0000726181Y0001650000D03*
D49*
X0000726181Y0001900000D03*
D50*
X0000726181Y0001800000D03*
G04 next file*
G04 #@! TF.FileFunction,Soldermask,Top*
G04 Gerber Fmt 4.6, Leading zero omitted, Abs format (unit mm)*
G04 Created by KiCad (PCBNEW 4.0.7) date 09/15/19 19:52:21*
G01*
G04 APERTURE LIST*
G04 APERTURE END LIST*
D55*
D56*
X-0004747637Y0004500000D02*
X0001277362Y0000200000D03*
D57*
X0001277362Y0000100000D03*
D56*
X0001277362Y0000350000D03*
D57*
X0001277362Y0000450000D03*
D58*
X0001227362Y0000600000D03*
X0001227362Y0001400000D03*
D59*
X0001477362Y0001250000D03*
X0001177362Y0001250000D03*
X0001177362Y0000750000D03*
X0001477362Y0000750000D03*
D60*
X0001477362Y0001150000D03*
D61*
X0001477362Y0001050000D03*
X0001477362Y0000950000D03*
X0001477362Y0000850000D03*
D56*
X0001277362Y0001550000D03*
D57*
X0001277362Y0001650000D03*
D56*
X0001277362Y0001900000D03*
D57*
X0001277362Y0001800000D03*
G04 next file*
G04 #@! TF.FileFunction,Soldermask,Top*
G04 Gerber Fmt 4.6, Leading zero omitted, Abs format (unit mm)*
G04 Created by KiCad (PCBNEW 4.0.7) date 09/15/19 19:52:21*
G01*
G04 APERTURE LIST*
G04 APERTURE END LIST*
D62*
D63*
X-0004196456Y0004500000D02*
X0001828543Y0000200000D03*
D64*
X0001828543Y0000100000D03*
D63*
X0001828543Y0000350000D03*
D64*
X0001828543Y0000450000D03*
D65*
X0001778543Y0000600000D03*
X0001778543Y0001400000D03*
D66*
X0002028543Y0001250000D03*
X0001728543Y0001250000D03*
X0001728543Y0000750000D03*
X0002028543Y0000750000D03*
D67*
X0002028543Y0001150000D03*
D68*
X0002028543Y0001050000D03*
X0002028543Y0000950000D03*
X0002028543Y0000850000D03*
D63*
X0001828543Y0001550000D03*
D64*
X0001828543Y0001650000D03*
D63*
X0001828543Y0001900000D03*
D64*
X0001828543Y0001800000D03*
G04 next file*
G04 #@! TF.FileFunction,Soldermask,Top*
G04 Gerber Fmt 4.6, Leading zero omitted, Abs format (unit mm)*
G04 Created by KiCad (PCBNEW 4.0.7) date 09/15/19 19:52:21*
G01*
G04 APERTURE LIST*
G04 APERTURE END LIST*
D69*
D70*
X-0003645275Y0004500000D02*
X0002379724Y0000200000D03*
D71*
X0002379724Y0000100000D03*
D70*
X0002379724Y0000350000D03*
D71*
X0002379724Y0000450000D03*
D72*
X0002329724Y0000600000D03*
X0002329724Y0001400000D03*
D73*
X0002579724Y0001250000D03*
X0002279724Y0001250000D03*
X0002279724Y0000750000D03*
X0002579724Y0000750000D03*
D74*
X0002579724Y0001150000D03*
D75*
X0002579724Y0001050000D03*
X0002579724Y0000950000D03*
X0002579724Y0000850000D03*
D70*
X0002379724Y0001550000D03*
D71*
X0002379724Y0001650000D03*
D70*
X0002379724Y0001900000D03*
D71*
X0002379724Y0001800000D03*
G04 next file*
G04 #@! TF.FileFunction,Soldermask,Top*
G04 Gerber Fmt 4.6, Leading zero omitted, Abs format (unit mm)*
G04 Created by KiCad (PCBNEW 4.0.7) date 09/15/19 19:52:21*
G01*
G04 APERTURE LIST*
G04 APERTURE END LIST*
D76*
D77*
X-0003094094Y0004500000D02*
X0002930905Y0000200000D03*
D78*
X0002930905Y0000100000D03*
D77*
X0002930905Y0000350000D03*
D78*
X0002930905Y0000450000D03*
D79*
X0002880905Y0000600000D03*
X0002880905Y0001400000D03*
D80*
X0003130905Y0001250000D03*
X0002830905Y0001250000D03*
X0002830905Y0000750000D03*
X0003130905Y0000750000D03*
D81*
X0003130905Y0001150000D03*
D82*
X0003130905Y0001050000D03*
X0003130905Y0000950000D03*
X0003130905Y0000850000D03*
D77*
X0002930905Y0001550000D03*
D78*
X0002930905Y0001650000D03*
D77*
X0002930905Y0001900000D03*
D78*
X0002930905Y0001800000D03*
G04 next file*
G04 #@! TF.FileFunction,Soldermask,Top*
G04 Gerber Fmt 4.6, Leading zero omitted, Abs format (unit mm)*
G04 Created by KiCad (PCBNEW 4.0.7) date 09/15/19 19:52:21*
G01*
G04 APERTURE LIST*
G04 APERTURE END LIST*
D83*
D84*
X-0002542913Y0004500000D02*
X0003482086Y0000200000D03*
D85*
X0003482086Y0000100000D03*
D84*
X0003482086Y0000350000D03*
D85*
X0003482086Y0000450000D03*
D86*
X0003432086Y0000600000D03*
X0003432086Y0001400000D03*
D87*
X0003682086Y0001250000D03*
X0003382086Y0001250000D03*
X0003382086Y0000750000D03*
X0003682086Y0000750000D03*
D88*
X0003682086Y0001150000D03*
D89*
X0003682086Y0001050000D03*
X0003682086Y0000950000D03*
X0003682086Y0000850000D03*
D84*
X0003482086Y0001550000D03*
D85*
X0003482086Y0001650000D03*
D84*
X0003482086Y0001900000D03*
D85*
X0003482086Y0001800000D03*
M02*