<?xml version="1.0" standalone="no"?>
 <!DOCTYPE svg PUBLIC "-//W3C//DTD SVG 1.1//EN" 
 "http://www.w3.org/Graphics/SVG/1.1/DTD/svg11.dtd"> 
<svg xmlns="http://www.w3.org/2000/svg" version="1.1" 
    width="2.89052cm" height="2.8829cm" viewBox="0 0 11380 11350 ">
<title>SVG Picture created as base-brd.svg date 2017/07/26 21:06:41 </title>
  <desc>Picture generated by PCBNEW </desc>
<g style="fill:#000000; fill-opacity:1;stroke:#000000; stroke-opacity:1;
stroke-linecap:round; stroke-linejoin:round; "
 transform="translate(0 0) scale(1 1)">
</g>
<g style="fill:#000000; fill-opacity:0.0; 
stroke:#000000; stroke-width:-0.000393701; stroke-opacity:1; 
stroke-linecap:round; stroke-linejoin:round;">
</g>
<g style="fill:#840000; fill-opacity:0.0; 
stroke:#840000; stroke-width:-0.000393701; stroke-opacity:1; 
stroke-linecap:round; stroke-linejoin:round;">
</g>
<g style="fill:#840000; fill-opacity:0.0; 
stroke:#840000; stroke-width:0; stroke-opacity:1; 
stroke-linecap:round; stroke-linejoin:round;">
</g>
<g style="fill:#840000; fill-opacity:1.0; 
stroke:#840000; stroke-width:0; stroke-opacity:1; 
stroke-linecap:round; stroke-linejoin:round;">
<polyline style="fill-rule:evenodd;"
points="2500,8059
2054,8505
2500,8950
2945,8505
2500,8059
" /> 
<polyline style="fill-rule:evenodd;"
points="3490,9049
3044,9494
3490,9940
3935,9494
3490,9049
" /> 
<polyline style="fill-rule:evenodd;"
points="3017,7571
3273,7571
3273,6902
3017,6902
3017,7571
" /> 
<polyline style="fill-rule:evenodd;"
points="2517,7571
2773,7571
2773,6902
2517,6902
2517,7571
" /> 
<polyline style="fill-rule:evenodd;"
points="2017,7571
2273,7571
2273,6902
2017,6902
2017,7571
" /> 
<polyline style="fill-rule:evenodd;"
points="1517,7571
1773,7571
1773,6902
1517,6902
1517,7571
" /> 
<polyline style="fill-rule:evenodd;"
points="1517,4697
1773,4697
1773,4028
1517,4028
1517,4697
" /> 
<polyline style="fill-rule:evenodd;"
points="2017,4697
2273,4697
2273,4028
2017,4028
2017,4697
" /> 
<polyline style="fill-rule:evenodd;"
points="2517,4697
2773,4697
2773,4028
2517,4028
2517,4697
" /> 
<polyline style="fill-rule:evenodd;"
points="3017,4697
3273,4697
3273,4028
3017,4028
3017,4697
" /> 
<circle cx="4495.24" cy="7050" r="200" /> 
</g>
<g style="fill:#840000; fill-opacity:1.0; 
stroke:#840000; stroke-width:39.3701; stroke-opacity:1; 
stroke-linecap:round; stroke-linejoin:round;">
</g>
<g style="fill:#840000; fill-opacity:1.0; 
stroke:#840000; stroke-width:0; stroke-opacity:1; 
stroke-linecap:round; stroke-linejoin:round;">
<polyline style="fill-rule:evenodd;"
points="5480,9162
5480,9437
5716,9437
5716,9162
5480,9162
" /> 
<polyline style="fill-rule:evenodd;"
points="5913,9162
5913,9437
6149,9437
6149,9162
5913,9162
" /> 
<polyline style="fill-rule:evenodd;"
points="7019,9181
7019,9418
7255,9418
7255,9181
7019,9181
" /> 
<polyline style="fill-rule:evenodd;"
points="7373,9181
7373,9418
7610,9418
7610,9181
7373,9181
" /> 
<polyline style="fill-rule:evenodd;"
points="5248,8143
5248,8457
5642,8457
5642,8143
5248,8143
" /> 
<polyline style="fill-rule:evenodd;"
points="5948,8143
5948,8457
6342,8457
6342,8143
5948,8143
" /> 
<polyline style="fill-rule:evenodd;"
points="5089,6814
5089,7286
5601,7286
5601,6814
5089,6814
" /> 
<polyline style="fill-rule:evenodd;"
points="6039,6814
6039,7286
6551,7286
6551,6814
6039,6814
" /> 
<polyline style="fill-rule:evenodd;"
points="4860,5195
4860,5904
5529,5904
5529,5195
4860,5195
" /> 
<polyline style="fill-rule:evenodd;"
points="6110,5195
6110,5904
6779,5904
6779,5195
6110,5195
" /> 
<polyline style="fill-rule:evenodd;"
points="7057,8122
7057,8477
7333,8477
7333,8122
7057,8122
" /> 
<polyline style="fill-rule:evenodd;"
points="7807,8122
7807,8477
8083,8477
8083,8122
7807,8122
" /> 
<polyline style="fill-rule:evenodd;"
points="7128,5215
7128,5884
7561,5884
7561,5215
7128,5215
" /> 
<polyline style="fill-rule:evenodd;"
points="8478,5215
8478,5884
8911,5884
8911,5215
8478,5215
" /> 
<polyline style="fill-rule:evenodd;"
points="7168,6794
7168,7305
7522,7305
7522,6794
7168,6794
" /> 
<polyline style="fill-rule:evenodd;"
points="8068,6794
8068,7305
8422,7305
8422,6794
8068,6794
" /> 
<circle cx="6045.24" cy="1300" r="590.551" /> 
</g>
<g style="fill:#840000; fill-opacity:1.0; 
stroke:#840000; stroke-width:39.3701; stroke-opacity:1; 
stroke-linecap:round; stroke-linejoin:round;">
</g>
<g style="fill:#840000; fill-opacity:1.0; 
stroke:#840000; stroke-width:629.921; stroke-opacity:1; 
stroke-linecap:round; stroke-linejoin:round;">
</g>
<g style="fill:#840000; fill-opacity:0.0; 
stroke:#840000; stroke-width:629.921; stroke-opacity:1; 
stroke-linecap:round; stroke-linejoin:round;">
<path d="M3245 2300
L3245 2300
" />
</g>
<g style="fill:#840000; fill-opacity:0.0; 
stroke:#840000; stroke-width:0; stroke-opacity:1; 
stroke-linecap:round; stroke-linejoin:round;">
</g>
<g style="fill:#840000; fill-opacity:1.0; 
stroke:#840000; stroke-width:0; stroke-opacity:1; 
stroke-linecap:round; stroke-linejoin:round;">
<polyline style="fill-rule:evenodd;"
points="3560,2985
2930,2985
2930,3614
3560,3614
3560,2985
" /> 
</g>
<g style="fill:#840000; fill-opacity:1.0; 
stroke:#840000; stroke-width:629.921; stroke-opacity:1; 
stroke-linecap:round; stroke-linejoin:round;">
</g>
<g style="fill:#840000; fill-opacity:0.0; 
stroke:#840000; stroke-width:629.921; stroke-opacity:1; 
stroke-linecap:round; stroke-linejoin:round;">
<path d="M4245 2300
L4245 2300
" />
<path d="M4245 3300
L4245 3300
" />
<path d="M5245 2300
L5245 2300
" />
<path d="M5245 3300
L5245 3300
" />
</g>
<g style="fill:#840000; fill-opacity:0.0; 
stroke:#840000; stroke-width:0; stroke-opacity:1; 
stroke-linecap:round; stroke-linejoin:round;">
</g>
<g style="fill:#840000; fill-opacity:1.0; 
stroke:#840000; stroke-width:0; stroke-opacity:1; 
stroke-linecap:round; stroke-linejoin:round;">
<polyline style="fill-rule:evenodd;"
points="6639,9965
6639,10134
6749,10134
6749,9965
6639,9965
" /> 
<polyline style="fill-rule:evenodd;"
points="6840,9965
6840,10134
6950,10134
6950,9965
6840,9965
" /> 
<polyline style="fill-rule:evenodd;"
points="5950,10134
5950,9965
5840,9965
5840,10134
5950,10134
" /> 
<polyline style="fill-rule:evenodd;"
points="5749,10134
5749,9965
5639,9965
5639,10134
5749,10134
" /> 
<circle cx="4295.24" cy="5550" r="225" /> 
</g>
<g style="fill:#840000; fill-opacity:1.0; 
stroke:#840000; stroke-width:39.3701; stroke-opacity:1; 
stroke-linecap:round; stroke-linejoin:round;">
</g>
<g style="fill:#840000; fill-opacity:1.0; 
stroke:#840000; stroke-width:0; stroke-opacity:1; 
stroke-linecap:round; stroke-linejoin:round;">
<circle cx="4645.24" cy="8300" r="175" /> 
</g>
<g style="fill:#840000; fill-opacity:1.0; 
stroke:#840000; stroke-width:39.3701; stroke-opacity:1; 
stroke-linecap:round; stroke-linejoin:round;">
</g>
<g style="fill:#840000; fill-opacity:1.0; 
stroke:#840000; stroke-width:0; stroke-opacity:1; 
stroke-linecap:round; stroke-linejoin:round;">
<circle cx="4795.24" cy="9300" r="150" /> 
</g>
<g style="fill:#840000; fill-opacity:1.0; 
stroke:#840000; stroke-width:39.3701; stroke-opacity:1; 
stroke-linecap:round; stroke-linejoin:round;">
</g>
<g style="fill:#840000; fill-opacity:1.0; 
stroke:#840000; stroke-width:0; stroke-opacity:1; 
stroke-linecap:round; stroke-linejoin:round;">
<circle cx="4895.24" cy="10050" r="125" /> 
</g>
<g style="fill:#840000; fill-opacity:1.0; 
stroke:#840000; stroke-width:39.3701; stroke-opacity:1; 
stroke-linecap:round; stroke-linejoin:round;">
</g>
<g style="fill:#840000; fill-opacity:1.0; 
stroke:#840000; stroke-width:300; stroke-opacity:1; 
stroke-linecap:round; stroke-linejoin:round;">
</g>
<g style="fill:#840000; fill-opacity:0.0; 
stroke:#840000; stroke-width:300; stroke-opacity:1; 
stroke-linecap:round; stroke-linejoin:round;">
<path d="M9745 5424
L9745 5675
" />
<path d="M9570 6983
L9570 7116
" />
</g>
<g style="fill:#840000; fill-opacity:0.0; 
stroke:#840000; stroke-width:250; stroke-opacity:1; 
stroke-linecap:round; stroke-linejoin:round;">
<path d="M9095 8250
L9095 8350
" />
</g>
<g style="fill:#840000; fill-opacity:0.0; 
stroke:#840000; stroke-width:200; stroke-opacity:1; 
stroke-linecap:round; stroke-linejoin:round;">
<path d="M8370 9250
L8370 9350
" />
<path d="M7420 10000
L7420 10100
" />
</g> 
</svg>
