G04 #@! TF.FileFunction,Copper,L1,Top,Signal*
%FSLAX46Y46*%
G04 Gerber Fmt 4.6, Leading zero omitted, Abs format (unit mm)*
G04 Created by KiCad (PCBNEW 4.0.6) date 05/26/17 09:36:11*
%MOMM*%
%LPD*%
G01*
G04 APERTURE LIST*
%ADD10C,0.100000*%
%ADD11C,3.197860*%
%ADD12R,1.700000X1.700000*%
%ADD13O,1.700000X1.700000*%
%ADD14C,1.520000*%
%ADD15C,2.700000*%
%ADD16C,1.998980*%
%ADD17R,1.600000X1.600000*%
%ADD18O,1.600000X1.600000*%
%ADD19O,0.900000X1.500000*%
%ADD20R,0.900000X1.500000*%
%ADD21C,0.406400*%
G04 APERTURE END LIST*
D10*
D11*
X176466500Y-118211600D03*
X172720000Y-121920000D03*
X168973500Y-118211600D03*
D12*
X180340000Y-97790000D03*
D13*
X177800000Y-97790000D03*
X175260000Y-97790000D03*
D14*
X144780000Y-119380000D03*
X147320000Y-119380000D03*
X147320000Y-121380000D03*
X144780000Y-121380000D03*
D15*
X140050000Y-124080000D03*
X152050000Y-124080000D03*
D16*
X156845000Y-114300000D03*
X163195000Y-114300000D03*
X156845000Y-121920000D03*
X163195000Y-121920000D03*
X151765000Y-114300000D03*
X145415000Y-114300000D03*
X145415000Y-105410000D03*
X151765000Y-105410000D03*
X163195000Y-118110000D03*
X156845000Y-118110000D03*
D17*
X156210000Y-105410000D03*
D18*
X163830000Y-97790000D03*
X158750000Y-105410000D03*
X161290000Y-97790000D03*
X161290000Y-105410000D03*
X158750000Y-97790000D03*
X163830000Y-105410000D03*
X156210000Y-97790000D03*
D19*
X172720000Y-105410000D03*
X173990000Y-105410000D03*
D20*
X171450000Y-105410000D03*
D21*
X180340000Y-97790000D02*
X177800000Y-100330000D01*
X158750000Y-99060000D02*
X158750000Y-97790000D01*
X160020000Y-100330000D02*
X158750000Y-99060000D01*
X177800000Y-100330000D02*
X160020000Y-100330000D01*
M02*
