G04 #@! TF.FileFunction,Copper,L1,Top,Signal*
%FSLAX46Y46*%
G04 Gerber Fmt 4.6, Leading zero omitted, Abs format (unit mm)*
G04 Created by KiCad (PCBNEW 4.0.7) date 05/25/19 09:40:29*
%MOMM*%
%LPD*%
G01*
G04 APERTURE LIST*
%ADD10C,0.100000*%
%ADD11R,1.800000X1.800000*%
%ADD12O,1.800000X1.800000*%
%ADD13C,2.000000*%
%ADD14C,3.000000*%
%ADD15R,2.400000X2.400000*%
%ADD16O,2.400000X2.400000*%
%ADD17C,2.400000*%
%ADD18C,1.600000*%
%ADD19C,2.032000*%
%ADD20C,0.914400*%
%ADD21C,0.200000*%
G04 APERTURE END LIST*
D10*
D11*
X58928000Y-73025000D03*
D12*
X58928000Y-70485000D03*
X58928000Y-67945000D03*
D13*
X60618000Y-83105000D03*
D14*
X57618000Y-78105000D03*
X52618000Y-78105000D03*
D13*
X49618000Y-83105000D03*
D15*
X66548000Y-67945000D03*
D16*
X66548000Y-80645000D03*
D15*
X64008000Y-85725000D03*
D17*
X67508000Y-85725000D03*
X71008000Y-85725000D03*
D18*
X70358000Y-78355000D03*
X70358000Y-70105000D03*
D13*
X47918000Y-88105000D03*
D14*
X44918000Y-78105000D03*
X39918000Y-78105000D03*
D13*
X36918000Y-88105000D03*
D19*
X39918000Y-78105000D02*
X39918000Y-78065000D01*
X39918000Y-78065000D02*
X43688000Y-74295000D01*
X55118000Y-67945000D02*
X58928000Y-67945000D01*
X48768000Y-74295000D02*
X55118000Y-67945000D01*
X43688000Y-74295000D02*
X48768000Y-74295000D01*
D20*
X66548000Y-80645000D02*
X66548000Y-79375000D01*
X67568000Y-78355000D02*
X70358000Y-78355000D01*
X66548000Y-79375000D02*
X67568000Y-78355000D01*
X58928000Y-73025000D02*
X67438000Y-73025000D01*
X67438000Y-73025000D02*
X70358000Y-70105000D01*
D19*
X58928000Y-70485000D02*
X57658000Y-70485000D01*
X57658000Y-70485000D02*
X56388000Y-71755000D01*
X56388000Y-71755000D02*
X56388000Y-76875000D01*
X56388000Y-76875000D02*
X57618000Y-78105000D01*
D20*
X58928000Y-70485000D02*
X64008000Y-70485000D01*
X64008000Y-70485000D02*
X66548000Y-67945000D01*
D19*
X44918000Y-78105000D02*
X46228000Y-78105000D01*
X46228000Y-78105000D02*
X47498000Y-79375000D01*
X51348000Y-79375000D02*
X52618000Y-78105000D01*
X47498000Y-79375000D02*
X51348000Y-79375000D01*
D21*
G36*
X71125171Y-66092885D02*
X71775548Y-66527453D01*
X72210115Y-67177829D01*
X72373000Y-67996706D01*
X72373000Y-84756894D01*
X71943870Y-84327014D01*
X71337645Y-84075287D01*
X70681235Y-84074715D01*
X70074571Y-84325383D01*
X69610014Y-84789130D01*
X69358287Y-85395355D01*
X69357715Y-86051765D01*
X69608383Y-86658429D01*
X70072130Y-87122986D01*
X70678355Y-87374713D01*
X71334765Y-87375285D01*
X71941429Y-87124617D01*
X72373000Y-86693798D01*
X72373000Y-88213294D01*
X72210115Y-89032171D01*
X71775548Y-89682547D01*
X71125171Y-90117115D01*
X70306294Y-90280000D01*
X37389706Y-90280000D01*
X36570829Y-90117115D01*
X35920453Y-89682548D01*
X35485885Y-89032171D01*
X35358579Y-88392157D01*
X35467749Y-88392157D01*
X35688033Y-88925286D01*
X36095569Y-89333533D01*
X36628312Y-89554748D01*
X37205157Y-89555251D01*
X37738286Y-89334967D01*
X38146533Y-88927431D01*
X38367748Y-88394688D01*
X38367750Y-88392157D01*
X46467749Y-88392157D01*
X46688033Y-88925286D01*
X47095569Y-89333533D01*
X47628312Y-89554748D01*
X48205157Y-89555251D01*
X48738286Y-89334967D01*
X49146533Y-88927431D01*
X49367748Y-88394688D01*
X49368251Y-87817843D01*
X49147967Y-87284714D01*
X48740431Y-86876467D01*
X48207688Y-86655252D01*
X47630843Y-86654749D01*
X47097714Y-86875033D01*
X46689467Y-87282569D01*
X46468252Y-87815312D01*
X46467749Y-88392157D01*
X38367750Y-88392157D01*
X38368251Y-87817843D01*
X38147967Y-87284714D01*
X37740431Y-86876467D01*
X37207688Y-86655252D01*
X36630843Y-86654749D01*
X36097714Y-86875033D01*
X35689467Y-87282569D01*
X35468252Y-87815312D01*
X35467749Y-88392157D01*
X35358579Y-88392157D01*
X35323000Y-88213294D01*
X35323000Y-83392157D01*
X48167749Y-83392157D01*
X48388033Y-83925286D01*
X48795569Y-84333533D01*
X49328312Y-84554748D01*
X49905157Y-84555251D01*
X50438286Y-84334967D01*
X50846533Y-83927431D01*
X51067748Y-83394688D01*
X51067750Y-83392157D01*
X59167749Y-83392157D01*
X59388033Y-83925286D01*
X59795569Y-84333533D01*
X60328312Y-84554748D01*
X60905157Y-84555251D01*
X60978370Y-84525000D01*
X62349184Y-84525000D01*
X62349184Y-86925000D01*
X62380562Y-87091760D01*
X62479117Y-87244919D01*
X62629495Y-87347668D01*
X62808000Y-87383816D01*
X65208000Y-87383816D01*
X65374760Y-87352438D01*
X65527919Y-87253883D01*
X65630668Y-87103505D01*
X65646577Y-87024942D01*
X66425847Y-87024942D01*
X66552841Y-87301665D01*
X67228911Y-87547172D01*
X67947470Y-87515271D01*
X68463159Y-87301665D01*
X68590153Y-87024942D01*
X67508000Y-85942789D01*
X66425847Y-87024942D01*
X65646577Y-87024942D01*
X65666816Y-86925000D01*
X65666816Y-85445911D01*
X65685828Y-85445911D01*
X65717729Y-86164470D01*
X65931335Y-86680159D01*
X66208058Y-86807153D01*
X67290211Y-85725000D01*
X67725789Y-85725000D01*
X68807942Y-86807153D01*
X69084665Y-86680159D01*
X69330172Y-86004089D01*
X69298271Y-85285530D01*
X69084665Y-84769841D01*
X68807942Y-84642847D01*
X67725789Y-85725000D01*
X67290211Y-85725000D01*
X66208058Y-84642847D01*
X65931335Y-84769841D01*
X65685828Y-85445911D01*
X65666816Y-85445911D01*
X65666816Y-84525000D01*
X65648011Y-84425058D01*
X66425847Y-84425058D01*
X67508000Y-85507211D01*
X68590153Y-84425058D01*
X68463159Y-84148335D01*
X67787089Y-83902828D01*
X67068530Y-83934729D01*
X66552841Y-84148335D01*
X66425847Y-84425058D01*
X65648011Y-84425058D01*
X65635438Y-84358240D01*
X65536883Y-84205081D01*
X65386505Y-84102332D01*
X65208000Y-84066184D01*
X62808000Y-84066184D01*
X62641240Y-84097562D01*
X62488081Y-84196117D01*
X62385332Y-84346495D01*
X62349184Y-84525000D01*
X60978370Y-84525000D01*
X61438286Y-84334967D01*
X61846533Y-83927431D01*
X62067748Y-83394688D01*
X62068251Y-82817843D01*
X61847967Y-82284714D01*
X61440431Y-81876467D01*
X60907688Y-81655252D01*
X60330843Y-81654749D01*
X59797714Y-81875033D01*
X59389467Y-82282569D01*
X59168252Y-82815312D01*
X59167749Y-83392157D01*
X51067750Y-83392157D01*
X51068251Y-82817843D01*
X50847967Y-82284714D01*
X50440431Y-81876467D01*
X49907688Y-81655252D01*
X49330843Y-81654749D01*
X48797714Y-81875033D01*
X48389467Y-82282569D01*
X48168252Y-82815312D01*
X48167749Y-83392157D01*
X35323000Y-83392157D01*
X35323000Y-81078911D01*
X64792831Y-81078911D01*
X65092486Y-81717556D01*
X65613730Y-82192914D01*
X66114090Y-82400160D01*
X66394000Y-82293824D01*
X66394000Y-80799000D01*
X66702000Y-80799000D01*
X66702000Y-82293824D01*
X66981910Y-82400160D01*
X67482270Y-82192914D01*
X68003514Y-81717556D01*
X68303169Y-81078911D01*
X68197439Y-80799000D01*
X66702000Y-80799000D01*
X66394000Y-80799000D01*
X64898561Y-80799000D01*
X64792831Y-81078911D01*
X35323000Y-81078911D01*
X35323000Y-79621993D01*
X38618796Y-79621993D01*
X38782510Y-79929869D01*
X39567291Y-80225492D01*
X40405464Y-80198289D01*
X41053490Y-79929869D01*
X41217204Y-79621993D01*
X39918000Y-78322789D01*
X38618796Y-79621993D01*
X35323000Y-79621993D01*
X35323000Y-77754291D01*
X37797508Y-77754291D01*
X37824711Y-78592464D01*
X38093131Y-79240490D01*
X38401007Y-79404204D01*
X39700211Y-78105000D01*
X40135789Y-78105000D01*
X41434993Y-79404204D01*
X41742869Y-79240490D01*
X42025131Y-78491177D01*
X42967662Y-78491177D01*
X43263906Y-79208143D01*
X43811971Y-79757166D01*
X44528419Y-80054661D01*
X45304177Y-80055338D01*
X45870925Y-79821163D01*
X46461379Y-80411616D01*
X46461381Y-80411619D01*
X46936986Y-80729407D01*
X47498000Y-80841000D01*
X51347995Y-80841000D01*
X51348000Y-80841001D01*
X51909014Y-80729407D01*
X52384619Y-80411619D01*
X52585148Y-80211089D01*
X64792831Y-80211089D01*
X64898561Y-80491000D01*
X66394000Y-80491000D01*
X66394000Y-78996176D01*
X66702000Y-78996176D01*
X66702000Y-80491000D01*
X68197439Y-80491000D01*
X68303169Y-80211089D01*
X68003514Y-79572444D01*
X67776012Y-79364969D01*
X69565820Y-79364969D01*
X69643643Y-79600229D01*
X70174548Y-79778815D01*
X70733382Y-79740637D01*
X71072357Y-79600229D01*
X71150180Y-79364969D01*
X70358000Y-78572789D01*
X69565820Y-79364969D01*
X67776012Y-79364969D01*
X67482270Y-79097086D01*
X66981910Y-78889840D01*
X66702000Y-78996176D01*
X66394000Y-78996176D01*
X66114090Y-78889840D01*
X65613730Y-79097086D01*
X65092486Y-79572444D01*
X64792831Y-80211089D01*
X52585148Y-80211089D01*
X52741129Y-80055108D01*
X53004177Y-80055338D01*
X53721143Y-79759094D01*
X54270166Y-79211029D01*
X54567661Y-78494581D01*
X54568338Y-77718823D01*
X54272094Y-77001857D01*
X53724029Y-76452834D01*
X53007581Y-76155339D01*
X52231823Y-76154662D01*
X51514857Y-76450906D01*
X50965834Y-76998971D01*
X50668339Y-77715419D01*
X50668170Y-77909000D01*
X48105237Y-77909000D01*
X47264619Y-77068381D01*
X46789014Y-76750593D01*
X46228000Y-76638999D01*
X46227995Y-76639000D01*
X46209870Y-76639000D01*
X46024029Y-76452834D01*
X45307581Y-76155339D01*
X44531823Y-76154662D01*
X43814857Y-76450906D01*
X43265834Y-76998971D01*
X42968339Y-77715419D01*
X42967662Y-78491177D01*
X42025131Y-78491177D01*
X42038492Y-78455709D01*
X42011289Y-77617536D01*
X41742869Y-76969510D01*
X41434993Y-76805796D01*
X40135789Y-78105000D01*
X39700211Y-78105000D01*
X38401007Y-76805796D01*
X38093131Y-76969510D01*
X37797508Y-77754291D01*
X35323000Y-77754291D01*
X35323000Y-76588007D01*
X38618796Y-76588007D01*
X39918000Y-77887211D01*
X41217204Y-76588007D01*
X41053490Y-76280131D01*
X40268709Y-75984508D01*
X39430536Y-76011711D01*
X38782510Y-76280131D01*
X38618796Y-76588007D01*
X35323000Y-76588007D01*
X35323000Y-70441899D01*
X40068000Y-70441899D01*
X40068000Y-70528101D01*
X40235465Y-71370005D01*
X40712365Y-72083736D01*
X41426096Y-72560636D01*
X42268000Y-72728101D01*
X43109904Y-72560636D01*
X43823635Y-72083736D01*
X44043289Y-71755000D01*
X54921999Y-71755000D01*
X54922000Y-71755005D01*
X54922000Y-76874995D01*
X54921999Y-76875000D01*
X55033593Y-77436014D01*
X55351381Y-77911619D01*
X55667892Y-78228129D01*
X55667662Y-78491177D01*
X55963906Y-79208143D01*
X56511971Y-79757166D01*
X57228419Y-80054661D01*
X58004177Y-80055338D01*
X58721143Y-79759094D01*
X59270166Y-79211029D01*
X59567661Y-78494581D01*
X59567942Y-78171548D01*
X68934185Y-78171548D01*
X68972363Y-78730382D01*
X69112771Y-79069357D01*
X69348031Y-79147180D01*
X70140211Y-78355000D01*
X70575789Y-78355000D01*
X71367969Y-79147180D01*
X71603229Y-79069357D01*
X71781815Y-78538452D01*
X71743637Y-77979618D01*
X71603229Y-77640643D01*
X71367969Y-77562820D01*
X70575789Y-78355000D01*
X70140211Y-78355000D01*
X69348031Y-77562820D01*
X69112771Y-77640643D01*
X68934185Y-78171548D01*
X59567942Y-78171548D01*
X59568338Y-77718823D01*
X59413891Y-77345031D01*
X69565820Y-77345031D01*
X70358000Y-78137211D01*
X71150180Y-77345031D01*
X71072357Y-77109771D01*
X70541452Y-76931185D01*
X69982618Y-76969363D01*
X69643643Y-77109771D01*
X69565820Y-77345031D01*
X59413891Y-77345031D01*
X59272094Y-77001857D01*
X58724029Y-76452834D01*
X58007581Y-76155339D01*
X57854000Y-76155205D01*
X57854000Y-74348580D01*
X58028000Y-74383816D01*
X59828000Y-74383816D01*
X59994760Y-74352438D01*
X60147919Y-74253883D01*
X60250668Y-74103505D01*
X60285358Y-73932200D01*
X67438000Y-73932200D01*
X67785171Y-73863144D01*
X68079487Y-73666487D01*
X70390945Y-71355030D01*
X70605550Y-71355217D01*
X71065143Y-71165316D01*
X71417081Y-70813993D01*
X71607783Y-70354731D01*
X71608217Y-69857450D01*
X71418316Y-69397857D01*
X71066993Y-69045919D01*
X70607731Y-68855217D01*
X70110450Y-68854783D01*
X69650857Y-69044684D01*
X69298919Y-69396007D01*
X69108217Y-69855269D01*
X69108028Y-70071997D01*
X67062226Y-72117800D01*
X60285461Y-72117800D01*
X60255438Y-71958240D01*
X60156883Y-71805081D01*
X60006505Y-71702332D01*
X59828000Y-71666184D01*
X59748261Y-71666184D01*
X59964619Y-71521619D01*
X60051094Y-71392200D01*
X64008000Y-71392200D01*
X64355171Y-71323144D01*
X64649487Y-71126487D01*
X66172159Y-69603816D01*
X67748000Y-69603816D01*
X67914760Y-69572438D01*
X68067919Y-69473883D01*
X68170668Y-69323505D01*
X68206816Y-69145000D01*
X68206816Y-66745000D01*
X68175438Y-66578240D01*
X68076883Y-66425081D01*
X67926505Y-66322332D01*
X67748000Y-66286184D01*
X65348000Y-66286184D01*
X65181240Y-66317562D01*
X65028081Y-66416117D01*
X64925332Y-66566495D01*
X64889184Y-66745000D01*
X64889184Y-68320841D01*
X63632226Y-69577800D01*
X60051094Y-69577800D01*
X59964619Y-69448381D01*
X59673608Y-69253934D01*
X59685164Y-69249148D01*
X60126604Y-68860122D01*
X60385568Y-68331776D01*
X60276128Y-68099000D01*
X59082000Y-68099000D01*
X59082000Y-68119000D01*
X58774000Y-68119000D01*
X58774000Y-68099000D01*
X57579872Y-68099000D01*
X57470432Y-68331776D01*
X57729396Y-68860122D01*
X57909680Y-69019000D01*
X57658000Y-69019000D01*
X57096986Y-69130593D01*
X56621381Y-69448381D01*
X56621379Y-69448384D01*
X55351381Y-70718381D01*
X55033593Y-71193986D01*
X54921999Y-71755000D01*
X44043289Y-71755000D01*
X44300535Y-71370005D01*
X44468000Y-70528101D01*
X44468000Y-70441899D01*
X44300535Y-69599995D01*
X43823635Y-68886264D01*
X43109904Y-68409364D01*
X42268000Y-68241899D01*
X41426096Y-68409364D01*
X40712365Y-68886264D01*
X40235465Y-69599995D01*
X40068000Y-70441899D01*
X35323000Y-70441899D01*
X35323000Y-67996706D01*
X35410219Y-67558224D01*
X57470432Y-67558224D01*
X57579872Y-67791000D01*
X58774000Y-67791000D01*
X58774000Y-66597773D01*
X59082000Y-66597773D01*
X59082000Y-67791000D01*
X60276128Y-67791000D01*
X60385568Y-67558224D01*
X60126604Y-67029878D01*
X59685164Y-66640852D01*
X59314774Y-66487444D01*
X59082000Y-66597773D01*
X58774000Y-66597773D01*
X58541226Y-66487444D01*
X58170836Y-66640852D01*
X57729396Y-67029878D01*
X57470432Y-67558224D01*
X35410219Y-67558224D01*
X35485885Y-67177829D01*
X35920453Y-66527452D01*
X36570829Y-66092885D01*
X37389706Y-65930000D01*
X70306294Y-65930000D01*
X71125171Y-66092885D01*
X71125171Y-66092885D01*
G37*
X71125171Y-66092885D02*
X71775548Y-66527453D01*
X72210115Y-67177829D01*
X72373000Y-67996706D01*
X72373000Y-84756894D01*
X71943870Y-84327014D01*
X71337645Y-84075287D01*
X70681235Y-84074715D01*
X70074571Y-84325383D01*
X69610014Y-84789130D01*
X69358287Y-85395355D01*
X69357715Y-86051765D01*
X69608383Y-86658429D01*
X70072130Y-87122986D01*
X70678355Y-87374713D01*
X71334765Y-87375285D01*
X71941429Y-87124617D01*
X72373000Y-86693798D01*
X72373000Y-88213294D01*
X72210115Y-89032171D01*
X71775548Y-89682547D01*
X71125171Y-90117115D01*
X70306294Y-90280000D01*
X37389706Y-90280000D01*
X36570829Y-90117115D01*
X35920453Y-89682548D01*
X35485885Y-89032171D01*
X35358579Y-88392157D01*
X35467749Y-88392157D01*
X35688033Y-88925286D01*
X36095569Y-89333533D01*
X36628312Y-89554748D01*
X37205157Y-89555251D01*
X37738286Y-89334967D01*
X38146533Y-88927431D01*
X38367748Y-88394688D01*
X38367750Y-88392157D01*
X46467749Y-88392157D01*
X46688033Y-88925286D01*
X47095569Y-89333533D01*
X47628312Y-89554748D01*
X48205157Y-89555251D01*
X48738286Y-89334967D01*
X49146533Y-88927431D01*
X49367748Y-88394688D01*
X49368251Y-87817843D01*
X49147967Y-87284714D01*
X48740431Y-86876467D01*
X48207688Y-86655252D01*
X47630843Y-86654749D01*
X47097714Y-86875033D01*
X46689467Y-87282569D01*
X46468252Y-87815312D01*
X46467749Y-88392157D01*
X38367750Y-88392157D01*
X38368251Y-87817843D01*
X38147967Y-87284714D01*
X37740431Y-86876467D01*
X37207688Y-86655252D01*
X36630843Y-86654749D01*
X36097714Y-86875033D01*
X35689467Y-87282569D01*
X35468252Y-87815312D01*
X35467749Y-88392157D01*
X35358579Y-88392157D01*
X35323000Y-88213294D01*
X35323000Y-83392157D01*
X48167749Y-83392157D01*
X48388033Y-83925286D01*
X48795569Y-84333533D01*
X49328312Y-84554748D01*
X49905157Y-84555251D01*
X50438286Y-84334967D01*
X50846533Y-83927431D01*
X51067748Y-83394688D01*
X51067750Y-83392157D01*
X59167749Y-83392157D01*
X59388033Y-83925286D01*
X59795569Y-84333533D01*
X60328312Y-84554748D01*
X60905157Y-84555251D01*
X60978370Y-84525000D01*
X62349184Y-84525000D01*
X62349184Y-86925000D01*
X62380562Y-87091760D01*
X62479117Y-87244919D01*
X62629495Y-87347668D01*
X62808000Y-87383816D01*
X65208000Y-87383816D01*
X65374760Y-87352438D01*
X65527919Y-87253883D01*
X65630668Y-87103505D01*
X65646577Y-87024942D01*
X66425847Y-87024942D01*
X66552841Y-87301665D01*
X67228911Y-87547172D01*
X67947470Y-87515271D01*
X68463159Y-87301665D01*
X68590153Y-87024942D01*
X67508000Y-85942789D01*
X66425847Y-87024942D01*
X65646577Y-87024942D01*
X65666816Y-86925000D01*
X65666816Y-85445911D01*
X65685828Y-85445911D01*
X65717729Y-86164470D01*
X65931335Y-86680159D01*
X66208058Y-86807153D01*
X67290211Y-85725000D01*
X67725789Y-85725000D01*
X68807942Y-86807153D01*
X69084665Y-86680159D01*
X69330172Y-86004089D01*
X69298271Y-85285530D01*
X69084665Y-84769841D01*
X68807942Y-84642847D01*
X67725789Y-85725000D01*
X67290211Y-85725000D01*
X66208058Y-84642847D01*
X65931335Y-84769841D01*
X65685828Y-85445911D01*
X65666816Y-85445911D01*
X65666816Y-84525000D01*
X65648011Y-84425058D01*
X66425847Y-84425058D01*
X67508000Y-85507211D01*
X68590153Y-84425058D01*
X68463159Y-84148335D01*
X67787089Y-83902828D01*
X67068530Y-83934729D01*
X66552841Y-84148335D01*
X66425847Y-84425058D01*
X65648011Y-84425058D01*
X65635438Y-84358240D01*
X65536883Y-84205081D01*
X65386505Y-84102332D01*
X65208000Y-84066184D01*
X62808000Y-84066184D01*
X62641240Y-84097562D01*
X62488081Y-84196117D01*
X62385332Y-84346495D01*
X62349184Y-84525000D01*
X60978370Y-84525000D01*
X61438286Y-84334967D01*
X61846533Y-83927431D01*
X62067748Y-83394688D01*
X62068251Y-82817843D01*
X61847967Y-82284714D01*
X61440431Y-81876467D01*
X60907688Y-81655252D01*
X60330843Y-81654749D01*
X59797714Y-81875033D01*
X59389467Y-82282569D01*
X59168252Y-82815312D01*
X59167749Y-83392157D01*
X51067750Y-83392157D01*
X51068251Y-82817843D01*
X50847967Y-82284714D01*
X50440431Y-81876467D01*
X49907688Y-81655252D01*
X49330843Y-81654749D01*
X48797714Y-81875033D01*
X48389467Y-82282569D01*
X48168252Y-82815312D01*
X48167749Y-83392157D01*
X35323000Y-83392157D01*
X35323000Y-81078911D01*
X64792831Y-81078911D01*
X65092486Y-81717556D01*
X65613730Y-82192914D01*
X66114090Y-82400160D01*
X66394000Y-82293824D01*
X66394000Y-80799000D01*
X66702000Y-80799000D01*
X66702000Y-82293824D01*
X66981910Y-82400160D01*
X67482270Y-82192914D01*
X68003514Y-81717556D01*
X68303169Y-81078911D01*
X68197439Y-80799000D01*
X66702000Y-80799000D01*
X66394000Y-80799000D01*
X64898561Y-80799000D01*
X64792831Y-81078911D01*
X35323000Y-81078911D01*
X35323000Y-79621993D01*
X38618796Y-79621993D01*
X38782510Y-79929869D01*
X39567291Y-80225492D01*
X40405464Y-80198289D01*
X41053490Y-79929869D01*
X41217204Y-79621993D01*
X39918000Y-78322789D01*
X38618796Y-79621993D01*
X35323000Y-79621993D01*
X35323000Y-77754291D01*
X37797508Y-77754291D01*
X37824711Y-78592464D01*
X38093131Y-79240490D01*
X38401007Y-79404204D01*
X39700211Y-78105000D01*
X40135789Y-78105000D01*
X41434993Y-79404204D01*
X41742869Y-79240490D01*
X42025131Y-78491177D01*
X42967662Y-78491177D01*
X43263906Y-79208143D01*
X43811971Y-79757166D01*
X44528419Y-80054661D01*
X45304177Y-80055338D01*
X45870925Y-79821163D01*
X46461379Y-80411616D01*
X46461381Y-80411619D01*
X46936986Y-80729407D01*
X47498000Y-80841000D01*
X51347995Y-80841000D01*
X51348000Y-80841001D01*
X51909014Y-80729407D01*
X52384619Y-80411619D01*
X52585148Y-80211089D01*
X64792831Y-80211089D01*
X64898561Y-80491000D01*
X66394000Y-80491000D01*
X66394000Y-78996176D01*
X66702000Y-78996176D01*
X66702000Y-80491000D01*
X68197439Y-80491000D01*
X68303169Y-80211089D01*
X68003514Y-79572444D01*
X67776012Y-79364969D01*
X69565820Y-79364969D01*
X69643643Y-79600229D01*
X70174548Y-79778815D01*
X70733382Y-79740637D01*
X71072357Y-79600229D01*
X71150180Y-79364969D01*
X70358000Y-78572789D01*
X69565820Y-79364969D01*
X67776012Y-79364969D01*
X67482270Y-79097086D01*
X66981910Y-78889840D01*
X66702000Y-78996176D01*
X66394000Y-78996176D01*
X66114090Y-78889840D01*
X65613730Y-79097086D01*
X65092486Y-79572444D01*
X64792831Y-80211089D01*
X52585148Y-80211089D01*
X52741129Y-80055108D01*
X53004177Y-80055338D01*
X53721143Y-79759094D01*
X54270166Y-79211029D01*
X54567661Y-78494581D01*
X54568338Y-77718823D01*
X54272094Y-77001857D01*
X53724029Y-76452834D01*
X53007581Y-76155339D01*
X52231823Y-76154662D01*
X51514857Y-76450906D01*
X50965834Y-76998971D01*
X50668339Y-77715419D01*
X50668170Y-77909000D01*
X48105237Y-77909000D01*
X47264619Y-77068381D01*
X46789014Y-76750593D01*
X46228000Y-76638999D01*
X46227995Y-76639000D01*
X46209870Y-76639000D01*
X46024029Y-76452834D01*
X45307581Y-76155339D01*
X44531823Y-76154662D01*
X43814857Y-76450906D01*
X43265834Y-76998971D01*
X42968339Y-77715419D01*
X42967662Y-78491177D01*
X42025131Y-78491177D01*
X42038492Y-78455709D01*
X42011289Y-77617536D01*
X41742869Y-76969510D01*
X41434993Y-76805796D01*
X40135789Y-78105000D01*
X39700211Y-78105000D01*
X38401007Y-76805796D01*
X38093131Y-76969510D01*
X37797508Y-77754291D01*
X35323000Y-77754291D01*
X35323000Y-76588007D01*
X38618796Y-76588007D01*
X39918000Y-77887211D01*
X41217204Y-76588007D01*
X41053490Y-76280131D01*
X40268709Y-75984508D01*
X39430536Y-76011711D01*
X38782510Y-76280131D01*
X38618796Y-76588007D01*
X35323000Y-76588007D01*
X35323000Y-70441899D01*
X40068000Y-70441899D01*
X40068000Y-70528101D01*
X40235465Y-71370005D01*
X40712365Y-72083736D01*
X41426096Y-72560636D01*
X42268000Y-72728101D01*
X43109904Y-72560636D01*
X43823635Y-72083736D01*
X44043289Y-71755000D01*
X54921999Y-71755000D01*
X54922000Y-71755005D01*
X54922000Y-76874995D01*
X54921999Y-76875000D01*
X55033593Y-77436014D01*
X55351381Y-77911619D01*
X55667892Y-78228129D01*
X55667662Y-78491177D01*
X55963906Y-79208143D01*
X56511971Y-79757166D01*
X57228419Y-80054661D01*
X58004177Y-80055338D01*
X58721143Y-79759094D01*
X59270166Y-79211029D01*
X59567661Y-78494581D01*
X59567942Y-78171548D01*
X68934185Y-78171548D01*
X68972363Y-78730382D01*
X69112771Y-79069357D01*
X69348031Y-79147180D01*
X70140211Y-78355000D01*
X70575789Y-78355000D01*
X71367969Y-79147180D01*
X71603229Y-79069357D01*
X71781815Y-78538452D01*
X71743637Y-77979618D01*
X71603229Y-77640643D01*
X71367969Y-77562820D01*
X70575789Y-78355000D01*
X70140211Y-78355000D01*
X69348031Y-77562820D01*
X69112771Y-77640643D01*
X68934185Y-78171548D01*
X59567942Y-78171548D01*
X59568338Y-77718823D01*
X59413891Y-77345031D01*
X69565820Y-77345031D01*
X70358000Y-78137211D01*
X71150180Y-77345031D01*
X71072357Y-77109771D01*
X70541452Y-76931185D01*
X69982618Y-76969363D01*
X69643643Y-77109771D01*
X69565820Y-77345031D01*
X59413891Y-77345031D01*
X59272094Y-77001857D01*
X58724029Y-76452834D01*
X58007581Y-76155339D01*
X57854000Y-76155205D01*
X57854000Y-74348580D01*
X58028000Y-74383816D01*
X59828000Y-74383816D01*
X59994760Y-74352438D01*
X60147919Y-74253883D01*
X60250668Y-74103505D01*
X60285358Y-73932200D01*
X67438000Y-73932200D01*
X67785171Y-73863144D01*
X68079487Y-73666487D01*
X70390945Y-71355030D01*
X70605550Y-71355217D01*
X71065143Y-71165316D01*
X71417081Y-70813993D01*
X71607783Y-70354731D01*
X71608217Y-69857450D01*
X71418316Y-69397857D01*
X71066993Y-69045919D01*
X70607731Y-68855217D01*
X70110450Y-68854783D01*
X69650857Y-69044684D01*
X69298919Y-69396007D01*
X69108217Y-69855269D01*
X69108028Y-70071997D01*
X67062226Y-72117800D01*
X60285461Y-72117800D01*
X60255438Y-71958240D01*
X60156883Y-71805081D01*
X60006505Y-71702332D01*
X59828000Y-71666184D01*
X59748261Y-71666184D01*
X59964619Y-71521619D01*
X60051094Y-71392200D01*
X64008000Y-71392200D01*
X64355171Y-71323144D01*
X64649487Y-71126487D01*
X66172159Y-69603816D01*
X67748000Y-69603816D01*
X67914760Y-69572438D01*
X68067919Y-69473883D01*
X68170668Y-69323505D01*
X68206816Y-69145000D01*
X68206816Y-66745000D01*
X68175438Y-66578240D01*
X68076883Y-66425081D01*
X67926505Y-66322332D01*
X67748000Y-66286184D01*
X65348000Y-66286184D01*
X65181240Y-66317562D01*
X65028081Y-66416117D01*
X64925332Y-66566495D01*
X64889184Y-66745000D01*
X64889184Y-68320841D01*
X63632226Y-69577800D01*
X60051094Y-69577800D01*
X59964619Y-69448381D01*
X59673608Y-69253934D01*
X59685164Y-69249148D01*
X60126604Y-68860122D01*
X60385568Y-68331776D01*
X60276128Y-68099000D01*
X59082000Y-68099000D01*
X59082000Y-68119000D01*
X58774000Y-68119000D01*
X58774000Y-68099000D01*
X57579872Y-68099000D01*
X57470432Y-68331776D01*
X57729396Y-68860122D01*
X57909680Y-69019000D01*
X57658000Y-69019000D01*
X57096986Y-69130593D01*
X56621381Y-69448381D01*
X56621379Y-69448384D01*
X55351381Y-70718381D01*
X55033593Y-71193986D01*
X54921999Y-71755000D01*
X44043289Y-71755000D01*
X44300535Y-71370005D01*
X44468000Y-70528101D01*
X44468000Y-70441899D01*
X44300535Y-69599995D01*
X43823635Y-68886264D01*
X43109904Y-68409364D01*
X42268000Y-68241899D01*
X41426096Y-68409364D01*
X40712365Y-68886264D01*
X40235465Y-69599995D01*
X40068000Y-70441899D01*
X35323000Y-70441899D01*
X35323000Y-67996706D01*
X35410219Y-67558224D01*
X57470432Y-67558224D01*
X57579872Y-67791000D01*
X58774000Y-67791000D01*
X58774000Y-66597773D01*
X59082000Y-66597773D01*
X59082000Y-67791000D01*
X60276128Y-67791000D01*
X60385568Y-67558224D01*
X60126604Y-67029878D01*
X59685164Y-66640852D01*
X59314774Y-66487444D01*
X59082000Y-66597773D01*
X58774000Y-66597773D01*
X58541226Y-66487444D01*
X58170836Y-66640852D01*
X57729396Y-67029878D01*
X57470432Y-67558224D01*
X35410219Y-67558224D01*
X35485885Y-67177829D01*
X35920453Y-66527452D01*
X36570829Y-66092885D01*
X37389706Y-65930000D01*
X70306294Y-65930000D01*
X71125171Y-66092885D01*
M02*
