%MOIN*%
%OFA0B0*%
%FSLAX46Y46*%
%IPPOS*%
%LPD*%
%ADD10C,0.0039370078740157488*%
%ADD11C,0.011811023622047244*%
%ADD12C,0.005905511811023622*%
%ADD23C,0.0039370078740157488*%
%ADD24C,0.011811023622047244*%
%ADD25C,0.005905511811023622*%
%ADD26C,0.0039370078740157488*%
%ADD27C,0.011811023622047244*%
%ADD28C,0.005905511811023622*%
%ADD29C,0.0039370078740157488*%
%ADD30C,0.011811023622047244*%
%ADD31C,0.005905511811023622*%
%ADD32C,0.0039370078740157488*%
%ADD33C,0.011811023622047244*%
%ADD34C,0.005905511811023622*%
%ADD35C,0.0039370078740157488*%
%ADD36C,0.011811023622047244*%
%ADD37C,0.005905511811023622*%
%ADD38C,0.0039370078740157488*%
%ADD39C,0.011811023622047244*%
%ADD40C,0.005905511811023622*%
%ADD41C,0.0039370078740157488*%
%ADD42C,0.011811023622047244*%
%ADD43C,0.005905511811023622*%
%ADD44C,0.0039370078740157488*%
%ADD45C,0.011811023622047244*%
%ADD46C,0.005905511811023622*%
G01G01*
D10*
D11*
X0001099178Y0000266910D02*
X0001103155Y0000266910D01*
X0001111109Y0000270887D01*
X0001115086Y0000274864D01*
X0001119063Y0000282818D01*
X0001119063Y0000290772D01*
X0001117074Y0000296737D01*
X0001111109Y0000306680D01*
X0001105144Y0000312645D01*
X0001095201Y0000318611D01*
X0001089236Y0000320599D01*
X0001081282Y0000320599D01*
X0001073328Y0000316622D01*
X0001069351Y0000312645D01*
X0001065374Y0000304691D01*
X0001065374Y0000300714D01*
X0001061397Y0000221175D02*
X0001055431Y0000254979D01*
X0001085259Y0000245037D02*
X0001043500Y0000286795D01*
X0001027592Y0000270887D01*
X0001025604Y0000264922D01*
X0001025604Y0000260945D01*
X0001027592Y0000254979D01*
X0001033558Y0000249014D01*
X0001039523Y0000247025D01*
X0001043500Y0000247025D01*
X0001049466Y0000249014D01*
X0001065374Y0000264922D01*
X0001007708Y0000243048D02*
X0001003731Y0000243048D01*
X0000997765Y0000241060D01*
X0000987823Y0000231117D01*
X0000985834Y0000225152D01*
X0000985834Y0000221175D01*
X0000987823Y0000215209D01*
X0000991800Y0000211232D01*
X0000999754Y0000207255D01*
X0001047477Y0000207255D01*
X0001021627Y0000181405D01*
X0000954018Y0000197313D02*
X0000950041Y0000193336D01*
X0000948053Y0000187370D01*
X0000948053Y0000183393D01*
X0000950041Y0000177428D01*
X0000956007Y0000167486D01*
X0000965949Y0000157543D01*
X0000975892Y0000151578D01*
X0000981857Y0000149589D01*
X0000985834Y0000149589D01*
X0000991800Y0000151578D01*
X0000995777Y0000155555D01*
X0000997765Y0000161520D01*
X0000997765Y0000165497D01*
X0000995777Y0000171463D01*
X0000989811Y0000181405D01*
X0000979869Y0000191347D01*
X0000969926Y0000197313D01*
X0000963961Y0000199301D01*
X0000959984Y0000199301D01*
X0000954018Y0000197313D01*
X0000926179Y0000169474D02*
X0000900329Y0000143624D01*
X0000930156Y0000141635D01*
X0000924191Y0000135670D01*
X0000922202Y0000129704D01*
X0000922202Y0000125727D01*
X0000924191Y0000119762D01*
X0000934133Y0000109819D01*
X0000940099Y0000107831D01*
X0000944076Y0000107831D01*
X0000950041Y0000109819D01*
X0000961972Y0000121750D01*
X0000963961Y0000127716D01*
X0000963961Y0000131693D01*
X0000888398Y0000123739D02*
X0000884421Y0000123739D01*
X0000878456Y0000121750D01*
X0000868513Y0000111808D01*
X0000866525Y0000105842D01*
X0000866525Y0000101865D01*
X0000868513Y0000095900D01*
X0000872490Y0000091923D01*
X0000880444Y0000087946D01*
X0000928168Y0000087946D01*
X0000902318Y0000062096D01*
D12*
X0001083609Y0000497008D02*
X0001122499Y0000645500D01*
X0000687629Y0000093957D02*
X0000535601Y0000058602D01*
X0001084316Y0000497715D02*
G75*
G02G02X0000978250Y0000398720I-0000102530J0000003535D01X0000978250Y0000398720I-0000102530J0000003535D01*
G01G01*
X0000786270Y0000199669D02*
G75*
G02G02X0000687275Y0000093603I-0000102530J-0000003535D01X0000687275Y0000093603I-0000102530J-0000003535D01*
G01G01*
X0000784856Y0000198255D02*
G75*
G02G02X0000979310Y0000399781I0000197989J0000003535D01X0000979310Y0000399781I0000197989J0000003535D01*
G01G01*
X0000270436Y0000486401D02*
X0000282810Y0000311392D01*
X0000867941Y0000900059D02*
X0000691164Y0000910665D01*
X0000694700Y0000910665D02*
X0000270436Y0000486401D01*
X0001122499Y0000645500D02*
X0000867941Y0000900059D01*
X0000535601Y0000058602D02*
X0000281042Y0000313160D01*
G04 next file*
G04 #@! TF.FileFunction,Legend,Bot*
G04 Gerber Fmt 4.6, Leading zero omitted, Abs format (unit mm)*
G04 Created by KiCad (PCBNEW 4.0.7) date 06/29/18 14:44:45*
G01G01*
G04 APERTURE LIST*
G04 APERTURE END LIST*
D23*
D24*
X0002359021Y0000266910D02*
X0002362998Y0000266910D01*
X0002370951Y0000270887D01*
X0002374928Y0000274864D01*
X0002378905Y0000282818D01*
X0002378905Y0000290772D01*
X0002376917Y0000296737D01*
X0002370951Y0000306680D01*
X0002364986Y0000312645D01*
X0002355044Y0000318611D01*
X0002349078Y0000320599D01*
X0002341124Y0000320599D01*
X0002333170Y0000316622D01*
X0002329193Y0000312645D01*
X0002325216Y0000304691D01*
X0002325216Y0000300714D01*
X0002321239Y0000221175D02*
X0002315274Y0000254979D01*
X0002345101Y0000245037D02*
X0002303343Y0000286795D01*
X0002287435Y0000270887D01*
X0002285446Y0000264922D01*
X0002285446Y0000260945D01*
X0002287435Y0000254979D01*
X0002293400Y0000249014D01*
X0002299366Y0000247025D01*
X0002303343Y0000247025D01*
X0002309308Y0000249014D01*
X0002325216Y0000264922D01*
X0002267550Y0000243048D02*
X0002263573Y0000243048D01*
X0002257608Y0000241060D01*
X0002247665Y0000231117D01*
X0002245677Y0000225152D01*
X0002245677Y0000221175D01*
X0002247665Y0000215209D01*
X0002251642Y0000211232D01*
X0002259596Y0000207255D01*
X0002307320Y0000207255D01*
X0002281469Y0000181405D01*
X0002213861Y0000197313D02*
X0002209884Y0000193336D01*
X0002207895Y0000187370D01*
X0002207895Y0000183393D01*
X0002209884Y0000177428D01*
X0002215849Y0000167486D01*
X0002225792Y0000157543D01*
X0002235734Y0000151578D01*
X0002241700Y0000149589D01*
X0002245677Y0000149589D01*
X0002251642Y0000151578D01*
X0002255619Y0000155555D01*
X0002257608Y0000161520D01*
X0002257608Y0000165497D01*
X0002255619Y0000171463D01*
X0002249654Y0000181405D01*
X0002239711Y0000191347D01*
X0002229769Y0000197313D01*
X0002223803Y0000199301D01*
X0002219826Y0000199301D01*
X0002213861Y0000197313D01*
X0002186022Y0000169474D02*
X0002160172Y0000143624D01*
X0002189999Y0000141635D01*
X0002184034Y0000135670D01*
X0002182045Y0000129704D01*
X0002182045Y0000125727D01*
X0002184034Y0000119762D01*
X0002193976Y0000109819D01*
X0002199941Y0000107831D01*
X0002203918Y0000107831D01*
X0002209884Y0000109819D01*
X0002221815Y0000121750D01*
X0002223803Y0000127716D01*
X0002223803Y0000131693D01*
X0002148241Y0000123739D02*
X0002144264Y0000123739D01*
X0002138298Y0000121750D01*
X0002128356Y0000111808D01*
X0002126367Y0000105842D01*
X0002126367Y0000101865D01*
X0002128356Y0000095900D01*
X0002132333Y0000091923D01*
X0002140287Y0000087946D01*
X0002188010Y0000087946D01*
X0002162160Y0000062096D01*
D25*
X0002343451Y0000497008D02*
X0002382342Y0000645500D01*
X0001947471Y0000093957D02*
X0001795443Y0000058602D01*
X0002344158Y0000497715D02*
G75*
G02G02X0002238092Y0000398720I-0000102530J0000003535D01X0002238092Y0000398720I-0000102530J0000003535D01*
G01G01*
X0002046113Y0000199669D02*
G75*
G02G02X0001947118Y0000093603I-0000102530J-0000003535D01X0001947118Y0000093603I-0000102530J-0000003535D01*
G01G01*
X0002044698Y0000198255D02*
G75*
G02G02X0002239153Y0000399781I0000197989J0000003535D01X0002239153Y0000399781I0000197989J0000003535D01*
G01G01*
X0001530278Y0000486401D02*
X0001542653Y0000311392D01*
X0002127783Y0000900059D02*
X0001951007Y0000910665D01*
X0001954542Y0000910665D02*
X0001530278Y0000486401D01*
X0002382342Y0000645500D02*
X0002127783Y0000900059D01*
X0001795443Y0000058602D02*
X0001540885Y0000313160D01*
G04 next file*
G04 #@! TF.FileFunction,Legend,Bot*
G04 Gerber Fmt 4.6, Leading zero omitted, Abs format (unit mm)*
G04 Created by KiCad (PCBNEW 4.0.7) date 06/29/18 14:44:45*
G01G01*
G04 APERTURE LIST*
G04 APERTURE END LIST*
D26*
D27*
X0003618863Y0000266910D02*
X0003622840Y0000266910D01*
X0003630794Y0000270887D01*
X0003634771Y0000274864D01*
X0003638748Y0000282818D01*
X0003638748Y0000290772D01*
X0003636760Y0000296737D01*
X0003630794Y0000306680D01*
X0003624829Y0000312645D01*
X0003614886Y0000318611D01*
X0003608921Y0000320599D01*
X0003600967Y0000320599D01*
X0003593013Y0000316622D01*
X0003589036Y0000312645D01*
X0003585059Y0000304691D01*
X0003585059Y0000300714D01*
X0003581082Y0000221175D02*
X0003575117Y0000254979D01*
X0003604944Y0000245037D02*
X0003563186Y0000286795D01*
X0003547278Y0000270887D01*
X0003545289Y0000264922D01*
X0003545289Y0000260945D01*
X0003547278Y0000254979D01*
X0003553243Y0000249014D01*
X0003559209Y0000247025D01*
X0003563186Y0000247025D01*
X0003569151Y0000249014D01*
X0003585059Y0000264922D01*
X0003527393Y0000243048D02*
X0003523416Y0000243048D01*
X0003517450Y0000241060D01*
X0003507508Y0000231117D01*
X0003505519Y0000225152D01*
X0003505519Y0000221175D01*
X0003507508Y0000215209D01*
X0003511485Y0000211232D01*
X0003519439Y0000207255D01*
X0003567163Y0000207255D01*
X0003541312Y0000181405D01*
X0003473704Y0000197313D02*
X0003469727Y0000193336D01*
X0003467738Y0000187370D01*
X0003467738Y0000183393D01*
X0003469727Y0000177428D01*
X0003475692Y0000167486D01*
X0003485635Y0000157543D01*
X0003495577Y0000151578D01*
X0003501542Y0000149589D01*
X0003505520Y0000149589D01*
X0003511485Y0000151578D01*
X0003515462Y0000155555D01*
X0003517450Y0000161520D01*
X0003517450Y0000165497D01*
X0003515462Y0000171463D01*
X0003509496Y0000181405D01*
X0003499554Y0000191347D01*
X0003489612Y0000197313D01*
X0003483646Y0000199301D01*
X0003479669Y0000199301D01*
X0003473704Y0000197313D01*
X0003445865Y0000169474D02*
X0003420014Y0000143624D01*
X0003449842Y0000141635D01*
X0003443876Y0000135670D01*
X0003441888Y0000129704D01*
X0003441888Y0000125727D01*
X0003443876Y0000119762D01*
X0003453819Y0000109819D01*
X0003459784Y0000107831D01*
X0003463761Y0000107831D01*
X0003469727Y0000109819D01*
X0003481658Y0000121750D01*
X0003483646Y0000127716D01*
X0003483646Y0000131693D01*
X0003408084Y0000123739D02*
X0003404107Y0000123739D01*
X0003398141Y0000121750D01*
X0003388199Y0000111808D01*
X0003386210Y0000105842D01*
X0003386210Y0000101865D01*
X0003388199Y0000095900D01*
X0003392176Y0000091923D01*
X0003400130Y0000087946D01*
X0003447853Y0000087946D01*
X0003422003Y0000062096D01*
D28*
X0003603294Y0000497008D02*
X0003642185Y0000645500D01*
X0003207314Y0000093957D02*
X0003055286Y0000058602D01*
X0003604001Y0000497715D02*
G75*
G02G02X0003497935Y0000398720I-0000102530J0000003535D01X0003497935Y0000398720I-0000102530J0000003535D01*
G01G01*
X0003305955Y0000199669D02*
G75*
G02G02X0003206960Y0000093603I-0000102530J-0000003535D01X0003206960Y0000093603I-0000102530J-0000003535D01*
G01G01*
X0003304541Y0000198255D02*
G75*
G02G02X0003498996Y0000399781I0000197989J0000003535D01X0003498996Y0000399781I0000197989J0000003535D01*
G01G01*
X0002790121Y0000486401D02*
X0002802495Y0000311392D01*
X0003387626Y0000900059D02*
X0003210850Y0000910665D01*
X0003214385Y0000910665D02*
X0002790121Y0000486401D01*
X0003642185Y0000645500D02*
X0003387626Y0000900059D01*
X0003055286Y0000058602D02*
X0002800728Y0000313160D01*
G04 next file*
G04 #@! TF.FileFunction,Legend,Bot*
G04 Gerber Fmt 4.6, Leading zero omitted, Abs format (unit mm)*
G04 Created by KiCad (PCBNEW 4.0.7) date 06/29/18 14:44:45*
G01G01*
G04 APERTURE LIST*
G04 APERTURE END LIST*
D29*
D30*
X0001099178Y0001526753D02*
X0001103155Y0001526753D01*
X0001111109Y0001530730D01*
X0001115086Y0001534707D01*
X0001119063Y0001542660D01*
X0001119063Y0001550614D01*
X0001117074Y0001556580D01*
X0001111109Y0001566522D01*
X0001105144Y0001572488D01*
X0001095201Y0001578453D01*
X0001089236Y0001580442D01*
X0001081282Y0001580442D01*
X0001073328Y0001576465D01*
X0001069351Y0001572488D01*
X0001065374Y0001564534D01*
X0001065374Y0001560557D01*
X0001061397Y0001481017D02*
X0001055431Y0001514822D01*
X0001085259Y0001504879D02*
X0001043500Y0001546637D01*
X0001027592Y0001530730D01*
X0001025604Y0001524764D01*
X0001025604Y0001520787D01*
X0001027592Y0001514822D01*
X0001033558Y0001508856D01*
X0001039523Y0001506868D01*
X0001043500Y0001506868D01*
X0001049466Y0001508856D01*
X0001065374Y0001524764D01*
X0001007708Y0001502891D02*
X0001003731Y0001502891D01*
X0000997765Y0001500902D01*
X0000987823Y0001490960D01*
X0000985834Y0001484994D01*
X0000985834Y0001481017D01*
X0000987823Y0001475052D01*
X0000991800Y0001471075D01*
X0000999754Y0001467098D01*
X0001047477Y0001467098D01*
X0001021627Y0001441247D01*
X0000954018Y0001457155D02*
X0000950041Y0001453178D01*
X0000948053Y0001447213D01*
X0000948053Y0001443236D01*
X0000950041Y0001437271D01*
X0000956007Y0001427328D01*
X0000965949Y0001417386D01*
X0000975892Y0001411420D01*
X0000981857Y0001409432D01*
X0000985834Y0001409432D01*
X0000991800Y0001411420D01*
X0000995777Y0001415397D01*
X0000997765Y0001421363D01*
X0000997765Y0001425340D01*
X0000995777Y0001431305D01*
X0000989811Y0001441247D01*
X0000979869Y0001451190D01*
X0000969926Y0001457155D01*
X0000963961Y0001459144D01*
X0000959984Y0001459144D01*
X0000954018Y0001457155D01*
X0000926179Y0001429317D02*
X0000900329Y0001403466D01*
X0000930156Y0001401478D01*
X0000924191Y0001395512D01*
X0000922202Y0001389547D01*
X0000922202Y0001385570D01*
X0000924191Y0001379604D01*
X0000934133Y0001369662D01*
X0000940099Y0001367673D01*
X0000944076Y0001367673D01*
X0000950041Y0001369662D01*
X0000961972Y0001381593D01*
X0000963961Y0001387558D01*
X0000963961Y0001391535D01*
X0000888398Y0001383581D02*
X0000884421Y0001383581D01*
X0000878456Y0001381593D01*
X0000868513Y0001371650D01*
X0000866525Y0001365685D01*
X0000866525Y0001361708D01*
X0000868513Y0001355743D01*
X0000872490Y0001351766D01*
X0000880444Y0001347789D01*
X0000928168Y0001347789D01*
X0000902318Y0001321938D01*
D31*
X0001083609Y0001756850D02*
X0001122499Y0001905343D01*
X0000687629Y0001353800D02*
X0000535601Y0001318444D01*
X0001084316Y0001757557D02*
G75*
G02G02X0000978250Y0001658563I-0000102530J0000003535D01X0000978250Y0001658563I-0000102530J0000003535D01*
G01G01*
X0000786270Y0001459512D02*
G75*
G02G02X0000687275Y0001353446I-0000102530J-0000003535D01X0000687275Y0001353446I-0000102530J-0000003535D01*
G01G01*
X0000784856Y0001458098D02*
G75*
G02G02X0000979310Y0001659623I0000197989J0000003535D01X0000979310Y0001659623I0000197989J0000003535D01*
G01G01*
X0000270436Y0001746244D02*
X0000282810Y0001571235D01*
X0000867941Y0002159901D02*
X0000691164Y0002170508D01*
X0000694700Y0002170508D02*
X0000270436Y0001746244D01*
X0001122499Y0001905343D02*
X0000867941Y0002159901D01*
X0000535601Y0001318444D02*
X0000281042Y0001573003D01*
G04 next file*
G04 #@! TF.FileFunction,Legend,Bot*
G04 Gerber Fmt 4.6, Leading zero omitted, Abs format (unit mm)*
G04 Created by KiCad (PCBNEW 4.0.7) date 06/29/18 14:44:45*
G01G01*
G04 APERTURE LIST*
G04 APERTURE END LIST*
D32*
D33*
X0001099178Y0002786595D02*
X0001103155Y0002786595D01*
X0001111109Y0002790572D01*
X0001115086Y0002794549D01*
X0001119063Y0002802503D01*
X0001119063Y0002810457D01*
X0001117074Y0002816422D01*
X0001111109Y0002826365D01*
X0001105144Y0002832330D01*
X0001095201Y0002838296D01*
X0001089236Y0002840284D01*
X0001081282Y0002840284D01*
X0001073328Y0002836307D01*
X0001069351Y0002832330D01*
X0001065374Y0002824376D01*
X0001065374Y0002820399D01*
X0001061397Y0002740860D02*
X0001055431Y0002774664D01*
X0001085259Y0002764722D02*
X0001043500Y0002806480D01*
X0001027592Y0002790572D01*
X0001025604Y0002784607D01*
X0001025604Y0002780630D01*
X0001027592Y0002774664D01*
X0001033558Y0002768699D01*
X0001039523Y0002766710D01*
X0001043500Y0002766710D01*
X0001049466Y0002768699D01*
X0001065374Y0002784607D01*
X0001007708Y0002762733D02*
X0001003731Y0002762733D01*
X0000997765Y0002760745D01*
X0000987823Y0002750802D01*
X0000985834Y0002744837D01*
X0000985834Y0002740860D01*
X0000987823Y0002734894D01*
X0000991800Y0002730917D01*
X0000999754Y0002726940D01*
X0001047477Y0002726940D01*
X0001021627Y0002701090D01*
X0000954018Y0002716998D02*
X0000950041Y0002713021D01*
X0000948053Y0002707056D01*
X0000948053Y0002703079D01*
X0000950041Y0002697113D01*
X0000956007Y0002687171D01*
X0000965949Y0002677228D01*
X0000975892Y0002671263D01*
X0000981857Y0002669274D01*
X0000985834Y0002669274D01*
X0000991800Y0002671263D01*
X0000995777Y0002675240D01*
X0000997765Y0002681205D01*
X0000997765Y0002685182D01*
X0000995777Y0002691148D01*
X0000989811Y0002701090D01*
X0000979869Y0002711032D01*
X0000969926Y0002716998D01*
X0000963961Y0002718986D01*
X0000959984Y0002718986D01*
X0000954018Y0002716998D01*
X0000926179Y0002689159D02*
X0000900329Y0002663309D01*
X0000930156Y0002661320D01*
X0000924191Y0002655355D01*
X0000922202Y0002649389D01*
X0000922202Y0002645412D01*
X0000924191Y0002639447D01*
X0000934133Y0002629504D01*
X0000940099Y0002627516D01*
X0000944076Y0002627516D01*
X0000950041Y0002629504D01*
X0000961972Y0002641435D01*
X0000963961Y0002647401D01*
X0000963961Y0002651378D01*
X0000888398Y0002643424D02*
X0000884421Y0002643424D01*
X0000878456Y0002641435D01*
X0000868513Y0002631493D01*
X0000866525Y0002625527D01*
X0000866525Y0002621550D01*
X0000868513Y0002615585D01*
X0000872490Y0002611608D01*
X0000880444Y0002607631D01*
X0000928168Y0002607631D01*
X0000902318Y0002581781D01*
D34*
X0001083609Y0003016693D02*
X0001122499Y0003165185D01*
X0000687629Y0002613642D02*
X0000535601Y0002578287D01*
X0001084316Y0003017400D02*
G75*
G02G02X0000978250Y0002918405I-0000102530J0000003535D01X0000978250Y0002918405I-0000102530J0000003535D01*
G01G01*
X0000786270Y0002719355D02*
G75*
G02G02X0000687275Y0002613288I-0000102530J-0000003535D01X0000687275Y0002613288I-0000102530J-0000003535D01*
G01G01*
X0000784856Y0002717940D02*
G75*
G02G02X0000979310Y0002919466I0000197989J0000003535D01X0000979310Y0002919466I0000197989J0000003535D01*
G01G01*
X0000270436Y0003006086D02*
X0000282810Y0002831077D01*
X0000867941Y0003419744D02*
X0000691164Y0003430350D01*
X0000694700Y0003430350D02*
X0000270436Y0003006086D01*
X0001122499Y0003165185D02*
X0000867941Y0003419744D01*
X0000535601Y0002578287D02*
X0000281042Y0002832845D01*
G04 next file*
G04 #@! TF.FileFunction,Legend,Bot*
G04 Gerber Fmt 4.6, Leading zero omitted, Abs format (unit mm)*
G04 Created by KiCad (PCBNEW 4.0.7) date 06/29/18 14:44:45*
G01G01*
G04 APERTURE LIST*
G04 APERTURE END LIST*
D35*
D36*
X0002359021Y0001526753D02*
X0002362998Y0001526753D01*
X0002370951Y0001530730D01*
X0002374928Y0001534707D01*
X0002378905Y0001542660D01*
X0002378905Y0001550614D01*
X0002376917Y0001556580D01*
X0002370951Y0001566522D01*
X0002364986Y0001572488D01*
X0002355044Y0001578453D01*
X0002349078Y0001580442D01*
X0002341124Y0001580442D01*
X0002333170Y0001576465D01*
X0002329193Y0001572488D01*
X0002325216Y0001564534D01*
X0002325216Y0001560557D01*
X0002321239Y0001481017D02*
X0002315274Y0001514822D01*
X0002345101Y0001504879D02*
X0002303343Y0001546637D01*
X0002287435Y0001530730D01*
X0002285446Y0001524764D01*
X0002285446Y0001520787D01*
X0002287435Y0001514822D01*
X0002293400Y0001508856D01*
X0002299366Y0001506868D01*
X0002303343Y0001506868D01*
X0002309308Y0001508856D01*
X0002325216Y0001524764D01*
X0002267550Y0001502891D02*
X0002263573Y0001502891D01*
X0002257608Y0001500902D01*
X0002247665Y0001490960D01*
X0002245677Y0001484994D01*
X0002245677Y0001481017D01*
X0002247665Y0001475052D01*
X0002251642Y0001471075D01*
X0002259596Y0001467098D01*
X0002307320Y0001467098D01*
X0002281469Y0001441247D01*
X0002213861Y0001457155D02*
X0002209884Y0001453178D01*
X0002207895Y0001447213D01*
X0002207895Y0001443236D01*
X0002209884Y0001437271D01*
X0002215849Y0001427328D01*
X0002225792Y0001417386D01*
X0002235734Y0001411420D01*
X0002241700Y0001409432D01*
X0002245677Y0001409432D01*
X0002251642Y0001411420D01*
X0002255619Y0001415397D01*
X0002257608Y0001421363D01*
X0002257608Y0001425340D01*
X0002255619Y0001431305D01*
X0002249654Y0001441247D01*
X0002239711Y0001451190D01*
X0002229769Y0001457155D01*
X0002223803Y0001459144D01*
X0002219826Y0001459144D01*
X0002213861Y0001457155D01*
X0002186022Y0001429317D02*
X0002160172Y0001403466D01*
X0002189999Y0001401478D01*
X0002184034Y0001395512D01*
X0002182045Y0001389547D01*
X0002182045Y0001385570D01*
X0002184034Y0001379604D01*
X0002193976Y0001369662D01*
X0002199941Y0001367673D01*
X0002203918Y0001367673D01*
X0002209884Y0001369662D01*
X0002221815Y0001381593D01*
X0002223803Y0001387558D01*
X0002223803Y0001391535D01*
X0002148241Y0001383581D02*
X0002144264Y0001383581D01*
X0002138298Y0001381593D01*
X0002128356Y0001371650D01*
X0002126367Y0001365685D01*
X0002126367Y0001361708D01*
X0002128356Y0001355743D01*
X0002132333Y0001351766D01*
X0002140287Y0001347789D01*
X0002188010Y0001347789D01*
X0002162160Y0001321938D01*
D37*
X0002343451Y0001756850D02*
X0002382342Y0001905343D01*
X0001947471Y0001353800D02*
X0001795443Y0001318444D01*
X0002344158Y0001757557D02*
G75*
G02G02X0002238092Y0001658563I-0000102530J0000003535D01X0002238092Y0001658563I-0000102530J0000003535D01*
G01G01*
X0002046113Y0001459512D02*
G75*
G02G02X0001947118Y0001353446I-0000102530J-0000003535D01X0001947118Y0001353446I-0000102530J-0000003535D01*
G01G01*
X0002044698Y0001458098D02*
G75*
G02G02X0002239153Y0001659623I0000197989J0000003535D01X0002239153Y0001659623I0000197989J0000003535D01*
G01G01*
X0001530278Y0001746244D02*
X0001542653Y0001571235D01*
X0002127783Y0002159901D02*
X0001951007Y0002170508D01*
X0001954542Y0002170508D02*
X0001530278Y0001746244D01*
X0002382342Y0001905343D02*
X0002127783Y0002159901D01*
X0001795443Y0001318444D02*
X0001540885Y0001573003D01*
G04 next file*
G04 #@! TF.FileFunction,Legend,Bot*
G04 Gerber Fmt 4.6, Leading zero omitted, Abs format (unit mm)*
G04 Created by KiCad (PCBNEW 4.0.7) date 06/29/18 14:44:45*
G01G01*
G04 APERTURE LIST*
G04 APERTURE END LIST*
D38*
D39*
X0003618863Y0001526753D02*
X0003622840Y0001526753D01*
X0003630794Y0001530730D01*
X0003634771Y0001534707D01*
X0003638748Y0001542660D01*
X0003638748Y0001550614D01*
X0003636760Y0001556580D01*
X0003630794Y0001566522D01*
X0003624829Y0001572488D01*
X0003614886Y0001578453D01*
X0003608921Y0001580442D01*
X0003600967Y0001580442D01*
X0003593013Y0001576465D01*
X0003589036Y0001572488D01*
X0003585059Y0001564534D01*
X0003585059Y0001560557D01*
X0003581082Y0001481017D02*
X0003575117Y0001514822D01*
X0003604944Y0001504879D02*
X0003563186Y0001546637D01*
X0003547278Y0001530730D01*
X0003545289Y0001524764D01*
X0003545289Y0001520787D01*
X0003547278Y0001514822D01*
X0003553243Y0001508856D01*
X0003559209Y0001506868D01*
X0003563186Y0001506868D01*
X0003569151Y0001508856D01*
X0003585059Y0001524764D01*
X0003527393Y0001502891D02*
X0003523416Y0001502891D01*
X0003517450Y0001500902D01*
X0003507508Y0001490960D01*
X0003505519Y0001484994D01*
X0003505519Y0001481017D01*
X0003507508Y0001475052D01*
X0003511485Y0001471075D01*
X0003519439Y0001467098D01*
X0003567163Y0001467098D01*
X0003541312Y0001441247D01*
X0003473704Y0001457155D02*
X0003469727Y0001453178D01*
X0003467738Y0001447213D01*
X0003467738Y0001443236D01*
X0003469727Y0001437271D01*
X0003475692Y0001427328D01*
X0003485635Y0001417386D01*
X0003495577Y0001411420D01*
X0003501542Y0001409432D01*
X0003505520Y0001409432D01*
X0003511485Y0001411420D01*
X0003515462Y0001415397D01*
X0003517450Y0001421363D01*
X0003517450Y0001425340D01*
X0003515462Y0001431305D01*
X0003509496Y0001441247D01*
X0003499554Y0001451190D01*
X0003489612Y0001457155D01*
X0003483646Y0001459144D01*
X0003479669Y0001459144D01*
X0003473704Y0001457155D01*
X0003445865Y0001429317D02*
X0003420014Y0001403466D01*
X0003449842Y0001401478D01*
X0003443876Y0001395512D01*
X0003441888Y0001389547D01*
X0003441888Y0001385570D01*
X0003443876Y0001379604D01*
X0003453819Y0001369662D01*
X0003459784Y0001367673D01*
X0003463761Y0001367673D01*
X0003469727Y0001369662D01*
X0003481658Y0001381593D01*
X0003483646Y0001387558D01*
X0003483646Y0001391535D01*
X0003408084Y0001383581D02*
X0003404107Y0001383581D01*
X0003398141Y0001381593D01*
X0003388199Y0001371650D01*
X0003386210Y0001365685D01*
X0003386210Y0001361708D01*
X0003388199Y0001355743D01*
X0003392176Y0001351766D01*
X0003400130Y0001347789D01*
X0003447853Y0001347789D01*
X0003422003Y0001321938D01*
D40*
X0003603294Y0001756850D02*
X0003642185Y0001905343D01*
X0003207314Y0001353800D02*
X0003055286Y0001318444D01*
X0003604001Y0001757557D02*
G75*
G02G02X0003497935Y0001658563I-0000102530J0000003535D01X0003497935Y0001658563I-0000102530J0000003535D01*
G01G01*
X0003305955Y0001459512D02*
G75*
G02G02X0003206960Y0001353446I-0000102530J-0000003535D01X0003206960Y0001353446I-0000102530J-0000003535D01*
G01G01*
X0003304541Y0001458098D02*
G75*
G02G02X0003498996Y0001659623I0000197989J0000003535D01X0003498996Y0001659623I0000197989J0000003535D01*
G01G01*
X0002790121Y0001746244D02*
X0002802495Y0001571235D01*
X0003387626Y0002159901D02*
X0003210850Y0002170508D01*
X0003214385Y0002170508D02*
X0002790121Y0001746244D01*
X0003642185Y0001905343D02*
X0003387626Y0002159901D01*
X0003055286Y0001318444D02*
X0002800728Y0001573003D01*
G04 next file*
G04 #@! TF.FileFunction,Legend,Bot*
G04 Gerber Fmt 4.6, Leading zero omitted, Abs format (unit mm)*
G04 Created by KiCad (PCBNEW 4.0.7) date 06/29/18 14:44:45*
G01G01*
G04 APERTURE LIST*
G04 APERTURE END LIST*
D41*
D42*
X0002359021Y0002786595D02*
X0002362998Y0002786595D01*
X0002370951Y0002790572D01*
X0002374928Y0002794549D01*
X0002378905Y0002802503D01*
X0002378905Y0002810457D01*
X0002376917Y0002816422D01*
X0002370951Y0002826365D01*
X0002364986Y0002832330D01*
X0002355044Y0002838296D01*
X0002349078Y0002840284D01*
X0002341124Y0002840284D01*
X0002333170Y0002836307D01*
X0002329193Y0002832330D01*
X0002325216Y0002824376D01*
X0002325216Y0002820399D01*
X0002321239Y0002740860D02*
X0002315274Y0002774664D01*
X0002345101Y0002764722D02*
X0002303343Y0002806480D01*
X0002287435Y0002790572D01*
X0002285446Y0002784607D01*
X0002285446Y0002780630D01*
X0002287435Y0002774664D01*
X0002293400Y0002768699D01*
X0002299366Y0002766710D01*
X0002303343Y0002766710D01*
X0002309308Y0002768699D01*
X0002325216Y0002784607D01*
X0002267550Y0002762733D02*
X0002263573Y0002762733D01*
X0002257608Y0002760745D01*
X0002247665Y0002750802D01*
X0002245677Y0002744837D01*
X0002245677Y0002740860D01*
X0002247665Y0002734894D01*
X0002251642Y0002730917D01*
X0002259596Y0002726940D01*
X0002307320Y0002726940D01*
X0002281469Y0002701090D01*
X0002213861Y0002716998D02*
X0002209884Y0002713021D01*
X0002207895Y0002707056D01*
X0002207895Y0002703079D01*
X0002209884Y0002697113D01*
X0002215849Y0002687171D01*
X0002225792Y0002677228D01*
X0002235734Y0002671263D01*
X0002241700Y0002669274D01*
X0002245677Y0002669274D01*
X0002251642Y0002671263D01*
X0002255619Y0002675240D01*
X0002257608Y0002681205D01*
X0002257608Y0002685182D01*
X0002255619Y0002691148D01*
X0002249654Y0002701090D01*
X0002239711Y0002711032D01*
X0002229769Y0002716998D01*
X0002223803Y0002718986D01*
X0002219826Y0002718986D01*
X0002213861Y0002716998D01*
X0002186022Y0002689159D02*
X0002160172Y0002663309D01*
X0002189999Y0002661320D01*
X0002184034Y0002655355D01*
X0002182045Y0002649389D01*
X0002182045Y0002645412D01*
X0002184034Y0002639447D01*
X0002193976Y0002629504D01*
X0002199941Y0002627516D01*
X0002203918Y0002627516D01*
X0002209884Y0002629504D01*
X0002221815Y0002641435D01*
X0002223803Y0002647401D01*
X0002223803Y0002651378D01*
X0002148241Y0002643424D02*
X0002144264Y0002643424D01*
X0002138298Y0002641435D01*
X0002128356Y0002631493D01*
X0002126367Y0002625527D01*
X0002126367Y0002621550D01*
X0002128356Y0002615585D01*
X0002132333Y0002611608D01*
X0002140287Y0002607631D01*
X0002188010Y0002607631D01*
X0002162160Y0002581781D01*
D43*
X0002343451Y0003016693D02*
X0002382342Y0003165185D01*
X0001947471Y0002613642D02*
X0001795443Y0002578287D01*
X0002344158Y0003017400D02*
G75*
G02G02X0002238092Y0002918405I-0000102530J0000003535D01X0002238092Y0002918405I-0000102530J0000003535D01*
G01G01*
X0002046113Y0002719355D02*
G75*
G02G02X0001947118Y0002613288I-0000102530J-0000003535D01X0001947118Y0002613288I-0000102530J-0000003535D01*
G01G01*
X0002044698Y0002717940D02*
G75*
G02G02X0002239153Y0002919466I0000197989J0000003535D01X0002239153Y0002919466I0000197989J0000003535D01*
G01G01*
X0001530278Y0003006086D02*
X0001542653Y0002831077D01*
X0002127783Y0003419744D02*
X0001951007Y0003430350D01*
X0001954542Y0003430350D02*
X0001530278Y0003006086D01*
X0002382342Y0003165185D02*
X0002127783Y0003419744D01*
X0001795443Y0002578287D02*
X0001540885Y0002832845D01*
G04 next file*
G04 #@! TF.FileFunction,Legend,Bot*
G04 Gerber Fmt 4.6, Leading zero omitted, Abs format (unit mm)*
G04 Created by KiCad (PCBNEW 4.0.7) date 06/29/18 14:44:45*
G01G01*
G04 APERTURE LIST*
G04 APERTURE END LIST*
D44*
D45*
X0003618863Y0002786595D02*
X0003622840Y0002786595D01*
X0003630794Y0002790572D01*
X0003634771Y0002794549D01*
X0003638748Y0002802503D01*
X0003638748Y0002810457D01*
X0003636760Y0002816422D01*
X0003630794Y0002826365D01*
X0003624829Y0002832330D01*
X0003614886Y0002838296D01*
X0003608921Y0002840284D01*
X0003600967Y0002840284D01*
X0003593013Y0002836307D01*
X0003589036Y0002832330D01*
X0003585059Y0002824376D01*
X0003585059Y0002820399D01*
X0003581082Y0002740860D02*
X0003575117Y0002774664D01*
X0003604944Y0002764722D02*
X0003563186Y0002806480D01*
X0003547278Y0002790572D01*
X0003545289Y0002784607D01*
X0003545289Y0002780630D01*
X0003547278Y0002774664D01*
X0003553243Y0002768699D01*
X0003559209Y0002766710D01*
X0003563186Y0002766710D01*
X0003569151Y0002768699D01*
X0003585059Y0002784607D01*
X0003527393Y0002762733D02*
X0003523416Y0002762733D01*
X0003517450Y0002760745D01*
X0003507508Y0002750802D01*
X0003505519Y0002744837D01*
X0003505519Y0002740860D01*
X0003507508Y0002734894D01*
X0003511485Y0002730917D01*
X0003519439Y0002726940D01*
X0003567163Y0002726940D01*
X0003541312Y0002701090D01*
X0003473704Y0002716998D02*
X0003469727Y0002713021D01*
X0003467738Y0002707056D01*
X0003467738Y0002703079D01*
X0003469727Y0002697113D01*
X0003475692Y0002687171D01*
X0003485635Y0002677228D01*
X0003495577Y0002671263D01*
X0003501542Y0002669274D01*
X0003505520Y0002669274D01*
X0003511485Y0002671263D01*
X0003515462Y0002675240D01*
X0003517450Y0002681205D01*
X0003517450Y0002685182D01*
X0003515462Y0002691148D01*
X0003509496Y0002701090D01*
X0003499554Y0002711032D01*
X0003489612Y0002716998D01*
X0003483646Y0002718986D01*
X0003479669Y0002718986D01*
X0003473704Y0002716998D01*
X0003445865Y0002689159D02*
X0003420014Y0002663309D01*
X0003449842Y0002661320D01*
X0003443876Y0002655355D01*
X0003441888Y0002649389D01*
X0003441888Y0002645412D01*
X0003443876Y0002639447D01*
X0003453819Y0002629504D01*
X0003459784Y0002627516D01*
X0003463761Y0002627516D01*
X0003469727Y0002629504D01*
X0003481658Y0002641435D01*
X0003483646Y0002647401D01*
X0003483646Y0002651378D01*
X0003408084Y0002643424D02*
X0003404107Y0002643424D01*
X0003398141Y0002641435D01*
X0003388199Y0002631493D01*
X0003386210Y0002625527D01*
X0003386210Y0002621550D01*
X0003388199Y0002615585D01*
X0003392176Y0002611608D01*
X0003400130Y0002607631D01*
X0003447853Y0002607631D01*
X0003422003Y0002581781D01*
D46*
X0003603294Y0003016693D02*
X0003642185Y0003165185D01*
X0003207314Y0002613642D02*
X0003055286Y0002578287D01*
X0003604001Y0003017400D02*
G75*
G02G02X0003497935Y0002918405I-0000102530J0000003535D01X0003497935Y0002918405I-0000102530J0000003535D01*
G01G01*
X0003305955Y0002719355D02*
G75*
G02G02X0003206960Y0002613288I-0000102530J-0000003535D01X0003206960Y0002613288I-0000102530J-0000003535D01*
G01G01*
X0003304541Y0002717940D02*
G75*
G02G02X0003498996Y0002919466I0000197989J0000003535D01X0003498996Y0002919466I0000197989J0000003535D01*
G01G01*
X0002790121Y0003006086D02*
X0002802495Y0002831077D01*
X0003387626Y0003419744D02*
X0003210850Y0003430350D01*
X0003214385Y0003430350D02*
X0002790121Y0003006086D01*
X0003642185Y0003165185D02*
X0003387626Y0003419744D01*
X0003055286Y0002578287D02*
X0002800728Y0002832845D01*
M02*