<?xml version="1.0" standalone="no"?>
 <!DOCTYPE svg PUBLIC "-//W3C//DTD SVG 1.1//EN" 
 "http://www.w3.org/Graphics/SVG/1.1/DTD/svg11.dtd"> 
<svg xmlns="http://www.w3.org/2000/svg" version="1.1" 
    width="5.64134cm" height="4.16052cm" viewBox="0 0 22210 16380 ">
<title>SVG Picture created as project-F.Cu.svg date 2018/08/11 21:03:33 </title>
  <desc>Picture generated by PCBNEW </desc>
<g style="fill:#000000; fill-opacity:1;stroke:#000000; stroke-opacity:1;
stroke-linecap:round; stroke-linejoin:round; "
 transform="translate(0 0) scale(1 1)">
</g>
<g style="fill:#C2C200; fill-opacity:0.0; 
stroke:#C2C200; stroke-width:-0.000393701; stroke-opacity:1; 
stroke-linecap:round; stroke-linejoin:round;">
</g>
<g style="fill:#C2C200; fill-opacity:0.0; 
stroke:#C2C200; stroke-width:59.0551; stroke-opacity:1; 
stroke-linecap:round; stroke-linejoin:round;">
<path d="M6500 12062
L6500 4062
" />
<path d="M15500 13062
L7500 13062
" />
<path d="M16500 4062
L16500 12062
" />
<path d="M7500 3062
L15500 3062
" />
<path d="M7500 3062.99 A1000 1000 0.0 0 0 6500 4062.99 " />
<path d="M6500 12063 A1000 1000 0.0 0 0 7500 13063 " />
<path d="M15500 13063 A1000 1000 0.0 0 0 16500 12063 " />
<path d="M16500 4062.99 A1000 1000 0.0 0 0 15500 3062.99 " />
</g>
<g style="fill:#840000; fill-opacity:0.0; 
stroke:#840000; stroke-width:59.0551; stroke-opacity:1; 
stroke-linecap:round; stroke-linejoin:round;">
</g>
<g style="fill:#840000; fill-opacity:1.0; 
stroke:#840000; stroke-width:0; stroke-opacity:1; 
stroke-linecap:round; stroke-linejoin:round;">
<circle cx="10750" cy="8812.99" r="3500" /> 
</g>
<g style="fill:#840000; fill-opacity:1.0; 
stroke:#840000; stroke-width:39.3701; stroke-opacity:1; 
stroke-linecap:round; stroke-linejoin:round;">
</g>
<g style="fill:#840000; fill-opacity:1.0; 
stroke:#840000; stroke-width:0; stroke-opacity:1; 
stroke-linecap:round; stroke-linejoin:round;">
<polyline style="fill-rule:evenodd;"
points="6507,5984
7921,4570
8628,5277
7214,6691
6507,5984
" /> 
<polyline style="fill-rule:evenodd;"
points="12871,12348
14285,10934
14992,11641
13578,13055
12871,12348
" /> 
<polyline style="fill-rule:evenodd;"
points="12665,14728
13334,14728
13334,15397
12665,15397
12665,14728
" /> 
</g>
<g style="fill:#840000; fill-opacity:1.0; 
stroke:#840000; stroke-width:669.291; stroke-opacity:1; 
stroke-linecap:round; stroke-linejoin:round;">
</g>
<g style="fill:#840000; fill-opacity:0.0; 
stroke:#840000; stroke-width:669.291; stroke-opacity:1; 
stroke-linecap:round; stroke-linejoin:round;">
<path d="M12000 15062
L12000 15062
" />
<path d="M11000 15062
L11000 15062
" />
<path d="M10000 15062
L10000 15062
" />
<path d="M9000 15062
L9000 15062
" />
<path d="M8000 15062
L8000 15062
" />
</g>
<g style="fill:#840000; fill-opacity:0.0; 
stroke:#840000; stroke-width:0; stroke-opacity:1; 
stroke-linecap:round; stroke-linejoin:round;">
</g>
<g style="fill:#840000; fill-opacity:1.0; 
stroke:#840000; stroke-width:0; stroke-opacity:1; 
stroke-linecap:round; stroke-linejoin:round;">
<polyline style="fill-rule:evenodd;"
points="14665,3228
15334,3228
15334,3897
14665,3897
14665,3228
" /> 
</g>
<g style="fill:#840000; fill-opacity:1.0; 
stroke:#840000; stroke-width:669.291; stroke-opacity:1; 
stroke-linecap:round; stroke-linejoin:round;">
</g>
<g style="fill:#840000; fill-opacity:0.0; 
stroke:#840000; stroke-width:669.291; stroke-opacity:1; 
stroke-linecap:round; stroke-linejoin:round;">
<path d="M14000 3562
L14000 3562
" />
<path d="M13000 3562
L13000 3562
" />
<path d="M12000 3562
L12000 3562
" />
<path d="M11000 3562
L11000 3562
" />
<path d="M10000 3562
L10000 3562
" />
<path d="M9000 3562
L9000 3562
" />
<path d="M8000 3562
L8000 3562
" />
</g>
<g style="fill:#840000; fill-opacity:1.0; 
stroke:#840000; stroke-width:0; stroke-opacity:1; 
stroke-linecap:round; stroke-linejoin:round;">
<circle cx="15832.7" cy="4724.41" r="177.165" /> 
</g>
<g style="fill:#840000; fill-opacity:1.0; 
stroke:#840000; stroke-width:39.3701; stroke-opacity:1; 
stroke-linecap:round; stroke-linejoin:round;">
</g>
<g style="fill:#840000; fill-opacity:1.0; 
stroke:#840000; stroke-width:0; stroke-opacity:1; 
stroke-linecap:round; stroke-linejoin:round;">
<polyline style="fill-rule:evenodd;"
points="15242,7283
14257,7283
14257,6811
15242,6811
15242,7283
" /> 
<polyline style="fill-rule:evenodd;"
points="15242,6283
14257,6283
14257,5811
15242,5811
15242,6283
" /> 
<polyline style="fill-rule:evenodd;"
points="15242,5314
14257,5314
14257,4842
15242,4842
15242,5314
" /> 
<circle cx="15832.7" cy="7401.57" r="177.165" /> 
</g>
<g style="fill:#840000; fill-opacity:1.0; 
stroke:#840000; stroke-width:39.3701; stroke-opacity:1; 
stroke-linecap:round; stroke-linejoin:round;">
</g>
<g style="fill:#C2C2C2; fill-opacity:1.0; 
stroke:#C2C2C2; stroke-width:39.3701; stroke-opacity:1; 
stroke-linecap:round; stroke-linejoin:round;">
</g>
<g style="fill:#C2C2C2; fill-opacity:1.0; 
stroke:#C2C2C2; stroke-width:0; stroke-opacity:1; 
stroke-linecap:round; stroke-linejoin:round;">
<circle cx="7568.02" cy="5631.01" r="118.11" /> 
</g>
<g style="fill:#C2C2C2; fill-opacity:1.0; 
stroke:#C2C2C2; stroke-width:39.3701; stroke-opacity:1; 
stroke-linecap:round; stroke-linejoin:round;">
</g>
<g style="fill:#C2C2C2; fill-opacity:1.0; 
stroke:#C2C2C2; stroke-width:0; stroke-opacity:1; 
stroke-linecap:round; stroke-linejoin:round;">
<circle cx="14000" cy="12063" r="118.11" /> 
</g>
<g style="fill:#C2C2C2; fill-opacity:1.0; 
stroke:#C2C2C2; stroke-width:39.3701; stroke-opacity:1; 
stroke-linecap:round; stroke-linejoin:round;">
</g>
<g style="fill:#840000; fill-opacity:1.0; 
stroke:#840000; stroke-width:39.3701; stroke-opacity:1; 
stroke-linecap:round; stroke-linejoin:round;">
</g>
<g style="fill:#840000; fill-opacity:1.0; 
stroke:#840000; stroke-width:240; stroke-opacity:1; 
stroke-linecap:round; stroke-linejoin:round;">
</g>
<g style="fill:#840000; fill-opacity:0.0; 
stroke:#840000; stroke-width:240; stroke-opacity:1; 
stroke-linecap:round; stroke-linejoin:round;">
<path d="M7681 5631
L7568 5631
" />
<path d="M14000 12062
L13931 11994
" />
<path d="M7681 5631
L9000 4312
" />
<path d="M9000 4312
L9000 3562
" />
<path d="M10000 3562
L10000 4062
" />
<path d="M13984 4312
L14750 5078
" />
<path d="M10250 4312
L13984 4312
" />
<path d="M10000 4062
L10250 4312
" />
<path d="M14750 6047
L13515 6047
" />
<path d="M13515 6047
L10750 8812
" />
</g>
<g style="fill:#840000; fill-opacity:1.0; 
stroke:#840000; stroke-width:78.7402; stroke-opacity:1; 
stroke-linecap:round; stroke-linejoin:round;">
<polyline style="fill-rule:evenodd;"
points="7527,3357
7488,3552
7488,3573
7527,3768
7638,3934
7804,4045
8000,4084
8195,4045
8361,3934
8472,3768
8473,3767
8544,3912
8713,4060
8850,4117
8939,4073
8939,3623
8931,3623
8931,3502
8939,3502
8939,3494
9060,3494
9060,3502
9068,3502
9068,3623
9060,3623
9060,4073
9149,4117
9286,4060
9455,3912
9526,3767
9527,3768
9638,3934
9702,3978
9702,4062
9725,4176
9789,4273
10039,4523
10136,4587
10250,4610
13861,4610
14079,4828
14077,4842
14077,5314
14089,5380
14128,5440
14187,5481
14257,5495
15242,5495
15307,5483
15368,5444
15408,5385
15422,5314
15422,4842
15413,4794
15478,4794
15532,4924
15631,5024
15761,5078
15902,5078
16033,5024
16132,4925
16186,4795
16187,4654
16133,4523
16033,4424
15903,4370
15762,4370
15632,4423
15532,4523
15478,4653
15478,4794
15413,4794
15410,4776
15371,4716
15312,4676
15242,4661
14753,4661
14194,4102
14128,4059
14195,4045
14361,3934
14472,3768
14484,3709
14484,3897
14497,3963
14535,4023
14595,4064
14665,4078
15334,4078
15400,4065
15460,4027
15501,3967
15515,3897
15515,3276
15802,3333
16058,3504
16229,3760
16293,4083
16293,12042
16229,12365
16058,12621
15802,12792
15479,12856
14116,12856
14369,12602
14369,12518
13931,12080
13926,12086
13840,12000
13846,11994
14017,11994
14455,12432
14539,12432
15195,11777
15232,11689
15232,11593
15195,11505
14893,11203
14808,11203
14017,11994
13846,11994
13408,11557
13323,11557
12668,12212
12631,12300
12631,12396
12668,12484
12970,12786
13055,12786
13012,12828
13040,12856
7520,12856
7197,12792
6941,12621
6770,12365
6706,12042
6706,9541
7072,9541
7630,10893
8664,11928
10015,12489
11478,12490
12830,11932
13376,11386
13494,11386
13494,11471
13931,11909
14723,11118
14723,11033
14421,10731
14333,10694
14237,10694
14149,10731
13494,11386
13376,11386
13865,10898
14426,9547
14427,8084
14174,7471
15478,7471
15532,7602
15631,7701
15761,7755
15902,7755
16033,7702
16132,7602
16186,7472
16187,7331
16133,7201
16033,7101
15903,7047
15762,7047
15632,7101
15532,7200
15478,7330
15478,7471
14174,7471
14156,7428
14187,7449
14257,7464
15242,7464
15307,7451
15368,7412
15408,7353
15422,7283
15422,6811
15410,6745
15371,6685
15312,6644
15242,6630
14257,6630
14192,6642
14131,6681
14091,6740
14077,6811
14077,7236
13869,6732
13560,6423
13638,6344
14088,6344
14089,6349
14128,6409
14187,6449
14257,6464
15242,6464
15307,6451
15368,6412
15408,6353
15422,6283
15422,5811
15410,5745
15371,5685
15312,5644
15242,5630
14257,5630
14192,5642
14131,5681
14091,5740
14089,5750
13515,5750
13402,5772
13305,5837
13140,6002
12835,5697
11484,5136
10021,5135
8669,5693
7634,6727
7073,8078
7072,9541
6706,9541
6706,6522
6734,6550
6776,6507
6776,6592
7078,6894
7166,6931
7262,6931
7350,6894
8005,6239
8005,6154
7568,5716
7562,5722
7476,5636
7482,5631
7653,5631
8091,6068
8176,6068
8831,5413
8868,5325
8868,5229
8831,5141
8529,4839
8444,4839
7653,5631
7482,5631
7044,5193
6960,5193
6706,5446
6706,5023
7130,5023
7130,5107
7568,5545
8359,4754
8359,4669
8057,4367
7969,4330
7873,4330
7785,4367
7130,5023
6706,5023
6706,4083
6770,3760
6941,3504
7197,3333
7520,3269
7585,3269
7527,3357
" /> 
</g>
<g style="fill:#FFFFFF; fill-opacity:1.0; 
stroke:#FFFFFF; stroke-width:78.7402; stroke-opacity:1; 
stroke-linecap:round; stroke-linejoin:round;">
</g>
<g style="fill:#FFFFFF; fill-opacity:1.0; 
stroke:#FFFFFF; stroke-width:0; stroke-opacity:1; 
stroke-linecap:round; stroke-linejoin:round;">
<circle cx="7568.02" cy="5631.01" r="78.7402" /> 
</g>
<g style="fill:#FFFFFF; fill-opacity:1.0; 
stroke:#FFFFFF; stroke-width:39.3701; stroke-opacity:1; 
stroke-linecap:round; stroke-linejoin:round;">
</g>
<g style="fill:#FFFFFF; fill-opacity:1.0; 
stroke:#FFFFFF; stroke-width:0; stroke-opacity:1; 
stroke-linecap:round; stroke-linejoin:round;">
<circle cx="14000" cy="12063" r="78.7402" /> 
</g>
<g style="fill:#FFFFFF; fill-opacity:1.0; 
stroke:#FFFFFF; stroke-width:39.3701; stroke-opacity:1; 
stroke-linecap:round; stroke-linejoin:round;">
</g>
<g style="fill:#FFFFFF; fill-opacity:1.0; 
stroke:#FFFFFF; stroke-width:0; stroke-opacity:1; 
stroke-linecap:round; stroke-linejoin:round;">
<circle cx="13000" cy="15063" r="196.85" /> 
</g>
<g style="fill:#FFFFFF; fill-opacity:1.0; 
stroke:#FFFFFF; stroke-width:39.3701; stroke-opacity:1; 
stroke-linecap:round; stroke-linejoin:round;">
</g>
<g style="fill:#FFFFFF; fill-opacity:1.0; 
stroke:#FFFFFF; stroke-width:0; stroke-opacity:1; 
stroke-linecap:round; stroke-linejoin:round;">
<circle cx="12000" cy="15063" r="196.85" /> 
</g>
<g style="fill:#FFFFFF; fill-opacity:1.0; 
stroke:#FFFFFF; stroke-width:39.3701; stroke-opacity:1; 
stroke-linecap:round; stroke-linejoin:round;">
</g>
<g style="fill:#FFFFFF; fill-opacity:1.0; 
stroke:#FFFFFF; stroke-width:0; stroke-opacity:1; 
stroke-linecap:round; stroke-linejoin:round;">
<circle cx="11000" cy="15063" r="196.85" /> 
</g>
<g style="fill:#FFFFFF; fill-opacity:1.0; 
stroke:#FFFFFF; stroke-width:39.3701; stroke-opacity:1; 
stroke-linecap:round; stroke-linejoin:round;">
</g>
<g style="fill:#FFFFFF; fill-opacity:1.0; 
stroke:#FFFFFF; stroke-width:0; stroke-opacity:1; 
stroke-linecap:round; stroke-linejoin:round;">
<circle cx="10000" cy="15063" r="196.85" /> 
</g>
<g style="fill:#FFFFFF; fill-opacity:1.0; 
stroke:#FFFFFF; stroke-width:39.3701; stroke-opacity:1; 
stroke-linecap:round; stroke-linejoin:round;">
</g>
<g style="fill:#FFFFFF; fill-opacity:1.0; 
stroke:#FFFFFF; stroke-width:0; stroke-opacity:1; 
stroke-linecap:round; stroke-linejoin:round;">
<circle cx="9000" cy="15063" r="196.85" /> 
</g>
<g style="fill:#FFFFFF; fill-opacity:1.0; 
stroke:#FFFFFF; stroke-width:39.3701; stroke-opacity:1; 
stroke-linecap:round; stroke-linejoin:round;">
</g>
<g style="fill:#FFFFFF; fill-opacity:1.0; 
stroke:#FFFFFF; stroke-width:0; stroke-opacity:1; 
stroke-linecap:round; stroke-linejoin:round;">
<circle cx="8000" cy="15063" r="196.85" /> 
</g>
<g style="fill:#FFFFFF; fill-opacity:1.0; 
stroke:#FFFFFF; stroke-width:39.3701; stroke-opacity:1; 
stroke-linecap:round; stroke-linejoin:round;">
</g>
<g style="fill:#FFFFFF; fill-opacity:1.0; 
stroke:#FFFFFF; stroke-width:0; stroke-opacity:1; 
stroke-linecap:round; stroke-linejoin:round;">
<circle cx="15000" cy="3562.99" r="196.85" /> 
</g>
<g style="fill:#FFFFFF; fill-opacity:1.0; 
stroke:#FFFFFF; stroke-width:39.3701; stroke-opacity:1; 
stroke-linecap:round; stroke-linejoin:round;">
</g>
<g style="fill:#FFFFFF; fill-opacity:1.0; 
stroke:#FFFFFF; stroke-width:0; stroke-opacity:1; 
stroke-linecap:round; stroke-linejoin:round;">
<circle cx="14000" cy="3562.99" r="196.85" /> 
</g>
<g style="fill:#FFFFFF; fill-opacity:1.0; 
stroke:#FFFFFF; stroke-width:39.3701; stroke-opacity:1; 
stroke-linecap:round; stroke-linejoin:round;">
</g>
<g style="fill:#FFFFFF; fill-opacity:1.0; 
stroke:#FFFFFF; stroke-width:0; stroke-opacity:1; 
stroke-linecap:round; stroke-linejoin:round;">
<circle cx="13000" cy="3562.99" r="196.85" /> 
</g>
<g style="fill:#FFFFFF; fill-opacity:1.0; 
stroke:#FFFFFF; stroke-width:39.3701; stroke-opacity:1; 
stroke-linecap:round; stroke-linejoin:round;">
</g>
<g style="fill:#FFFFFF; fill-opacity:1.0; 
stroke:#FFFFFF; stroke-width:0; stroke-opacity:1; 
stroke-linecap:round; stroke-linejoin:round;">
<circle cx="12000" cy="3562.99" r="196.85" /> 
</g>
<g style="fill:#FFFFFF; fill-opacity:1.0; 
stroke:#FFFFFF; stroke-width:39.3701; stroke-opacity:1; 
stroke-linecap:round; stroke-linejoin:round;">
</g>
<g style="fill:#FFFFFF; fill-opacity:1.0; 
stroke:#FFFFFF; stroke-width:0; stroke-opacity:1; 
stroke-linecap:round; stroke-linejoin:round;">
<circle cx="11000" cy="3562.99" r="196.85" /> 
</g>
<g style="fill:#FFFFFF; fill-opacity:1.0; 
stroke:#FFFFFF; stroke-width:39.3701; stroke-opacity:1; 
stroke-linecap:round; stroke-linejoin:round;">
</g>
<g style="fill:#FFFFFF; fill-opacity:1.0; 
stroke:#FFFFFF; stroke-width:0; stroke-opacity:1; 
stroke-linecap:round; stroke-linejoin:round;">
<circle cx="10000" cy="3562.99" r="196.85" /> 
</g>
<g style="fill:#FFFFFF; fill-opacity:1.0; 
stroke:#FFFFFF; stroke-width:39.3701; stroke-opacity:1; 
stroke-linecap:round; stroke-linejoin:round;">
</g>
<g style="fill:#FFFFFF; fill-opacity:1.0; 
stroke:#FFFFFF; stroke-width:0; stroke-opacity:1; 
stroke-linecap:round; stroke-linejoin:round;">
<circle cx="9000" cy="3562.99" r="196.85" /> 
</g>
<g style="fill:#FFFFFF; fill-opacity:1.0; 
stroke:#FFFFFF; stroke-width:39.3701; stroke-opacity:1; 
stroke-linecap:round; stroke-linejoin:round;">
</g>
<g style="fill:#FFFFFF; fill-opacity:1.0; 
stroke:#FFFFFF; stroke-width:0; stroke-opacity:1; 
stroke-linecap:round; stroke-linejoin:round;">
<circle cx="8000" cy="3562.99" r="196.85" /> 
</g>
<g style="fill:#FFFFFF; fill-opacity:1.0; 
stroke:#FFFFFF; stroke-width:39.3701; stroke-opacity:1; 
stroke-linecap:round; stroke-linejoin:round;">
</g>
<g style="fill:#FFFFFF; fill-opacity:1.0; 
stroke:#FFFFFF; stroke-width:0; stroke-opacity:1; 
stroke-linecap:round; stroke-linejoin:round;">
<circle cx="15832.7" cy="4724.41" r="177.165" /> 
</g>
<g style="fill:#FFFFFF; fill-opacity:1.0; 
stroke:#FFFFFF; stroke-width:39.3701; stroke-opacity:1; 
stroke-linecap:round; stroke-linejoin:round;">
</g>
<g style="fill:#FFFFFF; fill-opacity:1.0; 
stroke:#FFFFFF; stroke-width:0; stroke-opacity:1; 
stroke-linecap:round; stroke-linejoin:round;">
<circle cx="15832.7" cy="7401.57" r="177.165" /> 
</g>
<g style="fill:#FFFFFF; fill-opacity:1.0; 
stroke:#FFFFFF; stroke-width:39.3701; stroke-opacity:1; 
stroke-linecap:round; stroke-linejoin:round;">
</g>
<g style="fill:#000000; fill-opacity:1.0; 
stroke:#000000; stroke-width:39.3701; stroke-opacity:1; 
stroke-linecap:round; stroke-linejoin:round;">
</g> 
</svg>
