<?xml version="1.0" encoding="UTF-8" standalone="no"?>
<svg
   xmlns:dc="http://purl.org/dc/elements/1.1/"
   xmlns:cc="http://creativecommons.org/ns#"
   xmlns:rdf="http://www.w3.org/1999/02/22-rdf-syntax-ns#"
   xmlns:svg="http://www.w3.org/2000/svg"
   xmlns="http://www.w3.org/2000/svg"
   xmlns:sodipodi="http://sodipodi.sourceforge.net/DTD/sodipodi-0.dtd"
   xmlns:inkscape="http://www.inkscape.org/namespaces/inkscape"
   version="1.1"
   width="2.89052cm"
   height="2.8829cm"
   viewBox="0 0 11380 11350 "
   id="svg2"
   inkscape:version="0.91 r13725"
   sodipodi:docname="base-brd.svg">
  <metadata
     id="metadata108">
    <rdf:RDF>
      <cc:Work
         rdf:about="">
        <dc:format>image/svg+xml</dc:format>
        <dc:type
           rdf:resource="http://purl.org/dc/dcmitype/StillImage" />
      </cc:Work>
    </rdf:RDF>
  </metadata>
  <defs
     id="defs106" />
  <sodipodi:namedview
     pagecolor="#ffffff"
     bordercolor="#666666"
     borderopacity="1"
     objecttolerance="10"
     gridtolerance="10"
     guidetolerance="10"
     inkscape:pageopacity="0"
     inkscape:pageshadow="2"
     inkscape:window-width="971"
     inkscape:window-height="730"
     id="namedview104"
     showgrid="false"
     inkscape:zoom="2.3103279"
     inkscape:cx="51.210002"
     inkscape:cy="51.075"
     inkscape:window-x="297"
     inkscape:window-y="0"
     inkscape:window-maximized="0"
     inkscape:current-layer="svg2" />
  <title
     id="title4">SVG Picture created as base-brd.svg date 2017/04/21 08:00:03 </title>
  <desc
     id="desc6">Picture generated by PCBNEW </desc>
  <g
     style="fill:#000000; fill-opacity:1;stroke:#000000; stroke-opacity:1; stroke-linecap:round; stroke-linejoin:round; "
     transform="translate(0 0) scale(1 1)"
     id="g8" />
  <g
     style="fill:#000000; fill-opacity:0.0;  stroke:#000000; stroke-width:-0.000393701; stroke-opacity:1;  stroke-linecap:round; stroke-linejoin:round;"
     id="g10" />
  <g
     style="fill:#000000; fill-opacity:0.0;  stroke:#000000; stroke-width:0; stroke-opacity:1;  stroke-linecap:round; stroke-linejoin:round;"
     id="g16" />
  <g
     style="fill:#000000; fill-opacity:1.0;  stroke:#000000; stroke-width:629.921; stroke-opacity:1;  stroke-linecap:round; stroke-linejoin:round;"
     id="g22" />
  <g
     style="fill:#000000; fill-opacity:0.0;  stroke:#000000; stroke-width:0; stroke-opacity:1;  stroke-linecap:round; stroke-linejoin:round;"
     id="g34" />
  <g
     style="fill:#000000; fill-opacity:1.0;  stroke:#000000; stroke-width:0; stroke-opacity:1;  stroke-linecap:round; stroke-linejoin:round;"
     id="g36">
    <polyline
       style="fill-rule:evenodd;"
       points="8352,7168 8116,7168 8116,6557 8352,6557 8352,7168 "
       id="polyline38" />
    <polyline
       style="fill-rule:evenodd;"
       points="8852,7168 8616,7168 8616,6557 8852,6557 8852,7168 "
       id="polyline40" />
    <polyline
       style="fill-rule:evenodd;"
       points="9352,7168 9116,7168 9116,6557 9352,6557 9352,7168 "
       id="polyline42" />
    <polyline
       style="fill-rule:evenodd;"
       points="9852,7168 9616,7168 9616,6557 9852,6557 9852,7168 "
       id="polyline44" />
    <polyline
       style="fill-rule:evenodd;"
       points="9852,5042 9616,5042 9616,4431 9852,4431 9852,5042 "
       id="polyline46" />
    <polyline
       style="fill-rule:evenodd;"
       points="9352,5042 9116,5042 9116,4431 9352,4431 9352,5042 "
       id="polyline48" />
    <polyline
       style="fill-rule:evenodd;"
       points="8852,5042 8616,5042 8616,4431 8852,4431 8852,5042 "
       id="polyline50" />
    <polyline
       style="fill-rule:evenodd;"
       points="8352,5042 8116,5042 8116,4431 8352,4431 8352,5042 "
       id="polyline52" />
    <polyline
       style="fill-rule:evenodd;"
       points="5999,9162 5999,9437 5763,9437 5763,9162 5999,9162 "
       id="polyline54" />
    <polyline
       style="fill-rule:evenodd;"
       points="5566,9162 5566,9437 5330,9437 5330,9162 5566,9162 "
       id="polyline56" />
    <polyline
       style="fill-rule:evenodd;"
       points="4860,9181 4860,9418 4624,9418 4624,9181 4860,9181 "
       id="polyline58" />
    <polyline
       style="fill-rule:evenodd;"
       points="4506,9181 4506,9418 4269,9418 4269,9181 4506,9181 "
       id="polyline60" />
    <polyline
       style="fill-rule:evenodd;"
       points="6431,8143 6431,8457 6037,8457 6037,8143 6431,8143 "
       id="polyline62" />
    <polyline
       style="fill-rule:evenodd;"
       points="5731,8143 5731,8457 5337,8457 5337,8143 5731,8143 "
       id="polyline64" />
    <polyline
       style="fill-rule:evenodd;"
       points="6790,6864 6790,7336 6278,7336 6278,6864 6790,6864 "
       id="polyline66" />
    <polyline
       style="fill-rule:evenodd;"
       points="5840,6864 5840,7336 5328,7336 5328,6864 5840,6864 "
       id="polyline68" />
    <polyline
       style="fill-rule:evenodd;"
       points="7269,5195 7269,5904 6600,5904 6600,5195 7269,5195 "
       id="polyline70" />
    <polyline
       style="fill-rule:evenodd;"
       points="6019,5195 6019,5904 5350,5904 5350,5195 6019,5195 "
       id="polyline72" />
    <polyline
       style="fill-rule:evenodd;"
       points="4822,8122 4822,8477 4546,8477 4546,8122 4822,8122 "
       id="polyline74" />
    <polyline
       style="fill-rule:evenodd;"
       points="4072,8122 4072,8477 3796,8477 3796,8122 4072,8122 "
       id="polyline76" />
    <polyline
       style="fill-rule:evenodd;"
       points="4751,5215 4751,5884 4318,5884 4318,5215 4751,5215 "
       id="polyline78" />
    <polyline
       style="fill-rule:evenodd;"
       points="3401,5215 3401,5884 2968,5884 2968,5215 3401,5215 "
       id="polyline80" />
    <polyline
       style="fill-rule:evenodd;"
       points="4711,6794 4711,7305 4357,7305 4357,6794 4711,6794 "
       id="polyline82" />
    <polyline
       style="fill-rule:evenodd;"
       points="3811,6794 3811,7305 3457,7305 3457,6794 3811,6794 "
       id="polyline84" />
  </g>
  <g
     style="fill:#000000; fill-opacity:1.0;  stroke:#000000; stroke-width:39.3701; stroke-opacity:1;  stroke-linecap:round; stroke-linejoin:round;"
     id="g88" />
  <g
     style="fill:#000000; fill-opacity:1.0;  stroke:#000000; stroke-width:0; stroke-opacity:1;  stroke-linecap:round; stroke-linejoin:round;"
     id="g90">
    <polyline
       style="fill-rule:evenodd;"
       points="8647,7742 9092,8187 8535,8744 8090,8298 8647,7742 "
       id="polyline92" />
    <polyline
       style="fill-rule:evenodd;"
       points="7533,8855 7979,9301 7422,9857 6976,9412 7533,8855 "
       id="polyline94" />
    <polyline
       style="fill-rule:evenodd;"
       points="4915,9965 4915,10134 4805,10134 4805,9965 4915,9965 "
       id="polyline96" />
    <polyline
       style="fill-rule:evenodd;"
       points="4714,9965 4714,10134 4604,10134 4604,9965 4714,9965 "
       id="polyline98" />
    <polyline
       style="fill-rule:evenodd;"
       points="5429,10134 5429,9965 5539,9965 5539,10134 5429,10134 "
       id="polyline100" />
    <polyline
       style="fill-rule:evenodd;"
       points="5630,10134 5630,9965 5740,9965 5740,10134 5630,10134 "
       id="polyline102" />
  </g>
</svg>
