G04 #@! TF.GenerationSoftware,KiCad,Pcbnew,(5.1.10)-1*
G04 #@! TF.CreationDate,2021-10-24T19:42:44-07:00*
G04 #@! TF.ProjectId,project,70726f6a-6563-4742-9e6b-696361645f70,rev?*
G04 #@! TF.SameCoordinates,Original*
G04 #@! TF.FileFunction,Soldermask,Bot*
G04 #@! TF.FilePolarity,Negative*
%FSLAX46Y46*%
G04 Gerber Fmt 4.6, Leading zero omitted, Abs format (unit mm)*
G04 Created by KiCad (PCBNEW (5.1.10)-1) date 2021-10-24 19:42:44*
%MOMM*%
%LPD*%
G01*
G04 APERTURE LIST*
%ADD10R,1.700000X1.700000*%
%ADD11O,1.700000X1.700000*%
%ADD12C,1.800000*%
%ADD13R,1.800000X1.800000*%
G04 APERTURE END LIST*
G36*
G01*
X205550000Y-77427500D02*
X205550000Y-77552500D01*
G75*
G02*
X205487500Y-77615000I-62500J0D01*
G01*
X204787500Y-77615000D01*
G75*
G02*
X204725000Y-77552500I0J62500D01*
G01*
X204725000Y-77427500D01*
G75*
G02*
X204787500Y-77365000I62500J0D01*
G01*
X205487500Y-77365000D01*
G75*
G02*
X205550000Y-77427500I0J-62500D01*
G01*
G37*
G36*
G01*
X205550000Y-77927500D02*
X205550000Y-78052500D01*
G75*
G02*
X205487500Y-78115000I-62500J0D01*
G01*
X204787500Y-78115000D01*
G75*
G02*
X204725000Y-78052500I0J62500D01*
G01*
X204725000Y-77927500D01*
G75*
G02*
X204787500Y-77865000I62500J0D01*
G01*
X205487500Y-77865000D01*
G75*
G02*
X205550000Y-77927500I0J-62500D01*
G01*
G37*
G36*
G01*
X205550000Y-78427500D02*
X205550000Y-78552500D01*
G75*
G02*
X205487500Y-78615000I-62500J0D01*
G01*
X204787500Y-78615000D01*
G75*
G02*
X204725000Y-78552500I0J62500D01*
G01*
X204725000Y-78427500D01*
G75*
G02*
X204787500Y-78365000I62500J0D01*
G01*
X205487500Y-78365000D01*
G75*
G02*
X205550000Y-78427500I0J-62500D01*
G01*
G37*
G36*
G01*
X205550000Y-78927500D02*
X205550000Y-79052500D01*
G75*
G02*
X205487500Y-79115000I-62500J0D01*
G01*
X204787500Y-79115000D01*
G75*
G02*
X204725000Y-79052500I0J62500D01*
G01*
X204725000Y-78927500D01*
G75*
G02*
X204787500Y-78865000I62500J0D01*
G01*
X205487500Y-78865000D01*
G75*
G02*
X205550000Y-78927500I0J-62500D01*
G01*
G37*
G36*
G01*
X205550000Y-79427500D02*
X205550000Y-79552500D01*
G75*
G02*
X205487500Y-79615000I-62500J0D01*
G01*
X204787500Y-79615000D01*
G75*
G02*
X204725000Y-79552500I0J62500D01*
G01*
X204725000Y-79427500D01*
G75*
G02*
X204787500Y-79365000I62500J0D01*
G01*
X205487500Y-79365000D01*
G75*
G02*
X205550000Y-79427500I0J-62500D01*
G01*
G37*
G36*
G01*
X205550000Y-79927500D02*
X205550000Y-80052500D01*
G75*
G02*
X205487500Y-80115000I-62500J0D01*
G01*
X204787500Y-80115000D01*
G75*
G02*
X204725000Y-80052500I0J62500D01*
G01*
X204725000Y-79927500D01*
G75*
G02*
X204787500Y-79865000I62500J0D01*
G01*
X205487500Y-79865000D01*
G75*
G02*
X205550000Y-79927500I0J-62500D01*
G01*
G37*
G36*
G01*
X204575000Y-80327500D02*
X204575000Y-81027500D01*
G75*
G02*
X204512500Y-81090000I-62500J0D01*
G01*
X204387500Y-81090000D01*
G75*
G02*
X204325000Y-81027500I0J62500D01*
G01*
X204325000Y-80327500D01*
G75*
G02*
X204387500Y-80265000I62500J0D01*
G01*
X204512500Y-80265000D01*
G75*
G02*
X204575000Y-80327500I0J-62500D01*
G01*
G37*
G36*
G01*
X204075000Y-80327500D02*
X204075000Y-81027500D01*
G75*
G02*
X204012500Y-81090000I-62500J0D01*
G01*
X203887500Y-81090000D01*
G75*
G02*
X203825000Y-81027500I0J62500D01*
G01*
X203825000Y-80327500D01*
G75*
G02*
X203887500Y-80265000I62500J0D01*
G01*
X204012500Y-80265000D01*
G75*
G02*
X204075000Y-80327500I0J-62500D01*
G01*
G37*
G36*
G01*
X203575000Y-80327500D02*
X203575000Y-81027500D01*
G75*
G02*
X203512500Y-81090000I-62500J0D01*
G01*
X203387500Y-81090000D01*
G75*
G02*
X203325000Y-81027500I0J62500D01*
G01*
X203325000Y-80327500D01*
G75*
G02*
X203387500Y-80265000I62500J0D01*
G01*
X203512500Y-80265000D01*
G75*
G02*
X203575000Y-80327500I0J-62500D01*
G01*
G37*
G36*
G01*
X203075000Y-80327500D02*
X203075000Y-81027500D01*
G75*
G02*
X203012500Y-81090000I-62500J0D01*
G01*
X202887500Y-81090000D01*
G75*
G02*
X202825000Y-81027500I0J62500D01*
G01*
X202825000Y-80327500D01*
G75*
G02*
X202887500Y-80265000I62500J0D01*
G01*
X203012500Y-80265000D01*
G75*
G02*
X203075000Y-80327500I0J-62500D01*
G01*
G37*
G36*
G01*
X202575000Y-80327500D02*
X202575000Y-81027500D01*
G75*
G02*
X202512500Y-81090000I-62500J0D01*
G01*
X202387500Y-81090000D01*
G75*
G02*
X202325000Y-81027500I0J62500D01*
G01*
X202325000Y-80327500D01*
G75*
G02*
X202387500Y-80265000I62500J0D01*
G01*
X202512500Y-80265000D01*
G75*
G02*
X202575000Y-80327500I0J-62500D01*
G01*
G37*
G36*
G01*
X202075000Y-80327500D02*
X202075000Y-81027500D01*
G75*
G02*
X202012500Y-81090000I-62500J0D01*
G01*
X201887500Y-81090000D01*
G75*
G02*
X201825000Y-81027500I0J62500D01*
G01*
X201825000Y-80327500D01*
G75*
G02*
X201887500Y-80265000I62500J0D01*
G01*
X202012500Y-80265000D01*
G75*
G02*
X202075000Y-80327500I0J-62500D01*
G01*
G37*
G36*
G01*
X201675000Y-79927500D02*
X201675000Y-80052500D01*
G75*
G02*
X201612500Y-80115000I-62500J0D01*
G01*
X200912500Y-80115000D01*
G75*
G02*
X200850000Y-80052500I0J62500D01*
G01*
X200850000Y-79927500D01*
G75*
G02*
X200912500Y-79865000I62500J0D01*
G01*
X201612500Y-79865000D01*
G75*
G02*
X201675000Y-79927500I0J-62500D01*
G01*
G37*
G36*
G01*
X201675000Y-79427500D02*
X201675000Y-79552500D01*
G75*
G02*
X201612500Y-79615000I-62500J0D01*
G01*
X200912500Y-79615000D01*
G75*
G02*
X200850000Y-79552500I0J62500D01*
G01*
X200850000Y-79427500D01*
G75*
G02*
X200912500Y-79365000I62500J0D01*
G01*
X201612500Y-79365000D01*
G75*
G02*
X201675000Y-79427500I0J-62500D01*
G01*
G37*
G36*
G01*
X201675000Y-78927500D02*
X201675000Y-79052500D01*
G75*
G02*
X201612500Y-79115000I-62500J0D01*
G01*
X200912500Y-79115000D01*
G75*
G02*
X200850000Y-79052500I0J62500D01*
G01*
X200850000Y-78927500D01*
G75*
G02*
X200912500Y-78865000I62500J0D01*
G01*
X201612500Y-78865000D01*
G75*
G02*
X201675000Y-78927500I0J-62500D01*
G01*
G37*
G36*
G01*
X201675000Y-78427500D02*
X201675000Y-78552500D01*
G75*
G02*
X201612500Y-78615000I-62500J0D01*
G01*
X200912500Y-78615000D01*
G75*
G02*
X200850000Y-78552500I0J62500D01*
G01*
X200850000Y-78427500D01*
G75*
G02*
X200912500Y-78365000I62500J0D01*
G01*
X201612500Y-78365000D01*
G75*
G02*
X201675000Y-78427500I0J-62500D01*
G01*
G37*
G36*
G01*
X201675000Y-77927500D02*
X201675000Y-78052500D01*
G75*
G02*
X201612500Y-78115000I-62500J0D01*
G01*
X200912500Y-78115000D01*
G75*
G02*
X200850000Y-78052500I0J62500D01*
G01*
X200850000Y-77927500D01*
G75*
G02*
X200912500Y-77865000I62500J0D01*
G01*
X201612500Y-77865000D01*
G75*
G02*
X201675000Y-77927500I0J-62500D01*
G01*
G37*
G36*
G01*
X201675000Y-77427500D02*
X201675000Y-77552500D01*
G75*
G02*
X201612500Y-77615000I-62500J0D01*
G01*
X200912500Y-77615000D01*
G75*
G02*
X200850000Y-77552500I0J62500D01*
G01*
X200850000Y-77427500D01*
G75*
G02*
X200912500Y-77365000I62500J0D01*
G01*
X201612500Y-77365000D01*
G75*
G02*
X201675000Y-77427500I0J-62500D01*
G01*
G37*
G36*
G01*
X202075000Y-76452500D02*
X202075000Y-77152500D01*
G75*
G02*
X202012500Y-77215000I-62500J0D01*
G01*
X201887500Y-77215000D01*
G75*
G02*
X201825000Y-77152500I0J62500D01*
G01*
X201825000Y-76452500D01*
G75*
G02*
X201887500Y-76390000I62500J0D01*
G01*
X202012500Y-76390000D01*
G75*
G02*
X202075000Y-76452500I0J-62500D01*
G01*
G37*
G36*
G01*
X202575000Y-76452500D02*
X202575000Y-77152500D01*
G75*
G02*
X202512500Y-77215000I-62500J0D01*
G01*
X202387500Y-77215000D01*
G75*
G02*
X202325000Y-77152500I0J62500D01*
G01*
X202325000Y-76452500D01*
G75*
G02*
X202387500Y-76390000I62500J0D01*
G01*
X202512500Y-76390000D01*
G75*
G02*
X202575000Y-76452500I0J-62500D01*
G01*
G37*
G36*
G01*
X203075000Y-76452500D02*
X203075000Y-77152500D01*
G75*
G02*
X203012500Y-77215000I-62500J0D01*
G01*
X202887500Y-77215000D01*
G75*
G02*
X202825000Y-77152500I0J62500D01*
G01*
X202825000Y-76452500D01*
G75*
G02*
X202887500Y-76390000I62500J0D01*
G01*
X203012500Y-76390000D01*
G75*
G02*
X203075000Y-76452500I0J-62500D01*
G01*
G37*
G36*
G01*
X203575000Y-76452500D02*
X203575000Y-77152500D01*
G75*
G02*
X203512500Y-77215000I-62500J0D01*
G01*
X203387500Y-77215000D01*
G75*
G02*
X203325000Y-77152500I0J62500D01*
G01*
X203325000Y-76452500D01*
G75*
G02*
X203387500Y-76390000I62500J0D01*
G01*
X203512500Y-76390000D01*
G75*
G02*
X203575000Y-76452500I0J-62500D01*
G01*
G37*
G36*
G01*
X204075000Y-76452500D02*
X204075000Y-77152500D01*
G75*
G02*
X204012500Y-77215000I-62500J0D01*
G01*
X203887500Y-77215000D01*
G75*
G02*
X203825000Y-77152500I0J62500D01*
G01*
X203825000Y-76452500D01*
G75*
G02*
X203887500Y-76390000I62500J0D01*
G01*
X204012500Y-76390000D01*
G75*
G02*
X204075000Y-76452500I0J-62500D01*
G01*
G37*
G36*
G01*
X204575000Y-76452500D02*
X204575000Y-77152500D01*
G75*
G02*
X204512500Y-77215000I-62500J0D01*
G01*
X204387500Y-77215000D01*
G75*
G02*
X204325000Y-77152500I0J62500D01*
G01*
X204325000Y-76452500D01*
G75*
G02*
X204387500Y-76390000I62500J0D01*
G01*
X204512500Y-76390000D01*
G75*
G02*
X204575000Y-76452500I0J-62500D01*
G01*
G37*
G36*
G01*
X204235000Y-72840002D02*
X204235000Y-71939998D01*
G75*
G02*
X204484998Y-71690000I249998J0D01*
G01*
X205010002Y-71690000D01*
G75*
G02*
X205260000Y-71939998I0J-249998D01*
G01*
X205260000Y-72840002D01*
G75*
G02*
X205010002Y-73090000I-249998J0D01*
G01*
X204484998Y-73090000D01*
G75*
G02*
X204235000Y-72840002I0J249998D01*
G01*
G37*
G36*
G01*
X202410000Y-72840002D02*
X202410000Y-71939998D01*
G75*
G02*
X202659998Y-71690000I249998J0D01*
G01*
X203185002Y-71690000D01*
G75*
G02*
X203435000Y-71939998I0J-249998D01*
G01*
X203435000Y-72840002D01*
G75*
G02*
X203185002Y-73090000I-249998J0D01*
G01*
X202659998Y-73090000D01*
G75*
G02*
X202410000Y-72840002I0J249998D01*
G01*
G37*
G36*
G01*
X202165000Y-69399998D02*
X202165000Y-70300002D01*
G75*
G02*
X201915002Y-70550000I-249998J0D01*
G01*
X201389998Y-70550000D01*
G75*
G02*
X201140000Y-70300002I0J249998D01*
G01*
X201140000Y-69399998D01*
G75*
G02*
X201389998Y-69150000I249998J0D01*
G01*
X201915002Y-69150000D01*
G75*
G02*
X202165000Y-69399998I0J-249998D01*
G01*
G37*
G36*
G01*
X203990000Y-69399998D02*
X203990000Y-70300002D01*
G75*
G02*
X203740002Y-70550000I-249998J0D01*
G01*
X203214998Y-70550000D01*
G75*
G02*
X202965000Y-70300002I0J249998D01*
G01*
X202965000Y-69399998D01*
G75*
G02*
X203214998Y-69150000I249998J0D01*
G01*
X203740002Y-69150000D01*
G75*
G02*
X203990000Y-69399998I0J-249998D01*
G01*
G37*
G36*
G01*
X204235000Y-67760002D02*
X204235000Y-66859998D01*
G75*
G02*
X204484998Y-66610000I249998J0D01*
G01*
X205010002Y-66610000D01*
G75*
G02*
X205260000Y-66859998I0J-249998D01*
G01*
X205260000Y-67760002D01*
G75*
G02*
X205010002Y-68010000I-249998J0D01*
G01*
X204484998Y-68010000D01*
G75*
G02*
X204235000Y-67760002I0J249998D01*
G01*
G37*
G36*
G01*
X202410000Y-67760002D02*
X202410000Y-66859998D01*
G75*
G02*
X202659998Y-66610000I249998J0D01*
G01*
X203185002Y-66610000D01*
G75*
G02*
X203435000Y-66859998I0J-249998D01*
G01*
X203435000Y-67760002D01*
G75*
G02*
X203185002Y-68010000I-249998J0D01*
G01*
X202659998Y-68010000D01*
G75*
G02*
X202410000Y-67760002I0J249998D01*
G01*
G37*
G36*
G01*
X202165000Y-64319998D02*
X202165000Y-65220002D01*
G75*
G02*
X201915002Y-65470000I-249998J0D01*
G01*
X201389998Y-65470000D01*
G75*
G02*
X201140000Y-65220002I0J249998D01*
G01*
X201140000Y-64319998D01*
G75*
G02*
X201389998Y-64070000I249998J0D01*
G01*
X201915002Y-64070000D01*
G75*
G02*
X202165000Y-64319998I0J-249998D01*
G01*
G37*
G36*
G01*
X203990000Y-64319998D02*
X203990000Y-65220002D01*
G75*
G02*
X203740002Y-65470000I-249998J0D01*
G01*
X203214998Y-65470000D01*
G75*
G02*
X202965000Y-65220002I0J249998D01*
G01*
X202965000Y-64319998D01*
G75*
G02*
X203214998Y-64070000I249998J0D01*
G01*
X203740002Y-64070000D01*
G75*
G02*
X203990000Y-64319998I0J-249998D01*
G01*
G37*
G36*
G01*
X204235000Y-62680002D02*
X204235000Y-61779998D01*
G75*
G02*
X204484998Y-61530000I249998J0D01*
G01*
X205010002Y-61530000D01*
G75*
G02*
X205260000Y-61779998I0J-249998D01*
G01*
X205260000Y-62680002D01*
G75*
G02*
X205010002Y-62930000I-249998J0D01*
G01*
X204484998Y-62930000D01*
G75*
G02*
X204235000Y-62680002I0J249998D01*
G01*
G37*
G36*
G01*
X202410000Y-62680002D02*
X202410000Y-61779998D01*
G75*
G02*
X202659998Y-61530000I249998J0D01*
G01*
X203185002Y-61530000D01*
G75*
G02*
X203435000Y-61779998I0J-249998D01*
G01*
X203435000Y-62680002D01*
G75*
G02*
X203185002Y-62930000I-249998J0D01*
G01*
X202659998Y-62930000D01*
G75*
G02*
X202410000Y-62680002I0J249998D01*
G01*
G37*
G36*
G01*
X202165000Y-59239998D02*
X202165000Y-60140002D01*
G75*
G02*
X201915002Y-60390000I-249998J0D01*
G01*
X201389998Y-60390000D01*
G75*
G02*
X201140000Y-60140002I0J249998D01*
G01*
X201140000Y-59239998D01*
G75*
G02*
X201389998Y-58990000I249998J0D01*
G01*
X201915002Y-58990000D01*
G75*
G02*
X202165000Y-59239998I0J-249998D01*
G01*
G37*
G36*
G01*
X203990000Y-59239998D02*
X203990000Y-60140002D01*
G75*
G02*
X203740002Y-60390000I-249998J0D01*
G01*
X203214998Y-60390000D01*
G75*
G02*
X202965000Y-60140002I0J249998D01*
G01*
X202965000Y-59239998D01*
G75*
G02*
X203214998Y-58990000I249998J0D01*
G01*
X203740002Y-58990000D01*
G75*
G02*
X203990000Y-59239998I0J-249998D01*
G01*
G37*
G36*
G01*
X204235000Y-57600002D02*
X204235000Y-56699998D01*
G75*
G02*
X204484998Y-56450000I249998J0D01*
G01*
X205010002Y-56450000D01*
G75*
G02*
X205260000Y-56699998I0J-249998D01*
G01*
X205260000Y-57600002D01*
G75*
G02*
X205010002Y-57850000I-249998J0D01*
G01*
X204484998Y-57850000D01*
G75*
G02*
X204235000Y-57600002I0J249998D01*
G01*
G37*
G36*
G01*
X202410000Y-57600002D02*
X202410000Y-56699998D01*
G75*
G02*
X202659998Y-56450000I249998J0D01*
G01*
X203185002Y-56450000D01*
G75*
G02*
X203435000Y-56699998I0J-249998D01*
G01*
X203435000Y-57600002D01*
G75*
G02*
X203185002Y-57850000I-249998J0D01*
G01*
X202659998Y-57850000D01*
G75*
G02*
X202410000Y-57600002I0J249998D01*
G01*
G37*
G36*
G01*
X202165000Y-54159998D02*
X202165000Y-55060002D01*
G75*
G02*
X201915002Y-55310000I-249998J0D01*
G01*
X201389998Y-55310000D01*
G75*
G02*
X201140000Y-55060002I0J249998D01*
G01*
X201140000Y-54159998D01*
G75*
G02*
X201389998Y-53910000I249998J0D01*
G01*
X201915002Y-53910000D01*
G75*
G02*
X202165000Y-54159998I0J-249998D01*
G01*
G37*
G36*
G01*
X203990000Y-54159998D02*
X203990000Y-55060002D01*
G75*
G02*
X203740002Y-55310000I-249998J0D01*
G01*
X203214998Y-55310000D01*
G75*
G02*
X202965000Y-55060002I0J249998D01*
G01*
X202965000Y-54159998D01*
G75*
G02*
X203214998Y-53910000I249998J0D01*
G01*
X203740002Y-53910000D01*
G75*
G02*
X203990000Y-54159998I0J-249998D01*
G01*
G37*
G36*
G01*
X204235000Y-52520002D02*
X204235000Y-51619998D01*
G75*
G02*
X204484998Y-51370000I249998J0D01*
G01*
X205010002Y-51370000D01*
G75*
G02*
X205260000Y-51619998I0J-249998D01*
G01*
X205260000Y-52520002D01*
G75*
G02*
X205010002Y-52770000I-249998J0D01*
G01*
X204484998Y-52770000D01*
G75*
G02*
X204235000Y-52520002I0J249998D01*
G01*
G37*
G36*
G01*
X202410000Y-52520002D02*
X202410000Y-51619998D01*
G75*
G02*
X202659998Y-51370000I249998J0D01*
G01*
X203185002Y-51370000D01*
G75*
G02*
X203435000Y-51619998I0J-249998D01*
G01*
X203435000Y-52520002D01*
G75*
G02*
X203185002Y-52770000I-249998J0D01*
G01*
X202659998Y-52770000D01*
G75*
G02*
X202410000Y-52520002I0J249998D01*
G01*
G37*
G36*
G01*
X202165000Y-49079998D02*
X202165000Y-49980002D01*
G75*
G02*
X201915002Y-50230000I-249998J0D01*
G01*
X201389998Y-50230000D01*
G75*
G02*
X201140000Y-49980002I0J249998D01*
G01*
X201140000Y-49079998D01*
G75*
G02*
X201389998Y-48830000I249998J0D01*
G01*
X201915002Y-48830000D01*
G75*
G02*
X202165000Y-49079998I0J-249998D01*
G01*
G37*
G36*
G01*
X203990000Y-49079998D02*
X203990000Y-49980002D01*
G75*
G02*
X203740002Y-50230000I-249998J0D01*
G01*
X203214998Y-50230000D01*
G75*
G02*
X202965000Y-49980002I0J249998D01*
G01*
X202965000Y-49079998D01*
G75*
G02*
X203214998Y-48830000I249998J0D01*
G01*
X203740002Y-48830000D01*
G75*
G02*
X203990000Y-49079998I0J-249998D01*
G01*
G37*
G36*
G01*
X202800000Y-85401998D02*
X202800000Y-86302002D01*
G75*
G02*
X202550002Y-86552000I-249998J0D01*
G01*
X202024998Y-86552000D01*
G75*
G02*
X201775000Y-86302002I0J249998D01*
G01*
X201775000Y-85401998D01*
G75*
G02*
X202024998Y-85152000I249998J0D01*
G01*
X202550002Y-85152000D01*
G75*
G02*
X202800000Y-85401998I0J-249998D01*
G01*
G37*
G36*
G01*
X204625000Y-85401998D02*
X204625000Y-86302002D01*
G75*
G02*
X204375002Y-86552000I-249998J0D01*
G01*
X203849998Y-86552000D01*
G75*
G02*
X203600000Y-86302002I0J249998D01*
G01*
X203600000Y-85401998D01*
G75*
G02*
X203849998Y-85152000I249998J0D01*
G01*
X204375002Y-85152000D01*
G75*
G02*
X204625000Y-85401998I0J-249998D01*
G01*
G37*
G36*
G01*
X202800000Y-83369998D02*
X202800000Y-84270002D01*
G75*
G02*
X202550002Y-84520000I-249998J0D01*
G01*
X202024998Y-84520000D01*
G75*
G02*
X201775000Y-84270002I0J249998D01*
G01*
X201775000Y-83369998D01*
G75*
G02*
X202024998Y-83120000I249998J0D01*
G01*
X202550002Y-83120000D01*
G75*
G02*
X202800000Y-83369998I0J-249998D01*
G01*
G37*
G36*
G01*
X204625000Y-83369998D02*
X204625000Y-84270002D01*
G75*
G02*
X204375002Y-84520000I-249998J0D01*
G01*
X203849998Y-84520000D01*
G75*
G02*
X203600000Y-84270002I0J249998D01*
G01*
X203600000Y-83369998D01*
G75*
G02*
X203849998Y-83120000I249998J0D01*
G01*
X204375002Y-83120000D01*
G75*
G02*
X204625000Y-83369998I0J-249998D01*
G01*
G37*
G36*
G01*
X202165000Y-37649999D02*
X202165000Y-38550001D01*
G75*
G02*
X201915001Y-38800000I-249999J0D01*
G01*
X201389999Y-38800000D01*
G75*
G02*
X201140000Y-38550001I0J249999D01*
G01*
X201140000Y-37649999D01*
G75*
G02*
X201389999Y-37400000I249999J0D01*
G01*
X201915001Y-37400000D01*
G75*
G02*
X202165000Y-37649999I0J-249999D01*
G01*
G37*
G36*
G01*
X203990000Y-37649999D02*
X203990000Y-38550001D01*
G75*
G02*
X203740001Y-38800000I-249999J0D01*
G01*
X203214999Y-38800000D01*
G75*
G02*
X202965000Y-38550001I0J249999D01*
G01*
X202965000Y-37649999D01*
G75*
G02*
X203214999Y-37400000I249999J0D01*
G01*
X203740001Y-37400000D01*
G75*
G02*
X203990000Y-37649999I0J-249999D01*
G01*
G37*
G36*
G01*
X204235000Y-41090001D02*
X204235000Y-40189999D01*
G75*
G02*
X204484999Y-39940000I249999J0D01*
G01*
X205010001Y-39940000D01*
G75*
G02*
X205260000Y-40189999I0J-249999D01*
G01*
X205260000Y-41090001D01*
G75*
G02*
X205010001Y-41340000I-249999J0D01*
G01*
X204484999Y-41340000D01*
G75*
G02*
X204235000Y-41090001I0J249999D01*
G01*
G37*
G36*
G01*
X202410000Y-41090001D02*
X202410000Y-40189999D01*
G75*
G02*
X202659999Y-39940000I249999J0D01*
G01*
X203185001Y-39940000D01*
G75*
G02*
X203435000Y-40189999I0J-249999D01*
G01*
X203435000Y-41090001D01*
G75*
G02*
X203185001Y-41340000I-249999J0D01*
G01*
X202659999Y-41340000D01*
G75*
G02*
X202410000Y-41090001I0J249999D01*
G01*
G37*
G36*
G01*
X203990000Y-42729999D02*
X203990000Y-43630001D01*
G75*
G02*
X203740001Y-43880000I-249999J0D01*
G01*
X203214999Y-43880000D01*
G75*
G02*
X202965000Y-43630001I0J249999D01*
G01*
X202965000Y-42729999D01*
G75*
G02*
X203214999Y-42480000I249999J0D01*
G01*
X203740001Y-42480000D01*
G75*
G02*
X203990000Y-42729999I0J-249999D01*
G01*
G37*
G36*
G01*
X202165000Y-42729999D02*
X202165000Y-43630001D01*
G75*
G02*
X201915001Y-43880000I-249999J0D01*
G01*
X201389999Y-43880000D01*
G75*
G02*
X201140000Y-43630001I0J249999D01*
G01*
X201140000Y-42729999D01*
G75*
G02*
X201389999Y-42480000I249999J0D01*
G01*
X201915001Y-42480000D01*
G75*
G02*
X202165000Y-42729999I0J-249999D01*
G01*
G37*
G36*
G01*
X202410000Y-46170001D02*
X202410000Y-45269999D01*
G75*
G02*
X202659999Y-45020000I249999J0D01*
G01*
X203185001Y-45020000D01*
G75*
G02*
X203435000Y-45269999I0J-249999D01*
G01*
X203435000Y-46170001D01*
G75*
G02*
X203185001Y-46420000I-249999J0D01*
G01*
X202659999Y-46420000D01*
G75*
G02*
X202410000Y-46170001I0J249999D01*
G01*
G37*
G36*
G01*
X204235000Y-46170001D02*
X204235000Y-45269999D01*
G75*
G02*
X204484999Y-45020000I249999J0D01*
G01*
X205010001Y-45020000D01*
G75*
G02*
X205260000Y-45269999I0J-249999D01*
G01*
X205260000Y-46170001D01*
G75*
G02*
X205010001Y-46420000I-249999J0D01*
G01*
X204484999Y-46420000D01*
G75*
G02*
X204235000Y-46170001I0J249999D01*
G01*
G37*
D10*
X201930000Y-92710000D03*
D11*
X204470000Y-92710000D03*
X204470000Y-95250000D03*
D10*
X201930000Y-95250000D03*
D12*
X199390000Y-38100000D03*
D13*
X199390000Y-40640000D03*
X207010000Y-38100000D03*
D12*
X207010000Y-40640000D03*
X199390000Y-43180000D03*
D13*
X199390000Y-45720000D03*
D12*
X207010000Y-45720000D03*
D13*
X207010000Y-43180000D03*
X199390000Y-52070000D03*
D12*
X199390000Y-49530000D03*
D13*
X207010000Y-49530000D03*
D12*
X207010000Y-52070000D03*
X199390000Y-54610000D03*
D13*
X199390000Y-57150000D03*
X207010000Y-54610000D03*
D12*
X207010000Y-57150000D03*
X199390000Y-59690000D03*
D13*
X199390000Y-62230000D03*
X207010000Y-59690000D03*
D12*
X207010000Y-62230000D03*
D13*
X199390000Y-67310000D03*
D12*
X199390000Y-64770000D03*
X207010000Y-67310000D03*
D13*
X207010000Y-64770000D03*
D12*
X199390000Y-69850000D03*
D13*
X199390000Y-72390000D03*
X207010000Y-69850000D03*
D12*
X207010000Y-72390000D03*
G36*
G01*
X204625000Y-87681750D02*
X204625000Y-88594250D01*
G75*
G02*
X204381250Y-88838000I-243750J0D01*
G01*
X203893750Y-88838000D01*
G75*
G02*
X203650000Y-88594250I0J243750D01*
G01*
X203650000Y-87681750D01*
G75*
G02*
X203893750Y-87438000I243750J0D01*
G01*
X204381250Y-87438000D01*
G75*
G02*
X204625000Y-87681750I0J-243750D01*
G01*
G37*
G36*
G01*
X202750000Y-87681750D02*
X202750000Y-88594250D01*
G75*
G02*
X202506250Y-88838000I-243750J0D01*
G01*
X202018750Y-88838000D01*
G75*
G02*
X201775000Y-88594250I0J243750D01*
G01*
X201775000Y-87681750D01*
G75*
G02*
X202018750Y-87438000I243750J0D01*
G01*
X202506250Y-87438000D01*
G75*
G02*
X202750000Y-87681750I0J-243750D01*
G01*
G37*
M02*
