%TF.GenerationSoftware,KiCad,Pcbnew,(5.1.10)-1*%
%TF.CreationDate,2022-03-19T18:42:39-07:00*%
%TF.ProjectId,project,70726f6a-6563-4742-9e6b-696361645f70,0.0*%
%TF.SameCoordinates,Original*%
%TF.FileFunction,Copper,L2,Bot*%
%TF.FilePolarity,Positive*%
%FSLAX46Y46*%
G04 Gerber Fmt 4.6, Leading zero omitted, Abs format (unit mm)*
G04 Created by KiCad (PCBNEW (5.1.10)-1) date 2022-03-19 18:42:39*
%MOMM*%
%LPD*%
G01*
G04 APERTURE LIST*
%TA.AperFunction,ComponentPad*%
%ADD10R,2.000000X1.350000*%
%TD*%
%TA.AperFunction,ComponentPad*%
%ADD11O,2.000000X1.350000*%
%TD*%
%TA.AperFunction,SMDPad,CuDef*%
%ADD12R,1.650000X0.600000*%
%TD*%
%TA.AperFunction,SMDPad,CuDef*%
%ADD13R,1.750000X0.600000*%
%TD*%
%TA.AperFunction,SMDPad,CuDef*%
%ADD14R,1.800000X1.600000*%
%TD*%
%TA.AperFunction,ComponentPad*%
%ADD15R,1.500000X0.800000*%
%TD*%
%TA.AperFunction,ComponentPad*%
%ADD16O,1.500000X0.800000*%
%TD*%
%TA.AperFunction,ComponentPad*%
%ADD17R,2.032000X1.250000*%
%TD*%
%TA.AperFunction,ComponentPad*%
%ADD18O,2.032000X1.500000*%
%TD*%
%TA.AperFunction,ComponentPad*%
%ADD19R,1.350000X1.350000*%
%TD*%
%TA.AperFunction,ComponentPad*%
%ADD20O,1.350000X1.350000*%
%TD*%
%TA.AperFunction,ViaPad*%
%ADD21C,0.600000*%
%TD*%
%TA.AperFunction,Conductor*%
%ADD22C,0.406400*%
%TD*%
%TA.AperFunction,Conductor*%
%ADD23C,0.254000*%
%TD*%
G04 APERTURE END LIST*
D10*
%TO.P,J2,1*%
%TO.N,Net-(F2-Pad1)*%
X145000000Y-92000000D03*
D11*
%TO.P,J2,2*%
%TO.N,GND*%
X145000000Y-94000000D03*
%TD*%
D12*
%TO.P,J1,1*%
%TO.N,GND*%
X149037500Y-93500000D03*
D13*
%TO.P,J1,2*%
%TO.N,Net-(F2-Pad1)*%
X149037500Y-92500000D03*
D14*
%TO.P,J1,1*%
%TO.N,GND*%
X145062500Y-95000000D03*
%TO.P,J1,2*%
%TO.N,Net-(F2-Pad1)*%
X145062500Y-91000000D03*
%TD*%
D15*
%TO.P,J3,1*%
%TO.N,Net-(F1-Pad1)*%
X130000000Y-93750000D03*
D16*
%TO.P,J3,2*%
%TO.N,GND*%
X130000000Y-92500000D03*
%TD*%
D17*
%TO.P,J6,1*%
%TO.N,Net-(J6-Pad1)*%
X148000000Y-101000000D03*
D18*
%TO.P,J6,2*%
%TO.N,GND*%
X148000000Y-98960000D03*
D17*
%TO.P,J6,3*%
%TO.N,Net-(J6-Pad3)*%
X148000000Y-96920000D03*
%TD*%
%TO.P,J5,1*%
%TO.N,Net-(J5-Pad1)*%
X130000000Y-85000000D03*
D18*
%TO.P,J5,2*%
%TO.N,GND*%
X130000000Y-87040000D03*
D17*
%TO.P,J5,3*%
%TO.N,Net-(J5-Pad3)*%
X130000000Y-89080000D03*
%TD*%
D19*
%TO.P,J4,1*%
%TO.N,VCC*%
X137000000Y-98000000D03*
D20*
%TO.P,J4,2*%
%TO.N,Net-(J4-Pad2)*%
X139000000Y-98000000D03*
%TO.P,J4,3*%
%TO.N,GND*%
X141000000Y-98000000D03*
%TD*%
D17*
%TO.P,J7,1*%
%TO.N,Net-(J7-Pad1)*%
X148000000Y-85000000D03*
D18*
%TO.P,J7,2*%
%TO.N,GND*%
X148000000Y-87040000D03*
D17*
%TO.P,J7,3*%
%TO.N,Net-(J7-Pad3)*%
X148000000Y-89080000D03*
%TD*%
D21*
%TO.N,GND*%
X140200000Y-88900000D03*
X132200000Y-97500000D03*
%TO.N,VCC*%
X134200000Y-92200000D03*
X137000000Y-89700000D03*
%TO.N,/UPDI*%
X143300000Y-95600000D03*
X135400000Y-94100000D03*
%TO.N,Net-(J4-Pad2)*%
X134200000Y-96200000D03*
%TD*%
D22*
%TO.N,GND*%
X149037500Y-93500000D02*
X145500000Y-93500000D01*
X145500000Y-93500000D02*
X145000000Y-94000000D01*
X145000000Y-94000000D02*
X145000000Y-94937500D01*
X145000000Y-94937500D02*
X145062500Y-95000000D01*
X148000000Y-98960000D02*
X145960000Y-98960000D01*
X145000000Y-98000000D02*
X145000000Y-94000000D01*
X145960000Y-98960000D02*
X145000000Y-98000000D01*
X145000000Y-94000000D02*
X144000000Y-94000000D01*
X144000000Y-94000000D02*
X143500000Y-93500000D01*
X143500000Y-93500000D02*
X143500000Y-89000000D01*
X145500000Y-87000000D02*
X148000000Y-87000000D01*
X143500000Y-89000000D02*
X145500000Y-87000000D01*
X148000000Y-98960000D02*
X146540000Y-98960000D01*
X131000000Y-92500000D02*
X130000000Y-92500000D01*
X131500000Y-93000000D02*
X131000000Y-92500000D01*
X133500000Y-101500000D02*
X131500000Y-99500000D01*
X144000000Y-101500000D02*
X143500000Y-101500000D01*
X143500000Y-101500000D02*
X133500000Y-101500000D01*
X146540000Y-98960000D02*
X144000000Y-101500000D01*
X143500000Y-101500000D02*
X142500000Y-101500000D01*
X141000000Y-100000000D02*
X141000000Y-98000000D01*
X142500000Y-101500000D02*
X141000000Y-100000000D01*
X130000000Y-92500000D02*
X130500000Y-92500000D01*
X130500000Y-92500000D02*
X132000000Y-91000000D01*
X132000000Y-91000000D02*
X132000000Y-88000000D01*
X132000000Y-88000000D02*
X131040000Y-87040000D01*
X131040000Y-87040000D02*
X130000000Y-87040000D01*
X145500000Y-87000000D02*
X143500000Y-85000000D01*
X143500000Y-85000000D02*
X139000000Y-85000000D01*
X139000000Y-85000000D02*
X137000000Y-85000000D01*
X133500000Y-85000000D02*
X131460000Y-87040000D01*
X136500000Y-85000000D02*
X133500000Y-85000000D01*
X131460000Y-87040000D02*
X131040000Y-87040000D01*
X137000000Y-85000000D02*
X136500000Y-85000000D01*
X140300000Y-89000000D02*
X143500000Y-89000000D01*
X140200000Y-88900000D02*
X140300000Y-89000000D01*
D23*
X131500000Y-96800000D02*
X131500000Y-96700000D01*
X132200000Y-97500000D02*
X131500000Y-96800000D01*
D22*
X131500000Y-96700000D02*
X131500000Y-93000000D01*
X131500000Y-99500000D02*
X131500000Y-96700000D01*
%TO.N,VCC*%
X137000000Y-98000000D02*
X134800000Y-98000000D01*
X134800000Y-98000000D02*
X132600000Y-95800000D01*
X132600000Y-95800000D02*
X132600000Y-93800000D01*
X132600000Y-93800000D02*
X134200000Y-92200000D01*
X134200000Y-92200000D02*
X134500000Y-92200000D01*
X134500000Y-92200000D02*
X137000000Y-89700000D01*
%TO.N,Net-(F2-Pad1)*%
X145000000Y-92000000D02*
X145000000Y-91062500D01*
X145000000Y-91062500D02*
X145062500Y-91000000D01*
X149037500Y-92500000D02*
X145500000Y-92500000D01*
X145500000Y-92500000D02*
X145000000Y-92000000D01*
D23*
%TO.N,/UPDI*%
X142400000Y-96500000D02*
X143300000Y-95600000D01*
X139100000Y-96500000D02*
X142400000Y-96500000D01*
X136900000Y-94300000D02*
X139100000Y-96500000D01*
X135400000Y-94100000D02*
X136900000Y-94300000D01*
%TO.N,Net-(J4-Pad2)*%
X137300000Y-96300000D02*
X139000000Y-98000000D01*
X134300000Y-96300000D02*
X137300000Y-96300000D01*
X134200000Y-96200000D02*
X134300000Y-96300000D01*
%TD*%
M02*
