<?xml version="1.0" encoding="UTF-8" standalone="no"?>
<svg
   xmlns:dc="http://purl.org/dc/elements/1.1/"
   xmlns:cc="http://creativecommons.org/ns#"
   xmlns:rdf="http://www.w3.org/1999/02/22-rdf-syntax-ns#"
   xmlns:svg="http://www.w3.org/2000/svg"
   xmlns="http://www.w3.org/2000/svg"
   xmlns:sodipodi="http://sodipodi.sourceforge.net/DTD/sodipodi-0.dtd"
   xmlns:inkscape="http://www.inkscape.org/namespaces/inkscape"
   version="1.1"
   width="2.214880cm"
   height="1.813560cm"
   viewBox="0 0 8720 7140"
   id="svg240"
   sodipodi:docname="project-brd.svg"
   inkscape:version="1.0.2-2 (e86c870879, 2021-01-15)">
  <metadata
     id="metadata246">
    <rdf:RDF>
      <cc:Work
         rdf:about="">
        <dc:format>image/svg+xml</dc:format>
        <dc:type
           rdf:resource="http://purl.org/dc/dcmitype/StillImage" />
      </cc:Work>
    </rdf:RDF>
  </metadata>
  <defs
     id="defs244" />
  <sodipodi:namedview
     pagecolor="#ffffff"
     bordercolor="#666666"
     borderopacity="1"
     objecttolerance="10"
     gridtolerance="10"
     guidetolerance="10"
     inkscape:pageopacity="0"
     inkscape:pageshadow="2"
     inkscape:window-width="1333"
     inkscape:window-height="861"
     id="namedview242"
     showgrid="false"
     inkscape:zoom="3.7550605"
     inkscape:cx="-21.027257"
     inkscape:cy="35.515339"
     inkscape:window-x="162"
     inkscape:window-y="22"
     inkscape:window-maximized="0"
     inkscape:current-layer="svg240"
     inkscape:document-rotation="0" />
  <title
     id="title2">SVG Picture created as project-brd.svg date 2022/05/02 20:02:11 </title>
  <desc
     id="desc4">Picture generated by PCBNEW </desc>
  <g
     style="fill:#000000; fill-opacity:1;stroke:#000000; stroke-opacity:1; stroke-linecap:round; stroke-linejoin:round;"
     transform="translate(0 0) scale(1 1)"
     id="g6" />
  <g
     id="g8"
     style="fill:#000000;fill-opacity:0;stroke:#000000;stroke-width:-0.000393701;stroke-linecap:round;stroke-linejoin:round;stroke-opacity:1" />
  <g
     style="fill:#000000;fill-opacity:0;stroke:#000000;stroke-width:0;stroke-linecap:round;stroke-linejoin:round;stroke-opacity:1"
     id="g10" />
  <g
     style="fill:#000000;fill-opacity:1;stroke:#000000;stroke-width:0;stroke-linecap:round;stroke-linejoin:round;stroke-opacity:1"
     id="g16">
    <path
       style="fill:#000000;fill-opacity:1;fill-rule:evenodd;stroke:#000000;stroke-width:0;stroke-linecap:round;stroke-linejoin:round;stroke-opacity:1"
       d="M 1072.84,6761.81 H 561.024 v -590.55 h 511.816 z"
       id="path12" />
    <path
       style="fill:#000000;fill-opacity:1;fill-rule:evenodd;stroke:#000000;stroke-width:0;stroke-linecap:round;stroke-linejoin:round;stroke-opacity:1"
       d="M 1072.84,5698.82 H 561.024 v -590.55 h 511.816 z"
       id="path14" />
  </g>
  <g
     id="g18"
     style="fill:#000000;fill-opacity:0;stroke:#000000;stroke-width:-0.000393701;stroke-linecap:round;stroke-linejoin:round;stroke-opacity:1" />
  <g
     style="fill:#000000;fill-opacity:1;stroke:#000000;stroke-width:0;stroke-linecap:round;stroke-linejoin:round;stroke-opacity:1"
     id="g24">
    <path
       style="fill:#000000;fill-opacity:1;fill-rule:evenodd;stroke:#000000;stroke-width:0;stroke-linecap:round;stroke-linejoin:round;stroke-opacity:1"
       d="m 7647.64,2746.06 h 511.81 v 590.55 h -511.81 z"
       id="path20" />
    <path
       style="fill:#000000;fill-opacity:1;fill-rule:evenodd;stroke:#000000;stroke-width:0;stroke-linecap:round;stroke-linejoin:round;stroke-opacity:1"
       d="m 7647.64,3809.06 h 511.81 v 590.55 h -511.81 z"
       id="path22" />
  </g>
  <g
     id="g26"
     style="fill:#000000;fill-opacity:0;stroke:#000000;stroke-width:-0.000393701;stroke-linecap:round;stroke-linejoin:round;stroke-opacity:1" />
  <g
     style="fill:#000000;fill-opacity:1;stroke:#000000;stroke-width:0;stroke-linecap:round;stroke-linejoin:round;stroke-opacity:1"
     id="g32">
    <path
       style="fill:#000000;fill-opacity:1;fill-rule:evenodd;stroke:#000000;stroke-width:0;stroke-linecap:round;stroke-linejoin:round;stroke-opacity:1"
       d="m 6131.89,5324.8 v -354.33 h 196.85 v 354.33 z"
       id="path28" />
    <path
       style="fill:#000000;fill-opacity:1;fill-rule:evenodd;stroke:#000000;stroke-width:0;stroke-linecap:round;stroke-linejoin:round;stroke-opacity:1"
       d="m 6722.44,5324.8 v -354.33 h 196.85 v 354.33 z"
       id="path30" />
  </g>
  <g
     id="g34"
     style="fill:#000000;fill-opacity:0;stroke:#000000;stroke-width:-0.000393701;stroke-linecap:round;stroke-linejoin:round;stroke-opacity:1" />
  <g
     style="fill:#000000;fill-opacity:1;stroke:#000000;stroke-width:0;stroke-linecap:round;stroke-linejoin:round;stroke-opacity:1"
     id="g40">
    <path
       style="fill:#000000;fill-opacity:1;fill-rule:evenodd;stroke:#000000;stroke-width:0;stroke-linecap:round;stroke-linejoin:round;stroke-opacity:1"
       d="m 2588.58,1230.32 v 354.33 h -196.85 v -354.33 z"
       id="path36" />
    <path
       style="fill:#000000;fill-opacity:1;fill-rule:evenodd;stroke:#000000;stroke-width:0;stroke-linecap:round;stroke-linejoin:round;stroke-opacity:1"
       d="m 1998.03,1230.32 v 354.33 h -196.85 v -354.33 z"
       id="path38" />
  </g>
  <g
     id="g42"
     style="fill:#000000;fill-opacity:0;stroke:#000000;stroke-width:-0.000393701;stroke-linecap:round;stroke-linejoin:round;stroke-opacity:1" />
  <g
     style="fill:#000000;fill-opacity:1;stroke:#000000;stroke-width:0;stroke-linecap:round;stroke-linejoin:round;stroke-opacity:1"
     id="g48">
    <path
       style="fill:#000000;fill-opacity:1;fill-rule:evenodd;stroke:#000000;stroke-width:0;stroke-linecap:round;stroke-linejoin:round;stroke-opacity:1"
       d="m 6131.89,6899.61 v -354.33 h 196.85 v 354.33 z"
       id="path44" />
    <path
       style="fill:#000000;fill-opacity:1;fill-rule:evenodd;stroke:#000000;stroke-width:0;stroke-linecap:round;stroke-linejoin:round;stroke-opacity:1"
       d="m 6722.44,6899.61 v -354.33 h 196.85 v 354.33 z"
       id="path46" />
  </g>
  <g
     id="g50"
     style="fill:#000000;fill-opacity:0;stroke:#000000;stroke-width:-0.000393701;stroke-linecap:round;stroke-linejoin:round;stroke-opacity:1" />
  <g
     style="fill:#000000;fill-opacity:1;stroke:#000000;stroke-width:0;stroke-linecap:round;stroke-linejoin:round;stroke-opacity:1"
     id="g56">
    <path
       style="fill:#000000;fill-opacity:1;fill-rule:evenodd;stroke:#000000;stroke-width:0;stroke-linecap:round;stroke-linejoin:round;stroke-opacity:1"
       d="M 6033.46,600.394 V 246.063 h 196.86 v 354.331 z"
       id="path52" />
    <path
       style="fill:#000000;fill-opacity:1;fill-rule:evenodd;stroke:#000000;stroke-width:0;stroke-linecap:round;stroke-linejoin:round;stroke-opacity:1"
       d="M 6624.02,600.394 V 246.063 h 196.85 v 354.331 z"
       id="path54" />
  </g>
  <g
     id="g58"
     style="fill:#000000;fill-opacity:0;stroke:#000000;stroke-width:-0.000393701;stroke-linecap:round;stroke-linejoin:round;stroke-opacity:1" />
  <g
     style="fill:#000000;fill-opacity:1;stroke:#000000;stroke-width:0;stroke-linecap:round;stroke-linejoin:round;stroke-opacity:1"
     id="g64">
    <path
       style="fill:#000000;fill-opacity:1;fill-rule:evenodd;stroke:#000000;stroke-width:0;stroke-linecap:round;stroke-linejoin:round;stroke-opacity:1"
       d="m 6033.46,1387.8 v -354.34 h 196.86 v 354.34 z"
       id="path60" />
    <path
       style="fill:#000000;fill-opacity:1;fill-rule:evenodd;stroke:#000000;stroke-width:0;stroke-linecap:round;stroke-linejoin:round;stroke-opacity:1"
       d="m 6624.02,1387.8 v -354.34 h 196.85 v 354.34 z"
       id="path62" />
  </g>
  <g
     id="g66"
     style="fill:#000000;fill-opacity:0;stroke:#000000;stroke-width:-0.000393701;stroke-linecap:round;stroke-linejoin:round;stroke-opacity:1" />
  <g
     style="fill:#000000;fill-opacity:1;stroke:#000000;stroke-width:0;stroke-linecap:round;stroke-linejoin:round;stroke-opacity:1"
     id="g72">
    <path
       style="fill:#000000;fill-opacity:1;fill-rule:evenodd;stroke:#000000;stroke-width:0;stroke-linecap:round;stroke-linejoin:round;stroke-opacity:1"
       d="M 6820.87,1820.87 V 2175.2 H 6624.02 V 1820.87 Z"
       id="path68" />
    <path
       style="fill:#000000;fill-opacity:1;fill-rule:evenodd;stroke:#000000;stroke-width:0;stroke-linecap:round;stroke-linejoin:round;stroke-opacity:1"
       d="M 6230.32,1820.87 V 2175.2 H 6033.46 V 1820.87 Z"
       id="path70" />
  </g>
  <g
     id="g74"
     style="fill:#000000;fill-opacity:0;stroke:#000000;stroke-width:-0.000393701;stroke-linecap:round;stroke-linejoin:round;stroke-opacity:1" />
  <g
     style="fill:#000000;fill-opacity:1;stroke:#000000;stroke-width:0;stroke-linecap:round;stroke-linejoin:round;stroke-opacity:1"
     id="g80">
    <path
       style="fill:#000000;fill-opacity:1;fill-rule:evenodd;stroke:#000000;stroke-width:0;stroke-linecap:round;stroke-linejoin:round;stroke-opacity:1"
       d="m 2588.58,442.914 v 354.33 h -196.85 v -354.33 z"
       id="path76" />
    <path
       style="fill:#000000;fill-opacity:1;fill-rule:evenodd;stroke:#000000;stroke-width:0;stroke-linecap:round;stroke-linejoin:round;stroke-opacity:1"
       d="m 1998.03,442.914 v 354.33 h -196.85 v -354.33 z"
       id="path78" />
  </g>
  <g
     id="g82"
     style="fill:#000000;fill-opacity:0;stroke:#000000;stroke-width:-0.000393701;stroke-linecap:round;stroke-linejoin:round;stroke-opacity:1" />
  <g
     style="fill:#000000;fill-opacity:1;stroke:#000000;stroke-width:0;stroke-linecap:round;stroke-linejoin:round;stroke-opacity:1"
     id="g92">
    <path
       style="fill:#000000;fill-opacity:1;fill-rule:evenodd;stroke:#000000;stroke-width:0;stroke-linecap:round;stroke-linejoin:round;stroke-opacity:1"
       d="m 4596.46,1958.66 v -275.59 h 354.33 v 275.59 z"
       id="path84" />
    <path
       style="fill:#000000;fill-opacity:1;fill-rule:evenodd;stroke:#000000;stroke-width:0;stroke-linecap:round;stroke-linejoin:round;stroke-opacity:1"
       d="M 4596.46,1525.59 V 1250 h 354.33 v 275.59 z"
       id="path86" />
    <path
       style="fill:#000000;fill-opacity:1;fill-rule:evenodd;stroke:#000000;stroke-width:0;stroke-linecap:round;stroke-linejoin:round;stroke-opacity:1"
       d="m 3783.46,1958.66 v -275.59 h 354.34 v 275.59 z"
       id="path88" />
    <path
       style="fill:#000000;fill-opacity:1;fill-rule:evenodd;stroke:#000000;stroke-width:0;stroke-linecap:round;stroke-linejoin:round;stroke-opacity:1"
       d="M 3783.46,1525.59 V 1250 h 354.34 v 275.59 z"
       id="path90" />
  </g>
  <g
     id="g94"
     style="fill:#000000;fill-opacity:0;stroke:#000000;stroke-width:-0.000393701;stroke-linecap:round;stroke-linejoin:round;stroke-opacity:1" />
  <g
     style="fill:#000000;fill-opacity:1;stroke:#000000;stroke-width:0;stroke-linecap:round;stroke-linejoin:round;stroke-opacity:1"
     id="g104">
    <path
       style="fill:#000000;fill-opacity:1;fill-rule:evenodd;stroke:#000000;stroke-width:0;stroke-linecap:round;stroke-linejoin:round;stroke-opacity:1"
       d="M 3783.46,5462.6 V 5187.01 H 4137.8 V 5462.6 Z"
       id="path96" />
    <path
       style="fill:#000000;fill-opacity:1;fill-rule:evenodd;stroke:#000000;stroke-width:0;stroke-linecap:round;stroke-linejoin:round;stroke-opacity:1"
       d="m 3783.46,5895.67 v -275.59 h 354.34 v 275.59 z"
       id="path98" />
    <path
       style="fill:#000000;fill-opacity:1;fill-rule:evenodd;stroke:#000000;stroke-width:0;stroke-linecap:round;stroke-linejoin:round;stroke-opacity:1"
       d="m 4596.46,5462.6 v -275.59 h 354.33 v 275.59 z"
       id="path100" />
    <path
       style="fill:#000000;fill-opacity:1;fill-rule:evenodd;stroke:#000000;stroke-width:0;stroke-linecap:round;stroke-linejoin:round;stroke-opacity:1"
       d="m 4596.46,5895.67 v -275.59 h 354.33 v 275.59 z"
       id="path102" />
  </g>
  <g
     id="g106"
     style="fill:#000000;fill-opacity:0;stroke:#000000;stroke-width:-0.000393701;stroke-linecap:round;stroke-linejoin:round;stroke-opacity:1" />
  <g
     style="fill:#000000;fill-opacity:1;stroke:#000000;stroke-width:0;stroke-linecap:round;stroke-linejoin:round;stroke-opacity:1"
     id="g112">
    <path
       style="fill:#000000;fill-opacity:1;fill-rule:evenodd;stroke:#000000;stroke-width:0;stroke-linecap:round;stroke-linejoin:round;stroke-opacity:1"
       d="m 2096.46,5659.45 v 354.33 h -196.85 v -354.33 z"
       id="path108" />
    <path
       style="fill:#000000;fill-opacity:1;fill-rule:evenodd;stroke:#000000;stroke-width:0;stroke-linecap:round;stroke-linejoin:round;stroke-opacity:1"
       d="m 2687.01,5659.45 v 354.33 h -196.85 v -354.33 z"
       id="path110" />
  </g>
  <g
     id="g114"
     style="fill:#000000;fill-opacity:0;stroke:#000000;stroke-width:-0.000393701;stroke-linecap:round;stroke-linejoin:round;stroke-opacity:1" />
  <g
     style="fill:#000000;fill-opacity:1;stroke:#000000;stroke-width:0;stroke-linecap:round;stroke-linejoin:round;stroke-opacity:1"
     id="g120">
    <path
       style="fill:#000000;fill-opacity:1;fill-rule:evenodd;stroke:#000000;stroke-width:0;stroke-linecap:round;stroke-linejoin:round;stroke-opacity:1"
       d="m 2490.16,6801.18 v -354.33 h 196.85 v 354.33 z"
       id="path116" />
    <path
       style="fill:#000000;fill-opacity:1;fill-rule:evenodd;stroke:#000000;stroke-width:0;stroke-linecap:round;stroke-linejoin:round;stroke-opacity:1"
       d="m 1899.61,6801.18 v -354.33 h 196.85 v 354.33 z"
       id="path118" />
  </g>
  <g
     id="g122"
     style="fill:#000000;fill-opacity:0;stroke:#000000;stroke-width:-0.000393701;stroke-linecap:round;stroke-linejoin:round;stroke-opacity:1" />
  <g
     style="fill:#000000;fill-opacity:1;stroke:#000000;stroke-width:0;stroke-linecap:round;stroke-linejoin:round;stroke-opacity:1"
     id="g128">
    <path
       style="fill:#000000;fill-opacity:1;fill-rule:evenodd;stroke:#000000;stroke-width:0;stroke-linecap:round;stroke-linejoin:round;stroke-opacity:1"
       d="M 5492.13,1564.96 H 5196.85 V 1250 h 295.28 z"
       id="path124" />
    <path
       style="fill:#000000;fill-opacity:1;fill-rule:evenodd;stroke:#000000;stroke-width:0;stroke-linecap:round;stroke-linejoin:round;stroke-opacity:1"
       d="m 5492.13,2155.51 h -295.28 v -314.96 h 295.28 z"
       id="path126" />
  </g>
  <g
     id="g130"
     style="fill:#000000;fill-opacity:0;stroke:#000000;stroke-width:-0.000393701;stroke-linecap:round;stroke-linejoin:round;stroke-opacity:1" />
  <g
     style="fill:#000000;fill-opacity:1;stroke:#000000;stroke-width:0;stroke-linecap:round;stroke-linejoin:round;stroke-opacity:1"
     id="g136">
    <path
       style="fill:#000000;fill-opacity:1;fill-rule:evenodd;stroke:#000000;stroke-width:0;stroke-linecap:round;stroke-linejoin:round;stroke-opacity:1"
       d="M 6072.84,6082.68 V 5787.4 h 314.96 v 295.28 z"
       id="path132" />
    <path
       style="fill:#000000;fill-opacity:1;fill-rule:evenodd;stroke:#000000;stroke-width:0;stroke-linecap:round;stroke-linejoin:round;stroke-opacity:1"
       d="M 6663.39,6082.68 V 5787.4 h 314.96 v 295.28 z"
       id="path134" />
  </g>
  <g
     id="g138"
     style="fill:#000000;fill-opacity:0;stroke:#000000;stroke-width:-0.000393701;stroke-linecap:round;stroke-linejoin:round;stroke-opacity:1" />
  <g
     id="g140"
     style="fill:#000000;fill-opacity:0;stroke:#000000;stroke-width:-0.000393701;stroke-linecap:round;stroke-linejoin:round;stroke-opacity:1" />
  <g
     id="g142"
     style="fill:#000000;fill-opacity:0;stroke:#000000;stroke-width:-0.000393701;stroke-linecap:round;stroke-linejoin:round;stroke-opacity:1" />
  <g
     id="g144"
     style="fill:#000000;fill-opacity:0;stroke:#000000;stroke-width:-0.000393701;stroke-linecap:round;stroke-linejoin:round;stroke-opacity:1" />
  <g
     id="g154"
     style="fill:#000000;fill-opacity:0;stroke:#000000;stroke-width:-0.000393701;stroke-linecap:round;stroke-linejoin:round;stroke-opacity:1" />
  <g
     id="g156"
     style="fill:#000000;fill-opacity:0;stroke:#000000;stroke-width:-0.000393701;stroke-linecap:round;stroke-linejoin:round;stroke-opacity:1" />
  <g
     id="g158"
     style="fill:#000000;fill-opacity:0;stroke:#000000;stroke-width:-0.000393701;stroke-linecap:round;stroke-linejoin:round;stroke-opacity:1" />
  <g
     style="fill:#000000;fill-opacity:1;stroke:#000000;stroke-width:0;stroke-linecap:round;stroke-linejoin:round;stroke-opacity:1"
     id="g164">
    <path
       style="fill:#000000;fill-opacity:1;fill-rule:evenodd;stroke:#000000;stroke-width:0;stroke-linecap:round;stroke-linejoin:round;stroke-opacity:1"
       d="m 4557.09,2342.52 v 492.13 h -393.7 v -492.13 z"
       id="path160" />
    <path
       style="fill:#000000;fill-opacity:1;fill-rule:evenodd;stroke:#000000;stroke-width:0;stroke-linecap:round;stroke-linejoin:round;stroke-opacity:1"
       d="m 3769.69,2342.52 v 492.13 h -393.71 v -492.13 z"
       id="path162" />
  </g>
  <g
     id="g166"
     style="fill:#000000;fill-opacity:0;stroke:#000000;stroke-width:-0.000393701;stroke-linecap:round;stroke-linejoin:round;stroke-opacity:1" />
  <g
     style="fill:#000000;fill-opacity:1;stroke:#000000;stroke-width:0;stroke-linecap:round;stroke-linejoin:round;stroke-opacity:1"
     id="g172">
    <path
       style="fill:#000000;fill-opacity:1;fill-rule:evenodd;stroke:#000000;stroke-width:0;stroke-linecap:round;stroke-linejoin:round;stroke-opacity:1"
       d="m 5482.28,2736.22 v -295.27 h 314.96 v 295.27 z"
       id="path168" />
    <path
       style="fill:#000000;fill-opacity:1;fill-rule:evenodd;stroke:#000000;stroke-width:0;stroke-linecap:round;stroke-linejoin:round;stroke-opacity:1"
       d="m 4891.73,2736.22 v -295.27 h 314.96 v 295.27 z"
       id="path170" />
  </g>
  <g
     id="g174"
     style="fill:#000000;fill-opacity:0;stroke:#000000;stroke-width:-0.000393701;stroke-linecap:round;stroke-linejoin:round;stroke-opacity:1" />
  <path
     style="fill:#000000;fill-opacity:1;fill-rule:evenodd;stroke:#000000;stroke-width:0;stroke-linecap:round;stroke-linejoin:round;stroke-opacity:1"
     d="m 5304.74,3517.34 -1.12,3.69 -1.82,3.41 -2.45,2.98 -19.96,19.96 -2.98,2.45 -3.41,1.82 -3.69,1.12 -3.84,0.38 h -19.41 l -3.84,-0.38 -3.69,-1.12 -3.4,-1.82 -2.99,-2.45 -2.44,-2.98 -1.82,-3.4 -1.12,-3.69 -0.38,-3.85 v -275.59 l 0.38,-3.84 1.12,-3.69 1.82,-3.4 2.44,-2.98 2.99,-2.45 3.4,-1.82 3.69,-1.12 3.84,-0.38 h 39.37 l 3.84,0.38 3.7,1.12 3.4,1.82 2.98,2.45 2.45,2.98 1.82,3.4 1.12,3.69 0.38,3.84 v 255.63 z"
     id="path176" />
  <path
     style="fill:#000000;fill-opacity:1;fill-rule:evenodd;stroke:#000000;stroke-width:0;stroke-linecap:round;stroke-linejoin:round;stroke-opacity:1"
     d="m 5129.88,3238.28 1.91,0.29 1.88,0.47 1.82,0.65 1.74,0.82 1.66,1 1.55,1.15 1.43,1.3 1.3,1.43 1.15,1.55 0.99,1.65 0.83,1.75 0.65,1.82 0.47,1.87 0.28,1.91 0.1,1.93 v 275.59 l -0.1,1.93 -0.28,1.92 -0.47,1.87 -0.65,1.82 -0.83,1.74 -0.99,1.66 -1.15,1.55 -1.3,1.43 -1.43,1.3 -1.55,1.15 -1.66,1 -1.74,0.82 -1.82,0.65 -1.88,0.47 -1.91,0.29 -1.93,0.09 h -39.37 l -1.93,-0.09 -1.91,-0.29 -1.87,-0.47 -1.82,-0.65 -1.75,-0.82 -1.65,-1 -1.56,-1.15 -1.43,-1.3 -1.29,-1.43 -1.15,-1.55 -1,-1.66 -0.82,-1.74 -0.65,-1.82 -0.47,-1.87 -0.29,-1.92 -0.09,-1.93 v -275.59 l 0.09,-1.93 0.29,-1.91 0.47,-1.87 0.65,-1.82 0.82,-1.75 1,-1.65 1.15,-1.55 1.29,-1.43 1.43,-1.3 1.56,-1.15 1.65,-1 1.75,-0.82 1.82,-0.65 1.87,-0.47 1.91,-0.29 1.93,-0.09 h 39.37 z"
     id="path178" />
  <path
     style="fill:#000000;fill-opacity:1;fill-rule:evenodd;stroke:#000000;stroke-width:0;stroke-linecap:round;stroke-linejoin:round;stroke-opacity:1"
     d="m 4972.4,3238.28 1.91,0.29 1.88,0.47 1.82,0.65 1.74,0.82 1.66,1 1.55,1.15 1.43,1.3 1.3,1.43 1.15,1.55 0.99,1.65 0.83,1.75 0.65,1.82 0.47,1.87 0.28,1.91 0.1,1.93 v 275.59 l -0.1,1.93 -0.28,1.92 -0.47,1.87 -0.65,1.82 -0.83,1.74 -0.99,1.66 -1.15,1.55 -1.3,1.43 -1.43,1.3 -1.55,1.15 -1.66,1 -1.74,0.82 -1.82,0.65 -1.88,0.47 -1.91,0.29 -1.93,0.09 h -39.37 l -1.93,-0.09 -1.91,-0.29 -1.87,-0.47 -1.82,-0.65 -1.75,-0.82 -1.65,-1 -1.56,-1.15 -1.43,-1.3 -1.29,-1.43 -1.15,-1.55 -1,-1.66 -0.82,-1.74 -0.65,-1.82 -0.47,-1.87 -0.29,-1.92 -0.09,-1.93 v -275.59 l 0.09,-1.93 0.29,-1.91 0.47,-1.87 0.65,-1.82 0.82,-1.75 1,-1.65 1.15,-1.55 1.29,-1.43 1.43,-1.3 1.56,-1.15 1.65,-1 1.75,-0.82 1.82,-0.65 1.87,-0.47 1.91,-0.29 1.93,-0.09 h 39.37 z"
     id="path180" />
  <path
     style="fill:#000000;fill-opacity:1;fill-rule:evenodd;stroke:#000000;stroke-width:0;stroke-linecap:round;stroke-linejoin:round;stroke-opacity:1"
     d="m 4814.92,3238.28 1.91,0.29 1.88,0.47 1.82,0.65 1.74,0.82 1.66,1 1.55,1.15 1.43,1.3 1.3,1.43 1.15,1.55 0.99,1.65 0.83,1.75 0.65,1.82 0.47,1.87 0.28,1.91 0.1,1.93 v 275.59 l -0.1,1.93 -0.28,1.92 -0.47,1.87 -0.65,1.82 -0.83,1.74 -0.99,1.66 -1.15,1.55 -1.3,1.43 -1.43,1.3 -1.55,1.15 -1.66,1 -1.74,0.82 -1.82,0.65 -1.88,0.47 -1.91,0.29 -1.93,0.09 h -39.37 l -1.93,-0.09 -1.91,-0.29 -1.87,-0.47 -1.82,-0.65 -1.75,-0.82 -1.65,-1 -1.56,-1.15 -1.43,-1.3 -1.29,-1.43 -1.15,-1.55 -1,-1.66 -0.82,-1.74 -0.65,-1.82 -0.47,-1.87 -0.29,-1.92 -0.09,-1.93 v -275.59 l 0.09,-1.93 0.29,-1.91 0.47,-1.87 0.65,-1.82 0.82,-1.75 1,-1.65 1.15,-1.55 1.29,-1.43 1.43,-1.3 1.56,-1.15 1.65,-1 1.75,-0.82 1.82,-0.65 1.87,-0.47 1.91,-0.29 1.93,-0.09 h 39.37 z"
     id="path182" />
  <path
     style="fill:#000000;fill-opacity:1;fill-rule:evenodd;stroke:#000000;stroke-width:0;stroke-linecap:round;stroke-linejoin:round;stroke-opacity:1"
     d="m 4674.82,3537.31 -1.12,3.69 -1.82,3.4 -2.45,2.98 -2.98,2.45 -3.4,1.82 -3.7,1.12 -3.84,0.38 h -19.4 l -3.84,-0.38 -3.7,-1.12 -3.4,-1.82 -2.98,-2.45 -19.97,-19.96 -2.45,-2.98 -1.81,-3.41 -1.12,-3.69 -0.38,-3.84 v -255.63 l 0.38,-3.84 1.12,-3.69 1.81,-3.4 2.45,-2.98 2.99,-2.45 3.4,-1.82 3.69,-1.12 3.84,-0.38 h 39.37 l 3.84,0.38 3.7,1.12 3.4,1.82 2.98,2.45 2.45,2.98 1.82,3.4 1.12,3.69 0.38,3.84 v 275.59 z"
     id="path184" />
  <path
     style="fill:#000000;fill-opacity:1;fill-rule:evenodd;stroke:#000000;stroke-width:0;stroke-linecap:round;stroke-linejoin:round;stroke-opacity:1"
     d="m 4537.02,3675.1 -1.12,3.69 -1.82,3.41 -2.44,2.98 -2.99,2.45 -3.4,1.82 -3.69,1.12 -3.84,0.38 h -275.59 l -3.84,-0.38 -3.7,-1.12 -3.4,-1.82 -2.98,-2.45 -2.45,-2.98 -1.82,-3.41 -1.12,-3.69 -0.38,-3.84 v -39.37 l 0.38,-3.84 1.12,-3.69 1.82,-3.41 2.45,-2.98 2.98,-2.45 3.4,-1.82 3.7,-1.12 3.84,-0.37 h 255.62 l 3.84,0.37 3.7,1.12 3.4,1.82 2.98,2.45 19.97,19.97 2.44,2.98 1.82,3.4 1.12,3.69 0.38,3.85 v 19.4 z"
     id="path186" />
  <path
     style="fill:#000000;fill-opacity:1;fill-rule:evenodd;stroke:#000000;stroke-width:0;stroke-linecap:round;stroke-linejoin:round;stroke-opacity:1"
     d="m 4519.65,3769.78 1.91,0.28 1.87,0.47 1.82,0.65 1.75,0.83 1.65,0.99 1.56,1.15 1.43,1.3 1.29,1.43 1.15,1.55 1,1.66 0.82,1.75 0.65,1.82 0.47,1.87 0.29,1.91 0.09,1.93 v 39.37 l -0.09,1.93 -0.29,1.91 -0.47,1.87 -0.65,1.82 -0.82,1.75 -1,1.66 -1.15,1.55 -1.29,1.43 -1.43,1.3 -1.56,1.15 -1.65,0.99 -1.75,0.83 -1.82,0.65 -1.87,0.47 -1.91,0.28 -1.93,0.1 h -275.59 l -1.93,-0.1 -1.91,-0.28 -1.88,-0.47 -1.82,-0.65 -1.74,-0.83 -1.66,-0.99 -1.55,-1.15 -1.43,-1.3 -1.3,-1.43 -1.15,-1.55 -0.99,-1.66 -0.83,-1.75 -0.65,-1.82 -0.47,-1.87 -0.28,-1.91 -0.1,-1.93 v -39.37 l 0.1,-1.93 0.28,-1.91 0.47,-1.87 0.65,-1.82 0.83,-1.75 0.99,-1.66 1.15,-1.55 1.3,-1.43 1.43,-1.3 1.55,-1.15 1.66,-0.99 1.74,-0.83 1.82,-0.65 1.88,-0.47 1.91,-0.28 1.93,-0.09 h 275.59 z"
     id="path188" />
  <path
     style="fill:#000000;fill-opacity:1;fill-rule:evenodd;stroke:#000000;stroke-width:0;stroke-linecap:round;stroke-linejoin:round;stroke-opacity:1"
     d="m 4519.65,3927.26 1.91,0.28 1.87,0.47 1.82,0.65 1.75,0.83 1.65,0.99 1.56,1.15 1.43,1.3 1.29,1.43 1.15,1.55 1,1.66 0.82,1.75 0.65,1.82 0.47,1.87 0.29,1.91 0.09,1.93 v 39.37 l -0.09,1.93 -0.29,1.91 -0.47,1.88 -0.65,1.81 -0.82,1.75 -1,1.66 -1.15,1.55 -1.29,1.43 -1.43,1.3 -1.56,1.15 -1.65,0.99 -1.75,0.83 -1.82,0.65 -1.87,0.47 -1.91,0.28 -1.93,0.1 h -275.59 l -1.93,-0.1 -1.91,-0.28 -1.88,-0.47 -1.82,-0.65 -1.74,-0.83 -1.66,-0.99 -1.55,-1.15 -1.43,-1.3 -1.3,-1.43 -1.15,-1.55 -0.99,-1.66 -0.83,-1.75 -0.65,-1.81 -0.47,-1.88 -0.28,-1.91 -0.1,-1.93 v -39.37 l 0.1,-1.93 0.28,-1.91 0.47,-1.87 0.65,-1.82 0.83,-1.75 0.99,-1.66 1.15,-1.55 1.3,-1.43 1.43,-1.3 1.55,-1.15 1.66,-0.99 1.74,-0.83 1.82,-0.65 1.88,-0.47 1.91,-0.28 1.93,-0.09 h 275.59 z"
     id="path190" />
  <path
     style="fill:#000000;fill-opacity:1;fill-rule:evenodd;stroke:#000000;stroke-width:0;stroke-linecap:round;stroke-linejoin:round;stroke-opacity:1"
     d="m 4519.65,4084.74 1.91,0.28 1.87,0.47 1.82,0.65 1.75,0.83 1.65,0.99 1.56,1.15 1.43,1.3 1.29,1.43 1.15,1.55 1,1.66 0.82,1.75 0.65,1.82 0.47,1.87 0.29,1.91 0.09,1.93 v 39.37 l -0.09,1.93 -0.29,1.91 -0.47,1.88 -0.65,1.81 -0.82,1.75 -1,1.66 -1.15,1.55 -1.29,1.43 -1.43,1.3 -1.56,1.15 -1.65,0.99 -1.75,0.83 -1.82,0.65 -1.87,0.47 -1.91,0.28 -1.93,0.1 h -275.59 l -1.93,-0.1 -1.91,-0.28 -1.88,-0.47 -1.82,-0.65 -1.74,-0.83 -1.66,-0.99 -1.55,-1.15 -1.43,-1.3 -1.3,-1.43 -1.15,-1.55 -0.99,-1.66 -0.83,-1.75 -0.65,-1.81 -0.47,-1.88 -0.28,-1.91 -0.1,-1.93 v -39.37 l 0.1,-1.93 0.28,-1.91 0.47,-1.87 0.65,-1.82 0.83,-1.75 0.99,-1.66 1.15,-1.55 1.3,-1.43 1.43,-1.3 1.55,-1.15 1.66,-0.99 1.74,-0.83 1.82,-0.65 1.88,-0.47 1.91,-0.28 1.93,-0.09 h 275.59 z"
     id="path192" />
  <path
     style="fill:#000000;fill-opacity:1;fill-rule:evenodd;stroke:#000000;stroke-width:0;stroke-linecap:round;stroke-linejoin:round;stroke-opacity:1"
     d="m 4537.02,4285.06 -1.12,3.69 -1.82,3.4 -2.44,2.99 -19.97,19.96 -2.98,2.45 -3.4,1.82 -3.7,1.12 -3.84,0.38 h -255.62 l -3.84,-0.38 -3.7,-1.12 -3.4,-1.82 -2.98,-2.45 -2.45,-2.98 -1.82,-3.41 -1.12,-3.69 -0.38,-3.84 v -39.37 l 0.38,-3.84 1.12,-3.69 1.82,-3.41 2.45,-2.98 2.98,-2.45 3.4,-1.82 3.7,-1.12 3.84,-0.37 h 275.59 l 3.84,0.37 3.69,1.12 3.4,1.82 2.99,2.45 2.44,2.98 1.82,3.41 1.12,3.69 0.38,3.84 v 19.41 z"
     id="path194" />
  <path
     style="fill:#000000;fill-opacity:1;fill-rule:evenodd;stroke:#000000;stroke-width:0;stroke-linecap:round;stroke-linejoin:round;stroke-opacity:1"
     d="m 4674.82,4679.04 -1.12,3.69 -1.82,3.4 -2.45,2.99 -2.98,2.44 -3.4,1.82 -3.7,1.12 -3.84,0.38 h -39.37 l -3.84,-0.38 -3.69,-1.12 -3.4,-1.82 -2.99,-2.44 -2.45,-2.99 -1.81,-3.4 -1.12,-3.69 -0.38,-3.84 v -255.63 l 0.38,-3.84 1.12,-3.69 1.81,-3.4 2.45,-2.99 19.97,-19.96 2.98,-2.45 3.4,-1.82 3.7,-1.12 3.84,-0.38 h 19.4 l 3.84,0.38 3.7,1.12 3.4,1.82 2.98,2.45 2.45,2.98 1.82,3.4 1.12,3.7 0.38,3.84 v 275.59 z"
     id="path196" />
  <path
     style="fill:#000000;fill-opacity:1;fill-rule:evenodd;stroke:#000000;stroke-width:0;stroke-linecap:round;stroke-linejoin:round;stroke-opacity:1"
     d="m 4814.92,4380.02 1.91,0.28 1.88,0.47 1.82,0.65 1.74,0.83 1.66,0.99 1.55,1.15 1.43,1.3 1.3,1.43 1.15,1.55 0.99,1.66 0.83,1.74 0.65,1.82 0.47,1.88 0.28,1.91 0.1,1.93 v 275.59 l -0.1,1.93 -0.28,1.91 -0.47,1.87 -0.65,1.82 -0.83,1.75 -0.99,1.65 -1.15,1.56 -1.3,1.43 -1.43,1.29 -1.55,1.15 -1.66,1 -1.74,0.82 -1.82,0.65 -1.88,0.47 -1.91,0.29 -1.93,0.09 h -39.37 l -1.93,-0.09 -1.91,-0.29 -1.87,-0.47 -1.82,-0.65 -1.75,-0.82 -1.65,-1 -1.56,-1.15 -1.43,-1.29 -1.29,-1.43 -1.15,-1.56 -1,-1.65 -0.82,-1.75 -0.65,-1.82 -0.47,-1.87 -0.29,-1.91 -0.09,-1.93 v -275.59 l 0.09,-1.93 0.29,-1.91 0.47,-1.88 0.65,-1.82 0.82,-1.74 1,-1.66 1.15,-1.55 1.29,-1.43 1.43,-1.3 1.56,-1.15 1.65,-0.99 1.75,-0.83 1.82,-0.65 1.87,-0.47 1.91,-0.28 1.93,-0.1 h 39.37 z"
     id="path198" />
  <path
     style="fill:#000000;fill-opacity:1;fill-rule:evenodd;stroke:#000000;stroke-width:0;stroke-linecap:round;stroke-linejoin:round;stroke-opacity:1"
     d="m 4972.4,4380.02 1.91,0.28 1.88,0.47 1.82,0.65 1.74,0.83 1.66,0.99 1.55,1.15 1.43,1.3 1.3,1.43 1.15,1.55 0.99,1.66 0.83,1.74 0.65,1.82 0.47,1.88 0.28,1.91 0.1,1.93 v 275.59 l -0.1,1.93 -0.28,1.91 -0.47,1.87 -0.65,1.82 -0.83,1.75 -0.99,1.65 -1.15,1.56 -1.3,1.43 -1.43,1.29 -1.55,1.15 -1.66,1 -1.74,0.82 -1.82,0.65 -1.88,0.47 -1.91,0.29 -1.93,0.09 h -39.37 l -1.93,-0.09 -1.91,-0.29 -1.87,-0.47 -1.82,-0.65 -1.75,-0.82 -1.65,-1 -1.56,-1.15 -1.43,-1.29 -1.29,-1.43 -1.15,-1.56 -1,-1.65 -0.82,-1.75 -0.65,-1.82 -0.47,-1.87 -0.29,-1.91 -0.09,-1.93 v -275.59 l 0.09,-1.93 0.29,-1.91 0.47,-1.88 0.65,-1.82 0.82,-1.74 1,-1.66 1.15,-1.55 1.29,-1.43 1.43,-1.3 1.56,-1.15 1.65,-0.99 1.75,-0.83 1.82,-0.65 1.87,-0.47 1.91,-0.28 1.93,-0.1 h 39.37 z"
     id="path200" />
  <path
     style="fill:#000000;fill-opacity:1;fill-rule:evenodd;stroke:#000000;stroke-width:0;stroke-linecap:round;stroke-linejoin:round;stroke-opacity:1"
     d="m 5129.88,4380.02 1.91,0.28 1.88,0.47 1.82,0.65 1.74,0.83 1.66,0.99 1.55,1.15 1.43,1.3 1.3,1.43 1.15,1.55 0.99,1.66 0.83,1.74 0.65,1.82 0.47,1.88 0.28,1.91 0.1,1.93 v 275.59 l -0.1,1.93 -0.28,1.91 -0.47,1.87 -0.65,1.82 -0.83,1.75 -0.99,1.65 -1.15,1.56 -1.3,1.43 -1.43,1.29 -1.55,1.15 -1.66,1 -1.74,0.82 -1.82,0.65 -1.88,0.47 -1.91,0.29 -1.93,0.09 h -39.37 l -1.93,-0.09 -1.91,-0.29 -1.87,-0.47 -1.82,-0.65 -1.75,-0.82 -1.65,-1 -1.56,-1.15 -1.43,-1.29 -1.29,-1.43 -1.15,-1.56 -1,-1.65 -0.82,-1.75 -0.65,-1.82 -0.47,-1.87 -0.29,-1.91 -0.09,-1.93 v -275.59 l 0.09,-1.93 0.29,-1.91 0.47,-1.88 0.65,-1.82 0.82,-1.74 1,-1.66 1.15,-1.55 1.29,-1.43 1.43,-1.3 1.56,-1.15 1.65,-0.99 1.75,-0.83 1.82,-0.65 1.87,-0.47 1.91,-0.28 1.93,-0.1 h 39.37 z"
     id="path202" />
  <path
     style="fill:#000000;fill-opacity:1;fill-rule:evenodd;stroke:#000000;stroke-width:0;stroke-linecap:round;stroke-linejoin:round;stroke-opacity:1"
     d="m 5304.74,4679.04 -1.12,3.69 -1.82,3.4 -2.45,2.99 -2.98,2.44 -3.4,1.82 -3.7,1.12 -3.84,0.38 h -39.37 l -3.84,-0.38 -3.69,-1.12 -3.4,-1.82 -2.99,-2.44 -2.44,-2.99 -1.82,-3.4 -1.12,-3.69 -0.38,-3.84 v -275.59 l 0.38,-3.84 1.12,-3.7 1.82,-3.4 2.44,-2.98 2.99,-2.45 3.4,-1.82 3.69,-1.12 3.84,-0.38 h 19.41 l 3.84,0.38 3.69,1.12 3.41,1.82 2.98,2.45 19.96,19.96 2.45,2.99 1.82,3.4 1.12,3.69 0.38,3.84 v 255.63 z"
     id="path204" />
  <path
     style="fill:#000000;fill-opacity:1;fill-rule:evenodd;stroke:#000000;stroke-width:0;stroke-linecap:round;stroke-linejoin:round;stroke-opacity:1"
     d="m 5678.76,4305.02 -1.12,3.69 -1.82,3.41 -2.45,2.98 -2.98,2.45 -3.41,1.82 -3.69,1.12 -3.84,0.38 h -255.63 l -3.84,-0.38 -3.69,-1.12 -3.4,-1.82 -2.99,-2.45 -19.96,-19.96 -2.45,-2.99 -1.82,-3.4 -1.12,-3.69 -0.38,-3.84 v -19.41 l 0.38,-3.84 1.12,-3.69 1.82,-3.41 2.45,-2.98 2.98,-2.45 3.41,-1.82 3.69,-1.12 3.84,-0.37 h 275.59 l 3.84,0.37 3.69,1.12 3.41,1.82 2.98,2.45 2.45,2.98 1.82,3.41 1.12,3.69 0.37,3.84 v 39.37 z"
     id="path206" />
  <path
     style="fill:#000000;fill-opacity:1;fill-rule:evenodd;stroke:#000000;stroke-width:0;stroke-linecap:round;stroke-linejoin:round;stroke-opacity:1"
     d="m 5661.38,4084.74 1.91,0.28 1.87,0.47 1.82,0.65 1.75,0.83 1.66,0.99 1.55,1.15 1.43,1.3 1.3,1.43 1.15,1.55 0.99,1.66 0.83,1.75 0.65,1.82 0.47,1.87 0.28,1.91 0.09,1.93 v 39.37 l -0.09,1.93 -0.28,1.91 -0.47,1.88 -0.65,1.81 -0.83,1.75 -0.99,1.66 -1.15,1.55 -1.3,1.43 -1.43,1.3 -1.55,1.15 -1.66,0.99 -1.75,0.83 -1.82,0.65 -1.87,0.47 -1.91,0.28 -1.93,0.1 h -275.59 l -1.93,-0.1 -1.91,-0.28 -1.88,-0.47 -1.81,-0.65 -1.75,-0.83 -1.66,-0.99 -1.55,-1.15 -1.43,-1.3 -1.3,-1.43 -1.15,-1.55 -0.99,-1.66 -0.83,-1.75 -0.65,-1.81 -0.47,-1.88 -0.28,-1.91 -0.1,-1.93 v -39.37 l 0.1,-1.93 0.28,-1.91 0.47,-1.87 0.65,-1.82 0.83,-1.75 0.99,-1.66 1.15,-1.55 1.3,-1.43 1.43,-1.3 1.55,-1.15 1.66,-0.99 1.75,-0.83 1.81,-0.65 1.88,-0.47 1.91,-0.28 1.93,-0.09 h 275.59 z"
     id="path208" />
  <path
     style="fill:#000000;fill-opacity:1;fill-rule:evenodd;stroke:#000000;stroke-width:0;stroke-linecap:round;stroke-linejoin:round;stroke-opacity:1"
     d="m 5661.38,3927.26 1.91,0.28 1.87,0.47 1.82,0.65 1.75,0.83 1.66,0.99 1.55,1.15 1.43,1.3 1.3,1.43 1.15,1.55 0.99,1.66 0.83,1.75 0.65,1.82 0.47,1.87 0.28,1.91 0.09,1.93 v 39.37 l -0.09,1.93 -0.28,1.91 -0.47,1.88 -0.65,1.81 -0.83,1.75 -0.99,1.66 -1.15,1.55 -1.3,1.43 -1.43,1.3 -1.55,1.15 -1.66,0.99 -1.75,0.83 -1.82,0.65 -1.87,0.47 -1.91,0.28 -1.93,0.1 h -275.59 l -1.93,-0.1 -1.91,-0.28 -1.88,-0.47 -1.81,-0.65 -1.75,-0.83 -1.66,-0.99 -1.55,-1.15 -1.43,-1.3 -1.3,-1.43 -1.15,-1.55 -0.99,-1.66 -0.83,-1.75 -0.65,-1.81 -0.47,-1.88 -0.28,-1.91 -0.1,-1.93 v -39.37 l 0.1,-1.93 0.28,-1.91 0.47,-1.87 0.65,-1.82 0.83,-1.75 0.99,-1.66 1.15,-1.55 1.3,-1.43 1.43,-1.3 1.55,-1.15 1.66,-0.99 1.75,-0.83 1.81,-0.65 1.88,-0.47 1.91,-0.28 1.93,-0.09 h 275.59 z"
     id="path210" />
  <path
     style="fill:#000000;fill-opacity:1;fill-rule:evenodd;stroke:#000000;stroke-width:0;stroke-linecap:round;stroke-linejoin:round;stroke-opacity:1"
     d="m 5661.38,3769.78 1.91,0.28 1.87,0.47 1.82,0.65 1.75,0.83 1.66,0.99 1.55,1.15 1.43,1.3 1.3,1.43 1.15,1.55 0.99,1.66 0.83,1.75 0.65,1.82 0.47,1.87 0.28,1.91 0.09,1.93 v 39.37 l -0.09,1.93 -0.28,1.91 -0.47,1.87 -0.65,1.82 -0.83,1.75 -0.99,1.66 -1.15,1.55 -1.3,1.43 -1.43,1.3 -1.55,1.15 -1.66,0.99 -1.75,0.83 -1.82,0.65 -1.87,0.47 -1.91,0.28 -1.93,0.1 h -275.59 l -1.93,-0.1 -1.91,-0.28 -1.88,-0.47 -1.81,-0.65 -1.75,-0.83 -1.66,-0.99 -1.55,-1.15 -1.43,-1.3 -1.3,-1.43 -1.15,-1.55 -0.99,-1.66 -0.83,-1.75 -0.65,-1.82 -0.47,-1.87 -0.28,-1.91 -0.1,-1.93 v -39.37 l 0.1,-1.93 0.28,-1.91 0.47,-1.87 0.65,-1.82 0.83,-1.75 0.99,-1.66 1.15,-1.55 1.3,-1.43 1.43,-1.3 1.55,-1.15 1.66,-0.99 1.75,-0.83 1.81,-0.65 1.88,-0.47 1.91,-0.28 1.93,-0.09 h 275.59 z"
     id="path212" />
  <path
     style="fill:#000000;fill-opacity:1;fill-rule:evenodd;stroke:#000000;stroke-width:0;stroke-linecap:round;stroke-linejoin:round;stroke-opacity:1"
     d="m 5678.76,3675.1 -1.12,3.69 -1.82,3.41 -2.45,2.98 -2.98,2.45 -3.41,1.82 -3.69,1.12 -3.84,0.38 h -275.59 l -3.84,-0.38 -3.69,-1.12 -3.41,-1.82 -2.98,-2.45 -2.45,-2.98 -1.82,-3.41 -1.12,-3.69 -0.38,-3.84 v -19.4 l 0.38,-3.85 1.12,-3.69 1.82,-3.4 2.45,-2.98 19.96,-19.97 2.99,-2.45 3.4,-1.82 3.69,-1.12 3.84,-0.37 h 255.63 l 3.84,0.37 3.69,1.12 3.41,1.82 2.98,2.45 2.45,2.98 1.82,3.41 1.12,3.69 0.37,3.84 v 39.37 z"
     id="path214" />
  <path
     style="fill:#000000;fill-opacity:1;fill-rule:evenodd;stroke:#000000;stroke-width:0;stroke-linecap:round;stroke-linejoin:round;stroke-opacity:1"
     d="m 5030.8531,3812.0138 6.59,0.98 6.47,1.62 6.27,2.24 6.03,2.85 5.71,3.43 5.36,3.97 4.94,4.47 4.47,4.94 3.97,5.35 3.43,5.72 2.85,6.03 2.24,6.27 1.62,6.47 0.98,6.59 0.33,6.66 v 135.82 l -0.33,6.66 -0.98,6.59 -1.62,6.47 -2.24,6.27 -2.85,6.03 -3.43,5.71 -3.97,5.36 -4.47,4.93 -4.94,4.48 -5.36,3.97 -5.71,3.43 -6.03,2.85 -6.27,2.24 -6.47,1.62 -6.59,0.98 -6.66,0.33 h -135.82 l -6.66,-0.33 -6.59,-0.98 -6.47,-1.62 -6.27,-2.24 -6.03,-2.85 -5.71,-3.43 -5.36,-3.97 -4.93,-4.48 -4.48,-4.93 -3.97,-5.36 -3.43,-5.71 -2.85,-6.03 -2.24,-6.27 -1.62,-6.47 -0.98,-6.59 -0.33,-6.66 v -135.82 l 0.33,-6.66 0.98,-6.59 1.62,-6.47 2.24,-6.27 2.85,-6.03 3.43,-5.72 3.97,-5.35 4.48,-4.94 4.93,-4.47 5.36,-3.97 5.71,-3.43 6.03,-2.85 6.27,-2.24 6.47,-1.62 6.59,-0.98 6.66,-0.33 h 135.82 z"
     id="path220" />
  <g
     id="g226"
     style="fill:#000000;fill-opacity:0;stroke:#000000;stroke-width:-0.000393701;stroke-linecap:round;stroke-linejoin:round;stroke-opacity:1" />
  <g
     id="g228"
     style="fill:#000000;fill-opacity:0;stroke:#000000;stroke-width:-0.000393701;stroke-linecap:round;stroke-linejoin:round;stroke-opacity:1" />
  <g
     id="g230"
     style="fill:#000000;fill-opacity:0;stroke:#000000;stroke-width:-0.000393701;stroke-linecap:round;stroke-linejoin:round;stroke-opacity:1" />
  <g
     id="g232"
     style="fill:#000000;fill-opacity:0;stroke:#000000;stroke-width:-0.000393701;stroke-linecap:round;stroke-linejoin:round;stroke-opacity:1" />
  <g
     id="g234"
     style="fill:#000000;fill-opacity:0;stroke:#000000;stroke-width:-0.000393701;stroke-linecap:round;stroke-linejoin:round;stroke-opacity:1" />
  <g
     id="g236"
     style="fill:#000000;fill-opacity:0;stroke:#000000;stroke-width:-0.000393701;stroke-linecap:round;stroke-linejoin:round;stroke-opacity:1" />
  <text
     xml:space="preserve"
     style="font-weight:bold;font-stretch:condensed;font-size:555.556px;line-height:0;font-family:Arial;-inkscape-font-specification:'Arial Bold Condensed';text-align:end;text-anchor:end;fill:#000000;stroke-width:104.167;stroke-linecap:round"
     x="6158.3564"
     y="8211.1426"
     id="text1212"><tspan
       sodipodi:role="line"
       id="tspan1210"
       x="6158.3564"
       y="8211.1426"
       style="font-style:normal;font-variant:normal;font-weight:bold;font-stretch:normal;font-size:555.556px;font-family:Arial;-inkscape-font-specification:'Arial Bold';stroke-width:104.167">HW Attiny826 V1</tspan></text>
</svg>
