G04 #@! TF.FileFunction,Legend,Top*
%FSLAX46Y46*%
G04 Gerber Fmt 4.6, Leading zero omitted, Abs format (unit mm)*
G04 Created by KiCad (PCBNEW (2015-04-22 BZR 5621)-product) date 6/30/2015 10:49:08 AM*
%MOMM*%
G01*
G04 APERTURE LIST*
%ADD10C,0.100000*%
%ADD11C,0.150000*%
G04 APERTURE END LIST*
D10*
G36*
X138599333Y-105410000D02*
X138517888Y-106361063D01*
X138280503Y-107270233D01*
X137897599Y-108127190D01*
X137481335Y-108765589D01*
X137481335Y-105530898D01*
X137470503Y-105156000D01*
X137338537Y-104332614D01*
X137069890Y-103578037D01*
X136653231Y-102867308D01*
X136155422Y-102258622D01*
X135925209Y-102030143D01*
X135643879Y-101780138D01*
X135345179Y-101535060D01*
X135062857Y-101321359D01*
X134830661Y-101165487D01*
X134682339Y-101093895D01*
X134666979Y-101092000D01*
X134657917Y-101174035D01*
X134649430Y-101409613D01*
X134641688Y-101782945D01*
X134634861Y-102278241D01*
X134629119Y-102879712D01*
X134624633Y-103571569D01*
X134621571Y-104338021D01*
X134620105Y-105163280D01*
X134620000Y-105455488D01*
X134620000Y-109818976D01*
X135107744Y-109487755D01*
X135395774Y-109267990D01*
X135734541Y-108973630D01*
X136063739Y-108657919D01*
X136156616Y-108561710D01*
X136714748Y-107863505D01*
X137125840Y-107114588D01*
X137383500Y-106331529D01*
X137481335Y-105530898D01*
X137481335Y-108765589D01*
X137379600Y-108921614D01*
X136736930Y-109643184D01*
X135980010Y-110281580D01*
X135119264Y-110826483D01*
X134165115Y-111267571D01*
X133858000Y-111364388D01*
X133858000Y-110149061D01*
X133858000Y-105418057D01*
X133858000Y-100687053D01*
X133540500Y-100560712D01*
X133253322Y-100466743D01*
X132860756Y-100364140D01*
X132425246Y-100266787D01*
X132009233Y-100188571D01*
X131675159Y-100143374D01*
X131656667Y-100141822D01*
X131360333Y-100118333D01*
X131338379Y-105325333D01*
X131335183Y-106251052D01*
X131333526Y-107127840D01*
X131333346Y-107940814D01*
X131334581Y-108675091D01*
X131337168Y-109315786D01*
X131341047Y-109848017D01*
X131346155Y-110256900D01*
X131352429Y-110527550D01*
X131359809Y-110645086D01*
X131360521Y-110647634D01*
X131460299Y-110711727D01*
X131693752Y-110718085D01*
X132068443Y-110665994D01*
X132591936Y-110554740D01*
X132752608Y-110516216D01*
X133087099Y-110426977D01*
X133397703Y-110331558D01*
X133578108Y-110266007D01*
X133858000Y-110149061D01*
X133858000Y-111364388D01*
X133127986Y-111594525D01*
X132168056Y-111777862D01*
X131420423Y-111879683D01*
X131380633Y-114084675D01*
X131366784Y-114777233D01*
X131351786Y-115326017D01*
X131333619Y-115756581D01*
X131310261Y-116094484D01*
X131279692Y-116365280D01*
X131239891Y-116594527D01*
X131188837Y-116807780D01*
X131156057Y-116924667D01*
X130770049Y-117962524D01*
X130287816Y-118834697D01*
X130287816Y-109333432D01*
X130287665Y-107916775D01*
X130285622Y-106373374D01*
X130281853Y-104775000D01*
X130253920Y-94869000D01*
X130060514Y-94235383D01*
X129783763Y-93470056D01*
X129442370Y-92812057D01*
X129002505Y-92205181D01*
X128528186Y-91689814D01*
X127921974Y-91141185D01*
X127311961Y-90719009D01*
X126641194Y-90388964D01*
X125982617Y-90155809D01*
X125349000Y-89960726D01*
X112871289Y-89942969D01*
X112871289Y-84920667D01*
X112789923Y-83869335D01*
X112551428Y-82867286D01*
X112164211Y-81928139D01*
X111636679Y-81065515D01*
X110977238Y-80293031D01*
X110194295Y-79624307D01*
X109296257Y-79072963D01*
X109246032Y-79047489D01*
X108315697Y-78672661D01*
X107341672Y-78451560D01*
X106346110Y-78381907D01*
X105351165Y-78461422D01*
X104378993Y-78687826D01*
X103451747Y-79058840D01*
X102591583Y-79572183D01*
X102344934Y-79757551D01*
X101667595Y-80386460D01*
X101062587Y-81129839D01*
X100556509Y-81947349D01*
X100175961Y-82798652D01*
X100029017Y-83269667D01*
X99861207Y-84234556D01*
X99844948Y-85229388D01*
X99975175Y-86222400D01*
X100246825Y-87181824D01*
X100654832Y-88075896D01*
X100846002Y-88394111D01*
X101172974Y-88900000D01*
X106338956Y-88900000D01*
X111504938Y-88900000D01*
X111770501Y-88540167D01*
X112212867Y-87809942D01*
X112550310Y-86973853D01*
X112772261Y-86066645D01*
X112868155Y-85123059D01*
X112871289Y-84920667D01*
X112871289Y-89942969D01*
X107442000Y-89935244D01*
X105132415Y-89932383D01*
X102965182Y-89930568D01*
X100942282Y-89929795D01*
X99065692Y-89930056D01*
X97337391Y-89931345D01*
X95759359Y-89933656D01*
X94333574Y-89936983D01*
X93062014Y-89941319D01*
X91946660Y-89946658D01*
X90989490Y-89952993D01*
X90192482Y-89960318D01*
X89557615Y-89968628D01*
X89086869Y-89977915D01*
X88782222Y-89988173D01*
X88676132Y-89995165D01*
X87657935Y-90175136D01*
X86721747Y-90500490D01*
X85876054Y-90964513D01*
X85129342Y-91560494D01*
X84490095Y-92281720D01*
X83966799Y-93121480D01*
X83585000Y-94022333D01*
X83354333Y-94699667D01*
X83354333Y-105367667D01*
X83354333Y-116035667D01*
X83552611Y-116670667D01*
X83929854Y-117614729D01*
X84435808Y-118460931D01*
X85058721Y-119198795D01*
X85786840Y-119817842D01*
X86608414Y-120307594D01*
X87511690Y-120657573D01*
X88202633Y-120816556D01*
X88324982Y-120823095D01*
X88608689Y-120829554D01*
X89045778Y-120835899D01*
X89628273Y-120842097D01*
X90348198Y-120848113D01*
X91197578Y-120853916D01*
X92168437Y-120859471D01*
X93252799Y-120864746D01*
X94442689Y-120869706D01*
X95730130Y-120874319D01*
X97107148Y-120878551D01*
X98565766Y-120882369D01*
X100098009Y-120885739D01*
X101695900Y-120888628D01*
X103351465Y-120891004D01*
X105056727Y-120892831D01*
X106736052Y-120894041D01*
X108840271Y-120895068D01*
X110781733Y-120895720D01*
X112567013Y-120895958D01*
X114202685Y-120895742D01*
X115695326Y-120895034D01*
X117051510Y-120893795D01*
X118277814Y-120891985D01*
X119380811Y-120889565D01*
X120367078Y-120886497D01*
X121243190Y-120882740D01*
X122015722Y-120878257D01*
X122691250Y-120873008D01*
X123276349Y-120866954D01*
X123777593Y-120860055D01*
X124201560Y-120852273D01*
X124554823Y-120843569D01*
X124843958Y-120833903D01*
X125075541Y-120823236D01*
X125256146Y-120811530D01*
X125392349Y-120798746D01*
X125490726Y-120784843D01*
X125503644Y-120782465D01*
X126461169Y-120515214D01*
X127348573Y-120097982D01*
X128152233Y-119540420D01*
X128858526Y-118852176D01*
X129453829Y-118042900D01*
X129515649Y-117940667D01*
X129768971Y-117415223D01*
X129984552Y-116777219D01*
X130146067Y-116082069D01*
X130223983Y-115536144D01*
X130238048Y-115303766D01*
X130250425Y-114906793D01*
X130261089Y-114349958D01*
X130270014Y-113637991D01*
X130277174Y-112775624D01*
X130282545Y-111767588D01*
X130286101Y-110618613D01*
X130287816Y-109333432D01*
X130287816Y-118834697D01*
X130247686Y-118907277D01*
X129598630Y-119749090D01*
X128832541Y-120478123D01*
X127959081Y-121084541D01*
X126987909Y-121558507D01*
X126405016Y-121762392D01*
X126253794Y-121806764D01*
X126107041Y-121843882D01*
X125948310Y-121874525D01*
X125761158Y-121899473D01*
X125529140Y-121919504D01*
X125235812Y-121935396D01*
X124864728Y-121947928D01*
X124399445Y-121957879D01*
X123823517Y-121966027D01*
X123120501Y-121973152D01*
X122273951Y-121980032D01*
X121722189Y-121984132D01*
X120741080Y-121992298D01*
X119918681Y-122001455D01*
X119244372Y-122011948D01*
X118707529Y-122024123D01*
X118297532Y-122038329D01*
X118003758Y-122054910D01*
X117815587Y-122074213D01*
X117722395Y-122096585D01*
X117708237Y-122115053D01*
X117745448Y-122234885D01*
X117817375Y-122478568D01*
X117912574Y-122807032D01*
X117989457Y-123075319D01*
X118234483Y-123934304D01*
X118955408Y-124110489D01*
X119365133Y-124231961D01*
X119842232Y-124405546D01*
X120306123Y-124601006D01*
X120472502Y-124679810D01*
X120927289Y-124921813D01*
X121297082Y-125167268D01*
X121651223Y-125466239D01*
X121911836Y-125718973D01*
X122539422Y-126438553D01*
X123019222Y-127198209D01*
X123366528Y-128028478D01*
X123596632Y-128959898D01*
X123627434Y-129144824D01*
X123675228Y-129472189D01*
X123688757Y-129687008D01*
X123660663Y-129843918D01*
X123583588Y-129997555D01*
X123493895Y-130136425D01*
X123260926Y-130488466D01*
X123352463Y-131329887D01*
X123419713Y-132103161D01*
X123437482Y-132780571D01*
X123405025Y-133428419D01*
X123321599Y-134113007D01*
X123321174Y-134115826D01*
X123078485Y-135202027D01*
X122692942Y-136214224D01*
X122680436Y-136236459D01*
X122680436Y-132458054D01*
X122668589Y-132027190D01*
X122644028Y-131710550D01*
X122584320Y-131153006D01*
X122531373Y-131192531D01*
X122531373Y-129601234D01*
X122475579Y-129180638D01*
X122298777Y-128432769D01*
X121980733Y-127695613D01*
X121546137Y-127013661D01*
X121019677Y-126431402D01*
X120884169Y-126312908D01*
X120460354Y-125986191D01*
X120047446Y-125732496D01*
X119582953Y-125517771D01*
X119096931Y-125339113D01*
X118514283Y-125140941D01*
X118556719Y-125329637D01*
X118672507Y-125863372D01*
X118799777Y-126481963D01*
X118931720Y-127149185D01*
X119061525Y-127828814D01*
X119182382Y-128484624D01*
X119287482Y-129080390D01*
X119370014Y-129579888D01*
X119419865Y-129921000D01*
X119475657Y-130345393D01*
X119527980Y-130733048D01*
X119570681Y-131039006D01*
X119596160Y-131209554D01*
X119640693Y-131482108D01*
X120176636Y-131287571D01*
X120538097Y-131141431D01*
X120908017Y-130968629D01*
X121125790Y-130852204D01*
X121390988Y-130670000D01*
X121705590Y-130413781D01*
X122006037Y-130135681D01*
X122035187Y-130106304D01*
X122531373Y-129601234D01*
X122531373Y-131192531D01*
X122146327Y-131479972D01*
X121594688Y-131848763D01*
X121017423Y-132138960D01*
X120353667Y-132383346D01*
X119761000Y-132573480D01*
X119792036Y-133448573D01*
X119809076Y-133820470D01*
X119830424Y-134129445D01*
X119852943Y-134336107D01*
X119867726Y-134398806D01*
X119972248Y-134432630D01*
X120204692Y-134443814D01*
X120525581Y-134435257D01*
X120895441Y-134409860D01*
X121274798Y-134370523D01*
X121624175Y-134320147D01*
X121904099Y-134261632D01*
X121962333Y-134244912D01*
X122228148Y-134154575D01*
X122436686Y-134070838D01*
X122503976Y-134036114D01*
X122563537Y-133916186D01*
X122613111Y-133662761D01*
X122650550Y-133311494D01*
X122673708Y-132898040D01*
X122680436Y-132458054D01*
X122680436Y-136236459D01*
X122332534Y-136855017D01*
X122332534Y-135085390D01*
X122308537Y-134975064D01*
X122183766Y-134949836D01*
X121946891Y-134986205D01*
X121814167Y-135013583D01*
X121455077Y-135069515D01*
X121020319Y-135109954D01*
X120603417Y-135126224D01*
X120599670Y-135126235D01*
X119914340Y-135128000D01*
X119859146Y-136334500D01*
X119838653Y-136814271D01*
X119821558Y-137275020D01*
X119809429Y-137669883D01*
X119803839Y-137951993D01*
X119803643Y-137991265D01*
X119803333Y-138441530D01*
X120071049Y-138250900D01*
X120264159Y-138096852D01*
X120523155Y-137868845D01*
X120795143Y-137613606D01*
X120820792Y-137588606D01*
X121459771Y-136845622D01*
X121969710Y-135993228D01*
X122123522Y-135655350D01*
X122267086Y-135304318D01*
X122332534Y-135085390D01*
X122332534Y-136855017D01*
X122172241Y-137140013D01*
X121524077Y-137966991D01*
X120756146Y-138682754D01*
X120268680Y-139035635D01*
X119994124Y-139221626D01*
X119829447Y-139361156D01*
X119741424Y-139498295D01*
X119696830Y-139677109D01*
X119677457Y-139819833D01*
X119555491Y-140678423D01*
X119395950Y-141611596D01*
X119213126Y-142542444D01*
X119021310Y-143394063D01*
X118988964Y-143524913D01*
X118756512Y-144451106D01*
X118756512Y-136598798D01*
X118737959Y-134398752D01*
X118586259Y-132134861D01*
X118301999Y-129816555D01*
X117885765Y-127453265D01*
X117338144Y-125054422D01*
X116783870Y-123041833D01*
X116476142Y-122004667D01*
X107063754Y-122004667D01*
X97651365Y-122004667D01*
X97258467Y-123380500D01*
X96759841Y-125224297D01*
X96348260Y-126969913D01*
X96016394Y-128659764D01*
X95756916Y-130336267D01*
X95588667Y-131812257D01*
X95588667Y-125274926D01*
X95520039Y-125257472D01*
X95336413Y-125306976D01*
X95071173Y-125408807D01*
X94757703Y-125548337D01*
X94429389Y-125710938D01*
X94119614Y-125881979D01*
X93922426Y-126005062D01*
X93259087Y-126537294D01*
X92723427Y-127168355D01*
X92370134Y-127764375D01*
X92213663Y-128119205D01*
X92068212Y-128526872D01*
X91950759Y-128931153D01*
X91878283Y-129275823D01*
X91863333Y-129442601D01*
X91925650Y-129599236D01*
X92092304Y-129826564D01*
X92332852Y-130092773D01*
X92616851Y-130366049D01*
X92913857Y-130614580D01*
X93133333Y-130769751D01*
X93400558Y-130924242D01*
X93707083Y-131078359D01*
X94011554Y-131214278D01*
X94272616Y-131314176D01*
X94448915Y-131360227D01*
X94494397Y-131356380D01*
X94529186Y-131261148D01*
X94568952Y-131042123D01*
X94605723Y-130744349D01*
X94609500Y-130706045D01*
X94657300Y-130302452D01*
X94733429Y-129772131D01*
X94831184Y-129154021D01*
X94943866Y-128487066D01*
X95064772Y-127810205D01*
X95187202Y-127162381D01*
X95304453Y-126582536D01*
X95373883Y-126264207D01*
X95458900Y-125885741D01*
X95528017Y-125571519D01*
X95573730Y-125356098D01*
X95588667Y-125274926D01*
X95588667Y-131812257D01*
X95562497Y-132041838D01*
X95425808Y-133818892D01*
X95411012Y-134073092D01*
X95364594Y-135938823D01*
X95428639Y-137834817D01*
X95599437Y-139713607D01*
X95873276Y-141527727D01*
X96069425Y-142494000D01*
X96177921Y-142993007D01*
X96261772Y-143351709D01*
X96344929Y-143592010D01*
X96451343Y-143735814D01*
X96604965Y-143805025D01*
X96829748Y-143821550D01*
X97149643Y-143807290D01*
X97485083Y-143788677D01*
X98729263Y-143796897D01*
X99883107Y-143942019D01*
X100942981Y-144222146D01*
X101905251Y-144635380D01*
X102766283Y-145179821D01*
X103522443Y-145853573D01*
X104170096Y-146654737D01*
X104691713Y-147552833D01*
X104991758Y-148166667D01*
X105920546Y-148166667D01*
X106849333Y-148166667D01*
X106849333Y-146309188D01*
X106849333Y-144451709D01*
X106447167Y-144401877D01*
X105801447Y-144317089D01*
X105279972Y-144235768D01*
X104838119Y-144148819D01*
X104431266Y-144047150D01*
X104014791Y-143921669D01*
X103889131Y-143880617D01*
X102690640Y-143396322D01*
X101572837Y-142768839D01*
X100546972Y-142009419D01*
X99624297Y-141129315D01*
X98816061Y-140139781D01*
X98133516Y-139052068D01*
X97587913Y-137877430D01*
X97418122Y-137408503D01*
X97144235Y-136364482D01*
X96984705Y-135238652D01*
X96939534Y-134074089D01*
X97008724Y-132913870D01*
X97192277Y-131801073D01*
X97417808Y-130984830D01*
X97904543Y-129784453D01*
X98524611Y-128676269D01*
X99265685Y-127667310D01*
X100115437Y-126764609D01*
X101061540Y-125975199D01*
X102091668Y-125306113D01*
X103193494Y-124764384D01*
X104354691Y-124357045D01*
X105562931Y-124091129D01*
X106805888Y-123973668D01*
X108071236Y-124011697D01*
X109304667Y-124202992D01*
X110560693Y-124554692D01*
X111723170Y-125043877D01*
X112804645Y-125677444D01*
X113817664Y-126462292D01*
X114385260Y-126996030D01*
X115239188Y-127966818D01*
X115946359Y-129006107D01*
X116508483Y-130100961D01*
X116927265Y-131238441D01*
X117204413Y-132405608D01*
X117341634Y-133589524D01*
X117340636Y-134777252D01*
X117203125Y-135955852D01*
X116930808Y-137112387D01*
X116525393Y-138233917D01*
X115988588Y-139307506D01*
X115322098Y-140320214D01*
X114527631Y-141259104D01*
X113606895Y-142111236D01*
X112561597Y-142863673D01*
X112268000Y-143042335D01*
X111410204Y-143485930D01*
X110489753Y-143855578D01*
X109560866Y-144132632D01*
X108677766Y-144298446D01*
X108583926Y-144309290D01*
X108254614Y-144346915D01*
X107949894Y-144385388D01*
X107801833Y-144406396D01*
X107526667Y-144449006D01*
X107526667Y-146307836D01*
X107526667Y-148166667D01*
X108352167Y-148161274D01*
X109177667Y-148155881D01*
X109533449Y-147420440D01*
X110052565Y-146530959D01*
X110688996Y-145761341D01*
X111438097Y-145113976D01*
X112295224Y-144591255D01*
X113255730Y-144195569D01*
X114314973Y-143929309D01*
X115468307Y-143794865D01*
X116588862Y-143788798D01*
X117742156Y-143838123D01*
X118007432Y-142721561D01*
X118391835Y-140769633D01*
X118641333Y-138725568D01*
X118756512Y-136598798D01*
X118756512Y-144451106D01*
X118698356Y-144682826D01*
X119420178Y-146606904D01*
X119676035Y-147294960D01*
X119872077Y-147843306D01*
X120010682Y-148269732D01*
X120094227Y-148592028D01*
X120125088Y-148827983D01*
X120105642Y-148995388D01*
X120038266Y-149112032D01*
X119925337Y-149195705D01*
X119774932Y-149262036D01*
X119667088Y-149271350D01*
X119401375Y-149280207D01*
X118989257Y-149288592D01*
X118783074Y-149291569D01*
X118783074Y-148166667D01*
X118539565Y-147510500D01*
X118405207Y-147149366D01*
X118236221Y-146696462D01*
X118057527Y-146218535D01*
X117940784Y-145906895D01*
X117585512Y-144959458D01*
X117112849Y-144900402D01*
X116724512Y-144873852D01*
X116230430Y-144871795D01*
X115681469Y-144891242D01*
X115128497Y-144929203D01*
X114622380Y-144982686D01*
X114213986Y-145048700D01*
X114088333Y-145078227D01*
X113183896Y-145399978D01*
X112357424Y-145852086D01*
X111637855Y-146418316D01*
X111552241Y-146500874D01*
X111268997Y-146803138D01*
X110991136Y-147138285D01*
X110742653Y-147472769D01*
X110547542Y-147773046D01*
X110429798Y-148005571D01*
X110406128Y-148103167D01*
X110487948Y-148115661D01*
X110722990Y-148127340D01*
X111095142Y-148137960D01*
X111588293Y-148147278D01*
X112186332Y-148155047D01*
X112873148Y-148161025D01*
X113632630Y-148164967D01*
X114448666Y-148166628D01*
X114594204Y-148166667D01*
X118783074Y-148166667D01*
X118783074Y-149291569D01*
X118442198Y-149296492D01*
X117771661Y-149303893D01*
X116989111Y-149310783D01*
X116106010Y-149317148D01*
X115133824Y-149322974D01*
X114084015Y-149328247D01*
X112968048Y-149332955D01*
X111797386Y-149337083D01*
X110583493Y-149340618D01*
X109337833Y-149343547D01*
X108071869Y-149345855D01*
X106797067Y-149347531D01*
X105524888Y-149348559D01*
X104266798Y-149348928D01*
X103716667Y-149348791D01*
X103716667Y-148066736D01*
X103662866Y-147906597D01*
X103518000Y-147656709D01*
X103306878Y-147350804D01*
X103054305Y-147022615D01*
X102785088Y-146705873D01*
X102524034Y-146434310D01*
X102498243Y-146409919D01*
X101812686Y-145874190D01*
X101016568Y-145435518D01*
X100159283Y-145119111D01*
X99725417Y-145024817D01*
X99178305Y-144948864D01*
X98573415Y-144895143D01*
X97966217Y-144867541D01*
X97412181Y-144869947D01*
X97020105Y-144899034D01*
X96558396Y-144956720D01*
X95956698Y-146561693D01*
X95354999Y-148166667D01*
X99535833Y-148166667D01*
X100542283Y-148165654D01*
X101389532Y-148162455D01*
X102087702Y-148156829D01*
X102646915Y-148148532D01*
X103077291Y-148137323D01*
X103388952Y-148122960D01*
X103592021Y-148105202D01*
X103696617Y-148083805D01*
X103716667Y-148066736D01*
X103716667Y-149348791D01*
X103034259Y-149348622D01*
X101838737Y-149347628D01*
X100691694Y-149345934D01*
X99604594Y-149343525D01*
X98588901Y-149340388D01*
X97656080Y-149336510D01*
X96817593Y-149331877D01*
X96084904Y-149326475D01*
X95469478Y-149320291D01*
X94982779Y-149313312D01*
X94636269Y-149305524D01*
X94441413Y-149296913D01*
X94403333Y-149291934D01*
X94147974Y-149131204D01*
X94000508Y-148899858D01*
X93980000Y-148772722D01*
X94009041Y-148635532D01*
X94090607Y-148364973D01*
X94216362Y-147985693D01*
X94377970Y-147522342D01*
X94567094Y-146999567D01*
X94706832Y-146623592D01*
X95433665Y-144688828D01*
X95131257Y-143443247D01*
X94930121Y-142560712D01*
X94747084Y-141653382D01*
X94592408Y-140776768D01*
X94476357Y-139986379D01*
X94446982Y-139742333D01*
X94413520Y-139499883D01*
X94413520Y-132520326D01*
X93963927Y-132375583D01*
X93526908Y-132205441D01*
X93035564Y-131968315D01*
X92558201Y-131700293D01*
X92163127Y-131437469D01*
X92107719Y-131394839D01*
X91801771Y-131152737D01*
X91748621Y-131595202D01*
X91710651Y-132069796D01*
X91696857Y-132610364D01*
X91707281Y-133141907D01*
X91741966Y-133589424D01*
X91747464Y-133631765D01*
X91793892Y-133877604D01*
X91877740Y-134017234D01*
X92047380Y-134113424D01*
X92149631Y-134153622D01*
X92476190Y-134255133D01*
X92857437Y-134340205D01*
X93255691Y-134404667D01*
X93633275Y-134444353D01*
X93952511Y-134455092D01*
X94175720Y-134432715D01*
X94260421Y-134387167D01*
X94280545Y-134281136D01*
X94306511Y-134044023D01*
X94334591Y-133713806D01*
X94355178Y-133421996D01*
X94413520Y-132520326D01*
X94413520Y-139499883D01*
X94407113Y-139453461D01*
X94343659Y-139269792D01*
X94303105Y-139223590D01*
X94303105Y-137069708D01*
X94299453Y-136673167D01*
X94276333Y-135170333D01*
X93472000Y-135117227D01*
X93076671Y-135083762D01*
X92706835Y-135039670D01*
X92421906Y-134992501D01*
X92342145Y-134973671D01*
X92016623Y-134883220D01*
X92071574Y-135111443D01*
X92167848Y-135399880D01*
X92329702Y-135775166D01*
X92530401Y-136182197D01*
X92743208Y-136565869D01*
X92890090Y-136798436D01*
X93060765Y-137022426D01*
X93289166Y-137287158D01*
X93545643Y-137562501D01*
X93800549Y-137818326D01*
X94024235Y-138024500D01*
X94187053Y-138150893D01*
X94245596Y-138176000D01*
X94270462Y-138095249D01*
X94288890Y-137868473D01*
X94300048Y-137518887D01*
X94303105Y-137069708D01*
X94303105Y-139223590D01*
X94219004Y-139127779D01*
X93995537Y-138963875D01*
X93979852Y-138953113D01*
X93168976Y-138297003D01*
X92477967Y-137527316D01*
X91910735Y-136653872D01*
X91471190Y-135686496D01*
X91163242Y-134635010D01*
X90990801Y-133509236D01*
X90957778Y-132318996D01*
X91014249Y-131502933D01*
X91116263Y-130544867D01*
X90881573Y-130096614D01*
X90646882Y-129648361D01*
X90794480Y-128897162D01*
X91071006Y-127889548D01*
X91484842Y-126977214D01*
X92033507Y-126164643D01*
X92679684Y-125487125D01*
X93120089Y-125151294D01*
X93669901Y-124816874D01*
X94271556Y-124513474D01*
X94867493Y-124270700D01*
X95296462Y-124141224D01*
X95893257Y-123997245D01*
X96143128Y-123106789D01*
X96247499Y-122734122D01*
X96335877Y-122417212D01*
X96397561Y-122194511D01*
X96420375Y-122110500D01*
X96394291Y-122085107D01*
X96293952Y-122063848D01*
X96107612Y-122046414D01*
X95823528Y-122032492D01*
X95429953Y-122021771D01*
X94915145Y-122013940D01*
X94267359Y-122008688D01*
X93474850Y-122005703D01*
X92525874Y-122004674D01*
X92427323Y-122004667D01*
X91409553Y-122003845D01*
X90544028Y-122000440D01*
X89813664Y-121993040D01*
X89201375Y-121980234D01*
X88690077Y-121960610D01*
X88262687Y-121932758D01*
X87902118Y-121895267D01*
X87591288Y-121846724D01*
X87313111Y-121785719D01*
X87050502Y-121710840D01*
X86786378Y-121620677D01*
X86508684Y-121515772D01*
X85627117Y-121086335D01*
X84803021Y-120514682D01*
X84059786Y-119824462D01*
X83420800Y-119039328D01*
X82909451Y-118182929D01*
X82669305Y-117633276D01*
X82529176Y-117233465D01*
X82419766Y-116845396D01*
X82337595Y-116440227D01*
X82279180Y-115989120D01*
X82241042Y-115463234D01*
X82219699Y-114833730D01*
X82211670Y-114071767D01*
X82211333Y-113839128D01*
X82211333Y-111869153D01*
X82211333Y-110744000D01*
X82211333Y-105418056D01*
X82211333Y-100092113D01*
X81851500Y-100133208D01*
X81529860Y-100183419D01*
X81135974Y-100264196D01*
X80722571Y-100362556D01*
X80342380Y-100465516D01*
X80048131Y-100560094D01*
X79944099Y-100602838D01*
X79713667Y-100713282D01*
X79713667Y-105444954D01*
X79713667Y-110176626D01*
X80052333Y-110298321D01*
X80309324Y-110377676D01*
X80660750Y-110469548D01*
X81056259Y-110562687D01*
X81445494Y-110645848D01*
X81778103Y-110707780D01*
X82003731Y-110737236D01*
X82020833Y-110738043D01*
X82211333Y-110744000D01*
X82211333Y-111869153D01*
X81669540Y-111818559D01*
X80573115Y-111636079D01*
X79507096Y-111302772D01*
X78979295Y-111055980D01*
X78979295Y-103134443D01*
X78978066Y-102499097D01*
X78975378Y-101964082D01*
X78971291Y-101545431D01*
X78965868Y-101259181D01*
X78959168Y-101121366D01*
X78956896Y-101111340D01*
X78861576Y-101126173D01*
X78669987Y-101228462D01*
X78415398Y-101396605D01*
X78131078Y-101608998D01*
X77911954Y-101789856D01*
X77233792Y-102470955D01*
X76716222Y-103200506D01*
X76360251Y-103976349D01*
X76166883Y-104796322D01*
X76134635Y-105612733D01*
X76258041Y-106489442D01*
X76538088Y-107304010D01*
X76975326Y-108057332D01*
X77570301Y-108750304D01*
X78323562Y-109383823D01*
X78528333Y-109527374D01*
X78951667Y-109814219D01*
X78973609Y-105482108D01*
X78977128Y-104641983D01*
X78979002Y-103854083D01*
X78979295Y-103134443D01*
X78979295Y-111055980D01*
X78497919Y-110830896D01*
X77572020Y-110232706D01*
X76792667Y-109557625D01*
X76141561Y-108826111D01*
X75645878Y-108082853D01*
X75292309Y-107301827D01*
X75067545Y-106457014D01*
X75006992Y-106066124D01*
X74971965Y-105136942D01*
X75095509Y-104233479D01*
X75367532Y-103366399D01*
X75777941Y-102546367D01*
X76316644Y-101784048D01*
X76973550Y-101090107D01*
X77738565Y-100475208D01*
X78601598Y-99950017D01*
X79552557Y-99525198D01*
X80581350Y-99211417D01*
X81675074Y-99019655D01*
X82197148Y-98960353D01*
X82232533Y-96703010D01*
X82244586Y-96007370D01*
X82257705Y-95456039D01*
X82273833Y-95023992D01*
X82294911Y-94686208D01*
X82322881Y-94417664D01*
X82359686Y-94193336D01*
X82407267Y-93988201D01*
X82456813Y-93812984D01*
X82846062Y-92794645D01*
X83373985Y-91867787D01*
X84031085Y-91041921D01*
X84807864Y-90326560D01*
X85694823Y-89731215D01*
X86682467Y-89265399D01*
X87164333Y-89098367D01*
X87926333Y-88862141D01*
X93704833Y-88834406D01*
X94677029Y-88829369D01*
X95597875Y-88823875D01*
X96453650Y-88818053D01*
X97230634Y-88812031D01*
X97915106Y-88805936D01*
X98493345Y-88799897D01*
X98951631Y-88794041D01*
X99276243Y-88788495D01*
X99453460Y-88783388D01*
X99483333Y-88780593D01*
X99450327Y-88697242D01*
X99362395Y-88497867D01*
X99236164Y-88219917D01*
X99186445Y-88111938D01*
X98857845Y-87272970D01*
X98646474Y-86414550D01*
X98542435Y-85488753D01*
X98527365Y-84920667D01*
X98541529Y-84323434D01*
X98581733Y-83777507D01*
X98643756Y-83336360D01*
X98657776Y-83268268D01*
X98985262Y-82163240D01*
X99458545Y-81133431D01*
X100066428Y-80190601D01*
X100797716Y-79346513D01*
X101641210Y-78612928D01*
X102585715Y-78001608D01*
X103620035Y-77524315D01*
X104351667Y-77287009D01*
X104879792Y-77181651D01*
X105518964Y-77113997D01*
X106215953Y-77084556D01*
X106917532Y-77093835D01*
X107570474Y-77142342D01*
X108121551Y-77230585D01*
X108204000Y-77250265D01*
X109331296Y-77618891D01*
X110361959Y-78124684D01*
X111289701Y-78761590D01*
X112108234Y-79523556D01*
X112811271Y-80404530D01*
X113392523Y-81398459D01*
X113845702Y-82499290D01*
X113929550Y-82761667D01*
X114018721Y-83069601D01*
X114081601Y-83336840D01*
X114122683Y-83604635D01*
X114146458Y-83914236D01*
X114157419Y-84306892D01*
X114160056Y-84823855D01*
X114160038Y-84878333D01*
X114146690Y-85607758D01*
X114101454Y-86215832D01*
X114015128Y-86749013D01*
X113878510Y-87253756D01*
X113682398Y-87776519D01*
X113507630Y-88171913D01*
X113214100Y-88807219D01*
X119408550Y-88837495D01*
X120599668Y-88843654D01*
X121633704Y-88849887D01*
X122522911Y-88856511D01*
X123279541Y-88863838D01*
X123915845Y-88872183D01*
X124444077Y-88881861D01*
X124876487Y-88893186D01*
X125225328Y-88906472D01*
X125502851Y-88922034D01*
X125721310Y-88940186D01*
X125892955Y-88961242D01*
X126030038Y-88985517D01*
X126132652Y-89010016D01*
X127180923Y-89374373D01*
X128137381Y-89874948D01*
X128992230Y-90501932D01*
X129735672Y-91245515D01*
X130357909Y-92095888D01*
X130849146Y-93043241D01*
X131199585Y-94077764D01*
X131201533Y-94085348D01*
X131250133Y-94327380D01*
X131289833Y-94649253D01*
X131321909Y-95070342D01*
X131347636Y-95610021D01*
X131368288Y-96287665D01*
X131379065Y-96783605D01*
X131420803Y-98952210D01*
X132141620Y-99053047D01*
X133315060Y-99295983D01*
X134412295Y-99683459D01*
X135423585Y-100210575D01*
X136339187Y-100872430D01*
X136995697Y-101495067D01*
X137633716Y-102282550D01*
X138108552Y-103110675D01*
X138422889Y-103985993D01*
X138579410Y-104915055D01*
X138599333Y-105410000D01*
X138599333Y-105410000D01*
X138599333Y-105410000D01*
G37*
X138599333Y-105410000D02*
X138517888Y-106361063D01*
X138280503Y-107270233D01*
X137897599Y-108127190D01*
X137481335Y-108765589D01*
X137481335Y-105530898D01*
X137470503Y-105156000D01*
X137338537Y-104332614D01*
X137069890Y-103578037D01*
X136653231Y-102867308D01*
X136155422Y-102258622D01*
X135925209Y-102030143D01*
X135643879Y-101780138D01*
X135345179Y-101535060D01*
X135062857Y-101321359D01*
X134830661Y-101165487D01*
X134682339Y-101093895D01*
X134666979Y-101092000D01*
X134657917Y-101174035D01*
X134649430Y-101409613D01*
X134641688Y-101782945D01*
X134634861Y-102278241D01*
X134629119Y-102879712D01*
X134624633Y-103571569D01*
X134621571Y-104338021D01*
X134620105Y-105163280D01*
X134620000Y-105455488D01*
X134620000Y-109818976D01*
X135107744Y-109487755D01*
X135395774Y-109267990D01*
X135734541Y-108973630D01*
X136063739Y-108657919D01*
X136156616Y-108561710D01*
X136714748Y-107863505D01*
X137125840Y-107114588D01*
X137383500Y-106331529D01*
X137481335Y-105530898D01*
X137481335Y-108765589D01*
X137379600Y-108921614D01*
X136736930Y-109643184D01*
X135980010Y-110281580D01*
X135119264Y-110826483D01*
X134165115Y-111267571D01*
X133858000Y-111364388D01*
X133858000Y-110149061D01*
X133858000Y-105418057D01*
X133858000Y-100687053D01*
X133540500Y-100560712D01*
X133253322Y-100466743D01*
X132860756Y-100364140D01*
X132425246Y-100266787D01*
X132009233Y-100188571D01*
X131675159Y-100143374D01*
X131656667Y-100141822D01*
X131360333Y-100118333D01*
X131338379Y-105325333D01*
X131335183Y-106251052D01*
X131333526Y-107127840D01*
X131333346Y-107940814D01*
X131334581Y-108675091D01*
X131337168Y-109315786D01*
X131341047Y-109848017D01*
X131346155Y-110256900D01*
X131352429Y-110527550D01*
X131359809Y-110645086D01*
X131360521Y-110647634D01*
X131460299Y-110711727D01*
X131693752Y-110718085D01*
X132068443Y-110665994D01*
X132591936Y-110554740D01*
X132752608Y-110516216D01*
X133087099Y-110426977D01*
X133397703Y-110331558D01*
X133578108Y-110266007D01*
X133858000Y-110149061D01*
X133858000Y-111364388D01*
X133127986Y-111594525D01*
X132168056Y-111777862D01*
X131420423Y-111879683D01*
X131380633Y-114084675D01*
X131366784Y-114777233D01*
X131351786Y-115326017D01*
X131333619Y-115756581D01*
X131310261Y-116094484D01*
X131279692Y-116365280D01*
X131239891Y-116594527D01*
X131188837Y-116807780D01*
X131156057Y-116924667D01*
X130770049Y-117962524D01*
X130287816Y-118834697D01*
X130287816Y-109333432D01*
X130287665Y-107916775D01*
X130285622Y-106373374D01*
X130281853Y-104775000D01*
X130253920Y-94869000D01*
X130060514Y-94235383D01*
X129783763Y-93470056D01*
X129442370Y-92812057D01*
X129002505Y-92205181D01*
X128528186Y-91689814D01*
X127921974Y-91141185D01*
X127311961Y-90719009D01*
X126641194Y-90388964D01*
X125982617Y-90155809D01*
X125349000Y-89960726D01*
X112871289Y-89942969D01*
X112871289Y-84920667D01*
X112789923Y-83869335D01*
X112551428Y-82867286D01*
X112164211Y-81928139D01*
X111636679Y-81065515D01*
X110977238Y-80293031D01*
X110194295Y-79624307D01*
X109296257Y-79072963D01*
X109246032Y-79047489D01*
X108315697Y-78672661D01*
X107341672Y-78451560D01*
X106346110Y-78381907D01*
X105351165Y-78461422D01*
X104378993Y-78687826D01*
X103451747Y-79058840D01*
X102591583Y-79572183D01*
X102344934Y-79757551D01*
X101667595Y-80386460D01*
X101062587Y-81129839D01*
X100556509Y-81947349D01*
X100175961Y-82798652D01*
X100029017Y-83269667D01*
X99861207Y-84234556D01*
X99844948Y-85229388D01*
X99975175Y-86222400D01*
X100246825Y-87181824D01*
X100654832Y-88075896D01*
X100846002Y-88394111D01*
X101172974Y-88900000D01*
X106338956Y-88900000D01*
X111504938Y-88900000D01*
X111770501Y-88540167D01*
X112212867Y-87809942D01*
X112550310Y-86973853D01*
X112772261Y-86066645D01*
X112868155Y-85123059D01*
X112871289Y-84920667D01*
X112871289Y-89942969D01*
X107442000Y-89935244D01*
X105132415Y-89932383D01*
X102965182Y-89930568D01*
X100942282Y-89929795D01*
X99065692Y-89930056D01*
X97337391Y-89931345D01*
X95759359Y-89933656D01*
X94333574Y-89936983D01*
X93062014Y-89941319D01*
X91946660Y-89946658D01*
X90989490Y-89952993D01*
X90192482Y-89960318D01*
X89557615Y-89968628D01*
X89086869Y-89977915D01*
X88782222Y-89988173D01*
X88676132Y-89995165D01*
X87657935Y-90175136D01*
X86721747Y-90500490D01*
X85876054Y-90964513D01*
X85129342Y-91560494D01*
X84490095Y-92281720D01*
X83966799Y-93121480D01*
X83585000Y-94022333D01*
X83354333Y-94699667D01*
X83354333Y-105367667D01*
X83354333Y-116035667D01*
X83552611Y-116670667D01*
X83929854Y-117614729D01*
X84435808Y-118460931D01*
X85058721Y-119198795D01*
X85786840Y-119817842D01*
X86608414Y-120307594D01*
X87511690Y-120657573D01*
X88202633Y-120816556D01*
X88324982Y-120823095D01*
X88608689Y-120829554D01*
X89045778Y-120835899D01*
X89628273Y-120842097D01*
X90348198Y-120848113D01*
X91197578Y-120853916D01*
X92168437Y-120859471D01*
X93252799Y-120864746D01*
X94442689Y-120869706D01*
X95730130Y-120874319D01*
X97107148Y-120878551D01*
X98565766Y-120882369D01*
X100098009Y-120885739D01*
X101695900Y-120888628D01*
X103351465Y-120891004D01*
X105056727Y-120892831D01*
X106736052Y-120894041D01*
X108840271Y-120895068D01*
X110781733Y-120895720D01*
X112567013Y-120895958D01*
X114202685Y-120895742D01*
X115695326Y-120895034D01*
X117051510Y-120893795D01*
X118277814Y-120891985D01*
X119380811Y-120889565D01*
X120367078Y-120886497D01*
X121243190Y-120882740D01*
X122015722Y-120878257D01*
X122691250Y-120873008D01*
X123276349Y-120866954D01*
X123777593Y-120860055D01*
X124201560Y-120852273D01*
X124554823Y-120843569D01*
X124843958Y-120833903D01*
X125075541Y-120823236D01*
X125256146Y-120811530D01*
X125392349Y-120798746D01*
X125490726Y-120784843D01*
X125503644Y-120782465D01*
X126461169Y-120515214D01*
X127348573Y-120097982D01*
X128152233Y-119540420D01*
X128858526Y-118852176D01*
X129453829Y-118042900D01*
X129515649Y-117940667D01*
X129768971Y-117415223D01*
X129984552Y-116777219D01*
X130146067Y-116082069D01*
X130223983Y-115536144D01*
X130238048Y-115303766D01*
X130250425Y-114906793D01*
X130261089Y-114349958D01*
X130270014Y-113637991D01*
X130277174Y-112775624D01*
X130282545Y-111767588D01*
X130286101Y-110618613D01*
X130287816Y-109333432D01*
X130287816Y-118834697D01*
X130247686Y-118907277D01*
X129598630Y-119749090D01*
X128832541Y-120478123D01*
X127959081Y-121084541D01*
X126987909Y-121558507D01*
X126405016Y-121762392D01*
X126253794Y-121806764D01*
X126107041Y-121843882D01*
X125948310Y-121874525D01*
X125761158Y-121899473D01*
X125529140Y-121919504D01*
X125235812Y-121935396D01*
X124864728Y-121947928D01*
X124399445Y-121957879D01*
X123823517Y-121966027D01*
X123120501Y-121973152D01*
X122273951Y-121980032D01*
X121722189Y-121984132D01*
X120741080Y-121992298D01*
X119918681Y-122001455D01*
X119244372Y-122011948D01*
X118707529Y-122024123D01*
X118297532Y-122038329D01*
X118003758Y-122054910D01*
X117815587Y-122074213D01*
X117722395Y-122096585D01*
X117708237Y-122115053D01*
X117745448Y-122234885D01*
X117817375Y-122478568D01*
X117912574Y-122807032D01*
X117989457Y-123075319D01*
X118234483Y-123934304D01*
X118955408Y-124110489D01*
X119365133Y-124231961D01*
X119842232Y-124405546D01*
X120306123Y-124601006D01*
X120472502Y-124679810D01*
X120927289Y-124921813D01*
X121297082Y-125167268D01*
X121651223Y-125466239D01*
X121911836Y-125718973D01*
X122539422Y-126438553D01*
X123019222Y-127198209D01*
X123366528Y-128028478D01*
X123596632Y-128959898D01*
X123627434Y-129144824D01*
X123675228Y-129472189D01*
X123688757Y-129687008D01*
X123660663Y-129843918D01*
X123583588Y-129997555D01*
X123493895Y-130136425D01*
X123260926Y-130488466D01*
X123352463Y-131329887D01*
X123419713Y-132103161D01*
X123437482Y-132780571D01*
X123405025Y-133428419D01*
X123321599Y-134113007D01*
X123321174Y-134115826D01*
X123078485Y-135202027D01*
X122692942Y-136214224D01*
X122680436Y-136236459D01*
X122680436Y-132458054D01*
X122668589Y-132027190D01*
X122644028Y-131710550D01*
X122584320Y-131153006D01*
X122531373Y-131192531D01*
X122531373Y-129601234D01*
X122475579Y-129180638D01*
X122298777Y-128432769D01*
X121980733Y-127695613D01*
X121546137Y-127013661D01*
X121019677Y-126431402D01*
X120884169Y-126312908D01*
X120460354Y-125986191D01*
X120047446Y-125732496D01*
X119582953Y-125517771D01*
X119096931Y-125339113D01*
X118514283Y-125140941D01*
X118556719Y-125329637D01*
X118672507Y-125863372D01*
X118799777Y-126481963D01*
X118931720Y-127149185D01*
X119061525Y-127828814D01*
X119182382Y-128484624D01*
X119287482Y-129080390D01*
X119370014Y-129579888D01*
X119419865Y-129921000D01*
X119475657Y-130345393D01*
X119527980Y-130733048D01*
X119570681Y-131039006D01*
X119596160Y-131209554D01*
X119640693Y-131482108D01*
X120176636Y-131287571D01*
X120538097Y-131141431D01*
X120908017Y-130968629D01*
X121125790Y-130852204D01*
X121390988Y-130670000D01*
X121705590Y-130413781D01*
X122006037Y-130135681D01*
X122035187Y-130106304D01*
X122531373Y-129601234D01*
X122531373Y-131192531D01*
X122146327Y-131479972D01*
X121594688Y-131848763D01*
X121017423Y-132138960D01*
X120353667Y-132383346D01*
X119761000Y-132573480D01*
X119792036Y-133448573D01*
X119809076Y-133820470D01*
X119830424Y-134129445D01*
X119852943Y-134336107D01*
X119867726Y-134398806D01*
X119972248Y-134432630D01*
X120204692Y-134443814D01*
X120525581Y-134435257D01*
X120895441Y-134409860D01*
X121274798Y-134370523D01*
X121624175Y-134320147D01*
X121904099Y-134261632D01*
X121962333Y-134244912D01*
X122228148Y-134154575D01*
X122436686Y-134070838D01*
X122503976Y-134036114D01*
X122563537Y-133916186D01*
X122613111Y-133662761D01*
X122650550Y-133311494D01*
X122673708Y-132898040D01*
X122680436Y-132458054D01*
X122680436Y-136236459D01*
X122332534Y-136855017D01*
X122332534Y-135085390D01*
X122308537Y-134975064D01*
X122183766Y-134949836D01*
X121946891Y-134986205D01*
X121814167Y-135013583D01*
X121455077Y-135069515D01*
X121020319Y-135109954D01*
X120603417Y-135126224D01*
X120599670Y-135126235D01*
X119914340Y-135128000D01*
X119859146Y-136334500D01*
X119838653Y-136814271D01*
X119821558Y-137275020D01*
X119809429Y-137669883D01*
X119803839Y-137951993D01*
X119803643Y-137991265D01*
X119803333Y-138441530D01*
X120071049Y-138250900D01*
X120264159Y-138096852D01*
X120523155Y-137868845D01*
X120795143Y-137613606D01*
X120820792Y-137588606D01*
X121459771Y-136845622D01*
X121969710Y-135993228D01*
X122123522Y-135655350D01*
X122267086Y-135304318D01*
X122332534Y-135085390D01*
X122332534Y-136855017D01*
X122172241Y-137140013D01*
X121524077Y-137966991D01*
X120756146Y-138682754D01*
X120268680Y-139035635D01*
X119994124Y-139221626D01*
X119829447Y-139361156D01*
X119741424Y-139498295D01*
X119696830Y-139677109D01*
X119677457Y-139819833D01*
X119555491Y-140678423D01*
X119395950Y-141611596D01*
X119213126Y-142542444D01*
X119021310Y-143394063D01*
X118988964Y-143524913D01*
X118756512Y-144451106D01*
X118756512Y-136598798D01*
X118737959Y-134398752D01*
X118586259Y-132134861D01*
X118301999Y-129816555D01*
X117885765Y-127453265D01*
X117338144Y-125054422D01*
X116783870Y-123041833D01*
X116476142Y-122004667D01*
X107063754Y-122004667D01*
X97651365Y-122004667D01*
X97258467Y-123380500D01*
X96759841Y-125224297D01*
X96348260Y-126969913D01*
X96016394Y-128659764D01*
X95756916Y-130336267D01*
X95588667Y-131812257D01*
X95588667Y-125274926D01*
X95520039Y-125257472D01*
X95336413Y-125306976D01*
X95071173Y-125408807D01*
X94757703Y-125548337D01*
X94429389Y-125710938D01*
X94119614Y-125881979D01*
X93922426Y-126005062D01*
X93259087Y-126537294D01*
X92723427Y-127168355D01*
X92370134Y-127764375D01*
X92213663Y-128119205D01*
X92068212Y-128526872D01*
X91950759Y-128931153D01*
X91878283Y-129275823D01*
X91863333Y-129442601D01*
X91925650Y-129599236D01*
X92092304Y-129826564D01*
X92332852Y-130092773D01*
X92616851Y-130366049D01*
X92913857Y-130614580D01*
X93133333Y-130769751D01*
X93400558Y-130924242D01*
X93707083Y-131078359D01*
X94011554Y-131214278D01*
X94272616Y-131314176D01*
X94448915Y-131360227D01*
X94494397Y-131356380D01*
X94529186Y-131261148D01*
X94568952Y-131042123D01*
X94605723Y-130744349D01*
X94609500Y-130706045D01*
X94657300Y-130302452D01*
X94733429Y-129772131D01*
X94831184Y-129154021D01*
X94943866Y-128487066D01*
X95064772Y-127810205D01*
X95187202Y-127162381D01*
X95304453Y-126582536D01*
X95373883Y-126264207D01*
X95458900Y-125885741D01*
X95528017Y-125571519D01*
X95573730Y-125356098D01*
X95588667Y-125274926D01*
X95588667Y-131812257D01*
X95562497Y-132041838D01*
X95425808Y-133818892D01*
X95411012Y-134073092D01*
X95364594Y-135938823D01*
X95428639Y-137834817D01*
X95599437Y-139713607D01*
X95873276Y-141527727D01*
X96069425Y-142494000D01*
X96177921Y-142993007D01*
X96261772Y-143351709D01*
X96344929Y-143592010D01*
X96451343Y-143735814D01*
X96604965Y-143805025D01*
X96829748Y-143821550D01*
X97149643Y-143807290D01*
X97485083Y-143788677D01*
X98729263Y-143796897D01*
X99883107Y-143942019D01*
X100942981Y-144222146D01*
X101905251Y-144635380D01*
X102766283Y-145179821D01*
X103522443Y-145853573D01*
X104170096Y-146654737D01*
X104691713Y-147552833D01*
X104991758Y-148166667D01*
X105920546Y-148166667D01*
X106849333Y-148166667D01*
X106849333Y-146309188D01*
X106849333Y-144451709D01*
X106447167Y-144401877D01*
X105801447Y-144317089D01*
X105279972Y-144235768D01*
X104838119Y-144148819D01*
X104431266Y-144047150D01*
X104014791Y-143921669D01*
X103889131Y-143880617D01*
X102690640Y-143396322D01*
X101572837Y-142768839D01*
X100546972Y-142009419D01*
X99624297Y-141129315D01*
X98816061Y-140139781D01*
X98133516Y-139052068D01*
X97587913Y-137877430D01*
X97418122Y-137408503D01*
X97144235Y-136364482D01*
X96984705Y-135238652D01*
X96939534Y-134074089D01*
X97008724Y-132913870D01*
X97192277Y-131801073D01*
X97417808Y-130984830D01*
X97904543Y-129784453D01*
X98524611Y-128676269D01*
X99265685Y-127667310D01*
X100115437Y-126764609D01*
X101061540Y-125975199D01*
X102091668Y-125306113D01*
X103193494Y-124764384D01*
X104354691Y-124357045D01*
X105562931Y-124091129D01*
X106805888Y-123973668D01*
X108071236Y-124011697D01*
X109304667Y-124202992D01*
X110560693Y-124554692D01*
X111723170Y-125043877D01*
X112804645Y-125677444D01*
X113817664Y-126462292D01*
X114385260Y-126996030D01*
X115239188Y-127966818D01*
X115946359Y-129006107D01*
X116508483Y-130100961D01*
X116927265Y-131238441D01*
X117204413Y-132405608D01*
X117341634Y-133589524D01*
X117340636Y-134777252D01*
X117203125Y-135955852D01*
X116930808Y-137112387D01*
X116525393Y-138233917D01*
X115988588Y-139307506D01*
X115322098Y-140320214D01*
X114527631Y-141259104D01*
X113606895Y-142111236D01*
X112561597Y-142863673D01*
X112268000Y-143042335D01*
X111410204Y-143485930D01*
X110489753Y-143855578D01*
X109560866Y-144132632D01*
X108677766Y-144298446D01*
X108583926Y-144309290D01*
X108254614Y-144346915D01*
X107949894Y-144385388D01*
X107801833Y-144406396D01*
X107526667Y-144449006D01*
X107526667Y-146307836D01*
X107526667Y-148166667D01*
X108352167Y-148161274D01*
X109177667Y-148155881D01*
X109533449Y-147420440D01*
X110052565Y-146530959D01*
X110688996Y-145761341D01*
X111438097Y-145113976D01*
X112295224Y-144591255D01*
X113255730Y-144195569D01*
X114314973Y-143929309D01*
X115468307Y-143794865D01*
X116588862Y-143788798D01*
X117742156Y-143838123D01*
X118007432Y-142721561D01*
X118391835Y-140769633D01*
X118641333Y-138725568D01*
X118756512Y-136598798D01*
X118756512Y-144451106D01*
X118698356Y-144682826D01*
X119420178Y-146606904D01*
X119676035Y-147294960D01*
X119872077Y-147843306D01*
X120010682Y-148269732D01*
X120094227Y-148592028D01*
X120125088Y-148827983D01*
X120105642Y-148995388D01*
X120038266Y-149112032D01*
X119925337Y-149195705D01*
X119774932Y-149262036D01*
X119667088Y-149271350D01*
X119401375Y-149280207D01*
X118989257Y-149288592D01*
X118783074Y-149291569D01*
X118783074Y-148166667D01*
X118539565Y-147510500D01*
X118405207Y-147149366D01*
X118236221Y-146696462D01*
X118057527Y-146218535D01*
X117940784Y-145906895D01*
X117585512Y-144959458D01*
X117112849Y-144900402D01*
X116724512Y-144873852D01*
X116230430Y-144871795D01*
X115681469Y-144891242D01*
X115128497Y-144929203D01*
X114622380Y-144982686D01*
X114213986Y-145048700D01*
X114088333Y-145078227D01*
X113183896Y-145399978D01*
X112357424Y-145852086D01*
X111637855Y-146418316D01*
X111552241Y-146500874D01*
X111268997Y-146803138D01*
X110991136Y-147138285D01*
X110742653Y-147472769D01*
X110547542Y-147773046D01*
X110429798Y-148005571D01*
X110406128Y-148103167D01*
X110487948Y-148115661D01*
X110722990Y-148127340D01*
X111095142Y-148137960D01*
X111588293Y-148147278D01*
X112186332Y-148155047D01*
X112873148Y-148161025D01*
X113632630Y-148164967D01*
X114448666Y-148166628D01*
X114594204Y-148166667D01*
X118783074Y-148166667D01*
X118783074Y-149291569D01*
X118442198Y-149296492D01*
X117771661Y-149303893D01*
X116989111Y-149310783D01*
X116106010Y-149317148D01*
X115133824Y-149322974D01*
X114084015Y-149328247D01*
X112968048Y-149332955D01*
X111797386Y-149337083D01*
X110583493Y-149340618D01*
X109337833Y-149343547D01*
X108071869Y-149345855D01*
X106797067Y-149347531D01*
X105524888Y-149348559D01*
X104266798Y-149348928D01*
X103716667Y-149348791D01*
X103716667Y-148066736D01*
X103662866Y-147906597D01*
X103518000Y-147656709D01*
X103306878Y-147350804D01*
X103054305Y-147022615D01*
X102785088Y-146705873D01*
X102524034Y-146434310D01*
X102498243Y-146409919D01*
X101812686Y-145874190D01*
X101016568Y-145435518D01*
X100159283Y-145119111D01*
X99725417Y-145024817D01*
X99178305Y-144948864D01*
X98573415Y-144895143D01*
X97966217Y-144867541D01*
X97412181Y-144869947D01*
X97020105Y-144899034D01*
X96558396Y-144956720D01*
X95956698Y-146561693D01*
X95354999Y-148166667D01*
X99535833Y-148166667D01*
X100542283Y-148165654D01*
X101389532Y-148162455D01*
X102087702Y-148156829D01*
X102646915Y-148148532D01*
X103077291Y-148137323D01*
X103388952Y-148122960D01*
X103592021Y-148105202D01*
X103696617Y-148083805D01*
X103716667Y-148066736D01*
X103716667Y-149348791D01*
X103034259Y-149348622D01*
X101838737Y-149347628D01*
X100691694Y-149345934D01*
X99604594Y-149343525D01*
X98588901Y-149340388D01*
X97656080Y-149336510D01*
X96817593Y-149331877D01*
X96084904Y-149326475D01*
X95469478Y-149320291D01*
X94982779Y-149313312D01*
X94636269Y-149305524D01*
X94441413Y-149296913D01*
X94403333Y-149291934D01*
X94147974Y-149131204D01*
X94000508Y-148899858D01*
X93980000Y-148772722D01*
X94009041Y-148635532D01*
X94090607Y-148364973D01*
X94216362Y-147985693D01*
X94377970Y-147522342D01*
X94567094Y-146999567D01*
X94706832Y-146623592D01*
X95433665Y-144688828D01*
X95131257Y-143443247D01*
X94930121Y-142560712D01*
X94747084Y-141653382D01*
X94592408Y-140776768D01*
X94476357Y-139986379D01*
X94446982Y-139742333D01*
X94413520Y-139499883D01*
X94413520Y-132520326D01*
X93963927Y-132375583D01*
X93526908Y-132205441D01*
X93035564Y-131968315D01*
X92558201Y-131700293D01*
X92163127Y-131437469D01*
X92107719Y-131394839D01*
X91801771Y-131152737D01*
X91748621Y-131595202D01*
X91710651Y-132069796D01*
X91696857Y-132610364D01*
X91707281Y-133141907D01*
X91741966Y-133589424D01*
X91747464Y-133631765D01*
X91793892Y-133877604D01*
X91877740Y-134017234D01*
X92047380Y-134113424D01*
X92149631Y-134153622D01*
X92476190Y-134255133D01*
X92857437Y-134340205D01*
X93255691Y-134404667D01*
X93633275Y-134444353D01*
X93952511Y-134455092D01*
X94175720Y-134432715D01*
X94260421Y-134387167D01*
X94280545Y-134281136D01*
X94306511Y-134044023D01*
X94334591Y-133713806D01*
X94355178Y-133421996D01*
X94413520Y-132520326D01*
X94413520Y-139499883D01*
X94407113Y-139453461D01*
X94343659Y-139269792D01*
X94303105Y-139223590D01*
X94303105Y-137069708D01*
X94299453Y-136673167D01*
X94276333Y-135170333D01*
X93472000Y-135117227D01*
X93076671Y-135083762D01*
X92706835Y-135039670D01*
X92421906Y-134992501D01*
X92342145Y-134973671D01*
X92016623Y-134883220D01*
X92071574Y-135111443D01*
X92167848Y-135399880D01*
X92329702Y-135775166D01*
X92530401Y-136182197D01*
X92743208Y-136565869D01*
X92890090Y-136798436D01*
X93060765Y-137022426D01*
X93289166Y-137287158D01*
X93545643Y-137562501D01*
X93800549Y-137818326D01*
X94024235Y-138024500D01*
X94187053Y-138150893D01*
X94245596Y-138176000D01*
X94270462Y-138095249D01*
X94288890Y-137868473D01*
X94300048Y-137518887D01*
X94303105Y-137069708D01*
X94303105Y-139223590D01*
X94219004Y-139127779D01*
X93995537Y-138963875D01*
X93979852Y-138953113D01*
X93168976Y-138297003D01*
X92477967Y-137527316D01*
X91910735Y-136653872D01*
X91471190Y-135686496D01*
X91163242Y-134635010D01*
X90990801Y-133509236D01*
X90957778Y-132318996D01*
X91014249Y-131502933D01*
X91116263Y-130544867D01*
X90881573Y-130096614D01*
X90646882Y-129648361D01*
X90794480Y-128897162D01*
X91071006Y-127889548D01*
X91484842Y-126977214D01*
X92033507Y-126164643D01*
X92679684Y-125487125D01*
X93120089Y-125151294D01*
X93669901Y-124816874D01*
X94271556Y-124513474D01*
X94867493Y-124270700D01*
X95296462Y-124141224D01*
X95893257Y-123997245D01*
X96143128Y-123106789D01*
X96247499Y-122734122D01*
X96335877Y-122417212D01*
X96397561Y-122194511D01*
X96420375Y-122110500D01*
X96394291Y-122085107D01*
X96293952Y-122063848D01*
X96107612Y-122046414D01*
X95823528Y-122032492D01*
X95429953Y-122021771D01*
X94915145Y-122013940D01*
X94267359Y-122008688D01*
X93474850Y-122005703D01*
X92525874Y-122004674D01*
X92427323Y-122004667D01*
X91409553Y-122003845D01*
X90544028Y-122000440D01*
X89813664Y-121993040D01*
X89201375Y-121980234D01*
X88690077Y-121960610D01*
X88262687Y-121932758D01*
X87902118Y-121895267D01*
X87591288Y-121846724D01*
X87313111Y-121785719D01*
X87050502Y-121710840D01*
X86786378Y-121620677D01*
X86508684Y-121515772D01*
X85627117Y-121086335D01*
X84803021Y-120514682D01*
X84059786Y-119824462D01*
X83420800Y-119039328D01*
X82909451Y-118182929D01*
X82669305Y-117633276D01*
X82529176Y-117233465D01*
X82419766Y-116845396D01*
X82337595Y-116440227D01*
X82279180Y-115989120D01*
X82241042Y-115463234D01*
X82219699Y-114833730D01*
X82211670Y-114071767D01*
X82211333Y-113839128D01*
X82211333Y-111869153D01*
X82211333Y-110744000D01*
X82211333Y-105418056D01*
X82211333Y-100092113D01*
X81851500Y-100133208D01*
X81529860Y-100183419D01*
X81135974Y-100264196D01*
X80722571Y-100362556D01*
X80342380Y-100465516D01*
X80048131Y-100560094D01*
X79944099Y-100602838D01*
X79713667Y-100713282D01*
X79713667Y-105444954D01*
X79713667Y-110176626D01*
X80052333Y-110298321D01*
X80309324Y-110377676D01*
X80660750Y-110469548D01*
X81056259Y-110562687D01*
X81445494Y-110645848D01*
X81778103Y-110707780D01*
X82003731Y-110737236D01*
X82020833Y-110738043D01*
X82211333Y-110744000D01*
X82211333Y-111869153D01*
X81669540Y-111818559D01*
X80573115Y-111636079D01*
X79507096Y-111302772D01*
X78979295Y-111055980D01*
X78979295Y-103134443D01*
X78978066Y-102499097D01*
X78975378Y-101964082D01*
X78971291Y-101545431D01*
X78965868Y-101259181D01*
X78959168Y-101121366D01*
X78956896Y-101111340D01*
X78861576Y-101126173D01*
X78669987Y-101228462D01*
X78415398Y-101396605D01*
X78131078Y-101608998D01*
X77911954Y-101789856D01*
X77233792Y-102470955D01*
X76716222Y-103200506D01*
X76360251Y-103976349D01*
X76166883Y-104796322D01*
X76134635Y-105612733D01*
X76258041Y-106489442D01*
X76538088Y-107304010D01*
X76975326Y-108057332D01*
X77570301Y-108750304D01*
X78323562Y-109383823D01*
X78528333Y-109527374D01*
X78951667Y-109814219D01*
X78973609Y-105482108D01*
X78977128Y-104641983D01*
X78979002Y-103854083D01*
X78979295Y-103134443D01*
X78979295Y-111055980D01*
X78497919Y-110830896D01*
X77572020Y-110232706D01*
X76792667Y-109557625D01*
X76141561Y-108826111D01*
X75645878Y-108082853D01*
X75292309Y-107301827D01*
X75067545Y-106457014D01*
X75006992Y-106066124D01*
X74971965Y-105136942D01*
X75095509Y-104233479D01*
X75367532Y-103366399D01*
X75777941Y-102546367D01*
X76316644Y-101784048D01*
X76973550Y-101090107D01*
X77738565Y-100475208D01*
X78601598Y-99950017D01*
X79552557Y-99525198D01*
X80581350Y-99211417D01*
X81675074Y-99019655D01*
X82197148Y-98960353D01*
X82232533Y-96703010D01*
X82244586Y-96007370D01*
X82257705Y-95456039D01*
X82273833Y-95023992D01*
X82294911Y-94686208D01*
X82322881Y-94417664D01*
X82359686Y-94193336D01*
X82407267Y-93988201D01*
X82456813Y-93812984D01*
X82846062Y-92794645D01*
X83373985Y-91867787D01*
X84031085Y-91041921D01*
X84807864Y-90326560D01*
X85694823Y-89731215D01*
X86682467Y-89265399D01*
X87164333Y-89098367D01*
X87926333Y-88862141D01*
X93704833Y-88834406D01*
X94677029Y-88829369D01*
X95597875Y-88823875D01*
X96453650Y-88818053D01*
X97230634Y-88812031D01*
X97915106Y-88805936D01*
X98493345Y-88799897D01*
X98951631Y-88794041D01*
X99276243Y-88788495D01*
X99453460Y-88783388D01*
X99483333Y-88780593D01*
X99450327Y-88697242D01*
X99362395Y-88497867D01*
X99236164Y-88219917D01*
X99186445Y-88111938D01*
X98857845Y-87272970D01*
X98646474Y-86414550D01*
X98542435Y-85488753D01*
X98527365Y-84920667D01*
X98541529Y-84323434D01*
X98581733Y-83777507D01*
X98643756Y-83336360D01*
X98657776Y-83268268D01*
X98985262Y-82163240D01*
X99458545Y-81133431D01*
X100066428Y-80190601D01*
X100797716Y-79346513D01*
X101641210Y-78612928D01*
X102585715Y-78001608D01*
X103620035Y-77524315D01*
X104351667Y-77287009D01*
X104879792Y-77181651D01*
X105518964Y-77113997D01*
X106215953Y-77084556D01*
X106917532Y-77093835D01*
X107570474Y-77142342D01*
X108121551Y-77230585D01*
X108204000Y-77250265D01*
X109331296Y-77618891D01*
X110361959Y-78124684D01*
X111289701Y-78761590D01*
X112108234Y-79523556D01*
X112811271Y-80404530D01*
X113392523Y-81398459D01*
X113845702Y-82499290D01*
X113929550Y-82761667D01*
X114018721Y-83069601D01*
X114081601Y-83336840D01*
X114122683Y-83604635D01*
X114146458Y-83914236D01*
X114157419Y-84306892D01*
X114160056Y-84823855D01*
X114160038Y-84878333D01*
X114146690Y-85607758D01*
X114101454Y-86215832D01*
X114015128Y-86749013D01*
X113878510Y-87253756D01*
X113682398Y-87776519D01*
X113507630Y-88171913D01*
X113214100Y-88807219D01*
X119408550Y-88837495D01*
X120599668Y-88843654D01*
X121633704Y-88849887D01*
X122522911Y-88856511D01*
X123279541Y-88863838D01*
X123915845Y-88872183D01*
X124444077Y-88881861D01*
X124876487Y-88893186D01*
X125225328Y-88906472D01*
X125502851Y-88922034D01*
X125721310Y-88940186D01*
X125892955Y-88961242D01*
X126030038Y-88985517D01*
X126132652Y-89010016D01*
X127180923Y-89374373D01*
X128137381Y-89874948D01*
X128992230Y-90501932D01*
X129735672Y-91245515D01*
X130357909Y-92095888D01*
X130849146Y-93043241D01*
X131199585Y-94077764D01*
X131201533Y-94085348D01*
X131250133Y-94327380D01*
X131289833Y-94649253D01*
X131321909Y-95070342D01*
X131347636Y-95610021D01*
X131368288Y-96287665D01*
X131379065Y-96783605D01*
X131420803Y-98952210D01*
X132141620Y-99053047D01*
X133315060Y-99295983D01*
X134412295Y-99683459D01*
X135423585Y-100210575D01*
X136339187Y-100872430D01*
X136995697Y-101495067D01*
X137633716Y-102282550D01*
X138108552Y-103110675D01*
X138422889Y-103985993D01*
X138579410Y-104915055D01*
X138599333Y-105410000D01*
X138599333Y-105410000D01*
G36*
X128171627Y-108039411D02*
X128171280Y-109235486D01*
X128168152Y-110272254D01*
X128162219Y-111153050D01*
X128153454Y-111881210D01*
X128141829Y-112460067D01*
X128127321Y-112892956D01*
X128109902Y-113183214D01*
X128100533Y-113272595D01*
X127885687Y-114274966D01*
X127520082Y-115215477D01*
X127015144Y-116079130D01*
X126382297Y-116850928D01*
X125632965Y-117515874D01*
X124778573Y-118058970D01*
X124271799Y-118298712D01*
X124135228Y-118357111D01*
X124010351Y-118410676D01*
X123889691Y-118459610D01*
X123765773Y-118504117D01*
X123631122Y-118544403D01*
X123478262Y-118580670D01*
X123299717Y-118613122D01*
X123088011Y-118641965D01*
X122835670Y-118667401D01*
X122567780Y-118687225D01*
X122567780Y-105325770D01*
X122536253Y-104563324D01*
X122411798Y-103853656D01*
X122348445Y-103636256D01*
X121993432Y-102807866D01*
X121513168Y-102076962D01*
X120925525Y-101450981D01*
X120248375Y-100937357D01*
X119499590Y-100543528D01*
X118697042Y-100276929D01*
X117858605Y-100144996D01*
X117002149Y-100155165D01*
X116145548Y-100314872D01*
X115306672Y-100631554D01*
X115224387Y-100672173D01*
X114507172Y-101123908D01*
X113859113Y-101708226D01*
X113307088Y-102393737D01*
X112877976Y-103149055D01*
X112686221Y-103636256D01*
X112530241Y-104313296D01*
X112467165Y-105065085D01*
X112497064Y-105826892D01*
X112620006Y-106533983D01*
X112682896Y-106750068D01*
X113046432Y-107605090D01*
X113539423Y-108353124D01*
X114156991Y-108990277D01*
X114894258Y-109512657D01*
X115746347Y-109916373D01*
X116708382Y-110197531D01*
X117094000Y-110270170D01*
X117368145Y-110284967D01*
X117748638Y-110267219D01*
X118176684Y-110221815D01*
X118593490Y-110153647D01*
X118660333Y-110139862D01*
X119452144Y-109887012D01*
X120201766Y-109486741D01*
X120886569Y-108959830D01*
X121483925Y-108327059D01*
X121971205Y-107609207D01*
X122325781Y-106827053D01*
X122351771Y-106750068D01*
X122506309Y-106076263D01*
X122567780Y-105325770D01*
X122567780Y-118687225D01*
X122535217Y-118689635D01*
X122179177Y-118708872D01*
X121760075Y-118725314D01*
X121270434Y-118739166D01*
X120702779Y-118750633D01*
X120049634Y-118759917D01*
X119303524Y-118767224D01*
X118456974Y-118772757D01*
X117502507Y-118776721D01*
X116432648Y-118779319D01*
X115239921Y-118780755D01*
X113916851Y-118781234D01*
X112455962Y-118780959D01*
X110849779Y-118780136D01*
X109090826Y-118778966D01*
X107171627Y-118777656D01*
X106736052Y-118777375D01*
X105113478Y-118775985D01*
X103533010Y-118773927D01*
X102003263Y-118771242D01*
X100912408Y-118768816D01*
X100912408Y-105312314D01*
X100903424Y-104952743D01*
X100847930Y-104539579D01*
X100798538Y-104268136D01*
X100549278Y-103403582D01*
X100152689Y-102602290D01*
X99624556Y-101882053D01*
X98980665Y-101260665D01*
X98236800Y-100755917D01*
X97408748Y-100385604D01*
X97330972Y-100359588D01*
X96467735Y-100165652D01*
X95582993Y-100130785D01*
X94702595Y-100251477D01*
X93852391Y-100524220D01*
X93069613Y-100938095D01*
X92394367Y-101470239D01*
X91804766Y-102122872D01*
X91325716Y-102861580D01*
X90982118Y-103651949D01*
X90896879Y-103940554D01*
X90806133Y-104464185D01*
X90768927Y-105075271D01*
X90785260Y-105700624D01*
X90855135Y-106267053D01*
X90896879Y-106456112D01*
X91148146Y-107161736D01*
X91522500Y-107855814D01*
X91991130Y-108498661D01*
X92525226Y-109050592D01*
X93078813Y-109461690D01*
X93941012Y-109898557D01*
X94799615Y-110168097D01*
X95665428Y-110271702D01*
X96549256Y-110210764D01*
X97373305Y-110015055D01*
X98179114Y-109676764D01*
X98910830Y-109197733D01*
X99552146Y-108596392D01*
X100086755Y-107891169D01*
X100498349Y-107100494D01*
X100770620Y-106242795D01*
X100789485Y-106154403D01*
X100874542Y-105689223D01*
X100912408Y-105312314D01*
X100912408Y-118768816D01*
X100532854Y-118767973D01*
X99130400Y-118764160D01*
X97804518Y-118759845D01*
X96563824Y-118755070D01*
X95416935Y-118749876D01*
X94372468Y-118744305D01*
X93439039Y-118738398D01*
X92625264Y-118732196D01*
X91939761Y-118725742D01*
X91391147Y-118719077D01*
X90988037Y-118712242D01*
X90739048Y-118705279D01*
X90657967Y-118699889D01*
X89711831Y-118456620D01*
X88814303Y-118061229D01*
X87984525Y-117528343D01*
X87241643Y-116872590D01*
X86604801Y-116108598D01*
X86093142Y-115250995D01*
X86063066Y-115189000D01*
X85965771Y-114987982D01*
X85879737Y-114808934D01*
X85804271Y-114640693D01*
X85738685Y-114472101D01*
X85682287Y-114291997D01*
X85634386Y-114089221D01*
X85594292Y-113852613D01*
X85561315Y-113571013D01*
X85534763Y-113233259D01*
X85513946Y-112828193D01*
X85498173Y-112344655D01*
X85486755Y-111771483D01*
X85478999Y-111097518D01*
X85474216Y-110311599D01*
X85471714Y-109402567D01*
X85470804Y-108359262D01*
X85470794Y-107170522D01*
X85470994Y-105825189D01*
X85471000Y-105621667D01*
X85470784Y-104252982D01*
X85470627Y-103042416D01*
X85471268Y-101978753D01*
X85473442Y-101050781D01*
X85477886Y-100247286D01*
X85485339Y-99557053D01*
X85496536Y-98968868D01*
X85512215Y-98471519D01*
X85533114Y-98053790D01*
X85559969Y-97704468D01*
X85593517Y-97412339D01*
X85634495Y-97166190D01*
X85683641Y-96954806D01*
X85741691Y-96766973D01*
X85809383Y-96591477D01*
X85887454Y-96417106D01*
X85976640Y-96232644D01*
X86077679Y-96026878D01*
X86105421Y-95969667D01*
X86609497Y-95116053D01*
X87245428Y-94354474D01*
X87994113Y-93700250D01*
X88836450Y-93168699D01*
X89753335Y-92775142D01*
X90276651Y-92624450D01*
X90364772Y-92604093D01*
X90456910Y-92585458D01*
X90560551Y-92568467D01*
X90683181Y-92553045D01*
X90832284Y-92539115D01*
X91015346Y-92526601D01*
X91239851Y-92515427D01*
X91513286Y-92505517D01*
X91843135Y-92496793D01*
X92236883Y-92489181D01*
X92702017Y-92482603D01*
X93246020Y-92476983D01*
X93876379Y-92472246D01*
X94600578Y-92468314D01*
X95426103Y-92465112D01*
X96360439Y-92462563D01*
X97411071Y-92460590D01*
X98585485Y-92459119D01*
X99891165Y-92458071D01*
X101335596Y-92457372D01*
X102926265Y-92456945D01*
X104670656Y-92456712D01*
X106576255Y-92456600D01*
X106747069Y-92456593D01*
X108712464Y-92456363D01*
X110515973Y-92456004D01*
X112165046Y-92455780D01*
X113667131Y-92455957D01*
X115029675Y-92456799D01*
X116260126Y-92458571D01*
X117365934Y-92461538D01*
X118354545Y-92465964D01*
X119233409Y-92472115D01*
X120009972Y-92480255D01*
X120691684Y-92490648D01*
X121285993Y-92503561D01*
X121800345Y-92519258D01*
X122242191Y-92538002D01*
X122618976Y-92560060D01*
X122938151Y-92585696D01*
X123207163Y-92615175D01*
X123433460Y-92648762D01*
X123624490Y-92686721D01*
X123787701Y-92729317D01*
X123930541Y-92776816D01*
X124060459Y-92829481D01*
X124184903Y-92887578D01*
X124311320Y-92951371D01*
X124447160Y-93021126D01*
X124587000Y-93090863D01*
X125494175Y-93620576D01*
X126279406Y-94267735D01*
X126942407Y-95032055D01*
X127482894Y-95913251D01*
X127553442Y-96055617D01*
X127650963Y-96256665D01*
X127736896Y-96437173D01*
X127812013Y-96608679D01*
X127877090Y-96782717D01*
X127932901Y-96970823D01*
X127980218Y-97184533D01*
X128019817Y-97435382D01*
X128052472Y-97734905D01*
X128078956Y-98094637D01*
X128100043Y-98526116D01*
X128116508Y-99040875D01*
X128129125Y-99650451D01*
X128138667Y-100366379D01*
X128145909Y-101200194D01*
X128151625Y-102163432D01*
X128156589Y-103267629D01*
X128161574Y-104524319D01*
X128164085Y-105156000D01*
X128169220Y-106680694D01*
X128171627Y-108039411D01*
X128171627Y-108039411D01*
X128171627Y-108039411D01*
G37*
X128171627Y-108039411D02*
X128171280Y-109235486D01*
X128168152Y-110272254D01*
X128162219Y-111153050D01*
X128153454Y-111881210D01*
X128141829Y-112460067D01*
X128127321Y-112892956D01*
X128109902Y-113183214D01*
X128100533Y-113272595D01*
X127885687Y-114274966D01*
X127520082Y-115215477D01*
X127015144Y-116079130D01*
X126382297Y-116850928D01*
X125632965Y-117515874D01*
X124778573Y-118058970D01*
X124271799Y-118298712D01*
X124135228Y-118357111D01*
X124010351Y-118410676D01*
X123889691Y-118459610D01*
X123765773Y-118504117D01*
X123631122Y-118544403D01*
X123478262Y-118580670D01*
X123299717Y-118613122D01*
X123088011Y-118641965D01*
X122835670Y-118667401D01*
X122567780Y-118687225D01*
X122567780Y-105325770D01*
X122536253Y-104563324D01*
X122411798Y-103853656D01*
X122348445Y-103636256D01*
X121993432Y-102807866D01*
X121513168Y-102076962D01*
X120925525Y-101450981D01*
X120248375Y-100937357D01*
X119499590Y-100543528D01*
X118697042Y-100276929D01*
X117858605Y-100144996D01*
X117002149Y-100155165D01*
X116145548Y-100314872D01*
X115306672Y-100631554D01*
X115224387Y-100672173D01*
X114507172Y-101123908D01*
X113859113Y-101708226D01*
X113307088Y-102393737D01*
X112877976Y-103149055D01*
X112686221Y-103636256D01*
X112530241Y-104313296D01*
X112467165Y-105065085D01*
X112497064Y-105826892D01*
X112620006Y-106533983D01*
X112682896Y-106750068D01*
X113046432Y-107605090D01*
X113539423Y-108353124D01*
X114156991Y-108990277D01*
X114894258Y-109512657D01*
X115746347Y-109916373D01*
X116708382Y-110197531D01*
X117094000Y-110270170D01*
X117368145Y-110284967D01*
X117748638Y-110267219D01*
X118176684Y-110221815D01*
X118593490Y-110153647D01*
X118660333Y-110139862D01*
X119452144Y-109887012D01*
X120201766Y-109486741D01*
X120886569Y-108959830D01*
X121483925Y-108327059D01*
X121971205Y-107609207D01*
X122325781Y-106827053D01*
X122351771Y-106750068D01*
X122506309Y-106076263D01*
X122567780Y-105325770D01*
X122567780Y-118687225D01*
X122535217Y-118689635D01*
X122179177Y-118708872D01*
X121760075Y-118725314D01*
X121270434Y-118739166D01*
X120702779Y-118750633D01*
X120049634Y-118759917D01*
X119303524Y-118767224D01*
X118456974Y-118772757D01*
X117502507Y-118776721D01*
X116432648Y-118779319D01*
X115239921Y-118780755D01*
X113916851Y-118781234D01*
X112455962Y-118780959D01*
X110849779Y-118780136D01*
X109090826Y-118778966D01*
X107171627Y-118777656D01*
X106736052Y-118777375D01*
X105113478Y-118775985D01*
X103533010Y-118773927D01*
X102003263Y-118771242D01*
X100912408Y-118768816D01*
X100912408Y-105312314D01*
X100903424Y-104952743D01*
X100847930Y-104539579D01*
X100798538Y-104268136D01*
X100549278Y-103403582D01*
X100152689Y-102602290D01*
X99624556Y-101882053D01*
X98980665Y-101260665D01*
X98236800Y-100755917D01*
X97408748Y-100385604D01*
X97330972Y-100359588D01*
X96467735Y-100165652D01*
X95582993Y-100130785D01*
X94702595Y-100251477D01*
X93852391Y-100524220D01*
X93069613Y-100938095D01*
X92394367Y-101470239D01*
X91804766Y-102122872D01*
X91325716Y-102861580D01*
X90982118Y-103651949D01*
X90896879Y-103940554D01*
X90806133Y-104464185D01*
X90768927Y-105075271D01*
X90785260Y-105700624D01*
X90855135Y-106267053D01*
X90896879Y-106456112D01*
X91148146Y-107161736D01*
X91522500Y-107855814D01*
X91991130Y-108498661D01*
X92525226Y-109050592D01*
X93078813Y-109461690D01*
X93941012Y-109898557D01*
X94799615Y-110168097D01*
X95665428Y-110271702D01*
X96549256Y-110210764D01*
X97373305Y-110015055D01*
X98179114Y-109676764D01*
X98910830Y-109197733D01*
X99552146Y-108596392D01*
X100086755Y-107891169D01*
X100498349Y-107100494D01*
X100770620Y-106242795D01*
X100789485Y-106154403D01*
X100874542Y-105689223D01*
X100912408Y-105312314D01*
X100912408Y-118768816D01*
X100532854Y-118767973D01*
X99130400Y-118764160D01*
X97804518Y-118759845D01*
X96563824Y-118755070D01*
X95416935Y-118749876D01*
X94372468Y-118744305D01*
X93439039Y-118738398D01*
X92625264Y-118732196D01*
X91939761Y-118725742D01*
X91391147Y-118719077D01*
X90988037Y-118712242D01*
X90739048Y-118705279D01*
X90657967Y-118699889D01*
X89711831Y-118456620D01*
X88814303Y-118061229D01*
X87984525Y-117528343D01*
X87241643Y-116872590D01*
X86604801Y-116108598D01*
X86093142Y-115250995D01*
X86063066Y-115189000D01*
X85965771Y-114987982D01*
X85879737Y-114808934D01*
X85804271Y-114640693D01*
X85738685Y-114472101D01*
X85682287Y-114291997D01*
X85634386Y-114089221D01*
X85594292Y-113852613D01*
X85561315Y-113571013D01*
X85534763Y-113233259D01*
X85513946Y-112828193D01*
X85498173Y-112344655D01*
X85486755Y-111771483D01*
X85478999Y-111097518D01*
X85474216Y-110311599D01*
X85471714Y-109402567D01*
X85470804Y-108359262D01*
X85470794Y-107170522D01*
X85470994Y-105825189D01*
X85471000Y-105621667D01*
X85470784Y-104252982D01*
X85470627Y-103042416D01*
X85471268Y-101978753D01*
X85473442Y-101050781D01*
X85477886Y-100247286D01*
X85485339Y-99557053D01*
X85496536Y-98968868D01*
X85512215Y-98471519D01*
X85533114Y-98053790D01*
X85559969Y-97704468D01*
X85593517Y-97412339D01*
X85634495Y-97166190D01*
X85683641Y-96954806D01*
X85741691Y-96766973D01*
X85809383Y-96591477D01*
X85887454Y-96417106D01*
X85976640Y-96232644D01*
X86077679Y-96026878D01*
X86105421Y-95969667D01*
X86609497Y-95116053D01*
X87245428Y-94354474D01*
X87994113Y-93700250D01*
X88836450Y-93168699D01*
X89753335Y-92775142D01*
X90276651Y-92624450D01*
X90364772Y-92604093D01*
X90456910Y-92585458D01*
X90560551Y-92568467D01*
X90683181Y-92553045D01*
X90832284Y-92539115D01*
X91015346Y-92526601D01*
X91239851Y-92515427D01*
X91513286Y-92505517D01*
X91843135Y-92496793D01*
X92236883Y-92489181D01*
X92702017Y-92482603D01*
X93246020Y-92476983D01*
X93876379Y-92472246D01*
X94600578Y-92468314D01*
X95426103Y-92465112D01*
X96360439Y-92462563D01*
X97411071Y-92460590D01*
X98585485Y-92459119D01*
X99891165Y-92458071D01*
X101335596Y-92457372D01*
X102926265Y-92456945D01*
X104670656Y-92456712D01*
X106576255Y-92456600D01*
X106747069Y-92456593D01*
X108712464Y-92456363D01*
X110515973Y-92456004D01*
X112165046Y-92455780D01*
X113667131Y-92455957D01*
X115029675Y-92456799D01*
X116260126Y-92458571D01*
X117365934Y-92461538D01*
X118354545Y-92465964D01*
X119233409Y-92472115D01*
X120009972Y-92480255D01*
X120691684Y-92490648D01*
X121285993Y-92503561D01*
X121800345Y-92519258D01*
X122242191Y-92538002D01*
X122618976Y-92560060D01*
X122938151Y-92585696D01*
X123207163Y-92615175D01*
X123433460Y-92648762D01*
X123624490Y-92686721D01*
X123787701Y-92729317D01*
X123930541Y-92776816D01*
X124060459Y-92829481D01*
X124184903Y-92887578D01*
X124311320Y-92951371D01*
X124447160Y-93021126D01*
X124587000Y-93090863D01*
X125494175Y-93620576D01*
X126279406Y-94267735D01*
X126942407Y-95032055D01*
X127482894Y-95913251D01*
X127553442Y-96055617D01*
X127650963Y-96256665D01*
X127736896Y-96437173D01*
X127812013Y-96608679D01*
X127877090Y-96782717D01*
X127932901Y-96970823D01*
X127980218Y-97184533D01*
X128019817Y-97435382D01*
X128052472Y-97734905D01*
X128078956Y-98094637D01*
X128100043Y-98526116D01*
X128116508Y-99040875D01*
X128129125Y-99650451D01*
X128138667Y-100366379D01*
X128145909Y-101200194D01*
X128151625Y-102163432D01*
X128156589Y-103267629D01*
X128161574Y-104524319D01*
X128164085Y-105156000D01*
X128169220Y-106680694D01*
X128171627Y-108039411D01*
X128171627Y-108039411D01*
D11*
X120355295Y-95420148D02*
X124754705Y-97960148D01*
X124754705Y-97960148D02*
X123484705Y-100159852D01*
X123484705Y-100159852D02*
X119085295Y-97619852D01*
X119085295Y-97619852D02*
X120355295Y-95420148D01*
X119720295Y-96520000D02*
X118620443Y-95885000D01*
X124119705Y-99060000D02*
X125219557Y-99695000D01*
X88605295Y-97960148D02*
X93004705Y-95420148D01*
X93004705Y-95420148D02*
X94274705Y-97619852D01*
X94274705Y-97619852D02*
X89875295Y-100159852D01*
X89875295Y-100159852D02*
X88605295Y-97960148D01*
X89240295Y-99060000D02*
X88140443Y-99695000D01*
X93639705Y-96520000D02*
X94739557Y-95885000D01*
X113515140Y-134620000D02*
G75*
G03X113515140Y-134620000I-6200140J0D01*
G01*
M02*
