<?xml version="1.0" standalone="no"?>
 <!DOCTYPE svg PUBLIC "-//W3C//DTD SVG 1.1//EN" 
 "http://www.w3.org/Graphics/SVG/1.1/DTD/svg11.dtd"> 
<svg xmlns="http://www.w3.org/2000/svg" version="1.1" 
    width="5.64134cm" height="3.57124cm" viewBox="0 0 22210 14060 ">
<title>SVG Picture created as project-brd.svg date 2018/08/17 12:23:54 </title>
  <desc>Picture generated by PCBNEW </desc>
<g style="fill:#000000; fill-opacity:1;stroke:#000000; stroke-opacity:1;
stroke-linecap:round; stroke-linejoin:round; "
 transform="translate(0 0) scale(1 1)">
</g>
<g style="fill:#000000; fill-opacity:0.0; 
stroke:#000000; stroke-width:-0.000393701; stroke-opacity:1; 
stroke-linecap:round; stroke-linejoin:round;">
</g>
<g style="fill:#840000; fill-opacity:0.0; 
stroke:#840000; stroke-width:-0.000393701; stroke-opacity:1; 
stroke-linecap:round; stroke-linejoin:round;">
</g>
<g style="fill:#840000; fill-opacity:0.0; 
stroke:#840000; stroke-width:0; stroke-opacity:1; 
stroke-linecap:round; stroke-linejoin:round;">
</g>
<g style="fill:#840000; fill-opacity:1.0; 
stroke:#840000; stroke-width:0; stroke-opacity:1; 
stroke-linecap:round; stroke-linejoin:round;">
<polyline style="fill-rule:evenodd;"
points="14157,12785
13842,12785
13842,12470
14157,12470
14157,12785
" /> 
<polyline style="fill-rule:evenodd;"
points="14157,12155
13842,12155
13842,11840
14157,11840
14157,12155
" /> 
<polyline style="fill-rule:evenodd;"
points="12651,10508
12651,11217
12493,11217
12493,10508
12651,10508
" /> 
<polyline style="fill-rule:evenodd;"
points="12178,10508
12178,11217
12021,11217
12021,10508
12178,10508
" /> 
<polyline style="fill-rule:evenodd;"
points="11706,10508
11706,11217
11548,11217
11548,10508
11706,10508
" /> 
<polyline style="fill-rule:evenodd;"
points="16392,4879
15978,4879
15978,4328
16392,4328
16392,4879
" /> 
<polyline style="fill-rule:evenodd;"
points="16392,6297
15978,6297
15978,5746
16392,5746
16392,6297
" /> 
<polyline style="fill-rule:evenodd;"
points="15831,4879
15417,4879
15417,4328
15831,4328
15831,4879
" /> 
<polyline style="fill-rule:evenodd;"
points="15831,6297
15417,6297
15417,5746
15831,5746
15831,6297
" /> 
<polyline style="fill-rule:evenodd;"
points="8253,4972
8746,4972
8746,5366
8253,5366
8253,4972
" /> 
<polyline style="fill-rule:evenodd;"
points="8253,5759
8746,5759
8746,6153
8253,6153
8253,5759
" /> 
<polyline style="fill-rule:evenodd;"
points="8647,6925
8352,6925
8352,6610
8647,6610
8647,6925
" /> 
<polyline style="fill-rule:evenodd;"
points="8647,7515
8352,7515
8352,7200
8647,7200
8647,7515
" /> 
<polyline style="fill-rule:evenodd;"
points="10590,10566
10590,11059
10196,11059
10196,10566
10590,10566
" /> 
<polyline style="fill-rule:evenodd;"
points="9803,10566
9803,11059
9409,11059
9409,10566
9803,10566
" /> 
<polyline style="fill-rule:evenodd;"
points="7890,6916
7890,7409
7496,7409
7496,6916
7890,6916
" /> 
<polyline style="fill-rule:evenodd;"
points="7103,6916
7103,7409
6709,7409
6709,6916
7103,6916
" /> 
<polyline style="fill-rule:evenodd;"
points="13584,8397
12915,8397
12915,7728
13584,7728
13584,8397
" /> 
</g>
<g style="fill:#840000; fill-opacity:1.0; 
stroke:#840000; stroke-width:669.291; stroke-opacity:1; 
stroke-linecap:round; stroke-linejoin:round;">
</g>
<g style="fill:#840000; fill-opacity:0.0; 
stroke:#840000; stroke-width:669.291; stroke-opacity:1; 
stroke-linecap:round; stroke-linejoin:round;">
<path d="M13250 7062
L13250 7062
" />
<path d="M12250 8062
L12250 8062
" />
<path d="M12250 7062
L12250 7062
" />
<path d="M11250 8062
L11250 8062
" />
<path d="M11250 7062
L11250 7062
" />
</g>
<g style="fill:#840000; fill-opacity:0.0; 
stroke:#840000; stroke-width:0; stroke-opacity:1; 
stroke-linecap:round; stroke-linejoin:round;">
</g>
<g style="fill:#840000; fill-opacity:1.0; 
stroke:#840000; stroke-width:0; stroke-opacity:1; 
stroke-linecap:round; stroke-linejoin:round;">
<polyline style="fill-rule:evenodd;"
points="14907,12785
14592,12785
14592,12470
14907,12470
14907,12785
" /> 
<polyline style="fill-rule:evenodd;"
points="14907,12155
14592,12155
14592,11840
14907,11840
14907,12155
" /> 
<polyline style="fill-rule:evenodd;"
points="15657,12785
15342,12785
15342,12470
15657,12470
15657,12785
" /> 
<polyline style="fill-rule:evenodd;"
points="15657,12155
15342,12155
15342,11840
15657,11840
15657,12155
" /> 
<polyline style="fill-rule:evenodd;"
points="12665,12228
13334,12228
13334,12897
12665,12897
12665,12228
" /> 
</g>
<g style="fill:#840000; fill-opacity:1.0; 
stroke:#840000; stroke-width:669.291; stroke-opacity:1; 
stroke-linecap:round; stroke-linejoin:round;">
</g>
<g style="fill:#840000; fill-opacity:0.0; 
stroke:#840000; stroke-width:669.291; stroke-opacity:1; 
stroke-linecap:round; stroke-linejoin:round;">
<path d="M12000 12562
L12000 12562
" />
<path d="M11000 12562
L11000 12562
" />
<path d="M10000 12562
L10000 12562
" />
<path d="M9000 12562
L9000 12562
" />
<path d="M8000 12562
L8000 12562
" />
</g>
<g style="fill:#840000; fill-opacity:0.0; 
stroke:#840000; stroke-width:0; stroke-opacity:1; 
stroke-linecap:round; stroke-linejoin:round;">
</g>
<g style="fill:#840000; fill-opacity:1.0; 
stroke:#840000; stroke-width:0; stroke-opacity:1; 
stroke-linecap:round; stroke-linejoin:round;">
<polyline style="fill-rule:evenodd;"
points="14665,3228
15334,3228
15334,3897
14665,3897
14665,3228
" /> 
</g>
<g style="fill:#840000; fill-opacity:1.0; 
stroke:#840000; stroke-width:669.291; stroke-opacity:1; 
stroke-linecap:round; stroke-linejoin:round;">
</g>
<g style="fill:#840000; fill-opacity:0.0; 
stroke:#840000; stroke-width:669.291; stroke-opacity:1; 
stroke-linecap:round; stroke-linejoin:round;">
<path d="M14000 3562
L14000 3562
" />
<path d="M13000 3562
L13000 3562
" />
<path d="M12000 3562
L12000 3562
" />
<path d="M11000 3562
L11000 3562
" />
<path d="M10000 3562
L10000 3562
" />
<path d="M9000 3562
L9000 3562
" />
<path d="M8000 3562
L8000 3562
" />
</g>
<g style="fill:#840000; fill-opacity:0.0; 
stroke:#840000; stroke-width:0; stroke-opacity:1; 
stroke-linecap:round; stroke-linejoin:round;">
</g>
<g style="fill:#840000; fill-opacity:1.0; 
stroke:#840000; stroke-width:0; stroke-opacity:1; 
stroke-linecap:round; stroke-linejoin:round;">
<polyline style="fill-rule:evenodd;"
points="15722,8469
16077,8469
16077,8666
15722,8666
15722,8469
" /> 
<polyline style="fill-rule:evenodd;"
points="15722,9059
16077,9059
16077,9256
15722,9256
15722,9059
" /> 
<polyline style="fill-rule:evenodd;"
points="15722,9869
16077,9869
16077,10066
15722,10066
15722,9869
" /> 
<polyline style="fill-rule:evenodd;"
points="15722,10459
16077,10459
16077,10656
15722,10656
15722,10459
" /> 
<polyline style="fill-rule:evenodd;"
points="8922,9419
9277,9419
9277,9616
8922,9616
8922,9419
" /> 
<polyline style="fill-rule:evenodd;"
points="8922,10009
9277,10009
9277,10206
8922,10206
8922,10009
" /> 
<polyline style="fill-rule:evenodd;"
points="8922,8169
9277,8169
9277,8366
8922,8366
8922,8169
" /> 
<polyline style="fill-rule:evenodd;"
points="8922,8759
9277,8759
9277,8956
8922,8956
8922,8759
" /> 
<polyline style="fill-rule:evenodd;"
points="16077,7856
15722,7856
15722,7659
16077,7659
16077,7856
" /> 
<polyline style="fill-rule:evenodd;"
points="16077,7266
15722,7266
15722,7069
16077,7069
16077,7266
" /> 
<polyline style="fill-rule:evenodd;"
points="6756,4790
6756,4435
6953,4435
6953,4790
6756,4790
" /> 
<polyline style="fill-rule:evenodd;"
points="7346,4790
7346,4435
7543,4435
7543,4790
7346,4790
" /> 
<polyline style="fill-rule:evenodd;"
points="9710,6096
9710,5879
10301,5879
10301,6096
9710,6096
" /> 
<polyline style="fill-rule:evenodd;"
points="9710,6411
9710,6194
10301,6194
10301,6411
9710,6411
" /> 
<polyline style="fill-rule:evenodd;"
points="9710,6726
9710,6509
10301,6509
10301,6726
9710,6726
" /> 
<polyline style="fill-rule:evenodd;"
points="9710,7041
9710,6824
10301,6824
10301,7041
9710,7041
" /> 
<polyline style="fill-rule:evenodd;"
points="9710,7356
9710,7139
10301,7139
10301,7356
9710,7356
" /> 
<polyline style="fill-rule:evenodd;"
points="9710,7671
9710,7454
10301,7454
10301,7671
9710,7671
" /> 
<polyline style="fill-rule:evenodd;"
points="9710,7986
9710,7769
10301,7769
10301,7986
9710,7986
" /> 
<polyline style="fill-rule:evenodd;"
points="9710,8301
9710,8084
10301,8084
10301,8301
9710,8301
" /> 
<polyline style="fill-rule:evenodd;"
points="9710,8616
9710,8399
10301,8399
10301,8616
9710,8616
" /> 
<polyline style="fill-rule:evenodd;"
points="9710,8931
9710,8714
10301,8714
10301,8931
9710,8931
" /> 
<polyline style="fill-rule:evenodd;"
points="9710,9246
9710,9029
10301,9029
10301,9246
9710,9246
" /> 
<polyline style="fill-rule:evenodd;"
points="10783,10102
10566,10102
10566,9511
10783,9511
10783,10102
" /> 
<polyline style="fill-rule:evenodd;"
points="11098,10102
10881,10102
10881,9511
11098,9511
11098,10102
" /> 
<polyline style="fill-rule:evenodd;"
points="11413,10102
11196,10102
11196,9511
11413,9511
11413,10102
" /> 
<polyline style="fill-rule:evenodd;"
points="11728,10102
11511,10102
11511,9511
11728,9511
11728,10102
" /> 
<polyline style="fill-rule:evenodd;"
points="12043,10102
11826,10102
11826,9511
12043,9511
12043,10102
" /> 
<polyline style="fill-rule:evenodd;"
points="12358,10102
12141,10102
12141,9511
12358,9511
12358,10102
" /> 
<polyline style="fill-rule:evenodd;"
points="12673,10102
12456,10102
12456,9511
12673,9511
12673,10102
" /> 
<polyline style="fill-rule:evenodd;"
points="12988,10102
12771,10102
12771,9511
12988,9511
12988,10102
" /> 
<polyline style="fill-rule:evenodd;"
points="13303,10102
13086,10102
13086,9511
13303,9511
13303,10102
" /> 
<polyline style="fill-rule:evenodd;"
points="13618,10102
13401,10102
13401,9511
13618,9511
13618,10102
" /> 
<polyline style="fill-rule:evenodd;"
points="13933,10102
13716,10102
13716,9511
13933,9511
13933,10102
" /> 
<polyline style="fill-rule:evenodd;"
points="14198,9246
14198,9029
14789,9029
14789,9246
14198,9246
" /> 
<polyline style="fill-rule:evenodd;"
points="14198,8931
14198,8714
14789,8714
14789,8931
14198,8931
" /> 
<polyline style="fill-rule:evenodd;"
points="14198,8616
14198,8399
14789,8399
14789,8616
14198,8616
" /> 
<polyline style="fill-rule:evenodd;"
points="14198,8301
14198,8084
14789,8084
14789,8301
14198,8301
" /> 
<polyline style="fill-rule:evenodd;"
points="14198,7986
14198,7769
14789,7769
14789,7986
14198,7986
" /> 
<polyline style="fill-rule:evenodd;"
points="14198,7671
14198,7454
14789,7454
14789,7671
14198,7671
" /> 
<polyline style="fill-rule:evenodd;"
points="14198,7356
14198,7139
14789,7139
14789,7356
14198,7356
" /> 
<polyline style="fill-rule:evenodd;"
points="14198,7041
14198,6824
14789,6824
14789,7041
14198,7041
" /> 
<polyline style="fill-rule:evenodd;"
points="14198,6726
14198,6509
14789,6509
14789,6726
14198,6726
" /> 
<polyline style="fill-rule:evenodd;"
points="14198,6411
14198,6194
14789,6194
14789,6411
14198,6411
" /> 
<polyline style="fill-rule:evenodd;"
points="14198,6096
14198,5879
14789,5879
14789,6096
14198,6096
" /> 
<polyline style="fill-rule:evenodd;"
points="13933,5614
13716,5614
13716,5023
13933,5023
13933,5614
" /> 
<polyline style="fill-rule:evenodd;"
points="13618,5614
13401,5614
13401,5023
13618,5023
13618,5614
" /> 
<polyline style="fill-rule:evenodd;"
points="13303,5614
13086,5614
13086,5023
13303,5023
13303,5614
" /> 
<polyline style="fill-rule:evenodd;"
points="12988,5614
12771,5614
12771,5023
12988,5023
12988,5614
" /> 
<polyline style="fill-rule:evenodd;"
points="12673,5614
12456,5614
12456,5023
12673,5023
12673,5614
" /> 
<polyline style="fill-rule:evenodd;"
points="12358,5614
12141,5614
12141,5023
12358,5023
12358,5614
" /> 
<polyline style="fill-rule:evenodd;"
points="12043,5614
11826,5614
11826,5023
12043,5023
12043,5614
" /> 
<polyline style="fill-rule:evenodd;"
points="11728,5614
11511,5614
11511,5023
11728,5023
11728,5614
" /> 
<polyline style="fill-rule:evenodd;"
points="11413,5614
11196,5614
11196,5023
11413,5023
11413,5614
" /> 
<polyline style="fill-rule:evenodd;"
points="11098,5614
10881,5614
10881,5023
11098,5023
11098,5614
" /> 
<polyline style="fill-rule:evenodd;"
points="10783,5614
10566,5614
10566,5023
10783,5023
10783,5614
" /> 
<polyline style="fill-rule:evenodd;"
points="7496,5171
7751,5171
7751,5588
7496,5588
7496,5171
" /> 
<polyline style="fill-rule:evenodd;"
points="7122,5171
7377,5171
7377,5588
7122,5588
7122,5171
" /> 
<polyline style="fill-rule:evenodd;"
points="6748,5171
7003,5171
7003,5588
6748,5588
6748,5171
" /> 
<polyline style="fill-rule:evenodd;"
points="6748,6037
7003,6037
7003,6454
6748,6454
6748,6037
" /> 
<polyline style="fill-rule:evenodd;"
points="7496,6037
7751,6037
7751,6454
7496,6454
7496,6037
" /> 
<polyline style="fill-rule:evenodd;"
points="6738,9661
7486,9661
7486,10251
6738,10251
6738,9661
" /> 
<circle cx="8175.2" cy="8578.74" r="285.433" /> 
</g>
<g style="fill:#840000; fill-opacity:1.0; 
stroke:#840000; stroke-width:39.3701; stroke-opacity:1; 
stroke-linecap:round; stroke-linejoin:round;">
</g>
<g style="fill:#840000; fill-opacity:1.0; 
stroke:#840000; stroke-width:0; stroke-opacity:1; 
stroke-linecap:round; stroke-linejoin:round;">
<polyline style="fill-rule:evenodd;"
points="7909,9228
8440,9228
8440,9385
7909,9385
7909,9228
" /> 
<polyline style="fill-rule:evenodd;"
points="7909,8972
8440,8972
8440,9129
7909,9129
7909,8972
" /> 
<polyline style="fill-rule:evenodd;"
points="7909,9996
8440,9996
8440,10153
7909,10153
7909,9996
" /> 
<polyline style="fill-rule:evenodd;"
points="7909,9740
8440,9740
8440,9897
7909,9897
7909,9740
" /> 
<polyline style="fill-rule:evenodd;"
points="7909,9484
8440,9484
8440,9641
7909,9641
7909,9484
" /> 
<circle cx="8175.2" cy="10547.2" r="285.433" /> 
</g>
<g style="fill:#840000; fill-opacity:1.0; 
stroke:#840000; stroke-width:39.3701; stroke-opacity:1; 
stroke-linecap:round; stroke-linejoin:round;">
</g>
<g style="fill:#840000; fill-opacity:1.0; 
stroke:#840000; stroke-width:0; stroke-opacity:1; 
stroke-linecap:round; stroke-linejoin:round;">
<polyline style="fill-rule:evenodd;"
points="6738,8874
7486,8874
7486,9464
6738,9464
6738,8874
" /> 
</g>
<g style="fill:#840000; fill-opacity:1.0; 
stroke:#840000; stroke-width:472.441; stroke-opacity:1; 
stroke-linecap:round; stroke-linejoin:round;">
</g>
<g style="fill:#840000; fill-opacity:0.0; 
stroke:#840000; stroke-width:472.441; stroke-opacity:1; 
stroke-linecap:round; stroke-linejoin:round;">
<path d="M6974 8185
L7250 8185
" />
<path d="M7250 10940
L6974 10940
" />
</g>
<g style="fill:#840000; fill-opacity:0.0; 
stroke:#840000; stroke-width:0; stroke-opacity:1; 
stroke-linecap:round; stroke-linejoin:round;">
</g>
<g style="fill:#840000; fill-opacity:1.0; 
stroke:#840000; stroke-width:0; stroke-opacity:1; 
stroke-linecap:round; stroke-linejoin:round;">
<polyline style="fill-rule:evenodd;"
points="6738,10468
7486,10468
7486,10940
6738,10940
6738,10468
" /> 
<polyline style="fill-rule:evenodd;"
points="6738,8185
7486,8185
7486,8657
6738,8657
6738,8185
" /> 
<polyline style="fill-rule:evenodd;"
points="3177,6828
3177,6690
3354,6690
3354,6828
3177,6828
" /> 
<polyline style="fill-rule:evenodd;"
points="4141,6828
4141,6690
4318,6690
4318,6828
4141,6828
" /> 
<polyline style="fill-rule:evenodd;"
points="3177,6631
3177,6494
3354,6494
3354,6631
3177,6631
" /> 
<polyline style="fill-rule:evenodd;"
points="4141,6631
4141,6494
4318,6494
4318,6631
4141,6631
" /> 
<polyline style="fill-rule:evenodd;"
points="3177,6435
3177,6297
3354,6297
3354,6435
3177,6435
" /> 
<polyline style="fill-rule:evenodd;"
points="4141,6435
4141,6297
4318,6297
4318,6435
4141,6435
" /> 
<polyline style="fill-rule:evenodd;"
points="4141,7222
4141,7084
4318,7084
4318,7222
4141,7222
" /> 
<polyline style="fill-rule:evenodd;"
points="4141,7025
4141,6887
4318,6887
4318,7025
4141,7025
" /> 
<polyline style="fill-rule:evenodd;"
points="3816,7330
3679,7330
3679,7153
3816,7153
3816,7330
" /> 
<polyline style="fill-rule:evenodd;"
points="3177,7025
3177,6887
3354,6887
3354,7025
3177,7025
" /> 
<polyline style="fill-rule:evenodd;"
points="3177,7222
3177,7084
3354,7084
3354,7222
3177,7222
" /> 
<polyline style="fill-rule:evenodd;"
points="4013,7330
3875,7330
3875,7153
4013,7153
4013,7330
" /> 
<polyline style="fill-rule:evenodd;"
points="3620,7330
3482,7330
3482,7153
3620,7153
3620,7330
" /> 
<polyline style="fill-rule:evenodd;"
points="3816,6366
3679,6366
3679,6188
3816,6188
3816,6366
" /> 
<polyline style="fill-rule:evenodd;"
points="4013,6366
3875,6366
3875,6188
4013,6188
4013,6366
" /> 
<polyline style="fill-rule:evenodd;"
points="3620,6366
3482,6366
3482,6188
3620,6188
3620,6366
" /> 
</g>
<g style="fill:#000000; fill-opacity:1.0; 
stroke:#000000; stroke-width:0; stroke-opacity:1; 
stroke-linecap:round; stroke-linejoin:round;">
</g>
<g style="fill:#C2C200; fill-opacity:1.0; 
stroke:#C2C200; stroke-width:0; stroke-opacity:1; 
stroke-linecap:round; stroke-linejoin:round;">
</g>
<g style="fill:#C2C200; fill-opacity:1.0; 
stroke:#C2C200; stroke-width:59.0551; stroke-opacity:1; 
stroke-linecap:round; stroke-linejoin:round;">
</g>
<g style="fill:#C2C200; fill-opacity:0.0; 
stroke:#C2C200; stroke-width:59.0551; stroke-opacity:1; 
stroke-linecap:round; stroke-linejoin:round;">
<path d="M6500 12062
L6500 4062
" />
<path d="M15500 13062
L7500 13062
" />
<path d="M16500 4062
L16500 12062
" />
<path d="M7500 3062
L15500 3062
" />
<path d="M7500 3062.99 A1000 1000 0.0 0 0 6500 4062.99 " />
<path d="M6500 12063 A1000 1000 0.0 0 0 7500 13063 " />
<path d="M15500 13063 A1000 1000 0.0 0 0 16500 12063 " />
<path d="M16500 4062.99 A1000 1000 0.0 0 0 15500 3062.99 " />
</g> 
</svg>
