<?xml version="1.0" standalone="no"?>
 <!DOCTYPE svg PUBLIC "-//W3C//DTD SVG 1.1//EN" 
 "http://www.w3.org/Graphics/SVG/1.1/DTD/svg11.dtd"> 
<svg xmlns="http://www.w3.org/2000/svg" version="1.1" 
    width="27.94cm" height="21.59cm" viewBox="0 0 110000 85000 ">
<title>SVG Picture created as project-Dwgs.User.svg date 2021/03/12 21:56:28 </title>
  <desc>Picture generated by PCBNEW </desc>
<g style="fill:#000000; fill-opacity:1;stroke:#000000; stroke-opacity:1;
stroke-linecap:round; stroke-linejoin:round; "
 transform="translate(0 0) scale(1 1)">
</g>
<g style="fill:#000000; fill-opacity:0.0; 
stroke:#000000; stroke-width:-0.000393701; stroke-opacity:1; 
stroke-linecap:round; stroke-linejoin:round;">
</g>
<g style="fill:#000000; fill-opacity:0.0; 
stroke:#000000; stroke-width:39.3701; stroke-opacity:1; 
stroke-linecap:round; stroke-linejoin:round;">
</g>
<g style="fill:#000000; fill-opacity:0.0; 
stroke:#000000; stroke-width:59.0551; stroke-opacity:1; 
stroke-linecap:round; stroke-linejoin:round;">
<rect x="62755.9" y="67677.2" width="42519.7" height="12598.4" rx="0" />
</g>
<g style="fill:#000000; fill-opacity:0.0; 
stroke:#000000; stroke-width:39.3701; stroke-opacity:1; 
stroke-linecap:round; stroke-linejoin:round;">
</g>
<g style="fill:#000000; fill-opacity:0.0; 
stroke:#000000; stroke-width:59.0551; stroke-opacity:1; 
stroke-linecap:round; stroke-linejoin:round;">
<rect x="3937.01" y="3937.01" width="102126" height="77126" rx="0" />
</g>
<g style="fill:#000000; fill-opacity:0.0; 
stroke:#000000; stroke-width:39.3701; stroke-opacity:1; 
stroke-linecap:round; stroke-linejoin:round;">
</g>
<g style="fill:#000000; fill-opacity:0.0; 
stroke:#000000; stroke-width:59.0551; stroke-opacity:1; 
stroke-linecap:round; stroke-linejoin:round;">
<rect x="4724.41" y="4724.41" width="100551" height="75551.2" rx="0" />
</g>
<g style="fill:#000000; fill-opacity:0.0; 
stroke:#000000; stroke-width:39.3701; stroke-opacity:1; 
stroke-linecap:round; stroke-linejoin:round;">
</g>
<g style="fill:#000000; fill-opacity:0.0; 
stroke:#000000; stroke-width:59.0551; stroke-opacity:1; 
stroke-linecap:round; stroke-linejoin:round;">
<path d="M23622 4724
L23622 3937
" />
</g>
<g style="fill:#000000; fill-opacity:0.0; 
stroke:#000000; stroke-width:39.3701; stroke-opacity:1; 
stroke-linecap:round; stroke-linejoin:round;">
</g>
<g style="fill:#000000; fill-opacity:0.0; 
stroke:#000000; stroke-width:59.0551; stroke-opacity:1; 
stroke-linecap:round; stroke-linejoin:round;">
<path d="M43307 4724
L43307 3937
" />
</g>
<g style="fill:#000000; fill-opacity:0.0; 
stroke:#000000; stroke-width:39.3701; stroke-opacity:1; 
stroke-linecap:round; stroke-linejoin:round;">
</g>
<g style="fill:#000000; fill-opacity:0.0; 
stroke:#000000; stroke-width:59.0551; stroke-opacity:1; 
stroke-linecap:round; stroke-linejoin:round;">
<path d="M62992 4724
L62992 3937
" />
</g>
<g style="fill:#000000; fill-opacity:0.0; 
stroke:#000000; stroke-width:39.3701; stroke-opacity:1; 
stroke-linecap:round; stroke-linejoin:round;">
</g>
<g style="fill:#000000; fill-opacity:0.0; 
stroke:#000000; stroke-width:59.0551; stroke-opacity:1; 
stroke-linecap:round; stroke-linejoin:round;">
<path d="M82677 4724
L82677 3937
" />
</g>
<g style="fill:#000000; fill-opacity:0.0; 
stroke:#000000; stroke-width:39.3701; stroke-opacity:1; 
stroke-linecap:round; stroke-linejoin:round;">
</g>
<g style="fill:#000000; fill-opacity:0.0; 
stroke:#000000; stroke-width:59.0551; stroke-opacity:1; 
stroke-linecap:round; stroke-linejoin:round;">
<path d="M102362 4724
L102362 3937
" />
</g>
<g style="fill:#000000; fill-opacity:0.0; 
stroke:#000000; stroke-width:39.3701; stroke-opacity:1; 
stroke-linecap:round; stroke-linejoin:round;">
</g>
<g style="fill:#000000; fill-opacity:0.0; 
stroke:#000000; stroke-width:59.0551; stroke-opacity:1; 
stroke-linecap:round; stroke-linejoin:round;">
<path d="M14169 4562
L13877 4562
" />
<path d="M14023 4562
L14023 4050
L13974 4123
L13925 4172
L13877 4196
" />
</g>
<g style="fill:#000000; fill-opacity:0.0; 
stroke:#000000; stroke-width:39.3701; stroke-opacity:1; 
stroke-linecap:round; stroke-linejoin:round;">
</g>
<g style="fill:#000000; fill-opacity:0.0; 
stroke:#000000; stroke-width:59.0551; stroke-opacity:1; 
stroke-linecap:round; stroke-linejoin:round;">
<path d="M33562 4099
L33586 4074
L33635 4050
L33757 4050
L33805 4074
L33830 4099
L33854 4147
L33854 4196
L33830 4269
L33537 4562
L33854 4562
" />
</g>
<g style="fill:#000000; fill-opacity:0.0; 
stroke:#000000; stroke-width:39.3701; stroke-opacity:1; 
stroke-linecap:round; stroke-linejoin:round;">
</g>
<g style="fill:#000000; fill-opacity:0.0; 
stroke:#000000; stroke-width:59.0551; stroke-opacity:1; 
stroke-linecap:round; stroke-linejoin:round;">
<path d="M53222 4050
L53539 4050
L53368 4245
L53442 4245
L53490 4269
L53515 4294
L53539 4342
L53539 4464
L53515 4513
L53490 4537
L53442 4562
L53295 4562
L53247 4537
L53222 4513
" />
</g>
<g style="fill:#000000; fill-opacity:0.0; 
stroke:#000000; stroke-width:39.3701; stroke-opacity:1; 
stroke-linecap:round; stroke-linejoin:round;">
</g>
<g style="fill:#000000; fill-opacity:0.0; 
stroke:#000000; stroke-width:59.0551; stroke-opacity:1; 
stroke-linecap:round; stroke-linejoin:round;">
<path d="M73175 4221
L73175 4562
" />
<path d="M73053 4026
L72932 4391
L73248 4391
" />
</g>
<g style="fill:#000000; fill-opacity:0.0; 
stroke:#000000; stroke-width:39.3701; stroke-opacity:1; 
stroke-linecap:round; stroke-linejoin:round;">
</g>
<g style="fill:#000000; fill-opacity:0.0; 
stroke:#000000; stroke-width:59.0551; stroke-opacity:1; 
stroke-linecap:round; stroke-linejoin:round;">
<path d="M92885 4050
L92641 4050
L92617 4294
L92641 4269
L92690 4245
L92812 4245
L92860 4269
L92885 4294
L92909 4342
L92909 4464
L92885 4513
L92860 4537
L92812 4562
L92690 4562
L92641 4537
L92617 4513
" />
</g>
<g style="fill:#000000; fill-opacity:0.0; 
stroke:#000000; stroke-width:39.3701; stroke-opacity:1; 
stroke-linecap:round; stroke-linejoin:round;">
</g>
<g style="fill:#000000; fill-opacity:0.0; 
stroke:#000000; stroke-width:59.0551; stroke-opacity:1; 
stroke-linecap:round; stroke-linejoin:round;">
<path d="M23622 80275
L23622 81062
" />
</g>
<g style="fill:#000000; fill-opacity:0.0; 
stroke:#000000; stroke-width:39.3701; stroke-opacity:1; 
stroke-linecap:round; stroke-linejoin:round;">
</g>
<g style="fill:#000000; fill-opacity:0.0; 
stroke:#000000; stroke-width:59.0551; stroke-opacity:1; 
stroke-linecap:round; stroke-linejoin:round;">
<path d="M43307 80275
L43307 81062
" />
</g>
<g style="fill:#000000; fill-opacity:0.0; 
stroke:#000000; stroke-width:39.3701; stroke-opacity:1; 
stroke-linecap:round; stroke-linejoin:round;">
</g>
<g style="fill:#000000; fill-opacity:0.0; 
stroke:#000000; stroke-width:59.0551; stroke-opacity:1; 
stroke-linecap:round; stroke-linejoin:round;">
<path d="M62992 80275
L62992 81062
" />
</g>
<g style="fill:#000000; fill-opacity:0.0; 
stroke:#000000; stroke-width:39.3701; stroke-opacity:1; 
stroke-linecap:round; stroke-linejoin:round;">
</g>
<g style="fill:#000000; fill-opacity:0.0; 
stroke:#000000; stroke-width:59.0551; stroke-opacity:1; 
stroke-linecap:round; stroke-linejoin:round;">
<path d="M82677 80275
L82677 81062
" />
</g>
<g style="fill:#000000; fill-opacity:0.0; 
stroke:#000000; stroke-width:39.3701; stroke-opacity:1; 
stroke-linecap:round; stroke-linejoin:round;">
</g>
<g style="fill:#000000; fill-opacity:0.0; 
stroke:#000000; stroke-width:59.0551; stroke-opacity:1; 
stroke-linecap:round; stroke-linejoin:round;">
<path d="M102362 80275
L102362 81062
" />
</g>
<g style="fill:#000000; fill-opacity:0.0; 
stroke:#000000; stroke-width:39.3701; stroke-opacity:1; 
stroke-linecap:round; stroke-linejoin:round;">
</g>
<g style="fill:#000000; fill-opacity:0.0; 
stroke:#000000; stroke-width:59.0551; stroke-opacity:1; 
stroke-linecap:round; stroke-linejoin:round;">
<path d="M14169 80900
L13877 80900
" />
<path d="M14023 80900
L14023 80389
L13974 80462
L13925 80510
L13877 80535
" />
</g>
<g style="fill:#000000; fill-opacity:0.0; 
stroke:#000000; stroke-width:39.3701; stroke-opacity:1; 
stroke-linecap:round; stroke-linejoin:round;">
</g>
<g style="fill:#000000; fill-opacity:0.0; 
stroke:#000000; stroke-width:59.0551; stroke-opacity:1; 
stroke-linecap:round; stroke-linejoin:round;">
<path d="M33562 80437
L33586 80413
L33635 80389
L33757 80389
L33805 80413
L33830 80437
L33854 80486
L33854 80535
L33830 80608
L33537 80900
L33854 80900
" />
</g>
<g style="fill:#000000; fill-opacity:0.0; 
stroke:#000000; stroke-width:39.3701; stroke-opacity:1; 
stroke-linecap:round; stroke-linejoin:round;">
</g>
<g style="fill:#000000; fill-opacity:0.0; 
stroke:#000000; stroke-width:59.0551; stroke-opacity:1; 
stroke-linecap:round; stroke-linejoin:round;">
<path d="M53222 80389
L53539 80389
L53368 80583
L53442 80583
L53490 80608
L53515 80632
L53539 80681
L53539 80803
L53515 80852
L53490 80876
L53442 80900
L53295 80900
L53247 80876
L53222 80852
" />
</g>
<g style="fill:#000000; fill-opacity:0.0; 
stroke:#000000; stroke-width:39.3701; stroke-opacity:1; 
stroke-linecap:round; stroke-linejoin:round;">
</g>
<g style="fill:#000000; fill-opacity:0.0; 
stroke:#000000; stroke-width:59.0551; stroke-opacity:1; 
stroke-linecap:round; stroke-linejoin:round;">
<path d="M73175 80559
L73175 80900
" />
<path d="M73053 80364
L72932 80730
L73248 80730
" />
</g>
<g style="fill:#000000; fill-opacity:0.0; 
stroke:#000000; stroke-width:39.3701; stroke-opacity:1; 
stroke-linecap:round; stroke-linejoin:round;">
</g>
<g style="fill:#000000; fill-opacity:0.0; 
stroke:#000000; stroke-width:59.0551; stroke-opacity:1; 
stroke-linecap:round; stroke-linejoin:round;">
<path d="M92885 80389
L92641 80389
L92617 80632
L92641 80608
L92690 80583
L92812 80583
L92860 80608
L92885 80632
L92909 80681
L92909 80803
L92885 80852
L92860 80876
L92812 80900
L92690 80900
L92641 80876
L92617 80852
" />
</g>
<g style="fill:#000000; fill-opacity:0.0; 
stroke:#000000; stroke-width:39.3701; stroke-opacity:1; 
stroke-linecap:round; stroke-linejoin:round;">
</g>
<g style="fill:#000000; fill-opacity:0.0; 
stroke:#000000; stroke-width:59.0551; stroke-opacity:1; 
stroke-linecap:round; stroke-linejoin:round;">
<path d="M3937 23622
L4724 23622
" />
</g>
<g style="fill:#000000; fill-opacity:0.0; 
stroke:#000000; stroke-width:39.3701; stroke-opacity:1; 
stroke-linecap:round; stroke-linejoin:round;">
</g>
<g style="fill:#000000; fill-opacity:0.0; 
stroke:#000000; stroke-width:59.0551; stroke-opacity:1; 
stroke-linecap:round; stroke-linejoin:round;">
<path d="M3937 43307
L4724 43307
" />
</g>
<g style="fill:#000000; fill-opacity:0.0; 
stroke:#000000; stroke-width:39.3701; stroke-opacity:1; 
stroke-linecap:round; stroke-linejoin:round;">
</g>
<g style="fill:#000000; fill-opacity:0.0; 
stroke:#000000; stroke-width:59.0551; stroke-opacity:1; 
stroke-linecap:round; stroke-linejoin:round;">
<path d="M3937 62992
L4724 62992
" />
</g>
<g style="fill:#000000; fill-opacity:0.0; 
stroke:#000000; stroke-width:39.3701; stroke-opacity:1; 
stroke-linecap:round; stroke-linejoin:round;">
</g>
<g style="fill:#000000; fill-opacity:0.0; 
stroke:#000000; stroke-width:59.0551; stroke-opacity:1; 
stroke-linecap:round; stroke-linejoin:round;">
<path d="M4208 13864
L4452 13864
" />
<path d="M4160 14011
L4330 13499
L4501 14011
" />
</g>
<g style="fill:#000000; fill-opacity:0.0; 
stroke:#000000; stroke-width:39.3701; stroke-opacity:1; 
stroke-linecap:round; stroke-linejoin:round;">
</g>
<g style="fill:#000000; fill-opacity:0.0; 
stroke:#000000; stroke-width:59.0551; stroke-opacity:1; 
stroke-linecap:round; stroke-linejoin:round;">
<path d="M4367 33428
L4440 33452
L4464 33476
L4489 33525
L4489 33598
L4464 33647
L4440 33671
L4391 33696
L4196 33696
L4196 33184
L4367 33184
L4416 33208
L4440 33233
L4464 33281
L4464 33330
L4440 33379
L4416 33403
L4367 33428
L4196 33428
" />
</g>
<g style="fill:#000000; fill-opacity:0.0; 
stroke:#000000; stroke-width:39.3701; stroke-opacity:1; 
stroke-linecap:round; stroke-linejoin:round;">
</g>
<g style="fill:#000000; fill-opacity:0.0; 
stroke:#000000; stroke-width:59.0551; stroke-opacity:1; 
stroke-linecap:round; stroke-linejoin:round;">
<path d="M4489 53332
L4464 53356
L4391 53381
L4342 53381
L4269 53356
L4221 53308
L4196 53259
L4172 53161
L4172 53088
L4196 52991
L4221 52942
L4269 52893
L4342 52869
L4391 52869
L4464 52893
L4489 52918
" />
</g>
<g style="fill:#000000; fill-opacity:0.0; 
stroke:#000000; stroke-width:39.3701; stroke-opacity:1; 
stroke-linecap:round; stroke-linejoin:round;">
</g>
<g style="fill:#000000; fill-opacity:0.0; 
stroke:#000000; stroke-width:59.0551; stroke-opacity:1; 
stroke-linecap:round; stroke-linejoin:round;">
<path d="M4196 73066
L4196 72554
L4318 72554
L4391 72578
L4440 72627
L4464 72676
L4489 72773
L4489 72846
L4464 72944
L4440 72993
L4391 73041
L4318 73066
L4196 73066
" />
</g>
<g style="fill:#000000; fill-opacity:0.0; 
stroke:#000000; stroke-width:39.3701; stroke-opacity:1; 
stroke-linecap:round; stroke-linejoin:round;">
</g>
<g style="fill:#000000; fill-opacity:0.0; 
stroke:#000000; stroke-width:59.0551; stroke-opacity:1; 
stroke-linecap:round; stroke-linejoin:round;">
<path d="M106062 23622
L105275 23622
" />
</g>
<g style="fill:#000000; fill-opacity:0.0; 
stroke:#000000; stroke-width:39.3701; stroke-opacity:1; 
stroke-linecap:round; stroke-linejoin:round;">
</g>
<g style="fill:#000000; fill-opacity:0.0; 
stroke:#000000; stroke-width:59.0551; stroke-opacity:1; 
stroke-linecap:round; stroke-linejoin:round;">
<path d="M106062 43307
L105275 43307
" />
</g>
<g style="fill:#000000; fill-opacity:0.0; 
stroke:#000000; stroke-width:39.3701; stroke-opacity:1; 
stroke-linecap:round; stroke-linejoin:round;">
</g>
<g style="fill:#000000; fill-opacity:0.0; 
stroke:#000000; stroke-width:59.0551; stroke-opacity:1; 
stroke-linecap:round; stroke-linejoin:round;">
<path d="M106062 62992
L105275 62992
" />
</g>
<g style="fill:#000000; fill-opacity:0.0; 
stroke:#000000; stroke-width:39.3701; stroke-opacity:1; 
stroke-linecap:round; stroke-linejoin:round;">
</g>
<g style="fill:#000000; fill-opacity:0.0; 
stroke:#000000; stroke-width:59.0551; stroke-opacity:1; 
stroke-linecap:round; stroke-linejoin:round;">
<path d="M105547 13864
L105791 13864
" />
<path d="M105498 14011
L105669 13499
L105839 14011
" />
</g>
<g style="fill:#000000; fill-opacity:0.0; 
stroke:#000000; stroke-width:39.3701; stroke-opacity:1; 
stroke-linecap:round; stroke-linejoin:round;">
</g>
<g style="fill:#000000; fill-opacity:0.0; 
stroke:#000000; stroke-width:59.0551; stroke-opacity:1; 
stroke-linecap:round; stroke-linejoin:round;">
<path d="M105705 33428
L105778 33452
L105803 33476
L105827 33525
L105827 33598
L105803 33647
L105778 33671
L105730 33696
L105535 33696
L105535 33184
L105705 33184
L105754 33208
L105778 33233
L105803 33281
L105803 33330
L105778 33379
L105754 33403
L105705 33428
L105535 33428
" />
</g>
<g style="fill:#000000; fill-opacity:0.0; 
stroke:#000000; stroke-width:39.3701; stroke-opacity:1; 
stroke-linecap:round; stroke-linejoin:round;">
</g>
<g style="fill:#000000; fill-opacity:0.0; 
stroke:#000000; stroke-width:59.0551; stroke-opacity:1; 
stroke-linecap:round; stroke-linejoin:round;">
<path d="M105827 53332
L105803 53356
L105730 53381
L105681 53381
L105608 53356
L105559 53308
L105535 53259
L105510 53161
L105510 53088
L105535 52991
L105559 52942
L105608 52893
L105681 52869
L105730 52869
L105803 52893
L105827 52918
" />
</g>
<g style="fill:#000000; fill-opacity:0.0; 
stroke:#000000; stroke-width:39.3701; stroke-opacity:1; 
stroke-linecap:round; stroke-linejoin:round;">
</g>
<g style="fill:#000000; fill-opacity:0.0; 
stroke:#000000; stroke-width:59.0551; stroke-opacity:1; 
stroke-linecap:round; stroke-linejoin:round;">
<path d="M105535 73066
L105535 72554
L105657 72554
L105730 72578
L105778 72627
L105803 72676
L105827 72773
L105827 72846
L105803 72944
L105778 72993
L105730 73041
L105657 73066
L105535 73066
" />
</g>
<g style="fill:#000000; fill-opacity:0.0; 
stroke:#000000; stroke-width:39.3701; stroke-opacity:1; 
stroke-linecap:round; stroke-linejoin:round;">
</g>
<g style="fill:#000000; fill-opacity:0.0; 
stroke:#000000; stroke-width:59.0551; stroke-opacity:1; 
stroke-linecap:round; stroke-linejoin:round;">
<path d="M71951 78613
L71951 78023
L72092 78023
L72176 78051
L72232 78107
L72260 78163
L72289 78276
L72289 78360
L72260 78473
L72232 78529
L72176 78585
L72092 78613
L71951 78613
" />
<path d="M72795 78613
L72795 78304
L72767 78248
L72710 78219
L72598 78219
L72542 78248
" />
<path d="M72795 78585
L72739 78613
L72598 78613
L72542 78585
L72514 78529
L72514 78473
L72542 78416
L72598 78388
L72739 78388
L72795 78360
" />
<path d="M72992 78219
L73217 78219
" />
<path d="M73076 78023
L73076 78529
L73104 78585
L73160 78613
L73217 78613
" />
<path d="M73638 78585
L73582 78613
L73470 78613
L73413 78585
L73385 78529
L73385 78304
L73413 78248
L73470 78219
L73582 78219
L73638 78248
L73667 78304
L73667 78360
L73385 78416
" />
<path d="M73920 78557
L73948 78585
L73920 78613
L73892 78585
L73920 78557
L73920 78613
" />
<path d="M73920 78248
L73948 78276
L73920 78304
L73892 78276
L73920 78248
L73920 78304
" />
<path d="M74623 78079
L74651 78051
L74707 78023
L74848 78023
L74904 78051
L74932 78079
L74960 78135
L74960 78191
L74932 78276
L74595 78613
L74960 78613
" />
<path d="M75326 78023
L75382 78023
L75438 78051
L75466 78079
L75494 78135
L75523 78248
L75523 78388
L75494 78501
L75466 78557
L75438 78585
L75382 78613
L75326 78613
L75269 78585
L75241 78557
L75213 78501
L75185 78388
L75185 78248
L75213 78135
L75241 78079
L75269 78051
L75326 78023
" />
<path d="M76085 78613
L75748 78613
" />
<path d="M75916 78613
L75916 78023
L75860 78107
L75804 78163
L75748 78191
" />
<path d="M76422 78276
L76366 78248
L76338 78219
L76310 78163
L76310 78135
L76338 78079
L76366 78051
L76422 78023
L76535 78023
L76591 78051
L76619 78079
L76647 78135
L76647 78163
L76619 78219
L76591 78248
L76535 78276
L76422 78276
L76366 78304
L76338 78332
L76310 78388
L76310 78501
L76338 78557
L76366 78585
L76422 78613
L76535 78613
L76591 78585
L76619 78557
L76647 78501
L76647 78388
L76619 78332
L76591 78304
L76535 78276
" />
<path d="M76901 78388
L77350 78388
" />
<path d="M77744 78023
L77800 78023
L77857 78051
L77885 78079
L77913 78135
L77941 78248
L77941 78388
L77913 78501
L77885 78557
L77857 78585
L77800 78613
L77744 78613
L77688 78585
L77660 78557
L77632 78501
L77604 78388
L77604 78248
L77632 78135
L77660 78079
L77688 78051
L77744 78023
" />
<path d="M78278 78276
L78222 78248
L78194 78219
L78166 78163
L78166 78135
L78194 78079
L78222 78051
L78278 78023
L78391 78023
L78447 78051
L78475 78079
L78503 78135
L78503 78163
L78475 78219
L78447 78248
L78391 78276
L78278 78276
L78222 78304
L78194 78332
L78166 78388
L78166 78501
L78194 78557
L78222 78585
L78278 78613
L78391 78613
L78447 78585
L78475 78557
L78503 78501
L78503 78388
L78475 78332
L78447 78304
L78391 78276
" />
<path d="M78757 78388
L79206 78388
" />
<path d="M79797 78613
L79460 78613
" />
<path d="M79628 78613
L79628 78023
L79572 78107
L79516 78163
L79460 78191
" />
<path d="M80163 78023
L80219 78023
L80275 78051
L80303 78079
L80331 78135
L80359 78248
L80359 78388
L80331 78501
L80303 78557
L80275 78585
L80219 78613
L80163 78613
L80106 78585
L80078 78557
L80050 78501
L80022 78388
L80022 78248
L80050 78135
L80078 78079
L80106 78051
L80163 78023
" />
</g>
<g style="fill:#000000; fill-opacity:0.0; 
stroke:#000000; stroke-width:39.3701; stroke-opacity:1; 
stroke-linecap:round; stroke-linejoin:round;">
</g>
<g style="fill:#000000; fill-opacity:0.0; 
stroke:#000000; stroke-width:59.0551; stroke-opacity:1; 
stroke-linecap:round; stroke-linejoin:round;">
<path d="M62755 78897
L105275 78897
" />
</g>
<g style="fill:#000000; fill-opacity:0.0; 
stroke:#000000; stroke-width:39.3701; stroke-opacity:1; 
stroke-linecap:round; stroke-linejoin:round;">
</g>
<g style="fill:#000000; fill-opacity:0.0; 
stroke:#000000; stroke-width:59.0551; stroke-opacity:1; 
stroke-linecap:round; stroke-linejoin:round;">
<path d="M63290 79715
L63290 79125
" />
<path d="M63627 79715
L63374 79378
" />
<path d="M63627 79125
L63290 79462
" />
<path d="M63880 79715
L63880 79322
" />
<path d="M63880 79125
L63852 79153
L63880 79181
L63908 79153
L63880 79125
L63880 79181
" />
<path d="M64499 79659
L64471 79687
L64386 79715
L64330 79715
L64246 79687
L64190 79631
L64161 79575
L64133 79462
L64133 79378
L64161 79266
L64190 79209
L64246 79153
L64330 79125
L64386 79125
L64471 79153
L64499 79181
" />
<path d="M65005 79715
L65005 79406
L64977 79350
L64921 79322
L64808 79322
L64752 79350
" />
<path d="M65005 79687
L64949 79715
L64808 79715
L64752 79687
L64724 79631
L64724 79575
L64752 79519
L64808 79491
L64949 79491
L65005 79462
" />
<path d="M65539 79715
L65539 79125
" />
<path d="M65539 79687
L65483 79715
L65371 79715
L65314 79687
L65286 79659
L65258 79603
L65258 79434
L65286 79378
L65314 79350
L65371 79322
L65483 79322
L65539 79350
" />
<path d="M66271 79406
L66467 79406
" />
<path d="M66552 79715
L66271 79715
L66271 79125
L66552 79125
" />
<path d="M66805 79659
L66833 79687
L66805 79715
L66777 79687
L66805 79659
L66805 79715
" />
<path d="M67086 79715
L67086 79125
L67227 79125
L67311 79153
L67367 79209
L67395 79266
L67424 79378
L67424 79462
L67395 79575
L67367 79631
L67311 79687
L67227 79715
L67086 79715
" />
<path d="M67677 79659
L67705 79687
L67677 79715
L67649 79687
L67677 79659
L67677 79715
" />
<path d="M67930 79547
L68211 79547
" />
<path d="M67874 79715
L68070 79125
L68267 79715
" />
<path d="M68464 79659
L68492 79687
L68464 79715
L68436 79687
L68464 79659
L68464 79715
" />
<path d="M69645 79715
L69645 79125
" />
<path d="M69701 79491
L69870 79715
" />
<path d="M69870 79322
L69645 79547
" />
<path d="M70123 79715
L70123 79322
" />
<path d="M70123 79125
L70095 79153
L70123 79181
L70151 79153
L70123 79125
L70123 79181
" />
<path d="M70658 79687
L70601 79715
L70489 79715
L70433 79687
L70404 79659
L70376 79603
L70376 79434
L70404 79378
L70433 79350
L70489 79322
L70601 79322
L70658 79350
" />
<path d="M71164 79715
L71164 79406
L71136 79350
L71079 79322
L70967 79322
L70911 79350
" />
<path d="M71164 79687
L71107 79715
L70967 79715
L70911 79687
L70883 79631
L70883 79575
L70911 79519
L70967 79491
L71107 79491
L71164 79462
" />
<path d="M71698 79715
L71698 79125
" />
<path d="M71698 79687
L71642 79715
L71529 79715
L71473 79687
L71445 79659
L71417 79603
L71417 79434
L71445 79378
L71473 79350
L71529 79322
L71642 79322
L71698 79350
" />
<path d="M72682 79322
L72682 79715
" />
<path d="M72542 79097
L72401 79519
L72767 79519
" />
<path d="M72992 79659
L73020 79687
L72992 79715
L72964 79687
L72992 79659
L72992 79715
" />
<path d="M73385 79125
L73442 79125
L73498 79153
L73526 79181
L73554 79237
L73582 79350
L73582 79491
L73554 79603
L73526 79659
L73498 79687
L73442 79715
L73385 79715
L73329 79687
L73301 79659
L73273 79603
L73245 79491
L73245 79350
L73273 79237
L73301 79181
L73329 79153
L73385 79125
" />
<path d="M73835 79659
L73863 79687
L73835 79715
L73807 79687
L73835 79659
L73835 79715
" />
<path d="M74088 79181
L74116 79153
L74173 79125
L74313 79125
L74370 79153
L74398 79181
L74426 79237
L74426 79294
L74398 79378
L74060 79715
L74426 79715
" />
<path d="M74679 79491
L75129 79491
" />
<path d="M74904 79715
L74904 79266
" />
<path d="M75663 79715
L75663 79125
" />
<path d="M75663 79687
L75607 79715
L75494 79715
L75438 79687
L75410 79659
L75382 79603
L75382 79434
L75410 79378
L75438 79350
L75494 79322
L75607 79322
L75663 79350
" />
<path d="M75860 79322
L76085 79322
" />
<path d="M75944 79715
L75944 79209
L75973 79153
L76029 79125
L76085 79125
" />
<path d="M76254 79687
L76310 79715
L76422 79715
L76479 79687
L76507 79631
L76507 79603
L76479 79547
L76422 79519
L76338 79519
L76282 79491
L76254 79434
L76254 79406
L76282 79350
L76338 79322
L76422 79322
L76479 79350
" />
<path d="M77013 79322
L77013 79800
L76985 79856
L76957 79884
L76901 79912
L76816 79912
L76760 79884
" />
<path d="M77013 79687
L76957 79715
L76844 79715
L76788 79687
L76760 79659
L76732 79603
L76732 79434
L76760 79378
L76788 79350
L76844 79322
L76957 79322
L77013 79350
" />
<path d="M77604 79715
L77266 79715
" />
<path d="M77435 79715
L77435 79125
L77379 79209
L77322 79266
L77266 79294
" />
<path d="M77857 79491
L78307 79491
" />
<path d="M78560 79687
L78616 79715
L78728 79715
L78785 79687
L78813 79631
L78813 79603
L78785 79547
L78728 79519
L78644 79519
L78588 79491
L78560 79434
L78560 79406
L78588 79350
L78644 79322
L78728 79322
L78785 79350
" />
<path d="M78982 79322
L79206 79322
" />
<path d="M79066 79125
L79066 79631
L79094 79687
L79150 79715
L79206 79715
" />
<path d="M79656 79715
L79656 79406
L79628 79350
L79572 79322
L79460 79322
L79403 79350
" />
<path d="M79656 79687
L79600 79715
L79460 79715
L79403 79687
L79375 79631
L79375 79575
L79403 79519
L79460 79491
L79600 79491
L79656 79462
" />
<path d="M79938 79715
L79938 79125
" />
<path d="M79938 79350
L79994 79322
L80106 79322
L80163 79350
L80191 79378
L80219 79434
L80219 79603
L80191 79659
L80163 79687
L80106 79715
L79994 79715
L79938 79687
" />
<path d="M80556 79715
L80500 79687
L80472 79631
L80472 79125
" />
<path d="M81006 79687
L80950 79715
L80838 79715
L80781 79687
L80753 79631
L80753 79406
L80781 79350
L80838 79322
L80950 79322
L81006 79350
L81034 79406
L81034 79462
L80753 79519
" />
</g>
<g style="fill:#000000; fill-opacity:0.0; 
stroke:#000000; stroke-width:39.3701; stroke-opacity:1; 
stroke-linecap:round; stroke-linejoin:round;">
</g>
<g style="fill:#000000; fill-opacity:0.0; 
stroke:#000000; stroke-width:59.0551; stroke-opacity:1; 
stroke-linecap:round; stroke-linejoin:round;">
<path d="M62755 77716
L105275 77716
" />
</g>
<g style="fill:#000000; fill-opacity:0.0; 
stroke:#000000; stroke-width:39.3701; stroke-opacity:1; 
stroke-linecap:round; stroke-linejoin:round;">
</g>
<g style="fill:#000000; fill-opacity:0.0; 
stroke:#000000; stroke-width:118.11; stroke-opacity:1; 
stroke-linecap:round; stroke-linejoin:round;">
<path d="M97092 78613
L96895 78332
" />
<path d="M96754 78613
L96754 78023
L96979 78023
L97035 78051
L97064 78079
L97092 78135
L97092 78219
L97064 78276
L97035 78304
L96979 78332
L96754 78332
" />
<path d="M97570 78585
L97514 78613
L97401 78613
L97345 78585
L97317 78529
L97317 78304
L97345 78248
L97401 78219
L97514 78219
L97570 78248
L97598 78304
L97598 78360
L97317 78416
" />
<path d="M97795 78219
L97935 78613
L98076 78219
" />
<path d="M98301 78557
L98329 78585
L98301 78613
L98273 78585
L98301 78557
L98301 78613
" />
<path d="M98301 78248
L98329 78276
L98301 78304
L98273 78276
L98301 78248
L98301 78304
" />
<path d="M99145 78023
L99201 78023
L99257 78051
L99285 78079
L99313 78135
L99341 78248
L99341 78388
L99313 78501
L99285 78557
L99257 78585
L99201 78613
L99145 78613
L99088 78585
L99060 78557
L99032 78501
L99004 78388
L99004 78248
L99032 78135
L99060 78079
L99088 78051
L99145 78023
" />
<path d="M99595 78557
L99623 78585
L99595 78613
L99566 78585
L99595 78557
L99595 78613
" />
<path d="M99988 78023
L100044 78023
L100101 78051
L100129 78079
L100157 78135
L100185 78248
L100185 78388
L100157 78501
L100129 78557
L100101 78585
L100044 78613
L99988 78613
L99932 78585
L99904 78557
L99876 78501
L99848 78388
L99848 78248
L99876 78135
L99904 78079
L99932 78051
L99988 78023
" />
</g>
<g style="fill:#000000; fill-opacity:0.0; 
stroke:#000000; stroke-width:39.3701; stroke-opacity:1; 
stroke-linecap:round; stroke-linejoin:round;">
</g>
<g style="fill:#000000; fill-opacity:0.0; 
stroke:#000000; stroke-width:59.0551; stroke-opacity:1; 
stroke-linecap:round; stroke-linejoin:round;">
<path d="M63262 78585
L63346 78613
L63487 78613
L63543 78585
L63571 78557
L63599 78501
L63599 78444
L63571 78388
L63543 78360
L63487 78332
L63374 78304
L63318 78276
L63290 78248
L63262 78191
L63262 78135
L63290 78079
L63318 78051
L63374 78023
L63515 78023
L63599 78051
" />
<path d="M63852 78613
L63852 78219
" />
<path d="M63852 78023
L63824 78051
L63852 78079
L63880 78051
L63852 78023
L63852 78079
" />
<path d="M64077 78219
L64386 78219
L64077 78613
L64386 78613
" />
<path d="M64836 78585
L64780 78613
L64668 78613
L64611 78585
L64583 78529
L64583 78304
L64611 78248
L64668 78219
L64780 78219
L64836 78248
L64865 78304
L64865 78360
L64583 78416
" />
<path d="M65118 78557
L65146 78585
L65118 78613
L65089 78585
L65118 78557
L65118 78613
" />
<path d="M65118 78248
L65146 78276
L65118 78304
L65089 78276
L65118 78248
L65118 78304
" />
<path d="M65821 78444
L66102 78444
" />
<path d="M65764 78613
L65961 78023
L66158 78613
" />
</g>
<g style="fill:#000000; fill-opacity:0.0; 
stroke:#000000; stroke-width:39.3701; stroke-opacity:1; 
stroke-linecap:round; stroke-linejoin:round;">
</g>
<g style="fill:#000000; fill-opacity:0.0; 
stroke:#000000; stroke-width:59.0551; stroke-opacity:1; 
stroke-linecap:round; stroke-linejoin:round;">
<path d="M96754 79715
L96754 79125
" />
<path d="M97289 79715
L97289 79125
" />
<path d="M97289 79687
L97232 79715
L97120 79715
L97064 79687
L97035 79659
L97007 79603
L97007 79434
L97035 79378
L97064 79350
L97120 79322
L97232 79322
L97289 79350
" />
<path d="M97570 79659
L97598 79687
L97570 79715
L97542 79687
L97570 79659
L97570 79715
" />
<path d="M97570 79350
L97598 79378
L97570 79406
L97542 79378
L97570 79350
L97570 79406
" />
<path d="M98610 79715
L98273 79715
" />
<path d="M98442 79715
L98442 79125
L98385 79209
L98329 79266
L98273 79294
" />
<path d="M99285 79097
L98779 79856
" />
<path d="M99791 79715
L99454 79715
" />
<path d="M99623 79715
L99623 79125
L99566 79209
L99510 79266
L99454 79294
" />
</g>
<g style="fill:#000000; fill-opacity:0.0; 
stroke:#000000; stroke-width:39.3701; stroke-opacity:1; 
stroke-linecap:round; stroke-linejoin:round;">
</g>
<g style="fill:#000000; fill-opacity:0.0; 
stroke:#000000; stroke-width:59.0551; stroke-opacity:1; 
stroke-linecap:round; stroke-linejoin:round;">
<path d="M62755 76141
L105275 76141
" />
</g>
<g style="fill:#000000; fill-opacity:0.0; 
stroke:#000000; stroke-width:39.3701; stroke-opacity:1; 
stroke-linecap:round; stroke-linejoin:round;">
</g>
<g style="fill:#000000; fill-opacity:0.0; 
stroke:#000000; stroke-width:157.48; stroke-opacity:1; 
stroke-linecap:round; stroke-linejoin:round;">
<path d="M63327 76419
L63777 76419
" />
<path d="M63454 77206
L63552 76419
" />
<path d="M63941 77206
L64007 76681
" />
<path d="M64040 76419
L63997 76456
L64030 76494
L64072 76456
L64040 76419
L64030 76494
" />
<path d="M64269 76681
L64569 76681
" />
<path d="M64415 76419
L64330 77094
L64358 77169
L64429 77206
L64504 77206
" />
<path d="M64879 77206
L64808 77169
L64780 77094
L64865 76419
" />
<path d="M65483 77169
L65404 77206
L65254 77206
L65183 77169
L65155 77094
L65193 76794
L65239 76719
L65319 76681
L65469 76681
L65539 76719
L65568 76794
L65558 76869
L65174 76944
" />
<path d="M65863 77131
L65896 77169
L65853 77206
L65821 77169
L65863 77131
L65853 77206
" />
<path d="M65914 76719
L65947 76756
L65905 76794
L65872 76756
L65914 76719
L65905 76794
" />
<path d="M67142 76794
L67250 76831
L67283 76869
L67311 76944
L67297 77056
L67250 77131
L67208 77169
L67128 77206
L66828 77206
L66927 76419
L67189 76419
L67260 76456
L67292 76494
L67320 76569
L67311 76644
L67264 76719
L67222 76756
L67142 76794
L66880 76794
" />
<path d="M67920 77169
L67841 77206
L67691 77206
L67620 77169
L67592 77094
L67630 76794
L67677 76719
L67756 76681
L67906 76681
L67977 76719
L68005 76794
L67995 76869
L67611 76944
" />
<path d="M68595 77169
L68516 77206
L68366 77206
L68295 77169
L68267 77094
L68305 76794
L68352 76719
L68431 76681
L68581 76681
L68652 76719
L68680 76794
L68670 76869
L68286 76944
" />
<path d="M68919 76681
L69219 76681
" />
<path d="M69064 76419
L68980 77094
L69008 77169
L69078 77206
L69153 77206
" />
<path d="M69481 76681
L69397 77356
L69350 77431
L69270 77469
L69233 77469
" />
<path d="M69514 76419
L69472 76456
L69505 76494
L69547 76456
L69514 76419
L69505 76494
" />
<path d="M70095 77169
L70015 77206
L69865 77206
L69795 77169
L69767 77094
L69805 76794
L69851 76719
L69931 76681
L70081 76681
L70151 76719
L70179 76794
L70170 76869
L69786 76944
" />
<path d="M71089 76419
L71576 76419
L71276 76719
L71389 76719
L71459 76756
L71492 76794
L71520 76869
L71497 77056
L71450 77131
L71407 77169
L71328 77206
L71103 77206
L71032 77169
L71000 77131
" />
<path d="M71867 76494
L71909 76456
L71989 76419
L72176 76419
L72246 76456
L72279 76494
L72307 76569
L72298 76644
L72246 76756
L71740 77206
L72228 77206
" />
<path d="M72664 76419
L72584 77056
L72612 77131
L72645 77169
L72715 77206
L72865 77206
L72945 77169
L72987 77131
L73034 77056
L73113 76419
" />
<path d="M73793 76681
L73727 77206
" />
<path d="M73643 76381
L73385 76944
L73873 76944
" />
<path d="M75054 76794
L75162 76831
L75194 76869
L75223 76944
L75209 77056
L75162 77131
L75119 77169
L75040 77206
L74740 77206
L74838 76419
L75101 76419
L75171 76456
L75204 76494
L75232 76569
L75223 76644
L75176 76719
L75134 76756
L75054 76794
L74791 76794
" />
<path d="M75640 77206
L75569 77169
L75541 77094
L75626 76419
" />
<path d="M76052 77206
L75982 77169
L75949 77131
L75921 77056
L75949 76831
L75996 76756
L76038 76719
L76118 76681
L76230 76681
L76301 76719
L76333 76756
L76362 76831
L76333 77056
L76287 77131
L76244 77169
L76165 77206
L76052 77206
" />
<path d="M76652 77206
L76751 76419
" />
<path d="M76765 76906
L76952 77206
" />
<path d="M77018 76681
L76680 76981
" />
</g>
<g style="fill:#000000; fill-opacity:0.0; 
stroke:#000000; stroke-width:39.3701; stroke-opacity:1; 
stroke-linecap:round; stroke-linejoin:round;">
</g>
<g style="fill:#000000; fill-opacity:0.0; 
stroke:#000000; stroke-width:59.0551; stroke-opacity:1; 
stroke-linecap:round; stroke-linejoin:round;">
<path d="M63487 75390
L63290 75390
" />
<path d="M63290 75700
L63290 75109
L63571 75109
" />
<path d="M63796 75700
L63796 75306
" />
<path d="M63796 75109
L63768 75137
L63796 75165
L63824 75137
L63796 75109
L63796 75165
" />
<path d="M64161 75700
L64105 75672
L64077 75615
L64077 75109
" />
<path d="M64611 75672
L64555 75700
L64443 75700
L64386 75672
L64358 75615
L64358 75390
L64386 75334
L64443 75306
L64555 75306
L64611 75334
L64640 75390
L64640 75447
L64358 75503
" />
<path d="M64893 75643
L64921 75672
L64893 75700
L64865 75672
L64893 75643
L64893 75700
" />
<path d="M64893 75334
L64921 75362
L64893 75390
L64865 75362
L64893 75334
L64893 75390
" />
<path d="M65624 75306
L65624 75897
" />
<path d="M65624 75334
L65680 75306
L65793 75306
L65849 75334
L65877 75362
L65905 75419
L65905 75587
L65877 75643
L65849 75672
L65793 75700
L65680 75700
L65624 75672
" />
<path d="M66158 75700
L66158 75306
" />
<path d="M66158 75419
L66186 75362
L66214 75334
L66271 75306
L66327 75306
" />
<path d="M66608 75700
L66552 75672
L66524 75643
L66496 75587
L66496 75419
L66524 75362
L66552 75334
L66608 75306
L66692 75306
L66749 75334
L66777 75362
L66805 75419
L66805 75587
L66777 75643
L66749 75672
L66692 75700
L66608 75700
" />
<path d="M67058 75306
L67058 75812
L67030 75868
L66974 75897
L66946 75897
" />
<path d="M67058 75109
L67030 75137
L67058 75165
L67086 75137
L67058 75109
L67058 75165
" />
<path d="M67564 75672
L67508 75700
L67395 75700
L67339 75672
L67311 75615
L67311 75390
L67339 75334
L67395 75306
L67508 75306
L67564 75334
L67592 75390
L67592 75447
L67311 75503
" />
<path d="M68098 75672
L68042 75700
L67930 75700
L67874 75672
L67845 75643
L67817 75587
L67817 75419
L67845 75362
L67874 75334
L67930 75306
L68042 75306
L68098 75334
" />
<path d="M68267 75306
L68492 75306
" />
<path d="M68352 75109
L68352 75615
L68380 75672
L68436 75700
L68492 75700
" />
<path d="M68689 75643
L68717 75672
L68689 75700
L68661 75672
L68689 75643
L68689 75700
" />
<path d="M68970 75700
L68970 75109
" />
<path d="M69026 75475
L69195 75700
" />
<path d="M69195 75306
L68970 75531
" />
<path d="M69448 75700
L69448 75306
" />
<path d="M69448 75109
L69420 75137
L69448 75165
L69476 75137
L69448 75109
L69448 75165
" />
<path d="M69983 75672
L69926 75700
L69814 75700
L69758 75672
L69730 75643
L69701 75587
L69701 75419
L69730 75362
L69758 75334
L69814 75306
L69926 75306
L69983 75334
" />
<path d="M70489 75700
L70489 75390
L70461 75334
L70404 75306
L70292 75306
L70236 75334
" />
<path d="M70489 75672
L70433 75700
L70292 75700
L70236 75672
L70208 75615
L70208 75559
L70236 75503
L70292 75475
L70433 75475
L70489 75447
" />
<path d="M71023 75700
L71023 75109
" />
<path d="M71023 75672
L70967 75700
L70854 75700
L70798 75672
L70770 75643
L70742 75587
L70742 75419
L70770 75362
L70798 75334
L70854 75306
L70967 75306
L71023 75334
" />
<path d="M71164 75756
L71614 75756
" />
<path d="M71754 75306
L71754 75897
" />
<path d="M71754 75334
L71811 75306
L71923 75306
L71979 75334
L72007 75362
L72035 75419
L72035 75587
L72007 75643
L71979 75672
L71923 75700
L71811 75700
L71754 75672
" />
<path d="M72542 75672
L72485 75700
L72373 75700
L72317 75672
L72289 75643
L72260 75587
L72260 75419
L72289 75362
L72317 75334
L72373 75306
L72485 75306
L72542 75334
" />
<path d="M72795 75700
L72795 75109
" />
<path d="M72795 75334
L72851 75306
L72964 75306
L73020 75334
L73048 75362
L73076 75419
L73076 75587
L73048 75643
L73020 75672
L72964 75700
L72851 75700
L72795 75672
" />
</g>
<g style="fill:#000000; fill-opacity:0.0; 
stroke:#000000; stroke-width:39.3701; stroke-opacity:1; 
stroke-linecap:round; stroke-linejoin:round;">
</g>
<g style="fill:#000000; fill-opacity:0.0; 
stroke:#000000; stroke-width:59.0551; stroke-opacity:1; 
stroke-linecap:round; stroke-linejoin:round;">
<path d="M62755 73779
L105275 73779
" />
</g>
<g style="fill:#000000; fill-opacity:0.0; 
stroke:#000000; stroke-width:39.3701; stroke-opacity:1; 
stroke-linecap:round; stroke-linejoin:round;">
</g>
<g style="fill:#000000; fill-opacity:0.0; 
stroke:#000000; stroke-width:59.0551; stroke-opacity:1; 
stroke-linecap:round; stroke-linejoin:round;">
<path d="M63262 74609
L63346 74637
L63487 74637
L63543 74609
L63571 74580
L63599 74524
L63599 74468
L63571 74412
L63543 74384
L63487 74356
L63374 74327
L63318 74299
L63290 74271
L63262 74215
L63262 74159
L63290 74102
L63318 74074
L63374 74046
L63515 74046
L63599 74074
" />
<path d="M63852 74637
L63852 74046
" />
<path d="M64105 74637
L64105 74327
L64077 74271
L64021 74243
L63937 74243
L63880 74271
L63852 74299
" />
<path d="M64611 74609
L64555 74637
L64443 74637
L64386 74609
L64358 74552
L64358 74327
L64386 74271
L64443 74243
L64555 74243
L64611 74271
L64640 74327
L64640 74384
L64358 74440
" />
<path d="M65118 74609
L65061 74637
L64949 74637
L64893 74609
L64865 74552
L64865 74327
L64893 74271
L64949 74243
L65061 74243
L65118 74271
L65146 74327
L65146 74384
L64865 74440
" />
<path d="M65314 74243
L65539 74243
" />
<path d="M65399 74046
L65399 74552
L65427 74609
L65483 74637
L65539 74637
" />
<path d="M65736 74580
L65764 74609
L65736 74637
L65708 74609
L65736 74580
L65736 74637
" />
<path d="M65736 74271
L65764 74299
L65736 74327
L65708 74299
L65736 74271
L65736 74327
" />
</g>
<g style="fill:#000000; fill-opacity:0.0; 
stroke:#000000; stroke-width:39.3701; stroke-opacity:1; 
stroke-linecap:round; stroke-linejoin:round;">
</g>
<g style="fill:#000000; fill-opacity:0.0; 
stroke:#000000; stroke-width:118.11; stroke-opacity:1; 
stroke-linecap:round; stroke-linejoin:round;">
<path d="M63233 73062
L63346 73456
L63458 73174
L63571 73456
L63683 73062
" />
<path d="M63852 73062
L63965 73456
L64077 73174
L64190 73456
L64302 73062
" />
<path d="M64471 73062
L64583 73456
L64696 73174
L64808 73456
L64921 73062
" />
<path d="M65146 73399
L65174 73428
L65146 73456
L65118 73428
L65146 73399
L65146 73456
" />
<path d="M65427 73456
L65427 72865
L65624 73287
L65821 72865
L65821 73456
" />
<path d="M66355 73456
L66355 73146
L66327 73090
L66271 73062
L66158 73062
L66102 73090
" />
<path d="M66355 73428
L66299 73456
L66158 73456
L66102 73428
L66074 73371
L66074 73315
L66102 73259
L66158 73231
L66299 73231
L66355 73203
" />
<path d="M66636 73456
L66636 72865
" />
<path d="M66692 73231
L66861 73456
" />
<path d="M66861 73062
L66636 73287
" />
<path d="M67339 73428
L67283 73456
L67170 73456
L67114 73428
L67086 73371
L67086 73146
L67114 73090
L67170 73062
L67283 73062
L67339 73090
L67367 73146
L67367 73203
L67086 73259
" />
<path d="M67620 73456
L67620 73062
" />
<path d="M67620 73174
L67649 73118
L67677 73090
L67733 73062
L67789 73062
" />
<path d="M67958 73428
L68014 73456
L68127 73456
L68183 73428
L68211 73371
L68211 73343
L68183 73287
L68127 73259
L68042 73259
L67986 73231
L67958 73174
L67958 73146
L67986 73090
L68042 73062
L68127 73062
L68183 73090
" />
<path d="M68661 73146
L68745 73174
L68773 73203
L68802 73259
L68802 73343
L68773 73399
L68745 73428
L68689 73456
L68464 73456
L68464 72865
L68661 72865
L68717 72893
L68745 72921
L68773 72978
L68773 73034
L68745 73090
L68717 73118
L68661 73146
L68464 73146
" />
<path d="M69139 73456
L69083 73428
L69055 73399
L69026 73343
L69026 73174
L69055 73118
L69083 73090
L69139 73062
L69223 73062
L69280 73090
L69308 73118
L69336 73174
L69336 73343
L69308 73399
L69280 73428
L69223 73456
L69139 73456
" />
<path d="M69533 73456
L69842 73062
" />
<path d="M69533 73062
L69842 73456
" />
<path d="M70067 73399
L70095 73428
L70067 73456
L70039 73428
L70067 73399
L70067 73456
" />
<path d="M70601 73062
L70601 73456
" />
<path d="M70348 73062
L70348 73371
L70376 73428
L70433 73456
L70517 73456
L70573 73428
L70601 73399
" />
<path d="M70854 73428
L70911 73456
L71023 73456
L71079 73428
L71107 73371
L71107 73343
L71079 73287
L71023 73259
L70939 73259
L70883 73231
L70854 73174
L70854 73146
L70883 73090
L70939 73062
L71023 73062
L71079 73090
" />
</g>
<g style="fill:#000000; fill-opacity:0.0; 
stroke:#000000; stroke-width:39.3701; stroke-opacity:1; 
stroke-linecap:round; stroke-linejoin:round;">
</g>
<g style="fill:#000000; fill-opacity:0.0; 
stroke:#000000; stroke-width:59.0551; stroke-opacity:1; 
stroke-linecap:round; stroke-linejoin:round;">
<path d="M63543 71684
L63430 71684
L63374 71712
L63346 71740
L63290 71825
L63262 71937
L63262 72162
L63290 72218
L63318 72246
L63374 72275
L63487 72275
L63543 72246
L63571 72218
L63599 72162
L63599 72021
L63571 71965
L63543 71937
L63487 71909
L63374 71909
L63318 71937
L63290 71965
L63262 72021
" />
<path d="M64105 71881
L64105 72275
" />
<path d="M63965 71656
L63824 72078
L64190 72078
" />
<path d="M64499 71937
L64443 71909
L64415 71881
L64386 71825
L64386 71796
L64415 71740
L64443 71712
L64499 71684
L64611 71684
L64668 71712
L64696 71740
L64724 71796
L64724 71825
L64696 71881
L64668 71909
L64611 71937
L64499 71937
L64443 71965
L64415 71993
L64386 72050
L64386 72162
L64415 72218
L64443 72246
L64499 72275
L64611 72275
L64668 72246
L64696 72218
L64724 72162
L64724 72050
L64696 71993
L64668 71965
L64611 71937
" />
<path d="M64977 72218
L65005 72246
L64977 72275
L64949 72246
L64977 72218
L64977 72275
" />
<path d="M65258 72275
L65258 71684
" />
<path d="M65314 72050
L65483 72275
" />
<path d="M65483 71881
L65258 72106
" />
<path d="M65961 72246
L65905 72275
L65793 72275
L65736 72246
L65708 72190
L65708 71965
L65736 71909
L65793 71881
L65905 71881
L65961 71909
L65989 71965
L65989 72021
L65708 72078
" />
<path d="M66242 71881
L66242 72275
" />
<path d="M66242 71937
L66271 71909
L66327 71881
L66411 71881
L66467 71909
L66496 71965
L66496 72275
" />
<path d="M67142 71993
L67114 71965
L67058 71937
L67002 71937
L66946 71965
L66917 71993
L66889 72050
L66889 72106
L66917 72162
L66946 72190
L67002 72218
L67058 72218
L67114 72190
L67142 72162
" />
<path d="M67142 71937
L67142 72162
L67170 72190
L67199 72190
L67255 72162
L67283 72106
L67283 71965
L67227 71881
L67142 71825
L67030 71796
L66917 71825
L66833 71881
L66777 71965
L66749 72078
L66777 72190
L66833 72275
L66917 72331
L67030 72359
L67142 72331
L67227 72275
" />
<path d="M67789 71881
L67789 72359
L67761 72415
L67733 72443
L67677 72471
L67592 72471
L67536 72443
" />
<path d="M67789 72246
L67733 72275
L67620 72275
L67564 72246
L67536 72218
L67508 72162
L67508 71993
L67536 71937
L67564 71909
L67620 71881
L67733 71881
L67789 71909
" />
<path d="M68070 72275
L68070 71881
" />
<path d="M68070 71937
L68098 71909
L68155 71881
L68239 71881
L68295 71909
L68323 71965
L68323 72275
" />
<path d="M68323 71965
L68352 71909
L68408 71881
L68492 71881
L68548 71909
L68577 71965
L68577 72275
" />
<path d="M69111 72275
L69111 71965
L69083 71909
L69026 71881
L68914 71881
L68858 71909
" />
<path d="M69111 72246
L69055 72275
L68914 72275
L68858 72246
L68830 72190
L68830 72134
L68858 72078
L68914 72050
L69055 72050
L69111 72021
" />
<path d="M69392 72275
L69392 71881
" />
<path d="M69392 71684
L69364 71712
L69392 71740
L69420 71712
L69392 71684
L69392 71740
" />
<path d="M69758 72275
L69701 72246
L69673 72190
L69673 71684
" />
<path d="M69983 72218
L70011 72246
L69983 72275
L69955 72246
L69983 72218
L69983 72275
" />
<path d="M70517 72246
L70461 72275
L70348 72275
L70292 72246
L70264 72218
L70236 72162
L70236 71993
L70264 71937
L70292 71909
L70348 71881
L70461 71881
L70517 71909
" />
<path d="M70854 72275
L70798 72246
L70770 72218
L70742 72162
L70742 71993
L70770 71937
L70798 71909
L70854 71881
L70939 71881
L70995 71909
L71023 71937
L71051 71993
L71051 72162
L71023 72218
L70995 72246
L70939 72275
L70854 72275
" />
<path d="M71304 72275
L71304 71881
" />
<path d="M71304 71937
L71332 71909
L71389 71881
L71473 71881
L71529 71909
L71557 71965
L71557 72275
" />
<path d="M71557 71965
L71586 71909
L71642 71881
L71726 71881
L71782 71909
L71811 71965
L71811 72275
" />
</g>
<g style="fill:#000000; fill-opacity:0.0; 
stroke:#000000; stroke-width:39.3701; stroke-opacity:1; 
stroke-linecap:round; stroke-linejoin:round;">
</g>
<g style="fill:#000000; fill-opacity:0.0; 
stroke:#000000; stroke-width:59.0551; stroke-opacity:1; 
stroke-linecap:round; stroke-linejoin:round;">
<path d="M70629 77716
L70629 78897
" />
</g>
<g style="fill:#000000; fill-opacity:0.0; 
stroke:#000000; stroke-width:39.3701; stroke-opacity:1; 
stroke-linecap:round; stroke-linejoin:round;">
</g>
<g style="fill:#000000; fill-opacity:0.0; 
stroke:#000000; stroke-width:59.0551; stroke-opacity:1; 
stroke-linecap:round; stroke-linejoin:round;">
<path d="M95826 77716
L95826 80275
" />
</g>
<g style="fill:#C2C2C2; fill-opacity:0.0; 
stroke:#C2C2C2; stroke-width:59.0551; stroke-opacity:1; 
stroke-linecap:round; stroke-linejoin:round;">
</g>
<g style="fill:#C2C2C2; fill-opacity:0.0; 
stroke:#C2C2C2; stroke-width:118.11; stroke-opacity:1; 
stroke-linecap:round; stroke-linejoin:round;">
<path d="M61055 36802
L60774 36802
L60847 36212
" />
<path d="M61336 36802
L61283 36774
L61259 36746
L61238 36690
L61259 36521
L61294 36465
L61325 36437
L61385 36408
L61470 36408
L61522 36437
L61547 36465
L61568 36521
L61547 36690
L61512 36746
L61480 36774
L61420 36802
L61336 36802
" />
<path d="M62043 36774
L61983 36802
L61870 36802
L61818 36774
L61793 36746
L61772 36690
L61793 36521
L61828 36465
L61860 36437
L61919 36408
L62032 36408
L62085 36437
" />
<path d="M62545 36802
L62584 36493
L62563 36437
L62510 36408
L62398 36408
L62338 36437
" />
<path d="M62549 36774
L62489 36802
L62348 36802
L62296 36774
L62275 36718
L62282 36661
L62317 36605
L62376 36577
L62517 36577
L62577 36549
" />
<path d="M62791 36408
L63016 36408
" />
<path d="M62900 36212
L62837 36718
L62858 36774
L62911 36802
L62967 36802
" />
<path d="M63164 36802
L63213 36408
" />
<path d="M63238 36212
L63206 36240
L63231 36268
L63262 36240
L63238 36212
L63231 36268
" />
<path d="M63529 36802
L63477 36774
L63452 36746
L63431 36690
L63452 36521
L63487 36465
L63519 36437
L63579 36408
L63663 36408
L63716 36437
L63740 36465
L63761 36521
L63740 36690
L63705 36746
L63674 36774
L63614 36802
L63529 36802
" />
<path d="M64029 36408
L63979 36802
" />
<path d="M64022 36465
L64053 36437
L64113 36408
L64197 36408
L64250 36437
L64271 36493
L64232 36802
" />
<path d="M60763 37156
L61100 37156
" />
<path d="M60858 37747
L60932 37156
" />
<path d="M61452 37719
L61392 37747
L61280 37747
L61227 37719
L61206 37663
L61234 37438
L61269 37381
L61329 37353
L61441 37353
L61494 37381
L61515 37438
L61508 37494
L61220 37550
" />
<path d="M61730 37747
L61779 37353
" />
<path d="M61772 37410
L61803 37381
L61863 37353
L61948 37353
L62000 37381
L62021 37438
L61983 37747
" />
<path d="M62021 37438
L62057 37381
L62116 37353
L62201 37353
L62253 37381
L62275 37438
L62236 37747
" />
<path d="M62566 37353
L62492 37944
" />
<path d="M62563 37381
L62623 37353
L62735 37353
L62788 37381
L62812 37410
L62833 37466
L62812 37634
L62777 37691
L62746 37719
L62686 37747
L62573 37747
L62521 37719
" />
<path d="M63136 37747
L63083 37719
L63062 37663
L63125 37156
" />
<path d="M63614 37747
L63652 37438
L63631 37381
L63579 37353
L63466 37353
L63406 37381
" />
<path d="M63617 37719
L63558 37747
L63417 37747
L63364 37719
L63343 37663
L63350 37606
L63385 37550
L63445 37522
L63586 37522
L63645 37494
" />
<path d="M63860 37353
L64085 37353
" />
<path d="M63969 37156
L63906 37663
L63927 37719
L63979 37747
L64036 37747
" />
<path d="M64461 37719
L64401 37747
L64289 37747
L64236 37719
L64215 37663
L64243 37438
L64278 37381
L64338 37353
L64450 37353
L64503 37381
L64524 37438
L64517 37494
L64229 37550
" />
</g>
<g style="fill:#C2C2C2; fill-opacity:0.0; 
stroke:#C2C2C2; stroke-width:78.7402; stroke-opacity:1; 
stroke-linecap:round; stroke-linejoin:round;">
<path d="M65970 37012
L65994 37035
L66017 37082
L66017 37200
L65994 37246
L65970 37270
L65923 37293
L65876 37293
L65806 37270
L65525 36989
L65525 37293
" />
<path d="M66017 37598
L66017 37645
L65994 37692
L65970 37715
L65923 37739
L65830 37762
L65712 37762
L65619 37739
L65572 37715
L65548 37692
L65525 37645
L65525 37598
L65548 37551
L65572 37528
L65619 37504
L65712 37481
L65830 37481
L65923 37504
L65970 37528
L65994 37551
L66017 37598
" />
<path d="M65572 37973
L65548 37996
L65525 37973
L65548 37949
L65572 37973
L65525 37973
" />
<path d="M66017 38301
L66017 38348
L65994 38395
L65970 38418
L65923 38442
L65830 38465
L65712 38465
L65619 38442
L65572 38418
L65548 38395
L65525 38348
L65525 38301
L65548 38254
L65572 38231
L65619 38207
L65712 38184
L65830 38184
L65923 38207
L65970 38231
L65994 38254
L66017 38301
" />
<path d="M65525 39051
L65853 39051
" />
<path d="M65806 39051
L65830 39074
L65853 39121
L65853 39191
L65830 39238
L65783 39262
L65525 39262
" />
<path d="M65783 39262
L65830 39285
L65853 39332
L65853 39402
L65830 39449
L65783 39473
L65525 39473
" />
<path d="M65525 39707
L65853 39707
" />
<path d="M65806 39707
L65830 39730
L65853 39777
L65853 39848
L65830 39895
L65783 39918
L65525 39918
" />
<path d="M65783 39918
L65830 39941
L65853 39988
L65853 40059
L65830 40105
L65783 40129
L65525 40129
" />
<path d="M64960 33858
L64960 41732
" />
<path d="M64566 33858
L64960 33858
" />
<path d="M64566 41732
L64960 41732
" />
<path d="M64960 41732
L64729 41288
" />
<path d="M64960 41732
L65191 41288
" />
<path d="M64960 33858
L64729 34301
" />
<path d="M64960 33858
L65191 34301
" />
<path d="M60044 34816
L60067 34793
L60114 34769
L60231 34769
L60278 34793
L60301 34816
L60325 34863
L60325 34910
L60301 34980
L60020 35261
L60325 35261
" />
<path d="M60770 34769
L60536 34769
L60512 35004
L60536 34980
L60583 34957
L60700 34957
L60747 34980
L60770 35004
L60793 35051
L60793 35168
L60770 35215
L60747 35238
L60700 35261
L60583 35261
L60536 35238
L60512 35215
" />
<path d="M61004 35215
L61028 35238
L61004 35261
L60981 35238
L61004 35215
L61004 35261
" />
<path d="M61332 34769
L61379 34769
L61426 34793
L61450 34816
L61473 34863
L61497 34957
L61497 35074
L61473 35168
L61450 35215
L61426 35238
L61379 35261
L61332 35261
L61286 35238
L61262 35215
L61239 35168
L61215 35074
L61215 34957
L61239 34863
L61262 34816
L61286 34793
L61332 34769
" />
<path d="M62082 35261
L62082 34933
" />
<path d="M62082 34980
L62106 34957
L62153 34933
L62223 34933
L62270 34957
L62293 35004
L62293 35261
" />
<path d="M62293 35004
L62317 34957
L62364 34933
L62434 34933
L62481 34957
L62504 35004
L62504 35261
" />
<path d="M62739 35261
L62739 34933
" />
<path d="M62739 34980
L62762 34957
L62809 34933
L62879 34933
L62926 34957
L62949 35004
L62949 35261
" />
<path d="M62949 35004
L62973 34957
L63020 34933
L63090 34933
L63137 34957
L63160 35004
L63160 35261
" />
<path d="M56692 35629
L66535 35629
" />
<path d="M56692 35826
L56692 35629
" />
<path d="M66535 35826
L66535 35629
" />
<path d="M66535 35629
L66091 35860
" />
<path d="M66535 35629
L66091 35399
" />
<path d="M56692 35629
L57136 35860
" />
<path d="M56692 35629
L57136 35399
" />
</g>
<g style="fill:#C2C2C2; fill-opacity:0.0; 
stroke:#C2C2C2; stroke-width:118.11; stroke-opacity:1; 
stroke-linecap:round; stroke-linejoin:round;">
<path d="M61951 39952
L61951 39361
L62092 39361
L62176 39389
L62232 39446
L62260 39502
L62289 39614
L62289 39699
L62260 39811
L62232 39867
L62176 39924
L62092 39952
L61951 39952
" />
<path d="M62542 39952
L62542 39558
" />
<path d="M62542 39670
L62570 39614
L62598 39586
L62654 39558
L62710 39558
" />
<path d="M62907 39952
L62907 39558
" />
<path d="M62907 39361
L62879 39389
L62907 39417
L62935 39389
L62907 39361
L62907 39417
" />
<path d="M63273 39952
L63217 39924
L63188 39867
L63188 39361
" />
<path d="M63582 39952
L63526 39924
L63498 39867
L63498 39361
" />
<path d="M62232 40306
L61951 40306
L61923 40587
L61951 40559
L62007 40531
L62148 40531
L62204 40559
L62232 40587
L62260 40643
L62260 40784
L62232 40840
L62204 40868
L62148 40897
L62007 40897
L61951 40868
L61923 40840
" />
<path d="M62935 40278
L62429 41037
" />
<path d="M63076 40306
L63442 40306
L63245 40531
L63329 40531
L63385 40559
L63413 40587
L63442 40643
L63442 40784
L63413 40840
L63385 40868
L63329 40897
L63160 40897
L63104 40868
L63076 40840
" />
<path d="M63667 40362
L63695 40334
L63751 40306
L63892 40306
L63948 40334
L63976 40362
L64004 40419
L64004 40475
L63976 40559
L63638 40897
L64004 40897
" />
<path d="M64229 40306
L64229 40419
" />
<path d="M64454 40306
L64454 40419
" />
</g>
<g style="fill:#C2C2C2; fill-opacity:0.0; 
stroke:#C2C2C2; stroke-width:78.7402; stroke-opacity:1; 
stroke-linecap:round; stroke-linejoin:round;">
<path d="M60433 40157
L61417 40157
" />
<path d="M59055 38779
L60433 40157
" />
<circle cx="59055.1" cy="38779.5" r="787.402" /> 
<circle cx="59055.1" cy="36811" r="787.402" /> 
<circle cx="57874" cy="37795.3" r="787.402" /> 
<path d="M57677 37795
L58070 37795
" />
<path d="M57874 37598
L57874 37992
" />
<path d="M58858 38779
L59251 38779
" />
<path d="M59055 38582
L59055 38976
" />
<path d="M58858 36811
L59251 36811
" />
<path d="M59055 36614
L59055 37007
" />
<path d="M58267 38779
L58267 39566
" />
<path d="M57086 38779
L58267 38779
" />
<path d="M57086 36811
L57086 38779
" />
<path d="M58267 36811
L57086 36811
" />
<path d="M58267 36023
L58267 36811
" />
<path d="M59842 36023
L58267 36023
" />
<path d="M59842 39566
L59842 36023
" />
<path d="M58267 39566
L59842 39566
" />
<path d="M56692 40944
L56692 34645
" />
<path d="M65748 41732
L57480 41732
" />
<path d="M66535 34645
L66535 40944
" />
<path d="M57480 33858
L65748 33858
" />
<path d="M66535.4 34645.7 A787.402 787.402 0.0 0 0 65748 33858.3 " />
<path d="M65748 41732.3 A787.402 787.402 0.0 0 0 66535.4 40944.9 " />
<path d="M56692.9 40944.9 A787.402 787.402 0.0 0 0 57480.3 41732.3 " />
<path d="M57480.3 33858.3 A787.402 787.402 0.0 0 0 56692.9 34645.7 " />
</g> 
</svg>
