<?xml version="1.0" encoding="UTF-8" standalone="no"?>
<svg
   xmlns:dc="http://purl.org/dc/elements/1.1/"
   xmlns:cc="http://creativecommons.org/ns#"
   xmlns:rdf="http://www.w3.org/1999/02/22-rdf-syntax-ns#"
   xmlns:svg="http://www.w3.org/2000/svg"
   xmlns="http://www.w3.org/2000/svg"
   xmlns:sodipodi="http://sodipodi.sourceforge.net/DTD/sodipodi-0.dtd"
   xmlns:inkscape="http://www.inkscape.org/namespaces/inkscape"
   version="1.1"
   width="10.4064cm"
   height="3.7465cm"
   viewBox="0 0 40970 14750 "
   id="svg2"
   inkscape:version="0.91 r13725"
   sodipodi:docname="SpinnerSMDbottom.svg">
  <metadata
     id="metadata162">
    <rdf:RDF>
      <cc:Work
         rdf:about="">
        <dc:format>image/svg+xml</dc:format>
        <dc:type
           rdf:resource="http://purl.org/dc/dcmitype/StillImage" />
      </cc:Work>
    </rdf:RDF>
  </metadata>
  <defs
     id="defs160" />
  <sodipodi:namedview
     pagecolor="#ffffff"
     bordercolor="#666666"
     borderopacity="1"
     objecttolerance="10"
     gridtolerance="10"
     guidetolerance="10"
     inkscape:pageopacity="0"
     inkscape:pageshadow="2"
     inkscape:window-width="1304"
     inkscape:window-height="746"
     id="namedview158"
     showgrid="false"
     inkscape:zoom="2.990248"
     inkscape:cx="184.36535"
     inkscape:cy="66.375"
     inkscape:window-x="54"
     inkscape:window-y="-8"
     inkscape:window-maximized="1"
     inkscape:current-layer="svg2" />
  <title
     id="title4">SVG Picture created as base-brd.svg date 2017/06/19 07:28:00 </title>
  <desc
     id="desc6">Picture generated by PCBNEW </desc>
  <g
     style="fill:#000000; fill-opacity:1;stroke:#000000; stroke-opacity:1; stroke-linecap:round; stroke-linejoin:round; "
     transform="translate(0 0) scale(1 1)"
     id="g8" />
  <g
     style="fill:#000000; fill-opacity:0.0;  stroke:#000000; stroke-width:-0.000393701; stroke-opacity:1;  stroke-linecap:round; stroke-linejoin:round;"
     id="g10" />
  <g
     style="fill:#840000; fill-opacity:0.0;  stroke:#840000; stroke-width:-0.000393701; stroke-opacity:1;  stroke-linecap:round; stroke-linejoin:round;"
     id="g12" />
  <g
     style="fill:#840000; fill-opacity:1.0;  stroke:#840000; stroke-width:39.3701; stroke-opacity:1;  stroke-linecap:round; stroke-linejoin:round;"
     id="g18" />
  <g
     style="fill:#840000; fill-opacity:1.0;  stroke:#840000; stroke-width:39.3701; stroke-opacity:1;  stroke-linecap:round; stroke-linejoin:round;"
     id="g24" />
  <g
     style="fill:#840000; fill-opacity:1.0;  stroke:#840000; stroke-width:39.3701; stroke-opacity:1;  stroke-linecap:round; stroke-linejoin:round;"
     id="g30" />
  <g
     style="fill:#840000; fill-opacity:1.0;  stroke:#840000; stroke-width:39.3701; stroke-opacity:1;  stroke-linecap:round; stroke-linejoin:round;"
     id="g36" />
  <g
     style="fill:#008400; fill-opacity:1.0;  stroke:#008400; stroke-width:39.3701; stroke-opacity:1;  stroke-linecap:round; stroke-linejoin:round;"
     id="g38" />
  <g
     style="fill:#008400; fill-opacity:1.0;  stroke:#008400; stroke-width:39.3701; stroke-opacity:1;  stroke-linecap:round; stroke-linejoin:round;"
     id="g48" />
  <g
     style="fill:#ff0000;fill-opacity:1;stroke:#008400;stroke-width:0;stroke-opacity:1;stroke-linecap:round;stroke-linejoin:round"
     id="g50">
    <polyline
       style="fill-rule:evenodd;fill:#ff0000"
       points="24105,6784 24734,6784 24734,6390 24105,6390 24105,6784 "
       id="polyline52" />
    <polyline
       style="fill-rule:evenodd;fill:#ff0000"
       points="24105,5603 24734,5603 24734,5209 24105,5209 24105,5603 "
       id="polyline54" />
  </g>
  <g
     style="fill:#008400; fill-opacity:1.0;  stroke:#008400; stroke-width:629.921; stroke-opacity:1;  stroke-linecap:round; stroke-linejoin:round;"
     id="g56" />
  <g
     style="fill:#008400; fill-opacity:0.0;  stroke:#008400; stroke-width:0; stroke-opacity:1;  stroke-linecap:round; stroke-linejoin:round;"
     id="g62" />
  <g
     style="fill:#008400; fill-opacity:1.0;  stroke:#008400; stroke-width:629.921; stroke-opacity:1;  stroke-linecap:round; stroke-linejoin:round;"
     id="g68" />
  <g
     style="fill:#008400; fill-opacity:0.0;  stroke:#008400; stroke-width:0; stroke-opacity:1;  stroke-linecap:round; stroke-linejoin:round;"
     id="g80" />
  <g
     style="fill:#ff0000;fill-opacity:1;stroke:#008400;stroke-width:0;stroke-opacity:1;stroke-linecap:round;stroke-linejoin:round"
     id="g82">
    <polyline
       style="fill-rule:evenodd;fill:#ff0000"
       points="30372,8369 30372,7975 29112,7975 29112,8369 30372,8369 "
       id="polyline84" />
    <polyline
       style="fill-rule:evenodd;fill:#ff0000"
       points="30372,9944 30372,9550 29112,9550 29112,9944 30372,9944 "
       id="polyline86" />
    <polyline
       style="fill-rule:evenodd;fill:#ff0000"
       points="33049,9944 33049,9550 31790,9550 31790,9944 33049,9944 "
       id="polyline88" />
    <polyline
       style="fill-rule:evenodd;fill:#ff0000"
       points="33049,8369 33049,7975 31790,7975 31790,8369 33049,8369 "
       id="polyline90" />
  </g>
  <g
     style="fill:#840000; fill-opacity:1.0;  stroke:#840000; stroke-width:39.3701; stroke-opacity:1;  stroke-linecap:round; stroke-linejoin:round;"
     id="g96" />
  <g
     style="fill:#008400; fill-opacity:1.0;  stroke:#008400; stroke-width:39.3701; stroke-opacity:1;  stroke-linecap:round; stroke-linejoin:round;"
     id="g98" />
  <g
     style="fill:#ff0000;fill-opacity:1;stroke:#008400;stroke-width:0;stroke-opacity:1;stroke-linecap:round;stroke-linejoin:round"
     id="g100">
    <polyline
       style="fill-rule:evenodd;fill:#ff0000"
       points="23699,8505 23699,9489 24171,9489 24171,8505 23699,8505 "
       id="polyline102" />
    <polyline
       style="fill-rule:evenodd;fill:#ff0000"
       points="24699,8505 24699,9489 25171,9489 25171,8505 24699,8505 "
       id="polyline104" />
    <polyline
       style="fill-rule:evenodd;fill:#ff0000"
       points="25668,8505 25668,9489 26140,9489 26140,8505 25668,8505 "
       id="polyline106" />
  </g>
  <g
     style="fill:#840000; fill-opacity:1.0;  stroke:#840000; stroke-width:39.3701; stroke-opacity:1;  stroke-linecap:round; stroke-linejoin:round;"
     id="g112" />
  <g
     style="fill:#008400; fill-opacity:1.0;  stroke:#008400; stroke-width:39.3701; stroke-opacity:1;  stroke-linecap:round; stroke-linejoin:round;"
     id="g114" />
  <g
     style="fill:#ff0000;fill-opacity:1;stroke:#008400;stroke-width:0;stroke-opacity:1;stroke-linecap:round;stroke-linejoin:round"
     id="g116">
    <polyline
       style="fill-rule:evenodd;fill:#ff0000"
       points="21211,10290 21434,10513 21656,10290 21434,10067 21211,10290 "
       id="polyline118" />
    <polyline
       style="fill-rule:evenodd;fill:#ff0000"
       points="21740,9761 21963,9984 22185,9761 21963,9538 21740,9761 "
       id="polyline120" />
    <polyline
       style="fill-rule:evenodd;fill:#ff0000"
       points="20919,9469 21142,9692 21364,9469 21142,9246 20919,9469 "
       id="polyline122" />
    <polyline
       style="fill-rule:evenodd;fill:#ff0000"
       points="25319,7072 25319,7522 25519,7522 25519,7072 25319,7072 "
       id="polyline124" />
    <polyline
       style="fill-rule:evenodd;fill:#ff0000"
       points="25819,7072 25819,7522 26019,7522 26019,7072 25819,7072 "
       id="polyline126" />
    <polyline
       style="fill-rule:evenodd;fill:#ff0000"
       points="26319,7072 26319,7522 26519,7522 26519,7072 26319,7072 "
       id="polyline128" />
    <polyline
       style="fill-rule:evenodd;fill:#ff0000"
       points="26819,7072 26819,7522 27019,7522 27019,7072 26819,7072 "
       id="polyline130" />
    <polyline
       style="fill-rule:evenodd;fill:#ff0000"
       points="27319,7072 27319,7522 27519,7522 27519,7072 27319,7072 "
       id="polyline132" />
    <polyline
       style="fill-rule:evenodd;fill:#ff0000"
       points="27819,7072 27819,7522 28019,7522 28019,7072 27819,7072 "
       id="polyline134" />
    <polyline
       style="fill-rule:evenodd;fill:#ff0000"
       points="28319,7072 28319,7522 28519,7522 28519,7072 28319,7072 "
       id="polyline136" />
    <polyline
       style="fill-rule:evenodd;fill:#ff0000"
       points="28319,4572 28319,5022 28519,5022 28519,4572 28319,4572 "
       id="polyline138" />
    <polyline
       style="fill-rule:evenodd;fill:#ff0000"
       points="27819,4572 27819,5022 28019,5022 28019,4572 27819,4572 "
       id="polyline140" />
    <polyline
       style="fill-rule:evenodd;fill:#ff0000"
       points="26819,4572 26819,5022 27019,5022 27019,4572 26819,4572 "
       id="polyline142" />
    <polyline
       style="fill-rule:evenodd;fill:#ff0000"
       points="26319,4572 26319,5022 26519,5022 26519,4572 26319,4572 "
       id="polyline144" />
    <polyline
       style="fill-rule:evenodd;fill:#ff0000"
       points="25819,4572 25819,5022 26019,5022 26019,4572 25819,4572 "
       id="polyline146" />
    <polyline
       style="fill-rule:evenodd;fill:#ff0000"
       points="25319,4572 25319,5022 25519,5022 25519,4572 25319,4572 "
       id="polyline148" />
    <polyline
       style="fill-rule:evenodd;fill:#ff0000"
       points="27319,4572 27319,5022 27519,5022 27519,4572 27319,4572 "
       id="polyline150" />
  </g>
  <g
     style="fill:#840000; fill-opacity:1.0;  stroke:#840000; stroke-width:39.3701; stroke-opacity:1;  stroke-linecap:round; stroke-linejoin:round;"
     id="g156" />
</svg>
