<?xml version="1.0" standalone="no"?>
 <!DOCTYPE svg PUBLIC "-//W3C//DTD SVG 1.1//EN" 
 "http://www.w3.org/Graphics/SVG/1.1/DTD/svg11.dtd"> 
<svg xmlns="http://www.w3.org/2000/svg" version="1.1" 
    width="27.94cm" height="21.59cm" viewBox="0 0 110000 85000 ">
<title>SVG Picture created as snapNsew-F_SilkS.svg date 2016/01/17 21:29:24 </title>
  <desc>Picture generated by PCBNEW </desc>
<g style="fill:#000000; fill-opacity:1;stroke:#000000; stroke-opacity:1;
stroke-linecap:round; stroke-linejoin:round; "
 transform="translate(0 0) scale(1 1)">
</g>
<g style="fill:#000000; fill-opacity:0.0; 
stroke:#000000; stroke-width:-0.000393701; stroke-opacity:1; 
stroke-linecap:round; stroke-linejoin:round;">
</g>
<g style="fill:#000000; fill-opacity:0.0; 
stroke:#000000; stroke-width:39.3701; stroke-opacity:1; 
stroke-linecap:round; stroke-linejoin:round;">
</g>
<g style="fill:#000000; fill-opacity:0.0; 
stroke:#000000; stroke-width:59.0551; stroke-opacity:1; 
stroke-linecap:round; stroke-linejoin:round;">
<rect x="62755.9" y="67677.2" width="42519.7" height="12598.4" rx="0" />
</g>
<g style="fill:#000000; fill-opacity:0.0; 
stroke:#000000; stroke-width:39.3701; stroke-opacity:1; 
stroke-linecap:round; stroke-linejoin:round;">
</g>
<g style="fill:#000000; fill-opacity:0.0; 
stroke:#000000; stroke-width:59.0551; stroke-opacity:1; 
stroke-linecap:round; stroke-linejoin:round;">
<rect x="3937.01" y="3937.01" width="102126" height="77126" rx="0" />
</g>
<g style="fill:#000000; fill-opacity:0.0; 
stroke:#000000; stroke-width:39.3701; stroke-opacity:1; 
stroke-linecap:round; stroke-linejoin:round;">
</g>
<g style="fill:#000000; fill-opacity:0.0; 
stroke:#000000; stroke-width:59.0551; stroke-opacity:1; 
stroke-linecap:round; stroke-linejoin:round;">
<rect x="4724.41" y="4724.41" width="100551" height="75551.2" rx="0" />
</g>
<g style="fill:#000000; fill-opacity:0.0; 
stroke:#000000; stroke-width:39.3701; stroke-opacity:1; 
stroke-linecap:round; stroke-linejoin:round;">
</g>
<g style="fill:#000000; fill-opacity:0.0; 
stroke:#000000; stroke-width:59.0551; stroke-opacity:1; 
stroke-linecap:round; stroke-linejoin:round;">
<path d="M23622 4724
L23622 3937
" />
</g>
<g style="fill:#000000; fill-opacity:0.0; 
stroke:#000000; stroke-width:39.3701; stroke-opacity:1; 
stroke-linecap:round; stroke-linejoin:round;">
</g>
<g style="fill:#000000; fill-opacity:0.0; 
stroke:#000000; stroke-width:59.0551; stroke-opacity:1; 
stroke-linecap:round; stroke-linejoin:round;">
<path d="M43307 4724
L43307 3937
" />
</g>
<g style="fill:#000000; fill-opacity:0.0; 
stroke:#000000; stroke-width:39.3701; stroke-opacity:1; 
stroke-linecap:round; stroke-linejoin:round;">
</g>
<g style="fill:#000000; fill-opacity:0.0; 
stroke:#000000; stroke-width:59.0551; stroke-opacity:1; 
stroke-linecap:round; stroke-linejoin:round;">
<path d="M62992 4724
L62992 3937
" />
</g>
<g style="fill:#000000; fill-opacity:0.0; 
stroke:#000000; stroke-width:39.3701; stroke-opacity:1; 
stroke-linecap:round; stroke-linejoin:round;">
</g>
<g style="fill:#000000; fill-opacity:0.0; 
stroke:#000000; stroke-width:59.0551; stroke-opacity:1; 
stroke-linecap:round; stroke-linejoin:round;">
<path d="M82677 4724
L82677 3937
" />
</g>
<g style="fill:#000000; fill-opacity:0.0; 
stroke:#000000; stroke-width:39.3701; stroke-opacity:1; 
stroke-linecap:round; stroke-linejoin:round;">
</g>
<g style="fill:#000000; fill-opacity:0.0; 
stroke:#000000; stroke-width:59.0551; stroke-opacity:1; 
stroke-linecap:round; stroke-linejoin:round;">
<path d="M102362 4724
L102362 3937
" />
</g>
<g style="fill:#000000; fill-opacity:0.0; 
stroke:#000000; stroke-width:39.3701; stroke-opacity:1; 
stroke-linecap:round; stroke-linejoin:round;">
</g>
<g style="fill:#000000; fill-opacity:0.0; 
stroke:#000000; stroke-width:59.0551; stroke-opacity:1; 
stroke-linecap:round; stroke-linejoin:round;">
<path d="M14169 4562
L13877 4562
" />
<path d="M14023 4562
L14023 4050
L13974 4123
L13925 4172
L13877 4196
" />
</g>
<g style="fill:#000000; fill-opacity:0.0; 
stroke:#000000; stroke-width:39.3701; stroke-opacity:1; 
stroke-linecap:round; stroke-linejoin:round;">
</g>
<g style="fill:#000000; fill-opacity:0.0; 
stroke:#000000; stroke-width:59.0551; stroke-opacity:1; 
stroke-linecap:round; stroke-linejoin:round;">
<path d="M33562 4099
L33586 4074
L33635 4050
L33757 4050
L33805 4074
L33830 4099
L33854 4147
L33854 4196
L33830 4269
L33537 4562
L33854 4562
" />
</g>
<g style="fill:#000000; fill-opacity:0.0; 
stroke:#000000; stroke-width:39.3701; stroke-opacity:1; 
stroke-linecap:round; stroke-linejoin:round;">
</g>
<g style="fill:#000000; fill-opacity:0.0; 
stroke:#000000; stroke-width:59.0551; stroke-opacity:1; 
stroke-linecap:round; stroke-linejoin:round;">
<path d="M53222 4050
L53539 4050
L53368 4245
L53442 4245
L53490 4269
L53515 4294
L53539 4342
L53539 4464
L53515 4513
L53490 4537
L53442 4562
L53295 4562
L53247 4537
L53222 4513
" />
</g>
<g style="fill:#000000; fill-opacity:0.0; 
stroke:#000000; stroke-width:39.3701; stroke-opacity:1; 
stroke-linecap:round; stroke-linejoin:round;">
</g>
<g style="fill:#000000; fill-opacity:0.0; 
stroke:#000000; stroke-width:59.0551; stroke-opacity:1; 
stroke-linecap:round; stroke-linejoin:round;">
<path d="M73175 4221
L73175 4562
" />
<path d="M73053 4026
L72932 4391
L73248 4391
" />
</g>
<g style="fill:#000000; fill-opacity:0.0; 
stroke:#000000; stroke-width:39.3701; stroke-opacity:1; 
stroke-linecap:round; stroke-linejoin:round;">
</g>
<g style="fill:#000000; fill-opacity:0.0; 
stroke:#000000; stroke-width:59.0551; stroke-opacity:1; 
stroke-linecap:round; stroke-linejoin:round;">
<path d="M92885 4050
L92641 4050
L92617 4294
L92641 4269
L92690 4245
L92812 4245
L92860 4269
L92885 4294
L92909 4342
L92909 4464
L92885 4513
L92860 4537
L92812 4562
L92690 4562
L92641 4537
L92617 4513
" />
</g>
<g style="fill:#000000; fill-opacity:0.0; 
stroke:#000000; stroke-width:39.3701; stroke-opacity:1; 
stroke-linecap:round; stroke-linejoin:round;">
</g>
<g style="fill:#000000; fill-opacity:0.0; 
stroke:#000000; stroke-width:59.0551; stroke-opacity:1; 
stroke-linecap:round; stroke-linejoin:round;">
<path d="M23622 80275
L23622 81062
" />
</g>
<g style="fill:#000000; fill-opacity:0.0; 
stroke:#000000; stroke-width:39.3701; stroke-opacity:1; 
stroke-linecap:round; stroke-linejoin:round;">
</g>
<g style="fill:#000000; fill-opacity:0.0; 
stroke:#000000; stroke-width:59.0551; stroke-opacity:1; 
stroke-linecap:round; stroke-linejoin:round;">
<path d="M43307 80275
L43307 81062
" />
</g>
<g style="fill:#000000; fill-opacity:0.0; 
stroke:#000000; stroke-width:39.3701; stroke-opacity:1; 
stroke-linecap:round; stroke-linejoin:round;">
</g>
<g style="fill:#000000; fill-opacity:0.0; 
stroke:#000000; stroke-width:59.0551; stroke-opacity:1; 
stroke-linecap:round; stroke-linejoin:round;">
<path d="M62992 80275
L62992 81062
" />
</g>
<g style="fill:#000000; fill-opacity:0.0; 
stroke:#000000; stroke-width:39.3701; stroke-opacity:1; 
stroke-linecap:round; stroke-linejoin:round;">
</g>
<g style="fill:#000000; fill-opacity:0.0; 
stroke:#000000; stroke-width:59.0551; stroke-opacity:1; 
stroke-linecap:round; stroke-linejoin:round;">
<path d="M82677 80275
L82677 81062
" />
</g>
<g style="fill:#000000; fill-opacity:0.0; 
stroke:#000000; stroke-width:39.3701; stroke-opacity:1; 
stroke-linecap:round; stroke-linejoin:round;">
</g>
<g style="fill:#000000; fill-opacity:0.0; 
stroke:#000000; stroke-width:59.0551; stroke-opacity:1; 
stroke-linecap:round; stroke-linejoin:round;">
<path d="M102362 80275
L102362 81062
" />
</g>
<g style="fill:#000000; fill-opacity:0.0; 
stroke:#000000; stroke-width:39.3701; stroke-opacity:1; 
stroke-linecap:round; stroke-linejoin:round;">
</g>
<g style="fill:#000000; fill-opacity:0.0; 
stroke:#000000; stroke-width:59.0551; stroke-opacity:1; 
stroke-linecap:round; stroke-linejoin:round;">
<path d="M14169 80900
L13877 80900
" />
<path d="M14023 80900
L14023 80389
L13974 80462
L13925 80510
L13877 80535
" />
</g>
<g style="fill:#000000; fill-opacity:0.0; 
stroke:#000000; stroke-width:39.3701; stroke-opacity:1; 
stroke-linecap:round; stroke-linejoin:round;">
</g>
<g style="fill:#000000; fill-opacity:0.0; 
stroke:#000000; stroke-width:59.0551; stroke-opacity:1; 
stroke-linecap:round; stroke-linejoin:round;">
<path d="M33562 80437
L33586 80413
L33635 80389
L33757 80389
L33805 80413
L33830 80437
L33854 80486
L33854 80535
L33830 80608
L33537 80900
L33854 80900
" />
</g>
<g style="fill:#000000; fill-opacity:0.0; 
stroke:#000000; stroke-width:39.3701; stroke-opacity:1; 
stroke-linecap:round; stroke-linejoin:round;">
</g>
<g style="fill:#000000; fill-opacity:0.0; 
stroke:#000000; stroke-width:59.0551; stroke-opacity:1; 
stroke-linecap:round; stroke-linejoin:round;">
<path d="M53222 80389
L53539 80389
L53368 80583
L53442 80583
L53490 80608
L53515 80632
L53539 80681
L53539 80803
L53515 80852
L53490 80876
L53442 80900
L53295 80900
L53247 80876
L53222 80852
" />
</g>
<g style="fill:#000000; fill-opacity:0.0; 
stroke:#000000; stroke-width:39.3701; stroke-opacity:1; 
stroke-linecap:round; stroke-linejoin:round;">
</g>
<g style="fill:#000000; fill-opacity:0.0; 
stroke:#000000; stroke-width:59.0551; stroke-opacity:1; 
stroke-linecap:round; stroke-linejoin:round;">
<path d="M73175 80559
L73175 80900
" />
<path d="M73053 80364
L72932 80730
L73248 80730
" />
</g>
<g style="fill:#000000; fill-opacity:0.0; 
stroke:#000000; stroke-width:39.3701; stroke-opacity:1; 
stroke-linecap:round; stroke-linejoin:round;">
</g>
<g style="fill:#000000; fill-opacity:0.0; 
stroke:#000000; stroke-width:59.0551; stroke-opacity:1; 
stroke-linecap:round; stroke-linejoin:round;">
<path d="M92885 80389
L92641 80389
L92617 80632
L92641 80608
L92690 80583
L92812 80583
L92860 80608
L92885 80632
L92909 80681
L92909 80803
L92885 80852
L92860 80876
L92812 80900
L92690 80900
L92641 80876
L92617 80852
" />
</g>
<g style="fill:#000000; fill-opacity:0.0; 
stroke:#000000; stroke-width:39.3701; stroke-opacity:1; 
stroke-linecap:round; stroke-linejoin:round;">
</g>
<g style="fill:#000000; fill-opacity:0.0; 
stroke:#000000; stroke-width:59.0551; stroke-opacity:1; 
stroke-linecap:round; stroke-linejoin:round;">
<path d="M3937 23622
L4724 23622
" />
</g>
<g style="fill:#000000; fill-opacity:0.0; 
stroke:#000000; stroke-width:39.3701; stroke-opacity:1; 
stroke-linecap:round; stroke-linejoin:round;">
</g>
<g style="fill:#000000; fill-opacity:0.0; 
stroke:#000000; stroke-width:59.0551; stroke-opacity:1; 
stroke-linecap:round; stroke-linejoin:round;">
<path d="M3937 43307
L4724 43307
" />
</g>
<g style="fill:#000000; fill-opacity:0.0; 
stroke:#000000; stroke-width:39.3701; stroke-opacity:1; 
stroke-linecap:round; stroke-linejoin:round;">
</g>
<g style="fill:#000000; fill-opacity:0.0; 
stroke:#000000; stroke-width:59.0551; stroke-opacity:1; 
stroke-linecap:round; stroke-linejoin:round;">
<path d="M3937 62992
L4724 62992
" />
</g>
<g style="fill:#000000; fill-opacity:0.0; 
stroke:#000000; stroke-width:39.3701; stroke-opacity:1; 
stroke-linecap:round; stroke-linejoin:round;">
</g>
<g style="fill:#000000; fill-opacity:0.0; 
stroke:#000000; stroke-width:59.0551; stroke-opacity:1; 
stroke-linecap:round; stroke-linejoin:round;">
<path d="M4208 13864
L4452 13864
" />
<path d="M4160 14011
L4330 13499
L4501 14011
" />
</g>
<g style="fill:#000000; fill-opacity:0.0; 
stroke:#000000; stroke-width:39.3701; stroke-opacity:1; 
stroke-linecap:round; stroke-linejoin:round;">
</g>
<g style="fill:#000000; fill-opacity:0.0; 
stroke:#000000; stroke-width:59.0551; stroke-opacity:1; 
stroke-linecap:round; stroke-linejoin:round;">
<path d="M4367 33428
L4440 33452
L4464 33476
L4489 33525
L4489 33598
L4464 33647
L4440 33671
L4391 33696
L4196 33696
L4196 33184
L4367 33184
L4416 33208
L4440 33233
L4464 33281
L4464 33330
L4440 33379
L4416 33403
L4367 33428
L4196 33428
" />
</g>
<g style="fill:#000000; fill-opacity:0.0; 
stroke:#000000; stroke-width:39.3701; stroke-opacity:1; 
stroke-linecap:round; stroke-linejoin:round;">
</g>
<g style="fill:#000000; fill-opacity:0.0; 
stroke:#000000; stroke-width:59.0551; stroke-opacity:1; 
stroke-linecap:round; stroke-linejoin:round;">
<path d="M4489 53332
L4464 53356
L4391 53381
L4342 53381
L4269 53356
L4221 53308
L4196 53259
L4172 53161
L4172 53088
L4196 52991
L4221 52942
L4269 52893
L4342 52869
L4391 52869
L4464 52893
L4489 52918
" />
</g>
<g style="fill:#000000; fill-opacity:0.0; 
stroke:#000000; stroke-width:39.3701; stroke-opacity:1; 
stroke-linecap:round; stroke-linejoin:round;">
</g>
<g style="fill:#000000; fill-opacity:0.0; 
stroke:#000000; stroke-width:59.0551; stroke-opacity:1; 
stroke-linecap:round; stroke-linejoin:round;">
<path d="M4196 73066
L4196 72554
L4318 72554
L4391 72578
L4440 72627
L4464 72676
L4489 72773
L4489 72846
L4464 72944
L4440 72993
L4391 73041
L4318 73066
L4196 73066
" />
</g>
<g style="fill:#000000; fill-opacity:0.0; 
stroke:#000000; stroke-width:39.3701; stroke-opacity:1; 
stroke-linecap:round; stroke-linejoin:round;">
</g>
<g style="fill:#000000; fill-opacity:0.0; 
stroke:#000000; stroke-width:59.0551; stroke-opacity:1; 
stroke-linecap:round; stroke-linejoin:round;">
<path d="M106062 23622
L105275 23622
" />
</g>
<g style="fill:#000000; fill-opacity:0.0; 
stroke:#000000; stroke-width:39.3701; stroke-opacity:1; 
stroke-linecap:round; stroke-linejoin:round;">
</g>
<g style="fill:#000000; fill-opacity:0.0; 
stroke:#000000; stroke-width:59.0551; stroke-opacity:1; 
stroke-linecap:round; stroke-linejoin:round;">
<path d="M106062 43307
L105275 43307
" />
</g>
<g style="fill:#000000; fill-opacity:0.0; 
stroke:#000000; stroke-width:39.3701; stroke-opacity:1; 
stroke-linecap:round; stroke-linejoin:round;">
</g>
<g style="fill:#000000; fill-opacity:0.0; 
stroke:#000000; stroke-width:59.0551; stroke-opacity:1; 
stroke-linecap:round; stroke-linejoin:round;">
<path d="M106062 62992
L105275 62992
" />
</g>
<g style="fill:#000000; fill-opacity:0.0; 
stroke:#000000; stroke-width:39.3701; stroke-opacity:1; 
stroke-linecap:round; stroke-linejoin:round;">
</g>
<g style="fill:#000000; fill-opacity:0.0; 
stroke:#000000; stroke-width:59.0551; stroke-opacity:1; 
stroke-linecap:round; stroke-linejoin:round;">
<path d="M105547 13864
L105791 13864
" />
<path d="M105498 14011
L105669 13499
L105839 14011
" />
</g>
<g style="fill:#000000; fill-opacity:0.0; 
stroke:#000000; stroke-width:39.3701; stroke-opacity:1; 
stroke-linecap:round; stroke-linejoin:round;">
</g>
<g style="fill:#000000; fill-opacity:0.0; 
stroke:#000000; stroke-width:59.0551; stroke-opacity:1; 
stroke-linecap:round; stroke-linejoin:round;">
<path d="M105705 33428
L105778 33452
L105803 33476
L105827 33525
L105827 33598
L105803 33647
L105778 33671
L105730 33696
L105535 33696
L105535 33184
L105705 33184
L105754 33208
L105778 33233
L105803 33281
L105803 33330
L105778 33379
L105754 33403
L105705 33428
L105535 33428
" />
</g>
<g style="fill:#000000; fill-opacity:0.0; 
stroke:#000000; stroke-width:39.3701; stroke-opacity:1; 
stroke-linecap:round; stroke-linejoin:round;">
</g>
<g style="fill:#000000; fill-opacity:0.0; 
stroke:#000000; stroke-width:59.0551; stroke-opacity:1; 
stroke-linecap:round; stroke-linejoin:round;">
<path d="M105827 53332
L105803 53356
L105730 53381
L105681 53381
L105608 53356
L105559 53308
L105535 53259
L105510 53161
L105510 53088
L105535 52991
L105559 52942
L105608 52893
L105681 52869
L105730 52869
L105803 52893
L105827 52918
" />
</g>
<g style="fill:#000000; fill-opacity:0.0; 
stroke:#000000; stroke-width:39.3701; stroke-opacity:1; 
stroke-linecap:round; stroke-linejoin:round;">
</g>
<g style="fill:#000000; fill-opacity:0.0; 
stroke:#000000; stroke-width:59.0551; stroke-opacity:1; 
stroke-linecap:round; stroke-linejoin:round;">
<path d="M105535 73066
L105535 72554
L105657 72554
L105730 72578
L105778 72627
L105803 72676
L105827 72773
L105827 72846
L105803 72944
L105778 72993
L105730 73041
L105657 73066
L105535 73066
" />
</g>
<g style="fill:#000000; fill-opacity:0.0; 
stroke:#000000; stroke-width:39.3701; stroke-opacity:1; 
stroke-linecap:round; stroke-linejoin:round;">
</g>
<g style="fill:#000000; fill-opacity:0.0; 
stroke:#000000; stroke-width:59.0551; stroke-opacity:1; 
stroke-linecap:round; stroke-linejoin:round;">
<path d="M71951 78613
L71951 78023
L72092 78023
L72176 78051
L72232 78107
L72260 78163
L72289 78276
L72289 78360
L72260 78473
L72232 78529
L72176 78585
L72092 78613
L71951 78613
" />
<path d="M72795 78613
L72795 78304
L72767 78248
L72710 78219
L72598 78219
L72542 78248
" />
<path d="M72795 78585
L72739 78613
L72598 78613
L72542 78585
L72514 78529
L72514 78473
L72542 78416
L72598 78388
L72739 78388
L72795 78360
" />
<path d="M72992 78219
L73217 78219
" />
<path d="M73076 78023
L73076 78529
L73104 78585
L73160 78613
L73217 78613
" />
<path d="M73638 78585
L73582 78613
L73470 78613
L73413 78585
L73385 78529
L73385 78304
L73413 78248
L73470 78219
L73582 78219
L73638 78248
L73667 78304
L73667 78360
L73385 78416
" />
<path d="M73920 78557
L73948 78585
L73920 78613
L73892 78585
L73920 78557
L73920 78613
" />
<path d="M73920 78248
L73948 78276
L73920 78304
L73892 78276
L73920 78248
L73920 78304
" />
</g>
<g style="fill:#000000; fill-opacity:0.0; 
stroke:#000000; stroke-width:39.3701; stroke-opacity:1; 
stroke-linecap:round; stroke-linejoin:round;">
</g>
<g style="fill:#000000; fill-opacity:0.0; 
stroke:#000000; stroke-width:59.0551; stroke-opacity:1; 
stroke-linecap:round; stroke-linejoin:round;">
<path d="M62755 78897
L105275 78897
" />
</g>
<g style="fill:#000000; fill-opacity:0.0; 
stroke:#000000; stroke-width:39.3701; stroke-opacity:1; 
stroke-linecap:round; stroke-linejoin:round;">
</g>
<g style="fill:#000000; fill-opacity:0.0; 
stroke:#000000; stroke-width:59.0551; stroke-opacity:1; 
stroke-linecap:round; stroke-linejoin:round;">
<path d="M63290 79715
L63290 79125
" />
<path d="M63627 79715
L63374 79378
" />
<path d="M63627 79125
L63290 79462
" />
<path d="M63880 79715
L63880 79322
" />
<path d="M63880 79125
L63852 79153
L63880 79181
L63908 79153
L63880 79125
L63880 79181
" />
<path d="M64499 79659
L64471 79687
L64386 79715
L64330 79715
L64246 79687
L64190 79631
L64161 79575
L64133 79462
L64133 79378
L64161 79266
L64190 79209
L64246 79153
L64330 79125
L64386 79125
L64471 79153
L64499 79181
" />
<path d="M65005 79715
L65005 79406
L64977 79350
L64921 79322
L64808 79322
L64752 79350
" />
<path d="M65005 79687
L64949 79715
L64808 79715
L64752 79687
L64724 79631
L64724 79575
L64752 79519
L64808 79491
L64949 79491
L65005 79462
" />
<path d="M65539 79715
L65539 79125
" />
<path d="M65539 79687
L65483 79715
L65371 79715
L65314 79687
L65286 79659
L65258 79603
L65258 79434
L65286 79378
L65314 79350
L65371 79322
L65483 79322
L65539 79350
" />
<path d="M66271 79406
L66467 79406
" />
<path d="M66552 79715
L66271 79715
L66271 79125
L66552 79125
" />
<path d="M66805 79659
L66833 79687
L66805 79715
L66777 79687
L66805 79659
L66805 79715
" />
<path d="M67086 79715
L67086 79125
L67227 79125
L67311 79153
L67367 79209
L67395 79266
L67424 79378
L67424 79462
L67395 79575
L67367 79631
L67311 79687
L67227 79715
L67086 79715
" />
<path d="M67677 79659
L67705 79687
L67677 79715
L67649 79687
L67677 79659
L67677 79715
" />
<path d="M67930 79547
L68211 79547
" />
<path d="M67874 79715
L68070 79125
L68267 79715
" />
<path d="M68464 79659
L68492 79687
L68464 79715
L68436 79687
L68464 79659
L68464 79715
" />
<path d="M69645 79715
L69645 79125
" />
<path d="M69701 79491
L69870 79715
" />
<path d="M69870 79322
L69645 79547
" />
<path d="M70123 79715
L70123 79322
" />
<path d="M70123 79125
L70095 79153
L70123 79181
L70151 79153
L70123 79125
L70123 79181
" />
<path d="M70658 79687
L70601 79715
L70489 79715
L70433 79687
L70404 79659
L70376 79603
L70376 79434
L70404 79378
L70433 79350
L70489 79322
L70601 79322
L70658 79350
" />
<path d="M71164 79715
L71164 79406
L71136 79350
L71079 79322
L70967 79322
L70911 79350
" />
<path d="M71164 79687
L71107 79715
L70967 79715
L70911 79687
L70883 79631
L70883 79575
L70911 79519
L70967 79491
L71107 79491
L71164 79462
" />
<path d="M71698 79715
L71698 79125
" />
<path d="M71698 79687
L71642 79715
L71529 79715
L71473 79687
L71445 79659
L71417 79603
L71417 79434
L71445 79378
L71473 79350
L71529 79322
L71642 79322
L71698 79350
" />
<path d="M72598 79940
L72570 79912
L72514 79828
L72485 79772
L72457 79687
L72429 79547
L72429 79434
L72457 79294
L72485 79209
L72514 79153
L72570 79069
L72598 79041
" />
<path d="M72795 79181
L72823 79153
L72879 79125
L73020 79125
L73076 79153
L73104 79181
L73132 79237
L73132 79294
L73104 79378
L72767 79715
L73132 79715
" />
<path d="M73498 79125
L73554 79125
L73610 79153
L73638 79181
L73667 79237
L73695 79350
L73695 79491
L73667 79603
L73638 79659
L73610 79687
L73554 79715
L73498 79715
L73442 79687
L73413 79659
L73385 79603
L73357 79491
L73357 79350
L73385 79237
L73413 79181
L73442 79153
L73498 79125
" />
<path d="M74257 79715
L73920 79715
" />
<path d="M74088 79715
L74088 79125
L74032 79209
L73976 79266
L73920 79294
" />
<path d="M74791 79125
L74510 79125
L74482 79406
L74510 79378
L74566 79350
L74707 79350
L74763 79378
L74791 79406
L74820 79462
L74820 79603
L74791 79659
L74763 79687
L74707 79715
L74566 79715
L74510 79687
L74482 79659
" />
<path d="M75073 79491
L75523 79491
" />
<path d="M75916 79125
L75973 79125
L76029 79153
L76057 79181
L76085 79237
L76113 79350
L76113 79491
L76085 79603
L76057 79659
L76029 79687
L75973 79715
L75916 79715
L75860 79687
L75832 79659
L75804 79603
L75776 79491
L75776 79350
L75804 79237
L75832 79181
L75860 79153
L75916 79125
" />
<path d="M76451 79378
L76394 79350
L76366 79322
L76338 79266
L76338 79237
L76366 79181
L76394 79153
L76451 79125
L76563 79125
L76619 79153
L76647 79181
L76676 79237
L76676 79266
L76647 79322
L76619 79350
L76563 79378
L76451 79378
L76394 79406
L76366 79434
L76338 79491
L76338 79603
L76366 79659
L76394 79687
L76451 79715
L76563 79715
L76619 79687
L76647 79659
L76676 79603
L76676 79491
L76647 79434
L76619 79406
L76563 79378
" />
<path d="M76929 79491
L77379 79491
" />
<path d="M77969 79715
L77632 79715
" />
<path d="M77800 79715
L77800 79125
L77744 79209
L77688 79266
L77632 79294
" />
<path d="M78503 79125
L78222 79125
L78194 79406
L78222 79378
L78278 79350
L78419 79350
L78475 79378
L78503 79406
L78532 79462
L78532 79603
L78503 79659
L78475 79687
L78419 79715
L78278 79715
L78222 79687
L78194 79659
" />
<path d="M79431 79406
L79516 79434
L79544 79462
L79572 79519
L79572 79603
L79544 79659
L79516 79687
L79460 79715
L79235 79715
L79235 79125
L79431 79125
L79488 79153
L79516 79181
L79544 79237
L79544 79294
L79516 79350
L79488 79378
L79431 79406
L79235 79406
" />
<path d="M79769 79125
L80163 79125
L79769 79715
L80163 79715
" />
<path d="M80725 79715
L80528 79434
" />
<path d="M80388 79715
L80388 79125
L80613 79125
L80669 79153
L80697 79181
L80725 79237
L80725 79322
L80697 79378
L80669 79406
L80613 79434
L80388 79434
" />
<path d="M81681 79125
L81569 79125
L81512 79153
L81484 79181
L81428 79266
L81400 79378
L81400 79603
L81428 79659
L81456 79687
L81512 79715
L81625 79715
L81681 79687
L81709 79659
L81737 79603
L81737 79462
L81709 79406
L81681 79378
L81625 79350
L81512 79350
L81456 79378
L81428 79406
L81400 79462
" />
<path d="M82103 79125
L82159 79125
L82215 79153
L82244 79181
L82272 79237
L82300 79350
L82300 79491
L82272 79603
L82244 79659
L82215 79687
L82159 79715
L82103 79715
L82047 79687
L82019 79659
L81991 79603
L81962 79491
L81962 79350
L81991 79237
L82019 79181
L82047 79153
L82103 79125
" />
<path d="M82581 79715
L82694 79715
L82750 79687
L82778 79659
L82834 79575
L82862 79462
L82862 79237
L82834 79181
L82806 79153
L82750 79125
L82637 79125
L82581 79153
L82553 79181
L82525 79237
L82525 79378
L82553 79434
L82581 79462
L82637 79491
L82750 79491
L82806 79462
L82834 79434
L82862 79378
" />
<path d="M83087 79181
L83115 79153
L83172 79125
L83312 79125
L83368 79153
L83397 79181
L83425 79237
L83425 79294
L83397 79378
L83059 79715
L83425 79715
" />
<path d="M83622 79940
L83650 79912
L83706 79828
L83734 79772
L83762 79687
L83790 79547
L83790 79434
L83762 79294
L83734 79209
L83706 79153
L83650 79069
L83622 79041
" />
<path d="M84071 79491
L84521 79491
" />
<path d="M84803 79322
L84803 79912
" />
<path d="M84803 79350
L84859 79322
L84971 79322
L85028 79350
L85056 79378
L85084 79434
L85084 79603
L85056 79659
L85028 79687
L84971 79715
L84859 79715
L84803 79687
" />
<path d="M85337 79715
L85337 79322
" />
<path d="M85337 79434
L85365 79378
L85393 79350
L85449 79322
L85506 79322
" />
<path d="M85787 79715
L85731 79687
L85703 79659
L85674 79603
L85674 79434
L85703 79378
L85731 79350
L85787 79322
L85871 79322
L85928 79350
L85956 79378
L85984 79434
L85984 79603
L85956 79659
L85928 79687
L85871 79715
L85787 79715
" />
<path d="M86490 79715
L86490 79125
" />
<path d="M86490 79687
L86434 79715
L86321 79715
L86265 79687
L86237 79659
L86209 79603
L86209 79434
L86237 79378
L86265 79350
L86321 79322
L86434 79322
L86490 79350
" />
<path d="M87024 79322
L87024 79715
" />
<path d="M86771 79322
L86771 79631
L86799 79687
L86856 79715
L86940 79715
L86996 79687
L87024 79659
" />
<path d="M87559 79687
L87502 79715
L87390 79715
L87334 79687
L87305 79659
L87277 79603
L87277 79434
L87305 79378
L87334 79350
L87390 79322
L87502 79322
L87559 79350
" />
<path d="M87727 79322
L87952 79322
" />
<path d="M87812 79125
L87812 79631
L87840 79687
L87896 79715
L87952 79715
" />
</g>
<g style="fill:#000000; fill-opacity:0.0; 
stroke:#000000; stroke-width:39.3701; stroke-opacity:1; 
stroke-linecap:round; stroke-linejoin:round;">
</g>
<g style="fill:#000000; fill-opacity:0.0; 
stroke:#000000; stroke-width:59.0551; stroke-opacity:1; 
stroke-linecap:round; stroke-linejoin:round;">
<path d="M62755 77716
L105275 77716
" />
</g>
<g style="fill:#000000; fill-opacity:0.0; 
stroke:#000000; stroke-width:39.3701; stroke-opacity:1; 
stroke-linecap:round; stroke-linejoin:round;">
</g>
<g style="fill:#000000; fill-opacity:0.0; 
stroke:#000000; stroke-width:118.11; stroke-opacity:1; 
stroke-linecap:round; stroke-linejoin:round;">
<path d="M97092 78613
L96895 78332
" />
<path d="M96754 78613
L96754 78023
L96979 78023
L97035 78051
L97064 78079
L97092 78135
L97092 78219
L97064 78276
L97035 78304
L96979 78332
L96754 78332
" />
<path d="M97570 78585
L97514 78613
L97401 78613
L97345 78585
L97317 78529
L97317 78304
L97345 78248
L97401 78219
L97514 78219
L97570 78248
L97598 78304
L97598 78360
L97317 78416
" />
<path d="M97795 78219
L97935 78613
L98076 78219
" />
<path d="M98301 78557
L98329 78585
L98301 78613
L98273 78585
L98301 78557
L98301 78613
" />
<path d="M98301 78248
L98329 78276
L98301 78304
L98273 78276
L98301 78248
L98301 78304
" />
</g>
<g style="fill:#000000; fill-opacity:0.0; 
stroke:#000000; stroke-width:39.3701; stroke-opacity:1; 
stroke-linecap:round; stroke-linejoin:round;">
</g>
<g style="fill:#000000; fill-opacity:0.0; 
stroke:#000000; stroke-width:59.0551; stroke-opacity:1; 
stroke-linecap:round; stroke-linejoin:round;">
<path d="M63262 78585
L63346 78613
L63487 78613
L63543 78585
L63571 78557
L63599 78501
L63599 78444
L63571 78388
L63543 78360
L63487 78332
L63374 78304
L63318 78276
L63290 78248
L63262 78191
L63262 78135
L63290 78079
L63318 78051
L63374 78023
L63515 78023
L63599 78051
" />
<path d="M63852 78613
L63852 78219
" />
<path d="M63852 78023
L63824 78051
L63852 78079
L63880 78051
L63852 78023
L63852 78079
" />
<path d="M64077 78219
L64386 78219
L64077 78613
L64386 78613
" />
<path d="M64836 78585
L64780 78613
L64668 78613
L64611 78585
L64583 78529
L64583 78304
L64611 78248
L64668 78219
L64780 78219
L64836 78248
L64865 78304
L64865 78360
L64583 78416
" />
<path d="M65118 78557
L65146 78585
L65118 78613
L65089 78585
L65118 78557
L65118 78613
" />
<path d="M65118 78248
L65146 78276
L65118 78304
L65089 78276
L65118 78248
L65118 78304
" />
<path d="M65849 78023
L65849 78501
L65877 78557
L65905 78585
L65961 78613
L66074 78613
L66130 78585
L66158 78557
L66186 78501
L66186 78023
" />
<path d="M66439 78585
L66524 78613
L66664 78613
L66721 78585
L66749 78557
L66777 78501
L66777 78444
L66749 78388
L66721 78360
L66664 78332
L66552 78304
L66496 78276
L66467 78248
L66439 78191
L66439 78135
L66467 78079
L66496 78051
L66552 78023
L66692 78023
L66777 78051
" />
<path d="M67311 78613
L67030 78613
L67030 78023
" />
<path d="M67733 78585
L67677 78613
L67564 78613
L67508 78585
L67480 78529
L67480 78304
L67508 78248
L67564 78219
L67677 78219
L67733 78248
L67761 78304
L67761 78360
L67480 78416
" />
<path d="M67930 78219
L68155 78219
" />
<path d="M68014 78023
L68014 78529
L68042 78585
L68098 78613
L68155 78613
" />
<path d="M68267 78219
L68492 78219
" />
<path d="M68352 78023
L68352 78529
L68380 78585
L68436 78613
L68492 78613
" />
<path d="M68914 78585
L68858 78613
L68745 78613
L68689 78585
L68661 78529
L68661 78304
L68689 78248
L68745 78219
L68858 78219
L68914 78248
L68942 78304
L68942 78360
L68661 78416
" />
<path d="M69195 78613
L69195 78219
" />
<path d="M69195 78332
L69223 78276
L69251 78248
L69308 78219
L69364 78219
" />
</g>
<g style="fill:#000000; fill-opacity:0.0; 
stroke:#000000; stroke-width:39.3701; stroke-opacity:1; 
stroke-linecap:round; stroke-linejoin:round;">
</g>
<g style="fill:#000000; fill-opacity:0.0; 
stroke:#000000; stroke-width:59.0551; stroke-opacity:1; 
stroke-linecap:round; stroke-linejoin:round;">
<path d="M96754 79715
L96754 79125
" />
<path d="M97289 79715
L97289 79125
" />
<path d="M97289 79687
L97232 79715
L97120 79715
L97064 79687
L97035 79659
L97007 79603
L97007 79434
L97035 79378
L97064 79350
L97120 79322
L97232 79322
L97289 79350
" />
<path d="M97570 79659
L97598 79687
L97570 79715
L97542 79687
L97570 79659
L97570 79715
" />
<path d="M97570 79350
L97598 79378
L97570 79406
L97542 79378
L97570 79350
L97570 79406
" />
<path d="M98610 79715
L98273 79715
" />
<path d="M98442 79715
L98442 79125
L98385 79209
L98329 79266
L98273 79294
" />
<path d="M99285 79097
L98779 79856
" />
<path d="M99791 79715
L99454 79715
" />
<path d="M99623 79715
L99623 79125
L99566 79209
L99510 79266
L99454 79294
" />
</g>
<g style="fill:#000000; fill-opacity:0.0; 
stroke:#000000; stroke-width:39.3701; stroke-opacity:1; 
stroke-linecap:round; stroke-linejoin:round;">
</g>
<g style="fill:#000000; fill-opacity:0.0; 
stroke:#000000; stroke-width:59.0551; stroke-opacity:1; 
stroke-linecap:round; stroke-linejoin:round;">
<path d="M62755 76141
L105275 76141
" />
</g>
<g style="fill:#000000; fill-opacity:0.0; 
stroke:#000000; stroke-width:39.3701; stroke-opacity:1; 
stroke-linecap:round; stroke-linejoin:round;">
</g>
<g style="fill:#000000; fill-opacity:0.0; 
stroke:#000000; stroke-width:157.48; stroke-opacity:1; 
stroke-linecap:round; stroke-linejoin:round;">
<path d="M63327 76419
L63777 76419
" />
<path d="M63454 77206
L63552 76419
" />
<path d="M63941 77206
L64007 76681
" />
<path d="M64040 76419
L63997 76456
L64030 76494
L64072 76456
L64040 76419
L64030 76494
" />
<path d="M64269 76681
L64569 76681
" />
<path d="M64415 76419
L64330 77094
L64358 77169
L64429 77206
L64504 77206
" />
<path d="M64879 77206
L64808 77169
L64780 77094
L64865 76419
" />
<path d="M65483 77169
L65404 77206
L65254 77206
L65183 77169
L65155 77094
L65193 76794
L65239 76719
L65319 76681
L65469 76681
L65539 76719
L65568 76794
L65558 76869
L65174 76944
" />
<path d="M65863 77131
L65896 77169
L65853 77206
L65821 77169
L65863 77131
L65853 77206
" />
<path d="M65914 76719
L65947 76756
L65905 76794
L65872 76756
L65914 76719
L65905 76794
" />
</g>
<g style="fill:#000000; fill-opacity:0.0; 
stroke:#000000; stroke-width:39.3701; stroke-opacity:1; 
stroke-linecap:round; stroke-linejoin:round;">
</g>
<g style="fill:#000000; fill-opacity:0.0; 
stroke:#000000; stroke-width:59.0551; stroke-opacity:1; 
stroke-linecap:round; stroke-linejoin:round;">
<path d="M63487 75390
L63290 75390
" />
<path d="M63290 75700
L63290 75109
L63571 75109
" />
<path d="M63796 75700
L63796 75306
" />
<path d="M63796 75109
L63768 75137
L63796 75165
L63824 75137
L63796 75109
L63796 75165
" />
<path d="M64161 75700
L64105 75672
L64077 75615
L64077 75109
" />
<path d="M64611 75672
L64555 75700
L64443 75700
L64386 75672
L64358 75615
L64358 75390
L64386 75334
L64443 75306
L64555 75306
L64611 75334
L64640 75390
L64640 75447
L64358 75503
" />
<path d="M64893 75643
L64921 75672
L64893 75700
L64865 75672
L64893 75643
L64893 75700
" />
<path d="M64893 75334
L64921 75362
L64893 75390
L64865 75362
L64893 75334
L64893 75390
" />
<path d="M65596 75672
L65652 75700
L65764 75700
L65821 75672
L65849 75615
L65849 75587
L65821 75531
L65764 75503
L65680 75503
L65624 75475
L65596 75419
L65596 75390
L65624 75334
L65680 75306
L65764 75306
L65821 75334
" />
<path d="M66102 75306
L66102 75700
" />
<path d="M66102 75362
L66130 75334
L66186 75306
L66271 75306
L66327 75334
L66355 75390
L66355 75700
" />
<path d="M66889 75700
L66889 75390
L66861 75334
L66805 75306
L66692 75306
L66636 75334
" />
<path d="M66889 75672
L66833 75700
L66692 75700
L66636 75672
L66608 75615
L66608 75559
L66636 75503
L66692 75475
L66833 75475
L66889 75447
" />
<path d="M67170 75306
L67170 75897
" />
<path d="M67170 75334
L67227 75306
L67339 75306
L67395 75334
L67424 75362
L67452 75419
L67452 75587
L67424 75643
L67395 75672
L67339 75700
L67227 75700
L67170 75672
" />
<path d="M67705 75700
L67705 75109
L68042 75700
L68042 75109
" />
<path d="M68295 75672
L68352 75700
L68464 75700
L68520 75672
L68548 75615
L68548 75587
L68520 75531
L68464 75503
L68380 75503
L68323 75475
L68295 75419
L68295 75390
L68323 75334
L68380 75306
L68464 75306
L68520 75334
" />
<path d="M69026 75672
L68970 75700
L68858 75700
L68802 75672
L68773 75615
L68773 75390
L68802 75334
L68858 75306
L68970 75306
L69026 75334
L69055 75390
L69055 75447
L68773 75503
" />
<path d="M69251 75306
L69364 75700
L69476 75419
L69589 75700
L69701 75306
" />
<path d="M69926 75643
L69955 75672
L69926 75700
L69898 75672
L69926 75643
L69926 75700
" />
<path d="M70208 75700
L70208 75109
" />
<path d="M70264 75475
L70433 75700
" />
<path d="M70433 75306
L70208 75531
" />
<path d="M70686 75700
L70686 75306
" />
<path d="M70686 75109
L70658 75137
L70686 75165
L70714 75137
L70686 75109
L70686 75165
" />
<path d="M71220 75672
L71164 75700
L71051 75700
L70995 75672
L70967 75643
L70939 75587
L70939 75419
L70967 75362
L70995 75334
L71051 75306
L71164 75306
L71220 75334
" />
<path d="M71726 75700
L71726 75390
L71698 75334
L71642 75306
L71529 75306
L71473 75334
" />
<path d="M71726 75672
L71670 75700
L71529 75700
L71473 75672
L71445 75615
L71445 75559
L71473 75503
L71529 75475
L71670 75475
L71726 75447
" />
<path d="M72260 75700
L72260 75109
" />
<path d="M72260 75672
L72204 75700
L72092 75700
L72035 75672
L72007 75643
L71979 75587
L71979 75419
L72007 75362
L72035 75334
L72092 75306
L72204 75306
L72260 75334
" />
<path d="M72401 75756
L72851 75756
" />
<path d="M72992 75306
L72992 75897
" />
<path d="M72992 75334
L73048 75306
L73160 75306
L73217 75334
L73245 75362
L73273 75419
L73273 75587
L73245 75643
L73217 75672
L73160 75700
L73048 75700
L72992 75672
" />
<path d="M73779 75672
L73723 75700
L73610 75700
L73554 75672
L73526 75643
L73498 75587
L73498 75419
L73526 75362
L73554 75334
L73610 75306
L73723 75306
L73779 75334
" />
<path d="M74032 75700
L74032 75109
" />
<path d="M74032 75334
L74088 75306
L74201 75306
L74257 75334
L74285 75362
L74313 75419
L74313 75587
L74285 75643
L74257 75672
L74201 75700
L74088 75700
L74032 75672
" />
</g>
<g style="fill:#000000; fill-opacity:0.0; 
stroke:#000000; stroke-width:39.3701; stroke-opacity:1; 
stroke-linecap:round; stroke-linejoin:round;">
</g>
<g style="fill:#000000; fill-opacity:0.0; 
stroke:#000000; stroke-width:59.0551; stroke-opacity:1; 
stroke-linecap:round; stroke-linejoin:round;">
<path d="M62755 73779
L105275 73779
" />
</g>
<g style="fill:#000000; fill-opacity:0.0; 
stroke:#000000; stroke-width:39.3701; stroke-opacity:1; 
stroke-linecap:round; stroke-linejoin:round;">
</g>
<g style="fill:#000000; fill-opacity:0.0; 
stroke:#000000; stroke-width:59.0551; stroke-opacity:1; 
stroke-linecap:round; stroke-linejoin:round;">
<path d="M63262 74609
L63346 74637
L63487 74637
L63543 74609
L63571 74580
L63599 74524
L63599 74468
L63571 74412
L63543 74384
L63487 74356
L63374 74327
L63318 74299
L63290 74271
L63262 74215
L63262 74159
L63290 74102
L63318 74074
L63374 74046
L63515 74046
L63599 74074
" />
<path d="M63852 74637
L63852 74046
" />
<path d="M64105 74637
L64105 74327
L64077 74271
L64021 74243
L63937 74243
L63880 74271
L63852 74299
" />
<path d="M64611 74609
L64555 74637
L64443 74637
L64386 74609
L64358 74552
L64358 74327
L64386 74271
L64443 74243
L64555 74243
L64611 74271
L64640 74327
L64640 74384
L64358 74440
" />
<path d="M65118 74609
L65061 74637
L64949 74637
L64893 74609
L64865 74552
L64865 74327
L64893 74271
L64949 74243
L65061 74243
L65118 74271
L65146 74327
L65146 74384
L64865 74440
" />
<path d="M65314 74243
L65539 74243
" />
<path d="M65399 74046
L65399 74552
L65427 74609
L65483 74637
L65539 74637
" />
<path d="M65736 74580
L65764 74609
L65736 74637
L65708 74609
L65736 74580
L65736 74637
" />
<path d="M65736 74271
L65764 74299
L65736 74327
L65708 74299
L65736 74271
L65736 74327
" />
</g>
<g style="fill:#000000; fill-opacity:0.0; 
stroke:#000000; stroke-width:39.3701; stroke-opacity:1; 
stroke-linecap:round; stroke-linejoin:round;">
</g>
<g style="fill:#000000; fill-opacity:0.0; 
stroke:#000000; stroke-width:59.0551; stroke-opacity:1; 
stroke-linecap:round; stroke-linejoin:round;">
<path d="M70629 77716
L70629 78897
" />
</g>
<g style="fill:#000000; fill-opacity:0.0; 
stroke:#000000; stroke-width:39.3701; stroke-opacity:1; 
stroke-linecap:round; stroke-linejoin:round;">
</g>
<g style="fill:#000000; fill-opacity:0.0; 
stroke:#000000; stroke-width:59.0551; stroke-opacity:1; 
stroke-linecap:round; stroke-linejoin:round;">
<path d="M95826 77716
L95826 80275
" />
</g>
<g style="fill:#008484; fill-opacity:0.0; 
stroke:#008484; stroke-width:59.0551; stroke-opacity:1; 
stroke-linecap:round; stroke-linejoin:round;">
</g>
<g style="fill:#008484; fill-opacity:0.0; 
stroke:#008484; stroke-width:118.11; stroke-opacity:1; 
stroke-linecap:round; stroke-linejoin:round;">
<path d="M66359 36535
L66740 36535
" />
<path d="M68359 34985
L68740 34985
" />
<path d="M68550 35176
L68550 34795
" />
<path d="M55473 42526
L55569 42526
L55616 42550
L55664 42597
L55688 42692
L55688 42859
L55664 42954
L55616 43002
L55569 43026
L55473 43026
L55426 43002
L55378 42954
L55354 42859
L55354 42692
L55378 42597
L55426 42550
L55473 42526
" />
<path d="M56069 42764
L55902 42764
" />
<path d="M55902 43026
L55902 42526
L56140 42526
" />
<path d="M56497 42764
L56330 42764
" />
<path d="M56330 43026
L56330 42526
L56569 42526
" />
<path d="M66409 38335
L66790 38335
" />
<path d="M67259 41885
L67640 41885
" />
<path d="M67450 42076
L67450 41695
" />
</g>
<g style="fill:#C1C100; fill-opacity:0.0; 
stroke:#C1C100; stroke-width:118.11; stroke-opacity:1; 
stroke-linecap:round; stroke-linejoin:round;">
</g>
<g style="fill:#C1C100; fill-opacity:0.0; 
stroke:#C1C100; stroke-width:39.3701; stroke-opacity:1; 
stroke-linecap:round; stroke-linejoin:round;">
<path d="M64350 39200
L64350 38700
" />
<path d="M68100 38200
L68350 38200
" />
<path d="M67600 37700
L67600 37200
" />
<path d="M66600 37700
L66600 37200
" />
<path d="M68100 36700
L68350 36700
" />
<path d="M65850 36700
L66100 36700
" />
<path d="M66100 33700
L68100 33700
" />
<path d="M66100 42200
L68350 42200
" />
<path d="M64350 41200
L64350 42700
" />
<path d="M66600 37200 A500 500 0.0 0 0 66100 36700 " />
<path d="M68100 36700 A500 500 0.0 0 0 67600 37200 " />
</g>
<g style="fill:#008484; fill-opacity:0.0; 
stroke:#008484; stroke-width:39.3701; stroke-opacity:1; 
stroke-linecap:round; stroke-linejoin:round;">
</g>
<g style="fill:#008484; fill-opacity:0.0; 
stroke:#008484; stroke-width:118.11; stroke-opacity:1; 
stroke-linecap:round; stroke-linejoin:round;">
<path d="M67728 38976
L67490 38976
L67490 38476
" />
<path d="M67895 38714
L68061 38714
" />
<path d="M68133 38976
L67895 38976
L67895 38476
L68133 38476
" />
<path d="M68347 38976
L68347 38476
L68466 38476
L68538 38500
L68585 38547
L68609 38595
L68633 38690
L68633 38761
L68609 38857
L68585 38904
L68538 38952
L68466 38976
L68347 38976
" />
</g>
<g style="fill:#C1C100; fill-opacity:0.0; 
stroke:#C1C100; stroke-width:118.11; stroke-opacity:1; 
stroke-linecap:round; stroke-linejoin:round;">
</g>
<g style="fill:#C1C100; fill-opacity:0.0; 
stroke:#C1C100; stroke-width:39.3701; stroke-opacity:1; 
stroke-linecap:round; stroke-linejoin:round;">
<path d="M68850 38700
L68850 41700
" />
<path d="M60350 38200
L63850 38200
" />
<path d="M63350 43200
L63850 43200
" />
<path d="M60350 43200
L63350 43200
" />
<path d="M65350 39200
L65350 38700
" />
<path d="M65350 41700
L65350 41200
" />
<path d="M63850 37200
L63350 37200
" />
<path d="M64350 36200
L64350 36700
" />
<path d="M64850 35700 A500 500 0.0 0 0 64350 36200 " />
<path d="M63850 37200 A500 500 0.0 0 0 64350 36700 " />
<path d="M65350 41200 A500 500 0.0 0 0 64850 40700 " />
<path d="M64850 39700 A500 500 0.0 0 0 65350 39200 " />
<path d="M65850 38200 A500 500 0.0 0 0 65350 38700 " />
<path d="M64350 33700
L64350 34200
" />
<path d="M60350 33200
L63850 33200
" />
<path d="M64350 34200 A500 500 0.0 0 0 64850 34700 " />
<path d="M64350 33700 A500 500 0.0 0 0 63850 33200 " />
<path d="M60350 37200
L63800 37200
" />
<path d="M59850 34200
L59850 33750
" />
<path d="M60350 33200 A500 500 0.0 0 0 59850 33700 " />
</g>
<g style="fill:#008484; fill-opacity:0.0; 
stroke:#008484; stroke-width:39.3701; stroke-opacity:1; 
stroke-linecap:round; stroke-linejoin:round;">
</g>
<g style="fill:#008484; fill-opacity:0.0; 
stroke:#008484; stroke-width:118.11; stroke-opacity:1; 
stroke-linecap:round; stroke-linejoin:round;">
<path d="M53352 39961
L53376 39890
L53376 39771
L53352 39723
L53328 39700
L53280 39676
L53233 39676
L53185 39700
L53161 39723
L53138 39771
L53114 39866
L53090 39914
L53066 39938
L53019 39961
L52971 39961
L52923 39938
L52900 39914
L52876 39866
L52876 39747
L52900 39676
" />
<path d="M53042 39461
L53376 39461
" />
<path d="M53090 39461
L53066 39438
L53042 39390
L53042 39319
L53066 39271
L53114 39247
L53376 39247
" />
<path d="M53376 38795
L53114 38795
L53066 38819
L53042 38866
L53042 38961
L53066 39009
" />
<path d="M53352 38795
L53376 38842
L53376 38961
L53352 39009
L53304 39033
L53257 39033
L53209 39009
L53185 38961
L53185 38842
L53161 38795
" />
<path d="M53042 38557
L53542 38557
" />
<path d="M53066 38557
L53042 38509
L53042 38414
L53066 38366
L53090 38342
L53138 38319
L53280 38319
L53328 38342
L53352 38366
L53376 38414
L53376 38509
L53352 38557
" />
<path d="M53376 38104
L52876 38104
L53376 37819
L52876 37819
" />
<path d="M53352 37604
L53376 37557
L53376 37461
L53352 37414
L53304 37390
L53280 37390
L53233 37414
L53209 37461
L53209 37533
L53185 37580
L53138 37604
L53114 37604
L53066 37580
L53042 37533
L53042 37461
L53066 37414
" />
<path d="M53352 36985
L53376 37033
L53376 37128
L53352 37176
L53304 37199
L53114 37199
L53066 37176
L53042 37128
L53042 37033
L53066 36985
L53114 36961
L53161 36961
L53209 37199
" />
<path d="M53042 36795
L53376 36700
L53138 36604
L53376 36509
L53042 36414
" />
</g>
<g style="fill:#008484; fill-opacity:0.0; 
stroke:#008484; stroke-width:100; stroke-opacity:1; 
stroke-linecap:round; stroke-linejoin:round;">
<path d="M65688 34230
L65688 33830
L65840 33830
L65878 33850
L65897 33869
L65916 33907
L65916 33964
L65897 34002
L65878 34021
L65840 34040
L65688 34040
" />
<path d="M66088 34230
L66088 33830
" />
<path d="M66259 34230
L66259 34021
L66240 33983
L66202 33964
L66145 33964
L66107 33983
L66088 34002
" />
<path d="M66507 34230
L66469 34211
L66450 34192
L66430 34154
L66430 34040
L66450 34002
L66469 33983
L66507 33964
L66564 33964
L66602 33983
L66621 34002
L66640 34040
L66640 34154
L66621 34192
L66602 34211
L66564 34230
L66507 34230
" />
<path d="M66754 33964
L66907 33964
" />
<path d="M66811 33830
L66811 34173
L66830 34211
L66869 34230
L66907 34230
" />
<path d="M67097 34230
L67059 34211
L67040 34192
L67021 34154
L67021 34040
L67040 34002
L67059 33983
L67097 33964
L67154 33964
L67192 33983
L67211 34002
L67230 34040
L67230 34154
L67211 34192
L67192 34211
L67154 34230
L67097 34230
" />
</g>
<g style="fill:#008484; fill-opacity:0.0; 
stroke:#008484; stroke-width:118.11; stroke-opacity:1; 
stroke-linecap:round; stroke-linejoin:round;">
<path d="M61019 39902
L61090 39926
L61209 39926
L61257 39902
L61280 39878
L61304 39830
L61304 39783
L61280 39735
L61257 39711
L61209 39688
L61114 39664
L61066 39640
L61042 39616
L61019 39569
L61019 39521
L61042 39473
L61066 39450
L61114 39426
L61233 39426
L61304 39450
" />
<path d="M61519 39592
L61519 40092
" />
<path d="M61519 39616
L61566 39592
L61661 39592
L61709 39616
L61733 39640
L61757 39688
L61757 39830
L61733 39878
L61709 39902
L61661 39926
L61566 39926
L61519 39902
" />
<path d="M62161 39902
L62114 39926
L62019 39926
L61971 39902
L61947 39854
L61947 39664
L61971 39616
L62019 39592
L62114 39592
L62161 39616
L62185 39664
L62185 39711
L61947 39759
" />
<path d="M62614 39926
L62614 39664
L62590 39616
L62542 39592
L62447 39592
L62400 39616
" />
<path d="M62614 39902
L62566 39926
L62447 39926
L62400 39902
L62376 39854
L62376 39807
L62400 39759
L62447 39735
L62566 39735
L62614 39711
" />
<path d="M62852 39926
L62852 39426
" />
<path d="M62900 39735
L63042 39926
" />
<path d="M63042 39592
L62852 39783
" />
<path d="M63447 39902
L63400 39926
L63304 39926
L63257 39902
L63233 39854
L63233 39664
L63257 39616
L63304 39592
L63400 39592
L63447 39616
L63471 39664
L63471 39711
L63233 39759
" />
<path d="M63685 39926
L63685 39592
" />
<path d="M63685 39688
L63709 39640
L63733 39616
L63780 39592
L63828 39592
" />
</g>
<g style="fill:#008484; fill-opacity:0.0; 
stroke:#008484; stroke-width:100; stroke-opacity:1; 
stroke-linecap:round; stroke-linejoin:round;">
<path d="M61321 36680
L61550 36680
" />
<path d="M61435 37080
L61435 36680
" />
<path d="M61740 37080
L61702 37061
L61683 37042
L61664 37004
L61664 36890
L61683 36852
L61702 36833
L61740 36814
L61797 36814
L61835 36833
L61854 36852
L61873 36890
L61873 37004
L61854 37042
L61835 37061
L61797 37080
L61740 37080
" />
<path d="M62216 36814
L62216 37080
" />
<path d="M62045 36814
L62045 37023
L62064 37061
L62102 37080
L62159 37080
L62197 37061
L62216 37042
" />
<path d="M62578 37061
L62540 37080
L62464 37080
L62426 37061
L62407 37042
L62388 37004
L62388 36890
L62407 36852
L62426 36833
L62464 36814
L62540 36814
L62578 36833
" />
<path d="M62750 37080
L62750 36680
" />
<path d="M62921 37080
L62921 36871
L62902 36833
L62864 36814
L62807 36814
L62769 36833
L62750 36852
" />
</g>
<g style="fill:#008484; fill-opacity:0.0; 
stroke:#008484; stroke-width:118.11; stroke-opacity:1; 
stroke-linecap:round; stroke-linejoin:round;">
<path d="M53676 34219
L53176 34219
L53176 34100
L53200 34028
L53247 33980
L53295 33957
L53390 33933
L53461 33933
L53557 33957
L53604 33980
L53652 34028
L53676 34100
L53676 34219
" />
<path d="M53342 33504
L53676 33504
" />
<path d="M53152 33623
L53509 33742
L53509 33433
" />
<path d="M57383 34207
L57383 33969
" />
<path d="M57526 34254
L57026 34088
L57526 33921
" />
<path d="M57026 33802
L57026 33492
L57216 33659
L57216 33588
L57240 33540
L57264 33516
L57311 33492
L57430 33492
L57478 33516
L57502 33540
L57526 33588
L57526 33730
L57502 33778
L57478 33802
" />
<path d="M57676 37419
L57176 37419
L57176 37300
L57200 37228
L57247 37180
L57295 37157
L57390 37133
L57461 37133
L57557 37157
L57604 37180
L57652 37228
L57676 37300
L57676 37419
" />
<path d="M57223 36942
L57200 36919
L57176 36871
L57176 36752
L57200 36704
L57223 36680
L57271 36657
L57319 36657
L57390 36680
L57676 36966
L57676 36657
" />
<path d="M57250 39630
L57226 39678
L57226 39750
L57250 39821
L57297 39869
L57345 39892
L57440 39916
L57511 39916
L57607 39892
L57654 39869
L57702 39821
L57726 39750
L57726 39702
L57702 39630
L57678 39607
L57511 39607
L57511 39702
" />
<path d="M57726 39392
L57226 39392
L57726 39107
L57226 39107
" />
<path d="M57726 38869
L57226 38869
L57226 38750
L57250 38678
L57297 38630
L57345 38607
L57440 38583
L57511 38583
L57607 38607
L57654 38630
L57702 38678
L57726 38750
L57726 38869
" />
</g>
<g style="fill:#008484; fill-opacity:0.0; 
stroke:#008484; stroke-width:100; stroke-opacity:1; 
stroke-linecap:round; stroke-linejoin:round;">
<path d="M52626 41769
L52126 41769
L52126 41650
L52150 41578
L52197 41530
L52245 41507
L52340 41483
L52411 41483
L52507 41507
L52554 41530
L52602 41578
L52626 41650
L52626 41769
" />
<path d="M52126 41173
L52126 41126
L52150 41078
L52173 41054
L52221 41030
L52316 41007
L52435 41007
L52530 41030
L52578 41054
L52602 41078
L52626 41126
L52626 41173
L52602 41221
L52578 41245
L52530 41269
L52435 41292
L52316 41292
L52221 41269
L52173 41245
L52150 41221
L52126 41173
" />
</g>
<g style="fill:#008484; fill-opacity:0.0; 
stroke:#008484; stroke-width:118.11; stroke-opacity:1; 
stroke-linecap:round; stroke-linejoin:round;">
<path d="M57526 41069
L57026 41069
L57026 40950
L57050 40878
L57097 40830
L57145 40807
L57240 40783
L57311 40783
L57407 40807
L57454 40830
L57502 40878
L57526 40950
L57526 41069
" />
<path d="M57526 40307
L57526 40592
" />
<path d="M57526 40450
L57026 40450
L57097 40497
L57145 40545
L57169 40592
" />
<path d="M52009 38485
L52390 38485
" />
<path d="M52200 38676
L52200 38295
" />
<path d="M52185 38090
L52185 37709
" />
<path d="M45625 33442
L46074 33442
" />
<path d="M45625 42742
L46074 42742
" />
<path d="M45850 42967
L45850 42517
" />
<path d="M48283 43126
L48283 42626
L48473 42626
L48521 42650
L48545 42673
L48569 42721
L48569 42792
L48545 42840
L48521 42864
L48473 42888
L48283 42888
" />
<path d="M48735 42626
L48854 43126
L48950 42769
L49045 43126
L49164 42626
" />
<path d="M49640 43126
L49473 42888
" />
<path d="M49354 43126
L49354 42626
L49545 42626
L49592 42650
L49616 42673
L49640 42721
L49640 42792
L49616 42840
L49592 42864
L49545 42888
L49354 42888
" />
<path d="M48569 33350
L48521 33326
L48450 33326
L48378 33350
L48330 33397
L48307 33445
L48283 33540
L48283 33611
L48307 33707
L48330 33754
L48378 33802
L48450 33826
L48497 33826
L48569 33802
L48592 33778
L48592 33611
L48497 33611
" />
<path d="M48807 33826
L48807 33326
L49092 33826
L49092 33326
" />
<path d="M49330 33826
L49330 33326
L49450 33326
L49521 33350
L49569 33397
L49592 33445
L49616 33540
L49616 33611
L49592 33707
L49569 33754
L49521 33802
L49450 33826
L49330 33826
" />
</g>
<g style="fill:#C1C100; fill-opacity:0.0; 
stroke:#C1C100; stroke-width:118.11; stroke-opacity:1; 
stroke-linecap:round; stroke-linejoin:round;">
</g>
<g style="fill:#C1C100; fill-opacity:0.0; 
stroke:#C1C100; stroke-width:39.3701; stroke-opacity:1; 
stroke-linecap:round; stroke-linejoin:round;">
<path d="M66100 38200
L65850 38200
" />
<path d="M65850 42200
L66100 42200
" />
<path d="M68100 33700
L68350 33700
" />
<path d="M65850 33700
L66100 33700
" />
<path d="M52850 33200
L57850 33200
" />
<path d="M59850 34200
L59850 34700
" />
<path d="M68850 36200
L68850 35700
" />
<path d="M52850 43200
L57850 43200
" />
<path d="M68850 35700
L68850 34200
" />
<path d="M59850 39700
L59850 38700
" />
<path d="M59850 42700
L59850 41700
" />
<path d="M68850 38700 A500 500 0.0 0 0 68350 38200 " />
<path d="M68350 42200 A500 500 0.0 0 0 68850 41700 " />
<path d="M68350 36700 A500 500 0.0 0 0 68850 36200 " />
<path d="M68850 34200 A500 500 0.0 0 0 68350 33700 " />
<path d="M66100 38200 A500 500 0.0 0 0 66600 37700 " />
<path d="M65350 41700 A500 500 0.0 0 0 65850 42200 " />
<path d="M67600 37700 A500 500 0.0 0 0 68100 38200 " />
<path d="M65850 33700 A500 500 0.0 0 0 65350 34200 " />
<path d="M65350 36200 A500 500 0.0 0 0 65850 36700 " />
<path d="M64350 38700 A500 500 0.0 0 0 63850 38200 " />
<path d="M63850 43200 A500 500 0.0 0 0 64350 42700 " />
<path d="M59850 42700 A500 500 0.0 0 0 60350 43200 " />
<path d="M60350 38200 A500 500 0.0 0 0 59850 38700 " />
<path d="M59850 36700 A500 500 0.0 0 0 60350 37200 " />
<path d="M64850 34700 A500 500 0.0 0 0 65350 34200 " />
<path d="M64350 39200 A500 500 0.0 0 0 64850 39700 " />
<path d="M65350 36200 A500 500 0.0 0 0 64850 35700 " />
<path d="M64850 40700 A500 500 0.0 0 0 64350 41200 " />
<path d="M58850 36700
L58850 39700
" />
<path d="M57850 43200 A1000 1000 0.0 0 0 58850 42200 " />
<path d="M58850 34700
L58850 34200
" />
<path d="M58850 42200
L58850 41700
" />
<path d="M59350 40200 A500 500 0.0 0 0 59850 39700 " />
<path d="M58850 39700 A500 500 0.0 0 0 59350 40200 " />
<path d="M59850 36700 A500 500 0.0 0 0 59350 36200 " />
<path d="M59350 36200 A500 500 0.0 0 0 58850 36700 " />
<path d="M59850 41700 A500 500 0.0 0 0 59350 41200 " />
<path d="M59350 41200 A500 500 0.0 0 0 58850 41700 " />
<path d="M59350 35200 A500 500 0.0 0 0 59850 34700 " />
<path d="M58850 34700 A500 500 0.0 0 0 59350 35200 " />
<path d="M58850 34200 A1000 1000 0.0 0 0 57850 33200 " />
<path d="M51850 39700
L51850 36700
" />
<path d="M50850 36700
L50850 39700
" />
<path d="M51350 40200 A500 500 0.0 0 0 51850 39700 " />
<path d="M50850 39700 A500 500 0.0 0 0 51350 40200 " />
<path d="M45350 33200
L49850 33200
" />
<path d="M50850 34200 A1000 1000 0.0 0 0 49850 33200 " />
<path d="M51850 36700 A500 500 0.0 0 0 51350 36200 " />
<path d="M51350 36200 A500 500 0.0 0 0 50850 36700 " />
<path d="M51850 42200
L51850 41700
" />
<path d="M50850 42200
L50850 41700
" />
<path d="M45350 43200
L49850 43200
" />
<path d="M51850 34700
L51850 34200
" />
<path d="M50850 34200
L50850 34700
" />
<path d="M52850 33200 A1000 1000 0.0 0 0 51850 34200 " />
<path d="M51350 35200 A500 500 0.0 0 0 51850 34700 " />
<path d="M50850 34700 A500 500 0.0 0 0 51350 35200 " />
<path d="M51850 42200 A1000 1000 0.0 0 0 52850 43200 " />
<path d="M51850 41700 A500 500 0.0 0 0 51350 41200 " />
<path d="M51350 41200 A500 500 0.0 0 0 50850 41700 " />
<path d="M44850 41700 A500 500 0.0 0 0 44350 42200 " />
<path d="M44350 42200 A1000 1000 0.0 0 0 45350 43200 " />
<path d="M45350 35200
L45350 41200
" />
<path d="M44850 41700 A500 500 0.0 0 0 45350 41200 " />
<path d="M45350 35200 A500 500 0.0 0 0 44850 34700 " />
<path d="M44350 34200 A500 500 0.0 0 0 44850 34700 " />
<path d="M49850 43200 A1000 1000 0.0 0 0 50850 42200 " />
<path d="M45350 33200 A1000 1000 0.0 0 0 44350 34200 " />
</g>
<g style="fill:#008484; fill-opacity:0.0; 
stroke:#008484; stroke-width:39.3701; stroke-opacity:1; 
stroke-linecap:round; stroke-linejoin:round;">
</g>
<g style="fill:#008484; fill-opacity:0.0; 
stroke:#008484; stroke-width:118.11; stroke-opacity:1; 
stroke-linecap:round; stroke-linejoin:round;">
<path d="M53240 42526
L53335 42526
L53383 42550
L53430 42597
L53454 42692
L53454 42859
L53430 42954
L53383 43002
L53335 43026
L53240 43026
L53192 43002
L53145 42954
L53121 42859
L53121 42692
L53145 42597
L53192 42550
L53240 42526
" />
<path d="M53669 43026
L53669 42526
L53954 43026
L53954 42526
" />
</g>
<g style="fill:#008484; fill-opacity:0.0; 
stroke:#008484; stroke-width:59.0551; stroke-opacity:1; 
stroke-linecap:round; stroke-linejoin:round;">
<path d="M65474 40501
L65557 40272
L65653 40447
L65672 40394
L65703 40365
L65727 40354
L65769 40349
L65857 40381
L65885 40412
L65897 40436
L65901 40478
L65863 40583
L65833 40612
L65809 40623
" />
<path d="M65602 40149
L65685 39920
L65781 40095
L65801 40042
L65831 40013
L65855 40002
L65897 39997
L65985 40029
L66014 40060
L66025 40084
L66030 40125
L65991 40231
L65961 40260
L65937 40271
" />
<path d="M65769 39691
L65782 39656
L65812 39627
L65836 39616
L65878 39611
L65955 39619
L66043 39651
L66107 39694
L66136 39725
L66147 39749
L66152 39790
L66139 39826
L66108 39855
L66084 39866
L66043 39871
L65966 39862
L65878 39830
L65814 39787
L65785 39757
L65774 39733
L65769 39691
" />
<path d="M54965 35978
L54965 35584
" />
<path d="M55134 35959
L55190 35978
L55284 35978
L55321 35959
L55340 35940
L55359 35903
L55359 35865
L55340 35828
L55321 35809
L55284 35790
L55209 35771
L55171 35753
L55153 35734
L55134 35696
L55134 35659
L55153 35621
L55171 35603
L55209 35584
L55303 35584
L55359 35603
" />
<path d="M55528 35978
L55528 35584
L55678 35584
L55715 35603
L55734 35621
L55753 35659
L55753 35715
L55734 35753
L55715 35771
L55678 35790
L55528 35790
" />
<path d="M54200 35728
L54499 35728
" />
<path d="M56578 35849
L56578 35550
" />
<path d="M56728 35699
L56428 35699
" />
<path d="M55415 39437
L55415 39249
" />
<path d="M55528 39474
L55134 39343
L55528 39212
" />
<path d="M55134 39137
L55134 38912
" />
<path d="M55528 39024
L55134 39024
" />
<path d="M55134 38837
L55134 38612
" />
<path d="M55528 38724
L55134 38724
" />
<path d="M55528 38481
L55134 38481
" />
<path d="M55528 38293
L55134 38293
L55528 38068
L55134 38068
" />
<path d="M55340 37806
L55528 37806
" />
<path d="M55134 37937
L55340 37806
L55134 37675
" />
<path d="M55303 37487
L55284 37525
L55265 37543
L55228 37562
L55209 37562
L55171 37543
L55153 37525
L55134 37487
L55134 37412
L55153 37375
L55171 37356
L55209 37337
L55228 37337
L55265 37356
L55284 37375
L55303 37412
L55303 37487
L55321 37525
L55340 37543
L55378 37562
L55453 37562
L55490 37543
L55509 37525
L55528 37487
L55528 37412
L55509 37375
L55490 37356
L55453 37337
L55378 37337
L55340 37356
L55321 37375
L55303 37412
" />
<path d="M55134 36981
L55134 37168
L55321 37187
L55303 37168
L55284 37131
L55284 37037
L55303 37000
L55321 36981
L55359 36962
L55453 36962
L55490 36981
L55509 37000
L55528 37037
L55528 37131
L55509 37168
L55490 37187
" />
</g>
<g style="fill:#008484; fill-opacity:0.0; 
stroke:#008484; stroke-width:78.7402; stroke-opacity:1; 
stroke-linecap:round; stroke-linejoin:round;">
<path d="M67909 40408
L68164 40663
" />
<path d="M67909 40663
L68164 40408
" />
</g>
<g style="fill:#008484; fill-opacity:0.0; 
stroke:#008484; stroke-width:59.0551; stroke-opacity:1; 
stroke-linecap:round; stroke-linejoin:round;">
<path d="M66800 36233
L66893 36140
" />
<path d="M67079 36246
L66946 36379
L66668 36101
L66800 35968
" />
<path d="M68249 35024
L68249 35050
L68222 35103
L68196 35130
L68143 35156
L68090 35156
L68050 35143
L67984 35103
L67944 35063
L67904 34997
L67891 34957
L67891 34904
L67917 34851
L67944 34825
L67997 34798
L68023 34798
" />
</g>
<g style="fill:#008484; fill-opacity:0.0; 
stroke:#008484; stroke-width:100; stroke-opacity:1; 
stroke-linecap:round; stroke-linejoin:round;">
<path d="M67117 39447
L66460 39207
" />
<path d="M66460 39207
L65776 41087
" />
<path d="M65776 41087
L66433 41326
" />
<path d="M66433 41326
L67117 39447
" />
</g>
<g style="fill:#008484; fill-opacity:0.0; 
stroke:#008484; stroke-width:59.0551; stroke-opacity:1; 
stroke-linecap:round; stroke-linejoin:round;">
<path d="M66742 39310
L66913 38840
" />
<path d="M66057 41189
L65886 41659
" />
<path d="M61349 42216
L61247 42437
" />
<path d="M61247 42437
L61459 42641
" />
<path d="M61459 42641
L61664 42535
" />
<path d="M61664 42535
L61774 42598
" />
<path d="M62341 42590
L62471 42515
" />
<path d="M62471 42515
L62644 42645
" />
<path d="M62644 42645
L62830 42452
" />
<path d="M62830 42452
L62719 42263
" />
<path d="M62719 42263
L62794 42078
" />
<path d="M62794 42078
L63034 42004
" />
<path d="M63034 42004
L63034 41736
" />
<path d="M63034 41736
L62814 41681
" />
<path d="M62814 41681
L62735 41456
" />
<path d="M62735 41456
L62841 41271
" />
<path d="M62841 41271
L62656 41070
" />
<path d="M62656 41070
L62452 41173
" />
<path d="M62452 41173
L62267 41094
" />
<path d="M62267 41094
L62200 40881
" />
<path d="M62200 40881
L61928 40874
" />
<path d="M61928 40874
L61845 41090
" />
<path d="M61845 41090
L61680 41157
" />
<path d="M61680 41157
L61463 41051
" />
<path d="M61463 41051
L61259 41259
" />
<path d="M61259 41259
L61357 41472
" />
<path d="M61357 41472
L61290 41661
" />
<path d="M61290 41661
L61074 41700
" />
<path d="M61074 41700
L61070 41976
" />
<path d="M61070 41976
L61290 42055
" />
<path d="M61290 42055
L61345 42212
" />
<path d="M62188 42204
L62306 42145
" />
<path d="M62306 42145
L62385 42067
" />
<path d="M62385 42067
L62444 41909
" />
<path d="M62444 41909
L62444 41752
" />
<path d="M62444 41752
L62385 41614
" />
<path d="M62385 41614
L62207 41476
" />
<path d="M62207 41476
L62030 41456
" />
<path d="M62030 41456
L61873 41496
" />
<path d="M61873 41496
L61715 41633
" />
<path d="M61715 41633
L61656 41811
" />
<path d="M61656 41811
L61676 42007
" />
<path d="M61676 42007
L61774 42126
" />
<path d="M61774 42126
L61912 42204
" />
<path d="M61912 42204
L61774 42598
" />
<path d="M62188 42204
L62345 42598
" />
<path d="M44775 35375
L45550 34050
" />
<path d="M44725 41025
L45550 42350
" />
<path d="M44775 35365 A1025.91 1025.91 0.0 0 0 44825 36815 " />
<path d="M44775 39580 A1025.91 1025.91 0.0 0 0 44725 41030 " />
<path d="M44775 39600 A1980.21 1980.21 0.0 0 0 44825 36800 " />
<path d="M50450 41200
L49125 42350
" />
<path d="M49150 34050
L50475 35225
" />
<path d="M50450 35200
L50450 41200
" />
<path d="M45550 34050
L49150 34050
" />
<path d="M45550 42350
L49150 42350
" />
<path d="M55850 36200
L55850 36700
" />
<path d="M55850 36700
L54850 36700
" />
<path d="M54850 36700
L54850 36200
" />
<path d="M56350 36200
L56350 40200
" />
<path d="M56350 40200
L54350 40200
" />
<path d="M54350 40200
L54350 36200
" />
<path d="M54350 36200
L56350 36200
" />
</g>
<g style="fill:#008484; fill-opacity:0.0; 
stroke:#008484; stroke-width:100; stroke-opacity:1; 
stroke-linecap:round; stroke-linejoin:round;">
<path d="M58150 35100
L58150 36100
" />
<path d="M57150 35100
L57150 36100
" />
<path d="M57650 34600 A500 500 0.0 0 0 57150 35100 " />
<path d="M58150 35100 A500 500 0.0 0 0 57650 34600 " />
<path d="M57150 36100 A500 500 0.0 0 0 57650 36600 " />
<path d="M57650 36600 A500 500 0.0 0 0 58150 36100 " />
</g>
<g style="fill:#008484; fill-opacity:0.0; 
stroke:#008484; stroke-width:59.0551; stroke-opacity:1; 
stroke-linecap:round; stroke-linejoin:round;">
<path d="M66237.3 40386.3 A1147.83 1147.83 0.0 1 0 67075.2 39540 " />
<path d="M66239 40375
L67075 39539
" />
<circle cx="67353.6" cy="40653.6" r="991.313" /> 
<path d="M67297 36193
L67367 36263
" />
<path d="M66880 35776
L67297 36193
" />
<path d="M67576 35080
L67924 35428
" />
</g>
<g style="fill:#008484; fill-opacity:0.0; 
stroke:#008484; stroke-width:100; stroke-opacity:1; 
stroke-linecap:round; stroke-linejoin:round;">
<path d="M67812 34994
L67105 34287
" />
</g>
<g style="fill:#008484; fill-opacity:0.0; 
stroke:#008484; stroke-width:60; stroke-opacity:1; 
stroke-linecap:round; stroke-linejoin:round;">
<path d="M66843.9 34902.5 A250 250 0.0 0 0 66843.9 35256.1 " />
<path d="M66737.9 34796.4 A400 400 0.0 0 0 66737.9 35362.1 " />
<path d="M67197.5 35256.1 A250 250 0.0 0 0 67197.5 34902.5 " />
<path d="M67303.6 35362.1 A400 400 0.0 0 0 67303.6 34796.4 " />
</g>
<g style="fill:#008484; fill-opacity:0.0; 
stroke:#008484; stroke-width:100; stroke-opacity:1; 
stroke-linecap:round; stroke-linejoin:round;">
<path d="M67091.8 34282.5 A800 800 0.0 0 0 66455 34513.6 " />
<path d="M66455.5 34514.6 A799 799 0.0 0 0 66256.3 35311.9 " />
<path d="M67586.4 35643.5 A798.972 798.972 0.0 0 0 67816.9 35012.8 " />
<path d="M66811 35851.3 A800 800 0.0 0 0 67586.4 35645 " />
<path d="M66254.5 35309.2 A800 800 0.0 0 0 66455 35645 " />
<path d="M66455.4 35644.7 A799.576 799.576 0.0 0 0 66835.4 35857.1 " />
</g>
<g style="fill:#008484; fill-opacity:0.0; 
stroke:#008484; stroke-width:59.0551; stroke-opacity:1; 
stroke-linecap:round; stroke-linejoin:round;">
<path d="M56250 40500
L56250 42300
" />
<path d="M53250 40500
L53250 42300
" />
<path d="M53250 40500
L56250 40500
" />
<path d="M56250 42300
L53250 42300
" />
<circle cx="62050" cy="40700" r="2441" /> 
<path d="M56686 41253
L56686 42670
" />
<path d="M57513 41253
L57513 42670
" />
<path d="M57218 42060
L56981 42060
" />
<path d="M56981 42060
L57100 41942
" />
<path d="M57100 41942
L57178 42021
" />
<path d="M57178 42021
L57080 42021
" />
<path d="M57080 42021
L57100 42001
" />
<path d="M57296 41903
L56903 41903
" />
<path d="M57100 42100
L57100 42296
" />
<path d="M57100 41903
L57296 42100
" />
<path d="M57296 42100
L56903 42100
" />
<path d="M56903 42100
L57100 41903
" />
<path d="M57676 41193
L57676 40406
" />
<path d="M58523 40406
L58523 41193
" />
</g>
<g style="fill:#840000; fill-opacity:0.0; 
stroke:#840000; stroke-width:59.0551; stroke-opacity:1; 
stroke-linecap:round; stroke-linejoin:round;">
</g>
<g style="fill:#840000; fill-opacity:1.0; 
stroke:#840000; stroke-width:0; stroke-opacity:1; 
stroke-linecap:round; stroke-linejoin:round;">
<circle cx="66913" cy="38840.5" r="393.5" /> 
</g>
<g style="fill:#840000; fill-opacity:1.0; 
stroke:#840000; stroke-width:39.3701; stroke-opacity:1; 
stroke-linecap:round; stroke-linejoin:round;">
</g>
<g style="fill:#840000; fill-opacity:1.0; 
stroke:#840000; stroke-width:0; stroke-opacity:1; 
stroke-linecap:round; stroke-linejoin:round;">
<circle cx="65887" cy="41659.5" r="393.5" /> 
</g>
<g style="fill:#840000; fill-opacity:1.0; 
stroke:#840000; stroke-width:39.3701; stroke-opacity:1; 
stroke-linecap:round; stroke-linejoin:round;">
</g>
<g style="fill:#840000; fill-opacity:1.0; 
stroke:#840000; stroke-width:0; stroke-opacity:1; 
stroke-linecap:round; stroke-linejoin:round;">
<circle cx="56350" cy="34100" r="300" /> 
</g>
<g style="fill:#840000; fill-opacity:1.0; 
stroke:#840000; stroke-width:39.3701; stroke-opacity:1; 
stroke-linecap:round; stroke-linejoin:round;">
</g>
<g style="fill:#840000; fill-opacity:1.0; 
stroke:#840000; stroke-width:0; stroke-opacity:1; 
stroke-linecap:round; stroke-linejoin:round;">
<polyline style="fill-rule:evenodd;"
points="56050,34800
56650,34800
56650,35400
56050,35400
56050,34800
" /> 
<circle cx="55350" cy="34100" r="300" /> 
</g>
<g style="fill:#840000; fill-opacity:1.0; 
stroke:#840000; stroke-width:39.3701; stroke-opacity:1; 
stroke-linecap:round; stroke-linejoin:round;">
</g>
<g style="fill:#840000; fill-opacity:1.0; 
stroke:#840000; stroke-width:0; stroke-opacity:1; 
stroke-linecap:round; stroke-linejoin:round;">
<circle cx="55350" cy="35100" r="300" /> 
</g>
<g style="fill:#840000; fill-opacity:1.0; 
stroke:#840000; stroke-width:39.3701; stroke-opacity:1; 
stroke-linecap:round; stroke-linejoin:round;">
</g>
<g style="fill:#840000; fill-opacity:1.0; 
stroke:#840000; stroke-width:0; stroke-opacity:1; 
stroke-linecap:round; stroke-linejoin:round;">
<circle cx="54350" cy="34100" r="300" /> 
</g>
<g style="fill:#840000; fill-opacity:1.0; 
stroke:#840000; stroke-width:39.3701; stroke-opacity:1; 
stroke-linecap:round; stroke-linejoin:round;">
</g>
<g style="fill:#840000; fill-opacity:1.0; 
stroke:#840000; stroke-width:600; stroke-opacity:1; 
stroke-linecap:round; stroke-linejoin:round;">
</g>
<g style="fill:#840000; fill-opacity:0.0; 
stroke:#840000; stroke-width:600; stroke-opacity:1; 
stroke-linecap:round; stroke-linejoin:round;">
<path d="M54350 35100
L54350 35100
" />
</g>
<g style="fill:#840000; fill-opacity:1.0; 
stroke:#840000; stroke-width:0; stroke-opacity:1; 
stroke-linecap:round; stroke-linejoin:round;">
<circle cx="46750" cy="34100" r="450" /> 
</g>
<g style="fill:#840000; fill-opacity:1.0; 
stroke:#840000; stroke-width:39.3701; stroke-opacity:1; 
stroke-linecap:round; stroke-linejoin:round;">
</g>
<g style="fill:#840000; fill-opacity:1.0; 
stroke:#840000; stroke-width:0; stroke-opacity:1; 
stroke-linecap:round; stroke-linejoin:round;">
<circle cx="46750" cy="42300" r="450" /> 
</g>
<g style="fill:#840000; fill-opacity:1.0; 
stroke:#840000; stroke-width:39.3701; stroke-opacity:1; 
stroke-linecap:round; stroke-linejoin:round;">
</g>
<g style="fill:#840000; fill-opacity:1.0; 
stroke:#840000; stroke-width:0; stroke-opacity:1; 
stroke-linecap:round; stroke-linejoin:round;">
<circle cx="47950" cy="34100" r="450" /> 
</g>
<g style="fill:#840000; fill-opacity:1.0; 
stroke:#840000; stroke-width:39.3701; stroke-opacity:1; 
stroke-linecap:round; stroke-linejoin:round;">
</g>
<g style="fill:#840000; fill-opacity:1.0; 
stroke:#840000; stroke-width:0; stroke-opacity:1; 
stroke-linecap:round; stroke-linejoin:round;">
<circle cx="47950" cy="42300" r="450" /> 
</g>
<g style="fill:#840000; fill-opacity:1.0; 
stroke:#840000; stroke-width:39.3701; stroke-opacity:1; 
stroke-linecap:round; stroke-linejoin:round;">
</g>
<g style="fill:#840000; fill-opacity:1.0; 
stroke:#840000; stroke-width:0; stroke-opacity:1; 
stroke-linecap:round; stroke-linejoin:round;">
<polyline style="fill-rule:evenodd;"
points="53575,36425
54125,36425
54125,36975
53575,36975
53575,36425
" /> 
<circle cx="53850" cy="37700" r="275" /> 
</g>
<g style="fill:#840000; fill-opacity:1.0; 
stroke:#840000; stroke-width:39.3701; stroke-opacity:1; 
stroke-linecap:round; stroke-linejoin:round;">
</g>
<g style="fill:#840000; fill-opacity:1.0; 
stroke:#840000; stroke-width:0; stroke-opacity:1; 
stroke-linecap:round; stroke-linejoin:round;">
<circle cx="53850" cy="38700" r="275" /> 
</g>
<g style="fill:#840000; fill-opacity:1.0; 
stroke:#840000; stroke-width:39.3701; stroke-opacity:1; 
stroke-linecap:round; stroke-linejoin:round;">
</g>
<g style="fill:#840000; fill-opacity:1.0; 
stroke:#840000; stroke-width:0; stroke-opacity:1; 
stroke-linecap:round; stroke-linejoin:round;">
<circle cx="53850" cy="39700" r="275" /> 
</g>
<g style="fill:#840000; fill-opacity:1.0; 
stroke:#840000; stroke-width:39.3701; stroke-opacity:1; 
stroke-linecap:round; stroke-linejoin:round;">
</g>
<g style="fill:#840000; fill-opacity:1.0; 
stroke:#840000; stroke-width:0; stroke-opacity:1; 
stroke-linecap:round; stroke-linejoin:round;">
<circle cx="56850" cy="39700" r="275" /> 
</g>
<g style="fill:#840000; fill-opacity:1.0; 
stroke:#840000; stroke-width:39.3701; stroke-opacity:1; 
stroke-linecap:round; stroke-linejoin:round;">
</g>
<g style="fill:#840000; fill-opacity:1.0; 
stroke:#840000; stroke-width:0; stroke-opacity:1; 
stroke-linecap:round; stroke-linejoin:round;">
<circle cx="56850" cy="38700" r="275" /> 
</g>
<g style="fill:#840000; fill-opacity:1.0; 
stroke:#840000; stroke-width:39.3701; stroke-opacity:1; 
stroke-linecap:round; stroke-linejoin:round;">
</g>
<g style="fill:#840000; fill-opacity:1.0; 
stroke:#840000; stroke-width:0; stroke-opacity:1; 
stroke-linecap:round; stroke-linejoin:round;">
<circle cx="56850" cy="37700" r="275" /> 
</g>
<g style="fill:#840000; fill-opacity:1.0; 
stroke:#840000; stroke-width:39.3701; stroke-opacity:1; 
stroke-linecap:round; stroke-linejoin:round;">
</g>
<g style="fill:#840000; fill-opacity:1.0; 
stroke:#840000; stroke-width:0; stroke-opacity:1; 
stroke-linecap:round; stroke-linejoin:round;">
<circle cx="56850" cy="36700" r="275" /> 
</g>
<g style="fill:#840000; fill-opacity:1.0; 
stroke:#840000; stroke-width:39.3701; stroke-opacity:1; 
stroke-linecap:round; stroke-linejoin:round;">
</g>
<g style="fill:#840000; fill-opacity:1.0; 
stroke:#840000; stroke-width:0; stroke-opacity:1; 
stroke-linecap:round; stroke-linejoin:round;">
<circle cx="57650" cy="35100" r="275" /> 
</g>
<g style="fill:#840000; fill-opacity:1.0; 
stroke:#840000; stroke-width:39.3701; stroke-opacity:1; 
stroke-linecap:round; stroke-linejoin:round;">
</g>
<g style="fill:#840000; fill-opacity:1.0; 
stroke:#840000; stroke-width:0; stroke-opacity:1; 
stroke-linecap:round; stroke-linejoin:round;">
<circle cx="57650" cy="36100" r="275" /> 
</g>
<g style="fill:#840000; fill-opacity:1.0; 
stroke:#840000; stroke-width:39.3701; stroke-opacity:1; 
stroke-linecap:round; stroke-linejoin:round;">
</g>
<g style="fill:#840000; fill-opacity:1.0; 
stroke:#840000; stroke-width:0; stroke-opacity:1; 
stroke-linecap:round; stroke-linejoin:round;">
<circle cx="67000" cy="40300" r="393.701" /> 
</g>
<g style="fill:#840000; fill-opacity:1.0; 
stroke:#840000; stroke-width:39.3701; stroke-opacity:1; 
stroke-linecap:round; stroke-linejoin:round;">
</g>
<g style="fill:#840000; fill-opacity:1.0; 
stroke:#840000; stroke-width:0; stroke-opacity:1; 
stroke-linecap:round; stroke-linejoin:round;">
<circle cx="67707.1" cy="41007.1" r="374.016" /> 
</g>
<g style="fill:#840000; fill-opacity:1.0; 
stroke:#840000; stroke-width:39.3701; stroke-opacity:1; 
stroke-linecap:round; stroke-linejoin:round;">
</g>
<g style="fill:#840000; fill-opacity:1.0; 
stroke:#840000; stroke-width:0; stroke-opacity:1; 
stroke-linecap:round; stroke-linejoin:round;">
<circle cx="66596.4" cy="35503.6" r="330" /> 
</g>
<g style="fill:#840000; fill-opacity:1.0; 
stroke:#840000; stroke-width:39.3701; stroke-opacity:1; 
stroke-linecap:round; stroke-linejoin:round;">
</g>
<g style="fill:#840000; fill-opacity:1.0; 
stroke:#840000; stroke-width:0; stroke-opacity:1; 
stroke-linecap:round; stroke-linejoin:round;">
<circle cx="67303.6" cy="34796.4" r="330" /> 
</g>
<g style="fill:#840000; fill-opacity:1.0; 
stroke:#840000; stroke-width:39.3701; stroke-opacity:1; 
stroke-linecap:round; stroke-linejoin:round;">
</g>
<g style="fill:#840000; fill-opacity:1.0; 
stroke:#840000; stroke-width:1000; stroke-opacity:1; 
stroke-linecap:round; stroke-linejoin:round;">
</g>
<g style="fill:#840000; fill-opacity:0.0; 
stroke:#840000; stroke-width:1000; stroke-opacity:1; 
stroke-linecap:round; stroke-linejoin:round;">
<path d="M50255 33794
L50114 33935
" />
<path d="M52230 37100
L52430 37100
" />
<path d="M44944 33794
L45085 33935
" />
<path d="M58470 39300
L58270 39300
" />
<path d="M68380 34173
L68216 34288
" />
<path d="M65844 36205
L65985 36064
" />
<path d="M52458 42618
L52587 42465
" />
<path d="M58241 42618
L58112 42465
" />
<path d="M58470 37100
L58270 37100
" />
<path d="M58268 33808
L58115 33937
" />
<path d="M52458 33781
L52587 33934
" />
<path d="M52230 39300
L52430 39300
" />
<path d="M44944 42605
L45085 42464
" />
<path d="M50255 42605
L50114 42464
" />
<path d="M60344 38694
L60485 38835
" />
<path d="M63855 42705
L63714 42564
" />
</g>
<g style="fill:#840000; fill-opacity:1.0; 
stroke:#840000; stroke-width:0; stroke-opacity:1; 
stroke-linecap:round; stroke-linejoin:round;">
<circle cx="53750" cy="41900" r="300" /> 
</g>
<g style="fill:#840000; fill-opacity:1.0; 
stroke:#840000; stroke-width:39.3701; stroke-opacity:1; 
stroke-linecap:round; stroke-linejoin:round;">
</g>
<g style="fill:#840000; fill-opacity:1.0; 
stroke:#840000; stroke-width:0; stroke-opacity:1; 
stroke-linecap:round; stroke-linejoin:round;">
<circle cx="54750" cy="41900" r="300" /> 
</g>
<g style="fill:#840000; fill-opacity:1.0; 
stroke:#840000; stroke-width:39.3701; stroke-opacity:1; 
stroke-linecap:round; stroke-linejoin:round;">
</g>
<g style="fill:#840000; fill-opacity:1.0; 
stroke:#840000; stroke-width:0; stroke-opacity:1; 
stroke-linecap:round; stroke-linejoin:round;">
<circle cx="55750" cy="41900" r="300" /> 
</g>
<g style="fill:#840000; fill-opacity:1.0; 
stroke:#840000; stroke-width:39.3701; stroke-opacity:1; 
stroke-linecap:round; stroke-linejoin:round;">
</g>
<g style="fill:#840000; fill-opacity:1.0; 
stroke:#840000; stroke-width:0; stroke-opacity:1; 
stroke-linecap:round; stroke-linejoin:round;">
<circle cx="55750" cy="40900" r="300" /> 
</g>
<g style="fill:#840000; fill-opacity:1.0; 
stroke:#840000; stroke-width:39.3701; stroke-opacity:1; 
stroke-linecap:round; stroke-linejoin:round;">
</g>
<g style="fill:#840000; fill-opacity:1.0; 
stroke:#840000; stroke-width:0; stroke-opacity:1; 
stroke-linecap:round; stroke-linejoin:round;">
<circle cx="54750" cy="40900" r="300" /> 
</g>
<g style="fill:#840000; fill-opacity:1.0; 
stroke:#840000; stroke-width:39.3701; stroke-opacity:1; 
stroke-linecap:round; stroke-linejoin:round;">
</g>
<g style="fill:#840000; fill-opacity:1.0; 
stroke:#840000; stroke-width:0; stroke-opacity:1; 
stroke-linecap:round; stroke-linejoin:round;">
<circle cx="53750" cy="40900" r="300" /> 
</g>
<g style="fill:#840000; fill-opacity:1.0; 
stroke:#840000; stroke-width:39.3701; stroke-opacity:1; 
stroke-linecap:round; stroke-linejoin:round;">
</g>
<g style="fill:#840000; fill-opacity:1.0; 
stroke:#840000; stroke-width:1000; stroke-opacity:1; 
stroke-linecap:round; stroke-linejoin:round;">
</g>
<g style="fill:#840000; fill-opacity:0.0; 
stroke:#840000; stroke-width:1000; stroke-opacity:1; 
stroke-linecap:round; stroke-linejoin:round;">
<path d="M63820 36650
L63620 36650
" />
<path d="M60330 33750
L60530 33750
" />
<path d="M68355 41705
L68214 41564
" />
<path d="M65873 38669
L65988 38833
" />
</g>
<g style="fill:#840000; fill-opacity:1.0; 
stroke:#840000; stroke-width:0; stroke-opacity:1; 
stroke-linecap:round; stroke-linejoin:round;">
<circle cx="50950" cy="36100" r="65" /> 
</g>
<g style="fill:#840000; fill-opacity:1.0; 
stroke:#840000; stroke-width:39.3701; stroke-opacity:1; 
stroke-linecap:round; stroke-linejoin:round;">
</g>
<g style="fill:#840000; fill-opacity:1.0; 
stroke:#840000; stroke-width:0; stroke-opacity:1; 
stroke-linecap:round; stroke-linejoin:round;">
<circle cx="50950" cy="35300" r="65" /> 
</g>
<g style="fill:#840000; fill-opacity:1.0; 
stroke:#840000; stroke-width:39.3701; stroke-opacity:1; 
stroke-linecap:round; stroke-linejoin:round;">
</g>
<g style="fill:#840000; fill-opacity:1.0; 
stroke:#840000; stroke-width:0; stroke-opacity:1; 
stroke-linecap:round; stroke-linejoin:round;">
<circle cx="50950" cy="35700" r="65" /> 
</g>
<g style="fill:#840000; fill-opacity:1.0; 
stroke:#840000; stroke-width:39.3701; stroke-opacity:1; 
stroke-linecap:round; stroke-linejoin:round;">
</g>
<g style="fill:#840000; fill-opacity:1.0; 
stroke:#840000; stroke-width:0; stroke-opacity:1; 
stroke-linecap:round; stroke-linejoin:round;">
<circle cx="51750" cy="36100" r="65" /> 
</g>
<g style="fill:#840000; fill-opacity:1.0; 
stroke:#840000; stroke-width:39.3701; stroke-opacity:1; 
stroke-linecap:round; stroke-linejoin:round;">
</g>
<g style="fill:#840000; fill-opacity:1.0; 
stroke:#840000; stroke-width:0; stroke-opacity:1; 
stroke-linecap:round; stroke-linejoin:round;">
<circle cx="51750" cy="35300" r="65" /> 
</g>
<g style="fill:#840000; fill-opacity:1.0; 
stroke:#840000; stroke-width:39.3701; stroke-opacity:1; 
stroke-linecap:round; stroke-linejoin:round;">
</g>
<g style="fill:#840000; fill-opacity:1.0; 
stroke:#840000; stroke-width:0; stroke-opacity:1; 
stroke-linecap:round; stroke-linejoin:round;">
<circle cx="51750" cy="35700" r="65" /> 
</g>
<g style="fill:#840000; fill-opacity:1.0; 
stroke:#840000; stroke-width:39.3701; stroke-opacity:1; 
stroke-linecap:round; stroke-linejoin:round;">
</g>
<g style="fill:#840000; fill-opacity:1.0; 
stroke:#840000; stroke-width:0; stroke-opacity:1; 
stroke-linecap:round; stroke-linejoin:round;">
<circle cx="50950" cy="41100" r="65" /> 
</g>
<g style="fill:#840000; fill-opacity:1.0; 
stroke:#840000; stroke-width:39.3701; stroke-opacity:1; 
stroke-linecap:round; stroke-linejoin:round;">
</g>
<g style="fill:#840000; fill-opacity:1.0; 
stroke:#840000; stroke-width:0; stroke-opacity:1; 
stroke-linecap:round; stroke-linejoin:round;">
<circle cx="50950" cy="40300" r="65" /> 
</g>
<g style="fill:#840000; fill-opacity:1.0; 
stroke:#840000; stroke-width:39.3701; stroke-opacity:1; 
stroke-linecap:round; stroke-linejoin:round;">
</g>
<g style="fill:#840000; fill-opacity:1.0; 
stroke:#840000; stroke-width:0; stroke-opacity:1; 
stroke-linecap:round; stroke-linejoin:round;">
<circle cx="50950" cy="40700" r="65" /> 
</g>
<g style="fill:#840000; fill-opacity:1.0; 
stroke:#840000; stroke-width:39.3701; stroke-opacity:1; 
stroke-linecap:round; stroke-linejoin:round;">
</g>
<g style="fill:#840000; fill-opacity:1.0; 
stroke:#840000; stroke-width:0; stroke-opacity:1; 
stroke-linecap:round; stroke-linejoin:round;">
<circle cx="51750" cy="41100" r="65" /> 
</g>
<g style="fill:#840000; fill-opacity:1.0; 
stroke:#840000; stroke-width:39.3701; stroke-opacity:1; 
stroke-linecap:round; stroke-linejoin:round;">
</g>
<g style="fill:#840000; fill-opacity:1.0; 
stroke:#840000; stroke-width:0; stroke-opacity:1; 
stroke-linecap:round; stroke-linejoin:round;">
<circle cx="51750" cy="40300" r="65" /> 
</g>
<g style="fill:#840000; fill-opacity:1.0; 
stroke:#840000; stroke-width:39.3701; stroke-opacity:1; 
stroke-linecap:round; stroke-linejoin:round;">
</g>
<g style="fill:#840000; fill-opacity:1.0; 
stroke:#840000; stroke-width:0; stroke-opacity:1; 
stroke-linecap:round; stroke-linejoin:round;">
<circle cx="51750" cy="40700" r="65" /> 
</g>
<g style="fill:#840000; fill-opacity:1.0; 
stroke:#840000; stroke-width:39.3701; stroke-opacity:1; 
stroke-linecap:round; stroke-linejoin:round;">
</g>
<g style="fill:#840000; fill-opacity:1.0; 
stroke:#840000; stroke-width:0; stroke-opacity:1; 
stroke-linecap:round; stroke-linejoin:round;">
<circle cx="58950" cy="41100" r="65" /> 
</g>
<g style="fill:#840000; fill-opacity:1.0; 
stroke:#840000; stroke-width:39.3701; stroke-opacity:1; 
stroke-linecap:round; stroke-linejoin:round;">
</g>
<g style="fill:#840000; fill-opacity:1.0; 
stroke:#840000; stroke-width:0; stroke-opacity:1; 
stroke-linecap:round; stroke-linejoin:round;">
<circle cx="58950" cy="40300" r="65" /> 
</g>
<g style="fill:#840000; fill-opacity:1.0; 
stroke:#840000; stroke-width:39.3701; stroke-opacity:1; 
stroke-linecap:round; stroke-linejoin:round;">
</g>
<g style="fill:#840000; fill-opacity:1.0; 
stroke:#840000; stroke-width:0; stroke-opacity:1; 
stroke-linecap:round; stroke-linejoin:round;">
<circle cx="58950" cy="40700" r="65" /> 
</g>
<g style="fill:#840000; fill-opacity:1.0; 
stroke:#840000; stroke-width:39.3701; stroke-opacity:1; 
stroke-linecap:round; stroke-linejoin:round;">
</g>
<g style="fill:#840000; fill-opacity:1.0; 
stroke:#840000; stroke-width:0; stroke-opacity:1; 
stroke-linecap:round; stroke-linejoin:round;">
<circle cx="59750" cy="41100" r="65" /> 
</g>
<g style="fill:#840000; fill-opacity:1.0; 
stroke:#840000; stroke-width:39.3701; stroke-opacity:1; 
stroke-linecap:round; stroke-linejoin:round;">
</g>
<g style="fill:#840000; fill-opacity:1.0; 
stroke:#840000; stroke-width:0; stroke-opacity:1; 
stroke-linecap:round; stroke-linejoin:round;">
<circle cx="59750" cy="40300" r="65" /> 
</g>
<g style="fill:#840000; fill-opacity:1.0; 
stroke:#840000; stroke-width:39.3701; stroke-opacity:1; 
stroke-linecap:round; stroke-linejoin:round;">
</g>
<g style="fill:#840000; fill-opacity:1.0; 
stroke:#840000; stroke-width:0; stroke-opacity:1; 
stroke-linecap:round; stroke-linejoin:round;">
<circle cx="59750" cy="40700" r="65" /> 
</g>
<g style="fill:#840000; fill-opacity:1.0; 
stroke:#840000; stroke-width:39.3701; stroke-opacity:1; 
stroke-linecap:round; stroke-linejoin:round;">
</g>
<g style="fill:#840000; fill-opacity:1.0; 
stroke:#840000; stroke-width:0; stroke-opacity:1; 
stroke-linecap:round; stroke-linejoin:round;">
<circle cx="64450" cy="40600" r="65" /> 
</g>
<g style="fill:#840000; fill-opacity:1.0; 
stroke:#840000; stroke-width:39.3701; stroke-opacity:1; 
stroke-linecap:round; stroke-linejoin:round;">
</g>
<g style="fill:#840000; fill-opacity:1.0; 
stroke:#840000; stroke-width:0; stroke-opacity:1; 
stroke-linecap:round; stroke-linejoin:round;">
<circle cx="64450" cy="39800" r="65" /> 
</g>
<g style="fill:#840000; fill-opacity:1.0; 
stroke:#840000; stroke-width:39.3701; stroke-opacity:1; 
stroke-linecap:round; stroke-linejoin:round;">
</g>
<g style="fill:#840000; fill-opacity:1.0; 
stroke:#840000; stroke-width:0; stroke-opacity:1; 
stroke-linecap:round; stroke-linejoin:round;">
<circle cx="64450" cy="40200" r="65" /> 
</g>
<g style="fill:#840000; fill-opacity:1.0; 
stroke:#840000; stroke-width:39.3701; stroke-opacity:1; 
stroke-linecap:round; stroke-linejoin:round;">
</g>
<g style="fill:#840000; fill-opacity:1.0; 
stroke:#840000; stroke-width:0; stroke-opacity:1; 
stroke-linecap:round; stroke-linejoin:round;">
<circle cx="65250" cy="35600" r="65" /> 
</g>
<g style="fill:#840000; fill-opacity:1.0; 
stroke:#840000; stroke-width:39.3701; stroke-opacity:1; 
stroke-linecap:round; stroke-linejoin:round;">
</g>
<g style="fill:#840000; fill-opacity:1.0; 
stroke:#840000; stroke-width:0; stroke-opacity:1; 
stroke-linecap:round; stroke-linejoin:round;">
<circle cx="65250" cy="34800" r="65" /> 
</g>
<g style="fill:#840000; fill-opacity:1.0; 
stroke:#840000; stroke-width:39.3701; stroke-opacity:1; 
stroke-linecap:round; stroke-linejoin:round;">
</g>
<g style="fill:#840000; fill-opacity:1.0; 
stroke:#840000; stroke-width:0; stroke-opacity:1; 
stroke-linecap:round; stroke-linejoin:round;">
<circle cx="65250" cy="35200" r="65" /> 
</g>
<g style="fill:#840000; fill-opacity:1.0; 
stroke:#840000; stroke-width:39.3701; stroke-opacity:1; 
stroke-linecap:round; stroke-linejoin:round;">
</g>
<g style="fill:#840000; fill-opacity:1.0; 
stroke:#840000; stroke-width:0; stroke-opacity:1; 
stroke-linecap:round; stroke-linejoin:round;">
<circle cx="64450" cy="35600" r="65" /> 
</g>
<g style="fill:#840000; fill-opacity:1.0; 
stroke:#840000; stroke-width:39.3701; stroke-opacity:1; 
stroke-linecap:round; stroke-linejoin:round;">
</g>
<g style="fill:#840000; fill-opacity:1.0; 
stroke:#840000; stroke-width:0; stroke-opacity:1; 
stroke-linecap:round; stroke-linejoin:round;">
<circle cx="64450" cy="34800" r="65" /> 
</g>
<g style="fill:#840000; fill-opacity:1.0; 
stroke:#840000; stroke-width:39.3701; stroke-opacity:1; 
stroke-linecap:round; stroke-linejoin:round;">
</g>
<g style="fill:#840000; fill-opacity:1.0; 
stroke:#840000; stroke-width:0; stroke-opacity:1; 
stroke-linecap:round; stroke-linejoin:round;">
<circle cx="64450" cy="35200" r="65" /> 
</g>
<g style="fill:#840000; fill-opacity:1.0; 
stroke:#840000; stroke-width:39.3701; stroke-opacity:1; 
stroke-linecap:round; stroke-linejoin:round;">
</g>
<g style="fill:#840000; fill-opacity:1.0; 
stroke:#840000; stroke-width:0; stroke-opacity:1; 
stroke-linecap:round; stroke-linejoin:round;">
<circle cx="65250" cy="40600" r="65" /> 
</g>
<g style="fill:#840000; fill-opacity:1.0; 
stroke:#840000; stroke-width:39.3701; stroke-opacity:1; 
stroke-linecap:round; stroke-linejoin:round;">
</g>
<g style="fill:#840000; fill-opacity:1.0; 
stroke:#840000; stroke-width:0; stroke-opacity:1; 
stroke-linecap:round; stroke-linejoin:round;">
<circle cx="65250" cy="39800" r="65" /> 
</g>
<g style="fill:#840000; fill-opacity:1.0; 
stroke:#840000; stroke-width:39.3701; stroke-opacity:1; 
stroke-linecap:round; stroke-linejoin:round;">
</g>
<g style="fill:#840000; fill-opacity:1.0; 
stroke:#840000; stroke-width:0; stroke-opacity:1; 
stroke-linecap:round; stroke-linejoin:round;">
<circle cx="65250" cy="40200" r="65" /> 
</g>
<g style="fill:#840000; fill-opacity:1.0; 
stroke:#840000; stroke-width:39.3701; stroke-opacity:1; 
stroke-linecap:round; stroke-linejoin:round;">
</g>
<g style="fill:#840000; fill-opacity:1.0; 
stroke:#840000; stroke-width:0; stroke-opacity:1; 
stroke-linecap:round; stroke-linejoin:round;">
<circle cx="58950" cy="36100" r="65" /> 
</g>
<g style="fill:#840000; fill-opacity:1.0; 
stroke:#840000; stroke-width:39.3701; stroke-opacity:1; 
stroke-linecap:round; stroke-linejoin:round;">
</g>
<g style="fill:#840000; fill-opacity:1.0; 
stroke:#840000; stroke-width:0; stroke-opacity:1; 
stroke-linecap:round; stroke-linejoin:round;">
<circle cx="58950" cy="35300" r="65" /> 
</g>
<g style="fill:#840000; fill-opacity:1.0; 
stroke:#840000; stroke-width:39.3701; stroke-opacity:1; 
stroke-linecap:round; stroke-linejoin:round;">
</g>
<g style="fill:#840000; fill-opacity:1.0; 
stroke:#840000; stroke-width:0; stroke-opacity:1; 
stroke-linecap:round; stroke-linejoin:round;">
<circle cx="58950" cy="35700" r="65" /> 
</g>
<g style="fill:#840000; fill-opacity:1.0; 
stroke:#840000; stroke-width:39.3701; stroke-opacity:1; 
stroke-linecap:round; stroke-linejoin:round;">
</g>
<g style="fill:#840000; fill-opacity:1.0; 
stroke:#840000; stroke-width:0; stroke-opacity:1; 
stroke-linecap:round; stroke-linejoin:round;">
<circle cx="59750" cy="36100" r="65" /> 
</g>
<g style="fill:#840000; fill-opacity:1.0; 
stroke:#840000; stroke-width:39.3701; stroke-opacity:1; 
stroke-linecap:round; stroke-linejoin:round;">
</g>
<g style="fill:#840000; fill-opacity:1.0; 
stroke:#840000; stroke-width:0; stroke-opacity:1; 
stroke-linecap:round; stroke-linejoin:round;">
<circle cx="59750" cy="35300" r="65" /> 
</g>
<g style="fill:#840000; fill-opacity:1.0; 
stroke:#840000; stroke-width:39.3701; stroke-opacity:1; 
stroke-linecap:round; stroke-linejoin:round;">
</g>
<g style="fill:#840000; fill-opacity:1.0; 
stroke:#840000; stroke-width:0; stroke-opacity:1; 
stroke-linecap:round; stroke-linejoin:round;">
<circle cx="59750" cy="35700" r="65" /> 
</g>
<g style="fill:#840000; fill-opacity:1.0; 
stroke:#840000; stroke-width:39.3701; stroke-opacity:1; 
stroke-linecap:round; stroke-linejoin:round;">
</g>
<g style="fill:#840000; fill-opacity:1.0; 
stroke:#840000; stroke-width:0; stroke-opacity:1; 
stroke-linecap:round; stroke-linejoin:round;">
<circle cx="67500" cy="38050" r="65" /> 
</g>
<g style="fill:#840000; fill-opacity:1.0; 
stroke:#840000; stroke-width:39.3701; stroke-opacity:1; 
stroke-linecap:round; stroke-linejoin:round;">
</g>
<g style="fill:#840000; fill-opacity:1.0; 
stroke:#840000; stroke-width:0; stroke-opacity:1; 
stroke-linecap:round; stroke-linejoin:round;">
<circle cx="66700" cy="38050" r="65" /> 
</g>
<g style="fill:#840000; fill-opacity:1.0; 
stroke:#840000; stroke-width:39.3701; stroke-opacity:1; 
stroke-linecap:round; stroke-linejoin:round;">
</g>
<g style="fill:#840000; fill-opacity:1.0; 
stroke:#840000; stroke-width:0; stroke-opacity:1; 
stroke-linecap:round; stroke-linejoin:round;">
<circle cx="67100" cy="38050" r="65" /> 
</g>
<g style="fill:#840000; fill-opacity:1.0; 
stroke:#840000; stroke-width:39.3701; stroke-opacity:1; 
stroke-linecap:round; stroke-linejoin:round;">
</g>
<g style="fill:#840000; fill-opacity:1.0; 
stroke:#840000; stroke-width:0; stroke-opacity:1; 
stroke-linecap:round; stroke-linejoin:round;">
<circle cx="67500" cy="36850" r="65" /> 
</g>
<g style="fill:#840000; fill-opacity:1.0; 
stroke:#840000; stroke-width:39.3701; stroke-opacity:1; 
stroke-linecap:round; stroke-linejoin:round;">
</g>
<g style="fill:#840000; fill-opacity:1.0; 
stroke:#840000; stroke-width:0; stroke-opacity:1; 
stroke-linecap:round; stroke-linejoin:round;">
<circle cx="66700" cy="36850" r="65" /> 
</g>
<g style="fill:#840000; fill-opacity:1.0; 
stroke:#840000; stroke-width:39.3701; stroke-opacity:1; 
stroke-linecap:round; stroke-linejoin:round;">
</g>
<g style="fill:#840000; fill-opacity:1.0; 
stroke:#840000; stroke-width:0; stroke-opacity:1; 
stroke-linecap:round; stroke-linejoin:round;">
<circle cx="67100" cy="36850" r="65" /> 
</g>
<g style="fill:#840000; fill-opacity:1.0; 
stroke:#840000; stroke-width:39.3701; stroke-opacity:1; 
stroke-linecap:round; stroke-linejoin:round;">
</g>
<g style="fill:#840000; fill-opacity:1.0; 
stroke:#840000; stroke-width:0; stroke-opacity:1; 
stroke-linecap:round; stroke-linejoin:round;">
<circle cx="60859.9" cy="36554.2" r="350" /> 
</g>
<g style="fill:#840000; fill-opacity:1.0; 
stroke:#840000; stroke-width:39.3701; stroke-opacity:1; 
stroke-linecap:round; stroke-linejoin:round;">
</g>
<g style="fill:#840000; fill-opacity:1.0; 
stroke:#840000; stroke-width:0; stroke-opacity:1; 
stroke-linecap:round; stroke-linejoin:round;">
<circle cx="60342.3" cy="34622.3" r="350" /> 
</g>
<g style="fill:#840000; fill-opacity:1.0; 
stroke:#840000; stroke-width:39.3701; stroke-opacity:1; 
stroke-linecap:round; stroke-linejoin:round;">
</g>
<g style="fill:#840000; fill-opacity:1.0; 
stroke:#840000; stroke-width:0; stroke-opacity:1; 
stroke-linecap:round; stroke-linejoin:round;">
<circle cx="63757.7" cy="35777.7" r="350" /> 
</g>
<g style="fill:#840000; fill-opacity:1.0; 
stroke:#840000; stroke-width:39.3701; stroke-opacity:1; 
stroke-linecap:round; stroke-linejoin:round;">
</g>
<g style="fill:#840000; fill-opacity:1.0; 
stroke:#840000; stroke-width:0; stroke-opacity:1; 
stroke-linecap:round; stroke-linejoin:round;">
<circle cx="63240.1" cy="33845.8" r="350" /> 
</g>
<g style="fill:#840000; fill-opacity:1.0; 
stroke:#840000; stroke-width:39.3701; stroke-opacity:1; 
stroke-linecap:round; stroke-linejoin:round;">
</g>
<g style="fill:#840000; fill-opacity:1.0; 
stroke:#840000; stroke-width:0; stroke-opacity:1; 
stroke-linecap:round; stroke-linejoin:round;">
<circle cx="63034.3" cy="40700" r="393.701" /> 
</g>
<g style="fill:#840000; fill-opacity:1.0; 
stroke:#840000; stroke-width:39.3701; stroke-opacity:1; 
stroke-linecap:round; stroke-linejoin:round;">
</g>
<g style="fill:#840000; fill-opacity:1.0; 
stroke:#840000; stroke-width:0; stroke-opacity:1; 
stroke-linecap:round; stroke-linejoin:round;">
<circle cx="61065.7" cy="40700" r="393.701" /> 
</g>
<g style="fill:#840000; fill-opacity:1.0; 
stroke:#840000; stroke-width:39.3701; stroke-opacity:1; 
stroke-linecap:round; stroke-linejoin:round;">
</g> 
</svg>
