G04 #@! TF.FileFunction,Copper,L1,Top,Signal*
%FSLAX46Y46*%
G04 Gerber Fmt 4.6, Leading zero omitted, Abs format (unit mm)*
G04 Created by KiCad (PCBNEW 4.0.7) date 06/28/18 12:26:10*
%MOMM*%
%LPD*%
G01*
G04 APERTURE LIST*
%ADD10C,0.100000*%
%ADD11C,0.010000*%
%ADD12R,0.400000X0.400000*%
%ADD13R,0.700000X0.600000*%
%ADD14O,1.600000X1.600000*%
%ADD15R,1.600000X1.600000*%
%ADD16R,1.700000X1.800860*%
%ADD17R,1.300000X1.198880*%
%ADD18R,1.000000X0.797560*%
%ADD19R,0.650000X1.700000*%
%ADD20O,0.508000X0.762000*%
%ADD21R,1.100000X1.700000*%
%ADD22R,0.900000X1.300000*%
%ADD23R,0.700000X0.900000*%
%ADD24R,0.600000X0.600000*%
%ADD25R,0.450000X0.430000*%
%ADD26C,3.000000*%
%ADD27C,0.685800*%
%ADD28C,0.304800*%
G04 APERTURE END LIST*
D10*
D11*
G36*
X200497655Y-86123476D02*
X200575561Y-86284392D01*
X200683576Y-86447720D01*
X200816792Y-86606353D01*
X200865784Y-86656793D01*
X201009365Y-86799371D01*
X200514857Y-87294827D01*
X200514857Y-87396012D01*
X200500228Y-87547796D01*
X200459271Y-87705553D01*
X200396376Y-87856980D01*
X200315936Y-87989777D01*
X200291753Y-88020875D01*
X200223959Y-88087151D01*
X200134276Y-88153170D01*
X200036125Y-88210334D01*
X199942932Y-88250042D01*
X199926063Y-88255134D01*
X199786364Y-88281732D01*
X199633447Y-88290808D01*
X199486442Y-88281273D01*
X199480714Y-88280454D01*
X199418478Y-88269779D01*
X199371356Y-88258819D01*
X199350474Y-88250476D01*
X199359953Y-88235576D01*
X199393545Y-88201360D01*
X199447278Y-88151489D01*
X199517183Y-88089626D01*
X199599291Y-88019432D01*
X199617548Y-88004113D01*
X199896933Y-87770439D01*
X199859637Y-87722898D01*
X199797385Y-87644371D01*
X199727246Y-87557257D01*
X199652827Y-87465890D01*
X199577736Y-87374602D01*
X199505581Y-87287726D01*
X199439971Y-87209596D01*
X199384513Y-87144545D01*
X199342815Y-87096906D01*
X199318485Y-87071011D01*
X199313962Y-87067572D01*
X199296845Y-87079189D01*
X199257192Y-87111599D01*
X199199274Y-87161140D01*
X199127359Y-87224147D01*
X199045719Y-87296959D01*
X199029202Y-87311833D01*
X198931259Y-87399145D01*
X198856879Y-87462949D01*
X198803665Y-87505085D01*
X198769217Y-87527395D01*
X198751139Y-87531721D01*
X198747613Y-87528063D01*
X198740340Y-87487268D01*
X198737257Y-87421392D01*
X198738141Y-87341373D01*
X198742766Y-87258144D01*
X198750907Y-87182644D01*
X198755254Y-87156227D01*
X198798405Y-87012750D01*
X198873027Y-86879089D01*
X198981446Y-86751140D01*
X198989037Y-86743594D01*
X199116257Y-86637897D01*
X199251731Y-86565126D01*
X199399379Y-86524035D01*
X199563117Y-86513380D01*
X199684271Y-86522711D01*
X199761930Y-86531115D01*
X199812193Y-86532517D01*
X199843325Y-86526603D01*
X199860402Y-86516056D01*
X199882321Y-86496794D01*
X199926932Y-86457646D01*
X199989639Y-86402642D01*
X200065847Y-86335814D01*
X200150960Y-86261192D01*
X200169182Y-86245218D01*
X200449436Y-85999543D01*
X200497655Y-86123476D01*
X200497655Y-86123476D01*
G37*
X200497655Y-86123476D02*
X200575561Y-86284392D01*
X200683576Y-86447720D01*
X200816792Y-86606353D01*
X200865784Y-86656793D01*
X201009365Y-86799371D01*
X200514857Y-87294827D01*
X200514857Y-87396012D01*
X200500228Y-87547796D01*
X200459271Y-87705553D01*
X200396376Y-87856980D01*
X200315936Y-87989777D01*
X200291753Y-88020875D01*
X200223959Y-88087151D01*
X200134276Y-88153170D01*
X200036125Y-88210334D01*
X199942932Y-88250042D01*
X199926063Y-88255134D01*
X199786364Y-88281732D01*
X199633447Y-88290808D01*
X199486442Y-88281273D01*
X199480714Y-88280454D01*
X199418478Y-88269779D01*
X199371356Y-88258819D01*
X199350474Y-88250476D01*
X199359953Y-88235576D01*
X199393545Y-88201360D01*
X199447278Y-88151489D01*
X199517183Y-88089626D01*
X199599291Y-88019432D01*
X199617548Y-88004113D01*
X199896933Y-87770439D01*
X199859637Y-87722898D01*
X199797385Y-87644371D01*
X199727246Y-87557257D01*
X199652827Y-87465890D01*
X199577736Y-87374602D01*
X199505581Y-87287726D01*
X199439971Y-87209596D01*
X199384513Y-87144545D01*
X199342815Y-87096906D01*
X199318485Y-87071011D01*
X199313962Y-87067572D01*
X199296845Y-87079189D01*
X199257192Y-87111599D01*
X199199274Y-87161140D01*
X199127359Y-87224147D01*
X199045719Y-87296959D01*
X199029202Y-87311833D01*
X198931259Y-87399145D01*
X198856879Y-87462949D01*
X198803665Y-87505085D01*
X198769217Y-87527395D01*
X198751139Y-87531721D01*
X198747613Y-87528063D01*
X198740340Y-87487268D01*
X198737257Y-87421392D01*
X198738141Y-87341373D01*
X198742766Y-87258144D01*
X198750907Y-87182644D01*
X198755254Y-87156227D01*
X198798405Y-87012750D01*
X198873027Y-86879089D01*
X198981446Y-86751140D01*
X198989037Y-86743594D01*
X199116257Y-86637897D01*
X199251731Y-86565126D01*
X199399379Y-86524035D01*
X199563117Y-86513380D01*
X199684271Y-86522711D01*
X199761930Y-86531115D01*
X199812193Y-86532517D01*
X199843325Y-86526603D01*
X199860402Y-86516056D01*
X199882321Y-86496794D01*
X199926932Y-86457646D01*
X199989639Y-86402642D01*
X200065847Y-86335814D01*
X200150960Y-86261192D01*
X200169182Y-86245218D01*
X200449436Y-85999543D01*
X200497655Y-86123476D01*
G36*
X203997975Y-85990448D02*
X204037570Y-86022472D01*
X204096091Y-86071598D01*
X204169414Y-86134351D01*
X204253418Y-86207254D01*
X204287529Y-86237111D01*
X204581720Y-86495223D01*
X204847896Y-86495647D01*
X204953430Y-86496230D01*
X205030466Y-86498266D01*
X205086786Y-86502772D01*
X205130174Y-86510763D01*
X205168415Y-86523256D01*
X205209292Y-86541267D01*
X205213857Y-86543426D01*
X205340015Y-86619867D01*
X205455577Y-86721305D01*
X205553299Y-86839622D01*
X205625937Y-86966701D01*
X205651451Y-87033747D01*
X205671996Y-87121550D01*
X205682943Y-87226377D01*
X205685571Y-87332260D01*
X205684627Y-87410102D01*
X205682076Y-87472355D01*
X205678337Y-87511490D01*
X205675012Y-87521143D01*
X205658990Y-87509487D01*
X205620436Y-87476969D01*
X205563548Y-87427266D01*
X205492524Y-87364054D01*
X205411564Y-87291010D01*
X205395286Y-87276215D01*
X205312957Y-87201720D01*
X205239828Y-87136351D01*
X205180082Y-87083781D01*
X205137904Y-87047685D01*
X205117477Y-87031736D01*
X205116393Y-87031286D01*
X205102273Y-87044711D01*
X205069370Y-87081882D01*
X205021480Y-87138141D01*
X204962400Y-87208831D01*
X204895928Y-87289293D01*
X204825860Y-87374870D01*
X204755995Y-87460904D01*
X204690128Y-87542739D01*
X204632057Y-87615715D01*
X204585580Y-87675176D01*
X204554494Y-87716464D01*
X204542595Y-87734921D01*
X204542571Y-87735141D01*
X204555911Y-87750559D01*
X204593079Y-87785168D01*
X204649801Y-87835203D01*
X204721802Y-87896901D01*
X204804807Y-87966499D01*
X204814714Y-87974715D01*
X204898669Y-88044863D01*
X204972113Y-88107392D01*
X205030775Y-88158571D01*
X205070385Y-88194667D01*
X205086672Y-88211947D01*
X205086857Y-88212559D01*
X205070253Y-88222969D01*
X205026417Y-88234514D01*
X204964316Y-88245788D01*
X204892914Y-88255388D01*
X204821176Y-88261909D01*
X204758800Y-88263954D01*
X204685982Y-88258363D01*
X204600682Y-88245019D01*
X204542571Y-88232084D01*
X204382467Y-88172610D01*
X204243091Y-88084544D01*
X204126149Y-87970195D01*
X204033347Y-87831873D01*
X203966394Y-87671886D01*
X203926994Y-87492544D01*
X203917694Y-87386646D01*
X203912379Y-87266479D01*
X203664602Y-87013181D01*
X203416826Y-86759883D01*
X203556437Y-86627978D01*
X203652089Y-86527689D01*
X203744420Y-86412863D01*
X203826986Y-86292821D01*
X203893346Y-86176884D01*
X203935205Y-86079935D01*
X203955386Y-86026021D01*
X203972642Y-85989398D01*
X203981426Y-85979000D01*
X203997975Y-85990448D01*
X203997975Y-85990448D01*
G37*
X203997975Y-85990448D02*
X204037570Y-86022472D01*
X204096091Y-86071598D01*
X204169414Y-86134351D01*
X204253418Y-86207254D01*
X204287529Y-86237111D01*
X204581720Y-86495223D01*
X204847896Y-86495647D01*
X204953430Y-86496230D01*
X205030466Y-86498266D01*
X205086786Y-86502772D01*
X205130174Y-86510763D01*
X205168415Y-86523256D01*
X205209292Y-86541267D01*
X205213857Y-86543426D01*
X205340015Y-86619867D01*
X205455577Y-86721305D01*
X205553299Y-86839622D01*
X205625937Y-86966701D01*
X205651451Y-87033747D01*
X205671996Y-87121550D01*
X205682943Y-87226377D01*
X205685571Y-87332260D01*
X205684627Y-87410102D01*
X205682076Y-87472355D01*
X205678337Y-87511490D01*
X205675012Y-87521143D01*
X205658990Y-87509487D01*
X205620436Y-87476969D01*
X205563548Y-87427266D01*
X205492524Y-87364054D01*
X205411564Y-87291010D01*
X205395286Y-87276215D01*
X205312957Y-87201720D01*
X205239828Y-87136351D01*
X205180082Y-87083781D01*
X205137904Y-87047685D01*
X205117477Y-87031736D01*
X205116393Y-87031286D01*
X205102273Y-87044711D01*
X205069370Y-87081882D01*
X205021480Y-87138141D01*
X204962400Y-87208831D01*
X204895928Y-87289293D01*
X204825860Y-87374870D01*
X204755995Y-87460904D01*
X204690128Y-87542739D01*
X204632057Y-87615715D01*
X204585580Y-87675176D01*
X204554494Y-87716464D01*
X204542595Y-87734921D01*
X204542571Y-87735141D01*
X204555911Y-87750559D01*
X204593079Y-87785168D01*
X204649801Y-87835203D01*
X204721802Y-87896901D01*
X204804807Y-87966499D01*
X204814714Y-87974715D01*
X204898669Y-88044863D01*
X204972113Y-88107392D01*
X205030775Y-88158571D01*
X205070385Y-88194667D01*
X205086672Y-88211947D01*
X205086857Y-88212559D01*
X205070253Y-88222969D01*
X205026417Y-88234514D01*
X204964316Y-88245788D01*
X204892914Y-88255388D01*
X204821176Y-88261909D01*
X204758800Y-88263954D01*
X204685982Y-88258363D01*
X204600682Y-88245019D01*
X204542571Y-88232084D01*
X204382467Y-88172610D01*
X204243091Y-88084544D01*
X204126149Y-87970195D01*
X204033347Y-87831873D01*
X203966394Y-87671886D01*
X203926994Y-87492544D01*
X203917694Y-87386646D01*
X203912379Y-87266479D01*
X203664602Y-87013181D01*
X203416826Y-86759883D01*
X203556437Y-86627978D01*
X203652089Y-86527689D01*
X203744420Y-86412863D01*
X203826986Y-86292821D01*
X203893346Y-86176884D01*
X203935205Y-86079935D01*
X203955386Y-86026021D01*
X203972642Y-85989398D01*
X203981426Y-85979000D01*
X203997975Y-85990448D01*
G36*
X202378489Y-83614273D02*
X202610357Y-83641227D01*
X202732827Y-83668222D01*
X202865572Y-83707511D01*
X202995596Y-83754577D01*
X203109901Y-83804904D01*
X203162780Y-83833167D01*
X203271606Y-83907330D01*
X203386331Y-84003365D01*
X203495934Y-84111045D01*
X203589393Y-84220142D01*
X203610486Y-84248594D01*
X203728552Y-84441075D01*
X203823963Y-84652746D01*
X203895195Y-84876806D01*
X203940723Y-85106449D01*
X203959024Y-85334875D01*
X203948574Y-85555278D01*
X203929540Y-85672931D01*
X203878653Y-85855400D01*
X203803149Y-86041341D01*
X203707651Y-86222988D01*
X203596780Y-86392574D01*
X203475159Y-86542331D01*
X203347410Y-86664493D01*
X203332243Y-86676650D01*
X203231170Y-86755979D01*
X203224956Y-86878861D01*
X203206279Y-87009464D01*
X203165087Y-87112177D01*
X203101731Y-87186596D01*
X203016565Y-87232317D01*
X202909940Y-87248937D01*
X202902212Y-87249000D01*
X202789151Y-87234932D01*
X202698548Y-87194109D01*
X202632649Y-87128608D01*
X202593697Y-87040506D01*
X202583441Y-86954179D01*
X202581392Y-86901838D01*
X202572746Y-86876369D01*
X202553039Y-86868419D01*
X202542321Y-86868046D01*
X202520347Y-86870877D01*
X202507891Y-86884717D01*
X202502052Y-86917679D01*
X202499928Y-86977876D01*
X202499790Y-86986934D01*
X202490519Y-87082785D01*
X202463015Y-87153069D01*
X202412932Y-87205741D01*
X202364139Y-87235365D01*
X202284091Y-87260302D01*
X202191296Y-87265715D01*
X202102474Y-87251678D01*
X202058119Y-87233991D01*
X201989502Y-87177556D01*
X201946848Y-87095857D01*
X201930242Y-86989063D01*
X201930000Y-86972605D01*
X201928567Y-86913260D01*
X201922316Y-86881715D01*
X201908322Y-86869532D01*
X201893714Y-86868000D01*
X201868276Y-86875482D01*
X201858358Y-86904324D01*
X201857428Y-86928793D01*
X201842610Y-87031196D01*
X201801263Y-87121008D01*
X201738048Y-87190984D01*
X201662013Y-87232480D01*
X201590148Y-87245718D01*
X201506461Y-87245882D01*
X201425056Y-87234293D01*
X201360039Y-87212269D01*
X201344332Y-87202754D01*
X201284557Y-87138325D01*
X201240223Y-87045413D01*
X201213530Y-86929318D01*
X201208077Y-86874437D01*
X201201991Y-86810110D01*
X201193782Y-86762787D01*
X201185077Y-86741415D01*
X201183812Y-86741000D01*
X201159145Y-86728005D01*
X201116660Y-86692762D01*
X201061787Y-86640884D01*
X200999955Y-86577984D01*
X200936593Y-86509676D01*
X200877130Y-86441572D01*
X200837096Y-86391834D01*
X202057000Y-86391834D01*
X202059917Y-86432874D01*
X202069092Y-86441106D01*
X202085155Y-86415810D01*
X202108740Y-86356268D01*
X202122045Y-86317904D01*
X202146350Y-86256744D01*
X202169625Y-86217041D01*
X202185035Y-86205786D01*
X202207996Y-86219137D01*
X202244953Y-86254303D01*
X202288286Y-86303953D01*
X202292347Y-86309019D01*
X202374500Y-86412252D01*
X202379977Y-86312363D01*
X202370200Y-86175634D01*
X202327854Y-86037755D01*
X202273250Y-85934089D01*
X202215898Y-85843821D01*
X202162434Y-85949552D01*
X202125388Y-86040358D01*
X202093002Y-86151377D01*
X202069104Y-86266549D01*
X202057522Y-86369810D01*
X202057000Y-86391834D01*
X200837096Y-86391834D01*
X200826995Y-86379285D01*
X200805807Y-86350182D01*
X200736145Y-86239987D01*
X200666981Y-86113924D01*
X200603961Y-85983560D01*
X200552732Y-85860464D01*
X200522665Y-85770153D01*
X200505572Y-85685333D01*
X200492744Y-85574994D01*
X200484570Y-85449694D01*
X200482237Y-85353072D01*
X201024052Y-85353072D01*
X201030758Y-85469663D01*
X201054129Y-85561953D01*
X201097955Y-85639565D01*
X201165216Y-85711393D01*
X201209891Y-85751290D01*
X201236749Y-85771712D01*
X201255199Y-85777172D01*
X201274650Y-85772183D01*
X201284248Y-85768492D01*
X201307055Y-85745073D01*
X201327632Y-85700855D01*
X201331262Y-85688804D01*
X201371629Y-85606717D01*
X201445553Y-85536414D01*
X201553413Y-85477601D01*
X201648839Y-85443255D01*
X201771657Y-85397633D01*
X201860418Y-85345033D01*
X201917030Y-85283308D01*
X201943397Y-85210313D01*
X201942072Y-85152160D01*
X202502676Y-85152160D01*
X202507364Y-85230801D01*
X202542254Y-85303859D01*
X202593283Y-85355117D01*
X202641532Y-85383798D01*
X202710587Y-85415101D01*
X202786119Y-85442581D01*
X202791624Y-85444302D01*
X202910125Y-85486168D01*
X202997585Y-85530599D01*
X203059226Y-85581505D01*
X203100268Y-85642797D01*
X203117963Y-85688715D01*
X203143067Y-85748222D01*
X203174132Y-85775253D01*
X203214531Y-85770049D01*
X203267637Y-85732854D01*
X203300480Y-85701866D01*
X203374774Y-85602482D01*
X203419163Y-85484064D01*
X203432775Y-85349340D01*
X203429893Y-85296518D01*
X203403315Y-85158345D01*
X203351431Y-85045752D01*
X203273636Y-84957732D01*
X203193182Y-84904771D01*
X203107841Y-84874839D01*
X203003159Y-84858398D01*
X202893778Y-84856219D01*
X202794342Y-84869072D01*
X202752409Y-84881574D01*
X202653057Y-84932642D01*
X202577200Y-84998090D01*
X202526514Y-85072926D01*
X202502676Y-85152160D01*
X201942072Y-85152160D01*
X201941428Y-85123898D01*
X201939930Y-85115408D01*
X201906960Y-85032227D01*
X201845536Y-84961901D01*
X201761836Y-84906450D01*
X201662035Y-84867893D01*
X201552311Y-84848249D01*
X201438839Y-84849538D01*
X201327797Y-84873780D01*
X201271524Y-84896877D01*
X201172103Y-84959111D01*
X201099958Y-85037186D01*
X201052872Y-85135194D01*
X201028623Y-85257226D01*
X201024052Y-85353072D01*
X200482237Y-85353072D01*
X200481438Y-85319993D01*
X200483737Y-85196449D01*
X200491855Y-85089622D01*
X200496408Y-85056464D01*
X200543470Y-84845442D01*
X200614904Y-84637814D01*
X200707301Y-84439891D01*
X200817255Y-84257982D01*
X200941358Y-84098397D01*
X201076204Y-83967446D01*
X201090913Y-83955561D01*
X201259976Y-83843010D01*
X201454244Y-83751280D01*
X201668473Y-83681457D01*
X201897420Y-83634625D01*
X202135840Y-83611868D01*
X202378489Y-83614273D01*
X202378489Y-83614273D01*
G37*
X202378489Y-83614273D02*
X202610357Y-83641227D01*
X202732827Y-83668222D01*
X202865572Y-83707511D01*
X202995596Y-83754577D01*
X203109901Y-83804904D01*
X203162780Y-83833167D01*
X203271606Y-83907330D01*
X203386331Y-84003365D01*
X203495934Y-84111045D01*
X203589393Y-84220142D01*
X203610486Y-84248594D01*
X203728552Y-84441075D01*
X203823963Y-84652746D01*
X203895195Y-84876806D01*
X203940723Y-85106449D01*
X203959024Y-85334875D01*
X203948574Y-85555278D01*
X203929540Y-85672931D01*
X203878653Y-85855400D01*
X203803149Y-86041341D01*
X203707651Y-86222988D01*
X203596780Y-86392574D01*
X203475159Y-86542331D01*
X203347410Y-86664493D01*
X203332243Y-86676650D01*
X203231170Y-86755979D01*
X203224956Y-86878861D01*
X203206279Y-87009464D01*
X203165087Y-87112177D01*
X203101731Y-87186596D01*
X203016565Y-87232317D01*
X202909940Y-87248937D01*
X202902212Y-87249000D01*
X202789151Y-87234932D01*
X202698548Y-87194109D01*
X202632649Y-87128608D01*
X202593697Y-87040506D01*
X202583441Y-86954179D01*
X202581392Y-86901838D01*
X202572746Y-86876369D01*
X202553039Y-86868419D01*
X202542321Y-86868046D01*
X202520347Y-86870877D01*
X202507891Y-86884717D01*
X202502052Y-86917679D01*
X202499928Y-86977876D01*
X202499790Y-86986934D01*
X202490519Y-87082785D01*
X202463015Y-87153069D01*
X202412932Y-87205741D01*
X202364139Y-87235365D01*
X202284091Y-87260302D01*
X202191296Y-87265715D01*
X202102474Y-87251678D01*
X202058119Y-87233991D01*
X201989502Y-87177556D01*
X201946848Y-87095857D01*
X201930242Y-86989063D01*
X201930000Y-86972605D01*
X201928567Y-86913260D01*
X201922316Y-86881715D01*
X201908322Y-86869532D01*
X201893714Y-86868000D01*
X201868276Y-86875482D01*
X201858358Y-86904324D01*
X201857428Y-86928793D01*
X201842610Y-87031196D01*
X201801263Y-87121008D01*
X201738048Y-87190984D01*
X201662013Y-87232480D01*
X201590148Y-87245718D01*
X201506461Y-87245882D01*
X201425056Y-87234293D01*
X201360039Y-87212269D01*
X201344332Y-87202754D01*
X201284557Y-87138325D01*
X201240223Y-87045413D01*
X201213530Y-86929318D01*
X201208077Y-86874437D01*
X201201991Y-86810110D01*
X201193782Y-86762787D01*
X201185077Y-86741415D01*
X201183812Y-86741000D01*
X201159145Y-86728005D01*
X201116660Y-86692762D01*
X201061787Y-86640884D01*
X200999955Y-86577984D01*
X200936593Y-86509676D01*
X200877130Y-86441572D01*
X200837096Y-86391834D01*
X202057000Y-86391834D01*
X202059917Y-86432874D01*
X202069092Y-86441106D01*
X202085155Y-86415810D01*
X202108740Y-86356268D01*
X202122045Y-86317904D01*
X202146350Y-86256744D01*
X202169625Y-86217041D01*
X202185035Y-86205786D01*
X202207996Y-86219137D01*
X202244953Y-86254303D01*
X202288286Y-86303953D01*
X202292347Y-86309019D01*
X202374500Y-86412252D01*
X202379977Y-86312363D01*
X202370200Y-86175634D01*
X202327854Y-86037755D01*
X202273250Y-85934089D01*
X202215898Y-85843821D01*
X202162434Y-85949552D01*
X202125388Y-86040358D01*
X202093002Y-86151377D01*
X202069104Y-86266549D01*
X202057522Y-86369810D01*
X202057000Y-86391834D01*
X200837096Y-86391834D01*
X200826995Y-86379285D01*
X200805807Y-86350182D01*
X200736145Y-86239987D01*
X200666981Y-86113924D01*
X200603961Y-85983560D01*
X200552732Y-85860464D01*
X200522665Y-85770153D01*
X200505572Y-85685333D01*
X200492744Y-85574994D01*
X200484570Y-85449694D01*
X200482237Y-85353072D01*
X201024052Y-85353072D01*
X201030758Y-85469663D01*
X201054129Y-85561953D01*
X201097955Y-85639565D01*
X201165216Y-85711393D01*
X201209891Y-85751290D01*
X201236749Y-85771712D01*
X201255199Y-85777172D01*
X201274650Y-85772183D01*
X201284248Y-85768492D01*
X201307055Y-85745073D01*
X201327632Y-85700855D01*
X201331262Y-85688804D01*
X201371629Y-85606717D01*
X201445553Y-85536414D01*
X201553413Y-85477601D01*
X201648839Y-85443255D01*
X201771657Y-85397633D01*
X201860418Y-85345033D01*
X201917030Y-85283308D01*
X201943397Y-85210313D01*
X201942072Y-85152160D01*
X202502676Y-85152160D01*
X202507364Y-85230801D01*
X202542254Y-85303859D01*
X202593283Y-85355117D01*
X202641532Y-85383798D01*
X202710587Y-85415101D01*
X202786119Y-85442581D01*
X202791624Y-85444302D01*
X202910125Y-85486168D01*
X202997585Y-85530599D01*
X203059226Y-85581505D01*
X203100268Y-85642797D01*
X203117963Y-85688715D01*
X203143067Y-85748222D01*
X203174132Y-85775253D01*
X203214531Y-85770049D01*
X203267637Y-85732854D01*
X203300480Y-85701866D01*
X203374774Y-85602482D01*
X203419163Y-85484064D01*
X203432775Y-85349340D01*
X203429893Y-85296518D01*
X203403315Y-85158345D01*
X203351431Y-85045752D01*
X203273636Y-84957732D01*
X203193182Y-84904771D01*
X203107841Y-84874839D01*
X203003159Y-84858398D01*
X202893778Y-84856219D01*
X202794342Y-84869072D01*
X202752409Y-84881574D01*
X202653057Y-84932642D01*
X202577200Y-84998090D01*
X202526514Y-85072926D01*
X202502676Y-85152160D01*
X201942072Y-85152160D01*
X201941428Y-85123898D01*
X201939930Y-85115408D01*
X201906960Y-85032227D01*
X201845536Y-84961901D01*
X201761836Y-84906450D01*
X201662035Y-84867893D01*
X201552311Y-84848249D01*
X201438839Y-84849538D01*
X201327797Y-84873780D01*
X201271524Y-84896877D01*
X201172103Y-84959111D01*
X201099958Y-85037186D01*
X201052872Y-85135194D01*
X201028623Y-85257226D01*
X201024052Y-85353072D01*
X200482237Y-85353072D01*
X200481438Y-85319993D01*
X200483737Y-85196449D01*
X200491855Y-85089622D01*
X200496408Y-85056464D01*
X200543470Y-84845442D01*
X200614904Y-84637814D01*
X200707301Y-84439891D01*
X200817255Y-84257982D01*
X200941358Y-84098397D01*
X201076204Y-83967446D01*
X201090913Y-83955561D01*
X201259976Y-83843010D01*
X201454244Y-83751280D01*
X201668473Y-83681457D01*
X201897420Y-83634625D01*
X202135840Y-83611868D01*
X202378489Y-83614273D01*
G36*
X204863588Y-81936476D02*
X204947219Y-81941379D01*
X205019484Y-81948296D01*
X205071338Y-81956205D01*
X205091445Y-81962204D01*
X205098527Y-81971392D01*
X205093152Y-81987114D01*
X205072393Y-82012308D01*
X205033321Y-82049918D01*
X204973008Y-82102884D01*
X204888528Y-82174148D01*
X204841744Y-82213055D01*
X204735572Y-82302707D01*
X204655485Y-82373866D01*
X204602356Y-82425700D01*
X204577060Y-82457375D01*
X204575627Y-82466384D01*
X204615931Y-82518575D01*
X204669910Y-82586333D01*
X204733770Y-82665113D01*
X204803716Y-82750369D01*
X204875953Y-82837557D01*
X204946688Y-82922131D01*
X205012124Y-82999545D01*
X205068467Y-83065255D01*
X205111923Y-83114715D01*
X205138697Y-83143379D01*
X205145276Y-83148715D01*
X205163346Y-83137025D01*
X205203757Y-83104422D01*
X205262187Y-83054602D01*
X205334313Y-82991263D01*
X205415812Y-82918101D01*
X205430911Y-82904387D01*
X205699419Y-82660058D01*
X205710638Y-82716154D01*
X205722072Y-82836975D01*
X205714280Y-82972712D01*
X205689234Y-83108832D01*
X205648903Y-83230799D01*
X205637500Y-83255672D01*
X205587178Y-83336202D01*
X205514746Y-83424041D01*
X205430026Y-83509262D01*
X205342839Y-83581937D01*
X205266967Y-83630169D01*
X205150463Y-83673431D01*
X205012999Y-83698589D01*
X204865871Y-83704154D01*
X204766689Y-83696072D01*
X204690206Y-83687314D01*
X204641033Y-83686038D01*
X204610916Y-83692500D01*
X204597197Y-83701372D01*
X204538306Y-83753081D01*
X204464637Y-83817046D01*
X204380327Y-83889746D01*
X204289511Y-83967666D01*
X204196327Y-84047285D01*
X204104910Y-84125085D01*
X204019395Y-84197549D01*
X203943919Y-84261158D01*
X203882618Y-84312393D01*
X203839628Y-84347735D01*
X203819084Y-84363668D01*
X203817993Y-84364219D01*
X203805274Y-84349307D01*
X203781381Y-84310119D01*
X203751293Y-84254871D01*
X203748825Y-84250116D01*
X203677806Y-84137584D01*
X203581078Y-84020320D01*
X203466688Y-83906901D01*
X203342681Y-83805906D01*
X203311282Y-83783715D01*
X203249034Y-83740248D01*
X203199843Y-83704270D01*
X203170248Y-83680653D01*
X203164610Y-83674392D01*
X203177049Y-83659995D01*
X203212668Y-83623892D01*
X203268223Y-83569245D01*
X203340467Y-83499212D01*
X203426155Y-83416954D01*
X203522039Y-83325631D01*
X203553786Y-83295539D01*
X203943857Y-82926223D01*
X203944172Y-82824290D01*
X203960237Y-82646677D01*
X204005638Y-82478817D01*
X204077858Y-82325725D01*
X204174381Y-82192415D01*
X204292690Y-82083903D01*
X204327858Y-82059626D01*
X204438765Y-81998790D01*
X204554234Y-81959207D01*
X204683298Y-81938799D01*
X204834987Y-81935491D01*
X204863588Y-81936476D01*
X204863588Y-81936476D01*
G37*
X204863588Y-81936476D02*
X204947219Y-81941379D01*
X205019484Y-81948296D01*
X205071338Y-81956205D01*
X205091445Y-81962204D01*
X205098527Y-81971392D01*
X205093152Y-81987114D01*
X205072393Y-82012308D01*
X205033321Y-82049918D01*
X204973008Y-82102884D01*
X204888528Y-82174148D01*
X204841744Y-82213055D01*
X204735572Y-82302707D01*
X204655485Y-82373866D01*
X204602356Y-82425700D01*
X204577060Y-82457375D01*
X204575627Y-82466384D01*
X204615931Y-82518575D01*
X204669910Y-82586333D01*
X204733770Y-82665113D01*
X204803716Y-82750369D01*
X204875953Y-82837557D01*
X204946688Y-82922131D01*
X205012124Y-82999545D01*
X205068467Y-83065255D01*
X205111923Y-83114715D01*
X205138697Y-83143379D01*
X205145276Y-83148715D01*
X205163346Y-83137025D01*
X205203757Y-83104422D01*
X205262187Y-83054602D01*
X205334313Y-82991263D01*
X205415812Y-82918101D01*
X205430911Y-82904387D01*
X205699419Y-82660058D01*
X205710638Y-82716154D01*
X205722072Y-82836975D01*
X205714280Y-82972712D01*
X205689234Y-83108832D01*
X205648903Y-83230799D01*
X205637500Y-83255672D01*
X205587178Y-83336202D01*
X205514746Y-83424041D01*
X205430026Y-83509262D01*
X205342839Y-83581937D01*
X205266967Y-83630169D01*
X205150463Y-83673431D01*
X205012999Y-83698589D01*
X204865871Y-83704154D01*
X204766689Y-83696072D01*
X204690206Y-83687314D01*
X204641033Y-83686038D01*
X204610916Y-83692500D01*
X204597197Y-83701372D01*
X204538306Y-83753081D01*
X204464637Y-83817046D01*
X204380327Y-83889746D01*
X204289511Y-83967666D01*
X204196327Y-84047285D01*
X204104910Y-84125085D01*
X204019395Y-84197549D01*
X203943919Y-84261158D01*
X203882618Y-84312393D01*
X203839628Y-84347735D01*
X203819084Y-84363668D01*
X203817993Y-84364219D01*
X203805274Y-84349307D01*
X203781381Y-84310119D01*
X203751293Y-84254871D01*
X203748825Y-84250116D01*
X203677806Y-84137584D01*
X203581078Y-84020320D01*
X203466688Y-83906901D01*
X203342681Y-83805906D01*
X203311282Y-83783715D01*
X203249034Y-83740248D01*
X203199843Y-83704270D01*
X203170248Y-83680653D01*
X203164610Y-83674392D01*
X203177049Y-83659995D01*
X203212668Y-83623892D01*
X203268223Y-83569245D01*
X203340467Y-83499212D01*
X203426155Y-83416954D01*
X203522039Y-83325631D01*
X203553786Y-83295539D01*
X203943857Y-82926223D01*
X203944172Y-82824290D01*
X203960237Y-82646677D01*
X204005638Y-82478817D01*
X204077858Y-82325725D01*
X204174381Y-82192415D01*
X204292690Y-82083903D01*
X204327858Y-82059626D01*
X204438765Y-81998790D01*
X204554234Y-81959207D01*
X204683298Y-81938799D01*
X204834987Y-81935491D01*
X204863588Y-81936476D01*
G36*
X199816254Y-81913143D02*
X199981015Y-81960560D01*
X200127080Y-82036946D01*
X200252315Y-82140138D01*
X200354589Y-82267977D01*
X200431769Y-82418300D01*
X200481721Y-82588945D01*
X200502269Y-82776053D01*
X200505698Y-82899475D01*
X200900625Y-83272376D01*
X200999159Y-83366182D01*
X201087801Y-83452052D01*
X201163441Y-83526854D01*
X201222971Y-83587458D01*
X201263282Y-83630732D01*
X201281263Y-83653545D01*
X201281669Y-83656148D01*
X201260554Y-83671039D01*
X201218148Y-83699925D01*
X201163384Y-83736723D01*
X201160014Y-83738974D01*
X200977172Y-83880057D01*
X200824486Y-84039686D01*
X200699498Y-84220504D01*
X200679949Y-84255145D01*
X200630730Y-84345149D01*
X200332401Y-84088486D01*
X200236552Y-84005898D01*
X200142761Y-83924851D01*
X200057109Y-83850620D01*
X199985677Y-83788474D01*
X199934546Y-83743688D01*
X199927638Y-83737585D01*
X199872872Y-83690333D01*
X199835435Y-83663544D01*
X199806075Y-83652979D01*
X199775537Y-83654402D01*
X199755281Y-83658669D01*
X199670137Y-83670533D01*
X199564629Y-83673831D01*
X199453556Y-83668955D01*
X199351717Y-83656295D01*
X199307633Y-83646846D01*
X199215030Y-83616274D01*
X199132404Y-83572640D01*
X199049578Y-83509586D01*
X198973646Y-83438204D01*
X198882004Y-83336764D01*
X198815896Y-83237723D01*
X198771969Y-83132415D01*
X198746868Y-83012174D01*
X198737240Y-82868334D01*
X198736857Y-82826410D01*
X198738272Y-82749397D01*
X198742098Y-82688755D01*
X198747707Y-82651694D01*
X198752781Y-82643738D01*
X198770575Y-82657248D01*
X198810866Y-82691374D01*
X198869307Y-82742322D01*
X198941550Y-82806294D01*
X199023246Y-82879497D01*
X199036561Y-82891502D01*
X199130561Y-82975617D01*
X199201674Y-83037302D01*
X199253321Y-83079117D01*
X199288925Y-83103621D01*
X199311907Y-83113374D01*
X199325689Y-83110934D01*
X199327635Y-83109216D01*
X199351004Y-83082776D01*
X199391139Y-83034971D01*
X199444227Y-82970546D01*
X199506457Y-82894242D01*
X199574016Y-82810802D01*
X199643093Y-82724969D01*
X199709876Y-82641485D01*
X199770552Y-82565093D01*
X199821309Y-82500536D01*
X199858337Y-82452556D01*
X199877821Y-82425896D01*
X199879857Y-82422179D01*
X199866550Y-82407429D01*
X199829492Y-82373419D01*
X199772984Y-82323911D01*
X199701322Y-82262664D01*
X199618804Y-82193441D01*
X199612250Y-82187994D01*
X199528663Y-82118061D01*
X199455168Y-82055617D01*
X199396175Y-82004491D01*
X199356096Y-81968506D01*
X199339342Y-81951490D01*
X199339164Y-81951128D01*
X199351338Y-81938242D01*
X199391564Y-81924946D01*
X199451658Y-81912742D01*
X199523435Y-81903129D01*
X199598712Y-81897612D01*
X199634929Y-81896857D01*
X199816254Y-81913143D01*
X199816254Y-81913143D01*
G37*
X199816254Y-81913143D02*
X199981015Y-81960560D01*
X200127080Y-82036946D01*
X200252315Y-82140138D01*
X200354589Y-82267977D01*
X200431769Y-82418300D01*
X200481721Y-82588945D01*
X200502269Y-82776053D01*
X200505698Y-82899475D01*
X200900625Y-83272376D01*
X200999159Y-83366182D01*
X201087801Y-83452052D01*
X201163441Y-83526854D01*
X201222971Y-83587458D01*
X201263282Y-83630732D01*
X201281263Y-83653545D01*
X201281669Y-83656148D01*
X201260554Y-83671039D01*
X201218148Y-83699925D01*
X201163384Y-83736723D01*
X201160014Y-83738974D01*
X200977172Y-83880057D01*
X200824486Y-84039686D01*
X200699498Y-84220504D01*
X200679949Y-84255145D01*
X200630730Y-84345149D01*
X200332401Y-84088486D01*
X200236552Y-84005898D01*
X200142761Y-83924851D01*
X200057109Y-83850620D01*
X199985677Y-83788474D01*
X199934546Y-83743688D01*
X199927638Y-83737585D01*
X199872872Y-83690333D01*
X199835435Y-83663544D01*
X199806075Y-83652979D01*
X199775537Y-83654402D01*
X199755281Y-83658669D01*
X199670137Y-83670533D01*
X199564629Y-83673831D01*
X199453556Y-83668955D01*
X199351717Y-83656295D01*
X199307633Y-83646846D01*
X199215030Y-83616274D01*
X199132404Y-83572640D01*
X199049578Y-83509586D01*
X198973646Y-83438204D01*
X198882004Y-83336764D01*
X198815896Y-83237723D01*
X198771969Y-83132415D01*
X198746868Y-83012174D01*
X198737240Y-82868334D01*
X198736857Y-82826410D01*
X198738272Y-82749397D01*
X198742098Y-82688755D01*
X198747707Y-82651694D01*
X198752781Y-82643738D01*
X198770575Y-82657248D01*
X198810866Y-82691374D01*
X198869307Y-82742322D01*
X198941550Y-82806294D01*
X199023246Y-82879497D01*
X199036561Y-82891502D01*
X199130561Y-82975617D01*
X199201674Y-83037302D01*
X199253321Y-83079117D01*
X199288925Y-83103621D01*
X199311907Y-83113374D01*
X199325689Y-83110934D01*
X199327635Y-83109216D01*
X199351004Y-83082776D01*
X199391139Y-83034971D01*
X199444227Y-82970546D01*
X199506457Y-82894242D01*
X199574016Y-82810802D01*
X199643093Y-82724969D01*
X199709876Y-82641485D01*
X199770552Y-82565093D01*
X199821309Y-82500536D01*
X199858337Y-82452556D01*
X199877821Y-82425896D01*
X199879857Y-82422179D01*
X199866550Y-82407429D01*
X199829492Y-82373419D01*
X199772984Y-82323911D01*
X199701322Y-82262664D01*
X199618804Y-82193441D01*
X199612250Y-82187994D01*
X199528663Y-82118061D01*
X199455168Y-82055617D01*
X199396175Y-82004491D01*
X199356096Y-81968506D01*
X199339342Y-81951490D01*
X199339164Y-81951128D01*
X199351338Y-81938242D01*
X199391564Y-81924946D01*
X199451658Y-81912742D01*
X199523435Y-81903129D01*
X199598712Y-81897612D01*
X199634929Y-81896857D01*
X199816254Y-81913143D01*
D12*
X207980000Y-103505000D03*
X208580000Y-103505000D03*
D13*
X207780000Y-101600000D03*
X208780000Y-101600000D03*
D10*
G36*
X216649236Y-98449393D02*
X217780607Y-99580764D01*
X216649236Y-100712135D01*
X215517865Y-99580764D01*
X216649236Y-98449393D01*
X216649236Y-98449393D01*
G37*
G36*
X214134764Y-100963865D02*
X215266135Y-102095236D01*
X214134764Y-103226607D01*
X213003393Y-102095236D01*
X214134764Y-100963865D01*
X214134764Y-100963865D01*
G37*
D14*
X214757000Y-83820000D03*
D15*
X214757000Y-86360000D03*
D14*
X212217000Y-83820000D03*
X212217000Y-86360000D03*
X209677000Y-83820000D03*
X209677000Y-86360000D03*
D16*
X209804000Y-92075000D03*
X206629000Y-92075000D03*
D17*
X209423000Y-95885000D03*
X207010000Y-95885000D03*
D18*
X209169000Y-99060000D03*
X207391000Y-99060000D03*
D19*
X215011000Y-96360000D03*
X216281000Y-96360000D03*
X217551000Y-96360000D03*
X218821000Y-96360000D03*
X218821000Y-89060000D03*
X217551000Y-89060000D03*
X216281000Y-89060000D03*
X215011000Y-89060000D03*
D20*
X212090000Y-92075000D03*
X211582000Y-95885000D03*
X211201000Y-99060000D03*
X210820000Y-101600000D03*
X210566000Y-103505000D03*
X198247000Y-92075000D03*
X198691500Y-95885000D03*
X199898000Y-99060000D03*
X201739500Y-101600000D03*
X204152500Y-103505000D03*
D21*
X204343000Y-92075000D03*
X200914000Y-92075000D03*
D22*
X204343000Y-95885000D03*
X202057000Y-95885000D03*
D23*
X204724000Y-99060000D03*
X202819000Y-99060000D03*
D24*
X204870000Y-101600000D03*
X203970000Y-101600000D03*
D25*
X206140000Y-103505000D03*
X205340000Y-103505000D03*
D26*
X207645000Y-81280000D03*
D27*
X199390000Y-87630000D03*
X218313000Y-97790000D03*
X212344000Y-103505000D03*
X217170000Y-90932000D03*
D28*
X204152500Y-103505000D02*
X205340000Y-103505000D01*
X203970000Y-101600000D02*
X203970000Y-103322500D01*
X203970000Y-103322500D02*
X204152500Y-103505000D01*
X199580500Y-87820500D02*
X199453500Y-87693500D01*
X199453500Y-87693500D02*
X199390000Y-87630000D01*
X218821000Y-96360000D02*
X218821000Y-97282000D01*
X218821000Y-97282000D02*
X218313000Y-97790000D01*
X216425214Y-99804786D02*
X218821000Y-97409000D01*
X218821000Y-97409000D02*
X218821000Y-96360000D01*
X202819000Y-99060000D02*
X202819000Y-100449000D01*
X202819000Y-100449000D02*
X203970000Y-101600000D01*
X202057000Y-95885000D02*
X202057000Y-98298000D01*
X202057000Y-98298000D02*
X202819000Y-99060000D01*
X200914000Y-92075000D02*
X200914000Y-94742000D01*
X200914000Y-94742000D02*
X202057000Y-95885000D01*
X209677000Y-86360000D02*
X201168000Y-86360000D01*
X200279000Y-91440000D02*
X200914000Y-92075000D01*
X200279000Y-87249000D02*
X200279000Y-91440000D01*
X201168000Y-86360000D02*
X199580500Y-87820500D01*
X199580500Y-87820500D02*
X200279000Y-87249000D01*
X201739500Y-101600000D02*
X203970000Y-101600000D01*
X199898000Y-99060000D02*
X202819000Y-99060000D01*
X198818500Y-95885000D02*
X202057000Y-95885000D01*
X200914000Y-92075000D02*
X198247000Y-92075000D01*
X212344000Y-103505000D02*
X213753764Y-102095236D01*
X213753764Y-102095236D02*
X214134764Y-102095236D01*
X215011000Y-89060000D02*
X215011000Y-90043000D01*
X215900000Y-90932000D02*
X217170000Y-90932000D01*
X215011000Y-90043000D02*
X215900000Y-90932000D01*
X213977786Y-102252214D02*
X213850786Y-102252214D01*
X215011000Y-89060000D02*
X215011000Y-86614000D01*
X215011000Y-86614000D02*
X214757000Y-86360000D01*
X217551000Y-89060000D02*
X217551000Y-89916000D01*
X212852000Y-94615000D02*
X215519000Y-94615000D01*
X212852000Y-94615000D02*
X211709000Y-95885000D01*
X217551000Y-94615000D02*
X215519000Y-94615000D01*
X218567000Y-93599000D02*
X217551000Y-94615000D01*
X218567000Y-90932000D02*
X218567000Y-93599000D01*
X217551000Y-89916000D02*
X218567000Y-90932000D01*
X211582000Y-95885000D02*
X211709000Y-95885000D01*
X217551000Y-89060000D02*
X217551000Y-85598000D01*
X215773000Y-83820000D02*
X214757000Y-83820000D01*
X217551000Y-85598000D02*
X215773000Y-83820000D01*
X209423000Y-95885000D02*
X211582000Y-95885000D01*
X212217000Y-83820000D02*
X213487000Y-85090000D01*
X213487000Y-85090000D02*
X213487000Y-92837000D01*
X208280000Y-94742000D02*
X209169000Y-93853000D01*
X208280000Y-97409000D02*
X208280000Y-94742000D01*
X209169000Y-98298000D02*
X208280000Y-97409000D01*
X209169000Y-99060000D02*
X209169000Y-98298000D01*
X209296000Y-93726000D02*
X209169000Y-93853000D01*
X212598000Y-93726000D02*
X209296000Y-93726000D01*
X213487000Y-92837000D02*
X212598000Y-93726000D01*
X216281000Y-89060000D02*
X216281000Y-85471000D01*
X215900000Y-85090000D02*
X213487000Y-85090000D01*
X216281000Y-85471000D02*
X215900000Y-85090000D01*
X209169000Y-99060000D02*
X211201000Y-99060000D01*
X212090000Y-92075000D02*
X212090000Y-86487000D01*
X212090000Y-86487000D02*
X212217000Y-86360000D01*
X218821000Y-89060000D02*
X218821000Y-85852000D01*
X210947000Y-85090000D02*
X212217000Y-86360000D01*
X210947000Y-82677000D02*
X210947000Y-85090000D01*
X211455000Y-82169000D02*
X210947000Y-82677000D01*
X215138000Y-82169000D02*
X211455000Y-82169000D01*
X218821000Y-85852000D02*
X215138000Y-82169000D01*
X209804000Y-92075000D02*
X212090000Y-92075000D01*
X215011000Y-96360000D02*
X215011000Y-97028000D01*
X215011000Y-97028000D02*
X211582000Y-100457000D01*
X211582000Y-100457000D02*
X204343000Y-100457000D01*
X204343000Y-100457000D02*
X203835000Y-99949000D01*
X203835000Y-99949000D02*
X203835000Y-97663000D01*
X203835000Y-97663000D02*
X203073000Y-96901000D01*
X203073000Y-96901000D02*
X203073000Y-94742000D01*
X203073000Y-94742000D02*
X203581000Y-94234000D01*
X203581000Y-94234000D02*
X207518000Y-94234000D01*
X207518000Y-94234000D02*
X208280000Y-93472000D01*
X208280000Y-93472000D02*
X208280000Y-91059000D01*
X208280000Y-91059000D02*
X209550000Y-89789000D01*
X209550000Y-89789000D02*
X209550000Y-88392000D01*
X209550000Y-88392000D02*
X210947000Y-86995000D01*
X210947000Y-86995000D02*
X210947000Y-85852000D01*
X210947000Y-85852000D02*
X209677000Y-84582000D01*
X209677000Y-84582000D02*
X209677000Y-83820000D01*
X204343000Y-95885000D02*
X207010000Y-95885000D01*
X204724000Y-99060000D02*
X207391000Y-99060000D01*
X204870000Y-101600000D02*
X207680000Y-101600000D01*
X206629000Y-92075000D02*
X204343000Y-92075000D01*
X210820000Y-101600000D02*
X211836000Y-101600000D01*
X211836000Y-101600000D02*
X216281000Y-97155000D01*
X216281000Y-97155000D02*
X216281000Y-96360000D01*
X208780000Y-101600000D02*
X210820000Y-101600000D01*
X208580000Y-103505000D02*
X209169000Y-103505000D01*
X209169000Y-103505000D02*
X210566000Y-103505000D01*
X210693000Y-103505000D02*
X211074000Y-103505000D01*
X211074000Y-103505000D02*
X217551000Y-97028000D01*
X217551000Y-97028000D02*
X217551000Y-96360000D01*
X207980000Y-103505000D02*
X207391000Y-103505000D01*
X207391000Y-103505000D02*
X206140000Y-103505000D01*
M02*
