<?xml version="1.0" encoding="UTF-8" standalone="no"?>
<svg
   xmlns:dc="http://purl.org/dc/elements/1.1/"
   xmlns:cc="http://creativecommons.org/ns#"
   xmlns:rdf="http://www.w3.org/1999/02/22-rdf-syntax-ns#"
   xmlns:svg="http://www.w3.org/2000/svg"
   xmlns="http://www.w3.org/2000/svg"
   xmlns:sodipodi="http://sodipodi.sourceforge.net/DTD/sodipodi-0.dtd"
   xmlns:inkscape="http://www.inkscape.org/namespaces/inkscape"
   version="1.1"
   width="2.821940cm"
   height="1.813560cm"
   viewBox="0 0 11110 7140"
   id="svg210"
   sodipodi:docname="project-brd.svg"
   inkscape:version="1.0.2-2 (e86c870879, 2021-01-15)">
  <metadata
     id="metadata216">
    <rdf:RDF>
      <cc:Work
         rdf:about="">
        <dc:format>image/svg+xml</dc:format>
        <dc:type
           rdf:resource="http://purl.org/dc/dcmitype/StillImage" />
      </cc:Work>
    </rdf:RDF>
  </metadata>
  <defs
     id="defs214" />
  <sodipodi:namedview
     pagecolor="#ffffff"
     bordercolor="#666666"
     borderopacity="1"
     objecttolerance="10"
     gridtolerance="10"
     guidetolerance="10"
     inkscape:pageopacity="0"
     inkscape:pageshadow="2"
     inkscape:window-width="1233"
     inkscape:window-height="731"
     id="namedview212"
     showgrid="false"
     inkscape:zoom="2.6393265"
     inkscape:cx="75.636886"
     inkscape:cy="17.60368"
     inkscape:window-x="148"
     inkscape:window-y="108"
     inkscape:window-maximized="0"
     inkscape:current-layer="g208" />
  <title
     id="title2">SVG Picture created as project-brd.svg date 2022/05/02 20:14:00 </title>
  <desc
     id="desc4">Picture generated by PCBNEW </desc>
  <g
     style="fill:#000000; fill-opacity:1;stroke:#000000; stroke-opacity:1; stroke-linecap:round; stroke-linejoin:round;"
     transform="translate(0 0) scale(1 1)"
     id="g6" />
  <g
     style="fill:#000000; fill-opacity:0.0;  stroke:#000000; stroke-width:-0.000393701; stroke-opacity:1;  stroke-linecap:round; stroke-linejoin:round;"
     id="g208">
    <g
       id="g8" />
    <g
       id="g10" />
    <g
       style="fill:#000000; fill-opacity:0.0;  stroke:#000000; stroke-width:-0.000393701; stroke-opacity:1;  stroke-linecap:round; stroke-linejoin:round;"
       id="g12" />
    <g
       style="fill:#000000; fill-opacity:0.0;  stroke:#000000; stroke-width:0; stroke-opacity:1;  stroke-linecap:round; stroke-linejoin:round;"
       id="g14" />
    <g
       id="g26" />
    <g
       id="g28" />
    <g
       id="g30" />
    <g
       style="fill:#000000; fill-opacity:1.0;  stroke:#000000; stroke-width:0; stroke-opacity:1;  stroke-linecap:round; stroke-linejoin:round;"
       id="g36">
      <path
         style="fill:#000000; fill-opacity:1.0;  stroke:#000000; stroke-width:0; stroke-opacity:1;  stroke-linecap:round; stroke-linejoin:round;fill-rule:evenodd;"
         d="M 5814.88,1446.85 6110.15,1446.85 6110.15,1761.81 5814.88,1761.81 Z"
         id="path32" />
      <path
         style="fill:#000000; fill-opacity:1.0;  stroke:#000000; stroke-width:0; stroke-opacity:1;  stroke-linecap:round; stroke-linejoin:round;fill-rule:evenodd;"
         d="M 5814.88,2037.4 6110.15,2037.4 6110.15,2352.36 5814.88,2352.36 Z"
         id="path34" />
    </g>
    <g
       id="g38" />
    <g
       style="fill:#000000; fill-opacity:1.0;  stroke:#000000; stroke-width:0; stroke-opacity:1;  stroke-linecap:round; stroke-linejoin:round;"
       id="g44">
      <path
         style="fill:#000000; fill-opacity:1.0;  stroke:#000000; stroke-width:0; stroke-opacity:1;  stroke-linecap:round; stroke-linejoin:round;fill-rule:evenodd;"
         d="M 4820.78,1161.42 4820.78,866.142 5135.74,866.142 5135.74,1161.42 Z"
         id="path40" />
      <path
         style="fill:#000000; fill-opacity:1.0;  stroke:#000000; stroke-width:0; stroke-opacity:1;  stroke-linecap:round; stroke-linejoin:round;fill-rule:evenodd;"
         d="M 4230.23,1161.42 4230.23,866.142 4545.19,866.142 4545.19,1161.42 Z"
         id="path42" />
    </g>
    <g
       id="g46" />
    <g
       style="fill:#000000; fill-opacity:1.0;  stroke:#000000; stroke-width:0; stroke-opacity:1;  stroke-linecap:round; stroke-linejoin:round;"
       id="g54">
      <path
         style="fill:#000000; fill-opacity:1.0;  stroke:#000000; stroke-width:0; stroke-opacity:1;  stroke-linecap:round; stroke-linejoin:round;fill-rule:evenodd;"
         d="M 8629.84,2037.4 8629.84,1761.81 8807,1761.81 8807,2037.4 Z"
         id="path48" />
      <path
         style="fill:#000000; fill-opacity:1.0;  stroke:#000000; stroke-width:0; stroke-opacity:1;  stroke-linecap:round; stroke-linejoin:round;fill-rule:evenodd;"
         d="M 8885.74,1250 8885.74,974.41 9062.91,974.41 9062.91,1250 Z"
         id="path50" />
      <path
         style="fill:#000000; fill-opacity:1.0;  stroke:#000000; stroke-width:0; stroke-opacity:1;  stroke-linecap:round; stroke-linejoin:round;fill-rule:evenodd;"
         d="M 8373.93,1250 8373.93,974.41 8551.1,974.41 8551.1,1250 Z"
         id="path52" />
    </g>
    <g
       id="g56" />
    <g
       style="fill:#000000; fill-opacity:1.0;  stroke:#000000; stroke-width:0; stroke-opacity:1;  stroke-linecap:round; stroke-linejoin:round;"
       id="g64">
      <path
         style="fill:#000000; fill-opacity:1.0;  stroke:#000000; stroke-width:0; stroke-opacity:1;  stroke-linecap:round; stroke-linejoin:round;fill-rule:evenodd;"
         d="M 9062.91,5797.24 9062.91,6072.84 8885.74,6072.84 8885.74,5797.24 Z"
         id="path58" />
      <path
         style="fill:#000000; fill-opacity:1.0;  stroke:#000000; stroke-width:0; stroke-opacity:1;  stroke-linecap:round; stroke-linejoin:round;fill-rule:evenodd;"
         d="M 8551.1,5797.24 8551.1,6072.84 8373.93,6072.84 8373.93,5797.24 Z"
         id="path60" />
      <path
         style="fill:#000000; fill-opacity:1.0;  stroke:#000000; stroke-width:0; stroke-opacity:1;  stroke-linecap:round; stroke-linejoin:round;fill-rule:evenodd;"
         d="M 8807,5009.84 8807,5285.43 8629.84,5285.43 8629.84,5009.84 Z"
         id="path62" />
    </g>
    <g
       id="g66" />
    <g
       style="fill:#000000; fill-opacity:1.0;  stroke:#000000; stroke-width:0; stroke-opacity:1;  stroke-linecap:round; stroke-linejoin:round;"
       id="g74">
      <path
         style="fill:#000000; fill-opacity:1.0;  stroke:#000000; stroke-width:0; stroke-opacity:1;  stroke-linecap:round; stroke-linejoin:round;fill-rule:evenodd;"
         d="M 5125.9,5797.24 5125.9,6072.84 4948.74,6072.84 4948.74,5797.24 Z"
         id="path68" />
      <path
         style="fill:#000000; fill-opacity:1.0;  stroke:#000000; stroke-width:0; stroke-opacity:1;  stroke-linecap:round; stroke-linejoin:round;fill-rule:evenodd;"
         d="M 4614.09,5797.24 4614.09,6072.84 4436.93,6072.84 4436.93,5797.24 Z"
         id="path70" />
      <path
         style="fill:#000000; fill-opacity:1.0;  stroke:#000000; stroke-width:0; stroke-opacity:1;  stroke-linecap:round; stroke-linejoin:round;fill-rule:evenodd;"
         d="M 4870,5009.84 4870,5285.43 4692.83,5285.43 4692.83,5009.84 Z"
         id="path72" />
    </g>
    <g
       id="g76" />
    <g
       style="fill:#000000; fill-opacity:1.0;  stroke:#000000; stroke-width:0; stroke-opacity:1;  stroke-linecap:round; stroke-linejoin:round;"
       id="g82">
      <path
         style="fill:#000000; fill-opacity:1.0;  stroke:#000000; stroke-width:0; stroke-opacity:1;  stroke-linecap:round; stroke-linejoin:round;fill-rule:evenodd;"
         d="M 5785.35,5541.34 6139.68,5541.34 6139.68,5738.19 5785.35,5738.19 Z"
         id="path78" />
      <path
         style="fill:#000000; fill-opacity:1.0;  stroke:#000000; stroke-width:0; stroke-opacity:1;  stroke-linecap:round; stroke-linejoin:round;fill-rule:evenodd;"
         d="M 5785.35,4950.79 6139.68,4950.79 6139.68,5147.64 5785.35,5147.64 Z"
         id="path80" />
    </g>
    <g
       id="g84" />
    <g
       style="fill:#000000; fill-opacity:1.0;  stroke:#000000; stroke-width:0; stroke-opacity:1;  stroke-linecap:round; stroke-linejoin:round;"
       id="g90">
      <path
         style="fill:#000000; fill-opacity:1.0;  stroke:#000000; stroke-width:0; stroke-opacity:1;  stroke-linecap:round; stroke-linejoin:round;fill-rule:evenodd;"
         d="M 7360.15,4950.79 7714.48,4950.79 7714.48,5147.64 7360.15,5147.64 Z"
         id="path86" />
      <path
         style="fill:#000000; fill-opacity:1.0;  stroke:#000000; stroke-width:0; stroke-opacity:1;  stroke-linecap:round; stroke-linejoin:round;fill-rule:evenodd;"
         d="M 7360.15,5541.34 7714.48,5541.34 7714.48,5738.19 7360.15,5738.19 Z"
         id="path88" />
    </g>
    <g
       id="g92" />
    <g
       style="fill:#000000; fill-opacity:1.0;  stroke:#000000; stroke-width:0; stroke-opacity:1;  stroke-linecap:round; stroke-linejoin:round;"
       id="g98">
      <path
         style="fill:#000000; fill-opacity:1.0;  stroke:#000000; stroke-width:0; stroke-opacity:1;  stroke-linecap:round; stroke-linejoin:round;fill-rule:evenodd;"
         d="M 6572.75,4950.79 6927.08,4950.79 6927.08,5147.64 6572.75,5147.64 Z"
         id="path94" />
      <path
         style="fill:#000000; fill-opacity:1.0;  stroke:#000000; stroke-width:0; stroke-opacity:1;  stroke-linecap:round; stroke-linejoin:round;fill-rule:evenodd;"
         d="M 6572.75,5541.34 6927.08,5541.34 6927.08,5738.19 6572.75,5738.19 Z"
         id="path96" />
    </g>
    <g
       id="g100" />
    <g
       style="fill:#000000; fill-opacity:1.0;  stroke:#000000; stroke-width:0; stroke-opacity:1;  stroke-linecap:round; stroke-linejoin:round;"
       id="g106">
      <path
         style="fill:#000000; fill-opacity:1.0;  stroke:#000000; stroke-width:0; stroke-opacity:1;  stroke-linecap:round; stroke-linejoin:round;fill-rule:evenodd;"
         d="M 8324.72,698.819 8324.72,344.489 8521.57,344.489 8521.57,698.819 Z"
         id="path102" />
      <path
         style="fill:#000000; fill-opacity:1.0;  stroke:#000000; stroke-width:0; stroke-opacity:1;  stroke-linecap:round; stroke-linejoin:round;fill-rule:evenodd;"
         d="M 8915.27,698.819 8915.27,344.489 9112.12,344.489 9112.12,698.819 Z"
         id="path104" />
    </g>
    <g
       id="g108" />
    <g
       style="fill:#000000; fill-opacity:1.0;  stroke:#000000; stroke-width:0; stroke-opacity:1;  stroke-linecap:round; stroke-linejoin:round;"
       id="g114">
      <path
         style="fill:#000000; fill-opacity:1.0;  stroke:#000000; stroke-width:0; stroke-opacity:1;  stroke-linecap:round; stroke-linejoin:round;fill-rule:evenodd;"
         d="M 8521.57,6348.43 8521.57,6702.76 8324.72,6702.76 8324.72,6348.43 Z"
         id="path110" />
      <path
         style="fill:#000000; fill-opacity:1.0;  stroke:#000000; stroke-width:0; stroke-opacity:1;  stroke-linecap:round; stroke-linejoin:round;fill-rule:evenodd;"
         d="M 9112.12,6348.43 9112.12,6702.76 8915.27,6702.76 8915.27,6348.43 Z"
         id="path112" />
    </g>
    <g
       id="g116" />
    <g
       style="fill:#000000; fill-opacity:1.0;  stroke:#000000; stroke-width:0; stroke-opacity:1;  stroke-linecap:round; stroke-linejoin:round;"
       id="g122">
      <path
         style="fill:#000000; fill-opacity:1.0;  stroke:#000000; stroke-width:0; stroke-opacity:1;  stroke-linecap:round; stroke-linejoin:round;fill-rule:evenodd;"
         d="M 4584.56,6348.43 4584.56,6702.76 4387.71,6702.76 4387.71,6348.43 Z"
         id="path118" />
      <path
         style="fill:#000000; fill-opacity:1.0;  stroke:#000000; stroke-width:0; stroke-opacity:1;  stroke-linecap:round; stroke-linejoin:round;fill-rule:evenodd;"
         d="M 5175.11,6348.43 5175.11,6702.76 4978.26,6702.76 4978.26,6348.43 Z"
         id="path120" />
    </g>
    <g
       id="g124" />
    <g
       style="fill:#000000; fill-opacity:1.0;  stroke:#000000; stroke-width:0; stroke-opacity:1;  stroke-linecap:round; stroke-linejoin:round;"
       id="g130">
      <path
         style="fill:#000000; fill-opacity:1.0;  stroke:#000000; stroke-width:0; stroke-opacity:1;  stroke-linecap:round; stroke-linejoin:round;fill-rule:evenodd;"
         d="M 7714.48,1604.33 7360.15,1604.33 7360.15,1407.48 7714.48,1407.48 Z"
         id="path126" />
      <path
         style="fill:#000000; fill-opacity:1.0;  stroke:#000000; stroke-width:0; stroke-opacity:1;  stroke-linecap:round; stroke-linejoin:round;fill-rule:evenodd;"
         d="M 7714.48,2194.88 7360.15,2194.88 7360.15,1998.03 7714.48,1998.03 Z"
         id="path128" />
    </g>
    <g
       id="g132" />
    <g
       style="fill:#000000; fill-opacity:1.0;  stroke:#000000; stroke-width:0; stroke-opacity:1;  stroke-linecap:round; stroke-linejoin:round;"
       id="g138">
      <path
         style="fill:#000000; fill-opacity:1.0;  stroke:#000000; stroke-width:0; stroke-opacity:1;  stroke-linecap:round; stroke-linejoin:round;fill-rule:evenodd;"
         d="M 6927.08,2194.88 6572.75,2194.88 6572.75,1998.03 6927.08,1998.03 Z"
         id="path134" />
      <path
         style="fill:#000000; fill-opacity:1.0;  stroke:#000000; stroke-width:0; stroke-opacity:1;  stroke-linecap:round; stroke-linejoin:round;fill-rule:evenodd;"
         d="M 6927.08,1604.33 6572.75,1604.33 6572.75,1407.48 6927.08,1407.48 Z"
         id="path136" />
    </g>
    <g
       id="g140" />
    <g
       style="fill:#000000; fill-opacity:1.0;  stroke:#000000; stroke-width:0; stroke-opacity:1;  stroke-linecap:round; stroke-linejoin:round;"
       id="g152">
      <path
         style="fill:#000000; fill-opacity:1.0;  stroke:#000000; stroke-width:0; stroke-opacity:1;  stroke-linecap:round; stroke-linejoin:round;fill-rule:evenodd;"
         d="M 4997.95,1614.17 5312.91,1614.17 5312.91,1830.71 4997.95,1830.71 Z"
         id="path142" />
      <path
         style="fill:#000000; fill-opacity:1.0;  stroke:#000000; stroke-width:0; stroke-opacity:1;  stroke-linecap:round; stroke-linejoin:round;fill-rule:evenodd;"
         d="M 4997.95,2362.21 5312.91,2362.21 5312.91,2578.74 4997.95,2578.74 Z"
         id="path144" />
      <path
         style="fill:#000000; fill-opacity:1.0;  stroke:#000000; stroke-width:0; stroke-opacity:1;  stroke-linecap:round; stroke-linejoin:round;fill-rule:evenodd;"
         d="M 4997.95,1988.19 5312.91,1988.19 5312.91,2204.72 4997.95,2204.72 Z"
         id="path146" />
      <path
         style="fill:#000000; fill-opacity:1.0;  stroke:#000000; stroke-width:0; stroke-opacity:1;  stroke-linecap:round; stroke-linejoin:round;fill-rule:evenodd;"
         d="M 4053.07,2362.21 4368.03,2362.21 4368.03,2578.74 4053.07,2578.74 Z"
         id="path148" />
      <path
         style="fill:#000000; fill-opacity:1.0;  stroke:#000000; stroke-width:0; stroke-opacity:1;  stroke-linecap:round; stroke-linejoin:round;fill-rule:evenodd;"
         d="M 4053.07,1614.17 4368.03,1614.17 4368.03,1830.71 4053.07,1830.71 Z"
         id="path150" />
    </g>
    <g
       id="g154" />
    <g
       style="fill:#000000; fill-opacity:1.0;  stroke:#000000; stroke-width:0; stroke-opacity:1;  stroke-linecap:round; stroke-linejoin:round;"
       id="g160">
      <path
         style="fill:#000000; fill-opacity:1.0;  stroke:#000000; stroke-width:0; stroke-opacity:1;  stroke-linecap:round; stroke-linejoin:round;fill-rule:evenodd;"
         d="M 5322.75,3435.04 5027.48,3435.04 5027.48,3120.08 5322.75,3120.08 Z"
         id="path156" />
      <path
         style="fill:#000000; fill-opacity:1.0;  stroke:#000000; stroke-width:0; stroke-opacity:1;  stroke-linecap:round; stroke-linejoin:round;fill-rule:evenodd;"
         d="M 5322.75,4025.59 5027.48,4025.59 5027.48,3710.63 5322.75,3710.63 Z"
         id="path158" />
    </g>
    <g
       id="g162" />
    <g
       style="fill:#000000; fill-opacity:1.0;  stroke:#000000; stroke-width:0; stroke-opacity:1;  stroke-linecap:round; stroke-linejoin:round;"
       id="g192">
      <path
         style="fill:#000000; fill-opacity:1.0;  stroke:#000000; stroke-width:0; stroke-opacity:1;  stroke-linecap:round; stroke-linejoin:round;fill-rule:evenodd;"
         d="M 6308.93,3326.87 6310.84,3327.15 6312.72,3327.62 6314.54,3328.27 6316.28,3329.1 6317.94,3330.09 6319.49,3331.24 6320.92,3332.54 6322.22,3333.97 6323.37,3335.52 6324.36,3337.18 6325.19,3338.92 6325.84,3340.74 6326.31,3342.62 6326.59,3344.53 6326.69,3346.46 6326.69,3385.83 6326.59,3387.76 6326.31,3389.67 6325.84,3391.54 6325.19,3393.36 6324.36,3395.11 6323.37,3396.76 6322.22,3398.32 6320.92,3399.75 6319.49,3401.04 6317.94,3402.19 6316.28,3403.19 6314.54,3404.01 6312.72,3404.66 6310.84,3405.13 6308.93,3405.42 6307,3405.51 6218.42,3405.51 6216.49,3405.42 6214.58,3405.13 6212.71,3404.66 6210.89,3404.01 6209.14,3403.19 6207.49,3402.19 6205.93,3401.04 6204.5,3399.75 6203.2,3398.32 6202.05,3396.76 6201.06,3395.11 6200.24,3393.36 6199.58,3391.54 6199.11,3389.67 6198.83,3387.76 6198.74,3385.83 6198.74,3346.46 6198.83,3344.53 6199.11,3342.62 6199.58,3340.74 6200.24,3338.92 6201.06,3337.18 6202.05,3335.52 6203.2,3333.97 6204.5,3332.54 6205.93,3331.24 6207.49,3330.09 6209.14,3329.1 6210.89,3328.27 6212.71,3327.62 6214.58,3327.15 6216.49,3326.87 6218.42,3326.77 6307,3326.77 Z"
         id="path164" />
      <path
         style="fill:#000000; fill-opacity:1.0;  stroke:#000000; stroke-width:0; stroke-opacity:1;  stroke-linecap:round; stroke-linejoin:round;fill-rule:evenodd;"
         d="M 6308.93,3464.66 6310.84,3464.95 6312.72,3465.41 6314.54,3466.07 6316.28,3466.89 6317.94,3467.89 6319.49,3469.04 6320.92,3470.33 6322.22,3471.76 6323.37,3473.32 6324.36,3474.97 6325.19,3476.72 6325.84,3478.54 6326.31,3480.41 6326.59,3482.32 6326.69,3484.25 6326.69,3523.62 6326.59,3525.55 6326.31,3527.46 6325.84,3529.34 6325.19,3531.16 6324.36,3532.9 6323.37,3534.56 6322.22,3536.11 6320.92,3537.54 6319.49,3538.84 6317.94,3539.99 6316.28,3540.98 6314.54,3541.81 6312.72,3542.46 6310.84,3542.93 6308.93,3543.21 6307,3543.31 6218.42,3543.31 6216.49,3543.21 6214.58,3542.93 6212.71,3542.46 6210.89,3541.81 6209.14,3540.98 6207.49,3539.99 6205.93,3538.84 6204.5,3537.54 6203.2,3536.11 6202.05,3534.56 6201.06,3532.9 6200.24,3531.16 6199.58,3529.34 6199.11,3527.46 6198.83,3525.55 6198.74,3523.62 6198.74,3484.25 6198.83,3482.32 6199.11,3480.41 6199.58,3478.54 6200.24,3476.72 6201.06,3474.97 6202.05,3473.32 6203.2,3471.76 6204.5,3470.33 6205.93,3469.04 6207.49,3467.89 6209.14,3466.89 6210.89,3466.07 6212.71,3465.41 6214.58,3464.95 6216.49,3464.66 6218.42,3464.57 6307,3464.57 Z"
         id="path166" />
      <path
         style="fill:#000000; fill-opacity:1.0;  stroke:#000000; stroke-width:0; stroke-opacity:1;  stroke-linecap:round; stroke-linejoin:round;fill-rule:evenodd;"
         d="M 6308.93,3602.46 6310.84,3602.74 6312.72,3603.21 6314.54,3603.86 6316.28,3604.69 6317.94,3605.68 6319.49,3606.83 6320.92,3608.13 6322.22,3609.56 6323.37,3611.11 6324.36,3612.77 6325.19,3614.51 6325.84,3616.33 6326.31,3618.21 6326.59,3620.12 6326.69,3622.05 6326.69,3661.42 6326.59,3663.35 6326.31,3665.26 6325.84,3667.13 6325.19,3668.95 6324.36,3670.7 6323.37,3672.35 6322.22,3673.91 6320.92,3675.34 6319.49,3676.63 6317.94,3677.79 6316.28,3678.78 6314.54,3679.6 6312.72,3680.26 6310.84,3680.72 6308.93,3681.01 6307,3681.1 6218.42,3681.1 6216.49,3681.01 6214.58,3680.72 6212.71,3680.26 6210.89,3679.6 6209.14,3678.78 6207.49,3677.79 6205.93,3676.63 6204.5,3675.34 6203.2,3673.91 6202.05,3672.35 6201.06,3670.7 6200.24,3668.95 6199.58,3667.13 6199.11,3665.26 6198.83,3663.35 6198.74,3661.42 6198.74,3622.05 6198.83,3620.12 6199.11,3618.21 6199.58,3616.33 6200.24,3614.51 6201.06,3612.77 6202.05,3611.11 6203.2,3609.56 6204.5,3608.13 6205.93,3606.83 6207.49,3605.68 6209.14,3604.69 6210.89,3603.86 6212.71,3603.21 6214.58,3602.74 6216.49,3602.46 6218.42,3602.36 6307,3602.36 Z"
         id="path168" />
      <path
         style="fill:#000000; fill-opacity:1.0;  stroke:#000000; stroke-width:0; stroke-opacity:1;  stroke-linecap:round; stroke-linejoin:round;fill-rule:evenodd;"
         d="M 6308.93,3740.25 6310.84,3740.54 6312.72,3741.01 6314.54,3741.66 6316.28,3742.48 6317.94,3743.48 6319.49,3744.63 6320.92,3745.92 6322.22,3747.35 6323.37,3748.91 6324.36,3750.56 6325.19,3752.31 6325.84,3754.13 6326.31,3756 6326.59,3757.91 6326.69,3759.84 6326.69,3799.21 6326.59,3801.14 6326.31,3803.05 6325.84,3804.93 6325.19,3806.75 6324.36,3808.49 6323.37,3810.15 6322.22,3811.7 6320.92,3813.13 6319.49,3814.43 6317.94,3815.58 6316.28,3816.57 6314.54,3817.4 6312.72,3818.05 6310.84,3818.52 6308.93,3818.8 6307,3818.9 6218.42,3818.9 6216.49,3818.8 6214.58,3818.52 6212.71,3818.05 6210.89,3817.4 6209.14,3816.57 6207.49,3815.58 6205.93,3814.43 6204.5,3813.13 6203.2,3811.7 6202.05,3810.15 6201.06,3808.49 6200.24,3806.75 6199.58,3804.93 6199.11,3803.05 6198.83,3801.14 6198.74,3799.21 6198.74,3759.84 6198.83,3757.91 6199.11,3756 6199.58,3754.13 6200.24,3752.31 6201.06,3750.56 6202.05,3748.91 6203.2,3747.35 6204.5,3745.92 6205.93,3744.63 6207.49,3743.48 6209.14,3742.48 6210.89,3741.66 6212.71,3741.01 6214.58,3740.54 6216.49,3740.25 6218.42,3740.16 6307,3740.16 Z"
         id="path170" />
      <path
         style="fill:#000000; fill-opacity:1.0;  stroke:#000000; stroke-width:0; stroke-opacity:1;  stroke-linecap:round; stroke-linejoin:round;fill-rule:evenodd;"
         d="M 6121.93,3809.15 6123.84,3809.43 6125.71,3809.9 6127.53,3810.55 6129.28,3811.38 6130.93,3812.37 6132.48,3813.52 6133.92,3814.82 6135.21,3816.25 6136.36,3817.8 6137.36,3819.46 6138.18,3821.21 6138.83,3823.03 6139.3,3824.9 6139.59,3826.81 6139.68,3828.74 6139.68,3917.32 6139.59,3919.25 6139.3,3921.16 6138.83,3923.04 6138.18,3924.86 6137.36,3926.6 6136.36,3928.26 6135.21,3929.81 6133.92,3931.24 6132.48,3932.54 6130.93,3933.69 6129.28,3934.68 6127.53,3935.51 6125.71,3936.16 6123.84,3936.63 6121.93,3936.91 6120,3937.01 6080.63,3937.01 6078.7,3936.91 6076.79,3936.63 6074.91,3936.16 6073.09,3935.51 6071.35,3934.68 6069.69,3933.69 6068.14,3932.54 6066.71,3931.24 6065.41,3929.81 6064.26,3928.26 6063.27,3926.6 6062.44,3924.86 6061.79,3923.04 6061.32,3921.16 6061.04,3919.25 6060.94,3917.32 6060.94,3828.74 6061.04,3826.81 6061.32,3824.9 6061.79,3823.03 6062.44,3821.21 6063.27,3819.46 6064.26,3817.8 6065.41,3816.25 6066.71,3814.82 6068.14,3813.52 6069.69,3812.37 6071.35,3811.38 6073.09,3810.55 6074.91,3809.9 6076.79,3809.43 6078.7,3809.15 6080.63,3809.06 6120,3809.06 Z"
         id="path172" />
      <path
         style="fill:#000000; fill-opacity:1.0;  stroke:#000000; stroke-width:0; stroke-opacity:1;  stroke-linecap:round; stroke-linejoin:round;fill-rule:evenodd;"
         d="M 5984.13,3809.15 5986.04,3809.43 5987.92,3809.9 5989.73,3810.55 5991.48,3811.38 5993.14,3812.37 5994.69,3813.52 5996.12,3814.82 5997.42,3816.25 5998.57,3817.8 5999.56,3819.46 6000.39,3821.21 6001.04,3823.03 6001.51,3824.9 6001.79,3826.81 6001.89,3828.74 6001.89,3917.32 6001.79,3919.25 6001.51,3921.16 6001.04,3923.04 6000.39,3924.86 5999.56,3926.6 5998.57,3928.26 5997.42,3929.81 5996.12,3931.24 5994.69,3932.54 5993.14,3933.69 5991.48,3934.68 5989.73,3935.51 5987.92,3936.16 5986.04,3936.63 5984.13,3936.91 5982.2,3937.01 5942.83,3937.01 5940.9,3936.91 5938.99,3936.63 5937.12,3936.16 5935.3,3935.51 5933.55,3934.68 5931.89,3933.69 5930.34,3932.54 5928.91,3931.24 5927.61,3929.81 5926.46,3928.26 5925.47,3926.6 5924.64,3924.86 5923.99,3923.04 5923.52,3921.16 5923.24,3919.25 5923.15,3917.32 5923.15,3828.74 5923.24,3826.81 5923.52,3824.9 5923.99,3823.03 5924.64,3821.21 5925.47,3819.46 5926.46,3817.8 5927.61,3816.25 5928.91,3814.82 5930.34,3813.52 5931.89,3812.37 5933.55,3811.38 5935.3,3810.55 5937.12,3809.9 5938.99,3809.43 5940.9,3809.15 5942.83,3809.06 5982.2,3809.06 Z"
         id="path174" />
      <path
         style="fill:#000000; fill-opacity:1.0;  stroke:#000000; stroke-width:0; stroke-opacity:1;  stroke-linecap:round; stroke-linejoin:round;fill-rule:evenodd;"
         d="M 5846.34,3809.15 5848.25,3809.43 5850.12,3809.9 5851.94,3810.55 5853.69,3811.38 5855.34,3812.37 5856.89,3813.52 5858.33,3814.82 5859.62,3816.25 5860.77,3817.8 5861.77,3819.46 5862.59,3821.21 5863.24,3823.03 5863.71,3824.9 5864,3826.81 5864.09,3828.74 5864.09,3917.32 5864,3919.25 5863.71,3921.16 5863.24,3923.04 5862.59,3924.86 5861.77,3926.6 5860.77,3928.26 5859.62,3929.81 5858.33,3931.24 5856.89,3932.54 5855.34,3933.69 5853.69,3934.68 5851.94,3935.51 5850.12,3936.16 5848.25,3936.63 5846.34,3936.91 5844.41,3937.01 5805.04,3937.01 5803.11,3936.91 5801.2,3936.63 5799.32,3936.16 5797.5,3935.51 5795.76,3934.68 5794.1,3933.69 5792.55,3932.54 5791.12,3931.24 5789.82,3929.81 5788.67,3928.26 5787.68,3926.6 5786.85,3924.86 5786.2,3923.04 5785.73,3921.16 5785.45,3919.25 5785.35,3917.32 5785.35,3828.74 5785.45,3826.81 5785.73,3824.9 5786.2,3823.03 5786.85,3821.21 5787.68,3819.46 5788.67,3817.8 5789.82,3816.25 5791.12,3814.82 5792.55,3813.52 5794.1,3812.37 5795.76,3811.38 5797.5,3810.55 5799.32,3809.9 5801.2,3809.43 5803.11,3809.15 5805.04,3809.06 5844.41,3809.06 Z"
         id="path176" />
      <path
         style="fill:#000000; fill-opacity:1.0;  stroke:#000000; stroke-width:0; stroke-opacity:1;  stroke-linecap:round; stroke-linejoin:round;fill-rule:evenodd;"
         d="M 5708.54,3740.25 5710.45,3740.54 5712.32,3741.01 5714.14,3741.66 5715.89,3742.48 5717.55,3743.48 5719.1,3744.63 5720.53,3745.92 5721.83,3747.35 5722.98,3748.91 5723.97,3750.56 5724.8,3752.31 5725.45,3754.13 5725.92,3756 5726.2,3757.91 5726.3,3759.84 5726.3,3799.21 5726.2,3801.14 5725.92,3803.05 5725.45,3804.93 5724.8,3806.75 5723.97,3808.49 5722.98,3810.15 5721.83,3811.7 5720.53,3813.13 5719.1,3814.43 5717.55,3815.58 5715.89,3816.57 5714.14,3817.4 5712.32,3818.05 5710.45,3818.52 5708.54,3818.8 5706.61,3818.9 5618.03,3818.9 5616.1,3818.8 5614.19,3818.52 5612.31,3818.05 5610.49,3817.4 5608.75,3816.57 5607.09,3815.58 5605.54,3814.43 5604.11,3813.13 5602.81,3811.7 5601.66,3810.15 5600.67,3808.49 5599.84,3806.75 5599.19,3804.93 5598.72,3803.05 5598.44,3801.14 5598.34,3799.21 5598.34,3759.84 5598.44,3757.91 5598.72,3756 5599.19,3754.13 5599.84,3752.31 5600.67,3750.56 5601.66,3748.91 5602.81,3747.35 5604.11,3745.92 5605.54,3744.63 5607.09,3743.48 5608.75,3742.48 5610.49,3741.66 5612.31,3741.01 5614.19,3740.54 5616.1,3740.25 5618.03,3740.16 5706.61,3740.16 Z"
         id="path178" />
      <path
         style="fill:#000000; fill-opacity:1.0;  stroke:#000000; stroke-width:0; stroke-opacity:1;  stroke-linecap:round; stroke-linejoin:round;fill-rule:evenodd;"
         d="M 5708.54,3602.46 5710.45,3602.74 5712.32,3603.21 5714.14,3603.86 5715.89,3604.69 5717.55,3605.68 5719.1,3606.83 5720.53,3608.13 5721.83,3609.56 5722.98,3611.11 5723.97,3612.77 5724.8,3614.51 5725.45,3616.33 5725.92,3618.21 5726.2,3620.12 5726.3,3622.05 5726.3,3661.42 5726.2,3663.35 5725.92,3665.26 5725.45,3667.13 5724.8,3668.95 5723.97,3670.7 5722.98,3672.35 5721.83,3673.91 5720.53,3675.34 5719.1,3676.63 5717.55,3677.79 5715.89,3678.78 5714.14,3679.6 5712.32,3680.26 5710.45,3680.72 5708.54,3681.01 5706.61,3681.1 5618.03,3681.1 5616.1,3681.01 5614.19,3680.72 5612.31,3680.26 5610.49,3679.6 5608.75,3678.78 5607.09,3677.79 5605.54,3676.63 5604.11,3675.34 5602.81,3673.91 5601.66,3672.35 5600.67,3670.7 5599.84,3668.95 5599.19,3667.13 5598.72,3665.26 5598.44,3663.35 5598.34,3661.42 5598.34,3622.05 5598.44,3620.12 5598.72,3618.21 5599.19,3616.33 5599.84,3614.51 5600.67,3612.77 5601.66,3611.11 5602.81,3609.56 5604.11,3608.13 5605.54,3606.83 5607.09,3605.68 5608.75,3604.69 5610.49,3603.86 5612.31,3603.21 5614.19,3602.74 5616.1,3602.46 5618.03,3602.36 5706.61,3602.36 Z"
         id="path180" />
      <path
         style="fill:#000000; fill-opacity:1.0;  stroke:#000000; stroke-width:0; stroke-opacity:1;  stroke-linecap:round; stroke-linejoin:round;fill-rule:evenodd;"
         d="M 5708.54,3464.66 5710.45,3464.95 5712.32,3465.41 5714.14,3466.07 5715.89,3466.89 5717.55,3467.89 5719.1,3469.04 5720.53,3470.33 5721.83,3471.76 5722.98,3473.32 5723.97,3474.97 5724.8,3476.72 5725.45,3478.54 5725.92,3480.41 5726.2,3482.32 5726.3,3484.25 5726.3,3523.62 5726.2,3525.55 5725.92,3527.46 5725.45,3529.34 5724.8,3531.16 5723.97,3532.9 5722.98,3534.56 5721.83,3536.11 5720.53,3537.54 5719.1,3538.84 5717.55,3539.99 5715.89,3540.98 5714.14,3541.81 5712.32,3542.46 5710.45,3542.93 5708.54,3543.21 5706.61,3543.31 5618.03,3543.31 5616.1,3543.21 5614.19,3542.93 5612.31,3542.46 5610.49,3541.81 5608.75,3540.98 5607.09,3539.99 5605.54,3538.84 5604.11,3537.54 5602.81,3536.11 5601.66,3534.56 5600.67,3532.9 5599.84,3531.16 5599.19,3529.34 5598.72,3527.46 5598.44,3525.55 5598.34,3523.62 5598.34,3484.25 5598.44,3482.32 5598.72,3480.41 5599.19,3478.54 5599.84,3476.72 5600.67,3474.97 5601.66,3473.32 5602.81,3471.76 5604.11,3470.33 5605.54,3469.04 5607.09,3467.89 5608.75,3466.89 5610.49,3466.07 5612.31,3465.41 5614.19,3464.95 5616.1,3464.66 5618.03,3464.57 5706.61,3464.57 Z"
         id="path182" />
      <path
         style="fill:#000000; fill-opacity:1.0;  stroke:#000000; stroke-width:0; stroke-opacity:1;  stroke-linecap:round; stroke-linejoin:round;fill-rule:evenodd;"
         d="M 5708.54,3326.87 5710.45,3327.15 5712.32,3327.62 5714.14,3328.27 5715.89,3329.1 5717.55,3330.09 5719.1,3331.24 5720.53,3332.54 5721.83,3333.97 5722.98,3335.52 5723.97,3337.18 5724.8,3338.92 5725.45,3340.74 5725.92,3342.62 5726.2,3344.53 5726.3,3346.46 5726.3,3385.83 5726.2,3387.76 5725.92,3389.67 5725.45,3391.54 5724.8,3393.36 5723.97,3395.11 5722.98,3396.76 5721.83,3398.32 5720.53,3399.75 5719.1,3401.04 5717.55,3402.19 5715.89,3403.19 5714.14,3404.01 5712.32,3404.66 5710.45,3405.13 5708.54,3405.42 5706.61,3405.51 5618.03,3405.51 5616.1,3405.42 5614.19,3405.13 5612.31,3404.66 5610.49,3404.01 5608.75,3403.19 5607.09,3402.19 5605.54,3401.04 5604.11,3399.75 5602.81,3398.32 5601.66,3396.76 5600.67,3395.11 5599.84,3393.36 5599.19,3391.54 5598.72,3389.67 5598.44,3387.76 5598.34,3385.83 5598.34,3346.46 5598.44,3344.53 5598.72,3342.62 5599.19,3340.74 5599.84,3338.92 5600.67,3337.18 5601.66,3335.52 5602.81,3333.97 5604.11,3332.54 5605.54,3331.24 5607.09,3330.09 5608.75,3329.1 5610.49,3328.27 5612.31,3327.62 5614.19,3327.15 5616.1,3326.87 5618.03,3326.77 5706.61,3326.77 Z"
         id="path184" />
      <path
         style="fill:#000000; fill-opacity:1.0;  stroke:#000000; stroke-width:0; stroke-opacity:1;  stroke-linecap:round; stroke-linejoin:round;fill-rule:evenodd;"
         d="M 5846.34,3208.76 5848.25,3209.04 5850.12,3209.51 5851.94,3210.16 5853.69,3210.99 5855.34,3211.98 5856.89,3213.13 5858.33,3214.43 5859.62,3215.86 5860.77,3217.41 5861.77,3219.07 5862.59,3220.81 5863.24,3222.63 5863.71,3224.51 5864,3226.42 5864.09,3228.35 5864.09,3316.93 5864,3318.86 5863.71,3320.77 5863.24,3322.64 5862.59,3324.46 5861.77,3326.21 5860.77,3327.87 5859.62,3329.42 5858.33,3330.85 5856.89,3332.15 5855.34,3333.3 5853.69,3334.29 5851.94,3335.12 5850.12,3335.77 5848.25,3336.24 5846.34,3336.52 5844.41,3336.61 5805.04,3336.61 5803.11,3336.52 5801.2,3336.24 5799.32,3335.77 5797.5,3335.12 5795.76,3334.29 5794.1,3333.3 5792.55,3332.15 5791.12,3330.85 5789.82,3329.42 5788.67,3327.87 5787.68,3326.21 5786.85,3324.46 5786.2,3322.64 5785.73,3320.77 5785.45,3318.86 5785.35,3316.93 5785.35,3228.35 5785.45,3226.42 5785.73,3224.51 5786.2,3222.63 5786.85,3220.81 5787.68,3219.07 5788.67,3217.41 5789.82,3215.86 5791.12,3214.43 5792.55,3213.13 5794.1,3211.98 5795.76,3210.99 5797.5,3210.16 5799.32,3209.51 5801.2,3209.04 5803.11,3208.76 5805.04,3208.66 5844.41,3208.66 Z"
         id="path186" />
      <path
         style="fill:#000000; fill-opacity:1.0;  stroke:#000000; stroke-width:0; stroke-opacity:1;  stroke-linecap:round; stroke-linejoin:round;fill-rule:evenodd;"
         d="M 5984.13,3208.76 5986.04,3209.04 5987.92,3209.51 5989.73,3210.16 5991.48,3210.99 5993.14,3211.98 5994.69,3213.13 5996.12,3214.43 5997.42,3215.86 5998.57,3217.41 5999.56,3219.07 6000.39,3220.81 6001.04,3222.63 6001.51,3224.51 6001.79,3226.42 6001.89,3228.35 6001.89,3316.93 6001.79,3318.86 6001.51,3320.77 6001.04,3322.64 6000.39,3324.46 5999.56,3326.21 5998.57,3327.87 5997.42,3329.42 5996.12,3330.85 5994.69,3332.15 5993.14,3333.3 5991.48,3334.29 5989.73,3335.12 5987.92,3335.77 5986.04,3336.24 5984.13,3336.52 5982.2,3336.61 5942.83,3336.61 5940.9,3336.52 5938.99,3336.24 5937.12,3335.77 5935.3,3335.12 5933.55,3334.29 5931.89,3333.3 5930.34,3332.15 5928.91,3330.85 5927.61,3329.42 5926.46,3327.87 5925.47,3326.21 5924.64,3324.46 5923.99,3322.64 5923.52,3320.77 5923.24,3318.86 5923.15,3316.93 5923.15,3228.35 5923.24,3226.42 5923.52,3224.51 5923.99,3222.63 5924.64,3220.81 5925.47,3219.07 5926.46,3217.41 5927.61,3215.86 5928.91,3214.43 5930.34,3213.13 5931.89,3211.98 5933.55,3210.99 5935.3,3210.16 5937.12,3209.51 5938.99,3209.04 5940.9,3208.76 5942.83,3208.66 5982.2,3208.66 Z"
         id="path188" />
      <path
         style="fill:#000000; fill-opacity:1.0;  stroke:#000000; stroke-width:0; stroke-opacity:1;  stroke-linecap:round; stroke-linejoin:round;fill-rule:evenodd;"
         d="M 6121.93,3208.76 6123.84,3209.04 6125.71,3209.51 6127.53,3210.16 6129.28,3210.99 6130.93,3211.98 6132.48,3213.13 6133.92,3214.43 6135.21,3215.86 6136.36,3217.41 6137.36,3219.07 6138.18,3220.81 6138.83,3222.63 6139.3,3224.51 6139.59,3226.42 6139.68,3228.35 6139.68,3316.93 6139.59,3318.86 6139.3,3320.77 6138.83,3322.64 6138.18,3324.46 6137.36,3326.21 6136.36,3327.87 6135.21,3329.42 6133.92,3330.85 6132.48,3332.15 6130.93,3333.3 6129.28,3334.29 6127.53,3335.12 6125.71,3335.77 6123.84,3336.24 6121.93,3336.52 6120,3336.61 6080.63,3336.61 6078.7,3336.52 6076.79,3336.24 6074.91,3335.77 6073.09,3335.12 6071.35,3334.29 6069.69,3333.3 6068.14,3332.15 6066.71,3330.85 6065.41,3329.42 6064.26,3327.87 6063.27,3326.21 6062.44,3324.46 6061.79,3322.64 6061.32,3320.77 6061.04,3318.86 6060.94,3316.93 6060.94,3228.35 6061.04,3226.42 6061.32,3224.51 6061.79,3222.63 6062.44,3220.81 6063.27,3219.07 6064.26,3217.41 6065.41,3215.86 6066.71,3214.43 6068.14,3213.13 6069.69,3211.98 6071.35,3210.99 6073.09,3210.16 6074.91,3209.51 6076.79,3209.04 6078.7,3208.76 6080.63,3208.66 6120,3208.66 Z"
         id="path190" />
    </g>
    <g
       id="g194" />
    <g
       style="fill:#000000; fill-opacity:1.0;  stroke:#000000; stroke-width:0; stroke-opacity:1;  stroke-linecap:round; stroke-linejoin:round;"
       id="g200">
      <path
         style="fill:#000000; fill-opacity:1.0;  stroke:#000000; stroke-width:0; stroke-opacity:1;  stroke-linecap:round; stroke-linejoin:round;fill-rule:evenodd;"
         d="M 4633.78,4163.39 4141.65,4163.39 4141.65,3769.69 4633.78,3769.69 Z"
         id="path196" />
      <path
         style="fill:#000000; fill-opacity:1.0;  stroke:#000000; stroke-width:0; stroke-opacity:1;  stroke-linecap:round; stroke-linejoin:round;fill-rule:evenodd;"
         d="M 4633.78,3375.98 4141.65,3375.98 4141.65,2982.28 4633.78,2982.28 Z"
         id="path198" />
    </g>
    <g
       id="g202" />
    <g
       id="g204" />
    <g
       id="g206" />
    <text
       xml:space="preserve"
       style="font-weight:bold;font-size:555.555px;line-height:0;font-family:Arial;-inkscape-font-specification:'Arial Bold';text-align:end;text-anchor:end;fill:#000000;stroke-width:-0.0410105;stroke-linecap:round"
       x="5032.0605"
       y="8031.563"
       id="text1043"><tspan
         sodipodi:role="line"
         id="tspan1041"
         x="5032.0605"
         y="8031.563"
         style="stroke-width:-0.0410105"></tspan></text>
    <text
       xml:space="preserve"
       style="font-weight:bold;font-size:1111.11px;line-height:0;font-family:Arial;-inkscape-font-specification:'Arial Bold';text-align:end;text-anchor:end;fill:#000000;stroke-width:-0.0410105;stroke-linecap:round"
       x="8149.9644"
       y="8584.1035"
       id="text1047"><tspan
         sodipodi:role="line"
         id="tspan1045"
         x="8149.9644"
         y="8584.1035"
         style="font-size:833.333px;fill:#000000;fill-opacity:1;stroke-width:-0.0410105">LIS2 V0</tspan></text>
  </g>
</svg>
