M48
;DRILL file {KiCad 4.0.7} date 04/11/19 21:17:01
;FORMAT={-:-/ absolute / inch / decimal}
FMAT,2
INCH,TZ
T1C0.028
T2C0.031
T3C0.039
%
G90
G05
M72
T1
X5.8Y-4.2
X5.8Y-4.3
X6.Y-4.2
X6.Y-4.3
X6.1Y-4.2
X6.1Y-4.3
X6.3Y-4.2
X6.3Y-4.3
T2
X5.6209Y-4.1213
X5.6209Y-4.2787
X5.6917Y-4.1213
X5.6917Y-4.2787
X6.4083Y-4.1213
X6.4083Y-4.2787
X6.4791Y-4.1213
X6.4791Y-4.2787
T3
X5.9Y-4.1
X6.Y-4.1
X6.1Y-4.1
X6.2Y-4.1
T0
M30
