G04 #@! TF.FileFunction,Copper,L2,Bot,Signal*
%FSLAX46Y46*%
G04 Gerber Fmt 4.6, Leading zero omitted, Abs format (unit mm)*
G04 Created by KiCad (PCBNEW 4.0.7) date 04/11/19 21:18:09*
%MOMM*%
%LPD*%
G01*
G04 APERTURE LIST*
%ADD10C,0.100000*%
%ADD11R,1.700000X1.700000*%
%ADD12O,1.700000X1.700000*%
%ADD13C,1.400000*%
%ADD14O,1.400000X1.400000*%
%ADD15R,1.400000X1.400000*%
%ADD16C,0.406400*%
%ADD17C,0.254000*%
G04 APERTURE END LIST*
D10*
D11*
X149860000Y-104140000D03*
D12*
X152400000Y-104140000D03*
X154940000Y-104140000D03*
X157480000Y-104140000D03*
D13*
X154940000Y-109220000D03*
D14*
X160020000Y-109220000D03*
D13*
X154940000Y-106680000D03*
D14*
X160020000Y-106680000D03*
D15*
X144570000Y-108680000D03*
D13*
X144570000Y-104680000D03*
X142770000Y-104680000D03*
X142770000Y-108680000D03*
X147320000Y-109220000D03*
D14*
X152400000Y-109220000D03*
D13*
X147320000Y-106680000D03*
D14*
X152400000Y-106680000D03*
D15*
X164570000Y-108680000D03*
D13*
X164570000Y-104680000D03*
X162770000Y-104680000D03*
X162770000Y-108680000D03*
D16*
X152400000Y-106680000D02*
X151130000Y-106680000D01*
X149860000Y-105410000D02*
X149860000Y-104140000D01*
X151130000Y-106680000D02*
X149860000Y-105410000D01*
X160020000Y-106680000D02*
X160020000Y-109220000D01*
X144410000Y-104680000D02*
X147860000Y-104680000D01*
X157480000Y-106680000D02*
X157480000Y-104140000D01*
X156210000Y-107950000D02*
X157480000Y-106680000D01*
X151130000Y-107950000D02*
X156210000Y-107950000D01*
X147860000Y-104680000D02*
X151130000Y-107950000D01*
X142610000Y-108680000D02*
X142610000Y-107580000D01*
X144410000Y-105780000D02*
X144410000Y-104680000D01*
X142610000Y-107580000D02*
X144410000Y-105780000D01*
X162930000Y-108680000D02*
X162930000Y-107050000D01*
X162930000Y-107050000D02*
X160020000Y-104140000D01*
X160020000Y-104140000D02*
X157480000Y-104140000D01*
X164730000Y-104680000D02*
X164730000Y-105780000D01*
X162930000Y-107580000D02*
X162930000Y-108680000D01*
X164730000Y-105780000D02*
X162930000Y-107580000D01*
D17*
G36*
X156429946Y-105219147D02*
X156641800Y-105360703D01*
X156641800Y-106332806D01*
X156277868Y-106696738D01*
X156258664Y-106342560D01*
X156111042Y-105986169D01*
X155875275Y-105924331D01*
X155119605Y-106680000D01*
X155133748Y-106694142D01*
X154954143Y-106873748D01*
X154940000Y-106859605D01*
X154925858Y-106873748D01*
X154746252Y-106694142D01*
X154760395Y-106680000D01*
X154004725Y-105924331D01*
X153768958Y-105986169D01*
X153675783Y-106250810D01*
X153659533Y-106169118D01*
X153370142Y-105736012D01*
X153023325Y-105504277D01*
X153450054Y-105219147D01*
X153677702Y-104878447D01*
X153744817Y-105021358D01*
X154173076Y-105411645D01*
X154327095Y-105475438D01*
X154246169Y-105508958D01*
X154184331Y-105744725D01*
X154940000Y-106500395D01*
X155695669Y-105744725D01*
X155633831Y-105508958D01*
X155546344Y-105478155D01*
X155706924Y-105411645D01*
X156135183Y-105021358D01*
X156202298Y-104878447D01*
X156429946Y-105219147D01*
X156429946Y-105219147D01*
G37*
X156429946Y-105219147D02*
X156641800Y-105360703D01*
X156641800Y-106332806D01*
X156277868Y-106696738D01*
X156258664Y-106342560D01*
X156111042Y-105986169D01*
X155875275Y-105924331D01*
X155119605Y-106680000D01*
X155133748Y-106694142D01*
X154954143Y-106873748D01*
X154940000Y-106859605D01*
X154925858Y-106873748D01*
X154746252Y-106694142D01*
X154760395Y-106680000D01*
X154004725Y-105924331D01*
X153768958Y-105986169D01*
X153675783Y-106250810D01*
X153659533Y-106169118D01*
X153370142Y-105736012D01*
X153023325Y-105504277D01*
X153450054Y-105219147D01*
X153677702Y-104878447D01*
X153744817Y-105021358D01*
X154173076Y-105411645D01*
X154327095Y-105475438D01*
X154246169Y-105508958D01*
X154184331Y-105744725D01*
X154940000Y-106500395D01*
X155695669Y-105744725D01*
X155633831Y-105508958D01*
X155546344Y-105478155D01*
X155706924Y-105411645D01*
X156135183Y-105021358D01*
X156202298Y-104878447D01*
X156429946Y-105219147D01*
G36*
X162014331Y-103744725D02*
X162770000Y-104500395D01*
X162784142Y-104486252D01*
X162963748Y-104665858D01*
X162949605Y-104680000D01*
X162963748Y-104694143D01*
X162784142Y-104873748D01*
X162770000Y-104859605D01*
X162755858Y-104873748D01*
X162576252Y-104694142D01*
X162590395Y-104680000D01*
X161834725Y-103924331D01*
X161598958Y-103986169D01*
X161456416Y-104391022D01*
X160645394Y-103580000D01*
X162057536Y-103580000D01*
X162014331Y-103744725D01*
X162014331Y-103744725D01*
G37*
X162014331Y-103744725D02*
X162770000Y-104500395D01*
X162784142Y-104486252D01*
X162963748Y-104665858D01*
X162949605Y-104680000D01*
X162963748Y-104694143D01*
X162784142Y-104873748D01*
X162770000Y-104859605D01*
X162755858Y-104873748D01*
X162576252Y-104694142D01*
X162590395Y-104680000D01*
X161834725Y-103924331D01*
X161598958Y-103986169D01*
X161456416Y-104391022D01*
X160645394Y-103580000D01*
X162057536Y-103580000D01*
X162014331Y-103744725D01*
G36*
X155067000Y-104013000D02*
X155087000Y-104013000D01*
X155087000Y-104267000D01*
X155067000Y-104267000D01*
X155067000Y-104287000D01*
X154813000Y-104287000D01*
X154813000Y-104267000D01*
X154793000Y-104267000D01*
X154793000Y-104013000D01*
X154813000Y-104013000D01*
X154813000Y-103993000D01*
X155067000Y-103993000D01*
X155067000Y-104013000D01*
X155067000Y-104013000D01*
G37*
X155067000Y-104013000D02*
X155087000Y-104013000D01*
X155087000Y-104267000D01*
X155067000Y-104267000D01*
X155067000Y-104287000D01*
X154813000Y-104287000D01*
X154813000Y-104267000D01*
X154793000Y-104267000D01*
X154793000Y-104013000D01*
X154813000Y-104013000D01*
X154813000Y-103993000D01*
X155067000Y-103993000D01*
X155067000Y-104013000D01*
M02*
