M48
;DRILL file {KiCad 4.0.7} date 07/04/19 18:58:09
;FORMAT={-:-/ absolute / inch / decimal}
FMAT,2
INCH,TZ
T1C0.028
T2C0.031
T3C0.039
T4C0.047
T5C0.060
T6C0.070
T7C0.118
%
G90
G05
M72
T1
X5.4102Y-2.005
X5.735Y-2.005
T2
X5.9054Y-2.0222
T3
X5.3858Y-2.845
X5.6142Y-2.845
T4
X5.28Y-2.125
X5.78Y-2.125
T5
X5.2361Y-2.3372
X5.2361Y-2.5372
X5.9842Y-2.2553
X5.9842Y-2.4553
X5.9842Y-2.6884
X5.9842Y-2.8884
T6
X5.31Y-2.775
X5.31Y-2.9089
X5.7006Y-2.775
X5.7006Y-2.9089
T7
X5.118Y-2.0616
X5.118Y-2.8884
X6.1023Y-2.0616
T0
M30
