G04 #@! TF.FileFunction,Copper,L2,Bot,Signal*
%FSLAX46Y46*%
G04 Gerber Fmt 4.6, Leading zero omitted, Abs format (unit mm)*
G04 Created by KiCad (PCBNEW 4.0.7) date 08/08/19 18:58:54*
%MOMM*%
%LPD*%
G01*
G04 APERTURE LIST*
%ADD10C,0.100000*%
%ADD11R,4.000000X5.600000*%
%ADD12R,1.350000X1.350000*%
%ADD13O,1.350000X1.350000*%
%ADD14R,3.000000X3.000000*%
%ADD15C,3.000000*%
%ADD16R,1.000000X2.510000*%
%ADD17R,2.400000X2.400000*%
%ADD18C,2.400000*%
%ADD19R,1.600000X1.600000*%
%ADD20O,1.700000X1.700000*%
%ADD21R,1.250000X1.500000*%
%ADD22R,1.500000X1.250000*%
%ADD23R,1.500000X1.300000*%
%ADD24R,0.800000X1.800000*%
%ADD25R,2.700000X1.400000*%
%ADD26R,7.400000X5.800000*%
%ADD27R,3.500000X2.300000*%
%ADD28R,1.050000X0.450000*%
%ADD29R,1.470000X0.895000*%
%ADD30R,1.300000X3.400000*%
%ADD31R,1.800000X1.800000*%
%ADD32C,1.800000*%
%ADD33R,0.400000X0.600000*%
%ADD34R,2.650000X2.030000*%
%ADD35C,0.600000*%
%ADD36C,0.304800*%
%ADD37C,0.609600*%
%ADD38C,0.406400*%
%ADD39C,2.032000*%
G04 APERTURE END LIST*
D10*
D11*
X199438000Y-120650000D03*
X205438000Y-120650000D03*
D12*
X163068000Y-120650000D03*
D13*
X165068000Y-120650000D03*
X167068000Y-120650000D03*
D14*
X175768000Y-114935000D03*
D15*
X180848000Y-114935000D03*
D16*
X199898000Y-100080000D03*
X194818000Y-100080000D03*
X189738000Y-100080000D03*
X202438000Y-96770000D03*
X197358000Y-96770000D03*
X192278000Y-96770000D03*
D17*
X133998000Y-114365000D03*
D18*
X137498000Y-114365000D03*
D19*
X159258000Y-107315000D03*
D20*
X156718000Y-107315000D03*
X159258000Y-104775000D03*
X156718000Y-104775000D03*
X159258000Y-102235000D03*
X156718000Y-102235000D03*
D12*
X170688000Y-106172000D03*
D13*
X170688000Y-108172000D03*
D14*
X201803000Y-114300000D03*
D15*
X206883000Y-114300000D03*
D21*
X139192000Y-122916000D03*
X139192000Y-120416000D03*
D22*
X151658000Y-120015000D03*
X154158000Y-120015000D03*
D23*
X154258000Y-121920000D03*
X151558000Y-121920000D03*
X153623000Y-116840000D03*
X150923000Y-116840000D03*
X208868000Y-103505000D03*
X206168000Y-103505000D03*
D24*
X155048000Y-112715000D03*
X156948000Y-112715000D03*
X155998000Y-116015000D03*
X170048000Y-112715000D03*
X171948000Y-112715000D03*
X170998000Y-116015000D03*
X185048000Y-112715000D03*
X186948000Y-112715000D03*
X185998000Y-116015000D03*
D25*
X206888000Y-105670000D03*
X206888000Y-110230000D03*
D26*
X199906000Y-107950000D03*
D27*
X181008000Y-120650000D03*
X175608000Y-120650000D03*
D28*
X148698000Y-117740000D03*
X148698000Y-118390000D03*
X148698000Y-119040000D03*
X148698000Y-119690000D03*
X148698000Y-120340000D03*
X148698000Y-120990000D03*
X148698000Y-121640000D03*
X148698000Y-122290000D03*
X143148000Y-122290000D03*
X143148000Y-121640000D03*
X143148000Y-120990000D03*
X143148000Y-120340000D03*
X143148000Y-119690000D03*
X143148000Y-119040000D03*
X143148000Y-118390000D03*
X143148000Y-117740000D03*
D29*
X145188000Y-121357500D03*
X145188000Y-120462500D03*
X145188000Y-119567500D03*
X145188000Y-118672500D03*
X146658000Y-121357500D03*
X146658000Y-120462500D03*
X146658000Y-119567500D03*
X146658000Y-118672500D03*
D30*
X177818000Y-95250000D03*
X186418000Y-95250000D03*
D31*
X206248000Y-95885000D03*
D32*
X208788000Y-95885000D03*
D33*
X166243000Y-106445000D03*
X166243000Y-105645000D03*
X167513000Y-106445000D03*
X167513000Y-105645000D03*
D34*
X139758000Y-108585000D03*
X135578000Y-108585000D03*
D35*
X180594000Y-88646000D03*
X174625000Y-98044000D03*
X157353000Y-120015000D03*
X199390000Y-87503000D03*
X159639000Y-113792000D03*
X188214000Y-92075000D03*
X150876000Y-101981000D03*
X151638000Y-89535000D03*
X170561000Y-104140000D03*
X187833000Y-105537000D03*
X173355000Y-103759000D03*
X170815000Y-100965000D03*
X176022000Y-100457000D03*
X173863000Y-100457000D03*
X162941000Y-111506000D03*
X164465000Y-111506000D03*
X152400000Y-101473000D03*
X154178000Y-99441000D03*
X150114000Y-118491000D03*
X150114000Y-122428000D03*
X151765000Y-113665000D03*
X154178000Y-98552000D03*
X150114000Y-121539000D03*
X150114000Y-119507000D03*
X204597000Y-104648000D03*
X185928000Y-117475000D03*
X187833000Y-89555000D03*
X164592000Y-110490000D03*
X194945000Y-102108000D03*
X145288000Y-88773000D03*
X145288000Y-90805000D03*
X145288000Y-93345000D03*
X145288000Y-95885000D03*
X145288000Y-98425000D03*
X170434000Y-118237000D03*
X155448000Y-109982000D03*
X155448000Y-103505000D03*
X155956000Y-117475000D03*
X193548000Y-102108000D03*
X197866000Y-100203000D03*
X184785000Y-99314000D03*
X183896000Y-103378000D03*
X189865000Y-93980000D03*
X183261000Y-99314000D03*
X183134000Y-107569000D03*
X167513000Y-104267000D03*
X169672000Y-101092000D03*
D36*
X179197000Y-88392000D02*
X180340000Y-88392000D01*
X172974000Y-88392000D02*
X179197000Y-88392000D01*
X180340000Y-88392000D02*
X180594000Y-88646000D01*
X174625000Y-98044000D02*
X174625000Y-90043000D01*
X174625000Y-90043000D02*
X172974000Y-88392000D01*
X159258000Y-102235000D02*
X159258000Y-101473000D01*
X159258000Y-101473000D02*
X152698404Y-94913404D01*
X154555802Y-88392000D02*
X172974000Y-88392000D01*
X152698404Y-90249398D02*
X154555802Y-88392000D01*
X152698404Y-94913404D02*
X152698404Y-90249398D01*
D37*
X185166000Y-97536000D02*
X185928000Y-97536000D01*
X171355000Y-108172000D02*
X172466000Y-107061000D01*
X172466000Y-103124000D02*
X172466000Y-107061000D01*
X172974000Y-102616000D02*
X172466000Y-103124000D01*
X178816000Y-102616000D02*
X172974000Y-102616000D01*
X179832000Y-101600000D02*
X178816000Y-102616000D01*
X179832000Y-99695000D02*
X179832000Y-101600000D01*
X181991000Y-97536000D02*
X179832000Y-99695000D01*
X185166000Y-97536000D02*
X181991000Y-97536000D01*
X186418000Y-97046000D02*
X186418000Y-95250000D01*
X185928000Y-97536000D02*
X186418000Y-97046000D01*
X157353000Y-120015000D02*
X154158000Y-120015000D01*
D36*
X167513000Y-106445000D02*
X168961000Y-106445000D01*
X168961000Y-106445000D02*
X170688000Y-108172000D01*
X166243000Y-106445000D02*
X167513000Y-106445000D01*
D38*
X145188000Y-119567500D02*
X145188000Y-118672500D01*
X145188000Y-120462500D02*
X145188000Y-119567500D01*
X145188000Y-121357500D02*
X145188000Y-120462500D01*
X146658000Y-121357500D02*
X145188000Y-121357500D01*
X146658000Y-120462500D02*
X146658000Y-121357500D01*
X146658000Y-119567500D02*
X146658000Y-120462500D01*
X146658000Y-118672500D02*
X146658000Y-119567500D01*
X145188000Y-118672500D02*
X146658000Y-118672500D01*
X156718000Y-102235000D02*
X156718000Y-102489000D01*
X156718000Y-102489000D02*
X157988000Y-103759000D01*
X157988000Y-103759000D02*
X157988000Y-108839000D01*
X157988000Y-108839000D02*
X158877000Y-109728000D01*
X158877000Y-109728000D02*
X169132000Y-109728000D01*
X169132000Y-109728000D02*
X170688000Y-108172000D01*
D37*
X206248000Y-95885000D02*
X206248000Y-94361000D01*
X205994000Y-94107000D02*
X199390000Y-87503000D01*
X206248000Y-94361000D02*
X205994000Y-94107000D01*
X208868000Y-103505000D02*
X208788000Y-103505000D01*
X208788000Y-103505000D02*
X206248000Y-100965000D01*
X206248000Y-100965000D02*
X206248000Y-95885000D01*
X186418000Y-95250000D02*
X186418000Y-94343000D01*
X171355000Y-108172000D02*
X170688000Y-108172000D01*
X171948000Y-112715000D02*
X171948000Y-109432000D01*
X171948000Y-109432000D02*
X170688000Y-108172000D01*
X183134000Y-86995000D02*
X198882000Y-86995000D01*
X198882000Y-86995000D02*
X199390000Y-87503000D01*
D38*
X140843000Y-115570000D02*
X140843000Y-112014000D01*
X143013000Y-117740000D02*
X140843000Y-115570000D01*
X140843000Y-112014000D02*
X150876000Y-101981000D01*
X156948000Y-112715000D02*
X157165000Y-112715000D01*
X157165000Y-112715000D02*
X158242000Y-113792000D01*
X158242000Y-113792000D02*
X159639000Y-113792000D01*
X156948000Y-112715000D02*
X156948000Y-118515000D01*
X155448000Y-120015000D02*
X154158000Y-120015000D01*
X156948000Y-118515000D02*
X155448000Y-120015000D01*
X153623000Y-116840000D02*
X153623000Y-117936000D01*
X154158000Y-118471000D02*
X154158000Y-120015000D01*
X153623000Y-117936000D02*
X154158000Y-118471000D01*
X153623000Y-119480000D02*
X154158000Y-120015000D01*
X156718000Y-102235000D02*
X156718000Y-99822000D01*
X156718000Y-99822000D02*
X154432000Y-97536000D01*
X154432000Y-97536000D02*
X153384204Y-97536000D01*
X153384204Y-97536000D02*
X152749204Y-98171000D01*
X152749204Y-98171000D02*
X152749204Y-100171204D01*
X152749204Y-100171204D02*
X153416000Y-100838000D01*
X153416000Y-100838000D02*
X153416000Y-101981000D01*
X153416000Y-101981000D02*
X152781000Y-102616000D01*
X152781000Y-102616000D02*
X151511000Y-102616000D01*
X151511000Y-102616000D02*
X150876000Y-101981000D01*
D37*
X192278000Y-96770000D02*
X192278000Y-94361000D01*
X189992000Y-92075000D02*
X188214000Y-92075000D01*
X192278000Y-94361000D02*
X189992000Y-92075000D01*
X189738000Y-100080000D02*
X189738000Y-97790000D01*
X190758000Y-96770000D02*
X192278000Y-96770000D01*
X189738000Y-97790000D02*
X190758000Y-96770000D01*
X151638000Y-89535000D02*
X151638000Y-88138000D01*
X151638000Y-88138000D02*
X152781000Y-86995000D01*
X152781000Y-86995000D02*
X183134000Y-86995000D01*
X183134000Y-86995000D02*
X188214000Y-92075000D01*
D38*
X151638000Y-101219000D02*
X151638000Y-89535000D01*
X150876000Y-101981000D02*
X151638000Y-101219000D01*
X143148000Y-117740000D02*
X143013000Y-117740000D01*
X154258000Y-121920000D02*
X154258000Y-122376598D01*
X154258000Y-122376598D02*
X153444598Y-123190000D01*
X147193000Y-123190000D02*
X145360500Y-121357500D01*
X153444598Y-123190000D02*
X147193000Y-123190000D01*
X145360500Y-121357500D02*
X145188000Y-121357500D01*
X143148000Y-117740000D02*
X144255500Y-117740000D01*
X144255500Y-117740000D02*
X145188000Y-118672500D01*
X143148000Y-119040000D02*
X144660500Y-119040000D01*
X144660500Y-119040000D02*
X145188000Y-119567500D01*
X143148000Y-120990000D02*
X144820500Y-120990000D01*
X144820500Y-120990000D02*
X145188000Y-121357500D01*
X143148000Y-120990000D02*
X140802000Y-120990000D01*
X140228000Y-120416000D02*
X139192000Y-120416000D01*
X140802000Y-120990000D02*
X140228000Y-120416000D01*
X186948000Y-112715000D02*
X186948000Y-112040202D01*
D37*
X153523000Y-116940000D02*
X153623000Y-116840000D01*
X154258000Y-121920000D02*
X154258000Y-120115000D01*
X154258000Y-120115000D02*
X154158000Y-120015000D01*
X186948000Y-112715000D02*
X187894000Y-112715000D01*
X199390000Y-111887000D02*
X201803000Y-114300000D01*
X188722000Y-111887000D02*
X199390000Y-111887000D01*
X187894000Y-112715000D02*
X188722000Y-111887000D01*
X206888000Y-110230000D02*
X207651000Y-110230000D01*
X207651000Y-110230000D02*
X209550000Y-108331000D01*
X209550000Y-104187000D02*
X208868000Y-103505000D01*
X209550000Y-108331000D02*
X209550000Y-104187000D01*
D39*
X201803000Y-114300000D02*
X202438000Y-114300000D01*
X202438000Y-114300000D02*
X206508000Y-110230000D01*
X206508000Y-110230000D02*
X206888000Y-110230000D01*
D36*
X172085000Y-101854000D02*
X176276000Y-101854000D01*
X170561000Y-104140000D02*
X171323000Y-103378000D01*
X171323000Y-103378000D02*
X171323000Y-102616000D01*
X171323000Y-102616000D02*
X172085000Y-101854000D01*
X177818000Y-100312000D02*
X177818000Y-95250000D01*
X176276000Y-101854000D02*
X177818000Y-100312000D01*
X177818000Y-96756000D02*
X177818000Y-95250000D01*
X185039000Y-108331000D02*
X187833000Y-105537000D01*
X178054000Y-108331000D02*
X185039000Y-108331000D01*
X173355000Y-103759000D02*
X178054000Y-108331000D01*
X169672000Y-105156000D02*
X170688000Y-106172000D01*
X169672000Y-102108000D02*
X169672000Y-105156000D01*
X170815000Y-100965000D02*
X169672000Y-102108000D01*
X173863000Y-100457000D02*
X176022000Y-100457000D01*
X164465000Y-111506000D02*
X162941000Y-111506000D01*
X181102000Y-87757000D02*
X182880000Y-87757000D01*
X188090198Y-92967198D02*
X188090198Y-94745198D01*
X182880000Y-87757000D02*
X188090198Y-92967198D01*
X206888000Y-105670000D02*
X206888000Y-104225000D01*
X206888000Y-104225000D02*
X206168000Y-103505000D01*
X196245796Y-103505000D02*
X206168000Y-103505000D01*
X188090198Y-94745198D02*
X188090198Y-101730198D01*
X188090198Y-101730198D02*
X190246000Y-103886000D01*
X190246000Y-103886000D02*
X195864796Y-103886000D01*
X195864796Y-103886000D02*
X196245796Y-103505000D01*
X154432000Y-87757000D02*
X181102000Y-87757000D01*
X152193602Y-89995398D02*
X154432000Y-87757000D01*
X152193602Y-101266602D02*
X152193602Y-89995398D01*
X152400000Y-101473000D02*
X152193602Y-101266602D01*
X154178000Y-99441000D02*
X154686000Y-99949000D01*
X150923000Y-116031000D02*
X150923000Y-116840000D01*
X153924000Y-113030000D02*
X150923000Y-116031000D01*
X153924000Y-111506000D02*
X153924000Y-113030000D01*
X154686000Y-110744000D02*
X153924000Y-111506000D01*
X154686000Y-99949000D02*
X154686000Y-110744000D01*
X148698000Y-122290000D02*
X149849000Y-122290000D01*
X150114000Y-118491000D02*
X149860000Y-118237000D01*
X149849000Y-122290000D02*
X150114000Y-122428000D01*
D38*
X148698000Y-119040000D02*
X149565000Y-119040000D01*
X149860000Y-117903000D02*
X150923000Y-116840000D01*
X149860000Y-118745000D02*
X149860000Y-118237000D01*
X149860000Y-118237000D02*
X149860000Y-117903000D01*
X149565000Y-119040000D02*
X149860000Y-118745000D01*
D36*
X154178000Y-98552000D02*
X154051000Y-98552000D01*
X154051000Y-98552000D02*
X153416000Y-98933000D01*
X153289000Y-111379000D02*
X153289000Y-112141000D01*
X154178000Y-110490000D02*
X153289000Y-111379000D01*
X154178000Y-100457000D02*
X154178000Y-110490000D01*
X153416000Y-99695000D02*
X154178000Y-100457000D01*
X153416000Y-98933000D02*
X153416000Y-99695000D01*
X153292198Y-112137802D02*
X153289000Y-112141000D01*
X153289000Y-112141000D02*
X151765000Y-113665000D01*
X148698000Y-119690000D02*
X149931000Y-119690000D01*
X150114000Y-121539000D02*
X150114000Y-121640000D01*
X149931000Y-119690000D02*
X150114000Y-119507000D01*
D38*
X148698000Y-121640000D02*
X150114000Y-121640000D01*
X150114000Y-121640000D02*
X151278000Y-121640000D01*
X151278000Y-121640000D02*
X151558000Y-121920000D01*
D36*
X187585396Y-93176294D02*
X187585396Y-101926502D01*
X203962000Y-104013000D02*
X204597000Y-104648000D01*
X196596000Y-104013000D02*
X203962000Y-104013000D01*
X196218198Y-104390802D02*
X196596000Y-104013000D01*
X190036904Y-104390802D02*
X196218198Y-104390802D01*
X187579000Y-101932898D02*
X190036904Y-104390802D01*
X181864000Y-89408000D02*
X183817102Y-89408000D01*
X183817102Y-89408000D02*
X187585396Y-93176294D01*
X175387000Y-90170000D02*
X175387000Y-98298000D01*
X176149000Y-89408000D02*
X175387000Y-90170000D01*
X181864000Y-89408000D02*
X176149000Y-89408000D01*
X173863000Y-97790000D02*
X173863000Y-90424000D01*
X173863000Y-97790000D02*
X173863000Y-98298000D01*
X173863000Y-98298000D02*
X174371000Y-98806000D01*
X174371000Y-98806000D02*
X174879000Y-98806000D01*
X174879000Y-98806000D02*
X175387000Y-98298000D01*
X173863000Y-90424000D02*
X172339000Y-88900000D01*
X160528000Y-103505000D02*
X159258000Y-104775000D01*
X154813000Y-88900000D02*
X172339000Y-88900000D01*
X153203206Y-90509794D02*
X154813000Y-88900000D01*
X153203206Y-94704308D02*
X153203206Y-90509794D01*
X158916449Y-100417551D02*
X153203206Y-94704308D01*
X159980551Y-100417551D02*
X158916449Y-100417551D01*
X160528000Y-100965000D02*
X159980551Y-100417551D01*
X160528000Y-101981000D02*
X160528000Y-100965000D01*
X160528000Y-103505000D02*
X160528000Y-101981000D01*
X187585396Y-101926502D02*
X187579000Y-101932898D01*
X185998000Y-117405000D02*
X185998000Y-116015000D01*
X185998000Y-117405000D02*
X185928000Y-117475000D01*
D37*
X169164000Y-121285000D02*
X167703000Y-121285000D01*
X167703000Y-121285000D02*
X167068000Y-120650000D01*
X185048000Y-112715000D02*
X178750000Y-112715000D01*
X169164000Y-113599000D02*
X170048000Y-112715000D01*
X169164000Y-121285000D02*
X169164000Y-113599000D01*
X170688000Y-122809000D02*
X169164000Y-121285000D01*
X177726998Y-122809000D02*
X170688000Y-122809000D01*
X178308000Y-122227998D02*
X177726998Y-122809000D01*
X178308000Y-113157000D02*
X178308000Y-122227998D01*
X178750000Y-112715000D02*
X178308000Y-113157000D01*
X194818000Y-100080000D02*
X194818000Y-94488000D01*
X191262000Y-90932000D02*
X194818000Y-94488000D01*
X189210000Y-90932000D02*
X191262000Y-90932000D01*
X189210000Y-90932000D02*
X187833000Y-89555000D01*
D38*
X170048000Y-112715000D02*
X167198000Y-112715000D01*
X164973000Y-110490000D02*
X164592000Y-110490000D01*
X167198000Y-112715000D02*
X164973000Y-110490000D01*
X156718000Y-107315000D02*
X156718000Y-109982000D01*
X156718000Y-109982000D02*
X157226000Y-110490000D01*
X157226000Y-110490000D02*
X164592000Y-110490000D01*
X155048000Y-112715000D02*
X155048000Y-111652000D01*
X155048000Y-111652000D02*
X156718000Y-109982000D01*
X151658000Y-120015000D02*
X151658000Y-119106000D01*
X155048000Y-114446000D02*
X155048000Y-112715000D01*
X154559000Y-114935000D02*
X155048000Y-114446000D01*
X153289000Y-114935000D02*
X154559000Y-114935000D01*
X152273000Y-115951000D02*
X153289000Y-114935000D01*
X152273000Y-118491000D02*
X152273000Y-115951000D01*
X151658000Y-119106000D02*
X152273000Y-118491000D01*
D37*
X194818000Y-101981000D02*
X194818000Y-100080000D01*
X194945000Y-102108000D02*
X194818000Y-101981000D01*
D38*
X145288000Y-88773000D02*
X145288000Y-90805000D01*
X145288000Y-98425000D02*
X145288000Y-95885000D01*
X145288000Y-95885000D02*
X145288000Y-93345000D01*
X145288000Y-93345000D02*
X145288000Y-90805000D01*
X170048000Y-112771000D02*
X170048000Y-112715000D01*
X151658000Y-120015000D02*
X151658000Y-119995000D01*
X148698000Y-120990000D02*
X149393000Y-120990000D01*
X149393000Y-120990000D02*
X150043000Y-120340000D01*
X148698000Y-120340000D02*
X150043000Y-120340000D01*
X150043000Y-120340000D02*
X150063000Y-120340000D01*
X150063000Y-120340000D02*
X151658000Y-120015000D01*
D36*
X170998000Y-117673000D02*
X170434000Y-118237000D01*
X170998000Y-117673000D02*
X170998000Y-116015000D01*
X155321000Y-109855000D02*
X155448000Y-109982000D01*
X155321000Y-103632000D02*
X155321000Y-109855000D01*
X155448000Y-103505000D02*
X155321000Y-103632000D01*
X155998000Y-117433000D02*
X155956000Y-117475000D01*
X155998000Y-116015000D02*
X155998000Y-117433000D01*
D37*
X141534000Y-119690000D02*
X141859000Y-120015000D01*
X133998000Y-114365000D02*
X133998000Y-115837000D01*
X140335000Y-118491000D02*
X141534000Y-119690000D01*
X136652000Y-118491000D02*
X140335000Y-118491000D01*
X133998000Y-115837000D02*
X136652000Y-118491000D01*
D38*
X143148000Y-120340000D02*
X142184000Y-120340000D01*
X142184000Y-120340000D02*
X141859000Y-120015000D01*
X143148000Y-119690000D02*
X141534000Y-119690000D01*
D36*
X196215000Y-97913000D02*
X197358000Y-96770000D01*
X196215000Y-102108000D02*
X196215000Y-97913000D01*
X195453000Y-102870000D02*
X196215000Y-102108000D01*
X194310000Y-102870000D02*
X195453000Y-102870000D01*
X193548000Y-102108000D02*
X194310000Y-102870000D01*
X197989000Y-100080000D02*
X199898000Y-100080000D01*
X197866000Y-100203000D02*
X197989000Y-100080000D01*
D37*
X184785000Y-102489000D02*
X184785000Y-99314000D01*
X183896000Y-103378000D02*
X184785000Y-102489000D01*
D36*
X188595000Y-95377000D02*
X188595000Y-95504000D01*
X188595000Y-95250000D02*
X188595000Y-95377000D01*
X189865000Y-93980000D02*
X188595000Y-95250000D01*
X202438000Y-96770000D02*
X200283000Y-96770000D01*
X188595000Y-101473000D02*
X188595000Y-95504000D01*
X190500000Y-103378000D02*
X188595000Y-101473000D01*
X195658898Y-103378000D02*
X190500000Y-103378000D01*
X196723000Y-102313898D02*
X195658898Y-103378000D01*
X196723000Y-99822000D02*
X196723000Y-102313898D01*
X197612000Y-98933000D02*
X196723000Y-99822000D01*
X198120000Y-98933000D02*
X197612000Y-98933000D01*
X200283000Y-96770000D02*
X198120000Y-98933000D01*
D39*
X206883000Y-114300000D02*
X206883000Y-114935000D01*
X206883000Y-114935000D02*
X205438000Y-116380000D01*
X205438000Y-116380000D02*
X205438000Y-120650000D01*
D38*
X163068000Y-120650000D02*
X163068000Y-122428000D01*
X163068000Y-122428000D02*
X161671000Y-123825000D01*
D37*
X183007000Y-99568000D02*
X183261000Y-99314000D01*
X183007000Y-107442000D02*
X183007000Y-99568000D01*
X183134000Y-107569000D02*
X183007000Y-107442000D01*
D38*
X139192000Y-122916000D02*
X140609000Y-122916000D01*
X141235000Y-122290000D02*
X143148000Y-122290000D01*
X140609000Y-122916000D02*
X141235000Y-122290000D01*
X139339000Y-123063000D02*
X139192000Y-122916000D01*
X143148000Y-122290000D02*
X144007000Y-122290000D01*
X181008000Y-122141000D02*
X181008000Y-120650000D01*
X179324000Y-123825000D02*
X181008000Y-122141000D01*
X145542000Y-123825000D02*
X161671000Y-123825000D01*
X161671000Y-123825000D02*
X179324000Y-123825000D01*
X144007000Y-122290000D02*
X145542000Y-123825000D01*
D39*
X199373000Y-120650000D02*
X181008000Y-120650000D01*
X181008000Y-120650000D02*
X181008000Y-115095000D01*
X181008000Y-115095000D02*
X180848000Y-114935000D01*
D37*
X135578000Y-108585000D02*
X135578000Y-110686000D01*
X137498000Y-112606000D02*
X137498000Y-114365000D01*
X135578000Y-110686000D02*
X137498000Y-112606000D01*
X135578000Y-108585000D02*
X135636000Y-108585000D01*
D38*
X137498000Y-113495000D02*
X137498000Y-114365000D01*
D39*
X175768000Y-114935000D02*
X175768000Y-111760000D01*
X175768000Y-111760000D02*
X177673000Y-109855000D01*
X175608000Y-115095000D02*
X175768000Y-114935000D01*
X177673000Y-109855000D02*
X198001000Y-109855000D01*
X198001000Y-109855000D02*
X199906000Y-107950000D01*
X175608000Y-120650000D02*
X175608000Y-115095000D01*
D36*
X166243000Y-105156000D02*
X166243000Y-105645000D01*
X166878000Y-104521000D02*
X166243000Y-105156000D01*
X167259000Y-104521000D02*
X166878000Y-104521000D01*
X167513000Y-104267000D02*
X167259000Y-104521000D01*
X168529000Y-104629000D02*
X167513000Y-105645000D01*
X168529000Y-102235000D02*
X168529000Y-104629000D01*
X169672000Y-101092000D02*
X168529000Y-102235000D01*
D38*
X131953000Y-108712000D02*
X134239000Y-106426000D01*
X131953000Y-116205000D02*
X131953000Y-113030000D01*
X137388000Y-121640000D02*
X131953000Y-116205000D01*
X143148000Y-121640000D02*
X137388000Y-121640000D01*
X131953000Y-113030000D02*
X131953000Y-108712000D01*
X139758000Y-106865000D02*
X139758000Y-108585000D01*
X139319000Y-106426000D02*
X139758000Y-106865000D01*
X137287000Y-106426000D02*
X139319000Y-106426000D01*
X134239000Y-106426000D02*
X137287000Y-106426000D01*
X143148000Y-118390000D02*
X141631000Y-118390000D01*
X139827000Y-116586000D02*
X139827000Y-108654000D01*
X141631000Y-118390000D02*
X139827000Y-116586000D01*
X139827000Y-108654000D02*
X139758000Y-108585000D01*
M02*
