G04 #@! TF.FileFunction,Legend,Bot*
%FSLAX46Y46*%
G04 Gerber Fmt 4.6, Leading zero omitted, Abs format (unit mm)*
G04 Created by KiCad (PCBNEW 4.0.7) date 07/04/19 18:57:09*
%MOMM*%
%LPD*%
G01*
G04 APERTURE LIST*
%ADD10C,0.100000*%
%ADD11C,0.250000*%
%ADD12C,0.375000*%
G04 APERTURE END LIST*
D10*
D11*
X205468238Y-58148482D02*
X205408714Y-58096399D01*
X205349190Y-57984791D01*
X205349190Y-57865744D01*
X205408714Y-57739256D01*
X205468238Y-57672291D01*
X205587286Y-57597886D01*
X205706333Y-57583005D01*
X205825381Y-57627648D01*
X205884905Y-57679732D01*
X205944429Y-57791339D01*
X205944429Y-57910386D01*
X205884905Y-58036875D01*
X205825381Y-58103839D01*
X205349190Y-58163363D02*
X205825381Y-58103839D01*
X205884905Y-58155922D01*
X205884905Y-58215446D01*
X205825381Y-58341934D01*
X205706333Y-58416339D01*
X205408714Y-58453542D01*
X205230143Y-58356815D01*
X205111095Y-58193125D01*
X205051571Y-57962470D01*
X205111095Y-57716934D01*
X205230143Y-57523482D01*
X205408714Y-57382113D01*
X205646810Y-57292827D01*
X205884905Y-57322589D01*
X206063476Y-57419316D01*
X206182524Y-57583005D01*
X206242048Y-57813660D01*
X206182524Y-58059196D01*
X206063476Y-58252649D01*
X204813476Y-58885090D02*
X204813476Y-59599375D01*
X206063476Y-59085982D02*
X204813476Y-59242232D01*
X206063476Y-59859792D02*
X204813476Y-60016042D01*
X206063476Y-60395506D02*
X205408714Y-60477351D01*
X205289667Y-60432709D01*
X205230143Y-60321101D01*
X205230143Y-60142529D01*
X205289667Y-60016042D01*
X205349190Y-59949077D01*
X206003952Y-61474375D02*
X206063476Y-61347887D01*
X206063476Y-61109792D01*
X206003952Y-60998184D01*
X205884905Y-60953541D01*
X205408714Y-61013065D01*
X205289667Y-61087470D01*
X205230143Y-61213958D01*
X205230143Y-61452053D01*
X205289667Y-61563661D01*
X205408714Y-61608303D01*
X205527762Y-61593422D01*
X205646810Y-60983303D01*
X206063476Y-62062173D02*
X204813476Y-62218423D01*
X205706333Y-62523482D01*
X204813476Y-63051756D01*
X206063476Y-62895506D01*
X206063476Y-64026458D02*
X205408714Y-64108303D01*
X205289667Y-64063661D01*
X205230143Y-63952053D01*
X205230143Y-63713958D01*
X205289667Y-63587470D01*
X206003952Y-64033898D02*
X206063476Y-63907411D01*
X206063476Y-63609792D01*
X206003952Y-63498184D01*
X205884905Y-63453541D01*
X205765857Y-63468422D01*
X205646810Y-63542827D01*
X205587286Y-63669315D01*
X205587286Y-63966934D01*
X205527762Y-64093422D01*
X206063476Y-64621696D02*
X204813476Y-64777946D01*
X205587286Y-64800267D02*
X206063476Y-65097887D01*
X205230143Y-65202053D02*
X205706333Y-64666338D01*
X206003952Y-66117232D02*
X206063476Y-65990744D01*
X206063476Y-65752649D01*
X206003952Y-65641041D01*
X205884905Y-65596398D01*
X205408714Y-65655922D01*
X205289667Y-65730327D01*
X205230143Y-65856815D01*
X205230143Y-66094910D01*
X205289667Y-66206518D01*
X205408714Y-66251160D01*
X205527762Y-66236279D01*
X205646810Y-65626160D01*
X206063476Y-66705030D02*
X205230143Y-66809196D01*
X205468238Y-66779434D02*
X205349190Y-66853839D01*
X205289667Y-66920804D01*
X205230143Y-67047291D01*
X205230143Y-67166339D01*
X206003952Y-67426756D02*
X206063476Y-67538364D01*
X206063476Y-67776459D01*
X206003952Y-67902947D01*
X205884905Y-67977352D01*
X205825381Y-67984792D01*
X205706333Y-67940149D01*
X205646810Y-67828542D01*
X205646810Y-67649971D01*
X205587286Y-67538363D01*
X205468238Y-67493720D01*
X205408714Y-67501161D01*
X205289667Y-67575566D01*
X205230143Y-67702054D01*
X205230143Y-67880625D01*
X205289667Y-67992233D01*
X205408714Y-68989257D02*
X205468238Y-69160387D01*
X205527762Y-69212471D01*
X205646810Y-69257114D01*
X205825381Y-69234792D01*
X205944429Y-69160387D01*
X206003952Y-69093423D01*
X206063476Y-68966936D01*
X206063476Y-68490745D01*
X204813476Y-68646995D01*
X204813476Y-69063662D01*
X204873000Y-69175268D01*
X204932524Y-69227352D01*
X205051571Y-69271995D01*
X205170619Y-69257114D01*
X205289667Y-69182709D01*
X205349190Y-69115744D01*
X205408714Y-68989257D01*
X205408714Y-68572590D01*
X206063476Y-69919316D02*
X206003952Y-69807709D01*
X205944429Y-69755625D01*
X205825381Y-69710982D01*
X205468238Y-69755625D01*
X205349190Y-69830030D01*
X205289667Y-69896995D01*
X205230143Y-70023482D01*
X205230143Y-70202054D01*
X205289667Y-70313662D01*
X205349190Y-70365744D01*
X205468238Y-70410387D01*
X205825381Y-70365744D01*
X205944429Y-70291339D01*
X206003952Y-70224376D01*
X206063476Y-70097888D01*
X206063476Y-69919316D01*
X206063476Y-70752649D02*
X205230143Y-71511577D01*
X205230143Y-70856815D02*
X206063476Y-71407411D01*
D10*
X217650381Y-52174524D02*
X217174190Y-51841190D01*
X217650381Y-51603095D02*
X216650381Y-51603095D01*
X216650381Y-51984048D01*
X216698000Y-52079286D01*
X216745619Y-52126905D01*
X216840857Y-52174524D01*
X216983714Y-52174524D01*
X217078952Y-52126905D01*
X217126571Y-52079286D01*
X217174190Y-51984048D01*
X217174190Y-51603095D01*
X217602762Y-52984048D02*
X217650381Y-52888810D01*
X217650381Y-52698333D01*
X217602762Y-52603095D01*
X217507524Y-52555476D01*
X217126571Y-52555476D01*
X217031333Y-52603095D01*
X216983714Y-52698333D01*
X216983714Y-52888810D01*
X217031333Y-52984048D01*
X217126571Y-53031667D01*
X217221810Y-53031667D01*
X217317048Y-52555476D01*
X216983714Y-53365000D02*
X217650381Y-53603095D01*
X216983714Y-53841191D01*
X216650381Y-55174524D02*
X216650381Y-55269763D01*
X216698000Y-55365001D01*
X216745619Y-55412620D01*
X216840857Y-55460239D01*
X217031333Y-55507858D01*
X217269429Y-55507858D01*
X217459905Y-55460239D01*
X217555143Y-55412620D01*
X217602762Y-55365001D01*
X217650381Y-55269763D01*
X217650381Y-55174524D01*
X217602762Y-55079286D01*
X217555143Y-55031667D01*
X217459905Y-54984048D01*
X217269429Y-54936429D01*
X217031333Y-54936429D01*
X216840857Y-54984048D01*
X216745619Y-55031667D01*
X216698000Y-55079286D01*
X216650381Y-55174524D01*
X217555143Y-55936429D02*
X217602762Y-55984048D01*
X217650381Y-55936429D01*
X217602762Y-55888810D01*
X217555143Y-55936429D01*
X217650381Y-55936429D01*
X216650381Y-56888810D02*
X216650381Y-56412619D01*
X217126571Y-56365000D01*
X217078952Y-56412619D01*
X217031333Y-56507857D01*
X217031333Y-56745953D01*
X217078952Y-56841191D01*
X217126571Y-56888810D01*
X217221810Y-56936429D01*
X217459905Y-56936429D01*
X217555143Y-56888810D01*
X217602762Y-56841191D01*
X217650381Y-56745953D01*
X217650381Y-56507857D01*
X217602762Y-56412619D01*
X217555143Y-56365000D01*
X218250381Y-51888810D02*
X218964667Y-51888810D01*
X219107524Y-51841190D01*
X219202762Y-51745952D01*
X219250381Y-51603095D01*
X219250381Y-51507857D01*
X218583714Y-52793572D02*
X219250381Y-52793572D01*
X218583714Y-52365000D02*
X219107524Y-52365000D01*
X219202762Y-52412619D01*
X219250381Y-52507857D01*
X219250381Y-52650715D01*
X219202762Y-52745953D01*
X219155143Y-52793572D01*
X219250381Y-53412619D02*
X219202762Y-53317381D01*
X219107524Y-53269762D01*
X218250381Y-53269762D01*
X218345619Y-54507858D02*
X218298000Y-54555477D01*
X218250381Y-54650715D01*
X218250381Y-54888811D01*
X218298000Y-54984049D01*
X218345619Y-55031668D01*
X218440857Y-55079287D01*
X218536095Y-55079287D01*
X218678952Y-55031668D01*
X219250381Y-54460239D01*
X219250381Y-55079287D01*
X218250381Y-55698334D02*
X218250381Y-55793573D01*
X218298000Y-55888811D01*
X218345619Y-55936430D01*
X218440857Y-55984049D01*
X218631333Y-56031668D01*
X218869429Y-56031668D01*
X219059905Y-55984049D01*
X219155143Y-55936430D01*
X219202762Y-55888811D01*
X219250381Y-55793573D01*
X219250381Y-55698334D01*
X219202762Y-55603096D01*
X219155143Y-55555477D01*
X219059905Y-55507858D01*
X218869429Y-55460239D01*
X218631333Y-55460239D01*
X218440857Y-55507858D01*
X218345619Y-55555477D01*
X218298000Y-55603096D01*
X218250381Y-55698334D01*
X219250381Y-56984049D02*
X219250381Y-56412620D01*
X219250381Y-56698334D02*
X218250381Y-56698334D01*
X218393238Y-56603096D01*
X218488476Y-56507858D01*
X218536095Y-56412620D01*
X219250381Y-57460239D02*
X219250381Y-57650715D01*
X219202762Y-57745954D01*
X219155143Y-57793573D01*
X219012286Y-57888811D01*
X218821810Y-57936430D01*
X218440857Y-57936430D01*
X218345619Y-57888811D01*
X218298000Y-57841192D01*
X218250381Y-57745954D01*
X218250381Y-57555477D01*
X218298000Y-57460239D01*
X218345619Y-57412620D01*
X218440857Y-57365001D01*
X218678952Y-57365001D01*
X218774190Y-57412620D01*
X218821810Y-57460239D01*
X218869429Y-57555477D01*
X218869429Y-57745954D01*
X218821810Y-57841192D01*
X218774190Y-57888811D01*
X218678952Y-57936430D01*
D12*
X197976571Y-56794465D02*
X196476571Y-56981965D01*
X196476571Y-57553393D01*
X196548000Y-57687322D01*
X196619429Y-57749821D01*
X196762286Y-57803393D01*
X196976571Y-57776608D01*
X197119429Y-57687321D01*
X197190857Y-57606965D01*
X197262286Y-57455178D01*
X197262286Y-56883750D01*
X196976571Y-59062322D02*
X197976571Y-58937322D01*
X196976571Y-58419465D02*
X197762286Y-58321250D01*
X197905143Y-58374821D01*
X197976571Y-58508751D01*
X197976571Y-58723036D01*
X197905143Y-58874821D01*
X197833714Y-58955179D01*
X197905143Y-59589107D02*
X197976571Y-59723036D01*
X197976571Y-60008751D01*
X197905143Y-60160536D01*
X197762286Y-60249821D01*
X197690857Y-60258750D01*
X197548000Y-60205179D01*
X197476571Y-60071251D01*
X197476571Y-59856965D01*
X197405143Y-59723036D01*
X197262286Y-59669464D01*
X197190857Y-59678393D01*
X197048000Y-59767679D01*
X196976571Y-59919465D01*
X196976571Y-60133751D01*
X197048000Y-60267679D01*
X197976571Y-60865894D02*
X196476571Y-61053394D01*
X197976571Y-61508751D02*
X197190857Y-61606965D01*
X197048000Y-61553393D01*
X196976571Y-61419465D01*
X196976571Y-61205180D01*
X197048000Y-61053393D01*
X197119429Y-60973036D01*
X197905143Y-62803393D02*
X197976571Y-62651608D01*
X197976571Y-62365894D01*
X197905143Y-62231965D01*
X197762286Y-62178393D01*
X197190857Y-62249822D01*
X197048000Y-62339108D01*
X196976571Y-62490894D01*
X196976571Y-62776608D01*
X197048000Y-62910536D01*
X197190857Y-62964108D01*
X197333714Y-62946251D01*
X197476571Y-62214108D01*
X197976571Y-63508751D02*
X196976571Y-63633751D01*
X197262286Y-63598036D02*
X197119429Y-63687321D01*
X197048000Y-63767679D01*
X196976571Y-63919465D01*
X196976571Y-64062322D01*
X197190857Y-66178393D02*
X197262286Y-66383750D01*
X197333714Y-66446250D01*
X197476571Y-66499822D01*
X197690857Y-66473036D01*
X197833714Y-66383750D01*
X197905143Y-66303393D01*
X197976571Y-66151607D01*
X197976571Y-65580179D01*
X196476571Y-65767679D01*
X196476571Y-66267679D01*
X196548000Y-66401607D01*
X196619429Y-66464107D01*
X196762286Y-66517678D01*
X196905143Y-66499821D01*
X197048000Y-66410536D01*
X197119429Y-66330178D01*
X197190857Y-66178393D01*
X197190857Y-65678393D01*
X197976571Y-67294465D02*
X197905143Y-67160535D01*
X197833714Y-67098036D01*
X197690857Y-67044464D01*
X197262286Y-67098035D01*
X197119429Y-67187321D01*
X197048000Y-67267678D01*
X196976571Y-67419465D01*
X196976571Y-67633750D01*
X197048000Y-67767678D01*
X197119429Y-67830178D01*
X197262286Y-67883750D01*
X197690857Y-67830179D01*
X197833714Y-67740893D01*
X197905143Y-67660535D01*
X197976571Y-67508750D01*
X197976571Y-67294465D01*
X197976571Y-69080179D02*
X197190857Y-69178393D01*
X197048000Y-69124821D01*
X196976571Y-68990893D01*
X196976571Y-68705179D01*
X197048000Y-68553393D01*
X197905143Y-69089107D02*
X197976571Y-68937322D01*
X197976571Y-68580179D01*
X197905143Y-68446250D01*
X197762286Y-68392678D01*
X197619429Y-68410535D01*
X197476571Y-68499822D01*
X197405143Y-68651607D01*
X197405143Y-69008750D01*
X197333714Y-69160536D01*
X197976571Y-69794465D02*
X196976571Y-69919465D01*
X197262286Y-69883750D02*
X197119429Y-69973035D01*
X197048000Y-70053393D01*
X196976571Y-70205179D01*
X196976571Y-70348036D01*
X197976571Y-71365893D02*
X196476571Y-71553393D01*
X197905143Y-71374821D02*
X197976571Y-71223036D01*
X197976571Y-70937322D01*
X197905143Y-70803392D01*
X197833714Y-70740893D01*
X197690857Y-70687321D01*
X197262286Y-70740892D01*
X197119429Y-70830178D01*
X197048000Y-70910535D01*
X196976571Y-71062322D01*
X196976571Y-71348036D01*
X197048000Y-71481964D01*
M02*
