G04 #@! TF.FileFunction,Soldermask,Top*
%FSLAX46Y46*%
G04 Gerber Fmt 4.6, Leading zero omitted, Abs format (unit mm)*
G04 Created by KiCad (PCBNEW 4.0.7) date 08/24/19 10:44:38*
%MOMM*%
%LPD*%
G01*
G04 APERTURE LIST*
%ADD10C,0.100000*%
%ADD11R,0.850000X0.850000*%
%ADD12C,0.850000*%
%ADD13C,2.000000*%
%ADD14C,5.000000*%
%ADD15R,1.350000X1.350000*%
%ADD16O,1.350000X1.350000*%
%ADD17R,1.700000X1.700000*%
%ADD18O,1.700000X1.700000*%
%ADD19R,3.000000X3.000000*%
%ADD20C,3.000000*%
%ADD21R,2.400000X2.400000*%
%ADD22C,2.400000*%
%ADD23R,1.250000X1.500000*%
%ADD24R,1.500000X1.250000*%
%ADD25R,1.500000X1.300000*%
%ADD26R,0.400000X1.800000*%
%ADD27R,1.800000X1.800000*%
%ADD28C,1.800000*%
%ADD29C,1.778000*%
%ADD30R,1.000000X2.500000*%
%ADD31R,2.000000X4.000000*%
%ADD32R,0.550000X1.600000*%
%ADD33R,1.600000X0.550000*%
G04 APERTURE END LIST*
D10*
D11*
X139573000Y-103505000D03*
D12*
X140823000Y-103505000D03*
X142073000Y-103505000D03*
X143323000Y-103505000D03*
X144573000Y-103505000D03*
X145823000Y-103505000D03*
X147073000Y-103505000D03*
X148323000Y-103505000D03*
X149573000Y-103505000D03*
X150823000Y-103505000D03*
D13*
X166603000Y-120015000D03*
X160803000Y-120015000D03*
X200808000Y-120015000D03*
X206608000Y-120015000D03*
D11*
X183388000Y-95885000D03*
D12*
X184638000Y-95885000D03*
D14*
X145998000Y-114619000D03*
D15*
X149352000Y-118237000D03*
D16*
X151352000Y-118237000D03*
X153352000Y-118237000D03*
D17*
X159893000Y-102870000D03*
D18*
X157353000Y-102870000D03*
X159893000Y-105410000D03*
X157353000Y-105410000D03*
X159893000Y-107950000D03*
X157353000Y-107950000D03*
D19*
X175768000Y-114935000D03*
D20*
X180848000Y-114935000D03*
D14*
X195998000Y-114619000D03*
D21*
X133998000Y-114365000D03*
D22*
X137498000Y-114365000D03*
D15*
X170688000Y-106172000D03*
D16*
X170688000Y-108172000D03*
D19*
X201803000Y-114300000D03*
D20*
X206883000Y-114300000D03*
D23*
X197358000Y-89555000D03*
X197358000Y-92055000D03*
X189738000Y-89555000D03*
X189738000Y-92055000D03*
D24*
X169438000Y-90805000D03*
X171938000Y-90805000D03*
X149118000Y-90805000D03*
X151618000Y-90805000D03*
X149118000Y-93345000D03*
X151618000Y-93345000D03*
X149118000Y-98425000D03*
X151618000Y-98425000D03*
X184638000Y-92075000D03*
X182138000Y-92075000D03*
X149118000Y-95885000D03*
X151618000Y-95885000D03*
D25*
X143938000Y-90805000D03*
X146638000Y-90805000D03*
X138858000Y-90805000D03*
X141558000Y-90805000D03*
X143938000Y-93345000D03*
X146638000Y-93345000D03*
X138858000Y-93345000D03*
X141558000Y-93345000D03*
X175688000Y-105410000D03*
X178388000Y-105410000D03*
X143938000Y-98425000D03*
X146638000Y-98425000D03*
X138858000Y-98425000D03*
X141558000Y-98425000D03*
X175688000Y-107315000D03*
X178388000Y-107315000D03*
X182038000Y-89535000D03*
X184738000Y-89535000D03*
X138858000Y-95885000D03*
X141558000Y-95885000D03*
X143938000Y-95885000D03*
X146638000Y-95885000D03*
X196803000Y-103505000D03*
X194103000Y-103505000D03*
X196803000Y-106045000D03*
X194103000Y-106045000D03*
D26*
X164408000Y-90805000D03*
X165608000Y-90805000D03*
X166808000Y-90805000D03*
D27*
X206248000Y-95885000D03*
D28*
X208788000Y-95885000D03*
D29*
X182118000Y-102870000D03*
X177038000Y-102870000D03*
D25*
X175688000Y-109220000D03*
X178388000Y-109220000D03*
D11*
X162433000Y-108585000D03*
D12*
X163683000Y-108585000D03*
X164933000Y-108585000D03*
X166183000Y-108585000D03*
D17*
X202438000Y-97155000D03*
D18*
X199898000Y-97155000D03*
X197358000Y-97155000D03*
X194818000Y-97155000D03*
X192278000Y-97155000D03*
X189738000Y-97155000D03*
D11*
X187833000Y-107950000D03*
D12*
X189083000Y-107950000D03*
X190333000Y-107950000D03*
D30*
X195048000Y-88825000D03*
X193548000Y-88825000D03*
X192048000Y-88825000D03*
D31*
X193548000Y-92785000D03*
D10*
G36*
X192548000Y-90810000D02*
X193048000Y-90060000D01*
X194048000Y-90060000D01*
X194548000Y-90810000D01*
X192548000Y-90810000D01*
X192548000Y-90810000D01*
G37*
D32*
X170948000Y-94175000D03*
X170148000Y-94175000D03*
X169348000Y-94175000D03*
X168548000Y-94175000D03*
X167748000Y-94175000D03*
X166948000Y-94175000D03*
X166148000Y-94175000D03*
X165348000Y-94175000D03*
D33*
X163898000Y-95625000D03*
X163898000Y-96425000D03*
X163898000Y-97225000D03*
X163898000Y-98025000D03*
X163898000Y-98825000D03*
X163898000Y-99625000D03*
X163898000Y-100425000D03*
X163898000Y-101225000D03*
D32*
X165348000Y-102675000D03*
X166148000Y-102675000D03*
X166948000Y-102675000D03*
X167748000Y-102675000D03*
X168548000Y-102675000D03*
X169348000Y-102675000D03*
X170148000Y-102675000D03*
X170948000Y-102675000D03*
D33*
X172398000Y-101225000D03*
X172398000Y-100425000D03*
X172398000Y-99625000D03*
X172398000Y-98825000D03*
X172398000Y-98025000D03*
X172398000Y-97225000D03*
X172398000Y-96425000D03*
X172398000Y-95625000D03*
M02*
