G04 #@! TF.FileFunction,Soldermask,Top*
%FSLAX46Y46*%
G04 Gerber Fmt 4.6, Leading zero omitted, Abs format (unit mm)*
G04 Created by KiCad (PCBNEW 4.0.7) date 08/08/19 18:58:54*
%MOMM*%
%LPD*%
G01*
G04 APERTURE LIST*
%ADD10C,0.100000*%
%ADD11R,1.350000X1.350000*%
%ADD12O,1.350000X1.350000*%
%ADD13R,3.000000X3.000000*%
%ADD14C,3.000000*%
%ADD15R,2.400000X2.400000*%
%ADD16C,2.400000*%
%ADD17R,1.600000X1.600000*%
%ADD18O,1.700000X1.700000*%
%ADD19R,1.250000X1.500000*%
%ADD20R,1.500000X1.250000*%
%ADD21R,1.500000X1.300000*%
%ADD22R,1.000000X2.500000*%
%ADD23R,2.000000X4.000000*%
%ADD24R,0.550000X1.600000*%
%ADD25R,1.600000X0.550000*%
%ADD26R,0.400000X1.800000*%
%ADD27R,0.800000X1.700000*%
%ADD28R,2.200000X3.100000*%
%ADD29R,1.800000X1.800000*%
%ADD30C,1.800000*%
G04 APERTURE END LIST*
D10*
D11*
X163068000Y-120650000D03*
D12*
X165068000Y-120650000D03*
X167068000Y-120650000D03*
D13*
X175768000Y-114935000D03*
D14*
X180848000Y-114935000D03*
X195998000Y-114619000D03*
D15*
X133998000Y-114365000D03*
D16*
X137498000Y-114365000D03*
D17*
X159258000Y-107315000D03*
D18*
X156718000Y-107315000D03*
X159258000Y-104775000D03*
X156718000Y-104775000D03*
X159258000Y-102235000D03*
X156718000Y-102235000D03*
D11*
X170688000Y-106172000D03*
D12*
X170688000Y-108172000D03*
D13*
X201803000Y-114300000D03*
D14*
X206883000Y-114300000D03*
D19*
X197358000Y-89555000D03*
X197358000Y-92055000D03*
X189738000Y-89555000D03*
X189738000Y-92055000D03*
D20*
X169438000Y-90805000D03*
X171938000Y-90805000D03*
X149118000Y-90805000D03*
X151618000Y-90805000D03*
X149118000Y-93345000D03*
X151618000Y-93345000D03*
X149118000Y-98425000D03*
X151618000Y-98425000D03*
X184638000Y-92075000D03*
X182138000Y-92075000D03*
X149118000Y-95885000D03*
X151618000Y-95885000D03*
D21*
X206168000Y-99695000D03*
X208868000Y-99695000D03*
X143938000Y-90805000D03*
X146638000Y-90805000D03*
X138858000Y-90805000D03*
X141558000Y-90805000D03*
X143938000Y-93345000D03*
X146638000Y-93345000D03*
X138858000Y-93345000D03*
X141558000Y-93345000D03*
X176958000Y-103505000D03*
X179658000Y-103505000D03*
X143938000Y-98425000D03*
X146638000Y-98425000D03*
X138858000Y-98425000D03*
X141558000Y-98425000D03*
X176958000Y-106045000D03*
X179658000Y-106045000D03*
X182038000Y-89535000D03*
X184738000Y-89535000D03*
X138858000Y-95885000D03*
X141558000Y-95885000D03*
X143938000Y-95885000D03*
X146638000Y-95885000D03*
X194898000Y-103505000D03*
X192198000Y-103505000D03*
X194898000Y-106045000D03*
X192198000Y-106045000D03*
D22*
X195048000Y-88825000D03*
X193548000Y-88825000D03*
X192048000Y-88825000D03*
D23*
X193548000Y-92785000D03*
D10*
G36*
X192548000Y-90810000D02*
X193048000Y-90060000D01*
X194048000Y-90060000D01*
X194548000Y-90810000D01*
X192548000Y-90810000D01*
X192548000Y-90810000D01*
G37*
D24*
X170948000Y-94175000D03*
X170148000Y-94175000D03*
X169348000Y-94175000D03*
X168548000Y-94175000D03*
X167748000Y-94175000D03*
X166948000Y-94175000D03*
X166148000Y-94175000D03*
X165348000Y-94175000D03*
D25*
X163898000Y-95625000D03*
X163898000Y-96425000D03*
X163898000Y-97225000D03*
X163898000Y-98025000D03*
X163898000Y-98825000D03*
X163898000Y-99625000D03*
X163898000Y-100425000D03*
X163898000Y-101225000D03*
D24*
X165348000Y-102675000D03*
X166148000Y-102675000D03*
X166948000Y-102675000D03*
X167748000Y-102675000D03*
X168548000Y-102675000D03*
X169348000Y-102675000D03*
X170148000Y-102675000D03*
X170948000Y-102675000D03*
D25*
X172398000Y-101225000D03*
X172398000Y-100425000D03*
X172398000Y-99625000D03*
X172398000Y-98825000D03*
X172398000Y-98025000D03*
X172398000Y-97225000D03*
X172398000Y-96425000D03*
X172398000Y-95625000D03*
D26*
X164408000Y-90805000D03*
X165608000Y-90805000D03*
X166808000Y-90805000D03*
D27*
X162463000Y-108405000D03*
X163713000Y-108405000D03*
X164963000Y-108405000D03*
X166213000Y-108405000D03*
D28*
X159963000Y-111305000D03*
X168713000Y-111305000D03*
D27*
X183398000Y-95705000D03*
X184648000Y-95705000D03*
D28*
X180898000Y-98605000D03*
X187148000Y-98605000D03*
D14*
X145998000Y-114619000D03*
D27*
X187748000Y-107915000D03*
X188998000Y-107915000D03*
X190248000Y-107915000D03*
D28*
X185248000Y-110815000D03*
X192748000Y-110815000D03*
D27*
X139663000Y-103325000D03*
X140913000Y-103325000D03*
X142163000Y-103325000D03*
X143413000Y-103325000D03*
X144663000Y-103325000D03*
X145913000Y-103325000D03*
X147163000Y-103325000D03*
X148413000Y-103325000D03*
X149663000Y-103325000D03*
X150913000Y-103325000D03*
D28*
X137163000Y-106225000D03*
X153413000Y-106225000D03*
D29*
X206248000Y-95885000D03*
D30*
X208788000Y-95885000D03*
M02*
