M48
;DRILL file {KiCad 4.0.7} date 08/24/19 10:44:40
;FORMAT={-:-/ absolute / inch / decimal}
FMAT,2
INCH,TZ
T1C0.016
T2C0.020
T3C0.031
T4C0.035
T5C0.039
T6C0.040
T7C0.055
T8C0.060
T9C0.118
%
G90
G05
M72
T1
X5.72Y-3.575
X5.72Y-3.675
X5.72Y-3.775
X5.72Y-3.875
X5.77Y-3.45
X5.97Y-3.525
X6.Y-3.995
X6.04Y-4.1
X6.055Y-4.34
X6.07Y-3.88
X6.595Y-3.975
X6.68Y-3.98
X6.755Y-4.655
X6.825Y-4.085
X6.875Y-3.86
X7.04Y-4.1
X7.11Y-3.49
X7.32Y-4.625
X7.345Y-3.475
X7.345Y-4.2
X7.355Y-3.57
X7.475Y-3.7
X7.85Y-3.445
X8.04Y-3.95
X8.065Y-4.11
T2
X5.495Y-4.075
X5.5442Y-4.075
X5.5934Y-4.075
X5.6426Y-4.075
X5.6919Y-4.075
X5.7411Y-4.075
X5.7903Y-4.075
X5.8395Y-4.075
X5.8887Y-4.075
X5.9379Y-4.075
X6.395Y-4.275
X6.4442Y-4.275
X6.4934Y-4.275
X6.5426Y-4.275
X7.22Y-3.775
X7.2692Y-3.775
X7.395Y-4.25
X7.4442Y-4.25
X7.4934Y-4.25
T3
X5.88Y-4.655
X5.9587Y-4.655
X6.0375Y-4.655
X6.72Y-4.18
X6.72Y-4.2587
T4
X8.12Y-3.775
X8.22Y-3.775
T5
X6.195Y-4.05
X6.195Y-4.15
X6.195Y-4.25
X6.295Y-4.05
X6.295Y-4.15
X6.295Y-4.25
X6.3308Y-4.725
X6.5592Y-4.725
X7.47Y-3.825
X7.57Y-3.825
X7.67Y-3.825
X7.77Y-3.825
X7.87Y-3.825
X7.9058Y-4.725
X7.97Y-3.825
X8.1342Y-4.725
T6
X6.97Y-4.05
X7.17Y-4.05
T7
X5.2755Y-4.5026
X5.4133Y-4.5026
T8
X6.92Y-4.525
X7.12Y-4.525
X7.945Y-4.5
X8.145Y-4.5
T9
X5.748Y-4.5126
X7.7165Y-4.5126
T0
M30
