%MOIN*%
%OFA0B0*%
%FSLAX46Y46*%
%IPPOS*%
%LPD*%
%AMREC21*
4,1,3,
0.035433070866141732,0.035433070866141739,
-0.035433070866141739,0.035433070866141732,
-0.035433070866141732,-0.035433070866141739,
0.035433070866141739,-0.035433070866141732,
0*%
%AMREC22*
4,1,3,
0.03444881889763779,0.0344488188976378,
-0.0344488188976378,0.03444881889763779,
-0.03444881889763779,-0.0344488188976378,
0.0344488188976378,-0.03444881889763779,
0*%
%AMREC23*
4,1,3,
0.033464566929133854,0.033464566929133861,
-0.033464566929133861,0.033464566929133854,
-0.033464566929133854,-0.033464566929133861,
0.033464566929133861,-0.033464566929133854,
0*%
%AMREC24*
4,1,3,
0.031496062992125984,0.031496062992125991,
-0.031496062992125991,0.031496062992125984,
-0.031496062992125984,-0.031496062992125991,
0.031496062992125991,-0.031496062992125984,
0*%
%AMREC25*
4,1,3,
0.051181102362204724,0.051181102362204738,
-0.051181102362204738,0.051181102362204724,
-0.051181102362204724,-0.051181102362204738,
0.051181102362204738,-0.051181102362204724,
0*%
%AMREC26*
4,1,3,
0.047244094488188969,0.047244094488188983,
-0.047244094488188983,0.047244094488188969,
-0.047244094488188969,-0.047244094488188983,
0.047244094488188983,-0.047244094488188969,
0*%
%AMREC27*
4,1,3,
0.017716535433070862,0.029527559055118113,
-0.017716535433070873,0.029527559055118113,
-0.017716535433070862,-0.029527559055118113,
0.017716535433070873,-0.029527559055118113,
0*%
%AMREC28*
4,1,3,
0.016732283464566927,0.016732283464566931,
-0.016732283464566931,0.016732283464566927,
-0.016732283464566927,-0.016732283464566931,
0.016732283464566931,-0.016732283464566927,
0*%
%ADD10C,0.0039370078740157488*%
%AMCOMP57*
4,1,3,
0.035433070866141732,0.035433070866141739,
-0.035433070866141739,0.035433070866141732,
-0.035433070866141732,-0.035433070866141739,
0.035433070866141739,-0.035433070866141732,
0*%
%ADD11COMP57*%
%ADD12C,0.070866141732283464*%
%ADD13C,0.068897637795275593*%
%AMCOMP58*
4,1,3,
0.03444881889763779,0.0344488188976378,
-0.0344488188976378,0.03444881889763779,
-0.03444881889763779,-0.0344488188976378,
0.0344488188976378,-0.03444881889763779,
0*%
%ADD14COMP58*%
%ADD15C,0.07874015748031496*%
%AMCOMP59*
4,1,3,
0.033464566929133854,0.033464566929133861,
-0.033464566929133861,0.033464566929133854,
-0.033464566929133854,-0.033464566929133861,
0.033464566929133861,-0.033464566929133854,
0*%
%ADD16COMP59*%
%ADD17O,0.066929133858267723X0.066929133858267723*%
%AMCOMP60*
4,1,3,
0.031496062992125984,0.031496062992125991,
-0.031496062992125991,0.031496062992125984,
-0.031496062992125984,-0.031496062992125991,
0.031496062992125991,-0.031496062992125984,
0*%
%ADD18COMP60*%
%ADD19O,0.062992125984251982X0.062992125984251982*%
%AMCOMP61*
4,1,3,
0.051181102362204724,0.051181102362204738,
-0.051181102362204738,0.051181102362204724,
-0.051181102362204724,-0.051181102362204738,
0.051181102362204738,-0.051181102362204724,
0*%
%ADD20COMP61*%
%ADD21C,0.10236220472440946*%
%ADD22C,0.066929133858267723*%
%AMCOMP62*
4,1,3,
0.047244094488188969,0.047244094488188983,
-0.047244094488188983,0.047244094488188969,
-0.047244094488188969,-0.047244094488188983,
0.047244094488188983,-0.047244094488188969,
0*%
%ADD23COMP62*%
%ADD24O,0.094488188976377951X0.094488188976377951*%
%ADD25C,0.07*%
%ADD26C,0.055118110236220472*%
%ADD27O,0.055118110236220472X0.055118110236220472*%
%ADD28C,0.062992125984251982*%
%ADD29O,0.035433070866141732X0.059055118110236227*%
%AMCOMP63*
4,1,3,
0.017716535433070862,0.029527559055118113,
-0.017716535433070873,0.029527559055118113,
-0.017716535433070862,-0.029527559055118113,
0.017716535433070873,-0.029527559055118113,
0*%
%ADD30COMP63*%
%AMCOMP64*
4,1,3,
0.016732283464566927,0.016732283464566931,
-0.016732283464566931,0.016732283464566927,
-0.016732283464566927,-0.016732283464566931,
0.016732283464566931,-0.016732283464566927,
0*%
%ADD31COMP64*%
%ADD32C,0.033464566929133861*%
%ADD33C,0.023622047244094488*%
%ADD34C,0.016*%
%ADD35C,0.024000000000000004*%
%ADD36C,0.012000000000000002*%
%ADD37C,0.08*%
%ADD48C,0.0039370078740157488*%
%ADD49R,0.070866141732283464X0.070866141732283464*%
%ADD50C,0.070866141732283464*%
%ADD51C,0.068897637795275593*%
%ADD52R,0.068897637795275593X0.068897637795275593*%
%ADD53C,0.07874015748031496*%
%ADD54R,0.066929133858267723X0.066929133858267723*%
%ADD55O,0.066929133858267723X0.066929133858267723*%
%ADD56R,0.062992125984251982X0.062992125984251982*%
%ADD57O,0.062992125984251982X0.062992125984251982*%
%ADD58R,0.10236220472440946X0.10236220472440946*%
%ADD59C,0.10236220472440946*%
%ADD60C,0.066929133858267723*%
%ADD61R,0.094488188976377951X0.094488188976377951*%
%ADD62O,0.094488188976377951X0.094488188976377951*%
%ADD63C,0.07*%
%ADD64C,0.055118110236220472*%
%ADD65O,0.055118110236220472X0.055118110236220472*%
%ADD66C,0.062992125984251982*%
%ADD67O,0.035433070866141732X0.059055118110236227*%
%ADD68R,0.035433070866141732X0.059055118110236227*%
%ADD69R,0.033464566929133861X0.033464566929133861*%
%ADD70C,0.033464566929133861*%
%ADD71C,0.023622047244094488*%
%ADD72C,0.016*%
%ADD73C,0.024000000000000004*%
%ADD74C,0.012000000000000002*%
%ADD75C,0.08*%
%ADD76C,0.0039370078740157488*%
%ADD77R,0.070866141732283464X0.070866141732283464*%
%ADD78C,0.070866141732283464*%
%ADD79C,0.068897637795275593*%
%ADD80R,0.068897637795275593X0.068897637795275593*%
%ADD81C,0.07874015748031496*%
%ADD82R,0.066929133858267723X0.066929133858267723*%
%ADD83O,0.066929133858267723X0.066929133858267723*%
%ADD84R,0.062992125984251982X0.062992125984251982*%
%ADD85O,0.062992125984251982X0.062992125984251982*%
%ADD86R,0.10236220472440946X0.10236220472440946*%
%ADD87C,0.10236220472440946*%
%ADD88C,0.066929133858267723*%
%ADD89R,0.094488188976377951X0.094488188976377951*%
%ADD90O,0.094488188976377951X0.094488188976377951*%
%ADD91C,0.07*%
%ADD92C,0.055118110236220472*%
%ADD93O,0.055118110236220472X0.055118110236220472*%
%ADD94C,0.062992125984251982*%
%ADD95O,0.059055118110236227X0.035433070866141732*%
%ADD96R,0.059055118110236227X0.035433070866141732*%
%ADD97R,0.033464566929133861X0.033464566929133861*%
%ADD98C,0.033464566929133861*%
%ADD99C,0.023622047244094488*%
%ADD100C,0.016*%
%ADD101C,0.024000000000000004*%
%ADD102C,0.012000000000000002*%
%ADD103C,0.08*%
G01*
D10*
D11*
X0003976377Y-0000866141D02*
X0000406377Y0002628858D03*
D12*
X0000506377Y0002628858D03*
D13*
X0000396929Y0003478936D03*
X0000296929Y0003478936D03*
D14*
X0000196929Y0003478936D03*
D15*
X0002042204Y0002758858D03*
X0002270551Y0002758858D03*
D16*
X0001406377Y0002908858D03*
D17*
X0001506377Y0002908858D03*
X0001606377Y0002908858D03*
X0001706377Y0002908858D03*
X0001806377Y0002908858D03*
X0001906377Y0002908858D03*
D18*
X0001706377Y0003008858D03*
D19*
X0000406377Y0003308858D03*
X0001606377Y0003008858D03*
X0000506377Y0003308858D03*
X0001506377Y0003008858D03*
X0000606377Y0003308858D03*
X0001406377Y0003008858D03*
X0000706377Y0003308858D03*
X0001306377Y0003008858D03*
X0000806377Y0003308858D03*
X0001206377Y0003008858D03*
X0000906377Y0003308858D03*
X0001106377Y0003008858D03*
X0001006377Y0003308858D03*
X0001006377Y0003008858D03*
X0001106377Y0003308858D03*
X0000906377Y0003008858D03*
X0001206377Y0003308858D03*
X0000806377Y0003008858D03*
X0001306377Y0003308858D03*
X0000706377Y0003008858D03*
X0001406377Y0003308858D03*
X0000606377Y0003008858D03*
X0001506377Y0003308858D03*
X0000506377Y0003008858D03*
X0001606377Y0003308858D03*
X0000406377Y0003008858D03*
X0001706377Y0003308858D03*
D20*
X0001931377Y0002608858D03*
D21*
X0002069173Y0002608858D03*
D20*
X0002281377Y0002608858D03*
D21*
X0002419173Y0002608858D03*
D22*
X0000706377Y0002908858D03*
X0000804803Y0002908858D03*
X0000903228Y0002908858D03*
D23*
X0002426377Y0003258858D03*
D24*
X0002426377Y0002758858D03*
D25*
X0002156377Y0003558858D03*
X0002356377Y0003558858D03*
D26*
X0001307952Y0002808858D03*
D27*
X0001507952Y0002808858D03*
D26*
X0001007952Y0002808858D03*
D27*
X0001207952Y0002808858D03*
D28*
X0001706377Y0003408858D03*
X0001706377Y0003507283D03*
X0001856377Y0003608858D03*
X0001954803Y0003608858D03*
X0001306377Y0002908858D03*
X0001207952Y0002908858D03*
D29*
X0001906377Y0003408858D03*
X0001856377Y0003408858D03*
D30*
X0001956377Y0003408858D03*
D28*
X0001106377Y0002908858D03*
X0001007952Y0002908858D03*
X0001606377Y0002808858D03*
X0001704803Y0002808858D03*
D26*
X0001806377Y0003010433D03*
D27*
X0001806377Y0003210433D03*
D28*
X0000606377Y0003458858D03*
X0000507952Y0003458858D03*
D26*
X0000506377Y0003560433D03*
D27*
X0000506377Y0003760433D03*
D26*
X0000606377Y0003757283D03*
D27*
X0000606377Y0003557283D03*
D13*
X0000987480Y0003478936D03*
X0000887480Y0003478936D03*
D14*
X0000787480Y0003478936D03*
D13*
X0001578031Y0003478936D03*
X0001478031Y0003478936D03*
D14*
X0001378031Y0003478936D03*
D26*
X0001906377Y0003207283D03*
D27*
X0001906377Y0003007283D03*
D26*
X0002006377Y0003207283D03*
D27*
X0002006377Y0003007283D03*
D26*
X0000604803Y0002908858D03*
D27*
X0000404803Y0002908858D03*
D28*
X0001281377Y0003458858D03*
X0001281377Y0003758858D03*
X0001181377Y0003458858D03*
X0001181377Y0003758858D03*
D26*
X0001081377Y0003757283D03*
D27*
X0001081377Y0003557283D03*
D16*
X0000606377Y0003108858D03*
D17*
X0000606377Y0003208858D03*
X0000706377Y0003108858D03*
X0000706377Y0003208858D03*
X0000806377Y0003108858D03*
X0000806377Y0003208858D03*
D31*
X0000881377Y0002608858D03*
D32*
X0000930590Y0002608858D03*
D31*
X0001331377Y0002608858D03*
D32*
X0001380590Y0002608858D03*
X0001429803Y0002608858D03*
X0001479015Y0002608858D03*
D31*
X0001106377Y0002608858D03*
D32*
X0001155590Y0002608858D03*
D31*
X0000206377Y0002608858D03*
D32*
X0000255590Y0002608858D03*
D31*
X0000656377Y0002608858D03*
D32*
X0000705590Y0002608858D03*
D31*
X0001656377Y0002608858D03*
D32*
X0001705590Y0002608858D03*
X0001754803Y0002608858D03*
D33*
X0001176377Y0003108858D03*
X0000376377Y0003248858D03*
X0001036377Y0003708858D03*
X0000696377Y0002798858D03*
D34*
X0001606377Y0003108858D02*
X0001706377Y0003008858D01*
X0001506377Y0003108858D02*
X0001606377Y0003108858D01*
X0001176377Y0003108858D02*
X0001506377Y0003108858D01*
X0001806377Y0003010433D02*
X0001707952Y0003010433D01*
X0001707952Y0003010433D02*
X0001706377Y0003008858D01*
X0001704803Y0002808858D02*
X0001704803Y0002810433D01*
X0001704803Y0002810433D02*
X0001656377Y0002858858D01*
X0001656377Y0002858858D02*
X0001656377Y0002958858D01*
X0001656377Y0002958858D02*
X0001706377Y0003008858D01*
D35*
X0001954803Y0003608858D02*
X0002106377Y0003608858D01*
X0002106377Y0003608858D02*
X0002156377Y0003558858D01*
X0000326377Y0002888858D02*
X0000326377Y0002708858D01*
X0000326377Y0002708858D02*
X0000406377Y0002628858D01*
X0000296377Y0003753818D02*
X0000181338Y0003753818D01*
X0000181338Y0003753818D02*
X0000121377Y0003693858D01*
X0000886377Y0003753818D02*
X0000711338Y0003753818D01*
X0000441417Y0003753818D02*
X0000296377Y0003753818D01*
X0000486377Y0003708858D02*
X0000441417Y0003753818D01*
X0000666377Y0003708858D02*
X0000486377Y0003708858D01*
X0000711338Y0003753818D02*
X0000666377Y0003708858D01*
X0001081377Y0003757283D02*
X0000889842Y0003757283D01*
X0000889842Y0003757283D02*
X0000886377Y0003753818D01*
D34*
X0001476377Y0003753818D02*
X0001431338Y0003753818D01*
X0001261377Y0003678858D02*
X0001181377Y0003758858D01*
X0001356377Y0003678858D02*
X0001261377Y0003678858D01*
X0001431338Y0003753818D02*
X0001356377Y0003678858D01*
D36*
X0000296929Y0003753267D02*
X0000296377Y0003753818D01*
D35*
X0000326377Y0002888858D02*
X0000326377Y0003218858D01*
X0000804803Y0002897283D02*
X0000746377Y0002838858D01*
X0000746377Y0002838858D02*
X0000586377Y0002838858D01*
X0000586377Y0002838858D02*
X0000546377Y0002878858D01*
X0000546377Y0002878858D02*
X0000466377Y0002878858D01*
X0000466377Y0002878858D02*
X0000431377Y0002843858D01*
X0000431377Y0002843858D02*
X0000371377Y0002843858D01*
X0000371377Y0002843858D02*
X0000326377Y0002888858D01*
X0000326377Y0003218858D02*
X0000156377Y0003388858D01*
X0000507952Y0003458858D02*
X0000507952Y0003440433D01*
X0000507952Y0003440433D02*
X0000476377Y0003408858D01*
X0000316377Y0003408858D02*
X0000296377Y0003428858D01*
X0000476377Y0003408858D02*
X0000316377Y0003408858D01*
X0000121377Y0003638858D02*
X0000121377Y0003693858D01*
X0000121377Y0003503858D02*
X0000121377Y0003423858D01*
X0000121377Y0003638858D02*
X0000121377Y0003503858D01*
X0000121377Y0003423858D02*
X0000156377Y0003388858D01*
X0000156377Y0003388858D02*
X0000256377Y0003388858D01*
X0000256377Y0003388858D02*
X0000296377Y0003428858D01*
X0000296377Y0003428858D02*
X0000296929Y0003429409D01*
X0000296929Y0003478936D02*
X0000296929Y0003429409D01*
X0001706377Y0003507283D02*
X0001704803Y0003507283D01*
X0001704803Y0003507283D02*
X0001606377Y0003408858D01*
X0001531377Y0003408858D02*
X0001478031Y0003462204D01*
X0001606377Y0003408858D02*
X0001531377Y0003408858D01*
X0001478031Y0003462204D02*
X0001478031Y0003478936D01*
X0000507952Y0003458858D02*
X0000507952Y0003477283D01*
X0001106377Y0003308858D02*
X0001106377Y0003338858D01*
X0001106377Y0003338858D02*
X0001066377Y0003378858D01*
X0000887480Y0003427755D02*
X0000887480Y0003478936D01*
X0000936377Y0003378858D02*
X0000887480Y0003427755D01*
X0001066377Y0003378858D02*
X0000936377Y0003378858D01*
X0001478031Y0003478936D02*
X0001478031Y0003430511D01*
X0001478031Y0003430511D02*
X0001426377Y0003378858D01*
X0001426377Y0003378858D02*
X0001146377Y0003378858D01*
X0001146377Y0003378858D02*
X0001106377Y0003338858D01*
X0001706377Y0003507283D02*
X0001706377Y0003508858D01*
X0001956377Y0003408858D02*
X0001956377Y0003458858D01*
X0001907952Y0003507283D02*
X0001706377Y0003507283D01*
X0001956377Y0003458858D02*
X0001907952Y0003507283D01*
X0001956377Y0003408858D02*
X0001956377Y0003607283D01*
X0001956377Y0003607283D02*
X0001954803Y0003608858D01*
X0001181377Y0003758858D02*
X0001082952Y0003758858D01*
X0001082952Y0003758858D02*
X0001081377Y0003757283D01*
X0000804803Y0002908858D02*
X0000804803Y0002897283D01*
X0001906377Y0002908858D02*
X0001806377Y0002908858D01*
X0001006377Y0003008858D02*
X0001006377Y0003078858D01*
X0001006377Y0003078858D02*
X0000876377Y0003208858D01*
X0000876377Y0003208858D02*
X0000806377Y0003208858D01*
X0001806377Y0002908858D02*
X0001806377Y0002768858D01*
X0001806377Y0002768858D02*
X0001741377Y0002703858D01*
X0001741377Y0002703858D02*
X0001151377Y0002703858D01*
X0001151377Y0002703858D02*
X0001061377Y0002793858D01*
X0001061377Y0002793858D02*
X0001061377Y0002855433D01*
X0001061377Y0002855433D02*
X0001007952Y0002908858D01*
X0001081377Y0003757283D02*
X0001072952Y0003757283D01*
X0001007952Y0002908858D02*
X0001007952Y0002905433D01*
X0001007952Y0002905433D02*
X0000936377Y0002833858D01*
X0000879803Y0002833858D02*
X0000804803Y0002908858D01*
X0000936377Y0002833858D02*
X0000879803Y0002833858D01*
X0001006377Y0003008858D02*
X0001006377Y0002910433D01*
X0001006377Y0002910433D02*
X0001007952Y0002908858D01*
D34*
X0000606377Y0003458858D02*
X0000606377Y0003408858D01*
X0000346377Y0003278858D02*
X0000376377Y0003248858D01*
X0000346377Y0003348858D02*
X0000346377Y0003278858D01*
X0000366377Y0003368858D02*
X0000346377Y0003348858D01*
X0000566377Y0003368858D02*
X0000366377Y0003368858D01*
X0000606377Y0003408858D02*
X0000566377Y0003368858D01*
X0001906377Y0003007283D02*
X0001906377Y0003033858D01*
X0001906377Y0003033858D02*
X0001791377Y0003148858D01*
X0001466377Y0003148858D02*
X0001306377Y0003308858D01*
X0001791377Y0003148858D02*
X0001466377Y0003148858D01*
X0001656377Y0002608858D02*
X0001656377Y0002613858D01*
X0001656377Y0002613858D02*
X0001716377Y0002673858D01*
X0001716377Y0002673858D02*
X0001786377Y0002673858D01*
X0001786377Y0002673858D02*
X0001956377Y0002843858D01*
X0001956377Y0002843858D02*
X0001956377Y0002957283D01*
X0001956377Y0002957283D02*
X0001906377Y0003007283D01*
X0001036377Y0003708858D02*
X0001081377Y0003663858D01*
X0001081377Y0003557283D02*
X0001081377Y0003663858D01*
X0000706377Y0003108858D02*
X0000696377Y0003108858D01*
X0000696377Y0003108858D02*
X0000656377Y0003068858D01*
X0000656377Y0002960433D02*
X0000604803Y0002908858D01*
X0000656377Y0003068858D02*
X0000656377Y0002960433D01*
X0000806377Y0003308858D02*
X0000791377Y0003308858D01*
X0000791377Y0003308858D02*
X0000756377Y0003273858D01*
X0000756377Y0003273858D02*
X0000756377Y0003158858D01*
X0000756377Y0003158858D02*
X0000706377Y0003108858D01*
X0001578031Y0003478936D02*
X0001578031Y0003487204D01*
D35*
X0001856377Y0003608858D02*
X0001466377Y0003608858D01*
X0001378031Y0003520511D02*
X0001378031Y0003478936D01*
X0001466377Y0003608858D02*
X0001378031Y0003520511D01*
X0000606377Y0003557283D02*
X0000606377Y0003558858D01*
X0000606377Y0003558858D02*
X0000546377Y0003618858D01*
X0000196929Y0003529409D02*
X0000196929Y0003478936D01*
X0000286377Y0003618858D02*
X0000196929Y0003529409D01*
X0000546377Y0003618858D02*
X0000286377Y0003618858D01*
X0001006377Y0003558858D02*
X0000867401Y0003558858D01*
X0000867401Y0003558858D02*
X0000846377Y0003537834D01*
X0000846377Y0003537834D02*
X0000787480Y0003478936D01*
X0001378031Y0003478936D02*
X0001323110Y0003533858D01*
X0001181377Y0003533858D02*
X0001323110Y0003533858D01*
X0001156377Y0003508858D02*
X0001181377Y0003533858D01*
X0001056377Y0003508858D02*
X0001156377Y0003508858D01*
X0001006377Y0003558858D02*
X0001056377Y0003508858D01*
D36*
X0000196929Y0003478936D02*
X0000196929Y0003489409D01*
D35*
X0000606377Y0003557283D02*
X0000606377Y0003568858D01*
X0000787480Y0003528858D02*
X0000787480Y0003547755D01*
X0000657952Y0003608858D02*
X0000606377Y0003557283D01*
X0000726377Y0003608858D02*
X0000657952Y0003608858D01*
X0000787480Y0003547755D02*
X0000726377Y0003608858D01*
X0000787480Y0003528858D02*
X0000787480Y0003478936D01*
X0000906377Y0003308858D02*
X0000906377Y0003360039D01*
X0000906377Y0003360039D02*
X0000787480Y0003478936D01*
X0001856377Y0003408858D02*
X0001856377Y0003260433D01*
X0001856377Y0003260433D02*
X0001806377Y0003210433D01*
D34*
X0000656377Y0003258858D02*
X0000656377Y0003393858D01*
X0000606377Y0003208858D02*
X0000656377Y0003258858D01*
X0000666377Y0003497283D02*
X0000606377Y0003557283D01*
X0000666377Y0003403858D02*
X0000666377Y0003497283D01*
X0000656377Y0003393858D02*
X0000666377Y0003403858D01*
D35*
X0001906377Y0003207283D02*
X0001809527Y0003207283D01*
X0001809527Y0003207283D02*
X0001806377Y0003210433D01*
X0001507952Y0002808858D02*
X0001507952Y0002787283D01*
X0001507952Y0002787283D02*
X0001556377Y0002738858D01*
X0001766377Y0002848858D02*
X0001706377Y0002908858D01*
X0001766377Y0002778858D02*
X0001766377Y0002848858D01*
X0001726377Y0002738858D02*
X0001766377Y0002778858D01*
X0001556377Y0002738858D02*
X0001726377Y0002738858D01*
X0001106377Y0002908858D02*
X0001106377Y0002798858D01*
X0001447952Y0002748858D02*
X0001507952Y0002808858D01*
X0001156377Y0002748858D02*
X0001447952Y0002748858D01*
X0001106377Y0002798858D02*
X0001156377Y0002748858D01*
X0001106377Y0003008858D02*
X0001106377Y0003058858D01*
X0000906377Y0003258858D02*
X0000906377Y0003308858D01*
X0001106377Y0003058858D02*
X0000906377Y0003258858D01*
X0001106377Y0002908858D02*
X0001106377Y0003008858D01*
X0002006377Y0003207283D02*
X0001906377Y0003207283D01*
D34*
X0000987480Y0003478936D02*
X0000987480Y0003487755D01*
X0000706377Y0003208858D02*
X0000706377Y0003198858D01*
X0000706377Y0003198858D02*
X0000666377Y0003158858D01*
X0000666377Y0003158858D02*
X0000576377Y0003158858D01*
X0000576377Y0003158858D02*
X0000551377Y0003183858D01*
X0000551377Y0003183858D02*
X0000551377Y0003253858D01*
X0000551377Y0003253858D02*
X0000606377Y0003308858D01*
D36*
X0000396929Y0003478936D02*
X0000396929Y0003488307D01*
D34*
X0001606377Y0002808858D02*
X0001601377Y0002808858D01*
X0001601377Y0002808858D02*
X0001556377Y0002853858D01*
X0001556377Y0002853858D02*
X0001461377Y0002853858D01*
X0001461377Y0002853858D02*
X0001406377Y0002908858D01*
X0001106377Y0002638858D02*
X0001106377Y0002608858D01*
X0001056377Y0002688858D02*
X0001106377Y0002638858D01*
X0000806377Y0002688858D02*
X0001056377Y0002688858D01*
X0000696377Y0002798858D02*
X0000806377Y0002688858D01*
X0002006377Y0003007283D02*
X0002006377Y0002848858D01*
X0001745590Y0002648858D02*
X0001705590Y0002608858D01*
X0001806377Y0002648858D02*
X0001745590Y0002648858D01*
X0002006377Y0002848858D02*
X0001806377Y0002648858D01*
D35*
X0001891377Y0002568858D02*
X0001776377Y0002568858D01*
X0001776377Y0002568858D02*
X0001196377Y0002568858D01*
X0001891377Y0002568858D02*
X0001931377Y0002608858D01*
D37*
X0001931377Y0002608858D02*
X0001931377Y0002648031D01*
X0001931377Y0002648031D02*
X0002042204Y0002758858D01*
D35*
X0001196377Y0002568858D02*
X0000970590Y0002568858D01*
X0000970590Y0002568858D02*
X0000930590Y0002608858D01*
X0001196377Y0002568858D02*
X0001195590Y0002568858D01*
D34*
X0001281377Y0003758858D02*
X0001286377Y0003758858D01*
D37*
X0002426377Y0003258858D02*
X0002426377Y0003143031D01*
X0002426377Y0003143031D02*
X0002042204Y0002758858D01*
G04 next file*
G04 #@! TF.FileFunction,Copper,L1,Top,Signal*
G04 Gerber Fmt 4.6, Leading zero omitted, Abs format (unit mm)*
G04 Created by KiCad (PCBNEW 4.0.7) date 07/04/19 20:50:11*
G01*
G04 APERTURE LIST*
G04 APERTURE END LIST*
D48*
D49*
X-0001456692Y0005433070D02*
X0002113307Y0001938070D03*
D50*
X0002013307Y0001938070D03*
D51*
X0002122755Y0001087992D03*
X0002222755Y0001087992D03*
D52*
X0002322755Y0001087992D03*
D53*
X0000477480Y0001808070D03*
X0000249133Y0001808070D03*
D54*
X0001113307Y0001658070D03*
D55*
X0001013307Y0001658070D03*
X0000913307Y0001658070D03*
X0000813307Y0001658070D03*
X0000713307Y0001658070D03*
X0000613307Y0001658070D03*
D56*
X0000813307Y0001558070D03*
D57*
X0002113307Y0001258070D03*
X0000913307Y0001558070D03*
X0002013307Y0001258070D03*
X0001013307Y0001558070D03*
X0001913307Y0001258070D03*
X0001113307Y0001558070D03*
X0001813307Y0001258070D03*
X0001213307Y0001558070D03*
X0001713307Y0001258070D03*
X0001313307Y0001558070D03*
X0001613307Y0001258070D03*
X0001413307Y0001558070D03*
X0001513307Y0001258070D03*
X0001513307Y0001558070D03*
X0001413307Y0001258070D03*
X0001613307Y0001558070D03*
X0001313307Y0001258070D03*
X0001713307Y0001558070D03*
X0001213307Y0001258070D03*
X0001813307Y0001558070D03*
X0001113307Y0001258070D03*
X0001913307Y0001558070D03*
X0001013307Y0001258070D03*
X0002013307Y0001558070D03*
X0000913307Y0001258070D03*
X0002113307Y0001558070D03*
X0000813307Y0001258070D03*
D58*
X0000588307Y0001958070D03*
D59*
X0000450511Y0001958070D03*
D58*
X0000238307Y0001958070D03*
D59*
X0000100511Y0001958070D03*
D60*
X0001813307Y0001658070D03*
X0001714881Y0001658070D03*
X0001616456Y0001658070D03*
D61*
X0000093307Y0001308070D03*
D62*
X0000093307Y0001808070D03*
D63*
X0000363307Y0001008070D03*
X0000163307Y0001008070D03*
D64*
X0001211732Y0001758070D03*
D65*
X0001011732Y0001758070D03*
D64*
X0001511732Y0001758070D03*
D65*
X0001311732Y0001758070D03*
D66*
X0000813307Y0001158070D03*
X0000813307Y0001059645D03*
X0000663307Y0000958070D03*
X0000564881Y0000958070D03*
X0001213307Y0001658070D03*
X0001311732Y0001658070D03*
D67*
X0000613307Y0001158070D03*
X0000663307Y0001158070D03*
D68*
X0000563307Y0001158070D03*
D66*
X0001413307Y0001658070D03*
X0001511732Y0001658070D03*
X0000913307Y0001758070D03*
X0000814881Y0001758070D03*
D64*
X0000713307Y0001556496D03*
D65*
X0000713307Y0001356496D03*
D66*
X0001913307Y0001108070D03*
X0002011732Y0001108070D03*
D64*
X0002013307Y0001006496D03*
D65*
X0002013307Y0000806496D03*
D64*
X0001913307Y0000809645D03*
D65*
X0001913307Y0001009645D03*
D51*
X0001532204Y0001087992D03*
X0001632204Y0001087992D03*
D52*
X0001732204Y0001087992D03*
D51*
X0000941653Y0001087992D03*
X0001041653Y0001087992D03*
D52*
X0001141653Y0001087992D03*
D64*
X0000613307Y0001359645D03*
D65*
X0000613307Y0001559645D03*
D64*
X0000513307Y0001359645D03*
D65*
X0000513307Y0001559645D03*
D64*
X0001914881Y0001658070D03*
D65*
X0002114881Y0001658070D03*
D66*
X0001238307Y0001108070D03*
X0001238307Y0000808070D03*
X0001338307Y0001108070D03*
X0001338307Y0000808070D03*
D64*
X0001438307Y0000809645D03*
D65*
X0001438307Y0001009645D03*
D54*
X0001913307Y0001458070D03*
D55*
X0001913307Y0001358070D03*
X0001813307Y0001458070D03*
X0001813307Y0001358070D03*
X0001713307Y0001458070D03*
X0001713307Y0001358070D03*
D69*
X0001638307Y0001958070D03*
D70*
X0001589094Y0001958070D03*
D69*
X0001188307Y0001958070D03*
D70*
X0001139094Y0001958070D03*
X0001089881Y0001958070D03*
X0001040669Y0001958070D03*
D69*
X0001413307Y0001958070D03*
D70*
X0001364094Y0001958070D03*
D69*
X0002313307Y0001958070D03*
D70*
X0002264094Y0001958070D03*
D69*
X0001863307Y0001958070D03*
D70*
X0001814094Y0001958070D03*
D69*
X0000863307Y0001958070D03*
D70*
X0000814094Y0001958070D03*
X0000764881Y0001958070D03*
D71*
X0001343307Y0001458070D03*
X0002143307Y0001318070D03*
X0001483307Y0000858070D03*
X0001823307Y0001768070D03*
D72*
X0000913307Y0001458070D02*
X0000813307Y0001558070D01*
X0001013307Y0001458070D02*
X0000913307Y0001458070D01*
X0001343307Y0001458070D02*
X0001013307Y0001458070D01*
X0000713307Y0001556496D02*
X0000811732Y0001556496D01*
X0000811732Y0001556496D02*
X0000813307Y0001558070D01*
X0000814881Y0001758070D02*
X0000814881Y0001756496D01*
X0000814881Y0001756496D02*
X0000863307Y0001708070D01*
X0000863307Y0001708070D02*
X0000863307Y0001608070D01*
X0000863307Y0001608070D02*
X0000813307Y0001558070D01*
D73*
X0000564881Y0000958070D02*
X0000413307Y0000958070D01*
X0000413307Y0000958070D02*
X0000363307Y0001008070D01*
X0002193307Y0001678070D02*
X0002193307Y0001858070D01*
X0002193307Y0001858070D02*
X0002113307Y0001938070D01*
X0002223307Y0000813110D02*
X0002338346Y0000813110D01*
X0002338346Y0000813110D02*
X0002398307Y0000873070D01*
X0001633307Y0000813110D02*
X0001808346Y0000813110D01*
X0002078267Y0000813110D02*
X0002223307Y0000813110D01*
X0002033307Y0000858070D02*
X0002078267Y0000813110D01*
X0001853307Y0000858070D02*
X0002033307Y0000858070D01*
X0001808346Y0000813110D02*
X0001853307Y0000858070D01*
X0001438307Y0000809645D02*
X0001629842Y0000809645D01*
X0001629842Y0000809645D02*
X0001633307Y0000813110D01*
D72*
X0001043307Y0000813110D02*
X0001088346Y0000813110D01*
X0001258307Y0000888070D02*
X0001338307Y0000808070D01*
X0001163307Y0000888070D02*
X0001258307Y0000888070D01*
X0001088346Y0000813110D02*
X0001163307Y0000888070D01*
D74*
X0002222755Y0000813661D02*
X0002223307Y0000813110D01*
D73*
X0002193307Y0001678070D02*
X0002193307Y0001348070D01*
X0001714881Y0001669645D02*
X0001773307Y0001728070D01*
X0001773307Y0001728070D02*
X0001933307Y0001728070D01*
X0001933307Y0001728070D02*
X0001973307Y0001688070D01*
X0001973307Y0001688070D02*
X0002053307Y0001688070D01*
X0002053307Y0001688070D02*
X0002088307Y0001723070D01*
X0002088307Y0001723070D02*
X0002148307Y0001723070D01*
X0002148307Y0001723070D02*
X0002193307Y0001678070D01*
X0002193307Y0001348070D02*
X0002363307Y0001178070D01*
X0002011732Y0001108070D02*
X0002011732Y0001126496D01*
X0002011732Y0001126496D02*
X0002043307Y0001158070D01*
X0002203307Y0001158070D02*
X0002223307Y0001138070D01*
X0002043307Y0001158070D02*
X0002203307Y0001158070D01*
X0002398307Y0000928070D02*
X0002398307Y0000873070D01*
X0002398307Y0001063070D02*
X0002398307Y0001143070D01*
X0002398307Y0000928070D02*
X0002398307Y0001063070D01*
X0002398307Y0001143070D02*
X0002363307Y0001178070D01*
X0002363307Y0001178070D02*
X0002263307Y0001178070D01*
X0002263307Y0001178070D02*
X0002223307Y0001138070D01*
X0002223307Y0001138070D02*
X0002222755Y0001137519D01*
X0002222755Y0001087992D02*
X0002222755Y0001137519D01*
X0000813307Y0001059645D02*
X0000814881Y0001059645D01*
X0000814881Y0001059645D02*
X0000913307Y0001158070D01*
X0000988307Y0001158070D02*
X0001041653Y0001104724D01*
X0000913307Y0001158070D02*
X0000988307Y0001158070D01*
X0001041653Y0001104724D02*
X0001041653Y0001087992D01*
X0002011732Y0001108070D02*
X0002011732Y0001089645D01*
X0001413307Y0001258070D02*
X0001413307Y0001228070D01*
X0001413307Y0001228070D02*
X0001453307Y0001188070D01*
X0001632204Y0001139173D02*
X0001632204Y0001087992D01*
X0001583307Y0001188070D02*
X0001632204Y0001139173D01*
X0001453307Y0001188070D02*
X0001583307Y0001188070D01*
X0001041653Y0001087992D02*
X0001041653Y0001136417D01*
X0001041653Y0001136417D02*
X0001093307Y0001188070D01*
X0001093307Y0001188070D02*
X0001373307Y0001188070D01*
X0001373307Y0001188070D02*
X0001413307Y0001228070D01*
X0000813307Y0001059645D02*
X0000813307Y0001058070D01*
X0000563307Y0001158070D02*
X0000563307Y0001108070D01*
X0000611732Y0001059645D02*
X0000813307Y0001059645D01*
X0000563307Y0001108070D02*
X0000611732Y0001059645D01*
X0000563307Y0001158070D02*
X0000563307Y0000959645D01*
X0000563307Y0000959645D02*
X0000564881Y0000958070D01*
X0001338307Y0000808070D02*
X0001436732Y0000808070D01*
X0001436732Y0000808070D02*
X0001438307Y0000809645D01*
X0001714881Y0001658070D02*
X0001714881Y0001669645D01*
X0000613307Y0001658070D02*
X0000713307Y0001658070D01*
X0001513307Y0001558070D02*
X0001513307Y0001488070D01*
X0001513307Y0001488070D02*
X0001643307Y0001358070D01*
X0001643307Y0001358070D02*
X0001713307Y0001358070D01*
X0000713307Y0001658070D02*
X0000713307Y0001798070D01*
X0000713307Y0001798070D02*
X0000778307Y0001863070D01*
X0000778307Y0001863070D02*
X0001368307Y0001863070D01*
X0001368307Y0001863070D02*
X0001458307Y0001773070D01*
X0001458307Y0001773070D02*
X0001458307Y0001711496D01*
X0001458307Y0001711496D02*
X0001511732Y0001658070D01*
X0001438307Y0000809645D02*
X0001446732Y0000809645D01*
X0001511732Y0001658070D02*
X0001511732Y0001661496D01*
X0001511732Y0001661496D02*
X0001583307Y0001733070D01*
X0001639881Y0001733070D02*
X0001714881Y0001658070D01*
X0001583307Y0001733070D02*
X0001639881Y0001733070D01*
X0001513307Y0001558070D02*
X0001513307Y0001656496D01*
X0001513307Y0001656496D02*
X0001511732Y0001658070D01*
D72*
X0001913307Y0001108070D02*
X0001913307Y0001158070D01*
X0002173307Y0001288070D02*
X0002143307Y0001318070D01*
X0002173307Y0001218070D02*
X0002173307Y0001288070D01*
X0002153307Y0001198070D02*
X0002173307Y0001218070D01*
X0001953307Y0001198070D02*
X0002153307Y0001198070D01*
X0001913307Y0001158070D02*
X0001953307Y0001198070D01*
X0000613307Y0001559645D02*
X0000613307Y0001533070D01*
X0000613307Y0001533070D02*
X0000728307Y0001418070D01*
X0001053307Y0001418070D02*
X0001213307Y0001258070D01*
X0000728307Y0001418070D02*
X0001053307Y0001418070D01*
X0000863307Y0001958070D02*
X0000863307Y0001953070D01*
X0000863307Y0001953070D02*
X0000803307Y0001893070D01*
X0000803307Y0001893070D02*
X0000733307Y0001893070D01*
X0000733307Y0001893070D02*
X0000563307Y0001723070D01*
X0000563307Y0001723070D02*
X0000563307Y0001609645D01*
X0000563307Y0001609645D02*
X0000613307Y0001559645D01*
X0001483307Y0000858070D02*
X0001438307Y0000903070D01*
X0001438307Y0001009645D02*
X0001438307Y0000903070D01*
X0001813307Y0001458070D02*
X0001823307Y0001458070D01*
X0001823307Y0001458070D02*
X0001863307Y0001498070D01*
X0001863307Y0001606496D02*
X0001914881Y0001658070D01*
X0001863307Y0001498070D02*
X0001863307Y0001606496D01*
X0001713307Y0001258070D02*
X0001728307Y0001258070D01*
X0001728307Y0001258070D02*
X0001763307Y0001293070D01*
X0001763307Y0001293070D02*
X0001763307Y0001408070D01*
X0001763307Y0001408070D02*
X0001813307Y0001458070D01*
X0000941653Y0001087992D02*
X0000941653Y0001079724D01*
D73*
X0000663307Y0000958070D02*
X0001053307Y0000958070D01*
X0001141653Y0001046417D02*
X0001141653Y0001087992D01*
X0001053307Y0000958070D02*
X0001141653Y0001046417D01*
X0001913307Y0001009645D02*
X0001913307Y0001008070D01*
X0001913307Y0001008070D02*
X0001973307Y0000948070D01*
X0002322755Y0001037519D02*
X0002322755Y0001087992D01*
X0002233307Y0000948070D02*
X0002322755Y0001037519D01*
X0001973307Y0000948070D02*
X0002233307Y0000948070D01*
X0001513307Y0001008070D02*
X0001652283Y0001008070D01*
X0001652283Y0001008070D02*
X0001673307Y0001029094D01*
X0001673307Y0001029094D02*
X0001732204Y0001087992D01*
X0001141653Y0001087992D02*
X0001196574Y0001033070D01*
X0001338307Y0001033070D02*
X0001196574Y0001033070D01*
X0001363307Y0001058070D02*
X0001338307Y0001033070D01*
X0001463307Y0001058070D02*
X0001363307Y0001058070D01*
X0001513307Y0001008070D02*
X0001463307Y0001058070D01*
D74*
X0002322755Y0001087992D02*
X0002322755Y0001077519D01*
D73*
X0001913307Y0001009645D02*
X0001913307Y0000998070D01*
X0001732204Y0001038070D02*
X0001732204Y0001019173D01*
X0001861732Y0000958070D02*
X0001913307Y0001009645D01*
X0001793307Y0000958070D02*
X0001861732Y0000958070D01*
X0001732204Y0001019173D02*
X0001793307Y0000958070D01*
X0001732204Y0001038070D02*
X0001732204Y0001087992D01*
X0001613307Y0001258070D02*
X0001613307Y0001206889D01*
X0001613307Y0001206889D02*
X0001732204Y0001087992D01*
X0000663307Y0001158070D02*
X0000663307Y0001306496D01*
X0000663307Y0001306496D02*
X0000713307Y0001356496D01*
D72*
X0001863307Y0001308070D02*
X0001863307Y0001173070D01*
X0001913307Y0001358070D02*
X0001863307Y0001308070D01*
X0001853307Y0001069645D02*
X0001913307Y0001009645D01*
X0001853307Y0001163070D02*
X0001853307Y0001069645D01*
X0001863307Y0001173070D02*
X0001853307Y0001163070D01*
D73*
X0000613307Y0001359645D02*
X0000710157Y0001359645D01*
X0000710157Y0001359645D02*
X0000713307Y0001356496D01*
X0001011732Y0001758070D02*
X0001011732Y0001779645D01*
X0001011732Y0001779645D02*
X0000963307Y0001828070D01*
X0000753307Y0001718070D02*
X0000813307Y0001658070D01*
X0000753307Y0001788070D02*
X0000753307Y0001718070D01*
X0000793307Y0001828070D02*
X0000753307Y0001788070D01*
X0000963307Y0001828070D02*
X0000793307Y0001828070D01*
X0001413307Y0001658070D02*
X0001413307Y0001768070D01*
X0001071732Y0001818070D02*
X0001011732Y0001758070D01*
X0001363307Y0001818070D02*
X0001071732Y0001818070D01*
X0001413307Y0001768070D02*
X0001363307Y0001818070D01*
X0001413307Y0001558070D02*
X0001413307Y0001508070D01*
X0001613307Y0001308070D02*
X0001613307Y0001258070D01*
X0001413307Y0001508070D02*
X0001613307Y0001308070D01*
X0001413307Y0001658070D02*
X0001413307Y0001558070D01*
X0000513307Y0001359645D02*
X0000613307Y0001359645D01*
D72*
X0001532204Y0001087992D02*
X0001532204Y0001079173D01*
X0001813307Y0001358070D02*
X0001813307Y0001368070D01*
X0001813307Y0001368070D02*
X0001853307Y0001408070D01*
X0001853307Y0001408070D02*
X0001943307Y0001408070D01*
X0001943307Y0001408070D02*
X0001968307Y0001383070D01*
X0001968307Y0001383070D02*
X0001968307Y0001313070D01*
X0001968307Y0001313070D02*
X0001913307Y0001258070D01*
D74*
X0002122755Y0001087992D02*
X0002122755Y0001078622D01*
D72*
X0000913307Y0001758070D02*
X0000918307Y0001758070D01*
X0000918307Y0001758070D02*
X0000963307Y0001713070D01*
X0000963307Y0001713070D02*
X0001058307Y0001713070D01*
X0001058307Y0001713070D02*
X0001113307Y0001658070D01*
X0001413307Y0001928070D02*
X0001413307Y0001958070D01*
X0001463307Y0001878070D02*
X0001413307Y0001928070D01*
X0001713307Y0001878070D02*
X0001463307Y0001878070D01*
X0001823307Y0001768070D02*
X0001713307Y0001878070D01*
X0000513307Y0001559645D02*
X0000513307Y0001718070D01*
X0000774094Y0001918070D02*
X0000814094Y0001958070D01*
X0000713307Y0001918070D02*
X0000774094Y0001918070D01*
X0000513307Y0001718070D02*
X0000713307Y0001918070D01*
D73*
X0000628307Y0001998070D02*
X0000743307Y0001998070D01*
X0000743307Y0001998070D02*
X0001323307Y0001998070D01*
X0000628307Y0001998070D02*
X0000588307Y0001958070D01*
D75*
X0000588307Y0001958070D02*
X0000588307Y0001918897D01*
X0000588307Y0001918897D02*
X0000477480Y0001808070D01*
D73*
X0001323307Y0001998070D02*
X0001549094Y0001998070D01*
X0001549094Y0001998070D02*
X0001589094Y0001958070D01*
X0001323307Y0001998070D02*
X0001324094Y0001998070D01*
D72*
X0001238307Y0000808070D02*
X0001233307Y0000808070D01*
D75*
X0000093307Y0001308070D02*
X0000093307Y0001423897D01*
X0000093307Y0001423897D02*
X0000477480Y0001808070D01*
G04 next file*
G04 #@! TF.FileFunction,Copper,L1,Top,Signal*
G04 Gerber Fmt 4.6, Leading zero omitted, Abs format (unit mm)*
G04 Created by KiCad (PCBNEW 4.0.7) date 07/04/19 20:50:11*
G01*
G04 APERTURE LIST*
G04 APERTURE END LIST*
D76*
D77*
X-0000787401Y-0001456692D02*
X0002707598Y0002113307D03*
D78*
X0002707598Y0002013307D03*
D79*
X0003557677Y0002122755D03*
X0003557677Y0002222755D03*
D80*
X0003557677Y0002322755D03*
D81*
X0002837598Y0000477480D03*
X0002837598Y0000249133D03*
D82*
X0002987598Y0001113307D03*
D83*
X0002987598Y0001013307D03*
X0002987598Y0000913307D03*
X0002987598Y0000813307D03*
X0002987598Y0000713307D03*
X0002987598Y0000613307D03*
D84*
X0003087598Y0000813307D03*
D85*
X0003387598Y0002113307D03*
X0003087598Y0000913307D03*
X0003387598Y0002013307D03*
X0003087598Y0001013307D03*
X0003387598Y0001913307D03*
X0003087598Y0001113307D03*
X0003387598Y0001813307D03*
X0003087598Y0001213307D03*
X0003387598Y0001713307D03*
X0003087598Y0001313307D03*
X0003387598Y0001613307D03*
X0003087598Y0001413307D03*
X0003387598Y0001513307D03*
X0003087598Y0001513307D03*
X0003387598Y0001413307D03*
X0003087598Y0001613307D03*
X0003387598Y0001313307D03*
X0003087598Y0001713307D03*
X0003387598Y0001213307D03*
X0003087598Y0001813307D03*
X0003387598Y0001113307D03*
X0003087598Y0001913307D03*
X0003387598Y0001013307D03*
X0003087598Y0002013307D03*
X0003387598Y0000913307D03*
X0003087598Y0002113307D03*
X0003387598Y0000813307D03*
D86*
X0002687598Y0000588307D03*
D87*
X0002687598Y0000450511D03*
D86*
X0002687598Y0000238307D03*
D87*
X0002687598Y0000100511D03*
D88*
X0002987598Y0001813307D03*
X0002987598Y0001714881D03*
X0002987598Y0001616456D03*
D89*
X0003337598Y0000093307D03*
D90*
X0002837598Y0000093307D03*
D91*
X0003637598Y0000363307D03*
X0003637598Y0000163307D03*
D92*
X0002887598Y0001211732D03*
D93*
X0002887598Y0001011732D03*
D92*
X0002887598Y0001511732D03*
D93*
X0002887598Y0001311732D03*
D94*
X0003487598Y0000813307D03*
X0003586023Y0000813307D03*
X0003687598Y0000663307D03*
X0003687598Y0000564881D03*
X0002987598Y0001213307D03*
X0002987598Y0001311732D03*
D95*
X0003487598Y0000613307D03*
X0003487598Y0000663307D03*
D96*
X0003487598Y0000563307D03*
D94*
X0002987598Y0001413307D03*
X0002987598Y0001511732D03*
X0002887598Y0000913307D03*
X0002887598Y0000814881D03*
D92*
X0003089173Y0000713307D03*
D93*
X0003289173Y0000713307D03*
D94*
X0003537598Y0001913307D03*
X0003537598Y0002011732D03*
D92*
X0003639173Y0002013307D03*
D93*
X0003839173Y0002013307D03*
D92*
X0003836023Y0001913307D03*
D93*
X0003636023Y0001913307D03*
D79*
X0003557677Y0001532204D03*
X0003557677Y0001632204D03*
D80*
X0003557677Y0001732204D03*
D79*
X0003557677Y0000941653D03*
X0003557677Y0001041653D03*
D80*
X0003557677Y0001141653D03*
D92*
X0003286023Y0000613307D03*
D93*
X0003086023Y0000613307D03*
D92*
X0003286023Y0000513307D03*
D93*
X0003086023Y0000513307D03*
D92*
X0002987598Y0001914881D03*
D93*
X0002987598Y0002114881D03*
D94*
X0003537598Y0001238307D03*
X0003837598Y0001238307D03*
X0003537598Y0001338307D03*
X0003837598Y0001338307D03*
D92*
X0003836023Y0001438307D03*
D93*
X0003636023Y0001438307D03*
D82*
X0003187598Y0001913307D03*
D83*
X0003287598Y0001913307D03*
X0003187598Y0001813307D03*
X0003287598Y0001813307D03*
X0003187598Y0001713307D03*
X0003287598Y0001713307D03*
D97*
X0002687598Y0001638307D03*
D98*
X0002687598Y0001589094D03*
D97*
X0002687598Y0001188307D03*
D98*
X0002687598Y0001139094D03*
X0002687598Y0001089881D03*
X0002687598Y0001040669D03*
D97*
X0002687598Y0001413307D03*
D98*
X0002687598Y0001364094D03*
D97*
X0002687598Y0002313307D03*
D98*
X0002687598Y0002264094D03*
D97*
X0002687598Y0001863307D03*
D98*
X0002687598Y0001814094D03*
D97*
X0002687598Y0000863307D03*
D98*
X0002687598Y0000814094D03*
X0002687598Y0000764881D03*
D99*
X0003187598Y0001343307D03*
X0003327598Y0002143307D03*
X0003787598Y0001483307D03*
X0002877598Y0001823307D03*
D100*
X0003187598Y0000913307D02*
X0003087598Y0000813307D01*
X0003187598Y0001013307D02*
X0003187598Y0000913307D01*
X0003187598Y0001343307D02*
X0003187598Y0001013307D01*
X0003089173Y0000713307D02*
X0003089173Y0000811732D01*
X0003089173Y0000811732D02*
X0003087598Y0000813307D01*
X0002887598Y0000814881D02*
X0002889173Y0000814881D01*
X0002889173Y0000814881D02*
X0002937598Y0000863307D01*
X0002937598Y0000863307D02*
X0003037598Y0000863307D01*
X0003037598Y0000863307D02*
X0003087598Y0000813307D01*
D101*
X0003687598Y0000564881D02*
X0003687598Y0000413307D01*
X0003687598Y0000413307D02*
X0003637598Y0000363307D01*
X0002967598Y0002193307D02*
X0002787598Y0002193307D01*
X0002787598Y0002193307D02*
X0002707598Y0002113307D01*
X0003832559Y0002223307D02*
X0003832559Y0002338346D01*
X0003832559Y0002338346D02*
X0003772598Y0002398307D01*
X0003832559Y0001633307D02*
X0003832559Y0001808346D01*
X0003832559Y0002078267D02*
X0003832559Y0002223307D01*
X0003787598Y0002033307D02*
X0003832559Y0002078267D01*
X0003787598Y0001853307D02*
X0003787598Y0002033307D01*
X0003832559Y0001808346D02*
X0003787598Y0001853307D01*
X0003836023Y0001438307D02*
X0003836023Y0001629842D01*
X0003836023Y0001629842D02*
X0003832559Y0001633307D01*
D100*
X0003832559Y0001043307D02*
X0003832559Y0001088346D01*
X0003757598Y0001258307D02*
X0003837598Y0001338307D01*
X0003757598Y0001163307D02*
X0003757598Y0001258307D01*
X0003832559Y0001088346D02*
X0003757598Y0001163307D01*
D102*
X0003832007Y0002222755D02*
X0003832559Y0002223307D01*
D101*
X0002967598Y0002193307D02*
X0003297598Y0002193307D01*
X0002976023Y0001714881D02*
X0002917598Y0001773307D01*
X0002917598Y0001773307D02*
X0002917598Y0001933307D01*
X0002917598Y0001933307D02*
X0002957598Y0001973307D01*
X0002957598Y0001973307D02*
X0002957598Y0002053307D01*
X0002957598Y0002053307D02*
X0002922598Y0002088307D01*
X0002922598Y0002088307D02*
X0002922598Y0002148307D01*
X0002922598Y0002148307D02*
X0002967598Y0002193307D01*
X0003297598Y0002193307D02*
X0003467598Y0002363307D01*
X0003537598Y0002011732D02*
X0003519173Y0002011732D01*
X0003519173Y0002011732D02*
X0003487598Y0002043307D01*
X0003487598Y0002203307D02*
X0003507598Y0002223307D01*
X0003487598Y0002043307D02*
X0003487598Y0002203307D01*
X0003717598Y0002398307D02*
X0003772598Y0002398307D01*
X0003582598Y0002398307D02*
X0003502598Y0002398307D01*
X0003717598Y0002398307D02*
X0003582598Y0002398307D01*
X0003502598Y0002398307D02*
X0003467598Y0002363307D01*
X0003467598Y0002363307D02*
X0003467598Y0002263307D01*
X0003467598Y0002263307D02*
X0003507598Y0002223307D01*
X0003507598Y0002223307D02*
X0003508149Y0002222755D01*
X0003557677Y0002222755D02*
X0003508149Y0002222755D01*
X0003586023Y0000813307D02*
X0003586023Y0000814881D01*
X0003586023Y0000814881D02*
X0003487598Y0000913307D01*
X0003487598Y0000988307D02*
X0003540944Y0001041653D01*
X0003487598Y0000913307D02*
X0003487598Y0000988307D01*
X0003540944Y0001041653D02*
X0003557677Y0001041653D01*
X0003537598Y0002011732D02*
X0003556023Y0002011732D01*
X0003387598Y0001413307D02*
X0003417598Y0001413307D01*
X0003417598Y0001413307D02*
X0003457598Y0001453307D01*
X0003506496Y0001632204D02*
X0003557677Y0001632204D01*
X0003457598Y0001583307D02*
X0003506496Y0001632204D01*
X0003457598Y0001453307D02*
X0003457598Y0001583307D01*
X0003557677Y0001041653D02*
X0003509251Y0001041653D01*
X0003509251Y0001041653D02*
X0003457598Y0001093307D01*
X0003457598Y0001093307D02*
X0003457598Y0001373307D01*
X0003457598Y0001373307D02*
X0003417598Y0001413307D01*
X0003586023Y0000813307D02*
X0003587598Y0000813307D01*
X0003487598Y0000563307D02*
X0003537598Y0000563307D01*
X0003586023Y0000611732D02*
X0003586023Y0000813307D01*
X0003537598Y0000563307D02*
X0003586023Y0000611732D01*
X0003487598Y0000563307D02*
X0003686023Y0000563307D01*
X0003686023Y0000563307D02*
X0003687598Y0000564881D01*
X0003837598Y0001338307D02*
X0003837598Y0001436732D01*
X0003837598Y0001436732D02*
X0003836023Y0001438307D01*
X0002987598Y0001714881D02*
X0002976023Y0001714881D01*
X0002987598Y0000613307D02*
X0002987598Y0000713307D01*
X0003087598Y0001513307D02*
X0003157598Y0001513307D01*
X0003157598Y0001513307D02*
X0003287598Y0001643307D01*
X0003287598Y0001643307D02*
X0003287598Y0001713307D01*
X0002987598Y0000713307D02*
X0002847598Y0000713307D01*
X0002847598Y0000713307D02*
X0002782598Y0000778307D01*
X0002782598Y0000778307D02*
X0002782598Y0001368307D01*
X0002782598Y0001368307D02*
X0002872598Y0001458307D01*
X0002872598Y0001458307D02*
X0002934173Y0001458307D01*
X0002934173Y0001458307D02*
X0002987598Y0001511732D01*
X0003836023Y0001438307D02*
X0003836023Y0001446732D01*
X0002987598Y0001511732D02*
X0002984173Y0001511732D01*
X0002984173Y0001511732D02*
X0002912598Y0001583307D01*
X0002912598Y0001639881D02*
X0002987598Y0001714881D01*
X0002912598Y0001583307D02*
X0002912598Y0001639881D01*
X0003087598Y0001513307D02*
X0002989173Y0001513307D01*
X0002989173Y0001513307D02*
X0002987598Y0001511732D01*
D100*
X0003537598Y0001913307D02*
X0003487598Y0001913307D01*
X0003357598Y0002173307D02*
X0003327598Y0002143307D01*
X0003427598Y0002173307D02*
X0003357598Y0002173307D01*
X0003447598Y0002153307D02*
X0003427598Y0002173307D01*
X0003447598Y0001953307D02*
X0003447598Y0002153307D01*
X0003487598Y0001913307D02*
X0003447598Y0001953307D01*
X0003086023Y0000613307D02*
X0003112598Y0000613307D01*
X0003112598Y0000613307D02*
X0003227598Y0000728307D01*
X0003227598Y0001053307D02*
X0003387598Y0001213307D01*
X0003227598Y0000728307D02*
X0003227598Y0001053307D01*
X0002687598Y0000863307D02*
X0002692598Y0000863307D01*
X0002692598Y0000863307D02*
X0002752598Y0000803307D01*
X0002752598Y0000803307D02*
X0002752598Y0000733307D01*
X0002752598Y0000733307D02*
X0002922598Y0000563307D01*
X0002922598Y0000563307D02*
X0003036023Y0000563307D01*
X0003036023Y0000563307D02*
X0003086023Y0000613307D01*
X0003787598Y0001483307D02*
X0003742598Y0001438307D01*
X0003636023Y0001438307D02*
X0003742598Y0001438307D01*
X0003187598Y0001813307D02*
X0003187598Y0001823307D01*
X0003187598Y0001823307D02*
X0003147598Y0001863307D01*
X0003039173Y0001863307D02*
X0002987598Y0001914881D01*
X0003147598Y0001863307D02*
X0003039173Y0001863307D01*
X0003387598Y0001713307D02*
X0003387598Y0001728307D01*
X0003387598Y0001728307D02*
X0003352598Y0001763307D01*
X0003352598Y0001763307D02*
X0003237598Y0001763307D01*
X0003237598Y0001763307D02*
X0003187598Y0001813307D01*
X0003557677Y0000941653D02*
X0003565944Y0000941653D01*
D101*
X0003687598Y0000663307D02*
X0003687598Y0001053307D01*
X0003599251Y0001141653D02*
X0003557677Y0001141653D01*
X0003687598Y0001053307D02*
X0003599251Y0001141653D01*
X0003636023Y0001913307D02*
X0003637598Y0001913307D01*
X0003637598Y0001913307D02*
X0003697598Y0001973307D01*
X0003608149Y0002322755D02*
X0003557677Y0002322755D01*
X0003697598Y0002233307D02*
X0003608149Y0002322755D01*
X0003697598Y0001973307D02*
X0003697598Y0002233307D01*
X0003637598Y0001513307D02*
X0003637598Y0001652283D01*
X0003637598Y0001652283D02*
X0003616574Y0001673307D01*
X0003616574Y0001673307D02*
X0003557677Y0001732204D01*
X0003557677Y0001141653D02*
X0003612598Y0001196574D01*
X0003612598Y0001338307D02*
X0003612598Y0001196574D01*
X0003587598Y0001363307D02*
X0003612598Y0001338307D01*
X0003587598Y0001463307D02*
X0003587598Y0001363307D01*
X0003637598Y0001513307D02*
X0003587598Y0001463307D01*
D102*
X0003557677Y0002322755D02*
X0003568149Y0002322755D01*
D101*
X0003636023Y0001913307D02*
X0003647598Y0001913307D01*
X0003607598Y0001732204D02*
X0003626496Y0001732204D01*
X0003687598Y0001861732D02*
X0003636023Y0001913307D01*
X0003687598Y0001793307D02*
X0003687598Y0001861732D01*
X0003626496Y0001732204D02*
X0003687598Y0001793307D01*
X0003607598Y0001732204D02*
X0003557677Y0001732204D01*
X0003387598Y0001613307D02*
X0003438779Y0001613307D01*
X0003438779Y0001613307D02*
X0003557677Y0001732204D01*
X0003487598Y0000663307D02*
X0003339173Y0000663307D01*
X0003339173Y0000663307D02*
X0003289173Y0000713307D01*
D100*
X0003337598Y0001863307D02*
X0003472598Y0001863307D01*
X0003287598Y0001913307D02*
X0003337598Y0001863307D01*
X0003576023Y0001853307D02*
X0003636023Y0001913307D01*
X0003482598Y0001853307D02*
X0003576023Y0001853307D01*
X0003472598Y0001863307D02*
X0003482598Y0001853307D01*
D101*
X0003286023Y0000613307D02*
X0003286023Y0000710157D01*
X0003286023Y0000710157D02*
X0003289173Y0000713307D01*
X0002887598Y0001011732D02*
X0002866023Y0001011732D01*
X0002866023Y0001011732D02*
X0002817598Y0000963307D01*
X0002927598Y0000753307D02*
X0002987598Y0000813307D01*
X0002857598Y0000753307D02*
X0002927598Y0000753307D01*
X0002817598Y0000793307D02*
X0002857598Y0000753307D01*
X0002817598Y0000963307D02*
X0002817598Y0000793307D01*
X0002987598Y0001413307D02*
X0002877598Y0001413307D01*
X0002827598Y0001071732D02*
X0002887598Y0001011732D01*
X0002827598Y0001363307D02*
X0002827598Y0001071732D01*
X0002877598Y0001413307D02*
X0002827598Y0001363307D01*
X0003087598Y0001413307D02*
X0003137598Y0001413307D01*
X0003337598Y0001613307D02*
X0003387598Y0001613307D01*
X0003137598Y0001413307D02*
X0003337598Y0001613307D01*
X0002987598Y0001413307D02*
X0003087598Y0001413307D01*
X0003286023Y0000513307D02*
X0003286023Y0000613307D01*
D100*
X0003557677Y0001532204D02*
X0003566496Y0001532204D01*
X0003287598Y0001813307D02*
X0003277598Y0001813307D01*
X0003277598Y0001813307D02*
X0003237598Y0001853307D01*
X0003237598Y0001853307D02*
X0003237598Y0001943307D01*
X0003237598Y0001943307D02*
X0003262598Y0001968307D01*
X0003262598Y0001968307D02*
X0003332598Y0001968307D01*
X0003332598Y0001968307D02*
X0003387598Y0001913307D01*
D102*
X0003557677Y0002122755D02*
X0003567047Y0002122755D01*
D100*
X0002887598Y0000913307D02*
X0002887598Y0000918307D01*
X0002887598Y0000918307D02*
X0002932598Y0000963307D01*
X0002932598Y0000963307D02*
X0002932598Y0001058307D01*
X0002932598Y0001058307D02*
X0002987598Y0001113307D01*
X0002717598Y0001413307D02*
X0002687598Y0001413307D01*
X0002767598Y0001463307D02*
X0002717598Y0001413307D01*
X0002767598Y0001713307D02*
X0002767598Y0001463307D01*
X0002877598Y0001823307D02*
X0002767598Y0001713307D01*
X0003086023Y0000513307D02*
X0002927598Y0000513307D01*
X0002727598Y0000774094D02*
X0002687598Y0000814094D01*
X0002727598Y0000713307D02*
X0002727598Y0000774094D01*
X0002927598Y0000513307D02*
X0002727598Y0000713307D01*
D101*
X0002647598Y0000628307D02*
X0002647598Y0000743307D01*
X0002647598Y0000743307D02*
X0002647598Y0001323307D01*
X0002647598Y0000628307D02*
X0002687598Y0000588307D01*
D103*
X0002687598Y0000588307D02*
X0002726771Y0000588307D01*
X0002726771Y0000588307D02*
X0002837598Y0000477480D01*
D101*
X0002647598Y0001323307D02*
X0002647598Y0001549094D01*
X0002647598Y0001549094D02*
X0002687598Y0001589094D01*
X0002647598Y0001323307D02*
X0002647598Y0001324094D01*
D100*
X0003837598Y0001238307D02*
X0003837598Y0001233307D01*
D103*
X0003337598Y0000093307D02*
X0003221771Y0000093307D01*
X0003221771Y0000093307D02*
X0002837598Y0000477480D01*
M02*