%MOIN*%
%OFA0B0*%
%FSLAX46Y46*%
%IPPOS*%
%LPD*%
%ADD10C,0.0039370078740157488*%
%ADD11C,0.005905511811023622*%
%ADD12C,0.011811023622047244*%
%ADD13C,0.0047244094488188976*%
%ADD14C,0.031496062992125991*%
%ADD15C,0.00984251968503937*%
%ADD16C,0.00875*%
%ADD27C,0.0039370078740157488*%
%ADD28C,0.005905511811023622*%
%ADD29C,0.011811023622047244*%
%ADD30C,0.0047244094488188976*%
%ADD31C,0.031496062992125991*%
%ADD32C,0.00984251968503937*%
%ADD33C,0.00875*%
%ADD34C,0.0039370078740157488*%
%ADD35C,0.005905511811023622*%
%ADD36C,0.011811023622047244*%
%ADD37C,0.0047244094488188976*%
%ADD38C,0.031496062992125991*%
%ADD39C,0.00984251968503937*%
%ADD40C,0.00875*%
G01*
D10*
D11*
X0001256377Y0002768858D02*
X0001256377Y0002758858D01*
X0001256377Y0002848858D02*
X0001256377Y0002768858D01*
X0001997125Y0002884861D02*
X0001998625Y0002881861D01*
X0001998625Y0002877362D01*
X0001997125Y0002872862D01*
X0001994126Y0002869863D01*
X0001991126Y0002868363D01*
X0001985127Y0002866863D01*
X0001980627Y0002866863D01*
X0001974628Y0002868363D01*
X0001971629Y0002869863D01*
X0001968629Y0002872862D01*
X0001967129Y0002877362D01*
X0001967129Y0002880361D01*
X0001968629Y0002884861D01*
X0001970129Y0002886361D01*
X0001980627Y0002886361D01*
X0001980627Y0002880361D01*
X0001967129Y0002899859D02*
X0001998625Y0002899859D01*
X0001967129Y0002917857D01*
X0001998625Y0002917857D01*
X0001967129Y0002932855D02*
X0001998625Y0002932855D01*
X0001998625Y0002940354D01*
X0001997125Y0002944853D01*
X0001994126Y0002947853D01*
X0001991126Y0002949353D01*
X0001985127Y0002950853D01*
X0001980627Y0002950853D01*
X0001974628Y0002949353D01*
X0001971629Y0002947853D01*
X0001968629Y0002944853D01*
X0001967129Y0002940354D01*
X0001967129Y0002932855D01*
D12*
X0002453880Y0002663076D02*
X0002498875Y0002663076D01*
X0002173880Y0002563076D02*
X0002218875Y0002563076D01*
X0002196377Y0002585573D02*
X0002196377Y0002540579D01*
D11*
X0000981377Y0002883858D02*
X0000931377Y0002833858D01*
D12*
X0001412684Y0003737452D02*
X0001410223Y0003734639D01*
X0001404950Y0003731827D01*
X0001399326Y0003731827D01*
X0001393350Y0003734639D01*
X0001390186Y0003737452D01*
X0001386671Y0003743076D01*
X0001385968Y0003748700D01*
X0001388077Y0003754325D01*
X0001390538Y0003757137D01*
X0001395811Y0003759949D01*
X0001401435Y0003759949D01*
X0001407411Y0003757137D01*
X0001410575Y0003754325D01*
X0001413387Y0003731827D02*
X0001410575Y0003754325D01*
X0001413035Y0003757137D01*
X0001415847Y0003757137D01*
X0001421823Y0003754325D01*
X0001425338Y0003748700D01*
X0001427096Y0003734639D01*
X0001422526Y0003726203D01*
X0001414793Y0003720579D01*
X0001403896Y0003717767D01*
X0001392296Y0003720579D01*
X0001383156Y0003726203D01*
X0001376477Y0003734639D01*
X0001372259Y0003745888D01*
X0001373665Y0003757137D01*
X0001378235Y0003765573D01*
X0001385968Y0003771197D01*
X0001396865Y0003774010D01*
X0001408465Y0003771197D01*
X0001417605Y0003765573D01*
X0001447484Y0003706518D02*
X0001481230Y0003706518D01*
X0001456975Y0003765573D02*
X0001464357Y0003706518D01*
X0001493533Y0003765573D02*
X0001500915Y0003706518D01*
X0001518842Y0003765573D02*
X0001522709Y0003734639D01*
X0001520600Y0003729015D01*
X0001515327Y0003726203D01*
X0001506891Y0003726203D01*
X0001500915Y0003729015D01*
X0001497751Y0003731827D01*
X0001569812Y0003762761D02*
X0001563837Y0003765573D01*
X0001552588Y0003765573D01*
X0001547315Y0003762761D01*
X0001545206Y0003757137D01*
X0001548018Y0003734639D01*
X0001551533Y0003729015D01*
X0001557509Y0003726203D01*
X0001568758Y0003726203D01*
X0001574031Y0003729015D01*
X0001576140Y0003734639D01*
X0001575437Y0003740264D01*
X0001546612Y0003745888D01*
X0001597582Y0003765573D02*
X0001604964Y0003706518D01*
X0001619377Y0003748700D01*
X0001644334Y0003706518D01*
X0001636952Y0003765573D01*
X0001690383Y0003765573D02*
X0001694250Y0003734640D01*
X0001692141Y0003729015D01*
X0001686868Y0003726203D01*
X0001675620Y0003726203D01*
X0001669644Y0003729015D01*
X0001690735Y0003762761D02*
X0001684759Y0003765573D01*
X0001670698Y0003765573D01*
X0001665425Y0003762761D01*
X0001663316Y0003757137D01*
X0001664019Y0003751512D01*
X0001667535Y0003745888D01*
X0001673510Y0003743076D01*
X0001687571Y0003743076D01*
X0001693547Y0003740264D01*
X0001718505Y0003765573D02*
X0001725887Y0003706518D01*
X0001726941Y0003743076D02*
X0001741002Y0003765573D01*
X0001745923Y0003726203D02*
X0001720614Y0003748700D01*
X0001789160Y0003762761D02*
X0001783184Y0003765573D01*
X0001771936Y0003765573D01*
X0001766663Y0003762761D01*
X0001764554Y0003757137D01*
X0001767366Y0003734640D01*
X0001770881Y0003729015D01*
X0001776857Y0003726203D01*
X0001788105Y0003726203D01*
X0001793378Y0003729015D01*
X0001795487Y0003734640D01*
X0001794784Y0003740264D01*
X0001765960Y0003745888D01*
X0001816930Y0003765573D02*
X0001821851Y0003726203D01*
X0001820445Y0003737452D02*
X0001823960Y0003731827D01*
X0001827124Y0003729015D01*
X0001833100Y0003726203D01*
X0001838724Y0003726203D01*
X0001851027Y0003762761D02*
X0001856300Y0003765573D01*
X0001867549Y0003765573D01*
X0001873524Y0003762761D01*
X0001877040Y0003757137D01*
X0001877391Y0003754325D01*
X0001875282Y0003748700D01*
X0001870009Y0003745888D01*
X0001861573Y0003745888D01*
X0001856300Y0003743076D01*
X0001854191Y0003737452D01*
X0001854542Y0003734640D01*
X0001858058Y0003729015D01*
X0001864033Y0003726203D01*
X0001872470Y0003726203D01*
X0001877743Y0003729015D01*
X0001924846Y0003734640D02*
X0001932931Y0003737452D01*
X0001935392Y0003740264D01*
X0001937501Y0003745888D01*
X0001936446Y0003754325D01*
X0001932931Y0003759949D01*
X0001929767Y0003762761D01*
X0001923792Y0003765573D01*
X0001901294Y0003765573D01*
X0001908676Y0003706518D01*
X0001928361Y0003706518D01*
X0001933634Y0003709330D01*
X0001936095Y0003712142D01*
X0001938204Y0003717767D01*
X0001937501Y0003723391D01*
X0001933986Y0003729015D01*
X0001930822Y0003731827D01*
X0001924846Y0003734640D01*
X0001905161Y0003734640D01*
X0001968786Y0003765573D02*
X0001963513Y0003762761D01*
X0001961053Y0003759949D01*
X0001958943Y0003754325D01*
X0001961053Y0003737452D01*
X0001964568Y0003731827D01*
X0001967731Y0003729015D01*
X0001973707Y0003726203D01*
X0001982144Y0003726203D01*
X0001987416Y0003729015D01*
X0001989877Y0003731827D01*
X0001991986Y0003737452D01*
X0001989877Y0003754325D01*
X0001986362Y0003759949D01*
X0001983198Y0003762761D01*
X0001977222Y0003765573D01*
X0001968786Y0003765573D01*
X0002008156Y0003765573D02*
X0002044011Y0003726203D01*
X0002013077Y0003726203D02*
X0002039090Y0003765573D01*
X0002103880Y0002663076D02*
X0002148875Y0002663076D01*
X0001823880Y0002563076D02*
X0001868875Y0002563076D01*
X0001846377Y0002585573D02*
X0001846377Y0002540579D01*
D13*
X0001920157Y0002817913D02*
X0002392598Y0002817913D01*
X0002392598Y0002699803D02*
X0001920157Y0002699803D01*
X0001920157Y0002817913D02*
X0001920157Y0002699803D01*
X0002392598Y0002699803D02*
X0002392598Y0002817913D01*
X0001356377Y0002958858D02*
X0001356377Y0002858858D01*
X0001356377Y0002858858D02*
X0001956377Y0002858858D01*
X0001956377Y0002858858D02*
X0001956377Y0002958858D01*
X0001956377Y0002958858D02*
X0001356377Y0002958858D01*
X0001758740Y0003198228D02*
G75*
G03X0001758740Y0003119488J-0000039370D01*
G01*
X0001758740Y0003119488D02*
X0001758740Y0003054527D01*
X0001758740Y0003054527D02*
X0000354015Y0003054527D01*
X0000354015Y0003054527D02*
X0000354015Y0003263188D01*
X0000354015Y0003263188D02*
X0001758740Y0003263188D01*
X0001758740Y0003263188D02*
X0001758740Y0003198228D01*
X0001987500Y0002573811D02*
G75*
G03X0001987480Y0002643937I-0000056122J0000035046D01*
G01*
X0001896342Y0002552741D02*
G75*
G03X0001965472Y0002552165I0000035035J0000056116D01*
G01*
X0001875261Y0002643893D02*
G75*
G03X0001874685Y0002574763I0000056116J-0000035035D01*
G01*
X0002316427Y0002664949D02*
G75*
G03X0002281377Y0002675000I-0000035049J-0000056091D01*
G01*
X0002337500Y0002573811D02*
G75*
G03X0002337480Y0002643937I-0000056122J0000035046D01*
G01*
X0002225261Y0002643893D02*
G75*
G03X0002224685Y0002574763I0000056116J-0000035035D01*
G01*
X0002282506Y0002675003D02*
G75*
G03X0002247283Y0002665551I-0000001128J-0000066145D01*
G01*
X0002469370Y0002566771D02*
X0002464291Y0002571811D01*
X0002380787Y0002655354D02*
X0002377086Y0002659015D01*
X0002461299Y0002558661D02*
X0002457598Y0002562362D01*
X0002374094Y0002645905D02*
X0002369015Y0002650944D01*
X0000716220Y0002851771D02*
X0000893385Y0002851771D01*
X0000716220Y0002965944D02*
G75*
G03X0000716220Y0002851771J-0000057086D01*
G01*
X0000893385Y0002965944D02*
G75*
G02X0000893385Y0002851771J-0000057086D01*
G01*
D14*
X0002367322Y0003136811D02*
X0002485433Y0003136811D01*
D13*
X0002353149Y0003160826D02*
X0002499606Y0003160826D01*
X0002499606Y0003160826D02*
X0002499606Y0002856889D01*
X0002499606Y0002856889D02*
X0002353149Y0002856889D01*
X0002353149Y0002856889D02*
X0002353149Y0003160826D01*
X0002426377Y0003204527D02*
X0002426377Y0003160826D01*
X0002426377Y0002813188D02*
X0002426377Y0002856889D01*
X0002353149Y0003113582D02*
X0002499606Y0003113582D01*
D11*
X0002022925Y0003558858D02*
G75*
G03X0002022925Y0003558858I0000233452D01*
G01*
D13*
X0001334724Y0002774999D02*
X0001481181Y0002774999D01*
X0001334724Y0002842716D02*
X0001481181Y0002842716D01*
X0001034724Y0002774999D02*
X0001181181Y0002774999D01*
X0001034724Y0002842716D02*
X0001181181Y0002842716D01*
X0001757952Y0003357283D02*
X0001757952Y0003558858D01*
X0001654803Y0003357283D02*
X0001654803Y0003558858D01*
X0001757952Y0003357283D02*
X0001654803Y0003357283D01*
X0001757952Y0003558858D02*
X0001654803Y0003558858D01*
X0001804803Y0003557283D02*
X0002006377Y0003557283D01*
X0001804803Y0003660433D02*
X0002006377Y0003660433D01*
X0001804803Y0003557283D02*
X0001804803Y0003660433D01*
X0002006377Y0003557283D02*
X0002006377Y0003660433D01*
X0001326456Y0002952559D02*
X0001187873Y0002952559D01*
X0001326456Y0002865157D02*
X0001187873Y0002865157D01*
X0001326456Y0002952559D02*
X0001326456Y0002948070D01*
X0001326456Y0002869645D02*
X0001326456Y0002865157D01*
X0001187873Y0002952559D02*
X0001187873Y0002948070D01*
X0001187873Y0002869645D02*
X0001187873Y0002865157D01*
X0001977244Y0003336023D02*
X0001835511Y0003336023D01*
X0001978758Y0003336477D02*
G75*
G03X0001906377Y0003511220I-0000072381J0000072380D01*
G01*
X0001833996Y0003336477D02*
G75*
G02X0001906377Y0003511220I0000072380J0000072381D01*
G01*
X0001126456Y0002952559D02*
X0000987873Y0002952559D01*
X0001126456Y0002865157D02*
X0000987873Y0002865157D01*
X0001126456Y0002952559D02*
X0001126456Y0002948070D01*
X0001126456Y0002869645D02*
X0001126456Y0002865157D01*
X0000987873Y0002952559D02*
X0000987873Y0002948070D01*
X0000987873Y0002869645D02*
X0000987873Y0002865157D01*
X0001586299Y0002765157D02*
X0001724881Y0002765157D01*
X0001586299Y0002852559D02*
X0001724881Y0002852559D01*
X0001586299Y0002765157D02*
X0001586299Y0002769645D01*
X0001586299Y0002848070D02*
X0001586299Y0002852559D01*
X0001724881Y0002765157D02*
X0001724881Y0002769645D01*
X0001724881Y0002848070D02*
X0001724881Y0002852559D01*
X0001840236Y0003037204D02*
X0001840236Y0003183661D01*
X0001772519Y0003037204D02*
X0001772519Y0003183661D01*
X0000626456Y0003502559D02*
X0000487873Y0003502559D01*
X0000626456Y0003415157D02*
X0000487873Y0003415157D01*
X0000626456Y0003502559D02*
X0000626456Y0003498070D01*
X0000626456Y0003419645D02*
X0000626456Y0003415157D01*
X0000487873Y0003502559D02*
X0000487873Y0003498070D01*
X0000487873Y0003419645D02*
X0000487873Y0003415157D01*
X0000540236Y0003587204D02*
X0000540236Y0003733661D01*
X0000472519Y0003587204D02*
X0000472519Y0003733661D01*
X0000572519Y0003730511D02*
X0000572519Y0003584055D01*
X0000640236Y0003730511D02*
X0000640236Y0003584055D01*
X0001872519Y0003180511D02*
X0001872519Y0003034055D01*
X0001940236Y0003180511D02*
X0001940236Y0003034055D01*
X0001972519Y0003180511D02*
X0001972519Y0003034055D01*
X0002040236Y0003180511D02*
X0002040236Y0003034055D01*
X0000578031Y0002942716D02*
X0000431574Y0002942716D01*
X0000578031Y0002874999D02*
X0000431574Y0002874999D01*
D10*
X0001281377Y0003710826D02*
X0001281377Y0003746259D01*
X0001281377Y0003506102D02*
X0001281377Y0003478543D01*
X0001249881Y0003506102D02*
X0001312873Y0003506102D01*
X0001312873Y0003506102D02*
X0001312873Y0003710826D01*
X0001312873Y0003710826D02*
X0001249881Y0003710826D01*
X0001249881Y0003710826D02*
X0001249881Y0003506102D01*
X0001181377Y0003710826D02*
X0001181377Y0003746259D01*
X0001181377Y0003506102D02*
X0001181377Y0003478543D01*
X0001149881Y0003506102D02*
X0001212873Y0003506102D01*
X0001212873Y0003506102D02*
X0001212873Y0003710826D01*
X0001212873Y0003710826D02*
X0001149881Y0003710826D01*
X0001149881Y0003710826D02*
X0001149881Y0003506102D01*
D13*
X0001047519Y0003730511D02*
X0001047519Y0003584055D01*
X0001115236Y0003730511D02*
X0001115236Y0003584055D01*
X0002342204Y0003020669D02*
X0002342204Y0002961614D01*
X0002342204Y0002961614D02*
X0002331574Y0002961614D01*
X0002331574Y0002961614D02*
X0002331574Y0002850196D01*
X0002070551Y0003020669D02*
X0002070551Y0002961614D01*
X0002070551Y0002961614D02*
X0002081181Y0002961614D01*
X0002081181Y0002961614D02*
X0002081181Y0002918307D01*
D11*
X0000466379Y0002586670D02*
X0000496376Y0002586670D01*
X0000481377Y0002601668D02*
X0000481377Y0002571672D01*
X0002116383Y0002776668D02*
X0002116383Y0002737298D01*
X0002131381Y0002737298D01*
X0002135131Y0002739173D01*
X0002137005Y0002741047D01*
X0002138880Y0002744797D01*
X0002138880Y0002750421D01*
X0002137005Y0002754171D01*
X0002135131Y0002756046D01*
X0002131381Y0002757920D01*
X0002116383Y0002757920D01*
X0002150129Y0002737298D02*
X0002172626Y0002737298D01*
X0002161377Y0002776668D02*
X0002161377Y0002737298D01*
X0002208247Y0002772919D02*
X0002206372Y0002774793D01*
X0002200748Y0002776668D01*
X0002196998Y0002776668D01*
X0002191374Y0002774793D01*
X0002187624Y0002771044D01*
X0002185749Y0002767294D01*
X0002183875Y0002759795D01*
X0002183875Y0002754171D01*
X0002185749Y0002746672D01*
X0002187624Y0002742922D01*
X0002191374Y0002739173D01*
X0002196998Y0002737298D01*
X0002200748Y0002737298D01*
X0002206372Y0002739173D01*
X0002208247Y0002741047D01*
D15*
X0001782746Y0002825815D02*
X0001766342Y0002825815D01*
X0001766342Y0002851593D02*
X0001766342Y0002802380D01*
X0001789776Y0002802380D01*
X0001801494Y0002802380D02*
X0001829615Y0002802380D01*
X0001815554Y0002851593D02*
X0001815554Y0002802380D01*
X0001846019Y0002851593D02*
X0001846019Y0002802380D01*
X0001857737Y0002802380D01*
X0001864767Y0002804724D01*
X0001869454Y0002809411D01*
X0001871797Y0002814098D01*
X0001874141Y0002823472D01*
X0001874141Y0002830502D01*
X0001871797Y0002839876D01*
X0001869454Y0002844563D01*
X0001864767Y0002849250D01*
X0001857737Y0002851593D01*
X0001846019Y0002851593D01*
X0001895232Y0002851593D02*
X0001895232Y0002802380D01*
D11*
X0001681381Y0003207298D02*
X0001681381Y0003239169D01*
X0001683256Y0003242918D01*
X0001685131Y0003244793D01*
X0001688880Y0003246668D01*
X0001696379Y0003246668D01*
X0001700129Y0003244793D01*
X0001702004Y0003242919D01*
X0001703878Y0003239169D01*
X0001703878Y0003207298D01*
X0001741374Y0003207298D02*
X0001722626Y0003207298D01*
X0001720751Y0003226046D01*
X0001722626Y0003224171D01*
X0001726376Y0003222296D01*
X0001735749Y0003222296D01*
X0001739499Y0003224171D01*
X0001741374Y0003226046D01*
X0001743248Y0003229795D01*
X0001743248Y0003239169D01*
X0001741374Y0003242919D01*
X0001739499Y0003244793D01*
X0001735749Y0003246668D01*
X0001726376Y0003246668D01*
X0001722626Y0003244793D01*
X0001720751Y0003242919D01*
X0001067033Y0003175419D02*
X0001085780Y0003175419D01*
X0001063283Y0003186668D02*
X0001076406Y0003147298D01*
X0001089530Y0003186668D01*
X0001097029Y0003147298D02*
X0001119526Y0003147298D01*
X0001108277Y0003186668D02*
X0001108277Y0003147298D01*
X0001132649Y0003186668D02*
X0001132649Y0003147298D01*
X0001145773Y0003175419D01*
X0001158896Y0003147298D01*
X0001158896Y0003186668D01*
X0001177644Y0003166046D02*
X0001190767Y0003166046D01*
X0001196392Y0003186668D02*
X0001177644Y0003186668D01*
X0001177644Y0003147298D01*
X0001196392Y0003147298D01*
X0001233887Y0003149173D02*
X0001230137Y0003147298D01*
X0001224513Y0003147298D01*
X0001218889Y0003149173D01*
X0001215139Y0003152922D01*
X0001213264Y0003156672D01*
X0001211390Y0003164171D01*
X0001211390Y0003169795D01*
X0001213264Y0003177294D01*
X0001215139Y0003181044D01*
X0001218889Y0003184793D01*
X0001224513Y0003186668D01*
X0001228263Y0003186668D01*
X0001233887Y0003184793D01*
X0001235762Y0003182918D01*
X0001235762Y0003169795D01*
X0001228263Y0003169795D01*
X0001250760Y0003175419D02*
X0001269507Y0003175419D01*
X0001247010Y0003186668D02*
X0001260134Y0003147298D01*
X0001273257Y0003186668D01*
X0001282631Y0003147298D02*
X0001307003Y0003147298D01*
X0001293879Y0003162296D01*
X0001299504Y0003162296D01*
X0001303253Y0003164171D01*
X0001305128Y0003166046D01*
X0001307003Y0003169795D01*
X0001307003Y0003179169D01*
X0001305128Y0003182918D01*
X0001303253Y0003184793D01*
X0001299504Y0003186668D01*
X0001288255Y0003186668D01*
X0001284505Y0003184793D01*
X0001282631Y0003182918D01*
X0001322001Y0003151047D02*
X0001323876Y0003149173D01*
X0001327625Y0003147298D01*
X0001336999Y0003147298D01*
X0001340748Y0003149173D01*
X0001342623Y0003151047D01*
X0001344498Y0003154797D01*
X0001344498Y0003158547D01*
X0001342623Y0003164171D01*
X0001320126Y0003186668D01*
X0001344498Y0003186668D01*
X0001366995Y0003164171D02*
X0001363246Y0003162296D01*
X0001361371Y0003160421D01*
X0001359496Y0003156672D01*
X0001359496Y0003154797D01*
X0001361371Y0003151047D01*
X0001363246Y0003149173D01*
X0001366995Y0003147298D01*
X0001374494Y0003147298D01*
X0001378244Y0003149173D01*
X0001380119Y0003151047D01*
X0001381993Y0003154797D01*
X0001381993Y0003156672D01*
X0001380119Y0003160421D01*
X0001378244Y0003162296D01*
X0001374494Y0003164171D01*
X0001366995Y0003164171D01*
X0001363246Y0003166046D01*
X0001361371Y0003167920D01*
X0001359496Y0003171670D01*
X0001359496Y0003179169D01*
X0001361371Y0003182918D01*
X0001363246Y0003184793D01*
X0001366995Y0003186668D01*
X0001374494Y0003186668D01*
X0001378244Y0003184793D01*
X0001380119Y0003182918D01*
X0001381993Y0003179169D01*
X0001381993Y0003171670D01*
X0001380119Y0003167920D01*
X0001378244Y0003166046D01*
X0001374494Y0003164171D01*
X0001398866Y0003186668D02*
X0001398866Y0003147298D01*
X0001413864Y0003147298D01*
X0001417614Y0003149173D01*
X0001419489Y0003151047D01*
X0001421363Y0003154797D01*
X0001421363Y0003160421D01*
X0001419489Y0003164171D01*
X0001417614Y0003166046D01*
X0001413864Y0003167920D01*
X0001398866Y0003167920D01*
X0001438236Y0003171670D02*
X0001468233Y0003171670D01*
X0001486980Y0003186668D02*
X0001486980Y0003147298D01*
X0001501978Y0003147298D01*
X0001505728Y0003149173D01*
X0001507603Y0003151047D01*
X0001509477Y0003154797D01*
X0001509477Y0003160421D01*
X0001507603Y0003164171D01*
X0001505728Y0003166046D01*
X0001501978Y0003167920D01*
X0001486980Y0003167920D01*
X0001526350Y0003147298D02*
X0001526350Y0003179169D01*
X0001528225Y0003182918D01*
X0001530100Y0003184793D01*
X0001533849Y0003186668D01*
X0001541348Y0003186668D01*
X0001545098Y0003184793D01*
X0001546973Y0003182918D01*
X0001548847Y0003179169D01*
X0001548847Y0003147298D01*
X0001897326Y0002516046D02*
X0001902950Y0002517920D01*
X0001904825Y0002519795D01*
X0001906700Y0002523545D01*
X0001906700Y0002529169D01*
X0001904825Y0002532919D01*
X0001902950Y0002534793D01*
X0001899201Y0002536668D01*
X0001884203Y0002536668D01*
X0001884203Y0002497298D01*
X0001897326Y0002497298D01*
X0001901076Y0002499173D01*
X0001902950Y0002501047D01*
X0001904825Y0002504797D01*
X0001904825Y0002508547D01*
X0001902950Y0002512296D01*
X0001901076Y0002514171D01*
X0001897326Y0002516046D01*
X0001884203Y0002516046D01*
X0001921698Y0002525419D02*
X0001940446Y0002525419D01*
X0001917948Y0002536668D02*
X0001931072Y0002497298D01*
X0001944195Y0002536668D01*
X0001951694Y0002497298D02*
X0001974191Y0002497298D01*
X0001962943Y0002536668D02*
X0001962943Y0002497298D01*
X0001981691Y0002497298D02*
X0002004188Y0002497298D01*
X0001992939Y0002536668D02*
X0001992939Y0002497298D01*
X0002007937Y0002540418D02*
X0002037934Y0002540418D01*
X0002047307Y0002536668D02*
X0002047307Y0002497298D01*
X0002066055Y0002536668D02*
X0002066055Y0002497298D01*
X0002088552Y0002536668D01*
X0002088552Y0002497298D01*
X0002188578Y0002516046D02*
X0002175455Y0002516046D01*
X0002175455Y0002536668D02*
X0002175455Y0002497298D01*
X0002194203Y0002497298D01*
X0002205451Y0002497298D02*
X0002214825Y0002536668D01*
X0002222324Y0002508547D01*
X0002229823Y0002536668D01*
X0002239197Y0002497298D01*
X0002244821Y0002540418D02*
X0002274818Y0002540418D01*
X0002284191Y0002536668D02*
X0002284191Y0002497298D01*
X0002297315Y0002525419D01*
X0002310438Y0002497298D01*
X0002310438Y0002536668D01*
X0002323562Y0002497298D02*
X0002346059Y0002497298D01*
X0002334810Y0002536668D02*
X0002334810Y0002497298D01*
X0002381679Y0002536668D02*
X0002368556Y0002517920D01*
X0002359182Y0002536668D02*
X0002359182Y0002497298D01*
X0002374180Y0002497298D01*
X0002377930Y0002499173D01*
X0002379805Y0002501047D01*
X0002381679Y0002504797D01*
X0002381679Y0002510421D01*
X0002379805Y0002514171D01*
X0002377930Y0002516046D01*
X0002374180Y0002517920D01*
X0002359182Y0002517920D01*
X0002396677Y0002534793D02*
X0002402302Y0002536668D01*
X0002411676Y0002536668D01*
X0002415425Y0002534793D01*
X0002417300Y0002532919D01*
X0002419175Y0002529169D01*
X0002419175Y0002525419D01*
X0002417300Y0002521670D01*
X0002415425Y0002519795D01*
X0002411676Y0002517920D01*
X0002404176Y0002516046D01*
X0002400427Y0002514171D01*
X0002398552Y0002512296D01*
X0002396677Y0002508547D01*
X0002396677Y0002504797D01*
X0002398552Y0002501047D01*
X0002400427Y0002499173D01*
X0002404176Y0002497298D01*
X0002413550Y0002497298D01*
X0002419175Y0002499173D01*
X0000755384Y0002973106D02*
X0000737386Y0002973106D01*
X0000746385Y0002973106D02*
X0000746385Y0002941610D01*
X0000743385Y0002946109D01*
X0000740386Y0002949109D01*
X0000737386Y0002950609D01*
X0000782380Y0002941610D02*
X0000776381Y0002941610D01*
X0000773382Y0002943110D01*
X0000771882Y0002944610D01*
X0000768882Y0002949109D01*
X0000767382Y0002955108D01*
X0000767382Y0002967107D01*
X0000768882Y0002970106D01*
X0000770382Y0002971606D01*
X0000773382Y0002973106D01*
X0000779381Y0002973106D01*
X0000782380Y0002971606D01*
X0000783880Y0002970106D01*
X0000785380Y0002967107D01*
X0000785380Y0002959608D01*
X0000783880Y0002956608D01*
X0000782380Y0002955108D01*
X0000779381Y0002953608D01*
X0000773382Y0002953608D01*
X0000770382Y0002955108D01*
X0000768882Y0002956608D01*
X0000767382Y0002959608D01*
X0000798878Y0002973106D02*
X0000798878Y0002941610D01*
X0000809377Y0002964107D01*
X0000819876Y0002941610D01*
X0000819876Y0002973106D01*
X0000834874Y0002973106D02*
X0000834874Y0002941610D01*
X0000848372Y0002973106D02*
X0000848372Y0002956608D01*
X0000846872Y0002953608D01*
X0000843873Y0002952109D01*
X0000839373Y0002952109D01*
X0000836374Y0002953608D01*
X0000834874Y0002955108D01*
X0000860371Y0002952109D02*
X0000876869Y0002952109D01*
X0000860371Y0002973106D01*
X0000876869Y0002973106D01*
X0002408567Y0002899493D02*
X0002408567Y0002876996D01*
X0002408567Y0002888245D02*
X0002447937Y0002888245D01*
X0002442313Y0002884495D01*
X0002438563Y0002880746D01*
X0002436689Y0002876996D01*
X0002408567Y0002916366D02*
X0002447937Y0002916366D01*
X0002408567Y0002938863D01*
X0002447937Y0002938863D01*
X0002447937Y0002976359D02*
X0002447937Y0002957611D01*
X0002429190Y0002955736D01*
X0002431064Y0002957611D01*
X0002432939Y0002961361D01*
X0002432939Y0002970734D01*
X0002431064Y0002974484D01*
X0002429190Y0002976359D01*
X0002425440Y0002978233D01*
X0002416066Y0002978233D01*
X0002412317Y0002976359D01*
X0002410442Y0002974484D01*
X0002408567Y0002970734D01*
X0002408567Y0002961361D01*
X0002410442Y0002957611D01*
X0002412317Y0002955736D01*
X0002434814Y0003011979D02*
X0002408567Y0003011979D01*
X0002449812Y0003002605D02*
X0002421690Y0002993232D01*
X0002421690Y0003017604D01*
X0002447937Y0003040101D02*
X0002447937Y0003043850D01*
X0002446062Y0003047600D01*
X0002444188Y0003049475D01*
X0002440438Y0003051349D01*
X0002432939Y0003053224D01*
X0002423565Y0003053224D01*
X0002416066Y0003051349D01*
X0002412317Y0003049475D01*
X0002410442Y0003047600D01*
X0002408567Y0003043850D01*
X0002408567Y0003040101D01*
X0002410442Y0003036351D01*
X0002412317Y0003034476D01*
X0002416066Y0003032602D01*
X0002423565Y0003030727D01*
X0002432939Y0003030727D01*
X0002440438Y0003032602D01*
X0002444188Y0003034476D01*
X0002446062Y0003036351D01*
X0002447937Y0003040101D01*
X0002408567Y0003090719D02*
X0002408567Y0003068222D01*
X0002408567Y0003079471D02*
X0002447937Y0003079471D01*
X0002442313Y0003075721D01*
X0002438563Y0003071972D01*
X0002436689Y0003068222D01*
D16*
X0002159711Y0003493024D02*
X0002164711Y0003494691D01*
X0002173044Y0003494691D01*
X0002176377Y0003493024D01*
X0002178044Y0003491358D01*
X0002179711Y0003488024D01*
X0002179711Y0003484691D01*
X0002178044Y0003481358D01*
X0002176377Y0003479691D01*
X0002173044Y0003478024D01*
X0002166377Y0003476358D01*
X0002163044Y0003474691D01*
X0002161377Y0003473024D01*
X0002159711Y0003469691D01*
X0002159711Y0003466358D01*
X0002161377Y0003463024D01*
X0002163044Y0003461358D01*
X0002166377Y0003459691D01*
X0002174711Y0003459691D01*
X0002179711Y0003461358D01*
X0002194711Y0003471358D02*
X0002194711Y0003506358D01*
X0002194711Y0003473024D02*
X0002198044Y0003471358D01*
X0002204711Y0003471358D01*
X0002208044Y0003473024D01*
X0002209711Y0003474691D01*
X0002211377Y0003478024D01*
X0002211377Y0003488024D01*
X0002209711Y0003491358D01*
X0002208044Y0003493024D01*
X0002204711Y0003494691D01*
X0002198044Y0003494691D01*
X0002194711Y0003493024D01*
X0002239711Y0003493024D02*
X0002236377Y0003494691D01*
X0002229711Y0003494691D01*
X0002226377Y0003493024D01*
X0002224711Y0003489691D01*
X0002224711Y0003476358D01*
X0002226377Y0003473024D01*
X0002229711Y0003471358D01*
X0002236377Y0003471358D01*
X0002239711Y0003473024D01*
X0002241377Y0003476358D01*
X0002241377Y0003479691D01*
X0002224711Y0003483024D01*
X0002271377Y0003494691D02*
X0002271377Y0003476358D01*
X0002269711Y0003473024D01*
X0002266377Y0003471358D01*
X0002259711Y0003471358D01*
X0002256377Y0003473024D01*
X0002271377Y0003493024D02*
X0002268044Y0003494691D01*
X0002259711Y0003494691D01*
X0002256377Y0003493024D01*
X0002254711Y0003489691D01*
X0002254711Y0003486358D01*
X0002256377Y0003483024D01*
X0002259711Y0003481358D01*
X0002268044Y0003481358D01*
X0002271377Y0003479691D01*
X0002288044Y0003494691D02*
X0002288044Y0003459691D01*
X0002291377Y0003481358D02*
X0002301377Y0003494691D01*
X0002301377Y0003471358D02*
X0002288044Y0003484691D01*
X0002329711Y0003493024D02*
X0002326377Y0003494691D01*
X0002319711Y0003494691D01*
X0002316377Y0003493024D01*
X0002314711Y0003489691D01*
X0002314711Y0003476358D01*
X0002316377Y0003473024D01*
X0002319711Y0003471358D01*
X0002326377Y0003471358D01*
X0002329711Y0003473024D01*
X0002331377Y0003476358D01*
X0002331377Y0003479691D01*
X0002314711Y0003483024D01*
X0002346377Y0003494691D02*
X0002346377Y0003471358D01*
X0002346377Y0003478024D02*
X0002348044Y0003474691D01*
X0002349711Y0003473024D01*
X0002353044Y0003471358D01*
X0002356377Y0003471358D01*
D11*
X0001379193Y0002826668D02*
X0001356696Y0002826668D01*
X0001367945Y0002826668D02*
X0001367945Y0002787298D01*
X0001364195Y0002792922D01*
X0001360446Y0002796672D01*
X0001356696Y0002798547D01*
X0001403565Y0002787298D02*
X0001407315Y0002787298D01*
X0001411064Y0002789173D01*
X0001412939Y0002791047D01*
X0001414814Y0002794797D01*
X0001416689Y0002802296D01*
X0001416689Y0002811670D01*
X0001414814Y0002819169D01*
X0001412939Y0002822918D01*
X0001411064Y0002824793D01*
X0001407315Y0002826668D01*
X0001403565Y0002826668D01*
X0001399816Y0002824793D01*
X0001397941Y0002822918D01*
X0001396066Y0002819169D01*
X0001394191Y0002811670D01*
X0001394191Y0002802296D01*
X0001396066Y0002794797D01*
X0001397941Y0002791047D01*
X0001399816Y0002789173D01*
X0001403565Y0002787298D01*
X0001433562Y0002826668D02*
X0001433562Y0002787298D01*
X0001456059Y0002826668D02*
X0001439186Y0002804171D01*
X0001456059Y0002787298D02*
X0001433562Y0002809795D01*
X0001097941Y0002826668D02*
X0001075444Y0002826668D01*
X0001086692Y0002826668D02*
X0001086692Y0002787298D01*
X0001082943Y0002792922D01*
X0001079193Y0002796672D01*
X0001075444Y0002798547D01*
X0001114814Y0002826668D02*
X0001114814Y0002787298D01*
X0001137311Y0002826668D02*
X0001120438Y0002804171D01*
X0001137311Y0002787298D02*
X0001114814Y0002809795D01*
X0001677630Y0003603106D02*
X0001659632Y0003603106D01*
X0001668631Y0003603106D02*
X0001668631Y0003571610D01*
X0001665631Y0003576109D01*
X0001662632Y0003579109D01*
X0001659632Y0003580609D01*
X0001704626Y0003582109D02*
X0001704626Y0003603106D01*
X0001691128Y0003582109D02*
X0001691128Y0003598607D01*
X0001692628Y0003601606D01*
X0001695628Y0003603106D01*
X0001700127Y0003603106D01*
X0001703127Y0003601606D01*
X0001704626Y0003600106D01*
X0001730123Y0003586608D02*
X0001719625Y0003586608D01*
X0001719625Y0003603106D02*
X0001719625Y0003571610D01*
X0001734623Y0003571610D01*
X0001737630Y0003653106D02*
X0001719632Y0003653106D01*
X0001728631Y0003653106D02*
X0001728631Y0003621610D01*
X0001725631Y0003626109D01*
X0001722632Y0003629109D01*
X0001719632Y0003630609D01*
X0001764626Y0003632109D02*
X0001764626Y0003653106D01*
X0001751128Y0003632109D02*
X0001751128Y0003648607D01*
X0001752628Y0003651606D01*
X0001755628Y0003653106D01*
X0001760127Y0003653106D01*
X0001763127Y0003651606D01*
X0001764626Y0003650106D01*
X0001790123Y0003636608D02*
X0001779625Y0003636608D01*
X0001779625Y0003653106D02*
X0001779625Y0003621610D01*
X0001794623Y0003621610D01*
X0001204634Y0002716610D02*
X0001207634Y0002716610D01*
X0001210633Y0002718110D01*
X0001212133Y0002719610D01*
X0001213633Y0002722609D01*
X0001215133Y0002728608D01*
X0001215133Y0002736107D01*
X0001213633Y0002742107D01*
X0001212133Y0002745106D01*
X0001210633Y0002746606D01*
X0001207634Y0002748106D01*
X0001204634Y0002748106D01*
X0001201634Y0002746606D01*
X0001200134Y0002745106D01*
X0001198635Y0002742107D01*
X0001197135Y0002736107D01*
X0001197135Y0002728608D01*
X0001198635Y0002722609D01*
X0001200134Y0002719610D01*
X0001201634Y0002718110D01*
X0001204634Y0002716610D01*
X0001228631Y0002745106D02*
X0001230131Y0002746606D01*
X0001228631Y0002748106D01*
X0001227131Y0002746606D01*
X0001228631Y0002745106D01*
X0001228631Y0002748106D01*
X0001260127Y0002748106D02*
X0001242129Y0002748106D01*
X0001251128Y0002748106D02*
X0001251128Y0002716610D01*
X0001248128Y0002721109D01*
X0001245129Y0002724109D01*
X0001242129Y0002725609D01*
X0001287124Y0002727109D02*
X0001287124Y0002748106D01*
X0001273625Y0002727109D02*
X0001273625Y0002743607D01*
X0001275125Y0002746606D01*
X0001278125Y0002748106D01*
X0001282624Y0002748106D01*
X0001285624Y0002746606D01*
X0001287124Y0002745106D01*
X0001312620Y0002731608D02*
X0001302122Y0002731608D01*
X0001302122Y0002748106D02*
X0001302122Y0002716610D01*
X0001317120Y0002716610D01*
X0001874413Y0003442810D02*
X0001874413Y0003474681D01*
X0001876287Y0003478430D01*
X0001878162Y0003480305D01*
X0001881912Y0003482180D01*
X0001889411Y0003482180D01*
X0001893160Y0003480305D01*
X0001895035Y0003478430D01*
X0001896910Y0003474681D01*
X0001896910Y0003442810D01*
X0001936280Y0003482180D02*
X0001913783Y0003482180D01*
X0001925031Y0003482180D02*
X0001925031Y0003442810D01*
X0001921282Y0003448434D01*
X0001917532Y0003452184D01*
X0001913783Y0003454058D01*
X0001778893Y0003326668D02*
X0001778893Y0003287298D01*
X0001792017Y0003315419D01*
X0001805140Y0003287298D01*
X0001805140Y0003326668D01*
X0001846385Y0003322919D02*
X0001844510Y0003324793D01*
X0001838886Y0003326668D01*
X0001835136Y0003326668D01*
X0001829512Y0003324793D01*
X0001825762Y0003321044D01*
X0001823888Y0003317294D01*
X0001822013Y0003309795D01*
X0001822013Y0003304171D01*
X0001823888Y0003296672D01*
X0001825762Y0003292922D01*
X0001829512Y0003289173D01*
X0001835136Y0003287298D01*
X0001838886Y0003287298D01*
X0001844510Y0003289173D01*
X0001846385Y0003291047D01*
X0001863258Y0003326668D02*
X0001863258Y0003287298D01*
X0001878256Y0003287298D01*
X0001882005Y0003289173D01*
X0001883880Y0003291047D01*
X0001885755Y0003294797D01*
X0001885755Y0003300421D01*
X0001883880Y0003304171D01*
X0001882005Y0003306046D01*
X0001878256Y0003307920D01*
X0001863258Y0003307920D01*
X0001923250Y0003326668D02*
X0001900753Y0003326668D01*
X0001912002Y0003326668D02*
X0001912002Y0003287298D01*
X0001908252Y0003292922D01*
X0001904503Y0003296672D01*
X0001900753Y0003298547D01*
X0001936374Y0003287298D02*
X0001962620Y0003287298D01*
X0001945747Y0003326668D01*
X0001985118Y0003287298D02*
X0001988867Y0003287298D01*
X0001992617Y0003289173D01*
X0001994491Y0003291047D01*
X0001996366Y0003294797D01*
X0001998241Y0003302296D01*
X0001998241Y0003311670D01*
X0001996366Y0003319169D01*
X0001994491Y0003322919D01*
X0001992617Y0003324793D01*
X0001988867Y0003326668D01*
X0001985118Y0003326668D01*
X0001981368Y0003324793D01*
X0001979493Y0003322919D01*
X0001977619Y0003319169D01*
X0001975744Y0003311670D01*
X0001975744Y0003302296D01*
X0001977619Y0003294797D01*
X0001979493Y0003291047D01*
X0001981368Y0003289173D01*
X0001985118Y0003287298D01*
X0002013239Y0003291047D02*
X0002015114Y0003289173D01*
X0002018863Y0003287298D01*
X0002028237Y0003287298D01*
X0002031987Y0003289173D01*
X0002033862Y0003291047D01*
X0002035736Y0003294797D01*
X0002035736Y0003298547D01*
X0002033862Y0003304171D01*
X0002011364Y0003326668D01*
X0002035736Y0003326668D01*
X0000829634Y0002791610D02*
X0000832634Y0002791610D01*
X0000835633Y0002793110D01*
X0000837133Y0002794610D01*
X0000838633Y0002797609D01*
X0000840133Y0002803608D01*
X0000840133Y0002811107D01*
X0000838633Y0002817107D01*
X0000837133Y0002820106D01*
X0000835633Y0002821606D01*
X0000832634Y0002823106D01*
X0000829634Y0002823106D01*
X0000826634Y0002821606D01*
X0000825134Y0002820106D01*
X0000823635Y0002817107D01*
X0000822135Y0002811107D01*
X0000822135Y0002803608D01*
X0000823635Y0002797609D01*
X0000825134Y0002794610D01*
X0000826634Y0002793110D01*
X0000829634Y0002791610D01*
X0000853631Y0002820106D02*
X0000855131Y0002821606D01*
X0000853631Y0002823106D01*
X0000852131Y0002821606D01*
X0000853631Y0002820106D01*
X0000853631Y0002823106D01*
X0000885127Y0002823106D02*
X0000867129Y0002823106D01*
X0000876128Y0002823106D02*
X0000876128Y0002791610D01*
X0000873128Y0002796109D01*
X0000870129Y0002799109D01*
X0000867129Y0002800609D01*
X0000912124Y0002802109D02*
X0000912124Y0002823106D01*
X0000898625Y0002802109D02*
X0000898625Y0002818607D01*
X0000900125Y0002821606D01*
X0000903125Y0002823106D01*
X0000907624Y0002823106D01*
X0000910624Y0002821606D01*
X0000912124Y0002820106D01*
X0000937620Y0002806608D02*
X0000927122Y0002806608D01*
X0000927122Y0002823106D02*
X0000927122Y0002791610D01*
X0000942120Y0002791610D01*
X0001604634Y0002716610D02*
X0001607634Y0002716610D01*
X0001610633Y0002718110D01*
X0001612133Y0002719610D01*
X0001613633Y0002722609D01*
X0001615133Y0002728608D01*
X0001615133Y0002736107D01*
X0001613633Y0002742107D01*
X0001612133Y0002745106D01*
X0001610633Y0002746606D01*
X0001607634Y0002748106D01*
X0001604634Y0002748106D01*
X0001601634Y0002746606D01*
X0001600134Y0002745106D01*
X0001598635Y0002742107D01*
X0001597135Y0002736107D01*
X0001597135Y0002728608D01*
X0001598635Y0002722609D01*
X0001600134Y0002719610D01*
X0001601634Y0002718110D01*
X0001604634Y0002716610D01*
X0001628631Y0002745106D02*
X0001630131Y0002746606D01*
X0001628631Y0002748106D01*
X0001627131Y0002746606D01*
X0001628631Y0002745106D01*
X0001628631Y0002748106D01*
X0001660127Y0002748106D02*
X0001642129Y0002748106D01*
X0001651128Y0002748106D02*
X0001651128Y0002716610D01*
X0001648128Y0002721109D01*
X0001645129Y0002724109D01*
X0001642129Y0002725609D01*
X0001687124Y0002727109D02*
X0001687124Y0002748106D01*
X0001673625Y0002727109D02*
X0001673625Y0002743607D01*
X0001675125Y0002746606D01*
X0001678125Y0002748106D01*
X0001682624Y0002748106D01*
X0001685624Y0002746606D01*
X0001687124Y0002745106D01*
X0001712620Y0002731608D02*
X0001702122Y0002731608D01*
X0001702122Y0002748106D02*
X0001702122Y0002716610D01*
X0001717120Y0002716610D01*
X0001788567Y0003081674D02*
X0001788567Y0003059176D01*
X0001788567Y0003070425D02*
X0001827937Y0003070425D01*
X0001822313Y0003066676D01*
X0001818563Y0003062926D01*
X0001816689Y0003059176D01*
X0001827937Y0003106046D02*
X0001827937Y0003109795D01*
X0001826062Y0003113545D01*
X0001824188Y0003115419D01*
X0001820438Y0003117294D01*
X0001812939Y0003119169D01*
X0001803565Y0003119169D01*
X0001796066Y0003117294D01*
X0001792317Y0003115419D01*
X0001790442Y0003113545D01*
X0001788567Y0003109795D01*
X0001788567Y0003106046D01*
X0001790442Y0003102296D01*
X0001792317Y0003100421D01*
X0001796066Y0003098547D01*
X0001803565Y0003096672D01*
X0001812939Y0003096672D01*
X0001820438Y0003098547D01*
X0001824188Y0003100421D01*
X0001826062Y0003102296D01*
X0001827937Y0003106046D01*
X0001788567Y0003136042D02*
X0001827937Y0003136042D01*
X0001788567Y0003158539D02*
X0001811064Y0003141666D01*
X0001827937Y0003158539D02*
X0001805440Y0003136042D01*
X0000504634Y0003366610D02*
X0000507634Y0003366610D01*
X0000510633Y0003368110D01*
X0000512133Y0003369610D01*
X0000513633Y0003372609D01*
X0000515133Y0003378608D01*
X0000515133Y0003386107D01*
X0000513633Y0003392107D01*
X0000512133Y0003395106D01*
X0000510633Y0003396606D01*
X0000507634Y0003398106D01*
X0000504634Y0003398106D01*
X0000501634Y0003396606D01*
X0000500134Y0003395106D01*
X0000498635Y0003392107D01*
X0000497135Y0003386107D01*
X0000497135Y0003378608D01*
X0000498635Y0003372609D01*
X0000500134Y0003369610D01*
X0000501634Y0003368110D01*
X0000504634Y0003366610D01*
X0000528631Y0003395106D02*
X0000530131Y0003396606D01*
X0000528631Y0003398106D01*
X0000527131Y0003396606D01*
X0000528631Y0003395106D01*
X0000528631Y0003398106D01*
X0000560127Y0003398106D02*
X0000542129Y0003398106D01*
X0000551128Y0003398106D02*
X0000551128Y0003366610D01*
X0000548128Y0003371109D01*
X0000545129Y0003374109D01*
X0000542129Y0003375609D01*
X0000587124Y0003377109D02*
X0000587124Y0003398106D01*
X0000573625Y0003377109D02*
X0000573625Y0003393607D01*
X0000575125Y0003396606D01*
X0000578125Y0003398106D01*
X0000582624Y0003398106D01*
X0000585624Y0003396606D01*
X0000587124Y0003395106D01*
X0000612620Y0003381608D02*
X0000602122Y0003381608D01*
X0000602122Y0003398106D02*
X0000602122Y0003366610D01*
X0000617120Y0003366610D01*
X0000488567Y0003650421D02*
X0000488567Y0003627924D01*
X0000488567Y0003639173D02*
X0000527937Y0003639173D01*
X0000522313Y0003635423D01*
X0000518563Y0003631674D01*
X0000516689Y0003627924D01*
X0000488567Y0003667294D02*
X0000527937Y0003667294D01*
X0000488567Y0003689791D02*
X0000511064Y0003672918D01*
X0000527937Y0003689791D02*
X0000505440Y0003667294D01*
X0000588567Y0003631674D02*
X0000588567Y0003609176D01*
X0000588567Y0003620425D02*
X0000627937Y0003620425D01*
X0000622313Y0003616675D01*
X0000618563Y0003612926D01*
X0000616689Y0003609176D01*
X0000627937Y0003656046D02*
X0000627937Y0003659795D01*
X0000626062Y0003663545D01*
X0000624188Y0003665419D01*
X0000620438Y0003667294D01*
X0000612939Y0003669169D01*
X0000603565Y0003669169D01*
X0000596066Y0003667294D01*
X0000592317Y0003665419D01*
X0000590442Y0003663545D01*
X0000588567Y0003659795D01*
X0000588567Y0003656046D01*
X0000590442Y0003652296D01*
X0000592317Y0003650421D01*
X0000596066Y0003648547D01*
X0000603565Y0003646672D01*
X0000612939Y0003646672D01*
X0000620438Y0003648547D01*
X0000624188Y0003650421D01*
X0000626062Y0003652296D01*
X0000627937Y0003656046D01*
X0000588567Y0003686042D02*
X0000627937Y0003686042D01*
X0000588567Y0003708539D02*
X0000611064Y0003691666D01*
X0000627937Y0003708539D02*
X0000605440Y0003686042D01*
X0001888567Y0003081674D02*
X0001888567Y0003059176D01*
X0001888567Y0003070425D02*
X0001927937Y0003070425D01*
X0001922313Y0003066676D01*
X0001918563Y0003062926D01*
X0001916689Y0003059176D01*
X0001927937Y0003106046D02*
X0001927937Y0003109795D01*
X0001926062Y0003113545D01*
X0001924188Y0003115419D01*
X0001920438Y0003117294D01*
X0001912939Y0003119169D01*
X0001903565Y0003119169D01*
X0001896066Y0003117294D01*
X0001892317Y0003115419D01*
X0001890442Y0003113545D01*
X0001888567Y0003109795D01*
X0001888567Y0003106046D01*
X0001890442Y0003102296D01*
X0001892317Y0003100421D01*
X0001896066Y0003098547D01*
X0001903565Y0003096672D01*
X0001912939Y0003096672D01*
X0001920438Y0003098547D01*
X0001924188Y0003100421D01*
X0001926062Y0003102296D01*
X0001927937Y0003106046D01*
X0001888567Y0003136042D02*
X0001927937Y0003136042D01*
X0001888567Y0003158539D02*
X0001911064Y0003141666D01*
X0001927937Y0003158539D02*
X0001905440Y0003136042D01*
X0001988567Y0003082611D02*
X0001988567Y0003060114D01*
X0001988567Y0003071362D02*
X0002027937Y0003071362D01*
X0002022313Y0003067613D01*
X0002018563Y0003063863D01*
X0002016689Y0003060114D01*
X0002027937Y0003106983D02*
X0002027937Y0003110733D01*
X0002026062Y0003114482D01*
X0002024188Y0003116357D01*
X0002020438Y0003118232D01*
X0002012939Y0003120106D01*
X0002003565Y0003120106D01*
X0001996066Y0003118232D01*
X0001992317Y0003116357D01*
X0001990442Y0003114482D01*
X0001988567Y0003110733D01*
X0001988567Y0003106983D01*
X0001990442Y0003103233D01*
X0001992317Y0003101359D01*
X0001996066Y0003099484D01*
X0002003565Y0003097609D01*
X0002012939Y0003097609D01*
X0002020438Y0003099484D01*
X0002024188Y0003101359D01*
X0002026062Y0003103233D01*
X0002027937Y0003106983D01*
X0002027937Y0003144478D02*
X0002027937Y0003148228D01*
X0002026062Y0003151977D01*
X0002024188Y0003153852D01*
X0002020438Y0003155727D01*
X0002012939Y0003157602D01*
X0002003565Y0003157602D01*
X0001996066Y0003155727D01*
X0001992317Y0003153852D01*
X0001990442Y0003151977D01*
X0001988567Y0003148228D01*
X0001988567Y0003144478D01*
X0001990442Y0003140729D01*
X0001992317Y0003138854D01*
X0001996066Y0003136979D01*
X0002003565Y0003135105D01*
X0002012939Y0003135105D01*
X0002020438Y0003136979D01*
X0002024188Y0003138854D01*
X0002026062Y0003140729D01*
X0002027937Y0003144478D01*
X0000497941Y0002926668D02*
X0000475444Y0002926668D01*
X0000486692Y0002926668D02*
X0000486692Y0002887298D01*
X0000482943Y0002892922D01*
X0000479193Y0002896672D01*
X0000475444Y0002898547D01*
X0000514814Y0002926668D02*
X0000514814Y0002887298D01*
X0000537311Y0002926668D02*
X0000520438Y0002904171D01*
X0000537311Y0002887298D02*
X0000514814Y0002909795D01*
X0001267129Y0003527118D02*
X0001267129Y0003509120D01*
X0001267129Y0003518119D02*
X0001298625Y0003518119D01*
X0001294126Y0003515119D01*
X0001291126Y0003512120D01*
X0001289626Y0003509120D01*
X0001298625Y0003546615D02*
X0001298625Y0003549615D01*
X0001297125Y0003552615D01*
X0001295626Y0003554115D01*
X0001292626Y0003555614D01*
X0001286627Y0003557114D01*
X0001279128Y0003557114D01*
X0001273128Y0003555614D01*
X0001270129Y0003554115D01*
X0001268629Y0003552615D01*
X0001267129Y0003549615D01*
X0001267129Y0003546615D01*
X0001268629Y0003543616D01*
X0001270129Y0003542116D01*
X0001273128Y0003540616D01*
X0001279128Y0003539116D01*
X0001286627Y0003539116D01*
X0001292626Y0003540616D01*
X0001295626Y0003542116D01*
X0001297125Y0003543616D01*
X0001298625Y0003546615D01*
X0001298625Y0003576612D02*
X0001298625Y0003579611D01*
X0001297125Y0003582611D01*
X0001295626Y0003584111D01*
X0001292626Y0003585611D01*
X0001286627Y0003587110D01*
X0001279128Y0003587110D01*
X0001273128Y0003585611D01*
X0001270129Y0003584111D01*
X0001268629Y0003582611D01*
X0001267129Y0003579611D01*
X0001267129Y0003576612D01*
X0001268629Y0003573612D01*
X0001270129Y0003572112D01*
X0001273128Y0003570612D01*
X0001279128Y0003569113D01*
X0001286627Y0003569113D01*
X0001292626Y0003570612D01*
X0001295626Y0003572112D01*
X0001297125Y0003573612D01*
X0001298625Y0003576612D01*
X0001267129Y0003600609D02*
X0001298625Y0003600609D01*
X0001267129Y0003618607D02*
X0001285127Y0003605108D01*
X0001298625Y0003618607D02*
X0001280627Y0003600609D01*
X0001267129Y0003672600D02*
X0001267129Y0003654602D01*
X0001267129Y0003663601D02*
X0001298625Y0003663601D01*
X0001294126Y0003660601D01*
X0001291126Y0003657602D01*
X0001289626Y0003654602D01*
X0001267129Y0003684598D02*
X0001298625Y0003708595D01*
X0001298625Y0003689098D02*
X0001297125Y0003692097D01*
X0001294126Y0003693597D01*
X0001291126Y0003692097D01*
X0001289626Y0003689098D01*
X0001291126Y0003686098D01*
X0001294126Y0003684598D01*
X0001297125Y0003686098D01*
X0001298625Y0003689098D01*
X0001268629Y0003707095D02*
X0001271629Y0003708595D01*
X0001274628Y0003707095D01*
X0001276128Y0003704096D01*
X0001274628Y0003701096D01*
X0001271629Y0003699596D01*
X0001268629Y0003701096D01*
X0001267129Y0003704096D01*
X0001268629Y0003707095D01*
X0001167129Y0003542116D02*
X0001167129Y0003524118D01*
X0001167129Y0003533117D02*
X0001198625Y0003533117D01*
X0001194126Y0003530118D01*
X0001191126Y0003527118D01*
X0001189626Y0003524118D01*
X0001198625Y0003561614D02*
X0001198625Y0003564613D01*
X0001197125Y0003567613D01*
X0001195626Y0003569113D01*
X0001192626Y0003570613D01*
X0001186627Y0003572112D01*
X0001179128Y0003572112D01*
X0001173128Y0003570613D01*
X0001170129Y0003569113D01*
X0001168629Y0003567613D01*
X0001167129Y0003564613D01*
X0001167129Y0003561614D01*
X0001168629Y0003558614D01*
X0001170129Y0003557114D01*
X0001173128Y0003555614D01*
X0001179128Y0003554115D01*
X0001186627Y0003554115D01*
X0001192626Y0003555614D01*
X0001195626Y0003557114D01*
X0001197125Y0003558614D01*
X0001198625Y0003561614D01*
X0001167129Y0003585611D02*
X0001198625Y0003585611D01*
X0001167129Y0003603608D02*
X0001185127Y0003590110D01*
X0001198625Y0003603608D02*
X0001180627Y0003585611D01*
X0001167129Y0003657602D02*
X0001167129Y0003639604D01*
X0001167129Y0003648603D02*
X0001198625Y0003648603D01*
X0001194126Y0003645603D01*
X0001191126Y0003642604D01*
X0001189626Y0003639604D01*
X0001167129Y0003669600D02*
X0001198625Y0003693597D01*
X0001198625Y0003674100D02*
X0001197125Y0003677099D01*
X0001194126Y0003678599D01*
X0001191126Y0003677099D01*
X0001189626Y0003674100D01*
X0001191126Y0003671100D01*
X0001194126Y0003669600D01*
X0001197125Y0003671100D01*
X0001198625Y0003674100D01*
X0001168629Y0003692097D02*
X0001171629Y0003693597D01*
X0001174628Y0003692097D01*
X0001176128Y0003689098D01*
X0001174628Y0003686098D01*
X0001171629Y0003684598D01*
X0001168629Y0003686098D01*
X0001167129Y0003689098D01*
X0001168629Y0003692097D01*
X0001063567Y0003631674D02*
X0001063567Y0003609176D01*
X0001063567Y0003620425D02*
X0001102937Y0003620425D01*
X0001097313Y0003616675D01*
X0001093563Y0003612926D01*
X0001091689Y0003609176D01*
X0001102937Y0003656046D02*
X0001102937Y0003659795D01*
X0001101062Y0003663545D01*
X0001099188Y0003665419D01*
X0001095438Y0003667294D01*
X0001087939Y0003669169D01*
X0001078565Y0003669169D01*
X0001071066Y0003667294D01*
X0001067317Y0003665419D01*
X0001065442Y0003663545D01*
X0001063567Y0003659795D01*
X0001063567Y0003656046D01*
X0001065442Y0003652296D01*
X0001067317Y0003650421D01*
X0001071066Y0003648547D01*
X0001078565Y0003646672D01*
X0001087939Y0003646672D01*
X0001095438Y0003648547D01*
X0001099188Y0003650421D01*
X0001101062Y0003652296D01*
X0001102937Y0003656046D01*
X0001063567Y0003686042D02*
X0001102937Y0003686042D01*
X0001063567Y0003708539D02*
X0001086064Y0003691666D01*
X0001102937Y0003708539D02*
X0001080440Y0003686042D01*
X0002202628Y0002930418D02*
X0002198878Y0002928543D01*
X0002195129Y0002924793D01*
X0002189505Y0002919169D01*
X0002185755Y0002917294D01*
X0002182005Y0002917294D01*
X0002183880Y0002926668D02*
X0002180131Y0002924793D01*
X0002176381Y0002921044D01*
X0002174506Y0002913545D01*
X0002174506Y0002900421D01*
X0002176381Y0002892922D01*
X0002180131Y0002889173D01*
X0002183880Y0002887298D01*
X0002191379Y0002887298D01*
X0002195129Y0002889173D01*
X0002198878Y0002892922D01*
X0002200753Y0002900421D01*
X0002200753Y0002913545D01*
X0002198878Y0002921044D01*
X0002195129Y0002924793D01*
X0002191379Y0002926668D01*
X0002183880Y0002926668D01*
X0002238248Y0002926668D02*
X0002215751Y0002926668D01*
X0002227000Y0002926668D02*
X0002227000Y0002887298D01*
X0002223250Y0002892922D01*
X0002219501Y0002896672D01*
X0002215751Y0002898547D01*
X0002102140Y0002993106D02*
X0002102140Y0002961610D01*
X0002135136Y0002993106D02*
X0002124638Y0002978108D01*
X0002117139Y0002993106D02*
X0002117139Y0002961610D01*
X0002129137Y0002961610D01*
X0002132137Y0002963110D01*
X0002133637Y0002964610D01*
X0002135136Y0002967609D01*
X0002135136Y0002972109D01*
X0002133637Y0002975108D01*
X0002132137Y0002976608D01*
X0002129137Y0002978108D01*
X0002117139Y0002978108D01*
X0002163633Y0002993106D02*
X0002148635Y0002993106D01*
X0002148635Y0002961610D01*
X0002192129Y0002993106D02*
X0002181630Y0002978108D01*
X0002174131Y0002993106D02*
X0002174131Y0002961610D01*
X0002186130Y0002961610D01*
X0002189130Y0002963110D01*
X0002190629Y0002964610D01*
X0002192129Y0002967609D01*
X0002192129Y0002972109D01*
X0002190629Y0002975108D01*
X0002189130Y0002976608D01*
X0002186130Y0002978108D01*
X0002174131Y0002978108D01*
X0002210127Y0002975108D02*
X0002207127Y0002973608D01*
X0002205627Y0002972109D01*
X0002204128Y0002969109D01*
X0002204128Y0002967609D01*
X0002205627Y0002964610D01*
X0002207127Y0002963110D01*
X0002210127Y0002961610D01*
X0002216126Y0002961610D01*
X0002219126Y0002963110D01*
X0002220626Y0002964610D01*
X0002222125Y0002967609D01*
X0002222125Y0002969109D01*
X0002220626Y0002972109D01*
X0002219126Y0002973608D01*
X0002216126Y0002975108D01*
X0002210127Y0002975108D01*
X0002207127Y0002976608D01*
X0002205627Y0002978108D01*
X0002204128Y0002981107D01*
X0002204128Y0002987107D01*
X0002205627Y0002990106D01*
X0002207127Y0002991606D01*
X0002210127Y0002993106D01*
X0002216126Y0002993106D01*
X0002219126Y0002991606D01*
X0002220626Y0002990106D01*
X0002222125Y0002987107D01*
X0002222125Y0002981107D01*
X0002220626Y0002978108D01*
X0002219126Y0002976608D01*
X0002216126Y0002975108D01*
X0002232624Y0002961610D02*
X0002253622Y0002961610D01*
X0002240123Y0002993106D01*
X0002264120Y0002964610D02*
X0002265620Y0002963110D01*
X0002268620Y0002961610D01*
X0002276119Y0002961610D01*
X0002279118Y0002963110D01*
X0002280618Y0002964610D01*
X0002282118Y0002967609D01*
X0002282118Y0002970609D01*
X0002280618Y0002975108D01*
X0002262620Y0002993106D01*
X0002282118Y0002993106D01*
X0002297116Y0002993106D02*
X0002303115Y0002993106D01*
X0002306115Y0002991606D01*
X0002307615Y0002990106D01*
X0002310614Y0002985607D01*
X0002312114Y0002979608D01*
X0002312114Y0002967609D01*
X0002310614Y0002964610D01*
X0002309115Y0002963110D01*
X0002306115Y0002961610D01*
X0002300116Y0002961610D01*
X0002297116Y0002963110D01*
X0002295616Y0002964610D01*
X0002294116Y0002967609D01*
X0002294116Y0002975108D01*
X0002295616Y0002978108D01*
X0002297116Y0002979608D01*
X0002300116Y0002981107D01*
X0002306115Y0002981107D01*
X0002309115Y0002979608D01*
X0002310614Y0002978108D01*
X0002312114Y0002975108D01*
G04 next file*
G04 #@! TF.FileFunction,Legend,Bot*
G04 Gerber Fmt 4.6, Leading zero omitted, Abs format (unit mm)*
G04 Created by KiCad (PCBNEW 4.0.7) date 07/04/19 20:50:11*
G01*
G04 APERTURE LIST*
G04 APERTURE END LIST*
D27*
D28*
X0001263307Y0001798070D02*
X0001263307Y0001808070D01*
X0001263307Y0001718070D02*
X0001263307Y0001798070D01*
X0000522559Y0001682067D02*
X0000521059Y0001685067D01*
X0000521059Y0001689566D01*
X0000522559Y0001694066D01*
X0000525558Y0001697065D01*
X0000528558Y0001698565D01*
X0000534557Y0001700065D01*
X0000539057Y0001700065D01*
X0000545056Y0001698565D01*
X0000548055Y0001697065D01*
X0000551055Y0001694066D01*
X0000552555Y0001689566D01*
X0000552555Y0001686567D01*
X0000551055Y0001682067D01*
X0000549555Y0001680568D01*
X0000539057Y0001680568D01*
X0000539057Y0001686567D01*
X0000552555Y0001667069D02*
X0000521059Y0001667069D01*
X0000552555Y0001649071D01*
X0000521059Y0001649071D01*
X0000552555Y0001634073D02*
X0000521059Y0001634073D01*
X0000521059Y0001626574D01*
X0000522559Y0001622075D01*
X0000525558Y0001619075D01*
X0000528558Y0001617575D01*
X0000534557Y0001616076D01*
X0000539057Y0001616076D01*
X0000545056Y0001617575D01*
X0000548055Y0001619075D01*
X0000551055Y0001622075D01*
X0000552555Y0001626574D01*
X0000552555Y0001634073D01*
D29*
X0000065804Y0001903852D02*
X0000020809Y0001903852D01*
X0000345804Y0002003852D02*
X0000300809Y0002003852D01*
X0000323307Y0001981355D02*
X0000323307Y0002026349D01*
D28*
X0001538307Y0001683070D02*
X0001588307Y0001733070D01*
D29*
X0001107000Y0000829476D02*
X0001109461Y0000832289D01*
X0001114734Y0000835101D01*
X0001120358Y0000835101D01*
X0001126334Y0000832289D01*
X0001129498Y0000829476D01*
X0001133013Y0000823852D01*
X0001133716Y0000818228D01*
X0001131607Y0000812604D01*
X0001129146Y0000809791D01*
X0001123873Y0000806979D01*
X0001118249Y0000806979D01*
X0001112273Y0000809791D01*
X0001109109Y0000812604D01*
X0001106297Y0000835101D02*
X0001109109Y0000812604D01*
X0001106649Y0000809791D01*
X0001103837Y0000809791D01*
X0001097861Y0000812604D01*
X0001094346Y0000818228D01*
X0001092588Y0000832289D01*
X0001097158Y0000840725D01*
X0001104891Y0000846349D01*
X0001115788Y0000849161D01*
X0001127388Y0000846349D01*
X0001136528Y0000840725D01*
X0001143207Y0000832289D01*
X0001147425Y0000821040D01*
X0001146019Y0000809791D01*
X0001141449Y0000801355D01*
X0001133716Y0000795731D01*
X0001122819Y0000792918D01*
X0001111219Y0000795731D01*
X0001102079Y0000801355D01*
X0001072200Y0000860410D02*
X0001038454Y0000860410D01*
X0001062709Y0000801355D02*
X0001055327Y0000860410D01*
X0001026151Y0000801355D02*
X0001018769Y0000860410D01*
X0001000842Y0000801355D02*
X0000996975Y0000832289D01*
X0000999084Y0000837913D01*
X0001004357Y0000840725D01*
X0001012793Y0000840725D01*
X0001018769Y0000837913D01*
X0001021933Y0000835101D01*
X0000949872Y0000804167D02*
X0000955847Y0000801355D01*
X0000967096Y0000801355D01*
X0000972369Y0000804167D01*
X0000974478Y0000809791D01*
X0000971666Y0000832289D01*
X0000968151Y0000837913D01*
X0000962175Y0000840725D01*
X0000950926Y0000840725D01*
X0000945653Y0000837913D01*
X0000943544Y0000832289D01*
X0000944247Y0000826664D01*
X0000973072Y0000821040D01*
X0000922102Y0000801355D02*
X0000914720Y0000860410D01*
X0000900307Y0000818228D01*
X0000875350Y0000860410D01*
X0000882732Y0000801355D01*
X0000829301Y0000801355D02*
X0000825434Y0000832289D01*
X0000827543Y0000837913D01*
X0000832816Y0000840725D01*
X0000844064Y0000840725D01*
X0000850040Y0000837913D01*
X0000828949Y0000804167D02*
X0000834925Y0000801355D01*
X0000848986Y0000801355D01*
X0000854259Y0000804167D01*
X0000856368Y0000809791D01*
X0000855665Y0000815416D01*
X0000852149Y0000821040D01*
X0000846174Y0000823852D01*
X0000832113Y0000823852D01*
X0000826137Y0000826664D01*
X0000801179Y0000801355D02*
X0000793797Y0000860410D01*
X0000792743Y0000823852D02*
X0000778682Y0000801355D01*
X0000773761Y0000840725D02*
X0000799070Y0000818228D01*
X0000730524Y0000804167D02*
X0000736500Y0000801355D01*
X0000747748Y0000801355D01*
X0000753021Y0000804167D01*
X0000755130Y0000809791D01*
X0000752318Y0000832289D01*
X0000748803Y0000837913D01*
X0000742827Y0000840725D01*
X0000731579Y0000840725D01*
X0000726306Y0000837913D01*
X0000724197Y0000832289D01*
X0000724900Y0000826664D01*
X0000753724Y0000821040D01*
X0000702754Y0000801355D02*
X0000697833Y0000840725D01*
X0000699239Y0000829476D02*
X0000695724Y0000835101D01*
X0000692560Y0000837913D01*
X0000686584Y0000840725D01*
X0000680960Y0000840725D01*
X0000668657Y0000804167D02*
X0000663384Y0000801355D01*
X0000652135Y0000801355D01*
X0000646160Y0000804167D01*
X0000642644Y0000809791D01*
X0000642293Y0000812604D01*
X0000644402Y0000818228D01*
X0000649675Y0000821040D01*
X0000658111Y0000821040D01*
X0000663384Y0000823852D01*
X0000665493Y0000829476D01*
X0000665142Y0000832289D01*
X0000661626Y0000837913D01*
X0000655651Y0000840725D01*
X0000647214Y0000840725D01*
X0000641941Y0000837913D01*
X0000594838Y0000832289D02*
X0000586753Y0000829476D01*
X0000584292Y0000826664D01*
X0000582183Y0000821040D01*
X0000583238Y0000812604D01*
X0000586753Y0000806979D01*
X0000589917Y0000804167D01*
X0000595892Y0000801355D01*
X0000618390Y0000801355D01*
X0000611008Y0000860410D01*
X0000591323Y0000860410D01*
X0000586050Y0000857598D01*
X0000583589Y0000854786D01*
X0000581480Y0000849161D01*
X0000582183Y0000843537D01*
X0000585698Y0000837913D01*
X0000588862Y0000835101D01*
X0000594838Y0000832289D01*
X0000614523Y0000832289D01*
X0000550898Y0000801355D02*
X0000556171Y0000804167D01*
X0000558631Y0000806979D01*
X0000560740Y0000812604D01*
X0000558631Y0000829476D01*
X0000555116Y0000835101D01*
X0000551953Y0000837913D01*
X0000545977Y0000840725D01*
X0000537540Y0000840725D01*
X0000532267Y0000837913D01*
X0000529807Y0000835101D01*
X0000527698Y0000829476D01*
X0000529807Y0000812604D01*
X0000533322Y0000806979D01*
X0000536486Y0000804167D01*
X0000542462Y0000801355D01*
X0000550898Y0000801355D01*
X0000511528Y0000801355D02*
X0000475673Y0000840725D01*
X0000506607Y0000840725D02*
X0000480594Y0000801355D01*
X0000415804Y0001903852D02*
X0000370809Y0001903852D01*
X0000695804Y0002003852D02*
X0000650809Y0002003852D01*
X0000673307Y0001981355D02*
X0000673307Y0002026349D01*
D30*
X0000599527Y0001749015D02*
X0000127086Y0001749015D01*
X0000127086Y0001867125D02*
X0000599527Y0001867125D01*
X0000599527Y0001749015D02*
X0000599527Y0001867125D01*
X0000127086Y0001867125D02*
X0000127086Y0001749015D01*
X0001163307Y0001608070D02*
X0001163307Y0001708070D01*
X0001163307Y0001708070D02*
X0000563307Y0001708070D01*
X0000563307Y0001708070D02*
X0000563307Y0001608070D01*
X0000563307Y0001608070D02*
X0001163307Y0001608070D01*
X0000760944Y0001368700D02*
G75*
G03X0000760944Y0001447440J0000039370D01*
G01*
X0000760944Y0001447440D02*
X0000760944Y0001512401D01*
X0000760944Y0001512401D02*
X0002165669Y0001512401D01*
X0002165669Y0001512401D02*
X0002165669Y0001303740D01*
X0002165669Y0001303740D02*
X0000760944Y0001303740D01*
X0000760944Y0001303740D02*
X0000760944Y0001368700D01*
X0000532184Y0001993117D02*
G75*
G03X0000532204Y0001922992I0000056122J-0000035046D01*
G01*
X0000623342Y0002014187D02*
G75*
G03X0000554212Y0002014763I-0000035035J-0000056116D01*
G01*
X0000644423Y0001923035D02*
G75*
G03X0000645000Y0001992165I-0000056116J0000035035D01*
G01*
X0000203257Y0001901979D02*
G75*
G03X0000238307Y0001891929I0000035049J0000056091D01*
G01*
X0000182184Y0001993117D02*
G75*
G03X0000182204Y0001922992I0000056122J-0000035046D01*
G01*
X0000294423Y0001923035D02*
G75*
G03X0000295000Y0001992165I-0000056116J0000035035D01*
G01*
X0000237178Y0001891925D02*
G75*
G03X0000272401Y0001901377I0000001128J0000066145D01*
G01*
X0000050314Y0002000157D02*
X0000055393Y0001995118D01*
X0000138897Y0001911574D02*
X0000142598Y0001907913D01*
X0000058385Y0002008267D02*
X0000062086Y0002004566D01*
X0000145590Y0001921023D02*
X0000150669Y0001915984D01*
X0001803464Y0001715157D02*
X0001626299Y0001715157D01*
X0001803464Y0001600984D02*
G75*
G03X0001803464Y0001715157J0000057086D01*
G01*
X0001626299Y0001600984D02*
G75*
G02X0001626299Y0001715157J0000057086D01*
G01*
D31*
X0000152362Y0001430118D02*
X0000034251Y0001430118D01*
D30*
X0000166535Y0001406102D02*
X0000020078Y0001406102D01*
X0000020078Y0001406102D02*
X0000020078Y0001710039D01*
X0000020078Y0001710039D02*
X0000166535Y0001710039D01*
X0000166535Y0001710039D02*
X0000166535Y0001406102D01*
X0000093307Y0001362401D02*
X0000093307Y0001406102D01*
X0000093307Y0001753740D02*
X0000093307Y0001710039D01*
X0000166535Y0001453346D02*
X0000020078Y0001453346D01*
D28*
X0000496759Y0001008070D02*
G75*
G03X0000496759Y0001008070I-0000233452D01*
G01*
D30*
X0001184960Y0001791929D02*
X0001038503Y0001791929D01*
X0001184960Y0001724212D02*
X0001038503Y0001724212D01*
X0001484960Y0001791929D02*
X0001338503Y0001791929D01*
X0001484960Y0001724212D02*
X0001338503Y0001724212D01*
X0000761732Y0001209645D02*
X0000761732Y0001008070D01*
X0000864881Y0001209645D02*
X0000864881Y0001008070D01*
X0000761732Y0001209645D02*
X0000864881Y0001209645D01*
X0000761732Y0001008070D02*
X0000864881Y0001008070D01*
X0000714881Y0001009645D02*
X0000513307Y0001009645D01*
X0000714881Y0000906496D02*
X0000513307Y0000906496D01*
X0000714881Y0001009645D02*
X0000714881Y0000906496D01*
X0000513307Y0001009645D02*
X0000513307Y0000906496D01*
X0001193228Y0001614370D02*
X0001331811Y0001614370D01*
X0001193228Y0001701771D02*
X0001331811Y0001701771D01*
X0001193228Y0001614370D02*
X0001193228Y0001618858D01*
X0001193228Y0001697283D02*
X0001193228Y0001701771D01*
X0001331811Y0001614370D02*
X0001331811Y0001618858D01*
X0001331811Y0001697283D02*
X0001331811Y0001701771D01*
X0000542440Y0001230905D02*
X0000684173Y0001230905D01*
X0000540926Y0001230451D02*
G75*
G03X0000613307Y0001055708I0000072381J-0000072381D01*
G01*
X0000685688Y0001230451D02*
G75*
G02X0000613307Y0001055708I-0000072381J-0000072381D01*
G01*
X0001393228Y0001614370D02*
X0001531811Y0001614370D01*
X0001393228Y0001701771D02*
X0001531811Y0001701771D01*
X0001393228Y0001614370D02*
X0001393228Y0001618858D01*
X0001393228Y0001697283D02*
X0001393228Y0001701771D01*
X0001531811Y0001614370D02*
X0001531811Y0001618858D01*
X0001531811Y0001697283D02*
X0001531811Y0001701771D01*
X0000933385Y0001801771D02*
X0000794803Y0001801771D01*
X0000933385Y0001714370D02*
X0000794803Y0001714370D01*
X0000933385Y0001801771D02*
X0000933385Y0001797283D01*
X0000933385Y0001718858D02*
X0000933385Y0001714370D01*
X0000794803Y0001801771D02*
X0000794803Y0001797283D01*
X0000794803Y0001718858D02*
X0000794803Y0001714370D01*
X0000679448Y0001529724D02*
X0000679448Y0001383267D01*
X0000747165Y0001529724D02*
X0000747165Y0001383267D01*
X0001893228Y0001064370D02*
X0002031811Y0001064370D01*
X0001893228Y0001151771D02*
X0002031811Y0001151771D01*
X0001893228Y0001064370D02*
X0001893228Y0001068858D01*
X0001893228Y0001147283D02*
X0001893228Y0001151771D01*
X0002031811Y0001064370D02*
X0002031811Y0001068858D01*
X0002031811Y0001147283D02*
X0002031811Y0001151771D01*
X0001979448Y0000979724D02*
X0001979448Y0000833267D01*
X0002047165Y0000979724D02*
X0002047165Y0000833267D01*
X0001947165Y0000836417D02*
X0001947165Y0000982874D01*
X0001879448Y0000836417D02*
X0001879448Y0000982874D01*
X0000647165Y0001386417D02*
X0000647165Y0001532874D01*
X0000579448Y0001386417D02*
X0000579448Y0001532874D01*
X0000547165Y0001386417D02*
X0000547165Y0001532874D01*
X0000479448Y0001386417D02*
X0000479448Y0001532874D01*
X0001941653Y0001624212D02*
X0002088110Y0001624212D01*
X0001941653Y0001691929D02*
X0002088110Y0001691929D01*
D27*
X0001238307Y0000856102D02*
X0001238307Y0000820669D01*
X0001238307Y0001060826D02*
X0001238307Y0001088385D01*
X0001269803Y0001060826D02*
X0001206811Y0001060826D01*
X0001206811Y0001060826D02*
X0001206811Y0000856102D01*
X0001206811Y0000856102D02*
X0001269803Y0000856102D01*
X0001269803Y0000856102D02*
X0001269803Y0001060826D01*
X0001338307Y0000856102D02*
X0001338307Y0000820669D01*
X0001338307Y0001060826D02*
X0001338307Y0001088385D01*
X0001369803Y0001060826D02*
X0001306810Y0001060826D01*
X0001306810Y0001060826D02*
X0001306810Y0000856102D01*
X0001306810Y0000856102D02*
X0001369803Y0000856102D01*
X0001369803Y0000856102D02*
X0001369803Y0001060826D01*
D30*
X0001472165Y0000836417D02*
X0001472165Y0000982874D01*
X0001404448Y0000836417D02*
X0001404448Y0000982874D01*
X0000177480Y0001546259D02*
X0000177480Y0001605314D01*
X0000177480Y0001605314D02*
X0000188110Y0001605314D01*
X0000188110Y0001605314D02*
X0000188110Y0001716732D01*
X0000449133Y0001546259D02*
X0000449133Y0001605314D01*
X0000449133Y0001605314D02*
X0000438503Y0001605314D01*
X0000438503Y0001605314D02*
X0000438503Y0001648622D01*
D28*
X0002053305Y0001980258D02*
X0002023308Y0001980258D01*
X0002038307Y0001965260D02*
X0002038307Y0001995256D01*
X0000403301Y0001790260D02*
X0000403301Y0001829630D01*
X0000388303Y0001829630D01*
X0000384553Y0001827755D01*
X0000382679Y0001825881D01*
X0000380804Y0001822131D01*
X0000380804Y0001816507D01*
X0000382679Y0001812757D01*
X0000384553Y0001810883D01*
X0000388303Y0001809008D01*
X0000403301Y0001809008D01*
X0000369555Y0001829630D02*
X0000347058Y0001829630D01*
X0000358307Y0001790260D02*
X0000358307Y0001829630D01*
X0000311437Y0001794010D02*
X0000313312Y0001792135D01*
X0000318936Y0001790260D01*
X0000322686Y0001790260D01*
X0000328310Y0001792135D01*
X0000332060Y0001795884D01*
X0000333935Y0001799634D01*
X0000335809Y0001807133D01*
X0000335809Y0001812757D01*
X0000333935Y0001820256D01*
X0000332060Y0001824006D01*
X0000328310Y0001827755D01*
X0000322686Y0001829630D01*
X0000318936Y0001829630D01*
X0000313312Y0001827755D01*
X0000311437Y0001825881D01*
D32*
X0000736938Y0001741113D02*
X0000753342Y0001741113D01*
X0000753342Y0001715335D02*
X0000753342Y0001764548D01*
X0000729908Y0001764548D01*
X0000718190Y0001764548D02*
X0000690069Y0001764548D01*
X0000704130Y0001715335D02*
X0000704130Y0001764548D01*
X0000673665Y0001715335D02*
X0000673665Y0001764548D01*
X0000661947Y0001764548D01*
X0000654917Y0001762204D01*
X0000650230Y0001757517D01*
X0000647887Y0001752830D01*
X0000645543Y0001743457D01*
X0000645543Y0001736426D01*
X0000647887Y0001727052D01*
X0000650230Y0001722365D01*
X0000654917Y0001717679D01*
X0000661947Y0001715335D01*
X0000673665Y0001715335D01*
X0000624452Y0001715335D02*
X0000624452Y0001764548D01*
D28*
X0000838303Y0001359630D02*
X0000838303Y0001327759D01*
X0000836428Y0001324010D01*
X0000834553Y0001322135D01*
X0000830804Y0001320260D01*
X0000823305Y0001320260D01*
X0000819555Y0001322135D01*
X0000817680Y0001324010D01*
X0000815806Y0001327759D01*
X0000815806Y0001359630D01*
X0000778310Y0001359630D02*
X0000797058Y0001359630D01*
X0000798933Y0001340883D01*
X0000797058Y0001342757D01*
X0000793308Y0001344632D01*
X0000783935Y0001344632D01*
X0000780185Y0001342757D01*
X0000778310Y0001340883D01*
X0000776436Y0001337133D01*
X0000776436Y0001327759D01*
X0000778310Y0001324010D01*
X0000780185Y0001322135D01*
X0000783935Y0001320260D01*
X0000793308Y0001320260D01*
X0000797058Y0001322135D01*
X0000798933Y0001324010D01*
X0001452651Y0001391509D02*
X0001433904Y0001391509D01*
X0001456401Y0001380260D02*
X0001443278Y0001419630D01*
X0001430154Y0001380260D01*
X0001422655Y0001419630D02*
X0001400158Y0001419630D01*
X0001411407Y0001380260D02*
X0001411407Y0001419630D01*
X0001387035Y0001380260D02*
X0001387035Y0001419630D01*
X0001373911Y0001391509D01*
X0001360788Y0001419630D01*
X0001360788Y0001380260D01*
X0001342040Y0001400883D02*
X0001328917Y0001400883D01*
X0001323292Y0001380260D02*
X0001342040Y0001380260D01*
X0001342040Y0001419630D01*
X0001323292Y0001419630D01*
X0001285797Y0001417755D02*
X0001289547Y0001419630D01*
X0001295171Y0001419630D01*
X0001300795Y0001417755D01*
X0001304545Y0001414006D01*
X0001306420Y0001410256D01*
X0001308294Y0001402757D01*
X0001308294Y0001397133D01*
X0001306420Y0001389634D01*
X0001304545Y0001385884D01*
X0001300795Y0001382135D01*
X0001295171Y0001380260D01*
X0001291421Y0001380260D01*
X0001285797Y0001382135D01*
X0001283922Y0001384010D01*
X0001283922Y0001397133D01*
X0001291421Y0001397133D01*
X0001268924Y0001391509D02*
X0001250177Y0001391509D01*
X0001272674Y0001380260D02*
X0001259550Y0001419630D01*
X0001246427Y0001380260D01*
X0001237053Y0001419630D02*
X0001212681Y0001419630D01*
X0001225805Y0001404632D01*
X0001220180Y0001404632D01*
X0001216431Y0001402757D01*
X0001214556Y0001400883D01*
X0001212681Y0001397133D01*
X0001212681Y0001387759D01*
X0001214556Y0001384010D01*
X0001216431Y0001382135D01*
X0001220180Y0001380260D01*
X0001231429Y0001380260D01*
X0001235179Y0001382135D01*
X0001237053Y0001384010D01*
X0001197683Y0001415881D02*
X0001195808Y0001417755D01*
X0001192059Y0001419630D01*
X0001182685Y0001419630D01*
X0001178936Y0001417755D01*
X0001177061Y0001415881D01*
X0001175186Y0001412131D01*
X0001175186Y0001408382D01*
X0001177061Y0001402757D01*
X0001199558Y0001380260D01*
X0001175186Y0001380260D01*
X0001152689Y0001402757D02*
X0001156438Y0001404632D01*
X0001158313Y0001406507D01*
X0001160188Y0001410256D01*
X0001160188Y0001412131D01*
X0001158313Y0001415881D01*
X0001156438Y0001417755D01*
X0001152689Y0001419630D01*
X0001145190Y0001419630D01*
X0001141440Y0001417755D01*
X0001139565Y0001415881D01*
X0001137691Y0001412131D01*
X0001137691Y0001410256D01*
X0001139565Y0001406507D01*
X0001141440Y0001404632D01*
X0001145190Y0001402757D01*
X0001152689Y0001402757D01*
X0001156438Y0001400883D01*
X0001158313Y0001399008D01*
X0001160188Y0001395258D01*
X0001160188Y0001387759D01*
X0001158313Y0001384010D01*
X0001156438Y0001382135D01*
X0001152689Y0001380260D01*
X0001145190Y0001380260D01*
X0001141440Y0001382135D01*
X0001139565Y0001384010D01*
X0001137691Y0001387759D01*
X0001137691Y0001395258D01*
X0001139565Y0001399008D01*
X0001141440Y0001400883D01*
X0001145190Y0001402757D01*
X0001120818Y0001380260D02*
X0001120818Y0001419630D01*
X0001105820Y0001419630D01*
X0001102070Y0001417755D01*
X0001100195Y0001415881D01*
X0001098321Y0001412131D01*
X0001098321Y0001406507D01*
X0001100195Y0001402757D01*
X0001102070Y0001400883D01*
X0001105820Y0001399008D01*
X0001120818Y0001399008D01*
X0001081448Y0001395258D02*
X0001051451Y0001395258D01*
X0001032704Y0001380260D02*
X0001032704Y0001419630D01*
X0001017706Y0001419630D01*
X0001013956Y0001417755D01*
X0001012081Y0001415881D01*
X0001010207Y0001412131D01*
X0001010207Y0001406507D01*
X0001012081Y0001402757D01*
X0001013956Y0001400883D01*
X0001017706Y0001399008D01*
X0001032704Y0001399008D01*
X0000993334Y0001419630D02*
X0000993334Y0001387759D01*
X0000991459Y0001384010D01*
X0000989584Y0001382135D01*
X0000985835Y0001380260D01*
X0000978336Y0001380260D01*
X0000974586Y0001382135D01*
X0000972711Y0001384010D01*
X0000970837Y0001387759D01*
X0000970837Y0001419630D01*
X0000622358Y0002050882D02*
X0000616734Y0002049008D01*
X0000614859Y0002047133D01*
X0000612984Y0002043383D01*
X0000612984Y0002037759D01*
X0000614859Y0002034010D01*
X0000616734Y0002032135D01*
X0000620483Y0002030260D01*
X0000635481Y0002030260D01*
X0000635481Y0002069630D01*
X0000622358Y0002069630D01*
X0000618608Y0002067755D01*
X0000616734Y0002065881D01*
X0000614859Y0002062131D01*
X0000614859Y0002058382D01*
X0000616734Y0002054632D01*
X0000618608Y0002052757D01*
X0000622358Y0002050882D01*
X0000635481Y0002050882D01*
X0000597986Y0002041509D02*
X0000579238Y0002041509D01*
X0000601736Y0002030260D02*
X0000588612Y0002069630D01*
X0000575489Y0002030260D01*
X0000567990Y0002069630D02*
X0000545492Y0002069630D01*
X0000556741Y0002030260D02*
X0000556741Y0002069630D01*
X0000537993Y0002069630D02*
X0000515496Y0002069630D01*
X0000526745Y0002030260D02*
X0000526745Y0002069630D01*
X0000511747Y0002026511D02*
X0000481750Y0002026511D01*
X0000472377Y0002030260D02*
X0000472377Y0002069630D01*
X0000453629Y0002030260D02*
X0000453629Y0002069630D01*
X0000431132Y0002030260D01*
X0000431132Y0002069630D01*
X0000331106Y0002050882D02*
X0000344229Y0002050882D01*
X0000344229Y0002030260D02*
X0000344229Y0002069630D01*
X0000325481Y0002069630D01*
X0000314233Y0002069630D02*
X0000304859Y0002030260D01*
X0000297360Y0002058382D01*
X0000289861Y0002030260D01*
X0000280487Y0002069630D01*
X0000274863Y0002026511D02*
X0000244866Y0002026511D01*
X0000235493Y0002030260D02*
X0000235493Y0002069630D01*
X0000222369Y0002041509D01*
X0000209246Y0002069630D01*
X0000209246Y0002030260D01*
X0000196122Y0002069630D02*
X0000173625Y0002069630D01*
X0000184874Y0002030260D02*
X0000184874Y0002069630D01*
X0000138005Y0002030260D02*
X0000151128Y0002049008D01*
X0000160502Y0002030260D02*
X0000160502Y0002069630D01*
X0000145504Y0002069630D01*
X0000141754Y0002067755D01*
X0000139879Y0002065881D01*
X0000138005Y0002062131D01*
X0000138005Y0002056507D01*
X0000139879Y0002052757D01*
X0000141754Y0002050882D01*
X0000145504Y0002049008D01*
X0000160502Y0002049008D01*
X0000123007Y0002032135D02*
X0000117382Y0002030260D01*
X0000108008Y0002030260D01*
X0000104259Y0002032135D01*
X0000102384Y0002034010D01*
X0000100509Y0002037759D01*
X0000100509Y0002041509D01*
X0000102384Y0002045258D01*
X0000104259Y0002047133D01*
X0000108008Y0002049008D01*
X0000115508Y0002050882D01*
X0000119257Y0002052757D01*
X0000121132Y0002054632D01*
X0000123007Y0002058382D01*
X0000123007Y0002062131D01*
X0000121132Y0002065881D01*
X0000119257Y0002067755D01*
X0000115508Y0002069630D01*
X0000106134Y0002069630D01*
X0000100509Y0002067755D01*
X0001764300Y0001593822D02*
X0001782298Y0001593822D01*
X0001773299Y0001593822D02*
X0001773299Y0001625318D01*
X0001776299Y0001620819D01*
X0001779298Y0001617819D01*
X0001782298Y0001616319D01*
X0001737304Y0001625318D02*
X0001743303Y0001625318D01*
X0001746302Y0001623818D01*
X0001747802Y0001622319D01*
X0001750802Y0001617819D01*
X0001752302Y0001611820D01*
X0001752302Y0001599821D01*
X0001750802Y0001596822D01*
X0001749302Y0001595322D01*
X0001746302Y0001593822D01*
X0001740303Y0001593822D01*
X0001737304Y0001595322D01*
X0001735804Y0001596822D01*
X0001734304Y0001599821D01*
X0001734304Y0001607320D01*
X0001735804Y0001610320D01*
X0001737304Y0001611820D01*
X0001740303Y0001613320D01*
X0001746302Y0001613320D01*
X0001749302Y0001611820D01*
X0001750802Y0001610320D01*
X0001752302Y0001607320D01*
X0001720806Y0001593822D02*
X0001720806Y0001625318D01*
X0001710307Y0001602821D01*
X0001699808Y0001625318D01*
X0001699808Y0001593822D01*
X0001684810Y0001593822D02*
X0001684810Y0001625318D01*
X0001671312Y0001593822D02*
X0001671312Y0001610320D01*
X0001672812Y0001613320D01*
X0001675811Y0001614820D01*
X0001680311Y0001614820D01*
X0001683310Y0001613320D01*
X0001684810Y0001611820D01*
X0001659313Y0001614820D02*
X0001642815Y0001614820D01*
X0001659313Y0001593822D01*
X0001642815Y0001593822D01*
X0000111117Y0001667435D02*
X0000111117Y0001689932D01*
X0000111117Y0001678683D02*
X0000071747Y0001678683D01*
X0000077371Y0001682433D01*
X0000081121Y0001686182D01*
X0000082995Y0001689932D01*
X0000111117Y0001650562D02*
X0000071747Y0001650562D01*
X0000111117Y0001628065D01*
X0000071747Y0001628065D01*
X0000071747Y0001590569D02*
X0000071747Y0001609317D01*
X0000090494Y0001611192D01*
X0000088620Y0001609317D01*
X0000086745Y0001605568D01*
X0000086745Y0001596194D01*
X0000088620Y0001592444D01*
X0000090494Y0001590569D01*
X0000094244Y0001588695D01*
X0000103618Y0001588695D01*
X0000107367Y0001590569D01*
X0000109242Y0001592444D01*
X0000111117Y0001596194D01*
X0000111117Y0001605568D01*
X0000109242Y0001609317D01*
X0000107367Y0001611192D01*
X0000084870Y0001554949D02*
X0000111117Y0001554949D01*
X0000069872Y0001564323D02*
X0000097993Y0001573697D01*
X0000097993Y0001549325D01*
X0000071747Y0001526827D02*
X0000071747Y0001523078D01*
X0000073622Y0001519328D01*
X0000075496Y0001517454D01*
X0000079246Y0001515579D01*
X0000086745Y0001513704D01*
X0000096119Y0001513704D01*
X0000103618Y0001515579D01*
X0000107367Y0001517454D01*
X0000109242Y0001519328D01*
X0000111117Y0001523078D01*
X0000111117Y0001526827D01*
X0000109242Y0001530577D01*
X0000107367Y0001532452D01*
X0000103618Y0001534326D01*
X0000096119Y0001536201D01*
X0000086745Y0001536201D01*
X0000079246Y0001534326D01*
X0000075496Y0001532452D01*
X0000073622Y0001530577D01*
X0000071747Y0001526827D01*
X0000111117Y0001476209D02*
X0000111117Y0001498706D01*
X0000111117Y0001487457D02*
X0000071747Y0001487457D01*
X0000077371Y0001491207D01*
X0000081121Y0001494956D01*
X0000082995Y0001498706D01*
D33*
X0000359973Y0001073904D02*
X0000354973Y0001072237D01*
X0000346640Y0001072237D01*
X0000343307Y0001073904D01*
X0000341640Y0001075570D01*
X0000339973Y0001078904D01*
X0000339973Y0001082237D01*
X0000341640Y0001085570D01*
X0000343307Y0001087237D01*
X0000346640Y0001088904D01*
X0000353307Y0001090570D01*
X0000356640Y0001092237D01*
X0000358307Y0001093904D01*
X0000359973Y0001097237D01*
X0000359973Y0001100570D01*
X0000358307Y0001103904D01*
X0000356640Y0001105570D01*
X0000353307Y0001107237D01*
X0000344973Y0001107237D01*
X0000339973Y0001105570D01*
X0000324973Y0001095570D02*
X0000324973Y0001060570D01*
X0000324973Y0001093904D02*
X0000321640Y0001095570D01*
X0000314973Y0001095570D01*
X0000311640Y0001093904D01*
X0000309973Y0001092237D01*
X0000308307Y0001088904D01*
X0000308307Y0001078904D01*
X0000309973Y0001075570D01*
X0000311640Y0001073904D01*
X0000314973Y0001072237D01*
X0000321640Y0001072237D01*
X0000324973Y0001073904D01*
X0000279973Y0001073904D02*
X0000283307Y0001072237D01*
X0000289973Y0001072237D01*
X0000293307Y0001073904D01*
X0000294973Y0001077237D01*
X0000294973Y0001090570D01*
X0000293307Y0001093904D01*
X0000289973Y0001095570D01*
X0000283307Y0001095570D01*
X0000279973Y0001093904D01*
X0000278307Y0001090570D01*
X0000278307Y0001087237D01*
X0000294973Y0001083904D01*
X0000248307Y0001072237D02*
X0000248307Y0001090570D01*
X0000249973Y0001093904D01*
X0000253307Y0001095570D01*
X0000259973Y0001095570D01*
X0000263307Y0001093904D01*
X0000248307Y0001073904D02*
X0000251640Y0001072237D01*
X0000259973Y0001072237D01*
X0000263307Y0001073904D01*
X0000264973Y0001077237D01*
X0000264973Y0001080570D01*
X0000263307Y0001083904D01*
X0000259973Y0001085570D01*
X0000251640Y0001085570D01*
X0000248307Y0001087237D01*
X0000231640Y0001072237D02*
X0000231640Y0001107237D01*
X0000228307Y0001085570D02*
X0000218307Y0001072237D01*
X0000218307Y0001095570D02*
X0000231640Y0001082237D01*
X0000189973Y0001073904D02*
X0000193307Y0001072237D01*
X0000199973Y0001072237D01*
X0000203307Y0001073904D01*
X0000204973Y0001077237D01*
X0000204973Y0001090570D01*
X0000203307Y0001093904D01*
X0000199973Y0001095570D01*
X0000193307Y0001095570D01*
X0000189973Y0001093904D01*
X0000188307Y0001090570D01*
X0000188307Y0001087237D01*
X0000204973Y0001083904D01*
X0000173307Y0001072237D02*
X0000173307Y0001095570D01*
X0000173307Y0001088904D02*
X0000171640Y0001092237D01*
X0000169973Y0001093904D01*
X0000166640Y0001095570D01*
X0000163307Y0001095570D01*
D28*
X0001140491Y0001740260D02*
X0001162988Y0001740260D01*
X0001151739Y0001740260D02*
X0001151739Y0001779630D01*
X0001155489Y0001774006D01*
X0001159238Y0001770256D01*
X0001162988Y0001768382D01*
X0001116119Y0001779630D02*
X0001112369Y0001779630D01*
X0001108620Y0001777755D01*
X0001106745Y0001775881D01*
X0001104870Y0001772131D01*
X0001102995Y0001764632D01*
X0001102995Y0001755258D01*
X0001104870Y0001747759D01*
X0001106745Y0001744010D01*
X0001108620Y0001742135D01*
X0001112369Y0001740260D01*
X0001116119Y0001740260D01*
X0001119868Y0001742135D01*
X0001121743Y0001744010D01*
X0001123618Y0001747759D01*
X0001125493Y0001755258D01*
X0001125493Y0001764632D01*
X0001123618Y0001772131D01*
X0001121743Y0001775881D01*
X0001119868Y0001777755D01*
X0001116119Y0001779630D01*
X0001086122Y0001740260D02*
X0001086122Y0001779630D01*
X0001063625Y0001740260D02*
X0001080498Y0001762757D01*
X0001063625Y0001779630D02*
X0001086122Y0001757133D01*
X0001421743Y0001740260D02*
X0001444240Y0001740260D01*
X0001432992Y0001740260D02*
X0001432992Y0001779630D01*
X0001436741Y0001774006D01*
X0001440491Y0001770256D01*
X0001444240Y0001768382D01*
X0001404870Y0001740260D02*
X0001404870Y0001779630D01*
X0001382373Y0001740260D02*
X0001399246Y0001762757D01*
X0001382373Y0001779630D02*
X0001404870Y0001757133D01*
X0000842054Y0000963822D02*
X0000860052Y0000963822D01*
X0000851053Y0000963822D02*
X0000851053Y0000995318D01*
X0000854053Y0000990819D01*
X0000857052Y0000987819D01*
X0000860052Y0000986319D01*
X0000815058Y0000984820D02*
X0000815058Y0000963822D01*
X0000828556Y0000984820D02*
X0000828556Y0000968322D01*
X0000827056Y0000965322D01*
X0000824056Y0000963822D01*
X0000819557Y0000963822D01*
X0000816557Y0000965322D01*
X0000815058Y0000966822D01*
X0000789561Y0000980320D02*
X0000800059Y0000980320D01*
X0000800059Y0000963822D02*
X0000800059Y0000995318D01*
X0000785061Y0000995318D01*
X0000782054Y0000913822D02*
X0000800052Y0000913822D01*
X0000791053Y0000913822D02*
X0000791053Y0000945318D01*
X0000794053Y0000940819D01*
X0000797052Y0000937819D01*
X0000800052Y0000936319D01*
X0000755058Y0000934820D02*
X0000755058Y0000913822D01*
X0000768556Y0000934820D02*
X0000768556Y0000918322D01*
X0000767056Y0000915322D01*
X0000764056Y0000913822D01*
X0000759557Y0000913822D01*
X0000756557Y0000915322D01*
X0000755058Y0000916822D01*
X0000729561Y0000930320D02*
X0000740059Y0000930320D01*
X0000740059Y0000913822D02*
X0000740059Y0000945318D01*
X0000725061Y0000945318D01*
X0001315050Y0001850318D02*
X0001312050Y0001850318D01*
X0001309051Y0001848818D01*
X0001307551Y0001847319D01*
X0001306051Y0001844319D01*
X0001304551Y0001838320D01*
X0001304551Y0001830821D01*
X0001306051Y0001824821D01*
X0001307551Y0001821822D01*
X0001309051Y0001820322D01*
X0001312050Y0001818822D01*
X0001315050Y0001818822D01*
X0001318050Y0001820322D01*
X0001319550Y0001821822D01*
X0001321049Y0001824821D01*
X0001322549Y0001830821D01*
X0001322549Y0001838320D01*
X0001321049Y0001844319D01*
X0001319550Y0001847319D01*
X0001318050Y0001848818D01*
X0001315050Y0001850318D01*
X0001291053Y0001821822D02*
X0001289553Y0001820322D01*
X0001291053Y0001818822D01*
X0001292553Y0001820322D01*
X0001291053Y0001821822D01*
X0001291053Y0001818822D01*
X0001259557Y0001818822D02*
X0001277555Y0001818822D01*
X0001268556Y0001818822D02*
X0001268556Y0001850318D01*
X0001271556Y0001845819D01*
X0001274555Y0001842819D01*
X0001277555Y0001841319D01*
X0001232560Y0001839820D02*
X0001232560Y0001818822D01*
X0001246059Y0001839820D02*
X0001246059Y0001823322D01*
X0001244559Y0001820322D01*
X0001241559Y0001818822D01*
X0001237060Y0001818822D01*
X0001234060Y0001820322D01*
X0001232560Y0001821822D01*
X0001207064Y0001835320D02*
X0001217562Y0001835320D01*
X0001217562Y0001818822D02*
X0001217562Y0001850318D01*
X0001202564Y0001850318D01*
X0000645271Y0001124118D02*
X0000645271Y0001092247D01*
X0000643397Y0001088498D01*
X0000641522Y0001086623D01*
X0000637772Y0001084748D01*
X0000630273Y0001084748D01*
X0000626524Y0001086623D01*
X0000624649Y0001088498D01*
X0000622774Y0001092247D01*
X0000622774Y0001124118D01*
X0000583404Y0001084748D02*
X0000605901Y0001084748D01*
X0000594653Y0001084748D02*
X0000594653Y0001124118D01*
X0000598402Y0001118494D01*
X0000602152Y0001114745D01*
X0000605901Y0001112870D01*
X0000740791Y0001240260D02*
X0000740791Y0001279630D01*
X0000727667Y0001251509D01*
X0000714544Y0001279630D01*
X0000714544Y0001240260D01*
X0000673299Y0001244010D02*
X0000675174Y0001242135D01*
X0000680798Y0001240260D01*
X0000684548Y0001240260D01*
X0000690172Y0001242135D01*
X0000693922Y0001245884D01*
X0000695796Y0001249634D01*
X0000697671Y0001257133D01*
X0000697671Y0001262757D01*
X0000695796Y0001270256D01*
X0000693922Y0001274006D01*
X0000690172Y0001277755D01*
X0000684548Y0001279630D01*
X0000680798Y0001279630D01*
X0000675174Y0001277755D01*
X0000673299Y0001275881D01*
X0000656426Y0001240260D02*
X0000656426Y0001279630D01*
X0000641428Y0001279630D01*
X0000637678Y0001277755D01*
X0000635804Y0001275881D01*
X0000633929Y0001272131D01*
X0000633929Y0001266507D01*
X0000635804Y0001262757D01*
X0000637678Y0001260882D01*
X0000641428Y0001259008D01*
X0000656426Y0001259008D01*
X0000596434Y0001240260D02*
X0000618931Y0001240260D01*
X0000607682Y0001240260D02*
X0000607682Y0001279630D01*
X0000611432Y0001274006D01*
X0000615181Y0001270256D01*
X0000618931Y0001268382D01*
X0000583310Y0001279630D02*
X0000557064Y0001279630D01*
X0000573937Y0001240260D01*
X0000534566Y0001279630D02*
X0000530817Y0001279630D01*
X0000527067Y0001277755D01*
X0000525193Y0001275881D01*
X0000523318Y0001272131D01*
X0000521443Y0001264632D01*
X0000521443Y0001255258D01*
X0000523318Y0001247759D01*
X0000525193Y0001244010D01*
X0000527067Y0001242135D01*
X0000530817Y0001240260D01*
X0000534566Y0001240260D01*
X0000538316Y0001242135D01*
X0000540191Y0001244010D01*
X0000542065Y0001247759D01*
X0000543940Y0001255258D01*
X0000543940Y0001264632D01*
X0000542065Y0001272131D01*
X0000540191Y0001275881D01*
X0000538316Y0001277755D01*
X0000534566Y0001279630D01*
X0000506445Y0001275881D02*
X0000504570Y0001277755D01*
X0000500821Y0001279630D01*
X0000491447Y0001279630D01*
X0000487697Y0001277755D01*
X0000485822Y0001275881D01*
X0000483948Y0001272131D01*
X0000483948Y0001268382D01*
X0000485822Y0001262757D01*
X0000508320Y0001240260D01*
X0000483948Y0001240260D01*
X0001690050Y0001775318D02*
X0001687050Y0001775318D01*
X0001684051Y0001773818D01*
X0001682551Y0001772319D01*
X0001681051Y0001769319D01*
X0001679551Y0001763320D01*
X0001679551Y0001755821D01*
X0001681051Y0001749821D01*
X0001682551Y0001746822D01*
X0001684051Y0001745322D01*
X0001687050Y0001743822D01*
X0001690050Y0001743822D01*
X0001693050Y0001745322D01*
X0001694550Y0001746822D01*
X0001696049Y0001749821D01*
X0001697549Y0001755821D01*
X0001697549Y0001763320D01*
X0001696049Y0001769319D01*
X0001694550Y0001772319D01*
X0001693050Y0001773818D01*
X0001690050Y0001775318D01*
X0001666053Y0001746822D02*
X0001664553Y0001745322D01*
X0001666053Y0001743822D01*
X0001667553Y0001745322D01*
X0001666053Y0001746822D01*
X0001666053Y0001743822D01*
X0001634557Y0001743822D02*
X0001652555Y0001743822D01*
X0001643556Y0001743822D02*
X0001643556Y0001775318D01*
X0001646556Y0001770819D01*
X0001649555Y0001767819D01*
X0001652555Y0001766319D01*
X0001607560Y0001764820D02*
X0001607560Y0001743822D01*
X0001621059Y0001764820D02*
X0001621059Y0001748322D01*
X0001619559Y0001745322D01*
X0001616559Y0001743822D01*
X0001612060Y0001743822D01*
X0001609060Y0001745322D01*
X0001607560Y0001746822D01*
X0001582064Y0001760320D02*
X0001592562Y0001760320D01*
X0001592562Y0001743822D02*
X0001592562Y0001775318D01*
X0001577564Y0001775318D01*
X0000915050Y0001850318D02*
X0000912050Y0001850318D01*
X0000909051Y0001848818D01*
X0000907551Y0001847319D01*
X0000906051Y0001844319D01*
X0000904551Y0001838320D01*
X0000904551Y0001830821D01*
X0000906051Y0001824821D01*
X0000907551Y0001821822D01*
X0000909051Y0001820322D01*
X0000912050Y0001818822D01*
X0000915050Y0001818822D01*
X0000918050Y0001820322D01*
X0000919550Y0001821822D01*
X0000921049Y0001824821D01*
X0000922549Y0001830821D01*
X0000922549Y0001838320D01*
X0000921049Y0001844319D01*
X0000919550Y0001847319D01*
X0000918050Y0001848818D01*
X0000915050Y0001850318D01*
X0000891053Y0001821822D02*
X0000889553Y0001820322D01*
X0000891053Y0001818822D01*
X0000892553Y0001820322D01*
X0000891053Y0001821822D01*
X0000891053Y0001818822D01*
X0000859557Y0001818822D02*
X0000877555Y0001818822D01*
X0000868556Y0001818822D02*
X0000868556Y0001850318D01*
X0000871556Y0001845819D01*
X0000874555Y0001842819D01*
X0000877555Y0001841319D01*
X0000832560Y0001839820D02*
X0000832560Y0001818822D01*
X0000846059Y0001839820D02*
X0000846059Y0001823322D01*
X0000844559Y0001820322D01*
X0000841559Y0001818822D01*
X0000837060Y0001818822D01*
X0000834060Y0001820322D01*
X0000832560Y0001821822D01*
X0000807064Y0001835320D02*
X0000817562Y0001835320D01*
X0000817562Y0001818822D02*
X0000817562Y0001850318D01*
X0000802564Y0001850318D01*
X0000731117Y0001485254D02*
X0000731117Y0001507752D01*
X0000731117Y0001496503D02*
X0000691747Y0001496503D01*
X0000697371Y0001500253D01*
X0000701121Y0001504002D01*
X0000702995Y0001507752D01*
X0000691747Y0001460883D02*
X0000691747Y0001457133D01*
X0000693622Y0001453383D01*
X0000695496Y0001451509D01*
X0000699246Y0001449634D01*
X0000706745Y0001447759D01*
X0000716119Y0001447759D01*
X0000723618Y0001449634D01*
X0000727367Y0001451509D01*
X0000729242Y0001453383D01*
X0000731117Y0001457133D01*
X0000731117Y0001460883D01*
X0000729242Y0001464632D01*
X0000727367Y0001466507D01*
X0000723618Y0001468382D01*
X0000716119Y0001470256D01*
X0000706745Y0001470256D01*
X0000699246Y0001468382D01*
X0000695496Y0001466507D01*
X0000693622Y0001464632D01*
X0000691747Y0001460883D01*
X0000731117Y0001430886D02*
X0000691747Y0001430886D01*
X0000731117Y0001408389D02*
X0000708620Y0001425262D01*
X0000691747Y0001408389D02*
X0000714244Y0001430886D01*
X0002015050Y0001200318D02*
X0002012050Y0001200318D01*
X0002009051Y0001198818D01*
X0002007551Y0001197319D01*
X0002006051Y0001194319D01*
X0002004551Y0001188320D01*
X0002004551Y0001180821D01*
X0002006051Y0001174821D01*
X0002007551Y0001171822D01*
X0002009051Y0001170322D01*
X0002012050Y0001168822D01*
X0002015050Y0001168822D01*
X0002018050Y0001170322D01*
X0002019550Y0001171822D01*
X0002021049Y0001174821D01*
X0002022549Y0001180821D01*
X0002022549Y0001188320D01*
X0002021049Y0001194319D01*
X0002019550Y0001197319D01*
X0002018050Y0001198818D01*
X0002015050Y0001200318D01*
X0001991053Y0001171822D02*
X0001989553Y0001170322D01*
X0001991053Y0001168822D01*
X0001992553Y0001170322D01*
X0001991053Y0001171822D01*
X0001991053Y0001168822D01*
X0001959557Y0001168822D02*
X0001977555Y0001168822D01*
X0001968556Y0001168822D02*
X0001968556Y0001200318D01*
X0001971556Y0001195819D01*
X0001974555Y0001192819D01*
X0001977555Y0001191319D01*
X0001932560Y0001189820D02*
X0001932560Y0001168822D01*
X0001946059Y0001189820D02*
X0001946059Y0001173322D01*
X0001944559Y0001170322D01*
X0001941559Y0001168822D01*
X0001937060Y0001168822D01*
X0001934060Y0001170322D01*
X0001932560Y0001171822D01*
X0001907064Y0001185320D02*
X0001917562Y0001185320D01*
X0001917562Y0001168822D02*
X0001917562Y0001200318D01*
X0001902564Y0001200318D01*
X0002031117Y0000916507D02*
X0002031117Y0000939004D01*
X0002031117Y0000927755D02*
X0001991747Y0000927755D01*
X0001997371Y0000931505D01*
X0002001121Y0000935254D01*
X0002002995Y0000939004D01*
X0002031117Y0000899634D02*
X0001991747Y0000899634D01*
X0002031117Y0000877137D02*
X0002008620Y0000894010D01*
X0001991747Y0000877137D02*
X0002014244Y0000899634D01*
X0001931117Y0000935254D02*
X0001931117Y0000957752D01*
X0001931117Y0000946503D02*
X0001891747Y0000946503D01*
X0001897371Y0000950253D01*
X0001901121Y0000954002D01*
X0001902995Y0000957752D01*
X0001891747Y0000910883D02*
X0001891747Y0000907133D01*
X0001893622Y0000903383D01*
X0001895496Y0000901509D01*
X0001899246Y0000899634D01*
X0001906745Y0000897759D01*
X0001916119Y0000897759D01*
X0001923618Y0000899634D01*
X0001927367Y0000901509D01*
X0001929242Y0000903383D01*
X0001931117Y0000907133D01*
X0001931117Y0000910883D01*
X0001929242Y0000914632D01*
X0001927367Y0000916507D01*
X0001923618Y0000918382D01*
X0001916119Y0000920256D01*
X0001906745Y0000920256D01*
X0001899246Y0000918382D01*
X0001895496Y0000916507D01*
X0001893622Y0000914632D01*
X0001891747Y0000910883D01*
X0001931117Y0000880886D02*
X0001891747Y0000880886D01*
X0001931117Y0000858389D02*
X0001908620Y0000875262D01*
X0001891747Y0000858389D02*
X0001914244Y0000880886D01*
X0000631117Y0001485254D02*
X0000631117Y0001507752D01*
X0000631117Y0001496503D02*
X0000591747Y0001496503D01*
X0000597371Y0001500253D01*
X0000601121Y0001504002D01*
X0000602995Y0001507752D01*
X0000591747Y0001460883D02*
X0000591747Y0001457133D01*
X0000593622Y0001453383D01*
X0000595496Y0001451509D01*
X0000599246Y0001449634D01*
X0000606745Y0001447759D01*
X0000616119Y0001447759D01*
X0000623618Y0001449634D01*
X0000627367Y0001451509D01*
X0000629242Y0001453383D01*
X0000631117Y0001457133D01*
X0000631117Y0001460883D01*
X0000629242Y0001464632D01*
X0000627367Y0001466507D01*
X0000623618Y0001468382D01*
X0000616119Y0001470256D01*
X0000606745Y0001470256D01*
X0000599246Y0001468382D01*
X0000595496Y0001466507D01*
X0000593622Y0001464632D01*
X0000591747Y0001460883D01*
X0000631117Y0001430886D02*
X0000591747Y0001430886D01*
X0000631117Y0001408389D02*
X0000608620Y0001425262D01*
X0000591747Y0001408389D02*
X0000614244Y0001430886D01*
X0000531117Y0001484317D02*
X0000531117Y0001506814D01*
X0000531117Y0001495566D02*
X0000491747Y0001495566D01*
X0000497371Y0001499315D01*
X0000501121Y0001503065D01*
X0000502995Y0001506814D01*
X0000491747Y0001459945D02*
X0000491747Y0001456196D01*
X0000493622Y0001452446D01*
X0000495496Y0001450571D01*
X0000499246Y0001448697D01*
X0000506745Y0001446822D01*
X0000516119Y0001446822D01*
X0000523618Y0001448697D01*
X0000527367Y0001450571D01*
X0000529242Y0001452446D01*
X0000531117Y0001456196D01*
X0000531117Y0001459945D01*
X0000529242Y0001463695D01*
X0000527367Y0001465569D01*
X0000523618Y0001467444D01*
X0000516119Y0001469319D01*
X0000506745Y0001469319D01*
X0000499246Y0001467444D01*
X0000495496Y0001465569D01*
X0000493622Y0001463695D01*
X0000491747Y0001459945D01*
X0000491747Y0001422450D02*
X0000491747Y0001418700D01*
X0000493622Y0001414951D01*
X0000495496Y0001413076D01*
X0000499246Y0001411201D01*
X0000506745Y0001409326D01*
X0000516119Y0001409326D01*
X0000523618Y0001411201D01*
X0000527367Y0001413076D01*
X0000529242Y0001414951D01*
X0000531117Y0001418700D01*
X0000531117Y0001422450D01*
X0000529242Y0001426199D01*
X0000527367Y0001428074D01*
X0000523618Y0001429949D01*
X0000516119Y0001431824D01*
X0000506745Y0001431824D01*
X0000499246Y0001429949D01*
X0000495496Y0001428074D01*
X0000493622Y0001426199D01*
X0000491747Y0001422450D01*
X0002021743Y0001640260D02*
X0002044240Y0001640260D01*
X0002032992Y0001640260D02*
X0002032992Y0001679630D01*
X0002036741Y0001674006D01*
X0002040491Y0001670256D01*
X0002044240Y0001668382D01*
X0002004870Y0001640260D02*
X0002004870Y0001679630D01*
X0001982373Y0001640260D02*
X0001999246Y0001662757D01*
X0001982373Y0001679630D02*
X0002004870Y0001657133D01*
X0001252555Y0001039810D02*
X0001252555Y0001057808D01*
X0001252555Y0001048809D02*
X0001221059Y0001048809D01*
X0001225558Y0001051809D01*
X0001228558Y0001054808D01*
X0001230058Y0001057808D01*
X0001221059Y0001020313D02*
X0001221059Y0001017313D01*
X0001222559Y0001014313D01*
X0001224058Y0001012814D01*
X0001227058Y0001011314D01*
X0001233057Y0001009814D01*
X0001240556Y0001009814D01*
X0001246556Y0001011314D01*
X0001249555Y0001012814D01*
X0001251055Y0001014313D01*
X0001252555Y0001017313D01*
X0001252555Y0001020313D01*
X0001251055Y0001023312D01*
X0001249555Y0001024812D01*
X0001246556Y0001026312D01*
X0001240556Y0001027812D01*
X0001233057Y0001027812D01*
X0001227058Y0001026312D01*
X0001224058Y0001024812D01*
X0001222559Y0001023312D01*
X0001221059Y0001020313D01*
X0001221059Y0000990316D02*
X0001221059Y0000987317D01*
X0001222559Y0000984317D01*
X0001224058Y0000982817D01*
X0001227058Y0000981317D01*
X0001233057Y0000979818D01*
X0001240556Y0000979818D01*
X0001246556Y0000981317D01*
X0001249555Y0000982817D01*
X0001251055Y0000984317D01*
X0001252555Y0000987317D01*
X0001252555Y0000990316D01*
X0001251055Y0000993316D01*
X0001249555Y0000994816D01*
X0001246556Y0000996316D01*
X0001240556Y0000997815D01*
X0001233057Y0000997815D01*
X0001227058Y0000996316D01*
X0001224058Y0000994816D01*
X0001222559Y0000993316D01*
X0001221059Y0000990316D01*
X0001252555Y0000966319D02*
X0001221059Y0000966319D01*
X0001252555Y0000948322D02*
X0001234557Y0000961820D01*
X0001221059Y0000948322D02*
X0001239057Y0000966319D01*
X0001252555Y0000894328D02*
X0001252555Y0000912326D01*
X0001252555Y0000903327D02*
X0001221059Y0000903327D01*
X0001225558Y0000906327D01*
X0001228558Y0000909326D01*
X0001230058Y0000912326D01*
X0001252555Y0000882330D02*
X0001221059Y0000858333D01*
X0001221059Y0000877830D02*
X0001222559Y0000874831D01*
X0001225558Y0000873331D01*
X0001228558Y0000874831D01*
X0001230058Y0000877830D01*
X0001228558Y0000880830D01*
X0001225558Y0000882330D01*
X0001222559Y0000880830D01*
X0001221059Y0000877830D01*
X0001251055Y0000859833D02*
X0001248055Y0000858333D01*
X0001245056Y0000859833D01*
X0001243556Y0000862832D01*
X0001245056Y0000865832D01*
X0001248055Y0000867332D01*
X0001251055Y0000865832D01*
X0001252555Y0000862832D01*
X0001251055Y0000859833D01*
X0001352555Y0001024812D02*
X0001352555Y0001042810D01*
X0001352555Y0001033811D02*
X0001321059Y0001033811D01*
X0001325558Y0001036810D01*
X0001328558Y0001039810D01*
X0001330058Y0001042810D01*
X0001321059Y0001005314D02*
X0001321059Y0001002315D01*
X0001322559Y0000999315D01*
X0001324058Y0000997815D01*
X0001327058Y0000996316D01*
X0001333057Y0000994816D01*
X0001340556Y0000994816D01*
X0001346556Y0000996316D01*
X0001349555Y0000997815D01*
X0001351055Y0000999315D01*
X0001352555Y0001002315D01*
X0001352555Y0001005314D01*
X0001351055Y0001008314D01*
X0001349555Y0001009814D01*
X0001346556Y0001011314D01*
X0001340556Y0001012814D01*
X0001333057Y0001012814D01*
X0001327058Y0001011314D01*
X0001324058Y0001009814D01*
X0001322559Y0001008314D01*
X0001321059Y0001005314D01*
X0001352555Y0000981317D02*
X0001321059Y0000981317D01*
X0001352555Y0000963320D02*
X0001334557Y0000976818D01*
X0001321059Y0000963320D02*
X0001339056Y0000981317D01*
X0001352555Y0000909326D02*
X0001352555Y0000927324D01*
X0001352555Y0000918325D02*
X0001321059Y0000918325D01*
X0001325558Y0000921325D01*
X0001328558Y0000924325D01*
X0001330058Y0000927324D01*
X0001352555Y0000897328D02*
X0001321059Y0000873331D01*
X0001321059Y0000892828D02*
X0001322559Y0000889829D01*
X0001325558Y0000888329D01*
X0001328558Y0000889829D01*
X0001330058Y0000892828D01*
X0001328558Y0000895828D01*
X0001325558Y0000897328D01*
X0001322559Y0000895828D01*
X0001321059Y0000892828D01*
X0001351055Y0000874831D02*
X0001348055Y0000873331D01*
X0001345056Y0000874831D01*
X0001343556Y0000877830D01*
X0001345056Y0000880830D01*
X0001348055Y0000882330D01*
X0001351055Y0000880830D01*
X0001352555Y0000877830D01*
X0001351055Y0000874831D01*
X0001456117Y0000935254D02*
X0001456117Y0000957752D01*
X0001456117Y0000946503D02*
X0001416747Y0000946503D01*
X0001422371Y0000950253D01*
X0001426121Y0000954002D01*
X0001427995Y0000957752D01*
X0001416747Y0000910883D02*
X0001416747Y0000907133D01*
X0001418622Y0000903383D01*
X0001420496Y0000901509D01*
X0001424246Y0000899634D01*
X0001431745Y0000897759D01*
X0001441119Y0000897759D01*
X0001448618Y0000899634D01*
X0001452367Y0000901509D01*
X0001454242Y0000903383D01*
X0001456117Y0000907133D01*
X0001456117Y0000910883D01*
X0001454242Y0000914632D01*
X0001452367Y0000916507D01*
X0001448618Y0000918382D01*
X0001441119Y0000920256D01*
X0001431745Y0000920256D01*
X0001424246Y0000918382D01*
X0001420496Y0000916507D01*
X0001418622Y0000914632D01*
X0001416747Y0000910883D01*
X0001456117Y0000880886D02*
X0001416747Y0000880886D01*
X0001456117Y0000858389D02*
X0001433620Y0000875262D01*
X0001416747Y0000858389D02*
X0001439244Y0000880886D01*
X0000317056Y0001636511D02*
X0000320806Y0001638385D01*
X0000324555Y0001642135D01*
X0000330179Y0001647759D01*
X0000333929Y0001649634D01*
X0000337679Y0001649634D01*
X0000335804Y0001640260D02*
X0000339553Y0001642135D01*
X0000343303Y0001645884D01*
X0000345178Y0001653383D01*
X0000345178Y0001666507D01*
X0000343303Y0001674006D01*
X0000339553Y0001677755D01*
X0000335804Y0001679630D01*
X0000328305Y0001679630D01*
X0000324555Y0001677755D01*
X0000320806Y0001674006D01*
X0000318931Y0001666507D01*
X0000318931Y0001653383D01*
X0000320806Y0001645884D01*
X0000324555Y0001642135D01*
X0000328305Y0001640260D01*
X0000335804Y0001640260D01*
X0000281436Y0001640260D02*
X0000303933Y0001640260D01*
X0000292684Y0001640260D02*
X0000292684Y0001679630D01*
X0000296434Y0001674006D01*
X0000300183Y0001670256D01*
X0000303933Y0001668382D01*
X0000417544Y0001573822D02*
X0000417544Y0001605318D01*
X0000384548Y0001573822D02*
X0000395046Y0001588820D01*
X0000402545Y0001573822D02*
X0000402545Y0001605318D01*
X0000390547Y0001605318D01*
X0000387547Y0001603818D01*
X0000386047Y0001602319D01*
X0000384548Y0001599319D01*
X0000384548Y0001594820D01*
X0000386047Y0001591820D01*
X0000387547Y0001590320D01*
X0000390547Y0001588820D01*
X0000402545Y0001588820D01*
X0000356051Y0001573822D02*
X0000371049Y0001573822D01*
X0000371049Y0001605318D01*
X0000327555Y0001573822D02*
X0000338053Y0001588820D01*
X0000345553Y0001573822D02*
X0000345553Y0001605318D01*
X0000333554Y0001605318D01*
X0000330554Y0001603818D01*
X0000329055Y0001602319D01*
X0000327555Y0001599319D01*
X0000327555Y0001594820D01*
X0000329055Y0001591820D01*
X0000330554Y0001590320D01*
X0000333554Y0001588820D01*
X0000345553Y0001588820D01*
X0000309557Y0001591820D02*
X0000312557Y0001593320D01*
X0000314057Y0001594820D01*
X0000315556Y0001597819D01*
X0000315556Y0001599319D01*
X0000314057Y0001602319D01*
X0000312557Y0001603818D01*
X0000309557Y0001605318D01*
X0000303558Y0001605318D01*
X0000300558Y0001603818D01*
X0000299058Y0001602319D01*
X0000297559Y0001599319D01*
X0000297559Y0001597819D01*
X0000299058Y0001594820D01*
X0000300558Y0001593320D01*
X0000303558Y0001591820D01*
X0000309557Y0001591820D01*
X0000312557Y0001590320D01*
X0000314057Y0001588820D01*
X0000315556Y0001585821D01*
X0000315556Y0001579821D01*
X0000314057Y0001576822D01*
X0000312557Y0001575322D01*
X0000309557Y0001573822D01*
X0000303558Y0001573822D01*
X0000300558Y0001575322D01*
X0000299058Y0001576822D01*
X0000297559Y0001579821D01*
X0000297559Y0001585821D01*
X0000299058Y0001588820D01*
X0000300558Y0001590320D01*
X0000303558Y0001591820D01*
X0000287060Y0001605318D02*
X0000266062Y0001605318D01*
X0000279561Y0001573822D01*
X0000255564Y0001602319D02*
X0000254064Y0001603818D01*
X0000251064Y0001605318D01*
X0000243565Y0001605318D01*
X0000240566Y0001603818D01*
X0000239066Y0001602319D01*
X0000237566Y0001599319D01*
X0000237566Y0001596319D01*
X0000239066Y0001591820D01*
X0000257064Y0001573822D01*
X0000237566Y0001573822D01*
X0000222568Y0001573822D02*
X0000216569Y0001573822D01*
X0000213569Y0001575322D01*
X0000212069Y0001576822D01*
X0000209070Y0001581321D01*
X0000207570Y0001587320D01*
X0000207570Y0001599319D01*
X0000209070Y0001602319D01*
X0000210569Y0001603818D01*
X0000213569Y0001605318D01*
X0000219568Y0001605318D01*
X0000222568Y0001603818D01*
X0000224068Y0001602319D01*
X0000225567Y0001599319D01*
X0000225567Y0001591820D01*
X0000224068Y0001588820D01*
X0000222568Y0001587320D01*
X0000219568Y0001585821D01*
X0000213569Y0001585821D01*
X0000210569Y0001587320D01*
X0000209070Y0001588820D01*
X0000207570Y0001591820D01*
G04 next file*
G04 #@! TF.FileFunction,Legend,Bot*
G04 Gerber Fmt 4.6, Leading zero omitted, Abs format (unit mm)*
G04 Created by KiCad (PCBNEW 4.0.7) date 07/04/19 20:50:11*
G01*
G04 APERTURE LIST*
G04 APERTURE END LIST*
D34*
D35*
X0002847598Y0001263307D02*
X0002837598Y0001263307D01*
X0002927598Y0001263307D02*
X0002847598Y0001263307D01*
X0002963601Y0000522559D02*
X0002960601Y0000521059D01*
X0002956102Y0000521059D01*
X0002951602Y0000522559D01*
X0002948603Y0000525558D01*
X0002947103Y0000528558D01*
X0002945603Y0000534557D01*
X0002945603Y0000539056D01*
X0002947103Y0000545056D01*
X0002948603Y0000548055D01*
X0002951602Y0000551055D01*
X0002956102Y0000552555D01*
X0002959102Y0000552555D01*
X0002963601Y0000551055D01*
X0002965101Y0000549555D01*
X0002965101Y0000539056D01*
X0002959102Y0000539056D01*
X0002978599Y0000552555D02*
X0002978599Y0000521059D01*
X0002996597Y0000552555D01*
X0002996597Y0000521059D01*
X0003011595Y0000552555D02*
X0003011595Y0000521059D01*
X0003019094Y0000521059D01*
X0003023593Y0000522559D01*
X0003026593Y0000525558D01*
X0003028093Y0000528558D01*
X0003029593Y0000534557D01*
X0003029593Y0000539056D01*
X0003028093Y0000545056D01*
X0003026593Y0000548055D01*
X0003023593Y0000551055D01*
X0003019094Y0000552555D01*
X0003011595Y0000552555D01*
D36*
X0002741816Y0000065804D02*
X0002741816Y0000020809D01*
X0002641816Y0000345804D02*
X0002641816Y0000300809D01*
X0002664313Y0000323307D02*
X0002619319Y0000323307D01*
D35*
X0002962598Y0001538307D02*
X0002912598Y0001588307D01*
D36*
X0003816192Y0001107000D02*
X0003813380Y0001109461D01*
X0003810568Y0001114734D01*
X0003810568Y0001120358D01*
X0003813380Y0001126334D01*
X0003816192Y0001129497D01*
X0003821816Y0001133013D01*
X0003827440Y0001133716D01*
X0003833065Y0001131607D01*
X0003835877Y0001129146D01*
X0003838689Y0001123873D01*
X0003838689Y0001118249D01*
X0003835877Y0001112273D01*
X0003833065Y0001109109D01*
X0003810568Y0001106297D02*
X0003833065Y0001109109D01*
X0003835877Y0001106649D01*
X0003835877Y0001103837D01*
X0003833065Y0001097861D01*
X0003827440Y0001094346D01*
X0003813380Y0001092588D01*
X0003804943Y0001097158D01*
X0003799319Y0001104891D01*
X0003796507Y0001115788D01*
X0003799319Y0001127388D01*
X0003804943Y0001136528D01*
X0003813380Y0001143207D01*
X0003824628Y0001147425D01*
X0003835877Y0001146019D01*
X0003844313Y0001141449D01*
X0003849938Y0001133716D01*
X0003852750Y0001122819D01*
X0003849938Y0001111219D01*
X0003844313Y0001102079D01*
X0003785258Y0001072200D02*
X0003785258Y0001038454D01*
X0003844313Y0001062709D02*
X0003785258Y0001055327D01*
X0003844313Y0001026151D02*
X0003785258Y0001018769D01*
X0003844313Y0001000842D02*
X0003813380Y0000996975D01*
X0003807755Y0000999084D01*
X0003804943Y0001004357D01*
X0003804943Y0001012793D01*
X0003807755Y0001018769D01*
X0003810568Y0001021933D01*
X0003841501Y0000949872D02*
X0003844313Y0000955847D01*
X0003844313Y0000967096D01*
X0003841501Y0000972369D01*
X0003835877Y0000974478D01*
X0003813380Y0000971666D01*
X0003807755Y0000968150D01*
X0003804943Y0000962175D01*
X0003804943Y0000950926D01*
X0003807755Y0000945653D01*
X0003813380Y0000943544D01*
X0003819004Y0000944247D01*
X0003824628Y0000973072D01*
X0003844313Y0000922102D02*
X0003785258Y0000914720D01*
X0003827440Y0000900307D01*
X0003785258Y0000875350D01*
X0003844313Y0000882731D01*
X0003844313Y0000829301D02*
X0003813380Y0000825434D01*
X0003807755Y0000827543D01*
X0003804943Y0000832816D01*
X0003804943Y0000844064D01*
X0003807755Y0000850040D01*
X0003841501Y0000828949D02*
X0003844313Y0000834925D01*
X0003844313Y0000848986D01*
X0003841501Y0000854258D01*
X0003835877Y0000856368D01*
X0003830253Y0000855665D01*
X0003824628Y0000852149D01*
X0003821816Y0000846174D01*
X0003821816Y0000832113D01*
X0003819004Y0000826137D01*
X0003844313Y0000801179D02*
X0003785258Y0000793797D01*
X0003821816Y0000792743D02*
X0003844313Y0000778682D01*
X0003804943Y0000773761D02*
X0003827440Y0000799070D01*
X0003841501Y0000730524D02*
X0003844313Y0000736500D01*
X0003844313Y0000747748D01*
X0003841501Y0000753021D01*
X0003835877Y0000755130D01*
X0003813380Y0000752318D01*
X0003807755Y0000748803D01*
X0003804943Y0000742827D01*
X0003804943Y0000731578D01*
X0003807755Y0000726306D01*
X0003813380Y0000724197D01*
X0003819004Y0000724900D01*
X0003824628Y0000753724D01*
X0003844313Y0000702754D02*
X0003804943Y0000697833D01*
X0003816192Y0000699239D02*
X0003810568Y0000695724D01*
X0003807755Y0000692560D01*
X0003804943Y0000686584D01*
X0003804943Y0000680960D01*
X0003841501Y0000668657D02*
X0003844313Y0000663384D01*
X0003844313Y0000652135D01*
X0003841501Y0000646160D01*
X0003835877Y0000642644D01*
X0003833065Y0000642293D01*
X0003827440Y0000644402D01*
X0003824628Y0000649675D01*
X0003824628Y0000658111D01*
X0003821816Y0000663384D01*
X0003816192Y0000665493D01*
X0003813380Y0000665142D01*
X0003807755Y0000661626D01*
X0003804943Y0000655650D01*
X0003804943Y0000647214D01*
X0003807755Y0000641941D01*
X0003813380Y0000594838D02*
X0003816192Y0000586753D01*
X0003819004Y0000584292D01*
X0003824628Y0000582183D01*
X0003833065Y0000583238D01*
X0003838689Y0000586753D01*
X0003841501Y0000589917D01*
X0003844313Y0000595892D01*
X0003844313Y0000618390D01*
X0003785258Y0000611008D01*
X0003785258Y0000591323D01*
X0003788070Y0000586050D01*
X0003790883Y0000583589D01*
X0003796507Y0000581480D01*
X0003802131Y0000582183D01*
X0003807755Y0000585698D01*
X0003810568Y0000588862D01*
X0003813380Y0000594838D01*
X0003813380Y0000614523D01*
X0003844313Y0000550898D02*
X0003841501Y0000556171D01*
X0003838689Y0000558631D01*
X0003833065Y0000560740D01*
X0003816192Y0000558631D01*
X0003810568Y0000555116D01*
X0003807755Y0000551953D01*
X0003804943Y0000545977D01*
X0003804943Y0000537540D01*
X0003807755Y0000532267D01*
X0003810568Y0000529807D01*
X0003816192Y0000527698D01*
X0003833065Y0000529807D01*
X0003838689Y0000533322D01*
X0003841501Y0000536486D01*
X0003844313Y0000542462D01*
X0003844313Y0000550898D01*
X0003844313Y0000511528D02*
X0003804943Y0000475673D01*
X0003804943Y0000506607D02*
X0003844313Y0000480594D01*
X0002741816Y0000415804D02*
X0002741816Y0000370809D01*
X0002641816Y0000695804D02*
X0002641816Y0000650809D01*
X0002664313Y0000673307D02*
X0002619319Y0000673307D01*
D37*
X0002896653Y0000599527D02*
X0002896653Y0000127086D01*
X0002778543Y0000127086D02*
X0002778543Y0000599527D01*
X0002896653Y0000599527D02*
X0002778543Y0000599527D01*
X0002778543Y0000127086D02*
X0002896653Y0000127086D01*
X0003037598Y0001163307D02*
X0002937598Y0001163307D01*
X0002937598Y0001163307D02*
X0002937598Y0000563307D01*
X0002937598Y0000563307D02*
X0003037598Y0000563307D01*
X0003037598Y0000563307D02*
X0003037598Y0001163307D01*
X0003276968Y0000760944D02*
G75*
G03X0003198228Y0000760944I-0000039370D01*
G01*
X0003198228Y0000760944D02*
X0003133267Y0000760944D01*
X0003133267Y0000760944D02*
X0003133267Y0002165669D01*
X0003133267Y0002165669D02*
X0003341929Y0002165669D01*
X0003341929Y0002165669D02*
X0003341929Y0000760944D01*
X0003341929Y0000760944D02*
X0003276968Y0000760944D01*
X0002652551Y0000532184D02*
G75*
G03X0002722677Y0000532204I0000035046J0000056122D01*
G01*
X0002631481Y0000623342D02*
G75*
G03X0002630905Y0000554212I0000056116J-0000035035D01*
G01*
X0002722633Y0000644423D02*
G75*
G03X0002653503Y0000644999I-0000035035J-0000056116D01*
G01*
X0002743689Y0000203257D02*
G75*
G03X0002753740Y0000238307I-0000056091J0000035049D01*
G01*
X0002652551Y0000182184D02*
G75*
G03X0002722677Y0000182204I0000035046J0000056122D01*
G01*
X0002722633Y0000294423D02*
G75*
G03X0002653503Y0000294999I-0000035035J-0000056116D01*
G01*
X0002753744Y0000237178D02*
G75*
G03X0002744291Y0000272401I-0000066145J0000001128D01*
G01*
X0002645511Y0000050314D02*
X0002650551Y0000055393D01*
X0002734094Y0000138897D02*
X0002737755Y0000142598D01*
X0002637401Y0000058385D02*
X0002641102Y0000062086D01*
X0002724645Y0000145590D02*
X0002729685Y0000150669D01*
X0002930511Y0001803464D02*
X0002930511Y0001626299D01*
X0003044685Y0001803464D02*
G75*
G03X0002930511Y0001803464I-0000057086D01*
G01*
X0003044685Y0001626299D02*
G75*
G02X0002930511Y0001626299I-0000057086D01*
G01*
D38*
X0003215551Y0000152362D02*
X0003215551Y0000034251D01*
D37*
X0003239566Y0000166535D02*
X0003239566Y0000020078D01*
X0003239566Y0000020078D02*
X0002935629Y0000020078D01*
X0002935629Y0000020078D02*
X0002935629Y0000166535D01*
X0002935629Y0000166535D02*
X0003239566Y0000166535D01*
X0003283267Y0000093307D02*
X0003239566Y0000093307D01*
X0002891929Y0000093307D02*
X0002935629Y0000093307D01*
X0003192322Y0000166535D02*
X0003192322Y0000020078D01*
D35*
X0003637598Y0000496759D02*
G75*
G03X0003637598Y0000496759J-0000233452D01*
G01*
D37*
X0002853740Y0001184960D02*
X0002853740Y0001038503D01*
X0002921456Y0001184960D02*
X0002921456Y0001038503D01*
X0002853740Y0001484960D02*
X0002853740Y0001338503D01*
X0002921456Y0001484960D02*
X0002921456Y0001338503D01*
X0003436023Y0000761732D02*
X0003637598Y0000761732D01*
X0003436023Y0000864881D02*
X0003637598Y0000864881D01*
X0003436023Y0000761732D02*
X0003436023Y0000864881D01*
X0003637598Y0000761732D02*
X0003637598Y0000864881D01*
X0003636023Y0000714881D02*
X0003636023Y0000513307D01*
X0003739173Y0000714881D02*
X0003739173Y0000513307D01*
X0003636023Y0000714881D02*
X0003739173Y0000714881D01*
X0003636023Y0000513307D02*
X0003739173Y0000513307D01*
X0003031299Y0001193228D02*
X0003031299Y0001331811D01*
X0002943897Y0001193228D02*
X0002943897Y0001331811D01*
X0003031299Y0001193228D02*
X0003026811Y0001193228D01*
X0002948385Y0001193228D02*
X0002943897Y0001193228D01*
X0003031299Y0001331811D02*
X0003026811Y0001331811D01*
X0002948385Y0001331811D02*
X0002943897Y0001331811D01*
X0003414763Y0000542440D02*
X0003414763Y0000684173D01*
X0003415217Y0000540926D02*
G75*
G03X0003589960Y0000613307I0000072381J0000072380D01*
G01*
X0003415217Y0000685688D02*
G75*
G02X0003589960Y0000613307I0000072380J-0000072381D01*
G01*
X0003031299Y0001393228D02*
X0003031299Y0001531811D01*
X0002943897Y0001393228D02*
X0002943897Y0001531811D01*
X0003031299Y0001393228D02*
X0003026811Y0001393228D01*
X0002948385Y0001393228D02*
X0002943897Y0001393228D01*
X0003031299Y0001531811D02*
X0003026811Y0001531811D01*
X0002948385Y0001531811D02*
X0002943897Y0001531811D01*
X0002843897Y0000933385D02*
X0002843897Y0000794803D01*
X0002931299Y0000933385D02*
X0002931299Y0000794803D01*
X0002843897Y0000933385D02*
X0002848385Y0000933385D01*
X0002926811Y0000933385D02*
X0002931299Y0000933385D01*
X0002843897Y0000794803D02*
X0002848385Y0000794803D01*
X0002926811Y0000794803D02*
X0002931299Y0000794803D01*
X0003115944Y0000679448D02*
X0003262401Y0000679448D01*
X0003115944Y0000747165D02*
X0003262401Y0000747165D01*
X0003581299Y0001893228D02*
X0003581299Y0002031811D01*
X0003493897Y0001893228D02*
X0003493897Y0002031811D01*
X0003581299Y0001893228D02*
X0003576811Y0001893228D01*
X0003498385Y0001893228D02*
X0003493897Y0001893228D01*
X0003581299Y0002031811D02*
X0003576811Y0002031811D01*
X0003498385Y0002031811D02*
X0003493897Y0002031811D01*
X0003665944Y0001979448D02*
X0003812401Y0001979448D01*
X0003665944Y0002047165D02*
X0003812401Y0002047165D01*
X0003809251Y0001947165D02*
X0003662795Y0001947165D01*
X0003809251Y0001879448D02*
X0003662795Y0001879448D01*
X0003259251Y0000647165D02*
X0003112795Y0000647165D01*
X0003259251Y0000579448D02*
X0003112795Y0000579448D01*
X0003259251Y0000547165D02*
X0003112795Y0000547165D01*
X0003259251Y0000479448D02*
X0003112795Y0000479448D01*
X0003021456Y0001941653D02*
X0003021456Y0002088110D01*
X0002953740Y0001941653D02*
X0002953740Y0002088110D01*
D34*
X0003789566Y0001238307D02*
X0003825000Y0001238307D01*
X0003584842Y0001238307D02*
X0003557283Y0001238307D01*
X0003584842Y0001269803D02*
X0003584842Y0001206811D01*
X0003584842Y0001206811D02*
X0003789566Y0001206810D01*
X0003789566Y0001206810D02*
X0003789566Y0001269803D01*
X0003789566Y0001269803D02*
X0003584842Y0001269803D01*
X0003789566Y0001338307D02*
X0003825000Y0001338307D01*
X0003584842Y0001338307D02*
X0003557283Y0001338307D01*
X0003584842Y0001369803D02*
X0003584842Y0001306810D01*
X0003584842Y0001306810D02*
X0003789566Y0001306810D01*
X0003789566Y0001306810D02*
X0003789566Y0001369803D01*
X0003789566Y0001369803D02*
X0003584842Y0001369803D01*
D37*
X0003809251Y0001472165D02*
X0003662795Y0001472165D01*
X0003809251Y0001404448D02*
X0003662795Y0001404448D01*
X0003099409Y0000177480D02*
X0003040354Y0000177480D01*
X0003040354Y0000177480D02*
X0003040354Y0000188110D01*
X0003040354Y0000188110D02*
X0002928937Y0000188110D01*
X0003099409Y0000449133D02*
X0003040354Y0000449133D01*
X0003040354Y0000449133D02*
X0003040354Y0000438503D01*
X0003040354Y0000438503D02*
X0002997047Y0000438503D01*
D35*
X0002665410Y0002053305D02*
X0002665410Y0002023308D01*
X0002680408Y0002038307D02*
X0002650412Y0002038307D01*
X0002855408Y0000403301D02*
X0002816038Y0000403301D01*
X0002816038Y0000388303D01*
X0002817913Y0000384553D01*
X0002819788Y0000382678D01*
X0002823537Y0000380804D01*
X0002829161Y0000380804D01*
X0002832911Y0000382678D01*
X0002834786Y0000384553D01*
X0002836661Y0000388303D01*
X0002836661Y0000403301D01*
X0002816038Y0000369555D02*
X0002816038Y0000347058D01*
X0002855408Y0000358307D02*
X0002816038Y0000358307D01*
X0002851659Y0000311437D02*
X0002853533Y0000313312D01*
X0002855408Y0000318936D01*
X0002855408Y0000322686D01*
X0002853533Y0000328310D01*
X0002849784Y0000332060D01*
X0002846034Y0000333935D01*
X0002838535Y0000335809D01*
X0002832911Y0000335809D01*
X0002825412Y0000333935D01*
X0002821662Y0000332060D01*
X0002817913Y0000328310D01*
X0002816038Y0000322686D01*
X0002816038Y0000318936D01*
X0002817913Y0000313312D01*
X0002819788Y0000311437D01*
D39*
X0002904555Y0000736938D02*
X0002904555Y0000753342D01*
X0002930333Y0000753342D02*
X0002881121Y0000753342D01*
X0002881121Y0000729908D01*
X0002881121Y0000718190D02*
X0002881121Y0000690069D01*
X0002930333Y0000704130D02*
X0002881121Y0000704130D01*
X0002930333Y0000673665D02*
X0002881121Y0000673665D01*
X0002881121Y0000661947D01*
X0002883464Y0000654917D01*
X0002888151Y0000650230D01*
X0002892838Y0000647887D01*
X0002902212Y0000645543D01*
X0002909242Y0000645543D01*
X0002918616Y0000647887D01*
X0002923303Y0000650230D01*
X0002927990Y0000654917D01*
X0002930333Y0000661947D01*
X0002930333Y0000673665D01*
X0002930333Y0000624452D02*
X0002881121Y0000624452D01*
D35*
X0003286038Y0000838303D02*
X0003317909Y0000838303D01*
X0003321659Y0000836428D01*
X0003323533Y0000834553D01*
X0003325408Y0000830804D01*
X0003325408Y0000823305D01*
X0003323533Y0000819555D01*
X0003321659Y0000817680D01*
X0003317909Y0000815806D01*
X0003286038Y0000815806D01*
X0003286038Y0000778310D02*
X0003286038Y0000797058D01*
X0003304786Y0000798933D01*
X0003302911Y0000797058D01*
X0003301036Y0000793308D01*
X0003301036Y0000783935D01*
X0003302911Y0000780185D01*
X0003304786Y0000778310D01*
X0003308535Y0000776436D01*
X0003317909Y0000776436D01*
X0003321659Y0000778310D01*
X0003323533Y0000780185D01*
X0003325408Y0000783935D01*
X0003325408Y0000793308D01*
X0003323533Y0000797058D01*
X0003321659Y0000798933D01*
X0003254160Y0001452651D02*
X0003254160Y0001433904D01*
X0003265408Y0001456401D02*
X0003226038Y0001443278D01*
X0003265408Y0001430154D01*
X0003226038Y0001422655D02*
X0003226038Y0001400158D01*
X0003265408Y0001411407D02*
X0003226038Y0001411407D01*
X0003265408Y0001387035D02*
X0003226038Y0001387035D01*
X0003254160Y0001373911D01*
X0003226038Y0001360788D01*
X0003265408Y0001360788D01*
X0003244786Y0001342040D02*
X0003244786Y0001328917D01*
X0003265408Y0001323292D02*
X0003265408Y0001342040D01*
X0003226038Y0001342040D01*
X0003226038Y0001323292D01*
X0003227913Y0001285797D02*
X0003226038Y0001289547D01*
X0003226038Y0001295171D01*
X0003227913Y0001300795D01*
X0003231662Y0001304545D01*
X0003235412Y0001306420D01*
X0003242911Y0001308294D01*
X0003248535Y0001308294D01*
X0003256034Y0001306420D01*
X0003259784Y0001304545D01*
X0003263533Y0001300795D01*
X0003265408Y0001295171D01*
X0003265408Y0001291421D01*
X0003263533Y0001285797D01*
X0003261659Y0001283922D01*
X0003248535Y0001283922D01*
X0003248535Y0001291421D01*
X0003254160Y0001268924D02*
X0003254160Y0001250177D01*
X0003265408Y0001272674D02*
X0003226038Y0001259550D01*
X0003265408Y0001246427D01*
X0003226038Y0001237053D02*
X0003226038Y0001212681D01*
X0003241036Y0001225805D01*
X0003241036Y0001220180D01*
X0003242911Y0001216431D01*
X0003244786Y0001214556D01*
X0003248535Y0001212681D01*
X0003257909Y0001212681D01*
X0003261659Y0001214556D01*
X0003263533Y0001216431D01*
X0003265408Y0001220180D01*
X0003265408Y0001231429D01*
X0003263533Y0001235179D01*
X0003261659Y0001237053D01*
X0003229788Y0001197683D02*
X0003227913Y0001195808D01*
X0003226038Y0001192059D01*
X0003226038Y0001182685D01*
X0003227913Y0001178936D01*
X0003229788Y0001177061D01*
X0003233537Y0001175186D01*
X0003237287Y0001175186D01*
X0003242911Y0001177061D01*
X0003265408Y0001199558D01*
X0003265408Y0001175186D01*
X0003242911Y0001152689D02*
X0003241036Y0001156438D01*
X0003239161Y0001158313D01*
X0003235412Y0001160188D01*
X0003233537Y0001160188D01*
X0003229788Y0001158313D01*
X0003227913Y0001156438D01*
X0003226038Y0001152689D01*
X0003226038Y0001145190D01*
X0003227913Y0001141440D01*
X0003229788Y0001139565D01*
X0003233537Y0001137691D01*
X0003235412Y0001137691D01*
X0003239161Y0001139565D01*
X0003241036Y0001141440D01*
X0003242911Y0001145190D01*
X0003242911Y0001152689D01*
X0003244786Y0001156438D01*
X0003246661Y0001158313D01*
X0003250410Y0001160188D01*
X0003257909Y0001160188D01*
X0003261659Y0001158313D01*
X0003263533Y0001156438D01*
X0003265408Y0001152689D01*
X0003265408Y0001145190D01*
X0003263533Y0001141440D01*
X0003261659Y0001139565D01*
X0003257909Y0001137691D01*
X0003250410Y0001137691D01*
X0003246661Y0001139565D01*
X0003244786Y0001141440D01*
X0003242911Y0001145190D01*
X0003265408Y0001120818D02*
X0003226038Y0001120818D01*
X0003226038Y0001105820D01*
X0003227913Y0001102070D01*
X0003229788Y0001100195D01*
X0003233537Y0001098321D01*
X0003239161Y0001098321D01*
X0003242911Y0001100195D01*
X0003244786Y0001102070D01*
X0003246661Y0001105820D01*
X0003246661Y0001120818D01*
X0003250410Y0001081448D02*
X0003250410Y0001051451D01*
X0003265408Y0001032704D02*
X0003226038Y0001032704D01*
X0003226038Y0001017706D01*
X0003227913Y0001013956D01*
X0003229788Y0001012081D01*
X0003233537Y0001010207D01*
X0003239161Y0001010207D01*
X0003242911Y0001012081D01*
X0003244786Y0001013956D01*
X0003246661Y0001017706D01*
X0003246661Y0001032704D01*
X0003226038Y0000993334D02*
X0003257909Y0000993334D01*
X0003261659Y0000991459D01*
X0003263533Y0000989584D01*
X0003265408Y0000985835D01*
X0003265408Y0000978336D01*
X0003263533Y0000974586D01*
X0003261659Y0000972711D01*
X0003257909Y0000970837D01*
X0003226038Y0000970837D01*
X0002594786Y0000622358D02*
X0002596661Y0000616734D01*
X0002598535Y0000614859D01*
X0002602285Y0000612984D01*
X0002607909Y0000612984D01*
X0002611659Y0000614859D01*
X0002613533Y0000616734D01*
X0002615408Y0000620483D01*
X0002615408Y0000635481D01*
X0002576038Y0000635481D01*
X0002576038Y0000622358D01*
X0002577913Y0000618608D01*
X0002579788Y0000616734D01*
X0002583537Y0000614859D01*
X0002587287Y0000614859D01*
X0002591036Y0000616734D01*
X0002592911Y0000618608D01*
X0002594786Y0000622358D01*
X0002594786Y0000635481D01*
X0002604160Y0000597986D02*
X0002604160Y0000579238D01*
X0002615408Y0000601735D02*
X0002576038Y0000588612D01*
X0002615408Y0000575489D01*
X0002576038Y0000567990D02*
X0002576038Y0000545492D01*
X0002615408Y0000556741D02*
X0002576038Y0000556741D01*
X0002576038Y0000537993D02*
X0002576038Y0000515496D01*
X0002615408Y0000526745D02*
X0002576038Y0000526745D01*
X0002619158Y0000511747D02*
X0002619158Y0000481750D01*
X0002615408Y0000472377D02*
X0002576038Y0000472377D01*
X0002615408Y0000453629D02*
X0002576038Y0000453629D01*
X0002615408Y0000431132D01*
X0002576038Y0000431132D01*
X0002594786Y0000331106D02*
X0002594786Y0000344229D01*
X0002615408Y0000344229D02*
X0002576038Y0000344229D01*
X0002576038Y0000325481D01*
X0002576038Y0000314233D02*
X0002615408Y0000304859D01*
X0002587287Y0000297360D01*
X0002615408Y0000289861D01*
X0002576038Y0000280487D01*
X0002619158Y0000274863D02*
X0002619158Y0000244866D01*
X0002615408Y0000235493D02*
X0002576038Y0000235493D01*
X0002604160Y0000222369D01*
X0002576038Y0000209246D01*
X0002615408Y0000209246D01*
X0002576038Y0000196122D02*
X0002576038Y0000173625D01*
X0002615408Y0000184874D02*
X0002576038Y0000184874D01*
X0002615408Y0000138005D02*
X0002596661Y0000151128D01*
X0002615408Y0000160502D02*
X0002576038Y0000160502D01*
X0002576038Y0000145504D01*
X0002577913Y0000141754D01*
X0002579788Y0000139879D01*
X0002583537Y0000138005D01*
X0002589161Y0000138005D01*
X0002592911Y0000139879D01*
X0002594786Y0000141754D01*
X0002596661Y0000145504D01*
X0002596661Y0000160502D01*
X0002613533Y0000123007D02*
X0002615408Y0000117382D01*
X0002615408Y0000108008D01*
X0002613533Y0000104259D01*
X0002611659Y0000102384D01*
X0002607909Y0000100509D01*
X0002604160Y0000100509D01*
X0002600410Y0000102384D01*
X0002598535Y0000104259D01*
X0002596661Y0000108008D01*
X0002594786Y0000115508D01*
X0002592911Y0000119257D01*
X0002591036Y0000121132D01*
X0002587287Y0000123007D01*
X0002583537Y0000123007D01*
X0002579788Y0000121132D01*
X0002577913Y0000119257D01*
X0002576038Y0000115508D01*
X0002576038Y0000106134D01*
X0002577913Y0000100509D01*
X0003051846Y0001764300D02*
X0003051846Y0001782298D01*
X0003051846Y0001773299D02*
X0003020350Y0001773299D01*
X0003024850Y0001776299D01*
X0003027849Y0001779298D01*
X0003029349Y0001782298D01*
X0003020350Y0001737304D02*
X0003020350Y0001743303D01*
X0003021850Y0001746302D01*
X0003023350Y0001747802D01*
X0003027849Y0001750802D01*
X0003033848Y0001752302D01*
X0003045847Y0001752302D01*
X0003048847Y0001750802D01*
X0003050346Y0001749302D01*
X0003051846Y0001746302D01*
X0003051846Y0001740303D01*
X0003050346Y0001737304D01*
X0003048847Y0001735804D01*
X0003045847Y0001734304D01*
X0003038348Y0001734304D01*
X0003035348Y0001735804D01*
X0003033848Y0001737304D01*
X0003032349Y0001740303D01*
X0003032349Y0001746302D01*
X0003033848Y0001749302D01*
X0003035348Y0001750802D01*
X0003038348Y0001752302D01*
X0003051846Y0001720806D02*
X0003020350Y0001720806D01*
X0003042847Y0001710307D01*
X0003020350Y0001699808D01*
X0003051846Y0001699808D01*
X0003051846Y0001684810D02*
X0003020350Y0001684810D01*
X0003051846Y0001671312D02*
X0003035348Y0001671312D01*
X0003032349Y0001672812D01*
X0003030849Y0001675811D01*
X0003030849Y0001680311D01*
X0003032349Y0001683310D01*
X0003033848Y0001684810D01*
X0003030849Y0001659313D02*
X0003030849Y0001642815D01*
X0003051846Y0001659313D01*
X0003051846Y0001642815D01*
X0002978233Y0000111117D02*
X0002955736Y0000111117D01*
X0002966985Y0000111117D02*
X0002966985Y0000071747D01*
X0002963235Y0000077371D01*
X0002959486Y0000081121D01*
X0002955736Y0000082995D01*
X0002995106Y0000111117D02*
X0002995106Y0000071747D01*
X0003017604Y0000111117D01*
X0003017604Y0000071747D01*
X0003055099Y0000071747D02*
X0003036351Y0000071747D01*
X0003034476Y0000090494D01*
X0003036351Y0000088620D01*
X0003040101Y0000086745D01*
X0003049475Y0000086745D01*
X0003053224Y0000088620D01*
X0003055099Y0000090494D01*
X0003056974Y0000094244D01*
X0003056974Y0000103618D01*
X0003055099Y0000107367D01*
X0003053224Y0000109242D01*
X0003049475Y0000111117D01*
X0003040101Y0000111117D01*
X0003036351Y0000109242D01*
X0003034476Y0000107367D01*
X0003090719Y0000084870D02*
X0003090719Y0000111117D01*
X0003081346Y0000069872D02*
X0003071972Y0000097993D01*
X0003096344Y0000097993D01*
X0003118841Y0000071747D02*
X0003122590Y0000071747D01*
X0003126340Y0000073622D01*
X0003128215Y0000075496D01*
X0003130090Y0000079246D01*
X0003131964Y0000086745D01*
X0003131964Y0000096119D01*
X0003130090Y0000103618D01*
X0003128215Y0000107367D01*
X0003126340Y0000109242D01*
X0003122590Y0000111117D01*
X0003118841Y0000111117D01*
X0003115091Y0000109242D01*
X0003113217Y0000107367D01*
X0003111342Y0000103618D01*
X0003109467Y0000096119D01*
X0003109467Y0000086745D01*
X0003111342Y0000079246D01*
X0003113217Y0000075496D01*
X0003115091Y0000073622D01*
X0003118841Y0000071747D01*
X0003169460Y0000111117D02*
X0003146962Y0000111117D01*
X0003158211Y0000111117D02*
X0003158211Y0000071747D01*
X0003154461Y0000077371D01*
X0003150712Y0000081121D01*
X0003146962Y0000082995D01*
D40*
X0003571765Y0000359973D02*
X0003573431Y0000354973D01*
X0003573431Y0000346640D01*
X0003571765Y0000343307D01*
X0003570098Y0000341640D01*
X0003566765Y0000339973D01*
X0003563431Y0000339973D01*
X0003560098Y0000341640D01*
X0003558431Y0000343307D01*
X0003556765Y0000346640D01*
X0003555098Y0000353307D01*
X0003553431Y0000356640D01*
X0003551765Y0000358307D01*
X0003548431Y0000359973D01*
X0003545098Y0000359973D01*
X0003541765Y0000358307D01*
X0003540098Y0000356640D01*
X0003538431Y0000353307D01*
X0003538431Y0000344973D01*
X0003540098Y0000339973D01*
X0003550098Y0000324973D02*
X0003585098Y0000324973D01*
X0003551765Y0000324973D02*
X0003550098Y0000321640D01*
X0003550098Y0000314973D01*
X0003551765Y0000311640D01*
X0003553431Y0000309973D01*
X0003556765Y0000308307D01*
X0003566765Y0000308307D01*
X0003570098Y0000309973D01*
X0003571765Y0000311640D01*
X0003573431Y0000314973D01*
X0003573431Y0000321640D01*
X0003571765Y0000324973D01*
X0003571765Y0000279973D02*
X0003573431Y0000283307D01*
X0003573431Y0000289973D01*
X0003571765Y0000293307D01*
X0003568431Y0000294973D01*
X0003555098Y0000294973D01*
X0003551765Y0000293307D01*
X0003550098Y0000289973D01*
X0003550098Y0000283307D01*
X0003551765Y0000279973D01*
X0003555098Y0000278307D01*
X0003558431Y0000278307D01*
X0003561765Y0000294973D01*
X0003573431Y0000248307D02*
X0003555098Y0000248307D01*
X0003551765Y0000249973D01*
X0003550098Y0000253307D01*
X0003550098Y0000259973D01*
X0003551765Y0000263307D01*
X0003571765Y0000248307D02*
X0003573431Y0000251640D01*
X0003573431Y0000259973D01*
X0003571765Y0000263307D01*
X0003568431Y0000264973D01*
X0003565098Y0000264973D01*
X0003561765Y0000263307D01*
X0003560098Y0000259973D01*
X0003560098Y0000251640D01*
X0003558431Y0000248307D01*
X0003573431Y0000231640D02*
X0003538431Y0000231640D01*
X0003560098Y0000228307D02*
X0003573431Y0000218307D01*
X0003550098Y0000218307D02*
X0003563431Y0000231640D01*
X0003571765Y0000189973D02*
X0003573431Y0000193307D01*
X0003573431Y0000199973D01*
X0003571765Y0000203307D01*
X0003568431Y0000204973D01*
X0003555098Y0000204973D01*
X0003551765Y0000203307D01*
X0003550098Y0000199973D01*
X0003550098Y0000193307D01*
X0003551765Y0000189973D01*
X0003555098Y0000188307D01*
X0003558431Y0000188307D01*
X0003561765Y0000204973D01*
X0003573431Y0000173307D02*
X0003550098Y0000173307D01*
X0003556765Y0000173307D02*
X0003553431Y0000171640D01*
X0003551765Y0000169973D01*
X0003550098Y0000166640D01*
X0003550098Y0000163307D01*
D35*
X0002905408Y0001140491D02*
X0002905408Y0001162988D01*
X0002905408Y0001151739D02*
X0002866038Y0001151739D01*
X0002871662Y0001155489D01*
X0002875412Y0001159238D01*
X0002877287Y0001162988D01*
X0002866038Y0001116119D02*
X0002866038Y0001112369D01*
X0002867913Y0001108620D01*
X0002869788Y0001106745D01*
X0002873537Y0001104870D01*
X0002881036Y0001102995D01*
X0002890410Y0001102995D01*
X0002897909Y0001104870D01*
X0002901659Y0001106745D01*
X0002903533Y0001108620D01*
X0002905408Y0001112369D01*
X0002905408Y0001116119D01*
X0002903533Y0001119868D01*
X0002901659Y0001121743D01*
X0002897909Y0001123618D01*
X0002890410Y0001125493D01*
X0002881036Y0001125493D01*
X0002873537Y0001123618D01*
X0002869788Y0001121743D01*
X0002867913Y0001119868D01*
X0002866038Y0001116119D01*
X0002905408Y0001086122D02*
X0002866038Y0001086122D01*
X0002905408Y0001063625D02*
X0002882911Y0001080498D01*
X0002866038Y0001063625D02*
X0002888535Y0001086122D01*
X0002905408Y0001421743D02*
X0002905408Y0001444240D01*
X0002905408Y0001432992D02*
X0002866038Y0001432992D01*
X0002871662Y0001436741D01*
X0002875412Y0001440491D01*
X0002877287Y0001444240D01*
X0002905408Y0001404870D02*
X0002866038Y0001404870D01*
X0002905408Y0001382373D02*
X0002882911Y0001399246D01*
X0002866038Y0001382373D02*
X0002888535Y0001404870D01*
X0003681846Y0000842054D02*
X0003681846Y0000860052D01*
X0003681846Y0000851053D02*
X0003650350Y0000851053D01*
X0003654850Y0000854053D01*
X0003657849Y0000857052D01*
X0003659349Y0000860052D01*
X0003660849Y0000815058D02*
X0003681846Y0000815058D01*
X0003660849Y0000828556D02*
X0003677347Y0000828556D01*
X0003680346Y0000827056D01*
X0003681846Y0000824056D01*
X0003681846Y0000819557D01*
X0003680346Y0000816557D01*
X0003678847Y0000815058D01*
X0003665348Y0000789561D02*
X0003665348Y0000800059D01*
X0003681846Y0000800059D02*
X0003650350Y0000800059D01*
X0003650350Y0000785061D01*
X0003731846Y0000782054D02*
X0003731846Y0000800052D01*
X0003731846Y0000791053D02*
X0003700350Y0000791053D01*
X0003704850Y0000794053D01*
X0003707849Y0000797052D01*
X0003709349Y0000800052D01*
X0003710849Y0000755058D02*
X0003731846Y0000755058D01*
X0003710849Y0000768556D02*
X0003727347Y0000768556D01*
X0003730346Y0000767056D01*
X0003731846Y0000764056D01*
X0003731846Y0000759557D01*
X0003730346Y0000756557D01*
X0003728847Y0000755058D01*
X0003715348Y0000729561D02*
X0003715348Y0000740059D01*
X0003731846Y0000740059D02*
X0003700350Y0000740059D01*
X0003700350Y0000725061D01*
X0002795350Y0001315050D02*
X0002795350Y0001312050D01*
X0002796850Y0001309051D01*
X0002798350Y0001307551D01*
X0002801349Y0001306051D01*
X0002807349Y0001304551D01*
X0002814848Y0001304551D01*
X0002820847Y0001306051D01*
X0002823847Y0001307551D01*
X0002825346Y0001309051D01*
X0002826846Y0001312050D01*
X0002826846Y0001315050D01*
X0002825346Y0001318050D01*
X0002823847Y0001319550D01*
X0002820847Y0001321049D01*
X0002814848Y0001322549D01*
X0002807349Y0001322549D01*
X0002801349Y0001321049D01*
X0002798350Y0001319550D01*
X0002796850Y0001318050D01*
X0002795350Y0001315050D01*
X0002823847Y0001291053D02*
X0002825346Y0001289553D01*
X0002826846Y0001291053D01*
X0002825346Y0001292553D01*
X0002823847Y0001291053D01*
X0002826846Y0001291053D01*
X0002826846Y0001259557D02*
X0002826846Y0001277555D01*
X0002826846Y0001268556D02*
X0002795350Y0001268556D01*
X0002799850Y0001271556D01*
X0002802849Y0001274555D01*
X0002804349Y0001277555D01*
X0002805849Y0001232560D02*
X0002826846Y0001232560D01*
X0002805849Y0001246059D02*
X0002822347Y0001246059D01*
X0002825346Y0001244559D01*
X0002826846Y0001241559D01*
X0002826846Y0001237060D01*
X0002825346Y0001234060D01*
X0002823847Y0001232560D01*
X0002810348Y0001207064D02*
X0002810348Y0001217562D01*
X0002826846Y0001217562D02*
X0002795350Y0001217562D01*
X0002795350Y0001202564D01*
X0003521550Y0000645271D02*
X0003553421Y0000645271D01*
X0003557170Y0000643397D01*
X0003559045Y0000641522D01*
X0003560920Y0000637772D01*
X0003560920Y0000630273D01*
X0003559045Y0000626524D01*
X0003557170Y0000624649D01*
X0003553421Y0000622774D01*
X0003521550Y0000622774D01*
X0003560920Y0000583404D02*
X0003560920Y0000605901D01*
X0003560920Y0000594653D02*
X0003521550Y0000594653D01*
X0003527174Y0000598402D01*
X0003530924Y0000602152D01*
X0003532799Y0000605901D01*
X0003405408Y0000740791D02*
X0003366038Y0000740791D01*
X0003394160Y0000727667D01*
X0003366038Y0000714544D01*
X0003405408Y0000714544D01*
X0003401659Y0000673299D02*
X0003403533Y0000675174D01*
X0003405408Y0000680798D01*
X0003405408Y0000684548D01*
X0003403533Y0000690172D01*
X0003399784Y0000693921D01*
X0003396034Y0000695796D01*
X0003388535Y0000697671D01*
X0003382911Y0000697671D01*
X0003375412Y0000695796D01*
X0003371662Y0000693921D01*
X0003367913Y0000690172D01*
X0003366038Y0000684548D01*
X0003366038Y0000680798D01*
X0003367913Y0000675174D01*
X0003369788Y0000673299D01*
X0003405408Y0000656426D02*
X0003366038Y0000656426D01*
X0003366038Y0000641428D01*
X0003367913Y0000637678D01*
X0003369788Y0000635804D01*
X0003373537Y0000633929D01*
X0003379161Y0000633929D01*
X0003382911Y0000635804D01*
X0003384786Y0000637678D01*
X0003386661Y0000641428D01*
X0003386661Y0000656426D01*
X0003405408Y0000596434D02*
X0003405408Y0000618931D01*
X0003405408Y0000607682D02*
X0003366038Y0000607682D01*
X0003371662Y0000611432D01*
X0003375412Y0000615181D01*
X0003377287Y0000618931D01*
X0003366038Y0000583310D02*
X0003366038Y0000557064D01*
X0003405408Y0000573936D01*
X0003366038Y0000534566D02*
X0003366038Y0000530817D01*
X0003367913Y0000527067D01*
X0003369788Y0000525193D01*
X0003373537Y0000523318D01*
X0003381036Y0000521443D01*
X0003390410Y0000521443D01*
X0003397909Y0000523318D01*
X0003401659Y0000525193D01*
X0003403533Y0000527067D01*
X0003405408Y0000530817D01*
X0003405408Y0000534566D01*
X0003403533Y0000538316D01*
X0003401659Y0000540191D01*
X0003397909Y0000542065D01*
X0003390410Y0000543940D01*
X0003381036Y0000543940D01*
X0003373537Y0000542065D01*
X0003369788Y0000540191D01*
X0003367913Y0000538316D01*
X0003366038Y0000534566D01*
X0003369788Y0000506445D02*
X0003367913Y0000504570D01*
X0003366038Y0000500821D01*
X0003366038Y0000491447D01*
X0003367913Y0000487697D01*
X0003369788Y0000485822D01*
X0003373537Y0000483948D01*
X0003377287Y0000483948D01*
X0003382911Y0000485822D01*
X0003405408Y0000508320D01*
X0003405408Y0000483948D01*
X0002870350Y0001690050D02*
X0002870350Y0001687050D01*
X0002871850Y0001684051D01*
X0002873350Y0001682551D01*
X0002876349Y0001681051D01*
X0002882349Y0001679551D01*
X0002889848Y0001679551D01*
X0002895847Y0001681051D01*
X0002898847Y0001682551D01*
X0002900346Y0001684051D01*
X0002901846Y0001687050D01*
X0002901846Y0001690050D01*
X0002900346Y0001693050D01*
X0002898847Y0001694550D01*
X0002895847Y0001696049D01*
X0002889848Y0001697549D01*
X0002882349Y0001697549D01*
X0002876349Y0001696049D01*
X0002873350Y0001694550D01*
X0002871850Y0001693050D01*
X0002870350Y0001690050D01*
X0002898847Y0001666053D02*
X0002900346Y0001664553D01*
X0002901846Y0001666053D01*
X0002900346Y0001667553D01*
X0002898847Y0001666053D01*
X0002901846Y0001666053D01*
X0002901846Y0001634557D02*
X0002901846Y0001652555D01*
X0002901846Y0001643556D02*
X0002870350Y0001643556D01*
X0002874850Y0001646556D01*
X0002877849Y0001649555D01*
X0002879349Y0001652555D01*
X0002880849Y0001607560D02*
X0002901846Y0001607560D01*
X0002880849Y0001621059D02*
X0002897347Y0001621059D01*
X0002900346Y0001619559D01*
X0002901846Y0001616559D01*
X0002901846Y0001612060D01*
X0002900346Y0001609060D01*
X0002898847Y0001607560D01*
X0002885348Y0001582064D02*
X0002885348Y0001592562D01*
X0002901846Y0001592562D02*
X0002870350Y0001592562D01*
X0002870350Y0001577564D01*
X0002795350Y0000915050D02*
X0002795350Y0000912050D01*
X0002796850Y0000909051D01*
X0002798350Y0000907551D01*
X0002801349Y0000906051D01*
X0002807349Y0000904551D01*
X0002814848Y0000904551D01*
X0002820847Y0000906051D01*
X0002823847Y0000907551D01*
X0002825346Y0000909051D01*
X0002826846Y0000912050D01*
X0002826846Y0000915050D01*
X0002825346Y0000918050D01*
X0002823847Y0000919550D01*
X0002820847Y0000921049D01*
X0002814848Y0000922549D01*
X0002807349Y0000922549D01*
X0002801349Y0000921049D01*
X0002798350Y0000919550D01*
X0002796850Y0000918050D01*
X0002795350Y0000915050D01*
X0002823847Y0000891053D02*
X0002825346Y0000889553D01*
X0002826846Y0000891053D01*
X0002825346Y0000892553D01*
X0002823847Y0000891053D01*
X0002826846Y0000891053D01*
X0002826846Y0000859557D02*
X0002826846Y0000877555D01*
X0002826846Y0000868556D02*
X0002795350Y0000868556D01*
X0002799850Y0000871556D01*
X0002802849Y0000874555D01*
X0002804349Y0000877555D01*
X0002805849Y0000832560D02*
X0002826846Y0000832560D01*
X0002805849Y0000846059D02*
X0002822347Y0000846059D01*
X0002825346Y0000844559D01*
X0002826846Y0000841559D01*
X0002826846Y0000837060D01*
X0002825346Y0000834060D01*
X0002823847Y0000832560D01*
X0002810348Y0000807064D02*
X0002810348Y0000817562D01*
X0002826846Y0000817562D02*
X0002795350Y0000817562D01*
X0002795350Y0000802564D01*
X0003160414Y0000731117D02*
X0003137917Y0000731117D01*
X0003149165Y0000731117D02*
X0003149165Y0000691747D01*
X0003145416Y0000697371D01*
X0003141666Y0000701121D01*
X0003137917Y0000702995D01*
X0003184786Y0000691747D02*
X0003188535Y0000691747D01*
X0003192285Y0000693622D01*
X0003194160Y0000695496D01*
X0003196034Y0000699246D01*
X0003197909Y0000706745D01*
X0003197909Y0000716119D01*
X0003196034Y0000723618D01*
X0003194160Y0000727367D01*
X0003192285Y0000729242D01*
X0003188535Y0000731117D01*
X0003184786Y0000731117D01*
X0003181036Y0000729242D01*
X0003179161Y0000727367D01*
X0003177287Y0000723618D01*
X0003175412Y0000716119D01*
X0003175412Y0000706745D01*
X0003177287Y0000699246D01*
X0003179161Y0000695496D01*
X0003181036Y0000693622D01*
X0003184786Y0000691747D01*
X0003214782Y0000731117D02*
X0003214782Y0000691747D01*
X0003237279Y0000731117D02*
X0003220406Y0000708620D01*
X0003237279Y0000691747D02*
X0003214782Y0000714244D01*
X0003445350Y0002015050D02*
X0003445350Y0002012050D01*
X0003446850Y0002009051D01*
X0003448350Y0002007551D01*
X0003451349Y0002006051D01*
X0003457349Y0002004551D01*
X0003464848Y0002004551D01*
X0003470847Y0002006051D01*
X0003473847Y0002007551D01*
X0003475346Y0002009051D01*
X0003476846Y0002012050D01*
X0003476846Y0002015050D01*
X0003475346Y0002018050D01*
X0003473847Y0002019550D01*
X0003470847Y0002021049D01*
X0003464848Y0002022549D01*
X0003457349Y0002022549D01*
X0003451349Y0002021049D01*
X0003448350Y0002019550D01*
X0003446850Y0002018050D01*
X0003445350Y0002015050D01*
X0003473847Y0001991053D02*
X0003475346Y0001989553D01*
X0003476846Y0001991053D01*
X0003475346Y0001992553D01*
X0003473847Y0001991053D01*
X0003476846Y0001991053D01*
X0003476846Y0001959557D02*
X0003476846Y0001977555D01*
X0003476846Y0001968556D02*
X0003445350Y0001968556D01*
X0003449850Y0001971556D01*
X0003452849Y0001974555D01*
X0003454349Y0001977555D01*
X0003455849Y0001932560D02*
X0003476846Y0001932560D01*
X0003455849Y0001946059D02*
X0003472347Y0001946059D01*
X0003475346Y0001944559D01*
X0003476846Y0001941559D01*
X0003476846Y0001937060D01*
X0003475346Y0001934060D01*
X0003473847Y0001932560D01*
X0003460348Y0001907064D02*
X0003460348Y0001917562D01*
X0003476846Y0001917562D02*
X0003445350Y0001917562D01*
X0003445350Y0001902564D01*
X0003729162Y0002031117D02*
X0003706664Y0002031117D01*
X0003717913Y0002031117D02*
X0003717913Y0001991747D01*
X0003714163Y0001997371D01*
X0003710414Y0002001121D01*
X0003706664Y0002002995D01*
X0003746034Y0002031117D02*
X0003746034Y0001991747D01*
X0003768532Y0002031117D02*
X0003751659Y0002008620D01*
X0003768532Y0001991747D02*
X0003746034Y0002014244D01*
X0003710414Y0001931117D02*
X0003687917Y0001931117D01*
X0003699165Y0001931117D02*
X0003699165Y0001891747D01*
X0003695416Y0001897371D01*
X0003691666Y0001901121D01*
X0003687917Y0001902995D01*
X0003734786Y0001891747D02*
X0003738535Y0001891747D01*
X0003742285Y0001893622D01*
X0003744160Y0001895496D01*
X0003746034Y0001899246D01*
X0003747909Y0001906745D01*
X0003747909Y0001916119D01*
X0003746034Y0001923618D01*
X0003744160Y0001927367D01*
X0003742285Y0001929242D01*
X0003738535Y0001931117D01*
X0003734786Y0001931117D01*
X0003731036Y0001929242D01*
X0003729161Y0001927367D01*
X0003727287Y0001923618D01*
X0003725412Y0001916119D01*
X0003725412Y0001906745D01*
X0003727287Y0001899246D01*
X0003729161Y0001895496D01*
X0003731036Y0001893622D01*
X0003734786Y0001891747D01*
X0003764782Y0001931117D02*
X0003764782Y0001891747D01*
X0003787279Y0001931117D02*
X0003770406Y0001908620D01*
X0003787279Y0001891747D02*
X0003764782Y0001914244D01*
X0003160414Y0000631117D02*
X0003137917Y0000631117D01*
X0003149165Y0000631117D02*
X0003149165Y0000591747D01*
X0003145416Y0000597371D01*
X0003141666Y0000601121D01*
X0003137917Y0000602995D01*
X0003184786Y0000591747D02*
X0003188535Y0000591747D01*
X0003192285Y0000593622D01*
X0003194160Y0000595496D01*
X0003196034Y0000599246D01*
X0003197909Y0000606745D01*
X0003197909Y0000616119D01*
X0003196034Y0000623618D01*
X0003194160Y0000627367D01*
X0003192285Y0000629242D01*
X0003188535Y0000631117D01*
X0003184786Y0000631117D01*
X0003181036Y0000629242D01*
X0003179161Y0000627367D01*
X0003177287Y0000623618D01*
X0003175412Y0000616119D01*
X0003175412Y0000606745D01*
X0003177287Y0000599246D01*
X0003179161Y0000595496D01*
X0003181036Y0000593622D01*
X0003184786Y0000591747D01*
X0003214782Y0000631117D02*
X0003214782Y0000591747D01*
X0003237279Y0000631117D02*
X0003220406Y0000608620D01*
X0003237279Y0000591747D02*
X0003214782Y0000614244D01*
X0003161351Y0000531117D02*
X0003138854Y0000531117D01*
X0003150103Y0000531117D02*
X0003150103Y0000491747D01*
X0003146353Y0000497371D01*
X0003142604Y0000501121D01*
X0003138854Y0000502995D01*
X0003185723Y0000491747D02*
X0003189473Y0000491747D01*
X0003193222Y0000493622D01*
X0003195097Y0000495496D01*
X0003196972Y0000499246D01*
X0003198847Y0000506745D01*
X0003198847Y0000516119D01*
X0003196972Y0000523618D01*
X0003195097Y0000527367D01*
X0003193222Y0000529242D01*
X0003189473Y0000531117D01*
X0003185723Y0000531117D01*
X0003181974Y0000529242D01*
X0003180099Y0000527367D01*
X0003178224Y0000523618D01*
X0003176349Y0000516119D01*
X0003176349Y0000506745D01*
X0003178224Y0000499246D01*
X0003180099Y0000495496D01*
X0003181974Y0000493622D01*
X0003185723Y0000491747D01*
X0003223218Y0000491747D02*
X0003226968Y0000491747D01*
X0003230718Y0000493622D01*
X0003232592Y0000495496D01*
X0003234467Y0000499246D01*
X0003236342Y0000506745D01*
X0003236342Y0000516119D01*
X0003234467Y0000523618D01*
X0003232592Y0000527367D01*
X0003230718Y0000529242D01*
X0003226968Y0000531117D01*
X0003223218Y0000531117D01*
X0003219469Y0000529242D01*
X0003217594Y0000527367D01*
X0003215719Y0000523618D01*
X0003213845Y0000516119D01*
X0003213845Y0000506745D01*
X0003215719Y0000499246D01*
X0003217594Y0000495496D01*
X0003219469Y0000493622D01*
X0003223218Y0000491747D01*
X0003005408Y0002021743D02*
X0003005408Y0002044240D01*
X0003005408Y0002032992D02*
X0002966038Y0002032992D01*
X0002971662Y0002036741D01*
X0002975412Y0002040491D01*
X0002977287Y0002044240D01*
X0003005408Y0002004870D02*
X0002966038Y0002004870D01*
X0003005408Y0001982373D02*
X0002982911Y0001999246D01*
X0002966038Y0001982373D02*
X0002988535Y0002004870D01*
X0003605858Y0001252555D02*
X0003587860Y0001252555D01*
X0003596859Y0001252555D02*
X0003596859Y0001221059D01*
X0003593860Y0001225558D01*
X0003590860Y0001228558D01*
X0003587860Y0001230058D01*
X0003625356Y0001221059D02*
X0003628355Y0001221059D01*
X0003631355Y0001222559D01*
X0003632855Y0001224058D01*
X0003634355Y0001227058D01*
X0003635854Y0001233057D01*
X0003635854Y0001240556D01*
X0003634355Y0001246556D01*
X0003632855Y0001249555D01*
X0003631355Y0001251055D01*
X0003628355Y0001252555D01*
X0003625356Y0001252555D01*
X0003622356Y0001251055D01*
X0003620856Y0001249555D01*
X0003619356Y0001246556D01*
X0003617857Y0001240556D01*
X0003617857Y0001233057D01*
X0003619356Y0001227058D01*
X0003620856Y0001224058D01*
X0003622356Y0001222559D01*
X0003625356Y0001221059D01*
X0003655352Y0001221059D02*
X0003658352Y0001221059D01*
X0003661351Y0001222559D01*
X0003662851Y0001224058D01*
X0003664351Y0001227058D01*
X0003665851Y0001233057D01*
X0003665851Y0001240556D01*
X0003664351Y0001246556D01*
X0003662851Y0001249555D01*
X0003661351Y0001251055D01*
X0003658352Y0001252555D01*
X0003655352Y0001252555D01*
X0003652352Y0001251055D01*
X0003650852Y0001249555D01*
X0003649353Y0001246556D01*
X0003647853Y0001240556D01*
X0003647853Y0001233057D01*
X0003649353Y0001227058D01*
X0003650852Y0001224058D01*
X0003652352Y0001222559D01*
X0003655352Y0001221059D01*
X0003679349Y0001252555D02*
X0003679349Y0001221059D01*
X0003697347Y0001252555D02*
X0003683848Y0001234557D01*
X0003697347Y0001221059D02*
X0003679349Y0001239057D01*
X0003751340Y0001252555D02*
X0003733342Y0001252555D01*
X0003742341Y0001252555D02*
X0003742341Y0001221059D01*
X0003739341Y0001225558D01*
X0003736342Y0001228558D01*
X0003733342Y0001230058D01*
X0003763338Y0001252555D02*
X0003787335Y0001221059D01*
X0003767838Y0001221059D02*
X0003770838Y0001222559D01*
X0003772337Y0001225558D01*
X0003770838Y0001228558D01*
X0003767838Y0001230058D01*
X0003764838Y0001228558D01*
X0003763338Y0001225558D01*
X0003764838Y0001222559D01*
X0003767838Y0001221059D01*
X0003785836Y0001251055D02*
X0003787335Y0001248055D01*
X0003785836Y0001245056D01*
X0003782836Y0001243556D01*
X0003779836Y0001245056D01*
X0003778337Y0001248055D01*
X0003779836Y0001251055D01*
X0003782836Y0001252555D01*
X0003785836Y0001251055D01*
X0003620856Y0001352555D02*
X0003602859Y0001352555D01*
X0003611857Y0001352555D02*
X0003611857Y0001321059D01*
X0003608858Y0001325558D01*
X0003605858Y0001328558D01*
X0003602859Y0001330058D01*
X0003640354Y0001321059D02*
X0003643353Y0001321059D01*
X0003646353Y0001322559D01*
X0003647853Y0001324058D01*
X0003649353Y0001327058D01*
X0003650853Y0001333057D01*
X0003650853Y0001340556D01*
X0003649353Y0001346556D01*
X0003647853Y0001349555D01*
X0003646353Y0001351055D01*
X0003643353Y0001352555D01*
X0003640354Y0001352555D01*
X0003637354Y0001351055D01*
X0003635854Y0001349555D01*
X0003634355Y0001346556D01*
X0003632855Y0001340556D01*
X0003632855Y0001333057D01*
X0003634355Y0001327058D01*
X0003635854Y0001324058D01*
X0003637354Y0001322559D01*
X0003640354Y0001321059D01*
X0003664351Y0001352555D02*
X0003664351Y0001321059D01*
X0003682349Y0001352555D02*
X0003668850Y0001334557D01*
X0003682349Y0001321059D02*
X0003664351Y0001339056D01*
X0003736342Y0001352555D02*
X0003718344Y0001352555D01*
X0003727343Y0001352555D02*
X0003727343Y0001321059D01*
X0003724343Y0001325558D01*
X0003721344Y0001328558D01*
X0003718344Y0001330058D01*
X0003748340Y0001352555D02*
X0003772337Y0001321059D01*
X0003752840Y0001321059D02*
X0003755839Y0001322559D01*
X0003757339Y0001325558D01*
X0003755839Y0001328558D01*
X0003752840Y0001330058D01*
X0003749840Y0001328558D01*
X0003748340Y0001325558D01*
X0003749840Y0001322559D01*
X0003752840Y0001321059D01*
X0003770838Y0001351055D02*
X0003772337Y0001348055D01*
X0003770838Y0001345056D01*
X0003767838Y0001343556D01*
X0003764838Y0001345056D01*
X0003763338Y0001348055D01*
X0003764838Y0001351055D01*
X0003767838Y0001352555D01*
X0003770838Y0001351055D01*
X0003710414Y0001456117D02*
X0003687917Y0001456117D01*
X0003699165Y0001456117D02*
X0003699165Y0001416747D01*
X0003695416Y0001422371D01*
X0003691666Y0001426121D01*
X0003687917Y0001427995D01*
X0003734786Y0001416747D02*
X0003738535Y0001416747D01*
X0003742285Y0001418622D01*
X0003744160Y0001420496D01*
X0003746034Y0001424246D01*
X0003747909Y0001431745D01*
X0003747909Y0001441119D01*
X0003746034Y0001448618D01*
X0003744160Y0001452367D01*
X0003742285Y0001454242D01*
X0003738535Y0001456117D01*
X0003734786Y0001456117D01*
X0003731036Y0001454242D01*
X0003729161Y0001452367D01*
X0003727287Y0001448618D01*
X0003725412Y0001441119D01*
X0003725412Y0001431745D01*
X0003727287Y0001424246D01*
X0003729161Y0001420496D01*
X0003731036Y0001418622D01*
X0003734786Y0001416747D01*
X0003764782Y0001456117D02*
X0003764782Y0001416747D01*
X0003787279Y0001456117D02*
X0003770406Y0001433620D01*
X0003787279Y0001416747D02*
X0003764782Y0001439244D01*
X0003009158Y0000317056D02*
X0003007283Y0000320806D01*
X0003003533Y0000324555D01*
X0002997909Y0000330179D01*
X0002996034Y0000333929D01*
X0002996034Y0000337679D01*
X0003005408Y0000335804D02*
X0003003533Y0000339553D01*
X0002999784Y0000343303D01*
X0002992285Y0000345178D01*
X0002979161Y0000345178D01*
X0002971662Y0000343303D01*
X0002967913Y0000339553D01*
X0002966038Y0000335804D01*
X0002966038Y0000328305D01*
X0002967913Y0000324555D01*
X0002971662Y0000320806D01*
X0002979161Y0000318931D01*
X0002992285Y0000318931D01*
X0002999784Y0000320806D01*
X0003003533Y0000324555D01*
X0003005408Y0000328305D01*
X0003005408Y0000335804D01*
X0003005408Y0000281436D02*
X0003005408Y0000303933D01*
X0003005408Y0000292684D02*
X0002966038Y0000292684D01*
X0002971662Y0000296434D01*
X0002975412Y0000300183D01*
X0002977287Y0000303933D01*
X0003071846Y0000417544D02*
X0003040350Y0000417544D01*
X0003071846Y0000384548D02*
X0003056848Y0000395046D01*
X0003071846Y0000402545D02*
X0003040350Y0000402545D01*
X0003040350Y0000390547D01*
X0003041850Y0000387547D01*
X0003043350Y0000386047D01*
X0003046349Y0000384548D01*
X0003050849Y0000384548D01*
X0003053848Y0000386047D01*
X0003055348Y0000387547D01*
X0003056848Y0000390547D01*
X0003056848Y0000402545D01*
X0003071846Y0000356051D02*
X0003071846Y0000371049D01*
X0003040350Y0000371049D01*
X0003071846Y0000327555D02*
X0003056848Y0000338053D01*
X0003071846Y0000345553D02*
X0003040350Y0000345553D01*
X0003040350Y0000333554D01*
X0003041850Y0000330554D01*
X0003043350Y0000329055D01*
X0003046349Y0000327555D01*
X0003050849Y0000327555D01*
X0003053848Y0000329055D01*
X0003055348Y0000330554D01*
X0003056848Y0000333554D01*
X0003056848Y0000345553D01*
X0003053848Y0000309557D02*
X0003052349Y0000312557D01*
X0003050849Y0000314056D01*
X0003047849Y0000315556D01*
X0003046349Y0000315556D01*
X0003043350Y0000314056D01*
X0003041850Y0000312557D01*
X0003040350Y0000309557D01*
X0003040350Y0000303558D01*
X0003041850Y0000300558D01*
X0003043350Y0000299058D01*
X0003046349Y0000297559D01*
X0003047849Y0000297559D01*
X0003050849Y0000299058D01*
X0003052349Y0000300558D01*
X0003053848Y0000303558D01*
X0003053848Y0000309557D01*
X0003055348Y0000312557D01*
X0003056848Y0000314056D01*
X0003059848Y0000315556D01*
X0003065847Y0000315556D01*
X0003068847Y0000314056D01*
X0003070346Y0000312557D01*
X0003071846Y0000309557D01*
X0003071846Y0000303558D01*
X0003070346Y0000300558D01*
X0003068847Y0000299058D01*
X0003065847Y0000297559D01*
X0003059848Y0000297559D01*
X0003056848Y0000299058D01*
X0003055348Y0000300558D01*
X0003053848Y0000303558D01*
X0003040350Y0000287060D02*
X0003040350Y0000266062D01*
X0003071846Y0000279561D01*
X0003043350Y0000255564D02*
X0003041850Y0000254064D01*
X0003040350Y0000251064D01*
X0003040350Y0000243565D01*
X0003041850Y0000240566D01*
X0003043350Y0000239066D01*
X0003046349Y0000237566D01*
X0003049349Y0000237566D01*
X0003053848Y0000239066D01*
X0003071846Y0000257064D01*
X0003071846Y0000237566D01*
X0003071846Y0000222568D02*
X0003071846Y0000216569D01*
X0003070346Y0000213569D01*
X0003068847Y0000212069D01*
X0003064347Y0000209070D01*
X0003058348Y0000207570D01*
X0003046349Y0000207570D01*
X0003043350Y0000209070D01*
X0003041850Y0000210569D01*
X0003040350Y0000213569D01*
X0003040350Y0000219568D01*
X0003041850Y0000222568D01*
X0003043350Y0000224068D01*
X0003046349Y0000225567D01*
X0003053848Y0000225567D01*
X0003056848Y0000224068D01*
X0003058348Y0000222568D01*
X0003059848Y0000219568D01*
X0003059848Y0000213569D01*
X0003058348Y0000210569D01*
X0003056848Y0000209070D01*
X0003053848Y0000207570D01*
M02*