M48
;DRILL file {KiCad 4.0.7} date 09/14/19 13:27:40
;FORMAT={-:-/ absolute / inch / decimal}
FMAT,2
INCH,TZ
T1C0.026
T2C0.031
T3C0.032
T4C0.032
T5C0.035
T6C0.039
T7C0.039
T8C0.040
T9C0.043
T10C0.047
T11C0.043
T12C0.128
%
G90
G05
M72
T1
X6.225Y-3.2
X6.225Y-3.25
X6.225Y-3.3
T2
X5.15Y-3.45
X5.15Y-3.55
X5.15Y-3.65
X5.15Y-3.75
X5.15Y-3.85
X5.15Y-3.95
X5.15Y-4.05
X5.15Y-4.15
X5.15Y-4.25
X5.25Y-3.05
X5.3Y-4.45
X5.3Y-4.5484
X5.3016Y-2.7
X5.35Y-3.05
X5.4Y-2.7
X5.4Y-2.875
X5.45Y-3.05
X5.45Y-3.2
X5.45Y-3.45
X5.45Y-3.55
X5.45Y-3.65
X5.45Y-3.75
X5.45Y-3.85
X5.45Y-3.95
X5.45Y-4.05
X5.45Y-4.15
X5.45Y-4.25
X6.Y-3.1
X6.Y-3.2
X6.Y-3.3
T3
X5.3016Y-2.875
X5.3516Y-3.2
T4
X5.925Y-2.45
X6.025Y-2.45
X6.125Y-2.45
T5
X4.9Y-3.3063
X4.9Y-3.4047
X4.9Y-3.5031
X4.9Y-3.6016
X4.9Y-3.7
X4.9Y-3.9063
X4.9Y-4.0047
X4.9Y-4.1031
X4.9Y-4.2016
X4.9Y-4.3
T6
X5.9Y-2.675
X5.9Y-2.975
X5.9Y-4.025
X5.9Y-4.325
X6.05Y-3.5
X6.05Y-3.7
T7
X6.05Y-2.6
X6.05Y-2.7
X6.05Y-2.85
X6.05Y-2.95
X6.05Y-4.125
X6.05Y-4.225
X6.05Y-4.375
X6.05Y-4.475
T8
X5.25Y-2.525
X5.35Y-2.525
X5.45Y-2.525
T9
X5.6028Y-2.4409
X5.6028Y-4.5591
T10
X5.05Y-2.7
X5.05Y-2.8378
X5.05Y-3.
X5.05Y-3.1378
T11
X4.9787Y-3.763
X4.9787Y-4.363
T12
X4.95Y-2.5
X4.95Y-4.5
X6.2Y-3.05
X6.2Y-3.95
T0
M30
