G04 #@! TF.FileFunction,Soldermask,Top*
%FSLAX46Y46*%
G04 Gerber Fmt 4.6, Leading zero omitted, Abs format (unit mm)*
G04 Created by KiCad (PCBNEW 4.0.7) date 09/14/19 13:27:37*
%MOMM*%
%LPD*%
G01*
G04 APERTURE LIST*
%ADD10C,0.100000*%
%ADD11O,2.000000X1.778000*%
%ADD12R,1.500000X2.000000*%
%ADD13O,1.600000X2.000000*%
%ADD14R,1.300000X2.000000*%
%ADD15O,1.500000X2.000000*%
%ADD16R,1.600000X2.000000*%
%ADD17O,2.000000X1.600000*%
%ADD18R,2.000000X1.600000*%
%ADD19O,1.520000X2.000000*%
%ADD20R,1.520000X2.000000*%
%ADD21O,2.000000X1.520000*%
%ADD22R,2.000000X1.520000*%
%ADD23R,1.000000X1.000000*%
%ADD24O,1.000000X1.000000*%
%ADD25R,3.000000X1.500000*%
%ADD26O,3.000000X1.500000*%
%ADD27C,1.100000*%
%ADD28C,2.000000*%
%ADD29R,2.000000X2.000000*%
%ADD30C,3.250000*%
%ADD31R,1.727200X2.032000*%
%ADD32O,1.727200X2.032000*%
%ADD33C,2.400000*%
%ADD34R,2.400000X2.400000*%
%ADD35C,2.300000*%
%ADD36R,2.900000X0.800000*%
%ADD37R,2.400000X1.600000*%
%ADD38O,2.400000X1.600000*%
%ADD39R,0.800000X0.900000*%
%ADD40R,1.500000X1.300000*%
%ADD41R,1.200000X0.900000*%
G04 APERTURE END LIST*
D10*
D11*
X153670000Y-88900000D03*
X153670000Y-93980000D03*
D12*
X150495000Y-62230000D03*
D13*
X153035000Y-62230000D03*
X155575000Y-62230000D03*
D14*
X138430000Y-81280000D03*
D15*
X135930000Y-81280000D03*
D14*
X137160000Y-73025000D03*
D15*
X134660000Y-73025000D03*
D16*
X137160000Y-68580000D03*
D13*
X134660000Y-68580000D03*
D17*
X134620000Y-115530000D03*
D18*
X134620000Y-113030000D03*
D19*
X135890000Y-77470000D03*
X138430000Y-77470000D03*
D20*
X133350000Y-77470000D03*
D21*
X152400000Y-81280000D03*
X152400000Y-78740000D03*
D22*
X152400000Y-83820000D03*
D23*
X158115000Y-81280000D03*
D24*
X158115000Y-82550000D03*
X158115000Y-83820000D03*
D25*
X124460000Y-93980000D03*
D26*
X124460000Y-91480000D03*
X124460000Y-88980000D03*
X124460000Y-86480000D03*
X124460000Y-83980000D03*
D27*
X126460000Y-95580000D03*
D28*
X153670000Y-111125000D03*
D29*
X153670000Y-113665000D03*
D28*
X153670000Y-66040000D03*
D29*
X153670000Y-68580000D03*
D28*
X153670000Y-74930000D03*
D29*
X153670000Y-72390000D03*
D30*
X157480000Y-100330000D03*
X125730000Y-114300000D03*
X157480000Y-77470000D03*
X125730000Y-63500000D03*
D31*
X138430000Y-64135000D03*
D32*
X135890000Y-64135000D03*
X133350000Y-64135000D03*
D33*
X128270000Y-72080000D03*
D34*
X128270000Y-68580000D03*
D33*
X128270000Y-79700000D03*
D34*
X128270000Y-76200000D03*
D28*
X153670000Y-107315000D03*
D29*
X153670000Y-104775000D03*
D28*
X149860000Y-75565000D03*
X149860000Y-67945000D03*
X149860000Y-102235000D03*
X149860000Y-109855000D03*
D35*
X142310000Y-62000000D03*
D36*
X146210000Y-113665000D03*
X146210000Y-111125000D03*
X146210000Y-108585000D03*
X146210000Y-106045000D03*
X146210000Y-103505000D03*
X146210000Y-100965000D03*
X146210000Y-98425000D03*
X146210000Y-95885000D03*
X146210000Y-93345000D03*
X146210000Y-90805000D03*
X146210000Y-88265000D03*
X146210000Y-85725000D03*
X146210000Y-83185000D03*
X146210000Y-80645000D03*
X146210000Y-78105000D03*
X146210000Y-75565000D03*
X146210000Y-73025000D03*
X146210000Y-70485000D03*
X146210000Y-67945000D03*
X146210000Y-65405000D03*
X146210000Y-112395000D03*
X146210000Y-109855000D03*
X146210000Y-107315000D03*
X146210000Y-104775000D03*
X146210000Y-102235000D03*
X146210000Y-99695000D03*
X146210000Y-97155000D03*
X146210000Y-94615000D03*
X146210000Y-92075000D03*
X146210000Y-89535000D03*
X146210000Y-86995000D03*
X146210000Y-84455000D03*
X146210000Y-81915000D03*
X146210000Y-79375000D03*
X146210000Y-76835000D03*
X146210000Y-74295000D03*
X146210000Y-71755000D03*
X146210000Y-69215000D03*
X146210000Y-66675000D03*
X146210000Y-64135000D03*
D35*
X142310000Y-115800000D03*
D37*
X138430000Y-107950000D03*
D38*
X130810000Y-87630000D03*
X138430000Y-105410000D03*
X130810000Y-90170000D03*
X138430000Y-102870000D03*
X130810000Y-92710000D03*
X138430000Y-100330000D03*
X130810000Y-95250000D03*
X138430000Y-97790000D03*
X130810000Y-97790000D03*
X138430000Y-95250000D03*
X130810000Y-100330000D03*
X138430000Y-92710000D03*
X130810000Y-102870000D03*
X138430000Y-90170000D03*
X130810000Y-105410000D03*
X138430000Y-87630000D03*
X130810000Y-107950000D03*
D25*
X124460000Y-109220000D03*
D26*
X124460000Y-106720000D03*
X124460000Y-104220000D03*
X124460000Y-101720000D03*
X124460000Y-99220000D03*
D27*
X126460000Y-110820000D03*
D39*
X131125000Y-82820000D03*
X129225000Y-82820000D03*
X130175000Y-84820000D03*
D40*
X135810000Y-84455000D03*
X138510000Y-84455000D03*
D41*
X133350000Y-81535000D03*
X133350000Y-84835000D03*
M02*
