G04 #@! TF.FileFunction,Copper,L1,Top,Signal*
%FSLAX46Y46*%
G04 Gerber Fmt 4.6, Leading zero omitted, Abs format (unit mm)*
G04 Created by KiCad (PCBNEW (2015-08-15 BZR 6092)-product) date 3/13/2016 3:57:28 PM*
%MOMM*%
G01*
G04 APERTURE LIST*
%ADD10C,0.100000*%
%ADD11C,6.500000*%
%ADD12O,1.600000X1.600000*%
%ADD13R,1.250000X1.000000*%
%ADD14R,0.900000X1.700000*%
%ADD15R,1.700000X0.900000*%
%ADD16C,15.000000*%
%ADD17R,1.778000X5.080000*%
%ADD18C,0.685800*%
%ADD19C,0.304800*%
%ADD20C,0.609600*%
G04 APERTURE END LIST*
D10*
G36*
X116452513Y-41938299D02*
X115391853Y-40877639D01*
X116098959Y-40170533D01*
X117159619Y-41231193D01*
X116452513Y-41938299D01*
X116452513Y-41938299D01*
G37*
G36*
X115391853Y-42998959D02*
X114331193Y-41938299D01*
X115038299Y-41231193D01*
X116098959Y-42291853D01*
X115391853Y-42998959D01*
X115391853Y-42998959D01*
G37*
G36*
X114331193Y-44059619D02*
X113270533Y-42998959D01*
X113977639Y-42291853D01*
X115038299Y-43352513D01*
X114331193Y-44059619D01*
X114331193Y-44059619D01*
G37*
G36*
X117230330Y-46958757D02*
X116169670Y-45898097D01*
X116876776Y-45190991D01*
X117937436Y-46251651D01*
X117230330Y-46958757D01*
X117230330Y-46958757D01*
G37*
G36*
X118290991Y-45898097D02*
X117230331Y-44837437D01*
X117937437Y-44130331D01*
X118998097Y-45190991D01*
X118290991Y-45898097D01*
X118290991Y-45898097D01*
G37*
G36*
X119351651Y-44837436D02*
X118290991Y-43776776D01*
X118998097Y-43069670D01*
X120058757Y-44130330D01*
X119351651Y-44837436D01*
X119351651Y-44837436D01*
G37*
D11*
X169000000Y-56000000D03*
X169000000Y-40000000D03*
X145000000Y-56000000D03*
D12*
X132500000Y-42900000D03*
X132500000Y-45440000D03*
X132500000Y-47980000D03*
X132500000Y-50520000D03*
X140120000Y-50520000D03*
X140120000Y-47980000D03*
X140120000Y-45440000D03*
X140120000Y-42900000D03*
D11*
X129000000Y-48000000D03*
X145000000Y-48000000D03*
X129000000Y-40000000D03*
X129000000Y-56000000D03*
X145000000Y-40000000D03*
X121000000Y-48000000D03*
X121000000Y-56000000D03*
X153000000Y-40000000D03*
X153000000Y-56000000D03*
X113000000Y-48000000D03*
X121000000Y-40000000D03*
D13*
X140250000Y-38750000D03*
X140250000Y-40750000D03*
D14*
X109650000Y-43600000D03*
X112550000Y-43600000D03*
X109850000Y-52600000D03*
X112750000Y-52600000D03*
D15*
X116500000Y-36650000D03*
X116500000Y-39550000D03*
D16*
X161000000Y-48000000D03*
D17*
X150205000Y-48000000D03*
X171795000Y-48000000D03*
D18*
X125800000Y-52000000D03*
X124250000Y-52000000D03*
X134750000Y-45000000D03*
X148250000Y-43750000D03*
X150000000Y-43750000D03*
X148250000Y-44750000D03*
X171750000Y-44750000D03*
X150000000Y-44750000D03*
X150250000Y-51000000D03*
X171750000Y-51250000D03*
X116700000Y-50500000D03*
X116300000Y-43400000D03*
X124250000Y-44000000D03*
X125750000Y-44000000D03*
X124250000Y-43000000D03*
X125750000Y-43000000D03*
X124250000Y-51000000D03*
X125750000Y-51000000D03*
D19*
X116500000Y-36650000D02*
X112050000Y-36650000D01*
X109650000Y-39050000D02*
X109650000Y-43600000D01*
X112050000Y-36650000D02*
X109650000Y-39050000D01*
X109650000Y-43600000D02*
X109650000Y-44650000D01*
X109650000Y-44650000D02*
X113000000Y-48000000D01*
X109850000Y-52600000D02*
X109850000Y-51150000D01*
X109850000Y-51150000D02*
X113000000Y-48000000D01*
X125800000Y-52000000D02*
X124250000Y-52000000D01*
D20*
X161000000Y-48000000D02*
X153000000Y-56000000D01*
X161000000Y-48000000D02*
X153000000Y-40000000D01*
D19*
X140250000Y-38750000D02*
X140250000Y-38500000D01*
X140250000Y-38500000D02*
X138500000Y-36750000D01*
X134750000Y-43250000D02*
X134750000Y-45000000D01*
X134500000Y-43000000D02*
X134750000Y-43250000D01*
X134500000Y-41250000D02*
X134500000Y-43000000D01*
X133750000Y-40500000D02*
X134500000Y-41250000D01*
X133750000Y-38500000D02*
X133750000Y-40500000D01*
X135500000Y-36750000D02*
X133750000Y-38500000D01*
X138500000Y-36750000D02*
X135500000Y-36750000D01*
X147000000Y-43750000D02*
X143500000Y-43750000D01*
X148250000Y-43750000D02*
X147000000Y-43750000D01*
X153000000Y-40750000D02*
X150000000Y-43750000D01*
X141250000Y-39750000D02*
X140250000Y-38750000D01*
X141250000Y-41500000D02*
X141250000Y-39750000D01*
X143500000Y-43750000D02*
X141250000Y-41500000D01*
X153000000Y-40000000D02*
X153000000Y-40750000D01*
X112950000Y-48050000D02*
X113000000Y-48000000D01*
D20*
X169000000Y-56000000D02*
X172000000Y-53000000D01*
X172000000Y-51410000D02*
X171795000Y-51205000D01*
X172000000Y-53000000D02*
X172000000Y-51410000D01*
X169000000Y-40000000D02*
X172000000Y-43000000D01*
X172000000Y-44590000D02*
X171795000Y-44795000D01*
X172000000Y-43000000D02*
X172000000Y-44590000D01*
X171795000Y-48000000D02*
X171795000Y-44795000D01*
X171795000Y-44795000D02*
X171750000Y-44750000D01*
X150205000Y-44955000D02*
X150205000Y-48000000D01*
X150000000Y-44750000D02*
X150205000Y-44955000D01*
X171795000Y-48000000D02*
X171795000Y-51205000D01*
X150205000Y-50955000D02*
X150205000Y-48000000D01*
X150250000Y-51000000D02*
X150205000Y-50955000D01*
X171795000Y-51205000D02*
X171750000Y-51250000D01*
D19*
X140250000Y-40750000D02*
X140250000Y-42770000D01*
X140250000Y-42770000D02*
X140120000Y-42900000D01*
X115215076Y-42315076D02*
X116300000Y-43400000D01*
X114900000Y-52300000D02*
X113050000Y-52300000D01*
X116700000Y-50500000D02*
X114900000Y-52300000D01*
X115215076Y-42115076D02*
X115215076Y-42315076D01*
X129000000Y-48000000D02*
X132480000Y-48000000D01*
X132480000Y-48000000D02*
X132500000Y-47980000D01*
X116275736Y-41054416D02*
X116275736Y-39774264D01*
X116275736Y-39774264D02*
X116500000Y-39550000D01*
X116275736Y-39674264D02*
X116500000Y-39450000D01*
X116781802Y-39731802D02*
X116500000Y-39450000D01*
X114154416Y-43175736D02*
X112974264Y-43175736D01*
X112974264Y-43175736D02*
X112550000Y-43600000D01*
X112800000Y-43500000D02*
X112450000Y-43500000D01*
X118114214Y-45014214D02*
X118114214Y-45114214D01*
X118114214Y-45114214D02*
X121000000Y-48000000D01*
X125750000Y-44000000D02*
X124250000Y-44000000D01*
X144980000Y-47980000D02*
X145000000Y-48000000D01*
X119174874Y-43953553D02*
X119174874Y-41825126D01*
X119174874Y-41825126D02*
X121000000Y-40000000D01*
X125750000Y-43000000D02*
X124250000Y-43000000D01*
X140120000Y-50520000D02*
X139080000Y-50520000D01*
X132500000Y-40000000D02*
X129000000Y-40000000D01*
X133900000Y-41400000D02*
X132500000Y-40000000D01*
X133900000Y-49600000D02*
X133900000Y-41400000D01*
X135500000Y-51200000D02*
X133900000Y-49600000D01*
X138400000Y-51200000D02*
X135500000Y-51200000D01*
X139080000Y-50520000D02*
X138400000Y-51200000D01*
X118873833Y-42126167D02*
X121000000Y-40000000D01*
X121000000Y-56000000D02*
X120000000Y-56000000D01*
X120000000Y-56000000D02*
X117400000Y-53400000D01*
X117400000Y-53400000D02*
X117400000Y-46421321D01*
X117400000Y-46421321D02*
X117053553Y-46074874D01*
X140725000Y-52025000D02*
X126775000Y-52025000D01*
X123250000Y-51250000D02*
X121000000Y-53500000D01*
X124000000Y-51250000D02*
X123250000Y-51250000D01*
X124250000Y-51000000D02*
X124000000Y-51250000D01*
X126775000Y-52025000D02*
X125750000Y-51000000D01*
X121000000Y-53500000D02*
X121000000Y-56000000D01*
X145000000Y-56000000D02*
X144900000Y-56000000D01*
X144900000Y-56000000D02*
X141400000Y-52500000D01*
X141400000Y-46720000D02*
X140120000Y-45440000D01*
X141400000Y-52500000D02*
X141400000Y-46720000D01*
X145000000Y-56000000D02*
X144700000Y-56000000D01*
X144700000Y-56000000D02*
X140725000Y-52025000D01*
X140725000Y-52025000D02*
X140700000Y-52000000D01*
X140120000Y-45440000D02*
X139840000Y-45440000D01*
M02*
