%TF.GenerationSoftware,KiCad,Pcbnew,(5.1.10)-1*%
%TF.CreationDate,2021-09-22T19:04:14-07:00*%
%TF.ProjectId,try3,74727933-2e6b-4696-9361-645f70636258,rev?*%
%TF.SameCoordinates,Original*%
%TF.FileFunction,Soldermask,Top*%
%TF.FilePolarity,Negative*%
%FSLAX46Y46*%
G04 Gerber Fmt 4.6, Leading zero omitted, Abs format (unit mm)*
G04 Created by KiCad (PCBNEW (5.1.10)-1) date 2021-09-22 19:04:14*
%MOMM*%
%LPD*%
G01*
G04 APERTURE LIST*
%ADD10C,0.010000*%
%ADD11C,2.286000*%
%ADD12C,1.998980*%
%ADD13R,1.397000X1.397000*%
%ADD14C,1.397000*%
G04 APERTURE END LIST*
D10*
%TO.C,G\u002A\u002A\u002A*%
G36*
X175182696Y-73884855D02*
G01*
X176585081Y-73999502D01*
X177743231Y-74363111D01*
X178811421Y-75034063D01*
X179289697Y-75438997D01*
X180218788Y-76461691D01*
X180819352Y-77599039D01*
X181143305Y-78965181D01*
X181211302Y-79663729D01*
X181317032Y-81283197D01*
X183304275Y-82193544D01*
X185291518Y-83103890D01*
X185161227Y-84881032D01*
X185050048Y-85917737D01*
X184881274Y-86958906D01*
X184690482Y-87786841D01*
X184681303Y-87817739D01*
X184331669Y-88977305D01*
X182794139Y-88977305D01*
X182034370Y-88966434D01*
X181484821Y-88937841D01*
X181257556Y-88897549D01*
X181256609Y-88894639D01*
X181325509Y-88656627D01*
X181500127Y-88147869D01*
X181608848Y-87845508D01*
X181817274Y-87058115D01*
X181965115Y-86101162D01*
X182005330Y-85553826D01*
X182047655Y-84809266D01*
X182138818Y-84398405D01*
X182319986Y-84213267D01*
X182537556Y-84157900D01*
X182998503Y-84253125D01*
X183204625Y-84637247D01*
X183108366Y-85209067D01*
X183070813Y-85292639D01*
X182861897Y-85871229D01*
X182720835Y-86466754D01*
X182583047Y-87182260D01*
X182454087Y-87752835D01*
X182387412Y-88150048D01*
X182537618Y-88294162D01*
X183012071Y-88279230D01*
X183050803Y-88275559D01*
X183520661Y-88189672D01*
X183789232Y-87964784D01*
X183973337Y-87475269D01*
X184041367Y-87210348D01*
X184202937Y-86395051D01*
X184341560Y-85426563D01*
X184392078Y-84931537D01*
X184498031Y-83646640D01*
X183204046Y-82993438D01*
X182325879Y-82610099D01*
X181223894Y-82215293D01*
X180024685Y-81845320D01*
X178854846Y-81536484D01*
X177840972Y-81325087D01*
X177115304Y-81247427D01*
X176620475Y-81291767D01*
X176427279Y-81509878D01*
X176397478Y-81905270D01*
X176416054Y-82252299D01*
X176529199Y-82479966D01*
X176823040Y-82633889D01*
X177383703Y-82759682D01*
X178274870Y-82899607D01*
X179367727Y-83108015D01*
X180300091Y-83370531D01*
X180994757Y-83657770D01*
X181374519Y-83940347D01*
X181418923Y-84096268D01*
X181195146Y-84359488D01*
X181022622Y-84366761D01*
X180660181Y-84271410D01*
X180008175Y-84098943D01*
X179203962Y-83885698D01*
X179158348Y-83873589D01*
X178226717Y-83661576D01*
X177315874Y-83511969D01*
X176673565Y-83459351D01*
X175734870Y-83455565D01*
X175734870Y-80331606D01*
X176949652Y-80483383D01*
X177642012Y-80560388D01*
X178003661Y-80542611D01*
X178142000Y-80391777D01*
X178164429Y-80069607D01*
X178164435Y-80050442D01*
X177965040Y-78976267D01*
X177418847Y-78069381D01*
X176603848Y-77409415D01*
X175598031Y-77075998D01*
X175226945Y-77051174D01*
X174088959Y-77234329D01*
X173203562Y-77775597D01*
X172588466Y-78658971D01*
X172284192Y-79710668D01*
X172136364Y-80635131D01*
X173493878Y-80477575D01*
X174851391Y-80320018D01*
X174851391Y-81753727D01*
X174822401Y-82612505D01*
X174684776Y-83121243D01*
X174362533Y-83370429D01*
X173779688Y-83450553D01*
X173422383Y-83455565D01*
X172755968Y-83527730D01*
X171860686Y-83719118D01*
X170859309Y-83992067D01*
X169874605Y-84308918D01*
X169029348Y-84632011D01*
X168446306Y-84923683D01*
X168314858Y-85022324D01*
X167826952Y-85313558D01*
X167486597Y-85315570D01*
X167203746Y-85036178D01*
X167130745Y-84630042D01*
X167285095Y-84305529D01*
X167397044Y-84249525D01*
X167724465Y-84148591D01*
X168353271Y-83946449D01*
X169165617Y-83681103D01*
X169440087Y-83590699D01*
X170475748Y-83284302D01*
X171555388Y-83021288D01*
X172460732Y-82854292D01*
X172532261Y-82845025D01*
X173265942Y-82743008D01*
X173669209Y-82620548D01*
X173850752Y-82409027D01*
X173919260Y-82039826D01*
X173926690Y-81964696D01*
X173935179Y-81472489D01*
X173758564Y-81279084D01*
X173374516Y-81248417D01*
X172607385Y-81327218D01*
X171561801Y-81537149D01*
X170368478Y-81842868D01*
X169158133Y-82209033D01*
X168061483Y-82600303D01*
X167507478Y-82834696D01*
X166016609Y-83520960D01*
X166037812Y-84758263D01*
X166101288Y-85716855D01*
X166237411Y-86715478D01*
X166314242Y-87099913D01*
X166489868Y-87756162D01*
X166687252Y-88095462D01*
X167004338Y-88235979D01*
X167286952Y-88273472D01*
X167730915Y-88285175D01*
X167947621Y-88151327D01*
X167971719Y-87783199D01*
X167837855Y-87092062D01*
X167804608Y-86947795D01*
X167714292Y-86377826D01*
X167806963Y-86090810D01*
X167951925Y-86003900D01*
X168159166Y-85924440D01*
X168287389Y-85950173D01*
X168393693Y-86171301D01*
X168535176Y-86678025D01*
X168645712Y-87099913D01*
X168836381Y-87815892D01*
X168994902Y-88399268D01*
X169048643Y-88590783D01*
X169059328Y-88792903D01*
X168888999Y-88909625D01*
X168452780Y-88963546D01*
X167665798Y-88977266D01*
X167596969Y-88977305D01*
X166033635Y-88977305D01*
X165787988Y-88065041D01*
X165529234Y-86946214D01*
X165315128Y-85729426D01*
X165174553Y-84599918D01*
X165134410Y-83872824D01*
X165150911Y-83482702D01*
X165254375Y-83200050D01*
X165523496Y-82953153D01*
X166036964Y-82670297D01*
X166873472Y-82279769D01*
X166891517Y-82271519D01*
X167709153Y-81909106D01*
X168382468Y-81631592D01*
X168804901Y-81482064D01*
X168879344Y-81467739D01*
X169007939Y-81264499D01*
X169089499Y-80723431D01*
X169098386Y-80473842D01*
X169803359Y-80473842D01*
X169819702Y-80853855D01*
X169948227Y-81002110D01*
X170132464Y-81022618D01*
X170613439Y-80937432D01*
X170786990Y-80856966D01*
X170967708Y-80553906D01*
X171133082Y-79985809D01*
X171179363Y-79735732D01*
X171578313Y-78325525D01*
X172281709Y-77221412D01*
X173158685Y-76507703D01*
X174362467Y-76028806D01*
X175570069Y-75949941D01*
X176712031Y-76235519D01*
X177718888Y-76849953D01*
X178521181Y-77757656D01*
X179049445Y-78923042D01*
X179189975Y-79597681D01*
X179346176Y-80389573D01*
X179591473Y-80829233D01*
X179991240Y-81005533D01*
X180238155Y-81022618D01*
X180468634Y-80979654D01*
X180575855Y-80778120D01*
X180583645Y-80316348D01*
X180538743Y-79740011D01*
X180210605Y-78216041D01*
X179551688Y-76898037D01*
X178612149Y-75835522D01*
X177442145Y-75078023D01*
X176091832Y-74675063D01*
X175355442Y-74622015D01*
X173992802Y-74740963D01*
X172863566Y-75130923D01*
X171815804Y-75846915D01*
X171702333Y-75945006D01*
X170886635Y-76815475D01*
X170335390Y-77805640D01*
X169989733Y-79038638D01*
X169878674Y-79759962D01*
X169803359Y-80473842D01*
X169098386Y-80473842D01*
X169108783Y-80181867D01*
X169307834Y-78481325D01*
X169889803Y-76971512D01*
X170831910Y-75690842D01*
X172111375Y-74677729D01*
X172501814Y-74460136D01*
X173280981Y-74114650D01*
X174032244Y-73938033D01*
X174967636Y-73884786D01*
X175182696Y-73884855D01*
G37*
X175182696Y-73884855D02*
X176585081Y-73999502D01*
X177743231Y-74363111D01*
X178811421Y-75034063D01*
X179289697Y-75438997D01*
X180218788Y-76461691D01*
X180819352Y-77599039D01*
X181143305Y-78965181D01*
X181211302Y-79663729D01*
X181317032Y-81283197D01*
X183304275Y-82193544D01*
X185291518Y-83103890D01*
X185161227Y-84881032D01*
X185050048Y-85917737D01*
X184881274Y-86958906D01*
X184690482Y-87786841D01*
X184681303Y-87817739D01*
X184331669Y-88977305D01*
X182794139Y-88977305D01*
X182034370Y-88966434D01*
X181484821Y-88937841D01*
X181257556Y-88897549D01*
X181256609Y-88894639D01*
X181325509Y-88656627D01*
X181500127Y-88147869D01*
X181608848Y-87845508D01*
X181817274Y-87058115D01*
X181965115Y-86101162D01*
X182005330Y-85553826D01*
X182047655Y-84809266D01*
X182138818Y-84398405D01*
X182319986Y-84213267D01*
X182537556Y-84157900D01*
X182998503Y-84253125D01*
X183204625Y-84637247D01*
X183108366Y-85209067D01*
X183070813Y-85292639D01*
X182861897Y-85871229D01*
X182720835Y-86466754D01*
X182583047Y-87182260D01*
X182454087Y-87752835D01*
X182387412Y-88150048D01*
X182537618Y-88294162D01*
X183012071Y-88279230D01*
X183050803Y-88275559D01*
X183520661Y-88189672D01*
X183789232Y-87964784D01*
X183973337Y-87475269D01*
X184041367Y-87210348D01*
X184202937Y-86395051D01*
X184341560Y-85426563D01*
X184392078Y-84931537D01*
X184498031Y-83646640D01*
X183204046Y-82993438D01*
X182325879Y-82610099D01*
X181223894Y-82215293D01*
X180024685Y-81845320D01*
X178854846Y-81536484D01*
X177840972Y-81325087D01*
X177115304Y-81247427D01*
X176620475Y-81291767D01*
X176427279Y-81509878D01*
X176397478Y-81905270D01*
X176416054Y-82252299D01*
X176529199Y-82479966D01*
X176823040Y-82633889D01*
X177383703Y-82759682D01*
X178274870Y-82899607D01*
X179367727Y-83108015D01*
X180300091Y-83370531D01*
X180994757Y-83657770D01*
X181374519Y-83940347D01*
X181418923Y-84096268D01*
X181195146Y-84359488D01*
X181022622Y-84366761D01*
X180660181Y-84271410D01*
X180008175Y-84098943D01*
X179203962Y-83885698D01*
X179158348Y-83873589D01*
X178226717Y-83661576D01*
X177315874Y-83511969D01*
X176673565Y-83459351D01*
X175734870Y-83455565D01*
X175734870Y-80331606D01*
X176949652Y-80483383D01*
X177642012Y-80560388D01*
X178003661Y-80542611D01*
X178142000Y-80391777D01*
X178164429Y-80069607D01*
X178164435Y-80050442D01*
X177965040Y-78976267D01*
X177418847Y-78069381D01*
X176603848Y-77409415D01*
X175598031Y-77075998D01*
X175226945Y-77051174D01*
X174088959Y-77234329D01*
X173203562Y-77775597D01*
X172588466Y-78658971D01*
X172284192Y-79710668D01*
X172136364Y-80635131D01*
X173493878Y-80477575D01*
X174851391Y-80320018D01*
X174851391Y-81753727D01*
X174822401Y-82612505D01*
X174684776Y-83121243D01*
X174362533Y-83370429D01*
X173779688Y-83450553D01*
X173422383Y-83455565D01*
X172755968Y-83527730D01*
X171860686Y-83719118D01*
X170859309Y-83992067D01*
X169874605Y-84308918D01*
X169029348Y-84632011D01*
X168446306Y-84923683D01*
X168314858Y-85022324D01*
X167826952Y-85313558D01*
X167486597Y-85315570D01*
X167203746Y-85036178D01*
X167130745Y-84630042D01*
X167285095Y-84305529D01*
X167397044Y-84249525D01*
X167724465Y-84148591D01*
X168353271Y-83946449D01*
X169165617Y-83681103D01*
X169440087Y-83590699D01*
X170475748Y-83284302D01*
X171555388Y-83021288D01*
X172460732Y-82854292D01*
X172532261Y-82845025D01*
X173265942Y-82743008D01*
X173669209Y-82620548D01*
X173850752Y-82409027D01*
X173919260Y-82039826D01*
X173926690Y-81964696D01*
X173935179Y-81472489D01*
X173758564Y-81279084D01*
X173374516Y-81248417D01*
X172607385Y-81327218D01*
X171561801Y-81537149D01*
X170368478Y-81842868D01*
X169158133Y-82209033D01*
X168061483Y-82600303D01*
X167507478Y-82834696D01*
X166016609Y-83520960D01*
X166037812Y-84758263D01*
X166101288Y-85716855D01*
X166237411Y-86715478D01*
X166314242Y-87099913D01*
X166489868Y-87756162D01*
X166687252Y-88095462D01*
X167004338Y-88235979D01*
X167286952Y-88273472D01*
X167730915Y-88285175D01*
X167947621Y-88151327D01*
X167971719Y-87783199D01*
X167837855Y-87092062D01*
X167804608Y-86947795D01*
X167714292Y-86377826D01*
X167806963Y-86090810D01*
X167951925Y-86003900D01*
X168159166Y-85924440D01*
X168287389Y-85950173D01*
X168393693Y-86171301D01*
X168535176Y-86678025D01*
X168645712Y-87099913D01*
X168836381Y-87815892D01*
X168994902Y-88399268D01*
X169048643Y-88590783D01*
X169059328Y-88792903D01*
X168888999Y-88909625D01*
X168452780Y-88963546D01*
X167665798Y-88977266D01*
X167596969Y-88977305D01*
X166033635Y-88977305D01*
X165787988Y-88065041D01*
X165529234Y-86946214D01*
X165315128Y-85729426D01*
X165174553Y-84599918D01*
X165134410Y-83872824D01*
X165150911Y-83482702D01*
X165254375Y-83200050D01*
X165523496Y-82953153D01*
X166036964Y-82670297D01*
X166873472Y-82279769D01*
X166891517Y-82271519D01*
X167709153Y-81909106D01*
X168382468Y-81631592D01*
X168804901Y-81482064D01*
X168879344Y-81467739D01*
X169007939Y-81264499D01*
X169089499Y-80723431D01*
X169098386Y-80473842D01*
X169803359Y-80473842D01*
X169819702Y-80853855D01*
X169948227Y-81002110D01*
X170132464Y-81022618D01*
X170613439Y-80937432D01*
X170786990Y-80856966D01*
X170967708Y-80553906D01*
X171133082Y-79985809D01*
X171179363Y-79735732D01*
X171578313Y-78325525D01*
X172281709Y-77221412D01*
X173158685Y-76507703D01*
X174362467Y-76028806D01*
X175570069Y-75949941D01*
X176712031Y-76235519D01*
X177718888Y-76849953D01*
X178521181Y-77757656D01*
X179049445Y-78923042D01*
X179189975Y-79597681D01*
X179346176Y-80389573D01*
X179591473Y-80829233D01*
X179991240Y-81005533D01*
X180238155Y-81022618D01*
X180468634Y-80979654D01*
X180575855Y-80778120D01*
X180583645Y-80316348D01*
X180538743Y-79740011D01*
X180210605Y-78216041D01*
X179551688Y-76898037D01*
X178612149Y-75835522D01*
X177442145Y-75078023D01*
X176091832Y-74675063D01*
X175355442Y-74622015D01*
X173992802Y-74740963D01*
X172863566Y-75130923D01*
X171815804Y-75846915D01*
X171702333Y-75945006D01*
X170886635Y-76815475D01*
X170335390Y-77805640D01*
X169989733Y-79038638D01*
X169878674Y-79759962D01*
X169803359Y-80473842D01*
X169098386Y-80473842D01*
X169108783Y-80181867D01*
X169307834Y-78481325D01*
X169889803Y-76971512D01*
X170831910Y-75690842D01*
X172111375Y-74677729D01*
X172501814Y-74460136D01*
X173280981Y-74114650D01*
X174032244Y-73938033D01*
X174967636Y-73884786D01*
X175182696Y-73884855D01*
G36*
X183069671Y-90096573D02*
G01*
X183644286Y-90135976D01*
X183902376Y-90191822D01*
X183907044Y-90200886D01*
X183815035Y-90451767D01*
X183581777Y-90951772D01*
X183435247Y-91244917D01*
X182439642Y-92857450D01*
X181147017Y-94443144D01*
X179668567Y-95887520D01*
X178115486Y-97076097D01*
X177296416Y-97565157D01*
X176619836Y-97915704D01*
X176105088Y-98163719D01*
X175869605Y-98253826D01*
X175780504Y-98059436D01*
X175736017Y-97581519D01*
X175734870Y-97480783D01*
X175814918Y-96893343D01*
X176047768Y-96707739D01*
X176379710Y-96845786D01*
X176438008Y-96939762D01*
X176644159Y-96943806D01*
X177115953Y-96739016D01*
X177756271Y-96368628D01*
X177836848Y-96317031D01*
X178819287Y-95575831D01*
X179882706Y-94601915D01*
X180909511Y-93518093D01*
X181782106Y-92447177D01*
X182312334Y-91643053D01*
X182815886Y-90744261D01*
X181981030Y-90744656D01*
X181452196Y-90788282D01*
X181079995Y-90985016D01*
X180715310Y-91434575D01*
X180535941Y-91711002D01*
X180036631Y-92381456D01*
X179357210Y-93145436D01*
X178768985Y-93721627D01*
X178048089Y-94372433D01*
X177336262Y-95014635D01*
X176863842Y-95440506D01*
X176335898Y-95855578D01*
X175971286Y-95966737D01*
X175759494Y-95890197D01*
X175434264Y-95526096D01*
X175538415Y-95136358D01*
X176062650Y-94747243D01*
X176185731Y-94686400D01*
X177041579Y-94159541D01*
X178002862Y-93373982D01*
X178943397Y-92447174D01*
X179737002Y-91496567D01*
X179962542Y-91170969D01*
X180668395Y-90081652D01*
X182287719Y-90081652D01*
X183069671Y-90096573D01*
G37*
X183069671Y-90096573D02*
X183644286Y-90135976D01*
X183902376Y-90191822D01*
X183907044Y-90200886D01*
X183815035Y-90451767D01*
X183581777Y-90951772D01*
X183435247Y-91244917D01*
X182439642Y-92857450D01*
X181147017Y-94443144D01*
X179668567Y-95887520D01*
X178115486Y-97076097D01*
X177296416Y-97565157D01*
X176619836Y-97915704D01*
X176105088Y-98163719D01*
X175869605Y-98253826D01*
X175780504Y-98059436D01*
X175736017Y-97581519D01*
X175734870Y-97480783D01*
X175814918Y-96893343D01*
X176047768Y-96707739D01*
X176379710Y-96845786D01*
X176438008Y-96939762D01*
X176644159Y-96943806D01*
X177115953Y-96739016D01*
X177756271Y-96368628D01*
X177836848Y-96317031D01*
X178819287Y-95575831D01*
X179882706Y-94601915D01*
X180909511Y-93518093D01*
X181782106Y-92447177D01*
X182312334Y-91643053D01*
X182815886Y-90744261D01*
X181981030Y-90744656D01*
X181452196Y-90788282D01*
X181079995Y-90985016D01*
X180715310Y-91434575D01*
X180535941Y-91711002D01*
X180036631Y-92381456D01*
X179357210Y-93145436D01*
X178768985Y-93721627D01*
X178048089Y-94372433D01*
X177336262Y-95014635D01*
X176863842Y-95440506D01*
X176335898Y-95855578D01*
X175971286Y-95966737D01*
X175759494Y-95890197D01*
X175434264Y-95526096D01*
X175538415Y-95136358D01*
X176062650Y-94747243D01*
X176185731Y-94686400D01*
X177041579Y-94159541D01*
X178002862Y-93373982D01*
X178943397Y-92447174D01*
X179737002Y-91496567D01*
X179962542Y-91170969D01*
X180668395Y-90081652D01*
X182287719Y-90081652D01*
X183069671Y-90096573D01*
G36*
X170695945Y-91501623D02*
G01*
X171515206Y-92478225D01*
X172530195Y-93467866D01*
X173288571Y-94091121D01*
X174851391Y-95260649D01*
X174851391Y-96757238D01*
X174821772Y-97631324D01*
X174727020Y-98114332D01*
X174570279Y-98253826D01*
X174252585Y-98148927D01*
X173674615Y-97872171D01*
X172953980Y-97480464D01*
X172858540Y-97425565D01*
X171523246Y-96506497D01*
X170162739Y-95315811D01*
X168893602Y-93973471D01*
X167832418Y-92599443D01*
X167273282Y-91678312D01*
X166885291Y-90939962D01*
X167783565Y-90939962D01*
X167916206Y-91282279D01*
X168267400Y-91862408D01*
X168767053Y-92583771D01*
X169345071Y-93349788D01*
X169931361Y-94063883D01*
X170455828Y-94629477D01*
X170474435Y-94647554D01*
X171214609Y-95298062D01*
X172095446Y-95982699D01*
X172642696Y-96364497D01*
X173857478Y-97159886D01*
X173928277Y-96343921D01*
X173891143Y-95650872D01*
X173672563Y-95345230D01*
X172804744Y-94750442D01*
X171834651Y-93914501D01*
X170900924Y-92966512D01*
X170190355Y-92102490D01*
X169651699Y-91398899D01*
X169249464Y-90991946D01*
X168885873Y-90803722D01*
X168501391Y-90756765D01*
X168012945Y-90800871D01*
X167785647Y-90925077D01*
X167783565Y-90939962D01*
X166885291Y-90939962D01*
X166434261Y-90081652D01*
X169666140Y-90081652D01*
X170695945Y-91501623D01*
G37*
X170695945Y-91501623D02*
X171515206Y-92478225D01*
X172530195Y-93467866D01*
X173288571Y-94091121D01*
X174851391Y-95260649D01*
X174851391Y-96757238D01*
X174821772Y-97631324D01*
X174727020Y-98114332D01*
X174570279Y-98253826D01*
X174252585Y-98148927D01*
X173674615Y-97872171D01*
X172953980Y-97480464D01*
X172858540Y-97425565D01*
X171523246Y-96506497D01*
X170162739Y-95315811D01*
X168893602Y-93973471D01*
X167832418Y-92599443D01*
X167273282Y-91678312D01*
X166885291Y-90939962D01*
X167783565Y-90939962D01*
X167916206Y-91282279D01*
X168267400Y-91862408D01*
X168767053Y-92583771D01*
X169345071Y-93349788D01*
X169931361Y-94063883D01*
X170455828Y-94629477D01*
X170474435Y-94647554D01*
X171214609Y-95298062D01*
X172095446Y-95982699D01*
X172642696Y-96364497D01*
X173857478Y-97159886D01*
X173928277Y-96343921D01*
X173891143Y-95650872D01*
X173672563Y-95345230D01*
X172804744Y-94750442D01*
X171834651Y-93914501D01*
X170900924Y-92966512D01*
X170190355Y-92102490D01*
X169651699Y-91398899D01*
X169249464Y-90991946D01*
X168885873Y-90803722D01*
X168501391Y-90756765D01*
X168012945Y-90800871D01*
X167785647Y-90925077D01*
X167783565Y-90939962D01*
X166885291Y-90939962D01*
X166434261Y-90081652D01*
X169666140Y-90081652D01*
X170695945Y-91501623D01*
%TD*%
D11*
%TO.C,BT1*%
X185674000Y-94234000D03*
X164846000Y-94234000D03*
X185674000Y-91186000D03*
X164846000Y-91186000D03*
%TD*%
D12*
%TO.C,R1*%
X188595000Y-81598000D03*
X188595000Y-89598000D03*
%TD*%
D13*
%TO.C,SW1*%
X162560000Y-86995000D03*
D14*
X162560000Y-84455000D03*
X162560000Y-81915000D03*
%TD*%
M02*
