%MOIN*%
%OFA0B0*%
%FSLAX36Y36*%
%IPPOS*%
%LPD*%
%ADD10C,0*%
D10*
X002518110Y001099999D02*
X002518110Y001099999D01*
X002517254Y001113052D01*
X002514702Y001125882D01*
X002510497Y001138268D01*
X002504712Y001149999D01*
X002497445Y001160876D01*
X002488820Y001170710D01*
X002478985Y001179335D01*
X002468110Y001186602D01*
X002456378Y001192388D01*
X002443992Y001196592D01*
X002431162Y001199144D01*
X002418110Y001200000D01*
X002055213Y001200000D01*
X002052301Y001200107D01*
X002049406Y001200430D01*
X002046543Y001200966D01*
X002043727Y001201712D01*
X002040973Y001202665D01*
X002038298Y001203818D01*
X002035716Y001205166D01*
X002033240Y001206702D01*
X002030884Y001208416D01*
X002028662Y001210299D01*
X002026585Y001212342D01*
X002024665Y001214533D01*
X002022912Y001216860D01*
X002021336Y001219310D01*
X002019946Y001221870D01*
X002018748Y001224526D01*
X002017750Y001227263D01*
X002016958Y001230066D01*
X002016374Y001232920D01*
X002016004Y001235810D01*
X002012429Y001275180D01*
X002012269Y001278445D01*
X002012381Y001281713D01*
X002012763Y001284960D01*
X002013413Y001288164D01*
X002014327Y001291303D01*
X002015498Y001294356D01*
X002016918Y001297300D01*
X002018578Y001300117D01*
X002020465Y001302787D01*
X002022568Y001305290D01*
X002024871Y001307610D01*
X002027359Y001309732D01*
X002030014Y001311639D01*
X002032819Y001313320D01*
X002035753Y001314762D01*
X002038796Y001315956D01*
X002041929Y001316893D01*
X002045128Y001317568D01*
X002048372Y001317974D01*
X002051638Y001318110D01*
X002418110Y001318110D01*
X002431162Y001318966D01*
X002443992Y001321517D01*
X002456378Y001325722D01*
X002468110Y001331507D01*
X002478985Y001338775D01*
X002488820Y001347399D01*
X002497445Y001357234D01*
X002504712Y001368110D01*
X002510497Y001379842D01*
X002514702Y001392228D01*
X002517254Y001405057D01*
X002518110Y001418110D01*
X002518110Y002418110D01*
X002517254Y002431163D01*
X002514702Y002443992D01*
X002510497Y002456378D01*
X002504712Y002468110D01*
X002497445Y002478986D01*
X002488820Y002488821D01*
X002478985Y002497445D01*
X002468110Y002504712D01*
X002456378Y002510498D01*
X002443992Y002514703D01*
X002431162Y002517254D01*
X002418110Y002518110D01*
X002022944Y002518110D01*
X002019829Y002518233D01*
X002016733Y002518603D01*
X002013676Y002519216D01*
X002010677Y002520069D01*
X002007756Y002521157D01*
X002004929Y002522473D01*
X002002216Y002524008D01*
X001999632Y002525753D01*
X001997195Y002527698D01*
X001994919Y002529828D01*
X001992819Y002532133D01*
X001990908Y002534596D01*
X001989197Y002537203D01*
X001987699Y002539936D01*
X001986421Y002542780D01*
X001985372Y002545716D01*
X001984559Y002548726D01*
X001983987Y002551791D01*
X001983659Y002554891D01*
X001983577Y002558008D01*
X001984106Y002597378D01*
X001984266Y002600439D01*
X001984664Y002603478D01*
X001985297Y002606477D01*
X001986162Y002609417D01*
X001987252Y002612281D01*
X001988563Y002615052D01*
X001990084Y002617713D01*
X001991808Y002620247D01*
X001993724Y002622639D01*
X001995821Y002624875D01*
X001998085Y002626941D01*
X002000502Y002628825D01*
X002003059Y002630515D01*
X002005740Y002632000D01*
X002008528Y002633273D01*
X002011407Y002634325D01*
X002014358Y002635150D01*
X002017366Y002635743D01*
X002020410Y002636101D01*
X002023472Y002636220D01*
X002418110Y002636220D01*
X002431162Y002637076D01*
X002443992Y002639628D01*
X002456378Y002643832D01*
X002468110Y002649618D01*
X002478985Y002656885D01*
X002488820Y002665509D01*
X002497445Y002675344D01*
X002504712Y002686220D01*
X002510497Y002697952D01*
X002514702Y002710338D01*
X002517254Y002723168D01*
X002518110Y002736220D01*
X002518110Y003095382D01*
X002518237Y003098542D01*
X002518617Y003101682D01*
X002519248Y003104781D01*
X002520126Y003107819D01*
X002521244Y003110777D01*
X002522597Y003113636D01*
X002524175Y003116377D01*
X002525967Y003118982D01*
X002527963Y003121435D01*
X002530149Y003123720D01*
X002532512Y003125823D01*
X002535036Y003127728D01*
X002537704Y003129426D01*
X002540501Y003130903D01*
X002543406Y003132151D01*
X002546403Y003133162D01*
X002549471Y003133929D01*
X002552591Y003134448D01*
X002555742Y003134714D01*
X002558904Y003134727D01*
X002598275Y003133301D01*
X002601286Y003133076D01*
X002604272Y003132621D01*
X002607214Y003131938D01*
X002610095Y003131032D01*
X002612898Y003129908D01*
X002615607Y003128572D01*
X002618205Y003127032D01*
X002620677Y003125298D01*
X002623010Y003123379D01*
X002625188Y003121288D01*
X002627200Y003119035D01*
X002629033Y003116635D01*
X002630676Y003114101D01*
X002632121Y003111449D01*
X002633358Y003108694D01*
X002634380Y003105852D01*
X002635182Y003102940D01*
X002635757Y003099975D01*
X002636104Y003096975D01*
X002636220Y003093957D01*
X002636220Y002736220D01*
X002637076Y002723168D01*
X002639627Y002710338D01*
X002643832Y002697952D01*
X002649617Y002686220D01*
X002656884Y002675344D01*
X002665509Y002665509D01*
X002675343Y002656885D01*
X002686220Y002649618D01*
X002697952Y002643832D01*
X002710338Y002639628D01*
X002723167Y002637076D01*
X002736220Y002636220D01*
X003154514Y002636220D01*
X003157532Y002636104D01*
X003160532Y002635757D01*
X003163497Y002635181D01*
X003166408Y002634380D01*
X003169250Y002633358D01*
X003172005Y002632121D01*
X003174658Y002630676D01*
X003177191Y002629033D01*
X003179592Y002627200D01*
X003181844Y002625188D01*
X003183936Y002623009D01*
X003185855Y002620677D01*
X003187589Y002618205D01*
X003189129Y002615606D01*
X003190465Y002612898D01*
X003191589Y002610095D01*
X003192495Y002607214D01*
X003193178Y002604272D01*
X003193633Y002601286D01*
X003193858Y002598275D01*
X003195284Y002558905D01*
X003195271Y002555742D01*
X003195005Y002552591D01*
X003194486Y002549471D01*
X003193719Y002546403D01*
X003192708Y002543406D01*
X003191460Y002540501D01*
X003189983Y002537704D01*
X003188285Y002535036D01*
X003186380Y002532512D01*
X003184277Y002530149D01*
X003181992Y002527963D01*
X003179539Y002525967D01*
X003176934Y002524175D01*
X003174193Y002522597D01*
X003171334Y002521244D01*
X003168376Y002520126D01*
X003165338Y002519248D01*
X003162239Y002518617D01*
X003159099Y002518237D01*
X003155939Y002518110D01*
X002736220Y002518110D01*
X002723167Y002517254D01*
X002710338Y002514703D01*
X002697952Y002510498D01*
X002686220Y002504712D01*
X002675343Y002497445D01*
X002665509Y002488821D01*
X002656884Y002478986D01*
X002649617Y002468110D01*
X002643832Y002456378D01*
X002639627Y002443992D01*
X002637076Y002431163D01*
X002636220Y002418110D01*
X002636220Y001418110D01*
X002637076Y001405057D01*
X002639627Y001392228D01*
X002643832Y001379842D01*
X002649617Y001368110D01*
X002656884Y001357234D01*
X002665509Y001347399D01*
X002675343Y001338775D01*
X002686220Y001331507D01*
X002697952Y001325722D01*
X002710338Y001321517D01*
X002723167Y001318966D01*
X002736220Y001318110D01*
X003159504Y001318110D01*
X003162589Y001317989D01*
X003165655Y001317626D01*
X003168683Y001317025D01*
X003171655Y001316187D01*
X003174552Y001315120D01*
X003177357Y001313829D01*
X003180052Y001312322D01*
X003182620Y001310609D01*
X003185046Y001308699D01*
X003187315Y001306606D01*
X003189413Y001304340D01*
X003191328Y001301918D01*
X003193046Y001299353D01*
X003194558Y001296661D01*
X003195855Y001293859D01*
X003196928Y001290964D01*
X003197771Y001287994D01*
X003198378Y001284967D01*
X003198747Y001281901D01*
X003198874Y001278816D01*
X003198950Y001239446D01*
X003198835Y001236353D01*
X003198477Y001233279D01*
X003197878Y001230242D01*
X003197042Y001227262D01*
X003195976Y001224357D01*
X003194684Y001221544D01*
X003193175Y001218841D01*
X003191459Y001216266D01*
X003189545Y001213833D01*
X003187446Y001211558D01*
X003185175Y001209455D01*
X003182746Y001207537D01*
X003180174Y001205815D01*
X003177475Y001204301D01*
X003174664Y001203004D01*
X003171761Y001201931D01*
X003168782Y001201090D01*
X003165747Y001200485D01*
X003162673Y001200121D01*
X003159580Y001200000D01*
X002736220Y001200000D01*
X002723167Y001199144D01*
X002710338Y001196592D01*
X002697952Y001192388D01*
X002686220Y001186602D01*
X002675343Y001179335D01*
X002665509Y001170710D01*
X002656884Y001160876D01*
X002649617Y001149999D01*
X002643832Y001138268D01*
X002639627Y001125882D01*
X002637076Y001113052D01*
X002636220Y001099999D01*
X002636220Y000700308D01*
X002636104Y000697291D01*
X002635757Y000694290D01*
X002635182Y000691326D01*
X002634380Y000688414D01*
X002633358Y000685572D01*
X002632121Y000682817D01*
X002630676Y000680164D01*
X002629033Y000677631D01*
X002627200Y000675231D01*
X002625188Y000672978D01*
X002623010Y000670886D01*
X002620677Y000668967D01*
X002618205Y000667233D01*
X002615607Y000665693D01*
X002612898Y000664358D01*
X002610095Y000663233D01*
X002607214Y000662327D01*
X002604272Y000661644D01*
X002601286Y000661189D01*
X002598275Y000660964D01*
X002558904Y000659539D01*
X002555742Y000659551D01*
X002552591Y000659818D01*
X002549471Y000660336D01*
X002546403Y000661103D01*
X002543406Y000662114D01*
X002540501Y000663362D01*
X002537704Y000664840D01*
X002535036Y000666537D01*
X002532512Y000668443D01*
X002530149Y000670545D01*
X002527963Y000672830D01*
X002525967Y000675283D01*
X002524175Y000677889D01*
X002522597Y000680629D01*
X002521244Y000683488D01*
X002520126Y000686446D01*
X002519248Y000689484D01*
X002518617Y000692583D01*
X002518237Y000695723D01*
X002518110Y000698883D01*
X002518110Y001099999D01*
X001199999Y001099999D02*
X001199999Y001099999D01*
X001199143Y001113052D01*
X001196592Y001125882D01*
X001192387Y001138268D01*
X001186602Y001149999D01*
X001179335Y001160876D01*
X001170710Y001170710D01*
X001160875Y001179335D01*
X001149999Y001186602D01*
X001138267Y001192388D01*
X001125881Y001196592D01*
X001113051Y001199144D01*
X001100000Y001200000D01*
X000684647Y001200000D01*
X000681802Y001200102D01*
X000678973Y001200411D01*
X000676172Y001200922D01*
X000673416Y001201635D01*
X000670719Y001202545D01*
X000668095Y001203648D01*
X000665557Y001204937D01*
X000663119Y001206407D01*
X000660794Y001208049D01*
X000658593Y001209854D01*
X000656528Y001211814D01*
X000654611Y001213917D01*
X000652850Y001216154D01*
X000651256Y001218513D01*
X000649836Y001220980D01*
X000648598Y001223543D01*
X000647549Y001226189D01*
X000646693Y001228904D01*
X000646037Y001231674D01*
X000645581Y001234484D01*
X000640658Y001273854D01*
X000640384Y001277179D01*
X000640394Y001280515D01*
X000640685Y001283838D01*
X000641257Y001287125D01*
X000642105Y001290351D01*
X000643223Y001293494D01*
X000644603Y001296531D01*
X000646235Y001299441D01*
X000648108Y001302202D01*
X000650208Y001304794D01*
X000652520Y001307199D01*
X000655027Y001309400D01*
X000657711Y001311381D01*
X000660553Y001313127D01*
X000663533Y001314627D01*
X000666630Y001315868D01*
X000669820Y001316844D01*
X000673081Y001317545D01*
X000676391Y001317968D01*
X000679724Y001318110D01*
X001100000Y001318110D01*
X001113051Y001318966D01*
X001125881Y001321517D01*
X001138267Y001325722D01*
X001149999Y001331507D01*
X001160875Y001338775D01*
X001170710Y001347399D01*
X001179335Y001357234D01*
X001186602Y001368110D01*
X001192387Y001379842D01*
X001196592Y001392228D01*
X001199143Y001405057D01*
X001199999Y001418110D01*
X001199999Y002418110D01*
X001199143Y002431163D01*
X001196592Y002443992D01*
X001192387Y002456378D01*
X001186602Y002468110D01*
X001179335Y002478986D01*
X001170710Y002488821D01*
X001160875Y002497445D01*
X001149999Y002504712D01*
X001138267Y002510498D01*
X001125881Y002514703D01*
X001113051Y002517254D01*
X001100000Y002518110D01*
X000696368Y002518110D01*
X000693390Y002518223D01*
X000690429Y002518560D01*
X000687502Y002519121D01*
X000684625Y002519902D01*
X000681816Y002520898D01*
X000679091Y002522103D01*
X000676464Y002523512D01*
X000673952Y002525115D01*
X000671568Y002526903D01*
X000669326Y002528867D01*
X000667239Y002530994D01*
X000665319Y002533274D01*
X000663577Y002535692D01*
X000662022Y002538235D01*
X000660665Y002540888D01*
X000659512Y002543636D01*
X000658571Y002546464D01*
X000657846Y002549355D01*
X000657341Y002552292D01*
X000657061Y002555259D01*
X000654837Y002594629D01*
X000654786Y002597831D01*
X000654996Y002601027D01*
X000655465Y002604194D01*
X000656190Y002607314D01*
X000657166Y002610364D01*
X000658387Y002613324D01*
X000659844Y002616176D01*
X000661528Y002618899D01*
X000663428Y002621477D01*
X000665531Y002623892D01*
X000667823Y002626128D01*
X000670290Y002628170D01*
X000672914Y002630005D01*
X000675679Y002631621D01*
X000678566Y002633007D01*
X000681556Y002634153D01*
X000684630Y002635053D01*
X000687766Y002635700D01*
X000690944Y002636090D01*
X000694144Y002636220D01*
X001100000Y002636220D01*
X001113051Y002637076D01*
X001125881Y002639628D01*
X001138267Y002643832D01*
X001149999Y002649618D01*
X001160875Y002656885D01*
X001170710Y002665509D01*
X001179335Y002675344D01*
X001186602Y002686220D01*
X001192387Y002697952D01*
X001196592Y002710338D01*
X001199143Y002723168D01*
X001199999Y002736220D01*
X001199999Y003101378D01*
X001200106Y003104267D01*
X001200423Y003107140D01*
X001200951Y003109983D01*
X001201686Y003112779D01*
X001202625Y003115513D01*
X001203761Y003118171D01*
X001205089Y003120739D01*
X001206602Y003123202D01*
X001208292Y003125548D01*
X001210150Y003127763D01*
X001212165Y003129837D01*
X001214326Y003131756D01*
X001216623Y003133512D01*
X001219042Y003135094D01*
X001221571Y003136495D01*
X001224196Y003137707D01*
X001226903Y003138722D01*
X001229677Y003139536D01*
X001232503Y003140145D01*
X001235367Y003140544D01*
X001274737Y003144568D01*
X001278022Y003144765D01*
X001281313Y003144688D01*
X001284586Y003144335D01*
X001287818Y003143711D01*
X001290986Y003142819D01*
X001294069Y003141665D01*
X001297045Y003140258D01*
X001299892Y003138607D01*
X001302592Y003136724D01*
X001305125Y003134622D01*
X001307474Y003132315D01*
X001309622Y003129821D01*
X001311554Y003127156D01*
X001313256Y003124339D01*
X001314718Y003121389D01*
X001315927Y003118328D01*
X001316877Y003115176D01*
X001317560Y003111956D01*
X001317972Y003108691D01*
X001318110Y003105402D01*
X001318110Y002736220D01*
X001318965Y002723168D01*
X001321517Y002710338D01*
X001325721Y002697952D01*
X001331507Y002686220D01*
X001338774Y002675344D01*
X001347399Y002665509D01*
X001357233Y002656885D01*
X001368109Y002649618D01*
X001379841Y002643832D01*
X001392227Y002639628D01*
X001405057Y002637076D01*
X001418110Y002636220D01*
X001818374Y002636220D01*
X001821436Y002636101D01*
X001824480Y002635743D01*
X001827487Y002635150D01*
X001830439Y002634325D01*
X001833318Y002633273D01*
X001836106Y002632000D01*
X001838787Y002630515D01*
X001841344Y002628825D01*
X001843761Y002626941D01*
X001846025Y002624875D01*
X001848121Y002622639D01*
X001850037Y002620247D01*
X001851761Y002617713D01*
X001853283Y002615052D01*
X001854593Y002612281D01*
X001855684Y002609417D01*
X001856549Y002606477D01*
X001857182Y002603478D01*
X001857580Y002600439D01*
X001857740Y002597378D01*
X001858268Y002558008D01*
X001858187Y002554891D01*
X001857859Y002551791D01*
X001857286Y002548726D01*
X001856473Y002545716D01*
X001855425Y002542780D01*
X001854147Y002539936D01*
X001852649Y002537203D01*
X001850938Y002534596D01*
X001849027Y002532133D01*
X001846927Y002529828D01*
X001844651Y002527698D01*
X001842214Y002525753D01*
X001839630Y002524008D01*
X001836917Y002522473D01*
X001834090Y002521157D01*
X001831168Y002520069D01*
X001828170Y002519216D01*
X001825113Y002518603D01*
X001822017Y002518233D01*
X001818902Y002518110D01*
X001418110Y002518110D01*
X001405057Y002517254D01*
X001392227Y002514703D01*
X001379841Y002510498D01*
X001368109Y002504712D01*
X001357233Y002497445D01*
X001347399Y002488821D01*
X001338774Y002478986D01*
X001331507Y002468110D01*
X001325721Y002456378D01*
X001321517Y002443992D01*
X001318965Y002431163D01*
X001318110Y002418110D01*
X001318110Y001418110D01*
X001318965Y001405057D01*
X001321517Y001392228D01*
X001325721Y001379842D01*
X001331507Y001368110D01*
X001338774Y001357234D01*
X001347399Y001347399D01*
X001357233Y001338775D01*
X001368109Y001331507D01*
X001379841Y001325722D01*
X001392227Y001321517D01*
X001405057Y001318966D01*
X001418110Y001318110D01*
X001850764Y001318110D01*
X001854031Y001317974D01*
X001857275Y001317568D01*
X001860474Y001316893D01*
X001863606Y001315956D01*
X001866650Y001314762D01*
X001869584Y001313320D01*
X001872388Y001311639D01*
X001875044Y001309732D01*
X001877531Y001307610D01*
X001879835Y001305290D01*
X001881937Y001302787D01*
X001883825Y001300117D01*
X001885485Y001297300D01*
X001886905Y001294356D01*
X001888076Y001291303D01*
X001888990Y001288164D01*
X001889640Y001284960D01*
X001890022Y001281713D01*
X001890133Y001278445D01*
X001889973Y001275180D01*
X001886399Y001235810D01*
X001886028Y001232920D01*
X001885445Y001230066D01*
X001884652Y001227263D01*
X001883655Y001224526D01*
X001882457Y001221870D01*
X001881067Y001219310D01*
X001879491Y001216860D01*
X001877738Y001214533D01*
X001875818Y001212342D01*
X001873741Y001210299D01*
X001871518Y001208416D01*
X001869163Y001206702D01*
X001866687Y001205166D01*
X001864104Y001203818D01*
X001861429Y001202665D01*
X001858676Y001201712D01*
X001855860Y001200966D01*
X001852997Y001200430D01*
X001850101Y001200107D01*
X001847190Y001200000D01*
X001418110Y001200000D01*
X001405057Y001199144D01*
X001392227Y001196592D01*
X001379841Y001192388D01*
X001368109Y001186602D01*
X001357233Y001179335D01*
X001347399Y001170710D01*
X001338774Y001160876D01*
X001331507Y001149999D01*
X001325721Y001138268D01*
X001321517Y001125882D01*
X001318965Y001113052D01*
X001318110Y001099999D01*
X001318110Y000712620D01*
X001317989Y000709535D01*
X001317626Y000706469D01*
X001317025Y000703441D01*
X001316188Y000700469D01*
X001315120Y000697572D01*
X001313829Y000694767D01*
X001312322Y000692073D01*
X001310609Y000689504D01*
X001308699Y000687078D01*
X001306606Y000684809D01*
X001304341Y000682711D01*
X001301918Y000680796D01*
X001299353Y000679078D01*
X001296661Y000677566D01*
X001293859Y000676269D01*
X001290964Y000675196D01*
X001287994Y000674353D01*
X001284967Y000673746D01*
X001281901Y000673378D01*
X001278816Y000673250D01*
X001239446Y000673174D01*
X001236353Y000673289D01*
X001233279Y000673648D01*
X001230242Y000674246D01*
X001227262Y000675082D01*
X001224356Y000676149D01*
X001221544Y000677441D01*
X001218841Y000678949D01*
X001216266Y000680666D01*
X001213833Y000682579D01*
X001211558Y000684678D01*
X001209455Y000686949D01*
X001207537Y000689378D01*
X001205815Y000691950D01*
X001204301Y000694650D01*
X001203004Y000697460D01*
X001201931Y000700363D01*
X001201090Y000703342D01*
X001200485Y000706377D01*
X001200121Y000709451D01*
X001199999Y000712544D01*
X001199999Y001099999D01*
X000099999Y000000000D02*
X000099999Y000000000D01*
X001100000Y000000000D01*
X001113051Y000000855D01*
X001125881Y000003407D01*
X001138267Y000007612D01*
X001149999Y000013397D01*
X001160875Y000020665D01*
X001170710Y000029289D01*
X001179335Y000039123D01*
X001186602Y000050000D01*
X001192387Y000061731D01*
X001196592Y000074118D01*
X001199143Y000086947D01*
X001199999Y000099999D01*
X001199999Y000508048D01*
X001200121Y000511140D01*
X001200485Y000514214D01*
X001201090Y000517250D01*
X001201931Y000520228D01*
X001203004Y000523132D01*
X001204301Y000525942D01*
X001205815Y000528641D01*
X001207537Y000531214D01*
X001209455Y000533643D01*
X001211558Y000535914D01*
X001213833Y000538012D01*
X001216266Y000539926D01*
X001218841Y000541642D01*
X001221544Y000543151D01*
X001224356Y000544443D01*
X001227262Y000545510D01*
X001230242Y000546345D01*
X001233279Y000546944D01*
X001236353Y000547302D01*
X001239446Y000547418D01*
X001278816Y000547341D01*
X001281901Y000547214D01*
X001284967Y000546846D01*
X001287994Y000546238D01*
X001290964Y000545395D01*
X001293859Y000544322D01*
X001296661Y000543026D01*
X001299353Y000541514D01*
X001301918Y000539795D01*
X001304341Y000537881D01*
X001306606Y000535783D01*
X001308699Y000533514D01*
X001310609Y000531087D01*
X001312322Y000528519D01*
X001313829Y000525824D01*
X001315120Y000523020D01*
X001316188Y000520123D01*
X001317025Y000517151D01*
X001317626Y000514122D01*
X001317989Y000511056D01*
X001318110Y000507971D01*
X001318110Y000099999D01*
X001318965Y000086947D01*
X001321517Y000074118D01*
X001325721Y000061731D01*
X001331507Y000050000D01*
X001338774Y000039123D01*
X001347399Y000029289D01*
X001357233Y000020665D01*
X001368109Y000013397D01*
X001379841Y000007612D01*
X001392227Y000003407D01*
X001405057Y000000855D01*
X001418110Y000000000D01*
X002418110Y000000000D01*
X002431162Y000000855D01*
X002443992Y000003407D01*
X002456378Y000007612D01*
X002468110Y000013397D01*
X002478985Y000020665D01*
X002488820Y000029289D01*
X002497445Y000039123D01*
X002504712Y000050000D01*
X002510497Y000061731D01*
X002514702Y000074118D01*
X002517254Y000086947D01*
X002518110Y000099999D01*
X002518110Y000495755D01*
X002518237Y000498915D01*
X002518617Y000502055D01*
X002519248Y000505154D01*
X002520126Y000508192D01*
X002521244Y000511150D01*
X002522597Y000514009D01*
X002524175Y000516750D01*
X002525967Y000519355D01*
X002527963Y000521808D01*
X002530149Y000524094D01*
X002532512Y000526196D01*
X002535036Y000528102D01*
X002537704Y000529799D01*
X002540501Y000531276D01*
X002543406Y000532524D01*
X002546403Y000533535D01*
X002549471Y000534302D01*
X002552591Y000534821D01*
X002555742Y000535087D01*
X002558904Y000535100D01*
X002598275Y000533674D01*
X002601286Y000533449D01*
X002604272Y000532994D01*
X002607214Y000532311D01*
X002610095Y000531405D01*
X002612898Y000530281D01*
X002615607Y000528945D01*
X002618205Y000527405D01*
X002620677Y000525671D01*
X002623010Y000523752D01*
X002625188Y000521661D01*
X002627200Y000519408D01*
X002629033Y000517008D01*
X002630676Y000514474D01*
X002632121Y000511822D01*
X002633358Y000509067D01*
X002634380Y000506225D01*
X002635182Y000503313D01*
X002635757Y000500348D01*
X002636104Y000497348D01*
X002636220Y000494330D01*
X002636220Y000099999D01*
X002637076Y000086947D01*
X002639627Y000074118D01*
X002643832Y000061731D01*
X002649617Y000050000D01*
X002656884Y000039123D01*
X002665509Y000029289D01*
X002675343Y000020665D01*
X002686220Y000013397D01*
X002697952Y000007612D01*
X002710338Y000003407D01*
X002723167Y000000855D01*
X002736220Y000000000D01*
X003736220Y000000000D01*
X003749272Y000000855D01*
X003762102Y000003407D01*
X003774488Y000007612D01*
X003786220Y000013397D01*
X003797096Y000020665D01*
X003806930Y000029289D01*
X003815555Y000039123D01*
X003822822Y000050000D01*
X003828607Y000061731D01*
X003832812Y000074118D01*
X003835364Y000086947D01*
X003836220Y000099999D01*
X003836220Y001099999D01*
X003835364Y001113052D01*
X003832812Y001125882D01*
X003828607Y001138268D01*
X003822822Y001149999D01*
X003815555Y001160876D01*
X003806930Y001170710D01*
X003797096Y001179335D01*
X003786220Y001186602D01*
X003774488Y001192388D01*
X003762102Y001196592D01*
X003749272Y001199144D01*
X003736220Y001200000D01*
X003364077Y001200000D01*
X003360984Y001200121D01*
X003357910Y001200485D01*
X003354875Y001201090D01*
X003351896Y001201931D01*
X003348993Y001203004D01*
X003346182Y001204301D01*
X003343483Y001205815D01*
X003340911Y001207537D01*
X003338481Y001209455D01*
X003336211Y001211558D01*
X003334112Y001213833D01*
X003332198Y001216266D01*
X003330482Y001218841D01*
X003328973Y001221544D01*
X003327681Y001224357D01*
X003326614Y001227262D01*
X003325779Y001230242D01*
X003325180Y001233279D01*
X003324822Y001236353D01*
X003324707Y001239446D01*
X003324783Y001278816D01*
X003324910Y001281901D01*
X003325279Y001284967D01*
X003325886Y001287994D01*
X003326729Y001290964D01*
X003327802Y001293859D01*
X003329099Y001296661D01*
X003330611Y001299353D01*
X003332329Y001301918D01*
X003334244Y001304340D01*
X003336342Y001306606D01*
X003338611Y001308699D01*
X003341037Y001310609D01*
X003343605Y001312322D01*
X003346300Y001313829D01*
X003349105Y001315120D01*
X003352002Y001316187D01*
X003354974Y001317025D01*
X003358002Y001317626D01*
X003361068Y001317989D01*
X003364153Y001318110D01*
X003736220Y001318110D01*
X003749272Y001318966D01*
X003762102Y001321517D01*
X003774488Y001325722D01*
X003786220Y001331507D01*
X003797096Y001338775D01*
X003806930Y001347399D01*
X003815555Y001357234D01*
X003822822Y001368110D01*
X003828607Y001379842D01*
X003832812Y001392228D01*
X003835364Y001405057D01*
X003836220Y001418110D01*
X003836220Y002418110D01*
X003835364Y002431163D01*
X003832812Y002443992D01*
X003828607Y002456378D01*
X003822822Y002468110D01*
X003815555Y002478986D01*
X003806930Y002488821D01*
X003797096Y002497445D01*
X003786220Y002504712D01*
X003774488Y002510498D01*
X003762102Y002514703D01*
X003749272Y002517254D01*
X003736220Y002518110D01*
X003359067Y002518110D01*
X003355907Y002518237D01*
X003352767Y002518617D01*
X003349668Y002519248D01*
X003346630Y002520126D01*
X003343672Y002521244D01*
X003340813Y002522597D01*
X003338072Y002524175D01*
X003335467Y002525967D01*
X003333014Y002527963D01*
X003330729Y002530149D01*
X003328627Y002532512D01*
X003326721Y002535036D01*
X003325024Y002537704D01*
X003323546Y002540501D01*
X003322298Y002543406D01*
X003321287Y002546403D01*
X003320520Y002549471D01*
X003320002Y002552591D01*
X003319735Y002555742D01*
X003319723Y002558905D01*
X003321148Y002598275D01*
X003321373Y002601286D01*
X003321828Y002604272D01*
X003322511Y002607214D01*
X003323417Y002610095D01*
X003324542Y002612898D01*
X003325878Y002615606D01*
X003327417Y002618205D01*
X003329152Y002620677D01*
X003331070Y002623009D01*
X003333162Y002625188D01*
X003335415Y002627200D01*
X003337815Y002629033D01*
X003340349Y002630676D01*
X003343001Y002632121D01*
X003345756Y002633358D01*
X003348598Y002634380D01*
X003351510Y002635181D01*
X003354475Y002635757D01*
X003357475Y002636104D01*
X003360493Y002636220D01*
X003736220Y002636220D01*
X003749272Y002637076D01*
X003762102Y002639628D01*
X003774488Y002643832D01*
X003786220Y002649618D01*
X003797096Y002656885D01*
X003806930Y002665509D01*
X003815555Y002675344D01*
X003822822Y002686220D01*
X003828607Y002697952D01*
X003832812Y002710338D01*
X003835364Y002723168D01*
X003836220Y002736220D01*
X003836220Y003736220D01*
X003835364Y003749273D01*
X003832812Y003762102D01*
X003828607Y003774489D01*
X003822822Y003786220D01*
X003815555Y003797096D01*
X003806930Y003806931D01*
X003797096Y003815555D01*
X003786220Y003822823D01*
X003774488Y003828608D01*
X003762102Y003832813D01*
X003749272Y003835365D01*
X003736220Y003836220D01*
X002736220Y003836220D01*
X002723167Y003835365D01*
X002710338Y003832813D01*
X002697952Y003828608D01*
X002686220Y003822823D01*
X002675343Y003815555D01*
X002665509Y003806931D01*
X002656884Y003797096D01*
X002649617Y003786220D01*
X002643832Y003774489D01*
X002639627Y003762102D01*
X002637076Y003749273D01*
X002636220Y003736220D01*
X002636220Y003299935D01*
X002636104Y003296918D01*
X002635757Y003293917D01*
X002635182Y003290953D01*
X002634380Y003288041D01*
X002633358Y003285199D01*
X002632121Y003282444D01*
X002630676Y003279791D01*
X002629033Y003277258D01*
X002627200Y003274858D01*
X002625188Y003272605D01*
X002623010Y003270513D01*
X002620677Y003268594D01*
X002618205Y003266860D01*
X002615607Y003265320D01*
X002612898Y003263985D01*
X002610095Y003262860D01*
X002607214Y003261954D01*
X002604272Y003261271D01*
X002601286Y003260816D01*
X002598275Y003260591D01*
X002558904Y003259166D01*
X002555742Y003259178D01*
X002552591Y003259445D01*
X002549471Y003259963D01*
X002546403Y003260730D01*
X002543406Y003261741D01*
X002540501Y003262989D01*
X002537704Y003264467D01*
X002535036Y003266164D01*
X002532512Y003268070D01*
X002530149Y003270172D01*
X002527963Y003272457D01*
X002525967Y003274910D01*
X002524175Y003277516D01*
X002522597Y003280256D01*
X002521244Y003283115D01*
X002520126Y003286073D01*
X002519248Y003289111D01*
X002518617Y003292210D01*
X002518237Y003295350D01*
X002518110Y003298510D01*
X002518110Y003736220D01*
X002517254Y003749273D01*
X002514702Y003762102D01*
X002510497Y003774489D01*
X002504712Y003786220D01*
X002497445Y003797096D01*
X002488820Y003806931D01*
X002478985Y003815555D01*
X002468110Y003822823D01*
X002456378Y003828608D01*
X002443992Y003832813D01*
X002431162Y003835365D01*
X002418110Y003836220D01*
X001418110Y003836220D01*
X001405057Y003835365D01*
X001392227Y003832813D01*
X001379841Y003828608D01*
X001368109Y003822823D01*
X001357233Y003815555D01*
X001347399Y003806931D01*
X001338774Y003797096D01*
X001331507Y003786220D01*
X001325721Y003774489D01*
X001321517Y003762102D01*
X001318965Y003749273D01*
X001318110Y003736220D01*
X001318110Y003305792D01*
X001317972Y003302504D01*
X001317560Y003299238D01*
X001316877Y003296018D01*
X001315927Y003292866D01*
X001314718Y003289805D01*
X001313256Y003286855D01*
X001311554Y003284038D01*
X001309622Y003281373D01*
X001307474Y003278879D01*
X001305125Y003276573D01*
X001302592Y003274471D01*
X001299892Y003272588D01*
X001297045Y003270937D01*
X001294069Y003269529D01*
X001290986Y003268376D01*
X001287818Y003267483D01*
X001284586Y003266859D01*
X001281313Y003266507D01*
X001278022Y003266429D01*
X001274737Y003266626D01*
X001235367Y003270650D01*
X001232503Y003271050D01*
X001229677Y003271658D01*
X001226903Y003272472D01*
X001224196Y003273488D01*
X001221571Y003274699D01*
X001219042Y003276100D01*
X001216623Y003277682D01*
X001214326Y003279438D01*
X001212165Y003281358D01*
X001210150Y003283431D01*
X001208292Y003285646D01*
X001206602Y003287992D01*
X001205089Y003290455D01*
X001203761Y003293023D01*
X001202625Y003295681D01*
X001201686Y003298416D01*
X001200951Y003301212D01*
X001200423Y003304054D01*
X001200106Y003306927D01*
X001199999Y003309816D01*
X001199999Y003736220D01*
X001199143Y003749273D01*
X001196592Y003762102D01*
X001192387Y003774489D01*
X001186602Y003786220D01*
X001179335Y003797096D01*
X001170710Y003806931D01*
X001160875Y003815555D01*
X001149999Y003822823D01*
X001138267Y003828608D01*
X001125881Y003832813D01*
X001113051Y003835365D01*
X001100000Y003836220D01*
X000099999Y003836220D01*
X000086947Y003835365D01*
X000074117Y003832813D01*
X000061731Y003828608D01*
X000049999Y003822823D01*
X000039123Y003815555D01*
X000029289Y003806931D01*
X000020664Y003797096D01*
X000013397Y003786220D01*
X000007611Y003774489D01*
X000003406Y003762102D01*
X000000855Y003749273D01*
X000000000Y003736220D01*
X000000000Y002736220D01*
X000000855Y002723168D01*
X000003406Y002710338D01*
X000007611Y002697952D01*
X000013397Y002686220D01*
X000020664Y002675344D01*
X000029289Y002665509D01*
X000039123Y002656885D01*
X000049999Y002649618D01*
X000061731Y002643832D01*
X000074117Y002639628D01*
X000086947Y002637076D01*
X000099999Y002636220D01*
X000491843Y002636220D01*
X000495043Y002636090D01*
X000498222Y002635700D01*
X000501358Y002635053D01*
X000504431Y002634153D01*
X000507421Y002633007D01*
X000510308Y002631621D01*
X000513073Y002630005D01*
X000515698Y002628170D01*
X000518164Y002626128D01*
X000520457Y002623892D01*
X000522560Y002621477D01*
X000524460Y002618899D01*
X000526144Y002616176D01*
X000527601Y002613324D01*
X000528822Y002610364D01*
X000529798Y002607314D01*
X000530522Y002604194D01*
X000530991Y002601027D01*
X000531201Y002597831D01*
X000531151Y002594629D01*
X000528927Y002555259D01*
X000528646Y002552292D01*
X000528142Y002549355D01*
X000527417Y002546464D01*
X000526475Y002543636D01*
X000525323Y002540888D01*
X000523965Y002538235D01*
X000522411Y002535692D01*
X000520669Y002533274D01*
X000518749Y002530994D01*
X000516662Y002528867D01*
X000514420Y002526903D01*
X000512036Y002525115D01*
X000509523Y002523512D01*
X000506897Y002522103D01*
X000504171Y002520898D01*
X000501362Y002519902D01*
X000498486Y002519121D01*
X000495559Y002518560D01*
X000492598Y002518223D01*
X000489619Y002518110D01*
X000099999Y002518110D01*
X000086947Y002517254D01*
X000074117Y002514703D01*
X000061731Y002510498D01*
X000049999Y002504712D01*
X000039123Y002497445D01*
X000029289Y002488821D01*
X000020664Y002478986D01*
X000013397Y002468110D01*
X000007611Y002456378D01*
X000003406Y002443992D01*
X000000855Y002431163D01*
X000000000Y002418110D01*
X000000000Y001418110D01*
X000000855Y001405057D01*
X000003406Y001392228D01*
X000007611Y001379842D01*
X000013397Y001368110D01*
X000020664Y001357234D01*
X000029289Y001347399D01*
X000039123Y001338775D01*
X000049999Y001331507D01*
X000061731Y001325722D01*
X000074117Y001321517D01*
X000086947Y001318966D01*
X000099999Y001318110D01*
X000480311Y001318110D01*
X000483644Y001317968D01*
X000486953Y001317545D01*
X000490214Y001316844D01*
X000493405Y001315868D01*
X000496501Y001314627D01*
X000499481Y001313127D01*
X000502323Y001311381D01*
X000505008Y001309400D01*
X000507515Y001307199D01*
X000509827Y001304794D01*
X000511926Y001302202D01*
X000513799Y001299441D01*
X000515431Y001296531D01*
X000516812Y001293494D01*
X000517930Y001290351D01*
X000518778Y001287125D01*
X000519349Y001283838D01*
X000519641Y001280515D01*
X000519650Y001277179D01*
X000519377Y001273854D01*
X000514453Y001234484D01*
X000513998Y001231674D01*
X000513341Y001228904D01*
X000512486Y001226189D01*
X000511436Y001223543D01*
X000510199Y001220980D01*
X000508779Y001218513D01*
X000507184Y001216154D01*
X000505424Y001213917D01*
X000503506Y001211814D01*
X000501442Y001209854D01*
X000499241Y001208049D01*
X000496915Y001206407D01*
X000494477Y001204937D01*
X000491940Y001203648D01*
X000489315Y001202545D01*
X000486618Y001201635D01*
X000483862Y001200922D01*
X000481062Y001200411D01*
X000478232Y001200102D01*
X000475387Y001200000D01*
X000099999Y001200000D01*
X000086947Y001199144D01*
X000074117Y001196592D01*
X000061731Y001192388D01*
X000049999Y001186602D01*
X000039123Y001179335D01*
X000029289Y001170710D01*
X000020664Y001160876D01*
X000013397Y001149999D01*
X000007611Y001138268D01*
X000003406Y001125882D01*
X000000855Y001113052D01*
X000000000Y001099999D01*
X000000000Y000099999D01*
X000000855Y000086947D01*
X000003406Y000074118D01*
X000007611Y000061731D01*
X000013397Y000050000D01*
X000020664Y000039123D01*
X000029289Y000029289D01*
X000039123Y000020665D01*
X000049999Y000013397D01*
X000061731Y000007612D01*
X000074117Y000003407D01*
X000086947Y000000855D01*
X000099999Y000000000D01*
M02*