%MOIN*%
%OFA0B0*%
%FSLAX46Y46*%
%IPPOS*%
%LPD*%
%AMREC2110*
4,1,3,
0.03444881889763779,0.0344488188976378,
-0.0344488188976378,0.03444881889763779,
-0.03444881889763779,-0.0344488188976378,
0.0344488188976378,-0.03444881889763779,
0*%
%AMREC2120*
4,1,3,
0.015748031496062988,0.035433070866141732,
-0.015748031496063,0.035433070866141732,
-0.015748031496062988,-0.035433070866141732,
0.015748031496063,-0.035433070866141732,
0*%
%AMREC2130*
4,1,3,
0.033464566929133854,0.033464566929133861,
-0.033464566929133861,0.033464566929133854,
-0.033464566929133854,-0.033464566929133861,
0.033464566929133861,-0.033464566929133854,
0*%
%AMREC2140*
4,1,3,
0.031496062992125984,0.031496062992125991,
-0.031496062992125991,0.031496062992125984,
-0.031496062992125984,-0.031496062992125991,
0.031496062992125991,-0.031496062992125984,
0*%
%AMREC2150*
4,1,3,
0.051181102362204724,0.051181102362204738,
-0.051181102362204738,0.051181102362204724,
-0.051181102362204724,-0.051181102362204738,
0.051181102362204738,-0.051181102362204724,
0*%
%AMREC2160*
4,1,3,
0.047244094488188969,0.047244094488188983,
-0.047244094488188983,0.047244094488188969,
-0.047244094488188969,-0.047244094488188983,
0.047244094488188983,-0.047244094488188969,
0*%
%AMREC2170*
4,1,3,
0.035433070866141732,0.035433070866141739,
-0.035433070866141739,0.035433070866141732,
-0.035433070866141732,-0.035433070866141739,
0.035433070866141739,-0.035433070866141732,
0*%
%AMREC2180*
4,1,3,
0.017716535433070862,0.029527559055118113,
-0.017716535433070873,0.029527559055118113,
-0.017716535433070862,-0.029527559055118113,
0.017716535433070873,-0.029527559055118113,
0*%
%AMREC2190*
4,1,3,
0.016732283464566927,0.016732283464566931,
-0.016732283464566931,0.016732283464566927,
-0.016732283464566927,-0.016732283464566931,
0.016732283464566931,-0.016732283464566927,
0*%
%ADD10C,0.0039370078740157488*%
%ADD11C,0.11811023622047245*%
%ADD12C,0.068897637795275593*%
%ADD13R,0.068897637795275593X0.068897637795275593*%
%ADD14R,0.031496062992125991X0.070866141732283464*%
%ADD15C,0.07874015748031496*%
%ADD16R,0.066929133858267723X0.066929133858267723*%
%ADD17O,0.066929133858267723X0.066929133858267723*%
%ADD18R,0.062992125984251982X0.062992125984251982*%
%ADD19O,0.062992125984251982X0.062992125984251982*%
%ADD20R,0.10236220472440946X0.10236220472440946*%
%ADD21C,0.10236220472440946*%
%ADD22C,0.066929133858267723*%
%ADD23R,0.094488188976377951X0.094488188976377951*%
%ADD24O,0.094488188976377951X0.094488188976377951*%
%ADD25C,0.07*%
%ADD26C,0.055118110236220472*%
%ADD27O,0.055118110236220472X0.055118110236220472*%
%ADD28C,0.062992125984251982*%
%ADD29R,0.070866141732283464X0.070866141732283464*%
%ADD30C,0.070866141732283464*%
%ADD31O,0.035433070866141732X0.059055118110236227*%
%ADD32R,0.035433070866141732X0.059055118110236227*%
%ADD33R,0.033464566929133861X0.033464566929133861*%
%ADD34C,0.033464566929133861*%
%ADD45C,0.0039370078740157488*%
%ADD46C,0.11811023622047245*%
%ADD47C,0.068897637795275593*%
%AMCOMP250*
4,1,3,
0.03444881889763779,0.0344488188976378,
-0.0344488188976378,0.03444881889763779,
-0.03444881889763779,-0.0344488188976378,
0.0344488188976378,-0.03444881889763779,
0*%
%ADD48COMP250*%
%AMCOMP251*
4,1,3,
0.015748031496062988,0.035433070866141732,
-0.015748031496063,0.035433070866141732,
-0.015748031496062988,-0.035433070866141732,
0.015748031496063,-0.035433070866141732,
0*%
%ADD49COMP251*%
%ADD50C,0.07874015748031496*%
%AMCOMP252*
4,1,3,
0.033464566929133854,0.033464566929133861,
-0.033464566929133861,0.033464566929133854,
-0.033464566929133854,-0.033464566929133861,
0.033464566929133861,-0.033464566929133854,
0*%
%ADD51COMP252*%
%ADD52O,0.066929133858267723X0.066929133858267723*%
%AMCOMP253*
4,1,3,
0.031496062992125984,0.031496062992125991,
-0.031496062992125991,0.031496062992125984,
-0.031496062992125984,-0.031496062992125991,
0.031496062992125991,-0.031496062992125984,
0*%
%ADD53COMP253*%
%ADD54O,0.062992125984251982X0.062992125984251982*%
%AMCOMP254*
4,1,3,
0.051181102362204724,0.051181102362204738,
-0.051181102362204738,0.051181102362204724,
-0.051181102362204724,-0.051181102362204738,
0.051181102362204738,-0.051181102362204724,
0*%
%ADD55COMP254*%
%ADD56C,0.10236220472440946*%
%ADD57C,0.066929133858267723*%
%AMCOMP255*
4,1,3,
0.047244094488188969,0.047244094488188983,
-0.047244094488188983,0.047244094488188969,
-0.047244094488188969,-0.047244094488188983,
0.047244094488188983,-0.047244094488188969,
0*%
%ADD58COMP255*%
%ADD59O,0.094488188976377951X0.094488188976377951*%
%ADD60C,0.07*%
%ADD61C,0.055118110236220472*%
%ADD62O,0.055118110236220472X0.055118110236220472*%
%ADD63C,0.062992125984251982*%
%AMCOMP256*
4,1,3,
0.035433070866141732,0.035433070866141739,
-0.035433070866141739,0.035433070866141732,
-0.035433070866141732,-0.035433070866141739,
0.035433070866141739,-0.035433070866141732,
0*%
%ADD64COMP256*%
%ADD65C,0.070866141732283464*%
%ADD66O,0.035433070866141732X0.059055118110236227*%
%AMCOMP257*
4,1,3,
0.017716535433070862,0.029527559055118113,
-0.017716535433070873,0.029527559055118113,
-0.017716535433070862,-0.029527559055118113,
0.017716535433070873,-0.029527559055118113,
0*%
%ADD67COMP257*%
%AMCOMP258*
4,1,3,
0.016732283464566927,0.016732283464566931,
-0.016732283464566931,0.016732283464566927,
-0.016732283464566927,-0.016732283464566931,
0.016732283464566931,-0.016732283464566927,
0*%
%ADD68COMP258*%
%ADD69C,0.033464566929133861*%
%ADD70C,0.0039370078740157488*%
%ADD71C,0.11811023622047245*%
%ADD72C,0.068897637795275593*%
%ADD73R,0.068897637795275593X0.068897637795275593*%
%ADD74R,0.070866141732283464X0.031496062992125991*%
%ADD75C,0.07874015748031496*%
%ADD76R,0.066929133858267723X0.066929133858267723*%
%ADD77O,0.066929133858267723X0.066929133858267723*%
%ADD78R,0.062992125984251982X0.062992125984251982*%
%ADD79O,0.062992125984251982X0.062992125984251982*%
%ADD80R,0.10236220472440946X0.10236220472440946*%
%ADD81C,0.10236220472440946*%
%ADD82C,0.066929133858267723*%
%ADD83R,0.094488188976377951X0.094488188976377951*%
%ADD84O,0.094488188976377951X0.094488188976377951*%
%ADD85C,0.07*%
%ADD86C,0.055118110236220472*%
%ADD87O,0.055118110236220472X0.055118110236220472*%
%ADD88C,0.062992125984251982*%
%ADD89R,0.070866141732283464X0.070866141732283464*%
%ADD90C,0.070866141732283464*%
%ADD91O,0.059055118110236227X0.035433070866141732*%
%ADD92R,0.059055118110236227X0.035433070866141732*%
%ADD93R,0.033464566929133861X0.033464566929133861*%
%ADD94C,0.033464566929133861*%
G01*
D10*
D11*
X-0001456692Y0005433070D02*
X0002007795Y0001796653D03*
D12*
X0002122755Y0001087992D03*
X0002222755Y0001087992D03*
D13*
X0002322755Y0001087992D03*
D14*
X0002260708Y0000943031D03*
X0002185905Y0000943031D03*
X0002223307Y0000813110D03*
D15*
X0000477480Y0001808070D03*
X0000249133Y0001808070D03*
D16*
X0001113307Y0001658070D03*
D17*
X0001013307Y0001658070D03*
X0000913307Y0001658070D03*
X0000813307Y0001658070D03*
X0000713307Y0001658070D03*
X0000613307Y0001658070D03*
D11*
X0000393622Y0002190354D03*
D18*
X0000813307Y0001558070D03*
D19*
X0002113307Y0001258070D03*
X0000913307Y0001558070D03*
X0002013307Y0001258070D03*
X0001013307Y0001558070D03*
X0001913307Y0001258070D03*
X0001113307Y0001558070D03*
X0001813307Y0001258070D03*
X0001213307Y0001558070D03*
X0001713307Y0001258070D03*
X0001313307Y0001558070D03*
X0001613307Y0001258070D03*
X0001413307Y0001558070D03*
X0001513307Y0001258070D03*
X0001513307Y0001558070D03*
X0001413307Y0001258070D03*
X0001613307Y0001558070D03*
X0001313307Y0001258070D03*
X0001713307Y0001558070D03*
X0001213307Y0001258070D03*
X0001813307Y0001558070D03*
X0001113307Y0001258070D03*
X0001913307Y0001558070D03*
X0001013307Y0001258070D03*
X0002013307Y0001558070D03*
X0000913307Y0001258070D03*
X0002113307Y0001558070D03*
X0000813307Y0001258070D03*
D20*
X0000463307Y0001958070D03*
D21*
X0000601102Y0001958070D03*
D20*
X0000238307Y0001958070D03*
D21*
X0000100511Y0001958070D03*
D22*
X0001813307Y0001658070D03*
X0001714881Y0001658070D03*
X0001616456Y0001658070D03*
D23*
X0000093307Y0001308070D03*
D24*
X0000093307Y0001808070D03*
D25*
X0000363307Y0001008070D03*
X0000163307Y0001008070D03*
D26*
X0001211732Y0001758070D03*
D27*
X0001011732Y0001758070D03*
D26*
X0001511732Y0001758070D03*
D27*
X0001311732Y0001758070D03*
D28*
X0000813307Y0001158070D03*
X0000813307Y0001059645D03*
X0000663307Y0000958070D03*
X0000564881Y0000958070D03*
X0001213307Y0001658070D03*
X0001311732Y0001658070D03*
D29*
X0002113307Y0001938070D03*
D30*
X0002013307Y0001938070D03*
D31*
X0000613307Y0001158070D03*
X0000663307Y0001158070D03*
D32*
X0000563307Y0001158070D03*
D28*
X0001413307Y0001658070D03*
X0001511732Y0001658070D03*
X0000913307Y0001758070D03*
X0000814881Y0001758070D03*
D26*
X0000713307Y0001556496D03*
D27*
X0000713307Y0001356496D03*
D28*
X0001913307Y0001108070D03*
X0002011732Y0001108070D03*
D26*
X0002013307Y0001006496D03*
D27*
X0002013307Y0000806496D03*
D26*
X0001913307Y0000809645D03*
D27*
X0001913307Y0001009645D03*
D12*
X0001532204Y0001087992D03*
X0001632204Y0001087992D03*
D13*
X0001732204Y0001087992D03*
D12*
X0000941653Y0001087992D03*
X0001041653Y0001087992D03*
D13*
X0001141653Y0001087992D03*
D26*
X0000613307Y0001359645D03*
D27*
X0000613307Y0001559645D03*
D26*
X0000513307Y0001359645D03*
D27*
X0000513307Y0001559645D03*
D26*
X0001914881Y0001658070D03*
D27*
X0002114881Y0001658070D03*
D28*
X0001238307Y0001108070D03*
X0001238307Y0000808070D03*
X0001338307Y0001108070D03*
X0001338307Y0000808070D03*
D26*
X0001438307Y0000809645D03*
D27*
X0001438307Y0001009645D03*
D16*
X0001913307Y0001458070D03*
D17*
X0001913307Y0001358070D03*
X0001813307Y0001458070D03*
X0001813307Y0001358070D03*
X0001713307Y0001458070D03*
X0001713307Y0001358070D03*
D33*
X0001413307Y0001958070D03*
D34*
X0001364094Y0001958070D03*
D33*
X0001188307Y0001958070D03*
D34*
X0001139094Y0001958070D03*
X0001089881Y0001958070D03*
X0001040669Y0001958070D03*
D33*
X0002313307Y0001958070D03*
D34*
X0002264094Y0001958070D03*
D33*
X0001863307Y0001958070D03*
D34*
X0001814094Y0001958070D03*
D33*
X0001638307Y0001958070D03*
D34*
X0001589094Y0001958070D03*
D33*
X0000863307Y0001958070D03*
D34*
X0000814094Y0001958070D03*
X0000764881Y0001958070D03*
D14*
X0001670708Y0000943031D03*
X0001595905Y0000943031D03*
X0001633307Y0000813110D03*
X0001080708Y0000943031D03*
X0001005905Y0000943031D03*
X0001043307Y0000813110D03*
G04 next file*
G04 #@! TF.FileFunction,Soldermask,Top*
G04 Gerber Fmt 4.6, Leading zero omitted, Abs format (unit mm)*
G04 Created by KiCad (PCBNEW 4.0.6) date 06/26/19 16:14:45*
G01*
G04 APERTURE LIST*
G04 APERTURE END LIST*
D45*
D46*
X0003897637Y-0000866141D02*
X0000433149Y0002770275D03*
D47*
X0000318188Y0003478936D03*
X0000218188Y0003478936D03*
D48*
X0000118188Y0003478936D03*
D49*
X0000180236Y0003623897D03*
X0000255039Y0003623897D03*
X0000217637Y0003753818D03*
D50*
X0001963464Y0002758858D03*
X0002191810Y0002758858D03*
D51*
X0001327637Y0002908858D03*
D52*
X0001427637Y0002908858D03*
X0001527637Y0002908858D03*
X0001627637Y0002908858D03*
X0001727637Y0002908858D03*
X0001827637Y0002908858D03*
D46*
X0002047322Y0002376574D03*
D53*
X0001627637Y0003008858D03*
D54*
X0000327637Y0003308858D03*
X0001527637Y0003008858D03*
X0000427637Y0003308858D03*
X0001427637Y0003008858D03*
X0000527637Y0003308858D03*
X0001327637Y0003008858D03*
X0000627637Y0003308858D03*
X0001227637Y0003008858D03*
X0000727637Y0003308858D03*
X0001127637Y0003008858D03*
X0000827637Y0003308858D03*
X0001027637Y0003008858D03*
X0000927637Y0003308858D03*
X0000927637Y0003008858D03*
X0001027637Y0003308858D03*
X0000827637Y0003008858D03*
X0001127637Y0003308858D03*
X0000727637Y0003008858D03*
X0001227637Y0003308858D03*
X0000627637Y0003008858D03*
X0001327637Y0003308858D03*
X0000527637Y0003008858D03*
X0001427637Y0003308858D03*
X0000427637Y0003008858D03*
X0001527637Y0003308858D03*
X0000327637Y0003008858D03*
X0001627637Y0003308858D03*
D55*
X0001977637Y0002608858D03*
D56*
X0001839842Y0002608858D03*
D55*
X0002202637Y0002608858D03*
D56*
X0002340433Y0002608858D03*
D57*
X0000627637Y0002908858D03*
X0000726062Y0002908858D03*
X0000824488Y0002908858D03*
D58*
X0002347637Y0003258858D03*
D59*
X0002347637Y0002758858D03*
D60*
X0002077637Y0003558858D03*
X0002277637Y0003558858D03*
D61*
X0001229212Y0002808858D03*
D62*
X0001429212Y0002808858D03*
D61*
X0000929212Y0002808858D03*
D62*
X0001129212Y0002808858D03*
D63*
X0001627637Y0003408858D03*
X0001627637Y0003507283D03*
X0001777637Y0003608858D03*
X0001876062Y0003608858D03*
X0001227637Y0002908858D03*
X0001129212Y0002908858D03*
D64*
X0000327637Y0002628858D03*
D65*
X0000427637Y0002628858D03*
D66*
X0001827637Y0003408858D03*
X0001777637Y0003408858D03*
D67*
X0001877637Y0003408858D03*
D63*
X0001027637Y0002908858D03*
X0000929212Y0002908858D03*
X0001527637Y0002808858D03*
X0001626062Y0002808858D03*
D61*
X0001727637Y0003010433D03*
D62*
X0001727637Y0003210433D03*
D63*
X0000527637Y0003458858D03*
X0000429212Y0003458858D03*
D61*
X0000427637Y0003560433D03*
D62*
X0000427637Y0003760433D03*
D61*
X0000527637Y0003757283D03*
D62*
X0000527637Y0003557283D03*
D47*
X0000908740Y0003478936D03*
X0000808740Y0003478936D03*
D48*
X0000708740Y0003478936D03*
D47*
X0001499291Y0003478936D03*
X0001399291Y0003478936D03*
D48*
X0001299291Y0003478936D03*
D61*
X0001827637Y0003207283D03*
D62*
X0001827637Y0003007283D03*
D61*
X0001927637Y0003207283D03*
D62*
X0001927637Y0003007283D03*
D61*
X0000526062Y0002908858D03*
D62*
X0000326062Y0002908858D03*
D63*
X0001202637Y0003458858D03*
X0001202637Y0003758858D03*
X0001102637Y0003458858D03*
X0001102637Y0003758858D03*
D61*
X0001002637Y0003757283D03*
D62*
X0001002637Y0003557283D03*
D51*
X0000527637Y0003108858D03*
D52*
X0000527637Y0003208858D03*
X0000627637Y0003108858D03*
X0000627637Y0003208858D03*
X0000727637Y0003108858D03*
X0000727637Y0003208858D03*
D68*
X0001027637Y0002608858D03*
D69*
X0001076850Y0002608858D03*
D68*
X0001252637Y0002608858D03*
D69*
X0001301850Y0002608858D03*
X0001351062Y0002608858D03*
X0001400275Y0002608858D03*
D68*
X0000127637Y0002608858D03*
D69*
X0000176850Y0002608858D03*
D68*
X0000577637Y0002608858D03*
D69*
X0000626850Y0002608858D03*
D68*
X0000802637Y0002608858D03*
D69*
X0000851850Y0002608858D03*
D68*
X0001577637Y0002608858D03*
D69*
X0001626850Y0002608858D03*
X0001676062Y0002608858D03*
D49*
X0000770236Y0003623897D03*
X0000845039Y0003623897D03*
X0000807637Y0003753818D03*
X0001360236Y0003623897D03*
X0001435039Y0003623897D03*
X0001397637Y0003753818D03*
G04 next file*
G04 #@! TF.FileFunction,Soldermask,Top*
G04 Gerber Fmt 4.6, Leading zero omitted, Abs format (unit mm)*
G04 Created by KiCad (PCBNEW 4.0.6) date 06/26/19 16:14:45*
G01*
G04 APERTURE LIST*
G04 APERTURE END LIST*
D70*
D71*
X-0000787401Y-0001456692D02*
X0002849015Y0002007795D03*
D72*
X0003557677Y0002122755D03*
X0003557677Y0002222755D03*
D73*
X0003557677Y0002322755D03*
D74*
X0003702637Y0002260708D03*
X0003702637Y0002185905D03*
X0003832559Y0002223307D03*
D75*
X0002837598Y0000477480D03*
X0002837598Y0000249133D03*
D76*
X0002987598Y0001113307D03*
D77*
X0002987598Y0001013307D03*
X0002987598Y0000913307D03*
X0002987598Y0000813307D03*
X0002987598Y0000713307D03*
X0002987598Y0000613307D03*
D71*
X0002455314Y0000393622D03*
D78*
X0003087598Y0000813307D03*
D79*
X0003387598Y0002113307D03*
X0003087598Y0000913307D03*
X0003387598Y0002013307D03*
X0003087598Y0001013307D03*
X0003387598Y0001913307D03*
X0003087598Y0001113307D03*
X0003387598Y0001813307D03*
X0003087598Y0001213307D03*
X0003387598Y0001713307D03*
X0003087598Y0001313307D03*
X0003387598Y0001613307D03*
X0003087598Y0001413307D03*
X0003387598Y0001513307D03*
X0003087598Y0001513307D03*
X0003387598Y0001413307D03*
X0003087598Y0001613307D03*
X0003387598Y0001313307D03*
X0003087598Y0001713307D03*
X0003387598Y0001213307D03*
X0003087598Y0001813307D03*
X0003387598Y0001113307D03*
X0003087598Y0001913307D03*
X0003387598Y0001013307D03*
X0003087598Y0002013307D03*
X0003387598Y0000913307D03*
X0003087598Y0002113307D03*
X0003387598Y0000813307D03*
D80*
X0002687598Y0000463307D03*
D81*
X0002687598Y0000601102D03*
D80*
X0002687598Y0000238307D03*
D81*
X0002687598Y0000100511D03*
D82*
X0002987598Y0001813307D03*
X0002987598Y0001714881D03*
X0002987598Y0001616456D03*
D83*
X0003337598Y0000093307D03*
D84*
X0002837598Y0000093307D03*
D85*
X0003637598Y0000363307D03*
X0003637598Y0000163307D03*
D86*
X0002887598Y0001211732D03*
D87*
X0002887598Y0001011732D03*
D86*
X0002887598Y0001511732D03*
D87*
X0002887598Y0001311732D03*
D88*
X0003487598Y0000813307D03*
X0003586023Y0000813307D03*
X0003687598Y0000663307D03*
X0003687598Y0000564881D03*
X0002987598Y0001213307D03*
X0002987598Y0001311732D03*
D89*
X0002707598Y0002113307D03*
D90*
X0002707598Y0002013307D03*
D91*
X0003487598Y0000613307D03*
X0003487598Y0000663307D03*
D92*
X0003487598Y0000563307D03*
D88*
X0002987598Y0001413307D03*
X0002987598Y0001511732D03*
X0002887598Y0000913307D03*
X0002887598Y0000814881D03*
D86*
X0003089173Y0000713307D03*
D87*
X0003289173Y0000713307D03*
D88*
X0003537598Y0001913307D03*
X0003537598Y0002011732D03*
D86*
X0003639173Y0002013307D03*
D87*
X0003839173Y0002013307D03*
D86*
X0003836023Y0001913307D03*
D87*
X0003636023Y0001913307D03*
D72*
X0003557677Y0001532204D03*
X0003557677Y0001632204D03*
D73*
X0003557677Y0001732204D03*
D72*
X0003557677Y0000941653D03*
X0003557677Y0001041653D03*
D73*
X0003557677Y0001141653D03*
D86*
X0003286023Y0000613307D03*
D87*
X0003086023Y0000613307D03*
D86*
X0003286023Y0000513307D03*
D87*
X0003086023Y0000513307D03*
D86*
X0002987598Y0001914881D03*
D87*
X0002987598Y0002114881D03*
D88*
X0003537598Y0001238307D03*
X0003837598Y0001238307D03*
X0003537598Y0001338307D03*
X0003837598Y0001338307D03*
D86*
X0003836023Y0001438307D03*
D87*
X0003636023Y0001438307D03*
D76*
X0003187598Y0001913307D03*
D77*
X0003287598Y0001913307D03*
X0003187598Y0001813307D03*
X0003287598Y0001813307D03*
X0003187598Y0001713307D03*
X0003287598Y0001713307D03*
D93*
X0002687598Y0001413307D03*
D94*
X0002687598Y0001364094D03*
D93*
X0002687598Y0001188307D03*
D94*
X0002687598Y0001139094D03*
X0002687598Y0001089881D03*
X0002687598Y0001040669D03*
D93*
X0002687598Y0002313307D03*
D94*
X0002687598Y0002264094D03*
D93*
X0002687598Y0001863307D03*
D94*
X0002687598Y0001814094D03*
D93*
X0002687598Y0001638307D03*
D94*
X0002687598Y0001589094D03*
D93*
X0002687598Y0000863307D03*
D94*
X0002687598Y0000814094D03*
X0002687598Y0000764881D03*
D74*
X0003702637Y0001670708D03*
X0003702637Y0001595905D03*
X0003832559Y0001633307D03*
X0003702637Y0001080708D03*
X0003702637Y0001005905D03*
X0003832559Y0001043307D03*
M02*