G04 #@! TF.FileFunction,Copper,L1,Top,Signal*
%FSLAX46Y46*%
G04 Gerber Fmt 4.6, Leading zero omitted, Abs format (unit mm)*
G04 Created by KiCad (PCBNEW 4.0.7) date 06/15/19 08:17:50*
%MOMM*%
%LPD*%
G01*
G04 APERTURE LIST*
%ADD10C,0.100000*%
%ADD11R,1.600000X1.600000*%
%ADD12O,1.600000X1.600000*%
%ADD13R,2.400000X2.400000*%
%ADD14C,2.400000*%
%ADD15C,1.700000*%
%ADD16O,2.400000X2.400000*%
%ADD17C,1.750000*%
%ADD18R,1.750000X1.750000*%
%ADD19C,1.778000*%
%ADD20C,1.400000*%
%ADD21O,1.400000X1.400000*%
%ADD22C,1.600000*%
%ADD23R,1.800000X1.800000*%
%ADD24C,1.800000*%
%ADD25R,0.850000X0.850000*%
%ADD26C,0.850000*%
%ADD27O,0.900000X1.500000*%
%ADD28R,0.900000X1.500000*%
%ADD29R,1.700000X1.700000*%
%ADD30O,1.700000X1.700000*%
%ADD31C,2.000000*%
%ADD32C,1.520000*%
%ADD33R,1.520000X1.520000*%
%ADD34C,0.609600*%
%ADD35C,0.406400*%
%ADD36C,0.304800*%
%ADD37C,1.200000*%
%ADD38C,0.254000*%
G04 APERTURE END LIST*
D10*
D11*
X57658000Y-98425000D03*
D12*
X90678000Y-106045000D03*
X60198000Y-98425000D03*
X88138000Y-106045000D03*
X62738000Y-98425000D03*
X85598000Y-106045000D03*
X65278000Y-98425000D03*
X83058000Y-106045000D03*
X67818000Y-98425000D03*
X80518000Y-106045000D03*
X70358000Y-98425000D03*
X77978000Y-106045000D03*
X72898000Y-98425000D03*
X75438000Y-106045000D03*
X75438000Y-98425000D03*
X72898000Y-106045000D03*
X77978000Y-98425000D03*
X70358000Y-106045000D03*
X80518000Y-98425000D03*
X67818000Y-106045000D03*
X83058000Y-98425000D03*
X65278000Y-106045000D03*
X85598000Y-98425000D03*
X62738000Y-106045000D03*
X88138000Y-98425000D03*
X60198000Y-106045000D03*
X90678000Y-98425000D03*
X57658000Y-106045000D03*
D13*
X94998000Y-87630000D03*
D14*
X98498000Y-87630000D03*
D13*
X43688000Y-88265000D03*
D14*
X40188000Y-88265000D03*
D15*
X80518000Y-95885000D03*
X78018000Y-95885000D03*
X75518000Y-95885000D03*
D13*
X39370000Y-104775000D03*
D16*
X39370000Y-92075000D03*
D17*
X92418000Y-109365000D03*
X94958000Y-109365000D03*
D18*
X97498000Y-109365000D03*
D19*
X51054000Y-112395000D03*
X56134000Y-112395000D03*
D20*
X93258000Y-106045000D03*
D21*
X98338000Y-106045000D03*
D20*
X80558000Y-114935000D03*
D21*
X85638000Y-114935000D03*
D20*
X98258000Y-103505000D03*
D21*
X93178000Y-103505000D03*
D20*
X85558000Y-117475000D03*
D21*
X80478000Y-117475000D03*
D22*
X83058000Y-88265000D03*
X83058000Y-90765000D03*
X75438000Y-88138000D03*
X72938000Y-88138000D03*
X80518000Y-112141000D03*
X83018000Y-112141000D03*
X93998000Y-113365000D03*
X93998000Y-115865000D03*
D23*
X67818000Y-93345000D03*
D24*
X65278000Y-93345000D03*
D25*
X97498000Y-116365000D03*
D26*
X98748000Y-116365000D03*
D27*
X79248000Y-88265000D03*
X77978000Y-88265000D03*
D28*
X80518000Y-88265000D03*
D25*
X49498000Y-98865000D03*
D26*
X49498000Y-100115000D03*
X49498000Y-101365000D03*
X49498000Y-102615000D03*
D22*
X72898000Y-93345000D03*
X72898000Y-95845000D03*
X72898000Y-90551000D03*
X75398000Y-90551000D03*
D20*
X65318000Y-95885000D03*
D21*
X70398000Y-95885000D03*
D22*
X69088000Y-112141000D03*
X71588000Y-112141000D03*
D20*
X72858000Y-117221000D03*
D21*
X67778000Y-117221000D03*
D20*
X67858000Y-114681000D03*
D21*
X72938000Y-114681000D03*
D17*
X80418000Y-109365000D03*
X82958000Y-109365000D03*
D18*
X85498000Y-109365000D03*
D17*
X60418000Y-109365000D03*
X62958000Y-109365000D03*
D18*
X65498000Y-109365000D03*
D20*
X52578000Y-103465000D03*
D21*
X52578000Y-98385000D03*
D20*
X55118000Y-103465000D03*
D21*
X55118000Y-98385000D03*
D29*
X50038000Y-95885000D03*
D30*
X52578000Y-95885000D03*
X55118000Y-95885000D03*
X57658000Y-95885000D03*
X60198000Y-95885000D03*
X62738000Y-95885000D03*
D31*
X43688000Y-100690000D03*
X43688000Y-94890000D03*
D25*
X49498000Y-107865000D03*
D26*
X49498000Y-109115000D03*
X49498000Y-110365000D03*
D25*
X75438000Y-116205000D03*
D26*
X76688000Y-116205000D03*
D25*
X89408000Y-116205000D03*
D26*
X90658000Y-116205000D03*
D20*
X70358000Y-88305000D03*
D21*
X70358000Y-93385000D03*
D22*
X83058000Y-93472000D03*
X75438000Y-93472000D03*
X83058000Y-95885000D03*
X90678000Y-95885000D03*
D20*
X65492000Y-114681000D03*
D21*
X60412000Y-114681000D03*
D20*
X60238000Y-111760000D03*
D21*
X65318000Y-111760000D03*
D32*
X48133000Y-105283000D03*
X50673000Y-105283000D03*
D33*
X45593000Y-105283000D03*
D29*
X85598000Y-100965000D03*
D30*
X85598000Y-103505000D03*
X83058000Y-100965000D03*
X83058000Y-103505000D03*
X80518000Y-100965000D03*
X80518000Y-103505000D03*
D34*
X55118000Y-100076000D02*
X54737000Y-100076000D01*
X55118000Y-100076000D02*
X54864000Y-100076000D01*
D35*
X65318000Y-95885000D02*
X65278000Y-95885000D01*
X80518000Y-103505000D02*
X74168000Y-103505000D01*
X72898000Y-104775000D02*
X72898000Y-106045000D01*
X74168000Y-103505000D02*
X72898000Y-104775000D01*
D34*
X51054000Y-112395000D02*
X51054000Y-111921000D01*
X51054000Y-111921000D02*
X49498000Y-110365000D01*
X55880000Y-118745000D02*
X55880000Y-117221000D01*
X62992000Y-118745000D02*
X55880000Y-118745000D01*
X55880000Y-117221000D02*
X51054000Y-112395000D01*
D35*
X49498000Y-102615000D02*
X48007000Y-102615000D01*
X48897000Y-110365000D02*
X49498000Y-110365000D01*
X46863000Y-108331000D02*
X48897000Y-110365000D01*
X46863000Y-103759000D02*
X46863000Y-108331000D01*
X48007000Y-102615000D02*
X46863000Y-103759000D01*
D34*
X62958000Y-109365000D02*
X62958000Y-112147000D01*
X62958000Y-112147000D02*
X65492000Y-114681000D01*
X65492000Y-114681000D02*
X65492000Y-116245000D01*
X65492000Y-116245000D02*
X62992000Y-118745000D01*
X64516000Y-118745000D02*
X62992000Y-118745000D01*
X64516000Y-118745000D02*
X68072000Y-118745000D01*
X68834000Y-118745000D02*
X68072000Y-118745000D01*
X71588000Y-112141000D02*
X71588000Y-112181000D01*
X71588000Y-112181000D02*
X70612000Y-113411000D01*
X70612000Y-116967000D02*
X68834000Y-118745000D01*
X70612000Y-113411000D02*
X70612000Y-116967000D01*
D35*
X62738000Y-95885000D02*
X62992000Y-95885000D01*
X62992000Y-95885000D02*
X64135000Y-94742000D01*
X64135000Y-94742000D02*
X66421000Y-94742000D01*
X66421000Y-94742000D02*
X67818000Y-93345000D01*
D34*
X90678000Y-95885000D02*
X90932000Y-95885000D01*
X90932000Y-95885000D02*
X92710000Y-97663000D01*
X94958000Y-102451000D02*
X94958000Y-109365000D01*
X92710000Y-100203000D02*
X94958000Y-102451000D01*
X92710000Y-97663000D02*
X92710000Y-100203000D01*
X93998000Y-115865000D02*
X93998000Y-116223000D01*
X93998000Y-116223000D02*
X95504000Y-117729000D01*
X98748000Y-117025000D02*
X98748000Y-116365000D01*
X98044000Y-117729000D02*
X98748000Y-117025000D01*
X95504000Y-117729000D02*
X98044000Y-117729000D01*
X93998000Y-115865000D02*
X90998000Y-115865000D01*
X90998000Y-115865000D02*
X90658000Y-116205000D01*
X90678000Y-95885000D02*
X87630000Y-95885000D01*
X87630000Y-95885000D02*
X83058000Y-91313000D01*
X83058000Y-91313000D02*
X83058000Y-90765000D01*
X78018000Y-95885000D02*
X78018000Y-94067000D01*
X81320000Y-90765000D02*
X83058000Y-90765000D01*
X78018000Y-94067000D02*
X81320000Y-90765000D01*
X83058000Y-90765000D02*
X81748000Y-90765000D01*
X81748000Y-90765000D02*
X80518000Y-89535000D01*
X80518000Y-89535000D02*
X80518000Y-88265000D01*
X82958000Y-109365000D02*
X82958000Y-109795000D01*
X82958000Y-109795000D02*
X83018000Y-112141000D01*
X72898000Y-106045000D02*
X72898000Y-111085000D01*
X72898000Y-111085000D02*
X71588000Y-112141000D01*
X72898000Y-95845000D02*
X72898000Y-95885000D01*
X72898000Y-95885000D02*
X75438000Y-98425000D01*
X67818000Y-93345000D02*
X67858000Y-93345000D01*
X75438000Y-98425000D02*
X75478000Y-98425000D01*
X75478000Y-98425000D02*
X78018000Y-95885000D01*
X71588000Y-112141000D02*
X71374000Y-112141000D01*
X68834000Y-118745000D02*
X75438000Y-118745000D01*
X75438000Y-118745000D02*
X76688000Y-117495000D01*
X76688000Y-117495000D02*
X76688000Y-116205000D01*
X72938000Y-95885000D02*
X72898000Y-95845000D01*
X83018000Y-112141000D02*
X83018000Y-112689000D01*
X83018000Y-112689000D02*
X83312000Y-115189000D01*
X83312000Y-117221000D02*
X81788000Y-118745000D01*
X83312000Y-115189000D02*
X83312000Y-117221000D01*
X76688000Y-116205000D02*
X76688000Y-117709000D01*
X90658000Y-117241000D02*
X90658000Y-116205000D01*
X89154000Y-118745000D02*
X90658000Y-117241000D01*
X77724000Y-118745000D02*
X81788000Y-118745000D01*
X81788000Y-118745000D02*
X89154000Y-118745000D01*
X76688000Y-117709000D02*
X77724000Y-118745000D01*
D35*
X69088000Y-112141000D02*
X67818000Y-113665000D01*
X67818000Y-113665000D02*
X67818000Y-114641000D01*
X67818000Y-114641000D02*
X67858000Y-114681000D01*
X67858000Y-114681000D02*
X67858000Y-117141000D01*
X67858000Y-117141000D02*
X67778000Y-117221000D01*
X69088000Y-112141000D02*
X69088000Y-112181000D01*
X70358000Y-106045000D02*
X70358000Y-111125000D01*
X70358000Y-111125000D02*
X69088000Y-112141000D01*
D36*
X67818000Y-106045000D02*
X67818000Y-104521000D01*
X91908000Y-102235000D02*
X93178000Y-103505000D01*
X70104000Y-102235000D02*
X91908000Y-102235000D01*
X67818000Y-104521000D02*
X70104000Y-102235000D01*
X65278000Y-106045000D02*
X67818000Y-108585000D01*
X66548000Y-111760000D02*
X65318000Y-111760000D01*
X67818000Y-110490000D02*
X66548000Y-111760000D01*
X67818000Y-108585000D02*
X67818000Y-110490000D01*
X65659000Y-101600000D02*
X62738000Y-104521000D01*
X83058000Y-95885000D02*
X81788000Y-97155000D01*
X76708000Y-101600000D02*
X65659000Y-101600000D01*
X79248000Y-99060000D02*
X76708000Y-101600000D01*
X79248000Y-97790000D02*
X79248000Y-99060000D01*
X79883000Y-97155000D02*
X79248000Y-97790000D01*
X81788000Y-97155000D02*
X79883000Y-97155000D01*
X62738000Y-104521000D02*
X62738000Y-106045000D01*
D35*
X52578000Y-98385000D02*
X52578000Y-101727000D01*
X52578000Y-101727000D02*
X50800000Y-103505000D01*
X50800000Y-103505000D02*
X49911000Y-103505000D01*
X49911000Y-103505000D02*
X49403000Y-104013000D01*
X49403000Y-104013000D02*
X49403000Y-107770000D01*
X49403000Y-107770000D02*
X49498000Y-107865000D01*
X80558000Y-114935000D02*
X80558000Y-114895000D01*
X80558000Y-114895000D02*
X80518000Y-112141000D01*
X80478000Y-117475000D02*
X80478000Y-115015000D01*
X80478000Y-115015000D02*
X80558000Y-114935000D01*
D34*
X77978000Y-88265000D02*
X77978000Y-90297000D01*
X74231500Y-92011500D02*
X72898000Y-93345000D01*
X76263500Y-92011500D02*
X74231500Y-92011500D01*
X77978000Y-90297000D02*
X76263500Y-92011500D01*
X77978000Y-88265000D02*
X75565000Y-88265000D01*
X75565000Y-88265000D02*
X75438000Y-88138000D01*
X85498000Y-109365000D02*
X85498000Y-108739000D01*
X85498000Y-108739000D02*
X84328000Y-107569000D01*
X79502000Y-107569000D02*
X77978000Y-106045000D01*
X84328000Y-107569000D02*
X79502000Y-107569000D01*
D35*
X85498000Y-109365000D02*
X85498000Y-108685000D01*
X85498000Y-108685000D02*
X86868000Y-107315000D01*
X86868000Y-104775000D02*
X85598000Y-103505000D01*
X86868000Y-107315000D02*
X86868000Y-104775000D01*
D34*
X55753000Y-107696000D02*
X53086000Y-107696000D01*
X55753000Y-107696000D02*
X64770000Y-107696000D01*
X64770000Y-107696000D02*
X65498000Y-108424000D01*
X65498000Y-109365000D02*
X65498000Y-108424000D01*
X53086000Y-107696000D02*
X50673000Y-105283000D01*
X50673000Y-105283000D02*
X55626000Y-105283000D01*
X56134000Y-104775000D02*
X57277000Y-103632000D01*
X55626000Y-105283000D02*
X56134000Y-104775000D01*
D35*
X57658000Y-95885000D02*
X57277000Y-95885000D01*
X57277000Y-95885000D02*
X56388000Y-96774000D01*
X56388000Y-96774000D02*
X56388000Y-100965000D01*
X56388000Y-100965000D02*
X57277000Y-101854000D01*
X57277000Y-101854000D02*
X57277000Y-103632000D01*
D34*
X97498000Y-109365000D02*
X97498000Y-106885000D01*
X97498000Y-106885000D02*
X98338000Y-106045000D01*
X85498000Y-109365000D02*
X85498000Y-108993000D01*
X77978000Y-106045000D02*
X77978000Y-108625000D01*
X77978000Y-108625000D02*
X72938000Y-114681000D01*
X72898000Y-98425000D02*
X72898000Y-98806000D01*
X72898000Y-98806000D02*
X71628000Y-100076000D01*
X98578000Y-105897000D02*
X98578000Y-106365000D01*
X72898000Y-98425000D02*
X72898000Y-98385000D01*
X72898000Y-98385000D02*
X70398000Y-95885000D01*
X85498000Y-109365000D02*
X85498000Y-109247000D01*
X85638000Y-114935000D02*
X86233000Y-114935000D01*
X86233000Y-114935000D02*
X90170000Y-110998000D01*
X97498000Y-109365000D02*
X97498000Y-109893000D01*
X97498000Y-109893000D02*
X96393000Y-110998000D01*
X96393000Y-110998000D02*
X90170000Y-110998000D01*
X90170000Y-110998000D02*
X87131000Y-110998000D01*
X87131000Y-110998000D02*
X85498000Y-109365000D01*
X72898000Y-93345000D02*
X73025000Y-93345000D01*
X70398000Y-95885000D02*
X70398000Y-95845000D01*
X70398000Y-95845000D02*
X72898000Y-93345000D01*
X70358000Y-95925000D02*
X70398000Y-95885000D01*
X71628000Y-100076000D02*
X60960000Y-100076000D01*
X57277000Y-103632000D02*
X60833000Y-100076000D01*
D36*
X83058000Y-103505000D02*
X85598000Y-106045000D01*
D35*
X88138000Y-106045000D02*
X88138000Y-107569000D01*
X89934000Y-109365000D02*
X92418000Y-109365000D01*
X88138000Y-107569000D02*
X89934000Y-109365000D01*
X60198000Y-98425000D02*
X60071000Y-98425000D01*
X60071000Y-98425000D02*
X58928000Y-97282000D01*
X55118000Y-94869000D02*
X55118000Y-95885000D01*
X55753000Y-94234000D02*
X55118000Y-94869000D01*
X58166000Y-94234000D02*
X55753000Y-94234000D01*
X58928000Y-94996000D02*
X58166000Y-94234000D01*
X58928000Y-97282000D02*
X58928000Y-94996000D01*
X52578000Y-95885000D02*
X52578000Y-94107000D01*
X61468000Y-97155000D02*
X62738000Y-98425000D01*
X61468000Y-94234000D02*
X61468000Y-97155000D01*
X60706000Y-93472000D02*
X61468000Y-94234000D01*
X53213000Y-93472000D02*
X60706000Y-93472000D01*
X52578000Y-94107000D02*
X53213000Y-93472000D01*
X85558000Y-117475000D02*
X88138000Y-117475000D01*
X88138000Y-117475000D02*
X89408000Y-116205000D01*
X72858000Y-117221000D02*
X73660000Y-117221000D01*
X74676000Y-116205000D02*
X75438000Y-116205000D01*
X73660000Y-117221000D02*
X74676000Y-116205000D01*
D34*
X84582000Y-86365000D02*
X83942000Y-86365000D01*
X83058000Y-87249000D02*
X83058000Y-88265000D01*
X83942000Y-86365000D02*
X83058000Y-87249000D01*
X80264000Y-86365000D02*
X80132000Y-86365000D01*
X79248000Y-87249000D02*
X79248000Y-88265000D01*
X80132000Y-86365000D02*
X79248000Y-87249000D01*
X75438000Y-93472000D02*
X76581000Y-93472000D01*
X76581000Y-93472000D02*
X79248000Y-90805000D01*
X79248000Y-90805000D02*
X79248000Y-88265000D01*
D37*
X94998000Y-87630000D02*
X90763000Y-87630000D01*
X43688000Y-97917000D02*
X43688000Y-100690000D01*
X55240000Y-86365000D02*
X43688000Y-97917000D01*
X89498000Y-86365000D02*
X84582000Y-86365000D01*
X84582000Y-86365000D02*
X80264000Y-86365000D01*
X80264000Y-86365000D02*
X55240000Y-86365000D01*
X90763000Y-87630000D02*
X89498000Y-86365000D01*
X39370000Y-104775000D02*
X39370000Y-102235000D01*
X40915000Y-100690000D02*
X43688000Y-100690000D01*
X39370000Y-102235000D02*
X40915000Y-100690000D01*
D35*
X97498000Y-116365000D02*
X97498000Y-114465000D01*
X99568000Y-104815000D02*
X98258000Y-103505000D01*
X99568000Y-112395000D02*
X99568000Y-104815000D01*
X97498000Y-114465000D02*
X99568000Y-112395000D01*
X52578000Y-103465000D02*
X55118000Y-103465000D01*
D34*
X45593000Y-105283000D02*
X45593000Y-102870000D01*
X47098000Y-101365000D02*
X49498000Y-101365000D01*
X45593000Y-102870000D02*
X47098000Y-101365000D01*
D38*
G36*
X44185560Y-106043000D02*
X44229838Y-106278317D01*
X44368910Y-106494441D01*
X44581110Y-106639431D01*
X44833000Y-106690440D01*
X46353000Y-106690440D01*
X46588317Y-106646162D01*
X46804441Y-106507090D01*
X46949431Y-106294890D01*
X46986969Y-106109520D01*
X47341764Y-106464934D01*
X47854300Y-106677758D01*
X48409265Y-106678242D01*
X48564800Y-106613976D01*
X48564800Y-107058980D01*
X48476569Y-107188110D01*
X48425560Y-107440000D01*
X48425560Y-108290000D01*
X48469838Y-108525317D01*
X48545975Y-108643637D01*
X48438184Y-108903228D01*
X48437816Y-109324922D01*
X48598851Y-109714658D01*
X48701276Y-109817262D01*
X48555050Y-109836887D01*
X48424728Y-110237939D01*
X48457801Y-110658334D01*
X48555050Y-110893113D01*
X48762447Y-110920948D01*
X49318395Y-110365000D01*
X49304253Y-110350858D01*
X49480125Y-110174985D01*
X49487597Y-110174992D01*
X49498000Y-110185395D01*
X49508385Y-110175010D01*
X49515907Y-110175017D01*
X49691748Y-110350858D01*
X49677605Y-110365000D01*
X49691748Y-110379143D01*
X49512143Y-110558748D01*
X49498000Y-110544605D01*
X48942052Y-111100553D01*
X48969887Y-111307950D01*
X49370939Y-111438272D01*
X49791334Y-111405199D01*
X49891198Y-111363834D01*
X49867212Y-111387820D01*
X49981802Y-111502410D01*
X49726461Y-111587467D01*
X49518484Y-112156965D01*
X49544277Y-112762700D01*
X49726461Y-113202533D01*
X49981804Y-113287591D01*
X50874395Y-112395000D01*
X50860253Y-112380858D01*
X51039858Y-112201253D01*
X51054000Y-112215395D01*
X51068143Y-112201253D01*
X51247748Y-112380858D01*
X51233605Y-112395000D01*
X51247748Y-112409143D01*
X51068143Y-112588748D01*
X51054000Y-112574605D01*
X50161409Y-113467196D01*
X50246467Y-113722539D01*
X50815965Y-113930516D01*
X51421700Y-113904723D01*
X51861533Y-113722539D01*
X51871000Y-113694119D01*
X51871000Y-118655000D01*
X39067931Y-118655000D01*
X38509660Y-118543953D01*
X38095669Y-118267333D01*
X37819046Y-117853338D01*
X37708000Y-117295069D01*
X37708000Y-106427869D01*
X37918110Y-106571431D01*
X38170000Y-106622440D01*
X40570000Y-106622440D01*
X40805317Y-106578162D01*
X41021441Y-106439090D01*
X41166431Y-106226890D01*
X41217440Y-105975000D01*
X41217440Y-105492000D01*
X44185560Y-105492000D01*
X44185560Y-106043000D01*
X44185560Y-106043000D01*
G37*
X44185560Y-106043000D02*
X44229838Y-106278317D01*
X44368910Y-106494441D01*
X44581110Y-106639431D01*
X44833000Y-106690440D01*
X46353000Y-106690440D01*
X46588317Y-106646162D01*
X46804441Y-106507090D01*
X46949431Y-106294890D01*
X46986969Y-106109520D01*
X47341764Y-106464934D01*
X47854300Y-106677758D01*
X48409265Y-106678242D01*
X48564800Y-106613976D01*
X48564800Y-107058980D01*
X48476569Y-107188110D01*
X48425560Y-107440000D01*
X48425560Y-108290000D01*
X48469838Y-108525317D01*
X48545975Y-108643637D01*
X48438184Y-108903228D01*
X48437816Y-109324922D01*
X48598851Y-109714658D01*
X48701276Y-109817262D01*
X48555050Y-109836887D01*
X48424728Y-110237939D01*
X48457801Y-110658334D01*
X48555050Y-110893113D01*
X48762447Y-110920948D01*
X49318395Y-110365000D01*
X49304253Y-110350858D01*
X49480125Y-110174985D01*
X49487597Y-110174992D01*
X49498000Y-110185395D01*
X49508385Y-110175010D01*
X49515907Y-110175017D01*
X49691748Y-110350858D01*
X49677605Y-110365000D01*
X49691748Y-110379143D01*
X49512143Y-110558748D01*
X49498000Y-110544605D01*
X48942052Y-111100553D01*
X48969887Y-111307950D01*
X49370939Y-111438272D01*
X49791334Y-111405199D01*
X49891198Y-111363834D01*
X49867212Y-111387820D01*
X49981802Y-111502410D01*
X49726461Y-111587467D01*
X49518484Y-112156965D01*
X49544277Y-112762700D01*
X49726461Y-113202533D01*
X49981804Y-113287591D01*
X50874395Y-112395000D01*
X50860253Y-112380858D01*
X51039858Y-112201253D01*
X51054000Y-112215395D01*
X51068143Y-112201253D01*
X51247748Y-112380858D01*
X51233605Y-112395000D01*
X51247748Y-112409143D01*
X51068143Y-112588748D01*
X51054000Y-112574605D01*
X50161409Y-113467196D01*
X50246467Y-113722539D01*
X50815965Y-113930516D01*
X51421700Y-113904723D01*
X51861533Y-113722539D01*
X51871000Y-113694119D01*
X51871000Y-118655000D01*
X39067931Y-118655000D01*
X38509660Y-118543953D01*
X38095669Y-118267333D01*
X37819046Y-117853338D01*
X37708000Y-117295069D01*
X37708000Y-106427869D01*
X37918110Y-106571431D01*
X38170000Y-106622440D01*
X40570000Y-106622440D01*
X40805317Y-106578162D01*
X41021441Y-106439090D01*
X41166431Y-106226890D01*
X41217440Y-105975000D01*
X41217440Y-105492000D01*
X44185560Y-105492000D01*
X44185560Y-106043000D01*
M02*
