%TF.GenerationSoftware,KiCad,Pcbnew,(5.1.10)-1*%
%TF.CreationDate,2022-03-19T18:42:39-07:00*%
%TF.ProjectId,project,70726f6a-6563-4742-9e6b-696361645f70,0.0*%
%TF.SameCoordinates,Original*%
%TF.FileFunction,Copper,L1,Top*%
%TF.FilePolarity,Positive*%
%FSLAX46Y46*%
G04 Gerber Fmt 4.6, Leading zero omitted, Abs format (unit mm)*
G04 Created by KiCad (PCBNEW (5.1.10)-1) date 2022-03-19 18:42:39*
%MOMM*%
%LPD*%
G01*
G04 APERTURE LIST*
%TA.AperFunction,SMDPad,CuDef*%
%ADD10R,0.700000X1.300000*%
%TD*%
%TA.AperFunction,SMDPad,CuDef*%
%ADD11R,1.300000X0.700000*%
%TD*%
%TA.AperFunction,ComponentPad*%
%ADD12R,2.000000X1.350000*%
%TD*%
%TA.AperFunction,ComponentPad*%
%ADD13O,2.000000X1.350000*%
%TD*%
%TA.AperFunction,ComponentPad*%
%ADD14R,1.500000X0.800000*%
%TD*%
%TA.AperFunction,ComponentPad*%
%ADD15O,1.500000X0.800000*%
%TD*%
%TA.AperFunction,SMDPad,CuDef*%
%ADD16R,2.971800X0.558800*%
%TD*%
%TA.AperFunction,ComponentPad*%
%ADD17R,2.032000X1.250000*%
%TD*%
%TA.AperFunction,ComponentPad*%
%ADD18O,2.032000X1.500000*%
%TD*%
%TA.AperFunction,SMDPad,CuDef*%
%ADD19R,1.300000X1.500000*%
%TD*%
%TA.AperFunction,SMDPad,CuDef*%
%ADD20R,1.500000X1.300000*%
%TD*%
%TA.AperFunction,SMDPad,CuDef*%
%ADD21R,1.000000X1.250000*%
%TD*%
%TA.AperFunction,SMDPad,CuDef*%
%ADD22R,0.800000X0.750000*%
%TD*%
%TA.AperFunction,SMDPad,CuDef*%
%ADD23C,0.100000*%
%TD*%
%TA.AperFunction,SMDPad,CuDef*%
%ADD24R,1.700000X1.700000*%
%TD*%
%TA.AperFunction,SMDPad,CuDef*%
%ADD25R,0.600000X0.400000*%
%TD*%
%TA.AperFunction,ComponentPad*%
%ADD26R,1.350000X1.350000*%
%TD*%
%TA.AperFunction,ComponentPad*%
%ADD27O,1.350000X1.350000*%
%TD*%
%TA.AperFunction,SMDPad,CuDef*%
%ADD28R,0.500000X0.900000*%
%TD*%
%TA.AperFunction,ViaPad*%
%ADD29C,0.600000*%
%TD*%
%TA.AperFunction,Conductor*%
%ADD30C,0.406400*%
%TD*%
%TA.AperFunction,Conductor*%
%ADD31C,0.200000*%
%TD*%
%TA.AperFunction,Conductor*%
%ADD32C,0.304800*%
%TD*%
%TA.AperFunction,Conductor*%
%ADD33C,0.254000*%
%TD*%
G04 APERTURE END LIST*
D10*
%TO.P,R11,2*%
%TO.N,Net-(J5-Pad1)*%
X132550000Y-85500000D03*
%TO.P,R11,1*%
%TO.N,/D1*%
X134450000Y-85500000D03*
%TD*%
%TO.P,R3,2*%
%TO.N,Net-(J5-Pad3)*%
X132550000Y-87500000D03*
%TO.P,R3,1*%
%TO.N,/D4*%
X134450000Y-87500000D03*
%TD*%
%TO.P,R4,2*%
%TO.N,Net-(J6-Pad1)*%
X145450000Y-100000000D03*
%TO.P,R4,1*%
%TO.N,/D8*%
X143550000Y-100000000D03*
%TD*%
%TO.P,R5,2*%
%TO.N,Net-(J6-Pad3)*%
X145450000Y-98000000D03*
%TO.P,R5,1*%
%TO.N,/D9*%
X143550000Y-98000000D03*
%TD*%
%TO.P,R6,2*%
%TO.N,Net-(J7-Pad1)*%
X145450000Y-86000000D03*
%TO.P,R6,1*%
%TO.N,/D16*%
X143550000Y-86000000D03*
%TD*%
%TO.P,R7,2*%
%TO.N,Net-(J7-Pad3)*%
X145450000Y-88000000D03*
%TO.P,R7,1*%
%TO.N,/D15*%
X143550000Y-88000000D03*
%TD*%
D11*
%TO.P,R8,2*%
%TO.N,GND*%
X141500000Y-89950000D03*
%TO.P,R8,1*%
%TO.N,Net-(D0-Pad1)*%
X141500000Y-88050000D03*
%TD*%
D10*
%TO.P,R9,2*%
%TO.N,Net-(D7-Pad2)*%
X135950000Y-100000000D03*
%TO.P,R9,1*%
%TO.N,/D7*%
X134050000Y-100000000D03*
%TD*%
D11*
%TO.P,R10,2*%
%TO.N,Net-(J4-Pad2)*%
X137000000Y-95950000D03*
%TO.P,R10,1*%
%TO.N,/UPDI*%
X137000000Y-94050000D03*
%TD*%
D12*
%TO.P,J2,1*%
%TO.N,Net-(F2-Pad1)*%
X145000000Y-92000000D03*
D13*
%TO.P,J2,2*%
%TO.N,GND*%
X145000000Y-94000000D03*
%TD*%
D14*
%TO.P,J3,1*%
%TO.N,Net-(F1-Pad1)*%
X130000000Y-93750000D03*
D15*
%TO.P,J3,2*%
%TO.N,GND*%
X130000000Y-92500000D03*
%TD*%
D16*
%TO.P,SW1,1*%
%TO.N,N/C*%
X130383800Y-90500000D03*
%TO.P,SW1,3*%
%TO.N,Net-(F1-Pad2)*%
X130383800Y-95500000D03*
%TO.P,SW1,2*%
%TO.N,VCC*%
X135616200Y-93000000D03*
%TD*%
D17*
%TO.P,J6,1*%
%TO.N,Net-(J6-Pad1)*%
X148000000Y-101000000D03*
D18*
%TO.P,J6,2*%
%TO.N,GND*%
X148000000Y-98960000D03*
D17*
%TO.P,J6,3*%
%TO.N,Net-(J6-Pad3)*%
X148000000Y-96920000D03*
%TD*%
%TO.P,J5,1*%
%TO.N,Net-(J5-Pad1)*%
X130000000Y-85000000D03*
D18*
%TO.P,J5,2*%
%TO.N,GND*%
X130000000Y-87040000D03*
D17*
%TO.P,J5,3*%
%TO.N,Net-(J5-Pad3)*%
X130000000Y-89080000D03*
%TD*%
D19*
%TO.P,F2,1*%
%TO.N,Net-(F2-Pad1)*%
X148000000Y-91650000D03*
%TO.P,F2,2*%
%TO.N,Net-(F1-Pad2)*%
X148000000Y-94350000D03*
%TD*%
D20*
%TO.P,F1,1*%
%TO.N,Net-(F1-Pad1)*%
X132350000Y-100000000D03*
%TO.P,F1,2*%
%TO.N,Net-(F1-Pad2)*%
X129650000Y-100000000D03*
%TD*%
D21*
%TO.P,C1,1*%
%TO.N,VCC*%
X137250000Y-88500000D03*
%TO.P,C1,2*%
%TO.N,GND*%
X139250000Y-88500000D03*
%TD*%
D22*
%TO.P,C2,2*%
%TO.N,GND*%
X139250000Y-90500000D03*
%TO.P,C2,1*%
%TO.N,VCC*%
X137750000Y-90500000D03*
%TD*%
%TA.AperFunction,SMDPad,CuDef*%
D23*
%TO.P,U1,1*%
%TO.N,/D15*%
G36*
X141399039Y-92859044D02*
G01*
X141396194Y-92868423D01*
X141391573Y-92877068D01*
X141385355Y-92884644D01*
X141334644Y-92935355D01*
X141327068Y-92941573D01*
X141318423Y-92946194D01*
X141309044Y-92949039D01*
X141299289Y-92950000D01*
X141250000Y-92950000D01*
X141240245Y-92949039D01*
X141230866Y-92946194D01*
X141222221Y-92941573D01*
X141214645Y-92935355D01*
X141208427Y-92927779D01*
X141203806Y-92919134D01*
X141200961Y-92909755D01*
X141200000Y-92900000D01*
X141200000Y-92200000D01*
X141200961Y-92190245D01*
X141203806Y-92180866D01*
X141208427Y-92172221D01*
X141214645Y-92164645D01*
X141222221Y-92158427D01*
X141230866Y-92153806D01*
X141240245Y-92150961D01*
X141250000Y-92150000D01*
X141350000Y-92150000D01*
X141359755Y-92150961D01*
X141369134Y-92153806D01*
X141377779Y-92158427D01*
X141385355Y-92164645D01*
X141391573Y-92172221D01*
X141396194Y-92180866D01*
X141399039Y-92190245D01*
X141400000Y-92200000D01*
X141400000Y-92849289D01*
X141399039Y-92859044D01*
G37*
%TD.AperFunction*%
%TO.P,U1,2*%
%TO.N,/D16*%
%TA.AperFunction,SMDPad,CuDef*%
G36*
G01*
X140850000Y-92150000D02*
X140950000Y-92150000D01*
G75*
G02*
X141000000Y-92200000I0J-50000D01*
G01*
X141000000Y-92900000D01*
G75*
G02*
X140950000Y-92950000I-50000J0D01*
G01*
X140850000Y-92950000D01*
G75*
G02*
X140800000Y-92900000I0J50000D01*
G01*
X140800000Y-92200000D01*
G75*
G02*
X140850000Y-92150000I50000J0D01*
G01*
G37*
%TD.AperFunction*%
%TO.P,U1,3*%
%TO.N,GND*%
%TA.AperFunction,SMDPad,CuDef*%
G36*
G01*
X140450000Y-92150000D02*
X140550000Y-92150000D01*
G75*
G02*
X140600000Y-92200000I0J-50000D01*
G01*
X140600000Y-92900000D01*
G75*
G02*
X140550000Y-92950000I-50000J0D01*
G01*
X140450000Y-92950000D01*
G75*
G02*
X140400000Y-92900000I0J50000D01*
G01*
X140400000Y-92200000D01*
G75*
G02*
X140450000Y-92150000I50000J0D01*
G01*
G37*
%TD.AperFunction*%
%TO.P,U1,4*%
%TO.N,VCC*%
%TA.AperFunction,SMDPad,CuDef*%
G36*
G01*
X140050000Y-92150000D02*
X140150000Y-92150000D01*
G75*
G02*
X140200000Y-92200000I0J-50000D01*
G01*
X140200000Y-92900000D01*
G75*
G02*
X140150000Y-92950000I-50000J0D01*
G01*
X140050000Y-92950000D01*
G75*
G02*
X140000000Y-92900000I0J50000D01*
G01*
X140000000Y-92200000D01*
G75*
G02*
X140050000Y-92150000I50000J0D01*
G01*
G37*
%TD.AperFunction*%
%TA.AperFunction,SMDPad,CuDef*%
%TO.P,U1,5*%
%TO.N,/D0*%
G36*
X139799039Y-92909755D02*
G01*
X139796194Y-92919134D01*
X139791573Y-92927779D01*
X139785355Y-92935355D01*
X139777779Y-92941573D01*
X139769134Y-92946194D01*
X139759755Y-92949039D01*
X139750000Y-92950000D01*
X139700711Y-92950000D01*
X139690956Y-92949039D01*
X139681577Y-92946194D01*
X139672932Y-92941573D01*
X139665356Y-92935355D01*
X139614645Y-92884644D01*
X139608427Y-92877068D01*
X139603806Y-92868423D01*
X139600961Y-92859044D01*
X139600000Y-92849289D01*
X139600000Y-92200000D01*
X139600961Y-92190245D01*
X139603806Y-92180866D01*
X139608427Y-92172221D01*
X139614645Y-92164645D01*
X139622221Y-92158427D01*
X139630866Y-92153806D01*
X139640245Y-92150961D01*
X139650000Y-92150000D01*
X139750000Y-92150000D01*
X139759755Y-92150961D01*
X139769134Y-92153806D01*
X139777779Y-92158427D01*
X139785355Y-92164645D01*
X139791573Y-92172221D01*
X139796194Y-92180866D01*
X139799039Y-92190245D01*
X139800000Y-92200000D01*
X139800000Y-92900000D01*
X139799039Y-92909755D01*
G37*
%TD.AperFunction*%
%TA.AperFunction,SMDPad,CuDef*%
%TO.P,U1,6*%
%TO.N,/D1*%
G36*
X139449039Y-93259755D02*
G01*
X139446194Y-93269134D01*
X139441573Y-93277779D01*
X139435355Y-93285355D01*
X139427779Y-93291573D01*
X139419134Y-93296194D01*
X139409755Y-93299039D01*
X139400000Y-93300000D01*
X138700000Y-93300000D01*
X138690245Y-93299039D01*
X138680866Y-93296194D01*
X138672221Y-93291573D01*
X138664645Y-93285355D01*
X138658427Y-93277779D01*
X138653806Y-93269134D01*
X138650961Y-93259755D01*
X138650000Y-93250000D01*
X138650000Y-93150000D01*
X138650961Y-93140245D01*
X138653806Y-93130866D01*
X138658427Y-93122221D01*
X138664645Y-93114645D01*
X138672221Y-93108427D01*
X138680866Y-93103806D01*
X138690245Y-93100961D01*
X138700000Y-93100000D01*
X139349289Y-93100000D01*
X139359044Y-93100961D01*
X139368423Y-93103806D01*
X139377068Y-93108427D01*
X139384644Y-93114645D01*
X139435355Y-93165356D01*
X139441573Y-93172932D01*
X139446194Y-93181577D01*
X139449039Y-93190956D01*
X139450000Y-93200711D01*
X139450000Y-93250000D01*
X139449039Y-93259755D01*
G37*
%TD.AperFunction*%
%TO.P,U1,7*%
%TO.N,N/C*%
%TA.AperFunction,SMDPad,CuDef*%
G36*
G01*
X138700000Y-93500000D02*
X139400000Y-93500000D01*
G75*
G02*
X139450000Y-93550000I0J-50000D01*
G01*
X139450000Y-93650000D01*
G75*
G02*
X139400000Y-93700000I-50000J0D01*
G01*
X138700000Y-93700000D01*
G75*
G02*
X138650000Y-93650000I0J50000D01*
G01*
X138650000Y-93550000D01*
G75*
G02*
X138700000Y-93500000I50000J0D01*
G01*
G37*
%TD.AperFunction*%
%TO.P,U1,8*%
%TA.AperFunction,SMDPad,CuDef*%
G36*
G01*
X138700000Y-93900000D02*
X139400000Y-93900000D01*
G75*
G02*
X139450000Y-93950000I0J-50000D01*
G01*
X139450000Y-94050000D01*
G75*
G02*
X139400000Y-94100000I-50000J0D01*
G01*
X138700000Y-94100000D01*
G75*
G02*
X138650000Y-94050000I0J50000D01*
G01*
X138650000Y-93950000D01*
G75*
G02*
X138700000Y-93900000I50000J0D01*
G01*
G37*
%TD.AperFunction*%
%TO.P,U1,9*%
%TO.N,/D4*%
%TA.AperFunction,SMDPad,CuDef*%
G36*
G01*
X138700000Y-94300000D02*
X139400000Y-94300000D01*
G75*
G02*
X139450000Y-94350000I0J-50000D01*
G01*
X139450000Y-94450000D01*
G75*
G02*
X139400000Y-94500000I-50000J0D01*
G01*
X138700000Y-94500000D01*
G75*
G02*
X138650000Y-94450000I0J50000D01*
G01*
X138650000Y-94350000D01*
G75*
G02*
X138700000Y-94300000I50000J0D01*
G01*
G37*
%TD.AperFunction*%
%TA.AperFunction,SMDPad,CuDef*%
%TO.P,U1,10*%
%TO.N,N/C*%
G36*
X139449039Y-94809044D02*
G01*
X139446194Y-94818423D01*
X139441573Y-94827068D01*
X139435355Y-94834644D01*
X139384644Y-94885355D01*
X139377068Y-94891573D01*
X139368423Y-94896194D01*
X139359044Y-94899039D01*
X139349289Y-94900000D01*
X138700000Y-94900000D01*
X138690245Y-94899039D01*
X138680866Y-94896194D01*
X138672221Y-94891573D01*
X138664645Y-94885355D01*
X138658427Y-94877779D01*
X138653806Y-94869134D01*
X138650961Y-94859755D01*
X138650000Y-94850000D01*
X138650000Y-94750000D01*
X138650961Y-94740245D01*
X138653806Y-94730866D01*
X138658427Y-94722221D01*
X138664645Y-94714645D01*
X138672221Y-94708427D01*
X138680866Y-94703806D01*
X138690245Y-94700961D01*
X138700000Y-94700000D01*
X139400000Y-94700000D01*
X139409755Y-94700961D01*
X139419134Y-94703806D01*
X139427779Y-94708427D01*
X139435355Y-94714645D01*
X139441573Y-94722221D01*
X139446194Y-94730866D01*
X139449039Y-94740245D01*
X139450000Y-94750000D01*
X139450000Y-94799289D01*
X139449039Y-94809044D01*
G37*
%TD.AperFunction*%
%TA.AperFunction,SMDPad,CuDef*%
%TO.P,U1,11*%
G36*
X139799039Y-95809755D02*
G01*
X139796194Y-95819134D01*
X139791573Y-95827779D01*
X139785355Y-95835355D01*
X139777779Y-95841573D01*
X139769134Y-95846194D01*
X139759755Y-95849039D01*
X139750000Y-95850000D01*
X139650000Y-95850000D01*
X139640245Y-95849039D01*
X139630866Y-95846194D01*
X139622221Y-95841573D01*
X139614645Y-95835355D01*
X139608427Y-95827779D01*
X139603806Y-95819134D01*
X139600961Y-95809755D01*
X139600000Y-95800000D01*
X139600000Y-95150711D01*
X139600961Y-95140956D01*
X139603806Y-95131577D01*
X139608427Y-95122932D01*
X139614645Y-95115356D01*
X139665356Y-95064645D01*
X139672932Y-95058427D01*
X139681577Y-95053806D01*
X139690956Y-95050961D01*
X139700711Y-95050000D01*
X139750000Y-95050000D01*
X139759755Y-95050961D01*
X139769134Y-95053806D01*
X139777779Y-95058427D01*
X139785355Y-95064645D01*
X139791573Y-95072221D01*
X139796194Y-95080866D01*
X139799039Y-95090245D01*
X139800000Y-95100000D01*
X139800000Y-95800000D01*
X139799039Y-95809755D01*
G37*
%TD.AperFunction*%
%TO.P,U1,12*%
%TO.N,/D7*%
%TA.AperFunction,SMDPad,CuDef*%
G36*
G01*
X140050000Y-95050000D02*
X140150000Y-95050000D01*
G75*
G02*
X140200000Y-95100000I0J-50000D01*
G01*
X140200000Y-95800000D01*
G75*
G02*
X140150000Y-95850000I-50000J0D01*
G01*
X140050000Y-95850000D01*
G75*
G02*
X140000000Y-95800000I0J50000D01*
G01*
X140000000Y-95100000D01*
G75*
G02*
X140050000Y-95050000I50000J0D01*
G01*
G37*
%TD.AperFunction*%
%TO.P,U1,13*%
%TO.N,/D8*%
%TA.AperFunction,SMDPad,CuDef*%
G36*
G01*
X140450000Y-95050000D02*
X140550000Y-95050000D01*
G75*
G02*
X140600000Y-95100000I0J-50000D01*
G01*
X140600000Y-95800000D01*
G75*
G02*
X140550000Y-95850000I-50000J0D01*
G01*
X140450000Y-95850000D01*
G75*
G02*
X140400000Y-95800000I0J50000D01*
G01*
X140400000Y-95100000D01*
G75*
G02*
X140450000Y-95050000I50000J0D01*
G01*
G37*
%TD.AperFunction*%
%TO.P,U1,14*%
%TO.N,/D9*%
%TA.AperFunction,SMDPad,CuDef*%
G36*
G01*
X140850000Y-95050000D02*
X140950000Y-95050000D01*
G75*
G02*
X141000000Y-95100000I0J-50000D01*
G01*
X141000000Y-95800000D01*
G75*
G02*
X140950000Y-95850000I-50000J0D01*
G01*
X140850000Y-95850000D01*
G75*
G02*
X140800000Y-95800000I0J50000D01*
G01*
X140800000Y-95100000D01*
G75*
G02*
X140850000Y-95050000I50000J0D01*
G01*
G37*
%TD.AperFunction*%
%TA.AperFunction,SMDPad,CuDef*%
%TO.P,U1,15*%
%TO.N,N/C*%
G36*
X141399039Y-95809755D02*
G01*
X141396194Y-95819134D01*
X141391573Y-95827779D01*
X141385355Y-95835355D01*
X141377779Y-95841573D01*
X141369134Y-95846194D01*
X141359755Y-95849039D01*
X141350000Y-95850000D01*
X141250000Y-95850000D01*
X141240245Y-95849039D01*
X141230866Y-95846194D01*
X141222221Y-95841573D01*
X141214645Y-95835355D01*
X141208427Y-95827779D01*
X141203806Y-95819134D01*
X141200961Y-95809755D01*
X141200000Y-95800000D01*
X141200000Y-95100000D01*
X141200961Y-95090245D01*
X141203806Y-95080866D01*
X141208427Y-95072221D01*
X141214645Y-95064645D01*
X141222221Y-95058427D01*
X141230866Y-95053806D01*
X141240245Y-95050961D01*
X141250000Y-95050000D01*
X141299289Y-95050000D01*
X141309044Y-95050961D01*
X141318423Y-95053806D01*
X141327068Y-95058427D01*
X141334644Y-95064645D01*
X141385355Y-95115356D01*
X141391573Y-95122932D01*
X141396194Y-95131577D01*
X141399039Y-95140956D01*
X141400000Y-95150711D01*
X141400000Y-95800000D01*
X141399039Y-95809755D01*
G37*
%TD.AperFunction*%
%TA.AperFunction,SMDPad,CuDef*%
%TO.P,U1,16*%
G36*
X142349039Y-94859755D02*
G01*
X142346194Y-94869134D01*
X142341573Y-94877779D01*
X142335355Y-94885355D01*
X142327779Y-94891573D01*
X142319134Y-94896194D01*
X142309755Y-94899039D01*
X142300000Y-94900000D01*
X141650711Y-94900000D01*
X141640956Y-94899039D01*
X141631577Y-94896194D01*
X141622932Y-94891573D01*
X141615356Y-94885355D01*
X141564645Y-94834644D01*
X141558427Y-94827068D01*
X141553806Y-94818423D01*
X141550961Y-94809044D01*
X141550000Y-94799289D01*
X141550000Y-94750000D01*
X141550961Y-94740245D01*
X141553806Y-94730866D01*
X141558427Y-94722221D01*
X141564645Y-94714645D01*
X141572221Y-94708427D01*
X141580866Y-94703806D01*
X141590245Y-94700961D01*
X141600000Y-94700000D01*
X142300000Y-94700000D01*
X142309755Y-94700961D01*
X142319134Y-94703806D01*
X142327779Y-94708427D01*
X142335355Y-94714645D01*
X142341573Y-94722221D01*
X142346194Y-94730866D01*
X142349039Y-94740245D01*
X142350000Y-94750000D01*
X142350000Y-94850000D01*
X142349039Y-94859755D01*
G37*
%TD.AperFunction*%
%TO.P,U1,17*%
%TA.AperFunction,SMDPad,CuDef*%
G36*
G01*
X141600000Y-94300000D02*
X142300000Y-94300000D01*
G75*
G02*
X142350000Y-94350000I0J-50000D01*
G01*
X142350000Y-94450000D01*
G75*
G02*
X142300000Y-94500000I-50000J0D01*
G01*
X141600000Y-94500000D01*
G75*
G02*
X141550000Y-94450000I0J50000D01*
G01*
X141550000Y-94350000D01*
G75*
G02*
X141600000Y-94300000I50000J0D01*
G01*
G37*
%TD.AperFunction*%
%TO.P,U1,18*%
%TA.AperFunction,SMDPad,CuDef*%
G36*
G01*
X141600000Y-93900000D02*
X142300000Y-93900000D01*
G75*
G02*
X142350000Y-93950000I0J-50000D01*
G01*
X142350000Y-94050000D01*
G75*
G02*
X142300000Y-94100000I-50000J0D01*
G01*
X141600000Y-94100000D01*
G75*
G02*
X141550000Y-94050000I0J50000D01*
G01*
X141550000Y-93950000D01*
G75*
G02*
X141600000Y-93900000I50000J0D01*
G01*
G37*
%TD.AperFunction*%
%TO.P,U1,19*%
%TO.N,/UPDI*%
%TA.AperFunction,SMDPad,CuDef*%
G36*
G01*
X141600000Y-93500000D02*
X142300000Y-93500000D01*
G75*
G02*
X142350000Y-93550000I0J-50000D01*
G01*
X142350000Y-93650000D01*
G75*
G02*
X142300000Y-93700000I-50000J0D01*
G01*
X141600000Y-93700000D01*
G75*
G02*
X141550000Y-93650000I0J50000D01*
G01*
X141550000Y-93550000D01*
G75*
G02*
X141600000Y-93500000I50000J0D01*
G01*
G37*
%TD.AperFunction*%
%TA.AperFunction,SMDPad,CuDef*%
%TO.P,U1,20*%
%TO.N,N/C*%
G36*
X142349039Y-93259755D02*
G01*
X142346194Y-93269134D01*
X142341573Y-93277779D01*
X142335355Y-93285355D01*
X142327779Y-93291573D01*
X142319134Y-93296194D01*
X142309755Y-93299039D01*
X142300000Y-93300000D01*
X141600000Y-93300000D01*
X141590245Y-93299039D01*
X141580866Y-93296194D01*
X141572221Y-93291573D01*
X141564645Y-93285355D01*
X141558427Y-93277779D01*
X141553806Y-93269134D01*
X141550961Y-93259755D01*
X141550000Y-93250000D01*
X141550000Y-93200711D01*
X141550961Y-93190956D01*
X141553806Y-93181577D01*
X141558427Y-93172932D01*
X141564645Y-93165356D01*
X141615356Y-93114645D01*
X141622932Y-93108427D01*
X141631577Y-93103806D01*
X141640956Y-93100961D01*
X141650711Y-93100000D01*
X142300000Y-93100000D01*
X142309755Y-93100961D01*
X142319134Y-93103806D01*
X142327779Y-93108427D01*
X142335355Y-93114645D01*
X142341573Y-93122221D01*
X142346194Y-93130866D01*
X142349039Y-93140245D01*
X142350000Y-93150000D01*
X142350000Y-93250000D01*
X142349039Y-93259755D01*
G37*
%TD.AperFunction*%
D24*
%TO.P,U1,21*%
%TO.N,GND*%
X140500000Y-94000000D03*
%TD*%
D25*
%TO.P,JP1,1*%
%TO.N,/D1*%
X134500000Y-86200000D03*
%TO.P,JP1,2*%
%TO.N,/D4*%
X134500000Y-86800000D03*
%TD*%
%TO.P,JP2,2*%
%TO.N,/D15*%
X143500000Y-87300000D03*
%TO.P,JP2,1*%
%TO.N,/D16*%
X143500000Y-86700000D03*
%TD*%
D20*
%TO.P,D0,2*%
%TO.N,/D0*%
X137650000Y-86000000D03*
%TO.P,D0,1*%
%TO.N,Net-(D0-Pad1)*%
X140350000Y-86000000D03*
%TD*%
%TO.P,D7,1*%
%TO.N,GND*%
X140350000Y-100000000D03*
%TO.P,D7,2*%
%TO.N,Net-(D7-Pad2)*%
X137650000Y-100000000D03*
%TD*%
D26*
%TO.P,J4,1*%
%TO.N,VCC*%
X137000000Y-98000000D03*
D27*
%TO.P,J4,2*%
%TO.N,Net-(J4-Pad2)*%
X139000000Y-98000000D03*
%TO.P,J4,3*%
%TO.N,GND*%
X141000000Y-98000000D03*
%TD*%
D17*
%TO.P,J7,1*%
%TO.N,Net-(J7-Pad1)*%
X148000000Y-85000000D03*
D18*
%TO.P,J7,2*%
%TO.N,GND*%
X148000000Y-87040000D03*
D17*
%TO.P,J7,3*%
%TO.N,Net-(J7-Pad3)*%
X148000000Y-89080000D03*
%TD*%
D28*
%TO.P,R1,2*%
%TO.N,/A5*%
X133900000Y-98300000D03*
%TO.P,R1,1*%
%TO.N,VCC*%
X135400000Y-98300000D03*
%TD*%
%TO.P,R2,1*%
%TO.N,/A5*%
X132900000Y-98300000D03*
%TO.P,R2,2*%
%TO.N,GND*%
X131400000Y-98300000D03*
%TD*%
D29*
%TO.N,GND*%
X140200000Y-88900000D03*
X132200000Y-97500000D03*
%TO.N,VCC*%
X134200000Y-92200000D03*
X137000000Y-89700000D03*
%TO.N,/UPDI*%
X143300000Y-95600000D03*
X135400000Y-94100000D03*
%TO.N,Net-(J4-Pad2)*%
X134200000Y-96200000D03*
%TD*%
D30*
%TO.N,GND*%
X141000000Y-98000000D02*
X141000000Y-99350000D01*
X141000000Y-99350000D02*
X140350000Y-100000000D01*
X139250000Y-90500000D02*
X139250000Y-88500000D01*
D31*
X140500000Y-92550000D02*
X140500000Y-91434312D01*
D32*
X140500000Y-91000000D02*
X140000000Y-90500000D01*
D31*
X140500000Y-91434312D02*
X140500000Y-91500000D01*
X140500000Y-91500000D02*
X140500000Y-91000000D01*
X140500000Y-92550000D02*
X140500000Y-94000000D01*
D33*
X139250000Y-90500000D02*
X140000000Y-90500000D01*
X140000000Y-90500000D02*
X140550000Y-89950000D01*
X140550000Y-89950000D02*
X141500000Y-89950000D01*
D30*
X139250000Y-88500000D02*
X139800000Y-88500000D01*
X139800000Y-88500000D02*
X140200000Y-88900000D01*
D33*
X131400000Y-98300000D02*
X132200000Y-97500000D01*
D32*
%TO.N,Net-(J6-Pad1)*%
X145450000Y-100000000D02*
X146000000Y-100000000D01*
X147000000Y-101000000D02*
X148000000Y-101000000D01*
X146000000Y-100000000D02*
X147000000Y-101000000D01*
D31*
%TO.N,VCC*%
X140100000Y-92550000D02*
X140100000Y-91600000D01*
D32*
X137750000Y-90750000D02*
X137750000Y-90500000D01*
D31*
X140100000Y-91600000D02*
X140000000Y-91500000D01*
D32*
X137750000Y-90500000D02*
X137750000Y-90550000D01*
X139800000Y-91300000D02*
X139900000Y-91400000D01*
X138500000Y-91300000D02*
X139800000Y-91300000D01*
X137750000Y-90550000D02*
X138500000Y-91300000D01*
D30*
X134900000Y-92200000D02*
X134200000Y-92200000D01*
X135616200Y-92916200D02*
X134900000Y-92200000D01*
X135616200Y-92916200D02*
X135616200Y-93000000D01*
X137400000Y-88650000D02*
X137250000Y-88500000D01*
X137000000Y-89700000D02*
X137400000Y-89300000D01*
X137400000Y-89300000D02*
X137400000Y-88650000D01*
X137750000Y-90500000D02*
X137750000Y-90450000D01*
X137750000Y-90450000D02*
X137000000Y-89700000D01*
D33*
X136700000Y-98300000D02*
X137000000Y-98000000D01*
X135400000Y-98300000D02*
X136700000Y-98300000D01*
D32*
%TO.N,/D1*%
X134450000Y-85500000D02*
X134450000Y-86150000D01*
X134450000Y-86150000D02*
X134500000Y-86200000D01*
D31*
X139050000Y-93200000D02*
X138400000Y-93200000D01*
D33*
X137400000Y-92200000D02*
X138100000Y-92900000D01*
X136000000Y-92200000D02*
X137400000Y-92200000D01*
X135000000Y-85500000D02*
X134450000Y-85500000D01*
X135500000Y-86000000D02*
X135000000Y-85500000D01*
X135500000Y-90300000D02*
X135500000Y-86000000D01*
D31*
X138400000Y-93200000D02*
X138100000Y-92900000D01*
D33*
X135500000Y-91700000D02*
X136000000Y-92200000D01*
X135500000Y-90300000D02*
X135500000Y-91700000D01*
D32*
%TO.N,Net-(J6-Pad3)*%
X145450000Y-98000000D02*
X146000000Y-98000000D01*
X147080000Y-96920000D02*
X148000000Y-96920000D01*
X146000000Y-98000000D02*
X147080000Y-96920000D01*
D30*
%TO.N,Net-(F1-Pad1)*%
X130000000Y-93750000D02*
X131950000Y-93750000D01*
X131950000Y-93750000D02*
X133000000Y-94800000D01*
X133000000Y-94800000D02*
X133000000Y-96200000D01*
X133000000Y-96200000D02*
X132600000Y-96600000D01*
X132600000Y-96600000D02*
X131300000Y-96600000D01*
X131300000Y-96600000D02*
X130600000Y-97300000D01*
X131775762Y-100000000D02*
X132350000Y-100000000D01*
X130600000Y-98824238D02*
X131775762Y-100000000D01*
X130600000Y-97300000D02*
X130600000Y-98824238D01*
%TO.N,Net-(F1-Pad2)*%
X129650000Y-100000000D02*
X129650000Y-100150000D01*
X147150000Y-94350000D02*
X148000000Y-94350000D01*
X144500000Y-97000000D02*
X147150000Y-94350000D01*
X144500000Y-101000000D02*
X144500000Y-97000000D01*
X144000000Y-101500000D02*
X144500000Y-101000000D01*
X131000000Y-101500000D02*
X144000000Y-101500000D01*
X130383800Y-95500000D02*
X130383800Y-96116200D01*
X130383800Y-96116200D02*
X129650000Y-96850000D01*
X129650000Y-100150000D02*
X131000000Y-101500000D01*
X129650000Y-100000000D02*
X129650000Y-96850000D01*
%TO.N,Net-(F2-Pad1)*%
X148000000Y-91650000D02*
X145350000Y-91650000D01*
X145350000Y-91650000D02*
X145000000Y-92000000D01*
D32*
%TO.N,Net-(J5-Pad1)*%
X130000000Y-85000000D02*
X131000000Y-85000000D01*
X131500000Y-85500000D02*
X132550000Y-85500000D01*
X131000000Y-85000000D02*
X131500000Y-85500000D01*
%TO.N,Net-(J5-Pad3)*%
X130000000Y-89080000D02*
X130920000Y-89080000D01*
X132500000Y-87500000D02*
X132550000Y-87500000D01*
X130920000Y-89080000D02*
X132500000Y-87500000D01*
%TO.N,Net-(J7-Pad1)*%
X145450000Y-86000000D02*
X146000000Y-86000000D01*
X147000000Y-85000000D02*
X148000000Y-85000000D01*
X146000000Y-86000000D02*
X147000000Y-85000000D01*
%TO.N,Net-(J7-Pad3)*%
X145450000Y-88000000D02*
X146500000Y-88000000D01*
X147500000Y-89000000D02*
X148000000Y-89000000D01*
X146500000Y-88000000D02*
X147500000Y-89000000D01*
D31*
%TO.N,/UPDI*%
X141950000Y-93600000D02*
X142900000Y-93600000D01*
D33*
X143300000Y-94600000D02*
X143300000Y-95600000D01*
D31*
X142900000Y-93600000D02*
X143300000Y-94000000D01*
X143300000Y-94000000D02*
X143300000Y-94600000D01*
D33*
X135950000Y-94050000D02*
X137000000Y-94050000D01*
X135400000Y-94100000D02*
X135950000Y-94050000D01*
D31*
%TO.N,/D9*%
X140900000Y-95450000D02*
X140900000Y-96000000D01*
D33*
X141850000Y-96300000D02*
X143550000Y-98000000D01*
X141700000Y-96300000D02*
X141850000Y-96300000D01*
D31*
X140900000Y-96000000D02*
X141200000Y-96300000D01*
X141200000Y-96300000D02*
X141700000Y-96300000D01*
D32*
%TO.N,/D16*%
X143500000Y-86700000D02*
X143500000Y-86050000D01*
X143500000Y-86050000D02*
X143550000Y-86000000D01*
D31*
X140900000Y-92550000D02*
X140900000Y-91500000D01*
D33*
X142700000Y-86850000D02*
X143550000Y-86000000D01*
X142700000Y-90400000D02*
X142700000Y-86850000D01*
X142200000Y-90900000D02*
X142700000Y-90400000D01*
X141500000Y-90900000D02*
X142200000Y-90900000D01*
X141200000Y-91200000D02*
X141500000Y-90900000D01*
D31*
X140900000Y-91500000D02*
X141200000Y-91200000D01*
D33*
%TO.N,/D7*%
X134050000Y-100000000D02*
X134100000Y-100000000D01*
X134100000Y-100000000D02*
X134700000Y-99400000D01*
X134700000Y-99400000D02*
X134700000Y-97700000D01*
X134700000Y-97700000D02*
X135500000Y-96900000D01*
X135500000Y-96900000D02*
X135700000Y-96700000D01*
X135700000Y-96700000D02*
X139200000Y-96700000D01*
D31*
X140100000Y-95450000D02*
X140100000Y-96100000D01*
X139500000Y-96700000D02*
X139200000Y-96700000D01*
X140100000Y-96100000D02*
X139500000Y-96700000D01*
%TO.N,/D8*%
X140500000Y-95450000D02*
X140500000Y-96500000D01*
D33*
X143000000Y-100000000D02*
X143550000Y-100000000D01*
X142300000Y-99300000D02*
X143000000Y-100000000D01*
X142300000Y-97700000D02*
X142300000Y-99300000D01*
X141400000Y-96800000D02*
X142300000Y-97700000D01*
X140800000Y-96800000D02*
X141400000Y-96800000D01*
X140500000Y-96500000D02*
X140800000Y-96800000D01*
D32*
%TO.N,/D15*%
X143500000Y-87300000D02*
X143500000Y-87950000D01*
X143500000Y-87950000D02*
X143550000Y-88000000D01*
D31*
X141300000Y-92550000D02*
X141300000Y-91800000D01*
D33*
X143400000Y-88150000D02*
X143550000Y-88000000D01*
X143400000Y-90500000D02*
X143400000Y-88150000D01*
X142300000Y-91600000D02*
X143400000Y-90500000D01*
X141700000Y-91600000D02*
X142300000Y-91600000D01*
D31*
X141300000Y-91800000D02*
X141500000Y-91600000D01*
X141500000Y-91600000D02*
X141700000Y-91600000D01*
%TO.N,/D0*%
X139700000Y-92550000D02*
X139150000Y-92550000D01*
D33*
X137000000Y-86000000D02*
X137650000Y-86000000D01*
X136200000Y-86800000D02*
X137000000Y-86000000D01*
X136200000Y-90300000D02*
X136200000Y-86800000D01*
X138800000Y-92200000D02*
X138100000Y-92200000D01*
D31*
X139150000Y-92550000D02*
X138800000Y-92200000D01*
D33*
X138100000Y-92200000D02*
X136200000Y-90300000D01*
%TO.N,Net-(J4-Pad2)*%
X137000000Y-95950000D02*
X134450000Y-95950000D01*
X134450000Y-95950000D02*
X134200000Y-96200000D01*
%TO.N,Net-(D0-Pad1)*%
X141500000Y-88050000D02*
X141500000Y-87150000D01*
X141500000Y-87150000D02*
X140350000Y-86000000D01*
D32*
%TO.N,Net-(D7-Pad2)*%
X135950000Y-100000000D02*
X137650000Y-100000000D01*
%TO.N,/D4*%
X134450000Y-86850000D02*
X134500000Y-86800000D01*
X134450000Y-87500000D02*
X134450000Y-86850000D01*
D33*
X134450000Y-87500000D02*
X134450000Y-88850000D01*
X134450000Y-88850000D02*
X133300000Y-90000000D01*
X133300000Y-90000000D02*
X133300000Y-93700000D01*
X134400000Y-94800000D02*
X134900000Y-94800000D01*
X134900000Y-94800000D02*
X134918989Y-94818989D01*
X133300000Y-93700000D02*
X134400000Y-94800000D01*
X134900000Y-94800000D02*
X137600000Y-94800000D01*
D31*
X139050000Y-94400000D02*
X138100000Y-94400000D01*
X137700000Y-94800000D02*
X137600000Y-94800000D01*
X138100000Y-94400000D02*
X137700000Y-94800000D01*
D33*
%TO.N,/A5*%
X132900000Y-98300000D02*
X133745990Y-98300000D01*
X133900000Y-98300000D02*
X133900000Y-97300000D01*
X133572999Y-95899039D02*
X134199039Y-95272999D01*
X133572999Y-96972999D02*
X133572999Y-95899039D01*
X133900000Y-97300000D02*
X133572999Y-96972999D01*
X134199039Y-95272999D02*
X136088399Y-95272999D01*
X136088399Y-95272999D02*
X137700000Y-95272999D01*
D31*
X137827001Y-95272999D02*
X137700000Y-95272999D01*
X138300000Y-94800000D02*
X137827001Y-95272999D01*
%TD*%
M02*
