<?xml version="1.0" encoding="UTF-8" standalone="no"?>
<svg
   xmlns:dc="http://purl.org/dc/elements/1.1/"
   xmlns:cc="http://creativecommons.org/ns#"
   xmlns:rdf="http://www.w3.org/1999/02/22-rdf-syntax-ns#"
   xmlns:svg="http://www.w3.org/2000/svg"
   xmlns="http://www.w3.org/2000/svg"
   xmlns:sodipodi="http://sodipodi.sourceforge.net/DTD/sodipodi-0.dtd"
   xmlns:inkscape="http://www.inkscape.org/namespaces/inkscape"
   version="1.1"
   width="20.8636cm"
   height="14.9454cm"
   viewBox="0 0 82140 58840 "
   id="svg11202"
   sodipodi:docname="tutorial2-brd.svg">
  <metadata
     id="metadata11208">
    <rdf:RDF>
      <cc:Work
         rdf:about="">
        <dc:format>image/svg+xml</dc:format>
        <dc:type
           rdf:resource="http://purl.org/dc/dcmitype/StillImage" />
      </cc:Work>
    </rdf:RDF>
  </metadata>
  <defs
     id="defs11206" />
  <sodipodi:namedview
     pagecolor="#ffffff"
     bordercolor="#666666"
     borderopacity="1"
     objecttolerance="10"
     gridtolerance="10"
     guidetolerance="10"
     inkscape:pageopacity="0"
     inkscape:pageshadow="2"
     inkscape:window-width="640"
     inkscape:window-height="480"
     id="namedview11204"
     showgrid="false" />
  <title
     id="title11010">SVG Picture created as tutorial2-brd.svg date 2018/05/17 10:45:05 </title>
  <desc
     id="desc11012">Picture generated by PCBNEW </desc>
  <g
     style="fill:#000000; fill-opacity:1;stroke:#000000; stroke-opacity:1; stroke-linecap:round; stroke-linejoin:round; "
     transform="translate(0 0) scale(1 1)"
     id="g11014" />
  <g
     style="fill:#000000; fill-opacity:0.0;  stroke:#000000; stroke-width:-0.000393701; stroke-opacity:1;  stroke-linecap:round; stroke-linejoin:round;"
     id="g11016" />
  <g
     style="fill:#008484; fill-opacity:0.0;  stroke:#008484; stroke-width:-0.000393701; stroke-opacity:1;  stroke-linecap:round; stroke-linejoin:round;"
     id="g11018" />
  <g
     style="fill:#008484; fill-opacity:0.0;  stroke:#008484; stroke-width:59.0551; stroke-opacity:1;  stroke-linecap:round; stroke-linejoin:round;"
     id="g11048">
    <path
       d="M6322 12355 L4997 11580 "
       id="path11020" />
    <path
       d="M11972 12405 L13297 11580 "
       id="path11022" />
    <path
       d="M6312.87 12355.6 A1025.91 1025.91 0.0 0 0 7762.87 12305.6 "
       id="path11024" />
    <path
       d="M10527.9 12355.6 A1025.91 1025.91 0.0 0 0 11977.9 12405.6 "
       id="path11026" />
    <path
       d="M10547.9 12355.6 A1980.21 1980.21 0.0 0 0 7747.87 12305.6 "
       id="path11028" />
    <path
       d="M12147 6680 L13297 8005 "
       id="path11030" />
    <path
       d="M4997 7980 L6172 6655 "
       id="path11032" />
    <path
       d="M6147 6680 L12147 6680 "
       id="path11034" />
    <path
       d="M4997 11580 L4997 7980 "
       id="path11036" />
    <path
       d="M13297 11580 L13297 7980 "
       id="path11038" />
    <path
       d="M7647 5680 L7647 3880 "
       id="path11040" />
    <path
       d="M10647 5680 L10647 3880 "
       id="path11042" />
    <path
       d="M10647 5680 L7647 5680 "
       id="path11044" />
    <path
       d="M7647 3880 L10647 3880 "
       id="path11046" />
  </g>
  <g
     style="fill:#008484; fill-opacity:0.0;  stroke:#008484; stroke-width:100; stroke-opacity:1;  stroke-linecap:round; stroke-linejoin:round;"
     id="g11078">
    <path
       d="M15710 3605 L15970 3755 "
       id="path11050" />
    <path
       d="M14584 2955 L14325 2805 "
       id="path11052" />
    <path
       d="M14759 2652 L14709 2739 "
       id="path11054" />
    <path
       d="M14759 2652 L15885 3302 "
       id="path11056" />
    <path
       d="M15885 3302 L15535 3908 "
       id="path11058" />
    <path
       d="M15535 3908 L14409 3258 "
       id="path11060" />
    <path
       d="M14409 3258 L14709 2739 "
       id="path11062" />
    <path
       d="M2584 3605 L2325 3755 "
       id="path11064" />
    <path
       d="M3710 2955 L3970 2805 "
       id="path11066" />
    <path
       d="M3885 3258 L3835 3172 "
       id="path11068" />
    <path
       d="M3885 3258 L2759 3908 "
       id="path11070" />
    <path
       d="M2759 3908 L2409 3302 "
       id="path11072" />
    <path
       d="M2409 3302 L3535 2652 "
       id="path11074" />
    <path
       d="M3535 2652 L3835 3172 "
       id="path11076" />
  </g>
  <g
     style="fill:#008484; fill-opacity:0.0;  stroke:#008484; stroke-width:47.2441; stroke-opacity:1;  stroke-linecap:round; stroke-linejoin:round;"
     id="g11096">
    <path
       d="M4474.48 5721.33 A1177.17 1177.17 0.0 0 0 3908.84 3524.84 "
       id="path11080" />
    <path
       d="M2855.4 4133.04 A1177.17 1177.17 0.0 0 0 4474.8 5721.15 "
       id="path11082" />
    <circle
       cx="3886.06"
       cy="4701.78"
       r="984.252"
       id="circle11084" />
    <path
       d="M3908 3524 L2855 4133 "
       id="path11086" />
    <path
       d="M13820.9 5721.15 A1177.17 1177.17 0.0 0 0 15440.3 4133.04 "
       id="path11088" />
    <path
       d="M14386.9 3524.84 A1177.17 1177.17 0.0 0 0 13821.3 5721.33 "
       id="path11090" />
    <circle
       cx="14409.7"
       cy="4701.78"
       r="984.252"
       id="circle11092" />
    <path
       d="M15440 4133 L14386 3524 "
       id="path11094" />
  </g>
  <g
     style="fill:#C2C200; fill-opacity:0.0;  stroke:#C2C200; stroke-width:47.2441; stroke-opacity:1;  stroke-linecap:round; stroke-linejoin:round;"
     id="g11098" />
  <g
     style="fill:#C2C200; fill-opacity:0.0;  stroke:#C2C200; stroke-width:59.0551; stroke-opacity:1;  stroke-linecap:round; stroke-linejoin:round;"
     id="g11108">
    <path
       d="M8622 3639 L8679 3658 L8772 3658 L8810 3639 L8829 3621 L8847 3583 L8847 3546 L8829 3508 L8810 3489 L8772 3471 L8697 3452 L8660 3433 L8641 3414 L8622 3377 L8622 3339 L8641 3302 L8660 3283 L8697 3264 L8791 3264 L8847 3283 "
       id="path11100" />
    <path
       d="M8979 3264 L9072 3658 L9147 3377 L9222 3658 L9316 3264 "
       id="path11102" />
    <path
       d="M9672 3658 L9447 3658 "
       id="path11104" />
    <path
       d="M9560 3658 L9560 3264 L9522 3321 L9485 3358 L9447 3377 "
       id="path11106" />
  </g>
  <g
     style="fill:#008484; fill-opacity:0.0;  stroke:#008484; stroke-width:59.0551; stroke-opacity:1;  stroke-linecap:round; stroke-linejoin:round;"
     id="g11126">
    <path
       d="M14831 3303 L14636 3191 "
       id="path11110" />
    <path
       d="M14734 3247 L14930 2906 L14870 2936 L14819 2950 L14777 2947 "
       id="path11112" />
    <path
       d="M15239 3084 L15271 3103 L15295 3138 L15301 3163 L15299 3205 L15278 3279 L15231 3361 L15177 3416 L15142 3439 L15116 3446 L15075 3444 L15042 3425 L15019 3390 L15012 3364 L15015 3323 L15036 3248 L15083 3167 L15136 3111 L15171 3088 L15197 3081 L15239 3084 "
       id="path11114" />
    <path
       d="M15564 3271 L15596 3290 L15619 3325 L15626 3351 L15624 3393 L15602 3467 L15555 3548 L15502 3604 L15467 3627 L15441 3634 L15399 3631 L15367 3612 L15344 3577 L15337 3552 L15339 3510 L15361 3436 L15407 3354 L15461 3299 L15496 3276 L15522 3269 L15564 3271 "
       id="path11116" />
    <path
       d="M3009 3566 L2814 3678 "
       id="path11118" />
    <path
       d="M2912 3622 L2715 3281 L2711 3348 L2697 3400 L2674 3435 "
       id="path11120" />
    <path
       d="M3023 3103 L3056 3084 L3098 3081 L3123 3088 L3158 3111 L3212 3167 L3259 3248 L3280 3323 L3283 3364 L3276 3390 L3253 3425 L3220 3444 L3178 3446 L3153 3439 L3118 3416 L3064 3361 L3017 3279 L2996 3205 L2993 3163 L3000 3138 L3023 3103 "
       id="path11122" />
    <path
       d="M3348 2915 L3381 2897 L3422 2894 L3448 2901 L3483 2924 L3537 2980 L3584 3061 L3605 3135 L3607 3177 L3600 3202 L3577 3237 L3545 3256 L3503 3259 L3477 3252 L3442 3229 L3389 3173 L3342 3092 L3321 3018 L3318 2976 L3325 2950 L3348 2915 "
       id="path11124" />
  </g>
  <g
     style="fill:#C2C200; fill-opacity:0.0;  stroke:#C2C200; stroke-width:59.0551; stroke-opacity:1;  stroke-linecap:round; stroke-linejoin:round;"
     id="g11138">
    <path
       d="M4936 3759 L5277 3562 L5324 3643 L5336 3702 L5322 3753 L5299 3788 L5244 3841 L5195 3870 L5120 3891 L5079 3893 L5027 3880 L4983 3840 L4936 3759 "
       id="path11128" />
    <path
       d="M5432 3906 L5458 3913 L5493 3936 L5540 4017 L5542 4059 L5535 4084 L5512 4119 L5480 4138 L5422 4150 L5114 4068 L5236 4279 "
       id="path11130" />
    <path
       d="M15768 5822 L15427 5625 L15474 5543 L15519 5504 L15570 5490 L15612 5493 L15686 5514 L15735 5542 L15790 5596 L15813 5631 L15827 5682 L15815 5740 L15768 5822 "
       id="path11132" />
    <path
       d="M16068 5302 L15956 5497 "
       id="path11134" />
    <path
       d="M16012 5399 L15671 5203 L15701 5263 L15715 5314 L15712 5356 "
       id="path11136" />
  </g>
  <g
     style="fill:#000000; fill-opacity:0.0;  stroke:#000000; stroke-width:59.0551; stroke-opacity:1;  stroke-linecap:round; stroke-linejoin:round;"
     id="g11140" />
  <g
     style="fill:#C2C200; fill-opacity:0.0;  stroke:#C2C200; stroke-width:59.0551; stroke-opacity:1;  stroke-linecap:round; stroke-linejoin:round;"
     id="g11156">
    <path
       d="M7397 4280 L7397 5780 "
       id="path11142" />
    <path
       d="M10897 4280 L10897 5780 "
       id="path11144" />
    <path
       d="M10897 2280 L10897 2780 "
       id="path11146" />
    <path
       d="M7647 2030 L10647 2030 "
       id="path11148" />
    <path
       d="M7397 2780 L7397 2280 "
       id="path11150" />
    <path
       d="M10897.9 2280.58 A250 250 0.0 0 0 10647.9 2030.58 "
       id="path11152" />
    <path
       d="M7647.87 2030.58 A250 250 0.0 0 0 7397.87 2280.58 "
       id="path11154" />
  </g>
  <g
     style="fill:#C2C200; fill-opacity:1.0;  stroke:#C2C200; stroke-width:0; stroke-opacity:1;  stroke-linecap:round; stroke-linejoin:round;"
     id="g11160">
    <polyline
       style="fill-rule:evenodd;"
       points="13649,6018 13669,5983 13410,5821 13168,5647 12945,5461 12740,5266 12556,5063 12393,4854 12251,4640 12132,4424 12010,4133 11930,3844 11895,3560 11907,3285 11968,3023 12078,2778 12235,2560 12432,2377 12664,2229 12927,2117 13217,2041 13530,2002 13778,1997 14034,2013 14296,2050 14564,2108 14835,2187 15108,2288 15380,2410 15649,2554 15909,2715 16150,2889 16374,3075 16578,3270 16762,3473 16925,3682 17066,3896 17185,4113 17308,4403 17388,4693 17423,4977 17411,5251 17351,5513 17240,5758 17083,5977 16886,6160 16654,6307 16391,6419 16101,6495 15788,6534 15540,6539 15284,6523 15022,6487 14754,6429 14483,6350 14211,6249 13939,6127 13669,5983 13649,6018 13921,6163 14196,6286 14470,6387 14744,6467 15015,6526 15281,6563 15540,6578 15791,6573 16109,6533 16405,6456 16673,6342 16911,6190 17113,6003 17274,5778 17388,5526 17450,5257 17462,4976 17426,4686 17345,4391 17221,4096 17100,3876 16957,3659 16792,3448 16606,3242 16400,3045 16175,2858 15931,2682 15669,2519 15397,2374 15123,2251 14848,2149 14574,2069 14303,2011 14038,1974 13778,1958 13528,1963 13210,2003 12914,2081 12645,2195 12408,2346 12206,2534 12044,2758 11931,3011 11869,3279 11856,3561 11892,3851 11973,4145 12097,4441 12218,4661 12361,4877 12526,5089 12712,5294 12918,5491 13144,5679 13388,5855 13649,6018 "
       id="polyline11158" />
  </g>
  <g
     style="fill:#C2C200; fill-opacity:0.0;  stroke:#C2C200; stroke-width:59.0551; stroke-opacity:1;  stroke-linecap:round; stroke-linejoin:round;"
     id="g11194">
    <path
       d="M10897.9 2730.58 A500 500 0.0 0 0 11397.9 3230.58 "
       id="path11162" />
    <path
       d="M11397.9 3230.58 A500 500 0.0 0 0 11897.9 2730.58 "
       id="path11164" />
    <path
       d="M11897.9 4330.58 A500 500 0.0 0 0 11397.9 3830.58 "
       id="path11166" />
    <path
       d="M11397.9 3830.58 A500 500 0.0 0 0 10897.9 4330.58 "
       id="path11168" />
    <path
       d="M6397.87 2730.58 A500 500 0.0 0 0 6897.87 3230.58 "
       id="path11170" />
    <path
       d="M6897.87 3230.58 A500 500 0.0 0 0 7397.87 2730.58 "
       id="path11172" />
    <path
       d="M7397.87 4330.58 A500 500 0.0 0 0 6897.87 3830.58 "
       id="path11174" />
    <path
       d="M6897.87 3830.58 A500 500 0.0 0 0 6397.87 4330.58 "
       id="path11176" />
    <path
       d="M5290.69 5597.57 A500 500 0.0 0 0 5107.68 6280.58 "
       id="path11178" />
    <path
       d="M5107.68 6280.58 A500 500 0.0 0 0 5790.69 6463.59 "
       id="path11180" />
    <path
       d="M4405.05 7263.59 A500 500 0.0 0 0 4588.06 6580.58 "
       id="path11182" />
    <path
       d="M4588.06 6580.58 A500 500 0.0 0 0 3905.05 6397.57 "
       id="path11184" />
    <path
       d="M12505 6463.59 A500 500 0.0 0 0 13188.1 6280.58 "
       id="path11186" />
    <path
       d="M13188.1 6280.58 A500 500 0.0 0 0 13005 5597.57 "
       id="path11188" />
    <path
       d="M14390.7 6397.57 A500 500 0.0 0 0 13707.7 6580.58 "
       id="path11190" />
    <path
       d="M13707.7 6580.58 A500 500 0.0 0 0 13890.7 7263.59 "
       id="path11192" />
  </g>
  <g
     style="fill:#C2C200;fill-opacity:1;stroke:none;stroke-width:0;stroke-opacity:1;stroke-linecap:round;stroke-linejoin:round"
     id="g11200">
    <path
       style="fill-rule:evenodd;stroke:none"
       d="m 9147,5740 v 80 l 611,21 593,60 573,98 549,134 521,167 492,199 460,229 423,256 503,381 427,422 344,456 254,488 157,514 54,535 -54,535 -157,514 -254,488 -344,457 -427,421 -503,381 -423,256 -460,229 -492,199 -521,168 -549,133 -573,98 -593,61 -611,20 -610,-20 -593,-61 -573,-98 -548,-133 -522,-168 -491,-199 -459,-229 -424,-256 -503,-381 -427,-421 -344,-457 -255,-488 -157,-514 -55,-535 55,-535 157,-514 255,-488 344,-456 427,-422 503,-381 424,-256 459,-229 491,-199 522,-167 548,-134 573,-98 593,-60 610,-21 v -80 l -616,21 -598,61 -578,99 -554,135 -527,170 -498,202 -464,232 -429,260 -511,387 -435,429 -352,467 -260,499 -161,528 -56,550 56,550 161,528 260,499 352,467 435,429 511,388 429,260 464,231 498,202 527,170 554,135 578,99 598,61 616,21 617,-21 598,-61 578,-99 554,-135 527,-170 497,-202 465,-231 429,-260 511,-388 435,-429 351,-467 261,-499 161,-528 56,-550 -56,-550 -161,-528 -261,-499 -351,-467 -435,-429 -511,-387 -429,-260 -465,-232 -497,-202 -527,-170 -554,-135 -578,-99 -598,-61 -617,-21"
       id="polyline11196" />
    <polyline
       style="fill-rule:evenodd;stroke:none"
       points="2626,2519 2646,2554 2915,2410 3187,2288 3459,2187 3730,2108 3998,2050 4261,2013 4517,1997 4765,2002 5078,2041 5368,2117 5631,2229 5863,2377 6060,2560 6217,2778 6327,3023 6387,3285 6399,3560 6365,3844 6285,4133 6163,4424 6043,4640 5902,4854 5738,5063 5554,5266 5350,5461 5127,5647 4885,5821 4626,5983 4356,6127 4084,6249 3812,6350 3541,6429 3273,6487 3011,6523 2755,6539 2507,6534 2194,6495 1904,6419 1640,6307 1408,6160 1212,5977 1054,5758 944,5513 884,5251 872,4977 907,4693 987,4403 1109,4113 1228,3896 1370,3682 1533,3473 1717,3270 1921,3075 2145,2889 2386,2715 2646,2554 2626,2519 2364,2682 2120,2858 1895,3045 1689,3242 1503,3448 1338,3659 1195,3876 1074,4096 949,4391 868,4686 833,4976 845,5257 907,5526 1020,5778 1182,6003 1384,6190 1621,6342 1890,6456 2186,6533 2504,6573 2755,6578 3014,6563 3280,6526 3551,6467 3824,6387 4099,6286 4374,6163 4646,6018 4907,5855 5151,5679 5376,5491 5582,5294 5768,5089 5933,4877 6077,4661 6197,4441 6322,4145 6403,3851 6438,3561 6426,3279 6364,3011 6251,2758 6089,2534 5887,2346 5650,2195 5381,2081 5085,2003 4767,1963 4516,1958 4257,1974 3991,2011 3721,2069 3447,2149 3172,2251 2898,2374 2626,2519 "
       id="polyline11198" />
  </g>
  <path
     style="color:#000000;font-style:normal;font-variant:normal;font-weight:normal;font-stretch:normal;font-size:medium;line-height:normal;font-family:sans-serif;font-variant-ligatures:normal;font-variant-position:normal;font-variant-caps:normal;font-variant-numeric:normal;font-variant-alternates:normal;font-feature-settings:normal;text-indent:0;text-align:start;text-decoration:none;text-decoration-line:none;text-decoration-style:solid;text-decoration-color:#000000;letter-spacing:normal;word-spacing:normal;text-transform:none;writing-mode:lr-tb;direction:ltr;text-orientation:mixed;dominant-baseline:auto;baseline-shift:baseline;text-anchor:start;white-space:normal;shape-padding:0;clip-rule:nonzero;display:inline;overflow:visible;visibility:visible;opacity:1;isolation:auto;mix-blend-mode:normal;color-interpolation:sRGB;color-interpolation-filters:linearRGB;solid-color:#000000;solid-opacity:1;vector-effect:none;fill:#00ff00;fill-opacity:1;fill-rule:evenodd;stroke:none;stroke-width:39.36998749;stroke-linecap:butt;stroke-linejoin:round;stroke-miterlimit:4;stroke-dasharray:none;stroke-dashoffset:0;stroke-opacity:1;color-rendering:auto;image-rendering:auto;shape-rendering:auto;text-rendering:auto;enable-background:accumulate"
     d="m 9147,5908.3486 c -1688.549,0 -3217.176,441.562 -4325.316,1156.4933 -1108.141,714.9274 -1797.025,1705.0784 -1797.025,2800.4974 0,1095.4197 688.884,2085.5707 1797.025,2800.4977 1108.14,714.932 2636.767,1156.494 4325.316,1156.494 1688.547,0 3217.173,-441.562 4325.316,-1156.494 1108.139,-714.927 1797.024,-1705.078 1797.024,-2800.4977 0,-1095.419 -688.885,-2085.57 -1797.024,-2800.4974 C 12364.173,6349.9106 10835.547,5908.3486 9147,5908.3486 Z m 0,39.9842 c 1681.685,0 3204.079,439.5895 4304.552,1149.5721 1100.478,709.9864 1777.804,1688.5074 1777.804,2767.4344 0,1078.9277 -677.326,2057.4487 -1777.804,2767.4357 -1100.473,709.982 -2622.867,1149.572 -4304.552,1149.572 -1681.685,0 -3204.08,-439.59 -4304.555,-1149.572 -1100.475,-709.987 -1777.801,-1688.508 -1777.801,-2767.4357 0,-1078.927 677.326,-2057.448 1777.801,-2767.4344 C 5942.92,6387.9223 7465.315,5948.3328 9147,5948.3328 Z"
     id="path10106"
     inkscape:connector-curvature="0" />
</svg>
