<?xml version="1.0" standalone="no"?>
 <!DOCTYPE svg PUBLIC "-//W3C//DTD SVG 1.1//EN" 
 "http://www.w3.org/Graphics/SVG/1.1/DTD/svg11.dtd"> 
<svg xmlns="http://www.w3.org/2000/svg" version="1.1" 
    width="20.8636cm" height="14.9454cm" viewBox="0 0 82140 58840 ">
<title>SVG Picture created as tutorial2-brd.svg date 2018/05/17 10:45:05 </title>
  <desc>Picture generated by PCBNEW </desc>
<g style="fill:#000000; fill-opacity:1;stroke:#000000; stroke-opacity:1;
stroke-linecap:round; stroke-linejoin:round; "
 transform="translate(0 0) scale(1 1)">
</g>
<g style="fill:#000000; fill-opacity:0.0; 
stroke:#000000; stroke-width:-0.000393701; stroke-opacity:1; 
stroke-linecap:round; stroke-linejoin:round;">
</g>
<g style="fill:#008484; fill-opacity:0.0; 
stroke:#008484; stroke-width:-0.000393701; stroke-opacity:1; 
stroke-linecap:round; stroke-linejoin:round;">
</g>
<g style="fill:#008484; fill-opacity:0.0; 
stroke:#008484; stroke-width:59.0551; stroke-opacity:1; 
stroke-linecap:round; stroke-linejoin:round;">
<path d="M6322 12355
L4997 11580
" />
<path d="M11972 12405
L13297 11580
" />
<path d="M6312.87 12355.6 A1025.91 1025.91 0.0 0 0 7762.87 12305.6 " />
<path d="M10527.9 12355.6 A1025.91 1025.91 0.0 0 0 11977.9 12405.6 " />
<path d="M10547.9 12355.6 A1980.21 1980.21 0.0 0 0 7747.87 12305.6 " />
<path d="M12147 6680
L13297 8005
" />
<path d="M4997 7980
L6172 6655
" />
<path d="M6147 6680
L12147 6680
" />
<path d="M4997 11580
L4997 7980
" />
<path d="M13297 11580
L13297 7980
" />
<path d="M7647 5680
L7647 3880
" />
<path d="M10647 5680
L10647 3880
" />
<path d="M10647 5680
L7647 5680
" />
<path d="M7647 3880
L10647 3880
" />
</g>
<g style="fill:#008484; fill-opacity:0.0; 
stroke:#008484; stroke-width:100; stroke-opacity:1; 
stroke-linecap:round; stroke-linejoin:round;">
<path d="M15710 3605
L15970 3755
" />
<path d="M14584 2955
L14325 2805
" />
<path d="M14759 2652
L14709 2739
" />
<path d="M14759 2652
L15885 3302
" />
<path d="M15885 3302
L15535 3908
" />
<path d="M15535 3908
L14409 3258
" />
<path d="M14409 3258
L14709 2739
" />
<path d="M2584 3605
L2325 3755
" />
<path d="M3710 2955
L3970 2805
" />
<path d="M3885 3258
L3835 3172
" />
<path d="M3885 3258
L2759 3908
" />
<path d="M2759 3908
L2409 3302
" />
<path d="M2409 3302
L3535 2652
" />
<path d="M3535 2652
L3835 3172
" />
</g>
<g style="fill:#008484; fill-opacity:0.0; 
stroke:#008484; stroke-width:47.2441; stroke-opacity:1; 
stroke-linecap:round; stroke-linejoin:round;">
<path d="M4474.48 5721.33 A1177.17 1177.17 0.0 0 0 3908.84 3524.84 " />
<path d="M2855.4 4133.04 A1177.17 1177.17 0.0 0 0 4474.8 5721.15 " />
<circle cx="3886.06" cy="4701.78" r="984.252" /> 
<path d="M3908 3524
L2855 4133
" />
<path d="M13820.9 5721.15 A1177.17 1177.17 0.0 0 0 15440.3 4133.04 " />
<path d="M14386.9 3524.84 A1177.17 1177.17 0.0 0 0 13821.3 5721.33 " />
<circle cx="14409.7" cy="4701.78" r="984.252" /> 
<path d="M15440 4133
L14386 3524
" />
</g>
<g style="fill:#C2C200; fill-opacity:0.0; 
stroke:#C2C200; stroke-width:47.2441; stroke-opacity:1; 
stroke-linecap:round; stroke-linejoin:round;">
</g>
<g style="fill:#C2C200; fill-opacity:0.0; 
stroke:#C2C200; stroke-width:59.0551; stroke-opacity:1; 
stroke-linecap:round; stroke-linejoin:round;">
<path d="M8622 3639
L8679 3658
L8772 3658
L8810 3639
L8829 3621
L8847 3583
L8847 3546
L8829 3508
L8810 3489
L8772 3471
L8697 3452
L8660 3433
L8641 3414
L8622 3377
L8622 3339
L8641 3302
L8660 3283
L8697 3264
L8791 3264
L8847 3283
" />
<path d="M8979 3264
L9072 3658
L9147 3377
L9222 3658
L9316 3264
" />
<path d="M9672 3658
L9447 3658
" />
<path d="M9560 3658
L9560 3264
L9522 3321
L9485 3358
L9447 3377
" />
</g>
<g style="fill:#008484; fill-opacity:0.0; 
stroke:#008484; stroke-width:59.0551; stroke-opacity:1; 
stroke-linecap:round; stroke-linejoin:round;">
<path d="M14831 3303
L14636 3191
" />
<path d="M14734 3247
L14930 2906
L14870 2936
L14819 2950
L14777 2947
" />
<path d="M15239 3084
L15271 3103
L15295 3138
L15301 3163
L15299 3205
L15278 3279
L15231 3361
L15177 3416
L15142 3439
L15116 3446
L15075 3444
L15042 3425
L15019 3390
L15012 3364
L15015 3323
L15036 3248
L15083 3167
L15136 3111
L15171 3088
L15197 3081
L15239 3084
" />
<path d="M15564 3271
L15596 3290
L15619 3325
L15626 3351
L15624 3393
L15602 3467
L15555 3548
L15502 3604
L15467 3627
L15441 3634
L15399 3631
L15367 3612
L15344 3577
L15337 3552
L15339 3510
L15361 3436
L15407 3354
L15461 3299
L15496 3276
L15522 3269
L15564 3271
" />
<path d="M3009 3566
L2814 3678
" />
<path d="M2912 3622
L2715 3281
L2711 3348
L2697 3400
L2674 3435
" />
<path d="M3023 3103
L3056 3084
L3098 3081
L3123 3088
L3158 3111
L3212 3167
L3259 3248
L3280 3323
L3283 3364
L3276 3390
L3253 3425
L3220 3444
L3178 3446
L3153 3439
L3118 3416
L3064 3361
L3017 3279
L2996 3205
L2993 3163
L3000 3138
L3023 3103
" />
<path d="M3348 2915
L3381 2897
L3422 2894
L3448 2901
L3483 2924
L3537 2980
L3584 3061
L3605 3135
L3607 3177
L3600 3202
L3577 3237
L3545 3256
L3503 3259
L3477 3252
L3442 3229
L3389 3173
L3342 3092
L3321 3018
L3318 2976
L3325 2950
L3348 2915
" />
</g>
<g style="fill:#C2C200; fill-opacity:0.0; 
stroke:#C2C200; stroke-width:59.0551; stroke-opacity:1; 
stroke-linecap:round; stroke-linejoin:round;">
<path d="M4936 3759
L5277 3562
L5324 3643
L5336 3702
L5322 3753
L5299 3788
L5244 3841
L5195 3870
L5120 3891
L5079 3893
L5027 3880
L4983 3840
L4936 3759
" />
<path d="M5432 3906
L5458 3913
L5493 3936
L5540 4017
L5542 4059
L5535 4084
L5512 4119
L5480 4138
L5422 4150
L5114 4068
L5236 4279
" />
<path d="M15768 5822
L15427 5625
L15474 5543
L15519 5504
L15570 5490
L15612 5493
L15686 5514
L15735 5542
L15790 5596
L15813 5631
L15827 5682
L15815 5740
L15768 5822
" />
<path d="M16068 5302
L15956 5497
" />
<path d="M16012 5399
L15671 5203
L15701 5263
L15715 5314
L15712 5356
" />
</g>
<g style="fill:#000000; fill-opacity:0.0; 
stroke:#000000; stroke-width:59.0551; stroke-opacity:1; 
stroke-linecap:round; stroke-linejoin:round;">
</g>
<g style="fill:#C2C200; fill-opacity:0.0; 
stroke:#C2C200; stroke-width:59.0551; stroke-opacity:1; 
stroke-linecap:round; stroke-linejoin:round;">
<path d="M7397 4280
L7397 5780
" />
<path d="M10897 4280
L10897 5780
" />
<path d="M10897 2280
L10897 2780
" />
<path d="M7647 2030
L10647 2030
" />
<path d="M7397 2780
L7397 2280
" />
<path d="M10897.9 2280.58 A250 250 0.0 0 0 10647.9 2030.58 " />
<path d="M7647.87 2030.58 A250 250 0.0 0 0 7397.87 2280.58 " />
</g>
<g style="fill:#C2C200; fill-opacity:1.0; 
stroke:#C2C200; stroke-width:0; stroke-opacity:1; 
stroke-linecap:round; stroke-linejoin:round;">
<polyline style="fill-rule:evenodd;"
points="13649,6018
13669,5983
13410,5821
13168,5647
12945,5461
12740,5266
12556,5063
12393,4854
12251,4640
12132,4424
12010,4133
11930,3844
11895,3560
11907,3285
11968,3023
12078,2778
12235,2560
12432,2377
12664,2229
12927,2117
13217,2041
13530,2002
13778,1997
14034,2013
14296,2050
14564,2108
14835,2187
15108,2288
15380,2410
15649,2554
15909,2715
16150,2889
16374,3075
16578,3270
16762,3473
16925,3682
17066,3896
17185,4113
17308,4403
17388,4693
17423,4977
17411,5251
17351,5513
17240,5758
17083,5977
16886,6160
16654,6307
16391,6419
16101,6495
15788,6534
15540,6539
15284,6523
15022,6487
14754,6429
14483,6350
14211,6249
13939,6127
13669,5983
13649,6018
13921,6163
14196,6286
14470,6387
14744,6467
15015,6526
15281,6563
15540,6578
15791,6573
16109,6533
16405,6456
16673,6342
16911,6190
17113,6003
17274,5778
17388,5526
17450,5257
17462,4976
17426,4686
17345,4391
17221,4096
17100,3876
16957,3659
16792,3448
16606,3242
16400,3045
16175,2858
15931,2682
15669,2519
15397,2374
15123,2251
14848,2149
14574,2069
14303,2011
14038,1974
13778,1958
13528,1963
13210,2003
12914,2081
12645,2195
12408,2346
12206,2534
12044,2758
11931,3011
11869,3279
11856,3561
11892,3851
11973,4145
12097,4441
12218,4661
12361,4877
12526,5089
12712,5294
12918,5491
13144,5679
13388,5855
13649,6018
" /> 
</g>
<g style="fill:#C2C200; fill-opacity:0.0; 
stroke:#C2C200; stroke-width:59.0551; stroke-opacity:1; 
stroke-linecap:round; stroke-linejoin:round;">
<path d="M10897.9 2730.58 A500 500 0.0 0 0 11397.9 3230.58 " />
<path d="M11397.9 3230.58 A500 500 0.0 0 0 11897.9 2730.58 " />
<path d="M11897.9 4330.58 A500 500 0.0 0 0 11397.9 3830.58 " />
<path d="M11397.9 3830.58 A500 500 0.0 0 0 10897.9 4330.58 " />
<path d="M6397.87 2730.58 A500 500 0.0 0 0 6897.87 3230.58 " />
<path d="M6897.87 3230.58 A500 500 0.0 0 0 7397.87 2730.58 " />
<path d="M7397.87 4330.58 A500 500 0.0 0 0 6897.87 3830.58 " />
<path d="M6897.87 3830.58 A500 500 0.0 0 0 6397.87 4330.58 " />
<path d="M5290.69 5597.57 A500 500 0.0 0 0 5107.68 6280.58 " />
<path d="M5107.68 6280.58 A500 500 0.0 0 0 5790.69 6463.59 " />
<path d="M4405.05 7263.59 A500 500 0.0 0 0 4588.06 6580.58 " />
<path d="M4588.06 6580.58 A500 500 0.0 0 0 3905.05 6397.57 " />
<path d="M12505 6463.59 A500 500 0.0 0 0 13188.1 6280.58 " />
<path d="M13188.1 6280.58 A500 500 0.0 0 0 13005 5597.57 " />
<path d="M14390.7 6397.57 A500 500 0.0 0 0 13707.7 6580.58 " />
<path d="M13707.7 6580.58 A500 500 0.0 0 0 13890.7 7263.59 " />
</g>
<g style="fill:#C2C200; fill-opacity:1.0; 
stroke:#C2C200; stroke-width:0; stroke-opacity:1; 
stroke-linecap:round; stroke-linejoin:round;">
<polyline style="fill-rule:evenodd;"
points="9147,5740
9147,5820
9758,5841
10351,5901
10924,5999
11473,6133
11994,6300
12486,6499
12946,6728
13369,6984
13872,7365
14299,7787
14643,8243
14897,8731
15054,9245
15108,9780
15054,10315
14897,10829
14643,11317
14299,11774
13872,12195
13369,12576
12946,12832
12486,13061
11994,13260
11473,13428
10924,13561
10351,13659
9758,13720
9147,13740
8537,13720
7944,13659
7371,13561
6823,13428
6301,13260
5810,13061
5351,12832
4927,12576
4424,12195
3997,11774
3653,11317
3398,10829
3241,10315
3186,9780
3241,9245
3398,8731
3653,8243
3997,7787
4424,7365
4927,6984
5351,6728
5810,6499
6301,6300
6823,6133
7371,5999
7944,5901
8537,5841
9147,5820
9147,5740
8531,5761
7933,5822
7355,5921
6801,6056
6274,6226
5776,6428
5312,6660
4883,6920
4372,7307
3937,7736
3585,8203
3325,8702
3164,9230
3108,9780
3164,10330
3325,10858
3585,11357
3937,11824
4372,12253
4883,12641
5312,12901
5776,13132
6274,13334
6801,13504
7355,13639
7933,13738
8531,13799
9147,13820
9764,13799
10362,13738
10940,13639
11494,13504
12021,13334
12518,13132
12983,12901
13412,12641
13923,12253
14358,11824
14709,11357
14970,10858
15131,10330
15187,9780
15131,9230
14970,8702
14709,8203
14358,7736
13923,7307
13412,6920
12983,6660
12518,6428
12021,6226
11494,6056
10940,5921
10362,5822
9764,5761
9147,5740
" /> 
<polyline style="fill-rule:evenodd;"
points="2626,2519
2646,2554
2915,2410
3187,2288
3459,2187
3730,2108
3998,2050
4261,2013
4517,1997
4765,2002
5078,2041
5368,2117
5631,2229
5863,2377
6060,2560
6217,2778
6327,3023
6387,3285
6399,3560
6365,3844
6285,4133
6163,4424
6043,4640
5902,4854
5738,5063
5554,5266
5350,5461
5127,5647
4885,5821
4626,5983
4356,6127
4084,6249
3812,6350
3541,6429
3273,6487
3011,6523
2755,6539
2507,6534
2194,6495
1904,6419
1640,6307
1408,6160
1212,5977
1054,5758
944,5513
884,5251
872,4977
907,4693
987,4403
1109,4113
1228,3896
1370,3682
1533,3473
1717,3270
1921,3075
2145,2889
2386,2715
2646,2554
2626,2519
2364,2682
2120,2858
1895,3045
1689,3242
1503,3448
1338,3659
1195,3876
1074,4096
949,4391
868,4686
833,4976
845,5257
907,5526
1020,5778
1182,6003
1384,6190
1621,6342
1890,6456
2186,6533
2504,6573
2755,6578
3014,6563
3280,6526
3551,6467
3824,6387
4099,6286
4374,6163
4646,6018
4907,5855
5151,5679
5376,5491
5582,5294
5768,5089
5933,4877
6077,4661
6197,4441
6322,4145
6403,3851
6438,3561
6426,3279
6364,3011
6251,2758
6089,2534
5887,2346
5650,2195
5381,2081
5085,2003
4767,1963
4516,1958
4257,1974
3991,2011
3721,2069
3447,2149
3172,2251
2898,2374
2626,2519
" /> 
</g> 
</svg>
