<?xml version="1.0" encoding="UTF-8" standalone="no"?>
<svg
   xmlns:dc="http://purl.org/dc/elements/1.1/"
   xmlns:cc="http://creativecommons.org/ns#"
   xmlns:rdf="http://www.w3.org/1999/02/22-rdf-syntax-ns#"
   xmlns:svg="http://www.w3.org/2000/svg"
   xmlns="http://www.w3.org/2000/svg"
   xmlns:sodipodi="http://sodipodi.sourceforge.net/DTD/sodipodi-0.dtd"
   xmlns:inkscape="http://www.inkscape.org/namespaces/inkscape"
   version="1.1"
   width="20.8636cm"
   height="14.9454cm"
   viewBox="0 0 82140 58840 "
   id="svg4723"
   sodipodi:docname="tutorial2-brd.svg"
   inkscape:version="0.92.3 (2405546, 2018-03-11)">
  <metadata
     id="metadata4729">
    <rdf:RDF>
      <cc:Work
         rdf:about="">
        <dc:format>image/svg+xml</dc:format>
        <dc:type
           rdf:resource="http://purl.org/dc/dcmitype/StillImage" />
        <dc:title>SVG Picture created as tutorial2-brd.svg date 2018/05/17 10:45:05 </dc:title>
      </cc:Work>
    </rdf:RDF>
  </metadata>
  <defs
     id="defs4727" />
  <sodipodi:namedview
     pagecolor="#ffffff"
     bordercolor="#666666"
     borderopacity="1"
     objecttolerance="10"
     gridtolerance="10"
     guidetolerance="10"
     inkscape:pageopacity="0"
     inkscape:pageshadow="2"
     inkscape:window-width="1394"
     inkscape:window-height="818"
     id="namedview4725"
     showgrid="true"
     inkscape:snap-others="false"
     inkscape:snap-grids="false"
     inkscape:snap-to-guides="true"
     inkscape:zoom="12.5"
     inkscape:cx="92.640487"
     inkscape:cy="514.62979"
     inkscape:window-x="276"
     inkscape:window-y="81"
     inkscape:window-maximized="0"
     inkscape:current-layer="svg4723">
    <inkscape:grid
       type="xygrid"
       id="grid5280"
       units="mm"
       spacingx="393.69987"
       spacingy="393.69987" />
  </sodipodi:namedview>
  <title
     id="title4531">SVG Picture created as tutorial2-brd.svg date 2018/05/17 10:45:05 </title>
  <desc
     id="desc4533">Picture generated by PCBNEW </desc>
  <g
     style="fill:#000000; fill-opacity:1;stroke:#000000; stroke-opacity:1; stroke-linecap:round; stroke-linejoin:round; "
     transform="translate(0 0) scale(1 1)"
     id="g4535" />
  <g
     style="fill:#000000; fill-opacity:0.0;  stroke:#000000; stroke-width:-0.000393701; stroke-opacity:1;  stroke-linecap:round; stroke-linejoin:round;"
     id="g4537" />
  <g
     style="fill:#008484; fill-opacity:0.0;  stroke:#008484; stroke-width:-0.000393701; stroke-opacity:1;  stroke-linecap:round; stroke-linejoin:round;"
     id="g4539" />
  <g
     style="fill:#008484; fill-opacity:0.0;  stroke:#008484; stroke-width:59.0551; stroke-opacity:1;  stroke-linecap:round; stroke-linejoin:round;"
     id="g4569">
    <path
       d="M6322 12355 L4997 11580 "
       id="path4541" />
    <path
       d="M11972 12405 L13297 11580 "
       id="path4543" />
    <path
       d="M6312.87 12355.6 A1025.91 1025.91 0.0 0 0 7762.87 12305.6 "
       id="path4545" />
    <path
       d="M10527.9 12355.6 A1025.91 1025.91 0.0 0 0 11977.9 12405.6 "
       id="path4547" />
    <path
       d="M10547.9 12355.6 A1980.21 1980.21 0.0 0 0 7747.87 12305.6 "
       id="path4549" />
    <path
       d="M12147 6680 L13297 8005 "
       id="path4551" />
    <path
       d="M4997 7980 L6172 6655 "
       id="path4553" />
    <path
       d="M6147 6680 L12147 6680 "
       id="path4555" />
    <path
       d="M4997 11580 L4997 7980 "
       id="path4557" />
    <path
       d="M13297 11580 L13297 7980 "
       id="path4559" />
    <path
       d="M7647 5680 L7647 3880 "
       id="path4561" />
    <path
       d="M10647 5680 L10647 3880 "
       id="path4563" />
    <path
       d="M10647 5680 L7647 5680 "
       id="path4565" />
    <path
       d="M7647 3880 L10647 3880 "
       id="path4567" />
  </g>
  <g
     style="fill:#008484; fill-opacity:0.0;  stroke:#008484; stroke-width:100; stroke-opacity:1;  stroke-linecap:round; stroke-linejoin:round;"
     id="g4599">
    <path
       d="M15710 3605 L15970 3755 "
       id="path4571" />
    <path
       d="M14584 2955 L14325 2805 "
       id="path4573" />
    <path
       d="M14759 2652 L14709 2739 "
       id="path4575" />
    <path
       d="M14759 2652 L15885 3302 "
       id="path4577" />
    <path
       d="M15885 3302 L15535 3908 "
       id="path4579" />
    <path
       d="M15535 3908 L14409 3258 "
       id="path4581" />
    <path
       d="M14409 3258 L14709 2739 "
       id="path4583" />
    <path
       d="M2584 3605 L2325 3755 "
       id="path4585" />
    <path
       d="M3710 2955 L3970 2805 "
       id="path4587" />
    <path
       d="M3885 3258 L3835 3172 "
       id="path4589" />
    <path
       d="M3885 3258 L2759 3908 "
       id="path4591" />
    <path
       d="M2759 3908 L2409 3302 "
       id="path4593" />
    <path
       d="M2409 3302 L3535 2652 "
       id="path4595" />
    <path
       d="M3535 2652 L3835 3172 "
       id="path4597" />
  </g>
  <g
     style="fill:#008484; fill-opacity:0.0;  stroke:#008484; stroke-width:47.2441; stroke-opacity:1;  stroke-linecap:round; stroke-linejoin:round;"
     id="g4617">
    <path
       d="M4474.48 5721.33 A1177.17 1177.17 0.0 0 0 3908.84 3524.84 "
       id="path4601" />
    <path
       d="M2855.4 4133.04 A1177.17 1177.17 0.0 0 0 4474.8 5721.15 "
       id="path4603" />
    <circle
       cx="3886.06"
       cy="4701.78"
       r="984.252"
       id="circle4605" />
    <path
       d="M3908 3524 L2855 4133 "
       id="path4607" />
    <path
       d="M13820.9 5721.15 A1177.17 1177.17 0.0 0 0 15440.3 4133.04 "
       id="path4609" />
    <path
       d="M14386.9 3524.84 A1177.17 1177.17 0.0 0 0 13821.3 5721.33 "
       id="path4611" />
    <circle
       cx="14409.7"
       cy="4701.78"
       r="984.252"
       id="circle4613" />
    <path
       d="M15440 4133 L14386 3524 "
       id="path4615" />
  </g>
  <g
     style="fill:#C2C200; fill-opacity:0.0;  stroke:#C2C200; stroke-width:47.2441; stroke-opacity:1;  stroke-linecap:round; stroke-linejoin:round;"
     id="g4619" />
  <g
     style="fill:#C2C200; fill-opacity:0.0;  stroke:#C2C200; stroke-width:59.0551; stroke-opacity:1;  stroke-linecap:round; stroke-linejoin:round;"
     id="g4629">
    <path
       d="M8622 3639 L8679 3658 L8772 3658 L8810 3639 L8829 3621 L8847 3583 L8847 3546 L8829 3508 L8810 3489 L8772 3471 L8697 3452 L8660 3433 L8641 3414 L8622 3377 L8622 3339 L8641 3302 L8660 3283 L8697 3264 L8791 3264 L8847 3283 "
       id="path4621" />
    <path
       d="M8979 3264 L9072 3658 L9147 3377 L9222 3658 L9316 3264 "
       id="path4623" />
    <path
       d="M9672 3658 L9447 3658 "
       id="path4625" />
    <path
       d="M9560 3658 L9560 3264 L9522 3321 L9485 3358 L9447 3377 "
       id="path4627" />
  </g>
  <g
     style="fill:#008484; fill-opacity:0.0;  stroke:#008484; stroke-width:59.0551; stroke-opacity:1;  stroke-linecap:round; stroke-linejoin:round;"
     id="g4647">
    <path
       d="M14831 3303 L14636 3191 "
       id="path4631" />
    <path
       d="M14734 3247 L14930 2906 L14870 2936 L14819 2950 L14777 2947 "
       id="path4633" />
    <path
       d="M15239 3084 L15271 3103 L15295 3138 L15301 3163 L15299 3205 L15278 3279 L15231 3361 L15177 3416 L15142 3439 L15116 3446 L15075 3444 L15042 3425 L15019 3390 L15012 3364 L15015 3323 L15036 3248 L15083 3167 L15136 3111 L15171 3088 L15197 3081 L15239 3084 "
       id="path4635" />
    <path
       d="M15564 3271 L15596 3290 L15619 3325 L15626 3351 L15624 3393 L15602 3467 L15555 3548 L15502 3604 L15467 3627 L15441 3634 L15399 3631 L15367 3612 L15344 3577 L15337 3552 L15339 3510 L15361 3436 L15407 3354 L15461 3299 L15496 3276 L15522 3269 L15564 3271 "
       id="path4637" />
    <path
       d="M3009 3566 L2814 3678 "
       id="path4639" />
    <path
       d="M2912 3622 L2715 3281 L2711 3348 L2697 3400 L2674 3435 "
       id="path4641" />
    <path
       d="M3023 3103 L3056 3084 L3098 3081 L3123 3088 L3158 3111 L3212 3167 L3259 3248 L3280 3323 L3283 3364 L3276 3390 L3253 3425 L3220 3444 L3178 3446 L3153 3439 L3118 3416 L3064 3361 L3017 3279 L2996 3205 L2993 3163 L3000 3138 L3023 3103 "
       id="path4643" />
    <path
       d="M3348 2915 L3381 2897 L3422 2894 L3448 2901 L3483 2924 L3537 2980 L3584 3061 L3605 3135 L3607 3177 L3600 3202 L3577 3237 L3545 3256 L3503 3259 L3477 3252 L3442 3229 L3389 3173 L3342 3092 L3321 3018 L3318 2976 L3325 2950 L3348 2915 "
       id="path4645" />
  </g>
  <g
     style="fill:#C2C200; fill-opacity:0.0;  stroke:#C2C200; stroke-width:59.0551; stroke-opacity:1;  stroke-linecap:round; stroke-linejoin:round;"
     id="g4659">
    <path
       d="M4936 3759 L5277 3562 L5324 3643 L5336 3702 L5322 3753 L5299 3788 L5244 3841 L5195 3870 L5120 3891 L5079 3893 L5027 3880 L4983 3840 L4936 3759 "
       id="path4649" />
    <path
       d="M5432 3906 L5458 3913 L5493 3936 L5540 4017 L5542 4059 L5535 4084 L5512 4119 L5480 4138 L5422 4150 L5114 4068 L5236 4279 "
       id="path4651" />
    <path
       d="M15768 5822 L15427 5625 L15474 5543 L15519 5504 L15570 5490 L15612 5493 L15686 5514 L15735 5542 L15790 5596 L15813 5631 L15827 5682 L15815 5740 L15768 5822 "
       id="path4653" />
    <path
       d="M16068 5302 L15956 5497 "
       id="path4655" />
    <path
       d="M16012 5399 L15671 5203 L15701 5263 L15715 5314 L15712 5356 "
       id="path4657" />
  </g>
  <g
     style="fill:#000000; fill-opacity:0.0;  stroke:#000000; stroke-width:59.0551; stroke-opacity:1;  stroke-linecap:round; stroke-linejoin:round;"
     id="g4661" />
  <g
     style="fill:#C2C200; fill-opacity:0.0;  stroke:#C2C200; stroke-width:59.0551; stroke-opacity:1;  stroke-linecap:round; stroke-linejoin:round;"
     id="g4677">
    <path
       d="m 7397,4280 v 1500 c -37.1169,79.4385 -80.8966,152.2143 -183.6663,165.9999 L 6801,6056 l -527,170 -498,202 c -114.8415,66.3035 -251.3183,84.271 -379.4074,49.9501 -128.089,-34.321 -237.298,-118.1192 -303.6026,-232.9601"
       id="path4663"
       inkscape:connector-curvature="0"
       sodipodi:nodetypes="ccccccsc" />
    <path
       d="m 10897,4280 v 1500 c 10.516,112.9682 64.067,139.8652 118,165.9999 l 479,110.0001 527,170 497,202 c 114.85,66.332 238.348,119.9056 366.459,85.5833 128.111,-34.3223 237.336,-118.138 303.641,-233.0033"
       id="path4665"
       inkscape:connector-curvature="0"
       sodipodi:nodetypes="ccccccsc" />
    <path
       d="M10897 2280 L10897 2780 "
       id="path4667" />
    <path
       d="M7647 2030 L10647 2030 "
       id="path4669" />
    <path
       d="M7397 2780 L7397 2280 "
       id="path4671" />
    <path
       d="M10897.9 2280.58 A250 250 0.0 0 0 10647.9 2030.58 "
       id="path4673" />
    <path
       d="M7647.87 2030.58 A250 250 0.0 0 0 7397.87 2280.58 "
       id="path4675" />
  </g>
  <g
     style="fill:#C2C200; fill-opacity:0.0;  stroke:#C2C200; stroke-width:59.0551; stroke-opacity:1;  stroke-linecap:round; stroke-linejoin:round;"
     id="g4715">
    <path
       d="M10897.9 2730.58 A500 500 0.0 0 0 11397.9 3230.58 "
       id="path4683" />
    <path
       d="M11397.9 3230.58 A500 500 0.0 0 0 11897.9 2730.58 "
       id="path4685" />
    <path
       d="M11897.9 4330.58 A500 500 0.0 0 0 11397.9 3830.58 "
       id="path4687" />
    <path
       d="M11397.9 3830.58 A500 500 0.0 0 0 10897.9 4330.58 "
       id="path4689" />
    <path
       d="M6397.87 2730.58 A500 500 0.0 0 0 6897.87 3230.58 "
       id="path4691" />
    <path
       d="M6897.87 3230.58 A500 500 0.0 0 0 7397.87 2730.58 "
       id="path4693" />
    <path
       d="M7397.87 4330.58 A500 500 0.0 0 0 6897.87 3830.58 "
       id="path4695" />
    <path
       d="M6897.87 3830.58 A500 500 0.0 0 0 6397.87 4330.58 "
       id="path4697" />
    <path
       d="m 4588.06,6539.9957 c -66.3046,-114.8409 -175.5136,-198.6391 -303.6026,-232.9601 -128.0891,-34.3209 -289.43,-46.2104 -404.2715,20.0931 -93.2014,31.6009 -186.6548,59.5732 -279.9878,83.8201 -356.3227,92.5689 -710.8883,130.8388 -1042.9594,109.4226 -664.1423,-42.8327 -1183.9039,-320.9015 -1444.9431,-773.0348 -261.03929,-452.1332 -241.97321,-1041.2944 53.0038,-1637.8748 294.9771,-596.5804 841.7021,-1151.7112 1519.9019,-1543.2701 678.1999,-391.5588 1432.3198,-587.4712 2096.4621,-544.6386 664.1423,42.8326 1183.9039,320.9015 1444.9431,773.0347 261.0393,452.1333 241.9732,1041.2944 -53.0038,1637.8749 -191.3344,386.9669 -488.5884,756.4945 -878.2705,1102.386 -134.1731,93.4359 -217.9713,202.6449 -252.2923,330.7339 -34.3209,128.0891 -16.3534,264.5659 49.9501,379.4074"
       id="path4705"
       inkscape:connector-curvature="0"
       sodipodi:nodetypes="cscsssssssscsc" />
    <path
       d="m 13188.1,6280.58 c 66.296,-114.8524 84.25,-251.3374 49.912,-379.4278 -34.339,-128.0903 -122.758,-293.8348 -237.614,-360.1243 -355.777,-312.4853 -641.67,-672.0027 -827.573,-1047.9837 -294.977,-596.5804 -314.043,-1185.7415 -53.004,-1637.8748 261.04,-452.1332 780.801,-730.2023 1444.944,-773.0348 664.142,-42.8325 1418.262,153.0798 2096.462,544.6388 678.2,391.559 1224.925,946.6897 1519.902,1543.2702 294.977,596.5805 314.043,1185.7416 53.004,1637.8748 -261.039,452.1333 -780.801,730.2024 -1444.943,773.0348 -421.343,27.1734 -878.9,-41.7436 -1330.311,-195.747 -114.84,-66.3003 -319.494,-71.9023 -447.581,-37.5815 -128.086,34.3209 -237.293,118.1171 -303.598,232.9553"
       id="path4709"
       inkscape:connector-curvature="0"
       sodipodi:nodetypes="cscssssssscsc" />
    <path
       d="m 13707.7,6580.58 c -66.304,114.8403 -84.273,251.3162 -49.954,379.4051 34.319,128.0889 150.415,280.7087 265.254,347.0149 l 435,429 351,467 261,499 161,528 56,550 -56,550 -161,528 -261,499 -351,467 -435,429 -511,388 -429,260 -465,231 -497,202 -527,170 -554,135 -578,99 -598,61 -617,21 -616,-21 -598,-61 -578,-99 -554,-135 -527,-170 -498,-202 -464,-231 -429,-260 -511,-388 -435,-429 -352,-467 -260,-499 -161,-528 -56,-550 56,-550 161,-528 260,-499 352,-467 463.4151,-476.9422 c 143.2561,-114.2468 203.274,-211.5657 237.595,-339.6547 34.3209,-128.0891 16.3534,-264.5659 -49.9501,-379.4074"
       id="path4713"
       inkscape:connector-curvature="0"
       sodipodi:nodetypes="cscccccccccccccccccccccccccccccccccccccccsc" />
  </g>
  <g
     style="fill:#C2C200;fill-opacity:1;stroke:#C2C200;stroke-width:10.41664235;stroke-opacity:1;stroke-linecap:round;stroke-linejoin:round"
     id="g4721" />
</svg>
