G04 #@! TF.FileFunction,Soldermask,Top*
%FSLAX46Y46*%
G04 Gerber Fmt 4.6, Leading zero omitted, Abs format (unit mm)*
G04 Created by KiCad (PCBNEW 4.0.4-stable) date 07/26/17 21:16:26*
%MOMM*%
%LPD*%
G01*
G04 APERTURE LIST*
%ADD10C,0.100000*%
%ADD11R,0.650000X1.700000*%
%ADD12R,0.600000X0.700000*%
%ADD13R,0.600000X0.600000*%
%ADD14R,1.000000X0.797560*%
%ADD15R,1.300000X1.198880*%
%ADD16R,1.700000X1.800860*%
%ADD17R,0.700000X0.900000*%
%ADD18R,1.100000X1.700000*%
%ADD19R,0.900000X1.300000*%
%ADD20R,0.280000X0.430000*%
G04 APERTURE END LIST*
D10*
G36*
X216649236Y-98449393D02*
X217780607Y-99580764D01*
X216649236Y-100712135D01*
X215517865Y-99580764D01*
X216649236Y-98449393D01*
X216649236Y-98449393D01*
G37*
G36*
X214134764Y-100963865D02*
X215266135Y-102095236D01*
X214134764Y-103226607D01*
X213003393Y-102095236D01*
X214134764Y-100963865D01*
X214134764Y-100963865D01*
G37*
D11*
X215011000Y-96360000D03*
X216281000Y-96360000D03*
X217551000Y-96360000D03*
X218821000Y-96360000D03*
X218821000Y-89060000D03*
X217551000Y-89060000D03*
X216281000Y-89060000D03*
X215011000Y-89060000D03*
D12*
X208780000Y-101600000D03*
X207680000Y-101600000D03*
D13*
X204870000Y-101600000D03*
X203970000Y-101600000D03*
D14*
X209169000Y-99060000D03*
X207391000Y-99060000D03*
D15*
X209423000Y-95885000D03*
X207010000Y-95885000D03*
D16*
X209804000Y-92075000D03*
X206629000Y-92075000D03*
D17*
X204724000Y-99060000D03*
X202819000Y-99060000D03*
D18*
X204343000Y-92075000D03*
X200914000Y-92075000D03*
D19*
X204343000Y-95885000D03*
X202057000Y-95885000D03*
D20*
X205995000Y-103505000D03*
X205485000Y-103505000D03*
X208025000Y-103505000D03*
X208535000Y-103505000D03*
M02*
