<?xml version="1.0" encoding="UTF-8" standalone="no"?>
<svg
   xmlns:dc="http://purl.org/dc/elements/1.1/"
   xmlns:cc="http://creativecommons.org/ns#"
   xmlns:rdf="http://www.w3.org/1999/02/22-rdf-syntax-ns#"
   xmlns:svg="http://www.w3.org/2000/svg"
   xmlns="http://www.w3.org/2000/svg"
   xmlns:sodipodi="http://sodipodi.sourceforge.net/DTD/sodipodi-0.dtd"
   xmlns:inkscape="http://www.inkscape.org/namespaces/inkscape"
   version="1.1"
   width="2.89052cm"
   height="2.8829cm"
   viewBox="0 0 11380 11350 "
   id="svg2"
   inkscape:version="0.91 r13725"
   sodipodi:docname="SMD_challenge mask.svg">
  <metadata
     id="metadata160">
    <rdf:RDF>
      <cc:Work
         rdf:about="">
        <dc:format>image/svg+xml</dc:format>
        <dc:type
           rdf:resource="http://purl.org/dc/dcmitype/StillImage" />
        <dc:title>SVG Picture created as base-brd.svg date 2017/07/26 21:06:41 </dc:title>
      </cc:Work>
    </rdf:RDF>
  </metadata>
  <defs
     id="defs158" />
  <sodipodi:namedview
     pagecolor="#ffffff"
     bordercolor="#666666"
     borderopacity="1"
     objecttolerance="10"
     gridtolerance="10"
     guidetolerance="10"
     inkscape:pageopacity="0"
     inkscape:pageshadow="2"
     inkscape:window-width="1304"
     inkscape:window-height="746"
     id="namedview156"
     showgrid="false"
     inkscape:zoom="6.5345942"
     inkscape:cx="51.210002"
     inkscape:cy="13.001762"
     inkscape:window-x="54"
     inkscape:window-y="-8"
     inkscape:window-maximized="1"
     inkscape:current-layer="g16" />
  <title
     id="title4">SVG Picture created as base-brd.svg date 2017/07/26 21:06:41 </title>
  <desc
     id="desc6">Picture generated by PCBNEW </desc>
  <g
     style="fill:#000000; fill-opacity:1;stroke:#000000; stroke-opacity:1; stroke-linecap:round; stroke-linejoin:round; "
     transform="translate(0 0) scale(1 1)"
     id="g8" />
  <g
     style="fill:#000000; fill-opacity:0.0;  stroke:#000000; stroke-width:-0.000393701; stroke-opacity:1;  stroke-linecap:round; stroke-linejoin:round;"
     id="g10" />
  <g
     style="fill:#840000; fill-opacity:0.0;  stroke:#840000; stroke-width:-0.000393701; stroke-opacity:1;  stroke-linecap:round; stroke-linejoin:round;"
     id="g12" />
  <g
     style="fill:#840000; fill-opacity:0.0;  stroke:#840000; stroke-width:0; stroke-opacity:1;  stroke-linecap:round; stroke-linejoin:round;"
     id="g14" />
  <g
     style="fill:#840000; fill-opacity:1.0;  stroke:#840000; stroke-width:0; stroke-opacity:1;  stroke-linecap:round; stroke-linejoin:round;"
     id="g16">
    <polyline
       style="fill-rule:evenodd;"
       points="2500,8059 2054,8505 2500,8950 2945,8505 2500,8059 "
       id="polyline18" />
    <polyline
       style="fill-rule:evenodd;"
       points="3490,9049 3044,9494 3490,9940 3935,9494 3490,9049 "
       id="polyline20" />
  </g>
  <g
     style="fill:#840000; fill-opacity:1.0;  stroke:#840000; stroke-width:39.3701; stroke-opacity:1;  stroke-linecap:round; stroke-linejoin:round;"
     id="g40" />
  <g
     style="fill:#840000; fill-opacity:1.0;  stroke:#840000; stroke-width:0; stroke-opacity:1;  stroke-linecap:round; stroke-linejoin:round;"
     id="g42">
    <polyline
       style="fill-rule:evenodd;"
       points="5480,9162 5480,9437 5716,9437 5716,9162 5480,9162 "
       id="polyline44" />
    <polyline
       style="fill-rule:evenodd;"
       points="5913,9162 5913,9437 6149,9437 6149,9162 5913,9162 "
       id="polyline46" />
    <polyline
       style="fill-rule:evenodd;"
       points="7019,9181 7019,9418 7255,9418 7255,9181 7019,9181 "
       id="polyline48" />
    <polyline
       style="fill-rule:evenodd;"
       points="7373,9181 7373,9418 7610,9418 7610,9181 7373,9181 "
       id="polyline50" />
    <polyline
       style="fill-rule:evenodd;"
       points="5248,8143 5248,8457 5642,8457 5642,8143 5248,8143 "
       id="polyline52" />
    <polyline
       style="fill-rule:evenodd;"
       points="5948,8143 5948,8457 6342,8457 6342,8143 5948,8143 "
       id="polyline54" />
    <polyline
       style="fill-rule:evenodd;"
       points="5089,6814 5089,7286 5601,7286 5601,6814 5089,6814 "
       id="polyline56" />
    <polyline
       style="fill-rule:evenodd;"
       points="6039,6814 6039,7286 6551,7286 6551,6814 6039,6814 "
       id="polyline58" />
    <polyline
       style="fill-rule:evenodd;"
       points="4860,5195 4860,5904 5529,5904 5529,5195 4860,5195 "
       id="polyline60" />
    <polyline
       style="fill-rule:evenodd;"
       points="6110,5195 6110,5904 6779,5904 6779,5195 6110,5195 "
       id="polyline62" />
    <polyline
       style="fill-rule:evenodd;"
       points="7057,8122 7057,8477 7333,8477 7333,8122 7057,8122 "
       id="polyline64" />
    <polyline
       style="fill-rule:evenodd;"
       points="7807,8122 7807,8477 8083,8477 8083,8122 7807,8122 "
       id="polyline66" />
    <polyline
       style="fill-rule:evenodd;"
       points="7128,5215 7128,5884 7561,5884 7561,5215 7128,5215 "
       id="polyline68" />
    <polyline
       style="fill-rule:evenodd;"
       points="8478,5215 8478,5884 8911,5884 8911,5215 8478,5215 "
       id="polyline70" />
    <polyline
       style="fill-rule:evenodd;"
       points="7168,6794 7168,7305 7522,7305 7522,6794 7168,6794 "
       id="polyline72" />
    <polyline
       style="fill-rule:evenodd;"
       points="8068,6794 8068,7305 8422,7305 8422,6794 8068,6794 "
       id="polyline74" />
  </g>
  <g
     style="fill:#840000; fill-opacity:1.0;  stroke:#840000; stroke-width:39.3701; stroke-opacity:1;  stroke-linecap:round; stroke-linejoin:round;"
     id="g78" />
  <g
     style="fill:#840000; fill-opacity:1.0;  stroke:#840000; stroke-width:629.921; stroke-opacity:1;  stroke-linecap:round; stroke-linejoin:round;"
     id="g80" />
  <g
     style="fill:#840000; fill-opacity:0.0;  stroke:#840000; stroke-width:0; stroke-opacity:1;  stroke-linecap:round; stroke-linejoin:round;"
     id="g86" />
  <g
     style="fill:#840000; fill-opacity:1.0;  stroke:#840000; stroke-width:629.921; stroke-opacity:1;  stroke-linecap:round; stroke-linejoin:round;"
     id="g92" />
  <g
     style="fill:#840000; fill-opacity:0.0;  stroke:#840000; stroke-width:0; stroke-opacity:1;  stroke-linecap:round; stroke-linejoin:round;"
     id="g104" />
  <g
     style="fill:#840000; fill-opacity:1.0;  stroke:#840000; stroke-width:0; stroke-opacity:1;  stroke-linecap:round; stroke-linejoin:round;"
     id="g106">
    <polyline
       style="fill-rule:evenodd;"
       points="6639,9965 6639,10134 6749,10134 6749,9965 6639,9965 "
       id="polyline108" />
    <polyline
       style="fill-rule:evenodd;"
       points="6840,9965 6840,10134 6950,10134 6950,9965 6840,9965 "
       id="polyline110" />
    <polyline
       style="fill-rule:evenodd;"
       points="5950,10134 5950,9965 5840,9965 5840,10134 5950,10134 "
       id="polyline112" />
    <polyline
       style="fill-rule:evenodd;"
       points="5749,10134 5749,9965 5639,9965 5639,10134 5749,10134 "
       id="polyline114" />
  </g>
  <g
     style="fill:#840000; fill-opacity:1.0;  stroke:#840000; stroke-width:39.3701; stroke-opacity:1;  stroke-linecap:round; stroke-linejoin:round;"
     id="g118" />
  <g
     style="fill:#840000; fill-opacity:1.0;  stroke:#840000; stroke-width:0; stroke-opacity:1;  stroke-linecap:round; stroke-linejoin:round;"
     id="g120" />
  <g
     style="fill:#840000; fill-opacity:1.0;  stroke:#840000; stroke-width:39.3701; stroke-opacity:1;  stroke-linecap:round; stroke-linejoin:round;"
     id="g124" />
  <g
     style="fill:#840000; fill-opacity:1.0;  stroke:#840000; stroke-width:0; stroke-opacity:1;  stroke-linecap:round; stroke-linejoin:round;"
     id="g126" />
  <g
     style="fill:#840000; fill-opacity:1.0;  stroke:#840000; stroke-width:39.3701; stroke-opacity:1;  stroke-linecap:round; stroke-linejoin:round;"
     id="g130" />
  <g
     style="fill:#840000; fill-opacity:1.0;  stroke:#840000; stroke-width:0; stroke-opacity:1;  stroke-linecap:round; stroke-linejoin:round;"
     id="g132" />
  <g
     style="fill:#840000; fill-opacity:1.0;  stroke:#840000; stroke-width:39.3701; stroke-opacity:1;  stroke-linecap:round; stroke-linejoin:round;"
     id="g136" />
  <g
     style="fill:#840000; fill-opacity:1.0;  stroke:#840000; stroke-width:300; stroke-opacity:1;  stroke-linecap:round; stroke-linejoin:round;"
     id="g138" />
  <g
     style="fill:#840000; fill-opacity:0.0;  stroke:#840000; stroke-width:200; stroke-opacity:1;  stroke-linecap:round; stroke-linejoin:round;"
     id="g150" />
</svg>
