%
M48
METRIC,000.000
T01C0.41
T02C0.51
T03C0.61
T04C0.71
T05C0.79
T06C0.99
T07C1.02
T08C1.09
T09C1.60
T10C3.00
T11C0.50
%
T01
X001353Y020097
X025747Y013400
X019353Y054097
X043747Y047400
X098646Y079902
X074252Y086600
T02
X019555Y028098
X020805Y028098
X022054Y028098
X026560Y028098
X027810Y028098
X029060Y028098
X030309Y028098
X034775Y028098
X036024Y028098
X040490Y028098
X041739Y028098
X046205Y028098
X047454Y028098
X054460Y028098
X055709Y028098
X060175Y028098
X061424Y028098
X037555Y062098
X038805Y062098
X040054Y062098
X044560Y062098
X045810Y062098
X047060Y062098
X048309Y062098
X052775Y062098
X054024Y062098
X058490Y062098
X059739Y062098
X064205Y062098
X065453Y062098
X072460Y062098
X073709Y062098
X078175Y062098
X079424Y062098
X080444Y071901
X079194Y071901
X077945Y071901
X073439Y071901
X072189Y071901
X070939Y071901
X069690Y071901
X065224Y071901
X063975Y071901
X059509Y071901
X058260Y071901
X053794Y071901
X052545Y071901
X045539Y071901
X044290Y071901
X039824Y071901
X038575Y071901
T03
X032087Y023018
X033357Y023018
X034627Y023018
X050087Y057018
X051357Y057018
X052627Y057018
X067912Y076981
X066642Y076981
X065372Y076981
T04
X013810Y007090
X013810Y002009
X016349Y009590
X016349Y001969
X018889Y009590
X018889Y001969
X019347Y024923
X019347Y022383
X021430Y009590
X021430Y001969
X024427Y024923
X024427Y022383
X039667Y022383
X039748Y024923
X044747Y022383
X044828Y024923
X047287Y002063
X047368Y004603
X052367Y002063
X052448Y004603
X054947Y024964
X054947Y019884
X054988Y012223
X060068Y012223
X031810Y041090
X031810Y036010
X034349Y043590
X034349Y035970
X036889Y043590
X036889Y035970
X037347Y058923
X037347Y056383
X039430Y043590
X039430Y035970
X042427Y058923
X042427Y056383
X057667Y056383
X057748Y058923
X062747Y056383
X062828Y058923
X065287Y036063
X065367Y038603
X070367Y036063
X070448Y038603
X072947Y058964
X072947Y053884
X072988Y046223
X078068Y046223
X086190Y092909
X086190Y097989
X083650Y090410
X083650Y098030
X081110Y090410
X081110Y098030
X080652Y075076
X080652Y077616
X078570Y090410
X078570Y098030
X075572Y075076
X075572Y077616
X060332Y077616
X060251Y075076
X055252Y077616
X055171Y075076
X052712Y097936
X052631Y095396
X047632Y097936
X047551Y095396
X045052Y075035
X045052Y080115
X045011Y087776
X039931Y087776
T05
X019387Y019843
X019387Y012223
X021927Y019843
X021927Y012223
X023919Y006635
X024467Y019843
X024467Y012223
X026459Y006635
X027007Y024923
X027007Y022424
X027007Y019843
X027007Y012223
X028999Y006635
X029547Y024923
X029547Y022424
X029547Y019843
X029547Y012223
X032087Y019843
X032087Y012223
X034627Y019843
X034627Y012223
X037167Y024923
X037167Y022424
X037167Y019843
X037167Y012223
X038917Y006635
X039707Y019843
X039707Y012223
X039748Y009683
X041457Y006635
X042247Y019843
X042247Y012223
X042247Y009683
X043997Y006635
X044787Y019843
X044787Y012223
X047327Y024885
X047327Y022383
X047327Y019843
X047327Y012223
X048597Y007143
X049867Y019843
X049867Y012223
X051097Y007143
X052407Y019843
X052407Y012223
X053919Y006635
X056459Y006635
X058999Y006635
X037387Y053843
X037387Y046223
X039927Y053843
X039927Y046223
X041919Y040635
X042467Y053843
X042467Y046223
X044459Y040635
X045007Y058923
X045007Y056424
X045007Y053843
X045007Y046223
X046999Y040635
X047547Y058923
X047547Y056424
X047547Y053843
X047547Y046223
X050087Y053843
X050087Y046223
X052627Y053843
X052627Y046223
X055167Y058923
X055167Y056424
X055167Y053843
X055167Y046223
X056917Y040635
X057707Y053843
X057707Y046223
X057748Y043683
X059457Y040635
X060247Y053843
X060247Y046223
X060247Y043683
X061997Y040635
X062787Y053843
X062787Y046223
X065327Y058885
X065327Y056383
X065327Y053843
X065327Y046223
X066597Y041143
X067867Y053843
X067867Y046223
X069097Y041143
X070407Y053843
X070407Y046223
X071919Y040635
X074459Y040635
X076999Y040635
X080612Y080156
X080612Y087776
X078072Y080156
X078072Y087776
X076080Y093364
X075532Y080156
X075532Y087776
X073540Y093364
X072992Y075076
X072992Y077575
X072992Y080156
X072992Y087776
X071000Y093364
X070452Y075076
X070452Y077575
X070452Y080156
X070452Y087776
X067912Y080156
X067912Y087776
X065372Y080156
X065372Y087776
X062832Y075076
X062832Y077575
X062832Y080156
X062832Y087776
X061082Y093364
X060292Y080156
X060292Y087776
X060251Y090316
X058542Y093364
X057752Y080156
X057752Y087776
X057752Y090316
X056002Y093364
X055212Y080156
X055212Y087776
X052672Y075114
X052672Y077616
X052672Y080156
X052672Y087776
X051402Y092856
X050132Y080156
X050132Y087776
X048902Y092856
X047592Y080156
X047592Y087776
X046080Y093364
X043540Y093364
X041000Y093364
T06
X010899Y025558
X016700Y025558
X021927Y017303
X021927Y014763
X024467Y017303
X024467Y014763
X027007Y017303
X027007Y014763
X030817Y009683
X033317Y009683
X035819Y009683
X044787Y009683
X047327Y009683
X049867Y009683
X052407Y009683
X054947Y009683
X057487Y009683
X028899Y059558
X034700Y059558
X039927Y051303
X039927Y048763
X042467Y051303
X042467Y048763
X045007Y051303
X045007Y048763
X048817Y043683
X051317Y043683
X053819Y043683
X062787Y043683
X065327Y043683
X067867Y043683
X070407Y043683
X072947Y043683
X075487Y043683
X089100Y074441
X083299Y074441
X078072Y082696
X078072Y085236
X075532Y082696
X075532Y085236
X072992Y082696
X072992Y085236
X069182Y090316
X066682Y090316
X064180Y090316
X055212Y090316
X052672Y090316
X050132Y090316
X047592Y090316
X045052Y090316
X042512Y090316
T07
X004147Y005873
X009227Y005873
X022147Y039873
X027227Y039873
X095852Y094126
X090772Y094126
T08
X008719Y022383
X008719Y012223
X026719Y056383
X026719Y046223
X091280Y077616
X091280Y087776
T09
X002552Y028733
X006052Y028733
X011569Y028733
X015069Y028733
X020552Y062733
X024052Y062733
X029569Y062733
X033069Y062733
X097447Y071266
X093947Y071266
X088430Y071266
X084930Y071266
T10
X009997Y034634
X050998Y024634
X027997Y068634
X068998Y058634
X090002Y065364
X049001Y075365
T11
X026896Y032250
X025896Y032250
X024896Y032250
X023896Y032250
X022896Y032250
X022775Y033750
X023775Y033750
X024775Y033750
X025775Y033750
X026775Y033750
X027775Y033750
X057896Y032250
X056896Y032250
X055896Y032250
X054896Y032250
X053896Y032250
X053775Y033750
X054775Y033750
X055775Y033750
X056775Y033750
X057775Y033750
X058775Y033750
X046896Y066250
X045896Y066250
X044896Y066250
X043896Y066250
X042896Y066250
X041896Y066250
X041763Y067750
X042763Y067750
X043763Y067750
X044763Y067750
X045763Y067750
X046763Y067750
X076896Y066250
X075896Y066250
X074896Y066250
X073896Y066250
X072896Y066250
X071896Y066250
X071763Y067750
X072763Y067750
X073763Y067750
X074763Y067750
X075763Y067750
X076763Y067750
M30