<?xml version="1.0" encoding="UTF-8" standalone="no"?>
<svg
   xmlns:dc="http://purl.org/dc/elements/1.1/"
   xmlns:cc="http://creativecommons.org/ns#"
   xmlns:rdf="http://www.w3.org/1999/02/22-rdf-syntax-ns#"
   xmlns:svg="http://www.w3.org/2000/svg"
   xmlns="http://www.w3.org/2000/svg"
   xmlns:sodipodi="http://sodipodi.sourceforge.net/DTD/sodipodi-0.dtd"
   xmlns:inkscape="http://www.inkscape.org/namespaces/inkscape"
   version="1.1"
   width="11.539220cm"
   height="2.842260cm"
   viewBox="0 0 45430 11190"
   id="svg246"
   sodipodi:docname="project-brd.svg"
   inkscape:version="1.0.2-2 (e86c870879, 2021-01-15)">
  <metadata
     id="metadata252">
    <rdf:RDF>
      <cc:Work
         rdf:about="">
        <dc:format>image/svg+xml</dc:format>
        <dc:type
           rdf:resource="http://purl.org/dc/dcmitype/StillImage" />
      </cc:Work>
    </rdf:RDF>
  </metadata>
  <defs
     id="defs250" />
  <sodipodi:namedview
     pagecolor="#ffffff"
     bordercolor="#666666"
     borderopacity="1"
     objecttolerance="10"
     gridtolerance="10"
     guidetolerance="10"
     inkscape:pageopacity="0"
     inkscape:pageshadow="2"
     inkscape:window-width="1522"
     inkscape:window-height="877"
     id="namedview248"
     showgrid="false"
     inkscape:zoom="7.3024639"
     inkscape:cx="40.400321"
     inkscape:cy="28.409502"
     inkscape:window-x="70"
     inkscape:window-y="-8"
     inkscape:window-maximized="1"
     inkscape:current-layer="svg246" />
  <title
     id="title2">SVG Picture created as project-brd.svg date 2022/03/30 21:49:07 </title>
  <desc
     id="desc4">Picture generated by PCBNEW </desc>
  <g
     style="fill:#000000; fill-opacity:1;stroke:#000000; stroke-opacity:1; stroke-linecap:round; stroke-linejoin:round;"
     transform="translate(0 0) scale(1 1)"
     id="g6" />
  <g
     id="g8"
     style="fill:#000000;fill-opacity:0;stroke:#000000;stroke-width:-0.000393701;stroke-linecap:round;stroke-linejoin:round;stroke-opacity:1"
     transform="translate(-2400.6084,-2340.0889)" />
  <g
     style="fill:#000000;fill-opacity:0;stroke:#000000;stroke-width:0;stroke-linecap:round;stroke-linejoin:round;stroke-opacity:1"
     id="g10"
     transform="translate(-2400.6084,-2340.0889)" />
  <g
     style="fill:none;fill-opacity:1;stroke:#000000;stroke-width:10.41666697;stroke-linecap:round;stroke-linejoin:round;stroke-opacity:1"
     id="g16"
     transform="translate(-2400.6084,-2340.0889)">
    <path
       style="fill:none;fill-opacity:1;fill-rule:evenodd;stroke:#000000;stroke-width:10.41666697;stroke-linecap:round;stroke-linejoin:round;stroke-opacity:1"
       d="m 4307.74,2595.14 v 511.82 h -275.59 v -511.82 z"
       id="path12" />
    <path
       style="fill:none;fill-opacity:1;fill-rule:evenodd;stroke:#000000;stroke-width:10.41666697;stroke-linecap:round;stroke-linejoin:round;stroke-opacity:1"
       d="m 5055.77,2595.14 v 511.82 h -275.59 v -511.82 z"
       id="path14" />
  </g>
  <g
     id="g18"
     style="fill:#000000;fill-opacity:0;stroke:#000000;stroke-width:-0.000393701;stroke-linecap:round;stroke-linejoin:round;stroke-opacity:1"
     transform="translate(-2400.6084,-2340.0889)" />
  <g
     style="fill:none;fill-opacity:1;stroke:#000000;stroke-width:10.41666697;stroke-linecap:round;stroke-linejoin:round;stroke-opacity:1"
     id="g24"
     transform="translate(-2400.6084,-2340.0889)">
    <path
       style="fill:none;fill-opacity:1;fill-rule:evenodd;stroke:#000000;stroke-width:10.41666697;stroke-linecap:round;stroke-linejoin:round;stroke-opacity:1"
       d="m 4307.74,3382.55 v 511.81 h -275.59 v -511.81 z"
       id="path20" />
    <path
       style="fill:none;fill-opacity:1;fill-rule:evenodd;stroke:#000000;stroke-width:10.41666697;stroke-linecap:round;stroke-linejoin:round;stroke-opacity:1"
       d="m 5055.77,3382.55 v 511.81 h -275.59 v -511.81 z"
       id="path22" />
  </g>
  <g
     id="g26"
     style="fill:#000000;fill-opacity:0;stroke:#000000;stroke-width:-0.000393701;stroke-linecap:round;stroke-linejoin:round;stroke-opacity:1"
     transform="translate(-2400.6084,-2340.0889)" />
  <g
     style="fill:none;fill-opacity:1;stroke:#000000;stroke-width:10.41666697;stroke-linecap:round;stroke-linejoin:round;stroke-opacity:1"
     id="g32"
     transform="translate(-2400.6084,-2340.0889)">
    <path
       style="fill:none;fill-opacity:1;fill-rule:evenodd;stroke:#000000;stroke-width:10.41666697;stroke-linecap:round;stroke-linejoin:round;stroke-opacity:1"
       d="m 9110.89,8815.62 v -511.81 h 275.59 v 511.81 z"
       id="path28" />
    <path
       style="fill:none;fill-opacity:1;fill-rule:evenodd;stroke:#000000;stroke-width:10.41666697;stroke-linecap:round;stroke-linejoin:round;stroke-opacity:1"
       d="m 8362.86,8815.62 v -511.81 h 275.59 v 511.81 z"
       id="path30" />
  </g>
  <g
     id="g34"
     style="fill:#000000;fill-opacity:0;stroke:#000000;stroke-width:-0.000393701;stroke-linecap:round;stroke-linejoin:round;stroke-opacity:1"
     transform="translate(-2400.6084,-2340.0889)" />
  <g
     style="fill:none;fill-opacity:1;stroke:#000000;stroke-width:10.41666697;stroke-linecap:round;stroke-linejoin:round;stroke-opacity:1"
     id="g40"
     transform="translate(-2400.6084,-2340.0889)">
    <path
       style="fill:none;fill-opacity:1;fill-rule:evenodd;stroke:#000000;stroke-width:10.41666697;stroke-linecap:round;stroke-linejoin:round;stroke-opacity:1"
       d="M 9110.89,8028.22 V 7516.4 h 275.59 v 511.82 z"
       id="path36" />
    <path
       style="fill:none;fill-opacity:1;fill-rule:evenodd;stroke:#000000;stroke-width:10.41666697;stroke-linecap:round;stroke-linejoin:round;stroke-opacity:1"
       d="M 8362.86,8028.22 V 7516.4 h 275.59 v 511.82 z"
       id="path38" />
  </g>
  <g
     id="g42"
     style="fill:#000000;fill-opacity:0;stroke:#000000;stroke-width:-0.000393701;stroke-linecap:round;stroke-linejoin:round;stroke-opacity:1"
     transform="translate(-2400.6084,-2340.0889)" />
  <g
     style="fill:none;fill-opacity:1;stroke:#000000;stroke-width:10.41666697;stroke-linecap:round;stroke-linejoin:round;stroke-opacity:1"
     id="g48"
     transform="translate(-2400.6084,-2340.0889)">
    <path
       style="fill:none;fill-opacity:1;fill-rule:evenodd;stroke:#000000;stroke-width:10.41666697;stroke-linecap:round;stroke-linejoin:round;stroke-opacity:1"
       d="m 9110.89,3303.81 v -511.82 h 275.59 v 511.82 z"
       id="path44" />
    <path
       style="fill:none;fill-opacity:1;fill-rule:evenodd;stroke:#000000;stroke-width:10.41666697;stroke-linecap:round;stroke-linejoin:round;stroke-opacity:1"
       d="m 8362.86,3303.81 v -511.82 h 275.59 v 511.82 z"
       id="path46" />
  </g>
  <g
     id="g50"
     style="fill:#000000;fill-opacity:0;stroke:#000000;stroke-width:-0.000393701;stroke-linecap:round;stroke-linejoin:round;stroke-opacity:1"
     transform="translate(-2400.6084,-2340.0889)" />
  <g
     style="fill:none;fill-opacity:1;stroke:#000000;stroke-width:10.41666697;stroke-linecap:round;stroke-linejoin:round;stroke-opacity:1"
     id="g56"
     transform="translate(-2400.6084,-2340.0889)">
    <path
       style="fill:none;fill-opacity:1;fill-rule:evenodd;stroke:#000000;stroke-width:10.41666697;stroke-linecap:round;stroke-linejoin:round;stroke-opacity:1"
       d="M 9110.89,4091.21 V 3579.4 h 275.59 v 511.81 z"
       id="path52" />
    <path
       style="fill:none;fill-opacity:1;fill-rule:evenodd;stroke:#000000;stroke-width:10.41666697;stroke-linecap:round;stroke-linejoin:round;stroke-opacity:1"
       d="M 8362.86,4091.21 V 3579.4 h 275.59 v 511.81 z"
       id="path54" />
  </g>
  <g
     id="g58"
     style="fill:#000000;fill-opacity:0;stroke:#000000;stroke-width:-0.000393701;stroke-linecap:round;stroke-linejoin:round;stroke-opacity:1"
     transform="translate(-2400.6084,-2340.0889)" />
  <g
     style="fill:none;fill-opacity:1;stroke:#000000;stroke-width:10.41666697;stroke-linecap:round;stroke-linejoin:round;stroke-opacity:1"
     id="g64"
     transform="translate(-2400.6084,-2340.0889)">
    <path
       style="fill:none;fill-opacity:1;fill-rule:evenodd;stroke:#000000;stroke-width:10.41666697;stroke-linecap:round;stroke-linejoin:round;stroke-opacity:1"
       d="m 7437.66,4465.22 h 511.81 v 275.59 h -511.81 z"
       id="path60" />
    <path
       style="fill:none;fill-opacity:1;fill-rule:evenodd;stroke:#000000;stroke-width:10.41666697;stroke-linecap:round;stroke-linejoin:round;stroke-opacity:1"
       d="m 7437.66,3717.19 h 511.81 v 275.59 h -511.81 z"
       id="path62" />
  </g>
  <g
     id="g66"
     style="fill:#000000;fill-opacity:0;stroke:#000000;stroke-width:-0.000393701;stroke-linecap:round;stroke-linejoin:round;stroke-opacity:1"
     transform="translate(-2400.6084,-2340.0889)" />
  <g
     style="fill:none;fill-opacity:1;stroke:#000000;stroke-width:10.41666697;stroke-linecap:round;stroke-linejoin:round;stroke-opacity:1"
     id="g72"
     transform="translate(-2400.6084,-2340.0889)">
    <path
       style="fill:none;fill-opacity:1;fill-rule:evenodd;stroke:#000000;stroke-width:10.41666697;stroke-linecap:round;stroke-linejoin:round;stroke-opacity:1"
       d="m 5370.73,8815.62 v -511.81 h 275.6 v 511.81 z"
       id="path68" />
    <path
       style="fill:none;fill-opacity:1;fill-rule:evenodd;stroke:#000000;stroke-width:10.41666697;stroke-linecap:round;stroke-linejoin:round;stroke-opacity:1"
       d="m 4622.7,8815.62 v -511.81 h 275.59 v 511.81 z"
       id="path70" />
  </g>
  <g
     id="g74"
     style="fill:#000000;fill-opacity:0;stroke:#000000;stroke-width:-0.000393701;stroke-linecap:round;stroke-linejoin:round;stroke-opacity:1"
     transform="translate(-2400.6084,-2340.0889)" />
  <g
     style="fill:none;fill-opacity:1;stroke:#000000;stroke-width:10.41666697;stroke-linecap:round;stroke-linejoin:round;stroke-opacity:1"
     id="g80"
     transform="translate(-2400.6084,-2340.0889)">
    <path
       style="fill:none;fill-opacity:1;fill-rule:evenodd;stroke:#000000;stroke-width:10.41666697;stroke-linecap:round;stroke-linejoin:round;stroke-opacity:1"
       d="m 5666.01,6827.43 h 511.81 v 275.59 h -511.81 z"
       id="path76" />
    <path
       style="fill:none;fill-opacity:1;fill-rule:evenodd;stroke:#000000;stroke-width:10.41666697;stroke-linecap:round;stroke-linejoin:round;stroke-opacity:1"
       d="m 5666.01,6079.4 h 511.81 v 275.59 h -511.81 z"
       id="path78" />
  </g>
  <g
     id="g82"
     style="fill:#000000;fill-opacity:0;stroke:#000000;stroke-width:-0.000393701;stroke-linecap:round;stroke-linejoin:round;stroke-opacity:1"
     transform="translate(-2400.6084,-2340.0889)" />
  <g
     id="g84"
     style="fill:#000000;fill-opacity:0;stroke:#000000;stroke-width:-0.000393701;stroke-linecap:round;stroke-linejoin:round;stroke-opacity:1"
     transform="translate(-2400.6084,-2340.0889)" />
  <g
     id="g86"
     style="fill:#000000;fill-opacity:0;stroke:#000000;stroke-width:-0.000393701;stroke-linecap:round;stroke-linejoin:round;stroke-opacity:1"
     transform="translate(-2400.6084,-2340.0889)" />
  <g
     id="g88"
     style="fill:#000000;fill-opacity:0;stroke:#000000;stroke-width:-0.000393701;stroke-linecap:round;stroke-linejoin:round;stroke-opacity:1"
     transform="translate(-2400.6084,-2340.0889)" />
  <g
     id="g98"
     style="fill:#000000;fill-opacity:0;stroke:#000000;stroke-width:-0.000393701;stroke-linecap:round;stroke-linejoin:round;stroke-opacity:1"
     transform="translate(-2400.6084,-2340.0889)" />
  <g
     id="g100"
     style="fill:#000000;fill-opacity:0;stroke:#000000;stroke-width:-0.000393701;stroke-linecap:round;stroke-linejoin:round;stroke-opacity:1"
     transform="translate(-2400.6084,-2340.0889)" />
  <g
     id="g102"
     style="fill:#000000;fill-opacity:0;stroke:#000000;stroke-width:-0.000393701;stroke-linecap:round;stroke-linejoin:round;stroke-opacity:1"
     transform="translate(-2400.6084,-2340.0889)" />
  <g
     style="fill:none;fill-opacity:1;stroke:#000000;stroke-width:10.41666697;stroke-linecap:round;stroke-linejoin:round;stroke-opacity:1"
     id="g108"
     transform="translate(-2400.6084,-2340.0889)">
    <path
       style="fill:none;fill-opacity:1;fill-rule:evenodd;stroke:#000000;stroke-width:10.41666697;stroke-linecap:round;stroke-linejoin:round;stroke-opacity:1"
       d="m 9996.72,4977.03 h 511.78 v 590.56 h -511.78 z"
       id="path104" />
    <path
       style="fill:none;fill-opacity:1;fill-rule:evenodd;stroke:#000000;stroke-width:10.41666697;stroke-linecap:round;stroke-linejoin:round;stroke-opacity:1"
       d="m 9996.72,6040.03 h 511.78 v 590.55 h -511.78 z"
       id="path106" />
  </g>
  <g
     id="g110"
     style="fill:#000000;fill-opacity:0;stroke:#000000;stroke-width:-0.000393701;stroke-linecap:round;stroke-linejoin:round;stroke-opacity:1"
     transform="translate(-2400.6084,-2340.0889)" />
  <g
     style="fill:none;fill-opacity:1;stroke:#000000;stroke-width:10.41666697;stroke-linecap:round;stroke-linejoin:round;stroke-opacity:1"
     id="g116"
     transform="translate(-2400.6084,-2340.0889)">
    <path
       style="fill:none;fill-opacity:1;fill-rule:evenodd;stroke:#000000;stroke-width:10.41666697;stroke-linecap:round;stroke-linejoin:round;stroke-opacity:1"
       d="m 4386.48,8303.81 v 511.81 h -590.55 v -511.81 z"
       id="path112" />
    <path
       style="fill:none;fill-opacity:1;fill-rule:evenodd;stroke:#000000;stroke-width:10.41666697;stroke-linecap:round;stroke-linejoin:round;stroke-opacity:1"
       d="m 3323.49,8303.81 v 511.81 h -590.55 v -511.81 z"
       id="path114" />
  </g>
  <g
     id="g118"
     style="fill:#000000;fill-opacity:0;stroke:#000000;stroke-width:-0.000393701;stroke-linecap:round;stroke-linejoin:round;stroke-opacity:1"
     transform="translate(-2400.6084,-2340.0889)" />
  <g
     style="fill:none;fill-opacity:1;stroke:#000000;stroke-width:10.41666697;stroke-linecap:round;stroke-linejoin:round;stroke-opacity:1"
     id="g124"
     transform="translate(-2400.6084,-2340.0889)">
    <path
       style="fill:none;fill-opacity:1;fill-rule:evenodd;stroke:#000000;stroke-width:10.41666697;stroke-linecap:round;stroke-linejoin:round;stroke-opacity:1"
       d="m 5823.49,4278.22 v -492.13 h 393.7 v 492.13 z"
       id="path120" />
    <path
       style="fill:none;fill-opacity:1;fill-rule:evenodd;stroke:#000000;stroke-width:10.41666697;stroke-linecap:round;stroke-linejoin:round;stroke-opacity:1"
       d="m 6610.89,4278.22 v -492.13 h 393.7 v 492.13 z"
       id="path122" />
  </g>
  <g
     id="g126"
     style="fill:#000000;fill-opacity:0;stroke:#000000;stroke-width:-0.000393701;stroke-linecap:round;stroke-linejoin:round;stroke-opacity:1"
     transform="translate(-2400.6084,-2340.0889)" />
  <g
     style="fill:none;fill-opacity:1;stroke:#000000;stroke-width:10.41666697;stroke-linecap:round;stroke-linejoin:round;stroke-opacity:1"
     id="g132"
     transform="translate(-2400.6084,-2340.0889)">
    <path
       style="fill:none;fill-opacity:1;fill-rule:evenodd;stroke:#000000;stroke-width:10.41666697;stroke-linecap:round;stroke-linejoin:round;stroke-opacity:1"
       d="m 6650.26,4967.19 v -295.27 h 314.96 v 295.27 z"
       id="path128" />
    <path
       style="fill:none;fill-opacity:1;fill-rule:evenodd;stroke:#000000;stroke-width:10.41666697;stroke-linecap:round;stroke-linejoin:round;stroke-opacity:1"
       d="m 6059.71,4967.19 v -295.27 h 314.96 v 295.27 z"
       id="path130" />
  </g>
  <g
     id="g134"
     style="fill:#000000;fill-opacity:0;stroke:#000000;stroke-width:-0.000393701;stroke-linecap:round;stroke-linejoin:round;stroke-opacity:1"
     transform="translate(-2400.6084,-2340.0889)" />
  <g
     style="fill:#000000;fill-opacity:1;stroke:#000000;stroke-width:0;stroke-linecap:round;stroke-linejoin:round;stroke-opacity:1"
     id="g184"
     transform="translate(-2400.6084,-2340.0889)">
    <path
       style="fill:#000000;fill-opacity:1;fill-rule:evenodd;stroke:#000000;stroke-width:0;stroke-linecap:round;stroke-linejoin:round;stroke-opacity:1"
       d="m 7653.82,5748.31 -1.12,3.69 -1.82,3.41 -2.45,2.98 -19.96,19.97 -2.98,2.44 -3.41,1.82 -3.69,1.12 -3.84,0.38 h -19.41 l -3.84,-0.38 -3.69,-1.12 -3.4,-1.82 -2.99,-2.44 -2.44,-2.99 -1.82,-3.4 -1.12,-3.69 -0.38,-3.84 v -275.59 l 0.38,-3.85 1.12,-3.69 1.82,-3.4 2.44,-2.98 2.99,-2.45 3.4,-1.82 3.69,-1.12 3.84,-0.38 h 39.37 l 3.84,0.38 3.7,1.12 3.4,1.82 2.98,2.45 2.45,2.98 1.82,3.4 1.12,3.69 0.38,3.85 v 255.62 z"
       id="path136" />
    <path
       style="fill:#000000;fill-opacity:1;fill-rule:evenodd;stroke:#000000;stroke-width:0;stroke-linecap:round;stroke-linejoin:round;stroke-opacity:1"
       d="m 7478.96,5469.26 1.91,0.28 1.88,0.47 1.82,0.65 1.74,0.82 1.66,1 1.55,1.15 1.43,1.3 1.3,1.43 1.15,1.55 0.99,1.66 0.83,1.74 0.65,1.82 0.47,1.87 0.28,1.92 0.1,1.93 v 275.59 l -0.1,1.93 -0.28,1.91 -0.47,1.87 -0.65,1.82 -0.83,1.75 -0.99,1.65 -1.15,1.55 -1.3,1.44 -1.43,1.29 -1.55,1.15 -1.66,1 -1.74,0.82 -1.82,0.65 -1.88,0.47 -1.91,0.29 -1.93,0.09 h -39.37 l -1.93,-0.09 -1.91,-0.29 -1.87,-0.47 -1.82,-0.65 -1.75,-0.82 -1.65,-1 -1.55,-1.15 -1.44,-1.29 -1.29,-1.44 -1.15,-1.55 -1,-1.65 -0.82,-1.75 -0.65,-1.82 -0.47,-1.87 -0.29,-1.91 -0.09,-1.93 v -275.59 l 0.09,-1.93 0.29,-1.92 0.47,-1.87 0.65,-1.82 0.82,-1.74 1,-1.66 1.15,-1.55 1.29,-1.43 1.44,-1.3 1.55,-1.15 1.65,-1 1.75,-0.82 1.82,-0.65 1.87,-0.47 1.91,-0.28 1.93,-0.1 h 39.37 z"
       id="path138" />
    <path
       style="fill:#000000;fill-opacity:1;fill-rule:evenodd;stroke:#000000;stroke-width:0;stroke-linecap:round;stroke-linejoin:round;stroke-opacity:1"
       d="m 7321.48,5469.26 1.91,0.28 1.88,0.47 1.82,0.65 1.74,0.82 1.66,1 1.55,1.15 1.43,1.3 1.3,1.43 1.15,1.55 0.99,1.66 0.83,1.74 0.65,1.82 0.47,1.87 0.28,1.92 0.1,1.93 v 275.59 l -0.1,1.93 -0.28,1.91 -0.47,1.87 -0.65,1.82 -0.83,1.75 -0.99,1.65 -1.15,1.55 -1.3,1.44 -1.43,1.29 -1.55,1.15 -1.66,1 -1.74,0.82 -1.82,0.65 -1.88,0.47 -1.91,0.29 -1.93,0.09 h -39.37 l -1.93,-0.09 -1.91,-0.29 -1.87,-0.47 -1.82,-0.65 -1.75,-0.82 -1.65,-1 -1.55,-1.15 -1.44,-1.29 -1.29,-1.44 -1.15,-1.55 -1,-1.65 -0.82,-1.75 -0.65,-1.82 -0.47,-1.87 -0.29,-1.91 -0.09,-1.93 v -275.59 l 0.09,-1.93 0.29,-1.92 0.47,-1.87 0.65,-1.82 0.82,-1.74 1,-1.66 1.15,-1.55 1.29,-1.43 1.44,-1.3 1.55,-1.15 1.65,-1 1.75,-0.82 1.82,-0.65 1.87,-0.47 1.91,-0.28 1.93,-0.1 h 39.37 z"
       id="path140" />
    <path
       style="fill:#000000;fill-opacity:1;fill-rule:evenodd;stroke:#000000;stroke-width:0;stroke-linecap:round;stroke-linejoin:round;stroke-opacity:1"
       d="m 7164,5469.26 1.91,0.28 1.88,0.47 1.82,0.65 1.74,0.82 1.66,1 1.55,1.15 1.43,1.3 1.3,1.43 1.15,1.55 0.99,1.66 0.83,1.74 0.65,1.82 0.47,1.87 0.28,1.92 0.1,1.93 v 275.59 l -0.1,1.93 -0.28,1.91 -0.47,1.87 -0.65,1.82 -0.83,1.75 -0.99,1.65 -1.15,1.55 -1.3,1.44 -1.43,1.29 -1.55,1.15 -1.66,1 -1.74,0.82 -1.82,0.65 -1.88,0.47 -1.91,0.29 -1.93,0.09 h -39.37 l -1.93,-0.09 -1.91,-0.29 -1.87,-0.47 -1.82,-0.65 -1.75,-0.82 -1.65,-1 -1.56,-1.15 -1.43,-1.29 -1.29,-1.44 -1.15,-1.55 -1,-1.65 -0.82,-1.75 -0.65,-1.82 -0.47,-1.87 -0.29,-1.91 -0.09,-1.93 v -275.59 l 0.09,-1.93 0.29,-1.92 0.47,-1.87 0.65,-1.82 0.82,-1.74 1,-1.66 1.15,-1.55 1.29,-1.43 1.43,-1.3 1.56,-1.15 1.65,-1 1.75,-0.82 1.82,-0.65 1.87,-0.47 1.91,-0.28 1.93,-0.1 h 39.37 z"
       id="path142" />
    <path
       style="fill:#000000;fill-opacity:1;fill-rule:evenodd;stroke:#000000;stroke-width:0;stroke-linecap:round;stroke-linejoin:round;stroke-opacity:1"
       d="m 7023.9,5768.28 -1.12,3.69 -1.82,3.4 -2.45,2.99 -2.98,2.44 -3.4,1.82 -3.7,1.12 -3.84,0.38 h -19.4 l -3.84,-0.38 -3.7,-1.12 -3.4,-1.82 -2.98,-2.44 -19.97,-19.97 -2.44,-2.98 -1.82,-3.41 -1.12,-3.69 -0.38,-3.84 v -255.62 l 0.38,-3.85 1.12,-3.69 1.82,-3.4 2.44,-2.98 2.99,-2.45 3.4,-1.82 3.69,-1.12 3.84,-0.38 h 39.37 l 3.84,0.38 3.7,1.12 3.4,1.82 2.98,2.45 2.45,2.98 1.82,3.4 1.12,3.69 0.38,3.85 v 275.59 z"
       id="path144" />
    <path
       style="fill:#000000;fill-opacity:1;fill-rule:evenodd;stroke:#000000;stroke-width:0;stroke-linecap:round;stroke-linejoin:round;stroke-opacity:1"
       d="m 6886.1,5906.07 -1.12,3.69 -1.82,3.41 -2.44,2.98 -2.99,2.45 -3.4,1.82 -3.69,1.12 -3.84,0.38 h -275.59 l -3.84,-0.38 -3.7,-1.12 -3.4,-1.82 -2.98,-2.45 -2.45,-2.98 -1.82,-3.41 -1.12,-3.69 -0.38,-3.84 v -39.37 l 0.38,-3.84 1.12,-3.69 1.82,-3.41 2.45,-2.98 2.98,-2.45 3.4,-1.82 3.7,-1.12 3.84,-0.37 h 255.62 l 3.84,0.37 3.7,1.12 3.4,1.82 2.98,2.45 19.97,19.97 2.44,2.98 1.82,3.4 1.12,3.7 0.38,3.84 v 19.4 z"
       id="path146" />
    <path
       style="fill:#000000;fill-opacity:1;fill-rule:evenodd;stroke:#000000;stroke-width:0;stroke-linecap:round;stroke-linejoin:round;stroke-opacity:1"
       d="m 6868.73,6000.75 1.91,0.28 1.87,0.47 1.82,0.65 1.75,0.83 1.65,0.99 1.56,1.15 1.43,1.3 1.29,1.43 1.15,1.55 1,1.66 0.82,1.75 0.66,1.82 0.46,1.87 0.29,1.91 0.09,1.93 v 39.37 l -0.09,1.93 -0.29,1.91 -0.46,1.88 -0.66,1.81 -0.82,1.75 -1,1.66 -1.15,1.55 -1.29,1.43 -1.43,1.3 -1.56,1.15 -1.65,0.99 -1.75,0.83 -1.82,0.65 -1.87,0.47 -1.91,0.28 -1.93,0.1 h -275.59 l -1.93,-0.1 -1.91,-0.28 -1.88,-0.47 -1.82,-0.65 -1.74,-0.83 -1.66,-0.99 -1.55,-1.15 -1.43,-1.3 -1.3,-1.43 -1.15,-1.55 -0.99,-1.66 -0.83,-1.75 -0.65,-1.81 -0.47,-1.88 -0.28,-1.91 -0.1,-1.93 v -39.37 l 0.1,-1.93 0.28,-1.91 0.47,-1.87 0.65,-1.82 0.83,-1.75 0.99,-1.66 1.15,-1.55 1.3,-1.43 1.43,-1.3 1.55,-1.15 1.66,-0.99 1.74,-0.83 1.82,-0.65 1.88,-0.47 1.91,-0.28 1.93,-0.09 h 275.59 z"
       id="path148" />
    <path
       style="fill:#000000;fill-opacity:1;fill-rule:evenodd;stroke:#000000;stroke-width:0;stroke-linecap:round;stroke-linejoin:round;stroke-opacity:1"
       d="m 6868.73,6158.23 1.91,0.28 1.87,0.47 1.82,0.66 1.75,0.82 1.65,0.99 1.56,1.15 1.43,1.3 1.29,1.43 1.15,1.56 1,1.65 0.82,1.75 0.66,1.82 0.46,1.87 0.29,1.91 0.09,1.93 v 39.37 l -0.09,1.93 -0.29,1.91 -0.46,1.88 -0.66,1.81 -0.82,1.75 -1,1.66 -1.15,1.55 -1.29,1.43 -1.43,1.3 -1.56,1.15 -1.65,0.99 -1.75,0.83 -1.82,0.65 -1.87,0.47 -1.91,0.28 -1.93,0.1 h -275.59 l -1.93,-0.1 -1.91,-0.28 -1.88,-0.47 -1.82,-0.65 -1.74,-0.83 -1.66,-0.99 -1.55,-1.15 -1.43,-1.3 -1.3,-1.43 -1.15,-1.55 -0.99,-1.66 -0.83,-1.75 -0.65,-1.81 -0.47,-1.88 -0.28,-1.91 -0.1,-1.93 v -39.37 l 0.1,-1.93 0.28,-1.91 0.47,-1.87 0.65,-1.82 0.83,-1.75 0.99,-1.65 1.15,-1.56 1.3,-1.43 1.43,-1.3 1.55,-1.15 1.66,-0.99 1.74,-0.82 1.82,-0.66 1.88,-0.47 1.91,-0.28 1.93,-0.09 h 275.59 z"
       id="path150" />
    <path
       style="fill:#000000;fill-opacity:1;fill-rule:evenodd;stroke:#000000;stroke-width:0;stroke-linecap:round;stroke-linejoin:round;stroke-opacity:1"
       d="m 6868.73,6315.71 1.91,0.29 1.87,0.46 1.82,0.66 1.75,0.82 1.65,0.99 1.56,1.16 1.43,1.29 1.29,1.43 1.15,1.56 1,1.65 0.82,1.75 0.66,1.82 0.46,1.87 0.29,1.91 0.09,1.93 v 39.37 l -0.09,1.93 -0.29,1.91 -0.46,1.88 -0.66,1.82 -0.82,1.74 -1,1.66 -1.15,1.55 -1.29,1.43 -1.43,1.3 -1.56,1.15 -1.65,0.99 -1.75,0.83 -1.82,0.65 -1.87,0.47 -1.91,0.28 -1.93,0.1 h -275.59 l -1.93,-0.1 -1.91,-0.28 -1.88,-0.47 -1.82,-0.65 -1.74,-0.83 -1.66,-0.99 -1.55,-1.15 -1.43,-1.3 -1.3,-1.43 -1.15,-1.55 -0.99,-1.66 -0.83,-1.74 -0.65,-1.82 -0.47,-1.88 -0.28,-1.91 -0.1,-1.93 v -39.37 l 0.1,-1.93 0.28,-1.91 0.47,-1.87 0.65,-1.82 0.83,-1.75 0.99,-1.65 1.15,-1.56 1.3,-1.43 1.43,-1.29 1.55,-1.16 1.66,-0.99 1.74,-0.82 1.82,-0.66 1.88,-0.46 1.91,-0.29 1.93,-0.09 h 275.59 z"
       id="path152" />
    <path
       style="fill:#000000;fill-opacity:1;fill-rule:evenodd;stroke:#000000;stroke-width:0;stroke-linecap:round;stroke-linejoin:round;stroke-opacity:1"
       d="m 6886.1,6516.03 -1.12,3.69 -1.82,3.4 -2.44,2.99 -19.97,19.96 -2.98,2.45 -3.4,1.82 -3.7,1.12 -3.84,0.38 h -255.62 l -3.84,-0.38 -3.7,-1.12 -3.4,-1.82 -2.98,-2.45 -2.45,-2.98 -1.82,-3.4 -1.12,-3.7 -0.38,-3.84 v -39.37 l 0.38,-3.84 1.12,-3.69 1.82,-3.4 2.45,-2.99 2.98,-2.45 3.4,-1.81 3.7,-1.12 3.84,-0.38 h 275.59 l 3.84,0.38 3.69,1.12 3.4,1.81 2.99,2.45 2.44,2.99 1.82,3.4 1.12,3.69 0.38,3.84 v 19.41 z"
       id="path154" />
    <path
       style="fill:#000000;fill-opacity:1;fill-rule:evenodd;stroke:#000000;stroke-width:0;stroke-linecap:round;stroke-linejoin:round;stroke-opacity:1"
       d="m 7023.9,6910.01 -1.12,3.69 -1.82,3.4 -2.45,2.99 -2.98,2.45 -3.4,1.81 -3.7,1.12 -3.84,0.38 h -39.37 l -3.84,-0.38 -3.69,-1.12 -3.4,-1.81 -2.99,-2.45 -2.44,-2.99 -1.82,-3.4 -1.12,-3.69 -0.38,-3.84 v -255.63 l 0.38,-3.84 1.12,-3.69 1.82,-3.4 2.44,-2.99 19.97,-19.96 2.98,-2.45 3.4,-1.82 3.7,-1.12 3.84,-0.38 h 19.4 l 3.84,0.38 3.7,1.12 3.4,1.82 2.98,2.45 2.45,2.98 1.82,3.4 1.12,3.7 0.38,3.84 v 275.59 z"
       id="path156" />
    <path
       style="fill:#000000;fill-opacity:1;fill-rule:evenodd;stroke:#000000;stroke-width:0;stroke-linecap:round;stroke-linejoin:round;stroke-opacity:1"
       d="m 7164,6610.99 1.91,0.28 1.88,0.47 1.82,0.65 1.74,0.83 1.66,0.99 1.55,1.15 1.43,1.3 1.3,1.43 1.15,1.55 0.99,1.66 0.83,1.74 0.65,1.82 0.47,1.88 0.28,1.91 0.1,1.93 v 275.59 l -0.1,1.93 -0.28,1.91 -0.47,1.87 -0.65,1.82 -0.83,1.75 -0.99,1.65 -1.15,1.56 -1.3,1.43 -1.43,1.3 -1.55,1.15 -1.66,0.99 -1.74,0.82 -1.82,0.66 -1.88,0.46 -1.91,0.29 -1.93,0.09 h -39.37 l -1.93,-0.09 -1.91,-0.29 -1.87,-0.46 -1.82,-0.66 -1.75,-0.82 -1.65,-0.99 -1.56,-1.15 -1.43,-1.3 -1.29,-1.43 -1.15,-1.56 -1,-1.65 -0.82,-1.75 -0.65,-1.82 -0.47,-1.87 -0.29,-1.91 -0.09,-1.93 v -275.59 l 0.09,-1.93 0.29,-1.91 0.47,-1.88 0.65,-1.82 0.82,-1.74 1,-1.66 1.15,-1.55 1.29,-1.43 1.43,-1.3 1.56,-1.15 1.65,-0.99 1.75,-0.83 1.82,-0.65 1.87,-0.47 1.91,-0.28 1.93,-0.1 h 39.37 z"
       id="path158" />
    <path
       style="fill:#000000;fill-opacity:1;fill-rule:evenodd;stroke:#000000;stroke-width:0;stroke-linecap:round;stroke-linejoin:round;stroke-opacity:1"
       d="m 7321.48,6610.99 1.91,0.28 1.88,0.47 1.82,0.65 1.74,0.83 1.66,0.99 1.55,1.15 1.43,1.3 1.3,1.43 1.15,1.55 0.99,1.66 0.83,1.74 0.65,1.82 0.47,1.88 0.28,1.91 0.1,1.93 v 275.59 l -0.1,1.93 -0.28,1.91 -0.47,1.87 -0.65,1.82 -0.83,1.75 -0.99,1.65 -1.15,1.56 -1.3,1.43 -1.43,1.3 -1.55,1.15 -1.66,0.99 -1.74,0.82 -1.82,0.66 -1.88,0.46 -1.91,0.29 -1.93,0.09 h -39.37 l -1.93,-0.09 -1.91,-0.29 -1.87,-0.46 -1.82,-0.66 -1.75,-0.82 -1.65,-0.99 -1.55,-1.15 -1.44,-1.3 -1.29,-1.43 -1.15,-1.56 -1,-1.65 -0.82,-1.75 -0.65,-1.82 -0.47,-1.87 -0.29,-1.91 -0.09,-1.93 v -275.59 l 0.09,-1.93 0.29,-1.91 0.47,-1.88 0.65,-1.82 0.82,-1.74 1,-1.66 1.15,-1.55 1.29,-1.43 1.44,-1.3 1.55,-1.15 1.65,-0.99 1.75,-0.83 1.82,-0.65 1.87,-0.47 1.91,-0.28 1.93,-0.1 h 39.37 z"
       id="path160" />
    <path
       style="fill:#000000;fill-opacity:1;fill-rule:evenodd;stroke:#000000;stroke-width:0;stroke-linecap:round;stroke-linejoin:round;stroke-opacity:1"
       d="m 7478.96,6610.99 1.91,0.28 1.88,0.47 1.82,0.65 1.74,0.83 1.66,0.99 1.55,1.15 1.43,1.3 1.3,1.43 1.15,1.55 0.99,1.66 0.83,1.74 0.65,1.82 0.47,1.88 0.28,1.91 0.1,1.93 v 275.59 l -0.1,1.93 -0.28,1.91 -0.47,1.87 -0.65,1.82 -0.83,1.75 -0.99,1.65 -1.15,1.56 -1.3,1.43 -1.43,1.3 -1.55,1.15 -1.66,0.99 -1.74,0.82 -1.82,0.66 -1.88,0.46 -1.91,0.29 -1.93,0.09 h -39.37 l -1.93,-0.09 -1.91,-0.29 -1.87,-0.46 -1.82,-0.66 -1.75,-0.82 -1.65,-0.99 -1.55,-1.15 -1.44,-1.3 -1.29,-1.43 -1.15,-1.56 -1,-1.65 -0.82,-1.75 -0.65,-1.82 -0.47,-1.87 -0.29,-1.91 -0.09,-1.93 v -275.59 l 0.09,-1.93 0.29,-1.91 0.47,-1.88 0.65,-1.82 0.82,-1.74 1,-1.66 1.15,-1.55 1.29,-1.43 1.44,-1.3 1.55,-1.15 1.65,-0.99 1.75,-0.83 1.82,-0.65 1.87,-0.47 1.91,-0.28 1.93,-0.1 h 39.37 z"
       id="path162" />
    <path
       style="fill:#000000;fill-opacity:1;fill-rule:evenodd;stroke:#000000;stroke-width:0;stroke-linecap:round;stroke-linejoin:round;stroke-opacity:1"
       d="m 7653.82,6910.01 -1.12,3.69 -1.82,3.4 -2.45,2.99 -2.98,2.45 -3.4,1.81 -3.7,1.12 -3.84,0.38 h -39.37 l -3.84,-0.38 -3.69,-1.12 -3.4,-1.81 -2.99,-2.45 -2.44,-2.99 -1.82,-3.4 -1.12,-3.69 -0.38,-3.84 v -275.59 l 0.38,-3.84 1.12,-3.7 1.82,-3.4 2.44,-2.98 2.99,-2.45 3.4,-1.82 3.69,-1.12 3.84,-0.38 h 19.41 l 3.84,0.38 3.69,1.12 3.41,1.82 2.98,2.45 19.96,19.96 2.45,2.99 1.82,3.4 1.12,3.69 0.38,3.84 v 255.63 z"
       id="path164" />
    <path
       style="fill:#000000;fill-opacity:1;fill-rule:evenodd;stroke:#000000;stroke-width:0;stroke-linecap:round;stroke-linejoin:round;stroke-opacity:1"
       d="m 8027.84,6535.99 -1.12,3.7 -1.82,3.4 -2.45,2.98 -2.98,2.45 -3.41,1.82 -3.69,1.12 -3.84,0.38 H 7752.9 l -3.84,-0.38 -3.69,-1.12 -3.4,-1.82 -2.98,-2.45 -19.97,-19.96 -2.45,-2.99 -1.82,-3.4 -1.12,-3.69 -0.38,-3.84 v -19.41 l 0.38,-3.84 1.12,-3.69 1.82,-3.4 2.45,-2.99 2.98,-2.45 3.41,-1.81 3.69,-1.12 3.84,-0.38 h 275.59 l 3.84,0.38 3.69,1.12 3.41,1.81 2.98,2.45 2.45,2.99 1.82,3.4 1.12,3.69 0.37,3.84 v 39.37 z"
       id="path166" />
    <path
       style="fill:#000000;fill-opacity:1;fill-rule:evenodd;stroke:#000000;stroke-width:0;stroke-linecap:round;stroke-linejoin:round;stroke-opacity:1"
       d="m 8010.46,6315.71 1.91,0.29 1.87,0.46 1.82,0.66 1.75,0.82 1.66,0.99 1.55,1.16 1.43,1.29 1.3,1.43 1.15,1.56 0.99,1.65 0.83,1.75 0.65,1.82 0.47,1.87 0.28,1.91 0.09,1.93 v 39.37 l -0.09,1.93 -0.28,1.91 -0.47,1.88 -0.65,1.82 -0.83,1.74 -0.99,1.66 -1.15,1.55 -1.3,1.43 -1.43,1.3 -1.55,1.15 -1.66,0.99 -1.75,0.83 -1.82,0.65 -1.87,0.47 -1.91,0.28 -1.93,0.1 h -275.59 l -1.93,-0.1 -1.91,-0.28 -1.87,-0.47 -1.82,-0.65 -1.75,-0.83 -1.66,-0.99 -1.55,-1.15 -1.43,-1.3 -1.3,-1.43 -1.15,-1.55 -0.99,-1.66 -0.83,-1.74 -0.65,-1.82 -0.47,-1.88 -0.28,-1.91 -0.1,-1.93 v -39.37 l 0.1,-1.93 0.28,-1.91 0.47,-1.87 0.65,-1.82 0.83,-1.75 0.99,-1.65 1.15,-1.56 1.3,-1.43 1.43,-1.29 1.55,-1.16 1.66,-0.99 1.75,-0.82 1.82,-0.66 1.87,-0.46 1.91,-0.29 1.93,-0.09 h 275.59 z"
       id="path168" />
    <path
       style="fill:#000000;fill-opacity:1;fill-rule:evenodd;stroke:#000000;stroke-width:0;stroke-linecap:round;stroke-linejoin:round;stroke-opacity:1"
       d="m 8010.46,6158.23 1.91,0.28 1.87,0.47 1.82,0.66 1.75,0.82 1.66,0.99 1.55,1.15 1.43,1.3 1.3,1.43 1.15,1.56 0.99,1.65 0.83,1.75 0.65,1.82 0.47,1.87 0.28,1.91 0.09,1.93 v 39.37 l -0.09,1.93 -0.28,1.91 -0.47,1.88 -0.65,1.81 -0.83,1.75 -0.99,1.66 -1.15,1.55 -1.3,1.43 -1.43,1.3 -1.55,1.15 -1.66,0.99 -1.75,0.83 -1.82,0.65 -1.87,0.47 -1.91,0.28 -1.93,0.1 h -275.59 l -1.93,-0.1 -1.91,-0.28 -1.87,-0.47 -1.82,-0.65 -1.75,-0.83 -1.66,-0.99 -1.55,-1.15 -1.43,-1.3 -1.3,-1.43 -1.15,-1.55 -0.99,-1.66 -0.83,-1.75 -0.65,-1.81 -0.47,-1.88 -0.28,-1.91 -0.1,-1.93 v -39.37 l 0.1,-1.93 0.28,-1.91 0.47,-1.87 0.65,-1.82 0.83,-1.75 0.99,-1.65 1.15,-1.56 1.3,-1.43 1.43,-1.3 1.55,-1.15 1.66,-0.99 1.75,-0.82 1.82,-0.66 1.87,-0.47 1.91,-0.28 1.93,-0.09 h 275.59 z"
       id="path170" />
    <path
       style="fill:#000000;fill-opacity:1;fill-rule:evenodd;stroke:#000000;stroke-width:0;stroke-linecap:round;stroke-linejoin:round;stroke-opacity:1"
       d="m 8010.46,6000.75 1.91,0.28 1.87,0.47 1.82,0.65 1.75,0.83 1.66,0.99 1.55,1.15 1.43,1.3 1.3,1.43 1.15,1.55 0.99,1.66 0.83,1.75 0.65,1.82 0.47,1.87 0.28,1.91 0.09,1.93 v 39.37 l -0.09,1.93 -0.28,1.91 -0.47,1.88 -0.65,1.81 -0.83,1.75 -0.99,1.66 -1.15,1.55 -1.3,1.43 -1.43,1.3 -1.55,1.15 -1.66,0.99 -1.75,0.83 -1.82,0.65 -1.87,0.47 -1.91,0.28 -1.93,0.1 h -275.59 l -1.93,-0.1 -1.91,-0.28 -1.87,-0.47 -1.82,-0.65 -1.75,-0.83 -1.66,-0.99 -1.55,-1.15 -1.43,-1.3 -1.3,-1.43 -1.15,-1.55 -0.99,-1.66 -0.83,-1.75 -0.65,-1.81 -0.47,-1.88 -0.28,-1.91 -0.1,-1.93 v -39.37 l 0.1,-1.93 0.28,-1.91 0.47,-1.87 0.65,-1.82 0.83,-1.75 0.99,-1.66 1.15,-1.55 1.3,-1.43 1.43,-1.3 1.55,-1.15 1.66,-0.99 1.75,-0.83 1.82,-0.65 1.87,-0.47 1.91,-0.28 1.93,-0.09 h 275.59 z"
       id="path172" />
    <path
       style="fill:#000000;fill-opacity:1;fill-rule:evenodd;stroke:#000000;stroke-width:0;stroke-linecap:round;stroke-linejoin:round;stroke-opacity:1"
       d="m 8027.84,5906.07 -1.12,3.69 -1.82,3.41 -2.45,2.98 -2.98,2.45 -3.41,1.82 -3.69,1.12 -3.84,0.38 h -275.59 l -3.84,-0.38 -3.69,-1.12 -3.41,-1.82 -2.98,-2.45 -2.45,-2.98 -1.82,-3.41 -1.12,-3.69 -0.38,-3.84 v -19.4 l 0.38,-3.84 1.12,-3.7 1.82,-3.4 2.45,-2.98 19.97,-19.97 2.98,-2.45 3.4,-1.82 3.69,-1.12 3.84,-0.37 h 255.63 l 3.84,0.37 3.69,1.12 3.41,1.82 2.98,2.45 2.45,2.98 1.82,3.41 1.12,3.69 0.37,3.84 v 39.37 z"
       id="path174" />
    <path
       style="fill:none;fill-opacity:1;fill-rule:evenodd;stroke:#000000;stroke-width:10.41666697;stroke-linecap:round;stroke-linejoin:round;stroke-opacity:1"
       d="m 7388.9936,6055.1567 6.59,0.98 6.46,1.62 6.28,2.25 6.02,2.85 5.72,3.42 5.35,3.97 4.94,4.48 4.48,4.94 3.97,5.35 3.42,5.72 2.85,6.02 2.25,6.28 1.62,6.46 0.98,6.59 0.32,6.66 v 135.83 l -0.32,6.65 -0.98,6.6 -1.62,6.46 -2.25,6.28 -2.85,6.02 -3.42,5.72 -3.97,5.35 -4.48,4.94 -4.94,4.47 -5.35,3.98 -5.72,3.42 -6.02,2.85 -6.28,2.25 -6.46,1.62 -6.59,0.97 -6.66,0.33 h -135.83 l -6.65,-0.33 -6.6,-0.97 -6.46,-1.62 -6.28,-2.25 -6.02,-2.85 -5.72,-3.42 -5.35,-3.98 -4.94,-4.47 -4.48,-4.94 -3.97,-5.35 -3.42,-5.72 -2.85,-6.02 -2.25,-6.28 -1.62,-6.46 -0.97,-6.6 -0.33,-6.65 v -135.83 l 0.33,-6.66 0.97,-6.59 1.62,-6.46 2.25,-6.28 2.85,-6.02 3.42,-5.72 3.97,-5.35 4.48,-4.94 4.94,-4.48 5.35,-3.97 5.72,-3.42 6.02,-2.85 6.28,-2.25 6.46,-1.62 6.6,-0.98 6.65,-0.32 h 135.83 z"
       id="path178" />
  </g>
  <g
     id="g186"
     style="fill:#000000;fill-opacity:0;stroke:#000000;stroke-width:-0.000393701;stroke-linecap:round;stroke-linejoin:round;stroke-opacity:1"
     transform="translate(-2400.6084,-2340.0889)" />
  <g
     id="g194"
     style="fill:#000000;fill-opacity:0;stroke:#000000;stroke-width:-0.000393701;stroke-linecap:round;stroke-linejoin:round;stroke-opacity:1"
     transform="translate(-2400.6084,-2340.0889)" />
  <g
     id="g202"
     style="fill:#000000;fill-opacity:0;stroke:#000000;stroke-width:-0.000393701;stroke-linecap:round;stroke-linejoin:round;stroke-opacity:1"
     transform="translate(-2400.6084,-2340.0889)" />
  <g
     style="fill:none;fill-opacity:1;stroke:#000000;stroke-width:10.41666697;stroke-linecap:round;stroke-linejoin:round;stroke-opacity:1"
     id="g208"
     transform="translate(-2400.6084,-2340.0889)">
    <path
       style="fill:none;fill-opacity:1;fill-rule:evenodd;stroke:#000000;stroke-width:10.41666697;stroke-linecap:round;stroke-linejoin:round;stroke-opacity:1"
       d="m 6473.1,2791.99 v 511.82 h -590.55 v -511.82 z"
       id="path204" />
    <path
       style="fill:none;fill-opacity:1;fill-rule:evenodd;stroke:#000000;stroke-width:10.41666697;stroke-linecap:round;stroke-linejoin:round;stroke-opacity:1"
       d="m 7536.09,2791.99 v 511.82 h -590.55 v -511.82 z"
       id="path206" />
  </g>
  <g
     id="g210"
     style="fill:#000000;fill-opacity:0;stroke:#000000;stroke-width:-0.000393701;stroke-linecap:round;stroke-linejoin:round;stroke-opacity:1"
     transform="translate(-2400.6084,-2340.0889)" />
  <g
     style="fill:none;fill-opacity:1;stroke:#000000;stroke-width:10.41666697;stroke-linecap:round;stroke-linejoin:round;stroke-opacity:1"
     id="g216"
     transform="translate(-2400.6084,-2340.0889)">
    <path
       style="fill:none;fill-opacity:1;fill-rule:evenodd;stroke:#000000;stroke-width:10.41666697;stroke-linecap:round;stroke-linejoin:round;stroke-opacity:1"
       d="m 7536.09,8303.81 v 511.81 h -590.55 v -511.81 z"
       id="path212" />
    <path
       style="fill:none;fill-opacity:1;fill-rule:evenodd;stroke:#000000;stroke-width:10.41666697;stroke-linecap:round;stroke-linejoin:round;stroke-opacity:1"
       d="m 6473.1,8303.81 v 511.81 h -590.55 v -511.81 z"
       id="path214" />
  </g>
  <g
     id="g218"
     style="fill:#000000;fill-opacity:0;stroke:#000000;stroke-width:-0.000393701;stroke-linecap:round;stroke-linejoin:round;stroke-opacity:1"
     transform="translate(-2400.6084,-2340.0889)" />
  <g
     id="g220"
     style="fill:#000000;fill-opacity:0;stroke:#000000;stroke-width:-0.000393701;stroke-linecap:round;stroke-linejoin:round;stroke-opacity:1"
     transform="translate(-2400.6084,-2340.0889)" />
  <g
     id="g222"
     style="fill:#000000;fill-opacity:0;stroke:#000000;stroke-width:-0.000393701;stroke-linecap:round;stroke-linejoin:round;stroke-opacity:1"
     transform="translate(-2400.6084,-2340.0889)" />
  <g
     style="fill:none;fill-opacity:1;stroke:#000000;stroke-width:10.41666697;stroke-linecap:round;stroke-linejoin:round;stroke-opacity:1"
     id="g228"
     transform="translate(-2400.6084,-2340.0889)">
    <path
       style="fill:none;fill-opacity:1;fill-rule:evenodd;stroke:#000000;stroke-width:10.41666697;stroke-linecap:round;stroke-linejoin:round;stroke-opacity:1"
       d="m 4799.87,7713.25 v 354.34 h -196.85 v -354.34 z"
       id="path224" />
    <path
       style="fill:none;fill-opacity:1;fill-rule:evenodd;stroke:#000000;stroke-width:10.41666697;stroke-linecap:round;stroke-linejoin:round;stroke-opacity:1"
       d="m 5390.42,7713.25 v 354.34 h -196.85 v -354.34 z"
       id="path226" />
  </g>
  <g
     id="g230"
     style="fill:#000000;fill-opacity:0;stroke:#000000;stroke-width:-0.000393701;stroke-linecap:round;stroke-linejoin:round;stroke-opacity:1"
     transform="translate(-2400.6084,-2340.0889)" />
  <g
     style="fill:none;fill-opacity:1;stroke:#000000;stroke-width:10.41666697;stroke-linecap:round;stroke-linejoin:round;stroke-opacity:1"
     id="g236"
     transform="translate(-2400.6084,-2340.0889)">
    <path
       style="fill:none;fill-opacity:1;fill-rule:evenodd;stroke:#000000;stroke-width:10.41666697;stroke-linecap:round;stroke-linejoin:round;stroke-opacity:1"
       d="m 4406.17,7713.25 v 354.34 h -196.85 v -354.34 z"
       id="path232" />
    <path
       style="fill:none;fill-opacity:1;fill-rule:evenodd;stroke:#000000;stroke-width:10.41666697;stroke-linecap:round;stroke-linejoin:round;stroke-opacity:1"
       d="m 3815.62,7713.25 v 354.34 h -196.85 v -354.34 z"
       id="path234" />
  </g>
  <g
     id="g238"
     style="fill:#000000;fill-opacity:0;stroke:#000000;stroke-width:-0.000393701;stroke-linecap:round;stroke-linejoin:round;stroke-opacity:1"
     transform="translate(-2400.6084,-2340.0889)" />
  <g
     id="g240"
     style="fill:#000000;fill-opacity:0;stroke:#000000;stroke-width:-0.000393701;stroke-linecap:round;stroke-linejoin:round;stroke-opacity:1"
     transform="translate(-2400.6084,-2340.0889)" />
  <g
     id="g242"
     style="fill:#000000;fill-opacity:0;stroke:#000000;stroke-width:-0.000393701;stroke-linecap:round;stroke-linejoin:round;stroke-opacity:1"
     transform="translate(-2400.6084,-2340.0889)" />
</svg>
