<?xml version="1.0" encoding="UTF-8" standalone="no"?>
<svg
   xmlns:dc="http://purl.org/dc/elements/1.1/"
   xmlns:cc="http://creativecommons.org/ns#"
   xmlns:rdf="http://www.w3.org/1999/02/22-rdf-syntax-ns#"
   xmlns:svg="http://www.w3.org/2000/svg"
   xmlns="http://www.w3.org/2000/svg"
   xmlns:sodipodi="http://sodipodi.sourceforge.net/DTD/sodipodi-0.dtd"
   xmlns:inkscape="http://www.inkscape.org/namespaces/inkscape"
   version="1.1"
   width="2.562860cm"
   height="2.471420cm"
   viewBox="0 0 10090 9730"
   id="svg332"
   sodipodi:docname="project-brd.svg"
   inkscape:version="1.0.2-2 (e86c870879, 2021-01-15)">
  <metadata
     id="metadata338">
    <rdf:RDF>
      <cc:Work
         rdf:about="">
        <dc:format>image/svg+xml</dc:format>
        <dc:type
           rdf:resource="http://purl.org/dc/dcmitype/StillImage" />
      </cc:Work>
    </rdf:RDF>
  </metadata>
  <defs
     id="defs336" />
  <sodipodi:namedview
     pagecolor="#ffffff"
     bordercolor="#666666"
     borderopacity="1"
     objecttolerance="10"
     gridtolerance="10"
     guidetolerance="10"
     inkscape:pageopacity="0"
     inkscape:pageshadow="2"
     inkscape:window-width="1522"
     inkscape:window-height="877"
     id="namedview334"
     showgrid="false"
     inkscape:zoom="2.755512"
     inkscape:cx="150.55317"
     inkscape:cy="6.6213138"
     inkscape:window-x="70"
     inkscape:window-y="-8"
     inkscape:window-maximized="1"
     inkscape:current-layer="g204" />
  <title
     id="title2">SVG Picture created as project-brd.svg date 2022/03/19 14:36:00 </title>
  <desc
     id="desc4">Picture generated by PCBNEW </desc>
  <g
     style="fill:#000000; fill-opacity:1;stroke:#000000; stroke-opacity:1; stroke-linecap:round; stroke-linejoin:round;"
     transform="translate(0 0) scale(1 1)"
     id="g6" />
  <g
     style="fill:#000000; fill-opacity:0.0;  stroke:#000000; stroke-width:-0.000393701; stroke-opacity:1;  stroke-linecap:round; stroke-linejoin:round;"
     id="g248">
    <g
       id="g8" />
    <g
       style="fill:#840000; fill-opacity:0.0;  stroke:#840000; stroke-width:-0.000393701; stroke-opacity:1;  stroke-linecap:round; stroke-linejoin:round;"
       id="g10" />
    <g
       style="fill:#840000; fill-opacity:0.0;  stroke:#840000; stroke-width:0; stroke-opacity:1;  stroke-linecap:round; stroke-linejoin:round;"
       id="g12" />
    <g
       style="fill:#ff0000;fill-opacity:1;stroke:#840000;stroke-width:0;stroke-opacity:1;stroke-linecap:round;stroke-linejoin:round"
       id="g18">
      <path
         style="fill:#ff0000;fill-opacity:1;stroke:#840000;stroke-width:0;stroke-opacity:1;stroke-linecap:round;stroke-linejoin:round;fill-rule:evenodd"
         d="M 2621.06,2595.14 2621.06,3106.96 2345.47,3106.96 2345.47,2595.14 Z"
         id="path14" />
      <path
         style="fill:#ff0000;fill-opacity:1;stroke:#840000;stroke-width:0;stroke-opacity:1;stroke-linecap:round;stroke-linejoin:round;fill-rule:evenodd"
         d="M 3369.09,2595.14 3369.09,3106.96 3093.5,3106.96 3093.5,2595.14 Z"
         id="path16" />
    </g>
    <g
       id="g20" />
    <g
       style="fill:#ff0000;fill-opacity:1;stroke:#840000;stroke-width:0;stroke-opacity:1;stroke-linecap:round;stroke-linejoin:round"
       id="g26">
      <path
         style="fill:#ff0000;fill-opacity:1;stroke:#840000;stroke-width:0;stroke-opacity:1;stroke-linecap:round;stroke-linejoin:round;fill-rule:evenodd"
         d="M 2621.06,3382.55 2621.06,3894.36 2345.47,3894.36 2345.47,3382.55 Z"
         id="path22" />
      <path
         style="fill:#ff0000;fill-opacity:1;stroke:#840000;stroke-width:0;stroke-opacity:1;stroke-linecap:round;stroke-linejoin:round;fill-rule:evenodd"
         d="M 3369.09,3382.55 3369.09,3894.36 3093.5,3894.36 3093.5,3382.55 Z"
         id="path24" />
    </g>
    <g
       id="g28" />
    <g
       style="fill:#ff0000;fill-opacity:1;stroke:#840000;stroke-width:0;stroke-opacity:1;stroke-linecap:round;stroke-linejoin:round"
       id="g34">
      <path
         style="fill:#ff0000;fill-opacity:1;stroke:#840000;stroke-width:0;stroke-opacity:1;stroke-linecap:round;stroke-linejoin:round;fill-rule:evenodd"
         d="M 7424.21,8815.62 7424.21,8303.81 7699.8,8303.81 7699.8,8815.62 Z"
         id="path30" />
      <path
         style="fill:#ff0000;fill-opacity:1;stroke:#840000;stroke-width:0;stroke-opacity:1;stroke-linecap:round;stroke-linejoin:round;fill-rule:evenodd"
         d="M 6676.18,8815.62 6676.18,8303.81 6951.77,8303.81 6951.77,8815.62 Z"
         id="path32" />
    </g>
    <g
       id="g36" />
    <g
       style="fill:#ff0000;fill-opacity:1;stroke:#840000;stroke-width:0;stroke-opacity:1;stroke-linecap:round;stroke-linejoin:round"
       id="g42">
      <path
         style="fill:#ff0000;fill-opacity:1;stroke:#840000;stroke-width:0;stroke-opacity:1;stroke-linecap:round;stroke-linejoin:round;fill-rule:evenodd"
         d="M 7424.21,8028.22 7424.21,7516.4 7699.8,7516.4 7699.8,8028.22 Z"
         id="path38" />
      <path
         style="fill:#ff0000;fill-opacity:1;stroke:#840000;stroke-width:0;stroke-opacity:1;stroke-linecap:round;stroke-linejoin:round;fill-rule:evenodd"
         d="M 6676.18,8028.22 6676.18,7516.4 6951.77,7516.4 6951.77,8028.22 Z"
         id="path40" />
    </g>
    <g
       id="g44" />
    <g
       style="fill:#ff0000;fill-opacity:1;stroke:#840000;stroke-width:0;stroke-opacity:1;stroke-linecap:round;stroke-linejoin:round"
       id="g50">
      <path
         style="fill:#ff0000;fill-opacity:1;stroke:#840000;stroke-width:0;stroke-opacity:1;stroke-linecap:round;stroke-linejoin:round;fill-rule:evenodd"
         d="M 7424.21,3303.81 7424.21,2791.99 7699.8,2791.99 7699.8,3303.81 Z"
         id="path46" />
      <path
         style="fill:#ff0000;fill-opacity:1;stroke:#840000;stroke-width:0;stroke-opacity:1;stroke-linecap:round;stroke-linejoin:round;fill-rule:evenodd"
         d="M 6676.18,3303.81 6676.18,2791.99 6951.77,2791.99 6951.77,3303.81 Z"
         id="path48" />
    </g>
    <g
       id="g52" />
    <g
       style="fill:#ff0000;fill-opacity:1;stroke:#840000;stroke-width:0;stroke-opacity:1;stroke-linecap:round;stroke-linejoin:round"
       id="g58">
      <path
         style="fill:#ff0000;fill-opacity:1;stroke:#840000;stroke-width:0;stroke-opacity:1;stroke-linecap:round;stroke-linejoin:round;fill-rule:evenodd"
         d="M 7424.21,4091.21 7424.21,3579.4 7699.8,3579.4 7699.8,4091.21 Z"
         id="path54" />
      <path
         style="fill:#ff0000;fill-opacity:1;stroke:#840000;stroke-width:0;stroke-opacity:1;stroke-linecap:round;stroke-linejoin:round;fill-rule:evenodd"
         d="M 6676.18,4091.21 6676.18,3579.4 6951.77,3579.4 6951.77,4091.21 Z"
         id="path56" />
    </g>
    <g
       id="g60" />
    <g
       style="fill:#ff0000;fill-opacity:1;stroke:#840000;stroke-width:0;stroke-opacity:1;stroke-linecap:round;stroke-linejoin:round"
       id="g66">
      <path
         style="fill:#ff0000;fill-opacity:1;stroke:#840000;stroke-width:0;stroke-opacity:1;stroke-linecap:round;stroke-linejoin:round;fill-rule:evenodd"
         d="M 5750.98,4465.22 6262.8,4465.22 6262.8,4740.81 5750.98,4740.81 Z"
         id="path62" />
      <path
         style="fill:#ff0000;fill-opacity:1;stroke:#840000;stroke-width:0;stroke-opacity:1;stroke-linecap:round;stroke-linejoin:round;fill-rule:evenodd"
         d="M 5750.98,3717.19 6262.8,3717.19 6262.8,3992.78 5750.98,3992.78 Z"
         id="path64" />
    </g>
    <g
       id="g68" />
    <g
       style="fill:#ff0000;fill-opacity:1;stroke:#840000;stroke-width:0;stroke-opacity:1;stroke-linecap:round;stroke-linejoin:round"
       id="g74">
      <path
         style="fill:#ff0000;fill-opacity:1;stroke:#840000;stroke-width:0;stroke-opacity:1;stroke-linecap:round;stroke-linejoin:round;fill-rule:evenodd"
         d="M 3684.06,8815.62 3684.06,8303.81 3959.65,8303.81 3959.65,8815.62 Z"
         id="path70" />
      <path
         style="fill:#ff0000;fill-opacity:1;stroke:#840000;stroke-width:0;stroke-opacity:1;stroke-linecap:round;stroke-linejoin:round;fill-rule:evenodd"
         d="M 2936.02,8815.62 2936.02,8303.81 3211.61,8303.81 3211.61,8815.62 Z"
         id="path72" />
    </g>
    <g
       id="g76" />
    <g
       style="fill:#ff0000;fill-opacity:1;stroke:#840000;stroke-width:0;stroke-opacity:1;stroke-linecap:round;stroke-linejoin:round"
       id="g82">
      <path
         style="fill:#ff0000;fill-opacity:1;stroke:#840000;stroke-width:0;stroke-opacity:1;stroke-linecap:round;stroke-linejoin:round;fill-rule:evenodd"
         d="M 3979.33,6827.43 4491.14,6827.43 4491.14,7103.02 3979.33,7103.02 Z"
         id="path78" />
      <path
         style="fill:#ff0000;fill-opacity:1;stroke:#840000;stroke-width:0;stroke-opacity:1;stroke-linecap:round;stroke-linejoin:round;fill-rule:evenodd"
         d="M 3979.33,6079.4 4491.14,6079.4 4491.14,6354.99 3979.33,6354.99 Z"
         id="path80" />
    </g>
    <g
       id="g84" />
    <g
       id="g86" />
    <g
       id="g88" />
    <g
       id="g90" />
    <g
       style="fill:#ff0000;fill-opacity:1;stroke:#840000;stroke-width:0;stroke-opacity:1;stroke-linecap:round;stroke-linejoin:round"
       id="g98">
      <path
         style="fill:#ff0000;fill-opacity:1;stroke:#840000;stroke-width:0;stroke-opacity:1;stroke-linecap:round;stroke-linejoin:round;fill-rule:evenodd"
         d="M 1045.43,4929.55 1045.43,4709.55 2215.43,4709.55 2215.43,4929.55 Z"
         id="path92" />
      <path
         style="fill:#ff0000;fill-opacity:1;stroke:#840000;stroke-width:0;stroke-opacity:1;stroke-linecap:round;stroke-linejoin:round;fill-rule:evenodd"
         d="M 1045.43,6898.06 1045.43,6678.06 2215.43,6678.06 2215.43,6898.06 Z"
         id="path94" />
      <path
         style="fill:#ff0000;fill-opacity:1;stroke:#840000;stroke-width:0;stroke-opacity:1;stroke-linecap:round;stroke-linejoin:round;fill-rule:evenodd"
         d="M 3105.43,5913.81 3105.43,5693.81 4275.43,5693.81 4275.43,5913.81 Z"
         id="path96" />
    </g>
    <g
       id="g100" />
    <g
       id="g102" />
    <g
       id="g104" />
    <g
       style="fill:#ff0000;fill-opacity:1;stroke:#840000;stroke-width:0;stroke-opacity:1;stroke-linecap:round;stroke-linejoin:round"
       id="g110">
      <path
         style="fill:#ff0000;fill-opacity:1;stroke:#840000;stroke-width:0;stroke-opacity:1;stroke-linecap:round;stroke-linejoin:round;fill-rule:evenodd"
         d="M 8310.04,4977.03 8821.85,4977.03 8821.85,5567.59 8310.04,5567.59 Z"
         id="path106" />
      <path
         style="fill:#ff0000;fill-opacity:1;stroke:#840000;stroke-width:0;stroke-opacity:1;stroke-linecap:round;stroke-linejoin:round;fill-rule:evenodd"
         d="M 8310.04,6040.03 8821.85,6040.03 8821.85,6630.58 8310.04,6630.58 Z"
         id="path108" />
    </g>
    <g
       id="g112" />
    <g
       style="fill:#ff0000;fill-opacity:1;stroke:#840000;stroke-width:0;stroke-opacity:1;stroke-linecap:round;stroke-linejoin:round"
       id="g118">
      <path
         style="fill:#ff0000;fill-opacity:1;stroke:#840000;stroke-width:0;stroke-opacity:1;stroke-linecap:round;stroke-linejoin:round;fill-rule:evenodd"
         d="M 2699.8,8303.81 2699.8,8815.62 2109.25,8815.62 2109.25,8303.81 Z"
         id="path114" />
      <path
         style="fill:#ff0000;fill-opacity:1;stroke:#840000;stroke-width:0;stroke-opacity:1;stroke-linecap:round;stroke-linejoin:round;fill-rule:evenodd"
         d="M 1636.81,8303.81 1636.81,8815.62 1046.26,8815.62 1046.26,8303.81 Z"
         id="path116" />
    </g>
    <g
       id="g120" />
    <g
       style="fill:#ff0000;fill-opacity:1;stroke:#840000;stroke-width:0;stroke-opacity:1;stroke-linecap:round;stroke-linejoin:round"
       id="g126">
      <path
         style="fill:#ff0000;fill-opacity:1;stroke:#840000;stroke-width:0;stroke-opacity:1;stroke-linecap:round;stroke-linejoin:round;fill-rule:evenodd"
         d="M 4136.81,4278.22 4136.81,3786.09 4530.51,3786.09 4530.51,4278.22 Z"
         id="path122" />
      <path
         style="fill:#ff0000;fill-opacity:1;stroke:#840000;stroke-width:0;stroke-opacity:1;stroke-linecap:round;stroke-linejoin:round;fill-rule:evenodd"
         d="M 4924.21,4278.22 4924.21,3786.09 5317.91,3786.09 5317.91,4278.22 Z"
         id="path124" />
    </g>
    <g
       id="g128" />
    <g
       style="fill:#ff0000;fill-opacity:1;stroke:#840000;stroke-width:0;stroke-opacity:1;stroke-linecap:round;stroke-linejoin:round"
       id="g134">
      <path
         style="fill:#ff0000;fill-opacity:1;stroke:#840000;stroke-width:0;stroke-opacity:1;stroke-linecap:round;stroke-linejoin:round;fill-rule:evenodd"
         d="M 4963.58,4967.19 4963.58,4671.92 5278.54,4671.92 5278.54,4967.19 Z"
         id="path130" />
      <path
         style="fill:#ff0000;fill-opacity:1;stroke:#840000;stroke-width:0;stroke-opacity:1;stroke-linecap:round;stroke-linejoin:round;fill-rule:evenodd"
         d="M 4373.03,4967.19 4373.03,4671.92 4687.99,4671.92 4687.99,4967.19 Z"
         id="path132" />
    </g>
    <g
       id="g136" />
    <g
       style="fill:#ff0000;fill-opacity:1;stroke:#840000;stroke-width:0;stroke-opacity:1;stroke-linecap:round;stroke-linejoin:round"
       id="g178">
      <path
         style="fill:#ff0000;fill-opacity:1;stroke:#840000;stroke-width:0;stroke-opacity:1;stroke-linecap:round;stroke-linejoin:round;fill-rule:evenodd"
         d="M 5967.14,5748.31 5966.02,5752 5964.2,5755.41 5961.75,5758.39 5941.79,5778.36 5938.81,5780.8 5935.4,5782.62 5931.71,5783.74 5927.87,5784.12 5908.46,5784.12 5904.62,5783.74 5900.93,5782.62 5897.53,5780.8 5894.55,5778.36 5892.1,5775.37 5890.28,5771.97 5889.16,5768.28 5888.78,5764.44 5888.78,5488.85 5889.16,5485 5890.28,5481.31 5892.1,5477.91 5894.55,5474.93 5897.53,5472.48 5900.93,5470.66 5904.62,5469.54 5908.46,5469.16 5947.83,5469.16 5951.68,5469.54 5955.37,5470.66 5958.77,5472.48 5961.75,5474.93 5964.2,5477.91 5966.02,5481.31 5967.14,5485 5967.52,5488.85 5967.52,5744.47 Z"
         id="path138" />
      <path
         style="fill:#ff0000;fill-opacity:1;stroke:#840000;stroke-width:0;stroke-opacity:1;stroke-linecap:round;stroke-linejoin:round;fill-rule:evenodd"
         d="M 5792.28,5469.26 5794.19,5469.54 5796.07,5470.01 5797.89,5470.66 5799.63,5471.48 5801.29,5472.48 5802.84,5473.63 5804.27,5474.93 5805.57,5476.36 5806.72,5477.91 5807.71,5479.57 5808.54,5481.31 5809.19,5483.13 5809.66,5485 5809.94,5486.92 5810.04,5488.85 5810.04,5764.44 5809.94,5766.37 5809.66,5768.28 5809.19,5770.15 5808.54,5771.97 5807.71,5773.72 5806.72,5775.37 5805.57,5776.92 5804.27,5778.36 5802.84,5779.65 5801.29,5780.8 5799.63,5781.8 5797.89,5782.62 5796.07,5783.27 5794.19,5783.74 5792.28,5784.03 5790.35,5784.12 5750.98,5784.12 5749.05,5784.03 5747.14,5783.74 5745.27,5783.27 5743.45,5782.62 5741.7,5781.8 5740.05,5780.8 5738.5,5779.65 5737.06,5778.36 5735.77,5776.92 5734.62,5775.37 5733.62,5773.72 5732.8,5771.97 5732.15,5770.15 5731.68,5768.28 5731.39,5766.37 5731.3,5764.44 5731.3,5488.85 5731.39,5486.92 5731.68,5485 5732.15,5483.13 5732.8,5481.31 5733.62,5479.57 5734.62,5477.91 5735.77,5476.36 5737.06,5474.93 5738.5,5473.63 5740.05,5472.48 5741.7,5471.48 5743.45,5470.66 5745.27,5470.01 5747.14,5469.54 5749.05,5469.26 5750.98,5469.16 5790.35,5469.16 Z"
         id="path140" />
      <path
         style="fill:#ff0000;fill-opacity:1;stroke:#840000;stroke-width:0;stroke-opacity:1;stroke-linecap:round;stroke-linejoin:round;fill-rule:evenodd"
         d="M 5634.8,5469.26 5636.71,5469.54 5638.59,5470.01 5640.41,5470.66 5642.15,5471.48 5643.81,5472.48 5645.36,5473.63 5646.79,5474.93 5648.09,5476.36 5649.24,5477.91 5650.23,5479.57 5651.06,5481.31 5651.71,5483.13 5652.18,5485 5652.46,5486.92 5652.56,5488.85 5652.56,5764.44 5652.46,5766.37 5652.18,5768.28 5651.71,5770.15 5651.06,5771.97 5650.23,5773.72 5649.24,5775.37 5648.09,5776.92 5646.79,5778.36 5645.36,5779.65 5643.81,5780.8 5642.15,5781.8 5640.41,5782.62 5638.59,5783.27 5636.71,5783.74 5634.8,5784.03 5632.87,5784.12 5593.5,5784.12 5591.57,5784.03 5589.66,5783.74 5587.79,5783.27 5585.97,5782.62 5584.22,5781.8 5582.57,5780.8 5581.02,5779.65 5579.58,5778.36 5578.29,5776.92 5577.14,5775.37 5576.14,5773.72 5575.32,5771.97 5574.67,5770.15 5574.2,5768.28 5573.91,5766.37 5573.82,5764.44 5573.82,5488.85 5573.91,5486.92 5574.2,5485 5574.67,5483.13 5575.32,5481.31 5576.14,5479.57 5577.14,5477.91 5578.29,5476.36 5579.58,5474.93 5581.02,5473.63 5582.57,5472.48 5584.22,5471.48 5585.97,5470.66 5587.79,5470.01 5589.66,5469.54 5591.57,5469.26 5593.5,5469.16 5632.87,5469.16 Z"
         id="path142" />
      <path
         style="fill:#ff0000;fill-opacity:1;stroke:#840000;stroke-width:0;stroke-opacity:1;stroke-linecap:round;stroke-linejoin:round;fill-rule:evenodd"
         d="M 5477.32,5469.26 5479.23,5469.54 5481.11,5470.01 5482.93,5470.66 5484.67,5471.48 5486.33,5472.48 5487.88,5473.63 5489.31,5474.93 5490.61,5476.36 5491.76,5477.91 5492.75,5479.57 5493.58,5481.31 5494.23,5483.13 5494.7,5485 5494.98,5486.92 5495.08,5488.85 5495.08,5764.44 5494.98,5766.37 5494.7,5768.28 5494.23,5770.15 5493.58,5771.97 5492.75,5773.72 5491.76,5775.37 5490.61,5776.92 5489.31,5778.36 5487.88,5779.65 5486.33,5780.8 5484.67,5781.8 5482.93,5782.62 5481.11,5783.27 5479.23,5783.74 5477.32,5784.03 5475.39,5784.12 5436.02,5784.12 5434.09,5784.03 5432.18,5783.74 5430.31,5783.27 5428.49,5782.62 5426.74,5781.8 5425.09,5780.8 5423.54,5779.65 5422.1,5778.36 5420.81,5776.92 5419.66,5775.37 5418.66,5773.72 5417.84,5771.97 5417.19,5770.15 5416.72,5768.28 5416.43,5766.37 5416.34,5764.44 5416.34,5488.85 5416.43,5486.92 5416.72,5485 5417.19,5483.13 5417.84,5481.31 5418.66,5479.57 5419.66,5477.91 5420.81,5476.36 5422.1,5474.93 5423.54,5473.63 5425.09,5472.48 5426.74,5471.48 5428.49,5470.66 5430.31,5470.01 5432.18,5469.54 5434.09,5469.26 5436.02,5469.16 5475.39,5469.16 Z"
         id="path144" />
      <path
         style="fill:#ff0000;fill-opacity:1;stroke:#840000;stroke-width:0;stroke-opacity:1;stroke-linecap:round;stroke-linejoin:round;fill-rule:evenodd"
         d="M 5337.22,5768.28 5336.1,5771.97 5334.28,5775.37 5331.83,5778.36 5328.85,5780.8 5325.45,5782.62 5321.75,5783.74 5317.91,5784.12 5298.51,5784.12 5294.67,5783.74 5290.98,5782.62 5287.57,5780.8 5284.59,5778.36 5264.62,5758.39 5262.18,5755.41 5260.36,5752 5259.24,5748.31 5258.86,5744.47 5258.86,5488.85 5259.24,5485 5260.36,5481.31 5262.18,5477.91 5264.62,5474.93 5267.61,5472.48 5271.01,5470.66 5274.7,5469.54 5278.54,5469.16 5317.91,5469.16 5321.75,5469.54 5325.45,5470.66 5328.85,5472.48 5331.83,5474.93 5334.28,5477.91 5336.1,5481.31 5337.22,5485 5337.6,5488.85 5337.6,5764.44 Z"
         id="path146" />
      <path
         style="fill:#ff0000;fill-opacity:1;stroke:#840000;stroke-width:0;stroke-opacity:1;stroke-linecap:round;stroke-linejoin:round;fill-rule:evenodd"
         d="M 5199.42,5906.07 5198.3,5909.76 5196.49,5913.17 5194.04,5916.15 5191.05,5918.6 5187.65,5920.42 5183.96,5921.54 5180.12,5921.92 4904.53,5921.92 4900.69,5921.54 4896.99,5920.42 4893.59,5918.6 4890.61,5916.15 4888.16,5913.17 4886.34,5909.76 4885.22,5906.07 4884.84,5902.23 4884.84,5862.86 4885.22,5859.02 4886.34,5855.33 4888.16,5851.92 4890.61,5848.94 4893.59,5846.49 4896.99,5844.67 4900.69,5843.55 4904.53,5843.18 5160.15,5843.18 5163.99,5843.55 5167.69,5844.67 5171.09,5846.49 5174.07,5848.94 5194.04,5868.91 5196.49,5871.89 5198.3,5875.29 5199.42,5878.99 5199.8,5882.83 5199.8,5902.23 Z"
         id="path148" />
      <path
         style="fill:#ff0000;fill-opacity:1;stroke:#840000;stroke-width:0;stroke-opacity:1;stroke-linecap:round;stroke-linejoin:round;fill-rule:evenodd"
         d="M 5182.05,6000.75 5183.96,6001.03 5185.83,6001.5 5187.65,6002.15 5189.4,6002.98 5191.05,6003.97 5192.61,6005.12 5194.04,6006.42 5195.34,6007.85 5196.49,6009.4 5197.48,6011.06 5198.3,6012.81 5198.96,6014.63 5199.42,6016.5 5199.71,6018.41 5199.8,6020.34 5199.8,6059.71 5199.71,6061.64 5199.42,6063.55 5198.96,6065.43 5198.3,6067.24 5197.48,6068.99 5196.49,6070.65 5195.34,6072.2 5194.04,6073.63 5192.61,6074.93 5191.05,6076.08 5189.4,6077.07 5187.65,6077.9 5185.83,6078.55 5183.96,6079.02 5182.05,6079.3 5180.12,6079.4 4904.53,6079.4 4902.6,6079.3 4900.69,6079.02 4898.81,6078.55 4896.99,6077.9 4895.25,6077.07 4893.59,6076.08 4892.04,6074.93 4890.61,6073.63 4889.31,6072.2 4888.16,6070.65 4887.17,6068.99 4886.34,6067.24 4885.69,6065.43 4885.22,6063.55 4884.94,6061.64 4884.84,6059.71 4884.84,6020.34 4884.94,6018.41 4885.22,6016.5 4885.69,6014.63 4886.34,6012.81 4887.17,6011.06 4888.16,6009.4 4889.31,6007.85 4890.61,6006.42 4892.04,6005.12 4893.59,6003.97 4895.25,6002.98 4896.99,6002.15 4898.81,6001.5 4900.69,6001.03 4902.6,6000.75 4904.53,6000.66 5180.12,6000.66 Z"
         id="path150" />
      <path
         style="fill:#ff0000;fill-opacity:1;stroke:#840000;stroke-width:0;stroke-opacity:1;stroke-linecap:round;stroke-linejoin:round;fill-rule:evenodd"
         d="M 5182.05,6158.23 5183.96,6158.51 5185.83,6158.98 5187.65,6159.64 5189.4,6160.46 5191.05,6161.45 5192.61,6162.6 5194.04,6163.9 5195.34,6165.33 5196.49,6166.89 5197.48,6168.54 5198.3,6170.29 5198.96,6172.11 5199.42,6173.98 5199.71,6175.89 5199.8,6177.82 5199.8,6217.19 5199.71,6219.12 5199.42,6221.03 5198.96,6222.91 5198.3,6224.72 5197.48,6226.47 5196.49,6228.13 5195.34,6229.68 5194.04,6231.11 5192.61,6232.41 5191.05,6233.56 5189.4,6234.55 5187.65,6235.38 5185.83,6236.03 5183.96,6236.5 5182.05,6236.78 5180.12,6236.88 4904.53,6236.88 4902.6,6236.78 4900.69,6236.5 4898.81,6236.03 4896.99,6235.38 4895.25,6234.55 4893.59,6233.56 4892.04,6232.41 4890.61,6231.11 4889.31,6229.68 4888.16,6228.13 4887.17,6226.47 4886.34,6224.72 4885.69,6222.91 4885.22,6221.03 4884.94,6219.12 4884.84,6217.19 4884.84,6177.82 4884.94,6175.89 4885.22,6173.98 4885.69,6172.11 4886.34,6170.29 4887.17,6168.54 4888.16,6166.89 4889.31,6165.33 4890.61,6163.9 4892.04,6162.6 4893.59,6161.45 4895.25,6160.46 4896.99,6159.64 4898.81,6158.98 4900.69,6158.51 4902.6,6158.23 4904.53,6158.14 5180.12,6158.14 Z"
         id="path152" />
      <path
         style="fill:#ff0000;fill-opacity:1;stroke:#840000;stroke-width:0;stroke-opacity:1;stroke-linecap:round;stroke-linejoin:round;fill-rule:evenodd"
         d="M 5182.05,6315.71 5183.96,6316 5185.83,6316.46 5187.65,6317.12 5189.4,6317.94 5191.05,6318.93 5192.61,6320.09 5194.04,6321.38 5195.34,6322.81 5196.49,6324.37 5197.48,6326.02 5198.3,6327.77 5198.96,6329.59 5199.42,6331.46 5199.71,6333.37 5199.8,6335.3 5199.8,6374.67 5199.71,6376.6 5199.42,6378.51 5198.96,6380.39 5198.3,6382.21 5197.48,6383.95 5196.49,6385.61 5195.34,6387.16 5194.04,6388.59 5192.61,6389.89 5191.05,6391.04 5189.4,6392.03 5187.65,6392.86 5185.83,6393.51 5183.96,6393.98 5182.05,6394.26 5180.12,6394.36 4904.53,6394.36 4902.6,6394.26 4900.69,6393.98 4898.81,6393.51 4896.99,6392.86 4895.25,6392.03 4893.59,6391.04 4892.04,6389.89 4890.61,6388.59 4889.31,6387.16 4888.16,6385.61 4887.17,6383.95 4886.34,6382.21 4885.69,6380.39 4885.22,6378.51 4884.94,6376.6 4884.84,6374.67 4884.84,6335.3 4884.94,6333.37 4885.22,6331.46 4885.69,6329.59 4886.34,6327.77 4887.17,6326.02 4888.16,6324.37 4889.31,6322.81 4890.61,6321.38 4892.04,6320.09 4893.59,6318.93 4895.25,6317.94 4896.99,6317.12 4898.81,6316.46 4900.69,6316 4902.6,6315.71 4904.53,6315.62 5180.12,6315.62 Z"
         id="path154" />
      <path
         style="fill:#ff0000;fill-opacity:1;stroke:#840000;stroke-width:0;stroke-opacity:1;stroke-linecap:round;stroke-linejoin:round;fill-rule:evenodd"
         d="M 5199.42,6516.03 5198.3,6519.72 5196.49,6523.12 5194.04,6526.11 5174.07,6546.07 5171.09,6548.52 5167.69,6550.34 5163.99,6551.46 5160.15,6551.84 4904.53,6551.84 4900.69,6551.46 4896.99,6550.34 4893.59,6548.52 4890.61,6546.07 4888.16,6543.09 4886.34,6539.69 4885.22,6535.99 4884.84,6532.15 4884.84,6492.78 4885.22,6488.94 4886.34,6485.25 4888.16,6481.85 4890.61,6478.86 4893.59,6476.41 4896.99,6474.6 4900.69,6473.48 4904.53,6473.1 5180.12,6473.1 5183.96,6473.48 5187.65,6474.6 5191.05,6476.41 5194.04,6478.86 5196.49,6481.85 5198.3,6485.25 5199.42,6488.94 5199.8,6492.78 5199.8,6512.19 Z"
         id="path156" />
      <path
         style="fill:#ff0000;fill-opacity:1;stroke:#840000;stroke-width:0;stroke-opacity:1;stroke-linecap:round;stroke-linejoin:round;fill-rule:evenodd"
         d="M 5337.22,6910.01 5336.1,6913.7 5334.28,6917.1 5331.83,6920.09 5328.85,6922.54 5325.45,6924.35 5321.75,6925.47 5317.91,6925.85 5278.54,6925.85 5274.7,6925.47 5271.01,6924.35 5267.61,6922.54 5264.62,6920.09 5262.18,6917.1 5260.36,6913.7 5259.24,6910.01 5258.86,6906.17 5258.86,6650.54 5259.24,6646.7 5260.36,6643.01 5262.18,6639.61 5264.62,6636.62 5284.59,6616.66 5287.57,6614.21 5290.98,6612.39 5294.67,6611.27 5298.51,6610.89 5317.91,6610.89 5321.75,6611.27 5325.45,6612.39 5328.85,6614.21 5331.83,6616.66 5334.28,6619.64 5336.1,6623.04 5337.22,6626.74 5337.6,6630.58 5337.6,6906.17 Z"
         id="path158" />
      <path
         style="fill:#ff0000;fill-opacity:1;stroke:#840000;stroke-width:0;stroke-opacity:1;stroke-linecap:round;stroke-linejoin:round;fill-rule:evenodd"
         d="M 5477.32,6610.99 5479.23,6611.27 5481.11,6611.74 5482.93,6612.39 5484.67,6613.22 5486.33,6614.21 5487.88,6615.36 5489.31,6616.66 5490.61,6618.09 5491.76,6619.64 5492.75,6621.3 5493.58,6623.04 5494.23,6624.86 5494.7,6626.74 5494.98,6628.65 5495.08,6630.58 5495.08,6906.17 5494.98,6908.1 5494.7,6910.01 5494.23,6911.88 5493.58,6913.7 5492.75,6915.45 5491.76,6917.1 5490.61,6918.66 5489.31,6920.09 5487.88,6921.39 5486.33,6922.54 5484.67,6923.53 5482.93,6924.35 5481.11,6925.01 5479.23,6925.47 5477.32,6925.76 5475.39,6925.85 5436.02,6925.85 5434.09,6925.76 5432.18,6925.47 5430.31,6925.01 5428.49,6924.35 5426.74,6923.53 5425.09,6922.54 5423.54,6921.39 5422.1,6920.09 5420.81,6918.66 5419.66,6917.1 5418.66,6915.45 5417.84,6913.7 5417.19,6911.88 5416.72,6910.01 5416.43,6908.1 5416.34,6906.17 5416.34,6630.58 5416.43,6628.65 5416.72,6626.74 5417.19,6624.86 5417.84,6623.04 5418.66,6621.3 5419.66,6619.64 5420.81,6618.09 5422.1,6616.66 5423.54,6615.36 5425.09,6614.21 5426.74,6613.22 5428.49,6612.39 5430.31,6611.74 5432.18,6611.27 5434.09,6610.99 5436.02,6610.89 5475.39,6610.89 Z"
         id="path160" />
      <path
         style="fill:#ff0000;fill-opacity:1;stroke:#840000;stroke-width:0;stroke-opacity:1;stroke-linecap:round;stroke-linejoin:round;fill-rule:evenodd"
         d="M 5634.8,6610.99 5636.71,6611.27 5638.59,6611.74 5640.41,6612.39 5642.15,6613.22 5643.81,6614.21 5645.36,6615.36 5646.79,6616.66 5648.09,6618.09 5649.24,6619.64 5650.23,6621.3 5651.06,6623.04 5651.71,6624.86 5652.18,6626.74 5652.46,6628.65 5652.56,6630.58 5652.56,6906.17 5652.46,6908.1 5652.18,6910.01 5651.71,6911.88 5651.06,6913.7 5650.23,6915.45 5649.24,6917.1 5648.09,6918.66 5646.79,6920.09 5645.36,6921.39 5643.81,6922.54 5642.15,6923.53 5640.41,6924.35 5638.59,6925.01 5636.71,6925.47 5634.8,6925.76 5632.87,6925.85 5593.5,6925.85 5591.57,6925.76 5589.66,6925.47 5587.79,6925.01 5585.97,6924.35 5584.22,6923.53 5582.57,6922.54 5581.02,6921.39 5579.58,6920.09 5578.29,6918.66 5577.14,6917.1 5576.14,6915.45 5575.32,6913.7 5574.67,6911.88 5574.2,6910.01 5573.91,6908.1 5573.82,6906.17 5573.82,6630.58 5573.91,6628.65 5574.2,6626.74 5574.67,6624.86 5575.32,6623.04 5576.14,6621.3 5577.14,6619.64 5578.29,6618.09 5579.58,6616.66 5581.02,6615.36 5582.57,6614.21 5584.22,6613.22 5585.97,6612.39 5587.79,6611.74 5589.66,6611.27 5591.57,6610.99 5593.5,6610.89 5632.87,6610.89 Z"
         id="path162" />
      <path
         style="fill:#ff0000;fill-opacity:1;stroke:#840000;stroke-width:0;stroke-opacity:1;stroke-linecap:round;stroke-linejoin:round;fill-rule:evenodd"
         d="M 5792.28,6610.99 5794.19,6611.27 5796.07,6611.74 5797.89,6612.39 5799.63,6613.22 5801.29,6614.21 5802.84,6615.36 5804.27,6616.66 5805.57,6618.09 5806.72,6619.64 5807.71,6621.3 5808.54,6623.04 5809.19,6624.86 5809.66,6626.74 5809.94,6628.65 5810.04,6630.58 5810.04,6906.17 5809.94,6908.1 5809.66,6910.01 5809.19,6911.88 5808.54,6913.7 5807.71,6915.45 5806.72,6917.1 5805.57,6918.66 5804.27,6920.09 5802.84,6921.39 5801.29,6922.54 5799.63,6923.53 5797.89,6924.35 5796.07,6925.01 5794.19,6925.47 5792.28,6925.76 5790.35,6925.85 5750.98,6925.85 5749.05,6925.76 5747.14,6925.47 5745.27,6925.01 5743.45,6924.35 5741.7,6923.53 5740.05,6922.54 5738.5,6921.39 5737.06,6920.09 5735.77,6918.66 5734.62,6917.1 5733.62,6915.45 5732.8,6913.7 5732.15,6911.88 5731.68,6910.01 5731.39,6908.1 5731.3,6906.17 5731.3,6630.58 5731.39,6628.65 5731.68,6626.74 5732.15,6624.86 5732.8,6623.04 5733.62,6621.3 5734.62,6619.64 5735.77,6618.09 5737.06,6616.66 5738.5,6615.36 5740.05,6614.21 5741.7,6613.22 5743.45,6612.39 5745.27,6611.74 5747.14,6611.27 5749.05,6610.99 5750.98,6610.89 5790.35,6610.89 Z"
         id="path164" />
      <path
         style="fill:#ff0000;fill-opacity:1;stroke:#840000;stroke-width:0;stroke-opacity:1;stroke-linecap:round;stroke-linejoin:round;fill-rule:evenodd"
         d="M 5967.14,6910.01 5966.02,6913.7 5964.2,6917.1 5961.75,6920.09 5958.77,6922.54 5955.37,6924.35 5951.68,6925.47 5947.83,6925.85 5908.46,6925.85 5904.62,6925.47 5900.93,6924.35 5897.53,6922.54 5894.55,6920.09 5892.1,6917.1 5890.28,6913.7 5889.16,6910.01 5888.78,6906.17 5888.78,6630.58 5889.16,6626.74 5890.28,6623.04 5892.1,6619.64 5894.55,6616.66 5897.53,6614.21 5900.93,6612.39 5904.62,6611.27 5908.46,6610.89 5927.87,6610.89 5931.71,6611.27 5935.4,6612.39 5938.81,6614.21 5941.79,6616.66 5961.75,6636.62 5964.2,6639.61 5966.02,6643.01 5967.14,6646.7 5967.52,6650.54 5967.52,6906.17 Z"
         id="path166" />
      <path
         style="fill:#ff0000;fill-opacity:1;stroke:#840000;stroke-width:0;stroke-opacity:1;stroke-linecap:round;stroke-linejoin:round;fill-rule:evenodd"
         d="M 6341.16,6535.99 6340.04,6539.69 6338.22,6543.09 6335.77,6546.07 6332.79,6548.52 6329.38,6550.34 6325.69,6551.46 6321.85,6551.84 6066.22,6551.84 6062.38,6551.46 6058.69,6550.34 6055.29,6548.52 6052.31,6546.07 6032.34,6526.11 6029.89,6523.12 6028.07,6519.72 6026.95,6516.03 6026.57,6512.19 6026.57,6492.78 6026.95,6488.94 6028.07,6485.25 6029.89,6481.85 6032.34,6478.86 6035.32,6476.41 6038.73,6474.6 6042.42,6473.48 6046.26,6473.1 6321.85,6473.1 6325.69,6473.48 6329.38,6474.6 6332.79,6476.41 6335.77,6478.86 6338.22,6481.85 6340.04,6485.25 6341.16,6488.94 6341.54,6492.78 6341.54,6532.15 Z"
         id="path168" />
      <path
         style="fill:#ff0000;fill-opacity:1;stroke:#840000;stroke-width:0;stroke-opacity:1;stroke-linecap:round;stroke-linejoin:round;fill-rule:evenodd"
         d="M 6323.78,6315.71 6325.69,6316 6327.56,6316.46 6329.38,6317.12 6331.13,6317.94 6332.79,6318.93 6334.34,6320.09 6335.77,6321.38 6337.07,6322.81 6338.22,6324.37 6339.21,6326.02 6340.04,6327.77 6340.69,6329.59 6341.16,6331.46 6341.44,6333.37 6341.54,6335.3 6341.54,6374.67 6341.44,6376.6 6341.16,6378.51 6340.69,6380.39 6340.04,6382.21 6339.21,6383.95 6338.22,6385.61 6337.07,6387.16 6335.77,6388.59 6334.34,6389.89 6332.79,6391.04 6331.13,6392.03 6329.38,6392.86 6327.56,6393.51 6325.69,6393.98 6323.78,6394.26 6321.85,6394.36 6046.26,6394.36 6044.33,6394.26 6042.42,6393.98 6040.55,6393.51 6038.73,6392.86 6036.98,6392.03 6035.32,6391.04 6033.77,6389.89 6032.34,6388.59 6031.04,6387.16 6029.89,6385.61 6028.9,6383.95 6028.07,6382.21 6027.42,6380.39 6026.95,6378.51 6026.67,6376.6 6026.57,6374.67 6026.57,6335.3 6026.67,6333.37 6026.95,6331.46 6027.42,6329.59 6028.07,6327.77 6028.9,6326.02 6029.89,6324.37 6031.04,6322.81 6032.34,6321.38 6033.77,6320.09 6035.32,6318.93 6036.98,6317.94 6038.73,6317.12 6040.55,6316.46 6042.42,6316 6044.33,6315.71 6046.26,6315.62 6321.85,6315.62 Z"
         id="path170" />
      <path
         style="fill:#ff0000;fill-opacity:1;stroke:#840000;stroke-width:0;stroke-opacity:1;stroke-linecap:round;stroke-linejoin:round;fill-rule:evenodd"
         d="M 6323.78,6158.23 6325.69,6158.51 6327.56,6158.98 6329.38,6159.64 6331.13,6160.46 6332.79,6161.45 6334.34,6162.6 6335.77,6163.9 6337.07,6165.33 6338.22,6166.89 6339.21,6168.54 6340.04,6170.29 6340.69,6172.11 6341.16,6173.98 6341.44,6175.89 6341.54,6177.82 6341.54,6217.19 6341.44,6219.12 6341.16,6221.03 6340.69,6222.91 6340.04,6224.72 6339.21,6226.47 6338.22,6228.13 6337.07,6229.68 6335.77,6231.11 6334.34,6232.41 6332.79,6233.56 6331.13,6234.55 6329.38,6235.38 6327.56,6236.03 6325.69,6236.5 6323.78,6236.78 6321.85,6236.88 6046.26,6236.88 6044.33,6236.78 6042.42,6236.5 6040.55,6236.03 6038.73,6235.38 6036.98,6234.55 6035.32,6233.56 6033.77,6232.41 6032.34,6231.11 6031.04,6229.68 6029.89,6228.13 6028.9,6226.47 6028.07,6224.72 6027.42,6222.91 6026.95,6221.03 6026.67,6219.12 6026.57,6217.19 6026.57,6177.82 6026.67,6175.89 6026.95,6173.98 6027.42,6172.11 6028.07,6170.29 6028.9,6168.54 6029.89,6166.89 6031.04,6165.33 6032.34,6163.9 6033.77,6162.6 6035.32,6161.45 6036.98,6160.46 6038.73,6159.64 6040.55,6158.98 6042.42,6158.51 6044.33,6158.23 6046.26,6158.14 6321.85,6158.14 Z"
         id="path172" />
      <path
         style="fill:#ff0000;fill-opacity:1;stroke:#840000;stroke-width:0;stroke-opacity:1;stroke-linecap:round;stroke-linejoin:round;fill-rule:evenodd"
         d="M 6323.78,6000.75 6325.69,6001.03 6327.56,6001.5 6329.38,6002.15 6331.13,6002.98 6332.79,6003.97 6334.34,6005.12 6335.77,6006.42 6337.07,6007.85 6338.22,6009.4 6339.21,6011.06 6340.04,6012.81 6340.69,6014.63 6341.16,6016.5 6341.44,6018.41 6341.54,6020.34 6341.54,6059.71 6341.44,6061.64 6341.16,6063.55 6340.69,6065.43 6340.04,6067.24 6339.21,6068.99 6338.22,6070.65 6337.07,6072.2 6335.77,6073.63 6334.34,6074.93 6332.79,6076.08 6331.13,6077.07 6329.38,6077.9 6327.56,6078.55 6325.69,6079.02 6323.78,6079.3 6321.85,6079.4 6046.26,6079.4 6044.33,6079.3 6042.42,6079.02 6040.55,6078.55 6038.73,6077.9 6036.98,6077.07 6035.32,6076.08 6033.77,6074.93 6032.34,6073.63 6031.04,6072.2 6029.89,6070.65 6028.9,6068.99 6028.07,6067.24 6027.42,6065.43 6026.95,6063.55 6026.67,6061.64 6026.57,6059.71 6026.57,6020.34 6026.67,6018.41 6026.95,6016.5 6027.42,6014.63 6028.07,6012.81 6028.9,6011.06 6029.89,6009.4 6031.04,6007.85 6032.34,6006.42 6033.77,6005.12 6035.32,6003.97 6036.98,6002.98 6038.73,6002.15 6040.55,6001.5 6042.42,6001.03 6044.33,6000.75 6046.26,6000.66 6321.85,6000.66 Z"
         id="path174" />
      <path
         style="fill:#ff0000;fill-opacity:1;stroke:#840000;stroke-width:0;stroke-opacity:1;stroke-linecap:round;stroke-linejoin:round;fill-rule:evenodd"
         d="M 6341.16,5906.07 6340.04,5909.76 6338.22,5913.17 6335.77,5916.15 6332.79,5918.6 6329.38,5920.42 6325.69,5921.54 6321.85,5921.92 6046.26,5921.92 6042.42,5921.54 6038.73,5920.42 6035.32,5918.6 6032.34,5916.15 6029.89,5913.17 6028.07,5909.76 6026.95,5906.07 6026.57,5902.23 6026.57,5882.83 6026.95,5878.99 6028.07,5875.29 6029.89,5871.89 6032.34,5868.91 6052.31,5848.94 6055.29,5846.49 6058.69,5844.67 6062.38,5843.55 6066.22,5843.18 6321.85,5843.18 6325.69,5843.55 6329.38,5844.67 6332.79,5846.49 6335.77,5848.94 6338.22,5851.92 6340.04,5855.33 6341.16,5859.02 6341.54,5862.86 6341.54,5902.23 Z"
         id="path176" />
    </g>
    <g
       style="fill:#ff0000;fill-opacity:1;stroke:#000000;stroke-width:0;stroke-opacity:1;stroke-linecap:round;stroke-linejoin:round"
       id="g188">
      <path
         style="fill:#ff0000;fill-opacity:1;stroke:#000000;stroke-width:0;stroke-opacity:1;stroke-linecap:round;stroke-linejoin:round;fill-rule:evenodd"
         d="M 5855.08,5894.68 5861.67,5895.66 5868.14,5897.28 5874.41,5899.53 5880.44,5902.38 5886.16,5905.8 5891.51,5909.77 5896.45,5914.25 5900.92,5919.19 5904.89,5924.54 5908.32,5930.26 5911.17,5936.28 5913.41,5942.56 5915.03,5949.02 5916.01,5955.61 5916.34,5962.27 5916.34,6098.1 5916.01,6104.75 5915.03,6111.35 5913.41,6117.81 5911.17,6124.09 5908.32,6130.11 5904.89,6135.83 5900.92,6141.18 5896.45,6146.12 5891.51,6150.59 5886.16,6154.57 5880.44,6157.99 5874.41,6160.84 5868.14,6163.09 5861.67,6164.71 5855.08,6165.68 5848.43,6166.01 5712.6,6166.01 5705.94,6165.68 5699.35,6164.71 5692.88,6163.09 5686.61,6160.84 5680.58,6157.99 5674.87,6154.57 5669.51,6150.59 5664.58,6146.12 5660.1,6141.18 5656.13,6135.83 5652.7,6130.11 5649.85,6124.09 5647.61,6117.81 5645.99,6111.35 5645.01,6104.75 5644.69,6098.1 5644.69,5962.27 5645.01,5955.61 5645.99,5949.02 5647.61,5942.56 5649.85,5936.28 5652.7,5930.26 5656.13,5924.54 5660.1,5919.19 5664.58,5914.25 5669.51,5909.77 5674.87,5905.8 5680.58,5902.38 5686.61,5899.53 5692.88,5897.28 5699.35,5895.66 5705.94,5894.68 5712.6,5894.36 5848.43,5894.36 Z"
         id="path180" />
      <path
         style="fill:#ff0000;fill-opacity:1;stroke:#000000;stroke-width:0;stroke-opacity:1;stroke-linecap:round;stroke-linejoin:round;fill-rule:evenodd"
         d="M 5520.44,5894.68 5527.03,5895.66 5533.49,5897.28 5539.77,5899.53 5545.79,5902.38 5551.51,5905.8 5556.86,5909.77 5561.8,5914.25 5566.28,5919.19 5570.25,5924.54 5573.67,5930.26 5576.52,5936.28 5578.77,5942.56 5580.39,5949.02 5581.37,5955.61 5581.69,5962.27 5581.69,6098.1 5581.37,6104.75 5580.39,6111.35 5578.77,6117.81 5576.52,6124.09 5573.67,6130.11 5570.25,6135.83 5566.28,6141.18 5561.8,6146.12 5556.86,6150.59 5551.51,6154.57 5545.79,6157.99 5539.77,6160.84 5533.49,6163.09 5527.03,6164.71 5520.44,6165.68 5513.78,6166.01 5377.95,6166.01 5371.3,6165.68 5364.7,6164.71 5358.24,6163.09 5351.96,6160.84 5345.94,6157.99 5340.22,6154.57 5334.87,6150.59 5329.93,6146.12 5325.46,6141.18 5321.48,6135.83 5318.06,6130.11 5315.21,6124.09 5312.96,6117.81 5311.34,6111.35 5310.37,6104.75 5310.04,6098.1 5310.04,5962.27 5310.37,5955.61 5311.34,5949.02 5312.96,5942.56 5315.21,5936.28 5318.06,5930.26 5321.48,5924.54 5325.46,5919.19 5329.93,5914.25 5334.87,5909.77 5340.22,5905.8 5345.94,5902.38 5351.96,5899.53 5358.24,5897.28 5364.7,5895.66 5371.3,5894.68 5377.95,5894.36 5513.78,5894.36 Z"
         id="path182" />
      <path
         style="fill:#ff0000;fill-opacity:1;stroke:#000000;stroke-width:0;stroke-opacity:1;stroke-linecap:round;stroke-linejoin:round;fill-rule:evenodd"
         d="M 5855.08,6229.33 5861.67,6230.31 5868.14,6231.93 5874.41,6234.17 5880.44,6237.02 5886.16,6240.45 5891.51,6244.42 5896.45,6248.89 5900.92,6253.83 5904.89,6259.19 5908.32,6264.9 5911.17,6270.93 5913.41,6277.2 5915.03,6283.67 5916.01,6290.26 5916.34,6296.92 5916.34,6432.74 5916.01,6439.4 5915.03,6445.99 5913.41,6452.46 5911.17,6458.73 5908.32,6464.76 5904.89,6470.47 5900.92,6475.83 5896.45,6480.76 5891.51,6485.24 5886.16,6489.21 5880.44,6492.64 5874.41,6495.49 5868.14,6497.73 5861.67,6499.35 5855.08,6500.33 5848.43,6500.66 5712.6,6500.66 5705.94,6500.33 5699.35,6499.35 5692.88,6497.73 5686.61,6495.49 5680.58,6492.64 5674.87,6489.21 5669.51,6485.24 5664.58,6480.76 5660.1,6475.83 5656.13,6470.47 5652.7,6464.76 5649.85,6458.73 5647.61,6452.46 5645.99,6445.99 5645.01,6439.4 5644.69,6432.74 5644.69,6296.92 5645.01,6290.26 5645.99,6283.67 5647.61,6277.2 5649.85,6270.93 5652.7,6264.9 5656.13,6259.19 5660.1,6253.83 5664.58,6248.89 5669.51,6244.42 5674.87,6240.45 5680.58,6237.02 5686.61,6234.17 5692.88,6231.93 5699.35,6230.31 5705.94,6229.33 5712.6,6229 5848.43,6229 Z"
         id="path184" />
      <path
         style="fill:#ff0000;fill-opacity:1;stroke:#000000;stroke-width:0;stroke-opacity:1;stroke-linecap:round;stroke-linejoin:round;fill-rule:evenodd"
         d="M 5520.44,6229.33 5527.03,6230.31 5533.49,6231.93 5539.77,6234.17 5545.79,6237.02 5551.51,6240.45 5556.86,6244.42 5561.8,6248.89 5566.28,6253.83 5570.25,6259.19 5573.67,6264.9 5576.52,6270.93 5578.77,6277.2 5580.39,6283.67 5581.37,6290.26 5581.69,6296.92 5581.69,6432.74 5581.37,6439.4 5580.39,6445.99 5578.77,6452.46 5576.52,6458.73 5573.67,6464.76 5570.25,6470.47 5566.28,6475.83 5561.8,6480.76 5556.86,6485.24 5551.51,6489.21 5545.79,6492.64 5539.77,6495.49 5533.49,6497.73 5527.03,6499.35 5520.44,6500.33 5513.78,6500.66 5377.95,6500.66 5371.3,6500.33 5364.7,6499.35 5358.24,6497.73 5351.96,6495.49 5345.94,6492.64 5340.22,6489.21 5334.87,6485.24 5329.93,6480.76 5325.46,6475.83 5321.48,6470.47 5318.06,6464.76 5315.21,6458.73 5312.96,6452.46 5311.34,6445.99 5310.37,6439.4 5310.04,6432.74 5310.04,6296.92 5310.37,6290.26 5311.34,6283.67 5312.96,6277.2 5315.21,6270.93 5318.06,6264.9 5321.48,6259.19 5325.46,6253.83 5329.93,6248.89 5334.87,6244.42 5340.22,6240.45 5345.94,6237.02 5351.96,6234.17 5358.24,6231.93 5364.7,6230.31 5371.3,6229.33 5377.95,6229 5513.78,6229 Z"
         id="path186" />
    </g>
    <g
       id="g190" />
    <g
       id="g198" />
    <g
       style="fill:#840000; fill-opacity:1.0;  stroke:#840000; stroke-width:0; stroke-opacity:1;  stroke-linecap:round; stroke-linejoin:round;"
       id="g204">
      <text
         xml:space="preserve"
         style="font-style:normal;font-weight:normal;font-size:833.333px;line-height:1.25;font-family:sans-serif;fill:#000000;fill-opacity:1;stroke:none;stroke-width:0"
         x="1021.7382"
         y="897.85242"
         id="text1165"><tspan
           sodipodi:role="line"
           id="tspan1163"
           x="1021.7382"
           y="897.85242"
           style="font-size:833.333px;fill:#ff0000;stroke-width:0">LED Attiny826 v0</tspan></text>
    </g>
    <g
       id="g206" />
    <g
       style="fill:#ff0000;fill-opacity:1;stroke:#840000;stroke-width:0;stroke-opacity:1;stroke-linecap:round;stroke-linejoin:round"
       id="g212">
      <path
         style="fill:#ff0000;fill-opacity:1;stroke:#840000;stroke-width:0;stroke-opacity:1;stroke-linecap:round;stroke-linejoin:round;fill-rule:evenodd"
         d="M 4786.42,2791.99 4786.42,3303.81 4195.87,3303.81 4195.87,2791.99 Z"
         id="path208" />
      <path
         style="fill:#ff0000;fill-opacity:1;stroke:#840000;stroke-width:0;stroke-opacity:1;stroke-linecap:round;stroke-linejoin:round;fill-rule:evenodd"
         d="M 5849.41,2791.99 5849.41,3303.81 5258.86,3303.81 5258.86,2791.99 Z"
         id="path210" />
    </g>
    <g
       id="g214" />
    <g
       style="fill:#ff0000;fill-opacity:1;stroke:#840000;stroke-width:0;stroke-opacity:1;stroke-linecap:round;stroke-linejoin:round"
       id="g220">
      <path
         style="fill:#ff0000;fill-opacity:1;stroke:#840000;stroke-width:0;stroke-opacity:1;stroke-linecap:round;stroke-linejoin:round;fill-rule:evenodd"
         d="M 5849.41,8303.81 5849.41,8815.62 5258.86,8815.62 5258.86,8303.81 Z"
         id="path216" />
      <path
         style="fill:#ff0000;fill-opacity:1;stroke:#840000;stroke-width:0;stroke-opacity:1;stroke-linecap:round;stroke-linejoin:round;fill-rule:evenodd"
         d="M 4786.42,8303.81 4786.42,8815.62 4195.87,8815.62 4195.87,8303.81 Z"
         id="path218" />
    </g>
    <g
       id="g222" />
    <g
       id="g224" />
    <g
       id="g226" />
    <g
       style="fill:#ff0000;fill-opacity:1;stroke:#840000;stroke-width:0;stroke-opacity:1;stroke-linecap:round;stroke-linejoin:round"
       id="g232">
      <path
         style="fill:#ff0000;fill-opacity:1;stroke:#840000;stroke-width:0;stroke-opacity:1;stroke-linecap:round;stroke-linejoin:round;fill-rule:evenodd"
         d="M 3113.19,7713.25 3113.19,8067.59 2916.34,8067.59 2916.34,7713.25 Z"
         id="path228" />
      <path
         style="fill:#ff0000;fill-opacity:1;stroke:#840000;stroke-width:0;stroke-opacity:1;stroke-linecap:round;stroke-linejoin:round;fill-rule:evenodd"
         d="M 3703.74,7713.25 3703.74,8067.59 3506.89,8067.59 3506.89,7713.25 Z"
         id="path230" />
    </g>
    <g
       id="g234" />
    <g
       style="fill:#ff0000;fill-opacity:1;stroke:#840000;stroke-width:0;stroke-opacity:1;stroke-linecap:round;stroke-linejoin:round"
       id="g240">
      <path
         style="fill:#ff0000;fill-opacity:1;stroke:#840000;stroke-width:0;stroke-opacity:1;stroke-linecap:round;stroke-linejoin:round;fill-rule:evenodd"
         d="M 2719.49,7713.25 2719.49,8067.59 2522.64,8067.59 2522.64,7713.25 Z"
         id="path236" />
      <path
         style="fill:#ff0000;fill-opacity:1;stroke:#840000;stroke-width:0;stroke-opacity:1;stroke-linecap:round;stroke-linejoin:round;fill-rule:evenodd"
         d="M 2128.94,7713.25 2128.94,8067.59 1932.09,8067.59 1932.09,7713.25 Z"
         id="path238" />
    </g>
    <g
       id="g242" />
    <g
       id="g244" />
    <g
       id="g246" />
  </g>
  <g
     style="fill:#000000; fill-opacity:1.0;  stroke:#000000; stroke-width:0; stroke-opacity:1;  stroke-linecap:round; stroke-linejoin:round;"
     id="g250" />
  <g
     style="fill:#C2C200; fill-opacity:1.0;  stroke:#C2C200; stroke-width:0; stroke-opacity:1;  stroke-linecap:round; stroke-linejoin:round;"
     id="g252" />
  <g
     style="fill:#C2C200; fill-opacity:1.0;  stroke:#C2C200; stroke-width:59.0551; stroke-opacity:1;  stroke-linecap:round; stroke-linejoin:round;"
     id="g254" />
  <g
     style="fill:#C2C200; fill-opacity:0.0;  stroke:#C2C200; stroke-width:59.0551; stroke-opacity:1;  stroke-linecap:round; stroke-linejoin:round;"
     id="g330">
    <path
       d="M8959 9347 L1085 9347 "
       id="path256" />
    <path
       d="M8959 2260 L1085 2260 "
       id="path258" />
    <path
       d="M9353.35 2654.2 A393.701 393.701 0.0 0 0 8959.65 2260.5"
       id="path260" />
    <path
       d="M1085.63 2260.5 A393.701 393.701 0.0 0 0 691.929 2654.2"
       id="path262" />
    <path
       d="M8959.65 9347.11 A393.701 393.701 0.0 0 0 9353.35 8953.41"
       id="path264" />
    <path
       d="M691.929 8953.41 A393.701 393.701 0.0 0 0 1085.63 9347.11"
       id="path266" />
    <path
       d="M691 2654 L691 8953 "
       id="path268" />
    <path
       d="M9353 8953 L9353 2654 "
       id="path270" />
    <g
       id="g272" />
    <g
       id="g274" />
    <g
       id="g276" />
    <g
       id="g278" />
    <g
       id="g280" />
    <g
       id="g282" />
    <g
       id="g284" />
    <g
       id="g286" />
    <g
       id="g288" />
    <g
       id="g290" />
    <g
       id="g292" />
    <g
       id="g294" />
    <g
       id="g296" />
    <g
       id="g298" />
    <g
       id="g300" />
    <g
       id="g302" />
    <g
       id="g304" />
    <g
       id="g306" />
    <g
       id="g308" />
    <g
       id="g310" />
    <g
       id="g312" />
    <g
       id="g314" />
    <g
       id="g316" />
    <g
       id="g318" />
    <g
       id="g320" />
    <g
       id="g322" />
    <g
       id="g324" />
    <g
       id="g326" />
    <g
       id="g328" />
  </g>
</svg>
