%MOIN*%
%OFA0B0*%
%FSLAX46Y46*%
%IPPOS*%
%LPD*%
%ADD10C,0.005905511811023622*%
%ADD11C,0.12000000000000001*%
%ADD12C,0.090000000000000011*%
%ADD13C,0.066929133858267723*%
%ADD14R,0.059055118110236227X0.059055118110236227*%
%ADD15C,0.062992125984251982*%
%ADD16C,0.024000000000000004*%
%ADD17C,0.016*%
%ADD28C,0.005905511811023622*%
%ADD29C,0.12000000000000001*%
%ADD30C,0.090000000000000011*%
%ADD31C,0.066929133858267723*%
%ADD32R,0.059055118110236227X0.059055118110236227*%
%ADD33C,0.062992125984251982*%
%ADD34C,0.024000000000000004*%
%ADD35C,0.016*%
%ADD46C,0.005905511811023622*%
%ADD47C,0.12000000000000001*%
%ADD48C,0.090000000000000011*%
%ADD49C,0.066929133858267723*%
%ADD50R,0.059055118110236227X0.059055118110236227*%
%ADD51C,0.062992125984251982*%
%ADD52C,0.024000000000000004*%
%ADD53C,0.016*%
%ADD64C,0.005905511811023622*%
%ADD65C,0.12000000000000001*%
%ADD66C,0.090000000000000011*%
%ADD67C,0.066929133858267723*%
%ADD68R,0.059055118110236227X0.059055118110236227*%
%ADD69C,0.062992125984251982*%
%ADD70C,0.024000000000000004*%
%ADD71C,0.016*%
%ADD82C,0.005905511811023622*%
%ADD83C,0.12000000000000001*%
%ADD84C,0.090000000000000011*%
%ADD85C,0.066929133858267723*%
%ADD86R,0.059055118110236227X0.059055118110236227*%
%ADD87C,0.062992125984251982*%
%ADD88C,0.024000000000000004*%
%ADD89C,0.016*%
%ADD100C,0.005905511811023622*%
%ADD101C,0.12000000000000001*%
%ADD102C,0.090000000000000011*%
%ADD103C,0.066929133858267723*%
%ADD104R,0.059055118110236227X0.059055118110236227*%
%ADD105C,0.062992125984251982*%
%ADD106C,0.024000000000000004*%
%ADD107C,0.016*%
%LPD*%
G01*
D10*
D11*
X-0005050000Y0006532283D02*
X0000704999Y0002357283D03*
X0000404999Y0002357283D03*
X0000104999Y0002357283D03*
X0001734999Y0002357283D03*
X0002034999Y0002357283D03*
D12*
X0001032675Y0002034250D03*
X0001032675Y0001798031D03*
X0000737400Y0002034250D03*
X0000737400Y0001798031D03*
D13*
X0001947242Y0001886614D03*
X0002047243Y0001886614D03*
D14*
X0001572202Y0002004724D03*
D15*
X0001642912Y0001934013D03*
X0001713623Y0002004724D03*
D13*
X0001157480Y0001807873D03*
X0001557479Y0001807873D03*
D14*
X0000125590Y0001906299D03*
D15*
X0000225590Y0001906299D03*
X0000325590Y0001906299D03*
D16*
X0002047243Y0001886614D02*
X0002047243Y0002345039D01*
X0002047243Y0002345039D02*
X0002034999Y0002357283D01*
X0001713623Y0002004724D02*
X0001713623Y0002335907D01*
X0001713623Y0002335907D02*
X0001734999Y0002357283D01*
X0001734999Y0002357283D02*
X0002034999Y0002357283D01*
X0000737400Y0002053936D02*
X0000806299Y0002122834D01*
X0000737400Y0002034250D02*
X0000737400Y0002053936D01*
X0000806299Y0002122834D02*
X0001454092Y0002122834D01*
X0001454092Y0002122834D02*
X0001572202Y0002004724D01*
D17*
X0001572202Y0002004724D02*
X0001642912Y0002004724D01*
X0001761023Y0001886614D02*
X0001947242Y0001886614D01*
X0001642912Y0002004724D02*
X0001761023Y0001886614D01*
D16*
X0000734251Y0002006298D02*
X0000738976Y0002006298D01*
X0001564173Y0002012753D02*
X0001572202Y0002004724D01*
X0001642912Y0001866929D02*
X0001642912Y0001837401D01*
X0001642912Y0001934013D02*
X0001642912Y0001866929D01*
X0001613385Y0001807873D02*
X0001557479Y0001807873D01*
X0001642912Y0001837401D02*
X0001613385Y0001807873D01*
X0001587007Y0001807873D02*
X0001587007Y0001811023D01*
X0001646061Y0001930864D02*
X0001642912Y0001934013D01*
X0001157480Y0001807873D02*
X0001042519Y0001807873D01*
X0001042519Y0001807873D02*
X0001032675Y0001798031D01*
X0000737400Y0001798031D02*
X0000816141Y0001798031D01*
X0000914566Y0002034250D02*
X0001032675Y0002034250D01*
X0000885039Y0002004724D02*
X0000914566Y0002034250D01*
X0000885039Y0001866929D02*
X0000885039Y0002004724D01*
X0000816141Y0001798031D02*
X0000885039Y0001866929D01*
X0000225590Y0001906299D02*
X0000225590Y0001886614D01*
X0000225590Y0001886614D02*
X0000305905Y0001806299D01*
X0000305905Y0001806299D02*
X0000734251Y0001806299D01*
X0000225590Y0001906299D02*
X0000225590Y0001906299D01*
X0000404999Y0002357283D02*
X0000704999Y0002357283D01*
X0000104999Y0002357283D02*
X0000104999Y0002007204D01*
X0000125590Y0001986614D02*
X0000125590Y0001906299D01*
X0000104999Y0002007204D02*
X0000125590Y0001986614D01*
X0000404999Y0002357283D02*
X0000104999Y0002357283D01*
X0000104999Y0002357283D02*
X0000107480Y0002354803D01*
X0000107480Y0001924409D02*
X0000125590Y0001906299D01*
G01*
D28*
D29*
X-0005050000Y0007398425D02*
X0000704999Y0003223425D03*
X0000404999Y0003223425D03*
X0000104999Y0003223425D03*
X0001734999Y0003223425D03*
X0002034999Y0003223425D03*
D30*
X0001032675Y0002900393D03*
X0001032675Y0002664173D03*
X0000737400Y0002900393D03*
X0000737400Y0002664173D03*
D31*
X0001947242Y0002752755D03*
X0002047243Y0002752755D03*
D32*
X0001572202Y0002870865D03*
D33*
X0001642912Y0002800155D03*
X0001713623Y0002870865D03*
D31*
X0001157480Y0002674015D03*
X0001557479Y0002674015D03*
D32*
X0000125590Y0002772440D03*
D33*
X0000225590Y0002772440D03*
X0000325590Y0002772440D03*
D34*
X0002047243Y0002752755D02*
X0002047243Y0003211181D01*
X0002047243Y0003211181D02*
X0002034999Y0003223425D01*
X0001713623Y0002870865D02*
X0001713623Y0003202049D01*
X0001713623Y0003202049D02*
X0001734999Y0003223425D01*
X0001734999Y0003223425D02*
X0002034999Y0003223425D01*
X0000737400Y0002920078D02*
X0000806299Y0002988976D01*
X0000737400Y0002900393D02*
X0000737400Y0002920078D01*
X0000806299Y0002988976D02*
X0001454092Y0002988976D01*
X0001454092Y0002988976D02*
X0001572202Y0002870865D01*
D35*
X0001572202Y0002870865D02*
X0001642912Y0002870865D01*
X0001761023Y0002752755D02*
X0001947242Y0002752755D01*
X0001642912Y0002870865D02*
X0001761023Y0002752755D01*
D34*
X0000734251Y0002872440D02*
X0000738976Y0002872440D01*
X0001564173Y0002878895D02*
X0001572202Y0002870865D01*
X0001642912Y0002733070D02*
X0001642912Y0002703543D01*
X0001642912Y0002800155D02*
X0001642912Y0002733070D01*
X0001613385Y0002674015D02*
X0001557479Y0002674015D01*
X0001642912Y0002703543D02*
X0001613385Y0002674015D01*
X0001587007Y0002674015D02*
X0001587007Y0002677165D01*
X0001646061Y0002797005D02*
X0001642912Y0002800155D01*
X0001157480Y0002674015D02*
X0001042519Y0002674015D01*
X0001042519Y0002674015D02*
X0001032675Y0002664173D01*
X0000737400Y0002664173D02*
X0000816141Y0002664173D01*
X0000914566Y0002900393D02*
X0001032675Y0002900393D01*
X0000885039Y0002870865D02*
X0000914566Y0002900393D01*
X0000885039Y0002733070D02*
X0000885039Y0002870865D01*
X0000816141Y0002664173D02*
X0000885039Y0002733070D01*
X0000225590Y0002772440D02*
X0000225590Y0002752755D01*
X0000225590Y0002752755D02*
X0000305905Y0002672440D01*
X0000305905Y0002672440D02*
X0000734251Y0002672440D01*
X0000225590Y0002772440D02*
X0000225590Y0002772440D01*
X0000404999Y0003223425D02*
X0000704999Y0003223425D01*
X0000104999Y0003223425D02*
X0000104999Y0002873346D01*
X0000125590Y0002852755D02*
X0000125590Y0002772440D01*
X0000104999Y0002873346D02*
X0000125590Y0002852755D01*
X0000404999Y0003223425D02*
X0000104999Y0003223425D01*
X0000104999Y0003223425D02*
X0000107480Y0003220944D01*
X0000107480Y0002790550D02*
X0000125590Y0002772440D01*
G04 next file*
%LPD*%
G01*
D46*
D47*
X-0005050000Y0004799999D02*
X0000704999Y0000624999D03*
X0000404999Y0000624999D03*
X0000104999Y0000624999D03*
X0001734999Y0000624999D03*
X0002034999Y0000624999D03*
D48*
X0001032675Y0000301968D03*
X0001032675Y0000065747D03*
X0000737400Y0000301968D03*
X0000737400Y0000065747D03*
D49*
X0001947242Y0000154330D03*
X0002047243Y0000154330D03*
D50*
X0001572202Y0000272440D03*
D51*
X0001642912Y0000201730D03*
X0001713623Y0000272440D03*
D49*
X0001157480Y0000075590D03*
X0001557479Y0000075590D03*
D50*
X0000125590Y0000174015D03*
D51*
X0000225590Y0000174015D03*
X0000325590Y0000174015D03*
D52*
X0002047243Y0000154330D02*
X0002047243Y0000612755D01*
X0002047243Y0000612755D02*
X0002034999Y0000624999D01*
X0001713623Y0000272440D02*
X0001713623Y0000603623D01*
X0001713623Y0000603623D02*
X0001734999Y0000624999D01*
X0001734999Y0000624999D02*
X0002034999Y0000624999D01*
X0000737400Y0000321653D02*
X0000806299Y0000390551D01*
X0000737400Y0000301968D02*
X0000737400Y0000321653D01*
X0000806299Y0000390551D02*
X0001454092Y0000390551D01*
X0001454092Y0000390551D02*
X0001572202Y0000272440D01*
D53*
X0001572202Y0000272440D02*
X0001642912Y0000272440D01*
X0001761023Y0000154330D02*
X0001947242Y0000154330D01*
X0001642912Y0000272440D02*
X0001761023Y0000154330D01*
D52*
X0000734251Y0000274015D02*
X0000738976Y0000274015D01*
X0001564173Y0000280470D02*
X0001572202Y0000272440D01*
X0001642912Y0000134645D02*
X0001642912Y0000105118D01*
X0001642912Y0000201730D02*
X0001642912Y0000134645D01*
X0001613385Y0000075590D02*
X0001557479Y0000075590D01*
X0001642912Y0000105118D02*
X0001613385Y0000075590D01*
X0001587007Y0000075590D02*
X0001587007Y0000078740D01*
X0001646061Y0000198580D02*
X0001642912Y0000201730D01*
X0001157480Y0000075590D02*
X0001042519Y0000075590D01*
X0001042519Y0000075590D02*
X0001032675Y0000065747D01*
X0000737400Y0000065747D02*
X0000816141Y0000065747D01*
X0000914566Y0000301968D02*
X0001032675Y0000301968D01*
X0000885039Y0000272440D02*
X0000914566Y0000301968D01*
X0000885039Y0000134645D02*
X0000885039Y0000272440D01*
X0000816141Y0000065747D02*
X0000885039Y0000134645D01*
X0000225590Y0000174015D02*
X0000225590Y0000154330D01*
X0000225590Y0000154330D02*
X0000305905Y0000074015D01*
X0000305905Y0000074015D02*
X0000734251Y0000074015D01*
X0000225590Y0000174015D02*
X0000225590Y0000174015D01*
X0000404999Y0000624999D02*
X0000704999Y0000624999D01*
X0000104999Y0000624999D02*
X0000104999Y0000274921D01*
X0000125590Y0000254330D02*
X0000125590Y0000174015D01*
X0000104999Y0000274921D02*
X0000125590Y0000254330D01*
X0000404999Y0000624999D02*
X0000104999Y0000624999D01*
X0000104999Y0000624999D02*
X0000107480Y0000622519D01*
X0000107480Y0000192124D02*
X0000125590Y0000174015D01*
G01*
D64*
D65*
X-0001771653Y-0004448818D02*
X0002403346Y0001306181D03*
X0002403346Y0001006181D03*
X0002403346Y0000706181D03*
X0002403346Y0002336181D03*
X0002403346Y0002636181D03*
D66*
X0002726377Y0001633858D03*
X0002962598Y0001633858D03*
X0002726377Y0001338582D03*
X0002962598Y0001338582D03*
D67*
X0002874015Y0002548424D03*
X0002874015Y0002648425D03*
D68*
X0002755905Y0002173383D03*
D69*
X0002826616Y0002244094D03*
X0002755905Y0002314805D03*
D67*
X0002952755Y0001758661D03*
X0002952755Y0002158661D03*
D68*
X0002854330Y0000726771D03*
D69*
X0002854330Y0000826771D03*
X0002854330Y0000926771D03*
D70*
X0002874015Y0002648425D02*
X0002415590Y0002648425D01*
X0002415590Y0002648425D02*
X0002403346Y0002636181D01*
X0002755905Y0002314805D02*
X0002424722Y0002314805D01*
X0002424722Y0002314805D02*
X0002403346Y0002336181D01*
X0002403346Y0002336181D02*
X0002403346Y0002636181D01*
X0002706692Y0001338582D02*
X0002637795Y0001407480D01*
X0002726377Y0001338582D02*
X0002706692Y0001338582D01*
X0002637795Y0001407480D02*
X0002637795Y0002055273D01*
X0002637795Y0002055273D02*
X0002755905Y0002173383D01*
D71*
X0002755905Y0002173383D02*
X0002755905Y0002244094D01*
X0002874015Y0002362204D02*
X0002874015Y0002548424D01*
X0002755905Y0002244094D02*
X0002874015Y0002362204D01*
D70*
X0002754330Y0001335433D02*
X0002754330Y0001340157D01*
X0002747876Y0002165354D02*
X0002755905Y0002173383D01*
X0002893700Y0002244094D02*
X0002923228Y0002244094D01*
X0002826616Y0002244094D02*
X0002893700Y0002244094D01*
X0002952755Y0002214566D02*
X0002952755Y0002158661D01*
X0002923228Y0002244094D02*
X0002952755Y0002214566D01*
X0002952755Y0002188188D02*
X0002949606Y0002188188D01*
X0002829765Y0002247244D02*
X0002826616Y0002244094D01*
X0002952755Y0001758661D02*
X0002952755Y0001643700D01*
X0002952755Y0001643700D02*
X0002962598Y0001633858D01*
X0002962598Y0001338582D02*
X0002962598Y0001417321D01*
X0002726377Y0001515748D02*
X0002726377Y0001633858D01*
X0002755905Y0001486220D02*
X0002726377Y0001515748D01*
X0002893700Y0001486220D02*
X0002755905Y0001486220D01*
X0002962598Y0001417321D02*
X0002893700Y0001486220D01*
X0002854330Y0000826771D02*
X0002874015Y0000826771D01*
X0002874015Y0000826771D02*
X0002954330Y0000907086D01*
X0002954330Y0000907086D02*
X0002954330Y0001335433D01*
X0002854330Y0000826771D02*
X0002854330Y0000826771D01*
X0002403346Y0001006181D02*
X0002403346Y0001306181D01*
X0002403346Y0000706181D02*
X0002753425Y0000706181D01*
X0002774015Y0000726771D02*
X0002854330Y0000726771D01*
X0002753425Y0000706181D02*
X0002774015Y0000726771D01*
X0002403346Y0001006181D02*
X0002403346Y0000706181D01*
X0002403346Y0000706181D02*
X0002405826Y0000708660D01*
X0002836220Y0000708660D02*
X0002854330Y0000726771D01*
G04 next file*
G01*
D82*
D83*
X-0000902362Y-0004459448D02*
X0003272637Y0001295550D03*
X0003272637Y0000995550D03*
X0003272637Y0000695550D03*
X0003272637Y0002325550D03*
X0003272637Y0002625550D03*
D84*
X0003595669Y0001623228D03*
X0003831888Y0001623228D03*
X0003595669Y0001327952D03*
X0003831888Y0001327952D03*
D85*
X0003743307Y0002537795D03*
X0003743307Y0002637795D03*
D86*
X0003625196Y0002162753D03*
D87*
X0003695907Y0002233464D03*
X0003625196Y0002304175D03*
D85*
X0003822047Y0001748031D03*
X0003822047Y0002148031D03*
D86*
X0003723622Y0000716141D03*
D87*
X0003723622Y0000816141D03*
X0003723622Y0000916141D03*
D88*
X0003743307Y0002637795D02*
X0003284881Y0002637795D01*
X0003284881Y0002637795D02*
X0003272637Y0002625550D01*
X0003625196Y0002304175D02*
X0003294013Y0002304175D01*
X0003294013Y0002304175D02*
X0003272637Y0002325550D01*
X0003272637Y0002325550D02*
X0003272637Y0002625550D01*
X0003575984Y0001327952D02*
X0003507086Y0001396850D01*
X0003595669Y0001327952D02*
X0003575984Y0001327952D01*
X0003507086Y0001396850D02*
X0003507086Y0002044643D01*
X0003507086Y0002044643D02*
X0003625196Y0002162753D01*
D89*
X0003625196Y0002162753D02*
X0003625196Y0002233464D01*
X0003743307Y0002351574D02*
X0003743307Y0002537795D01*
X0003625196Y0002233464D02*
X0003743307Y0002351574D01*
D88*
X0003623621Y0001324802D02*
X0003623621Y0001329527D01*
X0003617167Y0002154724D02*
X0003625196Y0002162753D01*
X0003762992Y0002233464D02*
X0003792519Y0002233464D01*
X0003695907Y0002233464D02*
X0003762992Y0002233464D01*
X0003822047Y0002203936D02*
X0003822047Y0002148031D01*
X0003792519Y0002233464D02*
X0003822047Y0002203936D01*
X0003822047Y0002177558D02*
X0003818897Y0002177558D01*
X0003699057Y0002236613D02*
X0003695907Y0002233464D01*
X0003822047Y0001748031D02*
X0003822047Y0001633070D01*
X0003822047Y0001633070D02*
X0003831888Y0001623228D01*
X0003831888Y0001327952D02*
X0003831888Y0001406692D01*
X0003595669Y0001505117D02*
X0003595669Y0001623228D01*
X0003625196Y0001475590D02*
X0003595669Y0001505117D01*
X0003762992Y0001475590D02*
X0003625196Y0001475590D01*
X0003831888Y0001406692D02*
X0003762992Y0001475590D01*
X0003723622Y0000816141D02*
X0003743307Y0000816141D01*
X0003743307Y0000816141D02*
X0003823622Y0000896456D01*
X0003823622Y0000896456D02*
X0003823622Y0001324802D01*
X0003723622Y0000816141D02*
X0003723622Y0000816141D01*
X0003272637Y0000995550D02*
X0003272637Y0001295550D01*
X0003272637Y0000695550D02*
X0003622716Y0000695550D01*
X0003643307Y0000716141D02*
X0003723622Y0000716141D01*
X0003622716Y0000695550D02*
X0003643307Y0000716141D01*
X0003272637Y0000995550D02*
X0003272637Y0000695550D01*
X0003272637Y0000695550D02*
X0003275118Y0000698031D01*
X0003705511Y0000698031D02*
X0003723622Y0000716141D01*
G04 next file*
G04 #@! TF.FileFunction,Copper,L1,Top,Signal*
G04 Gerber Fmt 4.6, Leading zero omitted, Abs format (unit mm)*
G04 Created by KiCad (PCBNEW 4.0.7) date 01/27/18 21:13:41*
G01*
G04 APERTURE LIST*
G04 APERTURE END LIST*
D100*
D101*
X-0005050000Y0005666141D02*
X0000704999Y0001491140D03*
X0000404999Y0001491140D03*
X0000104999Y0001491140D03*
X0001734999Y0001491140D03*
X0002034999Y0001491140D03*
D102*
X0001032675Y0001168110D03*
X0001032675Y0000931889D03*
X0000737400Y0001168110D03*
X0000737400Y0000931889D03*
D103*
X0001947242Y0001020472D03*
X0002047243Y0001020472D03*
D104*
X0001572202Y0001138582D03*
D105*
X0001642912Y0001067871D03*
X0001713623Y0001138582D03*
D103*
X0001157480Y0000941732D03*
X0001557479Y0000941732D03*
D104*
X0000125590Y0001040157D03*
D105*
X0000225590Y0001040157D03*
X0000325590Y0001040157D03*
D106*
X0002047243Y0001020472D02*
X0002047243Y0001478897D01*
X0002047243Y0001478897D02*
X0002034999Y0001491140D01*
X0001713623Y0001138582D02*
X0001713623Y0001469765D01*
X0001713623Y0001469765D02*
X0001734999Y0001491140D01*
X0001734999Y0001491140D02*
X0002034999Y0001491140D01*
X0000737400Y0001187795D02*
X0000806299Y0001256692D01*
X0000737400Y0001168110D02*
X0000737400Y0001187795D01*
X0000806299Y0001256692D02*
X0001454092Y0001256692D01*
X0001454092Y0001256692D02*
X0001572202Y0001138582D01*
D107*
X0001572202Y0001138582D02*
X0001642912Y0001138582D01*
X0001761023Y0001020472D02*
X0001947242Y0001020472D01*
X0001642912Y0001138582D02*
X0001761023Y0001020472D01*
D106*
X0000734251Y0001140157D02*
X0000738976Y0001140157D01*
X0001564173Y0001146612D02*
X0001572202Y0001138582D01*
X0001642912Y0001000787D02*
X0001642912Y0000971258D01*
X0001642912Y0001067871D02*
X0001642912Y0001000787D01*
X0001613385Y0000941732D02*
X0001557479Y0000941732D01*
X0001642912Y0000971258D02*
X0001613385Y0000941732D01*
X0001587007Y0000941732D02*
X0001587007Y0000944881D01*
X0001646061Y0001064722D02*
X0001642912Y0001067871D01*
X0001157480Y0000941732D02*
X0001042519Y0000941732D01*
X0001042519Y0000941732D02*
X0001032675Y0000931889D01*
X0000737400Y0000931889D02*
X0000816141Y0000931889D01*
X0000914566Y0001168110D02*
X0001032675Y0001168110D01*
X0000885039Y0001138582D02*
X0000914566Y0001168110D01*
X0000885039Y0001000787D02*
X0000885039Y0001138582D01*
X0000816141Y0000931889D02*
X0000885039Y0001000787D01*
X0000225590Y0001040157D02*
X0000225590Y0001020472D01*
X0000225590Y0001020472D02*
X0000305905Y0000940157D01*
X0000305905Y0000940157D02*
X0000734251Y0000940157D01*
X0000225590Y0001040157D02*
X0000225590Y0001040157D01*
X0000404999Y0001491140D02*
X0000704999Y0001491140D01*
X0000104999Y0001491140D02*
X0000104999Y0001141062D01*
X0000125590Y0001120472D02*
X0000125590Y0001040157D01*
X0000104999Y0001141062D02*
X0000125590Y0001120472D01*
X0000404999Y0001491140D02*
X0000104999Y0001491140D01*
X0000104999Y0001491140D02*
X0000107480Y0001488661D01*
X0000107480Y0001058267D02*
X0000125590Y0001040157D01*
M02*