G04 #@! TF.FileFunction,Legend,Top*
%FSLAX46Y46*%
G04 Gerber Fmt 4.6, Leading zero omitted, Abs format (unit mm)*
G04 Created by KiCad (PCBNEW 4.0.7) date 09/06/18 10:52:36*
%MOMM*%
%LPD*%
G01*
G04 APERTURE LIST*
%ADD10C,0.150000*%
%ADD11C,0.400000*%
%ADD12C,0.200000*%
%ADD13C,0.300000*%
%ADD14C,0.635000*%
%ADD15C,0.254000*%
%ADD16C,0.508000*%
%ADD17C,0.203200*%
%ADD18C,0.152400*%
%ADD19C,0.304800*%
%ADD20C,0.250000*%
G04 APERTURE END LIST*
D10*
D11*
X144500000Y-108000000D02*
X144500000Y-107500000D01*
X139750000Y-108000000D02*
X144500000Y-108000000D01*
X139750000Y-107500000D02*
X139750000Y-108000000D01*
X137000000Y-107750000D02*
X137000000Y-107500000D01*
X132000000Y-108000000D02*
X137000000Y-108000000D01*
X132000000Y-107500000D02*
X132000000Y-108000000D01*
D12*
X160011905Y-118452381D02*
X159678571Y-117976190D01*
X159440476Y-118452381D02*
X159440476Y-117452381D01*
X159821429Y-117452381D01*
X159916667Y-117500000D01*
X159964286Y-117547619D01*
X160011905Y-117642857D01*
X160011905Y-117785714D01*
X159964286Y-117880952D01*
X159916667Y-117928571D01*
X159821429Y-117976190D01*
X159440476Y-117976190D01*
X160440476Y-117928571D02*
X160773810Y-117928571D01*
X160916667Y-118452381D02*
X160440476Y-118452381D01*
X160440476Y-117452381D01*
X160916667Y-117452381D01*
X161297619Y-118404762D02*
X161440476Y-118452381D01*
X161678572Y-118452381D01*
X161773810Y-118404762D01*
X161821429Y-118357143D01*
X161869048Y-118261905D01*
X161869048Y-118166667D01*
X161821429Y-118071429D01*
X161773810Y-118023810D01*
X161678572Y-117976190D01*
X161488095Y-117928571D01*
X161392857Y-117880952D01*
X161345238Y-117833333D01*
X161297619Y-117738095D01*
X161297619Y-117642857D01*
X161345238Y-117547619D01*
X161392857Y-117500000D01*
X161488095Y-117452381D01*
X161726191Y-117452381D01*
X161869048Y-117500000D01*
X162297619Y-118452381D02*
X162297619Y-117452381D01*
X162726190Y-118404762D02*
X162869047Y-118452381D01*
X163107143Y-118452381D01*
X163202381Y-118404762D01*
X163250000Y-118357143D01*
X163297619Y-118261905D01*
X163297619Y-118166667D01*
X163250000Y-118071429D01*
X163202381Y-118023810D01*
X163107143Y-117976190D01*
X162916666Y-117928571D01*
X162821428Y-117880952D01*
X162773809Y-117833333D01*
X162726190Y-117738095D01*
X162726190Y-117642857D01*
X162773809Y-117547619D01*
X162821428Y-117500000D01*
X162916666Y-117452381D01*
X163154762Y-117452381D01*
X163297619Y-117500000D01*
X163583333Y-117452381D02*
X164154762Y-117452381D01*
X163869047Y-118452381D02*
X163869047Y-117452381D01*
X164678571Y-117452381D02*
X164869048Y-117452381D01*
X164964286Y-117500000D01*
X165059524Y-117595238D01*
X165107143Y-117785714D01*
X165107143Y-118119048D01*
X165059524Y-118309524D01*
X164964286Y-118404762D01*
X164869048Y-118452381D01*
X164678571Y-118452381D01*
X164583333Y-118404762D01*
X164488095Y-118309524D01*
X164440476Y-118119048D01*
X164440476Y-117785714D01*
X164488095Y-117595238D01*
X164583333Y-117500000D01*
X164678571Y-117452381D01*
X166107143Y-118452381D02*
X165773809Y-117976190D01*
X165535714Y-118452381D02*
X165535714Y-117452381D01*
X165916667Y-117452381D01*
X166011905Y-117500000D01*
X166059524Y-117547619D01*
X166107143Y-117642857D01*
X166107143Y-117785714D01*
X166059524Y-117880952D01*
X166011905Y-117928571D01*
X165916667Y-117976190D01*
X165535714Y-117976190D01*
X131500000Y-114904762D02*
X131642857Y-114952381D01*
X131880953Y-114952381D01*
X131976191Y-114904762D01*
X132023810Y-114857143D01*
X132071429Y-114761905D01*
X132071429Y-114666667D01*
X132023810Y-114571429D01*
X131976191Y-114523810D01*
X131880953Y-114476190D01*
X131690476Y-114428571D01*
X131595238Y-114380952D01*
X131547619Y-114333333D01*
X131500000Y-114238095D01*
X131500000Y-114142857D01*
X131547619Y-114047619D01*
X131595238Y-114000000D01*
X131690476Y-113952381D01*
X131928572Y-113952381D01*
X132071429Y-114000000D01*
X132404762Y-113952381D02*
X132642857Y-114952381D01*
X132833334Y-114238095D01*
X133023810Y-114952381D01*
X133261905Y-113952381D01*
X133642857Y-114952381D02*
X133642857Y-113952381D01*
X133976190Y-113952381D02*
X134547619Y-113952381D01*
X134261904Y-114952381D02*
X134261904Y-113952381D01*
X135452381Y-114857143D02*
X135404762Y-114904762D01*
X135261905Y-114952381D01*
X135166667Y-114952381D01*
X135023809Y-114904762D01*
X134928571Y-114809524D01*
X134880952Y-114714286D01*
X134833333Y-114523810D01*
X134833333Y-114380952D01*
X134880952Y-114190476D01*
X134928571Y-114095238D01*
X135023809Y-114000000D01*
X135166667Y-113952381D01*
X135261905Y-113952381D01*
X135404762Y-114000000D01*
X135452381Y-114047619D01*
X135880952Y-114952381D02*
X135880952Y-113952381D01*
X135880952Y-114428571D02*
X136452381Y-114428571D01*
X136452381Y-114952381D02*
X136452381Y-113952381D01*
X165666667Y-112702381D02*
X166238096Y-112702381D01*
X165952381Y-113702381D02*
X165952381Y-112702381D01*
X167142858Y-113702381D02*
X166809524Y-113226190D01*
X166571429Y-113702381D02*
X166571429Y-112702381D01*
X166952382Y-112702381D01*
X167047620Y-112750000D01*
X167095239Y-112797619D01*
X167142858Y-112892857D01*
X167142858Y-113035714D01*
X167095239Y-113130952D01*
X167047620Y-113178571D01*
X166952382Y-113226190D01*
X166571429Y-113226190D01*
X167523810Y-113416667D02*
X168000001Y-113416667D01*
X167428572Y-113702381D02*
X167761905Y-112702381D01*
X168095239Y-113702381D01*
X168428572Y-113702381D02*
X168428572Y-112702381D01*
X169000001Y-113702381D01*
X169000001Y-112702381D01*
X169428572Y-113654762D02*
X169571429Y-113702381D01*
X169809525Y-113702381D01*
X169904763Y-113654762D01*
X169952382Y-113607143D01*
X170000001Y-113511905D01*
X170000001Y-113416667D01*
X169952382Y-113321429D01*
X169904763Y-113273810D01*
X169809525Y-113226190D01*
X169619048Y-113178571D01*
X169523810Y-113130952D01*
X169476191Y-113083333D01*
X169428572Y-112988095D01*
X169428572Y-112892857D01*
X169476191Y-112797619D01*
X169523810Y-112750000D01*
X169619048Y-112702381D01*
X169857144Y-112702381D01*
X170000001Y-112750000D01*
X170428572Y-113702381D02*
X170428572Y-112702381D01*
X170857143Y-113654762D02*
X171000000Y-113702381D01*
X171238096Y-113702381D01*
X171333334Y-113654762D01*
X171380953Y-113607143D01*
X171428572Y-113511905D01*
X171428572Y-113416667D01*
X171380953Y-113321429D01*
X171333334Y-113273810D01*
X171238096Y-113226190D01*
X171047619Y-113178571D01*
X170952381Y-113130952D01*
X170904762Y-113083333D01*
X170857143Y-112988095D01*
X170857143Y-112892857D01*
X170904762Y-112797619D01*
X170952381Y-112750000D01*
X171047619Y-112702381D01*
X171285715Y-112702381D01*
X171428572Y-112750000D01*
X171714286Y-112702381D02*
X172285715Y-112702381D01*
X172000000Y-113702381D02*
X172000000Y-112702381D01*
X172809524Y-112702381D02*
X173000001Y-112702381D01*
X173095239Y-112750000D01*
X173190477Y-112845238D01*
X173238096Y-113035714D01*
X173238096Y-113369048D01*
X173190477Y-113559524D01*
X173095239Y-113654762D01*
X173000001Y-113702381D01*
X172809524Y-113702381D01*
X172714286Y-113654762D01*
X172619048Y-113559524D01*
X172571429Y-113369048D01*
X172571429Y-113035714D01*
X172619048Y-112845238D01*
X172714286Y-112750000D01*
X172809524Y-112702381D01*
X174238096Y-113702381D02*
X173904762Y-113226190D01*
X173666667Y-113702381D02*
X173666667Y-112702381D01*
X174047620Y-112702381D01*
X174142858Y-112750000D01*
X174190477Y-112797619D01*
X174238096Y-112892857D01*
X174238096Y-113035714D01*
X174190477Y-113130952D01*
X174142858Y-113178571D01*
X174047620Y-113226190D01*
X173666667Y-113226190D01*
D13*
X130357143Y-119678571D02*
X130642857Y-119678571D01*
X130785715Y-119750000D01*
X130928572Y-119892857D01*
X131000000Y-120178571D01*
X131000000Y-120678571D01*
X130928572Y-120964286D01*
X130785715Y-121107143D01*
X130642857Y-121178571D01*
X130357143Y-121178571D01*
X130214286Y-121107143D01*
X130071429Y-120964286D01*
X130000000Y-120678571D01*
X130000000Y-120178571D01*
X130071429Y-119892857D01*
X130214286Y-119750000D01*
X130357143Y-119678571D01*
X131642858Y-121178571D02*
X131642858Y-119678571D01*
X132500001Y-121178571D01*
X132500001Y-119678571D01*
X135785715Y-119678571D02*
X136071429Y-119678571D01*
X136214287Y-119750000D01*
X136357144Y-119892857D01*
X136428572Y-120178571D01*
X136428572Y-120678571D01*
X136357144Y-120964286D01*
X136214287Y-121107143D01*
X136071429Y-121178571D01*
X135785715Y-121178571D01*
X135642858Y-121107143D01*
X135500001Y-120964286D01*
X135428572Y-120678571D01*
X135428572Y-120178571D01*
X135500001Y-119892857D01*
X135642858Y-119750000D01*
X135785715Y-119678571D01*
X137571430Y-120392857D02*
X137071430Y-120392857D01*
X137071430Y-121178571D02*
X137071430Y-119678571D01*
X137785716Y-119678571D01*
X138857144Y-120392857D02*
X138357144Y-120392857D01*
X138357144Y-121178571D02*
X138357144Y-119678571D01*
X139071430Y-119678571D01*
D14*
X145981488Y-109859048D02*
X145754702Y-111673333D01*
X145588393Y-112036190D01*
X145316250Y-112278095D01*
X144938274Y-112399048D01*
X144696369Y-112399048D01*
X147236369Y-112399048D02*
X147009583Y-112278095D01*
X146903750Y-112157143D01*
X146813036Y-111915238D01*
X146903751Y-111189524D01*
X147054941Y-110947619D01*
X147191012Y-110826667D01*
X147448036Y-110705714D01*
X147810893Y-110705714D01*
X148037679Y-110826667D01*
X148143512Y-110947619D01*
X148234227Y-111189524D01*
X148143512Y-111915238D01*
X147992321Y-112157143D01*
X147856250Y-112278095D01*
X147599226Y-112399048D01*
X147236369Y-112399048D01*
X150471845Y-110705714D02*
X150260178Y-112399048D01*
X149383274Y-110705714D02*
X149216964Y-112036190D01*
X149307678Y-112278095D01*
X149534464Y-112399048D01*
X149897321Y-112399048D01*
X150154345Y-112278095D01*
X150290416Y-112157143D01*
X151832559Y-112399048D02*
X151605773Y-112278095D01*
X151515059Y-112036190D01*
X151787202Y-109859048D01*
X153782916Y-112278095D02*
X153525892Y-112399048D01*
X153042083Y-112399048D01*
X152815297Y-112278095D01*
X152724583Y-112036190D01*
X152845536Y-111068571D01*
X152996726Y-110826667D01*
X153253750Y-110705714D01*
X153737559Y-110705714D01*
X153964345Y-110826667D01*
X154055059Y-111068571D01*
X154024821Y-111310476D01*
X152785059Y-111552381D01*
X156867202Y-109859048D02*
X158318630Y-109859048D01*
X157275416Y-112399048D02*
X157592916Y-109859048D01*
X158847797Y-112399048D02*
X159165297Y-109859048D01*
X159936368Y-112399048D02*
X160102678Y-111068571D01*
X160011964Y-110826667D01*
X159785178Y-110705714D01*
X159422321Y-110705714D01*
X159165297Y-110826667D01*
X159029226Y-110947619D01*
X161145892Y-112399048D02*
X161357559Y-110705714D01*
X161463392Y-109859048D02*
X161327321Y-109980000D01*
X161433154Y-110100952D01*
X161569225Y-109980000D01*
X161463392Y-109859048D01*
X161433154Y-110100952D01*
X163338154Y-112278095D02*
X163081130Y-112399048D01*
X162597321Y-112399048D01*
X162370535Y-112278095D01*
X162279821Y-112036190D01*
X162400774Y-111068571D01*
X162551964Y-110826667D01*
X162808988Y-110705714D01*
X163292797Y-110705714D01*
X163519583Y-110826667D01*
X163610297Y-111068571D01*
X163580059Y-111310476D01*
X162340297Y-111552381D01*
X164381369Y-110705714D02*
X165348988Y-110705714D01*
X164532559Y-112399048D02*
X164804702Y-110221905D01*
X164955892Y-109980000D01*
X165212916Y-109859048D01*
X165454821Y-109859048D01*
D13*
X177178572Y-119607143D02*
X178321429Y-119607143D01*
X177750000Y-120178571D02*
X177750000Y-119035714D01*
D15*
X171072571Y-117677429D02*
X171217714Y-117725810D01*
X171266095Y-117774190D01*
X171314476Y-117870952D01*
X171314476Y-118016095D01*
X171266095Y-118112857D01*
X171217714Y-118161238D01*
X171120952Y-118209619D01*
X170733905Y-118209619D01*
X170733905Y-117193619D01*
X171072571Y-117193619D01*
X171169333Y-117242000D01*
X171217714Y-117290381D01*
X171266095Y-117387143D01*
X171266095Y-117483905D01*
X171217714Y-117580667D01*
X171169333Y-117629048D01*
X171072571Y-117677429D01*
X170733905Y-117677429D01*
X168064476Y-117112857D02*
X168016095Y-117161238D01*
X167870952Y-117209619D01*
X167774190Y-117209619D01*
X167629048Y-117161238D01*
X167532286Y-117064476D01*
X167483905Y-116967714D01*
X167435524Y-116774190D01*
X167435524Y-116629048D01*
X167483905Y-116435524D01*
X167532286Y-116338762D01*
X167629048Y-116242000D01*
X167774190Y-116193619D01*
X167870952Y-116193619D01*
X168016095Y-116242000D01*
X168064476Y-116290381D01*
X172282286Y-116427429D02*
X172620952Y-116427429D01*
X172766095Y-116959619D02*
X172282286Y-116959619D01*
X172282286Y-115943619D01*
X172766095Y-115943619D01*
D16*
X151130000Y-108585000D02*
X167640000Y-108585000D01*
X151130000Y-103505000D02*
X167640000Y-103505000D01*
X151130000Y-104775000D02*
X149860000Y-104775000D01*
X149860000Y-104775000D02*
X149860000Y-107315000D01*
X149860000Y-107315000D02*
X151130000Y-107315000D01*
X151130000Y-108585000D02*
X151130000Y-103505000D01*
X167640000Y-103505000D02*
X167640000Y-108585000D01*
D13*
X148500000Y-120250000D02*
X147000000Y-120250000D01*
X148500000Y-114250000D02*
X147000000Y-114250000D01*
X153000000Y-114250000D02*
X154500000Y-114250000D01*
X153000000Y-120250000D02*
X154500000Y-120250000D01*
X148500000Y-120250000D02*
G75*
G03X149500000Y-119250000I0J1000000D01*
G01*
X149500000Y-119250000D02*
G75*
G03X148500000Y-118250000I-1000000J0D01*
G01*
X148500000Y-118250000D02*
G75*
G03X149500000Y-117250000I0J1000000D01*
G01*
X149500000Y-117250000D02*
G75*
G03X148500000Y-116250000I-1000000J0D01*
G01*
X148500000Y-116250000D02*
G75*
G03X149500000Y-115250000I0J1000000D01*
G01*
X149500000Y-115250000D02*
G75*
G03X148500000Y-114250000I-1000000J0D01*
G01*
X152000000Y-119250000D02*
G75*
G03X153000000Y-120250000I1000000J0D01*
G01*
X153000000Y-118250000D02*
G75*
G03X152000000Y-119250000I0J-1000000D01*
G01*
X152000000Y-117250000D02*
G75*
G03X153000000Y-118250000I1000000J0D01*
G01*
X153000000Y-116250000D02*
G75*
G03X152000000Y-117250000I0J-1000000D01*
G01*
X152000000Y-115250000D02*
G75*
G03X153000000Y-116250000I1000000J0D01*
G01*
X153000000Y-114250000D02*
G75*
G03X152000000Y-115250000I0J-1000000D01*
G01*
D17*
X181844800Y-119905000D02*
X181844800Y-116095000D01*
D15*
X181791997Y-116092332D02*
G75*
G03X181794000Y-119905000I-2537997J-1907668D01*
G01*
D18*
X179254000Y-116857000D02*
G75*
G03X178111000Y-118000000I0J-1143000D01*
G01*
X179254000Y-119143000D02*
G75*
G03X180397000Y-118000000I0J1143000D01*
G01*
X179254000Y-116349000D02*
G75*
G03X177603000Y-118000000I0J-1651000D01*
G01*
X179254000Y-119651000D02*
G75*
G03X180905000Y-118000000I0J1651000D01*
G01*
X179254000Y-115841000D02*
G75*
G03X177095000Y-118000000I0J-2159000D01*
G01*
X179254000Y-120159000D02*
G75*
G03X181413000Y-118000000I0J2159000D01*
G01*
D19*
X172694077Y-114101974D02*
X167305923Y-114101974D01*
X167305923Y-114101974D02*
X166407898Y-115000000D01*
X166407898Y-115000000D02*
X166407898Y-116796051D01*
X166407898Y-116796051D02*
X168203949Y-118592102D01*
X168203949Y-118592102D02*
X171796051Y-118592102D01*
X171796051Y-118592102D02*
X173592102Y-116796051D01*
X173592102Y-116796051D02*
X173592102Y-115000000D01*
X173592102Y-115000000D02*
X172694077Y-114101974D01*
X157670000Y-120000000D02*
X158686000Y-120000000D01*
X158686000Y-120000000D02*
X158686000Y-118984000D01*
X158686000Y-118984000D02*
X166814000Y-118984000D01*
X166814000Y-118984000D02*
X166814000Y-121016000D01*
X166814000Y-121016000D02*
X158686000Y-121016000D01*
X158686000Y-121016000D02*
X158686000Y-120000000D01*
X158686000Y-119492000D02*
X159194000Y-118984000D01*
X167830000Y-120000000D02*
X166814000Y-120000000D01*
X130190000Y-118770000D02*
X130190000Y-116230000D01*
X130190000Y-116230000D02*
X137810000Y-116230000D01*
X137810000Y-116230000D02*
X137810000Y-118770000D01*
X137810000Y-118770000D02*
X130190000Y-118770000D01*
X132730000Y-116230000D02*
X132730000Y-118770000D01*
D13*
X140597143Y-106295000D02*
X141311429Y-106295000D01*
X140454286Y-106723571D02*
X140954286Y-105223571D01*
X141454286Y-106723571D01*
X141882857Y-106295000D02*
X142597143Y-106295000D01*
X141740000Y-106723571D02*
X142240000Y-105223571D01*
X142740000Y-106723571D01*
X143168571Y-106295000D02*
X143882857Y-106295000D01*
X143025714Y-106723571D02*
X143525714Y-105223571D01*
X144025714Y-106723571D01*
X133286666Y-106378333D02*
X134239047Y-106378333D01*
X133096190Y-106949762D02*
X133762857Y-104949762D01*
X134429524Y-106949762D01*
X135000952Y-106378333D02*
X135953333Y-106378333D01*
X134810476Y-106949762D02*
X135477143Y-104949762D01*
X136143810Y-106949762D01*
D19*
X151553333Y-106172000D02*
X152908000Y-106172000D01*
X152230667Y-106849333D02*
X152230667Y-105494667D01*
X155702000Y-105918000D02*
X155956000Y-106002667D01*
X156040667Y-106087333D01*
X156125333Y-106256667D01*
X156125333Y-106510667D01*
X156040667Y-106680000D01*
X155956000Y-106764667D01*
X155786667Y-106849333D01*
X155109333Y-106849333D01*
X155109333Y-105071333D01*
X155702000Y-105071333D01*
X155871333Y-105156000D01*
X155956000Y-105240667D01*
X156040667Y-105410000D01*
X156040667Y-105579333D01*
X155956000Y-105748667D01*
X155871333Y-105833333D01*
X155702000Y-105918000D01*
X155109333Y-105918000D01*
X157649333Y-106849333D02*
X157649333Y-105918000D01*
X157564667Y-105748667D01*
X157395333Y-105664000D01*
X157056667Y-105664000D01*
X156887333Y-105748667D01*
X157649333Y-106764667D02*
X157480000Y-106849333D01*
X157056667Y-106849333D01*
X156887333Y-106764667D01*
X156802667Y-106595333D01*
X156802667Y-106426000D01*
X156887333Y-106256667D01*
X157056667Y-106172000D01*
X157480000Y-106172000D01*
X157649333Y-106087333D01*
X158242000Y-105664000D02*
X158919334Y-105664000D01*
X158496000Y-105071333D02*
X158496000Y-106595333D01*
X158580667Y-106764667D01*
X158750000Y-106849333D01*
X158919334Y-106849333D01*
X159258000Y-105664000D02*
X159935334Y-105664000D01*
X159512000Y-105071333D02*
X159512000Y-106595333D01*
X159596667Y-106764667D01*
X159766000Y-106849333D01*
X159935334Y-106849333D01*
X161205334Y-106764667D02*
X161036000Y-106849333D01*
X160697334Y-106849333D01*
X160528000Y-106764667D01*
X160443334Y-106595333D01*
X160443334Y-105918000D01*
X160528000Y-105748667D01*
X160697334Y-105664000D01*
X161036000Y-105664000D01*
X161205334Y-105748667D01*
X161290000Y-105918000D01*
X161290000Y-106087333D01*
X160443334Y-106256667D01*
X162052000Y-106849333D02*
X162052000Y-105664000D01*
X162052000Y-106002667D02*
X162136667Y-105833333D01*
X162221334Y-105748667D01*
X162390667Y-105664000D01*
X162560000Y-105664000D01*
X162983334Y-105664000D02*
X163406667Y-106849333D01*
X163830001Y-105664000D02*
X163406667Y-106849333D01*
X163237334Y-107272667D01*
X163152667Y-107357333D01*
X162983334Y-107442000D01*
X165862001Y-106172000D02*
X167216668Y-106172000D01*
D20*
X150182381Y-120670667D02*
X150182381Y-120099238D01*
X151182381Y-120384953D02*
X150182381Y-120384953D01*
X151182381Y-119194476D02*
X150706190Y-119527810D01*
X151182381Y-119765905D02*
X150182381Y-119765905D01*
X150182381Y-119384952D01*
X150230000Y-119289714D01*
X150277619Y-119242095D01*
X150372857Y-119194476D01*
X150515714Y-119194476D01*
X150610952Y-119242095D01*
X150658571Y-119289714D01*
X150706190Y-119384952D01*
X150706190Y-119765905D01*
X150896667Y-118813524D02*
X150896667Y-118337333D01*
X151182381Y-118908762D02*
X150182381Y-118575429D01*
X151182381Y-118242095D01*
X151182381Y-117908762D02*
X150182381Y-117908762D01*
X151182381Y-117337333D01*
X150182381Y-117337333D01*
X151134762Y-116908762D02*
X151182381Y-116765905D01*
X151182381Y-116527809D01*
X151134762Y-116432571D01*
X151087143Y-116384952D01*
X150991905Y-116337333D01*
X150896667Y-116337333D01*
X150801429Y-116384952D01*
X150753810Y-116432571D01*
X150706190Y-116527809D01*
X150658571Y-116718286D01*
X150610952Y-116813524D01*
X150563333Y-116861143D01*
X150468095Y-116908762D01*
X150372857Y-116908762D01*
X150277619Y-116861143D01*
X150230000Y-116813524D01*
X150182381Y-116718286D01*
X150182381Y-116480190D01*
X150230000Y-116337333D01*
X150658571Y-115575428D02*
X150658571Y-115908762D01*
X151182381Y-115908762D02*
X150182381Y-115908762D01*
X150182381Y-115432571D01*
X150182381Y-114861143D02*
X150182381Y-114670666D01*
X150230000Y-114575428D01*
X150325238Y-114480190D01*
X150515714Y-114432571D01*
X150849048Y-114432571D01*
X151039524Y-114480190D01*
X151134762Y-114575428D01*
X151182381Y-114670666D01*
X151182381Y-114861143D01*
X151134762Y-114956381D01*
X151039524Y-115051619D01*
X150849048Y-115099238D01*
X150515714Y-115099238D01*
X150325238Y-115051619D01*
X150230000Y-114956381D01*
X150182381Y-114861143D01*
D15*
X178346857Y-114209619D02*
X177863048Y-114209619D01*
X177863048Y-113193619D01*
X178685524Y-113677429D02*
X179024190Y-113677429D01*
X179169333Y-114209619D02*
X178685524Y-114209619D01*
X178685524Y-113193619D01*
X179169333Y-113193619D01*
X179604762Y-114209619D02*
X179604762Y-113193619D01*
X179846667Y-113193619D01*
X179991809Y-113242000D01*
X180088571Y-113338762D01*
X180136952Y-113435524D01*
X180185333Y-113629048D01*
X180185333Y-113774190D01*
X180136952Y-113967714D01*
X180088571Y-114064476D01*
X179991809Y-114161238D01*
X179846667Y-114209619D01*
X179604762Y-114209619D01*
D17*
X161298571Y-120631976D02*
X160572857Y-120631976D01*
X160935714Y-120631976D02*
X160935714Y-119234976D01*
X160814762Y-119434548D01*
X160693809Y-119567595D01*
X160572857Y-119634119D01*
X162084762Y-119234976D02*
X162205714Y-119234976D01*
X162326666Y-119301500D01*
X162387143Y-119368024D01*
X162447619Y-119501071D01*
X162508095Y-119767167D01*
X162508095Y-120099786D01*
X162447619Y-120365881D01*
X162387143Y-120498929D01*
X162326666Y-120565452D01*
X162205714Y-120631976D01*
X162084762Y-120631976D01*
X161963809Y-120565452D01*
X161903333Y-120498929D01*
X161842857Y-120365881D01*
X161782381Y-120099786D01*
X161782381Y-119767167D01*
X161842857Y-119501071D01*
X161903333Y-119368024D01*
X161963809Y-119301500D01*
X162084762Y-119234976D01*
X163294286Y-119234976D02*
X163415238Y-119234976D01*
X163536190Y-119301500D01*
X163596667Y-119368024D01*
X163657143Y-119501071D01*
X163717619Y-119767167D01*
X163717619Y-120099786D01*
X163657143Y-120365881D01*
X163596667Y-120498929D01*
X163536190Y-120565452D01*
X163415238Y-120631976D01*
X163294286Y-120631976D01*
X163173333Y-120565452D01*
X163112857Y-120498929D01*
X163052381Y-120365881D01*
X162991905Y-120099786D01*
X162991905Y-119767167D01*
X163052381Y-119501071D01*
X163112857Y-119368024D01*
X163173333Y-119301500D01*
X163294286Y-119234976D01*
X164503810Y-119234976D02*
X164624762Y-119234976D01*
X164745714Y-119301500D01*
X164806191Y-119368024D01*
X164866667Y-119501071D01*
X164927143Y-119767167D01*
X164927143Y-120099786D01*
X164866667Y-120365881D01*
X164806191Y-120498929D01*
X164745714Y-120565452D01*
X164624762Y-120631976D01*
X164503810Y-120631976D01*
X164382857Y-120565452D01*
X164322381Y-120498929D01*
X164261905Y-120365881D01*
X164201429Y-120099786D01*
X164201429Y-119767167D01*
X164261905Y-119501071D01*
X164322381Y-119368024D01*
X164382857Y-119301500D01*
X164503810Y-119234976D01*
M02*
