M48
;DRILL file {KiCad 4.0.7} date 05/25/19 09:29:56
;FORMAT={-:-/ absolute / inch / decimal}
FMAT,2
INCH,TZ
T1C0.016
T2C0.020
T3C0.024
T4C0.028
T5C0.031
T6C0.035
T7C0.039
T8C0.043
T9C0.047
T10C0.098
T11C0.098
%
G90
G05
M72
T1
X6.53Y-4.695
T2
X6.32Y-4.375
X6.3692Y-4.375
X6.4184Y-4.375
X6.4676Y-4.375
X6.5169Y-4.375
X6.5661Y-4.375
X6.75Y-4.375
X6.7992Y-4.375
X6.8484Y-4.375
X6.8976Y-4.375
X6.9469Y-4.375
X7.14Y-4.375
X7.1892Y-4.375
X7.37Y-4.375
X7.4192Y-4.375
X7.4684Y-4.375
X7.5176Y-4.375
T3
X6.07Y-4.1
X6.12Y-4.1
X6.17Y-4.1
T4
X5.3222Y-3.975
X5.3222Y-4.055
X5.3222Y-4.125
X5.4684Y-3.475
X5.5978Y-3.975
X5.5978Y-4.055
X5.5978Y-4.125
X5.6684Y-3.475
X5.7716Y-3.475
X5.9716Y-3.475
X6.5684Y-3.475
X6.5684Y-3.575
X6.5684Y-3.675
X6.7684Y-3.475
X6.7684Y-3.575
X6.7684Y-3.675
X6.8716Y-3.475
X6.8716Y-3.575
X6.8716Y-3.675
X7.0716Y-3.475
X7.0716Y-3.575
X7.0716Y-3.675
X7.345Y-3.5266
X7.345Y-3.7266
X7.4602Y-3.625
X7.4602Y-3.725
X7.4602Y-3.825
X7.785Y-3.625
X7.785Y-3.725
X7.785Y-3.825
T5
X5.37Y-3.575
X5.37Y-3.875
X5.47Y-3.575
X5.47Y-3.875
X5.57Y-3.575
X5.57Y-3.875
X5.67Y-3.575
X5.67Y-3.875
X5.77Y-3.575
X5.77Y-3.875
X5.87Y-3.575
X5.87Y-3.875
X5.97Y-3.575
X5.97Y-3.875
X6.07Y-3.575
X6.07Y-3.875
X6.0794Y-4.8569
X6.1794Y-4.8569
X6.22Y-3.4766
X6.22Y-3.575
X6.22Y-3.775
X6.22Y-3.8734
X6.2794Y-4.8569
X6.32Y-3.775
X6.32Y-3.8734
X6.32Y-4.0516
X6.32Y-4.15
X6.42Y-3.4766
X6.42Y-3.575
X6.47Y-3.925
X6.47Y-4.225
X6.57Y-3.925
X6.57Y-4.225
X6.5716Y-3.825
X6.6306Y-4.8569
X6.67Y-3.825
X6.67Y-3.925
X6.67Y-4.225
X6.7306Y-4.8569
X6.77Y-3.925
X6.77Y-4.225
X6.8306Y-4.8569
X6.87Y-3.925
X6.87Y-4.225
X6.97Y-3.925
X6.97Y-4.225
X7.07Y-3.925
X7.07Y-4.225
X7.17Y-3.925
X7.17Y-4.225
X7.1818Y-4.8569
X7.22Y-3.475
X7.22Y-3.5734
X7.22Y-3.7016
X7.22Y-3.8
X7.27Y-3.925
X7.27Y-4.225
X7.2818Y-4.8569
X7.37Y-3.925
X7.37Y-4.225
X7.3818Y-4.8569
X7.47Y-3.925
X7.47Y-4.225
X7.57Y-3.925
X7.57Y-4.225
X7.67Y-3.925
X7.67Y-4.225
X7.77Y-3.925
X7.77Y-4.225
T6
X5.72Y-4.1
X5.7495Y-4.171
X5.75Y-4.031
X5.82Y-4.
X5.82Y-4.2
X5.889Y-4.0315
X5.891Y-4.1715
X5.92Y-4.1
X8.1283Y-3.7545
X8.2283Y-3.7545
T7
X6.87Y-3.825
X6.9684Y-3.825
X7.0669Y-3.825
X7.47Y-3.5
X7.57Y-3.5
X7.67Y-3.5
X7.77Y-3.5
X7.87Y-3.5
X7.97Y-3.5
T8
X7.92Y-3.925
X7.92Y-4.1022
X8.1759Y-3.925
X8.1759Y-4.1022
T9
X5.345Y-4.375
X5.4828Y-4.375
X5.995Y-4.375
X6.1328Y-4.375
X7.92Y-4.375
X8.0578Y-4.375
X8.1956Y-4.375
T10
X5.748Y-4.5126
X5.82Y-4.102
X7.7165Y-4.5026
T11
X8.0465Y-4.0126
T0
M30
