G04 #@! TF.FileFunction,Soldermask,Bot*
%FSLAX46Y46*%
G04 Gerber Fmt 4.6, Leading zero omitted, Abs format (unit mm)*
G04 Created by KiCad (PCBNEW 4.0.6) date 09/23/19 10:34:53*
%MOMM*%
%LPD*%
G01*
G04 APERTURE LIST*
%ADD10C,0.100000*%
%ADD11R,1.800000X1.800000*%
%ADD12O,1.800000X1.800000*%
%ADD13R,1.000000X1.000000*%
%ADD14O,1.000000X1.000000*%
%ADD15R,1.700000X1.700000*%
%ADD16O,1.700000X1.700000*%
%ADD17O,2.000000X1.778000*%
%ADD18R,1.500000X2.000000*%
%ADD19O,1.600000X2.000000*%
%ADD20R,2.000000X1.300000*%
%ADD21O,2.000000X1.500000*%
%ADD22R,1.600000X2.000000*%
%ADD23O,2.000000X1.600000*%
%ADD24R,2.000000X1.600000*%
%ADD25O,2.000000X1.520000*%
%ADD26R,2.000000X1.520000*%
%ADD27R,3.000000X1.500000*%
%ADD28O,3.000000X1.500000*%
%ADD29C,1.100000*%
%ADD30C,3.250000*%
%ADD31R,1.727200X2.032000*%
%ADD32O,1.727200X2.032000*%
%ADD33C,2.400000*%
%ADD34R,2.400000X2.400000*%
%ADD35C,2.300000*%
%ADD36R,2.400000X1.600000*%
%ADD37O,2.400000X1.600000*%
%ADD38C,2.000000*%
G04 APERTURE END LIST*
D10*
D11*
X138430000Y-83820000D03*
D12*
X130810000Y-83820000D03*
D13*
X158750000Y-69850000D03*
D14*
X158750000Y-71755000D03*
X158750000Y-73660000D03*
D15*
X149860000Y-85090000D03*
D16*
X149860000Y-87630000D03*
X149860000Y-90170000D03*
X149860000Y-92710000D03*
D15*
X158115000Y-85090000D03*
D16*
X158115000Y-87630000D03*
X158115000Y-90170000D03*
X158115000Y-92710000D03*
D17*
X153670000Y-113030000D03*
X153670000Y-107950000D03*
D18*
X151130000Y-62230000D03*
D19*
X153670000Y-62230000D03*
X156210000Y-62230000D03*
D20*
X150495000Y-78105000D03*
D21*
X150495000Y-80605000D03*
D20*
X150495000Y-65405000D03*
D21*
X150495000Y-67905000D03*
D22*
X137160000Y-68580000D03*
D19*
X134660000Y-68580000D03*
D23*
X134620000Y-115530000D03*
D24*
X134620000Y-113030000D03*
D25*
X150495000Y-73025000D03*
X150495000Y-70485000D03*
D26*
X150495000Y-75565000D03*
D25*
X150495000Y-99695000D03*
X150495000Y-97155000D03*
D26*
X150495000Y-102235000D03*
D27*
X124460000Y-93980000D03*
D28*
X124460000Y-91480000D03*
X124460000Y-88980000D03*
X124460000Y-86480000D03*
X124460000Y-83980000D03*
D29*
X126460000Y-95580000D03*
D30*
X157480000Y-99060000D03*
X125730000Y-114300000D03*
X157480000Y-78740000D03*
X125730000Y-63500000D03*
D31*
X138430000Y-64135000D03*
D32*
X135890000Y-64135000D03*
X133350000Y-64135000D03*
D33*
X128270000Y-72080000D03*
D34*
X128270000Y-68580000D03*
D33*
X128270000Y-79700000D03*
D34*
X128270000Y-76200000D03*
D35*
X142310000Y-62000000D03*
X142310000Y-115800000D03*
D36*
X138430000Y-107950000D03*
D37*
X130810000Y-87630000D03*
X138430000Y-105410000D03*
X130810000Y-90170000D03*
X138430000Y-102870000D03*
X130810000Y-92710000D03*
X138430000Y-100330000D03*
X130810000Y-95250000D03*
X138430000Y-97790000D03*
X130810000Y-97790000D03*
X138430000Y-95250000D03*
X130810000Y-100330000D03*
X138430000Y-92710000D03*
X130810000Y-102870000D03*
X138430000Y-90170000D03*
X130810000Y-105410000D03*
X138430000Y-87630000D03*
X130810000Y-107950000D03*
D27*
X124460000Y-109220000D03*
D28*
X124460000Y-106720000D03*
X124460000Y-104220000D03*
X124460000Y-101720000D03*
X124460000Y-99220000D03*
D29*
X126460000Y-110820000D03*
D11*
X134620000Y-78740000D03*
D12*
X134620000Y-76200000D03*
X134620000Y-73660000D03*
D38*
X138430000Y-72390000D03*
X138430000Y-80010000D03*
X153670000Y-103505000D03*
X153670000Y-95885000D03*
X153670000Y-74295000D03*
X153670000Y-81915000D03*
M02*
