G04 #@! TF.FileFunction,Copper,L2,Bot,Signal*
%FSLAX46Y46*%
G04 Gerber Fmt 4.6, Leading zero omitted, Abs format (unit mm)*
G04 Created by KiCad (PCBNEW 4.0.7) date 08/30/19 18:56:12*
%MOMM*%
%LPD*%
G01*
G04 APERTURE LIST*
%ADD10C,0.100000*%
%ADD11C,2.000000*%
%ADD12R,2.000000X2.000000*%
%ADD13R,1.397000X1.397000*%
%ADD14C,1.397000*%
%ADD15R,1.600000X1.600000*%
%ADD16C,1.600000*%
%ADD17R,1.300000X1.300000*%
%ADD18C,1.500000*%
%ADD19O,1.600000X1.600000*%
%ADD20R,1.727200X2.032000*%
%ADD21O,1.727200X2.032000*%
%ADD22C,2.400000*%
%ADD23R,2.400000X2.400000*%
%ADD24C,1.520000*%
%ADD25R,1.520000X1.520000*%
%ADD26R,1.500000X1.500000*%
%ADD27C,2.300000*%
%ADD28C,0.609600*%
G04 APERTURE END LIST*
D10*
D11*
X156210000Y-111760000D03*
D12*
X156210000Y-114300000D03*
D11*
X156210000Y-62865000D03*
D12*
X156210000Y-65405000D03*
D11*
X156210000Y-72390000D03*
D12*
X156210000Y-69850000D03*
D13*
X131445000Y-62230000D03*
D14*
X133985000Y-62230000D03*
X136525000Y-62230000D03*
D11*
X156210000Y-100330000D03*
D12*
X156210000Y-97790000D03*
D15*
X134620000Y-72390000D03*
D16*
X137120000Y-72390000D03*
D17*
X134620000Y-76835000D03*
D18*
X137120000Y-76835000D03*
D19*
X138430000Y-107950000D03*
X138430000Y-105410000D03*
X138430000Y-102870000D03*
X138430000Y-100330000D03*
X138430000Y-97790000D03*
X138430000Y-95250000D03*
X138430000Y-92710000D03*
X138430000Y-90170000D03*
X138430000Y-87630000D03*
X130810000Y-87630000D03*
X130810000Y-90170000D03*
X130810000Y-92710000D03*
X130810000Y-95250000D03*
X130810000Y-97790000D03*
X130810000Y-100330000D03*
X130810000Y-102870000D03*
X130810000Y-105410000D03*
X130810000Y-107950000D03*
D16*
X134620000Y-115530000D03*
D15*
X134620000Y-113030000D03*
D20*
X138430000Y-66040000D03*
D21*
X135890000Y-66040000D03*
X133350000Y-66040000D03*
D22*
X128270000Y-72080000D03*
D23*
X128270000Y-68580000D03*
D22*
X128270000Y-79700000D03*
D23*
X128270000Y-76200000D03*
D11*
X156210000Y-78740000D03*
D12*
X156210000Y-76200000D03*
D17*
X134620000Y-83820000D03*
D18*
X137120000Y-83820000D03*
D11*
X156210000Y-107950000D03*
D12*
X156210000Y-105410000D03*
D24*
X135255000Y-80010000D03*
X132715000Y-80010000D03*
D25*
X137795000Y-80010000D03*
D26*
X124460000Y-109220000D03*
D18*
X124460000Y-106720000D03*
X124460000Y-104220000D03*
X124460000Y-101720000D03*
X124460000Y-99220000D03*
D26*
X124460000Y-93980000D03*
D18*
X124460000Y-91480000D03*
X124460000Y-88980000D03*
X124460000Y-86480000D03*
X124460000Y-83980000D03*
D24*
X154940000Y-88900000D03*
X154940000Y-86360000D03*
D25*
X154940000Y-91440000D03*
D11*
X150495000Y-102870000D03*
X150495000Y-110490000D03*
X150495000Y-67310000D03*
X150495000Y-74930000D03*
X153035000Y-80010000D03*
X153035000Y-72390000D03*
X150495000Y-99060000D03*
X150495000Y-91440000D03*
X150495000Y-86360000D03*
X150495000Y-78740000D03*
X153035000Y-96520000D03*
X153035000Y-104140000D03*
D27*
X142310000Y-62000000D03*
X142310000Y-115800000D03*
D28*
X138430000Y-87630000D02*
X138430000Y-85765000D01*
X138430000Y-85765000D02*
X137120000Y-83820000D01*
X142310000Y-115800000D02*
X142310000Y-114865000D01*
X142310000Y-114865000D02*
X149225000Y-107950000D01*
X149225000Y-107950000D02*
X156210000Y-107950000D01*
X156210000Y-111760000D02*
X156210000Y-107950000D01*
X137120000Y-72390000D02*
X137120000Y-71160000D01*
X142310000Y-65970000D02*
X142310000Y-62000000D01*
X137120000Y-71160000D02*
X142310000Y-65970000D01*
X156210000Y-100330000D02*
X157480000Y-100330000D01*
X158115000Y-80645000D02*
X156210000Y-78740000D01*
X158115000Y-99695000D02*
X158115000Y-80645000D01*
X157480000Y-100330000D02*
X158115000Y-99695000D01*
X137120000Y-76835000D02*
X137120000Y-77430000D01*
X137120000Y-77430000D02*
X137795000Y-78105000D01*
X137795000Y-78105000D02*
X137795000Y-80010000D01*
X137120000Y-72390000D02*
X137120000Y-76835000D01*
X137795000Y-80010000D02*
X137795000Y-82510000D01*
X137795000Y-82510000D02*
X137120000Y-83820000D01*
X133350000Y-66040000D02*
X133350000Y-64770000D01*
X140175000Y-64135000D02*
X142310000Y-62000000D01*
X133985000Y-64135000D02*
X140175000Y-64135000D01*
X133350000Y-64770000D02*
X133985000Y-64135000D01*
X128270000Y-68580000D02*
X128270000Y-67310000D01*
X129540000Y-66040000D02*
X133350000Y-66040000D01*
X128270000Y-67310000D02*
X129540000Y-66040000D01*
X156210000Y-107950000D02*
X156845000Y-107950000D01*
X156845000Y-107950000D02*
X158115000Y-106680000D01*
X158115000Y-102235000D02*
X156210000Y-100330000D01*
X158115000Y-106680000D02*
X158115000Y-102235000D01*
X156210000Y-72390000D02*
X155575000Y-72390000D01*
X156210000Y-78740000D02*
X154940000Y-78740000D01*
X154940000Y-78740000D02*
X153670000Y-77470000D01*
X153670000Y-77470000D02*
X153670000Y-74930000D01*
X153670000Y-74930000D02*
X156210000Y-72390000D01*
X124460000Y-106720000D02*
X129500000Y-106720000D01*
X129500000Y-106720000D02*
X130810000Y-105410000D01*
X124460000Y-109220000D02*
X129540000Y-109220000D01*
X129540000Y-109220000D02*
X130810000Y-107950000D01*
X124460000Y-91480000D02*
X127040000Y-91480000D01*
X127040000Y-91480000D02*
X130810000Y-95250000D01*
X124500000Y-91440000D02*
X124460000Y-91480000D01*
X124460000Y-93980000D02*
X127000000Y-93980000D01*
X127000000Y-93980000D02*
X130810000Y-97790000D01*
X128270000Y-76200000D02*
X128270000Y-72080000D01*
X124460000Y-104220000D02*
X129460000Y-104220000D01*
X129460000Y-104220000D02*
X130810000Y-102870000D01*
X124460000Y-101720000D02*
X129420000Y-101720000D01*
X129420000Y-101720000D02*
X130810000Y-100330000D01*
X124460000Y-101720000D02*
X124975000Y-101720000D01*
X124460000Y-88980000D02*
X127080000Y-88980000D01*
X127080000Y-88980000D02*
X130810000Y-92710000D01*
X124460000Y-86480000D02*
X127120000Y-86480000D01*
X127120000Y-86480000D02*
X130810000Y-90170000D01*
X124580000Y-86360000D02*
X124460000Y-86480000D01*
X154940000Y-86360000D02*
X154305000Y-86360000D01*
X154305000Y-86360000D02*
X153035000Y-87630000D01*
X148590000Y-100965000D02*
X150495000Y-102870000D01*
X148590000Y-97155000D02*
X148590000Y-100965000D01*
X153035000Y-92710000D02*
X148590000Y-97155000D01*
X153035000Y-87630000D02*
X153035000Y-92710000D01*
X150495000Y-67310000D02*
X149225000Y-68580000D01*
X148590000Y-80010000D02*
X154940000Y-86360000D01*
X148590000Y-69215000D02*
X148590000Y-80010000D01*
X149225000Y-68580000D02*
X148590000Y-69215000D01*
X124460000Y-83980000D02*
X127160000Y-83980000D01*
X127160000Y-83980000D02*
X130810000Y-87630000D01*
X130810000Y-87630000D02*
X130810000Y-81915000D01*
X130810000Y-81915000D02*
X132715000Y-80010000D01*
X134620000Y-76835000D02*
X133985000Y-76835000D01*
X133985000Y-76835000D02*
X132715000Y-78105000D01*
X132715000Y-78105000D02*
X132715000Y-80010000D01*
X134620000Y-72390000D02*
X134620000Y-76835000D01*
X135890000Y-66040000D02*
X135890000Y-67310000D01*
X134620000Y-68580000D02*
X134620000Y-72390000D01*
X135890000Y-67310000D02*
X134620000Y-68580000D01*
M02*
