<?xml version="1.0" encoding="UTF-8" standalone="no"?>
<!-- Created with Inkscape (http://www.inkscape.org/) -->

<svg
   xmlns:dc="http://purl.org/dc/elements/1.1/"
   xmlns:cc="http://creativecommons.org/ns#"
   xmlns:rdf="http://www.w3.org/1999/02/22-rdf-syntax-ns#"
   xmlns:svg="http://www.w3.org/2000/svg"
   xmlns="http://www.w3.org/2000/svg"
   xmlns:sodipodi="http://sodipodi.sourceforge.net/DTD/sodipodi-0.dtd"
   xmlns:inkscape="http://www.inkscape.org/namespaces/inkscape"
   width="210mm"
   height="297mm"
   viewBox="0 0 210 297"
   version="1.1"
   id="svg5297"
   inkscape:version="0.92.3 (2405546, 2018-03-11)"
   sodipodi:docname="edge_cuts2.svg">
  <defs
     id="defs5291" />
  <sodipodi:namedview
     id="base"
     pagecolor="#ffffff"
     bordercolor="#666666"
     borderopacity="1.0"
     inkscape:pageopacity="0.0"
     inkscape:pageshadow="2"
     inkscape:zoom="6.12"
     inkscape:cx="277.35069"
     inkscape:cy="970.77116"
     inkscape:document-units="mm"
     inkscape:current-layer="layer1"
     showgrid="false"
     inkscape:window-width="1296"
     inkscape:window-height="890"
     inkscape:window-x="2194"
     inkscape:window-y="84"
     inkscape:window-maximized="0" />
  <metadata
     id="metadata5294">
    <rdf:RDF>
      <cc:Work
         rdf:about="">
        <dc:format>image/svg+xml</dc:format>
        <dc:type
           rdf:resource="http://purl.org/dc/dcmitype/StillImage" />
        <dc:title></dc:title>
      </cc:Work>
    </rdf:RDF>
  </metadata>
  <g
     inkscape:label="Edge.Cuts"
     inkscape:groupmode="layer"
     id="layer1">
      <path
       style="fill:none;fill-opacity:0;stroke:#ffcc00;stroke-width:0.1;stroke-linecap:round;stroke-linejoin:round;stroke-opacity:1"
         d="m 6897.8574,3810.8887 c -137.821,0 -270.0182,54.7568 -367.4726,152.2109 -95.1882,95.1885 -303.916,331.1308 -374.0801,459.9395 a 19.68693,19.68693 0 0 0 -0.3594,0.6914 c -189.8399,383.9449 -485.1657,751.3873 -873.0254,1095.7832 -136.2454,95.1792 -223.3366,208.2204 -258.9043,340.9629 -35.6721,133.1246 -16.9935,274.9879 51.9219,394.3496 68.9159,119.3611 182.436,206.4684 315.5605,242.1386 132.5856,35.5257 273.8231,17.1066 392.877,-51.1191 l 496.3555,-201.332 525.832,-169.625 411.2266,-109.7032 c 54.5972,-7.7449 95.6261,-31.8369 126.2519,-63.9882 30.9785,-32.5216 51.954,-72.5455 70.793,-112.8653 a 19.68693,19.68693 0 0 0 1.8515,-8.332 V 4336.5176 a 19.68693,19.68693 0 0 0 0.8555,-5.9453 c 0,-9.763 -0.3227,-19.4491 -0.8555,-29.0801 V 4280 a 19.68693,19.68693 0 0 0 -2.8339,-10.4102 c -30.2551,-258.0788 -249.8565,-458.7012 -515.9942,-458.7011 z m 0,39.3691 c 256.1662,-10e-5 465.0753,199.9855 479.4571,452.5156 V 5775.457 c -17.7559,37.6266 -36.7532,72.3112 -61.7813,98.586 -25.883,27.1723 -57.5904,46.1123 -104.8164,52.4472 a 19.68693,19.68693 0 0 0 -2.457,0.4903 l -412.334,110 a 19.68693,19.68693 0 0 0 -0.9688,0.2851 l -527,170 a 19.68693,19.68693 0 0 0 -1.3554,0.4922 l -498,202 a 19.68693,19.68693 0 0 0 -2.4434,1.1953 c -110.3267,63.6969 -241.4171,80.9541 -364.4707,47.9824 -123.0534,-32.9717 -227.9514,-113.4624 -291.6543,-223.7949 -63.7024,-110.3327 -80.9616,-241.4214 -47.9883,-364.4746 32.9716,-123.0533 113.1034,-228.1521 244.5274,-319.6738 a 19.68693,19.68693 0 0 0 1.8183,-1.4317 c 390.9852,-347.0478 689.8418,-718.2656 882.5684,-1107.8281 63.959,-117.3084 274.9506,-358.4816 367.2637,-450.7949 90.0818,-90.0815 212.2402,-140.6797 339.6347,-140.6797 z"
         id="path4663"
         inkscape:connector-curvature="0" />
      <path
          style="fill:none;fill-opacity:0;stroke:#ffcc00;stroke-width:0.1;stroke-linecap:round;stroke-linejoin:round;stroke-opacity:1"
         d="m 11397.883,3810.8867 c -265.15,-2e-4 -484.088,199.14 -515.633,455.8301 a 19.68693,19.68693 0 0 0 -4.936,13.2832 v 1500 a 19.68693,19.68693 0 0 0 0.09,1.8242 c 5.531,59.411 23.12,99.2837 47.61,126.8203 24.489,27.5367 54.356,41.9623 81.406,55.0703 a 19.68693,19.68693 0 0 0 4.178,1.4707 l 478.172,109.8106 525.498,169.5137 495.236,201.2851 c 115.823,66.7588 244.46,123.1295 380.053,86.8028 133.147,-35.6717 246.684,-122.7949 315.595,-242.1758 a 19.68693,19.68693 0 0 0 0.42,-0.8203 c 68.526,-119.2015 87.045,-260.7276 51.438,-393.5567 a 19.68693,19.68693 0 0 0 0,-0 c -35.238,-131.4446 -122.491,-299.0281 -244.826,-370.8848 -353.507,-310.7348 -637.354,-667.9793 -821.703,-1040.8008 -0,-0.016 -0.02,-0.031 -0.02,-0.047 l -101.525,-210.3378 a 19.68693,19.68693 0 0 0 -0.321,-0.6309 c -70.688,-133.9414 -231.861,-260.5573 -327.642,-313.5469 -114.2,-63.1789 -222.332,-148.9083 -363.082,-148.9082 z m 0,39.3711 c 124.47,-10e-5 226.155,78.7775 344.023,143.9863 88.398,48.9045 248.077,176.7333 311.795,297.3204 l 101.379,210.0273 a 19.68693,19.68693 0 0 0 0.08,0.168 c 187.246,378.699 474.754,740.0725 832.227,1054.0468 a 19.68693,19.68693 0 0 0 3.15,2.2598 c 106.341,61.3748 195.189,224.1428 228.44,348.1719 32.987,123.0545 15.742,254.1511 -47.948,364.4883 a 19.68693,19.68693 0 0 0 -0.138,0.2695 c -63.714,110.2148 -168.551,190.6254 -291.528,223.5723 -120.11,32.1788 -237.987,-18.044 -351.519,-83.6153 a 19.68693,19.68693 0 0 0 -2.434,-1.1894 l -497,-202 a 19.68693,19.68693 0 0 0 -1.369,-0.4981 l -527,-170 a 19.68693,19.68693 0 0 0 -1.637,-0.4511 l -476.726,-109.4786 c -26.084,-12.6705 -49.302,-24.6714 -67.252,-44.8554 -18.313,-20.5912 -32.692,-50.506 -37.742,-103.5957 v -1442.293 a 19.68693,19.68693 0 0 0 0.878,-6.0195 c -0,-265.5035 214.812,-480.3147 480.319,-480.3145 z"
         id="path4665"
         inkscape:connector-curvature="0" />
    <path
       inkscape:connector-curvature="0"
       style="fill:none;fill-opacity:0;stroke:#ffcc00;stroke-width:0.1;stroke-linecap:round;stroke-linejoin:round;stroke-opacity:1"
       d="m 72.757421,27.426859 c 0,0.701403 0.568601,1.270003 1.270004,1.270002 0.336825,0 0.830083,-0.01221 1.068255,-0.250383 0.373171,-0.234387 0.584647,-0.468775 0.765427,-0.703162 0.08081,-0.139964 0.171378,-0.27336 0.271184,-0.399909 0.30965,-0.392624 0.708197,-0.719326 1.179941,-0.971707 0.623798,-0.333726 1.375577,-0.537499 2.21904,-0.591896 1.686925,-0.108795 3.602394,0.388823 5.325025,1.383385 1.722631,0.994562 3.111317,2.404597 3.860559,3.919915 0.749245,1.515317 0.797671,3.01179 0.134631,4.16021 -0.663041,1.148421 -1.98324,1.854718 -3.670163,1.963513 -1.070213,0.06902 -2.232411,-0.10603 -3.378996,-0.497199 -0.291695,-0.168403 -0.811517,-0.182632 -1.136859,-0.09546 -0.32534,0.08718 -0.602726,0.300018 -0.771141,0.59171 -0.168413,0.291696 -0.214054,0.638345 -0.126884,0.963691 0.08717,0.325347 0.382056,0.713002 0.673748,0.88142 l 1.104903,1.089662 0.89154,1.186183 0.662943,1.267463 0.40894,1.341122 0.14224,1.397003 -0.14224,1.397003 -0.40894,1.341123 -0.662943,1.267463 -0.89154,1.186182 -1.104903,1.089662 -1.297942,0.985523 -1.089663,0.6604 -1.181103,0.586743 -1.262382,0.51308 -1.338583,0.431802 -1.407163,0.3429 -1.468124,0.25146 -1.518923,0.15494 -1.567183,0.05334 -1.564643,-0.05334 -1.518923,-0.15494 -1.468123,-0.25146 -1.407163,-0.3429 -1.338583,-0.431802 -1.264923,-0.51308 -1.178562,-0.586743 -1.089662,-0.6604 -1.297943,-0.985523 -1.104902,-1.089662 -0.894082,-1.186182 -0.660401,-1.267463 -0.408941,-1.341123 -0.142241,-1.397003 0.142241,-1.397003 0.408941,-1.341122 0.660401,-1.267463 0.894082,-1.186183 1.177077,-1.211435 c 0.363871,-0.290188 0.516317,-0.537378 0.603492,-0.862725 0.08718,-0.325347 0.04154,-0.671999 -0.126873,-0.963697 -0.168415,-0.291696 -0.445806,-0.504544 -0.771153,-0.59172 -0.325347,-0.08717 -0.735153,-0.117374 -1.026851,0.05104 -0.236732,0.08027 -0.474104,0.151316 -0.711171,0.212903 -0.905061,0.235126 -1.80566,0.332332 -2.649122,0.277934 -1.686925,-0.108798 -3.007122,-0.815094 -3.670163,-1.963515 -0.663042,-1.14842 -0.614614,-2.644893 0.13463,-4.16021 0.749243,-1.515318 2.137927,-2.925353 3.860558,-3.919915 1.722632,-0.994561 3.6381,-1.49218 5.325025,-1.383385 1.686925,0.108796 3.007122,0.815092 3.670163,1.963513 0.14591,0.336825 0.422904,0.57023 0.661076,0.808402 0.238171,0.238172 0.707112,0.29902 1.043937,0.29902 0.701403,0 1.270003,-0.568599 1.270003,-1.270002 l -0.0022,0.12554 0.0011,-1.269268 c 0.0011,-0.349966 0.285418,-0.634266 0.635024,-0.635003 h 7.620076 c 0.351846,7.37e-4 0.636146,0.285037 0.635003,0.635002 l -0.0011,1.269269"
       id="path4683"
       sodipodi:nodetypes="ccccssssssscscscccccccccccccccccccccccccccccccccccccccscscsssssscscccccccc" />
  </g>
</svg>
