  0
SECTION
  2
HEADER
  9
$ACADVER
  1
AC1014
  9
$HANDSEED
  5
FFFF
  9
$MEASUREMENT
 70
     1
  0
ENDSEC
  0
SECTION
  2
TABLES
  0
TABLE
  2
VPORT
  5
8
330
0
100
AcDbSymbolTable
 70
     4
  0
VPORT
  5
2E
330
8
100
AcDbSymbolTableRecord
100
AcDbViewportTableRecord
  2
*ACTIVE
 70
     0
 10
0.0
 20
0.0
 11
1.0
 21
1.0
 12
210.0
 22
148.5
 13
0.0
 23
0.0
 14
10.0
 24
10.0
 15
10.0
 25
10.0
 16
0.0
 26
0.0
 36
1.0
 17
0.0
 27
0.0
 37
0.0
 40
341.0
 41
1.24
 42
50.0
 43
0.0
 44
0.0
 50
0.0
 51
0.0
 71
     0
 72
   100
 73
     1
 74
     3
 75
     0
 76
     0
 77
     0
 78
     0
  0
ENDTAB
  0
TABLE
  2
LTYPE
  5
5
330
0
100
AcDbSymbolTable
 70
     1
  0
LTYPE
  5
14
330
5
100
AcDbSymbolTableRecord
100
AcDbLinetypeTableRecord
  2
BYBLOCK
 70
     0
  3

 72
    65
 73
     0
 40
0.0
  0
LTYPE
  5
15
330
5
100
AcDbSymbolTableRecord
100
AcDbLinetypeTableRecord
  2
BYLAYER
 70
     0
  3

 72
    65
 73
     0
 40
0.0
  0
LTYPE
  5
16
330
5
100
AcDbSymbolTableRecord
100
AcDbLinetypeTableRecord
  2
CONTINUOUS
 70
     0
  3
Solid line
 72
    65
 73
     0
 40
0.0
  0
ENDTAB
  0
TABLE
  2
LAYER
  5
2
100
AcDbSymbolTable
 70
1
  0
LAYER
  5
50
100
AcDbSymbolTableRecord
100
AcDbLayerTableRecord
  2
0
 70
0
  6
CONTINUOUS
  0
ENDTAB
  0
TABLE
  2
STYLE
  5
3
330
0
100
AcDbSymbolTable
 70
     1
  0
STYLE
  5
11
330
3
100
AcDbSymbolTableRecord
100
AcDbTextStyleTableRecord
  2
STANDARD
 70
     0
 40
0.0
 41
1.0
 50
0.0
 71
     0
 42
2.5
  3
txt
  4

  0
ENDTAB
  0
TABLE
  2
VIEW
  5
6
330
0
100
AcDbSymbolTable
 70
     0
  0
ENDTAB
  0
TABLE
  2
UCS
  5
7
330
0
100
AcDbSymbolTable
 70
     0
  0
ENDTAB
  0
TABLE
  2
APPID
  5
9
330
0
100
AcDbSymbolTable
 70
     2
  0
APPID
  5
12
330
9
100
AcDbSymbolTableRecord
100
AcDbRegAppTableRecord
  2
ACAD
 70
     0
  0
ENDTAB
  0
TABLE
  2
DIMSTYLE
  5
A
330
0
100
AcDbSymbolTable
 70
     1
  0
DIMSTYLE
105
27
330
A
100
AcDbSymbolTableRecord
100
AcDbDimStyleTableRecord
  2
ISO-25
 70
     0
  3

  4

  5

  6

  7

 40
1.0
 41
2.5
 42
0.625
 43
3.75
 44
1.25
 45
0.0
 46
0.0
 47
0.0
 48
0.0
140
2.5
141
2.5
142
0.0
143
0.03937007874016
144
1.0
145
0.0
146
1.0
147
0.625
 71
     0
 72
     0
 73
     0
 74
     0
 75
     0
 76
     0
 77
     1
 78
     8
170
     0
171
     3
172
     1
173
     0
174
     0
175
     0
176
     0
177
     0
178
     0
270
     2
271
     2
272
     2
273
     2
274
     3
340
11
275
     0
280
     0
281
     0
282
     0
283
     0
284
     8
285
     0
286
     0
287
     3
288
     0
  0
ENDTAB
  0
TABLE
  2
BLOCK_RECORD
  5
1
330
0
100
AcDbSymbolTable
 70
     1
  0
BLOCK_RECORD
  5
1F
330
1
100
AcDbSymbolTableRecord
100
AcDbBlockTableRecord
  2
*MODEL_SPACE
  0
BLOCK_RECORD
  5
1B
330
1
100
AcDbSymbolTableRecord
100
AcDbBlockTableRecord
  2
*PAPER_SPACE
  0
ENDTAB
  0
ENDSEC
  0
SECTION
  2
BLOCKS
  0
BLOCK
  5
20
330
1F
100
AcDbEntity
  8
0
100
AcDbBlockBegin
  2
*MODEL_SPACE
 70
     0
 10
0.0
 20
0.0
 30
0.0
  3
*MODEL_SPACE
  1

  0
ENDBLK
  5
21
330
1F
100
AcDbEntity
  8
0
100
AcDbBlockEnd
  0
BLOCK
  5
1C
330
1B
100
AcDbEntity
 67
     1
  8
0
100
AcDbBlockBegin
  2
*PAPER_SPACE
  1

  0
ENDBLK
  5
1D
330
1B
100
AcDbEntity
 67
     1
  8
0
100
AcDbBlockEnd
  0
ENDSEC
  0
SECTION
  2
ENTITIES
  0
LWPOLYLINE
  5
100
100
AcDbEntity
  8
0
 62
7
100
AcDbPolyline
 90
4
 70
1
 10
15213.541667
 20
-9705.975000
 30
0.0
 10
15478.125000
 20
-9705.975000
 30
0.0
 10
15478.125000
 20
-10235.141667
 30
0.0
 10
15213.541667
 20
-10235.141667
 30
0.0
  0
LWPOLYLINE
  5
101
100
AcDbEntity
  8
0
 62
7
100
AcDbPolyline
 90
4
 70
1
 10
15213.541667
 20
-9825.037500
 30
0.0
 10
15345.833333
 20
-9825.037500
 30
0.0
 10
15345.833333
 20
-9851.495833
 30
0.0
 10
15213.541667
 20
-9851.495833
 30
0.0
  0
LWPOLYLINE
  5
102
100
AcDbEntity
  8
0
 62
7
100
AcDbPolyline
 90
4
 70
1
 10
15213.541667
 20
-10089.620833
 30
0.0
 10
15345.833333
 20
-10089.620833
 30
0.0
 10
15345.833333
 20
-10116.079167
 30
0.0
 10
15213.541667
 20
-10116.079167
 30
0.0
  0
LWPOLYLINE
  5
103
100
AcDbEntity
  8
0
 62
7
100
AcDbPolyline
 90
2
 70
0
 10
15213.541667
 20
-10102.850000
 30
0.0
 10
14816.666667
 20
-10102.850000
 30
0.0
  0
LWPOLYLINE
  5
104
100
AcDbEntity
  8
0
 62
7
100
AcDbPolyline
 90
2
 70
0
 10
15213.541667
 20
-9838.266667
 30
0.0
 10
14816.666667
 20
-9838.266667
 30
0.0
  0
LWPOLYLINE
  5
105
100
AcDbEntity
  8
0
 62
7
100
AcDbPolyline
 90
20
 70
0
 10
15081.143902
 20
-10877.553704
 30
0.0
 10
15089.081402
 20
-10859.032871
 30
0.0
 10
15089.081402
 20
-10827.282871
 30
0.0
 10
15081.143902
 20
-10816.699537
 30
0.0
 10
15075.852235
 20
-10808.762037
 30
0.0
 10
15062.623069
 20
-10803.470371
 30
0.0
 10
15049.393902
 20
-10803.470371
 30
0.0
 10
15038.810569
 20
-10808.762037
 30
0.0
 10
15030.873069
 20
-10816.699537
 30
0.0
 10
15025.581402
 20
-10827.282871
 30
0.0
 10
15017.643902
 20
-10853.741204
 30
0.0
 10
15012.352235
 20
-10866.970371
 30
0.0
 10
15007.060569
 20
-10872.262037
 30
0.0
 10
14993.831402
 20
-10877.553704
 30
0.0
 10
14980.602235
 20
-10877.553704
 30
0.0
 10
14967.373069
 20
-10872.262037
 30
0.0
 10
14962.081402
 20
-10866.970371
 30
0.0
 10
14956.789735
 20
-10853.741204
 30
0.0
 10
14956.789735
 20
-10821.991204
 30
0.0
 10
14962.081402
 20
-10803.470371
 30
0.0
  0
LWPOLYLINE
  5
106
100
AcDbEntity
  8
0
 62
7
100
AcDbPolyline
 90
16
 70
1
 10
14956.789735
 20
-10721.449537
 30
0.0
 10
14956.789735
 20
-10694.991204
 30
0.0
 10
14962.081402
 20
-10681.762037
 30
0.0
 10
14975.310569
 20
-10671.178704
 30
0.0
 10
14999.123069
 20
-10663.241204
 30
0.0
 10
15044.102235
 20
-10663.241204
 30
0.0
 10
15067.914735
 20
-10671.178704
 30
0.0
 10
15081.143902
 20
-10681.762037
 30
0.0
 10
15089.081402
 20
-10694.991204
 30
0.0
 10
15089.081402
 20
-10721.449537
 30
0.0
 10
15081.143902
 20
-10732.032871
 30
0.0
 10
15067.914735
 20
-10745.262037
 30
0.0
 10
15044.102235
 20
-10750.553704
 30
0.0
 10
14999.123069
 20
-10750.553704
 30
0.0
 10
14975.310569
 20
-10745.262037
 30
0.0
 10
14962.081402
 20
-10732.032871
 30
0.0
  0
LWPOLYLINE
  5
107
100
AcDbEntity
  8
0
 62
7
100
AcDbPolyline
 90
3
 70
0
 10
15089.081402
 20
-10544.178704
 30
0.0
 10
15089.081402
 20
-10607.678704
 30
0.0
 10
14956.789735
 20
-10607.678704
 30
0.0
  0
LWPOLYLINE
  5
108
100
AcDbEntity
  8
0
 62
7
100
AcDbPolyline
 90
12
 70
1
 10
15089.081402
 20
-10501.845371
 30
0.0
 10
14956.789735
 20
-10501.845371
 30
0.0
 10
14956.789735
 20
-10470.095371
 30
0.0
 10
14962.081402
 20
-10451.574537
 30
0.0
 10
14975.310569
 20
-10438.345371
 30
0.0
 10
14988.539735
 20
-10433.053704
 30
0.0
 10
15012.352235
 20
-10427.762037
 30
0.0
 10
15030.873069
 20
-10427.762037
 30
0.0
 10
15057.331402
 20
-10433.053704
 30
0.0
 10
15067.914735
 20
-10438.345371
 30
0.0
 10
15081.143902
 20
-10451.574537
 30
0.0
 10
15089.081402
 20
-10470.095371
 30
0.0
  0
LWPOLYLINE
  5
109
100
AcDbEntity
  8
0
 62
7
100
AcDbPolyline
 90
2
 70
0
 10
15017.643902
 20
-10369.553704
 30
0.0
 10
15017.643902
 20
-10324.574537
 30
0.0
  0
LWPOLYLINE
  5
10a
100
AcDbEntity
  8
0
 62
7
100
AcDbPolyline
 90
4
 70
0
 10
15089.081402
 20
-10306.053704
 30
0.0
 10
15089.081402
 20
-10369.553704
 30
0.0
 10
14956.789735
 20
-10369.553704
 30
0.0
 10
14956.789735
 20
-10306.053704
 30
0.0
  0
LWPOLYLINE
  5
10b
100
AcDbEntity
  8
0
 62
7
100
AcDbPolyline
 90
2
 70
0
 10
15089.081402
 20
-10176.407871
 30
0.0
 10
15025.581402
 20
-10218.741204
 30
0.0
  0
LWPOLYLINE
  5
10c
100
AcDbEntity
  8
0
 62
7
100
AcDbPolyline
 90
11
 70
0
 10
15089.081402
 20
-10250.491204
 30
0.0
 10
14956.789735
 20
-10250.491204
 30
0.0
 10
14956.789735
 20
-10200.220371
 30
0.0
 10
14962.081402
 20
-10186.991204
 30
0.0
 10
14967.373069
 20
-10181.699537
 30
0.0
 10
14980.602235
 20
-10176.407871
 30
0.0
 10
14999.123069
 20
-10176.407871
 30
0.0
 10
15012.352235
 20
-10181.699537
 30
0.0
 10
15017.643902
 20
-10186.991204
 30
0.0
 10
15025.581402
 20
-10200.220371
 30
0.0
 10
15025.581402
 20
-10250.491204
 30
0.0
  0
LWPOLYLINE
  5
10d
100
AcDbEntity
  8
0
 62
7
100
AcDbPolyline
 90
4
 70
1
 10
11562.291667
 20
-9838.266667
 30
0.0
 10
11721.041667
 20
-9838.266667
 30
0.0
 10
11721.041667
 20
-10367.433333
 30
0.0
 10
11562.291667
 20
-10367.433333
 30
0.0
  0
LWPOLYLINE
  5
10e
100
AcDbEntity
  8
0
 62
7
100
AcDbPolyline
 90
2
 70
0
 10
11641.666667
 20
-9838.266667
 30
0.0
 10
11641.666667
 20
-9705.975000
 30
0.0
  0
LWPOLYLINE
  5
10f
100
AcDbEntity
  8
0
 62
7
100
AcDbPolyline
 90
2
 70
0
 10
11641.666667
 20
-10367.433333
 30
0.0
 10
11641.666667
 20
-10499.725000
 30
0.0
  0
LWPOLYLINE
  5
110
100
AcDbEntity
  8
0
 62
7
100
AcDbPolyline
 90
2
 70
0
 10
11242.145833
 20
-10274.829167
 30
0.0
 10
11242.145833
 20
-10319.808333
 30
0.0
  0
LWPOLYLINE
  5
111
100
AcDbEntity
  8
0
 62
7
100
AcDbPolyline
 90
3
 70
0
 10
11313.583333
 20
-10319.808333
 30
0.0
 10
11181.291667
 20
-10319.808333
 30
0.0
 10
11181.291667
 20
-10256.308333
 30
0.0
  0
LWPOLYLINE
  5
112
100
AcDbEntity
  8
0
 62
7
100
AcDbPolyline
 90
10
 70
0
 10
11181.291667
 20
-10206.037500
 30
0.0
 10
11287.125000
 20
-10206.037500
 30
0.0
 10
11300.354167
 20
-10200.745833
 30
0.0
 10
11305.645833
 20
-10192.808333
 30
0.0
 10
11313.583333
 20
-10182.225000
 30
0.0
 10
11313.583333
 20
-10155.766667
 30
0.0
 10
11305.645833
 20
-10142.537500
 30
0.0
 10
11300.354167
 20
-10137.245833
 30
0.0
 10
11287.125000
 20
-10131.954167
 30
0.0
 10
11181.291667
 20
-10131.954167
 30
0.0
  0
LWPOLYLINE
  5
113
100
AcDbEntity
  8
0
 62
7
100
AcDbPolyline
 90
20
 70
0
 10
11305.645833
 20
-10073.745833
 30
0.0
 10
11313.583333
 20
-10055.225000
 30
0.0
 10
11313.583333
 20
-10023.475000
 30
0.0
 10
11305.645833
 20
-10012.891667
 30
0.0
 10
11300.354167
 20
-10004.954167
 30
0.0
 10
11287.125000
 20
-9999.662500
 30
0.0
 10
11273.895833
 20
-9999.662500
 30
0.0
 10
11263.312500
 20
-10004.954167
 30
0.0
 10
11255.375000
 20
-10012.891667
 30
0.0
 10
11250.083333
 20
-10023.475000
 30
0.0
 10
11242.145833
 20
-10049.933333
 30
0.0
 10
11236.854167
 20
-10063.162500
 30
0.0
 10
11231.562500
 20
-10068.454167
 30
0.0
 10
11218.333333
 20
-10073.745833
 30
0.0
 10
11205.104167
 20
-10073.745833
 30
0.0
 10
11191.875000
 20
-10068.454167
 30
0.0
 10
11186.583333
 20
-10063.162500
 30
0.0
 10
11181.291667
 20
-10049.933333
 30
0.0
 10
11181.291667
 20
-10018.183333
 30
0.0
 10
11186.583333
 20
-9999.662500
 30
0.0
  0
LWPOLYLINE
  5
114
100
AcDbEntity
  8
0
 62
7
100
AcDbPolyline
 90
2
 70
0
 10
11242.145833
 20
-9941.454167
 30
0.0
 10
11242.145833
 20
-9896.475000
 30
0.0
  0
LWPOLYLINE
  5
115
100
AcDbEntity
  8
0
 62
7
100
AcDbPolyline
 90
4
 70
0
 10
11313.583333
 20
-9877.954167
 30
0.0
 10
11313.583333
 20
-9941.454167
 30
0.0
 10
11181.291667
 20
-9941.454167
 30
0.0
 10
11181.291667
 20
-9877.954167
 30
0.0
  0
LWPOLYLINE
  5
116
100
AcDbEntity
  8
0
 62
7
100
AcDbPolyline
 90
4
 70
1
 10
11430.000000
 20
-11703.579167
 30
0.0
 10
11853.333333
 20
-11703.579167
 30
0.0
 10
11853.333333
 20
-11730.037500
 30
0.0
 10
11430.000000
 20
-11730.037500
 30
0.0
  0
LWPOLYLINE
  5
117
100
AcDbEntity
  8
0
 62
7
100
AcDbPolyline
 90
4
 70
1
 10
11430.000000
 20
-11372.850000
 30
0.0
 10
11853.333333
 20
-11372.850000
 30
0.0
 10
11853.333333
 20
-11399.308333
 30
0.0
 10
11430.000000
 20
-11399.308333
 30
0.0
  0
LWPOLYLINE
  5
118
100
AcDbEntity
  8
0
 62
7
100
AcDbPolyline
 90
4
 70
1
 10
11504.083333
 20
-11764.433333
 30
0.0
 10
11773.958333
 20
-11764.433333
 30
0.0
 10
11773.958333
 20
-11817.350000
 30
0.0
 10
11504.083333
 20
-11817.350000
 30
0.0
  0
LWPOLYLINE
  5
119
100
AcDbEntity
  8
0
 62
7
100
AcDbPolyline
 90
4
 70
1
 10
11504.083333
 20
-11433.704167
 30
0.0
 10
11773.958333
 20
-11433.704167
 30
0.0
 10
11773.958333
 20
-11486.620833
 30
0.0
 10
11504.083333
 20
-11486.620833
 30
0.0
  0
LWPOLYLINE
  5
11a
100
AcDbEntity
  8
0
 62
7
100
AcDbPolyline
 90
2
 70
0
 10
11641.666667
 20
-11293.475000
 30
0.0
 10
11641.666667
 20
-11028.891667
 30
0.0
  0
LWPOLYLINE
  5
11b
100
AcDbEntity
  8
0
 62
7
100
AcDbPolyline
 90
2
 70
0
 10
11641.666667
 20
-11822.641667
 30
0.0
 10
11641.666667
 20
-12087.225000
 30
0.0
  0
LWPOLYLINE
  5
11c
100
AcDbEntity
  8
0
 62
7
100
AcDbPolyline
 90
19
 70
0
 10
11242.145833
 20
-11875.558333
 30
0.0
 10
11250.083333
 20
-11857.037500
 30
0.0
 10
11255.375000
 20
-11851.745833
 30
0.0
 10
11268.604167
 20
-11846.454167
 30
0.0
 10
11287.125000
 20
-11846.454167
 30
0.0
 10
11300.354167
 20
-11851.745833
 30
0.0
 10
11305.645833
 20
-11857.037500
 30
0.0
 10
11313.583333
 20
-11870.266667
 30
0.0
 10
11313.583333
 20
-11920.537500
 30
0.0
 10
11181.291667
 20
-11920.537500
 30
0.0
 10
11181.291667
 20
-11875.558333
 30
0.0
 10
11186.583333
 20
-11864.975000
 30
0.0
 10
11191.875000
 20
-11857.037500
 30
0.0
 10
11205.104167
 20
-11851.745833
 30
0.0
 10
11218.333333
 20
-11851.745833
 30
0.0
 10
11231.562500
 20
-11857.037500
 30
0.0
 10
11236.854167
 20
-11864.975000
 30
0.0
 10
11242.145833
 20
-11875.558333
 30
0.0
 10
11242.145833
 20
-11920.537500
 30
0.0
  0
LWPOLYLINE
  5
11d
100
AcDbEntity
  8
0
 62
7
100
AcDbPolyline
 90
6
 70
0
 10
11313.583333
 20
-11732.683333
 30
0.0
 10
11242.145833
 20
-11732.683333
 30
0.0
 10
11231.562500
 20
-11737.975000
 30
0.0
 10
11223.625000
 20
-11751.204167
 30
0.0
 10
11223.625000
 20
-11775.016667
 30
0.0
 10
11231.562500
 20
-11788.245833
 30
0.0
  0
LWPOLYLINE
  5
11e
100
AcDbEntity
  8
0
 62
7
100
AcDbPolyline
 90
10
 70
0
 10
11305.645833
 20
-11732.683333
 30
0.0
 10
11313.583333
 20
-11743.266667
 30
0.0
 10
11313.583333
 20
-11775.016667
 30
0.0
 10
11305.645833
 20
-11788.245833
 30
0.0
 10
11292.416667
 20
-11793.537500
 30
0.0
 10
11281.833333
 20
-11793.537500
 30
0.0
 10
11268.604167
 20
-11788.245833
 30
0.0
 10
11263.312500
 20
-11775.016667
 30
0.0
 10
11263.312500
 20
-11743.266667
 30
0.0
 10
11255.375000
 20
-11732.683333
 30
0.0
  0
LWPOLYLINE
  5
11f
100
AcDbEntity
  8
0
 62
7
100
AcDbPolyline
 90
2
 70
0
 10
11223.625000
 20
-11687.704167
 30
0.0
 10
11223.625000
 20
-11637.433333
 30
0.0
  0
LWPOLYLINE
  5
120
100
AcDbEntity
  8
0
 62
7
100
AcDbPolyline
 90
5
 70
0
 10
11181.291667
 20
-11669.183333
 30
0.0
 10
11292.416667
 20
-11669.183333
 30
0.0
 10
11305.645833
 20
-11663.891667
 30
0.0
 10
11313.583333
 20
-11650.662500
 30
0.0
 10
11313.583333
 20
-11637.433333
 30
0.0
  0
LWPOLYLINE
  5
121
100
AcDbEntity
  8
0
 62
7
100
AcDbPolyline
 90
2
 70
0
 10
11223.625000
 20
-11610.975000
 30
0.0
 10
11223.625000
 20
-11560.704167
 30
0.0
  0
LWPOLYLINE
  5
122
100
AcDbEntity
  8
0
 62
7
100
AcDbPolyline
 90
5
 70
0
 10
11181.291667
 20
-11592.454167
 30
0.0
 10
11292.416667
 20
-11592.454167
 30
0.0
 10
11305.645833
 20
-11587.162500
 30
0.0
 10
11313.583333
 20
-11573.933333
 30
0.0
 10
11313.583333
 20
-11560.704167
 30
0.0
  0
LWPOLYLINE
  5
123
100
AcDbEntity
  8
0
 62
7
100
AcDbPolyline
 90
13
 70
0
 10
11305.645833
 20
-11465.454167
 30
0.0
 10
11313.583333
 20
-11478.683333
 30
0.0
 10
11313.583333
 20
-11502.495833
 30
0.0
 10
11305.645833
 20
-11515.725000
 30
0.0
 10
11292.416667
 20
-11521.016667
 30
0.0
 10
11242.145833
 20
-11521.016667
 30
0.0
 10
11231.562500
 20
-11515.725000
 30
0.0
 10
11223.625000
 20
-11502.495833
 30
0.0
 10
11223.625000
 20
-11478.683333
 30
0.0
 10
11231.562500
 20
-11465.454167
 30
0.0
 10
11242.145833
 20
-11460.162500
 30
0.0
 10
11255.375000
 20
-11460.162500
 30
0.0
 10
11268.604167
 20
-11521.016667
 30
0.0
  0
LWPOLYLINE
  5
124
100
AcDbEntity
  8
0
 62
7
100
AcDbPolyline
 90
2
 70
0
 10
11313.583333
 20
-11401.954167
 30
0.0
 10
11223.625000
 20
-11401.954167
 30
0.0
  0
LWPOLYLINE
  5
125
100
AcDbEntity
  8
0
 62
7
100
AcDbPolyline
 90
5
 70
0
 10
11250.083333
 20
-11401.954167
 30
0.0
 10
11236.854167
 20
-11396.662500
 30
0.0
 10
11231.562500
 20
-11388.725000
 30
0.0
 10
11223.625000
 20
-11378.141667
 30
0.0
 10
11223.625000
 20
-11364.912500
 30
0.0
  0
LWPOLYLINE
  5
126
100
AcDbEntity
  8
0
 62
7
100
AcDbPolyline
 90
2
 70
0
 10
11223.625000
 20
-11333.162500
 30
0.0
 10
11313.583333
 20
-11301.412500
 30
0.0
  0
LWPOLYLINE
  5
127
100
AcDbEntity
  8
0
 62
7
100
AcDbPolyline
 90
5
 70
0
 10
11223.625000
 20
-11269.662500
 30
0.0
 10
11313.583333
 20
-11301.412500
 30
0.0
 10
11345.333333
 20
-11314.641667
 30
0.0
 10
11350.625000
 20
-11319.933333
 30
0.0
 10
11355.916667
 20
-11333.162500
 30
0.0
  0
LWPOLYLINE
  5
128
100
AcDbEntity
  8
0
 62
7
100
AcDbPolyline
 90
2
 70
0
 10
13626.041667
 20
-9970.558333
 30
0.0
 10
13626.041667
 20
-9705.975000
 30
0.0
  0
LWPOLYLINE
  5
129
100
AcDbEntity
  8
0
 62
7
100
AcDbPolyline
 90
2
 70
0
 10
13626.041667
 20
-10235.141667
 30
0.0
 10
13626.041667
 20
-10499.725000
 30
0.0
  0
LWPOLYLINE
  5
12a
100
AcDbEntity
  8
0
 62
7
100
AcDbPolyline
 90
2
 70
0
 10
13411.729167
 20
-10555.287500
 30
0.0
 10
13279.437500
 20
-10555.287500
 30
0.0
  0
LWPOLYLINE
  5
12b
100
AcDbEntity
  8
0
 62
7
100
AcDbPolyline
 90
2
 70
0
 10
13411.729167
 20
-10481.204167
 30
0.0
 10
13335.000000
 20
-10536.766667
 30
0.0
  0
LWPOLYLINE
  5
12c
100
AcDbEntity
  8
0
 62
7
100
AcDbPolyline
 90
2
 70
0
 10
13279.437500
 20
-10481.204167
 30
0.0
 10
13353.520833
 20
-10555.287500
 30
0.0
  0
LWPOLYLINE
  5
12d
100
AcDbEntity
  8
0
 62
7
100
AcDbPolyline
 90
2
 70
0
 10
13411.729167
 20
-10422.995833
 30
0.0
 10
13279.437500
 20
-10422.995833
 30
0.0
  0
LWPOLYLINE
  5
12e
100
AcDbEntity
  8
0
 62
7
100
AcDbPolyline
 90
16
 70
0
 10
13398.500000
 20
-10285.412500
 30
0.0
 10
13403.791667
 20
-10290.704167
 30
0.0
 10
13411.729167
 20
-10309.225000
 30
0.0
 10
13411.729167
 20
-10322.454167
 30
0.0
 10
13403.791667
 20
-10340.975000
 30
0.0
 10
13390.562500
 20
-10354.204167
 30
0.0
 10
13379.979167
 20
-10359.495833
 30
0.0
 10
13353.520833
 20
-10364.787500
 30
0.0
 10
13335.000000
 20
-10364.787500
 30
0.0
 10
13311.187500
 20
-10359.495833
 30
0.0
 10
13297.958333
 20
-10354.204167
 30
0.0
 10
13284.729167
 20
-10340.975000
 30
0.0
 10
13279.437500
 20
-10322.454167
 30
0.0
 10
13279.437500
 20
-10309.225000
 30
0.0
 10
13284.729167
 20
-10290.704167
 30
0.0
 10
13290.020833
 20
-10285.412500
 30
0.0
  0
LWPOLYLINE
  5
12f
100
AcDbEntity
  8
0
 62
7
100
AcDbPolyline
 90
2
 70
0
 10
13411.729167
 20
-10227.204167
 30
0.0
 10
13279.437500
 20
-10227.204167
 30
0.0
  0
LWPOLYLINE
  5
130
100
AcDbEntity
  8
0
 62
7
100
AcDbPolyline
 90
2
 70
0
 10
13411.729167
 20
-10153.120833
 30
0.0
 10
13335.000000
 20
-10208.683333
 30
0.0
  0
LWPOLYLINE
  5
131
100
AcDbEntity
  8
0
 62
7
100
AcDbPolyline
 90
2
 70
0
 10
13279.437500
 20
-10153.120833
 30
0.0
 10
13353.520833
 20
-10227.204167
 30
0.0
  0
LWPOLYLINE
  5
132
100
AcDbEntity
  8
0
 62
7
100
AcDbPolyline
 90
19
 70
0
 10
13340.291667
 20
-10049.933333
 30
0.0
 10
13348.229167
 20
-10031.412500
 30
0.0
 10
13353.520833
 20
-10026.120833
 30
0.0
 10
13366.750000
 20
-10020.829167
 30
0.0
 10
13385.270833
 20
-10020.829167
 30
0.0
 10
13398.500000
 20
-10026.120833
 30
0.0
 10
13403.791667
 20
-10031.412500
 30
0.0
 10
13411.729167
 20
-10044.641667
 30
0.0
 10
13411.729167
 20
-10094.912500
 30
0.0
 10
13279.437500
 20
-10094.912500
 30
0.0
 10
13279.437500
 20
-10049.933333
 30
0.0
 10
13284.729167
 20
-10039.350000
 30
0.0
 10
13290.020833
 20
-10031.412500
 30
0.0
 10
13303.250000
 20
-10026.120833
 30
0.0
 10
13316.479167
 20
-10026.120833
 30
0.0
 10
13329.708333
 20
-10031.412500
 30
0.0
 10
13335.000000
 20
-10039.350000
 30
0.0
 10
13340.291667
 20
-10049.933333
 30
0.0
 10
13340.291667
 20
-10094.912500
 30
0.0
  0
LWPOLYLINE
  5
133
100
AcDbEntity
  8
0
 62
7
100
AcDbPolyline
 90
2
 70
0
 10
13372.041667
 20
-9967.912500
 30
0.0
 10
13372.041667
 20
-9907.058333
 30
0.0
  0
LWPOLYLINE
  5
134
100
AcDbEntity
  8
0
 62
7
100
AcDbPolyline
 90
3
 70
0
 10
13411.729167
 20
-9981.141667
 30
0.0
 10
13279.437500
 20
-9938.808333
 30
0.0
 10
13411.729167
 20
-9893.829167
 30
0.0
  0
LWPOLYLINE
  5
135
100
AcDbEntity
  8
0
 62
7
100
AcDbPolyline
 90
16
 70
0
 10
13398.500000
 20
-9774.766667
 30
0.0
 10
13403.791667
 20
-9780.058333
 30
0.0
 10
13411.729167
 20
-9798.579167
 30
0.0
 10
13411.729167
 20
-9811.808333
 30
0.0
 10
13403.791667
 20
-9830.329167
 30
0.0
 10
13390.562500
 20
-9843.558333
 30
0.0
 10
13379.979167
 20
-9848.850000
 30
0.0
 10
13353.520833
 20
-9854.141667
 30
0.0
 10
13335.000000
 20
-9854.141667
 30
0.0
 10
13311.187500
 20
-9848.850000
 30
0.0
 10
13297.958333
 20
-9843.558333
 30
0.0
 10
13284.729167
 20
-9830.329167
 30
0.0
 10
13279.437500
 20
-9811.808333
 30
0.0
 10
13279.437500
 20
-9798.579167
 30
0.0
 10
13284.729167
 20
-9780.058333
 30
0.0
 10
13290.020833
 20
-9774.766667
 30
0.0
  0
LWPOLYLINE
  5
136
100
AcDbEntity
  8
0
 62
7
100
AcDbPolyline
 90
2
 70
0
 10
13411.729167
 20
-9716.558333
 30
0.0
 10
13279.437500
 20
-9716.558333
 30
0.0
  0
LWPOLYLINE
  5
137
100
AcDbEntity
  8
0
 62
7
100
AcDbPolyline
 90
2
 70
0
 10
13411.729167
 20
-9642.475000
 30
0.0
 10
13335.000000
 20
-9698.037500
 30
0.0
  0
SPLINE
  5
138
100
AcDbEntity
  8
0
 62
7
100
AcDbSpline
 70
8
 71
3
 72
8
 73
4
 74
0
 40
0
 40
0
 40
0
 40
0
 40
1
 40
1
 40
1
 40
1
 10
13086.291667
 20
-11558.058333
 30
0.0
 10
13086.291667
 20
-11662.982771
 30
0.0
 10
13030.315145
 20
-11759.936950
 30
0.0
 10
12939.447917
 20
-11812.399169
 30
0.0
  0
SPLINE
  5
139
100
AcDbEntity
  8
0
 62
7
100
AcDbSpline
 70
8
 71
3
 72
8
 73
4
 74
0
 40
0
 40
0
 40
0
 40
0
 40
1
 40
1
 40
1
 40
1
 10
12939.447917
 20
-11812.399169
 30
0.0
 10
12848.580688
 20
-11864.861388
 30
0.0
 10
12736.627645
 20
-11864.861388
 30
0.0
 10
12645.760417
 20
-11812.399169
 30
0.0
  0
SPLINE
  5
13a
100
AcDbEntity
  8
0
 62
7
100
AcDbSpline
 70
8
 71
3
 72
8
 73
4
 74
0
 40
0
 40
0
 40
0
 40
0
 40
1
 40
1
 40
1
 40
1
 10
12645.760417
 20
-11812.399169
 30
0.0
 10
12554.893188
 20
-11759.936950
 30
0.0
 10
12498.916667
 20
-11662.982771
 30
0.0
 10
12498.916667
 20
-11558.058333
 30
0.0
  0
SPLINE
  5
13b
100
AcDbEntity
  8
0
 62
7
100
AcDbSpline
 70
8
 71
3
 72
8
 73
4
 74
0
 40
0
 40
0
 40
0
 40
0
 40
1
 40
1
 40
1
 40
1
 10
12498.916667
 20
-11558.058333
 30
0.0
 10
12498.916667
 20
-11453.133895
 30
0.0
 10
12554.893188
 20
-11356.179717
 30
0.0
 10
12645.760417
 20
-11303.717498
 30
0.0
  0
SPLINE
  5
13c
100
AcDbEntity
  8
0
 62
7
100
AcDbSpline
 70
8
 71
3
 72
8
 73
4
 74
0
 40
0
 40
0
 40
0
 40
0
 40
1
 40
1
 40
1
 40
1
 10
12645.760417
 20
-11303.717498
 30
0.0
 10
12736.627645
 20
-11251.255279
 30
0.0
 10
12848.580688
 20
-11251.255279
 30
0.0
 10
12939.447917
 20
-11303.717498
 30
0.0
  0
SPLINE
  5
13d
100
AcDbEntity
  8
0
 62
7
100
AcDbSpline
 70
8
 71
3
 72
8
 73
4
 74
0
 40
0
 40
0
 40
0
 40
0
 40
1
 40
1
 40
1
 40
1
 10
12939.447917
 20
-11303.717498
 30
0.0
 10
13030.315145
 20
-11356.179717
 30
0.0
 10
13086.291667
 20
-11453.133895
 30
0.0
 10
13086.291667
 20
-11558.058333
 30
0.0
  0
LWPOLYLINE
  5
13e
100
AcDbEntity
  8
0
 62
7
100
AcDbPolyline
 90
2
 70
0
 10
13279.437500
 20
-9642.475000
 30
0.0
 10
13353.520833
 20
-9716.558333
 30
0.0
  0
SPLINE
  5
13f
100
AcDbEntity
  8
0
 62
7
100
AcDbSpline
 70
8
 71
3
 72
8
 73
4
 74
0
 40
0
 40
0
 40
0
 40
0
 40
1
 40
1
 40
1
 40
1
 10
12729.104167
 20
-11743.266667
 30
0.0
 10
12729.104167
 20
-11753.664584
 30
0.0
 10
12723.556944
 20
-11763.272656
 30
0.0
 10
12714.552083
 20
-11768.471614
 30
0.0
  0
SPLINE
  5
140
100
AcDbEntity
  8
0
 62
7
100
AcDbSpline
 70
8
 71
3
 72
8
 73
4
 74
0
 40
0
 40
0
 40
0
 40
0
 40
1
 40
1
 40
1
 40
1
 10
12714.552083
 20
-11768.471614
 30
0.0
 10
12705.547223
 20
-11773.670573
 30
0.0
 10
12694.452777
 20
-11773.670573
 30
0.0
 10
12685.447917
 20
-11768.471614
 30
0.0
  0
SPLINE
  5
141
100
AcDbEntity
  8
0
 62
7
100
AcDbSpline
 70
8
 71
3
 72
8
 73
4
 74
0
 40
0
 40
0
 40
0
 40
0
 40
1
 40
1
 40
1
 40
1
 10
12685.447917
 20
-11768.471614
 30
0.0
 10
12676.443056
 20
-11763.272656
 30
0.0
 10
12670.895833
 20
-11753.664584
 30
0.0
 10
12670.895833
 20
-11743.266667
 30
0.0
  0
SPLINE
  5
142
100
AcDbEntity
  8
0
 62
7
100
AcDbSpline
 70
8
 71
3
 72
8
 73
4
 74
0
 40
0
 40
0
 40
0
 40
0
 40
1
 40
1
 40
1
 40
1
 10
12670.895833
 20
-11743.266667
 30
0.0
 10
12670.895833
 20
-11732.868749
 30
0.0
 10
12676.443056
 20
-11723.260678
 30
0.0
 10
12685.447917
 20
-11718.061719
 30
0.0
  0
SPLINE
  5
143
100
AcDbEntity
  8
0
 62
7
100
AcDbSpline
 70
8
 71
3
 72
8
 73
4
 74
0
 40
0
 40
0
 40
0
 40
0
 40
1
 40
1
 40
1
 40
1
 10
12685.447917
 20
-11718.061719
 30
0.0
 10
12694.452777
 20
-11712.862760
 30
0.0
 10
12705.547223
 20
-11712.862760
 30
0.0
 10
12714.552083
 20
-11718.061719
 30
0.0
  0
SPLINE
  5
144
100
AcDbEntity
  8
0
 62
7
100
AcDbSpline
 70
8
 71
3
 72
8
 73
4
 74
0
 40
0
 40
0
 40
0
 40
0
 40
1
 40
1
 40
1
 40
1
 10
12714.552083
 20
-11718.061719
 30
0.0
 10
12723.556944
 20
-11723.260678
 30
0.0
 10
12729.104167
 20
-11732.868749
 30
0.0
 10
12729.104167
 20
-11743.266667
 30
0.0
  0
LWPOLYLINE
  5
145
100
AcDbEntity
  8
0
 62
7
100
AcDbPolyline
 90
1
 70
1
 10
13086.291667
 20
-11558.058333
 30
0.0
  0
SPLINE
  5
146
100
AcDbEntity
  8
0
 62
7
100
AcDbSpline
 70
8
 71
3
 72
8
 73
4
 74
0
 40
0
 40
0
 40
0
 40
0
 40
1
 40
1
 40
1
 40
1
 10
12729.104167
 20
-11372.850000
 30
0.0
 10
12729.104167
 20
-11383.247917
 30
0.0
 10
12723.556944
 20
-11392.855989
 30
0.0
 10
12714.552083
 20
-11398.054948
 30
0.0
  0
SPLINE
  5
147
100
AcDbEntity
  8
0
 62
7
100
AcDbSpline
 70
8
 71
3
 72
8
 73
4
 74
0
 40
0
 40
0
 40
0
 40
0
 40
1
 40
1
 40
1
 40
1
 10
12714.552083
 20
-11398.054948
 30
0.0
 10
12705.547223
 20
-11403.253906
 30
0.0
 10
12694.452777
 20
-11403.253906
 30
0.0
 10
12685.447917
 20
-11398.054948
 30
0.0
  0
SPLINE
  5
148
100
AcDbEntity
  8
0
 62
7
100
AcDbSpline
 70
8
 71
3
 72
8
 73
4
 74
0
 40
0
 40
0
 40
0
 40
0
 40
1
 40
1
 40
1
 40
1
 10
12685.447917
 20
-11398.054948
 30
0.0
 10
12676.443056
 20
-11392.855989
 30
0.0
 10
12670.895833
 20
-11383.247917
 30
0.0
 10
12670.895833
 20
-11372.850000
 30
0.0
  0
SPLINE
  5
149
100
AcDbEntity
  8
0
 62
7
100
AcDbSpline
 70
8
 71
3
 72
8
 73
4
 74
0
 40
0
 40
0
 40
0
 40
0
 40
1
 40
1
 40
1
 40
1
 10
12670.895833
 20
-11372.850000
 30
0.0
 10
12670.895833
 20
-11362.452083
 30
0.0
 10
12676.443056
 20
-11352.844011
 30
0.0
 10
12685.447917
 20
-11347.645052
 30
0.0
  0
SPLINE
  5
14a
100
AcDbEntity
  8
0
 62
7
100
AcDbSpline
 70
8
 71
3
 72
8
 73
4
 74
0
 40
0
 40
0
 40
0
 40
0
 40
1
 40
1
 40
1
 40
1
 10
12685.447917
 20
-11347.645052
 30
0.0
 10
12694.452777
 20
-11342.446094
 30
0.0
 10
12705.547223
 20
-11342.446094
 30
0.0
 10
12714.552083
 20
-11347.645052
 30
0.0
  0
SPLINE
  5
14b
100
AcDbEntity
  8
0
 62
7
100
AcDbSpline
 70
8
 71
3
 72
8
 73
4
 74
0
 40
0
 40
0
 40
0
 40
0
 40
1
 40
1
 40
1
 40
1
 10
12714.552083
 20
-11347.645052
 30
0.0
 10
12723.556944
 20
-11352.844011
 30
0.0
 10
12729.104167
 20
-11362.452083
 30
0.0
 10
12729.104167
 20
-11372.850000
 30
0.0
  0
LWPOLYLINE
  5
14c
100
AcDbEntity
  8
0
 62
7
100
AcDbPolyline
 90
1
 70
1
 10
12729.104167
 20
-11743.266667
 30
0.0
  0
LWPOLYLINE
  5
14d
100
AcDbEntity
  8
0
 62
7
100
AcDbPolyline
 90
1
 70
1
 10
12729.104167
 20
-11372.850000
 30
0.0
  0
LWPOLYLINE
  5
14e
100
AcDbEntity
  8
0
 62
7
100
AcDbPolyline
 90
2
 70
0
 10
12964.583333
 20
-11558.058333
 30
0.0
 10
13493.750000
 20
-11558.058333
 30
0.0
  0
LWPOLYLINE
  5
14f
100
AcDbEntity
  8
0
 62
7
100
AcDbPolyline
 90
2
 70
0
 10
12700.000000
 20
-11293.475000
 30
0.0
 10
12700.000000
 20
-11028.891667
 30
0.0
  0
LWPOLYLINE
  5
150
100
AcDbEntity
  8
0
 62
7
100
AcDbPolyline
 90
2
 70
0
 10
12700.000000
 20
-11822.641667
 30
0.0
 10
12700.000000
 20
-12087.225000
 30
0.0
  0
LWPOLYLINE
  5
151
100
AcDbEntity
  8
0
 62
7
100
AcDbPolyline
 90
5
 70
0
 10
12353.395833
 20
-11920.537500
 30
0.0
 10
12221.104167
 20
-11920.537500
 30
0.0
 10
12313.708333
 20
-11875.558333
 30
0.0
 10
12221.104167
 20
-11833.225000
 30
0.0
 10
12353.395833
 20
-11833.225000
 30
0.0
  0
LWPOLYLINE
  5
152
100
AcDbEntity
  8
0
 62
7
100
AcDbPolyline
 90
16
 70
1
 10
12221.104167
 20
-11745.912500
 30
0.0
 10
12221.104167
 20
-11719.454167
 30
0.0
 10
12226.395833
 20
-11706.225000
 30
0.0
 10
12239.625000
 20
-11695.641667
 30
0.0
 10
12263.437500
 20
-11687.704167
 30
0.0
 10
12308.416667
 20
-11687.704167
 30
0.0
 10
12332.229167
 20
-11695.641667
 30
0.0
 10
12345.458333
 20
-11706.225000
 30
0.0
 10
12353.395833
 20
-11719.454167
 30
0.0
 10
12353.395833
 20
-11745.912500
 30
0.0
 10
12345.458333
 20
-11756.495833
 30
0.0
 10
12332.229167
 20
-11769.725000
 30
0.0
 10
12308.416667
 20
-11775.016667
 30
0.0
 10
12263.437500
 20
-11775.016667
 30
0.0
 10
12239.625000
 20
-11769.725000
 30
0.0
 10
12226.395833
 20
-11756.495833
 30
0.0
  0
LWPOLYLINE
  5
153
100
AcDbEntity
  8
0
 62
7
100
AcDbPolyline
 90
20
 70
0
 10
12345.458333
 20
-11637.433333
 30
0.0
 10
12353.395833
 20
-11618.912500
 30
0.0
 10
12353.395833
 20
-11587.162500
 30
0.0
 10
12345.458333
 20
-11576.579167
 30
0.0
 10
12340.166667
 20
-11568.641667
 30
0.0
 10
12326.937500
 20
-11563.350000
 30
0.0
 10
12313.708333
 20
-11563.350000
 30
0.0
 10
12303.125000
 20
-11568.641667
 30
0.0
 10
12295.187500
 20
-11576.579167
 30
0.0
 10
12289.895833
 20
-11587.162500
 30
0.0
 10
12281.958333
 20
-11613.620833
 30
0.0
 10
12276.666667
 20
-11626.850000
 30
0.0
 10
12271.375000
 20
-11632.141667
 30
0.0
 10
12258.145833
 20
-11637.433333
 30
0.0
 10
12244.916667
 20
-11637.433333
 30
0.0
 10
12231.687500
 20
-11632.141667
 30
0.0
 10
12226.395833
 20
-11626.850000
 30
0.0
 10
12221.104167
 20
-11613.620833
 30
0.0
 10
12221.104167
 20
-11581.870833
 30
0.0
 10
12226.395833
 20
-11563.350000
 30
0.0
  0
LWPOLYLINE
  5
154
100
AcDbEntity
  8
0
 62
7
100
AcDbPolyline
 90
2
 70
0
 10
12281.958333
 20
-11460.162500
 30
0.0
 10
12281.958333
 20
-11505.141667
 30
0.0
  0
LWPOLYLINE
  5
155
100
AcDbEntity
  8
0
 62
7
100
AcDbPolyline
 90
3
 70
0
 10
12353.395833
 20
-11505.141667
 30
0.0
 10
12221.104167
 20
-11505.141667
 30
0.0
 10
12221.104167
 20
-11441.641667
 30
0.0
  0
LWPOLYLINE
  5
156
100
AcDbEntity
  8
0
 62
7
100
AcDbPolyline
 90
2
 70
0
 10
12281.958333
 20
-11391.370833
 30
0.0
 10
12281.958333
 20
-11346.391667
 30
0.0
  0
LWPOLYLINE
  5
157
100
AcDbEntity
  8
0
 62
7
100
AcDbPolyline
 90
4
 70
0
 10
12353.395833
 20
-11327.870833
 30
0.0
 10
12353.395833
 20
-11391.370833
 30
0.0
 10
12221.104167
 20
-11391.370833
 30
0.0
 10
12221.104167
 20
-11327.870833
 30
0.0
  0
LWPOLYLINE
  5
158
100
AcDbEntity
  8
0
 62
7
100
AcDbPolyline
 90
2
 70
0
 10
12221.104167
 20
-11290.829167
 30
0.0
 10
12221.104167
 20
-11216.745833
 30
0.0
  0
LWPOLYLINE
  5
159
100
AcDbEntity
  8
0
 62
7
100
AcDbPolyline
 90
2
 70
0
 10
12353.395833
 20
-11253.787500
 30
0.0
 10
12221.104167
 20
-11253.787500
 30
0.0
  0
LWPOLYLINE
  5
15a
100
AcDbEntity
  8
0
 62
7
100
AcDbPolyline
 90
4
 70
1
 10
14181.666667
 20
-11822.641667
 30
0.0
 10
14393.333333
 20
-11822.641667
 30
0.0
 10
14393.333333
 20
-12351.808333
 30
0.0
 10
14181.666667
 20
-12351.808333
 30
0.0
  0
LWPOLYLINE
  5
15b
100
AcDbEntity
  8
0
 62
7
100
AcDbPolyline
 90
2
 70
0
 10
14287.500000
 20
-12351.808333
 30
0.0
 10
14287.500000
 20
-12484.100000
 30
0.0
  0
LWPOLYLINE
  5
15c
100
AcDbEntity
  8
0
 62
7
100
AcDbPolyline
 90
2
 70
0
 10
14287.500000
 20
-11822.641667
 30
0.0
 10
14287.500000
 20
-11690.350000
 30
0.0
  0
LWPOLYLINE
  5
15d
100
AcDbEntity
  8
0
 62
7
100
AcDbPolyline
 90
2
 70
0
 10
14337.770833
 20
-12179.829167
 30
0.0
 10
14337.770833
 20
-12253.912500
 30
0.0
  0
LWPOLYLINE
  5
15e
100
AcDbEntity
  8
0
 62
7
100
AcDbPolyline
 90
5
 70
0
 10
14337.770833
 20
-12216.870833
 30
0.0
 10
14205.479167
 20
-12216.870833
 30
0.0
 10
14224.000000
 20
-12230.100000
 30
0.0
 10
14237.229167
 20
-12243.329167
 30
0.0
 10
14242.520833
 20
-12253.912500
 30
0.0
  0
LWPOLYLINE
  5
15f
100
AcDbEntity
  8
0
 62
7
100
AcDbPolyline
 90
20
 70
1
 10
14205.479167
 20
-12097.808333
 30
0.0
 10
14205.479167
 20
-12084.579167
 30
0.0
 10
14210.770833
 20
-12071.350000
 30
0.0
 10
14216.062500
 20
-12066.058333
 30
0.0
 10
14229.291667
 20
-12058.120833
 30
0.0
 10
14255.750000
 20
-12052.829167
 30
0.0
 10
14287.500000
 20
-12052.829167
 30
0.0
 10
14311.312500
 20
-12058.120833
 30
0.0
 10
14324.541667
 20
-12066.058333
 30
0.0
 10
14329.833333
 20
-12071.350000
 30
0.0
 10
14337.770833
 20
-12084.579167
 30
0.0
 10
14337.770833
 20
-12097.808333
 30
0.0
 10
14329.833333
 20
-12108.391667
 30
0.0
 10
14324.541667
 20
-12116.329167
 30
0.0
 10
14311.312500
 20
-12121.620833
 30
0.0
 10
14287.500000
 20
-12126.912500
 30
0.0
 10
14255.750000
 20
-12126.912500
 30
0.0
 10
14229.291667
 20
-12121.620833
 30
0.0
 10
14216.062500
 20
-12116.329167
 30
0.0
 10
14210.770833
 20
-12108.391667
 30
0.0
  0
LWPOLYLINE
  5
160
100
AcDbEntity
  8
0
 62
7
100
AcDbPolyline
 90
2
 70
0
 10
14337.770833
 20
-11994.620833
 30
0.0
 10
14205.479167
 20
-11994.620833
 30
0.0
  0
LWPOLYLINE
  5
161
100
AcDbEntity
  8
0
 62
7
100
AcDbPolyline
 90
2
 70
0
 10
14337.770833
 20
-11920.537500
 30
0.0
 10
14261.041667
 20
-11976.100000
 30
0.0
  0
SPLINE
  5
162
100
AcDbEntity
  8
0
 62
7
100
AcDbSpline
 70
8
 71
3
 72
8
 73
4
 74
0
 40
0
 40
0
 40
0
 40
0
 40
1
 40
1
 40
1
 40
1
 10
14340.416667
 20
-10843.683333
 30
0.0
 10
14340.416667
 20
-10862.588637
 30
0.0
 10
14330.330807
 20
-10880.057859
 30
0.0
 10
14313.958333
 20
-10889.510511
 30
0.0
  0
SPLINE
  5
163
100
AcDbEntity
  8
0
 62
7
100
AcDbSpline
 70
8
 71
3
 72
8
 73
4
 74
0
 40
0
 40
0
 40
0
 40
0
 40
1
 40
1
 40
1
 40
1
 10
14313.958333
 20
-10889.510511
 30
0.0
 10
14297.585860
 20
-10898.963163
 30
0.0
 10
14277.414140
 20
-10898.963163
 30
0.0
 10
14261.041667
 20
-10889.510511
 30
0.0
  0
SPLINE
  5
164
100
AcDbEntity
  8
0
 62
7
100
AcDbSpline
 70
8
 71
3
 72
8
 73
4
 74
0
 40
0
 40
0
 40
0
 40
0
 40
1
 40
1
 40
1
 40
1
 10
14261.041667
 20
-10889.510511
 30
0.0
 10
14244.669193
 20
-10880.057859
 30
0.0
 10
14234.583333
 20
-10862.588637
 30
0.0
 10
14234.583333
 20
-10843.683333
 30
0.0
  0
SPLINE
  5
165
100
AcDbEntity
  8
0
 62
7
100
AcDbSpline
 70
8
 71
3
 72
8
 73
4
 74
0
 40
0
 40
0
 40
0
 40
0
 40
1
 40
1
 40
1
 40
1
 10
14234.583333
 20
-10843.683333
 30
0.0
 10
14234.583333
 20
-10824.778029
 30
0.0
 10
14244.669193
 20
-10807.308808
 30
0.0
 10
14261.041667
 20
-10797.856156
 30
0.0
  0
SPLINE
  5
166
100
AcDbEntity
  8
0
 62
7
100
AcDbSpline
 70
8
 71
3
 72
8
 73
4
 74
0
 40
0
 40
0
 40
0
 40
0
 40
1
 40
1
 40
1
 40
1
 10
14261.041667
 20
-10797.856156
 30
0.0
 10
14277.414140
 20
-10788.403504
 30
0.0
 10
14297.585860
 20
-10788.403504
 30
0.0
 10
14313.958333
 20
-10797.856156
 30
0.0
  0
SPLINE
  5
167
100
AcDbEntity
  8
0
 62
7
100
AcDbSpline
 70
8
 71
3
 72
8
 73
4
 74
0
 40
0
 40
0
 40
0
 40
0
 40
1
 40
1
 40
1
 40
1
 10
14313.958333
 20
-10797.856156
 30
0.0
 10
14330.330807
 20
-10807.308808
 30
0.0
 10
14340.416667
 20
-10824.778029
 30
0.0
 10
14340.416667
 20
-10843.683333
 30
0.0
  0
LWPOLYLINE
  5
168
100
AcDbEntity
  8
0
 62
7
100
AcDbPolyline
 90
2
 70
0
 10
14205.479167
 20
-11920.537500
 30
0.0
 10
14279.562500
 20
-11994.620833
 30
0.0
  0
SPLINE
  5
169
100
AcDbEntity
  8
0
 62
7
100
AcDbSpline
 70
8
 71
3
 72
8
 73
4
 74
0
 40
0
 40
0
 40
0
 40
0
 40
1
 40
1
 40
1
 40
1
 10
14340.416667
 20
-10420.350000
 30
0.0
 10
14340.416667
 20
-10439.255304
 30
0.0
 10
14330.330807
 20
-10456.724526
 30
0.0
 10
14313.958333
 20
-10466.177178
 30
0.0
  0
SPLINE
  5
16a
100
AcDbEntity
  8
0
 62
7
100
AcDbSpline
 70
8
 71
3
 72
8
 73
4
 74
0
 40
0
 40
0
 40
0
 40
0
 40
1
 40
1
 40
1
 40
1
 10
14313.958333
 20
-10466.177178
 30
0.0
 10
14297.585860
 20
-10475.629830
 30
0.0
 10
14277.414140
 20
-10475.629830
 30
0.0
 10
14261.041667
 20
-10466.177178
 30
0.0
  0
SPLINE
  5
16b
100
AcDbEntity
  8
0
 62
7
100
AcDbSpline
 70
8
 71
3
 72
8
 73
4
 74
0
 40
0
 40
0
 40
0
 40
0
 40
1
 40
1
 40
1
 40
1
 10
14261.041667
 20
-10466.177178
 30
0.0
 10
14244.669193
 20
-10456.724526
 30
0.0
 10
14234.583333
 20
-10439.255304
 30
0.0
 10
14234.583333
 20
-10420.350000
 30
0.0
  0
SPLINE
  5
16c
100
AcDbEntity
  8
0
 62
7
100
AcDbSpline
 70
8
 71
3
 72
8
 73
4
 74
0
 40
0
 40
0
 40
0
 40
0
 40
1
 40
1
 40
1
 40
1
 10
14234.583333
 20
-10420.350000
 30
0.0
 10
14234.583333
 20
-10401.444696
 30
0.0
 10
14244.669193
 20
-10383.975474
 30
0.0
 10
14261.041667
 20
-10374.522822
 30
0.0
  0
SPLINE
  5
16d
100
AcDbEntity
  8
0
 62
7
100
AcDbSpline
 70
8
 71
3
 72
8
 73
4
 74
0
 40
0
 40
0
 40
0
 40
0
 40
1
 40
1
 40
1
 40
1
 10
14261.041667
 20
-10374.522822
 30
0.0
 10
14277.414140
 20
-10365.070170
 30
0.0
 10
14297.585860
 20
-10365.070170
 30
0.0
 10
14313.958333
 20
-10374.522822
 30
0.0
  0
SPLINE
  5
16e
100
AcDbEntity
  8
0
 62
7
100
AcDbSpline
 70
8
 71
3
 72
8
 73
4
 74
0
 40
0
 40
0
 40
0
 40
0
 40
1
 40
1
 40
1
 40
1
 10
14313.958333
 20
-10374.522822
 30
0.0
 10
14330.330807
 20
-10383.975474
 30
0.0
 10
14340.416667
 20
-10401.444696
 30
0.0
 10
14340.416667
 20
-10420.350000
 30
0.0
  0
LWPOLYLINE
  5
16f
100
AcDbEntity
  8
0
 62
7
100
AcDbPolyline
 90
1
 70
1
 10
14340.416667
 20
-10843.683333
 30
0.0
  0
LWPOLYLINE
  5
170
100
AcDbEntity
  8
0
 62
7
100
AcDbPolyline
 90
1
 70
1
 10
14340.416667
 20
-10420.350000
 30
0.0
  0
LWPOLYLINE
  5
171
100
AcDbEntity
  8
0
 62
7
100
AcDbPolyline
 90
2
 70
0
 10
14287.500000
 20
-10896.600000
 30
0.0
 10
14287.500000
 20
-11161.183333
 30
0.0
  0
LWPOLYLINE
  5
172
100
AcDbEntity
  8
0
 62
7
100
AcDbPolyline
 90
2
 70
0
 10
14440.958333
 20
-10991.850000
 30
0.0
 10
14440.958333
 20
-11065.933333
 30
0.0
  0
LWPOLYLINE
  5
173
100
AcDbEntity
  8
0
 62
7
100
AcDbPolyline
 90
5
 70
0
 10
14440.958333
 20
-11028.891667
 30
0.0
 10
14308.666667
 20
-11028.891667
 30
0.0
 10
14327.187500
 20
-11042.120833
 30
0.0
 10
14340.416667
 20
-11055.350000
 30
0.0
 10
14345.708333
 20
-11065.933333
 30
0.0
  0
LWPOLYLINE
  5
174
100
AcDbEntity
  8
0
 62
7
100
AcDbPolyline
 90
2
 70
0
 10
14287.500000
 20
-10367.433333
 30
0.0
 10
14287.500000
 20
-10102.850000
 30
0.0
  0
LWPOLYLINE
  5
175
100
AcDbEntity
  8
0
 62
7
100
AcDbPolyline
 90
11
 70
0
 10
14319.250000
 20
-10272.183333
 30
0.0
 10
14313.958333
 20
-10266.891667
 30
0.0
 10
14308.666667
 20
-10253.662500
 30
0.0
 10
14308.666667
 20
-10221.912500
 30
0.0
 10
14313.958333
 20
-10211.329167
 30
0.0
 10
14319.250000
 20
-10203.391667
 30
0.0
 10
14332.479167
 20
-10198.100000
 30
0.0
 10
14345.708333
 20
-10198.100000
 30
0.0
 10
14364.229167
 20
-10203.391667
 30
0.0
 10
14440.958333
 20
-10280.120833
 30
0.0
 10
14440.958333
 20
-10198.100000
 30
0.0
  0
LWPOLYLINE
  5
176
100
AcDbEntity
  8
0
 62
7
100
AcDbPolyline
 90
2
 70
0
 10
14036.586894
 20
-10893.954167
 30
0.0
 10
13973.086894
 20
-10936.287500
 30
0.0
  0
LWPOLYLINE
  5
177
100
AcDbEntity
  8
0
 62
7
100
AcDbPolyline
 90
11
 70
0
 10
14036.586894
 20
-10968.037500
 30
0.0
 10
13904.295227
 20
-10968.037500
 30
0.0
 10
13904.295227
 20
-10917.766667
 30
0.0
 10
13909.586894
 20
-10904.537500
 30
0.0
 10
13914.878560
 20
-10899.245833
 30
0.0
 10
13928.107727
 20
-10893.954167
 30
0.0
 10
13946.628560
 20
-10893.954167
 30
0.0
 10
13959.857727
 20
-10899.245833
 30
0.0
 10
13965.149394
 20
-10904.537500
 30
0.0
 10
13973.086894
 20
-10917.766667
 30
0.0
 10
13973.086894
 20
-10968.037500
 30
0.0
  0
LWPOLYLINE
  5
178
100
AcDbEntity
  8
0
 62
7
100
AcDbPolyline
 90
2
 70
0
 10
13965.149394
 20
-10835.745833
 30
0.0
 10
13965.149394
 20
-10790.766667
 30
0.0
  0
LWPOLYLINE
  5
179
100
AcDbEntity
  8
0
 62
7
100
AcDbPolyline
 90
4
 70
0
 10
14036.586894
 20
-10772.245833
 30
0.0
 10
14036.586894
 20
-10835.745833
 30
0.0
 10
13904.295227
 20
-10835.745833
 30
0.0
 10
13904.295227
 20
-10772.245833
 30
0.0
  0
LWPOLYLINE
  5
17a
100
AcDbEntity
  8
0
 62
7
100
AcDbPolyline
 90
3
 70
0
 10
13904.295227
 20
-10735.204167
 30
0.0
 10
14036.586894
 20
-10692.870833
 30
0.0
 10
13904.295227
 20
-10647.891667
 30
0.0
  0
LWPOLYLINE
  5
17b
100
AcDbEntity
  8
0
 62
7
100
AcDbPolyline
 90
2
 70
0
 10
14047.170227
 20
-10634.662500
 30
0.0
 10
14047.170227
 20
-10534.120833
 30
0.0
  0
LWPOLYLINE
  5
17c
100
AcDbEntity
  8
0
 62
7
100
AcDbPolyline
 90
20
 70
0
 10
14028.649394
 20
-10507.662500
 30
0.0
 10
14036.586894
 20
-10489.141667
 30
0.0
 10
14036.586894
 20
-10457.391667
 30
0.0
 10
14028.649394
 20
-10446.808333
 30
0.0
 10
14023.357727
 20
-10438.870833
 30
0.0
 10
14010.128560
 20
-10433.579167
 30
0.0
 10
13996.899394
 20
-10433.579167
 30
0.0
 10
13986.316060
 20
-10438.870833
 30
0.0
 10
13978.378560
 20
-10446.808333
 30
0.0
 10
13973.086894
 20
-10457.391667
 30
0.0
 10
13965.149394
 20
-10483.850000
 30
0.0
 10
13959.857727
 20
-10497.079167
 30
0.0
 10
13954.566060
 20
-10502.370833
 30
0.0
 10
13941.336894
 20
-10507.662500
 30
0.0
 10
13928.107727
 20
-10507.662500
 30
0.0
 10
13914.878560
 20
-10502.370833
 30
0.0
 10
13909.586894
 20
-10497.079167
 30
0.0
 10
13904.295227
 20
-10483.850000
 30
0.0
 10
13904.295227
 20
-10452.100000
 30
0.0
 10
13909.586894
 20
-10433.579167
 30
0.0
  0
LWPOLYLINE
  5
17d
100
AcDbEntity
  8
0
 62
7
100
AcDbPolyline
 90
5
 70
0
 10
13904.295227
 20
-10388.600000
 30
0.0
 10
14036.586894
 20
-10356.850000
 30
0.0
 10
13941.336894
 20
-10330.391667
 30
0.0
 10
14036.586894
 20
-10306.579167
 30
0.0
 10
13904.295227
 20
-10274.829167
 30
0.0
  0
LWPOLYLINE
  5
17e
100
AcDbEntity
  8
0
 62
7
100
AcDbPolyline
 90
2
 70
0
 10
12700.000000
 20
-9309.100000
 30
0.0
 10
12700.000000
 20
-9441.391667
 30
0.0
  0
LWPOLYLINE
  5
17f
100
AcDbEntity
  8
0
 62
7
100
AcDbPolyline
 90
3
 70
0
 10
12700.000000
 20
-10764.308333
 30
0.0
 10
12700.000000
 20
-10896.600000
 30
0.0
 10
12700.000000
 20
-11028.891667
 30
0.0
  0
LWPOLYLINE
  5
180
100
AcDbEntity
  8
0
 62
7
100
AcDbPolyline
 90
2
 70
0
 10
12700.000000
 20
-12087.225000
 30
0.0
 10
12700.000000
 20
-12616.391667
 30
0.0
  0
LWPOLYLINE
  5
181
100
AcDbEntity
  8
0
 62
7
100
AcDbPolyline
 90
3
 70
0
 10
11641.666667
 20
-12616.391667
 30
0.0
 10
12700.000000
 20
-12616.391667
 30
0.0
 10
14287.500000
 20
-12616.391667
 30
0.0
  0
SPLINE
  5
182
100
AcDbEntity
  8
0
 62
7
100
AcDbSpline
 70
8
 71
3
 72
8
 73
4
 74
0
 40
0
 40
0
 40
0
 40
0
 40
1
 40
1
 40
1
 40
1
 10
12752.916667
 20
-12616.391667
 30
0.0
 10
12752.916667
 20
-12635.296971
 30
0.0
 10
12742.830807
 20
-12652.766192
 30
0.0
 10
12726.458333
 20
-12662.218844
 30
0.0
  0
SPLINE
  5
183
100
AcDbEntity
  8
0
 62
7
100
AcDbSpline
 70
8
 71
3
 72
8
 73
4
 74
0
 40
0
 40
0
 40
0
 40
0
 40
1
 40
1
 40
1
 40
1
 10
12726.458333
 20
-12662.218844
 30
0.0
 10
12710.085860
 20
-12671.671496
 30
0.0
 10
12689.914140
 20
-12671.671496
 30
0.0
 10
12673.541667
 20
-12662.218844
 30
0.0
  0
SPLINE
  5
184
100
AcDbEntity
  8
0
 62
7
100
AcDbSpline
 70
8
 71
3
 72
8
 73
4
 74
0
 40
0
 40
0
 40
0
 40
0
 40
1
 40
1
 40
1
 40
1
 10
12673.541667
 20
-12662.218844
 30
0.0
 10
12657.169193
 20
-12652.766192
 30
0.0
 10
12647.083333
 20
-12635.296971
 30
0.0
 10
12647.083333
 20
-12616.391667
 30
0.0
  0
SPLINE
  5
185
100
AcDbEntity
  8
0
 62
7
100
AcDbSpline
 70
8
 71
3
 72
8
 73
4
 74
0
 40
0
 40
0
 40
0
 40
0
 40
1
 40
1
 40
1
 40
1
 10
12647.083333
 20
-12616.391667
 30
0.0
 10
12647.083333
 20
-12597.486363
 30
0.0
 10
12657.169193
 20
-12580.017141
 30
0.0
 10
12673.541667
 20
-12570.564489
 30
0.0
  0
SPLINE
  5
186
100
AcDbEntity
  8
0
 62
7
100
AcDbSpline
 70
8
 71
3
 72
8
 73
4
 74
0
 40
0
 40
0
 40
0
 40
0
 40
1
 40
1
 40
1
 40
1
 10
12673.541667
 20
-12570.564489
 30
0.0
 10
12689.914140
 20
-12561.111837
 30
0.0
 10
12710.085860
 20
-12561.111837
 30
0.0
 10
12726.458333
 20
-12570.564489
 30
0.0
  0
SPLINE
  5
187
100
AcDbEntity
  8
0
 62
7
100
AcDbSpline
 70
8
 71
3
 72
8
 73
4
 74
0
 40
0
 40
0
 40
0
 40
0
 40
1
 40
1
 40
1
 40
1
 10
12726.458333
 20
-12570.564489
 30
0.0
 10
12742.830807
 20
-12580.017141
 30
0.0
 10
12752.916667
 20
-12597.486363
 30
0.0
 10
12752.916667
 20
-12616.391667
 30
0.0
  0
LWPOLYLINE
  5
188
100
AcDbEntity
  8
0
 62
7
100
AcDbPolyline
 90
2
 70
0
 10
11641.666667
 20
-12616.391667
 30
0.0
 10
11641.666667
 20
-12087.225000
 30
0.0
  0
LWPOLYLINE
  5
189
100
AcDbEntity
  8
0
 62
7
100
AcDbPolyline
 90
1
 70
1
 10
12752.916667
 20
-12616.391667
 30
0.0
  0
LWPOLYLINE
  5
18a
100
AcDbEntity
  8
0
 62
7
100
AcDbPolyline
 90
3
 70
0
 10
13493.750000
 20
-11558.058333
 30
0.0
 10
14287.500000
 20
-11558.058333
 30
0.0
 10
14816.666667
 20
-11558.058333
 30
0.0
  0
SPLINE
  5
18b
100
AcDbEntity
  8
0
 62
7
100
AcDbSpline
 70
8
 71
3
 72
8
 73
4
 74
0
 40
0
 40
0
 40
0
 40
0
 40
1
 40
1
 40
1
 40
1
 10
12752.916667
 20
-10896.600000
 30
0.0
 10
12752.916667
 20
-10915.505304
 30
0.0
 10
12742.830807
 20
-10932.974526
 30
0.0
 10
12726.458333
 20
-10942.427178
 30
0.0
  0
SPLINE
  5
18c
100
AcDbEntity
  8
0
 62
7
100
AcDbSpline
 70
8
 71
3
 72
8
 73
4
 74
0
 40
0
 40
0
 40
0
 40
0
 40
1
 40
1
 40
1
 40
1
 10
12726.458333
 20
-10942.427178
 30
0.0
 10
12710.085860
 20
-10951.879830
 30
0.0
 10
12689.914140
 20
-10951.879830
 30
0.0
 10
12673.541667
 20
-10942.427178
 30
0.0
  0
SPLINE
  5
18d
100
AcDbEntity
  8
0
 62
7
100
AcDbSpline
 70
8
 71
3
 72
8
 73
4
 74
0
 40
0
 40
0
 40
0
 40
0
 40
1
 40
1
 40
1
 40
1
 10
12673.541667
 20
-10942.427178
 30
0.0
 10
12657.169193
 20
-10932.974526
 30
0.0
 10
12647.083333
 20
-10915.505304
 30
0.0
 10
12647.083333
 20
-10896.600000
 30
0.0
  0
SPLINE
  5
18e
100
AcDbEntity
  8
0
 62
7
100
AcDbSpline
 70
8
 71
3
 72
8
 73
4
 74
0
 40
0
 40
0
 40
0
 40
0
 40
1
 40
1
 40
1
 40
1
 10
12647.083333
 20
-10896.600000
 30
0.0
 10
12647.083333
 20
-10877.694696
 30
0.0
 10
12657.169193
 20
-10860.225474
 30
0.0
 10
12673.541667
 20
-10850.772822
 30
0.0
  0
SPLINE
  5
18f
100
AcDbEntity
  8
0
 62
7
100
AcDbSpline
 70
8
 71
3
 72
8
 73
4
 74
0
 40
0
 40
0
 40
0
 40
0
 40
1
 40
1
 40
1
 40
1
 10
12673.541667
 20
-10850.772822
 30
0.0
 10
12689.914140
 20
-10841.320170
 30
0.0
 10
12710.085860
 20
-10841.320170
 30
0.0
 10
12726.458333
 20
-10850.772822
 30
0.0
  0
SPLINE
  5
190
100
AcDbEntity
  8
0
 62
7
100
AcDbSpline
 70
8
 71
3
 72
8
 73
4
 74
0
 40
0
 40
0
 40
0
 40
0
 40
1
 40
1
 40
1
 40
1
 10
12726.458333
 20
-10850.772822
 30
0.0
 10
12742.830807
 20
-10860.225474
 30
0.0
 10
12752.916667
 20
-10877.694696
 30
0.0
 10
12752.916667
 20
-10896.600000
 30
0.0
  0
LWPOLYLINE
  5
191
100
AcDbEntity
  8
0
 62
7
100
AcDbPolyline
 90
3
 70
0
 10
12700.000000
 20
-10896.600000
 30
0.0
 10
13626.041667
 20
-10896.600000
 30
0.0
 10
13626.041667
 20
-10499.725000
 30
0.0
  0
LWPOLYLINE
  5
192
100
AcDbEntity
  8
0
 62
7
100
AcDbPolyline
 90
1
 70
1
 10
12752.916667
 20
-10896.600000
 30
0.0
  0
LWPOLYLINE
  5
193
100
AcDbEntity
  8
0
 62
7
100
AcDbPolyline
 90
5
 70
0
 10
11641.666667
 20
-9309.100000
 30
0.0
 10
12700.000000
 20
-9309.100000
 30
0.0
 10
13626.041667
 20
-9309.100000
 30
0.0
 10
14287.500000
 20
-9309.100000
 30
0.0
 10
14816.666667
 20
-9309.100000
 30
0.0
  0
SPLINE
  5
194
100
AcDbEntity
  8
0
 62
7
100
AcDbSpline
 70
8
 71
3
 72
8
 73
4
 74
0
 40
0
 40
0
 40
0
 40
0
 40
1
 40
1
 40
1
 40
1
 10
12752.916667
 20
-9309.100000
 30
0.0
 10
12752.916667
 20
-9328.005304
 30
0.0
 10
12742.830807
 20
-9345.474526
 30
0.0
 10
12726.458333
 20
-9354.927178
 30
0.0
  0
SPLINE
  5
195
100
AcDbEntity
  8
0
 62
7
100
AcDbSpline
 70
8
 71
3
 72
8
 73
4
 74
0
 40
0
 40
0
 40
0
 40
0
 40
1
 40
1
 40
1
 40
1
 10
12726.458333
 20
-9354.927178
 30
0.0
 10
12710.085860
 20
-9364.379830
 30
0.0
 10
12689.914140
 20
-9364.379830
 30
0.0
 10
12673.541667
 20
-9354.927178
 30
0.0
  0
SPLINE
  5
196
100
AcDbEntity
  8
0
 62
7
100
AcDbSpline
 70
8
 71
3
 72
8
 73
4
 74
0
 40
0
 40
0
 40
0
 40
0
 40
1
 40
1
 40
1
 40
1
 10
12673.541667
 20
-9354.927178
 30
0.0
 10
12657.169193
 20
-9345.474526
 30
0.0
 10
12647.083333
 20
-9328.005304
 30
0.0
 10
12647.083333
 20
-9309.100000
 30
0.0
  0
SPLINE
  5
197
100
AcDbEntity
  8
0
 62
7
100
AcDbSpline
 70
8
 71
3
 72
8
 73
4
 74
0
 40
0
 40
0
 40
0
 40
0
 40
1
 40
1
 40
1
 40
1
 10
12647.083333
 20
-9309.100000
 30
0.0
 10
12647.083333
 20
-9290.194696
 30
0.0
 10
12657.169193
 20
-9272.725474
 30
0.0
 10
12673.541667
 20
-9263.272822
 30
0.0
  0
SPLINE
  5
198
100
AcDbEntity
  8
0
 62
7
100
AcDbSpline
 70
8
 71
3
 72
8
 73
4
 74
0
 40
0
 40
0
 40
0
 40
0
 40
1
 40
1
 40
1
 40
1
 10
12673.541667
 20
-9263.272822
 30
0.0
 10
12689.914140
 20
-9253.820170
 30
0.0
 10
12710.085860
 20
-9253.820170
 30
0.0
 10
12726.458333
 20
-9263.272822
 30
0.0
  0
SPLINE
  5
199
100
AcDbEntity
  8
0
 62
7
100
AcDbSpline
 70
8
 71
3
 72
8
 73
4
 74
0
 40
0
 40
0
 40
0
 40
0
 40
1
 40
1
 40
1
 40
1
 10
12726.458333
 20
-9263.272822
 30
0.0
 10
12742.830807
 20
-9272.725474
 30
0.0
 10
12752.916667
 20
-9290.194696
 30
0.0
 10
12752.916667
 20
-9309.100000
 30
0.0
  0
LWPOLYLINE
  5
19a
100
AcDbEntity
  8
0
 62
7
100
AcDbPolyline
 90
2
 70
0
 10
13626.041667
 20
-9309.100000
 30
0.0
 10
13626.041667
 20
-9705.975000
 30
0.0
  0
LWPOLYLINE
  5
19b
100
AcDbEntity
  8
0
 62
7
100
AcDbPolyline
 90
1
 70
1
 10
12752.916667
 20
-9309.100000
 30
0.0
  0
LWPOLYLINE
  5
19c
100
AcDbEntity
  8
0
 62
7
100
AcDbPolyline
 90
2
 70
0
 10
11641.666667
 20
-11028.891667
 30
0.0
 10
11641.666667
 20
-10499.725000
 30
0.0
  0
SPLINE
  5
19d
100
AcDbEntity
  8
0
 62
7
100
AcDbSpline
 70
8
 71
3
 72
8
 73
4
 74
0
 40
0
 40
0
 40
0
 40
0
 40
1
 40
1
 40
1
 40
1
 10
13678.958333
 20
-9309.100000
 30
0.0
 10
13678.958333
 20
-9328.005304
 30
0.0
 10
13668.872474
 20
-9345.474526
 30
0.0
 10
13652.500000
 20
-9354.927178
 30
0.0
  0
SPLINE
  5
19e
100
AcDbEntity
  8
0
 62
7
100
AcDbSpline
 70
8
 71
3
 72
8
 73
4
 74
0
 40
0
 40
0
 40
0
 40
0
 40
1
 40
1
 40
1
 40
1
 10
13652.500000
 20
-9354.927178
 30
0.0
 10
13636.127526
 20
-9364.379830
 30
0.0
 10
13615.955807
 20
-9364.379830
 30
0.0
 10
13599.583333
 20
-9354.927178
 30
0.0
  0
SPLINE
  5
19f
100
AcDbEntity
  8
0
 62
7
100
AcDbSpline
 70
8
 71
3
 72
8
 73
4
 74
0
 40
0
 40
0
 40
0
 40
0
 40
1
 40
1
 40
1
 40
1
 10
13599.583333
 20
-9354.927178
 30
0.0
 10
13583.210860
 20
-9345.474526
 30
0.0
 10
13573.125000
 20
-9328.005304
 30
0.0
 10
13573.125000
 20
-9309.100000
 30
0.0
  0
SPLINE
  5
1a0
100
AcDbEntity
  8
0
 62
7
100
AcDbSpline
 70
8
 71
3
 72
8
 73
4
 74
0
 40
0
 40
0
 40
0
 40
0
 40
1
 40
1
 40
1
 40
1
 10
13573.125000
 20
-9309.100000
 30
0.0
 10
13573.125000
 20
-9290.194696
 30
0.0
 10
13583.210860
 20
-9272.725474
 30
0.0
 10
13599.583333
 20
-9263.272822
 30
0.0
  0
SPLINE
  5
1a1
100
AcDbEntity
  8
0
 62
7
100
AcDbSpline
 70
8
 71
3
 72
8
 73
4
 74
0
 40
0
 40
0
 40
0
 40
0
 40
1
 40
1
 40
1
 40
1
 10
13599.583333
 20
-9263.272822
 30
0.0
 10
13615.955807
 20
-9253.820170
 30
0.0
 10
13636.127526
 20
-9253.820170
 30
0.0
 10
13652.500000
 20
-9263.272822
 30
0.0
  0
SPLINE
  5
1a2
100
AcDbEntity
  8
0
 62
7
100
AcDbSpline
 70
8
 71
3
 72
8
 73
4
 74
0
 40
0
 40
0
 40
0
 40
0
 40
1
 40
1
 40
1
 40
1
 10
13652.500000
 20
-9263.272822
 30
0.0
 10
13668.872474
 20
-9272.725474
 30
0.0
 10
13678.958333
 20
-9290.194696
 30
0.0
 10
13678.958333
 20
-9309.100000
 30
0.0
  0
LWPOLYLINE
  5
1a3
100
AcDbEntity
  8
0
 62
7
100
AcDbPolyline
 90
2
 70
0
 10
11641.666667
 20
-9705.975000
 30
0.0
 10
11641.666667
 20
-9309.100000
 30
0.0
  0
LWPOLYLINE
  5
1a4
100
AcDbEntity
  8
0
 62
7
100
AcDbPolyline
 90
1
 70
1
 10
13678.958333
 20
-9309.100000
 30
0.0
  0
LWPOLYLINE
  5
1a5
100
AcDbEntity
  8
0
 62
7
100
AcDbPolyline
 90
2
 70
0
 10
14287.500000
 20
-12616.391667
 30
0.0
 10
14287.500000
 20
-12484.100000
 30
0.0
  0
SPLINE
  5
1a6
100
AcDbEntity
  8
0
 62
7
100
AcDbSpline
 70
8
 71
3
 72
8
 73
4
 74
0
 40
0
 40
0
 40
0
 40
0
 40
1
 40
1
 40
1
 40
1
 10
14340.416667
 20
-11558.058333
 30
0.0
 10
14340.416667
 20
-11576.963637
 30
0.0
 10
14330.330807
 20
-11594.432859
 30
0.0
 10
14313.958333
 20
-11603.885511
 30
0.0
  0
SPLINE
  5
1a7
100
AcDbEntity
  8
0
 62
7
100
AcDbSpline
 70
8
 71
3
 72
8
 73
4
 74
0
 40
0
 40
0
 40
0
 40
0
 40
1
 40
1
 40
1
 40
1
 10
14313.958333
 20
-11603.885511
 30
0.0
 10
14297.585860
 20
-11613.338163
 30
0.0
 10
14277.414140
 20
-11613.338163
 30
0.0
 10
14261.041667
 20
-11603.885511
 30
0.0
  0
SPLINE
  5
1a8
100
AcDbEntity
  8
0
 62
7
100
AcDbSpline
 70
8
 71
3
 72
8
 73
4
 74
0
 40
0
 40
0
 40
0
 40
0
 40
1
 40
1
 40
1
 40
1
 10
14261.041667
 20
-11603.885511
 30
0.0
 10
14244.669193
 20
-11594.432859
 30
0.0
 10
14234.583333
 20
-11576.963637
 30
0.0
 10
14234.583333
 20
-11558.058333
 30
0.0
  0
SPLINE
  5
1a9
100
AcDbEntity
  8
0
 62
7
100
AcDbSpline
 70
8
 71
3
 72
8
 73
4
 74
0
 40
0
 40
0
 40
0
 40
0
 40
1
 40
1
 40
1
 40
1
 10
14234.583333
 20
-11558.058333
 30
0.0
 10
14234.583333
 20
-11539.153029
 30
0.0
 10
14244.669193
 20
-11521.683808
 30
0.0
 10
14261.041667
 20
-11512.231156
 30
0.0
  0
SPLINE
  5
1aa
100
AcDbEntity
  8
0
 62
7
100
AcDbSpline
 70
8
 71
3
 72
8
 73
4
 74
0
 40
0
 40
0
 40
0
 40
0
 40
1
 40
1
 40
1
 40
1
 10
14261.041667
 20
-11512.231156
 30
0.0
 10
14277.414140
 20
-11502.778504
 30
0.0
 10
14297.585860
 20
-11502.778504
 30
0.0
 10
14313.958333
 20
-11512.231156
 30
0.0
  0
SPLINE
  5
1ab
100
AcDbEntity
  8
0
 62
7
100
AcDbSpline
 70
8
 71
3
 72
8
 73
4
 74
0
 40
0
 40
0
 40
0
 40
0
 40
1
 40
1
 40
1
 40
1
 10
14313.958333
 20
-11512.231156
 30
0.0
 10
14330.330807
 20
-11521.683808
 30
0.0
 10
14340.416667
 20
-11539.153029
 30
0.0
 10
14340.416667
 20
-11558.058333
 30
0.0
  0
LWPOLYLINE
  5
1ac
100
AcDbEntity
  8
0
 62
7
100
AcDbPolyline
 90
3
 70
0
 10
14287.500000
 20
-11161.183333
 30
0.0
 10
14287.500000
 20
-11558.058333
 30
0.0
 10
14287.500000
 20
-11690.350000
 30
0.0
  0
LWPOLYLINE
  5
1ad
100
AcDbEntity
  8
0
 62
7
100
AcDbPolyline
 90
1
 70
1
 10
14340.416667
 20
-11558.058333
 30
0.0
  0
SPLINE
  5
1ae
100
AcDbEntity
  8
0
 62
7
100
AcDbSpline
 70
8
 71
3
 72
8
 73
4
 74
0
 40
0
 40
0
 40
0
 40
0
 40
1
 40
1
 40
1
 40
1
 10
13009.562500
 20
-10129.308333
 30
0.0
 10
13009.562500
 20
-10239.904363
 30
0.0
 10
12950.560221
 20
-10342.099308
 30
0.0
 10
12854.781250
 20
-10397.397322
 30
0.0
  0
SPLINE
  5
1af
100
AcDbEntity
  8
0
 62
7
100
AcDbSpline
 70
8
 71
3
 72
8
 73
4
 74
0
 40
0
 40
0
 40
0
 40
0
 40
1
 40
1
 40
1
 40
1
 10
12854.781250
 20
-10397.397322
 30
0.0
 10
12759.002279
 20
-10452.695337
 30
0.0
 10
12640.997721
 20
-10452.695337
 30
0.0
 10
12545.218750
 20
-10397.397322
 30
0.0
  0
SPLINE
  5
1b0
100
AcDbEntity
  8
0
 62
7
100
AcDbSpline
 70
8
 71
3
 72
8
 73
4
 74
0
 40
0
 40
0
 40
0
 40
0
 40
1
 40
1
 40
1
 40
1
 10
12545.218750
 20
-10397.397322
 30
0.0
 10
12449.439779
 20
-10342.099308
 30
0.0
 10
12390.437500
 20
-10239.904363
 30
0.0
 10
12390.437500
 20
-10129.308333
 30
0.0
  0
SPLINE
  5
1b1
100
AcDbEntity
  8
0
 62
7
100
AcDbSpline
 70
8
 71
3
 72
8
 73
4
 74
0
 40
0
 40
0
 40
0
 40
0
 40
1
 40
1
 40
1
 40
1
 10
12390.437500
 20
-10129.308333
 30
0.0
 10
12390.437500
 20
-10018.712304
 30
0.0
 10
12449.439779
 20
-9916.517359
 30
0.0
 10
12545.218750
 20
-9861.219344
 30
0.0
  0
SPLINE
  5
1b2
100
AcDbEntity
  8
0
 62
7
100
AcDbSpline
 70
8
 71
3
 72
8
 73
4
 74
0
 40
0
 40
0
 40
0
 40
0
 40
1
 40
1
 40
1
 40
1
 10
12545.218750
 20
-9861.219344
 30
0.0
 10
12640.997721
 20
-9805.921330
 30
0.0
 10
12759.002279
 20
-9805.921330
 30
0.0
 10
12854.781250
 20
-9861.219344
 30
0.0
  0
SPLINE
  5
1b3
100
AcDbEntity
  8
0
 62
7
100
AcDbSpline
 70
8
 71
3
 72
8
 73
4
 74
0
 40
0
 40
0
 40
0
 40
0
 40
1
 40
1
 40
1
 40
1
 10
12854.781250
 20
-9861.219344
 30
0.0
 10
12950.560221
 20
-9916.517359
 30
0.0
 10
13009.562500
 20
-10018.712304
 30
0.0
 10
13009.562500
 20
-10129.308333
 30
0.0
  0
LWPOLYLINE
  5
1b4
100
AcDbEntity
  8
0
 62
7
100
AcDbPolyline
 90
2
 70
0
 10
14287.500000
 20
-9309.100000
 30
0.0
 10
14287.500000
 20
-10102.850000
 30
0.0
  0
LWPOLYLINE
  5
1b5
100
AcDbEntity
  8
0
 62
7
100
AcDbPolyline
 90
1
 70
1
 10
13009.562500
 20
-10129.308333
 30
0.0
  0
LWPOLYLINE
  5
1b6
100
AcDbEntity
  8
0
 62
7
100
AcDbPolyline
 90
2
 70
0
 10
12700.000000
 20
-9705.975000
 30
0.0
 10
12700.000000
 20
-9441.391667
 30
0.0
  0
LWPOLYLINE
  5
1b7
100
AcDbEntity
  8
0
 62
7
100
AcDbPolyline
 90
2
 70
0
 10
12617.979167
 20
-9623.954167
 30
0.0
 10
12617.979167
 20
-9523.412500
 30
0.0
  0
LWPOLYLINE
  5
1b8
100
AcDbEntity
  8
0
 62
7
100
AcDbPolyline
 90
2
 70
0
 10
12668.250000
 20
-9573.683333
 30
0.0
 10
12567.708333
 20
-9573.683333
 30
0.0
  0
LWPOLYLINE
  5
1b9
100
AcDbEntity
  8
0
 62
7
100
AcDbPolyline
 90
2
 70
0
 10
12700.000000
 20
-10499.725000
 30
0.0
 10
12700.000000
 20
-10764.308333
 30
0.0
  0
LWPOLYLINE
  5
1ba
100
AcDbEntity
  8
0
 62
7
100
AcDbPolyline
 90
2
 70
0
 10
12617.979167
 20
-10682.287500
 30
0.0
 10
12617.979167
 20
-10581.745833
 30
0.0
  0
LWPOLYLINE
  5
1bb
100
AcDbEntity
  8
0
 62
7
100
AcDbPolyline
 90
5
 70
0
 10
12313.708333
 20
-10465.329167
 30
0.0
 10
12181.416667
 20
-10465.329167
 30
0.0
 10
12274.020833
 20
-10420.350000
 30
0.0
 10
12181.416667
 20
-10378.016667
 30
0.0
 10
12313.708333
 20
-10378.016667
 30
0.0
  0
LWPOLYLINE
  5
1bc
100
AcDbEntity
  8
0
 62
7
100
AcDbPolyline
 90
16
 70
1
 10
12181.416667
 20
-10290.704167
 30
0.0
 10
12181.416667
 20
-10264.245833
 30
0.0
 10
12186.708333
 20
-10251.016667
 30
0.0
 10
12199.937500
 20
-10240.433333
 30
0.0
 10
12223.750000
 20
-10232.495833
 30
0.0
 10
12268.729167
 20
-10232.495833
 30
0.0
 10
12292.541667
 20
-10240.433333
 30
0.0
 10
12305.770833
 20
-10251.016667
 30
0.0
 10
12313.708333
 20
-10264.245833
 30
0.0
 10
12313.708333
 20
-10290.704167
 30
0.0
 10
12305.770833
 20
-10301.287500
 30
0.0
 10
12292.541667
 20
-10314.516667
 30
0.0
 10
12268.729167
 20
-10319.808333
 30
0.0
 10
12223.750000
 20
-10319.808333
 30
0.0
 10
12199.937500
 20
-10314.516667
 30
0.0
 10
12186.708333
 20
-10301.287500
 30
0.0
  0
LWPOLYLINE
  5
1bd
100
AcDbEntity
  8
0
 62
7
100
AcDbPolyline
 90
2
 70
0
 10
12181.416667
 20
-10195.454167
 30
0.0
 10
12181.416667
 20
-10121.370833
 30
0.0
  0
LWPOLYLINE
  5
1be
100
AcDbEntity
  8
0
 62
7
100
AcDbPolyline
 90
2
 70
0
 10
12313.708333
 20
-10158.412500
 30
0.0
 10
12181.416667
 20
-10158.412500
 30
0.0
  0
LWPOLYLINE
  5
1bf
100
AcDbEntity
  8
0
 62
7
100
AcDbPolyline
 90
16
 70
1
 10
12181.416667
 20
-10052.579167
 30
0.0
 10
12181.416667
 20
-10026.120833
 30
0.0
 10
12186.708333
 20
-10012.891667
 30
0.0
 10
12199.937500
 20
-10002.308333
 30
0.0
 10
12223.750000
 20
-9994.370833
 30
0.0
 10
12268.729167
 20
-9994.370833
 30
0.0
 10
12292.541667
 20
-10002.308333
 30
0.0
 10
12305.770833
 20
-10012.891667
 30
0.0
 10
12313.708333
 20
-10026.120833
 30
0.0
 10
12313.708333
 20
-10052.579167
 30
0.0
 10
12305.770833
 20
-10063.162500
 30
0.0
 10
12292.541667
 20
-10076.391667
 30
0.0
 10
12268.729167
 20
-10081.683333
 30
0.0
 10
12223.750000
 20
-10081.683333
 30
0.0
 10
12199.937500
 20
-10076.391667
 30
0.0
 10
12186.708333
 20
-10063.162500
 30
0.0
  0
LWPOLYLINE
  5
1c0
100
AcDbEntity
  8
0
 62
7
100
AcDbPolyline
 90
2
 70
0
 10
12313.708333
 20
-9864.725000
 30
0.0
 10
12250.208333
 20
-9907.058333
 30
0.0
  0
LWPOLYLINE
  5
1c1
100
AcDbEntity
  8
0
 62
7
100
AcDbPolyline
 90
11
 70
0
 10
12313.708333
 20
-9938.808333
 30
0.0
 10
12181.416667
 20
-9938.808333
 30
0.0
 10
12181.416667
 20
-9888.537500
 30
0.0
 10
12186.708333
 20
-9875.308333
 30
0.0
 10
12192.000000
 20
-9870.016667
 30
0.0
 10
12205.229167
 20
-9864.725000
 30
0.0
 10
12223.750000
 20
-9864.725000
 30
0.0
 10
12236.979167
 20
-9870.016667
 30
0.0
 10
12242.270833
 20
-9875.308333
 30
0.0
 10
12250.208333
 20
-9888.537500
 30
0.0
 10
12250.208333
 20
-9938.808333
 30
0.0
  0
LWPOLYLINE
  5
1c2
100
AcDbEntity
  8
0
 62
7
100
AcDbPolyline
 90
20
 70
0
 10
12305.770833
 20
-9811.808333
 30
0.0
 10
12313.708333
 20
-9793.287500
 30
0.0
 10
12313.708333
 20
-9761.537500
 30
0.0
 10
12305.770833
 20
-9750.954167
 30
0.0
 10
12300.479167
 20
-9743.016667
 30
0.0
 10
12287.250000
 20
-9737.725000
 30
0.0
 10
12274.020833
 20
-9737.725000
 30
0.0
 10
12263.437500
 20
-9743.016667
 30
0.0
 10
12255.500000
 20
-9750.954167
 30
0.0
 10
12250.208333
 20
-9761.537500
 30
0.0
 10
12242.270833
 20
-9787.995833
 30
0.0
 10
12236.979167
 20
-9801.225000
 30
0.0
 10
12231.687500
 20
-9806.516667
 30
0.0
 10
12218.458333
 20
-9811.808333
 30
0.0
 10
12205.229167
 20
-9811.808333
 30
0.0
 10
12192.000000
 20
-9806.516667
 30
0.0
 10
12186.708333
 20
-9801.225000
 30
0.0
 10
12181.416667
 20
-9787.995833
 30
0.0
 10
12181.416667
 20
-9756.245833
 30
0.0
 10
12186.708333
 20
-9737.725000
 30
0.0
  0
SPLINE
  5
1c3
100
AcDbEntity
  8
0
 62
7
100
AcDbSpline
 70
8
 71
3
 72
8
 73
4
 74
0
 40
0
 40
0
 40
0
 40
0
 40
1
 40
1
 40
1
 40
1
 10
14340.416667
 20
-9309.100000
 30
0.0
 10
14340.416667
 20
-9328.005304
 30
0.0
 10
14330.330807
 20
-9345.474526
 30
0.0
 10
14313.958333
 20
-9354.927178
 30
0.0
  0
SPLINE
  5
1c4
100
AcDbEntity
  8
0
 62
7
100
AcDbSpline
 70
8
 71
3
 72
8
 73
4
 74
0
 40
0
 40
0
 40
0
 40
0
 40
1
 40
1
 40
1
 40
1
 10
14313.958333
 20
-9354.927178
 30
0.0
 10
14297.585860
 20
-9364.379830
 30
0.0
 10
14277.414140
 20
-9364.379830
 30
0.0
 10
14261.041667
 20
-9354.927178
 30
0.0
  0
SPLINE
  5
1c5
100
AcDbEntity
  8
0
 62
7
100
AcDbSpline
 70
8
 71
3
 72
8
 73
4
 74
0
 40
0
 40
0
 40
0
 40
0
 40
1
 40
1
 40
1
 40
1
 10
14261.041667
 20
-9354.927178
 30
0.0
 10
14244.669193
 20
-9345.474526
 30
0.0
 10
14234.583333
 20
-9328.005304
 30
0.0
 10
14234.583333
 20
-9309.100000
 30
0.0
  0
SPLINE
  5
1c6
100
AcDbEntity
  8
0
 62
7
100
AcDbSpline
 70
8
 71
3
 72
8
 73
4
 74
0
 40
0
 40
0
 40
0
 40
0
 40
1
 40
1
 40
1
 40
1
 10
14234.583333
 20
-9309.100000
 30
0.0
 10
14234.583333
 20
-9290.194696
 30
0.0
 10
14244.669193
 20
-9272.725474
 30
0.0
 10
14261.041667
 20
-9263.272822
 30
0.0
  0
SPLINE
  5
1c7
100
AcDbEntity
  8
0
 62
7
100
AcDbSpline
 70
8
 71
3
 72
8
 73
4
 74
0
 40
0
 40
0
 40
0
 40
0
 40
1
 40
1
 40
1
 40
1
 10
14261.041667
 20
-9263.272822
 30
0.0
 10
14277.414140
 20
-9253.820170
 30
0.0
 10
14297.585860
 20
-9253.820170
 30
0.0
 10
14313.958333
 20
-9263.272822
 30
0.0
  0
SPLINE
  5
1c8
100
AcDbEntity
  8
0
 62
7
100
AcDbSpline
 70
8
 71
3
 72
8
 73
4
 74
0
 40
0
 40
0
 40
0
 40
0
 40
1
 40
1
 40
1
 40
1
 10
14313.958333
 20
-9263.272822
 30
0.0
 10
14330.330807
 20
-9272.725474
 30
0.0
 10
14340.416667
 20
-9290.194696
 30
0.0
 10
14340.416667
 20
-9309.100000
 30
0.0
  0
LWPOLYLINE
  5
1c9
100
AcDbEntity
  8
0
 62
7
100
AcDbPolyline
 90
2
 70
0
 10
14816.666667
 20
-9309.100000
 30
0.0
 10
14816.666667
 20
-9838.266667
 30
0.0
  0
LWPOLYLINE
  5
1ca
100
AcDbEntity
  8
0
 62
7
100
AcDbPolyline
 90
1
 70
1
 10
14340.416667
 20
-9309.100000
 30
0.0
  0
LWPOLYLINE
  5
1cb
100
AcDbEntity
  8
0
 62
7
100
AcDbPolyline
 90
2
 70
0
 10
14816.666667
 20
-11558.058333
 30
0.0
 10
14816.666667
 20
-10102.850000
 30
0.0
  0
ENDSEC
  0
SECTION
  2
OBJECTS
  0
DICTIONARY
  5
C
330
0
100
AcDbDictionary
  3
ACAD_GROUP
350
D
  3
ACAD_MLINESTYLE
350
17
  0
DICTIONARY
  5
D
330
C
100
AcDbDictionary
  0
DICTIONARY
  5
1A
330
C
100
AcDbDictionary
  0
DICTIONARY
  5
17
330
C
100
AcDbDictionary
  3
STANDARD
350
18
  0
DICTIONARY
  5
19
330
C
100
AcDbDictionary
  0
ENDSEC
  0
EOF
