G04 #@! TF.FileFunction,Legend,Top*
%FSLAX46Y46*%
G04 Gerber Fmt 4.6, Leading zero omitted, Abs format (unit mm)*
G04 Created by KiCad (PCBNEW 4.0.7) date 06/28/18 12:26:11*
%MOMM*%
%LPD*%
G01*
G04 APERTURE LIST*
%ADD10C,0.100000*%
%ADD11C,0.150000*%
%ADD12C,0.200000*%
%ADD13C,0.250000*%
%ADD14C,0.300000*%
%ADD15C,0.010000*%
%ADD16C,0.175000*%
%ADD17C,0.312500*%
G04 APERTURE END LIST*
D10*
D11*
X202646643Y-103151214D02*
X202719215Y-103151214D01*
X202791786Y-103187500D01*
X202828072Y-103223786D01*
X202864358Y-103296357D01*
X202900643Y-103441500D01*
X202900643Y-103622929D01*
X202864358Y-103768071D01*
X202828072Y-103840643D01*
X202791786Y-103876929D01*
X202719215Y-103913214D01*
X202646643Y-103913214D01*
X202574072Y-103876929D01*
X202537786Y-103840643D01*
X202501501Y-103768071D01*
X202465215Y-103622929D01*
X202465215Y-103441500D01*
X202501501Y-103296357D01*
X202537786Y-103223786D01*
X202574072Y-103187500D01*
X202646643Y-103151214D01*
X203190929Y-103223786D02*
X203227215Y-103187500D01*
X203299786Y-103151214D01*
X203481215Y-103151214D01*
X203553786Y-103187500D01*
X203590072Y-103223786D01*
X203626357Y-103296357D01*
X203626357Y-103368929D01*
X203590072Y-103477786D01*
X203154643Y-103913214D01*
X203626357Y-103913214D01*
X204098071Y-103151214D02*
X204170643Y-103151214D01*
X204243214Y-103187500D01*
X204279500Y-103223786D01*
X204315786Y-103296357D01*
X204352071Y-103441500D01*
X204352071Y-103622929D01*
X204315786Y-103768071D01*
X204279500Y-103840643D01*
X204243214Y-103876929D01*
X204170643Y-103913214D01*
X204098071Y-103913214D01*
X204025500Y-103876929D01*
X203989214Y-103840643D01*
X203952929Y-103768071D01*
X203916643Y-103622929D01*
X203916643Y-103441500D01*
X203952929Y-103296357D01*
X203989214Y-103223786D01*
X204025500Y-103187500D01*
X204098071Y-103151214D01*
X205077785Y-103913214D02*
X204642357Y-103913214D01*
X204860071Y-103913214D02*
X204860071Y-103151214D01*
X204787500Y-103260071D01*
X204714928Y-103332643D01*
X204642357Y-103368929D01*
D12*
X199982666Y-101113167D02*
X200067333Y-101113167D01*
X200151999Y-101155500D01*
X200194333Y-101197833D01*
X200236666Y-101282500D01*
X200278999Y-101451833D01*
X200278999Y-101663500D01*
X200236666Y-101832833D01*
X200194333Y-101917500D01*
X200151999Y-101959833D01*
X200067333Y-102002167D01*
X199982666Y-102002167D01*
X199897999Y-101959833D01*
X199855666Y-101917500D01*
X199813333Y-101832833D01*
X199770999Y-101663500D01*
X199770999Y-101451833D01*
X199813333Y-101282500D01*
X199855666Y-101197833D01*
X199897999Y-101155500D01*
X199982666Y-101113167D01*
X201041000Y-101409500D02*
X201041000Y-102002167D01*
X200829333Y-101070833D02*
X200617666Y-101705833D01*
X201168000Y-101705833D01*
X201676000Y-101113167D02*
X201760667Y-101113167D01*
X201845333Y-101155500D01*
X201887667Y-101197833D01*
X201930000Y-101282500D01*
X201972333Y-101451833D01*
X201972333Y-101663500D01*
X201930000Y-101832833D01*
X201887667Y-101917500D01*
X201845333Y-101959833D01*
X201760667Y-102002167D01*
X201676000Y-102002167D01*
X201591333Y-101959833D01*
X201549000Y-101917500D01*
X201506667Y-101832833D01*
X201464333Y-101663500D01*
X201464333Y-101451833D01*
X201506667Y-101282500D01*
X201549000Y-101197833D01*
X201591333Y-101155500D01*
X201676000Y-101113167D01*
X202311000Y-101197833D02*
X202353334Y-101155500D01*
X202438000Y-101113167D01*
X202649667Y-101113167D01*
X202734334Y-101155500D01*
X202776667Y-101197833D01*
X202819000Y-101282500D01*
X202819000Y-101367167D01*
X202776667Y-101494167D01*
X202268667Y-102002167D01*
X202819000Y-102002167D01*
D13*
X197913809Y-98512381D02*
X198009048Y-98512381D01*
X198104286Y-98560000D01*
X198151905Y-98607619D01*
X198199524Y-98702857D01*
X198247143Y-98893333D01*
X198247143Y-99131429D01*
X198199524Y-99321905D01*
X198151905Y-99417143D01*
X198104286Y-99464762D01*
X198009048Y-99512381D01*
X197913809Y-99512381D01*
X197818571Y-99464762D01*
X197770952Y-99417143D01*
X197723333Y-99321905D01*
X197675714Y-99131429D01*
X197675714Y-98893333D01*
X197723333Y-98702857D01*
X197770952Y-98607619D01*
X197818571Y-98560000D01*
X197913809Y-98512381D01*
X199104286Y-98512381D02*
X198913809Y-98512381D01*
X198818571Y-98560000D01*
X198770952Y-98607619D01*
X198675714Y-98750476D01*
X198628095Y-98940952D01*
X198628095Y-99321905D01*
X198675714Y-99417143D01*
X198723333Y-99464762D01*
X198818571Y-99512381D01*
X199009048Y-99512381D01*
X199104286Y-99464762D01*
X199151905Y-99417143D01*
X199199524Y-99321905D01*
X199199524Y-99083810D01*
X199151905Y-98988571D01*
X199104286Y-98940952D01*
X199009048Y-98893333D01*
X198818571Y-98893333D01*
X198723333Y-98940952D01*
X198675714Y-98988571D01*
X198628095Y-99083810D01*
X199818571Y-98512381D02*
X199913810Y-98512381D01*
X200009048Y-98560000D01*
X200056667Y-98607619D01*
X200104286Y-98702857D01*
X200151905Y-98893333D01*
X200151905Y-99131429D01*
X200104286Y-99321905D01*
X200056667Y-99417143D01*
X200009048Y-99464762D01*
X199913810Y-99512381D01*
X199818571Y-99512381D01*
X199723333Y-99464762D01*
X199675714Y-99417143D01*
X199628095Y-99321905D01*
X199580476Y-99131429D01*
X199580476Y-98893333D01*
X199628095Y-98702857D01*
X199675714Y-98607619D01*
X199723333Y-98560000D01*
X199818571Y-98512381D01*
X200485238Y-98512381D02*
X201104286Y-98512381D01*
X200770952Y-98893333D01*
X200913810Y-98893333D01*
X201009048Y-98940952D01*
X201056667Y-98988571D01*
X201104286Y-99083810D01*
X201104286Y-99321905D01*
X201056667Y-99417143D01*
X201009048Y-99464762D01*
X200913810Y-99512381D01*
X200628095Y-99512381D01*
X200532857Y-99464762D01*
X200485238Y-99417143D01*
D14*
X196348572Y-95227857D02*
X196462857Y-95227857D01*
X196577143Y-95285000D01*
X196634286Y-95342143D01*
X196691429Y-95456429D01*
X196748572Y-95685000D01*
X196748572Y-95970714D01*
X196691429Y-96199286D01*
X196634286Y-96313571D01*
X196577143Y-96370714D01*
X196462857Y-96427857D01*
X196348572Y-96427857D01*
X196234286Y-96370714D01*
X196177143Y-96313571D01*
X196120000Y-96199286D01*
X196062857Y-95970714D01*
X196062857Y-95685000D01*
X196120000Y-95456429D01*
X196177143Y-95342143D01*
X196234286Y-95285000D01*
X196348572Y-95227857D01*
X197434286Y-95742143D02*
X197320000Y-95685000D01*
X197262857Y-95627857D01*
X197205714Y-95513571D01*
X197205714Y-95456429D01*
X197262857Y-95342143D01*
X197320000Y-95285000D01*
X197434286Y-95227857D01*
X197662857Y-95227857D01*
X197777143Y-95285000D01*
X197834286Y-95342143D01*
X197891429Y-95456429D01*
X197891429Y-95513571D01*
X197834286Y-95627857D01*
X197777143Y-95685000D01*
X197662857Y-95742143D01*
X197434286Y-95742143D01*
X197320000Y-95799286D01*
X197262857Y-95856429D01*
X197205714Y-95970714D01*
X197205714Y-96199286D01*
X197262857Y-96313571D01*
X197320000Y-96370714D01*
X197434286Y-96427857D01*
X197662857Y-96427857D01*
X197777143Y-96370714D01*
X197834286Y-96313571D01*
X197891429Y-96199286D01*
X197891429Y-95970714D01*
X197834286Y-95856429D01*
X197777143Y-95799286D01*
X197662857Y-95742143D01*
X198634286Y-95227857D02*
X198748571Y-95227857D01*
X198862857Y-95285000D01*
X198920000Y-95342143D01*
X198977143Y-95456429D01*
X199034286Y-95685000D01*
X199034286Y-95970714D01*
X198977143Y-96199286D01*
X198920000Y-96313571D01*
X198862857Y-96370714D01*
X198748571Y-96427857D01*
X198634286Y-96427857D01*
X198520000Y-96370714D01*
X198462857Y-96313571D01*
X198405714Y-96199286D01*
X198348571Y-95970714D01*
X198348571Y-95685000D01*
X198405714Y-95456429D01*
X198462857Y-95342143D01*
X198520000Y-95285000D01*
X198634286Y-95227857D01*
X200120000Y-95227857D02*
X199548571Y-95227857D01*
X199491428Y-95799286D01*
X199548571Y-95742143D01*
X199662857Y-95685000D01*
X199948571Y-95685000D01*
X200062857Y-95742143D01*
X200120000Y-95799286D01*
X200177143Y-95913571D01*
X200177143Y-96199286D01*
X200120000Y-96313571D01*
X200062857Y-96370714D01*
X199948571Y-96427857D01*
X199662857Y-96427857D01*
X199548571Y-96370714D01*
X199491428Y-96313571D01*
X195770715Y-92753571D02*
X194913572Y-92753571D01*
X195342144Y-92753571D02*
X195342144Y-91253571D01*
X195199287Y-91467857D01*
X195056429Y-91610714D01*
X194913572Y-91682143D01*
X196342143Y-91396429D02*
X196413572Y-91325000D01*
X196556429Y-91253571D01*
X196913572Y-91253571D01*
X197056429Y-91325000D01*
X197127858Y-91396429D01*
X197199286Y-91539286D01*
X197199286Y-91682143D01*
X197127858Y-91896429D01*
X196270715Y-92753571D01*
X197199286Y-92753571D01*
X198127857Y-91253571D02*
X198270714Y-91253571D01*
X198413571Y-91325000D01*
X198485000Y-91396429D01*
X198556429Y-91539286D01*
X198627857Y-91825000D01*
X198627857Y-92182143D01*
X198556429Y-92467857D01*
X198485000Y-92610714D01*
X198413571Y-92682143D01*
X198270714Y-92753571D01*
X198127857Y-92753571D01*
X197985000Y-92682143D01*
X197913571Y-92610714D01*
X197842143Y-92467857D01*
X197770714Y-92182143D01*
X197770714Y-91825000D01*
X197842143Y-91539286D01*
X197913571Y-91396429D01*
X197985000Y-91325000D01*
X198127857Y-91253571D01*
X199913571Y-91253571D02*
X199627857Y-91253571D01*
X199485000Y-91325000D01*
X199413571Y-91396429D01*
X199270714Y-91610714D01*
X199199285Y-91896429D01*
X199199285Y-92467857D01*
X199270714Y-92610714D01*
X199342142Y-92682143D01*
X199485000Y-92753571D01*
X199770714Y-92753571D01*
X199913571Y-92682143D01*
X199985000Y-92610714D01*
X200056428Y-92467857D01*
X200056428Y-92110714D01*
X199985000Y-91967857D01*
X199913571Y-91896429D01*
X199770714Y-91825000D01*
X199485000Y-91825000D01*
X199342142Y-91896429D01*
X199270714Y-91967857D01*
X199199285Y-92110714D01*
D11*
X214725524Y-92051667D02*
X215201715Y-92051667D01*
X214630286Y-92337381D02*
X214963619Y-91337381D01*
X215296953Y-92337381D01*
X215487429Y-91337381D02*
X216058858Y-91337381D01*
X215773143Y-92337381D02*
X215773143Y-91337381D01*
X216249334Y-91337381D02*
X216820763Y-91337381D01*
X216535048Y-92337381D02*
X216535048Y-91337381D01*
X217154096Y-92337381D02*
X217154096Y-91337381D01*
X217630286Y-92337381D02*
X217630286Y-91337381D01*
X218201715Y-92337381D01*
X218201715Y-91337381D01*
X218868381Y-91861190D02*
X218868381Y-92337381D01*
X218535048Y-91337381D02*
X218868381Y-91861190D01*
X219201715Y-91337381D01*
X216344571Y-93415952D02*
X216249333Y-93368333D01*
X216201714Y-93320714D01*
X216154095Y-93225476D01*
X216154095Y-93177857D01*
X216201714Y-93082619D01*
X216249333Y-93035000D01*
X216344571Y-92987381D01*
X216535048Y-92987381D01*
X216630286Y-93035000D01*
X216677905Y-93082619D01*
X216725524Y-93177857D01*
X216725524Y-93225476D01*
X216677905Y-93320714D01*
X216630286Y-93368333D01*
X216535048Y-93415952D01*
X216344571Y-93415952D01*
X216249333Y-93463571D01*
X216201714Y-93511190D01*
X216154095Y-93606429D01*
X216154095Y-93796905D01*
X216201714Y-93892143D01*
X216249333Y-93939762D01*
X216344571Y-93987381D01*
X216535048Y-93987381D01*
X216630286Y-93939762D01*
X216677905Y-93892143D01*
X216725524Y-93796905D01*
X216725524Y-93606429D01*
X216677905Y-93511190D01*
X216630286Y-93463571D01*
X216535048Y-93415952D01*
X217630286Y-92987381D02*
X217154095Y-92987381D01*
X217106476Y-93463571D01*
X217154095Y-93415952D01*
X217249333Y-93368333D01*
X217487429Y-93368333D01*
X217582667Y-93415952D01*
X217630286Y-93463571D01*
X217677905Y-93558810D01*
X217677905Y-93796905D01*
X217630286Y-93892143D01*
X217582667Y-93939762D01*
X217487429Y-93987381D01*
X217249333Y-93987381D01*
X217154095Y-93939762D01*
X217106476Y-93892143D01*
X208395000Y-103065000D02*
X208165000Y-103065000D01*
X208165000Y-103945000D02*
X208395000Y-103945000D01*
D10*
X208380000Y-101750000D02*
X208380000Y-101450000D01*
X208180000Y-101600000D02*
X208380000Y-101750000D01*
X208180000Y-101600000D02*
X208380000Y-101450000D01*
D11*
X208530000Y-101075000D02*
X208030000Y-101075000D01*
X208030000Y-102125000D02*
X208530000Y-102125000D01*
X215409678Y-102269891D02*
X216823891Y-100855678D01*
X215374322Y-99406109D02*
X213960109Y-100820322D01*
X207780000Y-92775000D02*
X207780000Y-92875000D01*
X207780000Y-91375000D02*
X207780000Y-91275000D01*
X208580000Y-92075000D02*
X208880000Y-92075000D01*
X208580000Y-92875000D02*
X208580000Y-91375000D01*
X208580000Y-91375000D02*
X208580000Y-91275000D01*
X208480000Y-92775000D02*
X208580000Y-92875000D01*
X208480000Y-91375000D02*
X208580000Y-91275000D01*
X207580000Y-92075000D02*
X207780000Y-92075000D01*
X207780000Y-92575000D02*
X207780000Y-92775000D01*
X207780000Y-91575000D02*
X207780000Y-91375000D01*
X207880000Y-92075000D02*
X208480000Y-92775000D01*
X208480000Y-91375000D02*
X207880000Y-91975000D01*
X206130000Y-93125000D02*
X209730000Y-93125000D01*
X206130000Y-91025000D02*
X209730000Y-91025000D01*
X207780000Y-91575000D02*
X207780000Y-92575000D01*
X208580000Y-95885000D02*
X208730000Y-95885000D01*
X207730000Y-95885000D02*
X208080000Y-95885000D01*
X208030000Y-95885000D02*
X208580000Y-95335000D01*
X208580000Y-95335000D02*
X208580000Y-96435000D01*
X208580000Y-96435000D02*
X208030000Y-95885000D01*
X207930000Y-95535000D02*
X207930000Y-95385000D01*
X207930000Y-96235000D02*
X207930000Y-96385000D01*
X206680000Y-96635000D02*
X209380000Y-96635000D01*
X206680000Y-95135000D02*
X209380000Y-95135000D01*
X207930000Y-95535000D02*
X207930000Y-96235000D01*
X208480000Y-99060000D02*
X208630000Y-99060000D01*
X207930000Y-99060000D02*
X208130000Y-99060000D01*
X208180000Y-99060000D02*
X208480000Y-98710000D01*
X208480000Y-98710000D02*
X208480000Y-99410000D01*
X208480000Y-99410000D02*
X208080000Y-99060000D01*
X208080000Y-99060000D02*
X208130000Y-99060000D01*
X208080000Y-98660000D02*
X208080000Y-99410000D01*
X207180000Y-99610000D02*
X209080000Y-99610000D01*
X207180000Y-98510000D02*
X209080000Y-98510000D01*
D10*
X215392000Y-94742000D02*
G75*
G03X215392000Y-94742000I-254000J0D01*
G01*
D11*
X214161000Y-95460000D02*
X214461000Y-95460000D01*
X214161000Y-89960000D02*
X214461000Y-89960000D01*
X219671000Y-89960000D02*
X219371000Y-89960000D01*
X219671000Y-95460000D02*
X219371000Y-95460000D01*
X214161000Y-95460000D02*
X214161000Y-89960000D01*
X219671000Y-95460000D02*
X219671000Y-89960000D01*
X214461000Y-95460000D02*
X214461000Y-97210000D01*
X201565000Y-91000000D02*
X203565000Y-91000000D01*
X203565000Y-93150000D02*
X201565000Y-93150000D01*
X202600000Y-95010000D02*
X203800000Y-95010000D01*
X203800000Y-96760000D02*
X202600000Y-96760000D01*
X203335000Y-98385000D02*
X204335000Y-98385000D01*
X204335000Y-99735000D02*
X203335000Y-99735000D01*
X204220000Y-102125000D02*
X204720000Y-102125000D01*
X204720000Y-101075000D02*
X204220000Y-101075000D01*
X205625000Y-103945000D02*
X205855000Y-103945000D01*
X205855000Y-103065000D02*
X205625000Y-103065000D01*
D15*
G36*
X196180363Y-89142455D02*
X197104000Y-89142455D01*
X197104000Y-88403546D01*
X197473454Y-88403546D01*
X197473454Y-90250818D01*
X197104000Y-90250818D01*
X197104000Y-89465727D01*
X196180363Y-89465727D01*
X196180363Y-90250818D01*
X195810909Y-90250818D01*
X195810909Y-88403546D01*
X196180363Y-88403546D01*
X196180363Y-89142455D01*
X196180363Y-89142455D01*
G37*
X196180363Y-89142455D02*
X197104000Y-89142455D01*
X197104000Y-88403546D01*
X197473454Y-88403546D01*
X197473454Y-90250818D01*
X197104000Y-90250818D01*
X197104000Y-89465727D01*
X196180363Y-89465727D01*
X196180363Y-90250818D01*
X195810909Y-90250818D01*
X195810909Y-88403546D01*
X196180363Y-88403546D01*
X196180363Y-89142455D01*
G36*
X199088595Y-89038546D02*
X199185946Y-89293286D01*
X199281925Y-89544638D01*
X199366729Y-89766917D01*
X199430557Y-89934441D01*
X199441109Y-89962182D01*
X199550842Y-90250818D01*
X199341065Y-90250818D01*
X199208660Y-90244790D01*
X199134512Y-90213515D01*
X199084675Y-90137208D01*
X199063751Y-90089182D01*
X198996215Y-89927546D01*
X198213603Y-89927546D01*
X198146067Y-90089182D01*
X198096428Y-90189261D01*
X198036174Y-90236324D01*
X197931359Y-90250157D01*
X197868753Y-90250818D01*
X197658975Y-90250818D01*
X197768709Y-89962182D01*
X197826411Y-89810659D01*
X197905133Y-89604273D01*
X198305697Y-89604273D01*
X198899588Y-89604273D01*
X198790343Y-89283079D01*
X198724256Y-89098943D01*
X198663903Y-88948728D01*
X198616157Y-88847743D01*
X198587892Y-88811292D01*
X198583222Y-88821888D01*
X198567761Y-88874121D01*
X198527670Y-88991538D01*
X198470354Y-89152693D01*
X198443758Y-89225979D01*
X198305697Y-89604273D01*
X197905133Y-89604273D01*
X197907315Y-89598553D01*
X198001618Y-89351547D01*
X198099518Y-89095322D01*
X198121223Y-89038546D01*
X198364003Y-88403546D01*
X198845814Y-88403546D01*
X199088595Y-89038546D01*
X199088595Y-89038546D01*
G37*
X199088595Y-89038546D02*
X199185946Y-89293286D01*
X199281925Y-89544638D01*
X199366729Y-89766917D01*
X199430557Y-89934441D01*
X199441109Y-89962182D01*
X199550842Y-90250818D01*
X199341065Y-90250818D01*
X199208660Y-90244790D01*
X199134512Y-90213515D01*
X199084675Y-90137208D01*
X199063751Y-90089182D01*
X198996215Y-89927546D01*
X198213603Y-89927546D01*
X198146067Y-90089182D01*
X198096428Y-90189261D01*
X198036174Y-90236324D01*
X197931359Y-90250157D01*
X197868753Y-90250818D01*
X197658975Y-90250818D01*
X197768709Y-89962182D01*
X197826411Y-89810659D01*
X197905133Y-89604273D01*
X198305697Y-89604273D01*
X198899588Y-89604273D01*
X198790343Y-89283079D01*
X198724256Y-89098943D01*
X198663903Y-88948728D01*
X198616157Y-88847743D01*
X198587892Y-88811292D01*
X198583222Y-88821888D01*
X198567761Y-88874121D01*
X198527670Y-88991538D01*
X198470354Y-89152693D01*
X198443758Y-89225979D01*
X198305697Y-89604273D01*
X197905133Y-89604273D01*
X197907315Y-89598553D01*
X198001618Y-89351547D01*
X198099518Y-89095322D01*
X198121223Y-89038546D01*
X198364003Y-88403546D01*
X198845814Y-88403546D01*
X199088595Y-89038546D01*
G36*
X200763308Y-88425435D02*
X200964952Y-88497053D01*
X201133363Y-88622942D01*
X201232108Y-88735413D01*
X201249778Y-88816739D01*
X201185870Y-88880934D01*
X201123010Y-88911052D01*
X201025804Y-88941435D01*
X200949092Y-88925896D01*
X200851530Y-88855054D01*
X200842376Y-88847382D01*
X200664351Y-88751887D01*
X200466782Y-88731165D01*
X200274897Y-88780358D01*
X200113922Y-88894609D01*
X200037327Y-89002398D01*
X199972672Y-89208198D01*
X199973310Y-89424525D01*
X200033146Y-89626023D01*
X200146086Y-89787340D01*
X200242852Y-89857491D01*
X200457302Y-89923580D01*
X200665631Y-89904110D01*
X200842376Y-89806982D01*
X200943114Y-89731689D01*
X201019951Y-89712392D01*
X201114234Y-89739708D01*
X201123010Y-89743312D01*
X201218005Y-89798036D01*
X201260232Y-89852773D01*
X201260363Y-89855235D01*
X201224412Y-89931282D01*
X201133962Y-90028880D01*
X201015117Y-90124477D01*
X200893979Y-90194522D01*
X200876357Y-90201698D01*
X200679441Y-90242742D01*
X200443503Y-90244160D01*
X200211904Y-90208082D01*
X200077366Y-90162467D01*
X199859551Y-90015691D01*
X199694804Y-89808320D01*
X199592789Y-89561288D01*
X199563168Y-89295530D01*
X199590927Y-89108655D01*
X199707433Y-88829657D01*
X199886713Y-88616848D01*
X200122548Y-88475008D01*
X200408716Y-88408919D01*
X200506902Y-88404560D01*
X200763308Y-88425435D01*
X200763308Y-88425435D01*
G37*
X200763308Y-88425435D02*
X200964952Y-88497053D01*
X201133363Y-88622942D01*
X201232108Y-88735413D01*
X201249778Y-88816739D01*
X201185870Y-88880934D01*
X201123010Y-88911052D01*
X201025804Y-88941435D01*
X200949092Y-88925896D01*
X200851530Y-88855054D01*
X200842376Y-88847382D01*
X200664351Y-88751887D01*
X200466782Y-88731165D01*
X200274897Y-88780358D01*
X200113922Y-88894609D01*
X200037327Y-89002398D01*
X199972672Y-89208198D01*
X199973310Y-89424525D01*
X200033146Y-89626023D01*
X200146086Y-89787340D01*
X200242852Y-89857491D01*
X200457302Y-89923580D01*
X200665631Y-89904110D01*
X200842376Y-89806982D01*
X200943114Y-89731689D01*
X201019951Y-89712392D01*
X201114234Y-89739708D01*
X201123010Y-89743312D01*
X201218005Y-89798036D01*
X201260232Y-89852773D01*
X201260363Y-89855235D01*
X201224412Y-89931282D01*
X201133962Y-90028880D01*
X201015117Y-90124477D01*
X200893979Y-90194522D01*
X200876357Y-90201698D01*
X200679441Y-90242742D01*
X200443503Y-90244160D01*
X200211904Y-90208082D01*
X200077366Y-90162467D01*
X199859551Y-90015691D01*
X199694804Y-89808320D01*
X199592789Y-89561288D01*
X199563168Y-89295530D01*
X199590927Y-89108655D01*
X199707433Y-88829657D01*
X199886713Y-88616848D01*
X200122548Y-88475008D01*
X200408716Y-88408919D01*
X200506902Y-88404560D01*
X200763308Y-88425435D01*
G36*
X201906909Y-88796091D02*
X201910806Y-88973482D01*
X201921206Y-89109151D01*
X201936171Y-89181898D01*
X201942788Y-89188637D01*
X201983860Y-89154130D01*
X202066994Y-89060790D01*
X202179119Y-88923885D01*
X202277606Y-88797575D01*
X202576545Y-88406514D01*
X202820715Y-88405030D01*
X203064886Y-88403546D01*
X202322596Y-89271364D01*
X202718595Y-89763625D01*
X203114595Y-90255887D01*
X202624555Y-90227727D01*
X202071345Y-89503799D01*
X201989127Y-89605334D01*
X201932821Y-89720464D01*
X201908616Y-89896899D01*
X201906909Y-89978844D01*
X201906909Y-90250818D01*
X201537454Y-90250818D01*
X201537454Y-88403546D01*
X201906909Y-88403546D01*
X201906909Y-88796091D01*
X201906909Y-88796091D01*
G37*
X201906909Y-88796091D02*
X201910806Y-88973482D01*
X201921206Y-89109151D01*
X201936171Y-89181898D01*
X201942788Y-89188637D01*
X201983860Y-89154130D01*
X202066994Y-89060790D01*
X202179119Y-88923885D01*
X202277606Y-88797575D01*
X202576545Y-88406514D01*
X202820715Y-88405030D01*
X203064886Y-88403546D01*
X202322596Y-89271364D01*
X202718595Y-89763625D01*
X203114595Y-90255887D01*
X202624555Y-90227727D01*
X202071345Y-89503799D01*
X201989127Y-89605334D01*
X201932821Y-89720464D01*
X201908616Y-89896899D01*
X201906909Y-89978844D01*
X201906909Y-90250818D01*
X201537454Y-90250818D01*
X201537454Y-88403546D01*
X201906909Y-88403546D01*
X201906909Y-88796091D01*
G36*
X204584231Y-89038546D02*
X204681582Y-89293286D01*
X204777561Y-89544638D01*
X204862366Y-89766917D01*
X204926194Y-89934441D01*
X204936745Y-89962182D01*
X205046479Y-90250818D01*
X204836701Y-90250818D01*
X204704296Y-90244790D01*
X204630148Y-90213515D01*
X204580311Y-90137208D01*
X204559387Y-90089182D01*
X204491851Y-89927546D01*
X203709239Y-89927546D01*
X203641703Y-90089182D01*
X203592064Y-90189261D01*
X203531810Y-90236324D01*
X203426995Y-90250157D01*
X203364389Y-90250818D01*
X203154612Y-90250818D01*
X203264345Y-89962182D01*
X203322048Y-89810659D01*
X203400770Y-89604273D01*
X203801334Y-89604273D01*
X204395225Y-89604273D01*
X204285980Y-89283079D01*
X204219893Y-89098943D01*
X204159539Y-88948728D01*
X204111793Y-88847743D01*
X204083528Y-88811292D01*
X204078859Y-88821888D01*
X204063397Y-88874121D01*
X204023307Y-88991538D01*
X203965990Y-89152693D01*
X203939394Y-89225979D01*
X203801334Y-89604273D01*
X203400770Y-89604273D01*
X203402952Y-89598553D01*
X203497254Y-89351547D01*
X203595154Y-89095322D01*
X203616859Y-89038546D01*
X203859640Y-88403546D01*
X204341451Y-88403546D01*
X204584231Y-89038546D01*
X204584231Y-89038546D01*
G37*
X204584231Y-89038546D02*
X204681582Y-89293286D01*
X204777561Y-89544638D01*
X204862366Y-89766917D01*
X204926194Y-89934441D01*
X204936745Y-89962182D01*
X205046479Y-90250818D01*
X204836701Y-90250818D01*
X204704296Y-90244790D01*
X204630148Y-90213515D01*
X204580311Y-90137208D01*
X204559387Y-90089182D01*
X204491851Y-89927546D01*
X203709239Y-89927546D01*
X203641703Y-90089182D01*
X203592064Y-90189261D01*
X203531810Y-90236324D01*
X203426995Y-90250157D01*
X203364389Y-90250818D01*
X203154612Y-90250818D01*
X203264345Y-89962182D01*
X203322048Y-89810659D01*
X203400770Y-89604273D01*
X203801334Y-89604273D01*
X204395225Y-89604273D01*
X204285980Y-89283079D01*
X204219893Y-89098943D01*
X204159539Y-88948728D01*
X204111793Y-88847743D01*
X204083528Y-88811292D01*
X204078859Y-88821888D01*
X204063397Y-88874121D01*
X204023307Y-88991538D01*
X203965990Y-89152693D01*
X203939394Y-89225979D01*
X203801334Y-89604273D01*
X203400770Y-89604273D01*
X203402952Y-89598553D01*
X203497254Y-89351547D01*
X203595154Y-89095322D01*
X203616859Y-89038546D01*
X203859640Y-88403546D01*
X204341451Y-88403546D01*
X204584231Y-89038546D01*
G36*
X205751545Y-88412174D02*
X206099298Y-88438963D01*
X206369736Y-88496075D01*
X206574925Y-88590559D01*
X206726932Y-88729463D01*
X206837825Y-88919832D01*
X206895264Y-89080131D01*
X206934185Y-89359660D01*
X206887510Y-89626430D01*
X206761789Y-89864284D01*
X206563571Y-90057066D01*
X206477121Y-90111549D01*
X206371396Y-90163968D01*
X206262540Y-90199282D01*
X206126793Y-90221813D01*
X205940395Y-90235883D01*
X205751545Y-90243533D01*
X205232000Y-90260787D01*
X205232000Y-89494172D01*
X205608103Y-89494172D01*
X205609127Y-89678816D01*
X205614116Y-89810947D01*
X205621502Y-89866995D01*
X205682732Y-89909749D01*
X205805263Y-89925825D01*
X205962115Y-89915697D01*
X206126306Y-89879842D01*
X206191723Y-89856924D01*
X206373112Y-89739207D01*
X206485732Y-89562277D01*
X206525081Y-89333257D01*
X206525091Y-89329309D01*
X206493021Y-89092727D01*
X206395385Y-88919520D01*
X206230042Y-88807753D01*
X205994853Y-88755491D01*
X205884809Y-88750825D01*
X205624545Y-88749909D01*
X205611406Y-89278176D01*
X205608103Y-89494172D01*
X205232000Y-89494172D01*
X205232000Y-88393577D01*
X205751545Y-88412174D01*
X205751545Y-88412174D01*
G37*
X205751545Y-88412174D02*
X206099298Y-88438963D01*
X206369736Y-88496075D01*
X206574925Y-88590559D01*
X206726932Y-88729463D01*
X206837825Y-88919832D01*
X206895264Y-89080131D01*
X206934185Y-89359660D01*
X206887510Y-89626430D01*
X206761789Y-89864284D01*
X206563571Y-90057066D01*
X206477121Y-90111549D01*
X206371396Y-90163968D01*
X206262540Y-90199282D01*
X206126793Y-90221813D01*
X205940395Y-90235883D01*
X205751545Y-90243533D01*
X205232000Y-90260787D01*
X205232000Y-89494172D01*
X205608103Y-89494172D01*
X205609127Y-89678816D01*
X205614116Y-89810947D01*
X205621502Y-89866995D01*
X205682732Y-89909749D01*
X205805263Y-89925825D01*
X205962115Y-89915697D01*
X206126306Y-89879842D01*
X206191723Y-89856924D01*
X206373112Y-89739207D01*
X206485732Y-89562277D01*
X206525081Y-89333257D01*
X206525091Y-89329309D01*
X206493021Y-89092727D01*
X206395385Y-88919520D01*
X206230042Y-88807753D01*
X205994853Y-88755491D01*
X205884809Y-88750825D01*
X205624545Y-88749909D01*
X205611406Y-89278176D01*
X205608103Y-89494172D01*
X205232000Y-89494172D01*
X205232000Y-88393577D01*
X205751545Y-88412174D01*
G36*
X208371140Y-89038546D02*
X208468492Y-89293286D01*
X208564470Y-89544638D01*
X208649275Y-89766917D01*
X208713103Y-89934441D01*
X208723654Y-89962182D01*
X208833388Y-90250818D01*
X208623610Y-90250818D01*
X208491205Y-90244790D01*
X208417057Y-90213515D01*
X208367221Y-90137208D01*
X208346296Y-90089182D01*
X208278760Y-89927546D01*
X207496148Y-89927546D01*
X207428612Y-90089182D01*
X207378973Y-90189261D01*
X207318719Y-90236324D01*
X207213904Y-90250157D01*
X207151298Y-90250818D01*
X206941521Y-90250818D01*
X207051254Y-89962182D01*
X207108957Y-89810659D01*
X207187679Y-89604273D01*
X207588243Y-89604273D01*
X208182134Y-89604273D01*
X208072889Y-89283079D01*
X208006802Y-89098943D01*
X207946448Y-88948728D01*
X207898702Y-88847743D01*
X207870438Y-88811292D01*
X207865768Y-88821888D01*
X207850306Y-88874121D01*
X207810216Y-88991538D01*
X207752899Y-89152693D01*
X207726303Y-89225979D01*
X207588243Y-89604273D01*
X207187679Y-89604273D01*
X207189861Y-89598553D01*
X207284163Y-89351547D01*
X207382063Y-89095322D01*
X207403768Y-89038546D01*
X207646549Y-88403546D01*
X208128360Y-88403546D01*
X208371140Y-89038546D01*
X208371140Y-89038546D01*
G37*
X208371140Y-89038546D02*
X208468492Y-89293286D01*
X208564470Y-89544638D01*
X208649275Y-89766917D01*
X208713103Y-89934441D01*
X208723654Y-89962182D01*
X208833388Y-90250818D01*
X208623610Y-90250818D01*
X208491205Y-90244790D01*
X208417057Y-90213515D01*
X208367221Y-90137208D01*
X208346296Y-90089182D01*
X208278760Y-89927546D01*
X207496148Y-89927546D01*
X207428612Y-90089182D01*
X207378973Y-90189261D01*
X207318719Y-90236324D01*
X207213904Y-90250157D01*
X207151298Y-90250818D01*
X206941521Y-90250818D01*
X207051254Y-89962182D01*
X207108957Y-89810659D01*
X207187679Y-89604273D01*
X207588243Y-89604273D01*
X208182134Y-89604273D01*
X208072889Y-89283079D01*
X208006802Y-89098943D01*
X207946448Y-88948728D01*
X207898702Y-88847743D01*
X207870438Y-88811292D01*
X207865768Y-88821888D01*
X207850306Y-88874121D01*
X207810216Y-88991538D01*
X207752899Y-89152693D01*
X207726303Y-89225979D01*
X207588243Y-89604273D01*
X207187679Y-89604273D01*
X207189861Y-89598553D01*
X207284163Y-89351547D01*
X207382063Y-89095322D01*
X207403768Y-89038546D01*
X207646549Y-88403546D01*
X208128360Y-88403546D01*
X208371140Y-89038546D01*
G36*
X209313375Y-88773000D02*
X209411905Y-88933003D01*
X209491019Y-89058092D01*
X209539645Y-89130938D01*
X209549387Y-89142455D01*
X209576377Y-89105714D01*
X209639739Y-89007081D01*
X209728445Y-88863937D01*
X209783759Y-88773000D01*
X210007104Y-88403546D01*
X210448020Y-88403546D01*
X210102919Y-88935077D01*
X209757818Y-89466609D01*
X209757818Y-90250818D01*
X209342182Y-90250818D01*
X209342182Y-89469617D01*
X208996104Y-88936581D01*
X208650026Y-88403546D01*
X209088389Y-88403546D01*
X209313375Y-88773000D01*
X209313375Y-88773000D01*
G37*
X209313375Y-88773000D02*
X209411905Y-88933003D01*
X209491019Y-89058092D01*
X209539645Y-89130938D01*
X209549387Y-89142455D01*
X209576377Y-89105714D01*
X209639739Y-89007081D01*
X209728445Y-88863937D01*
X209783759Y-88773000D01*
X210007104Y-88403546D01*
X210448020Y-88403546D01*
X210102919Y-88935077D01*
X209757818Y-89466609D01*
X209757818Y-90250818D01*
X209342182Y-90250818D01*
X209342182Y-89469617D01*
X208996104Y-88936581D01*
X208650026Y-88403546D01*
X209088389Y-88403546D01*
X209313375Y-88773000D01*
G36*
X210670273Y-89900499D02*
X210719636Y-90015622D01*
X210700357Y-90138389D01*
X210620944Y-90223012D01*
X210509981Y-90254903D01*
X210396053Y-90219471D01*
X210367418Y-90195400D01*
X210312245Y-90084936D01*
X210331669Y-89967025D01*
X210418664Y-89877453D01*
X210431041Y-89871327D01*
X210567721Y-89846440D01*
X210670273Y-89900499D01*
X210670273Y-89900499D01*
G37*
X210670273Y-89900499D02*
X210719636Y-90015622D01*
X210700357Y-90138389D01*
X210620944Y-90223012D01*
X210509981Y-90254903D01*
X210396053Y-90219471D01*
X210367418Y-90195400D01*
X210312245Y-90084936D01*
X210331669Y-89967025D01*
X210418664Y-89877453D01*
X210431041Y-89871327D01*
X210567721Y-89846440D01*
X210670273Y-89900499D01*
G36*
X211420363Y-90250818D02*
X211050909Y-90250818D01*
X211050909Y-88403546D01*
X211420363Y-88403546D01*
X211420363Y-90250818D01*
X211420363Y-90250818D01*
G37*
X211420363Y-90250818D02*
X211050909Y-90250818D01*
X211050909Y-88403546D01*
X211420363Y-88403546D01*
X211420363Y-90250818D01*
G36*
X212863269Y-88416492D02*
X213124335Y-88484349D01*
X213262547Y-88556333D01*
X213457732Y-88736422D01*
X213586285Y-88961851D01*
X213648234Y-89214028D01*
X213643605Y-89474359D01*
X213572427Y-89724249D01*
X213434727Y-89945106D01*
X213260282Y-90099530D01*
X213038611Y-90198786D01*
X212775928Y-90244542D01*
X212508184Y-90234359D01*
X212272816Y-90166494D01*
X212045778Y-90015657D01*
X211883367Y-89816500D01*
X211785121Y-89585076D01*
X211750580Y-89337435D01*
X211755388Y-89295920D01*
X212159328Y-89295920D01*
X212177874Y-89501066D01*
X212251965Y-89686309D01*
X212381811Y-89828066D01*
X212425398Y-89855253D01*
X212604134Y-89912433D01*
X212802928Y-89917128D01*
X212975384Y-89868522D01*
X212981782Y-89865068D01*
X213135865Y-89729609D01*
X213235115Y-89535987D01*
X213267027Y-89327182D01*
X213228637Y-89097223D01*
X213123759Y-88914291D01*
X212967829Y-88788223D01*
X212776287Y-88728858D01*
X212564570Y-88746033D01*
X212434852Y-88796873D01*
X212288028Y-88920241D01*
X212196116Y-89094451D01*
X212159328Y-89295920D01*
X211755388Y-89295920D01*
X211779284Y-89089628D01*
X211870773Y-88857707D01*
X212024587Y-88657723D01*
X212240264Y-88505726D01*
X212321468Y-88470150D01*
X212584377Y-88410727D01*
X212863269Y-88416492D01*
X212863269Y-88416492D01*
G37*
X212863269Y-88416492D02*
X213124335Y-88484349D01*
X213262547Y-88556333D01*
X213457732Y-88736422D01*
X213586285Y-88961851D01*
X213648234Y-89214028D01*
X213643605Y-89474359D01*
X213572427Y-89724249D01*
X213434727Y-89945106D01*
X213260282Y-90099530D01*
X213038611Y-90198786D01*
X212775928Y-90244542D01*
X212508184Y-90234359D01*
X212272816Y-90166494D01*
X212045778Y-90015657D01*
X211883367Y-89816500D01*
X211785121Y-89585076D01*
X211750580Y-89337435D01*
X211755388Y-89295920D01*
X212159328Y-89295920D01*
X212177874Y-89501066D01*
X212251965Y-89686309D01*
X212381811Y-89828066D01*
X212425398Y-89855253D01*
X212604134Y-89912433D01*
X212802928Y-89917128D01*
X212975384Y-89868522D01*
X212981782Y-89865068D01*
X213135865Y-89729609D01*
X213235115Y-89535987D01*
X213267027Y-89327182D01*
X213228637Y-89097223D01*
X213123759Y-88914291D01*
X212967829Y-88788223D01*
X212776287Y-88728858D01*
X212564570Y-88746033D01*
X212434852Y-88796873D01*
X212288028Y-88920241D01*
X212196116Y-89094451D01*
X212159328Y-89295920D01*
X211755388Y-89295920D01*
X211779284Y-89089628D01*
X211870773Y-88857707D01*
X212024587Y-88657723D01*
X212240264Y-88505726D01*
X212321468Y-88470150D01*
X212584377Y-88410727D01*
X212863269Y-88416492D01*
D16*
X208779334Y-104710667D02*
X208779334Y-104010667D01*
X208946000Y-104010667D01*
X209046000Y-104044000D01*
X209112667Y-104110667D01*
X209146000Y-104177333D01*
X209179334Y-104310667D01*
X209179334Y-104410667D01*
X209146000Y-104544000D01*
X209112667Y-104610667D01*
X209046000Y-104677333D01*
X208946000Y-104710667D01*
X208779334Y-104710667D01*
X209779334Y-104244000D02*
X209779334Y-104710667D01*
X209612667Y-103977333D02*
X209446000Y-104477333D01*
X209879334Y-104477333D01*
D12*
X208989524Y-102961905D02*
X208989524Y-102161905D01*
X209180000Y-102161905D01*
X209294286Y-102200000D01*
X209370477Y-102276190D01*
X209408572Y-102352381D01*
X209446667Y-102504762D01*
X209446667Y-102619048D01*
X209408572Y-102771429D01*
X209370477Y-102847619D01*
X209294286Y-102923810D01*
X209180000Y-102961905D01*
X208989524Y-102961905D01*
X209713334Y-102161905D02*
X210208572Y-102161905D01*
X209941905Y-102466667D01*
X210056191Y-102466667D01*
X210132381Y-102504762D01*
X210170477Y-102542857D01*
X210208572Y-102619048D01*
X210208572Y-102809524D01*
X210170477Y-102885714D01*
X210132381Y-102923810D01*
X210056191Y-102961905D01*
X209827619Y-102961905D01*
X209751429Y-102923810D01*
X209713334Y-102885714D01*
D11*
X215526688Y-101208389D02*
X215526688Y-101275732D01*
X215459344Y-101410419D01*
X215392001Y-101477763D01*
X215257313Y-101545107D01*
X215122626Y-101545107D01*
X215021611Y-101511435D01*
X214853253Y-101410420D01*
X214752237Y-101309404D01*
X214651222Y-101141045D01*
X214617550Y-101040030D01*
X214617550Y-100905343D01*
X214684894Y-100770656D01*
X214752237Y-100703312D01*
X214886924Y-100635969D01*
X214954268Y-100635969D01*
X216267466Y-100602297D02*
X215863405Y-101006359D01*
X216065435Y-100804328D02*
X215358328Y-100097222D01*
X215392000Y-100265580D01*
X215392000Y-100400267D01*
X215358328Y-100501282D01*
D17*
X210024381Y-94418476D02*
X210024381Y-93168476D01*
X210322000Y-93168476D01*
X210500572Y-93228000D01*
X210619619Y-93347048D01*
X210679143Y-93466095D01*
X210738667Y-93704190D01*
X210738667Y-93882762D01*
X210679143Y-94120857D01*
X210619619Y-94239905D01*
X210500572Y-94358952D01*
X210322000Y-94418476D01*
X210024381Y-94418476D01*
X211512476Y-93168476D02*
X211631524Y-93168476D01*
X211750572Y-93228000D01*
X211810095Y-93287524D01*
X211869619Y-93406571D01*
X211929143Y-93644667D01*
X211929143Y-93942286D01*
X211869619Y-94180381D01*
X211810095Y-94299429D01*
X211750572Y-94358952D01*
X211631524Y-94418476D01*
X211512476Y-94418476D01*
X211393429Y-94358952D01*
X211333905Y-94299429D01*
X211274381Y-94180381D01*
X211214857Y-93942286D01*
X211214857Y-93644667D01*
X211274381Y-93406571D01*
X211333905Y-93287524D01*
X211393429Y-93228000D01*
X211512476Y-93168476D01*
D14*
X209616786Y-97888357D02*
X209616786Y-96688357D01*
X209902501Y-96688357D01*
X210073929Y-96745500D01*
X210188215Y-96859786D01*
X210245358Y-96974071D01*
X210302501Y-97202643D01*
X210302501Y-97374071D01*
X210245358Y-97602643D01*
X210188215Y-97716929D01*
X210073929Y-97831214D01*
X209902501Y-97888357D01*
X209616786Y-97888357D01*
X211445358Y-97888357D02*
X210759643Y-97888357D01*
X211102501Y-97888357D02*
X211102501Y-96688357D01*
X210988215Y-96859786D01*
X210873929Y-96974071D01*
X210759643Y-97031214D01*
D13*
X209319905Y-100591881D02*
X209319905Y-99591881D01*
X209558000Y-99591881D01*
X209700858Y-99639500D01*
X209796096Y-99734738D01*
X209843715Y-99829976D01*
X209891334Y-100020452D01*
X209891334Y-100163310D01*
X209843715Y-100353786D01*
X209796096Y-100449024D01*
X209700858Y-100544262D01*
X209558000Y-100591881D01*
X209319905Y-100591881D01*
X210272286Y-99687119D02*
X210319905Y-99639500D01*
X210415143Y-99591881D01*
X210653239Y-99591881D01*
X210748477Y-99639500D01*
X210796096Y-99687119D01*
X210843715Y-99782357D01*
X210843715Y-99877595D01*
X210796096Y-100020452D01*
X210224667Y-100591881D01*
X210843715Y-100591881D01*
M02*
