%
M48
METRIC,000.000
T01C0.66
T02C0.79
T03C0.81
T04C0.81
T05C0.89
T06C0.99
T07C1.02
T08C1.09
T09C1.19
T10C1.09
T11C3.25
T12C0.50
%
T01
X036830Y048260
X036830Y046355
X036830Y044450
X010739Y097830
X012644Y097830
X014549Y097830
X077830Y048260
X077830Y046355
X077830Y044450
T02
X008890Y030480
X008890Y027940
X008890Y025400
X008890Y022860
X008890Y020320
X008890Y017780
X008890Y015240
X008890Y012700
X008890Y010160
X012700Y005080
X012700Y002580
X012740Y049530
X015240Y049530
X016510Y030480
X016510Y027940
X016510Y025400
X016510Y022860
X016510Y020320
X016510Y017780
X016510Y015240
X016510Y012700
X016510Y010160
X028575Y052705
X028575Y047625
X028575Y045085
X028575Y042545
X028575Y040005
X028575Y020955
X028575Y018415
X028575Y015875
X028519Y069890
X031059Y069890
X033599Y069890
X036139Y069890
X038679Y069890
X041219Y069890
X043759Y069890
X046299Y069890
X048839Y069890
X053919Y073700
X056419Y073700
X009469Y073740
X009469Y076240
X028519Y077510
X031059Y077510
X033599Y077510
X036139Y077510
X038679Y077510
X041219Y077510
X043759Y077510
X046299Y077510
X048839Y077510
X006294Y089575
X011374Y089575
X013914Y089575
X016454Y089575
X018994Y089575
X038044Y089575
X040584Y089575
X043124Y089575
X049890Y030480
X049890Y027940
X049890Y025400
X049890Y022860
X049890Y020320
X049890Y017780
X049890Y015240
X049890Y012700
X049890Y010160
X053700Y005080
X053700Y002580
X053740Y049530
X056240Y049530
X057510Y030480
X057510Y027940
X057510Y025400
X057510Y022860
X057510Y020320
X057510Y017780
X057510Y015240
X057510Y012700
X057510Y010160
X069575Y052705
X069575Y047625
X069575Y045085
X069575Y042545
X069575Y040005
X069575Y020955
X069575Y018415
X069575Y015875
T03
X028575Y050205
X028575Y037505
X008794Y089575
X021494Y089575
X003119Y090210
X003119Y092750
X003119Y095290
X069575Y050205
X069575Y037505
X070210Y055880
X072750Y055880
X075290Y055880
T04
X029210Y055880
X031750Y055880
X034290Y055880
T05
X002540Y034129
X002540Y031630
X002540Y029131
X002540Y026629
X002540Y024130
X002540Y018889
X002540Y016390
X002540Y013891
X002540Y011389
X002540Y008890
X008890Y034290
X016510Y034290
X024870Y063540
X027369Y063540
X029868Y063540
X032369Y063540
X034869Y063540
X040110Y063540
X042609Y063540
X045108Y063540
X047610Y063540
X050109Y063540
X024709Y069890
X024709Y077510
X043540Y034129
X043540Y031630
X043540Y029131
X043540Y026629
X043540Y024130
X043540Y018889
X043540Y016390
X043540Y013891
X043540Y011389
X043540Y008890
X049890Y034290
X057510Y034290
T06
X012700Y044450
X012700Y041910
X012700Y039370
X016510Y045720
X016510Y038100
X027940Y033020
X027940Y030480
X027940Y027940
X027940Y025400
X031750Y043815
X031750Y036195
X031750Y022225
X031750Y014605
X031750Y010160
X031750Y005080
X036195Y033020
X036195Y030480
X036195Y027940
X036195Y025400
X014549Y073700
X017089Y073700
X019629Y073700
X013279Y077510
X020899Y077510
X025979Y088940
X028519Y088940
X031059Y088940
X033599Y088940
X015184Y092750
X022804Y092750
X036774Y092750
X044394Y092750
X048839Y092750
X053919Y092750
X025979Y097195
X028519Y097195
X031059Y097195
X033599Y097195
X053700Y044450
X053700Y041910
X053700Y039370
X057510Y045720
X057510Y038100
X068940Y033020
X068940Y030480
X068940Y027940
X068940Y025400
X072750Y043815
X072750Y036195
X072750Y022225
X072750Y014605
X072750Y010160
X072750Y005080
X077195Y033020
X077195Y030480
X077195Y027940
X077195Y025400
T07
X011430Y053975
X013970Y053975
X016510Y053975
X005024Y072430
X005024Y074970
X005024Y077510
X052430Y053975
X054970Y053975
X057510Y053975
T08
X020391Y056111
X020391Y002308
X002888Y081391
X056691Y081391
X036470Y065538
X051710Y065538
X061391Y056111
X061391Y002308
X045538Y022529
X045538Y007289
T09
X006350Y049530
X006350Y046029
X006350Y041910
X006350Y038409
X009469Y067350
X012970Y067350
X017089Y067350
X020590Y067350
X047350Y049530
X047350Y046029
X047350Y041910
X047350Y038409
T10
X004538Y022529
X004538Y007289
T11
X003810Y054610
X003810Y003810
X035560Y039370
X035560Y019050
X004389Y064810
X055189Y064810
X019629Y096560
X039949Y096560
X044810Y054610
X044810Y003810
X076560Y039370
X076560Y019050
T12
X019838Y058669
X018838Y058669
X017838Y058669
X016838Y058669
X015838Y058669
X014838Y058669
X015133Y060750
X016133Y060750
X017133Y060750
X018133Y060750
X019133Y060750
X048133Y060750
X049133Y060750
X050133Y060750
X051133Y060750
X052133Y060750
X051838Y058669
X050838Y058669
X049838Y058669
X048838Y058669
X047838Y058669
X038349Y026435
X038349Y027435
X038349Y028435
X038349Y029435
X038349Y030435
X038349Y031435
X040750Y031012
X040750Y030012
X040750Y029012
X040750Y028012
X040750Y027012
M30