<?xml version="1.0" standalone="no"?>
 <!DOCTYPE svg PUBLIC "-//W3C//DTD SVG 1.1//EN" 
 "http://www.w3.org/Graphics/SVG/1.1/DTD/svg11.dtd"> 
<svg xmlns="http://www.w3.org/2000/svg" version="1.1" 
    width="29.7002cm" height="21.0007cm" viewBox="0 0 116930 82680 ">
<title>SVG Picture created as Pi2c.sch.svg date 2017/01/15 22:04:03 </title>
  <desc>Picture generated by Eeschema-SVG </desc>
<g style="fill:#000000; fill-opacity:1;stroke:#000000; stroke-opacity:1;
stroke-linecap:round; stroke-linejoin:round; "
 transform="translate(0 0) scale(1 1)">
</g>
<g style="fill:#000000; fill-opacity:0.0; 
stroke:#000000; stroke-width:-10; stroke-opacity:1; 
stroke-linecap:round; stroke-linejoin:round;">
</g>
<g style="fill:#840000; fill-opacity:0.0; 
stroke:#840000; stroke-width:-10; stroke-opacity:1; 
stroke-linecap:round; stroke-linejoin:round;">
</g>
<g style="fill:#840000; fill-opacity:0.0; 
stroke:#840000; stroke-width:100; stroke-opacity:1; 
stroke-linecap:round; stroke-linejoin:round;">
</g>
<g style="fill:#840000; fill-opacity:0.0; 
stroke:#840000; stroke-width:60; stroke-opacity:1; 
stroke-linecap:round; stroke-linejoin:round;">
<rect x="69690" y="65360" width="42520" height="12600" rx="0" />
</g>
<g style="fill:#840000; fill-opacity:0.0; 
stroke:#840000; stroke-width:100; stroke-opacity:1; 
stroke-linecap:round; stroke-linejoin:round;">
</g>
<g style="fill:#840000; fill-opacity:0.0; 
stroke:#840000; stroke-width:60; stroke-opacity:1; 
stroke-linecap:round; stroke-linejoin:round;">
<rect x="3940" y="3940" width="109050" height="74800" rx="0" />
</g>
<g style="fill:#840000; fill-opacity:0.0; 
stroke:#840000; stroke-width:100; stroke-opacity:1; 
stroke-linecap:round; stroke-linejoin:round;">
</g>
<g style="fill:#840000; fill-opacity:0.0; 
stroke:#840000; stroke-width:60; stroke-opacity:1; 
stroke-linecap:round; stroke-linejoin:round;">
<rect x="4720" y="4720" width="107490" height="73240" rx="0" />
</g>
<g style="fill:#840000; fill-opacity:0.0; 
stroke:#840000; stroke-width:100; stroke-opacity:1; 
stroke-linecap:round; stroke-linejoin:round;">
</g>
<g style="fill:#840000; fill-opacity:0.0; 
stroke:#840000; stroke-width:60; stroke-opacity:1; 
stroke-linecap:round; stroke-linejoin:round;">
<path d="M23620 4720
L23620 3940
" />
</g>
<g style="fill:#840000; fill-opacity:0.0; 
stroke:#840000; stroke-width:100; stroke-opacity:1; 
stroke-linecap:round; stroke-linejoin:round;">
</g>
<g style="fill:#840000; fill-opacity:0.0; 
stroke:#840000; stroke-width:60; stroke-opacity:1; 
stroke-linecap:round; stroke-linejoin:round;">
<path d="M43310 4720
L43310 3940
" />
</g>
<g style="fill:#840000; fill-opacity:0.0; 
stroke:#840000; stroke-width:100; stroke-opacity:1; 
stroke-linecap:round; stroke-linejoin:round;">
</g>
<g style="fill:#840000; fill-opacity:0.0; 
stroke:#840000; stroke-width:60; stroke-opacity:1; 
stroke-linecap:round; stroke-linejoin:round;">
<path d="M62990 4720
L62990 3940
" />
</g>
<g style="fill:#840000; fill-opacity:0.0; 
stroke:#840000; stroke-width:100; stroke-opacity:1; 
stroke-linecap:round; stroke-linejoin:round;">
</g>
<g style="fill:#840000; fill-opacity:0.0; 
stroke:#840000; stroke-width:60; stroke-opacity:1; 
stroke-linecap:round; stroke-linejoin:round;">
<path d="M82680 4720
L82680 3940
" />
</g>
<g style="fill:#840000; fill-opacity:0.0; 
stroke:#840000; stroke-width:100; stroke-opacity:1; 
stroke-linecap:round; stroke-linejoin:round;">
</g>
<g style="fill:#840000; fill-opacity:0.0; 
stroke:#840000; stroke-width:60; stroke-opacity:1; 
stroke-linecap:round; stroke-linejoin:round;">
<path d="M102360 4720
L102360 3940
" />
</g>
<g style="fill:#840000; fill-opacity:0.0; 
stroke:#840000; stroke-width:100; stroke-opacity:1; 
stroke-linecap:round; stroke-linejoin:round;">
</g>
<g style="fill:#840000; fill-opacity:0.0; 
stroke:#840000; stroke-width:60; stroke-opacity:1; 
stroke-linecap:round; stroke-linejoin:round;">
<path d="M14170 4560
L13880 4560
" />
<path d="M14020 4560
L14020 4050
L13970 4120
L13930 4170
L13880 4190
" />
</g>
<g style="fill:#840000; fill-opacity:0.0; 
stroke:#840000; stroke-width:100; stroke-opacity:1; 
stroke-linecap:round; stroke-linejoin:round;">
</g>
<g style="fill:#840000; fill-opacity:0.0; 
stroke:#840000; stroke-width:60; stroke-opacity:1; 
stroke-linecap:round; stroke-linejoin:round;">
<path d="M33560 4090
L33580 4070
L33630 4050
L33750 4050
L33800 4070
L33820 4090
L33850 4140
L33850 4190
L33820 4260
L33530 4560
L33850 4560
" />
</g>
<g style="fill:#840000; fill-opacity:0.0; 
stroke:#840000; stroke-width:100; stroke-opacity:1; 
stroke-linecap:round; stroke-linejoin:round;">
</g>
<g style="fill:#840000; fill-opacity:0.0; 
stroke:#840000; stroke-width:60; stroke-opacity:1; 
stroke-linecap:round; stroke-linejoin:round;">
<path d="M53220 4050
L53540 4050
L53370 4240
L53440 4240
L53490 4260
L53510 4290
L53540 4340
L53540 4460
L53510 4510
L53490 4530
L53440 4560
L53300 4560
L53250 4530
L53220 4510
" />
</g>
<g style="fill:#840000; fill-opacity:0.0; 
stroke:#840000; stroke-width:100; stroke-opacity:1; 
stroke-linecap:round; stroke-linejoin:round;">
</g>
<g style="fill:#840000; fill-opacity:0.0; 
stroke:#840000; stroke-width:60; stroke-opacity:1; 
stroke-linecap:round; stroke-linejoin:round;">
<path d="M73170 4220
L73170 4560
" />
<path d="M73050 4020
L72930 4390
L73240 4390
" />
</g>
<g style="fill:#840000; fill-opacity:0.0; 
stroke:#840000; stroke-width:100; stroke-opacity:1; 
stroke-linecap:round; stroke-linejoin:round;">
</g>
<g style="fill:#840000; fill-opacity:0.0; 
stroke:#840000; stroke-width:60; stroke-opacity:1; 
stroke-linecap:round; stroke-linejoin:round;">
<path d="M92880 4050
L92640 4050
L92620 4290
L92640 4260
L92690 4240
L92810 4240
L92860 4260
L92880 4290
L92910 4340
L92910 4460
L92880 4510
L92860 4530
L92810 4560
L92690 4560
L92640 4530
L92620 4510
" />
</g>
<g style="fill:#840000; fill-opacity:0.0; 
stroke:#840000; stroke-width:100; stroke-opacity:1; 
stroke-linecap:round; stroke-linejoin:round;">
</g>
<g style="fill:#840000; fill-opacity:0.0; 
stroke:#840000; stroke-width:60; stroke-opacity:1; 
stroke-linecap:round; stroke-linejoin:round;">
<path d="M112540 4050
L112440 4050
L112390 4070
L112370 4090
L112320 4170
L112300 4260
L112300 4460
L112320 4510
L112350 4530
L112390 4560
L112490 4560
L112540 4530
L112560 4510
L112590 4460
L112590 4340
L112560 4290
L112540 4260
L112490 4240
L112390 4240
L112350 4260
L112320 4290
L112300 4340
" />
</g>
<g style="fill:#840000; fill-opacity:0.0; 
stroke:#840000; stroke-width:100; stroke-opacity:1; 
stroke-linecap:round; stroke-linejoin:round;">
</g>
<g style="fill:#840000; fill-opacity:0.0; 
stroke:#840000; stroke-width:60; stroke-opacity:1; 
stroke-linecap:round; stroke-linejoin:round;">
<path d="M23620 77960
L23620 78740
" />
</g>
<g style="fill:#840000; fill-opacity:0.0; 
stroke:#840000; stroke-width:100; stroke-opacity:1; 
stroke-linecap:round; stroke-linejoin:round;">
</g>
<g style="fill:#840000; fill-opacity:0.0; 
stroke:#840000; stroke-width:60; stroke-opacity:1; 
stroke-linecap:round; stroke-linejoin:round;">
<path d="M43310 77960
L43310 78740
" />
</g>
<g style="fill:#840000; fill-opacity:0.0; 
stroke:#840000; stroke-width:100; stroke-opacity:1; 
stroke-linecap:round; stroke-linejoin:round;">
</g>
<g style="fill:#840000; fill-opacity:0.0; 
stroke:#840000; stroke-width:60; stroke-opacity:1; 
stroke-linecap:round; stroke-linejoin:round;">
<path d="M62990 77960
L62990 78740
" />
</g>
<g style="fill:#840000; fill-opacity:0.0; 
stroke:#840000; stroke-width:100; stroke-opacity:1; 
stroke-linecap:round; stroke-linejoin:round;">
</g>
<g style="fill:#840000; fill-opacity:0.0; 
stroke:#840000; stroke-width:60; stroke-opacity:1; 
stroke-linecap:round; stroke-linejoin:round;">
<path d="M82680 77960
L82680 78740
" />
</g>
<g style="fill:#840000; fill-opacity:0.0; 
stroke:#840000; stroke-width:100; stroke-opacity:1; 
stroke-linecap:round; stroke-linejoin:round;">
</g>
<g style="fill:#840000; fill-opacity:0.0; 
stroke:#840000; stroke-width:60; stroke-opacity:1; 
stroke-linecap:round; stroke-linejoin:round;">
<path d="M102360 77960
L102360 78740
" />
</g>
<g style="fill:#840000; fill-opacity:0.0; 
stroke:#840000; stroke-width:100; stroke-opacity:1; 
stroke-linecap:round; stroke-linejoin:round;">
</g>
<g style="fill:#840000; fill-opacity:0.0; 
stroke:#840000; stroke-width:60; stroke-opacity:1; 
stroke-linecap:round; stroke-linejoin:round;">
<path d="M14170 78580
L13880 78580
" />
<path d="M14020 78580
L14020 78070
L13970 78140
L13930 78190
L13880 78210
" />
</g>
<g style="fill:#840000; fill-opacity:0.0; 
stroke:#840000; stroke-width:100; stroke-opacity:1; 
stroke-linecap:round; stroke-linejoin:round;">
</g>
<g style="fill:#840000; fill-opacity:0.0; 
stroke:#840000; stroke-width:60; stroke-opacity:1; 
stroke-linecap:round; stroke-linejoin:round;">
<path d="M33560 78110
L33580 78090
L33630 78070
L33750 78070
L33800 78090
L33820 78110
L33850 78160
L33850 78210
L33820 78280
L33530 78580
L33850 78580
" />
</g>
<g style="fill:#840000; fill-opacity:0.0; 
stroke:#840000; stroke-width:100; stroke-opacity:1; 
stroke-linecap:round; stroke-linejoin:round;">
</g>
<g style="fill:#840000; fill-opacity:0.0; 
stroke:#840000; stroke-width:60; stroke-opacity:1; 
stroke-linecap:round; stroke-linejoin:round;">
<path d="M53220 78070
L53540 78070
L53370 78260
L53440 78260
L53490 78280
L53510 78310
L53540 78360
L53540 78480
L53510 78530
L53490 78550
L53440 78580
L53300 78580
L53250 78550
L53220 78530
" />
</g>
<g style="fill:#840000; fill-opacity:0.0; 
stroke:#840000; stroke-width:100; stroke-opacity:1; 
stroke-linecap:round; stroke-linejoin:round;">
</g>
<g style="fill:#840000; fill-opacity:0.0; 
stroke:#840000; stroke-width:60; stroke-opacity:1; 
stroke-linecap:round; stroke-linejoin:round;">
<path d="M73170 78240
L73170 78580
" />
<path d="M73050 78040
L72930 78410
L73240 78410
" />
</g>
<g style="fill:#840000; fill-opacity:0.0; 
stroke:#840000; stroke-width:100; stroke-opacity:1; 
stroke-linecap:round; stroke-linejoin:round;">
</g>
<g style="fill:#840000; fill-opacity:0.0; 
stroke:#840000; stroke-width:60; stroke-opacity:1; 
stroke-linecap:round; stroke-linejoin:round;">
<path d="M92880 78070
L92640 78070
L92620 78310
L92640 78280
L92690 78260
L92810 78260
L92860 78280
L92880 78310
L92910 78360
L92910 78480
L92880 78530
L92860 78550
L92810 78580
L92690 78580
L92640 78550
L92620 78530
" />
</g>
<g style="fill:#840000; fill-opacity:0.0; 
stroke:#840000; stroke-width:100; stroke-opacity:1; 
stroke-linecap:round; stroke-linejoin:round;">
</g>
<g style="fill:#840000; fill-opacity:0.0; 
stroke:#840000; stroke-width:60; stroke-opacity:1; 
stroke-linecap:round; stroke-linejoin:round;">
<path d="M112540 78070
L112440 78070
L112390 78090
L112370 78110
L112320 78190
L112300 78280
L112300 78480
L112320 78530
L112350 78550
L112390 78580
L112490 78580
L112540 78550
L112560 78530
L112590 78480
L112590 78360
L112560 78310
L112540 78280
L112490 78260
L112390 78260
L112350 78280
L112320 78310
L112300 78360
" />
</g>
<g style="fill:#840000; fill-opacity:0.0; 
stroke:#840000; stroke-width:100; stroke-opacity:1; 
stroke-linecap:round; stroke-linejoin:round;">
</g>
<g style="fill:#840000; fill-opacity:0.0; 
stroke:#840000; stroke-width:60; stroke-opacity:1; 
stroke-linecap:round; stroke-linejoin:round;">
<path d="M3940 23620
L4720 23620
" />
</g>
<g style="fill:#840000; fill-opacity:0.0; 
stroke:#840000; stroke-width:100; stroke-opacity:1; 
stroke-linecap:round; stroke-linejoin:round;">
</g>
<g style="fill:#840000; fill-opacity:0.0; 
stroke:#840000; stroke-width:60; stroke-opacity:1; 
stroke-linecap:round; stroke-linejoin:round;">
<path d="M3940 43310
L4720 43310
" />
</g>
<g style="fill:#840000; fill-opacity:0.0; 
stroke:#840000; stroke-width:100; stroke-opacity:1; 
stroke-linecap:round; stroke-linejoin:round;">
</g>
<g style="fill:#840000; fill-opacity:0.0; 
stroke:#840000; stroke-width:60; stroke-opacity:1; 
stroke-linecap:round; stroke-linejoin:round;">
<path d="M3940 62990
L4720 62990
" />
</g>
<g style="fill:#840000; fill-opacity:0.0; 
stroke:#840000; stroke-width:100; stroke-opacity:1; 
stroke-linecap:round; stroke-linejoin:round;">
</g>
<g style="fill:#840000; fill-opacity:0.0; 
stroke:#840000; stroke-width:60; stroke-opacity:1; 
stroke-linecap:round; stroke-linejoin:round;">
<path d="M4210 13860
L4450 13860
" />
<path d="M4160 14010
L4330 13500
L4500 14010
" />
</g>
<g style="fill:#840000; fill-opacity:0.0; 
stroke:#840000; stroke-width:100; stroke-opacity:1; 
stroke-linecap:round; stroke-linejoin:round;">
</g>
<g style="fill:#840000; fill-opacity:0.0; 
stroke:#840000; stroke-width:60; stroke-opacity:1; 
stroke-linecap:round; stroke-linejoin:round;">
<path d="M4370 33420
L4440 33440
L4470 33470
L4490 33520
L4490 33590
L4470 33640
L4440 33660
L4400 33690
L4200 33690
L4200 33180
L4370 33180
L4420 33200
L4440 33220
L4470 33270
L4470 33320
L4440 33370
L4420 33390
L4370 33420
L4200 33420
" />
</g>
<g style="fill:#840000; fill-opacity:0.0; 
stroke:#840000; stroke-width:100; stroke-opacity:1; 
stroke-linecap:round; stroke-linejoin:round;">
</g>
<g style="fill:#840000; fill-opacity:0.0; 
stroke:#840000; stroke-width:60; stroke-opacity:1; 
stroke-linecap:round; stroke-linejoin:round;">
<path d="M4490 53330
L4470 53350
L4400 53380
L4350 53380
L4270 53350
L4230 53300
L4200 53250
L4180 53160
L4180 53080
L4200 52990
L4230 52940
L4270 52890
L4350 52870
L4400 52870
L4470 52890
L4490 52910
" />
</g>
<g style="fill:#840000; fill-opacity:0.0; 
stroke:#840000; stroke-width:100; stroke-opacity:1; 
stroke-linecap:round; stroke-linejoin:round;">
</g>
<g style="fill:#840000; fill-opacity:0.0; 
stroke:#840000; stroke-width:60; stroke-opacity:1; 
stroke-linecap:round; stroke-linejoin:round;">
<path d="M4200 73060
L4200 72550
L4320 72550
L4400 72570
L4440 72620
L4470 72670
L4490 72760
L4490 72840
L4470 72930
L4440 72980
L4400 73030
L4320 73060
L4200 73060
" />
</g>
<g style="fill:#840000; fill-opacity:0.0; 
stroke:#840000; stroke-width:100; stroke-opacity:1; 
stroke-linecap:round; stroke-linejoin:round;">
</g>
<g style="fill:#840000; fill-opacity:0.0; 
stroke:#840000; stroke-width:60; stroke-opacity:1; 
stroke-linecap:round; stroke-linejoin:round;">
<path d="M112990 23620
L112210 23620
" />
</g>
<g style="fill:#840000; fill-opacity:0.0; 
stroke:#840000; stroke-width:100; stroke-opacity:1; 
stroke-linecap:round; stroke-linejoin:round;">
</g>
<g style="fill:#840000; fill-opacity:0.0; 
stroke:#840000; stroke-width:60; stroke-opacity:1; 
stroke-linecap:round; stroke-linejoin:round;">
<path d="M112990 43310
L112210 43310
" />
</g>
<g style="fill:#840000; fill-opacity:0.0; 
stroke:#840000; stroke-width:100; stroke-opacity:1; 
stroke-linecap:round; stroke-linejoin:round;">
</g>
<g style="fill:#840000; fill-opacity:0.0; 
stroke:#840000; stroke-width:60; stroke-opacity:1; 
stroke-linecap:round; stroke-linejoin:round;">
<path d="M112990 62990
L112210 62990
" />
</g>
<g style="fill:#840000; fill-opacity:0.0; 
stroke:#840000; stroke-width:100; stroke-opacity:1; 
stroke-linecap:round; stroke-linejoin:round;">
</g>
<g style="fill:#840000; fill-opacity:0.0; 
stroke:#840000; stroke-width:60; stroke-opacity:1; 
stroke-linecap:round; stroke-linejoin:round;">
<path d="M112480 13860
L112720 13860
" />
<path d="M112430 14010
L112600 13500
L112770 14010
" />
</g>
<g style="fill:#840000; fill-opacity:0.0; 
stroke:#840000; stroke-width:100; stroke-opacity:1; 
stroke-linecap:round; stroke-linejoin:round;">
</g>
<g style="fill:#840000; fill-opacity:0.0; 
stroke:#840000; stroke-width:60; stroke-opacity:1; 
stroke-linecap:round; stroke-linejoin:round;">
<path d="M112640 33420
L112710 33440
L112740 33470
L112760 33520
L112760 33590
L112740 33640
L112710 33660
L112670 33690
L112470 33690
L112470 33180
L112640 33180
L112690 33200
L112710 33220
L112740 33270
L112740 33320
L112710 33370
L112690 33390
L112640 33420
L112470 33420
" />
</g>
<g style="fill:#840000; fill-opacity:0.0; 
stroke:#840000; stroke-width:100; stroke-opacity:1; 
stroke-linecap:round; stroke-linejoin:round;">
</g>
<g style="fill:#840000; fill-opacity:0.0; 
stroke:#840000; stroke-width:60; stroke-opacity:1; 
stroke-linecap:round; stroke-linejoin:round;">
<path d="M112760 53330
L112740 53350
L112670 53380
L112620 53380
L112540 53350
L112500 53300
L112470 53250
L112450 53160
L112450 53080
L112470 52990
L112500 52940
L112540 52890
L112620 52870
L112670 52870
L112740 52890
L112760 52910
" />
</g>
<g style="fill:#840000; fill-opacity:0.0; 
stroke:#840000; stroke-width:100; stroke-opacity:1; 
stroke-linecap:round; stroke-linejoin:round;">
</g>
<g style="fill:#840000; fill-opacity:0.0; 
stroke:#840000; stroke-width:60; stroke-opacity:1; 
stroke-linecap:round; stroke-linejoin:round;">
<path d="M112470 73060
L112470 72550
L112590 72550
L112670 72570
L112710 72620
L112740 72670
L112760 72760
L112760 72840
L112740 72930
L112710 72980
L112670 73030
L112590 73060
L112470 73060
" />
</g>
<g style="fill:#840000; fill-opacity:0.0; 
stroke:#840000; stroke-width:100; stroke-opacity:1; 
stroke-linecap:round; stroke-linejoin:round;">
</g>
<g style="fill:#840000; fill-opacity:0.0; 
stroke:#840000; stroke-width:60; stroke-opacity:1; 
stroke-linecap:round; stroke-linejoin:round;">
<path d="M78880 76290
L78880 75700
L79020 75700
L79110 75730
L79160 75790
L79190 75840
L79220 75950
L79220 76040
L79190 76150
L79160 76210
L79110 76260
L79020 76290
L78880 76290
" />
<path d="M79720 76290
L79720 75980
L79700 75930
L79640 75900
L79530 75900
L79470 75930
" />
<path d="M79720 76260
L79670 76290
L79530 76290
L79470 76260
L79440 76210
L79440 76150
L79470 76100
L79530 76070
L79670 76070
L79720 76040
" />
<path d="M79920 75900
L80140 75900
" />
<path d="M80000 75700
L80000 76210
L80030 76260
L80080 76290
L80140 76290
" />
<path d="M80570 76260
L80510 76290
L80400 76290
L80340 76260
L80310 76210
L80310 75980
L80340 75930
L80400 75900
L80510 75900
L80570 75930
L80590 75980
L80590 76040
L80310 76100
" />
<path d="M80850 76240
L80880 76260
L80850 76290
L80820 76260
L80850 76240
L80850 76290
" />
<path d="M80850 75930
L80880 75950
L80850 75980
L80820 75950
L80850 75930
L80850 75980
" />
<path d="M81550 75760
L81580 75730
L81640 75700
L81780 75700
L81830 75730
L81860 75760
L81890 75810
L81890 75870
L81860 75950
L81520 76290
L81890 76290
" />
<path d="M82390 75700
L82280 75700
L82220 75730
L82200 75760
L82140 75840
L82110 75950
L82110 76180
L82140 76240
L82170 76260
L82220 76290
L82340 76290
L82390 76260
L82420 76240
L82450 76180
L82450 76040
L82420 75980
L82390 75950
L82340 75930
L82220 75930
L82170 75950
L82140 75980
L82110 76040
" />
<path d="M83150 75900
L83150 76400
L83120 76460
L83070 76490
L83040 76490
" />
<path d="M83150 75700
L83120 75730
L83150 75760
L83180 75730
L83150 75700
L83150 75760
" />
<path d="M83680 76290
L83680 75980
L83660 75930
L83600 75900
L83490 75900
L83430 75930
" />
<path d="M83680 76260
L83630 76290
L83490 76290
L83430 76260
L83400 76210
L83400 76150
L83430 76100
L83490 76070
L83630 76070
L83680 76040
" />
<path d="M83960 75900
L83960 76290
" />
<path d="M83960 75950
L83990 75930
L84040 75900
L84130 75900
L84190 75930
L84210 75980
L84210 76290
" />
<path d="M84910 75760
L84940 75730
L85000 75700
L85140 75700
L85190 75730
L85220 75760
L85250 75810
L85250 75870
L85220 75950
L84880 76290
L85250 76290
" />
<path d="M85610 75700
L85670 75700
L85730 75730
L85750 75760
L85780 75810
L85810 75930
L85810 76070
L85780 76180
L85750 76240
L85730 76260
L85670 76290
L85610 76290
L85560 76260
L85530 76240
L85500 76180
L85470 76070
L85470 75930
L85500 75810
L85530 75760
L85560 75730
L85610 75700
" />
<path d="M86370 76290
L86030 76290
" />
<path d="M86200 76290
L86200 75700
L86140 75790
L86090 75840
L86030 75870
" />
<path d="M86870 75900
L86870 76290
" />
<path d="M86730 75670
L86590 76100
L86960 76100
" />
</g>
<g style="fill:#840000; fill-opacity:0.0; 
stroke:#840000; stroke-width:100; stroke-opacity:1; 
stroke-linecap:round; stroke-linejoin:round;">
</g>
<g style="fill:#840000; fill-opacity:0.0; 
stroke:#840000; stroke-width:60; stroke-opacity:1; 
stroke-linecap:round; stroke-linejoin:round;">
<path d="M69690 76580
L112210 76580
" />
</g>
<g style="fill:#840000; fill-opacity:0.0; 
stroke:#840000; stroke-width:100; stroke-opacity:1; 
stroke-linecap:round; stroke-linejoin:round;">
</g>
<g style="fill:#840000; fill-opacity:0.0; 
stroke:#840000; stroke-width:60; stroke-opacity:1; 
stroke-linecap:round; stroke-linejoin:round;">
<path d="M70220 77390
L70220 76800
" />
<path d="M70560 77390
L70300 77050
" />
<path d="M70560 76800
L70220 77140
" />
<path d="M70810 77390
L70810 77000
" />
<path d="M70810 76800
L70780 76830
L70810 76860
L70840 76830
L70810 76800
L70810 76860
" />
<path d="M71430 77340
L71400 77360
L71320 77390
L71260 77390
L71170 77360
L71120 77310
L71090 77250
L71060 77140
L71060 77050
L71090 76940
L71120 76890
L71170 76830
L71260 76800
L71320 76800
L71400 76830
L71430 76860
" />
<path d="M71930 77390
L71930 77080
L71910 77030
L71850 77000
L71740 77000
L71680 77030
" />
<path d="M71930 77360
L71880 77390
L71740 77390
L71680 77360
L71650 77310
L71650 77250
L71680 77200
L71740 77170
L71880 77170
L71930 77140
" />
<path d="M72460 77390
L72460 76800
" />
<path d="M72460 77360
L72410 77390
L72290 77390
L72240 77360
L72210 77340
L72180 77280
L72180 77110
L72210 77050
L72240 77030
L72290 77000
L72410 77000
L72460 77030
" />
<path d="M73190 77080
L73390 77080
" />
<path d="M73470 77390
L73190 77390
L73190 76800
L73470 76800
" />
<path d="M73720 77340
L73750 77360
L73720 77390
L73690 77360
L73720 77340
L73720 77390
" />
<path d="M74000 77390
L74000 76800
L74140 76800
L74230 76830
L74280 76890
L74310 76940
L74340 77050
L74340 77140
L74310 77250
L74280 77310
L74230 77360
L74140 77390
L74000 77390
" />
<path d="M74590 77340
L74620 77360
L74590 77390
L74560 77360
L74590 77340
L74590 77390
" />
<path d="M74840 77220
L75120 77220
" />
<path d="M74790 77390
L74980 76800
L75180 77390
" />
<path d="M75380 77340
L75410 77360
L75380 77390
L75350 77360
L75380 77340
L75380 77390
" />
<path d="M76560 77390
L76560 76800
" />
<path d="M76620 77170
L76790 77390
" />
<path d="M76790 77000
L76560 77220
" />
<path d="M77040 77390
L77040 77000
" />
<path d="M77040 76800
L77010 76830
L77040 76860
L77070 76830
L77040 76800
L77040 76860
" />
<path d="M77570 77360
L77520 77390
L77400 77390
L77350 77360
L77320 77340
L77290 77280
L77290 77110
L77320 77050
L77350 77030
L77400 77000
L77520 77000
L77570 77030
" />
<path d="M78080 77390
L78080 77080
L78060 77030
L78000 77000
L77890 77000
L77830 77030
" />
<path d="M78080 77360
L78030 77390
L77890 77390
L77830 77360
L77800 77310
L77800 77250
L77830 77200
L77890 77170
L78030 77170
L78080 77140
" />
<path d="M78610 77390
L78610 76800
" />
<path d="M78610 77360
L78560 77390
L78440 77390
L78390 77360
L78360 77340
L78330 77280
L78330 77110
L78360 77050
L78390 77030
L78440 77000
L78560 77000
L78610 77030
" />
<path d="M79590 77000
L79590 77390
" />
<path d="M79450 76770
L79310 77200
L79680 77200
" />
<path d="M79900 77340
L79930 77360
L79900 77390
L79870 77360
L79900 77340
L79900 77390
" />
<path d="M80290 76800
L80350 76800
L80410 76830
L80430 76860
L80460 76910
L80490 77030
L80490 77170
L80460 77280
L80430 77340
L80410 77360
L80350 77390
L80290 77390
L80240 77360
L80210 77340
L80180 77280
L80150 77170
L80150 77030
L80180 76910
L80210 76860
L80240 76830
L80290 76800
" />
<path d="M80740 77340
L80770 77360
L80740 77390
L80710 77360
L80740 77340
L80740 77390
" />
<path d="M81270 77000
L81270 77390
" />
<path d="M81130 76770
L80990 77200
L81360 77200
" />
<path d="M81580 77170
L82030 77170
" />
<path d="M82280 77360
L82340 77390
L82450 77390
L82510 77360
L82540 77310
L82540 77280
L82510 77220
L82450 77200
L82370 77200
L82310 77170
L82280 77110
L82280 77080
L82310 77030
L82370 77000
L82450 77000
L82510 77030
" />
<path d="M82710 77000
L82930 77000
" />
<path d="M82790 76800
L82790 77310
L82820 77360
L82870 77390
L82930 77390
" />
<path d="M83380 77390
L83380 77080
L83360 77030
L83300 77000
L83190 77000
L83130 77030
" />
<path d="M83380 77360
L83330 77390
L83190 77390
L83130 77360
L83100 77310
L83100 77250
L83130 77200
L83190 77170
L83330 77170
L83380 77140
" />
<path d="M83660 77390
L83660 76800
" />
<path d="M83660 77030
L83720 77000
L83830 77000
L83890 77030
L83910 77050
L83940 77110
L83940 77280
L83910 77340
L83890 77360
L83830 77390
L83720 77390
L83660 77360
" />
<path d="M84270 77390
L84220 77360
L84190 77310
L84190 76800
" />
<path d="M84730 77360
L84670 77390
L84560 77390
L84500 77360
L84470 77310
L84470 77080
L84500 77030
L84560 77000
L84670 77000
L84730 77030
L84750 77080
L84750 77140
L84470 77200
" />
</g>
<g style="fill:#840000; fill-opacity:0.0; 
stroke:#840000; stroke-width:100; stroke-opacity:1; 
stroke-linecap:round; stroke-linejoin:round;">
</g>
<g style="fill:#840000; fill-opacity:0.0; 
stroke:#840000; stroke-width:60; stroke-opacity:1; 
stroke-linecap:round; stroke-linejoin:round;">
<path d="M69690 75400
L112210 75400
" />
</g>
<g style="fill:#840000; fill-opacity:0.0; 
stroke:#840000; stroke-width:100; stroke-opacity:1; 
stroke-linecap:round; stroke-linejoin:round;">
</g>
<g style="fill:#840000; fill-opacity:0.0; 
stroke:#840000; stroke-width:120; stroke-opacity:1; 
stroke-linecap:round; stroke-linejoin:round;">
<path d="M104020 76290
L103820 76010
" />
<path d="M103680 76290
L103680 75700
L103910 75700
L103960 75730
L103990 75760
L104020 75810
L104020 75900
L103990 75950
L103960 75980
L103910 76010
L103680 76010
" />
<path d="M104500 76260
L104440 76290
L104330 76290
L104270 76260
L104240 76210
L104240 75980
L104270 75930
L104330 75900
L104440 75900
L104500 75930
L104520 75980
L104520 76040
L104240 76100
" />
<path d="M104720 75900
L104860 76290
L105010 75900
" />
<path d="M105230 76240
L105260 76260
L105230 76290
L105200 76260
L105230 76240
L105230 76290
" />
<path d="M105230 75930
L105260 75950
L105230 75980
L105200 75950
L105230 75930
L105230 75980
" />
</g>
<g style="fill:#840000; fill-opacity:0.0; 
stroke:#840000; stroke-width:100; stroke-opacity:1; 
stroke-linecap:round; stroke-linejoin:round;">
</g>
<g style="fill:#840000; fill-opacity:0.0; 
stroke:#840000; stroke-width:60; stroke-opacity:1; 
stroke-linecap:round; stroke-linejoin:round;">
<path d="M70190 76260
L70280 76290
L70420 76290
L70470 76260
L70500 76240
L70530 76180
L70530 76120
L70500 76070
L70470 76040
L70420 76010
L70300 75980
L70250 75950
L70220 75930
L70190 75870
L70190 75810
L70220 75760
L70250 75730
L70300 75700
L70450 75700
L70530 75730
" />
<path d="M70780 76290
L70780 75900
" />
<path d="M70780 75700
L70750 75730
L70780 75760
L70810 75730
L70780 75700
L70780 75760
" />
<path d="M71000 75900
L71310 75900
L71000 76290
L71310 76290
" />
<path d="M71770 76260
L71710 76290
L71600 76290
L71540 76260
L71510 76210
L71510 75980
L71540 75930
L71600 75900
L71710 75900
L71770 75930
L71790 75980
L71790 76040
L71510 76100
" />
<path d="M72050 76240
L72080 76260
L72050 76290
L72020 76260
L72050 76240
L72050 76290
" />
<path d="M72050 75930
L72080 75950
L72050 75980
L72020 75950
L72050 75930
L72050 75980
" />
<path d="M72750 76120
L73030 76120
" />
<path d="M72700 76290
L72890 75700
L73090 76290
" />
<path d="M73540 75900
L73540 76290
" />
<path d="M73400 75670
L73260 76100
L73630 76100
" />
</g>
<g style="fill:#840000; fill-opacity:0.0; 
stroke:#840000; stroke-width:100; stroke-opacity:1; 
stroke-linecap:round; stroke-linejoin:round;">
</g>
<g style="fill:#840000; fill-opacity:0.0; 
stroke:#840000; stroke-width:60; stroke-opacity:1; 
stroke-linecap:round; stroke-linejoin:round;">
<path d="M103680 77390
L103680 76800
" />
<path d="M104210 77390
L104210 76800
" />
<path d="M104210 77360
L104160 77390
L104040 77390
L103990 77360
L103960 77340
L103930 77280
L103930 77110
L103960 77050
L103990 77030
L104040 77000
L104160 77000
L104210 77030
" />
<path d="M104490 77340
L104520 77360
L104490 77390
L104460 77360
L104490 77340
L104490 77390
" />
<path d="M104490 77030
L104520 77050
L104490 77080
L104460 77050
L104490 77030
L104490 77080
" />
<path d="M105530 77390
L105190 77390
" />
<path d="M105360 77390
L105360 76800
L105300 76890
L105250 76940
L105190 76970
" />
<path d="M106200 76770
L105700 77530
" />
<path d="M106710 77390
L106370 77390
" />
<path d="M106540 77390
L106540 76800
L106480 76890
L106430 76940
L106370 76970
" />
</g>
<g style="fill:#840000; fill-opacity:0.0; 
stroke:#840000; stroke-width:100; stroke-opacity:1; 
stroke-linecap:round; stroke-linejoin:round;">
</g>
<g style="fill:#840000; fill-opacity:0.0; 
stroke:#840000; stroke-width:60; stroke-opacity:1; 
stroke-linecap:round; stroke-linejoin:round;">
<path d="M69690 73820
L112210 73820
" />
</g>
<g style="fill:#840000; fill-opacity:0.0; 
stroke:#840000; stroke-width:100; stroke-opacity:1; 
stroke-linecap:round; stroke-linejoin:round;">
</g>
<g style="fill:#840000; fill-opacity:0.0; 
stroke:#840000; stroke-width:160; stroke-opacity:1; 
stroke-linecap:round; stroke-linejoin:round;">
<path d="M70260 74090
L70710 74090
" />
<path d="M70390 74880
L70480 74090
" />
<path d="M70880 74880
L70940 74360
" />
<path d="M70970 74090
L70930 74130
L70960 74170
L71010 74130
L70970 74090
L70960 74170
" />
<path d="M71210 74360
L71510 74360
" />
<path d="M71350 74090
L71270 74770
L71300 74840
L71370 74880
L71450 74880
" />
<path d="M71820 74880
L71750 74840
L71720 74770
L71800 74090
" />
<path d="M72420 74840
L72340 74880
L72190 74880
L72120 74840
L72090 74770
L72130 74470
L72180 74390
L72250 74360
L72400 74360
L72480 74390
L72510 74470
L72500 74540
L72110 74620
" />
<path d="M72800 74810
L72840 74840
L72800 74880
L72760 74840
L72800 74810
L72800 74880
" />
<path d="M72860 74390
L72890 74430
L72850 74470
L72810 74430
L72860 74390
L72850 74470
" />
</g>
<g style="fill:#840000; fill-opacity:0.0; 
stroke:#840000; stroke-width:100; stroke-opacity:1; 
stroke-linecap:round; stroke-linejoin:round;">
</g>
<g style="fill:#840000; fill-opacity:0.0; 
stroke:#840000; stroke-width:60; stroke-opacity:1; 
stroke-linecap:round; stroke-linejoin:round;">
<path d="M70420 73060
L70220 73060
" />
<path d="M70220 73370
L70220 72780
L70500 72780
" />
<path d="M70730 73370
L70730 72980
" />
<path d="M70730 72780
L70700 72810
L70730 72840
L70760 72810
L70730 72780
L70730 72840
" />
<path d="M71090 73370
L71040 73340
L71010 73290
L71010 72780
" />
<path d="M71550 73340
L71490 73370
L71380 73370
L71320 73340
L71290 73290
L71290 73060
L71320 73010
L71380 72980
L71490 72980
L71550 73010
L71570 73060
L71570 73120
L71290 73180
" />
<path d="M71830 73320
L71860 73340
L71830 73370
L71800 73340
L71830 73320
L71830 73370
" />
<path d="M71830 73010
L71860 73030
L71830 73060
L71800 73030
L71830 73010
L71830 73060
" />
<path d="M72560 73370
L72560 72780
L72790 72780
L72840 72810
L72870 72840
L72900 72890
L72900 72980
L72870 73030
L72840 73060
L72790 73090
L72560 73090
" />
<path d="M73150 73370
L73150 72980
" />
<path d="M73150 72780
L73120 72810
L73150 72840
L73180 72810
L73150 72780
L73150 72840
" />
<path d="M73400 72840
L73430 72810
L73490 72780
L73630 72780
L73680 72810
L73710 72840
L73740 72890
L73740 72950
L73710 73030
L73370 73370
L73740 73370
" />
<path d="M74240 73340
L74190 73370
L74070 73370
L74020 73340
L73990 73320
L73960 73260
L73960 73090
L73990 73030
L74020 73010
L74070 72980
L74190 72980
L74240 73010
" />
<path d="M74500 73320
L74530 73340
L74500 73370
L74470 73340
L74500 73320
L74500 73370
" />
<path d="M74750 73340
L74810 73370
L74920 73370
L74980 73340
L75010 73290
L75010 73260
L74980 73200
L74920 73180
L74840 73180
L74780 73150
L74750 73090
L74750 73060
L74780 73010
L74840 72980
L74920 72980
L74980 73010
" />
<path d="M75510 73340
L75460 73370
L75340 73370
L75290 73340
L75260 73320
L75230 73260
L75230 73090
L75260 73030
L75290 73010
L75340 72980
L75460 72980
L75510 73010
" />
<path d="M75770 73370
L75770 72780
" />
<path d="M76020 73370
L76020 73060
L76000 73010
L75940 72980
L75850 72980
L75800 73010
L75770 73030
" />
</g>
<g style="fill:#840000; fill-opacity:0.0; 
stroke:#840000; stroke-width:100; stroke-opacity:1; 
stroke-linecap:round; stroke-linejoin:round;">
</g>
<g style="fill:#840000; fill-opacity:0.0; 
stroke:#840000; stroke-width:60; stroke-opacity:1; 
stroke-linecap:round; stroke-linejoin:round;">
<path d="M69690 71460
L112210 71460
" />
</g>
<g style="fill:#840000; fill-opacity:0.0; 
stroke:#840000; stroke-width:100; stroke-opacity:1; 
stroke-linecap:round; stroke-linejoin:round;">
</g>
<g style="fill:#840000; fill-opacity:0.0; 
stroke:#840000; stroke-width:60; stroke-opacity:1; 
stroke-linecap:round; stroke-linejoin:round;">
<path d="M70190 72280
L70280 72310
L70420 72310
L70470 72280
L70500 72260
L70530 72200
L70530 72140
L70500 72090
L70470 72060
L70420 72030
L70300 72000
L70250 71970
L70220 71950
L70190 71890
L70190 71830
L70220 71780
L70250 71750
L70300 71720
L70450 71720
L70530 71750
" />
<path d="M70780 72310
L70780 71720
" />
<path d="M71030 72310
L71030 72000
L71010 71950
L70950 71920
L70860 71920
L70810 71950
L70780 71970
" />
<path d="M71540 72280
L71480 72310
L71370 72310
L71310 72280
L71280 72230
L71280 72000
L71310 71950
L71370 71920
L71480 71920
L71540 71950
L71560 72000
L71560 72060
L71280 72120
" />
<path d="M72050 72280
L71990 72310
L71880 72310
L71820 72280
L71790 72230
L71790 72000
L71820 71950
L71880 71920
L71990 71920
L72050 71950
L72070 72000
L72070 72060
L71790 72120
" />
<path d="M72250 71920
L72470 71920
" />
<path d="M72330 71720
L72330 72230
L72360 72280
L72410 72310
L72470 72310
" />
<path d="M72670 72260
L72700 72280
L72670 72310
L72640 72280
L72670 72260
L72670 72310
" />
<path d="M72670 71950
L72700 71970
L72670 72000
L72640 71970
L72670 71950
L72670 72000
" />
<path d="M73820 71690
L73320 72450
" />
</g>
<g style="fill:#840000; fill-opacity:0.0; 
stroke:#840000; stroke-width:100; stroke-opacity:1; 
stroke-linecap:round; stroke-linejoin:round;">
</g>
<g style="fill:#840000; fill-opacity:0.0; 
stroke:#840000; stroke-width:60; stroke-opacity:1; 
stroke-linecap:round; stroke-linejoin:round;">
<path d="M77560 75400
L77560 76580
" />
</g>
<g style="fill:#840000; fill-opacity:0.0; 
stroke:#840000; stroke-width:100; stroke-opacity:1; 
stroke-linecap:round; stroke-linejoin:round;">
</g>
<g style="fill:#840000; fill-opacity:0.0; 
stroke:#840000; stroke-width:60; stroke-opacity:1; 
stroke-linecap:round; stroke-linejoin:round;">
<path d="M102760 75400
L102760 77960
" />
</g>
<g style="fill:#840000; fill-opacity:0.0; 
stroke:#840000; stroke-width:0; stroke-opacity:1; 
stroke-linecap:round; stroke-linejoin:round;">
</g>
<g style="fill:#840000; fill-opacity:0.0; 
stroke:#840000; stroke-width:80; stroke-opacity:1; 
stroke-linecap:round; stroke-linejoin:round;">
<polyline fill="none;"
points="57000,41000
59000,41000
" /> 
</g>
<g style="fill:#840000; fill-opacity:0.0; 
stroke:#840000; stroke-width:100; stroke-opacity:1; 
stroke-linecap:round; stroke-linejoin:round;">
<polyline fill="none;"
points="56500,41500
59500,41500
" /> 
</g>
<g style="fill:#840000; fill-opacity:0.0; 
stroke:#840000; stroke-width:60; stroke-opacity:1; 
stroke-linecap:round; stroke-linejoin:round;">
<polyline fill="none;"
points="57000,42500
57000,41500
" /> 
<polyline fill="none;"
points="59000,42500
59000,41500
" /> 
</g>
<g style="fill:#840000; fill-opacity:0.0; 
stroke:#840000; stroke-width:80; stroke-opacity:1; 
stroke-linecap:round; stroke-linejoin:round;">
<polyline fill="none;"
points="57000,42500
58000,42500
58000,42000
" /> 
<polyline fill="none;"
points="58300,42000
57700,42000
58000,41500
58300,42000
58300,42000
" /> 
</g>
<g style="fill:#840000; fill-opacity:0.0; 
stroke:#840000; stroke-width:60; stroke-opacity:1; 
stroke-linecap:round; stroke-linejoin:round;">
<path d="M59000 42500
L60000 42500
" />
</g>
<g style="fill:#008484; fill-opacity:0.0; 
stroke:#008484; stroke-width:60; stroke-opacity:1; 
stroke-linecap:round; stroke-linejoin:round;">
<path d="M59400 42380
L59400 41980
L59490 41980
L59550 42000
L59590 42040
L59600 42080
L59620 42150
L59620 42210
L59600 42290
L59590 42320
L59550 42360
L59490 42380
L59400 42380
" />
</g>
<g style="fill:#840000; fill-opacity:0.0; 
stroke:#840000; stroke-width:60; stroke-opacity:1; 
stroke-linecap:round; stroke-linejoin:round;">
<path d="M58000 41000
L58000 39500
" />
</g>
<g style="fill:#008484; fill-opacity:0.0; 
stroke:#008484; stroke-width:60; stroke-opacity:1; 
stroke-linecap:round; stroke-linejoin:round;">
<path d="M57500 40150
L57480 40180
L57480 40240
L57500 40300
L57540 40340
L57580 40350
L57650 40370
L57710 40370
L57790 40350
L57820 40340
L57860 40300
L57880 40240
L57880 40200
L57860 40150
L57840 40130
L57710 40130
L57710 40200
" />
</g>
<g style="fill:#840000; fill-opacity:0.0; 
stroke:#840000; stroke-width:60; stroke-opacity:1; 
stroke-linecap:round; stroke-linejoin:round;">
<path d="M57000 42500
L56000 42500
" />
</g>
<g style="fill:#008484; fill-opacity:0.0; 
stroke:#008484; stroke-width:60; stroke-opacity:1; 
stroke-linecap:round; stroke-linejoin:round;">
<path d="M56390 42360
L56440 42380
L56540 42380
L56580 42360
L56600 42340
L56610 42300
L56610 42270
L56600 42230
L56580 42210
L56540 42190
L56460 42170
L56420 42150
L56410 42130
L56390 42100
L56390 42060
L56410 42020
L56420 42000
L56460 41980
L56560 41980
L56610 42000
" />
<path d="M59990 41060
L59960 41110
L59900 41170
L59820 41260
L59790 41310
L59790 41370
" />
<path d="M59930 41340
L59900 41400
L59850 41460
L59730 41490
L59530 41490
L59420 41460
L59360 41400
L59330 41340
L59330 41230
L59360 41170
L59420 41110
L59530 41090
L59730 41090
L59850 41110
L59900 41170
L59930 41230
L59930 41340
" />
<path d="M59390 40860
L59360 40830
L59330 40770
L59330 40630
L59360 40570
L59390 40540
L59450 40510
L59500 40510
L59590 40540
L59930 40880
L59930 40510
" />
<path d="M56730 41450
L56130 41450
L56560 41250
L56130 41050
L56730 41050
" />
<path d="M56130 40640
L56130 40530
L56160 40470
L56220 40410
L56330 40390
L56530 40390
L56650 40410
L56700 40470
L56730 40530
L56730 40640
L56700 40700
L56650 40760
L56530 40790
L56330 40790
L56220 40760
L56160 40700
L56130 40640
" />
<path d="M56700 40160
L56730 40070
L56730 39930
L56700 39870
L56670 39840
L56620 39810
L56560 39810
L56500 39840
L56470 39870
L56450 39930
L56420 40040
L56390 40100
L56360 40130
L56300 40160
L56250 40160
L56190 40130
L56160 40100
L56130 40040
L56130 39900
L56160 39810
" />
<path d="M56420 39360
L56420 39560
" />
<path d="M56730 39560
L56130 39560
L56130 39270
" />
<path d="M56420 39050
L56420 38850
" />
<path d="M56730 38760
L56730 39050
L56130 39050
L56130 38760
" />
<path d="M56130 38590
L56130 38250
" />
<path d="M56730 38420
L56130 38420
" />
<path d="M56790 38190
L56790 37730
" />
<path d="M56730 37590
L56130 37590
L56730 37240
L56130 37240
" />
</g>
<g style="fill:#008484; fill-opacity:0.0; 
stroke:#008484; stroke-width:0; stroke-opacity:1; 
stroke-linecap:round; stroke-linejoin:round;">
</g>
<g style="fill:#840000; fill-opacity:0.0; 
stroke:#840000; stroke-width:0; stroke-opacity:1; 
stroke-linecap:round; stroke-linejoin:round;">
</g>
<g style="fill:#840000; fill-opacity:0.0; 
stroke:#840000; stroke-width:80; stroke-opacity:1; 
stroke-linecap:round; stroke-linejoin:round;">
<polyline fill="none;"
points="45500,41000
47500,41000
" /> 
</g>
<g style="fill:#840000; fill-opacity:0.0; 
stroke:#840000; stroke-width:100; stroke-opacity:1; 
stroke-linecap:round; stroke-linejoin:round;">
<polyline fill="none;"
points="45000,41500
48000,41500
" /> 
</g>
<g style="fill:#840000; fill-opacity:0.0; 
stroke:#840000; stroke-width:60; stroke-opacity:1; 
stroke-linecap:round; stroke-linejoin:round;">
<polyline fill="none;"
points="45500,42500
45500,41500
" /> 
<polyline fill="none;"
points="47500,42500
47500,41500
" /> 
</g>
<g style="fill:#840000; fill-opacity:0.0; 
stroke:#840000; stroke-width:80; stroke-opacity:1; 
stroke-linecap:round; stroke-linejoin:round;">
<polyline fill="none;"
points="45500,42500
46500,42500
46500,42000
" /> 
<polyline fill="none;"
points="46800,42000
46200,42000
46500,41500
46800,42000
46800,42000
" /> 
</g>
<g style="fill:#840000; fill-opacity:0.0; 
stroke:#840000; stroke-width:60; stroke-opacity:1; 
stroke-linecap:round; stroke-linejoin:round;">
<path d="M47500 42500
L48500 42500
" />
</g>
<g style="fill:#008484; fill-opacity:0.0; 
stroke:#008484; stroke-width:60; stroke-opacity:1; 
stroke-linecap:round; stroke-linejoin:round;">
<path d="M47900 42380
L47900 41980
L47990 41980
L48050 42000
L48090 42040
L48100 42080
L48120 42150
L48120 42210
L48100 42290
L48090 42320
L48050 42360
L47990 42380
L47900 42380
" />
</g>
<g style="fill:#840000; fill-opacity:0.0; 
stroke:#840000; stroke-width:60; stroke-opacity:1; 
stroke-linecap:round; stroke-linejoin:round;">
<path d="M46500 41000
L46500 39500
" />
</g>
<g style="fill:#008484; fill-opacity:0.0; 
stroke:#008484; stroke-width:60; stroke-opacity:1; 
stroke-linecap:round; stroke-linejoin:round;">
<path d="M46000 40150
L45980 40180
L45980 40240
L46000 40300
L46040 40340
L46080 40350
L46150 40370
L46210 40370
L46290 40350
L46320 40340
L46360 40300
L46380 40240
L46380 40200
L46360 40150
L46340 40130
L46210 40130
L46210 40200
" />
</g>
<g style="fill:#840000; fill-opacity:0.0; 
stroke:#840000; stroke-width:60; stroke-opacity:1; 
stroke-linecap:round; stroke-linejoin:round;">
<path d="M45500 42500
L44500 42500
" />
</g>
<g style="fill:#008484; fill-opacity:0.0; 
stroke:#008484; stroke-width:60; stroke-opacity:1; 
stroke-linecap:round; stroke-linejoin:round;">
<path d="M44890 42360
L44940 42380
L45040 42380
L45080 42360
L45100 42340
L45110 42300
L45110 42270
L45100 42230
L45080 42210
L45040 42190
L44960 42170
L44920 42150
L44910 42130
L44890 42100
L44890 42060
L44910 42020
L44920 42000
L44960 41980
L45060 41980
L45110 42000
" />
<path d="M48490 41060
L48460 41110
L48400 41170
L48320 41260
L48290 41310
L48290 41370
" />
<path d="M48430 41340
L48400 41400
L48350 41460
L48230 41490
L48030 41490
L47920 41460
L47860 41400
L47830 41340
L47830 41230
L47860 41170
L47920 41110
L48030 41090
L48230 41090
L48350 41110
L48400 41170
L48430 41230
L48430 41340
" />
<path d="M48430 40510
L48430 40860
" />
<path d="M48430 40680
L47830 40680
L47920 40740
L47970 40800
L48000 40860
" />
<path d="M45230 41450
L44630 41450
L45060 41250
L44630 41050
L45230 41050
" />
<path d="M44630 40640
L44630 40530
L44660 40470
L44720 40410
L44830 40390
L45030 40390
L45150 40410
L45200 40470
L45230 40530
L45230 40640
L45200 40700
L45150 40760
L45030 40790
L44830 40790
L44720 40760
L44660 40700
L44630 40640
" />
<path d="M45200 40160
L45230 40070
L45230 39930
L45200 39870
L45170 39840
L45120 39810
L45060 39810
L45000 39840
L44970 39870
L44950 39930
L44920 40040
L44890 40100
L44860 40130
L44800 40160
L44750 40160
L44690 40130
L44660 40100
L44630 40040
L44630 39900
L44660 39810
" />
<path d="M44920 39360
L44920 39560
" />
<path d="M45230 39560
L44630 39560
L44630 39270
" />
<path d="M44920 39050
L44920 38850
" />
<path d="M45230 38760
L45230 39050
L44630 39050
L44630 38760
" />
<path d="M44630 38590
L44630 38250
" />
<path d="M45230 38420
L44630 38420
" />
<path d="M45290 38190
L45290 37730
" />
<path d="M45230 37590
L44630 37590
L45230 37240
L44630 37240
" />
</g>
<g style="fill:#008484; fill-opacity:0.0; 
stroke:#008484; stroke-width:0; stroke-opacity:1; 
stroke-linecap:round; stroke-linejoin:round;">
</g>
<g style="fill:#840000; fill-opacity:0.0; 
stroke:#840000; stroke-width:0; stroke-opacity:1; 
stroke-linecap:round; stroke-linejoin:round;">
</g>
<g style="fill:#840000; fill-opacity:0.0; 
stroke:#840000; stroke-width:60; stroke-opacity:1; 
stroke-linecap:round; stroke-linejoin:round;">
<rect x="68000" y="42000" width="2000" height="4000" rx="0" />
<circle cx="67750" cy="42500" r="250" /> 
<path d="M67500 42500
L65500 42500
" />
<path d="M66890 42380
L66610 42380
" />
<path d="M66750 42380
L66750 41880
L66700 41950
L66650 42000
L66610 42020
" />
<circle cx="67750" cy="43500" r="250" /> 
<path d="M67500 43500
L65500 43500
" />
<path d="M66610 42920
L66630 42900
L66680 42880
L66800 42880
L66840 42900
L66870 42920
L66890 42970
L66890 43020
L66870 43090
L66580 43380
L66890 43380
" />
<circle cx="67750" cy="44500" r="250" /> 
<path d="M67500 44500
L65500 44500
" />
<path d="M66580 43880
L66890 43880
L66720 44070
L66800 44070
L66840 44090
L66870 44110
L66890 44160
L66890 44280
L66870 44330
L66840 44350
L66800 44380
L66650 44380
L66610 44350
L66580 44330
" />
<circle cx="67750" cy="45500" r="250" /> 
<path d="M67500 45500
L65500 45500
" />
<path d="M66840 45040
L66840 45380
" />
<path d="M66720 44850
L66610 45210
L66910 45210
" />
</g>
<g style="fill:#008484; fill-opacity:0.0; 
stroke:#008484; stroke-width:60; stroke-opacity:1; 
stroke-linecap:round; stroke-linejoin:round;">
<path d="M68760 44370
L68260 44370
L68260 44180
L68280 44130
L68300 44110
L68350 44090
L68420 44090
L68470 44110
L68490 44130
L68520 44180
L68520 44370
" />
<path d="M68300 43890
L68280 43870
L68260 43820
L68260 43700
L68280 43660
L68300 43630
L68350 43610
L68400 43610
L68470 43630
L68760 43920
L68760 43610
" />
<path d="M69710 45060
L69730 45080
L69760 45150
L69760 45200
L69730 45270
L69680 45320
L69640 45340
L69540 45360
L69470 45360
L69380 45340
L69330 45320
L69280 45270
L69260 45200
L69260 45150
L69280 45080
L69300 45060
" />
<path d="M69260 44750
L69260 44650
L69280 44600
L69330 44560
L69420 44530
L69590 44530
L69680 44560
L69730 44600
L69760 44650
L69760 44750
L69730 44790
L69680 44840
L69590 44860
L69420 44860
L69330 44840
L69280 44790
L69260 44750
" />
<path d="M69760 44320
L69260 44320
L69760 44040
L69260 44040
" />
<path d="M69760 43800
L69260 43800
L69760 43520
L69260 43520
" />
<path d="M69800 43400
L69800 43020
" />
<path d="M69420 42690
L69760 42690
" />
<path d="M69230 42810
L69590 42920
L69590 42620
" />
</g>
<g style="fill:#008400; fill-opacity:0.0; 
stroke:#008400; stroke-width:60; stroke-opacity:1; 
stroke-linecap:round; stroke-linejoin:round;">
<path d="M38500 42500
L40500 42500
" />
<path d="M65000 42500
L65500 42500
" />
<path d="M38500 44500
L44500 44500
" />
<path d="M48500 44500
L65500 44500
" />
<path d="M44500 44500
L44500 42500
" />
<path d="M48500 44500
L48500 42500
" />
<path d="M46500 36000
L46500 39500
" />
</g>
<g style="fill:#008400; fill-opacity:0.0; 
stroke:#008400; stroke-width:0; stroke-opacity:1; 
stroke-linecap:round; stroke-linejoin:round;">
</g>
<g style="fill:#840000; fill-opacity:0.0; 
stroke:#840000; stroke-width:0; stroke-opacity:1; 
stroke-linecap:round; stroke-linejoin:round;">
</g>
<g style="fill:#840000; fill-opacity:0.0; 
stroke:#840000; stroke-width:120; stroke-opacity:1; 
stroke-linecap:round; stroke-linejoin:round;">
<rect x="42600" y="38000" width="800" height="3000" rx="0" />
</g>
<g style="fill:#840000; fill-opacity:0.0; 
stroke:#840000; stroke-width:60; stroke-opacity:1; 
stroke-linecap:round; stroke-linejoin:round;">
<path d="M43000 38000
L43000 37000
" />
<path d="M43000 41000
L43000 42000
" />
</g>
<g style="fill:#008484; fill-opacity:0.0; 
stroke:#008484; stroke-width:60; stroke-opacity:1; 
stroke-linecap:round; stroke-linejoin:round;">
<path d="M44010 39570
L43820 39700
" />
<path d="M44010 39790
L43610 39790
L43610 39640
L43630 39600
L43650 39590
L43690 39570
L43740 39570
L43780 39590
L43800 39600
L43820 39640
L43820 39790
" />
<path d="M44010 39190
L44010 39410
" />
<path d="M44010 39300
L43610 39300
L43670 39340
L43710 39380
L43730 39410
" />
<path d="M43280 39370
L43090 39500
" />
<path d="M43280 39590
L42880 39590
L42880 39440
L42900 39400
L42920 39390
L42960 39370
L43010 39370
L43050 39390
L43070 39400
L43090 39440
L43090 39590
" />
</g>
<g style="fill:#008400; fill-opacity:0.0; 
stroke:#008400; stroke-width:60; stroke-opacity:1; 
stroke-linecap:round; stroke-linejoin:round;">
<path d="M43000 42000
L43000 44500
" />
</g>
<g style="fill:#008400; fill-opacity:0.0; 
stroke:#008400; stroke-width:0; stroke-opacity:1; 
stroke-linecap:round; stroke-linejoin:round;">
</g>
<g style="fill:#008400; fill-opacity:1.0; 
stroke:#008400; stroke-width:100; stroke-opacity:1; 
stroke-linecap:round; stroke-linejoin:round;">
<circle cx="43000" cy="44500" r="200" /> 
</g>
<g style="fill:#008400; fill-opacity:1.0; 
stroke:#008400; stroke-width:60; stroke-opacity:1; 
stroke-linecap:round; stroke-linejoin:round;">
</g>
<g style="fill:#008400; fill-opacity:0.0; 
stroke:#008400; stroke-width:60; stroke-opacity:1; 
stroke-linecap:round; stroke-linejoin:round;">
<path d="M38500 45500
L56000 45500
" />
<path d="M60000 45500
L65500 45500
" />
</g>
<g style="fill:#008400; fill-opacity:0.0; 
stroke:#008400; stroke-width:0; stroke-opacity:1; 
stroke-linecap:round; stroke-linejoin:round;">
</g>
<g style="fill:#008400; fill-opacity:1.0; 
stroke:#008400; stroke-width:100; stroke-opacity:1; 
stroke-linecap:round; stroke-linejoin:round;">
<circle cx="46500" cy="36000" r="200" /> 
</g>
<g style="fill:#008400; fill-opacity:1.0; 
stroke:#008400; stroke-width:60; stroke-opacity:1; 
stroke-linecap:round; stroke-linejoin:round;">
</g>
<g style="fill:#008400; fill-opacity:0.0; 
stroke:#008400; stroke-width:60; stroke-opacity:1; 
stroke-linecap:round; stroke-linejoin:round;">
<path d="M58000 36000
L58000 39500
" />
<path d="M56000 45500
L56000 42500
" />
</g>
<g style="fill:#008400; fill-opacity:0.0; 
stroke:#008400; stroke-width:0; stroke-opacity:1; 
stroke-linecap:round; stroke-linejoin:round;">
</g>
<g style="fill:#840000; fill-opacity:0.0; 
stroke:#840000; stroke-width:0; stroke-opacity:1; 
stroke-linecap:round; stroke-linejoin:round;">
</g>
<g style="fill:#840000; fill-opacity:0.0; 
stroke:#840000; stroke-width:120; stroke-opacity:1; 
stroke-linecap:round; stroke-linejoin:round;">
<rect x="50100" y="38000" width="800" height="3000" rx="0" />
</g>
<g style="fill:#840000; fill-opacity:0.0; 
stroke:#840000; stroke-width:60; stroke-opacity:1; 
stroke-linecap:round; stroke-linejoin:round;">
<path d="M50500 38000
L50500 37000
" />
<path d="M50500 41000
L50500 42000
" />
</g>
<g style="fill:#008484; fill-opacity:0.0; 
stroke:#008484; stroke-width:60; stroke-opacity:1; 
stroke-linecap:round; stroke-linejoin:round;">
<path d="M51510 39570
L51320 39700
" />
<path d="M51510 39790
L51110 39790
L51110 39640
L51130 39600
L51150 39590
L51190 39570
L51240 39570
L51280 39590
L51300 39600
L51320 39640
L51320 39790
" />
<path d="M51150 39410
L51130 39390
L51110 39360
L51110 39260
L51130 39220
L51150 39200
L51190 39190
L51230 39190
L51280 39200
L51510 39430
L51510 39190
" />
<path d="M50780 39370
L50590 39500
" />
<path d="M50780 39590
L50380 39590
L50380 39440
L50400 39400
L50420 39390
L50460 39370
L50510 39370
L50550 39390
L50570 39400
L50590 39440
L50590 39590
" />
</g>
<g style="fill:#008484; fill-opacity:0.0; 
stroke:#008484; stroke-width:0; stroke-opacity:1; 
stroke-linecap:round; stroke-linejoin:round;">
</g>
<g style="fill:#840000; fill-opacity:0.0; 
stroke:#840000; stroke-width:0; stroke-opacity:1; 
stroke-linecap:round; stroke-linejoin:round;">
</g>
<g style="fill:#840000; fill-opacity:0.0; 
stroke:#840000; stroke-width:120; stroke-opacity:1; 
stroke-linecap:round; stroke-linejoin:round;">
<rect x="53100" y="38000" width="800" height="3000" rx="0" />
</g>
<g style="fill:#840000; fill-opacity:0.0; 
stroke:#840000; stroke-width:60; stroke-opacity:1; 
stroke-linecap:round; stroke-linejoin:round;">
<path d="M53500 38000
L53500 37000
" />
<path d="M53500 41000
L53500 42000
" />
</g>
<g style="fill:#008484; fill-opacity:0.0; 
stroke:#008484; stroke-width:60; stroke-opacity:1; 
stroke-linecap:round; stroke-linejoin:round;">
<path d="M54510 39570
L54320 39700
" />
<path d="M54510 39790
L54110 39790
L54110 39640
L54130 39600
L54150 39590
L54190 39570
L54240 39570
L54280 39590
L54300 39600
L54320 39640
L54320 39790
" />
<path d="M54110 39430
L54110 39190
L54260 39320
L54260 39260
L54280 39220
L54300 39200
L54340 39190
L54430 39190
L54470 39200
L54490 39220
L54510 39260
L54510 39380
L54490 39410
L54470 39430
" />
<path d="M53780 39370
L53590 39500
" />
<path d="M53780 39590
L53380 39590
L53380 39440
L53400 39400
L53420 39390
L53460 39370
L53510 39370
L53550 39390
L53570 39400
L53590 39440
L53590 39590
" />
</g>
<g style="fill:#008400; fill-opacity:0.0; 
stroke:#008400; stroke-width:60; stroke-opacity:1; 
stroke-linecap:round; stroke-linejoin:round;">
<path d="M60000 42500
L60000 45500
" />
<path d="M43000 36000
L43000 37000
" />
</g>
<g style="fill:#008400; fill-opacity:0.0; 
stroke:#008400; stroke-width:0; stroke-opacity:1; 
stroke-linecap:round; stroke-linejoin:round;">
</g>
<g style="fill:#008400; fill-opacity:1.0; 
stroke:#008400; stroke-width:100; stroke-opacity:1; 
stroke-linecap:round; stroke-linejoin:round;">
<circle cx="43000" cy="36000" r="200" /> 
</g>
<g style="fill:#008400; fill-opacity:1.0; 
stroke:#008400; stroke-width:60; stroke-opacity:1; 
stroke-linecap:round; stroke-linejoin:round;">
</g>
<g style="fill:#008400; fill-opacity:0.0; 
stroke:#008400; stroke-width:60; stroke-opacity:1; 
stroke-linecap:round; stroke-linejoin:round;">
<path d="M50500 37000
L50500 35000
" />
<path d="M50500 35000
L65000 35000
" />
<path d="M50500 42000
L50500 44500
" />
</g>
<g style="fill:#008400; fill-opacity:0.0; 
stroke:#008400; stroke-width:0; stroke-opacity:1; 
stroke-linecap:round; stroke-linejoin:round;">
</g>
<g style="fill:#008400; fill-opacity:1.0; 
stroke:#008400; stroke-width:100; stroke-opacity:1; 
stroke-linecap:round; stroke-linejoin:round;">
<circle cx="50500" cy="44500" r="200" /> 
</g>
<g style="fill:#008400; fill-opacity:1.0; 
stroke:#008400; stroke-width:60; stroke-opacity:1; 
stroke-linecap:round; stroke-linejoin:round;">
</g>
<g style="fill:#008400; fill-opacity:0.0; 
stroke:#008400; stroke-width:60; stroke-opacity:1; 
stroke-linecap:round; stroke-linejoin:round;">
<path d="M53500 45500
L53500 42000
" />
</g>
<g style="fill:#008400; fill-opacity:0.0; 
stroke:#008400; stroke-width:0; stroke-opacity:1; 
stroke-linecap:round; stroke-linejoin:round;">
</g>
<g style="fill:#008400; fill-opacity:1.0; 
stroke:#008400; stroke-width:100; stroke-opacity:1; 
stroke-linecap:round; stroke-linejoin:round;">
<circle cx="53500" cy="45500" r="200" /> 
</g>
<g style="fill:#008400; fill-opacity:1.0; 
stroke:#008400; stroke-width:60; stroke-opacity:1; 
stroke-linecap:round; stroke-linejoin:round;">
</g>
<g style="fill:#008400; fill-opacity:0.0; 
stroke:#008400; stroke-width:60; stroke-opacity:1; 
stroke-linecap:round; stroke-linejoin:round;">
<path d="M53500 36000
L53500 37000
" />
</g>
<g style="fill:#008400; fill-opacity:0.0; 
stroke:#008400; stroke-width:0; stroke-opacity:1; 
stroke-linecap:round; stroke-linejoin:round;">
</g>
<g style="fill:#008400; fill-opacity:1.0; 
stroke:#008400; stroke-width:100; stroke-opacity:1; 
stroke-linecap:round; stroke-linejoin:round;">
<circle cx="53500" cy="36000" r="200" /> 
</g>
<g style="fill:#008400; fill-opacity:1.0; 
stroke:#008400; stroke-width:0; stroke-opacity:1; 
stroke-linecap:round; stroke-linejoin:round;">
</g>
<g style="fill:#840000; fill-opacity:1.0; 
stroke:#840000; stroke-width:0; stroke-opacity:1; 
stroke-linecap:round; stroke-linejoin:round;">
</g>
<g style="fill:#840000; fill-opacity:0.0; 
stroke:#840000; stroke-width:120; stroke-opacity:1; 
stroke-linecap:round; stroke-linejoin:round;">
<rect x="61100" y="38000" width="800" height="3000" rx="0" />
</g>
<g style="fill:#840000; fill-opacity:0.0; 
stroke:#840000; stroke-width:60; stroke-opacity:1; 
stroke-linecap:round; stroke-linejoin:round;">
<path d="M61500 38000
L61500 37000
" />
<path d="M61500 41000
L61500 42000
" />
</g>
<g style="fill:#008484; fill-opacity:0.0; 
stroke:#008484; stroke-width:60; stroke-opacity:1; 
stroke-linecap:round; stroke-linejoin:round;">
<path d="M62510 39570
L62320 39700
" />
<path d="M62510 39790
L62110 39790
L62110 39640
L62130 39600
L62150 39590
L62190 39570
L62240 39570
L62280 39590
L62300 39600
L62320 39640
L62320 39790
" />
<path d="M62240 39220
L62510 39220
" />
<path d="M62090 39320
L62380 39410
L62380 39170
" />
<path d="M61780 39370
L61590 39500
" />
<path d="M61780 39590
L61380 39590
L61380 39440
L61400 39400
L61420 39390
L61460 39370
L61510 39370
L61550 39390
L61570 39400
L61590 39440
L61590 39590
" />
</g>
<g style="fill:#008400; fill-opacity:0.0; 
stroke:#008400; stroke-width:60; stroke-opacity:1; 
stroke-linecap:round; stroke-linejoin:round;">
<path d="M61500 45500
L61500 42000
" />
</g>
<g style="fill:#008400; fill-opacity:0.0; 
stroke:#008400; stroke-width:0; stroke-opacity:1; 
stroke-linecap:round; stroke-linejoin:round;">
</g>
<g style="fill:#008400; fill-opacity:1.0; 
stroke:#008400; stroke-width:100; stroke-opacity:1; 
stroke-linecap:round; stroke-linejoin:round;">
<circle cx="61500" cy="45500" r="200" /> 
</g>
<g style="fill:#008400; fill-opacity:1.0; 
stroke:#008400; stroke-width:60; stroke-opacity:1; 
stroke-linecap:round; stroke-linejoin:round;">
</g>
<g style="fill:#008400; fill-opacity:0.0; 
stroke:#008400; stroke-width:60; stroke-opacity:1; 
stroke-linecap:round; stroke-linejoin:round;">
<path d="M61500 37000
L61500 35000
" />
</g>
<g style="fill:#008400; fill-opacity:0.0; 
stroke:#008400; stroke-width:0; stroke-opacity:1; 
stroke-linecap:round; stroke-linejoin:round;">
</g>
<g style="fill:#008400; fill-opacity:1.0; 
stroke:#008400; stroke-width:100; stroke-opacity:1; 
stroke-linecap:round; stroke-linejoin:round;">
<circle cx="61500" cy="35000" r="200" /> 
</g>
<g style="fill:#008400; fill-opacity:1.0; 
stroke:#008400; stroke-width:60; stroke-opacity:1; 
stroke-linecap:round; stroke-linejoin:round;">
</g>
<g style="fill:#008400; fill-opacity:0.0; 
stroke:#008400; stroke-width:60; stroke-opacity:1; 
stroke-linecap:round; stroke-linejoin:round;">
<path d="M40500 36000
L58000 36000
" />
<path d="M40500 42500
L40500 36000
" />
</g>
<g style="fill:#0000C2; fill-opacity:0.0; 
stroke:#0000C2; stroke-width:60; stroke-opacity:1; 
stroke-linecap:round; stroke-linejoin:round;">
<path d="M71430 42370
L71140 42370
L71110 42660
L71140 42630
L71200 42600
L71340 42600
L71400 42630
L71430 42660
L71460 42710
L71460 42860
L71430 42910
L71400 42940
L71340 42970
L71200 42970
L71140 42940
L71110 42910
" />
<path d="M71630 42370
L71830 42970
L72030 42370
" />
<path d="M71460 43400
L71400 43370
L71310 43370
L71230 43400
L71170 43460
L71140 43510
L71110 43630
L71110 43710
L71140 43830
L71170 43890
L71230 43940
L71310 43970
L71370 43970
L71460 43940
L71490 43910
L71490 43710
L71370 43710
" />
<path d="M71740 43970
L71740 43370
L72090 43970
L72090 43370
" />
<path d="M72370 43970
L72370 43370
L72520 43370
L72600 43400
L72660 43460
L72690 43510
L72720 43630
L72720 43710
L72690 43830
L72660 43890
L72600 43940
L72520 43970
L72370 43970
" />
<path d="M71110 44940
L71200 44970
L71340 44970
L71400 44940
L71430 44910
L71460 44860
L71460 44800
L71430 44740
L71400 44710
L71340 44690
L71230 44660
L71170 44630
L71140 44600
L71110 44540
L71110 44490
L71140 44430
L71170 44400
L71230 44370
L71370 44370
L71460 44400
" />
<path d="M71710 44970
L71710 44370
L71860 44370
L71940 44400
L72000 44460
L72030 44510
L72060 44630
L72060 44710
L72030 44830
L72000 44890
L71940 44940
L71860 44970
L71710 44970
" />
<path d="M72280 44800
L72570 44800
" />
<path d="M72230 44970
L72430 44370
L72630 44970
" />
<path d="M71110 45940
L71200 45970
L71340 45970
L71400 45940
L71430 45910
L71460 45860
L71460 45800
L71430 45740
L71400 45710
L71340 45690
L71230 45660
L71170 45630
L71140 45600
L71110 45540
L71110 45490
L71140 45430
L71170 45400
L71230 45370
L71370 45370
L71460 45400
" />
<path d="M72060 45910
L72030 45940
L71940 45970
L71880 45970
L71800 45940
L71740 45890
L71710 45830
L71680 45710
L71680 45630
L71710 45510
L71740 45460
L71800 45400
L71880 45370
L71940 45370
L72030 45400
L72060 45430
" />
<path d="M72600 45970
L72310 45970
L72310 45370
" />
</g>
<g style="fill:#0000C2; fill-opacity:0.0; 
stroke:#0000C2; stroke-width:0; stroke-opacity:1; 
stroke-linecap:round; stroke-linejoin:round;">
</g>
<g style="fill:#840000; fill-opacity:0.0; 
stroke:#840000; stroke-width:0; stroke-opacity:1; 
stroke-linecap:round; stroke-linejoin:round;">
</g>
<g style="fill:#840000; fill-opacity:0.0; 
stroke:#840000; stroke-width:60; stroke-opacity:1; 
stroke-linecap:round; stroke-linejoin:round;">
<path d="M42500 9000
L42500 9000
" />
<polyline fill="none;"
points="42500,9000
42500,8500
41750,8000
42500,7500
43250,8000
42500,8500
" /> 
</g>
<g style="fill:#008484; fill-opacity:0.0; 
stroke:#008484; stroke-width:60; stroke-opacity:1; 
stroke-linecap:round; stroke-linejoin:round;">
</g>
<g style="fill:#008484; fill-opacity:0.0; 
stroke:#008484; stroke-width:50; stroke-opacity:1; 
stroke-linecap:round; stroke-linejoin:round;">
<path d="M41460 7370
L41460 7070
L41580 7070
L41600 7080
L41620 7090
L41630 7120
L41630 7170
L41620 7190
L41600 7210
L41580 7220
L41460 7220
" />
<path d="M41730 7070
L41800 7370
L41860 7150
L41920 7370
L41990 7070
" />
<path d="M42270 7370
L42170 7220
" />
<path d="M42100 7370
L42100 7070
L42220 7070
L42240 7080
L42260 7090
L42270 7120
L42270 7170
L42260 7190
L42240 7210
L42220 7220
L42100 7220
" />
<path d="M42330 7390
L42560 7390
" />
<path d="M42730 7210
L42630 7210
" />
<path d="M42630 7370
L42630 7070
L42770 7070
" />
<path d="M43030 7370
L42890 7370
L42890 7070
" />
<path d="M43120 7280
L43260 7280
" />
<path d="M43090 7370
L43190 7070
L43290 7370
" />
<path d="M43550 7080
L43520 7070
L43480 7070
L43430 7080
L43410 7110
L43390 7140
L43380 7190
L43380 7240
L43390 7290
L43410 7320
L43430 7350
L43480 7370
L43510 7370
L43550 7350
L43560 7340
L43560 7240
L43510 7240
" />
</g>
<g style="fill:#008484; fill-opacity:0.0; 
stroke:#008484; stroke-width:0; stroke-opacity:1; 
stroke-linecap:round; stroke-linejoin:round;">
</g>
<g style="fill:#840000; fill-opacity:0.0; 
stroke:#840000; stroke-width:0; stroke-opacity:1; 
stroke-linecap:round; stroke-linejoin:round;">
</g>
<g style="fill:#840000; fill-opacity:0.0; 
stroke:#840000; stroke-width:60; stroke-opacity:1; 
stroke-linecap:round; stroke-linejoin:round;">
<path d="M45500 9000
L45500 9000
" />
<polyline fill="none;"
points="45500,9000
45500,8500
44750,8000
45500,7500
46250,8000
45500,8500
" /> 
</g>
<g style="fill:#008484; fill-opacity:0.0; 
stroke:#008484; stroke-width:60; stroke-opacity:1; 
stroke-linecap:round; stroke-linejoin:round;">
</g>
<g style="fill:#008484; fill-opacity:0.0; 
stroke:#008484; stroke-width:50; stroke-opacity:1; 
stroke-linecap:round; stroke-linejoin:round;">
<path d="M44460 7370
L44460 7070
L44580 7070
L44600 7080
L44620 7090
L44630 7120
L44630 7170
L44620 7190
L44600 7210
L44580 7220
L44460 7220
" />
<path d="M44730 7070
L44800 7370
L44860 7150
L44920 7370
L44990 7070
" />
<path d="M45270 7370
L45170 7220
" />
<path d="M45100 7370
L45100 7070
L45220 7070
L45240 7080
L45260 7090
L45270 7120
L45270 7170
L45260 7190
L45240 7210
L45220 7220
L45100 7220
" />
<path d="M45330 7390
L45560 7390
" />
<path d="M45730 7210
L45630 7210
" />
<path d="M45630 7370
L45630 7070
L45770 7070
" />
<path d="M46030 7370
L45890 7370
L45890 7070
" />
<path d="M46120 7280
L46260 7280
" />
<path d="M46090 7370
L46190 7070
L46290 7370
" />
<path d="M46550 7080
L46520 7070
L46480 7070
L46430 7080
L46410 7110
L46390 7140
L46380 7190
L46380 7240
L46390 7290
L46410 7320
L46430 7350
L46480 7370
L46510 7370
L46550 7350
L46560 7340
L46560 7240
L46510 7240
" />
</g>
<g style="fill:#008484; fill-opacity:0.0; 
stroke:#008484; stroke-width:0; stroke-opacity:1; 
stroke-linecap:round; stroke-linejoin:round;">
</g>
<g style="fill:#840000; fill-opacity:0.0; 
stroke:#840000; stroke-width:0; stroke-opacity:1; 
stroke-linecap:round; stroke-linejoin:round;">
</g>
<g style="fill:#840000; fill-opacity:0.0; 
stroke:#840000; stroke-width:60; stroke-opacity:1; 
stroke-linecap:round; stroke-linejoin:round;">
<circle cx="42500" cy="10600" r="200" /> 
<polyline fill="none;"
points="42500,10000
42500,10400
42500,10400
" /> 
</g>
<g style="fill:#008484; fill-opacity:0.0; 
stroke:#008484; stroke-width:60; stroke-opacity:1; 
stroke-linecap:round; stroke-linejoin:round;">
</g>
<g style="fill:#008484; fill-opacity:0.0; 
stroke:#008484; stroke-width:50; stroke-opacity:1; 
stroke-linecap:round; stroke-linejoin:round;">
<path d="M41890 11090
L42120 11090
" />
<path d="M42010 11210
L42010 10980
" />
<path d="M42230 10910
L42420 10910
L42320 11020
L42360 11020
L42390 11030
L42400 11050
L42420 11080
L42420 11150
L42400 11180
L42390 11190
L42360 11210
L42280 11210
L42250 11190
L42230 11180
" />
<path d="M42550 11180
L42570 11190
L42550 11210
L42540 11190
L42550 11180
L42550 11210
" />
<path d="M42660 10910
L42850 10910
L42750 11020
L42790 11020
L42820 11030
L42830 11050
L42850 11080
L42850 11150
L42830 11180
L42820 11190
L42790 11210
L42710 11210
L42680 11190
L42660 11180
" />
<path d="M42940 10910
L43040 11210
L43140 10910
" />
</g>
<g style="fill:#008484; fill-opacity:0.0; 
stroke:#008484; stroke-width:0; stroke-opacity:1; 
stroke-linecap:round; stroke-linejoin:round;">
</g>
<g style="fill:#840000; fill-opacity:0.0; 
stroke:#840000; stroke-width:0; stroke-opacity:1; 
stroke-linecap:round; stroke-linejoin:round;">
</g>
<g style="fill:#840000; fill-opacity:0.0; 
stroke:#840000; stroke-width:60; stroke-opacity:1; 
stroke-linecap:round; stroke-linejoin:round;">
<polyline fill="none;"
points="45000,10500
45500,11000
46000,10500
45000,10500
" /> 
</g>
<g style="fill:#008400; fill-opacity:0.0; 
stroke:#008400; stroke-width:60; stroke-opacity:1; 
stroke-linecap:round; stroke-linejoin:round;">
<path d="M42500 9000
L42500 10000
" />
<path d="M45500 9000
L45500 10500
" />
</g>
<g style="fill:#008400; fill-opacity:0.0; 
stroke:#008400; stroke-width:0; stroke-opacity:1; 
stroke-linecap:round; stroke-linejoin:round;">
</g>
<g style="fill:#840000; fill-opacity:0.0; 
stroke:#840000; stroke-width:0; stroke-opacity:1; 
stroke-linecap:round; stroke-linejoin:round;">
</g>
<g style="fill:#840000; fill-opacity:0.0; 
stroke:#840000; stroke-width:60; stroke-opacity:1; 
stroke-linecap:round; stroke-linejoin:round;">
<path d="M48000 9000
L48000 9000
" />
<polyline fill="none;"
points="48000,9000
48000,8500
47250,8000
48000,7500
48750,8000
48000,8500
" /> 
</g>
<g style="fill:#008484; fill-opacity:0.0; 
stroke:#008484; stroke-width:60; stroke-opacity:1; 
stroke-linecap:round; stroke-linejoin:round;">
</g>
<g style="fill:#008484; fill-opacity:0.0; 
stroke:#008484; stroke-width:50; stroke-opacity:1; 
stroke-linecap:round; stroke-linejoin:round;">
<path d="M46960 7370
L46960 7070
L47080 7070
L47100 7080
L47120 7090
L47130 7120
L47130 7170
L47120 7190
L47100 7210
L47080 7220
L46960 7220
" />
<path d="M47230 7070
L47300 7370
L47360 7150
L47420 7370
L47490 7070
" />
<path d="M47770 7370
L47670 7220
" />
<path d="M47600 7370
L47600 7070
L47720 7070
L47740 7080
L47760 7090
L47770 7120
L47770 7170
L47760 7190
L47740 7210
L47720 7220
L47600 7220
" />
<path d="M47830 7390
L48060 7390
" />
<path d="M48230 7210
L48130 7210
" />
<path d="M48130 7370
L48130 7070
L48270 7070
" />
<path d="M48530 7370
L48390 7370
L48390 7070
" />
<path d="M48620 7280
L48760 7280
" />
<path d="M48590 7370
L48690 7070
L48790 7370
" />
<path d="M49050 7080
L49020 7070
L48980 7070
L48930 7080
L48910 7110
L48890 7140
L48880 7190
L48880 7240
L48890 7290
L48910 7320
L48930 7350
L48980 7370
L49010 7370
L49050 7350
L49060 7340
L49060 7240
L49010 7240
" />
</g>
<g style="fill:#008484; fill-opacity:0.0; 
stroke:#008484; stroke-width:0; stroke-opacity:1; 
stroke-linecap:round; stroke-linejoin:round;">
</g>
<g style="fill:#840000; fill-opacity:0.0; 
stroke:#840000; stroke-width:0; stroke-opacity:1; 
stroke-linecap:round; stroke-linejoin:round;">
</g>
<g style="fill:#840000; fill-opacity:0.0; 
stroke:#840000; stroke-width:60; stroke-opacity:1; 
stroke-linecap:round; stroke-linejoin:round;">
<polyline fill="none;"
points="48300,10500
48000,11000
" /> 
<polyline fill="none;"
points="48000,10000
48000,11000
" /> 
<polyline fill="none;"
points="48000,11000
47700,10500
" /> 
</g>
<g style="fill:#008484; fill-opacity:0.0; 
stroke:#008484; stroke-width:60; stroke-opacity:1; 
stroke-linecap:round; stroke-linejoin:round;">
</g>
<g style="fill:#008484; fill-opacity:0.0; 
stroke:#008484; stroke-width:50; stroke-opacity:1; 
stroke-linecap:round; stroke-linejoin:round;">
<path d="M47610 10890
L47840 10890
" />
<path d="M47730 11010
L47730 10780
" />
<path d="M48120 10710
L47980 10710
L47970 10850
L47980 10830
L48010 10820
L48080 10820
L48110 10830
L48120 10850
L48140 10880
L48140 10950
L48120 10980
L48110 10990
L48080 11010
L48010 11010
L47980 10990
L47970 10980
" />
<path d="M48230 10710
L48330 11010
L48430 10710
" />
</g>
<g style="fill:#008484; fill-opacity:0.0; 
stroke:#008484; stroke-width:60; stroke-opacity:1; 
stroke-linecap:round; stroke-linejoin:round;">
</g>
<g style="fill:#008400; fill-opacity:0.0; 
stroke:#008400; stroke-width:60; stroke-opacity:1; 
stroke-linecap:round; stroke-linejoin:round;">
<path d="M48000 9000
L48000 10000
" />
<path d="M65000 35000
L65000 42500
" />
</g>
<g style="fill:#008400; fill-opacity:0.0; 
stroke:#008400; stroke-width:0; stroke-opacity:1; 
stroke-linecap:round; stroke-linejoin:round;">
</g>
<g style="fill:#840000; fill-opacity:0.0; 
stroke:#840000; stroke-width:0; stroke-opacity:1; 
stroke-linecap:round; stroke-linejoin:round;">
</g>
<g style="fill:#840000; fill-opacity:0.0; 
stroke:#840000; stroke-width:60; stroke-opacity:1; 
stroke-linecap:round; stroke-linejoin:round;">
<rect x="34000" y="42000" width="2000" height="4000" rx="0" />
<circle cx="36250" cy="42500" r="250" /> 
<path d="M36500 42500
L38500 42500
" />
<path d="M37390 42380
L37110 42380
" />
<path d="M37250 42380
L37250 41880
L37200 41950
L37150 42000
L37110 42020
" />
<circle cx="36250" cy="43500" r="250" /> 
<path d="M36500 43500
L38500 43500
" />
<path d="M37110 42920
L37130 42900
L37180 42880
L37300 42880
L37340 42900
L37370 42920
L37390 42970
L37390 43020
L37370 43090
L37080 43380
L37390 43380
" />
<circle cx="36250" cy="44500" r="250" /> 
<path d="M36500 44500
L38500 44500
" />
<path d="M37080 43880
L37390 43880
L37220 44070
L37300 44070
L37340 44090
L37370 44110
L37390 44160
L37390 44280
L37370 44330
L37340 44350
L37300 44380
L37150 44380
L37110 44350
L37080 44330
" />
<circle cx="36250" cy="45500" r="250" /> 
<path d="M36500 45500
L38500 45500
" />
<path d="M37340 45040
L37340 45380
" />
<path d="M37220 44850
L37110 45210
L37410 45210
" />
</g>
<g style="fill:#008484; fill-opacity:0.0; 
stroke:#008484; stroke-width:60; stroke-opacity:1; 
stroke-linecap:round; stroke-linejoin:round;">
<path d="M35690 44370
L35190 44370
L35190 44180
L35210 44130
L35230 44110
L35280 44090
L35350 44090
L35400 44110
L35420 44130
L35450 44180
L35450 44370
" />
<path d="M35690 43610
L35690 43890
" />
<path d="M35690 43750
L35190 43750
L35260 43800
L35310 43850
L35330 43890
" />
<path d="M34640 45060
L34660 45080
L34690 45150
L34690 45200
L34660 45270
L34610 45320
L34570 45340
L34470 45360
L34400 45360
L34310 45340
L34260 45320
L34210 45270
L34190 45200
L34190 45150
L34210 45080
L34230 45060
" />
<path d="M34190 44750
L34190 44650
L34210 44600
L34260 44560
L34350 44530
L34520 44530
L34610 44560
L34660 44600
L34690 44650
L34690 44750
L34660 44790
L34610 44840
L34520 44860
L34350 44860
L34260 44840
L34210 44790
L34190 44750
" />
<path d="M34690 44320
L34190 44320
L34690 44040
L34190 44040
" />
<path d="M34690 43800
L34190 43800
L34690 43520
L34190 43520
" />
<path d="M34730 43400
L34730 43020
" />
<path d="M34350 42690
L34690 42690
" />
<path d="M34160 42810
L34520 42920
L34520 42620
" />
</g>
<g style="fill:#008400; fill-opacity:0.0; 
stroke:#008400; stroke-width:60; stroke-opacity:1; 
stroke-linecap:round; stroke-linejoin:round;">
<path d="M38500 43500
L65500 43500
" />
</g>
<g style="fill:#0000C2; fill-opacity:0.0; 
stroke:#0000C2; stroke-width:60; stroke-opacity:1; 
stroke-linecap:round; stroke-linejoin:round;">
<path d="M31590 42370
L31960 42370
L31760 42600
L31840 42600
L31900 42630
L31930 42660
L31960 42710
L31960 42860
L31930 42910
L31900 42940
L31840 42970
L31670 42970
L31610 42940
L31590 42910
" />
<path d="M32210 42910
L32240 42940
L32210 42970
L32180 42940
L32210 42910
L32210 42970
" />
<path d="M32450 42370
L32820 42370
L32620 42600
L32700 42600
L32760 42630
L32790 42660
L32820 42710
L32820 42860
L32790 42910
L32760 42940
L32700 42970
L32530 42970
L32470 42940
L32450 42910
" />
<path d="M32990 42370
L33190 42970
L33390 42370
" />
<path d="M31960 43400
L31900 43370
L31810 43370
L31730 43400
L31670 43460
L31640 43510
L31610 43630
L31610 43710
L31640 43830
L31670 43890
L31730 43940
L31810 43970
L31870 43970
L31960 43940
L31990 43910
L31990 43710
L31870 43710
" />
<path d="M32240 43970
L32240 43370
L32590 43970
L32590 43370
" />
<path d="M32870 43970
L32870 43370
L33020 43370
L33100 43400
L33160 43460
L33190 43510
L33220 43630
L33220 43710
L33190 43830
L33160 43890
L33100 43940
L33020 43970
L32870 43970
" />
<path d="M31610 44940
L31700 44970
L31840 44970
L31900 44940
L31930 44910
L31960 44860
L31960 44800
L31930 44740
L31900 44710
L31840 44690
L31730 44660
L31670 44630
L31640 44600
L31610 44540
L31610 44490
L31640 44430
L31670 44400
L31730 44370
L31870 44370
L31960 44400
" />
<path d="M32210 44970
L32210 44370
L32360 44370
L32440 44400
L32500 44460
L32530 44510
L32560 44630
L32560 44710
L32530 44830
L32500 44890
L32440 44940
L32360 44970
L32210 44970
" />
<path d="M32780 44800
L33070 44800
" />
<path d="M32730 44970
L32930 44370
L33130 44970
" />
<path d="M31610 45940
L31700 45970
L31840 45970
L31900 45940
L31930 45910
L31960 45860
L31960 45800
L31930 45740
L31900 45710
L31840 45690
L31730 45660
L31670 45630
L31640 45600
L31610 45540
L31610 45490
L31640 45430
L31670 45400
L31730 45370
L31870 45370
L31960 45400
" />
<path d="M32560 45910
L32530 45940
L32440 45970
L32380 45970
L32300 45940
L32240 45890
L32210 45830
L32180 45710
L32180 45630
L32210 45510
L32240 45460
L32300 45400
L32380 45370
L32440 45370
L32530 45400
L32560 45430
" />
<path d="M33100 45970
L32810 45970
L32810 45370
" />
</g> 
</svg>
