G04 #@! TF.FileFunction,Legend,Top*
%FSLAX46Y46*%
G04 Gerber Fmt 4.6, Leading zero omitted, Abs format (unit mm)*
G04 Created by KiCad (PCBNEW 4.0.7) date 04/11/19 21:22:25*
%MOMM*%
%LPD*%
G01*
G04 APERTURE LIST*
%ADD10C,0.100000*%
%ADD11C,0.300000*%
%ADD12C,0.200000*%
%ADD13C,0.150000*%
G04 APERTURE END LIST*
D10*
D11*
X150201428Y-100778571D02*
X150487142Y-100778571D01*
X150630000Y-100850000D01*
X150772857Y-100992857D01*
X150844285Y-101278571D01*
X150844285Y-101778571D01*
X150772857Y-102064286D01*
X150630000Y-102207143D01*
X150487142Y-102278571D01*
X150201428Y-102278571D01*
X150058571Y-102207143D01*
X149915714Y-102064286D01*
X149844285Y-101778571D01*
X149844285Y-101278571D01*
X149915714Y-100992857D01*
X150058571Y-100850000D01*
X150201428Y-100778571D01*
X151487143Y-102278571D02*
X151487143Y-100778571D01*
X152344286Y-102278571D01*
X152344286Y-100778571D01*
X151828572Y-109327143D02*
X152971429Y-109327143D01*
X141668572Y-109327143D02*
X142811429Y-109327143D01*
X151828572Y-103612143D02*
X152971429Y-103612143D01*
X152400000Y-104183571D02*
X152400000Y-103040714D01*
X141668572Y-103612143D02*
X142811429Y-103612143D01*
X142240000Y-104183571D02*
X142240000Y-103040714D01*
D12*
X149320000Y-100680000D02*
X145320000Y-100680000D01*
X145320000Y-100680000D02*
X145320000Y-112680000D01*
X145320000Y-112680000D02*
X149320000Y-112680000D01*
X149320000Y-112680000D02*
X149320000Y-100680000D01*
D13*
X145986667Y-102084762D02*
X146129524Y-102132381D01*
X146367620Y-102132381D01*
X146462858Y-102084762D01*
X146510477Y-102037143D01*
X146558096Y-101941905D01*
X146558096Y-101846667D01*
X146510477Y-101751429D01*
X146462858Y-101703810D01*
X146367620Y-101656190D01*
X146177143Y-101608571D01*
X146081905Y-101560952D01*
X146034286Y-101513333D01*
X145986667Y-101418095D01*
X145986667Y-101322857D01*
X146034286Y-101227619D01*
X146081905Y-101180000D01*
X146177143Y-101132381D01*
X146415239Y-101132381D01*
X146558096Y-101180000D01*
X146891429Y-101132381D02*
X147129524Y-102132381D01*
X147320001Y-101418095D01*
X147510477Y-102132381D01*
X147748572Y-101132381D01*
X148653334Y-102132381D02*
X148081905Y-102132381D01*
X148367619Y-102132381D02*
X148367619Y-101132381D01*
X148272381Y-101275238D01*
X148177143Y-101370476D01*
X148081905Y-101418095D01*
M02*
