%MOIN*%
%OFA0B0*%
%FSLAX46Y46*%
%IPPOS*%
%LPD*%
%AMREC1810*
4,1,3,
0.03444881889763779,0.0344488188976378,
-0.0344488188976378,0.03444881889763779,
-0.03444881889763779,-0.0344488188976378,
0.0344488188976378,-0.03444881889763779,
0*%
%AMREC1820*
4,1,3,
0.033464566929133854,0.033464566929133861,
-0.033464566929133861,0.033464566929133854,
-0.033464566929133854,-0.033464566929133861,
0.033464566929133861,-0.033464566929133854,
0*%
%AMREC1830*
4,1,3,
0.031496062992125984,0.031496062992125991,
-0.031496062992125991,0.031496062992125984,
-0.031496062992125984,-0.031496062992125991,
0.031496062992125991,-0.031496062992125984,
0*%
%AMREC1840*
4,1,3,
0.051181102362204724,0.051181102362204738,
-0.051181102362204738,0.051181102362204724,
-0.051181102362204724,-0.051181102362204738,
0.051181102362204738,-0.051181102362204724,
0*%
%AMREC1850*
4,1,3,
0.047244094488188969,0.047244094488188983,
-0.047244094488188983,0.047244094488188969,
-0.047244094488188969,-0.047244094488188983,
0.047244094488188983,-0.047244094488188969,
0*%
%AMREC1860*
4,1,3,
0.035433070866141732,0.035433070866141739,
-0.035433070866141739,0.035433070866141732,
-0.035433070866141732,-0.035433070866141739,
0.035433070866141739,-0.035433070866141732,
0*%
%AMREC1870*
4,1,3,
0.017716535433070862,0.029527559055118113,
-0.017716535433070873,0.029527559055118113,
-0.017716535433070862,-0.029527559055118113,
0.017716535433070873,-0.029527559055118113,
0*%
%AMREC1880*
4,1,3,
0.023622047244094484,0.043307086614173235,
-0.023622047244094491,0.043307086614173235,
-0.023622047244094484,-0.043307086614173235,
0.023622047244094491,-0.043307086614173235,
0*%
%AMREC1890*
4,1,3,
0.11417322834645668,0.12598425196850396,
-0.11417322834645671,0.12598425196850394,
-0.11417322834645668,-0.12598425196850396,
0.11417322834645671,-0.12598425196850394,
0*%
%AMREC1900*
4,1,3,
0.054133858267716529,0.060039370078740169,
-0.05413385826771655,0.060039370078740148,
-0.054133858267716529,-0.060039370078740169,
0.05413385826771655,-0.060039370078740148,
0*%
%AMREC1910*
4,1,3,
0.016732283464566927,0.016732283464566931,
-0.016732283464566931,0.016732283464566927,
-0.016732283464566927,-0.016732283464566931,
0.016732283464566931,-0.016732283464566927,
0*%
%ADD10C,0.0039370078740157488*%
%ADD11C,0.068897637795275593*%
%ADD12R,0.068897637795275593X0.068897637795275593*%
%ADD13C,0.07874015748031496*%
%ADD14R,0.066929133858267723X0.066929133858267723*%
%ADD15O,0.066929133858267723X0.066929133858267723*%
%ADD16R,0.062992125984251982X0.062992125984251982*%
%ADD17O,0.062992125984251982X0.062992125984251982*%
%ADD18R,0.10236220472440946X0.10236220472440946*%
%ADD19C,0.10236220472440946*%
%ADD20C,0.066929133858267723*%
%ADD21R,0.094488188976377951X0.094488188976377951*%
%ADD22O,0.094488188976377951X0.094488188976377951*%
%ADD23C,0.07*%
%ADD24C,0.055118110236220472*%
%ADD25O,0.055118110236220472X0.055118110236220472*%
%ADD26C,0.062992125984251982*%
%ADD27R,0.070866141732283464X0.070866141732283464*%
%ADD28C,0.070866141732283464*%
%ADD29O,0.035433070866141732X0.059055118110236227*%
%ADD30R,0.035433070866141732X0.059055118110236227*%
%ADD31R,0.047244094488188976X0.086614173228346469*%
%ADD32R,0.2283464566929134X0.25196850393700793*%
%ADD33R,0.10826771653543307X0.12007874015748031*%
%ADD34R,0.033464566929133861X0.033464566929133861*%
%ADD35C,0.033464566929133861*%
%ADD36C,0.023622047244094488*%
%ADD37C,0.016*%
%ADD38C,0.024000000000000004*%
%ADD39C,0.08*%
%ADD50C,0.0039370078740157488*%
%ADD51C,0.068897637795275593*%
%AMCOMP220*
4,1,3,
0.03444881889763779,0.0344488188976378,
-0.0344488188976378,0.03444881889763779,
-0.03444881889763779,-0.0344488188976378,
0.0344488188976378,-0.03444881889763779,
0*%
%ADD52COMP220*%
%ADD53C,0.07874015748031496*%
%AMCOMP221*
4,1,3,
0.033464566929133854,0.033464566929133861,
-0.033464566929133861,0.033464566929133854,
-0.033464566929133854,-0.033464566929133861,
0.033464566929133861,-0.033464566929133854,
0*%
%ADD54COMP221*%
%ADD55O,0.066929133858267723X0.066929133858267723*%
%AMCOMP222*
4,1,3,
0.031496062992125984,0.031496062992125991,
-0.031496062992125991,0.031496062992125984,
-0.031496062992125984,-0.031496062992125991,
0.031496062992125991,-0.031496062992125984,
0*%
%ADD56COMP222*%
%ADD57O,0.062992125984251982X0.062992125984251982*%
%AMCOMP223*
4,1,3,
0.051181102362204724,0.051181102362204738,
-0.051181102362204738,0.051181102362204724,
-0.051181102362204724,-0.051181102362204738,
0.051181102362204738,-0.051181102362204724,
0*%
%ADD58COMP223*%
%ADD59C,0.10236220472440946*%
%ADD60C,0.066929133858267723*%
%AMCOMP224*
4,1,3,
0.047244094488188969,0.047244094488188983,
-0.047244094488188983,0.047244094488188969,
-0.047244094488188969,-0.047244094488188983,
0.047244094488188983,-0.047244094488188969,
0*%
%ADD61COMP224*%
%ADD62O,0.094488188976377951X0.094488188976377951*%
%ADD63C,0.07*%
%ADD64C,0.055118110236220472*%
%ADD65O,0.055118110236220472X0.055118110236220472*%
%ADD66C,0.062992125984251982*%
%AMCOMP225*
4,1,3,
0.035433070866141732,0.035433070866141739,
-0.035433070866141739,0.035433070866141732,
-0.035433070866141732,-0.035433070866141739,
0.035433070866141739,-0.035433070866141732,
0*%
%ADD67COMP225*%
%ADD68C,0.070866141732283464*%
%ADD69O,0.035433070866141732X0.059055118110236227*%
%AMCOMP226*
4,1,3,
0.017716535433070862,0.029527559055118113,
-0.017716535433070873,0.029527559055118113,
-0.017716535433070862,-0.029527559055118113,
0.017716535433070873,-0.029527559055118113,
0*%
%ADD70COMP226*%
%AMCOMP227*
4,1,3,
0.023622047244094484,0.043307086614173235,
-0.023622047244094491,0.043307086614173235,
-0.023622047244094484,-0.043307086614173235,
0.023622047244094491,-0.043307086614173235,
0*%
%ADD71COMP227*%
%AMCOMP228*
4,1,3,
0.11417322834645668,0.12598425196850396,
-0.11417322834645671,0.12598425196850394,
-0.11417322834645668,-0.12598425196850396,
0.11417322834645671,-0.12598425196850394,
0*%
%ADD72COMP228*%
%AMCOMP229*
4,1,3,
0.054133858267716529,0.060039370078740169,
-0.05413385826771655,0.060039370078740148,
-0.054133858267716529,-0.060039370078740169,
0.05413385826771655,-0.060039370078740148,
0*%
%ADD73COMP229*%
%AMCOMP230*
4,1,3,
0.016732283464566927,0.016732283464566931,
-0.016732283464566931,0.016732283464566927,
-0.016732283464566927,-0.016732283464566931,
0.016732283464566931,-0.016732283464566927,
0*%
%ADD74COMP230*%
%ADD75C,0.033464566929133861*%
%ADD76C,0.023622047244094488*%
%ADD77C,0.016*%
%ADD78C,0.024000000000000004*%
%ADD79C,0.08*%
%ADD80C,0.0039370078740157488*%
%ADD81C,0.068897637795275593*%
%ADD82R,0.068897637795275593X0.068897637795275593*%
%ADD83C,0.07874015748031496*%
%ADD84R,0.066929133858267723X0.066929133858267723*%
%ADD85O,0.066929133858267723X0.066929133858267723*%
%ADD86R,0.062992125984251982X0.062992125984251982*%
%ADD87O,0.062992125984251982X0.062992125984251982*%
%ADD88R,0.10236220472440946X0.10236220472440946*%
%ADD89C,0.10236220472440946*%
%ADD90C,0.066929133858267723*%
%ADD91R,0.094488188976377951X0.094488188976377951*%
%ADD92O,0.094488188976377951X0.094488188976377951*%
%ADD93C,0.07*%
%ADD94C,0.055118110236220472*%
%ADD95O,0.055118110236220472X0.055118110236220472*%
%ADD96C,0.062992125984251982*%
%ADD97R,0.070866141732283464X0.070866141732283464*%
%ADD98C,0.070866141732283464*%
%ADD99O,0.059055118110236227X0.035433070866141732*%
%ADD100R,0.059055118110236227X0.035433070866141732*%
%ADD101R,0.086614173228346469X0.047244094488188976*%
%ADD102R,0.25196850393700793X0.2283464566929134*%
%ADD103R,0.12007874015748031X0.10826771653543307*%
%ADD104R,0.033464566929133861X0.033464566929133861*%
%ADD105C,0.033464566929133861*%
%ADD106C,0.023622047244094488*%
%ADD107C,0.016*%
%ADD108C,0.024000000000000004*%
%ADD109C,0.08*%
G01*
D10*
D11*
X-0001456692Y0005433070D02*
X0002122755Y0001087992D03*
X0002222755Y0001087992D03*
D12*
X0002322755Y0001087992D03*
D13*
X0000477480Y0001808070D03*
X0000249133Y0001808070D03*
D14*
X0001113307Y0001658070D03*
D15*
X0001013307Y0001658070D03*
X0000913307Y0001658070D03*
X0000813307Y0001658070D03*
X0000713307Y0001658070D03*
X0000613307Y0001658070D03*
D16*
X0000813307Y0001558070D03*
D17*
X0002113307Y0001258070D03*
X0000913307Y0001558070D03*
X0002013307Y0001258070D03*
X0001013307Y0001558070D03*
X0001913307Y0001258070D03*
X0001113307Y0001558070D03*
X0001813307Y0001258070D03*
X0001213307Y0001558070D03*
X0001713307Y0001258070D03*
X0001313307Y0001558070D03*
X0001613307Y0001258070D03*
X0001413307Y0001558070D03*
X0001513307Y0001258070D03*
X0001513307Y0001558070D03*
X0001413307Y0001258070D03*
X0001613307Y0001558070D03*
X0001313307Y0001258070D03*
X0001713307Y0001558070D03*
X0001213307Y0001258070D03*
X0001813307Y0001558070D03*
X0001113307Y0001258070D03*
X0001913307Y0001558070D03*
X0001013307Y0001258070D03*
X0002013307Y0001558070D03*
X0000913307Y0001258070D03*
X0002113307Y0001558070D03*
X0000813307Y0001258070D03*
D18*
X0000463307Y0001958070D03*
D19*
X0000601102Y0001958070D03*
D18*
X0000238307Y0001958070D03*
D19*
X0000100511Y0001958070D03*
D20*
X0001813307Y0001658070D03*
X0001714881Y0001658070D03*
X0001616456Y0001658070D03*
D21*
X0000093307Y0001308070D03*
D22*
X0000093307Y0001808070D03*
D23*
X0000363307Y0001008070D03*
X0000163307Y0001008070D03*
D24*
X0001211732Y0001758070D03*
D25*
X0001011732Y0001758070D03*
D24*
X0001511732Y0001758070D03*
D25*
X0001311732Y0001758070D03*
D26*
X0000813307Y0001158070D03*
X0000813307Y0001059645D03*
X0000663307Y0000958070D03*
X0000564881Y0000958070D03*
X0001213307Y0001658070D03*
X0001311732Y0001658070D03*
D27*
X0002113307Y0001938070D03*
D28*
X0002013307Y0001938070D03*
D29*
X0000613307Y0001158070D03*
X0000663307Y0001158070D03*
D30*
X0000563307Y0001158070D03*
D26*
X0001413307Y0001658070D03*
X0001511732Y0001658070D03*
X0000913307Y0001758070D03*
X0000814881Y0001758070D03*
D24*
X0000713307Y0001556496D03*
D25*
X0000713307Y0001356496D03*
D26*
X0001913307Y0001108070D03*
X0002011732Y0001108070D03*
D24*
X0002013307Y0001006496D03*
D25*
X0002013307Y0000806496D03*
D24*
X0001913307Y0000809645D03*
D25*
X0001913307Y0001009645D03*
D11*
X0001532204Y0001087992D03*
X0001632204Y0001087992D03*
D12*
X0001732204Y0001087992D03*
D11*
X0000941653Y0001087992D03*
X0001041653Y0001087992D03*
D12*
X0001141653Y0001087992D03*
D24*
X0000613307Y0001359645D03*
D25*
X0000613307Y0001559645D03*
D24*
X0000513307Y0001359645D03*
D25*
X0000513307Y0001559645D03*
D24*
X0001914881Y0001658070D03*
D25*
X0002114881Y0001658070D03*
D26*
X0001238307Y0001108070D03*
X0001238307Y0000808070D03*
X0001338307Y0001108070D03*
X0001338307Y0000808070D03*
D24*
X0001438307Y0000809645D03*
D25*
X0001438307Y0001009645D03*
D31*
X0000223543Y0001698425D03*
X0000403070Y0001698425D03*
D32*
X0000313307Y0001450393D03*
D33*
X0000373346Y0001384448D03*
X0000253267Y0001516338D03*
X0000253267Y0001384448D03*
X0000373346Y0001516338D03*
D14*
X0001913307Y0001458070D03*
D15*
X0001913307Y0001358070D03*
X0001813307Y0001458070D03*
X0001813307Y0001358070D03*
X0001713307Y0001458070D03*
X0001713307Y0001358070D03*
D34*
X0001413307Y0001958070D03*
D35*
X0001364094Y0001958070D03*
D34*
X0001188307Y0001958070D03*
D35*
X0001139094Y0001958070D03*
X0001089881Y0001958070D03*
X0001040669Y0001958070D03*
D34*
X0002313307Y0001958070D03*
D35*
X0002264094Y0001958070D03*
D34*
X0001863307Y0001958070D03*
D35*
X0001814094Y0001958070D03*
D34*
X0001638307Y0001958070D03*
D35*
X0001589094Y0001958070D03*
D34*
X0000863307Y0001958070D03*
D35*
X0000814094Y0001958070D03*
X0000764881Y0001958070D03*
D36*
X0001343307Y0001458070D03*
X0002143307Y0001318070D03*
X0001483307Y0000858070D03*
D37*
X0001713307Y0001458070D02*
X0001343307Y0001458070D01*
D38*
X0001413307Y0001258070D02*
X0001413307Y0001298070D01*
X0001473307Y0001358070D02*
X0001713307Y0001358070D01*
X0001413307Y0001298070D02*
X0001473307Y0001358070D01*
X0002264094Y0001958070D02*
X0002133307Y0001958070D01*
X0002133307Y0001958070D02*
X0002113307Y0001938070D01*
X0001040669Y0001958070D02*
X0001040669Y0001960708D01*
X0001040669Y0001960708D02*
X0001003307Y0001998070D01*
X0001589094Y0001958070D02*
X0001583307Y0001958070D01*
X0001583307Y0001958070D02*
X0001543307Y0001998070D01*
X0001814094Y0001958070D02*
X0001813307Y0001958070D01*
X0001813307Y0001958070D02*
X0001773307Y0001998070D01*
X0000764881Y0001958070D02*
X0000764881Y0001969645D01*
X0000764881Y0001969645D02*
X0000793307Y0001998070D01*
X0002053307Y0001998070D02*
X0002113307Y0001938070D01*
X0001773307Y0001998070D02*
X0002053307Y0001998070D01*
X0000793307Y0001998070D02*
X0001003307Y0001998070D01*
X0001003307Y0001998070D02*
X0001543307Y0001998070D01*
X0001543307Y0001998070D02*
X0001773307Y0001998070D01*
X0001438307Y0000809645D02*
X0001438307Y0000883070D01*
X0001438307Y0000883070D02*
X0001632204Y0001076968D01*
X0001632204Y0001076968D02*
X0001632204Y0001087992D01*
X0000463307Y0001698425D02*
X0000572952Y0001698425D01*
X0000572952Y0001698425D02*
X0000613307Y0001658070D01*
D39*
X0000601102Y0001795866D02*
X0000601102Y0001785866D01*
X0000601102Y0001958070D02*
X0000601102Y0001795866D01*
X0000513661Y0001698425D02*
X0000463307Y0001698425D01*
X0000463307Y0001698425D02*
X0000403070Y0001698425D01*
X0000601102Y0001785866D02*
X0000513661Y0001698425D01*
D38*
X0001311732Y0001658070D02*
X0001311732Y0001666496D01*
X0001311732Y0001666496D02*
X0001368307Y0001723070D01*
X0001446732Y0001723070D02*
X0001511732Y0001658070D01*
X0001368307Y0001723070D02*
X0001446732Y0001723070D01*
X0000601102Y0001958070D02*
X0000764881Y0001958070D01*
D37*
X0002321732Y0000806496D02*
X0002323307Y0000808070D01*
X0002323307Y0000808070D02*
X0002327070Y0000808070D01*
X0002327070Y0000808070D02*
X0002417181Y0000898181D01*
X0002417181Y0000898181D02*
X0002417181Y0001164196D01*
X0002417181Y0001164196D02*
X0002263307Y0001318070D01*
X0002263307Y0001318070D02*
X0002143307Y0001318070D01*
X0002321732Y0000806496D02*
X0002013307Y0000806496D01*
X0001860807Y0001285570D02*
X0001860807Y0001225570D01*
X0001860807Y0001225570D02*
X0001813307Y0001178070D01*
X0001813307Y0001178070D02*
X0001393307Y0001178070D01*
X0001393307Y0001178070D02*
X0001313307Y0001258070D01*
X0001963307Y0001228070D02*
X0001963307Y0001208070D01*
X0001963307Y0001283070D02*
X0001963307Y0001228070D01*
X0001913307Y0001108070D02*
X0001913307Y0001158070D01*
X0001963307Y0001208070D02*
X0001913307Y0001158070D01*
X0001938307Y0001308070D02*
X0001963307Y0001283070D01*
X0001883307Y0001308070D02*
X0001938307Y0001308070D01*
X0001860807Y0001285570D02*
X0001883307Y0001308070D01*
X0001913307Y0000809645D02*
X0002010157Y0000809645D01*
X0002010157Y0000809645D02*
X0002013307Y0000806496D01*
X0001913307Y0000809645D02*
X0001913307Y0000818070D01*
X0001113307Y0001258070D02*
X0001113307Y0001253070D01*
X0001238307Y0001108070D02*
X0001338307Y0001108070D01*
X0001013307Y0001258070D02*
X0001013307Y0001208070D01*
X0001238307Y0001043070D02*
X0001238307Y0001108070D01*
X0001213307Y0001018070D02*
X0001238307Y0001043070D01*
X0000933307Y0001018070D02*
X0001213307Y0001018070D01*
X0000883307Y0001068070D02*
X0000933307Y0001018070D01*
X0000883307Y0001128070D02*
X0000883307Y0001068070D01*
X0000943307Y0001188070D02*
X0000883307Y0001128070D01*
X0000993307Y0001188070D02*
X0000943307Y0001188070D01*
X0001013307Y0001208070D02*
X0000993307Y0001188070D01*
X0001188307Y0001958070D02*
X0001188307Y0001913070D01*
X0000913307Y0001428070D02*
X0000913307Y0001258070D01*
X0000863307Y0001478070D02*
X0000913307Y0001428070D01*
X0000863307Y0001803070D02*
X0000863307Y0001478070D01*
X0000908307Y0001848070D02*
X0000863307Y0001803070D01*
X0001123307Y0001848070D02*
X0000908307Y0001848070D01*
X0001188307Y0001913070D02*
X0001123307Y0001848070D01*
X0001139094Y0001958070D02*
X0001139094Y0001923858D01*
X0000813307Y0001428070D02*
X0000813307Y0001258070D01*
X0000763307Y0001478070D02*
X0000813307Y0001428070D01*
X0000763307Y0001798070D02*
X0000763307Y0001478070D01*
X0000843307Y0001878070D02*
X0000763307Y0001798070D01*
X0001093307Y0001878070D02*
X0000843307Y0001878070D01*
X0001139094Y0001923858D02*
X0001093307Y0001878070D01*
X0001483307Y0000858070D02*
X0002063307Y0000858070D01*
X0002283307Y0001258070D02*
X0002113307Y0001258070D01*
X0002393307Y0001148070D02*
X0002283307Y0001258070D01*
X0002393307Y0000908070D02*
X0002393307Y0001148070D01*
X0002343307Y0000858070D02*
X0002393307Y0000908070D01*
X0002063307Y0000858070D02*
X0002343307Y0000858070D01*
X0000453307Y0001228070D02*
X0000453307Y0000988070D01*
X0000433307Y0001618070D02*
X0000453307Y0001598070D01*
X0000453307Y0001598070D02*
X0000453307Y0001228070D01*
X0000223543Y0001697834D02*
X0000303307Y0001618070D01*
X0000303307Y0001618070D02*
X0000433307Y0001618070D01*
X0001416732Y0000988070D02*
X0001438307Y0001009645D01*
X0000793307Y0000988070D02*
X0001416732Y0000988070D01*
X0000703307Y0000898070D02*
X0000793307Y0000988070D01*
X0000543307Y0000898070D02*
X0000703307Y0000898070D01*
X0000453307Y0000988070D02*
X0000543307Y0000898070D01*
X0000223543Y0001698425D02*
X0000223543Y0001697834D01*
X0000223543Y0001698425D02*
X0000227952Y0001698425D01*
X0000223543Y0001698425D02*
X0000223543Y0001672834D01*
X0002013307Y0001558070D02*
X0002013307Y0001638070D01*
X0001863307Y0001788070D02*
X0001863307Y0001958070D01*
X0002013307Y0001638070D02*
X0001863307Y0001788070D01*
X0000328307Y0000868070D02*
X0000303307Y0000868070D01*
X0001483307Y0000978070D02*
X0001373307Y0000868070D01*
X0001373307Y0000868070D02*
X0001213307Y0000868070D01*
X0001488307Y0000978070D02*
X0001483307Y0000978070D01*
X0001213307Y0000868070D02*
X0000328307Y0000868070D01*
X0000303307Y0000868070D02*
X0000163307Y0001008070D01*
X0001313307Y0001398070D02*
X0001263307Y0001348070D01*
X0001263307Y0001348070D02*
X0001263307Y0001228070D01*
X0001263307Y0001228070D02*
X0001323307Y0001168070D01*
X0001323307Y0001168070D02*
X0001353307Y0001168070D01*
X0001353307Y0001168070D02*
X0001363307Y0001158070D01*
X0001313307Y0001558070D02*
X0001313307Y0001408070D01*
X0001488307Y0001033070D02*
X0001488307Y0000978070D01*
X0001488307Y0000978070D02*
X0001488307Y0000983070D01*
X0001363307Y0001158070D02*
X0001488307Y0001033070D01*
X0001313307Y0001408070D02*
X0001313307Y0001398070D01*
X0001211732Y0001758070D02*
X0001311732Y0001758070D01*
X0001213307Y0001658070D02*
X0001213307Y0001756496D01*
X0001213307Y0001756496D02*
X0001211732Y0001758070D01*
X0001213307Y0001558070D02*
X0001213307Y0001658070D01*
X0001063307Y0001228070D02*
X0001063307Y0001198070D01*
X0001848307Y0001508070D02*
X0001378307Y0001508070D01*
X0001378307Y0001508070D02*
X0001363307Y0001523070D01*
X0001363307Y0001523070D02*
X0001363307Y0001588070D01*
X0001363307Y0001588070D02*
X0001343307Y0001608070D01*
X0001343307Y0001608070D02*
X0001288307Y0001608070D01*
X0001288307Y0001608070D02*
X0001263307Y0001583070D01*
X0001263307Y0001583070D02*
X0001263307Y0001493070D01*
X0001263307Y0001493070D02*
X0001153307Y0001383070D01*
X0001153307Y0001383070D02*
X0001098307Y0001383070D01*
X0001098307Y0001383070D02*
X0001063307Y0001348070D01*
X0001898307Y0001458070D02*
X0001848307Y0001508070D01*
X0001063307Y0001348070D02*
X0001063307Y0001228070D01*
X0000941653Y0001146417D02*
X0000941653Y0001087992D01*
X0000953307Y0001158070D02*
X0000941653Y0001146417D01*
X0001023307Y0001158070D02*
X0000953307Y0001158070D01*
X0001063307Y0001198070D02*
X0001023307Y0001158070D01*
X0000941653Y0001106417D02*
X0000941653Y0001087992D01*
X0001913307Y0001458070D02*
X0001898307Y0001458070D01*
X0001863307Y0001408070D02*
X0001798307Y0001408070D01*
X0001913307Y0001458070D02*
X0001863307Y0001408070D01*
X0001763307Y0001308070D02*
X0001813307Y0001258070D01*
X0001763307Y0001398070D02*
X0001763307Y0001308070D01*
X0001773307Y0001408070D02*
X0001763307Y0001398070D01*
X0001798307Y0001408070D02*
X0001773307Y0001408070D01*
X0001813307Y0001258070D02*
X0001818307Y0001258070D01*
D38*
X0000663307Y0001158070D02*
X0000663307Y0000958070D01*
D37*
X0000613307Y0001359645D02*
X0000613307Y0001418070D01*
X0000613307Y0001418070D02*
X0000663307Y0001468070D01*
X0000663307Y0001468070D02*
X0000663307Y0001748070D01*
X0000663307Y0001748070D02*
X0000823307Y0001908070D01*
X0000823307Y0001908070D02*
X0001068307Y0001908070D01*
X0001068307Y0001908070D02*
X0001089881Y0001929645D01*
X0001089881Y0001929645D02*
X0001089881Y0001958070D01*
X0002114881Y0001658070D02*
X0002114881Y0001679645D01*
X0002114881Y0001679645D02*
X0002158307Y0001723070D01*
X0002158307Y0001723070D02*
X0002158307Y0001798070D01*
X0002158307Y0001798070D02*
X0002013307Y0001923070D01*
X0002013307Y0001923070D02*
X0002013307Y0001938070D01*
X0001613307Y0001558070D02*
X0001613307Y0001654921D01*
X0001613307Y0001654921D02*
X0001616456Y0001658070D01*
X0001713307Y0001558070D02*
X0001813307Y0001658070D01*
X0001532204Y0001087992D02*
X0001532204Y0001126968D01*
X0001863307Y0001148070D02*
X0001863307Y0001153070D01*
X0001858307Y0001148070D02*
X0001863307Y0001148070D01*
X0001553307Y0001148070D02*
X0001858307Y0001148070D01*
X0001532204Y0001126968D02*
X0001553307Y0001148070D01*
X0001863307Y0001153070D02*
X0001913307Y0001203070D01*
X0001913307Y0001203070D02*
X0001913307Y0001258070D01*
X0002122440Y0001008936D02*
X0002122440Y0001087677D01*
X0002122440Y0001087677D02*
X0002122755Y0001087992D01*
X0002013307Y0001258070D02*
X0002013307Y0001213070D01*
X0002071574Y0000958070D02*
X0002122440Y0001008936D01*
X0002122440Y0001008936D02*
X0002122755Y0001009251D01*
X0001993307Y0000958070D02*
X0002071574Y0000958070D01*
X0001963307Y0000988070D02*
X0001993307Y0000958070D01*
X0001963307Y0001163070D02*
X0001963307Y0000988070D01*
X0002013307Y0001213070D02*
X0001963307Y0001163070D01*
X0002013307Y0001258070D02*
X0002013307Y0001238070D01*
X0000913307Y0001558070D02*
X0000913307Y0001658070D01*
X0001013307Y0001558070D02*
X0001013307Y0001658070D01*
X0001511732Y0001758070D02*
X0001513307Y0001758070D01*
X0001513307Y0001758070D02*
X0001638307Y0001883070D01*
X0001638307Y0001883070D02*
X0001638307Y0001958070D01*
X0002013307Y0001006496D02*
X0002013307Y0001008070D01*
X0002013307Y0001008070D02*
X0002063307Y0001058070D01*
X0002313307Y0001923070D02*
X0002313307Y0001958070D01*
X0002183307Y0001793070D02*
X0002313307Y0001923070D01*
X0002183307Y0001478070D02*
X0002183307Y0001793070D01*
X0002063307Y0001358070D02*
X0002183307Y0001478070D01*
X0002063307Y0001058070D02*
X0002063307Y0001358070D01*
X0002013307Y0001006496D02*
X0002026732Y0001006496D01*
D39*
X0000238307Y0001958070D02*
X0000238307Y0001818897D01*
X0000238307Y0001818897D02*
X0000249133Y0001808070D01*
D37*
X0001238307Y0000808070D02*
X0000273307Y0000808070D01*
X0000093307Y0001128070D02*
X0000093307Y0001308070D01*
X0000083307Y0001118070D02*
X0000093307Y0001128070D01*
X0000083307Y0000998070D02*
X0000083307Y0001118070D01*
X0000273307Y0000808070D02*
X0000083307Y0000998070D01*
X0000093307Y0001308070D02*
X0000128307Y0001308070D01*
D39*
X0000093307Y0001808070D02*
X0000093307Y0001950866D01*
X0000093307Y0001950866D02*
X0000100511Y0001958070D01*
X0000313307Y0001450393D02*
X0000245984Y0001450393D01*
X0000245984Y0001450393D02*
X0000093307Y0001578070D01*
X0000093307Y0001578070D02*
X0000093307Y0001808070D01*
D37*
X0000813307Y0001158070D02*
X0000879544Y0001158070D01*
X0001413307Y0001908070D02*
X0001323307Y0001818070D01*
X0001323307Y0001818070D02*
X0000983307Y0001818070D01*
X0000983307Y0001818070D02*
X0000963307Y0001798070D01*
X0001413307Y0001908070D02*
X0001413307Y0001958070D01*
X0000963307Y0001228070D02*
X0000963307Y0001798070D01*
X0000947181Y0001211944D02*
X0000963307Y0001228070D01*
X0000933418Y0001211944D02*
X0000947181Y0001211944D01*
X0000879544Y0001158070D02*
X0000933418Y0001211944D01*
X0000813307Y0001158070D02*
X0000783307Y0001158070D01*
X0000783307Y0001158070D02*
X0000723307Y0001218070D01*
X0000613307Y0001188070D02*
X0000613307Y0001158070D01*
X0000643307Y0001218070D02*
X0000613307Y0001188070D01*
X0000723307Y0001218070D02*
X0000643307Y0001218070D01*
G04 next file*
G04 #@! TF.FileFunction,Copper,L2,Bot,Signal*
G04 Gerber Fmt 4.6, Leading zero omitted, Abs format (unit mm)*
G04 Created by KiCad (PCBNEW 4.0.6) date 06/26/19 16:14:44*
G01*
G04 APERTURE LIST*
G04 APERTURE END LIST*
D50*
D51*
X0003897637Y-0000866141D02*
X0000318188Y0003478936D03*
X0000218188Y0003478936D03*
D52*
X0000118188Y0003478936D03*
D53*
X0001963464Y0002758858D03*
X0002191810Y0002758858D03*
D54*
X0001327637Y0002908858D03*
D55*
X0001427637Y0002908858D03*
X0001527637Y0002908858D03*
X0001627637Y0002908858D03*
X0001727637Y0002908858D03*
X0001827637Y0002908858D03*
D56*
X0001627637Y0003008858D03*
D57*
X0000327637Y0003308858D03*
X0001527637Y0003008858D03*
X0000427637Y0003308858D03*
X0001427637Y0003008858D03*
X0000527637Y0003308858D03*
X0001327637Y0003008858D03*
X0000627637Y0003308858D03*
X0001227637Y0003008858D03*
X0000727637Y0003308858D03*
X0001127637Y0003008858D03*
X0000827637Y0003308858D03*
X0001027637Y0003008858D03*
X0000927637Y0003308858D03*
X0000927637Y0003008858D03*
X0001027637Y0003308858D03*
X0000827637Y0003008858D03*
X0001127637Y0003308858D03*
X0000727637Y0003008858D03*
X0001227637Y0003308858D03*
X0000627637Y0003008858D03*
X0001327637Y0003308858D03*
X0000527637Y0003008858D03*
X0001427637Y0003308858D03*
X0000427637Y0003008858D03*
X0001527637Y0003308858D03*
X0000327637Y0003008858D03*
X0001627637Y0003308858D03*
D58*
X0001977637Y0002608858D03*
D59*
X0001839842Y0002608858D03*
D58*
X0002202637Y0002608858D03*
D59*
X0002340433Y0002608858D03*
D60*
X0000627637Y0002908858D03*
X0000726062Y0002908858D03*
X0000824488Y0002908858D03*
D61*
X0002347637Y0003258858D03*
D62*
X0002347637Y0002758858D03*
D63*
X0002077637Y0003558858D03*
X0002277637Y0003558858D03*
D64*
X0001229212Y0002808858D03*
D65*
X0001429212Y0002808858D03*
D64*
X0000929212Y0002808858D03*
D65*
X0001129212Y0002808858D03*
D66*
X0001627637Y0003408858D03*
X0001627637Y0003507283D03*
X0001777637Y0003608858D03*
X0001876062Y0003608858D03*
X0001227637Y0002908858D03*
X0001129212Y0002908858D03*
D67*
X0000327637Y0002628858D03*
D68*
X0000427637Y0002628858D03*
D69*
X0001827637Y0003408858D03*
X0001777637Y0003408858D03*
D70*
X0001877637Y0003408858D03*
D66*
X0001027637Y0002908858D03*
X0000929212Y0002908858D03*
X0001527637Y0002808858D03*
X0001626062Y0002808858D03*
D64*
X0001727637Y0003010433D03*
D65*
X0001727637Y0003210433D03*
D66*
X0000527637Y0003458858D03*
X0000429212Y0003458858D03*
D64*
X0000427637Y0003560433D03*
D65*
X0000427637Y0003760433D03*
D64*
X0000527637Y0003757283D03*
D65*
X0000527637Y0003557283D03*
D51*
X0000908740Y0003478936D03*
X0000808740Y0003478936D03*
D52*
X0000708740Y0003478936D03*
D51*
X0001499291Y0003478936D03*
X0001399291Y0003478936D03*
D52*
X0001299291Y0003478936D03*
D64*
X0001827637Y0003207283D03*
D65*
X0001827637Y0003007283D03*
D64*
X0001927637Y0003207283D03*
D65*
X0001927637Y0003007283D03*
D64*
X0000526062Y0002908858D03*
D65*
X0000326062Y0002908858D03*
D66*
X0001202637Y0003458858D03*
X0001202637Y0003758858D03*
X0001102637Y0003458858D03*
X0001102637Y0003758858D03*
D64*
X0001002637Y0003757283D03*
D65*
X0001002637Y0003557283D03*
D71*
X0002217401Y0002868503D03*
X0002037873Y0002868503D03*
D72*
X0002127637Y0003116535D03*
D73*
X0002067598Y0003182480D03*
X0002187677Y0003050590D03*
X0002187677Y0003182480D03*
X0002067598Y0003050590D03*
D54*
X0000527637Y0003108858D03*
D55*
X0000527637Y0003208858D03*
X0000627637Y0003108858D03*
X0000627637Y0003208858D03*
X0000727637Y0003108858D03*
X0000727637Y0003208858D03*
D74*
X0001027637Y0002608858D03*
D75*
X0001076850Y0002608858D03*
D74*
X0001252637Y0002608858D03*
D75*
X0001301850Y0002608858D03*
X0001351062Y0002608858D03*
X0001400275Y0002608858D03*
D74*
X0000127637Y0002608858D03*
D75*
X0000176850Y0002608858D03*
D74*
X0000577637Y0002608858D03*
D75*
X0000626850Y0002608858D03*
D74*
X0000802637Y0002608858D03*
D75*
X0000851850Y0002608858D03*
D74*
X0001577637Y0002608858D03*
D75*
X0001626850Y0002608858D03*
X0001676062Y0002608858D03*
D76*
X0001097637Y0003108858D03*
X0000297637Y0003248858D03*
X0000957637Y0003708858D03*
D77*
X0000727637Y0003108858D02*
X0001097637Y0003108858D01*
D78*
X0001027637Y0003308858D02*
X0001027637Y0003268858D01*
X0000967637Y0003208858D02*
X0000727637Y0003208858D01*
X0001027637Y0003268858D02*
X0000967637Y0003208858D01*
X0000176850Y0002608858D02*
X0000307637Y0002608858D01*
X0000307637Y0002608858D02*
X0000327637Y0002628858D01*
X0001400275Y0002608858D02*
X0001400275Y0002606220D01*
X0001400275Y0002606220D02*
X0001437637Y0002568858D01*
X0000851850Y0002608858D02*
X0000857637Y0002608858D01*
X0000857637Y0002608858D02*
X0000897637Y0002568858D01*
X0000626850Y0002608858D02*
X0000627637Y0002608858D01*
X0000627637Y0002608858D02*
X0000667637Y0002568858D01*
X0001676062Y0002608858D02*
X0001676062Y0002597283D01*
X0001676062Y0002597283D02*
X0001647637Y0002568858D01*
X0000387637Y0002568858D02*
X0000327637Y0002628858D01*
X0000667637Y0002568858D02*
X0000387637Y0002568858D01*
X0001647637Y0002568858D02*
X0001437637Y0002568858D01*
X0001437637Y0002568858D02*
X0000897637Y0002568858D01*
X0000897637Y0002568858D02*
X0000667637Y0002568858D01*
X0001002637Y0003757283D02*
X0001002637Y0003683858D01*
X0001002637Y0003683858D02*
X0000808740Y0003489960D01*
X0000808740Y0003489960D02*
X0000808740Y0003478936D01*
X0001977637Y0002868503D02*
X0001867992Y0002868503D01*
X0001867992Y0002868503D02*
X0001827637Y0002908858D01*
D79*
X0001839842Y0002771062D02*
X0001839842Y0002781062D01*
X0001839842Y0002608858D02*
X0001839842Y0002771062D01*
X0001927283Y0002868503D02*
X0001977637Y0002868503D01*
X0001977637Y0002868503D02*
X0002037873Y0002868503D01*
X0001839842Y0002781062D02*
X0001927283Y0002868503D01*
D78*
X0001129212Y0002908858D02*
X0001129212Y0002900433D01*
X0001129212Y0002900433D02*
X0001072637Y0002843858D01*
X0000994212Y0002843858D02*
X0000929212Y0002908858D01*
X0001072637Y0002843858D02*
X0000994212Y0002843858D01*
X0001839842Y0002608858D02*
X0001676062Y0002608858D01*
D77*
X0000119212Y0003760433D02*
X0000117637Y0003758858D01*
X0000117637Y0003758858D02*
X0000113874Y0003758858D01*
X0000113874Y0003758858D02*
X0000023763Y0003668747D01*
X0000023763Y0003668747D02*
X0000023763Y0003402732D01*
X0000023763Y0003402732D02*
X0000177637Y0003248858D01*
X0000177637Y0003248858D02*
X0000297637Y0003248858D01*
X0000119212Y0003760433D02*
X0000427637Y0003760433D01*
X0000580137Y0003281358D02*
X0000580137Y0003341358D01*
X0000580137Y0003341358D02*
X0000627637Y0003388858D01*
X0000627637Y0003388858D02*
X0001047637Y0003388858D01*
X0001047637Y0003388858D02*
X0001127637Y0003308858D01*
X0000477637Y0003338858D02*
X0000477637Y0003358858D01*
X0000477637Y0003283858D02*
X0000477637Y0003338858D01*
X0000527637Y0003458858D02*
X0000527637Y0003408858D01*
X0000477637Y0003358858D02*
X0000527637Y0003408858D01*
X0000502637Y0003258858D02*
X0000477637Y0003283858D01*
X0000557637Y0003258858D02*
X0000502637Y0003258858D01*
X0000580137Y0003281358D02*
X0000557637Y0003258858D01*
X0000527637Y0003757283D02*
X0000430787Y0003757283D01*
X0000430787Y0003757283D02*
X0000427637Y0003760433D01*
X0000527637Y0003757283D02*
X0000527637Y0003748858D01*
X0001327637Y0003308858D02*
X0001327637Y0003313858D01*
X0001202637Y0003458858D02*
X0001102637Y0003458858D01*
X0001427637Y0003308858D02*
X0001427637Y0003358858D01*
X0001202637Y0003523858D02*
X0001202637Y0003458858D01*
X0001227637Y0003548858D02*
X0001202637Y0003523858D01*
X0001507637Y0003548858D02*
X0001227637Y0003548858D01*
X0001557637Y0003498858D02*
X0001507637Y0003548858D01*
X0001557637Y0003438858D02*
X0001557637Y0003498858D01*
X0001497637Y0003378858D02*
X0001557637Y0003438858D01*
X0001447637Y0003378858D02*
X0001497637Y0003378858D01*
X0001427637Y0003358858D02*
X0001447637Y0003378858D01*
X0001252637Y0002608858D02*
X0001252637Y0002653858D01*
X0001527637Y0003138858D02*
X0001527637Y0003308858D01*
X0001577637Y0003088858D02*
X0001527637Y0003138858D01*
X0001577637Y0002763858D02*
X0001577637Y0003088858D01*
X0001532637Y0002718858D02*
X0001577637Y0002763858D01*
X0001317637Y0002718858D02*
X0001532637Y0002718858D01*
X0001252637Y0002653858D02*
X0001317637Y0002718858D01*
X0001301850Y0002608858D02*
X0001301850Y0002643070D01*
X0001627637Y0003138858D02*
X0001627637Y0003308858D01*
X0001677637Y0003088858D02*
X0001627637Y0003138858D01*
X0001677637Y0002768858D02*
X0001677637Y0003088858D01*
X0001597637Y0002688858D02*
X0001677637Y0002768858D01*
X0001347637Y0002688858D02*
X0001597637Y0002688858D01*
X0001301850Y0002643070D02*
X0001347637Y0002688858D01*
X0000957637Y0003708858D02*
X0000377637Y0003708858D01*
X0000157637Y0003308858D02*
X0000327637Y0003308858D01*
X0000047637Y0003418858D02*
X0000157637Y0003308858D01*
X0000047637Y0003658858D02*
X0000047637Y0003418858D01*
X0000097637Y0003708858D02*
X0000047637Y0003658858D01*
X0000377637Y0003708858D02*
X0000097637Y0003708858D01*
X0001987637Y0003338858D02*
X0001987637Y0003578858D01*
X0002007637Y0002948858D02*
X0001987637Y0002968858D01*
X0001987637Y0002968858D02*
X0001987637Y0003338858D01*
X0002217401Y0002869094D02*
X0002137637Y0002948858D01*
X0002137637Y0002948858D02*
X0002007637Y0002948858D01*
X0001024212Y0003578858D02*
X0001002637Y0003557283D01*
X0001647637Y0003578858D02*
X0001024212Y0003578858D01*
X0001737637Y0003668858D02*
X0001647637Y0003578858D01*
X0001897637Y0003668858D02*
X0001737637Y0003668858D01*
X0001987637Y0003578858D02*
X0001897637Y0003668858D01*
X0002217401Y0002868503D02*
X0002217401Y0002869094D01*
X0002217401Y0002868503D02*
X0002212992Y0002868503D01*
X0002217401Y0002868503D02*
X0002217401Y0002894094D01*
X0000427637Y0003008858D02*
X0000427637Y0002928858D01*
X0000577637Y0002778858D02*
X0000577637Y0002608858D01*
X0000427637Y0002928858D02*
X0000577637Y0002778858D01*
X0002112637Y0003698858D02*
X0002137637Y0003698858D01*
X0000957637Y0003588858D02*
X0001067637Y0003698858D01*
X0001067637Y0003698858D02*
X0001227637Y0003698858D01*
X0000952637Y0003588858D02*
X0000957637Y0003588858D01*
X0001227637Y0003698858D02*
X0002112637Y0003698858D01*
X0002137637Y0003698858D02*
X0002277637Y0003558858D01*
X0001127637Y0003168858D02*
X0001177637Y0003218858D01*
X0001177637Y0003218858D02*
X0001177637Y0003338858D01*
X0001177637Y0003338858D02*
X0001117637Y0003398858D01*
X0001117637Y0003398858D02*
X0001087637Y0003398858D01*
X0001087637Y0003398858D02*
X0001077637Y0003408858D01*
X0001127637Y0003008858D02*
X0001127637Y0003158858D01*
X0000952637Y0003533858D02*
X0000952637Y0003588858D01*
X0000952637Y0003588858D02*
X0000952637Y0003583858D01*
X0001077637Y0003408858D02*
X0000952637Y0003533858D01*
X0001127637Y0003158858D02*
X0001127637Y0003168858D01*
X0001229212Y0002808858D02*
X0001129212Y0002808858D01*
X0001227637Y0002908858D02*
X0001227637Y0002810433D01*
X0001227637Y0002810433D02*
X0001229212Y0002808858D01*
X0001227637Y0003008858D02*
X0001227637Y0002908858D01*
X0001377637Y0003338858D02*
X0001377637Y0003368858D01*
X0000592637Y0003058858D02*
X0001062637Y0003058858D01*
X0001062637Y0003058858D02*
X0001077637Y0003043858D01*
X0001077637Y0003043858D02*
X0001077637Y0002978858D01*
X0001077637Y0002978858D02*
X0001097637Y0002958858D01*
X0001097637Y0002958858D02*
X0001152637Y0002958858D01*
X0001152637Y0002958858D02*
X0001177637Y0002983858D01*
X0001177637Y0002983858D02*
X0001177637Y0003073858D01*
X0001177637Y0003073858D02*
X0001287637Y0003183858D01*
X0001287637Y0003183858D02*
X0001342637Y0003183858D01*
X0001342637Y0003183858D02*
X0001377637Y0003218858D01*
X0000542637Y0003108858D02*
X0000592637Y0003058858D01*
X0001377637Y0003218858D02*
X0001377637Y0003338858D01*
X0001499291Y0003420511D02*
X0001499291Y0003478936D01*
X0001487637Y0003408858D02*
X0001499291Y0003420511D01*
X0001417637Y0003408858D02*
X0001487637Y0003408858D01*
X0001377637Y0003368858D02*
X0001417637Y0003408858D01*
X0001499291Y0003460511D02*
X0001499291Y0003478936D01*
X0000527637Y0003108858D02*
X0000542637Y0003108858D01*
X0000577637Y0003158858D02*
X0000642637Y0003158858D01*
X0000527637Y0003108858D02*
X0000577637Y0003158858D01*
X0000677637Y0003258858D02*
X0000627637Y0003308858D01*
X0000677637Y0003168858D02*
X0000677637Y0003258858D01*
X0000667637Y0003158858D02*
X0000677637Y0003168858D01*
X0000642637Y0003158858D02*
X0000667637Y0003158858D01*
X0000627637Y0003308858D02*
X0000622637Y0003308858D01*
D78*
X0001777637Y0003408858D02*
X0001777637Y0003608858D01*
D77*
X0001827637Y0003207283D02*
X0001827637Y0003148858D01*
X0001827637Y0003148858D02*
X0001777637Y0003098858D01*
X0001777637Y0003098858D02*
X0001777637Y0002818858D01*
X0001777637Y0002818858D02*
X0001617637Y0002658858D01*
X0001617637Y0002658858D02*
X0001372637Y0002658858D01*
X0001372637Y0002658858D02*
X0001351062Y0002637283D01*
X0001351062Y0002637283D02*
X0001351062Y0002608858D01*
X0000326062Y0002908858D02*
X0000326062Y0002887283D01*
X0000326062Y0002887283D02*
X0000282637Y0002843858D01*
X0000282637Y0002843858D02*
X0000282637Y0002768858D01*
X0000282637Y0002768858D02*
X0000427637Y0002643858D01*
X0000427637Y0002643858D02*
X0000427637Y0002628858D01*
X0000827637Y0003008858D02*
X0000827637Y0002912007D01*
X0000827637Y0002912007D02*
X0000824488Y0002908858D01*
X0000727637Y0003008858D02*
X0000627637Y0002908858D01*
X0000908740Y0003478936D02*
X0000908740Y0003439960D01*
X0000577637Y0003418858D02*
X0000577637Y0003413858D01*
X0000582637Y0003418858D02*
X0000577637Y0003418858D01*
X0000887637Y0003418858D02*
X0000582637Y0003418858D01*
X0000908740Y0003439960D02*
X0000887637Y0003418858D01*
X0000577637Y0003413858D02*
X0000527637Y0003363858D01*
X0000527637Y0003363858D02*
X0000527637Y0003308858D01*
X0000318503Y0003557992D02*
X0000318503Y0003479251D01*
X0000318503Y0003479251D02*
X0000318188Y0003478936D01*
X0000427637Y0003308858D02*
X0000427637Y0003353858D01*
X0000369370Y0003608858D02*
X0000318503Y0003557992D01*
X0000318503Y0003557992D02*
X0000318188Y0003557677D01*
X0000447637Y0003608858D02*
X0000369370Y0003608858D01*
X0000477637Y0003578858D02*
X0000447637Y0003608858D01*
X0000477637Y0003403858D02*
X0000477637Y0003578858D01*
X0000427637Y0003353858D02*
X0000477637Y0003403858D01*
X0000427637Y0003308858D02*
X0000427637Y0003328858D01*
X0001527637Y0003008858D02*
X0001527637Y0002908858D01*
X0001427637Y0003008858D02*
X0001427637Y0002908858D01*
X0000929212Y0002808858D02*
X0000927637Y0002808858D01*
X0000927637Y0002808858D02*
X0000802637Y0002683858D01*
X0000802637Y0002683858D02*
X0000802637Y0002608858D01*
X0000427637Y0003560433D02*
X0000427637Y0003558858D01*
X0000427637Y0003558858D02*
X0000377637Y0003508858D01*
X0000127637Y0002643858D02*
X0000127637Y0002608858D01*
X0000257637Y0002773858D02*
X0000127637Y0002643858D01*
X0000257637Y0003088858D02*
X0000257637Y0002773858D01*
X0000377637Y0003208858D02*
X0000257637Y0003088858D01*
X0000377637Y0003508858D02*
X0000377637Y0003208858D01*
X0000427637Y0003560433D02*
X0000414212Y0003560433D01*
D79*
X0002202637Y0002608858D02*
X0002202637Y0002748031D01*
X0002202637Y0002748031D02*
X0002191810Y0002758858D01*
D77*
X0001202637Y0003758858D02*
X0002167637Y0003758858D01*
X0002347637Y0003438858D02*
X0002347637Y0003258858D01*
X0002357637Y0003448858D02*
X0002347637Y0003438858D01*
X0002357637Y0003568858D02*
X0002357637Y0003448858D01*
X0002167637Y0003758858D02*
X0002357637Y0003568858D01*
X0002347637Y0003258858D02*
X0002312637Y0003258858D01*
D79*
X0002347637Y0002758858D02*
X0002347637Y0002616062D01*
X0002347637Y0002616062D02*
X0002340433Y0002608858D01*
X0002127637Y0003116535D02*
X0002194960Y0003116535D01*
X0002194960Y0003116535D02*
X0002347637Y0002988858D01*
X0002347637Y0002988858D02*
X0002347637Y0002758858D01*
D77*
X0001627637Y0003408858D02*
X0001561400Y0003408858D01*
X0001027637Y0002658858D02*
X0001117637Y0002748858D01*
X0001117637Y0002748858D02*
X0001457637Y0002748858D01*
X0001457637Y0002748858D02*
X0001477637Y0002768858D01*
X0001027637Y0002658858D02*
X0001027637Y0002608858D01*
X0001477637Y0003338858D02*
X0001477637Y0002768858D01*
X0001493763Y0003354984D02*
X0001477637Y0003338858D01*
X0001507526Y0003354984D02*
X0001493763Y0003354984D01*
X0001561400Y0003408858D02*
X0001507526Y0003354984D01*
X0001627637Y0003408858D02*
X0001657637Y0003408858D01*
X0001657637Y0003408858D02*
X0001717637Y0003348858D01*
X0001827637Y0003378858D02*
X0001827637Y0003408858D01*
X0001797637Y0003348858D02*
X0001827637Y0003378858D01*
X0001717637Y0003348858D02*
X0001797637Y0003348858D01*
G04 next file*
G04 #@! TF.FileFunction,Copper,L2,Bot,Signal*
G04 Gerber Fmt 4.6, Leading zero omitted, Abs format (unit mm)*
G04 Created by KiCad (PCBNEW 4.0.6) date 06/26/19 16:14:44*
G01*
G04 APERTURE LIST*
G04 APERTURE END LIST*
D80*
D81*
X-0000787401Y-0001456692D02*
X0003557677Y0002122755D03*
X0003557677Y0002222755D03*
D82*
X0003557677Y0002322755D03*
D83*
X0002837598Y0000477480D03*
X0002837598Y0000249133D03*
D84*
X0002987598Y0001113307D03*
D85*
X0002987598Y0001013307D03*
X0002987598Y0000913307D03*
X0002987598Y0000813307D03*
X0002987598Y0000713307D03*
X0002987598Y0000613307D03*
D86*
X0003087598Y0000813307D03*
D87*
X0003387598Y0002113307D03*
X0003087598Y0000913307D03*
X0003387598Y0002013307D03*
X0003087598Y0001013307D03*
X0003387598Y0001913307D03*
X0003087598Y0001113307D03*
X0003387598Y0001813307D03*
X0003087598Y0001213307D03*
X0003387598Y0001713307D03*
X0003087598Y0001313307D03*
X0003387598Y0001613307D03*
X0003087598Y0001413307D03*
X0003387598Y0001513307D03*
X0003087598Y0001513307D03*
X0003387598Y0001413307D03*
X0003087598Y0001613307D03*
X0003387598Y0001313307D03*
X0003087598Y0001713307D03*
X0003387598Y0001213307D03*
X0003087598Y0001813307D03*
X0003387598Y0001113307D03*
X0003087598Y0001913307D03*
X0003387598Y0001013307D03*
X0003087598Y0002013307D03*
X0003387598Y0000913307D03*
X0003087598Y0002113307D03*
X0003387598Y0000813307D03*
D88*
X0002687598Y0000463307D03*
D89*
X0002687598Y0000601102D03*
D88*
X0002687598Y0000238307D03*
D89*
X0002687598Y0000100511D03*
D90*
X0002987598Y0001813307D03*
X0002987598Y0001714881D03*
X0002987598Y0001616456D03*
D91*
X0003337598Y0000093307D03*
D92*
X0002837598Y0000093307D03*
D93*
X0003637598Y0000363307D03*
X0003637598Y0000163307D03*
D94*
X0002887598Y0001211732D03*
D95*
X0002887598Y0001011732D03*
D94*
X0002887598Y0001511732D03*
D95*
X0002887598Y0001311732D03*
D96*
X0003487598Y0000813307D03*
X0003586023Y0000813307D03*
X0003687598Y0000663307D03*
X0003687598Y0000564881D03*
X0002987598Y0001213307D03*
X0002987598Y0001311732D03*
D97*
X0002707598Y0002113307D03*
D98*
X0002707598Y0002013307D03*
D99*
X0003487598Y0000613307D03*
X0003487598Y0000663307D03*
D100*
X0003487598Y0000563307D03*
D96*
X0002987598Y0001413307D03*
X0002987598Y0001511732D03*
X0002887598Y0000913307D03*
X0002887598Y0000814881D03*
D94*
X0003089173Y0000713307D03*
D95*
X0003289173Y0000713307D03*
D96*
X0003537598Y0001913307D03*
X0003537598Y0002011732D03*
D94*
X0003639173Y0002013307D03*
D95*
X0003839173Y0002013307D03*
D94*
X0003836023Y0001913307D03*
D95*
X0003636023Y0001913307D03*
D81*
X0003557677Y0001532204D03*
X0003557677Y0001632204D03*
D82*
X0003557677Y0001732204D03*
D81*
X0003557677Y0000941653D03*
X0003557677Y0001041653D03*
D82*
X0003557677Y0001141653D03*
D94*
X0003286023Y0000613307D03*
D95*
X0003086023Y0000613307D03*
D94*
X0003286023Y0000513307D03*
D95*
X0003086023Y0000513307D03*
D94*
X0002987598Y0001914881D03*
D95*
X0002987598Y0002114881D03*
D96*
X0003537598Y0001238307D03*
X0003837598Y0001238307D03*
X0003537598Y0001338307D03*
X0003837598Y0001338307D03*
D94*
X0003836023Y0001438307D03*
D95*
X0003636023Y0001438307D03*
D101*
X0002947244Y0000223543D03*
X0002947244Y0000403070D03*
D102*
X0003195275Y0000313307D03*
D103*
X0003261220Y0000373346D03*
X0003129330Y0000253267D03*
X0003261220Y0000253267D03*
X0003129330Y0000373346D03*
D84*
X0003187598Y0001913307D03*
D85*
X0003287598Y0001913307D03*
X0003187598Y0001813307D03*
X0003287598Y0001813307D03*
X0003187598Y0001713307D03*
X0003287598Y0001713307D03*
D104*
X0002687598Y0001413307D03*
D105*
X0002687598Y0001364094D03*
D104*
X0002687598Y0001188307D03*
D105*
X0002687598Y0001139094D03*
X0002687598Y0001089881D03*
X0002687598Y0001040669D03*
D104*
X0002687598Y0002313307D03*
D105*
X0002687598Y0002264094D03*
D104*
X0002687598Y0001863307D03*
D105*
X0002687598Y0001814094D03*
D104*
X0002687598Y0001638307D03*
D105*
X0002687598Y0001589094D03*
D104*
X0002687598Y0000863307D03*
D105*
X0002687598Y0000814094D03*
X0002687598Y0000764881D03*
D106*
X0003187598Y0001343307D03*
X0003327598Y0002143307D03*
X0003787598Y0001483307D03*
D107*
X0003187598Y0001713307D02*
X0003187598Y0001343307D01*
D108*
X0003387598Y0001413307D02*
X0003347598Y0001413307D01*
X0003287598Y0001473307D02*
X0003287598Y0001713307D01*
X0003347598Y0001413307D02*
X0003287598Y0001473307D01*
X0002687598Y0002264094D02*
X0002687598Y0002133307D01*
X0002687598Y0002133307D02*
X0002707598Y0002113307D01*
X0002687598Y0001040669D02*
X0002684960Y0001040669D01*
X0002684960Y0001040669D02*
X0002647598Y0001003307D01*
X0002687598Y0001589094D02*
X0002687598Y0001583307D01*
X0002687598Y0001583307D02*
X0002647598Y0001543307D01*
X0002687598Y0001814094D02*
X0002687598Y0001813307D01*
X0002687598Y0001813307D02*
X0002647598Y0001773307D01*
X0002687598Y0000764881D02*
X0002676023Y0000764881D01*
X0002676023Y0000764881D02*
X0002647598Y0000793307D01*
X0002647598Y0002053307D02*
X0002707598Y0002113307D01*
X0002647598Y0001773307D02*
X0002647598Y0002053307D01*
X0002647598Y0000793307D02*
X0002647598Y0001003307D01*
X0002647598Y0001003307D02*
X0002647598Y0001543307D01*
X0002647598Y0001543307D02*
X0002647598Y0001773307D01*
X0003836023Y0001438307D02*
X0003762598Y0001438307D01*
X0003762598Y0001438307D02*
X0003568700Y0001632204D01*
X0003568700Y0001632204D02*
X0003557677Y0001632204D01*
X0002947244Y0000463307D02*
X0002947244Y0000572952D01*
X0002947244Y0000572952D02*
X0002987598Y0000613307D01*
D109*
X0002849803Y0000601102D02*
X0002859803Y0000601102D01*
X0002687598Y0000601102D02*
X0002849803Y0000601102D01*
X0002947244Y0000513661D02*
X0002947244Y0000463307D01*
X0002947244Y0000463307D02*
X0002947244Y0000403070D01*
X0002859803Y0000601102D02*
X0002947244Y0000513661D01*
D108*
X0002987598Y0001311732D02*
X0002979173Y0001311732D01*
X0002979173Y0001311732D02*
X0002922598Y0001368307D01*
X0002922598Y0001446732D02*
X0002987598Y0001511732D01*
X0002922598Y0001368307D02*
X0002922598Y0001446732D01*
X0002687598Y0000601102D02*
X0002687598Y0000764881D01*
D107*
X0003839173Y0002321732D02*
X0003837598Y0002323307D01*
X0003837598Y0002323307D02*
X0003837598Y0002327070D01*
X0003837598Y0002327070D02*
X0003747487Y0002417181D01*
X0003747487Y0002417181D02*
X0003481472Y0002417181D01*
X0003481472Y0002417181D02*
X0003327598Y0002263307D01*
X0003327598Y0002263307D02*
X0003327598Y0002143307D01*
X0003839173Y0002321732D02*
X0003839173Y0002013307D01*
X0003360098Y0001860807D02*
X0003420098Y0001860807D01*
X0003420098Y0001860807D02*
X0003467598Y0001813307D01*
X0003467598Y0001813307D02*
X0003467598Y0001393307D01*
X0003467598Y0001393307D02*
X0003387598Y0001313307D01*
X0003417598Y0001963307D02*
X0003437598Y0001963307D01*
X0003362598Y0001963307D02*
X0003417598Y0001963307D01*
X0003537598Y0001913307D02*
X0003487598Y0001913307D01*
X0003437598Y0001963307D02*
X0003487598Y0001913307D01*
X0003337598Y0001938307D02*
X0003362598Y0001963307D01*
X0003337598Y0001883307D02*
X0003337598Y0001938307D01*
X0003360098Y0001860807D02*
X0003337598Y0001883307D01*
X0003836023Y0001913307D02*
X0003836023Y0002010157D01*
X0003836023Y0002010157D02*
X0003839173Y0002013307D01*
X0003836023Y0001913307D02*
X0003827598Y0001913307D01*
X0003387598Y0001113307D02*
X0003392598Y0001113307D01*
X0003537598Y0001238307D02*
X0003537598Y0001338307D01*
X0003387598Y0001013307D02*
X0003437598Y0001013307D01*
X0003602598Y0001238307D02*
X0003537598Y0001238307D01*
X0003627598Y0001213307D02*
X0003602598Y0001238307D01*
X0003627598Y0000933307D02*
X0003627598Y0001213307D01*
X0003577598Y0000883307D02*
X0003627598Y0000933307D01*
X0003517598Y0000883307D02*
X0003577598Y0000883307D01*
X0003457598Y0000943307D02*
X0003517598Y0000883307D01*
X0003457598Y0000993307D02*
X0003457598Y0000943307D01*
X0003437598Y0001013307D02*
X0003457598Y0000993307D01*
X0002687598Y0001188307D02*
X0002732598Y0001188307D01*
X0003217598Y0000913307D02*
X0003387598Y0000913307D01*
X0003167598Y0000863307D02*
X0003217598Y0000913307D01*
X0002842598Y0000863307D02*
X0003167598Y0000863307D01*
X0002797598Y0000908307D02*
X0002842598Y0000863307D01*
X0002797598Y0001123307D02*
X0002797598Y0000908307D01*
X0002732598Y0001188307D02*
X0002797598Y0001123307D01*
X0002687598Y0001139094D02*
X0002721811Y0001139094D01*
X0003217598Y0000813307D02*
X0003387598Y0000813307D01*
X0003167598Y0000763307D02*
X0003217598Y0000813307D01*
X0002847598Y0000763307D02*
X0003167598Y0000763307D01*
X0002767598Y0000843307D02*
X0002847598Y0000763307D01*
X0002767598Y0001093307D02*
X0002767598Y0000843307D01*
X0002721811Y0001139094D02*
X0002767598Y0001093307D01*
X0003787598Y0001483307D02*
X0003787598Y0002063307D01*
X0003387598Y0002283307D02*
X0003387598Y0002113307D01*
X0003497598Y0002393307D02*
X0003387598Y0002283307D01*
X0003737598Y0002393307D02*
X0003497598Y0002393307D01*
X0003787598Y0002343307D02*
X0003737598Y0002393307D01*
X0003787598Y0002063307D02*
X0003787598Y0002343307D01*
X0003417598Y0000453307D02*
X0003657598Y0000453307D01*
X0003027598Y0000433307D02*
X0003047598Y0000453307D01*
X0003047598Y0000453307D02*
X0003417598Y0000453307D01*
X0002947834Y0000223543D02*
X0003027598Y0000303307D01*
X0003027598Y0000303307D02*
X0003027598Y0000433307D01*
X0003657598Y0001416732D02*
X0003636023Y0001438307D01*
X0003657598Y0000793307D02*
X0003657598Y0001416732D01*
X0003747598Y0000703307D02*
X0003657598Y0000793307D01*
X0003747598Y0000543307D02*
X0003747598Y0000703307D01*
X0003657598Y0000453307D02*
X0003747598Y0000543307D01*
X0002947244Y0000223543D02*
X0002947834Y0000223543D01*
X0002947244Y0000223543D02*
X0002947244Y0000227952D01*
X0002947244Y0000223543D02*
X0002972834Y0000223543D01*
X0003087598Y0002013307D02*
X0003007598Y0002013307D01*
X0002857598Y0001863307D02*
X0002687598Y0001863307D01*
X0003007598Y0002013307D02*
X0002857598Y0001863307D01*
X0003777598Y0000328307D02*
X0003777598Y0000303307D01*
X0003667598Y0001483307D02*
X0003777598Y0001373307D01*
X0003777598Y0001373307D02*
X0003777598Y0001213307D01*
X0003667598Y0001488307D02*
X0003667598Y0001483307D01*
X0003777598Y0001213307D02*
X0003777598Y0000328307D01*
X0003777598Y0000303307D02*
X0003637598Y0000163307D01*
X0003247598Y0001313307D02*
X0003297598Y0001263307D01*
X0003297598Y0001263307D02*
X0003417598Y0001263307D01*
X0003417598Y0001263307D02*
X0003477598Y0001323307D01*
X0003477598Y0001323307D02*
X0003477598Y0001353307D01*
X0003477598Y0001353307D02*
X0003487598Y0001363307D01*
X0003087598Y0001313307D02*
X0003237598Y0001313307D01*
X0003612598Y0001488307D02*
X0003667598Y0001488307D01*
X0003667598Y0001488307D02*
X0003662598Y0001488307D01*
X0003487598Y0001363307D02*
X0003612598Y0001488307D01*
X0003237598Y0001313307D02*
X0003247598Y0001313307D01*
X0002887598Y0001211732D02*
X0002887598Y0001311732D01*
X0002987598Y0001213307D02*
X0002889173Y0001213307D01*
X0002889173Y0001213307D02*
X0002887598Y0001211732D01*
X0003087598Y0001213307D02*
X0002987598Y0001213307D01*
X0003417598Y0001063307D02*
X0003447598Y0001063307D01*
X0003137598Y0001848307D02*
X0003137598Y0001378307D01*
X0003137598Y0001378307D02*
X0003122598Y0001363307D01*
X0003122598Y0001363307D02*
X0003057598Y0001363307D01*
X0003057598Y0001363307D02*
X0003037598Y0001343307D01*
X0003037598Y0001343307D02*
X0003037598Y0001288307D01*
X0003037598Y0001288307D02*
X0003062598Y0001263307D01*
X0003062598Y0001263307D02*
X0003152598Y0001263307D01*
X0003152598Y0001263307D02*
X0003262598Y0001153307D01*
X0003262598Y0001153307D02*
X0003262598Y0001098307D01*
X0003262598Y0001098307D02*
X0003297598Y0001063307D01*
X0003187598Y0001898307D02*
X0003137598Y0001848307D01*
X0003297598Y0001063307D02*
X0003417598Y0001063307D01*
X0003499251Y0000941653D02*
X0003557677Y0000941653D01*
X0003487598Y0000953307D02*
X0003499251Y0000941653D01*
X0003487598Y0001023307D02*
X0003487598Y0000953307D01*
X0003447598Y0001063307D02*
X0003487598Y0001023307D01*
X0003539251Y0000941653D02*
X0003557677Y0000941653D01*
X0003187598Y0001913307D02*
X0003187598Y0001898307D01*
X0003237598Y0001863307D02*
X0003237598Y0001798307D01*
X0003187598Y0001913307D02*
X0003237598Y0001863307D01*
X0003337598Y0001763307D02*
X0003387598Y0001813307D01*
X0003247598Y0001763307D02*
X0003337598Y0001763307D01*
X0003237598Y0001773307D02*
X0003247598Y0001763307D01*
X0003237598Y0001798307D02*
X0003237598Y0001773307D01*
X0003387598Y0001813307D02*
X0003387598Y0001818307D01*
D108*
X0003487598Y0000663307D02*
X0003687598Y0000663307D01*
D107*
X0003286023Y0000613307D02*
X0003227598Y0000613307D01*
X0003227598Y0000613307D02*
X0003177598Y0000663307D01*
X0003177598Y0000663307D02*
X0002897598Y0000663307D01*
X0002897598Y0000663307D02*
X0002737598Y0000823307D01*
X0002737598Y0000823307D02*
X0002737598Y0001068307D01*
X0002737598Y0001068307D02*
X0002716023Y0001089881D01*
X0002716023Y0001089881D02*
X0002687598Y0001089881D01*
X0002987598Y0002114881D02*
X0002966023Y0002114881D01*
X0002966023Y0002114881D02*
X0002922598Y0002158307D01*
X0002922598Y0002158307D02*
X0002847598Y0002158307D01*
X0002847598Y0002158307D02*
X0002722598Y0002013307D01*
X0002722598Y0002013307D02*
X0002707598Y0002013307D01*
X0003087598Y0001613307D02*
X0002990748Y0001613307D01*
X0002990748Y0001613307D02*
X0002987598Y0001616456D01*
X0003087598Y0001713307D02*
X0002987598Y0001813307D01*
X0003557677Y0001532204D02*
X0003518700Y0001532204D01*
X0003497598Y0001863307D02*
X0003492598Y0001863307D01*
X0003497598Y0001858307D02*
X0003497598Y0001863307D01*
X0003497598Y0001553307D02*
X0003497598Y0001858307D01*
X0003518700Y0001532204D02*
X0003497598Y0001553307D01*
X0003492598Y0001863307D02*
X0003442598Y0001913307D01*
X0003442598Y0001913307D02*
X0003387598Y0001913307D01*
X0003636732Y0002122440D02*
X0003557992Y0002122440D01*
X0003557992Y0002122440D02*
X0003557677Y0002122755D01*
X0003387598Y0002013307D02*
X0003432598Y0002013307D01*
X0003687598Y0002071574D02*
X0003636732Y0002122440D01*
X0003636732Y0002122440D02*
X0003636417Y0002122755D01*
X0003687598Y0001993307D02*
X0003687598Y0002071574D01*
X0003657598Y0001963307D02*
X0003687598Y0001993307D01*
X0003482598Y0001963307D02*
X0003657598Y0001963307D01*
X0003432598Y0002013307D02*
X0003482598Y0001963307D01*
X0003387598Y0002013307D02*
X0003407598Y0002013307D01*
X0003087598Y0000913307D02*
X0002987598Y0000913307D01*
X0003087598Y0001013307D02*
X0002987598Y0001013307D01*
X0002887598Y0001511732D02*
X0002887598Y0001513307D01*
X0002887598Y0001513307D02*
X0002762598Y0001638307D01*
X0002762598Y0001638307D02*
X0002687598Y0001638307D01*
X0003639173Y0002013307D02*
X0003637598Y0002013307D01*
X0003637598Y0002013307D02*
X0003587598Y0002063307D01*
X0002722598Y0002313307D02*
X0002687598Y0002313307D01*
X0002852598Y0002183307D02*
X0002722598Y0002313307D01*
X0003167598Y0002183307D02*
X0002852598Y0002183307D01*
X0003287598Y0002063307D02*
X0003167598Y0002183307D01*
X0003587598Y0002063307D02*
X0003287598Y0002063307D01*
X0003639173Y0002013307D02*
X0003639173Y0002026732D01*
D109*
X0002687598Y0000238307D02*
X0002826771Y0000238307D01*
X0002826771Y0000238307D02*
X0002837598Y0000249133D01*
D107*
X0003837598Y0001238307D02*
X0003837598Y0000273307D01*
X0003517598Y0000093307D02*
X0003337598Y0000093307D01*
X0003527598Y0000083307D02*
X0003517598Y0000093307D01*
X0003647598Y0000083307D02*
X0003527598Y0000083307D01*
X0003837598Y0000273307D02*
X0003647598Y0000083307D01*
X0003337598Y0000093307D02*
X0003337598Y0000128307D01*
D109*
X0002837598Y0000093307D02*
X0002694803Y0000093307D01*
X0002694803Y0000093307D02*
X0002687598Y0000100511D01*
X0003195275Y0000313307D02*
X0003195275Y0000245984D01*
X0003195275Y0000245984D02*
X0003067598Y0000093307D01*
X0003067598Y0000093307D02*
X0002837598Y0000093307D01*
D107*
X0003487598Y0000813307D02*
X0003487598Y0000879543D01*
X0002737598Y0001413307D02*
X0002827598Y0001323307D01*
X0002827598Y0001323307D02*
X0002827598Y0000983307D01*
X0002827598Y0000983307D02*
X0002847598Y0000963307D01*
X0002737598Y0001413307D02*
X0002687598Y0001413307D01*
X0003417598Y0000963307D02*
X0002847598Y0000963307D01*
X0003433724Y0000947181D02*
X0003417598Y0000963307D01*
X0003433724Y0000933418D02*
X0003433724Y0000947181D01*
X0003487598Y0000879543D02*
X0003433724Y0000933418D01*
X0003487598Y0000813307D02*
X0003487598Y0000783307D01*
X0003487598Y0000783307D02*
X0003427598Y0000723307D01*
X0003457598Y0000613307D02*
X0003487598Y0000613307D01*
X0003427598Y0000643307D02*
X0003457598Y0000613307D01*
X0003427598Y0000723307D02*
X0003427598Y0000643307D01*
M02*