G04 #@! TF.FileFunction,Legend,Bot*
%FSLAX46Y46*%
G04 Gerber Fmt 4.6, Leading zero omitted, Abs format (unit mm)*
G04 Created by KiCad (PCBNEW (2015-08-15 BZR 6092)-product) date 3/24/2016 2:34:01 PM*
%MOMM*%
G01*
G04 APERTURE LIST*
%ADD10C,0.100000*%
%ADD11C,0.177800*%
%ADD12C,0.285750*%
%ADD13C,0.300000*%
%ADD14C,0.002540*%
G04 APERTURE END LIST*
D10*
D11*
X146113428Y-97897143D02*
X144970571Y-97897143D01*
X145542000Y-98468571D02*
X145542000Y-97325714D01*
D12*
X144770929Y-107269642D02*
X145315214Y-107650642D01*
X144770929Y-107922785D02*
X145913929Y-107922785D01*
X145913929Y-107487357D01*
X145859500Y-107378499D01*
X145805071Y-107324071D01*
X145696214Y-107269642D01*
X145532929Y-107269642D01*
X145424071Y-107324071D01*
X145369643Y-107378499D01*
X145315214Y-107487357D01*
X145315214Y-107922785D01*
X144825357Y-106344357D02*
X144770929Y-106453214D01*
X144770929Y-106670928D01*
X144825357Y-106779785D01*
X144934214Y-106834214D01*
X145369643Y-106834214D01*
X145478500Y-106779785D01*
X145532929Y-106670928D01*
X145532929Y-106453214D01*
X145478500Y-106344357D01*
X145369643Y-106289928D01*
X145260786Y-106289928D01*
X145151929Y-106834214D01*
X145532929Y-105908928D02*
X144770929Y-105636785D01*
X145532929Y-105364643D01*
X145913929Y-103840643D02*
X145913929Y-103731786D01*
X145859500Y-103622929D01*
X145805071Y-103568500D01*
X145696214Y-103514071D01*
X145478500Y-103459643D01*
X145206357Y-103459643D01*
X144988643Y-103514071D01*
X144879786Y-103568500D01*
X144825357Y-103622929D01*
X144770929Y-103731786D01*
X144770929Y-103840643D01*
X144825357Y-103949500D01*
X144879786Y-104003929D01*
X144988643Y-104058357D01*
X145206357Y-104112786D01*
X145478500Y-104112786D01*
X145696214Y-104058357D01*
X145805071Y-104003929D01*
X145859500Y-103949500D01*
X145913929Y-103840643D01*
X144879786Y-102969786D02*
X144825357Y-102915358D01*
X144770929Y-102969786D01*
X144825357Y-103024215D01*
X144879786Y-102969786D01*
X144770929Y-102969786D01*
X145805071Y-102479929D02*
X145859500Y-102425500D01*
X145913929Y-102316643D01*
X145913929Y-102044500D01*
X145859500Y-101935643D01*
X145805071Y-101881214D01*
X145696214Y-101826786D01*
X145587357Y-101826786D01*
X145424071Y-101881214D01*
X144770929Y-102534357D01*
X144770929Y-101826786D01*
D13*
X143311142Y-87737143D02*
X142168285Y-87737143D01*
X140382571Y-88237143D02*
X140168285Y-88308571D01*
X139811142Y-88308571D01*
X139668285Y-88237143D01*
X139596856Y-88165714D01*
X139525428Y-88022857D01*
X139525428Y-87880000D01*
X139596856Y-87737143D01*
X139668285Y-87665714D01*
X139811142Y-87594286D01*
X140096856Y-87522857D01*
X140239714Y-87451429D01*
X140311142Y-87380000D01*
X140382571Y-87237143D01*
X140382571Y-87094286D01*
X140311142Y-86951429D01*
X140239714Y-86880000D01*
X140096856Y-86808571D01*
X139739714Y-86808571D01*
X139525428Y-86880000D01*
X137739714Y-87737143D02*
X136596857Y-87737143D01*
X137168286Y-88308571D02*
X137168286Y-87165714D01*
X144307143Y-86022571D02*
X145021429Y-86022571D01*
X145021429Y-84522571D01*
X143592857Y-86022571D02*
X143735715Y-85951143D01*
X143807143Y-85879714D01*
X143878572Y-85736857D01*
X143878572Y-85308286D01*
X143807143Y-85165429D01*
X143735715Y-85094000D01*
X143592857Y-85022571D01*
X143378572Y-85022571D01*
X143235715Y-85094000D01*
X143164286Y-85165429D01*
X143092857Y-85308286D01*
X143092857Y-85736857D01*
X143164286Y-85879714D01*
X143235715Y-85951143D01*
X143378572Y-86022571D01*
X143592857Y-86022571D01*
X141807143Y-85022571D02*
X141807143Y-86236857D01*
X141878572Y-86379714D01*
X141950000Y-86451143D01*
X142092857Y-86522571D01*
X142307143Y-86522571D01*
X142450000Y-86451143D01*
X141807143Y-85951143D02*
X141950000Y-86022571D01*
X142235714Y-86022571D01*
X142378572Y-85951143D01*
X142450000Y-85879714D01*
X142521429Y-85736857D01*
X142521429Y-85308286D01*
X142450000Y-85165429D01*
X142378572Y-85094000D01*
X142235714Y-85022571D01*
X141950000Y-85022571D01*
X141807143Y-85094000D01*
X141092857Y-86022571D02*
X141092857Y-85022571D01*
X141092857Y-84522571D02*
X141164286Y-84594000D01*
X141092857Y-84665429D01*
X141021429Y-84594000D01*
X141092857Y-84522571D01*
X141092857Y-84665429D01*
X139735714Y-85951143D02*
X139878571Y-86022571D01*
X140164285Y-86022571D01*
X140307143Y-85951143D01*
X140378571Y-85879714D01*
X140450000Y-85736857D01*
X140450000Y-85308286D01*
X140378571Y-85165429D01*
X140307143Y-85094000D01*
X140164285Y-85022571D01*
X139878571Y-85022571D01*
X139735714Y-85094000D01*
X137450000Y-85236857D02*
X137235714Y-85308286D01*
X137164286Y-85379714D01*
X137092857Y-85522571D01*
X137092857Y-85736857D01*
X137164286Y-85879714D01*
X137235714Y-85951143D01*
X137378572Y-86022571D01*
X137950000Y-86022571D01*
X137950000Y-84522571D01*
X137450000Y-84522571D01*
X137307143Y-84594000D01*
X137235714Y-84665429D01*
X137164286Y-84808286D01*
X137164286Y-84951143D01*
X137235714Y-85094000D01*
X137307143Y-85165429D01*
X137450000Y-85236857D01*
X137950000Y-85236857D01*
X136450000Y-86022571D02*
X136450000Y-85022571D01*
X136450000Y-84522571D02*
X136521429Y-84594000D01*
X136450000Y-84665429D01*
X136378572Y-84594000D01*
X136450000Y-84522571D01*
X136450000Y-84665429D01*
X135950000Y-85022571D02*
X135378571Y-85022571D01*
X135735714Y-84522571D02*
X135735714Y-85808286D01*
X135664286Y-85951143D01*
X135521428Y-86022571D01*
X135378571Y-86022571D01*
X134950000Y-85951143D02*
X134807143Y-86022571D01*
X134521428Y-86022571D01*
X134378571Y-85951143D01*
X134307143Y-85808286D01*
X134307143Y-85736857D01*
X134378571Y-85594000D01*
X134521428Y-85522571D01*
X134735714Y-85522571D01*
X134878571Y-85451143D01*
X134950000Y-85308286D01*
X134950000Y-85236857D01*
X134878571Y-85094000D01*
X134735714Y-85022571D01*
X134521428Y-85022571D01*
X134378571Y-85094000D01*
D14*
G36*
X136730740Y-104665780D02*
X136730740Y-104703880D01*
X136733280Y-104729280D01*
X136735820Y-104752140D01*
X136740900Y-104769920D01*
X136751060Y-104790240D01*
X136753600Y-104797860D01*
X136766300Y-104825800D01*
X136776460Y-104851200D01*
X136786620Y-104881680D01*
X136796780Y-104917240D01*
X136806940Y-104962960D01*
X136819640Y-105016300D01*
X136824720Y-105034080D01*
X136839960Y-105107740D01*
X136857740Y-105168700D01*
X136872980Y-105222040D01*
X136893300Y-105267760D01*
X136913620Y-105308400D01*
X136913620Y-104678480D01*
X136913620Y-104663240D01*
X136916160Y-104650540D01*
X136923780Y-104637840D01*
X136936480Y-104622600D01*
X136959340Y-104604820D01*
X136969500Y-104594660D01*
X136997440Y-104571800D01*
X137022840Y-104546400D01*
X137040620Y-104523540D01*
X137048240Y-104515920D01*
X137060940Y-104498140D01*
X137081260Y-104472740D01*
X137106660Y-104442260D01*
X137132060Y-104411780D01*
X137134600Y-104409240D01*
X137157460Y-104381300D01*
X137177780Y-104355900D01*
X137190480Y-104338120D01*
X137198100Y-104327960D01*
X137198100Y-104325420D01*
X137203180Y-104320340D01*
X137220960Y-104320340D01*
X137246360Y-104320340D01*
X137276840Y-104325420D01*
X137307320Y-104330500D01*
X137317480Y-104333040D01*
X137330180Y-104335580D01*
X137342880Y-104340660D01*
X137358120Y-104340660D01*
X137375900Y-104343200D01*
X137401300Y-104345740D01*
X137434320Y-104348280D01*
X137472420Y-104348280D01*
X137520680Y-104350820D01*
X137579100Y-104350820D01*
X137650220Y-104353360D01*
X137734040Y-104355900D01*
X137787380Y-104355900D01*
X137873740Y-104358440D01*
X137960100Y-104358440D01*
X138046460Y-104360980D01*
X138130280Y-104360980D01*
X138209020Y-104363520D01*
X138280140Y-104363520D01*
X138343640Y-104363520D01*
X138391900Y-104363520D01*
X138404600Y-104363520D01*
X138597640Y-104363520D01*
X138658600Y-104424480D01*
X138719560Y-104482900D01*
X138760200Y-104482900D01*
X138788140Y-104482900D01*
X138823700Y-104480360D01*
X138851640Y-104475280D01*
X138884660Y-104472740D01*
X138915140Y-104475280D01*
X138948160Y-104480360D01*
X138988800Y-104490520D01*
X139034520Y-104508300D01*
X139090400Y-104531160D01*
X139105640Y-104536240D01*
X139148820Y-104556560D01*
X139181840Y-104569260D01*
X139209780Y-104576880D01*
X139235180Y-104581960D01*
X139263120Y-104587040D01*
X139280900Y-104589580D01*
X139326620Y-104594660D01*
X139362180Y-104599740D01*
X139390120Y-104607360D01*
X139410440Y-104617520D01*
X139430760Y-104630220D01*
X139451080Y-104650540D01*
X139453620Y-104653080D01*
X139476480Y-104673400D01*
X139501880Y-104691180D01*
X139519660Y-104703880D01*
X139519660Y-104703880D01*
X139539980Y-104708960D01*
X139570460Y-104714040D01*
X139606020Y-104721660D01*
X139644120Y-104724200D01*
X139677140Y-104729280D01*
X139702540Y-104729280D01*
X139717780Y-104726740D01*
X139730480Y-104719120D01*
X139753340Y-104706420D01*
X139773660Y-104688640D01*
X139796520Y-104668320D01*
X139811760Y-104660700D01*
X139821920Y-104658160D01*
X139827000Y-104660700D01*
X139837160Y-104668320D01*
X139857480Y-104681020D01*
X139885420Y-104698800D01*
X139915900Y-104719120D01*
X139923520Y-104724200D01*
X140009880Y-104777540D01*
X140086080Y-104780080D01*
X140121640Y-104782620D01*
X140144500Y-104785160D01*
X140157200Y-104787700D01*
X140167360Y-104792780D01*
X140172440Y-104800400D01*
X140174980Y-104805480D01*
X140195300Y-104828340D01*
X140223240Y-104843580D01*
X140253720Y-104851200D01*
X140258800Y-104851200D01*
X140286740Y-104843580D01*
X140314680Y-104825800D01*
X140342620Y-104795320D01*
X140352780Y-104782620D01*
X140365480Y-104769920D01*
X140373100Y-104759760D01*
X140383260Y-104752140D01*
X140395960Y-104744520D01*
X140416280Y-104741980D01*
X140441680Y-104736900D01*
X140479780Y-104731820D01*
X140528040Y-104729280D01*
X140543280Y-104726740D01*
X140652500Y-104716580D01*
X140682980Y-104744520D01*
X140718540Y-104777540D01*
X140754100Y-104802940D01*
X140784580Y-104823260D01*
X140794740Y-104828340D01*
X140817600Y-104833420D01*
X140850620Y-104838500D01*
X140893800Y-104843580D01*
X140939520Y-104848660D01*
X140990320Y-104853740D01*
X141038580Y-104856280D01*
X141084300Y-104856280D01*
X141086840Y-104856280D01*
X141135100Y-104856280D01*
X141178280Y-104851200D01*
X141221460Y-104846120D01*
X141269720Y-104835960D01*
X141315440Y-104825800D01*
X141348460Y-104815640D01*
X141373860Y-104802940D01*
X141396720Y-104790240D01*
X141419580Y-104769920D01*
X141444980Y-104744520D01*
X141462760Y-104724200D01*
X141478000Y-104703880D01*
X141485620Y-104681020D01*
X141493240Y-104653080D01*
X141500860Y-104617520D01*
X141503400Y-104574340D01*
X141508480Y-104523540D01*
X141516100Y-104444800D01*
X141528800Y-104376220D01*
X141549120Y-104320340D01*
X141574520Y-104274620D01*
X141577060Y-104269540D01*
X141602460Y-104244140D01*
X141640560Y-104216200D01*
X141653260Y-104208580D01*
X141681200Y-104195880D01*
X141704060Y-104185720D01*
X141721840Y-104183180D01*
X141744700Y-104183180D01*
X141747240Y-104183180D01*
X141785340Y-104183180D01*
X141828520Y-104175560D01*
X141859000Y-104167940D01*
X141897100Y-104155240D01*
X141925040Y-104150160D01*
X141942820Y-104147620D01*
X141958060Y-104152700D01*
X141973300Y-104157780D01*
X141980920Y-104162860D01*
X142011400Y-104178100D01*
X142054580Y-104183180D01*
X142102840Y-104178100D01*
X142118080Y-104173020D01*
X142140940Y-104167940D01*
X142161260Y-104162860D01*
X142168880Y-104162860D01*
X142168880Y-104167940D01*
X142171420Y-104188260D01*
X142171420Y-104211120D01*
X142171420Y-104213660D01*
X142171420Y-104241600D01*
X142173960Y-104261920D01*
X142179040Y-104279700D01*
X142191740Y-104297480D01*
X142214600Y-104330500D01*
X142206980Y-104449880D01*
X142204440Y-104495600D01*
X142199360Y-104528620D01*
X142196820Y-104554020D01*
X142191740Y-104571800D01*
X142186660Y-104587040D01*
X142179040Y-104602280D01*
X142173960Y-104609900D01*
X142158720Y-104640380D01*
X142151100Y-104668320D01*
X142151100Y-104688640D01*
X142148560Y-104716580D01*
X142146020Y-104739440D01*
X142143480Y-104747060D01*
X142140940Y-104764840D01*
X142135860Y-104790240D01*
X142135860Y-104823260D01*
X142135860Y-104835960D01*
X142135860Y-104868980D01*
X142135860Y-104889300D01*
X142140940Y-104904540D01*
X142148560Y-104914700D01*
X142158720Y-104927400D01*
X142161260Y-104929940D01*
X142181580Y-104945180D01*
X142201900Y-104952800D01*
X142204440Y-104955340D01*
X142214600Y-104955340D01*
X142219680Y-104960420D01*
X142224760Y-104975660D01*
X142227300Y-105001060D01*
X142229840Y-105034080D01*
X142232380Y-105072180D01*
X142232380Y-105095040D01*
X142234920Y-105138220D01*
X142240000Y-105194100D01*
X142247620Y-105265220D01*
X142260320Y-105351580D01*
X142278100Y-105450640D01*
X142278100Y-105458260D01*
X142285720Y-105501440D01*
X142290800Y-105542080D01*
X142295880Y-105572560D01*
X142298420Y-105595420D01*
X142300960Y-105603040D01*
X142300960Y-105615740D01*
X142298420Y-105638600D01*
X142298420Y-105669080D01*
X142295880Y-105699560D01*
X142295880Y-105732580D01*
X142293340Y-105763060D01*
X142290800Y-105783380D01*
X142288260Y-105791000D01*
X142278100Y-105816400D01*
X142275560Y-105846880D01*
X142278100Y-105877360D01*
X142288260Y-105902760D01*
X142303500Y-105915460D01*
X142311120Y-105928160D01*
X142318740Y-105953560D01*
X142328900Y-105994200D01*
X142336520Y-106050080D01*
X142346680Y-106118660D01*
X142354300Y-106197400D01*
X142359380Y-106258360D01*
X142364460Y-106311700D01*
X142369540Y-106362500D01*
X142374620Y-106405680D01*
X142379700Y-106441240D01*
X142382240Y-106466640D01*
X142384780Y-106479340D01*
X142394940Y-106499660D01*
X142405100Y-106527600D01*
X142415260Y-106553000D01*
X142422880Y-106573320D01*
X142430500Y-106588560D01*
X142433040Y-106606340D01*
X142435580Y-106626660D01*
X142435580Y-106652060D01*
X142433040Y-106685080D01*
X142430500Y-106730800D01*
X142430500Y-106751120D01*
X142427960Y-106796840D01*
X142427960Y-106832400D01*
X142433040Y-106860340D01*
X142440660Y-106885740D01*
X142453360Y-106913680D01*
X142473680Y-106946700D01*
X142491460Y-106984800D01*
X142501620Y-107012740D01*
X142506700Y-107040680D01*
X142501620Y-107068620D01*
X142491460Y-107106720D01*
X142486380Y-107116880D01*
X142473680Y-107154980D01*
X142466060Y-107185460D01*
X142466060Y-107205780D01*
X142468600Y-107223560D01*
X142476220Y-107238800D01*
X142476220Y-107241340D01*
X142491460Y-107256580D01*
X142516860Y-107274360D01*
X142547340Y-107292140D01*
X142580360Y-107304840D01*
X142600680Y-107312460D01*
X142621000Y-107317540D01*
X142621000Y-107406440D01*
X142621000Y-107497880D01*
X142651480Y-107561380D01*
X142684500Y-107629960D01*
X142709900Y-107688380D01*
X142730220Y-107736640D01*
X142742920Y-107772200D01*
X142748000Y-107792520D01*
X142750540Y-107810300D01*
X142750540Y-107825540D01*
X142742920Y-107840780D01*
X142727680Y-107861100D01*
X142727680Y-107863640D01*
X142699740Y-107904280D01*
X142676880Y-107942380D01*
X142659100Y-107988100D01*
X142651480Y-108016040D01*
X142636240Y-108069380D01*
X142659100Y-108168440D01*
X142674340Y-108234480D01*
X142681960Y-108287820D01*
X142687040Y-108333540D01*
X142687040Y-108374180D01*
X142679420Y-108412280D01*
X142669260Y-108450380D01*
X142669260Y-108450380D01*
X142654020Y-108493560D01*
X142641320Y-108531660D01*
X142626080Y-108564680D01*
X142615920Y-108587540D01*
X142605760Y-108597700D01*
X142605760Y-108600240D01*
X142595600Y-108602780D01*
X142575280Y-108610400D01*
X142567660Y-108615480D01*
X142544800Y-108623100D01*
X142509240Y-108630720D01*
X142460980Y-108635800D01*
X142400020Y-108638340D01*
X142323820Y-108640880D01*
X142234920Y-108643420D01*
X142133320Y-108643420D01*
X142123160Y-108643420D01*
X142067280Y-108645960D01*
X142001240Y-108645960D01*
X141927580Y-108648500D01*
X141848840Y-108648500D01*
X141770100Y-108651040D01*
X141696440Y-108656120D01*
X141676120Y-108656120D01*
X141439900Y-108663740D01*
X141213840Y-108673900D01*
X140990320Y-108678980D01*
X140766800Y-108684060D01*
X140545820Y-108689140D01*
X140322300Y-108691680D01*
X140096240Y-108694220D01*
X139862560Y-108694220D01*
X139623800Y-108694220D01*
X139372340Y-108694220D01*
X139110720Y-108691680D01*
X138978640Y-108689140D01*
X138793220Y-108686600D01*
X138623040Y-108684060D01*
X138465560Y-108681520D01*
X138320780Y-108678980D01*
X138186160Y-108676440D01*
X138061700Y-108673900D01*
X137944860Y-108671360D01*
X137838180Y-108668820D01*
X137739120Y-108663740D01*
X137647680Y-108661200D01*
X137558780Y-108658660D01*
X137474960Y-108653580D01*
X137429240Y-108651040D01*
X137365740Y-108648500D01*
X137307320Y-108643420D01*
X137253980Y-108640880D01*
X137208260Y-108638340D01*
X137175240Y-108635800D01*
X137152380Y-108635800D01*
X137139680Y-108635800D01*
X137139680Y-108635800D01*
X137139680Y-108628180D01*
X137142220Y-108605320D01*
X137142220Y-108572300D01*
X137144760Y-108524040D01*
X137147300Y-108465620D01*
X137149840Y-108397040D01*
X137154920Y-108318300D01*
X137157460Y-108231940D01*
X137162540Y-108135420D01*
X137167620Y-108033820D01*
X137170160Y-107927140D01*
X137175240Y-107812840D01*
X137182860Y-107696000D01*
X137182860Y-107680760D01*
X137187940Y-107541060D01*
X137193020Y-107414060D01*
X137198100Y-107299760D01*
X137203180Y-107198160D01*
X137208260Y-107109260D01*
X137210800Y-107030520D01*
X137213340Y-106964480D01*
X137215880Y-106903520D01*
X137215880Y-106855260D01*
X137215880Y-106812080D01*
X137215880Y-106779060D01*
X137215880Y-106748580D01*
X137215880Y-106725720D01*
X137213340Y-106707940D01*
X137210800Y-106692700D01*
X137208260Y-106682540D01*
X137205720Y-106672380D01*
X137200640Y-106664760D01*
X137195560Y-106659680D01*
X137190480Y-106652060D01*
X137185400Y-106644440D01*
X137172700Y-106629200D01*
X137165080Y-106613960D01*
X137162540Y-106598720D01*
X137165080Y-106573320D01*
X137165080Y-106563160D01*
X137165080Y-106527600D01*
X137162540Y-106494580D01*
X137152380Y-106453940D01*
X137152380Y-106451400D01*
X137139680Y-106408220D01*
X137132060Y-106377740D01*
X137129520Y-106354880D01*
X137129520Y-106342180D01*
X137132060Y-106332020D01*
X137139680Y-106326940D01*
X137139680Y-106324400D01*
X137157460Y-106319320D01*
X137180320Y-106311700D01*
X137190480Y-106311700D01*
X137218420Y-106304080D01*
X137241280Y-106293920D01*
X137261600Y-106278680D01*
X137279380Y-106255820D01*
X137302240Y-106220260D01*
X137320020Y-106184700D01*
X137363200Y-106095800D01*
X137355580Y-106017060D01*
X137350500Y-105986580D01*
X137345420Y-105958640D01*
X137337800Y-105933240D01*
X137330180Y-105905300D01*
X137317480Y-105869740D01*
X137297160Y-105826560D01*
X137292080Y-105813860D01*
X137271760Y-105763060D01*
X137248900Y-105712260D01*
X137226040Y-105658920D01*
X137205720Y-105613200D01*
X137195560Y-105595420D01*
X137180320Y-105557320D01*
X137167620Y-105529380D01*
X137160000Y-105509060D01*
X137157460Y-105496360D01*
X137160000Y-105486200D01*
X137160000Y-105476040D01*
X137167620Y-105450640D01*
X137167620Y-105420160D01*
X137157460Y-105387140D01*
X137139680Y-105346500D01*
X137114280Y-105298240D01*
X137111740Y-105295700D01*
X137088880Y-105255060D01*
X137068560Y-105219500D01*
X137053320Y-105189020D01*
X137043160Y-105158540D01*
X137030460Y-105125520D01*
X137020300Y-105084880D01*
X137010140Y-105039160D01*
X136999980Y-104993440D01*
X136984740Y-104929940D01*
X136972040Y-104879140D01*
X136961880Y-104838500D01*
X136951720Y-104805480D01*
X136941560Y-104777540D01*
X136933940Y-104754680D01*
X136926320Y-104744520D01*
X136918700Y-104716580D01*
X136913620Y-104686100D01*
X136913620Y-104678480D01*
X136913620Y-105308400D01*
X136916160Y-105310940D01*
X136921240Y-105326180D01*
X136939020Y-105354120D01*
X136949180Y-105376980D01*
X136954260Y-105389680D01*
X136954260Y-105399840D01*
X136949180Y-105410000D01*
X136946640Y-105427780D01*
X136944100Y-105445560D01*
X136949180Y-105468420D01*
X136956800Y-105496360D01*
X136972040Y-105531920D01*
X136992360Y-105580180D01*
X137007600Y-105610660D01*
X137043160Y-105691940D01*
X137078720Y-105768140D01*
X137106660Y-105836720D01*
X137132060Y-105897680D01*
X137152380Y-105948480D01*
X137165080Y-105989120D01*
X137172700Y-106017060D01*
X137172700Y-106019600D01*
X137177780Y-106047540D01*
X137175240Y-106065320D01*
X137170160Y-106085640D01*
X137162540Y-106098340D01*
X137152380Y-106118660D01*
X137139680Y-106131360D01*
X137124440Y-106138980D01*
X137101580Y-106144060D01*
X137088880Y-106146600D01*
X137073640Y-106149140D01*
X137055860Y-106159300D01*
X137038080Y-106174540D01*
X137010140Y-106199940D01*
X137002520Y-106210100D01*
X136977120Y-106235500D01*
X136959340Y-106253280D01*
X136949180Y-106265980D01*
X136944100Y-106278680D01*
X136944100Y-106293920D01*
X136944100Y-106304080D01*
X136946640Y-106357420D01*
X136959340Y-106418380D01*
X136974580Y-106481880D01*
X136982200Y-106509820D01*
X136984740Y-106532680D01*
X136984740Y-106555540D01*
X136982200Y-106586020D01*
X136979660Y-106591100D01*
X136977120Y-106624120D01*
X136977120Y-106652060D01*
X136984740Y-106674920D01*
X137002520Y-106702860D01*
X137020300Y-106725720D01*
X137043160Y-106753660D01*
X136999980Y-107734100D01*
X136994900Y-107853480D01*
X136989820Y-107970320D01*
X136984740Y-108082080D01*
X136979660Y-108188760D01*
X136977120Y-108287820D01*
X136972040Y-108379260D01*
X136969500Y-108463080D01*
X136966960Y-108536740D01*
X136964420Y-108600240D01*
X136961880Y-108653580D01*
X136961880Y-108694220D01*
X136961880Y-108722160D01*
X136961880Y-108737400D01*
X136961880Y-108737400D01*
X136972040Y-108762800D01*
X136992360Y-108785660D01*
X137015220Y-108800900D01*
X137020300Y-108803440D01*
X137033000Y-108805980D01*
X137060940Y-108808520D01*
X137099040Y-108811060D01*
X137147300Y-108816140D01*
X137205720Y-108818680D01*
X137269220Y-108823760D01*
X137342880Y-108826300D01*
X137419080Y-108831380D01*
X137500360Y-108833920D01*
X137581640Y-108839000D01*
X137665460Y-108841540D01*
X137746740Y-108844080D01*
X137828020Y-108846620D01*
X137904220Y-108849160D01*
X137975340Y-108851700D01*
X138018520Y-108854240D01*
X138079480Y-108854240D01*
X138153140Y-108856780D01*
X138236960Y-108856780D01*
X138328400Y-108859320D01*
X138430000Y-108861860D01*
X138536680Y-108861860D01*
X138645900Y-108864400D01*
X138760200Y-108864400D01*
X138871960Y-108866940D01*
X138981180Y-108869480D01*
X139024360Y-108869480D01*
X139125960Y-108869480D01*
X139227560Y-108872020D01*
X139326620Y-108872020D01*
X139423140Y-108874560D01*
X139512040Y-108874560D01*
X139595860Y-108874560D01*
X139669520Y-108877100D01*
X139733020Y-108877100D01*
X139786360Y-108877100D01*
X139827000Y-108877100D01*
X139849860Y-108877100D01*
X139885420Y-108877100D01*
X139936220Y-108877100D01*
X139997180Y-108877100D01*
X140068300Y-108877100D01*
X140144500Y-108877100D01*
X140225780Y-108874560D01*
X140309600Y-108874560D01*
X140393420Y-108872020D01*
X140428980Y-108872020D01*
X140583920Y-108869480D01*
X140733780Y-108864400D01*
X140881100Y-108861860D01*
X141020800Y-108856780D01*
X141152880Y-108854240D01*
X141277340Y-108849160D01*
X141391640Y-108846620D01*
X141493240Y-108844080D01*
X141579600Y-108839000D01*
X141597380Y-108839000D01*
X141653260Y-108836460D01*
X141719300Y-108833920D01*
X141790420Y-108833920D01*
X141861540Y-108831380D01*
X141930120Y-108831380D01*
X141955520Y-108831380D01*
X142021560Y-108831380D01*
X142095220Y-108828840D01*
X142176500Y-108828840D01*
X142255240Y-108823760D01*
X142331440Y-108821220D01*
X142369540Y-108821220D01*
X142585440Y-108808520D01*
X142656560Y-108775500D01*
X142689580Y-108757720D01*
X142714980Y-108745020D01*
X142732760Y-108732320D01*
X142737840Y-108727240D01*
X142753080Y-108706920D01*
X142768320Y-108676440D01*
X142788640Y-108635800D01*
X142806420Y-108592620D01*
X142824200Y-108549440D01*
X142839440Y-108511340D01*
X142852140Y-108470700D01*
X142859760Y-108437680D01*
X142864840Y-108412280D01*
X142867380Y-108381800D01*
X142867380Y-108361480D01*
X142862300Y-108287820D01*
X142849600Y-108204000D01*
X142834360Y-108130340D01*
X142826740Y-108094780D01*
X142826740Y-108066840D01*
X142834360Y-108036360D01*
X142849600Y-108003340D01*
X142872460Y-107965240D01*
X142887700Y-107947460D01*
X142910560Y-107911900D01*
X142925800Y-107886500D01*
X142933420Y-107861100D01*
X142935960Y-107835700D01*
X142933420Y-107802680D01*
X142925800Y-107764580D01*
X142918180Y-107734100D01*
X142905480Y-107693460D01*
X142887700Y-107647740D01*
X142867380Y-107594400D01*
X142841980Y-107543600D01*
X142821660Y-107500420D01*
X142814040Y-107482640D01*
X142806420Y-107467400D01*
X142803880Y-107449620D01*
X142801340Y-107429300D01*
X142801340Y-107398820D01*
X142801340Y-107358180D01*
X142801340Y-107353100D01*
X142798800Y-107304840D01*
X142796260Y-107264200D01*
X142791180Y-107236260D01*
X142778480Y-107213400D01*
X142760700Y-107193080D01*
X142732760Y-107175300D01*
X142694660Y-107154980D01*
X142674340Y-107144820D01*
X142674340Y-107137200D01*
X142676880Y-107119420D01*
X142681960Y-107094020D01*
X142684500Y-107086400D01*
X142689580Y-107040680D01*
X142689580Y-107010200D01*
X142689580Y-107002580D01*
X142676880Y-106959400D01*
X142656560Y-106913680D01*
X142633700Y-106867960D01*
X142626080Y-106855260D01*
X142618460Y-106842560D01*
X142613380Y-106829860D01*
X142608300Y-106814620D01*
X142608300Y-106796840D01*
X142608300Y-106773980D01*
X142608300Y-106743500D01*
X142613380Y-106700320D01*
X142618460Y-106646980D01*
X142618460Y-106644440D01*
X142618460Y-106619040D01*
X142618460Y-106593640D01*
X142610840Y-106565700D01*
X142603220Y-106537760D01*
X142590520Y-106504740D01*
X142580360Y-106474260D01*
X142570200Y-106451400D01*
X142567660Y-106446320D01*
X142562580Y-106433620D01*
X142557500Y-106413300D01*
X142554960Y-106385360D01*
X142549880Y-106347260D01*
X142544800Y-106296460D01*
X142539720Y-106235500D01*
X142532100Y-106166920D01*
X142524480Y-106100880D01*
X142516860Y-106037380D01*
X142506700Y-105976420D01*
X142499080Y-105923080D01*
X142491460Y-105879900D01*
X142481300Y-105849420D01*
X142478760Y-105839260D01*
X142478760Y-105821480D01*
X142481300Y-105803700D01*
X142483840Y-105778300D01*
X142478760Y-105742740D01*
X142478760Y-105742740D01*
X142473680Y-105709720D01*
X142476220Y-105674160D01*
X142478760Y-105656380D01*
X142481300Y-105633520D01*
X142483840Y-105613200D01*
X142481300Y-105590340D01*
X142478760Y-105562400D01*
X142471140Y-105521760D01*
X142468600Y-105506520D01*
X142450820Y-105412540D01*
X142438120Y-105326180D01*
X142427960Y-105244900D01*
X142420340Y-105163620D01*
X142412720Y-105074720D01*
X142407640Y-104998520D01*
X142405100Y-104932480D01*
X142400020Y-104881680D01*
X142397480Y-104841040D01*
X142392400Y-104810560D01*
X142389860Y-104787700D01*
X142382240Y-104769920D01*
X142374620Y-104757220D01*
X142364460Y-104749600D01*
X142356840Y-104741980D01*
X142344140Y-104731820D01*
X142339060Y-104719120D01*
X142341600Y-104701340D01*
X142349220Y-104675940D01*
X142359380Y-104650540D01*
X142359380Y-104650540D01*
X142367000Y-104637840D01*
X142369540Y-104627680D01*
X142374620Y-104614980D01*
X142377160Y-104597200D01*
X142379700Y-104574340D01*
X142382240Y-104543860D01*
X142384780Y-104500680D01*
X142389860Y-104447340D01*
X142389860Y-104419400D01*
X142400020Y-104267000D01*
X142374620Y-104236520D01*
X142349220Y-104206040D01*
X142356840Y-104129840D01*
X142359380Y-104081580D01*
X142359380Y-104046020D01*
X142356840Y-104020620D01*
X142346680Y-104000300D01*
X142333980Y-103985060D01*
X142331440Y-103982520D01*
X142316200Y-103969820D01*
X142298420Y-103964740D01*
X142275560Y-103962200D01*
X142247620Y-103962200D01*
X142209520Y-103969820D01*
X142158720Y-103979980D01*
X142153640Y-103982520D01*
X142062200Y-104002840D01*
X142026640Y-103982520D01*
X142001240Y-103969820D01*
X141978380Y-103962200D01*
X141950440Y-103962200D01*
X141919960Y-103967280D01*
X141876780Y-103974900D01*
X141846300Y-103982520D01*
X141810740Y-103992680D01*
X141782800Y-104000300D01*
X141765020Y-104002840D01*
X141747240Y-104000300D01*
X141734540Y-103997760D01*
X141714220Y-103995220D01*
X141696440Y-103995220D01*
X141676120Y-103997760D01*
X141650720Y-104007920D01*
X141620240Y-104023160D01*
X141587220Y-104040940D01*
X141546580Y-104063800D01*
X141516100Y-104081580D01*
X141493240Y-104099360D01*
X141475460Y-104114600D01*
X141457680Y-104132380D01*
X141439900Y-104155240D01*
X141419580Y-104178100D01*
X141404340Y-104200960D01*
X141394180Y-104221280D01*
X141384020Y-104246680D01*
X141371320Y-104279700D01*
X141358620Y-104322880D01*
X141356080Y-104333040D01*
X141343380Y-104381300D01*
X141335760Y-104421940D01*
X141330680Y-104460040D01*
X141325600Y-104503220D01*
X141325600Y-104518460D01*
X141323060Y-104564180D01*
X141320520Y-104597200D01*
X141312900Y-104620060D01*
X141300200Y-104635300D01*
X141279880Y-104648000D01*
X141249400Y-104655620D01*
X141221460Y-104663240D01*
X141160500Y-104673400D01*
X141089380Y-104678480D01*
X141010640Y-104675940D01*
X140936980Y-104668320D01*
X140858240Y-104660700D01*
X140792200Y-104602280D01*
X140766800Y-104576880D01*
X140741400Y-104559100D01*
X140721080Y-104543860D01*
X140710920Y-104538780D01*
X140695680Y-104538780D01*
X140670280Y-104538780D01*
X140632180Y-104538780D01*
X140589000Y-104543860D01*
X140538200Y-104546400D01*
X140487400Y-104551480D01*
X140436600Y-104556560D01*
X140393420Y-104561640D01*
X140350240Y-104569260D01*
X140319760Y-104574340D01*
X140299440Y-104584500D01*
X140286740Y-104589580D01*
X140276580Y-104597200D01*
X140266420Y-104602280D01*
X140251180Y-104604820D01*
X140230860Y-104604820D01*
X140202920Y-104604820D01*
X140164820Y-104604820D01*
X140063220Y-104602280D01*
X139959080Y-104533700D01*
X139920980Y-104508300D01*
X139887960Y-104487980D01*
X139860020Y-104470200D01*
X139839700Y-104460040D01*
X139832080Y-104454960D01*
X139804140Y-104447340D01*
X139778740Y-104452420D01*
X139748260Y-104467660D01*
X139712700Y-104498140D01*
X139710160Y-104500680D01*
X139687300Y-104521000D01*
X139669520Y-104533700D01*
X139654280Y-104541320D01*
X139639040Y-104543860D01*
X139633960Y-104543860D01*
X139616180Y-104541320D01*
X139603480Y-104538780D01*
X139585700Y-104526080D01*
X139565380Y-104508300D01*
X139555220Y-104498140D01*
X139524740Y-104472740D01*
X139491720Y-104452420D01*
X139453620Y-104437180D01*
X139410440Y-104427020D01*
X139354560Y-104416860D01*
X139326620Y-104414320D01*
X139288520Y-104409240D01*
X139258040Y-104401620D01*
X139227560Y-104391460D01*
X139192000Y-104378760D01*
X139161520Y-104366060D01*
X139118340Y-104348280D01*
X139070080Y-104330500D01*
X139024360Y-104315260D01*
X138996420Y-104307640D01*
X138958320Y-104300020D01*
X138930380Y-104292400D01*
X138907520Y-104292400D01*
X138884660Y-104292400D01*
X138854180Y-104294940D01*
X138793220Y-104302560D01*
X138734800Y-104249220D01*
X138699240Y-104216200D01*
X138671300Y-104195880D01*
X138653520Y-104190800D01*
X138640820Y-104188260D01*
X138612880Y-104188260D01*
X138577320Y-104185720D01*
X138531600Y-104185720D01*
X138480800Y-104185720D01*
X138424920Y-104185720D01*
X138422380Y-104185720D01*
X138338560Y-104185720D01*
X138249660Y-104183180D01*
X138158220Y-104183180D01*
X138066780Y-104183180D01*
X137975340Y-104180640D01*
X137886440Y-104178100D01*
X137802620Y-104178100D01*
X137721340Y-104175560D01*
X137645140Y-104173020D01*
X137576560Y-104170480D01*
X137518140Y-104167940D01*
X137467340Y-104165400D01*
X137429240Y-104162860D01*
X137403840Y-104160320D01*
X137391140Y-104157780D01*
X137373360Y-104155240D01*
X137340340Y-104150160D01*
X137302240Y-104145080D01*
X137261600Y-104142540D01*
X137241280Y-104140000D01*
X137195560Y-104137460D01*
X137162540Y-104134920D01*
X137139680Y-104134920D01*
X137121900Y-104134920D01*
X137109200Y-104137460D01*
X137099040Y-104142540D01*
X137096500Y-104145080D01*
X137071100Y-104165400D01*
X137048240Y-104198420D01*
X137038080Y-104233980D01*
X137030460Y-104249220D01*
X137015220Y-104272080D01*
X136994900Y-104294940D01*
X136989820Y-104302560D01*
X136964420Y-104333040D01*
X136941560Y-104360980D01*
X136921240Y-104383840D01*
X136918700Y-104388920D01*
X136903460Y-104406700D01*
X136878060Y-104432100D01*
X136850120Y-104460040D01*
X136822180Y-104487980D01*
X136794240Y-104513380D01*
X136768840Y-104536240D01*
X136751060Y-104554020D01*
X136740900Y-104566720D01*
X136740900Y-104566720D01*
X136735820Y-104584500D01*
X136730740Y-104614980D01*
X136730740Y-104655620D01*
X136730740Y-104665780D01*
X136730740Y-104665780D01*
X136730740Y-104665780D01*
G37*
X136730740Y-104665780D02*
X136730740Y-104703880D01*
X136733280Y-104729280D01*
X136735820Y-104752140D01*
X136740900Y-104769920D01*
X136751060Y-104790240D01*
X136753600Y-104797860D01*
X136766300Y-104825800D01*
X136776460Y-104851200D01*
X136786620Y-104881680D01*
X136796780Y-104917240D01*
X136806940Y-104962960D01*
X136819640Y-105016300D01*
X136824720Y-105034080D01*
X136839960Y-105107740D01*
X136857740Y-105168700D01*
X136872980Y-105222040D01*
X136893300Y-105267760D01*
X136913620Y-105308400D01*
X136913620Y-104678480D01*
X136913620Y-104663240D01*
X136916160Y-104650540D01*
X136923780Y-104637840D01*
X136936480Y-104622600D01*
X136959340Y-104604820D01*
X136969500Y-104594660D01*
X136997440Y-104571800D01*
X137022840Y-104546400D01*
X137040620Y-104523540D01*
X137048240Y-104515920D01*
X137060940Y-104498140D01*
X137081260Y-104472740D01*
X137106660Y-104442260D01*
X137132060Y-104411780D01*
X137134600Y-104409240D01*
X137157460Y-104381300D01*
X137177780Y-104355900D01*
X137190480Y-104338120D01*
X137198100Y-104327960D01*
X137198100Y-104325420D01*
X137203180Y-104320340D01*
X137220960Y-104320340D01*
X137246360Y-104320340D01*
X137276840Y-104325420D01*
X137307320Y-104330500D01*
X137317480Y-104333040D01*
X137330180Y-104335580D01*
X137342880Y-104340660D01*
X137358120Y-104340660D01*
X137375900Y-104343200D01*
X137401300Y-104345740D01*
X137434320Y-104348280D01*
X137472420Y-104348280D01*
X137520680Y-104350820D01*
X137579100Y-104350820D01*
X137650220Y-104353360D01*
X137734040Y-104355900D01*
X137787380Y-104355900D01*
X137873740Y-104358440D01*
X137960100Y-104358440D01*
X138046460Y-104360980D01*
X138130280Y-104360980D01*
X138209020Y-104363520D01*
X138280140Y-104363520D01*
X138343640Y-104363520D01*
X138391900Y-104363520D01*
X138404600Y-104363520D01*
X138597640Y-104363520D01*
X138658600Y-104424480D01*
X138719560Y-104482900D01*
X138760200Y-104482900D01*
X138788140Y-104482900D01*
X138823700Y-104480360D01*
X138851640Y-104475280D01*
X138884660Y-104472740D01*
X138915140Y-104475280D01*
X138948160Y-104480360D01*
X138988800Y-104490520D01*
X139034520Y-104508300D01*
X139090400Y-104531160D01*
X139105640Y-104536240D01*
X139148820Y-104556560D01*
X139181840Y-104569260D01*
X139209780Y-104576880D01*
X139235180Y-104581960D01*
X139263120Y-104587040D01*
X139280900Y-104589580D01*
X139326620Y-104594660D01*
X139362180Y-104599740D01*
X139390120Y-104607360D01*
X139410440Y-104617520D01*
X139430760Y-104630220D01*
X139451080Y-104650540D01*
X139453620Y-104653080D01*
X139476480Y-104673400D01*
X139501880Y-104691180D01*
X139519660Y-104703880D01*
X139519660Y-104703880D01*
X139539980Y-104708960D01*
X139570460Y-104714040D01*
X139606020Y-104721660D01*
X139644120Y-104724200D01*
X139677140Y-104729280D01*
X139702540Y-104729280D01*
X139717780Y-104726740D01*
X139730480Y-104719120D01*
X139753340Y-104706420D01*
X139773660Y-104688640D01*
X139796520Y-104668320D01*
X139811760Y-104660700D01*
X139821920Y-104658160D01*
X139827000Y-104660700D01*
X139837160Y-104668320D01*
X139857480Y-104681020D01*
X139885420Y-104698800D01*
X139915900Y-104719120D01*
X139923520Y-104724200D01*
X140009880Y-104777540D01*
X140086080Y-104780080D01*
X140121640Y-104782620D01*
X140144500Y-104785160D01*
X140157200Y-104787700D01*
X140167360Y-104792780D01*
X140172440Y-104800400D01*
X140174980Y-104805480D01*
X140195300Y-104828340D01*
X140223240Y-104843580D01*
X140253720Y-104851200D01*
X140258800Y-104851200D01*
X140286740Y-104843580D01*
X140314680Y-104825800D01*
X140342620Y-104795320D01*
X140352780Y-104782620D01*
X140365480Y-104769920D01*
X140373100Y-104759760D01*
X140383260Y-104752140D01*
X140395960Y-104744520D01*
X140416280Y-104741980D01*
X140441680Y-104736900D01*
X140479780Y-104731820D01*
X140528040Y-104729280D01*
X140543280Y-104726740D01*
X140652500Y-104716580D01*
X140682980Y-104744520D01*
X140718540Y-104777540D01*
X140754100Y-104802940D01*
X140784580Y-104823260D01*
X140794740Y-104828340D01*
X140817600Y-104833420D01*
X140850620Y-104838500D01*
X140893800Y-104843580D01*
X140939520Y-104848660D01*
X140990320Y-104853740D01*
X141038580Y-104856280D01*
X141084300Y-104856280D01*
X141086840Y-104856280D01*
X141135100Y-104856280D01*
X141178280Y-104851200D01*
X141221460Y-104846120D01*
X141269720Y-104835960D01*
X141315440Y-104825800D01*
X141348460Y-104815640D01*
X141373860Y-104802940D01*
X141396720Y-104790240D01*
X141419580Y-104769920D01*
X141444980Y-104744520D01*
X141462760Y-104724200D01*
X141478000Y-104703880D01*
X141485620Y-104681020D01*
X141493240Y-104653080D01*
X141500860Y-104617520D01*
X141503400Y-104574340D01*
X141508480Y-104523540D01*
X141516100Y-104444800D01*
X141528800Y-104376220D01*
X141549120Y-104320340D01*
X141574520Y-104274620D01*
X141577060Y-104269540D01*
X141602460Y-104244140D01*
X141640560Y-104216200D01*
X141653260Y-104208580D01*
X141681200Y-104195880D01*
X141704060Y-104185720D01*
X141721840Y-104183180D01*
X141744700Y-104183180D01*
X141747240Y-104183180D01*
X141785340Y-104183180D01*
X141828520Y-104175560D01*
X141859000Y-104167940D01*
X141897100Y-104155240D01*
X141925040Y-104150160D01*
X141942820Y-104147620D01*
X141958060Y-104152700D01*
X141973300Y-104157780D01*
X141980920Y-104162860D01*
X142011400Y-104178100D01*
X142054580Y-104183180D01*
X142102840Y-104178100D01*
X142118080Y-104173020D01*
X142140940Y-104167940D01*
X142161260Y-104162860D01*
X142168880Y-104162860D01*
X142168880Y-104167940D01*
X142171420Y-104188260D01*
X142171420Y-104211120D01*
X142171420Y-104213660D01*
X142171420Y-104241600D01*
X142173960Y-104261920D01*
X142179040Y-104279700D01*
X142191740Y-104297480D01*
X142214600Y-104330500D01*
X142206980Y-104449880D01*
X142204440Y-104495600D01*
X142199360Y-104528620D01*
X142196820Y-104554020D01*
X142191740Y-104571800D01*
X142186660Y-104587040D01*
X142179040Y-104602280D01*
X142173960Y-104609900D01*
X142158720Y-104640380D01*
X142151100Y-104668320D01*
X142151100Y-104688640D01*
X142148560Y-104716580D01*
X142146020Y-104739440D01*
X142143480Y-104747060D01*
X142140940Y-104764840D01*
X142135860Y-104790240D01*
X142135860Y-104823260D01*
X142135860Y-104835960D01*
X142135860Y-104868980D01*
X142135860Y-104889300D01*
X142140940Y-104904540D01*
X142148560Y-104914700D01*
X142158720Y-104927400D01*
X142161260Y-104929940D01*
X142181580Y-104945180D01*
X142201900Y-104952800D01*
X142204440Y-104955340D01*
X142214600Y-104955340D01*
X142219680Y-104960420D01*
X142224760Y-104975660D01*
X142227300Y-105001060D01*
X142229840Y-105034080D01*
X142232380Y-105072180D01*
X142232380Y-105095040D01*
X142234920Y-105138220D01*
X142240000Y-105194100D01*
X142247620Y-105265220D01*
X142260320Y-105351580D01*
X142278100Y-105450640D01*
X142278100Y-105458260D01*
X142285720Y-105501440D01*
X142290800Y-105542080D01*
X142295880Y-105572560D01*
X142298420Y-105595420D01*
X142300960Y-105603040D01*
X142300960Y-105615740D01*
X142298420Y-105638600D01*
X142298420Y-105669080D01*
X142295880Y-105699560D01*
X142295880Y-105732580D01*
X142293340Y-105763060D01*
X142290800Y-105783380D01*
X142288260Y-105791000D01*
X142278100Y-105816400D01*
X142275560Y-105846880D01*
X142278100Y-105877360D01*
X142288260Y-105902760D01*
X142303500Y-105915460D01*
X142311120Y-105928160D01*
X142318740Y-105953560D01*
X142328900Y-105994200D01*
X142336520Y-106050080D01*
X142346680Y-106118660D01*
X142354300Y-106197400D01*
X142359380Y-106258360D01*
X142364460Y-106311700D01*
X142369540Y-106362500D01*
X142374620Y-106405680D01*
X142379700Y-106441240D01*
X142382240Y-106466640D01*
X142384780Y-106479340D01*
X142394940Y-106499660D01*
X142405100Y-106527600D01*
X142415260Y-106553000D01*
X142422880Y-106573320D01*
X142430500Y-106588560D01*
X142433040Y-106606340D01*
X142435580Y-106626660D01*
X142435580Y-106652060D01*
X142433040Y-106685080D01*
X142430500Y-106730800D01*
X142430500Y-106751120D01*
X142427960Y-106796840D01*
X142427960Y-106832400D01*
X142433040Y-106860340D01*
X142440660Y-106885740D01*
X142453360Y-106913680D01*
X142473680Y-106946700D01*
X142491460Y-106984800D01*
X142501620Y-107012740D01*
X142506700Y-107040680D01*
X142501620Y-107068620D01*
X142491460Y-107106720D01*
X142486380Y-107116880D01*
X142473680Y-107154980D01*
X142466060Y-107185460D01*
X142466060Y-107205780D01*
X142468600Y-107223560D01*
X142476220Y-107238800D01*
X142476220Y-107241340D01*
X142491460Y-107256580D01*
X142516860Y-107274360D01*
X142547340Y-107292140D01*
X142580360Y-107304840D01*
X142600680Y-107312460D01*
X142621000Y-107317540D01*
X142621000Y-107406440D01*
X142621000Y-107497880D01*
X142651480Y-107561380D01*
X142684500Y-107629960D01*
X142709900Y-107688380D01*
X142730220Y-107736640D01*
X142742920Y-107772200D01*
X142748000Y-107792520D01*
X142750540Y-107810300D01*
X142750540Y-107825540D01*
X142742920Y-107840780D01*
X142727680Y-107861100D01*
X142727680Y-107863640D01*
X142699740Y-107904280D01*
X142676880Y-107942380D01*
X142659100Y-107988100D01*
X142651480Y-108016040D01*
X142636240Y-108069380D01*
X142659100Y-108168440D01*
X142674340Y-108234480D01*
X142681960Y-108287820D01*
X142687040Y-108333540D01*
X142687040Y-108374180D01*
X142679420Y-108412280D01*
X142669260Y-108450380D01*
X142669260Y-108450380D01*
X142654020Y-108493560D01*
X142641320Y-108531660D01*
X142626080Y-108564680D01*
X142615920Y-108587540D01*
X142605760Y-108597700D01*
X142605760Y-108600240D01*
X142595600Y-108602780D01*
X142575280Y-108610400D01*
X142567660Y-108615480D01*
X142544800Y-108623100D01*
X142509240Y-108630720D01*
X142460980Y-108635800D01*
X142400020Y-108638340D01*
X142323820Y-108640880D01*
X142234920Y-108643420D01*
X142133320Y-108643420D01*
X142123160Y-108643420D01*
X142067280Y-108645960D01*
X142001240Y-108645960D01*
X141927580Y-108648500D01*
X141848840Y-108648500D01*
X141770100Y-108651040D01*
X141696440Y-108656120D01*
X141676120Y-108656120D01*
X141439900Y-108663740D01*
X141213840Y-108673900D01*
X140990320Y-108678980D01*
X140766800Y-108684060D01*
X140545820Y-108689140D01*
X140322300Y-108691680D01*
X140096240Y-108694220D01*
X139862560Y-108694220D01*
X139623800Y-108694220D01*
X139372340Y-108694220D01*
X139110720Y-108691680D01*
X138978640Y-108689140D01*
X138793220Y-108686600D01*
X138623040Y-108684060D01*
X138465560Y-108681520D01*
X138320780Y-108678980D01*
X138186160Y-108676440D01*
X138061700Y-108673900D01*
X137944860Y-108671360D01*
X137838180Y-108668820D01*
X137739120Y-108663740D01*
X137647680Y-108661200D01*
X137558780Y-108658660D01*
X137474960Y-108653580D01*
X137429240Y-108651040D01*
X137365740Y-108648500D01*
X137307320Y-108643420D01*
X137253980Y-108640880D01*
X137208260Y-108638340D01*
X137175240Y-108635800D01*
X137152380Y-108635800D01*
X137139680Y-108635800D01*
X137139680Y-108635800D01*
X137139680Y-108628180D01*
X137142220Y-108605320D01*
X137142220Y-108572300D01*
X137144760Y-108524040D01*
X137147300Y-108465620D01*
X137149840Y-108397040D01*
X137154920Y-108318300D01*
X137157460Y-108231940D01*
X137162540Y-108135420D01*
X137167620Y-108033820D01*
X137170160Y-107927140D01*
X137175240Y-107812840D01*
X137182860Y-107696000D01*
X137182860Y-107680760D01*
X137187940Y-107541060D01*
X137193020Y-107414060D01*
X137198100Y-107299760D01*
X137203180Y-107198160D01*
X137208260Y-107109260D01*
X137210800Y-107030520D01*
X137213340Y-106964480D01*
X137215880Y-106903520D01*
X137215880Y-106855260D01*
X137215880Y-106812080D01*
X137215880Y-106779060D01*
X137215880Y-106748580D01*
X137215880Y-106725720D01*
X137213340Y-106707940D01*
X137210800Y-106692700D01*
X137208260Y-106682540D01*
X137205720Y-106672380D01*
X137200640Y-106664760D01*
X137195560Y-106659680D01*
X137190480Y-106652060D01*
X137185400Y-106644440D01*
X137172700Y-106629200D01*
X137165080Y-106613960D01*
X137162540Y-106598720D01*
X137165080Y-106573320D01*
X137165080Y-106563160D01*
X137165080Y-106527600D01*
X137162540Y-106494580D01*
X137152380Y-106453940D01*
X137152380Y-106451400D01*
X137139680Y-106408220D01*
X137132060Y-106377740D01*
X137129520Y-106354880D01*
X137129520Y-106342180D01*
X137132060Y-106332020D01*
X137139680Y-106326940D01*
X137139680Y-106324400D01*
X137157460Y-106319320D01*
X137180320Y-106311700D01*
X137190480Y-106311700D01*
X137218420Y-106304080D01*
X137241280Y-106293920D01*
X137261600Y-106278680D01*
X137279380Y-106255820D01*
X137302240Y-106220260D01*
X137320020Y-106184700D01*
X137363200Y-106095800D01*
X137355580Y-106017060D01*
X137350500Y-105986580D01*
X137345420Y-105958640D01*
X137337800Y-105933240D01*
X137330180Y-105905300D01*
X137317480Y-105869740D01*
X137297160Y-105826560D01*
X137292080Y-105813860D01*
X137271760Y-105763060D01*
X137248900Y-105712260D01*
X137226040Y-105658920D01*
X137205720Y-105613200D01*
X137195560Y-105595420D01*
X137180320Y-105557320D01*
X137167620Y-105529380D01*
X137160000Y-105509060D01*
X137157460Y-105496360D01*
X137160000Y-105486200D01*
X137160000Y-105476040D01*
X137167620Y-105450640D01*
X137167620Y-105420160D01*
X137157460Y-105387140D01*
X137139680Y-105346500D01*
X137114280Y-105298240D01*
X137111740Y-105295700D01*
X137088880Y-105255060D01*
X137068560Y-105219500D01*
X137053320Y-105189020D01*
X137043160Y-105158540D01*
X137030460Y-105125520D01*
X137020300Y-105084880D01*
X137010140Y-105039160D01*
X136999980Y-104993440D01*
X136984740Y-104929940D01*
X136972040Y-104879140D01*
X136961880Y-104838500D01*
X136951720Y-104805480D01*
X136941560Y-104777540D01*
X136933940Y-104754680D01*
X136926320Y-104744520D01*
X136918700Y-104716580D01*
X136913620Y-104686100D01*
X136913620Y-104678480D01*
X136913620Y-105308400D01*
X136916160Y-105310940D01*
X136921240Y-105326180D01*
X136939020Y-105354120D01*
X136949180Y-105376980D01*
X136954260Y-105389680D01*
X136954260Y-105399840D01*
X136949180Y-105410000D01*
X136946640Y-105427780D01*
X136944100Y-105445560D01*
X136949180Y-105468420D01*
X136956800Y-105496360D01*
X136972040Y-105531920D01*
X136992360Y-105580180D01*
X137007600Y-105610660D01*
X137043160Y-105691940D01*
X137078720Y-105768140D01*
X137106660Y-105836720D01*
X137132060Y-105897680D01*
X137152380Y-105948480D01*
X137165080Y-105989120D01*
X137172700Y-106017060D01*
X137172700Y-106019600D01*
X137177780Y-106047540D01*
X137175240Y-106065320D01*
X137170160Y-106085640D01*
X137162540Y-106098340D01*
X137152380Y-106118660D01*
X137139680Y-106131360D01*
X137124440Y-106138980D01*
X137101580Y-106144060D01*
X137088880Y-106146600D01*
X137073640Y-106149140D01*
X137055860Y-106159300D01*
X137038080Y-106174540D01*
X137010140Y-106199940D01*
X137002520Y-106210100D01*
X136977120Y-106235500D01*
X136959340Y-106253280D01*
X136949180Y-106265980D01*
X136944100Y-106278680D01*
X136944100Y-106293920D01*
X136944100Y-106304080D01*
X136946640Y-106357420D01*
X136959340Y-106418380D01*
X136974580Y-106481880D01*
X136982200Y-106509820D01*
X136984740Y-106532680D01*
X136984740Y-106555540D01*
X136982200Y-106586020D01*
X136979660Y-106591100D01*
X136977120Y-106624120D01*
X136977120Y-106652060D01*
X136984740Y-106674920D01*
X137002520Y-106702860D01*
X137020300Y-106725720D01*
X137043160Y-106753660D01*
X136999980Y-107734100D01*
X136994900Y-107853480D01*
X136989820Y-107970320D01*
X136984740Y-108082080D01*
X136979660Y-108188760D01*
X136977120Y-108287820D01*
X136972040Y-108379260D01*
X136969500Y-108463080D01*
X136966960Y-108536740D01*
X136964420Y-108600240D01*
X136961880Y-108653580D01*
X136961880Y-108694220D01*
X136961880Y-108722160D01*
X136961880Y-108737400D01*
X136961880Y-108737400D01*
X136972040Y-108762800D01*
X136992360Y-108785660D01*
X137015220Y-108800900D01*
X137020300Y-108803440D01*
X137033000Y-108805980D01*
X137060940Y-108808520D01*
X137099040Y-108811060D01*
X137147300Y-108816140D01*
X137205720Y-108818680D01*
X137269220Y-108823760D01*
X137342880Y-108826300D01*
X137419080Y-108831380D01*
X137500360Y-108833920D01*
X137581640Y-108839000D01*
X137665460Y-108841540D01*
X137746740Y-108844080D01*
X137828020Y-108846620D01*
X137904220Y-108849160D01*
X137975340Y-108851700D01*
X138018520Y-108854240D01*
X138079480Y-108854240D01*
X138153140Y-108856780D01*
X138236960Y-108856780D01*
X138328400Y-108859320D01*
X138430000Y-108861860D01*
X138536680Y-108861860D01*
X138645900Y-108864400D01*
X138760200Y-108864400D01*
X138871960Y-108866940D01*
X138981180Y-108869480D01*
X139024360Y-108869480D01*
X139125960Y-108869480D01*
X139227560Y-108872020D01*
X139326620Y-108872020D01*
X139423140Y-108874560D01*
X139512040Y-108874560D01*
X139595860Y-108874560D01*
X139669520Y-108877100D01*
X139733020Y-108877100D01*
X139786360Y-108877100D01*
X139827000Y-108877100D01*
X139849860Y-108877100D01*
X139885420Y-108877100D01*
X139936220Y-108877100D01*
X139997180Y-108877100D01*
X140068300Y-108877100D01*
X140144500Y-108877100D01*
X140225780Y-108874560D01*
X140309600Y-108874560D01*
X140393420Y-108872020D01*
X140428980Y-108872020D01*
X140583920Y-108869480D01*
X140733780Y-108864400D01*
X140881100Y-108861860D01*
X141020800Y-108856780D01*
X141152880Y-108854240D01*
X141277340Y-108849160D01*
X141391640Y-108846620D01*
X141493240Y-108844080D01*
X141579600Y-108839000D01*
X141597380Y-108839000D01*
X141653260Y-108836460D01*
X141719300Y-108833920D01*
X141790420Y-108833920D01*
X141861540Y-108831380D01*
X141930120Y-108831380D01*
X141955520Y-108831380D01*
X142021560Y-108831380D01*
X142095220Y-108828840D01*
X142176500Y-108828840D01*
X142255240Y-108823760D01*
X142331440Y-108821220D01*
X142369540Y-108821220D01*
X142585440Y-108808520D01*
X142656560Y-108775500D01*
X142689580Y-108757720D01*
X142714980Y-108745020D01*
X142732760Y-108732320D01*
X142737840Y-108727240D01*
X142753080Y-108706920D01*
X142768320Y-108676440D01*
X142788640Y-108635800D01*
X142806420Y-108592620D01*
X142824200Y-108549440D01*
X142839440Y-108511340D01*
X142852140Y-108470700D01*
X142859760Y-108437680D01*
X142864840Y-108412280D01*
X142867380Y-108381800D01*
X142867380Y-108361480D01*
X142862300Y-108287820D01*
X142849600Y-108204000D01*
X142834360Y-108130340D01*
X142826740Y-108094780D01*
X142826740Y-108066840D01*
X142834360Y-108036360D01*
X142849600Y-108003340D01*
X142872460Y-107965240D01*
X142887700Y-107947460D01*
X142910560Y-107911900D01*
X142925800Y-107886500D01*
X142933420Y-107861100D01*
X142935960Y-107835700D01*
X142933420Y-107802680D01*
X142925800Y-107764580D01*
X142918180Y-107734100D01*
X142905480Y-107693460D01*
X142887700Y-107647740D01*
X142867380Y-107594400D01*
X142841980Y-107543600D01*
X142821660Y-107500420D01*
X142814040Y-107482640D01*
X142806420Y-107467400D01*
X142803880Y-107449620D01*
X142801340Y-107429300D01*
X142801340Y-107398820D01*
X142801340Y-107358180D01*
X142801340Y-107353100D01*
X142798800Y-107304840D01*
X142796260Y-107264200D01*
X142791180Y-107236260D01*
X142778480Y-107213400D01*
X142760700Y-107193080D01*
X142732760Y-107175300D01*
X142694660Y-107154980D01*
X142674340Y-107144820D01*
X142674340Y-107137200D01*
X142676880Y-107119420D01*
X142681960Y-107094020D01*
X142684500Y-107086400D01*
X142689580Y-107040680D01*
X142689580Y-107010200D01*
X142689580Y-107002580D01*
X142676880Y-106959400D01*
X142656560Y-106913680D01*
X142633700Y-106867960D01*
X142626080Y-106855260D01*
X142618460Y-106842560D01*
X142613380Y-106829860D01*
X142608300Y-106814620D01*
X142608300Y-106796840D01*
X142608300Y-106773980D01*
X142608300Y-106743500D01*
X142613380Y-106700320D01*
X142618460Y-106646980D01*
X142618460Y-106644440D01*
X142618460Y-106619040D01*
X142618460Y-106593640D01*
X142610840Y-106565700D01*
X142603220Y-106537760D01*
X142590520Y-106504740D01*
X142580360Y-106474260D01*
X142570200Y-106451400D01*
X142567660Y-106446320D01*
X142562580Y-106433620D01*
X142557500Y-106413300D01*
X142554960Y-106385360D01*
X142549880Y-106347260D01*
X142544800Y-106296460D01*
X142539720Y-106235500D01*
X142532100Y-106166920D01*
X142524480Y-106100880D01*
X142516860Y-106037380D01*
X142506700Y-105976420D01*
X142499080Y-105923080D01*
X142491460Y-105879900D01*
X142481300Y-105849420D01*
X142478760Y-105839260D01*
X142478760Y-105821480D01*
X142481300Y-105803700D01*
X142483840Y-105778300D01*
X142478760Y-105742740D01*
X142478760Y-105742740D01*
X142473680Y-105709720D01*
X142476220Y-105674160D01*
X142478760Y-105656380D01*
X142481300Y-105633520D01*
X142483840Y-105613200D01*
X142481300Y-105590340D01*
X142478760Y-105562400D01*
X142471140Y-105521760D01*
X142468600Y-105506520D01*
X142450820Y-105412540D01*
X142438120Y-105326180D01*
X142427960Y-105244900D01*
X142420340Y-105163620D01*
X142412720Y-105074720D01*
X142407640Y-104998520D01*
X142405100Y-104932480D01*
X142400020Y-104881680D01*
X142397480Y-104841040D01*
X142392400Y-104810560D01*
X142389860Y-104787700D01*
X142382240Y-104769920D01*
X142374620Y-104757220D01*
X142364460Y-104749600D01*
X142356840Y-104741980D01*
X142344140Y-104731820D01*
X142339060Y-104719120D01*
X142341600Y-104701340D01*
X142349220Y-104675940D01*
X142359380Y-104650540D01*
X142359380Y-104650540D01*
X142367000Y-104637840D01*
X142369540Y-104627680D01*
X142374620Y-104614980D01*
X142377160Y-104597200D01*
X142379700Y-104574340D01*
X142382240Y-104543860D01*
X142384780Y-104500680D01*
X142389860Y-104447340D01*
X142389860Y-104419400D01*
X142400020Y-104267000D01*
X142374620Y-104236520D01*
X142349220Y-104206040D01*
X142356840Y-104129840D01*
X142359380Y-104081580D01*
X142359380Y-104046020D01*
X142356840Y-104020620D01*
X142346680Y-104000300D01*
X142333980Y-103985060D01*
X142331440Y-103982520D01*
X142316200Y-103969820D01*
X142298420Y-103964740D01*
X142275560Y-103962200D01*
X142247620Y-103962200D01*
X142209520Y-103969820D01*
X142158720Y-103979980D01*
X142153640Y-103982520D01*
X142062200Y-104002840D01*
X142026640Y-103982520D01*
X142001240Y-103969820D01*
X141978380Y-103962200D01*
X141950440Y-103962200D01*
X141919960Y-103967280D01*
X141876780Y-103974900D01*
X141846300Y-103982520D01*
X141810740Y-103992680D01*
X141782800Y-104000300D01*
X141765020Y-104002840D01*
X141747240Y-104000300D01*
X141734540Y-103997760D01*
X141714220Y-103995220D01*
X141696440Y-103995220D01*
X141676120Y-103997760D01*
X141650720Y-104007920D01*
X141620240Y-104023160D01*
X141587220Y-104040940D01*
X141546580Y-104063800D01*
X141516100Y-104081580D01*
X141493240Y-104099360D01*
X141475460Y-104114600D01*
X141457680Y-104132380D01*
X141439900Y-104155240D01*
X141419580Y-104178100D01*
X141404340Y-104200960D01*
X141394180Y-104221280D01*
X141384020Y-104246680D01*
X141371320Y-104279700D01*
X141358620Y-104322880D01*
X141356080Y-104333040D01*
X141343380Y-104381300D01*
X141335760Y-104421940D01*
X141330680Y-104460040D01*
X141325600Y-104503220D01*
X141325600Y-104518460D01*
X141323060Y-104564180D01*
X141320520Y-104597200D01*
X141312900Y-104620060D01*
X141300200Y-104635300D01*
X141279880Y-104648000D01*
X141249400Y-104655620D01*
X141221460Y-104663240D01*
X141160500Y-104673400D01*
X141089380Y-104678480D01*
X141010640Y-104675940D01*
X140936980Y-104668320D01*
X140858240Y-104660700D01*
X140792200Y-104602280D01*
X140766800Y-104576880D01*
X140741400Y-104559100D01*
X140721080Y-104543860D01*
X140710920Y-104538780D01*
X140695680Y-104538780D01*
X140670280Y-104538780D01*
X140632180Y-104538780D01*
X140589000Y-104543860D01*
X140538200Y-104546400D01*
X140487400Y-104551480D01*
X140436600Y-104556560D01*
X140393420Y-104561640D01*
X140350240Y-104569260D01*
X140319760Y-104574340D01*
X140299440Y-104584500D01*
X140286740Y-104589580D01*
X140276580Y-104597200D01*
X140266420Y-104602280D01*
X140251180Y-104604820D01*
X140230860Y-104604820D01*
X140202920Y-104604820D01*
X140164820Y-104604820D01*
X140063220Y-104602280D01*
X139959080Y-104533700D01*
X139920980Y-104508300D01*
X139887960Y-104487980D01*
X139860020Y-104470200D01*
X139839700Y-104460040D01*
X139832080Y-104454960D01*
X139804140Y-104447340D01*
X139778740Y-104452420D01*
X139748260Y-104467660D01*
X139712700Y-104498140D01*
X139710160Y-104500680D01*
X139687300Y-104521000D01*
X139669520Y-104533700D01*
X139654280Y-104541320D01*
X139639040Y-104543860D01*
X139633960Y-104543860D01*
X139616180Y-104541320D01*
X139603480Y-104538780D01*
X139585700Y-104526080D01*
X139565380Y-104508300D01*
X139555220Y-104498140D01*
X139524740Y-104472740D01*
X139491720Y-104452420D01*
X139453620Y-104437180D01*
X139410440Y-104427020D01*
X139354560Y-104416860D01*
X139326620Y-104414320D01*
X139288520Y-104409240D01*
X139258040Y-104401620D01*
X139227560Y-104391460D01*
X139192000Y-104378760D01*
X139161520Y-104366060D01*
X139118340Y-104348280D01*
X139070080Y-104330500D01*
X139024360Y-104315260D01*
X138996420Y-104307640D01*
X138958320Y-104300020D01*
X138930380Y-104292400D01*
X138907520Y-104292400D01*
X138884660Y-104292400D01*
X138854180Y-104294940D01*
X138793220Y-104302560D01*
X138734800Y-104249220D01*
X138699240Y-104216200D01*
X138671300Y-104195880D01*
X138653520Y-104190800D01*
X138640820Y-104188260D01*
X138612880Y-104188260D01*
X138577320Y-104185720D01*
X138531600Y-104185720D01*
X138480800Y-104185720D01*
X138424920Y-104185720D01*
X138422380Y-104185720D01*
X138338560Y-104185720D01*
X138249660Y-104183180D01*
X138158220Y-104183180D01*
X138066780Y-104183180D01*
X137975340Y-104180640D01*
X137886440Y-104178100D01*
X137802620Y-104178100D01*
X137721340Y-104175560D01*
X137645140Y-104173020D01*
X137576560Y-104170480D01*
X137518140Y-104167940D01*
X137467340Y-104165400D01*
X137429240Y-104162860D01*
X137403840Y-104160320D01*
X137391140Y-104157780D01*
X137373360Y-104155240D01*
X137340340Y-104150160D01*
X137302240Y-104145080D01*
X137261600Y-104142540D01*
X137241280Y-104140000D01*
X137195560Y-104137460D01*
X137162540Y-104134920D01*
X137139680Y-104134920D01*
X137121900Y-104134920D01*
X137109200Y-104137460D01*
X137099040Y-104142540D01*
X137096500Y-104145080D01*
X137071100Y-104165400D01*
X137048240Y-104198420D01*
X137038080Y-104233980D01*
X137030460Y-104249220D01*
X137015220Y-104272080D01*
X136994900Y-104294940D01*
X136989820Y-104302560D01*
X136964420Y-104333040D01*
X136941560Y-104360980D01*
X136921240Y-104383840D01*
X136918700Y-104388920D01*
X136903460Y-104406700D01*
X136878060Y-104432100D01*
X136850120Y-104460040D01*
X136822180Y-104487980D01*
X136794240Y-104513380D01*
X136768840Y-104536240D01*
X136751060Y-104554020D01*
X136740900Y-104566720D01*
X136740900Y-104566720D01*
X136735820Y-104584500D01*
X136730740Y-104614980D01*
X136730740Y-104655620D01*
X136730740Y-104665780D01*
X136730740Y-104665780D01*
G36*
X139156440Y-107129580D02*
X139156440Y-107147360D01*
X139158980Y-107152440D01*
X139161520Y-107172760D01*
X139171680Y-107200700D01*
X139184380Y-107233720D01*
X139194540Y-107259120D01*
X139212320Y-107302300D01*
X139225020Y-107335320D01*
X139232640Y-107358180D01*
X139235180Y-107375960D01*
X139230100Y-107391200D01*
X139225020Y-107403900D01*
X139209780Y-107421680D01*
X139194540Y-107436920D01*
X139181840Y-107449620D01*
X139179300Y-107462320D01*
X139184380Y-107477560D01*
X139202160Y-107497880D01*
X139204700Y-107502960D01*
X139227560Y-107528360D01*
X139242800Y-107551220D01*
X139252960Y-107571540D01*
X139258040Y-107599480D01*
X139263120Y-107632500D01*
X139265660Y-107675680D01*
X139265660Y-107688380D01*
X139265660Y-107741720D01*
X139265660Y-107792520D01*
X139260580Y-107845860D01*
X139255500Y-107904280D01*
X139245340Y-107972860D01*
X139235180Y-108049060D01*
X139227560Y-108087160D01*
X139219940Y-108143040D01*
X139212320Y-108186220D01*
X139209780Y-108219240D01*
X139207240Y-108242100D01*
X139209780Y-108259880D01*
X139212320Y-108272580D01*
X139217400Y-108282740D01*
X139217400Y-108285280D01*
X139225020Y-108292900D01*
X139232640Y-108295440D01*
X139245340Y-108297980D01*
X139265660Y-108300520D01*
X139296140Y-108300520D01*
X139313920Y-108300520D01*
X139349480Y-108300520D01*
X139367260Y-108297980D01*
X139367260Y-107368340D01*
X139374880Y-107322620D01*
X139390120Y-107279440D01*
X139412980Y-107243880D01*
X139418060Y-107236260D01*
X139443460Y-107221020D01*
X139473940Y-107218480D01*
X139504420Y-107226100D01*
X139534900Y-107243880D01*
X139565380Y-107271820D01*
X139590780Y-107304840D01*
X139608560Y-107345480D01*
X139613640Y-107355640D01*
X139618720Y-107378500D01*
X139623800Y-107406440D01*
X139628880Y-107436920D01*
X139633960Y-107467400D01*
X139636500Y-107495340D01*
X139639040Y-107513120D01*
X139636500Y-107523280D01*
X139626340Y-107525820D01*
X139606020Y-107530900D01*
X139578080Y-107535980D01*
X139547600Y-107538520D01*
X139519660Y-107541060D01*
X139496800Y-107543600D01*
X139486640Y-107543600D01*
X139463780Y-107535980D01*
X139438380Y-107520740D01*
X139428220Y-107510580D01*
X139407900Y-107487720D01*
X139390120Y-107464860D01*
X139385040Y-107452160D01*
X139369800Y-107414060D01*
X139367260Y-107368340D01*
X139367260Y-108297980D01*
X139382500Y-108297980D01*
X139405360Y-108297980D01*
X139415520Y-108295440D01*
X139453620Y-108287820D01*
X139496800Y-108277660D01*
X139542520Y-108262420D01*
X139583160Y-108249720D01*
X139613640Y-108234480D01*
X139618720Y-108234480D01*
X139656820Y-108211620D01*
X139692380Y-108183680D01*
X139722860Y-108153200D01*
X139743180Y-108125260D01*
X139755880Y-108099860D01*
X139755880Y-108077000D01*
X139755880Y-108077000D01*
X139743180Y-108056680D01*
X139722860Y-108038900D01*
X139702540Y-108031280D01*
X139702540Y-108031280D01*
X139687300Y-108038900D01*
X139664440Y-108054140D01*
X139631420Y-108082080D01*
X139626340Y-108084620D01*
X139583160Y-108122720D01*
X139539980Y-108150660D01*
X139496800Y-108170980D01*
X139456160Y-108183680D01*
X139423140Y-108188760D01*
X139395200Y-108181140D01*
X139387580Y-108176060D01*
X139377420Y-108168440D01*
X139374880Y-108160820D01*
X139374880Y-108145580D01*
X139379960Y-108122720D01*
X139382500Y-108120180D01*
X139385040Y-108099860D01*
X139390120Y-108069380D01*
X139395200Y-108028740D01*
X139397740Y-107977940D01*
X139402820Y-107911900D01*
X139407900Y-107835700D01*
X139412980Y-107744260D01*
X139415520Y-107718860D01*
X139420600Y-107627420D01*
X139555220Y-107627420D01*
X139613640Y-107627420D01*
X139656820Y-107627420D01*
X139692380Y-107624880D01*
X139720320Y-107617260D01*
X139740640Y-107609640D01*
X139758420Y-107594400D01*
X139776200Y-107579160D01*
X139781280Y-107574080D01*
X139796520Y-107553760D01*
X139801600Y-107541060D01*
X139801600Y-107520740D01*
X139799060Y-107510580D01*
X139783820Y-107424220D01*
X139758420Y-107348020D01*
X139725400Y-107281980D01*
X139684760Y-107226100D01*
X139674600Y-107215940D01*
X139639040Y-107182920D01*
X139603480Y-107160060D01*
X139562840Y-107139740D01*
X139529820Y-107127040D01*
X139496800Y-107114340D01*
X139463780Y-107099100D01*
X139448540Y-107091480D01*
X139407900Y-107068620D01*
X139379960Y-107091480D01*
X139357100Y-107109260D01*
X139336780Y-107121960D01*
X139313920Y-107124500D01*
X139285980Y-107121960D01*
X139252960Y-107116880D01*
X139219940Y-107109260D01*
X139197080Y-107109260D01*
X139181840Y-107109260D01*
X139171680Y-107111800D01*
X139158980Y-107119420D01*
X139156440Y-107129580D01*
X139156440Y-107129580D01*
X139156440Y-107129580D01*
G37*
X139156440Y-107129580D02*
X139156440Y-107147360D01*
X139158980Y-107152440D01*
X139161520Y-107172760D01*
X139171680Y-107200700D01*
X139184380Y-107233720D01*
X139194540Y-107259120D01*
X139212320Y-107302300D01*
X139225020Y-107335320D01*
X139232640Y-107358180D01*
X139235180Y-107375960D01*
X139230100Y-107391200D01*
X139225020Y-107403900D01*
X139209780Y-107421680D01*
X139194540Y-107436920D01*
X139181840Y-107449620D01*
X139179300Y-107462320D01*
X139184380Y-107477560D01*
X139202160Y-107497880D01*
X139204700Y-107502960D01*
X139227560Y-107528360D01*
X139242800Y-107551220D01*
X139252960Y-107571540D01*
X139258040Y-107599480D01*
X139263120Y-107632500D01*
X139265660Y-107675680D01*
X139265660Y-107688380D01*
X139265660Y-107741720D01*
X139265660Y-107792520D01*
X139260580Y-107845860D01*
X139255500Y-107904280D01*
X139245340Y-107972860D01*
X139235180Y-108049060D01*
X139227560Y-108087160D01*
X139219940Y-108143040D01*
X139212320Y-108186220D01*
X139209780Y-108219240D01*
X139207240Y-108242100D01*
X139209780Y-108259880D01*
X139212320Y-108272580D01*
X139217400Y-108282740D01*
X139217400Y-108285280D01*
X139225020Y-108292900D01*
X139232640Y-108295440D01*
X139245340Y-108297980D01*
X139265660Y-108300520D01*
X139296140Y-108300520D01*
X139313920Y-108300520D01*
X139349480Y-108300520D01*
X139367260Y-108297980D01*
X139367260Y-107368340D01*
X139374880Y-107322620D01*
X139390120Y-107279440D01*
X139412980Y-107243880D01*
X139418060Y-107236260D01*
X139443460Y-107221020D01*
X139473940Y-107218480D01*
X139504420Y-107226100D01*
X139534900Y-107243880D01*
X139565380Y-107271820D01*
X139590780Y-107304840D01*
X139608560Y-107345480D01*
X139613640Y-107355640D01*
X139618720Y-107378500D01*
X139623800Y-107406440D01*
X139628880Y-107436920D01*
X139633960Y-107467400D01*
X139636500Y-107495340D01*
X139639040Y-107513120D01*
X139636500Y-107523280D01*
X139626340Y-107525820D01*
X139606020Y-107530900D01*
X139578080Y-107535980D01*
X139547600Y-107538520D01*
X139519660Y-107541060D01*
X139496800Y-107543600D01*
X139486640Y-107543600D01*
X139463780Y-107535980D01*
X139438380Y-107520740D01*
X139428220Y-107510580D01*
X139407900Y-107487720D01*
X139390120Y-107464860D01*
X139385040Y-107452160D01*
X139369800Y-107414060D01*
X139367260Y-107368340D01*
X139367260Y-108297980D01*
X139382500Y-108297980D01*
X139405360Y-108297980D01*
X139415520Y-108295440D01*
X139453620Y-108287820D01*
X139496800Y-108277660D01*
X139542520Y-108262420D01*
X139583160Y-108249720D01*
X139613640Y-108234480D01*
X139618720Y-108234480D01*
X139656820Y-108211620D01*
X139692380Y-108183680D01*
X139722860Y-108153200D01*
X139743180Y-108125260D01*
X139755880Y-108099860D01*
X139755880Y-108077000D01*
X139755880Y-108077000D01*
X139743180Y-108056680D01*
X139722860Y-108038900D01*
X139702540Y-108031280D01*
X139702540Y-108031280D01*
X139687300Y-108038900D01*
X139664440Y-108054140D01*
X139631420Y-108082080D01*
X139626340Y-108084620D01*
X139583160Y-108122720D01*
X139539980Y-108150660D01*
X139496800Y-108170980D01*
X139456160Y-108183680D01*
X139423140Y-108188760D01*
X139395200Y-108181140D01*
X139387580Y-108176060D01*
X139377420Y-108168440D01*
X139374880Y-108160820D01*
X139374880Y-108145580D01*
X139379960Y-108122720D01*
X139382500Y-108120180D01*
X139385040Y-108099860D01*
X139390120Y-108069380D01*
X139395200Y-108028740D01*
X139397740Y-107977940D01*
X139402820Y-107911900D01*
X139407900Y-107835700D01*
X139412980Y-107744260D01*
X139415520Y-107718860D01*
X139420600Y-107627420D01*
X139555220Y-107627420D01*
X139613640Y-107627420D01*
X139656820Y-107627420D01*
X139692380Y-107624880D01*
X139720320Y-107617260D01*
X139740640Y-107609640D01*
X139758420Y-107594400D01*
X139776200Y-107579160D01*
X139781280Y-107574080D01*
X139796520Y-107553760D01*
X139801600Y-107541060D01*
X139801600Y-107520740D01*
X139799060Y-107510580D01*
X139783820Y-107424220D01*
X139758420Y-107348020D01*
X139725400Y-107281980D01*
X139684760Y-107226100D01*
X139674600Y-107215940D01*
X139639040Y-107182920D01*
X139603480Y-107160060D01*
X139562840Y-107139740D01*
X139529820Y-107127040D01*
X139496800Y-107114340D01*
X139463780Y-107099100D01*
X139448540Y-107091480D01*
X139407900Y-107068620D01*
X139379960Y-107091480D01*
X139357100Y-107109260D01*
X139336780Y-107121960D01*
X139313920Y-107124500D01*
X139285980Y-107121960D01*
X139252960Y-107116880D01*
X139219940Y-107109260D01*
X139197080Y-107109260D01*
X139181840Y-107109260D01*
X139171680Y-107111800D01*
X139158980Y-107119420D01*
X139156440Y-107129580D01*
X139156440Y-107129580D01*
G36*
X137347960Y-107980480D02*
X137355580Y-107990640D01*
X137355580Y-107993180D01*
X137373360Y-108000800D01*
X137401300Y-108005880D01*
X137436860Y-108008420D01*
X137477500Y-108005880D01*
X137518140Y-108003340D01*
X137535920Y-107998260D01*
X137581640Y-107988100D01*
X137629900Y-107972860D01*
X137673080Y-107952540D01*
X137708640Y-107932220D01*
X137731500Y-107916980D01*
X137746740Y-107904280D01*
X137754360Y-107891580D01*
X137759440Y-107871260D01*
X137764520Y-107845860D01*
X137767060Y-107838240D01*
X137769600Y-107782360D01*
X137764520Y-107726480D01*
X137751820Y-107662980D01*
X137728960Y-107591860D01*
X137723880Y-107574080D01*
X137695940Y-107492800D01*
X137675620Y-107421680D01*
X137662920Y-107358180D01*
X137657840Y-107299760D01*
X137657840Y-107292140D01*
X137660380Y-107243880D01*
X137668000Y-107205780D01*
X137680700Y-107182920D01*
X137701020Y-107172760D01*
X137726420Y-107177840D01*
X137731500Y-107177840D01*
X137749280Y-107190540D01*
X137777220Y-107210860D01*
X137807700Y-107236260D01*
X137840720Y-107264200D01*
X137873740Y-107294680D01*
X137904220Y-107322620D01*
X137911840Y-107332780D01*
X137985500Y-107419140D01*
X138043920Y-107510580D01*
X138089640Y-107602020D01*
X138120120Y-107696000D01*
X138130280Y-107759500D01*
X138135360Y-107789980D01*
X138142980Y-107817920D01*
X138150600Y-107835700D01*
X138150600Y-107835700D01*
X138158220Y-107845860D01*
X138165840Y-107848400D01*
X138181080Y-107850940D01*
X138203940Y-107848400D01*
X138234420Y-107843320D01*
X138269980Y-107838240D01*
X138308080Y-107830620D01*
X138313160Y-107749340D01*
X138315700Y-107706160D01*
X138315700Y-107655360D01*
X138318240Y-107607100D01*
X138318240Y-107586780D01*
X138318240Y-107538520D01*
X138320780Y-107490260D01*
X138325860Y-107442000D01*
X138330940Y-107388660D01*
X138341100Y-107325160D01*
X138351260Y-107254040D01*
X138358880Y-107208320D01*
X138366500Y-107162600D01*
X138371580Y-107121960D01*
X138376660Y-107086400D01*
X138379200Y-107063540D01*
X138379200Y-107050840D01*
X138379200Y-107048300D01*
X138369040Y-107040680D01*
X138351260Y-107038140D01*
X138325860Y-107043220D01*
X138300460Y-107055920D01*
X138280140Y-107071160D01*
X138262360Y-107091480D01*
X138247120Y-107119420D01*
X138231880Y-107157520D01*
X138216640Y-107205780D01*
X138203940Y-107269280D01*
X138201400Y-107274360D01*
X138188700Y-107327700D01*
X138181080Y-107370880D01*
X138170920Y-107401360D01*
X138165840Y-107421680D01*
X138160760Y-107434380D01*
X138155680Y-107439460D01*
X138150600Y-107442000D01*
X138150600Y-107442000D01*
X138142980Y-107436920D01*
X138125200Y-107421680D01*
X138099800Y-107401360D01*
X138069320Y-107373420D01*
X138033760Y-107340400D01*
X137995660Y-107302300D01*
X137993120Y-107299760D01*
X137927080Y-107236260D01*
X137871200Y-107185460D01*
X137825480Y-107142280D01*
X137784840Y-107109260D01*
X137749280Y-107083860D01*
X137721340Y-107066080D01*
X137695940Y-107055920D01*
X137673080Y-107050840D01*
X137650220Y-107053380D01*
X137627360Y-107058460D01*
X137604500Y-107071160D01*
X137584180Y-107083860D01*
X137558780Y-107101640D01*
X137541000Y-107119420D01*
X137530840Y-107144820D01*
X137523220Y-107175300D01*
X137520680Y-107215940D01*
X137518140Y-107261660D01*
X137520680Y-107330240D01*
X137525760Y-107388660D01*
X137538460Y-107439460D01*
X137556240Y-107492800D01*
X137563860Y-107513120D01*
X137586720Y-107574080D01*
X137604500Y-107635040D01*
X137614660Y-107693460D01*
X137622280Y-107746800D01*
X137619740Y-107795060D01*
X137614660Y-107825540D01*
X137607040Y-107843320D01*
X137594340Y-107858560D01*
X137574020Y-107873800D01*
X137546080Y-107886500D01*
X137507980Y-107901740D01*
X137464800Y-107916980D01*
X137429240Y-107929680D01*
X137398760Y-107942380D01*
X137373360Y-107955080D01*
X137363200Y-107962700D01*
X137350500Y-107972860D01*
X137347960Y-107980480D01*
X137347960Y-107980480D01*
X137347960Y-107980480D01*
G37*
X137347960Y-107980480D02*
X137355580Y-107990640D01*
X137355580Y-107993180D01*
X137373360Y-108000800D01*
X137401300Y-108005880D01*
X137436860Y-108008420D01*
X137477500Y-108005880D01*
X137518140Y-108003340D01*
X137535920Y-107998260D01*
X137581640Y-107988100D01*
X137629900Y-107972860D01*
X137673080Y-107952540D01*
X137708640Y-107932220D01*
X137731500Y-107916980D01*
X137746740Y-107904280D01*
X137754360Y-107891580D01*
X137759440Y-107871260D01*
X137764520Y-107845860D01*
X137767060Y-107838240D01*
X137769600Y-107782360D01*
X137764520Y-107726480D01*
X137751820Y-107662980D01*
X137728960Y-107591860D01*
X137723880Y-107574080D01*
X137695940Y-107492800D01*
X137675620Y-107421680D01*
X137662920Y-107358180D01*
X137657840Y-107299760D01*
X137657840Y-107292140D01*
X137660380Y-107243880D01*
X137668000Y-107205780D01*
X137680700Y-107182920D01*
X137701020Y-107172760D01*
X137726420Y-107177840D01*
X137731500Y-107177840D01*
X137749280Y-107190540D01*
X137777220Y-107210860D01*
X137807700Y-107236260D01*
X137840720Y-107264200D01*
X137873740Y-107294680D01*
X137904220Y-107322620D01*
X137911840Y-107332780D01*
X137985500Y-107419140D01*
X138043920Y-107510580D01*
X138089640Y-107602020D01*
X138120120Y-107696000D01*
X138130280Y-107759500D01*
X138135360Y-107789980D01*
X138142980Y-107817920D01*
X138150600Y-107835700D01*
X138150600Y-107835700D01*
X138158220Y-107845860D01*
X138165840Y-107848400D01*
X138181080Y-107850940D01*
X138203940Y-107848400D01*
X138234420Y-107843320D01*
X138269980Y-107838240D01*
X138308080Y-107830620D01*
X138313160Y-107749340D01*
X138315700Y-107706160D01*
X138315700Y-107655360D01*
X138318240Y-107607100D01*
X138318240Y-107586780D01*
X138318240Y-107538520D01*
X138320780Y-107490260D01*
X138325860Y-107442000D01*
X138330940Y-107388660D01*
X138341100Y-107325160D01*
X138351260Y-107254040D01*
X138358880Y-107208320D01*
X138366500Y-107162600D01*
X138371580Y-107121960D01*
X138376660Y-107086400D01*
X138379200Y-107063540D01*
X138379200Y-107050840D01*
X138379200Y-107048300D01*
X138369040Y-107040680D01*
X138351260Y-107038140D01*
X138325860Y-107043220D01*
X138300460Y-107055920D01*
X138280140Y-107071160D01*
X138262360Y-107091480D01*
X138247120Y-107119420D01*
X138231880Y-107157520D01*
X138216640Y-107205780D01*
X138203940Y-107269280D01*
X138201400Y-107274360D01*
X138188700Y-107327700D01*
X138181080Y-107370880D01*
X138170920Y-107401360D01*
X138165840Y-107421680D01*
X138160760Y-107434380D01*
X138155680Y-107439460D01*
X138150600Y-107442000D01*
X138150600Y-107442000D01*
X138142980Y-107436920D01*
X138125200Y-107421680D01*
X138099800Y-107401360D01*
X138069320Y-107373420D01*
X138033760Y-107340400D01*
X137995660Y-107302300D01*
X137993120Y-107299760D01*
X137927080Y-107236260D01*
X137871200Y-107185460D01*
X137825480Y-107142280D01*
X137784840Y-107109260D01*
X137749280Y-107083860D01*
X137721340Y-107066080D01*
X137695940Y-107055920D01*
X137673080Y-107050840D01*
X137650220Y-107053380D01*
X137627360Y-107058460D01*
X137604500Y-107071160D01*
X137584180Y-107083860D01*
X137558780Y-107101640D01*
X137541000Y-107119420D01*
X137530840Y-107144820D01*
X137523220Y-107175300D01*
X137520680Y-107215940D01*
X137518140Y-107261660D01*
X137520680Y-107330240D01*
X137525760Y-107388660D01*
X137538460Y-107439460D01*
X137556240Y-107492800D01*
X137563860Y-107513120D01*
X137586720Y-107574080D01*
X137604500Y-107635040D01*
X137614660Y-107693460D01*
X137622280Y-107746800D01*
X137619740Y-107795060D01*
X137614660Y-107825540D01*
X137607040Y-107843320D01*
X137594340Y-107858560D01*
X137574020Y-107873800D01*
X137546080Y-107886500D01*
X137507980Y-107901740D01*
X137464800Y-107916980D01*
X137429240Y-107929680D01*
X137398760Y-107942380D01*
X137373360Y-107955080D01*
X137363200Y-107962700D01*
X137350500Y-107972860D01*
X137347960Y-107980480D01*
X137347960Y-107980480D01*
G36*
X141523720Y-106885740D02*
X141523720Y-106923840D01*
X141523720Y-106969560D01*
X141526260Y-107025440D01*
X141528800Y-107083860D01*
X141528800Y-107147360D01*
X141531340Y-107210860D01*
X141533880Y-107274360D01*
X141536420Y-107332780D01*
X141538960Y-107386120D01*
X141541500Y-107429300D01*
X141544040Y-107464860D01*
X141546580Y-107482640D01*
X141554200Y-107538520D01*
X141569440Y-107589320D01*
X141579600Y-107622340D01*
X141594840Y-107655360D01*
X141607540Y-107688380D01*
X141612620Y-107703620D01*
X141612620Y-107330240D01*
X141612620Y-107292140D01*
X141615160Y-107243880D01*
X141615160Y-107205780D01*
X141617700Y-107129580D01*
X141622780Y-107063540D01*
X141627860Y-107010200D01*
X141635480Y-106967020D01*
X141643100Y-106928920D01*
X141655800Y-106898440D01*
X141663420Y-106883200D01*
X141683740Y-106850180D01*
X141706600Y-106829860D01*
X141739620Y-106817160D01*
X141780260Y-106814620D01*
X141780260Y-106814620D01*
X141808200Y-106814620D01*
X141825980Y-106809540D01*
X141838680Y-106801920D01*
X141843760Y-106796840D01*
X141864080Y-106779060D01*
X141886940Y-106776520D01*
X141909800Y-106786680D01*
X141937740Y-106809540D01*
X141945360Y-106817160D01*
X141983460Y-106865420D01*
X142019020Y-106926380D01*
X142049500Y-107000040D01*
X142077440Y-107081320D01*
X142100300Y-107172760D01*
X142113000Y-107233720D01*
X142120620Y-107292140D01*
X142128240Y-107355640D01*
X142133320Y-107421680D01*
X142138400Y-107487720D01*
X142140940Y-107551220D01*
X142143480Y-107609640D01*
X142143480Y-107662980D01*
X142140940Y-107706160D01*
X142135860Y-107736640D01*
X142135860Y-107741720D01*
X142120620Y-107774740D01*
X142095220Y-107805220D01*
X142067280Y-107825540D01*
X142054580Y-107828080D01*
X142034260Y-107833160D01*
X142019020Y-107835700D01*
X142001240Y-107835700D01*
X141978380Y-107833160D01*
X141970760Y-107830620D01*
X141919960Y-107815380D01*
X141866620Y-107789980D01*
X141815820Y-107759500D01*
X141772640Y-107723940D01*
X141737080Y-107685840D01*
X141729460Y-107675680D01*
X141716760Y-107652820D01*
X141701520Y-107619800D01*
X141683740Y-107579160D01*
X141665960Y-107535980D01*
X141648180Y-107492800D01*
X141632940Y-107452160D01*
X141622780Y-107421680D01*
X141622780Y-107419140D01*
X141620240Y-107401360D01*
X141615160Y-107381040D01*
X141615160Y-107358180D01*
X141612620Y-107330240D01*
X141612620Y-107703620D01*
X141617700Y-107718860D01*
X141620240Y-107723940D01*
X141640560Y-107756960D01*
X141671040Y-107795060D01*
X141711680Y-107830620D01*
X141759940Y-107866180D01*
X141775180Y-107873800D01*
X141795500Y-107886500D01*
X141815820Y-107896660D01*
X141836140Y-107904280D01*
X141859000Y-107911900D01*
X141889480Y-107916980D01*
X141927580Y-107924600D01*
X141978380Y-107934760D01*
X141986000Y-107934760D01*
X142034260Y-107942380D01*
X142067280Y-107947460D01*
X142095220Y-107950000D01*
X142115540Y-107947460D01*
X142133320Y-107944920D01*
X142151100Y-107937300D01*
X142156180Y-107934760D01*
X142189200Y-107914440D01*
X142224760Y-107886500D01*
X142255240Y-107853480D01*
X142278100Y-107820460D01*
X142280640Y-107815380D01*
X142293340Y-107789980D01*
X142300960Y-107762040D01*
X142306040Y-107734100D01*
X142308580Y-107698540D01*
X142308580Y-107657900D01*
X142306040Y-107609640D01*
X142300960Y-107551220D01*
X142293340Y-107482640D01*
X142283180Y-107401360D01*
X142275560Y-107355640D01*
X142260320Y-107243880D01*
X142240000Y-107144820D01*
X142222220Y-107055920D01*
X142201900Y-106982260D01*
X142181580Y-106916220D01*
X142156180Y-106860340D01*
X142130780Y-106809540D01*
X142102840Y-106768900D01*
X142077440Y-106738420D01*
X142031720Y-106697780D01*
X141980920Y-106669840D01*
X141925040Y-106654600D01*
X141871700Y-106649520D01*
X141843760Y-106652060D01*
X141825980Y-106657140D01*
X141808200Y-106667300D01*
X141808200Y-106669840D01*
X141782800Y-106685080D01*
X141747240Y-106692700D01*
X141739620Y-106695240D01*
X141704060Y-106700320D01*
X141671040Y-106715560D01*
X141638020Y-106738420D01*
X141599920Y-106771440D01*
X141577060Y-106794300D01*
X141551660Y-106819700D01*
X141536420Y-106837480D01*
X141528800Y-106852720D01*
X141523720Y-106865420D01*
X141523720Y-106880660D01*
X141523720Y-106885740D01*
X141523720Y-106885740D01*
X141523720Y-106885740D01*
G37*
X141523720Y-106885740D02*
X141523720Y-106923840D01*
X141523720Y-106969560D01*
X141526260Y-107025440D01*
X141528800Y-107083860D01*
X141528800Y-107147360D01*
X141531340Y-107210860D01*
X141533880Y-107274360D01*
X141536420Y-107332780D01*
X141538960Y-107386120D01*
X141541500Y-107429300D01*
X141544040Y-107464860D01*
X141546580Y-107482640D01*
X141554200Y-107538520D01*
X141569440Y-107589320D01*
X141579600Y-107622340D01*
X141594840Y-107655360D01*
X141607540Y-107688380D01*
X141612620Y-107703620D01*
X141612620Y-107330240D01*
X141612620Y-107292140D01*
X141615160Y-107243880D01*
X141615160Y-107205780D01*
X141617700Y-107129580D01*
X141622780Y-107063540D01*
X141627860Y-107010200D01*
X141635480Y-106967020D01*
X141643100Y-106928920D01*
X141655800Y-106898440D01*
X141663420Y-106883200D01*
X141683740Y-106850180D01*
X141706600Y-106829860D01*
X141739620Y-106817160D01*
X141780260Y-106814620D01*
X141780260Y-106814620D01*
X141808200Y-106814620D01*
X141825980Y-106809540D01*
X141838680Y-106801920D01*
X141843760Y-106796840D01*
X141864080Y-106779060D01*
X141886940Y-106776520D01*
X141909800Y-106786680D01*
X141937740Y-106809540D01*
X141945360Y-106817160D01*
X141983460Y-106865420D01*
X142019020Y-106926380D01*
X142049500Y-107000040D01*
X142077440Y-107081320D01*
X142100300Y-107172760D01*
X142113000Y-107233720D01*
X142120620Y-107292140D01*
X142128240Y-107355640D01*
X142133320Y-107421680D01*
X142138400Y-107487720D01*
X142140940Y-107551220D01*
X142143480Y-107609640D01*
X142143480Y-107662980D01*
X142140940Y-107706160D01*
X142135860Y-107736640D01*
X142135860Y-107741720D01*
X142120620Y-107774740D01*
X142095220Y-107805220D01*
X142067280Y-107825540D01*
X142054580Y-107828080D01*
X142034260Y-107833160D01*
X142019020Y-107835700D01*
X142001240Y-107835700D01*
X141978380Y-107833160D01*
X141970760Y-107830620D01*
X141919960Y-107815380D01*
X141866620Y-107789980D01*
X141815820Y-107759500D01*
X141772640Y-107723940D01*
X141737080Y-107685840D01*
X141729460Y-107675680D01*
X141716760Y-107652820D01*
X141701520Y-107619800D01*
X141683740Y-107579160D01*
X141665960Y-107535980D01*
X141648180Y-107492800D01*
X141632940Y-107452160D01*
X141622780Y-107421680D01*
X141622780Y-107419140D01*
X141620240Y-107401360D01*
X141615160Y-107381040D01*
X141615160Y-107358180D01*
X141612620Y-107330240D01*
X141612620Y-107703620D01*
X141617700Y-107718860D01*
X141620240Y-107723940D01*
X141640560Y-107756960D01*
X141671040Y-107795060D01*
X141711680Y-107830620D01*
X141759940Y-107866180D01*
X141775180Y-107873800D01*
X141795500Y-107886500D01*
X141815820Y-107896660D01*
X141836140Y-107904280D01*
X141859000Y-107911900D01*
X141889480Y-107916980D01*
X141927580Y-107924600D01*
X141978380Y-107934760D01*
X141986000Y-107934760D01*
X142034260Y-107942380D01*
X142067280Y-107947460D01*
X142095220Y-107950000D01*
X142115540Y-107947460D01*
X142133320Y-107944920D01*
X142151100Y-107937300D01*
X142156180Y-107934760D01*
X142189200Y-107914440D01*
X142224760Y-107886500D01*
X142255240Y-107853480D01*
X142278100Y-107820460D01*
X142280640Y-107815380D01*
X142293340Y-107789980D01*
X142300960Y-107762040D01*
X142306040Y-107734100D01*
X142308580Y-107698540D01*
X142308580Y-107657900D01*
X142306040Y-107609640D01*
X142300960Y-107551220D01*
X142293340Y-107482640D01*
X142283180Y-107401360D01*
X142275560Y-107355640D01*
X142260320Y-107243880D01*
X142240000Y-107144820D01*
X142222220Y-107055920D01*
X142201900Y-106982260D01*
X142181580Y-106916220D01*
X142156180Y-106860340D01*
X142130780Y-106809540D01*
X142102840Y-106768900D01*
X142077440Y-106738420D01*
X142031720Y-106697780D01*
X141980920Y-106669840D01*
X141925040Y-106654600D01*
X141871700Y-106649520D01*
X141843760Y-106652060D01*
X141825980Y-106657140D01*
X141808200Y-106667300D01*
X141808200Y-106669840D01*
X141782800Y-106685080D01*
X141747240Y-106692700D01*
X141739620Y-106695240D01*
X141704060Y-106700320D01*
X141671040Y-106715560D01*
X141638020Y-106738420D01*
X141599920Y-106771440D01*
X141577060Y-106794300D01*
X141551660Y-106819700D01*
X141536420Y-106837480D01*
X141528800Y-106852720D01*
X141523720Y-106865420D01*
X141523720Y-106880660D01*
X141523720Y-106885740D01*
X141523720Y-106885740D01*
G36*
X140606780Y-107167680D02*
X140614400Y-107185460D01*
X140627100Y-107200700D01*
X140662660Y-107228640D01*
X140700760Y-107243880D01*
X140746480Y-107246420D01*
X140797280Y-107236260D01*
X140809980Y-107233720D01*
X140855700Y-107221020D01*
X140898880Y-107218480D01*
X140936980Y-107228640D01*
X140977620Y-107251500D01*
X141020800Y-107287060D01*
X141051280Y-107315000D01*
X141114780Y-107388660D01*
X141165580Y-107459780D01*
X141206220Y-107535980D01*
X141236700Y-107614720D01*
X141259560Y-107703620D01*
X141272260Y-107769660D01*
X141279880Y-107820460D01*
X141287500Y-107856020D01*
X141295120Y-107881420D01*
X141302740Y-107894120D01*
X141310360Y-107899200D01*
X141320520Y-107901740D01*
X141343380Y-107904280D01*
X141373860Y-107909360D01*
X141391640Y-107909360D01*
X141465300Y-107914440D01*
X141460220Y-107876340D01*
X141457680Y-107861100D01*
X141457680Y-107830620D01*
X141455140Y-107789980D01*
X141452600Y-107741720D01*
X141452600Y-107683300D01*
X141450060Y-107622340D01*
X141447520Y-107556300D01*
X141447520Y-107535980D01*
X141447520Y-107469940D01*
X141444980Y-107406440D01*
X141442440Y-107350560D01*
X141439900Y-107299760D01*
X141437360Y-107259120D01*
X141437360Y-107228640D01*
X141434820Y-107210860D01*
X141434820Y-107208320D01*
X141422120Y-107175300D01*
X141404340Y-107157520D01*
X141384020Y-107152440D01*
X141363700Y-107160060D01*
X141348460Y-107170220D01*
X141328140Y-107195620D01*
X141317980Y-107221020D01*
X141315440Y-107248960D01*
X141317980Y-107271820D01*
X141317980Y-107297220D01*
X141317980Y-107327700D01*
X141315440Y-107358180D01*
X141312900Y-107391200D01*
X141307820Y-107416600D01*
X141302740Y-107434380D01*
X141297660Y-107442000D01*
X141284960Y-107436920D01*
X141267180Y-107421680D01*
X141246860Y-107401360D01*
X141221460Y-107375960D01*
X141201140Y-107350560D01*
X141180820Y-107325160D01*
X141168120Y-107307380D01*
X141168120Y-107304840D01*
X141145260Y-107266740D01*
X141114780Y-107228640D01*
X141074140Y-107190540D01*
X141028420Y-107154980D01*
X140982700Y-107124500D01*
X140939520Y-107104180D01*
X140931900Y-107101640D01*
X140891260Y-107094020D01*
X140843000Y-107091480D01*
X140787120Y-107096560D01*
X140728700Y-107106720D01*
X140705840Y-107114340D01*
X140660120Y-107127040D01*
X140629640Y-107139740D01*
X140611860Y-107152440D01*
X140606780Y-107167680D01*
X140606780Y-107167680D01*
X140606780Y-107167680D01*
G37*
X140606780Y-107167680D02*
X140614400Y-107185460D01*
X140627100Y-107200700D01*
X140662660Y-107228640D01*
X140700760Y-107243880D01*
X140746480Y-107246420D01*
X140797280Y-107236260D01*
X140809980Y-107233720D01*
X140855700Y-107221020D01*
X140898880Y-107218480D01*
X140936980Y-107228640D01*
X140977620Y-107251500D01*
X141020800Y-107287060D01*
X141051280Y-107315000D01*
X141114780Y-107388660D01*
X141165580Y-107459780D01*
X141206220Y-107535980D01*
X141236700Y-107614720D01*
X141259560Y-107703620D01*
X141272260Y-107769660D01*
X141279880Y-107820460D01*
X141287500Y-107856020D01*
X141295120Y-107881420D01*
X141302740Y-107894120D01*
X141310360Y-107899200D01*
X141320520Y-107901740D01*
X141343380Y-107904280D01*
X141373860Y-107909360D01*
X141391640Y-107909360D01*
X141465300Y-107914440D01*
X141460220Y-107876340D01*
X141457680Y-107861100D01*
X141457680Y-107830620D01*
X141455140Y-107789980D01*
X141452600Y-107741720D01*
X141452600Y-107683300D01*
X141450060Y-107622340D01*
X141447520Y-107556300D01*
X141447520Y-107535980D01*
X141447520Y-107469940D01*
X141444980Y-107406440D01*
X141442440Y-107350560D01*
X141439900Y-107299760D01*
X141437360Y-107259120D01*
X141437360Y-107228640D01*
X141434820Y-107210860D01*
X141434820Y-107208320D01*
X141422120Y-107175300D01*
X141404340Y-107157520D01*
X141384020Y-107152440D01*
X141363700Y-107160060D01*
X141348460Y-107170220D01*
X141328140Y-107195620D01*
X141317980Y-107221020D01*
X141315440Y-107248960D01*
X141317980Y-107271820D01*
X141317980Y-107297220D01*
X141317980Y-107327700D01*
X141315440Y-107358180D01*
X141312900Y-107391200D01*
X141307820Y-107416600D01*
X141302740Y-107434380D01*
X141297660Y-107442000D01*
X141284960Y-107436920D01*
X141267180Y-107421680D01*
X141246860Y-107401360D01*
X141221460Y-107375960D01*
X141201140Y-107350560D01*
X141180820Y-107325160D01*
X141168120Y-107307380D01*
X141168120Y-107304840D01*
X141145260Y-107266740D01*
X141114780Y-107228640D01*
X141074140Y-107190540D01*
X141028420Y-107154980D01*
X140982700Y-107124500D01*
X140939520Y-107104180D01*
X140931900Y-107101640D01*
X140891260Y-107094020D01*
X140843000Y-107091480D01*
X140787120Y-107096560D01*
X140728700Y-107106720D01*
X140705840Y-107114340D01*
X140660120Y-107127040D01*
X140629640Y-107139740D01*
X140611860Y-107152440D01*
X140606780Y-107167680D01*
X140606780Y-107167680D01*
G36*
X139865100Y-107767120D02*
X139865100Y-107782360D01*
X139872720Y-107792520D01*
X139890500Y-107805220D01*
X139893040Y-107807760D01*
X139928600Y-107820460D01*
X139974320Y-107833160D01*
X140027660Y-107843320D01*
X140086080Y-107850940D01*
X140147040Y-107856020D01*
X140208000Y-107858560D01*
X140263880Y-107856020D01*
X140309600Y-107850940D01*
X140324840Y-107848400D01*
X140383260Y-107830620D01*
X140436600Y-107805220D01*
X140482320Y-107774740D01*
X140515340Y-107741720D01*
X140530580Y-107716320D01*
X140538200Y-107693460D01*
X140540740Y-107660440D01*
X140543280Y-107627420D01*
X140545820Y-107589320D01*
X140543280Y-107551220D01*
X140540740Y-107518200D01*
X140535660Y-107492800D01*
X140528040Y-107475020D01*
X140520420Y-107472480D01*
X140515340Y-107464860D01*
X140507720Y-107449620D01*
X140502640Y-107426760D01*
X140500100Y-107406440D01*
X140500100Y-107396280D01*
X140495020Y-107375960D01*
X140484860Y-107345480D01*
X140467080Y-107315000D01*
X140449300Y-107281980D01*
X140428980Y-107256580D01*
X140426440Y-107256580D01*
X140403580Y-107233720D01*
X140373100Y-107208320D01*
X140335000Y-107182920D01*
X140299440Y-107160060D01*
X140266420Y-107144820D01*
X140253720Y-107139740D01*
X140233400Y-107137200D01*
X140205460Y-107137200D01*
X140169900Y-107137200D01*
X140147040Y-107139740D01*
X140093700Y-107142280D01*
X140053060Y-107147360D01*
X140022580Y-107152440D01*
X139999720Y-107162600D01*
X139981940Y-107172760D01*
X139974320Y-107180380D01*
X139946380Y-107210860D01*
X139931140Y-107246420D01*
X139926060Y-107289600D01*
X139926060Y-107309920D01*
X139933680Y-107370880D01*
X139954000Y-107419140D01*
X139984480Y-107457240D01*
X140022580Y-107487720D01*
X140022580Y-107281980D01*
X140035280Y-107259120D01*
X140058140Y-107238800D01*
X140088620Y-107226100D01*
X140124180Y-107218480D01*
X140164820Y-107221020D01*
X140180060Y-107226100D01*
X140213080Y-107241340D01*
X140246100Y-107269280D01*
X140279120Y-107304840D01*
X140309600Y-107348020D01*
X140332460Y-107393740D01*
X140335000Y-107403900D01*
X140342620Y-107429300D01*
X140345160Y-107447080D01*
X140340080Y-107459780D01*
X140327380Y-107467400D01*
X140301980Y-107467400D01*
X140266420Y-107462320D01*
X140218160Y-107452160D01*
X140195300Y-107449620D01*
X140162280Y-107439460D01*
X140131800Y-107429300D01*
X140108940Y-107421680D01*
X140101320Y-107416600D01*
X140081000Y-107398820D01*
X140060680Y-107373420D01*
X140040360Y-107345480D01*
X140027660Y-107320080D01*
X140025120Y-107309920D01*
X140022580Y-107281980D01*
X140022580Y-107487720D01*
X140025120Y-107487720D01*
X140055600Y-107500420D01*
X140075920Y-107508040D01*
X140096240Y-107515660D01*
X140116560Y-107520740D01*
X140144500Y-107525820D01*
X140180060Y-107533440D01*
X140225780Y-107541060D01*
X140243560Y-107543600D01*
X140296900Y-107553760D01*
X140337540Y-107563920D01*
X140365480Y-107579160D01*
X140380720Y-107594400D01*
X140383260Y-107614720D01*
X140375640Y-107637580D01*
X140375640Y-107640120D01*
X140352780Y-107670600D01*
X140317220Y-107698540D01*
X140271500Y-107723940D01*
X140223240Y-107739180D01*
X140167360Y-107746800D01*
X140103860Y-107746800D01*
X140030200Y-107736640D01*
X140014960Y-107734100D01*
X139976860Y-107726480D01*
X139951460Y-107721400D01*
X139933680Y-107721400D01*
X139920980Y-107721400D01*
X139908280Y-107723940D01*
X139895580Y-107731560D01*
X139877800Y-107741720D01*
X139867640Y-107756960D01*
X139865100Y-107767120D01*
X139865100Y-107767120D01*
X139865100Y-107767120D01*
G37*
X139865100Y-107767120D02*
X139865100Y-107782360D01*
X139872720Y-107792520D01*
X139890500Y-107805220D01*
X139893040Y-107807760D01*
X139928600Y-107820460D01*
X139974320Y-107833160D01*
X140027660Y-107843320D01*
X140086080Y-107850940D01*
X140147040Y-107856020D01*
X140208000Y-107858560D01*
X140263880Y-107856020D01*
X140309600Y-107850940D01*
X140324840Y-107848400D01*
X140383260Y-107830620D01*
X140436600Y-107805220D01*
X140482320Y-107774740D01*
X140515340Y-107741720D01*
X140530580Y-107716320D01*
X140538200Y-107693460D01*
X140540740Y-107660440D01*
X140543280Y-107627420D01*
X140545820Y-107589320D01*
X140543280Y-107551220D01*
X140540740Y-107518200D01*
X140535660Y-107492800D01*
X140528040Y-107475020D01*
X140520420Y-107472480D01*
X140515340Y-107464860D01*
X140507720Y-107449620D01*
X140502640Y-107426760D01*
X140500100Y-107406440D01*
X140500100Y-107396280D01*
X140495020Y-107375960D01*
X140484860Y-107345480D01*
X140467080Y-107315000D01*
X140449300Y-107281980D01*
X140428980Y-107256580D01*
X140426440Y-107256580D01*
X140403580Y-107233720D01*
X140373100Y-107208320D01*
X140335000Y-107182920D01*
X140299440Y-107160060D01*
X140266420Y-107144820D01*
X140253720Y-107139740D01*
X140233400Y-107137200D01*
X140205460Y-107137200D01*
X140169900Y-107137200D01*
X140147040Y-107139740D01*
X140093700Y-107142280D01*
X140053060Y-107147360D01*
X140022580Y-107152440D01*
X139999720Y-107162600D01*
X139981940Y-107172760D01*
X139974320Y-107180380D01*
X139946380Y-107210860D01*
X139931140Y-107246420D01*
X139926060Y-107289600D01*
X139926060Y-107309920D01*
X139933680Y-107370880D01*
X139954000Y-107419140D01*
X139984480Y-107457240D01*
X140022580Y-107487720D01*
X140022580Y-107281980D01*
X140035280Y-107259120D01*
X140058140Y-107238800D01*
X140088620Y-107226100D01*
X140124180Y-107218480D01*
X140164820Y-107221020D01*
X140180060Y-107226100D01*
X140213080Y-107241340D01*
X140246100Y-107269280D01*
X140279120Y-107304840D01*
X140309600Y-107348020D01*
X140332460Y-107393740D01*
X140335000Y-107403900D01*
X140342620Y-107429300D01*
X140345160Y-107447080D01*
X140340080Y-107459780D01*
X140327380Y-107467400D01*
X140301980Y-107467400D01*
X140266420Y-107462320D01*
X140218160Y-107452160D01*
X140195300Y-107449620D01*
X140162280Y-107439460D01*
X140131800Y-107429300D01*
X140108940Y-107421680D01*
X140101320Y-107416600D01*
X140081000Y-107398820D01*
X140060680Y-107373420D01*
X140040360Y-107345480D01*
X140027660Y-107320080D01*
X140025120Y-107309920D01*
X140022580Y-107281980D01*
X140022580Y-107487720D01*
X140025120Y-107487720D01*
X140055600Y-107500420D01*
X140075920Y-107508040D01*
X140096240Y-107515660D01*
X140116560Y-107520740D01*
X140144500Y-107525820D01*
X140180060Y-107533440D01*
X140225780Y-107541060D01*
X140243560Y-107543600D01*
X140296900Y-107553760D01*
X140337540Y-107563920D01*
X140365480Y-107579160D01*
X140380720Y-107594400D01*
X140383260Y-107614720D01*
X140375640Y-107637580D01*
X140375640Y-107640120D01*
X140352780Y-107670600D01*
X140317220Y-107698540D01*
X140271500Y-107723940D01*
X140223240Y-107739180D01*
X140167360Y-107746800D01*
X140103860Y-107746800D01*
X140030200Y-107736640D01*
X140014960Y-107734100D01*
X139976860Y-107726480D01*
X139951460Y-107721400D01*
X139933680Y-107721400D01*
X139920980Y-107721400D01*
X139908280Y-107723940D01*
X139895580Y-107731560D01*
X139877800Y-107741720D01*
X139867640Y-107756960D01*
X139865100Y-107767120D01*
X139865100Y-107767120D01*
G36*
X138437620Y-107365800D02*
X138440160Y-107416600D01*
X138440160Y-107464860D01*
X138442700Y-107510580D01*
X138445240Y-107551220D01*
X138450320Y-107581700D01*
X138452860Y-107594400D01*
X138465560Y-107622340D01*
X138496040Y-107657900D01*
X138508740Y-107670600D01*
X138529060Y-107688380D01*
X138529060Y-107327700D01*
X138529060Y-107281980D01*
X138531600Y-107246420D01*
X138534140Y-107243880D01*
X138546840Y-107215940D01*
X138564620Y-107193080D01*
X138587480Y-107177840D01*
X138605260Y-107172760D01*
X138620500Y-107177840D01*
X138640820Y-107188000D01*
X138666220Y-107205780D01*
X138666220Y-107205780D01*
X138689080Y-107226100D01*
X138717020Y-107248960D01*
X138744960Y-107276900D01*
X138775440Y-107304840D01*
X138800840Y-107332780D01*
X138821160Y-107355640D01*
X138836400Y-107375960D01*
X138841480Y-107386120D01*
X138844020Y-107396280D01*
X138859260Y-107403900D01*
X138884660Y-107406440D01*
X138902440Y-107406440D01*
X138940540Y-107408980D01*
X138950700Y-107442000D01*
X138955780Y-107462320D01*
X138960860Y-107495340D01*
X138965940Y-107530900D01*
X138968480Y-107548680D01*
X138971020Y-107599480D01*
X138971020Y-107645200D01*
X138965940Y-107680760D01*
X138958320Y-107708700D01*
X138948160Y-107718860D01*
X138925300Y-107731560D01*
X138894820Y-107736640D01*
X138851640Y-107734100D01*
X138800840Y-107723940D01*
X138757660Y-107713780D01*
X138701780Y-107693460D01*
X138658600Y-107673140D01*
X138623040Y-107645200D01*
X138597640Y-107612180D01*
X138574780Y-107571540D01*
X138562080Y-107533440D01*
X138549380Y-107485180D01*
X138539220Y-107431840D01*
X138531600Y-107378500D01*
X138529060Y-107327700D01*
X138529060Y-107688380D01*
X138551920Y-107708700D01*
X138605260Y-107741720D01*
X138668760Y-107772200D01*
X138742420Y-107797600D01*
X138828780Y-107823000D01*
X138899900Y-107838240D01*
X138938000Y-107845860D01*
X138971020Y-107853480D01*
X138996420Y-107858560D01*
X139011660Y-107861100D01*
X139014200Y-107861100D01*
X139024360Y-107853480D01*
X139037060Y-107840780D01*
X139049760Y-107825540D01*
X139070080Y-107795060D01*
X139082780Y-107759500D01*
X139090400Y-107718860D01*
X139095480Y-107668060D01*
X139095480Y-107647740D01*
X139090400Y-107566460D01*
X139080240Y-107490260D01*
X139062460Y-107416600D01*
X139034520Y-107340400D01*
X139001500Y-107266740D01*
X138986260Y-107233720D01*
X138971020Y-107203240D01*
X138960860Y-107180380D01*
X138955780Y-107167680D01*
X138945620Y-107149900D01*
X138922760Y-107137200D01*
X138897360Y-107132120D01*
X138874500Y-107137200D01*
X138854180Y-107147360D01*
X138854180Y-107147360D01*
X138846560Y-107162600D01*
X138841480Y-107182920D01*
X138841480Y-107185460D01*
X138836400Y-107205780D01*
X138823700Y-107215940D01*
X138808460Y-107210860D01*
X138783060Y-107195620D01*
X138780520Y-107193080D01*
X138722100Y-107149900D01*
X138671300Y-107119420D01*
X138625580Y-107099100D01*
X138584940Y-107091480D01*
X138549380Y-107094020D01*
X138513820Y-107109260D01*
X138503660Y-107114340D01*
X138480800Y-107134660D01*
X138465560Y-107162600D01*
X138452860Y-107198160D01*
X138445240Y-107246420D01*
X138440160Y-107279440D01*
X138440160Y-107320080D01*
X138437620Y-107365800D01*
X138437620Y-107365800D01*
X138437620Y-107365800D01*
G37*
X138437620Y-107365800D02*
X138440160Y-107416600D01*
X138440160Y-107464860D01*
X138442700Y-107510580D01*
X138445240Y-107551220D01*
X138450320Y-107581700D01*
X138452860Y-107594400D01*
X138465560Y-107622340D01*
X138496040Y-107657900D01*
X138508740Y-107670600D01*
X138529060Y-107688380D01*
X138529060Y-107327700D01*
X138529060Y-107281980D01*
X138531600Y-107246420D01*
X138534140Y-107243880D01*
X138546840Y-107215940D01*
X138564620Y-107193080D01*
X138587480Y-107177840D01*
X138605260Y-107172760D01*
X138620500Y-107177840D01*
X138640820Y-107188000D01*
X138666220Y-107205780D01*
X138666220Y-107205780D01*
X138689080Y-107226100D01*
X138717020Y-107248960D01*
X138744960Y-107276900D01*
X138775440Y-107304840D01*
X138800840Y-107332780D01*
X138821160Y-107355640D01*
X138836400Y-107375960D01*
X138841480Y-107386120D01*
X138844020Y-107396280D01*
X138859260Y-107403900D01*
X138884660Y-107406440D01*
X138902440Y-107406440D01*
X138940540Y-107408980D01*
X138950700Y-107442000D01*
X138955780Y-107462320D01*
X138960860Y-107495340D01*
X138965940Y-107530900D01*
X138968480Y-107548680D01*
X138971020Y-107599480D01*
X138971020Y-107645200D01*
X138965940Y-107680760D01*
X138958320Y-107708700D01*
X138948160Y-107718860D01*
X138925300Y-107731560D01*
X138894820Y-107736640D01*
X138851640Y-107734100D01*
X138800840Y-107723940D01*
X138757660Y-107713780D01*
X138701780Y-107693460D01*
X138658600Y-107673140D01*
X138623040Y-107645200D01*
X138597640Y-107612180D01*
X138574780Y-107571540D01*
X138562080Y-107533440D01*
X138549380Y-107485180D01*
X138539220Y-107431840D01*
X138531600Y-107378500D01*
X138529060Y-107327700D01*
X138529060Y-107688380D01*
X138551920Y-107708700D01*
X138605260Y-107741720D01*
X138668760Y-107772200D01*
X138742420Y-107797600D01*
X138828780Y-107823000D01*
X138899900Y-107838240D01*
X138938000Y-107845860D01*
X138971020Y-107853480D01*
X138996420Y-107858560D01*
X139011660Y-107861100D01*
X139014200Y-107861100D01*
X139024360Y-107853480D01*
X139037060Y-107840780D01*
X139049760Y-107825540D01*
X139070080Y-107795060D01*
X139082780Y-107759500D01*
X139090400Y-107718860D01*
X139095480Y-107668060D01*
X139095480Y-107647740D01*
X139090400Y-107566460D01*
X139080240Y-107490260D01*
X139062460Y-107416600D01*
X139034520Y-107340400D01*
X139001500Y-107266740D01*
X138986260Y-107233720D01*
X138971020Y-107203240D01*
X138960860Y-107180380D01*
X138955780Y-107167680D01*
X138945620Y-107149900D01*
X138922760Y-107137200D01*
X138897360Y-107132120D01*
X138874500Y-107137200D01*
X138854180Y-107147360D01*
X138854180Y-107147360D01*
X138846560Y-107162600D01*
X138841480Y-107182920D01*
X138841480Y-107185460D01*
X138836400Y-107205780D01*
X138823700Y-107215940D01*
X138808460Y-107210860D01*
X138783060Y-107195620D01*
X138780520Y-107193080D01*
X138722100Y-107149900D01*
X138671300Y-107119420D01*
X138625580Y-107099100D01*
X138584940Y-107091480D01*
X138549380Y-107094020D01*
X138513820Y-107109260D01*
X138503660Y-107114340D01*
X138480800Y-107134660D01*
X138465560Y-107162600D01*
X138452860Y-107198160D01*
X138445240Y-107246420D01*
X138440160Y-107279440D01*
X138440160Y-107320080D01*
X138437620Y-107365800D01*
X138437620Y-107365800D01*
G36*
X137556240Y-106111040D02*
X137561320Y-106118660D01*
X137566400Y-106123740D01*
X137586720Y-106126280D01*
X137614660Y-106126280D01*
X137650220Y-106123740D01*
X137685780Y-106121200D01*
X137706100Y-106116120D01*
X137746740Y-106103420D01*
X137784840Y-106085640D01*
X137817860Y-106067860D01*
X137835640Y-106052620D01*
X137843260Y-106042460D01*
X137848340Y-106029760D01*
X137850880Y-106009440D01*
X137850880Y-105978960D01*
X137850880Y-105968800D01*
X137848340Y-105928160D01*
X137845800Y-105897680D01*
X137838180Y-105867200D01*
X137828020Y-105844340D01*
X137807700Y-105778300D01*
X137789920Y-105717340D01*
X137779760Y-105664000D01*
X137772140Y-105615740D01*
X137774680Y-105575100D01*
X137779760Y-105547160D01*
X137792460Y-105529380D01*
X137797540Y-105526840D01*
X137812780Y-105526840D01*
X137833100Y-105534460D01*
X137858500Y-105552240D01*
X137891520Y-105580180D01*
X137919460Y-105605580D01*
X137988040Y-105676700D01*
X138038840Y-105750360D01*
X138079480Y-105821480D01*
X138104880Y-105897680D01*
X138112500Y-105938320D01*
X138120120Y-105973880D01*
X138125200Y-105996740D01*
X138135360Y-106009440D01*
X138150600Y-106014520D01*
X138176000Y-106011980D01*
X138201400Y-106006900D01*
X138242040Y-105999280D01*
X138244580Y-105918000D01*
X138249660Y-105775760D01*
X138267440Y-105623360D01*
X138277600Y-105557320D01*
X138282680Y-105519220D01*
X138287760Y-105483660D01*
X138292840Y-105458260D01*
X138295380Y-105443020D01*
X138295380Y-105440480D01*
X138290300Y-105432860D01*
X138275060Y-105432860D01*
X138252200Y-105435400D01*
X138234420Y-105443020D01*
X138221720Y-105453180D01*
X138211560Y-105463340D01*
X138201400Y-105481120D01*
X138191240Y-105506520D01*
X138181080Y-105542080D01*
X138168380Y-105590340D01*
X138165840Y-105605580D01*
X138155680Y-105643680D01*
X138148060Y-105676700D01*
X138140440Y-105702100D01*
X138132820Y-105714800D01*
X138132820Y-105717340D01*
X138125200Y-105714800D01*
X138107420Y-105702100D01*
X138076940Y-105676700D01*
X138038840Y-105643680D01*
X138010900Y-105615740D01*
X137955020Y-105562400D01*
X137909300Y-105521760D01*
X137873740Y-105488740D01*
X137843260Y-105465880D01*
X137817860Y-105450640D01*
X137800080Y-105443020D01*
X137784840Y-105440480D01*
X137751820Y-105445560D01*
X137718800Y-105463340D01*
X137693400Y-105486200D01*
X137685780Y-105496360D01*
X137680700Y-105506520D01*
X137675620Y-105519220D01*
X137675620Y-105537000D01*
X137675620Y-105562400D01*
X137675620Y-105600500D01*
X137678160Y-105608120D01*
X137678160Y-105648760D01*
X137680700Y-105679240D01*
X137685780Y-105704640D01*
X137690860Y-105727500D01*
X137701020Y-105752900D01*
X137706100Y-105773220D01*
X137728960Y-105831640D01*
X137741660Y-105887520D01*
X137749280Y-105935780D01*
X137749280Y-105976420D01*
X137741660Y-106001820D01*
X137726420Y-106022140D01*
X137695940Y-106042460D01*
X137650220Y-106057700D01*
X137612120Y-106070400D01*
X137581640Y-106085640D01*
X137563860Y-106098340D01*
X137556240Y-106111040D01*
X137556240Y-106111040D01*
X137556240Y-106111040D01*
G37*
X137556240Y-106111040D02*
X137561320Y-106118660D01*
X137566400Y-106123740D01*
X137586720Y-106126280D01*
X137614660Y-106126280D01*
X137650220Y-106123740D01*
X137685780Y-106121200D01*
X137706100Y-106116120D01*
X137746740Y-106103420D01*
X137784840Y-106085640D01*
X137817860Y-106067860D01*
X137835640Y-106052620D01*
X137843260Y-106042460D01*
X137848340Y-106029760D01*
X137850880Y-106009440D01*
X137850880Y-105978960D01*
X137850880Y-105968800D01*
X137848340Y-105928160D01*
X137845800Y-105897680D01*
X137838180Y-105867200D01*
X137828020Y-105844340D01*
X137807700Y-105778300D01*
X137789920Y-105717340D01*
X137779760Y-105664000D01*
X137772140Y-105615740D01*
X137774680Y-105575100D01*
X137779760Y-105547160D01*
X137792460Y-105529380D01*
X137797540Y-105526840D01*
X137812780Y-105526840D01*
X137833100Y-105534460D01*
X137858500Y-105552240D01*
X137891520Y-105580180D01*
X137919460Y-105605580D01*
X137988040Y-105676700D01*
X138038840Y-105750360D01*
X138079480Y-105821480D01*
X138104880Y-105897680D01*
X138112500Y-105938320D01*
X138120120Y-105973880D01*
X138125200Y-105996740D01*
X138135360Y-106009440D01*
X138150600Y-106014520D01*
X138176000Y-106011980D01*
X138201400Y-106006900D01*
X138242040Y-105999280D01*
X138244580Y-105918000D01*
X138249660Y-105775760D01*
X138267440Y-105623360D01*
X138277600Y-105557320D01*
X138282680Y-105519220D01*
X138287760Y-105483660D01*
X138292840Y-105458260D01*
X138295380Y-105443020D01*
X138295380Y-105440480D01*
X138290300Y-105432860D01*
X138275060Y-105432860D01*
X138252200Y-105435400D01*
X138234420Y-105443020D01*
X138221720Y-105453180D01*
X138211560Y-105463340D01*
X138201400Y-105481120D01*
X138191240Y-105506520D01*
X138181080Y-105542080D01*
X138168380Y-105590340D01*
X138165840Y-105605580D01*
X138155680Y-105643680D01*
X138148060Y-105676700D01*
X138140440Y-105702100D01*
X138132820Y-105714800D01*
X138132820Y-105717340D01*
X138125200Y-105714800D01*
X138107420Y-105702100D01*
X138076940Y-105676700D01*
X138038840Y-105643680D01*
X138010900Y-105615740D01*
X137955020Y-105562400D01*
X137909300Y-105521760D01*
X137873740Y-105488740D01*
X137843260Y-105465880D01*
X137817860Y-105450640D01*
X137800080Y-105443020D01*
X137784840Y-105440480D01*
X137751820Y-105445560D01*
X137718800Y-105463340D01*
X137693400Y-105486200D01*
X137685780Y-105496360D01*
X137680700Y-105506520D01*
X137675620Y-105519220D01*
X137675620Y-105537000D01*
X137675620Y-105562400D01*
X137675620Y-105600500D01*
X137678160Y-105608120D01*
X137678160Y-105648760D01*
X137680700Y-105679240D01*
X137685780Y-105704640D01*
X137690860Y-105727500D01*
X137701020Y-105752900D01*
X137706100Y-105773220D01*
X137728960Y-105831640D01*
X137741660Y-105887520D01*
X137749280Y-105935780D01*
X137749280Y-105976420D01*
X137741660Y-106001820D01*
X137726420Y-106022140D01*
X137695940Y-106042460D01*
X137650220Y-106057700D01*
X137612120Y-106070400D01*
X137581640Y-106085640D01*
X137563860Y-106098340D01*
X137556240Y-106111040D01*
X137556240Y-106111040D01*
G36*
X140525500Y-106090720D02*
X140525500Y-106098340D01*
X140535660Y-106103420D01*
X140558520Y-106103420D01*
X140589000Y-106103420D01*
X140627100Y-106100880D01*
X140667740Y-106093260D01*
X140677900Y-106093260D01*
X140721080Y-106083100D01*
X140764260Y-106067860D01*
X140789660Y-106057700D01*
X140815060Y-106047540D01*
X140817600Y-106045000D01*
X140817600Y-105648760D01*
X140817600Y-105610660D01*
X140817600Y-105582720D01*
X140820140Y-105564940D01*
X140822680Y-105552240D01*
X140825220Y-105544620D01*
X140830300Y-105539540D01*
X140837920Y-105531920D01*
X140845540Y-105531920D01*
X140855700Y-105542080D01*
X140870940Y-105557320D01*
X140891260Y-105582720D01*
X140911580Y-105613200D01*
X140929360Y-105641140D01*
X140944600Y-105669080D01*
X140964920Y-105707180D01*
X140985240Y-105742740D01*
X140995400Y-105760520D01*
X141020800Y-105803700D01*
X141036040Y-105836720D01*
X141046200Y-105864660D01*
X141051280Y-105890060D01*
X141051280Y-105915460D01*
X141051280Y-105918000D01*
X141048740Y-105938320D01*
X141041120Y-105951020D01*
X141025880Y-105961180D01*
X141003020Y-105966260D01*
X140970000Y-105968800D01*
X140931900Y-105971340D01*
X140893800Y-105968800D01*
X140865860Y-105968800D01*
X140850620Y-105963720D01*
X140843000Y-105958640D01*
X140835380Y-105940860D01*
X140830300Y-105910380D01*
X140825220Y-105862120D01*
X140820140Y-105801160D01*
X140817600Y-105724960D01*
X140817600Y-105699560D01*
X140817600Y-105648760D01*
X140817600Y-106045000D01*
X140832840Y-106039920D01*
X140845540Y-106039920D01*
X140855700Y-106042460D01*
X140883640Y-106052620D01*
X140914120Y-106055160D01*
X140954760Y-106057700D01*
X141003020Y-106055160D01*
X141025880Y-106052620D01*
X141079220Y-106047540D01*
X141117320Y-106042460D01*
X141142720Y-106034840D01*
X141163040Y-106022140D01*
X141173200Y-106006900D01*
X141178280Y-105986580D01*
X141178280Y-105956100D01*
X141178280Y-105945940D01*
X141178280Y-105910380D01*
X141173200Y-105877360D01*
X141163040Y-105844340D01*
X141147800Y-105808780D01*
X141127480Y-105765600D01*
X141099540Y-105717340D01*
X141076680Y-105681780D01*
X141056360Y-105648760D01*
X141036040Y-105615740D01*
X141018260Y-105585260D01*
X141013180Y-105580180D01*
X140987780Y-105539540D01*
X140949680Y-105501440D01*
X140909040Y-105465880D01*
X140870940Y-105437940D01*
X140858240Y-105430320D01*
X140815060Y-105415080D01*
X140779500Y-105410000D01*
X140746480Y-105417620D01*
X140723620Y-105437940D01*
X140708380Y-105465880D01*
X140705840Y-105478580D01*
X140703300Y-105496360D01*
X140703300Y-105524300D01*
X140705840Y-105562400D01*
X140708380Y-105608120D01*
X140710920Y-105658920D01*
X140710920Y-105674160D01*
X140713460Y-105737660D01*
X140716000Y-105788460D01*
X140716000Y-105826560D01*
X140716000Y-105857040D01*
X140710920Y-105879900D01*
X140705840Y-105895140D01*
X140698220Y-105905300D01*
X140690600Y-105915460D01*
X140675360Y-105933240D01*
X140662660Y-105956100D01*
X140662660Y-105956100D01*
X140652500Y-105978960D01*
X140632180Y-106001820D01*
X140606780Y-106022140D01*
X140581380Y-106034840D01*
X140571220Y-106037380D01*
X140558520Y-106045000D01*
X140543280Y-106060240D01*
X140533120Y-106078020D01*
X140525500Y-106090720D01*
X140525500Y-106090720D01*
X140525500Y-106090720D01*
G37*
X140525500Y-106090720D02*
X140525500Y-106098340D01*
X140535660Y-106103420D01*
X140558520Y-106103420D01*
X140589000Y-106103420D01*
X140627100Y-106100880D01*
X140667740Y-106093260D01*
X140677900Y-106093260D01*
X140721080Y-106083100D01*
X140764260Y-106067860D01*
X140789660Y-106057700D01*
X140815060Y-106047540D01*
X140817600Y-106045000D01*
X140817600Y-105648760D01*
X140817600Y-105610660D01*
X140817600Y-105582720D01*
X140820140Y-105564940D01*
X140822680Y-105552240D01*
X140825220Y-105544620D01*
X140830300Y-105539540D01*
X140837920Y-105531920D01*
X140845540Y-105531920D01*
X140855700Y-105542080D01*
X140870940Y-105557320D01*
X140891260Y-105582720D01*
X140911580Y-105613200D01*
X140929360Y-105641140D01*
X140944600Y-105669080D01*
X140964920Y-105707180D01*
X140985240Y-105742740D01*
X140995400Y-105760520D01*
X141020800Y-105803700D01*
X141036040Y-105836720D01*
X141046200Y-105864660D01*
X141051280Y-105890060D01*
X141051280Y-105915460D01*
X141051280Y-105918000D01*
X141048740Y-105938320D01*
X141041120Y-105951020D01*
X141025880Y-105961180D01*
X141003020Y-105966260D01*
X140970000Y-105968800D01*
X140931900Y-105971340D01*
X140893800Y-105968800D01*
X140865860Y-105968800D01*
X140850620Y-105963720D01*
X140843000Y-105958640D01*
X140835380Y-105940860D01*
X140830300Y-105910380D01*
X140825220Y-105862120D01*
X140820140Y-105801160D01*
X140817600Y-105724960D01*
X140817600Y-105699560D01*
X140817600Y-105648760D01*
X140817600Y-106045000D01*
X140832840Y-106039920D01*
X140845540Y-106039920D01*
X140855700Y-106042460D01*
X140883640Y-106052620D01*
X140914120Y-106055160D01*
X140954760Y-106057700D01*
X141003020Y-106055160D01*
X141025880Y-106052620D01*
X141079220Y-106047540D01*
X141117320Y-106042460D01*
X141142720Y-106034840D01*
X141163040Y-106022140D01*
X141173200Y-106006900D01*
X141178280Y-105986580D01*
X141178280Y-105956100D01*
X141178280Y-105945940D01*
X141178280Y-105910380D01*
X141173200Y-105877360D01*
X141163040Y-105844340D01*
X141147800Y-105808780D01*
X141127480Y-105765600D01*
X141099540Y-105717340D01*
X141076680Y-105681780D01*
X141056360Y-105648760D01*
X141036040Y-105615740D01*
X141018260Y-105585260D01*
X141013180Y-105580180D01*
X140987780Y-105539540D01*
X140949680Y-105501440D01*
X140909040Y-105465880D01*
X140870940Y-105437940D01*
X140858240Y-105430320D01*
X140815060Y-105415080D01*
X140779500Y-105410000D01*
X140746480Y-105417620D01*
X140723620Y-105437940D01*
X140708380Y-105465880D01*
X140705840Y-105478580D01*
X140703300Y-105496360D01*
X140703300Y-105524300D01*
X140705840Y-105562400D01*
X140708380Y-105608120D01*
X140710920Y-105658920D01*
X140710920Y-105674160D01*
X140713460Y-105737660D01*
X140716000Y-105788460D01*
X140716000Y-105826560D01*
X140716000Y-105857040D01*
X140710920Y-105879900D01*
X140705840Y-105895140D01*
X140698220Y-105905300D01*
X140690600Y-105915460D01*
X140675360Y-105933240D01*
X140662660Y-105956100D01*
X140662660Y-105956100D01*
X140652500Y-105978960D01*
X140632180Y-106001820D01*
X140606780Y-106022140D01*
X140581380Y-106034840D01*
X140571220Y-106037380D01*
X140558520Y-106045000D01*
X140543280Y-106060240D01*
X140533120Y-106078020D01*
X140525500Y-106090720D01*
X140525500Y-106090720D01*
G36*
X141226540Y-105905300D02*
X141229080Y-105918000D01*
X141229080Y-105920540D01*
X141239240Y-105923080D01*
X141262100Y-105925620D01*
X141287500Y-105930700D01*
X141290040Y-105930700D01*
X141340840Y-105935780D01*
X141345920Y-105887520D01*
X141348460Y-105867200D01*
X141351000Y-105834180D01*
X141353540Y-105791000D01*
X141358620Y-105742740D01*
X141361160Y-105686860D01*
X141366240Y-105630980D01*
X141371320Y-105559860D01*
X141376400Y-105501440D01*
X141381480Y-105455720D01*
X141386560Y-105420160D01*
X141389100Y-105394760D01*
X141394180Y-105379520D01*
X141399260Y-105371900D01*
X141404340Y-105369360D01*
X141406880Y-105369360D01*
X141414500Y-105376980D01*
X141427200Y-105392220D01*
X141447520Y-105417620D01*
X141472920Y-105450640D01*
X141500860Y-105486200D01*
X141505940Y-105491280D01*
X141554200Y-105554780D01*
X141597380Y-105608120D01*
X141632940Y-105648760D01*
X141665960Y-105681780D01*
X141691360Y-105704640D01*
X141716760Y-105719880D01*
X141732000Y-105727500D01*
X141754860Y-105737660D01*
X141772640Y-105745280D01*
X141777720Y-105750360D01*
X141792960Y-105757980D01*
X141813280Y-105760520D01*
X141833600Y-105752900D01*
X141841220Y-105747820D01*
X141851380Y-105735120D01*
X141864080Y-105714800D01*
X141881860Y-105689400D01*
X141881860Y-105689400D01*
X141902180Y-105658920D01*
X141917420Y-105643680D01*
X141925040Y-105641140D01*
X141930120Y-105641140D01*
X141935200Y-105646220D01*
X141937740Y-105653840D01*
X141940280Y-105666540D01*
X141942820Y-105686860D01*
X141947900Y-105717340D01*
X141950440Y-105757980D01*
X141952980Y-105808780D01*
X141955520Y-105862120D01*
X141960600Y-105928160D01*
X141965680Y-105978960D01*
X141970760Y-106017060D01*
X141975840Y-106039920D01*
X141980920Y-106050080D01*
X141993620Y-106055160D01*
X142016480Y-106060240D01*
X142041880Y-106060240D01*
X142064740Y-106060240D01*
X142085060Y-106055160D01*
X142097760Y-106045000D01*
X142102840Y-106029760D01*
X142100300Y-106004360D01*
X142092680Y-105976420D01*
X142085060Y-105948480D01*
X142077440Y-105920540D01*
X142072360Y-105890060D01*
X142067280Y-105857040D01*
X142064740Y-105816400D01*
X142059660Y-105770680D01*
X142057120Y-105717340D01*
X142054580Y-105651300D01*
X142049500Y-105575100D01*
X142046960Y-105486200D01*
X142046960Y-105443020D01*
X142041880Y-105371900D01*
X142039340Y-105316020D01*
X142036800Y-105270300D01*
X142034260Y-105237280D01*
X142029180Y-105209340D01*
X142026640Y-105191560D01*
X142019020Y-105178860D01*
X142011400Y-105171240D01*
X142011400Y-105171240D01*
X141996160Y-105163620D01*
X141970760Y-105163620D01*
X141945360Y-105163620D01*
X141919960Y-105168700D01*
X141917420Y-105171240D01*
X141899640Y-105178860D01*
X141886940Y-105194100D01*
X141876780Y-105216960D01*
X141869160Y-105252520D01*
X141861540Y-105288080D01*
X141846300Y-105382060D01*
X141828520Y-105463340D01*
X141813280Y-105529380D01*
X141795500Y-105580180D01*
X141777720Y-105615740D01*
X141770100Y-105628440D01*
X141759940Y-105638600D01*
X141747240Y-105638600D01*
X141732000Y-105633520D01*
X141714220Y-105623360D01*
X141686280Y-105600500D01*
X141655800Y-105567480D01*
X141620240Y-105531920D01*
X141582140Y-105488740D01*
X141544040Y-105445560D01*
X141508480Y-105399840D01*
X141475460Y-105354120D01*
X141444980Y-105313480D01*
X141422120Y-105277920D01*
X141404340Y-105249980D01*
X141399260Y-105232200D01*
X141386560Y-105189020D01*
X141371320Y-105156000D01*
X141351000Y-105138220D01*
X141330680Y-105135680D01*
X141323060Y-105135680D01*
X141310360Y-105145840D01*
X141300200Y-105161080D01*
X141292580Y-105186480D01*
X141284960Y-105222040D01*
X141279880Y-105267760D01*
X141277340Y-105326180D01*
X141277340Y-105397300D01*
X141277340Y-105440480D01*
X141274800Y-105526840D01*
X141272260Y-105597960D01*
X141267180Y-105658920D01*
X141262100Y-105712260D01*
X141254480Y-105755440D01*
X141246860Y-105783380D01*
X141236700Y-105816400D01*
X141229080Y-105851960D01*
X141226540Y-105882440D01*
X141226540Y-105905300D01*
X141226540Y-105905300D01*
X141226540Y-105905300D01*
G37*
X141226540Y-105905300D02*
X141229080Y-105918000D01*
X141229080Y-105920540D01*
X141239240Y-105923080D01*
X141262100Y-105925620D01*
X141287500Y-105930700D01*
X141290040Y-105930700D01*
X141340840Y-105935780D01*
X141345920Y-105887520D01*
X141348460Y-105867200D01*
X141351000Y-105834180D01*
X141353540Y-105791000D01*
X141358620Y-105742740D01*
X141361160Y-105686860D01*
X141366240Y-105630980D01*
X141371320Y-105559860D01*
X141376400Y-105501440D01*
X141381480Y-105455720D01*
X141386560Y-105420160D01*
X141389100Y-105394760D01*
X141394180Y-105379520D01*
X141399260Y-105371900D01*
X141404340Y-105369360D01*
X141406880Y-105369360D01*
X141414500Y-105376980D01*
X141427200Y-105392220D01*
X141447520Y-105417620D01*
X141472920Y-105450640D01*
X141500860Y-105486200D01*
X141505940Y-105491280D01*
X141554200Y-105554780D01*
X141597380Y-105608120D01*
X141632940Y-105648760D01*
X141665960Y-105681780D01*
X141691360Y-105704640D01*
X141716760Y-105719880D01*
X141732000Y-105727500D01*
X141754860Y-105737660D01*
X141772640Y-105745280D01*
X141777720Y-105750360D01*
X141792960Y-105757980D01*
X141813280Y-105760520D01*
X141833600Y-105752900D01*
X141841220Y-105747820D01*
X141851380Y-105735120D01*
X141864080Y-105714800D01*
X141881860Y-105689400D01*
X141881860Y-105689400D01*
X141902180Y-105658920D01*
X141917420Y-105643680D01*
X141925040Y-105641140D01*
X141930120Y-105641140D01*
X141935200Y-105646220D01*
X141937740Y-105653840D01*
X141940280Y-105666540D01*
X141942820Y-105686860D01*
X141947900Y-105717340D01*
X141950440Y-105757980D01*
X141952980Y-105808780D01*
X141955520Y-105862120D01*
X141960600Y-105928160D01*
X141965680Y-105978960D01*
X141970760Y-106017060D01*
X141975840Y-106039920D01*
X141980920Y-106050080D01*
X141993620Y-106055160D01*
X142016480Y-106060240D01*
X142041880Y-106060240D01*
X142064740Y-106060240D01*
X142085060Y-106055160D01*
X142097760Y-106045000D01*
X142102840Y-106029760D01*
X142100300Y-106004360D01*
X142092680Y-105976420D01*
X142085060Y-105948480D01*
X142077440Y-105920540D01*
X142072360Y-105890060D01*
X142067280Y-105857040D01*
X142064740Y-105816400D01*
X142059660Y-105770680D01*
X142057120Y-105717340D01*
X142054580Y-105651300D01*
X142049500Y-105575100D01*
X142046960Y-105486200D01*
X142046960Y-105443020D01*
X142041880Y-105371900D01*
X142039340Y-105316020D01*
X142036800Y-105270300D01*
X142034260Y-105237280D01*
X142029180Y-105209340D01*
X142026640Y-105191560D01*
X142019020Y-105178860D01*
X142011400Y-105171240D01*
X142011400Y-105171240D01*
X141996160Y-105163620D01*
X141970760Y-105163620D01*
X141945360Y-105163620D01*
X141919960Y-105168700D01*
X141917420Y-105171240D01*
X141899640Y-105178860D01*
X141886940Y-105194100D01*
X141876780Y-105216960D01*
X141869160Y-105252520D01*
X141861540Y-105288080D01*
X141846300Y-105382060D01*
X141828520Y-105463340D01*
X141813280Y-105529380D01*
X141795500Y-105580180D01*
X141777720Y-105615740D01*
X141770100Y-105628440D01*
X141759940Y-105638600D01*
X141747240Y-105638600D01*
X141732000Y-105633520D01*
X141714220Y-105623360D01*
X141686280Y-105600500D01*
X141655800Y-105567480D01*
X141620240Y-105531920D01*
X141582140Y-105488740D01*
X141544040Y-105445560D01*
X141508480Y-105399840D01*
X141475460Y-105354120D01*
X141444980Y-105313480D01*
X141422120Y-105277920D01*
X141404340Y-105249980D01*
X141399260Y-105232200D01*
X141386560Y-105189020D01*
X141371320Y-105156000D01*
X141351000Y-105138220D01*
X141330680Y-105135680D01*
X141323060Y-105135680D01*
X141310360Y-105145840D01*
X141300200Y-105161080D01*
X141292580Y-105186480D01*
X141284960Y-105222040D01*
X141279880Y-105267760D01*
X141277340Y-105326180D01*
X141277340Y-105397300D01*
X141277340Y-105440480D01*
X141274800Y-105526840D01*
X141272260Y-105597960D01*
X141267180Y-105658920D01*
X141262100Y-105712260D01*
X141254480Y-105755440D01*
X141246860Y-105783380D01*
X141236700Y-105816400D01*
X141229080Y-105851960D01*
X141226540Y-105882440D01*
X141226540Y-105905300D01*
X141226540Y-105905300D01*
G36*
X138341100Y-105978960D02*
X138351260Y-105989120D01*
X138371580Y-106001820D01*
X138396980Y-106011980D01*
X138422380Y-106022140D01*
X138445240Y-106024680D01*
X138473180Y-106024680D01*
X138506200Y-106022140D01*
X138513820Y-106022140D01*
X138536680Y-106014520D01*
X138551920Y-106004360D01*
X138557000Y-106001820D01*
X138557000Y-105991660D01*
X138559540Y-105966260D01*
X138562080Y-105933240D01*
X138564620Y-105890060D01*
X138567160Y-105841800D01*
X138569700Y-105788460D01*
X138572240Y-105732580D01*
X138572240Y-105674160D01*
X138574780Y-105620820D01*
X138574780Y-105570020D01*
X138574780Y-105544620D01*
X138574780Y-105511600D01*
X138574780Y-105491280D01*
X138572240Y-105478580D01*
X138567160Y-105473500D01*
X138559540Y-105470960D01*
X138557000Y-105470960D01*
X138529060Y-105470960D01*
X138506200Y-105483660D01*
X138496040Y-105498900D01*
X138493500Y-105511600D01*
X138488420Y-105537000D01*
X138485880Y-105572560D01*
X138480800Y-105615740D01*
X138475720Y-105661460D01*
X138473180Y-105671620D01*
X138468100Y-105737660D01*
X138463020Y-105793540D01*
X138455400Y-105836720D01*
X138450320Y-105869740D01*
X138445240Y-105892600D01*
X138435080Y-105912920D01*
X138424920Y-105925620D01*
X138412220Y-105935780D01*
X138396980Y-105943400D01*
X138379200Y-105953560D01*
X138356340Y-105963720D01*
X138343640Y-105973880D01*
X138341100Y-105978960D01*
X138341100Y-105978960D01*
X138341100Y-105978960D01*
G37*
X138341100Y-105978960D02*
X138351260Y-105989120D01*
X138371580Y-106001820D01*
X138396980Y-106011980D01*
X138422380Y-106022140D01*
X138445240Y-106024680D01*
X138473180Y-106024680D01*
X138506200Y-106022140D01*
X138513820Y-106022140D01*
X138536680Y-106014520D01*
X138551920Y-106004360D01*
X138557000Y-106001820D01*
X138557000Y-105991660D01*
X138559540Y-105966260D01*
X138562080Y-105933240D01*
X138564620Y-105890060D01*
X138567160Y-105841800D01*
X138569700Y-105788460D01*
X138572240Y-105732580D01*
X138572240Y-105674160D01*
X138574780Y-105620820D01*
X138574780Y-105570020D01*
X138574780Y-105544620D01*
X138574780Y-105511600D01*
X138574780Y-105491280D01*
X138572240Y-105478580D01*
X138567160Y-105473500D01*
X138559540Y-105470960D01*
X138557000Y-105470960D01*
X138529060Y-105470960D01*
X138506200Y-105483660D01*
X138496040Y-105498900D01*
X138493500Y-105511600D01*
X138488420Y-105537000D01*
X138485880Y-105572560D01*
X138480800Y-105615740D01*
X138475720Y-105661460D01*
X138473180Y-105671620D01*
X138468100Y-105737660D01*
X138463020Y-105793540D01*
X138455400Y-105836720D01*
X138450320Y-105869740D01*
X138445240Y-105892600D01*
X138435080Y-105912920D01*
X138424920Y-105925620D01*
X138412220Y-105935780D01*
X138396980Y-105943400D01*
X138379200Y-105953560D01*
X138356340Y-105963720D01*
X138343640Y-105973880D01*
X138341100Y-105978960D01*
X138341100Y-105978960D01*
G36*
X139984480Y-105953560D02*
X140025120Y-105973880D01*
X140055600Y-105986580D01*
X140093700Y-105996740D01*
X140136880Y-106006900D01*
X140177520Y-106014520D01*
X140177520Y-105712260D01*
X140180060Y-105681780D01*
X140180060Y-105676700D01*
X140190220Y-105653840D01*
X140205460Y-105643680D01*
X140228320Y-105643680D01*
X140251180Y-105653840D01*
X140279120Y-105676700D01*
X140307060Y-105704640D01*
X140335000Y-105742740D01*
X140345160Y-105763060D01*
X140360400Y-105791000D01*
X140362940Y-105813860D01*
X140357860Y-105831640D01*
X140347700Y-105844340D01*
X140332460Y-105859580D01*
X140312140Y-105877360D01*
X140286740Y-105897680D01*
X140263880Y-105915460D01*
X140241020Y-105928160D01*
X140225780Y-105938320D01*
X140220700Y-105938320D01*
X140213080Y-105930700D01*
X140202920Y-105912920D01*
X140197840Y-105897680D01*
X140190220Y-105872280D01*
X140185140Y-105836720D01*
X140180060Y-105793540D01*
X140177520Y-105750360D01*
X140177520Y-105712260D01*
X140177520Y-106014520D01*
X140180060Y-106014520D01*
X140220700Y-106019600D01*
X140256260Y-106022140D01*
X140281660Y-106019600D01*
X140289280Y-106017060D01*
X140301980Y-106009440D01*
X140322300Y-105996740D01*
X140347700Y-105981500D01*
X140357860Y-105973880D01*
X140403580Y-105938320D01*
X140439140Y-105897680D01*
X140467080Y-105851960D01*
X140472160Y-105844340D01*
X140479780Y-105821480D01*
X140482320Y-105803700D01*
X140479780Y-105780840D01*
X140477240Y-105775760D01*
X140456920Y-105727500D01*
X140426440Y-105679240D01*
X140385800Y-105636060D01*
X140342620Y-105597960D01*
X140301980Y-105572560D01*
X140253720Y-105549700D01*
X140241020Y-105544620D01*
X140213080Y-105534460D01*
X140190220Y-105521760D01*
X140177520Y-105511600D01*
X140169900Y-105496360D01*
X140162280Y-105473500D01*
X140157200Y-105437940D01*
X140152120Y-105392220D01*
X140149580Y-105336340D01*
X140149580Y-105265220D01*
X140147040Y-105216960D01*
X140147040Y-105168700D01*
X140147040Y-105125520D01*
X140147040Y-105089960D01*
X140144500Y-105062020D01*
X140144500Y-105046780D01*
X140144500Y-105046780D01*
X140139420Y-105036620D01*
X140129260Y-105031540D01*
X140111480Y-105029000D01*
X140098780Y-105029000D01*
X140075920Y-105029000D01*
X140060680Y-105029000D01*
X140058140Y-105031540D01*
X140058140Y-105039160D01*
X140058140Y-105059480D01*
X140055600Y-105092500D01*
X140055600Y-105138220D01*
X140055600Y-105191560D01*
X140053060Y-105252520D01*
X140053060Y-105321100D01*
X140053060Y-105397300D01*
X140050520Y-105448100D01*
X140050520Y-105542080D01*
X140047980Y-105628440D01*
X140045440Y-105702100D01*
X140042900Y-105765600D01*
X140042900Y-105816400D01*
X140040360Y-105854500D01*
X140037820Y-105879900D01*
X140035280Y-105890060D01*
X140025120Y-105912920D01*
X140007340Y-105933240D01*
X140004800Y-105935780D01*
X139984480Y-105953560D01*
X139984480Y-105953560D01*
X139984480Y-105953560D01*
G37*
X139984480Y-105953560D02*
X140025120Y-105973880D01*
X140055600Y-105986580D01*
X140093700Y-105996740D01*
X140136880Y-106006900D01*
X140177520Y-106014520D01*
X140177520Y-105712260D01*
X140180060Y-105681780D01*
X140180060Y-105676700D01*
X140190220Y-105653840D01*
X140205460Y-105643680D01*
X140228320Y-105643680D01*
X140251180Y-105653840D01*
X140279120Y-105676700D01*
X140307060Y-105704640D01*
X140335000Y-105742740D01*
X140345160Y-105763060D01*
X140360400Y-105791000D01*
X140362940Y-105813860D01*
X140357860Y-105831640D01*
X140347700Y-105844340D01*
X140332460Y-105859580D01*
X140312140Y-105877360D01*
X140286740Y-105897680D01*
X140263880Y-105915460D01*
X140241020Y-105928160D01*
X140225780Y-105938320D01*
X140220700Y-105938320D01*
X140213080Y-105930700D01*
X140202920Y-105912920D01*
X140197840Y-105897680D01*
X140190220Y-105872280D01*
X140185140Y-105836720D01*
X140180060Y-105793540D01*
X140177520Y-105750360D01*
X140177520Y-105712260D01*
X140177520Y-106014520D01*
X140180060Y-106014520D01*
X140220700Y-106019600D01*
X140256260Y-106022140D01*
X140281660Y-106019600D01*
X140289280Y-106017060D01*
X140301980Y-106009440D01*
X140322300Y-105996740D01*
X140347700Y-105981500D01*
X140357860Y-105973880D01*
X140403580Y-105938320D01*
X140439140Y-105897680D01*
X140467080Y-105851960D01*
X140472160Y-105844340D01*
X140479780Y-105821480D01*
X140482320Y-105803700D01*
X140479780Y-105780840D01*
X140477240Y-105775760D01*
X140456920Y-105727500D01*
X140426440Y-105679240D01*
X140385800Y-105636060D01*
X140342620Y-105597960D01*
X140301980Y-105572560D01*
X140253720Y-105549700D01*
X140241020Y-105544620D01*
X140213080Y-105534460D01*
X140190220Y-105521760D01*
X140177520Y-105511600D01*
X140169900Y-105496360D01*
X140162280Y-105473500D01*
X140157200Y-105437940D01*
X140152120Y-105392220D01*
X140149580Y-105336340D01*
X140149580Y-105265220D01*
X140147040Y-105216960D01*
X140147040Y-105168700D01*
X140147040Y-105125520D01*
X140147040Y-105089960D01*
X140144500Y-105062020D01*
X140144500Y-105046780D01*
X140144500Y-105046780D01*
X140139420Y-105036620D01*
X140129260Y-105031540D01*
X140111480Y-105029000D01*
X140098780Y-105029000D01*
X140075920Y-105029000D01*
X140060680Y-105029000D01*
X140058140Y-105031540D01*
X140058140Y-105039160D01*
X140058140Y-105059480D01*
X140055600Y-105092500D01*
X140055600Y-105138220D01*
X140055600Y-105191560D01*
X140053060Y-105252520D01*
X140053060Y-105321100D01*
X140053060Y-105397300D01*
X140050520Y-105448100D01*
X140050520Y-105542080D01*
X140047980Y-105628440D01*
X140045440Y-105702100D01*
X140042900Y-105765600D01*
X140042900Y-105816400D01*
X140040360Y-105854500D01*
X140037820Y-105879900D01*
X140035280Y-105890060D01*
X140025120Y-105912920D01*
X140007340Y-105933240D01*
X140004800Y-105935780D01*
X139984480Y-105953560D01*
X139984480Y-105953560D01*
G36*
X139446000Y-105956100D02*
X139453620Y-105971340D01*
X139476480Y-105984040D01*
X139512040Y-105996740D01*
X139537440Y-106004360D01*
X139567920Y-106009440D01*
X139606020Y-106014520D01*
X139649200Y-106017060D01*
X139689840Y-106019600D01*
X139725400Y-106019600D01*
X139748260Y-106017060D01*
X139799060Y-106004360D01*
X139847320Y-105986580D01*
X139885420Y-105961180D01*
X139913360Y-105933240D01*
X139920980Y-105923080D01*
X139928600Y-105897680D01*
X139933680Y-105864660D01*
X139936220Y-105824020D01*
X139931140Y-105785920D01*
X139923520Y-105750360D01*
X139918440Y-105735120D01*
X139908280Y-105712260D01*
X139903200Y-105691940D01*
X139900660Y-105689400D01*
X139895580Y-105658920D01*
X139877800Y-105623360D01*
X139849860Y-105590340D01*
X139816840Y-105557320D01*
X139778740Y-105529380D01*
X139738100Y-105509060D01*
X139733020Y-105506520D01*
X139715240Y-105503980D01*
X139684760Y-105501440D01*
X139651740Y-105501440D01*
X139613640Y-105503980D01*
X139580620Y-105509060D01*
X139555220Y-105514140D01*
X139550140Y-105514140D01*
X139532360Y-105526840D01*
X139514580Y-105544620D01*
X139509500Y-105552240D01*
X139496800Y-105570020D01*
X139491720Y-105585260D01*
X139491720Y-105605580D01*
X139491720Y-105630980D01*
X139501880Y-105679240D01*
X139522200Y-105717340D01*
X139555220Y-105747820D01*
X139560300Y-105750360D01*
X139560300Y-105608120D01*
X139565380Y-105595420D01*
X139580620Y-105580180D01*
X139608560Y-105562400D01*
X139644120Y-105559860D01*
X139679680Y-105567480D01*
X139712700Y-105585260D01*
X139735560Y-105608120D01*
X139753340Y-105630980D01*
X139771120Y-105658920D01*
X139783820Y-105686860D01*
X139791440Y-105709720D01*
X139793980Y-105724960D01*
X139793980Y-105727500D01*
X139783820Y-105735120D01*
X139758420Y-105737660D01*
X139722860Y-105735120D01*
X139682220Y-105727500D01*
X139651740Y-105719880D01*
X139631420Y-105709720D01*
X139611100Y-105697020D01*
X139598400Y-105681780D01*
X139580620Y-105661460D01*
X139565380Y-105638600D01*
X139562840Y-105625900D01*
X139560300Y-105608120D01*
X139560300Y-105750360D01*
X139565380Y-105752900D01*
X139585700Y-105760520D01*
X139616180Y-105770680D01*
X139651740Y-105778300D01*
X139692380Y-105785920D01*
X139692380Y-105788460D01*
X139730480Y-105793540D01*
X139763500Y-105801160D01*
X139788900Y-105808780D01*
X139801600Y-105813860D01*
X139804140Y-105813860D01*
X139816840Y-105829100D01*
X139819380Y-105849420D01*
X139809220Y-105872280D01*
X139786360Y-105895140D01*
X139755880Y-105918000D01*
X139748260Y-105920540D01*
X139730480Y-105928160D01*
X139710160Y-105933240D01*
X139684760Y-105935780D01*
X139649200Y-105935780D01*
X139646660Y-105935780D01*
X139608560Y-105935780D01*
X139565380Y-105933240D01*
X139529820Y-105930700D01*
X139522200Y-105928160D01*
X139486640Y-105928160D01*
X139463780Y-105930700D01*
X139451080Y-105938320D01*
X139446000Y-105953560D01*
X139446000Y-105956100D01*
X139446000Y-105956100D01*
X139446000Y-105956100D01*
G37*
X139446000Y-105956100D02*
X139453620Y-105971340D01*
X139476480Y-105984040D01*
X139512040Y-105996740D01*
X139537440Y-106004360D01*
X139567920Y-106009440D01*
X139606020Y-106014520D01*
X139649200Y-106017060D01*
X139689840Y-106019600D01*
X139725400Y-106019600D01*
X139748260Y-106017060D01*
X139799060Y-106004360D01*
X139847320Y-105986580D01*
X139885420Y-105961180D01*
X139913360Y-105933240D01*
X139920980Y-105923080D01*
X139928600Y-105897680D01*
X139933680Y-105864660D01*
X139936220Y-105824020D01*
X139931140Y-105785920D01*
X139923520Y-105750360D01*
X139918440Y-105735120D01*
X139908280Y-105712260D01*
X139903200Y-105691940D01*
X139900660Y-105689400D01*
X139895580Y-105658920D01*
X139877800Y-105623360D01*
X139849860Y-105590340D01*
X139816840Y-105557320D01*
X139778740Y-105529380D01*
X139738100Y-105509060D01*
X139733020Y-105506520D01*
X139715240Y-105503980D01*
X139684760Y-105501440D01*
X139651740Y-105501440D01*
X139613640Y-105503980D01*
X139580620Y-105509060D01*
X139555220Y-105514140D01*
X139550140Y-105514140D01*
X139532360Y-105526840D01*
X139514580Y-105544620D01*
X139509500Y-105552240D01*
X139496800Y-105570020D01*
X139491720Y-105585260D01*
X139491720Y-105605580D01*
X139491720Y-105630980D01*
X139501880Y-105679240D01*
X139522200Y-105717340D01*
X139555220Y-105747820D01*
X139560300Y-105750360D01*
X139560300Y-105608120D01*
X139565380Y-105595420D01*
X139580620Y-105580180D01*
X139608560Y-105562400D01*
X139644120Y-105559860D01*
X139679680Y-105567480D01*
X139712700Y-105585260D01*
X139735560Y-105608120D01*
X139753340Y-105630980D01*
X139771120Y-105658920D01*
X139783820Y-105686860D01*
X139791440Y-105709720D01*
X139793980Y-105724960D01*
X139793980Y-105727500D01*
X139783820Y-105735120D01*
X139758420Y-105737660D01*
X139722860Y-105735120D01*
X139682220Y-105727500D01*
X139651740Y-105719880D01*
X139631420Y-105709720D01*
X139611100Y-105697020D01*
X139598400Y-105681780D01*
X139580620Y-105661460D01*
X139565380Y-105638600D01*
X139562840Y-105625900D01*
X139560300Y-105608120D01*
X139560300Y-105750360D01*
X139565380Y-105752900D01*
X139585700Y-105760520D01*
X139616180Y-105770680D01*
X139651740Y-105778300D01*
X139692380Y-105785920D01*
X139692380Y-105788460D01*
X139730480Y-105793540D01*
X139763500Y-105801160D01*
X139788900Y-105808780D01*
X139801600Y-105813860D01*
X139804140Y-105813860D01*
X139816840Y-105829100D01*
X139819380Y-105849420D01*
X139809220Y-105872280D01*
X139786360Y-105895140D01*
X139755880Y-105918000D01*
X139748260Y-105920540D01*
X139730480Y-105928160D01*
X139710160Y-105933240D01*
X139684760Y-105935780D01*
X139649200Y-105935780D01*
X139646660Y-105935780D01*
X139608560Y-105935780D01*
X139565380Y-105933240D01*
X139529820Y-105930700D01*
X139522200Y-105928160D01*
X139486640Y-105928160D01*
X139463780Y-105930700D01*
X139451080Y-105938320D01*
X139446000Y-105953560D01*
X139446000Y-105956100D01*
X139446000Y-105956100D01*
G36*
X138536680Y-105275380D02*
X138539220Y-105283000D01*
X138549380Y-105295700D01*
X138564620Y-105298240D01*
X138584940Y-105285540D01*
X138607800Y-105262680D01*
X138633200Y-105232200D01*
X138643360Y-105206800D01*
X138640820Y-105186480D01*
X138625580Y-105171240D01*
X138602720Y-105158540D01*
X138587480Y-105150920D01*
X138577320Y-105148380D01*
X138574780Y-105148380D01*
X138567160Y-105156000D01*
X138557000Y-105173780D01*
X138549380Y-105196640D01*
X138541760Y-105224580D01*
X138536680Y-105252520D01*
X138536680Y-105275380D01*
X138536680Y-105275380D01*
X138536680Y-105275380D01*
G37*
X138536680Y-105275380D02*
X138539220Y-105283000D01*
X138549380Y-105295700D01*
X138564620Y-105298240D01*
X138584940Y-105285540D01*
X138607800Y-105262680D01*
X138633200Y-105232200D01*
X138643360Y-105206800D01*
X138640820Y-105186480D01*
X138625580Y-105171240D01*
X138602720Y-105158540D01*
X138587480Y-105150920D01*
X138577320Y-105148380D01*
X138574780Y-105148380D01*
X138567160Y-105156000D01*
X138557000Y-105173780D01*
X138549380Y-105196640D01*
X138541760Y-105224580D01*
X138536680Y-105252520D01*
X138536680Y-105275380D01*
X138536680Y-105275380D01*
M02*
