G04 #@! TF.FileFunction,Copper,L1,Top,Signal*
%FSLAX46Y46*%
G04 Gerber Fmt 4.6, Leading zero omitted, Abs format (unit mm)*
G04 Created by KiCad (PCBNEW 4.0.6) date 03/19/19 12:30:58*
%MOMM*%
%LPD*%
G01*
G04 APERTURE LIST*
%ADD10C,0.100000*%
%ADD11R,0.600000X1.500000*%
%ADD12R,1.600000X1.000000*%
%ADD13C,2.500000*%
%ADD14R,1.700000X1.800860*%
%ADD15R,1.100000X1.700000*%
%ADD16C,0.406400*%
%ADD17C,0.609600*%
G04 APERTURE END LIST*
D10*
D11*
X143510000Y-90330000D03*
X144780000Y-90330000D03*
X146050000Y-90330000D03*
X147320000Y-90330000D03*
X148590000Y-90330000D03*
X149860000Y-90330000D03*
X151130000Y-90330000D03*
X151130000Y-84930000D03*
X149860000Y-84930000D03*
X148590000Y-84930000D03*
X147320000Y-84930000D03*
X146050000Y-84930000D03*
X144780000Y-84930000D03*
X143510000Y-84930000D03*
D12*
X140970000Y-89130000D03*
X140970000Y-86130000D03*
D13*
X138300000Y-87600000D03*
X138990000Y-84160000D03*
X140940000Y-81240000D03*
X143860000Y-79290000D03*
X147300000Y-78600000D03*
X150740000Y-79290000D03*
X153660000Y-81240000D03*
X155610000Y-84160000D03*
X155610000Y-91040000D03*
X156300000Y-87600000D03*
X153660000Y-93960000D03*
X150740000Y-95910000D03*
X147300000Y-96600000D03*
X143860000Y-95910000D03*
X140940000Y-93960000D03*
X138990000Y-91040000D03*
D14*
X167259000Y-83820000D03*
X164084000Y-83820000D03*
D15*
X167513000Y-86360000D03*
X164084000Y-86360000D03*
D13*
X161290000Y-85090000D03*
X170180000Y-85090000D03*
D14*
X167259000Y-90805000D03*
X164084000Y-90805000D03*
D15*
X167513000Y-93345000D03*
X164084000Y-93345000D03*
D13*
X161290000Y-92075000D03*
X170180000Y-92075000D03*
D16*
X159415000Y-87600000D02*
X159990000Y-87600000D01*
X161290000Y-88900000D02*
X161290000Y-92075000D01*
X159990000Y-87600000D02*
X161290000Y-88900000D01*
X156300000Y-87600000D02*
X159415000Y-87600000D01*
X159415000Y-87600000D02*
X161290000Y-85725000D01*
X161290000Y-85725000D02*
X161290000Y-85090000D01*
D17*
X143510000Y-84930000D02*
X143510000Y-86106000D01*
X144272000Y-86868000D02*
X155568000Y-86868000D01*
X143510000Y-86106000D02*
X144272000Y-86868000D01*
X155568000Y-86868000D02*
X156300000Y-87600000D01*
X138990000Y-84160000D02*
X139000000Y-84160000D01*
X139000000Y-84160000D02*
X140970000Y-86130000D01*
X143510000Y-84930000D02*
X142170000Y-84930000D01*
X142170000Y-84930000D02*
X140970000Y-86130000D01*
X164084000Y-83820000D02*
X162560000Y-83820000D01*
X162560000Y-83820000D02*
X161290000Y-85090000D01*
X164084000Y-90805000D02*
X162560000Y-90805000D01*
X162560000Y-90805000D02*
X161290000Y-92075000D01*
D16*
X138270000Y-87630000D02*
X138300000Y-87600000D01*
X138270000Y-87630000D02*
X138300000Y-87600000D01*
D17*
X143510000Y-90330000D02*
X143510000Y-89154000D01*
X152962000Y-88392000D02*
X155610000Y-91040000D01*
X144272000Y-88392000D02*
X152962000Y-88392000D01*
X143510000Y-89154000D02*
X144272000Y-88392000D01*
X140970000Y-89130000D02*
X143232000Y-89130000D01*
X143510000Y-89408000D02*
X143510000Y-90330000D01*
X143232000Y-89130000D02*
X143510000Y-89408000D01*
X138300000Y-87600000D02*
X138400000Y-87600000D01*
X138400000Y-87600000D02*
X139930000Y-89130000D01*
X139930000Y-89130000D02*
X140970000Y-89130000D01*
X143860000Y-95910000D02*
X144120000Y-95910000D01*
X144120000Y-95910000D02*
X147320000Y-92710000D01*
X147320000Y-92710000D02*
X147320000Y-90330000D01*
X147300000Y-96600000D02*
X147300000Y-94762000D01*
X148590000Y-93472000D02*
X148590000Y-90330000D01*
X147300000Y-94762000D02*
X148590000Y-93472000D01*
X150740000Y-95910000D02*
X150740000Y-94606000D01*
X149860000Y-93726000D02*
X149860000Y-90330000D01*
X150740000Y-94606000D02*
X149860000Y-93726000D01*
X148590000Y-84930000D02*
X148590000Y-81440000D01*
X148590000Y-81440000D02*
X150740000Y-79290000D01*
X147320000Y-84930000D02*
X147320000Y-78620000D01*
X147320000Y-78620000D02*
X147300000Y-78600000D01*
X146050000Y-84930000D02*
X146050000Y-81480000D01*
X146050000Y-81480000D02*
X143860000Y-79290000D01*
X144780000Y-84930000D02*
X144780000Y-83820000D01*
X142200000Y-81240000D02*
X140940000Y-81240000D01*
X144780000Y-83820000D02*
X142200000Y-81240000D01*
X138990000Y-91040000D02*
X141078000Y-91040000D01*
X144780000Y-91440000D02*
X144780000Y-90330000D01*
X144272000Y-91948000D02*
X144780000Y-91440000D01*
X141986000Y-91948000D02*
X144272000Y-91948000D01*
X141078000Y-91040000D02*
X141986000Y-91948000D01*
X140940000Y-93960000D02*
X142006000Y-93960000D01*
X142006000Y-93960000D02*
X142748000Y-93218000D01*
X142748000Y-93218000D02*
X145034000Y-93218000D01*
X145034000Y-93218000D02*
X146050000Y-92202000D01*
X146050000Y-92202000D02*
X146050000Y-90330000D01*
D16*
X155610000Y-84160000D02*
X157140000Y-84160000D01*
X170180000Y-81915000D02*
X170180000Y-85090000D01*
X169545000Y-81280000D02*
X170180000Y-81915000D01*
X160020000Y-81280000D02*
X169545000Y-81280000D01*
X157140000Y-84160000D02*
X160020000Y-81280000D01*
D17*
X151130000Y-84930000D02*
X151130000Y-84074000D01*
X151638000Y-83566000D02*
X155016000Y-83566000D01*
X151130000Y-84074000D02*
X151638000Y-83566000D01*
X155016000Y-83566000D02*
X155610000Y-84160000D01*
X167513000Y-86360000D02*
X168910000Y-86360000D01*
X168910000Y-86360000D02*
X170180000Y-85090000D01*
X149860000Y-84930000D02*
X149860000Y-83566000D01*
X152186000Y-81240000D02*
X153660000Y-81240000D01*
X149860000Y-83566000D02*
X152186000Y-81240000D01*
D16*
X153660000Y-93960000D02*
X157460000Y-93960000D01*
X170180000Y-94615000D02*
X170180000Y-92075000D01*
X168910000Y-95885000D02*
X170180000Y-94615000D01*
X159385000Y-95885000D02*
X168910000Y-95885000D01*
X157460000Y-93960000D02*
X159385000Y-95885000D01*
D17*
X153660000Y-93960000D02*
X152888000Y-93960000D01*
X152888000Y-93960000D02*
X151130000Y-92202000D01*
X151130000Y-92202000D02*
X151130000Y-90330000D01*
X167513000Y-93345000D02*
X168910000Y-93345000D01*
X168910000Y-93345000D02*
X170180000Y-92075000D01*
X164084000Y-86360000D02*
X164719000Y-86360000D01*
X164719000Y-86360000D02*
X167259000Y-83820000D01*
X164084000Y-93345000D02*
X164719000Y-93345000D01*
X164719000Y-93345000D02*
X167259000Y-90805000D01*
M02*
