<?xml version="1.0" standalone="no"?>
 <!DOCTYPE svg PUBLIC "-//W3C//DTD SVG 1.1//EN" 
 "http://www.w3.org/Graphics/SVG/1.1/DTD/svg11.dtd"> 
<svg xmlns="http://www.w3.org/2000/svg" version="1.1" 
    width="4.72186cm" height="4.064cm" viewBox="0 0 18590 16000 ">
<title>SVG Picture created as base-brd.svg date 2017/11/17 08:46:12 </title>
  <desc>Picture generated by PCBNEW </desc>
<g style="fill:#000000; fill-opacity:1;stroke:#000000; stroke-opacity:1;
stroke-linecap:round; stroke-linejoin:round; "
 transform="translate(0 0) scale(1 1)">
</g>
<g style="fill:#000000; fill-opacity:0.0; 
stroke:#000000; stroke-width:-0.000393701; stroke-opacity:1; 
stroke-linecap:round; stroke-linejoin:round;">
</g>
<g style="fill:#840000; fill-opacity:0.0; 
stroke:#840000; stroke-width:-0.000393701; stroke-opacity:1; 
stroke-linecap:round; stroke-linejoin:round;">
</g>
<g style="fill:#840000; fill-opacity:0.0; 
stroke:#840000; stroke-width:0; stroke-opacity:1; 
stroke-linecap:round; stroke-linejoin:round;">
</g>
<g style="fill:#840000; fill-opacity:1.0; 
stroke:#840000; stroke-width:0; stroke-opacity:1; 
stroke-linecap:round; stroke-linejoin:round;">
<polyline style="fill-rule:evenodd;"
points="9488,7255
9488,6744
9763,6744
9763,7255
9488,7255
" /> 
<polyline style="fill-rule:evenodd;"
points="10236,7255
10236,6744
10511,6744
10511,7255
10236,7255
" /> 
<polyline style="fill-rule:evenodd;"
points="9490,6209
9490,5815
9762,5815
9762,6209
9490,6209
" /> 
<polyline style="fill-rule:evenodd;"
points="9864,6209
9864,5815
10136,5815
10136,6209
9864,6209
" /> 
<polyline style="fill-rule:evenodd;"
points="10238,6209
10238,5815
10510,5815
10510,6209
10238,6209
" /> 
<polyline style="fill-rule:evenodd;"
points="10238,5185
10238,4791
10510,4791
10510,5185
10238,5185
" /> 
<polyline style="fill-rule:evenodd;"
points="9864,5185
9864,4791
10136,4791
10136,5185
9864,5185
" /> 
<polyline style="fill-rule:evenodd;"
points="9490,5185
9490,4791
9762,4791
9762,5185
9490,5185
" /> 
<polyline style="fill-rule:evenodd;"
points="5510,9791
5510,10185
5238,10185
5238,9791
5510,9791
" /> 
<polyline style="fill-rule:evenodd;"
points="5136,9791
5136,10185
4864,10185
4864,9791
5136,9791
" /> 
<polyline style="fill-rule:evenodd;"
points="4762,9791
4762,10185
4490,10185
4490,9791
4762,9791
" /> 
<polyline style="fill-rule:evenodd;"
points="4762,10815
4762,11209
4490,11209
4490,10815
4762,10815
" /> 
<polyline style="fill-rule:evenodd;"
points="5136,10815
5136,11209
4864,11209
4864,10815
5136,10815
" /> 
<polyline style="fill-rule:evenodd;"
points="5510,10815
5510,11209
5238,11209
5238,10815
5510,10815
" /> 
<polyline style="fill-rule:evenodd;"
points="5511,8744
5511,9255
5236,9255
5236,8744
5511,8744
" /> 
<polyline style="fill-rule:evenodd;"
points="4763,8744
4763,9255
4488,9255
4488,8744
4763,8744
" /> 
<polyline style="fill-rule:evenodd;"
points="8244,9988
8755,9988
8755,10263
8244,10263
8244,9988
" /> 
<polyline style="fill-rule:evenodd;"
points="8244,10736
8755,10736
8755,11011
8244,11011
8244,10736
" /> 
<polyline style="fill-rule:evenodd;"
points="9291,9990
9685,9990
9685,10262
9291,10262
9291,9990
" /> 
<polyline style="fill-rule:evenodd;"
points="9291,10364
9685,10364
9685,10636
9291,10636
9291,10364
" /> 
<polyline style="fill-rule:evenodd;"
points="9291,10738
9685,10738
9685,11010
9291,11010
9291,10738
" /> 
<polyline style="fill-rule:evenodd;"
points="10315,10738
10709,10738
10709,11010
10315,11010
10315,10738
" /> 
<polyline style="fill-rule:evenodd;"
points="10315,10364
10709,10364
10709,10636
10315,10636
10315,10364
" /> 
<polyline style="fill-rule:evenodd;"
points="10315,9990
10709,9990
10709,10262
10315,10262
10315,9990
" /> 
<polyline style="fill-rule:evenodd;"
points="9291,9990
9685,9990
9685,10262
9291,10262
9291,9990
" /> 
<polyline style="fill-rule:evenodd;"
points="9291,10364
9685,10364
9685,10636
9291,10636
9291,10364
" /> 
<polyline style="fill-rule:evenodd;"
points="9291,10738
9685,10738
9685,11010
9291,11010
9291,10738
" /> 
<polyline style="fill-rule:evenodd;"
points="10315,10738
10709,10738
10709,11010
10315,11010
10315,10738
" /> 
<polyline style="fill-rule:evenodd;"
points="10315,10364
10709,10364
10709,10636
10315,10636
10315,10364
" /> 
<polyline style="fill-rule:evenodd;"
points="10315,9990
10709,9990
10709,10262
10315,10262
10315,9990
" /> 
<polyline style="fill-rule:evenodd;"
points="8244,9988
8755,9988
8755,10263
8244,10263
8244,9988
" /> 
<polyline style="fill-rule:evenodd;"
points="8244,10736
8755,10736
8755,11011
8244,11011
8244,10736
" /> 
<polyline style="fill-rule:evenodd;"
points="8244,9988
8755,9988
8755,10263
8244,10263
8244,9988
" /> 
<polyline style="fill-rule:evenodd;"
points="8244,10736
8755,10736
8755,11011
8244,11011
8244,10736
" /> 
<polyline style="fill-rule:evenodd;"
points="9291,9990
9685,9990
9685,10262
9291,10262
9291,9990
" /> 
<polyline style="fill-rule:evenodd;"
points="9291,10364
9685,10364
9685,10636
9291,10636
9291,10364
" /> 
<polyline style="fill-rule:evenodd;"
points="9291,10738
9685,10738
9685,11010
9291,11010
9291,10738
" /> 
<polyline style="fill-rule:evenodd;"
points="10315,10738
10709,10738
10709,11010
10315,11010
10315,10738
" /> 
<polyline style="fill-rule:evenodd;"
points="10315,10364
10709,10364
10709,10636
10315,10636
10315,10364
" /> 
<polyline style="fill-rule:evenodd;"
points="10315,9990
10709,9990
10709,10262
10315,10262
10315,9990
" /> 
<polyline style="fill-rule:evenodd;"
points="9291,9990
9685,9990
9685,10262
9291,10262
9291,9990
" /> 
<polyline style="fill-rule:evenodd;"
points="9291,10364
9685,10364
9685,10636
9291,10636
9291,10364
" /> 
<polyline style="fill-rule:evenodd;"
points="9291,10738
9685,10738
9685,11010
9291,11010
9291,10738
" /> 
<polyline style="fill-rule:evenodd;"
points="10315,10738
10709,10738
10709,11010
10315,11010
10315,10738
" /> 
<polyline style="fill-rule:evenodd;"
points="10315,10364
10709,10364
10709,10636
10315,10636
10315,10364
" /> 
<polyline style="fill-rule:evenodd;"
points="10315,9990
10709,9990
10709,10262
10315,10262
10315,9990
" /> 
<polyline style="fill-rule:evenodd;"
points="8244,9988
8755,9988
8755,10263
8244,10263
8244,9988
" /> 
<polyline style="fill-rule:evenodd;"
points="8244,10736
8755,10736
8755,11011
8244,11011
8244,10736
" /> 
<polyline style="fill-rule:evenodd;"
points="5709,6010
5315,6010
5315,5738
5709,5738
5709,6010
" /> 
<polyline style="fill-rule:evenodd;"
points="5709,5636
5315,5636
5315,5364
5709,5364
5709,5636
" /> 
<polyline style="fill-rule:evenodd;"
points="5709,5262
5315,5262
5315,4990
5709,4990
5709,5262
" /> 
<polyline style="fill-rule:evenodd;"
points="4685,5262
4291,5262
4291,4990
4685,4990
4685,5262
" /> 
<polyline style="fill-rule:evenodd;"
points="4685,5636
4291,5636
4291,5364
4685,5364
4685,5636
" /> 
<polyline style="fill-rule:evenodd;"
points="4685,6010
4291,6010
4291,5738
4685,5738
4685,6010
" /> 
<polyline style="fill-rule:evenodd;"
points="6755,6011
6244,6011
6244,5736
6755,5736
6755,6011
" /> 
<polyline style="fill-rule:evenodd;"
points="6755,5263
6244,5263
6244,4988
6755,4988
6755,5263
" /> 
</g> 
</svg>
