G04 #@! TF.GenerationSoftware,KiCad,Pcbnew,(5.1.10)-1*
G04 #@! TF.CreationDate,2021-09-22T20:54:56-07:00*
G04 #@! TF.ProjectId,project,70726f6a-6563-4742-9e6b-696361645f70,rev?*
G04 #@! TF.SameCoordinates,Original*
G04 #@! TF.FileFunction,Legend,Top*
G04 #@! TF.FilePolarity,Positive*
%FSLAX46Y46*%
G04 Gerber Fmt 4.6, Leading zero omitted, Abs format (unit mm)*
G04 Created by KiCad (PCBNEW (5.1.10)-1) date 2021-09-22 20:54:56*
%MOMM*%
%LPD*%
G01*
G04 APERTURE LIST*
%ADD10C,0.250000*%
%ADD11C,0.120000*%
%ADD12C,0.100000*%
G04 APERTURE END LIST*
D10*
X201350223Y-54654761D02*
X201487127Y-54702380D01*
X201725223Y-54702380D01*
X201826413Y-54654761D01*
X201879985Y-54607142D01*
X201939508Y-54511904D01*
X201951413Y-54416666D01*
X201915699Y-54321428D01*
X201874032Y-54273809D01*
X201784747Y-54226190D01*
X201600223Y-54178571D01*
X201510937Y-54130952D01*
X201469270Y-54083333D01*
X201433556Y-53988095D01*
X201445461Y-53892857D01*
X201504985Y-53797619D01*
X201558556Y-53750000D01*
X201659747Y-53702380D01*
X201897842Y-53702380D01*
X202034747Y-53750000D01*
X202326413Y-53702380D02*
X202897842Y-53702380D01*
X202487127Y-54702380D02*
X202612127Y-53702380D01*
X203094270Y-54416666D02*
X203570461Y-54416666D01*
X202963318Y-54702380D02*
X203421651Y-53702380D01*
X203629985Y-54702380D01*
X204606175Y-53750000D02*
X204516889Y-53702380D01*
X204374032Y-53702380D01*
X204225223Y-53750000D01*
X204118080Y-53845238D01*
X204058556Y-53940476D01*
X203987127Y-54130952D01*
X203969270Y-54273809D01*
X203993080Y-54464285D01*
X204028794Y-54559523D01*
X204112127Y-54654761D01*
X204249032Y-54702380D01*
X204344270Y-54702380D01*
X204493080Y-54654761D01*
X204546651Y-54607142D01*
X204588318Y-54273809D01*
X204397842Y-54273809D01*
X205028794Y-54178571D02*
X205362127Y-54178571D01*
X205439508Y-54702380D02*
X204963318Y-54702380D01*
X205088318Y-53702380D01*
X205564508Y-53702380D01*
X199820461Y-48702380D02*
X199945461Y-47702380D01*
X200326413Y-47702380D01*
X200415699Y-47750000D01*
X200457366Y-47797619D01*
X200493080Y-47892857D01*
X200475223Y-48035714D01*
X200415699Y-48130952D01*
X200362127Y-48178571D01*
X200260937Y-48226190D01*
X199879985Y-48226190D01*
X201391889Y-48702380D02*
X201118080Y-48226190D01*
X200820461Y-48702380D02*
X200945461Y-47702380D01*
X201326413Y-47702380D01*
X201415699Y-47750000D01*
X201457366Y-47797619D01*
X201493080Y-47892857D01*
X201475223Y-48035714D01*
X201415699Y-48130952D01*
X201362127Y-48178571D01*
X201260937Y-48226190D01*
X200879985Y-48226190D01*
X201885937Y-48178571D02*
X202219270Y-48178571D01*
X202296651Y-48702380D02*
X201820461Y-48702380D01*
X201945461Y-47702380D01*
X202421651Y-47702380D01*
X202772842Y-48321428D02*
X203534747Y-48321428D01*
X203921651Y-48654761D02*
X204058556Y-48702380D01*
X204296651Y-48702380D01*
X204397842Y-48654761D01*
X204451413Y-48607142D01*
X204510937Y-48511904D01*
X204522842Y-48416666D01*
X204487127Y-48321428D01*
X204445461Y-48273809D01*
X204356175Y-48226190D01*
X204171651Y-48178571D01*
X204082366Y-48130952D01*
X204040699Y-48083333D01*
X204004985Y-47988095D01*
X204016889Y-47892857D01*
X204076413Y-47797619D01*
X204129985Y-47750000D01*
X204231175Y-47702380D01*
X204469270Y-47702380D01*
X204606175Y-47750000D01*
X204897842Y-47702380D02*
X205469270Y-47702380D01*
X205058556Y-48702380D02*
X205183556Y-47702380D01*
X205665699Y-48416666D02*
X206141889Y-48416666D01*
X205534747Y-48702380D02*
X205993080Y-47702380D01*
X206201413Y-48702380D01*
X207177604Y-47750000D02*
X207088318Y-47702380D01*
X206945461Y-47702380D01*
X206796651Y-47750000D01*
X206689508Y-47845238D01*
X206629985Y-47940476D01*
X206558556Y-48130952D01*
X206540699Y-48273809D01*
X206564508Y-48464285D01*
X206600223Y-48559523D01*
X206683556Y-48654761D01*
X206820461Y-48702380D01*
X206915699Y-48702380D01*
X207064508Y-48654761D01*
X207118080Y-48607142D01*
X207159747Y-48273809D01*
X206969270Y-48273809D01*
X207600223Y-48178571D02*
X207933556Y-48178571D01*
X208010937Y-48702380D02*
X207534747Y-48702380D01*
X207659747Y-47702380D01*
X208135937Y-47702380D01*
D11*
X204252500Y-56960000D02*
X206937500Y-56960000D01*
X204252500Y-55040000D02*
X204252500Y-56960000D01*
X206937500Y-55040000D02*
X204252500Y-55040000D01*
X202622500Y-55040000D02*
X199937500Y-55040000D01*
X202622500Y-56960000D02*
X202622500Y-55040000D01*
X199937500Y-56960000D02*
X202622500Y-56960000D01*
X204252500Y-68960000D02*
X206937500Y-68960000D01*
X204252500Y-67040000D02*
X204252500Y-68960000D01*
X206937500Y-67040000D02*
X204252500Y-67040000D01*
X202598139Y-67037896D02*
X199913139Y-67037896D01*
X202598139Y-68957896D02*
X202598139Y-67037896D01*
X199913139Y-68957896D02*
X202598139Y-68957896D01*
X204252500Y-65960000D02*
X206937500Y-65960000D01*
X204252500Y-64040000D02*
X204252500Y-65960000D01*
X206937500Y-64040000D02*
X204252500Y-64040000D01*
X202622500Y-64040000D02*
X199937500Y-64040000D01*
X202622500Y-65960000D02*
X202622500Y-64040000D01*
X199937500Y-65960000D02*
X202622500Y-65960000D01*
X204315000Y-62960000D02*
X207000000Y-62960000D01*
X204315000Y-61040000D02*
X204315000Y-62960000D01*
X207000000Y-61040000D02*
X204315000Y-61040000D01*
X202622500Y-61040000D02*
X199937500Y-61040000D01*
X202622500Y-62960000D02*
X202622500Y-61040000D01*
X199937500Y-62960000D02*
X202622500Y-62960000D01*
X204315000Y-59960000D02*
X207000000Y-59960000D01*
X204315000Y-58040000D02*
X204315000Y-59960000D01*
X207000000Y-58040000D02*
X204315000Y-58040000D01*
X202622500Y-58040000D02*
X199937500Y-58040000D01*
X202622500Y-59960000D02*
X202622500Y-58040000D01*
X199937500Y-59960000D02*
X202622500Y-59960000D01*
D12*
X199050000Y-51265000D02*
G75*
G03*
X199050000Y-51265000I-50000J0D01*
G01*
X208050000Y-53765000D02*
G75*
G03*
X208050000Y-53765000I-50000J0D01*
G01*
X201050000Y-53765000D02*
G75*
G03*
X201050000Y-53765000I-50000J0D01*
G01*
X206050000Y-51265000D02*
G75*
G03*
X206050000Y-51265000I-50000J0D01*
G01*
X201050000Y-51265000D02*
G75*
G03*
X201050000Y-51265000I-50000J0D01*
G01*
X206050000Y-53765000D02*
G75*
G03*
X206050000Y-53765000I-50000J0D01*
G01*
X199050000Y-53765000D02*
G75*
G03*
X199050000Y-53765000I-50000J0D01*
G01*
X208050000Y-51265000D02*
G75*
G03*
X208050000Y-51265000I-50000J0D01*
G01*
M02*
