G04 #@! TF.GenerationSoftware,KiCad,Pcbnew,(5.1.10)-1*
G04 #@! TF.CreationDate,2021-09-22T20:54:56-07:00*
G04 #@! TF.ProjectId,project,70726f6a-6563-4742-9e6b-696361645f70,rev?*
G04 #@! TF.SameCoordinates,Original*
G04 #@! TF.FileFunction,Copper,L1,Top*
G04 #@! TF.FilePolarity,Positive*
%FSLAX46Y46*%
G04 Gerber Fmt 4.6, Leading zero omitted, Abs format (unit mm)*
G04 Created by KiCad (PCBNEW (5.1.10)-1) date 2021-09-22 20:54:56*
%MOMM*%
%LPD*%
G01*
G04 APERTURE LIST*
G04 #@! TA.AperFunction,ComponentPad*
%ADD10O,0.800000X1.300000*%
G04 #@! TD*
G04 #@! TA.AperFunction,ViaPad*
%ADD11C,0.800000*%
G04 #@! TD*
G04 #@! TA.AperFunction,Conductor*
%ADD12C,0.304800*%
G04 #@! TD*
G04 #@! TA.AperFunction,Conductor*
%ADD13C,0.254000*%
G04 #@! TD*
G04 #@! TA.AperFunction,Conductor*
%ADD14C,0.406400*%
G04 #@! TD*
G04 APERTURE END LIST*
D10*
X201000000Y-92000000D03*
X202250000Y-92000000D03*
X203500000Y-92000000D03*
X204750000Y-92000000D03*
G04 #@! TA.AperFunction,ComponentPad*
G36*
G01*
X206400000Y-91550000D02*
X206400000Y-92450000D01*
G75*
G02*
X206200000Y-92650000I-200000J0D01*
G01*
X205800000Y-92650000D01*
G75*
G02*
X205600000Y-92450000I0J200000D01*
G01*
X205600000Y-91550000D01*
G75*
G02*
X205800000Y-91350000I200000J0D01*
G01*
X206200000Y-91350000D01*
G75*
G02*
X206400000Y-91550000I0J-200000D01*
G01*
G37*
G04 #@! TD.AperFunction*
G04 #@! TA.AperFunction,SMDPad,CuDef*
G36*
G01*
X206387500Y-56456250D02*
X206387500Y-55543750D01*
G75*
G02*
X206631250Y-55300000I243750J0D01*
G01*
X207118750Y-55300000D01*
G75*
G02*
X207362500Y-55543750I0J-243750D01*
G01*
X207362500Y-56456250D01*
G75*
G02*
X207118750Y-56700000I-243750J0D01*
G01*
X206631250Y-56700000D01*
G75*
G02*
X206387500Y-56456250I0J243750D01*
G01*
G37*
G04 #@! TD.AperFunction*
G04 #@! TA.AperFunction,SMDPad,CuDef*
G36*
G01*
X204512500Y-56456250D02*
X204512500Y-55543750D01*
G75*
G02*
X204756250Y-55300000I243750J0D01*
G01*
X205243750Y-55300000D01*
G75*
G02*
X205487500Y-55543750I0J-243750D01*
G01*
X205487500Y-56456250D01*
G75*
G02*
X205243750Y-56700000I-243750J0D01*
G01*
X204756250Y-56700000D01*
G75*
G02*
X204512500Y-56456250I0J243750D01*
G01*
G37*
G04 #@! TD.AperFunction*
G04 #@! TA.AperFunction,SMDPad,CuDef*
G36*
G01*
X200487500Y-55543750D02*
X200487500Y-56456250D01*
G75*
G02*
X200243750Y-56700000I-243750J0D01*
G01*
X199756250Y-56700000D01*
G75*
G02*
X199512500Y-56456250I0J243750D01*
G01*
X199512500Y-55543750D01*
G75*
G02*
X199756250Y-55300000I243750J0D01*
G01*
X200243750Y-55300000D01*
G75*
G02*
X200487500Y-55543750I0J-243750D01*
G01*
G37*
G04 #@! TD.AperFunction*
G04 #@! TA.AperFunction,SMDPad,CuDef*
G36*
G01*
X202362500Y-55543750D02*
X202362500Y-56456250D01*
G75*
G02*
X202118750Y-56700000I-243750J0D01*
G01*
X201631250Y-56700000D01*
G75*
G02*
X201387500Y-56456250I0J243750D01*
G01*
X201387500Y-55543750D01*
G75*
G02*
X201631250Y-55300000I243750J0D01*
G01*
X202118750Y-55300000D01*
G75*
G02*
X202362500Y-55543750I0J-243750D01*
G01*
G37*
G04 #@! TD.AperFunction*
G04 #@! TA.AperFunction,SMDPad,CuDef*
G36*
G01*
X206387500Y-68456250D02*
X206387500Y-67543750D01*
G75*
G02*
X206631250Y-67300000I243750J0D01*
G01*
X207118750Y-67300000D01*
G75*
G02*
X207362500Y-67543750I0J-243750D01*
G01*
X207362500Y-68456250D01*
G75*
G02*
X207118750Y-68700000I-243750J0D01*
G01*
X206631250Y-68700000D01*
G75*
G02*
X206387500Y-68456250I0J243750D01*
G01*
G37*
G04 #@! TD.AperFunction*
G04 #@! TA.AperFunction,SMDPad,CuDef*
G36*
G01*
X204512500Y-68456250D02*
X204512500Y-67543750D01*
G75*
G02*
X204756250Y-67300000I243750J0D01*
G01*
X205243750Y-67300000D01*
G75*
G02*
X205487500Y-67543750I0J-243750D01*
G01*
X205487500Y-68456250D01*
G75*
G02*
X205243750Y-68700000I-243750J0D01*
G01*
X204756250Y-68700000D01*
G75*
G02*
X204512500Y-68456250I0J243750D01*
G01*
G37*
G04 #@! TD.AperFunction*
G04 #@! TA.AperFunction,SMDPad,CuDef*
G36*
G01*
X200463139Y-67541646D02*
X200463139Y-68454146D01*
G75*
G02*
X200219389Y-68697896I-243750J0D01*
G01*
X199731889Y-68697896D01*
G75*
G02*
X199488139Y-68454146I0J243750D01*
G01*
X199488139Y-67541646D01*
G75*
G02*
X199731889Y-67297896I243750J0D01*
G01*
X200219389Y-67297896D01*
G75*
G02*
X200463139Y-67541646I0J-243750D01*
G01*
G37*
G04 #@! TD.AperFunction*
G04 #@! TA.AperFunction,SMDPad,CuDef*
G36*
G01*
X202338139Y-67541646D02*
X202338139Y-68454146D01*
G75*
G02*
X202094389Y-68697896I-243750J0D01*
G01*
X201606889Y-68697896D01*
G75*
G02*
X201363139Y-68454146I0J243750D01*
G01*
X201363139Y-67541646D01*
G75*
G02*
X201606889Y-67297896I243750J0D01*
G01*
X202094389Y-67297896D01*
G75*
G02*
X202338139Y-67541646I0J-243750D01*
G01*
G37*
G04 #@! TD.AperFunction*
G04 #@! TA.AperFunction,SMDPad,CuDef*
G36*
G01*
X206387500Y-65456250D02*
X206387500Y-64543750D01*
G75*
G02*
X206631250Y-64300000I243750J0D01*
G01*
X207118750Y-64300000D01*
G75*
G02*
X207362500Y-64543750I0J-243750D01*
G01*
X207362500Y-65456250D01*
G75*
G02*
X207118750Y-65700000I-243750J0D01*
G01*
X206631250Y-65700000D01*
G75*
G02*
X206387500Y-65456250I0J243750D01*
G01*
G37*
G04 #@! TD.AperFunction*
G04 #@! TA.AperFunction,SMDPad,CuDef*
G36*
G01*
X204512500Y-65456250D02*
X204512500Y-64543750D01*
G75*
G02*
X204756250Y-64300000I243750J0D01*
G01*
X205243750Y-64300000D01*
G75*
G02*
X205487500Y-64543750I0J-243750D01*
G01*
X205487500Y-65456250D01*
G75*
G02*
X205243750Y-65700000I-243750J0D01*
G01*
X204756250Y-65700000D01*
G75*
G02*
X204512500Y-65456250I0J243750D01*
G01*
G37*
G04 #@! TD.AperFunction*
G04 #@! TA.AperFunction,SMDPad,CuDef*
G36*
G01*
X200487500Y-64543750D02*
X200487500Y-65456250D01*
G75*
G02*
X200243750Y-65700000I-243750J0D01*
G01*
X199756250Y-65700000D01*
G75*
G02*
X199512500Y-65456250I0J243750D01*
G01*
X199512500Y-64543750D01*
G75*
G02*
X199756250Y-64300000I243750J0D01*
G01*
X200243750Y-64300000D01*
G75*
G02*
X200487500Y-64543750I0J-243750D01*
G01*
G37*
G04 #@! TD.AperFunction*
G04 #@! TA.AperFunction,SMDPad,CuDef*
G36*
G01*
X202362500Y-64543750D02*
X202362500Y-65456250D01*
G75*
G02*
X202118750Y-65700000I-243750J0D01*
G01*
X201631250Y-65700000D01*
G75*
G02*
X201387500Y-65456250I0J243750D01*
G01*
X201387500Y-64543750D01*
G75*
G02*
X201631250Y-64300000I243750J0D01*
G01*
X202118750Y-64300000D01*
G75*
G02*
X202362500Y-64543750I0J-243750D01*
G01*
G37*
G04 #@! TD.AperFunction*
G04 #@! TA.AperFunction,SMDPad,CuDef*
G36*
G01*
X206450000Y-62456250D02*
X206450000Y-61543750D01*
G75*
G02*
X206693750Y-61300000I243750J0D01*
G01*
X207181250Y-61300000D01*
G75*
G02*
X207425000Y-61543750I0J-243750D01*
G01*
X207425000Y-62456250D01*
G75*
G02*
X207181250Y-62700000I-243750J0D01*
G01*
X206693750Y-62700000D01*
G75*
G02*
X206450000Y-62456250I0J243750D01*
G01*
G37*
G04 #@! TD.AperFunction*
G04 #@! TA.AperFunction,SMDPad,CuDef*
G36*
G01*
X204575000Y-62456250D02*
X204575000Y-61543750D01*
G75*
G02*
X204818750Y-61300000I243750J0D01*
G01*
X205306250Y-61300000D01*
G75*
G02*
X205550000Y-61543750I0J-243750D01*
G01*
X205550000Y-62456250D01*
G75*
G02*
X205306250Y-62700000I-243750J0D01*
G01*
X204818750Y-62700000D01*
G75*
G02*
X204575000Y-62456250I0J243750D01*
G01*
G37*
G04 #@! TD.AperFunction*
G04 #@! TA.AperFunction,SMDPad,CuDef*
G36*
G01*
X200487500Y-61543750D02*
X200487500Y-62456250D01*
G75*
G02*
X200243750Y-62700000I-243750J0D01*
G01*
X199756250Y-62700000D01*
G75*
G02*
X199512500Y-62456250I0J243750D01*
G01*
X199512500Y-61543750D01*
G75*
G02*
X199756250Y-61300000I243750J0D01*
G01*
X200243750Y-61300000D01*
G75*
G02*
X200487500Y-61543750I0J-243750D01*
G01*
G37*
G04 #@! TD.AperFunction*
G04 #@! TA.AperFunction,SMDPad,CuDef*
G36*
G01*
X202362500Y-61543750D02*
X202362500Y-62456250D01*
G75*
G02*
X202118750Y-62700000I-243750J0D01*
G01*
X201631250Y-62700000D01*
G75*
G02*
X201387500Y-62456250I0J243750D01*
G01*
X201387500Y-61543750D01*
G75*
G02*
X201631250Y-61300000I243750J0D01*
G01*
X202118750Y-61300000D01*
G75*
G02*
X202362500Y-61543750I0J-243750D01*
G01*
G37*
G04 #@! TD.AperFunction*
G04 #@! TA.AperFunction,SMDPad,CuDef*
G36*
G01*
X206450000Y-59456250D02*
X206450000Y-58543750D01*
G75*
G02*
X206693750Y-58300000I243750J0D01*
G01*
X207181250Y-58300000D01*
G75*
G02*
X207425000Y-58543750I0J-243750D01*
G01*
X207425000Y-59456250D01*
G75*
G02*
X207181250Y-59700000I-243750J0D01*
G01*
X206693750Y-59700000D01*
G75*
G02*
X206450000Y-59456250I0J243750D01*
G01*
G37*
G04 #@! TD.AperFunction*
G04 #@! TA.AperFunction,SMDPad,CuDef*
G36*
G01*
X204575000Y-59456250D02*
X204575000Y-58543750D01*
G75*
G02*
X204818750Y-58300000I243750J0D01*
G01*
X205306250Y-58300000D01*
G75*
G02*
X205550000Y-58543750I0J-243750D01*
G01*
X205550000Y-59456250D01*
G75*
G02*
X205306250Y-59700000I-243750J0D01*
G01*
X204818750Y-59700000D01*
G75*
G02*
X204575000Y-59456250I0J243750D01*
G01*
G37*
G04 #@! TD.AperFunction*
G04 #@! TA.AperFunction,SMDPad,CuDef*
G36*
G01*
X200487500Y-58543750D02*
X200487500Y-59456250D01*
G75*
G02*
X200243750Y-59700000I-243750J0D01*
G01*
X199756250Y-59700000D01*
G75*
G02*
X199512500Y-59456250I0J243750D01*
G01*
X199512500Y-58543750D01*
G75*
G02*
X199756250Y-58300000I243750J0D01*
G01*
X200243750Y-58300000D01*
G75*
G02*
X200487500Y-58543750I0J-243750D01*
G01*
G37*
G04 #@! TD.AperFunction*
G04 #@! TA.AperFunction,SMDPad,CuDef*
G36*
G01*
X202362500Y-58543750D02*
X202362500Y-59456250D01*
G75*
G02*
X202118750Y-59700000I-243750J0D01*
G01*
X201631250Y-59700000D01*
G75*
G02*
X201387500Y-59456250I0J243750D01*
G01*
X201387500Y-58543750D01*
G75*
G02*
X201631250Y-58300000I243750J0D01*
G01*
X202118750Y-58300000D01*
G75*
G02*
X202362500Y-58543750I0J-243750D01*
G01*
G37*
G04 #@! TD.AperFunction*
G04 #@! TA.AperFunction,SMDPad,CuDef*
G36*
G01*
X199160000Y-49810000D02*
X198840000Y-49810000D01*
G75*
G02*
X198680000Y-49650000I0J160000D01*
G01*
X198680000Y-49205000D01*
G75*
G02*
X198840000Y-49045000I160000J0D01*
G01*
X199160000Y-49045000D01*
G75*
G02*
X199320000Y-49205000I0J-160000D01*
G01*
X199320000Y-49650000D01*
G75*
G02*
X199160000Y-49810000I-160000J0D01*
G01*
G37*
G04 #@! TD.AperFunction*
G04 #@! TA.AperFunction,SMDPad,CuDef*
G36*
G01*
X199160000Y-50955000D02*
X198840000Y-50955000D01*
G75*
G02*
X198680000Y-50795000I0J160000D01*
G01*
X198680000Y-50350000D01*
G75*
G02*
X198840000Y-50190000I160000J0D01*
G01*
X199160000Y-50190000D01*
G75*
G02*
X199320000Y-50350000I0J-160000D01*
G01*
X199320000Y-50795000D01*
G75*
G02*
X199160000Y-50955000I-160000J0D01*
G01*
G37*
G04 #@! TD.AperFunction*
G04 #@! TA.AperFunction,SMDPad,CuDef*
G36*
G01*
X208160000Y-52310000D02*
X207840000Y-52310000D01*
G75*
G02*
X207680000Y-52150000I0J160000D01*
G01*
X207680000Y-51705000D01*
G75*
G02*
X207840000Y-51545000I160000J0D01*
G01*
X208160000Y-51545000D01*
G75*
G02*
X208320000Y-51705000I0J-160000D01*
G01*
X208320000Y-52150000D01*
G75*
G02*
X208160000Y-52310000I-160000J0D01*
G01*
G37*
G04 #@! TD.AperFunction*
G04 #@! TA.AperFunction,SMDPad,CuDef*
G36*
G01*
X208160000Y-53455000D02*
X207840000Y-53455000D01*
G75*
G02*
X207680000Y-53295000I0J160000D01*
G01*
X207680000Y-52850000D01*
G75*
G02*
X207840000Y-52690000I160000J0D01*
G01*
X208160000Y-52690000D01*
G75*
G02*
X208320000Y-52850000I0J-160000D01*
G01*
X208320000Y-53295000D01*
G75*
G02*
X208160000Y-53455000I-160000J0D01*
G01*
G37*
G04 #@! TD.AperFunction*
G04 #@! TA.AperFunction,SMDPad,CuDef*
G36*
G01*
X201160000Y-52310000D02*
X200840000Y-52310000D01*
G75*
G02*
X200680000Y-52150000I0J160000D01*
G01*
X200680000Y-51705000D01*
G75*
G02*
X200840000Y-51545000I160000J0D01*
G01*
X201160000Y-51545000D01*
G75*
G02*
X201320000Y-51705000I0J-160000D01*
G01*
X201320000Y-52150000D01*
G75*
G02*
X201160000Y-52310000I-160000J0D01*
G01*
G37*
G04 #@! TD.AperFunction*
G04 #@! TA.AperFunction,SMDPad,CuDef*
G36*
G01*
X201160000Y-53455000D02*
X200840000Y-53455000D01*
G75*
G02*
X200680000Y-53295000I0J160000D01*
G01*
X200680000Y-52850000D01*
G75*
G02*
X200840000Y-52690000I160000J0D01*
G01*
X201160000Y-52690000D01*
G75*
G02*
X201320000Y-52850000I0J-160000D01*
G01*
X201320000Y-53295000D01*
G75*
G02*
X201160000Y-53455000I-160000J0D01*
G01*
G37*
G04 #@! TD.AperFunction*
G04 #@! TA.AperFunction,SMDPad,CuDef*
G36*
G01*
X206160000Y-49810000D02*
X205840000Y-49810000D01*
G75*
G02*
X205680000Y-49650000I0J160000D01*
G01*
X205680000Y-49205000D01*
G75*
G02*
X205840000Y-49045000I160000J0D01*
G01*
X206160000Y-49045000D01*
G75*
G02*
X206320000Y-49205000I0J-160000D01*
G01*
X206320000Y-49650000D01*
G75*
G02*
X206160000Y-49810000I-160000J0D01*
G01*
G37*
G04 #@! TD.AperFunction*
G04 #@! TA.AperFunction,SMDPad,CuDef*
G36*
G01*
X206160000Y-50955000D02*
X205840000Y-50955000D01*
G75*
G02*
X205680000Y-50795000I0J160000D01*
G01*
X205680000Y-50350000D01*
G75*
G02*
X205840000Y-50190000I160000J0D01*
G01*
X206160000Y-50190000D01*
G75*
G02*
X206320000Y-50350000I0J-160000D01*
G01*
X206320000Y-50795000D01*
G75*
G02*
X206160000Y-50955000I-160000J0D01*
G01*
G37*
G04 #@! TD.AperFunction*
G04 #@! TA.AperFunction,SMDPad,CuDef*
G36*
G01*
X201160000Y-49810000D02*
X200840000Y-49810000D01*
G75*
G02*
X200680000Y-49650000I0J160000D01*
G01*
X200680000Y-49205000D01*
G75*
G02*
X200840000Y-49045000I160000J0D01*
G01*
X201160000Y-49045000D01*
G75*
G02*
X201320000Y-49205000I0J-160000D01*
G01*
X201320000Y-49650000D01*
G75*
G02*
X201160000Y-49810000I-160000J0D01*
G01*
G37*
G04 #@! TD.AperFunction*
G04 #@! TA.AperFunction,SMDPad,CuDef*
G36*
G01*
X201160000Y-50955000D02*
X200840000Y-50955000D01*
G75*
G02*
X200680000Y-50795000I0J160000D01*
G01*
X200680000Y-50350000D01*
G75*
G02*
X200840000Y-50190000I160000J0D01*
G01*
X201160000Y-50190000D01*
G75*
G02*
X201320000Y-50350000I0J-160000D01*
G01*
X201320000Y-50795000D01*
G75*
G02*
X201160000Y-50955000I-160000J0D01*
G01*
G37*
G04 #@! TD.AperFunction*
G04 #@! TA.AperFunction,SMDPad,CuDef*
G36*
G01*
X206160000Y-52310000D02*
X205840000Y-52310000D01*
G75*
G02*
X205680000Y-52150000I0J160000D01*
G01*
X205680000Y-51705000D01*
G75*
G02*
X205840000Y-51545000I160000J0D01*
G01*
X206160000Y-51545000D01*
G75*
G02*
X206320000Y-51705000I0J-160000D01*
G01*
X206320000Y-52150000D01*
G75*
G02*
X206160000Y-52310000I-160000J0D01*
G01*
G37*
G04 #@! TD.AperFunction*
G04 #@! TA.AperFunction,SMDPad,CuDef*
G36*
G01*
X206160000Y-53455000D02*
X205840000Y-53455000D01*
G75*
G02*
X205680000Y-53295000I0J160000D01*
G01*
X205680000Y-52850000D01*
G75*
G02*
X205840000Y-52690000I160000J0D01*
G01*
X206160000Y-52690000D01*
G75*
G02*
X206320000Y-52850000I0J-160000D01*
G01*
X206320000Y-53295000D01*
G75*
G02*
X206160000Y-53455000I-160000J0D01*
G01*
G37*
G04 #@! TD.AperFunction*
G04 #@! TA.AperFunction,SMDPad,CuDef*
G36*
G01*
X199160000Y-52310000D02*
X198840000Y-52310000D01*
G75*
G02*
X198680000Y-52150000I0J160000D01*
G01*
X198680000Y-51705000D01*
G75*
G02*
X198840000Y-51545000I160000J0D01*
G01*
X199160000Y-51545000D01*
G75*
G02*
X199320000Y-51705000I0J-160000D01*
G01*
X199320000Y-52150000D01*
G75*
G02*
X199160000Y-52310000I-160000J0D01*
G01*
G37*
G04 #@! TD.AperFunction*
G04 #@! TA.AperFunction,SMDPad,CuDef*
G36*
G01*
X199160000Y-53455000D02*
X198840000Y-53455000D01*
G75*
G02*
X198680000Y-53295000I0J160000D01*
G01*
X198680000Y-52850000D01*
G75*
G02*
X198840000Y-52690000I160000J0D01*
G01*
X199160000Y-52690000D01*
G75*
G02*
X199320000Y-52850000I0J-160000D01*
G01*
X199320000Y-53295000D01*
G75*
G02*
X199160000Y-53455000I-160000J0D01*
G01*
G37*
G04 #@! TD.AperFunction*
G04 #@! TA.AperFunction,SMDPad,CuDef*
G36*
G01*
X208160000Y-49810000D02*
X207840000Y-49810000D01*
G75*
G02*
X207680000Y-49650000I0J160000D01*
G01*
X207680000Y-49205000D01*
G75*
G02*
X207840000Y-49045000I160000J0D01*
G01*
X208160000Y-49045000D01*
G75*
G02*
X208320000Y-49205000I0J-160000D01*
G01*
X208320000Y-49650000D01*
G75*
G02*
X208160000Y-49810000I-160000J0D01*
G01*
G37*
G04 #@! TD.AperFunction*
G04 #@! TA.AperFunction,SMDPad,CuDef*
G36*
G01*
X208160000Y-50955000D02*
X207840000Y-50955000D01*
G75*
G02*
X207680000Y-50795000I0J160000D01*
G01*
X207680000Y-50350000D01*
G75*
G02*
X207840000Y-50190000I160000J0D01*
G01*
X208160000Y-50190000D01*
G75*
G02*
X208320000Y-50350000I0J-160000D01*
G01*
X208320000Y-50795000D01*
G75*
G02*
X208160000Y-50955000I-160000J0D01*
G01*
G37*
G04 #@! TD.AperFunction*
D11*
X201658500Y-74809817D03*
X206000000Y-71500000D03*
X201492262Y-75795905D03*
X201500372Y-76795874D03*
X201658500Y-73750000D03*
X199000000Y-49402500D03*
X208000000Y-49402500D03*
X199000000Y-51902500D03*
X206000000Y-51902500D03*
X200000000Y-56000000D03*
X206912500Y-56000000D03*
X200030901Y-59005964D03*
X206937500Y-59000000D03*
X200175000Y-62000000D03*
X206937500Y-62000000D03*
X200000000Y-65000000D03*
X206875000Y-65000000D03*
X199975639Y-67997896D03*
X206875000Y-68000000D03*
X201000000Y-49402500D03*
X206000000Y-49402500D03*
X201000000Y-51902500D03*
X208000000Y-51902500D03*
D12*
X201000000Y-92000000D02*
X201000000Y-78719790D01*
X201000000Y-78719790D02*
X202469790Y-77250000D01*
X202469790Y-77250000D02*
X202469790Y-75621108D01*
X202469790Y-75621108D02*
X202049341Y-75200659D01*
D13*
X202049341Y-75200659D02*
X202250000Y-75401317D01*
X201658500Y-74809817D02*
X202049341Y-75200659D01*
D12*
X206000000Y-50572500D02*
X204927500Y-50572500D01*
X204927500Y-50572500D02*
X203500000Y-52000000D01*
X203500000Y-69000000D02*
X206000000Y-71500000D01*
X199000000Y-50572500D02*
X201000000Y-50572500D01*
X201572500Y-50572500D02*
X203500000Y-52500000D01*
X201000000Y-50572500D02*
X201572500Y-50572500D01*
X203500000Y-52000000D02*
X203500000Y-52500000D01*
X199000000Y-53072500D02*
X201000000Y-53072500D01*
X201000000Y-53072500D02*
X202072500Y-53072500D01*
X202072500Y-53072500D02*
X203500000Y-54500000D01*
X206087500Y-52985000D02*
X206000000Y-53072500D01*
X208000000Y-52985000D02*
X206087500Y-52985000D01*
X204427500Y-53072500D02*
X203500000Y-54000000D01*
X206000000Y-53072500D02*
X204427500Y-53072500D01*
X203500000Y-54000000D02*
X203500000Y-54500000D01*
X203500000Y-52500000D02*
X203500000Y-54000000D01*
X208000000Y-50572500D02*
X206000000Y-50572500D01*
X204500000Y-56000000D02*
X203500000Y-57000000D01*
X205000000Y-56000000D02*
X204500000Y-56000000D01*
X203500000Y-54500000D02*
X203500000Y-57000000D01*
X202500000Y-56000000D02*
X203500000Y-57000000D01*
X201875000Y-56000000D02*
X202500000Y-56000000D01*
X204500000Y-59000000D02*
X203500000Y-60000000D01*
X205062500Y-59000000D02*
X204500000Y-59000000D01*
X203500000Y-57000000D02*
X203500000Y-60000000D01*
X203500000Y-60625000D02*
X203500000Y-61000000D01*
X201875000Y-59000000D02*
X203500000Y-60625000D01*
X203500000Y-60000000D02*
X203500000Y-61000000D01*
X205062500Y-62000000D02*
X203500000Y-63562500D01*
X203437500Y-63562500D02*
X201875000Y-62000000D01*
X203500000Y-63562500D02*
X203437500Y-63562500D01*
X205000000Y-65000000D02*
X204000000Y-65000000D01*
X204000000Y-65000000D02*
X203500000Y-65500000D01*
X203500000Y-61000000D02*
X203500000Y-65500000D01*
X202500000Y-65000000D02*
X203500000Y-66000000D01*
X201875000Y-65000000D02*
X202500000Y-65000000D01*
X203500000Y-65500000D02*
X203500000Y-66000000D01*
X204000000Y-68000000D02*
X203500000Y-68500000D01*
X205000000Y-68000000D02*
X204000000Y-68000000D01*
X203500000Y-68500000D02*
X203500000Y-69000000D01*
X203500000Y-66000000D02*
X203500000Y-68500000D01*
X202997896Y-67997896D02*
X203500000Y-68500000D01*
X201850639Y-67997896D02*
X202997896Y-67997896D01*
X206000000Y-71500000D02*
X201750000Y-71500000D01*
X201750000Y-71500000D02*
X199500000Y-73750000D01*
X199500000Y-75250000D02*
X200045905Y-75795905D01*
X199500000Y-73750000D02*
X199500000Y-75250000D01*
X201492262Y-75795905D02*
X200045905Y-75795905D01*
D14*
X206000000Y-71810420D02*
X206000000Y-71500000D01*
X203530210Y-74280210D02*
X206000000Y-71810420D01*
X203530210Y-91969790D02*
X203500000Y-92000000D01*
X203530210Y-74280210D02*
X203530210Y-91969790D01*
X206000000Y-92000000D02*
X206000000Y-93000000D01*
X206000000Y-93000000D02*
X205250000Y-93750000D01*
X205250000Y-93750000D02*
X200500000Y-93750000D01*
X200500000Y-93750000D02*
X199500000Y-92750000D01*
X199500000Y-78796246D02*
X201500372Y-76795874D01*
X199500000Y-92750000D02*
X199500000Y-78796246D01*
D12*
X202250000Y-78250000D02*
X202250000Y-92000000D01*
X202974600Y-77525400D02*
X202250000Y-78250000D01*
X202974600Y-74500415D02*
X202974600Y-77525400D01*
X202224185Y-73750000D02*
X202974600Y-74500415D01*
X201658500Y-73750000D02*
X202224185Y-73750000D01*
D13*
X199000000Y-49427500D02*
X199000000Y-49402500D01*
X208000000Y-49427500D02*
X208000000Y-49402500D01*
X199000000Y-51927500D02*
X199000000Y-51902500D01*
X206000000Y-51927500D02*
X206000000Y-51902500D01*
D12*
X206875000Y-56000000D02*
X206912500Y-56000000D01*
X200024937Y-59000000D02*
X200030901Y-59005964D01*
X200000000Y-59000000D02*
X200024937Y-59000000D01*
X200000000Y-62000000D02*
X200175000Y-62000000D01*
D13*
X201000000Y-49427500D02*
X201000000Y-49402500D01*
X206000000Y-49427500D02*
X206000000Y-49402500D01*
X201000000Y-51927500D02*
X201000000Y-51902500D01*
X208000000Y-51927500D02*
X208000000Y-51902500D01*
M02*
