%MOIN*%
%OFA0B0*%
%FSLAX46Y46*%
%IPPOS*%
%LPD*%
%ADD10R,0.066929133858267723X0.066929133858267723*%
%ADD11C,0.070866141732283464*%
%ADD12C,0.19685039370078741*%
%ADD13C,0.090000000000000011*%
%ADD14C,0.70000000000000007*%
%ADD15C,0.0787*%
%ADD16R,0.055000000000000007X0.055000000000000007*%
%ADD17C,0.055000000000000007*%
%ADD18C,0.016*%
%ADD29R,0.066929133858267723X0.066929133858267723*%
%ADD30C,0.070866141732283464*%
%ADD31C,0.19685039370078741*%
%ADD32C,0.090000000000000011*%
%ADD33C,0.70000000000000007*%
%ADD34C,0.0787*%
%ADD35R,0.055000000000000007X0.055000000000000007*%
%ADD36C,0.055000000000000007*%
%ADD37C,0.016*%
%ADD38R,0.066929133858267723X0.066929133858267723*%
%ADD39C,0.070866141732283464*%
%ADD40C,0.19685039370078741*%
%ADD41C,0.090000000000000011*%
%ADD42C,0.70000000000000007*%
%ADD43C,0.0787*%
%ADD44R,0.055000000000000007X0.055000000000000007*%
%ADD45C,0.055000000000000007*%
%ADD46C,0.016*%
%ADD47R,0.066929133858267723X0.066929133858267723*%
%ADD48C,0.070866141732283464*%
%ADD49C,0.19685039370078741*%
%ADD50C,0.090000000000000011*%
%ADD51C,0.70000000000000007*%
%ADD52C,0.0787*%
%ADD53R,0.055000000000000007X0.055000000000000007*%
%ADD54C,0.055000000000000007*%
%ADD55C,0.016*%
%ADD56R,0.066929133858267723X0.066929133858267723*%
%ADD57C,0.070866141732283464*%
%ADD58C,0.19685039370078741*%
%ADD59C,0.090000000000000011*%
%ADD60C,0.70000000000000007*%
%ADD61C,0.0787*%
%ADD62R,0.055000000000000007X0.055000000000000007*%
%ADD63C,0.055000000000000007*%
%ADD64C,0.016*%
%ADD65R,0.066929133858267723X0.066929133858267723*%
%ADD66C,0.070866141732283464*%
%ADD67C,0.19685039370078741*%
%ADD68C,0.090000000000000011*%
%ADD69C,0.70000000000000007*%
%ADD70C,0.0787*%
%ADD71R,0.055000000000000007X0.055000000000000007*%
%ADD72C,0.055000000000000007*%
%ADD73C,0.016*%
%ADD74R,0.066929133858267723X0.066929133858267723*%
%ADD75C,0.070866141732283464*%
%ADD76C,0.19685039370078741*%
%ADD77C,0.090000000000000011*%
%ADD78C,0.70000000000000007*%
%ADD79C,0.0787*%
%ADD80R,0.055000000000000007X0.055000000000000007*%
%ADD81C,0.055000000000000007*%
%ADD82C,0.016*%
%ADD83R,0.066929133858267723X0.066929133858267723*%
%ADD84C,0.070866141732283464*%
%ADD85C,0.19685039370078741*%
%ADD86C,0.090000000000000011*%
%ADD87C,0.70000000000000007*%
%ADD88C,0.0787*%
%ADD89R,0.055000000000000007X0.055000000000000007*%
%ADD90C,0.055000000000000007*%
%ADD91C,0.016*%
%ADD92R,0.066929133858267723X0.066929133858267723*%
%ADD93C,0.070866141732283464*%
%ADD94C,0.19685039370078741*%
%ADD95C,0.090000000000000011*%
%ADD96C,0.70000000000000007*%
%ADD97C,0.0787*%
%ADD98R,0.055000000000000007X0.055000000000000007*%
%ADD99C,0.055000000000000007*%
%ADD100C,0.016*%
G01*
D10*
X-0006300000Y0004050000D02*
X0000649999Y0000930000D03*
D11*
X0000549999Y0000930000D03*
D12*
X0000599999Y0001099999D03*
D13*
X0001009999Y0000339999D03*
X0000189999Y0000339999D03*
X0001009999Y0000459999D03*
X0000189999Y0000459999D03*
D14*
X0000599999Y0000400000D03*
D15*
X0001124999Y0000837480D03*
X0001124999Y0000522519D03*
D16*
X0000099999Y0000625000D03*
D17*
X0000099999Y0000725000D03*
X0000099999Y0000825000D03*
D18*
X0000189999Y0000459999D02*
X0000189999Y0000615000D01*
X0001009999Y0000590000D02*
X0001009999Y0000459999D01*
X0000775000Y0000825000D02*
X0001009999Y0000590000D01*
X0000399999Y0000825000D02*
X0000775000Y0000825000D01*
X0000189999Y0000615000D02*
X0000399999Y0000825000D01*
X0000189999Y0000459999D02*
X0000189999Y0000660000D01*
X0000189999Y0000660000D02*
X0000124999Y0000725000D01*
X0000124999Y0000725000D02*
X0000099999Y0000725000D01*
X0001009999Y0000339999D02*
X0001009999Y0000459999D01*
X0000189999Y0000339999D02*
X0000189999Y0000459999D01*
X0000649999Y0000930000D02*
X0001027480Y0000930000D01*
X0001027480Y0000930000D02*
X0001124999Y0000837480D01*
X0000099999Y0000825000D02*
X0000099999Y0000850000D01*
X0000099999Y0000850000D02*
X0000180000Y0000930000D01*
X0000180000Y0000930000D02*
X0000549999Y0000930000D01*
X0001124999Y0000522519D02*
X0001124999Y0000250000D01*
X0001099999Y0000225000D02*
X0000775000Y0000225000D01*
X0001124999Y0000250000D02*
X0001099999Y0000225000D01*
X0000775000Y0000225000D02*
X0000599999Y0000400000D01*
X0001124999Y0000522519D02*
X0001124999Y0000555000D01*
X0000599999Y0000400000D02*
X0000775000Y0000400000D01*
X0000792519Y0000592519D02*
X0000599999Y0000400000D01*
G04 next file*
G04 Gerber Fmt 4.6, Leading zero omitted, Abs format (unit mm)*
G04 Created by KiCad (PCBNEW (5.1.10)-1) date 2021-09-22 19:04:14*
G01*
G04 APERTURE LIST*
G04 APERTURE END LIST*
D29*
X-0006300000Y0005368110D02*
X0000649999Y0002248110D03*
D30*
X0000549999Y0002248110D03*
D31*
X0000599999Y0002418110D03*
D32*
X0001009999Y0001658110D03*
X0000189999Y0001658110D03*
X0001009999Y0001778110D03*
X0000189999Y0001778110D03*
D33*
X0000599999Y0001718110D03*
D34*
X0001124999Y0002155590D03*
X0001124999Y0001840629D03*
D35*
X0000099999Y0001943110D03*
D36*
X0000099999Y0002043110D03*
X0000099999Y0002143110D03*
D37*
X0000189999Y0001778110D02*
X0000189999Y0001933110D01*
X0001009999Y0001908110D02*
X0001009999Y0001778110D01*
X0000775000Y0002143110D02*
X0001009999Y0001908110D01*
X0000399999Y0002143110D02*
X0000775000Y0002143110D01*
X0000189999Y0001933110D02*
X0000399999Y0002143110D01*
X0000189999Y0001778110D02*
X0000189999Y0001978110D01*
X0000189999Y0001978110D02*
X0000124999Y0002043110D01*
X0000124999Y0002043110D02*
X0000099999Y0002043110D01*
X0001009999Y0001658110D02*
X0001009999Y0001778110D01*
X0000189999Y0001658110D02*
X0000189999Y0001778110D01*
X0000649999Y0002248110D02*
X0001027480Y0002248110D01*
X0001027480Y0002248110D02*
X0001124999Y0002155590D01*
X0000099999Y0002143110D02*
X0000099999Y0002168110D01*
X0000099999Y0002168110D02*
X0000180000Y0002248110D01*
X0000180000Y0002248110D02*
X0000549999Y0002248110D01*
X0001124999Y0001840629D02*
X0001124999Y0001568110D01*
X0001099999Y0001543110D02*
X0000775000Y0001543110D01*
X0001124999Y0001568110D02*
X0001099999Y0001543110D01*
X0000775000Y0001543110D02*
X0000599999Y0001718110D01*
X0001124999Y0001840629D02*
X0001124999Y0001873110D01*
X0000599999Y0001718110D02*
X0000775000Y0001718110D01*
X0000792519Y0001910629D02*
X0000599999Y0001718110D01*
G04 next file*
G04 Gerber Fmt 4.6, Leading zero omitted, Abs format (unit mm)*
G04 Created by KiCad (PCBNEW (5.1.10)-1) date 2021-09-22 19:04:14*
G01*
G04 APERTURE LIST*
G04 APERTURE END LIST*
D38*
X-0006300000Y0006686220D02*
X0000649999Y0003566220D03*
D39*
X0000549999Y0003566220D03*
D40*
X0000599999Y0003736220D03*
D41*
X0001009999Y0002976220D03*
X0000189999Y0002976220D03*
X0001009999Y0003096220D03*
X0000189999Y0003096220D03*
D42*
X0000599999Y0003036220D03*
D43*
X0001124999Y0003473700D03*
X0001124999Y0003158740D03*
D44*
X0000099999Y0003261220D03*
D45*
X0000099999Y0003361220D03*
X0000099999Y0003461220D03*
D46*
X0000189999Y0003096220D02*
X0000189999Y0003251220D01*
X0001009999Y0003226220D02*
X0001009999Y0003096220D01*
X0000775000Y0003461220D02*
X0001009999Y0003226220D01*
X0000399999Y0003461220D02*
X0000775000Y0003461220D01*
X0000189999Y0003251220D02*
X0000399999Y0003461220D01*
X0000189999Y0003096220D02*
X0000189999Y0003296220D01*
X0000189999Y0003296220D02*
X0000124999Y0003361220D01*
X0000124999Y0003361220D02*
X0000099999Y0003361220D01*
X0001009999Y0002976220D02*
X0001009999Y0003096220D01*
X0000189999Y0002976220D02*
X0000189999Y0003096220D01*
X0000649999Y0003566220D02*
X0001027480Y0003566220D01*
X0001027480Y0003566220D02*
X0001124999Y0003473700D01*
X0000099999Y0003461220D02*
X0000099999Y0003486220D01*
X0000099999Y0003486220D02*
X0000180000Y0003566220D01*
X0000180000Y0003566220D02*
X0000549999Y0003566220D01*
X0001124999Y0003158740D02*
X0001124999Y0002886220D01*
X0001099999Y0002861220D02*
X0000775000Y0002861220D01*
X0001124999Y0002886220D02*
X0001099999Y0002861220D01*
X0000775000Y0002861220D02*
X0000599999Y0003036220D01*
X0001124999Y0003158740D02*
X0001124999Y0003191220D01*
X0000599999Y0003036220D02*
X0000775000Y0003036220D01*
X0000792519Y0003228740D02*
X0000599999Y0003036220D01*
G04 next file*
G04 Gerber Fmt 4.6, Leading zero omitted, Abs format (unit mm)*
G04 Created by KiCad (PCBNEW (5.1.10)-1) date 2021-09-22 19:04:14*
G01*
G04 APERTURE LIST*
G04 APERTURE END LIST*
D47*
X-0004981889Y0004050000D02*
X0001968110Y0000930000D03*
D48*
X0001868110Y0000930000D03*
D49*
X0001918110Y0001099999D03*
D50*
X0002328110Y0000339999D03*
X0001508110Y0000339999D03*
X0002328110Y0000459999D03*
X0001508110Y0000459999D03*
D51*
X0001918110Y0000400000D03*
D52*
X0002443110Y0000837480D03*
X0002443110Y0000522519D03*
D53*
X0001418110Y0000625000D03*
D54*
X0001418110Y0000725000D03*
X0001418110Y0000825000D03*
D55*
X0001508110Y0000459999D02*
X0001508110Y0000615000D01*
X0002328110Y0000590000D02*
X0002328110Y0000459999D01*
X0002093110Y0000825000D02*
X0002328110Y0000590000D01*
X0001718110Y0000825000D02*
X0002093110Y0000825000D01*
X0001508110Y0000615000D02*
X0001718110Y0000825000D01*
X0001508110Y0000459999D02*
X0001508110Y0000660000D01*
X0001508110Y0000660000D02*
X0001443110Y0000725000D01*
X0001443110Y0000725000D02*
X0001418110Y0000725000D01*
X0002328110Y0000339999D02*
X0002328110Y0000459999D01*
X0001508110Y0000339999D02*
X0001508110Y0000459999D01*
X0001968110Y0000930000D02*
X0002345590Y0000930000D01*
X0002345590Y0000930000D02*
X0002443110Y0000837480D01*
X0001418110Y0000825000D02*
X0001418110Y0000850000D01*
X0001418110Y0000850000D02*
X0001498110Y0000930000D01*
X0001498110Y0000930000D02*
X0001868110Y0000930000D01*
X0002443110Y0000522519D02*
X0002443110Y0000250000D01*
X0002418110Y0000225000D02*
X0002093110Y0000225000D01*
X0002443110Y0000250000D02*
X0002418110Y0000225000D01*
X0002093110Y0000225000D02*
X0001918110Y0000400000D01*
X0002443110Y0000522519D02*
X0002443110Y0000555000D01*
X0001918110Y0000400000D02*
X0002093110Y0000400000D01*
X0002110629Y0000592519D02*
X0001918110Y0000400000D01*
G04 next file*
G04 Gerber Fmt 4.6, Leading zero omitted, Abs format (unit mm)*
G04 Created by KiCad (PCBNEW (5.1.10)-1) date 2021-09-22 19:04:14*
G01*
G04 APERTURE LIST*
G04 APERTURE END LIST*
D56*
X-0003663779Y0004050000D02*
X0003286220Y0000930000D03*
D57*
X0003186220Y0000930000D03*
D58*
X0003236220Y0001099999D03*
D59*
X0003646220Y0000339999D03*
X0002826220Y0000339999D03*
X0003646220Y0000459999D03*
X0002826220Y0000459999D03*
D60*
X0003236220Y0000400000D03*
D61*
X0003761220Y0000837480D03*
X0003761220Y0000522519D03*
D62*
X0002736220Y0000625000D03*
D63*
X0002736220Y0000725000D03*
X0002736220Y0000825000D03*
D64*
X0002826220Y0000459999D02*
X0002826220Y0000615000D01*
X0003646220Y0000590000D02*
X0003646220Y0000459999D01*
X0003411220Y0000825000D02*
X0003646220Y0000590000D01*
X0003036220Y0000825000D02*
X0003411220Y0000825000D01*
X0002826220Y0000615000D02*
X0003036220Y0000825000D01*
X0002826220Y0000459999D02*
X0002826220Y0000660000D01*
X0002826220Y0000660000D02*
X0002761220Y0000725000D01*
X0002761220Y0000725000D02*
X0002736220Y0000725000D01*
X0003646220Y0000339999D02*
X0003646220Y0000459999D01*
X0002826220Y0000339999D02*
X0002826220Y0000459999D01*
X0003286220Y0000930000D02*
X0003663700Y0000930000D01*
X0003663700Y0000930000D02*
X0003761220Y0000837480D01*
X0002736220Y0000825000D02*
X0002736220Y0000850000D01*
X0002736220Y0000850000D02*
X0002816220Y0000930000D01*
X0002816220Y0000930000D02*
X0003186220Y0000930000D01*
X0003761220Y0000522519D02*
X0003761220Y0000250000D01*
X0003736220Y0000225000D02*
X0003411220Y0000225000D01*
X0003761220Y0000250000D02*
X0003736220Y0000225000D01*
X0003411220Y0000225000D02*
X0003236220Y0000400000D01*
X0003761220Y0000522519D02*
X0003761220Y0000555000D01*
X0003236220Y0000400000D02*
X0003411220Y0000400000D01*
X0003428740Y0000592519D02*
X0003236220Y0000400000D01*
G04 next file*
G04 Gerber Fmt 4.6, Leading zero omitted, Abs format (unit mm)*
G04 Created by KiCad (PCBNEW (5.1.10)-1) date 2021-09-22 19:04:14*
G01*
G04 APERTURE LIST*
G04 APERTURE END LIST*
D65*
X-0004981889Y0005368110D02*
X0001968110Y0002248110D03*
D66*
X0001868110Y0002248110D03*
D67*
X0001918110Y0002418110D03*
D68*
X0002328110Y0001658110D03*
X0001508110Y0001658110D03*
X0002328110Y0001778110D03*
X0001508110Y0001778110D03*
D69*
X0001918110Y0001718110D03*
D70*
X0002443110Y0002155590D03*
X0002443110Y0001840629D03*
D71*
X0001418110Y0001943110D03*
D72*
X0001418110Y0002043110D03*
X0001418110Y0002143110D03*
D73*
X0001508110Y0001778110D02*
X0001508110Y0001933110D01*
X0002328110Y0001908110D02*
X0002328110Y0001778110D01*
X0002093110Y0002143110D02*
X0002328110Y0001908110D01*
X0001718110Y0002143110D02*
X0002093110Y0002143110D01*
X0001508110Y0001933110D02*
X0001718110Y0002143110D01*
X0001508110Y0001778110D02*
X0001508110Y0001978110D01*
X0001508110Y0001978110D02*
X0001443110Y0002043110D01*
X0001443110Y0002043110D02*
X0001418110Y0002043110D01*
X0002328110Y0001658110D02*
X0002328110Y0001778110D01*
X0001508110Y0001658110D02*
X0001508110Y0001778110D01*
X0001968110Y0002248110D02*
X0002345590Y0002248110D01*
X0002345590Y0002248110D02*
X0002443110Y0002155590D01*
X0001418110Y0002143110D02*
X0001418110Y0002168110D01*
X0001418110Y0002168110D02*
X0001498110Y0002248110D01*
X0001498110Y0002248110D02*
X0001868110Y0002248110D01*
X0002443110Y0001840629D02*
X0002443110Y0001568110D01*
X0002418110Y0001543110D02*
X0002093110Y0001543110D01*
X0002443110Y0001568110D02*
X0002418110Y0001543110D01*
X0002093110Y0001543110D02*
X0001918110Y0001718110D01*
X0002443110Y0001840629D02*
X0002443110Y0001873110D01*
X0001918110Y0001718110D02*
X0002093110Y0001718110D01*
X0002110629Y0001910629D02*
X0001918110Y0001718110D01*
G04 next file*
G04 Gerber Fmt 4.6, Leading zero omitted, Abs format (unit mm)*
G04 Created by KiCad (PCBNEW (5.1.10)-1) date 2021-09-22 19:04:14*
G01*
G04 APERTURE LIST*
G04 APERTURE END LIST*
D74*
X-0004981889Y0006686220D02*
X0001968110Y0003566220D03*
D75*
X0001868110Y0003566220D03*
D76*
X0001918110Y0003736220D03*
D77*
X0002328110Y0002976220D03*
X0001508110Y0002976220D03*
X0002328110Y0003096220D03*
X0001508110Y0003096220D03*
D78*
X0001918110Y0003036220D03*
D79*
X0002443110Y0003473700D03*
X0002443110Y0003158740D03*
D80*
X0001418110Y0003261220D03*
D81*
X0001418110Y0003361220D03*
X0001418110Y0003461220D03*
D82*
X0001508110Y0003096220D02*
X0001508110Y0003251220D01*
X0002328110Y0003226220D02*
X0002328110Y0003096220D01*
X0002093110Y0003461220D02*
X0002328110Y0003226220D01*
X0001718110Y0003461220D02*
X0002093110Y0003461220D01*
X0001508110Y0003251220D02*
X0001718110Y0003461220D01*
X0001508110Y0003096220D02*
X0001508110Y0003296220D01*
X0001508110Y0003296220D02*
X0001443110Y0003361220D01*
X0001443110Y0003361220D02*
X0001418110Y0003361220D01*
X0002328110Y0002976220D02*
X0002328110Y0003096220D01*
X0001508110Y0002976220D02*
X0001508110Y0003096220D01*
X0001968110Y0003566220D02*
X0002345590Y0003566220D01*
X0002345590Y0003566220D02*
X0002443110Y0003473700D01*
X0001418110Y0003461220D02*
X0001418110Y0003486220D01*
X0001418110Y0003486220D02*
X0001498110Y0003566220D01*
X0001498110Y0003566220D02*
X0001868110Y0003566220D01*
X0002443110Y0003158740D02*
X0002443110Y0002886220D01*
X0002418110Y0002861220D02*
X0002093110Y0002861220D01*
X0002443110Y0002886220D02*
X0002418110Y0002861220D01*
X0002093110Y0002861220D02*
X0001918110Y0003036220D01*
X0002443110Y0003158740D02*
X0002443110Y0003191220D01*
X0001918110Y0003036220D02*
X0002093110Y0003036220D01*
X0002110629Y0003228740D02*
X0001918110Y0003036220D01*
G04 next file*
G04 Gerber Fmt 4.6, Leading zero omitted, Abs format (unit mm)*
G04 Created by KiCad (PCBNEW (5.1.10)-1) date 2021-09-22 19:04:14*
G01*
G04 APERTURE LIST*
G04 APERTURE END LIST*
D83*
X-0003663779Y0005368110D02*
X0003286220Y0002248110D03*
D84*
X0003186220Y0002248110D03*
D85*
X0003236220Y0002418110D03*
D86*
X0003646220Y0001658110D03*
X0002826220Y0001658110D03*
X0003646220Y0001778110D03*
X0002826220Y0001778110D03*
D87*
X0003236220Y0001718110D03*
D88*
X0003761220Y0002155590D03*
X0003761220Y0001840629D03*
D89*
X0002736220Y0001943110D03*
D90*
X0002736220Y0002043110D03*
X0002736220Y0002143110D03*
D91*
X0002826220Y0001778110D02*
X0002826220Y0001933110D01*
X0003646220Y0001908110D02*
X0003646220Y0001778110D01*
X0003411220Y0002143110D02*
X0003646220Y0001908110D01*
X0003036220Y0002143110D02*
X0003411220Y0002143110D01*
X0002826220Y0001933110D02*
X0003036220Y0002143110D01*
X0002826220Y0001778110D02*
X0002826220Y0001978110D01*
X0002826220Y0001978110D02*
X0002761220Y0002043110D01*
X0002761220Y0002043110D02*
X0002736220Y0002043110D01*
X0003646220Y0001658110D02*
X0003646220Y0001778110D01*
X0002826220Y0001658110D02*
X0002826220Y0001778110D01*
X0003286220Y0002248110D02*
X0003663700Y0002248110D01*
X0003663700Y0002248110D02*
X0003761220Y0002155590D01*
X0002736220Y0002143110D02*
X0002736220Y0002168110D01*
X0002736220Y0002168110D02*
X0002816220Y0002248110D01*
X0002816220Y0002248110D02*
X0003186220Y0002248110D01*
X0003761220Y0001840629D02*
X0003761220Y0001568110D01*
X0003736220Y0001543110D02*
X0003411220Y0001543110D01*
X0003761220Y0001568110D02*
X0003736220Y0001543110D01*
X0003411220Y0001543110D02*
X0003236220Y0001718110D01*
X0003761220Y0001840629D02*
X0003761220Y0001873110D01*
X0003236220Y0001718110D02*
X0003411220Y0001718110D01*
X0003428740Y0001910629D02*
X0003236220Y0001718110D01*
G04 next file*
G04 Gerber Fmt 4.6, Leading zero omitted, Abs format (unit mm)*
G04 Created by KiCad (PCBNEW (5.1.10)-1) date 2021-09-22 19:04:14*
G01*
G04 APERTURE LIST*
G04 APERTURE END LIST*
D92*
X-0003663779Y0006686220D02*
X0003286220Y0003566220D03*
D93*
X0003186220Y0003566220D03*
D94*
X0003236220Y0003736220D03*
D95*
X0003646220Y0002976220D03*
X0002826220Y0002976220D03*
X0003646220Y0003096220D03*
X0002826220Y0003096220D03*
D96*
X0003236220Y0003036220D03*
D97*
X0003761220Y0003473700D03*
X0003761220Y0003158740D03*
D98*
X0002736220Y0003261220D03*
D99*
X0002736220Y0003361220D03*
X0002736220Y0003461220D03*
D100*
X0002826220Y0003096220D02*
X0002826220Y0003251220D01*
X0003646220Y0003226220D02*
X0003646220Y0003096220D01*
X0003411220Y0003461220D02*
X0003646220Y0003226220D01*
X0003036220Y0003461220D02*
X0003411220Y0003461220D01*
X0002826220Y0003251220D02*
X0003036220Y0003461220D01*
X0002826220Y0003096220D02*
X0002826220Y0003296220D01*
X0002826220Y0003296220D02*
X0002761220Y0003361220D01*
X0002761220Y0003361220D02*
X0002736220Y0003361220D01*
X0003646220Y0002976220D02*
X0003646220Y0003096220D01*
X0002826220Y0002976220D02*
X0002826220Y0003096220D01*
X0003286220Y0003566220D02*
X0003663700Y0003566220D01*
X0003663700Y0003566220D02*
X0003761220Y0003473700D01*
X0002736220Y0003461220D02*
X0002736220Y0003486220D01*
X0002736220Y0003486220D02*
X0002816220Y0003566220D01*
X0002816220Y0003566220D02*
X0003186220Y0003566220D01*
X0003761220Y0003158740D02*
X0003761220Y0002886220D01*
X0003736220Y0002861220D02*
X0003411220Y0002861220D01*
X0003761220Y0002886220D02*
X0003736220Y0002861220D01*
X0003411220Y0002861220D02*
X0003236220Y0003036220D01*
X0003761220Y0003158740D02*
X0003761220Y0003191220D01*
X0003236220Y0003036220D02*
X0003411220Y0003036220D01*
X0003428740Y0003228740D02*
X0003236220Y0003036220D01*
M02*