G04 #@! TF.FileFunction,Copper,L2,Bot,Signal*
%FSLAX46Y46*%
G04 Gerber Fmt 4.6, Leading zero omitted, Abs format (unit mm)*
G04 Created by KiCad (PCBNEW 4.0.7) date 08/08/19 19:02:58*
%MOMM*%
%LPD*%
G01*
G04 APERTURE LIST*
%ADD10C,0.100000*%
%ADD11R,2.200000X2.200000*%
%ADD12O,2.200000X2.200000*%
%ADD13C,2.000000*%
%ADD14C,1.778000*%
%ADD15R,1.700000X1.700000*%
%ADD16O,1.700000X1.700000*%
%ADD17C,1.750000*%
%ADD18R,1.750000X1.750000*%
%ADD19R,1.600000X1.600000*%
%ADD20O,1.600000X1.600000*%
%ADD21R,2.600000X2.600000*%
%ADD22C,2.600000*%
%ADD23C,1.700000*%
%ADD24C,1.400000*%
%ADD25O,1.400000X1.400000*%
%ADD26C,1.600000*%
%ADD27O,0.900000X1.500000*%
%ADD28R,0.900000X1.500000*%
%ADD29R,0.850000X0.850000*%
%ADD30C,0.850000*%
%ADD31R,1.400000X2.700000*%
%ADD32R,5.800000X7.400000*%
%ADD33R,0.400000X0.600000*%
%ADD34C,0.600000*%
%ADD35C,0.406400*%
%ADD36C,0.609600*%
%ADD37C,2.032000*%
%ADD38C,0.914400*%
G04 APERTURE END LIST*
D10*
D11*
X125720000Y-92615000D03*
D12*
X125720000Y-102775000D03*
D13*
X127900000Y-89440000D03*
X133700000Y-89440000D03*
D14*
X126228000Y-109125000D03*
X121148000Y-109125000D03*
D15*
X161788000Y-105315000D03*
D16*
X164328000Y-105315000D03*
X166868000Y-105315000D03*
X169408000Y-105315000D03*
X171948000Y-105315000D03*
X174488000Y-105315000D03*
D17*
X170918000Y-108365000D03*
X173458000Y-108365000D03*
D18*
X175998000Y-108365000D03*
D19*
X169408000Y-102775000D03*
D20*
X136388000Y-95155000D03*
X166868000Y-102775000D03*
X138928000Y-95155000D03*
X164328000Y-102775000D03*
X141468000Y-95155000D03*
X161788000Y-102775000D03*
X144008000Y-95155000D03*
X159248000Y-102775000D03*
X146548000Y-95155000D03*
X156708000Y-102775000D03*
X149088000Y-95155000D03*
X154168000Y-102775000D03*
X151628000Y-95155000D03*
X151628000Y-102775000D03*
X154168000Y-95155000D03*
X149088000Y-102775000D03*
X156708000Y-95155000D03*
X146548000Y-102775000D03*
X159248000Y-95155000D03*
X144008000Y-102775000D03*
X161788000Y-95155000D03*
X141468000Y-102775000D03*
X164328000Y-95155000D03*
X138928000Y-102775000D03*
X166868000Y-95155000D03*
X136388000Y-102775000D03*
X169408000Y-95155000D03*
D21*
X132070000Y-86265000D03*
D22*
X128570000Y-86265000D03*
D21*
X123053000Y-86265000D03*
D22*
X119553000Y-86265000D03*
D23*
X147818000Y-105315000D03*
X150318000Y-105315000D03*
X152818000Y-105315000D03*
D24*
X164368000Y-110395000D03*
D25*
X169448000Y-110395000D03*
D24*
X169368000Y-112935000D03*
D25*
X164288000Y-112935000D03*
D26*
X154168000Y-90075000D03*
X154168000Y-92575000D03*
X146548000Y-90075000D03*
X146548000Y-92575000D03*
X159248000Y-105315000D03*
X156748000Y-105315000D03*
D27*
X150358000Y-91980000D03*
X149088000Y-91980000D03*
D28*
X151628000Y-91980000D03*
D26*
X144008000Y-90075000D03*
X144008000Y-92575000D03*
X165598000Y-107855000D03*
X168098000Y-107855000D03*
D24*
X171988000Y-102775000D03*
D25*
X177068000Y-102775000D03*
D26*
X164328000Y-92615000D03*
X164328000Y-90115000D03*
D24*
X156748000Y-90075000D03*
D25*
X161828000Y-90075000D03*
D24*
X161748000Y-92615000D03*
D25*
X156668000Y-92615000D03*
D17*
X155918000Y-108365000D03*
X158458000Y-108365000D03*
D18*
X160998000Y-108365000D03*
D17*
X140918000Y-108365000D03*
X143458000Y-108365000D03*
D18*
X145998000Y-108365000D03*
D24*
X141428000Y-92615000D03*
D25*
X136348000Y-92615000D03*
D24*
X141428000Y-90075000D03*
D25*
X136348000Y-90075000D03*
D24*
X171948000Y-95115000D03*
D25*
X171948000Y-90035000D03*
D26*
X133848000Y-105315000D03*
X133848000Y-112935000D03*
X136388000Y-105315000D03*
X136388000Y-112935000D03*
D24*
X131308000Y-112895000D03*
D25*
X131308000Y-107815000D03*
D15*
X138928000Y-100235000D03*
D16*
X138928000Y-97695000D03*
X141468000Y-100235000D03*
X141468000Y-97695000D03*
X144008000Y-100235000D03*
X144008000Y-97695000D03*
D29*
X158740000Y-86900000D03*
D30*
X157490000Y-86900000D03*
D29*
X147310000Y-86900000D03*
D30*
X146060000Y-86900000D03*
X144810000Y-86900000D03*
X143560000Y-86900000D03*
D29*
X153025000Y-86900000D03*
D30*
X151775000Y-86900000D03*
D29*
X178425000Y-86900000D03*
D30*
X177175000Y-86900000D03*
D29*
X164455000Y-86900000D03*
D30*
X163205000Y-86900000D03*
D29*
X139055000Y-86900000D03*
D30*
X137805000Y-86900000D03*
X136555000Y-86900000D03*
D31*
X118360000Y-92610000D03*
X122920000Y-92610000D03*
D32*
X120640000Y-99592000D03*
D33*
X131558000Y-97060000D03*
X131058000Y-97060000D03*
D29*
X172710000Y-86900000D03*
D30*
X171460000Y-86900000D03*
D34*
X142738000Y-101505000D03*
X118354000Y-94901000D03*
X126228000Y-95155000D03*
X133594000Y-95536000D03*
D35*
X169408000Y-102775000D02*
X171988000Y-102775000D01*
X169408000Y-102775000D02*
X168138000Y-104045000D01*
X168138000Y-104045000D02*
X168138000Y-107815000D01*
X168138000Y-107815000D02*
X168098000Y-107855000D01*
D36*
X122920000Y-92610000D02*
X122920000Y-93625000D01*
X122920000Y-93625000D02*
X129022000Y-99727000D01*
X129022000Y-110609000D02*
X131308000Y-112895000D01*
X129022000Y-99727000D02*
X129022000Y-110609000D01*
D35*
X177175000Y-86900000D02*
X177028000Y-86900000D01*
X177028000Y-86900000D02*
X170678000Y-93250000D01*
X174488000Y-102521000D02*
X174488000Y-105315000D01*
X170678000Y-98711000D02*
X174488000Y-102521000D01*
X170678000Y-93250000D02*
X170678000Y-98711000D01*
D36*
X151628000Y-91980000D02*
X151628000Y-87047000D01*
X151628000Y-87047000D02*
X151775000Y-86900000D01*
D35*
X164328000Y-90115000D02*
X164328000Y-89948000D01*
X164328000Y-89948000D02*
X163205000Y-88825000D01*
X163205000Y-88825000D02*
X163205000Y-86900000D01*
D36*
X136555000Y-86900000D02*
X136555000Y-86305000D01*
X136555000Y-86305000D02*
X134610000Y-84360000D01*
X143560000Y-86900000D02*
X143560000Y-86325000D01*
X143560000Y-86325000D02*
X141595000Y-84360000D01*
X151775000Y-86900000D02*
X151775000Y-86285000D01*
X151775000Y-86285000D02*
X149850000Y-84360000D01*
X163205000Y-86900000D02*
X163205000Y-86285000D01*
X163205000Y-86285000D02*
X161280000Y-84360000D01*
X171460000Y-86900000D02*
X171460000Y-86285000D01*
X171460000Y-86285000D02*
X169535000Y-84360000D01*
X128570000Y-86265000D02*
X128570000Y-85320000D01*
X128570000Y-85320000D02*
X129530000Y-84360000D01*
X177175000Y-86285000D02*
X177175000Y-86900000D01*
X175250000Y-84360000D02*
X177175000Y-86285000D01*
X129530000Y-84360000D02*
X134610000Y-84360000D01*
X134610000Y-84360000D02*
X141595000Y-84360000D01*
X141595000Y-84360000D02*
X149850000Y-84360000D01*
X149850000Y-84360000D02*
X161280000Y-84360000D01*
X161280000Y-84360000D02*
X169535000Y-84360000D01*
X169535000Y-84360000D02*
X175250000Y-84360000D01*
X131308000Y-112895000D02*
X131308000Y-111792000D01*
X135245000Y-111030000D02*
X136388000Y-112173000D01*
X132070000Y-111030000D02*
X135245000Y-111030000D01*
X131308000Y-111792000D02*
X132070000Y-111030000D01*
X136388000Y-112173000D02*
X136388000Y-112935000D01*
D37*
X122920000Y-92610000D02*
X122920000Y-90970000D01*
X122920000Y-90970000D02*
X127625000Y-86265000D01*
X127625000Y-86265000D02*
X128570000Y-86265000D01*
D38*
X123052000Y-92742000D02*
X122920000Y-92610000D01*
D36*
X126228000Y-109125000D02*
X126228000Y-110903000D01*
X126228000Y-110903000D02*
X128220000Y-112895000D01*
X128220000Y-112895000D02*
X131308000Y-112895000D01*
D35*
X143458000Y-107305000D02*
X143458000Y-108365000D01*
X142738000Y-106585000D02*
X143458000Y-107305000D01*
X142738000Y-101505000D02*
X142738000Y-106585000D01*
D36*
X146548000Y-92575000D02*
X146588000Y-92575000D01*
X146588000Y-92575000D02*
X149088000Y-90075000D01*
X150358000Y-90075000D02*
X151628000Y-91345000D01*
X149088000Y-90075000D02*
X150358000Y-90075000D01*
X151628000Y-91345000D02*
X151628000Y-91980000D01*
D35*
X144008000Y-97695000D02*
X144643000Y-97695000D01*
X144643000Y-97695000D02*
X145278000Y-97060000D01*
X145278000Y-97060000D02*
X145278000Y-93845000D01*
X145278000Y-93845000D02*
X146548000Y-92575000D01*
D36*
X151628000Y-91345000D02*
X151628000Y-91980000D01*
X154168000Y-92575000D02*
X154168000Y-95155000D01*
D35*
X173458000Y-108365000D02*
X173458000Y-106345000D01*
X173458000Y-106345000D02*
X174488000Y-105315000D01*
X147143000Y-92575000D02*
X146548000Y-92575000D01*
X161748000Y-92615000D02*
X164328000Y-92615000D01*
X156708000Y-95155000D02*
X159248000Y-92615000D01*
X159248000Y-92615000D02*
X161748000Y-92615000D01*
X161828000Y-90075000D02*
X161828000Y-92535000D01*
X161828000Y-92535000D02*
X161748000Y-92615000D01*
X136348000Y-92615000D02*
X137785000Y-92615000D01*
X137785000Y-92615000D02*
X139055000Y-91345000D01*
X139055000Y-91345000D02*
X139055000Y-86900000D01*
X126228000Y-95155000D02*
X129657000Y-95155000D01*
X118354000Y-94901000D02*
X118360000Y-94895000D01*
X118360000Y-92610000D02*
X118360000Y-94895000D01*
X131058000Y-96556000D02*
X131058000Y-97060000D01*
X129657000Y-95155000D02*
X131058000Y-96556000D01*
X131308000Y-105442000D02*
X131308000Y-98838000D01*
X131308000Y-107815000D02*
X131308000Y-105442000D01*
X131058000Y-98588000D02*
X131058000Y-97060000D01*
X131308000Y-98838000D02*
X131058000Y-98588000D01*
X118868000Y-93245000D02*
X118868000Y-91605000D01*
X164368000Y-110395000D02*
X164368000Y-112855000D01*
X164368000Y-112855000D02*
X164288000Y-112935000D01*
X159248000Y-105315000D02*
X159248000Y-105950000D01*
X159248000Y-105950000D02*
X159883000Y-106585000D01*
X164368000Y-108530000D02*
X164368000Y-110395000D01*
X162423000Y-106585000D02*
X164368000Y-108530000D01*
X159883000Y-106585000D02*
X162423000Y-106585000D01*
X159248000Y-102775000D02*
X159248000Y-105315000D01*
X142103000Y-100235000D02*
X143373000Y-98965000D01*
X145913000Y-95790000D02*
X146548000Y-95155000D01*
X145913000Y-98330000D02*
X145913000Y-95790000D01*
X145278000Y-98965000D02*
X145913000Y-98330000D01*
X143373000Y-98965000D02*
X145278000Y-98965000D01*
X140198000Y-104045000D02*
X140198000Y-101505000D01*
X140198000Y-104045000D02*
X140918000Y-104765000D01*
X140918000Y-108365000D02*
X140918000Y-104765000D01*
X140198000Y-101505000D02*
X138928000Y-100235000D01*
X144008000Y-95155000D02*
X142738000Y-96425000D01*
X140198000Y-98965000D02*
X138928000Y-100235000D01*
X142103000Y-98965000D02*
X140198000Y-98965000D01*
X142738000Y-98330000D02*
X142103000Y-98965000D01*
X142738000Y-96425000D02*
X142738000Y-98330000D01*
D36*
X144810000Y-86900000D02*
X144810000Y-89273000D01*
X144810000Y-89273000D02*
X144008000Y-90075000D01*
X149088000Y-91980000D02*
X149088000Y-95155000D01*
X141428000Y-90075000D02*
X141428000Y-92615000D01*
D35*
X160998000Y-108365000D02*
X160393000Y-108365000D01*
X160393000Y-108365000D02*
X158613000Y-106585000D01*
X154168000Y-106585000D02*
X153533000Y-107220000D01*
X158613000Y-106585000D02*
X154168000Y-106585000D01*
X138928000Y-97695000D02*
X137658000Y-97695000D01*
X144603000Y-109760000D02*
X145998000Y-108365000D01*
X140198000Y-109760000D02*
X144603000Y-109760000D01*
X139563000Y-109125000D02*
X140198000Y-109760000D01*
X139563000Y-105315000D02*
X139563000Y-109125000D01*
X137658000Y-103410000D02*
X139563000Y-105315000D01*
X137658000Y-102140000D02*
X137658000Y-103410000D01*
X137658000Y-97695000D02*
X137658000Y-102140000D01*
X141428000Y-92615000D02*
X141428000Y-92655000D01*
X156668000Y-92615000D02*
X156668000Y-92655000D01*
X156668000Y-92655000D02*
X155438000Y-93885000D01*
X155438000Y-93885000D02*
X155438000Y-96425000D01*
X155438000Y-96425000D02*
X152263000Y-99600000D01*
X175998000Y-108365000D02*
X175998000Y-103845000D01*
X175998000Y-103845000D02*
X177068000Y-102775000D01*
D36*
X160998000Y-108365000D02*
X160998000Y-112780000D01*
X175998000Y-110790000D02*
X175998000Y-108365000D01*
X172583000Y-114205000D02*
X175998000Y-110790000D01*
X162423000Y-114205000D02*
X172583000Y-114205000D01*
X160998000Y-112780000D02*
X162423000Y-114205000D01*
D35*
X160998000Y-108365000D02*
X160998000Y-108645000D01*
X175998000Y-108365000D02*
X175998000Y-110155000D01*
X175998000Y-110155000D02*
X175758000Y-110395000D01*
X175758000Y-110395000D02*
X169448000Y-110395000D01*
X169408000Y-105315000D02*
X169408000Y-110355000D01*
X169408000Y-110355000D02*
X169448000Y-110395000D01*
D36*
X154168000Y-102775000D02*
X154168000Y-103410000D01*
X154168000Y-103410000D02*
X154803000Y-104045000D01*
X152388000Y-108365000D02*
X145998000Y-108365000D01*
X154803000Y-105950000D02*
X153533000Y-107220000D01*
X153533000Y-107220000D02*
X152388000Y-108365000D01*
X154803000Y-104045000D02*
X154803000Y-105950000D01*
X149088000Y-95155000D02*
X149088000Y-97695000D01*
X150993000Y-99600000D02*
X152263000Y-99600000D01*
X149088000Y-97695000D02*
X150993000Y-99600000D01*
X152263000Y-99600000D02*
X154168000Y-101505000D01*
X154168000Y-101505000D02*
X154168000Y-102775000D01*
D35*
X149088000Y-102775000D02*
X149723000Y-102775000D01*
X149723000Y-102775000D02*
X152263000Y-105315000D01*
X152263000Y-105315000D02*
X152818000Y-105315000D01*
X146548000Y-102775000D02*
X146548000Y-104045000D01*
X146548000Y-104045000D02*
X147818000Y-105315000D01*
X140198000Y-110366402D02*
X139534402Y-110366402D01*
X135118000Y-103410000D02*
X135753000Y-104045000D01*
X135753000Y-104045000D02*
X137023000Y-104045000D01*
X137023000Y-104045000D02*
X138928000Y-105950000D01*
X138928000Y-105950000D02*
X138928000Y-108490000D01*
X138928000Y-108490000D02*
X138928000Y-109125000D01*
X140833000Y-96425000D02*
X137023000Y-96425000D01*
X137023000Y-96425000D02*
X135118000Y-98330000D01*
X140833000Y-96425000D02*
X141468000Y-97060000D01*
X135118000Y-98330000D02*
X135118000Y-103410000D01*
X138928000Y-109760000D02*
X138928000Y-109125000D01*
X139534402Y-110366402D02*
X138928000Y-109760000D01*
X151628000Y-110395000D02*
X153888000Y-110395000D01*
X140198000Y-110366402D02*
X151599402Y-110366402D01*
X151599402Y-110366402D02*
X151628000Y-110395000D01*
X153888000Y-110395000D02*
X155918000Y-108365000D01*
X141468000Y-97695000D02*
X141468000Y-97060000D01*
X141468000Y-95155000D02*
X141468000Y-97695000D01*
X166868000Y-105315000D02*
X166868000Y-102775000D01*
X164328000Y-105315000D02*
X164328000Y-102775000D01*
X161788000Y-105315000D02*
X162423000Y-105315000D01*
X162423000Y-105315000D02*
X164963000Y-107855000D01*
X164963000Y-107855000D02*
X165598000Y-107855000D01*
X164455000Y-86900000D02*
X164963000Y-86900000D01*
X165598000Y-105950000D02*
X165598000Y-87535000D01*
X166868000Y-107220000D02*
X165598000Y-105950000D01*
X166868000Y-111030000D02*
X166868000Y-107220000D01*
X166868000Y-111030000D02*
X168773000Y-112935000D01*
X164963000Y-86900000D02*
X165598000Y-87535000D01*
X169368000Y-112935000D02*
X168773000Y-112935000D01*
X156748000Y-90075000D02*
X156748000Y-90162000D01*
X156748000Y-90162000D02*
X155565000Y-91345000D01*
X153025000Y-87535000D02*
X153025000Y-86900000D01*
X152390000Y-88170000D02*
X153025000Y-87535000D01*
X152390000Y-90710000D02*
X152390000Y-88170000D01*
X153025000Y-91345000D02*
X152390000Y-90710000D01*
X155565000Y-91345000D02*
X153025000Y-91345000D01*
X156748000Y-90075000D02*
X156708000Y-90075000D01*
X136348000Y-90075000D02*
X137150000Y-90075000D01*
X137805000Y-89420000D02*
X137805000Y-86900000D01*
X137150000Y-90075000D02*
X137805000Y-89420000D01*
D37*
X125720000Y-102775000D02*
X123823000Y-102775000D01*
X123823000Y-102775000D02*
X120640000Y-99592000D01*
X119553000Y-86265000D02*
X119553000Y-87972000D01*
X120640000Y-89059000D02*
X120640000Y-99592000D01*
X119553000Y-87972000D02*
X120640000Y-89059000D01*
D36*
X154168000Y-90075000D02*
X155819000Y-88424000D01*
X158740000Y-87408000D02*
X158740000Y-86900000D01*
X157724000Y-88424000D02*
X158740000Y-87408000D01*
X155819000Y-88424000D02*
X157724000Y-88424000D01*
D35*
X131558000Y-97060000D02*
X133086000Y-97060000D01*
X133594000Y-95536000D02*
X133594000Y-96044000D01*
X133594000Y-96552000D02*
X133594000Y-96044000D01*
X133086000Y-97060000D02*
X133594000Y-96552000D01*
X171948000Y-90035000D02*
X171948000Y-88932000D01*
X172710000Y-88170000D02*
X172710000Y-86900000D01*
X171948000Y-88932000D02*
X172710000Y-88170000D01*
M02*
