G04 #@! TF.FileFunction,Soldermask,Bot*
%FSLAX46Y46*%
G04 Gerber Fmt 4.6, Leading zero omitted, Abs format (unit mm)*
G04 Created by KiCad (PCBNEW 4.0.6) date 06/26/19 16:14:45*
%MOMM*%
%LPD*%
G01*
G04 APERTURE LIST*
%ADD10C,0.100000*%
%ADD11C,3.000000*%
%ADD12C,1.750000*%
%ADD13R,1.750000X1.750000*%
%ADD14C,2.000000*%
%ADD15R,1.700000X1.700000*%
%ADD16O,1.700000X1.700000*%
%ADD17R,1.600000X1.600000*%
%ADD18O,1.600000X1.600000*%
%ADD19R,2.600000X2.600000*%
%ADD20C,2.600000*%
%ADD21C,1.700000*%
%ADD22R,2.400000X2.400000*%
%ADD23O,2.400000X2.400000*%
%ADD24C,1.778000*%
%ADD25C,1.400000*%
%ADD26O,1.400000X1.400000*%
%ADD27C,1.600000*%
%ADD28R,1.800000X1.800000*%
%ADD29C,1.800000*%
%ADD30O,0.900000X1.500000*%
%ADD31R,0.900000X1.500000*%
%ADD32R,1.200000X2.200000*%
%ADD33R,5.800000X6.400000*%
%ADD34R,0.850000X0.850000*%
%ADD35C,0.850000*%
G04 APERTURE END LIST*
D10*
D11*
X87998000Y-92365000D03*
D12*
X90918000Y-110365000D03*
X93458000Y-110365000D03*
D13*
X95998000Y-110365000D03*
D14*
X49128000Y-92075000D03*
X43328000Y-92075000D03*
D15*
X65278000Y-95885000D03*
D16*
X62738000Y-95885000D03*
X60198000Y-95885000D03*
X57658000Y-95885000D03*
X55118000Y-95885000D03*
X52578000Y-95885000D03*
D11*
X46998000Y-82365000D03*
D17*
X57658000Y-98425000D03*
D18*
X90678000Y-106045000D03*
X60198000Y-98425000D03*
X88138000Y-106045000D03*
X62738000Y-98425000D03*
X85598000Y-106045000D03*
X65278000Y-98425000D03*
X83058000Y-106045000D03*
X67818000Y-98425000D03*
X80518000Y-106045000D03*
X70358000Y-98425000D03*
X77978000Y-106045000D03*
X72898000Y-98425000D03*
X75438000Y-106045000D03*
X75438000Y-98425000D03*
X72898000Y-106045000D03*
X77978000Y-98425000D03*
X70358000Y-106045000D03*
X80518000Y-98425000D03*
X67818000Y-106045000D03*
X83058000Y-98425000D03*
X65278000Y-106045000D03*
X85598000Y-98425000D03*
X62738000Y-106045000D03*
X88138000Y-98425000D03*
X60198000Y-106045000D03*
X90678000Y-98425000D03*
X57658000Y-106045000D03*
D19*
X48768000Y-88265000D03*
D20*
X52268000Y-88265000D03*
D19*
X43053000Y-88265000D03*
D20*
X39553000Y-88265000D03*
D21*
X83058000Y-95885000D03*
X80558000Y-95885000D03*
X78058000Y-95885000D03*
D22*
X39370000Y-104775000D03*
D23*
X39370000Y-92075000D03*
D24*
X46228000Y-112395000D03*
X41148000Y-112395000D03*
D25*
X67778000Y-93345000D03*
D26*
X62698000Y-93345000D03*
D25*
X75398000Y-93345000D03*
D26*
X70318000Y-93345000D03*
D27*
X57658000Y-108585000D03*
X57658000Y-111085000D03*
X53848000Y-113665000D03*
X51348000Y-113665000D03*
X67818000Y-95885000D03*
X70318000Y-95885000D03*
D28*
X90678000Y-88773000D03*
D29*
X88138000Y-88773000D03*
D30*
X52578000Y-108585000D03*
X53848000Y-108585000D03*
D31*
X51308000Y-108585000D03*
D27*
X72898000Y-95885000D03*
X75398000Y-95885000D03*
X60198000Y-93345000D03*
X57698000Y-93345000D03*
D25*
X55118000Y-98465000D03*
D26*
X55118000Y-103545000D03*
D27*
X85598000Y-109855000D03*
X88098000Y-109855000D03*
D25*
X88138000Y-112435000D03*
D26*
X88138000Y-117515000D03*
D25*
X85598000Y-117435000D03*
D26*
X85598000Y-112355000D03*
D12*
X75918000Y-110365000D03*
X78458000Y-110365000D03*
D13*
X80998000Y-110365000D03*
D12*
X60918000Y-110365000D03*
X63458000Y-110365000D03*
D13*
X65998000Y-110365000D03*
D25*
X52578000Y-103465000D03*
D26*
X52578000Y-98385000D03*
D25*
X50038000Y-103465000D03*
D26*
X50038000Y-98385000D03*
D25*
X85638000Y-95885000D03*
D26*
X90718000Y-95885000D03*
D27*
X68453000Y-109855000D03*
X68453000Y-117475000D03*
X70993000Y-109855000D03*
X70993000Y-117475000D03*
D25*
X73533000Y-117435000D03*
D26*
X73533000Y-112355000D03*
D32*
X42678000Y-94860000D03*
X47238000Y-94860000D03*
D33*
X44958000Y-101160000D03*
D15*
X85598000Y-100965000D03*
D16*
X85598000Y-103505000D03*
X83058000Y-100965000D03*
X83058000Y-103505000D03*
X80518000Y-100965000D03*
X80518000Y-103505000D03*
D34*
X72898000Y-88265000D03*
D35*
X71648000Y-88265000D03*
D34*
X67183000Y-88265000D03*
D35*
X65933000Y-88265000D03*
X64683000Y-88265000D03*
X63433000Y-88265000D03*
D34*
X95758000Y-88265000D03*
D35*
X94508000Y-88265000D03*
D34*
X84328000Y-88265000D03*
D35*
X83078000Y-88265000D03*
D34*
X78613000Y-88265000D03*
D35*
X77363000Y-88265000D03*
D34*
X58928000Y-88265000D03*
D35*
X57678000Y-88265000D03*
X56428000Y-88265000D03*
M02*
