G04 #@! TF.FileFunction,Legend,Bot*
%FSLAX46Y46*%
G04 Gerber Fmt 4.6, Leading zero omitted, Abs format (unit mm)*
G04 Created by KiCad (PCBNEW 4.0.7) date 08/17/18 12:34:18*
%MOMM*%
%LPD*%
G01*
G04 APERTURE LIST*
%ADD10C,0.100000*%
%ADD11C,0.150000*%
%ADD12C,0.300000*%
%ADD13C,0.400000*%
%ADD14C,0.200000*%
%ADD15C,0.002540*%
%ADD16C,0.010000*%
%ADD17C,0.120000*%
G04 APERTURE END LIST*
D10*
D11*
X147728857Y-102698786D02*
X147978857Y-102341643D01*
X148157429Y-102698786D02*
X148157429Y-101948786D01*
X147871714Y-101948786D01*
X147800286Y-101984500D01*
X147764571Y-102020214D01*
X147728857Y-102091643D01*
X147728857Y-102198786D01*
X147764571Y-102270214D01*
X147800286Y-102305929D01*
X147871714Y-102341643D01*
X148157429Y-102341643D01*
X147121714Y-102663071D02*
X147193143Y-102698786D01*
X147336000Y-102698786D01*
X147407429Y-102663071D01*
X147443143Y-102591643D01*
X147443143Y-102305929D01*
X147407429Y-102234500D01*
X147336000Y-102198786D01*
X147193143Y-102198786D01*
X147121714Y-102234500D01*
X147086000Y-102305929D01*
X147086000Y-102377357D01*
X147443143Y-102448786D01*
X146836000Y-102198786D02*
X146657429Y-102698786D01*
X146478857Y-102198786D01*
X145478856Y-101948786D02*
X145407428Y-101948786D01*
X145335999Y-101984500D01*
X145300285Y-102020214D01*
X145264571Y-102091643D01*
X145228856Y-102234500D01*
X145228856Y-102413071D01*
X145264571Y-102555929D01*
X145300285Y-102627357D01*
X145335999Y-102663071D01*
X145407428Y-102698786D01*
X145478856Y-102698786D01*
X145550285Y-102663071D01*
X145585999Y-102627357D01*
X145621714Y-102555929D01*
X145657428Y-102413071D01*
X145657428Y-102234500D01*
X145621714Y-102091643D01*
X145585999Y-102020214D01*
X145550285Y-101984500D01*
X145478856Y-101948786D01*
X144907428Y-102627357D02*
X144871713Y-102663071D01*
X144907428Y-102698786D01*
X144943142Y-102663071D01*
X144907428Y-102627357D01*
X144907428Y-102698786D01*
X144407427Y-101948786D02*
X144335999Y-101948786D01*
X144264570Y-101984500D01*
X144228856Y-102020214D01*
X144193142Y-102091643D01*
X144157427Y-102234500D01*
X144157427Y-102413071D01*
X144193142Y-102555929D01*
X144228856Y-102627357D01*
X144264570Y-102663071D01*
X144335999Y-102698786D01*
X144407427Y-102698786D01*
X144478856Y-102663071D01*
X144514570Y-102627357D01*
X144550285Y-102555929D01*
X144585999Y-102413071D01*
X144585999Y-102234500D01*
X144550285Y-102091643D01*
X144514570Y-102020214D01*
X144478856Y-101984500D01*
X144407427Y-101948786D01*
X148193143Y-103759500D02*
X147836000Y-103759500D01*
X148264571Y-103973786D02*
X148014571Y-103223786D01*
X147764571Y-103973786D01*
X147193143Y-103473786D02*
X147193143Y-103973786D01*
X147514572Y-103473786D02*
X147514572Y-103866643D01*
X147478857Y-103938071D01*
X147407429Y-103973786D01*
X147300286Y-103973786D01*
X147228857Y-103938071D01*
X147193143Y-103902357D01*
X146514572Y-103473786D02*
X146514572Y-104080929D01*
X146550286Y-104152357D01*
X146586001Y-104188071D01*
X146657429Y-104223786D01*
X146764572Y-104223786D01*
X146836001Y-104188071D01*
X146514572Y-103938071D02*
X146586001Y-103973786D01*
X146728858Y-103973786D01*
X146800286Y-103938071D01*
X146836001Y-103902357D01*
X146871715Y-103830929D01*
X146871715Y-103616643D01*
X146836001Y-103545214D01*
X146800286Y-103509500D01*
X146728858Y-103473786D01*
X146586001Y-103473786D01*
X146514572Y-103509500D01*
X145621715Y-103295214D02*
X145586001Y-103259500D01*
X145514572Y-103223786D01*
X145336001Y-103223786D01*
X145264572Y-103259500D01*
X145228858Y-103295214D01*
X145193143Y-103366643D01*
X145193143Y-103438071D01*
X145228858Y-103545214D01*
X145657429Y-103973786D01*
X145193143Y-103973786D01*
X144728857Y-103223786D02*
X144657429Y-103223786D01*
X144586000Y-103259500D01*
X144550286Y-103295214D01*
X144514572Y-103366643D01*
X144478857Y-103509500D01*
X144478857Y-103688071D01*
X144514572Y-103830929D01*
X144550286Y-103902357D01*
X144586000Y-103938071D01*
X144657429Y-103973786D01*
X144728857Y-103973786D01*
X144800286Y-103938071D01*
X144836000Y-103902357D01*
X144871715Y-103830929D01*
X144907429Y-103688071D01*
X144907429Y-103509500D01*
X144871715Y-103366643D01*
X144836000Y-103295214D01*
X144800286Y-103259500D01*
X144728857Y-103223786D01*
X143764571Y-103973786D02*
X144193143Y-103973786D01*
X143978857Y-103973786D02*
X143978857Y-103223786D01*
X144050286Y-103330929D01*
X144121714Y-103402357D01*
X144193143Y-103438071D01*
X143336000Y-103545214D02*
X143407428Y-103509500D01*
X143443143Y-103473786D01*
X143478857Y-103402357D01*
X143478857Y-103366643D01*
X143443143Y-103295214D01*
X143407428Y-103259500D01*
X143336000Y-103223786D01*
X143193143Y-103223786D01*
X143121714Y-103259500D01*
X143086000Y-103295214D01*
X143050285Y-103366643D01*
X143050285Y-103402357D01*
X143086000Y-103473786D01*
X143121714Y-103509500D01*
X143193143Y-103545214D01*
X143336000Y-103545214D01*
X143407428Y-103580929D01*
X143443143Y-103616643D01*
X143478857Y-103688071D01*
X143478857Y-103830929D01*
X143443143Y-103902357D01*
X143407428Y-103938071D01*
X143336000Y-103973786D01*
X143193143Y-103973786D01*
X143121714Y-103938071D01*
X143086000Y-103902357D01*
X143050285Y-103830929D01*
X143050285Y-103688071D01*
X143086000Y-103616643D01*
X143121714Y-103580929D01*
X143193143Y-103545214D01*
D12*
X160565238Y-94323286D02*
X159612857Y-94323286D01*
X158065238Y-94799476D02*
X158065238Y-93549476D01*
X157529524Y-94739952D02*
X157350952Y-94799476D01*
X157053333Y-94799476D01*
X156934286Y-94739952D01*
X156874762Y-94680429D01*
X156815238Y-94561381D01*
X156815238Y-94442333D01*
X156874762Y-94323286D01*
X156934286Y-94263762D01*
X157053333Y-94204238D01*
X157291429Y-94144714D01*
X157410476Y-94085190D01*
X157470000Y-94025667D01*
X157529524Y-93906619D01*
X157529524Y-93787571D01*
X157470000Y-93668524D01*
X157410476Y-93609000D01*
X157291429Y-93549476D01*
X156993809Y-93549476D01*
X156815238Y-93609000D01*
X156279524Y-94799476D02*
X156279524Y-93549476D01*
X155803333Y-93549476D01*
X155684286Y-93609000D01*
X155624762Y-93668524D01*
X155565238Y-93787571D01*
X155565238Y-93966143D01*
X155624762Y-94085190D01*
X155684286Y-94144714D01*
X155803333Y-94204238D01*
X156279524Y-94204238D01*
X154077143Y-94323286D02*
X153124762Y-94323286D01*
X153600952Y-94799476D02*
X153600952Y-93847095D01*
X166344750Y-107829000D02*
X166157250Y-108995667D01*
X165719750Y-108162333D01*
X165490583Y-108995667D01*
X165011417Y-107829000D01*
X164511417Y-107829000D02*
X164323917Y-108995667D01*
X163886417Y-108162333D01*
X163657250Y-108995667D01*
X163178084Y-107829000D01*
X162678084Y-107829000D02*
X162490584Y-108995667D01*
X162053084Y-108162333D01*
X161823917Y-108995667D01*
X161344751Y-107829000D01*
X160803084Y-108829000D02*
X160730168Y-108912333D01*
X160823917Y-108995667D01*
X160896835Y-108912333D01*
X160803084Y-108829000D01*
X160823917Y-108995667D01*
X159990584Y-108995667D02*
X159771834Y-107245667D01*
X159344751Y-108495667D01*
X158605168Y-107245667D01*
X158823918Y-108995667D01*
X157240584Y-108995667D02*
X157126001Y-108079000D01*
X157188502Y-107912333D01*
X157344751Y-107829000D01*
X157678085Y-107829000D01*
X157855168Y-107912333D01*
X157230168Y-108912333D02*
X157407251Y-108995667D01*
X157823918Y-108995667D01*
X157980168Y-108912333D01*
X158042668Y-108745667D01*
X158021835Y-108579000D01*
X157917668Y-108412333D01*
X157740585Y-108329000D01*
X157323918Y-108329000D01*
X157146834Y-108245667D01*
X156407251Y-108995667D02*
X156188501Y-107245667D01*
X156157252Y-108329000D02*
X155740585Y-108995667D01*
X155594752Y-107829000D02*
X156344751Y-108495667D01*
X154313502Y-108912333D02*
X154490584Y-108995667D01*
X154823918Y-108995667D01*
X154980168Y-108912333D01*
X155042668Y-108745667D01*
X154959335Y-108079000D01*
X154855168Y-107912333D01*
X154678085Y-107829000D01*
X154344751Y-107829000D01*
X154188502Y-107912333D01*
X154126001Y-108079000D01*
X154146834Y-108245667D01*
X155001002Y-108412333D01*
X153490584Y-108995667D02*
X153344751Y-107829000D01*
X153386418Y-108162333D02*
X153282251Y-107995667D01*
X153188502Y-107912333D01*
X153011418Y-107829000D01*
X152844751Y-107829000D01*
X152480169Y-108912333D02*
X152323918Y-108995667D01*
X151990585Y-108995667D01*
X151813502Y-108912333D01*
X151709335Y-108745667D01*
X151698919Y-108662333D01*
X151761418Y-108495667D01*
X151917669Y-108412333D01*
X152167669Y-108412333D01*
X152323918Y-108329000D01*
X152386419Y-108162333D01*
X152376002Y-108079000D01*
X152271835Y-107912333D01*
X152094752Y-107829000D01*
X151844752Y-107829000D01*
X151688502Y-107912333D01*
X150292668Y-108079000D02*
X150053085Y-108162333D01*
X149980168Y-108245667D01*
X149917668Y-108412333D01*
X149948918Y-108662333D01*
X150053085Y-108829000D01*
X150146835Y-108912333D01*
X150323918Y-108995667D01*
X150990584Y-108995667D01*
X150771834Y-107245667D01*
X150188501Y-107245667D01*
X150032251Y-107329000D01*
X149959335Y-107412333D01*
X149896835Y-107579000D01*
X149917668Y-107745667D01*
X150021835Y-107912333D01*
X150115584Y-107995667D01*
X150292668Y-108079000D01*
X150876001Y-108079000D01*
X148990584Y-108995667D02*
X149146835Y-108912333D01*
X149219751Y-108829000D01*
X149282252Y-108662333D01*
X149219752Y-108162333D01*
X149115584Y-107995667D01*
X149021835Y-107912333D01*
X148844751Y-107829000D01*
X148594751Y-107829000D01*
X148438502Y-107912333D01*
X148365584Y-107995667D01*
X148303085Y-108162333D01*
X148365585Y-108662333D01*
X148469751Y-108829000D01*
X148563502Y-108912333D01*
X148740584Y-108995667D01*
X148990584Y-108995667D01*
X147823918Y-108995667D02*
X146761418Y-107829000D01*
X147678085Y-107829000D02*
X146907251Y-108995667D01*
X146219751Y-108829000D02*
X146146835Y-108912333D01*
X146240584Y-108995667D01*
X146313502Y-108912333D01*
X146219751Y-108829000D01*
X146240584Y-108995667D01*
X144511418Y-107829000D02*
X144657251Y-108995667D01*
X145261418Y-107829000D02*
X145376001Y-108745667D01*
X145313502Y-108912333D01*
X145157251Y-108995667D01*
X144907251Y-108995667D01*
X144730169Y-108912333D01*
X144636418Y-108829000D01*
X143896836Y-108912333D02*
X143740585Y-108995667D01*
X143407252Y-108995667D01*
X143230169Y-108912333D01*
X143126002Y-108745667D01*
X143115586Y-108662333D01*
X143178085Y-108495667D01*
X143334336Y-108412333D01*
X143584336Y-108412333D01*
X143740585Y-108329000D01*
X143803086Y-108162333D01*
X143792669Y-108079000D01*
X143688502Y-107912333D01*
X143511419Y-107829000D01*
X143261419Y-107829000D01*
X143105169Y-107912333D01*
D13*
X166007000Y-89802500D02*
X165767417Y-89885833D01*
X165694500Y-89969167D01*
X165632000Y-90135833D01*
X165663250Y-90385833D01*
X165767417Y-90552500D01*
X165861167Y-90635833D01*
X166038250Y-90719167D01*
X166704916Y-90719167D01*
X166486166Y-88969167D01*
X165902833Y-88969167D01*
X165746583Y-89052500D01*
X165673667Y-89135833D01*
X165611167Y-89302500D01*
X165632000Y-89469167D01*
X165736167Y-89635833D01*
X165829916Y-89719167D01*
X166007000Y-89802500D01*
X166590333Y-89802500D01*
X164277834Y-90635833D02*
X164454916Y-90719167D01*
X164788250Y-90719167D01*
X164944500Y-90635833D01*
X165007000Y-90469167D01*
X164923667Y-89802500D01*
X164819500Y-89635833D01*
X164642417Y-89552500D01*
X164309083Y-89552500D01*
X164152834Y-89635833D01*
X164090333Y-89802500D01*
X164111166Y-89969167D01*
X164965334Y-90135833D01*
X162777834Y-90635833D02*
X162954916Y-90719167D01*
X163288250Y-90719167D01*
X163444500Y-90635833D01*
X163507000Y-90469167D01*
X163423667Y-89802500D01*
X163319500Y-89635833D01*
X163142417Y-89552500D01*
X162809083Y-89552500D01*
X162652834Y-89635833D01*
X162590333Y-89802500D01*
X162611166Y-89969167D01*
X163465334Y-90135833D01*
X162059083Y-89552500D02*
X161392417Y-89552500D01*
X161736166Y-88969167D02*
X161923666Y-90469167D01*
X161861167Y-90635833D01*
X161704916Y-90719167D01*
X161538250Y-90719167D01*
X160809083Y-89552500D02*
X160996583Y-91052500D01*
X161100750Y-91219167D01*
X161277833Y-91302500D01*
X161361167Y-91302500D01*
X160736166Y-88969167D02*
X160829917Y-89052500D01*
X160757000Y-89135833D01*
X160663250Y-89052500D01*
X160736166Y-88969167D01*
X160757000Y-89135833D01*
X159444501Y-90635833D02*
X159621583Y-90719167D01*
X159954917Y-90719167D01*
X160111167Y-90635833D01*
X160173667Y-90469167D01*
X160090334Y-89802500D01*
X159986167Y-89635833D01*
X159809084Y-89552500D01*
X159475750Y-89552500D01*
X159319501Y-89635833D01*
X159257000Y-89802500D01*
X159277833Y-89969167D01*
X160132001Y-90135833D01*
X156590334Y-89802500D02*
X156350751Y-89885833D01*
X156277834Y-89969167D01*
X156215334Y-90135833D01*
X156246584Y-90385833D01*
X156350751Y-90552500D01*
X156444501Y-90635833D01*
X156621584Y-90719167D01*
X157288250Y-90719167D01*
X157069500Y-88969167D01*
X156486167Y-88969167D01*
X156329917Y-89052500D01*
X156257001Y-89135833D01*
X156194501Y-89302500D01*
X156215334Y-89469167D01*
X156319501Y-89635833D01*
X156413250Y-89719167D01*
X156590334Y-89802500D01*
X157173667Y-89802500D01*
X155288250Y-90719167D02*
X155444501Y-90635833D01*
X155507000Y-90469167D01*
X155319500Y-88969167D01*
X154371583Y-90719167D02*
X154527834Y-90635833D01*
X154600750Y-90552500D01*
X154663251Y-90385833D01*
X154600751Y-89885833D01*
X154496583Y-89719167D01*
X154402834Y-89635833D01*
X154225750Y-89552500D01*
X153975750Y-89552500D01*
X153819501Y-89635833D01*
X153746583Y-89719167D01*
X153684084Y-89885833D01*
X153746584Y-90385833D01*
X153850750Y-90552500D01*
X153944501Y-90635833D01*
X154121583Y-90719167D01*
X154371583Y-90719167D01*
X153038250Y-90719167D02*
X152819500Y-88969167D01*
X152788251Y-90052500D02*
X152371584Y-90719167D01*
X152225751Y-89552500D02*
X152975750Y-90219167D01*
X166652833Y-91994167D02*
X165569500Y-91994167D01*
X166236167Y-92660833D01*
X165986167Y-92660833D01*
X165829916Y-92744167D01*
X165757000Y-92827500D01*
X165694500Y-92994167D01*
X165746584Y-93410833D01*
X165850750Y-93577500D01*
X165944500Y-93660833D01*
X166121583Y-93744167D01*
X166621583Y-93744167D01*
X166777834Y-93660833D01*
X166850750Y-93577500D01*
X164923667Y-92160833D02*
X164829916Y-92077500D01*
X164652833Y-91994167D01*
X164236166Y-91994167D01*
X164079916Y-92077500D01*
X164007000Y-92160833D01*
X163944500Y-92327500D01*
X163965333Y-92494167D01*
X164079916Y-92744167D01*
X165204916Y-93744167D01*
X164121583Y-93744167D01*
X163152832Y-91994167D02*
X163329916Y-93410833D01*
X163267416Y-93577500D01*
X163194500Y-93660833D01*
X163038249Y-93744167D01*
X162704916Y-93744167D01*
X162527833Y-93660833D01*
X162434083Y-93577500D01*
X162329916Y-93410833D01*
X162152832Y-91994167D01*
X160642416Y-92577500D02*
X160788249Y-93744167D01*
X160975750Y-91910833D02*
X161548667Y-93160833D01*
X160465333Y-93160833D01*
D12*
D14*
D15*
G36*
X160987740Y-95648780D02*
X160987740Y-95686880D01*
X160990280Y-95712280D01*
X160992820Y-95735140D01*
X160997900Y-95752920D01*
X161008060Y-95773240D01*
X161010600Y-95780860D01*
X161023300Y-95808800D01*
X161033460Y-95834200D01*
X161043620Y-95864680D01*
X161053780Y-95900240D01*
X161063940Y-95945960D01*
X161076640Y-95999300D01*
X161081720Y-96017080D01*
X161096960Y-96090740D01*
X161114740Y-96151700D01*
X161129980Y-96205040D01*
X161150300Y-96250760D01*
X161170620Y-96291400D01*
X161170620Y-95661480D01*
X161170620Y-95646240D01*
X161173160Y-95633540D01*
X161180780Y-95620840D01*
X161193480Y-95605600D01*
X161216340Y-95587820D01*
X161226500Y-95577660D01*
X161254440Y-95554800D01*
X161279840Y-95529400D01*
X161297620Y-95506540D01*
X161305240Y-95498920D01*
X161317940Y-95481140D01*
X161338260Y-95455740D01*
X161363660Y-95425260D01*
X161389060Y-95394780D01*
X161391600Y-95392240D01*
X161414460Y-95364300D01*
X161434780Y-95338900D01*
X161447480Y-95321120D01*
X161455100Y-95310960D01*
X161455100Y-95308420D01*
X161460180Y-95303340D01*
X161477960Y-95303340D01*
X161503360Y-95303340D01*
X161533840Y-95308420D01*
X161564320Y-95313500D01*
X161574480Y-95316040D01*
X161587180Y-95318580D01*
X161599880Y-95323660D01*
X161615120Y-95323660D01*
X161632900Y-95326200D01*
X161658300Y-95328740D01*
X161691320Y-95331280D01*
X161729420Y-95331280D01*
X161777680Y-95333820D01*
X161836100Y-95333820D01*
X161907220Y-95336360D01*
X161991040Y-95338900D01*
X162044380Y-95338900D01*
X162130740Y-95341440D01*
X162217100Y-95341440D01*
X162303460Y-95343980D01*
X162387280Y-95343980D01*
X162466020Y-95346520D01*
X162537140Y-95346520D01*
X162600640Y-95346520D01*
X162648900Y-95346520D01*
X162661600Y-95346520D01*
X162854640Y-95346520D01*
X162915600Y-95407480D01*
X162976560Y-95465900D01*
X163017200Y-95465900D01*
X163045140Y-95465900D01*
X163080700Y-95463360D01*
X163108640Y-95458280D01*
X163141660Y-95455740D01*
X163172140Y-95458280D01*
X163205160Y-95463360D01*
X163245800Y-95473520D01*
X163291520Y-95491300D01*
X163347400Y-95514160D01*
X163362640Y-95519240D01*
X163405820Y-95539560D01*
X163438840Y-95552260D01*
X163466780Y-95559880D01*
X163492180Y-95564960D01*
X163520120Y-95570040D01*
X163537900Y-95572580D01*
X163583620Y-95577660D01*
X163619180Y-95582740D01*
X163647120Y-95590360D01*
X163667440Y-95600520D01*
X163687760Y-95613220D01*
X163708080Y-95633540D01*
X163710620Y-95636080D01*
X163733480Y-95656400D01*
X163758880Y-95674180D01*
X163776660Y-95686880D01*
X163776660Y-95686880D01*
X163796980Y-95691960D01*
X163827460Y-95697040D01*
X163863020Y-95704660D01*
X163901120Y-95707200D01*
X163934140Y-95712280D01*
X163959540Y-95712280D01*
X163974780Y-95709740D01*
X163987480Y-95702120D01*
X164010340Y-95689420D01*
X164030660Y-95671640D01*
X164053520Y-95651320D01*
X164068760Y-95643700D01*
X164078920Y-95641160D01*
X164084000Y-95643700D01*
X164094160Y-95651320D01*
X164114480Y-95664020D01*
X164142420Y-95681800D01*
X164172900Y-95702120D01*
X164180520Y-95707200D01*
X164266880Y-95760540D01*
X164343080Y-95763080D01*
X164378640Y-95765620D01*
X164401500Y-95768160D01*
X164414200Y-95770700D01*
X164424360Y-95775780D01*
X164429440Y-95783400D01*
X164431980Y-95788480D01*
X164452300Y-95811340D01*
X164480240Y-95826580D01*
X164510720Y-95834200D01*
X164515800Y-95834200D01*
X164543740Y-95826580D01*
X164571680Y-95808800D01*
X164599620Y-95778320D01*
X164609780Y-95765620D01*
X164622480Y-95752920D01*
X164630100Y-95742760D01*
X164640260Y-95735140D01*
X164652960Y-95727520D01*
X164673280Y-95724980D01*
X164698680Y-95719900D01*
X164736780Y-95714820D01*
X164785040Y-95712280D01*
X164800280Y-95709740D01*
X164909500Y-95699580D01*
X164939980Y-95727520D01*
X164975540Y-95760540D01*
X165011100Y-95785940D01*
X165041580Y-95806260D01*
X165051740Y-95811340D01*
X165074600Y-95816420D01*
X165107620Y-95821500D01*
X165150800Y-95826580D01*
X165196520Y-95831660D01*
X165247320Y-95836740D01*
X165295580Y-95839280D01*
X165341300Y-95839280D01*
X165343840Y-95839280D01*
X165392100Y-95839280D01*
X165435280Y-95834200D01*
X165478460Y-95829120D01*
X165526720Y-95818960D01*
X165572440Y-95808800D01*
X165605460Y-95798640D01*
X165630860Y-95785940D01*
X165653720Y-95773240D01*
X165676580Y-95752920D01*
X165701980Y-95727520D01*
X165719760Y-95707200D01*
X165735000Y-95686880D01*
X165742620Y-95664020D01*
X165750240Y-95636080D01*
X165757860Y-95600520D01*
X165760400Y-95557340D01*
X165765480Y-95506540D01*
X165773100Y-95427800D01*
X165785800Y-95359220D01*
X165806120Y-95303340D01*
X165831520Y-95257620D01*
X165834060Y-95252540D01*
X165859460Y-95227140D01*
X165897560Y-95199200D01*
X165910260Y-95191580D01*
X165938200Y-95178880D01*
X165961060Y-95168720D01*
X165978840Y-95166180D01*
X166001700Y-95166180D01*
X166004240Y-95166180D01*
X166042340Y-95166180D01*
X166085520Y-95158560D01*
X166116000Y-95150940D01*
X166154100Y-95138240D01*
X166182040Y-95133160D01*
X166199820Y-95130620D01*
X166215060Y-95135700D01*
X166230300Y-95140780D01*
X166237920Y-95145860D01*
X166268400Y-95161100D01*
X166311580Y-95166180D01*
X166359840Y-95161100D01*
X166375080Y-95156020D01*
X166397940Y-95150940D01*
X166418260Y-95145860D01*
X166425880Y-95145860D01*
X166425880Y-95150940D01*
X166428420Y-95171260D01*
X166428420Y-95194120D01*
X166428420Y-95196660D01*
X166428420Y-95224600D01*
X166430960Y-95244920D01*
X166436040Y-95262700D01*
X166448740Y-95280480D01*
X166471600Y-95313500D01*
X166463980Y-95432880D01*
X166461440Y-95478600D01*
X166456360Y-95511620D01*
X166453820Y-95537020D01*
X166448740Y-95554800D01*
X166443660Y-95570040D01*
X166436040Y-95585280D01*
X166430960Y-95592900D01*
X166415720Y-95623380D01*
X166408100Y-95651320D01*
X166408100Y-95671640D01*
X166405560Y-95699580D01*
X166403020Y-95722440D01*
X166400480Y-95730060D01*
X166397940Y-95747840D01*
X166392860Y-95773240D01*
X166392860Y-95806260D01*
X166392860Y-95818960D01*
X166392860Y-95851980D01*
X166392860Y-95872300D01*
X166397940Y-95887540D01*
X166405560Y-95897700D01*
X166415720Y-95910400D01*
X166418260Y-95912940D01*
X166438580Y-95928180D01*
X166458900Y-95935800D01*
X166461440Y-95938340D01*
X166471600Y-95938340D01*
X166476680Y-95943420D01*
X166481760Y-95958660D01*
X166484300Y-95984060D01*
X166486840Y-96017080D01*
X166489380Y-96055180D01*
X166489380Y-96078040D01*
X166491920Y-96121220D01*
X166497000Y-96177100D01*
X166504620Y-96248220D01*
X166517320Y-96334580D01*
X166535100Y-96433640D01*
X166535100Y-96441260D01*
X166542720Y-96484440D01*
X166547800Y-96525080D01*
X166552880Y-96555560D01*
X166555420Y-96578420D01*
X166557960Y-96586040D01*
X166557960Y-96598740D01*
X166555420Y-96621600D01*
X166555420Y-96652080D01*
X166552880Y-96682560D01*
X166552880Y-96715580D01*
X166550340Y-96746060D01*
X166547800Y-96766380D01*
X166545260Y-96774000D01*
X166535100Y-96799400D01*
X166532560Y-96829880D01*
X166535100Y-96860360D01*
X166545260Y-96885760D01*
X166560500Y-96898460D01*
X166568120Y-96911160D01*
X166575740Y-96936560D01*
X166585900Y-96977200D01*
X166593520Y-97033080D01*
X166603680Y-97101660D01*
X166611300Y-97180400D01*
X166616380Y-97241360D01*
X166621460Y-97294700D01*
X166626540Y-97345500D01*
X166631620Y-97388680D01*
X166636700Y-97424240D01*
X166639240Y-97449640D01*
X166641780Y-97462340D01*
X166651940Y-97482660D01*
X166662100Y-97510600D01*
X166672260Y-97536000D01*
X166679880Y-97556320D01*
X166687500Y-97571560D01*
X166690040Y-97589340D01*
X166692580Y-97609660D01*
X166692580Y-97635060D01*
X166690040Y-97668080D01*
X166687500Y-97713800D01*
X166687500Y-97734120D01*
X166684960Y-97779840D01*
X166684960Y-97815400D01*
X166690040Y-97843340D01*
X166697660Y-97868740D01*
X166710360Y-97896680D01*
X166730680Y-97929700D01*
X166748460Y-97967800D01*
X166758620Y-97995740D01*
X166763700Y-98023680D01*
X166758620Y-98051620D01*
X166748460Y-98089720D01*
X166743380Y-98099880D01*
X166730680Y-98137980D01*
X166723060Y-98168460D01*
X166723060Y-98188780D01*
X166725600Y-98206560D01*
X166733220Y-98221800D01*
X166733220Y-98224340D01*
X166748460Y-98239580D01*
X166773860Y-98257360D01*
X166804340Y-98275140D01*
X166837360Y-98287840D01*
X166857680Y-98295460D01*
X166878000Y-98300540D01*
X166878000Y-98389440D01*
X166878000Y-98480880D01*
X166908480Y-98544380D01*
X166941500Y-98612960D01*
X166966900Y-98671380D01*
X166987220Y-98719640D01*
X166999920Y-98755200D01*
X167005000Y-98775520D01*
X167007540Y-98793300D01*
X167007540Y-98808540D01*
X166999920Y-98823780D01*
X166984680Y-98844100D01*
X166984680Y-98846640D01*
X166956740Y-98887280D01*
X166933880Y-98925380D01*
X166916100Y-98971100D01*
X166908480Y-98999040D01*
X166893240Y-99052380D01*
X166916100Y-99151440D01*
X166931340Y-99217480D01*
X166938960Y-99270820D01*
X166944040Y-99316540D01*
X166944040Y-99357180D01*
X166936420Y-99395280D01*
X166926260Y-99433380D01*
X166926260Y-99433380D01*
X166911020Y-99476560D01*
X166898320Y-99514660D01*
X166883080Y-99547680D01*
X166872920Y-99570540D01*
X166862760Y-99580700D01*
X166862760Y-99583240D01*
X166852600Y-99585780D01*
X166832280Y-99593400D01*
X166824660Y-99598480D01*
X166801800Y-99606100D01*
X166766240Y-99613720D01*
X166717980Y-99618800D01*
X166657020Y-99621340D01*
X166580820Y-99623880D01*
X166491920Y-99626420D01*
X166390320Y-99626420D01*
X166380160Y-99626420D01*
X166324280Y-99628960D01*
X166258240Y-99628960D01*
X166184580Y-99631500D01*
X166105840Y-99631500D01*
X166027100Y-99634040D01*
X165953440Y-99639120D01*
X165933120Y-99639120D01*
X165696900Y-99646740D01*
X165470840Y-99656900D01*
X165247320Y-99661980D01*
X165023800Y-99667060D01*
X164802820Y-99672140D01*
X164579300Y-99674680D01*
X164353240Y-99677220D01*
X164119560Y-99677220D01*
X163880800Y-99677220D01*
X163629340Y-99677220D01*
X163367720Y-99674680D01*
X163235640Y-99672140D01*
X163050220Y-99669600D01*
X162880040Y-99667060D01*
X162722560Y-99664520D01*
X162577780Y-99661980D01*
X162443160Y-99659440D01*
X162318700Y-99656900D01*
X162201860Y-99654360D01*
X162095180Y-99651820D01*
X161996120Y-99646740D01*
X161904680Y-99644200D01*
X161815780Y-99641660D01*
X161731960Y-99636580D01*
X161686240Y-99634040D01*
X161622740Y-99631500D01*
X161564320Y-99626420D01*
X161510980Y-99623880D01*
X161465260Y-99621340D01*
X161432240Y-99618800D01*
X161409380Y-99618800D01*
X161396680Y-99618800D01*
X161396680Y-99618800D01*
X161396680Y-99611180D01*
X161399220Y-99588320D01*
X161399220Y-99555300D01*
X161401760Y-99507040D01*
X161404300Y-99448620D01*
X161406840Y-99380040D01*
X161411920Y-99301300D01*
X161414460Y-99214940D01*
X161419540Y-99118420D01*
X161424620Y-99016820D01*
X161427160Y-98910140D01*
X161432240Y-98795840D01*
X161439860Y-98679000D01*
X161439860Y-98663760D01*
X161444940Y-98524060D01*
X161450020Y-98397060D01*
X161455100Y-98282760D01*
X161460180Y-98181160D01*
X161465260Y-98092260D01*
X161467800Y-98013520D01*
X161470340Y-97947480D01*
X161472880Y-97886520D01*
X161472880Y-97838260D01*
X161472880Y-97795080D01*
X161472880Y-97762060D01*
X161472880Y-97731580D01*
X161472880Y-97708720D01*
X161470340Y-97690940D01*
X161467800Y-97675700D01*
X161465260Y-97665540D01*
X161462720Y-97655380D01*
X161457640Y-97647760D01*
X161452560Y-97642680D01*
X161447480Y-97635060D01*
X161442400Y-97627440D01*
X161429700Y-97612200D01*
X161422080Y-97596960D01*
X161419540Y-97581720D01*
X161422080Y-97556320D01*
X161422080Y-97546160D01*
X161422080Y-97510600D01*
X161419540Y-97477580D01*
X161409380Y-97436940D01*
X161409380Y-97434400D01*
X161396680Y-97391220D01*
X161389060Y-97360740D01*
X161386520Y-97337880D01*
X161386520Y-97325180D01*
X161389060Y-97315020D01*
X161396680Y-97309940D01*
X161396680Y-97307400D01*
X161414460Y-97302320D01*
X161437320Y-97294700D01*
X161447480Y-97294700D01*
X161475420Y-97287080D01*
X161498280Y-97276920D01*
X161518600Y-97261680D01*
X161536380Y-97238820D01*
X161559240Y-97203260D01*
X161577020Y-97167700D01*
X161620200Y-97078800D01*
X161612580Y-97000060D01*
X161607500Y-96969580D01*
X161602420Y-96941640D01*
X161594800Y-96916240D01*
X161587180Y-96888300D01*
X161574480Y-96852740D01*
X161554160Y-96809560D01*
X161549080Y-96796860D01*
X161528760Y-96746060D01*
X161505900Y-96695260D01*
X161483040Y-96641920D01*
X161462720Y-96596200D01*
X161452560Y-96578420D01*
X161437320Y-96540320D01*
X161424620Y-96512380D01*
X161417000Y-96492060D01*
X161414460Y-96479360D01*
X161417000Y-96469200D01*
X161417000Y-96459040D01*
X161424620Y-96433640D01*
X161424620Y-96403160D01*
X161414460Y-96370140D01*
X161396680Y-96329500D01*
X161371280Y-96281240D01*
X161368740Y-96278700D01*
X161345880Y-96238060D01*
X161325560Y-96202500D01*
X161310320Y-96172020D01*
X161300160Y-96141540D01*
X161287460Y-96108520D01*
X161277300Y-96067880D01*
X161267140Y-96022160D01*
X161256980Y-95976440D01*
X161241740Y-95912940D01*
X161229040Y-95862140D01*
X161218880Y-95821500D01*
X161208720Y-95788480D01*
X161198560Y-95760540D01*
X161190940Y-95737680D01*
X161183320Y-95727520D01*
X161175700Y-95699580D01*
X161170620Y-95669100D01*
X161170620Y-95661480D01*
X161170620Y-96291400D01*
X161173160Y-96293940D01*
X161178240Y-96309180D01*
X161196020Y-96337120D01*
X161206180Y-96359980D01*
X161211260Y-96372680D01*
X161211260Y-96382840D01*
X161206180Y-96393000D01*
X161203640Y-96410780D01*
X161201100Y-96428560D01*
X161206180Y-96451420D01*
X161213800Y-96479360D01*
X161229040Y-96514920D01*
X161249360Y-96563180D01*
X161264600Y-96593660D01*
X161300160Y-96674940D01*
X161335720Y-96751140D01*
X161363660Y-96819720D01*
X161389060Y-96880680D01*
X161409380Y-96931480D01*
X161422080Y-96972120D01*
X161429700Y-97000060D01*
X161429700Y-97002600D01*
X161434780Y-97030540D01*
X161432240Y-97048320D01*
X161427160Y-97068640D01*
X161419540Y-97081340D01*
X161409380Y-97101660D01*
X161396680Y-97114360D01*
X161381440Y-97121980D01*
X161358580Y-97127060D01*
X161345880Y-97129600D01*
X161330640Y-97132140D01*
X161312860Y-97142300D01*
X161295080Y-97157540D01*
X161267140Y-97182940D01*
X161259520Y-97193100D01*
X161234120Y-97218500D01*
X161216340Y-97236280D01*
X161206180Y-97248980D01*
X161201100Y-97261680D01*
X161201100Y-97276920D01*
X161201100Y-97287080D01*
X161203640Y-97340420D01*
X161216340Y-97401380D01*
X161231580Y-97464880D01*
X161239200Y-97492820D01*
X161241740Y-97515680D01*
X161241740Y-97538540D01*
X161239200Y-97569020D01*
X161236660Y-97574100D01*
X161234120Y-97607120D01*
X161234120Y-97635060D01*
X161241740Y-97657920D01*
X161259520Y-97685860D01*
X161277300Y-97708720D01*
X161300160Y-97736660D01*
X161256980Y-98717100D01*
X161251900Y-98836480D01*
X161246820Y-98953320D01*
X161241740Y-99065080D01*
X161236660Y-99171760D01*
X161234120Y-99270820D01*
X161229040Y-99362260D01*
X161226500Y-99446080D01*
X161223960Y-99519740D01*
X161221420Y-99583240D01*
X161218880Y-99636580D01*
X161218880Y-99677220D01*
X161218880Y-99705160D01*
X161218880Y-99720400D01*
X161218880Y-99720400D01*
X161229040Y-99745800D01*
X161249360Y-99768660D01*
X161272220Y-99783900D01*
X161277300Y-99786440D01*
X161290000Y-99788980D01*
X161317940Y-99791520D01*
X161356040Y-99794060D01*
X161404300Y-99799140D01*
X161462720Y-99801680D01*
X161526220Y-99806760D01*
X161599880Y-99809300D01*
X161676080Y-99814380D01*
X161757360Y-99816920D01*
X161838640Y-99822000D01*
X161922460Y-99824540D01*
X162003740Y-99827080D01*
X162085020Y-99829620D01*
X162161220Y-99832160D01*
X162232340Y-99834700D01*
X162275520Y-99837240D01*
X162336480Y-99837240D01*
X162410140Y-99839780D01*
X162493960Y-99839780D01*
X162585400Y-99842320D01*
X162687000Y-99844860D01*
X162793680Y-99844860D01*
X162902900Y-99847400D01*
X163017200Y-99847400D01*
X163128960Y-99849940D01*
X163238180Y-99852480D01*
X163281360Y-99852480D01*
X163382960Y-99852480D01*
X163484560Y-99855020D01*
X163583620Y-99855020D01*
X163680140Y-99857560D01*
X163769040Y-99857560D01*
X163852860Y-99857560D01*
X163926520Y-99860100D01*
X163990020Y-99860100D01*
X164043360Y-99860100D01*
X164084000Y-99860100D01*
X164106860Y-99860100D01*
X164142420Y-99860100D01*
X164193220Y-99860100D01*
X164254180Y-99860100D01*
X164325300Y-99860100D01*
X164401500Y-99860100D01*
X164482780Y-99857560D01*
X164566600Y-99857560D01*
X164650420Y-99855020D01*
X164685980Y-99855020D01*
X164840920Y-99852480D01*
X164990780Y-99847400D01*
X165138100Y-99844860D01*
X165277800Y-99839780D01*
X165409880Y-99837240D01*
X165534340Y-99832160D01*
X165648640Y-99829620D01*
X165750240Y-99827080D01*
X165836600Y-99822000D01*
X165854380Y-99822000D01*
X165910260Y-99819460D01*
X165976300Y-99816920D01*
X166047420Y-99816920D01*
X166118540Y-99814380D01*
X166187120Y-99814380D01*
X166212520Y-99814380D01*
X166278560Y-99814380D01*
X166352220Y-99811840D01*
X166433500Y-99811840D01*
X166512240Y-99806760D01*
X166588440Y-99804220D01*
X166626540Y-99804220D01*
X166842440Y-99791520D01*
X166913560Y-99758500D01*
X166946580Y-99740720D01*
X166971980Y-99728020D01*
X166989760Y-99715320D01*
X166994840Y-99710240D01*
X167010080Y-99689920D01*
X167025320Y-99659440D01*
X167045640Y-99618800D01*
X167063420Y-99575620D01*
X167081200Y-99532440D01*
X167096440Y-99494340D01*
X167109140Y-99453700D01*
X167116760Y-99420680D01*
X167121840Y-99395280D01*
X167124380Y-99364800D01*
X167124380Y-99344480D01*
X167119300Y-99270820D01*
X167106600Y-99187000D01*
X167091360Y-99113340D01*
X167083740Y-99077780D01*
X167083740Y-99049840D01*
X167091360Y-99019360D01*
X167106600Y-98986340D01*
X167129460Y-98948240D01*
X167144700Y-98930460D01*
X167167560Y-98894900D01*
X167182800Y-98869500D01*
X167190420Y-98844100D01*
X167192960Y-98818700D01*
X167190420Y-98785680D01*
X167182800Y-98747580D01*
X167175180Y-98717100D01*
X167162480Y-98676460D01*
X167144700Y-98630740D01*
X167124380Y-98577400D01*
X167098980Y-98526600D01*
X167078660Y-98483420D01*
X167071040Y-98465640D01*
X167063420Y-98450400D01*
X167060880Y-98432620D01*
X167058340Y-98412300D01*
X167058340Y-98381820D01*
X167058340Y-98341180D01*
X167058340Y-98336100D01*
X167055800Y-98287840D01*
X167053260Y-98247200D01*
X167048180Y-98219260D01*
X167035480Y-98196400D01*
X167017700Y-98176080D01*
X166989760Y-98158300D01*
X166951660Y-98137980D01*
X166931340Y-98127820D01*
X166931340Y-98120200D01*
X166933880Y-98102420D01*
X166938960Y-98077020D01*
X166941500Y-98069400D01*
X166946580Y-98023680D01*
X166946580Y-97993200D01*
X166946580Y-97985580D01*
X166933880Y-97942400D01*
X166913560Y-97896680D01*
X166890700Y-97850960D01*
X166883080Y-97838260D01*
X166875460Y-97825560D01*
X166870380Y-97812860D01*
X166865300Y-97797620D01*
X166865300Y-97779840D01*
X166865300Y-97756980D01*
X166865300Y-97726500D01*
X166870380Y-97683320D01*
X166875460Y-97629980D01*
X166875460Y-97627440D01*
X166875460Y-97602040D01*
X166875460Y-97576640D01*
X166867840Y-97548700D01*
X166860220Y-97520760D01*
X166847520Y-97487740D01*
X166837360Y-97457260D01*
X166827200Y-97434400D01*
X166824660Y-97429320D01*
X166819580Y-97416620D01*
X166814500Y-97396300D01*
X166811960Y-97368360D01*
X166806880Y-97330260D01*
X166801800Y-97279460D01*
X166796720Y-97218500D01*
X166789100Y-97149920D01*
X166781480Y-97083880D01*
X166773860Y-97020380D01*
X166763700Y-96959420D01*
X166756080Y-96906080D01*
X166748460Y-96862900D01*
X166738300Y-96832420D01*
X166735760Y-96822260D01*
X166735760Y-96804480D01*
X166738300Y-96786700D01*
X166740840Y-96761300D01*
X166735760Y-96725740D01*
X166735760Y-96725740D01*
X166730680Y-96692720D01*
X166733220Y-96657160D01*
X166735760Y-96639380D01*
X166738300Y-96616520D01*
X166740840Y-96596200D01*
X166738300Y-96573340D01*
X166735760Y-96545400D01*
X166728140Y-96504760D01*
X166725600Y-96489520D01*
X166707820Y-96395540D01*
X166695120Y-96309180D01*
X166684960Y-96227900D01*
X166677340Y-96146620D01*
X166669720Y-96057720D01*
X166664640Y-95981520D01*
X166662100Y-95915480D01*
X166657020Y-95864680D01*
X166654480Y-95824040D01*
X166649400Y-95793560D01*
X166646860Y-95770700D01*
X166639240Y-95752920D01*
X166631620Y-95740220D01*
X166621460Y-95732600D01*
X166613840Y-95724980D01*
X166601140Y-95714820D01*
X166596060Y-95702120D01*
X166598600Y-95684340D01*
X166606220Y-95658940D01*
X166616380Y-95633540D01*
X166616380Y-95633540D01*
X166624000Y-95620840D01*
X166626540Y-95610680D01*
X166631620Y-95597980D01*
X166634160Y-95580200D01*
X166636700Y-95557340D01*
X166639240Y-95526860D01*
X166641780Y-95483680D01*
X166646860Y-95430340D01*
X166646860Y-95402400D01*
X166657020Y-95250000D01*
X166631620Y-95219520D01*
X166606220Y-95189040D01*
X166613840Y-95112840D01*
X166616380Y-95064580D01*
X166616380Y-95029020D01*
X166613840Y-95003620D01*
X166603680Y-94983300D01*
X166590980Y-94968060D01*
X166588440Y-94965520D01*
X166573200Y-94952820D01*
X166555420Y-94947740D01*
X166532560Y-94945200D01*
X166504620Y-94945200D01*
X166466520Y-94952820D01*
X166415720Y-94962980D01*
X166410640Y-94965520D01*
X166319200Y-94985840D01*
X166283640Y-94965520D01*
X166258240Y-94952820D01*
X166235380Y-94945200D01*
X166207440Y-94945200D01*
X166176960Y-94950280D01*
X166133780Y-94957900D01*
X166103300Y-94965520D01*
X166067740Y-94975680D01*
X166039800Y-94983300D01*
X166022020Y-94985840D01*
X166004240Y-94983300D01*
X165991540Y-94980760D01*
X165971220Y-94978220D01*
X165953440Y-94978220D01*
X165933120Y-94980760D01*
X165907720Y-94990920D01*
X165877240Y-95006160D01*
X165844220Y-95023940D01*
X165803580Y-95046800D01*
X165773100Y-95064580D01*
X165750240Y-95082360D01*
X165732460Y-95097600D01*
X165714680Y-95115380D01*
X165696900Y-95138240D01*
X165676580Y-95161100D01*
X165661340Y-95183960D01*
X165651180Y-95204280D01*
X165641020Y-95229680D01*
X165628320Y-95262700D01*
X165615620Y-95305880D01*
X165613080Y-95316040D01*
X165600380Y-95364300D01*
X165592760Y-95404940D01*
X165587680Y-95443040D01*
X165582600Y-95486220D01*
X165582600Y-95501460D01*
X165580060Y-95547180D01*
X165577520Y-95580200D01*
X165569900Y-95603060D01*
X165557200Y-95618300D01*
X165536880Y-95631000D01*
X165506400Y-95638620D01*
X165478460Y-95646240D01*
X165417500Y-95656400D01*
X165346380Y-95661480D01*
X165267640Y-95658940D01*
X165193980Y-95651320D01*
X165115240Y-95643700D01*
X165049200Y-95585280D01*
X165023800Y-95559880D01*
X164998400Y-95542100D01*
X164978080Y-95526860D01*
X164967920Y-95521780D01*
X164952680Y-95521780D01*
X164927280Y-95521780D01*
X164889180Y-95521780D01*
X164846000Y-95526860D01*
X164795200Y-95529400D01*
X164744400Y-95534480D01*
X164693600Y-95539560D01*
X164650420Y-95544640D01*
X164607240Y-95552260D01*
X164576760Y-95557340D01*
X164556440Y-95567500D01*
X164543740Y-95572580D01*
X164533580Y-95580200D01*
X164523420Y-95585280D01*
X164508180Y-95587820D01*
X164487860Y-95587820D01*
X164459920Y-95587820D01*
X164421820Y-95587820D01*
X164320220Y-95585280D01*
X164216080Y-95516700D01*
X164177980Y-95491300D01*
X164144960Y-95470980D01*
X164117020Y-95453200D01*
X164096700Y-95443040D01*
X164089080Y-95437960D01*
X164061140Y-95430340D01*
X164035740Y-95435420D01*
X164005260Y-95450660D01*
X163969700Y-95481140D01*
X163967160Y-95483680D01*
X163944300Y-95504000D01*
X163926520Y-95516700D01*
X163911280Y-95524320D01*
X163896040Y-95526860D01*
X163890960Y-95526860D01*
X163873180Y-95524320D01*
X163860480Y-95521780D01*
X163842700Y-95509080D01*
X163822380Y-95491300D01*
X163812220Y-95481140D01*
X163781740Y-95455740D01*
X163748720Y-95435420D01*
X163710620Y-95420180D01*
X163667440Y-95410020D01*
X163611560Y-95399860D01*
X163583620Y-95397320D01*
X163545520Y-95392240D01*
X163515040Y-95384620D01*
X163484560Y-95374460D01*
X163449000Y-95361760D01*
X163418520Y-95349060D01*
X163375340Y-95331280D01*
X163327080Y-95313500D01*
X163281360Y-95298260D01*
X163253420Y-95290640D01*
X163215320Y-95283020D01*
X163187380Y-95275400D01*
X163164520Y-95275400D01*
X163141660Y-95275400D01*
X163111180Y-95277940D01*
X163050220Y-95285560D01*
X162991800Y-95232220D01*
X162956240Y-95199200D01*
X162928300Y-95178880D01*
X162910520Y-95173800D01*
X162897820Y-95171260D01*
X162869880Y-95171260D01*
X162834320Y-95168720D01*
X162788600Y-95168720D01*
X162737800Y-95168720D01*
X162681920Y-95168720D01*
X162679380Y-95168720D01*
X162595560Y-95168720D01*
X162506660Y-95166180D01*
X162415220Y-95166180D01*
X162323780Y-95166180D01*
X162232340Y-95163640D01*
X162143440Y-95161100D01*
X162059620Y-95161100D01*
X161978340Y-95158560D01*
X161902140Y-95156020D01*
X161833560Y-95153480D01*
X161775140Y-95150940D01*
X161724340Y-95148400D01*
X161686240Y-95145860D01*
X161660840Y-95143320D01*
X161648140Y-95140780D01*
X161630360Y-95138240D01*
X161597340Y-95133160D01*
X161559240Y-95128080D01*
X161518600Y-95125540D01*
X161498280Y-95123000D01*
X161452560Y-95120460D01*
X161419540Y-95117920D01*
X161396680Y-95117920D01*
X161378900Y-95117920D01*
X161366200Y-95120460D01*
X161356040Y-95125540D01*
X161353500Y-95128080D01*
X161328100Y-95148400D01*
X161305240Y-95181420D01*
X161295080Y-95216980D01*
X161287460Y-95232220D01*
X161272220Y-95255080D01*
X161251900Y-95277940D01*
X161246820Y-95285560D01*
X161221420Y-95316040D01*
X161198560Y-95343980D01*
X161178240Y-95366840D01*
X161175700Y-95371920D01*
X161160460Y-95389700D01*
X161135060Y-95415100D01*
X161107120Y-95443040D01*
X161079180Y-95470980D01*
X161051240Y-95496380D01*
X161025840Y-95519240D01*
X161008060Y-95537020D01*
X160997900Y-95549720D01*
X160997900Y-95549720D01*
X160992820Y-95567500D01*
X160987740Y-95597980D01*
X160987740Y-95638620D01*
X160987740Y-95648780D01*
X160987740Y-95648780D01*
X160987740Y-95648780D01*
G37*
X160987740Y-95648780D02*
X160987740Y-95686880D01*
X160990280Y-95712280D01*
X160992820Y-95735140D01*
X160997900Y-95752920D01*
X161008060Y-95773240D01*
X161010600Y-95780860D01*
X161023300Y-95808800D01*
X161033460Y-95834200D01*
X161043620Y-95864680D01*
X161053780Y-95900240D01*
X161063940Y-95945960D01*
X161076640Y-95999300D01*
X161081720Y-96017080D01*
X161096960Y-96090740D01*
X161114740Y-96151700D01*
X161129980Y-96205040D01*
X161150300Y-96250760D01*
X161170620Y-96291400D01*
X161170620Y-95661480D01*
X161170620Y-95646240D01*
X161173160Y-95633540D01*
X161180780Y-95620840D01*
X161193480Y-95605600D01*
X161216340Y-95587820D01*
X161226500Y-95577660D01*
X161254440Y-95554800D01*
X161279840Y-95529400D01*
X161297620Y-95506540D01*
X161305240Y-95498920D01*
X161317940Y-95481140D01*
X161338260Y-95455740D01*
X161363660Y-95425260D01*
X161389060Y-95394780D01*
X161391600Y-95392240D01*
X161414460Y-95364300D01*
X161434780Y-95338900D01*
X161447480Y-95321120D01*
X161455100Y-95310960D01*
X161455100Y-95308420D01*
X161460180Y-95303340D01*
X161477960Y-95303340D01*
X161503360Y-95303340D01*
X161533840Y-95308420D01*
X161564320Y-95313500D01*
X161574480Y-95316040D01*
X161587180Y-95318580D01*
X161599880Y-95323660D01*
X161615120Y-95323660D01*
X161632900Y-95326200D01*
X161658300Y-95328740D01*
X161691320Y-95331280D01*
X161729420Y-95331280D01*
X161777680Y-95333820D01*
X161836100Y-95333820D01*
X161907220Y-95336360D01*
X161991040Y-95338900D01*
X162044380Y-95338900D01*
X162130740Y-95341440D01*
X162217100Y-95341440D01*
X162303460Y-95343980D01*
X162387280Y-95343980D01*
X162466020Y-95346520D01*
X162537140Y-95346520D01*
X162600640Y-95346520D01*
X162648900Y-95346520D01*
X162661600Y-95346520D01*
X162854640Y-95346520D01*
X162915600Y-95407480D01*
X162976560Y-95465900D01*
X163017200Y-95465900D01*
X163045140Y-95465900D01*
X163080700Y-95463360D01*
X163108640Y-95458280D01*
X163141660Y-95455740D01*
X163172140Y-95458280D01*
X163205160Y-95463360D01*
X163245800Y-95473520D01*
X163291520Y-95491300D01*
X163347400Y-95514160D01*
X163362640Y-95519240D01*
X163405820Y-95539560D01*
X163438840Y-95552260D01*
X163466780Y-95559880D01*
X163492180Y-95564960D01*
X163520120Y-95570040D01*
X163537900Y-95572580D01*
X163583620Y-95577660D01*
X163619180Y-95582740D01*
X163647120Y-95590360D01*
X163667440Y-95600520D01*
X163687760Y-95613220D01*
X163708080Y-95633540D01*
X163710620Y-95636080D01*
X163733480Y-95656400D01*
X163758880Y-95674180D01*
X163776660Y-95686880D01*
X163776660Y-95686880D01*
X163796980Y-95691960D01*
X163827460Y-95697040D01*
X163863020Y-95704660D01*
X163901120Y-95707200D01*
X163934140Y-95712280D01*
X163959540Y-95712280D01*
X163974780Y-95709740D01*
X163987480Y-95702120D01*
X164010340Y-95689420D01*
X164030660Y-95671640D01*
X164053520Y-95651320D01*
X164068760Y-95643700D01*
X164078920Y-95641160D01*
X164084000Y-95643700D01*
X164094160Y-95651320D01*
X164114480Y-95664020D01*
X164142420Y-95681800D01*
X164172900Y-95702120D01*
X164180520Y-95707200D01*
X164266880Y-95760540D01*
X164343080Y-95763080D01*
X164378640Y-95765620D01*
X164401500Y-95768160D01*
X164414200Y-95770700D01*
X164424360Y-95775780D01*
X164429440Y-95783400D01*
X164431980Y-95788480D01*
X164452300Y-95811340D01*
X164480240Y-95826580D01*
X164510720Y-95834200D01*
X164515800Y-95834200D01*
X164543740Y-95826580D01*
X164571680Y-95808800D01*
X164599620Y-95778320D01*
X164609780Y-95765620D01*
X164622480Y-95752920D01*
X164630100Y-95742760D01*
X164640260Y-95735140D01*
X164652960Y-95727520D01*
X164673280Y-95724980D01*
X164698680Y-95719900D01*
X164736780Y-95714820D01*
X164785040Y-95712280D01*
X164800280Y-95709740D01*
X164909500Y-95699580D01*
X164939980Y-95727520D01*
X164975540Y-95760540D01*
X165011100Y-95785940D01*
X165041580Y-95806260D01*
X165051740Y-95811340D01*
X165074600Y-95816420D01*
X165107620Y-95821500D01*
X165150800Y-95826580D01*
X165196520Y-95831660D01*
X165247320Y-95836740D01*
X165295580Y-95839280D01*
X165341300Y-95839280D01*
X165343840Y-95839280D01*
X165392100Y-95839280D01*
X165435280Y-95834200D01*
X165478460Y-95829120D01*
X165526720Y-95818960D01*
X165572440Y-95808800D01*
X165605460Y-95798640D01*
X165630860Y-95785940D01*
X165653720Y-95773240D01*
X165676580Y-95752920D01*
X165701980Y-95727520D01*
X165719760Y-95707200D01*
X165735000Y-95686880D01*
X165742620Y-95664020D01*
X165750240Y-95636080D01*
X165757860Y-95600520D01*
X165760400Y-95557340D01*
X165765480Y-95506540D01*
X165773100Y-95427800D01*
X165785800Y-95359220D01*
X165806120Y-95303340D01*
X165831520Y-95257620D01*
X165834060Y-95252540D01*
X165859460Y-95227140D01*
X165897560Y-95199200D01*
X165910260Y-95191580D01*
X165938200Y-95178880D01*
X165961060Y-95168720D01*
X165978840Y-95166180D01*
X166001700Y-95166180D01*
X166004240Y-95166180D01*
X166042340Y-95166180D01*
X166085520Y-95158560D01*
X166116000Y-95150940D01*
X166154100Y-95138240D01*
X166182040Y-95133160D01*
X166199820Y-95130620D01*
X166215060Y-95135700D01*
X166230300Y-95140780D01*
X166237920Y-95145860D01*
X166268400Y-95161100D01*
X166311580Y-95166180D01*
X166359840Y-95161100D01*
X166375080Y-95156020D01*
X166397940Y-95150940D01*
X166418260Y-95145860D01*
X166425880Y-95145860D01*
X166425880Y-95150940D01*
X166428420Y-95171260D01*
X166428420Y-95194120D01*
X166428420Y-95196660D01*
X166428420Y-95224600D01*
X166430960Y-95244920D01*
X166436040Y-95262700D01*
X166448740Y-95280480D01*
X166471600Y-95313500D01*
X166463980Y-95432880D01*
X166461440Y-95478600D01*
X166456360Y-95511620D01*
X166453820Y-95537020D01*
X166448740Y-95554800D01*
X166443660Y-95570040D01*
X166436040Y-95585280D01*
X166430960Y-95592900D01*
X166415720Y-95623380D01*
X166408100Y-95651320D01*
X166408100Y-95671640D01*
X166405560Y-95699580D01*
X166403020Y-95722440D01*
X166400480Y-95730060D01*
X166397940Y-95747840D01*
X166392860Y-95773240D01*
X166392860Y-95806260D01*
X166392860Y-95818960D01*
X166392860Y-95851980D01*
X166392860Y-95872300D01*
X166397940Y-95887540D01*
X166405560Y-95897700D01*
X166415720Y-95910400D01*
X166418260Y-95912940D01*
X166438580Y-95928180D01*
X166458900Y-95935800D01*
X166461440Y-95938340D01*
X166471600Y-95938340D01*
X166476680Y-95943420D01*
X166481760Y-95958660D01*
X166484300Y-95984060D01*
X166486840Y-96017080D01*
X166489380Y-96055180D01*
X166489380Y-96078040D01*
X166491920Y-96121220D01*
X166497000Y-96177100D01*
X166504620Y-96248220D01*
X166517320Y-96334580D01*
X166535100Y-96433640D01*
X166535100Y-96441260D01*
X166542720Y-96484440D01*
X166547800Y-96525080D01*
X166552880Y-96555560D01*
X166555420Y-96578420D01*
X166557960Y-96586040D01*
X166557960Y-96598740D01*
X166555420Y-96621600D01*
X166555420Y-96652080D01*
X166552880Y-96682560D01*
X166552880Y-96715580D01*
X166550340Y-96746060D01*
X166547800Y-96766380D01*
X166545260Y-96774000D01*
X166535100Y-96799400D01*
X166532560Y-96829880D01*
X166535100Y-96860360D01*
X166545260Y-96885760D01*
X166560500Y-96898460D01*
X166568120Y-96911160D01*
X166575740Y-96936560D01*
X166585900Y-96977200D01*
X166593520Y-97033080D01*
X166603680Y-97101660D01*
X166611300Y-97180400D01*
X166616380Y-97241360D01*
X166621460Y-97294700D01*
X166626540Y-97345500D01*
X166631620Y-97388680D01*
X166636700Y-97424240D01*
X166639240Y-97449640D01*
X166641780Y-97462340D01*
X166651940Y-97482660D01*
X166662100Y-97510600D01*
X166672260Y-97536000D01*
X166679880Y-97556320D01*
X166687500Y-97571560D01*
X166690040Y-97589340D01*
X166692580Y-97609660D01*
X166692580Y-97635060D01*
X166690040Y-97668080D01*
X166687500Y-97713800D01*
X166687500Y-97734120D01*
X166684960Y-97779840D01*
X166684960Y-97815400D01*
X166690040Y-97843340D01*
X166697660Y-97868740D01*
X166710360Y-97896680D01*
X166730680Y-97929700D01*
X166748460Y-97967800D01*
X166758620Y-97995740D01*
X166763700Y-98023680D01*
X166758620Y-98051620D01*
X166748460Y-98089720D01*
X166743380Y-98099880D01*
X166730680Y-98137980D01*
X166723060Y-98168460D01*
X166723060Y-98188780D01*
X166725600Y-98206560D01*
X166733220Y-98221800D01*
X166733220Y-98224340D01*
X166748460Y-98239580D01*
X166773860Y-98257360D01*
X166804340Y-98275140D01*
X166837360Y-98287840D01*
X166857680Y-98295460D01*
X166878000Y-98300540D01*
X166878000Y-98389440D01*
X166878000Y-98480880D01*
X166908480Y-98544380D01*
X166941500Y-98612960D01*
X166966900Y-98671380D01*
X166987220Y-98719640D01*
X166999920Y-98755200D01*
X167005000Y-98775520D01*
X167007540Y-98793300D01*
X167007540Y-98808540D01*
X166999920Y-98823780D01*
X166984680Y-98844100D01*
X166984680Y-98846640D01*
X166956740Y-98887280D01*
X166933880Y-98925380D01*
X166916100Y-98971100D01*
X166908480Y-98999040D01*
X166893240Y-99052380D01*
X166916100Y-99151440D01*
X166931340Y-99217480D01*
X166938960Y-99270820D01*
X166944040Y-99316540D01*
X166944040Y-99357180D01*
X166936420Y-99395280D01*
X166926260Y-99433380D01*
X166926260Y-99433380D01*
X166911020Y-99476560D01*
X166898320Y-99514660D01*
X166883080Y-99547680D01*
X166872920Y-99570540D01*
X166862760Y-99580700D01*
X166862760Y-99583240D01*
X166852600Y-99585780D01*
X166832280Y-99593400D01*
X166824660Y-99598480D01*
X166801800Y-99606100D01*
X166766240Y-99613720D01*
X166717980Y-99618800D01*
X166657020Y-99621340D01*
X166580820Y-99623880D01*
X166491920Y-99626420D01*
X166390320Y-99626420D01*
X166380160Y-99626420D01*
X166324280Y-99628960D01*
X166258240Y-99628960D01*
X166184580Y-99631500D01*
X166105840Y-99631500D01*
X166027100Y-99634040D01*
X165953440Y-99639120D01*
X165933120Y-99639120D01*
X165696900Y-99646740D01*
X165470840Y-99656900D01*
X165247320Y-99661980D01*
X165023800Y-99667060D01*
X164802820Y-99672140D01*
X164579300Y-99674680D01*
X164353240Y-99677220D01*
X164119560Y-99677220D01*
X163880800Y-99677220D01*
X163629340Y-99677220D01*
X163367720Y-99674680D01*
X163235640Y-99672140D01*
X163050220Y-99669600D01*
X162880040Y-99667060D01*
X162722560Y-99664520D01*
X162577780Y-99661980D01*
X162443160Y-99659440D01*
X162318700Y-99656900D01*
X162201860Y-99654360D01*
X162095180Y-99651820D01*
X161996120Y-99646740D01*
X161904680Y-99644200D01*
X161815780Y-99641660D01*
X161731960Y-99636580D01*
X161686240Y-99634040D01*
X161622740Y-99631500D01*
X161564320Y-99626420D01*
X161510980Y-99623880D01*
X161465260Y-99621340D01*
X161432240Y-99618800D01*
X161409380Y-99618800D01*
X161396680Y-99618800D01*
X161396680Y-99618800D01*
X161396680Y-99611180D01*
X161399220Y-99588320D01*
X161399220Y-99555300D01*
X161401760Y-99507040D01*
X161404300Y-99448620D01*
X161406840Y-99380040D01*
X161411920Y-99301300D01*
X161414460Y-99214940D01*
X161419540Y-99118420D01*
X161424620Y-99016820D01*
X161427160Y-98910140D01*
X161432240Y-98795840D01*
X161439860Y-98679000D01*
X161439860Y-98663760D01*
X161444940Y-98524060D01*
X161450020Y-98397060D01*
X161455100Y-98282760D01*
X161460180Y-98181160D01*
X161465260Y-98092260D01*
X161467800Y-98013520D01*
X161470340Y-97947480D01*
X161472880Y-97886520D01*
X161472880Y-97838260D01*
X161472880Y-97795080D01*
X161472880Y-97762060D01*
X161472880Y-97731580D01*
X161472880Y-97708720D01*
X161470340Y-97690940D01*
X161467800Y-97675700D01*
X161465260Y-97665540D01*
X161462720Y-97655380D01*
X161457640Y-97647760D01*
X161452560Y-97642680D01*
X161447480Y-97635060D01*
X161442400Y-97627440D01*
X161429700Y-97612200D01*
X161422080Y-97596960D01*
X161419540Y-97581720D01*
X161422080Y-97556320D01*
X161422080Y-97546160D01*
X161422080Y-97510600D01*
X161419540Y-97477580D01*
X161409380Y-97436940D01*
X161409380Y-97434400D01*
X161396680Y-97391220D01*
X161389060Y-97360740D01*
X161386520Y-97337880D01*
X161386520Y-97325180D01*
X161389060Y-97315020D01*
X161396680Y-97309940D01*
X161396680Y-97307400D01*
X161414460Y-97302320D01*
X161437320Y-97294700D01*
X161447480Y-97294700D01*
X161475420Y-97287080D01*
X161498280Y-97276920D01*
X161518600Y-97261680D01*
X161536380Y-97238820D01*
X161559240Y-97203260D01*
X161577020Y-97167700D01*
X161620200Y-97078800D01*
X161612580Y-97000060D01*
X161607500Y-96969580D01*
X161602420Y-96941640D01*
X161594800Y-96916240D01*
X161587180Y-96888300D01*
X161574480Y-96852740D01*
X161554160Y-96809560D01*
X161549080Y-96796860D01*
X161528760Y-96746060D01*
X161505900Y-96695260D01*
X161483040Y-96641920D01*
X161462720Y-96596200D01*
X161452560Y-96578420D01*
X161437320Y-96540320D01*
X161424620Y-96512380D01*
X161417000Y-96492060D01*
X161414460Y-96479360D01*
X161417000Y-96469200D01*
X161417000Y-96459040D01*
X161424620Y-96433640D01*
X161424620Y-96403160D01*
X161414460Y-96370140D01*
X161396680Y-96329500D01*
X161371280Y-96281240D01*
X161368740Y-96278700D01*
X161345880Y-96238060D01*
X161325560Y-96202500D01*
X161310320Y-96172020D01*
X161300160Y-96141540D01*
X161287460Y-96108520D01*
X161277300Y-96067880D01*
X161267140Y-96022160D01*
X161256980Y-95976440D01*
X161241740Y-95912940D01*
X161229040Y-95862140D01*
X161218880Y-95821500D01*
X161208720Y-95788480D01*
X161198560Y-95760540D01*
X161190940Y-95737680D01*
X161183320Y-95727520D01*
X161175700Y-95699580D01*
X161170620Y-95669100D01*
X161170620Y-95661480D01*
X161170620Y-96291400D01*
X161173160Y-96293940D01*
X161178240Y-96309180D01*
X161196020Y-96337120D01*
X161206180Y-96359980D01*
X161211260Y-96372680D01*
X161211260Y-96382840D01*
X161206180Y-96393000D01*
X161203640Y-96410780D01*
X161201100Y-96428560D01*
X161206180Y-96451420D01*
X161213800Y-96479360D01*
X161229040Y-96514920D01*
X161249360Y-96563180D01*
X161264600Y-96593660D01*
X161300160Y-96674940D01*
X161335720Y-96751140D01*
X161363660Y-96819720D01*
X161389060Y-96880680D01*
X161409380Y-96931480D01*
X161422080Y-96972120D01*
X161429700Y-97000060D01*
X161429700Y-97002600D01*
X161434780Y-97030540D01*
X161432240Y-97048320D01*
X161427160Y-97068640D01*
X161419540Y-97081340D01*
X161409380Y-97101660D01*
X161396680Y-97114360D01*
X161381440Y-97121980D01*
X161358580Y-97127060D01*
X161345880Y-97129600D01*
X161330640Y-97132140D01*
X161312860Y-97142300D01*
X161295080Y-97157540D01*
X161267140Y-97182940D01*
X161259520Y-97193100D01*
X161234120Y-97218500D01*
X161216340Y-97236280D01*
X161206180Y-97248980D01*
X161201100Y-97261680D01*
X161201100Y-97276920D01*
X161201100Y-97287080D01*
X161203640Y-97340420D01*
X161216340Y-97401380D01*
X161231580Y-97464880D01*
X161239200Y-97492820D01*
X161241740Y-97515680D01*
X161241740Y-97538540D01*
X161239200Y-97569020D01*
X161236660Y-97574100D01*
X161234120Y-97607120D01*
X161234120Y-97635060D01*
X161241740Y-97657920D01*
X161259520Y-97685860D01*
X161277300Y-97708720D01*
X161300160Y-97736660D01*
X161256980Y-98717100D01*
X161251900Y-98836480D01*
X161246820Y-98953320D01*
X161241740Y-99065080D01*
X161236660Y-99171760D01*
X161234120Y-99270820D01*
X161229040Y-99362260D01*
X161226500Y-99446080D01*
X161223960Y-99519740D01*
X161221420Y-99583240D01*
X161218880Y-99636580D01*
X161218880Y-99677220D01*
X161218880Y-99705160D01*
X161218880Y-99720400D01*
X161218880Y-99720400D01*
X161229040Y-99745800D01*
X161249360Y-99768660D01*
X161272220Y-99783900D01*
X161277300Y-99786440D01*
X161290000Y-99788980D01*
X161317940Y-99791520D01*
X161356040Y-99794060D01*
X161404300Y-99799140D01*
X161462720Y-99801680D01*
X161526220Y-99806760D01*
X161599880Y-99809300D01*
X161676080Y-99814380D01*
X161757360Y-99816920D01*
X161838640Y-99822000D01*
X161922460Y-99824540D01*
X162003740Y-99827080D01*
X162085020Y-99829620D01*
X162161220Y-99832160D01*
X162232340Y-99834700D01*
X162275520Y-99837240D01*
X162336480Y-99837240D01*
X162410140Y-99839780D01*
X162493960Y-99839780D01*
X162585400Y-99842320D01*
X162687000Y-99844860D01*
X162793680Y-99844860D01*
X162902900Y-99847400D01*
X163017200Y-99847400D01*
X163128960Y-99849940D01*
X163238180Y-99852480D01*
X163281360Y-99852480D01*
X163382960Y-99852480D01*
X163484560Y-99855020D01*
X163583620Y-99855020D01*
X163680140Y-99857560D01*
X163769040Y-99857560D01*
X163852860Y-99857560D01*
X163926520Y-99860100D01*
X163990020Y-99860100D01*
X164043360Y-99860100D01*
X164084000Y-99860100D01*
X164106860Y-99860100D01*
X164142420Y-99860100D01*
X164193220Y-99860100D01*
X164254180Y-99860100D01*
X164325300Y-99860100D01*
X164401500Y-99860100D01*
X164482780Y-99857560D01*
X164566600Y-99857560D01*
X164650420Y-99855020D01*
X164685980Y-99855020D01*
X164840920Y-99852480D01*
X164990780Y-99847400D01*
X165138100Y-99844860D01*
X165277800Y-99839780D01*
X165409880Y-99837240D01*
X165534340Y-99832160D01*
X165648640Y-99829620D01*
X165750240Y-99827080D01*
X165836600Y-99822000D01*
X165854380Y-99822000D01*
X165910260Y-99819460D01*
X165976300Y-99816920D01*
X166047420Y-99816920D01*
X166118540Y-99814380D01*
X166187120Y-99814380D01*
X166212520Y-99814380D01*
X166278560Y-99814380D01*
X166352220Y-99811840D01*
X166433500Y-99811840D01*
X166512240Y-99806760D01*
X166588440Y-99804220D01*
X166626540Y-99804220D01*
X166842440Y-99791520D01*
X166913560Y-99758500D01*
X166946580Y-99740720D01*
X166971980Y-99728020D01*
X166989760Y-99715320D01*
X166994840Y-99710240D01*
X167010080Y-99689920D01*
X167025320Y-99659440D01*
X167045640Y-99618800D01*
X167063420Y-99575620D01*
X167081200Y-99532440D01*
X167096440Y-99494340D01*
X167109140Y-99453700D01*
X167116760Y-99420680D01*
X167121840Y-99395280D01*
X167124380Y-99364800D01*
X167124380Y-99344480D01*
X167119300Y-99270820D01*
X167106600Y-99187000D01*
X167091360Y-99113340D01*
X167083740Y-99077780D01*
X167083740Y-99049840D01*
X167091360Y-99019360D01*
X167106600Y-98986340D01*
X167129460Y-98948240D01*
X167144700Y-98930460D01*
X167167560Y-98894900D01*
X167182800Y-98869500D01*
X167190420Y-98844100D01*
X167192960Y-98818700D01*
X167190420Y-98785680D01*
X167182800Y-98747580D01*
X167175180Y-98717100D01*
X167162480Y-98676460D01*
X167144700Y-98630740D01*
X167124380Y-98577400D01*
X167098980Y-98526600D01*
X167078660Y-98483420D01*
X167071040Y-98465640D01*
X167063420Y-98450400D01*
X167060880Y-98432620D01*
X167058340Y-98412300D01*
X167058340Y-98381820D01*
X167058340Y-98341180D01*
X167058340Y-98336100D01*
X167055800Y-98287840D01*
X167053260Y-98247200D01*
X167048180Y-98219260D01*
X167035480Y-98196400D01*
X167017700Y-98176080D01*
X166989760Y-98158300D01*
X166951660Y-98137980D01*
X166931340Y-98127820D01*
X166931340Y-98120200D01*
X166933880Y-98102420D01*
X166938960Y-98077020D01*
X166941500Y-98069400D01*
X166946580Y-98023680D01*
X166946580Y-97993200D01*
X166946580Y-97985580D01*
X166933880Y-97942400D01*
X166913560Y-97896680D01*
X166890700Y-97850960D01*
X166883080Y-97838260D01*
X166875460Y-97825560D01*
X166870380Y-97812860D01*
X166865300Y-97797620D01*
X166865300Y-97779840D01*
X166865300Y-97756980D01*
X166865300Y-97726500D01*
X166870380Y-97683320D01*
X166875460Y-97629980D01*
X166875460Y-97627440D01*
X166875460Y-97602040D01*
X166875460Y-97576640D01*
X166867840Y-97548700D01*
X166860220Y-97520760D01*
X166847520Y-97487740D01*
X166837360Y-97457260D01*
X166827200Y-97434400D01*
X166824660Y-97429320D01*
X166819580Y-97416620D01*
X166814500Y-97396300D01*
X166811960Y-97368360D01*
X166806880Y-97330260D01*
X166801800Y-97279460D01*
X166796720Y-97218500D01*
X166789100Y-97149920D01*
X166781480Y-97083880D01*
X166773860Y-97020380D01*
X166763700Y-96959420D01*
X166756080Y-96906080D01*
X166748460Y-96862900D01*
X166738300Y-96832420D01*
X166735760Y-96822260D01*
X166735760Y-96804480D01*
X166738300Y-96786700D01*
X166740840Y-96761300D01*
X166735760Y-96725740D01*
X166735760Y-96725740D01*
X166730680Y-96692720D01*
X166733220Y-96657160D01*
X166735760Y-96639380D01*
X166738300Y-96616520D01*
X166740840Y-96596200D01*
X166738300Y-96573340D01*
X166735760Y-96545400D01*
X166728140Y-96504760D01*
X166725600Y-96489520D01*
X166707820Y-96395540D01*
X166695120Y-96309180D01*
X166684960Y-96227900D01*
X166677340Y-96146620D01*
X166669720Y-96057720D01*
X166664640Y-95981520D01*
X166662100Y-95915480D01*
X166657020Y-95864680D01*
X166654480Y-95824040D01*
X166649400Y-95793560D01*
X166646860Y-95770700D01*
X166639240Y-95752920D01*
X166631620Y-95740220D01*
X166621460Y-95732600D01*
X166613840Y-95724980D01*
X166601140Y-95714820D01*
X166596060Y-95702120D01*
X166598600Y-95684340D01*
X166606220Y-95658940D01*
X166616380Y-95633540D01*
X166616380Y-95633540D01*
X166624000Y-95620840D01*
X166626540Y-95610680D01*
X166631620Y-95597980D01*
X166634160Y-95580200D01*
X166636700Y-95557340D01*
X166639240Y-95526860D01*
X166641780Y-95483680D01*
X166646860Y-95430340D01*
X166646860Y-95402400D01*
X166657020Y-95250000D01*
X166631620Y-95219520D01*
X166606220Y-95189040D01*
X166613840Y-95112840D01*
X166616380Y-95064580D01*
X166616380Y-95029020D01*
X166613840Y-95003620D01*
X166603680Y-94983300D01*
X166590980Y-94968060D01*
X166588440Y-94965520D01*
X166573200Y-94952820D01*
X166555420Y-94947740D01*
X166532560Y-94945200D01*
X166504620Y-94945200D01*
X166466520Y-94952820D01*
X166415720Y-94962980D01*
X166410640Y-94965520D01*
X166319200Y-94985840D01*
X166283640Y-94965520D01*
X166258240Y-94952820D01*
X166235380Y-94945200D01*
X166207440Y-94945200D01*
X166176960Y-94950280D01*
X166133780Y-94957900D01*
X166103300Y-94965520D01*
X166067740Y-94975680D01*
X166039800Y-94983300D01*
X166022020Y-94985840D01*
X166004240Y-94983300D01*
X165991540Y-94980760D01*
X165971220Y-94978220D01*
X165953440Y-94978220D01*
X165933120Y-94980760D01*
X165907720Y-94990920D01*
X165877240Y-95006160D01*
X165844220Y-95023940D01*
X165803580Y-95046800D01*
X165773100Y-95064580D01*
X165750240Y-95082360D01*
X165732460Y-95097600D01*
X165714680Y-95115380D01*
X165696900Y-95138240D01*
X165676580Y-95161100D01*
X165661340Y-95183960D01*
X165651180Y-95204280D01*
X165641020Y-95229680D01*
X165628320Y-95262700D01*
X165615620Y-95305880D01*
X165613080Y-95316040D01*
X165600380Y-95364300D01*
X165592760Y-95404940D01*
X165587680Y-95443040D01*
X165582600Y-95486220D01*
X165582600Y-95501460D01*
X165580060Y-95547180D01*
X165577520Y-95580200D01*
X165569900Y-95603060D01*
X165557200Y-95618300D01*
X165536880Y-95631000D01*
X165506400Y-95638620D01*
X165478460Y-95646240D01*
X165417500Y-95656400D01*
X165346380Y-95661480D01*
X165267640Y-95658940D01*
X165193980Y-95651320D01*
X165115240Y-95643700D01*
X165049200Y-95585280D01*
X165023800Y-95559880D01*
X164998400Y-95542100D01*
X164978080Y-95526860D01*
X164967920Y-95521780D01*
X164952680Y-95521780D01*
X164927280Y-95521780D01*
X164889180Y-95521780D01*
X164846000Y-95526860D01*
X164795200Y-95529400D01*
X164744400Y-95534480D01*
X164693600Y-95539560D01*
X164650420Y-95544640D01*
X164607240Y-95552260D01*
X164576760Y-95557340D01*
X164556440Y-95567500D01*
X164543740Y-95572580D01*
X164533580Y-95580200D01*
X164523420Y-95585280D01*
X164508180Y-95587820D01*
X164487860Y-95587820D01*
X164459920Y-95587820D01*
X164421820Y-95587820D01*
X164320220Y-95585280D01*
X164216080Y-95516700D01*
X164177980Y-95491300D01*
X164144960Y-95470980D01*
X164117020Y-95453200D01*
X164096700Y-95443040D01*
X164089080Y-95437960D01*
X164061140Y-95430340D01*
X164035740Y-95435420D01*
X164005260Y-95450660D01*
X163969700Y-95481140D01*
X163967160Y-95483680D01*
X163944300Y-95504000D01*
X163926520Y-95516700D01*
X163911280Y-95524320D01*
X163896040Y-95526860D01*
X163890960Y-95526860D01*
X163873180Y-95524320D01*
X163860480Y-95521780D01*
X163842700Y-95509080D01*
X163822380Y-95491300D01*
X163812220Y-95481140D01*
X163781740Y-95455740D01*
X163748720Y-95435420D01*
X163710620Y-95420180D01*
X163667440Y-95410020D01*
X163611560Y-95399860D01*
X163583620Y-95397320D01*
X163545520Y-95392240D01*
X163515040Y-95384620D01*
X163484560Y-95374460D01*
X163449000Y-95361760D01*
X163418520Y-95349060D01*
X163375340Y-95331280D01*
X163327080Y-95313500D01*
X163281360Y-95298260D01*
X163253420Y-95290640D01*
X163215320Y-95283020D01*
X163187380Y-95275400D01*
X163164520Y-95275400D01*
X163141660Y-95275400D01*
X163111180Y-95277940D01*
X163050220Y-95285560D01*
X162991800Y-95232220D01*
X162956240Y-95199200D01*
X162928300Y-95178880D01*
X162910520Y-95173800D01*
X162897820Y-95171260D01*
X162869880Y-95171260D01*
X162834320Y-95168720D01*
X162788600Y-95168720D01*
X162737800Y-95168720D01*
X162681920Y-95168720D01*
X162679380Y-95168720D01*
X162595560Y-95168720D01*
X162506660Y-95166180D01*
X162415220Y-95166180D01*
X162323780Y-95166180D01*
X162232340Y-95163640D01*
X162143440Y-95161100D01*
X162059620Y-95161100D01*
X161978340Y-95158560D01*
X161902140Y-95156020D01*
X161833560Y-95153480D01*
X161775140Y-95150940D01*
X161724340Y-95148400D01*
X161686240Y-95145860D01*
X161660840Y-95143320D01*
X161648140Y-95140780D01*
X161630360Y-95138240D01*
X161597340Y-95133160D01*
X161559240Y-95128080D01*
X161518600Y-95125540D01*
X161498280Y-95123000D01*
X161452560Y-95120460D01*
X161419540Y-95117920D01*
X161396680Y-95117920D01*
X161378900Y-95117920D01*
X161366200Y-95120460D01*
X161356040Y-95125540D01*
X161353500Y-95128080D01*
X161328100Y-95148400D01*
X161305240Y-95181420D01*
X161295080Y-95216980D01*
X161287460Y-95232220D01*
X161272220Y-95255080D01*
X161251900Y-95277940D01*
X161246820Y-95285560D01*
X161221420Y-95316040D01*
X161198560Y-95343980D01*
X161178240Y-95366840D01*
X161175700Y-95371920D01*
X161160460Y-95389700D01*
X161135060Y-95415100D01*
X161107120Y-95443040D01*
X161079180Y-95470980D01*
X161051240Y-95496380D01*
X161025840Y-95519240D01*
X161008060Y-95537020D01*
X160997900Y-95549720D01*
X160997900Y-95549720D01*
X160992820Y-95567500D01*
X160987740Y-95597980D01*
X160987740Y-95638620D01*
X160987740Y-95648780D01*
X160987740Y-95648780D01*
G36*
X163413440Y-98112580D02*
X163413440Y-98130360D01*
X163415980Y-98135440D01*
X163418520Y-98155760D01*
X163428680Y-98183700D01*
X163441380Y-98216720D01*
X163451540Y-98242120D01*
X163469320Y-98285300D01*
X163482020Y-98318320D01*
X163489640Y-98341180D01*
X163492180Y-98358960D01*
X163487100Y-98374200D01*
X163482020Y-98386900D01*
X163466780Y-98404680D01*
X163451540Y-98419920D01*
X163438840Y-98432620D01*
X163436300Y-98445320D01*
X163441380Y-98460560D01*
X163459160Y-98480880D01*
X163461700Y-98485960D01*
X163484560Y-98511360D01*
X163499800Y-98534220D01*
X163509960Y-98554540D01*
X163515040Y-98582480D01*
X163520120Y-98615500D01*
X163522660Y-98658680D01*
X163522660Y-98671380D01*
X163522660Y-98724720D01*
X163522660Y-98775520D01*
X163517580Y-98828860D01*
X163512500Y-98887280D01*
X163502340Y-98955860D01*
X163492180Y-99032060D01*
X163484560Y-99070160D01*
X163476940Y-99126040D01*
X163469320Y-99169220D01*
X163466780Y-99202240D01*
X163464240Y-99225100D01*
X163466780Y-99242880D01*
X163469320Y-99255580D01*
X163474400Y-99265740D01*
X163474400Y-99268280D01*
X163482020Y-99275900D01*
X163489640Y-99278440D01*
X163502340Y-99280980D01*
X163522660Y-99283520D01*
X163553140Y-99283520D01*
X163570920Y-99283520D01*
X163606480Y-99283520D01*
X163624260Y-99280980D01*
X163624260Y-98351340D01*
X163631880Y-98305620D01*
X163647120Y-98262440D01*
X163669980Y-98226880D01*
X163675060Y-98219260D01*
X163700460Y-98204020D01*
X163730940Y-98201480D01*
X163761420Y-98209100D01*
X163791900Y-98226880D01*
X163822380Y-98254820D01*
X163847780Y-98287840D01*
X163865560Y-98328480D01*
X163870640Y-98338640D01*
X163875720Y-98361500D01*
X163880800Y-98389440D01*
X163885880Y-98419920D01*
X163890960Y-98450400D01*
X163893500Y-98478340D01*
X163896040Y-98496120D01*
X163893500Y-98506280D01*
X163883340Y-98508820D01*
X163863020Y-98513900D01*
X163835080Y-98518980D01*
X163804600Y-98521520D01*
X163776660Y-98524060D01*
X163753800Y-98526600D01*
X163743640Y-98526600D01*
X163720780Y-98518980D01*
X163695380Y-98503740D01*
X163685220Y-98493580D01*
X163664900Y-98470720D01*
X163647120Y-98447860D01*
X163642040Y-98435160D01*
X163626800Y-98397060D01*
X163624260Y-98351340D01*
X163624260Y-99280980D01*
X163639500Y-99280980D01*
X163662360Y-99280980D01*
X163672520Y-99278440D01*
X163710620Y-99270820D01*
X163753800Y-99260660D01*
X163799520Y-99245420D01*
X163840160Y-99232720D01*
X163870640Y-99217480D01*
X163875720Y-99217480D01*
X163913820Y-99194620D01*
X163949380Y-99166680D01*
X163979860Y-99136200D01*
X164000180Y-99108260D01*
X164012880Y-99082860D01*
X164012880Y-99060000D01*
X164012880Y-99060000D01*
X164000180Y-99039680D01*
X163979860Y-99021900D01*
X163959540Y-99014280D01*
X163959540Y-99014280D01*
X163944300Y-99021900D01*
X163921440Y-99037140D01*
X163888420Y-99065080D01*
X163883340Y-99067620D01*
X163840160Y-99105720D01*
X163796980Y-99133660D01*
X163753800Y-99153980D01*
X163713160Y-99166680D01*
X163680140Y-99171760D01*
X163652200Y-99164140D01*
X163644580Y-99159060D01*
X163634420Y-99151440D01*
X163631880Y-99143820D01*
X163631880Y-99128580D01*
X163636960Y-99105720D01*
X163639500Y-99103180D01*
X163642040Y-99082860D01*
X163647120Y-99052380D01*
X163652200Y-99011740D01*
X163654740Y-98960940D01*
X163659820Y-98894900D01*
X163664900Y-98818700D01*
X163669980Y-98727260D01*
X163672520Y-98701860D01*
X163677600Y-98610420D01*
X163812220Y-98610420D01*
X163870640Y-98610420D01*
X163913820Y-98610420D01*
X163949380Y-98607880D01*
X163977320Y-98600260D01*
X163997640Y-98592640D01*
X164015420Y-98577400D01*
X164033200Y-98562160D01*
X164038280Y-98557080D01*
X164053520Y-98536760D01*
X164058600Y-98524060D01*
X164058600Y-98503740D01*
X164056060Y-98493580D01*
X164040820Y-98407220D01*
X164015420Y-98331020D01*
X163982400Y-98264980D01*
X163941760Y-98209100D01*
X163931600Y-98198940D01*
X163896040Y-98165920D01*
X163860480Y-98143060D01*
X163819840Y-98122740D01*
X163786820Y-98110040D01*
X163753800Y-98097340D01*
X163720780Y-98082100D01*
X163705540Y-98074480D01*
X163664900Y-98051620D01*
X163636960Y-98074480D01*
X163614100Y-98092260D01*
X163593780Y-98104960D01*
X163570920Y-98107500D01*
X163542980Y-98104960D01*
X163509960Y-98099880D01*
X163476940Y-98092260D01*
X163454080Y-98092260D01*
X163438840Y-98092260D01*
X163428680Y-98094800D01*
X163415980Y-98102420D01*
X163413440Y-98112580D01*
X163413440Y-98112580D01*
X163413440Y-98112580D01*
G37*
X163413440Y-98112580D02*
X163413440Y-98130360D01*
X163415980Y-98135440D01*
X163418520Y-98155760D01*
X163428680Y-98183700D01*
X163441380Y-98216720D01*
X163451540Y-98242120D01*
X163469320Y-98285300D01*
X163482020Y-98318320D01*
X163489640Y-98341180D01*
X163492180Y-98358960D01*
X163487100Y-98374200D01*
X163482020Y-98386900D01*
X163466780Y-98404680D01*
X163451540Y-98419920D01*
X163438840Y-98432620D01*
X163436300Y-98445320D01*
X163441380Y-98460560D01*
X163459160Y-98480880D01*
X163461700Y-98485960D01*
X163484560Y-98511360D01*
X163499800Y-98534220D01*
X163509960Y-98554540D01*
X163515040Y-98582480D01*
X163520120Y-98615500D01*
X163522660Y-98658680D01*
X163522660Y-98671380D01*
X163522660Y-98724720D01*
X163522660Y-98775520D01*
X163517580Y-98828860D01*
X163512500Y-98887280D01*
X163502340Y-98955860D01*
X163492180Y-99032060D01*
X163484560Y-99070160D01*
X163476940Y-99126040D01*
X163469320Y-99169220D01*
X163466780Y-99202240D01*
X163464240Y-99225100D01*
X163466780Y-99242880D01*
X163469320Y-99255580D01*
X163474400Y-99265740D01*
X163474400Y-99268280D01*
X163482020Y-99275900D01*
X163489640Y-99278440D01*
X163502340Y-99280980D01*
X163522660Y-99283520D01*
X163553140Y-99283520D01*
X163570920Y-99283520D01*
X163606480Y-99283520D01*
X163624260Y-99280980D01*
X163624260Y-98351340D01*
X163631880Y-98305620D01*
X163647120Y-98262440D01*
X163669980Y-98226880D01*
X163675060Y-98219260D01*
X163700460Y-98204020D01*
X163730940Y-98201480D01*
X163761420Y-98209100D01*
X163791900Y-98226880D01*
X163822380Y-98254820D01*
X163847780Y-98287840D01*
X163865560Y-98328480D01*
X163870640Y-98338640D01*
X163875720Y-98361500D01*
X163880800Y-98389440D01*
X163885880Y-98419920D01*
X163890960Y-98450400D01*
X163893500Y-98478340D01*
X163896040Y-98496120D01*
X163893500Y-98506280D01*
X163883340Y-98508820D01*
X163863020Y-98513900D01*
X163835080Y-98518980D01*
X163804600Y-98521520D01*
X163776660Y-98524060D01*
X163753800Y-98526600D01*
X163743640Y-98526600D01*
X163720780Y-98518980D01*
X163695380Y-98503740D01*
X163685220Y-98493580D01*
X163664900Y-98470720D01*
X163647120Y-98447860D01*
X163642040Y-98435160D01*
X163626800Y-98397060D01*
X163624260Y-98351340D01*
X163624260Y-99280980D01*
X163639500Y-99280980D01*
X163662360Y-99280980D01*
X163672520Y-99278440D01*
X163710620Y-99270820D01*
X163753800Y-99260660D01*
X163799520Y-99245420D01*
X163840160Y-99232720D01*
X163870640Y-99217480D01*
X163875720Y-99217480D01*
X163913820Y-99194620D01*
X163949380Y-99166680D01*
X163979860Y-99136200D01*
X164000180Y-99108260D01*
X164012880Y-99082860D01*
X164012880Y-99060000D01*
X164012880Y-99060000D01*
X164000180Y-99039680D01*
X163979860Y-99021900D01*
X163959540Y-99014280D01*
X163959540Y-99014280D01*
X163944300Y-99021900D01*
X163921440Y-99037140D01*
X163888420Y-99065080D01*
X163883340Y-99067620D01*
X163840160Y-99105720D01*
X163796980Y-99133660D01*
X163753800Y-99153980D01*
X163713160Y-99166680D01*
X163680140Y-99171760D01*
X163652200Y-99164140D01*
X163644580Y-99159060D01*
X163634420Y-99151440D01*
X163631880Y-99143820D01*
X163631880Y-99128580D01*
X163636960Y-99105720D01*
X163639500Y-99103180D01*
X163642040Y-99082860D01*
X163647120Y-99052380D01*
X163652200Y-99011740D01*
X163654740Y-98960940D01*
X163659820Y-98894900D01*
X163664900Y-98818700D01*
X163669980Y-98727260D01*
X163672520Y-98701860D01*
X163677600Y-98610420D01*
X163812220Y-98610420D01*
X163870640Y-98610420D01*
X163913820Y-98610420D01*
X163949380Y-98607880D01*
X163977320Y-98600260D01*
X163997640Y-98592640D01*
X164015420Y-98577400D01*
X164033200Y-98562160D01*
X164038280Y-98557080D01*
X164053520Y-98536760D01*
X164058600Y-98524060D01*
X164058600Y-98503740D01*
X164056060Y-98493580D01*
X164040820Y-98407220D01*
X164015420Y-98331020D01*
X163982400Y-98264980D01*
X163941760Y-98209100D01*
X163931600Y-98198940D01*
X163896040Y-98165920D01*
X163860480Y-98143060D01*
X163819840Y-98122740D01*
X163786820Y-98110040D01*
X163753800Y-98097340D01*
X163720780Y-98082100D01*
X163705540Y-98074480D01*
X163664900Y-98051620D01*
X163636960Y-98074480D01*
X163614100Y-98092260D01*
X163593780Y-98104960D01*
X163570920Y-98107500D01*
X163542980Y-98104960D01*
X163509960Y-98099880D01*
X163476940Y-98092260D01*
X163454080Y-98092260D01*
X163438840Y-98092260D01*
X163428680Y-98094800D01*
X163415980Y-98102420D01*
X163413440Y-98112580D01*
X163413440Y-98112580D01*
G36*
X161604960Y-98963480D02*
X161612580Y-98973640D01*
X161612580Y-98976180D01*
X161630360Y-98983800D01*
X161658300Y-98988880D01*
X161693860Y-98991420D01*
X161734500Y-98988880D01*
X161775140Y-98986340D01*
X161792920Y-98981260D01*
X161838640Y-98971100D01*
X161886900Y-98955860D01*
X161930080Y-98935540D01*
X161965640Y-98915220D01*
X161988500Y-98899980D01*
X162003740Y-98887280D01*
X162011360Y-98874580D01*
X162016440Y-98854260D01*
X162021520Y-98828860D01*
X162024060Y-98821240D01*
X162026600Y-98765360D01*
X162021520Y-98709480D01*
X162008820Y-98645980D01*
X161985960Y-98574860D01*
X161980880Y-98557080D01*
X161952940Y-98475800D01*
X161932620Y-98404680D01*
X161919920Y-98341180D01*
X161914840Y-98282760D01*
X161914840Y-98275140D01*
X161917380Y-98226880D01*
X161925000Y-98188780D01*
X161937700Y-98165920D01*
X161958020Y-98155760D01*
X161983420Y-98160840D01*
X161988500Y-98160840D01*
X162006280Y-98173540D01*
X162034220Y-98193860D01*
X162064700Y-98219260D01*
X162097720Y-98247200D01*
X162130740Y-98277680D01*
X162161220Y-98305620D01*
X162168840Y-98315780D01*
X162242500Y-98402140D01*
X162300920Y-98493580D01*
X162346640Y-98585020D01*
X162377120Y-98679000D01*
X162387280Y-98742500D01*
X162392360Y-98772980D01*
X162399980Y-98800920D01*
X162407600Y-98818700D01*
X162407600Y-98818700D01*
X162415220Y-98828860D01*
X162422840Y-98831400D01*
X162438080Y-98833940D01*
X162460940Y-98831400D01*
X162491420Y-98826320D01*
X162526980Y-98821240D01*
X162565080Y-98813620D01*
X162570160Y-98732340D01*
X162572700Y-98689160D01*
X162572700Y-98638360D01*
X162575240Y-98590100D01*
X162575240Y-98569780D01*
X162575240Y-98521520D01*
X162577780Y-98473260D01*
X162582860Y-98425000D01*
X162587940Y-98371660D01*
X162598100Y-98308160D01*
X162608260Y-98237040D01*
X162615880Y-98191320D01*
X162623500Y-98145600D01*
X162628580Y-98104960D01*
X162633660Y-98069400D01*
X162636200Y-98046540D01*
X162636200Y-98033840D01*
X162636200Y-98031300D01*
X162626040Y-98023680D01*
X162608260Y-98021140D01*
X162582860Y-98026220D01*
X162557460Y-98038920D01*
X162537140Y-98054160D01*
X162519360Y-98074480D01*
X162504120Y-98102420D01*
X162488880Y-98140520D01*
X162473640Y-98188780D01*
X162460940Y-98252280D01*
X162458400Y-98257360D01*
X162445700Y-98310700D01*
X162438080Y-98353880D01*
X162427920Y-98384360D01*
X162422840Y-98404680D01*
X162417760Y-98417380D01*
X162412680Y-98422460D01*
X162407600Y-98425000D01*
X162407600Y-98425000D01*
X162399980Y-98419920D01*
X162382200Y-98404680D01*
X162356800Y-98384360D01*
X162326320Y-98356420D01*
X162290760Y-98323400D01*
X162252660Y-98285300D01*
X162250120Y-98282760D01*
X162184080Y-98219260D01*
X162128200Y-98168460D01*
X162082480Y-98125280D01*
X162041840Y-98092260D01*
X162006280Y-98066860D01*
X161978340Y-98049080D01*
X161952940Y-98038920D01*
X161930080Y-98033840D01*
X161907220Y-98036380D01*
X161884360Y-98041460D01*
X161861500Y-98054160D01*
X161841180Y-98066860D01*
X161815780Y-98084640D01*
X161798000Y-98102420D01*
X161787840Y-98127820D01*
X161780220Y-98158300D01*
X161777680Y-98198940D01*
X161775140Y-98244660D01*
X161777680Y-98313240D01*
X161782760Y-98371660D01*
X161795460Y-98422460D01*
X161813240Y-98475800D01*
X161820860Y-98496120D01*
X161843720Y-98557080D01*
X161861500Y-98618040D01*
X161871660Y-98676460D01*
X161879280Y-98729800D01*
X161876740Y-98778060D01*
X161871660Y-98808540D01*
X161864040Y-98826320D01*
X161851340Y-98841560D01*
X161831020Y-98856800D01*
X161803080Y-98869500D01*
X161764980Y-98884740D01*
X161721800Y-98899980D01*
X161686240Y-98912680D01*
X161655760Y-98925380D01*
X161630360Y-98938080D01*
X161620200Y-98945700D01*
X161607500Y-98955860D01*
X161604960Y-98963480D01*
X161604960Y-98963480D01*
X161604960Y-98963480D01*
G37*
X161604960Y-98963480D02*
X161612580Y-98973640D01*
X161612580Y-98976180D01*
X161630360Y-98983800D01*
X161658300Y-98988880D01*
X161693860Y-98991420D01*
X161734500Y-98988880D01*
X161775140Y-98986340D01*
X161792920Y-98981260D01*
X161838640Y-98971100D01*
X161886900Y-98955860D01*
X161930080Y-98935540D01*
X161965640Y-98915220D01*
X161988500Y-98899980D01*
X162003740Y-98887280D01*
X162011360Y-98874580D01*
X162016440Y-98854260D01*
X162021520Y-98828860D01*
X162024060Y-98821240D01*
X162026600Y-98765360D01*
X162021520Y-98709480D01*
X162008820Y-98645980D01*
X161985960Y-98574860D01*
X161980880Y-98557080D01*
X161952940Y-98475800D01*
X161932620Y-98404680D01*
X161919920Y-98341180D01*
X161914840Y-98282760D01*
X161914840Y-98275140D01*
X161917380Y-98226880D01*
X161925000Y-98188780D01*
X161937700Y-98165920D01*
X161958020Y-98155760D01*
X161983420Y-98160840D01*
X161988500Y-98160840D01*
X162006280Y-98173540D01*
X162034220Y-98193860D01*
X162064700Y-98219260D01*
X162097720Y-98247200D01*
X162130740Y-98277680D01*
X162161220Y-98305620D01*
X162168840Y-98315780D01*
X162242500Y-98402140D01*
X162300920Y-98493580D01*
X162346640Y-98585020D01*
X162377120Y-98679000D01*
X162387280Y-98742500D01*
X162392360Y-98772980D01*
X162399980Y-98800920D01*
X162407600Y-98818700D01*
X162407600Y-98818700D01*
X162415220Y-98828860D01*
X162422840Y-98831400D01*
X162438080Y-98833940D01*
X162460940Y-98831400D01*
X162491420Y-98826320D01*
X162526980Y-98821240D01*
X162565080Y-98813620D01*
X162570160Y-98732340D01*
X162572700Y-98689160D01*
X162572700Y-98638360D01*
X162575240Y-98590100D01*
X162575240Y-98569780D01*
X162575240Y-98521520D01*
X162577780Y-98473260D01*
X162582860Y-98425000D01*
X162587940Y-98371660D01*
X162598100Y-98308160D01*
X162608260Y-98237040D01*
X162615880Y-98191320D01*
X162623500Y-98145600D01*
X162628580Y-98104960D01*
X162633660Y-98069400D01*
X162636200Y-98046540D01*
X162636200Y-98033840D01*
X162636200Y-98031300D01*
X162626040Y-98023680D01*
X162608260Y-98021140D01*
X162582860Y-98026220D01*
X162557460Y-98038920D01*
X162537140Y-98054160D01*
X162519360Y-98074480D01*
X162504120Y-98102420D01*
X162488880Y-98140520D01*
X162473640Y-98188780D01*
X162460940Y-98252280D01*
X162458400Y-98257360D01*
X162445700Y-98310700D01*
X162438080Y-98353880D01*
X162427920Y-98384360D01*
X162422840Y-98404680D01*
X162417760Y-98417380D01*
X162412680Y-98422460D01*
X162407600Y-98425000D01*
X162407600Y-98425000D01*
X162399980Y-98419920D01*
X162382200Y-98404680D01*
X162356800Y-98384360D01*
X162326320Y-98356420D01*
X162290760Y-98323400D01*
X162252660Y-98285300D01*
X162250120Y-98282760D01*
X162184080Y-98219260D01*
X162128200Y-98168460D01*
X162082480Y-98125280D01*
X162041840Y-98092260D01*
X162006280Y-98066860D01*
X161978340Y-98049080D01*
X161952940Y-98038920D01*
X161930080Y-98033840D01*
X161907220Y-98036380D01*
X161884360Y-98041460D01*
X161861500Y-98054160D01*
X161841180Y-98066860D01*
X161815780Y-98084640D01*
X161798000Y-98102420D01*
X161787840Y-98127820D01*
X161780220Y-98158300D01*
X161777680Y-98198940D01*
X161775140Y-98244660D01*
X161777680Y-98313240D01*
X161782760Y-98371660D01*
X161795460Y-98422460D01*
X161813240Y-98475800D01*
X161820860Y-98496120D01*
X161843720Y-98557080D01*
X161861500Y-98618040D01*
X161871660Y-98676460D01*
X161879280Y-98729800D01*
X161876740Y-98778060D01*
X161871660Y-98808540D01*
X161864040Y-98826320D01*
X161851340Y-98841560D01*
X161831020Y-98856800D01*
X161803080Y-98869500D01*
X161764980Y-98884740D01*
X161721800Y-98899980D01*
X161686240Y-98912680D01*
X161655760Y-98925380D01*
X161630360Y-98938080D01*
X161620200Y-98945700D01*
X161607500Y-98955860D01*
X161604960Y-98963480D01*
X161604960Y-98963480D01*
G36*
X165780720Y-97868740D02*
X165780720Y-97906840D01*
X165780720Y-97952560D01*
X165783260Y-98008440D01*
X165785800Y-98066860D01*
X165785800Y-98130360D01*
X165788340Y-98193860D01*
X165790880Y-98257360D01*
X165793420Y-98315780D01*
X165795960Y-98369120D01*
X165798500Y-98412300D01*
X165801040Y-98447860D01*
X165803580Y-98465640D01*
X165811200Y-98521520D01*
X165826440Y-98572320D01*
X165836600Y-98605340D01*
X165851840Y-98638360D01*
X165864540Y-98671380D01*
X165869620Y-98686620D01*
X165869620Y-98313240D01*
X165869620Y-98275140D01*
X165872160Y-98226880D01*
X165872160Y-98188780D01*
X165874700Y-98112580D01*
X165879780Y-98046540D01*
X165884860Y-97993200D01*
X165892480Y-97950020D01*
X165900100Y-97911920D01*
X165912800Y-97881440D01*
X165920420Y-97866200D01*
X165940740Y-97833180D01*
X165963600Y-97812860D01*
X165996620Y-97800160D01*
X166037260Y-97797620D01*
X166037260Y-97797620D01*
X166065200Y-97797620D01*
X166082980Y-97792540D01*
X166095680Y-97784920D01*
X166100760Y-97779840D01*
X166121080Y-97762060D01*
X166143940Y-97759520D01*
X166166800Y-97769680D01*
X166194740Y-97792540D01*
X166202360Y-97800160D01*
X166240460Y-97848420D01*
X166276020Y-97909380D01*
X166306500Y-97983040D01*
X166334440Y-98064320D01*
X166357300Y-98155760D01*
X166370000Y-98216720D01*
X166377620Y-98275140D01*
X166385240Y-98338640D01*
X166390320Y-98404680D01*
X166395400Y-98470720D01*
X166397940Y-98534220D01*
X166400480Y-98592640D01*
X166400480Y-98645980D01*
X166397940Y-98689160D01*
X166392860Y-98719640D01*
X166392860Y-98724720D01*
X166377620Y-98757740D01*
X166352220Y-98788220D01*
X166324280Y-98808540D01*
X166311580Y-98811080D01*
X166291260Y-98816160D01*
X166276020Y-98818700D01*
X166258240Y-98818700D01*
X166235380Y-98816160D01*
X166227760Y-98813620D01*
X166176960Y-98798380D01*
X166123620Y-98772980D01*
X166072820Y-98742500D01*
X166029640Y-98706940D01*
X165994080Y-98668840D01*
X165986460Y-98658680D01*
X165973760Y-98635820D01*
X165958520Y-98602800D01*
X165940740Y-98562160D01*
X165922960Y-98518980D01*
X165905180Y-98475800D01*
X165889940Y-98435160D01*
X165879780Y-98404680D01*
X165879780Y-98402140D01*
X165877240Y-98384360D01*
X165872160Y-98364040D01*
X165872160Y-98341180D01*
X165869620Y-98313240D01*
X165869620Y-98686620D01*
X165874700Y-98701860D01*
X165877240Y-98706940D01*
X165897560Y-98739960D01*
X165928040Y-98778060D01*
X165968680Y-98813620D01*
X166016940Y-98849180D01*
X166032180Y-98856800D01*
X166052500Y-98869500D01*
X166072820Y-98879660D01*
X166093140Y-98887280D01*
X166116000Y-98894900D01*
X166146480Y-98899980D01*
X166184580Y-98907600D01*
X166235380Y-98917760D01*
X166243000Y-98917760D01*
X166291260Y-98925380D01*
X166324280Y-98930460D01*
X166352220Y-98933000D01*
X166372540Y-98930460D01*
X166390320Y-98927920D01*
X166408100Y-98920300D01*
X166413180Y-98917760D01*
X166446200Y-98897440D01*
X166481760Y-98869500D01*
X166512240Y-98836480D01*
X166535100Y-98803460D01*
X166537640Y-98798380D01*
X166550340Y-98772980D01*
X166557960Y-98745040D01*
X166563040Y-98717100D01*
X166565580Y-98681540D01*
X166565580Y-98640900D01*
X166563040Y-98592640D01*
X166557960Y-98534220D01*
X166550340Y-98465640D01*
X166540180Y-98384360D01*
X166532560Y-98338640D01*
X166517320Y-98226880D01*
X166497000Y-98127820D01*
X166479220Y-98038920D01*
X166458900Y-97965260D01*
X166438580Y-97899220D01*
X166413180Y-97843340D01*
X166387780Y-97792540D01*
X166359840Y-97751900D01*
X166334440Y-97721420D01*
X166288720Y-97680780D01*
X166237920Y-97652840D01*
X166182040Y-97637600D01*
X166128700Y-97632520D01*
X166100760Y-97635060D01*
X166082980Y-97640140D01*
X166065200Y-97650300D01*
X166065200Y-97652840D01*
X166039800Y-97668080D01*
X166004240Y-97675700D01*
X165996620Y-97678240D01*
X165961060Y-97683320D01*
X165928040Y-97698560D01*
X165895020Y-97721420D01*
X165856920Y-97754440D01*
X165834060Y-97777300D01*
X165808660Y-97802700D01*
X165793420Y-97820480D01*
X165785800Y-97835720D01*
X165780720Y-97848420D01*
X165780720Y-97863660D01*
X165780720Y-97868740D01*
X165780720Y-97868740D01*
X165780720Y-97868740D01*
G37*
X165780720Y-97868740D02*
X165780720Y-97906840D01*
X165780720Y-97952560D01*
X165783260Y-98008440D01*
X165785800Y-98066860D01*
X165785800Y-98130360D01*
X165788340Y-98193860D01*
X165790880Y-98257360D01*
X165793420Y-98315780D01*
X165795960Y-98369120D01*
X165798500Y-98412300D01*
X165801040Y-98447860D01*
X165803580Y-98465640D01*
X165811200Y-98521520D01*
X165826440Y-98572320D01*
X165836600Y-98605340D01*
X165851840Y-98638360D01*
X165864540Y-98671380D01*
X165869620Y-98686620D01*
X165869620Y-98313240D01*
X165869620Y-98275140D01*
X165872160Y-98226880D01*
X165872160Y-98188780D01*
X165874700Y-98112580D01*
X165879780Y-98046540D01*
X165884860Y-97993200D01*
X165892480Y-97950020D01*
X165900100Y-97911920D01*
X165912800Y-97881440D01*
X165920420Y-97866200D01*
X165940740Y-97833180D01*
X165963600Y-97812860D01*
X165996620Y-97800160D01*
X166037260Y-97797620D01*
X166037260Y-97797620D01*
X166065200Y-97797620D01*
X166082980Y-97792540D01*
X166095680Y-97784920D01*
X166100760Y-97779840D01*
X166121080Y-97762060D01*
X166143940Y-97759520D01*
X166166800Y-97769680D01*
X166194740Y-97792540D01*
X166202360Y-97800160D01*
X166240460Y-97848420D01*
X166276020Y-97909380D01*
X166306500Y-97983040D01*
X166334440Y-98064320D01*
X166357300Y-98155760D01*
X166370000Y-98216720D01*
X166377620Y-98275140D01*
X166385240Y-98338640D01*
X166390320Y-98404680D01*
X166395400Y-98470720D01*
X166397940Y-98534220D01*
X166400480Y-98592640D01*
X166400480Y-98645980D01*
X166397940Y-98689160D01*
X166392860Y-98719640D01*
X166392860Y-98724720D01*
X166377620Y-98757740D01*
X166352220Y-98788220D01*
X166324280Y-98808540D01*
X166311580Y-98811080D01*
X166291260Y-98816160D01*
X166276020Y-98818700D01*
X166258240Y-98818700D01*
X166235380Y-98816160D01*
X166227760Y-98813620D01*
X166176960Y-98798380D01*
X166123620Y-98772980D01*
X166072820Y-98742500D01*
X166029640Y-98706940D01*
X165994080Y-98668840D01*
X165986460Y-98658680D01*
X165973760Y-98635820D01*
X165958520Y-98602800D01*
X165940740Y-98562160D01*
X165922960Y-98518980D01*
X165905180Y-98475800D01*
X165889940Y-98435160D01*
X165879780Y-98404680D01*
X165879780Y-98402140D01*
X165877240Y-98384360D01*
X165872160Y-98364040D01*
X165872160Y-98341180D01*
X165869620Y-98313240D01*
X165869620Y-98686620D01*
X165874700Y-98701860D01*
X165877240Y-98706940D01*
X165897560Y-98739960D01*
X165928040Y-98778060D01*
X165968680Y-98813620D01*
X166016940Y-98849180D01*
X166032180Y-98856800D01*
X166052500Y-98869500D01*
X166072820Y-98879660D01*
X166093140Y-98887280D01*
X166116000Y-98894900D01*
X166146480Y-98899980D01*
X166184580Y-98907600D01*
X166235380Y-98917760D01*
X166243000Y-98917760D01*
X166291260Y-98925380D01*
X166324280Y-98930460D01*
X166352220Y-98933000D01*
X166372540Y-98930460D01*
X166390320Y-98927920D01*
X166408100Y-98920300D01*
X166413180Y-98917760D01*
X166446200Y-98897440D01*
X166481760Y-98869500D01*
X166512240Y-98836480D01*
X166535100Y-98803460D01*
X166537640Y-98798380D01*
X166550340Y-98772980D01*
X166557960Y-98745040D01*
X166563040Y-98717100D01*
X166565580Y-98681540D01*
X166565580Y-98640900D01*
X166563040Y-98592640D01*
X166557960Y-98534220D01*
X166550340Y-98465640D01*
X166540180Y-98384360D01*
X166532560Y-98338640D01*
X166517320Y-98226880D01*
X166497000Y-98127820D01*
X166479220Y-98038920D01*
X166458900Y-97965260D01*
X166438580Y-97899220D01*
X166413180Y-97843340D01*
X166387780Y-97792540D01*
X166359840Y-97751900D01*
X166334440Y-97721420D01*
X166288720Y-97680780D01*
X166237920Y-97652840D01*
X166182040Y-97637600D01*
X166128700Y-97632520D01*
X166100760Y-97635060D01*
X166082980Y-97640140D01*
X166065200Y-97650300D01*
X166065200Y-97652840D01*
X166039800Y-97668080D01*
X166004240Y-97675700D01*
X165996620Y-97678240D01*
X165961060Y-97683320D01*
X165928040Y-97698560D01*
X165895020Y-97721420D01*
X165856920Y-97754440D01*
X165834060Y-97777300D01*
X165808660Y-97802700D01*
X165793420Y-97820480D01*
X165785800Y-97835720D01*
X165780720Y-97848420D01*
X165780720Y-97863660D01*
X165780720Y-97868740D01*
X165780720Y-97868740D01*
G36*
X164863780Y-98150680D02*
X164871400Y-98168460D01*
X164884100Y-98183700D01*
X164919660Y-98211640D01*
X164957760Y-98226880D01*
X165003480Y-98229420D01*
X165054280Y-98219260D01*
X165066980Y-98216720D01*
X165112700Y-98204020D01*
X165155880Y-98201480D01*
X165193980Y-98211640D01*
X165234620Y-98234500D01*
X165277800Y-98270060D01*
X165308280Y-98298000D01*
X165371780Y-98371660D01*
X165422580Y-98442780D01*
X165463220Y-98518980D01*
X165493700Y-98597720D01*
X165516560Y-98686620D01*
X165529260Y-98752660D01*
X165536880Y-98803460D01*
X165544500Y-98839020D01*
X165552120Y-98864420D01*
X165559740Y-98877120D01*
X165567360Y-98882200D01*
X165577520Y-98884740D01*
X165600380Y-98887280D01*
X165630860Y-98892360D01*
X165648640Y-98892360D01*
X165722300Y-98897440D01*
X165717220Y-98859340D01*
X165714680Y-98844100D01*
X165714680Y-98813620D01*
X165712140Y-98772980D01*
X165709600Y-98724720D01*
X165709600Y-98666300D01*
X165707060Y-98605340D01*
X165704520Y-98539300D01*
X165704520Y-98518980D01*
X165704520Y-98452940D01*
X165701980Y-98389440D01*
X165699440Y-98333560D01*
X165696900Y-98282760D01*
X165694360Y-98242120D01*
X165694360Y-98211640D01*
X165691820Y-98193860D01*
X165691820Y-98191320D01*
X165679120Y-98158300D01*
X165661340Y-98140520D01*
X165641020Y-98135440D01*
X165620700Y-98143060D01*
X165605460Y-98153220D01*
X165585140Y-98178620D01*
X165574980Y-98204020D01*
X165572440Y-98231960D01*
X165574980Y-98254820D01*
X165574980Y-98280220D01*
X165574980Y-98310700D01*
X165572440Y-98341180D01*
X165569900Y-98374200D01*
X165564820Y-98399600D01*
X165559740Y-98417380D01*
X165554660Y-98425000D01*
X165541960Y-98419920D01*
X165524180Y-98404680D01*
X165503860Y-98384360D01*
X165478460Y-98358960D01*
X165458140Y-98333560D01*
X165437820Y-98308160D01*
X165425120Y-98290380D01*
X165425120Y-98287840D01*
X165402260Y-98249740D01*
X165371780Y-98211640D01*
X165331140Y-98173540D01*
X165285420Y-98137980D01*
X165239700Y-98107500D01*
X165196520Y-98087180D01*
X165188900Y-98084640D01*
X165148260Y-98077020D01*
X165100000Y-98074480D01*
X165044120Y-98079560D01*
X164985700Y-98089720D01*
X164962840Y-98097340D01*
X164917120Y-98110040D01*
X164886640Y-98122740D01*
X164868860Y-98135440D01*
X164863780Y-98150680D01*
X164863780Y-98150680D01*
X164863780Y-98150680D01*
G37*
X164863780Y-98150680D02*
X164871400Y-98168460D01*
X164884100Y-98183700D01*
X164919660Y-98211640D01*
X164957760Y-98226880D01*
X165003480Y-98229420D01*
X165054280Y-98219260D01*
X165066980Y-98216720D01*
X165112700Y-98204020D01*
X165155880Y-98201480D01*
X165193980Y-98211640D01*
X165234620Y-98234500D01*
X165277800Y-98270060D01*
X165308280Y-98298000D01*
X165371780Y-98371660D01*
X165422580Y-98442780D01*
X165463220Y-98518980D01*
X165493700Y-98597720D01*
X165516560Y-98686620D01*
X165529260Y-98752660D01*
X165536880Y-98803460D01*
X165544500Y-98839020D01*
X165552120Y-98864420D01*
X165559740Y-98877120D01*
X165567360Y-98882200D01*
X165577520Y-98884740D01*
X165600380Y-98887280D01*
X165630860Y-98892360D01*
X165648640Y-98892360D01*
X165722300Y-98897440D01*
X165717220Y-98859340D01*
X165714680Y-98844100D01*
X165714680Y-98813620D01*
X165712140Y-98772980D01*
X165709600Y-98724720D01*
X165709600Y-98666300D01*
X165707060Y-98605340D01*
X165704520Y-98539300D01*
X165704520Y-98518980D01*
X165704520Y-98452940D01*
X165701980Y-98389440D01*
X165699440Y-98333560D01*
X165696900Y-98282760D01*
X165694360Y-98242120D01*
X165694360Y-98211640D01*
X165691820Y-98193860D01*
X165691820Y-98191320D01*
X165679120Y-98158300D01*
X165661340Y-98140520D01*
X165641020Y-98135440D01*
X165620700Y-98143060D01*
X165605460Y-98153220D01*
X165585140Y-98178620D01*
X165574980Y-98204020D01*
X165572440Y-98231960D01*
X165574980Y-98254820D01*
X165574980Y-98280220D01*
X165574980Y-98310700D01*
X165572440Y-98341180D01*
X165569900Y-98374200D01*
X165564820Y-98399600D01*
X165559740Y-98417380D01*
X165554660Y-98425000D01*
X165541960Y-98419920D01*
X165524180Y-98404680D01*
X165503860Y-98384360D01*
X165478460Y-98358960D01*
X165458140Y-98333560D01*
X165437820Y-98308160D01*
X165425120Y-98290380D01*
X165425120Y-98287840D01*
X165402260Y-98249740D01*
X165371780Y-98211640D01*
X165331140Y-98173540D01*
X165285420Y-98137980D01*
X165239700Y-98107500D01*
X165196520Y-98087180D01*
X165188900Y-98084640D01*
X165148260Y-98077020D01*
X165100000Y-98074480D01*
X165044120Y-98079560D01*
X164985700Y-98089720D01*
X164962840Y-98097340D01*
X164917120Y-98110040D01*
X164886640Y-98122740D01*
X164868860Y-98135440D01*
X164863780Y-98150680D01*
X164863780Y-98150680D01*
G36*
X164122100Y-98750120D02*
X164122100Y-98765360D01*
X164129720Y-98775520D01*
X164147500Y-98788220D01*
X164150040Y-98790760D01*
X164185600Y-98803460D01*
X164231320Y-98816160D01*
X164284660Y-98826320D01*
X164343080Y-98833940D01*
X164404040Y-98839020D01*
X164465000Y-98841560D01*
X164520880Y-98839020D01*
X164566600Y-98833940D01*
X164581840Y-98831400D01*
X164640260Y-98813620D01*
X164693600Y-98788220D01*
X164739320Y-98757740D01*
X164772340Y-98724720D01*
X164787580Y-98699320D01*
X164795200Y-98676460D01*
X164797740Y-98643440D01*
X164800280Y-98610420D01*
X164802820Y-98572320D01*
X164800280Y-98534220D01*
X164797740Y-98501200D01*
X164792660Y-98475800D01*
X164785040Y-98458020D01*
X164777420Y-98455480D01*
X164772340Y-98447860D01*
X164764720Y-98432620D01*
X164759640Y-98409760D01*
X164757100Y-98389440D01*
X164757100Y-98379280D01*
X164752020Y-98358960D01*
X164741860Y-98328480D01*
X164724080Y-98298000D01*
X164706300Y-98264980D01*
X164685980Y-98239580D01*
X164683440Y-98239580D01*
X164660580Y-98216720D01*
X164630100Y-98191320D01*
X164592000Y-98165920D01*
X164556440Y-98143060D01*
X164523420Y-98127820D01*
X164510720Y-98122740D01*
X164490400Y-98120200D01*
X164462460Y-98120200D01*
X164426900Y-98120200D01*
X164404040Y-98122740D01*
X164350700Y-98125280D01*
X164310060Y-98130360D01*
X164279580Y-98135440D01*
X164256720Y-98145600D01*
X164238940Y-98155760D01*
X164231320Y-98163380D01*
X164203380Y-98193860D01*
X164188140Y-98229420D01*
X164183060Y-98272600D01*
X164183060Y-98292920D01*
X164190680Y-98353880D01*
X164211000Y-98402140D01*
X164241480Y-98440240D01*
X164279580Y-98470720D01*
X164279580Y-98264980D01*
X164292280Y-98242120D01*
X164315140Y-98221800D01*
X164345620Y-98209100D01*
X164381180Y-98201480D01*
X164421820Y-98204020D01*
X164437060Y-98209100D01*
X164470080Y-98224340D01*
X164503100Y-98252280D01*
X164536120Y-98287840D01*
X164566600Y-98331020D01*
X164589460Y-98376740D01*
X164592000Y-98386900D01*
X164599620Y-98412300D01*
X164602160Y-98430080D01*
X164597080Y-98442780D01*
X164584380Y-98450400D01*
X164558980Y-98450400D01*
X164523420Y-98445320D01*
X164475160Y-98435160D01*
X164452300Y-98432620D01*
X164419280Y-98422460D01*
X164388800Y-98412300D01*
X164365940Y-98404680D01*
X164358320Y-98399600D01*
X164338000Y-98381820D01*
X164317680Y-98356420D01*
X164297360Y-98328480D01*
X164284660Y-98303080D01*
X164282120Y-98292920D01*
X164279580Y-98264980D01*
X164279580Y-98470720D01*
X164282120Y-98470720D01*
X164312600Y-98483420D01*
X164332920Y-98491040D01*
X164353240Y-98498660D01*
X164373560Y-98503740D01*
X164401500Y-98508820D01*
X164437060Y-98516440D01*
X164482780Y-98524060D01*
X164500560Y-98526600D01*
X164553900Y-98536760D01*
X164594540Y-98546920D01*
X164622480Y-98562160D01*
X164637720Y-98577400D01*
X164640260Y-98597720D01*
X164632640Y-98620580D01*
X164632640Y-98623120D01*
X164609780Y-98653600D01*
X164574220Y-98681540D01*
X164528500Y-98706940D01*
X164480240Y-98722180D01*
X164424360Y-98729800D01*
X164360860Y-98729800D01*
X164287200Y-98719640D01*
X164271960Y-98717100D01*
X164233860Y-98709480D01*
X164208460Y-98704400D01*
X164190680Y-98704400D01*
X164177980Y-98704400D01*
X164165280Y-98706940D01*
X164152580Y-98714560D01*
X164134800Y-98724720D01*
X164124640Y-98739960D01*
X164122100Y-98750120D01*
X164122100Y-98750120D01*
X164122100Y-98750120D01*
G37*
X164122100Y-98750120D02*
X164122100Y-98765360D01*
X164129720Y-98775520D01*
X164147500Y-98788220D01*
X164150040Y-98790760D01*
X164185600Y-98803460D01*
X164231320Y-98816160D01*
X164284660Y-98826320D01*
X164343080Y-98833940D01*
X164404040Y-98839020D01*
X164465000Y-98841560D01*
X164520880Y-98839020D01*
X164566600Y-98833940D01*
X164581840Y-98831400D01*
X164640260Y-98813620D01*
X164693600Y-98788220D01*
X164739320Y-98757740D01*
X164772340Y-98724720D01*
X164787580Y-98699320D01*
X164795200Y-98676460D01*
X164797740Y-98643440D01*
X164800280Y-98610420D01*
X164802820Y-98572320D01*
X164800280Y-98534220D01*
X164797740Y-98501200D01*
X164792660Y-98475800D01*
X164785040Y-98458020D01*
X164777420Y-98455480D01*
X164772340Y-98447860D01*
X164764720Y-98432620D01*
X164759640Y-98409760D01*
X164757100Y-98389440D01*
X164757100Y-98379280D01*
X164752020Y-98358960D01*
X164741860Y-98328480D01*
X164724080Y-98298000D01*
X164706300Y-98264980D01*
X164685980Y-98239580D01*
X164683440Y-98239580D01*
X164660580Y-98216720D01*
X164630100Y-98191320D01*
X164592000Y-98165920D01*
X164556440Y-98143060D01*
X164523420Y-98127820D01*
X164510720Y-98122740D01*
X164490400Y-98120200D01*
X164462460Y-98120200D01*
X164426900Y-98120200D01*
X164404040Y-98122740D01*
X164350700Y-98125280D01*
X164310060Y-98130360D01*
X164279580Y-98135440D01*
X164256720Y-98145600D01*
X164238940Y-98155760D01*
X164231320Y-98163380D01*
X164203380Y-98193860D01*
X164188140Y-98229420D01*
X164183060Y-98272600D01*
X164183060Y-98292920D01*
X164190680Y-98353880D01*
X164211000Y-98402140D01*
X164241480Y-98440240D01*
X164279580Y-98470720D01*
X164279580Y-98264980D01*
X164292280Y-98242120D01*
X164315140Y-98221800D01*
X164345620Y-98209100D01*
X164381180Y-98201480D01*
X164421820Y-98204020D01*
X164437060Y-98209100D01*
X164470080Y-98224340D01*
X164503100Y-98252280D01*
X164536120Y-98287840D01*
X164566600Y-98331020D01*
X164589460Y-98376740D01*
X164592000Y-98386900D01*
X164599620Y-98412300D01*
X164602160Y-98430080D01*
X164597080Y-98442780D01*
X164584380Y-98450400D01*
X164558980Y-98450400D01*
X164523420Y-98445320D01*
X164475160Y-98435160D01*
X164452300Y-98432620D01*
X164419280Y-98422460D01*
X164388800Y-98412300D01*
X164365940Y-98404680D01*
X164358320Y-98399600D01*
X164338000Y-98381820D01*
X164317680Y-98356420D01*
X164297360Y-98328480D01*
X164284660Y-98303080D01*
X164282120Y-98292920D01*
X164279580Y-98264980D01*
X164279580Y-98470720D01*
X164282120Y-98470720D01*
X164312600Y-98483420D01*
X164332920Y-98491040D01*
X164353240Y-98498660D01*
X164373560Y-98503740D01*
X164401500Y-98508820D01*
X164437060Y-98516440D01*
X164482780Y-98524060D01*
X164500560Y-98526600D01*
X164553900Y-98536760D01*
X164594540Y-98546920D01*
X164622480Y-98562160D01*
X164637720Y-98577400D01*
X164640260Y-98597720D01*
X164632640Y-98620580D01*
X164632640Y-98623120D01*
X164609780Y-98653600D01*
X164574220Y-98681540D01*
X164528500Y-98706940D01*
X164480240Y-98722180D01*
X164424360Y-98729800D01*
X164360860Y-98729800D01*
X164287200Y-98719640D01*
X164271960Y-98717100D01*
X164233860Y-98709480D01*
X164208460Y-98704400D01*
X164190680Y-98704400D01*
X164177980Y-98704400D01*
X164165280Y-98706940D01*
X164152580Y-98714560D01*
X164134800Y-98724720D01*
X164124640Y-98739960D01*
X164122100Y-98750120D01*
X164122100Y-98750120D01*
G36*
X162694620Y-98348800D02*
X162697160Y-98399600D01*
X162697160Y-98447860D01*
X162699700Y-98493580D01*
X162702240Y-98534220D01*
X162707320Y-98564700D01*
X162709860Y-98577400D01*
X162722560Y-98605340D01*
X162753040Y-98640900D01*
X162765740Y-98653600D01*
X162786060Y-98671380D01*
X162786060Y-98310700D01*
X162786060Y-98264980D01*
X162788600Y-98229420D01*
X162791140Y-98226880D01*
X162803840Y-98198940D01*
X162821620Y-98176080D01*
X162844480Y-98160840D01*
X162862260Y-98155760D01*
X162877500Y-98160840D01*
X162897820Y-98171000D01*
X162923220Y-98188780D01*
X162923220Y-98188780D01*
X162946080Y-98209100D01*
X162974020Y-98231960D01*
X163001960Y-98259900D01*
X163032440Y-98287840D01*
X163057840Y-98315780D01*
X163078160Y-98338640D01*
X163093400Y-98358960D01*
X163098480Y-98369120D01*
X163101020Y-98379280D01*
X163116260Y-98386900D01*
X163141660Y-98389440D01*
X163159440Y-98389440D01*
X163197540Y-98391980D01*
X163207700Y-98425000D01*
X163212780Y-98445320D01*
X163217860Y-98478340D01*
X163222940Y-98513900D01*
X163225480Y-98531680D01*
X163228020Y-98582480D01*
X163228020Y-98628200D01*
X163222940Y-98663760D01*
X163215320Y-98691700D01*
X163205160Y-98701860D01*
X163182300Y-98714560D01*
X163151820Y-98719640D01*
X163108640Y-98717100D01*
X163057840Y-98706940D01*
X163014660Y-98696780D01*
X162958780Y-98676460D01*
X162915600Y-98656140D01*
X162880040Y-98628200D01*
X162854640Y-98595180D01*
X162831780Y-98554540D01*
X162819080Y-98516440D01*
X162806380Y-98468180D01*
X162796220Y-98414840D01*
X162788600Y-98361500D01*
X162786060Y-98310700D01*
X162786060Y-98671380D01*
X162808920Y-98691700D01*
X162862260Y-98724720D01*
X162925760Y-98755200D01*
X162999420Y-98780600D01*
X163085780Y-98806000D01*
X163156900Y-98821240D01*
X163195000Y-98828860D01*
X163228020Y-98836480D01*
X163253420Y-98841560D01*
X163268660Y-98844100D01*
X163271200Y-98844100D01*
X163281360Y-98836480D01*
X163294060Y-98823780D01*
X163306760Y-98808540D01*
X163327080Y-98778060D01*
X163339780Y-98742500D01*
X163347400Y-98701860D01*
X163352480Y-98651060D01*
X163352480Y-98630740D01*
X163347400Y-98549460D01*
X163337240Y-98473260D01*
X163319460Y-98399600D01*
X163291520Y-98323400D01*
X163258500Y-98249740D01*
X163243260Y-98216720D01*
X163228020Y-98186240D01*
X163217860Y-98163380D01*
X163212780Y-98150680D01*
X163202620Y-98132900D01*
X163179760Y-98120200D01*
X163154360Y-98115120D01*
X163131500Y-98120200D01*
X163111180Y-98130360D01*
X163111180Y-98130360D01*
X163103560Y-98145600D01*
X163098480Y-98165920D01*
X163098480Y-98168460D01*
X163093400Y-98188780D01*
X163080700Y-98198940D01*
X163065460Y-98193860D01*
X163040060Y-98178620D01*
X163037520Y-98176080D01*
X162979100Y-98132900D01*
X162928300Y-98102420D01*
X162882580Y-98082100D01*
X162841940Y-98074480D01*
X162806380Y-98077020D01*
X162770820Y-98092260D01*
X162760660Y-98097340D01*
X162737800Y-98117660D01*
X162722560Y-98145600D01*
X162709860Y-98181160D01*
X162702240Y-98229420D01*
X162697160Y-98262440D01*
X162697160Y-98303080D01*
X162694620Y-98348800D01*
X162694620Y-98348800D01*
X162694620Y-98348800D01*
G37*
X162694620Y-98348800D02*
X162697160Y-98399600D01*
X162697160Y-98447860D01*
X162699700Y-98493580D01*
X162702240Y-98534220D01*
X162707320Y-98564700D01*
X162709860Y-98577400D01*
X162722560Y-98605340D01*
X162753040Y-98640900D01*
X162765740Y-98653600D01*
X162786060Y-98671380D01*
X162786060Y-98310700D01*
X162786060Y-98264980D01*
X162788600Y-98229420D01*
X162791140Y-98226880D01*
X162803840Y-98198940D01*
X162821620Y-98176080D01*
X162844480Y-98160840D01*
X162862260Y-98155760D01*
X162877500Y-98160840D01*
X162897820Y-98171000D01*
X162923220Y-98188780D01*
X162923220Y-98188780D01*
X162946080Y-98209100D01*
X162974020Y-98231960D01*
X163001960Y-98259900D01*
X163032440Y-98287840D01*
X163057840Y-98315780D01*
X163078160Y-98338640D01*
X163093400Y-98358960D01*
X163098480Y-98369120D01*
X163101020Y-98379280D01*
X163116260Y-98386900D01*
X163141660Y-98389440D01*
X163159440Y-98389440D01*
X163197540Y-98391980D01*
X163207700Y-98425000D01*
X163212780Y-98445320D01*
X163217860Y-98478340D01*
X163222940Y-98513900D01*
X163225480Y-98531680D01*
X163228020Y-98582480D01*
X163228020Y-98628200D01*
X163222940Y-98663760D01*
X163215320Y-98691700D01*
X163205160Y-98701860D01*
X163182300Y-98714560D01*
X163151820Y-98719640D01*
X163108640Y-98717100D01*
X163057840Y-98706940D01*
X163014660Y-98696780D01*
X162958780Y-98676460D01*
X162915600Y-98656140D01*
X162880040Y-98628200D01*
X162854640Y-98595180D01*
X162831780Y-98554540D01*
X162819080Y-98516440D01*
X162806380Y-98468180D01*
X162796220Y-98414840D01*
X162788600Y-98361500D01*
X162786060Y-98310700D01*
X162786060Y-98671380D01*
X162808920Y-98691700D01*
X162862260Y-98724720D01*
X162925760Y-98755200D01*
X162999420Y-98780600D01*
X163085780Y-98806000D01*
X163156900Y-98821240D01*
X163195000Y-98828860D01*
X163228020Y-98836480D01*
X163253420Y-98841560D01*
X163268660Y-98844100D01*
X163271200Y-98844100D01*
X163281360Y-98836480D01*
X163294060Y-98823780D01*
X163306760Y-98808540D01*
X163327080Y-98778060D01*
X163339780Y-98742500D01*
X163347400Y-98701860D01*
X163352480Y-98651060D01*
X163352480Y-98630740D01*
X163347400Y-98549460D01*
X163337240Y-98473260D01*
X163319460Y-98399600D01*
X163291520Y-98323400D01*
X163258500Y-98249740D01*
X163243260Y-98216720D01*
X163228020Y-98186240D01*
X163217860Y-98163380D01*
X163212780Y-98150680D01*
X163202620Y-98132900D01*
X163179760Y-98120200D01*
X163154360Y-98115120D01*
X163131500Y-98120200D01*
X163111180Y-98130360D01*
X163111180Y-98130360D01*
X163103560Y-98145600D01*
X163098480Y-98165920D01*
X163098480Y-98168460D01*
X163093400Y-98188780D01*
X163080700Y-98198940D01*
X163065460Y-98193860D01*
X163040060Y-98178620D01*
X163037520Y-98176080D01*
X162979100Y-98132900D01*
X162928300Y-98102420D01*
X162882580Y-98082100D01*
X162841940Y-98074480D01*
X162806380Y-98077020D01*
X162770820Y-98092260D01*
X162760660Y-98097340D01*
X162737800Y-98117660D01*
X162722560Y-98145600D01*
X162709860Y-98181160D01*
X162702240Y-98229420D01*
X162697160Y-98262440D01*
X162697160Y-98303080D01*
X162694620Y-98348800D01*
X162694620Y-98348800D01*
G36*
X161813240Y-97094040D02*
X161818320Y-97101660D01*
X161823400Y-97106740D01*
X161843720Y-97109280D01*
X161871660Y-97109280D01*
X161907220Y-97106740D01*
X161942780Y-97104200D01*
X161963100Y-97099120D01*
X162003740Y-97086420D01*
X162041840Y-97068640D01*
X162074860Y-97050860D01*
X162092640Y-97035620D01*
X162100260Y-97025460D01*
X162105340Y-97012760D01*
X162107880Y-96992440D01*
X162107880Y-96961960D01*
X162107880Y-96951800D01*
X162105340Y-96911160D01*
X162102800Y-96880680D01*
X162095180Y-96850200D01*
X162085020Y-96827340D01*
X162064700Y-96761300D01*
X162046920Y-96700340D01*
X162036760Y-96647000D01*
X162029140Y-96598740D01*
X162031680Y-96558100D01*
X162036760Y-96530160D01*
X162049460Y-96512380D01*
X162054540Y-96509840D01*
X162069780Y-96509840D01*
X162090100Y-96517460D01*
X162115500Y-96535240D01*
X162148520Y-96563180D01*
X162176460Y-96588580D01*
X162245040Y-96659700D01*
X162295840Y-96733360D01*
X162336480Y-96804480D01*
X162361880Y-96880680D01*
X162369500Y-96921320D01*
X162377120Y-96956880D01*
X162382200Y-96979740D01*
X162392360Y-96992440D01*
X162407600Y-96997520D01*
X162433000Y-96994980D01*
X162458400Y-96989900D01*
X162499040Y-96982280D01*
X162501580Y-96901000D01*
X162506660Y-96758760D01*
X162524440Y-96606360D01*
X162534600Y-96540320D01*
X162539680Y-96502220D01*
X162544760Y-96466660D01*
X162549840Y-96441260D01*
X162552380Y-96426020D01*
X162552380Y-96423480D01*
X162547300Y-96415860D01*
X162532060Y-96415860D01*
X162509200Y-96418400D01*
X162491420Y-96426020D01*
X162478720Y-96436180D01*
X162468560Y-96446340D01*
X162458400Y-96464120D01*
X162448240Y-96489520D01*
X162438080Y-96525080D01*
X162425380Y-96573340D01*
X162422840Y-96588580D01*
X162412680Y-96626680D01*
X162405060Y-96659700D01*
X162397440Y-96685100D01*
X162389820Y-96697800D01*
X162389820Y-96700340D01*
X162382200Y-96697800D01*
X162364420Y-96685100D01*
X162333940Y-96659700D01*
X162295840Y-96626680D01*
X162267900Y-96598740D01*
X162212020Y-96545400D01*
X162166300Y-96504760D01*
X162130740Y-96471740D01*
X162100260Y-96448880D01*
X162074860Y-96433640D01*
X162057080Y-96426020D01*
X162041840Y-96423480D01*
X162008820Y-96428560D01*
X161975800Y-96446340D01*
X161950400Y-96469200D01*
X161942780Y-96479360D01*
X161937700Y-96489520D01*
X161932620Y-96502220D01*
X161932620Y-96520000D01*
X161932620Y-96545400D01*
X161932620Y-96583500D01*
X161935160Y-96591120D01*
X161935160Y-96631760D01*
X161937700Y-96662240D01*
X161942780Y-96687640D01*
X161947860Y-96710500D01*
X161958020Y-96735900D01*
X161963100Y-96756220D01*
X161985960Y-96814640D01*
X161998660Y-96870520D01*
X162006280Y-96918780D01*
X162006280Y-96959420D01*
X161998660Y-96984820D01*
X161983420Y-97005140D01*
X161952940Y-97025460D01*
X161907220Y-97040700D01*
X161869120Y-97053400D01*
X161838640Y-97068640D01*
X161820860Y-97081340D01*
X161813240Y-97094040D01*
X161813240Y-97094040D01*
X161813240Y-97094040D01*
G37*
X161813240Y-97094040D02*
X161818320Y-97101660D01*
X161823400Y-97106740D01*
X161843720Y-97109280D01*
X161871660Y-97109280D01*
X161907220Y-97106740D01*
X161942780Y-97104200D01*
X161963100Y-97099120D01*
X162003740Y-97086420D01*
X162041840Y-97068640D01*
X162074860Y-97050860D01*
X162092640Y-97035620D01*
X162100260Y-97025460D01*
X162105340Y-97012760D01*
X162107880Y-96992440D01*
X162107880Y-96961960D01*
X162107880Y-96951800D01*
X162105340Y-96911160D01*
X162102800Y-96880680D01*
X162095180Y-96850200D01*
X162085020Y-96827340D01*
X162064700Y-96761300D01*
X162046920Y-96700340D01*
X162036760Y-96647000D01*
X162029140Y-96598740D01*
X162031680Y-96558100D01*
X162036760Y-96530160D01*
X162049460Y-96512380D01*
X162054540Y-96509840D01*
X162069780Y-96509840D01*
X162090100Y-96517460D01*
X162115500Y-96535240D01*
X162148520Y-96563180D01*
X162176460Y-96588580D01*
X162245040Y-96659700D01*
X162295840Y-96733360D01*
X162336480Y-96804480D01*
X162361880Y-96880680D01*
X162369500Y-96921320D01*
X162377120Y-96956880D01*
X162382200Y-96979740D01*
X162392360Y-96992440D01*
X162407600Y-96997520D01*
X162433000Y-96994980D01*
X162458400Y-96989900D01*
X162499040Y-96982280D01*
X162501580Y-96901000D01*
X162506660Y-96758760D01*
X162524440Y-96606360D01*
X162534600Y-96540320D01*
X162539680Y-96502220D01*
X162544760Y-96466660D01*
X162549840Y-96441260D01*
X162552380Y-96426020D01*
X162552380Y-96423480D01*
X162547300Y-96415860D01*
X162532060Y-96415860D01*
X162509200Y-96418400D01*
X162491420Y-96426020D01*
X162478720Y-96436180D01*
X162468560Y-96446340D01*
X162458400Y-96464120D01*
X162448240Y-96489520D01*
X162438080Y-96525080D01*
X162425380Y-96573340D01*
X162422840Y-96588580D01*
X162412680Y-96626680D01*
X162405060Y-96659700D01*
X162397440Y-96685100D01*
X162389820Y-96697800D01*
X162389820Y-96700340D01*
X162382200Y-96697800D01*
X162364420Y-96685100D01*
X162333940Y-96659700D01*
X162295840Y-96626680D01*
X162267900Y-96598740D01*
X162212020Y-96545400D01*
X162166300Y-96504760D01*
X162130740Y-96471740D01*
X162100260Y-96448880D01*
X162074860Y-96433640D01*
X162057080Y-96426020D01*
X162041840Y-96423480D01*
X162008820Y-96428560D01*
X161975800Y-96446340D01*
X161950400Y-96469200D01*
X161942780Y-96479360D01*
X161937700Y-96489520D01*
X161932620Y-96502220D01*
X161932620Y-96520000D01*
X161932620Y-96545400D01*
X161932620Y-96583500D01*
X161935160Y-96591120D01*
X161935160Y-96631760D01*
X161937700Y-96662240D01*
X161942780Y-96687640D01*
X161947860Y-96710500D01*
X161958020Y-96735900D01*
X161963100Y-96756220D01*
X161985960Y-96814640D01*
X161998660Y-96870520D01*
X162006280Y-96918780D01*
X162006280Y-96959420D01*
X161998660Y-96984820D01*
X161983420Y-97005140D01*
X161952940Y-97025460D01*
X161907220Y-97040700D01*
X161869120Y-97053400D01*
X161838640Y-97068640D01*
X161820860Y-97081340D01*
X161813240Y-97094040D01*
X161813240Y-97094040D01*
G36*
X164782500Y-97073720D02*
X164782500Y-97081340D01*
X164792660Y-97086420D01*
X164815520Y-97086420D01*
X164846000Y-97086420D01*
X164884100Y-97083880D01*
X164924740Y-97076260D01*
X164934900Y-97076260D01*
X164978080Y-97066100D01*
X165021260Y-97050860D01*
X165046660Y-97040700D01*
X165072060Y-97030540D01*
X165074600Y-97028000D01*
X165074600Y-96631760D01*
X165074600Y-96593660D01*
X165074600Y-96565720D01*
X165077140Y-96547940D01*
X165079680Y-96535240D01*
X165082220Y-96527620D01*
X165087300Y-96522540D01*
X165094920Y-96514920D01*
X165102540Y-96514920D01*
X165112700Y-96525080D01*
X165127940Y-96540320D01*
X165148260Y-96565720D01*
X165168580Y-96596200D01*
X165186360Y-96624140D01*
X165201600Y-96652080D01*
X165221920Y-96690180D01*
X165242240Y-96725740D01*
X165252400Y-96743520D01*
X165277800Y-96786700D01*
X165293040Y-96819720D01*
X165303200Y-96847660D01*
X165308280Y-96873060D01*
X165308280Y-96898460D01*
X165308280Y-96901000D01*
X165305740Y-96921320D01*
X165298120Y-96934020D01*
X165282880Y-96944180D01*
X165260020Y-96949260D01*
X165227000Y-96951800D01*
X165188900Y-96954340D01*
X165150800Y-96951800D01*
X165122860Y-96951800D01*
X165107620Y-96946720D01*
X165100000Y-96941640D01*
X165092380Y-96923860D01*
X165087300Y-96893380D01*
X165082220Y-96845120D01*
X165077140Y-96784160D01*
X165074600Y-96707960D01*
X165074600Y-96682560D01*
X165074600Y-96631760D01*
X165074600Y-97028000D01*
X165089840Y-97022920D01*
X165102540Y-97022920D01*
X165112700Y-97025460D01*
X165140640Y-97035620D01*
X165171120Y-97038160D01*
X165211760Y-97040700D01*
X165260020Y-97038160D01*
X165282880Y-97035620D01*
X165336220Y-97030540D01*
X165374320Y-97025460D01*
X165399720Y-97017840D01*
X165420040Y-97005140D01*
X165430200Y-96989900D01*
X165435280Y-96969580D01*
X165435280Y-96939100D01*
X165435280Y-96928940D01*
X165435280Y-96893380D01*
X165430200Y-96860360D01*
X165420040Y-96827340D01*
X165404800Y-96791780D01*
X165384480Y-96748600D01*
X165356540Y-96700340D01*
X165333680Y-96664780D01*
X165313360Y-96631760D01*
X165293040Y-96598740D01*
X165275260Y-96568260D01*
X165270180Y-96563180D01*
X165244780Y-96522540D01*
X165206680Y-96484440D01*
X165166040Y-96448880D01*
X165127940Y-96420940D01*
X165115240Y-96413320D01*
X165072060Y-96398080D01*
X165036500Y-96393000D01*
X165003480Y-96400620D01*
X164980620Y-96420940D01*
X164965380Y-96448880D01*
X164962840Y-96461580D01*
X164960300Y-96479360D01*
X164960300Y-96507300D01*
X164962840Y-96545400D01*
X164965380Y-96591120D01*
X164967920Y-96641920D01*
X164967920Y-96657160D01*
X164970460Y-96720660D01*
X164973000Y-96771460D01*
X164973000Y-96809560D01*
X164973000Y-96840040D01*
X164967920Y-96862900D01*
X164962840Y-96878140D01*
X164955220Y-96888300D01*
X164947600Y-96898460D01*
X164932360Y-96916240D01*
X164919660Y-96939100D01*
X164919660Y-96939100D01*
X164909500Y-96961960D01*
X164889180Y-96984820D01*
X164863780Y-97005140D01*
X164838380Y-97017840D01*
X164828220Y-97020380D01*
X164815520Y-97028000D01*
X164800280Y-97043240D01*
X164790120Y-97061020D01*
X164782500Y-97073720D01*
X164782500Y-97073720D01*
X164782500Y-97073720D01*
G37*
X164782500Y-97073720D02*
X164782500Y-97081340D01*
X164792660Y-97086420D01*
X164815520Y-97086420D01*
X164846000Y-97086420D01*
X164884100Y-97083880D01*
X164924740Y-97076260D01*
X164934900Y-97076260D01*
X164978080Y-97066100D01*
X165021260Y-97050860D01*
X165046660Y-97040700D01*
X165072060Y-97030540D01*
X165074600Y-97028000D01*
X165074600Y-96631760D01*
X165074600Y-96593660D01*
X165074600Y-96565720D01*
X165077140Y-96547940D01*
X165079680Y-96535240D01*
X165082220Y-96527620D01*
X165087300Y-96522540D01*
X165094920Y-96514920D01*
X165102540Y-96514920D01*
X165112700Y-96525080D01*
X165127940Y-96540320D01*
X165148260Y-96565720D01*
X165168580Y-96596200D01*
X165186360Y-96624140D01*
X165201600Y-96652080D01*
X165221920Y-96690180D01*
X165242240Y-96725740D01*
X165252400Y-96743520D01*
X165277800Y-96786700D01*
X165293040Y-96819720D01*
X165303200Y-96847660D01*
X165308280Y-96873060D01*
X165308280Y-96898460D01*
X165308280Y-96901000D01*
X165305740Y-96921320D01*
X165298120Y-96934020D01*
X165282880Y-96944180D01*
X165260020Y-96949260D01*
X165227000Y-96951800D01*
X165188900Y-96954340D01*
X165150800Y-96951800D01*
X165122860Y-96951800D01*
X165107620Y-96946720D01*
X165100000Y-96941640D01*
X165092380Y-96923860D01*
X165087300Y-96893380D01*
X165082220Y-96845120D01*
X165077140Y-96784160D01*
X165074600Y-96707960D01*
X165074600Y-96682560D01*
X165074600Y-96631760D01*
X165074600Y-97028000D01*
X165089840Y-97022920D01*
X165102540Y-97022920D01*
X165112700Y-97025460D01*
X165140640Y-97035620D01*
X165171120Y-97038160D01*
X165211760Y-97040700D01*
X165260020Y-97038160D01*
X165282880Y-97035620D01*
X165336220Y-97030540D01*
X165374320Y-97025460D01*
X165399720Y-97017840D01*
X165420040Y-97005140D01*
X165430200Y-96989900D01*
X165435280Y-96969580D01*
X165435280Y-96939100D01*
X165435280Y-96928940D01*
X165435280Y-96893380D01*
X165430200Y-96860360D01*
X165420040Y-96827340D01*
X165404800Y-96791780D01*
X165384480Y-96748600D01*
X165356540Y-96700340D01*
X165333680Y-96664780D01*
X165313360Y-96631760D01*
X165293040Y-96598740D01*
X165275260Y-96568260D01*
X165270180Y-96563180D01*
X165244780Y-96522540D01*
X165206680Y-96484440D01*
X165166040Y-96448880D01*
X165127940Y-96420940D01*
X165115240Y-96413320D01*
X165072060Y-96398080D01*
X165036500Y-96393000D01*
X165003480Y-96400620D01*
X164980620Y-96420940D01*
X164965380Y-96448880D01*
X164962840Y-96461580D01*
X164960300Y-96479360D01*
X164960300Y-96507300D01*
X164962840Y-96545400D01*
X164965380Y-96591120D01*
X164967920Y-96641920D01*
X164967920Y-96657160D01*
X164970460Y-96720660D01*
X164973000Y-96771460D01*
X164973000Y-96809560D01*
X164973000Y-96840040D01*
X164967920Y-96862900D01*
X164962840Y-96878140D01*
X164955220Y-96888300D01*
X164947600Y-96898460D01*
X164932360Y-96916240D01*
X164919660Y-96939100D01*
X164919660Y-96939100D01*
X164909500Y-96961960D01*
X164889180Y-96984820D01*
X164863780Y-97005140D01*
X164838380Y-97017840D01*
X164828220Y-97020380D01*
X164815520Y-97028000D01*
X164800280Y-97043240D01*
X164790120Y-97061020D01*
X164782500Y-97073720D01*
X164782500Y-97073720D01*
G36*
X165483540Y-96888300D02*
X165486080Y-96901000D01*
X165486080Y-96903540D01*
X165496240Y-96906080D01*
X165519100Y-96908620D01*
X165544500Y-96913700D01*
X165547040Y-96913700D01*
X165597840Y-96918780D01*
X165602920Y-96870520D01*
X165605460Y-96850200D01*
X165608000Y-96817180D01*
X165610540Y-96774000D01*
X165615620Y-96725740D01*
X165618160Y-96669860D01*
X165623240Y-96613980D01*
X165628320Y-96542860D01*
X165633400Y-96484440D01*
X165638480Y-96438720D01*
X165643560Y-96403160D01*
X165646100Y-96377760D01*
X165651180Y-96362520D01*
X165656260Y-96354900D01*
X165661340Y-96352360D01*
X165663880Y-96352360D01*
X165671500Y-96359980D01*
X165684200Y-96375220D01*
X165704520Y-96400620D01*
X165729920Y-96433640D01*
X165757860Y-96469200D01*
X165762940Y-96474280D01*
X165811200Y-96537780D01*
X165854380Y-96591120D01*
X165889940Y-96631760D01*
X165922960Y-96664780D01*
X165948360Y-96687640D01*
X165973760Y-96702880D01*
X165989000Y-96710500D01*
X166011860Y-96720660D01*
X166029640Y-96728280D01*
X166034720Y-96733360D01*
X166049960Y-96740980D01*
X166070280Y-96743520D01*
X166090600Y-96735900D01*
X166098220Y-96730820D01*
X166108380Y-96718120D01*
X166121080Y-96697800D01*
X166138860Y-96672400D01*
X166138860Y-96672400D01*
X166159180Y-96641920D01*
X166174420Y-96626680D01*
X166182040Y-96624140D01*
X166187120Y-96624140D01*
X166192200Y-96629220D01*
X166194740Y-96636840D01*
X166197280Y-96649540D01*
X166199820Y-96669860D01*
X166204900Y-96700340D01*
X166207440Y-96740980D01*
X166209980Y-96791780D01*
X166212520Y-96845120D01*
X166217600Y-96911160D01*
X166222680Y-96961960D01*
X166227760Y-97000060D01*
X166232840Y-97022920D01*
X166237920Y-97033080D01*
X166250620Y-97038160D01*
X166273480Y-97043240D01*
X166298880Y-97043240D01*
X166321740Y-97043240D01*
X166342060Y-97038160D01*
X166354760Y-97028000D01*
X166359840Y-97012760D01*
X166357300Y-96987360D01*
X166349680Y-96959420D01*
X166342060Y-96931480D01*
X166334440Y-96903540D01*
X166329360Y-96873060D01*
X166324280Y-96840040D01*
X166321740Y-96799400D01*
X166316660Y-96753680D01*
X166314120Y-96700340D01*
X166311580Y-96634300D01*
X166306500Y-96558100D01*
X166303960Y-96469200D01*
X166303960Y-96426020D01*
X166298880Y-96354900D01*
X166296340Y-96299020D01*
X166293800Y-96253300D01*
X166291260Y-96220280D01*
X166286180Y-96192340D01*
X166283640Y-96174560D01*
X166276020Y-96161860D01*
X166268400Y-96154240D01*
X166268400Y-96154240D01*
X166253160Y-96146620D01*
X166227760Y-96146620D01*
X166202360Y-96146620D01*
X166176960Y-96151700D01*
X166174420Y-96154240D01*
X166156640Y-96161860D01*
X166143940Y-96177100D01*
X166133780Y-96199960D01*
X166126160Y-96235520D01*
X166118540Y-96271080D01*
X166103300Y-96365060D01*
X166085520Y-96446340D01*
X166070280Y-96512380D01*
X166052500Y-96563180D01*
X166034720Y-96598740D01*
X166027100Y-96611440D01*
X166016940Y-96621600D01*
X166004240Y-96621600D01*
X165989000Y-96616520D01*
X165971220Y-96606360D01*
X165943280Y-96583500D01*
X165912800Y-96550480D01*
X165877240Y-96514920D01*
X165839140Y-96471740D01*
X165801040Y-96428560D01*
X165765480Y-96382840D01*
X165732460Y-96337120D01*
X165701980Y-96296480D01*
X165679120Y-96260920D01*
X165661340Y-96232980D01*
X165656260Y-96215200D01*
X165643560Y-96172020D01*
X165628320Y-96139000D01*
X165608000Y-96121220D01*
X165587680Y-96118680D01*
X165580060Y-96118680D01*
X165567360Y-96128840D01*
X165557200Y-96144080D01*
X165549580Y-96169480D01*
X165541960Y-96205040D01*
X165536880Y-96250760D01*
X165534340Y-96309180D01*
X165534340Y-96380300D01*
X165534340Y-96423480D01*
X165531800Y-96509840D01*
X165529260Y-96580960D01*
X165524180Y-96641920D01*
X165519100Y-96695260D01*
X165511480Y-96738440D01*
X165503860Y-96766380D01*
X165493700Y-96799400D01*
X165486080Y-96834960D01*
X165483540Y-96865440D01*
X165483540Y-96888300D01*
X165483540Y-96888300D01*
X165483540Y-96888300D01*
G37*
X165483540Y-96888300D02*
X165486080Y-96901000D01*
X165486080Y-96903540D01*
X165496240Y-96906080D01*
X165519100Y-96908620D01*
X165544500Y-96913700D01*
X165547040Y-96913700D01*
X165597840Y-96918780D01*
X165602920Y-96870520D01*
X165605460Y-96850200D01*
X165608000Y-96817180D01*
X165610540Y-96774000D01*
X165615620Y-96725740D01*
X165618160Y-96669860D01*
X165623240Y-96613980D01*
X165628320Y-96542860D01*
X165633400Y-96484440D01*
X165638480Y-96438720D01*
X165643560Y-96403160D01*
X165646100Y-96377760D01*
X165651180Y-96362520D01*
X165656260Y-96354900D01*
X165661340Y-96352360D01*
X165663880Y-96352360D01*
X165671500Y-96359980D01*
X165684200Y-96375220D01*
X165704520Y-96400620D01*
X165729920Y-96433640D01*
X165757860Y-96469200D01*
X165762940Y-96474280D01*
X165811200Y-96537780D01*
X165854380Y-96591120D01*
X165889940Y-96631760D01*
X165922960Y-96664780D01*
X165948360Y-96687640D01*
X165973760Y-96702880D01*
X165989000Y-96710500D01*
X166011860Y-96720660D01*
X166029640Y-96728280D01*
X166034720Y-96733360D01*
X166049960Y-96740980D01*
X166070280Y-96743520D01*
X166090600Y-96735900D01*
X166098220Y-96730820D01*
X166108380Y-96718120D01*
X166121080Y-96697800D01*
X166138860Y-96672400D01*
X166138860Y-96672400D01*
X166159180Y-96641920D01*
X166174420Y-96626680D01*
X166182040Y-96624140D01*
X166187120Y-96624140D01*
X166192200Y-96629220D01*
X166194740Y-96636840D01*
X166197280Y-96649540D01*
X166199820Y-96669860D01*
X166204900Y-96700340D01*
X166207440Y-96740980D01*
X166209980Y-96791780D01*
X166212520Y-96845120D01*
X166217600Y-96911160D01*
X166222680Y-96961960D01*
X166227760Y-97000060D01*
X166232840Y-97022920D01*
X166237920Y-97033080D01*
X166250620Y-97038160D01*
X166273480Y-97043240D01*
X166298880Y-97043240D01*
X166321740Y-97043240D01*
X166342060Y-97038160D01*
X166354760Y-97028000D01*
X166359840Y-97012760D01*
X166357300Y-96987360D01*
X166349680Y-96959420D01*
X166342060Y-96931480D01*
X166334440Y-96903540D01*
X166329360Y-96873060D01*
X166324280Y-96840040D01*
X166321740Y-96799400D01*
X166316660Y-96753680D01*
X166314120Y-96700340D01*
X166311580Y-96634300D01*
X166306500Y-96558100D01*
X166303960Y-96469200D01*
X166303960Y-96426020D01*
X166298880Y-96354900D01*
X166296340Y-96299020D01*
X166293800Y-96253300D01*
X166291260Y-96220280D01*
X166286180Y-96192340D01*
X166283640Y-96174560D01*
X166276020Y-96161860D01*
X166268400Y-96154240D01*
X166268400Y-96154240D01*
X166253160Y-96146620D01*
X166227760Y-96146620D01*
X166202360Y-96146620D01*
X166176960Y-96151700D01*
X166174420Y-96154240D01*
X166156640Y-96161860D01*
X166143940Y-96177100D01*
X166133780Y-96199960D01*
X166126160Y-96235520D01*
X166118540Y-96271080D01*
X166103300Y-96365060D01*
X166085520Y-96446340D01*
X166070280Y-96512380D01*
X166052500Y-96563180D01*
X166034720Y-96598740D01*
X166027100Y-96611440D01*
X166016940Y-96621600D01*
X166004240Y-96621600D01*
X165989000Y-96616520D01*
X165971220Y-96606360D01*
X165943280Y-96583500D01*
X165912800Y-96550480D01*
X165877240Y-96514920D01*
X165839140Y-96471740D01*
X165801040Y-96428560D01*
X165765480Y-96382840D01*
X165732460Y-96337120D01*
X165701980Y-96296480D01*
X165679120Y-96260920D01*
X165661340Y-96232980D01*
X165656260Y-96215200D01*
X165643560Y-96172020D01*
X165628320Y-96139000D01*
X165608000Y-96121220D01*
X165587680Y-96118680D01*
X165580060Y-96118680D01*
X165567360Y-96128840D01*
X165557200Y-96144080D01*
X165549580Y-96169480D01*
X165541960Y-96205040D01*
X165536880Y-96250760D01*
X165534340Y-96309180D01*
X165534340Y-96380300D01*
X165534340Y-96423480D01*
X165531800Y-96509840D01*
X165529260Y-96580960D01*
X165524180Y-96641920D01*
X165519100Y-96695260D01*
X165511480Y-96738440D01*
X165503860Y-96766380D01*
X165493700Y-96799400D01*
X165486080Y-96834960D01*
X165483540Y-96865440D01*
X165483540Y-96888300D01*
X165483540Y-96888300D01*
G36*
X162598100Y-96961960D02*
X162608260Y-96972120D01*
X162628580Y-96984820D01*
X162653980Y-96994980D01*
X162679380Y-97005140D01*
X162702240Y-97007680D01*
X162730180Y-97007680D01*
X162763200Y-97005140D01*
X162770820Y-97005140D01*
X162793680Y-96997520D01*
X162808920Y-96987360D01*
X162814000Y-96984820D01*
X162814000Y-96974660D01*
X162816540Y-96949260D01*
X162819080Y-96916240D01*
X162821620Y-96873060D01*
X162824160Y-96824800D01*
X162826700Y-96771460D01*
X162829240Y-96715580D01*
X162829240Y-96657160D01*
X162831780Y-96603820D01*
X162831780Y-96553020D01*
X162831780Y-96527620D01*
X162831780Y-96494600D01*
X162831780Y-96474280D01*
X162829240Y-96461580D01*
X162824160Y-96456500D01*
X162816540Y-96453960D01*
X162814000Y-96453960D01*
X162786060Y-96453960D01*
X162763200Y-96466660D01*
X162753040Y-96481900D01*
X162750500Y-96494600D01*
X162745420Y-96520000D01*
X162742880Y-96555560D01*
X162737800Y-96598740D01*
X162732720Y-96644460D01*
X162730180Y-96654620D01*
X162725100Y-96720660D01*
X162720020Y-96776540D01*
X162712400Y-96819720D01*
X162707320Y-96852740D01*
X162702240Y-96875600D01*
X162692080Y-96895920D01*
X162681920Y-96908620D01*
X162669220Y-96918780D01*
X162653980Y-96926400D01*
X162636200Y-96936560D01*
X162613340Y-96946720D01*
X162600640Y-96956880D01*
X162598100Y-96961960D01*
X162598100Y-96961960D01*
X162598100Y-96961960D01*
G37*
X162598100Y-96961960D02*
X162608260Y-96972120D01*
X162628580Y-96984820D01*
X162653980Y-96994980D01*
X162679380Y-97005140D01*
X162702240Y-97007680D01*
X162730180Y-97007680D01*
X162763200Y-97005140D01*
X162770820Y-97005140D01*
X162793680Y-96997520D01*
X162808920Y-96987360D01*
X162814000Y-96984820D01*
X162814000Y-96974660D01*
X162816540Y-96949260D01*
X162819080Y-96916240D01*
X162821620Y-96873060D01*
X162824160Y-96824800D01*
X162826700Y-96771460D01*
X162829240Y-96715580D01*
X162829240Y-96657160D01*
X162831780Y-96603820D01*
X162831780Y-96553020D01*
X162831780Y-96527620D01*
X162831780Y-96494600D01*
X162831780Y-96474280D01*
X162829240Y-96461580D01*
X162824160Y-96456500D01*
X162816540Y-96453960D01*
X162814000Y-96453960D01*
X162786060Y-96453960D01*
X162763200Y-96466660D01*
X162753040Y-96481900D01*
X162750500Y-96494600D01*
X162745420Y-96520000D01*
X162742880Y-96555560D01*
X162737800Y-96598740D01*
X162732720Y-96644460D01*
X162730180Y-96654620D01*
X162725100Y-96720660D01*
X162720020Y-96776540D01*
X162712400Y-96819720D01*
X162707320Y-96852740D01*
X162702240Y-96875600D01*
X162692080Y-96895920D01*
X162681920Y-96908620D01*
X162669220Y-96918780D01*
X162653980Y-96926400D01*
X162636200Y-96936560D01*
X162613340Y-96946720D01*
X162600640Y-96956880D01*
X162598100Y-96961960D01*
X162598100Y-96961960D01*
G36*
X164241480Y-96936560D02*
X164282120Y-96956880D01*
X164312600Y-96969580D01*
X164350700Y-96979740D01*
X164393880Y-96989900D01*
X164434520Y-96997520D01*
X164434520Y-96695260D01*
X164437060Y-96664780D01*
X164437060Y-96659700D01*
X164447220Y-96636840D01*
X164462460Y-96626680D01*
X164485320Y-96626680D01*
X164508180Y-96636840D01*
X164536120Y-96659700D01*
X164564060Y-96687640D01*
X164592000Y-96725740D01*
X164602160Y-96746060D01*
X164617400Y-96774000D01*
X164619940Y-96796860D01*
X164614860Y-96814640D01*
X164604700Y-96827340D01*
X164589460Y-96842580D01*
X164569140Y-96860360D01*
X164543740Y-96880680D01*
X164520880Y-96898460D01*
X164498020Y-96911160D01*
X164482780Y-96921320D01*
X164477700Y-96921320D01*
X164470080Y-96913700D01*
X164459920Y-96895920D01*
X164454840Y-96880680D01*
X164447220Y-96855280D01*
X164442140Y-96819720D01*
X164437060Y-96776540D01*
X164434520Y-96733360D01*
X164434520Y-96695260D01*
X164434520Y-96997520D01*
X164437060Y-96997520D01*
X164477700Y-97002600D01*
X164513260Y-97005140D01*
X164538660Y-97002600D01*
X164546280Y-97000060D01*
X164558980Y-96992440D01*
X164579300Y-96979740D01*
X164604700Y-96964500D01*
X164614860Y-96956880D01*
X164660580Y-96921320D01*
X164696140Y-96880680D01*
X164724080Y-96834960D01*
X164729160Y-96827340D01*
X164736780Y-96804480D01*
X164739320Y-96786700D01*
X164736780Y-96763840D01*
X164734240Y-96758760D01*
X164713920Y-96710500D01*
X164683440Y-96662240D01*
X164642800Y-96619060D01*
X164599620Y-96580960D01*
X164558980Y-96555560D01*
X164510720Y-96532700D01*
X164498020Y-96527620D01*
X164470080Y-96517460D01*
X164447220Y-96504760D01*
X164434520Y-96494600D01*
X164426900Y-96479360D01*
X164419280Y-96456500D01*
X164414200Y-96420940D01*
X164409120Y-96375220D01*
X164406580Y-96319340D01*
X164406580Y-96248220D01*
X164404040Y-96199960D01*
X164404040Y-96151700D01*
X164404040Y-96108520D01*
X164404040Y-96072960D01*
X164401500Y-96045020D01*
X164401500Y-96029780D01*
X164401500Y-96029780D01*
X164396420Y-96019620D01*
X164386260Y-96014540D01*
X164368480Y-96012000D01*
X164355780Y-96012000D01*
X164332920Y-96012000D01*
X164317680Y-96012000D01*
X164315140Y-96014540D01*
X164315140Y-96022160D01*
X164315140Y-96042480D01*
X164312600Y-96075500D01*
X164312600Y-96121220D01*
X164312600Y-96174560D01*
X164310060Y-96235520D01*
X164310060Y-96304100D01*
X164310060Y-96380300D01*
X164307520Y-96431100D01*
X164307520Y-96525080D01*
X164304980Y-96611440D01*
X164302440Y-96685100D01*
X164299900Y-96748600D01*
X164299900Y-96799400D01*
X164297360Y-96837500D01*
X164294820Y-96862900D01*
X164292280Y-96873060D01*
X164282120Y-96895920D01*
X164264340Y-96916240D01*
X164261800Y-96918780D01*
X164241480Y-96936560D01*
X164241480Y-96936560D01*
X164241480Y-96936560D01*
G37*
X164241480Y-96936560D02*
X164282120Y-96956880D01*
X164312600Y-96969580D01*
X164350700Y-96979740D01*
X164393880Y-96989900D01*
X164434520Y-96997520D01*
X164434520Y-96695260D01*
X164437060Y-96664780D01*
X164437060Y-96659700D01*
X164447220Y-96636840D01*
X164462460Y-96626680D01*
X164485320Y-96626680D01*
X164508180Y-96636840D01*
X164536120Y-96659700D01*
X164564060Y-96687640D01*
X164592000Y-96725740D01*
X164602160Y-96746060D01*
X164617400Y-96774000D01*
X164619940Y-96796860D01*
X164614860Y-96814640D01*
X164604700Y-96827340D01*
X164589460Y-96842580D01*
X164569140Y-96860360D01*
X164543740Y-96880680D01*
X164520880Y-96898460D01*
X164498020Y-96911160D01*
X164482780Y-96921320D01*
X164477700Y-96921320D01*
X164470080Y-96913700D01*
X164459920Y-96895920D01*
X164454840Y-96880680D01*
X164447220Y-96855280D01*
X164442140Y-96819720D01*
X164437060Y-96776540D01*
X164434520Y-96733360D01*
X164434520Y-96695260D01*
X164434520Y-96997520D01*
X164437060Y-96997520D01*
X164477700Y-97002600D01*
X164513260Y-97005140D01*
X164538660Y-97002600D01*
X164546280Y-97000060D01*
X164558980Y-96992440D01*
X164579300Y-96979740D01*
X164604700Y-96964500D01*
X164614860Y-96956880D01*
X164660580Y-96921320D01*
X164696140Y-96880680D01*
X164724080Y-96834960D01*
X164729160Y-96827340D01*
X164736780Y-96804480D01*
X164739320Y-96786700D01*
X164736780Y-96763840D01*
X164734240Y-96758760D01*
X164713920Y-96710500D01*
X164683440Y-96662240D01*
X164642800Y-96619060D01*
X164599620Y-96580960D01*
X164558980Y-96555560D01*
X164510720Y-96532700D01*
X164498020Y-96527620D01*
X164470080Y-96517460D01*
X164447220Y-96504760D01*
X164434520Y-96494600D01*
X164426900Y-96479360D01*
X164419280Y-96456500D01*
X164414200Y-96420940D01*
X164409120Y-96375220D01*
X164406580Y-96319340D01*
X164406580Y-96248220D01*
X164404040Y-96199960D01*
X164404040Y-96151700D01*
X164404040Y-96108520D01*
X164404040Y-96072960D01*
X164401500Y-96045020D01*
X164401500Y-96029780D01*
X164401500Y-96029780D01*
X164396420Y-96019620D01*
X164386260Y-96014540D01*
X164368480Y-96012000D01*
X164355780Y-96012000D01*
X164332920Y-96012000D01*
X164317680Y-96012000D01*
X164315140Y-96014540D01*
X164315140Y-96022160D01*
X164315140Y-96042480D01*
X164312600Y-96075500D01*
X164312600Y-96121220D01*
X164312600Y-96174560D01*
X164310060Y-96235520D01*
X164310060Y-96304100D01*
X164310060Y-96380300D01*
X164307520Y-96431100D01*
X164307520Y-96525080D01*
X164304980Y-96611440D01*
X164302440Y-96685100D01*
X164299900Y-96748600D01*
X164299900Y-96799400D01*
X164297360Y-96837500D01*
X164294820Y-96862900D01*
X164292280Y-96873060D01*
X164282120Y-96895920D01*
X164264340Y-96916240D01*
X164261800Y-96918780D01*
X164241480Y-96936560D01*
X164241480Y-96936560D01*
G36*
X163703000Y-96939100D02*
X163710620Y-96954340D01*
X163733480Y-96967040D01*
X163769040Y-96979740D01*
X163794440Y-96987360D01*
X163824920Y-96992440D01*
X163863020Y-96997520D01*
X163906200Y-97000060D01*
X163946840Y-97002600D01*
X163982400Y-97002600D01*
X164005260Y-97000060D01*
X164056060Y-96987360D01*
X164104320Y-96969580D01*
X164142420Y-96944180D01*
X164170360Y-96916240D01*
X164177980Y-96906080D01*
X164185600Y-96880680D01*
X164190680Y-96847660D01*
X164193220Y-96807020D01*
X164188140Y-96768920D01*
X164180520Y-96733360D01*
X164175440Y-96718120D01*
X164165280Y-96695260D01*
X164160200Y-96674940D01*
X164157660Y-96672400D01*
X164152580Y-96641920D01*
X164134800Y-96606360D01*
X164106860Y-96573340D01*
X164073840Y-96540320D01*
X164035740Y-96512380D01*
X163995100Y-96492060D01*
X163990020Y-96489520D01*
X163972240Y-96486980D01*
X163941760Y-96484440D01*
X163908740Y-96484440D01*
X163870640Y-96486980D01*
X163837620Y-96492060D01*
X163812220Y-96497140D01*
X163807140Y-96497140D01*
X163789360Y-96509840D01*
X163771580Y-96527620D01*
X163766500Y-96535240D01*
X163753800Y-96553020D01*
X163748720Y-96568260D01*
X163748720Y-96588580D01*
X163748720Y-96613980D01*
X163758880Y-96662240D01*
X163779200Y-96700340D01*
X163812220Y-96730820D01*
X163817300Y-96733360D01*
X163817300Y-96591120D01*
X163822380Y-96578420D01*
X163837620Y-96563180D01*
X163865560Y-96545400D01*
X163901120Y-96542860D01*
X163936680Y-96550480D01*
X163969700Y-96568260D01*
X163992560Y-96591120D01*
X164010340Y-96613980D01*
X164028120Y-96641920D01*
X164040820Y-96669860D01*
X164048440Y-96692720D01*
X164050980Y-96707960D01*
X164050980Y-96710500D01*
X164040820Y-96718120D01*
X164015420Y-96720660D01*
X163979860Y-96718120D01*
X163939220Y-96710500D01*
X163908740Y-96702880D01*
X163888420Y-96692720D01*
X163868100Y-96680020D01*
X163855400Y-96664780D01*
X163837620Y-96644460D01*
X163822380Y-96621600D01*
X163819840Y-96608900D01*
X163817300Y-96591120D01*
X163817300Y-96733360D01*
X163822380Y-96735900D01*
X163842700Y-96743520D01*
X163873180Y-96753680D01*
X163908740Y-96761300D01*
X163949380Y-96768920D01*
X163949380Y-96771460D01*
X163987480Y-96776540D01*
X164020500Y-96784160D01*
X164045900Y-96791780D01*
X164058600Y-96796860D01*
X164061140Y-96796860D01*
X164073840Y-96812100D01*
X164076380Y-96832420D01*
X164066220Y-96855280D01*
X164043360Y-96878140D01*
X164012880Y-96901000D01*
X164005260Y-96903540D01*
X163987480Y-96911160D01*
X163967160Y-96916240D01*
X163941760Y-96918780D01*
X163906200Y-96918780D01*
X163903660Y-96918780D01*
X163865560Y-96918780D01*
X163822380Y-96916240D01*
X163786820Y-96913700D01*
X163779200Y-96911160D01*
X163743640Y-96911160D01*
X163720780Y-96913700D01*
X163708080Y-96921320D01*
X163703000Y-96936560D01*
X163703000Y-96939100D01*
X163703000Y-96939100D01*
X163703000Y-96939100D01*
G37*
X163703000Y-96939100D02*
X163710620Y-96954340D01*
X163733480Y-96967040D01*
X163769040Y-96979740D01*
X163794440Y-96987360D01*
X163824920Y-96992440D01*
X163863020Y-96997520D01*
X163906200Y-97000060D01*
X163946840Y-97002600D01*
X163982400Y-97002600D01*
X164005260Y-97000060D01*
X164056060Y-96987360D01*
X164104320Y-96969580D01*
X164142420Y-96944180D01*
X164170360Y-96916240D01*
X164177980Y-96906080D01*
X164185600Y-96880680D01*
X164190680Y-96847660D01*
X164193220Y-96807020D01*
X164188140Y-96768920D01*
X164180520Y-96733360D01*
X164175440Y-96718120D01*
X164165280Y-96695260D01*
X164160200Y-96674940D01*
X164157660Y-96672400D01*
X164152580Y-96641920D01*
X164134800Y-96606360D01*
X164106860Y-96573340D01*
X164073840Y-96540320D01*
X164035740Y-96512380D01*
X163995100Y-96492060D01*
X163990020Y-96489520D01*
X163972240Y-96486980D01*
X163941760Y-96484440D01*
X163908740Y-96484440D01*
X163870640Y-96486980D01*
X163837620Y-96492060D01*
X163812220Y-96497140D01*
X163807140Y-96497140D01*
X163789360Y-96509840D01*
X163771580Y-96527620D01*
X163766500Y-96535240D01*
X163753800Y-96553020D01*
X163748720Y-96568260D01*
X163748720Y-96588580D01*
X163748720Y-96613980D01*
X163758880Y-96662240D01*
X163779200Y-96700340D01*
X163812220Y-96730820D01*
X163817300Y-96733360D01*
X163817300Y-96591120D01*
X163822380Y-96578420D01*
X163837620Y-96563180D01*
X163865560Y-96545400D01*
X163901120Y-96542860D01*
X163936680Y-96550480D01*
X163969700Y-96568260D01*
X163992560Y-96591120D01*
X164010340Y-96613980D01*
X164028120Y-96641920D01*
X164040820Y-96669860D01*
X164048440Y-96692720D01*
X164050980Y-96707960D01*
X164050980Y-96710500D01*
X164040820Y-96718120D01*
X164015420Y-96720660D01*
X163979860Y-96718120D01*
X163939220Y-96710500D01*
X163908740Y-96702880D01*
X163888420Y-96692720D01*
X163868100Y-96680020D01*
X163855400Y-96664780D01*
X163837620Y-96644460D01*
X163822380Y-96621600D01*
X163819840Y-96608900D01*
X163817300Y-96591120D01*
X163817300Y-96733360D01*
X163822380Y-96735900D01*
X163842700Y-96743520D01*
X163873180Y-96753680D01*
X163908740Y-96761300D01*
X163949380Y-96768920D01*
X163949380Y-96771460D01*
X163987480Y-96776540D01*
X164020500Y-96784160D01*
X164045900Y-96791780D01*
X164058600Y-96796860D01*
X164061140Y-96796860D01*
X164073840Y-96812100D01*
X164076380Y-96832420D01*
X164066220Y-96855280D01*
X164043360Y-96878140D01*
X164012880Y-96901000D01*
X164005260Y-96903540D01*
X163987480Y-96911160D01*
X163967160Y-96916240D01*
X163941760Y-96918780D01*
X163906200Y-96918780D01*
X163903660Y-96918780D01*
X163865560Y-96918780D01*
X163822380Y-96916240D01*
X163786820Y-96913700D01*
X163779200Y-96911160D01*
X163743640Y-96911160D01*
X163720780Y-96913700D01*
X163708080Y-96921320D01*
X163703000Y-96936560D01*
X163703000Y-96939100D01*
X163703000Y-96939100D01*
G36*
X162793680Y-96258380D02*
X162796220Y-96266000D01*
X162806380Y-96278700D01*
X162821620Y-96281240D01*
X162841940Y-96268540D01*
X162864800Y-96245680D01*
X162890200Y-96215200D01*
X162900360Y-96189800D01*
X162897820Y-96169480D01*
X162882580Y-96154240D01*
X162859720Y-96141540D01*
X162844480Y-96133920D01*
X162834320Y-96131380D01*
X162831780Y-96131380D01*
X162824160Y-96139000D01*
X162814000Y-96156780D01*
X162806380Y-96179640D01*
X162798760Y-96207580D01*
X162793680Y-96235520D01*
X162793680Y-96258380D01*
X162793680Y-96258380D01*
X162793680Y-96258380D01*
G37*
X162793680Y-96258380D02*
X162796220Y-96266000D01*
X162806380Y-96278700D01*
X162821620Y-96281240D01*
X162841940Y-96268540D01*
X162864800Y-96245680D01*
X162890200Y-96215200D01*
X162900360Y-96189800D01*
X162897820Y-96169480D01*
X162882580Y-96154240D01*
X162859720Y-96141540D01*
X162844480Y-96133920D01*
X162834320Y-96131380D01*
X162831780Y-96131380D01*
X162824160Y-96139000D01*
X162814000Y-96156780D01*
X162806380Y-96179640D01*
X162798760Y-96207580D01*
X162793680Y-96235520D01*
X162793680Y-96258380D01*
X162793680Y-96258380D01*
D16*
G36*
X162545722Y-100924024D02*
X162531256Y-101075719D01*
X162489163Y-101219003D01*
X162421393Y-101350807D01*
X162329899Y-101468058D01*
X162216635Y-101567687D01*
X162087510Y-101644729D01*
X161946028Y-101697479D01*
X161803554Y-101722201D01*
X161662896Y-101720684D01*
X161526864Y-101694717D01*
X161398267Y-101646090D01*
X161279914Y-101576593D01*
X161174614Y-101488014D01*
X161085177Y-101382143D01*
X161014412Y-101260770D01*
X160965129Y-101125683D01*
X160940135Y-100978674D01*
X160937556Y-100912244D01*
X160937556Y-100795165D01*
X160868420Y-100795165D01*
X160820081Y-100798953D01*
X160784271Y-100814662D01*
X160748183Y-100846266D01*
X160697083Y-100897367D01*
X160697083Y-103815138D01*
X160697095Y-104164138D01*
X160697138Y-104484332D01*
X160697223Y-104776974D01*
X160697361Y-105043318D01*
X160697562Y-105284617D01*
X160697838Y-105502125D01*
X160698200Y-105697095D01*
X160698658Y-105870780D01*
X160699223Y-106024435D01*
X160699906Y-106159313D01*
X160700717Y-106276668D01*
X160701669Y-106377753D01*
X160702771Y-106463821D01*
X160704035Y-106536127D01*
X160705470Y-106595923D01*
X160707089Y-106644464D01*
X160708902Y-106683003D01*
X160710920Y-106712793D01*
X160713154Y-106735089D01*
X160715614Y-106751143D01*
X160718312Y-106762210D01*
X160721258Y-106769542D01*
X160722699Y-106772005D01*
X160728241Y-106781340D01*
X160732947Y-106789923D01*
X160738045Y-106797784D01*
X160744765Y-106804955D01*
X160754336Y-106811467D01*
X160767986Y-106817353D01*
X160786945Y-106822642D01*
X160812442Y-106827368D01*
X160845705Y-106831560D01*
X160887964Y-106835251D01*
X160940448Y-106838472D01*
X161004386Y-106841254D01*
X161081007Y-106843630D01*
X161171540Y-106845629D01*
X161277214Y-106847284D01*
X161399258Y-106848627D01*
X161538901Y-106849687D01*
X161697372Y-106850498D01*
X161875900Y-106851090D01*
X162075715Y-106851495D01*
X162298045Y-106851744D01*
X162544119Y-106851869D01*
X162815166Y-106851901D01*
X163112416Y-106851871D01*
X163437097Y-106851811D01*
X163790438Y-106851752D01*
X163841541Y-106851746D01*
X164196985Y-106851689D01*
X164523594Y-106851595D01*
X164822592Y-106851455D01*
X165095204Y-106851259D01*
X165342653Y-106850997D01*
X165566164Y-106850660D01*
X165766960Y-106850239D01*
X165946266Y-106849723D01*
X166105307Y-106849104D01*
X166245306Y-106848371D01*
X166367487Y-106847515D01*
X166473075Y-106846526D01*
X166563293Y-106845394D01*
X166639366Y-106844111D01*
X166702519Y-106842666D01*
X166753975Y-106841049D01*
X166794958Y-106839252D01*
X166826692Y-106837265D01*
X166850402Y-106835077D01*
X166867312Y-106832679D01*
X166878646Y-106830063D01*
X166884448Y-106827841D01*
X166895714Y-106823088D01*
X166906058Y-106819578D01*
X166915517Y-106816068D01*
X166924132Y-106811313D01*
X166931942Y-106804069D01*
X166938985Y-106793091D01*
X166945302Y-106777135D01*
X166950931Y-106754955D01*
X166955912Y-106725309D01*
X166960284Y-106686951D01*
X166964086Y-106638637D01*
X166967358Y-106579122D01*
X166970139Y-106507163D01*
X166972467Y-106421513D01*
X166974383Y-106320931D01*
X166975925Y-106204169D01*
X166977134Y-106069985D01*
X166978047Y-105917134D01*
X166978705Y-105744371D01*
X166979146Y-105550452D01*
X166979411Y-105334133D01*
X166979536Y-105094168D01*
X166979564Y-104829314D01*
X166979533Y-104538326D01*
X166979481Y-104219960D01*
X166979449Y-103872970D01*
X166979449Y-103816852D01*
X166979467Y-103466841D01*
X166979501Y-103145636D01*
X166979515Y-102851983D01*
X166979476Y-102584628D01*
X166979351Y-102342317D01*
X166979103Y-102123797D01*
X166978700Y-101927813D01*
X166978107Y-101753113D01*
X166977335Y-101606763D01*
X166574149Y-101606763D01*
X166521174Y-101683775D01*
X166506302Y-101704768D01*
X166492895Y-101723356D01*
X166480876Y-101741120D01*
X166470170Y-101759638D01*
X166460703Y-101780491D01*
X166452397Y-101805257D01*
X166445178Y-101835517D01*
X166438969Y-101872850D01*
X166433696Y-101918835D01*
X166429282Y-101975052D01*
X166425652Y-102043080D01*
X166422730Y-102124500D01*
X166420441Y-102220890D01*
X166418709Y-102333830D01*
X166417458Y-102464899D01*
X166416614Y-102615678D01*
X166416099Y-102787746D01*
X166415839Y-102982681D01*
X166415757Y-103202065D01*
X166415779Y-103447476D01*
X166415828Y-103720494D01*
X166415840Y-103883745D01*
X166415808Y-104172583D01*
X166415763Y-104432943D01*
X166415779Y-104666406D01*
X166415931Y-104874554D01*
X166416294Y-105058969D01*
X166416943Y-105221231D01*
X166417953Y-105362922D01*
X166419399Y-105485624D01*
X166421355Y-105590917D01*
X166423896Y-105680383D01*
X166427097Y-105755603D01*
X166431033Y-105818159D01*
X166435780Y-105869632D01*
X166441410Y-105911603D01*
X166448001Y-105945653D01*
X166455626Y-105973365D01*
X166464360Y-105996318D01*
X166474279Y-106016096D01*
X166485456Y-106034278D01*
X166497967Y-106052446D01*
X166511888Y-106072182D01*
X166519997Y-106084019D01*
X166571618Y-106160728D01*
X165863914Y-106160728D01*
X165699826Y-106160681D01*
X165563367Y-106160481D01*
X165452109Y-106160033D01*
X165363621Y-106159244D01*
X165295476Y-106158020D01*
X165245243Y-106156269D01*
X165210493Y-106153897D01*
X165188798Y-106150810D01*
X165177727Y-106146916D01*
X165174851Y-106142120D01*
X165177741Y-106136330D01*
X165179333Y-106134426D01*
X165212817Y-106085070D01*
X165247296Y-106014773D01*
X165278729Y-105932227D01*
X165289738Y-105897061D01*
X165295884Y-105873175D01*
X165301078Y-105845135D01*
X165305430Y-105810165D01*
X165309048Y-105765489D01*
X165312043Y-105708329D01*
X165314523Y-105635910D01*
X165316598Y-105545455D01*
X165318377Y-105434188D01*
X165319970Y-105299331D01*
X165321486Y-105138109D01*
X165321988Y-105078597D01*
X165323342Y-104911976D01*
X165324352Y-104773026D01*
X165324941Y-104659361D01*
X165325031Y-104568596D01*
X165324544Y-104498344D01*
X165323403Y-104446219D01*
X165321530Y-104409834D01*
X165318847Y-104386804D01*
X165315276Y-104374742D01*
X165310739Y-104371261D01*
X165305159Y-104373976D01*
X165299203Y-104379722D01*
X165285417Y-104396943D01*
X165256050Y-104435651D01*
X165213179Y-104493010D01*
X165158882Y-104566181D01*
X165095237Y-104652326D01*
X165024323Y-104748609D01*
X164948216Y-104852192D01*
X164868995Y-104960237D01*
X164788738Y-105069907D01*
X164709522Y-105178364D01*
X164633426Y-105282770D01*
X164562527Y-105380289D01*
X164498903Y-105468083D01*
X164444633Y-105543314D01*
X164401793Y-105603144D01*
X164372462Y-105644737D01*
X164366380Y-105653567D01*
X164335864Y-105702698D01*
X164300172Y-105766590D01*
X164266357Y-105832542D01*
X164262069Y-105841437D01*
X164233208Y-105905602D01*
X164216452Y-105955610D01*
X164208823Y-106003307D01*
X164207334Y-106059278D01*
X164208178Y-106160728D01*
X162671204Y-106160728D01*
X162792575Y-106035938D01*
X162854879Y-105969510D01*
X162921830Y-105894316D01*
X162983132Y-105822063D01*
X163010325Y-105788310D01*
X163050849Y-105735661D01*
X163104176Y-105664817D01*
X163168747Y-105577947D01*
X163243001Y-105477222D01*
X163325381Y-105364809D01*
X163414326Y-105242879D01*
X163508278Y-105113602D01*
X163605678Y-104979146D01*
X163704965Y-104841681D01*
X163804581Y-104703377D01*
X163902967Y-104566403D01*
X163998564Y-104432929D01*
X164089812Y-104305124D01*
X164175152Y-104185157D01*
X164253025Y-104075199D01*
X164321871Y-103977418D01*
X164380132Y-103893984D01*
X164426249Y-103827066D01*
X164458661Y-103778834D01*
X164475810Y-103751458D01*
X164478150Y-103745996D01*
X164467554Y-103730917D01*
X164439868Y-103694730D01*
X164396909Y-103639701D01*
X164340490Y-103568093D01*
X164272426Y-103482171D01*
X164194533Y-103384198D01*
X164108625Y-103276438D01*
X164016517Y-103161155D01*
X163920023Y-103040614D01*
X163820959Y-102917079D01*
X163741438Y-102818082D01*
X162395426Y-102818082D01*
X162387558Y-102835333D01*
X162368480Y-102864955D01*
X162367086Y-102866928D01*
X162342073Y-102907073D01*
X162315916Y-102956109D01*
X162310725Y-102966941D01*
X162306017Y-102978163D01*
X162301857Y-102991634D01*
X162298203Y-103009210D01*
X162295015Y-103032745D01*
X162292255Y-103064094D01*
X162289881Y-103105112D01*
X162287853Y-103157652D01*
X162286132Y-103223571D01*
X162284676Y-103304723D01*
X162283447Y-103402962D01*
X162282404Y-103520143D01*
X162281506Y-103658121D01*
X162280714Y-103818751D01*
X162279988Y-104003888D01*
X162279287Y-104215386D01*
X162278577Y-104453509D01*
X162277860Y-104699967D01*
X162277282Y-104918229D01*
X162276931Y-105110155D01*
X162276898Y-105277607D01*
X162277272Y-105422449D01*
X162278143Y-105546540D01*
X162279601Y-105651744D01*
X162281736Y-105739922D01*
X162284637Y-105812936D01*
X162288394Y-105872648D01*
X162293097Y-105920920D01*
X162298835Y-105959614D01*
X162305699Y-105990591D01*
X162313778Y-106015714D01*
X162323162Y-106036845D01*
X162333940Y-106055845D01*
X162346203Y-106074576D01*
X162357520Y-106091175D01*
X162380334Y-106126182D01*
X162393843Y-106149593D01*
X162395426Y-106153880D01*
X162380905Y-106155314D01*
X162339375Y-106156646D01*
X162273889Y-106157845D01*
X162187495Y-106158877D01*
X162083246Y-106159712D01*
X161964192Y-106160317D01*
X161833384Y-106160660D01*
X161741639Y-106160728D01*
X161601855Y-106160434D01*
X161472924Y-106159593D01*
X161357758Y-106158263D01*
X161259270Y-106156503D01*
X161180376Y-106154372D01*
X161123988Y-106151928D01*
X161093020Y-106149231D01*
X161087852Y-106147538D01*
X161098100Y-106127697D01*
X161108749Y-106117006D01*
X161126286Y-106094204D01*
X161149237Y-106053929D01*
X161165110Y-106021231D01*
X161200574Y-105942799D01*
X161204668Y-104375964D01*
X161208762Y-102809130D01*
X161802094Y-102809130D01*
X161932323Y-102809349D01*
X162052670Y-102809973D01*
X162159932Y-102810953D01*
X162250907Y-102812243D01*
X162322393Y-102813792D01*
X162371186Y-102815554D01*
X162394085Y-102817479D01*
X162395426Y-102818082D01*
X163741438Y-102818082D01*
X163721140Y-102792813D01*
X163622380Y-102670081D01*
X163526493Y-102551147D01*
X163435296Y-102438274D01*
X163350602Y-102333728D01*
X163274227Y-102239771D01*
X163207984Y-102158668D01*
X163153690Y-102092684D01*
X163130838Y-102065165D01*
X163015952Y-101931149D01*
X162913971Y-101820303D01*
X162822355Y-101730009D01*
X162738566Y-101657651D01*
X162726077Y-101647842D01*
X162673473Y-101607096D01*
X163426864Y-101606930D01*
X164180254Y-101606763D01*
X164173213Y-101670639D01*
X164177610Y-101746984D01*
X164206276Y-101837882D01*
X164259496Y-101944057D01*
X164319817Y-102040292D01*
X164341409Y-102070441D01*
X164378758Y-102120441D01*
X164429637Y-102187442D01*
X164491820Y-102268591D01*
X164563081Y-102361038D01*
X164641192Y-102461933D01*
X164723928Y-102568423D01*
X164809063Y-102677658D01*
X164894369Y-102786787D01*
X164977621Y-102892959D01*
X165056592Y-102993323D01*
X165129055Y-103085027D01*
X165192785Y-103165221D01*
X165245555Y-103231054D01*
X165285138Y-103279674D01*
X165309309Y-103308230D01*
X165313381Y-103312621D01*
X165317188Y-103301962D01*
X165320135Y-103261630D01*
X165322217Y-103192000D01*
X165323429Y-103093447D01*
X165323766Y-102966344D01*
X165323223Y-102811068D01*
X165322013Y-102651319D01*
X165320253Y-102475431D01*
X165318223Y-102326667D01*
X165315593Y-102202092D01*
X165312031Y-102098771D01*
X165307206Y-102013769D01*
X165300787Y-101944152D01*
X165292444Y-101886984D01*
X165281844Y-101839331D01*
X165268657Y-101798257D01*
X165252552Y-101760827D01*
X165233197Y-101724107D01*
X165213650Y-101690771D01*
X165163063Y-101606763D01*
X166574149Y-101606763D01*
X166977335Y-101606763D01*
X166977291Y-101598442D01*
X166976218Y-101462547D01*
X166974853Y-101344174D01*
X166973162Y-101242069D01*
X166971112Y-101154979D01*
X166968668Y-101081650D01*
X166965796Y-101020829D01*
X166962462Y-100971260D01*
X166958633Y-100931692D01*
X166954274Y-100900870D01*
X166949351Y-100877540D01*
X166943830Y-100860448D01*
X166937678Y-100848342D01*
X166930859Y-100839967D01*
X166923340Y-100834070D01*
X166915087Y-100829396D01*
X166906067Y-100824693D01*
X166898084Y-100819942D01*
X166891117Y-100816512D01*
X166880232Y-100813412D01*
X166863972Y-100810625D01*
X166840879Y-100808134D01*
X166809497Y-100805923D01*
X166768368Y-100803976D01*
X166716034Y-100802276D01*
X166651039Y-100800807D01*
X166571925Y-100799552D01*
X166477236Y-100798494D01*
X166365512Y-100797618D01*
X166235299Y-100796907D01*
X166085137Y-100796345D01*
X165913570Y-100795914D01*
X165719141Y-100795599D01*
X165500392Y-100795383D01*
X165255866Y-100795250D01*
X164984105Y-100795183D01*
X164702996Y-100795165D01*
X162545722Y-100795165D01*
X162545722Y-100924024D01*
X162545722Y-100924024D01*
G37*
X162545722Y-100924024D02*
X162531256Y-101075719D01*
X162489163Y-101219003D01*
X162421393Y-101350807D01*
X162329899Y-101468058D01*
X162216635Y-101567687D01*
X162087510Y-101644729D01*
X161946028Y-101697479D01*
X161803554Y-101722201D01*
X161662896Y-101720684D01*
X161526864Y-101694717D01*
X161398267Y-101646090D01*
X161279914Y-101576593D01*
X161174614Y-101488014D01*
X161085177Y-101382143D01*
X161014412Y-101260770D01*
X160965129Y-101125683D01*
X160940135Y-100978674D01*
X160937556Y-100912244D01*
X160937556Y-100795165D01*
X160868420Y-100795165D01*
X160820081Y-100798953D01*
X160784271Y-100814662D01*
X160748183Y-100846266D01*
X160697083Y-100897367D01*
X160697083Y-103815138D01*
X160697095Y-104164138D01*
X160697138Y-104484332D01*
X160697223Y-104776974D01*
X160697361Y-105043318D01*
X160697562Y-105284617D01*
X160697838Y-105502125D01*
X160698200Y-105697095D01*
X160698658Y-105870780D01*
X160699223Y-106024435D01*
X160699906Y-106159313D01*
X160700717Y-106276668D01*
X160701669Y-106377753D01*
X160702771Y-106463821D01*
X160704035Y-106536127D01*
X160705470Y-106595923D01*
X160707089Y-106644464D01*
X160708902Y-106683003D01*
X160710920Y-106712793D01*
X160713154Y-106735089D01*
X160715614Y-106751143D01*
X160718312Y-106762210D01*
X160721258Y-106769542D01*
X160722699Y-106772005D01*
X160728241Y-106781340D01*
X160732947Y-106789923D01*
X160738045Y-106797784D01*
X160744765Y-106804955D01*
X160754336Y-106811467D01*
X160767986Y-106817353D01*
X160786945Y-106822642D01*
X160812442Y-106827368D01*
X160845705Y-106831560D01*
X160887964Y-106835251D01*
X160940448Y-106838472D01*
X161004386Y-106841254D01*
X161081007Y-106843630D01*
X161171540Y-106845629D01*
X161277214Y-106847284D01*
X161399258Y-106848627D01*
X161538901Y-106849687D01*
X161697372Y-106850498D01*
X161875900Y-106851090D01*
X162075715Y-106851495D01*
X162298045Y-106851744D01*
X162544119Y-106851869D01*
X162815166Y-106851901D01*
X163112416Y-106851871D01*
X163437097Y-106851811D01*
X163790438Y-106851752D01*
X163841541Y-106851746D01*
X164196985Y-106851689D01*
X164523594Y-106851595D01*
X164822592Y-106851455D01*
X165095204Y-106851259D01*
X165342653Y-106850997D01*
X165566164Y-106850660D01*
X165766960Y-106850239D01*
X165946266Y-106849723D01*
X166105307Y-106849104D01*
X166245306Y-106848371D01*
X166367487Y-106847515D01*
X166473075Y-106846526D01*
X166563293Y-106845394D01*
X166639366Y-106844111D01*
X166702519Y-106842666D01*
X166753975Y-106841049D01*
X166794958Y-106839252D01*
X166826692Y-106837265D01*
X166850402Y-106835077D01*
X166867312Y-106832679D01*
X166878646Y-106830063D01*
X166884448Y-106827841D01*
X166895714Y-106823088D01*
X166906058Y-106819578D01*
X166915517Y-106816068D01*
X166924132Y-106811313D01*
X166931942Y-106804069D01*
X166938985Y-106793091D01*
X166945302Y-106777135D01*
X166950931Y-106754955D01*
X166955912Y-106725309D01*
X166960284Y-106686951D01*
X166964086Y-106638637D01*
X166967358Y-106579122D01*
X166970139Y-106507163D01*
X166972467Y-106421513D01*
X166974383Y-106320931D01*
X166975925Y-106204169D01*
X166977134Y-106069985D01*
X166978047Y-105917134D01*
X166978705Y-105744371D01*
X166979146Y-105550452D01*
X166979411Y-105334133D01*
X166979536Y-105094168D01*
X166979564Y-104829314D01*
X166979533Y-104538326D01*
X166979481Y-104219960D01*
X166979449Y-103872970D01*
X166979449Y-103816852D01*
X166979467Y-103466841D01*
X166979501Y-103145636D01*
X166979515Y-102851983D01*
X166979476Y-102584628D01*
X166979351Y-102342317D01*
X166979103Y-102123797D01*
X166978700Y-101927813D01*
X166978107Y-101753113D01*
X166977335Y-101606763D01*
X166574149Y-101606763D01*
X166521174Y-101683775D01*
X166506302Y-101704768D01*
X166492895Y-101723356D01*
X166480876Y-101741120D01*
X166470170Y-101759638D01*
X166460703Y-101780491D01*
X166452397Y-101805257D01*
X166445178Y-101835517D01*
X166438969Y-101872850D01*
X166433696Y-101918835D01*
X166429282Y-101975052D01*
X166425652Y-102043080D01*
X166422730Y-102124500D01*
X166420441Y-102220890D01*
X166418709Y-102333830D01*
X166417458Y-102464899D01*
X166416614Y-102615678D01*
X166416099Y-102787746D01*
X166415839Y-102982681D01*
X166415757Y-103202065D01*
X166415779Y-103447476D01*
X166415828Y-103720494D01*
X166415840Y-103883745D01*
X166415808Y-104172583D01*
X166415763Y-104432943D01*
X166415779Y-104666406D01*
X166415931Y-104874554D01*
X166416294Y-105058969D01*
X166416943Y-105221231D01*
X166417953Y-105362922D01*
X166419399Y-105485624D01*
X166421355Y-105590917D01*
X166423896Y-105680383D01*
X166427097Y-105755603D01*
X166431033Y-105818159D01*
X166435780Y-105869632D01*
X166441410Y-105911603D01*
X166448001Y-105945653D01*
X166455626Y-105973365D01*
X166464360Y-105996318D01*
X166474279Y-106016096D01*
X166485456Y-106034278D01*
X166497967Y-106052446D01*
X166511888Y-106072182D01*
X166519997Y-106084019D01*
X166571618Y-106160728D01*
X165863914Y-106160728D01*
X165699826Y-106160681D01*
X165563367Y-106160481D01*
X165452109Y-106160033D01*
X165363621Y-106159244D01*
X165295476Y-106158020D01*
X165245243Y-106156269D01*
X165210493Y-106153897D01*
X165188798Y-106150810D01*
X165177727Y-106146916D01*
X165174851Y-106142120D01*
X165177741Y-106136330D01*
X165179333Y-106134426D01*
X165212817Y-106085070D01*
X165247296Y-106014773D01*
X165278729Y-105932227D01*
X165289738Y-105897061D01*
X165295884Y-105873175D01*
X165301078Y-105845135D01*
X165305430Y-105810165D01*
X165309048Y-105765489D01*
X165312043Y-105708329D01*
X165314523Y-105635910D01*
X165316598Y-105545455D01*
X165318377Y-105434188D01*
X165319970Y-105299331D01*
X165321486Y-105138109D01*
X165321988Y-105078597D01*
X165323342Y-104911976D01*
X165324352Y-104773026D01*
X165324941Y-104659361D01*
X165325031Y-104568596D01*
X165324544Y-104498344D01*
X165323403Y-104446219D01*
X165321530Y-104409834D01*
X165318847Y-104386804D01*
X165315276Y-104374742D01*
X165310739Y-104371261D01*
X165305159Y-104373976D01*
X165299203Y-104379722D01*
X165285417Y-104396943D01*
X165256050Y-104435651D01*
X165213179Y-104493010D01*
X165158882Y-104566181D01*
X165095237Y-104652326D01*
X165024323Y-104748609D01*
X164948216Y-104852192D01*
X164868995Y-104960237D01*
X164788738Y-105069907D01*
X164709522Y-105178364D01*
X164633426Y-105282770D01*
X164562527Y-105380289D01*
X164498903Y-105468083D01*
X164444633Y-105543314D01*
X164401793Y-105603144D01*
X164372462Y-105644737D01*
X164366380Y-105653567D01*
X164335864Y-105702698D01*
X164300172Y-105766590D01*
X164266357Y-105832542D01*
X164262069Y-105841437D01*
X164233208Y-105905602D01*
X164216452Y-105955610D01*
X164208823Y-106003307D01*
X164207334Y-106059278D01*
X164208178Y-106160728D01*
X162671204Y-106160728D01*
X162792575Y-106035938D01*
X162854879Y-105969510D01*
X162921830Y-105894316D01*
X162983132Y-105822063D01*
X163010325Y-105788310D01*
X163050849Y-105735661D01*
X163104176Y-105664817D01*
X163168747Y-105577947D01*
X163243001Y-105477222D01*
X163325381Y-105364809D01*
X163414326Y-105242879D01*
X163508278Y-105113602D01*
X163605678Y-104979146D01*
X163704965Y-104841681D01*
X163804581Y-104703377D01*
X163902967Y-104566403D01*
X163998564Y-104432929D01*
X164089812Y-104305124D01*
X164175152Y-104185157D01*
X164253025Y-104075199D01*
X164321871Y-103977418D01*
X164380132Y-103893984D01*
X164426249Y-103827066D01*
X164458661Y-103778834D01*
X164475810Y-103751458D01*
X164478150Y-103745996D01*
X164467554Y-103730917D01*
X164439868Y-103694730D01*
X164396909Y-103639701D01*
X164340490Y-103568093D01*
X164272426Y-103482171D01*
X164194533Y-103384198D01*
X164108625Y-103276438D01*
X164016517Y-103161155D01*
X163920023Y-103040614D01*
X163820959Y-102917079D01*
X163741438Y-102818082D01*
X162395426Y-102818082D01*
X162387558Y-102835333D01*
X162368480Y-102864955D01*
X162367086Y-102866928D01*
X162342073Y-102907073D01*
X162315916Y-102956109D01*
X162310725Y-102966941D01*
X162306017Y-102978163D01*
X162301857Y-102991634D01*
X162298203Y-103009210D01*
X162295015Y-103032745D01*
X162292255Y-103064094D01*
X162289881Y-103105112D01*
X162287853Y-103157652D01*
X162286132Y-103223571D01*
X162284676Y-103304723D01*
X162283447Y-103402962D01*
X162282404Y-103520143D01*
X162281506Y-103658121D01*
X162280714Y-103818751D01*
X162279988Y-104003888D01*
X162279287Y-104215386D01*
X162278577Y-104453509D01*
X162277860Y-104699967D01*
X162277282Y-104918229D01*
X162276931Y-105110155D01*
X162276898Y-105277607D01*
X162277272Y-105422449D01*
X162278143Y-105546540D01*
X162279601Y-105651744D01*
X162281736Y-105739922D01*
X162284637Y-105812936D01*
X162288394Y-105872648D01*
X162293097Y-105920920D01*
X162298835Y-105959614D01*
X162305699Y-105990591D01*
X162313778Y-106015714D01*
X162323162Y-106036845D01*
X162333940Y-106055845D01*
X162346203Y-106074576D01*
X162357520Y-106091175D01*
X162380334Y-106126182D01*
X162393843Y-106149593D01*
X162395426Y-106153880D01*
X162380905Y-106155314D01*
X162339375Y-106156646D01*
X162273889Y-106157845D01*
X162187495Y-106158877D01*
X162083246Y-106159712D01*
X161964192Y-106160317D01*
X161833384Y-106160660D01*
X161741639Y-106160728D01*
X161601855Y-106160434D01*
X161472924Y-106159593D01*
X161357758Y-106158263D01*
X161259270Y-106156503D01*
X161180376Y-106154372D01*
X161123988Y-106151928D01*
X161093020Y-106149231D01*
X161087852Y-106147538D01*
X161098100Y-106127697D01*
X161108749Y-106117006D01*
X161126286Y-106094204D01*
X161149237Y-106053929D01*
X161165110Y-106021231D01*
X161200574Y-105942799D01*
X161204668Y-104375964D01*
X161208762Y-102809130D01*
X161802094Y-102809130D01*
X161932323Y-102809349D01*
X162052670Y-102809973D01*
X162159932Y-102810953D01*
X162250907Y-102812243D01*
X162322393Y-102813792D01*
X162371186Y-102815554D01*
X162394085Y-102817479D01*
X162395426Y-102818082D01*
X163741438Y-102818082D01*
X163721140Y-102792813D01*
X163622380Y-102670081D01*
X163526493Y-102551147D01*
X163435296Y-102438274D01*
X163350602Y-102333728D01*
X163274227Y-102239771D01*
X163207984Y-102158668D01*
X163153690Y-102092684D01*
X163130838Y-102065165D01*
X163015952Y-101931149D01*
X162913971Y-101820303D01*
X162822355Y-101730009D01*
X162738566Y-101657651D01*
X162726077Y-101647842D01*
X162673473Y-101607096D01*
X163426864Y-101606930D01*
X164180254Y-101606763D01*
X164173213Y-101670639D01*
X164177610Y-101746984D01*
X164206276Y-101837882D01*
X164259496Y-101944057D01*
X164319817Y-102040292D01*
X164341409Y-102070441D01*
X164378758Y-102120441D01*
X164429637Y-102187442D01*
X164491820Y-102268591D01*
X164563081Y-102361038D01*
X164641192Y-102461933D01*
X164723928Y-102568423D01*
X164809063Y-102677658D01*
X164894369Y-102786787D01*
X164977621Y-102892959D01*
X165056592Y-102993323D01*
X165129055Y-103085027D01*
X165192785Y-103165221D01*
X165245555Y-103231054D01*
X165285138Y-103279674D01*
X165309309Y-103308230D01*
X165313381Y-103312621D01*
X165317188Y-103301962D01*
X165320135Y-103261630D01*
X165322217Y-103192000D01*
X165323429Y-103093447D01*
X165323766Y-102966344D01*
X165323223Y-102811068D01*
X165322013Y-102651319D01*
X165320253Y-102475431D01*
X165318223Y-102326667D01*
X165315593Y-102202092D01*
X165312031Y-102098771D01*
X165307206Y-102013769D01*
X165300787Y-101944152D01*
X165292444Y-101886984D01*
X165281844Y-101839331D01*
X165268657Y-101798257D01*
X165252552Y-101760827D01*
X165233197Y-101724107D01*
X165213650Y-101690771D01*
X165163063Y-101606763D01*
X166574149Y-101606763D01*
X166977335Y-101606763D01*
X166977291Y-101598442D01*
X166976218Y-101462547D01*
X166974853Y-101344174D01*
X166973162Y-101242069D01*
X166971112Y-101154979D01*
X166968668Y-101081650D01*
X166965796Y-101020829D01*
X166962462Y-100971260D01*
X166958633Y-100931692D01*
X166954274Y-100900870D01*
X166949351Y-100877540D01*
X166943830Y-100860448D01*
X166937678Y-100848342D01*
X166930859Y-100839967D01*
X166923340Y-100834070D01*
X166915087Y-100829396D01*
X166906067Y-100824693D01*
X166898084Y-100819942D01*
X166891117Y-100816512D01*
X166880232Y-100813412D01*
X166863972Y-100810625D01*
X166840879Y-100808134D01*
X166809497Y-100805923D01*
X166768368Y-100803976D01*
X166716034Y-100802276D01*
X166651039Y-100800807D01*
X166571925Y-100799552D01*
X166477236Y-100798494D01*
X166365512Y-100797618D01*
X166235299Y-100796907D01*
X166085137Y-100796345D01*
X165913570Y-100795914D01*
X165719141Y-100795599D01*
X165500392Y-100795383D01*
X165255866Y-100795250D01*
X164984105Y-100795183D01*
X164702996Y-100795165D01*
X162545722Y-100795165D01*
X162545722Y-100924024D01*
G36*
X158185742Y-101536473D02*
X157972536Y-101564663D01*
X157754273Y-101618103D01*
X157528204Y-101697325D01*
X157291582Y-101802856D01*
X157276580Y-101810238D01*
X157199768Y-101847550D01*
X157131140Y-101879605D01*
X157075703Y-101904166D01*
X157038464Y-101918992D01*
X157025722Y-101922384D01*
X157000137Y-101929051D01*
X156993997Y-101934651D01*
X157000792Y-101948541D01*
X157022147Y-101983540D01*
X157055604Y-102035980D01*
X157098706Y-102102194D01*
X157148992Y-102178514D01*
X157204005Y-102261273D01*
X157261286Y-102346801D01*
X157318377Y-102431433D01*
X157372817Y-102511500D01*
X157422150Y-102583334D01*
X157463917Y-102643268D01*
X157495658Y-102687635D01*
X157514915Y-102712765D01*
X157517558Y-102715680D01*
X157531029Y-102709491D01*
X157560773Y-102686623D01*
X157601473Y-102651314D01*
X157622434Y-102632040D01*
X157750896Y-102531814D01*
X157892966Y-102458002D01*
X158046744Y-102411270D01*
X158210328Y-102392284D01*
X158302725Y-102393843D01*
X158464005Y-102416690D01*
X158609413Y-102464462D01*
X158739384Y-102537508D01*
X158854353Y-102636176D01*
X158954754Y-102760815D01*
X159041022Y-102911776D01*
X159090839Y-103027059D01*
X159149222Y-103207724D01*
X159192252Y-103404078D01*
X159220040Y-103611057D01*
X159232695Y-103823598D01*
X159230330Y-104036638D01*
X159213055Y-104245113D01*
X159180981Y-104443961D01*
X159134218Y-104628118D01*
X159072877Y-104792520D01*
X159051200Y-104838124D01*
X158960340Y-104990014D01*
X158853219Y-105118481D01*
X158731412Y-105222478D01*
X158596490Y-105300958D01*
X158450029Y-105352874D01*
X158293600Y-105377179D01*
X158238392Y-105378967D01*
X158076554Y-105364428D01*
X157916209Y-105320737D01*
X157759390Y-105248798D01*
X157608133Y-105149512D01*
X157486436Y-105045232D01*
X157424488Y-104985945D01*
X157183155Y-105381709D01*
X157123114Y-105480446D01*
X157068211Y-105571262D01*
X157020394Y-105650895D01*
X156981609Y-105716080D01*
X156953806Y-105763554D01*
X156938930Y-105790055D01*
X156936997Y-105794175D01*
X156947953Y-105807009D01*
X156982007Y-105830016D01*
X157034855Y-105861015D01*
X157102189Y-105897829D01*
X157179706Y-105938278D01*
X157263098Y-105980182D01*
X157348060Y-106021363D01*
X157430286Y-106059642D01*
X157505471Y-106092838D01*
X157569309Y-106118775D01*
X157600533Y-106129997D01*
X157778623Y-106180342D01*
X157962209Y-106213630D01*
X158158858Y-106230943D01*
X158327659Y-106234043D01*
X158418133Y-106232585D01*
X158505471Y-106229792D01*
X158581932Y-106226009D01*
X158639770Y-106221578D01*
X158658549Y-106219337D01*
X158843628Y-106180947D01*
X159032051Y-106120877D01*
X159215090Y-106042702D01*
X159384013Y-105950000D01*
X159487201Y-105879864D01*
X159656826Y-105735809D01*
X159814330Y-105567302D01*
X159956795Y-105378508D01*
X160081303Y-105173591D01*
X160184938Y-104956715D01*
X160243324Y-104800550D01*
X160310222Y-104556076D01*
X160354821Y-104297064D01*
X160377135Y-104029119D01*
X160377179Y-103757845D01*
X160354966Y-103488847D01*
X160310509Y-103227729D01*
X160243824Y-102980095D01*
X160238743Y-102964666D01*
X160155022Y-102748915D01*
X160052844Y-102551983D01*
X159928742Y-102368299D01*
X159779250Y-102192288D01*
X159720850Y-102132027D01*
X159539596Y-101967016D01*
X159353263Y-101830495D01*
X159158991Y-101720979D01*
X158953921Y-101636981D01*
X158735190Y-101577015D01*
X158607970Y-101553730D01*
X158396637Y-101533005D01*
X158185742Y-101536473D01*
X158185742Y-101536473D01*
G37*
X158185742Y-101536473D02*
X157972536Y-101564663D01*
X157754273Y-101618103D01*
X157528204Y-101697325D01*
X157291582Y-101802856D01*
X157276580Y-101810238D01*
X157199768Y-101847550D01*
X157131140Y-101879605D01*
X157075703Y-101904166D01*
X157038464Y-101918992D01*
X157025722Y-101922384D01*
X157000137Y-101929051D01*
X156993997Y-101934651D01*
X157000792Y-101948541D01*
X157022147Y-101983540D01*
X157055604Y-102035980D01*
X157098706Y-102102194D01*
X157148992Y-102178514D01*
X157204005Y-102261273D01*
X157261286Y-102346801D01*
X157318377Y-102431433D01*
X157372817Y-102511500D01*
X157422150Y-102583334D01*
X157463917Y-102643268D01*
X157495658Y-102687635D01*
X157514915Y-102712765D01*
X157517558Y-102715680D01*
X157531029Y-102709491D01*
X157560773Y-102686623D01*
X157601473Y-102651314D01*
X157622434Y-102632040D01*
X157750896Y-102531814D01*
X157892966Y-102458002D01*
X158046744Y-102411270D01*
X158210328Y-102392284D01*
X158302725Y-102393843D01*
X158464005Y-102416690D01*
X158609413Y-102464462D01*
X158739384Y-102537508D01*
X158854353Y-102636176D01*
X158954754Y-102760815D01*
X159041022Y-102911776D01*
X159090839Y-103027059D01*
X159149222Y-103207724D01*
X159192252Y-103404078D01*
X159220040Y-103611057D01*
X159232695Y-103823598D01*
X159230330Y-104036638D01*
X159213055Y-104245113D01*
X159180981Y-104443961D01*
X159134218Y-104628118D01*
X159072877Y-104792520D01*
X159051200Y-104838124D01*
X158960340Y-104990014D01*
X158853219Y-105118481D01*
X158731412Y-105222478D01*
X158596490Y-105300958D01*
X158450029Y-105352874D01*
X158293600Y-105377179D01*
X158238392Y-105378967D01*
X158076554Y-105364428D01*
X157916209Y-105320737D01*
X157759390Y-105248798D01*
X157608133Y-105149512D01*
X157486436Y-105045232D01*
X157424488Y-104985945D01*
X157183155Y-105381709D01*
X157123114Y-105480446D01*
X157068211Y-105571262D01*
X157020394Y-105650895D01*
X156981609Y-105716080D01*
X156953806Y-105763554D01*
X156938930Y-105790055D01*
X156936997Y-105794175D01*
X156947953Y-105807009D01*
X156982007Y-105830016D01*
X157034855Y-105861015D01*
X157102189Y-105897829D01*
X157179706Y-105938278D01*
X157263098Y-105980182D01*
X157348060Y-106021363D01*
X157430286Y-106059642D01*
X157505471Y-106092838D01*
X157569309Y-106118775D01*
X157600533Y-106129997D01*
X157778623Y-106180342D01*
X157962209Y-106213630D01*
X158158858Y-106230943D01*
X158327659Y-106234043D01*
X158418133Y-106232585D01*
X158505471Y-106229792D01*
X158581932Y-106226009D01*
X158639770Y-106221578D01*
X158658549Y-106219337D01*
X158843628Y-106180947D01*
X159032051Y-106120877D01*
X159215090Y-106042702D01*
X159384013Y-105950000D01*
X159487201Y-105879864D01*
X159656826Y-105735809D01*
X159814330Y-105567302D01*
X159956795Y-105378508D01*
X160081303Y-105173591D01*
X160184938Y-104956715D01*
X160243324Y-104800550D01*
X160310222Y-104556076D01*
X160354821Y-104297064D01*
X160377135Y-104029119D01*
X160377179Y-103757845D01*
X160354966Y-103488847D01*
X160310509Y-103227729D01*
X160243824Y-102980095D01*
X160238743Y-102964666D01*
X160155022Y-102748915D01*
X160052844Y-102551983D01*
X159928742Y-102368299D01*
X159779250Y-102192288D01*
X159720850Y-102132027D01*
X159539596Y-101967016D01*
X159353263Y-101830495D01*
X159158991Y-101720979D01*
X158953921Y-101636981D01*
X158735190Y-101577015D01*
X158607970Y-101553730D01*
X158396637Y-101533005D01*
X158185742Y-101536473D01*
G36*
X155063508Y-102757971D02*
X154861250Y-102784618D01*
X154681164Y-102829398D01*
X154522089Y-102892669D01*
X154382862Y-102974787D01*
X154279535Y-103059409D01*
X154187884Y-103158108D01*
X154116334Y-103264313D01*
X154059214Y-103387092D01*
X154038612Y-103444433D01*
X154021492Y-103496331D01*
X154006578Y-103544455D01*
X153993698Y-103591246D01*
X153982680Y-103639144D01*
X153973350Y-103690587D01*
X153965537Y-103748016D01*
X153959068Y-103813870D01*
X153953770Y-103890589D01*
X153949470Y-103980612D01*
X153945997Y-104086380D01*
X153943177Y-104210331D01*
X153940838Y-104354906D01*
X153938807Y-104522544D01*
X153936912Y-104715685D01*
X153935245Y-104905757D01*
X153933479Y-105113703D01*
X153931874Y-105293797D01*
X153930263Y-105448244D01*
X153928480Y-105579249D01*
X153926357Y-105689017D01*
X153923728Y-105779753D01*
X153920424Y-105853662D01*
X153916281Y-105912950D01*
X153911130Y-105959822D01*
X153904804Y-105996483D01*
X153897137Y-106025137D01*
X153887962Y-106047990D01*
X153877112Y-106067248D01*
X153864419Y-106085115D01*
X153849717Y-106103796D01*
X153843991Y-106111029D01*
X153822930Y-106141436D01*
X153813562Y-106162142D01*
X153813532Y-106162754D01*
X153828014Y-106165682D01*
X153869267Y-106168378D01*
X153934003Y-106170769D01*
X154018936Y-106172778D01*
X154120777Y-106174329D01*
X154236240Y-106175346D01*
X154362036Y-106175753D01*
X154376557Y-106175757D01*
X154939581Y-106175757D01*
X154943924Y-106047858D01*
X154948266Y-105919958D01*
X155030929Y-105987841D01*
X155160510Y-106077726D01*
X155306828Y-106150541D01*
X155421944Y-106190787D01*
X155513902Y-106210342D01*
X155624874Y-106223647D01*
X155744385Y-106230285D01*
X155861963Y-106229843D01*
X155967133Y-106221905D01*
X156015367Y-106214298D01*
X156201782Y-106163890D01*
X156370100Y-106090874D01*
X156519104Y-105996337D01*
X156647576Y-105881365D01*
X156754301Y-105747046D01*
X156838060Y-105594467D01*
X156897140Y-105426594D01*
X156913562Y-105351261D01*
X156923693Y-105268451D01*
X156928524Y-105168815D01*
X156929183Y-105123686D01*
X156929096Y-105119446D01*
X155917344Y-105119446D01*
X155904971Y-105219367D01*
X155867444Y-105304343D01*
X155802915Y-105378417D01*
X155796182Y-105384292D01*
X155731885Y-105430659D01*
X155663042Y-105460724D01*
X155582186Y-105476595D01*
X155481851Y-105480380D01*
X155457743Y-105479840D01*
X155386091Y-105476309D01*
X155332797Y-105469098D01*
X155286177Y-105455566D01*
X155234548Y-105433072D01*
X155220380Y-105426178D01*
X155139632Y-105378478D01*
X155077299Y-105321719D01*
X155060341Y-105301431D01*
X155000870Y-105226194D01*
X155000870Y-104965413D01*
X155001583Y-104860706D01*
X155003833Y-104783552D01*
X155007785Y-104731478D01*
X155013604Y-104702009D01*
X155019042Y-104693400D01*
X155040245Y-104689188D01*
X155085222Y-104685697D01*
X155147695Y-104683256D01*
X155221381Y-104682194D01*
X155233214Y-104682174D01*
X155394010Y-104689169D01*
X155530701Y-104710693D01*
X155645935Y-104747569D01*
X155742359Y-104800620D01*
X155815491Y-104863127D01*
X155874799Y-104940195D01*
X155907715Y-105024135D01*
X155917344Y-105119446D01*
X156929096Y-105119446D01*
X156926609Y-104998864D01*
X156915499Y-104893821D01*
X156893871Y-104798998D01*
X156859739Y-104704837D01*
X156827791Y-104635111D01*
X156749748Y-104508236D01*
X156645773Y-104391042D01*
X156519030Y-104285662D01*
X156372682Y-104194228D01*
X156209894Y-104118874D01*
X156033829Y-104061732D01*
X155947734Y-104041842D01*
X155766426Y-104012413D01*
X155568792Y-103992997D01*
X155367150Y-103984502D01*
X155198654Y-103986675D01*
X154983125Y-103995700D01*
X154993003Y-103917178D01*
X155018689Y-103785170D01*
X155060139Y-103677702D01*
X155118499Y-103593952D01*
X155194917Y-103533095D01*
X155290539Y-103494308D01*
X155406510Y-103476766D01*
X155543979Y-103479647D01*
X155594538Y-103484974D01*
X155782514Y-103518482D01*
X155964662Y-103573113D01*
X156090515Y-103623706D01*
X156150639Y-103649501D01*
X156201806Y-103670231D01*
X156236889Y-103683071D01*
X156247125Y-103685797D01*
X156260098Y-103673710D01*
X156282357Y-103635142D01*
X156314110Y-103569655D01*
X156355568Y-103476816D01*
X156406939Y-103356187D01*
X156415723Y-103335165D01*
X156455739Y-103238885D01*
X156491659Y-103151885D01*
X156521931Y-103077969D01*
X156545004Y-103020941D01*
X156559326Y-102984607D01*
X156563462Y-102972839D01*
X156550150Y-102966509D01*
X156515167Y-102959483D01*
X156477526Y-102954585D01*
X156437377Y-102948252D01*
X156373754Y-102935677D01*
X156292303Y-102918092D01*
X156198664Y-102896730D01*
X156098480Y-102872825D01*
X156060455Y-102863475D01*
X155920581Y-102829408D01*
X155803869Y-102802698D01*
X155704565Y-102782491D01*
X155616915Y-102767934D01*
X155535164Y-102758173D01*
X155453559Y-102752356D01*
X155366344Y-102749630D01*
X155289102Y-102749100D01*
X155063508Y-102757971D01*
X155063508Y-102757971D01*
G37*
X155063508Y-102757971D02*
X154861250Y-102784618D01*
X154681164Y-102829398D01*
X154522089Y-102892669D01*
X154382862Y-102974787D01*
X154279535Y-103059409D01*
X154187884Y-103158108D01*
X154116334Y-103264313D01*
X154059214Y-103387092D01*
X154038612Y-103444433D01*
X154021492Y-103496331D01*
X154006578Y-103544455D01*
X153993698Y-103591246D01*
X153982680Y-103639144D01*
X153973350Y-103690587D01*
X153965537Y-103748016D01*
X153959068Y-103813870D01*
X153953770Y-103890589D01*
X153949470Y-103980612D01*
X153945997Y-104086380D01*
X153943177Y-104210331D01*
X153940838Y-104354906D01*
X153938807Y-104522544D01*
X153936912Y-104715685D01*
X153935245Y-104905757D01*
X153933479Y-105113703D01*
X153931874Y-105293797D01*
X153930263Y-105448244D01*
X153928480Y-105579249D01*
X153926357Y-105689017D01*
X153923728Y-105779753D01*
X153920424Y-105853662D01*
X153916281Y-105912950D01*
X153911130Y-105959822D01*
X153904804Y-105996483D01*
X153897137Y-106025137D01*
X153887962Y-106047990D01*
X153877112Y-106067248D01*
X153864419Y-106085115D01*
X153849717Y-106103796D01*
X153843991Y-106111029D01*
X153822930Y-106141436D01*
X153813562Y-106162142D01*
X153813532Y-106162754D01*
X153828014Y-106165682D01*
X153869267Y-106168378D01*
X153934003Y-106170769D01*
X154018936Y-106172778D01*
X154120777Y-106174329D01*
X154236240Y-106175346D01*
X154362036Y-106175753D01*
X154376557Y-106175757D01*
X154939581Y-106175757D01*
X154943924Y-106047858D01*
X154948266Y-105919958D01*
X155030929Y-105987841D01*
X155160510Y-106077726D01*
X155306828Y-106150541D01*
X155421944Y-106190787D01*
X155513902Y-106210342D01*
X155624874Y-106223647D01*
X155744385Y-106230285D01*
X155861963Y-106229843D01*
X155967133Y-106221905D01*
X156015367Y-106214298D01*
X156201782Y-106163890D01*
X156370100Y-106090874D01*
X156519104Y-105996337D01*
X156647576Y-105881365D01*
X156754301Y-105747046D01*
X156838060Y-105594467D01*
X156897140Y-105426594D01*
X156913562Y-105351261D01*
X156923693Y-105268451D01*
X156928524Y-105168815D01*
X156929183Y-105123686D01*
X156929096Y-105119446D01*
X155917344Y-105119446D01*
X155904971Y-105219367D01*
X155867444Y-105304343D01*
X155802915Y-105378417D01*
X155796182Y-105384292D01*
X155731885Y-105430659D01*
X155663042Y-105460724D01*
X155582186Y-105476595D01*
X155481851Y-105480380D01*
X155457743Y-105479840D01*
X155386091Y-105476309D01*
X155332797Y-105469098D01*
X155286177Y-105455566D01*
X155234548Y-105433072D01*
X155220380Y-105426178D01*
X155139632Y-105378478D01*
X155077299Y-105321719D01*
X155060341Y-105301431D01*
X155000870Y-105226194D01*
X155000870Y-104965413D01*
X155001583Y-104860706D01*
X155003833Y-104783552D01*
X155007785Y-104731478D01*
X155013604Y-104702009D01*
X155019042Y-104693400D01*
X155040245Y-104689188D01*
X155085222Y-104685697D01*
X155147695Y-104683256D01*
X155221381Y-104682194D01*
X155233214Y-104682174D01*
X155394010Y-104689169D01*
X155530701Y-104710693D01*
X155645935Y-104747569D01*
X155742359Y-104800620D01*
X155815491Y-104863127D01*
X155874799Y-104940195D01*
X155907715Y-105024135D01*
X155917344Y-105119446D01*
X156929096Y-105119446D01*
X156926609Y-104998864D01*
X156915499Y-104893821D01*
X156893871Y-104798998D01*
X156859739Y-104704837D01*
X156827791Y-104635111D01*
X156749748Y-104508236D01*
X156645773Y-104391042D01*
X156519030Y-104285662D01*
X156372682Y-104194228D01*
X156209894Y-104118874D01*
X156033829Y-104061732D01*
X155947734Y-104041842D01*
X155766426Y-104012413D01*
X155568792Y-103992997D01*
X155367150Y-103984502D01*
X155198654Y-103986675D01*
X154983125Y-103995700D01*
X154993003Y-103917178D01*
X155018689Y-103785170D01*
X155060139Y-103677702D01*
X155118499Y-103593952D01*
X155194917Y-103533095D01*
X155290539Y-103494308D01*
X155406510Y-103476766D01*
X155543979Y-103479647D01*
X155594538Y-103484974D01*
X155782514Y-103518482D01*
X155964662Y-103573113D01*
X156090515Y-103623706D01*
X156150639Y-103649501D01*
X156201806Y-103670231D01*
X156236889Y-103683071D01*
X156247125Y-103685797D01*
X156260098Y-103673710D01*
X156282357Y-103635142D01*
X156314110Y-103569655D01*
X156355568Y-103476816D01*
X156406939Y-103356187D01*
X156415723Y-103335165D01*
X156455739Y-103238885D01*
X156491659Y-103151885D01*
X156521931Y-103077969D01*
X156545004Y-103020941D01*
X156559326Y-102984607D01*
X156563462Y-102972839D01*
X156550150Y-102966509D01*
X156515167Y-102959483D01*
X156477526Y-102954585D01*
X156437377Y-102948252D01*
X156373754Y-102935677D01*
X156292303Y-102918092D01*
X156198664Y-102896730D01*
X156098480Y-102872825D01*
X156060455Y-102863475D01*
X155920581Y-102829408D01*
X155803869Y-102802698D01*
X155704565Y-102782491D01*
X155616915Y-102767934D01*
X155535164Y-102758173D01*
X155453559Y-102752356D01*
X155366344Y-102749630D01*
X155289102Y-102749100D01*
X155063508Y-102757971D01*
G36*
X150386526Y-103564367D02*
X150386500Y-103876461D01*
X150386465Y-104159962D01*
X150386369Y-104416336D01*
X150386159Y-104647048D01*
X150385784Y-104853565D01*
X150385191Y-105037351D01*
X150384330Y-105199874D01*
X150383147Y-105342598D01*
X150381592Y-105466990D01*
X150379611Y-105574515D01*
X150377154Y-105666640D01*
X150374167Y-105744830D01*
X150370600Y-105810551D01*
X150366401Y-105865269D01*
X150361516Y-105910449D01*
X150355896Y-105947558D01*
X150349487Y-105978062D01*
X150342237Y-106003426D01*
X150334095Y-106025115D01*
X150325010Y-106044597D01*
X150314927Y-106063337D01*
X150303797Y-106082800D01*
X150296883Y-106094924D01*
X150251264Y-106175757D01*
X151393769Y-106175757D01*
X151393769Y-106048006D01*
X151394743Y-105990273D01*
X151397342Y-105946119D01*
X151401082Y-105922446D01*
X151402735Y-105920254D01*
X151417942Y-105929419D01*
X151448183Y-105953175D01*
X151478405Y-105978969D01*
X151551076Y-106033201D01*
X151643577Y-106087792D01*
X151746161Y-106137725D01*
X151849081Y-106177987D01*
X151890157Y-106190833D01*
X151981351Y-106210225D01*
X152091657Y-106223487D01*
X152210671Y-106230202D01*
X152327995Y-106229953D01*
X152433227Y-106222324D01*
X152483414Y-106214592D01*
X152667270Y-106163918D01*
X152836755Y-106087067D01*
X152990954Y-105984737D01*
X153128956Y-105857628D01*
X153249849Y-105706440D01*
X153338786Y-105558927D01*
X153411835Y-105403483D01*
X153467752Y-105244586D01*
X153507689Y-105076843D01*
X153532793Y-104894861D01*
X153544214Y-104693245D01*
X153545181Y-104590136D01*
X153542393Y-104514545D01*
X152438540Y-104514545D01*
X152438263Y-104638452D01*
X152434385Y-104755199D01*
X152426846Y-104857820D01*
X152415589Y-104939349D01*
X152412149Y-104955779D01*
X152369811Y-105098612D01*
X152314348Y-105214473D01*
X152245297Y-105303654D01*
X152162196Y-105366444D01*
X152064582Y-105403137D01*
X151951990Y-105414021D01*
X151823959Y-105399390D01*
X151739449Y-105378458D01*
X151674022Y-105354241D01*
X151601957Y-105319828D01*
X151547822Y-105288272D01*
X151453887Y-105226540D01*
X151453887Y-103695220D01*
X151543631Y-103637216D01*
X151648177Y-103582733D01*
X151760258Y-103547251D01*
X151873589Y-103531376D01*
X151981883Y-103535712D01*
X152078855Y-103560865D01*
X152121397Y-103581593D01*
X152198515Y-103638838D01*
X152263695Y-103714422D01*
X152318487Y-103811108D01*
X152364439Y-103931658D01*
X152403103Y-104078833D01*
X152404809Y-104086645D01*
X152418350Y-104169527D01*
X152428524Y-104273116D01*
X152435274Y-104390444D01*
X152438540Y-104514545D01*
X153542393Y-104514545D01*
X153534728Y-104306801D01*
X153505512Y-104046073D01*
X153457604Y-103808123D01*
X153391072Y-103593124D01*
X153305985Y-103401250D01*
X153202413Y-103232674D01*
X153080425Y-103087568D01*
X152940089Y-102966105D01*
X152879959Y-102924898D01*
X152745559Y-102850145D01*
X152608043Y-102797409D01*
X152461476Y-102765243D01*
X152299927Y-102752203D01*
X152176769Y-102753595D01*
X152004152Y-102768195D01*
X151854249Y-102797239D01*
X151722722Y-102842063D01*
X151605235Y-102904000D01*
X151540177Y-102949549D01*
X151501080Y-102978725D01*
X151472202Y-102998656D01*
X151461272Y-103004515D01*
X151459122Y-102990097D01*
X151457404Y-102949287D01*
X151456100Y-102885747D01*
X151455195Y-102803140D01*
X151454672Y-102705130D01*
X151454513Y-102595379D01*
X151454702Y-102477551D01*
X151455222Y-102355307D01*
X151456056Y-102232313D01*
X151457188Y-102112230D01*
X151458601Y-101998721D01*
X151460277Y-101895450D01*
X151462200Y-101806080D01*
X151464354Y-101734273D01*
X151466720Y-101683693D01*
X151467375Y-101674396D01*
X151477463Y-101580647D01*
X151492855Y-101507224D01*
X151516472Y-101444489D01*
X151551233Y-101382802D01*
X151559577Y-101370047D01*
X151592105Y-101321201D01*
X150386787Y-101321201D01*
X150386526Y-103564367D01*
X150386526Y-103564367D01*
G37*
X150386526Y-103564367D02*
X150386500Y-103876461D01*
X150386465Y-104159962D01*
X150386369Y-104416336D01*
X150386159Y-104647048D01*
X150385784Y-104853565D01*
X150385191Y-105037351D01*
X150384330Y-105199874D01*
X150383147Y-105342598D01*
X150381592Y-105466990D01*
X150379611Y-105574515D01*
X150377154Y-105666640D01*
X150374167Y-105744830D01*
X150370600Y-105810551D01*
X150366401Y-105865269D01*
X150361516Y-105910449D01*
X150355896Y-105947558D01*
X150349487Y-105978062D01*
X150342237Y-106003426D01*
X150334095Y-106025115D01*
X150325010Y-106044597D01*
X150314927Y-106063337D01*
X150303797Y-106082800D01*
X150296883Y-106094924D01*
X150251264Y-106175757D01*
X151393769Y-106175757D01*
X151393769Y-106048006D01*
X151394743Y-105990273D01*
X151397342Y-105946119D01*
X151401082Y-105922446D01*
X151402735Y-105920254D01*
X151417942Y-105929419D01*
X151448183Y-105953175D01*
X151478405Y-105978969D01*
X151551076Y-106033201D01*
X151643577Y-106087792D01*
X151746161Y-106137725D01*
X151849081Y-106177987D01*
X151890157Y-106190833D01*
X151981351Y-106210225D01*
X152091657Y-106223487D01*
X152210671Y-106230202D01*
X152327995Y-106229953D01*
X152433227Y-106222324D01*
X152483414Y-106214592D01*
X152667270Y-106163918D01*
X152836755Y-106087067D01*
X152990954Y-105984737D01*
X153128956Y-105857628D01*
X153249849Y-105706440D01*
X153338786Y-105558927D01*
X153411835Y-105403483D01*
X153467752Y-105244586D01*
X153507689Y-105076843D01*
X153532793Y-104894861D01*
X153544214Y-104693245D01*
X153545181Y-104590136D01*
X153542393Y-104514545D01*
X152438540Y-104514545D01*
X152438263Y-104638452D01*
X152434385Y-104755199D01*
X152426846Y-104857820D01*
X152415589Y-104939349D01*
X152412149Y-104955779D01*
X152369811Y-105098612D01*
X152314348Y-105214473D01*
X152245297Y-105303654D01*
X152162196Y-105366444D01*
X152064582Y-105403137D01*
X151951990Y-105414021D01*
X151823959Y-105399390D01*
X151739449Y-105378458D01*
X151674022Y-105354241D01*
X151601957Y-105319828D01*
X151547822Y-105288272D01*
X151453887Y-105226540D01*
X151453887Y-103695220D01*
X151543631Y-103637216D01*
X151648177Y-103582733D01*
X151760258Y-103547251D01*
X151873589Y-103531376D01*
X151981883Y-103535712D01*
X152078855Y-103560865D01*
X152121397Y-103581593D01*
X152198515Y-103638838D01*
X152263695Y-103714422D01*
X152318487Y-103811108D01*
X152364439Y-103931658D01*
X152403103Y-104078833D01*
X152404809Y-104086645D01*
X152418350Y-104169527D01*
X152428524Y-104273116D01*
X152435274Y-104390444D01*
X152438540Y-104514545D01*
X153542393Y-104514545D01*
X153534728Y-104306801D01*
X153505512Y-104046073D01*
X153457604Y-103808123D01*
X153391072Y-103593124D01*
X153305985Y-103401250D01*
X153202413Y-103232674D01*
X153080425Y-103087568D01*
X152940089Y-102966105D01*
X152879959Y-102924898D01*
X152745559Y-102850145D01*
X152608043Y-102797409D01*
X152461476Y-102765243D01*
X152299927Y-102752203D01*
X152176769Y-102753595D01*
X152004152Y-102768195D01*
X151854249Y-102797239D01*
X151722722Y-102842063D01*
X151605235Y-102904000D01*
X151540177Y-102949549D01*
X151501080Y-102978725D01*
X151472202Y-102998656D01*
X151461272Y-103004515D01*
X151459122Y-102990097D01*
X151457404Y-102949287D01*
X151456100Y-102885747D01*
X151455195Y-102803140D01*
X151454672Y-102705130D01*
X151454513Y-102595379D01*
X151454702Y-102477551D01*
X151455222Y-102355307D01*
X151456056Y-102232313D01*
X151457188Y-102112230D01*
X151458601Y-101998721D01*
X151460277Y-101895450D01*
X151462200Y-101806080D01*
X151464354Y-101734273D01*
X151466720Y-101683693D01*
X151467375Y-101674396D01*
X151477463Y-101580647D01*
X151492855Y-101507224D01*
X151516472Y-101444489D01*
X151551233Y-101382802D01*
X151559577Y-101370047D01*
X151592105Y-101321201D01*
X150386787Y-101321201D01*
X150386526Y-103564367D01*
G36*
X161649240Y-100308293D02*
X161521063Y-100340562D01*
X161405789Y-100397587D01*
X161306189Y-100477172D01*
X161225035Y-100577125D01*
X161165098Y-100695251D01*
X161130134Y-100823475D01*
X161122344Y-100952969D01*
X161142120Y-101077929D01*
X161186988Y-101194899D01*
X161254472Y-101300422D01*
X161342098Y-101391042D01*
X161447393Y-101463303D01*
X161567882Y-101513748D01*
X161636135Y-101530288D01*
X161695378Y-101540302D01*
X161741046Y-101544259D01*
X161784928Y-101541830D01*
X161838814Y-101532684D01*
X161882877Y-101523398D01*
X162007248Y-101481447D01*
X162118647Y-101413383D01*
X162214565Y-101321269D01*
X162292496Y-101207170D01*
X162311067Y-101170905D01*
X162332951Y-101122487D01*
X162346675Y-101081828D01*
X162354085Y-101039049D01*
X162357027Y-100984272D01*
X162357397Y-100922917D01*
X162351957Y-100810606D01*
X162334096Y-100718371D01*
X162300559Y-100637658D01*
X162248090Y-100559914D01*
X162196769Y-100500982D01*
X162101054Y-100413355D01*
X162001078Y-100352868D01*
X161890907Y-100316653D01*
X161787549Y-100302973D01*
X161649240Y-100308293D01*
X161649240Y-100308293D01*
G37*
X161649240Y-100308293D02*
X161521063Y-100340562D01*
X161405789Y-100397587D01*
X161306189Y-100477172D01*
X161225035Y-100577125D01*
X161165098Y-100695251D01*
X161130134Y-100823475D01*
X161122344Y-100952969D01*
X161142120Y-101077929D01*
X161186988Y-101194899D01*
X161254472Y-101300422D01*
X161342098Y-101391042D01*
X161447393Y-101463303D01*
X161567882Y-101513748D01*
X161636135Y-101530288D01*
X161695378Y-101540302D01*
X161741046Y-101544259D01*
X161784928Y-101541830D01*
X161838814Y-101532684D01*
X161882877Y-101523398D01*
X162007248Y-101481447D01*
X162118647Y-101413383D01*
X162214565Y-101321269D01*
X162292496Y-101207170D01*
X162311067Y-101170905D01*
X162332951Y-101122487D01*
X162346675Y-101081828D01*
X162354085Y-101039049D01*
X162357027Y-100984272D01*
X162357397Y-100922917D01*
X162351957Y-100810606D01*
X162334096Y-100718371D01*
X162300559Y-100637658D01*
X162248090Y-100559914D01*
X162196769Y-100500982D01*
X162101054Y-100413355D01*
X162001078Y-100352868D01*
X161890907Y-100316653D01*
X161787549Y-100302973D01*
X161649240Y-100308293D01*
D17*
X146980000Y-89424000D02*
X146980000Y-91424000D01*
X146980000Y-91424000D02*
X143130000Y-91424000D01*
X146980000Y-89424000D02*
X143130000Y-89424000D01*
X147660000Y-91424000D02*
X147660000Y-89424000D01*
X147660000Y-89424000D02*
X151510000Y-89424000D01*
X147660000Y-91424000D02*
X151510000Y-91424000D01*
X143780000Y-94923000D02*
X145780000Y-94923000D01*
X145780000Y-92783000D02*
X143780000Y-92783000D01*
D11*
X149739333Y-94465667D02*
X150072666Y-94465667D01*
X150106000Y-94799000D01*
X150072666Y-94765667D01*
X150006000Y-94732333D01*
X149839333Y-94732333D01*
X149772666Y-94765667D01*
X149739333Y-94799000D01*
X149706000Y-94865667D01*
X149706000Y-95032333D01*
X149739333Y-95099000D01*
X149772666Y-95132333D01*
X149839333Y-95165667D01*
X150006000Y-95165667D01*
X150072666Y-95132333D01*
X150106000Y-95099000D01*
X149505999Y-94465667D02*
X149272666Y-95165667D01*
X149039333Y-94465667D01*
X145169666Y-92391667D02*
X145169666Y-91691667D01*
X145003000Y-91691667D01*
X144903000Y-91725000D01*
X144836333Y-91791667D01*
X144803000Y-91858333D01*
X144769666Y-91991667D01*
X144769666Y-92091667D01*
X144803000Y-92225000D01*
X144836333Y-92291667D01*
X144903000Y-92358333D01*
X145003000Y-92391667D01*
X145169666Y-92391667D01*
X144103000Y-92391667D02*
X144503000Y-92391667D01*
X144303000Y-92391667D02*
X144303000Y-91691667D01*
X144369666Y-91791667D01*
X144436333Y-91858333D01*
X144503000Y-91891667D01*
X150376666Y-92391667D02*
X150376666Y-91691667D01*
X150210000Y-91691667D01*
X150110000Y-91725000D01*
X150043333Y-91791667D01*
X150010000Y-91858333D01*
X149976666Y-91991667D01*
X149976666Y-92091667D01*
X150010000Y-92225000D01*
X150043333Y-92291667D01*
X150110000Y-92358333D01*
X150210000Y-92391667D01*
X150376666Y-92391667D01*
X149376666Y-91925000D02*
X149376666Y-92391667D01*
X149543333Y-91658333D02*
X149710000Y-92158333D01*
X149276666Y-92158333D01*
X144886333Y-95581000D02*
X145119666Y-95581000D01*
X145119666Y-95947667D02*
X145119666Y-95247667D01*
X144786333Y-95247667D01*
X144153000Y-95947667D02*
X144553000Y-95947667D01*
X144353000Y-95947667D02*
X144353000Y-95247667D01*
X144419666Y-95347667D01*
X144486333Y-95414333D01*
X144553000Y-95447667D01*
M02*
