G04 #@! TF.FileFunction,Legend,Top*
%FSLAX46Y46*%
G04 Gerber Fmt 4.6, Leading zero omitted, Abs format (unit mm)*
G04 Created by KiCad (PCBNEW 4.0.7) date 07/04/19 18:58:04*
%MOMM*%
%LPD*%
G01*
G04 APERTURE LIST*
%ADD10C,0.100000*%
%ADD11C,0.300000*%
%ADD12C,0.800000*%
%ADD13C,0.120000*%
%ADD14C,0.150000*%
G04 APERTURE END LIST*
D10*
D11*
X157105143Y-67936428D02*
X157105143Y-66793571D01*
X156426572Y-74472143D02*
X157569429Y-74472143D01*
X156998000Y-75043571D02*
X156998000Y-73900714D01*
X128105143Y-57936428D02*
X128105143Y-56793571D01*
X127426572Y-66472143D02*
X128569429Y-66472143D01*
X127998000Y-67043571D02*
X127998000Y-65900714D01*
X157105143Y-55936428D02*
X157105143Y-54793571D01*
X156426572Y-64472143D02*
X157569429Y-64472143D01*
X156998000Y-65043571D02*
X156998000Y-63900714D01*
D12*
X143712000Y-55475000D02*
X143712000Y-52475000D01*
D13*
X144322000Y-55835000D02*
X144322000Y-52115000D01*
X144322000Y-52115000D02*
X136602000Y-52115000D01*
X136602000Y-52115000D02*
X136602000Y-55835000D01*
X136602000Y-55835000D02*
X144322000Y-55835000D01*
X145432000Y-53975000D02*
X144322000Y-53975000D01*
X135492000Y-53975000D02*
X136602000Y-53975000D01*
X143122000Y-55835000D02*
X143122000Y-52115000D01*
D10*
X144068000Y-50927000D02*
X144968000Y-50927000D01*
X138868000Y-50927000D02*
X138168000Y-50927000D01*
X138868000Y-51727000D02*
X138868000Y-50127000D01*
X138868000Y-50127000D02*
X144068000Y-50127000D01*
X144068000Y-50127000D02*
X144068000Y-51727000D01*
X144068000Y-51727000D02*
X138868000Y-51727000D01*
D13*
X131700000Y-73763000D02*
X131700000Y-70763000D01*
X147700000Y-73763000D02*
X131700000Y-73763000D01*
X147700000Y-70763000D02*
X147700000Y-73763000D01*
X131700000Y-70763000D02*
X147700000Y-70763000D01*
X148938000Y-52425000D02*
X151058000Y-52425000D01*
X148938000Y-52365000D02*
X148938000Y-52425000D01*
X151058000Y-52365000D02*
X151058000Y-52425000D01*
X148938000Y-52365000D02*
X151058000Y-52365000D01*
X148938000Y-51365000D02*
X148938000Y-50305000D01*
X148938000Y-50305000D02*
X149998000Y-50305000D01*
X154538000Y-54745000D02*
X154538000Y-64905000D01*
X155808000Y-54745000D02*
X148188000Y-54745000D01*
X148188000Y-54745000D02*
X148188000Y-64905000D01*
X148188000Y-64905000D02*
X155808000Y-64905000D01*
X155808000Y-64905000D02*
X155808000Y-54745000D01*
X130458000Y-66985000D02*
X130458000Y-56825000D01*
X129188000Y-66985000D02*
X136808000Y-66985000D01*
X136808000Y-66985000D02*
X136808000Y-56825000D01*
X136808000Y-56825000D02*
X129188000Y-56825000D01*
X129188000Y-56825000D02*
X129188000Y-66985000D01*
X144674000Y-60879000D02*
X144674000Y-59379000D01*
X144674000Y-59379000D02*
X144404000Y-59379000D01*
X144404000Y-59379000D02*
X144404000Y-56549000D01*
X137774000Y-60879000D02*
X137774000Y-59379000D01*
X137774000Y-59379000D02*
X138044000Y-59379000D01*
X138044000Y-59379000D02*
X138044000Y-58279000D01*
X154538000Y-65745000D02*
X154538000Y-75905000D01*
X155808000Y-65745000D02*
X148188000Y-65745000D01*
X148188000Y-65745000D02*
X148188000Y-75905000D01*
X148188000Y-75905000D02*
X155808000Y-75905000D01*
X155808000Y-75905000D02*
X155808000Y-65745000D01*
X131734000Y-68715000D02*
X131734000Y-75655000D01*
X131734000Y-75655000D02*
X147934000Y-75655000D01*
X147934000Y-75655000D02*
X147934000Y-68715000D01*
X147934000Y-68715000D02*
X131734000Y-68715000D01*
D14*
X137684143Y-54427381D02*
X137112714Y-54427381D01*
X137398428Y-54427381D02*
X137398428Y-53427381D01*
X137303190Y-53570238D01*
X137207952Y-53665476D01*
X137112714Y-53713095D01*
X138112714Y-54427381D02*
X138112714Y-53427381D01*
X138684143Y-54427381D01*
X138684143Y-53427381D01*
X139636524Y-53427381D02*
X139160333Y-53427381D01*
X139112714Y-53903571D01*
X139160333Y-53855952D01*
X139255571Y-53808333D01*
X139493667Y-53808333D01*
X139588905Y-53855952D01*
X139636524Y-53903571D01*
X139684143Y-53998810D01*
X139684143Y-54236905D01*
X139636524Y-54332143D01*
X139588905Y-54379762D01*
X139493667Y-54427381D01*
X139255571Y-54427381D01*
X139160333Y-54379762D01*
X139112714Y-54332143D01*
X140541286Y-53760714D02*
X140541286Y-54427381D01*
X140303190Y-53379762D02*
X140065095Y-54094048D01*
X140684143Y-54094048D01*
X141255571Y-53427381D02*
X141350810Y-53427381D01*
X141446048Y-53475000D01*
X141493667Y-53522619D01*
X141541286Y-53617857D01*
X141588905Y-53808333D01*
X141588905Y-54046429D01*
X141541286Y-54236905D01*
X141493667Y-54332143D01*
X141446048Y-54379762D01*
X141350810Y-54427381D01*
X141255571Y-54427381D01*
X141160333Y-54379762D01*
X141112714Y-54332143D01*
X141065095Y-54236905D01*
X141017476Y-54046429D01*
X141017476Y-53808333D01*
X141065095Y-53617857D01*
X141112714Y-53522619D01*
X141160333Y-53475000D01*
X141255571Y-53427381D01*
X142541286Y-54427381D02*
X141969857Y-54427381D01*
X142255571Y-54427381D02*
X142255571Y-53427381D01*
X142160333Y-53570238D01*
X142065095Y-53665476D01*
X141969857Y-53713095D01*
X140787524Y-51379381D02*
X140216095Y-51379381D01*
X140501809Y-51379381D02*
X140501809Y-50379381D01*
X140406571Y-50522238D01*
X140311333Y-50617476D01*
X140216095Y-50665095D01*
X141406571Y-50379381D02*
X141501810Y-50379381D01*
X141597048Y-50427000D01*
X141644667Y-50474619D01*
X141692286Y-50569857D01*
X141739905Y-50760333D01*
X141739905Y-50998429D01*
X141692286Y-51188905D01*
X141644667Y-51284143D01*
X141597048Y-51331762D01*
X141501810Y-51379381D01*
X141406571Y-51379381D01*
X141311333Y-51331762D01*
X141263714Y-51284143D01*
X141216095Y-51188905D01*
X141168476Y-50998429D01*
X141168476Y-50760333D01*
X141216095Y-50569857D01*
X141263714Y-50474619D01*
X141311333Y-50427000D01*
X141406571Y-50379381D01*
X142168476Y-51379381D02*
X142168476Y-50379381D01*
X142739905Y-51379381D02*
X142311333Y-50807952D01*
X142739905Y-50379381D02*
X142168476Y-50950810D01*
X138557143Y-72715381D02*
X138557143Y-71715381D01*
X138938096Y-71715381D01*
X139033334Y-71763000D01*
X139080953Y-71810619D01*
X139128572Y-71905857D01*
X139128572Y-72048714D01*
X139080953Y-72143952D01*
X139033334Y-72191571D01*
X138938096Y-72239190D01*
X138557143Y-72239190D01*
X139414286Y-71715381D02*
X139985715Y-71715381D01*
X139700000Y-72715381D02*
X139700000Y-71715381D01*
X140890477Y-72620143D02*
X140842858Y-72667762D01*
X140700001Y-72715381D01*
X140604763Y-72715381D01*
X140461905Y-72667762D01*
X140366667Y-72572524D01*
X140319048Y-72477286D01*
X140271429Y-72286810D01*
X140271429Y-72143952D01*
X140319048Y-71953476D01*
X140366667Y-71858238D01*
X140461905Y-71763000D01*
X140604763Y-71715381D01*
X140700001Y-71715381D01*
X140842858Y-71763000D01*
X140890477Y-71810619D01*
X151276190Y-50780905D02*
X151276190Y-49980905D01*
X151580952Y-49980905D01*
X151657143Y-50019000D01*
X151695238Y-50057095D01*
X151733333Y-50133286D01*
X151733333Y-50247571D01*
X151695238Y-50323762D01*
X151657143Y-50361857D01*
X151580952Y-50399952D01*
X151276190Y-50399952D01*
X152000000Y-49980905D02*
X152190476Y-50780905D01*
X152342857Y-50209476D01*
X152495238Y-50780905D01*
X152685714Y-49980905D01*
X152990476Y-50780905D02*
X152990476Y-49980905D01*
X153257143Y-50552333D01*
X153523810Y-49980905D01*
X153523810Y-50780905D01*
X148910381Y-60158333D02*
X149624667Y-60158333D01*
X149767524Y-60205953D01*
X149862762Y-60301191D01*
X149910381Y-60444048D01*
X149910381Y-60539286D01*
X149910381Y-59158333D02*
X149910381Y-59729762D01*
X149910381Y-59444048D02*
X148910381Y-59444048D01*
X149053238Y-59539286D01*
X149148476Y-59634524D01*
X149196095Y-59729762D01*
X157126571Y-62993571D02*
X157174190Y-62850714D01*
X157221810Y-62803095D01*
X157317048Y-62755476D01*
X157459905Y-62755476D01*
X157555143Y-62803095D01*
X157602762Y-62850714D01*
X157650381Y-62945952D01*
X157650381Y-63326905D01*
X156650381Y-63326905D01*
X156650381Y-62993571D01*
X156698000Y-62898333D01*
X156745619Y-62850714D01*
X156840857Y-62803095D01*
X156936095Y-62803095D01*
X157031333Y-62850714D01*
X157078952Y-62898333D01*
X157126571Y-62993571D01*
X157126571Y-63326905D01*
X157364667Y-62374524D02*
X157364667Y-61898333D01*
X157650381Y-62469762D02*
X156650381Y-62136429D01*
X157650381Y-61803095D01*
X156650381Y-61612619D02*
X156650381Y-61041190D01*
X157650381Y-61326905D02*
X156650381Y-61326905D01*
X156650381Y-60850714D02*
X156650381Y-60279285D01*
X157650381Y-60565000D02*
X156650381Y-60565000D01*
X157745619Y-60184047D02*
X157745619Y-59422142D01*
X156650381Y-58993571D02*
X156650381Y-58803094D01*
X156698000Y-58707856D01*
X156793238Y-58612618D01*
X156983714Y-58564999D01*
X157317048Y-58564999D01*
X157507524Y-58612618D01*
X157602762Y-58707856D01*
X157650381Y-58803094D01*
X157650381Y-58993571D01*
X157602762Y-59088809D01*
X157507524Y-59184047D01*
X157317048Y-59231666D01*
X156983714Y-59231666D01*
X156793238Y-59184047D01*
X156698000Y-59088809D01*
X156650381Y-58993571D01*
X156650381Y-58136428D02*
X157459905Y-58136428D01*
X157555143Y-58088809D01*
X157602762Y-58041190D01*
X157650381Y-57945952D01*
X157650381Y-57755475D01*
X157602762Y-57660237D01*
X157555143Y-57612618D01*
X157459905Y-57564999D01*
X156650381Y-57564999D01*
X156650381Y-57231666D02*
X156650381Y-56660237D01*
X157650381Y-56945952D02*
X156650381Y-56945952D01*
X134990381Y-62238333D02*
X135704667Y-62238333D01*
X135847524Y-62285953D01*
X135942762Y-62381191D01*
X135990381Y-62524048D01*
X135990381Y-62619286D01*
X135085619Y-61809762D02*
X135038000Y-61762143D01*
X134990381Y-61666905D01*
X134990381Y-61428809D01*
X135038000Y-61333571D01*
X135085619Y-61285952D01*
X135180857Y-61238333D01*
X135276095Y-61238333D01*
X135418952Y-61285952D01*
X135990381Y-61857381D01*
X135990381Y-61238333D01*
X127726571Y-63926904D02*
X127774190Y-63784047D01*
X127821810Y-63736428D01*
X127917048Y-63688809D01*
X128059905Y-63688809D01*
X128155143Y-63736428D01*
X128202762Y-63784047D01*
X128250381Y-63879285D01*
X128250381Y-64260238D01*
X127250381Y-64260238D01*
X127250381Y-63926904D01*
X127298000Y-63831666D01*
X127345619Y-63784047D01*
X127440857Y-63736428D01*
X127536095Y-63736428D01*
X127631333Y-63784047D01*
X127678952Y-63831666D01*
X127726571Y-63926904D01*
X127726571Y-64260238D01*
X127964667Y-63307857D02*
X127964667Y-62831666D01*
X128250381Y-63403095D02*
X127250381Y-63069762D01*
X128250381Y-62736428D01*
X127250381Y-62545952D02*
X127250381Y-61974523D01*
X128250381Y-62260238D02*
X127250381Y-62260238D01*
X127250381Y-61784047D02*
X127250381Y-61212618D01*
X128250381Y-61498333D02*
X127250381Y-61498333D01*
X128345619Y-61117380D02*
X128345619Y-60355475D01*
X128250381Y-60117380D02*
X127250381Y-60117380D01*
X128250381Y-59641190D02*
X127250381Y-59641190D01*
X128250381Y-59069761D01*
X127250381Y-59069761D01*
X145950381Y-67674524D02*
X144950381Y-67674524D01*
X145950381Y-66626905D02*
X145474190Y-66960239D01*
X145950381Y-67198334D02*
X144950381Y-67198334D01*
X144950381Y-66817381D01*
X144998000Y-66722143D01*
X145045619Y-66674524D01*
X145140857Y-66626905D01*
X145283714Y-66626905D01*
X145378952Y-66674524D01*
X145426571Y-66722143D01*
X145474190Y-66817381D01*
X145474190Y-67198334D01*
X145950381Y-65722143D02*
X145950381Y-66198334D01*
X144950381Y-66198334D01*
X145426571Y-65055476D02*
X145474190Y-64912619D01*
X145521810Y-64865000D01*
X145617048Y-64817381D01*
X145759905Y-64817381D01*
X145855143Y-64865000D01*
X145902762Y-64912619D01*
X145950381Y-65007857D01*
X145950381Y-65388810D01*
X144950381Y-65388810D01*
X144950381Y-65055476D01*
X144998000Y-64960238D01*
X145045619Y-64912619D01*
X145140857Y-64865000D01*
X145236095Y-64865000D01*
X145331333Y-64912619D01*
X145378952Y-64960238D01*
X145426571Y-65055476D01*
X145426571Y-65388810D01*
X145378952Y-64245953D02*
X145331333Y-64341191D01*
X145283714Y-64388810D01*
X145188476Y-64436429D01*
X145140857Y-64436429D01*
X145045619Y-64388810D01*
X144998000Y-64341191D01*
X144950381Y-64245953D01*
X144950381Y-64055476D01*
X144998000Y-63960238D01*
X145045619Y-63912619D01*
X145140857Y-63865000D01*
X145188476Y-63865000D01*
X145283714Y-63912619D01*
X145331333Y-63960238D01*
X145378952Y-64055476D01*
X145378952Y-64245953D01*
X145426571Y-64341191D01*
X145474190Y-64388810D01*
X145569429Y-64436429D01*
X145759905Y-64436429D01*
X145855143Y-64388810D01*
X145902762Y-64341191D01*
X145950381Y-64245953D01*
X145950381Y-64055476D01*
X145902762Y-63960238D01*
X145855143Y-63912619D01*
X145759905Y-63865000D01*
X145569429Y-63865000D01*
X145474190Y-63912619D01*
X145426571Y-63960238D01*
X145378952Y-64055476D01*
X144950381Y-63531667D02*
X144950381Y-62865000D01*
X145950381Y-63293572D01*
X145045619Y-62531667D02*
X144998000Y-62484048D01*
X144950381Y-62388810D01*
X144950381Y-62150714D01*
X144998000Y-62055476D01*
X145045619Y-62007857D01*
X145140857Y-61960238D01*
X145236095Y-61960238D01*
X145378952Y-62007857D01*
X145950381Y-62579286D01*
X145950381Y-61960238D01*
X145950381Y-61007857D02*
X145950381Y-61579286D01*
X145950381Y-61293572D02*
X144950381Y-61293572D01*
X145093238Y-61388810D01*
X145188476Y-61484048D01*
X145236095Y-61579286D01*
X148910381Y-71158333D02*
X149624667Y-71158333D01*
X149767524Y-71205953D01*
X149862762Y-71301191D01*
X149910381Y-71444048D01*
X149910381Y-71539286D01*
X149910381Y-70634524D02*
X149910381Y-70444048D01*
X149862762Y-70348809D01*
X149815143Y-70301190D01*
X149672286Y-70205952D01*
X149481810Y-70158333D01*
X149100857Y-70158333D01*
X149005619Y-70205952D01*
X148958000Y-70253571D01*
X148910381Y-70348809D01*
X148910381Y-70539286D01*
X148958000Y-70634524D01*
X149005619Y-70682143D01*
X149100857Y-70729762D01*
X149338952Y-70729762D01*
X149434190Y-70682143D01*
X149481810Y-70634524D01*
X149529429Y-70539286D01*
X149529429Y-70348809D01*
X149481810Y-70253571D01*
X149434190Y-70205952D01*
X149338952Y-70158333D01*
X157650381Y-72755476D02*
X156650381Y-72755476D01*
X157364667Y-72422142D01*
X156650381Y-72088809D01*
X157650381Y-72088809D01*
X156650381Y-71755476D02*
X156650381Y-71184047D01*
X157650381Y-71469762D02*
X156650381Y-71469762D01*
X157650381Y-70279285D02*
X157174190Y-70612619D01*
X157650381Y-70850714D02*
X156650381Y-70850714D01*
X156650381Y-70469761D01*
X156698000Y-70374523D01*
X156745619Y-70326904D01*
X156840857Y-70279285D01*
X156983714Y-70279285D01*
X157078952Y-70326904D01*
X157126571Y-70374523D01*
X157174190Y-70469761D01*
X157174190Y-70850714D01*
X157602762Y-69898333D02*
X157650381Y-69755476D01*
X157650381Y-69517380D01*
X157602762Y-69422142D01*
X157555143Y-69374523D01*
X157459905Y-69326904D01*
X157364667Y-69326904D01*
X157269429Y-69374523D01*
X157221810Y-69422142D01*
X157174190Y-69517380D01*
X157126571Y-69707857D01*
X157078952Y-69803095D01*
X157031333Y-69850714D01*
X156936095Y-69898333D01*
X156840857Y-69898333D01*
X156745619Y-69850714D01*
X156698000Y-69803095D01*
X156650381Y-69707857D01*
X156650381Y-69469761D01*
X156698000Y-69326904D01*
X138557143Y-74731571D02*
X138223809Y-74731571D01*
X138223809Y-75255381D02*
X138223809Y-74255381D01*
X138700000Y-74255381D01*
X139509524Y-74588714D02*
X139509524Y-75255381D01*
X139080952Y-74588714D02*
X139080952Y-75112524D01*
X139128571Y-75207762D01*
X139223809Y-75255381D01*
X139366667Y-75255381D01*
X139461905Y-75207762D01*
X139509524Y-75160143D01*
X139938095Y-75207762D02*
X140033333Y-75255381D01*
X140223809Y-75255381D01*
X140319048Y-75207762D01*
X140366667Y-75112524D01*
X140366667Y-75064905D01*
X140319048Y-74969667D01*
X140223809Y-74922048D01*
X140080952Y-74922048D01*
X139985714Y-74874429D01*
X139938095Y-74779190D01*
X139938095Y-74731571D01*
X139985714Y-74636333D01*
X140080952Y-74588714D01*
X140223809Y-74588714D01*
X140319048Y-74636333D01*
X141176191Y-75207762D02*
X141080953Y-75255381D01*
X140890476Y-75255381D01*
X140795238Y-75207762D01*
X140747619Y-75112524D01*
X140747619Y-74731571D01*
X140795238Y-74636333D01*
X140890476Y-74588714D01*
X141080953Y-74588714D01*
X141176191Y-74636333D01*
X141223810Y-74731571D01*
X141223810Y-74826810D01*
X140747619Y-74922048D01*
M02*
