G04 #@! TF.FileFunction,Copper,L2,Bot,Signal*
%FSLAX46Y46*%
G04 Gerber Fmt 4.6, Leading zero omitted, Abs format (unit mm)*
G04 Created by KiCad (PCBNEW 4.0.7) date 07/04/19 18:57:09*
%MOMM*%
%LPD*%
G01*
G04 APERTURE LIST*
%ADD10C,0.100000*%
%ADD11C,1.400000*%
%ADD12O,1.400000X1.400000*%
%ADD13C,1.600000*%
%ADD14R,1.600000X1.600000*%
%ADD15O,1.600000X1.600000*%
%ADD16R,2.400000X2.400000*%
%ADD17C,2.400000*%
%ADD18R,0.850000X0.850000*%
%ADD19C,0.850000*%
%ADD20C,2.000000*%
%ADD21R,3.000000X3.000000*%
%ADD22C,3.000000*%
%ADD23C,2.032000*%
%ADD24C,0.406400*%
%ADD25C,0.254000*%
G04 APERTURE END LIST*
D10*
D11*
X190498000Y-68365000D03*
D12*
X190498000Y-73445000D03*
D11*
X190498000Y-65365000D03*
D12*
X190498000Y-60285000D03*
D13*
X203708000Y-55880000D03*
X203708000Y-58380000D03*
X190498000Y-55365000D03*
X190498000Y-57865000D03*
D14*
X200998000Y-73365000D03*
D15*
X193378000Y-55585000D03*
X200998000Y-70825000D03*
X193378000Y-58125000D03*
X200998000Y-68285000D03*
X193378000Y-60665000D03*
X200998000Y-65745000D03*
X193378000Y-63205000D03*
X200998000Y-63205000D03*
X193378000Y-65745000D03*
X200998000Y-60665000D03*
X193378000Y-68285000D03*
X200998000Y-58125000D03*
X193378000Y-70825000D03*
X200998000Y-55585000D03*
X193378000Y-73365000D03*
D16*
X208788000Y-55880000D03*
D17*
X208788000Y-52380000D03*
D18*
X185928000Y-57150000D03*
D19*
X185928000Y-58400000D03*
X185928000Y-59650000D03*
X185928000Y-60900000D03*
X185928000Y-62150000D03*
D20*
X194598000Y-51865000D03*
X200398000Y-51865000D03*
D16*
X208788000Y-74295000D03*
D17*
X208788000Y-70795000D03*
D21*
X209550000Y-65913000D03*
D22*
X209550000Y-60833000D03*
D23*
X200998000Y-68285000D02*
X202016000Y-68285000D01*
X206248000Y-74295000D02*
X208788000Y-74295000D01*
X203708000Y-71755000D02*
X206248000Y-74295000D01*
X203708000Y-69977000D02*
X203708000Y-71755000D01*
X202016000Y-68285000D02*
X203708000Y-69977000D01*
X193378000Y-68285000D02*
X200998000Y-68285000D01*
X208788000Y-70795000D02*
X208336000Y-70795000D01*
X208336000Y-70795000D02*
X207066000Y-69525000D01*
X204470000Y-63373000D02*
X204470000Y-66929000D01*
X204470000Y-66929000D02*
X207066000Y-69525000D01*
X201762000Y-60665000D02*
X204470000Y-63373000D01*
X200998000Y-60665000D02*
X201762000Y-60665000D01*
X193378000Y-60665000D02*
X200998000Y-60665000D01*
X194598000Y-51865000D02*
X194998000Y-51865000D01*
X194998000Y-51865000D02*
X198718000Y-55585000D01*
X198718000Y-55585000D02*
X200998000Y-55585000D01*
D24*
X185928000Y-58400000D02*
X186837000Y-58400000D01*
X186837000Y-58400000D02*
X189872000Y-55365000D01*
X189872000Y-55365000D02*
X190498000Y-55365000D01*
X185928000Y-58400000D02*
X185821000Y-58400000D01*
X193378000Y-73365000D02*
X193378000Y-73830000D01*
X193378000Y-55585000D02*
X190718000Y-55585000D01*
X190718000Y-55585000D02*
X190498000Y-55365000D01*
X200998000Y-73365000D02*
X193378000Y-73365000D01*
X185928000Y-59650000D02*
X184825000Y-59650000D01*
X187198000Y-63627000D02*
X188976000Y-65405000D01*
X188976000Y-65405000D02*
X188976000Y-71923000D01*
X188976000Y-71923000D02*
X190498000Y-73445000D01*
X185166000Y-63627000D02*
X187198000Y-63627000D01*
X184404000Y-62865000D02*
X185166000Y-63627000D01*
X184404000Y-60071000D02*
X184404000Y-62865000D01*
X184825000Y-59650000D02*
X184404000Y-60071000D01*
X190498000Y-73445000D02*
X190758000Y-73445000D01*
X190758000Y-73445000D02*
X193378000Y-70825000D01*
X193378000Y-70825000D02*
X200998000Y-70825000D01*
X190498000Y-60285000D02*
X189270000Y-60285000D01*
X188655000Y-60900000D02*
X185928000Y-60900000D01*
X189270000Y-60285000D02*
X188655000Y-60900000D01*
X190498000Y-60285000D02*
X190578000Y-60285000D01*
X190578000Y-60285000D02*
X192738000Y-58125000D01*
X192738000Y-58125000D02*
X193378000Y-58125000D01*
X193378000Y-58125000D02*
X200998000Y-58125000D01*
D23*
X200398000Y-51865000D02*
X204138000Y-51865000D01*
X205994000Y-57841000D02*
X208788000Y-60635000D01*
X205994000Y-53721000D02*
X205994000Y-57841000D01*
X204138000Y-51865000D02*
X205994000Y-53721000D01*
D25*
G36*
X223251707Y-51338288D02*
X224314546Y-52048454D01*
X225024712Y-53111295D01*
X225288000Y-54434931D01*
X225288000Y-55295069D01*
X225024712Y-56618705D01*
X224314546Y-57681546D01*
X223251707Y-58391712D01*
X221928069Y-58655000D01*
X219998000Y-58655000D01*
X219929416Y-58668642D01*
X218328752Y-58973124D01*
X218072811Y-59079139D01*
X216775118Y-59946230D01*
X216579229Y-60142118D01*
X215712139Y-61439811D01*
X215606124Y-61695752D01*
X215301642Y-63226486D01*
X215301642Y-63296416D01*
X215288000Y-63365000D01*
X215288000Y-72295069D01*
X215024712Y-73618705D01*
X214314546Y-74681546D01*
X213251707Y-75391712D01*
X211928069Y-75655000D01*
X210603039Y-75655000D01*
X210635440Y-75495000D01*
X210635440Y-73095000D01*
X210591162Y-72859683D01*
X210452090Y-72643559D01*
X210239890Y-72498569D01*
X209988000Y-72447560D01*
X209593712Y-72447560D01*
X209826086Y-72351545D01*
X210342730Y-71835801D01*
X210622681Y-71161605D01*
X210623318Y-70431597D01*
X210344545Y-69756914D01*
X209828801Y-69240270D01*
X209154605Y-68960319D01*
X208835907Y-68960041D01*
X208233435Y-68357569D01*
X208233433Y-68357566D01*
X207923867Y-68048000D01*
X209264250Y-68048000D01*
X209423000Y-67889250D01*
X209423000Y-66040000D01*
X209677000Y-66040000D01*
X209677000Y-67889250D01*
X209835750Y-68048000D01*
X211176310Y-68048000D01*
X211409699Y-67951327D01*
X211588327Y-67772698D01*
X211685000Y-67539309D01*
X211685000Y-66198750D01*
X211526250Y-66040000D01*
X209677000Y-66040000D01*
X209423000Y-66040000D01*
X207573750Y-66040000D01*
X207415000Y-66198750D01*
X207415000Y-67539133D01*
X206121000Y-66245134D01*
X206121000Y-64286691D01*
X207415000Y-64286691D01*
X207415000Y-65627250D01*
X207573750Y-65786000D01*
X209423000Y-65786000D01*
X209423000Y-63936750D01*
X209677000Y-63936750D01*
X209677000Y-65786000D01*
X211526250Y-65786000D01*
X211685000Y-65627250D01*
X211685000Y-64286691D01*
X211588327Y-64053302D01*
X211409699Y-63874673D01*
X211176310Y-63778000D01*
X209835750Y-63778000D01*
X209677000Y-63936750D01*
X209423000Y-63936750D01*
X209264250Y-63778000D01*
X207923690Y-63778000D01*
X207690301Y-63874673D01*
X207511673Y-64053302D01*
X207415000Y-64286691D01*
X206121000Y-64286691D01*
X206121000Y-63373000D01*
X205995325Y-62741190D01*
X205995325Y-62741189D01*
X205637433Y-62205566D01*
X203128428Y-59696562D01*
X203491223Y-59826965D01*
X204061454Y-59799778D01*
X204462005Y-59633864D01*
X204536139Y-59387745D01*
X203708000Y-58559605D01*
X203693858Y-58573748D01*
X203514252Y-58394142D01*
X203528395Y-58380000D01*
X202700255Y-57551861D01*
X202454136Y-57625995D01*
X202394730Y-57791269D01*
X202351880Y-57575849D01*
X202040811Y-57110302D01*
X201835328Y-56973002D01*
X202165433Y-56752433D01*
X202381931Y-56428421D01*
X202490757Y-56691800D01*
X202894077Y-57095824D01*
X202960544Y-57123423D01*
X202953995Y-57126136D01*
X202879861Y-57372255D01*
X203708000Y-58200395D01*
X203722142Y-58186252D01*
X203901748Y-58365858D01*
X203887605Y-58380000D01*
X204715745Y-59208139D01*
X204954390Y-59136256D01*
X207620567Y-61802434D01*
X207648087Y-61820822D01*
X207738980Y-62040800D01*
X208339041Y-62641909D01*
X209123459Y-62967628D01*
X209972815Y-62968370D01*
X210757800Y-62644020D01*
X211358909Y-62043959D01*
X211684628Y-61259541D01*
X211685370Y-60410185D01*
X211361020Y-59625200D01*
X210760959Y-59024091D01*
X209976541Y-58698372D01*
X209185548Y-58697681D01*
X208215306Y-57727440D01*
X209988000Y-57727440D01*
X210223317Y-57683162D01*
X210439441Y-57544090D01*
X210584431Y-57331890D01*
X210635440Y-57080000D01*
X210635440Y-55787815D01*
X220862630Y-55787815D01*
X221186980Y-56572800D01*
X221787041Y-57173909D01*
X222571459Y-57499628D01*
X223420815Y-57500370D01*
X224205800Y-57176020D01*
X224806909Y-56575959D01*
X225132628Y-55791541D01*
X225133370Y-54942185D01*
X224809020Y-54157200D01*
X224208959Y-53556091D01*
X223424541Y-53230372D01*
X222575185Y-53229630D01*
X221790200Y-53553980D01*
X221189091Y-54154041D01*
X220863372Y-54938459D01*
X220862630Y-55787815D01*
X210635440Y-55787815D01*
X210635440Y-54680000D01*
X210591162Y-54444683D01*
X210452090Y-54228559D01*
X210239890Y-54083569D01*
X209988000Y-54032560D01*
X209593712Y-54032560D01*
X209826086Y-53936545D01*
X210342730Y-53420801D01*
X210622681Y-52746605D01*
X210623318Y-52016597D01*
X210344545Y-51341914D01*
X210078096Y-51075000D01*
X221928069Y-51075000D01*
X223251707Y-51338288D01*
X223251707Y-51338288D01*
G37*
X223251707Y-51338288D02*
X224314546Y-52048454D01*
X225024712Y-53111295D01*
X225288000Y-54434931D01*
X225288000Y-55295069D01*
X225024712Y-56618705D01*
X224314546Y-57681546D01*
X223251707Y-58391712D01*
X221928069Y-58655000D01*
X219998000Y-58655000D01*
X219929416Y-58668642D01*
X218328752Y-58973124D01*
X218072811Y-59079139D01*
X216775118Y-59946230D01*
X216579229Y-60142118D01*
X215712139Y-61439811D01*
X215606124Y-61695752D01*
X215301642Y-63226486D01*
X215301642Y-63296416D01*
X215288000Y-63365000D01*
X215288000Y-72295069D01*
X215024712Y-73618705D01*
X214314546Y-74681546D01*
X213251707Y-75391712D01*
X211928069Y-75655000D01*
X210603039Y-75655000D01*
X210635440Y-75495000D01*
X210635440Y-73095000D01*
X210591162Y-72859683D01*
X210452090Y-72643559D01*
X210239890Y-72498569D01*
X209988000Y-72447560D01*
X209593712Y-72447560D01*
X209826086Y-72351545D01*
X210342730Y-71835801D01*
X210622681Y-71161605D01*
X210623318Y-70431597D01*
X210344545Y-69756914D01*
X209828801Y-69240270D01*
X209154605Y-68960319D01*
X208835907Y-68960041D01*
X208233435Y-68357569D01*
X208233433Y-68357566D01*
X207923867Y-68048000D01*
X209264250Y-68048000D01*
X209423000Y-67889250D01*
X209423000Y-66040000D01*
X209677000Y-66040000D01*
X209677000Y-67889250D01*
X209835750Y-68048000D01*
X211176310Y-68048000D01*
X211409699Y-67951327D01*
X211588327Y-67772698D01*
X211685000Y-67539309D01*
X211685000Y-66198750D01*
X211526250Y-66040000D01*
X209677000Y-66040000D01*
X209423000Y-66040000D01*
X207573750Y-66040000D01*
X207415000Y-66198750D01*
X207415000Y-67539133D01*
X206121000Y-66245134D01*
X206121000Y-64286691D01*
X207415000Y-64286691D01*
X207415000Y-65627250D01*
X207573750Y-65786000D01*
X209423000Y-65786000D01*
X209423000Y-63936750D01*
X209677000Y-63936750D01*
X209677000Y-65786000D01*
X211526250Y-65786000D01*
X211685000Y-65627250D01*
X211685000Y-64286691D01*
X211588327Y-64053302D01*
X211409699Y-63874673D01*
X211176310Y-63778000D01*
X209835750Y-63778000D01*
X209677000Y-63936750D01*
X209423000Y-63936750D01*
X209264250Y-63778000D01*
X207923690Y-63778000D01*
X207690301Y-63874673D01*
X207511673Y-64053302D01*
X207415000Y-64286691D01*
X206121000Y-64286691D01*
X206121000Y-63373000D01*
X205995325Y-62741190D01*
X205995325Y-62741189D01*
X205637433Y-62205566D01*
X203128428Y-59696562D01*
X203491223Y-59826965D01*
X204061454Y-59799778D01*
X204462005Y-59633864D01*
X204536139Y-59387745D01*
X203708000Y-58559605D01*
X203693858Y-58573748D01*
X203514252Y-58394142D01*
X203528395Y-58380000D01*
X202700255Y-57551861D01*
X202454136Y-57625995D01*
X202394730Y-57791269D01*
X202351880Y-57575849D01*
X202040811Y-57110302D01*
X201835328Y-56973002D01*
X202165433Y-56752433D01*
X202381931Y-56428421D01*
X202490757Y-56691800D01*
X202894077Y-57095824D01*
X202960544Y-57123423D01*
X202953995Y-57126136D01*
X202879861Y-57372255D01*
X203708000Y-58200395D01*
X203722142Y-58186252D01*
X203901748Y-58365858D01*
X203887605Y-58380000D01*
X204715745Y-59208139D01*
X204954390Y-59136256D01*
X207620567Y-61802434D01*
X207648087Y-61820822D01*
X207738980Y-62040800D01*
X208339041Y-62641909D01*
X209123459Y-62967628D01*
X209972815Y-62968370D01*
X210757800Y-62644020D01*
X211358909Y-62043959D01*
X211684628Y-61259541D01*
X211685370Y-60410185D01*
X211361020Y-59625200D01*
X210760959Y-59024091D01*
X209976541Y-58698372D01*
X209185548Y-58697681D01*
X208215306Y-57727440D01*
X209988000Y-57727440D01*
X210223317Y-57683162D01*
X210439441Y-57544090D01*
X210584431Y-57331890D01*
X210635440Y-57080000D01*
X210635440Y-55787815D01*
X220862630Y-55787815D01*
X221186980Y-56572800D01*
X221787041Y-57173909D01*
X222571459Y-57499628D01*
X223420815Y-57500370D01*
X224205800Y-57176020D01*
X224806909Y-56575959D01*
X225132628Y-55791541D01*
X225133370Y-54942185D01*
X224809020Y-54157200D01*
X224208959Y-53556091D01*
X223424541Y-53230372D01*
X222575185Y-53229630D01*
X221790200Y-53553980D01*
X221189091Y-54154041D01*
X220863372Y-54938459D01*
X220862630Y-55787815D01*
X210635440Y-55787815D01*
X210635440Y-54680000D01*
X210591162Y-54444683D01*
X210452090Y-54228559D01*
X210239890Y-54083569D01*
X209988000Y-54032560D01*
X209593712Y-54032560D01*
X209826086Y-53936545D01*
X210342730Y-53420801D01*
X210622681Y-52746605D01*
X210623318Y-52016597D01*
X210344545Y-51341914D01*
X210078096Y-51075000D01*
X221928069Y-51075000D01*
X223251707Y-51338288D01*
G36*
X191852675Y-61296810D02*
X192210567Y-61832433D01*
X192532946Y-62047840D01*
X192522866Y-62052611D01*
X192146959Y-62467577D01*
X191986096Y-62855961D01*
X192108085Y-63078000D01*
X193251000Y-63078000D01*
X193251000Y-63058000D01*
X193505000Y-63058000D01*
X193505000Y-63078000D01*
X194647915Y-63078000D01*
X194769904Y-62855961D01*
X194609041Y-62467577D01*
X194471731Y-62316000D01*
X199904269Y-62316000D01*
X199766959Y-62467577D01*
X199606096Y-62855961D01*
X199728085Y-63078000D01*
X200871000Y-63078000D01*
X200871000Y-63058000D01*
X201125000Y-63058000D01*
X201125000Y-63078000D01*
X201145000Y-63078000D01*
X201145000Y-63332000D01*
X201125000Y-63332000D01*
X201125000Y-65618000D01*
X202267915Y-65618000D01*
X202389904Y-65395961D01*
X202229041Y-65007577D01*
X201853134Y-64592611D01*
X201604633Y-64475000D01*
X201853134Y-64357389D01*
X202229041Y-63942423D01*
X202368310Y-63606176D01*
X202819000Y-64056867D01*
X202819000Y-66874060D01*
X202647811Y-66759675D01*
X202080169Y-66646764D01*
X202229041Y-66482423D01*
X202389904Y-66094039D01*
X202267915Y-65872000D01*
X201125000Y-65872000D01*
X201125000Y-65892000D01*
X200871000Y-65892000D01*
X200871000Y-65872000D01*
X199728085Y-65872000D01*
X199606096Y-66094039D01*
X199766959Y-66482423D01*
X199904269Y-66634000D01*
X194471731Y-66634000D01*
X194609041Y-66482423D01*
X194769904Y-66094039D01*
X194647915Y-65872000D01*
X193505000Y-65872000D01*
X193505000Y-65892000D01*
X193251000Y-65892000D01*
X193251000Y-65872000D01*
X192108085Y-65872000D01*
X191986096Y-66094039D01*
X192146959Y-66482423D01*
X192522866Y-66897389D01*
X192532946Y-66902160D01*
X192210567Y-67117567D01*
X191852675Y-67653190D01*
X191790684Y-67964839D01*
X191669042Y-67671169D01*
X191433275Y-67609331D01*
X190677605Y-68365000D01*
X191433275Y-69120669D01*
X191669042Y-69058831D01*
X191804434Y-68674286D01*
X191852675Y-68916810D01*
X192210567Y-69452433D01*
X192540672Y-69673002D01*
X192335189Y-69810302D01*
X192024120Y-70275849D01*
X191914887Y-70825000D01*
X191960964Y-71056642D01*
X190861463Y-72156143D01*
X190498000Y-72083846D01*
X190351401Y-72113007D01*
X189814200Y-71575806D01*
X189814200Y-69539574D01*
X190305122Y-69712419D01*
X190835440Y-69683664D01*
X191191831Y-69536042D01*
X191253669Y-69300275D01*
X190498000Y-68544605D01*
X190483858Y-68558748D01*
X190304252Y-68379142D01*
X190318395Y-68365000D01*
X190304252Y-68350858D01*
X190483858Y-68171252D01*
X190498000Y-68185395D01*
X191253669Y-67429725D01*
X191191831Y-67193958D01*
X190690878Y-67017581D01*
X190160560Y-67046336D01*
X189814200Y-67189803D01*
X189814200Y-66539574D01*
X190305122Y-66712419D01*
X190835440Y-66683664D01*
X191191831Y-66536042D01*
X191253669Y-66300275D01*
X190498000Y-65544605D01*
X190483858Y-65558748D01*
X190304252Y-65379142D01*
X190318395Y-65365000D01*
X190677605Y-65365000D01*
X191433275Y-66120669D01*
X191669042Y-66058831D01*
X191845419Y-65557878D01*
X191816664Y-65027560D01*
X191669042Y-64671169D01*
X191433275Y-64609331D01*
X190677605Y-65365000D01*
X190318395Y-65365000D01*
X189562725Y-64609331D01*
X189406659Y-64650265D01*
X189186119Y-64429725D01*
X189742331Y-64429725D01*
X190498000Y-65185395D01*
X191253669Y-64429725D01*
X191191831Y-64193958D01*
X190690878Y-64017581D01*
X190160560Y-64046336D01*
X189804169Y-64193958D01*
X189742331Y-64429725D01*
X189186119Y-64429725D01*
X188310433Y-63554039D01*
X191986096Y-63554039D01*
X192146959Y-63942423D01*
X192522866Y-64357389D01*
X192771367Y-64475000D01*
X192522866Y-64592611D01*
X192146959Y-65007577D01*
X191986096Y-65395961D01*
X192108085Y-65618000D01*
X193251000Y-65618000D01*
X193251000Y-63332000D01*
X193505000Y-63332000D01*
X193505000Y-65618000D01*
X194647915Y-65618000D01*
X194769904Y-65395961D01*
X194609041Y-65007577D01*
X194233134Y-64592611D01*
X193984633Y-64475000D01*
X194233134Y-64357389D01*
X194609041Y-63942423D01*
X194769904Y-63554039D01*
X199606096Y-63554039D01*
X199766959Y-63942423D01*
X200142866Y-64357389D01*
X200391367Y-64475000D01*
X200142866Y-64592611D01*
X199766959Y-65007577D01*
X199606096Y-65395961D01*
X199728085Y-65618000D01*
X200871000Y-65618000D01*
X200871000Y-63332000D01*
X199728085Y-63332000D01*
X199606096Y-63554039D01*
X194769904Y-63554039D01*
X194647915Y-63332000D01*
X193505000Y-63332000D01*
X193251000Y-63332000D01*
X192108085Y-63332000D01*
X191986096Y-63554039D01*
X188310433Y-63554039D01*
X187790697Y-63034303D01*
X187518766Y-62852604D01*
X187198000Y-62788800D01*
X186746408Y-62788800D01*
X186663556Y-62705948D01*
X186870950Y-62678113D01*
X187001272Y-62277061D01*
X186968199Y-61856666D01*
X186919129Y-61738200D01*
X188655000Y-61738200D01*
X188975766Y-61674396D01*
X189247697Y-61492697D01*
X189526471Y-61213923D01*
X189554012Y-61255142D01*
X189987118Y-61544533D01*
X190498000Y-61646154D01*
X191008882Y-61544533D01*
X191441988Y-61255142D01*
X191731379Y-60822036D01*
X191744808Y-60754525D01*
X191852675Y-61296810D01*
X191852675Y-61296810D01*
G37*
X191852675Y-61296810D02*
X192210567Y-61832433D01*
X192532946Y-62047840D01*
X192522866Y-62052611D01*
X192146959Y-62467577D01*
X191986096Y-62855961D01*
X192108085Y-63078000D01*
X193251000Y-63078000D01*
X193251000Y-63058000D01*
X193505000Y-63058000D01*
X193505000Y-63078000D01*
X194647915Y-63078000D01*
X194769904Y-62855961D01*
X194609041Y-62467577D01*
X194471731Y-62316000D01*
X199904269Y-62316000D01*
X199766959Y-62467577D01*
X199606096Y-62855961D01*
X199728085Y-63078000D01*
X200871000Y-63078000D01*
X200871000Y-63058000D01*
X201125000Y-63058000D01*
X201125000Y-63078000D01*
X201145000Y-63078000D01*
X201145000Y-63332000D01*
X201125000Y-63332000D01*
X201125000Y-65618000D01*
X202267915Y-65618000D01*
X202389904Y-65395961D01*
X202229041Y-65007577D01*
X201853134Y-64592611D01*
X201604633Y-64475000D01*
X201853134Y-64357389D01*
X202229041Y-63942423D01*
X202368310Y-63606176D01*
X202819000Y-64056867D01*
X202819000Y-66874060D01*
X202647811Y-66759675D01*
X202080169Y-66646764D01*
X202229041Y-66482423D01*
X202389904Y-66094039D01*
X202267915Y-65872000D01*
X201125000Y-65872000D01*
X201125000Y-65892000D01*
X200871000Y-65892000D01*
X200871000Y-65872000D01*
X199728085Y-65872000D01*
X199606096Y-66094039D01*
X199766959Y-66482423D01*
X199904269Y-66634000D01*
X194471731Y-66634000D01*
X194609041Y-66482423D01*
X194769904Y-66094039D01*
X194647915Y-65872000D01*
X193505000Y-65872000D01*
X193505000Y-65892000D01*
X193251000Y-65892000D01*
X193251000Y-65872000D01*
X192108085Y-65872000D01*
X191986096Y-66094039D01*
X192146959Y-66482423D01*
X192522866Y-66897389D01*
X192532946Y-66902160D01*
X192210567Y-67117567D01*
X191852675Y-67653190D01*
X191790684Y-67964839D01*
X191669042Y-67671169D01*
X191433275Y-67609331D01*
X190677605Y-68365000D01*
X191433275Y-69120669D01*
X191669042Y-69058831D01*
X191804434Y-68674286D01*
X191852675Y-68916810D01*
X192210567Y-69452433D01*
X192540672Y-69673002D01*
X192335189Y-69810302D01*
X192024120Y-70275849D01*
X191914887Y-70825000D01*
X191960964Y-71056642D01*
X190861463Y-72156143D01*
X190498000Y-72083846D01*
X190351401Y-72113007D01*
X189814200Y-71575806D01*
X189814200Y-69539574D01*
X190305122Y-69712419D01*
X190835440Y-69683664D01*
X191191831Y-69536042D01*
X191253669Y-69300275D01*
X190498000Y-68544605D01*
X190483858Y-68558748D01*
X190304252Y-68379142D01*
X190318395Y-68365000D01*
X190304252Y-68350858D01*
X190483858Y-68171252D01*
X190498000Y-68185395D01*
X191253669Y-67429725D01*
X191191831Y-67193958D01*
X190690878Y-67017581D01*
X190160560Y-67046336D01*
X189814200Y-67189803D01*
X189814200Y-66539574D01*
X190305122Y-66712419D01*
X190835440Y-66683664D01*
X191191831Y-66536042D01*
X191253669Y-66300275D01*
X190498000Y-65544605D01*
X190483858Y-65558748D01*
X190304252Y-65379142D01*
X190318395Y-65365000D01*
X190677605Y-65365000D01*
X191433275Y-66120669D01*
X191669042Y-66058831D01*
X191845419Y-65557878D01*
X191816664Y-65027560D01*
X191669042Y-64671169D01*
X191433275Y-64609331D01*
X190677605Y-65365000D01*
X190318395Y-65365000D01*
X189562725Y-64609331D01*
X189406659Y-64650265D01*
X189186119Y-64429725D01*
X189742331Y-64429725D01*
X190498000Y-65185395D01*
X191253669Y-64429725D01*
X191191831Y-64193958D01*
X190690878Y-64017581D01*
X190160560Y-64046336D01*
X189804169Y-64193958D01*
X189742331Y-64429725D01*
X189186119Y-64429725D01*
X188310433Y-63554039D01*
X191986096Y-63554039D01*
X192146959Y-63942423D01*
X192522866Y-64357389D01*
X192771367Y-64475000D01*
X192522866Y-64592611D01*
X192146959Y-65007577D01*
X191986096Y-65395961D01*
X192108085Y-65618000D01*
X193251000Y-65618000D01*
X193251000Y-63332000D01*
X193505000Y-63332000D01*
X193505000Y-65618000D01*
X194647915Y-65618000D01*
X194769904Y-65395961D01*
X194609041Y-65007577D01*
X194233134Y-64592611D01*
X193984633Y-64475000D01*
X194233134Y-64357389D01*
X194609041Y-63942423D01*
X194769904Y-63554039D01*
X199606096Y-63554039D01*
X199766959Y-63942423D01*
X200142866Y-64357389D01*
X200391367Y-64475000D01*
X200142866Y-64592611D01*
X199766959Y-65007577D01*
X199606096Y-65395961D01*
X199728085Y-65618000D01*
X200871000Y-65618000D01*
X200871000Y-63332000D01*
X199728085Y-63332000D01*
X199606096Y-63554039D01*
X194769904Y-63554039D01*
X194647915Y-63332000D01*
X193505000Y-63332000D01*
X193251000Y-63332000D01*
X192108085Y-63332000D01*
X191986096Y-63554039D01*
X188310433Y-63554039D01*
X187790697Y-63034303D01*
X187518766Y-62852604D01*
X187198000Y-62788800D01*
X186746408Y-62788800D01*
X186663556Y-62705948D01*
X186870950Y-62678113D01*
X187001272Y-62277061D01*
X186968199Y-61856666D01*
X186919129Y-61738200D01*
X188655000Y-61738200D01*
X188975766Y-61674396D01*
X189247697Y-61492697D01*
X189526471Y-61213923D01*
X189554012Y-61255142D01*
X189987118Y-61544533D01*
X190498000Y-61646154D01*
X191008882Y-61544533D01*
X191441988Y-61255142D01*
X191731379Y-60822036D01*
X191744808Y-60754525D01*
X191852675Y-61296810D01*
G36*
X185917597Y-61959992D02*
X185928000Y-61970395D01*
X185938385Y-61960010D01*
X185945907Y-61960017D01*
X186121748Y-62135858D01*
X186107605Y-62150000D01*
X186121748Y-62164143D01*
X185942143Y-62343748D01*
X185928000Y-62329605D01*
X185913858Y-62343748D01*
X185734253Y-62164143D01*
X185748395Y-62150000D01*
X185734253Y-62135858D01*
X185910125Y-61959985D01*
X185917597Y-61959992D01*
X185917597Y-61959992D01*
G37*
X185917597Y-61959992D02*
X185928000Y-61970395D01*
X185938385Y-61960010D01*
X185945907Y-61960017D01*
X186121748Y-62135858D01*
X186107605Y-62150000D01*
X186121748Y-62164143D01*
X185942143Y-62343748D01*
X185928000Y-62329605D01*
X185913858Y-62343748D01*
X185734253Y-62164143D01*
X185748395Y-62150000D01*
X185734253Y-62135858D01*
X185910125Y-61959985D01*
X185917597Y-61959992D01*
G36*
X192335189Y-56599698D02*
X192717275Y-56855000D01*
X192335189Y-57110302D01*
X192024120Y-57575849D01*
X192004842Y-57672764D01*
X191929077Y-57748529D01*
X191917778Y-57511546D01*
X191751864Y-57110995D01*
X191505745Y-57036861D01*
X190677605Y-57865000D01*
X190691748Y-57879142D01*
X190512142Y-58058748D01*
X190498000Y-58044605D01*
X189669861Y-58872745D01*
X189743995Y-59118864D01*
X189811191Y-59143017D01*
X189554012Y-59314858D01*
X189465852Y-59446800D01*
X189270000Y-59446800D01*
X188949234Y-59510604D01*
X188677303Y-59692303D01*
X188307806Y-60061800D01*
X186904757Y-60061800D01*
X186987816Y-59861772D01*
X186988184Y-59440078D01*
X186899623Y-59225744D01*
X187157766Y-59174396D01*
X187429697Y-58992697D01*
X189206393Y-57216001D01*
X189051035Y-57648223D01*
X189078222Y-58218454D01*
X189244136Y-58619005D01*
X189490255Y-58693139D01*
X190318395Y-57865000D01*
X190304252Y-57850858D01*
X190483858Y-57671252D01*
X190498000Y-57685395D01*
X191326139Y-56857255D01*
X191252005Y-56611136D01*
X191245517Y-56608804D01*
X191309800Y-56582243D01*
X191469121Y-56423200D01*
X192217257Y-56423200D01*
X192335189Y-56599698D01*
X192335189Y-56599698D01*
G37*
X192335189Y-56599698D02*
X192717275Y-56855000D01*
X192335189Y-57110302D01*
X192024120Y-57575849D01*
X192004842Y-57672764D01*
X191929077Y-57748529D01*
X191917778Y-57511546D01*
X191751864Y-57110995D01*
X191505745Y-57036861D01*
X190677605Y-57865000D01*
X190691748Y-57879142D01*
X190512142Y-58058748D01*
X190498000Y-58044605D01*
X189669861Y-58872745D01*
X189743995Y-59118864D01*
X189811191Y-59143017D01*
X189554012Y-59314858D01*
X189465852Y-59446800D01*
X189270000Y-59446800D01*
X188949234Y-59510604D01*
X188677303Y-59692303D01*
X188307806Y-60061800D01*
X186904757Y-60061800D01*
X186987816Y-59861772D01*
X186988184Y-59440078D01*
X186899623Y-59225744D01*
X187157766Y-59174396D01*
X187429697Y-58992697D01*
X189206393Y-57216001D01*
X189051035Y-57648223D01*
X189078222Y-58218454D01*
X189244136Y-58619005D01*
X189490255Y-58693139D01*
X190318395Y-57865000D01*
X190304252Y-57850858D01*
X190483858Y-57671252D01*
X190498000Y-57685395D01*
X191326139Y-56857255D01*
X191252005Y-56611136D01*
X191245517Y-56608804D01*
X191309800Y-56582243D01*
X191469121Y-56423200D01*
X192217257Y-56423200D01*
X192335189Y-56599698D01*
M02*
