M48
; DRILL file {KiCad (5.1.10)-1} date 09/22/21 19:22:57
; FORMAT={-:-/ absolute / inch / decimal}
; #@! TF.CreationDate,2021-09-22T19:22:57-07:00
; #@! TF.GenerationSoftware,Kicad,Pcbnew,(5.1.10)-1
FMAT,2
INCH
T1C0.0157
T2C0.0197
T3C0.0354
T4C0.0394
T5C0.0429
T6C0.0433
T7C0.1063
%
G90
G05
T1
X1.55Y-1.65
X1.65Y-1.7
X1.7016Y-1.35
X1.7016Y-1.4
X2.0Y-1.375
X2.075Y-1.3704
X2.15Y-1.375
X2.25Y-1.2
T2
X1.31Y-1.5
X1.3592Y-1.5
X1.4084Y-1.5
X1.4576Y-1.5
X1.5069Y-1.5
X1.67Y-1.5
X1.7192Y-1.5
X1.7684Y-1.5
X1.8176Y-1.5
X1.8669Y-1.5
X2.03Y-1.5
X2.0792Y-1.5
X2.1284Y-1.5
X2.1776Y-1.5
X2.2269Y-1.5
X2.2761Y-1.5
X2.44Y-1.5
X2.4892Y-1.5
X2.5384Y-1.5
X2.5876Y-1.5
X2.6369Y-1.5
X2.6861Y-1.5
T3
X2.85Y-1.43
X2.95Y-1.43
T4
X1.25Y-1.85
X1.35Y-1.85
X1.45Y-1.85
X1.55Y-1.85
X1.65Y-1.05
X1.65Y-1.85
X1.75Y-1.05
X1.75Y-1.85
X1.85Y-1.05
X1.85Y-1.85
X1.95Y-1.05
X1.95Y-1.85
X2.05Y-1.05
X2.05Y-1.85
X2.15Y-1.05
X2.15Y-1.85
X2.25Y-1.05
X2.25Y-1.85
X2.35Y-1.05
X2.35Y-1.85
X2.45Y-1.05
X2.45Y-1.85
X2.55Y-1.05
X2.55Y-1.85
X2.65Y-1.05
X2.65Y-1.85
X2.75Y-1.05
X2.75Y-1.85
T5
X1.1Y-1.35
X1.1Y-1.45
X1.1Y-1.55
T6
X2.44Y-1.19
X2.44Y-1.3672
X2.6959Y-1.19
X2.6959Y-1.3672
T7
X1.1Y-1.1
X1.1Y-1.8
X2.9Y-1.1
X2.9Y-1.8
T0
M30
