G04 #@! TF.GenerationSoftware,KiCad,Pcbnew,(5.1.10)-1*
G04 #@! TF.CreationDate,2021-10-24T19:52:58-07:00*
G04 #@! TF.ProjectId,project,70726f6a-6563-4742-9e6b-696361645f70,rev?*
G04 #@! TF.SameCoordinates,Original*
G04 #@! TF.FileFunction,Legend,Top*
G04 #@! TF.FilePolarity,Positive*
%FSLAX46Y46*%
G04 Gerber Fmt 4.6, Leading zero omitted, Abs format (unit mm)*
G04 Created by KiCad (PCBNEW (5.1.10)-1) date 2021-10-24 19:52:58*
%MOMM*%
%LPD*%
G01*
G04 APERTURE LIST*
%ADD10C,0.120000*%
%ADD11C,0.150000*%
G04 APERTURE END LIST*
D10*
X113475000Y-147820000D02*
X113975000Y-147320000D01*
X113475000Y-146820000D02*
X113475000Y-147820000D01*
X113975000Y-147320000D02*
X113475000Y-146820000D01*
X114160000Y-161400000D02*
X129680000Y-161400000D01*
X129680000Y-143440000D02*
X129680000Y-161400000D01*
X129680000Y-143440000D02*
X114160000Y-143440000D01*
X114160000Y-143440000D02*
X114160000Y-161400000D01*
X119320000Y-133290000D02*
X121920000Y-133290000D01*
X119320000Y-133290000D02*
X119320000Y-138490000D01*
X119320000Y-138490000D02*
X124520000Y-138490000D01*
X124520000Y-135890000D02*
X124520000Y-138490000D01*
X121920000Y-135890000D02*
X124520000Y-135890000D01*
X121920000Y-133290000D02*
X121920000Y-135890000D01*
X124520000Y-133290000D02*
X124520000Y-134620000D01*
X123190000Y-133290000D02*
X124520000Y-133290000D01*
X117990000Y-133100000D02*
X118290000Y-133100000D01*
X118290000Y-133100000D02*
X118290000Y-132600000D01*
X117700000Y-136475000D02*
X117700000Y-132810000D01*
X117700000Y-132810000D02*
X118000000Y-132810000D01*
X118000000Y-132810000D02*
X118000000Y-131740000D01*
X118000000Y-131740000D02*
X112280000Y-131740000D01*
X112280000Y-131740000D02*
X112280000Y-136475000D01*
X117700000Y-136475000D02*
X117700000Y-140140000D01*
X117700000Y-140140000D02*
X118000000Y-140140000D01*
X118000000Y-140140000D02*
X118000000Y-141210000D01*
X118000000Y-141210000D02*
X112280000Y-141210000D01*
X112280000Y-141210000D02*
X112280000Y-136475000D01*
X131560000Y-131840000D02*
X131560000Y-136575000D01*
X125840000Y-131840000D02*
X131560000Y-131840000D01*
X125840000Y-132910000D02*
X125840000Y-131840000D01*
X126140000Y-132910000D02*
X125840000Y-132910000D01*
X126140000Y-136575000D02*
X126140000Y-132910000D01*
X131560000Y-141310000D02*
X131560000Y-136575000D01*
X125840000Y-141310000D02*
X131560000Y-141310000D01*
X125840000Y-140240000D02*
X125840000Y-141310000D01*
X126140000Y-140240000D02*
X125840000Y-140240000D01*
X126140000Y-136575000D02*
X126140000Y-140240000D01*
X125550000Y-139950000D02*
X125550000Y-140450000D01*
X125850000Y-139950000D02*
X125550000Y-139950000D01*
X110230000Y-105420000D02*
X128330000Y-105420000D01*
X110230000Y-116830000D02*
X110230000Y-105410000D01*
X128330000Y-116830000D02*
X110230000Y-116830000D01*
X128330000Y-105420000D02*
X128330000Y-116830000D01*
X114240000Y-129530000D02*
X114240000Y-118120000D01*
X114240000Y-118120000D02*
X132340000Y-118120000D01*
X132340000Y-118120000D02*
X132340000Y-129540000D01*
X132340000Y-129530000D02*
X114240000Y-129530000D01*
D11*
X114895380Y-145367333D02*
X115609666Y-145367333D01*
X115752523Y-145414952D01*
X115847761Y-145510190D01*
X115895380Y-145653047D01*
X115895380Y-145748285D01*
X114895380Y-144462571D02*
X114895380Y-144653047D01*
X114943000Y-144748285D01*
X114990619Y-144795904D01*
X115133476Y-144891142D01*
X115323952Y-144938761D01*
X115704904Y-144938761D01*
X115800142Y-144891142D01*
X115847761Y-144843523D01*
X115895380Y-144748285D01*
X115895380Y-144557809D01*
X115847761Y-144462571D01*
X115800142Y-144414952D01*
X115704904Y-144367333D01*
X115466809Y-144367333D01*
X115371571Y-144414952D01*
X115323952Y-144462571D01*
X115276333Y-144557809D01*
X115276333Y-144748285D01*
X115323952Y-144843523D01*
X115371571Y-144891142D01*
X115466809Y-144938761D01*
X121197809Y-140152380D02*
X121197809Y-139152380D01*
X121626380Y-139247619D02*
X121674000Y-139200000D01*
X121769238Y-139152380D01*
X122007333Y-139152380D01*
X122102571Y-139200000D01*
X122150190Y-139247619D01*
X122197809Y-139342857D01*
X122197809Y-139438095D01*
X122150190Y-139580952D01*
X121578761Y-140152380D01*
X122197809Y-140152380D01*
X123197809Y-140057142D02*
X123150190Y-140104761D01*
X123007333Y-140152380D01*
X122912095Y-140152380D01*
X122769238Y-140104761D01*
X122674000Y-140009523D01*
X122626380Y-139914285D01*
X122578761Y-139723809D01*
X122578761Y-139580952D01*
X122626380Y-139390476D01*
X122674000Y-139295238D01*
X122769238Y-139200000D01*
X122912095Y-139152380D01*
X123007333Y-139152380D01*
X123150190Y-139200000D01*
X123197809Y-139247619D01*
X114514380Y-140287333D02*
X115228666Y-140287333D01*
X115371523Y-140334952D01*
X115466761Y-140430190D01*
X115514380Y-140573047D01*
X115514380Y-140668285D01*
X114609619Y-139858761D02*
X114562000Y-139811142D01*
X114514380Y-139715904D01*
X114514380Y-139477809D01*
X114562000Y-139382571D01*
X114609619Y-139334952D01*
X114704857Y-139287333D01*
X114800095Y-139287333D01*
X114942952Y-139334952D01*
X115514380Y-139906380D01*
X115514380Y-139287333D01*
X112530000Y-130539904D02*
X112482380Y-130635142D01*
X112482380Y-130778000D01*
X112530000Y-130920857D01*
X112625238Y-131016095D01*
X112720476Y-131063714D01*
X112910952Y-131111333D01*
X113053809Y-131111333D01*
X113244285Y-131063714D01*
X113339523Y-131016095D01*
X113434761Y-130920857D01*
X113482380Y-130778000D01*
X113482380Y-130682761D01*
X113434761Y-130539904D01*
X113387142Y-130492285D01*
X113053809Y-130492285D01*
X113053809Y-130682761D01*
X113482380Y-129635142D02*
X112958571Y-129635142D01*
X112863333Y-129682761D01*
X112815714Y-129778000D01*
X112815714Y-129968476D01*
X112863333Y-130063714D01*
X113434761Y-129635142D02*
X113482380Y-129730380D01*
X113482380Y-129968476D01*
X113434761Y-130063714D01*
X113339523Y-130111333D01*
X113244285Y-130111333D01*
X113149047Y-130063714D01*
X113101428Y-129968476D01*
X113101428Y-129730380D01*
X113053809Y-129635142D01*
X112815714Y-129301809D02*
X112815714Y-128920857D01*
X112482380Y-129158952D02*
X113339523Y-129158952D01*
X113434761Y-129111333D01*
X113482380Y-129016095D01*
X113482380Y-128920857D01*
X113434761Y-128206571D02*
X113482380Y-128301809D01*
X113482380Y-128492285D01*
X113434761Y-128587523D01*
X113339523Y-128635142D01*
X112958571Y-128635142D01*
X112863333Y-128587523D01*
X112815714Y-128492285D01*
X112815714Y-128301809D01*
X112863333Y-128206571D01*
X112958571Y-128158952D01*
X113053809Y-128158952D01*
X113149047Y-128635142D01*
X113482380Y-126444666D02*
X113482380Y-127016095D01*
X113482380Y-126730380D02*
X112482380Y-126730380D01*
X112625238Y-126825619D01*
X112720476Y-126920857D01*
X112768095Y-127016095D01*
X128484380Y-133429333D02*
X129198666Y-133429333D01*
X129341523Y-133476952D01*
X129436761Y-133572190D01*
X129484380Y-133715047D01*
X129484380Y-133810285D01*
X128912952Y-132810285D02*
X128865333Y-132905523D01*
X128817714Y-132953142D01*
X128722476Y-133000761D01*
X128674857Y-133000761D01*
X128579619Y-132953142D01*
X128532000Y-132905523D01*
X128484380Y-132810285D01*
X128484380Y-132619809D01*
X128532000Y-132524571D01*
X128579619Y-132476952D01*
X128674857Y-132429333D01*
X128722476Y-132429333D01*
X128817714Y-132476952D01*
X128865333Y-132524571D01*
X128912952Y-132619809D01*
X128912952Y-132810285D01*
X128960571Y-132905523D01*
X129008190Y-132953142D01*
X129103428Y-133000761D01*
X129293904Y-133000761D01*
X129389142Y-132953142D01*
X129436761Y-132905523D01*
X129484380Y-132810285D01*
X129484380Y-132619809D01*
X129436761Y-132524571D01*
X129389142Y-132476952D01*
X129293904Y-132429333D01*
X129103428Y-132429333D01*
X129008190Y-132476952D01*
X128960571Y-132524571D01*
X128912952Y-132619809D01*
X130310000Y-146541904D02*
X130262380Y-146637142D01*
X130262380Y-146780000D01*
X130310000Y-146922857D01*
X130405238Y-147018095D01*
X130500476Y-147065714D01*
X130690952Y-147113333D01*
X130833809Y-147113333D01*
X131024285Y-147065714D01*
X131119523Y-147018095D01*
X131214761Y-146922857D01*
X131262380Y-146780000D01*
X131262380Y-146684761D01*
X131214761Y-146541904D01*
X131167142Y-146494285D01*
X130833809Y-146494285D01*
X130833809Y-146684761D01*
X131262380Y-145637142D02*
X130738571Y-145637142D01*
X130643333Y-145684761D01*
X130595714Y-145780000D01*
X130595714Y-145970476D01*
X130643333Y-146065714D01*
X131214761Y-145637142D02*
X131262380Y-145732380D01*
X131262380Y-145970476D01*
X131214761Y-146065714D01*
X131119523Y-146113333D01*
X131024285Y-146113333D01*
X130929047Y-146065714D01*
X130881428Y-145970476D01*
X130881428Y-145732380D01*
X130833809Y-145637142D01*
X130595714Y-145303809D02*
X130595714Y-144922857D01*
X130262380Y-145160952D02*
X131119523Y-145160952D01*
X131214761Y-145113333D01*
X131262380Y-145018095D01*
X131262380Y-144922857D01*
X131214761Y-144208571D02*
X131262380Y-144303809D01*
X131262380Y-144494285D01*
X131214761Y-144589523D01*
X131119523Y-144637142D01*
X130738571Y-144637142D01*
X130643333Y-144589523D01*
X130595714Y-144494285D01*
X130595714Y-144303809D01*
X130643333Y-144208571D01*
X130738571Y-144160952D01*
X130833809Y-144160952D01*
X130929047Y-144637142D01*
X130357619Y-143018095D02*
X130310000Y-142970476D01*
X130262380Y-142875238D01*
X130262380Y-142637142D01*
X130310000Y-142541904D01*
X130357619Y-142494285D01*
X130452857Y-142446666D01*
X130548095Y-142446666D01*
X130690952Y-142494285D01*
X131262380Y-143065714D01*
X131262380Y-142446666D01*
X126452380Y-108283333D02*
X127166666Y-108283333D01*
X127309523Y-108330952D01*
X127404761Y-108426190D01*
X127452380Y-108569047D01*
X127452380Y-108664285D01*
X126452380Y-107902380D02*
X126452380Y-107283333D01*
X126833333Y-107616666D01*
X126833333Y-107473809D01*
X126880952Y-107378571D01*
X126928571Y-107330952D01*
X127023809Y-107283333D01*
X127261904Y-107283333D01*
X127357142Y-107330952D01*
X127404761Y-107378571D01*
X127452380Y-107473809D01*
X127452380Y-107759523D01*
X127404761Y-107854761D01*
X127357142Y-107902380D01*
X128992380Y-124793333D02*
X129706666Y-124793333D01*
X129849523Y-124840952D01*
X129944761Y-124936190D01*
X129992380Y-125079047D01*
X129992380Y-125174285D01*
X129325714Y-123888571D02*
X129992380Y-123888571D01*
X128944761Y-124126666D02*
X129659047Y-124364761D01*
X129659047Y-123745714D01*
M02*
