%MOIN*%
%OFA0B0*%
%FSLAX46Y46*%
%IPPOS*%
%LPD*%
%ADD10C,0.0039370078740157488*%
%ADD11R,0.070866141732283464X0.070866141732283464*%
%ADD12O,0.070866141732283464X0.070866141732283464*%
%ADD13R,0.03937007874015748X0.03937007874015748*%
%ADD14O,0.03937007874015748X0.03937007874015748*%
%ADD15R,0.066929133858267723X0.066929133858267723*%
%ADD16O,0.066929133858267723X0.066929133858267723*%
%ADD17O,0.07874015748031496X0.07*%
%ADD18R,0.059055118110236227X0.07874015748031496*%
%ADD19O,0.062992125984251982X0.07874015748031496*%
%ADD20R,0.07874015748031496X0.051181102362204731*%
%ADD21O,0.07874015748031496X0.059055118110236227*%
%ADD22R,0.062992125984251982X0.07874015748031496*%
%ADD23O,0.07874015748031496X0.062992125984251982*%
%ADD24R,0.07874015748031496X0.062992125984251982*%
%ADD25O,0.07874015748031496X0.059842519685039376*%
%ADD26R,0.07874015748031496X0.059842519685039376*%
%ADD27R,0.11811023622047245X0.059055118110236227*%
%ADD28O,0.11811023622047245X0.059055118110236227*%
%ADD29R,0.068X0.08*%
%ADD30O,0.068X0.08*%
%ADD31C,0.094488188976377951*%
%ADD32R,0.094488188976377951X0.094488188976377951*%
%ADD33C,0.0905511811023622*%
%ADD34R,0.094488188976377951X0.062992125984251982*%
%ADD35O,0.094488188976377951X0.062992125984251982*%
%ADD36C,0.07874015748031496*%
%ADD37C,0.024000000000000004*%
%ADD48C,0.0039370078740157488*%
%ADD49R,0.070866141732283464X0.070866141732283464*%
%ADD50O,0.070866141732283464X0.070866141732283464*%
%ADD51R,0.03937007874015748X0.03937007874015748*%
%ADD52O,0.03937007874015748X0.03937007874015748*%
%ADD53R,0.066929133858267723X0.066929133858267723*%
%ADD54O,0.066929133858267723X0.066929133858267723*%
%ADD55O,0.07X0.07874015748031496*%
%ADD56R,0.07874015748031496X0.059055118110236227*%
%ADD57O,0.07874015748031496X0.062992125984251982*%
%ADD58R,0.051181102362204731X0.07874015748031496*%
%ADD59O,0.059055118110236227X0.07874015748031496*%
%ADD60R,0.07874015748031496X0.062992125984251982*%
%ADD61O,0.062992125984251982X0.07874015748031496*%
%ADD62R,0.062992125984251982X0.07874015748031496*%
%ADD63O,0.059842519685039376X0.07874015748031496*%
%ADD64R,0.059842519685039376X0.07874015748031496*%
%ADD65R,0.059055118110236227X0.11811023622047245*%
%ADD66O,0.059055118110236227X0.11811023622047245*%
%ADD67R,0.08X0.068*%
%ADD68O,0.08X0.068*%
%ADD69C,0.094488188976377951*%
%ADD70R,0.094488188976377951X0.094488188976377951*%
%ADD71C,0.0905511811023622*%
%ADD72R,0.062992125984251982X0.094488188976377951*%
%ADD73O,0.062992125984251982X0.094488188976377951*%
%ADD74C,0.07874015748031496*%
%ADD75C,0.024000000000000004*%
%ADD76C,0.0039370078740157488*%
%ADD77R,0.070866141732283464X0.070866141732283464*%
%ADD78O,0.070866141732283464X0.070866141732283464*%
%ADD79R,0.03937007874015748X0.03937007874015748*%
%ADD80O,0.03937007874015748X0.03937007874015748*%
%ADD81R,0.066929133858267723X0.066929133858267723*%
%ADD82O,0.066929133858267723X0.066929133858267723*%
%ADD83O,0.07874015748031496X0.07*%
%ADD84R,0.059055118110236227X0.07874015748031496*%
%ADD85O,0.062992125984251982X0.07874015748031496*%
%ADD86R,0.07874015748031496X0.051181102362204731*%
%ADD87O,0.07874015748031496X0.059055118110236227*%
%ADD88R,0.062992125984251982X0.07874015748031496*%
%ADD89O,0.07874015748031496X0.062992125984251982*%
%ADD90R,0.07874015748031496X0.062992125984251982*%
%ADD91O,0.07874015748031496X0.059842519685039376*%
%ADD92R,0.07874015748031496X0.059842519685039376*%
%ADD93R,0.11811023622047245X0.059055118110236227*%
%ADD94O,0.11811023622047245X0.059055118110236227*%
%ADD95R,0.068X0.08*%
%ADD96O,0.068X0.08*%
%ADD97C,0.094488188976377951*%
%ADD98R,0.094488188976377951X0.094488188976377951*%
%ADD99C,0.0905511811023622*%
%ADD100R,0.094488188976377951X0.062992125984251982*%
%ADD101O,0.094488188976377951X0.062992125984251982*%
%ADD102C,0.07874015748031496*%
%ADD103C,0.024000000000000004*%
G01*
D10*
D11*
X-0004799999Y0004650000D02*
X0000650000Y0001350000D03*
D12*
X0000350000Y0001350000D03*
D13*
X0001450000Y0001900000D03*
D14*
X0001450000Y0001825000D03*
X0001450000Y0001750000D03*
D15*
X0001100000Y0001300000D03*
D16*
X0001100000Y0001200000D03*
X0001100000Y0001100000D03*
X0001100000Y0001000000D03*
D15*
X0001425000Y0001300000D03*
D16*
X0001425000Y0001200000D03*
X0001425000Y0001100000D03*
X0001425000Y0001000000D03*
D17*
X0001250000Y0000200000D03*
X0001250000Y0000400000D03*
D18*
X0001150000Y0002200000D03*
D19*
X0001250000Y0002200000D03*
X0001350000Y0002200000D03*
D20*
X0001125000Y0001575000D03*
D21*
X0001125000Y0001476574D03*
D20*
X0001125000Y0002075000D03*
D21*
X0001125000Y0001976574D03*
D22*
X0000600000Y0001950000D03*
D19*
X0000501574Y0001950000D03*
D23*
X0000500000Y0000101574D03*
D24*
X0000500000Y0000200000D03*
D25*
X0001125000Y0001775000D03*
X0001125000Y0001875000D03*
D26*
X0001125000Y0001675000D03*
D25*
X0001125000Y0000725000D03*
X0001125000Y0000825000D03*
D26*
X0001125000Y0000625000D03*
D27*
X0000100000Y0000950000D03*
D28*
X0000100000Y0001048425D03*
X0000100000Y0001146850D03*
X0000100000Y0001245275D03*
X0000100000Y0001343700D03*
D29*
X0000650000Y0002125000D03*
D30*
X0000550000Y0002125000D03*
X0000450000Y0002125000D03*
D31*
X0000250000Y0001812204D03*
D32*
X0000250000Y0001950000D03*
D31*
X0000250000Y0001512204D03*
D32*
X0000250000Y0001650000D03*
D33*
X0000802755Y0002209055D03*
X0000802755Y0000090944D03*
D34*
X0000650000Y0000400000D03*
D35*
X0000350000Y0001200000D03*
X0000650000Y0000500000D03*
X0000350000Y0001100000D03*
X0000650000Y0000600000D03*
X0000350000Y0001000000D03*
X0000650000Y0000700000D03*
X0000350000Y0000900000D03*
X0000650000Y0000800000D03*
X0000350000Y0000800000D03*
X0000650000Y0000900000D03*
X0000350000Y0000700000D03*
X0000650000Y0001000000D03*
X0000350000Y0000600000D03*
X0000650000Y0001100000D03*
X0000350000Y0000500000D03*
X0000650000Y0001200000D03*
X0000350000Y0000400000D03*
D27*
X0000100000Y0000350000D03*
D28*
X0000100000Y0000448425D03*
X0000100000Y0000546850D03*
X0000100000Y0000645275D03*
X0000100000Y0000743700D03*
D11*
X0000500000Y0001550000D03*
D12*
X0000500000Y0001650000D03*
X0000500000Y0001750000D03*
D36*
X0000650000Y0001800000D03*
X0000650000Y0001500000D03*
X0001250000Y0000575000D03*
X0001250000Y0000875000D03*
X0001250000Y0001725000D03*
X0001250000Y0001425000D03*
D37*
X0001100000Y0001300000D02*
X0001100000Y0001426574D01*
X0001100000Y0001426574D02*
X0001125000Y0001476574D01*
X0001425000Y0001300000D02*
X0001100000Y0001300000D01*
X0000802755Y0000090944D02*
X0001140944Y0000090944D01*
X0001140944Y0000090944D02*
X0001250000Y0000200000D01*
X0001125000Y0001575000D02*
X0001100000Y0001575000D01*
X0001025000Y0001500000D02*
X0001100000Y0001575000D01*
X0001025000Y0000925000D02*
X0001125000Y0000825000D01*
X0001025000Y0000925000D02*
X0001025000Y0001350000D01*
X0001025000Y0001350000D02*
X0001025000Y0001500000D01*
X0001125000Y0001875000D02*
X0001250000Y0001875000D01*
X0001250000Y0001875000D02*
X0001300000Y0001825000D01*
X0001300000Y0001825000D02*
X0001450000Y0001825000D01*
X0000350000Y0001475000D02*
X0000350000Y0001700000D01*
X0000350000Y0001700000D02*
X0000600000Y0001950000D01*
X0000350000Y0001350000D02*
X0000350000Y0001475000D01*
X0000425000Y0001550000D02*
X0000500000Y0001550000D01*
X0000350000Y0001475000D02*
X0000425000Y0001550000D01*
X0000350000Y0001350000D02*
X0000350000Y0001200000D01*
X0000100000Y0001343700D02*
X0000343700Y0001343700D01*
X0000343700Y0001343700D02*
X0000350000Y0001350000D01*
X0001100000Y0001100000D02*
X0001425000Y0001100000D01*
X0001100000Y0001200000D02*
X0001425000Y0001200000D01*
X0000500000Y0001650000D02*
X0000525000Y0001650000D01*
X0000525000Y0001650000D02*
X0000575000Y0001700000D01*
X0001000000Y0001875000D02*
X0001075000Y0001800000D01*
X0000600000Y0001875000D02*
X0001000000Y0001875000D01*
X0000575000Y0001850000D02*
X0000600000Y0001875000D01*
X0000575000Y0001700000D02*
X0000575000Y0001850000D01*
X0001125000Y0001775000D02*
X0001100000Y0001775000D01*
X0001100000Y0001775000D02*
X0001075000Y0001800000D01*
X0001075000Y0001800000D02*
X0001050000Y0001825000D01*
X0001075000Y0002075000D02*
X0001125000Y0002075000D01*
X0001050000Y0002050000D02*
X0001075000Y0002075000D01*
X0001050000Y0001825000D02*
X0001050000Y0002050000D01*
X0001450000Y0001900000D02*
X0001450000Y0001925000D01*
X0001450000Y0001925000D02*
X0001250000Y0002125000D01*
X0001125000Y0002075000D02*
X0001200000Y0002075000D01*
X0001250000Y0002125000D02*
X0001250000Y0002200000D01*
X0001200000Y0002075000D02*
X0001250000Y0002125000D01*
X0000650000Y0001350000D02*
X0000575000Y0001425000D01*
X0000575000Y0001425000D02*
X0000575000Y0001550000D01*
X0000575000Y0001550000D02*
X0000575000Y0001600000D01*
X0000575000Y0001600000D02*
X0000525000Y0001650000D01*
X0000100000Y0000350000D02*
X0000175000Y0000350000D01*
X0000225000Y0000400000D02*
X0000350000Y0000400000D01*
X0000175000Y0000350000D02*
X0000225000Y0000400000D01*
X0000100000Y0000448425D02*
X0000173425Y0000448425D01*
X0000225000Y0000500000D02*
X0000350000Y0000500000D01*
X0000173425Y0000448425D02*
X0000225000Y0000500000D01*
X0000100000Y0000546850D02*
X0000171850Y0000546850D01*
X0000225000Y0000600000D02*
X0000350000Y0000600000D01*
X0000171850Y0000546850D02*
X0000225000Y0000600000D01*
X0000100000Y0000645275D02*
X0000170275Y0000645275D01*
X0000225000Y0000700000D02*
X0000350000Y0000700000D01*
X0000170275Y0000645275D02*
X0000225000Y0000700000D01*
X0000100000Y0000950000D02*
X0000100000Y0000850000D01*
X0000150000Y0000800000D02*
X0000350000Y0000800000D01*
X0000100000Y0000850000D02*
X0000150000Y0000800000D01*
X0000100000Y0001048425D02*
X0000151574Y0001048425D01*
X0000151574Y0001048425D02*
X0000300000Y0000900000D01*
X0000300000Y0000900000D02*
X0000350000Y0000900000D01*
X0000100000Y0001146850D02*
X0000178149Y0001146850D01*
X0000178149Y0001146850D02*
X0000325000Y0001000000D01*
X0000325000Y0001000000D02*
X0000350000Y0001000000D01*
X0000100000Y0001245275D02*
X0000179724Y0001245275D01*
X0000179724Y0001245275D02*
X0000325000Y0001100000D01*
X0000325000Y0001100000D02*
X0000350000Y0001100000D01*
X0000250000Y0001512204D02*
X0000187795Y0001512204D01*
X0000925000Y0002200000D02*
X0001150000Y0002200000D01*
X0000775000Y0002050000D02*
X0000925000Y0002200000D01*
X0000200000Y0002050000D02*
X0000775000Y0002050000D01*
X0000125000Y0001975000D02*
X0000200000Y0002050000D01*
X0000125000Y0001575000D02*
X0000125000Y0001975000D01*
X0000187795Y0001512204D02*
X0000125000Y0001575000D01*
X0001100000Y0001000000D02*
X0001425000Y0001000000D01*
X0001125000Y0000725000D02*
X0001175000Y0000725000D01*
X0001250000Y0000650000D02*
X0001250000Y0000575000D01*
X0001175000Y0000725000D02*
X0001250000Y0000650000D01*
X0001250000Y0001725000D02*
X0000800000Y0001725000D01*
X0000725000Y0001800000D02*
X0000650000Y0001800000D01*
X0000800000Y0001725000D02*
X0000725000Y0001800000D01*
G04 next file*
G04 #@! TF.FileFunction,Copper,L2,Bot,Signal*
G04 Gerber Fmt 4.6, Leading zero omitted, Abs format (unit mm)*
G04 Created by KiCad (PCBNEW 4.0.6) date 09/25/19 08:33:56*
G01*
G04 APERTURE LIST*
G04 APERTURE END LIST*
D48*
D49*
X-0002327165Y-0002398425D02*
X0000972834Y0003051574D03*
D50*
X0000972834Y0002751574D03*
D51*
X0000422834Y0003851574D03*
D52*
X0000497834Y0003851574D03*
X0000572834Y0003851574D03*
D53*
X0001022834Y0003501574D03*
D54*
X0001122834Y0003501574D03*
X0001222834Y0003501574D03*
X0001322834Y0003501574D03*
D53*
X0001022834Y0003826574D03*
D54*
X0001122834Y0003826574D03*
X0001222834Y0003826574D03*
X0001322834Y0003826574D03*
D55*
X0002122834Y0003651574D03*
X0001922834Y0003651574D03*
D56*
X0000122834Y0003551574D03*
D57*
X0000122834Y0003651574D03*
X0000122834Y0003751574D03*
D58*
X0000747834Y0003526574D03*
D59*
X0000846259Y0003526574D03*
D58*
X0000247834Y0003526574D03*
D59*
X0000346259Y0003526574D03*
D60*
X0000372834Y0003001574D03*
D57*
X0000372834Y0002903149D03*
D61*
X0002221259Y0002901574D03*
D62*
X0002122834Y0002901574D03*
D63*
X0000547834Y0003526574D03*
X0000447834Y0003526574D03*
D64*
X0000647834Y0003526574D03*
D63*
X0001597834Y0003526574D03*
X0001497834Y0003526574D03*
D64*
X0001697834Y0003526574D03*
D65*
X0001372834Y0002501574D03*
D66*
X0001274409Y0002501574D03*
X0001175984Y0002501574D03*
X0001077559Y0002501574D03*
X0000979133Y0002501574D03*
D67*
X0000197834Y0003051574D03*
D68*
X0000197834Y0002951574D03*
X0000197834Y0002851574D03*
D69*
X0000510629Y0002651574D03*
D70*
X0000372834Y0002651574D03*
D69*
X0000810629Y0002651574D03*
D70*
X0000672834Y0002651574D03*
D71*
X0000113779Y0003204330D03*
X0002231889Y0003204330D03*
D72*
X0001922834Y0003051574D03*
D73*
X0001122834Y0002751574D03*
X0001822834Y0003051574D03*
X0001222834Y0002751574D03*
X0001722834Y0003051574D03*
X0001322834Y0002751574D03*
X0001622834Y0003051574D03*
X0001422834Y0002751574D03*
X0001522834Y0003051574D03*
X0001522834Y0002751574D03*
X0001422834Y0003051574D03*
X0001622834Y0002751574D03*
X0001322834Y0003051574D03*
X0001722834Y0002751574D03*
X0001222834Y0003051574D03*
X0001822834Y0002751574D03*
X0001122834Y0003051574D03*
X0001922834Y0002751574D03*
D65*
X0001972834Y0002501574D03*
D66*
X0001874409Y0002501574D03*
X0001775984Y0002501574D03*
X0001677559Y0002501574D03*
X0001579133Y0002501574D03*
D49*
X0000772834Y0002901574D03*
D50*
X0000672834Y0002901574D03*
X0000572834Y0002901574D03*
D74*
X0000522834Y0003051574D03*
X0000822834Y0003051574D03*
X0001747834Y0003651574D03*
X0001447834Y0003651574D03*
X0000597834Y0003651574D03*
X0000897834Y0003651574D03*
D75*
X0001022834Y0003501574D02*
X0000896259Y0003501574D01*
X0000896259Y0003501574D02*
X0000846259Y0003526574D01*
X0001022834Y0003826574D02*
X0001022834Y0003501574D01*
X0002231889Y0003204330D02*
X0002231889Y0003542519D01*
X0002231889Y0003542519D02*
X0002122834Y0003651574D01*
X0000747834Y0003526574D02*
X0000747834Y0003501574D01*
X0000822834Y0003426574D02*
X0000747834Y0003501574D01*
X0001397834Y0003426574D02*
X0001497834Y0003526574D01*
X0001397834Y0003426574D02*
X0000972834Y0003426574D01*
X0000972834Y0003426574D02*
X0000822834Y0003426574D01*
X0000447834Y0003526574D02*
X0000447834Y0003651574D01*
X0000447834Y0003651574D02*
X0000497834Y0003701574D01*
X0000497834Y0003701574D02*
X0000497834Y0003851574D01*
X0000847834Y0002751574D02*
X0000622834Y0002751574D01*
X0000622834Y0002751574D02*
X0000372834Y0003001574D01*
X0000972834Y0002751574D02*
X0000847834Y0002751574D01*
X0000772834Y0002826574D02*
X0000772834Y0002901574D01*
X0000847834Y0002751574D02*
X0000772834Y0002826574D01*
X0000972834Y0002751574D02*
X0001122834Y0002751574D01*
X0000979133Y0002501574D02*
X0000979133Y0002745275D01*
X0000979133Y0002745275D02*
X0000972834Y0002751574D01*
X0001222834Y0003501574D02*
X0001222834Y0003826574D01*
X0001122834Y0003501574D02*
X0001122834Y0003826574D01*
X0000672834Y0002901574D02*
X0000672834Y0002926574D01*
X0000672834Y0002926574D02*
X0000622834Y0002976574D01*
X0000447834Y0003401574D02*
X0000522834Y0003476574D01*
X0000447834Y0003001574D02*
X0000447834Y0003401574D01*
X0000472834Y0002976574D02*
X0000447834Y0003001574D01*
X0000622834Y0002976574D02*
X0000472834Y0002976574D01*
X0000547834Y0003526574D02*
X0000547834Y0003501574D01*
X0000547834Y0003501574D02*
X0000522834Y0003476574D01*
X0000522834Y0003476574D02*
X0000497834Y0003451574D01*
X0000247834Y0003476574D02*
X0000247834Y0003526574D01*
X0000272834Y0003451574D02*
X0000247834Y0003476574D01*
X0000497834Y0003451574D02*
X0000272834Y0003451574D01*
X0000422834Y0003851574D02*
X0000397834Y0003851574D01*
X0000397834Y0003851574D02*
X0000197834Y0003651574D01*
X0000247834Y0003526574D02*
X0000247834Y0003601574D01*
X0000197834Y0003651574D02*
X0000122834Y0003651574D01*
X0000247834Y0003601574D02*
X0000197834Y0003651574D01*
X0000972834Y0003051574D02*
X0000897834Y0002976574D01*
X0000897834Y0002976574D02*
X0000772834Y0002976574D01*
X0000772834Y0002976574D02*
X0000722834Y0002976574D01*
X0000722834Y0002976574D02*
X0000672834Y0002926574D01*
X0001972834Y0002501574D02*
X0001972834Y0002576574D01*
X0001922834Y0002626574D02*
X0001922834Y0002751574D01*
X0001972834Y0002576574D02*
X0001922834Y0002626574D01*
X0001874409Y0002501574D02*
X0001874409Y0002575000D01*
X0001822834Y0002626574D02*
X0001822834Y0002751574D01*
X0001874409Y0002575000D02*
X0001822834Y0002626574D01*
X0001775984Y0002501574D02*
X0001775984Y0002573425D01*
X0001722834Y0002626574D02*
X0001722834Y0002751574D01*
X0001775984Y0002573425D02*
X0001722834Y0002626574D01*
X0001677559Y0002501574D02*
X0001677559Y0002571850D01*
X0001622834Y0002626574D02*
X0001622834Y0002751574D01*
X0001677559Y0002571850D02*
X0001622834Y0002626574D01*
X0001372834Y0002501574D02*
X0001472834Y0002501574D01*
X0001522834Y0002551574D02*
X0001522834Y0002751574D01*
X0001472834Y0002501574D02*
X0001522834Y0002551574D01*
X0001274409Y0002501574D02*
X0001274409Y0002553149D01*
X0001274409Y0002553149D02*
X0001422834Y0002701574D01*
X0001422834Y0002701574D02*
X0001422834Y0002751574D01*
X0001175984Y0002501574D02*
X0001175984Y0002579724D01*
X0001175984Y0002579724D02*
X0001322834Y0002726574D01*
X0001322834Y0002726574D02*
X0001322834Y0002751574D01*
X0001077559Y0002501574D02*
X0001077559Y0002581299D01*
X0001077559Y0002581299D02*
X0001222834Y0002726574D01*
X0001222834Y0002726574D02*
X0001222834Y0002751574D01*
X0000810629Y0002651574D02*
X0000810629Y0002589370D01*
X0000122834Y0003326574D02*
X0000122834Y0003551574D01*
X0000272834Y0003176574D02*
X0000122834Y0003326574D01*
X0000272834Y0002601574D02*
X0000272834Y0003176574D01*
X0000347834Y0002526574D02*
X0000272834Y0002601574D01*
X0000747834Y0002526574D02*
X0000347834Y0002526574D01*
X0000810629Y0002589370D02*
X0000747834Y0002526574D01*
X0001322834Y0003501574D02*
X0001322834Y0003826574D01*
X0001597834Y0003526574D02*
X0001597834Y0003576574D01*
X0001672834Y0003651574D02*
X0001747834Y0003651574D01*
X0001597834Y0003576574D02*
X0001672834Y0003651574D01*
X0000597834Y0003651574D02*
X0000597834Y0003201574D01*
X0000522834Y0003126574D02*
X0000522834Y0003051574D01*
X0000597834Y0003201574D02*
X0000522834Y0003126574D01*
G04 next file*
G04 #@! TF.FileFunction,Copper,L2,Bot,Signal*
G04 Gerber Fmt 4.6, Leading zero omitted, Abs format (unit mm)*
G04 Created by KiCad (PCBNEW 4.0.6) date 09/25/19 08:33:56*
G01*
G04 APERTURE LIST*
G04 APERTURE END LIST*
D76*
D77*
X-0003185826Y0004650000D02*
X0002264173Y0001350000D03*
D78*
X0001964173Y0001350000D03*
D79*
X0003064173Y0001900000D03*
D80*
X0003064173Y0001825000D03*
X0003064173Y0001750000D03*
D81*
X0002714173Y0001300000D03*
D82*
X0002714173Y0001200000D03*
X0002714173Y0001100000D03*
X0002714173Y0001000000D03*
D81*
X0003039173Y0001300000D03*
D82*
X0003039173Y0001200000D03*
X0003039173Y0001100000D03*
X0003039173Y0001000000D03*
D83*
X0002864173Y0000200000D03*
X0002864173Y0000400000D03*
D84*
X0002764173Y0002200000D03*
D85*
X0002864173Y0002200000D03*
X0002964173Y0002200000D03*
D86*
X0002739173Y0001575000D03*
D87*
X0002739173Y0001476574D03*
D86*
X0002739173Y0002075000D03*
D87*
X0002739173Y0001976574D03*
D88*
X0002214173Y0001950000D03*
D85*
X0002115748Y0001950000D03*
D89*
X0002114173Y0000101574D03*
D90*
X0002114173Y0000200000D03*
D91*
X0002739173Y0001775000D03*
X0002739173Y0001875000D03*
D92*
X0002739173Y0001675000D03*
D91*
X0002739173Y0000725000D03*
X0002739173Y0000825000D03*
D92*
X0002739173Y0000625000D03*
D93*
X0001714173Y0000950000D03*
D94*
X0001714173Y0001048425D03*
X0001714173Y0001146850D03*
X0001714173Y0001245275D03*
X0001714173Y0001343700D03*
D95*
X0002264173Y0002125000D03*
D96*
X0002164173Y0002125000D03*
X0002064173Y0002125000D03*
D97*
X0001864173Y0001812204D03*
D98*
X0001864173Y0001950000D03*
D97*
X0001864173Y0001512204D03*
D98*
X0001864173Y0001650000D03*
D99*
X0002416929Y0002209055D03*
X0002416929Y0000090944D03*
D100*
X0002264173Y0000400000D03*
D101*
X0001964173Y0001200000D03*
X0002264173Y0000500000D03*
X0001964173Y0001100000D03*
X0002264173Y0000600000D03*
X0001964173Y0001000000D03*
X0002264173Y0000700000D03*
X0001964173Y0000900000D03*
X0002264173Y0000800000D03*
X0001964173Y0000800000D03*
X0002264173Y0000900000D03*
X0001964173Y0000700000D03*
X0002264173Y0001000000D03*
X0001964173Y0000600000D03*
X0002264173Y0001100000D03*
X0001964173Y0000500000D03*
X0002264173Y0001200000D03*
X0001964173Y0000400000D03*
D93*
X0001714173Y0000350000D03*
D94*
X0001714173Y0000448425D03*
X0001714173Y0000546850D03*
X0001714173Y0000645275D03*
X0001714173Y0000743700D03*
D77*
X0002114173Y0001550000D03*
D78*
X0002114173Y0001650000D03*
X0002114173Y0001750000D03*
D102*
X0002264173Y0001800000D03*
X0002264173Y0001500000D03*
X0002864173Y0000575000D03*
X0002864173Y0000875000D03*
X0002864173Y0001725000D03*
X0002864173Y0001425000D03*
D103*
X0002714173Y0001300000D02*
X0002714173Y0001426574D01*
X0002714173Y0001426574D02*
X0002739173Y0001476574D01*
X0003039173Y0001300000D02*
X0002714173Y0001300000D01*
X0002416929Y0000090944D02*
X0002755118Y0000090944D01*
X0002755118Y0000090944D02*
X0002864173Y0000200000D01*
X0002739173Y0001575000D02*
X0002714173Y0001575000D01*
X0002639173Y0001500000D02*
X0002714173Y0001575000D01*
X0002639173Y0000925000D02*
X0002739173Y0000825000D01*
X0002639173Y0000925000D02*
X0002639173Y0001350000D01*
X0002639173Y0001350000D02*
X0002639173Y0001500000D01*
X0002739173Y0001875000D02*
X0002864173Y0001875000D01*
X0002864173Y0001875000D02*
X0002914173Y0001825000D01*
X0002914173Y0001825000D02*
X0003064173Y0001825000D01*
X0001964173Y0001475000D02*
X0001964173Y0001700000D01*
X0001964173Y0001700000D02*
X0002214173Y0001950000D01*
X0001964173Y0001350000D02*
X0001964173Y0001475000D01*
X0002039173Y0001550000D02*
X0002114173Y0001550000D01*
X0001964173Y0001475000D02*
X0002039173Y0001550000D01*
X0001964173Y0001350000D02*
X0001964173Y0001200000D01*
X0001714173Y0001343700D02*
X0001957874Y0001343700D01*
X0001957874Y0001343700D02*
X0001964173Y0001350000D01*
X0002714173Y0001100000D02*
X0003039173Y0001100000D01*
X0002714173Y0001200000D02*
X0003039173Y0001200000D01*
X0002114173Y0001650000D02*
X0002139173Y0001650000D01*
X0002139173Y0001650000D02*
X0002189173Y0001700000D01*
X0002614173Y0001875000D02*
X0002689173Y0001800000D01*
X0002214173Y0001875000D02*
X0002614173Y0001875000D01*
X0002189173Y0001850000D02*
X0002214173Y0001875000D01*
X0002189173Y0001700000D02*
X0002189173Y0001850000D01*
X0002739173Y0001775000D02*
X0002714173Y0001775000D01*
X0002714173Y0001775000D02*
X0002689173Y0001800000D01*
X0002689173Y0001800000D02*
X0002664173Y0001825000D01*
X0002689173Y0002075000D02*
X0002739173Y0002075000D01*
X0002664173Y0002050000D02*
X0002689173Y0002075000D01*
X0002664173Y0001825000D02*
X0002664173Y0002050000D01*
X0003064173Y0001900000D02*
X0003064173Y0001925000D01*
X0003064173Y0001925000D02*
X0002864173Y0002125000D01*
X0002739173Y0002075000D02*
X0002814173Y0002075000D01*
X0002864173Y0002125000D02*
X0002864173Y0002200000D01*
X0002814173Y0002075000D02*
X0002864173Y0002125000D01*
X0002264173Y0001350000D02*
X0002189173Y0001425000D01*
X0002189173Y0001425000D02*
X0002189173Y0001550000D01*
X0002189173Y0001550000D02*
X0002189173Y0001600000D01*
X0002189173Y0001600000D02*
X0002139173Y0001650000D01*
X0001714173Y0000350000D02*
X0001789173Y0000350000D01*
X0001839173Y0000400000D02*
X0001964173Y0000400000D01*
X0001789173Y0000350000D02*
X0001839173Y0000400000D01*
X0001714173Y0000448425D02*
X0001787598Y0000448425D01*
X0001839173Y0000500000D02*
X0001964173Y0000500000D01*
X0001787598Y0000448425D02*
X0001839173Y0000500000D01*
X0001714173Y0000546850D02*
X0001786023Y0000546850D01*
X0001839173Y0000600000D02*
X0001964173Y0000600000D01*
X0001786023Y0000546850D02*
X0001839173Y0000600000D01*
X0001714173Y0000645275D02*
X0001784448Y0000645275D01*
X0001839173Y0000700000D02*
X0001964173Y0000700000D01*
X0001784448Y0000645275D02*
X0001839173Y0000700000D01*
X0001714173Y0000950000D02*
X0001714173Y0000850000D01*
X0001764173Y0000800000D02*
X0001964173Y0000800000D01*
X0001714173Y0000850000D02*
X0001764173Y0000800000D01*
X0001714173Y0001048425D02*
X0001765748Y0001048425D01*
X0001765748Y0001048425D02*
X0001914173Y0000900000D01*
X0001914173Y0000900000D02*
X0001964173Y0000900000D01*
X0001714173Y0001146850D02*
X0001792322Y0001146850D01*
X0001792322Y0001146850D02*
X0001939173Y0001000000D01*
X0001939173Y0001000000D02*
X0001964173Y0001000000D01*
X0001714173Y0001245275D02*
X0001793897Y0001245275D01*
X0001793897Y0001245275D02*
X0001939173Y0001100000D01*
X0001939173Y0001100000D02*
X0001964173Y0001100000D01*
X0001864173Y0001512204D02*
X0001801968Y0001512204D01*
X0002539173Y0002200000D02*
X0002764173Y0002200000D01*
X0002389173Y0002050000D02*
X0002539173Y0002200000D01*
X0001814173Y0002050000D02*
X0002389173Y0002050000D01*
X0001739173Y0001975000D02*
X0001814173Y0002050000D01*
X0001739173Y0001575000D02*
X0001739173Y0001975000D01*
X0001801968Y0001512204D02*
X0001739173Y0001575000D01*
X0002714173Y0001000000D02*
X0003039173Y0001000000D01*
X0002739173Y0000725000D02*
X0002789173Y0000725000D01*
X0002864173Y0000650000D02*
X0002864173Y0000575000D01*
X0002789173Y0000725000D02*
X0002864173Y0000650000D01*
X0002864173Y0001725000D02*
X0002414173Y0001725000D01*
X0002339173Y0001800000D02*
X0002264173Y0001800000D01*
X0002414173Y0001725000D02*
X0002339173Y0001800000D01*
M02*