%MOIN*%
%OFA0B0*%
%FSLAX46Y46*%
%IPPOS*%
%LPD*%
%ADD10C,0.0039370078740157488*%
%ADD11C,0.070866141732283464*%
%ADD12R,0.066X0.066*%
%ADD13C,0.066*%
%ADD14C,0.055118110236220472*%
%ADD15O,0.055118110236220472X0.055118110236220472*%
%ADD16C,0.055118110236220472*%
%ADD17R,0.070866141732283464X0.070866141732283464*%
%ADD18R,0.066929133858267723X0.066929133858267723*%
%ADD19O,0.066929133858267723X0.066929133858267723*%
%ADD20C,0.059842519685039376*%
%ADD21R,0.059842519685039376X0.059842519685039376*%
%ADD22C,0.016*%
%ADD33C,0.0039370078740157488*%
%ADD34R,0.066929133858267723X0.066929133858267723*%
%ADD35O,0.066929133858267723X0.066929133858267723*%
%ADD36C,0.07874015748031496*%
%ADD37C,0.016*%
%ADD38C,0.0039370078740157488*%
%ADD39R,0.066929133858267723X0.066929133858267723*%
%ADD40O,0.066929133858267723X0.066929133858267723*%
%ADD41R,0.0984251968503937X0.059055118110236227*%
%ADD42O,0.0984251968503937X0.059055118110236227*%
G01*
D10*
G36*
X0001538893Y0003317664D02*
X0001472301Y0003293427D01*
X0001448063Y0003360019D01*
X0001514656Y0003384257D01*
X0001538893Y0003317664D01*
X0001538893Y0003317664D01*
G37*
D11*
X0001459276Y0003432811D03*
D12*
X0000236220Y0003160236D03*
D13*
X0000236220Y0003060236D03*
D14*
X0000137795Y0002972440D03*
D15*
X0000137795Y0003172440D03*
D14*
X0000964566Y0002372047D03*
D15*
X0000764566Y0002372047D03*
D14*
X0001328740Y0003494094D03*
D16*
X0001187318Y0003635515D02*
X0001187318Y0003635515D01*
D14*
X0001181102Y0003779527D03*
D16*
X0001322523Y0003638106D02*
X0001322523Y0003638106D01*
D14*
X0001496062Y0002746062D03*
D15*
X0001496062Y0002946062D03*
D14*
X0000236220Y0002746062D03*
D15*
X0000236220Y0002946062D03*
D14*
X0000393700Y0003631889D03*
D16*
X0000535122Y0003773311D02*
X0000535122Y0003773311D01*
D14*
X0001594488Y0002972440D03*
D15*
X0001594488Y0003172440D03*
D10*
G36*
X0000344849Y0002626197D02*
X0000390401Y0002680483D01*
X0000444687Y0002634931D01*
X0000399136Y0002580645D01*
X0000344849Y0002626197D01*
X0000344849Y0002626197D01*
G37*
D11*
X0000471373Y0002566285D03*
D10*
G36*
X0000259981Y0003293427D02*
X0000193389Y0003317664D01*
X0000217627Y0003384257D01*
X0000284219Y0003360019D01*
X0000259981Y0003293427D01*
X0000259981Y0003293427D01*
G37*
D11*
X0000273006Y0003432811D03*
D17*
X0000816141Y0003779527D03*
D11*
X0000916141Y0003779527D03*
D17*
X0001496062Y0003159448D03*
D11*
X0001496062Y0003059448D03*
D10*
G36*
X0001256542Y0002516366D02*
X0001210991Y0002570653D01*
X0001265277Y0002616205D01*
X0001310829Y0002561918D01*
X0001256542Y0002516366D01*
X0001256542Y0002516366D01*
G37*
D11*
X0001337514Y0002630564D03*
D18*
X0000866141Y0002480314D03*
D19*
X0000966141Y0002480314D03*
X0001066141Y0002480314D03*
X0001166141Y0002480314D03*
D20*
X0000661023Y0002480314D03*
X0000761023Y0002480314D03*
D21*
X0000561023Y0002480314D03*
D20*
X0000661023Y0002480314D03*
X0000761023Y0002480314D03*
D21*
X0000561023Y0002480314D03*
D22*
X0000137795Y0002962598D02*
X0000174015Y0002946062D01*
X0000174015Y0002946062D02*
X0000236220Y0002946062D01*
X0001328740Y0003494094D02*
X0001407836Y0003494094D01*
X0001407836Y0003494094D02*
X0001459276Y0003432811D01*
X0000966141Y0002373622D02*
X0000964566Y0002372047D01*
X0001336446Y0002655344D02*
X0001427165Y0002746062D01*
X0001427165Y0002746062D02*
X0001496062Y0002746062D01*
X0000236220Y0002746062D02*
X0000236220Y0002683070D01*
X0000430677Y0002535433D02*
X0000471373Y0002566285D01*
X0000383858Y0002535433D02*
X0000430677Y0002535433D01*
X0000236220Y0002683070D02*
X0000383858Y0002535433D01*
X0000393700Y0003631889D02*
X0000295275Y0003533464D01*
X0000295275Y0003533464D02*
X0000295275Y0003455436D01*
X0000295275Y0003455436D02*
X0000290107Y0003440425D01*
X0000764566Y0002372047D02*
X0000846456Y0002372047D01*
X0001007086Y0002421259D02*
X0001066141Y0002480314D01*
X0000895669Y0002421259D02*
X0001007086Y0002421259D01*
X0000846456Y0002372047D02*
X0000895669Y0002421259D01*
X0000661023Y0002480314D02*
X0000661023Y0002439370D01*
X0000728346Y0002372047D02*
X0000764566Y0002372047D01*
X0000661023Y0002439370D02*
X0000728346Y0002372047D01*
X0001496062Y0003059448D02*
X0001546850Y0003059448D01*
X0001546850Y0003059448D02*
X0001594488Y0002972440D01*
X0000137795Y0003172440D02*
X0000224015Y0003172440D01*
X0000224015Y0003172440D02*
X0000236220Y0003160236D01*
X0000236220Y0003160236D02*
X0000236220Y0003159448D01*
X0000236220Y0003159448D02*
X0000295275Y0003100393D01*
X0001107086Y0002539370D02*
X0001166141Y0002480314D01*
X0000600393Y0002539370D02*
X0001107086Y0002539370D01*
X0000295275Y0002844488D02*
X0000600393Y0002539370D01*
X0000295275Y0003100393D02*
X0000295275Y0002844488D01*
X0000255905Y0003346456D02*
X0000275590Y0003346456D01*
X0000275590Y0003346456D02*
X0000354330Y0003425196D01*
X0000354330Y0003425196D02*
X0000354330Y0003494094D01*
X0000354330Y0003494094D02*
X0000639763Y0003779527D01*
X0001437007Y0003297244D02*
X0001468763Y0003338842D01*
X0001515748Y0003361111D02*
X0001525590Y0003494094D01*
X0001358267Y0003533464D02*
X0001486220Y0003533464D01*
X0001486220Y0003533464D02*
X0001525590Y0003494094D01*
X0001171259Y0003720472D02*
X0001358267Y0003533464D01*
X0001515748Y0003361111D02*
X0001493478Y0003338842D01*
X0001468763Y0003338842D02*
X0001493478Y0003338842D01*
X0001515748Y0003361111D02*
X0001493478Y0003338842D01*
X0001491251Y0003336614D02*
X0001493478Y0003338842D01*
X0000856299Y0003720472D02*
X0001171259Y0003720472D01*
X0001437007Y0003277559D02*
X0001437007Y0003297244D01*
X0001260910Y0002566285D02*
X0001270752Y0002668390D01*
X0001299212Y0002696850D02*
X0001437007Y0002834645D01*
X0001437007Y0002834645D02*
X0001437007Y0003277559D01*
X0001270752Y0002668390D02*
X0001299212Y0002696850D01*
X0000856299Y0003720472D02*
X0000816929Y0003759842D01*
X0000816929Y0003779527D02*
X0000816929Y0003759842D01*
X0000639763Y0003779527D02*
X0000816929Y0003779527D01*
G04 next file*
G04 #@! TF.FileFunction,Copper,L2,Bot,Signal*
G04 Gerber Fmt 4.6, Leading zero omitted, Abs format (unit mm)*
G04 Created by KiCad (PCBNEW 4.0.6) date 04/23/19 17:50:16*
G01*
G04 APERTURE LIST*
G04 APERTURE END LIST*
D33*
D34*
X-0005137795Y0007322834D02*
X0000487204Y0003172834D03*
D35*
X0000487204Y0003072834D03*
D36*
X0000749370Y0002997834D03*
X0000572204Y0002997834D03*
X0000749370Y0003253740D03*
X0000572204Y0003253740D03*
D37*
X0000572204Y0003253740D02*
X0000572204Y0002997834D01*
X0000749370Y0003253740D02*
X0000749370Y0002997834D01*
G04 next file*
G04 #@! TF.FileFunction,Copper,L2,Bot,Signal*
G04 Gerber Fmt 4.6, Leading zero omitted, Abs format (unit mm)*
G04 Created by KiCad (PCBNEW 4.0.6) date 04/23/19 17:44:28*
G01*
G04 APERTURE LIST*
G04 APERTURE END LIST*
D38*
D39*
X-0004681102Y0007322834D02*
X0001268897Y0003172834D03*
D40*
X0001268897Y0003072834D03*
D39*
X0000968897Y0003172834D03*
D40*
X0000968897Y0003072834D03*
D41*
X0001118897Y0003222834D03*
D42*
X0001118897Y0003122834D03*
X0001118897Y0003022834D03*
M02*