M48
;DRILL file {KiCad 4.0.6} date 06/27/19 09:12:55
;FORMAT={-:-/ absolute / inch / decimal}
FMAT,2
INCH,TZ
T1C0.020
T2C0.028
T3C0.031
%
G90
G05
M72
T1
X9.1208Y-4.275
X9.17Y-4.275
X9.22Y-4.475
X9.22Y-4.5242
X9.22Y-4.5734
X9.22Y-4.6226
X9.22Y-4.6719
X9.22Y-4.7211
T2
X9.5716Y-4.475
X9.5716Y-4.575
X9.5716Y-4.675
X9.5716Y-4.775
X9.7716Y-4.475
X9.7716Y-4.575
X9.7716Y-4.675
X9.7716Y-4.775
X9.8716Y-4.475
X9.8716Y-4.575
X9.8716Y-4.675
X9.8716Y-4.775
X10.0716Y-4.475
X10.0716Y-4.575
X10.0716Y-4.675
X10.0716Y-4.775
T3
X9.02Y-3.7644
X9.02Y-4.0644
X9.12Y-3.7644
X9.12Y-4.0644
X9.22Y-3.7644
X9.22Y-4.0644
X9.32Y-3.7644
X9.32Y-4.0644
X9.3716Y-4.475
X9.3716Y-4.575
X9.3716Y-4.675
X9.3716Y-4.775
X9.42Y-3.7644
X9.42Y-4.0644
X9.47Y-4.475
X9.47Y-4.575
X9.47Y-4.675
X9.47Y-4.775
X9.52Y-3.7644
X9.52Y-4.0644
X9.57Y-4.375
X9.62Y-3.7644
X9.62Y-4.0644
X9.6487Y-4.375
X9.77Y-4.375
X9.8487Y-4.375
X9.97Y-4.375
X10.0487Y-4.375
T0
M30
