<?xml version="1.0" encoding="UTF-8" standalone="no"?>
<svg
   xmlns:dc="http://purl.org/dc/elements/1.1/"
   xmlns:cc="http://creativecommons.org/ns#"
   xmlns:rdf="http://www.w3.org/1999/02/22-rdf-syntax-ns#"
   xmlns:svg="http://www.w3.org/2000/svg"
   xmlns="http://www.w3.org/2000/svg"
   xmlns:sodipodi="http://sodipodi.sourceforge.net/DTD/sodipodi-0.dtd"
   xmlns:inkscape="http://www.inkscape.org/namespaces/inkscape"
   version="1.1"
   width="20.8636cm"
   height="14.9454cm"
   viewBox="0 0 82140 58840 "
   id="svg4723"
   sodipodi:docname="tutorial2-brd_edge_cuts.svg"
   inkscape:version="0.92.3 (2405546, 2018-03-11)">
  <metadata
     id="metadata4729">
    <rdf:RDF>
      <cc:Work
         rdf:about="">
        <dc:format>image/svg+xml</dc:format>
        <dc:type
           rdf:resource="http://purl.org/dc/dcmitype/StillImage" />
        <dc:title>SVG Picture created as tutorial2-brd.svg date 2018/05/17 10:45:05 </dc:title>
      </cc:Work>
    </rdf:RDF>
  </metadata>
  <defs
     id="defs4727" />
  <sodipodi:namedview
     pagecolor="#ffffff"
     bordercolor="#666666"
     borderopacity="1"
     objecttolerance="10"
     gridtolerance="10"
     guidetolerance="10"
     inkscape:pageopacity="0"
     inkscape:pageshadow="2"
     inkscape:window-width="1394"
     inkscape:window-height="818"
     id="namedview4725"
     showgrid="true"
     inkscape:snap-others="false"
     inkscape:snap-grids="false"
     inkscape:snap-to-guides="true"
     inkscape:zoom="3.84"
     inkscape:cx="59.245879"
     inkscape:cy="506.87538"
     inkscape:window-x="276"
     inkscape:window-y="81"
     inkscape:window-maximized="0"
     inkscape:current-layer="g4715">
    <inkscape:grid
       type="xygrid"
       id="grid5280"
       units="mm"
       spacingx="393.69987"
       spacingy="393.69987" />
  </sodipodi:namedview>
  <title
     id="title4531">SVG Picture created as tutorial2-brd.svg date 2018/05/17 10:45:05 </title>
  <desc
     id="desc4533">Picture generated by PCBNEW </desc>
  <g
     style="fill:#000000; fill-opacity:1;stroke:#000000; stroke-opacity:1; stroke-linecap:round; stroke-linejoin:round; "
     transform="translate(0 0) scale(1 1)"
     id="g4535" />
  <g
     style="fill:#000000; fill-opacity:0.0;  stroke:#000000; stroke-width:-0.000393701; stroke-opacity:1;  stroke-linecap:round; stroke-linejoin:round;"
     id="g4537" />
  <g
     style="fill:#008484; fill-opacity:0.0;  stroke:#008484; stroke-width:-0.000393701; stroke-opacity:1;  stroke-linecap:round; stroke-linejoin:round;"
     id="g4539" />
  <g
     style="fill:#C2C200; fill-opacity:0.0;  stroke:#C2C200; stroke-width:47.2441; stroke-opacity:1;  stroke-linecap:round; stroke-linejoin:round;"
     id="g4619" />
  <g
     style="fill:#000000; fill-opacity:0.0;  stroke:#000000; stroke-width:59.0551; stroke-opacity:1;  stroke-linecap:round; stroke-linejoin:round;"
     id="g4661" />
  <g
     style="fill:#C2C200; fill-opacity:0.0;  stroke:#C2C200; stroke-width:59.0551; stroke-opacity:1;  stroke-linecap:round; stroke-linejoin:round;"
     id="g4677">
    <path
       d="m 7397,4280 v 1500 c -37.1169,79.4385 -80.8966,152.2143 -183.6663,165.9999 L 6801,6056 l -527,170 -498,202 c -114.8415,66.3035 -251.3183,84.271 -379.4074,49.9501 -128.089,-34.321 -237.298,-118.1192 -303.6026,-232.9601"
       id="path4663"
       inkscape:connector-curvature="0"
       sodipodi:nodetypes="ccccccsc" />
    <path
       d="m 10897,4280 v 1500 c 10.516,112.9682 64.067,139.8652 118,165.9999 l 479,110.0001 527,170 497,202 c 114.85,66.332 238.348,119.9056 366.459,85.5833 128.111,-34.3223 237.336,-118.138 303.641,-233.0033"
       id="path4665"
       inkscape:connector-curvature="0"
       sodipodi:nodetypes="ccccccsc" />
    <path
       d="M10897 2280 L10897 2780 "
       id="path4667" />
    <path
       d="M7647 2030 L10647 2030 "
       id="path4669" />
    <path
       d="M7397 2780 L7397 2280 "
       id="path4671" />
    <path
       d="M10897.9 2280.58 A250 250 0.0 0 0 10647.9 2030.58 "
       id="path4673" />
    <path
       d="M7647.87 2030.58 A250 250 0.0 0 0 7397.87 2280.58 "
       id="path4675" />
  </g>
  <g
     style="fill:#C2C200; fill-opacity:0.0;  stroke:#C2C200; stroke-width:59.0551; stroke-opacity:1;  stroke-linecap:round; stroke-linejoin:round;"
     id="g4715">
    <path
       d="M10897.9 2730.58 A500 500 0.0 0 0 11397.9 3230.58 "
       id="path4683" />
    <path
       d="m 11397.9,3230.58 c 132.608,0 326.804,-4.8078 420.572,-98.576 146.918,-92.2782 230.176,-184.5564 301.349,-276.8346 31.814,-55.1038 67.471,-107.6221 106.765,-157.4441 121.909,-154.5762 278.817,-283.1989 464.543,-382.5611 245.589,-131.388 541.564,-211.6134 873.636,-233.0296 664.142,-42.8324 1418.262,153.0798 2096.462,544.6388 678.2,391.559 1224.925,946.6897 1519.902,1543.2702 294.977,596.5805 314.043,1185.7416 53.004,1637.8748 -261.039,452.1333 -780.801,730.2024 -1444.943,773.0348 -421.343,27.1734 -878.9,-41.7436 -1330.311,-195.747 -114.84,-66.3003 -319.494,-71.9023 -447.581,-37.5815 -128.086,34.3209 -237.293,118.1171 -303.598,232.9553"
       id="path4685"
       inkscape:connector-curvature="0"
       sodipodi:nodetypes="cccssssssscsc" />
    <path
       d="m 12127.679,4407.173 c 0,-132.6083 -282.457,-336.3782 -376.226,-430.1464 -93.768,-93.7682 -220.945,-146.4466 -353.553,-146.4466"
       id="path4687"
       inkscape:connector-curvature="0"
       sodipodi:nodetypes="csc" />
    <path
       d="M11397.9 3830.58 A500 500 0.0 0 0 10897.9 4330.58 "
       id="path4689" />
    <path
       d="M6897.87 3230.58 A500 500 0.0 0 0 7397.87 2730.58 "
       id="path4693" />
    <path
       d="M7397.87 4330.58 A500 500 0.0 0 0 6897.87 3830.58 "
       id="path4695" />
    <path
       d="m 6897.87,3830.58 c -132.6082,0 -259.7852,52.6784 -353.5534,146.4466 -93.7682,93.7682 -303.6951,332.402 -370.7139,455.4361 -191.3344,386.9669 -488.5884,756.4945 -878.2705,1102.386 -134.1731,93.4359 -217.9713,202.6449 -252.2923,330.7339 -34.3209,128.0891 -16.3534,264.5659 49.9501,379.4074"
       id="path4697"
       inkscape:connector-curvature="0"
       sodipodi:nodetypes="csccsc" />
    <path
       d="m 4588.06,6539.9957 c -66.3046,-114.8409 -175.5136,-198.6391 -303.6026,-232.9601 -128.0891,-34.3209 -289.43,-46.2104 -404.2715,20.0931 -93.2014,31.6009 -186.6548,59.5732 -279.9878,83.8201 -356.3227,92.5689 -710.8883,130.8388 -1042.9594,109.4226 -664.1423,-42.8327 -1183.9039,-320.9015 -1444.9431,-773.0348 -261.03929,-452.1332 -241.97321,-1041.2944 53.0038,-1637.8748 294.9771,-596.5804 841.7021,-1151.7112 1519.9019,-1543.2701 678.1999,-391.5588 1432.3198,-587.4712 2096.4621,-544.6386 664.1423,42.8326 1183.9039,320.9015 1444.9431,773.0347 57.4447,132.6082 166.4972,224.4998 260.2654,318.2679 93.7682,93.7682 278.3899,117.7243 410.9981,117.7243"
       id="path4705"
       inkscape:connector-curvature="0"
       sodipodi:nodetypes="cscsssssscsc" />
    <path
       d="m 13188.1,6280.58 c 66.296,-114.8524 84.25,-251.3374 49.912,-379.4278 -34.339,-128.0903 -122.758,-293.8348 -237.614,-360.1243 -355.777,-312.4853 -641.67,-672.0027 -827.573,-1047.9837"
       id="path4709"
       inkscape:connector-curvature="0"
       sodipodi:nodetypes="cscc" />
    <path
       d="m 13707.7,6580.58 c -66.304,114.8403 -84.273,251.3162 -49.954,379.4051 34.319,128.0889 150.415,280.7087 265.254,347.0149 l 435,429 351,467 261,499 161,528 56,550 -56,550 -161,528 -261,499 -351,467 -435,429 -511,388 -429,260 -465,231 -497,202 -527,170 -554,135 -578,99 -598,61 -617,21 -616,-21 -598,-61 -578,-99 -554,-135 -527,-170 -498,-202 -464,-231 -429,-260 -511,-388 -435,-429 -352,-467 -260,-499 -161,-528 -56,-550 56,-550 161,-528 260,-499 352,-467 463.4151,-476.9422 c 143.2561,-114.2468 203.274,-211.5657 237.595,-339.6547 34.3209,-128.0891 16.3534,-264.5659 -49.9501,-379.4074"
       id="path4713"
       inkscape:connector-curvature="0"
       sodipodi:nodetypes="cscccccccccccccccccccccccccccccccccccccccsc" />
  </g>
  <g
     style="fill:#C2C200;fill-opacity:1;stroke:#C2C200;stroke-width:10.41664235;stroke-opacity:1;stroke-linecap:round;stroke-linejoin:round"
     id="g4721" />
</svg>
