G04 #@! TF.FileFunction,Copper,L2,Bot,Signal*
%FSLAX46Y46*%
G04 Gerber Fmt 4.6, Leading zero omitted, Abs format (unit mm)*
G04 Created by KiCad (PCBNEW 4.0.6) date 05/20/19 12:49:57*
%MOMM*%
%LPD*%
G01*
G04 APERTURE LIST*
%ADD10C,0.100000*%
%ADD11C,17.780000*%
%ADD12R,5.080000X2.540000*%
%ADD13R,3.000000X1.500000*%
%ADD14R,1.600000X1.600000*%
%ADD15C,1.600000*%
%ADD16O,1.600000X1.600000*%
%ADD17R,1.700000X1.700000*%
%ADD18O,1.700000X1.700000*%
%ADD19R,2.500000X1.250000*%
%ADD20C,0.600000*%
%ADD21C,0.609600*%
%ADD22C,0.406400*%
%ADD23C,0.304800*%
G04 APERTURE END LIST*
D10*
D11*
X137180000Y-100600000D03*
D12*
X137180000Y-89170000D03*
X137180000Y-112030000D03*
D13*
X143660000Y-112776000D03*
X130660000Y-112776000D03*
D14*
X133180000Y-84100000D03*
D15*
X135720000Y-84100000D03*
D16*
X133180000Y-81560000D03*
X135720000Y-81560000D03*
X133180000Y-79020000D03*
X135720000Y-79020000D03*
D17*
X133180000Y-75600000D03*
D18*
X135720000Y-75600000D03*
X138260000Y-75600000D03*
X140800000Y-75600000D03*
D19*
X140430000Y-79100000D03*
X140430000Y-81600000D03*
X140430000Y-84100000D03*
D20*
X141097000Y-96901000D03*
X130302000Y-102378000D03*
X129413000Y-90043000D03*
X142494000Y-88789000D03*
X143129000Y-81915000D03*
X143764000Y-112903000D03*
X133096000Y-81661000D03*
X137287000Y-85598000D03*
X135763000Y-81661000D03*
X130429000Y-90424000D03*
X130429000Y-91694000D03*
X132207000Y-87376000D03*
X133096000Y-88265000D03*
X131318000Y-92329000D03*
D21*
X140491000Y-81661000D02*
X140430000Y-81600000D01*
X137180000Y-89170000D02*
X137180000Y-88118000D01*
X137180000Y-88118000D02*
X138303000Y-86995000D01*
X138303000Y-86995000D02*
X138303000Y-82804000D01*
X138303000Y-82804000D02*
X139507000Y-81600000D01*
X139507000Y-81600000D02*
X140430000Y-81600000D01*
X130660000Y-112776000D02*
X136434000Y-112776000D01*
X136434000Y-112776000D02*
X137180000Y-112030000D01*
X137799000Y-112649000D02*
X137180000Y-112030000D01*
X141097000Y-96901000D02*
X137398000Y-100600000D01*
X137398000Y-100600000D02*
X137180000Y-100600000D01*
X130302000Y-102378000D02*
X132080000Y-100600000D01*
X132080000Y-100600000D02*
X137180000Y-100600000D01*
X131445000Y-75692000D02*
X133088000Y-75692000D01*
X129413000Y-77724000D02*
X131445000Y-75692000D01*
X129413000Y-82296000D02*
X129413000Y-77724000D01*
X129413000Y-85598000D02*
X129413000Y-82296000D01*
X129413000Y-90043000D02*
X129413000Y-85598000D01*
X133088000Y-75692000D02*
X133180000Y-75600000D01*
X133180000Y-75600000D02*
X133180000Y-76480000D01*
X133180000Y-76480000D02*
X135720000Y-79020000D01*
D22*
X143129000Y-82010000D02*
X143129000Y-81915000D01*
X144669000Y-83550000D02*
X143129000Y-82010000D01*
X144669000Y-86614000D02*
X144669000Y-83550000D01*
X142494000Y-88789000D02*
X144669000Y-86614000D01*
D21*
X140430000Y-79100000D02*
X141965000Y-79100000D01*
X141965000Y-79100000D02*
X143129000Y-80264000D01*
X143129000Y-80264000D02*
X143129000Y-81915000D01*
X143764000Y-112903000D02*
X143660000Y-112799000D01*
X143660000Y-112799000D02*
X143660000Y-112776000D01*
X135720000Y-84100000D02*
X135720000Y-83990000D01*
X135720000Y-83990000D02*
X137668000Y-82042000D01*
X137668000Y-82042000D02*
X137668000Y-77548000D01*
X140430000Y-79100000D02*
X139220000Y-79100000D01*
X139220000Y-79100000D02*
X137668000Y-77548000D01*
X137668000Y-77548000D02*
X135720000Y-75600000D01*
X135720000Y-84100000D02*
X136245000Y-84100000D01*
D23*
X133096000Y-81661000D02*
X133180000Y-81577000D01*
X133180000Y-81577000D02*
X133180000Y-81560000D01*
X134493000Y-82873000D02*
X133180000Y-81560000D01*
X134493000Y-84836000D02*
X134493000Y-82873000D01*
X135255000Y-85598000D02*
X134493000Y-84836000D01*
X137287000Y-85598000D02*
X135255000Y-85598000D01*
X133197000Y-81560000D02*
X133180000Y-81560000D01*
X135763000Y-81661000D02*
X135720000Y-81618000D01*
X135720000Y-81618000D02*
X135720000Y-81560000D01*
X133180000Y-79020000D02*
X133180000Y-79037000D01*
X133180000Y-79037000D02*
X130429000Y-80264000D01*
X130429000Y-80264000D02*
X130429000Y-90424000D01*
X132816000Y-79020000D02*
X133180000Y-79020000D01*
X133122000Y-79020000D02*
X133180000Y-79020000D01*
X130429000Y-91694000D02*
X132207000Y-89916000D01*
X132207000Y-89916000D02*
X132207000Y-87376000D01*
X133096000Y-90551000D02*
X133096000Y-88265000D01*
X131318000Y-92329000D02*
X133096000Y-90551000D01*
M02*
