%MOIN*%
%OFA0B0*%
%FSLAX46Y46*%
%IPPOS*%
%LPD*%
%ADD10C,0.12598425196850396*%
%ADD11R,0.059055118110236227X0.059055118110236227*%
%ADD12C,0.059055118110236227*%
%ADD13R,0.066929133858267723X0.066929133858267723*%
%ADD14O,0.066929133858267723X0.066929133858267723*%
%ADD15O,0.051181102362204731X0.031496062992125991*%
%ADD16C,0.12795275590551181*%
%ADD17C,0.059842519685039376*%
%ADD18R,0.059842519685039376X0.059842519685039376*%
%ADD29C,0.12598425196850396*%
%ADD30R,0.059055118110236227X0.059055118110236227*%
%ADD31C,0.059055118110236227*%
%ADD32R,0.066929133858267723X0.066929133858267723*%
%ADD33O,0.066929133858267723X0.066929133858267723*%
%ADD34O,0.031496062992125991X0.051181102362204731*%
%ADD35C,0.12795275590551181*%
%ADD36C,0.059842519685039376*%
%ADD37R,0.059842519685039376X0.059842519685039376*%
%ADD38C,0.12598425196850396*%
%ADD39R,0.059055118110236227X0.059055118110236227*%
%ADD40C,0.059055118110236227*%
%ADD41R,0.066929133858267723X0.066929133858267723*%
%ADD42O,0.066929133858267723X0.066929133858267723*%
%ADD43O,0.031496062992125991X0.051181102362204731*%
%ADD44C,0.12795275590551181*%
%ADD45C,0.059842519685039376*%
%ADD46R,0.059842519685039376X0.059842519685039376*%
%ADD47C,0.12598425196850396*%
%ADD48R,0.059055118110236227X0.059055118110236227*%
%ADD49C,0.059055118110236227*%
%ADD50R,0.066929133858267723X0.066929133858267723*%
%ADD51O,0.066929133858267723X0.066929133858267723*%
%ADD52O,0.051181102362204731X0.031496062992125991*%
%ADD53C,0.12795275590551181*%
%ADD54C,0.059842519685039376*%
%ADD55R,0.059842519685039376X0.059842519685039376*%
%ADD56C,0.12598425196850396*%
%ADD57R,0.059055118110236227X0.059055118110236227*%
%ADD58C,0.059055118110236227*%
%ADD59R,0.066929133858267723X0.066929133858267723*%
%ADD60O,0.066929133858267723X0.066929133858267723*%
%ADD61O,0.051181102362204731X0.031496062992125991*%
%ADD62C,0.12795275590551181*%
%ADD63C,0.059842519685039376*%
%ADD64R,0.059842519685039376X0.059842519685039376*%
%ADD65C,0.12598425196850396*%
%ADD66R,0.059055118110236227X0.059055118110236227*%
%ADD67C,0.059055118110236227*%
%ADD68R,0.066929133858267723X0.066929133858267723*%
%ADD69O,0.066929133858267723X0.066929133858267723*%
%ADD70O,0.051181102362204731X0.031496062992125991*%
%ADD71C,0.12795275590551181*%
%ADD72C,0.059842519685039376*%
%ADD73R,0.059842519685039376X0.059842519685039376*%
G01*
D10*
X-0004400000Y0006200000D02*
X0000625000Y0000150000D03*
X0000174999Y0000150000D03*
D11*
X0000224999Y0000400000D03*
D12*
X0000274999Y0000500000D03*
X0000324999Y0000400000D03*
X0000374999Y0000500000D03*
X0000425000Y0000400000D03*
X0000474999Y0000500000D03*
X0000524999Y0000400000D03*
X0000574999Y0000500000D03*
D13*
X0000449999Y0000900000D03*
D14*
X0000350000Y0000900000D03*
X0000449999Y0000800000D03*
X0000350000Y0000800000D03*
G36*
G01*
X0000182283Y0000965748D02*
X0000217716Y0000965748D01*
G75*
G02*
X0000225590Y0000957874J-0000007874D01*
G01*
X0000225590Y0000942125D01*
G75*
G02*
X0000217716Y0000934251I-0000007874D01*
G01*
X0000182283Y0000934251D01*
G75*
G02*
X0000174409Y0000942125J0000007874D01*
G01*
X0000174409Y0000957874D01*
G75*
G02*
X0000182283Y0000965748I0000007874D01*
G01*
G37*
D15*
X0000199999Y0000900787D03*
X0000199999Y0000851574D03*
X0000199999Y0000802362D03*
X0000199999Y0000753149D03*
X0000199999Y0000703937D03*
X0000599999Y0000946062D03*
X0000599999Y0000896850D03*
X0000599999Y0000847637D03*
X0000599999Y0000798425D03*
X0000599999Y0000749212D03*
G36*
G01*
X0000617716Y0000684251D02*
X0000582283Y0000684251D01*
G75*
G02*
X0000574409Y0000692125J0000007874D01*
G01*
X0000574409Y0000707874D01*
G75*
G02*
X0000582283Y0000715748I0000007874D01*
G01*
X0000617716Y0000715748D01*
G75*
G02*
X0000625590Y0000707874J-0000007874D01*
G01*
X0000625590Y0000692125D01*
G75*
G02*
X0000617716Y0000684251I-0000007874D01*
G01*
G37*
D16*
X0000249999Y0001673228D03*
D17*
X0000599999Y0001750000D03*
X0000499999Y0001800000D03*
X0000599999Y0001850000D03*
D16*
X0000249999Y0001973228D03*
D18*
X0000499999Y0001900000D03*
X0000249999Y0001250000D03*
D16*
X0000499999Y0001176771D03*
D17*
X0000149999Y0001300000D03*
X0000249999Y0001350000D03*
X0000149999Y0001400000D03*
D16*
X0000499999Y0001476771D03*
G04 next file*
G04 #@! TF.GenerationSoftware,KiCad,Pcbnew,(5.1.10)-1*
G04 #@! TF.CreationDate,2021-10-24T19:52:58-07:00*
G04 #@! TF.ProjectId,project,70726f6a-6563-4742-9e6b-696361645f70,rev?*
G04 #@! TF.SameCoordinates,Original*
G04 #@! TF.FileFunction,Soldermask,Top*
G04 #@! TF.FilePolarity,Negative*
G04 Gerber Fmt 4.6, Leading zero omitted, Abs format (unit mm)*
G04 Created by KiCad (PCBNEW (5.1.10)-1) date 2021-10-24 19:52:58*
G01*
G04 APERTURE LIST*
G04 APERTURE END LIST*
D29*
X-0004074015Y-0002195275D02*
X0001975984Y0002829724D03*
X0001975984Y0002379724D03*
D30*
X0001725984Y0002429724D03*
D31*
X0001625984Y0002479724D03*
X0001725984Y0002529724D03*
X0001625984Y0002579724D03*
X0001725984Y0002629724D03*
X0001625984Y0002679724D03*
X0001725984Y0002729724D03*
X0001625984Y0002779724D03*
D32*
X0001225984Y0002654724D03*
D33*
X0001225984Y0002554724D03*
X0001325984Y0002654724D03*
X0001325984Y0002554724D03*
G36*
G01*
X0001160236Y0002387007D02*
X0001160236Y0002422440D01*
G75*
G02*
X0001168110Y0002430314I0000007874D01*
G01*
X0001183858Y0002430314D01*
G75*
G02*
X0001191732Y0002422440J-0000007874D01*
G01*
X0001191732Y0002387007D01*
G75*
G02*
X0001183858Y0002379133I-0000007874D01*
G01*
X0001168110Y0002379133D01*
G75*
G02*
X0001160236Y0002387007J0000007874D01*
G01*
G37*
D34*
X0001225197Y0002404724D03*
X0001274409Y0002404724D03*
X0001323622Y0002404724D03*
X0001372834Y0002404724D03*
X0001422047Y0002404724D03*
X0001179921Y0002804724D03*
X0001229134Y0002804724D03*
X0001278346Y0002804724D03*
X0001327559Y0002804724D03*
X0001376771Y0002804724D03*
G36*
G01*
X0001441732Y0002822440D02*
X0001441732Y0002787007D01*
G75*
G02*
X0001433858Y0002779133I-0000007874D01*
G01*
X0001418110Y0002779133D01*
G75*
G02*
X0001410236Y0002787007J0000007874D01*
G01*
X0001410236Y0002822440D01*
G75*
G02*
X0001418110Y0002830314I0000007874D01*
G01*
X0001433858Y0002830314D01*
G75*
G02*
X0001441732Y0002822440J-0000007874D01*
G01*
G37*
D35*
X0000452756Y0002454724D03*
D36*
X0000375984Y0002804724D03*
X0000325984Y0002704724D03*
X0000275984Y0002804724D03*
D35*
X0000152756Y0002454724D03*
D37*
X0000225984Y0002704724D03*
X0000875984Y0002454724D03*
D35*
X0000949212Y0002704724D03*
D36*
X0000825984Y0002354724D03*
X0000775984Y0002454724D03*
X0000725984Y0002354724D03*
D35*
X0000649212Y0002704724D03*
G04 next file*
G04 #@! TF.GenerationSoftware,KiCad,Pcbnew,(5.1.10)-1*
G04 #@! TF.CreationDate,2021-10-24T19:52:58-07:00*
G04 #@! TF.ProjectId,project,70726f6a-6563-4742-9e6b-696361645f70,rev?*
G04 #@! TF.SameCoordinates,Original*
G04 #@! TF.FileFunction,Soldermask,Top*
G04 #@! TF.FilePolarity,Negative*
G04 Gerber Fmt 4.6, Leading zero omitted, Abs format (unit mm)*
G04 Created by KiCad (PCBNEW (5.1.10)-1) date 2021-10-24 19:52:58*
G01*
G04 APERTURE LIST*
G04 APERTURE END LIST*
D38*
X-0004074015Y-0001289763D02*
X0001975984Y0003735236D03*
X0001975984Y0003285236D03*
D39*
X0001725984Y0003335236D03*
D40*
X0001625984Y0003385236D03*
X0001725984Y0003435236D03*
X0001625984Y0003485236D03*
X0001725984Y0003535236D03*
X0001625984Y0003585236D03*
X0001725984Y0003635236D03*
X0001625984Y0003685236D03*
D41*
X0001225984Y0003560236D03*
D42*
X0001225984Y0003460236D03*
X0001325984Y0003560236D03*
X0001325984Y0003460236D03*
G36*
G01*
X0001160236Y0003292519D02*
X0001160236Y0003327952D01*
G75*
G02*
X0001168110Y0003335826I0000007874D01*
G01*
X0001183858Y0003335826D01*
G75*
G02*
X0001191732Y0003327952J-0000007874D01*
G01*
X0001191732Y0003292519D01*
G75*
G02*
X0001183858Y0003284645I-0000007874D01*
G01*
X0001168110Y0003284645D01*
G75*
G02*
X0001160236Y0003292519J0000007874D01*
G01*
G37*
D43*
X0001225197Y0003310236D03*
X0001274409Y0003310236D03*
X0001323622Y0003310236D03*
X0001372834Y0003310236D03*
X0001422047Y0003310236D03*
X0001179921Y0003710236D03*
X0001229134Y0003710236D03*
X0001278346Y0003710236D03*
X0001327559Y0003710236D03*
X0001376771Y0003710236D03*
G36*
G01*
X0001441732Y0003727952D02*
X0001441732Y0003692519D01*
G75*
G02*
X0001433858Y0003684645I-0000007874D01*
G01*
X0001418110Y0003684645D01*
G75*
G02*
X0001410236Y0003692519J0000007874D01*
G01*
X0001410236Y0003727952D01*
G75*
G02*
X0001418110Y0003735826I0000007874D01*
G01*
X0001433858Y0003735826D01*
G75*
G02*
X0001441732Y0003727952J-0000007874D01*
G01*
G37*
D44*
X0000452756Y0003360236D03*
D45*
X0000375984Y0003710236D03*
X0000325984Y0003610236D03*
X0000275984Y0003710236D03*
D44*
X0000152756Y0003360236D03*
D46*
X0000225984Y0003610236D03*
X0000875984Y0003360236D03*
D44*
X0000949212Y0003610236D03*
D45*
X0000825984Y0003260236D03*
X0000775984Y0003360236D03*
X0000725984Y0003260236D03*
D44*
X0000649212Y0003610236D03*
G04 next file*
G04 #@! TF.GenerationSoftware,KiCad,Pcbnew,(5.1.10)-1*
G04 #@! TF.CreationDate,2021-10-24T19:52:58-07:00*
G04 #@! TF.ProjectId,project,70726f6a-6563-4742-9e6b-696361645f70,rev?*
G04 #@! TF.SameCoordinates,Original*
G04 #@! TF.FileFunction,Soldermask,Top*
G04 #@! TF.FilePolarity,Negative*
G04 Gerber Fmt 4.6, Leading zero omitted, Abs format (unit mm)*
G04 Created by KiCad (PCBNEW (5.1.10)-1) date 2021-10-24 19:52:58*
G01*
G04 APERTURE LIST*
G04 APERTURE END LIST*
D47*
X-0003494488Y0006200000D02*
X0001530511Y0000150000D03*
X0001080511Y0000150000D03*
D48*
X0001130511Y0000400000D03*
D49*
X0001180511Y0000500000D03*
X0001230511Y0000400000D03*
X0001280511Y0000500000D03*
X0001330511Y0000400000D03*
X0001380511Y0000500000D03*
X0001430511Y0000400000D03*
X0001480511Y0000500000D03*
D50*
X0001355511Y0000900000D03*
D51*
X0001255511Y0000900000D03*
X0001355511Y0000800000D03*
X0001255511Y0000800000D03*
G36*
G01*
X0001087795Y0000965748D02*
X0001123228Y0000965748D01*
G75*
G02*
X0001131102Y0000957874J-0000007874D01*
G01*
X0001131102Y0000942125D01*
G75*
G02*
X0001123228Y0000934251I-0000007874D01*
G01*
X0001087795Y0000934251D01*
G75*
G02*
X0001079921Y0000942125J0000007874D01*
G01*
X0001079921Y0000957874D01*
G75*
G02*
X0001087795Y0000965748I0000007874D01*
G01*
G37*
D52*
X0001105511Y0000900787D03*
X0001105511Y0000851574D03*
X0001105511Y0000802362D03*
X0001105511Y0000753149D03*
X0001105511Y0000703937D03*
X0001505511Y0000946062D03*
X0001505511Y0000896850D03*
X0001505511Y0000847637D03*
X0001505511Y0000798425D03*
X0001505511Y0000749212D03*
G36*
G01*
X0001523228Y0000684251D02*
X0001487795Y0000684251D01*
G75*
G02*
X0001479921Y0000692125J0000007874D01*
G01*
X0001479921Y0000707874D01*
G75*
G02*
X0001487795Y0000715748I0000007874D01*
G01*
X0001523228Y0000715748D01*
G75*
G02*
X0001531102Y0000707874J-0000007874D01*
G01*
X0001531102Y0000692125D01*
G75*
G02*
X0001523228Y0000684251I-0000007874D01*
G01*
G37*
D53*
X0001155511Y0001673228D03*
D54*
X0001505511Y0001750000D03*
X0001405511Y0001800000D03*
X0001505511Y0001850000D03*
D53*
X0001155511Y0001973228D03*
D55*
X0001405511Y0001900000D03*
X0001155511Y0001250000D03*
D53*
X0001405511Y0001176771D03*
D54*
X0001055511Y0001300000D03*
X0001155511Y0001350000D03*
X0001055511Y0001400000D03*
D53*
X0001405511Y0001476771D03*
G04 next file*
G04 #@! TF.GenerationSoftware,KiCad,Pcbnew,(5.1.10)-1*
G04 #@! TF.CreationDate,2021-10-24T19:52:58-07:00*
G04 #@! TF.ProjectId,project,70726f6a-6563-4742-9e6b-696361645f70,rev?*
G04 #@! TF.SameCoordinates,Original*
G04 #@! TF.FileFunction,Soldermask,Top*
G04 #@! TF.FilePolarity,Negative*
G04 Gerber Fmt 4.6, Leading zero omitted, Abs format (unit mm)*
G04 Created by KiCad (PCBNEW (5.1.10)-1) date 2021-10-24 19:52:58*
G01*
G04 APERTURE LIST*
G04 APERTURE END LIST*
D56*
X-0002588976Y0006200000D02*
X0002436023Y0000150000D03*
X0001986023Y0000150000D03*
D57*
X0002036023Y0000400000D03*
D58*
X0002086023Y0000500000D03*
X0002136023Y0000400000D03*
X0002186023Y0000500000D03*
X0002236023Y0000400000D03*
X0002286023Y0000500000D03*
X0002336023Y0000400000D03*
X0002386023Y0000500000D03*
D59*
X0002261023Y0000900000D03*
D60*
X0002161023Y0000900000D03*
X0002261023Y0000800000D03*
X0002161023Y0000800000D03*
G36*
G01*
X0001993307Y0000965748D02*
X0002028740Y0000965748D01*
G75*
G02*
X0002036614Y0000957874J-0000007874D01*
G01*
X0002036614Y0000942125D01*
G75*
G02*
X0002028740Y0000934251I-0000007874D01*
G01*
X0001993307Y0000934251D01*
G75*
G02*
X0001985433Y0000942125J0000007874D01*
G01*
X0001985433Y0000957874D01*
G75*
G02*
X0001993307Y0000965748I0000007874D01*
G01*
G37*
D61*
X0002011023Y0000900787D03*
X0002011023Y0000851574D03*
X0002011023Y0000802362D03*
X0002011023Y0000753149D03*
X0002011023Y0000703937D03*
X0002411023Y0000946062D03*
X0002411023Y0000896850D03*
X0002411023Y0000847637D03*
X0002411023Y0000798425D03*
X0002411023Y0000749212D03*
G36*
G01*
X0002428740Y0000684251D02*
X0002393307Y0000684251D01*
G75*
G02*
X0002385433Y0000692125J0000007874D01*
G01*
X0002385433Y0000707874D01*
G75*
G02*
X0002393307Y0000715748I0000007874D01*
G01*
X0002428740Y0000715748D01*
G75*
G02*
X0002436614Y0000707874J-0000007874D01*
G01*
X0002436614Y0000692125D01*
G75*
G02*
X0002428740Y0000684251I-0000007874D01*
G01*
G37*
D62*
X0002061023Y0001673228D03*
D63*
X0002411023Y0001750000D03*
X0002311023Y0001800000D03*
X0002411023Y0001850000D03*
D62*
X0002061023Y0001973228D03*
D64*
X0002311023Y0001900000D03*
X0002061023Y0001250000D03*
D62*
X0002311023Y0001176771D03*
D63*
X0001961023Y0001300000D03*
X0002061023Y0001350000D03*
X0001961023Y0001400000D03*
D62*
X0002311023Y0001476771D03*
G04 next file*
G04 #@! TF.GenerationSoftware,KiCad,Pcbnew,(5.1.10)-1*
G04 #@! TF.CreationDate,2021-10-24T19:52:58-07:00*
G04 #@! TF.ProjectId,project,70726f6a-6563-4742-9e6b-696361645f70,rev?*
G04 #@! TF.SameCoordinates,Original*
G04 #@! TF.FileFunction,Soldermask,Top*
G04 #@! TF.FilePolarity,Negative*
G04 Gerber Fmt 4.6, Leading zero omitted, Abs format (unit mm)*
G04 Created by KiCad (PCBNEW (5.1.10)-1) date 2021-10-24 19:52:58*
G01*
G04 APERTURE LIST*
G04 APERTURE END LIST*
D65*
X-0001683464Y0006200000D02*
X0003341535Y0000150000D03*
X0002891535Y0000150000D03*
D66*
X0002941535Y0000400000D03*
D67*
X0002991535Y0000500000D03*
X0003041535Y0000400000D03*
X0003091535Y0000500000D03*
X0003141535Y0000400000D03*
X0003191535Y0000500000D03*
X0003241535Y0000400000D03*
X0003291535Y0000500000D03*
D68*
X0003166535Y0000900000D03*
D69*
X0003066535Y0000900000D03*
X0003166535Y0000800000D03*
X0003066535Y0000800000D03*
G36*
G01*
X0002898818Y0000965748D02*
X0002934251Y0000965748D01*
G75*
G02*
X0002942125Y0000957874J-0000007874D01*
G01*
X0002942125Y0000942125D01*
G75*
G02*
X0002934251Y0000934251I-0000007874D01*
G01*
X0002898818Y0000934251D01*
G75*
G02*
X0002890944Y0000942125J0000007874D01*
G01*
X0002890944Y0000957874D01*
G75*
G02*
X0002898818Y0000965748I0000007874D01*
G01*
G37*
D70*
X0002916535Y0000900787D03*
X0002916535Y0000851574D03*
X0002916535Y0000802362D03*
X0002916535Y0000753149D03*
X0002916535Y0000703937D03*
X0003316535Y0000946062D03*
X0003316535Y0000896850D03*
X0003316535Y0000847637D03*
X0003316535Y0000798425D03*
X0003316535Y0000749212D03*
G36*
G01*
X0003334251Y0000684251D02*
X0003298818Y0000684251D01*
G75*
G02*
X0003290944Y0000692125J0000007874D01*
G01*
X0003290944Y0000707874D01*
G75*
G02*
X0003298818Y0000715748I0000007874D01*
G01*
X0003334251Y0000715748D01*
G75*
G02*
X0003342125Y0000707874J-0000007874D01*
G01*
X0003342125Y0000692125D01*
G75*
G02*
X0003334251Y0000684251I-0000007874D01*
G01*
G37*
D71*
X0002966535Y0001673228D03*
D72*
X0003316535Y0001750000D03*
X0003216535Y0001800000D03*
X0003316535Y0001850000D03*
D71*
X0002966535Y0001973228D03*
D73*
X0003216535Y0001900000D03*
X0002966535Y0001250000D03*
D71*
X0003216535Y0001176771D03*
D72*
X0002866535Y0001300000D03*
X0002966535Y0001350000D03*
X0002866535Y0001400000D03*
D71*
X0003216535Y0001476771D03*
M02*