%MOIN*%
%OFA0B0*%
%FSLAX36Y36*%
%IPPOS*%
%LPD*%
%ADD10C,0*%
D10*
X000507312Y002204724D02*
X000507312Y002204724D01*
X001188240Y002204724D01*
X001190992Y002204628D01*
X001193730Y002204339D01*
X001196442Y002203860D01*
X001199114Y002203192D01*
X001201732Y002202340D01*
X001204285Y002201306D01*
X001206759Y002200097D01*
X001209142Y002198717D01*
X001211423Y002197174D01*
X001213590Y002195476D01*
X001215634Y002193630D01*
X001217544Y002191646D01*
X001219310Y002189533D01*
X001220924Y002187302D01*
X001222378Y002184964D01*
X001223666Y002182530D01*
X001224780Y002180011D01*
X001225715Y002177421D01*
X001226467Y002174772D01*
X001227032Y002172077D01*
X001231535Y002146092D01*
X001231973Y002142692D01*
X001232113Y002139266D01*
X001231955Y002135841D01*
X001231499Y002132442D01*
X001230749Y002129096D01*
X001229711Y002125828D01*
X001228393Y002122663D01*
X001226804Y002119625D01*
X001224957Y002116736D01*
X001222865Y002114019D01*
X001220545Y002111494D01*
X001218014Y002109181D01*
X001215292Y002107096D01*
X001212398Y002105257D01*
X001209355Y002103676D01*
X001206187Y002102366D01*
X001202916Y002101337D01*
X001199568Y002100596D01*
X001196169Y002100149D01*
X001192743Y002100000D01*
X001105511Y002100000D01*
X001092953Y002099605D01*
X001080444Y002098423D01*
X001068035Y002096457D01*
X001055773Y002093716D01*
X001043708Y002090211D01*
X001031886Y002085955D01*
X001020355Y002080965D01*
X001009161Y002075261D01*
X000998346Y002068865D01*
X000987954Y002061803D01*
X000978026Y002054102D01*
X000968602Y002045794D01*
X000959717Y002036909D01*
X000951409Y002027485D01*
X000943708Y002017557D01*
X000936646Y002007165D01*
X000930250Y001996350D01*
X000924546Y001985156D01*
X000919556Y001973625D01*
X000915300Y001961803D01*
X000911795Y001949738D01*
X000909054Y001937476D01*
X000907088Y001925067D01*
X000905906Y001912558D01*
X000905511Y001899999D01*
X000905511Y000501766D01*
X000905379Y000498542D01*
X000904984Y000495341D01*
X000904327Y000492182D01*
X000903414Y000489088D01*
X000902251Y000486079D01*
X000900846Y000483175D01*
X000899207Y000480396D01*
X000897347Y000477761D01*
X000895276Y000475287D01*
X000893011Y000472990D01*
X000890565Y000470887D01*
X000887954Y000468991D01*
X000885198Y000467315D01*
X000882313Y000465871D01*
X000879320Y000464667D01*
X000876239Y000463713D01*
X000873089Y000463014D01*
X000869893Y000462575D01*
X000866672Y000462399D01*
X000863447Y000462488D01*
X000836675Y000464324D01*
X000833735Y000464637D01*
X000830827Y000465170D01*
X000827967Y000465920D01*
X000825171Y000466881D01*
X000822456Y000468051D01*
X000819835Y000469420D01*
X000817325Y000470982D01*
X000814940Y000472729D01*
X000812692Y000474649D01*
X000810594Y000476733D01*
X000808659Y000478968D01*
X000806897Y000481342D01*
X000805318Y000483842D01*
X000803931Y000486453D01*
X000802744Y000489161D01*
X000801763Y000491950D01*
X000800995Y000494805D01*
X000800443Y000497710D01*
X000800111Y000500648D01*
X000800000Y000503602D01*
X000800000Y001899999D01*
X000799605Y001912558D01*
X000798423Y001925067D01*
X000796456Y001937476D01*
X000793716Y001949738D01*
X000790211Y001961803D01*
X000785955Y001973625D01*
X000780965Y001985156D01*
X000775261Y001996350D01*
X000768865Y002007165D01*
X000761803Y002017557D01*
X000754102Y002027485D01*
X000745793Y002036909D01*
X000736909Y002045794D01*
X000727484Y002054102D01*
X000717556Y002061803D01*
X000707165Y002068865D01*
X000696350Y002075261D01*
X000685155Y002080965D01*
X000673624Y002085955D01*
X000661802Y002090211D01*
X000649737Y002093716D01*
X000637475Y002096457D01*
X000625066Y002098423D01*
X000612557Y002099605D01*
X000599999Y002100000D01*
X000507050Y002100000D01*
X000503941Y002100122D01*
X000500852Y002100490D01*
X000497801Y002101101D01*
X000494808Y002101951D01*
X000491892Y002103035D01*
X000489070Y002104345D01*
X000486361Y002105874D01*
X000483780Y002107612D01*
X000481345Y002109549D01*
X000479071Y002111672D01*
X000476971Y002113967D01*
X000475059Y002116422D01*
X000473347Y002119020D01*
X000471845Y002121744D01*
X000470564Y002124579D01*
X000469510Y002127506D01*
X000468690Y002130508D01*
X000468110Y002133564D01*
X000467773Y002136657D01*
X000467682Y002139767D01*
X000467944Y002165751D01*
X000468095Y002168819D01*
X000468485Y002171866D01*
X000469110Y002174873D01*
X000469969Y002177822D01*
X000471054Y002180695D01*
X000472361Y002183475D01*
X000473880Y002186145D01*
X000475602Y002188688D01*
X000477518Y002191089D01*
X000479614Y002193333D01*
X000481880Y002195407D01*
X000484300Y002197298D01*
X000486860Y002198995D01*
X000489545Y002200487D01*
X000492338Y002201765D01*
X000495222Y002202821D01*
X000498180Y002203650D01*
X000501193Y002204245D01*
X000504243Y002204604D01*
X000507312Y002204724D01*
X000295575Y002100000D02*
X000295575Y002100000D01*
X000199999Y002100000D01*
X000187441Y002099605D01*
X000174933Y002098423D01*
X000162523Y002096457D01*
X000150261Y002093716D01*
X000138196Y002090211D01*
X000126374Y002085955D01*
X000114844Y002080965D01*
X000103649Y002075261D01*
X000092834Y002068865D01*
X000082442Y002061803D01*
X000072515Y002054102D01*
X000063090Y002045794D01*
X000054206Y002036909D01*
X000045897Y002027485D01*
X000038196Y002017557D01*
X000031134Y002007165D01*
X000024738Y001996350D01*
X000019034Y001985156D01*
X000014044Y001973625D01*
X000009788Y001961803D01*
X000006283Y001949738D01*
X000003542Y001937476D01*
X000001576Y001925067D01*
X000000394Y001912558D01*
X000000000Y001899999D01*
X000000000Y000200000D01*
X000000394Y000187442D01*
X000001576Y000174933D01*
X000003542Y000162524D01*
X000006283Y000150261D01*
X000009788Y000138196D01*
X000014044Y000126375D01*
X000019034Y000114844D01*
X000024738Y000103649D01*
X000031134Y000092834D01*
X000038196Y000082443D01*
X000045897Y000072515D01*
X000054206Y000063091D01*
X000063090Y000054206D01*
X000072515Y000045897D01*
X000082442Y000038197D01*
X000092834Y000031134D01*
X000103649Y000024739D01*
X000114844Y000019034D01*
X000126374Y000014044D01*
X000138196Y000009789D01*
X000150261Y000006283D01*
X000162523Y000003542D01*
X000174933Y000001577D01*
X000187441Y000000394D01*
X000199999Y000000000D01*
X000599999Y000000000D01*
X000612557Y000000394D01*
X000625066Y000001577D01*
X000637475Y000003542D01*
X000649737Y000006283D01*
X000661802Y000009789D01*
X000673624Y000014044D01*
X000685155Y000019034D01*
X000696350Y000024739D01*
X000707165Y000031134D01*
X000717556Y000038197D01*
X000727484Y000045897D01*
X000736909Y000054206D01*
X000745793Y000063091D01*
X000754102Y000072515D01*
X000761803Y000082443D01*
X000768865Y000092834D01*
X000775261Y000103649D01*
X000780965Y000114844D01*
X000785955Y000126375D01*
X000790211Y000138196D01*
X000793716Y000150261D01*
X000796456Y000162524D01*
X000798423Y000174933D01*
X000799605Y000187442D01*
X000800000Y000200000D01*
X000800000Y000290459D01*
X000800111Y000293414D01*
X000800443Y000296352D01*
X000800995Y000299256D01*
X000801763Y000302111D01*
X000802744Y000304901D01*
X000803931Y000307608D01*
X000805318Y000310220D01*
X000806897Y000312719D01*
X000808659Y000315093D01*
X000810594Y000317329D01*
X000812692Y000319412D01*
X000814940Y000321333D01*
X000817325Y000323079D01*
X000819835Y000324641D01*
X000822456Y000326011D01*
X000825171Y000327180D01*
X000827967Y000328142D01*
X000830827Y000328891D01*
X000833735Y000329424D01*
X000836675Y000329737D01*
X000863447Y000331573D01*
X000866672Y000331662D01*
X000869893Y000331487D01*
X000873089Y000331048D01*
X000876239Y000330349D01*
X000879320Y000329394D01*
X000882313Y000328191D01*
X000885198Y000326746D01*
X000887954Y000325070D01*
X000890565Y000323175D01*
X000893011Y000321071D01*
X000895276Y000318775D01*
X000897347Y000316301D01*
X000899207Y000313665D01*
X000900846Y000310886D01*
X000902251Y000307982D01*
X000903414Y000304973D01*
X000904327Y000301879D01*
X000904984Y000298721D01*
X000905379Y000295519D01*
X000905511Y000292296D01*
X000905511Y000200000D01*
X000905906Y000187442D01*
X000907088Y000174933D01*
X000909054Y000162524D01*
X000911795Y000150261D01*
X000915300Y000138196D01*
X000919556Y000126375D01*
X000924546Y000114844D01*
X000930250Y000103649D01*
X000936646Y000092834D01*
X000943708Y000082443D01*
X000951409Y000072515D01*
X000959717Y000063091D01*
X000968602Y000054206D01*
X000978026Y000045897D01*
X000987954Y000038197D01*
X000998346Y000031134D01*
X001009161Y000024739D01*
X001020355Y000019034D01*
X001031886Y000014044D01*
X001043708Y000009789D01*
X001055773Y000006283D01*
X001068035Y000003542D01*
X001080444Y000001577D01*
X001092953Y000000394D01*
X001105511Y000000000D01*
X001505511Y000000000D01*
X001518069Y000000394D01*
X001530578Y000001577D01*
X001542987Y000003542D01*
X001555249Y000006283D01*
X001567314Y000009789D01*
X001579136Y000014044D01*
X001590667Y000019034D01*
X001601862Y000024739D01*
X001612677Y000031134D01*
X001623068Y000038197D01*
X001632996Y000045897D01*
X001642420Y000054206D01*
X001651305Y000063091D01*
X001659614Y000072515D01*
X001667315Y000082443D01*
X001674377Y000092834D01*
X001680772Y000103649D01*
X001686477Y000114844D01*
X001691467Y000126375D01*
X001695722Y000138196D01*
X001699228Y000150261D01*
X001701968Y000162524D01*
X001703934Y000174933D01*
X001705117Y000187442D01*
X001705511Y000200000D01*
X001705511Y000293839D01*
X001705661Y000297269D01*
X001706109Y000300673D01*
X001706852Y000304025D01*
X001707884Y000307299D01*
X001709197Y000310471D01*
X001710782Y000313517D01*
X001712626Y000316413D01*
X001714715Y000319137D01*
X001717034Y000321669D01*
X001719564Y000323990D01*
X001722288Y000326081D01*
X001725182Y000327926D01*
X001728227Y000329513D01*
X001731398Y000330828D01*
X001734672Y000331862D01*
X001738024Y000332607D01*
X001741427Y000333057D01*
X001744857Y000333209D01*
X001748287Y000333062D01*
X001751691Y000332616D01*
X001778463Y000327914D01*
X001781153Y000327344D01*
X001783796Y000326588D01*
X001786380Y000325649D01*
X001788892Y000324533D01*
X001791321Y000323243D01*
X001793653Y000321787D01*
X001795878Y000320172D01*
X001797985Y000318406D01*
X001799963Y000316497D01*
X001801804Y000314454D01*
X001803497Y000312289D01*
X001805035Y000310010D01*
X001806410Y000307629D01*
X001807616Y000305158D01*
X001808647Y000302609D01*
X001809497Y000299995D01*
X001810162Y000297327D01*
X001810640Y000294619D01*
X001810927Y000291885D01*
X001811023Y000289138D01*
X001811023Y000200000D01*
X001811418Y000187442D01*
X001812600Y000174933D01*
X001814566Y000162524D01*
X001817306Y000150261D01*
X001820812Y000138196D01*
X001825068Y000126375D01*
X001830057Y000114844D01*
X001835762Y000103649D01*
X001842157Y000092834D01*
X001849219Y000082443D01*
X001856920Y000072515D01*
X001865229Y000063091D01*
X001874114Y000054206D01*
X001883538Y000045897D01*
X001893466Y000038197D01*
X001903857Y000031134D01*
X001914672Y000024739D01*
X001925867Y000019034D01*
X001937398Y000014044D01*
X001949219Y000009789D01*
X001961285Y000006283D01*
X001973547Y000003542D01*
X001985956Y000001577D01*
X001998465Y000000394D01*
X002011023Y000000000D01*
X002411023Y000000000D01*
X002423581Y000000394D01*
X002436090Y000001577D01*
X002448499Y000003542D01*
X002460761Y000006283D01*
X002472826Y000009789D01*
X002484648Y000014044D01*
X002496179Y000019034D01*
X002507373Y000024739D01*
X002518188Y000031134D01*
X002528580Y000038197D01*
X002538508Y000045897D01*
X002547932Y000054206D01*
X002556817Y000063091D01*
X002565125Y000072515D01*
X002572826Y000082443D01*
X002579889Y000092834D01*
X002586284Y000103649D01*
X002591989Y000114844D01*
X002596979Y000126375D01*
X002601234Y000138196D01*
X002604739Y000150261D01*
X002607480Y000162524D01*
X002609446Y000174933D01*
X002610629Y000187442D01*
X002611023Y000200000D01*
X002611023Y000292739D01*
X002611160Y000296023D01*
X002611571Y000299285D01*
X002612253Y000302501D01*
X002613200Y000305649D01*
X002614407Y000308707D01*
X002615864Y000311653D01*
X002617563Y000314468D01*
X002619490Y000317131D01*
X002621633Y000319625D01*
X002623976Y000321930D01*
X002626504Y000324032D01*
X002629198Y000325916D01*
X002632039Y000327569D01*
X002635009Y000328979D01*
X002638086Y000330136D01*
X002641249Y000331032D01*
X002644476Y000331662D01*
X002647743Y000332020D01*
X002651030Y000332104D01*
X002654312Y000331913D01*
X002681083Y000329236D01*
X002683952Y000328842D01*
X002686783Y000328238D01*
X002689563Y000327428D01*
X002692275Y000326416D01*
X002694906Y000325207D01*
X002697441Y000323808D01*
X002699866Y000322227D01*
X002702169Y000320472D01*
X002704336Y000318552D01*
X002706356Y000316478D01*
X002708219Y000314262D01*
X002709913Y000311914D01*
X002711431Y000309448D01*
X002712763Y000306878D01*
X002713902Y000304216D01*
X002714843Y000301478D01*
X002715580Y000298678D01*
X002716110Y000295832D01*
X002716429Y000292954D01*
X002716535Y000290061D01*
X002716535Y000200000D01*
X002716929Y000187442D01*
X002718112Y000174933D01*
X002720078Y000162524D01*
X002722818Y000150261D01*
X002726323Y000138196D01*
X002730579Y000126375D01*
X002735569Y000114844D01*
X002741273Y000103649D01*
X002747669Y000092834D01*
X002754731Y000082443D01*
X002762432Y000072515D01*
X002770741Y000063091D01*
X002779626Y000054206D01*
X002789050Y000045897D01*
X002798978Y000038197D01*
X002809369Y000031134D01*
X002820184Y000024739D01*
X002831379Y000019034D01*
X002842910Y000014044D01*
X002854731Y000009789D01*
X002866797Y000006283D01*
X002879059Y000003542D01*
X002891468Y000001577D01*
X002903977Y000000394D01*
X002916535Y000000000D01*
X003316535Y000000000D01*
X003329093Y000000394D01*
X003341601Y000001577D01*
X003354011Y000003542D01*
X003366273Y000006283D01*
X003378338Y000009789D01*
X003390160Y000014044D01*
X003401690Y000019034D01*
X003412885Y000024739D01*
X003423700Y000031134D01*
X003434092Y000038197D01*
X003444020Y000045897D01*
X003453444Y000054206D01*
X003462328Y000063091D01*
X003470637Y000072515D01*
X003478338Y000082443D01*
X003485400Y000092834D01*
X003491796Y000103649D01*
X003497501Y000114844D01*
X003502490Y000126375D01*
X003506746Y000138196D01*
X003510251Y000150261D01*
X003512992Y000162524D01*
X003514958Y000174933D01*
X003516140Y000187442D01*
X003516535Y000200000D01*
X003516535Y001899999D01*
X003516140Y001912558D01*
X003514958Y001925067D01*
X003512992Y001937476D01*
X003510251Y001949738D01*
X003506746Y001961803D01*
X003502490Y001973625D01*
X003497501Y001985156D01*
X003491796Y001996350D01*
X003485400Y002007165D01*
X003478338Y002017557D01*
X003470637Y002027485D01*
X003462328Y002036909D01*
X003453444Y002045794D01*
X003444020Y002054102D01*
X003434092Y002061803D01*
X003423700Y002068865D01*
X003412885Y002075261D01*
X003401690Y002080965D01*
X003390160Y002085955D01*
X003378338Y002090211D01*
X003366273Y002093716D01*
X003354011Y002096457D01*
X003341601Y002098423D01*
X003329093Y002099605D01*
X003316535Y002100000D01*
X002916535Y002100000D01*
X002903977Y002099605D01*
X002891468Y002098423D01*
X002879059Y002096457D01*
X002866797Y002093716D01*
X002854731Y002090211D01*
X002842910Y002085955D01*
X002831379Y002080965D01*
X002820184Y002075261D01*
X002809369Y002068865D01*
X002798978Y002061803D01*
X002789050Y002054102D01*
X002779626Y002045794D01*
X002770741Y002036909D01*
X002762432Y002027485D01*
X002754731Y002017557D01*
X002747669Y002007165D01*
X002741273Y001996350D01*
X002735569Y001985156D01*
X002730579Y001973625D01*
X002726323Y001961803D01*
X002722818Y001949738D01*
X002720078Y001937476D01*
X002718112Y001925067D01*
X002716929Y001912558D01*
X002716535Y001899999D01*
X002716535Y001687718D01*
X002716450Y001685130D01*
X002716195Y001682552D01*
X002715770Y001679997D01*
X002715179Y001677475D01*
X002714423Y001674997D01*
X002713506Y001672575D01*
X002712432Y001670218D01*
X002711205Y001667937D01*
X002709830Y001665742D01*
X002708315Y001663641D01*
X002706664Y001661645D01*
X002704886Y001659762D01*
X002702987Y001658000D01*
X002700977Y001656366D01*
X002698864Y001654868D01*
X002696657Y001653512D01*
X002694366Y001652305D01*
X002692000Y001651250D01*
X002689570Y001650354D01*
X002687086Y001649619D01*
X002660314Y001642647D01*
X002656800Y001641902D01*
X002653233Y001641480D01*
X002649642Y001641384D01*
X002646057Y001641617D01*
X002642508Y001642175D01*
X002639025Y001643054D01*
X002635637Y001644247D01*
X002632371Y001645744D01*
X002629256Y001647533D01*
X002626316Y001649597D01*
X002623577Y001651922D01*
X002621061Y001654486D01*
X002618790Y001657269D01*
X002616781Y001660247D01*
X002615053Y001663396D01*
X002613618Y001666690D01*
X002612490Y001670101D01*
X002611677Y001673600D01*
X002611187Y001677158D01*
X002611023Y001680747D01*
X002611023Y001899999D01*
X002610629Y001912558D01*
X002609446Y001925067D01*
X002607480Y001937476D01*
X002604739Y001949738D01*
X002601234Y001961803D01*
X002596979Y001973625D01*
X002591989Y001985156D01*
X002586284Y001996350D01*
X002579889Y002007165D01*
X002572826Y002017557D01*
X002565125Y002027485D01*
X002556817Y002036909D01*
X002547932Y002045794D01*
X002538508Y002054102D01*
X002528580Y002061803D01*
X002518188Y002068865D01*
X002507373Y002075261D01*
X002496179Y002080965D01*
X002484648Y002085955D01*
X002472826Y002090211D01*
X002460761Y002093716D01*
X002448499Y002096457D01*
X002436090Y002098423D01*
X002423581Y002099605D01*
X002411023Y002100000D01*
X002011023Y002100000D01*
X001998465Y002099605D01*
X001985956Y002098423D01*
X001973547Y002096457D01*
X001961285Y002093716D01*
X001949219Y002090211D01*
X001937398Y002085955D01*
X001925867Y002080965D01*
X001914672Y002075261D01*
X001903857Y002068865D01*
X001893466Y002061803D01*
X001883538Y002054102D01*
X001874114Y002045794D01*
X001865229Y002036909D01*
X001856920Y002027485D01*
X001849219Y002017557D01*
X001842157Y002007165D01*
X001835762Y001996350D01*
X001830057Y001985156D01*
X001825068Y001973625D01*
X001820812Y001961803D01*
X001817306Y001949738D01*
X001814566Y001937476D01*
X001812600Y001925067D01*
X001811418Y001912558D01*
X001811023Y001899999D01*
X001811023Y001682503D01*
X001810879Y001679133D01*
X001810446Y001675788D01*
X001809729Y001672492D01*
X001808733Y001669270D01*
X001807464Y001666145D01*
X001805933Y001663140D01*
X001804149Y001660277D01*
X001802128Y001657577D01*
X001799883Y001655060D01*
X001797430Y001652745D01*
X001794788Y001650647D01*
X001791977Y001648784D01*
X001789016Y001647168D01*
X001785928Y001645812D01*
X001782736Y001644725D01*
X001779461Y001643915D01*
X001776130Y001643388D01*
X001772766Y001643148D01*
X001769393Y001643198D01*
X001766037Y001643535D01*
X001739266Y001647393D01*
X001736501Y001647893D01*
X001733778Y001648589D01*
X001731113Y001649477D01*
X001728517Y001650553D01*
X001726005Y001651811D01*
X001723589Y001653246D01*
X001721281Y001654849D01*
X001719094Y001656612D01*
X001717038Y001658527D01*
X001715123Y001660584D01*
X001713361Y001662772D01*
X001711758Y001665080D01*
X001710325Y001667497D01*
X001709068Y001670010D01*
X001707993Y001672605D01*
X001707105Y001675272D01*
X001706411Y001677994D01*
X001705912Y001680759D01*
X001705612Y001683553D01*
X001705511Y001686361D01*
X001705511Y001899999D01*
X001705117Y001912558D01*
X001703934Y001925067D01*
X001701968Y001937476D01*
X001699228Y001949738D01*
X001695722Y001961803D01*
X001691467Y001973625D01*
X001686477Y001985156D01*
X001680772Y001996350D01*
X001674377Y002007165D01*
X001667315Y002017557D01*
X001659614Y002027485D01*
X001651305Y002036909D01*
X001642420Y002045794D01*
X001632996Y002054102D01*
X001623068Y002061803D01*
X001612677Y002068865D01*
X001601862Y002075261D01*
X001590667Y002080965D01*
X001579136Y002085955D01*
X001567314Y002090211D01*
X001555249Y002093716D01*
X001542987Y002096457D01*
X001530578Y002098423D01*
X001518069Y002099605D01*
X001505511Y002100000D01*
X001399734Y002100000D01*
X001396309Y002100149D01*
X001392909Y002100596D01*
X001389561Y002101337D01*
X001386291Y002102366D01*
X001383122Y002103676D01*
X001380079Y002105257D01*
X001377186Y002107096D01*
X001374463Y002109181D01*
X001371932Y002111494D01*
X001369612Y002114019D01*
X001367521Y002116736D01*
X001365673Y002119625D01*
X001364085Y002122663D01*
X001362766Y002125828D01*
X001361728Y002129096D01*
X001360978Y002132442D01*
X001360523Y002135841D01*
X001360364Y002139266D01*
X001360505Y002142692D01*
X001360942Y002146092D01*
X001365446Y002172077D01*
X001366010Y002174772D01*
X001366762Y002177421D01*
X001367698Y002180011D01*
X001368811Y002182530D01*
X001370099Y002184964D01*
X001371553Y002187302D01*
X001373167Y002189533D01*
X001374934Y002191646D01*
X001376843Y002193630D01*
X001378887Y002195476D01*
X001381054Y002197174D01*
X001383335Y002198717D01*
X001385719Y002200097D01*
X001388193Y002201306D01*
X001390745Y002202340D01*
X001393363Y002203192D01*
X001396035Y002203860D01*
X001398747Y002204339D01*
X001401485Y002204628D01*
X001404237Y002204724D01*
X001925984Y002204724D01*
X001938542Y002205118D01*
X001951051Y002206301D01*
X001963460Y002208266D01*
X001975722Y002211007D01*
X001987787Y002214512D01*
X001999609Y002218768D01*
X002011139Y002223758D01*
X002022335Y002229462D01*
X002033149Y002235858D01*
X002043541Y002242920D01*
X002053468Y002250621D01*
X002062893Y002258930D01*
X002071778Y002267814D01*
X002080086Y002277239D01*
X002087787Y002287167D01*
X002094849Y002297558D01*
X002101245Y002308373D01*
X002106949Y002319568D01*
X002111939Y002331099D01*
X002116195Y002342920D01*
X002119701Y002354986D01*
X002122441Y002367247D01*
X002124407Y002379657D01*
X002125589Y002392166D01*
X002125984Y002404724D01*
X002125984Y002804724D01*
X002125589Y002817282D01*
X002124407Y002829790D01*
X002122441Y002842200D01*
X002119701Y002854461D01*
X002116195Y002866527D01*
X002111939Y002878349D01*
X002106949Y002889879D01*
X002101245Y002901074D01*
X002094849Y002911889D01*
X002087787Y002922281D01*
X002080086Y002932209D01*
X002071778Y002941633D01*
X002062893Y002950517D01*
X002053468Y002958826D01*
X002043541Y002966527D01*
X002033149Y002973589D01*
X002022335Y002979985D01*
X002011139Y002985689D01*
X001999609Y002990679D01*
X001987787Y002994935D01*
X001975722Y002998440D01*
X001963460Y003001181D01*
X001951051Y003003147D01*
X001938542Y003004329D01*
X001925984Y003004724D01*
X001411145Y003004724D01*
X001408156Y003004838D01*
X001405184Y003005178D01*
X001402247Y003005743D01*
X001399360Y003006529D01*
X001396542Y003007532D01*
X001393808Y003008747D01*
X001391175Y003010165D01*
X001388656Y003011779D01*
X001386268Y003013580D01*
X001384023Y003015557D01*
X001381934Y003017699D01*
X001380014Y003019993D01*
X001378274Y003022426D01*
X001376724Y003024984D01*
X001375372Y003027653D01*
X001374227Y003030417D01*
X001373296Y003033259D01*
X001372582Y003036164D01*
X001372091Y003039115D01*
X001371826Y003042095D01*
X001370465Y003068866D01*
X001370432Y003072057D01*
X001370658Y003075241D01*
X001371141Y003078395D01*
X001371877Y003081500D01*
X001372863Y003084535D01*
X001374092Y003087481D01*
X001375555Y003090317D01*
X001377243Y003093025D01*
X001379144Y003095588D01*
X001381247Y003097988D01*
X001383538Y003100211D01*
X001386000Y003102240D01*
X001388620Y003104063D01*
X001391378Y003105668D01*
X001394257Y003107045D01*
X001397238Y003108183D01*
X001400302Y003109077D01*
X001403428Y003109719D01*
X001406595Y003110106D01*
X001409784Y003110236D01*
X001925984Y003110236D01*
X001938542Y003110630D01*
X001951051Y003111812D01*
X001963460Y003113778D01*
X001975722Y003116519D01*
X001987787Y003120024D01*
X001999609Y003124280D01*
X002011139Y003129270D01*
X002022335Y003134974D01*
X002033149Y003141370D01*
X002043541Y003148432D01*
X002053468Y003156133D01*
X002062893Y003164442D01*
X002071778Y003173326D01*
X002080086Y003182751D01*
X002087787Y003192679D01*
X002094849Y003203070D01*
X002101245Y003213885D01*
X002106949Y003225080D01*
X002111939Y003236610D01*
X002116195Y003248432D01*
X002119701Y003260498D01*
X002122441Y003272759D01*
X002124407Y003285169D01*
X002125589Y003297677D01*
X002125984Y003310235D01*
X002125984Y003710236D01*
X002125589Y003722793D01*
X002124407Y003735302D01*
X002122441Y003747712D01*
X002119701Y003759973D01*
X002116195Y003772039D01*
X002111939Y003783860D01*
X002106949Y003795391D01*
X002101245Y003806586D01*
X002094849Y003817401D01*
X002087787Y003827793D01*
X002080086Y003837720D01*
X002071778Y003847145D01*
X002062893Y003856029D01*
X002053468Y003864338D01*
X002043541Y003872039D01*
X002033149Y003879101D01*
X002022335Y003885497D01*
X002011139Y003891201D01*
X001999609Y003896191D01*
X001987787Y003900447D01*
X001975722Y003903952D01*
X001963460Y003906693D01*
X001951051Y003908659D01*
X001938542Y003909841D01*
X001925984Y003910236D01*
X000225984Y003910236D01*
X000213426Y003909841D01*
X000200917Y003908659D01*
X000188507Y003906693D01*
X000176246Y003903952D01*
X000164180Y003900447D01*
X000152359Y003896191D01*
X000140828Y003891201D01*
X000129633Y003885497D01*
X000118818Y003879101D01*
X000108427Y003872039D01*
X000098499Y003864338D01*
X000089074Y003856029D01*
X000080190Y003847145D01*
X000071881Y003837720D01*
X000064180Y003827793D01*
X000057118Y003817401D01*
X000050722Y003806586D01*
X000045018Y003795391D01*
X000040028Y003783860D01*
X000035773Y003772039D01*
X000032267Y003759973D01*
X000029526Y003747712D01*
X000027561Y003735302D01*
X000026378Y003722793D01*
X000025984Y003710236D01*
X000025984Y003310235D01*
X000026378Y003297677D01*
X000027561Y003285169D01*
X000029526Y003272759D01*
X000032267Y003260498D01*
X000035773Y003248432D01*
X000040028Y003236610D01*
X000045018Y003225080D01*
X000050722Y003213885D01*
X000057118Y003203070D01*
X000064180Y003192679D01*
X000071881Y003182751D01*
X000080190Y003173326D01*
X000089074Y003164442D01*
X000098499Y003156133D01*
X000108427Y003148432D01*
X000118818Y003141370D01*
X000129633Y003134974D01*
X000140828Y003129270D01*
X000152359Y003124280D01*
X000164180Y003120024D01*
X000176246Y003116519D01*
X000188507Y003113778D01*
X000200917Y003111812D01*
X000213426Y003110630D01*
X000225984Y003110236D01*
X000292644Y003110236D01*
X000296432Y003110053D01*
X000300185Y003109507D01*
X000303868Y003108602D01*
X000307446Y003107347D01*
X000310888Y003105754D01*
X000314160Y003103837D01*
X000317232Y003101614D01*
X000320076Y003099106D01*
X000322666Y003096336D01*
X000324977Y003093329D01*
X000326988Y003090114D01*
X000328681Y003086720D01*
X000330039Y003083180D01*
X000331050Y003079525D01*
X000331705Y003075790D01*
X000331998Y003072009D01*
X000331925Y003068217D01*
X000331488Y003064450D01*
X000330691Y003060743D01*
X000329540Y003057129D01*
X000319573Y003030358D01*
X000318672Y003028144D01*
X000317638Y003025989D01*
X000316475Y003023901D01*
X000315187Y003021887D01*
X000313779Y003019956D01*
X000312257Y003018113D01*
X000310626Y003016366D01*
X000308892Y003014721D01*
X000307061Y003013184D01*
X000305141Y003011761D01*
X000303137Y003010458D01*
X000301058Y003009278D01*
X000298912Y003008227D01*
X000296705Y003007308D01*
X000294447Y003006524D01*
X000292146Y003005879D01*
X000289809Y003005375D01*
X000287447Y003005014D01*
X000285066Y003004796D01*
X000282677Y003004724D01*
X000225984Y003004724D01*
X000213426Y003004329D01*
X000200917Y003003147D01*
X000188507Y003001181D01*
X000176246Y002998440D01*
X000164180Y002994935D01*
X000152359Y002990679D01*
X000140828Y002985689D01*
X000129633Y002979985D01*
X000118818Y002973589D01*
X000108427Y002966527D01*
X000098499Y002958826D01*
X000089074Y002950517D01*
X000080190Y002941633D01*
X000071881Y002932209D01*
X000064180Y002922281D01*
X000057118Y002911889D01*
X000050722Y002901074D01*
X000045018Y002889879D01*
X000040028Y002878349D01*
X000035773Y002866527D01*
X000032267Y002854461D01*
X000029526Y002842200D01*
X000027561Y002829790D01*
X000026378Y002817282D01*
X000025984Y002804724D01*
X000025984Y002404724D01*
X000026378Y002392166D01*
X000027561Y002379657D01*
X000029526Y002367247D01*
X000032267Y002354986D01*
X000035773Y002342920D01*
X000040028Y002331099D01*
X000045018Y002319568D01*
X000050722Y002308373D01*
X000057118Y002297558D01*
X000064180Y002287167D01*
X000071881Y002277239D01*
X000080190Y002267814D01*
X000089074Y002258930D01*
X000098499Y002250621D01*
X000108427Y002242920D01*
X000118818Y002235858D01*
X000129633Y002229462D01*
X000140828Y002223758D01*
X000152359Y002218768D01*
X000164180Y002214512D01*
X000176246Y002211007D01*
X000188507Y002208266D01*
X000200917Y002206301D01*
X000213426Y002205118D01*
X000225984Y002204724D01*
X000295313Y002204724D01*
X000298382Y002204604D01*
X000301433Y002204245D01*
X000304446Y002203650D01*
X000307403Y002202821D01*
X000310287Y002201765D01*
X000313080Y002200487D01*
X000315765Y002198995D01*
X000318325Y002197298D01*
X000320745Y002195407D01*
X000323011Y002193333D01*
X000325108Y002191089D01*
X000327023Y002188688D01*
X000328746Y002186145D01*
X000330265Y002183475D01*
X000331571Y002180695D01*
X000332657Y002177822D01*
X000333515Y002174873D01*
X000334141Y002171866D01*
X000334530Y002168819D01*
X000334681Y002165751D01*
X000334943Y002139767D01*
X000334852Y002136657D01*
X000334515Y002133564D01*
X000333935Y002130508D01*
X000333116Y002127506D01*
X000332062Y002124579D01*
X000330780Y002121744D01*
X000329278Y002119020D01*
X000327566Y002116422D01*
X000325654Y002113967D01*
X000323554Y002111672D01*
X000321280Y002109549D01*
X000318845Y002107612D01*
X000316265Y002105874D01*
X000313555Y002104345D01*
X000310733Y002103035D01*
X000307817Y002101951D01*
X000304824Y002101101D01*
X000301773Y002100490D01*
X000298684Y002100122D01*
X000295575Y002100000D01*
X002716535Y000504000D02*
X002716535Y000504000D01*
X002716429Y000501107D01*
X002716110Y000498230D01*
X002715580Y000495383D01*
X002714843Y000492583D01*
X002713902Y000489845D01*
X002712763Y000487184D01*
X002711431Y000484613D01*
X002709913Y000482147D01*
X002708219Y000479800D01*
X002706356Y000477583D01*
X002704336Y000475509D01*
X002702169Y000473590D01*
X002699866Y000471834D01*
X002697441Y000470253D01*
X002694906Y000468854D01*
X002692275Y000467646D01*
X002689563Y000466633D01*
X002686783Y000465823D01*
X002683952Y000465220D01*
X002681083Y000464826D01*
X002654312Y000462148D01*
X002651030Y000461958D01*
X002647743Y000462042D01*
X002644476Y000462400D01*
X002641249Y000463029D01*
X002638086Y000463926D01*
X002635009Y000465083D01*
X002632039Y000466492D01*
X002629198Y000468145D01*
X002626504Y000470029D01*
X002623976Y000472131D01*
X002621633Y000474437D01*
X002619490Y000476930D01*
X002617563Y000479593D01*
X002615864Y000482408D01*
X002614407Y000485355D01*
X002613200Y000488412D01*
X002612253Y000491560D01*
X002611571Y000494776D01*
X002611160Y000498038D01*
X002611023Y000501323D01*
X002611023Y001476946D01*
X002611187Y001480535D01*
X002611677Y001484094D01*
X002612490Y001487593D01*
X002613618Y001491003D01*
X002615053Y001494297D01*
X002616781Y001497446D01*
X002618790Y001500424D01*
X002621061Y001503207D01*
X002623577Y001505772D01*
X002626316Y001508096D01*
X002629256Y001510161D01*
X002632371Y001511949D01*
X002635637Y001513446D01*
X002639025Y001514639D01*
X002642508Y001515519D01*
X002646057Y001516077D01*
X002649642Y001516309D01*
X002653233Y001516214D01*
X002656800Y001515792D01*
X002660314Y001515046D01*
X002687086Y001508075D01*
X002689570Y001507340D01*
X002692000Y001506443D01*
X002694366Y001505389D01*
X002696657Y001504181D01*
X002698864Y001502825D01*
X002700977Y001501327D01*
X002702987Y001499694D01*
X002704886Y001497932D01*
X002706664Y001496048D01*
X002708315Y001494052D01*
X002709830Y001491952D01*
X002711205Y001489756D01*
X002712432Y001487475D01*
X002713506Y001485118D01*
X002714423Y001482696D01*
X002715179Y001480218D01*
X002715770Y001477697D01*
X002716195Y001475141D01*
X002716450Y001472564D01*
X002716535Y001469975D01*
X002716535Y000504000D01*
X001811023Y000504924D02*
X001811023Y000504924D01*
X001810927Y000502176D01*
X001810640Y000499442D01*
X001810162Y000496734D01*
X001809497Y000494067D01*
X001808647Y000491452D01*
X001807616Y000488903D01*
X001806410Y000486432D01*
X001805035Y000484052D01*
X001803497Y000481773D01*
X001801804Y000479607D01*
X001799963Y000477564D01*
X001797985Y000475655D01*
X001795878Y000473889D01*
X001793653Y000472274D01*
X001791321Y000470818D01*
X001788892Y000469529D01*
X001786380Y000468412D01*
X001783796Y000467473D01*
X001781153Y000466717D01*
X001778463Y000466147D01*
X001751691Y000461446D01*
X001748287Y000461000D01*
X001744857Y000460852D01*
X001741427Y000461004D01*
X001738024Y000461454D01*
X001734672Y000462199D01*
X001731398Y000463233D01*
X001728227Y000464548D01*
X001725182Y000466135D01*
X001722288Y000467981D01*
X001719564Y000470072D01*
X001717034Y000472392D01*
X001714715Y000474924D01*
X001712626Y000477648D01*
X001710782Y000480544D01*
X001709197Y000483590D01*
X001707884Y000486762D01*
X001706852Y000490037D01*
X001706109Y000493388D01*
X001705661Y000496792D01*
X001705511Y000500222D01*
X001705511Y001471332D01*
X001705612Y001474140D01*
X001705912Y001476934D01*
X001706411Y001479699D01*
X001707105Y001482422D01*
X001707993Y001485088D01*
X001709068Y001487684D01*
X001710325Y001490197D01*
X001711758Y001492613D01*
X001713361Y001494921D01*
X001715123Y001497109D01*
X001717038Y001499166D01*
X001719094Y001501081D01*
X001721281Y001502845D01*
X001723589Y001504448D01*
X001726005Y001505882D01*
X001728517Y001507140D01*
X001731113Y001508216D01*
X001733778Y001509104D01*
X001736501Y001509800D01*
X001739266Y001510300D01*
X001766037Y001514158D01*
X001769393Y001514496D01*
X001772766Y001514545D01*
X001776130Y001514305D01*
X001779461Y001513779D01*
X001782736Y001512969D01*
X001785928Y001511882D01*
X001789016Y001510525D01*
X001791977Y001508909D01*
X001794788Y001507046D01*
X001797430Y001504949D01*
X001799883Y001502633D01*
X001802128Y001500116D01*
X001804149Y001497417D01*
X001805933Y001494554D01*
X001807464Y001491549D01*
X001808733Y001488423D01*
X001809729Y001485201D01*
X001810446Y001481905D01*
X001810879Y001478560D01*
X001811023Y001475191D01*
X001811023Y000504924D01*
X000502820Y003004724D02*
X000502820Y003004724D01*
X000500431Y003004796D01*
X000498051Y003005014D01*
X000495688Y003005375D01*
X000493352Y003005879D01*
X000491050Y003006524D01*
X000488792Y003007308D01*
X000486586Y003008227D01*
X000484439Y003009278D01*
X000482360Y003010458D01*
X000480357Y003011761D01*
X000478436Y003013184D01*
X000476605Y003014721D01*
X000474871Y003016366D01*
X000473240Y003018113D01*
X000471718Y003019956D01*
X000470311Y003021887D01*
X000469023Y003023901D01*
X000467860Y003025989D01*
X000466826Y003028144D01*
X000465924Y003030358D01*
X000455957Y003057129D01*
X000454807Y003060743D01*
X000454009Y003064450D01*
X000453572Y003068217D01*
X000453500Y003072009D01*
X000453792Y003075790D01*
X000454447Y003079525D01*
X000455458Y003083180D01*
X000456817Y003086720D01*
X000458509Y003090114D01*
X000460520Y003093329D01*
X000462832Y003096336D01*
X000465421Y003099106D01*
X000468266Y003101614D01*
X000471338Y003103837D01*
X000474610Y003105754D01*
X000478051Y003107347D01*
X000481630Y003108602D01*
X000485313Y003109507D01*
X000489065Y003110053D01*
X000492853Y003110236D01*
X001199821Y003110236D01*
X001203009Y003110106D01*
X001206177Y003109719D01*
X001209303Y003109077D01*
X001212367Y003108183D01*
X001215348Y003107045D01*
X001218227Y003105668D01*
X001220985Y003104063D01*
X001223604Y003102240D01*
X001226067Y003100211D01*
X001228358Y003097988D01*
X001230461Y003095588D01*
X001232362Y003093025D01*
X001234050Y003090317D01*
X001235513Y003087481D01*
X001236742Y003084535D01*
X001237727Y003081500D01*
X001238464Y003078395D01*
X001238947Y003075241D01*
X001239173Y003072057D01*
X001239140Y003068866D01*
X001237779Y003042095D01*
X001237513Y003039115D01*
X001237023Y003036164D01*
X001236309Y003033259D01*
X001235377Y003030417D01*
X001234232Y003027653D01*
X001232881Y003024984D01*
X001231331Y003022426D01*
X001229590Y003019993D01*
X001227671Y003017699D01*
X001225582Y003015557D01*
X001223337Y003013580D01*
X001220949Y003011779D01*
X001218430Y003010165D01*
X001215796Y003008747D01*
X001213063Y003007532D01*
X001210244Y003006529D01*
X001207358Y003005743D01*
X001204421Y003005178D01*
X001201449Y003004838D01*
X001198459Y003004724D01*
X000502820Y003004724D01*
M02*