<?xml version="1.0" standalone="no"?>
 <!DOCTYPE svg PUBLIC "-//W3C//DTD SVG 1.1//EN" 
 "http://www.w3.org/Graphics/SVG/1.1/DTD/svg11.dtd"> 
<svg xmlns="http://www.w3.org/2000/svg" version="1.1" 
    width="5.64134cm" height="4.16052cm" viewBox="0 0 22210 16380 ">
<title>SVG Picture created as project-F.SilkS.svg date 2018/08/11 21:03:33 </title>
  <desc>Picture generated by PCBNEW </desc>
<g style="fill:#000000; fill-opacity:1;stroke:#000000; stroke-opacity:1;
stroke-linecap:round; stroke-linejoin:round; "
 transform="translate(0 0) scale(1 1)">
</g>
<g style="fill:#008484; fill-opacity:0.0; 
stroke:#008484; stroke-width:-0.000393701; stroke-opacity:1; 
stroke-linecap:round; stroke-linejoin:round;">
</g>
<g style="fill:#008484; fill-opacity:0.0; 
stroke:#008484; stroke-width:118.11; stroke-opacity:1; 
stroke-linecap:round; stroke-linejoin:round;">
<path d="M6775 10887
L6736 10887
L6656 10847
L6616 10807
L6577 10728
L6577 10648
L6596 10588
L6656 10489
L6716 10429
L6815 10370
L6875 10350
L6954 10350
L7034 10390
L7074 10429
L7113 10509
L7113 10549
" />
<path d="M7153 11344
L7213 11006
" />
<path d="M6915 11105
L7332 10688
L7491 10847
L7511 10907
L7511 10946
L7491 11006
L7432 11066
L7372 11086
L7332 11086
L7273 11066
L7113 10907
" />
<path d="M7690 11125
L7730 11125
L7790 11145
L7889 11245
L7909 11304
L7909 11344
L7889 11404
L7849 11443
L7770 11483
L7292 11483
L7551 11742
" />
<path d="M8227 11583
L8267 11622
L8287 11682
L8287 11722
L8267 11782
L8207 11881
L8108 11980
L8008 12040
L7949 12060
L7909 12060
L7849 12040
L7809 12000
L7790 11941
L7790 11901
L7809 11841
L7869 11742
L7969 11642
L8068 11583
L8128 11563
L8167 11563
L8227 11583
" />
<path d="M8505 11861
L8764 12120
L8466 12139
L8525 12199
L8545 12259
L8545 12299
L8525 12358
L8426 12458
L8366 12477
L8326 12477
L8267 12458
L8147 12338
L8128 12279
L8128 12239
" />
<path d="M8883 12318
L8923 12318
L8983 12338
L9082 12438
L9102 12497
L9102 12537
L9082 12597
L9042 12637
L8963 12676
L8486 12676
L8744 12935
" />
</g>
<g style="fill:#008484; fill-opacity:0.0; 
stroke:#008484; stroke-width:98.4252; stroke-opacity:1; 
stroke-linecap:round; stroke-linejoin:round;">
<path d="M15506 3597
L15581 3597
L15618 3616
L15656 3653
L15675 3728
L15675 3859
L15656 3934
L15618 3972
L15581 3991
L15506 3991
L15468 3972
L15431 3934
L15412 3859
L15412 3728
L15431 3653
L15468 3616
L15506 3597
" />
<path d="M15843 3991
L15843 3597
L16068 3991
L16068 3597
" />
<path d="M15375 8097
L15450 8097
L15487 8116
L15525 8153
L15543 8228
L15543 8359
L15525 8434
L15487 8472
L15450 8491
L15375 8491
L15337 8472
L15300 8434
L15281 8359
L15281 8228
L15300 8153
L15337 8116
L15375 8097
" />
<path d="M15843 8284
L15712 8284
" />
<path d="M15712 8491
L15712 8097
L15899 8097
" />
<path d="M16181 8284
L16049 8284
" />
<path d="M16049 8491
L16049 8097
L16237 8097
" />
</g>
<g style="fill:#008484; fill-opacity:0.0; 
stroke:#008484; stroke-width:66.437; stroke-opacity:1; 
stroke-linecap:round; stroke-linejoin:round;">
<path d="M7575 4162
L7663 4437
L7752 4162
" />
<path d="M7929 4293
L7967 4306
L7980 4319
L7992 4345
L7992 4385
L7980 4411
L7967 4424
L7942 4437
L7841 4437
L7841 4162
L7929 4162
L7954 4175
L7967 4188
L7980 4214
L7980 4240
L7967 4267
L7954 4280
L7929 4293
L7841 4293
" />
<path d="M8106 4162
L8106 4385
L8119 4411
L8132 4424
L8157 4437
L8208 4437
L8233 4424
L8246 4411
L8258 4385
L8258 4162
" />
<path d="M8372 4424
L8410 4437
L8473 4437
L8499 4424
L8511 4411
L8524 4385
L8524 4358
L8511 4332
L8499 4319
L8473 4306
L8423 4293
L8397 4280
L8385 4267
L8372 4240
L8372 4214
L8385 4188
L8397 4175
L8423 4162
L8486 4162
L8524 4175
" />
<path d="M8979 4175
L8954 4162
L8916 4162
L8878 4175
L8853 4201
L8840 4227
L8828 4280
L8828 4319
L8840 4372
L8853 4398
L8878 4424
L8916 4437
L8942 4437
L8979 4424
L8992 4411
L8992 4319
L8942 4319
" />
<path d="M9106 4437
L9106 4162
L9258 4437
L9258 4162
" />
<path d="M9384 4437
L9384 4162
L9448 4162
L9486 4175
L9511 4201
L9524 4227
L9536 4280
L9536 4319
L9524 4372
L9511 4398
L9486 4424
L9448 4437
L9384 4437
" />
<path d="M9815 4162
L9903 4437
L9992 4162
" />
<path d="M10232 4411
L10220 4424
L10182 4437
L10156 4437
L10118 4424
L10093 4398
L10080 4372
L10068 4319
L10068 4280
L10080 4227
L10093 4201
L10118 4175
L10156 4162
L10182 4162
L10220 4175
L10232 4188
" />
<path d="M10498 4411
L10485 4424
L10447 4437
L10422 4437
L10384 4424
L10359 4398
L10346 4372
L10334 4319
L10334 4280
L10346 4227
L10359 4201
L10384 4175
L10422 4162
L10447 4162
L10485 4175
L10498 4188
" />
<path d="M10903 4293
L10941 4306
L10954 4319
L10966 4345
L10966 4385
L10954 4411
L10941 4424
L10916 4437
L10814 4437
L10814 4162
L10903 4162
L10928 4175
L10941 4188
L10954 4214
L10954 4240
L10941 4267
L10928 4280
L10903 4293
L10814 4293
" />
<path d="M11067 4358
L11194 4358
" />
<path d="M11042 4437
L11131 4162
L11219 4437
" />
<path d="M11270 4162
L11422 4162
" />
<path d="M11346 4437
L11346 4162
" />
<path d="M11903 4358
L12029 4358
" />
<path d="M11877 4437
L11966 4162
L12055 4437
" />
<path d="M12282 4437
L12130 4437
" />
<path d="M12206 4437
L12206 4162
L12181 4201
L12156 4227
L12130 4240
" />
<path d="M12789 4358
L12915 4358
" />
<path d="M12763 4437
L12852 4162
L12940 4437
" />
<path d="M13080 4162
L13105 4162
L13130 4175
L13143 4188
L13156 4214
L13168 4267
L13168 4332
L13156 4385
L13143 4411
L13130 4424
L13105 4437
L13080 4437
L13054 4424
L13042 4411
L13029 4385
L13016 4332
L13016 4267
L13029 4214
L13042 4188
L13054 4175
L13080 4162
" />
<path d="M13687 4437
L13687 4162
L13750 4162
L13788 4175
L13814 4201
L13826 4227
L13839 4280
L13839 4319
L13826 4372
L13814 4398
L13788 4424
L13750 4437
L13687 4437
" />
<path d="M14092 4437
L13940 4437
" />
<path d="M14016 4437
L14016 4162
L13991 4201
L13965 4227
L13940 4240
" />
<path d="M14256 4162
L14282 4162
L14307 4175
L14320 4188
L14332 4214
L14345 4267
L14345 4332
L14332 4385
L14320 4411
L14307 4424
L14282 4437
L14256 4437
L14231 4424
L14219 4411
L14206 4385
L14193 4332
L14193 4267
L14206 4214
L14219 4188
L14231 4175
L14256 4162
" />
<path d="M14813 4437
L14725 4306
" />
<path d="M14661 4437
L14661 4162
L14763 4162
L14788 4175
L14801 4188
L14813 4214
L14813 4253
L14801 4280
L14788 4293
L14763 4306
L14661 4306
" />
<path d="M14915 4424
L14952 4437
L15016 4437
L15041 4424
L15054 4411
L15066 4385
L15066 4358
L15054 4332
L15041 4319
L15016 4306
L14965 4293
L14940 4280
L14927 4267
L14915 4240
L14915 4214
L14927 4188
L14940 4175
L14965 4162
L15028 4162
L15066 4175
" />
<path d="M15142 4162
L15294 4162
" />
<path d="M15218 4437
L15218 4162
" />
</g>
<g style="fill:#C2C200; fill-opacity:0.0; 
stroke:#C2C200; stroke-width:66.437; stroke-opacity:1; 
stroke-linecap:round; stroke-linejoin:round;">
</g>
<g style="fill:#C2C200; fill-opacity:0.0; 
stroke:#C2C200; stroke-width:59.0551; stroke-opacity:1; 
stroke-linecap:round; stroke-linejoin:round;">
<path d="M6500 12062
L6500 4062
" />
<path d="M15500 13062
L7500 13062
" />
<path d="M16500 4062
L16500 12062
" />
<path d="M7500 3062
L15500 3062
" />
<path d="M7500 3062.99 A1000 1000 0.0 0 0 6500 4062.99 " />
<path d="M6500 12063 A1000 1000 0.0 0 0 7500 13063 " />
<path d="M15500 13063 A1000 1000 0.0 0 0 16500 12063 " />
<path d="M16500 4062.99 A1000 1000 0.0 0 0 15500 3062.99 " />
<path d="M16090 6587
L16109 6531
L16109 6437
L16090 6400
L16071 6381
L16034 6362
L15996 6362
L15959 6381
L15940 6400
L15921 6437
L15902 6512
L15884 6550
L15865 6569
L15827 6587
L15790 6587
L15752 6569
L15734 6550
L15715 6512
L15715 6419
L15734 6362
" />
<path d="M15715 6231
L16109 6137
L15827 6062
L16109 5988
L15715 5894
" />
<path d="M16109 5538
L16109 5763
" />
<path d="M16109 5650
L15715 5650
L15771 5688
L15809 5725
L15827 5763
" />
</g>
<g style="fill:#008484; fill-opacity:0.0; 
stroke:#008484; stroke-width:59.0551; stroke-opacity:1; 
stroke-linecap:round; stroke-linejoin:round;">
<path d="M6931 8636
L6542 7151
" />
<path d="M10891 12666
L12411 13020
" />
<path d="M6924.55 8629.14 A1025.91 1025.91 0.0 0 0 7985.21 9619.09 " />
<path d="M9905.01 11609.6 A1025.91 1025.91 0.0 0 0 10895 12670.3 " />
<path d="M9919.15 11623.7 A1980.21 1980.21 0.0 0 0 7974.61 9608.49 " />
<path d="M15063 8742
L14939 10492
" />
<path d="M9088 4605
L10856 4499
" />
<path d="M10820 4499
L15063 8742
" />
<path d="M6542 7151
L9088 4605
" />
<path d="M12411 13020
L14957 10474
" />
</g>
<g style="fill:#008484; fill-opacity:0.0; 
stroke:#008484; stroke-width:120; stroke-opacity:1; 
stroke-linecap:round; stroke-linejoin:round;">
<path d="M16561 7834
L16561 4291
" />
<path d="M15143 4291
L16561 4291
" />
<path d="M15143 7834
L16561 7834
" />
<path d="M15143 7834
L15143 4291
" />
</g> 
</svg>
