%MOIN*%
%OFA0B0*%
%FSLAX46Y46*%
%IPPOS*%
%LPD*%
%ADD10C,0.070866141732283464*%
%ADD11R,0.070866141732283464X0.070866141732283464*%
%ADD12C,0.0787*%
%ADD13C,0.19685039370078741*%
%ADD14C,0.090000000000000011*%
%ADD15C,0.70000000000000007*%
%ADD16R,0.055000000000000007X0.055000000000000007*%
%ADD17C,0.055000000000000007*%
%ADD18C,0.016*%
%ADD29C,0.070866141732283464*%
%ADD30R,0.070866141732283464X0.070866141732283464*%
%ADD31C,0.0787*%
%ADD32C,0.19685039370078741*%
%ADD33C,0.090000000000000011*%
%ADD34C,0.70000000000000007*%
%ADD35R,0.055000000000000007X0.055000000000000007*%
%ADD36C,0.055000000000000007*%
%ADD37C,0.016*%
%ADD38C,0.070866141732283464*%
%ADD39R,0.070866141732283464X0.070866141732283464*%
%ADD40C,0.0787*%
%ADD41C,0.19685039370078741*%
%ADD42C,0.090000000000000011*%
%ADD43C,0.70000000000000007*%
%ADD44R,0.055000000000000007X0.055000000000000007*%
%ADD45C,0.055000000000000007*%
%ADD46C,0.016*%
%ADD47C,0.070866141732283464*%
%ADD48R,0.070866141732283464X0.070866141732283464*%
%ADD49C,0.0787*%
%ADD50C,0.19685039370078741*%
%ADD51C,0.090000000000000011*%
%ADD52C,0.70000000000000007*%
%ADD53R,0.055000000000000007X0.055000000000000007*%
%ADD54C,0.055000000000000007*%
%ADD55C,0.016*%
%ADD56C,0.070866141732283464*%
%ADD57R,0.070866141732283464X0.070866141732283464*%
%ADD58C,0.0787*%
%ADD59C,0.19685039370078741*%
%ADD60C,0.090000000000000011*%
%ADD61C,0.70000000000000007*%
%ADD62R,0.055000000000000007X0.055000000000000007*%
%ADD63C,0.055000000000000007*%
%ADD64C,0.016*%
%ADD65C,0.070866141732283464*%
%ADD66R,0.070866141732283464X0.070866141732283464*%
%ADD67C,0.0787*%
%ADD68C,0.19685039370078741*%
%ADD69C,0.090000000000000011*%
%ADD70C,0.70000000000000007*%
%ADD71R,0.055000000000000007X0.055000000000000007*%
%ADD72C,0.055000000000000007*%
%ADD73C,0.016*%
%ADD74C,0.070866141732283464*%
%ADD75R,0.070866141732283464X0.070866141732283464*%
%ADD76C,0.0787*%
%ADD77C,0.19685039370078741*%
%ADD78C,0.090000000000000011*%
%ADD79C,0.70000000000000007*%
%ADD80R,0.055000000000000007X0.055000000000000007*%
%ADD81C,0.055000000000000007*%
%ADD82C,0.016*%
%ADD83C,0.070866141732283464*%
%ADD84R,0.070866141732283464X0.070866141732283464*%
%ADD85C,0.0787*%
%ADD86C,0.19685039370078741*%
%ADD87C,0.090000000000000011*%
%ADD88C,0.70000000000000007*%
%ADD89R,0.055000000000000007X0.055000000000000007*%
%ADD90C,0.055000000000000007*%
%ADD91C,0.016*%
%ADD92C,0.070866141732283464*%
%ADD93R,0.070866141732283464X0.070866141732283464*%
%ADD94C,0.0787*%
%ADD95C,0.19685039370078741*%
%ADD96C,0.090000000000000011*%
%ADD97C,0.70000000000000007*%
%ADD98R,0.055000000000000007X0.055000000000000007*%
%ADD99C,0.055000000000000007*%
%ADD100C,0.016*%
G01*
D10*
X-0006300000Y0004050000D02*
X0000549999Y0000925000D03*
D11*
X0000649999Y0000925000D03*
D12*
X0001124999Y0000837480D03*
X0001124999Y0000522519D03*
D13*
X0000599999Y0001099999D03*
D14*
X0001009999Y0000339999D03*
X0000189999Y0000339999D03*
X0001009999Y0000459999D03*
X0000189999Y0000459999D03*
D15*
X0000599999Y0000400000D03*
D16*
X0000099999Y0000625000D03*
D17*
X0000099999Y0000725000D03*
X0000099999Y0000825000D03*
D18*
X0000189999Y0000459999D02*
X0000189999Y0000615000D01*
X0001009999Y0000590000D02*
X0001009999Y0000459999D01*
X0000775000Y0000825000D02*
X0001009999Y0000590000D01*
X0000399999Y0000825000D02*
X0000775000Y0000825000D01*
X0000189999Y0000615000D02*
X0000399999Y0000825000D01*
X0000189999Y0000459999D02*
X0000189999Y0000660000D01*
X0000189999Y0000660000D02*
X0000124999Y0000725000D01*
X0000124999Y0000725000D02*
X0000099999Y0000725000D01*
X0001009999Y0000339999D02*
X0001009999Y0000459999D01*
X0000189999Y0000339999D02*
X0000189999Y0000459999D01*
X0001027480Y0000930000D02*
X0001124999Y0000837480D01*
X0000649999Y0000930000D02*
X0001027480Y0000930000D01*
X0000180000Y0000930000D02*
X0000549999Y0000930000D01*
X0000099999Y0000825000D02*
X0000099999Y0000850000D01*
X0000099999Y0000850000D02*
X0000180000Y0000930000D01*
X0001124999Y0000522519D02*
X0001124999Y0000250000D01*
X0001099999Y0000225000D02*
X0000775000Y0000225000D01*
X0001124999Y0000250000D02*
X0001099999Y0000225000D01*
X0000775000Y0000225000D02*
X0000599999Y0000400000D01*
X0001124999Y0000522519D02*
X0001124999Y0000555000D01*
X0000792519Y0000592519D02*
X0000599999Y0000400000D01*
X0000599999Y0000400000D02*
X0000775000Y0000400000D01*
G04 next file*
G04 Gerber Fmt 4.6, Leading zero omitted, Abs format (unit mm)*
G04 Created by KiCad (PCBNEW (5.1.10)-1) date 2022-03-19 19:01:51*
G01*
G04 APERTURE LIST*
G04 APERTURE END LIST*
D29*
X-0006300000Y0005348425D02*
X0000549999Y0002223425D03*
D30*
X0000649999Y0002223425D03*
D31*
X0001124999Y0002135905D03*
X0001124999Y0001820944D03*
D32*
X0000599999Y0002398425D03*
D33*
X0001009999Y0001638425D03*
X0000189999Y0001638425D03*
X0001009999Y0001758425D03*
X0000189999Y0001758425D03*
D34*
X0000599999Y0001698425D03*
D35*
X0000099999Y0001923425D03*
D36*
X0000099999Y0002023425D03*
X0000099999Y0002123425D03*
D37*
X0000189999Y0001758425D02*
X0000189999Y0001913425D01*
X0001009999Y0001888425D02*
X0001009999Y0001758425D01*
X0000775000Y0002123425D02*
X0001009999Y0001888425D01*
X0000399999Y0002123425D02*
X0000775000Y0002123425D01*
X0000189999Y0001913425D02*
X0000399999Y0002123425D01*
X0000189999Y0001758425D02*
X0000189999Y0001958425D01*
X0000189999Y0001958425D02*
X0000124999Y0002023425D01*
X0000124999Y0002023425D02*
X0000099999Y0002023425D01*
X0001009999Y0001638425D02*
X0001009999Y0001758425D01*
X0000189999Y0001638425D02*
X0000189999Y0001758425D01*
X0001027480Y0002228425D02*
X0001124999Y0002135905D01*
X0000649999Y0002228425D02*
X0001027480Y0002228425D01*
X0000180000Y0002228425D02*
X0000549999Y0002228425D01*
X0000099999Y0002123425D02*
X0000099999Y0002148425D01*
X0000099999Y0002148425D02*
X0000180000Y0002228425D01*
X0001124999Y0001820944D02*
X0001124999Y0001548425D01*
X0001099999Y0001523425D02*
X0000775000Y0001523425D01*
X0001124999Y0001548425D02*
X0001099999Y0001523425D01*
X0000775000Y0001523425D02*
X0000599999Y0001698425D01*
X0001124999Y0001820944D02*
X0001124999Y0001853425D01*
X0000792519Y0001890944D02*
X0000599999Y0001698425D01*
X0000599999Y0001698425D02*
X0000775000Y0001698425D01*
G04 next file*
G04 Gerber Fmt 4.6, Leading zero omitted, Abs format (unit mm)*
G04 Created by KiCad (PCBNEW (5.1.10)-1) date 2022-03-19 19:01:51*
G01*
G04 APERTURE LIST*
G04 APERTURE END LIST*
D38*
X-0006300000Y0006646850D02*
X0000549999Y0003521850D03*
D39*
X0000649999Y0003521850D03*
D40*
X0001124999Y0003434330D03*
X0001124999Y0003119370D03*
D41*
X0000599999Y0003696850D03*
D42*
X0001009999Y0002936850D03*
X0000189999Y0002936850D03*
X0001009999Y0003056850D03*
X0000189999Y0003056850D03*
D43*
X0000599999Y0002996850D03*
D44*
X0000099999Y0003221850D03*
D45*
X0000099999Y0003321850D03*
X0000099999Y0003421850D03*
D46*
X0000189999Y0003056850D02*
X0000189999Y0003211850D01*
X0001009999Y0003186850D02*
X0001009999Y0003056850D01*
X0000775000Y0003421850D02*
X0001009999Y0003186850D01*
X0000399999Y0003421850D02*
X0000775000Y0003421850D01*
X0000189999Y0003211850D02*
X0000399999Y0003421850D01*
X0000189999Y0003056850D02*
X0000189999Y0003256850D01*
X0000189999Y0003256850D02*
X0000124999Y0003321850D01*
X0000124999Y0003321850D02*
X0000099999Y0003321850D01*
X0001009999Y0002936850D02*
X0001009999Y0003056850D01*
X0000189999Y0002936850D02*
X0000189999Y0003056850D01*
X0001027480Y0003526850D02*
X0001124999Y0003434330D01*
X0000649999Y0003526850D02*
X0001027480Y0003526850D01*
X0000180000Y0003526850D02*
X0000549999Y0003526850D01*
X0000099999Y0003421850D02*
X0000099999Y0003446850D01*
X0000099999Y0003446850D02*
X0000180000Y0003526850D01*
X0001124999Y0003119370D02*
X0001124999Y0002846850D01*
X0001099999Y0002821850D02*
X0000775000Y0002821850D01*
X0001124999Y0002846850D02*
X0001099999Y0002821850D01*
X0000775000Y0002821850D02*
X0000599999Y0002996850D01*
X0001124999Y0003119370D02*
X0001124999Y0003151850D01*
X0000792519Y0003189370D02*
X0000599999Y0002996850D01*
X0000599999Y0002996850D02*
X0000775000Y0002996850D01*
G04 next file*
G04 Gerber Fmt 4.6, Leading zero omitted, Abs format (unit mm)*
G04 Created by KiCad (PCBNEW (5.1.10)-1) date 2022-03-19 19:01:51*
G01*
G04 APERTURE LIST*
G04 APERTURE END LIST*
D47*
X-0005001574Y0004050000D02*
X0001848425Y0000925000D03*
D48*
X0001948425Y0000925000D03*
D49*
X0002423425Y0000837480D03*
X0002423425Y0000522519D03*
D50*
X0001898425Y0001099999D03*
D51*
X0002308425Y0000339999D03*
X0001488425Y0000339999D03*
X0002308425Y0000459999D03*
X0001488425Y0000459999D03*
D52*
X0001898425Y0000400000D03*
D53*
X0001398425Y0000625000D03*
D54*
X0001398425Y0000725000D03*
X0001398425Y0000825000D03*
D55*
X0001488425Y0000459999D02*
X0001488425Y0000615000D01*
X0002308425Y0000590000D02*
X0002308425Y0000459999D01*
X0002073425Y0000825000D02*
X0002308425Y0000590000D01*
X0001698425Y0000825000D02*
X0002073425Y0000825000D01*
X0001488425Y0000615000D02*
X0001698425Y0000825000D01*
X0001488425Y0000459999D02*
X0001488425Y0000660000D01*
X0001488425Y0000660000D02*
X0001423425Y0000725000D01*
X0001423425Y0000725000D02*
X0001398425Y0000725000D01*
X0002308425Y0000339999D02*
X0002308425Y0000459999D01*
X0001488425Y0000339999D02*
X0001488425Y0000459999D01*
X0002325905Y0000930000D02*
X0002423425Y0000837480D01*
X0001948425Y0000930000D02*
X0002325905Y0000930000D01*
X0001478425Y0000930000D02*
X0001848425Y0000930000D01*
X0001398425Y0000825000D02*
X0001398425Y0000850000D01*
X0001398425Y0000850000D02*
X0001478425Y0000930000D01*
X0002423425Y0000522519D02*
X0002423425Y0000250000D01*
X0002398425Y0000225000D02*
X0002073425Y0000225000D01*
X0002423425Y0000250000D02*
X0002398425Y0000225000D01*
X0002073425Y0000225000D02*
X0001898425Y0000400000D01*
X0002423425Y0000522519D02*
X0002423425Y0000555000D01*
X0002090944Y0000592519D02*
X0001898425Y0000400000D01*
X0001898425Y0000400000D02*
X0002073425Y0000400000D01*
G04 next file*
G04 Gerber Fmt 4.6, Leading zero omitted, Abs format (unit mm)*
G04 Created by KiCad (PCBNEW (5.1.10)-1) date 2022-03-19 19:01:51*
G01*
G04 APERTURE LIST*
G04 APERTURE END LIST*
D56*
X-0003703149Y0004050000D02*
X0003146850Y0000925000D03*
D57*
X0003246850Y0000925000D03*
D58*
X0003721850Y0000837480D03*
X0003721850Y0000522519D03*
D59*
X0003196850Y0001099999D03*
D60*
X0003606850Y0000339999D03*
X0002786850Y0000339999D03*
X0003606850Y0000459999D03*
X0002786850Y0000459999D03*
D61*
X0003196850Y0000400000D03*
D62*
X0002696850Y0000625000D03*
D63*
X0002696850Y0000725000D03*
X0002696850Y0000825000D03*
D64*
X0002786850Y0000459999D02*
X0002786850Y0000615000D01*
X0003606850Y0000590000D02*
X0003606850Y0000459999D01*
X0003371850Y0000825000D02*
X0003606850Y0000590000D01*
X0002996850Y0000825000D02*
X0003371850Y0000825000D01*
X0002786850Y0000615000D02*
X0002996850Y0000825000D01*
X0002786850Y0000459999D02*
X0002786850Y0000660000D01*
X0002786850Y0000660000D02*
X0002721850Y0000725000D01*
X0002721850Y0000725000D02*
X0002696850Y0000725000D01*
X0003606850Y0000339999D02*
X0003606850Y0000459999D01*
X0002786850Y0000339999D02*
X0002786850Y0000459999D01*
X0003624330Y0000930000D02*
X0003721850Y0000837480D01*
X0003246850Y0000930000D02*
X0003624330Y0000930000D01*
X0002776850Y0000930000D02*
X0003146850Y0000930000D01*
X0002696850Y0000825000D02*
X0002696850Y0000850000D01*
X0002696850Y0000850000D02*
X0002776850Y0000930000D01*
X0003721850Y0000522519D02*
X0003721850Y0000250000D01*
X0003696850Y0000225000D02*
X0003371850Y0000225000D01*
X0003721850Y0000250000D02*
X0003696850Y0000225000D01*
X0003371850Y0000225000D02*
X0003196850Y0000400000D01*
X0003721850Y0000522519D02*
X0003721850Y0000555000D01*
X0003389370Y0000592519D02*
X0003196850Y0000400000D01*
X0003196850Y0000400000D02*
X0003371850Y0000400000D01*
G04 next file*
G04 Gerber Fmt 4.6, Leading zero omitted, Abs format (unit mm)*
G04 Created by KiCad (PCBNEW (5.1.10)-1) date 2022-03-19 19:01:51*
G01*
G04 APERTURE LIST*
G04 APERTURE END LIST*
D65*
X-0005001574Y0005348425D02*
X0001848425Y0002223425D03*
D66*
X0001948425Y0002223425D03*
D67*
X0002423425Y0002135905D03*
X0002423425Y0001820944D03*
D68*
X0001898425Y0002398425D03*
D69*
X0002308425Y0001638425D03*
X0001488425Y0001638425D03*
X0002308425Y0001758425D03*
X0001488425Y0001758425D03*
D70*
X0001898425Y0001698425D03*
D71*
X0001398425Y0001923425D03*
D72*
X0001398425Y0002023425D03*
X0001398425Y0002123425D03*
D73*
X0001488425Y0001758425D02*
X0001488425Y0001913425D01*
X0002308425Y0001888425D02*
X0002308425Y0001758425D01*
X0002073425Y0002123425D02*
X0002308425Y0001888425D01*
X0001698425Y0002123425D02*
X0002073425Y0002123425D01*
X0001488425Y0001913425D02*
X0001698425Y0002123425D01*
X0001488425Y0001758425D02*
X0001488425Y0001958425D01*
X0001488425Y0001958425D02*
X0001423425Y0002023425D01*
X0001423425Y0002023425D02*
X0001398425Y0002023425D01*
X0002308425Y0001638425D02*
X0002308425Y0001758425D01*
X0001488425Y0001638425D02*
X0001488425Y0001758425D01*
X0002325905Y0002228425D02*
X0002423425Y0002135905D01*
X0001948425Y0002228425D02*
X0002325905Y0002228425D01*
X0001478425Y0002228425D02*
X0001848425Y0002228425D01*
X0001398425Y0002123425D02*
X0001398425Y0002148425D01*
X0001398425Y0002148425D02*
X0001478425Y0002228425D01*
X0002423425Y0001820944D02*
X0002423425Y0001548425D01*
X0002398425Y0001523425D02*
X0002073425Y0001523425D01*
X0002423425Y0001548425D02*
X0002398425Y0001523425D01*
X0002073425Y0001523425D02*
X0001898425Y0001698425D01*
X0002423425Y0001820944D02*
X0002423425Y0001853425D01*
X0002090944Y0001890944D02*
X0001898425Y0001698425D01*
X0001898425Y0001698425D02*
X0002073425Y0001698425D01*
G04 next file*
G04 Gerber Fmt 4.6, Leading zero omitted, Abs format (unit mm)*
G04 Created by KiCad (PCBNEW (5.1.10)-1) date 2022-03-19 19:01:51*
G01*
G04 APERTURE LIST*
G04 APERTURE END LIST*
D74*
X-0005001574Y0006646850D02*
X0001848425Y0003521850D03*
D75*
X0001948425Y0003521850D03*
D76*
X0002423425Y0003434330D03*
X0002423425Y0003119370D03*
D77*
X0001898425Y0003696850D03*
D78*
X0002308425Y0002936850D03*
X0001488425Y0002936850D03*
X0002308425Y0003056850D03*
X0001488425Y0003056850D03*
D79*
X0001898425Y0002996850D03*
D80*
X0001398425Y0003221850D03*
D81*
X0001398425Y0003321850D03*
X0001398425Y0003421850D03*
D82*
X0001488425Y0003056850D02*
X0001488425Y0003211850D01*
X0002308425Y0003186850D02*
X0002308425Y0003056850D01*
X0002073425Y0003421850D02*
X0002308425Y0003186850D01*
X0001698425Y0003421850D02*
X0002073425Y0003421850D01*
X0001488425Y0003211850D02*
X0001698425Y0003421850D01*
X0001488425Y0003056850D02*
X0001488425Y0003256850D01*
X0001488425Y0003256850D02*
X0001423425Y0003321850D01*
X0001423425Y0003321850D02*
X0001398425Y0003321850D01*
X0002308425Y0002936850D02*
X0002308425Y0003056850D01*
X0001488425Y0002936850D02*
X0001488425Y0003056850D01*
X0002325905Y0003526850D02*
X0002423425Y0003434330D01*
X0001948425Y0003526850D02*
X0002325905Y0003526850D01*
X0001478425Y0003526850D02*
X0001848425Y0003526850D01*
X0001398425Y0003421850D02*
X0001398425Y0003446850D01*
X0001398425Y0003446850D02*
X0001478425Y0003526850D01*
X0002423425Y0003119370D02*
X0002423425Y0002846850D01*
X0002398425Y0002821850D02*
X0002073425Y0002821850D01*
X0002423425Y0002846850D02*
X0002398425Y0002821850D01*
X0002073425Y0002821850D02*
X0001898425Y0002996850D01*
X0002423425Y0003119370D02*
X0002423425Y0003151850D01*
X0002090944Y0003189370D02*
X0001898425Y0002996850D01*
X0001898425Y0002996850D02*
X0002073425Y0002996850D01*
G04 next file*
G04 Gerber Fmt 4.6, Leading zero omitted, Abs format (unit mm)*
G04 Created by KiCad (PCBNEW (5.1.10)-1) date 2022-03-19 19:01:51*
G01*
G04 APERTURE LIST*
G04 APERTURE END LIST*
D83*
X-0003703149Y0005348425D02*
X0003146850Y0002223425D03*
D84*
X0003246850Y0002223425D03*
D85*
X0003721850Y0002135905D03*
X0003721850Y0001820944D03*
D86*
X0003196850Y0002398425D03*
D87*
X0003606850Y0001638425D03*
X0002786850Y0001638425D03*
X0003606850Y0001758425D03*
X0002786850Y0001758425D03*
D88*
X0003196850Y0001698425D03*
D89*
X0002696850Y0001923425D03*
D90*
X0002696850Y0002023425D03*
X0002696850Y0002123425D03*
D91*
X0002786850Y0001758425D02*
X0002786850Y0001913425D01*
X0003606850Y0001888425D02*
X0003606850Y0001758425D01*
X0003371850Y0002123425D02*
X0003606850Y0001888425D01*
X0002996850Y0002123425D02*
X0003371850Y0002123425D01*
X0002786850Y0001913425D02*
X0002996850Y0002123425D01*
X0002786850Y0001758425D02*
X0002786850Y0001958425D01*
X0002786850Y0001958425D02*
X0002721850Y0002023425D01*
X0002721850Y0002023425D02*
X0002696850Y0002023425D01*
X0003606850Y0001638425D02*
X0003606850Y0001758425D01*
X0002786850Y0001638425D02*
X0002786850Y0001758425D01*
X0003624330Y0002228425D02*
X0003721850Y0002135905D01*
X0003246850Y0002228425D02*
X0003624330Y0002228425D01*
X0002776850Y0002228425D02*
X0003146850Y0002228425D01*
X0002696850Y0002123425D02*
X0002696850Y0002148425D01*
X0002696850Y0002148425D02*
X0002776850Y0002228425D01*
X0003721850Y0001820944D02*
X0003721850Y0001548425D01*
X0003696850Y0001523425D02*
X0003371850Y0001523425D01*
X0003721850Y0001548425D02*
X0003696850Y0001523425D01*
X0003371850Y0001523425D02*
X0003196850Y0001698425D01*
X0003721850Y0001820944D02*
X0003721850Y0001853425D01*
X0003389370Y0001890944D02*
X0003196850Y0001698425D01*
X0003196850Y0001698425D02*
X0003371850Y0001698425D01*
G04 next file*
G04 Gerber Fmt 4.6, Leading zero omitted, Abs format (unit mm)*
G04 Created by KiCad (PCBNEW (5.1.10)-1) date 2022-03-19 19:01:51*
G01*
G04 APERTURE LIST*
G04 APERTURE END LIST*
D92*
X-0003703149Y0006646850D02*
X0003146850Y0003521850D03*
D93*
X0003246850Y0003521850D03*
D94*
X0003721850Y0003434330D03*
X0003721850Y0003119370D03*
D95*
X0003196850Y0003696850D03*
D96*
X0003606850Y0002936850D03*
X0002786850Y0002936850D03*
X0003606850Y0003056850D03*
X0002786850Y0003056850D03*
D97*
X0003196850Y0002996850D03*
D98*
X0002696850Y0003221850D03*
D99*
X0002696850Y0003321850D03*
X0002696850Y0003421850D03*
D100*
X0002786850Y0003056850D02*
X0002786850Y0003211850D01*
X0003606850Y0003186850D02*
X0003606850Y0003056850D01*
X0003371850Y0003421850D02*
X0003606850Y0003186850D01*
X0002996850Y0003421850D02*
X0003371850Y0003421850D01*
X0002786850Y0003211850D02*
X0002996850Y0003421850D01*
X0002786850Y0003056850D02*
X0002786850Y0003256850D01*
X0002786850Y0003256850D02*
X0002721850Y0003321850D01*
X0002721850Y0003321850D02*
X0002696850Y0003321850D01*
X0003606850Y0002936850D02*
X0003606850Y0003056850D01*
X0002786850Y0002936850D02*
X0002786850Y0003056850D01*
X0003624330Y0003526850D02*
X0003721850Y0003434330D01*
X0003246850Y0003526850D02*
X0003624330Y0003526850D01*
X0002776850Y0003526850D02*
X0003146850Y0003526850D01*
X0002696850Y0003421850D02*
X0002696850Y0003446850D01*
X0002696850Y0003446850D02*
X0002776850Y0003526850D01*
X0003721850Y0003119370D02*
X0003721850Y0002846850D01*
X0003696850Y0002821850D02*
X0003371850Y0002821850D01*
X0003721850Y0002846850D02*
X0003696850Y0002821850D01*
X0003371850Y0002821850D02*
X0003196850Y0002996850D01*
X0003721850Y0003119370D02*
X0003721850Y0003151850D01*
X0003389370Y0003189370D02*
X0003196850Y0002996850D01*
X0003196850Y0002996850D02*
X0003371850Y0002996850D01*
M02*