%MOIN*%
%OFA0B0*%
%FSLAX46Y46*%
%IPPOS*%
%LPD*%
%ADD10C,0.070866141732283464*%
%ADD11R,0.070866141732283464X0.070866141732283464*%
%ADD12C,0.0787*%
%ADD13C,0.19685039370078741*%
%ADD14C,0.090000000000000011*%
%ADD15C,0.70000000000000007*%
%ADD16R,0.055000000000000007X0.055000000000000007*%
%ADD17C,0.055000000000000007*%
%ADD28C,0.070866141732283464*%
%ADD29R,0.070866141732283464X0.070866141732283464*%
%ADD30C,0.0787*%
%ADD31C,0.19685039370078741*%
%ADD32C,0.090000000000000011*%
%ADD33C,0.70000000000000007*%
%ADD34R,0.055000000000000007X0.055000000000000007*%
%ADD35C,0.055000000000000007*%
%ADD36C,0.070866141732283464*%
%ADD37R,0.070866141732283464X0.070866141732283464*%
%ADD38C,0.0787*%
%ADD39C,0.19685039370078741*%
%ADD40C,0.090000000000000011*%
%ADD41C,0.70000000000000007*%
%ADD42R,0.055000000000000007X0.055000000000000007*%
%ADD43C,0.055000000000000007*%
%ADD44C,0.070866141732283464*%
%ADD45R,0.070866141732283464X0.070866141732283464*%
%ADD46C,0.0787*%
%ADD47C,0.19685039370078741*%
%ADD48C,0.090000000000000011*%
%ADD49C,0.70000000000000007*%
%ADD50R,0.055000000000000007X0.055000000000000007*%
%ADD51C,0.055000000000000007*%
%ADD52C,0.070866141732283464*%
%ADD53R,0.070866141732283464X0.070866141732283464*%
%ADD54C,0.0787*%
%ADD55C,0.19685039370078741*%
%ADD56C,0.090000000000000011*%
%ADD57C,0.70000000000000007*%
%ADD58R,0.055000000000000007X0.055000000000000007*%
%ADD59C,0.055000000000000007*%
%ADD60C,0.070866141732283464*%
%ADD61R,0.070866141732283464X0.070866141732283464*%
%ADD62C,0.0787*%
%ADD63C,0.19685039370078741*%
%ADD64C,0.090000000000000011*%
%ADD65C,0.70000000000000007*%
%ADD66R,0.055000000000000007X0.055000000000000007*%
%ADD67C,0.055000000000000007*%
%ADD68C,0.070866141732283464*%
%ADD69R,0.070866141732283464X0.070866141732283464*%
%ADD70C,0.0787*%
%ADD71C,0.19685039370078741*%
%ADD72C,0.090000000000000011*%
%ADD73C,0.70000000000000007*%
%ADD74R,0.055000000000000007X0.055000000000000007*%
%ADD75C,0.055000000000000007*%
%ADD76C,0.070866141732283464*%
%ADD77R,0.070866141732283464X0.070866141732283464*%
%ADD78C,0.0787*%
%ADD79C,0.19685039370078741*%
%ADD80C,0.090000000000000011*%
%ADD81C,0.70000000000000007*%
%ADD82R,0.055000000000000007X0.055000000000000007*%
%ADD83C,0.055000000000000007*%
%ADD84C,0.070866141732283464*%
%ADD85R,0.070866141732283464X0.070866141732283464*%
%ADD86C,0.0787*%
%ADD87C,0.19685039370078741*%
%ADD88C,0.090000000000000011*%
%ADD89C,0.70000000000000007*%
%ADD90R,0.055000000000000007X0.055000000000000007*%
%ADD91C,0.055000000000000007*%
G01*
D10*
X-0006300000Y0004050000D02*
X0000549999Y0000925000D03*
D11*
X0000649999Y0000925000D03*
D12*
X0001124999Y0000837480D03*
X0001124999Y0000522519D03*
D13*
X0000599999Y0001099999D03*
D14*
X0001009999Y0000339999D03*
X0000189999Y0000339999D03*
X0001009999Y0000459999D03*
X0000189999Y0000459999D03*
D15*
X0000599999Y0000400000D03*
D16*
X0000099999Y0000625000D03*
D17*
X0000099999Y0000725000D03*
X0000099999Y0000825000D03*
G04 next file*
G04 Gerber Fmt 4.6, Leading zero omitted, Abs format (unit mm)*
G04 Created by KiCad (PCBNEW (5.1.10)-1) date 2022-03-19 19:01:51*
G01*
G04 APERTURE LIST*
G04 APERTURE END LIST*
D28*
X-0006300000Y0005348425D02*
X0000549999Y0002223425D03*
D29*
X0000649999Y0002223425D03*
D30*
X0001124999Y0002135905D03*
X0001124999Y0001820944D03*
D31*
X0000599999Y0002398425D03*
D32*
X0001009999Y0001638425D03*
X0000189999Y0001638425D03*
X0001009999Y0001758425D03*
X0000189999Y0001758425D03*
D33*
X0000599999Y0001698425D03*
D34*
X0000099999Y0001923425D03*
D35*
X0000099999Y0002023425D03*
X0000099999Y0002123425D03*
G04 next file*
G04 Gerber Fmt 4.6, Leading zero omitted, Abs format (unit mm)*
G04 Created by KiCad (PCBNEW (5.1.10)-1) date 2022-03-19 19:01:51*
G01*
G04 APERTURE LIST*
G04 APERTURE END LIST*
D36*
X-0006300000Y0006646850D02*
X0000549999Y0003521850D03*
D37*
X0000649999Y0003521850D03*
D38*
X0001124999Y0003434330D03*
X0001124999Y0003119370D03*
D39*
X0000599999Y0003696850D03*
D40*
X0001009999Y0002936850D03*
X0000189999Y0002936850D03*
X0001009999Y0003056850D03*
X0000189999Y0003056850D03*
D41*
X0000599999Y0002996850D03*
D42*
X0000099999Y0003221850D03*
D43*
X0000099999Y0003321850D03*
X0000099999Y0003421850D03*
G04 next file*
G04 Gerber Fmt 4.6, Leading zero omitted, Abs format (unit mm)*
G04 Created by KiCad (PCBNEW (5.1.10)-1) date 2022-03-19 19:01:51*
G01*
G04 APERTURE LIST*
G04 APERTURE END LIST*
D44*
X-0005001574Y0004050000D02*
X0001848425Y0000925000D03*
D45*
X0001948425Y0000925000D03*
D46*
X0002423425Y0000837480D03*
X0002423425Y0000522519D03*
D47*
X0001898425Y0001099999D03*
D48*
X0002308425Y0000339999D03*
X0001488425Y0000339999D03*
X0002308425Y0000459999D03*
X0001488425Y0000459999D03*
D49*
X0001898425Y0000400000D03*
D50*
X0001398425Y0000625000D03*
D51*
X0001398425Y0000725000D03*
X0001398425Y0000825000D03*
G04 next file*
G04 Gerber Fmt 4.6, Leading zero omitted, Abs format (unit mm)*
G04 Created by KiCad (PCBNEW (5.1.10)-1) date 2022-03-19 19:01:51*
G01*
G04 APERTURE LIST*
G04 APERTURE END LIST*
D52*
X-0003703149Y0004050000D02*
X0003146850Y0000925000D03*
D53*
X0003246850Y0000925000D03*
D54*
X0003721850Y0000837480D03*
X0003721850Y0000522519D03*
D55*
X0003196850Y0001099999D03*
D56*
X0003606850Y0000339999D03*
X0002786850Y0000339999D03*
X0003606850Y0000459999D03*
X0002786850Y0000459999D03*
D57*
X0003196850Y0000400000D03*
D58*
X0002696850Y0000625000D03*
D59*
X0002696850Y0000725000D03*
X0002696850Y0000825000D03*
G04 next file*
G04 Gerber Fmt 4.6, Leading zero omitted, Abs format (unit mm)*
G04 Created by KiCad (PCBNEW (5.1.10)-1) date 2022-03-19 19:01:51*
G01*
G04 APERTURE LIST*
G04 APERTURE END LIST*
D60*
X-0005001574Y0005348425D02*
X0001848425Y0002223425D03*
D61*
X0001948425Y0002223425D03*
D62*
X0002423425Y0002135905D03*
X0002423425Y0001820944D03*
D63*
X0001898425Y0002398425D03*
D64*
X0002308425Y0001638425D03*
X0001488425Y0001638425D03*
X0002308425Y0001758425D03*
X0001488425Y0001758425D03*
D65*
X0001898425Y0001698425D03*
D66*
X0001398425Y0001923425D03*
D67*
X0001398425Y0002023425D03*
X0001398425Y0002123425D03*
G04 next file*
G04 Gerber Fmt 4.6, Leading zero omitted, Abs format (unit mm)*
G04 Created by KiCad (PCBNEW (5.1.10)-1) date 2022-03-19 19:01:51*
G01*
G04 APERTURE LIST*
G04 APERTURE END LIST*
D68*
X-0005001574Y0006646850D02*
X0001848425Y0003521850D03*
D69*
X0001948425Y0003521850D03*
D70*
X0002423425Y0003434330D03*
X0002423425Y0003119370D03*
D71*
X0001898425Y0003696850D03*
D72*
X0002308425Y0002936850D03*
X0001488425Y0002936850D03*
X0002308425Y0003056850D03*
X0001488425Y0003056850D03*
D73*
X0001898425Y0002996850D03*
D74*
X0001398425Y0003221850D03*
D75*
X0001398425Y0003321850D03*
X0001398425Y0003421850D03*
G04 next file*
G04 Gerber Fmt 4.6, Leading zero omitted, Abs format (unit mm)*
G04 Created by KiCad (PCBNEW (5.1.10)-1) date 2022-03-19 19:01:51*
G01*
G04 APERTURE LIST*
G04 APERTURE END LIST*
D76*
X-0003703149Y0005348425D02*
X0003146850Y0002223425D03*
D77*
X0003246850Y0002223425D03*
D78*
X0003721850Y0002135905D03*
X0003721850Y0001820944D03*
D79*
X0003196850Y0002398425D03*
D80*
X0003606850Y0001638425D03*
X0002786850Y0001638425D03*
X0003606850Y0001758425D03*
X0002786850Y0001758425D03*
D81*
X0003196850Y0001698425D03*
D82*
X0002696850Y0001923425D03*
D83*
X0002696850Y0002023425D03*
X0002696850Y0002123425D03*
G04 next file*
G04 Gerber Fmt 4.6, Leading zero omitted, Abs format (unit mm)*
G04 Created by KiCad (PCBNEW (5.1.10)-1) date 2022-03-19 19:01:51*
G01*
G04 APERTURE LIST*
G04 APERTURE END LIST*
D84*
X-0003703149Y0006646850D02*
X0003146850Y0003521850D03*
D85*
X0003246850Y0003521850D03*
D86*
X0003721850Y0003434330D03*
X0003721850Y0003119370D03*
D87*
X0003196850Y0003696850D03*
D88*
X0003606850Y0002936850D03*
X0002786850Y0002936850D03*
X0003606850Y0003056850D03*
X0002786850Y0003056850D03*
D89*
X0003196850Y0002996850D03*
D90*
X0002696850Y0003221850D03*
D91*
X0002696850Y0003321850D03*
X0002696850Y0003421850D03*
M02*