<?xml version="1.0" standalone="no"?>
 <!DOCTYPE svg PUBLIC "-//W3C//DTD SVG 1.1//EN" 
 "http://www.w3.org/Graphics/SVG/1.1/DTD/svg11.dtd"> 
<svg xmlns="http://www.w3.org/2000/svg" version="1.1" 
    width="2.1717cm" height="2.56286cm" viewBox="0 0 8550 10090 ">
<title>SVG Picture created as project-brd.svg date 2019/03/14 15:55:07 </title>
  <desc>Picture generated by PCBNEW </desc>
<g style="fill:#000000; fill-opacity:1;stroke:#000000; stroke-opacity:1;
stroke-linecap:round; stroke-linejoin:round; "
 transform="translate(0 0) scale(1 1)">
</g>
<g style="fill:#000000; fill-opacity:0.0; 
stroke:#000000; stroke-width:-0.000393701; stroke-opacity:1; 
stroke-linecap:round; stroke-linejoin:round;">
</g>
<g style="fill:#840000; fill-opacity:0.0; 
stroke:#840000; stroke-width:-0.000393701; stroke-opacity:1; 
stroke-linecap:round; stroke-linejoin:round;">
</g>
<g style="fill:#840000; fill-opacity:0.0; 
stroke:#840000; stroke-width:0; stroke-opacity:1; 
stroke-linecap:round; stroke-linejoin:round;">
</g>
<g style="fill:#840000; fill-opacity:1.0; 
stroke:#840000; stroke-width:0; stroke-opacity:1; 
stroke-linecap:round; stroke-linejoin:round;">
<polyline style="fill-rule:evenodd;"
points="2895,7171
2659,7171
2659,6580
2895,6580
2895,7171
" /> 
<polyline style="fill-rule:evenodd;"
points="3395,7171
3159,7171
3159,6580
3395,6580
3395,7171
" /> 
<polyline style="fill-rule:evenodd;"
points="3895,7171
3659,7171
3659,6580
3895,6580
3895,7171
" /> 
<polyline style="fill-rule:evenodd;"
points="4395,7171
4159,7171
4159,6580
4395,6580
4395,7171
" /> 
<polyline style="fill-rule:evenodd;"
points="4895,7171
4659,7171
4659,6580
4895,6580
4895,7171
" /> 
<polyline style="fill-rule:evenodd;"
points="5395,7171
5159,7171
5159,6580
5395,6580
5395,7171
" /> 
<polyline style="fill-rule:evenodd;"
points="5895,7171
5659,7171
5659,6580
5895,6580
5895,7171
" /> 
<polyline style="fill-rule:evenodd;"
points="5895,5045
5659,5045
5659,4454
5895,4454
5895,5045
" /> 
<polyline style="fill-rule:evenodd;"
points="5395,5045
5159,5045
5159,4454
5395,4454
5395,5045
" /> 
<polyline style="fill-rule:evenodd;"
points="4895,5045
4659,5045
4659,4454
4895,4454
4895,5045
" /> 
<polyline style="fill-rule:evenodd;"
points="4395,5045
4159,5045
4159,4454
4395,4454
4395,5045
" /> 
<polyline style="fill-rule:evenodd;"
points="3895,5045
3659,5045
3659,4454
3895,4454
3895,5045
" /> 
<polyline style="fill-rule:evenodd;"
points="3395,5045
3159,5045
3159,4454
3395,4454
3395,5045
" /> 
<polyline style="fill-rule:evenodd;"
points="2895,5045
2659,5045
2659,4454
2895,4454
2895,5045
" /> 
<polyline style="fill-rule:evenodd;"
points="2092,6600
1462,6600
1462,6206
2092,6206
2092,6600
" /> 
<polyline style="fill-rule:evenodd;"
points="2092,5419
1462,5419
1462,5025
2092,5025
2092,5419
" /> 
<circle cx="726.438" cy="5801.18" r="492.126" /> 
</g>
<g style="fill:#840000; fill-opacity:1.0; 
stroke:#840000; stroke-width:39.3701; stroke-opacity:1; 
stroke-linecap:round; stroke-linejoin:round;">
</g>
<g style="fill:#840000; fill-opacity:1.0; 
stroke:#840000; stroke-width:0; stroke-opacity:1; 
stroke-linecap:round; stroke-linejoin:round;">
<circle cx="998.092" cy="4446.85" r="492.126" /> 
</g>
<g style="fill:#840000; fill-opacity:1.0; 
stroke:#840000; stroke-width:39.3701; stroke-opacity:1; 
stroke-linecap:round; stroke-linejoin:round;">
</g>
<g style="fill:#840000; fill-opacity:1.0; 
stroke:#840000; stroke-width:0; stroke-opacity:1; 
stroke-linecap:round; stroke-linejoin:round;">
<circle cx="1765.81" cy="3297.24" r="492.126" /> 
</g>
<g style="fill:#840000; fill-opacity:1.0; 
stroke:#840000; stroke-width:39.3701; stroke-opacity:1; 
stroke-linecap:round; stroke-linejoin:round;">
</g>
<g style="fill:#840000; fill-opacity:1.0; 
stroke:#840000; stroke-width:0; stroke-opacity:1; 
stroke-linecap:round; stroke-linejoin:round;">
<circle cx="2915.41" cy="2529.53" r="492.126" /> 
</g>
<g style="fill:#840000; fill-opacity:1.0; 
stroke:#840000; stroke-width:39.3701; stroke-opacity:1; 
stroke-linecap:round; stroke-linejoin:round;">
</g>
<g style="fill:#840000; fill-opacity:1.0; 
stroke:#840000; stroke-width:0; stroke-opacity:1; 
stroke-linecap:round; stroke-linejoin:round;">
<circle cx="4269.75" cy="2257.87" r="492.126" /> 
</g>
<g style="fill:#840000; fill-opacity:1.0; 
stroke:#840000; stroke-width:39.3701; stroke-opacity:1; 
stroke-linecap:round; stroke-linejoin:round;">
</g>
<g style="fill:#840000; fill-opacity:1.0; 
stroke:#840000; stroke-width:0; stroke-opacity:1; 
stroke-linecap:round; stroke-linejoin:round;">
<circle cx="5624.08" cy="2529.53" r="492.126" /> 
</g>
<g style="fill:#840000; fill-opacity:1.0; 
stroke:#840000; stroke-width:39.3701; stroke-opacity:1; 
stroke-linecap:round; stroke-linejoin:round;">
</g>
<g style="fill:#840000; fill-opacity:1.0; 
stroke:#840000; stroke-width:0; stroke-opacity:1; 
stroke-linecap:round; stroke-linejoin:round;">
<circle cx="6773.68" cy="3297.24" r="492.126" /> 
</g>
<g style="fill:#840000; fill-opacity:1.0; 
stroke:#840000; stroke-width:39.3701; stroke-opacity:1; 
stroke-linecap:round; stroke-linejoin:round;">
</g>
<g style="fill:#840000; fill-opacity:1.0; 
stroke:#840000; stroke-width:0; stroke-opacity:1; 
stroke-linecap:round; stroke-linejoin:round;">
<circle cx="7541.4" cy="4446.85" r="492.126" /> 
</g>
<g style="fill:#840000; fill-opacity:1.0; 
stroke:#840000; stroke-width:39.3701; stroke-opacity:1; 
stroke-linecap:round; stroke-linejoin:round;">
</g>
<g style="fill:#840000; fill-opacity:1.0; 
stroke:#840000; stroke-width:0; stroke-opacity:1; 
stroke-linecap:round; stroke-linejoin:round;">
<circle cx="7541.4" cy="7155.51" r="492.126" /> 
</g>
<g style="fill:#840000; fill-opacity:1.0; 
stroke:#840000; stroke-width:39.3701; stroke-opacity:1; 
stroke-linecap:round; stroke-linejoin:round;">
</g>
<g style="fill:#840000; fill-opacity:1.0; 
stroke:#840000; stroke-width:0; stroke-opacity:1; 
stroke-linecap:round; stroke-linejoin:round;">
<circle cx="7813.05" cy="5801.18" r="492.126" /> 
</g>
<g style="fill:#840000; fill-opacity:1.0; 
stroke:#840000; stroke-width:39.3701; stroke-opacity:1; 
stroke-linecap:round; stroke-linejoin:round;">
</g>
<g style="fill:#840000; fill-opacity:1.0; 
stroke:#840000; stroke-width:0; stroke-opacity:1; 
stroke-linecap:round; stroke-linejoin:round;">
<circle cx="6773.68" cy="8305.12" r="492.126" /> 
</g>
<g style="fill:#840000; fill-opacity:1.0; 
stroke:#840000; stroke-width:39.3701; stroke-opacity:1; 
stroke-linecap:round; stroke-linejoin:round;">
</g>
<g style="fill:#840000; fill-opacity:1.0; 
stroke:#840000; stroke-width:0; stroke-opacity:1; 
stroke-linecap:round; stroke-linejoin:round;">
<circle cx="5624.08" cy="9072.83" r="492.126" /> 
</g>
<g style="fill:#840000; fill-opacity:1.0; 
stroke:#840000; stroke-width:39.3701; stroke-opacity:1; 
stroke-linecap:round; stroke-linejoin:round;">
</g>
<g style="fill:#840000; fill-opacity:1.0; 
stroke:#840000; stroke-width:0; stroke-opacity:1; 
stroke-linecap:round; stroke-linejoin:round;">
<circle cx="4269.75" cy="9344.49" r="492.126" /> 
</g>
<g style="fill:#840000; fill-opacity:1.0; 
stroke:#840000; stroke-width:39.3701; stroke-opacity:1; 
stroke-linecap:round; stroke-linejoin:round;">
</g>
<g style="fill:#840000; fill-opacity:1.0; 
stroke:#840000; stroke-width:0; stroke-opacity:1; 
stroke-linecap:round; stroke-linejoin:round;">
<circle cx="2915.41" cy="9072.83" r="492.126" /> 
</g>
<g style="fill:#840000; fill-opacity:1.0; 
stroke:#840000; stroke-width:39.3701; stroke-opacity:1; 
stroke-linecap:round; stroke-linejoin:round;">
</g>
<g style="fill:#840000; fill-opacity:1.0; 
stroke:#840000; stroke-width:0; stroke-opacity:1; 
stroke-linecap:round; stroke-linejoin:round;">
<circle cx="1765.81" cy="8305.12" r="492.126" /> 
</g>
<g style="fill:#840000; fill-opacity:1.0; 
stroke:#840000; stroke-width:39.3701; stroke-opacity:1; 
stroke-linecap:round; stroke-linejoin:round;">
</g>
<g style="fill:#840000; fill-opacity:1.0; 
stroke:#840000; stroke-width:0; stroke-opacity:1; 
stroke-linecap:round; stroke-linejoin:round;">
<circle cx="998.092" cy="7155.51" r="492.126" /> 
</g>
<g style="fill:#840000; fill-opacity:1.0; 
stroke:#840000; stroke-width:39.3701; stroke-opacity:1; 
stroke-linecap:round; stroke-linejoin:round;">
</g>
<g style="fill:#840000; fill-opacity:1.0; 
stroke:#840000; stroke-width:240; stroke-opacity:1; 
stroke-linecap:round; stroke-linejoin:round;">
</g>
<g style="fill:#840000; fill-opacity:0.0; 
stroke:#840000; stroke-width:240; stroke-opacity:1; 
stroke-linecap:round; stroke-linejoin:round;">
<path d="M2777 4750
L2777 5212
" />
<path d="M3077 5512
L7524 5512
" />
<path d="M2777 5212
L3077 5512
" />
<path d="M7524 5512
L7813 5801
" />
<path d="M998 4446
L1002 4446
" />
<path d="M1002 4446
L1777 5222
" />
<path d="M2777 4750
L2250 4750
" />
<path d="M2250 4750
L1777 5222
" />
<path d="M2777 6875
L2777 6412
" />
<path d="M6498 6112
L7541 7155
" />
<path d="M3077 6112
L6498 6112
" />
<path d="M2777 6412
L3077 6112
" />
<path d="M1777 6403
L2668 6403
" />
<path d="M2777 6512
L2777 6875
" />
<path d="M2668 6403
L2777 6512
" />
<path d="M726 5801
L765 5801
" />
<path d="M765 5801
L1368 6403
" />
<path d="M1368 6403
L1777 6403
" />
<path d="M2915 9072
L3017 9072
" />
<path d="M3017 9072
L4277 7812
" />
<path d="M4277 7812
L4277 6875
" />
<path d="M4269 9344
L4269 8620
" />
<path d="M4777 8112
L4777 6875
" />
<path d="M4269 8620
L4777 8112
" />
<path d="M5624 9072
L5624 8559
" />
<path d="M5277 8212
L5277 6875
" />
<path d="M5624 8559
L5277 8212
" />
<path d="M4777 4750
L4777 3375
" />
<path d="M4777 3375
L5624 2529
" />
<path d="M4277 4750
L4277 2265
" />
<path d="M4277 2265
L4269 2257
" />
<path d="M3777 4750
L3777 3391
" />
<path d="M3777 3391
L2915 2529
" />
<path d="M3277 4750
L3277 4312
" />
<path d="M2261 3297
L1765 3297
" />
<path d="M3277 4312
L2261 3297
" />
<path d="M998 7155
L1820 7155
" />
<path d="M3277 7312
L3277 6875
" />
<path d="M3077 7512
L3277 7312
" />
<path d="M2177 7512
L3077 7512
" />
<path d="M1820 7155
L2177 7512
" />
<path d="M1765 8305
L2185 8305
" />
<path d="M2185 8305
L2477 8012
" />
<path d="M2477 8012
L3377 8012
" />
<path d="M3377 8012
L3777 7612
" />
<path d="M3777 7612
L3777 6875
" />
<path d="M5777 4750
L5777 4412
" />
<path d="M5977 4212
L7307 4212
" />
<path d="M5777 4412
L5977 4212
" />
<path d="M7307 4212
L7541 4446
" />
<path d="M5277 4750
L5277 4212
" />
<path d="M6193 3297
L6773 3297
" />
<path d="M5277 4212
L6193 3297
" />
<path d="M6773 8305
L6469 8305
" />
<path d="M6469 8305
L5777 7612
" />
<path d="M5777 7612
L5777 6875
" />
</g>
<g style="fill:#FFFFFF; fill-opacity:0.0; 
stroke:#FFFFFF; stroke-width:240; stroke-opacity:1; 
stroke-linecap:round; stroke-linejoin:round;">
</g>
<g style="fill:#000000; fill-opacity:0.0; 
stroke:#000000; stroke-width:240; stroke-opacity:1; 
stroke-linecap:round; stroke-linejoin:round;">
</g>
<g style="fill:#840000; fill-opacity:0.0; 
stroke:#840000; stroke-width:240; stroke-opacity:1; 
stroke-linecap:round; stroke-linejoin:round;">
</g>
<g style="fill:#840000; fill-opacity:0.0; 
stroke:#840000; stroke-width:0; stroke-opacity:1; 
stroke-linecap:round; stroke-linejoin:round;">
</g>
<g style="fill:#840000; fill-opacity:1.0; 
stroke:#840000; stroke-width:0; stroke-opacity:1; 
stroke-linecap:round; stroke-linejoin:round;">
<polyline style="fill-rule:evenodd;"
points="2895,7171
2659,7171
2659,6580
2895,6580
2895,7171
" /> 
<polyline style="fill-rule:evenodd;"
points="3395,7171
3159,7171
3159,6580
3395,6580
3395,7171
" /> 
<polyline style="fill-rule:evenodd;"
points="3895,7171
3659,7171
3659,6580
3895,6580
3895,7171
" /> 
<polyline style="fill-rule:evenodd;"
points="4395,7171
4159,7171
4159,6580
4395,6580
4395,7171
" /> 
<polyline style="fill-rule:evenodd;"
points="4895,7171
4659,7171
4659,6580
4895,6580
4895,7171
" /> 
<polyline style="fill-rule:evenodd;"
points="5395,7171
5159,7171
5159,6580
5395,6580
5395,7171
" /> 
<polyline style="fill-rule:evenodd;"
points="5895,7171
5659,7171
5659,6580
5895,6580
5895,7171
" /> 
<polyline style="fill-rule:evenodd;"
points="5895,5045
5659,5045
5659,4454
5895,4454
5895,5045
" /> 
<polyline style="fill-rule:evenodd;"
points="5395,5045
5159,5045
5159,4454
5395,4454
5395,5045
" /> 
<polyline style="fill-rule:evenodd;"
points="4895,5045
4659,5045
4659,4454
4895,4454
4895,5045
" /> 
<polyline style="fill-rule:evenodd;"
points="4395,5045
4159,5045
4159,4454
4395,4454
4395,5045
" /> 
<polyline style="fill-rule:evenodd;"
points="3895,5045
3659,5045
3659,4454
3895,4454
3895,5045
" /> 
<polyline style="fill-rule:evenodd;"
points="3395,5045
3159,5045
3159,4454
3395,4454
3395,5045
" /> 
<polyline style="fill-rule:evenodd;"
points="2895,5045
2659,5045
2659,4454
2895,4454
2895,5045
" /> 
<polyline style="fill-rule:evenodd;"
points="2092,6600
1462,6600
1462,6206
2092,6206
2092,6600
" /> 
<polyline style="fill-rule:evenodd;"
points="2092,5419
1462,5419
1462,5025
2092,5025
2092,5419
" /> 
<circle cx="726.438" cy="5801.18" r="492.126" /> 
</g>
<g style="fill:#840000; fill-opacity:1.0; 
stroke:#840000; stroke-width:39.3701; stroke-opacity:1; 
stroke-linecap:round; stroke-linejoin:round;">
</g>
<g style="fill:#840000; fill-opacity:1.0; 
stroke:#840000; stroke-width:0; stroke-opacity:1; 
stroke-linecap:round; stroke-linejoin:round;">
<circle cx="998.092" cy="4446.85" r="492.126" /> 
</g>
<g style="fill:#840000; fill-opacity:1.0; 
stroke:#840000; stroke-width:39.3701; stroke-opacity:1; 
stroke-linecap:round; stroke-linejoin:round;">
</g>
<g style="fill:#840000; fill-opacity:1.0; 
stroke:#840000; stroke-width:0; stroke-opacity:1; 
stroke-linecap:round; stroke-linejoin:round;">
<circle cx="1765.81" cy="3297.24" r="492.126" /> 
</g>
<g style="fill:#840000; fill-opacity:1.0; 
stroke:#840000; stroke-width:39.3701; stroke-opacity:1; 
stroke-linecap:round; stroke-linejoin:round;">
</g>
<g style="fill:#840000; fill-opacity:1.0; 
stroke:#840000; stroke-width:0; stroke-opacity:1; 
stroke-linecap:round; stroke-linejoin:round;">
<circle cx="2915.41" cy="2529.53" r="492.126" /> 
</g>
<g style="fill:#840000; fill-opacity:1.0; 
stroke:#840000; stroke-width:39.3701; stroke-opacity:1; 
stroke-linecap:round; stroke-linejoin:round;">
</g>
<g style="fill:#840000; fill-opacity:1.0; 
stroke:#840000; stroke-width:0; stroke-opacity:1; 
stroke-linecap:round; stroke-linejoin:round;">
<circle cx="4269.75" cy="2257.87" r="492.126" /> 
</g>
<g style="fill:#840000; fill-opacity:1.0; 
stroke:#840000; stroke-width:39.3701; stroke-opacity:1; 
stroke-linecap:round; stroke-linejoin:round;">
</g>
<g style="fill:#840000; fill-opacity:1.0; 
stroke:#840000; stroke-width:0; stroke-opacity:1; 
stroke-linecap:round; stroke-linejoin:round;">
<circle cx="5624.08" cy="2529.53" r="492.126" /> 
</g>
<g style="fill:#840000; fill-opacity:1.0; 
stroke:#840000; stroke-width:39.3701; stroke-opacity:1; 
stroke-linecap:round; stroke-linejoin:round;">
</g>
<g style="fill:#840000; fill-opacity:1.0; 
stroke:#840000; stroke-width:0; stroke-opacity:1; 
stroke-linecap:round; stroke-linejoin:round;">
<circle cx="6773.68" cy="3297.24" r="492.126" /> 
</g>
<g style="fill:#840000; fill-opacity:1.0; 
stroke:#840000; stroke-width:39.3701; stroke-opacity:1; 
stroke-linecap:round; stroke-linejoin:round;">
</g>
<g style="fill:#840000; fill-opacity:1.0; 
stroke:#840000; stroke-width:0; stroke-opacity:1; 
stroke-linecap:round; stroke-linejoin:round;">
<circle cx="7541.4" cy="4446.85" r="492.126" /> 
</g>
<g style="fill:#840000; fill-opacity:1.0; 
stroke:#840000; stroke-width:39.3701; stroke-opacity:1; 
stroke-linecap:round; stroke-linejoin:round;">
</g>
<g style="fill:#840000; fill-opacity:1.0; 
stroke:#840000; stroke-width:0; stroke-opacity:1; 
stroke-linecap:round; stroke-linejoin:round;">
<circle cx="7541.4" cy="7155.51" r="492.126" /> 
</g>
<g style="fill:#840000; fill-opacity:1.0; 
stroke:#840000; stroke-width:39.3701; stroke-opacity:1; 
stroke-linecap:round; stroke-linejoin:round;">
</g>
<g style="fill:#840000; fill-opacity:1.0; 
stroke:#840000; stroke-width:0; stroke-opacity:1; 
stroke-linecap:round; stroke-linejoin:round;">
<circle cx="7813.05" cy="5801.18" r="492.126" /> 
</g>
<g style="fill:#840000; fill-opacity:1.0; 
stroke:#840000; stroke-width:39.3701; stroke-opacity:1; 
stroke-linecap:round; stroke-linejoin:round;">
</g>
<g style="fill:#840000; fill-opacity:1.0; 
stroke:#840000; stroke-width:0; stroke-opacity:1; 
stroke-linecap:round; stroke-linejoin:round;">
<circle cx="6773.68" cy="8305.12" r="492.126" /> 
</g>
<g style="fill:#840000; fill-opacity:1.0; 
stroke:#840000; stroke-width:39.3701; stroke-opacity:1; 
stroke-linecap:round; stroke-linejoin:round;">
</g>
<g style="fill:#840000; fill-opacity:1.0; 
stroke:#840000; stroke-width:0; stroke-opacity:1; 
stroke-linecap:round; stroke-linejoin:round;">
<circle cx="5624.08" cy="9072.83" r="492.126" /> 
</g>
<g style="fill:#840000; fill-opacity:1.0; 
stroke:#840000; stroke-width:39.3701; stroke-opacity:1; 
stroke-linecap:round; stroke-linejoin:round;">
</g>
<g style="fill:#840000; fill-opacity:1.0; 
stroke:#840000; stroke-width:0; stroke-opacity:1; 
stroke-linecap:round; stroke-linejoin:round;">
<circle cx="4269.75" cy="9344.49" r="492.126" /> 
</g>
<g style="fill:#840000; fill-opacity:1.0; 
stroke:#840000; stroke-width:39.3701; stroke-opacity:1; 
stroke-linecap:round; stroke-linejoin:round;">
</g>
<g style="fill:#840000; fill-opacity:1.0; 
stroke:#840000; stroke-width:0; stroke-opacity:1; 
stroke-linecap:round; stroke-linejoin:round;">
<circle cx="2915.41" cy="9072.83" r="492.126" /> 
</g>
<g style="fill:#840000; fill-opacity:1.0; 
stroke:#840000; stroke-width:39.3701; stroke-opacity:1; 
stroke-linecap:round; stroke-linejoin:round;">
</g>
<g style="fill:#840000; fill-opacity:1.0; 
stroke:#840000; stroke-width:0; stroke-opacity:1; 
stroke-linecap:round; stroke-linejoin:round;">
<circle cx="1765.81" cy="8305.12" r="492.126" /> 
</g>
<g style="fill:#840000; fill-opacity:1.0; 
stroke:#840000; stroke-width:39.3701; stroke-opacity:1; 
stroke-linecap:round; stroke-linejoin:round;">
</g>
<g style="fill:#840000; fill-opacity:1.0; 
stroke:#840000; stroke-width:0; stroke-opacity:1; 
stroke-linecap:round; stroke-linejoin:round;">
<circle cx="998.092" cy="7155.51" r="492.126" /> 
</g>
<g style="fill:#840000; fill-opacity:1.0; 
stroke:#840000; stroke-width:39.3701; stroke-opacity:1; 
stroke-linecap:round; stroke-linejoin:round;">
</g> 
</svg>
