<?xml version="1.0" encoding="UTF-8" standalone="no"?>
<svg
   xmlns:dc="http://purl.org/dc/elements/1.1/"
   xmlns:cc="http://creativecommons.org/ns#"
   xmlns:rdf="http://www.w3.org/1999/02/22-rdf-syntax-ns#"
   xmlns:svg="http://www.w3.org/2000/svg"
   xmlns="http://www.w3.org/2000/svg"
   xmlns:sodipodi="http://sodipodi.sourceforge.net/DTD/sodipodi-0.dtd"
   xmlns:inkscape="http://www.inkscape.org/namespaces/inkscape"
   version="1.1"
   width="7.241540cm"
   height="2.458720cm"
   viewBox="0 0 28510 9680"
   id="svg1377"
   sodipodi:docname="project-brd.svg"
   inkscape:version="1.0.2-2 (e86c870879, 2021-01-15)">
  <metadata
     id="metadata1383">
    <rdf:RDF>
      <cc:Work
         rdf:about="">
        <dc:format>image/svg+xml</dc:format>
        <dc:type
           rdf:resource="http://purl.org/dc/dcmitype/StillImage" />
      </cc:Work>
    </rdf:RDF>
  </metadata>
  <defs
     id="defs1381" />
  <sodipodi:namedview
     pagecolor="#ffffff"
     bordercolor="#666666"
     borderopacity="1"
     objecttolerance="10"
     gridtolerance="10"
     guidetolerance="10"
     inkscape:pageopacity="0"
     inkscape:pageshadow="2"
     inkscape:window-width="1522"
     inkscape:window-height="877"
     id="namedview1379"
     showgrid="false"
     inkscape:zoom="2.8498773"
     inkscape:cx="136.49739"
     inkscape:cy="45.166214"
     inkscape:window-x="70"
     inkscape:window-y="-8"
     inkscape:window-maximized="1"
     inkscape:current-layer="g1305" />
  <title
     id="title1109">SVG Picture created as project-brd.svg date 2022/03/25 15:33:27 </title>
  <desc
     id="desc1111">Picture generated by PCBNEW </desc>
  <g
     style="fill:#000000; fill-opacity:1;stroke:#000000; stroke-opacity:1; stroke-linecap:round; stroke-linejoin:round;"
     transform="translate(0 0) scale(1 1)"
     id="g1113" />
  <g
     style="fill:#000000; fill-opacity:0.0;  stroke:#000000; stroke-width:-0.000393701; stroke-opacity:1;  stroke-linecap:round; stroke-linejoin:round;"
     id="g1305">
    <g
       id="g1115" />
    <g
       style="fill:#840000; fill-opacity:0.0;  stroke:#840000; stroke-width:-0.000393701; stroke-opacity:1;  stroke-linecap:round; stroke-linejoin:round;"
       id="g1117" />
    <g
       style="fill:#840000; fill-opacity:0.0;  stroke:#840000; stroke-width:0; stroke-opacity:1;  stroke-linecap:round; stroke-linejoin:round;"
       id="g1119" />
    <g
       style="fill:#840000; fill-opacity:1.0;  stroke:#840000; stroke-width:0; stroke-opacity:1;  stroke-linecap:round; stroke-linejoin:round;"
       id="g1127">
      <path
         style="fill:#840000; fill-opacity:1.0;  stroke:#840000; stroke-width:0; stroke-opacity:1;  stroke-linecap:round; stroke-linejoin:round;fill-rule:evenodd;"
         d="M 5206.69,2922.47 6190.95,2922.47 6190.95,3394.91 5206.69,3394.91 Z"
         id="path1121" />
      <path
         style="fill:#840000; fill-opacity:1.0;  stroke:#840000; stroke-width:0; stroke-opacity:1;  stroke-linecap:round; stroke-linejoin:round;fill-rule:evenodd;"
         d="M 5206.69,3922.47 6190.95,3922.47 6190.95,4394.91 5206.69,4394.91 Z"
         id="path1123" />
      <path
         style="fill:#840000; fill-opacity:1.0;  stroke:#840000; stroke-width:0; stroke-opacity:1;  stroke-linecap:round; stroke-linejoin:round;fill-rule:evenodd;"
         d="M 5206.69,4890.98 6190.95,4890.98 6190.95,5363.42 5206.69,5363.42 Z"
         id="path1125" />
    </g>
    <g
       id="g1129" />
    <g
       style="fill:#840000; fill-opacity:1.0;  stroke:#840000; stroke-width:0; stroke-opacity:1;  stroke-linecap:round; stroke-linejoin:round;"
       id="g1171">
      <path
         style="fill:#840000; fill-opacity:1.0;  stroke:#840000; stroke-width:0; stroke-opacity:1;  stroke-linecap:round; stroke-linejoin:round;fill-rule:evenodd;"
         d="M 23470.8,4496.9 23467.2,4495.78 23463.8,4493.96 23460.8,4491.51 23440.8,4471.54 23438.4,4468.56 23436.5,4465.16 23435.4,4461.46 23435,4457.62 23435,4438.22 23435.4,4434.38 23436.5,4430.69 23438.4,4427.28 23440.8,4424.3 23443.8,4421.85 23447.2,4420.03 23450.9,4418.91 23454.7,4418.53 23730.3,4418.53 23734.2,4418.91 23737.8,4420.03 23741.3,4421.85 23744.2,4424.3 23746.7,4427.28 23748.5,4430.69 23749.6,4434.38 23750,4438.22 23750,4477.59 23749.6,4481.43 23748.5,4485.12 23746.7,4488.53 23744.2,4491.51 23741.3,4493.96 23737.8,4495.78 23734.2,4496.9 23730.3,4497.27 23474.7,4497.27 Z"
         id="path1131" />
      <path
         style="fill:#840000; fill-opacity:1.0;  stroke:#840000; stroke-width:0; stroke-opacity:1;  stroke-linecap:round; stroke-linejoin:round;fill-rule:evenodd;"
         d="M 23732.2,4261.15 23734.2,4261.43 23736,4261.9 23737.8,4262.55 23739.6,4263.38 23741.3,4264.37 23742.8,4265.52 23744.2,4266.82 23745.5,4268.25 23746.7,4269.8 23747.7,4271.46 23748.5,4273.21 23749.2,4275.02 23749.6,4276.9 23749.9,4278.81 23750,4280.74 23750,4320.11 23749.9,4322.04 23749.6,4323.95 23749.2,4325.82 23748.5,4327.64 23747.7,4329.39 23746.7,4331.05 23745.5,4332.6 23744.2,4334.03 23742.8,4335.33 23741.3,4336.48 23739.6,4337.47 23737.8,4338.3 23736,4338.95 23734.2,4339.42 23732.2,4339.7 23730.3,4339.79 23454.7,4339.79 23452.8,4339.7 23450.9,4339.42 23449,4338.95 23447.2,4338.3 23445.4,4337.47 23443.8,4336.48 23442.2,4335.33 23440.8,4334.03 23439.5,4332.6 23438.4,4331.05 23437.4,4329.39 23436.5,4327.64 23435.9,4325.82 23435.4,4323.95 23435.1,4322.04 23435,4320.11 23435,4280.74 23435.1,4278.81 23435.4,4276.9 23435.9,4275.02 23436.5,4273.21 23437.4,4271.46 23438.4,4269.8 23439.5,4268.25 23440.8,4266.82 23442.2,4265.52 23443.8,4264.37 23445.4,4263.38 23447.2,4262.55 23449,4261.9 23450.9,4261.43 23452.8,4261.15 23454.7,4261.05 23730.3,4261.05 Z"
         id="path1133" />
      <path
         style="fill:#840000; fill-opacity:1.0;  stroke:#840000; stroke-width:0; stroke-opacity:1;  stroke-linecap:round; stroke-linejoin:round;fill-rule:evenodd;"
         d="M 23732.2,4103.67 23734.2,4103.95 23736,4104.42 23737.8,4105.07 23739.6,4105.9 23741.3,4106.89 23742.8,4108.04 23744.2,4109.34 23745.5,4110.77 23746.7,4112.32 23747.7,4113.98 23748.5,4115.73 23749.2,4117.54 23749.6,4119.42 23749.9,4121.33 23750,4123.26 23750,4162.63 23749.9,4164.56 23749.6,4166.47 23749.2,4168.34 23748.5,4170.16 23747.7,4171.91 23746.7,4173.57 23745.5,4175.12 23744.2,4176.55 23742.8,4177.85 23741.3,4179 23739.6,4179.99 23737.8,4180.82 23736,4181.47 23734.2,4181.94 23732.2,4182.22 23730.3,4182.31 23454.7,4182.31 23452.8,4182.22 23450.9,4181.94 23449,4181.47 23447.2,4180.82 23445.4,4179.99 23443.8,4179 23442.2,4177.85 23440.8,4176.55 23439.5,4175.12 23438.4,4173.57 23437.4,4171.91 23436.5,4170.16 23435.9,4168.34 23435.4,4166.47 23435.1,4164.56 23435,4162.63 23435,4123.26 23435.1,4121.33 23435.4,4119.42 23435.9,4117.54 23436.5,4115.73 23437.4,4113.98 23438.4,4112.32 23439.5,4110.77 23440.8,4109.34 23442.2,4108.04 23443.8,4106.89 23445.4,4105.9 23447.2,4105.07 23449,4104.42 23450.9,4103.95 23452.8,4103.67 23454.7,4103.57 23730.3,4103.57 Z"
         id="path1135" />
      <path
         style="fill:#840000; fill-opacity:1.0;  stroke:#840000; stroke-width:0; stroke-opacity:1;  stroke-linecap:round; stroke-linejoin:round;fill-rule:evenodd;"
         d="M 23732.2,3946.19 23734.2,3946.47 23736,3946.94 23737.8,3947.59 23739.6,3948.42 23741.3,3949.41 23742.8,3950.56 23744.2,3951.86 23745.5,3953.29 23746.7,3954.84 23747.7,3956.5 23748.5,3958.25 23749.2,3960.06 23749.6,3961.94 23749.9,3963.85 23750,3965.78 23750,4005.15 23749.9,4007.08 23749.6,4008.99 23749.2,4010.86 23748.5,4012.68 23747.7,4014.43 23746.7,4016.09 23745.5,4017.64 23744.2,4019.07 23742.8,4020.37 23741.3,4021.52 23739.6,4022.51 23737.8,4023.34 23736,4023.99 23734.2,4024.46 23732.2,4024.74 23730.3,4024.83 23454.7,4024.83 23452.8,4024.74 23450.9,4024.46 23449,4023.99 23447.2,4023.34 23445.4,4022.51 23443.8,4021.52 23442.2,4020.37 23440.8,4019.07 23439.5,4017.64 23438.4,4016.09 23437.4,4014.43 23436.5,4012.68 23435.9,4010.86 23435.4,4008.99 23435.1,4007.08 23435,4005.15 23435,3965.78 23435.1,3963.85 23435.4,3961.94 23435.9,3960.06 23436.5,3958.25 23437.4,3956.5 23438.4,3954.84 23439.5,3953.29 23440.8,3951.86 23442.2,3950.56 23443.8,3949.41 23445.4,3948.42 23447.2,3947.59 23449,3946.94 23450.9,3946.47 23452.8,3946.19 23454.7,3946.09 23730.3,3946.09 Z"
         id="path1137" />
      <path
         style="fill:#840000; fill-opacity:1.0;  stroke:#840000; stroke-width:0; stroke-opacity:1;  stroke-linecap:round; stroke-linejoin:round;fill-rule:evenodd;"
         d="M 23450.9,3866.97 23447.2,3865.85 23443.8,3864.04 23440.8,3861.59 23438.4,3858.6 23436.5,3855.2 23435.4,3851.51 23435,3847.67 23435,3828.26 23435.4,3824.42 23436.5,3820.73 23438.4,3817.33 23440.8,3814.34 23460.8,3794.38 23463.8,3791.93 23467.2,3790.11 23470.8,3788.99 23474.7,3788.61 23730.3,3788.61 23734.2,3788.99 23737.8,3790.11 23741.3,3791.93 23744.2,3794.38 23746.7,3797.36 23748.5,3800.76 23749.6,3804.46 23750,3808.3 23750,3847.67 23749.6,3851.51 23748.5,3855.2 23746.7,3858.6 23744.2,3861.59 23741.3,3864.04 23737.8,3865.85 23734.2,3866.97 23730.3,3867.35 23454.7,3867.35 Z"
         id="path1139" />
      <path
         style="fill:#840000; fill-opacity:1.0;  stroke:#840000; stroke-width:0; stroke-opacity:1;  stroke-linecap:round; stroke-linejoin:round;fill-rule:evenodd;"
         d="M 23313.1,3729.18 23309.4,3728.06 23306,3726.24 23303,3723.79 23300.6,3720.81 23298.7,3717.41 23297.6,3713.71 23297.2,3709.87 23297.2,3434.28 23297.6,3430.44 23298.7,3426.75 23300.6,3423.35 23303,3420.36 23306,3417.91 23309.4,3416.1 23313.1,3414.98 23316.9,3414.6 23356.3,3414.6 23360.1,3414.98 23363.8,3416.1 23367.2,3417.91 23370.2,3420.36 23372.7,3423.35 23374.5,3426.75 23375.6,3430.44 23376,3434.28 23376,3689.91 23375.6,3693.75 23374.5,3697.44 23372.7,3700.84 23370.2,3703.83 23350.3,3723.79 23347.3,3726.24 23343.9,3728.06 23340.2,3729.18 23336.3,3729.56 23316.9,3729.56 Z"
         id="path1141" />
      <path
         style="fill:#840000; fill-opacity:1.0;  stroke:#840000; stroke-width:0; stroke-opacity:1;  stroke-linecap:round; stroke-linejoin:round;fill-rule:evenodd;"
         d="M 23200.7,3414.69 23202.7,3414.98 23204.5,3415.44 23206.4,3416.1 23208.1,3416.92 23209.8,3417.91 23211.3,3419.07 23212.7,3420.36 23214,3421.79 23215.2,3423.35 23216.2,3425 23217,3426.75 23217.7,3428.57 23218.1,3430.44 23218.4,3432.35 23218.5,3434.28 23218.5,3709.87 23218.4,3711.8 23218.1,3713.71 23217.7,3715.59 23217,3717.41 23216.2,3719.15 23215.2,3720.81 23214,3722.36 23212.7,3723.79 23211.3,3725.09 23209.8,3726.24 23208.1,3727.23 23206.4,3728.06 23204.5,3728.71 23202.7,3729.18 23200.7,3729.46 23198.8,3729.56 23159.4,3729.56 23157.5,3729.46 23155.6,3729.18 23153.7,3728.71 23151.9,3728.06 23150.2,3727.23 23148.5,3726.24 23147,3725.09 23145.5,3723.79 23144.2,3722.36 23143.1,3720.81 23142.1,3719.15 23141.3,3717.41 23140.6,3715.59 23140.1,3713.71 23139.9,3711.8 23139.8,3709.87 23139.8,3434.28 23139.9,3432.35 23140.1,3430.44 23140.6,3428.57 23141.3,3426.75 23142.1,3425 23143.1,3423.35 23144.2,3421.79 23145.5,3420.36 23147,3419.07 23148.5,3417.91 23150.2,3416.92 23151.9,3416.1 23153.7,3415.44 23155.6,3414.98 23157.5,3414.69 23159.4,3414.6 23198.8,3414.6 Z"
         id="path1143" />
      <path
         style="fill:#840000; fill-opacity:1.0;  stroke:#840000; stroke-width:0; stroke-opacity:1;  stroke-linecap:round; stroke-linejoin:round;fill-rule:evenodd;"
         d="M 23043.3,3414.69 23045.2,3414.98 23047.1,3415.44 23048.9,3416.1 23050.6,3416.92 23052.3,3417.91 23053.8,3419.07 23055.3,3420.36 23056.6,3421.79 23057.7,3423.35 23058.7,3425 23059.5,3426.75 23060.2,3428.57 23060.6,3430.44 23060.9,3432.35 23061,3434.28 23061,3709.87 23060.9,3711.8 23060.6,3713.71 23060.2,3715.59 23059.5,3717.41 23058.7,3719.15 23057.7,3720.81 23056.6,3722.36 23055.3,3723.79 23053.8,3725.09 23052.3,3726.24 23050.6,3727.23 23048.9,3728.06 23047.1,3728.71 23045.2,3729.18 23043.3,3729.46 23041.3,3729.56 23002,3729.56 23000,3729.46 22998.1,3729.18 22996.3,3728.71 22994.4,3728.06 22992.7,3727.23 22991,3726.24 22989.5,3725.09 22988,3723.79 22986.8,3722.36 22985.6,3720.81 22984.6,3719.15 22983.8,3717.41 22983.1,3715.59 22982.7,3713.71 22982.4,3711.8 22982.3,3709.87 22982.3,3434.28 22982.4,3432.35 22982.7,3430.44 22983.1,3428.57 22983.8,3426.75 22984.6,3425 22985.6,3423.35 22986.8,3421.79 22988,3420.36 22989.5,3419.07 22991,3417.91 22992.7,3416.92 22994.4,3416.1 22996.3,3415.44 22998.1,3414.98 23000,3414.69 23002,3414.6 23041.3,3414.6 Z"
         id="path1145" />
      <path
         style="fill:#840000; fill-opacity:1.0;  stroke:#840000; stroke-width:0; stroke-opacity:1;  stroke-linecap:round; stroke-linejoin:round;fill-rule:evenodd;"
         d="M 22885.8,3414.69 22887.7,3414.98 22889.6,3415.44 22891.4,3416.1 22893.1,3416.92 22894.8,3417.91 22896.3,3419.07 22897.8,3420.36 22899.1,3421.79 22900.2,3423.35 22901.2,3425 22902,3426.75 22902.7,3428.57 22903.2,3430.44 22903.4,3432.35 22903.5,3434.28 22903.5,3709.87 22903.4,3711.8 22903.2,3713.71 22902.7,3715.59 22902,3717.41 22901.2,3719.15 22900.2,3720.81 22899.1,3722.36 22897.8,3723.79 22896.3,3725.09 22894.8,3726.24 22893.1,3727.23 22891.4,3728.06 22889.6,3728.71 22887.7,3729.18 22885.8,3729.46 22883.9,3729.56 22844.5,3729.56 22842.6,3729.46 22840.6,3729.18 22838.8,3728.71 22837,3728.06 22835.2,3727.23 22833.6,3726.24 22832,3725.09 22830.6,3723.79 22829.3,3722.36 22828.1,3720.81 22827.1,3719.15 22826.3,3717.41 22825.7,3715.59 22825.2,3713.71 22824.9,3711.8 22824.8,3709.87 22824.8,3434.28 22824.9,3432.35 22825.2,3430.44 22825.7,3428.57 22826.3,3426.75 22827.1,3425 22828.1,3423.35 22829.3,3421.79 22830.6,3420.36 22832,3419.07 22833.6,3417.91 22835.2,3416.92 22837,3416.1 22838.8,3415.44 22840.6,3414.98 22842.6,3414.69 22844.5,3414.6 22883.9,3414.6 Z"
         id="path1147" />
      <path
         style="fill:#840000; fill-opacity:1.0;  stroke:#840000; stroke-width:0; stroke-opacity:1;  stroke-linecap:round; stroke-linejoin:round;fill-rule:evenodd;"
         d="M 22703.1,3729.18 22699.4,3728.06 22696,3726.24 22693.1,3723.79 22673.1,3703.83 22670.6,3700.84 22668.8,3697.44 22667.7,3693.75 22667.3,3689.91 22667.3,3434.28 22667.7,3430.44 22668.8,3426.75 22670.6,3423.35 22673.1,3420.36 22676.1,3417.91 22679.5,3416.1 22683.2,3414.98 22687,3414.6 22726.4,3414.6 22730.2,3414.98 22733.9,3416.1 22737.3,3417.91 22740.3,3420.36 22742.7,3423.35 22744.6,3426.75 22745.7,3430.44 22746.1,3434.28 22746.1,3709.87 22745.7,3713.71 22744.6,3717.41 22742.7,3720.81 22740.3,3723.79 22737.3,3726.24 22733.9,3728.06 22730.2,3729.18 22726.4,3729.56 22707,3729.56 Z"
         id="path1149" />
      <path
         style="fill:#840000; fill-opacity:1.0;  stroke:#840000; stroke-width:0; stroke-opacity:1;  stroke-linecap:round; stroke-linejoin:round;fill-rule:evenodd;"
         d="M 22309.2,3866.97 22305.5,3865.85 22302.1,3864.04 22299.1,3861.59 22296.6,3858.6 22294.8,3855.2 22293.7,3851.51 22293.3,3847.67 22293.3,3808.3 22293.7,3804.46 22294.8,3800.76 22296.6,3797.36 22299.1,3794.38 22302.1,3791.93 22305.5,3790.11 22309.2,3788.99 22313,3788.61 22568.6,3788.61 22572.5,3788.99 22576.2,3790.11 22579.6,3791.93 22582.5,3794.38 22602.5,3814.34 22605,3817.33 22606.8,3820.73 22607.9,3824.42 22608.3,3828.26 22608.3,3847.67 22607.9,3851.51 22606.8,3855.2 22605,3858.6 22602.5,3861.59 22599.5,3864.04 22596.1,3865.85 22592.4,3866.97 22588.6,3867.35 22313,3867.35 Z"
         id="path1151" />
      <path
         style="fill:#840000; fill-opacity:1.0;  stroke:#840000; stroke-width:0; stroke-opacity:1;  stroke-linecap:round; stroke-linejoin:round;fill-rule:evenodd;"
         d="M 22590.5,3946.19 22592.4,3946.47 22594.3,3946.94 22596.1,3947.59 22597.9,3948.42 22599.5,3949.41 22601.1,3950.56 22602.5,3951.86 22603.8,3953.29 22605,3954.84 22605.9,3956.5 22606.8,3958.25 22607.4,3960.06 22607.9,3961.94 22608.2,3963.85 22608.3,3965.78 22608.3,4005.15 22608.2,4007.08 22607.9,4008.99 22607.4,4010.86 22606.8,4012.68 22605.9,4014.43 22605,4016.09 22603.8,4017.64 22602.5,4019.07 22601.1,4020.37 22599.5,4021.52 22597.9,4022.51 22596.1,4023.34 22594.3,4023.99 22592.4,4024.46 22590.5,4024.74 22588.6,4024.83 22313,4024.83 22311.1,4024.74 22309.2,4024.46 22307.3,4023.99 22305.5,4023.34 22303.7,4022.51 22302.1,4021.52 22300.5,4020.37 22299.1,4019.07 22297.8,4017.64 22296.6,4016.09 22295.6,4014.43 22294.8,4012.68 22294.2,4010.86 22293.7,4008.99 22293.4,4007.08 22293.3,4005.15 22293.3,3965.78 22293.4,3963.85 22293.7,3961.94 22294.2,3960.06 22294.8,3958.25 22295.6,3956.5 22296.6,3954.84 22297.8,3953.29 22299.1,3951.86 22300.5,3950.56 22302.1,3949.41 22303.7,3948.42 22305.5,3947.59 22307.3,3946.94 22309.2,3946.47 22311.1,3946.19 22313,3946.09 22588.6,3946.09 Z"
         id="path1153" />
      <path
         style="fill:#840000; fill-opacity:1.0;  stroke:#840000; stroke-width:0; stroke-opacity:1;  stroke-linecap:round; stroke-linejoin:round;fill-rule:evenodd;"
         d="M 22590.5,4103.67 22592.4,4103.95 22594.3,4104.42 22596.1,4105.07 22597.9,4105.9 22599.5,4106.89 22601.1,4108.04 22602.5,4109.34 22603.8,4110.77 22605,4112.32 22605.9,4113.98 22606.8,4115.73 22607.4,4117.54 22607.9,4119.42 22608.2,4121.33 22608.3,4123.26 22608.3,4162.63 22608.2,4164.56 22607.9,4166.47 22607.4,4168.34 22606.8,4170.16 22605.9,4171.91 22605,4173.57 22603.8,4175.12 22602.5,4176.55 22601.1,4177.85 22599.5,4179 22597.9,4179.99 22596.1,4180.82 22594.3,4181.47 22592.4,4181.94 22590.5,4182.22 22588.6,4182.31 22313,4182.31 22311.1,4182.22 22309.2,4181.94 22307.3,4181.47 22305.5,4180.82 22303.7,4179.99 22302.1,4179 22300.5,4177.85 22299.1,4176.55 22297.8,4175.12 22296.6,4173.57 22295.6,4171.91 22294.8,4170.16 22294.2,4168.34 22293.7,4166.47 22293.4,4164.56 22293.3,4162.63 22293.3,4123.26 22293.4,4121.33 22293.7,4119.42 22294.2,4117.54 22294.8,4115.73 22295.6,4113.98 22296.6,4112.32 22297.8,4110.77 22299.1,4109.34 22300.5,4108.04 22302.1,4106.89 22303.7,4105.9 22305.5,4105.07 22307.3,4104.42 22309.2,4103.95 22311.1,4103.67 22313,4103.57 22588.6,4103.57 Z"
         id="path1155" />
      <path
         style="fill:#840000; fill-opacity:1.0;  stroke:#840000; stroke-width:0; stroke-opacity:1;  stroke-linecap:round; stroke-linejoin:round;fill-rule:evenodd;"
         d="M 22590.5,4261.15 22592.4,4261.43 22594.3,4261.9 22596.1,4262.55 22597.9,4263.38 22599.5,4264.37 22601.1,4265.52 22602.5,4266.82 22603.8,4268.25 22605,4269.8 22605.9,4271.46 22606.8,4273.21 22607.4,4275.02 22607.9,4276.9 22608.2,4278.81 22608.3,4280.74 22608.3,4320.11 22608.2,4322.04 22607.9,4323.95 22607.4,4325.82 22606.8,4327.64 22605.9,4329.39 22605,4331.05 22603.8,4332.6 22602.5,4334.03 22601.1,4335.33 22599.5,4336.48 22597.9,4337.47 22596.1,4338.3 22594.3,4338.95 22592.4,4339.42 22590.5,4339.7 22588.6,4339.79 22313,4339.79 22311.1,4339.7 22309.2,4339.42 22307.3,4338.95 22305.5,4338.3 22303.7,4337.47 22302.1,4336.48 22300.5,4335.33 22299.1,4334.03 22297.8,4332.6 22296.6,4331.05 22295.6,4329.39 22294.8,4327.64 22294.2,4325.82 22293.7,4323.95 22293.4,4322.04 22293.3,4320.11 22293.3,4280.74 22293.4,4278.81 22293.7,4276.9 22294.2,4275.02 22294.8,4273.21 22295.6,4271.46 22296.6,4269.8 22297.8,4268.25 22299.1,4266.82 22300.5,4265.52 22302.1,4264.37 22303.7,4263.38 22305.5,4262.55 22307.3,4261.9 22309.2,4261.43 22311.1,4261.15 22313,4261.05 22588.6,4261.05 Z"
         id="path1157" />
      <path
         style="fill:#840000; fill-opacity:1.0;  stroke:#840000; stroke-width:0; stroke-opacity:1;  stroke-linecap:round; stroke-linejoin:round;fill-rule:evenodd;"
         d="M 22309.2,4496.9 22305.5,4495.78 22302.1,4493.96 22299.1,4491.51 22296.6,4488.53 22294.8,4485.12 22293.7,4481.43 22293.3,4477.59 22293.3,4438.22 22293.7,4434.38 22294.8,4430.69 22296.6,4427.28 22299.1,4424.3 22302.1,4421.85 22305.5,4420.03 22309.2,4418.91 22313,4418.53 22588.6,4418.53 22592.4,4418.91 22596.1,4420.03 22599.5,4421.85 22602.5,4424.3 22605,4427.28 22606.8,4430.69 22607.9,4434.38 22608.3,4438.22 22608.3,4457.62 22607.9,4461.46 22606.8,4465.16 22605,4468.56 22602.5,4471.54 22582.5,4491.51 22579.6,4493.96 22576.2,4495.78 22572.5,4496.9 22568.6,4497.27 22313,4497.27 Z"
         id="path1159" />
      <path
         style="fill:#840000; fill-opacity:1.0;  stroke:#840000; stroke-width:0; stroke-opacity:1;  stroke-linecap:round; stroke-linejoin:round;fill-rule:evenodd;"
         d="M 22683.2,4870.91 22679.5,4869.79 22676.1,4867.97 22673.1,4865.52 22670.6,4862.54 22668.8,4859.14 22667.7,4855.45 22667.3,4851.61 22667.3,4595.98 22667.7,4592.14 22668.8,4588.45 22670.6,4585.04 22673.1,4582.06 22693.1,4562.1 22696,4559.65 22699.4,4557.83 22703.1,4556.71 22707,4556.33 22726.4,4556.33 22730.2,4556.71 22733.9,4557.83 22737.3,4559.65 22740.3,4562.1 22742.7,4565.08 22744.6,4568.48 22745.7,4572.17 22746.1,4576.01 22746.1,4851.61 22745.7,4855.45 22744.6,4859.14 22742.7,4862.54 22740.3,4865.52 22737.3,4867.97 22733.9,4869.79 22730.2,4870.91 22726.4,4871.29 22687,4871.29 Z"
         id="path1161" />
      <path
         style="fill:#840000; fill-opacity:1.0;  stroke:#840000; stroke-width:0; stroke-opacity:1;  stroke-linecap:round; stroke-linejoin:round;fill-rule:evenodd;"
         d="M 22885.8,4556.42 22887.7,4556.71 22889.6,4557.18 22891.4,4557.83 22893.1,4558.65 22894.8,4559.65 22896.3,4560.8 22897.8,4562.1 22899.1,4563.53 22900.2,4565.08 22901.2,4566.74 22902,4568.48 22902.7,4570.3 22903.2,4572.17 22903.4,4574.09 22903.5,4576.01 22903.5,4851.61 22903.4,4853.53 22903.2,4855.45 22902.7,4857.32 22902,4859.14 22901.2,4860.88 22900.2,4862.54 22899.1,4864.09 22897.8,4865.52 22896.3,4866.82 22894.8,4867.97 22893.1,4868.97 22891.4,4869.79 22889.6,4870.44 22887.7,4870.91 22885.8,4871.2 22883.9,4871.29 22844.5,4871.29 22842.6,4871.2 22840.6,4870.91 22838.8,4870.44 22837,4869.79 22835.2,4868.97 22833.6,4867.97 22832,4866.82 22830.6,4865.52 22829.3,4864.09 22828.1,4862.54 22827.1,4860.88 22826.3,4859.14 22825.7,4857.32 22825.2,4855.45 22824.9,4853.53 22824.8,4851.61 22824.8,4576.01 22824.9,4574.09 22825.2,4572.17 22825.7,4570.3 22826.3,4568.48 22827.1,4566.74 22828.1,4565.08 22829.3,4563.53 22830.6,4562.1 22832,4560.8 22833.6,4559.65 22835.2,4558.65 22837,4557.83 22838.8,4557.18 22840.6,4556.71 22842.6,4556.42 22844.5,4556.33 22883.9,4556.33 Z"
         id="path1163" />
      <path
         style="fill:#840000; fill-opacity:1.0;  stroke:#840000; stroke-width:0; stroke-opacity:1;  stroke-linecap:round; stroke-linejoin:round;fill-rule:evenodd;"
         d="M 23043.3,4556.42 23045.2,4556.71 23047.1,4557.18 23048.9,4557.83 23050.6,4558.65 23052.3,4559.65 23053.8,4560.8 23055.3,4562.1 23056.6,4563.53 23057.7,4565.08 23058.7,4566.74 23059.5,4568.48 23060.2,4570.3 23060.6,4572.17 23060.9,4574.09 23061,4576.01 23061,4851.61 23060.9,4853.53 23060.6,4855.45 23060.2,4857.32 23059.5,4859.14 23058.7,4860.88 23057.7,4862.54 23056.6,4864.09 23055.3,4865.52 23053.8,4866.82 23052.3,4867.97 23050.6,4868.97 23048.9,4869.79 23047.1,4870.44 23045.2,4870.91 23043.3,4871.2 23041.3,4871.29 23002,4871.29 23000,4871.2 22998.1,4870.91 22996.3,4870.44 22994.4,4869.79 22992.7,4868.97 22991,4867.97 22989.5,4866.82 22988,4865.52 22986.8,4864.09 22985.6,4862.54 22984.6,4860.88 22983.8,4859.14 22983.1,4857.32 22982.7,4855.45 22982.4,4853.53 22982.3,4851.61 22982.3,4576.01 22982.4,4574.09 22982.7,4572.17 22983.1,4570.3 22983.8,4568.48 22984.6,4566.74 22985.6,4565.08 22986.8,4563.53 22988,4562.1 22989.5,4560.8 22991,4559.65 22992.7,4558.65 22994.4,4557.83 22996.3,4557.18 22998.1,4556.71 23000,4556.42 23002,4556.33 23041.3,4556.33 Z"
         id="path1165" />
      <path
         style="fill:#840000; fill-opacity:1.0;  stroke:#840000; stroke-width:0; stroke-opacity:1;  stroke-linecap:round; stroke-linejoin:round;fill-rule:evenodd;"
         d="M 23200.7,4556.42 23202.7,4556.71 23204.5,4557.18 23206.4,4557.83 23208.1,4558.65 23209.8,4559.65 23211.3,4560.8 23212.7,4562.1 23214,4563.53 23215.2,4565.08 23216.2,4566.74 23217,4568.48 23217.7,4570.3 23218.1,4572.17 23218.4,4574.09 23218.5,4576.01 23218.5,4851.61 23218.4,4853.53 23218.1,4855.45 23217.7,4857.32 23217,4859.14 23216.2,4860.88 23215.2,4862.54 23214,4864.09 23212.7,4865.52 23211.3,4866.82 23209.8,4867.97 23208.1,4868.97 23206.4,4869.79 23204.5,4870.44 23202.7,4870.91 23200.7,4871.2 23198.8,4871.29 23159.4,4871.29 23157.5,4871.2 23155.6,4870.91 23153.7,4870.44 23151.9,4869.79 23150.2,4868.97 23148.5,4867.97 23147,4866.82 23145.5,4865.52 23144.2,4864.09 23143.1,4862.54 23142.1,4860.88 23141.3,4859.14 23140.6,4857.32 23140.1,4855.45 23139.9,4853.53 23139.8,4851.61 23139.8,4576.01 23139.9,4574.09 23140.1,4572.17 23140.6,4570.3 23141.3,4568.48 23142.1,4566.74 23143.1,4565.08 23144.2,4563.53 23145.5,4562.1 23147,4560.8 23148.5,4559.65 23150.2,4558.65 23151.9,4557.83 23153.7,4557.18 23155.6,4556.71 23157.5,4556.42 23159.4,4556.33 23198.8,4556.33 Z"
         id="path1167" />
      <path
         style="fill:#840000; fill-opacity:1.0;  stroke:#840000; stroke-width:0; stroke-opacity:1;  stroke-linecap:round; stroke-linejoin:round;fill-rule:evenodd;"
         d="M 23313.1,4870.91 23309.4,4869.79 23306,4867.97 23303,4865.52 23300.6,4862.54 23298.7,4859.14 23297.6,4855.45 23297.2,4851.61 23297.2,4576.01 23297.6,4572.17 23298.7,4568.48 23300.6,4565.08 23303,4562.1 23306,4559.65 23309.4,4557.83 23313.1,4556.71 23316.9,4556.33 23336.3,4556.33 23340.2,4556.71 23343.9,4557.83 23347.3,4559.65 23350.3,4562.1 23370.2,4582.06 23372.7,4585.04 23374.5,4588.45 23375.6,4592.14 23376,4595.98 23376,4851.61 23375.6,4855.45 23374.5,4859.14 23372.7,4862.54 23370.2,4865.52 23367.2,4867.97 23363.8,4869.79 23360.1,4870.91 23356.3,4871.29 23316.9,4871.29 Z"
         id="path1169" />
    </g>
    <g
       style="fill:#000000; fill-opacity:1.0;  stroke:#000000; stroke-width:0; stroke-opacity:1;  stroke-linecap:round; stroke-linejoin:round;"
       id="g1181">
      <path
         style="fill:#000000; fill-opacity:1.0;  stroke:#000000; stroke-width:0; stroke-opacity:1;  stroke-linecap:round; stroke-linejoin:round;fill-rule:evenodd;"
         d="M 23263.5,4174.77 23270.1,4175.74 23276.6,4177.36 23282.9,4179.61 23288.9,4182.46 23294.6,4185.89 23300,4189.86 23304.9,4194.33 23309.4,4199.27 23313.4,4204.62 23316.8,4210.34 23319.6,4216.36 23321.9,4222.64 23323.5,4229.1 23324.5,4235.7 23324.8,4242.35 23324.8,4378.18 23324.5,4384.84 23323.5,4391.43 23321.9,4397.89 23319.6,4404.17 23316.8,4410.19 23313.4,4415.91 23309.4,4421.26 23304.9,4426.2 23300,4430.68 23294.6,4434.65 23288.9,4438.07 23282.9,4440.92 23276.6,4443.17 23270.1,4444.79 23263.5,4445.77 23256.9,4446.09 23121.1,4446.09 23114.4,4445.77 23107.8,4444.79 23101.3,4443.17 23095.1,4440.92 23089,4438.07 23083.3,4434.65 23078,4430.68 23073,4426.2 23068.6,4421.26 23064.6,4415.91 23061.2,4410.19 23058.3,4404.17 23056.1,4397.89 23054.5,4391.43 23053.5,4384.84 23053.2,4378.18 23053.2,4242.35 23053.5,4235.7 23054.5,4229.1 23056.1,4222.64 23058.3,4216.36 23061.2,4210.34 23064.6,4204.62 23068.6,4199.27 23073,4194.33 23078,4189.86 23083.3,4185.89 23089,4182.46 23095.1,4179.61 23101.3,4177.36 23107.8,4175.74 23114.4,4174.77 23121.1,4174.44 23256.9,4174.44 Z"
         id="path1173" />
      <path
         style="fill:#000000; fill-opacity:1.0;  stroke:#000000; stroke-width:0; stroke-opacity:1;  stroke-linecap:round; stroke-linejoin:round;fill-rule:evenodd;"
         d="M 23263.5,3840.12 23270.1,3841.1 23276.6,3842.72 23282.9,3844.96 23288.9,3847.81 23294.6,3851.24 23300,3855.21 23304.9,3859.69 23309.4,3864.62 23313.4,3869.98 23316.8,3875.69 23319.6,3881.72 23321.9,3887.99 23323.5,3894.46 23324.5,3901.05 23324.8,3907.71 23324.8,4043.53 23324.5,4050.19 23323.5,4056.78 23321.9,4063.25 23319.6,4069.52 23316.8,4075.55 23313.4,4081.26 23309.4,4086.62 23304.9,4091.56 23300,4096.03 23294.6,4100 23288.9,4103.43 23282.9,4106.28 23276.6,4108.52 23270.1,4110.14 23263.5,4111.12 23256.9,4111.45 23121.1,4111.45 23114.4,4111.12 23107.8,4110.14 23101.3,4108.52 23095.1,4106.28 23089,4103.43 23083.3,4100 23078,4096.03 23073,4091.56 23068.6,4086.62 23064.6,4081.26 23061.2,4075.55 23058.3,4069.52 23056.1,4063.25 23054.5,4056.78 23053.5,4050.19 23053.2,4043.53 23053.2,3907.71 23053.5,3901.05 23054.5,3894.46 23056.1,3887.99 23058.3,3881.72 23061.2,3875.69 23064.6,3869.98 23068.6,3864.62 23073,3859.69 23078,3855.21 23083.3,3851.24 23089,3847.81 23095.1,3844.96 23101.3,3842.72 23107.8,3841.1 23114.4,3840.12 23121.1,3839.79 23256.9,3839.79 Z"
         id="path1175" />
      <path
         style="fill:#000000; fill-opacity:1.0;  stroke:#000000; stroke-width:0; stroke-opacity:1;  stroke-linecap:round; stroke-linejoin:round;fill-rule:evenodd;"
         d="M 22928.9,4174.77 22935.5,4175.74 22942,4177.36 22948.2,4179.61 22954.3,4182.46 22960,4185.89 22965.3,4189.86 22970.3,4194.33 22974.7,4199.27 22978.7,4204.62 22982.1,4210.34 22985,4216.36 22987.2,4222.64 22988.9,4229.1 22989.8,4235.7 22990.2,4242.35 22990.2,4378.18 22989.8,4384.84 22988.9,4391.43 22987.2,4397.89 22985,4404.17 22982.1,4410.19 22978.7,4415.91 22974.7,4421.26 22970.3,4426.2 22965.3,4430.68 22960,4434.65 22954.3,4438.07 22948.2,4440.92 22942,4443.17 22935.5,4444.79 22928.9,4445.77 22922.2,4446.09 22786.4,4446.09 22779.8,4445.77 22773.2,4444.79 22766.7,4443.17 22760.4,4440.92 22754.4,4438.07 22748.7,4434.65 22743.3,4430.68 22738.4,4426.2 22733.9,4421.26 22729.9,4415.91 22726.5,4410.19 22723.7,4404.17 22721.4,4397.89 22719.8,4391.43 22718.8,4384.84 22718.5,4378.18 22718.5,4242.35 22718.8,4235.7 22719.8,4229.1 22721.4,4222.64 22723.7,4216.36 22726.5,4210.34 22729.9,4204.62 22733.9,4199.27 22738.4,4194.33 22743.3,4189.86 22748.7,4185.89 22754.4,4182.46 22760.4,4179.61 22766.7,4177.36 22773.2,4175.74 22779.8,4174.77 22786.4,4174.44 22922.2,4174.44 Z"
         id="path1177" />
      <path
         style="fill:#000000; fill-opacity:1.0;  stroke:#000000; stroke-width:0; stroke-opacity:1;  stroke-linecap:round; stroke-linejoin:round;fill-rule:evenodd;"
         d="M 22928.9,3840.12 22935.5,3841.1 22942,3842.72 22948.2,3844.96 22954.3,3847.81 22960,3851.24 22965.3,3855.21 22970.3,3859.69 22974.7,3864.62 22978.7,3869.98 22982.1,3875.69 22985,3881.72 22987.2,3887.99 22988.9,3894.46 22989.8,3901.05 22990.2,3907.71 22990.2,4043.53 22989.8,4050.19 22988.9,4056.78 22987.2,4063.25 22985,4069.52 22982.1,4075.55 22978.7,4081.26 22974.7,4086.62 22970.3,4091.56 22965.3,4096.03 22960,4100 22954.3,4103.43 22948.2,4106.28 22942,4108.52 22935.5,4110.14 22928.9,4111.12 22922.2,4111.45 22786.4,4111.45 22779.8,4111.12 22773.2,4110.14 22766.7,4108.52 22760.4,4106.28 22754.4,4103.43 22748.7,4100 22743.3,4096.03 22738.4,4091.56 22733.9,4086.62 22729.9,4081.26 22726.5,4075.55 22723.7,4069.52 22721.4,4063.25 22719.8,4056.78 22718.8,4050.19 22718.5,4043.53 22718.5,3907.71 22718.8,3901.05 22719.8,3894.46 22721.4,3887.99 22723.7,3881.72 22726.5,3875.69 22729.9,3869.98 22733.9,3864.62 22738.4,3859.69 22743.3,3855.21 22748.7,3851.24 22754.4,3847.81 22760.4,3844.96 22766.7,3842.72 22773.2,3841.1 22779.8,3840.12 22786.4,3839.79 22922.2,3839.79 Z"
         id="path1179" />
    </g>
    <g
       id="g1183" />
    <g
       style="fill:#840000; fill-opacity:1.0;  stroke:#840000; stroke-width:0; stroke-opacity:1;  stroke-linecap:round; stroke-linejoin:round;"
       id="g1189">
      <path
         style="fill:#840000; fill-opacity:1.0;  stroke:#840000; stroke-width:0; stroke-opacity:1;  stroke-linecap:round; stroke-linejoin:round;fill-rule:evenodd;"
         d="M 22529.5,2322.08 22529.5,2814.2 22135.8,2814.2 22135.8,2322.08 Z"
         id="path1185" />
      <path
         style="fill:#840000; fill-opacity:1.0;  stroke:#840000; stroke-width:0; stroke-opacity:1;  stroke-linecap:round; stroke-linejoin:round;fill-rule:evenodd;"
         d="M 21742.1,2322.08 21742.1,2814.2 21348.4,2814.2 21348.4,2322.08 Z"
         id="path1187" />
    </g>
    <g
       id="g1191" />
    <g
       style="fill:#840000; fill-opacity:1.0;  stroke:#840000; stroke-width:0; stroke-opacity:1;  stroke-linecap:round; stroke-linejoin:round;"
       id="g1197">
      <path
         style="fill:#840000; fill-opacity:1.0;  stroke:#840000; stroke-width:0; stroke-opacity:1;  stroke-linecap:round; stroke-linejoin:round;fill-rule:evenodd;"
         d="M 23750,2715.78 23750,2420.5 24065,2420.5 24065,2715.78 Z"
         id="path1193" />
      <path
         style="fill:#840000; fill-opacity:1.0;  stroke:#840000; stroke-width:0; stroke-opacity:1;  stroke-linecap:round; stroke-linejoin:round;fill-rule:evenodd;"
         d="M 23159.4,2715.78 23159.4,2420.5 23474.4,2420.5 23474.4,2715.78 Z"
         id="path1195" />
    </g>
    <g
       id="g1199" />
    <g
       style="fill:#840000; fill-opacity:1.0;  stroke:#840000; stroke-width:0; stroke-opacity:1;  stroke-linecap:round; stroke-linejoin:round;"
       id="g1205">
      <path
         style="fill:#840000; fill-opacity:1.0;  stroke:#840000; stroke-width:0; stroke-opacity:1;  stroke-linecap:round; stroke-linejoin:round;fill-rule:evenodd;"
         d="M 25777.6,3926.41 25777.6,3572.08 25974.4,3572.08 25974.4,3926.41 Z"
         id="path1201" />
      <path
         style="fill:#840000; fill-opacity:1.0;  stroke:#840000; stroke-width:0; stroke-opacity:1;  stroke-linecap:round; stroke-linejoin:round;fill-rule:evenodd;"
         d="M 26368.1,3926.41 26368.1,3572.08 26565,3572.08 26565,3926.41 Z"
         id="path1203" />
    </g>
    <g
       id="g1207" />
    <g
       style="fill:#840000; fill-opacity:1.0;  stroke:#840000; stroke-width:0; stroke-opacity:1;  stroke-linecap:round; stroke-linejoin:round;"
       id="g1213">
      <path
         style="fill:#840000; fill-opacity:1.0;  stroke:#840000; stroke-width:0; stroke-opacity:1;  stroke-linecap:round; stroke-linejoin:round;fill-rule:evenodd;"
         d="M 7372.05,2784.68 7372.05,3139.01 7175.2,3139.01 7175.2,2784.68 Z"
         id="path1209" />
      <path
         style="fill:#840000; fill-opacity:1.0;  stroke:#840000; stroke-width:0; stroke-opacity:1;  stroke-linecap:round; stroke-linejoin:round;fill-rule:evenodd;"
         d="M 7962.6,2784.68 7962.6,3139.01 7765.75,3139.01 7765.75,2784.68 Z"
         id="path1211" />
    </g>
    <g
       id="g1215" />
    <g
       style="fill:#840000; fill-opacity:1.0;  stroke:#840000; stroke-width:0; stroke-opacity:1;  stroke-linecap:round; stroke-linejoin:round;"
       id="g1225">
      <path
         style="fill:#840000; fill-opacity:1.0;  stroke:#840000; stroke-width:0; stroke-opacity:1;  stroke-linecap:round; stroke-linejoin:round;fill-rule:evenodd;"
         d="M 28120.1,3709.87 27706.7,3709.87 27706.7,3158.69 28120.1,3158.69 Z"
         id="path1217" />
      <path
         style="fill:#840000; fill-opacity:1.0;  stroke:#840000; stroke-width:0; stroke-opacity:1;  stroke-linecap:round; stroke-linejoin:round;fill-rule:evenodd;"
         d="M 28120.1,5127.2 27706.7,5127.2 27706.7,4576.01 28120.1,4576.01 Z"
         id="path1219" />
      <path
         style="fill:#840000; fill-opacity:1.0;  stroke:#840000; stroke-width:0; stroke-opacity:1;  stroke-linecap:round; stroke-linejoin:round;fill-rule:evenodd;"
         d="M 27559.1,3709.87 27145.7,3709.87 27145.7,3158.69 27559.1,3158.69 Z"
         id="path1221" />
      <path
         style="fill:#840000; fill-opacity:1.0;  stroke:#840000; stroke-width:0; stroke-opacity:1;  stroke-linecap:round; stroke-linejoin:round;fill-rule:evenodd;"
         d="M 27559.1,5127.2 27145.7,5127.2 27145.7,4576.01 27559.1,4576.01 Z"
         id="path1223" />
    </g>
    <g
       id="g1227" />
    <g
       id="g1229" />
    <g
       id="g1231" />
    <g
       id="g1233" />
    <g
       id="g1235" />
    <g
       id="g1237" />
    <g
       id="g1239" />
    <g
       id="g1241" />
    <g
       style="fill:#840000; fill-opacity:1.0;  stroke:#840000; stroke-width:0; stroke-opacity:1;  stroke-linecap:round; stroke-linejoin:round;"
       id="g1247">
      <path
         style="fill:#840000; fill-opacity:1.0;  stroke:#840000; stroke-width:0; stroke-opacity:1;  stroke-linecap:round; stroke-linejoin:round;fill-rule:evenodd;"
         d="M 7372.05,5146.88 7372.05,5501.21 7175.2,5501.21 7175.2,5146.88 Z"
         id="path1243" />
      <path
         style="fill:#840000; fill-opacity:1.0;  stroke:#840000; stroke-width:0; stroke-opacity:1;  stroke-linecap:round; stroke-linejoin:round;fill-rule:evenodd;"
         d="M 7962.6,5146.88 7962.6,5501.21 7765.75,5501.21 7765.75,5146.88 Z"
         id="path1245" />
    </g>
    <g
       id="g1249" />
    <g
       style="fill:#840000; fill-opacity:1.0;  stroke:#840000; stroke-width:0; stroke-opacity:1;  stroke-linecap:round; stroke-linejoin:round;"
       id="g1255">
      <path
         style="fill:#840000; fill-opacity:1.0;  stroke:#840000; stroke-width:0; stroke-opacity:1;  stroke-linecap:round; stroke-linejoin:round;fill-rule:evenodd;"
         d="M 7765.75,4713.81 7765.75,4359.48 7962.6,4359.48 7962.6,4713.81 Z"
         id="path1251" />
      <path
         style="fill:#840000; fill-opacity:1.0;  stroke:#840000; stroke-width:0; stroke-opacity:1;  stroke-linecap:round; stroke-linejoin:round;fill-rule:evenodd;"
         d="M 7175.2,4713.81 7175.2,4359.48 7372.05,4359.48 7372.05,4713.81 Z"
         id="path1253" />
    </g>
    <g
       id="g1257" />
    <g
       style="fill:#840000; fill-opacity:1.0;  stroke:#840000; stroke-width:0; stroke-opacity:1;  stroke-linecap:round; stroke-linejoin:round;"
       id="g1263">
      <path
         style="fill:#840000; fill-opacity:1.0;  stroke:#840000; stroke-width:0; stroke-opacity:1;  stroke-linecap:round; stroke-linejoin:round;fill-rule:evenodd;"
         d="M 7175.2,3926.41 7175.2,3572.08 7372.05,3572.08 7372.05,3926.41 Z"
         id="path1259" />
      <path
         style="fill:#840000; fill-opacity:1.0;  stroke:#840000; stroke-width:0; stroke-opacity:1;  stroke-linecap:round; stroke-linejoin:round;fill-rule:evenodd;"
         d="M 7765.75,3926.41 7765.75,3572.08 7962.6,3572.08 7962.6,3926.41 Z"
         id="path1261" />
    </g>
    <g
       id="g1265" />
    <g
       style="fill:#840000; fill-opacity:1.0;  stroke:#840000; stroke-width:0; stroke-opacity:1;  stroke-linecap:round; stroke-linejoin:round;"
       id="g1271">
      <path
         style="fill:#840000; fill-opacity:1.0;  stroke:#840000; stroke-width:0; stroke-opacity:1;  stroke-linecap:round; stroke-linejoin:round;fill-rule:evenodd;"
         d="M 26368.1,4713.81 26368.1,4359.48 26565,4359.48 26565,4713.81 Z"
         id="path1267" />
      <path
         style="fill:#840000; fill-opacity:1.0;  stroke:#840000; stroke-width:0; stroke-opacity:1;  stroke-linecap:round; stroke-linejoin:round;fill-rule:evenodd;"
         d="M 25777.6,4713.81 25777.6,4359.48 25974.4,4359.48 25974.4,4713.81 Z"
         id="path1269" />
    </g>
    <g
       id="g1273" />
    <g
       style="fill:#840000; fill-opacity:1.0;  stroke:#840000; stroke-width:0; stroke-opacity:1;  stroke-linecap:round; stroke-linejoin:round;"
       id="g1279">
      <path
         style="fill:#840000; fill-opacity:1.0;  stroke:#840000; stroke-width:0; stroke-opacity:1;  stroke-linecap:round; stroke-linejoin:round;fill-rule:evenodd;"
         d="M 25777.6,5501.21 25777.6,5146.88 25974.4,5146.88 25974.4,5501.21 Z"
         id="path1275" />
      <path
         style="fill:#840000; fill-opacity:1.0;  stroke:#840000; stroke-width:0; stroke-opacity:1;  stroke-linecap:round; stroke-linejoin:round;fill-rule:evenodd;"
         d="M 26368.1,5501.21 26368.1,5146.88 26565,5146.88 26565,5501.21 Z"
         id="path1277" />
    </g>
    <g
       id="g1281" />
    <g
       style="fill:#840000; fill-opacity:1.0;  stroke:#840000; stroke-width:0; stroke-opacity:1;  stroke-linecap:round; stroke-linejoin:round;"
       id="g1287">
      <path
         style="fill:#840000; fill-opacity:1.0;  stroke:#840000; stroke-width:0; stroke-opacity:1;  stroke-linecap:round; stroke-linejoin:round;fill-rule:evenodd;"
         d="M 24202.8,5501.21 24202.8,5146.88 24399.6,5146.88 24399.6,5501.21 Z"
         id="path1283" />
      <path
         style="fill:#840000; fill-opacity:1.0;  stroke:#840000; stroke-width:0; stroke-opacity:1;  stroke-linecap:round; stroke-linejoin:round;fill-rule:evenodd;"
         d="M 24793.3,5501.21 24793.3,5146.88 24990.2,5146.88 24990.2,5501.21 Z"
         id="path1285" />
    </g>
    <g
       id="g1289" />
    <g
       id="g1297" />
    <g
       id="g1299" />
    <g
       id="g1301" />
    <g
       id="g1303" />
  </g>
  <g
     style="fill:#000000; fill-opacity:1.0;  stroke:#000000; stroke-width:0; stroke-opacity:1;  stroke-linecap:round; stroke-linejoin:round;"
     id="g1307" />
  <g
     style="fill:#C2C200; fill-opacity:1.0;  stroke:#C2C200; stroke-width:0; stroke-opacity:1;  stroke-linecap:round; stroke-linejoin:round;"
     id="g1309" />
  <g
     style="fill:#C2C200; fill-opacity:1.0;  stroke:#C2C200; stroke-width:59.0551; stroke-opacity:1;  stroke-linecap:round; stroke-linejoin:round;"
     id="g1311" />
  <g
     style="fill:#C2C200; fill-opacity:0.0;  stroke:#C2C200; stroke-width:59.0551; stroke-opacity:1;  stroke-linecap:round; stroke-linejoin:round;"
     id="g1375">
    <path
       d="M3730 2174 L27352 2174 "
       id="path1313" />
    <path
       d="M2942 5324 L2942 2961 "
       id="path1315" />
    <path
       d="M27352 6111 L3730 6111 "
       id="path1317" />
    <path
       d="M28139 5324 L28139 2961 "
       id="path1319" />
    <path
       d="M27352.4 6111.45 A787.402 787.402 0.0 0 0 28139.8 5324.05"
       id="path1321" />
    <path
       d="M28139.8 2961.84 A787.402 787.402 0.0 0 0 27352.4 2174.44"
       id="path1323" />
    <path
       d="M3730.32 2174.44 A787.402 787.402 0.0 0 0 2942.91 2961.84"
       id="path1325" />
    <path
       d="M2942.91 5324.05 A787.402 787.402 0.0 0 0 3730.32 6111.45"
       id="path1327" />
    <g
       id="g1329" />
    <g
       id="g1331" />
    <g
       id="g1333" />
    <g
       id="g1335" />
    <g
       id="g1337" />
    <g
       id="g1339" />
    <g
       id="g1341" />
    <g
       id="g1343" />
    <g
       id="g1345" />
    <g
       id="g1347" />
    <g
       id="g1349" />
    <g
       id="g1351" />
    <g
       id="g1353" />
    <g
       id="g1355" />
    <g
       id="g1357" />
    <g
       id="g1359" />
    <g
       id="g1361" />
    <g
       id="g1363" />
    <g
       id="g1365" />
    <g
       id="g1367" />
    <g
       id="g1369" />
    <g
       id="g1371" />
    <g
       id="g1373" />
  </g>
</svg>
