<?xml version="1.0" encoding="UTF-8" standalone="no"?>
<svg
   xmlns:dc="http://purl.org/dc/elements/1.1/"
   xmlns:cc="http://creativecommons.org/ns#"
   xmlns:rdf="http://www.w3.org/1999/02/22-rdf-syntax-ns#"
   xmlns:svg="http://www.w3.org/2000/svg"
   xmlns="http://www.w3.org/2000/svg"
   xmlns:sodipodi="http://sodipodi.sourceforge.net/DTD/sodipodi-0.dtd"
   xmlns:inkscape="http://www.inkscape.org/namespaces/inkscape"
   version="1.1"
   width="10.4064cm"
   height="4.19608cm"
   viewBox="0 0 40970 16520 "
   id="svg2"
   inkscape:version="0.91 r13725"
   sodipodi:docname="base-brd.svg">
  <metadata
     id="metadata460">
    <rdf:RDF>
      <cc:Work
         rdf:about="">
        <dc:format>image/svg+xml</dc:format>
        <dc:type
           rdf:resource="http://purl.org/dc/dcmitype/StillImage" />
      </cc:Work>
    </rdf:RDF>
  </metadata>
  <defs
     id="defs458" />
  <sodipodi:namedview
     pagecolor="#ffffff"
     bordercolor="#666666"
     borderopacity="1"
     objecttolerance="10"
     gridtolerance="10"
     guidetolerance="10"
     inkscape:pageopacity="0"
     inkscape:pageshadow="2"
     inkscape:window-width="1304"
     inkscape:window-height="746"
     id="namedview456"
     showgrid="false"
     inkscape:zoom="2.4392865"
     inkscape:cx="184.36535"
     inkscape:cy="74.340004"
     inkscape:window-x="54"
     inkscape:window-y="-8"
     inkscape:window-maximized="1"
     inkscape:current-layer="svg2" />
  <title
     id="title4">SVG Picture created as base-brd.svg date 2017/08/11 06:03:47 </title>
  <desc
     id="desc6">Picture generated by PCBNEW </desc>
  <g
     style="fill:#000000; fill-opacity:1;stroke:#000000; stroke-opacity:1; stroke-linecap:round; stroke-linejoin:round; "
     transform="translate(0 0) scale(1 1)"
     id="g8" />
  <g
     style="fill:#000000; fill-opacity:0.0;  stroke:#000000; stroke-width:-0.000393701; stroke-opacity:1;  stroke-linecap:round; stroke-linejoin:round;"
     id="g10" />
  <g
     style="fill:#840000; fill-opacity:0.0;  stroke:#840000; stroke-width:-0.000393701; stroke-opacity:1;  stroke-linecap:round; stroke-linejoin:round;"
     id="g12" />
  <g
     style="fill:#840000; fill-opacity:0.0;  stroke:#840000; stroke-width:0; stroke-opacity:1;  stroke-linecap:round; stroke-linejoin:round;"
     id="g14" />
  <g
     style="fill:#ff0000;fill-opacity:1;stroke:#840000;stroke-width:0;stroke-opacity:1;stroke-linecap:round;stroke-linejoin:round"
     id="g16">
    <polyline
       style="fill-rule:evenodd;fill:#ff0000"
       points="1421,8603 1421,8701 1756,8701 1756,8603 1421,8603 "
       id="polyline18" />
    <polyline
       style="fill-rule:evenodd;fill:#ff0000"
       points="1421,8406 1421,8504 1756,8504 1756,8406 1421,8406 "
       id="polyline20" />
    <polyline
       style="fill-rule:evenodd;fill:#ff0000"
       points="1421,8209 1421,8308 1756,8308 1756,8209 1421,8209 "
       id="polyline22" />
    <polyline
       style="fill-rule:evenodd;fill:#ff0000"
       points="1421,8012 1421,8111 1756,8111 1756,8012 1421,8012 "
       id="polyline24" />
    <polyline
       style="fill-rule:evenodd;fill:#ff0000"
       points="1421,7815 1421,7914 1756,7914 1756,7815 1421,7815 "
       id="polyline26" />
    <polyline
       style="fill-rule:evenodd;fill:#ff0000"
       points="1923,7510 1923,7845 2022,7845 2022,7510 1923,7510 "
       id="polyline28" />
    <polyline
       style="fill-rule:evenodd;fill:#ff0000"
       points="2120,7510 2120,7845 2219,7845 2219,7510 2120,7510 "
       id="polyline30" />
    <polyline
       style="fill-rule:evenodd;fill:#ff0000"
       points="2317,7510 2317,7845 2416,7845 2416,7510 2317,7510 "
       id="polyline32" />
    <polyline
       style="fill-rule:evenodd;fill:#ff0000"
       points="2583,7815 2583,7914 2918,7914 2918,7815 2583,7815 "
       id="polyline34" />
    <polyline
       style="fill-rule:evenodd;fill:#ff0000"
       points="2583,8012 2583,8111 2918,8111 2918,8012 2583,8012 "
       id="polyline36" />
    <polyline
       style="fill-rule:evenodd;fill:#ff0000"
       points="2583,8209 2583,8308 2918,8308 2918,8209 2583,8209 "
       id="polyline38" />
    <polyline
       style="fill-rule:evenodd;fill:#ff0000"
       points="2583,8406 2583,8504 2918,8504 2918,8406 2583,8406 "
       id="polyline40" />
    <polyline
       style="fill-rule:evenodd;fill:#ff0000"
       points="2583,8603 2583,8701 2918,8701 2918,8603 2583,8603 "
       id="polyline42" />
    <polyline
       style="fill-rule:evenodd;fill:#ff0000"
       points="2317,8672 2317,9006 2416,9006 2416,8672 2317,8672 "
       id="polyline44" />
    <polyline
       style="fill-rule:evenodd;fill:#ff0000"
       points="2120,8672 2120,9006 2219,9006 2219,8672 2120,8672 "
       id="polyline46" />
    <polyline
       style="fill-rule:evenodd;fill:#ff0000"
       points="1923,8672 1923,9006 2022,9006 2022,8672 1923,8672 "
       id="polyline48" />
  </g>
  <g
     style="fill:#840000; fill-opacity:1.0;  stroke:#840000; stroke-width:500; stroke-opacity:1;  stroke-linecap:round; stroke-linejoin:round;"
     id="g50" />
  <g
     style="fill:#840000; fill-opacity:1.0;  stroke:#840000; stroke-width:39.3701; stroke-opacity:1;  stroke-linecap:round; stroke-linejoin:round;"
     id="g84" />
  <g
     style="fill:#840000; fill-opacity:1.0;  stroke:#840000; stroke-width:39.3701; stroke-opacity:1;  stroke-linecap:round; stroke-linejoin:round;"
     id="g90" />
  <g
     style="fill:#840000; fill-opacity:1.0;  stroke:#840000; stroke-width:39.3701; stroke-opacity:1;  stroke-linecap:round; stroke-linejoin:round;"
     id="g96" />
  <g
     style="fill:#840000; fill-opacity:1.0;  stroke:#840000; stroke-width:500; stroke-opacity:1;  stroke-linecap:round; stroke-linejoin:round;"
     id="g98" />
  <g
     style="fill:#840000; fill-opacity:1.0;  stroke:#840000; stroke-width:39.3701; stroke-opacity:1;  stroke-linecap:round; stroke-linejoin:round;"
     id="g132" />
  <g
     style="fill:#840000; fill-opacity:1.0;  stroke:#840000; stroke-width:39.3701; stroke-opacity:1;  stroke-linecap:round; stroke-linejoin:round;"
     id="g138" />
  <g
     style="fill:#ff0000;fill-opacity:1;stroke:#840000;stroke-width:0;stroke-opacity:1;stroke-linecap:round;stroke-linejoin:round"
     id="g140">
    <polyline
       style="fill-rule:evenodd;fill:#ff0000"
       points="20207,5573 20207,4943 19813,4943 19813,5573 20207,5573 "
       id="polyline142" />
    <polyline
       style="fill-rule:evenodd;fill:#ff0000"
       points="19026,5573 19026,4943 18632,4943 18632,5573 19026,5573 "
       id="polyline144" />
  </g>
  <g
     style="fill:#840000; fill-opacity:1.0;  stroke:#840000; stroke-width:629.921; stroke-opacity:1;  stroke-linecap:round; stroke-linejoin:round;"
     id="g146" />
  <g
     style="fill:#840000; fill-opacity:0.0;  stroke:#840000; stroke-width:0; stroke-opacity:1;  stroke-linecap:round; stroke-linejoin:round;"
     id="g152" />
  <g
     style="fill:#840000; fill-opacity:1.0;  stroke:#840000; stroke-width:629.921; stroke-opacity:1;  stroke-linecap:round; stroke-linejoin:round;"
     id="g158" />
  <g
     style="fill:#840000; fill-opacity:0.0;  stroke:#840000; stroke-width:0; stroke-opacity:1;  stroke-linecap:round; stroke-linejoin:round;"
     id="g170" />
  <g
     style="fill:#ff0000;fill-opacity:1;stroke:#840000;stroke-width:0;stroke-opacity:1;stroke-linecap:round;stroke-linejoin:round"
     id="g172">
    <polyline
       style="fill-rule:evenodd;fill:#ff0000"
       points="3815,9132 4524,9132 4524,8503 3815,8503 3815,9132 "
       id="polyline174" />
    <polyline
       style="fill-rule:evenodd;fill:#ff0000"
       points="3815,8014 4524,8014 4524,7385 3815,7385 3815,8014 "
       id="polyline176" />
    <polyline
       style="fill-rule:evenodd;fill:#ff0000"
       points="5065,9132 5774,9132 5774,8503 5065,8503 5065,9132 "
       id="polyline178" />
    <polyline
       style="fill-rule:evenodd;fill:#ff0000"
       points="5065,8014 5774,8014 5774,7385 5065,7385 5065,8014 "
       id="polyline180" />
    <polyline
       style="fill-rule:evenodd;fill:#ff0000"
       points="6315,9132 7024,9132 7024,8503 6315,8503 6315,9132 "
       id="polyline182" />
    <polyline
       style="fill-rule:evenodd;fill:#ff0000"
       points="6315,8014 7024,8014 7024,7385 6315,7385 6315,8014 "
       id="polyline184" />
    <polyline
       style="fill-rule:evenodd;fill:#ff0000"
       points="7565,9132 8274,9132 8274,8503 7565,8503 7565,9132 "
       id="polyline186" />
    <polyline
       style="fill-rule:evenodd;fill:#ff0000"
       points="7565,8014 8274,8014 8274,7385 7565,7385 7565,8014 "
       id="polyline188" />
    <polyline
       style="fill-rule:evenodd;fill:#ff0000"
       points="8815,9132 9524,9132 9524,8503 8815,8503 8815,9132 "
       id="polyline190" />
    <polyline
       style="fill-rule:evenodd;fill:#ff0000"
       points="8815,8014 9524,8014 9524,7385 8815,7385 8815,8014 "
       id="polyline192" />
    <polyline
       style="fill-rule:evenodd;fill:#ff0000"
       points="10065,9132 10774,9132 10774,8503 10065,8503 10065,9132 "
       id="polyline194" />
    <polyline
       style="fill-rule:evenodd;fill:#ff0000"
       points="10065,8014 10774,8014 10774,7385 10065,7385 10065,8014 "
       id="polyline196" />
    <polyline
       style="fill-rule:evenodd;fill:#ff0000"
       points="11315,9132 12024,9132 12024,8503 11315,8503 11315,9132 "
       id="polyline198" />
    <polyline
       style="fill-rule:evenodd;fill:#ff0000"
       points="11315,8014 12024,8014 12024,7385 11315,7385 11315,8014 "
       id="polyline200" />
    <polyline
       style="fill-rule:evenodd;fill:#ff0000"
       points="12565,9132 13274,9132 13274,8503 12565,8503 12565,9132 "
       id="polyline202" />
    <polyline
       style="fill-rule:evenodd;fill:#ff0000"
       points="12565,8014 13274,8014 13274,7385 12565,7385 12565,8014 "
       id="polyline204" />
    <polyline
       style="fill-rule:evenodd;fill:#ff0000"
       points="3835,11256 4504,11256 4504,10902 3835,10902 3835,11256 "
       id="polyline206" />
    <polyline
       style="fill-rule:evenodd;fill:#ff0000"
       points="3835,10115 4504,10115 4504,9760 3835,9760 3835,10115 "
       id="polyline208" />
    <polyline
       style="fill-rule:evenodd;fill:#ff0000"
       points="5085,11256 5754,11256 5754,10902 5085,10902 5085,11256 "
       id="polyline210" />
    <polyline
       style="fill-rule:evenodd;fill:#ff0000"
       points="5085,10115 5754,10115 5754,9760 5085,9760 5085,10115 "
       id="polyline212" />
    <polyline
       style="fill-rule:evenodd;fill:#ff0000"
       points="6335,11256 7004,11256 7004,10902 6335,10902 6335,11256 "
       id="polyline214" />
    <polyline
       style="fill-rule:evenodd;fill:#ff0000"
       points="6335,10115 7004,10115 7004,9760 6335,9760 6335,10115 "
       id="polyline216" />
    <polyline
       style="fill-rule:evenodd;fill:#ff0000"
       points="7585,11256 8254,11256 8254,10902 7585,10902 7585,11256 "
       id="polyline218" />
    <polyline
       style="fill-rule:evenodd;fill:#ff0000"
       points="7585,10115 8254,10115 8254,9760 7585,9760 7585,10115 "
       id="polyline220" />
    <polyline
       style="fill-rule:evenodd;fill:#ff0000"
       points="8835,11256 9504,11256 9504,10902 8835,10902 8835,11256 "
       id="polyline222" />
    <polyline
       style="fill-rule:evenodd;fill:#ff0000"
       points="8835,10115 9504,10115 9504,9760 8835,9760 8835,10115 "
       id="polyline224" />
    <polyline
       style="fill-rule:evenodd;fill:#ff0000"
       points="10085,11256 10754,11256 10754,10902 10085,10902 10085,11256 "
       id="polyline226" />
    <polyline
       style="fill-rule:evenodd;fill:#ff0000"
       points="10085,10115 10754,10115 10754,9760 10085,9760 10085,10115 "
       id="polyline228" />
    <polyline
       style="fill-rule:evenodd;fill:#ff0000"
       points="11335,11256 12004,11256 12004,10902 11335,10902 11335,11256 "
       id="polyline230" />
    <polyline
       style="fill-rule:evenodd;fill:#ff0000"
       points="11335,10115 12004,10115 12004,9760 11335,9760 11335,10115 "
       id="polyline232" />
    <polyline
       style="fill-rule:evenodd;fill:#ff0000"
       points="12585,11256 13254,11256 13254,10902 12585,10902 12585,11256 "
       id="polyline234" />
    <polyline
       style="fill-rule:evenodd;fill:#ff0000"
       points="12585,10115 13254,10115 13254,9760 12585,9760 12585,10115 "
       id="polyline236" />
    <polyline
       style="fill-rule:evenodd;fill:#ff0000"
       points="23167,10587 23167,10980 24427,10980 24427,10587 23167,10587 "
       id="polyline238" />
    <polyline
       style="fill-rule:evenodd;fill:#ff0000"
       points="23167,12161 23167,12555 24427,12555 24427,12161 23167,12161 "
       id="polyline240" />
    <polyline
       style="fill-rule:evenodd;fill:#ff0000"
       points="20490,12161 20490,12555 21749,12555 21749,12161 20490,12161 "
       id="polyline242" />
    <polyline
       style="fill-rule:evenodd;fill:#ff0000"
       points="20490,10587 20490,10980 21749,10980 21749,10587 20490,10587 "
       id="polyline244" />
  </g>
  <g
     style="fill:#840000; fill-opacity:1.0;  stroke:#840000; stroke-width:39.3701; stroke-opacity:1;  stroke-linecap:round; stroke-linejoin:round;"
     id="g248" />
  <g
     style="fill:#ff0000;fill-opacity:1;stroke:#840000;stroke-width:0;stroke-opacity:1;stroke-linecap:round;stroke-linejoin:round"
     id="g250">
    <polyline
       style="fill-rule:evenodd;fill:#ff0000"
       points="21199,5266 21199,6250 21671,6250 21671,5266 21199,5266 "
       id="polyline252" />
    <polyline
       style="fill-rule:evenodd;fill:#ff0000"
       points="22199,5266 22199,6250 22671,6250 22671,5266 22199,5266 "
       id="polyline254" />
    <polyline
       style="fill-rule:evenodd;fill:#ff0000"
       points="23168,5266 23168,6250 23640,6250 23640,5266 23168,5266 "
       id="polyline256" />
  </g>
  <g
     style="fill:#840000; fill-opacity:1.0;  stroke:#840000; stroke-width:39.3701; stroke-opacity:1;  stroke-linecap:round; stroke-linejoin:round;"
     id="g260" />
  <g
     style="fill:#ff0000;fill-opacity:1;stroke:#840000;stroke-width:0;stroke-opacity:1;stroke-linecap:round;stroke-linejoin:round"
     id="g262">
    <polyline
       style="fill-rule:evenodd;fill:#ff0000"
       points="20944,6658 20494,6658 20494,6858 20944,6858 20944,6658 "
       id="polyline264" />
    <polyline
       style="fill-rule:evenodd;fill:#ff0000"
       points="20944,7158 20494,7158 20494,7358 20944,7358 20944,7158 "
       id="polyline266" />
    <polyline
       style="fill-rule:evenodd;fill:#ff0000"
       points="20944,7658 20494,7658 20494,7858 20944,7858 20944,7658 "
       id="polyline268" />
    <polyline
       style="fill-rule:evenodd;fill:#ff0000"
       points="20944,8158 20494,8158 20494,8358 20944,8358 20944,8158 "
       id="polyline270" />
    <polyline
       style="fill-rule:evenodd;fill:#ff0000"
       points="20944,8658 20494,8658 20494,8858 20944,8858 20944,8658 "
       id="polyline272" />
    <polyline
       style="fill-rule:evenodd;fill:#ff0000"
       points="20944,9158 20494,9158 20494,9358 20944,9358 20944,9158 "
       id="polyline274" />
    <polyline
       style="fill-rule:evenodd;fill:#ff0000"
       points="20944,9658 20494,9658 20494,9858 20944,9858 20944,9658 "
       id="polyline276" />
    <polyline
       style="fill-rule:evenodd;fill:#ff0000"
       points="18444,9658 17994,9658 17994,9858 18444,9858 18444,9658 "
       id="polyline278" />
    <polyline
       style="fill-rule:evenodd;fill:#ff0000"
       points="18444,9158 17994,9158 17994,9358 18444,9358 18444,9158 "
       id="polyline280" />
    <polyline
       style="fill-rule:evenodd;fill:#ff0000"
       points="18444,8158 17994,8158 17994,8358 18444,8358 18444,8158 "
       id="polyline282" />
    <polyline
       style="fill-rule:evenodd;fill:#ff0000"
       points="18444,7658 17994,7658 17994,7858 18444,7858 18444,7658 "
       id="polyline284" />
    <polyline
       style="fill-rule:evenodd;fill:#ff0000"
       points="18444,7158 17994,7158 17994,7358 18444,7358 18444,7158 "
       id="polyline286" />
    <polyline
       style="fill-rule:evenodd;fill:#ff0000"
       points="18444,6658 17994,6658 17994,6858 18444,6858 18444,6658 "
       id="polyline288" />
    <polyline
       style="fill-rule:evenodd;fill:#ff0000"
       points="18444,8658 17994,8658 17994,8858 18444,8858 18444,8658 "
       id="polyline290" />
    <polyline
       style="fill-rule:evenodd;fill:#ff0000"
       points="8234,5221 7605,5221 7605,5615 8234,5615 8234,5221 "
       id="polyline292" />
    <polyline
       style="fill-rule:evenodd;fill:#ff0000"
       points="8234,6402 7605,6402 7605,6796 8234,6796 8234,6402 "
       id="polyline294" />
    <polyline
       style="fill-rule:evenodd;fill:#ff0000"
       points="6984,5221 6355,5221 6355,5615 6984,5615 6984,5221 "
       id="polyline296" />
    <polyline
       style="fill-rule:evenodd;fill:#ff0000"
       points="6984,6402 6355,6402 6355,6796 6984,6796 6984,6402 "
       id="polyline298" />
    <polyline
       style="fill-rule:evenodd;fill:#ff0000"
       points="10854,5210 10185,5210 10185,5565 10854,5565 10854,5210 "
       id="polyline300" />
    <polyline
       style="fill-rule:evenodd;fill:#ff0000"
       points="10854,6352 10185,6352 10185,6706 10854,6706 10854,6352 "
       id="polyline302" />
    <polyline
       style="fill-rule:evenodd;fill:#ff0000"
       points="9554,5210 8885,5210 8885,5565 9554,5565 9554,5210 "
       id="polyline304" />
    <polyline
       style="fill-rule:evenodd;fill:#ff0000"
       points="9554,6352 8885,6352 8885,6706 9554,6706 9554,6352 "
       id="polyline306" />
    <polyline
       style="fill-rule:evenodd;fill:#ff0000"
       points="5085,6756 5754,6756 5754,6402 5085,6402 5085,6756 "
       id="polyline308" />
    <polyline
       style="fill-rule:evenodd;fill:#ff0000"
       points="5085,5615 5754,5615 5754,5260 5085,5260 5085,5615 "
       id="polyline310" />
    <polyline
       style="fill-rule:evenodd;fill:#ff0000"
       points="3835,6756 4504,6756 4504,6402 3835,6402 3835,6756 "
       id="polyline312" />
    <polyline
       style="fill-rule:evenodd;fill:#ff0000"
       points="3835,5615 4504,5615 4504,5260 3835,5260 3835,5615 "
       id="polyline314" />
  </g>
  <g
     style="fill:#840000; fill-opacity:1.0;  stroke:#840000; stroke-width:39.3701; stroke-opacity:1;  stroke-linecap:round; stroke-linejoin:round;"
     id="g318" />
  <g
     style="fill:#ff0000;fill-opacity:1;stroke:#840000;stroke-width:0;stroke-opacity:1;stroke-linecap:round;stroke-linejoin:round"
     id="g320">
    <polyline
       style="fill-rule:evenodd;fill:#ff0000"
       points="33919,9258 33919,7258 32919,7258 32919,9258 33919,9258 "
       id="polyline322" />
    <polyline
       style="fill-rule:evenodd;fill:#ff0000"
       points="24919,9258 24919,7258 23919,7258 23919,9258 24919,9258 "
       id="polyline324" />
    <circle
       cx="15920"
       cy="5158.82"
       r="65"
       id="circle326"
       style="fill:#ff0000" />
  </g>
  <g
     style="fill:#840000; fill-opacity:1.0;  stroke:#840000; stroke-width:39.3701; stroke-opacity:1;  stroke-linecap:round; stroke-linejoin:round;"
     id="g328" />
  <g
     style="fill:#840000; fill-opacity:1.0;  stroke:#840000; stroke-width:39.3701; stroke-opacity:1;  stroke-linecap:round; stroke-linejoin:round;"
     id="g334" />
  <g
     style="fill:#840000; fill-opacity:1.0;  stroke:#840000; stroke-width:39.3701; stroke-opacity:1;  stroke-linecap:round; stroke-linejoin:round;"
     id="g340" />
  <g
     style="fill:#840000; fill-opacity:1.0;  stroke:#840000; stroke-width:39.3701; stroke-opacity:1;  stroke-linecap:round; stroke-linejoin:round;"
     id="g346" />
  <g
     style="fill:#840000; fill-opacity:1.0;  stroke:#840000; stroke-width:39.3701; stroke-opacity:1;  stroke-linecap:round; stroke-linejoin:round;"
     id="g352" />
  <g
     style="fill:#840000; fill-opacity:1.0;  stroke:#840000; stroke-width:39.3701; stroke-opacity:1;  stroke-linecap:round; stroke-linejoin:round;"
     id="g358" />
  <g
     style="fill:#840000; fill-opacity:1.0;  stroke:#840000; stroke-width:39.3701; stroke-opacity:1;  stroke-linecap:round; stroke-linejoin:round;"
     id="g364" />
  <g
     style="fill:#840000; fill-opacity:1.0;  stroke:#840000; stroke-width:39.3701; stroke-opacity:1;  stroke-linecap:round; stroke-linejoin:round;"
     id="g370" />
  <g
     style="fill:#840000; fill-opacity:1.0;  stroke:#840000; stroke-width:39.3701; stroke-opacity:1;  stroke-linecap:round; stroke-linejoin:round;"
     id="g376" />
  <g
     style="fill:#840000; fill-opacity:1.0;  stroke:#840000; stroke-width:39.3701; stroke-opacity:1;  stroke-linecap:round; stroke-linejoin:round;"
     id="g382" />
  <g
     style="fill:#840000; fill-opacity:1.0;  stroke:#840000; stroke-width:39.3701; stroke-opacity:1;  stroke-linecap:round; stroke-linejoin:round;"
     id="g388" />
  <g
     style="fill:#840000; fill-opacity:1.0;  stroke:#840000; stroke-width:39.3701; stroke-opacity:1;  stroke-linecap:round; stroke-linejoin:round;"
     id="g394" />
  <g
     style="fill:#840000; fill-opacity:1.0;  stroke:#840000; stroke-width:39.3701; stroke-opacity:1;  stroke-linecap:round; stroke-linejoin:round;"
     id="g400" />
  <g
     style="fill:#840000; fill-opacity:1.0;  stroke:#840000; stroke-width:39.3701; stroke-opacity:1;  stroke-linecap:round; stroke-linejoin:round;"
     id="g406" />
  <g
     style="fill:#840000; fill-opacity:1.0;  stroke:#840000; stroke-width:39.3701; stroke-opacity:1;  stroke-linecap:round; stroke-linejoin:round;"
     id="g412" />
  <g
     style="fill:#840000; fill-opacity:1.0;  stroke:#840000; stroke-width:39.3701; stroke-opacity:1;  stroke-linecap:round; stroke-linejoin:round;"
     id="g418" />
  <g
     style="fill:#840000; fill-opacity:1.0;  stroke:#840000; stroke-width:39.3701; stroke-opacity:1;  stroke-linecap:round; stroke-linejoin:round;"
     id="g424" />
  <g
     style="fill:#840000; fill-opacity:1.0;  stroke:#840000; stroke-width:39.3701; stroke-opacity:1;  stroke-linecap:round; stroke-linejoin:round;"
     id="g430" />
  <g
     style="fill:#840000; fill-opacity:1.0;  stroke:#840000; stroke-width:39.3701; stroke-opacity:1;  stroke-linecap:round; stroke-linejoin:round;"
     id="g436" />
  <g
     style="fill:#840000; fill-opacity:1.0;  stroke:#840000; stroke-width:39.3701; stroke-opacity:1;  stroke-linecap:round; stroke-linejoin:round;"
     id="g442" />
  <g
     style="fill:#840000; fill-opacity:1.0;  stroke:#840000; stroke-width:39.3701; stroke-opacity:1;  stroke-linecap:round; stroke-linejoin:round;"
     id="g448" />
  <g
     style="fill:#840000; fill-opacity:1.0;  stroke:#840000; stroke-width:39.3701; stroke-opacity:1;  stroke-linecap:round; stroke-linejoin:round;"
     id="g454" />
</svg>
