%
M48
METRIC,000.000
T01C0.41
T02C0.51
T03C0.51
T04C0.61
T05C0.81
T06C0.84
T07C0.89
T08C0.99
T09C1.09
T10C3.25
T11C3.51
T12C0.50
%
T01
X001199Y009249
X001300Y010100
X001498Y008500
X004399Y010849
X004750Y013001
X004750Y011748
X004998Y007750
X009499Y033498
X009748Y042000
X011498Y052249
X011498Y043999
X012250Y018500
X013200Y018500
X016749Y009500
X017500Y008749
X018750Y089500
X018750Y088500
X021999Y007499
X023500Y090250
X025999Y007499
X035199Y009249
X035300Y010100
X035498Y008500
X038399Y010849
X038750Y013001
X038750Y011748
X038998Y007750
X043499Y033498
X043748Y042000
X045498Y052249
X045498Y043999
X046250Y018500
X047200Y018500
X050748Y009500
X051500Y008749
X052750Y089500
X052750Y088500
X055999Y007499
X057500Y090250
X059999Y007499
X069199Y009249
X069300Y010100
X069498Y008500
X072399Y010849
X072750Y013001
X072750Y011748
X072998Y007750
X077499Y033498
X077748Y042000
X079498Y052249
X079498Y043999
X080250Y018500
X081200Y018500
X084748Y009500
X085500Y008749
X086750Y089500
X086750Y088500
X089999Y007499
X091500Y090250
X093999Y007499
T02
X004000Y033999
X004000Y032749
X004000Y031499
X004000Y030250
X038000Y033999
X038000Y032749
X038000Y031499
X038000Y030250
X059750Y018749
X059750Y016209
X059750Y013669
X062290Y018749
X062290Y016209
X062290Y013669
X072000Y033999
X072000Y032749
X072000Y031499
X072000Y030250
X093750Y018749
X093750Y016209
X093750Y013669
X096290Y018749
X096290Y016209
X096290Y013669
T03
X025750Y018749
X025750Y016209
X025750Y013669
X028290Y018749
X028290Y016209
X028290Y013669
T04
X-040271Y136211G85X-040271Y136211
X-040271Y136211G85X-040271Y136211
X-006271Y136211G85X-006271Y136211
X-006271Y136211G85X-006271Y136211
X027728Y136211G85X027728Y136211
X027728Y136211G85X027728Y136211
T05
X019730Y097999
X019730Y002000
X022270Y097999
X022270Y002000
X053730Y097999
X053730Y002000
X056270Y097999
X056270Y002000
X087730Y097999
X087730Y002000
X090270Y097999
X090270Y002000
T06
X004351Y045500
X004351Y040499
X038351Y045500
X038351Y040499
X072351Y045500
X072351Y040499
T07
X011999Y063000
X011999Y060460
X011999Y057920
X011999Y055380
X014539Y061730
X014539Y059190
X014539Y056650
X014539Y054110
X019710Y046998
X019748Y052000
X022250Y046998
X022288Y052000
X024998Y097999
X025999Y002000
X027538Y097999
X028539Y002000
X045999Y063000
X045999Y060460
X045999Y057920
X045999Y055380
X048539Y061730
X048539Y059190
X048539Y056650
X048539Y054110
X053710Y046998
X053748Y052000
X056250Y046998
X056288Y052000
X058998Y097999
X059999Y002000
X061538Y097999
X062539Y002000
X079999Y063000
X079999Y060460
X079999Y057920
X079999Y055380
X082539Y061730
X082539Y059190
X082539Y056650
X082539Y054110
X087710Y046998
X087748Y052000
X090250Y046998
X090288Y052000
X092998Y097999
X093999Y002000
X095538Y097999
X096539Y002000
T08
X021000Y060999
X021000Y058459
X021000Y055919
X021000Y043000
X021000Y040460
X021000Y037920
X055000Y060999
X055000Y058459
X055000Y055919
X055000Y043000
X055000Y040460
X055000Y037920
X089000Y060999
X089000Y058459
X089000Y055919
X089000Y043000
X089000Y040460
X089000Y037920
T09
X003500Y098499
X003500Y093999
X010000Y098499
X010000Y093999
X037500Y098499
X037500Y093999
X044000Y098499
X044000Y093999
X071500Y098499
X071500Y093999
X078000Y098499
X078000Y093999
T10
X005649Y064489
X005649Y052619
X039649Y064489
X039649Y052619
X073649Y064489
X073649Y052619
T11
X014000Y074999
X014000Y025000
X014998Y096998
X014998Y040001
X014998Y003001
X028001Y074999
X028001Y025000
X048000Y074999
X048000Y025000
X048998Y096998
X048998Y040001
X048998Y003001
X062001Y074999
X062001Y025000
X082000Y074999
X082000Y025000
X082998Y096998
X082998Y040001
X082998Y003001
X096001Y074999
X096001Y025000
T12
X031250Y077469
X031250Y078469
X031250Y079469
X031250Y080469
X031250Y081469
X031250Y082469
X033749Y082592
X033749Y081592
X033749Y080592
X033749Y079592
X033749Y078592
X033749Y077592
X065250Y077469
X065250Y078469
X065250Y079469
X065250Y080469
X065250Y081469
X065250Y082469
X067749Y082592
X067749Y081592
X067749Y080592
X067749Y079592
X067749Y078592
X067749Y077592
X031250Y018469
X031250Y019469
X031250Y020469
X031250Y021469
X031250Y022469
X033749Y022592
X033749Y021592
X033749Y020592
X033749Y019592
X033749Y018592
X033749Y017592
X065250Y017469
X065250Y018469
X065250Y019469
X065250Y020469
X065250Y021469
X065250Y022469
X067749Y022592
X067749Y021592
X067749Y020592
X067749Y019592
X067749Y018592
X067749Y017592
M30