%MOIN*%
%OFA0B0*%
%FSLAX46Y46*%
%IPPOS*%
%LPD*%
%ADD10C,0.0039370078740157488*%
%ADD11R,0.066929133858267723X0.066929133858267723*%
%ADD12O,0.066929133858267723X0.066929133858267723*%
%ADD13R,0.035433070866141732X0.066929133858267723*%
%ADD14R,0.059055118110236227X0.021653543307086617*%
%ADD15R,0.021653543307086617X0.059055118110236227*%
%ADD16R,0.074803149606299218X0.059055118110236227*%
%ADD17C,0.057086614173228349*%
%ADD18R,0.053149606299212608X0.015748031496062995*%
%ADD19O,0.074803149606299218X0.047244094488188976*%
%ADD20R,0.074803149606299218X0.047244094488188976*%
%ADD21R,0.015748031496062995X0.070866141732283464*%
%ADD22R,0.033464566929133861X0.033464566929133861*%
%ADD23C,0.033464566929133861*%
%ADD24C,0.1437007874015748*%
%ADD25R,0.059055118110236227X0.059055118110236227*%
%ADD26C,0.059055118110236227*%
%ADD27C,0.07874015748031496*%
%ADD28C,0.066*%
%ADD29R,0.070866141732283464X0.070866141732283464*%
%ADD30C,0.070866141732283464*%
%ADD31R,0.027559055118110236X0.051181102362204731*%
%ADD32R,0.03937007874015748X0.049212598425196853*%
%ADD33R,0.049212598425196853X0.03937007874015748*%
%ADD44C,0.0039370078740157488*%
%ADD45R,0.066929133858267723X0.066929133858267723*%
%ADD46O,0.066929133858267723X0.066929133858267723*%
%ADD47R,0.035433070866141732X0.066929133858267723*%
%ADD48R,0.059055118110236227X0.021653543307086617*%
%ADD49R,0.021653543307086617X0.059055118110236227*%
%ADD50R,0.074803149606299218X0.059055118110236227*%
%ADD51C,0.057086614173228349*%
%ADD52R,0.053149606299212608X0.015748031496062995*%
%ADD53O,0.074803149606299218X0.047244094488188976*%
%ADD54R,0.074803149606299218X0.047244094488188976*%
%ADD55R,0.015748031496062995X0.070866141732283464*%
%ADD56R,0.033464566929133861X0.033464566929133861*%
%ADD57C,0.033464566929133861*%
%ADD58C,0.1437007874015748*%
%ADD59R,0.059055118110236227X0.059055118110236227*%
%ADD60C,0.059055118110236227*%
%ADD61C,0.07874015748031496*%
%ADD62C,0.066*%
%ADD63R,0.070866141732283464X0.070866141732283464*%
%ADD64C,0.070866141732283464*%
%ADD65R,0.027559055118110236X0.051181102362204731*%
%ADD66R,0.03937007874015748X0.049212598425196853*%
%ADD67R,0.049212598425196853X0.03937007874015748*%
%ADD68C,0.0039370078740157488*%
%ADD69R,0.066929133858267723X0.066929133858267723*%
%ADD70O,0.066929133858267723X0.066929133858267723*%
%ADD71R,0.035433070866141732X0.066929133858267723*%
%ADD72R,0.059055118110236227X0.021653543307086617*%
%ADD73R,0.021653543307086617X0.059055118110236227*%
%ADD74R,0.074803149606299218X0.059055118110236227*%
%ADD75C,0.057086614173228349*%
%ADD76R,0.053149606299212608X0.015748031496062995*%
%ADD77O,0.074803149606299218X0.047244094488188976*%
%ADD78R,0.074803149606299218X0.047244094488188976*%
%ADD79R,0.015748031496062995X0.070866141732283464*%
%ADD80R,0.033464566929133861X0.033464566929133861*%
%ADD81C,0.033464566929133861*%
%ADD82C,0.1437007874015748*%
%ADD83R,0.059055118110236227X0.059055118110236227*%
%ADD84C,0.059055118110236227*%
%ADD85C,0.07874015748031496*%
%ADD86C,0.066*%
%ADD87R,0.070866141732283464X0.070866141732283464*%
%ADD88C,0.070866141732283464*%
%ADD89R,0.027559055118110236X0.051181102362204731*%
%ADD90R,0.03937007874015748X0.049212598425196853*%
%ADD91R,0.049212598425196853X0.03937007874015748*%
G01*
D10*
D11*
X-0001585590Y0005362952D02*
X0001013779Y0000738188D03*
D12*
X0001113779Y0000738188D03*
X0001013779Y0000638188D03*
X0001113779Y0000638188D03*
X0001013779Y0000538188D03*
X0001113779Y0000538188D03*
D13*
X0000411417Y0001850393D03*
X0000297244Y0001850393D03*
D14*
X0000559055Y0000275590D03*
X0000559055Y0000307086D03*
X0000559055Y0000338582D03*
X0000559055Y0000370078D03*
X0000559055Y0000401574D03*
X0000559055Y0000433070D03*
X0000559055Y0000464566D03*
X0000559055Y0000496062D03*
X0000559055Y0000527558D03*
X0000559055Y0000559054D03*
X0000559055Y0000590550D03*
D15*
X0000492126Y0000657480D03*
X0000460629Y0000657480D03*
X0000429133Y0000657480D03*
X0000397637Y0000657480D03*
X0000366141Y0000657480D03*
X0000334645Y0000657480D03*
X0000303149Y0000657480D03*
X0000271653Y0000657480D03*
X0000240157Y0000657480D03*
X0000208661Y0000657480D03*
X0000177165Y0000657480D03*
D14*
X0000110236Y0000590550D03*
X0000110236Y0000559054D03*
X0000110236Y0000527558D03*
X0000110236Y0000496062D03*
X0000110236Y0000464566D03*
X0000110236Y0000433070D03*
X0000110236Y0000401574D03*
X0000110236Y0000370078D03*
X0000110236Y0000338582D03*
X0000110236Y0000307086D03*
X0000110236Y0000275590D03*
D15*
X0000177165Y0000208661D03*
X0000208661Y0000208661D03*
X0000240157Y0000208661D03*
X0000271653Y0000208661D03*
X0000303149Y0000208661D03*
X0000334645Y0000208661D03*
X0000366141Y0000208661D03*
X0000397637Y0000208661D03*
X0000429133Y0000208661D03*
X0000460629Y0000208661D03*
X0000492126Y0000208661D03*
D16*
X0000064960Y0001653543D03*
D17*
X0000171259Y0001791338D03*
D18*
X0000171259Y0001718503D03*
X0000171259Y0001744094D03*
X0000171259Y0001641732D03*
X0000171259Y0001667322D03*
X0000171259Y0001692913D03*
D17*
X0000171259Y0001594487D03*
D16*
X0000064960Y0001732283D03*
D19*
X0000064960Y0001830708D03*
X0000064960Y0001555117D03*
D20*
X0000064960Y0001578739D03*
X0000064960Y0001807086D03*
D21*
X0000307086Y0000787401D03*
X0000354330Y0000787401D03*
X0000401574Y0000787401D03*
D22*
X0000157480Y0001338582D03*
D23*
X0000157480Y0001289369D03*
X0000157480Y0001240157D03*
X0000157480Y0001190944D03*
D24*
X0000222440Y0002071653D03*
X0000222440Y0002538976D03*
D25*
X0000472440Y0002480314D03*
D26*
X0000572440Y0002430314D03*
X0000472440Y0002380314D03*
X0000572440Y0002330314D03*
X0000472440Y0002280314D03*
X0000572440Y0002230314D03*
X0000472440Y0002180314D03*
X0000572440Y0002130314D03*
D27*
X0000393700Y0003700787D03*
X0000393700Y0003877952D03*
X0000137795Y0003700787D03*
X0000137795Y0003877952D03*
D28*
X0000776771Y0000078739D03*
X0000876771Y0000078739D03*
X0000876771Y0003858267D03*
X0000776771Y0003858267D03*
D29*
X0000875984Y0001850393D03*
D30*
X0000775984Y0001850393D03*
D29*
X0000777559Y0002047243D03*
D30*
X0000877559Y0002047243D03*
D31*
X0001064960Y0001181102D03*
X0001139763Y0001181102D03*
X0001064960Y0001299212D03*
X0001139763Y0001299212D03*
X0000352362Y0001653543D03*
X0000277559Y0001653543D03*
X0000352362Y0001732283D03*
X0000277559Y0001732283D03*
X0000986220Y0001850393D03*
X0001061023Y0001850393D03*
X0000986220Y0002007873D03*
X0001061023Y0002007873D03*
X0000864173Y0000236220D03*
X0000789370Y0000236220D03*
X0001100393Y0000236220D03*
X0001025590Y0000236220D03*
X0001061023Y0003661417D03*
X0000986220Y0003661417D03*
X0000789370Y0003661417D03*
X0000864173Y0003661417D03*
D32*
X0000177165Y0000078739D03*
X0000255905Y0000078739D03*
X0000433070Y0000078739D03*
X0000354330Y0000078739D03*
D33*
X0000748031Y0000472440D03*
X0000748031Y0000393700D03*
D29*
X0000984252Y0003858267D03*
D30*
X0001084252Y0003858267D03*
D29*
X0001023622Y0000078739D03*
D30*
X0001123622Y0000078739D03*
D11*
X0000826771Y0001692913D03*
D12*
X0000826771Y0001592913D03*
X0000826771Y0001492913D03*
D11*
X0000826771Y0002401574D03*
D12*
X0000826771Y0002301574D03*
X0000826771Y0002201574D03*
G04 next file*
G04 #@! TF.FileFunction,Soldermask,Top*
G04 Gerber Fmt 4.6, Leading zero omitted, Abs format (unit mm)*
G04 Created by KiCad (PCBNEW 4.0.6) date 06/30/20 08:24:00*
G01*
G04 APERTURE LIST*
G04 APERTURE END LIST*
D44*
D45*
X-0000247007Y0005362952D02*
X0002352362Y0000738188D03*
D46*
X0002452362Y0000738188D03*
X0002352362Y0000638188D03*
X0002452362Y0000638188D03*
X0002352362Y0000538188D03*
X0002452362Y0000538188D03*
D47*
X0001749999Y0001850393D03*
X0001635826Y0001850393D03*
D48*
X0001897637Y0000275590D03*
X0001897637Y0000307086D03*
X0001897637Y0000338582D03*
X0001897637Y0000370078D03*
X0001897637Y0000401574D03*
X0001897637Y0000433070D03*
X0001897637Y0000464566D03*
X0001897637Y0000496062D03*
X0001897637Y0000527558D03*
X0001897637Y0000559054D03*
X0001897637Y0000590550D03*
D49*
X0001830708Y0000657480D03*
X0001799212Y0000657480D03*
X0001767716Y0000657480D03*
X0001736220Y0000657480D03*
X0001704724Y0000657480D03*
X0001673228Y0000657480D03*
X0001641732Y0000657480D03*
X0001610236Y0000657480D03*
X0001578740Y0000657480D03*
X0001547244Y0000657480D03*
X0001515747Y0000657480D03*
D48*
X0001448818Y0000590550D03*
X0001448818Y0000559054D03*
X0001448818Y0000527558D03*
X0001448818Y0000496062D03*
X0001448818Y0000464566D03*
X0001448818Y0000433070D03*
X0001448818Y0000401574D03*
X0001448818Y0000370078D03*
X0001448818Y0000338582D03*
X0001448818Y0000307086D03*
X0001448818Y0000275590D03*
D49*
X0001515747Y0000208661D03*
X0001547244Y0000208661D03*
X0001578740Y0000208661D03*
X0001610236Y0000208661D03*
X0001641732Y0000208661D03*
X0001673228Y0000208661D03*
X0001704724Y0000208661D03*
X0001736220Y0000208661D03*
X0001767716Y0000208661D03*
X0001799212Y0000208661D03*
X0001830708Y0000208661D03*
D50*
X0001403543Y0001653543D03*
D51*
X0001509842Y0001791338D03*
D52*
X0001509842Y0001718503D03*
X0001509842Y0001744094D03*
X0001509842Y0001641732D03*
X0001509842Y0001667322D03*
X0001509842Y0001692913D03*
D51*
X0001509842Y0001594487D03*
D50*
X0001403543Y0001732283D03*
D53*
X0001403543Y0001830708D03*
X0001403543Y0001555117D03*
D54*
X0001403543Y0001578739D03*
X0001403543Y0001807086D03*
D55*
X0001645669Y0000787401D03*
X0001692913Y0000787401D03*
X0001740157Y0000787401D03*
D56*
X0001496062Y0001338582D03*
D57*
X0001496062Y0001289369D03*
X0001496062Y0001240157D03*
X0001496062Y0001190944D03*
D58*
X0001561023Y0002071653D03*
X0001561023Y0002538976D03*
D59*
X0001811023Y0002480314D03*
D60*
X0001911023Y0002430314D03*
X0001811023Y0002380314D03*
X0001911023Y0002330314D03*
X0001811023Y0002280314D03*
X0001911023Y0002230314D03*
X0001811023Y0002180314D03*
X0001911023Y0002130314D03*
D61*
X0001732283Y0003700787D03*
X0001732283Y0003877952D03*
X0001476377Y0003700787D03*
X0001476377Y0003877952D03*
D62*
X0002115354Y0000078739D03*
X0002215354Y0000078739D03*
X0002215354Y0003858267D03*
X0002115354Y0003858267D03*
D63*
X0002214566Y0001850393D03*
D64*
X0002114566Y0001850393D03*
D63*
X0002116141Y0002047243D03*
D64*
X0002216141Y0002047243D03*
D65*
X0002403543Y0001181102D03*
X0002478346Y0001181102D03*
X0002403543Y0001299212D03*
X0002478346Y0001299212D03*
X0001690944Y0001653543D03*
X0001616141Y0001653543D03*
X0001690944Y0001732283D03*
X0001616141Y0001732283D03*
X0002324803Y0001850393D03*
X0002399606Y0001850393D03*
X0002324803Y0002007873D03*
X0002399606Y0002007873D03*
X0002202755Y0000236220D03*
X0002127952Y0000236220D03*
X0002438976Y0000236220D03*
X0002364173Y0000236220D03*
X0002399606Y0003661417D03*
X0002324803Y0003661417D03*
X0002127952Y0003661417D03*
X0002202755Y0003661417D03*
D66*
X0001515747Y0000078739D03*
X0001594488Y0000078739D03*
X0001771653Y0000078739D03*
X0001692913Y0000078739D03*
D67*
X0002086614Y0000472440D03*
X0002086614Y0000393700D03*
D63*
X0002322834Y0003858267D03*
D64*
X0002422834Y0003858267D03*
D63*
X0002362204Y0000078739D03*
D64*
X0002462204Y0000078739D03*
D45*
X0002165354Y0001692913D03*
D46*
X0002165354Y0001592913D03*
X0002165354Y0001492913D03*
D45*
X0002165354Y0002401574D03*
D46*
X0002165354Y0002301574D03*
X0002165354Y0002201574D03*
G04 next file*
G04 #@! TF.FileFunction,Soldermask,Top*
G04 Gerber Fmt 4.6, Leading zero omitted, Abs format (unit mm)*
G04 Created by KiCad (PCBNEW 4.0.6) date 06/30/20 08:24:00*
G01*
G04 APERTURE LIST*
G04 APERTURE END LIST*
D68*
D69*
X0001091574Y0005362952D02*
X0003690944Y0000738188D03*
D70*
X0003790944Y0000738188D03*
X0003690944Y0000638188D03*
X0003790944Y0000638188D03*
X0003690944Y0000538188D03*
X0003790944Y0000538188D03*
D71*
X0003088582Y0001850393D03*
X0002974409Y0001850393D03*
D72*
X0003236220Y0000275590D03*
X0003236220Y0000307086D03*
X0003236220Y0000338582D03*
X0003236220Y0000370078D03*
X0003236220Y0000401574D03*
X0003236220Y0000433070D03*
X0003236220Y0000464566D03*
X0003236220Y0000496062D03*
X0003236220Y0000527558D03*
X0003236220Y0000559054D03*
X0003236220Y0000590550D03*
D73*
X0003169291Y0000657480D03*
X0003137795Y0000657480D03*
X0003106299Y0000657480D03*
X0003074803Y0000657480D03*
X0003043307Y0000657480D03*
X0003011810Y0000657480D03*
X0002980314Y0000657480D03*
X0002948818Y0000657480D03*
X0002917322Y0000657480D03*
X0002885826Y0000657480D03*
X0002854330Y0000657480D03*
D72*
X0002787401Y0000590550D03*
X0002787401Y0000559054D03*
X0002787401Y0000527558D03*
X0002787401Y0000496062D03*
X0002787401Y0000464566D03*
X0002787401Y0000433070D03*
X0002787401Y0000401574D03*
X0002787401Y0000370078D03*
X0002787401Y0000338582D03*
X0002787401Y0000307086D03*
X0002787401Y0000275590D03*
D73*
X0002854330Y0000208661D03*
X0002885826Y0000208661D03*
X0002917322Y0000208661D03*
X0002948818Y0000208661D03*
X0002980314Y0000208661D03*
X0003011810Y0000208661D03*
X0003043307Y0000208661D03*
X0003074803Y0000208661D03*
X0003106299Y0000208661D03*
X0003137795Y0000208661D03*
X0003169291Y0000208661D03*
D74*
X0002742125Y0001653543D03*
D75*
X0002848425Y0001791338D03*
D76*
X0002848425Y0001718503D03*
X0002848425Y0001744094D03*
X0002848425Y0001641732D03*
X0002848425Y0001667322D03*
X0002848425Y0001692913D03*
D75*
X0002848425Y0001594487D03*
D74*
X0002742125Y0001732283D03*
D77*
X0002742125Y0001830708D03*
X0002742125Y0001555117D03*
D78*
X0002742125Y0001578739D03*
X0002742125Y0001807086D03*
D79*
X0002984251Y0000787401D03*
X0003031496Y0000787401D03*
X0003078740Y0000787401D03*
D80*
X0002834645Y0001338582D03*
D81*
X0002834645Y0001289369D03*
X0002834645Y0001240157D03*
X0002834645Y0001190944D03*
D82*
X0002899606Y0002071653D03*
X0002899606Y0002538976D03*
D83*
X0003149606Y0002480314D03*
D84*
X0003249606Y0002430314D03*
X0003149606Y0002380314D03*
X0003249606Y0002330314D03*
X0003149606Y0002280314D03*
X0003249606Y0002230314D03*
X0003149606Y0002180314D03*
X0003249606Y0002130314D03*
D85*
X0003070866Y0003700787D03*
X0003070866Y0003877952D03*
X0002814960Y0003700787D03*
X0002814960Y0003877952D03*
D86*
X0003453936Y0000078739D03*
X0003553936Y0000078739D03*
X0003553936Y0003858267D03*
X0003453936Y0003858267D03*
D87*
X0003553149Y0001850393D03*
D88*
X0003453149Y0001850393D03*
D87*
X0003454724Y0002047243D03*
D88*
X0003554724Y0002047243D03*
D89*
X0003742125Y0001181102D03*
X0003816929Y0001181102D03*
X0003742125Y0001299212D03*
X0003816929Y0001299212D03*
X0003029527Y0001653543D03*
X0002954724Y0001653543D03*
X0003029527Y0001732283D03*
X0002954724Y0001732283D03*
X0003663385Y0001850393D03*
X0003738188Y0001850393D03*
X0003663385Y0002007873D03*
X0003738188Y0002007873D03*
X0003541338Y0000236220D03*
X0003466535Y0000236220D03*
X0003777559Y0000236220D03*
X0003702755Y0000236220D03*
X0003738188Y0003661417D03*
X0003663385Y0003661417D03*
X0003466535Y0003661417D03*
X0003541338Y0003661417D03*
D90*
X0002854330Y0000078739D03*
X0002933070Y0000078739D03*
X0003110236Y0000078739D03*
X0003031496Y0000078739D03*
D91*
X0003425196Y0000472440D03*
X0003425196Y0000393700D03*
D87*
X0003661417Y0003858267D03*
D88*
X0003761417Y0003858267D03*
D87*
X0003700787Y0000078739D03*
D88*
X0003800787Y0000078739D03*
D69*
X0003503936Y0001692913D03*
D70*
X0003503936Y0001592913D03*
X0003503936Y0001492913D03*
D69*
X0003503936Y0002401574D03*
D70*
X0003503936Y0002301574D03*
X0003503936Y0002201574D03*
M02*