G04 #@! TF.FileFunction,Legend,Top*
%FSLAX46Y46*%
G04 Gerber Fmt 4.6, Leading zero omitted, Abs format (unit mm)*
G04 Created by KiCad (PCBNEW (2015-08-15 BZR 6092)-product) date 3/6/2016 8:03:16 PM*
%MOMM*%
G01*
G04 APERTURE LIST*
%ADD10C,0.100000*%
%ADD11C,0.254000*%
%ADD12C,0.300000*%
%ADD13C,0.150000*%
G04 APERTURE END LIST*
D10*
D11*
X193032382Y-86943619D02*
X193225905Y-86943619D01*
X193322667Y-86992000D01*
X193419429Y-87088762D01*
X193467810Y-87282286D01*
X193467810Y-87620952D01*
X193419429Y-87814476D01*
X193322667Y-87911238D01*
X193225905Y-87959619D01*
X193032382Y-87959619D01*
X192935620Y-87911238D01*
X192838858Y-87814476D01*
X192790477Y-87620952D01*
X192790477Y-87282286D01*
X192838858Y-87088762D01*
X192935620Y-86992000D01*
X193032382Y-86943619D01*
X194241905Y-87427429D02*
X193903239Y-87427429D01*
X193903239Y-87959619D02*
X193903239Y-86943619D01*
X194387048Y-86943619D01*
X195112762Y-87427429D02*
X194774096Y-87427429D01*
X194774096Y-87959619D02*
X194774096Y-86943619D01*
X195257905Y-86943619D01*
X193371048Y-84193619D02*
X193564571Y-84193619D01*
X193661333Y-84242000D01*
X193758095Y-84338762D01*
X193806476Y-84532286D01*
X193806476Y-84870952D01*
X193758095Y-85064476D01*
X193661333Y-85161238D01*
X193564571Y-85209619D01*
X193371048Y-85209619D01*
X193274286Y-85161238D01*
X193177524Y-85064476D01*
X193129143Y-84870952D01*
X193129143Y-84532286D01*
X193177524Y-84338762D01*
X193274286Y-84242000D01*
X193371048Y-84193619D01*
X194241905Y-85209619D02*
X194241905Y-84193619D01*
X194822476Y-85209619D01*
X194822476Y-84193619D01*
D12*
X171700656Y-119149048D02*
X172018156Y-116609048D01*
X172638037Y-118423333D01*
X173711489Y-116609048D01*
X173393989Y-119149048D01*
X175692084Y-119149048D02*
X175858394Y-117818571D01*
X175767680Y-117576667D01*
X175540894Y-117455714D01*
X175057085Y-117455714D01*
X174800061Y-117576667D01*
X175707203Y-119028095D02*
X175450180Y-119149048D01*
X174845418Y-119149048D01*
X174618632Y-119028095D01*
X174527918Y-118786190D01*
X174558156Y-118544286D01*
X174709346Y-118302381D01*
X174966370Y-118181429D01*
X175571132Y-118181429D01*
X175828156Y-118060476D01*
X176901608Y-119149048D02*
X177219108Y-116609048D01*
X177264465Y-118181429D02*
X177869227Y-119149048D01*
X178080894Y-117455714D02*
X176992322Y-118423333D01*
X179940536Y-119028095D02*
X179683512Y-119149048D01*
X179199703Y-119149048D01*
X178972917Y-119028095D01*
X178882203Y-118786190D01*
X179003156Y-117818571D01*
X179154346Y-117576667D01*
X179411370Y-117455714D01*
X179895179Y-117455714D01*
X180121965Y-117576667D01*
X180212679Y-117818571D01*
X180182441Y-118060476D01*
X178942679Y-118302381D01*
X181134941Y-119149048D02*
X181346608Y-117455714D01*
X181286132Y-117939524D02*
X181437322Y-117697619D01*
X181573394Y-117576667D01*
X181830417Y-117455714D01*
X182072322Y-117455714D01*
X182601489Y-119028095D02*
X182828274Y-119149048D01*
X183312084Y-119149048D01*
X183569108Y-119028095D01*
X183720298Y-118786190D01*
X183735417Y-118665238D01*
X183644703Y-118423333D01*
X183417917Y-118302381D01*
X183055060Y-118302381D01*
X182828274Y-118181429D01*
X182737561Y-117939524D01*
X182752680Y-117818571D01*
X182903870Y-117576667D01*
X183160894Y-117455714D01*
X183523751Y-117455714D01*
X183750537Y-117576667D01*
X185776489Y-117818571D02*
X186124227Y-117939524D01*
X186230060Y-118060476D01*
X186320773Y-118302381D01*
X186275416Y-118665238D01*
X186124226Y-118907143D01*
X185988155Y-119028095D01*
X185731131Y-119149048D01*
X184763512Y-119149048D01*
X185081012Y-116609048D01*
X185927679Y-116609048D01*
X186154464Y-116730000D01*
X186260298Y-116850952D01*
X186351012Y-117092857D01*
X186320774Y-117334762D01*
X186169584Y-117576667D01*
X186033512Y-117697619D01*
X185776489Y-117818571D01*
X184929822Y-117818571D01*
X187666369Y-119149048D02*
X187439583Y-119028095D01*
X187333750Y-118907143D01*
X187243036Y-118665238D01*
X187333751Y-117939524D01*
X187484941Y-117697619D01*
X187621012Y-117576667D01*
X187878036Y-117455714D01*
X188240893Y-117455714D01*
X188467679Y-117576667D01*
X188573512Y-117697619D01*
X188664227Y-117939524D01*
X188573512Y-118665238D01*
X188422321Y-118907143D01*
X188286250Y-119028095D01*
X188029226Y-119149048D01*
X187666369Y-119149048D01*
X189359702Y-119149048D02*
X190901845Y-117455714D01*
X189571369Y-117455714D02*
X190690178Y-119149048D01*
X191688035Y-118907143D02*
X191793868Y-119028095D01*
X191657797Y-119149048D01*
X191551964Y-119028095D01*
X191688035Y-118907143D01*
X191657797Y-119149048D01*
X194167559Y-117455714D02*
X193955892Y-119149048D01*
X193078988Y-117455714D02*
X192912678Y-118786190D01*
X193003392Y-119028095D01*
X193230178Y-119149048D01*
X193593035Y-119149048D01*
X193850059Y-119028095D01*
X193986130Y-118907143D01*
X195059583Y-119028095D02*
X195286368Y-119149048D01*
X195770178Y-119149048D01*
X196027202Y-119028095D01*
X196178392Y-118786190D01*
X196193511Y-118665238D01*
X196102797Y-118423333D01*
X195876011Y-118302381D01*
X195513154Y-118302381D01*
X195286368Y-118181429D01*
X195195655Y-117939524D01*
X195210774Y-117818571D01*
X195361964Y-117576667D01*
X195618988Y-117455714D01*
X195981845Y-117455714D01*
X196208631Y-117576667D01*
D13*
X183750000Y-90275000D02*
X185750000Y-90275000D01*
X185750000Y-88225000D02*
X183750000Y-88225000D01*
X175050000Y-95150000D02*
X175050000Y-91550000D01*
X172950000Y-95150000D02*
X172950000Y-91550000D01*
X173700000Y-93100000D02*
X174300000Y-93100000D01*
X174300000Y-93100000D02*
X174000000Y-93400000D01*
X174000000Y-93400000D02*
X173800000Y-93200000D01*
X173800000Y-93200000D02*
X174050000Y-93200000D01*
X174050000Y-93200000D02*
X174000000Y-93250000D01*
X173500000Y-93500000D02*
X174500000Y-93500000D01*
X174000000Y-93000000D02*
X174000000Y-92500000D01*
X174000000Y-93500000D02*
X173500000Y-93000000D01*
X173500000Y-93000000D02*
X174500000Y-93000000D01*
X174500000Y-93000000D02*
X174000000Y-93500000D01*
X180050000Y-95150000D02*
X180050000Y-91550000D01*
X177950000Y-95150000D02*
X177950000Y-91550000D01*
X178700000Y-93100000D02*
X179300000Y-93100000D01*
X179300000Y-93100000D02*
X179000000Y-93400000D01*
X179000000Y-93400000D02*
X178800000Y-93200000D01*
X178800000Y-93200000D02*
X179050000Y-93200000D01*
X179050000Y-93200000D02*
X179000000Y-93250000D01*
X178500000Y-93500000D02*
X179500000Y-93500000D01*
X179000000Y-93000000D02*
X179000000Y-92500000D01*
X179000000Y-93500000D02*
X178500000Y-93000000D01*
X178500000Y-93000000D02*
X179500000Y-93000000D01*
X179500000Y-93000000D02*
X179000000Y-93500000D01*
X185050000Y-95150000D02*
X185050000Y-91550000D01*
X182950000Y-95150000D02*
X182950000Y-91550000D01*
X183700000Y-93100000D02*
X184300000Y-93100000D01*
X184300000Y-93100000D02*
X184000000Y-93400000D01*
X184000000Y-93400000D02*
X183800000Y-93200000D01*
X183800000Y-93200000D02*
X184050000Y-93200000D01*
X184050000Y-93200000D02*
X184000000Y-93250000D01*
X183500000Y-93500000D02*
X184500000Y-93500000D01*
X184000000Y-93000000D02*
X184000000Y-92500000D01*
X184000000Y-93500000D02*
X183500000Y-93000000D01*
X183500000Y-93000000D02*
X184500000Y-93000000D01*
X184500000Y-93000000D02*
X184000000Y-93500000D01*
X190050000Y-95150000D02*
X190050000Y-91550000D01*
X187950000Y-95150000D02*
X187950000Y-91550000D01*
X188700000Y-93100000D02*
X189300000Y-93100000D01*
X189300000Y-93100000D02*
X189000000Y-93400000D01*
X189000000Y-93400000D02*
X188800000Y-93200000D01*
X188800000Y-93200000D02*
X189050000Y-93200000D01*
X189050000Y-93200000D02*
X189000000Y-93250000D01*
X188500000Y-93500000D02*
X189500000Y-93500000D01*
X189000000Y-93000000D02*
X189000000Y-92500000D01*
X189000000Y-93500000D02*
X188500000Y-93000000D01*
X188500000Y-93000000D02*
X189500000Y-93000000D01*
X189500000Y-93000000D02*
X189000000Y-93500000D01*
X195050000Y-95150000D02*
X195050000Y-91550000D01*
X192950000Y-95150000D02*
X192950000Y-91550000D01*
X193700000Y-93100000D02*
X194300000Y-93100000D01*
X194300000Y-93100000D02*
X194000000Y-93400000D01*
X194000000Y-93400000D02*
X193800000Y-93200000D01*
X193800000Y-93200000D02*
X194050000Y-93200000D01*
X194050000Y-93200000D02*
X194000000Y-93250000D01*
X193500000Y-93500000D02*
X194500000Y-93500000D01*
X194000000Y-93000000D02*
X194000000Y-92500000D01*
X194000000Y-93500000D02*
X193500000Y-93000000D01*
X193500000Y-93000000D02*
X194500000Y-93000000D01*
X194500000Y-93000000D02*
X194000000Y-93500000D01*
X172950000Y-95850000D02*
X172950000Y-99450000D01*
X175050000Y-95850000D02*
X175050000Y-99450000D01*
X174300000Y-97900000D02*
X173700000Y-97900000D01*
X173700000Y-97900000D02*
X174000000Y-97600000D01*
X174000000Y-97600000D02*
X174200000Y-97800000D01*
X174200000Y-97800000D02*
X173950000Y-97800000D01*
X173950000Y-97800000D02*
X174000000Y-97750000D01*
X174500000Y-97500000D02*
X173500000Y-97500000D01*
X174000000Y-98000000D02*
X174000000Y-98500000D01*
X174000000Y-97500000D02*
X174500000Y-98000000D01*
X174500000Y-98000000D02*
X173500000Y-98000000D01*
X173500000Y-98000000D02*
X174000000Y-97500000D01*
X177950000Y-95850000D02*
X177950000Y-99450000D01*
X180050000Y-95850000D02*
X180050000Y-99450000D01*
X179300000Y-97900000D02*
X178700000Y-97900000D01*
X178700000Y-97900000D02*
X179000000Y-97600000D01*
X179000000Y-97600000D02*
X179200000Y-97800000D01*
X179200000Y-97800000D02*
X178950000Y-97800000D01*
X178950000Y-97800000D02*
X179000000Y-97750000D01*
X179500000Y-97500000D02*
X178500000Y-97500000D01*
X179000000Y-98000000D02*
X179000000Y-98500000D01*
X179000000Y-97500000D02*
X179500000Y-98000000D01*
X179500000Y-98000000D02*
X178500000Y-98000000D01*
X178500000Y-98000000D02*
X179000000Y-97500000D01*
X182950000Y-95850000D02*
X182950000Y-99450000D01*
X185050000Y-95850000D02*
X185050000Y-99450000D01*
X184300000Y-97900000D02*
X183700000Y-97900000D01*
X183700000Y-97900000D02*
X184000000Y-97600000D01*
X184000000Y-97600000D02*
X184200000Y-97800000D01*
X184200000Y-97800000D02*
X183950000Y-97800000D01*
X183950000Y-97800000D02*
X184000000Y-97750000D01*
X184500000Y-97500000D02*
X183500000Y-97500000D01*
X184000000Y-98000000D02*
X184000000Y-98500000D01*
X184000000Y-97500000D02*
X184500000Y-98000000D01*
X184500000Y-98000000D02*
X183500000Y-98000000D01*
X183500000Y-98000000D02*
X184000000Y-97500000D01*
X187950000Y-95850000D02*
X187950000Y-99450000D01*
X190050000Y-95850000D02*
X190050000Y-99450000D01*
X189300000Y-97900000D02*
X188700000Y-97900000D01*
X188700000Y-97900000D02*
X189000000Y-97600000D01*
X189000000Y-97600000D02*
X189200000Y-97800000D01*
X189200000Y-97800000D02*
X188950000Y-97800000D01*
X188950000Y-97800000D02*
X189000000Y-97750000D01*
X189500000Y-97500000D02*
X188500000Y-97500000D01*
X189000000Y-98000000D02*
X189000000Y-98500000D01*
X189000000Y-97500000D02*
X189500000Y-98000000D01*
X189500000Y-98000000D02*
X188500000Y-98000000D01*
X188500000Y-98000000D02*
X189000000Y-97500000D01*
X192950000Y-95850000D02*
X192950000Y-99450000D01*
X195050000Y-95850000D02*
X195050000Y-99450000D01*
X194300000Y-97900000D02*
X193700000Y-97900000D01*
X193700000Y-97900000D02*
X194000000Y-97600000D01*
X194000000Y-97600000D02*
X194200000Y-97800000D01*
X194200000Y-97800000D02*
X193950000Y-97800000D01*
X193950000Y-97800000D02*
X194000000Y-97750000D01*
X194500000Y-97500000D02*
X193500000Y-97500000D01*
X194000000Y-98000000D02*
X194000000Y-98500000D01*
X194000000Y-97500000D02*
X194500000Y-98000000D01*
X194500000Y-98000000D02*
X193500000Y-98000000D01*
X193500000Y-98000000D02*
X194000000Y-97500000D01*
X175050000Y-105150000D02*
X175050000Y-101550000D01*
X172950000Y-105150000D02*
X172950000Y-101550000D01*
X173700000Y-103100000D02*
X174300000Y-103100000D01*
X174300000Y-103100000D02*
X174000000Y-103400000D01*
X174000000Y-103400000D02*
X173800000Y-103200000D01*
X173800000Y-103200000D02*
X174050000Y-103200000D01*
X174050000Y-103200000D02*
X174000000Y-103250000D01*
X173500000Y-103500000D02*
X174500000Y-103500000D01*
X174000000Y-103000000D02*
X174000000Y-102500000D01*
X174000000Y-103500000D02*
X173500000Y-103000000D01*
X173500000Y-103000000D02*
X174500000Y-103000000D01*
X174500000Y-103000000D02*
X174000000Y-103500000D01*
X180050000Y-105150000D02*
X180050000Y-101550000D01*
X177950000Y-105150000D02*
X177950000Y-101550000D01*
X178700000Y-103100000D02*
X179300000Y-103100000D01*
X179300000Y-103100000D02*
X179000000Y-103400000D01*
X179000000Y-103400000D02*
X178800000Y-103200000D01*
X178800000Y-103200000D02*
X179050000Y-103200000D01*
X179050000Y-103200000D02*
X179000000Y-103250000D01*
X178500000Y-103500000D02*
X179500000Y-103500000D01*
X179000000Y-103000000D02*
X179000000Y-102500000D01*
X179000000Y-103500000D02*
X178500000Y-103000000D01*
X178500000Y-103000000D02*
X179500000Y-103000000D01*
X179500000Y-103000000D02*
X179000000Y-103500000D01*
X185050000Y-105150000D02*
X185050000Y-101550000D01*
X182950000Y-105150000D02*
X182950000Y-101550000D01*
X183700000Y-103100000D02*
X184300000Y-103100000D01*
X184300000Y-103100000D02*
X184000000Y-103400000D01*
X184000000Y-103400000D02*
X183800000Y-103200000D01*
X183800000Y-103200000D02*
X184050000Y-103200000D01*
X184050000Y-103200000D02*
X184000000Y-103250000D01*
X183500000Y-103500000D02*
X184500000Y-103500000D01*
X184000000Y-103000000D02*
X184000000Y-102500000D01*
X184000000Y-103500000D02*
X183500000Y-103000000D01*
X183500000Y-103000000D02*
X184500000Y-103000000D01*
X184500000Y-103000000D02*
X184000000Y-103500000D01*
X190050000Y-105150000D02*
X190050000Y-101550000D01*
X187950000Y-105150000D02*
X187950000Y-101550000D01*
X188700000Y-103100000D02*
X189300000Y-103100000D01*
X189300000Y-103100000D02*
X189000000Y-103400000D01*
X189000000Y-103400000D02*
X188800000Y-103200000D01*
X188800000Y-103200000D02*
X189050000Y-103200000D01*
X189050000Y-103200000D02*
X189000000Y-103250000D01*
X188500000Y-103500000D02*
X189500000Y-103500000D01*
X189000000Y-103000000D02*
X189000000Y-102500000D01*
X189000000Y-103500000D02*
X188500000Y-103000000D01*
X188500000Y-103000000D02*
X189500000Y-103000000D01*
X189500000Y-103000000D02*
X189000000Y-103500000D01*
X195050000Y-105150000D02*
X195050000Y-101550000D01*
X192950000Y-105150000D02*
X192950000Y-101550000D01*
X193700000Y-103100000D02*
X194300000Y-103100000D01*
X194300000Y-103100000D02*
X194000000Y-103400000D01*
X194000000Y-103400000D02*
X193800000Y-103200000D01*
X193800000Y-103200000D02*
X194050000Y-103200000D01*
X194050000Y-103200000D02*
X194000000Y-103250000D01*
X193500000Y-103500000D02*
X194500000Y-103500000D01*
X194000000Y-103000000D02*
X194000000Y-102500000D01*
X194000000Y-103500000D02*
X193500000Y-103000000D01*
X193500000Y-103000000D02*
X194500000Y-103000000D01*
X194500000Y-103000000D02*
X194000000Y-103500000D01*
X172950000Y-105850000D02*
X172950000Y-109450000D01*
X175050000Y-105850000D02*
X175050000Y-109450000D01*
X174300000Y-107900000D02*
X173700000Y-107900000D01*
X173700000Y-107900000D02*
X174000000Y-107600000D01*
X174000000Y-107600000D02*
X174200000Y-107800000D01*
X174200000Y-107800000D02*
X173950000Y-107800000D01*
X173950000Y-107800000D02*
X174000000Y-107750000D01*
X174500000Y-107500000D02*
X173500000Y-107500000D01*
X174000000Y-108000000D02*
X174000000Y-108500000D01*
X174000000Y-107500000D02*
X174500000Y-108000000D01*
X174500000Y-108000000D02*
X173500000Y-108000000D01*
X173500000Y-108000000D02*
X174000000Y-107500000D01*
X177950000Y-105850000D02*
X177950000Y-109450000D01*
X180050000Y-105850000D02*
X180050000Y-109450000D01*
X179300000Y-107900000D02*
X178700000Y-107900000D01*
X178700000Y-107900000D02*
X179000000Y-107600000D01*
X179000000Y-107600000D02*
X179200000Y-107800000D01*
X179200000Y-107800000D02*
X178950000Y-107800000D01*
X178950000Y-107800000D02*
X179000000Y-107750000D01*
X179500000Y-107500000D02*
X178500000Y-107500000D01*
X179000000Y-108000000D02*
X179000000Y-108500000D01*
X179000000Y-107500000D02*
X179500000Y-108000000D01*
X179500000Y-108000000D02*
X178500000Y-108000000D01*
X178500000Y-108000000D02*
X179000000Y-107500000D01*
X182950000Y-105850000D02*
X182950000Y-109450000D01*
X185050000Y-105850000D02*
X185050000Y-109450000D01*
X184300000Y-107900000D02*
X183700000Y-107900000D01*
X183700000Y-107900000D02*
X184000000Y-107600000D01*
X184000000Y-107600000D02*
X184200000Y-107800000D01*
X184200000Y-107800000D02*
X183950000Y-107800000D01*
X183950000Y-107800000D02*
X184000000Y-107750000D01*
X184500000Y-107500000D02*
X183500000Y-107500000D01*
X184000000Y-108000000D02*
X184000000Y-108500000D01*
X184000000Y-107500000D02*
X184500000Y-108000000D01*
X184500000Y-108000000D02*
X183500000Y-108000000D01*
X183500000Y-108000000D02*
X184000000Y-107500000D01*
X187950000Y-105850000D02*
X187950000Y-109450000D01*
X190050000Y-105850000D02*
X190050000Y-109450000D01*
X189300000Y-107900000D02*
X188700000Y-107900000D01*
X188700000Y-107900000D02*
X189000000Y-107600000D01*
X189000000Y-107600000D02*
X189200000Y-107800000D01*
X189200000Y-107800000D02*
X188950000Y-107800000D01*
X188950000Y-107800000D02*
X189000000Y-107750000D01*
X189500000Y-107500000D02*
X188500000Y-107500000D01*
X189000000Y-108000000D02*
X189000000Y-108500000D01*
X189000000Y-107500000D02*
X189500000Y-108000000D01*
X189500000Y-108000000D02*
X188500000Y-108000000D01*
X188500000Y-108000000D02*
X189000000Y-107500000D01*
X192950000Y-105850000D02*
X192950000Y-109450000D01*
X195050000Y-105850000D02*
X195050000Y-109450000D01*
X194300000Y-107900000D02*
X193700000Y-107900000D01*
X193700000Y-107900000D02*
X194000000Y-107600000D01*
X194000000Y-107600000D02*
X194200000Y-107800000D01*
X194200000Y-107800000D02*
X193950000Y-107800000D01*
X193950000Y-107800000D02*
X194000000Y-107750000D01*
X194500000Y-107500000D02*
X193500000Y-107500000D01*
X194000000Y-108000000D02*
X194000000Y-108500000D01*
X194000000Y-107500000D02*
X194500000Y-108000000D01*
X194500000Y-108000000D02*
X193500000Y-108000000D01*
X193500000Y-108000000D02*
X194000000Y-107500000D01*
X175050000Y-115150000D02*
X175050000Y-111550000D01*
X172950000Y-115150000D02*
X172950000Y-111550000D01*
X173700000Y-113100000D02*
X174300000Y-113100000D01*
X174300000Y-113100000D02*
X174000000Y-113400000D01*
X174000000Y-113400000D02*
X173800000Y-113200000D01*
X173800000Y-113200000D02*
X174050000Y-113200000D01*
X174050000Y-113200000D02*
X174000000Y-113250000D01*
X173500000Y-113500000D02*
X174500000Y-113500000D01*
X174000000Y-113000000D02*
X174000000Y-112500000D01*
X174000000Y-113500000D02*
X173500000Y-113000000D01*
X173500000Y-113000000D02*
X174500000Y-113000000D01*
X174500000Y-113000000D02*
X174000000Y-113500000D01*
X180050000Y-115150000D02*
X180050000Y-111550000D01*
X177950000Y-115150000D02*
X177950000Y-111550000D01*
X178700000Y-113100000D02*
X179300000Y-113100000D01*
X179300000Y-113100000D02*
X179000000Y-113400000D01*
X179000000Y-113400000D02*
X178800000Y-113200000D01*
X178800000Y-113200000D02*
X179050000Y-113200000D01*
X179050000Y-113200000D02*
X179000000Y-113250000D01*
X178500000Y-113500000D02*
X179500000Y-113500000D01*
X179000000Y-113000000D02*
X179000000Y-112500000D01*
X179000000Y-113500000D02*
X178500000Y-113000000D01*
X178500000Y-113000000D02*
X179500000Y-113000000D01*
X179500000Y-113000000D02*
X179000000Y-113500000D01*
X185050000Y-115150000D02*
X185050000Y-111550000D01*
X182950000Y-115150000D02*
X182950000Y-111550000D01*
X183700000Y-113100000D02*
X184300000Y-113100000D01*
X184300000Y-113100000D02*
X184000000Y-113400000D01*
X184000000Y-113400000D02*
X183800000Y-113200000D01*
X183800000Y-113200000D02*
X184050000Y-113200000D01*
X184050000Y-113200000D02*
X184000000Y-113250000D01*
X183500000Y-113500000D02*
X184500000Y-113500000D01*
X184000000Y-113000000D02*
X184000000Y-112500000D01*
X184000000Y-113500000D02*
X183500000Y-113000000D01*
X183500000Y-113000000D02*
X184500000Y-113000000D01*
X184500000Y-113000000D02*
X184000000Y-113500000D01*
X190050000Y-115150000D02*
X190050000Y-111550000D01*
X187950000Y-115150000D02*
X187950000Y-111550000D01*
X188700000Y-113100000D02*
X189300000Y-113100000D01*
X189300000Y-113100000D02*
X189000000Y-113400000D01*
X189000000Y-113400000D02*
X188800000Y-113200000D01*
X188800000Y-113200000D02*
X189050000Y-113200000D01*
X189050000Y-113200000D02*
X189000000Y-113250000D01*
X188500000Y-113500000D02*
X189500000Y-113500000D01*
X189000000Y-113000000D02*
X189000000Y-112500000D01*
X189000000Y-113500000D02*
X188500000Y-113000000D01*
X188500000Y-113000000D02*
X189500000Y-113000000D01*
X189500000Y-113000000D02*
X189000000Y-113500000D01*
X195050000Y-115150000D02*
X195050000Y-111550000D01*
X192950000Y-115150000D02*
X192950000Y-111550000D01*
X193700000Y-113100000D02*
X194300000Y-113100000D01*
X194300000Y-113100000D02*
X194000000Y-113400000D01*
X194000000Y-113400000D02*
X193800000Y-113200000D01*
X193800000Y-113200000D02*
X194050000Y-113200000D01*
X194050000Y-113200000D02*
X194000000Y-113250000D01*
X193500000Y-113500000D02*
X194500000Y-113500000D01*
X194000000Y-113000000D02*
X194000000Y-112500000D01*
X194000000Y-113500000D02*
X193500000Y-113000000D01*
X193500000Y-113000000D02*
X194500000Y-113000000D01*
X194500000Y-113000000D02*
X194000000Y-113500000D01*
X175425000Y-94250000D02*
X175425000Y-92250000D01*
X177575000Y-92250000D02*
X177575000Y-94250000D01*
X177575000Y-96750000D02*
X177575000Y-98750000D01*
X175425000Y-98750000D02*
X175425000Y-96750000D01*
X175425000Y-104250000D02*
X175425000Y-102250000D01*
X177575000Y-102250000D02*
X177575000Y-104250000D01*
X177575000Y-106750000D02*
X177575000Y-108750000D01*
X175425000Y-108750000D02*
X175425000Y-106750000D01*
X175425000Y-114250000D02*
X175425000Y-112250000D01*
X177575000Y-112250000D02*
X177575000Y-114250000D01*
X171420000Y-88286000D02*
X171420000Y-83460000D01*
X171420000Y-83460000D02*
X181580000Y-83460000D01*
X181580000Y-83460000D02*
X181580000Y-88286000D01*
X181580000Y-88286000D02*
X171420000Y-88286000D01*
X181580000Y-86508000D02*
X180945000Y-86508000D01*
X180945000Y-86508000D02*
X180945000Y-85238000D01*
X180945000Y-85238000D02*
X181580000Y-85238000D01*
X191714000Y-82190000D02*
X196286000Y-82190000D01*
X191714000Y-89810000D02*
X196286000Y-89810000D01*
X191714000Y-89810000D02*
X191714000Y-82190000D01*
X196286000Y-82190000D02*
X196286000Y-89810000D01*
X189700000Y-85100000D02*
X189700000Y-87900000D01*
X189700000Y-87900000D02*
X188300000Y-87900000D01*
X188300000Y-87900000D02*
X188300000Y-85100000D01*
X188300000Y-85100000D02*
X189700000Y-85100000D01*
X190750000Y-89500000D02*
X190100000Y-89500000D01*
X187250000Y-89500000D02*
X187900000Y-89500000D01*
X187900000Y-83500000D02*
X187250000Y-83500000D01*
X190750000Y-83500000D02*
X190100000Y-83500000D01*
X190750000Y-89500000D02*
X190750000Y-83500000D01*
X187250000Y-83500000D02*
X187250000Y-89500000D01*
X184583334Y-89607143D02*
X184535715Y-89654762D01*
X184392858Y-89702381D01*
X184297620Y-89702381D01*
X184154762Y-89654762D01*
X184059524Y-89559524D01*
X184011905Y-89464286D01*
X183964286Y-89273810D01*
X183964286Y-89130952D01*
X184011905Y-88940476D01*
X184059524Y-88845238D01*
X184154762Y-88750000D01*
X184297620Y-88702381D01*
X184392858Y-88702381D01*
X184535715Y-88750000D01*
X184583334Y-88797619D01*
X185535715Y-89702381D02*
X184964286Y-89702381D01*
X185250000Y-89702381D02*
X185250000Y-88702381D01*
X185154762Y-88845238D01*
X185059524Y-88940476D01*
X184964286Y-88988095D01*
X172261905Y-85416667D02*
X172738096Y-85416667D01*
X172166667Y-85702381D02*
X172500000Y-84702381D01*
X172833334Y-85702381D01*
X173023810Y-84702381D02*
X173595239Y-84702381D01*
X173309524Y-85702381D02*
X173309524Y-84702381D01*
X173785715Y-84702381D02*
X174357144Y-84702381D01*
X174071429Y-85702381D02*
X174071429Y-84702381D01*
X174690477Y-85702381D02*
X174690477Y-84702381D01*
X175166667Y-85702381D02*
X175166667Y-84702381D01*
X175738096Y-85702381D01*
X175738096Y-84702381D01*
X176404762Y-85226190D02*
X176404762Y-85702381D01*
X176071429Y-84702381D02*
X176404762Y-85226190D01*
X176738096Y-84702381D01*
X177214286Y-85130952D02*
X177119048Y-85083333D01*
X177071429Y-85035714D01*
X177023810Y-84940476D01*
X177023810Y-84892857D01*
X177071429Y-84797619D01*
X177119048Y-84750000D01*
X177214286Y-84702381D01*
X177404763Y-84702381D01*
X177500001Y-84750000D01*
X177547620Y-84797619D01*
X177595239Y-84892857D01*
X177595239Y-84940476D01*
X177547620Y-85035714D01*
X177500001Y-85083333D01*
X177404763Y-85130952D01*
X177214286Y-85130952D01*
X177119048Y-85178571D01*
X177071429Y-85226190D01*
X177023810Y-85321429D01*
X177023810Y-85511905D01*
X177071429Y-85607143D01*
X177119048Y-85654762D01*
X177214286Y-85702381D01*
X177404763Y-85702381D01*
X177500001Y-85654762D01*
X177547620Y-85607143D01*
X177595239Y-85511905D01*
X177595239Y-85321429D01*
X177547620Y-85226190D01*
X177500001Y-85178571D01*
X177404763Y-85130952D01*
X178452382Y-85035714D02*
X178452382Y-85702381D01*
X178214286Y-84654762D02*
X177976191Y-85369048D01*
X178595239Y-85369048D01*
X178976191Y-85321429D02*
X179738096Y-85321429D01*
X180166667Y-85654762D02*
X180309524Y-85702381D01*
X180547620Y-85702381D01*
X180642858Y-85654762D01*
X180690477Y-85607143D01*
X180738096Y-85511905D01*
X180738096Y-85416667D01*
X180690477Y-85321429D01*
X180642858Y-85273810D01*
X180547620Y-85226190D01*
X180357143Y-85178571D01*
X180261905Y-85130952D01*
X180214286Y-85083333D01*
X180166667Y-84988095D01*
X180166667Y-84892857D01*
X180214286Y-84797619D01*
X180261905Y-84750000D01*
X180357143Y-84702381D01*
X180595239Y-84702381D01*
X180738096Y-84750000D01*
M02*
