%MOIN*%
%OFA0B0*%
%FSLAX46Y46*%
%IPPOS*%
%LPD*%
%ADD10O,0.031496062992125991X0.051181102362204731*%
%ADD11R,0.068897637795275593X0.017716535433070866*%
%ADD22O,0.051181102362204731X0.031496062992125991*%
%ADD23R,0.017716535433070866X0.068897637795275593*%
%ADD24O,0.051181102362204731X0.031496062992125991*%
%ADD25R,0.017716535433070866X0.068897637795275593*%
%ADD26O,0.031496062992125991X0.051181102362204731*%
%ADD27R,0.068897637795275593X0.017716535433070866*%
%ADD28O,0.031496062992125991X0.051181102362204731*%
%ADD29R,0.068897637795275593X0.017716535433070866*%
%ADD30O,0.031496062992125991X0.051181102362204731*%
%ADD31R,0.068897637795275593X0.017716535433070866*%
%ADD32O,0.031496062992125991X0.051181102362204731*%
%ADD33R,0.068897637795275593X0.017716535433070866*%
G01*
D10*
X-0007716535Y0003818897D02*
X0000196850Y0000196850D03*
X0000246062Y0000196850D03*
X0000295275Y0000196850D03*
X0000344488Y0000196850D03*
G36*
G01*
X0000409448Y0000214566D02*
X0000409448Y0000179133D01*
G75*
G02*
X0000401574Y0000171259I-0000007874D01*
G01*
X0000385826Y0000171259D01*
G75*
G02*
X0000377952Y0000179133J0000007874D01*
G01*
X0000377952Y0000214566D01*
G75*
G02*
X0000385826Y0000222440I0000007874D01*
G01*
X0000401574Y0000222440D01*
G75*
G02*
X0000409448Y0000214566J-0000007874D01*
G01*
G37*
G36*
G01*
X0000137303Y0000415354D02*
X0000137303Y0000450787D01*
G75*
G02*
X0000147145Y0000460629I0000009842D01*
G01*
X0000167814Y0000460629D01*
G75*
G02*
X0000177657Y0000450787J-0000009842D01*
G01*
X0000177657Y0000415354D01*
G75*
G02*
X0000167814Y0000405511I-0000009842D01*
G01*
X0000147145Y0000405511D01*
G75*
G02*
X0000137303Y0000415354J0000009842D01*
G01*
G37*
G36*
G01*
X0000065452Y0000415354D02*
X0000065452Y0000450787D01*
G75*
G02*
X0000075295Y0000460629I0000009842D01*
G01*
X0000095964Y0000460629D01*
G75*
G02*
X0000105807Y0000450787J-0000009842D01*
G01*
X0000105807Y0000415354D01*
G75*
G02*
X0000095964Y0000405511I-0000009842D01*
G01*
X0000075295Y0000405511D01*
G75*
G02*
X0000065452Y0000415354J0000009842D01*
G01*
G37*
G36*
G01*
X0000460137Y0000450787D02*
X0000460137Y0000415354D01*
G75*
G02*
X0000450295Y0000405511I-0000009842D01*
G01*
X0000429625Y0000405511D01*
G75*
G02*
X0000419783Y0000415354J0000009842D01*
G01*
X0000419783Y0000450787D01*
G75*
G02*
X0000429625Y0000460629I0000009842D01*
G01*
X0000450295Y0000460629D01*
G75*
G02*
X0000460137Y0000450787J-0000009842D01*
G01*
G37*
G36*
G01*
X0000531988Y0000450787D02*
X0000531988Y0000415354D01*
G75*
G02*
X0000522145Y0000405511I-0000009842D01*
G01*
X0000501476Y0000405511D01*
G75*
G02*
X0000491633Y0000415354J0000009842D01*
G01*
X0000491633Y0000450787D01*
G75*
G02*
X0000501476Y0000460629I0000009842D01*
G01*
X0000522145Y0000460629D01*
G75*
G02*
X0000531988Y0000450787J-0000009842D01*
G01*
G37*
D11*
X0000437007Y0000601377D03*
X0000437007Y0000626968D03*
X0000437007Y0000652559D03*
X0000437007Y0000678149D03*
X0000437007Y0000703740D03*
X0000437007Y0000729330D03*
X0000437007Y0000754921D03*
X0000437007Y0000780511D03*
X0000437007Y0000806102D03*
X0000437007Y0000831692D03*
X0000437007Y0000857283D03*
X0000437007Y0000882873D03*
X0000437007Y0000908464D03*
X0000437007Y0000934055D03*
X0000153543Y0000934055D03*
X0000153543Y0000908464D03*
X0000153543Y0000882873D03*
X0000153543Y0000857283D03*
X0000153543Y0000831692D03*
X0000153543Y0000806102D03*
X0000153543Y0000780511D03*
X0000153543Y0000754921D03*
X0000153543Y0000729330D03*
X0000153543Y0000703740D03*
X0000153543Y0000678149D03*
X0000153543Y0000652559D03*
X0000153543Y0000626968D03*
X0000153543Y0000601377D03*
G36*
G01*
X0000478740Y0001761417D02*
X0000466141Y0001761417D01*
G75*
G02*
X0000459842Y0001767716J0000006299D01*
G01*
X0000459842Y0001783267D01*
G75*
G02*
X0000466141Y0001789566I0000006299D01*
G01*
X0000478740Y0001789566D01*
G75*
G02*
X0000485039Y0001783267J-0000006299D01*
G01*
X0000485039Y0001767716D01*
G75*
G02*
X0000478740Y0001761417I-0000006299D01*
G01*
G37*
G36*
G01*
X0000478740Y0001714370D02*
X0000466141Y0001714370D01*
G75*
G02*
X0000459842Y0001720669J0000006299D01*
G01*
X0000459842Y0001736220D01*
G75*
G02*
X0000466141Y0001742519I0000006299D01*
G01*
X0000478740Y0001742519D01*
G75*
G02*
X0000485039Y0001736220J-0000006299D01*
G01*
X0000485039Y0001720669D01*
G75*
G02*
X0000478740Y0001714370I-0000006299D01*
G01*
G37*
G36*
G01*
X0000203149Y0001761417D02*
X0000190551Y0001761417D01*
G75*
G02*
X0000184251Y0001767716J0000006299D01*
G01*
X0000184251Y0001783267D01*
G75*
G02*
X0000190551Y0001789566I0000006299D01*
G01*
X0000203149Y0001789566D01*
G75*
G02*
X0000209448Y0001783267J-0000006299D01*
G01*
X0000209448Y0001767716D01*
G75*
G02*
X0000203149Y0001761417I-0000006299D01*
G01*
G37*
G36*
G01*
X0000203149Y0001714370D02*
X0000190551Y0001714370D01*
G75*
G02*
X0000184251Y0001720669J0000006299D01*
G01*
X0000184251Y0001736220D01*
G75*
G02*
X0000190551Y0001742519I0000006299D01*
G01*
X0000203149Y0001742519D01*
G75*
G02*
X0000209448Y0001736220J-0000006299D01*
G01*
X0000209448Y0001720669D01*
G75*
G02*
X0000203149Y0001714370I-0000006299D01*
G01*
G37*
G36*
G01*
X0000399999Y0001859842D02*
X0000387401Y0001859842D01*
G75*
G02*
X0000381102Y0001866141J0000006299D01*
G01*
X0000381102Y0001881692D01*
G75*
G02*
X0000387401Y0001887992I0000006299D01*
G01*
X0000399999Y0001887992D01*
G75*
G02*
X0000406299Y0001881692J-0000006299D01*
G01*
X0000406299Y0001866141D01*
G75*
G02*
X0000399999Y0001859842I-0000006299D01*
G01*
G37*
G36*
G01*
X0000399999Y0001812795D02*
X0000387401Y0001812795D01*
G75*
G02*
X0000381102Y0001819094J0000006299D01*
G01*
X0000381102Y0001834645D01*
G75*
G02*
X0000387401Y0001840944I0000006299D01*
G01*
X0000399999Y0001840944D01*
G75*
G02*
X0000406299Y0001834645J-0000006299D01*
G01*
X0000406299Y0001819094D01*
G75*
G02*
X0000399999Y0001812795I-0000006299D01*
G01*
G37*
G36*
G01*
X0000203149Y0001859842D02*
X0000190551Y0001859842D01*
G75*
G02*
X0000184251Y0001866141J0000006299D01*
G01*
X0000184251Y0001881692D01*
G75*
G02*
X0000190551Y0001887992I0000006299D01*
G01*
X0000203149Y0001887992D01*
G75*
G02*
X0000209448Y0001881692J-0000006299D01*
G01*
X0000209448Y0001866141D01*
G75*
G02*
X0000203149Y0001859842I-0000006299D01*
G01*
G37*
G36*
G01*
X0000203149Y0001812795D02*
X0000190551Y0001812795D01*
G75*
G02*
X0000184251Y0001819094J0000006299D01*
G01*
X0000184251Y0001834645D01*
G75*
G02*
X0000190551Y0001840944I0000006299D01*
G01*
X0000203149Y0001840944D01*
G75*
G02*
X0000209448Y0001834645J-0000006299D01*
G01*
X0000209448Y0001819094D01*
G75*
G02*
X0000203149Y0001812795I-0000006299D01*
G01*
G37*
G36*
G01*
X0000409448Y0001124015D02*
X0000409448Y0001159448D01*
G75*
G02*
X0000419291Y0001169291I0000009842D01*
G01*
X0000439960Y0001169291D01*
G75*
G02*
X0000449803Y0001159448J-0000009842D01*
G01*
X0000449803Y0001124015D01*
G75*
G02*
X0000439960Y0001114173I-0000009842D01*
G01*
X0000419291Y0001114173D01*
G75*
G02*
X0000409448Y0001124015J0000009842D01*
G01*
G37*
G36*
G01*
X0000337598Y0001124015D02*
X0000337598Y0001159448D01*
G75*
G02*
X0000347440Y0001169291I0000009842D01*
G01*
X0000368110Y0001169291D01*
G75*
G02*
X0000377952Y0001159448J-0000009842D01*
G01*
X0000377952Y0001124015D01*
G75*
G02*
X0000368110Y0001114173I-0000009842D01*
G01*
X0000347440Y0001114173D01*
G75*
G02*
X0000337598Y0001124015J0000009842D01*
G01*
G37*
G36*
G01*
X0000177657Y0001159448D02*
X0000177657Y0001124015D01*
G75*
G02*
X0000167814Y0001114173I-0000009842D01*
G01*
X0000147145Y0001114173D01*
G75*
G02*
X0000137303Y0001124015J0000009842D01*
G01*
X0000137303Y0001159448D01*
G75*
G02*
X0000147145Y0001169291I0000009842D01*
G01*
X0000167814Y0001169291D01*
G75*
G02*
X0000177657Y0001159448J-0000009842D01*
G01*
G37*
G36*
G01*
X0000249507Y0001159448D02*
X0000249507Y0001124015D01*
G75*
G02*
X0000239665Y0001114173I-0000009842D01*
G01*
X0000218996Y0001114173D01*
G75*
G02*
X0000209153Y0001124015J0000009842D01*
G01*
X0000209153Y0001159448D01*
G75*
G02*
X0000218996Y0001169291I0000009842D01*
G01*
X0000239665Y0001169291D01*
G75*
G02*
X0000249507Y0001159448J-0000009842D01*
G01*
G37*
G36*
G01*
X0000409448Y0001241929D02*
X0000409448Y0001277362D01*
G75*
G02*
X0000419291Y0001287204I0000009842D01*
G01*
X0000439960Y0001287204D01*
G75*
G02*
X0000449803Y0001277362J-0000009842D01*
G01*
X0000449803Y0001241929D01*
G75*
G02*
X0000439960Y0001232086I-0000009842D01*
G01*
X0000419291Y0001232086D01*
G75*
G02*
X0000409448Y0001241929J0000009842D01*
G01*
G37*
G36*
G01*
X0000337598Y0001241929D02*
X0000337598Y0001277362D01*
G75*
G02*
X0000347440Y0001287204I0000009842D01*
G01*
X0000368110Y0001287204D01*
G75*
G02*
X0000377952Y0001277362J-0000009842D01*
G01*
X0000377952Y0001241929D01*
G75*
G02*
X0000368110Y0001232086I-0000009842D01*
G01*
X0000347440Y0001232086D01*
G75*
G02*
X0000337598Y0001241929J0000009842D01*
G01*
G37*
G36*
G01*
X0000177657Y0001277559D02*
X0000177657Y0001242125D01*
G75*
G02*
X0000167814Y0001232283I-0000009842D01*
G01*
X0000147145Y0001232283D01*
G75*
G02*
X0000137303Y0001242125J0000009842D01*
G01*
X0000137303Y0001277559D01*
G75*
G02*
X0000147145Y0001287401I0000009842D01*
G01*
X0000167814Y0001287401D01*
G75*
G02*
X0000177657Y0001277559J-0000009842D01*
G01*
G37*
G36*
G01*
X0000249507Y0001277559D02*
X0000249507Y0001242125D01*
G75*
G02*
X0000239665Y0001232283I-0000009842D01*
G01*
X0000218996Y0001232283D01*
G75*
G02*
X0000209153Y0001242125J0000009842D01*
G01*
X0000209153Y0001277559D01*
G75*
G02*
X0000218996Y0001287401I0000009842D01*
G01*
X0000239665Y0001287401D01*
G75*
G02*
X0000249507Y0001277559J-0000009842D01*
G01*
G37*
G36*
G01*
X0000409448Y0001360236D02*
X0000409448Y0001395669D01*
G75*
G02*
X0000419291Y0001405511I0000009842D01*
G01*
X0000439960Y0001405511D01*
G75*
G02*
X0000449803Y0001395669J-0000009842D01*
G01*
X0000449803Y0001360236D01*
G75*
G02*
X0000439960Y0001350393I-0000009842D01*
G01*
X0000419291Y0001350393D01*
G75*
G02*
X0000409448Y0001360236J0000009842D01*
G01*
G37*
G36*
G01*
X0000337598Y0001360236D02*
X0000337598Y0001395669D01*
G75*
G02*
X0000347440Y0001405511I0000009842D01*
G01*
X0000368110Y0001405511D01*
G75*
G02*
X0000377952Y0001395669J-0000009842D01*
G01*
X0000377952Y0001360236D01*
G75*
G02*
X0000368110Y0001350393I-0000009842D01*
G01*
X0000347440Y0001350393D01*
G75*
G02*
X0000337598Y0001360236J0000009842D01*
G01*
G37*
G36*
G01*
X0000184547Y0001395669D02*
X0000184547Y0001360236D01*
G75*
G02*
X0000174704Y0001350393I-0000009842D01*
G01*
X0000154035Y0001350393D01*
G75*
G02*
X0000144192Y0001360236J0000009842D01*
G01*
X0000144192Y0001395669D01*
G75*
G02*
X0000154035Y0001405511I0000009842D01*
G01*
X0000174704Y0001405511D01*
G75*
G02*
X0000184547Y0001395669J-0000009842D01*
G01*
G37*
G36*
G01*
X0000256397Y0001395669D02*
X0000256397Y0001360236D01*
G75*
G02*
X0000246555Y0001350393I-0000009842D01*
G01*
X0000225885Y0001350393D01*
G75*
G02*
X0000216043Y0001360236J0000009842D01*
G01*
X0000216043Y0001395669D01*
G75*
G02*
X0000225885Y0001405511I0000009842D01*
G01*
X0000246555Y0001405511D01*
G75*
G02*
X0000256397Y0001395669J-0000009842D01*
G01*
G37*
G36*
G01*
X0000412893Y0001478346D02*
X0000412893Y0001513779D01*
G75*
G02*
X0000422736Y0001523622I0000009842D01*
G01*
X0000443405Y0001523622D01*
G75*
G02*
X0000453247Y0001513779J-0000009842D01*
G01*
X0000453247Y0001478346D01*
G75*
G02*
X0000443405Y0001468503I-0000009842D01*
G01*
X0000422736Y0001468503D01*
G75*
G02*
X0000412893Y0001478346J0000009842D01*
G01*
G37*
G36*
G01*
X0000341043Y0001478346D02*
X0000341043Y0001513779D01*
G75*
G02*
X0000350885Y0001523622I0000009842D01*
G01*
X0000371555Y0001523622D01*
G75*
G02*
X0000381397Y0001513779J-0000009842D01*
G01*
X0000381397Y0001478346D01*
G75*
G02*
X0000371555Y0001468503I-0000009842D01*
G01*
X0000350885Y0001468503D01*
G75*
G02*
X0000341043Y0001478346J0000009842D01*
G01*
G37*
G36*
G01*
X0000178874Y0001513544D02*
X0000178874Y0001478111D01*
G75*
G02*
X0000169031Y0001468269I-0000009842D01*
G01*
X0000148362Y0001468269D01*
G75*
G02*
X0000138519Y0001478111J0000009842D01*
G01*
X0000138519Y0001513544D01*
G75*
G02*
X0000148362Y0001523387I0000009842D01*
G01*
X0000169031Y0001523387D01*
G75*
G02*
X0000178874Y0001513544J-0000009842D01*
G01*
G37*
G36*
G01*
X0000250724Y0001513544D02*
X0000250724Y0001478111D01*
G75*
G02*
X0000240881Y0001468269I-0000009842D01*
G01*
X0000220212Y0001468269D01*
G75*
G02*
X0000210370Y0001478111J0000009842D01*
G01*
X0000210370Y0001513544D01*
G75*
G02*
X0000220212Y0001523387I0000009842D01*
G01*
X0000240881Y0001523387D01*
G75*
G02*
X0000250724Y0001513544J-0000009842D01*
G01*
G37*
G36*
G01*
X0000409448Y0001596456D02*
X0000409448Y0001631889D01*
G75*
G02*
X0000419291Y0001641732I0000009842D01*
G01*
X0000439960Y0001641732D01*
G75*
G02*
X0000449803Y0001631889J-0000009842D01*
G01*
X0000449803Y0001596456D01*
G75*
G02*
X0000439960Y0001586614I-0000009842D01*
G01*
X0000419291Y0001586614D01*
G75*
G02*
X0000409448Y0001596456J0000009842D01*
G01*
G37*
G36*
G01*
X0000337598Y0001596456D02*
X0000337598Y0001631889D01*
G75*
G02*
X0000347440Y0001641732I0000009842D01*
G01*
X0000368110Y0001641732D01*
G75*
G02*
X0000377952Y0001631889J-0000009842D01*
G01*
X0000377952Y0001596456D01*
G75*
G02*
X0000368110Y0001586614I-0000009842D01*
G01*
X0000347440Y0001586614D01*
G75*
G02*
X0000337598Y0001596456J0000009842D01*
G01*
G37*
G36*
G01*
X0000177657Y0001631889D02*
X0000177657Y0001596456D01*
G75*
G02*
X0000167814Y0001586614I-0000009842D01*
G01*
X0000147145Y0001586614D01*
G75*
G02*
X0000137303Y0001596456J0000009842D01*
G01*
X0000137303Y0001631889D01*
G75*
G02*
X0000147145Y0001641732I0000009842D01*
G01*
X0000167814Y0001641732D01*
G75*
G02*
X0000177657Y0001631889J-0000009842D01*
G01*
G37*
G36*
G01*
X0000249507Y0001631889D02*
X0000249507Y0001596456D01*
G75*
G02*
X0000239665Y0001586614I-0000009842D01*
G01*
X0000218996Y0001586614D01*
G75*
G02*
X0000209153Y0001596456J0000009842D01*
G01*
X0000209153Y0001631889D01*
G75*
G02*
X0000218996Y0001641732I0000009842D01*
G01*
X0000239665Y0001641732D01*
G75*
G02*
X0000249507Y0001631889J-0000009842D01*
G01*
G37*
G36*
G01*
X0000399999Y0001761417D02*
X0000387401Y0001761417D01*
G75*
G02*
X0000381102Y0001767716J0000006299D01*
G01*
X0000381102Y0001783267D01*
G75*
G02*
X0000387401Y0001789566I0000006299D01*
G01*
X0000399999Y0001789566D01*
G75*
G02*
X0000406299Y0001783267J-0000006299D01*
G01*
X0000406299Y0001767716D01*
G75*
G02*
X0000399999Y0001761417I-0000006299D01*
G01*
G37*
G36*
G01*
X0000399999Y0001714370D02*
X0000387401Y0001714370D01*
G75*
G02*
X0000381102Y0001720669J0000006299D01*
G01*
X0000381102Y0001736220D01*
G75*
G02*
X0000387401Y0001742519I0000006299D01*
G01*
X0000399999Y0001742519D01*
G75*
G02*
X0000406299Y0001736220J-0000006299D01*
G01*
X0000406299Y0001720669D01*
G75*
G02*
X0000399999Y0001714370I-0000006299D01*
G01*
G37*
G36*
G01*
X0000124409Y0001761417D02*
X0000111811Y0001761417D01*
G75*
G02*
X0000105511Y0001767716J0000006299D01*
G01*
X0000105511Y0001783267D01*
G75*
G02*
X0000111811Y0001789566I0000006299D01*
G01*
X0000124409Y0001789566D01*
G75*
G02*
X0000130708Y0001783267J-0000006299D01*
G01*
X0000130708Y0001767716D01*
G75*
G02*
X0000124409Y0001761417I-0000006299D01*
G01*
G37*
G36*
G01*
X0000124409Y0001714370D02*
X0000111811Y0001714370D01*
G75*
G02*
X0000105511Y0001720669J0000006299D01*
G01*
X0000105511Y0001736220D01*
G75*
G02*
X0000111811Y0001742519I0000006299D01*
G01*
X0000124409Y0001742519D01*
G75*
G02*
X0000130708Y0001736220J-0000006299D01*
G01*
X0000130708Y0001720669D01*
G75*
G02*
X0000124409Y0001714370I-0000006299D01*
G01*
G37*
G36*
G01*
X0000478740Y0001859842D02*
X0000466141Y0001859842D01*
G75*
G02*
X0000459842Y0001866141J0000006299D01*
G01*
X0000459842Y0001881692D01*
G75*
G02*
X0000466141Y0001887992I0000006299D01*
G01*
X0000478740Y0001887992D01*
G75*
G02*
X0000485039Y0001881692J-0000006299D01*
G01*
X0000485039Y0001866141D01*
G75*
G02*
X0000478740Y0001859842I-0000006299D01*
G01*
G37*
G36*
G01*
X0000478740Y0001812795D02*
X0000466141Y0001812795D01*
G75*
G02*
X0000459842Y0001819094J0000006299D01*
G01*
X0000459842Y0001834645D01*
G75*
G02*
X0000466141Y0001840944I0000006299D01*
G01*
X0000478740Y0001840944D01*
G75*
G02*
X0000485039Y0001834645J-0000006299D01*
G01*
X0000485039Y0001819094D01*
G75*
G02*
X0000478740Y0001812795I-0000006299D01*
G01*
G37*
G36*
G01*
X0000124409Y0001859842D02*
X0000111811Y0001859842D01*
G75*
G02*
X0000105511Y0001866141J0000006299D01*
G01*
X0000105511Y0001881692D01*
G75*
G02*
X0000111811Y0001887992I0000006299D01*
G01*
X0000124409Y0001887992D01*
G75*
G02*
X0000130708Y0001881692J-0000006299D01*
G01*
X0000130708Y0001866141D01*
G75*
G02*
X0000124409Y0001859842I-0000006299D01*
G01*
G37*
G36*
G01*
X0000124409Y0001812795D02*
X0000111811Y0001812795D01*
G75*
G02*
X0000105511Y0001819094J0000006299D01*
G01*
X0000105511Y0001834645D01*
G75*
G02*
X0000111811Y0001840944I0000006299D01*
G01*
X0000124409Y0001840944D01*
G75*
G02*
X0000130708Y0001834645J-0000006299D01*
G01*
X0000130708Y0001819094D01*
G75*
G02*
X0000124409Y0001812795I-0000006299D01*
G01*
G37*
G04 next file*
G04 #@! TF.GenerationSoftware,KiCad,Pcbnew,(5.1.10)-1*
G04 #@! TF.CreationDate,2021-09-22T20:54:56-07:00*
G04 #@! TF.ProjectId,project,70726f6a-6563-4742-9e6b-696361645f70,rev?*
G04 #@! TF.SameCoordinates,Original*
G04 #@! TF.FileFunction,Soldermask,Bot*
G04 #@! TF.FilePolarity,Negative*
G04 Gerber Fmt 4.6, Leading zero omitted, Abs format (unit mm)*
G04 Created by KiCad (PCBNEW (5.1.10)-1) date 2021-09-22 20:54:56*
G01*
G04 APERTURE LIST*
G04 APERTURE END LIST*
D22*
X-0001850393Y-0005629921D02*
X0001771653Y0002283464D03*
X0001771653Y0002332677D03*
X0001771653Y0002381889D03*
X0001771653Y0002431102D03*
G36*
G01*
X0001753937Y0002496062D02*
X0001789370Y0002496062D01*
G75*
G02*
X0001797244Y0002488188J-0000007874D01*
G01*
X0001797244Y0002472440D01*
G75*
G02*
X0001789370Y0002464566I-0000007874D01*
G01*
X0001753937Y0002464566D01*
G75*
G02*
X0001746062Y0002472440J0000007874D01*
G01*
X0001746062Y0002488188D01*
G75*
G02*
X0001753937Y0002496062I0000007874D01*
G01*
G37*
G36*
G01*
X0001553149Y0002223917D02*
X0001517716Y0002223917D01*
G75*
G02*
X0001507874Y0002233759J0000009842D01*
G01*
X0001507874Y0002254429D01*
G75*
G02*
X0001517716Y0002264271I0000009842D01*
G01*
X0001553149Y0002264271D01*
G75*
G02*
X0001562992Y0002254429J-0000009842D01*
G01*
X0001562992Y0002233759D01*
G75*
G02*
X0001553149Y0002223917I-0000009842D01*
G01*
G37*
G36*
G01*
X0001553149Y0002152066D02*
X0001517716Y0002152066D01*
G75*
G02*
X0001507874Y0002161909J0000009842D01*
G01*
X0001507874Y0002182578D01*
G75*
G02*
X0001517716Y0002192421I0000009842D01*
G01*
X0001553149Y0002192421D01*
G75*
G02*
X0001562992Y0002182578J-0000009842D01*
G01*
X0001562992Y0002161909D01*
G75*
G02*
X0001553149Y0002152066I-0000009842D01*
G01*
G37*
G36*
G01*
X0001517716Y0002546751D02*
X0001553149Y0002546751D01*
G75*
G02*
X0001562992Y0002536909J-0000009842D01*
G01*
X0001562992Y0002516240D01*
G75*
G02*
X0001553149Y0002506397I-0000009842D01*
G01*
X0001517716Y0002506397D01*
G75*
G02*
X0001507874Y0002516240J0000009842D01*
G01*
X0001507874Y0002536909D01*
G75*
G02*
X0001517716Y0002546751I0000009842D01*
G01*
G37*
G36*
G01*
X0001517716Y0002618602D02*
X0001553149Y0002618602D01*
G75*
G02*
X0001562992Y0002608759J-0000009842D01*
G01*
X0001562992Y0002588090D01*
G75*
G02*
X0001553149Y0002578248I-0000009842D01*
G01*
X0001517716Y0002578248D01*
G75*
G02*
X0001507874Y0002588090J0000009842D01*
G01*
X0001507874Y0002608759D01*
G75*
G02*
X0001517716Y0002618602I0000009842D01*
G01*
G37*
D23*
X0001367125Y0002523622D03*
X0001341535Y0002523622D03*
X0001315944Y0002523622D03*
X0001290354Y0002523622D03*
X0001264763Y0002523622D03*
X0001239173Y0002523622D03*
X0001213582Y0002523622D03*
X0001187992Y0002523622D03*
X0001162401Y0002523622D03*
X0001136811Y0002523622D03*
X0001111220Y0002523622D03*
X0001085629Y0002523622D03*
X0001060039Y0002523622D03*
X0001034448Y0002523622D03*
X0001034448Y0002240157D03*
X0001060039Y0002240157D03*
X0001085629Y0002240157D03*
X0001111220Y0002240157D03*
X0001136811Y0002240157D03*
X0001162401Y0002240157D03*
X0001187992Y0002240157D03*
X0001213582Y0002240157D03*
X0001239173Y0002240157D03*
X0001264763Y0002240157D03*
X0001290354Y0002240157D03*
X0001315944Y0002240157D03*
X0001341535Y0002240157D03*
X0001367125Y0002240157D03*
G36*
G01*
X0000207086Y0002565354D02*
X0000207086Y0002552755D01*
G75*
G02*
X0000200787Y0002546456I-0000006299D01*
G01*
X0000185236Y0002546456D01*
G75*
G02*
X0000178937Y0002552755J0000006299D01*
G01*
X0000178937Y0002565354D01*
G75*
G02*
X0000185236Y0002571653I0000006299D01*
G01*
X0000200787Y0002571653D01*
G75*
G02*
X0000207086Y0002565354J-0000006299D01*
G01*
G37*
G36*
G01*
X0000254133Y0002565354D02*
X0000254133Y0002552755D01*
G75*
G02*
X0000247834Y0002546456I-0000006299D01*
G01*
X0000232283Y0002546456D01*
G75*
G02*
X0000225984Y0002552755J0000006299D01*
G01*
X0000225984Y0002565354D01*
G75*
G02*
X0000232283Y0002571653I0000006299D01*
G01*
X0000247834Y0002571653D01*
G75*
G02*
X0000254133Y0002565354J-0000006299D01*
G01*
G37*
G36*
G01*
X0000207086Y0002289763D02*
X0000207086Y0002277165D01*
G75*
G02*
X0000200787Y0002270866I-0000006299D01*
G01*
X0000185236Y0002270866D01*
G75*
G02*
X0000178937Y0002277165J0000006299D01*
G01*
X0000178937Y0002289763D01*
G75*
G02*
X0000185236Y0002296062I0000006299D01*
G01*
X0000200787Y0002296062D01*
G75*
G02*
X0000207086Y0002289763J-0000006299D01*
G01*
G37*
G36*
G01*
X0000254133Y0002289763D02*
X0000254133Y0002277165D01*
G75*
G02*
X0000247834Y0002270866I-0000006299D01*
G01*
X0000232283Y0002270866D01*
G75*
G02*
X0000225984Y0002277165J0000006299D01*
G01*
X0000225984Y0002289763D01*
G75*
G02*
X0000232283Y0002296062I0000006299D01*
G01*
X0000247834Y0002296062D01*
G75*
G02*
X0000254133Y0002289763J-0000006299D01*
G01*
G37*
G36*
G01*
X0000108661Y0002486614D02*
X0000108661Y0002474015D01*
G75*
G02*
X0000102362Y0002467716I-0000006299D01*
G01*
X0000086811Y0002467716D01*
G75*
G02*
X0000080511Y0002474015J0000006299D01*
G01*
X0000080511Y0002486614D01*
G75*
G02*
X0000086811Y0002492913I0000006299D01*
G01*
X0000102362Y0002492913D01*
G75*
G02*
X0000108661Y0002486614J-0000006299D01*
G01*
G37*
G36*
G01*
X0000155708Y0002486614D02*
X0000155708Y0002474015D01*
G75*
G02*
X0000149409Y0002467716I-0000006299D01*
G01*
X0000133858Y0002467716D01*
G75*
G02*
X0000127559Y0002474015J0000006299D01*
G01*
X0000127559Y0002486614D01*
G75*
G02*
X0000133858Y0002492913I0000006299D01*
G01*
X0000149409Y0002492913D01*
G75*
G02*
X0000155708Y0002486614J-0000006299D01*
G01*
G37*
G36*
G01*
X0000108661Y0002289763D02*
X0000108661Y0002277165D01*
G75*
G02*
X0000102362Y0002270866I-0000006299D01*
G01*
X0000086811Y0002270866D01*
G75*
G02*
X0000080511Y0002277165J0000006299D01*
G01*
X0000080511Y0002289763D01*
G75*
G02*
X0000086811Y0002296062I0000006299D01*
G01*
X0000102362Y0002296062D01*
G75*
G02*
X0000108661Y0002289763J-0000006299D01*
G01*
G37*
G36*
G01*
X0000155708Y0002289763D02*
X0000155708Y0002277165D01*
G75*
G02*
X0000149409Y0002270866I-0000006299D01*
G01*
X0000133858Y0002270866D01*
G75*
G02*
X0000127559Y0002277165J0000006299D01*
G01*
X0000127559Y0002289763D01*
G75*
G02*
X0000133858Y0002296062I0000006299D01*
G01*
X0000149409Y0002296062D01*
G75*
G02*
X0000155708Y0002289763J-0000006299D01*
G01*
G37*
G36*
G01*
X0000844488Y0002496062D02*
X0000809055Y0002496062D01*
G75*
G02*
X0000799212Y0002505905J0000009842D01*
G01*
X0000799212Y0002526574D01*
G75*
G02*
X0000809055Y0002536417I0000009842D01*
G01*
X0000844488Y0002536417D01*
G75*
G02*
X0000854330Y0002526574J-0000009842D01*
G01*
X0000854330Y0002505905D01*
G75*
G02*
X0000844488Y0002496062I-0000009842D01*
G01*
G37*
G36*
G01*
X0000844488Y0002424212D02*
X0000809055Y0002424212D01*
G75*
G02*
X0000799212Y0002434055J0000009842D01*
G01*
X0000799212Y0002454724D01*
G75*
G02*
X0000809055Y0002464566I0000009842D01*
G01*
X0000844488Y0002464566D01*
G75*
G02*
X0000854330Y0002454724J-0000009842D01*
G01*
X0000854330Y0002434055D01*
G75*
G02*
X0000844488Y0002424212I-0000009842D01*
G01*
G37*
G36*
G01*
X0000809055Y0002264271D02*
X0000844488Y0002264271D01*
G75*
G02*
X0000854330Y0002254429J-0000009842D01*
G01*
X0000854330Y0002233759D01*
G75*
G02*
X0000844488Y0002223917I-0000009842D01*
G01*
X0000809055Y0002223917D01*
G75*
G02*
X0000799212Y0002233759J0000009842D01*
G01*
X0000799212Y0002254429D01*
G75*
G02*
X0000809055Y0002264271I0000009842D01*
G01*
G37*
G36*
G01*
X0000809055Y0002336122D02*
X0000844488Y0002336122D01*
G75*
G02*
X0000854330Y0002326279J-0000009842D01*
G01*
X0000854330Y0002305610D01*
G75*
G02*
X0000844488Y0002295767I-0000009842D01*
G01*
X0000809055Y0002295767D01*
G75*
G02*
X0000799212Y0002305610J0000009842D01*
G01*
X0000799212Y0002326279D01*
G75*
G02*
X0000809055Y0002336122I0000009842D01*
G01*
G37*
G36*
G01*
X0000726574Y0002496062D02*
X0000691141Y0002496062D01*
G75*
G02*
X0000681299Y0002505905J0000009842D01*
G01*
X0000681299Y0002526574D01*
G75*
G02*
X0000691141Y0002536417I0000009842D01*
G01*
X0000726574Y0002536417D01*
G75*
G02*
X0000736417Y0002526574J-0000009842D01*
G01*
X0000736417Y0002505905D01*
G75*
G02*
X0000726574Y0002496062I-0000009842D01*
G01*
G37*
G36*
G01*
X0000726574Y0002424212D02*
X0000691141Y0002424212D01*
G75*
G02*
X0000681299Y0002434055J0000009842D01*
G01*
X0000681299Y0002454724D01*
G75*
G02*
X0000691141Y0002464566I0000009842D01*
G01*
X0000726574Y0002464566D01*
G75*
G02*
X0000736417Y0002454724J-0000009842D01*
G01*
X0000736417Y0002434055D01*
G75*
G02*
X0000726574Y0002424212I-0000009842D01*
G01*
G37*
G36*
G01*
X0000690944Y0002264271D02*
X0000726377Y0002264271D01*
G75*
G02*
X0000736220Y0002254429J-0000009842D01*
G01*
X0000736220Y0002233759D01*
G75*
G02*
X0000726377Y0002223917I-0000009842D01*
G01*
X0000690944Y0002223917D01*
G75*
G02*
X0000681102Y0002233759J0000009842D01*
G01*
X0000681102Y0002254429D01*
G75*
G02*
X0000690944Y0002264271I0000009842D01*
G01*
G37*
G36*
G01*
X0000690944Y0002336122D02*
X0000726377Y0002336122D01*
G75*
G02*
X0000736220Y0002326279J-0000009842D01*
G01*
X0000736220Y0002305610D01*
G75*
G02*
X0000726377Y0002295767I-0000009842D01*
G01*
X0000690944Y0002295767D01*
G75*
G02*
X0000681102Y0002305610J0000009842D01*
G01*
X0000681102Y0002326279D01*
G75*
G02*
X0000690944Y0002336122I0000009842D01*
G01*
G37*
G36*
G01*
X0000608267Y0002496062D02*
X0000572834Y0002496062D01*
G75*
G02*
X0000562992Y0002505905J0000009842D01*
G01*
X0000562992Y0002526574D01*
G75*
G02*
X0000572834Y0002536417I0000009842D01*
G01*
X0000608267Y0002536417D01*
G75*
G02*
X0000618110Y0002526574J-0000009842D01*
G01*
X0000618110Y0002505905D01*
G75*
G02*
X0000608267Y0002496062I-0000009842D01*
G01*
G37*
G36*
G01*
X0000608267Y0002424212D02*
X0000572834Y0002424212D01*
G75*
G02*
X0000562992Y0002434055J0000009842D01*
G01*
X0000562992Y0002454724D01*
G75*
G02*
X0000572834Y0002464566I0000009842D01*
G01*
X0000608267Y0002464566D01*
G75*
G02*
X0000618110Y0002454724J-0000009842D01*
G01*
X0000618110Y0002434055D01*
G75*
G02*
X0000608267Y0002424212I-0000009842D01*
G01*
G37*
G36*
G01*
X0000572834Y0002271161D02*
X0000608267Y0002271161D01*
G75*
G02*
X0000618110Y0002261318J-0000009842D01*
G01*
X0000618110Y0002240649D01*
G75*
G02*
X0000608267Y0002230807I-0000009842D01*
G01*
X0000572834Y0002230807D01*
G75*
G02*
X0000562992Y0002240649J0000009842D01*
G01*
X0000562992Y0002261318D01*
G75*
G02*
X0000572834Y0002271161I0000009842D01*
G01*
G37*
G36*
G01*
X0000572834Y0002343011D02*
X0000608267Y0002343011D01*
G75*
G02*
X0000618110Y0002333169J-0000009842D01*
G01*
X0000618110Y0002312499D01*
G75*
G02*
X0000608267Y0002302657I-0000009842D01*
G01*
X0000572834Y0002302657D01*
G75*
G02*
X0000562992Y0002312499J0000009842D01*
G01*
X0000562992Y0002333169D01*
G75*
G02*
X0000572834Y0002343011I0000009842D01*
G01*
G37*
G36*
G01*
X0000490157Y0002499507D02*
X0000454724Y0002499507D01*
G75*
G02*
X0000444881Y0002509350J0000009842D01*
G01*
X0000444881Y0002530019D01*
G75*
G02*
X0000454724Y0002539862I0000009842D01*
G01*
X0000490157Y0002539862D01*
G75*
G02*
X0000500000Y0002530019J-0000009842D01*
G01*
X0000500000Y0002509350D01*
G75*
G02*
X0000490157Y0002499507I-0000009842D01*
G01*
G37*
G36*
G01*
X0000490157Y0002427657D02*
X0000454724Y0002427657D01*
G75*
G02*
X0000444881Y0002437499J0000009842D01*
G01*
X0000444881Y0002458169D01*
G75*
G02*
X0000454724Y0002468011I0000009842D01*
G01*
X0000490157Y0002468011D01*
G75*
G02*
X0000500000Y0002458169J-0000009842D01*
G01*
X0000500000Y0002437499D01*
G75*
G02*
X0000490157Y0002427657I-0000009842D01*
G01*
G37*
G36*
G01*
X0000454959Y0002265488D02*
X0000490392Y0002265488D01*
G75*
G02*
X0000500234Y0002255645J-0000009842D01*
G01*
X0000500234Y0002234976D01*
G75*
G02*
X0000490392Y0002225133I-0000009842D01*
G01*
X0000454959Y0002225133D01*
G75*
G02*
X0000445116Y0002234976J0000009842D01*
G01*
X0000445116Y0002255645D01*
G75*
G02*
X0000454959Y0002265488I0000009842D01*
G01*
G37*
G36*
G01*
X0000454959Y0002337338D02*
X0000490392Y0002337338D01*
G75*
G02*
X0000500234Y0002327496J-0000009842D01*
G01*
X0000500234Y0002306826D01*
G75*
G02*
X0000490392Y0002296984I-0000009842D01*
G01*
X0000454959Y0002296984D01*
G75*
G02*
X0000445116Y0002306826J0000009842D01*
G01*
X0000445116Y0002327496D01*
G75*
G02*
X0000454959Y0002337338I0000009842D01*
G01*
G37*
G36*
G01*
X0000372047Y0002496062D02*
X0000336614Y0002496062D01*
G75*
G02*
X0000326771Y0002505905J0000009842D01*
G01*
X0000326771Y0002526574D01*
G75*
G02*
X0000336614Y0002536417I0000009842D01*
G01*
X0000372047Y0002536417D01*
G75*
G02*
X0000381889Y0002526574J-0000009842D01*
G01*
X0000381889Y0002505905D01*
G75*
G02*
X0000372047Y0002496062I-0000009842D01*
G01*
G37*
G36*
G01*
X0000372047Y0002424212D02*
X0000336614Y0002424212D01*
G75*
G02*
X0000326771Y0002434055J0000009842D01*
G01*
X0000326771Y0002454724D01*
G75*
G02*
X0000336614Y0002464566I0000009842D01*
G01*
X0000372047Y0002464566D01*
G75*
G02*
X0000381889Y0002454724J-0000009842D01*
G01*
X0000381889Y0002434055D01*
G75*
G02*
X0000372047Y0002424212I-0000009842D01*
G01*
G37*
G36*
G01*
X0000336614Y0002264271D02*
X0000372047Y0002264271D01*
G75*
G02*
X0000381889Y0002254429J-0000009842D01*
G01*
X0000381889Y0002233759D01*
G75*
G02*
X0000372047Y0002223917I-0000009842D01*
G01*
X0000336614Y0002223917D01*
G75*
G02*
X0000326771Y0002233759J0000009842D01*
G01*
X0000326771Y0002254429D01*
G75*
G02*
X0000336614Y0002264271I0000009842D01*
G01*
G37*
G36*
G01*
X0000336614Y0002336122D02*
X0000372047Y0002336122D01*
G75*
G02*
X0000381889Y0002326279J-0000009842D01*
G01*
X0000381889Y0002305610D01*
G75*
G02*
X0000372047Y0002295767I-0000009842D01*
G01*
X0000336614Y0002295767D01*
G75*
G02*
X0000326771Y0002305610J0000009842D01*
G01*
X0000326771Y0002326279D01*
G75*
G02*
X0000336614Y0002336122I0000009842D01*
G01*
G37*
G36*
G01*
X0000207086Y0002486614D02*
X0000207086Y0002474015D01*
G75*
G02*
X0000200787Y0002467716I-0000006299D01*
G01*
X0000185236Y0002467716D01*
G75*
G02*
X0000178937Y0002474015J0000006299D01*
G01*
X0000178937Y0002486614D01*
G75*
G02*
X0000185236Y0002492913I0000006299D01*
G01*
X0000200787Y0002492913D01*
G75*
G02*
X0000207086Y0002486614J-0000006299D01*
G01*
G37*
G36*
G01*
X0000254133Y0002486614D02*
X0000254133Y0002474015D01*
G75*
G02*
X0000247834Y0002467716I-0000006299D01*
G01*
X0000232283Y0002467716D01*
G75*
G02*
X0000225984Y0002474015J0000006299D01*
G01*
X0000225984Y0002486614D01*
G75*
G02*
X0000232283Y0002492913I0000006299D01*
G01*
X0000247834Y0002492913D01*
G75*
G02*
X0000254133Y0002486614J-0000006299D01*
G01*
G37*
G36*
G01*
X0000207086Y0002211023D02*
X0000207086Y0002198425D01*
G75*
G02*
X0000200787Y0002192125I-0000006299D01*
G01*
X0000185236Y0002192125D01*
G75*
G02*
X0000178937Y0002198425J0000006299D01*
G01*
X0000178937Y0002211023D01*
G75*
G02*
X0000185236Y0002217322I0000006299D01*
G01*
X0000200787Y0002217322D01*
G75*
G02*
X0000207086Y0002211023J-0000006299D01*
G01*
G37*
G36*
G01*
X0000254133Y0002211023D02*
X0000254133Y0002198425D01*
G75*
G02*
X0000247834Y0002192125I-0000006299D01*
G01*
X0000232283Y0002192125D01*
G75*
G02*
X0000225984Y0002198425J0000006299D01*
G01*
X0000225984Y0002211023D01*
G75*
G02*
X0000232283Y0002217322I0000006299D01*
G01*
X0000247834Y0002217322D01*
G75*
G02*
X0000254133Y0002211023J-0000006299D01*
G01*
G37*
G36*
G01*
X0000108661Y0002565354D02*
X0000108661Y0002552755D01*
G75*
G02*
X0000102362Y0002546456I-0000006299D01*
G01*
X0000086811Y0002546456D01*
G75*
G02*
X0000080511Y0002552755J0000006299D01*
G01*
X0000080511Y0002565354D01*
G75*
G02*
X0000086811Y0002571653I0000006299D01*
G01*
X0000102362Y0002571653D01*
G75*
G02*
X0000108661Y0002565354J-0000006299D01*
G01*
G37*
G36*
G01*
X0000155708Y0002565354D02*
X0000155708Y0002552755D01*
G75*
G02*
X0000149409Y0002546456I-0000006299D01*
G01*
X0000133858Y0002546456D01*
G75*
G02*
X0000127559Y0002552755J0000006299D01*
G01*
X0000127559Y0002565354D01*
G75*
G02*
X0000133858Y0002571653I0000006299D01*
G01*
X0000149409Y0002571653D01*
G75*
G02*
X0000155708Y0002565354J-0000006299D01*
G01*
G37*
G36*
G01*
X0000108661Y0002211023D02*
X0000108661Y0002198425D01*
G75*
G02*
X0000102362Y0002192125I-0000006299D01*
G01*
X0000086811Y0002192125D01*
G75*
G02*
X0000080511Y0002198425J0000006299D01*
G01*
X0000080511Y0002211023D01*
G75*
G02*
X0000086811Y0002217322I0000006299D01*
G01*
X0000102362Y0002217322D01*
G75*
G02*
X0000108661Y0002211023J-0000006299D01*
G01*
G37*
G36*
G01*
X0000155708Y0002211023D02*
X0000155708Y0002198425D01*
G75*
G02*
X0000149409Y0002192125I-0000006299D01*
G01*
X0000133858Y0002192125D01*
G75*
G02*
X0000127559Y0002198425J0000006299D01*
G01*
X0000127559Y0002211023D01*
G75*
G02*
X0000133858Y0002217322I0000006299D01*
G01*
X0000149409Y0002217322D01*
G75*
G02*
X0000155708Y0002211023J-0000006299D01*
G01*
G37*
G04 next file*
G04 #@! TF.GenerationSoftware,KiCad,Pcbnew,(5.1.10)-1*
G04 #@! TF.CreationDate,2021-09-22T20:54:56-07:00*
G04 #@! TF.ProjectId,project,70726f6a-6563-4742-9e6b-696361645f70,rev?*
G04 #@! TF.SameCoordinates,Original*
G04 #@! TF.FileFunction,Soldermask,Bot*
G04 #@! TF.FilePolarity,Negative*
G04 Gerber Fmt 4.6, Leading zero omitted, Abs format (unit mm)*
G04 Created by KiCad (PCBNEW (5.1.10)-1) date 2021-09-22 20:54:56*
G01*
G04 APERTURE LIST*
G04 APERTURE END LIST*
D24*
X-0001850393Y-0004921259D02*
X0001771653Y0002992125D03*
X0001771653Y0003041338D03*
X0001771653Y0003090551D03*
X0001771653Y0003139763D03*
G36*
G01*
X0001753937Y0003204724D02*
X0001789370Y0003204724D01*
G75*
G02*
X0001797244Y0003196850J-0000007874D01*
G01*
X0001797244Y0003181102D01*
G75*
G02*
X0001789370Y0003173228I-0000007874D01*
G01*
X0001753937Y0003173228D01*
G75*
G02*
X0001746062Y0003181102J0000007874D01*
G01*
X0001746062Y0003196850D01*
G75*
G02*
X0001753937Y0003204724I0000007874D01*
G01*
G37*
G36*
G01*
X0001553149Y0002932578D02*
X0001517716Y0002932578D01*
G75*
G02*
X0001507874Y0002942421J0000009842D01*
G01*
X0001507874Y0002963090D01*
G75*
G02*
X0001517716Y0002972933I0000009842D01*
G01*
X0001553149Y0002972933D01*
G75*
G02*
X0001562992Y0002963090J-0000009842D01*
G01*
X0001562992Y0002942421D01*
G75*
G02*
X0001553149Y0002932578I-0000009842D01*
G01*
G37*
G36*
G01*
X0001553149Y0002860728D02*
X0001517716Y0002860728D01*
G75*
G02*
X0001507874Y0002870570J0000009842D01*
G01*
X0001507874Y0002891240D01*
G75*
G02*
X0001517716Y0002901082I0000009842D01*
G01*
X0001553149Y0002901082D01*
G75*
G02*
X0001562992Y0002891240J-0000009842D01*
G01*
X0001562992Y0002870570D01*
G75*
G02*
X0001553149Y0002860728I-0000009842D01*
G01*
G37*
G36*
G01*
X0001517716Y0003255413D02*
X0001553149Y0003255413D01*
G75*
G02*
X0001562992Y0003245570J-0000009842D01*
G01*
X0001562992Y0003224901D01*
G75*
G02*
X0001553149Y0003215059I-0000009842D01*
G01*
X0001517716Y0003215059D01*
G75*
G02*
X0001507874Y0003224901J0000009842D01*
G01*
X0001507874Y0003245570D01*
G75*
G02*
X0001517716Y0003255413I0000009842D01*
G01*
G37*
G36*
G01*
X0001517716Y0003327263D02*
X0001553149Y0003327263D01*
G75*
G02*
X0001562992Y0003317421J-0000009842D01*
G01*
X0001562992Y0003296751D01*
G75*
G02*
X0001553149Y0003286909I-0000009842D01*
G01*
X0001517716Y0003286909D01*
G75*
G02*
X0001507874Y0003296751J0000009842D01*
G01*
X0001507874Y0003317421D01*
G75*
G02*
X0001517716Y0003327263I0000009842D01*
G01*
G37*
D25*
X0001367125Y0003232283D03*
X0001341535Y0003232283D03*
X0001315944Y0003232283D03*
X0001290354Y0003232283D03*
X0001264763Y0003232283D03*
X0001239173Y0003232283D03*
X0001213582Y0003232283D03*
X0001187992Y0003232283D03*
X0001162401Y0003232283D03*
X0001136811Y0003232283D03*
X0001111220Y0003232283D03*
X0001085629Y0003232283D03*
X0001060039Y0003232283D03*
X0001034448Y0003232283D03*
X0001034448Y0002948818D03*
X0001060039Y0002948818D03*
X0001085629Y0002948818D03*
X0001111220Y0002948818D03*
X0001136811Y0002948818D03*
X0001162401Y0002948818D03*
X0001187992Y0002948818D03*
X0001213582Y0002948818D03*
X0001239173Y0002948818D03*
X0001264763Y0002948818D03*
X0001290354Y0002948818D03*
X0001315944Y0002948818D03*
X0001341535Y0002948818D03*
X0001367125Y0002948818D03*
G36*
G01*
X0000207086Y0003274015D02*
X0000207086Y0003261417D01*
G75*
G02*
X0000200787Y0003255118I-0000006299D01*
G01*
X0000185236Y0003255118D01*
G75*
G02*
X0000178937Y0003261417J0000006299D01*
G01*
X0000178937Y0003274015D01*
G75*
G02*
X0000185236Y0003280314I0000006299D01*
G01*
X0000200787Y0003280314D01*
G75*
G02*
X0000207086Y0003274015J-0000006299D01*
G01*
G37*
G36*
G01*
X0000254133Y0003274015D02*
X0000254133Y0003261417D01*
G75*
G02*
X0000247834Y0003255118I-0000006299D01*
G01*
X0000232283Y0003255118D01*
G75*
G02*
X0000225984Y0003261417J0000006299D01*
G01*
X0000225984Y0003274015D01*
G75*
G02*
X0000232283Y0003280314I0000006299D01*
G01*
X0000247834Y0003280314D01*
G75*
G02*
X0000254133Y0003274015J-0000006299D01*
G01*
G37*
G36*
G01*
X0000207086Y0002998425D02*
X0000207086Y0002985826D01*
G75*
G02*
X0000200787Y0002979527I-0000006299D01*
G01*
X0000185236Y0002979527D01*
G75*
G02*
X0000178937Y0002985826J0000006299D01*
G01*
X0000178937Y0002998425D01*
G75*
G02*
X0000185236Y0003004724I0000006299D01*
G01*
X0000200787Y0003004724D01*
G75*
G02*
X0000207086Y0002998425J-0000006299D01*
G01*
G37*
G36*
G01*
X0000254133Y0002998425D02*
X0000254133Y0002985826D01*
G75*
G02*
X0000247834Y0002979527I-0000006299D01*
G01*
X0000232283Y0002979527D01*
G75*
G02*
X0000225984Y0002985826J0000006299D01*
G01*
X0000225984Y0002998425D01*
G75*
G02*
X0000232283Y0003004724I0000006299D01*
G01*
X0000247834Y0003004724D01*
G75*
G02*
X0000254133Y0002998425J-0000006299D01*
G01*
G37*
G36*
G01*
X0000108661Y0003195275D02*
X0000108661Y0003182677D01*
G75*
G02*
X0000102362Y0003176377I-0000006299D01*
G01*
X0000086811Y0003176377D01*
G75*
G02*
X0000080511Y0003182677J0000006299D01*
G01*
X0000080511Y0003195275D01*
G75*
G02*
X0000086811Y0003201574I0000006299D01*
G01*
X0000102362Y0003201574D01*
G75*
G02*
X0000108661Y0003195275J-0000006299D01*
G01*
G37*
G36*
G01*
X0000155708Y0003195275D02*
X0000155708Y0003182677D01*
G75*
G02*
X0000149409Y0003176377I-0000006299D01*
G01*
X0000133858Y0003176377D01*
G75*
G02*
X0000127559Y0003182677J0000006299D01*
G01*
X0000127559Y0003195275D01*
G75*
G02*
X0000133858Y0003201574I0000006299D01*
G01*
X0000149409Y0003201574D01*
G75*
G02*
X0000155708Y0003195275J-0000006299D01*
G01*
G37*
G36*
G01*
X0000108661Y0002998425D02*
X0000108661Y0002985826D01*
G75*
G02*
X0000102362Y0002979527I-0000006299D01*
G01*
X0000086811Y0002979527D01*
G75*
G02*
X0000080511Y0002985826J0000006299D01*
G01*
X0000080511Y0002998425D01*
G75*
G02*
X0000086811Y0003004724I0000006299D01*
G01*
X0000102362Y0003004724D01*
G75*
G02*
X0000108661Y0002998425J-0000006299D01*
G01*
G37*
G36*
G01*
X0000155708Y0002998425D02*
X0000155708Y0002985826D01*
G75*
G02*
X0000149409Y0002979527I-0000006299D01*
G01*
X0000133858Y0002979527D01*
G75*
G02*
X0000127559Y0002985826J0000006299D01*
G01*
X0000127559Y0002998425D01*
G75*
G02*
X0000133858Y0003004724I0000006299D01*
G01*
X0000149409Y0003004724D01*
G75*
G02*
X0000155708Y0002998425J-0000006299D01*
G01*
G37*
G36*
G01*
X0000844488Y0003204724D02*
X0000809055Y0003204724D01*
G75*
G02*
X0000799212Y0003214566J0000009842D01*
G01*
X0000799212Y0003235236D01*
G75*
G02*
X0000809055Y0003245078I0000009842D01*
G01*
X0000844488Y0003245078D01*
G75*
G02*
X0000854330Y0003235236J-0000009842D01*
G01*
X0000854330Y0003214566D01*
G75*
G02*
X0000844488Y0003204724I-0000009842D01*
G01*
G37*
G36*
G01*
X0000844488Y0003132873D02*
X0000809055Y0003132873D01*
G75*
G02*
X0000799212Y0003142716J0000009842D01*
G01*
X0000799212Y0003163385D01*
G75*
G02*
X0000809055Y0003173228I0000009842D01*
G01*
X0000844488Y0003173228D01*
G75*
G02*
X0000854330Y0003163385J-0000009842D01*
G01*
X0000854330Y0003142716D01*
G75*
G02*
X0000844488Y0003132873I-0000009842D01*
G01*
G37*
G36*
G01*
X0000809055Y0002972933D02*
X0000844488Y0002972933D01*
G75*
G02*
X0000854330Y0002963090J-0000009842D01*
G01*
X0000854330Y0002942421D01*
G75*
G02*
X0000844488Y0002932578I-0000009842D01*
G01*
X0000809055Y0002932578D01*
G75*
G02*
X0000799212Y0002942421J0000009842D01*
G01*
X0000799212Y0002963090D01*
G75*
G02*
X0000809055Y0002972933I0000009842D01*
G01*
G37*
G36*
G01*
X0000809055Y0003044783D02*
X0000844488Y0003044783D01*
G75*
G02*
X0000854330Y0003034940J-0000009842D01*
G01*
X0000854330Y0003014271D01*
G75*
G02*
X0000844488Y0003004429I-0000009842D01*
G01*
X0000809055Y0003004429D01*
G75*
G02*
X0000799212Y0003014271J0000009842D01*
G01*
X0000799212Y0003034940D01*
G75*
G02*
X0000809055Y0003044783I0000009842D01*
G01*
G37*
G36*
G01*
X0000726574Y0003204724D02*
X0000691141Y0003204724D01*
G75*
G02*
X0000681299Y0003214566J0000009842D01*
G01*
X0000681299Y0003235236D01*
G75*
G02*
X0000691141Y0003245078I0000009842D01*
G01*
X0000726574Y0003245078D01*
G75*
G02*
X0000736417Y0003235236J-0000009842D01*
G01*
X0000736417Y0003214566D01*
G75*
G02*
X0000726574Y0003204724I-0000009842D01*
G01*
G37*
G36*
G01*
X0000726574Y0003132873D02*
X0000691141Y0003132873D01*
G75*
G02*
X0000681299Y0003142716J0000009842D01*
G01*
X0000681299Y0003163385D01*
G75*
G02*
X0000691141Y0003173228I0000009842D01*
G01*
X0000726574Y0003173228D01*
G75*
G02*
X0000736417Y0003163385J-0000009842D01*
G01*
X0000736417Y0003142716D01*
G75*
G02*
X0000726574Y0003132873I-0000009842D01*
G01*
G37*
G36*
G01*
X0000690944Y0002972933D02*
X0000726377Y0002972933D01*
G75*
G02*
X0000736220Y0002963090J-0000009842D01*
G01*
X0000736220Y0002942421D01*
G75*
G02*
X0000726377Y0002932578I-0000009842D01*
G01*
X0000690944Y0002932578D01*
G75*
G02*
X0000681102Y0002942421J0000009842D01*
G01*
X0000681102Y0002963090D01*
G75*
G02*
X0000690944Y0002972933I0000009842D01*
G01*
G37*
G36*
G01*
X0000690944Y0003044783D02*
X0000726377Y0003044783D01*
G75*
G02*
X0000736220Y0003034940J-0000009842D01*
G01*
X0000736220Y0003014271D01*
G75*
G02*
X0000726377Y0003004429I-0000009842D01*
G01*
X0000690944Y0003004429D01*
G75*
G02*
X0000681102Y0003014271J0000009842D01*
G01*
X0000681102Y0003034940D01*
G75*
G02*
X0000690944Y0003044783I0000009842D01*
G01*
G37*
G36*
G01*
X0000608267Y0003204724D02*
X0000572834Y0003204724D01*
G75*
G02*
X0000562992Y0003214566J0000009842D01*
G01*
X0000562992Y0003235236D01*
G75*
G02*
X0000572834Y0003245078I0000009842D01*
G01*
X0000608267Y0003245078D01*
G75*
G02*
X0000618110Y0003235236J-0000009842D01*
G01*
X0000618110Y0003214566D01*
G75*
G02*
X0000608267Y0003204724I-0000009842D01*
G01*
G37*
G36*
G01*
X0000608267Y0003132873D02*
X0000572834Y0003132873D01*
G75*
G02*
X0000562992Y0003142716J0000009842D01*
G01*
X0000562992Y0003163385D01*
G75*
G02*
X0000572834Y0003173228I0000009842D01*
G01*
X0000608267Y0003173228D01*
G75*
G02*
X0000618110Y0003163385J-0000009842D01*
G01*
X0000618110Y0003142716D01*
G75*
G02*
X0000608267Y0003132873I-0000009842D01*
G01*
G37*
G36*
G01*
X0000572834Y0002979822D02*
X0000608267Y0002979822D01*
G75*
G02*
X0000618110Y0002969980J-0000009842D01*
G01*
X0000618110Y0002949310D01*
G75*
G02*
X0000608267Y0002939468I-0000009842D01*
G01*
X0000572834Y0002939468D01*
G75*
G02*
X0000562992Y0002949310J0000009842D01*
G01*
X0000562992Y0002969980D01*
G75*
G02*
X0000572834Y0002979822I0000009842D01*
G01*
G37*
G36*
G01*
X0000572834Y0003051673D02*
X0000608267Y0003051673D01*
G75*
G02*
X0000618110Y0003041830J-0000009842D01*
G01*
X0000618110Y0003021161D01*
G75*
G02*
X0000608267Y0003011318I-0000009842D01*
G01*
X0000572834Y0003011318D01*
G75*
G02*
X0000562992Y0003021161J0000009842D01*
G01*
X0000562992Y0003041830D01*
G75*
G02*
X0000572834Y0003051673I0000009842D01*
G01*
G37*
G36*
G01*
X0000490157Y0003208169D02*
X0000454724Y0003208169D01*
G75*
G02*
X0000444881Y0003218011J0000009842D01*
G01*
X0000444881Y0003238681D01*
G75*
G02*
X0000454724Y0003248523I0000009842D01*
G01*
X0000490157Y0003248523D01*
G75*
G02*
X0000500000Y0003238681J-0000009842D01*
G01*
X0000500000Y0003218011D01*
G75*
G02*
X0000490157Y0003208169I-0000009842D01*
G01*
G37*
G36*
G01*
X0000490157Y0003136318D02*
X0000454724Y0003136318D01*
G75*
G02*
X0000444881Y0003146161J0000009842D01*
G01*
X0000444881Y0003166830D01*
G75*
G02*
X0000454724Y0003176673I0000009842D01*
G01*
X0000490157Y0003176673D01*
G75*
G02*
X0000500000Y0003166830J-0000009842D01*
G01*
X0000500000Y0003146161D01*
G75*
G02*
X0000490157Y0003136318I-0000009842D01*
G01*
G37*
G36*
G01*
X0000454959Y0002974149D02*
X0000490392Y0002974149D01*
G75*
G02*
X0000500234Y0002964307J-0000009842D01*
G01*
X0000500234Y0002943637D01*
G75*
G02*
X0000490392Y0002933795I-0000009842D01*
G01*
X0000454959Y0002933795D01*
G75*
G02*
X0000445116Y0002943637J0000009842D01*
G01*
X0000445116Y0002964307D01*
G75*
G02*
X0000454959Y0002974149I0000009842D01*
G01*
G37*
G36*
G01*
X0000454959Y0003046000D02*
X0000490392Y0003046000D01*
G75*
G02*
X0000500234Y0003036157J-0000009842D01*
G01*
X0000500234Y0003015488D01*
G75*
G02*
X0000490392Y0003005645I-0000009842D01*
G01*
X0000454959Y0003005645D01*
G75*
G02*
X0000445116Y0003015488J0000009842D01*
G01*
X0000445116Y0003036157D01*
G75*
G02*
X0000454959Y0003046000I0000009842D01*
G01*
G37*
G36*
G01*
X0000372047Y0003204724D02*
X0000336614Y0003204724D01*
G75*
G02*
X0000326771Y0003214566J0000009842D01*
G01*
X0000326771Y0003235236D01*
G75*
G02*
X0000336614Y0003245078I0000009842D01*
G01*
X0000372047Y0003245078D01*
G75*
G02*
X0000381889Y0003235236J-0000009842D01*
G01*
X0000381889Y0003214566D01*
G75*
G02*
X0000372047Y0003204724I-0000009842D01*
G01*
G37*
G36*
G01*
X0000372047Y0003132873D02*
X0000336614Y0003132873D01*
G75*
G02*
X0000326771Y0003142716J0000009842D01*
G01*
X0000326771Y0003163385D01*
G75*
G02*
X0000336614Y0003173228I0000009842D01*
G01*
X0000372047Y0003173228D01*
G75*
G02*
X0000381889Y0003163385J-0000009842D01*
G01*
X0000381889Y0003142716D01*
G75*
G02*
X0000372047Y0003132873I-0000009842D01*
G01*
G37*
G36*
G01*
X0000336614Y0002972933D02*
X0000372047Y0002972933D01*
G75*
G02*
X0000381889Y0002963090J-0000009842D01*
G01*
X0000381889Y0002942421D01*
G75*
G02*
X0000372047Y0002932578I-0000009842D01*
G01*
X0000336614Y0002932578D01*
G75*
G02*
X0000326771Y0002942421J0000009842D01*
G01*
X0000326771Y0002963090D01*
G75*
G02*
X0000336614Y0002972933I0000009842D01*
G01*
G37*
G36*
G01*
X0000336614Y0003044783D02*
X0000372047Y0003044783D01*
G75*
G02*
X0000381889Y0003034940J-0000009842D01*
G01*
X0000381889Y0003014271D01*
G75*
G02*
X0000372047Y0003004429I-0000009842D01*
G01*
X0000336614Y0003004429D01*
G75*
G02*
X0000326771Y0003014271J0000009842D01*
G01*
X0000326771Y0003034940D01*
G75*
G02*
X0000336614Y0003044783I0000009842D01*
G01*
G37*
G36*
G01*
X0000207086Y0003195275D02*
X0000207086Y0003182677D01*
G75*
G02*
X0000200787Y0003176377I-0000006299D01*
G01*
X0000185236Y0003176377D01*
G75*
G02*
X0000178937Y0003182677J0000006299D01*
G01*
X0000178937Y0003195275D01*
G75*
G02*
X0000185236Y0003201574I0000006299D01*
G01*
X0000200787Y0003201574D01*
G75*
G02*
X0000207086Y0003195275J-0000006299D01*
G01*
G37*
G36*
G01*
X0000254133Y0003195275D02*
X0000254133Y0003182677D01*
G75*
G02*
X0000247834Y0003176377I-0000006299D01*
G01*
X0000232283Y0003176377D01*
G75*
G02*
X0000225984Y0003182677J0000006299D01*
G01*
X0000225984Y0003195275D01*
G75*
G02*
X0000232283Y0003201574I0000006299D01*
G01*
X0000247834Y0003201574D01*
G75*
G02*
X0000254133Y0003195275J-0000006299D01*
G01*
G37*
G36*
G01*
X0000207086Y0002919685D02*
X0000207086Y0002907086D01*
G75*
G02*
X0000200787Y0002900787I-0000006299D01*
G01*
X0000185236Y0002900787D01*
G75*
G02*
X0000178937Y0002907086J0000006299D01*
G01*
X0000178937Y0002919685D01*
G75*
G02*
X0000185236Y0002925984I0000006299D01*
G01*
X0000200787Y0002925984D01*
G75*
G02*
X0000207086Y0002919685J-0000006299D01*
G01*
G37*
G36*
G01*
X0000254133Y0002919685D02*
X0000254133Y0002907086D01*
G75*
G02*
X0000247834Y0002900787I-0000006299D01*
G01*
X0000232283Y0002900787D01*
G75*
G02*
X0000225984Y0002907086J0000006299D01*
G01*
X0000225984Y0002919685D01*
G75*
G02*
X0000232283Y0002925984I0000006299D01*
G01*
X0000247834Y0002925984D01*
G75*
G02*
X0000254133Y0002919685J-0000006299D01*
G01*
G37*
G36*
G01*
X0000108661Y0003274015D02*
X0000108661Y0003261417D01*
G75*
G02*
X0000102362Y0003255118I-0000006299D01*
G01*
X0000086811Y0003255118D01*
G75*
G02*
X0000080511Y0003261417J0000006299D01*
G01*
X0000080511Y0003274015D01*
G75*
G02*
X0000086811Y0003280314I0000006299D01*
G01*
X0000102362Y0003280314D01*
G75*
G02*
X0000108661Y0003274015J-0000006299D01*
G01*
G37*
G36*
G01*
X0000155708Y0003274015D02*
X0000155708Y0003261417D01*
G75*
G02*
X0000149409Y0003255118I-0000006299D01*
G01*
X0000133858Y0003255118D01*
G75*
G02*
X0000127559Y0003261417J0000006299D01*
G01*
X0000127559Y0003274015D01*
G75*
G02*
X0000133858Y0003280314I0000006299D01*
G01*
X0000149409Y0003280314D01*
G75*
G02*
X0000155708Y0003274015J-0000006299D01*
G01*
G37*
G36*
G01*
X0000108661Y0002919685D02*
X0000108661Y0002907086D01*
G75*
G02*
X0000102362Y0002900787I-0000006299D01*
G01*
X0000086811Y0002900787D01*
G75*
G02*
X0000080511Y0002907086J0000006299D01*
G01*
X0000080511Y0002919685D01*
G75*
G02*
X0000086811Y0002925984I0000006299D01*
G01*
X0000102362Y0002925984D01*
G75*
G02*
X0000108661Y0002919685J-0000006299D01*
G01*
G37*
G36*
G01*
X0000155708Y0002919685D02*
X0000155708Y0002907086D01*
G75*
G02*
X0000149409Y0002900787I-0000006299D01*
G01*
X0000133858Y0002900787D01*
G75*
G02*
X0000127559Y0002907086J0000006299D01*
G01*
X0000127559Y0002919685D01*
G75*
G02*
X0000133858Y0002925984I0000006299D01*
G01*
X0000149409Y0002925984D01*
G75*
G02*
X0000155708Y0002919685J-0000006299D01*
G01*
G37*
G04 next file*
G04 #@! TF.GenerationSoftware,KiCad,Pcbnew,(5.1.10)-1*
G04 #@! TF.CreationDate,2021-09-22T20:54:56-07:00*
G04 #@! TF.ProjectId,project,70726f6a-6563-4742-9e6b-696361645f70,rev?*
G04 #@! TF.SameCoordinates,Original*
G04 #@! TF.FileFunction,Soldermask,Bot*
G04 #@! TF.FilePolarity,Negative*
G04 Gerber Fmt 4.6, Leading zero omitted, Abs format (unit mm)*
G04 Created by KiCad (PCBNEW (5.1.10)-1) date 2021-09-22 20:54:56*
G01*
G04 APERTURE LIST*
G04 APERTURE END LIST*
D26*
X-0007007874Y0003818897D02*
X0000905511Y0000196850D03*
X0000954724Y0000196850D03*
X0001003937Y0000196850D03*
X0001053149Y0000196850D03*
G36*
G01*
X0001118110Y0000214566D02*
X0001118110Y0000179133D01*
G75*
G02*
X0001110236Y0000171259I-0000007874D01*
G01*
X0001094488Y0000171259D01*
G75*
G02*
X0001086614Y0000179133J0000007874D01*
G01*
X0001086614Y0000214566D01*
G75*
G02*
X0001094488Y0000222440I0000007874D01*
G01*
X0001110236Y0000222440D01*
G75*
G02*
X0001118110Y0000214566J-0000007874D01*
G01*
G37*
G36*
G01*
X0000845964Y0000415354D02*
X0000845964Y0000450787D01*
G75*
G02*
X0000855807Y0000460629I0000009842D01*
G01*
X0000876476Y0000460629D01*
G75*
G02*
X0000886318Y0000450787J-0000009842D01*
G01*
X0000886318Y0000415354D01*
G75*
G02*
X0000876476Y0000405511I-0000009842D01*
G01*
X0000855807Y0000405511D01*
G75*
G02*
X0000845964Y0000415354J0000009842D01*
G01*
G37*
G36*
G01*
X0000774114Y0000415354D02*
X0000774114Y0000450787D01*
G75*
G02*
X0000783956Y0000460629I0000009842D01*
G01*
X0000804625Y0000460629D01*
G75*
G02*
X0000814468Y0000450787J-0000009842D01*
G01*
X0000814468Y0000415354D01*
G75*
G02*
X0000804625Y0000405511I-0000009842D01*
G01*
X0000783956Y0000405511D01*
G75*
G02*
X0000774114Y0000415354J0000009842D01*
G01*
G37*
G36*
G01*
X0001168799Y0000450787D02*
X0001168799Y0000415354D01*
G75*
G02*
X0001158956Y0000405511I-0000009842D01*
G01*
X0001138287Y0000405511D01*
G75*
G02*
X0001128444Y0000415354J0000009842D01*
G01*
X0001128444Y0000450787D01*
G75*
G02*
X0001138287Y0000460629I0000009842D01*
G01*
X0001158956Y0000460629D01*
G75*
G02*
X0001168799Y0000450787J-0000009842D01*
G01*
G37*
G36*
G01*
X0001240649Y0000450787D02*
X0001240649Y0000415354D01*
G75*
G02*
X0001230807Y0000405511I-0000009842D01*
G01*
X0001210137Y0000405511D01*
G75*
G02*
X0001200295Y0000415354J0000009842D01*
G01*
X0001200295Y0000450787D01*
G75*
G02*
X0001210137Y0000460629I0000009842D01*
G01*
X0001230807Y0000460629D01*
G75*
G02*
X0001240649Y0000450787J-0000009842D01*
G01*
G37*
D27*
X0001145669Y0000601377D03*
X0001145669Y0000626968D03*
X0001145669Y0000652559D03*
X0001145669Y0000678149D03*
X0001145669Y0000703740D03*
X0001145669Y0000729330D03*
X0001145669Y0000754921D03*
X0001145669Y0000780511D03*
X0001145669Y0000806102D03*
X0001145669Y0000831692D03*
X0001145669Y0000857283D03*
X0001145669Y0000882873D03*
X0001145669Y0000908464D03*
X0001145669Y0000934055D03*
X0000862204Y0000934055D03*
X0000862204Y0000908464D03*
X0000862204Y0000882873D03*
X0000862204Y0000857283D03*
X0000862204Y0000831692D03*
X0000862204Y0000806102D03*
X0000862204Y0000780511D03*
X0000862204Y0000754921D03*
X0000862204Y0000729330D03*
X0000862204Y0000703740D03*
X0000862204Y0000678149D03*
X0000862204Y0000652559D03*
X0000862204Y0000626968D03*
X0000862204Y0000601377D03*
G36*
G01*
X0001187401Y0001761417D02*
X0001174803Y0001761417D01*
G75*
G02*
X0001168503Y0001767716J0000006299D01*
G01*
X0001168503Y0001783267D01*
G75*
G02*
X0001174803Y0001789566I0000006299D01*
G01*
X0001187401Y0001789566D01*
G75*
G02*
X0001193700Y0001783267J-0000006299D01*
G01*
X0001193700Y0001767716D01*
G75*
G02*
X0001187401Y0001761417I-0000006299D01*
G01*
G37*
G36*
G01*
X0001187401Y0001714370D02*
X0001174803Y0001714370D01*
G75*
G02*
X0001168503Y0001720669J0000006299D01*
G01*
X0001168503Y0001736220D01*
G75*
G02*
X0001174803Y0001742519I0000006299D01*
G01*
X0001187401Y0001742519D01*
G75*
G02*
X0001193700Y0001736220J-0000006299D01*
G01*
X0001193700Y0001720669D01*
G75*
G02*
X0001187401Y0001714370I-0000006299D01*
G01*
G37*
G36*
G01*
X0000911810Y0001761417D02*
X0000899212Y0001761417D01*
G75*
G02*
X0000892913Y0001767716J0000006299D01*
G01*
X0000892913Y0001783267D01*
G75*
G02*
X0000899212Y0001789566I0000006299D01*
G01*
X0000911810Y0001789566D01*
G75*
G02*
X0000918110Y0001783267J-0000006299D01*
G01*
X0000918110Y0001767716D01*
G75*
G02*
X0000911810Y0001761417I-0000006299D01*
G01*
G37*
G36*
G01*
X0000911810Y0001714370D02*
X0000899212Y0001714370D01*
G75*
G02*
X0000892913Y0001720669J0000006299D01*
G01*
X0000892913Y0001736220D01*
G75*
G02*
X0000899212Y0001742519I0000006299D01*
G01*
X0000911810Y0001742519D01*
G75*
G02*
X0000918110Y0001736220J-0000006299D01*
G01*
X0000918110Y0001720669D01*
G75*
G02*
X0000911810Y0001714370I-0000006299D01*
G01*
G37*
G36*
G01*
X0001108661Y0001859842D02*
X0001096062Y0001859842D01*
G75*
G02*
X0001089763Y0001866141J0000006299D01*
G01*
X0001089763Y0001881692D01*
G75*
G02*
X0001096062Y0001887992I0000006299D01*
G01*
X0001108661Y0001887992D01*
G75*
G02*
X0001114960Y0001881692J-0000006299D01*
G01*
X0001114960Y0001866141D01*
G75*
G02*
X0001108661Y0001859842I-0000006299D01*
G01*
G37*
G36*
G01*
X0001108661Y0001812795D02*
X0001096062Y0001812795D01*
G75*
G02*
X0001089763Y0001819094J0000006299D01*
G01*
X0001089763Y0001834645D01*
G75*
G02*
X0001096062Y0001840944I0000006299D01*
G01*
X0001108661Y0001840944D01*
G75*
G02*
X0001114960Y0001834645J-0000006299D01*
G01*
X0001114960Y0001819094D01*
G75*
G02*
X0001108661Y0001812795I-0000006299D01*
G01*
G37*
G36*
G01*
X0000911810Y0001859842D02*
X0000899212Y0001859842D01*
G75*
G02*
X0000892913Y0001866141J0000006299D01*
G01*
X0000892913Y0001881692D01*
G75*
G02*
X0000899212Y0001887992I0000006299D01*
G01*
X0000911810Y0001887992D01*
G75*
G02*
X0000918110Y0001881692J-0000006299D01*
G01*
X0000918110Y0001866141D01*
G75*
G02*
X0000911810Y0001859842I-0000006299D01*
G01*
G37*
G36*
G01*
X0000911810Y0001812795D02*
X0000899212Y0001812795D01*
G75*
G02*
X0000892913Y0001819094J0000006299D01*
G01*
X0000892913Y0001834645D01*
G75*
G02*
X0000899212Y0001840944I0000006299D01*
G01*
X0000911810Y0001840944D01*
G75*
G02*
X0000918110Y0001834645J-0000006299D01*
G01*
X0000918110Y0001819094D01*
G75*
G02*
X0000911810Y0001812795I-0000006299D01*
G01*
G37*
G36*
G01*
X0001118110Y0001124015D02*
X0001118110Y0001159448D01*
G75*
G02*
X0001127952Y0001169291I0000009842D01*
G01*
X0001148622Y0001169291D01*
G75*
G02*
X0001158464Y0001159448J-0000009842D01*
G01*
X0001158464Y0001124015D01*
G75*
G02*
X0001148622Y0001114173I-0000009842D01*
G01*
X0001127952Y0001114173D01*
G75*
G02*
X0001118110Y0001124015J0000009842D01*
G01*
G37*
G36*
G01*
X0001046259Y0001124015D02*
X0001046259Y0001159448D01*
G75*
G02*
X0001056102Y0001169291I0000009842D01*
G01*
X0001076771Y0001169291D01*
G75*
G02*
X0001086614Y0001159448J-0000009842D01*
G01*
X0001086614Y0001124015D01*
G75*
G02*
X0001076771Y0001114173I-0000009842D01*
G01*
X0001056102Y0001114173D01*
G75*
G02*
X0001046259Y0001124015J0000009842D01*
G01*
G37*
G36*
G01*
X0000886318Y0001159448D02*
X0000886318Y0001124015D01*
G75*
G02*
X0000876476Y0001114173I-0000009842D01*
G01*
X0000855807Y0001114173D01*
G75*
G02*
X0000845964Y0001124015J0000009842D01*
G01*
X0000845964Y0001159448D01*
G75*
G02*
X0000855807Y0001169291I0000009842D01*
G01*
X0000876476Y0001169291D01*
G75*
G02*
X0000886318Y0001159448J-0000009842D01*
G01*
G37*
G36*
G01*
X0000958169Y0001159448D02*
X0000958169Y0001124015D01*
G75*
G02*
X0000948326Y0001114173I-0000009842D01*
G01*
X0000927657Y0001114173D01*
G75*
G02*
X0000917814Y0001124015J0000009842D01*
G01*
X0000917814Y0001159448D01*
G75*
G02*
X0000927657Y0001169291I0000009842D01*
G01*
X0000948326Y0001169291D01*
G75*
G02*
X0000958169Y0001159448J-0000009842D01*
G01*
G37*
G36*
G01*
X0001118110Y0001241929D02*
X0001118110Y0001277362D01*
G75*
G02*
X0001127952Y0001287204I0000009842D01*
G01*
X0001148622Y0001287204D01*
G75*
G02*
X0001158464Y0001277362J-0000009842D01*
G01*
X0001158464Y0001241929D01*
G75*
G02*
X0001148622Y0001232086I-0000009842D01*
G01*
X0001127952Y0001232086D01*
G75*
G02*
X0001118110Y0001241929J0000009842D01*
G01*
G37*
G36*
G01*
X0001046259Y0001241929D02*
X0001046259Y0001277362D01*
G75*
G02*
X0001056102Y0001287204I0000009842D01*
G01*
X0001076771Y0001287204D01*
G75*
G02*
X0001086614Y0001277362J-0000009842D01*
G01*
X0001086614Y0001241929D01*
G75*
G02*
X0001076771Y0001232086I-0000009842D01*
G01*
X0001056102Y0001232086D01*
G75*
G02*
X0001046259Y0001241929J0000009842D01*
G01*
G37*
G36*
G01*
X0000886318Y0001277559D02*
X0000886318Y0001242125D01*
G75*
G02*
X0000876476Y0001232283I-0000009842D01*
G01*
X0000855807Y0001232283D01*
G75*
G02*
X0000845964Y0001242125J0000009842D01*
G01*
X0000845964Y0001277559D01*
G75*
G02*
X0000855807Y0001287401I0000009842D01*
G01*
X0000876476Y0001287401D01*
G75*
G02*
X0000886318Y0001277559J-0000009842D01*
G01*
G37*
G36*
G01*
X0000958169Y0001277559D02*
X0000958169Y0001242125D01*
G75*
G02*
X0000948326Y0001232283I-0000009842D01*
G01*
X0000927657Y0001232283D01*
G75*
G02*
X0000917814Y0001242125J0000009842D01*
G01*
X0000917814Y0001277559D01*
G75*
G02*
X0000927657Y0001287401I0000009842D01*
G01*
X0000948326Y0001287401D01*
G75*
G02*
X0000958169Y0001277559J-0000009842D01*
G01*
G37*
G36*
G01*
X0001118110Y0001360236D02*
X0001118110Y0001395669D01*
G75*
G02*
X0001127952Y0001405511I0000009842D01*
G01*
X0001148622Y0001405511D01*
G75*
G02*
X0001158464Y0001395669J-0000009842D01*
G01*
X0001158464Y0001360236D01*
G75*
G02*
X0001148622Y0001350393I-0000009842D01*
G01*
X0001127952Y0001350393D01*
G75*
G02*
X0001118110Y0001360236J0000009842D01*
G01*
G37*
G36*
G01*
X0001046259Y0001360236D02*
X0001046259Y0001395669D01*
G75*
G02*
X0001056102Y0001405511I0000009842D01*
G01*
X0001076771Y0001405511D01*
G75*
G02*
X0001086614Y0001395669J-0000009842D01*
G01*
X0001086614Y0001360236D01*
G75*
G02*
X0001076771Y0001350393I-0000009842D01*
G01*
X0001056102Y0001350393D01*
G75*
G02*
X0001046259Y0001360236J0000009842D01*
G01*
G37*
G36*
G01*
X0000893208Y0001395669D02*
X0000893208Y0001360236D01*
G75*
G02*
X0000883366Y0001350393I-0000009842D01*
G01*
X0000862696Y0001350393D01*
G75*
G02*
X0000852854Y0001360236J0000009842D01*
G01*
X0000852854Y0001395669D01*
G75*
G02*
X0000862696Y0001405511I0000009842D01*
G01*
X0000883366Y0001405511D01*
G75*
G02*
X0000893208Y0001395669J-0000009842D01*
G01*
G37*
G36*
G01*
X0000965059Y0001395669D02*
X0000965059Y0001360236D01*
G75*
G02*
X0000955216Y0001350393I-0000009842D01*
G01*
X0000934547Y0001350393D01*
G75*
G02*
X0000924704Y0001360236J0000009842D01*
G01*
X0000924704Y0001395669D01*
G75*
G02*
X0000934547Y0001405511I0000009842D01*
G01*
X0000955216Y0001405511D01*
G75*
G02*
X0000965059Y0001395669J-0000009842D01*
G01*
G37*
G36*
G01*
X0001121555Y0001478346D02*
X0001121555Y0001513779D01*
G75*
G02*
X0001131397Y0001523622I0000009842D01*
G01*
X0001152066Y0001523622D01*
G75*
G02*
X0001161909Y0001513779J-0000009842D01*
G01*
X0001161909Y0001478346D01*
G75*
G02*
X0001152066Y0001468503I-0000009842D01*
G01*
X0001131397Y0001468503D01*
G75*
G02*
X0001121555Y0001478346J0000009842D01*
G01*
G37*
G36*
G01*
X0001049704Y0001478346D02*
X0001049704Y0001513779D01*
G75*
G02*
X0001059547Y0001523622I0000009842D01*
G01*
X0001080216Y0001523622D01*
G75*
G02*
X0001090059Y0001513779J-0000009842D01*
G01*
X0001090059Y0001478346D01*
G75*
G02*
X0001080216Y0001468503I-0000009842D01*
G01*
X0001059547Y0001468503D01*
G75*
G02*
X0001049704Y0001478346J0000009842D01*
G01*
G37*
G36*
G01*
X0000887535Y0001513544D02*
X0000887535Y0001478111D01*
G75*
G02*
X0000877692Y0001468269I-0000009842D01*
G01*
X0000857023Y0001468269D01*
G75*
G02*
X0000847181Y0001478111J0000009842D01*
G01*
X0000847181Y0001513544D01*
G75*
G02*
X0000857023Y0001523387I0000009842D01*
G01*
X0000877692Y0001523387D01*
G75*
G02*
X0000887535Y0001513544J-0000009842D01*
G01*
G37*
G36*
G01*
X0000959385Y0001513544D02*
X0000959385Y0001478111D01*
G75*
G02*
X0000949543Y0001468269I-0000009842D01*
G01*
X0000928874Y0001468269D01*
G75*
G02*
X0000919031Y0001478111J0000009842D01*
G01*
X0000919031Y0001513544D01*
G75*
G02*
X0000928874Y0001523387I0000009842D01*
G01*
X0000949543Y0001523387D01*
G75*
G02*
X0000959385Y0001513544J-0000009842D01*
G01*
G37*
G36*
G01*
X0001118110Y0001596456D02*
X0001118110Y0001631889D01*
G75*
G02*
X0001127952Y0001641732I0000009842D01*
G01*
X0001148622Y0001641732D01*
G75*
G02*
X0001158464Y0001631889J-0000009842D01*
G01*
X0001158464Y0001596456D01*
G75*
G02*
X0001148622Y0001586614I-0000009842D01*
G01*
X0001127952Y0001586614D01*
G75*
G02*
X0001118110Y0001596456J0000009842D01*
G01*
G37*
G36*
G01*
X0001046259Y0001596456D02*
X0001046259Y0001631889D01*
G75*
G02*
X0001056102Y0001641732I0000009842D01*
G01*
X0001076771Y0001641732D01*
G75*
G02*
X0001086614Y0001631889J-0000009842D01*
G01*
X0001086614Y0001596456D01*
G75*
G02*
X0001076771Y0001586614I-0000009842D01*
G01*
X0001056102Y0001586614D01*
G75*
G02*
X0001046259Y0001596456J0000009842D01*
G01*
G37*
G36*
G01*
X0000886318Y0001631889D02*
X0000886318Y0001596456D01*
G75*
G02*
X0000876476Y0001586614I-0000009842D01*
G01*
X0000855807Y0001586614D01*
G75*
G02*
X0000845964Y0001596456J0000009842D01*
G01*
X0000845964Y0001631889D01*
G75*
G02*
X0000855807Y0001641732I0000009842D01*
G01*
X0000876476Y0001641732D01*
G75*
G02*
X0000886318Y0001631889J-0000009842D01*
G01*
G37*
G36*
G01*
X0000958169Y0001631889D02*
X0000958169Y0001596456D01*
G75*
G02*
X0000948326Y0001586614I-0000009842D01*
G01*
X0000927657Y0001586614D01*
G75*
G02*
X0000917814Y0001596456J0000009842D01*
G01*
X0000917814Y0001631889D01*
G75*
G02*
X0000927657Y0001641732I0000009842D01*
G01*
X0000948326Y0001641732D01*
G75*
G02*
X0000958169Y0001631889J-0000009842D01*
G01*
G37*
G36*
G01*
X0001108661Y0001761417D02*
X0001096062Y0001761417D01*
G75*
G02*
X0001089763Y0001767716J0000006299D01*
G01*
X0001089763Y0001783267D01*
G75*
G02*
X0001096062Y0001789566I0000006299D01*
G01*
X0001108661Y0001789566D01*
G75*
G02*
X0001114960Y0001783267J-0000006299D01*
G01*
X0001114960Y0001767716D01*
G75*
G02*
X0001108661Y0001761417I-0000006299D01*
G01*
G37*
G36*
G01*
X0001108661Y0001714370D02*
X0001096062Y0001714370D01*
G75*
G02*
X0001089763Y0001720669J0000006299D01*
G01*
X0001089763Y0001736220D01*
G75*
G02*
X0001096062Y0001742519I0000006299D01*
G01*
X0001108661Y0001742519D01*
G75*
G02*
X0001114960Y0001736220J-0000006299D01*
G01*
X0001114960Y0001720669D01*
G75*
G02*
X0001108661Y0001714370I-0000006299D01*
G01*
G37*
G36*
G01*
X0000833070Y0001761417D02*
X0000820472Y0001761417D01*
G75*
G02*
X0000814173Y0001767716J0000006299D01*
G01*
X0000814173Y0001783267D01*
G75*
G02*
X0000820472Y0001789566I0000006299D01*
G01*
X0000833070Y0001789566D01*
G75*
G02*
X0000839370Y0001783267J-0000006299D01*
G01*
X0000839370Y0001767716D01*
G75*
G02*
X0000833070Y0001761417I-0000006299D01*
G01*
G37*
G36*
G01*
X0000833070Y0001714370D02*
X0000820472Y0001714370D01*
G75*
G02*
X0000814173Y0001720669J0000006299D01*
G01*
X0000814173Y0001736220D01*
G75*
G02*
X0000820472Y0001742519I0000006299D01*
G01*
X0000833070Y0001742519D01*
G75*
G02*
X0000839370Y0001736220J-0000006299D01*
G01*
X0000839370Y0001720669D01*
G75*
G02*
X0000833070Y0001714370I-0000006299D01*
G01*
G37*
G36*
G01*
X0001187401Y0001859842D02*
X0001174803Y0001859842D01*
G75*
G02*
X0001168503Y0001866141J0000006299D01*
G01*
X0001168503Y0001881692D01*
G75*
G02*
X0001174803Y0001887992I0000006299D01*
G01*
X0001187401Y0001887992D01*
G75*
G02*
X0001193700Y0001881692J-0000006299D01*
G01*
X0001193700Y0001866141D01*
G75*
G02*
X0001187401Y0001859842I-0000006299D01*
G01*
G37*
G36*
G01*
X0001187401Y0001812795D02*
X0001174803Y0001812795D01*
G75*
G02*
X0001168503Y0001819094J0000006299D01*
G01*
X0001168503Y0001834645D01*
G75*
G02*
X0001174803Y0001840944I0000006299D01*
G01*
X0001187401Y0001840944D01*
G75*
G02*
X0001193700Y0001834645J-0000006299D01*
G01*
X0001193700Y0001819094D01*
G75*
G02*
X0001187401Y0001812795I-0000006299D01*
G01*
G37*
G36*
G01*
X0000833070Y0001859842D02*
X0000820472Y0001859842D01*
G75*
G02*
X0000814173Y0001866141J0000006299D01*
G01*
X0000814173Y0001881692D01*
G75*
G02*
X0000820472Y0001887992I0000006299D01*
G01*
X0000833070Y0001887992D01*
G75*
G02*
X0000839370Y0001881692J-0000006299D01*
G01*
X0000839370Y0001866141D01*
G75*
G02*
X0000833070Y0001859842I-0000006299D01*
G01*
G37*
G36*
G01*
X0000833070Y0001812795D02*
X0000820472Y0001812795D01*
G75*
G02*
X0000814173Y0001819094J0000006299D01*
G01*
X0000814173Y0001834645D01*
G75*
G02*
X0000820472Y0001840944I0000006299D01*
G01*
X0000833070Y0001840944D01*
G75*
G02*
X0000839370Y0001834645J-0000006299D01*
G01*
X0000839370Y0001819094D01*
G75*
G02*
X0000833070Y0001812795I-0000006299D01*
G01*
G37*
G04 next file*
G04 #@! TF.GenerationSoftware,KiCad,Pcbnew,(5.1.10)-1*
G04 #@! TF.CreationDate,2021-09-22T20:54:56-07:00*
G04 #@! TF.ProjectId,project,70726f6a-6563-4742-9e6b-696361645f70,rev?*
G04 #@! TF.SameCoordinates,Original*
G04 #@! TF.FileFunction,Soldermask,Bot*
G04 #@! TF.FilePolarity,Negative*
G04 Gerber Fmt 4.6, Leading zero omitted, Abs format (unit mm)*
G04 Created by KiCad (PCBNEW (5.1.10)-1) date 2021-09-22 20:54:56*
G01*
G04 APERTURE LIST*
G04 APERTURE END LIST*
D28*
X-0006299212Y0003818897D02*
X0001614173Y0000196850D03*
X0001663385Y0000196850D03*
X0001712598Y0000196850D03*
X0001761811Y0000196850D03*
G36*
G01*
X0001826771Y0000214566D02*
X0001826771Y0000179133D01*
G75*
G02*
X0001818897Y0000171259I-0000007874D01*
G01*
X0001803149Y0000171259D01*
G75*
G02*
X0001795275Y0000179133J0000007874D01*
G01*
X0001795275Y0000214566D01*
G75*
G02*
X0001803149Y0000222440I0000007874D01*
G01*
X0001818897Y0000222440D01*
G75*
G02*
X0001826771Y0000214566J-0000007874D01*
G01*
G37*
G36*
G01*
X0001554625Y0000415354D02*
X0001554625Y0000450787D01*
G75*
G02*
X0001564468Y0000460629I0000009842D01*
G01*
X0001585137Y0000460629D01*
G75*
G02*
X0001594980Y0000450787J-0000009842D01*
G01*
X0001594980Y0000415354D01*
G75*
G02*
X0001585137Y0000405511I-0000009842D01*
G01*
X0001564468Y0000405511D01*
G75*
G02*
X0001554625Y0000415354J0000009842D01*
G01*
G37*
G36*
G01*
X0001482775Y0000415354D02*
X0001482775Y0000450787D01*
G75*
G02*
X0001492618Y0000460629I0000009842D01*
G01*
X0001513287Y0000460629D01*
G75*
G02*
X0001523129Y0000450787J-0000009842D01*
G01*
X0001523129Y0000415354D01*
G75*
G02*
X0001513287Y0000405511I-0000009842D01*
G01*
X0001492618Y0000405511D01*
G75*
G02*
X0001482775Y0000415354J0000009842D01*
G01*
G37*
G36*
G01*
X0001877460Y0000450787D02*
X0001877460Y0000415354D01*
G75*
G02*
X0001867618Y0000405511I-0000009842D01*
G01*
X0001846948Y0000405511D01*
G75*
G02*
X0001837106Y0000415354J0000009842D01*
G01*
X0001837106Y0000450787D01*
G75*
G02*
X0001846948Y0000460629I0000009842D01*
G01*
X0001867618Y0000460629D01*
G75*
G02*
X0001877460Y0000450787J-0000009842D01*
G01*
G37*
G36*
G01*
X0001949310Y0000450787D02*
X0001949310Y0000415354D01*
G75*
G02*
X0001939468Y0000405511I-0000009842D01*
G01*
X0001918799Y0000405511D01*
G75*
G02*
X0001908956Y0000415354J0000009842D01*
G01*
X0001908956Y0000450787D01*
G75*
G02*
X0001918799Y0000460629I0000009842D01*
G01*
X0001939468Y0000460629D01*
G75*
G02*
X0001949310Y0000450787J-0000009842D01*
G01*
G37*
D29*
X0001854330Y0000601377D03*
X0001854330Y0000626968D03*
X0001854330Y0000652559D03*
X0001854330Y0000678149D03*
X0001854330Y0000703740D03*
X0001854330Y0000729330D03*
X0001854330Y0000754921D03*
X0001854330Y0000780511D03*
X0001854330Y0000806102D03*
X0001854330Y0000831692D03*
X0001854330Y0000857283D03*
X0001854330Y0000882873D03*
X0001854330Y0000908464D03*
X0001854330Y0000934055D03*
X0001570866Y0000934055D03*
X0001570866Y0000908464D03*
X0001570866Y0000882873D03*
X0001570866Y0000857283D03*
X0001570866Y0000831692D03*
X0001570866Y0000806102D03*
X0001570866Y0000780511D03*
X0001570866Y0000754921D03*
X0001570866Y0000729330D03*
X0001570866Y0000703740D03*
X0001570866Y0000678149D03*
X0001570866Y0000652559D03*
X0001570866Y0000626968D03*
X0001570866Y0000601377D03*
G36*
G01*
X0001896062Y0001761417D02*
X0001883464Y0001761417D01*
G75*
G02*
X0001877165Y0001767716J0000006299D01*
G01*
X0001877165Y0001783267D01*
G75*
G02*
X0001883464Y0001789566I0000006299D01*
G01*
X0001896062Y0001789566D01*
G75*
G02*
X0001902362Y0001783267J-0000006299D01*
G01*
X0001902362Y0001767716D01*
G75*
G02*
X0001896062Y0001761417I-0000006299D01*
G01*
G37*
G36*
G01*
X0001896062Y0001714370D02*
X0001883464Y0001714370D01*
G75*
G02*
X0001877165Y0001720669J0000006299D01*
G01*
X0001877165Y0001736220D01*
G75*
G02*
X0001883464Y0001742519I0000006299D01*
G01*
X0001896062Y0001742519D01*
G75*
G02*
X0001902362Y0001736220J-0000006299D01*
G01*
X0001902362Y0001720669D01*
G75*
G02*
X0001896062Y0001714370I-0000006299D01*
G01*
G37*
G36*
G01*
X0001620472Y0001761417D02*
X0001607874Y0001761417D01*
G75*
G02*
X0001601574Y0001767716J0000006299D01*
G01*
X0001601574Y0001783267D01*
G75*
G02*
X0001607874Y0001789566I0000006299D01*
G01*
X0001620472Y0001789566D01*
G75*
G02*
X0001626771Y0001783267J-0000006299D01*
G01*
X0001626771Y0001767716D01*
G75*
G02*
X0001620472Y0001761417I-0000006299D01*
G01*
G37*
G36*
G01*
X0001620472Y0001714370D02*
X0001607874Y0001714370D01*
G75*
G02*
X0001601574Y0001720669J0000006299D01*
G01*
X0001601574Y0001736220D01*
G75*
G02*
X0001607874Y0001742519I0000006299D01*
G01*
X0001620472Y0001742519D01*
G75*
G02*
X0001626771Y0001736220J-0000006299D01*
G01*
X0001626771Y0001720669D01*
G75*
G02*
X0001620472Y0001714370I-0000006299D01*
G01*
G37*
G36*
G01*
X0001817322Y0001859842D02*
X0001804724Y0001859842D01*
G75*
G02*
X0001798425Y0001866141J0000006299D01*
G01*
X0001798425Y0001881692D01*
G75*
G02*
X0001804724Y0001887992I0000006299D01*
G01*
X0001817322Y0001887992D01*
G75*
G02*
X0001823622Y0001881692J-0000006299D01*
G01*
X0001823622Y0001866141D01*
G75*
G02*
X0001817322Y0001859842I-0000006299D01*
G01*
G37*
G36*
G01*
X0001817322Y0001812795D02*
X0001804724Y0001812795D01*
G75*
G02*
X0001798425Y0001819094J0000006299D01*
G01*
X0001798425Y0001834645D01*
G75*
G02*
X0001804724Y0001840944I0000006299D01*
G01*
X0001817322Y0001840944D01*
G75*
G02*
X0001823622Y0001834645J-0000006299D01*
G01*
X0001823622Y0001819094D01*
G75*
G02*
X0001817322Y0001812795I-0000006299D01*
G01*
G37*
G36*
G01*
X0001620472Y0001859842D02*
X0001607874Y0001859842D01*
G75*
G02*
X0001601574Y0001866141J0000006299D01*
G01*
X0001601574Y0001881692D01*
G75*
G02*
X0001607874Y0001887992I0000006299D01*
G01*
X0001620472Y0001887992D01*
G75*
G02*
X0001626771Y0001881692J-0000006299D01*
G01*
X0001626771Y0001866141D01*
G75*
G02*
X0001620472Y0001859842I-0000006299D01*
G01*
G37*
G36*
G01*
X0001620472Y0001812795D02*
X0001607874Y0001812795D01*
G75*
G02*
X0001601574Y0001819094J0000006299D01*
G01*
X0001601574Y0001834645D01*
G75*
G02*
X0001607874Y0001840944I0000006299D01*
G01*
X0001620472Y0001840944D01*
G75*
G02*
X0001626771Y0001834645J-0000006299D01*
G01*
X0001626771Y0001819094D01*
G75*
G02*
X0001620472Y0001812795I-0000006299D01*
G01*
G37*
G36*
G01*
X0001826771Y0001124015D02*
X0001826771Y0001159448D01*
G75*
G02*
X0001836614Y0001169291I0000009842D01*
G01*
X0001857283Y0001169291D01*
G75*
G02*
X0001867125Y0001159448J-0000009842D01*
G01*
X0001867125Y0001124015D01*
G75*
G02*
X0001857283Y0001114173I-0000009842D01*
G01*
X0001836614Y0001114173D01*
G75*
G02*
X0001826771Y0001124015J0000009842D01*
G01*
G37*
G36*
G01*
X0001754921Y0001124015D02*
X0001754921Y0001159448D01*
G75*
G02*
X0001764763Y0001169291I0000009842D01*
G01*
X0001785433Y0001169291D01*
G75*
G02*
X0001795275Y0001159448J-0000009842D01*
G01*
X0001795275Y0001124015D01*
G75*
G02*
X0001785433Y0001114173I-0000009842D01*
G01*
X0001764763Y0001114173D01*
G75*
G02*
X0001754921Y0001124015J0000009842D01*
G01*
G37*
G36*
G01*
X0001594980Y0001159448D02*
X0001594980Y0001124015D01*
G75*
G02*
X0001585137Y0001114173I-0000009842D01*
G01*
X0001564468Y0001114173D01*
G75*
G02*
X0001554625Y0001124015J0000009842D01*
G01*
X0001554625Y0001159448D01*
G75*
G02*
X0001564468Y0001169291I0000009842D01*
G01*
X0001585137Y0001169291D01*
G75*
G02*
X0001594980Y0001159448J-0000009842D01*
G01*
G37*
G36*
G01*
X0001666830Y0001159448D02*
X0001666830Y0001124015D01*
G75*
G02*
X0001656988Y0001114173I-0000009842D01*
G01*
X0001636318Y0001114173D01*
G75*
G02*
X0001626476Y0001124015J0000009842D01*
G01*
X0001626476Y0001159448D01*
G75*
G02*
X0001636318Y0001169291I0000009842D01*
G01*
X0001656988Y0001169291D01*
G75*
G02*
X0001666830Y0001159448J-0000009842D01*
G01*
G37*
G36*
G01*
X0001826771Y0001241929D02*
X0001826771Y0001277362D01*
G75*
G02*
X0001836614Y0001287204I0000009842D01*
G01*
X0001857283Y0001287204D01*
G75*
G02*
X0001867125Y0001277362J-0000009842D01*
G01*
X0001867125Y0001241929D01*
G75*
G02*
X0001857283Y0001232086I-0000009842D01*
G01*
X0001836614Y0001232086D01*
G75*
G02*
X0001826771Y0001241929J0000009842D01*
G01*
G37*
G36*
G01*
X0001754921Y0001241929D02*
X0001754921Y0001277362D01*
G75*
G02*
X0001764763Y0001287204I0000009842D01*
G01*
X0001785433Y0001287204D01*
G75*
G02*
X0001795275Y0001277362J-0000009842D01*
G01*
X0001795275Y0001241929D01*
G75*
G02*
X0001785433Y0001232086I-0000009842D01*
G01*
X0001764763Y0001232086D01*
G75*
G02*
X0001754921Y0001241929J0000009842D01*
G01*
G37*
G36*
G01*
X0001594980Y0001277559D02*
X0001594980Y0001242125D01*
G75*
G02*
X0001585137Y0001232283I-0000009842D01*
G01*
X0001564468Y0001232283D01*
G75*
G02*
X0001554625Y0001242125J0000009842D01*
G01*
X0001554625Y0001277559D01*
G75*
G02*
X0001564468Y0001287401I0000009842D01*
G01*
X0001585137Y0001287401D01*
G75*
G02*
X0001594980Y0001277559J-0000009842D01*
G01*
G37*
G36*
G01*
X0001666830Y0001277559D02*
X0001666830Y0001242125D01*
G75*
G02*
X0001656988Y0001232283I-0000009842D01*
G01*
X0001636318Y0001232283D01*
G75*
G02*
X0001626476Y0001242125J0000009842D01*
G01*
X0001626476Y0001277559D01*
G75*
G02*
X0001636318Y0001287401I0000009842D01*
G01*
X0001656988Y0001287401D01*
G75*
G02*
X0001666830Y0001277559J-0000009842D01*
G01*
G37*
G36*
G01*
X0001826771Y0001360236D02*
X0001826771Y0001395669D01*
G75*
G02*
X0001836614Y0001405511I0000009842D01*
G01*
X0001857283Y0001405511D01*
G75*
G02*
X0001867125Y0001395669J-0000009842D01*
G01*
X0001867125Y0001360236D01*
G75*
G02*
X0001857283Y0001350393I-0000009842D01*
G01*
X0001836614Y0001350393D01*
G75*
G02*
X0001826771Y0001360236J0000009842D01*
G01*
G37*
G36*
G01*
X0001754921Y0001360236D02*
X0001754921Y0001395669D01*
G75*
G02*
X0001764763Y0001405511I0000009842D01*
G01*
X0001785433Y0001405511D01*
G75*
G02*
X0001795275Y0001395669J-0000009842D01*
G01*
X0001795275Y0001360236D01*
G75*
G02*
X0001785433Y0001350393I-0000009842D01*
G01*
X0001764763Y0001350393D01*
G75*
G02*
X0001754921Y0001360236J0000009842D01*
G01*
G37*
G36*
G01*
X0001601870Y0001395669D02*
X0001601870Y0001360236D01*
G75*
G02*
X0001592027Y0001350393I-0000009842D01*
G01*
X0001571358Y0001350393D01*
G75*
G02*
X0001561515Y0001360236J0000009842D01*
G01*
X0001561515Y0001395669D01*
G75*
G02*
X0001571358Y0001405511I0000009842D01*
G01*
X0001592027Y0001405511D01*
G75*
G02*
X0001601870Y0001395669J-0000009842D01*
G01*
G37*
G36*
G01*
X0001673720Y0001395669D02*
X0001673720Y0001360236D01*
G75*
G02*
X0001663877Y0001350393I-0000009842D01*
G01*
X0001643208Y0001350393D01*
G75*
G02*
X0001633366Y0001360236J0000009842D01*
G01*
X0001633366Y0001395669D01*
G75*
G02*
X0001643208Y0001405511I0000009842D01*
G01*
X0001663877Y0001405511D01*
G75*
G02*
X0001673720Y0001395669J-0000009842D01*
G01*
G37*
G36*
G01*
X0001830216Y0001478346D02*
X0001830216Y0001513779D01*
G75*
G02*
X0001840059Y0001523622I0000009842D01*
G01*
X0001860728Y0001523622D01*
G75*
G02*
X0001870570Y0001513779J-0000009842D01*
G01*
X0001870570Y0001478346D01*
G75*
G02*
X0001860728Y0001468503I-0000009842D01*
G01*
X0001840059Y0001468503D01*
G75*
G02*
X0001830216Y0001478346J0000009842D01*
G01*
G37*
G36*
G01*
X0001758366Y0001478346D02*
X0001758366Y0001513779D01*
G75*
G02*
X0001768208Y0001523622I0000009842D01*
G01*
X0001788877Y0001523622D01*
G75*
G02*
X0001798720Y0001513779J-0000009842D01*
G01*
X0001798720Y0001478346D01*
G75*
G02*
X0001788877Y0001468503I-0000009842D01*
G01*
X0001768208Y0001468503D01*
G75*
G02*
X0001758366Y0001478346J0000009842D01*
G01*
G37*
G36*
G01*
X0001596196Y0001513544D02*
X0001596196Y0001478111D01*
G75*
G02*
X0001586354Y0001468269I-0000009842D01*
G01*
X0001565685Y0001468269D01*
G75*
G02*
X0001555842Y0001478111J0000009842D01*
G01*
X0001555842Y0001513544D01*
G75*
G02*
X0001565685Y0001523387I0000009842D01*
G01*
X0001586354Y0001523387D01*
G75*
G02*
X0001596196Y0001513544J-0000009842D01*
G01*
G37*
G36*
G01*
X0001668047Y0001513544D02*
X0001668047Y0001478111D01*
G75*
G02*
X0001658204Y0001468269I-0000009842D01*
G01*
X0001637535Y0001468269D01*
G75*
G02*
X0001627692Y0001478111J0000009842D01*
G01*
X0001627692Y0001513544D01*
G75*
G02*
X0001637535Y0001523387I0000009842D01*
G01*
X0001658204Y0001523387D01*
G75*
G02*
X0001668047Y0001513544J-0000009842D01*
G01*
G37*
G36*
G01*
X0001826771Y0001596456D02*
X0001826771Y0001631889D01*
G75*
G02*
X0001836614Y0001641732I0000009842D01*
G01*
X0001857283Y0001641732D01*
G75*
G02*
X0001867125Y0001631889J-0000009842D01*
G01*
X0001867125Y0001596456D01*
G75*
G02*
X0001857283Y0001586614I-0000009842D01*
G01*
X0001836614Y0001586614D01*
G75*
G02*
X0001826771Y0001596456J0000009842D01*
G01*
G37*
G36*
G01*
X0001754921Y0001596456D02*
X0001754921Y0001631889D01*
G75*
G02*
X0001764763Y0001641732I0000009842D01*
G01*
X0001785433Y0001641732D01*
G75*
G02*
X0001795275Y0001631889J-0000009842D01*
G01*
X0001795275Y0001596456D01*
G75*
G02*
X0001785433Y0001586614I-0000009842D01*
G01*
X0001764763Y0001586614D01*
G75*
G02*
X0001754921Y0001596456J0000009842D01*
G01*
G37*
G36*
G01*
X0001594980Y0001631889D02*
X0001594980Y0001596456D01*
G75*
G02*
X0001585137Y0001586614I-0000009842D01*
G01*
X0001564468Y0001586614D01*
G75*
G02*
X0001554625Y0001596456J0000009842D01*
G01*
X0001554625Y0001631889D01*
G75*
G02*
X0001564468Y0001641732I0000009842D01*
G01*
X0001585137Y0001641732D01*
G75*
G02*
X0001594980Y0001631889J-0000009842D01*
G01*
G37*
G36*
G01*
X0001666830Y0001631889D02*
X0001666830Y0001596456D01*
G75*
G02*
X0001656988Y0001586614I-0000009842D01*
G01*
X0001636318Y0001586614D01*
G75*
G02*
X0001626476Y0001596456J0000009842D01*
G01*
X0001626476Y0001631889D01*
G75*
G02*
X0001636318Y0001641732I0000009842D01*
G01*
X0001656988Y0001641732D01*
G75*
G02*
X0001666830Y0001631889J-0000009842D01*
G01*
G37*
G36*
G01*
X0001817322Y0001761417D02*
X0001804724Y0001761417D01*
G75*
G02*
X0001798425Y0001767716J0000006299D01*
G01*
X0001798425Y0001783267D01*
G75*
G02*
X0001804724Y0001789566I0000006299D01*
G01*
X0001817322Y0001789566D01*
G75*
G02*
X0001823622Y0001783267J-0000006299D01*
G01*
X0001823622Y0001767716D01*
G75*
G02*
X0001817322Y0001761417I-0000006299D01*
G01*
G37*
G36*
G01*
X0001817322Y0001714370D02*
X0001804724Y0001714370D01*
G75*
G02*
X0001798425Y0001720669J0000006299D01*
G01*
X0001798425Y0001736220D01*
G75*
G02*
X0001804724Y0001742519I0000006299D01*
G01*
X0001817322Y0001742519D01*
G75*
G02*
X0001823622Y0001736220J-0000006299D01*
G01*
X0001823622Y0001720669D01*
G75*
G02*
X0001817322Y0001714370I-0000006299D01*
G01*
G37*
G36*
G01*
X0001541732Y0001761417D02*
X0001529133Y0001761417D01*
G75*
G02*
X0001522834Y0001767716J0000006299D01*
G01*
X0001522834Y0001783267D01*
G75*
G02*
X0001529133Y0001789566I0000006299D01*
G01*
X0001541732Y0001789566D01*
G75*
G02*
X0001548031Y0001783267J-0000006299D01*
G01*
X0001548031Y0001767716D01*
G75*
G02*
X0001541732Y0001761417I-0000006299D01*
G01*
G37*
G36*
G01*
X0001541732Y0001714370D02*
X0001529133Y0001714370D01*
G75*
G02*
X0001522834Y0001720669J0000006299D01*
G01*
X0001522834Y0001736220D01*
G75*
G02*
X0001529133Y0001742519I0000006299D01*
G01*
X0001541732Y0001742519D01*
G75*
G02*
X0001548031Y0001736220J-0000006299D01*
G01*
X0001548031Y0001720669D01*
G75*
G02*
X0001541732Y0001714370I-0000006299D01*
G01*
G37*
G36*
G01*
X0001896062Y0001859842D02*
X0001883464Y0001859842D01*
G75*
G02*
X0001877165Y0001866141J0000006299D01*
G01*
X0001877165Y0001881692D01*
G75*
G02*
X0001883464Y0001887992I0000006299D01*
G01*
X0001896062Y0001887992D01*
G75*
G02*
X0001902362Y0001881692J-0000006299D01*
G01*
X0001902362Y0001866141D01*
G75*
G02*
X0001896062Y0001859842I-0000006299D01*
G01*
G37*
G36*
G01*
X0001896062Y0001812795D02*
X0001883464Y0001812795D01*
G75*
G02*
X0001877165Y0001819094J0000006299D01*
G01*
X0001877165Y0001834645D01*
G75*
G02*
X0001883464Y0001840944I0000006299D01*
G01*
X0001896062Y0001840944D01*
G75*
G02*
X0001902362Y0001834645J-0000006299D01*
G01*
X0001902362Y0001819094D01*
G75*
G02*
X0001896062Y0001812795I-0000006299D01*
G01*
G37*
G36*
G01*
X0001541732Y0001859842D02*
X0001529133Y0001859842D01*
G75*
G02*
X0001522834Y0001866141J0000006299D01*
G01*
X0001522834Y0001881692D01*
G75*
G02*
X0001529133Y0001887992I0000006299D01*
G01*
X0001541732Y0001887992D01*
G75*
G02*
X0001548031Y0001881692J-0000006299D01*
G01*
X0001548031Y0001866141D01*
G75*
G02*
X0001541732Y0001859842I-0000006299D01*
G01*
G37*
G36*
G01*
X0001541732Y0001812795D02*
X0001529133Y0001812795D01*
G75*
G02*
X0001522834Y0001819094J0000006299D01*
G01*
X0001522834Y0001834645D01*
G75*
G02*
X0001529133Y0001840944I0000006299D01*
G01*
X0001541732Y0001840944D01*
G75*
G02*
X0001548031Y0001834645J-0000006299D01*
G01*
X0001548031Y0001819094D01*
G75*
G02*
X0001541732Y0001812795I-0000006299D01*
G01*
G37*
G04 next file*
G04 #@! TF.GenerationSoftware,KiCad,Pcbnew,(5.1.10)-1*
G04 #@! TF.CreationDate,2021-09-22T20:54:56-07:00*
G04 #@! TF.ProjectId,project,70726f6a-6563-4742-9e6b-696361645f70,rev?*
G04 #@! TF.SameCoordinates,Original*
G04 #@! TF.FileFunction,Soldermask,Bot*
G04 #@! TF.FilePolarity,Negative*
G04 Gerber Fmt 4.6, Leading zero omitted, Abs format (unit mm)*
G04 Created by KiCad (PCBNEW (5.1.10)-1) date 2021-09-22 20:54:56*
G01*
G04 APERTURE LIST*
G04 APERTURE END LIST*
D30*
X-0005590551Y0003818897D02*
X0002322834Y0000196850D03*
X0002372047Y0000196850D03*
X0002421259Y0000196850D03*
X0002470472Y0000196850D03*
G36*
G01*
X0002535433Y0000214566D02*
X0002535433Y0000179133D01*
G75*
G02*
X0002527559Y0000171259I-0000007874D01*
G01*
X0002511811Y0000171259D01*
G75*
G02*
X0002503936Y0000179133J0000007874D01*
G01*
X0002503936Y0000214566D01*
G75*
G02*
X0002511811Y0000222440I0000007874D01*
G01*
X0002527559Y0000222440D01*
G75*
G02*
X0002535433Y0000214566J-0000007874D01*
G01*
G37*
G36*
G01*
X0002263287Y0000415354D02*
X0002263287Y0000450787D01*
G75*
G02*
X0002273129Y0000460629I0000009842D01*
G01*
X0002293799Y0000460629D01*
G75*
G02*
X0002303641Y0000450787J-0000009842D01*
G01*
X0002303641Y0000415354D01*
G75*
G02*
X0002293799Y0000405511I-0000009842D01*
G01*
X0002273129Y0000405511D01*
G75*
G02*
X0002263287Y0000415354J0000009842D01*
G01*
G37*
G36*
G01*
X0002191436Y0000415354D02*
X0002191436Y0000450787D01*
G75*
G02*
X0002201279Y0000460629I0000009842D01*
G01*
X0002221948Y0000460629D01*
G75*
G02*
X0002231791Y0000450787J-0000009842D01*
G01*
X0002231791Y0000415354D01*
G75*
G02*
X0002221948Y0000405511I-0000009842D01*
G01*
X0002201279Y0000405511D01*
G75*
G02*
X0002191436Y0000415354J0000009842D01*
G01*
G37*
G36*
G01*
X0002586122Y0000450787D02*
X0002586122Y0000415354D01*
G75*
G02*
X0002576279Y0000405511I-0000009842D01*
G01*
X0002555610Y0000405511D01*
G75*
G02*
X0002545767Y0000415354J0000009842D01*
G01*
X0002545767Y0000450787D01*
G75*
G02*
X0002555610Y0000460629I0000009842D01*
G01*
X0002576279Y0000460629D01*
G75*
G02*
X0002586122Y0000450787J-0000009842D01*
G01*
G37*
G36*
G01*
X0002657972Y0000450787D02*
X0002657972Y0000415354D01*
G75*
G02*
X0002648129Y0000405511I-0000009842D01*
G01*
X0002627460Y0000405511D01*
G75*
G02*
X0002617618Y0000415354J0000009842D01*
G01*
X0002617618Y0000450787D01*
G75*
G02*
X0002627460Y0000460629I0000009842D01*
G01*
X0002648129Y0000460629D01*
G75*
G02*
X0002657972Y0000450787J-0000009842D01*
G01*
G37*
D31*
X0002562992Y0000601377D03*
X0002562992Y0000626968D03*
X0002562992Y0000652559D03*
X0002562992Y0000678149D03*
X0002562992Y0000703740D03*
X0002562992Y0000729330D03*
X0002562992Y0000754921D03*
X0002562992Y0000780511D03*
X0002562992Y0000806102D03*
X0002562992Y0000831692D03*
X0002562992Y0000857283D03*
X0002562992Y0000882873D03*
X0002562992Y0000908464D03*
X0002562992Y0000934055D03*
X0002279527Y0000934055D03*
X0002279527Y0000908464D03*
X0002279527Y0000882873D03*
X0002279527Y0000857283D03*
X0002279527Y0000831692D03*
X0002279527Y0000806102D03*
X0002279527Y0000780511D03*
X0002279527Y0000754921D03*
X0002279527Y0000729330D03*
X0002279527Y0000703740D03*
X0002279527Y0000678149D03*
X0002279527Y0000652559D03*
X0002279527Y0000626968D03*
X0002279527Y0000601377D03*
G36*
G01*
X0002604724Y0001761417D02*
X0002592125Y0001761417D01*
G75*
G02*
X0002585826Y0001767716J0000006299D01*
G01*
X0002585826Y0001783267D01*
G75*
G02*
X0002592125Y0001789566I0000006299D01*
G01*
X0002604724Y0001789566D01*
G75*
G02*
X0002611023Y0001783267J-0000006299D01*
G01*
X0002611023Y0001767716D01*
G75*
G02*
X0002604724Y0001761417I-0000006299D01*
G01*
G37*
G36*
G01*
X0002604724Y0001714370D02*
X0002592125Y0001714370D01*
G75*
G02*
X0002585826Y0001720669J0000006299D01*
G01*
X0002585826Y0001736220D01*
G75*
G02*
X0002592125Y0001742519I0000006299D01*
G01*
X0002604724Y0001742519D01*
G75*
G02*
X0002611023Y0001736220J-0000006299D01*
G01*
X0002611023Y0001720669D01*
G75*
G02*
X0002604724Y0001714370I-0000006299D01*
G01*
G37*
G36*
G01*
X0002329133Y0001761417D02*
X0002316535Y0001761417D01*
G75*
G02*
X0002310236Y0001767716J0000006299D01*
G01*
X0002310236Y0001783267D01*
G75*
G02*
X0002316535Y0001789566I0000006299D01*
G01*
X0002329133Y0001789566D01*
G75*
G02*
X0002335433Y0001783267J-0000006299D01*
G01*
X0002335433Y0001767716D01*
G75*
G02*
X0002329133Y0001761417I-0000006299D01*
G01*
G37*
G36*
G01*
X0002329133Y0001714370D02*
X0002316535Y0001714370D01*
G75*
G02*
X0002310236Y0001720669J0000006299D01*
G01*
X0002310236Y0001736220D01*
G75*
G02*
X0002316535Y0001742519I0000006299D01*
G01*
X0002329133Y0001742519D01*
G75*
G02*
X0002335433Y0001736220J-0000006299D01*
G01*
X0002335433Y0001720669D01*
G75*
G02*
X0002329133Y0001714370I-0000006299D01*
G01*
G37*
G36*
G01*
X0002525984Y0001859842D02*
X0002513385Y0001859842D01*
G75*
G02*
X0002507086Y0001866141J0000006299D01*
G01*
X0002507086Y0001881692D01*
G75*
G02*
X0002513385Y0001887992I0000006299D01*
G01*
X0002525984Y0001887992D01*
G75*
G02*
X0002532283Y0001881692J-0000006299D01*
G01*
X0002532283Y0001866141D01*
G75*
G02*
X0002525984Y0001859842I-0000006299D01*
G01*
G37*
G36*
G01*
X0002525984Y0001812795D02*
X0002513385Y0001812795D01*
G75*
G02*
X0002507086Y0001819094J0000006299D01*
G01*
X0002507086Y0001834645D01*
G75*
G02*
X0002513385Y0001840944I0000006299D01*
G01*
X0002525984Y0001840944D01*
G75*
G02*
X0002532283Y0001834645J-0000006299D01*
G01*
X0002532283Y0001819094D01*
G75*
G02*
X0002525984Y0001812795I-0000006299D01*
G01*
G37*
G36*
G01*
X0002329133Y0001859842D02*
X0002316535Y0001859842D01*
G75*
G02*
X0002310236Y0001866141J0000006299D01*
G01*
X0002310236Y0001881692D01*
G75*
G02*
X0002316535Y0001887992I0000006299D01*
G01*
X0002329133Y0001887992D01*
G75*
G02*
X0002335433Y0001881692J-0000006299D01*
G01*
X0002335433Y0001866141D01*
G75*
G02*
X0002329133Y0001859842I-0000006299D01*
G01*
G37*
G36*
G01*
X0002329133Y0001812795D02*
X0002316535Y0001812795D01*
G75*
G02*
X0002310236Y0001819094J0000006299D01*
G01*
X0002310236Y0001834645D01*
G75*
G02*
X0002316535Y0001840944I0000006299D01*
G01*
X0002329133Y0001840944D01*
G75*
G02*
X0002335433Y0001834645J-0000006299D01*
G01*
X0002335433Y0001819094D01*
G75*
G02*
X0002329133Y0001812795I-0000006299D01*
G01*
G37*
G36*
G01*
X0002535433Y0001124015D02*
X0002535433Y0001159448D01*
G75*
G02*
X0002545275Y0001169291I0000009842D01*
G01*
X0002565944Y0001169291D01*
G75*
G02*
X0002575787Y0001159448J-0000009842D01*
G01*
X0002575787Y0001124015D01*
G75*
G02*
X0002565944Y0001114173I-0000009842D01*
G01*
X0002545275Y0001114173D01*
G75*
G02*
X0002535433Y0001124015J0000009842D01*
G01*
G37*
G36*
G01*
X0002463582Y0001124015D02*
X0002463582Y0001159448D01*
G75*
G02*
X0002473425Y0001169291I0000009842D01*
G01*
X0002494094Y0001169291D01*
G75*
G02*
X0002503936Y0001159448J-0000009842D01*
G01*
X0002503936Y0001124015D01*
G75*
G02*
X0002494094Y0001114173I-0000009842D01*
G01*
X0002473425Y0001114173D01*
G75*
G02*
X0002463582Y0001124015J0000009842D01*
G01*
G37*
G36*
G01*
X0002303641Y0001159448D02*
X0002303641Y0001124015D01*
G75*
G02*
X0002293799Y0001114173I-0000009842D01*
G01*
X0002273129Y0001114173D01*
G75*
G02*
X0002263287Y0001124015J0000009842D01*
G01*
X0002263287Y0001159448D01*
G75*
G02*
X0002273129Y0001169291I0000009842D01*
G01*
X0002293799Y0001169291D01*
G75*
G02*
X0002303641Y0001159448J-0000009842D01*
G01*
G37*
G36*
G01*
X0002375492Y0001159448D02*
X0002375492Y0001124015D01*
G75*
G02*
X0002365649Y0001114173I-0000009842D01*
G01*
X0002344980Y0001114173D01*
G75*
G02*
X0002335137Y0001124015J0000009842D01*
G01*
X0002335137Y0001159448D01*
G75*
G02*
X0002344980Y0001169291I0000009842D01*
G01*
X0002365649Y0001169291D01*
G75*
G02*
X0002375492Y0001159448J-0000009842D01*
G01*
G37*
G36*
G01*
X0002535433Y0001241929D02*
X0002535433Y0001277362D01*
G75*
G02*
X0002545275Y0001287204I0000009842D01*
G01*
X0002565944Y0001287204D01*
G75*
G02*
X0002575787Y0001277362J-0000009842D01*
G01*
X0002575787Y0001241929D01*
G75*
G02*
X0002565944Y0001232086I-0000009842D01*
G01*
X0002545275Y0001232086D01*
G75*
G02*
X0002535433Y0001241929J0000009842D01*
G01*
G37*
G36*
G01*
X0002463582Y0001241929D02*
X0002463582Y0001277362D01*
G75*
G02*
X0002473425Y0001287204I0000009842D01*
G01*
X0002494094Y0001287204D01*
G75*
G02*
X0002503936Y0001277362J-0000009842D01*
G01*
X0002503936Y0001241929D01*
G75*
G02*
X0002494094Y0001232086I-0000009842D01*
G01*
X0002473425Y0001232086D01*
G75*
G02*
X0002463582Y0001241929J0000009842D01*
G01*
G37*
G36*
G01*
X0002303641Y0001277559D02*
X0002303641Y0001242125D01*
G75*
G02*
X0002293799Y0001232283I-0000009842D01*
G01*
X0002273129Y0001232283D01*
G75*
G02*
X0002263287Y0001242125J0000009842D01*
G01*
X0002263287Y0001277559D01*
G75*
G02*
X0002273129Y0001287401I0000009842D01*
G01*
X0002293799Y0001287401D01*
G75*
G02*
X0002303641Y0001277559J-0000009842D01*
G01*
G37*
G36*
G01*
X0002375492Y0001277559D02*
X0002375492Y0001242125D01*
G75*
G02*
X0002365649Y0001232283I-0000009842D01*
G01*
X0002344980Y0001232283D01*
G75*
G02*
X0002335137Y0001242125J0000009842D01*
G01*
X0002335137Y0001277559D01*
G75*
G02*
X0002344980Y0001287401I0000009842D01*
G01*
X0002365649Y0001287401D01*
G75*
G02*
X0002375492Y0001277559J-0000009842D01*
G01*
G37*
G36*
G01*
X0002535433Y0001360236D02*
X0002535433Y0001395669D01*
G75*
G02*
X0002545275Y0001405511I0000009842D01*
G01*
X0002565944Y0001405511D01*
G75*
G02*
X0002575787Y0001395669J-0000009842D01*
G01*
X0002575787Y0001360236D01*
G75*
G02*
X0002565944Y0001350393I-0000009842D01*
G01*
X0002545275Y0001350393D01*
G75*
G02*
X0002535433Y0001360236J0000009842D01*
G01*
G37*
G36*
G01*
X0002463582Y0001360236D02*
X0002463582Y0001395669D01*
G75*
G02*
X0002473425Y0001405511I0000009842D01*
G01*
X0002494094Y0001405511D01*
G75*
G02*
X0002503936Y0001395669J-0000009842D01*
G01*
X0002503936Y0001360236D01*
G75*
G02*
X0002494094Y0001350393I-0000009842D01*
G01*
X0002473425Y0001350393D01*
G75*
G02*
X0002463582Y0001360236J0000009842D01*
G01*
G37*
G36*
G01*
X0002310531Y0001395669D02*
X0002310531Y0001360236D01*
G75*
G02*
X0002300689Y0001350393I-0000009842D01*
G01*
X0002280019Y0001350393D01*
G75*
G02*
X0002270177Y0001360236J0000009842D01*
G01*
X0002270177Y0001395669D01*
G75*
G02*
X0002280019Y0001405511I0000009842D01*
G01*
X0002300689Y0001405511D01*
G75*
G02*
X0002310531Y0001395669J-0000009842D01*
G01*
G37*
G36*
G01*
X0002382381Y0001395669D02*
X0002382381Y0001360236D01*
G75*
G02*
X0002372539Y0001350393I-0000009842D01*
G01*
X0002351870Y0001350393D01*
G75*
G02*
X0002342027Y0001360236J0000009842D01*
G01*
X0002342027Y0001395669D01*
G75*
G02*
X0002351870Y0001405511I0000009842D01*
G01*
X0002372539Y0001405511D01*
G75*
G02*
X0002382381Y0001395669J-0000009842D01*
G01*
G37*
G36*
G01*
X0002538877Y0001478346D02*
X0002538877Y0001513779D01*
G75*
G02*
X0002548720Y0001523622I0000009842D01*
G01*
X0002569389Y0001523622D01*
G75*
G02*
X0002579232Y0001513779J-0000009842D01*
G01*
X0002579232Y0001478346D01*
G75*
G02*
X0002569389Y0001468503I-0000009842D01*
G01*
X0002548720Y0001468503D01*
G75*
G02*
X0002538877Y0001478346J0000009842D01*
G01*
G37*
G36*
G01*
X0002467027Y0001478346D02*
X0002467027Y0001513779D01*
G75*
G02*
X0002476870Y0001523622I0000009842D01*
G01*
X0002497539Y0001523622D01*
G75*
G02*
X0002507381Y0001513779J-0000009842D01*
G01*
X0002507381Y0001478346D01*
G75*
G02*
X0002497539Y0001468503I-0000009842D01*
G01*
X0002476870Y0001468503D01*
G75*
G02*
X0002467027Y0001478346J0000009842D01*
G01*
G37*
G36*
G01*
X0002304858Y0001513544D02*
X0002304858Y0001478111D01*
G75*
G02*
X0002295015Y0001468269I-0000009842D01*
G01*
X0002274346Y0001468269D01*
G75*
G02*
X0002264503Y0001478111J0000009842D01*
G01*
X0002264503Y0001513544D01*
G75*
G02*
X0002274346Y0001523387I0000009842D01*
G01*
X0002295015Y0001523387D01*
G75*
G02*
X0002304858Y0001513544J-0000009842D01*
G01*
G37*
G36*
G01*
X0002376708Y0001513544D02*
X0002376708Y0001478111D01*
G75*
G02*
X0002366866Y0001468269I-0000009842D01*
G01*
X0002346196Y0001468269D01*
G75*
G02*
X0002336354Y0001478111J0000009842D01*
G01*
X0002336354Y0001513544D01*
G75*
G02*
X0002346196Y0001523387I0000009842D01*
G01*
X0002366866Y0001523387D01*
G75*
G02*
X0002376708Y0001513544J-0000009842D01*
G01*
G37*
G36*
G01*
X0002535433Y0001596456D02*
X0002535433Y0001631889D01*
G75*
G02*
X0002545275Y0001641732I0000009842D01*
G01*
X0002565944Y0001641732D01*
G75*
G02*
X0002575787Y0001631889J-0000009842D01*
G01*
X0002575787Y0001596456D01*
G75*
G02*
X0002565944Y0001586614I-0000009842D01*
G01*
X0002545275Y0001586614D01*
G75*
G02*
X0002535433Y0001596456J0000009842D01*
G01*
G37*
G36*
G01*
X0002463582Y0001596456D02*
X0002463582Y0001631889D01*
G75*
G02*
X0002473425Y0001641732I0000009842D01*
G01*
X0002494094Y0001641732D01*
G75*
G02*
X0002503936Y0001631889J-0000009842D01*
G01*
X0002503936Y0001596456D01*
G75*
G02*
X0002494094Y0001586614I-0000009842D01*
G01*
X0002473425Y0001586614D01*
G75*
G02*
X0002463582Y0001596456J0000009842D01*
G01*
G37*
G36*
G01*
X0002303641Y0001631889D02*
X0002303641Y0001596456D01*
G75*
G02*
X0002293799Y0001586614I-0000009842D01*
G01*
X0002273129Y0001586614D01*
G75*
G02*
X0002263287Y0001596456J0000009842D01*
G01*
X0002263287Y0001631889D01*
G75*
G02*
X0002273129Y0001641732I0000009842D01*
G01*
X0002293799Y0001641732D01*
G75*
G02*
X0002303641Y0001631889J-0000009842D01*
G01*
G37*
G36*
G01*
X0002375492Y0001631889D02*
X0002375492Y0001596456D01*
G75*
G02*
X0002365649Y0001586614I-0000009842D01*
G01*
X0002344980Y0001586614D01*
G75*
G02*
X0002335137Y0001596456J0000009842D01*
G01*
X0002335137Y0001631889D01*
G75*
G02*
X0002344980Y0001641732I0000009842D01*
G01*
X0002365649Y0001641732D01*
G75*
G02*
X0002375492Y0001631889J-0000009842D01*
G01*
G37*
G36*
G01*
X0002525984Y0001761417D02*
X0002513385Y0001761417D01*
G75*
G02*
X0002507086Y0001767716J0000006299D01*
G01*
X0002507086Y0001783267D01*
G75*
G02*
X0002513385Y0001789566I0000006299D01*
G01*
X0002525984Y0001789566D01*
G75*
G02*
X0002532283Y0001783267J-0000006299D01*
G01*
X0002532283Y0001767716D01*
G75*
G02*
X0002525984Y0001761417I-0000006299D01*
G01*
G37*
G36*
G01*
X0002525984Y0001714370D02*
X0002513385Y0001714370D01*
G75*
G02*
X0002507086Y0001720669J0000006299D01*
G01*
X0002507086Y0001736220D01*
G75*
G02*
X0002513385Y0001742519I0000006299D01*
G01*
X0002525984Y0001742519D01*
G75*
G02*
X0002532283Y0001736220J-0000006299D01*
G01*
X0002532283Y0001720669D01*
G75*
G02*
X0002525984Y0001714370I-0000006299D01*
G01*
G37*
G36*
G01*
X0002250393Y0001761417D02*
X0002237795Y0001761417D01*
G75*
G02*
X0002231496Y0001767716J0000006299D01*
G01*
X0002231496Y0001783267D01*
G75*
G02*
X0002237795Y0001789566I0000006299D01*
G01*
X0002250393Y0001789566D01*
G75*
G02*
X0002256692Y0001783267J-0000006299D01*
G01*
X0002256692Y0001767716D01*
G75*
G02*
X0002250393Y0001761417I-0000006299D01*
G01*
G37*
G36*
G01*
X0002250393Y0001714370D02*
X0002237795Y0001714370D01*
G75*
G02*
X0002231496Y0001720669J0000006299D01*
G01*
X0002231496Y0001736220D01*
G75*
G02*
X0002237795Y0001742519I0000006299D01*
G01*
X0002250393Y0001742519D01*
G75*
G02*
X0002256692Y0001736220J-0000006299D01*
G01*
X0002256692Y0001720669D01*
G75*
G02*
X0002250393Y0001714370I-0000006299D01*
G01*
G37*
G36*
G01*
X0002604724Y0001859842D02*
X0002592125Y0001859842D01*
G75*
G02*
X0002585826Y0001866141J0000006299D01*
G01*
X0002585826Y0001881692D01*
G75*
G02*
X0002592125Y0001887992I0000006299D01*
G01*
X0002604724Y0001887992D01*
G75*
G02*
X0002611023Y0001881692J-0000006299D01*
G01*
X0002611023Y0001866141D01*
G75*
G02*
X0002604724Y0001859842I-0000006299D01*
G01*
G37*
G36*
G01*
X0002604724Y0001812795D02*
X0002592125Y0001812795D01*
G75*
G02*
X0002585826Y0001819094J0000006299D01*
G01*
X0002585826Y0001834645D01*
G75*
G02*
X0002592125Y0001840944I0000006299D01*
G01*
X0002604724Y0001840944D01*
G75*
G02*
X0002611023Y0001834645J-0000006299D01*
G01*
X0002611023Y0001819094D01*
G75*
G02*
X0002604724Y0001812795I-0000006299D01*
G01*
G37*
G36*
G01*
X0002250393Y0001859842D02*
X0002237795Y0001859842D01*
G75*
G02*
X0002231496Y0001866141J0000006299D01*
G01*
X0002231496Y0001881692D01*
G75*
G02*
X0002237795Y0001887992I0000006299D01*
G01*
X0002250393Y0001887992D01*
G75*
G02*
X0002256692Y0001881692J-0000006299D01*
G01*
X0002256692Y0001866141D01*
G75*
G02*
X0002250393Y0001859842I-0000006299D01*
G01*
G37*
G36*
G01*
X0002250393Y0001812795D02*
X0002237795Y0001812795D01*
G75*
G02*
X0002231496Y0001819094J0000006299D01*
G01*
X0002231496Y0001834645D01*
G75*
G02*
X0002237795Y0001840944I0000006299D01*
G01*
X0002250393Y0001840944D01*
G75*
G02*
X0002256692Y0001834645J-0000006299D01*
G01*
X0002256692Y0001819094D01*
G75*
G02*
X0002250393Y0001812795I-0000006299D01*
G01*
G37*
G04 next file*
G04 #@! TF.GenerationSoftware,KiCad,Pcbnew,(5.1.10)-1*
G04 #@! TF.CreationDate,2021-09-22T20:54:56-07:00*
G04 #@! TF.ProjectId,project,70726f6a-6563-4742-9e6b-696361645f70,rev?*
G04 #@! TF.SameCoordinates,Original*
G04 #@! TF.FileFunction,Soldermask,Bot*
G04 #@! TF.FilePolarity,Negative*
G04 Gerber Fmt 4.6, Leading zero omitted, Abs format (unit mm)*
G04 Created by KiCad (PCBNEW (5.1.10)-1) date 2021-09-22 20:54:56*
G01*
G04 APERTURE LIST*
G04 APERTURE END LIST*
D32*
X-0004881889Y0003818897D02*
X0003031496Y0000196850D03*
X0003080708Y0000196850D03*
X0003129921Y0000196850D03*
X0003179133Y0000196850D03*
G36*
G01*
X0003244094Y0000214566D02*
X0003244094Y0000179133D01*
G75*
G02*
X0003236220Y0000171259I-0000007874D01*
G01*
X0003220472Y0000171259D01*
G75*
G02*
X0003212598Y0000179133J0000007874D01*
G01*
X0003212598Y0000214566D01*
G75*
G02*
X0003220472Y0000222440I0000007874D01*
G01*
X0003236220Y0000222440D01*
G75*
G02*
X0003244094Y0000214566J-0000007874D01*
G01*
G37*
G36*
G01*
X0002971948Y0000415354D02*
X0002971948Y0000450787D01*
G75*
G02*
X0002981791Y0000460629I0000009842D01*
G01*
X0003002460Y0000460629D01*
G75*
G02*
X0003012303Y0000450787J-0000009842D01*
G01*
X0003012303Y0000415354D01*
G75*
G02*
X0003002460Y0000405511I-0000009842D01*
G01*
X0002981791Y0000405511D01*
G75*
G02*
X0002971948Y0000415354J0000009842D01*
G01*
G37*
G36*
G01*
X0002900098Y0000415354D02*
X0002900098Y0000450787D01*
G75*
G02*
X0002909940Y0000460629I0000009842D01*
G01*
X0002930610Y0000460629D01*
G75*
G02*
X0002940452Y0000450787J-0000009842D01*
G01*
X0002940452Y0000415354D01*
G75*
G02*
X0002930610Y0000405511I-0000009842D01*
G01*
X0002909940Y0000405511D01*
G75*
G02*
X0002900098Y0000415354J0000009842D01*
G01*
G37*
G36*
G01*
X0003294783Y0000450787D02*
X0003294783Y0000415354D01*
G75*
G02*
X0003284940Y0000405511I-0000009842D01*
G01*
X0003264271Y0000405511D01*
G75*
G02*
X0003254429Y0000415354J0000009842D01*
G01*
X0003254429Y0000450787D01*
G75*
G02*
X0003264271Y0000460629I0000009842D01*
G01*
X0003284940Y0000460629D01*
G75*
G02*
X0003294783Y0000450787J-0000009842D01*
G01*
G37*
G36*
G01*
X0003366633Y0000450787D02*
X0003366633Y0000415354D01*
G75*
G02*
X0003356791Y0000405511I-0000009842D01*
G01*
X0003336122Y0000405511D01*
G75*
G02*
X0003326279Y0000415354J0000009842D01*
G01*
X0003326279Y0000450787D01*
G75*
G02*
X0003336122Y0000460629I0000009842D01*
G01*
X0003356791Y0000460629D01*
G75*
G02*
X0003366633Y0000450787J-0000009842D01*
G01*
G37*
D33*
X0003271653Y0000601377D03*
X0003271653Y0000626968D03*
X0003271653Y0000652559D03*
X0003271653Y0000678149D03*
X0003271653Y0000703740D03*
X0003271653Y0000729330D03*
X0003271653Y0000754921D03*
X0003271653Y0000780511D03*
X0003271653Y0000806102D03*
X0003271653Y0000831692D03*
X0003271653Y0000857283D03*
X0003271653Y0000882873D03*
X0003271653Y0000908464D03*
X0003271653Y0000934055D03*
X0002988188Y0000934055D03*
X0002988188Y0000908464D03*
X0002988188Y0000882873D03*
X0002988188Y0000857283D03*
X0002988188Y0000831692D03*
X0002988188Y0000806102D03*
X0002988188Y0000780511D03*
X0002988188Y0000754921D03*
X0002988188Y0000729330D03*
X0002988188Y0000703740D03*
X0002988188Y0000678149D03*
X0002988188Y0000652559D03*
X0002988188Y0000626968D03*
X0002988188Y0000601377D03*
G36*
G01*
X0003313385Y0001761417D02*
X0003300787Y0001761417D01*
G75*
G02*
X0003294488Y0001767716J0000006299D01*
G01*
X0003294488Y0001783267D01*
G75*
G02*
X0003300787Y0001789566I0000006299D01*
G01*
X0003313385Y0001789566D01*
G75*
G02*
X0003319685Y0001783267J-0000006299D01*
G01*
X0003319685Y0001767716D01*
G75*
G02*
X0003313385Y0001761417I-0000006299D01*
G01*
G37*
G36*
G01*
X0003313385Y0001714370D02*
X0003300787Y0001714370D01*
G75*
G02*
X0003294488Y0001720669J0000006299D01*
G01*
X0003294488Y0001736220D01*
G75*
G02*
X0003300787Y0001742519I0000006299D01*
G01*
X0003313385Y0001742519D01*
G75*
G02*
X0003319685Y0001736220J-0000006299D01*
G01*
X0003319685Y0001720669D01*
G75*
G02*
X0003313385Y0001714370I-0000006299D01*
G01*
G37*
G36*
G01*
X0003037795Y0001761417D02*
X0003025196Y0001761417D01*
G75*
G02*
X0003018897Y0001767716J0000006299D01*
G01*
X0003018897Y0001783267D01*
G75*
G02*
X0003025196Y0001789566I0000006299D01*
G01*
X0003037795Y0001789566D01*
G75*
G02*
X0003044094Y0001783267J-0000006299D01*
G01*
X0003044094Y0001767716D01*
G75*
G02*
X0003037795Y0001761417I-0000006299D01*
G01*
G37*
G36*
G01*
X0003037795Y0001714370D02*
X0003025196Y0001714370D01*
G75*
G02*
X0003018897Y0001720669J0000006299D01*
G01*
X0003018897Y0001736220D01*
G75*
G02*
X0003025196Y0001742519I0000006299D01*
G01*
X0003037795Y0001742519D01*
G75*
G02*
X0003044094Y0001736220J-0000006299D01*
G01*
X0003044094Y0001720669D01*
G75*
G02*
X0003037795Y0001714370I-0000006299D01*
G01*
G37*
G36*
G01*
X0003234645Y0001859842D02*
X0003222047Y0001859842D01*
G75*
G02*
X0003215748Y0001866141J0000006299D01*
G01*
X0003215748Y0001881692D01*
G75*
G02*
X0003222047Y0001887992I0000006299D01*
G01*
X0003234645Y0001887992D01*
G75*
G02*
X0003240944Y0001881692J-0000006299D01*
G01*
X0003240944Y0001866141D01*
G75*
G02*
X0003234645Y0001859842I-0000006299D01*
G01*
G37*
G36*
G01*
X0003234645Y0001812795D02*
X0003222047Y0001812795D01*
G75*
G02*
X0003215748Y0001819094J0000006299D01*
G01*
X0003215748Y0001834645D01*
G75*
G02*
X0003222047Y0001840944I0000006299D01*
G01*
X0003234645Y0001840944D01*
G75*
G02*
X0003240944Y0001834645J-0000006299D01*
G01*
X0003240944Y0001819094D01*
G75*
G02*
X0003234645Y0001812795I-0000006299D01*
G01*
G37*
G36*
G01*
X0003037795Y0001859842D02*
X0003025196Y0001859842D01*
G75*
G02*
X0003018897Y0001866141J0000006299D01*
G01*
X0003018897Y0001881692D01*
G75*
G02*
X0003025196Y0001887992I0000006299D01*
G01*
X0003037795Y0001887992D01*
G75*
G02*
X0003044094Y0001881692J-0000006299D01*
G01*
X0003044094Y0001866141D01*
G75*
G02*
X0003037795Y0001859842I-0000006299D01*
G01*
G37*
G36*
G01*
X0003037795Y0001812795D02*
X0003025196Y0001812795D01*
G75*
G02*
X0003018897Y0001819094J0000006299D01*
G01*
X0003018897Y0001834645D01*
G75*
G02*
X0003025196Y0001840944I0000006299D01*
G01*
X0003037795Y0001840944D01*
G75*
G02*
X0003044094Y0001834645J-0000006299D01*
G01*
X0003044094Y0001819094D01*
G75*
G02*
X0003037795Y0001812795I-0000006299D01*
G01*
G37*
G36*
G01*
X0003244094Y0001124015D02*
X0003244094Y0001159448D01*
G75*
G02*
X0003253936Y0001169291I0000009842D01*
G01*
X0003274606Y0001169291D01*
G75*
G02*
X0003284448Y0001159448J-0000009842D01*
G01*
X0003284448Y0001124015D01*
G75*
G02*
X0003274606Y0001114173I-0000009842D01*
G01*
X0003253936Y0001114173D01*
G75*
G02*
X0003244094Y0001124015J0000009842D01*
G01*
G37*
G36*
G01*
X0003172244Y0001124015D02*
X0003172244Y0001159448D01*
G75*
G02*
X0003182086Y0001169291I0000009842D01*
G01*
X0003202755Y0001169291D01*
G75*
G02*
X0003212598Y0001159448J-0000009842D01*
G01*
X0003212598Y0001124015D01*
G75*
G02*
X0003202755Y0001114173I-0000009842D01*
G01*
X0003182086Y0001114173D01*
G75*
G02*
X0003172244Y0001124015J0000009842D01*
G01*
G37*
G36*
G01*
X0003012303Y0001159448D02*
X0003012303Y0001124015D01*
G75*
G02*
X0003002460Y0001114173I-0000009842D01*
G01*
X0002981791Y0001114173D01*
G75*
G02*
X0002971948Y0001124015J0000009842D01*
G01*
X0002971948Y0001159448D01*
G75*
G02*
X0002981791Y0001169291I0000009842D01*
G01*
X0003002460Y0001169291D01*
G75*
G02*
X0003012303Y0001159448J-0000009842D01*
G01*
G37*
G36*
G01*
X0003084153Y0001159448D02*
X0003084153Y0001124015D01*
G75*
G02*
X0003074311Y0001114173I-0000009842D01*
G01*
X0003053641Y0001114173D01*
G75*
G02*
X0003043799Y0001124015J0000009842D01*
G01*
X0003043799Y0001159448D01*
G75*
G02*
X0003053641Y0001169291I0000009842D01*
G01*
X0003074311Y0001169291D01*
G75*
G02*
X0003084153Y0001159448J-0000009842D01*
G01*
G37*
G36*
G01*
X0003244094Y0001241929D02*
X0003244094Y0001277362D01*
G75*
G02*
X0003253936Y0001287204I0000009842D01*
G01*
X0003274606Y0001287204D01*
G75*
G02*
X0003284448Y0001277362J-0000009842D01*
G01*
X0003284448Y0001241929D01*
G75*
G02*
X0003274606Y0001232086I-0000009842D01*
G01*
X0003253936Y0001232086D01*
G75*
G02*
X0003244094Y0001241929J0000009842D01*
G01*
G37*
G36*
G01*
X0003172244Y0001241929D02*
X0003172244Y0001277362D01*
G75*
G02*
X0003182086Y0001287204I0000009842D01*
G01*
X0003202755Y0001287204D01*
G75*
G02*
X0003212598Y0001277362J-0000009842D01*
G01*
X0003212598Y0001241929D01*
G75*
G02*
X0003202755Y0001232086I-0000009842D01*
G01*
X0003182086Y0001232086D01*
G75*
G02*
X0003172244Y0001241929J0000009842D01*
G01*
G37*
G36*
G01*
X0003012303Y0001277559D02*
X0003012303Y0001242125D01*
G75*
G02*
X0003002460Y0001232283I-0000009842D01*
G01*
X0002981791Y0001232283D01*
G75*
G02*
X0002971948Y0001242125J0000009842D01*
G01*
X0002971948Y0001277559D01*
G75*
G02*
X0002981791Y0001287401I0000009842D01*
G01*
X0003002460Y0001287401D01*
G75*
G02*
X0003012303Y0001277559J-0000009842D01*
G01*
G37*
G36*
G01*
X0003084153Y0001277559D02*
X0003084153Y0001242125D01*
G75*
G02*
X0003074311Y0001232283I-0000009842D01*
G01*
X0003053641Y0001232283D01*
G75*
G02*
X0003043799Y0001242125J0000009842D01*
G01*
X0003043799Y0001277559D01*
G75*
G02*
X0003053641Y0001287401I0000009842D01*
G01*
X0003074311Y0001287401D01*
G75*
G02*
X0003084153Y0001277559J-0000009842D01*
G01*
G37*
G36*
G01*
X0003244094Y0001360236D02*
X0003244094Y0001395669D01*
G75*
G02*
X0003253936Y0001405511I0000009842D01*
G01*
X0003274606Y0001405511D01*
G75*
G02*
X0003284448Y0001395669J-0000009842D01*
G01*
X0003284448Y0001360236D01*
G75*
G02*
X0003274606Y0001350393I-0000009842D01*
G01*
X0003253936Y0001350393D01*
G75*
G02*
X0003244094Y0001360236J0000009842D01*
G01*
G37*
G36*
G01*
X0003172244Y0001360236D02*
X0003172244Y0001395669D01*
G75*
G02*
X0003182086Y0001405511I0000009842D01*
G01*
X0003202755Y0001405511D01*
G75*
G02*
X0003212598Y0001395669J-0000009842D01*
G01*
X0003212598Y0001360236D01*
G75*
G02*
X0003202755Y0001350393I-0000009842D01*
G01*
X0003182086Y0001350393D01*
G75*
G02*
X0003172244Y0001360236J0000009842D01*
G01*
G37*
G36*
G01*
X0003019192Y0001395669D02*
X0003019192Y0001360236D01*
G75*
G02*
X0003009350Y0001350393I-0000009842D01*
G01*
X0002988681Y0001350393D01*
G75*
G02*
X0002978838Y0001360236J0000009842D01*
G01*
X0002978838Y0001395669D01*
G75*
G02*
X0002988681Y0001405511I0000009842D01*
G01*
X0003009350Y0001405511D01*
G75*
G02*
X0003019192Y0001395669J-0000009842D01*
G01*
G37*
G36*
G01*
X0003091043Y0001395669D02*
X0003091043Y0001360236D01*
G75*
G02*
X0003081200Y0001350393I-0000009842D01*
G01*
X0003060531Y0001350393D01*
G75*
G02*
X0003050688Y0001360236J0000009842D01*
G01*
X0003050688Y0001395669D01*
G75*
G02*
X0003060531Y0001405511I0000009842D01*
G01*
X0003081200Y0001405511D01*
G75*
G02*
X0003091043Y0001395669J-0000009842D01*
G01*
G37*
G36*
G01*
X0003247539Y0001478346D02*
X0003247539Y0001513779D01*
G75*
G02*
X0003257381Y0001523622I0000009842D01*
G01*
X0003278051Y0001523622D01*
G75*
G02*
X0003287893Y0001513779J-0000009842D01*
G01*
X0003287893Y0001478346D01*
G75*
G02*
X0003278051Y0001468503I-0000009842D01*
G01*
X0003257381Y0001468503D01*
G75*
G02*
X0003247539Y0001478346J0000009842D01*
G01*
G37*
G36*
G01*
X0003175688Y0001478346D02*
X0003175688Y0001513779D01*
G75*
G02*
X0003185531Y0001523622I0000009842D01*
G01*
X0003206200Y0001523622D01*
G75*
G02*
X0003216043Y0001513779J-0000009842D01*
G01*
X0003216043Y0001478346D01*
G75*
G02*
X0003206200Y0001468503I-0000009842D01*
G01*
X0003185531Y0001468503D01*
G75*
G02*
X0003175688Y0001478346J0000009842D01*
G01*
G37*
G36*
G01*
X0003013519Y0001513544D02*
X0003013519Y0001478111D01*
G75*
G02*
X0003003677Y0001468269I-0000009842D01*
G01*
X0002983007Y0001468269D01*
G75*
G02*
X0002973165Y0001478111J0000009842D01*
G01*
X0002973165Y0001513544D01*
G75*
G02*
X0002983007Y0001523387I0000009842D01*
G01*
X0003003677Y0001523387D01*
G75*
G02*
X0003013519Y0001513544J-0000009842D01*
G01*
G37*
G36*
G01*
X0003085370Y0001513544D02*
X0003085370Y0001478111D01*
G75*
G02*
X0003075527Y0001468269I-0000009842D01*
G01*
X0003054858Y0001468269D01*
G75*
G02*
X0003045015Y0001478111J0000009842D01*
G01*
X0003045015Y0001513544D01*
G75*
G02*
X0003054858Y0001523387I0000009842D01*
G01*
X0003075527Y0001523387D01*
G75*
G02*
X0003085370Y0001513544J-0000009842D01*
G01*
G37*
G36*
G01*
X0003244094Y0001596456D02*
X0003244094Y0001631889D01*
G75*
G02*
X0003253936Y0001641732I0000009842D01*
G01*
X0003274606Y0001641732D01*
G75*
G02*
X0003284448Y0001631889J-0000009842D01*
G01*
X0003284448Y0001596456D01*
G75*
G02*
X0003274606Y0001586614I-0000009842D01*
G01*
X0003253936Y0001586614D01*
G75*
G02*
X0003244094Y0001596456J0000009842D01*
G01*
G37*
G36*
G01*
X0003172244Y0001596456D02*
X0003172244Y0001631889D01*
G75*
G02*
X0003182086Y0001641732I0000009842D01*
G01*
X0003202755Y0001641732D01*
G75*
G02*
X0003212598Y0001631889J-0000009842D01*
G01*
X0003212598Y0001596456D01*
G75*
G02*
X0003202755Y0001586614I-0000009842D01*
G01*
X0003182086Y0001586614D01*
G75*
G02*
X0003172244Y0001596456J0000009842D01*
G01*
G37*
G36*
G01*
X0003012303Y0001631889D02*
X0003012303Y0001596456D01*
G75*
G02*
X0003002460Y0001586614I-0000009842D01*
G01*
X0002981791Y0001586614D01*
G75*
G02*
X0002971948Y0001596456J0000009842D01*
G01*
X0002971948Y0001631889D01*
G75*
G02*
X0002981791Y0001641732I0000009842D01*
G01*
X0003002460Y0001641732D01*
G75*
G02*
X0003012303Y0001631889J-0000009842D01*
G01*
G37*
G36*
G01*
X0003084153Y0001631889D02*
X0003084153Y0001596456D01*
G75*
G02*
X0003074311Y0001586614I-0000009842D01*
G01*
X0003053641Y0001586614D01*
G75*
G02*
X0003043799Y0001596456J0000009842D01*
G01*
X0003043799Y0001631889D01*
G75*
G02*
X0003053641Y0001641732I0000009842D01*
G01*
X0003074311Y0001641732D01*
G75*
G02*
X0003084153Y0001631889J-0000009842D01*
G01*
G37*
G36*
G01*
X0003234645Y0001761417D02*
X0003222047Y0001761417D01*
G75*
G02*
X0003215748Y0001767716J0000006299D01*
G01*
X0003215748Y0001783267D01*
G75*
G02*
X0003222047Y0001789566I0000006299D01*
G01*
X0003234645Y0001789566D01*
G75*
G02*
X0003240944Y0001783267J-0000006299D01*
G01*
X0003240944Y0001767716D01*
G75*
G02*
X0003234645Y0001761417I-0000006299D01*
G01*
G37*
G36*
G01*
X0003234645Y0001714370D02*
X0003222047Y0001714370D01*
G75*
G02*
X0003215748Y0001720669J0000006299D01*
G01*
X0003215748Y0001736220D01*
G75*
G02*
X0003222047Y0001742519I0000006299D01*
G01*
X0003234645Y0001742519D01*
G75*
G02*
X0003240944Y0001736220J-0000006299D01*
G01*
X0003240944Y0001720669D01*
G75*
G02*
X0003234645Y0001714370I-0000006299D01*
G01*
G37*
G36*
G01*
X0002959055Y0001761417D02*
X0002946456Y0001761417D01*
G75*
G02*
X0002940157Y0001767716J0000006299D01*
G01*
X0002940157Y0001783267D01*
G75*
G02*
X0002946456Y0001789566I0000006299D01*
G01*
X0002959055Y0001789566D01*
G75*
G02*
X0002965354Y0001783267J-0000006299D01*
G01*
X0002965354Y0001767716D01*
G75*
G02*
X0002959055Y0001761417I-0000006299D01*
G01*
G37*
G36*
G01*
X0002959055Y0001714370D02*
X0002946456Y0001714370D01*
G75*
G02*
X0002940157Y0001720669J0000006299D01*
G01*
X0002940157Y0001736220D01*
G75*
G02*
X0002946456Y0001742519I0000006299D01*
G01*
X0002959055Y0001742519D01*
G75*
G02*
X0002965354Y0001736220J-0000006299D01*
G01*
X0002965354Y0001720669D01*
G75*
G02*
X0002959055Y0001714370I-0000006299D01*
G01*
G37*
G36*
G01*
X0003313385Y0001859842D02*
X0003300787Y0001859842D01*
G75*
G02*
X0003294488Y0001866141J0000006299D01*
G01*
X0003294488Y0001881692D01*
G75*
G02*
X0003300787Y0001887992I0000006299D01*
G01*
X0003313385Y0001887992D01*
G75*
G02*
X0003319685Y0001881692J-0000006299D01*
G01*
X0003319685Y0001866141D01*
G75*
G02*
X0003313385Y0001859842I-0000006299D01*
G01*
G37*
G36*
G01*
X0003313385Y0001812795D02*
X0003300787Y0001812795D01*
G75*
G02*
X0003294488Y0001819094J0000006299D01*
G01*
X0003294488Y0001834645D01*
G75*
G02*
X0003300787Y0001840944I0000006299D01*
G01*
X0003313385Y0001840944D01*
G75*
G02*
X0003319685Y0001834645J-0000006299D01*
G01*
X0003319685Y0001819094D01*
G75*
G02*
X0003313385Y0001812795I-0000006299D01*
G01*
G37*
G36*
G01*
X0002959055Y0001859842D02*
X0002946456Y0001859842D01*
G75*
G02*
X0002940157Y0001866141J0000006299D01*
G01*
X0002940157Y0001881692D01*
G75*
G02*
X0002946456Y0001887992I0000006299D01*
G01*
X0002959055Y0001887992D01*
G75*
G02*
X0002965354Y0001881692J-0000006299D01*
G01*
X0002965354Y0001866141D01*
G75*
G02*
X0002959055Y0001859842I-0000006299D01*
G01*
G37*
G36*
G01*
X0002959055Y0001812795D02*
X0002946456Y0001812795D01*
G75*
G02*
X0002940157Y0001819094J0000006299D01*
G01*
X0002940157Y0001834645D01*
G75*
G02*
X0002946456Y0001840944I0000006299D01*
G01*
X0002959055Y0001840944D01*
G75*
G02*
X0002965354Y0001834645J-0000006299D01*
G01*
X0002965354Y0001819094D01*
G75*
G02*
X0002959055Y0001812795I-0000006299D01*
G01*
G37*
M02*