  0
SECTION
  2
HEADER
  9
$ACADVER
  1
AC1014
  9
$HANDSEED
  5
FFFF
  9
$MEASUREMENT
 70
     1
  0
ENDSEC
  0
SECTION
  2
TABLES
  0
TABLE
  2
VPORT
  5
8
330
0
100
AcDbSymbolTable
 70
     4
  0
VPORT
  5
2E
330
8
100
AcDbSymbolTableRecord
100
AcDbViewportTableRecord
  2
*ACTIVE
 70
     0
 10
0.0
 20
0.0
 11
1.0
 21
1.0
 12
210.0
 22
148.5
 13
0.0
 23
0.0
 14
10.0
 24
10.0
 15
10.0
 25
10.0
 16
0.0
 26
0.0
 36
1.0
 17
0.0
 27
0.0
 37
0.0
 40
341.0
 41
1.24
 42
50.0
 43
0.0
 44
0.0
 50
0.0
 51
0.0
 71
     0
 72
   100
 73
     1
 74
     3
 75
     0
 76
     0
 77
     0
 78
     0
  0
ENDTAB
  0
TABLE
  2
LTYPE
  5
5
330
0
100
AcDbSymbolTable
 70
     1
  0
LTYPE
  5
14
330
5
100
AcDbSymbolTableRecord
100
AcDbLinetypeTableRecord
  2
BYBLOCK
 70
     0
  3

 72
    65
 73
     0
 40
0.0
  0
LTYPE
  5
15
330
5
100
AcDbSymbolTableRecord
100
AcDbLinetypeTableRecord
  2
BYLAYER
 70
     0
  3

 72
    65
 73
     0
 40
0.0
  0
LTYPE
  5
16
330
5
100
AcDbSymbolTableRecord
100
AcDbLinetypeTableRecord
  2
CONTINUOUS
 70
     0
  3
Solid line
 72
    65
 73
     0
 40
0.0
  0
ENDTAB
  0
TABLE
  2
LAYER
  5
2
100
AcDbSymbolTable
 70
1
  0
LAYER
  5
50
100
AcDbSymbolTableRecord
100
AcDbLayerTableRecord
  2
0
 70
0
  6
CONTINUOUS
  0
ENDTAB
  0
TABLE
  2
STYLE
  5
3
330
0
100
AcDbSymbolTable
 70
     1
  0
STYLE
  5
11
330
3
100
AcDbSymbolTableRecord
100
AcDbTextStyleTableRecord
  2
STANDARD
 70
     0
 40
0.0
 41
1.0
 50
0.0
 71
     0
 42
2.5
  3
txt
  4

  0
ENDTAB
  0
TABLE
  2
VIEW
  5
6
330
0
100
AcDbSymbolTable
 70
     0
  0
ENDTAB
  0
TABLE
  2
UCS
  5
7
330
0
100
AcDbSymbolTable
 70
     0
  0
ENDTAB
  0
TABLE
  2
APPID
  5
9
330
0
100
AcDbSymbolTable
 70
     2
  0
APPID
  5
12
330
9
100
AcDbSymbolTableRecord
100
AcDbRegAppTableRecord
  2
ACAD
 70
     0
  0
ENDTAB
  0
TABLE
  2
DIMSTYLE
  5
A
330
0
100
AcDbSymbolTable
 70
     1
  0
DIMSTYLE
105
27
330
A
100
AcDbSymbolTableRecord
100
AcDbDimStyleTableRecord
  2
ISO-25
 70
     0
  3

  4

  5

  6

  7

 40
1.0
 41
2.5
 42
0.625
 43
3.75
 44
1.25
 45
0.0
 46
0.0
 47
0.0
 48
0.0
140
2.5
141
2.5
142
0.0
143
0.03937007874016
144
1.0
145
0.0
146
1.0
147
0.625
 71
     0
 72
     0
 73
     0
 74
     0
 75
     0
 76
     0
 77
     1
 78
     8
170
     0
171
     3
172
     1
173
     0
174
     0
175
     0
176
     0
177
     0
178
     0
270
     2
271
     2
272
     2
273
     2
274
     3
340
11
275
     0
280
     0
281
     0
282
     0
283
     0
284
     8
285
     0
286
     0
287
     3
288
     0
  0
ENDTAB
  0
TABLE
  2
BLOCK_RECORD
  5
1
330
0
100
AcDbSymbolTable
 70
     1
  0
BLOCK_RECORD
  5
1F
330
1
100
AcDbSymbolTableRecord
100
AcDbBlockTableRecord
  2
*MODEL_SPACE
  0
BLOCK_RECORD
  5
1B
330
1
100
AcDbSymbolTableRecord
100
AcDbBlockTableRecord
  2
*PAPER_SPACE
  0
ENDTAB
  0
ENDSEC
  0
SECTION
  2
BLOCKS
  0
BLOCK
  5
20
330
1F
100
AcDbEntity
  8
0
100
AcDbBlockBegin
  2
*MODEL_SPACE
 70
     0
 10
0.0
 20
0.0
 30
0.0
  3
*MODEL_SPACE
  1

  0
ENDBLK
  5
21
330
1F
100
AcDbEntity
  8
0
100
AcDbBlockEnd
  0
BLOCK
  5
1C
330
1B
100
AcDbEntity
 67
     1
  8
0
100
AcDbBlockBegin
  2
*PAPER_SPACE
  1

  0
ENDBLK
  5
1D
330
1B
100
AcDbEntity
 67
     1
  8
0
100
AcDbBlockEnd
  0
ENDSEC
  0
SECTION
  2
ENTITIES
  0
SPLINE
  5
100
100
AcDbEntity
  8
0
 62
7
100
AcDbSpline
 70
8
 71
3
 72
8
 73
4
 74
0
 40
0
 40
0
 40
0
 40
0
 40
1
 40
1
 40
1
 40
1
 10
2.590051
 20
-4.821240
 30
0.0
 10
2.590051
 20
-4.964164
 30
0.0
 10
2.513802
 20
-5.096231
 30
0.0
 10
2.390026
 20
-5.167694
 30
0.0
  0
SPLINE
  5
101
100
AcDbEntity
  8
0
 62
7
100
AcDbSpline
 70
8
 71
3
 72
8
 73
4
 74
0
 40
0
 40
0
 40
0
 40
0
 40
1
 40
1
 40
1
 40
1
 10
2.390026
 20
-5.167694
 30
0.0
 10
2.266250
 20
-5.239156
 30
0.0
 10
2.113752
 20
-5.239156
 30
0.0
 10
1.989976
 20
-5.167694
 30
0.0
  0
SPLINE
  5
102
100
AcDbEntity
  8
0
 62
7
100
AcDbSpline
 70
8
 71
3
 72
8
 73
4
 74
0
 40
0
 40
0
 40
0
 40
0
 40
1
 40
1
 40
1
 40
1
 10
1.989976
 20
-5.167694
 30
0.0
 10
1.866200
 20
-5.096231
 30
0.0
 10
1.789951
 20
-4.964164
 30
0.0
 10
1.789951
 20
-4.821240
 30
0.0
  0
SPLINE
  5
103
100
AcDbEntity
  8
0
 62
7
100
AcDbSpline
 70
8
 71
3
 72
8
 73
4
 74
0
 40
0
 40
0
 40
0
 40
0
 40
1
 40
1
 40
1
 40
1
 10
1.789951
 20
-4.821240
 30
0.0
 10
1.789951
 20
-4.678316
 30
0.0
 10
1.866200
 20
-4.546249
 30
0.0
 10
1.989976
 20
-4.474787
 30
0.0
  0
SPLINE
  5
104
100
AcDbEntity
  8
0
 62
7
100
AcDbSpline
 70
8
 71
3
 72
8
 73
4
 74
0
 40
0
 40
0
 40
0
 40
0
 40
1
 40
1
 40
1
 40
1
 10
1.989976
 20
-4.474787
 30
0.0
 10
2.113752
 20
-4.403325
 30
0.0
 10
2.266250
 20
-4.403325
 30
0.0
 10
2.390026
 20
-4.474787
 30
0.0
  0
SPLINE
  5
105
100
AcDbEntity
  8
0
 62
7
100
AcDbSpline
 70
8
 71
3
 72
8
 73
4
 74
0
 40
0
 40
0
 40
0
 40
0
 40
1
 40
1
 40
1
 40
1
 10
2.390026
 20
-4.474787
 30
0.0
 10
2.513802
 20
-4.546249
 30
0.0
 10
2.590051
 20
-4.678316
 30
0.0
 10
2.590051
 20
-4.821240
 30
0.0
  0
SPLINE
  5
106
100
AcDbEntity
  8
0
 62
1
100
AcDbSpline
 70
8
 71
3
 72
8
 73
4
 74
0
 40
0
 40
0
 40
0
 40
0
 40
1
 40
1
 40
1
 40
1
 10
30.159429
 20
-10.204403
 30
0.0
 10
30.159429
 20
-8.450899
 30
0.0
 10
28.737933
 20
-7.029403
 30
0.0
 10
26.984429
 20
-7.029403
 30
0.0
  0
SPLINE
  5
107
100
AcDbEntity
  8
0
 62
1
100
AcDbSpline
 70
8
 71
3
 72
8
 73
4
 74
0
 40
0
 40
0
 40
0
 40
0
 40
1
 40
1
 40
1
 40
1
 10
6.664429
 20
-7.029403
 30
0.0
 10
4.910930
 20
-7.029410
 30
0.0
 10
3.489441
 20
-8.450904
 30
0.0
 10
3.489441
 20
-10.204403
 30
0.0
  0
LWPOLYLINE
  5
108
100
AcDbEntity
  8
0
 62
7
100
AcDbPolyline
 90
1
 70
1
 10
2.590051
 20
-4.821240
 30
0.0
  0
LWPOLYLINE
  5
109
100
AcDbEntity
  8
0
 62
1
100
AcDbPolyline
 90
2
 70
0
 10
6.663921
 20
-7.028717
 30
0.0
 10
26.983921
 20
-7.028717
 30
0.0
  0
LWPOLYLINE
  5
10a
100
AcDbEntity
  8
0
 62
1
100
AcDbPolyline
 90
2
 70
0
 10
30.158921
 20
-10.203717
 30
0.0
 10
30.158921
 20
-17.823717
 30
0.0
  0
SPLINE
  5
10b
100
AcDbEntity
  8
0
 62
1
100
AcDbSpline
 70
8
 71
3
 72
8
 73
4
 74
0
 40
0
 40
0
 40
0
 40
0
 40
1
 40
1
 40
1
 40
1
 10
30.159429
 20
-17.824403
 30
0.0
 10
30.159429
 20
-18.666465
 30
0.0
 10
29.824921
 20
-19.474039
 30
0.0
 10
29.229491
 20
-20.069467
 30
0.0
  0
SPLINE
  5
10c
100
AcDbEntity
  8
0
 62
1
100
AcDbSpline
 70
8
 71
3
 72
8
 73
4
 74
0
 40
0
 40
0
 40
0
 40
0
 40
1
 40
1
 40
1
 40
1
 10
29.229491
 20
-20.069467
 30
0.0
 10
28.931778
 20
-20.367181
 30
0.0
 10
28.581028
 20
-20.599665
 30
0.0
 10
28.199449
 20
-20.757720
 30
0.0
  0
SPLINE
  5
10d
100
AcDbEntity
  8
0
 62
1
100
AcDbSpline
 70
8
 71
3
 72
8
 73
4
 74
0
 40
0
 40
0
 40
0
 40
0
 40
1
 40
1
 40
1
 40
1
 10
28.199449
 20
-20.757720
 30
0.0
 10
27.551744
 20
-20.901030
 30
0.0
 10
27.448307
 20
-21.116765
 30
0.0
 10
27.766376
 20
-21.388590
 30
0.0
  0
SPLINE
  5
10e
100
AcDbEntity
  8
0
 62
1
100
AcDbSpline
 70
8
 71
3
 72
8
 73
4
 74
0
 40
0
 40
0
 40
0
 40
0
 40
1
 40
1
 40
1
 40
1
 10
27.766376
 20
-21.388590
 30
0.0
 10
28.211371
 20
-21.572913
 30
0.0
 10
28.620412
 20
-21.844034
 30
0.0
 10
28.967605
 20
-22.191226
 30
0.0
  0
SPLINE
  5
10f
100
AcDbEntity
  8
0
 62
1
100
AcDbSpline
 70
8
 71
3
 72
8
 73
4
 74
0
 40
0
 40
0
 40
0
 40
0
 40
1
 40
1
 40
1
 40
1
 10
28.967605
 20
-22.191226
 30
0.0
 10
29.661987
 20
-22.885609
 30
0.0
 10
30.052088
 20
-23.827395
 30
0.0
 10
30.052088
 20
-24.809401
 30
0.0
  0
SPLINE
  5
110
100
AcDbEntity
  8
0
 62
1
100
AcDbSpline
 70
8
 71
3
 72
8
 73
4
 74
0
 40
0
 40
0
 40
0
 40
0
 40
1
 40
1
 40
1
 40
1
 10
30.052088
 20
-24.809401
 30
0.0
 10
30.052088
 20
-25.791408
 30
0.0
 10
29.661987
 20
-26.733194
 30
0.0
 10
28.967605
 20
-27.427577
 30
0.0
  0
SPLINE
  5
111
100
AcDbEntity
  8
0
 62
1
100
AcDbSpline
 70
8
 71
3
 72
8
 73
4
 74
0
 40
0
 40
0
 40
0
 40
0
 40
1
 40
1
 40
1
 40
1
 10
28.967605
 20
-27.427577
 30
0.0
 10
28.273221
 20
-28.121960
 30
0.0
 10
27.331436
 20
-28.512061
 30
0.0
 10
26.349429
 20
-28.512061
 30
0.0
  0
SPLINE
  5
112
100
AcDbEntity
  8
0
 62
1
100
AcDbSpline
 70
8
 71
3
 72
8
 73
4
 74
0
 40
0
 40
0
 40
0
 40
0
 40
1
 40
1
 40
1
 40
1
 10
26.349429
 20
-28.512061
 30
0.0
 10
26.103927
 20
-28.512061
 30
0.0
 10
25.860940
 20
-28.487680
 30
0.0
 10
25.623703
 20
-28.440258
 30
0.0
  0
SPLINE
  5
113
100
AcDbEntity
  8
0
 62
1
100
AcDbSpline
 70
8
 71
3
 72
8
 73
4
 74
0
 40
0
 40
0
 40
0
 40
0
 40
1
 40
1
 40
1
 40
1
 10
25.623703
 20
-28.440258
 30
0.0
 10
25.386466
 20
-28.392837
 30
0.0
 10
25.154980
 20
-28.322374
 30
0.0
 10
24.932483
 20
-28.230213
 30
0.0
  0
SPLINE
  5
114
100
AcDbEntity
  8
0
 62
1
100
AcDbSpline
 70
8
 71
3
 72
8
 73
4
 74
0
 40
0
 40
0
 40
0
 40
0
 40
1
 40
1
 40
1
 40
1
 10
24.932483
 20
-28.230213
 30
0.0
 10
24.980287
 20
-28.192596
 30
0.0
 10
24.520365
 20
-28.444173
 30
0.0
 10
24.925434
 20
-28.967323
 30
0.0
  0
SPLINE
  5
115
100
AcDbEntity
  8
0
 62
1
100
AcDbSpline
 70
8
 71
3
 72
8
 73
4
 74
0
 40
0
 40
0
 40
0
 40
0
 40
1
 40
1
 40
1
 40
1
 10
24.925434
 20
-28.967323
 30
0.0
 10
25.143566
 20
-29.233547
 30
0.0
 10
25.347777
 20
-29.509561
 30
0.0
 10
25.537592
 20
-29.794219
 30
0.0
  0
SPLINE
  5
116
100
AcDbEntity
  8
0
 62
1
100
AcDbSpline
 70
8
 71
3
 72
8
 73
4
 74
0
 40
0
 40
0
 40
0
 40
0
 40
1
 40
1
 40
1
 40
1
 10
25.537592
 20
-29.794219
 30
0.0
 10
25.917222
 20
-30.363537
 30
0.0
 10
26.239270
 20
-30.967432
 30
0.0
 10
26.499942
 20
-31.596750
 30
0.0
  0
SPLINE
  5
117
100
AcDbEntity
  8
0
 62
1
100
AcDbSpline
 70
8
 71
3
 72
8
 73
4
 74
0
 40
0
 40
0
 40
0
 40
0
 40
1
 40
1
 40
1
 40
1
 10
26.499942
 20
-31.596750
 30
0.0
 10
27.021286
 20
-32.855386
 30
0.0
 10
27.297128
 20
-34.215714
 30
0.0
 10
27.297128
 20
-35.604479
 30
0.0
  0
SPLINE
  5
118
100
AcDbEntity
  8
0
 62
1
100
AcDbSpline
 70
8
 71
3
 72
8
 73
4
 74
0
 40
0
 40
0
 40
0
 40
0
 40
1
 40
1
 40
1
 40
1
 10
27.297128
 20
-35.604479
 30
0.0
 10
27.297128
 20
-38.382012
 30
0.0
 10
26.193758
 20
-41.045784
 30
0.0
 10
24.229746
 20
-43.009796
 30
0.0
  0
SPLINE
  5
119
100
AcDbEntity
  8
0
 62
1
100
AcDbSpline
 70
8
 71
3
 72
8
 73
4
 74
0
 40
0
 40
0
 40
0
 40
0
 40
1
 40
1
 40
1
 40
1
 10
24.229746
 20
-43.009796
 30
0.0
 10
23.984244
 20
-43.255297
 30
0.0
 10
23.727809
 20
-43.487351
 30
0.0
 10
23.461585
 20
-43.705484
 30
0.0
  0
SPLINE
  5
11a
100
AcDbEntity
  8
0
 62
1
100
AcDbSpline
 70
8
 71
3
 72
8
 73
4
 74
0
 40
0
 40
0
 40
0
 40
0
 40
1
 40
1
 40
1
 40
1
 10
23.461585
 20
-43.705484
 30
0.0
 10
23.195360
 20
-43.923616
 30
0.0
 10
22.919346
 20
-44.127827
 30
0.0
 10
22.634688
 20
-44.317642
 30
0.0
  0
SPLINE
  5
11b
100
AcDbEntity
  8
0
 62
1
100
AcDbSpline
 70
8
 71
3
 72
8
 73
4
 74
0
 40
0
 40
0
 40
0
 40
0
 40
1
 40
1
 40
1
 40
1
 10
22.634688
 20
-44.317642
 30
0.0
 10
22.691668
 20
-44.487260
 30
0.0
 10
22.808885
 20
-44.608690
 30
0.0
 10
23.181810
 20
-44.525553
 30
0.0
  0
SPLINE
  5
11c
100
AcDbEntity
  8
0
 62
1
100
AcDbSpline
 70
8
 71
3
 72
8
 73
4
 74
0
 40
0
 40
0
 40
0
 40
0
 40
1
 40
1
 40
1
 40
1
 10
23.181810
 20
-44.525553
 30
0.0
 10
23.389476
 20
-44.504936
 30
0.0
 10
23.598913
 20
-44.494481
 30
0.0
 10
23.809429
 20
-44.494481
 30
0.0
  0
SPLINE
  5
11d
100
AcDbEntity
  8
0
 62
1
100
AcDbSpline
 70
8
 71
3
 72
8
 73
4
 74
0
 40
0
 40
0
 40
0
 40
0
 40
1
 40
1
 40
1
 40
1
 10
23.809429
 20
-44.494481
 30
0.0
 10
25.493554
 20
-44.494481
 30
0.0
 10
27.108701
 20
-45.163497
 30
0.0
 10
28.299557
 20
-46.354353
 30
0.0
  0
SPLINE
  5
11e
100
AcDbEntity
  8
0
 62
1
100
AcDbSpline
 70
8
 71
3
 72
8
 73
4
 74
0
 40
0
 40
0
 40
0
 40
0
 40
1
 40
1
 40
1
 40
1
 10
28.299557
 20
-46.354353
 30
0.0
 10
29.490413
 20
-47.545209
 30
0.0
 10
30.159429
 20
-49.160357
 30
0.0
 10
30.159429
 20
-50.844481
 30
0.0
  0
SPLINE
  5
11f
100
AcDbEntity
  8
0
 62
1
100
AcDbSpline
 70
8
 71
3
 72
8
 73
4
 74
0
 40
0
 40
0
 40
0
 40
0
 40
1
 40
1
 40
1
 40
1
 10
30.159429
 20
-50.844481
 30
0.0
 10
30.159429
 20
-52.528606
 30
0.0
 10
29.490413
 20
-54.143754
 30
0.0
 10
28.299557
 20
-55.334610
 30
0.0
  0
SPLINE
  5
120
100
AcDbEntity
  8
0
 62
1
100
AcDbSpline
 70
8
 71
3
 72
8
 73
4
 74
0
 40
0
 40
0
 40
0
 40
0
 40
1
 40
1
 40
1
 40
1
 10
28.299557
 20
-55.334610
 30
0.0
 10
27.108701
 20
-56.525466
 30
0.0
 10
25.493554
 20
-57.194481
 30
0.0
 10
23.809429
 20
-57.194481
 30
0.0
  0
SPLINE
  5
121
100
AcDbEntity
  8
0
 62
1
100
AcDbSpline
 70
8
 71
3
 72
8
 73
4
 74
0
 40
0
 40
0
 40
0
 40
0
 40
1
 40
1
 40
1
 40
1
 10
23.809429
 20
-57.194481
 30
0.0
 10
22.125304
 20
-57.194481
 30
0.0
 10
20.510157
 20
-56.525466
 30
0.0
 10
19.319301
 20
-55.334610
 30
0.0
  0
SPLINE
  5
122
100
AcDbEntity
  8
0
 62
1
100
AcDbSpline
 70
8
 71
3
 72
8
 73
4
 74
0
 40
0
 40
0
 40
0
 40
0
 40
1
 40
1
 40
1
 40
1
 10
19.319301
 20
-55.334610
 30
0.0
 10
18.128445
 20
-54.143754
 30
0.0
 10
17.459429
 20
-52.528606
 30
0.0
 10
17.459429
 20
-50.844481
 30
0.0
  0
SPLINE
  5
123
100
AcDbEntity
  8
0
 62
1
100
AcDbSpline
 70
8
 71
3
 72
8
 73
4
 74
0
 40
0
 40
0
 40
0
 40
0
 40
1
 40
1
 40
1
 40
1
 10
17.459429
 20
-50.844481
 30
0.0
 10
17.459429
 20
-49.160357
 30
0.0
 10
18.128445
 20
-47.545209
 30
0.0
 10
19.319301
 20
-46.354353
 30
0.0
  0
SPLINE
  5
124
100
AcDbEntity
  8
0
 62
1
100
AcDbSpline
 70
8
 71
3
 72
8
 73
4
 74
0
 40
0
 40
0
 40
0
 40
0
 40
1
 40
1
 40
1
 40
1
 10
19.319301
 20
-46.354353
 30
0.0
 10
19.468158
 20
-46.205497
 30
0.0
 10
19.623645
 20
-46.064793
 30
0.0
 10
19.785067
 20
-45.932530
 30
0.0
  0
SPLINE
  5
125
100
AcDbEntity
  8
0
 62
1
100
AcDbSpline
 70
8
 71
3
 72
8
 73
4
 74
0
 40
0
 40
0
 40
0
 40
0
 40
1
 40
1
 40
1
 40
1
 10
19.785067
 20
-45.932530
 30
0.0
 10
19.713118
 20
-45.866318
 30
0.0
 10
19.855585
 20
-45.769475
 30
0.0
 10
19.377154
 20
-45.761332
 30
0.0
  0
SPLINE
  5
126
100
AcDbEntity
  8
0
 62
1
100
AcDbSpline
 70
8
 71
3
 72
8
 73
4
 74
0
 40
0
 40
0
 40
0
 40
0
 40
1
 40
1
 40
1
 40
1
 10
19.377154
 20
-45.761332
 30
0.0
 10
19.211579
 20
-45.802952
 30
0.0
 10
19.044844
 20
-45.840557
 30
0.0
 10
18.877092
 20
-45.874090
 30
0.0
  0
SPLINE
  5
127
100
AcDbEntity
  8
0
 62
1
100
AcDbSpline
 70
8
 71
3
 72
8
 73
4
 74
0
 40
0
 40
0
 40
0
 40
0
 40
1
 40
1
 40
1
 40
1
 10
18.877092
 20
-45.874090
 30
0.0
 10
18.541589
 20
-45.941156
 30
0.0
 10
18.202019
 20
-45.991926
 30
0.0
 10
17.859527
 20
-46.025931
 30
0.0
  0
SPLINE
  5
128
100
AcDbEntity
  8
0
 62
1
100
AcDbSpline
 70
8
 71
3
 72
8
 73
4
 74
0
 40
0
 40
0
 40
0
 40
0
 40
1
 40
1
 40
1
 40
1
 10
17.859527
 20
-46.025931
 30
0.0
 10
17.517035
 20
-46.059939
 30
0.0
 10
17.171621
 20
-46.077178
 30
0.0
 10
16.824429
 20
-46.077178
 30
0.0
  0
SPLINE
  5
129
100
AcDbEntity
  8
0
 62
1
100
AcDbSpline
 70
8
 71
3
 72
8
 73
4
 74
0
 40
0
 40
0
 40
0
 40
0
 40
1
 40
1
 40
1
 40
1
 10
16.824429
 20
-46.077178
 30
0.0
 10
16.477238
 20
-46.077178
 30
0.0
 10
16.131823
 20
-46.059939
 30
0.0
 10
15.789331
 20
-46.025931
 30
0.0
  0
SPLINE
  5
12a
100
AcDbEntity
  8
0
 62
1
100
AcDbSpline
 70
8
 71
3
 72
8
 73
4
 74
0
 40
0
 40
0
 40
0
 40
0
 40
1
 40
1
 40
1
 40
1
 10
15.789331
 20
-46.025931
 30
0.0
 10
15.446839
 20
-45.991926
 30
0.0
 10
15.107270
 20
-45.941154
 30
0.0
 10
14.771766
 20
-45.874090
 30
0.0
  0
SPLINE
  5
12b
100
AcDbEntity
  8
0
 62
1
100
AcDbSpline
 70
8
 71
3
 72
8
 73
4
 74
0
 40
0
 40
0
 40
0
 40
0
 40
1
 40
1
 40
1
 40
1
 10
14.771766
 20
-45.874090
 30
0.0
 10
14.436263
 20
-45.807024
 30
0.0
 10
14.104826
 20
-45.723669
 30
0.0
 10
13.778600
 20
-45.624494
 30
0.0
  0
SPLINE
  5
12c
100
AcDbEntity
  8
0
 62
1
100
AcDbSpline
 70
8
 71
3
 72
8
 73
4
 74
0
 40
0
 40
0
 40
0
 40
0
 40
1
 40
1
 40
1
 40
1
 10
13.778600
 20
-45.624494
 30
0.0
 10
13.452374
 20
-45.525320
 30
0.0
 10
13.131360
 20
-45.410327
 30
0.0
 10
12.816701
 20
-45.279992
 30
0.0
  0
SPLINE
  5
12d
100
AcDbEntity
  8
0
 62
1
100
AcDbSpline
 70
8
 71
3
 72
8
 73
4
 74
0
 40
0
 40
0
 40
0
 40
0
 40
1
 40
1
 40
1
 40
1
 10
12.816701
 20
-45.279992
 30
0.0
 10
12.223939
 20
-45.071379
 30
0.0
 10
12.176927
 20
-45.272077
 30
0.0
 10
12.076326
 20
-45.432585
 30
0.0
  0
SPLINE
  5
12e
100
AcDbEntity
  8
0
 62
1
100
AcDbSpline
 70
8
 71
3
 72
8
 73
4
 74
0
 40
0
 40
0
 40
0
 40
0
 40
1
 40
1
 40
1
 40
1
 10
12.076326
 20
-45.432585
 30
0.0
 10
12.308848
 20
-45.665107
 30
0.0
 10
12.515897
 20
-45.918339
 30
0.0
 10
12.695676
 20
-46.187948
 30
0.0
  0
SPLINE
  5
12f
100
AcDbEntity
  8
0
 62
1
100
AcDbSpline
 70
8
 71
3
 72
8
 73
4
 74
0
 40
0
 40
0
 40
0
 40
0
 40
1
 40
1
 40
1
 40
1
 10
12.695676
 20
-46.187948
 30
0.0
 10
12.875456
 20
-46.457556
 30
0.0
 10
13.027966
 20
-46.743540
 30
0.0
 10
13.151411
 20
-47.041563
 30
0.0
  0
SPLINE
  5
130
100
AcDbEntity
  8
0
 62
1
100
AcDbSpline
 70
8
 71
3
 72
8
 73
4
 74
0
 40
0
 40
0
 40
0
 40
0
 40
1
 40
1
 40
1
 40
1
 10
13.151411
 20
-47.041563
 30
0.0
 10
13.274856
 20
-47.339586
 30
0.0
 10
13.369236
 20
-47.649647
 30
0.0
 10
13.432755
 20
-47.967413
 30
0.0
  0
SPLINE
  5
131
100
AcDbEntity
  8
0
 62
1
100
AcDbSpline
 70
8
 71
3
 72
8
 73
4
 74
0
 40
0
 40
0
 40
0
 40
0
 40
1
 40
1
 40
1
 40
1
 10
13.432755
 20
-47.967413
 30
0.0
 10
13.496274
 20
-48.285177
 30
0.0
 10
13.528931
 20
-48.610645
 30
0.0
 10
13.528931
 20
-48.939481
 30
0.0
  0
SPLINE
  5
132
100
AcDbEntity
  8
0
 62
1
100
AcDbSpline
 70
8
 71
3
 72
8
 73
4
 74
0
 40
0
 40
0
 40
0
 40
0
 40
1
 40
1
 40
1
 40
1
 10
13.528931
 20
-48.939481
 30
0.0
 10
13.528931
 20
-50.254823
 30
0.0
 10
13.006413
 20
-51.516291
 30
0.0
 10
12.076326
 20
-52.446378
 30
0.0
  0
SPLINE
  5
133
100
AcDbEntity
  8
0
 62
1
100
AcDbSpline
 70
8
 71
3
 72
8
 73
4
 74
0
 40
0
 40
0
 40
0
 40
0
 40
1
 40
1
 40
1
 40
1
 10
12.076326
 20
-52.446378
 30
0.0
 10
11.146239
 20
-53.376465
 30
0.0
 10
9.884770
 20
-53.898984
 30
0.0
 10
8.569429
 20
-53.898984
 30
0.0
  0
SPLINE
  5
134
100
AcDbEntity
  8
0
 62
1
100
AcDbSpline
 70
8
 71
3
 72
8
 73
4
 74
0
 40
0
 40
0
 40
0
 40
0
 40
1
 40
1
 40
1
 40
1
 10
8.569429
 20
-53.898984
 30
0.0
 10
7.254087
 20
-53.898984
 30
0.0
 10
5.992618
 20
-53.376465
 30
0.0
 10
5.062531
 20
-52.446378
 30
0.0
  0
SPLINE
  5
135
100
AcDbEntity
  8
0
 62
1
100
AcDbSpline
 70
8
 71
3
 72
8
 73
4
 74
0
 40
0
 40
0
 40
0
 40
0
 40
1
 40
1
 40
1
 40
1
 10
5.062531
 20
-52.446378
 30
0.0
 10
4.132444
 20
-51.516291
 30
0.0
 10
3.609926
 20
-50.254823
 30
0.0
 10
3.609926
 20
-48.939481
 30
0.0
  0
SPLINE
  5
136
100
AcDbEntity
  8
0
 62
1
100
AcDbSpline
 70
8
 71
3
 72
8
 73
4
 74
0
 40
0
 40
0
 40
0
 40
0
 40
1
 40
1
 40
1
 40
1
 10
3.609926
 20
-48.939481
 30
0.0
 10
3.609926
 20
-47.624140
 30
0.0
 10
4.132444
 20
-46.362672
 30
0.0
 10
5.062531
 20
-45.432585
 30
0.0
  0
SPLINE
  5
137
100
AcDbEntity
  8
0
 62
1
100
AcDbSpline
 70
8
 71
3
 72
8
 73
4
 74
0
 40
0
 40
0
 40
0
 40
0
 40
1
 40
1
 40
1
 40
1
 10
5.062531
 20
-45.432585
 30
0.0
 10
5.992618
 20
-44.502498
 30
0.0
 10
7.254087
 20
-43.979979
 30
0.0
 10
8.569429
 20
-43.979979
 30
0.0
  0
SPLINE
  5
138
100
AcDbEntity
  8
0
 62
1
100
AcDbSpline
 70
8
 71
3
 72
8
 73
4
 74
0
 40
0
 40
0
 40
0
 40
0
 40
1
 40
1
 40
1
 40
1
 10
8.569429
 20
-43.979979
 30
0.0
 10
8.898264
 20
-43.979979
 30
0.0
 10
9.223732
 20
-44.012636
 30
0.0
 10
9.541498
 20
-44.076156
 30
0.0
  0
SPLINE
  5
139
100
AcDbEntity
  8
0
 62
1
100
AcDbSpline
 70
8
 71
3
 72
8
 73
4
 74
0
 40
0
 40
0
 40
0
 40
0
 40
1
 40
1
 40
1
 40
1
 10
9.541498
 20
-44.076156
 30
0.0
 10
10.050534
 20
-44.181091
 30
0.0
 10
10.252100
 20
-44.046885
 30
0.0
 10
10.187274
 20
-43.705484
 30
0.0
  0
SPLINE
  5
13a
100
AcDbEntity
  8
0
 62
1
100
AcDbSpline
 70
8
 71
3
 72
8
 73
4
 74
0
 40
0
 40
0
 40
0
 40
0
 40
1
 40
1
 40
1
 40
1
 10
10.187274
 20
-43.705484
 30
0.0
 10
9.921049
 20
-43.487351
 30
0.0
 10
9.664614
 20
-43.255297
 30
0.0
 10
9.419112
 20
-43.009796
 30
0.0
  0
SPLINE
  5
13b
100
AcDbEntity
  8
0
 62
1
100
AcDbSpline
 70
8
 71
3
 72
8
 73
4
 74
0
 40
0
 40
0
 40
0
 40
0
 40
1
 40
1
 40
1
 40
1
 10
9.419112
 20
-43.009796
 30
0.0
 10
7.455100
 20
-41.045784
 30
0.0
 10
6.351730
 20
-38.382012
 30
0.0
 10
6.351730
 20
-35.604479
 30
0.0
  0
SPLINE
  5
13c
100
AcDbEntity
  8
0
 62
1
100
AcDbSpline
 70
8
 71
3
 72
8
 73
4
 74
0
 40
0
 40
0
 40
0
 40
0
 40
1
 40
1
 40
1
 40
1
 10
6.351730
 20
-35.604479
 30
0.0
 10
6.351730
 20
-35.257286
 30
0.0
 10
6.368970
 20
-34.911874
 30
0.0
 10
6.402976
 20
-34.569381
 30
0.0
  0
SPLINE
  5
13d
100
AcDbEntity
  8
0
 62
1
100
AcDbSpline
 70
8
 71
3
 72
8
 73
4
 74
0
 40
0
 40
0
 40
0
 40
0
 40
1
 40
1
 40
1
 40
1
 10
6.402976
 20
-34.569381
 30
0.0
 10
6.436983
 20
-34.226890
 30
0.0
 10
6.487755
 20
-33.887320
 30
0.0
 10
6.554819
 20
-33.551816
 30
0.0
  0
SPLINE
  5
13e
100
AcDbEntity
  8
0
 62
1
100
AcDbSpline
 70
8
 71
3
 72
8
 73
4
 74
0
 40
0
 40
0
 40
0
 40
0
 40
1
 40
1
 40
1
 40
1
 10
6.554819
 20
-33.551816
 30
0.0
 10
6.621884
 20
-33.216313
 30
0.0
 10
6.705240
 20
-32.884876
 30
0.0
 10
6.804414
 20
-32.558651
 30
0.0
  0
SPLINE
  5
13f
100
AcDbEntity
  8
0
 62
1
100
AcDbSpline
 70
8
 71
3
 72
8
 73
4
 74
0
 40
0
 40
0
 40
0
 40
0
 40
1
 40
1
 40
1
 40
1
 10
6.804414
 20
-32.558651
 30
0.0
 10
6.903588
 20
-32.232423
 30
0.0
 10
7.018581
 20
-31.911408
 30
0.0
 10
7.148917
 20
-31.596750
 30
0.0
  0
SPLINE
  5
140
100
AcDbEntity
  8
0
 62
1
100
AcDbSpline
 70
8
 71
3
 72
8
 73
4
 74
0
 40
0
 40
0
 40
0
 40
0
 40
1
 40
1
 40
1
 40
1
 10
7.148917
 20
-31.596750
 30
0.0
 10
7.279253
 20
-31.282090
 30
0.0
 10
7.424933
 20
-30.973787
 30
0.0
 10
7.585482
 20
-30.672985
 30
0.0
  0
SPLINE
  5
141
100
AcDbEntity
  8
0
 62
1
100
AcDbSpline
 70
8
 71
3
 72
8
 73
4
 74
0
 40
0
 40
0
 40
0
 40
0
 40
1
 40
1
 40
1
 40
1
 10
7.585482
 20
-30.672985
 30
0.0
 10
7.746032
 20
-30.372181
 30
0.0
 10
7.921451
 20
-30.078879
 30
0.0
 10
8.111266
 20
-29.794219
 30
0.0
  0
SPLINE
  5
142
100
AcDbEntity
  8
0
 62
1
100
AcDbSpline
 70
8
 71
3
 72
8
 73
4
 74
0
 40
0
 40
0
 40
0
 40
0
 40
1
 40
1
 40
1
 40
1
 10
8.111266
 20
-29.794219
 30
0.0
 10
8.301081
 20
-29.509561
 30
0.0
 10
8.505292
 20
-29.233547
 30
0.0
 10
8.723425
 20
-28.967323
 30
0.0
  0
SPLINE
  5
143
100
AcDbEntity
  8
0
 62
1
100
AcDbSpline
 70
8
 71
3
 72
8
 73
4
 74
0
 40
0
 40
0
 40
0
 40
0
 40
1
 40
1
 40
1
 40
1
 10
8.723425
 20
-28.967323
 30
0.0
 10
8.970781
 20
-28.633488
 30
0.0
 10
9.217307
 20
-28.299946
 30
0.0
 10
8.716375
 20
-28.230213
 30
0.0
  0
SPLINE
  5
144
100
AcDbEntity
  8
0
 62
1
100
AcDbSpline
 70
8
 71
3
 72
8
 73
4
 74
0
 40
0
 40
0
 40
0
 40
0
 40
1
 40
1
 40
1
 40
1
 10
8.716375
 20
-28.230213
 30
0.0
 10
8.271380
 20
-28.414536
 30
0.0
 10
7.790432
 20
-28.512061
 30
0.0
 10
7.299429
 20
-28.512061
 30
0.0
  0
SPLINE
  5
145
100
AcDbEntity
  8
0
 62
1
100
AcDbSpline
 70
8
 71
3
 72
8
 73
4
 74
0
 40
0
 40
0
 40
0
 40
0
 40
1
 40
1
 40
1
 40
1
 10
7.299429
 20
-28.512061
 30
0.0
 10
6.317422
 20
-28.512061
 30
0.0
 10
5.375636
 20
-28.121961
 30
0.0
 10
4.681253
 20
-27.427577
 30
0.0
  0
SPLINE
  5
146
100
AcDbEntity
  8
0
 62
1
100
AcDbSpline
 70
8
 71
3
 72
8
 73
4
 74
0
 40
0
 40
0
 40
0
 40
0
 40
1
 40
1
 40
1
 40
1
 10
4.681253
 20
-27.427577
 30
0.0
 10
3.986869
 20
-26.733194
 30
0.0
 10
3.596769
 20
-25.791408
 30
0.0
 10
3.596769
 20
-24.809401
 30
0.0
  0
SPLINE
  5
147
100
AcDbEntity
  8
0
 62
1
100
AcDbSpline
 70
8
 71
3
 72
8
 73
4
 74
0
 40
0
 40
0
 40
0
 40
0
 40
1
 40
1
 40
1
 40
1
 10
3.596769
 20
-24.809401
 30
0.0
 10
3.596769
 20
-23.827395
 30
0.0
 10
3.986869
 20
-22.885609
 30
0.0
 10
4.681253
 20
-22.191226
 30
0.0
  0
SPLINE
  5
148
100
AcDbEntity
  8
0
 62
1
100
AcDbSpline
 70
8
 71
3
 72
8
 73
4
 74
0
 40
0
 40
0
 40
0
 40
0
 40
1
 40
1
 40
1
 40
1
 10
4.681253
 20
-22.191226
 30
0.0
 10
4.854849
 20
-22.017630
 30
0.0
 10
5.043907
 20
-21.863052
 30
0.0
 10
5.245191
 20
-21.728832
 30
0.0
  0
SPLINE
  5
149
100
AcDbEntity
  8
0
 62
1
100
AcDbSpline
 70
8
 71
3
 72
8
 73
4
 74
0
 40
0
 40
0
 40
0
 40
0
 40
1
 40
1
 40
1
 40
1
 10
5.245191
 20
-21.728832
 30
0.0
 10
5.446475
 20
-21.594613
 30
0.0
 10
5.659985
 20
-21.480752
 30
0.0
 10
5.882482
 20
-21.388590
 30
0.0
  0
SPLINE
  5
14a
100
AcDbEntity
  8
0
 62
1
100
AcDbSpline
 70
8
 71
3
 72
8
 73
4
 74
0
 40
0
 40
0
 40
0
 40
0
 40
1
 40
1
 40
1
 40
1
 10
5.882482
 20
-21.388590
 30
0.0
 10
6.347789
 20
-21.155918
 30
0.0
 10
6.192467
 20
-21.047372
 30
0.0
 10
6.042126
 20
-20.937830
 30
0.0
  0
SPLINE
  5
14b
100
AcDbEntity
  8
0
 62
1
100
AcDbSpline
 70
8
 71
3
 72
8
 73
4
 74
0
 40
0
 40
0
 40
0
 40
0
 40
1
 40
1
 40
1
 40
1
 10
6.042126
 20
-20.937830
 30
0.0
 10
5.838698
 20
-20.897166
 30
0.0
 10
5.640202
 20
-20.836745
 30
0.0
 10
5.449413
 20
-20.757717
 30
0.0
  0
SPLINE
  5
14c
100
AcDbEntity
  8
0
 62
1
100
AcDbSpline
 70
8
 71
3
 72
8
 73
4
 74
0
 40
0
 40
0
 40
0
 40
0
 40
1
 40
1
 40
1
 40
1
 10
5.449413
 20
-20.757717
 30
0.0
 10
5.258623
 20
-20.678688
 30
0.0
 10
5.075542
 20
-20.581053
 30
0.0
 10
4.902943
 20
-20.465961
 30
0.0
  0
SPLINE
  5
14d
100
AcDbEntity
  8
0
 62
1
100
AcDbSpline
 70
8
 71
3
 72
8
 73
4
 74
0
 40
0
 40
0
 40
0
 40
0
 40
1
 40
1
 40
1
 40
1
 10
4.902943
 20
-20.465961
 30
0.0
 10
4.730345
 20
-20.350869
 30
0.0
 10
4.568229
 20
-20.218319
 30
0.0
 10
4.419373
 20
-20.069462
 30
0.0
  0
SPLINE
  5
14e
100
AcDbEntity
  8
0
 62
1
100
AcDbSpline
 70
8
 71
3
 72
8
 73
4
 74
0
 40
0
 40
0
 40
0
 40
0
 40
1
 40
1
 40
1
 40
1
 10
4.419373
 20
-20.069462
 30
0.0
 10
3.823948
 20
-19.474035
 30
0.0
 10
3.489441
 20
-18.666463
 30
0.0
 10
3.489441
 20
-17.824403
 30
0.0
  0
SPLINE
  5
14f
100
AcDbEntity
  8
0
 62
1
100
AcDbSpline
 70
8
 71
3
 72
8
 73
4
 74
0
 40
0
 40
0
 40
0
 40
0
 40
1
 40
1
 40
1
 40
1
 10
11.014170
 20
-26.891316
 30
0.0
 10
11.298829
 20
-26.701501
 30
0.0
 10
11.592132
 20
-26.526081
 30
0.0
 10
11.892935
 20
-26.365532
 30
0.0
  0
SPLINE
  5
150
100
AcDbEntity
  8
0
 62
1
100
AcDbSpline
 70
8
 71
3
 72
8
 73
4
 74
0
 40
0
 40
0
 40
0
 40
0
 40
1
 40
1
 40
1
 40
1
 10
11.892935
 20
-26.365532
 30
0.0
 10
12.193738
 20
-26.204982
 30
0.0
 10
12.502042
 20
-26.059302
 30
0.0
 10
12.816701
 20
-25.928966
 30
0.0
  0
SPLINE
  5
151
100
AcDbEntity
  8
0
 62
1
100
AcDbSpline
 70
8
 71
3
 72
8
 73
4
 74
0
 40
0
 40
0
 40
0
 40
0
 40
1
 40
1
 40
1
 40
1
 10
12.816701
 20
-25.928966
 30
0.0
 10
14.075337
 20
-25.407622
 30
0.0
 10
15.435663
 20
-25.131779
 30
0.0
 10
16.824429
 20
-25.131779
 30
0.0
  0
SPLINE
  5
152
100
AcDbEntity
  8
0
 62
1
100
AcDbSpline
 70
8
 71
3
 72
8
 73
4
 74
0
 40
0
 40
0
 40
0
 40
0
 40
1
 40
1
 40
1
 40
1
 10
16.824429
 20
-25.131779
 30
0.0
 10
18.213195
 20
-25.131779
 30
0.0
 10
19.573522
 20
-25.407622
 30
0.0
 10
20.832158
 20
-25.928966
 30
0.0
  0
SPLINE
  5
153
100
AcDbEntity
  8
0
 62
1
100
AcDbSpline
 70
8
 71
3
 72
8
 73
4
 74
0
 40
0
 40
0
 40
0
 40
0
 40
1
 40
1
 40
1
 40
1
 10
20.832158
 20
-25.928966
 30
0.0
 10
21.461476
 20
-26.189638
 30
0.0
 10
21.732189
 20
-26.303447
 30
0.0
 10
22.301505
 20
-26.683077
 30
0.0
  0
SPLINE
  5
154
100
AcDbEntity
  8
0
 62
1
100
AcDbSpline
 70
8
 71
3
 72
8
 73
4
 74
0
 40
0
 40
0
 40
0
 40
0
 40
1
 40
1
 40
1
 40
1
 10
22.301505
 20
-26.683077
 30
0.0
 10
22.852021
 20
-27.097757
 30
0.0
 10
22.790810
 20
-26.747780
 30
0.0
 10
22.935677
 20
-26.655400
 30
0.0
  0
SPLINE
  5
155
100
AcDbEntity
  8
0
 62
1
100
AcDbSpline
 70
8
 71
3
 72
8
 73
4
 74
0
 40
0
 40
0
 40
0
 40
0
 40
1
 40
1
 40
1
 40
1
 10
22.935677
 20
-26.655400
 30
0.0
 10
22.905693
 20
-26.584410
 30
0.0
 10
23.029771
 20
-26.460085
 30
0.0
 10
22.928618
 20
-26.226348
 30
0.0
  0
SPLINE
  5
156
100
AcDbEntity
  8
0
 62
1
100
AcDbSpline
 70
8
 71
3
 72
8
 73
4
 74
0
 40
0
 40
0
 40
0
 40
0
 40
1
 40
1
 40
1
 40
1
 10
22.928618
 20
-26.226348
 30
0.0
 10
22.737319
 20
-25.784307
 30
0.0
 10
22.646770
 20
-25.300405
 30
0.0
 10
22.646770
 20
-24.809401
 30
0.0
  0
SPLINE
  5
157
100
AcDbEntity
  8
0
 62
1
100
AcDbSpline
 70
8
 71
3
 72
8
 73
4
 74
0
 40
0
 40
0
 40
0
 40
0
 40
1
 40
1
 40
1
 40
1
 10
22.646770
 20
-24.809401
 30
0.0
 10
22.646770
 20
-23.827395
 30
0.0
 10
23.036870
 20
-22.885609
 30
0.0
 10
23.731254
 20
-22.191226
 30
0.0
  0
SPLINE
  5
158
100
AcDbEntity
  8
0
 62
1
100
AcDbSpline
 70
8
 71
3
 72
8
 73
4
 74
0
 40
0
 40
0
 40
0
 40
0
 40
1
 40
1
 40
1
 40
1
 10
23.731254
 20
-22.191226
 30
0.0
 10
24.078445
 20
-21.844034
 30
0.0
 10
24.487487
 20
-21.572913
 30
0.0
 10
24.932483
 20
-21.388590
 30
0.0
  0
SPLINE
  5
159
100
AcDbEntity
  8
0
 62
1
100
AcDbSpline
 70
8
 71
3
 72
8
 73
4
 74
0
 40
0
 40
0
 40
0
 40
0
 40
1
 40
1
 40
1
 40
1
 10
24.932483
 20
-21.388590
 30
0.0
 10
25.390583
 20
-20.880564
 30
0.0
 10
24.653315
 20
-21.060654
 30
0.0
 10
24.443921
 20
-20.998717
 30
0.0
  0
LWPOLYLINE
  5
15a
100
AcDbEntity
  8
0
 62
1
100
AcDbPolyline
 90
2
 70
0
 10
3.488921
 20
-17.823717
 30
0.0
 10
3.488921
 20
-10.203717
 30
0.0
  0
SPLINE
  5
15b
100
AcDbEntity
  8
0
 62
1
100
AcDbSpline
 70
8
 71
3
 72
8
 73
4
 74
0
 40
0
 40
0
 40
0
 40
0
 40
1
 40
1
 40
1
 40
1
 10
9.203921
 20
-20.998717
 30
0.0
 10
8.771434
 20
-21.047683
 30
0.0
 10
8.736758
 20
-21.215993
 30
0.0
 10
8.716375
 20
-21.388590
 30
0.0
  0
SPLINE
  5
15c
100
AcDbEntity
  8
0
 62
1
100
AcDbSpline
 70
8
 71
3
 72
8
 73
4
 74
0
 40
0
 40
0
 40
0
 40
0
 40
1
 40
1
 40
1
 40
1
 10
8.716375
 20
-21.388590
 30
0.0
 10
9.161370
 20
-21.572913
 30
0.0
 10
9.570412
 20
-21.844034
 30
0.0
 10
9.917604
 20
-22.191226
 30
0.0
  0
SPLINE
  5
15d
100
AcDbEntity
  8
0
 62
1
100
AcDbSpline
 70
8
 71
3
 72
8
 73
4
 74
0
 40
0
 40
0
 40
0
 40
0
 40
1
 40
1
 40
1
 40
1
 10
9.917604
 20
-22.191226
 30
0.0
 10
10.611987
 20
-22.885609
 30
0.0
 10
11.002088
 20
-23.827395
 30
0.0
 10
11.002088
 20
-24.809401
 30
0.0
  0
SPLINE
  5
15e
100
AcDbEntity
  8
0
 62
1
100
AcDbSpline
 70
8
 71
3
 72
8
 73
4
 74
0
 40
0
 40
0
 40
0
 40
0
 40
1
 40
1
 40
1
 40
1
 10
11.002088
 20
-24.809401
 30
0.0
 10
11.002088
 20
-25.300405
 30
0.0
 10
10.904563
 20
-25.781353
 30
0.0
 10
10.720240
 20
-26.226348
 30
0.0
  0
SPLINE
  5
15f
100
AcDbEntity
  8
0
 62
1
100
AcDbSpline
 70
8
 71
3
 72
8
 73
4
 74
0
 40
0
 40
0
 40
0
 40
0
 40
1
 40
1
 40
1
 40
1
 10
10.720240
 20
-26.226348
 30
0.0
 10
10.584824
 20
-26.751415
 30
0.0
 10
10.698782
 20
-26.952295
 30
0.0
 10
11.014170
 20
-26.891316
 30
0.0
  0
LWPOLYLINE
  5
160
100
AcDbEntity
  8
0
 62
1
100
AcDbPolyline
 90
5
 70
0
 10
24.443921
 20
-20.998717
 30
0.0
 10
21.903921
 20
-20.998717
 30
0.0
 10
16.823921
 20
-20.998717
 30
0.0
 10
11.743921
 20
-20.998717
 30
0.0
 10
9.203921
 20
-20.998717
 30
0.0
  0
LWPOLYLINE
  5
161
100
AcDbEntity
  8
0
 62
1
100
AcDbPolyline
 90
1
 70
1
 10
11.014170
 20
-26.891316
 30
0.0
  0
ENDSEC
  0
SECTION
  2
OBJECTS
  0
DICTIONARY
  5
C
330
0
100
AcDbDictionary
  3
ACAD_GROUP
350
D
  3
ACAD_MLINESTYLE
350
17
  0
DICTIONARY
  5
D
330
C
100
AcDbDictionary
  0
DICTIONARY
  5
1A
330
C
100
AcDbDictionary
  0
DICTIONARY
  5
17
330
C
100
AcDbDictionary
  3
STANDARD
350
18
  0
DICTIONARY
  5
19
330
C
100
AcDbDictionary
  0
ENDSEC
  0
EOF
