<?xml version="1.0" encoding="UTF-8" standalone="no"?>
<svg
   xmlns:dc="http://purl.org/dc/elements/1.1/"
   xmlns:cc="http://creativecommons.org/ns#"
   xmlns:rdf="http://www.w3.org/1999/02/22-rdf-syntax-ns#"
   xmlns:svg="http://www.w3.org/2000/svg"
   xmlns="http://www.w3.org/2000/svg"
   xmlns:sodipodi="http://sodipodi.sourceforge.net/DTD/sodipodi-0.dtd"
   xmlns:inkscape="http://www.inkscape.org/namespaces/inkscape"
   version="1.1"
   width="27.94cm"
   height="21.59cm"
   viewBox="0 0 110000 85000 "
   id="svg186"
   sodipodi:docname="base.sch.svg"
   inkscape:version="0.92.2 (5c3e80d, 2017-08-06)"
   inkscape:export-filename="C:\Users\Maker's Box\Documents\git\KiCad\projects\ICanSolder\images\base.sch.png"
   inkscape:export-xdpi="599.83936"
   inkscape:export-ydpi="599.83936">
  <metadata
     id="metadata192">
    <rdf:RDF>
      <cc:Work
         rdf:about="">
        <dc:format>image/svg+xml</dc:format>
        <dc:type
           rdf:resource="http://purl.org/dc/dcmitype/StillImage" />
      </cc:Work>
    </rdf:RDF>
  </metadata>
  <defs
     id="defs190">
    <marker
       inkscape:stockid="Arrow2Send"
       orient="auto"
       refY="0.0"
       refX="0.0"
       id="Arrow2Send"
       style="overflow:visible;"
       inkscape:isstock="true">
      <path
         id="path4723"
         style="fill-rule:evenodd;stroke-width:0.625;stroke-linejoin:round;stroke:#000000;stroke-opacity:1;fill:#000000;fill-opacity:1"
         d="M 8.7185878,4.0337352 L -2.2072895,0.016013256 L 8.7185884,-4.0017078 C 6.9730900,-1.6296469 6.9831476,1.6157441 8.7185878,4.0337352 z "
         transform="scale(0.3) rotate(180) translate(-2.3,0)" />
    </marker>
    <marker
       inkscape:stockid="Arrow2Lend"
       orient="auto"
       refY="0.0"
       refX="0.0"
       id="Arrow2Lend"
       style="overflow:visible;"
       inkscape:isstock="true">
      <path
         id="path4711"
         style="fill-rule:evenodd;stroke-width:0.625;stroke-linejoin:round;stroke:#000000;stroke-opacity:1;fill:#000000;fill-opacity:1"
         d="M 8.7185878,4.0337352 L -2.2072895,0.016013256 L 8.7185884,-4.0017078 C 6.9730900,-1.6296469 6.9831476,1.6157441 8.7185878,4.0337352 z "
         transform="scale(1.1) rotate(180) translate(1,0)" />
    </marker>
    <marker
       inkscape:stockid="Arrow2Send"
       orient="auto"
       refY="0"
       refX="0"
       id="Arrow2Send-5"
       style="overflow:visible"
       inkscape:isstock="true">
      <path
         inkscape:connector-curvature="0"
         id="path4723-0"
         style="fill:#000000;fill-opacity:1;fill-rule:evenodd;stroke:#000000;stroke-width:0.625;stroke-linejoin:round;stroke-opacity:1"
         d="M 8.7185878,4.0337352 -2.2072895,0.01601326 8.7185884,-4.0017078 c -1.7454984,2.3720609 -1.7354408,5.6174519 -6e-7,8.035443 z"
         transform="matrix(-0.3,0,0,-0.3,0.69,0)" />
    </marker>
  </defs>
  <sodipodi:namedview
     pagecolor="#ffffff"
     bordercolor="#666666"
     borderopacity="1"
     objecttolerance="10"
     gridtolerance="10"
     guidetolerance="10"
     inkscape:pageopacity="0"
     inkscape:pageshadow="2"
     inkscape:window-width="1404"
     inkscape:window-height="751"
     id="namedview188"
     showgrid="false"
     inkscape:zoom="6.1300268"
     inkscape:cx="321.12406"
     inkscape:cy="479.24001"
     inkscape:window-x="120"
     inkscape:window-y="79"
     inkscape:window-maximized="0"
     inkscape:current-layer="g104" />
  <title
     id="title2">SVG Picture created as base.sch.svg date 2018/02/11 18:31:37 </title>
  <desc
     id="desc4">Picture generated by Eeschema-SVG </desc>
  <g
     style="fill:#000000; fill-opacity:1;stroke:#000000; stroke-opacity:1; stroke-linecap:round; stroke-linejoin:round; "
     transform="translate(0 0) scale(1 1)"
     id="g6" />
  <g
     style="fill:#000000; fill-opacity:0.0;  stroke:#000000; stroke-width:0; stroke-opacity:1;  stroke-linecap:round; stroke-linejoin:round;"
     id="g8" />
  <g
     style="fill:#000000;fill-opacity:1;stroke:#000000;stroke-width:52.08333333;stroke-opacity:1;stroke-linecap:round;stroke-linejoin:round"
     id="g18">
    <rect
       x="31570"
       y="37600"
       width="100"
       height="1800"
       rx="0"
       id="rect10"
       style="stroke-width:52.08333333" />
    <rect
       x="31000"
       y="37600"
       width="100"
       height="1800"
       rx="0"
       id="rect12"
       style="stroke-width:52.08333333" />
    <rect
       x="31800"
       y="37920"
       width="200"
       height="1200"
       rx="0"
       id="rect14"
       style="stroke-width:52.08333333" />
    <rect
       x="31230"
       y="37920"
       width="200"
       height="1200"
       rx="0"
       id="rect16"
       style="stroke-width:52.08333333" />
  </g>
  <g
     style="fill:#000000;fill-opacity:0;stroke:#000000;stroke-width:104.16666667;stroke-opacity:1;stroke-linecap:round;stroke-linejoin:round"
     id="g24">
    <polyline
       fill="none;"
       points="30550,38300 30550,37900 "
       id="polyline20"
       style="stroke-width:104.16666667" />
    <polyline
       fill="none;"
       points="30350,38100 30750,38100 "
       id="polyline22"
       style="stroke-width:104.16666667" />
  </g>
  <path
     inkscape:connector-curvature="0"
     style="fill:#000000;fill-opacity:0;stroke:#000000;stroke-width:104.16666412;stroke-linecap:round;stroke-linejoin:round;stroke-opacity:1"
     id="path26"
     d="M 31000,38500 H 30000" />
  <path
     inkscape:connector-curvature="0"
     style="fill:#000000;fill-opacity:0;stroke:#000000;stroke-width:104.16666412;stroke-linecap:round;stroke-linejoin:round;stroke-opacity:1"
     id="path28"
     d="m 32000,38500 h 1000" />
  <g
     id="g5361"
     transform="translate(2684.8714,-900.62141)">
    <path
       d="m 29721.667,38920 70,30 20,20 20,50 v 70 l -20,50 -20,20 -50,30 h -190 v -500 h 170 l 40,20 30,20 20,50 v 50 l -20,50 -30,20 -40,20 h -170"
       id="path30"
       inkscape:connector-curvature="0"
       style="fill:#000000;fill-opacity:0;stroke:#000000;stroke-width:104.16666412;stroke-linecap:round;stroke-linejoin:round;stroke-opacity:1" />
    <path
       d="m 29981.667,38690 h 280"
       id="path32"
       inkscape:connector-curvature="0"
       style="fill:#000000;fill-opacity:0;stroke:#000000;stroke-width:104.16666412;stroke-linecap:round;stroke-linejoin:round;stroke-opacity:1" />
    <path
       d="m 30121.667,39190 v -500"
       id="path34"
       inkscape:connector-curvature="0"
       style="fill:#000000;fill-opacity:0;stroke:#000000;stroke-width:104.16666412;stroke-linecap:round;stroke-linejoin:round;stroke-opacity:1" />
    <path
       d="m 30691.667,39190 h -280"
       id="path36"
       inkscape:connector-curvature="0"
       style="fill:#000000;fill-opacity:0;stroke:#000000;stroke-width:104.16666412;stroke-linecap:round;stroke-linejoin:round;stroke-opacity:1" />
    <path
       d="m 30551.667,39190 v -500 l -50,70 -50,50 -40,20"
       id="path38"
       inkscape:connector-curvature="0"
       style="fill:#000000;fill-opacity:0;stroke:#000000;stroke-width:104.16666412;stroke-linecap:round;stroke-linejoin:round;stroke-opacity:1" />
  </g>
  <g
     id="g5354"
     transform="translate(208.33333,208.33333)">
    <path
       d="m 30140,36920 70,30 20,20 20,50 v 70 l -20,50 -20,20 -50,30 h -190 v -500 h 170 l 40,20 30,20 20,50 v 50 l -20,50 -30,20 -40,20 h -170"
       id="path40"
       style="fill:#000000;fill-opacity:0;stroke:#000000;stroke-width:104.16666412;stroke-linecap:round;stroke-linejoin:round;stroke-opacity:1"
       inkscape:connector-curvature="0" />
    <path
       d="m 30680,37190 v -270 l -20,-40 -50,-30 h -90 l -50,30"
       id="path42"
       style="fill:#000000;fill-opacity:0;stroke:#000000;stroke-width:104.16666412;stroke-linecap:round;stroke-linejoin:round;stroke-opacity:1"
       inkscape:connector-curvature="0" />
    <path
       d="m 30680,37160 -40,30 h -120 l -50,-30 -20,-50 v -40 l 20,-50 50,-20 h 120 l 40,-30"
       id="path44"
       style="fill:#000000;fill-opacity:0;stroke:#000000;stroke-width:104.16666412;stroke-linecap:round;stroke-linejoin:round;stroke-opacity:1"
       inkscape:connector-curvature="0" />
    <path
       d="m 30850,36850 h 190"
       id="path46"
       style="fill:#000000;fill-opacity:0;stroke:#000000;stroke-width:104.16666412;stroke-linecap:round;stroke-linejoin:round;stroke-opacity:1"
       inkscape:connector-curvature="0" />
    <path
       d="m 30920,36690 v 420 l 20,50 50,30 h 50"
       id="path48"
       style="fill:#000000;fill-opacity:0;stroke:#000000;stroke-width:104.16666412;stroke-linecap:round;stroke-linejoin:round;stroke-opacity:1"
       inkscape:connector-curvature="0" />
    <path
       d="m 31140,36850 h 190"
       id="path50"
       style="fill:#000000;fill-opacity:0;stroke:#000000;stroke-width:104.16666412;stroke-linecap:round;stroke-linejoin:round;stroke-opacity:1"
       inkscape:connector-curvature="0" />
    <path
       d="m 31210,36690 v 420 l 20,50 50,30 h 50"
       id="path52"
       style="fill:#000000;fill-opacity:0;stroke:#000000;stroke-width:104.16666412;stroke-linecap:round;stroke-linejoin:round;stroke-opacity:1"
       inkscape:connector-curvature="0" />
    <path
       d="m 31690,37160 -50,30 h -90 l -50,-30 -20,-50 v -190 l 20,-40 50,-30 h 90 l 50,30 20,40 v 50 l -230,50"
       id="path54"
       style="fill:#000000;fill-opacity:0;stroke:#000000;stroke-width:104.16666412;stroke-linecap:round;stroke-linejoin:round;stroke-opacity:1"
       inkscape:connector-curvature="0" />
    <path
       d="m 31930,37190 v -340"
       id="path56"
       style="fill:#000000;fill-opacity:0;stroke:#000000;stroke-width:104.16666412;stroke-linecap:round;stroke-linejoin:round;stroke-opacity:1"
       inkscape:connector-curvature="0" />
    <path
       d="m 31930,36950 20,-50 30,-20 40,-30 h 50"
       id="path58"
       style="fill:#000000;fill-opacity:0;stroke:#000000;stroke-width:104.16666412;stroke-linecap:round;stroke-linejoin:round;stroke-opacity:1"
       inkscape:connector-curvature="0" />
    <path
       d="m 32190,36850 120,340"
       id="path60"
       style="fill:#000000;fill-opacity:0;stroke:#000000;stroke-width:104.16666412;stroke-linecap:round;stroke-linejoin:round;stroke-opacity:1"
       inkscape:connector-curvature="0" />
    <path
       d="m 32430,36850 -120,340 -50,120 -20,20 -50,20"
       id="path62"
       style="fill:#000000;fill-opacity:0;stroke:#000000;stroke-width:104.16666412;stroke-linecap:round;stroke-linejoin:round;stroke-opacity:1"
       inkscape:connector-curvature="0" />
  </g>
  <g
     style="fill:#000000; fill-opacity:0.0;  stroke:#000000; stroke-width:0; stroke-opacity:1;  stroke-linecap:round; stroke-linejoin:round;"
     id="g66" />
  <g
     style="fill:#000000; fill-opacity:0.0;  stroke:#000000; stroke-width:60; stroke-opacity:1;  stroke-linecap:round; stroke-linejoin:round;"
     id="g104">
    <circle
       cx="27021.1"
       cy="36927.836"
       r="371.53827"
       id="circle68"
       style="stroke-width:104.16666667" />
    <ellipse
       cx="27004.08"
       cy="34096.836"
       id="circle70"
       rx="388.35599"
       ry="361.96661"
       style="stroke-width:104.16666667" />
    <polyline
       fill="none;"
       points="27000,36500 26000,34500 "
       id="polyline72"
       style="stroke-width:104.16666667" />
    <circle
       cx="27000"
       cy="24500"
       r="0"
       id="circle74" />
    <path
       d="M27000 37320 L27000 38500 "
       id="path76"
       style="stroke-width:104.16666667" />
    <path
       d="M27000 33680 L27000 32500 "
       id="path82"
       style="stroke-width:104.16666667" />
    <path
       d="m 27330,35576.666 70,30 h 120 l 40,-30 30,-20 20,-50 v -50 l -20,-40 -30,-30 -40,-20 -100,-30 -50,-20 -20,-20 -20,-50 v -50 l 20,-50 20,-20 50,-20 h 120 l 70,20"
       id="path86"
       style="stroke-width:104.16666412"
       inkscape:connector-curvature="0" />
    <path
       d="m 27780,35106.666 120,500 100,-360 90,360 120,-500"
       id="path88"
       style="stroke-width:104.16666412"
       inkscape:connector-curvature="0" />
    <path
       d="m 28660,35606.666 h -280"
       id="path90"
       style="stroke-width:104.16666412"
       inkscape:connector-curvature="0" />
    <path
       d="m 28520,35606.666 v -500 l -50,70 -50,50 -40,20"
       id="path92"
       style="stroke-width:104.16666412"
       inkscape:connector-curvature="0" />
  </g>
  <g
     style="fill:#000000; fill-opacity:0.0;  stroke:#000000; stroke-width:0; stroke-opacity:1;  stroke-linecap:round; stroke-linejoin:round;"
     id="g106" />
  <g
     style="fill:#000000;fill-opacity:0;stroke:#000000;stroke-width:104.16666412;stroke-linecap:round;stroke-linejoin:round;stroke-opacity:1"
     id="g114"
     transform="translate(1906.3718,-1702.1195)">
    <polyline
       fill="none;"
       points="32000,32000 32000,33000 "
       id="polyline108"
       style="stroke-width:104.16666412"
       transform="translate(-1872.3298,1719.1392)" />
    <path
       style="fill:none;stroke:#000000;stroke-width:79.18690491px;stroke-linecap:butt;stroke-linejoin:miter;stroke-opacity:1;marker-end:url(#Arrow2Send)"
       d="m 30442.093,33440.092 356.71,-358.114"
       id="path4972"
       inkscape:connector-curvature="0" />
    <path
       style="fill:none;fill-opacity:0;stroke:#000000;stroke-width:79.18690491px;stroke-linecap:butt;stroke-linejoin:miter;stroke-opacity:1;marker-end:url(#Arrow2Send-5)"
       d="m 30465.807,33704.053 356.71,-358.114"
       id="path4972-6"
       inkscape:connector-curvature="0" />
  </g>
  <g
     style="fill:#000000;fill-opacity:1;stroke:#000000;stroke-width:104.16666667;stroke-opacity:1;stroke-linecap:round;stroke-linejoin:round"
     id="g118">
    <polyline
       style="fill-rule:evenodd;stroke-width:104.16666667"
       points="31000,32000 32000,32500 31000,33000 "
       id="polyline116" />
  </g>
  <g
     style="fill:#000000;fill-opacity:0;stroke:#000000;stroke-width:104.16666667;stroke-opacity:1;stroke-linecap:round;stroke-linejoin:round"
     id="g144">
    <path
       d="M32000 32500 L33500 32500 "
       id="path120"
       style="stroke-width:104.16666667" />
    <path
       d="M31000 32500 L29500 32500 "
       id="path126"
       style="stroke-width:104.16666667" />
    <path
       d="M31130 33760 L31130 33260 L31250 33260 L31320 33280 L31370 33330 L31390 33380 L31410 33470 L31410 33540 L31390 33640 L31370 33680 L31320 33730 L31250 33760 L31130 33760 "
       id="path130"
       style="stroke-width:104.16666667" />
    <path
       d="M31890 33760 L31610 33760 "
       id="path132"
       style="stroke-width:104.16666667" />
    <path
       d="M31750 33760 L31750 33260 L31700 33330 L31650 33380 L31610 33400 "
       id="path134"
       style="stroke-width:104.16666667" />
    <path
       d="M31180 31760 L30940 31760 L30940 31260 "
       id="path136"
       style="stroke-width:104.16666667" />
    <path
       d="M31340 31490 L31510 31490 "
       id="path138"
       style="stroke-width:104.16666667" />
    <path
       d="M31580 31760 L31340 31760 L31340 31260 L31580 31260 "
       id="path140"
       style="stroke-width:104.16666667" />
    <path
       d="M31790 31760 L31790 31260 L31910 31260 L31980 31280 L32030 31330 L32050 31380 L32070 31470 L32070 31540 L32050 31640 L32030 31680 L31980 31730 L31910 31760 L31790 31760 "
       id="path142"
       style="stroke-width:104.16666667" />
  </g>
  <g
     style="fill:#000000; fill-opacity:0.0;  stroke:#000000; stroke-width:0; stroke-opacity:1;  stroke-linecap:round; stroke-linejoin:round;"
     id="g146" />
  <g
     style="fill:#000000;fill-opacity:0;stroke:#000000;stroke-width:104.16666667;stroke-opacity:1;stroke-linecap:round;stroke-linejoin:round"
     id="g150">
    <rect
       x="35100"
       y="34500"
       width="800"
       height="2000"
       rx="0"
       id="rect148"
       style="stroke-width:104.16666667" />
  </g>
  <g
     style="fill:#000000;fill-opacity:0;stroke:#000000;stroke-width:104.16666667;stroke-opacity:1;stroke-linecap:round;stroke-linejoin:round"
     id="g184">
    <path
       d="M35500 34500 L35500 34000 "
       id="path152"
       style="stroke-width:104.16666667" />
    <path
       d="M35500 36500 L35500 37000 "
       id="path154"
       style="stroke-width:104.16666667" />
    <path
       d="M34410 35760 L34250 35520 "
       id="path156"
       style="stroke-width:104.16666667" />
    <path
       d="M34130 35760 L34130 35260 L34320 35260 L34370 35280 L34390 35300 L34410 35350 L34410 35420 L34390 35470 L34370 35490 L34320 35520 L34130 35520 "
       id="path158"
       style="stroke-width:104.16666667" />
    <path
       d="M34890 35760 L34610 35760 "
       id="path160"
       style="stroke-width:104.16666667" />
    <path
       d="M34750 35760 L34750 35260 L34700 35330 L34650 35380 L34610 35400 "
       id="path162"
       style="stroke-width:104.16666667" />
    <path
       d="M35760 35840 L35760 36120 "
       id="path164"
       style="stroke-width:104.16666667" />
    <path
       d="M35760 35980 L35260 35980 L35330 36030 L35380 36080 L35400 36120 "
       id="path166"
       style="stroke-width:104.16666667" />
    <path
       d="M35260 35530 L35260 35480 L35280 35430 L35300 35410 L35350 35380 L35450 35360 L35570 35360 L35660 35380 L35710 35410 L35730 35430 L35760 35480 L35760 35530 L35730 35570 L35710 35600 L35660 35620 L35570 35640 L35450 35640 L35350 35620 L35300 35600 L35280 35570 L35260 35530 "
       id="path168"
       style="stroke-width:104.16666667" />
    <path
       d="M35260 35050 L35260 35000 L35280 34950 L35300 34930 L35350 34900 L35450 34880 L35570 34880 L35660 34900 L35710 34930 L35730 34950 L35760 35000 L35760 35050 L35730 35090 L35710 35120 L35660 35140 L35570 35160 L35450 35160 L35350 35140 L35300 35120 L35280 35090 L35260 35050 "
       id="path170"
       style="stroke-width:104.16666667" />
    <path
       d="M27000 32500 L29500 32500 "
       id="path172"
       style="stroke-width:104.16666667" />
    <path
       d="M33500 32500 L35500 32500 "
       id="path174"
       style="stroke-width:104.16666667" />
    <path
       d="M35500 32500 L35500 34000 "
       id="path176"
       style="stroke-width:104.16666667" />
    <path
       d="M35500 37000 L35500 38500 "
       id="path178"
       style="stroke-width:104.16666667" />
    <path
       d="M35500 38500 L33000 38500 "
       id="path180"
       style="stroke-width:104.16666667" />
    <path
       d="M30000 38500 L27000 38500 "
       id="path182"
       style="stroke-width:104.16666667" />
  </g>
</svg>
