<?xml version="1.0" encoding="UTF-8" standalone="no"?>
<svg
   xmlns:dc="http://purl.org/dc/elements/1.1/"
   xmlns:cc="http://creativecommons.org/ns#"
   xmlns:rdf="http://www.w3.org/1999/02/22-rdf-syntax-ns#"
   xmlns:svg="http://www.w3.org/2000/svg"
   xmlns="http://www.w3.org/2000/svg"
   xmlns:sodipodi="http://sodipodi.sourceforge.net/DTD/sodipodi-0.dtd"
   xmlns:inkscape="http://www.inkscape.org/namespaces/inkscape"
   version="1.1"
   id="svg180"
   inkscape:version="1.0 (4035a4fb49, 2020-05-01)"
   sodipodi:docname="stencil-brd.svg"
   x="0px"
   y="0px"
   viewBox="0 0 192 98.2"
   style="enable-background:new 0 0 192 98.2;"
   xml:space="preserve"><metadata
   id="metadata97"><rdf:RDF><cc:Work
       rdf:about=""><dc:format>image/svg+xml</dc:format><dc:type
         rdf:resource="http://purl.org/dc/dcmitype/StillImage" /></cc:Work></rdf:RDF></metadata><defs
   id="defs95" />
<style
   type="text/css"
   id="style2">
	.st0{fill:none;stroke:#840000;stroke-width:7.200000e-02;stroke-linecap:round;stroke-linejoin:round;stroke-miterlimit:10;}
</style>
<sodipodi:namedview
   bordercolor="#666666"
   borderopacity="1"
   gridtolerance="10"
   guidetolerance="10"
   id="namedview182"
   inkscape:current-layer="svg180"
   inkscape:cx="68.188167"
   inkscape:cy="35.870043"
   inkscape:pageopacity="0"
   inkscape:pageshadow="2"
   inkscape:window-height="850"
   inkscape:window-maximized="0"
   inkscape:window-width="1761"
   inkscape:window-x="143"
   inkscape:window-y="93"
   inkscape:zoom="8.6818582"
   objecttolerance="10"
   pagecolor="#ffffff"
   showgrid="false"
   inkscape:document-rotation="0">
	</sodipodi:namedview>
<title
   id="title2">SVG Picture created as stencil-brd.svg date 2020/05/06 12:28:01</title>
<desc
   id="desc4">Picture generated by PCBNEW</desc>
<g
   id="g6"
   transform="translate(0 0) scale(1 1)">
</g>
<g
   id="g8">
</g>
<g
   id="g10">
</g>
<g
   id="g12">
</g>
<g
   id="g178"
   style="fill:#ff0000;stroke:#ff0000;stroke-width:0.13333333">
	<polyline
   id="polyline14"
   class="st0"
   points="30.4,25.9 29.7,25.9 29.7,23.9 30.4,23.9 30.4,25.9  "
   style="fill:#ff0000;stroke:#ff0000;stroke-width:0.13333333" />
	<polyline
   id="polyline16"
   class="st0"
   points="31.8,25.9 31.1,25.9 31.1,23.9 31.8,23.9 31.8,25.9  "
   style="fill:#ff0000;stroke:#ff0000;stroke-width:0.13333333" />
	<polyline
   id="polyline18"
   class="st0"
   points="33.2,25.9 32.5,25.9 32.5,23.9 33.2,23.9 33.2,25.9  "
   style="fill:#ff0000;stroke:#ff0000;stroke-width:0.13333333" />
	<polyline
   id="polyline20"
   class="st0"
   points="34.6,25.9 33.9,25.9 33.9,23.9 34.6,23.9 34.6,25.9  "
   style="fill:#ff0000;stroke:#ff0000;stroke-width:0.13333333" />
	<polyline
   id="polyline22"
   class="st0"
   points="36,25.9 35.3,25.9 35.3,23.9 36,23.9 36,25.9  "
   style="fill:#ff0000;stroke:#ff0000;stroke-width:0.13333333" />
	<polyline
   id="polyline24"
   class="st0"
   points="37.5,25.9 36.7,25.9 36.7,23.9 37.5,23.9 37.5,25.9  "
   style="fill:#ff0000;stroke:#ff0000;stroke-width:0.13333333" />
	<polyline
   id="polyline26"
   class="st0"
   points="38.9,25.9 38.2,25.9 38.2,23.9 38.9,23.9 38.9,25.9  "
   style="fill:#ff0000;stroke:#ff0000;stroke-width:0.13333333" />
	<polyline
   id="polyline28"
   class="st0"
   points="40.3,25.9 39.6,25.9 39.6,23.9 40.3,23.9 40.3,25.9  "
   style="fill:#ff0000;stroke:#ff0000;stroke-width:0.13333333" />
	<polyline
   id="polyline30"
   class="st0"
   points="42.8,22.7 42.8,23.4 40.8,23.4 40.8,22.7 42.8,22.7  "
   style="fill:#ff0000;stroke:#ff0000;stroke-width:0.13333333" />
	<polyline
   id="polyline32"
   class="st0"
   points="42.8,21.3 42.8,22 40.8,22 40.8,21.3 42.8,21.3  "
   style="fill:#ff0000;stroke:#ff0000;stroke-width:0.13333333" />
	<polyline
   id="polyline34"
   class="st0"
   points="42.8,19.9 42.8,20.6 40.8,20.6 40.8,19.9 42.8,19.9  "
   style="fill:#ff0000;stroke:#ff0000;stroke-width:0.13333333" />
	<polyline
   id="polyline36"
   class="st0"
   points="42.8,18.4 42.8,19.1 40.8,19.1 40.8,18.4 42.8,18.4  "
   style="fill:#ff0000;stroke:#ff0000;stroke-width:0.13333333" />
	<polyline
   id="polyline38"
   class="st0"
   points="42.8,17 42.8,17.7 40.8,17.7 40.8,17 42.8,17  "
   style="fill:#ff0000;stroke:#ff0000;stroke-width:0.13333333" />
	<polyline
   id="polyline40"
   class="st0"
   points="42.8,15.6 42.8,16.3 40.8,16.3 40.8,15.6 42.8,15.6  "
   style="fill:#ff0000;stroke:#ff0000;stroke-width:0.13333333" />
	<polyline
   id="polyline42"
   class="st0"
   points="42.8,14.2 42.8,14.9 40.8,14.9 40.8,14.2 42.8,14.2  "
   style="fill:#ff0000;stroke:#ff0000;stroke-width:0.13333333" />
	<polyline
   id="polyline44"
   class="st0"
   points="42.8,12.8 42.8,13.5 40.8,13.5 40.8,12.8 42.8,12.8  "
   style="fill:#ff0000;stroke:#ff0000;stroke-width:0.13333333" />
	<polyline
   id="polyline46"
   class="st0"
   points="40.3,12.3 39.6,12.3 39.6,10.3 40.3,10.3 40.3,12.3  "
   style="fill:#ff0000;stroke:#ff0000;stroke-width:0.13333333" />
	<polyline
   id="polyline48"
   class="st0"
   points="38.9,12.3 38.2,12.3 38.2,10.3 38.9,10.3 38.9,12.3  "
   style="fill:#ff0000;stroke:#ff0000;stroke-width:0.13333333" />
	<polyline
   id="polyline50"
   class="st0"
   points="37.5,12.3 36.7,12.3 36.7,10.3 37.5,10.3 37.5,12.3  "
   style="fill:#ff0000;stroke:#ff0000;stroke-width:0.13333333" />
	<polyline
   id="polyline52"
   class="st0"
   points="36,12.3 35.3,12.3 35.3,10.3 36,10.3 36,12.3  "
   style="fill:#ff0000;stroke:#ff0000;stroke-width:0.13333333" />
	<polyline
   id="polyline54"
   class="st0"
   points="34.6,12.3 33.9,12.3 33.9,10.3 34.6,10.3 34.6,12.3  "
   style="fill:#ff0000;stroke:#ff0000;stroke-width:0.13333333" />
	<polyline
   id="polyline56"
   class="st0"
   points="33.2,12.3 32.5,12.3 32.5,10.3 33.2,10.3 33.2,12.3  "
   style="fill:#ff0000;stroke:#ff0000;stroke-width:0.13333333" />
	<polyline
   id="polyline58"
   class="st0"
   points="31.8,12.3 31.1,12.3 31.1,10.3 31.8,10.3 31.8,12.3  "
   style="fill:#ff0000;stroke:#ff0000;stroke-width:0.13333333" />
	<polyline
   id="polyline60"
   class="st0"
   points="30.4,12.3 29.7,12.3 29.7,10.3 30.4,10.3 30.4,12.3  "
   style="fill:#ff0000;stroke:#ff0000;stroke-width:0.13333333" />
	<polyline
   id="polyline62"
   class="st0"
   points="29.2,12.8 29.2,13.5 27.2,13.5 27.2,12.8 29.2,12.8  "
   style="fill:#ff0000;stroke:#ff0000;stroke-width:0.13333333" />
	<polyline
   id="polyline64"
   class="st0"
   points="29.2,14.2 29.2,14.9 27.2,14.9 27.2,14.2 29.2,14.2  "
   style="fill:#ff0000;stroke:#ff0000;stroke-width:0.13333333" />
	<polyline
   id="polyline66"
   class="st0"
   points="29.2,15.6 29.2,16.3 27.2,16.3 27.2,15.6 29.2,15.6  "
   style="fill:#ff0000;stroke:#ff0000;stroke-width:0.13333333" />
	<polyline
   id="polyline68"
   class="st0"
   points="29.2,17 29.2,17.7 27.2,17.7 27.2,17 29.2,17  "
   style="fill:#ff0000;stroke:#ff0000;stroke-width:0.13333333" />
	<polyline
   id="polyline70"
   class="st0"
   points="29.2,18.4 29.2,19.1 27.2,19.1 27.2,18.4 29.2,18.4  "
   style="fill:#ff0000;stroke:#ff0000;stroke-width:0.13333333" />
	<polyline
   id="polyline72"
   class="st0"
   points="29.2,19.9 29.2,20.6 27.2,20.6 27.2,19.9 29.2,19.9  "
   style="fill:#ff0000;stroke:#ff0000;stroke-width:0.13333333" />
	<polyline
   id="polyline74"
   class="st0"
   points="29.2,21.3 29.2,22 27.2,22 27.2,21.3 29.2,21.3  "
   style="fill:#ff0000;stroke:#ff0000;stroke-width:0.13333333" />
	<polyline
   id="polyline76"
   class="st0"
   points="29.2,22.7 29.2,23.4 27.2,23.4 27.2,22.7 29.2,22.7  "
   style="fill:#ff0000;stroke:#ff0000;stroke-width:0.13333333" />
	<polyline
   id="polyline78"
   class="st0"
   points="38.9,17.1 36,17.1 36,14.2 38.9,14.2 38.9,17.1  "
   style="fill:#ff0000;stroke:#ff0000;stroke-width:0.13333333" />
	<polyline
   id="polyline80"
   class="st0"
   points="34,17.1 31.1,17.1 31.1,14.2 34,14.2 34,17.1  "
   style="fill:#ff0000;stroke:#ff0000;stroke-width:0.13333333" />
	<polyline
   id="polyline82"
   class="st0"
   points="38.9,22 36,22 36,19.1 38.9,19.1 38.9,22  "
   style="fill:#ff0000;stroke:#ff0000;stroke-width:0.13333333" />
	<polyline
   id="polyline84"
   class="st0"
   points="34,22 31.1,22 31.1,19.1 34,19.1 34,22  "
   style="fill:#ff0000;stroke:#ff0000;stroke-width:0.13333333" />
	<polyline
   id="polyline86"
   class="st0"
   points="5.2,31.2 5.2,27.6 8,27.6 8,31.2 5.2,31.2  "
   style="fill:#ff0000;stroke:#ff0000;stroke-width:0.13333333" />
	<polyline
   id="polyline88"
   class="st0"
   points="10.9,31.2 10.9,27.6 13.7,27.6 13.7,31.2 10.9,31.2  "
   style="fill:#ff0000;stroke:#ff0000;stroke-width:0.13333333" />
	<polyline
   id="polyline90"
   class="st0"
   points="38.5,3.6 38.5,7.1 35.7,7.1 35.7,3.6 38.5,3.6  "
   style="fill:#ff0000;stroke:#ff0000;stroke-width:0.13333333" />
	<polyline
   id="polyline92"
   class="st0"
   points="32.8,3.6 32.8,7.1 30,7.1 30,3.6 32.8,3.6  "
   style="fill:#ff0000;stroke:#ff0000;stroke-width:0.13333333" />
	<polyline
   id="polyline94"
   class="st0"
   points="25.1,27.6 25.1,31.2 22.2,31.2 22.2,27.6 25.1,27.6  "
   style="fill:#ff0000;stroke:#ff0000;stroke-width:0.13333333" />
	<polyline
   id="polyline96"
   class="st0"
   points="19.4,27.6 19.4,31.2 16.6,31.2 16.6,27.6 19.4,27.6  "
   style="fill:#ff0000;stroke:#ff0000;stroke-width:0.13333333" />
	<polyline
   id="polyline98"
   class="st0"
   points="22.8,17.6 22.8,18.6 21.5,18.6 21.5,17.6 22.8,17.6  "
   style="fill:#ff0000;stroke:#ff0000;stroke-width:0.13333333" />
	<polyline
   id="polyline100"
   class="st0"
   points="15.8,17.6 15.8,18.6 14.6,18.6 14.6,17.6 15.8,17.6  "
   style="fill:#ff0000;stroke:#ff0000;stroke-width:0.13333333" />
	<polyline
   id="polyline102"
   class="st0"
   points="22.8,19 22.8,20 21.5,20 21.5,19 22.8,19  "
   style="fill:#ff0000;stroke:#ff0000;stroke-width:0.13333333" />
	<polyline
   id="polyline104"
   class="st0"
   points="15.8,19 15.8,20 14.6,20 14.6,19 15.8,19  "
   style="fill:#ff0000;stroke:#ff0000;stroke-width:0.13333333" />
	<polyline
   id="polyline106"
   class="st0"
   points="22.8,20.4 22.8,21.4 21.5,21.4 21.5,20.4 22.8,20.4  "
   style="fill:#ff0000;stroke:#ff0000;stroke-width:0.13333333" />
	<polyline
   id="polyline108"
   class="st0"
   points="15.8,20.4 15.8,21.4 14.6,21.4 14.6,20.4 15.8,20.4  "
   style="fill:#ff0000;stroke:#ff0000;stroke-width:0.13333333" />
	<polyline
   id="polyline110"
   class="st0"
   points="15.8,14.8 15.8,15.7 14.6,15.7 14.6,14.8 15.8,14.8  "
   style="fill:#ff0000;stroke:#ff0000;stroke-width:0.13333333" />
	<polyline
   id="polyline112"
   class="st0"
   points="15.8,16.2 15.8,17.2 14.6,17.2 14.6,16.2 15.8,16.2  "
   style="fill:#ff0000;stroke:#ff0000;stroke-width:0.13333333" />
	<polyline
   id="polyline114"
   class="st0"
   points="18.2,14 19.2,14 19.2,15.2 18.2,15.2 18.2,14  "
   style="fill:#ff0000;stroke:#ff0000;stroke-width:0.13333333" />
	<polyline
   id="polyline116"
   class="st0"
   points="22.8,16.2 22.8,17.2 21.5,17.2 21.5,16.2 22.8,16.2  "
   style="fill:#ff0000;stroke:#ff0000;stroke-width:0.13333333" />
	<polyline
   id="polyline118"
   class="st0"
   points="22.8,14.8 22.8,15.7 21.5,15.7 21.5,14.8 22.8,14.8  "
   style="fill:#ff0000;stroke:#ff0000;stroke-width:0.13333333" />
	<polyline
   id="polyline120"
   class="st0"
   points="16.8,14 17.8,14 17.8,15.2 16.8,15.2 16.8,14  "
   style="fill:#ff0000;stroke:#ff0000;stroke-width:0.13333333" />
	<polyline
   id="polyline122"
   class="st0"
   points="19.6,14 20.6,14 20.6,15.2 19.6,15.2 19.6,14  "
   style="fill:#ff0000;stroke:#ff0000;stroke-width:0.13333333" />
	<polyline
   id="polyline124"
   class="st0"
   points="18.2,20.9 19.2,20.9 19.2,22.2 18.2,22.2 18.2,20.9  "
   style="fill:#ff0000;stroke:#ff0000;stroke-width:0.13333333" />
	<polyline
   id="polyline126"
   class="st0"
   points="16.8,20.9 17.8,20.9 17.8,22.2 16.8,22.2 16.8,20.9  "
   style="fill:#ff0000;stroke:#ff0000;stroke-width:0.13333333" />
	<polyline
   id="polyline128"
   class="st0"
   points="19.6,20.9 20.6,20.9 20.6,22.2 19.6,22.2 19.6,20.9  "
   style="fill:#ff0000;stroke:#ff0000;stroke-width:0.13333333" />
	<polyline
   id="polyline130"
   class="st0"
   points="48.4,12.3 48.4,9.7 49.9,9.7 49.9,12.3 48.4,12.3  "
   style="fill:#ff0000;stroke:#ff0000;stroke-width:0.13333333" />
	<polyline
   id="polyline132"
   class="st0"
   points="52.7,12.3 52.7,9.7 54.1,9.7 54.1,12.3 52.7,12.3  "
   style="fill:#ff0000;stroke:#ff0000;stroke-width:0.13333333" />
	<polyline
   id="polyline134"
   class="st0"
   points="14.6,3.9 17.1,3.9 17.1,5.3 14.6,5.3 14.6,3.9  "
   style="fill:#ff0000;stroke:#ff0000;stroke-width:0.13333333" />
	<polyline
   id="polyline136"
   class="st0"
   points="14.6,8.2 17.1,8.2 17.1,9.6 14.6,9.6 14.6,8.2  "
   style="fill:#ff0000;stroke:#ff0000;stroke-width:0.13333333" />
	<polyline
   id="polyline138"
   class="st0"
   points="19.5,3.9 22.1,3.9 22.1,5.3 19.5,5.3 19.5,3.9  "
   style="fill:#ff0000;stroke:#ff0000;stroke-width:0.13333333" />
	<polyline
   id="polyline140"
   class="st0"
   points="19.5,8.2 22.1,8.2 22.1,9.6 19.5,9.6 19.5,8.2  "
   style="fill:#ff0000;stroke:#ff0000;stroke-width:0.13333333" />
	<polyline
   id="polyline142"
   class="st0"
   points="35.7,27.4 35.7,30 34.3,30 34.3,27.4 35.7,27.4  "
   style="fill:#ff0000;stroke:#ff0000;stroke-width:0.13333333" />
	<polyline
   id="polyline144"
   class="st0"
   points="31.4,27.4 31.4,30 30,30 30,27.4 31.4,27.4  "
   style="fill:#ff0000;stroke:#ff0000;stroke-width:0.13333333" />
	<polyline
   id="polyline146"
   class="st0"
   points="48.4,17.9 48.4,15.4 49.9,15.4 49.9,17.9 48.4,17.9  "
   style="fill:#ff0000;stroke:#ff0000;stroke-width:0.13333333" />
	<polyline
   id="polyline148"
   class="st0"
   points="52.7,17.9 52.7,15.4 54.1,15.4 54.1,17.9 52.7,17.9  "
   style="fill:#ff0000;stroke:#ff0000;stroke-width:0.13333333" />
	<polyline
   id="polyline150"
   class="st0"
   points="8.9,15.2 11.4,15.2 11.4,16.7 8.9,16.7 8.9,15.2  "
   style="fill:#ff0000;stroke:#ff0000;stroke-width:0.13333333" />
	<polyline
   id="polyline152"
   class="st0"
   points="8.9,19.5 11.4,19.5 11.4,20.9 8.9,20.9 8.9,19.5  "
   style="fill:#ff0000;stroke:#ff0000;stroke-width:0.13333333" />
	<polyline
   id="polyline154"
   class="st0"
   points="7.2,9.6 4.6,9.6 4.6,8.2 7.2,8.2 7.2,9.6  "
   style="fill:#ff0000;stroke:#ff0000;stroke-width:0.13333333" />
	<polyline
   id="polyline156"
   class="st0"
   points="7.2,5.3 4.6,5.3 4.6,3.9 7.2,3.9 7.2,5.3  "
   style="fill:#ff0000;stroke:#ff0000;stroke-width:0.13333333" />
	<polyline
   id="polyline158"
   class="st0"
   points="48.4,6.6 48.4,4.1 49.9,4.1 49.9,6.6 48.4,6.6  "
   style="fill:#ff0000;stroke:#ff0000;stroke-width:0.13333333" />
	<polyline
   id="polyline160"
   class="st0"
   points="52.7,6.6 52.7,4.1 54.1,4.1 54.1,6.6 52.7,6.6  "
   style="fill:#ff0000;stroke:#ff0000;stroke-width:0.13333333" />
	<polyline
   id="polyline162"
   class="st0"
   points="44.2,27.4 44.2,30 42.8,30 42.8,27.4 44.2,27.4  "
   style="fill:#ff0000;stroke:#ff0000;stroke-width:0.13333333" />
	<polyline
   id="polyline164"
   class="st0"
   points="39.9,27.4 39.9,30 38.5,30 38.5,27.4 39.9,27.4  "
   style="fill:#ff0000;stroke:#ff0000;stroke-width:0.13333333" />
	<polyline
   id="polyline166"
   class="st0"
   points="48.4,23.6 48.4,21.1 49.9,21.1 49.9,23.6 48.4,23.6  "
   style="fill:#ff0000;stroke:#ff0000;stroke-width:0.13333333" />
	<polyline
   id="polyline168"
   class="st0"
   points="52.7,23.6 52.7,21.1 54.1,21.1 54.1,23.6 52.7,23.6  "
   style="fill:#ff0000;stroke:#ff0000;stroke-width:0.13333333" />
	<polyline
   id="polyline170"
   class="st0"
   points="3.9,15.2 6.5,15.2 6.5,16.7 3.9,16.7 3.9,15.2  "
   style="fill:#ff0000;stroke:#ff0000;stroke-width:0.13333333" />
	<polyline
   id="polyline172"
   class="st0"
   points="3.9,19.5 6.5,19.5 6.5,20.9 3.9,20.9 3.9,19.5  "
   style="fill:#ff0000;stroke:#ff0000;stroke-width:0.13333333" />
	<polyline
   id="polyline174"
   class="st0"
   points="12.2,9.6 9.6,9.6 9.6,8.2 12.2,8.2 12.2,9.6  "
   style="fill:#ff0000;stroke:#ff0000;stroke-width:0.13333333" />
	<polyline
   id="polyline176"
   class="st0"
   points="12.2,5.3 9.6,5.3 9.6,3.9 12.2,3.9 12.2,5.3  "
   style="fill:#ff0000;stroke:#ff0000;stroke-width:0.13333333" />
</g>
</svg>
