%MOIN*%
%OFA0B0*%
%FSLAX44Y44*%
%IPPOS*%
%LPD*%
%ADD10C,0*%
D10*
X00004853Y00025984D02*
X00004853Y00025984D01*
X00014720Y00025984D01*
X00014752Y00025982D01*
X00014783Y00025979D01*
X00014814Y00025972D01*
X00014844Y00025964D01*
X00014874Y00025953D01*
X00014902Y00025939D01*
X00014930Y00025923D01*
X00014956Y00025906D01*
X00014980Y00025886D01*
X00015003Y00025864D01*
X00015024Y00025840D01*
X00015043Y00025815D01*
X00015060Y00025789D01*
X00015075Y00025761D01*
X00015088Y00025732D01*
X00015098Y00025702D01*
X00015106Y00025672D01*
X00015111Y00025640D01*
X00015114Y00025609D01*
X00015114Y00025578D01*
X00015102Y00025204D01*
X00015100Y00025173D01*
X00015095Y00025143D01*
X00015089Y00025114D01*
X00015080Y00025085D01*
X00015069Y00025057D01*
X00015055Y00025030D01*
X00015040Y00025003D01*
X00015023Y00024979D01*
X00015003Y00024955D01*
X00014982Y00024933D01*
X00014960Y00024913D01*
X00014936Y00024895D01*
X00014910Y00024878D01*
X00014884Y00024864D01*
X00014856Y00024851D01*
X00014828Y00024841D01*
X00014799Y00024833D01*
X00014769Y00024827D01*
X00014739Y00024823D01*
X00014709Y00024822D01*
X00004871Y00024822D01*
X00004841Y00024823D01*
X00004811Y00024827D01*
X00004782Y00024833D01*
X00004753Y00024840D01*
X00004725Y00024851D01*
X00004697Y00024863D01*
X00004671Y00024877D01*
X00004646Y00024893D01*
X00004622Y00024911D01*
X00004599Y00024931D01*
X00004579Y00024953D01*
X00004559Y00024976D01*
X00004542Y00025000D01*
X00004526Y00025026D01*
X00004513Y00025053D01*
X00004502Y00025080D01*
X00004492Y00025109D01*
X00004485Y00025138D01*
X00004480Y00025168D01*
X00004478Y00025197D01*
X00004460Y00025571D01*
X00004460Y00025603D01*
X00004462Y00025635D01*
X00004467Y00025667D01*
X00004475Y00025697D01*
X00004485Y00025728D01*
X00004497Y00025757D01*
X00004512Y00025785D01*
X00004529Y00025812D01*
X00004548Y00025838D01*
X00004569Y00025862D01*
X00004591Y00025884D01*
X00004616Y00025904D01*
X00004642Y00025922D01*
X00004670Y00025938D01*
X00004699Y00025952D01*
X00004728Y00025963D01*
X00004759Y00025972D01*
X00004790Y00025979D01*
X00004822Y00025982D01*
X00004853Y00025984D01*
X00022783Y00020303D02*
X00022783Y00020303D01*
X00022783Y00012831D01*
X00022782Y00012799D01*
X00022778Y00012768D01*
X00022772Y00012737D01*
X00022763Y00012706D01*
X00022751Y00012677D01*
X00022738Y00012648D01*
X00022722Y00012621D01*
X00022704Y00012594D01*
X00022684Y00012570D01*
X00022662Y00012547D01*
X00022638Y00012526D01*
X00022613Y00012507D01*
X00022586Y00012490D01*
X00022558Y00012475D01*
X00022529Y00012463D01*
X00022499Y00012453D01*
X00022468Y00012445D01*
X00022436Y00012440D01*
X00022405Y00012438D01*
X00022373Y00012438D01*
X00021877Y00012458D01*
X00021847Y00012460D01*
X00021817Y00012465D01*
X00021788Y00012472D01*
X00021759Y00012481D01*
X00021731Y00012493D01*
X00021704Y00012506D01*
X00021679Y00012521D01*
X00021654Y00012539D01*
X00021631Y00012558D01*
X00021609Y00012579D01*
X00021589Y00012601D01*
X00021571Y00012625D01*
X00021555Y00012651D01*
X00021540Y00012677D01*
X00021528Y00012705D01*
X00021518Y00012733D01*
X00021510Y00012762D01*
X00021504Y00012791D01*
X00021501Y00012821D01*
X00021499Y00012851D01*
X00021499Y00015161D01*
X00021487Y00015317D01*
X00021451Y00015470D01*
X00021391Y00015615D01*
X00021309Y00015749D01*
X00021207Y00015868D01*
X00021087Y00015970D01*
X00020953Y00016052D01*
X00020809Y00016112D01*
X00020656Y00016149D01*
X00020499Y00016161D01*
X00020499Y00016161D01*
X00016783Y00016161D01*
X00016754Y00016162D01*
X00016724Y00016165D01*
X00016695Y00016171D01*
X00016666Y00016179D01*
X00016638Y00016188D01*
X00016611Y00016200D01*
X00016585Y00016214D01*
X00016560Y00016230D01*
X00016536Y00016248D01*
X00016514Y00016267D01*
X00016493Y00016288D01*
X00016474Y00016311D01*
X00016456Y00016335D01*
X00016441Y00016360D01*
X00016427Y00016386D01*
X00016416Y00016414D01*
X00016406Y00016442D01*
X00016399Y00016470D01*
X00016393Y00016500D01*
X00016390Y00016529D01*
X00016366Y00016903D01*
X00016365Y00016935D01*
X00016367Y00016967D01*
X00016372Y00016999D01*
X00016379Y00017031D01*
X00016388Y00017061D01*
X00016400Y00017091D01*
X00016415Y00017120D01*
X00016432Y00017147D01*
X00016451Y00017173D01*
X00016472Y00017198D01*
X00016495Y00017220D01*
X00016519Y00017241D01*
X00016546Y00017260D01*
X00016573Y00017276D01*
X00016602Y00017290D01*
X00016632Y00017301D01*
X00016663Y00017311D01*
X00016695Y00017317D01*
X00016727Y00017321D01*
X00016759Y00017322D01*
X00020499Y00017322D01*
X00020656Y00017335D01*
X00020809Y00017371D01*
X00020953Y00017431D01*
X00021087Y00017513D01*
X00021207Y00017615D01*
X00021309Y00017735D01*
X00021391Y00017868D01*
X00021451Y00018013D01*
X00021487Y00018166D01*
X00021499Y00018322D01*
X00021499Y00020271D01*
X00021501Y00020301D01*
X00021504Y00020330D01*
X00021510Y00020359D01*
X00021517Y00020388D01*
X00021527Y00020416D01*
X00021539Y00020443D01*
X00021553Y00020469D01*
X00021569Y00020494D01*
X00021587Y00020518D01*
X00021606Y00020540D01*
X00021627Y00020561D01*
X00021650Y00020580D01*
X00021674Y00020598D01*
X00021699Y00020613D01*
X00021725Y00020627D01*
X00021752Y00020639D01*
X00021781Y00020648D01*
X00021809Y00020656D01*
X00021838Y00020661D01*
X00021868Y00020664D01*
X00022364Y00020696D01*
X00022396Y00020696D01*
X00022428Y00020695D01*
X00022460Y00020690D01*
X00022492Y00020683D01*
X00022522Y00020673D01*
X00022552Y00020661D01*
X00022581Y00020647D01*
X00022608Y00020630D01*
X00022634Y00020611D01*
X00022659Y00020590D01*
X00022681Y00020567D01*
X00022702Y00020542D01*
X00022720Y00020516D01*
X00022737Y00020488D01*
X00022751Y00020459D01*
X00022762Y00020429D01*
X00022771Y00020398D01*
X00022778Y00020367D01*
X00022782Y00020335D01*
X00022783Y00020303D01*
X00030283Y00022500D02*
X00030283Y00022500D01*
X00030284Y00022529D01*
X00030287Y00022557D01*
X00030292Y00022585D01*
X00030299Y00022613D01*
X00030309Y00022640D01*
X00030320Y00022666D01*
X00030333Y00022692D01*
X00030348Y00022716D01*
X00030364Y00022740D01*
X00030382Y00022762D01*
X00030402Y00022782D01*
X00030423Y00022802D01*
X00030446Y00022819D01*
X00030470Y00022835D01*
X00030495Y00022849D01*
X00030520Y00022861D01*
X00030547Y00022872D01*
X00030574Y00022880D01*
X00030602Y00022887D01*
X00030631Y00022891D01*
X00031036Y00022939D01*
X00031069Y00022941D01*
X00031102Y00022941D01*
X00031136Y00022938D01*
X00031168Y00022932D01*
X00031200Y00022923D01*
X00031232Y00022912D01*
X00031262Y00022898D01*
X00031291Y00022882D01*
X00031318Y00022863D01*
X00031344Y00022842D01*
X00031368Y00022819D01*
X00031389Y00022794D01*
X00031409Y00022767D01*
X00031426Y00022739D01*
X00031441Y00022709D01*
X00031454Y00022678D01*
X00031463Y00022647D01*
X00031470Y00022614D01*
X00031474Y00022581D01*
X00031476Y00022548D01*
X00031476Y00012652D01*
X00031475Y00012621D01*
X00031471Y00012590D01*
X00031465Y00012560D01*
X00031457Y00012530D01*
X00031446Y00012501D01*
X00031433Y00012473D01*
X00031418Y00012446D01*
X00031400Y00012420D01*
X00031381Y00012396D01*
X00031360Y00012373D01*
X00031337Y00012352D01*
X00031313Y00012333D01*
X00031287Y00012316D01*
X00031260Y00012301D01*
X00031232Y00012288D01*
X00031203Y00012277D01*
X00031173Y00012269D01*
X00031142Y00012263D01*
X00031112Y00012259D01*
X00031081Y00012258D01*
X00030675Y00012260D01*
X00030644Y00012261D01*
X00030614Y00012265D01*
X00030583Y00012271D01*
X00030554Y00012280D01*
X00030525Y00012290D01*
X00030497Y00012303D01*
X00030470Y00012319D01*
X00030444Y00012336D01*
X00030420Y00012355D01*
X00030398Y00012376D01*
X00030377Y00012399D01*
X00030358Y00012423D01*
X00030341Y00012449D01*
X00030326Y00012475D01*
X00030313Y00012503D01*
X00030302Y00012532D01*
X00030294Y00012562D01*
X00030288Y00012592D01*
X00030284Y00012623D01*
X00030283Y00012654D01*
X00030283Y00022500D01*
X00004891Y00007499D02*
X00004891Y00007499D01*
X00004863Y00007500D01*
X00004835Y00007503D01*
X00004808Y00007508D01*
X00004781Y00007515D01*
X00004755Y00007524D01*
X00004729Y00007534D01*
X00004704Y00007547D01*
X00004680Y00007561D01*
X00004657Y00007576D01*
X00004635Y00007594D01*
X00004615Y00007612D01*
X00004596Y00007633D01*
X00004578Y00007654D01*
X00004562Y00007677D01*
X00004547Y00007700D01*
X00004535Y00007725D01*
X00004524Y00007751D01*
X00004515Y00007777D01*
X00004507Y00007804D01*
X00004502Y00007831D01*
X00004442Y00008205D01*
X00004438Y00008239D01*
X00004437Y00008273D01*
X00004439Y00008307D01*
X00004444Y00008340D01*
X00004452Y00008374D01*
X00004462Y00008406D01*
X00004476Y00008437D01*
X00004492Y00008467D01*
X00004510Y00008496D01*
X00004531Y00008523D01*
X00004554Y00008548D01*
X00004580Y00008570D01*
X00004607Y00008591D01*
X00004636Y00008609D01*
X00004666Y00008625D01*
X00004697Y00008638D01*
X00004730Y00008648D01*
X00004763Y00008655D01*
X00004797Y00008659D01*
X00004831Y00008661D01*
X00014662Y00008661D01*
X00014696Y00008659D01*
X00014730Y00008655D01*
X00014763Y00008648D01*
X00014796Y00008638D01*
X00014827Y00008625D01*
X00014858Y00008609D01*
X00014886Y00008591D01*
X00014913Y00008570D01*
X00014939Y00008548D01*
X00014962Y00008523D01*
X00014983Y00008496D01*
X00015001Y00008467D01*
X00015017Y00008437D01*
X00015031Y00008406D01*
X00015041Y00008374D01*
X00015049Y00008340D01*
X00015054Y00008307D01*
X00015056Y00008273D01*
X00015055Y00008239D01*
X00015051Y00008205D01*
X00014991Y00007831D01*
X00014986Y00007804D01*
X00014978Y00007777D01*
X00014969Y00007751D01*
X00014958Y00007725D01*
X00014946Y00007700D01*
X00014931Y00007677D01*
X00014915Y00007654D01*
X00014897Y00007633D01*
X00014878Y00007612D01*
X00014858Y00007594D01*
X00014836Y00007576D01*
X00014813Y00007561D01*
X00014789Y00007547D01*
X00014764Y00007534D01*
X00014738Y00007524D01*
X00014712Y00007515D01*
X00014685Y00007508D01*
X00014658Y00007503D01*
X00014630Y00007500D01*
X00014602Y00007499D01*
X00004891Y00007499D01*
X00004874Y00016161D02*
X00004874Y00016161D01*
X00004845Y00016162D01*
X00004815Y00016165D01*
X00004786Y00016171D01*
X00004758Y00016179D01*
X00004730Y00016188D01*
X00004702Y00016200D01*
X00004676Y00016214D01*
X00004651Y00016230D01*
X00004627Y00016248D01*
X00004605Y00016267D01*
X00004584Y00016288D01*
X00004565Y00016311D01*
X00004548Y00016335D01*
X00004532Y00016360D01*
X00004518Y00016386D01*
X00004507Y00016414D01*
X00004497Y00016442D01*
X00004490Y00016470D01*
X00004484Y00016500D01*
X00004481Y00016529D01*
X00004457Y00016903D01*
X00004456Y00016935D01*
X00004458Y00016967D01*
X00004463Y00016999D01*
X00004470Y00017031D01*
X00004479Y00017061D01*
X00004492Y00017091D01*
X00004506Y00017120D01*
X00004523Y00017147D01*
X00004542Y00017173D01*
X00004563Y00017198D01*
X00004586Y00017220D01*
X00004610Y00017241D01*
X00004637Y00017260D01*
X00004665Y00017276D01*
X00004694Y00017290D01*
X00004724Y00017301D01*
X00004754Y00017311D01*
X00004786Y00017317D01*
X00004818Y00017321D01*
X00004850Y00017322D01*
X00014727Y00017322D01*
X00014759Y00017321D01*
X00014791Y00017317D01*
X00014822Y00017311D01*
X00014853Y00017301D01*
X00014883Y00017290D01*
X00014912Y00017276D01*
X00014940Y00017260D01*
X00014966Y00017241D01*
X00014991Y00017220D01*
X00015014Y00017198D01*
X00015035Y00017173D01*
X00015054Y00017147D01*
X00015071Y00017120D01*
X00015085Y00017091D01*
X00015097Y00017061D01*
X00015107Y00017031D01*
X00015114Y00016999D01*
X00015119Y00016967D01*
X00015120Y00016935D01*
X00015120Y00016903D01*
X00015095Y00016529D01*
X00015092Y00016500D01*
X00015087Y00016470D01*
X00015080Y00016442D01*
X00015070Y00016414D01*
X00015059Y00016386D01*
X00015045Y00016360D01*
X00015029Y00016335D01*
X00015012Y00016311D01*
X00014993Y00016288D01*
X00014972Y00016267D01*
X00014949Y00016248D01*
X00014926Y00016230D01*
X00014901Y00016214D01*
X00014874Y00016200D01*
X00014847Y00016188D01*
X00014819Y00016179D01*
X00014791Y00016171D01*
X00014762Y00016165D01*
X00014732Y00016162D01*
X00014703Y00016161D01*
X00004874Y00016161D01*
X00002815Y00025984D02*
X00002815Y00025984D01*
X00002846Y00025982D01*
X00002878Y00025979D01*
X00002909Y00025972D01*
X00002940Y00025963D01*
X00002969Y00025952D01*
X00002998Y00025938D01*
X00003026Y00025922D01*
X00003052Y00025904D01*
X00003077Y00025884D01*
X00003099Y00025862D01*
X00003120Y00025838D01*
X00003139Y00025812D01*
X00003156Y00025785D01*
X00003171Y00025757D01*
X00003183Y00025728D01*
X00003193Y00025697D01*
X00003201Y00025667D01*
X00003206Y00025635D01*
X00003208Y00025603D01*
X00003208Y00025571D01*
X00003190Y00025197D01*
X00003188Y00025168D01*
X00003183Y00025138D01*
X00003176Y00025109D01*
X00003166Y00025080D01*
X00003155Y00025053D01*
X00003142Y00025026D01*
X00003126Y00025000D01*
X00003109Y00024976D01*
X00003089Y00024953D01*
X00003069Y00024931D01*
X00003046Y00024911D01*
X00003022Y00024893D01*
X00002997Y00024877D01*
X00002971Y00024863D01*
X00002943Y00024851D01*
X00002915Y00024840D01*
X00002886Y00024833D01*
X00002857Y00024827D01*
X00002827Y00024823D01*
X00002797Y00024822D01*
X00000999Y00024822D01*
X00000843Y00024810D01*
X00000690Y00024773D01*
X00000546Y00024713D01*
X00000412Y00024631D01*
X00000292Y00024529D01*
X00000190Y00024410D01*
X00000108Y00024276D01*
X00000048Y00024131D01*
X00000012Y00023979D01*
X00000000Y00023822D01*
X00000000Y00018322D01*
X00000012Y00018166D01*
X00000048Y00018013D01*
X00000108Y00017868D01*
X00000190Y00017735D01*
X00000292Y00017615D01*
X00000412Y00017513D01*
X00000546Y00017431D01*
X00000690Y00017371D01*
X00000843Y00017335D01*
X00000999Y00017322D01*
X00002818Y00017322D01*
X00002850Y00017321D01*
X00002882Y00017317D01*
X00002914Y00017311D01*
X00002944Y00017301D01*
X00002974Y00017290D01*
X00003003Y00017276D01*
X00003031Y00017260D01*
X00003058Y00017241D01*
X00003082Y00017220D01*
X00003105Y00017198D01*
X00003126Y00017173D01*
X00003145Y00017147D01*
X00003162Y00017120D01*
X00003176Y00017091D01*
X00003189Y00017061D01*
X00003198Y00017031D01*
X00003205Y00016999D01*
X00003210Y00016967D01*
X00003212Y00016935D01*
X00003211Y00016903D01*
X00003187Y00016529D01*
X00003184Y00016500D01*
X00003178Y00016470D01*
X00003171Y00016442D01*
X00003161Y00016414D01*
X00003150Y00016386D01*
X00003136Y00016360D01*
X00003120Y00016335D01*
X00003103Y00016311D01*
X00003084Y00016288D01*
X00003063Y00016267D01*
X00003041Y00016248D01*
X00003017Y00016230D01*
X00002992Y00016214D01*
X00002966Y00016200D01*
X00002938Y00016188D01*
X00002910Y00016179D01*
X00002882Y00016171D01*
X00002853Y00016165D01*
X00002823Y00016162D01*
X00002794Y00016161D01*
X00000999Y00016161D01*
X00000843Y00016149D01*
X00000690Y00016112D01*
X00000546Y00016052D01*
X00000412Y00015970D01*
X00000292Y00015868D01*
X00000190Y00015749D01*
X00000108Y00015615D01*
X00000048Y00015470D01*
X00000012Y00015317D01*
X00000000Y00015161D01*
X00000000Y00009661D01*
X00000012Y00009504D01*
X00000048Y00009352D01*
X00000108Y00009207D01*
X00000190Y00009073D01*
X00000292Y00008954D01*
X00000412Y00008852D01*
X00000546Y00008770D01*
X00000690Y00008710D01*
X00000843Y00008673D01*
X00000999Y00008661D01*
X00002837Y00008661D01*
X00002871Y00008659D01*
X00002905Y00008655D01*
X00002938Y00008648D01*
X00002971Y00008638D01*
X00003002Y00008625D01*
X00003033Y00008609D01*
X00003061Y00008591D01*
X00003088Y00008570D01*
X00003114Y00008548D01*
X00003137Y00008523D01*
X00003158Y00008496D01*
X00003176Y00008467D01*
X00003192Y00008437D01*
X00003206Y00008406D01*
X00003216Y00008374D01*
X00003224Y00008340D01*
X00003229Y00008307D01*
X00003231Y00008273D01*
X00003230Y00008239D01*
X00003226Y00008205D01*
X00003166Y00007831D01*
X00003161Y00007804D01*
X00003153Y00007777D01*
X00003144Y00007751D01*
X00003133Y00007725D01*
X00003121Y00007700D01*
X00003106Y00007677D01*
X00003090Y00007654D01*
X00003072Y00007633D01*
X00003053Y00007612D01*
X00003033Y00007594D01*
X00003011Y00007576D01*
X00002988Y00007561D01*
X00002964Y00007547D01*
X00002939Y00007534D01*
X00002913Y00007524D01*
X00002887Y00007515D01*
X00002860Y00007508D01*
X00002833Y00007503D01*
X00002805Y00007500D01*
X00002777Y00007499D01*
X00000999Y00007499D01*
X00000843Y00007487D01*
X00000690Y00007451D01*
X00000546Y00007391D01*
X00000412Y00007309D01*
X00000292Y00007207D01*
X00000190Y00007087D01*
X00000108Y00006953D01*
X00000048Y00006809D01*
X00000012Y00006656D01*
X00000000Y00006499D01*
X00000000Y00000999D01*
X00000012Y00000843D01*
X00000048Y00000690D01*
X00000108Y00000546D01*
X00000190Y00000412D01*
X00000292Y00000292D01*
X00000412Y00000190D01*
X00000546Y00000108D01*
X00000690Y00000048D01*
X00000843Y00000012D01*
X00000999Y00000000D01*
X00020499Y00000000D01*
X00020656Y00000012D01*
X00020809Y00000048D01*
X00020953Y00000108D01*
X00021087Y00000190D01*
X00021207Y00000292D01*
X00021309Y00000412D01*
X00021391Y00000546D01*
X00021451Y00000690D01*
X00021487Y00000843D01*
X00021499Y00000999D01*
X00021499Y00006499D01*
X00021487Y00006656D01*
X00021451Y00006809D01*
X00021391Y00006953D01*
X00021309Y00007087D01*
X00021207Y00007207D01*
X00021087Y00007309D01*
X00020953Y00007391D01*
X00020809Y00007451D01*
X00020656Y00007487D01*
X00020499Y00007500D01*
X00020499Y00007499D01*
X00016716Y00007499D01*
X00016688Y00007500D01*
X00016660Y00007503D01*
X00016633Y00007508D01*
X00016606Y00007515D01*
X00016580Y00007524D01*
X00016554Y00007534D01*
X00016529Y00007547D01*
X00016505Y00007561D01*
X00016482Y00007576D01*
X00016460Y00007594D01*
X00016440Y00007612D01*
X00016421Y00007633D01*
X00016403Y00007654D01*
X00016387Y00007677D01*
X00016372Y00007700D01*
X00016360Y00007725D01*
X00016349Y00007751D01*
X00016340Y00007777D01*
X00016332Y00007804D01*
X00016327Y00007831D01*
X00016267Y00008205D01*
X00016263Y00008239D01*
X00016262Y00008273D01*
X00016264Y00008307D01*
X00016269Y00008340D01*
X00016277Y00008374D01*
X00016287Y00008406D01*
X00016301Y00008437D01*
X00016317Y00008467D01*
X00016335Y00008496D01*
X00016356Y00008523D01*
X00016379Y00008548D01*
X00016405Y00008570D01*
X00016432Y00008591D01*
X00016461Y00008609D01*
X00016491Y00008625D01*
X00016522Y00008638D01*
X00016555Y00008648D01*
X00016588Y00008655D01*
X00016622Y00008659D01*
X00016656Y00008661D01*
X00020499Y00008661D01*
X00020656Y00008673D01*
X00020809Y00008710D01*
X00020953Y00008770D01*
X00021087Y00008852D01*
X00021207Y00008954D01*
X00021309Y00009073D01*
X00021391Y00009207D01*
X00021451Y00009352D01*
X00021487Y00009504D01*
X00021499Y00009661D01*
X00021499Y00010848D01*
X00021501Y00010878D01*
X00021504Y00010908D01*
X00021510Y00010938D01*
X00021518Y00010967D01*
X00021528Y00010995D01*
X00021540Y00011023D01*
X00021555Y00011049D01*
X00021571Y00011074D01*
X00021589Y00011098D01*
X00021609Y00011121D01*
X00021631Y00011142D01*
X00021654Y00011161D01*
X00021679Y00011178D01*
X00021704Y00011194D01*
X00021731Y00011207D01*
X00021759Y00011219D01*
X00021788Y00011228D01*
X00021817Y00011235D01*
X00021847Y00011239D01*
X00021877Y00011242D01*
X00022373Y00011262D01*
X00022405Y00011262D01*
X00022436Y00011260D01*
X00022468Y00011255D01*
X00022499Y00011247D01*
X00022529Y00011237D01*
X00022558Y00011224D01*
X00022586Y00011210D01*
X00022613Y00011193D01*
X00022638Y00011174D01*
X00022662Y00011153D01*
X00022684Y00011130D01*
X00022704Y00011105D01*
X00022722Y00011079D01*
X00022738Y00011052D01*
X00022751Y00011023D01*
X00022763Y00010993D01*
X00022772Y00010963D01*
X00022778Y00010932D01*
X00022782Y00010900D01*
X00022783Y00010869D01*
X00022783Y00007011D01*
X00022795Y00006855D01*
X00022832Y00006702D01*
X00022892Y00006557D01*
X00022974Y00006424D01*
X00023076Y00006304D01*
X00023195Y00006202D01*
X00023329Y00006120D01*
X00023474Y00006060D01*
X00023627Y00006024D01*
X00023783Y00006011D01*
X00029283Y00006011D01*
X00029439Y00006024D01*
X00029592Y00006060D01*
X00029737Y00006120D01*
X00029871Y00006202D01*
X00029990Y00006304D01*
X00030092Y00006424D01*
X00030174Y00006557D01*
X00030234Y00006702D01*
X00030271Y00006855D01*
X00030283Y00007011D01*
X00030283Y00010613D01*
X00030284Y00010644D01*
X00030288Y00010675D01*
X00030294Y00010705D01*
X00030302Y00010735D01*
X00030313Y00010763D01*
X00030326Y00010792D01*
X00030341Y00010818D01*
X00030358Y00010844D01*
X00030377Y00010868D01*
X00030398Y00010891D01*
X00030420Y00010912D01*
X00030444Y00010931D01*
X00030470Y00010948D01*
X00030497Y00010963D01*
X00030525Y00010976D01*
X00030554Y00010987D01*
X00030583Y00010996D01*
X00030614Y00011002D01*
X00030644Y00011006D01*
X00030675Y00011007D01*
X00031081Y00011009D01*
X00031112Y00011007D01*
X00031142Y00011004D01*
X00031173Y00010998D01*
X00031203Y00010990D01*
X00031232Y00010979D01*
X00031260Y00010966D01*
X00031287Y00010951D01*
X00031313Y00010934D01*
X00031337Y00010915D01*
X00031360Y00010894D01*
X00031381Y00010871D01*
X00031400Y00010847D01*
X00031418Y00010821D01*
X00031433Y00010794D01*
X00031446Y00010766D01*
X00031457Y00010737D01*
X00031465Y00010707D01*
X00031471Y00010677D01*
X00031475Y00010646D01*
X00031476Y00010615D01*
X00031476Y00006905D01*
X00031488Y00006749D01*
X00031525Y00006596D01*
X00031585Y00006451D01*
X00031667Y00006317D01*
X00031769Y00006198D01*
X00031888Y00006096D01*
X00032022Y00006014D01*
X00032167Y00005954D01*
X00032319Y00005917D01*
X00032476Y00005905D01*
X00037976Y00005905D01*
X00038132Y00005917D01*
X00038285Y00005954D01*
X00038430Y00006014D01*
X00038564Y00006096D01*
X00038683Y00006198D01*
X00038785Y00006317D01*
X00038867Y00006451D01*
X00038927Y00006596D01*
X00038964Y00006749D01*
X00038976Y00006905D01*
X00038976Y00026405D01*
X00038964Y00026561D01*
X00038927Y00026714D01*
X00038867Y00026859D01*
X00038785Y00026993D01*
X00038683Y00027112D01*
X00038564Y00027214D01*
X00038430Y00027296D01*
X00038285Y00027356D01*
X00038132Y00027393D01*
X00037976Y00027405D01*
X00032476Y00027405D01*
X00032319Y00027393D01*
X00032167Y00027356D01*
X00032022Y00027296D01*
X00031888Y00027214D01*
X00031769Y00027112D01*
X00031667Y00026993D01*
X00031585Y00026859D01*
X00031525Y00026714D01*
X00031488Y00026561D01*
X00031476Y00026405D01*
X00031476Y00026405D01*
X00031476Y00024537D01*
X00031474Y00024504D01*
X00031470Y00024471D01*
X00031463Y00024438D01*
X00031454Y00024406D01*
X00031441Y00024376D01*
X00031426Y00024346D01*
X00031409Y00024317D01*
X00031389Y00024291D01*
X00031368Y00024266D01*
X00031344Y00024243D01*
X00031318Y00024222D01*
X00031291Y00024203D01*
X00031262Y00024186D01*
X00031232Y00024173D01*
X00031200Y00024161D01*
X00031168Y00024153D01*
X00031136Y00024147D01*
X00031102Y00024144D01*
X00031069Y00024143D01*
X00031036Y00024146D01*
X00030631Y00024194D01*
X00030602Y00024198D01*
X00030574Y00024204D01*
X00030547Y00024213D01*
X00030520Y00024223D01*
X00030495Y00024235D01*
X00030470Y00024250D01*
X00030446Y00024266D01*
X00030423Y00024283D01*
X00030402Y00024302D01*
X00030382Y00024323D01*
X00030364Y00024345D01*
X00030348Y00024368D01*
X00030333Y00024393D01*
X00030320Y00024418D01*
X00030309Y00024445D01*
X00030299Y00024472D01*
X00030292Y00024499D01*
X00030287Y00024528D01*
X00030284Y00024556D01*
X00030283Y00024585D01*
X00030283Y00026511D01*
X00030271Y00026668D01*
X00030234Y00026820D01*
X00030174Y00026965D01*
X00030092Y00027099D01*
X00029990Y00027218D01*
X00029871Y00027320D01*
X00029737Y00027402D01*
X00029592Y00027462D01*
X00029439Y00027499D01*
X00029283Y00027511D01*
X00023783Y00027511D01*
X00023627Y00027499D01*
X00023474Y00027462D01*
X00023329Y00027402D01*
X00023195Y00027320D01*
X00023076Y00027218D01*
X00022974Y00027099D01*
X00022892Y00026965D01*
X00022832Y00026820D01*
X00022795Y00026668D01*
X00022783Y00026511D01*
X00022783Y00026511D01*
X00022783Y00022253D01*
X00022782Y00022221D01*
X00022778Y00022189D01*
X00022771Y00022158D01*
X00022762Y00022127D01*
X00022751Y00022097D01*
X00022737Y00022068D01*
X00022720Y00022040D01*
X00022702Y00022014D01*
X00022681Y00021989D01*
X00022659Y00021966D01*
X00022634Y00021945D01*
X00022608Y00021926D01*
X00022581Y00021909D01*
X00022552Y00021895D01*
X00022522Y00021883D01*
X00022492Y00021873D01*
X00022460Y00021866D01*
X00022428Y00021861D01*
X00022396Y00021860D01*
X00022364Y00021860D01*
X00021868Y00021892D01*
X00021838Y00021895D01*
X00021809Y00021900D01*
X00021781Y00021908D01*
X00021752Y00021917D01*
X00021725Y00021929D01*
X00021699Y00021943D01*
X00021674Y00021958D01*
X00021650Y00021976D01*
X00021627Y00021995D01*
X00021606Y00022016D01*
X00021587Y00022038D01*
X00021569Y00022062D01*
X00021553Y00022087D01*
X00021539Y00022113D01*
X00021527Y00022140D01*
X00021517Y00022168D01*
X00021510Y00022197D01*
X00021504Y00022226D01*
X00021501Y00022255D01*
X00021499Y00022285D01*
X00021499Y00023822D01*
X00021487Y00023979D01*
X00021451Y00024131D01*
X00021391Y00024276D01*
X00021309Y00024410D01*
X00021207Y00024529D01*
X00021087Y00024631D01*
X00020953Y00024713D01*
X00020809Y00024773D01*
X00020656Y00024810D01*
X00020499Y00024822D01*
X00020499Y00024822D01*
X00016777Y00024822D01*
X00016747Y00024823D01*
X00016717Y00024827D01*
X00016687Y00024833D01*
X00016658Y00024841D01*
X00016629Y00024851D01*
X00016602Y00024864D01*
X00016575Y00024878D01*
X00016550Y00024895D01*
X00016526Y00024913D01*
X00016503Y00024933D01*
X00016482Y00024955D01*
X00016463Y00024979D01*
X00016446Y00025003D01*
X00016431Y00025030D01*
X00016417Y00025057D01*
X00016406Y00025085D01*
X00016397Y00025114D01*
X00016390Y00025143D01*
X00016386Y00025173D01*
X00016384Y00025204D01*
X00016372Y00025578D01*
X00016372Y00025609D01*
X00016375Y00025640D01*
X00016380Y00025672D01*
X00016388Y00025702D01*
X00016398Y00025732D01*
X00016411Y00025761D01*
X00016425Y00025789D01*
X00016442Y00025815D01*
X00016462Y00025840D01*
X00016483Y00025864D01*
X00016505Y00025886D01*
X00016530Y00025906D01*
X00016556Y00025923D01*
X00016583Y00025939D01*
X00016612Y00025953D01*
X00016641Y00025964D01*
X00016672Y00025972D01*
X00016703Y00025979D01*
X00016734Y00025982D01*
X00016765Y00025984D01*
X00020499Y00025984D01*
X00020656Y00025996D01*
X00020809Y00026033D01*
X00020953Y00026093D01*
X00021087Y00026175D01*
X00021207Y00026277D01*
X00021309Y00026396D01*
X00021391Y00026530D01*
X00021451Y00026675D01*
X00021487Y00026827D01*
X00021499Y00026984D01*
X00021499Y00032484D01*
X00021487Y00032640D01*
X00021451Y00032793D01*
X00021391Y00032938D01*
X00021309Y00033072D01*
X00021207Y00033191D01*
X00021087Y00033293D01*
X00020953Y00033375D01*
X00020809Y00033435D01*
X00020656Y00033471D01*
X00020499Y00033484D01*
X00020499Y00033484D01*
X00000999Y00033484D01*
X00000843Y00033471D01*
X00000690Y00033435D01*
X00000546Y00033375D01*
X00000412Y00033293D01*
X00000292Y00033191D01*
X00000190Y00033072D01*
X00000108Y00032938D01*
X00000048Y00032793D01*
X00000012Y00032640D01*
X00000000Y00032484D01*
X00000000Y00026984D01*
X00000012Y00026827D01*
X00000048Y00026675D01*
X00000108Y00026530D01*
X00000190Y00026396D01*
X00000292Y00026277D01*
X00000412Y00026175D01*
X00000546Y00026093D01*
X00000690Y00026033D01*
X00000843Y00025996D01*
X00000999Y00025984D01*
X00002815Y00025984D01*
M02*