%MOIN*%
%OFA0B0*%
%FSLAX46Y46*%
%IPPOS*%
%LPD*%
%ADD10C,0.0039370078740157488*%
%ADD11R,0.033464566929133861X0.033464566929133861*%
%ADD12C,0.033464566929133861*%
%ADD13C,0.07874015748031496*%
%ADD14C,0.19685039370078741*%
%ADD15R,0.053149606299212608X0.053149606299212608*%
%ADD16O,0.053149606299212608X0.053149606299212608*%
%ADD17R,0.066929133858267723X0.066929133858267723*%
%ADD18O,0.066929133858267723X0.066929133858267723*%
%ADD19R,0.11811023622047245X0.11811023622047245*%
%ADD20C,0.11811023622047245*%
%ADD21R,0.094488188976377951X0.094488188976377951*%
%ADD22C,0.094488188976377951*%
%ADD23R,0.059055118110236227X0.051181102362204731*%
%ADD24R,0.051181102362204731X0.059055118110236227*%
%ADD25R,0.10629921259842522X0.055118110236220472*%
%ADD26R,0.29133858267716539X0.2283464566929134*%
%ADD27R,0.070866141732283464X0.070866141732283464*%
%ADD28C,0.070866141732283464*%
%ADD29R,0.015748031496062995X0.023622047244094488*%
%ADD30C,0.07*%
%ADD31R,0.13779527559055119X0.0905511811023622*%
%ADD32R,0.031496062992125991X0.070866141732283464*%
%ADD33R,0.079921259842519687X0.10433070866141733*%
%ADD44C,0.0039370078740157488*%
%ADD45R,0.033464566929133861X0.033464566929133861*%
%ADD46C,0.033464566929133861*%
%ADD47C,0.07874015748031496*%
%ADD48C,0.19685039370078741*%
%ADD49R,0.053149606299212608X0.053149606299212608*%
%ADD50O,0.053149606299212608X0.053149606299212608*%
%ADD51R,0.066929133858267723X0.066929133858267723*%
%ADD52O,0.066929133858267723X0.066929133858267723*%
%ADD53R,0.11811023622047245X0.11811023622047245*%
%ADD54C,0.11811023622047245*%
%ADD55R,0.094488188976377951X0.094488188976377951*%
%ADD56C,0.094488188976377951*%
%ADD57R,0.059055118110236227X0.051181102362204731*%
%ADD58R,0.051181102362204731X0.059055118110236227*%
%ADD59R,0.10629921259842522X0.055118110236220472*%
%ADD60R,0.29133858267716539X0.2283464566929134*%
%ADD61R,0.070866141732283464X0.070866141732283464*%
%ADD62C,0.070866141732283464*%
%ADD63R,0.015748031496062995X0.023622047244094488*%
%ADD64C,0.07*%
%ADD65R,0.13779527559055119X0.0905511811023622*%
%ADD66R,0.031496062992125991X0.070866141732283464*%
%ADD67R,0.079921259842519687X0.10433070866141733*%
%LPD*%
G01*
D10*
D11*
X-0005157401Y0004896259D02*
X0000337598Y0000821259D03*
D12*
X0000386810Y0000821259D03*
X0000436023Y0000821259D03*
X0000485236Y0000821259D03*
X0000534448Y0000821259D03*
X0000583661Y0000821259D03*
X0000632873Y0000821259D03*
X0000682086Y0000821259D03*
X0000731299Y0000821259D03*
X0000780511Y0000821259D03*
D13*
X0001401771Y0000171259D03*
X0001173425Y0000171259D03*
X0002748425Y0000171259D03*
X0002976771Y0000171259D03*
D11*
X0002062598Y0001121259D03*
D12*
X0002111810Y0001121259D03*
D14*
X0000590551Y0000383700D03*
D15*
X0000722598Y0000241259D03*
D16*
X0000801338Y0000241259D03*
X0000880078Y0000241259D03*
D17*
X0001137598Y0000846259D03*
D18*
X0001037598Y0000846259D03*
X0001137598Y0000746259D03*
X0001037598Y0000746259D03*
X0001137598Y0000646259D03*
X0001037598Y0000646259D03*
D19*
X0001762598Y0000371259D03*
D20*
X0001962598Y0000371259D03*
D14*
X0002559055Y0000383700D03*
D21*
X0000118110Y0000393700D03*
D22*
X0000255905Y0000393700D03*
D15*
X0001562598Y0000716259D03*
D16*
X0001562598Y0000637519D03*
D19*
X0002787598Y0000396259D03*
D20*
X0002987598Y0000396259D03*
D23*
X0002959448Y0000971259D03*
X0003065747Y0000971259D03*
D24*
X0002912598Y0000593110D03*
X0002912598Y0000699409D03*
D25*
X0002787795Y0000736023D03*
X0002787795Y0000556495D03*
D26*
X0002512913Y0000646259D03*
D27*
X0002962598Y0001121259D03*
D28*
X0003062598Y0001121259D03*
D29*
X0001387598Y0000705511D03*
X0001387598Y0000737007D03*
X0001437598Y0000705511D03*
X0001437598Y0000737007D03*
D30*
X0002012598Y0000846259D03*
X0001812598Y0000846259D03*
D31*
X0001968897Y0000221259D03*
X0001756299Y0000221259D03*
D11*
X0001237598Y0000621259D03*
D12*
X0001286810Y0000621259D03*
X0001336023Y0000621259D03*
X0001385236Y0000621259D03*
D17*
X0002812598Y0001071259D03*
D18*
X0002712598Y0001071259D03*
X0002612598Y0001071259D03*
X0002512598Y0001071259D03*
X0002412598Y0001071259D03*
X0002312598Y0001071259D03*
D11*
X0002237598Y0000646259D03*
D12*
X0002286810Y0000646259D03*
X0002336023Y0000646259D03*
D32*
X0000946850Y0000458661D03*
X0001021653Y0000458661D03*
X0000984251Y0000328740D03*
X0001537401Y0000458661D03*
X0001612204Y0000458661D03*
X0001574803Y0000328740D03*
X0002127952Y0000458661D03*
X0002202755Y0000458661D03*
X0002165354Y0000328740D03*
D31*
X0000318897Y0000221259D03*
X0000106299Y0000221259D03*
D25*
X0000637795Y0000711023D03*
X0000637795Y0000531495D03*
D26*
X0000362913Y0000621259D03*
D24*
X0000762598Y0000568110D03*
X0000762598Y0000674409D03*
D33*
X0003037598Y0000563976D03*
X0003037598Y0000728543D03*
G04 next file*
%LPD*%
G04 #@! TF.FileFunction,Soldermask,Bot*
G04 Gerber Fmt 4.6, Leading zero omitted, Abs format (unit mm)*
G04 Created by KiCad (PCBNEW 4.0.7) date 08/24/19 10:44:38*
G01*
G04 APERTURE LIST*
G04 APERTURE END LIST*
D44*
D45*
X-0005157401Y0006471063D02*
X0000337598Y0002396063D03*
D46*
X0000386810Y0002396063D03*
X0000436023Y0002396063D03*
X0000485236Y0002396063D03*
X0000534448Y0002396063D03*
X0000583661Y0002396063D03*
X0000632873Y0002396063D03*
X0000682086Y0002396063D03*
X0000731299Y0002396063D03*
X0000780511Y0002396063D03*
D47*
X0001401771Y0001746063D03*
X0001173425Y0001746063D03*
X0002748425Y0001746063D03*
X0002976771Y0001746063D03*
D45*
X0002062598Y0002696063D03*
D46*
X0002111810Y0002696063D03*
D48*
X0000590551Y0001958504D03*
D49*
X0000722598Y0001816063D03*
D50*
X0000801338Y0001816063D03*
X0000880078Y0001816063D03*
D51*
X0001137598Y0002421063D03*
D52*
X0001037598Y0002421063D03*
X0001137598Y0002321063D03*
X0001037598Y0002321063D03*
X0001137598Y0002221063D03*
X0001037598Y0002221063D03*
D53*
X0001762598Y0001946063D03*
D54*
X0001962598Y0001946063D03*
D48*
X0002559055Y0001958504D03*
D55*
X0000118110Y0001968504D03*
D56*
X0000255905Y0001968504D03*
D49*
X0001562598Y0002291063D03*
D50*
X0001562598Y0002212323D03*
D53*
X0002787598Y0001971063D03*
D54*
X0002987598Y0001971063D03*
D57*
X0002959448Y0002546063D03*
X0003065747Y0002546063D03*
D58*
X0002912598Y0002167913D03*
X0002912598Y0002274212D03*
D59*
X0002787795Y0002310826D03*
X0002787795Y0002131299D03*
D60*
X0002512913Y0002221063D03*
D61*
X0002962598Y0002696063D03*
D62*
X0003062598Y0002696063D03*
D63*
X0001387598Y0002280315D03*
X0001387598Y0002311811D03*
X0001437598Y0002280315D03*
X0001437598Y0002311811D03*
D64*
X0002012598Y0002421063D03*
X0001812598Y0002421063D03*
D65*
X0001968897Y0001796063D03*
X0001756299Y0001796063D03*
D45*
X0001237598Y0002196063D03*
D46*
X0001286810Y0002196063D03*
X0001336023Y0002196063D03*
X0001385236Y0002196063D03*
D51*
X0002812598Y0002646063D03*
D52*
X0002712598Y0002646063D03*
X0002612598Y0002646063D03*
X0002512598Y0002646063D03*
X0002412598Y0002646063D03*
X0002312598Y0002646063D03*
D45*
X0002237598Y0002221063D03*
D46*
X0002286810Y0002221063D03*
X0002336023Y0002221063D03*
D66*
X0000946850Y0002033464D03*
X0001021653Y0002033464D03*
X0000984251Y0001903543D03*
X0001537401Y0002033464D03*
X0001612204Y0002033464D03*
X0001574803Y0001903543D03*
X0002127952Y0002033464D03*
X0002202755Y0002033464D03*
X0002165354Y0001903543D03*
D65*
X0000318897Y0001796063D03*
X0000106299Y0001796063D03*
D59*
X0000637795Y0002285826D03*
X0000637795Y0002106299D03*
D60*
X0000362913Y0002196063D03*
D58*
X0000762598Y0002142913D03*
X0000762598Y0002249212D03*
D67*
X0003037598Y0002138779D03*
X0003037598Y0002303346D03*
M02*