<?xml version="1.0" standalone="no"?>
 <!DOCTYPE svg PUBLIC "-//W3C//DTD SVG 1.1//EN" 
 "http://www.w3.org/Graphics/SVG/1.1/DTD/svg11.dtd"> 
<svg xmlns="http://www.w3.org/2000/svg" version="1.1" 
    width="27.94cm" height="21.59cm" viewBox="0 0 110000 85000 ">
<title>SVG Picture created as base.sch.svg date 2017/08/17 20:11:57 </title>
  <desc>Picture generated by Eeschema-SVG </desc>
<g style="fill:#000000; fill-opacity:1;stroke:#000000; stroke-opacity:1;
stroke-linecap:round; stroke-linejoin:round; "
 transform="translate(0 0) scale(1 1)">
</g>
<g style="fill:#000000; fill-opacity:0.0; 
stroke:#000000; stroke-width:0; stroke-opacity:1; 
stroke-linecap:round; stroke-linejoin:round;">
</g>
<g style="fill:#840000; fill-opacity:0.0; 
stroke:#840000; stroke-width:0; stroke-opacity:1; 
stroke-linecap:round; stroke-linejoin:round;">
</g>
<g style="fill:#840000; fill-opacity:0.0; 
stroke:#840000; stroke-width:60; stroke-opacity:1; 
stroke-linecap:round; stroke-linejoin:round;">
<polyline fill="none;"
points="19500,16000
19000,16000
19000,16500
18500,16000
19000,15500
19000,16000
" /> 
</g>
<g style="fill:#008484; fill-opacity:0.0; 
stroke:#008484; stroke-width:60; stroke-opacity:1; 
stroke-linecap:round; stroke-linejoin:round;">
<path d="M17710 16380
L17690 16430
L17690 16500
L17710 16570
L17760 16620
L17810 16640
L17900 16660
L17970 16660
L18070 16640
L18110 16620
L18160 16570
L18190 16500
L18190 16450
L18160 16380
L18140 16360
L17970 16360
L17970 16450
" />
<path d="M18190 16140
L17690 16140
L18190 15860
L17690 15860
" />
<path d="M18190 15620
L17690 15620
L17690 15500
L17710 15430
L17760 15380
L17810 15360
L17900 15340
L17970 15340
L18070 15360
L18110 15380
L18160 15430
L18190 15500
L18190 15620
" />
</g>
<g style="fill:#008484; fill-opacity:0.0; 
stroke:#008484; stroke-width:0; stroke-opacity:1; 
stroke-linecap:round; stroke-linejoin:round;">
</g>
<g style="fill:#840000; fill-opacity:0.0; 
stroke:#840000; stroke-width:0; stroke-opacity:1; 
stroke-linecap:round; stroke-linejoin:round;">
</g>
<g style="fill:#840000; fill-opacity:0.0; 
stroke:#840000; stroke-width:60; stroke-opacity:1; 
stroke-linecap:round; stroke-linejoin:round;">
<path d="M9000 9000
L9000 9000
" />
<polyline fill="none;"
points="9000,9000
9000,8500
8250,8000
9000,7500
9750,8000
9000,8500
" /> 
</g>
<g style="fill:#008484; fill-opacity:0.0; 
stroke:#008484; stroke-width:60; stroke-opacity:1; 
stroke-linecap:round; stroke-linejoin:round;">
<path d="M7270 7460
L7270 6960
L7460 6960
L7510 6980
L7530 7000
L7550 7050
L7550 7120
L7530 7170
L7510 7190
L7460 7220
L7270 7220
" />
<path d="M7720 6960
L7840 7460
L7940 7100
L8030 7460
L8150 6960
" />
<path d="M8620 7460
L8460 7220
" />
<path d="M8340 7460
L8340 6960
L8530 6960
L8580 6980
L8600 7000
L8620 7050
L8620 7120
L8600 7170
L8580 7190
L8530 7220
L8340 7220
" />
<path d="M8720 7500
L9100 7500
" />
<path d="M9390 7190
L9220 7190
" />
<path d="M9220 7460
L9220 6960
L9460 6960
" />
<path d="M9890 7460
L9650 7460
L9650 6960
" />
<path d="M10030 7310
L10260 7310
" />
<path d="M9980 7460
L10140 6960
L10310 7460
" />
<path d="M10740 6980
L10690 6960
L10620 6960
L10550 6980
L10500 7030
L10480 7080
L10460 7170
L10460 7240
L10480 7340
L10500 7380
L10550 7430
L10620 7460
L10670 7460
L10740 7430
L10760 7410
L10760 7240
L10670 7240
" />
</g>
<g style="fill:#008484; fill-opacity:0.0; 
stroke:#008484; stroke-width:0; stroke-opacity:1; 
stroke-linecap:round; stroke-linejoin:round;">
</g>
<g style="fill:#840000; fill-opacity:0.0; 
stroke:#840000; stroke-width:0; stroke-opacity:1; 
stroke-linecap:round; stroke-linejoin:round;">
</g>
<g style="fill:#840000; fill-opacity:0.0; 
stroke:#840000; stroke-width:60; stroke-opacity:1; 
stroke-linecap:round; stroke-linejoin:round;">
<path d="M12500 9000
L12500 9000
" />
<polyline fill="none;"
points="12500,9000
12500,8500
11750,8000
12500,7500
13250,8000
12500,8500
" /> 
</g>
<g style="fill:#008484; fill-opacity:0.0; 
stroke:#008484; stroke-width:60; stroke-opacity:1; 
stroke-linecap:round; stroke-linejoin:round;">
<path d="M10770 7460
L10770 6960
L10960 6960
L11010 6980
L11030 7000
L11050 7050
L11050 7120
L11030 7170
L11010 7190
L10960 7220
L10770 7220
" />
<path d="M11220 6960
L11340 7460
L11440 7100
L11530 7460
L11650 6960
" />
<path d="M12120 7460
L11960 7220
" />
<path d="M11840 7460
L11840 6960
L12030 6960
L12080 6980
L12100 7000
L12120 7050
L12120 7120
L12100 7170
L12080 7190
L12030 7220
L11840 7220
" />
<path d="M12220 7500
L12600 7500
" />
<path d="M12890 7190
L12720 7190
" />
<path d="M12720 7460
L12720 6960
L12960 6960
" />
<path d="M13390 7460
L13150 7460
L13150 6960
" />
<path d="M13530 7310
L13760 7310
" />
<path d="M13480 7460
L13640 6960
L13810 7460
" />
<path d="M14240 6980
L14190 6960
L14120 6960
L14050 6980
L14000 7030
L13980 7080
L13960 7170
L13960 7240
L13980 7340
L14000 7380
L14050 7430
L14120 7460
L14170 7460
L14240 7430
L14260 7410
L14260 7240
L14170 7240
" />
</g>
<g style="fill:#008484; fill-opacity:0.0; 
stroke:#008484; stroke-width:0; stroke-opacity:1; 
stroke-linecap:round; stroke-linejoin:round;">
</g>
<g style="fill:#840000; fill-opacity:0.0; 
stroke:#840000; stroke-width:0; stroke-opacity:1; 
stroke-linecap:round; stroke-linejoin:round;">
</g>
<g style="fill:#840000; fill-opacity:0.0; 
stroke:#840000; stroke-width:60; stroke-opacity:1; 
stroke-linecap:round; stroke-linejoin:round;">
<polyline fill="none;"
points="12500,10000
12500,10500
13000,10500
12500,11000
12000,10500
12500,10500
" /> 
</g>
<g style="fill:#008484; fill-opacity:0.0; 
stroke:#008484; stroke-width:60; stroke-opacity:1; 
stroke-linecap:round; stroke-linejoin:round;">
<path d="M12120 11280
L12070 11260
L12000 11260
L11930 11280
L11880 11330
L11860 11380
L11840 11470
L11840 11540
L11860 11640
L11880 11680
L11930 11730
L12000 11760
L12050 11760
L12120 11730
L12140 11710
L12140 11540
L12050 11540
" />
<path d="M12360 11760
L12360 11260
L12640 11760
L12640 11260
" />
<path d="M12880 11760
L12880 11260
L13000 11260
L13070 11280
L13120 11330
L13140 11380
L13160 11470
L13160 11540
L13140 11640
L13120 11680
L13070 11730
L13000 11760
L12880 11760
" />
</g>
<g style="fill:#008484; fill-opacity:0.0; 
stroke:#008484; stroke-width:0; stroke-opacity:1; 
stroke-linecap:round; stroke-linejoin:round;">
</g>
<g style="fill:#840000; fill-opacity:0.0; 
stroke:#840000; stroke-width:0; stroke-opacity:1; 
stroke-linecap:round; stroke-linejoin:round;">
</g>
<g style="fill:#840000; fill-opacity:0.0; 
stroke:#840000; stroke-width:60; stroke-opacity:1; 
stroke-linecap:round; stroke-linejoin:round;">
<polyline fill="none;"
points="9300,10500
9000,11000
" /> 
<polyline fill="none;"
points="9000,10000
9000,11000
" /> 
<polyline fill="none;"
points="9000,11000
8700,10500
" /> 
</g>
<g style="fill:#008484; fill-opacity:0.0; 
stroke:#008484; stroke-width:60; stroke-opacity:1; 
stroke-linecap:round; stroke-linejoin:round;">
<path d="M7960 11400
L8340 11400
" />
<path d="M8150 11590
L8150 11210
" />
<path d="M8750 11320
L8820 11350
L8840 11370
L8860 11420
L8860 11490
L8840 11540
L8820 11560
L8770 11590
L8580 11590
L8580 11090
L8750 11090
L8790 11110
L8820 11130
L8840 11180
L8840 11230
L8820 11280
L8790 11300
L8750 11320
L8580 11320
" />
<path d="M9060 11440
L9290 11440
" />
<path d="M9010 11590
L9170 11090
L9340 11590
" />
<path d="M9440 11090
L9720 11090
" />
<path d="M9580 11590
L9580 11090
" />
<path d="M9820 11090
L10100 11090
" />
<path d="M9960 11590
L9960 11090
" />
</g>
<g style="fill:#008484; fill-opacity:0.0; 
stroke:#008484; stroke-width:0; stroke-opacity:1; 
stroke-linecap:round; stroke-linejoin:round;">
</g>
<g style="fill:#840000; fill-opacity:0.0; 
stroke:#840000; stroke-width:0; stroke-opacity:1; 
stroke-linecap:round; stroke-linejoin:round;">
</g>
<g style="fill:#840000; fill-opacity:0.0; 
stroke:#840000; stroke-width:200; stroke-opacity:1; 
stroke-linecap:round; stroke-linejoin:round;">
<polyline fill="none;"
points="24200,18800
25800,18800
" /> 
<polyline fill="none;"
points="24200,18200
25800,18200
" /> 
</g>
<g style="fill:#840000; fill-opacity:0.0; 
stroke:#840000; stroke-width:60; stroke-opacity:1; 
stroke-linecap:round; stroke-linejoin:round;">
<path d="M25000 18100
L25000 17000
" />
<path d="M25000 18900
L25000 20000
" />
</g>
<g style="fill:#008484; fill-opacity:0.0; 
stroke:#008484; stroke-width:60; stroke-opacity:1; 
stroke-linecap:round; stroke-linejoin:round;">
<path d="M25650 17710
L25630 17730
L25560 17760
L25510 17760
L25440 17730
L25390 17680
L25370 17640
L25350 17540
L25350 17470
L25370 17380
L25390 17330
L25440 17280
L25510 17260
L25560 17260
L25630 17280
L25650 17300
" />
<path d="M26130 17760
L25850 17760
" />
<path d="M25990 17760
L25990 17260
L25940 17330
L25890 17380
L25850 17400
" />
<path d="M25460 19260
L25510 19260
L25560 19280
L25580 19300
L25610 19350
L25630 19450
L25630 19570
L25610 19660
L25580 19710
L25560 19730
L25510 19760
L25460 19760
L25420 19730
L25390 19710
L25370 19660
L25350 19570
L25350 19450
L25370 19350
L25390 19300
L25420 19280
L25460 19260
" />
<path d="M25850 19710
L25870 19730
L25850 19760
L25830 19730
L25850 19710
L25850 19760
" />
<path d="M26350 19760
L26070 19760
" />
<path d="M26210 19760
L26210 19260
L26160 19330
L26110 19380
L26070 19400
" />
<path d="M27160 19420
L27160 19760
" />
<path d="M26950 19420
L26950 19680
L26970 19730
L27020 19760
L27090 19760
L27140 19730
L27160 19710
" />
<path d="M27570 19490
L27400 19490
" />
<path d="M27400 19760
L27400 19260
L27640 19260
" />
</g>
<g style="fill:#008484; fill-opacity:0.0; 
stroke:#008484; stroke-width:0; stroke-opacity:1; 
stroke-linecap:round; stroke-linejoin:round;">
</g>
<g style="fill:#840000; fill-opacity:0.0; 
stroke:#840000; stroke-width:0; stroke-opacity:1; 
stroke-linecap:round; stroke-linejoin:round;">
</g>
<g style="fill:#840000; fill-opacity:0.0; 
stroke:#840000; stroke-width:100; stroke-opacity:1; 
stroke-linecap:round; stroke-linejoin:round;">
<rect x="64500" y="23600" width="2000" height="800" rx="0" />
</g>
<g style="fill:#840000; fill-opacity:0.0; 
stroke:#840000; stroke-width:60; stroke-opacity:1; 
stroke-linecap:round; stroke-linejoin:round;">
<path d="M64500 24000
L64000 24000
" />
<path d="M66500 24000
L67000 24000
" />
</g>
<g style="fill:#008484; fill-opacity:0.0; 
stroke:#008484; stroke-width:60; stroke-opacity:1; 
stroke-linecap:round; stroke-linejoin:round;">
<path d="M65410 23390
L65250 23150
" />
<path d="M65130 23390
L65130 22890
L65320 22890
L65370 22910
L65390 22930
L65410 22980
L65410 23050
L65390 23100
L65370 23120
L65320 23150
L65130 23150
" />
<path d="M65890 23390
L65610 23390
" />
<path d="M65750 23390
L65750 22890
L65700 22960
L65650 23010
L65610 23030
" />
<path d="M64850 23690
L65160 23690
L64990 23880
L65070 23880
L65110 23900
L65140 23920
L65160 23970
L65160 24090
L65140 24140
L65110 24160
L65070 24190
L64920 24190
L64880 24160
L64850 24140
" />
<path d="M65330 23690
L65640 23690
L65470 23880
L65550 23880
L65590 23900
L65620 23920
L65640 23970
L65640 24090
L65620 24140
L65590 24160
L65550 24190
L65400 24190
L65360 24160
L65330 24140
" />
<path d="M65950 23690
L66000 23690
L66050 23710
L66070 23730
L66100 23780
L66120 23880
L66120 24000
L66100 24090
L66070 24140
L66050 24160
L66000 24190
L65950 24190
L65910 24160
L65880 24140
L65860 24090
L65840 24000
L65840 23880
L65860 23780
L65880 23730
L65910 23710
L65950 23690
" />
</g>
<g style="fill:#008484; fill-opacity:0.0; 
stroke:#008484; stroke-width:0; stroke-opacity:1; 
stroke-linecap:round; stroke-linejoin:round;">
</g>
<g style="fill:#840000; fill-opacity:0.0; 
stroke:#840000; stroke-width:0; stroke-opacity:1; 
stroke-linecap:round; stroke-linejoin:round;">
</g>
<g style="fill:#840000; fill-opacity:1.0; 
stroke:#840000; stroke-width:60; stroke-opacity:1; 
stroke-linecap:round; stroke-linejoin:round;">
<rect x="47570" y="25600" width="100" height="1800" rx="0" />
<rect x="47000" y="25600" width="100" height="1800" rx="0" />
<rect x="47800" y="25920" width="200" height="1200" rx="0" />
<rect x="47230" y="25920" width="200" height="1200" rx="0" />
</g>
<g style="fill:#840000; fill-opacity:0.0; 
stroke:#840000; stroke-width:100; stroke-opacity:1; 
stroke-linecap:round; stroke-linejoin:round;">
<polyline fill="none;"
points="46550,26300
46550,25900
" /> 
<polyline fill="none;"
points="46350,26100
46750,26100
" /> 
</g>
<g style="fill:#840000; fill-opacity:0.0; 
stroke:#840000; stroke-width:60; stroke-opacity:1; 
stroke-linecap:round; stroke-linejoin:round;">
<path d="M47000 26500
L46000 26500
" />
<path d="M48000 26500
L49000 26500
" />
</g>
<g style="fill:#008484; fill-opacity:0.0; 
stroke:#008484; stroke-width:60; stroke-opacity:1; 
stroke-linecap:round; stroke-linejoin:round;">
<path d="M46990 25210
L47020 25140
L47040 25120
L47090 25100
L47160 25100
L47210 25120
L47230 25140
L47260 25190
L47260 25380
L46760 25380
L46760 25210
L46780 25170
L46800 25140
L46850 25120
L46900 25120
L46950 25140
L46970 25170
L46990 25210
L46990 25380
" />
<path d="M46760 24950
L46760 24670
" />
<path d="M47260 24810
L46760 24810
" />
<path d="M47260 24240
L47260 24520
" />
<path d="M47260 24380
L46760 24380
L46830 24430
L46880 24480
L46900 24520
" />
<path d="M47990 25200
L48020 25130
L48040 25110
L48090 25090
L48160 25090
L48210 25110
L48230 25130
L48260 25180
L48260 25370
L47760 25370
L47760 25200
L47780 25160
L47800 25130
L47850 25110
L47900 25110
L47950 25130
L47970 25160
L47990 25200
L47990 25370
" />
<path d="M48260 24660
L47990 24660
L47950 24680
L47920 24730
L47920 24820
L47950 24870
" />
<path d="M48230 24660
L48260 24700
L48260 24820
L48230 24870
L48180 24890
L48140 24890
L48090 24870
L48070 24820
L48070 24700
L48040 24660
" />
<path d="M47920 24490
L47920 24300
" />
<path d="M47760 24420
L48180 24420
L48230 24400
L48260 24350
L48260 24300
" />
<path d="M47920 24200
L47920 24010
" />
<path d="M47760 24130
L48180 24130
L48230 24110
L48260 24060
L48260 24010
" />
<path d="M48230 23650
L48260 23700
L48260 23790
L48230 23840
L48180 23860
L47990 23860
L47950 23840
L47920 23790
L47920 23700
L47950 23650
L47990 23630
L48040 23630
L48090 23860
" />
<path d="M48260 23410
L47920 23410
" />
<path d="M48020 23410
L47970 23390
L47950 23360
L47920 23320
L47920 23270
" />
<path d="M47920 23150
L48260 23030
" />
<path d="M47920 22910
L48260 23030
L48380 23080
L48400 23100
L48420 23150
" />
</g>
<g style="fill:#008484; fill-opacity:0.0; 
stroke:#008484; stroke-width:0; stroke-opacity:1; 
stroke-linecap:round; stroke-linejoin:round;">
</g>
<g style="fill:#840000; fill-opacity:0.0; 
stroke:#840000; stroke-width:0; stroke-opacity:1; 
stroke-linecap:round; stroke-linejoin:round;">
</g>
<g style="fill:#840000; fill-opacity:0.0; 
stroke:#840000; stroke-width:60; stroke-opacity:1; 
stroke-linecap:round; stroke-linejoin:round;">
<polyline fill="none;"
points="49000,26500
49500,26500
49500,26000
50000,26500
49500,27000
49500,26500
" /> 
</g>
<g style="fill:#008484; fill-opacity:0.0; 
stroke:#008484; stroke-width:60; stroke-opacity:1; 
stroke-linecap:round; stroke-linejoin:round;">
<path d="M50280 26880
L50260 26930
L50260 27000
L50280 27070
L50330 27120
L50380 27140
L50470 27160
L50540 27160
L50640 27140
L50680 27120
L50730 27070
L50760 27000
L50760 26950
L50730 26880
L50710 26860
L50540 26860
L50540 26950
" />
<path d="M50760 26640
L50260 26640
L50760 26360
L50260 26360
" />
<path d="M50760 26120
L50260 26120
L50260 26000
L50280 25930
L50330 25880
L50380 25860
L50470 25840
L50540 25840
L50640 25860
L50680 25880
L50730 25930
L50760 26000
L50760 26120
" />
</g>
<g style="fill:#008484; fill-opacity:0.0; 
stroke:#008484; stroke-width:0; stroke-opacity:1; 
stroke-linecap:round; stroke-linejoin:round;">
</g>
<g style="fill:#840000; fill-opacity:0.0; 
stroke:#840000; stroke-width:0; stroke-opacity:1; 
stroke-linecap:round; stroke-linejoin:round;">
</g>
<g style="fill:#840000; fill-opacity:0.0; 
stroke:#840000; stroke-width:60; stroke-opacity:1; 
stroke-linecap:round; stroke-linejoin:round;">
<polyline fill="none;"
points="19000,21300
18500,21000
" /> 
<polyline fill="none;"
points="19500,21000
18500,21000
" /> 
<polyline fill="none;"
points="18500,21000
19000,20700
" /> 
</g>
<g style="fill:#008484; fill-opacity:0.0; 
stroke:#008484; stroke-width:60; stroke-opacity:1; 
stroke-linecap:round; stroke-linejoin:round;">
<path d="M18170 22020
L18170 21640
" />
<path d="M18360 21830
L17980 21830
" />
<path d="M18090 21230
L18120 21160
L18140 21140
L18190 21120
L18260 21120
L18310 21140
L18330 21160
L18360 21210
L18360 21400
L17860 21400
L17860 21230
L17880 21190
L17900 21160
L17950 21140
L18000 21140
L18050 21160
L18070 21190
L18090 21230
L18090 21400
" />
<path d="M18210 20920
L18210 20690
" />
<path d="M18360 20970
L17860 20810
L18360 20640
" />
<path d="M17860 20540
L17860 20260
" />
<path d="M18360 20400
L17860 20400
" />
<path d="M17860 20160
L17860 19880
" />
<path d="M18360 20020
L17860 20020
" />
</g>
<g style="fill:#008484; fill-opacity:0.0; 
stroke:#008484; stroke-width:0; stroke-opacity:1; 
stroke-linecap:round; stroke-linejoin:round;">
</g>
<g style="fill:#840000; fill-opacity:0.0; 
stroke:#840000; stroke-width:0; stroke-opacity:1; 
stroke-linecap:round; stroke-linejoin:round;">
</g>
<g style="fill:#840000; fill-opacity:0.0; 
stroke:#840000; stroke-width:60; stroke-opacity:1; 
stroke-linecap:round; stroke-linejoin:round;">
<polyline fill="none;"
points="69500,8200
70000,8500
" /> 
<polyline fill="none;"
points="69000,8500
70000,8500
" /> 
<polyline fill="none;"
points="70000,8500
69500,8800
" /> 
</g>
<g style="fill:#008484; fill-opacity:0.0; 
stroke:#008484; stroke-width:60; stroke-opacity:1; 
stroke-linecap:round; stroke-linejoin:round;">
<path d="M70400 9530
L70400 9150
" />
<path d="M70590 9340
L70210 9340
" />
<path d="M70320 8740
L70350 8670
L70370 8650
L70420 8630
L70490 8630
L70540 8650
L70560 8670
L70590 8720
L70590 8910
L70090 8910
L70090 8740
L70110 8700
L70130 8670
L70180 8650
L70230 8650
L70280 8670
L70300 8700
L70320 8740
L70320 8910
" />
<path d="M70440 8430
L70440 8200
" />
<path d="M70590 8480
L70090 8320
L70590 8150
" />
<path d="M70090 8050
L70090 7770
" />
<path d="M70590 7910
L70090 7910
" />
<path d="M70090 7670
L70090 7390
" />
<path d="M70590 7530
L70090 7530
" />
</g>
<g style="fill:#008484; fill-opacity:0.0; 
stroke:#008484; stroke-width:0; stroke-opacity:1; 
stroke-linecap:round; stroke-linejoin:round;">
</g>
<g style="fill:#840000; fill-opacity:0.0; 
stroke:#840000; stroke-width:0; stroke-opacity:1; 
stroke-linecap:round; stroke-linejoin:round;">
</g>
<g style="fill:#840000; fill-opacity:0.0; 
stroke:#840000; stroke-width:60; stroke-opacity:1; 
stroke-linecap:round; stroke-linejoin:round;">
<polyline fill="none;"
points="69000,10500
69500,10500
69500,10000
70000,10500
69500,11000
69500,10500
" /> 
</g>
<g style="fill:#008484; fill-opacity:0.0; 
stroke:#008484; stroke-width:60; stroke-opacity:1; 
stroke-linecap:round; stroke-linejoin:round;">
<path d="M70280 10880
L70260 10930
L70260 11000
L70280 11070
L70330 11120
L70380 11140
L70470 11160
L70540 11160
L70640 11140
L70680 11120
L70730 11070
L70760 11000
L70760 10950
L70730 10880
L70710 10860
L70540 10860
L70540 10950
" />
<path d="M70760 10640
L70260 10640
L70760 10360
L70260 10360
" />
<path d="M70760 10120
L70260 10120
L70260 10000
L70280 9930
L70330 9880
L70380 9860
L70470 9840
L70540 9840
L70640 9860
L70680 9880
L70730 9930
L70760 10000
L70760 10120
" />
</g>
<g style="fill:#008400; fill-opacity:0.0; 
stroke:#008400; stroke-width:60; stroke-opacity:1; 
stroke-linecap:round; stroke-linejoin:round;">
<path d="M9000 9000
L9000 10000
" />
<path d="M12500 9000
L12500 10000
" />
<path d="M19500 21000
L27000 21000
" />
</g>
<g style="fill:#008400; fill-opacity:0.0; 
stroke:#008400; stroke-width:0; stroke-opacity:1; 
stroke-linecap:round; stroke-linejoin:round;">
</g>
<g style="fill:#840000; fill-opacity:0.0; 
stroke:#840000; stroke-width:0; stroke-opacity:1; 
stroke-linecap:round; stroke-linejoin:round;">
</g>
<g style="fill:#840000; fill-opacity:0.0; 
stroke:#840000; stroke-width:60; stroke-opacity:1; 
stroke-linecap:round; stroke-linejoin:round;">
<polyline fill="none;"
points="68500,24000
69000,24000
69000,23500
69500,24000
69000,24500
69000,24000
" /> 
</g>
<g style="fill:#008484; fill-opacity:0.0; 
stroke:#008484; stroke-width:60; stroke-opacity:1; 
stroke-linecap:round; stroke-linejoin:round;">
<path d="M69780 24380
L69760 24430
L69760 24500
L69780 24570
L69830 24620
L69880 24640
L69970 24660
L70040 24660
L70140 24640
L70180 24620
L70230 24570
L70260 24500
L70260 24450
L70230 24380
L70210 24360
L70040 24360
L70040 24450
" />
<path d="M70260 24140
L69760 24140
L70260 23860
L69760 23860
" />
<path d="M70260 23620
L69760 23620
L69760 23500
L69780 23430
L69830 23380
L69880 23360
L69970 23340
L70040 23340
L70140 23360
L70180 23380
L70230 23430
L70260 23500
L70260 23620
" />
</g>
<g style="fill:#008484; fill-opacity:0.0; 
stroke:#008484; stroke-width:0; stroke-opacity:1; 
stroke-linecap:round; stroke-linejoin:round;">
</g>
<g style="fill:#840000; fill-opacity:0.0; 
stroke:#840000; stroke-width:0; stroke-opacity:1; 
stroke-linecap:round; stroke-linejoin:round;">
</g>
<g style="fill:#840000; fill-opacity:0.0; 
stroke:#840000; stroke-width:60; stroke-opacity:1; 
stroke-linecap:round; stroke-linejoin:round;">
<polyline fill="none;"
points="68500,21000
69000,21000
69000,20500
69500,21000
69000,21500
69000,21000
" /> 
</g>
<g style="fill:#008484; fill-opacity:0.0; 
stroke:#008484; stroke-width:60; stroke-opacity:1; 
stroke-linecap:round; stroke-linejoin:round;">
<path d="M69780 21380
L69760 21430
L69760 21500
L69780 21570
L69830 21620
L69880 21640
L69970 21660
L70040 21660
L70140 21640
L70180 21620
L70230 21570
L70260 21500
L70260 21450
L70230 21380
L70210 21360
L70040 21360
L70040 21450
" />
<path d="M70260 21140
L69760 21140
L70260 20860
L69760 20860
" />
<path d="M70260 20620
L69760 20620
L69760 20500
L69780 20430
L69830 20380
L69880 20360
L69970 20340
L70040 20340
L70140 20360
L70180 20380
L70230 20430
L70260 20500
L70260 20620
" />
</g>
<g style="fill:#008484; fill-opacity:0.0; 
stroke:#008484; stroke-width:0; stroke-opacity:1; 
stroke-linecap:round; stroke-linejoin:round;">
</g>
<g style="fill:#840000; fill-opacity:0.0; 
stroke:#840000; stroke-width:0; stroke-opacity:1; 
stroke-linecap:round; stroke-linejoin:round;">
</g>
<g style="fill:#840000; fill-opacity:0.0; 
stroke:#840000; stroke-width:90; stroke-opacity:1; 
stroke-linecap:round; stroke-linejoin:round;">
<path d="M61280 9660
L61340 9680
L61450 9680
L61490 9660
L61510 9640
L61530 9590
L61530 9550
L61510 9510
L61490 9490
L61450 9460
L61360 9440
L61320 9420
L61300 9400
L61280 9360
L61280 9310
L61300 9270
L61320 9250
L61360 9230
L61470 9230
L61530 9250
" />
<path d="M61980 9640
L61960 9660
L61900 9680
L61860 9680
L61790 9660
L61750 9610
L61730 9570
L61710 9490
L61710 9420
L61730 9340
L61750 9290
L61790 9250
L61860 9230
L61900 9230
L61960 9250
L61980 9270
" />
<path d="M62180 9680
L62180 9230
" />
<path d="M62430 9680
L62240 9420
" />
<path d="M62430 9230
L62180 9490
" />
<path d="M67150 8180
L67300 8630
L67450 8180
" />
<path d="M67860 8590
L67840 8610
L67780 8630
L67740 8630
L67670 8610
L67630 8560
L67610 8520
L67590 8440
L67590 8370
L67610 8290
L67630 8240
L67670 8200
L67740 8180
L67780 8180
L67840 8200
L67860 8220
" />
<path d="M68310 8590
L68290 8610
L68230 8630
L68190 8630
L68120 8610
L68080 8560
L68060 8520
L68040 8440
L68040 8370
L68060 8290
L68080 8240
L68120 8200
L68190 8180
L68230 8180
L68290 8200
L68310 8220
" />
<path d="M67510 10350
L67470 10330
L67410 10330
L67340 10350
L67300 10390
L67280 10440
L67260 10520
L67260 10590
L67280 10670
L67300 10710
L67340 10760
L67410 10780
L67450 10780
L67510 10760
L67530 10740
L67530 10590
L67450 10590
" />
<path d="M67730 10780
L67730 10330
L67980 10780
L67980 10330
" />
<path d="M68200 10780
L68200 10330
L68300 10330
L68370 10350
L68410 10390
L68430 10440
L68450 10520
L68450 10590
L68430 10670
L68410 10710
L68370 10760
L68300 10780
L68200 10780
" />
<path d="M60970 8710
L60970 8260
L61120 8580
L61270 8260
L61270 8710
" />
<path d="M61480 8710
L61480 8260
" />
<path d="M61670 8690
L61730 8710
L61840 8710
L61880 8690
L61900 8670
L61920 8620
L61920 8580
L61900 8540
L61880 8520
L61840 8490
L61750 8470
L61710 8450
L61690 8430
L61670 8390
L61670 8340
L61690 8300
L61710 8280
L61750 8260
L61860 8260
L61920 8280
" />
<path d="M62200 8260
L62290 8260
L62330 8280
L62370 8320
L62400 8410
L62400 8560
L62370 8640
L62330 8690
L62290 8710
L62200 8710
L62160 8690
L62120 8640
L62100 8560
L62100 8410
L62120 8320
L62160 8280
L62200 8260
" />
<path d="M67370 9750
L67370 9300
L67520 9620
L67670 9300
L67670 9750
" />
<path d="M67960 9300
L68050 9300
L68090 9320
L68130 9360
L68160 9450
L68160 9600
L68130 9680
L68090 9730
L68050 9750
L67960 9750
L67920 9730
L67880 9680
L67860 9600
L67860 9450
L67880 9360
L67920 9320
L67960 9300
" />
<path d="M68330 9730
L68390 9750
L68500 9750
L68540 9730
L68560 9710
L68580 9660
L68580 9620
L68560 9580
L68540 9560
L68500 9530
L68410 9510
L68370 9490
L68350 9470
L68330 9430
L68330 9380
L68350 9340
L68370 9320
L68410 9300
L68520 9300
L68580 9320
" />
<path d="M68780 9750
L68780 9300
" />
<path d="M61600 10730
L61450 10510
" />
<path d="M61350 10730
L61350 10280
L61520 10280
L61560 10300
L61580 10320
L61600 10360
L61600 10430
L61580 10470
L61560 10490
L61520 10510
L61350 10510
" />
<path d="M61780 10710
L61840 10730
L61950 10730
L61990 10710
L62010 10690
L62030 10640
L62030 10600
L62010 10560
L61990 10540
L61950 10510
L61860 10490
L61820 10470
L61800 10450
L61780 10410
L61780 10360
L61800 10320
L61820 10300
L61860 10280
L61970 10280
L62030 10300
" />
<path d="M62160 10280
L62420 10280
" />
<path d="M62290 10730
L62290 10280
" />
</g>
<g style="fill:#840000; fill-opacity:1.0; 
stroke:#840000; stroke-width:60; stroke-opacity:1; 
stroke-linecap:round; stroke-linejoin:round;">
<rect x="62950" y="10900" width="3700" height="200" rx="0" />
<rect x="62950" y="7500" width="3600" height="200" rx="0" />
<rect x="62800" y="9900" width="200" height="1200" rx="0" />
<rect x="62800" y="7500" width="200" height="1600" rx="0" />
<rect x="66550" y="7500" width="200" height="3600" rx="0" />
</g>
<g style="fill:#840000; fill-opacity:0.0; 
stroke:#840000; stroke-width:60; stroke-opacity:1; 
stroke-linecap:round; stroke-linejoin:round;">
<path d="M64500 8500
L63500 8500
" />
<path d="M64110 8380
L63890 8380
" />
<path d="M64000 8380
L64000 7980
L63960 8040
L63920 8080
L63890 8100
" />
<path d="M65000 8500
L66000 8500
" />
<path d="M65390 8020
L65410 8000
L65440 7980
L65540 7980
L65580 8000
L65600 8020
L65610 8060
L65610 8100
L65600 8150
L65370 8380
L65610 8380
" />
<path d="M64500 9500
L63500 9500
" />
<path d="M63870 8980
L64110 8980
L63980 9130
L64040 9130
L64080 9150
L64100 9170
L64110 9210
L64110 9300
L64100 9340
L64080 9360
L64040 9380
L63920 9380
L63890 9360
L63870 9340
" />
<path d="M65000 9500
L66000 9500
" />
<path d="M65580 9110
L65580 9380
" />
<path d="M65480 8960
L65390 9250
L65630 9250
" />
<path d="M64500 10500
L63500 10500
" />
<path d="M64100 9980
L63910 9980
L63890 10170
L63910 10150
L63940 10130
L64040 10130
L64080 10150
L64100 10170
L64110 10210
L64110 10300
L64100 10340
L64080 10360
L64040 10380
L63940 10380
L63910 10360
L63890 10340
" />
<path d="M65000 10500
L66000 10500
" />
<path d="M65580 9980
L65500 9980
L65460 10000
L65440 10020
L65410 10080
L65390 10150
L65390 10300
L65410 10340
L65420 10360
L65460 10380
L65540 10380
L65580 10360
L65600 10340
L65610 10300
L65610 10210
L65600 10170
L65580 10150
L65540 10130
L65460 10130
L65420 10150
L65410 10170
L65390 10210
" />
</g>
<g style="fill:#008484; fill-opacity:0.0; 
stroke:#008484; stroke-width:60; stroke-opacity:1; 
stroke-linecap:round; stroke-linejoin:round;">
<path d="M63340 7310
L63320 7330
L63250 7360
L63200 7360
L63130 7330
L63080 7280
L63060 7240
L63040 7140
L63040 7070
L63060 6980
L63080 6930
L63130 6880
L63200 6860
L63250 6860
L63320 6880
L63340 6900
" />
<path d="M63650 6860
L63750 6860
L63800 6880
L63840 6930
L63870 7020
L63870 7190
L63840 7280
L63800 7330
L63750 7360
L63650 7360
L63610 7330
L63560 7280
L63540 7190
L63540 7020
L63560 6930
L63610 6880
L63650 6860
" />
<path d="M64080 7360
L64080 6860
L64360 7360
L64360 6860
" />
<path d="M64860 7360
L64580 7360
" />
<path d="M64720 7360
L64720 6860
L64670 6930
L64620 6980
L64580 7000
" />
<path d="M62450 11630
L62680 11630
" />
<path d="M62400 11780
L62560 11280
L62730 11780
" />
<path d="M62830 11280
L62990 11780
L63160 11280
" />
<path d="M63610 11780
L63450 11540
" />
<path d="M63330 11780
L63330 11280
L63520 11280
L63570 11300
L63590 11320
L63610 11370
L63610 11440
L63590 11490
L63570 11510
L63520 11540
L63330 11540
" />
<path d="M63830 11590
L64210 11590
" />
<path d="M64450 11780
L64450 11280
" />
<path d="M64670 11750
L64740 11780
L64860 11780
L64900 11750
L64930 11730
L64950 11680
L64950 11630
L64930 11590
L64900 11560
L64860 11540
L64760 11510
L64710 11490
L64690 11470
L64670 11420
L64670 11370
L64690 11320
L64710 11300
L64760 11280
L64880 11280
L64950 11300
" />
<path d="M65170 11780
L65170 11280
L65360 11280
L65410 11300
L65430 11320
L65450 11370
L65450 11440
L65430 11490
L65410 11510
L65360 11540
L65170 11540
" />
<path d="M65670 11590
L66050 11590
" />
<path d="M66500 11280
L66410 11280
L66360 11300
L66340 11320
L66290 11400
L66270 11490
L66270 11680
L66290 11730
L66310 11750
L66360 11780
L66460 11780
L66500 11750
L66530 11730
L66550 11680
L66550 11560
L66530 11510
L66500 11490
L66460 11470
L66360 11470
L66310 11490
L66290 11510
L66270 11560
" />
</g>
<g style="fill:#008400; fill-opacity:0.0; 
stroke:#008400; stroke-width:60; stroke-opacity:1; 
stroke-linecap:round; stroke-linejoin:round;">
<path d="M57500 8500
L63500 8500
" />
<path d="M56500 9500
L63500 9500
" />
<path d="M55500 10500
L63500 10500
" />
<path d="M66000 9500
L71000 9500
" />
<path d="M71000 9500
L71000 16000
" />
<path d="M69000 8500
L66000 8500
" />
<path d="M69000 10500
L66000 10500
" />
<path d="M71000 16000
L58500 16000
" />
</g>
<g style="fill:#008400; fill-opacity:0.0; 
stroke:#008400; stroke-width:0; stroke-opacity:1; 
stroke-linecap:round; stroke-linejoin:round;">
</g>
<g style="fill:#840000; fill-opacity:0.0; 
stroke:#840000; stroke-width:0; stroke-opacity:1; 
stroke-linecap:round; stroke-linejoin:round;">
</g>
<g style="fill:#840000; fill-opacity:0.0; 
stroke:#840000; stroke-width:60; stroke-opacity:1; 
stroke-linecap:round; stroke-linejoin:round;">
<rect x="63800" y="20400" width="3400" height="100" rx="0" />
<polyline fill="none;"
points="65100,20400
65200,20100
65800,20100
65900,20400
" /> 
<circle cx="64250" cy="21000" r="250" /> 
<path d="M64000 21000
L62500 21000
" />
<circle cx="66750" cy="21000" r="250" /> 
<path d="M67000 21000
L68500 21000
" />
</g>
<g style="fill:#008484; fill-opacity:0.0; 
stroke:#008484; stroke-width:60; stroke-opacity:1; 
stroke-linecap:round; stroke-linejoin:round;">
<path d="M66340 20130
L66410 20160
L66530 20160
L66570 20130
L66600 20110
L66620 20060
L66620 20010
L66600 19970
L66570 19940
L66530 19920
L66430 19890
L66380 19870
L66360 19850
L66340 19800
L66340 19750
L66360 19700
L66380 19680
L66430 19660
L66550 19660
L66620 19680
" />
<path d="M66790 19660
L66910 20160
L67010 19800
L67100 20160
L67220 19660
" />
<path d="M67670 20160
L67390 20160
" />
<path d="M67530 20160
L67530 19660
L67480 19730
L67430 19780
L67390 19800
" />
<path d="M63880 22030
L63950 22060
L64070 22060
L64110 22030
L64140 22010
L64160 21960
L64160 21910
L64140 21870
L64110 21840
L64070 21820
L63970 21790
L63920 21770
L63900 21750
L63880 21700
L63880 21650
L63900 21600
L63920 21580
L63970 21560
L64090 21560
L64160 21580
" />
<path d="M64330 21560
L64450 22060
L64550 21700
L64640 22060
L64760 21560
" />
<path d="M64830 22100
L65210 22100
" />
<path d="M65330 22060
L65330 21560
L65520 21560
L65570 21580
L65590 21600
L65610 21650
L65610 21720
L65590 21770
L65570 21790
L65520 21820
L65330 21820
" />
<path d="M65830 21560
L65830 21960
L65850 22010
L65880 22030
L65920 22060
L66020 22060
L66070 22030
L66090 22010
L66110 21960
L66110 21560
" />
<path d="M66330 22030
L66400 22060
L66520 22060
L66560 22030
L66590 22010
L66610 21960
L66610 21910
L66590 21870
L66560 21840
L66520 21820
L66420 21790
L66370 21770
L66350 21750
L66330 21700
L66330 21650
L66350 21600
L66370 21580
L66420 21560
L66540 21560
L66610 21580
" />
<path d="M66830 22060
L66830 21560
" />
<path d="M66830 21790
L67110 21790
" />
<path d="M67110 22060
L67110 21560
" />
</g>
<g style="fill:#008484; fill-opacity:0.0; 
stroke:#008484; stroke-width:0; stroke-opacity:1; 
stroke-linecap:round; stroke-linejoin:round;">
</g>
<g style="fill:#840000; fill-opacity:0.0; 
stroke:#840000; stroke-width:0; stroke-opacity:1; 
stroke-linecap:round; stroke-linejoin:round;">
</g>
<g style="fill:#840000; fill-opacity:0.0; 
stroke:#840000; stroke-width:60; stroke-opacity:1; 
stroke-linecap:round; stroke-linejoin:round;">
<circle cx="37000" cy="26500" r="500" /> 
<circle cx="40000" cy="26500" r="500" /> 
<polyline fill="none;"
points="37500,26500
39500,25500
" /> 
<path d="M36500 26500
L33500 26500
" />
</g>
<g style="fill:#008484; fill-opacity:0.0; 
stroke:#008484; stroke-width:60; stroke-opacity:1; 
stroke-linecap:round; stroke-linejoin:round;">
<path d="M35140 26380
L34860 26380
" />
<path d="M35000 26380
L35000 25880
L34950 25950
L34900 26000
L34860 26020
" />
</g>
<g style="fill:#840000; fill-opacity:0.0; 
stroke:#840000; stroke-width:60; stroke-opacity:1; 
stroke-linecap:round; stroke-linejoin:round;">
<path d="M40500 26500
L43500 26500
" />
</g>
<g style="fill:#008484; fill-opacity:0.0; 
stroke:#008484; stroke-width:60; stroke-opacity:1; 
stroke-linecap:round; stroke-linejoin:round;">
<path d="M41860 25920
L41880 25900
L41930 25880
L42050 25880
L42090 25900
L42120 25920
L42140 25970
L42140 26020
L42120 26090
L41830 26380
L42140 26380
" />
<path d="M37840 25730
L37910 25760
L38030 25760
L38070 25730
L38100 25710
L38120 25660
L38120 25610
L38100 25570
L38070 25540
L38030 25520
L37930 25490
L37880 25470
L37860 25450
L37840 25400
L37840 25350
L37860 25300
L37880 25280
L37930 25260
L38050 25260
L38120 25280
" />
<path d="M38290 25260
L38410 25760
L38510 25400
L38600 25760
L38720 25260
" />
<path d="M38890 25300
L38910 25280
L38960 25260
L39080 25260
L39120 25280
L39150 25300
L39170 25350
L39170 25400
L39150 25470
L38860 25760
L39170 25760
" />
<path d="M37680 27730
L37750 27760
L37870 27760
L37910 27730
L37940 27710
L37960 27660
L37960 27610
L37940 27570
L37910 27540
L37870 27520
L37770 27490
L37720 27470
L37700 27450
L37680 27400
L37680 27350
L37700 27300
L37720 27280
L37770 27260
L37890 27260
L37960 27280
" />
<path d="M38180 27760
L38180 27260
L38370 27260
L38420 27280
L38440 27300
L38460 27350
L38460 27420
L38440 27470
L38420 27490
L38370 27520
L38180 27520
" />
<path d="M38660 27730
L38730 27760
L38850 27760
L38890 27730
L38920 27710
L38940 27660
L38940 27610
L38920 27570
L38890 27540
L38850 27520
L38750 27490
L38700 27470
L38680 27450
L38660 27400
L38660 27350
L38680 27300
L38700 27280
L38750 27260
L38870 27260
L38940 27280
" />
<path d="M39090 27260
L39370 27260
" />
<path d="M39230 27760
L39230 27260
" />
</g>
<g style="fill:#008400; fill-opacity:0.0; 
stroke:#008400; stroke-width:60; stroke-opacity:1; 
stroke-linecap:round; stroke-linejoin:round;">
<path d="M25000 26500
L33500 26500
" />
<path d="M43500 26500
L46000 26500
" />
</g>
<g style="fill:#008400; fill-opacity:0.0; 
stroke:#008400; stroke-width:0; stroke-opacity:1; 
stroke-linecap:round; stroke-linejoin:round;">
</g>
<g style="fill:#840000; fill-opacity:0.0; 
stroke:#840000; stroke-width:0; stroke-opacity:1; 
stroke-linecap:round; stroke-linejoin:round;">
</g>
<g style="fill:#840000; fill-opacity:0.0; 
stroke:#840000; stroke-width:60; stroke-opacity:1; 
stroke-linecap:round; stroke-linejoin:round;">
<rect x="66000" y="27950" width="600" height="100" rx="0" />
<rect x="66000" y="27500" width="1000" height="1000" rx="0" />
<path d="M66000 28000
L64500 28000
" />
<path d="M65390 27880
L65110 27880
" />
<path d="M65250 27880
L65250 27380
L65200 27450
L65150 27500
L65110 27520
" />
</g>
<g style="fill:#008484; fill-opacity:0.0; 
stroke:#008484; stroke-width:60; stroke-opacity:1; 
stroke-linecap:round; stroke-linejoin:round;">
<path d="M66130 27260
L66130 26760
L66320 26760
L66370 26780
L66390 26800
L66410 26850
L66410 26920
L66390 26970
L66370 26990
L66320 27020
L66130 27020
" />
<path d="M66890 27260
L66610 27260
" />
<path d="M66750 27260
L66750 26760
L66700 26830
L66650 26880
L66610 26900
" />
<path d="M67710 30020
L67730 30040
L67760 30110
L67760 30160
L67730 30230
L67680 30280
L67640 30300
L67540 30320
L67470 30320
L67380 30300
L67330 30280
L67280 30230
L67260 30160
L67260 30110
L67280 30040
L67300 30020
" />
<path d="M67260 29710
L67260 29610
L67280 29560
L67330 29520
L67420 29490
L67590 29490
L67680 29520
L67730 29560
L67760 29610
L67760 29710
L67730 29750
L67680 29800
L67590 29820
L67420 29820
L67330 29800
L67280 29750
L67260 29710
" />
<path d="M67760 29280
L67260 29280
L67760 29000
L67260 29000
" />
<path d="M67760 28760
L67260 28760
L67760 28480
L67260 28480
" />
<path d="M67800 28360
L67800 27980
" />
<path d="M67260 27770
L67260 27720
L67280 27670
L67300 27650
L67350 27620
L67450 27600
L67570 27600
L67660 27620
L67710 27650
L67730 27670
L67760 27720
L67760 27770
L67730 27810
L67710 27840
L67660 27860
L67570 27880
L67450 27880
L67350 27860
L67300 27840
L67280 27810
L67260 27770
" />
<path d="M67760 27120
L67760 27400
" />
<path d="M67760 27260
L67260 27260
L67330 27310
L67380 27360
L67400 27400
" />
<path d="M67260 26950
L67760 26620
" />
<path d="M67260 26620
L67760 26950
" />
<path d="M67260 26330
L67260 26280
L67280 26230
L67300 26210
L67350 26180
L67450 26160
L67570 26160
L67660 26180
L67710 26210
L67730 26230
L67760 26280
L67760 26330
L67730 26370
L67710 26400
L67660 26420
L67570 26440
L67450 26440
L67350 26420
L67300 26400
L67280 26370
L67260 26330
" />
<path d="M67760 25680
L67760 25960
" />
<path d="M67760 25820
L67260 25820
L67330 25870
L67380 25920
L67400 25960
" />
</g>
<g style="fill:#008484; fill-opacity:0.0; 
stroke:#008484; stroke-width:0; stroke-opacity:1; 
stroke-linecap:round; stroke-linejoin:round;">
</g>
<g style="fill:#840000; fill-opacity:0.0; 
stroke:#840000; stroke-width:0; stroke-opacity:1; 
stroke-linecap:round; stroke-linejoin:round;">
</g>
<g style="fill:#FFFFC2; fill-opacity:0.0; 
stroke:#FFFFC2; stroke-width:0; stroke-opacity:1; 
stroke-linecap:round; stroke-linejoin:round;">
</g>
<g style="fill:#FFFFC2; fill-opacity:0.6; 
stroke:#FFFFC2; stroke-width:0; stroke-opacity:1; 
stroke-linecap:round; stroke-linejoin:round;">
<rect x="28500" y="15000" width="24000" height="7000" rx="0" />
</g>
<g style="fill:#840000; fill-opacity:0.6; 
stroke:#840000; stroke-width:0; stroke-opacity:1; 
stroke-linecap:round; stroke-linejoin:round;">
</g>
<g style="fill:#840000; fill-opacity:0.0; 
stroke:#840000; stroke-width:100; stroke-opacity:1; 
stroke-linecap:round; stroke-linejoin:round;">
<rect x="28500" y="15000" width="24000" height="7000" rx="0" />
</g>
<g style="fill:#840000; fill-opacity:0.0; 
stroke:#840000; stroke-width:60; stroke-opacity:1; 
stroke-linecap:round; stroke-linejoin:round;">
<path d="M52500 16000
L54000 16000
" />
</g>
<g style="fill:#008484; fill-opacity:0.0; 
stroke:#008484; stroke-width:60; stroke-opacity:1; 
stroke-linecap:round; stroke-linejoin:round;">
<path d="M42990 16180
L42990 15780
L43140 15780
L43180 15800
L43190 15820
L43210 15860
L43210 15910
L43190 15950
L43180 15970
L43140 15990
L42990 15990
" />
<path d="M43520 15970
L43580 15990
L43590 16010
L43610 16050
L43610 16100
L43590 16140
L43580 16160
L43540 16180
L43390 16180
L43390 15780
L43520 15780
L43560 15800
L43580 15820
L43590 15860
L43590 15900
L43580 15930
L43560 15950
L43520 15970
L43390 15970
" />
<path d="M43980 15780
L43790 15780
L43770 15970
L43790 15950
L43820 15930
L43920 15930
L43960 15950
L43980 15970
L43990 16010
L43990 16100
L43980 16140
L43960 16160
L43920 16180
L43820 16180
L43790 16160
L43770 16140
" />
<path d="M44280 16330
L44260 16310
L44220 16260
L44200 16220
L44180 16160
L44170 16070
L44170 15990
L44180 15900
L44200 15840
L44220 15800
L44260 15740
L44280 15720
" />
<path d="M44660 16180
L44530 15990
" />
<path d="M44440 16180
L44440 15780
L44590 15780
L44630 15800
L44640 15820
L44660 15860
L44660 15910
L44640 15950
L44630 15970
L44590 15990
L44440 15990
" />
<path d="M44840 15970
L44970 15970
" />
<path d="M45030 16180
L44840 16180
L44840 15780
L45030 15780
" />
<path d="M45180 16160
L45230 16180
L45330 16180
L45370 16160
L45390 16140
L45400 16100
L45400 16070
L45390 16030
L45370 16010
L45330 15990
L45250 15970
L45210 15950
L45200 15930
L45180 15900
L45180 15860
L45200 15820
L45210 15800
L45250 15780
L45350 15780
L45400 15800
" />
<path d="M45580 15970
L45710 15970
" />
<path d="M45770 16180
L45580 16180
L45580 15780
L45770 15780
" />
<path d="M45880 15780
L46110 15780
" />
<path d="M45990 16180
L45990 15780
" />
<path d="M44340 15710
L46140 15710
" />
<path d="M46520 15760
L46180 16280
" />
<path d="M46830 16180
L46830 15780
" />
<path d="M46830 16160
L46790 16180
L46710 16180
L46670 16160
L46660 16140
L46640 16100
L46640 15990
L46660 15950
L46670 15930
L46710 15910
L46790 15910
L46830 15930
" />
<path d="M46980 15780
L47070 16180
L47150 15900
L47220 16180
L47320 15780
" />
<path d="M47760 15760
L47420 16280
" />
<path d="M47880 16070
L48070 16070
" />
<path d="M47840 16180
L47970 15780
L48100 16180
" />
<path d="M48240 16180
L48240 15780
L48330 15780
L48390 15800
L48430 15840
L48440 15880
L48460 15950
L48460 16010
L48440 16090
L48430 16120
L48390 16160
L48330 16180
L48240 16180
" />
<path d="M48860 16140
L48840 16160
L48790 16180
L48750 16180
L48690 16160
L48650 16120
L48640 16090
L48620 16010
L48620 15950
L48640 15880
L48650 15840
L48690 15800
L48750 15780
L48790 15780
L48840 15800
L48860 15820
" />
<path d="M49110 15780
L49150 15780
L49190 15800
L49210 15820
L49230 15860
L49240 15930
L49240 16030
L49230 16100
L49210 16140
L49190 16160
L49150 16180
L49110 16180
L49070 16160
L49050 16140
L49040 16100
L49020 16030
L49020 15930
L49040 15860
L49050 15820
L49070 15800
L49110 15780
" />
<path d="M49700 15760
L49360 16280
" />
<path d="M49840 16180
L49840 15780
L49990 15780
L50030 15800
L50040 15820
L50060 15860
L50060 15910
L50040 15950
L50030 15970
L49990 15990
L49840 15990
" />
<path d="M50460 16140
L50440 16160
L50390 16180
L50350 16180
L50290 16160
L50250 16120
L50240 16090
L50220 16010
L50220 15950
L50240 15880
L50250 15840
L50290 15800
L50350 15780
L50390 15780
L50440 15800
L50460 15820
" />
<path d="M50640 16180
L50640 15780
" />
<path d="M50830 16180
L50830 15780
L51050 16180
L51050 15780
" />
<path d="M51190 15780
L51420 15780
" />
<path d="M51300 16180
L51300 15780
" />
<path d="M51740 15780
L51550 15780
L51530 15970
L51550 15950
L51580 15930
L51680 15930
L51720 15950
L51740 15970
L51750 16010
L51750 16100
L51740 16140
L51720 16160
L51680 16180
L51580 16180
L51550 16160
L51530 16140
" />
<path d="M51890 16330
L51910 16310
L51940 16260
L51960 16220
L51980 16160
L52000 16070
L52000 15990
L51980 15900
L51960 15840
L51940 15800
L51910 15740
L51890 15720
" />
</g>
<g style="fill:#840000; fill-opacity:0.0; 
stroke:#840000; stroke-width:60; stroke-opacity:1; 
stroke-linecap:round; stroke-linejoin:round;">
<path d="M53360 15880
L53140 15880
" />
<path d="M53250 15880
L53250 15480
L53210 15540
L53170 15580
L53140 15600
" />
<path d="M52500 18000
L54000 18000
" />
</g>
<g style="fill:#008484; fill-opacity:0.0; 
stroke:#008484; stroke-width:60; stroke-opacity:1; 
stroke-linecap:round; stroke-linejoin:round;">
<path d="M40560 18180
L40560 17780
L40710 17780
L40750 17800
L40760 17820
L40780 17860
L40780 17910
L40760 17950
L40750 17970
L40710 17990
L40560 17990
" />
<path d="M41090 17970
L41150 17990
L41160 18010
L41180 18050
L41180 18100
L41160 18140
L41150 18160
L41110 18180
L40960 18180
L40960 17780
L41090 17780
L41130 17800
L41150 17820
L41160 17860
L41160 17900
L41150 17930
L41130 17950
L41090 17970
L40960 17970
" />
<path d="M41320 17780
L41560 17780
L41430 17930
L41490 17930
L41530 17950
L41550 17970
L41560 18010
L41560 18100
L41550 18140
L41530 18160
L41490 18180
L41370 18180
L41340 18160
L41320 18140
" />
<path d="M41850 18330
L41830 18310
L41790 18260
L41770 18220
L41750 18160
L41740 18070
L41740 17990
L41750 17900
L41770 17840
L41790 17800
L41830 17740
L41850 17720
" />
<path d="M41970 17780
L42230 18180
" />
<path d="M42230 17780
L41970 18180
" />
<path d="M42330 17780
L42560 17780
" />
<path d="M42440 18180
L42440 17780
" />
<path d="M42670 18070
L42860 18070
" />
<path d="M42630 18180
L42760 17780
L42890 18180
" />
<path d="M43220 18180
L43030 18180
L43030 17780
" />
<path d="M43550 18180
L43330 18180
" />
<path d="M43440 18180
L43440 17780
L43400 17840
L43360 17880
L43330 17900
" />
<path d="M44010 17760
L43670 18280
" />
<path d="M44370 18140
L44350 18160
L44300 18180
L44260 18180
L44200 18160
L44160 18120
L44150 18090
L44130 18010
L44130 17950
L44150 17880
L44160 17840
L44200 17800
L44260 17780
L44300 17780
L44350 17800
L44370 17820
" />
<path d="M44740 18180
L44550 18180
L44550 17780
" />
<path d="M44870 18180
L44870 17780
" />
<path d="M45090 18180
L44920 17950
" />
<path d="M45090 17780
L44870 18010
" />
<path d="M45270 18180
L45270 17780
" />
<path d="M45740 17760
L45400 18280
" />
<path d="M45950 17780
L46030 17780
L46070 17800
L46100 17840
L46120 17910
L46120 18050
L46100 18120
L46070 18160
L46030 18180
L45950 18180
L45910 18160
L45880 18120
L45860 18050
L45860 17910
L45880 17840
L45910 17800
L45950 17780
" />
<path d="M46520 18140
L46500 18160
L46450 18180
L46410 18180
L46350 18160
L46310 18120
L46300 18090
L46280 18010
L46280 17950
L46300 17880
L46310 17840
L46350 17800
L46410 17780
L46450 17780
L46500 17800
L46520 17820
" />
<path d="M46900 18180
L46680 18180
" />
<path d="M46790 18180
L46790 17780
L46750 17840
L46710 17880
L46680 17900
" />
<path d="M47210 17970
L47270 17990
L47280 18010
L47300 18050
L47300 18100
L47280 18140
L47270 18160
L47230 18180
L47080 18180
L47080 17780
L47210 17780
L47250 17800
L47270 17820
L47280 17860
L47280 17900
L47270 17930
L47250 17950
L47210 17970
L47080 17970
" />
<path d="M47760 17760
L47420 18280
" />
<path d="M47880 18070
L48070 18070
" />
<path d="M47840 18180
L47970 17780
L48100 18180
" />
<path d="M48240 18180
L48240 17780
L48330 17780
L48390 17800
L48430 17840
L48440 17880
L48460 17950
L48460 18010
L48440 18090
L48430 18120
L48390 18160
L48330 18180
L48240 18180
" />
<path d="M48860 18140
L48840 18160
L48790 18180
L48750 18180
L48690 18160
L48650 18120
L48640 18090
L48620 18010
L48620 17950
L48640 17880
L48650 17840
L48690 17800
L48750 17780
L48790 17780
L48840 17800
L48860 17820
" />
<path d="M49000 17780
L49240 17780
L49110 17930
L49170 17930
L49210 17950
L49230 17970
L49240 18010
L49240 18100
L49230 18140
L49210 18160
L49170 18180
L49050 18180
L49020 18160
L49000 18140
" />
<path d="M49700 17760
L49360 18280
" />
<path d="M49840 18180
L49840 17780
L49990 17780
L50030 17800
L50040 17820
L50060 17860
L50060 17910
L50040 17950
L50030 17970
L49990 17990
L49840 17990
" />
<path d="M50460 18140
L50440 18160
L50390 18180
L50350 18180
L50290 18160
L50250 18120
L50240 18090
L50220 18010
L50220 17950
L50240 17880
L50250 17840
L50290 17800
L50350 17780
L50390 17780
L50440 17800
L50460 17820
" />
<path d="M50640 18180
L50640 17780
" />
<path d="M50830 18180
L50830 17780
L51050 18180
L51050 17780
" />
<path d="M51190 17780
L51420 17780
" />
<path d="M51300 18180
L51300 17780
" />
<path d="M51510 17780
L51750 17780
L51620 17930
L51680 17930
L51720 17950
L51740 17970
L51750 18010
L51750 18100
L51740 18140
L51720 18160
L51680 18180
L51560 18180
L51530 18160
L51510 18140
" />
<path d="M51890 18330
L51910 18310
L51940 18260
L51960 18220
L51980 18160
L52000 18070
L52000 17990
L51980 17900
L51960 17840
L51940 17800
L51910 17740
L51890 17720
" />
</g>
<g style="fill:#840000; fill-opacity:0.0; 
stroke:#840000; stroke-width:60; stroke-opacity:1; 
stroke-linecap:round; stroke-linejoin:round;">
<path d="M53140 17520
L53160 17500
L53190 17480
L53290 17480
L53330 17500
L53350 17520
L53360 17560
L53360 17600
L53350 17650
L53120 17880
L53360 17880
" />
<path d="M52500 17000
L54000 17000
" />
</g>
<g style="fill:#008484; fill-opacity:0.0; 
stroke:#008484; stroke-width:60; stroke-opacity:1; 
stroke-linecap:round; stroke-linejoin:round;">
<path d="M40330 17180
L40330 16780
L40480 16780
L40520 16800
L40530 16820
L40550 16860
L40550 16910
L40530 16950
L40520 16970
L40480 16990
L40330 16990
" />
<path d="M40860 16970
L40920 16990
L40930 17010
L40950 17050
L40950 17100
L40930 17140
L40920 17160
L40880 17180
L40730 17180
L40730 16780
L40860 16780
L40900 16800
L40920 16820
L40930 16860
L40930 16900
L40920 16930
L40900 16950
L40860 16970
L40730 16970
" />
<path d="M41300 16910
L41300 17180
" />
<path d="M41200 16760
L41110 17050
L41350 17050
" />
<path d="M41620 17330
L41600 17310
L41560 17260
L41540 17220
L41520 17160
L41510 17070
L41510 16990
L41520 16900
L41540 16840
L41560 16800
L41600 16740
L41620 16720
" />
<path d="M41740 16780
L42000 17180
" />
<path d="M42000 16780
L41740 17180
" />
<path d="M42100 16780
L42330 16780
" />
<path d="M42210 17180
L42210 16780
" />
<path d="M42440 17070
L42630 17070
" />
<path d="M42400 17180
L42530 16780
L42660 17180
" />
<path d="M42990 17180
L42800 17180
L42800 16780
" />
<path d="M43100 16820
L43120 16800
L43150 16780
L43250 16780
L43290 16800
L43310 16820
L43320 16860
L43320 16900
L43310 16950
L43080 17180
L43320 17180
" />
<path d="M43780 16760
L43440 17280
" />
<path d="M44140 17140
L44120 17160
L44070 17180
L44030 17180
L43970 17160
L43930 17120
L43920 17090
L43900 17010
L43900 16950
L43920 16880
L43930 16840
L43970 16800
L44030 16780
L44070 16780
L44120 16800
L44140 16820
" />
<path d="M44510 17180
L44320 17180
L44320 16780
" />
<path d="M44640 17180
L44640 16780
" />
<path d="M44860 17180
L44690 16950
" />
<path d="M44860 16780
L44640 17010
" />
<path d="M45110 16780
L45190 16780
L45230 16800
L45260 16840
L45280 16910
L45280 17050
L45260 17120
L45230 17160
L45190 17180
L45110 17180
L45070 17160
L45040 17120
L45020 17050
L45020 16910
L45040 16840
L45070 16800
L45110 16780
" />
<path d="M45740 16760
L45400 17280
" />
<path d="M45950 16780
L46030 16780
L46070 16800
L46100 16840
L46120 16910
L46120 17050
L46100 17120
L46070 17160
L46030 17180
L45950 17180
L45910 17160
L45880 17120
L45860 17050
L45860 16910
L45880 16840
L45910 16800
L45950 16780
" />
<path d="M46520 17140
L46500 17160
L46450 17180
L46410 17180
L46350 17160
L46310 17120
L46300 17090
L46280 17010
L46280 16950
L46300 16880
L46310 16840
L46350 16800
L46410 16780
L46450 16780
L46500 16800
L46520 16820
" />
<path d="M46900 17180
L46680 17180
" />
<path d="M46790 17180
L46790 16780
L46750 16840
L46710 16880
L46680 16900
" />
<path d="M47210 16970
L47270 16990
L47280 17010
L47300 17050
L47300 17100
L47280 17140
L47270 17160
L47230 17180
L47080 17180
L47080 16780
L47210 16780
L47250 16800
L47270 16820
L47280 16860
L47280 16900
L47270 16930
L47250 16950
L47210 16970
L47080 16970
" />
<path d="M47760 16760
L47420 17280
" />
<path d="M47880 17070
L48070 17070
" />
<path d="M47840 17180
L47970 16780
L48100 17180
" />
<path d="M48240 17180
L48240 16780
L48330 16780
L48390 16800
L48430 16840
L48440 16880
L48460 16950
L48460 17010
L48440 17090
L48430 17120
L48390 17160
L48330 17180
L48240 17180
" />
<path d="M48860 17140
L48840 17160
L48790 17180
L48750 17180
L48690 17160
L48650 17120
L48640 17090
L48620 17010
L48620 16950
L48640 16880
L48650 16840
L48690 16800
L48750 16780
L48790 16780
L48840 16800
L48860 16820
" />
<path d="M49020 16820
L49040 16800
L49070 16780
L49170 16780
L49210 16800
L49230 16820
L49240 16860
L49240 16900
L49230 16950
L49000 17180
L49240 17180
" />
<path d="M49700 16760
L49360 17280
" />
<path d="M49840 17180
L49840 16780
L49990 16780
L50030 16800
L50040 16820
L50060 16860
L50060 16910
L50040 16950
L50030 16970
L49990 16990
L49840 16990
" />
<path d="M50460 17140
L50440 17160
L50390 17180
L50350 17180
L50290 17160
L50250 17120
L50240 17090
L50220 17010
L50220 16950
L50240 16880
L50250 16840
L50290 16800
L50350 16780
L50390 16780
L50440 16800
L50460 16820
" />
<path d="M50640 17180
L50640 16780
" />
<path d="M50830 17180
L50830 16780
L51050 17180
L51050 16780
" />
<path d="M51190 16780
L51420 16780
" />
<path d="M51300 17180
L51300 16780
" />
<path d="M51720 16910
L51720 17180
" />
<path d="M51620 16760
L51530 17050
L51770 17050
" />
<path d="M51890 17330
L51910 17310
L51940 17260
L51960 17220
L51980 17160
L52000 17070
L52000 16990
L51980 16900
L51960 16840
L51940 16800
L51910 16740
L51890 16720
" />
</g>
<g style="fill:#840000; fill-opacity:0.0; 
stroke:#840000; stroke-width:60; stroke-opacity:1; 
stroke-linecap:round; stroke-linejoin:round;">
<path d="M53120 16480
L53360 16480
L53230 16630
L53290 16630
L53330 16650
L53350 16670
L53360 16710
L53360 16800
L53350 16840
L53330 16860
L53290 16880
L53170 16880
L53140 16860
L53120 16840
" />
<path d="M28500 16000
L27000 16000
" />
</g>
<g style="fill:#008484; fill-opacity:0.0; 
stroke:#008484; stroke-width:60; stroke-opacity:1; 
stroke-linecap:round; stroke-linejoin:round;">
<path d="M29200 15800
L29170 15780
L29110 15780
L29050 15800
L29010 15840
L29000 15880
L28980 15950
L28980 16010
L29000 16090
L29010 16120
L29050 16160
L29110 16180
L29150 16180
L29200 16160
L29220 16140
L29220 16010
L29150 16010
" />
<path d="M29400 16180
L29400 15780
L29620 16180
L29620 15780
" />
<path d="M29820 16180
L29820 15780
L29910 15780
L29970 15800
L30010 15840
L30020 15880
L30040 15950
L30040 16010
L30020 16090
L30010 16120
L29970 16160
L29910 16180
L29820 16180
" />
</g>
<g style="fill:#840000; fill-opacity:0.0; 
stroke:#840000; stroke-width:60; stroke-opacity:1; 
stroke-linecap:round; stroke-linejoin:round;">
<path d="M27830 15610
L27830 15880
" />
<path d="M27730 15460
L27640 15750
L27880 15750
" />
<path d="M52500 21000
L54000 21000
" />
</g>
<g style="fill:#008484; fill-opacity:0.0; 
stroke:#008484; stroke-width:60; stroke-opacity:1; 
stroke-linecap:round; stroke-linejoin:round;">
<path d="M36440 21180
L36440 20780
L36590 20780
L36630 20800
L36640 20820
L36660 20860
L36660 20910
L36640 20950
L36630 20970
L36590 20990
L36440 20990
" />
<path d="M36970 20970
L37030 20990
L37040 21010
L37060 21050
L37060 21100
L37040 21140
L37030 21160
L36990 21180
L36840 21180
L36840 20780
L36970 20780
L37010 20800
L37030 20820
L37040 20860
L37040 20900
L37030 20930
L37010 20950
L36970 20970
L36840 20970
" />
<path d="M37310 20780
L37350 20780
L37390 20800
L37410 20820
L37430 20860
L37440 20930
L37440 21030
L37430 21100
L37410 21140
L37390 21160
L37350 21180
L37310 21180
L37270 21160
L37250 21140
L37240 21100
L37220 21030
L37220 20930
L37240 20860
L37250 20820
L37270 20800
L37310 20780
" />
<path d="M37730 21330
L37710 21310
L37670 21260
L37650 21220
L37630 21160
L37620 21070
L37620 20990
L37630 20900
L37650 20840
L37670 20800
L37710 20740
L37730 20720
" />
<path d="M37890 21180
L37890 20780
L38020 21070
L38150 20780
L38150 21180
" />
<path d="M38420 20780
L38500 20780
L38540 20800
L38570 20840
L38590 20910
L38590 21050
L38570 21120
L38540 21160
L38500 21180
L38420 21180
L38380 21160
L38350 21120
L38330 21050
L38330 20910
L38350 20840
L38380 20800
L38420 20780
" />
<path d="M38750 21160
L38800 21180
L38900 21180
L38940 21160
L38960 21140
L38970 21100
L38970 21070
L38960 21030
L38940 21010
L38900 20990
L38820 20970
L38780 20950
L38770 20930
L38750 20900
L38750 20860
L38770 20820
L38780 20800
L38820 20780
L38920 20780
L38970 20800
" />
<path d="M39150 21180
L39150 20780
" />
<path d="M39620 20760
L39280 21280
" />
<path d="M39760 21180
L39760 20780
L39850 20780
L39910 20800
L39950 20840
L39960 20880
L39980 20950
L39980 21010
L39960 21090
L39950 21120
L39910 21160
L39850 21180
L39760 21180
" />
<path d="M40160 21180
L40160 20780
" />
<path d="M40630 20760
L40290 21280
" />
<path d="M40750 21160
L40800 21180
L40900 21180
L40940 21160
L40960 21140
L40970 21100
L40970 21070
L40960 21030
L40940 21010
L40900 20990
L40820 20970
L40780 20950
L40770 20930
L40750 20900
L40750 20860
L40770 20820
L40780 20800
L40820 20780
L40920 20780
L40970 20800
" />
<path d="M41150 21180
L41150 20780
L41240 20780
L41300 20800
L41340 20840
L41350 20880
L41370 20950
L41370 21010
L41350 21090
L41340 21120
L41300 21160
L41240 21180
L41150 21180
" />
<path d="M41530 21070
L41720 21070
" />
<path d="M41490 21180
L41620 20780
L41750 21180
" />
<path d="M42170 20760
L41830 21280
" />
<path d="M42290 21070
L42480 21070
" />
<path d="M42250 21180
L42380 20780
L42510 21180
" />
<path d="M42650 21180
L42650 20780
" />
<path d="M42840 21180
L42840 20780
L43060 21180
L43060 20780
" />
<path d="M43330 20780
L43370 20780
L43410 20800
L43430 20820
L43450 20860
L43460 20930
L43460 21030
L43450 21100
L43430 21140
L43410 21160
L43370 21180
L43330 21180
L43290 21160
L43270 21140
L43260 21100
L43240 21030
L43240 20930
L43260 20860
L43270 20820
L43290 20800
L43330 20780
" />
<path d="M43920 20760
L43580 21280
" />
<path d="M44130 20780
L44210 20780
L44250 20800
L44280 20840
L44300 20910
L44300 21050
L44280 21120
L44250 21160
L44210 21180
L44130 21180
L44090 21160
L44060 21120
L44040 21050
L44040 20910
L44060 20840
L44090 20800
L44130 20780
" />
<path d="M44700 21140
L44680 21160
L44630 21180
L44590 21180
L44530 21160
L44490 21120
L44480 21090
L44460 21010
L44460 20950
L44480 20880
L44490 20840
L44530 20800
L44590 20780
L44630 20780
L44680 20800
L44700 20820
" />
<path d="M44950 20780
L44990 20780
L45030 20800
L45050 20820
L45070 20860
L45080 20930
L45080 21030
L45070 21100
L45050 21140
L45030 21160
L44990 21180
L44950 21180
L44910 21160
L44890 21140
L44880 21100
L44860 21030
L44860 20930
L44880 20860
L44890 20820
L44910 20800
L44950 20780
" />
<path d="M45240 21070
L45430 21070
" />
<path d="M45200 21180
L45330 20780
L45460 21180
" />
<path d="M45880 20760
L45540 21280
" />
<path d="M46090 20780
L46170 20780
L46210 20800
L46240 20840
L46260 20910
L46260 21050
L46240 21120
L46210 21160
L46170 21180
L46090 21180
L46050 21160
L46020 21120
L46000 21050
L46000 20910
L46020 20840
L46050 20800
L46090 20780
" />
<path d="M46660 21140
L46640 21160
L46590 21180
L46550 21180
L46490 21160
L46450 21120
L46440 21090
L46420 21010
L46420 20950
L46440 20880
L46450 20840
L46490 20800
L46550 20780
L46590 20780
L46640 20800
L46660 20820
" />
<path d="M47040 21180
L46820 21180
" />
<path d="M46930 21180
L46930 20780
L46890 20840
L46850 20880
L46820 20900
" />
<path d="M47200 21070
L47390 21070
" />
<path d="M47160 21180
L47290 20780
L47420 21180
" />
<path d="M47840 20760
L47500 21280
" />
<path d="M47960 21070
L48150 21070
" />
<path d="M47920 21180
L48050 20780
L48180 21180
" />
<path d="M48540 21180
L48410 20990
" />
<path d="M48320 21180
L48320 20780
L48470 20780
L48510 20800
L48520 20820
L48540 20860
L48540 20910
L48520 20950
L48510 20970
L48470 20990
L48320 20990
" />
<path d="M48720 20970
L48850 20970
" />
<path d="M48910 21180
L48720 21180
L48720 20780
L48910 20780
" />
<path d="M49210 20970
L49080 20970
" />
<path d="M49080 21180
L49080 20780
L49270 20780
" />
<path d="M49700 20760
L49360 21280
" />
<path d="M49840 21180
L49840 20780
L49990 20780
L50030 20800
L50040 20820
L50060 20860
L50060 20910
L50040 20950
L50030 20970
L49990 20990
L49840 20990
" />
<path d="M50460 21140
L50440 21160
L50390 21180
L50350 21180
L50290 21160
L50250 21120
L50240 21090
L50220 21010
L50220 20950
L50240 20880
L50250 20840
L50290 20800
L50350 20780
L50390 20780
L50440 20800
L50460 20820
" />
<path d="M50640 21180
L50640 20780
" />
<path d="M50830 21180
L50830 20780
L51050 21180
L51050 20780
" />
<path d="M51190 20780
L51420 20780
" />
<path d="M51300 21180
L51300 20780
" />
<path d="M51620 20780
L51660 20780
L51700 20800
L51720 20820
L51740 20860
L51750 20930
L51750 21030
L51740 21100
L51720 21140
L51700 21160
L51660 21180
L51620 21180
L51580 21160
L51560 21140
L51550 21100
L51530 21030
L51530 20930
L51550 20860
L51560 20820
L51580 20800
L51620 20780
" />
<path d="M51890 21330
L51910 21310
L51940 21260
L51960 21220
L51980 21160
L52000 21070
L52000 20990
L51980 20900
L51960 20840
L51940 20800
L51910 20740
L51890 20720
" />
</g>
<g style="fill:#840000; fill-opacity:0.0; 
stroke:#840000; stroke-width:60; stroke-opacity:1; 
stroke-linecap:round; stroke-linejoin:round;">
<path d="M53350 20480
L53160 20480
L53140 20670
L53160 20650
L53190 20630
L53290 20630
L53330 20650
L53350 20670
L53360 20710
L53360 20800
L53350 20840
L53330 20860
L53290 20880
L53190 20880
L53160 20860
L53140 20840
" />
<path d="M52500 20000
L54000 20000
" />
</g>
<g style="fill:#008484; fill-opacity:0.0; 
stroke:#008484; stroke-width:60; stroke-opacity:1; 
stroke-linecap:round; stroke-linejoin:round;">
<path d="M39550 20180
L39550 19780
L39700 19780
L39740 19800
L39750 19820
L39770 19860
L39770 19910
L39750 19950
L39740 19970
L39700 19990
L39550 19990
" />
<path d="M40080 19970
L40140 19990
L40150 20010
L40170 20050
L40170 20100
L40150 20140
L40140 20160
L40100 20180
L39950 20180
L39950 19780
L40080 19780
L40120 19800
L40140 19820
L40150 19860
L40150 19900
L40140 19930
L40120 19950
L40080 19970
L39950 19970
" />
<path d="M40550 20180
L40330 20180
" />
<path d="M40440 20180
L40440 19780
L40400 19840
L40360 19880
L40330 19900
" />
<path d="M40840 20330
L40820 20310
L40780 20260
L40760 20220
L40740 20160
L40730 20070
L40730 19990
L40740 19900
L40760 19840
L40780 19800
L40820 19740
L40840 19720
" />
<path d="M41000 20180
L41000 19780
L41130 20070
L41260 19780
L41260 20180
" />
<path d="M41460 20180
L41460 19780
" />
<path d="M41630 20160
L41680 20180
L41780 20180
L41820 20160
L41840 20140
L41850 20100
L41850 20070
L41840 20030
L41820 20010
L41780 19990
L41700 19970
L41660 19950
L41650 19930
L41630 19900
L41630 19860
L41650 19820
L41660 19800
L41700 19780
L41800 19780
L41850 19800
" />
<path d="M42100 19780
L42180 19780
L42220 19800
L42250 19840
L42270 19910
L42270 20050
L42250 20120
L42220 20160
L42180 20180
L42100 20180
L42060 20160
L42030 20120
L42010 20050
L42010 19910
L42030 19840
L42060 19800
L42100 19780
" />
<path d="M42730 19760
L42390 20280
" />
<path d="M42870 20180
L42870 19780
L42960 19780
L43020 19800
L43060 19840
L43070 19880
L43090 19950
L43090 20010
L43070 20090
L43060 20120
L43020 20160
L42960 20180
L42870 20180
" />
<path d="M43340 19780
L43420 19780
L43460 19800
L43490 19840
L43510 19910
L43510 20050
L43490 20120
L43460 20160
L43420 20180
L43340 20180
L43300 20160
L43270 20120
L43250 20050
L43250 19910
L43270 19840
L43300 19800
L43340 19780
" />
<path d="M43970 19760
L43630 20280
" />
<path d="M44090 20070
L44280 20070
" />
<path d="M44050 20180
L44180 19780
L44310 20180
" />
<path d="M44450 20180
L44450 19780
" />
<path d="M44640 20180
L44640 19780
L44860 20180
L44860 19780
" />
<path d="M45260 20180
L45040 20180
" />
<path d="M45150 20180
L45150 19780
L45110 19840
L45070 19880
L45040 19900
" />
<path d="M45720 19760
L45380 20280
" />
<path d="M45930 19780
L46010 19780
L46050 19800
L46080 19840
L46100 19910
L46100 20050
L46080 20120
L46050 20160
L46010 20180
L45930 20180
L45890 20160
L45860 20120
L45840 20050
L45840 19910
L45860 19840
L45890 19800
L45930 19780
" />
<path d="M46500 20140
L46480 20160
L46430 20180
L46390 20180
L46330 20160
L46290 20120
L46280 20090
L46260 20010
L46260 19950
L46280 19880
L46290 19840
L46330 19800
L46390 19780
L46430 19780
L46480 19800
L46500 19820
" />
<path d="M46750 19780
L46790 19780
L46830 19800
L46850 19820
L46870 19860
L46880 19930
L46880 20030
L46870 20100
L46850 20140
L46830 20160
L46790 20180
L46750 20180
L46710 20160
L46690 20140
L46680 20100
L46660 20030
L46660 19930
L46680 19860
L46690 19820
L46710 19800
L46750 19780
" />
<path d="M47190 19970
L47250 19990
L47260 20010
L47280 20050
L47280 20100
L47260 20140
L47250 20160
L47210 20180
L47060 20180
L47060 19780
L47190 19780
L47230 19800
L47250 19820
L47260 19860
L47260 19900
L47250 19930
L47230 19950
L47190 19970
L47060 19970
" />
<path d="M47740 19760
L47400 20280
" />
<path d="M47950 19780
L48030 19780
L48070 19800
L48100 19840
L48120 19910
L48120 20050
L48100 20120
L48070 20160
L48030 20180
L47950 20180
L47910 20160
L47880 20120
L47860 20050
L47860 19910
L47880 19840
L47910 19800
L47950 19780
" />
<path d="M48520 20140
L48500 20160
L48450 20180
L48410 20180
L48350 20160
L48310 20120
L48300 20090
L48280 20010
L48280 19950
L48300 19880
L48310 19840
L48350 19800
L48410 19780
L48450 19780
L48500 19800
L48520 19820
" />
<path d="M48900 20180
L48680 20180
" />
<path d="M48790 20180
L48790 19780
L48750 19840
L48710 19880
L48680 19900
" />
<path d="M49060 20070
L49250 20070
" />
<path d="M49020 20180
L49150 19780
L49280 20180
" />
<path d="M49700 19760
L49360 20280
" />
<path d="M49840 20180
L49840 19780
L49990 19780
L50030 19800
L50040 19820
L50060 19860
L50060 19910
L50040 19950
L50030 19970
L49990 19990
L49840 19990
" />
<path d="M50460 20140
L50440 20160
L50390 20180
L50350 20180
L50290 20160
L50250 20120
L50240 20090
L50220 20010
L50220 19950
L50240 19880
L50250 19840
L50290 19800
L50350 19780
L50390 19780
L50440 19800
L50460 19820
" />
<path d="M50640 20180
L50640 19780
" />
<path d="M50830 20180
L50830 19780
L51050 20180
L51050 19780
" />
<path d="M51190 19780
L51420 19780
" />
<path d="M51300 20180
L51300 19780
" />
<path d="M51750 20180
L51530 20180
" />
<path d="M51640 20180
L51640 19780
L51600 19840
L51560 19880
L51530 19900
" />
<path d="M51890 20330
L51910 20310
L51940 20260
L51960 20220
L51980 20160
L52000 20070
L52000 19990
L51980 19900
L51960 19840
L51940 19800
L51910 19740
L51890 19720
" />
</g>
<g style="fill:#840000; fill-opacity:0.0; 
stroke:#840000; stroke-width:60; stroke-opacity:1; 
stroke-linecap:round; stroke-linejoin:round;">
<path d="M53330 19480
L53250 19480
L53210 19500
L53190 19520
L53160 19580
L53140 19650
L53140 19800
L53160 19840
L53170 19860
L53210 19880
L53290 19880
L53330 19860
L53350 19840
L53360 19800
L53360 19710
L53350 19670
L53330 19650
L53290 19630
L53210 19630
L53170 19650
L53160 19670
L53140 19710
" />
<path d="M52500 19000
L54000 19000
" />
</g>
<g style="fill:#008484; fill-opacity:0.0; 
stroke:#008484; stroke-width:60; stroke-opacity:1; 
stroke-linecap:round; stroke-linejoin:round;">
<path d="M38500 19180
L38500 18780
L38650 18780
L38690 18800
L38700 18820
L38720 18860
L38720 18910
L38700 18950
L38690 18970
L38650 18990
L38500 18990
" />
<path d="M39030 18970
L39090 18990
L39100 19010
L39120 19050
L39120 19100
L39100 19140
L39090 19160
L39050 19180
L38900 19180
L38900 18780
L39030 18780
L39070 18800
L39090 18820
L39100 18860
L39100 18900
L39090 18930
L39070 18950
L39030 18970
L38900 18970
" />
<path d="M39280 18820
L39300 18800
L39330 18780
L39430 18780
L39470 18800
L39490 18820
L39500 18860
L39500 18900
L39490 18950
L39260 19180
L39500 19180
" />
<path d="M39790 19330
L39770 19310
L39730 19260
L39710 19220
L39690 19160
L39680 19070
L39680 18990
L39690 18900
L39710 18840
L39730 18800
L39770 18740
L39790 18720
" />
<path d="M39930 19160
L39980 19180
L40080 19180
L40120 19160
L40140 19140
L40150 19100
L40150 19070
L40140 19030
L40120 19010
L40080 18990
L40000 18970
L39960 18950
L39950 18930
L39930 18900
L39930 18860
L39950 18820
L39960 18800
L40000 18780
L40100 18780
L40150 18800
" />
<path d="M40550 19140
L40530 19160
L40480 19180
L40440 19180
L40380 19160
L40340 19120
L40330 19090
L40310 19010
L40310 18950
L40330 18880
L40340 18840
L40380 18800
L40440 18780
L40480 18780
L40530 18800
L40550 18820
" />
<path d="M40730 19180
L40730 18780
" />
<path d="M40950 19180
L40780 18950
" />
<path d="M40950 18780
L40730 19010
" />
<path d="M41410 18760
L41070 19280
" />
<path d="M41550 18780
L41550 19100
L41560 19140
L41580 19160
L41620 19180
L41700 19180
L41740 19160
L41750 19140
L41770 19100
L41770 18780
" />
<path d="M41950 19160
L42000 19180
L42100 19180
L42140 19160
L42160 19140
L42170 19100
L42170 19070
L42160 19030
L42140 19010
L42100 18990
L42020 18970
L41980 18950
L41970 18930
L41950 18900
L41950 18860
L41970 18820
L41980 18800
L42020 18780
L42120 18780
L42170 18800
" />
<path d="M42570 19140
L42550 19160
L42500 19180
L42460 19180
L42400 19160
L42360 19120
L42350 19090
L42330 19010
L42330 18950
L42350 18880
L42360 18840
L42400 18800
L42460 18780
L42500 18780
L42550 18800
L42570 18820
" />
<path d="M42750 19180
L42750 18780
" />
<path d="M42970 19180
L42800 18950
" />
<path d="M42970 18780
L42750 19010
" />
<path d="M43430 18760
L43090 19280
" />
<path d="M43550 19160
L43600 19180
L43700 19180
L43740 19160
L43760 19140
L43770 19100
L43770 19070
L43760 19030
L43740 19010
L43700 18990
L43620 18970
L43580 18950
L43570 18930
L43550 18900
L43550 18860
L43570 18820
L43580 18800
L43620 18780
L43720 18780
L43770 18800
" />
<path d="M44170 19140
L44150 19160
L44100 19180
L44060 19180
L44000 19160
L43960 19120
L43950 19090
L43930 19010
L43930 18950
L43950 18880
L43960 18840
L44000 18800
L44060 18780
L44100 18780
L44150 18800
L44170 18820
" />
<path d="M44540 19180
L44350 19180
L44350 18780
" />
<path d="M44950 18760
L44610 19280
" />
<path d="M45030 18780
L45260 18780
" />
<path d="M45140 19180
L45140 18780
" />
<path d="M45460 18780
L45500 18780
L45540 18800
L45560 18820
L45580 18860
L45590 18930
L45590 19030
L45580 19100
L45560 19140
L45540 19160
L45500 19180
L45460 19180
L45420 19160
L45400 19140
L45390 19100
L45370 19030
L45370 18930
L45390 18860
L45400 18820
L45420 18800
L45460 18780
" />
<path d="M46050 18760
L45710 19280
" />
<path d="M46190 19180
L46190 18780
" />
<path d="M46380 19180
L46380 18780
L46600 19180
L46600 18780
" />
<path d="M46740 18780
L46970 18780
" />
<path d="M46850 19180
L46850 18780
" />
<path d="M47170 18780
L47210 18780
L47250 18800
L47270 18820
L47290 18860
L47300 18930
L47300 19030
L47290 19100
L47270 19140
L47250 19160
L47210 19180
L47170 19180
L47130 19160
L47110 19140
L47100 19100
L47080 19030
L47080 18930
L47100 18860
L47110 18820
L47130 18800
L47170 18780
" />
<path d="M47760 18760
L47420 19280
" />
<path d="M47880 19070
L48070 19070
" />
<path d="M47840 19180
L47970 18780
L48100 19180
" />
<path d="M48240 19180
L48240 18780
L48330 18780
L48390 18800
L48430 18840
L48440 18880
L48460 18950
L48460 19010
L48440 19090
L48430 19120
L48390 19160
L48330 19180
L48240 19180
" />
<path d="M48860 19140
L48840 19160
L48790 19180
L48750 19180
L48690 19160
L48650 19120
L48640 19090
L48620 19010
L48620 18950
L48640 18880
L48650 18840
L48690 18800
L48750 18780
L48790 18780
L48840 18800
L48860 18820
" />
<path d="M49240 19180
L49020 19180
" />
<path d="M49130 19180
L49130 18780
L49090 18840
L49050 18880
L49020 18900
" />
<path d="M49700 18760
L49360 19280
" />
<path d="M49840 19180
L49840 18780
L49990 18780
L50030 18800
L50040 18820
L50060 18860
L50060 18910
L50040 18950
L50030 18970
L49990 18990
L49840 18990
" />
<path d="M50460 19140
L50440 19160
L50390 19180
L50350 19180
L50290 19160
L50250 19120
L50240 19090
L50220 19010
L50220 18950
L50240 18880
L50250 18840
L50290 18800
L50350 18780
L50390 18780
L50440 18800
L50460 18820
" />
<path d="M50640 19180
L50640 18780
" />
<path d="M50830 19180
L50830 18780
L51050 19180
L51050 18780
" />
<path d="M51190 18780
L51420 18780
" />
<path d="M51300 19180
L51300 18780
" />
<path d="M51530 18820
L51550 18800
L51580 18780
L51680 18780
L51720 18800
L51740 18820
L51750 18860
L51750 18900
L51740 18950
L51510 19180
L51750 19180
" />
<path d="M51890 19330
L51910 19310
L51940 19260
L51960 19220
L51980 19160
L52000 19070
L52000 18990
L51980 18900
L51960 18840
L51940 18800
L51910 18740
L51890 18720
" />
</g>
<g style="fill:#840000; fill-opacity:0.0; 
stroke:#840000; stroke-width:60; stroke-opacity:1; 
stroke-linecap:round; stroke-linejoin:round;">
<path d="M53120 18480
L53380 18480
L53210 18880
" />
<path d="M28500 21000
L27000 21000
" />
</g>
<g style="fill:#008484; fill-opacity:0.0; 
stroke:#008484; stroke-width:60; stroke-opacity:1; 
stroke-linecap:round; stroke-linejoin:round;">
<path d="M28940 20780
L29070 21180
L29200 20780
" />
<path d="M29560 21140
L29540 21160
L29490 21180
L29450 21180
L29390 21160
L29350 21120
L29340 21090
L29320 21010
L29320 20950
L29340 20880
L29350 20840
L29390 20800
L29450 20780
L29490 20780
L29540 20800
L29560 20820
" />
<path d="M29960 21140
L29940 21160
L29890 21180
L29850 21180
L29790 21160
L29750 21120
L29740 21090
L29720 21010
L29720 20950
L29740 20880
L29750 20840
L29790 20800
L29850 20780
L29890 20780
L29940 20800
L29960 20820
" />
</g>
<g style="fill:#840000; fill-opacity:0.0; 
stroke:#840000; stroke-width:60; stroke-opacity:1; 
stroke-linecap:round; stroke-linejoin:round;">
<path d="M27710 20650
L27670 20630
L27660 20610
L27640 20580
L27640 20560
L27660 20520
L27670 20500
L27710 20480
L27790 20480
L27830 20500
L27850 20520
L27860 20560
L27860 20580
L27850 20610
L27830 20630
L27790 20650
L27710 20650
L27670 20670
L27660 20690
L27640 20730
L27640 20800
L27660 20840
L27670 20860
L27710 20880
L27790 20880
L27830 20860
L27850 20840
L27860 20800
L27860 20730
L27850 20690
L27830 20670
L27790 20650
" />
</g>
<g style="fill:#008484; fill-opacity:0.0; 
stroke:#008484; stroke-width:60; stroke-opacity:1; 
stroke-linecap:round; stroke-linejoin:round;">
<path d="M51510 22690
L51510 22190
" />
<path d="M52030 22640
L52010 22660
L51940 22690
L51890 22690
L51820 22660
L51770 22610
L51750 22570
L51730 22470
L51730 22400
L51750 22310
L51770 22260
L51820 22210
L51890 22190
L51940 22190
L52010 22210
L52030 22230
" />
<path d="M52510 22690
L52230 22690
" />
<path d="M52370 22690
L52370 22190
L52320 22260
L52270 22310
L52230 22330
" />
<path d="M28380 14540
L28610 14540
" />
<path d="M28330 14690
L28490 14190
L28660 14690
" />
<path d="M28760 14190
L29040 14190
" />
<path d="M28900 14690
L28900 14190
" />
<path d="M29140 14190
L29420 14190
" />
<path d="M29280 14690
L29280 14190
" />
<path d="M29590 14690
L29590 14190
" />
<path d="M29830 14690
L29830 14190
L30110 14690
L30110 14190
" />
<path d="M30440 14450
L30440 14690
" />
<path d="M30280 14190
L30440 14450
L30610 14190
" />
<path d="M30850 14400
L30800 14380
L30780 14350
L30760 14310
L30760 14280
L30780 14230
L30800 14210
L30850 14190
L30950 14190
L30990 14210
L31020 14230
L31040 14280
L31040 14310
L31020 14350
L30990 14380
L30950 14400
L30850 14400
L30800 14420
L30780 14450
L30760 14500
L30760 14590
L30780 14640
L30800 14660
L30850 14690
L30950 14690
L30990 14660
L31020 14640
L31040 14590
L31040 14500
L31020 14450
L30990 14420
L30950 14400
" />
<path d="M31500 14190
L31260 14190
L31240 14420
L31260 14400
L31310 14380
L31430 14380
L31470 14400
L31500 14420
L31520 14470
L31520 14590
L31500 14640
L31470 14660
L31430 14690
L31310 14690
L31260 14660
L31240 14640
" />
<path d="M31740 14500
L32120 14500
" />
<path d="M32340 14660
L32410 14690
L32530 14690
L32570 14660
L32600 14640
L32620 14590
L32620 14540
L32600 14500
L32570 14470
L32530 14450
L32430 14420
L32380 14400
L32360 14380
L32340 14330
L32340 14280
L32360 14230
L32380 14210
L32430 14190
L32550 14190
L32620 14210
" />
</g>
<g style="fill:#840084; fill-opacity:0.0; 
stroke:#840084; stroke-width:60; stroke-opacity:1; 
stroke-linecap:round; stroke-linejoin:round;">
<path d="M30450 22690
L30520 22190
" />
<path d="M30490 22420
L30770 22420
" />
<path d="M30730 22690
L30800 22190
" />
<path d="M31040 22690
L31000 22660
L30980 22640
L30970 22590
L30980 22450
L31010 22400
L31030 22380
L31090 22350
L31160 22350
L31200 22380
L31220 22400
L31240 22450
L31230 22590
L31190 22640
L31170 22660
L31110 22690
L31040 22690
" />
<path d="M31680 22350
L31630 22690
" />
<path d="M31470 22350
L31430 22610
L31450 22660
L31490 22690
L31560 22690
L31620 22660
L31640 22640
" />
<path d="M31860 22660
L31890 22690
L31990 22690
L32050 22660
L32070 22610
L32080 22590
L32060 22540
L32010 22520
L31940 22520
L31900 22500
L31880 22450
L31890 22420
L31910 22380
L31970 22350
L32040 22350
L32080 22380
" />
<path d="M32270 22690
L32320 22350
" />
<path d="M32340 22190
L32310 22210
L32330 22230
L32350 22210
L32340 22190
L32330 22230
" />
<path d="M32560 22350
L32510 22690
" />
<path d="M32550 22400
L32570 22380
L32630 22350
L32700 22350
L32740 22380
L32760 22420
L32720 22690
" />
<path d="M33220 22350
L33160 22760
L33140 22810
L33110 22830
L33060 22850
L32990 22850
L32940 22830
" />
<path d="M33180 22660
L33130 22690
L33030 22690
L32990 22660
L32970 22640
L32960 22590
L32970 22450
L33000 22400
L33020 22380
L33080 22350
L33180 22350
L33210 22380
" />
<path d="M33400 22660
L33430 22690
L33530 22690
L33590 22660
L33610 22610
L33620 22590
L33600 22540
L33550 22520
L33480 22520
L33440 22500
L33420 22450
L33430 22420
L33450 22380
L33510 22350
L33580 22350
L33620 22380
" />
<path d="M33690 22730
L34070 22730
" />
<path d="M34180 22660
L34240 22690
L34360 22690
L34410 22660
L34440 22640
L34470 22590
L34470 22540
L34460 22500
L34430 22470
L34390 22450
L34300 22420
L34250 22400
L34230 22380
L34220 22330
L34220 22280
L34250 22230
L34270 22210
L34330 22190
L34450 22190
L34510 22210
" />
<path d="M34830 22190
L34930 22190
L34970 22210
L35010 22260
L35030 22350
L35000 22520
L34960 22610
L34920 22660
L34860 22690
L34760 22690
L34730 22660
L34680 22610
L34670 22520
L34700 22350
L34730 22260
L34780 22210
L34830 22190
" />
<path d="M35190 22690
L35260 22190
" />
<path d="M35720 22640
L35700 22660
L35620 22690
L35570 22690
L35510 22660
L35460 22610
L35450 22570
L35440 22470
L35450 22400
L35480 22310
L35510 22260
L35560 22210
L35640 22190
L35690 22190
L35750 22210
L35770 22230
" />
<path d="M35940 22640
L35960 22660
L35930 22690
L35920 22660
L35940 22640
L35930 22690
" />
<path d="M35970 22380
L35990 22400
L35970 22420
L35950 22400
L35970 22380
L35970 22420
" />
<path d="M36160 22660
L36220 22690
L36340 22690
L36390 22660
L36420 22640
L36450 22590
L36450 22540
L36440 22500
L36410 22470
L36370 22450
L36280 22420
L36230 22400
L36210 22380
L36200 22330
L36200 22280
L36230 22230
L36250 22210
L36310 22190
L36430 22190
L36490 22210
" />
<path d="M36810 22190
L36910 22190
L36950 22210
L36990 22260
L37010 22350
L36980 22520
L36940 22610
L36900 22660
L36840 22690
L36740 22690
L36710 22660
L36660 22610
L36650 22520
L36680 22350
L36710 22260
L36760 22210
L36810 22190
" />
<path d="M37170 22690
L37240 22190
" />
<path d="M37620 22190
L37570 22540
L37540 22610
L37490 22660
L37410 22690
L37360 22690
" />
<path d="M37820 22500
L38200 22500
" />
<path d="M38520 22400
L38470 22380
L38460 22350
L38440 22310
L38440 22280
L38470 22230
L38490 22210
L38550 22190
L38650 22190
L38680 22210
L38710 22230
L38720 22280
L38720 22310
L38700 22350
L38660 22380
L38620 22400
L38520 22400
L38470 22420
L38440 22450
L38420 22500
L38410 22590
L38420 22640
L38440 22660
L38480 22690
L38580 22690
L38630 22660
L38660 22640
L38690 22590
L38700 22500
L38680 22450
L38660 22420
L38620 22400
" />
<path d="M38770 22730
L39150 22730
" />
<path d="M39580 22190
L39340 22190
L39290 22420
L39310 22400
L39360 22380
L39480 22380
L39520 22400
L39550 22420
L39560 22470
L39550 22590
L39520 22640
L39490 22660
L39440 22690
L39320 22690
L39280 22660
L39260 22640
" />
<path d="M39760 22640
L39780 22660
L39750 22690
L39740 22660
L39760 22640
L39750 22690
" />
<path d="M40010 22190
L40320 22190
L40120 22380
L40200 22380
L40240 22400
L40270 22420
L40280 22470
L40270 22590
L40240 22640
L40210 22660
L40160 22690
L40010 22690
L39980 22660
L39950 22640
" />
<path d="M40420 22690
L40730 22350
" />
<path d="M40470 22350
L40680 22690
" />
<path d="M41180 22190
L40940 22190
L40890 22420
L40910 22400
L40960 22380
L41080 22380
L41120 22400
L41150 22420
L41160 22470
L41150 22590
L41120 22640
L41090 22660
L41040 22690
L40920 22690
L40880 22660
L40860 22640
" />
<path d="M41360 22640
L41380 22660
L41350 22690
L41340 22660
L41360 22640
L41350 22690
" />
<path d="M41610 22190
L41920 22190
L41720 22380
L41800 22380
L41840 22400
L41870 22420
L41880 22470
L41870 22590
L41840 22640
L41810 22660
L41760 22690
L41610 22690
L41580 22660
L41550 22640
" />
<path d="M42070 22690
L42120 22350
" />
<path d="M42110 22400
L42130 22380
L42190 22350
L42260 22350
L42300 22380
L42320 22420
L42280 22690
" />
<path d="M42320 22420
L42350 22380
L42400 22350
L42480 22350
L42510 22380
L42540 22420
L42500 22690
" />
<path d="M42740 22690
L42790 22350
" />
<path d="M42780 22400
L42800 22380
L42860 22350
L42930 22350
L42970 22380
L42990 22420
L42950 22690
" />
<path d="M42990 22420
L43020 22380
L43070 22350
L43150 22350
L43180 22380
L43210 22420
L43170 22690
" />
<path d="M43290 22730
L43670 22730
" />
<path d="M43790 22690
L43860 22190
L44050 22190
L44090 22210
L44110 22230
L44120 22280
L44120 22350
L44090 22400
L44070 22420
L44010 22450
L43820 22450
" />
<path d="M44290 22690
L44340 22350
" />
<path d="M44360 22190
L44330 22210
L44350 22230
L44370 22210
L44360 22190
L44350 22230
" />
<path d="M44510 22350
L44700 22350
" />
<path d="M44600 22190
L44540 22610
L44560 22660
L44600 22690
L44650 22690
" />
<path d="M45040 22660
L44990 22690
L44890 22690
L44850 22660
L44830 22640
L44820 22590
L44830 22450
L44860 22400
L44880 22380
L44940 22350
L45040 22350
L45070 22380
" />
<path d="M45250 22690
L45320 22190
" />
<path d="M45460 22690
L45500 22420
L45480 22380
L45440 22350
L45370 22350
L45310 22380
L45290 22400
" />
<path d="M45960 22690
L45680 22690
" />
<path d="M45820 22690
L45890 22190
L45830 22260
L45770 22310
L45730 22330
" />
<path d="M46190 22640
L46210 22660
L46180 22690
L46170 22660
L46190 22640
L46180 22690
" />
<path d="M46460 22230
L46480 22210
L46540 22190
L46660 22190
L46690 22210
L46720 22230
L46730 22280
L46730 22330
L46700 22400
L46370 22690
L46680 22690
" />
<path d="M46920 22190
L47250 22190
L46970 22690
" />
<path d="M47380 22690
L47430 22350
" />
<path d="M47420 22400
L47440 22380
L47500 22350
L47570 22350
L47610 22380
L47630 22420
L47590 22690
" />
<path d="M47630 22420
L47660 22380
L47710 22350
L47790 22350
L47820 22380
L47850 22420
L47810 22690
" />
<path d="M48050 22690
L48100 22350
" />
<path d="M48090 22400
L48110 22380
L48170 22350
L48240 22350
L48280 22380
L48300 22420
L48260 22690
" />
<path d="M48300 22420
L48330 22380
L48380 22350
L48460 22350
L48490 22380
L48520 22420
L48480 22690
" />
</g>
<g style="fill:#008400; fill-opacity:0.0; 
stroke:#008400; stroke-width:60; stroke-opacity:1; 
stroke-linecap:round; stroke-linejoin:round;">
<path d="M19500 16000
L27000 16000
" />
<path d="M25000 17000
L25000 16000
" />
</g>
<g style="fill:#008400; fill-opacity:0.0; 
stroke:#008400; stroke-width:0; stroke-opacity:1; 
stroke-linecap:round; stroke-linejoin:round;">
</g>
<g style="fill:#008400; fill-opacity:1.0; 
stroke:#008400; stroke-width:100; stroke-opacity:1; 
stroke-linecap:round; stroke-linejoin:round;">
<circle cx="25000" cy="16000" r="200" /> 
</g>
<g style="fill:#008400; fill-opacity:1.0; 
stroke:#008400; stroke-width:60; stroke-opacity:1; 
stroke-linecap:round; stroke-linejoin:round;">
</g>
<g style="fill:#008400; fill-opacity:0.0; 
stroke:#008400; stroke-width:60; stroke-opacity:1; 
stroke-linecap:round; stroke-linejoin:round;">
<path d="M25000 20000
L25000 26500
" />
</g>
<g style="fill:#008400; fill-opacity:0.0; 
stroke:#008400; stroke-width:0; stroke-opacity:1; 
stroke-linecap:round; stroke-linejoin:round;">
</g>
<g style="fill:#008400; fill-opacity:1.0; 
stroke:#008400; stroke-width:100; stroke-opacity:1; 
stroke-linecap:round; stroke-linejoin:round;">
<circle cx="25000" cy="21000" r="200" /> 
</g>
<g style="fill:#008400; fill-opacity:1.0; 
stroke:#008400; stroke-width:0; stroke-opacity:1; 
stroke-linecap:round; stroke-linejoin:round;">
</g>
<g style="fill:#008400; fill-opacity:1.0; 
stroke:#008400; stroke-width:100; stroke-opacity:1; 
stroke-linecap:round; stroke-linejoin:round;">
<circle cx="19500" cy="21000" r="200" /> 
</g>
<g style="fill:#008400; fill-opacity:1.0; 
stroke:#008400; stroke-width:60; stroke-opacity:1; 
stroke-linecap:round; stroke-linejoin:round;">
</g>
<g style="fill:#008400; fill-opacity:0.0; 
stroke:#008400; stroke-width:60; stroke-opacity:1; 
stroke-linecap:round; stroke-linejoin:round;">
<path d="M54000 21000
L58500 21000
" />
<path d="M58500 16000
L58500 24000
" />
<path d="M54000 20000
L57500 20000
" />
<path d="M57500 20000
L57500 8500
" />
<path d="M54000 19000
L56500 19000
" />
<path d="M56500 19000
L56500 9500
" />
<path d="M54000 16000
L55500 16000
" />
<path d="M55500 16000
L55500 10500
" />
</g>
<g style="fill:#008400; fill-opacity:0.0; 
stroke:#008400; stroke-width:0; stroke-opacity:1; 
stroke-linecap:round; stroke-linejoin:round;">
</g>
<g style="fill:#008400; fill-opacity:1.0; 
stroke:#008400; stroke-width:100; stroke-opacity:1; 
stroke-linecap:round; stroke-linejoin:round;">
<circle cx="58500" cy="21000" r="200" /> 
</g>
<g style="fill:#008400; fill-opacity:1.0; 
stroke:#008400; stroke-width:60; stroke-opacity:1; 
stroke-linecap:round; stroke-linejoin:round;">
</g>
<g style="fill:#008400; fill-opacity:0.0; 
stroke:#008400; stroke-width:60; stroke-opacity:1; 
stroke-linecap:round; stroke-linejoin:round;">
<path d="M67000 24000
L68500 24000
" />
<path d="M54000 18000
L60500 18000
" />
<path d="M60500 18000
L60500 21000
" />
<path d="M60500 21000
L62500 21000
" />
</g>
<g style="fill:#000084; fill-opacity:0.0; 
stroke:#000084; stroke-width:60; stroke-opacity:1; 
stroke-linecap:round; stroke-linejoin:round;">
<path d="M53760 16760
L54240 17240
" />
<path d="M54240 16760
L53760 17240
" />
</g>
<g style="fill:#000084; fill-opacity:0.0; 
stroke:#000084; stroke-width:0; stroke-opacity:1; 
stroke-linecap:round; stroke-linejoin:round;">
</g>
<g style="fill:#840000; fill-opacity:0.0; 
stroke:#840000; stroke-width:0; stroke-opacity:1; 
stroke-linecap:round; stroke-linejoin:round;">
</g>
<g style="fill:#840000; fill-opacity:0.0; 
stroke:#840000; stroke-width:60; stroke-opacity:1; 
stroke-linecap:round; stroke-linejoin:round;">
<polyline fill="none;"
points="62000,24500
62000,23500
" /> 
<polyline fill="none;"
points="62300,23750
62750,23350
62700,23600
" /> 
<polyline fill="none;"
points="62150,23600
62600,23200
62550,23450
" /> 
</g>
<g style="fill:#840000; fill-opacity:1.0; 
stroke:#840000; stroke-width:60; stroke-opacity:1; 
stroke-linecap:round; stroke-linejoin:round;">
<polyline style="fill-rule:evenodd;"
points="61000,24500
62000,24000
61000,23500
" /> 
</g>
<g style="fill:#840000; fill-opacity:0.0; 
stroke:#840000; stroke-width:60; stroke-opacity:1; 
stroke-linecap:round; stroke-linejoin:round;">
<path d="M62000 24000
L63500 24000
" />
<path d="M62860 23880
L62640 23880
" />
<path d="M62750 23880
L62750 23480
L62710 23540
L62670 23580
L62640 23600
" />
<path d="M61000 24000
L59500 24000
" />
<path d="M60140 23520
L60160 23500
L60190 23480
L60290 23480
L60330 23500
L60350 23520
L60360 23560
L60360 23600
L60350 23650
L60120 23880
L60360 23880
" />
</g>
<g style="fill:#008484; fill-opacity:0.0; 
stroke:#008484; stroke-width:60; stroke-opacity:1; 
stroke-linecap:round; stroke-linejoin:round;">
<path d="M61130 25190
L61130 24690
L61250 24690
L61320 24710
L61370 24760
L61390 24810
L61410 24900
L61410 24970
L61390 25070
L61370 25110
L61320 25160
L61250 25190
L61130 25190
" />
<path d="M61890 25190
L61610 25190
" />
<path d="M61750 25190
L61750 24690
L61700 24760
L61650 24810
L61610 24830
" />
<path d="M61180 23190
L60940 23190
L60940 22690
" />
<path d="M61340 22920
L61510 22920
" />
<path d="M61580 23190
L61340 23190
L61340 22690
L61580 22690
" />
<path d="M61790 23190
L61790 22690
L61910 22690
L61980 22710
L62030 22760
L62050 22810
L62070 22900
L62070 22970
L62050 23070
L62030 23110
L61980 23160
L61910 23190
L61790 23190
" />
</g>
<g style="fill:#008400; fill-opacity:0.0; 
stroke:#008400; stroke-width:60; stroke-opacity:1; 
stroke-linecap:round; stroke-linejoin:round;">
<path d="M58500 24000
L59500 24000
" />
<path d="M63500 24000
L64000 24000
" />
</g> 
</svg>
