%MOIN*%
%OFA0B0*%
%FSLAX36Y36*%
%IPPOS*%
%LPD*%
%ADD10C,0*%
D10*
X002498425Y001099999D02*
X002498425Y001099999D01*
X002497569Y001113052D01*
X002495017Y001125882D01*
X002490812Y001138268D01*
X002485027Y001149999D01*
X002477760Y001160876D01*
X002469135Y001170710D01*
X002459300Y001179335D01*
X002448425Y001186602D01*
X002436693Y001192388D01*
X002424307Y001196592D01*
X002411477Y001199144D01*
X002398425Y001200000D01*
X001973049Y001200000D01*
X001970467Y001200084D01*
X001967895Y001200338D01*
X001965345Y001200761D01*
X001962829Y001201349D01*
X001960357Y001202102D01*
X001957939Y001203015D01*
X001955587Y001204084D01*
X001953309Y001205306D01*
X001951117Y001206674D01*
X001949019Y001208184D01*
X001947025Y001209827D01*
X001945143Y001211598D01*
X001943381Y001213489D01*
X001941747Y001215491D01*
X001940248Y001217596D01*
X001938890Y001219795D01*
X001937680Y001222078D01*
X001936622Y001224436D01*
X001935720Y001226858D01*
X001934980Y001229334D01*
X001929791Y001249019D01*
X001929033Y001252536D01*
X001928601Y001256109D01*
X001928496Y001259705D01*
X001928719Y001263297D01*
X001929270Y001266852D01*
X001930143Y001270343D01*
X001931331Y001273740D01*
X001932825Y001277013D01*
X001934611Y001280137D01*
X001936674Y001283085D01*
X001938999Y001285832D01*
X001941564Y001288355D01*
X001944349Y001290633D01*
X001947330Y001292648D01*
X001950483Y001294382D01*
X001953781Y001295821D01*
X001957197Y001296953D01*
X001960701Y001297768D01*
X001964266Y001298260D01*
X001967860Y001298425D01*
X002398425Y001298425D01*
X002411477Y001299281D01*
X002424307Y001301832D01*
X002436693Y001306037D01*
X002448425Y001311822D01*
X002459300Y001319090D01*
X002469135Y001327714D01*
X002477760Y001337549D01*
X002485027Y001348425D01*
X002490812Y001360157D01*
X002495017Y001372543D01*
X002497569Y001385372D01*
X002498425Y001398425D01*
X002498425Y002398425D01*
X002497569Y002411478D01*
X002495017Y002424307D01*
X002490812Y002436693D01*
X002485027Y002448425D01*
X002477760Y002459301D01*
X002469135Y002469136D01*
X002459300Y002477760D01*
X002448425Y002485027D01*
X002436693Y002490813D01*
X002424307Y002495018D01*
X002411477Y002497569D01*
X002398425Y002498425D01*
X001959069Y002498425D01*
X001956279Y002498524D01*
X001953503Y002498820D01*
X001950754Y002499313D01*
X001948048Y002499999D01*
X001945397Y002500875D01*
X001942815Y002501936D01*
X001940315Y002503178D01*
X001937909Y002504594D01*
X001935609Y002506177D01*
X001933428Y002507919D01*
X001931375Y002509812D01*
X001929461Y002511845D01*
X001927697Y002514008D01*
X001926090Y002516291D01*
X001924649Y002518682D01*
X001923381Y002521170D01*
X001922293Y002523741D01*
X001921389Y002526382D01*
X001920675Y002529081D01*
X001920154Y002531824D01*
X001917134Y002551509D01*
X001916764Y002554879D01*
X001916686Y002558269D01*
X001916900Y002561653D01*
X001917404Y002565006D01*
X001918195Y002568304D01*
X001919267Y002571521D01*
X001920612Y002574633D01*
X001922219Y002577619D01*
X001924077Y002580455D01*
X001926173Y002583121D01*
X001928490Y002585596D01*
X001931012Y002587863D01*
X001933719Y002589905D01*
X001936592Y002591706D01*
X001939609Y002593253D01*
X001942748Y002594535D01*
X001945986Y002595542D01*
X001949298Y002596267D01*
X001952661Y002596704D01*
X001956048Y002596850D01*
X002398425Y002596850D01*
X002411477Y002597706D01*
X002424307Y002600257D01*
X002436693Y002604462D01*
X002448425Y002610247D01*
X002459300Y002617515D01*
X002469135Y002626139D01*
X002477760Y002635974D01*
X002485027Y002646850D01*
X002490812Y002658582D01*
X002495017Y002670968D01*
X002497569Y002683798D01*
X002498425Y002696850D01*
X002498425Y003070239D01*
X002498560Y003073496D01*
X002498964Y003076731D01*
X002499634Y003079922D01*
X002500566Y003083046D01*
X002501753Y003086082D01*
X002503188Y003089010D01*
X002504860Y003091809D01*
X002506757Y003094460D01*
X002508868Y003096945D01*
X002511177Y003099247D01*
X002513668Y003101350D01*
X002516325Y003103239D01*
X002519129Y003104903D01*
X002522061Y003106328D01*
X002525101Y003107506D01*
X002528228Y003108429D01*
X002531420Y003109089D01*
X002534657Y003109483D01*
X002537915Y003109609D01*
X002541172Y003109464D01*
X002560857Y003107769D01*
X002563757Y003107410D01*
X002566623Y003106838D01*
X002569438Y003106054D01*
X002572188Y003105064D01*
X002574856Y003103872D01*
X002577429Y003102486D01*
X002579892Y003100912D01*
X002582231Y003099161D01*
X002584434Y003097241D01*
X002586488Y003095162D01*
X002588383Y003092937D01*
X002590107Y003090578D01*
X002591652Y003088097D01*
X002593008Y003085508D01*
X002594168Y003082826D01*
X002595127Y003080065D01*
X002595877Y003077241D01*
X002596417Y003074369D01*
X002596742Y003071464D01*
X002596850Y003068544D01*
X002596850Y002696850D01*
X002597706Y002683798D01*
X002600257Y002670968D01*
X002604461Y002658582D01*
X002610247Y002646850D01*
X002617514Y002635974D01*
X002626139Y002626139D01*
X002635973Y002617515D01*
X002646850Y002610247D01*
X002658581Y002604462D01*
X002670968Y002600257D01*
X002683797Y002597706D01*
X002696850Y002596850D01*
X003053120Y002596850D01*
X003056040Y002596741D01*
X003058944Y002596417D01*
X003061816Y002595877D01*
X003064641Y002595126D01*
X003067401Y002594168D01*
X003070084Y002593008D01*
X003072672Y002591651D01*
X003075153Y002590107D01*
X003077513Y002588383D01*
X003079738Y002586488D01*
X003081816Y002584434D01*
X003083736Y002582231D01*
X003085488Y002579891D01*
X003087061Y002577429D01*
X003088448Y002574856D01*
X003089639Y002572188D01*
X003090630Y002569438D01*
X003091413Y002566623D01*
X003091986Y002563757D01*
X003092344Y002560857D01*
X003094039Y002541172D01*
X003094184Y002537915D01*
X003094059Y002534657D01*
X003093665Y002531421D01*
X003093004Y002528228D01*
X003092082Y002525101D01*
X003090904Y002522061D01*
X003089478Y002519129D01*
X003087815Y002516325D01*
X003085926Y002513668D01*
X003083823Y002511177D01*
X003081521Y002508868D01*
X003079036Y002506757D01*
X003076385Y002504860D01*
X003073586Y002503188D01*
X003070658Y002501753D01*
X003067622Y002500566D01*
X003064497Y002499634D01*
X003061307Y002498964D01*
X003058072Y002498560D01*
X003054814Y002498425D01*
X002696850Y002498425D01*
X002683797Y002497569D01*
X002670968Y002495018D01*
X002658581Y002490813D01*
X002646850Y002485027D01*
X002635973Y002477760D01*
X002626139Y002469136D01*
X002617514Y002459301D01*
X002610247Y002448425D01*
X002604461Y002436693D01*
X002600257Y002424307D01*
X002597706Y002411478D01*
X002596850Y002398425D01*
X002596850Y001398425D01*
X002597706Y001385372D01*
X002600257Y001372543D01*
X002604461Y001360157D01*
X002610247Y001348425D01*
X002617514Y001337549D01*
X002626139Y001327714D01*
X002635973Y001319090D01*
X002646850Y001311822D01*
X002658581Y001306037D01*
X002670968Y001301832D01*
X002683797Y001299281D01*
X002696850Y001298425D01*
X003051581Y001298425D01*
X003055176Y001298260D01*
X003058740Y001297768D01*
X003062245Y001296953D01*
X003065660Y001295821D01*
X003068958Y001294382D01*
X003072111Y001292648D01*
X003075092Y001290633D01*
X003077877Y001288355D01*
X003080443Y001285832D01*
X003082767Y001283085D01*
X003084831Y001280137D01*
X003086617Y001277013D01*
X003088110Y001273740D01*
X003089298Y001270343D01*
X003090171Y001266852D01*
X003090722Y001263297D01*
X003090946Y001259705D01*
X003090841Y001256109D01*
X003090408Y001252536D01*
X003089651Y001249019D01*
X003084461Y001229334D01*
X003083721Y001226858D01*
X003082820Y001224436D01*
X003081762Y001222078D01*
X003080551Y001219795D01*
X003079193Y001217596D01*
X003077694Y001215491D01*
X003076060Y001213489D01*
X003074298Y001211598D01*
X003072416Y001209827D01*
X003070422Y001208184D01*
X003068324Y001206674D01*
X003066132Y001205306D01*
X003063855Y001204084D01*
X003061502Y001203015D01*
X003059085Y001202102D01*
X003056612Y001201349D01*
X003054096Y001200761D01*
X003051546Y001200338D01*
X003048975Y001200084D01*
X003046392Y001200000D01*
X002696850Y001200000D01*
X002683797Y001199144D01*
X002670968Y001196592D01*
X002658581Y001192388D01*
X002646850Y001186602D01*
X002635973Y001179335D01*
X002626139Y001170710D01*
X002617514Y001160876D01*
X002610247Y001149999D01*
X002604461Y001138268D01*
X002600257Y001125882D01*
X002597706Y001113052D01*
X002596850Y001099999D01*
X002596850Y000652523D01*
X002596742Y000649602D01*
X002596417Y000646698D01*
X002595877Y000643826D01*
X002595127Y000641001D01*
X002594168Y000638241D01*
X002593008Y000635559D01*
X002591652Y000632970D01*
X002590107Y000630489D01*
X002588383Y000628130D01*
X002586488Y000625904D01*
X002584434Y000623826D01*
X002582231Y000621906D01*
X002579892Y000620154D01*
X002577429Y000618581D01*
X002574856Y000617195D01*
X002572188Y000616003D01*
X002569438Y000615013D01*
X002566623Y000614229D01*
X002563757Y000613656D01*
X002560857Y000613298D01*
X002541172Y000611603D01*
X002537915Y000611458D01*
X002534657Y000611583D01*
X002531420Y000611977D01*
X002528228Y000612638D01*
X002525101Y000613560D01*
X002522061Y000614738D01*
X002519129Y000616164D01*
X002516325Y000617827D01*
X002513668Y000619717D01*
X002511177Y000621820D01*
X002508868Y000624122D01*
X002506757Y000626607D01*
X002504860Y000629258D01*
X002503188Y000632057D01*
X002501753Y000634984D01*
X002500566Y000638021D01*
X002499634Y000641145D01*
X002498964Y000644335D01*
X002498560Y000647570D01*
X002498425Y000650828D01*
X002498425Y001099999D01*
X001199999Y001099999D02*
X001199999Y001099999D01*
X001199143Y001113052D01*
X001196592Y001125882D01*
X001192387Y001138268D01*
X001186602Y001149999D01*
X001179335Y001160876D01*
X001170710Y001170710D01*
X001160875Y001179335D01*
X001149999Y001186602D01*
X001138267Y001192388D01*
X001125881Y001196592D01*
X001113051Y001199144D01*
X001100000Y001200000D01*
X000661154Y001200000D01*
X000658984Y001200059D01*
X000656821Y001200239D01*
X000654672Y001200537D01*
X000652542Y001200953D01*
X000650438Y001201486D01*
X000648367Y001202134D01*
X000646335Y001202895D01*
X000644347Y001203767D01*
X000642411Y001204747D01*
X000640532Y001205832D01*
X000638715Y001207020D01*
X000636967Y001208305D01*
X000635292Y001209685D01*
X000633695Y001211155D01*
X000632182Y001212711D01*
X000630758Y001214348D01*
X000629425Y001216061D01*
X000628189Y001217844D01*
X000627053Y001219694D01*
X000626021Y001221603D01*
X000616066Y001241287D01*
X000614440Y001244955D01*
X000613196Y001248770D01*
X000612346Y001252691D01*
X000611900Y001256678D01*
X000611863Y001260690D01*
X000612233Y001264685D01*
X000613009Y001268621D01*
X000614181Y001272458D01*
X000615737Y001276156D01*
X000617662Y001279676D01*
X000619934Y001282982D01*
X000622532Y001286040D01*
X000625427Y001288817D01*
X000628590Y001291286D01*
X000631988Y001293419D01*
X000635585Y001295196D01*
X000639344Y001296597D01*
X000643227Y001297609D01*
X000647192Y001298220D01*
X000651199Y001298425D01*
X001100000Y001298425D01*
X001113051Y001299281D01*
X001125881Y001301832D01*
X001138267Y001306037D01*
X001149999Y001311822D01*
X001160875Y001319090D01*
X001170710Y001327714D01*
X001179335Y001337549D01*
X001186602Y001348425D01*
X001192387Y001360157D01*
X001196592Y001372543D01*
X001199143Y001385372D01*
X001199999Y001398425D01*
X001199999Y002398425D01*
X001199143Y002411478D01*
X001196592Y002424307D01*
X001192387Y002436693D01*
X001186602Y002448425D01*
X001179335Y002459301D01*
X001170710Y002469136D01*
X001160875Y002477760D01*
X001149999Y002485027D01*
X001138267Y002490813D01*
X001125881Y002495018D01*
X001113051Y002497569D01*
X001100000Y002498425D01*
X000689134Y002498425D01*
X000686344Y002498524D01*
X000683567Y002498820D01*
X000680819Y002499313D01*
X000678113Y002499999D01*
X000675462Y002500875D01*
X000672880Y002501936D01*
X000670380Y002503178D01*
X000667974Y002504594D01*
X000665674Y002506177D01*
X000663492Y002507919D01*
X000661440Y002509812D01*
X000659526Y002511845D01*
X000657762Y002514008D01*
X000656155Y002516291D01*
X000654714Y002518682D01*
X000653446Y002521170D01*
X000652357Y002523741D01*
X000651454Y002526382D01*
X000650740Y002529081D01*
X000650219Y002531824D01*
X000647199Y002551509D01*
X000646829Y002554880D01*
X000646751Y002558269D01*
X000646965Y002561653D01*
X000647469Y002565006D01*
X000648260Y002568304D01*
X000649332Y002571521D01*
X000650677Y002574633D01*
X000652284Y002577619D01*
X000654143Y002580455D01*
X000656238Y002583121D01*
X000658555Y002585596D01*
X000661077Y002587863D01*
X000663784Y002589905D01*
X000666657Y002591706D01*
X000669674Y002593253D01*
X000672813Y002594535D01*
X000676051Y002595542D01*
X000679363Y002596267D01*
X000682726Y002596704D01*
X000686113Y002596850D01*
X001100000Y002596850D01*
X001113051Y002597706D01*
X001125881Y002600257D01*
X001138267Y002604462D01*
X001149999Y002610247D01*
X001160875Y002617515D01*
X001170710Y002626139D01*
X001179335Y002635974D01*
X001186602Y002646850D01*
X001192387Y002658582D01*
X001196592Y002670968D01*
X001199143Y002683798D01*
X001199999Y002696850D01*
X001199999Y003083506D01*
X001200101Y003086330D01*
X001200405Y003089139D01*
X001200909Y003091919D01*
X001201611Y003094656D01*
X001202508Y003097335D01*
X001203595Y003099943D01*
X001204866Y003102466D01*
X001206315Y003104892D01*
X001207934Y003107208D01*
X001209714Y003109401D01*
X001211648Y003111462D01*
X001213724Y003113378D01*
X001215933Y003115140D01*
X001218262Y003116740D01*
X001220700Y003118168D01*
X001223234Y003119418D01*
X001225851Y003120482D01*
X001228538Y003121357D01*
X001231280Y003122036D01*
X001234065Y003122517D01*
X001253750Y003125194D01*
X001257093Y003125504D01*
X001260450Y003125528D01*
X001263797Y003125266D01*
X001267109Y003124720D01*
X001270363Y003123894D01*
X001273535Y003122793D01*
X001276601Y003121427D01*
X001279540Y003119804D01*
X001282330Y003117936D01*
X001284950Y003115838D01*
X001287383Y003113524D01*
X001289609Y003111011D01*
X001291613Y003108318D01*
X001293380Y003105464D01*
X001294898Y003102469D01*
X001296155Y003099356D01*
X001297143Y003096148D01*
X001297853Y003092867D01*
X001298282Y003089537D01*
X001298425Y003086183D01*
X001298425Y002696850D01*
X001299280Y002683798D01*
X001301832Y002670968D01*
X001306036Y002658582D01*
X001311822Y002646850D01*
X001319089Y002635974D01*
X001327714Y002626139D01*
X001337548Y002617515D01*
X001348424Y002610247D01*
X001360156Y002604462D01*
X001372542Y002600257D01*
X001385372Y002597706D01*
X001398425Y002596850D01*
X001744452Y002596850D01*
X001747840Y002596704D01*
X001751203Y002596267D01*
X001754515Y002595542D01*
X001757753Y002594535D01*
X001760892Y002593253D01*
X001763909Y002591706D01*
X001766782Y002589905D01*
X001769489Y002587863D01*
X001772011Y002585596D01*
X001774328Y002583121D01*
X001776423Y002580455D01*
X001778282Y002577619D01*
X001779889Y002574633D01*
X001781234Y002571521D01*
X001782305Y002568304D01*
X001783096Y002565006D01*
X001783601Y002561653D01*
X001783815Y002558269D01*
X001783737Y002554879D01*
X001783367Y002551509D01*
X001780347Y002531824D01*
X001779826Y002529081D01*
X001779112Y002526382D01*
X001778208Y002523741D01*
X001777120Y002521170D01*
X001775852Y002518682D01*
X001774411Y002516291D01*
X001772804Y002514008D01*
X001771039Y002511845D01*
X001769126Y002509812D01*
X001767073Y002507919D01*
X001764891Y002506177D01*
X001762592Y002504594D01*
X001760186Y002503178D01*
X001757685Y002501936D01*
X001755103Y002500875D01*
X001752453Y002499999D01*
X001749746Y002499313D01*
X001746998Y002498820D01*
X001744222Y002498524D01*
X001741432Y002498425D01*
X001398425Y002498425D01*
X001385372Y002497569D01*
X001372542Y002495018D01*
X001360156Y002490813D01*
X001348424Y002485027D01*
X001337548Y002477760D01*
X001327714Y002469136D01*
X001319089Y002459301D01*
X001311822Y002448425D01*
X001306036Y002436693D01*
X001301832Y002424307D01*
X001299280Y002411478D01*
X001298425Y002398425D01*
X001298425Y001398425D01*
X001299280Y001385372D01*
X001301832Y001372543D01*
X001306036Y001360157D01*
X001311822Y001348425D01*
X001319089Y001337549D01*
X001327714Y001327714D01*
X001337548Y001319090D01*
X001348424Y001311822D01*
X001360156Y001306037D01*
X001372542Y001301832D01*
X001385372Y001299281D01*
X001398425Y001298425D01*
X001758671Y001298425D01*
X001762266Y001298260D01*
X001765830Y001297768D01*
X001769335Y001296953D01*
X001772751Y001295821D01*
X001776049Y001294382D01*
X001779201Y001292648D01*
X001782183Y001290633D01*
X001784968Y001288355D01*
X001787533Y001285832D01*
X001789857Y001283085D01*
X001791921Y001280137D01*
X001793707Y001277013D01*
X001795200Y001273740D01*
X001796388Y001270343D01*
X001797262Y001266852D01*
X001797812Y001263297D01*
X001798036Y001259705D01*
X001797931Y001256109D01*
X001797498Y001252536D01*
X001796741Y001249019D01*
X001791552Y001229334D01*
X001790811Y001226858D01*
X001789910Y001224436D01*
X001788852Y001222078D01*
X001787641Y001219795D01*
X001786284Y001217596D01*
X001784784Y001215491D01*
X001783150Y001213489D01*
X001781389Y001211598D01*
X001779507Y001209827D01*
X001777512Y001208184D01*
X001775415Y001206674D01*
X001773222Y001205306D01*
X001770945Y001204084D01*
X001768593Y001203015D01*
X001766175Y001202102D01*
X001763703Y001201349D01*
X001761186Y001200761D01*
X001758637Y001200338D01*
X001756065Y001200084D01*
X001753482Y001200000D01*
X001398425Y001200000D01*
X001385372Y001199144D01*
X001372542Y001196592D01*
X001360156Y001192388D01*
X001348424Y001186602D01*
X001337548Y001179335D01*
X001327714Y001170710D01*
X001319089Y001160876D01*
X001311822Y001149999D01*
X001306036Y001138268D01*
X001301832Y001125882D01*
X001299280Y001113052D01*
X001298425Y001099999D01*
X001298425Y000654061D01*
X001298260Y000650467D01*
X001297769Y000646902D01*
X001296953Y000643397D01*
X001295821Y000639982D01*
X001294382Y000636684D01*
X001292648Y000633531D01*
X001290634Y000630550D01*
X001288355Y000627765D01*
X001285832Y000625199D01*
X001283085Y000622875D01*
X001280137Y000620811D01*
X001277014Y000619026D01*
X001273740Y000617532D01*
X001270343Y000616344D01*
X001266853Y000615471D01*
X001263297Y000614920D01*
X001259706Y000614696D01*
X001256109Y000614801D01*
X001252537Y000615234D01*
X001249019Y000615992D01*
X001229334Y000621181D01*
X001226858Y000621921D01*
X001224436Y000622823D01*
X001222078Y000623881D01*
X001219795Y000625091D01*
X001217596Y000626449D01*
X001215491Y000627948D01*
X001213489Y000629582D01*
X001211598Y000631344D01*
X001209827Y000633226D01*
X001208184Y000635220D01*
X001206674Y000637318D01*
X001205306Y000639510D01*
X001204084Y000641787D01*
X001203015Y000644140D01*
X001202102Y000646558D01*
X001201349Y000649030D01*
X001200761Y000651546D01*
X001200338Y000654096D01*
X001200084Y000656668D01*
X001199999Y000659250D01*
X001199999Y001099999D01*
X000099999Y000000000D02*
X000099999Y000000000D01*
X001100000Y000000000D01*
X001113051Y000000855D01*
X001125881Y000003407D01*
X001138267Y000007612D01*
X001149999Y000013397D01*
X001160875Y000020665D01*
X001170710Y000029289D01*
X001179335Y000039123D01*
X001186602Y000050000D01*
X001192387Y000061731D01*
X001196592Y000074118D01*
X001199143Y000086947D01*
X001199999Y000099999D01*
X001199999Y000439683D01*
X001200084Y000442266D01*
X001200338Y000444838D01*
X001200761Y000447387D01*
X001201349Y000449904D01*
X001202102Y000452376D01*
X001203015Y000454794D01*
X001204084Y000457146D01*
X001205306Y000459423D01*
X001206674Y000461616D01*
X001208184Y000463713D01*
X001209827Y000465707D01*
X001211598Y000467589D01*
X001213489Y000469351D01*
X001215491Y000470985D01*
X001217596Y000472484D01*
X001219795Y000473842D01*
X001222078Y000475053D01*
X001224436Y000476111D01*
X001226858Y000477012D01*
X001229334Y000477753D01*
X001249019Y000482942D01*
X001252537Y000483699D01*
X001256109Y000484132D01*
X001259706Y000484237D01*
X001263297Y000484013D01*
X001266853Y000483463D01*
X001270343Y000482589D01*
X001273740Y000481401D01*
X001277014Y000479908D01*
X001280137Y000478122D01*
X001283085Y000476058D01*
X001285832Y000473734D01*
X001288355Y000471169D01*
X001290634Y000468384D01*
X001292648Y000465403D01*
X001294382Y000462250D01*
X001295821Y000458952D01*
X001296953Y000455536D01*
X001297769Y000452031D01*
X001298260Y000448467D01*
X001298425Y000444873D01*
X001298425Y000099999D01*
X001299280Y000086947D01*
X001301832Y000074118D01*
X001306036Y000061731D01*
X001311822Y000050000D01*
X001319089Y000039123D01*
X001327714Y000029289D01*
X001337548Y000020665D01*
X001348424Y000013397D01*
X001360156Y000007612D01*
X001372542Y000003407D01*
X001385372Y000000855D01*
X001398425Y000000000D01*
X002398425Y000000000D01*
X002411477Y000000855D01*
X002424307Y000003407D01*
X002436693Y000007612D01*
X002448425Y000013397D01*
X002459300Y000020665D01*
X002469135Y000029289D01*
X002477760Y000039123D01*
X002485027Y000050000D01*
X002490812Y000061731D01*
X002495017Y000074118D01*
X002497569Y000086947D01*
X002498425Y000099999D01*
X002498425Y000437823D01*
X002498560Y000441080D01*
X002498964Y000444315D01*
X002499634Y000447506D01*
X002500566Y000450630D01*
X002501753Y000453666D01*
X002503188Y000456594D01*
X002504860Y000459393D01*
X002506757Y000462044D01*
X002508868Y000464529D01*
X002511177Y000466831D01*
X002513668Y000468934D01*
X002516325Y000470823D01*
X002519129Y000472487D01*
X002522061Y000473912D01*
X002525101Y000475090D01*
X002528228Y000476013D01*
X002531420Y000476673D01*
X002534657Y000477068D01*
X002537915Y000477193D01*
X002541172Y000477048D01*
X002560857Y000475353D01*
X002563757Y000474995D01*
X002566623Y000474422D01*
X002569438Y000473638D01*
X002572188Y000472648D01*
X002574856Y000471456D01*
X002577429Y000470070D01*
X002579892Y000468497D01*
X002582231Y000466745D01*
X002584434Y000464825D01*
X002586488Y000462746D01*
X002588383Y000460521D01*
X002590107Y000458162D01*
X002591652Y000455681D01*
X002593008Y000453092D01*
X002594168Y000450410D01*
X002595127Y000447649D01*
X002595877Y000444825D01*
X002596417Y000441953D01*
X002596742Y000439048D01*
X002596850Y000436128D01*
X002596850Y000099999D01*
X002597706Y000086947D01*
X002600257Y000074118D01*
X002604461Y000061731D01*
X002610247Y000050000D01*
X002617514Y000039123D01*
X002626139Y000029289D01*
X002635973Y000020665D01*
X002646850Y000013397D01*
X002658581Y000007612D01*
X002670968Y000003407D01*
X002683797Y000000855D01*
X002696850Y000000000D01*
X003696850Y000000000D01*
X003709902Y000000855D01*
X003722732Y000003407D01*
X003735118Y000007612D01*
X003746850Y000013397D01*
X003757726Y000020665D01*
X003767560Y000029289D01*
X003776185Y000039123D01*
X003783452Y000050000D01*
X003789237Y000061731D01*
X003793442Y000074118D01*
X003795994Y000086947D01*
X003796850Y000099999D01*
X003796850Y001099999D01*
X003795994Y001113052D01*
X003793442Y001125882D01*
X003789237Y001138268D01*
X003783452Y001149999D01*
X003776185Y001160876D01*
X003767560Y001170710D01*
X003757726Y001179335D01*
X003746850Y001186602D01*
X003735118Y001192388D01*
X003722732Y001196592D01*
X003709902Y001199144D01*
X003696850Y001200000D01*
X003265959Y001200000D01*
X003263376Y001200084D01*
X003260804Y001200338D01*
X003258255Y001200761D01*
X003255739Y001201349D01*
X003253266Y001202102D01*
X003250849Y001203015D01*
X003248496Y001204084D01*
X003246219Y001205306D01*
X003244027Y001206674D01*
X003241929Y001208184D01*
X003239935Y001209827D01*
X003238053Y001211598D01*
X003236291Y001213489D01*
X003234657Y001215491D01*
X003233158Y001217596D01*
X003231800Y001219795D01*
X003230589Y001222078D01*
X003229531Y001224436D01*
X003228630Y001226858D01*
X003227890Y001229334D01*
X003222700Y001249019D01*
X003221943Y001252536D01*
X003221510Y001256109D01*
X003221405Y001259705D01*
X003221629Y001263297D01*
X003222180Y001266852D01*
X003223053Y001270343D01*
X003224241Y001273740D01*
X003225734Y001277013D01*
X003227520Y001280137D01*
X003229584Y001283085D01*
X003231908Y001285832D01*
X003234474Y001288355D01*
X003237259Y001290633D01*
X003240240Y001292648D01*
X003243393Y001294382D01*
X003246691Y001295821D01*
X003250106Y001296953D01*
X003253611Y001297768D01*
X003257175Y001298260D01*
X003260770Y001298425D01*
X003696850Y001298425D01*
X003709902Y001299281D01*
X003722732Y001301832D01*
X003735118Y001306037D01*
X003746850Y001311822D01*
X003757726Y001319090D01*
X003767560Y001327714D01*
X003776185Y001337549D01*
X003783452Y001348425D01*
X003789237Y001360157D01*
X003793442Y001372543D01*
X003795994Y001385372D01*
X003796850Y001398425D01*
X003796850Y002398425D01*
X003795994Y002411478D01*
X003793442Y002424307D01*
X003789237Y002436693D01*
X003783452Y002448425D01*
X003776185Y002459301D01*
X003767560Y002469136D01*
X003757726Y002477760D01*
X003746850Y002485027D01*
X003735118Y002490813D01*
X003722732Y002495018D01*
X003709902Y002497569D01*
X003696850Y002498425D01*
X003267820Y002498425D01*
X003264562Y002498560D01*
X003261327Y002498964D01*
X003258136Y002499634D01*
X003255012Y002500566D01*
X003251976Y002501753D01*
X003249048Y002503188D01*
X003246249Y002504860D01*
X003243598Y002506757D01*
X003241113Y002508868D01*
X003238811Y002511177D01*
X003236708Y002513668D01*
X003234819Y002516325D01*
X003233156Y002519129D01*
X003231730Y002522061D01*
X003230552Y002525101D01*
X003229629Y002528228D01*
X003228969Y002531421D01*
X003228575Y002534657D01*
X003228450Y002537915D01*
X003228595Y002541172D01*
X003230289Y002560857D01*
X003230648Y002563757D01*
X003231221Y002566623D01*
X003232004Y002569438D01*
X003232995Y002572188D01*
X003234186Y002574856D01*
X003235573Y002577429D01*
X003237146Y002579891D01*
X003238897Y002582231D01*
X003240818Y002584434D01*
X003242896Y002586488D01*
X003245121Y002588383D01*
X003247481Y002590107D01*
X003249962Y002591651D01*
X003252550Y002593008D01*
X003255232Y002594168D01*
X003257993Y002595126D01*
X003260817Y002595877D01*
X003263690Y002596417D01*
X003266594Y002596741D01*
X003269514Y002596850D01*
X003696850Y002596850D01*
X003709902Y002597706D01*
X003722732Y002600257D01*
X003735118Y002604462D01*
X003746850Y002610247D01*
X003757726Y002617515D01*
X003767560Y002626139D01*
X003776185Y002635974D01*
X003783452Y002646850D01*
X003789237Y002658582D01*
X003793442Y002670968D01*
X003795994Y002683798D01*
X003796850Y002696850D01*
X003796850Y003696850D01*
X003795994Y003709903D01*
X003793442Y003722732D01*
X003789237Y003735119D01*
X003783452Y003746850D01*
X003776185Y003757726D01*
X003767560Y003767561D01*
X003757726Y003776185D01*
X003746850Y003783453D01*
X003735118Y003789238D01*
X003722732Y003793443D01*
X003709902Y003795994D01*
X003696850Y003796850D01*
X002696850Y003796850D01*
X002683797Y003795994D01*
X002670968Y003793443D01*
X002658581Y003789238D01*
X002646850Y003783453D01*
X002635973Y003776185D01*
X002626139Y003767561D01*
X002617514Y003757726D01*
X002610247Y003746850D01*
X002604461Y003735119D01*
X002600257Y003722732D01*
X002597706Y003709903D01*
X002596850Y003696850D01*
X002596850Y003284938D01*
X002596742Y003282018D01*
X002596417Y003279114D01*
X002595877Y003276242D01*
X002595127Y003273417D01*
X002594168Y003270657D01*
X002593008Y003267974D01*
X002591652Y003265386D01*
X002590107Y003262905D01*
X002588383Y003260545D01*
X002586488Y003258320D01*
X002584434Y003256242D01*
X002582231Y003254322D01*
X002579892Y003252570D01*
X002577429Y003250997D01*
X002574856Y003249610D01*
X002572188Y003248419D01*
X002569438Y003247428D01*
X002566623Y003246645D01*
X002563757Y003246072D01*
X002560857Y003245713D01*
X002541172Y003244019D01*
X002537915Y003243874D01*
X002534657Y003243999D01*
X002531420Y003244393D01*
X002528228Y003245054D01*
X002525101Y003245976D01*
X002522061Y003247154D01*
X002519129Y003248580D01*
X002516325Y003250243D01*
X002513668Y003252133D01*
X002511177Y003254236D01*
X002508868Y003256537D01*
X002506757Y003259022D01*
X002504860Y003261673D01*
X002503188Y003264472D01*
X002501753Y003267400D01*
X002500566Y003270436D01*
X002499634Y003273561D01*
X002498964Y003276751D01*
X002498560Y003279986D01*
X002498425Y003283244D01*
X002498425Y003696850D01*
X002497569Y003709903D01*
X002495017Y003722732D01*
X002490812Y003735119D01*
X002485027Y003746850D01*
X002477760Y003757726D01*
X002469135Y003767561D01*
X002459300Y003776185D01*
X002448425Y003783453D01*
X002436693Y003789238D01*
X002424307Y003793443D01*
X002411477Y003795994D01*
X002398425Y003796850D01*
X001398425Y003796850D01*
X001385372Y003795994D01*
X001372542Y003793443D01*
X001360156Y003789238D01*
X001348424Y003783453D01*
X001337548Y003776185D01*
X001327714Y003767561D01*
X001319089Y003757726D01*
X001311822Y003746850D01*
X001306036Y003735119D01*
X001301832Y003722732D01*
X001299280Y003709903D01*
X001298425Y003696850D01*
X001298425Y003298148D01*
X001298282Y003294794D01*
X001297853Y003291464D01*
X001297143Y003288183D01*
X001296155Y003284975D01*
X001294898Y003281862D01*
X001293380Y003278867D01*
X001291613Y003276013D01*
X001289609Y003273320D01*
X001287383Y003270807D01*
X001284950Y003268493D01*
X001282330Y003266395D01*
X001279540Y003264527D01*
X001276601Y003262904D01*
X001273535Y003261538D01*
X001270363Y003260437D01*
X001267109Y003259611D01*
X001263797Y003259065D01*
X001260450Y003258803D01*
X001257093Y003258827D01*
X001253750Y003259137D01*
X001234065Y003261814D01*
X001231280Y003262295D01*
X001228538Y003262974D01*
X001225851Y003263849D01*
X001223234Y003264913D01*
X001220700Y003266163D01*
X001218262Y003267591D01*
X001215933Y003269191D01*
X001213724Y003270953D01*
X001211648Y003272869D01*
X001209714Y003274930D01*
X001207934Y003277123D01*
X001206315Y003279439D01*
X001204866Y003281865D01*
X001203595Y003284388D01*
X001202508Y003286996D01*
X001201611Y003289676D01*
X001200909Y003292412D01*
X001200405Y003295192D01*
X001200101Y003298001D01*
X001199999Y003300825D01*
X001199999Y003696850D01*
X001199143Y003709903D01*
X001196592Y003722732D01*
X001192387Y003735119D01*
X001186602Y003746850D01*
X001179335Y003757726D01*
X001170710Y003767561D01*
X001160875Y003776185D01*
X001149999Y003783453D01*
X001138267Y003789238D01*
X001125881Y003793443D01*
X001113051Y003795994D01*
X001100000Y003796850D01*
X000099999Y003796850D01*
X000086947Y003795994D01*
X000074117Y003793443D01*
X000061731Y003789238D01*
X000049999Y003783453D01*
X000039123Y003776185D01*
X000029289Y003767561D01*
X000020664Y003757726D01*
X000013397Y003746850D01*
X000007611Y003735119D01*
X000003406Y003722732D01*
X000000855Y003709903D01*
X000000000Y003696850D01*
X000000000Y002696850D01*
X000000855Y002683798D01*
X000003406Y002670968D01*
X000007611Y002658582D01*
X000013397Y002646850D01*
X000020664Y002635974D01*
X000029289Y002626139D01*
X000039123Y002617515D01*
X000049999Y002610247D01*
X000061731Y002604462D01*
X000074117Y002600257D01*
X000086947Y002597706D01*
X000099999Y002596850D01*
X000474517Y002596850D01*
X000477905Y002596704D01*
X000481268Y002596267D01*
X000484580Y002595542D01*
X000487818Y002594535D01*
X000490957Y002593253D01*
X000493974Y002591706D01*
X000496847Y002589905D01*
X000499554Y002587863D01*
X000502076Y002585596D01*
X000504393Y002583121D01*
X000506488Y002580455D01*
X000508347Y002577619D01*
X000509954Y002574633D01*
X000511299Y002571521D01*
X000512370Y002568304D01*
X000513161Y002565006D01*
X000513666Y002561653D01*
X000513880Y002558269D01*
X000513802Y002554880D01*
X000513432Y002551509D01*
X000510412Y002531824D01*
X000509891Y002529081D01*
X000509177Y002526382D01*
X000508273Y002523741D01*
X000507185Y002521170D01*
X000505917Y002518682D01*
X000504476Y002516291D01*
X000502869Y002514008D01*
X000501105Y002511845D01*
X000499191Y002509812D01*
X000497138Y002507919D01*
X000494957Y002506177D01*
X000492657Y002504594D01*
X000490251Y002503178D01*
X000487751Y002501936D01*
X000485168Y002500875D01*
X000482518Y002499999D01*
X000479811Y002499313D01*
X000477063Y002498820D01*
X000474287Y002498524D01*
X000471497Y002498425D01*
X000099999Y002498425D01*
X000086947Y002497569D01*
X000074117Y002495018D01*
X000061731Y002490813D01*
X000049999Y002485027D01*
X000039123Y002477760D01*
X000029289Y002469136D01*
X000020664Y002459301D01*
X000013397Y002448425D01*
X000007611Y002436693D01*
X000003406Y002424307D01*
X000000855Y002411478D01*
X000000000Y002398425D01*
X000000000Y001398425D01*
X000000855Y001385372D01*
X000003406Y001372543D01*
X000007611Y001360157D01*
X000013397Y001348425D01*
X000020664Y001337549D01*
X000029289Y001327714D01*
X000039123Y001319090D01*
X000049999Y001311822D01*
X000061731Y001306037D01*
X000074117Y001301832D01*
X000086947Y001299281D01*
X000099999Y001298425D01*
X000447735Y001298425D01*
X000451742Y001298220D01*
X000455707Y001297609D01*
X000459589Y001296597D01*
X000463349Y001295196D01*
X000466946Y001293419D01*
X000470343Y001291286D01*
X000473506Y001288817D01*
X000476402Y001286040D01*
X000478999Y001282982D01*
X000481272Y001279676D01*
X000483197Y001276156D01*
X000484753Y001272458D01*
X000485925Y001268621D01*
X000486700Y001264685D01*
X000487071Y001260690D01*
X000487033Y001256678D01*
X000486587Y001252691D01*
X000485738Y001248770D01*
X000484494Y001244955D01*
X000482868Y001241287D01*
X000472913Y001221603D01*
X000471881Y001219694D01*
X000470745Y001217844D01*
X000469509Y001216061D01*
X000468176Y001214348D01*
X000466751Y001212711D01*
X000465238Y001211155D01*
X000463642Y001209685D01*
X000461967Y001208305D01*
X000460218Y001207020D01*
X000458402Y001205832D01*
X000456522Y001204747D01*
X000454586Y001203767D01*
X000452599Y001202895D01*
X000450567Y001202134D01*
X000448495Y001201486D01*
X000446392Y001200953D01*
X000444262Y001200537D01*
X000442112Y001200239D01*
X000439949Y001200059D01*
X000437780Y001200000D01*
X000099999Y001200000D01*
X000086947Y001199144D01*
X000074117Y001196592D01*
X000061731Y001192388D01*
X000049999Y001186602D01*
X000039123Y001179335D01*
X000029289Y001170710D01*
X000020664Y001160876D01*
X000013397Y001149999D01*
X000007611Y001138268D01*
X000003406Y001125882D01*
X000000855Y001113052D01*
X000000000Y001099999D01*
X000000000Y000099999D01*
X000000855Y000086947D01*
X000003406Y000074118D01*
X000007611Y000061731D01*
X000013397Y000050000D01*
X000020664Y000039123D01*
X000029289Y000029289D01*
X000039123Y000020665D01*
X000049999Y000013397D01*
X000061731Y000007612D01*
X000074117Y000003407D01*
X000086947Y000000855D01*
X000099999Y000000000D01*
M02*