G04 #@! TF.FileFunction,Copper,L2,Bot,Signal*
%FSLAX46Y46*%
G04 Gerber Fmt 4.6, Leading zero omitted, Abs format (unit mm)*
G04 Created by KiCad (PCBNEW 4.0.7) date 08/17/18 12:34:18*
%MOMM*%
%LPD*%
G01*
G04 APERTURE LIST*
%ADD10C,0.100000*%
%ADD11R,0.400000X0.600000*%
%ADD12R,1.100000X1.100000*%
%ADD13R,0.900000X1.700000*%
%ADD14C,0.200000*%
G04 APERTURE END LIST*
D10*
D11*
X149906000Y-93599000D03*
X149306000Y-93599000D03*
D12*
X146180000Y-90424000D03*
X143380000Y-90424000D03*
X148460000Y-90424000D03*
X151260000Y-90424000D03*
D13*
X146230000Y-93853000D03*
X143330000Y-93853000D03*
D14*
G36*
X165867171Y-87047885D02*
X166517548Y-87482453D01*
X166952115Y-88132829D01*
X167115000Y-88951706D01*
X167115000Y-109168294D01*
X166952115Y-109987171D01*
X166517548Y-110637547D01*
X165867171Y-111072115D01*
X165048294Y-111235000D01*
X160058816Y-111235000D01*
X160058816Y-109640000D01*
X160027438Y-109473240D01*
X159928883Y-109320081D01*
X159778505Y-109217332D01*
X159600000Y-109181184D01*
X157900000Y-109181184D01*
X157733240Y-109212562D01*
X157580081Y-109311117D01*
X157477332Y-109461495D01*
X157441184Y-109640000D01*
X157441184Y-110118571D01*
X157411043Y-109967043D01*
X157129239Y-109545292D01*
X156707488Y-109263488D01*
X156210000Y-109164531D01*
X155712512Y-109263488D01*
X155290761Y-109545292D01*
X155008957Y-109967043D01*
X154940000Y-110313712D01*
X154871043Y-109967043D01*
X154589239Y-109545292D01*
X154167488Y-109263488D01*
X153670000Y-109164531D01*
X153172512Y-109263488D01*
X152750761Y-109545292D01*
X152468957Y-109967043D01*
X152400000Y-110313712D01*
X152331043Y-109967043D01*
X152049239Y-109545292D01*
X151732400Y-109333588D01*
X151732400Y-103119522D01*
X151942196Y-102909726D01*
X152123161Y-102984869D01*
X152421530Y-102985130D01*
X152697286Y-102871189D01*
X152731134Y-102837400D01*
X157226000Y-102837400D01*
X157456529Y-102791545D01*
X157651961Y-102660961D01*
X158731800Y-101581122D01*
X158731800Y-101725357D01*
X158635131Y-101958161D01*
X158635089Y-102005989D01*
X157816039Y-102825039D01*
X157685455Y-103020471D01*
X157660579Y-103145530D01*
X157639600Y-103251000D01*
X157639600Y-105410000D01*
X157685455Y-105640529D01*
X157816039Y-105835961D01*
X158959039Y-106978961D01*
X159154471Y-107109545D01*
X159385000Y-107155400D01*
X161089200Y-107155400D01*
X161580941Y-107524206D01*
X161669811Y-107739286D01*
X161880605Y-107950448D01*
X162156161Y-108064869D01*
X162454530Y-108065130D01*
X162730286Y-107951189D01*
X162941448Y-107740395D01*
X163055869Y-107464839D01*
X163056130Y-107166470D01*
X162942189Y-106890714D01*
X162731395Y-106679552D01*
X162455839Y-106565131D01*
X162310005Y-106565003D01*
X161651440Y-106071080D01*
X161583330Y-106038418D01*
X161520528Y-105996455D01*
X161478315Y-105988058D01*
X161439505Y-105969447D01*
X161364084Y-105965336D01*
X161290000Y-105950600D01*
X159634522Y-105950600D01*
X158844400Y-105160478D01*
X158844400Y-103500522D01*
X159486833Y-102858089D01*
X159533530Y-102858130D01*
X159809286Y-102744189D01*
X160020448Y-102533395D01*
X160134869Y-102257839D01*
X160135130Y-101959470D01*
X160038200Y-101724883D01*
X160038200Y-101489564D01*
X160417564Y-101110200D01*
X160653357Y-101110200D01*
X160886161Y-101206869D01*
X161184530Y-101207130D01*
X161460286Y-101093189D01*
X161671448Y-100882395D01*
X161785869Y-100606839D01*
X161786130Y-100308470D01*
X161672189Y-100032714D01*
X161461395Y-99821552D01*
X161185839Y-99707131D01*
X160887470Y-99706870D01*
X160693816Y-99786887D01*
X160693816Y-98210000D01*
X160662438Y-98043240D01*
X160645306Y-98016616D01*
X161207961Y-97453961D01*
X161338545Y-97258529D01*
X161384400Y-97028000D01*
X161384400Y-96769522D01*
X161793522Y-96360400D01*
X163263919Y-96360400D01*
X163207131Y-96497161D01*
X163206870Y-96795530D01*
X163320811Y-97071286D01*
X163354600Y-97105134D01*
X163354600Y-100969478D01*
X159918167Y-104405911D01*
X159871470Y-104405870D01*
X159595714Y-104519811D01*
X159384552Y-104730605D01*
X159270131Y-105006161D01*
X159269870Y-105304530D01*
X159383811Y-105580286D01*
X159594605Y-105791448D01*
X159870161Y-105905869D01*
X160168530Y-105906130D01*
X160444286Y-105792189D01*
X160655448Y-105581395D01*
X160769869Y-105305839D01*
X160769911Y-105258011D01*
X164382961Y-101644961D01*
X164513545Y-101449529D01*
X164559400Y-101219000D01*
X164559400Y-97105385D01*
X164592448Y-97072395D01*
X164653483Y-96925405D01*
X165513600Y-97785522D01*
X165513600Y-102538615D01*
X165480552Y-102571605D01*
X165366131Y-102847161D01*
X165365870Y-103145530D01*
X165479811Y-103421286D01*
X165690605Y-103632448D01*
X165966161Y-103746869D01*
X166264530Y-103747130D01*
X166540286Y-103633189D01*
X166751448Y-103422395D01*
X166865869Y-103146839D01*
X166866130Y-102848470D01*
X166752189Y-102572714D01*
X166718400Y-102538866D01*
X166718400Y-97536000D01*
X166690725Y-97396869D01*
X166672545Y-97305471D01*
X166541961Y-97110039D01*
X166193990Y-96762068D01*
X166264530Y-96762130D01*
X166540286Y-96648189D01*
X166751448Y-96437395D01*
X166865869Y-96161839D01*
X166866130Y-95863470D01*
X166752189Y-95587714D01*
X166541395Y-95376552D01*
X166265839Y-95262131D01*
X166218011Y-95262089D01*
X165144961Y-94189039D01*
X164949529Y-94058455D01*
X164719000Y-94012600D01*
X164288385Y-94012600D01*
X164255395Y-93979552D01*
X163979839Y-93865131D01*
X163681470Y-93864870D01*
X163405714Y-93978811D01*
X163194552Y-94189605D01*
X163080131Y-94465161D01*
X163079870Y-94763530D01*
X163193811Y-95039286D01*
X163309922Y-95155600D01*
X161544000Y-95155600D01*
X161457021Y-95172901D01*
X161715961Y-94913961D01*
X161846545Y-94718529D01*
X161892400Y-94488000D01*
X161892400Y-88786412D01*
X162209239Y-88574708D01*
X162491043Y-88152957D01*
X162521184Y-88001429D01*
X162521184Y-88480000D01*
X162552562Y-88646760D01*
X162651117Y-88799919D01*
X162801495Y-88902668D01*
X162980000Y-88938816D01*
X164680000Y-88938816D01*
X164846760Y-88907438D01*
X164999919Y-88808883D01*
X165102668Y-88658505D01*
X165138816Y-88480000D01*
X165138816Y-86903006D01*
X165867171Y-87047885D01*
X165867171Y-87047885D01*
G37*
X165867171Y-87047885D02*
X166517548Y-87482453D01*
X166952115Y-88132829D01*
X167115000Y-88951706D01*
X167115000Y-109168294D01*
X166952115Y-109987171D01*
X166517548Y-110637547D01*
X165867171Y-111072115D01*
X165048294Y-111235000D01*
X160058816Y-111235000D01*
X160058816Y-109640000D01*
X160027438Y-109473240D01*
X159928883Y-109320081D01*
X159778505Y-109217332D01*
X159600000Y-109181184D01*
X157900000Y-109181184D01*
X157733240Y-109212562D01*
X157580081Y-109311117D01*
X157477332Y-109461495D01*
X157441184Y-109640000D01*
X157441184Y-110118571D01*
X157411043Y-109967043D01*
X157129239Y-109545292D01*
X156707488Y-109263488D01*
X156210000Y-109164531D01*
X155712512Y-109263488D01*
X155290761Y-109545292D01*
X155008957Y-109967043D01*
X154940000Y-110313712D01*
X154871043Y-109967043D01*
X154589239Y-109545292D01*
X154167488Y-109263488D01*
X153670000Y-109164531D01*
X153172512Y-109263488D01*
X152750761Y-109545292D01*
X152468957Y-109967043D01*
X152400000Y-110313712D01*
X152331043Y-109967043D01*
X152049239Y-109545292D01*
X151732400Y-109333588D01*
X151732400Y-103119522D01*
X151942196Y-102909726D01*
X152123161Y-102984869D01*
X152421530Y-102985130D01*
X152697286Y-102871189D01*
X152731134Y-102837400D01*
X157226000Y-102837400D01*
X157456529Y-102791545D01*
X157651961Y-102660961D01*
X158731800Y-101581122D01*
X158731800Y-101725357D01*
X158635131Y-101958161D01*
X158635089Y-102005989D01*
X157816039Y-102825039D01*
X157685455Y-103020471D01*
X157660579Y-103145530D01*
X157639600Y-103251000D01*
X157639600Y-105410000D01*
X157685455Y-105640529D01*
X157816039Y-105835961D01*
X158959039Y-106978961D01*
X159154471Y-107109545D01*
X159385000Y-107155400D01*
X161089200Y-107155400D01*
X161580941Y-107524206D01*
X161669811Y-107739286D01*
X161880605Y-107950448D01*
X162156161Y-108064869D01*
X162454530Y-108065130D01*
X162730286Y-107951189D01*
X162941448Y-107740395D01*
X163055869Y-107464839D01*
X163056130Y-107166470D01*
X162942189Y-106890714D01*
X162731395Y-106679552D01*
X162455839Y-106565131D01*
X162310005Y-106565003D01*
X161651440Y-106071080D01*
X161583330Y-106038418D01*
X161520528Y-105996455D01*
X161478315Y-105988058D01*
X161439505Y-105969447D01*
X161364084Y-105965336D01*
X161290000Y-105950600D01*
X159634522Y-105950600D01*
X158844400Y-105160478D01*
X158844400Y-103500522D01*
X159486833Y-102858089D01*
X159533530Y-102858130D01*
X159809286Y-102744189D01*
X160020448Y-102533395D01*
X160134869Y-102257839D01*
X160135130Y-101959470D01*
X160038200Y-101724883D01*
X160038200Y-101489564D01*
X160417564Y-101110200D01*
X160653357Y-101110200D01*
X160886161Y-101206869D01*
X161184530Y-101207130D01*
X161460286Y-101093189D01*
X161671448Y-100882395D01*
X161785869Y-100606839D01*
X161786130Y-100308470D01*
X161672189Y-100032714D01*
X161461395Y-99821552D01*
X161185839Y-99707131D01*
X160887470Y-99706870D01*
X160693816Y-99786887D01*
X160693816Y-98210000D01*
X160662438Y-98043240D01*
X160645306Y-98016616D01*
X161207961Y-97453961D01*
X161338545Y-97258529D01*
X161384400Y-97028000D01*
X161384400Y-96769522D01*
X161793522Y-96360400D01*
X163263919Y-96360400D01*
X163207131Y-96497161D01*
X163206870Y-96795530D01*
X163320811Y-97071286D01*
X163354600Y-97105134D01*
X163354600Y-100969478D01*
X159918167Y-104405911D01*
X159871470Y-104405870D01*
X159595714Y-104519811D01*
X159384552Y-104730605D01*
X159270131Y-105006161D01*
X159269870Y-105304530D01*
X159383811Y-105580286D01*
X159594605Y-105791448D01*
X159870161Y-105905869D01*
X160168530Y-105906130D01*
X160444286Y-105792189D01*
X160655448Y-105581395D01*
X160769869Y-105305839D01*
X160769911Y-105258011D01*
X164382961Y-101644961D01*
X164513545Y-101449529D01*
X164559400Y-101219000D01*
X164559400Y-97105385D01*
X164592448Y-97072395D01*
X164653483Y-96925405D01*
X165513600Y-97785522D01*
X165513600Y-102538615D01*
X165480552Y-102571605D01*
X165366131Y-102847161D01*
X165365870Y-103145530D01*
X165479811Y-103421286D01*
X165690605Y-103632448D01*
X165966161Y-103746869D01*
X166264530Y-103747130D01*
X166540286Y-103633189D01*
X166751448Y-103422395D01*
X166865869Y-103146839D01*
X166866130Y-102848470D01*
X166752189Y-102572714D01*
X166718400Y-102538866D01*
X166718400Y-97536000D01*
X166690725Y-97396869D01*
X166672545Y-97305471D01*
X166541961Y-97110039D01*
X166193990Y-96762068D01*
X166264530Y-96762130D01*
X166540286Y-96648189D01*
X166751448Y-96437395D01*
X166865869Y-96161839D01*
X166866130Y-95863470D01*
X166752189Y-95587714D01*
X166541395Y-95376552D01*
X166265839Y-95262131D01*
X166218011Y-95262089D01*
X165144961Y-94189039D01*
X164949529Y-94058455D01*
X164719000Y-94012600D01*
X164288385Y-94012600D01*
X164255395Y-93979552D01*
X163979839Y-93865131D01*
X163681470Y-93864870D01*
X163405714Y-93978811D01*
X163194552Y-94189605D01*
X163080131Y-94465161D01*
X163079870Y-94763530D01*
X163193811Y-95039286D01*
X163309922Y-95155600D01*
X161544000Y-95155600D01*
X161457021Y-95172901D01*
X161715961Y-94913961D01*
X161846545Y-94718529D01*
X161892400Y-94488000D01*
X161892400Y-88786412D01*
X162209239Y-88574708D01*
X162491043Y-88152957D01*
X162521184Y-88001429D01*
X162521184Y-88480000D01*
X162552562Y-88646760D01*
X162651117Y-88799919D01*
X162801495Y-88902668D01*
X162980000Y-88938816D01*
X164680000Y-88938816D01*
X164846760Y-88907438D01*
X164999919Y-88808883D01*
X165102668Y-88658505D01*
X165138816Y-88480000D01*
X165138816Y-86903006D01*
X165867171Y-87047885D01*
G36*
X142830000Y-91432816D02*
X143465052Y-91432816D01*
X145321184Y-93288948D01*
X145321184Y-94703000D01*
X145352562Y-94869760D01*
X145451117Y-95022919D01*
X145601495Y-95125668D01*
X145780000Y-95161816D01*
X146680000Y-95161816D01*
X146846760Y-95130438D01*
X146999919Y-95031883D01*
X147102668Y-94881505D01*
X147138816Y-94703000D01*
X147138816Y-94252200D01*
X148502800Y-94252200D01*
X148502800Y-97340000D01*
X148552522Y-97589969D01*
X148694118Y-97801882D01*
X150033118Y-99140882D01*
X150245031Y-99282478D01*
X150495000Y-99332200D01*
X152398357Y-99332200D01*
X152631161Y-99428869D01*
X152890646Y-99429096D01*
X152864714Y-99439811D01*
X152653552Y-99650605D01*
X152539131Y-99926161D01*
X152539083Y-99981600D01*
X149860000Y-99981600D01*
X149629471Y-100027455D01*
X149434039Y-100158039D01*
X148291039Y-101301039D01*
X148160455Y-101496471D01*
X148160455Y-101496472D01*
X148114600Y-101727000D01*
X148114600Y-105160478D01*
X147836770Y-105438308D01*
X147804646Y-105006652D01*
X147677985Y-104700866D01*
X147450479Y-104632310D01*
X146712789Y-105370000D01*
X146726931Y-105384142D01*
X146509142Y-105601931D01*
X146495000Y-105587789D01*
X145757310Y-106325479D01*
X145825866Y-106552985D01*
X146329509Y-106719002D01*
X146574293Y-106700785D01*
X145624039Y-107651039D01*
X145493455Y-107846471D01*
X145472773Y-107950448D01*
X145447600Y-108077000D01*
X145447600Y-109333588D01*
X145130761Y-109545292D01*
X144848957Y-109967043D01*
X144750000Y-110464531D01*
X144750000Y-110515469D01*
X144848957Y-111012957D01*
X144997321Y-111235000D01*
X144831706Y-111235000D01*
X144012829Y-111072115D01*
X143362453Y-110637548D01*
X142927885Y-109987171D01*
X142765000Y-109168294D01*
X142765000Y-107361498D01*
X142840441Y-107427113D01*
X143291000Y-107578000D01*
X143641000Y-107578000D01*
X143641000Y-106524000D01*
X143949000Y-106524000D01*
X143949000Y-107578000D01*
X144299000Y-107578000D01*
X144749559Y-107427113D01*
X145108079Y-107115290D01*
X145304302Y-106709535D01*
X145189710Y-106524000D01*
X143949000Y-106524000D01*
X143641000Y-106524000D01*
X143621000Y-106524000D01*
X143621000Y-106216000D01*
X143641000Y-106216000D01*
X143641000Y-105162000D01*
X143949000Y-105162000D01*
X143949000Y-106216000D01*
X145189710Y-106216000D01*
X145304302Y-106030465D01*
X145108079Y-105624710D01*
X144749559Y-105312887D01*
X144425935Y-105204509D01*
X145145998Y-105204509D01*
X145185354Y-105733348D01*
X145312015Y-106039134D01*
X145539521Y-106107690D01*
X146277211Y-105370000D01*
X145539521Y-104632310D01*
X145312015Y-104700866D01*
X145145998Y-105204509D01*
X144425935Y-105204509D01*
X144299000Y-105162000D01*
X143949000Y-105162000D01*
X143641000Y-105162000D01*
X143291000Y-105162000D01*
X142840441Y-105312887D01*
X142765000Y-105378502D01*
X142765000Y-104414521D01*
X145757310Y-104414521D01*
X146495000Y-105152211D01*
X147232690Y-104414521D01*
X147164134Y-104187015D01*
X146660491Y-104020998D01*
X146131652Y-104060354D01*
X145825866Y-104187015D01*
X145757310Y-104414521D01*
X142765000Y-104414521D01*
X142765000Y-101325479D01*
X145757310Y-101325479D01*
X145825866Y-101552985D01*
X146329509Y-101719002D01*
X146858348Y-101679646D01*
X147164134Y-101552985D01*
X147232690Y-101325479D01*
X146495000Y-100587789D01*
X145757310Y-101325479D01*
X142765000Y-101325479D01*
X142765000Y-100361498D01*
X142840441Y-100427113D01*
X143291000Y-100578000D01*
X143641000Y-100578000D01*
X143641000Y-99524000D01*
X143949000Y-99524000D01*
X143949000Y-100578000D01*
X144299000Y-100578000D01*
X144749559Y-100427113D01*
X145005499Y-100204509D01*
X145145998Y-100204509D01*
X145185354Y-100733348D01*
X145312015Y-101039134D01*
X145539521Y-101107690D01*
X146277211Y-100370000D01*
X146712789Y-100370000D01*
X147450479Y-101107690D01*
X147677985Y-101039134D01*
X147844002Y-100535491D01*
X147804646Y-100006652D01*
X147677985Y-99700866D01*
X147450479Y-99632310D01*
X146712789Y-100370000D01*
X146277211Y-100370000D01*
X145539521Y-99632310D01*
X145312015Y-99700866D01*
X145145998Y-100204509D01*
X145005499Y-100204509D01*
X145108079Y-100115290D01*
X145304302Y-99709535D01*
X145189710Y-99524000D01*
X143949000Y-99524000D01*
X143641000Y-99524000D01*
X143621000Y-99524000D01*
X143621000Y-99414521D01*
X145757310Y-99414521D01*
X146495000Y-100152211D01*
X147232690Y-99414521D01*
X147164134Y-99187015D01*
X146660491Y-99020998D01*
X146131652Y-99060354D01*
X145825866Y-99187015D01*
X145757310Y-99414521D01*
X143621000Y-99414521D01*
X143621000Y-99216000D01*
X143641000Y-99216000D01*
X143641000Y-99196000D01*
X143949000Y-99196000D01*
X143949000Y-99216000D01*
X145189710Y-99216000D01*
X145304302Y-99030465D01*
X145108079Y-98624710D01*
X144858740Y-98407847D01*
X144894869Y-98320839D01*
X144895130Y-98022470D01*
X144781189Y-97746714D01*
X144570395Y-97535552D01*
X144440938Y-97481796D01*
X143983200Y-96881402D01*
X143983200Y-95106990D01*
X144099919Y-95031883D01*
X144202668Y-94881505D01*
X144238816Y-94703000D01*
X144238816Y-93003000D01*
X144207438Y-92836240D01*
X144108883Y-92683081D01*
X143958505Y-92580332D01*
X143780000Y-92544184D01*
X142880000Y-92544184D01*
X142765000Y-92565823D01*
X142765000Y-91419653D01*
X142830000Y-91432816D01*
X142830000Y-91432816D01*
G37*
X142830000Y-91432816D02*
X143465052Y-91432816D01*
X145321184Y-93288948D01*
X145321184Y-94703000D01*
X145352562Y-94869760D01*
X145451117Y-95022919D01*
X145601495Y-95125668D01*
X145780000Y-95161816D01*
X146680000Y-95161816D01*
X146846760Y-95130438D01*
X146999919Y-95031883D01*
X147102668Y-94881505D01*
X147138816Y-94703000D01*
X147138816Y-94252200D01*
X148502800Y-94252200D01*
X148502800Y-97340000D01*
X148552522Y-97589969D01*
X148694118Y-97801882D01*
X150033118Y-99140882D01*
X150245031Y-99282478D01*
X150495000Y-99332200D01*
X152398357Y-99332200D01*
X152631161Y-99428869D01*
X152890646Y-99429096D01*
X152864714Y-99439811D01*
X152653552Y-99650605D01*
X152539131Y-99926161D01*
X152539083Y-99981600D01*
X149860000Y-99981600D01*
X149629471Y-100027455D01*
X149434039Y-100158039D01*
X148291039Y-101301039D01*
X148160455Y-101496471D01*
X148160455Y-101496472D01*
X148114600Y-101727000D01*
X148114600Y-105160478D01*
X147836770Y-105438308D01*
X147804646Y-105006652D01*
X147677985Y-104700866D01*
X147450479Y-104632310D01*
X146712789Y-105370000D01*
X146726931Y-105384142D01*
X146509142Y-105601931D01*
X146495000Y-105587789D01*
X145757310Y-106325479D01*
X145825866Y-106552985D01*
X146329509Y-106719002D01*
X146574293Y-106700785D01*
X145624039Y-107651039D01*
X145493455Y-107846471D01*
X145472773Y-107950448D01*
X145447600Y-108077000D01*
X145447600Y-109333588D01*
X145130761Y-109545292D01*
X144848957Y-109967043D01*
X144750000Y-110464531D01*
X144750000Y-110515469D01*
X144848957Y-111012957D01*
X144997321Y-111235000D01*
X144831706Y-111235000D01*
X144012829Y-111072115D01*
X143362453Y-110637548D01*
X142927885Y-109987171D01*
X142765000Y-109168294D01*
X142765000Y-107361498D01*
X142840441Y-107427113D01*
X143291000Y-107578000D01*
X143641000Y-107578000D01*
X143641000Y-106524000D01*
X143949000Y-106524000D01*
X143949000Y-107578000D01*
X144299000Y-107578000D01*
X144749559Y-107427113D01*
X145108079Y-107115290D01*
X145304302Y-106709535D01*
X145189710Y-106524000D01*
X143949000Y-106524000D01*
X143641000Y-106524000D01*
X143621000Y-106524000D01*
X143621000Y-106216000D01*
X143641000Y-106216000D01*
X143641000Y-105162000D01*
X143949000Y-105162000D01*
X143949000Y-106216000D01*
X145189710Y-106216000D01*
X145304302Y-106030465D01*
X145108079Y-105624710D01*
X144749559Y-105312887D01*
X144425935Y-105204509D01*
X145145998Y-105204509D01*
X145185354Y-105733348D01*
X145312015Y-106039134D01*
X145539521Y-106107690D01*
X146277211Y-105370000D01*
X145539521Y-104632310D01*
X145312015Y-104700866D01*
X145145998Y-105204509D01*
X144425935Y-105204509D01*
X144299000Y-105162000D01*
X143949000Y-105162000D01*
X143641000Y-105162000D01*
X143291000Y-105162000D01*
X142840441Y-105312887D01*
X142765000Y-105378502D01*
X142765000Y-104414521D01*
X145757310Y-104414521D01*
X146495000Y-105152211D01*
X147232690Y-104414521D01*
X147164134Y-104187015D01*
X146660491Y-104020998D01*
X146131652Y-104060354D01*
X145825866Y-104187015D01*
X145757310Y-104414521D01*
X142765000Y-104414521D01*
X142765000Y-101325479D01*
X145757310Y-101325479D01*
X145825866Y-101552985D01*
X146329509Y-101719002D01*
X146858348Y-101679646D01*
X147164134Y-101552985D01*
X147232690Y-101325479D01*
X146495000Y-100587789D01*
X145757310Y-101325479D01*
X142765000Y-101325479D01*
X142765000Y-100361498D01*
X142840441Y-100427113D01*
X143291000Y-100578000D01*
X143641000Y-100578000D01*
X143641000Y-99524000D01*
X143949000Y-99524000D01*
X143949000Y-100578000D01*
X144299000Y-100578000D01*
X144749559Y-100427113D01*
X145005499Y-100204509D01*
X145145998Y-100204509D01*
X145185354Y-100733348D01*
X145312015Y-101039134D01*
X145539521Y-101107690D01*
X146277211Y-100370000D01*
X146712789Y-100370000D01*
X147450479Y-101107690D01*
X147677985Y-101039134D01*
X147844002Y-100535491D01*
X147804646Y-100006652D01*
X147677985Y-99700866D01*
X147450479Y-99632310D01*
X146712789Y-100370000D01*
X146277211Y-100370000D01*
X145539521Y-99632310D01*
X145312015Y-99700866D01*
X145145998Y-100204509D01*
X145005499Y-100204509D01*
X145108079Y-100115290D01*
X145304302Y-99709535D01*
X145189710Y-99524000D01*
X143949000Y-99524000D01*
X143641000Y-99524000D01*
X143621000Y-99524000D01*
X143621000Y-99414521D01*
X145757310Y-99414521D01*
X146495000Y-100152211D01*
X147232690Y-99414521D01*
X147164134Y-99187015D01*
X146660491Y-99020998D01*
X146131652Y-99060354D01*
X145825866Y-99187015D01*
X145757310Y-99414521D01*
X143621000Y-99414521D01*
X143621000Y-99216000D01*
X143641000Y-99216000D01*
X143641000Y-99196000D01*
X143949000Y-99196000D01*
X143949000Y-99216000D01*
X145189710Y-99216000D01*
X145304302Y-99030465D01*
X145108079Y-98624710D01*
X144858740Y-98407847D01*
X144894869Y-98320839D01*
X144895130Y-98022470D01*
X144781189Y-97746714D01*
X144570395Y-97535552D01*
X144440938Y-97481796D01*
X143983200Y-96881402D01*
X143983200Y-95106990D01*
X144099919Y-95031883D01*
X144202668Y-94881505D01*
X144238816Y-94703000D01*
X144238816Y-93003000D01*
X144207438Y-92836240D01*
X144108883Y-92683081D01*
X143958505Y-92580332D01*
X143780000Y-92544184D01*
X142880000Y-92544184D01*
X142765000Y-92565823D01*
X142765000Y-91419653D01*
X142830000Y-91432816D01*
G36*
X160088957Y-88152957D02*
X160370761Y-88574708D01*
X160687600Y-88786412D01*
X160687600Y-94238478D01*
X160426167Y-94499911D01*
X160379470Y-94499870D01*
X160103714Y-94613811D01*
X159892552Y-94824605D01*
X159778131Y-95100161D01*
X159777980Y-95272700D01*
X159385000Y-95194531D01*
X158887512Y-95293488D01*
X158630119Y-95465472D01*
X158540961Y-95332039D01*
X157778961Y-94570039D01*
X157583529Y-94439455D01*
X157353000Y-94393600D01*
X156464000Y-94393600D01*
X156233471Y-94439455D01*
X156038039Y-94570039D01*
X155202714Y-95405364D01*
X155032616Y-95256523D01*
X154683910Y-95112097D01*
X154459000Y-95223111D01*
X154459000Y-96366000D01*
X154479000Y-96366000D01*
X154479000Y-96674000D01*
X154459000Y-96674000D01*
X154459000Y-96694000D01*
X154151000Y-96694000D01*
X154151000Y-96674000D01*
X153007144Y-96674000D01*
X152897085Y-96898911D01*
X153009061Y-97125347D01*
X152803839Y-97040131D01*
X152505470Y-97039870D01*
X152270883Y-97136800D01*
X151527564Y-97136800D01*
X150709200Y-96318436D01*
X150709200Y-96141089D01*
X152897085Y-96141089D01*
X153007144Y-96366000D01*
X154151000Y-96366000D01*
X154151000Y-95223111D01*
X153926090Y-95112097D01*
X153577384Y-95256523D01*
X153149259Y-95631146D01*
X152897085Y-96141089D01*
X150709200Y-96141089D01*
X150709200Y-91432654D01*
X150710000Y-91432816D01*
X151810000Y-91432816D01*
X151976760Y-91401438D01*
X152129919Y-91302883D01*
X152232668Y-91152505D01*
X152268816Y-90974000D01*
X152268816Y-89954948D01*
X153334942Y-88888822D01*
X153670000Y-88955469D01*
X154167488Y-88856512D01*
X154589239Y-88574708D01*
X154871043Y-88152957D01*
X154940000Y-87806288D01*
X155008957Y-88152957D01*
X155290761Y-88574708D01*
X155712512Y-88856512D01*
X156210000Y-88955469D01*
X156707488Y-88856512D01*
X157129239Y-88574708D01*
X157411043Y-88152957D01*
X157480000Y-87806288D01*
X157548957Y-88152957D01*
X157830761Y-88574708D01*
X158252512Y-88856512D01*
X158750000Y-88955469D01*
X159247488Y-88856512D01*
X159669239Y-88574708D01*
X159951043Y-88152957D01*
X160020000Y-87806288D01*
X160088957Y-88152957D01*
X160088957Y-88152957D01*
G37*
X160088957Y-88152957D02*
X160370761Y-88574708D01*
X160687600Y-88786412D01*
X160687600Y-94238478D01*
X160426167Y-94499911D01*
X160379470Y-94499870D01*
X160103714Y-94613811D01*
X159892552Y-94824605D01*
X159778131Y-95100161D01*
X159777980Y-95272700D01*
X159385000Y-95194531D01*
X158887512Y-95293488D01*
X158630119Y-95465472D01*
X158540961Y-95332039D01*
X157778961Y-94570039D01*
X157583529Y-94439455D01*
X157353000Y-94393600D01*
X156464000Y-94393600D01*
X156233471Y-94439455D01*
X156038039Y-94570039D01*
X155202714Y-95405364D01*
X155032616Y-95256523D01*
X154683910Y-95112097D01*
X154459000Y-95223111D01*
X154459000Y-96366000D01*
X154479000Y-96366000D01*
X154479000Y-96674000D01*
X154459000Y-96674000D01*
X154459000Y-96694000D01*
X154151000Y-96694000D01*
X154151000Y-96674000D01*
X153007144Y-96674000D01*
X152897085Y-96898911D01*
X153009061Y-97125347D01*
X152803839Y-97040131D01*
X152505470Y-97039870D01*
X152270883Y-97136800D01*
X151527564Y-97136800D01*
X150709200Y-96318436D01*
X150709200Y-96141089D01*
X152897085Y-96141089D01*
X153007144Y-96366000D01*
X154151000Y-96366000D01*
X154151000Y-95223111D01*
X153926090Y-95112097D01*
X153577384Y-95256523D01*
X153149259Y-95631146D01*
X152897085Y-96141089D01*
X150709200Y-96141089D01*
X150709200Y-91432654D01*
X150710000Y-91432816D01*
X151810000Y-91432816D01*
X151976760Y-91401438D01*
X152129919Y-91302883D01*
X152232668Y-91152505D01*
X152268816Y-90974000D01*
X152268816Y-89954948D01*
X153334942Y-88888822D01*
X153670000Y-88955469D01*
X154167488Y-88856512D01*
X154589239Y-88574708D01*
X154871043Y-88152957D01*
X154940000Y-87806288D01*
X155008957Y-88152957D01*
X155290761Y-88574708D01*
X155712512Y-88856512D01*
X156210000Y-88955469D01*
X156707488Y-88856512D01*
X157129239Y-88574708D01*
X157411043Y-88152957D01*
X157480000Y-87806288D01*
X157548957Y-88152957D01*
X157830761Y-88574708D01*
X158252512Y-88856512D01*
X158750000Y-88955469D01*
X159247488Y-88856512D01*
X159669239Y-88574708D01*
X159951043Y-88152957D01*
X160020000Y-87806288D01*
X160088957Y-88152957D01*
G36*
X148744000Y-87476000D02*
X148764000Y-87476000D01*
X148764000Y-87784000D01*
X148744000Y-87784000D01*
X148744000Y-88926889D01*
X148968910Y-89037903D01*
X149317616Y-88893477D01*
X149402800Y-88818938D01*
X149402800Y-89653411D01*
X149338883Y-89554081D01*
X149188505Y-89451332D01*
X149010000Y-89415184D01*
X147910000Y-89415184D01*
X147743240Y-89446562D01*
X147590081Y-89545117D01*
X147562434Y-89585580D01*
X147469839Y-89547131D01*
X147171470Y-89546870D01*
X147078865Y-89585134D01*
X147058883Y-89554081D01*
X146908505Y-89451332D01*
X146730000Y-89415184D01*
X145630000Y-89415184D01*
X145463240Y-89446562D01*
X145310081Y-89545117D01*
X145207332Y-89695495D01*
X145171184Y-89874000D01*
X145171184Y-90974000D01*
X145202562Y-91140760D01*
X145301117Y-91293919D01*
X145451495Y-91396668D01*
X145630000Y-91432816D01*
X146730000Y-91432816D01*
X146896760Y-91401438D01*
X147049919Y-91302883D01*
X147152668Y-91152505D01*
X147167918Y-91077200D01*
X147193000Y-91077200D01*
X147320000Y-91051938D01*
X147447000Y-91077200D01*
X147470602Y-91077200D01*
X147482562Y-91140760D01*
X147581117Y-91293919D01*
X147731495Y-91396668D01*
X147910000Y-91432816D01*
X149010000Y-91432816D01*
X149176760Y-91401438D01*
X149329919Y-91302883D01*
X149402800Y-91196218D01*
X149402800Y-92840184D01*
X149106000Y-92840184D01*
X148939240Y-92871562D01*
X148823871Y-92945800D01*
X147128053Y-92945800D01*
X147107438Y-92836240D01*
X147008883Y-92683081D01*
X146858505Y-92580332D01*
X146680000Y-92544184D01*
X146423948Y-92544184D01*
X144388816Y-90509052D01*
X144388816Y-90214948D01*
X145714942Y-88888822D01*
X146050000Y-88955469D01*
X146547488Y-88856512D01*
X146969239Y-88574708D01*
X147251043Y-88152957D01*
X147251696Y-88149677D01*
X147434259Y-88518854D01*
X147862384Y-88893477D01*
X148211090Y-89037903D01*
X148436000Y-88926889D01*
X148436000Y-87784000D01*
X148416000Y-87784000D01*
X148416000Y-87476000D01*
X148436000Y-87476000D01*
X148436000Y-87456000D01*
X148744000Y-87456000D01*
X148744000Y-87476000D01*
X148744000Y-87476000D01*
G37*
X148744000Y-87476000D02*
X148764000Y-87476000D01*
X148764000Y-87784000D01*
X148744000Y-87784000D01*
X148744000Y-88926889D01*
X148968910Y-89037903D01*
X149317616Y-88893477D01*
X149402800Y-88818938D01*
X149402800Y-89653411D01*
X149338883Y-89554081D01*
X149188505Y-89451332D01*
X149010000Y-89415184D01*
X147910000Y-89415184D01*
X147743240Y-89446562D01*
X147590081Y-89545117D01*
X147562434Y-89585580D01*
X147469839Y-89547131D01*
X147171470Y-89546870D01*
X147078865Y-89585134D01*
X147058883Y-89554081D01*
X146908505Y-89451332D01*
X146730000Y-89415184D01*
X145630000Y-89415184D01*
X145463240Y-89446562D01*
X145310081Y-89545117D01*
X145207332Y-89695495D01*
X145171184Y-89874000D01*
X145171184Y-90974000D01*
X145202562Y-91140760D01*
X145301117Y-91293919D01*
X145451495Y-91396668D01*
X145630000Y-91432816D01*
X146730000Y-91432816D01*
X146896760Y-91401438D01*
X147049919Y-91302883D01*
X147152668Y-91152505D01*
X147167918Y-91077200D01*
X147193000Y-91077200D01*
X147320000Y-91051938D01*
X147447000Y-91077200D01*
X147470602Y-91077200D01*
X147482562Y-91140760D01*
X147581117Y-91293919D01*
X147731495Y-91396668D01*
X147910000Y-91432816D01*
X149010000Y-91432816D01*
X149176760Y-91401438D01*
X149329919Y-91302883D01*
X149402800Y-91196218D01*
X149402800Y-92840184D01*
X149106000Y-92840184D01*
X148939240Y-92871562D01*
X148823871Y-92945800D01*
X147128053Y-92945800D01*
X147107438Y-92836240D01*
X147008883Y-92683081D01*
X146858505Y-92580332D01*
X146680000Y-92544184D01*
X146423948Y-92544184D01*
X144388816Y-90509052D01*
X144388816Y-90214948D01*
X145714942Y-88888822D01*
X146050000Y-88955469D01*
X146547488Y-88856512D01*
X146969239Y-88574708D01*
X147251043Y-88152957D01*
X147251696Y-88149677D01*
X147434259Y-88518854D01*
X147862384Y-88893477D01*
X148211090Y-89037903D01*
X148436000Y-88926889D01*
X148436000Y-87784000D01*
X148416000Y-87784000D01*
X148416000Y-87476000D01*
X148436000Y-87476000D01*
X148436000Y-87456000D01*
X148744000Y-87456000D01*
X148744000Y-87476000D01*
M02*
