%MOIN*%
%OFA0B0*%
%FSLAX46Y46*%
%IPPOS*%
%LPD*%
%ADD10C,0.0039370078740157488*%
%ADD11C,0.00984251968503937*%
%ADD12C,0.011811023622047244*%
%ADD13C,0.005905511811023622*%
%ADD24C,0.0039370078740157488*%
%ADD25C,0.00984251968503937*%
%ADD26C,0.011811023622047244*%
%ADD27C,0.005905511811023622*%
%ADD28C,0.0039370078740157488*%
%ADD29C,0.00984251968503937*%
%ADD30C,0.011811023622047244*%
%ADD31C,0.005905511811023622*%
%ADD32C,0.0039370078740157488*%
%ADD33C,0.00984251968503937*%
%ADD34C,0.011811023622047244*%
%ADD35C,0.005905511811023622*%
%ADD36C,0.0039370078740157488*%
%ADD37C,0.00984251968503937*%
%ADD38C,0.011811023622047244*%
%ADD39C,0.005905511811023622*%
%ADD40C,0.0039370078740157488*%
%ADD41C,0.00984251968503937*%
%ADD42C,0.011811023622047244*%
%ADD43C,0.005905511811023622*%
%ADD44C,0.0039370078740157488*%
%ADD45C,0.00984251968503937*%
%ADD46C,0.011811023622047244*%
%ADD47C,0.005905511811023622*%
%ADD48C,0.0039370078740157488*%
%ADD49C,0.00984251968503937*%
%ADD50C,0.011811023622047244*%
%ADD51C,0.005905511811023622*%
%ADD52C,0.0039370078740157488*%
%ADD53C,0.00984251968503937*%
%ADD54C,0.011811023622047244*%
%ADD55C,0.005905511811023622*%
G01*
D10*
D11*
X0000882932Y0000833632D02*
X0000878010Y0000873002D01*
X0000879885Y0000858004D02*
X0000875151Y0000859879D01*
X0000866152Y0000859879D01*
X0000861887Y0000858004D01*
X0000859872Y0000856130D01*
X0000858091Y0000852380D01*
X0000859497Y0000841131D01*
X0000862215Y0000837382D01*
X0000864699Y0000835507D01*
X0000869433Y0000833632D01*
X0000878432Y0000833632D01*
X0000882697Y0000835507D01*
X0000840187Y0000833632D02*
X0000836906Y0000859879D01*
X0000835266Y0000873002D02*
X0000837750Y0000871128D01*
X0000835734Y0000869253D01*
X0000833250Y0000871128D01*
X0000835266Y0000873002D01*
X0000835734Y0000869253D01*
X0000821158Y0000859879D02*
X0000803160Y0000859879D01*
X0000812768Y0000873002D02*
X0000816987Y0000839257D01*
X0000815206Y0000835507D01*
X0000810941Y0000833632D01*
X0000806441Y0000833632D01*
X0000790224Y0000837382D02*
X0000788209Y0000835507D01*
X0000790693Y0000833632D01*
X0000792708Y0000835507D01*
X0000790224Y0000837382D01*
X0000790693Y0000833632D01*
X0000761447Y0000833632D02*
X0000765712Y0000835507D01*
X0000767493Y0000839257D01*
X0000763275Y0000873002D01*
X0000744668Y0000859879D02*
X0000736700Y0000833632D01*
X0000722170Y0000859879D02*
X0000736700Y0000833632D01*
X0000742371Y0000824258D01*
X0000744855Y0000822384D01*
X0000749589Y0000820509D01*
X0000668552Y0000874877D02*
X0000715374Y0000824258D01*
X0000659975Y0000835507D02*
X0000653460Y0000833632D01*
X0000642212Y0000833632D01*
X0000637478Y0000835507D01*
X0000634994Y0000837382D01*
X0000632275Y0000841131D01*
X0000631807Y0000844881D01*
X0000633588Y0000848630D01*
X0000635603Y0000850505D01*
X0000639868Y0000852380D01*
X0000648633Y0000854255D01*
X0000652898Y0000856130D01*
X0000654913Y0000858004D01*
X0000656694Y0000861754D01*
X0000656226Y0000865503D01*
X0000653507Y0000869253D01*
X0000651023Y0000871128D01*
X0000646289Y0000873002D01*
X0000635041Y0000873002D01*
X0000628526Y0000871128D01*
X0000612965Y0000833632D02*
X0000608044Y0000873002D01*
X0000595811Y0000844881D01*
X0000576548Y0000873002D01*
X0000581469Y0000833632D01*
X0000558972Y0000833632D02*
X0000554051Y0000873002D01*
X0000542802Y0000873002D01*
X0000536287Y0000871128D01*
X0000532257Y0000867378D01*
X0000530476Y0000863629D01*
X0000529163Y0000856130D01*
X0000529866Y0000850505D01*
X0000533053Y0000843006D01*
X0000535772Y0000839257D01*
X0000540740Y0000835507D01*
X0000547723Y0000833632D01*
X0000558972Y0000833632D01*
X0000484263Y0000837382D02*
X0000486747Y0000835507D01*
X0000493730Y0000833632D01*
X0000498230Y0000833632D01*
X0000504744Y0000835507D01*
X0000508775Y0000839257D01*
X0000510556Y0000843006D01*
X0000511869Y0000850505D01*
X0000511166Y0000856130D01*
X0000507978Y0000863629D01*
X0000505260Y0000867378D01*
X0000500292Y0000871128D01*
X0000493308Y0000873002D01*
X0000488809Y0000873002D01*
X0000482294Y0000871128D01*
X0000480279Y0000869253D01*
X0000464484Y0000833632D02*
X0000459563Y0000873002D01*
X0000444236Y0000833632D02*
X0000441659Y0000854255D01*
X0000443440Y0000858004D01*
X0000447705Y0000859879D01*
X0000454454Y0000859879D01*
X0000459188Y0000858004D01*
X0000461672Y0000856130D01*
X0000401492Y0000833632D02*
X0000398914Y0000854255D01*
X0000400695Y0000858004D01*
X0000404960Y0000859879D01*
X0000413959Y0000859879D01*
X0000418693Y0000858004D01*
X0000401257Y0000835507D02*
X0000405991Y0000833632D01*
X0000417240Y0000833632D01*
X0000421505Y0000835507D01*
X0000423286Y0000839257D01*
X0000422817Y0000843006D01*
X0000420099Y0000846756D01*
X0000415365Y0000848630D01*
X0000404116Y0000848630D01*
X0000399383Y0000850505D01*
X0000372245Y0000833632D02*
X0000376510Y0000835507D01*
X0000378292Y0000839257D01*
X0000374073Y0000873002D01*
X0000347499Y0000833632D02*
X0000351764Y0000835507D01*
X0000353545Y0000839257D01*
X0000349326Y0000873002D01*
X0000311269Y0000835507D02*
X0000316002Y0000833632D01*
X0000325001Y0000833632D01*
X0000329266Y0000835507D01*
X0000331047Y0000839257D01*
X0000329173Y0000854255D01*
X0000326454Y0000858004D01*
X0000321720Y0000859879D01*
X0000312722Y0000859879D01*
X0000308457Y0000858004D01*
X0000306675Y0000854255D01*
X0000307144Y0000850505D01*
X0000330110Y0000846756D01*
X0000285725Y0000859879D02*
X0000289006Y0000833632D01*
X0000286194Y0000856130D02*
X0000283710Y0000858004D01*
X0000278976Y0000859879D01*
X0000272227Y0000859879D01*
X0000267962Y0000858004D01*
X0000266181Y0000854255D01*
X0000268758Y0000833632D01*
X0000222733Y0000859879D02*
X0000226717Y0000828008D01*
X0000229435Y0000824258D01*
X0000231919Y0000822384D01*
X0000236653Y0000820509D01*
X0000243402Y0000820509D01*
X0000247667Y0000822384D01*
X0000225779Y0000835507D02*
X0000230513Y0000833632D01*
X0000239512Y0000833632D01*
X0000243777Y0000835507D01*
X0000245793Y0000837382D01*
X0000247574Y0000841131D01*
X0000246167Y0000852380D01*
X0000243449Y0000856130D01*
X0000240965Y0000858004D01*
X0000236231Y0000859879D01*
X0000227232Y0000859879D01*
X0000222967Y0000858004D01*
X0000185284Y0000835507D02*
X0000190018Y0000833632D01*
X0000199017Y0000833632D01*
X0000203282Y0000835507D01*
X0000205063Y0000839257D01*
X0000203188Y0000854255D01*
X0000200470Y0000858004D01*
X0000195736Y0000859879D01*
X0000186737Y0000859879D01*
X0000182472Y0000858004D01*
X0000180691Y0000854255D01*
X0000181160Y0000850505D01*
X0000204126Y0000846756D01*
D12*
X0000670241Y0000065351D02*
X0000673053Y0000062539D01*
X0000681490Y0000059727D01*
X0000687114Y0000059727D01*
X0000695551Y0000062539D01*
X0000701175Y0000068164D01*
X0000703987Y0000073788D01*
X0000706799Y0000085037D01*
X0000706799Y0000093473D01*
X0000703987Y0000104722D01*
X0000701175Y0000110346D01*
X0000695551Y0000115970D01*
X0000687114Y0000118782D01*
X0000681490Y0000118782D01*
X0000673053Y0000115970D01*
X0000670241Y0000113158D01*
X0000611186Y0000059727D02*
X0000630871Y0000087849D01*
X0000644932Y0000059727D02*
X0000644932Y0000118782D01*
X0000622435Y0000118782D01*
X0000616810Y0000115970D01*
X0000613998Y0000113158D01*
X0000611186Y0000107534D01*
X0000611186Y0000099097D01*
X0000613998Y0000093473D01*
X0000616810Y0000090661D01*
X0000622435Y0000087849D01*
X0000644932Y0000087849D01*
X0000588689Y0000113158D02*
X0000585877Y0000115970D01*
X0000580253Y0000118782D01*
X0000566192Y0000118782D01*
X0000560567Y0000115970D01*
X0000557755Y0000113158D01*
X0000554943Y0000107534D01*
X0000554943Y0000101909D01*
X0000557755Y0000093473D01*
X0000591501Y0000059727D01*
X0000554943Y0000059727D01*
X0000518385Y0000118782D02*
X0000512761Y0000118782D01*
X0000507137Y0000115970D01*
X0000504325Y0000113158D01*
X0000501512Y0000107534D01*
X0000498700Y0000096285D01*
X0000498700Y0000082224D01*
X0000501512Y0000070976D01*
X0000504325Y0000065351D01*
X0000507137Y0000062539D01*
X0000512761Y0000059727D01*
X0000518385Y0000059727D01*
X0000524010Y0000062539D01*
X0000526822Y0000065351D01*
X0000529634Y0000070976D01*
X0000532446Y0000082224D01*
X0000532446Y0000096285D01*
X0000529634Y0000107534D01*
X0000526822Y0000113158D01*
X0000524010Y0000115970D01*
X0000518385Y0000118782D01*
X0000479015Y0000118782D02*
X0000442457Y0000118782D01*
X0000462142Y0000096285D01*
X0000453706Y0000096285D01*
X0000448082Y0000093473D01*
X0000445269Y0000090661D01*
X0000442457Y0000085037D01*
X0000442457Y0000070976D01*
X0000445269Y0000065351D01*
X0000448082Y0000062539D01*
X0000453706Y0000059727D01*
X0000470579Y0000059727D01*
X0000476203Y0000062539D01*
X0000479015Y0000065351D01*
X0000419960Y0000113158D02*
X0000417148Y0000115970D01*
X0000411524Y0000118782D01*
X0000397463Y0000118782D01*
X0000391839Y0000115970D01*
X0000389026Y0000113158D01*
X0000386214Y0000107534D01*
X0000386214Y0000101909D01*
X0000389026Y0000093473D01*
X0000422772Y0000059727D01*
X0000386214Y0000059727D01*
D13*
X0000814007Y0000223943D02*
X0000946507Y0000301443D01*
X0000249007Y0000218943D02*
X0000116507Y0000301443D01*
X0000815007Y0000223943D02*
G75*
G02X0000670007Y0000228943I-0000070000J0000075000D01*
G01*
X0000393507Y0000223943D02*
G75*
G02X0000248507Y0000218943I-0000075000J0000070000D01*
G01*
X0000391507Y0000223943D02*
G75*
G02X0000671507Y0000228943I0000142500J-0000137500D01*
G01*
X0000231507Y0000791443D02*
X0000116507Y0000658943D01*
X0000946507Y0000661443D02*
X0000829007Y0000793943D01*
X0000831507Y0000791443D02*
X0000231507Y0000791443D01*
X0000946507Y0000301443D02*
X0000946507Y0000661443D01*
X0000116507Y0000301443D02*
X0000116507Y0000661443D01*
G04 next file*
G04 #@! TF.FileFunction,Legend,Bot*
G04 Gerber Fmt 4.6, Leading zero omitted, Abs format (unit mm)*
G04 Created by KiCad (PCBNEW 4.0.7) date 06/29/18 14:26:30*
G01*
G04 APERTURE LIST*
G04 APERTURE END LIST*
D24*
D25*
X0002024686Y0000833632D02*
X0002019765Y0000873002D01*
X0002021640Y0000858004D02*
X0002016906Y0000859879D01*
X0002007907Y0000859879D01*
X0002003642Y0000858004D01*
X0002001626Y0000856130D01*
X0001999845Y0000852380D01*
X0002001252Y0000841131D01*
X0002003970Y0000837382D01*
X0002006454Y0000835507D01*
X0002011188Y0000833632D01*
X0002020187Y0000833632D01*
X0002024452Y0000835507D01*
X0001981941Y0000833632D02*
X0001978661Y0000859879D01*
X0001977020Y0000873002D02*
X0001979504Y0000871128D01*
X0001977489Y0000869253D01*
X0001975005Y0000871128D01*
X0001977020Y0000873002D01*
X0001977489Y0000869253D01*
X0001962913Y0000859879D02*
X0001944915Y0000859879D01*
X0001954523Y0000873002D02*
X0001958741Y0000839257D01*
X0001956960Y0000835507D01*
X0001952695Y0000833632D01*
X0001948196Y0000833632D01*
X0001931979Y0000837382D02*
X0001929964Y0000835507D01*
X0001932448Y0000833632D01*
X0001934463Y0000835507D01*
X0001931979Y0000837382D01*
X0001932448Y0000833632D01*
X0001903201Y0000833632D02*
X0001907466Y0000835507D01*
X0001909247Y0000839257D01*
X0001905029Y0000873002D01*
X0001886422Y0000859879D02*
X0001878454Y0000833632D01*
X0001863925Y0000859879D02*
X0001878454Y0000833632D01*
X0001884126Y0000824258D01*
X0001886610Y0000822384D01*
X0001891343Y0000820509D01*
X0001810307Y0000874877D02*
X0001857129Y0000824258D01*
X0001801730Y0000835507D02*
X0001795215Y0000833632D01*
X0001783966Y0000833632D01*
X0001779232Y0000835507D01*
X0001776748Y0000837382D01*
X0001774030Y0000841131D01*
X0001773561Y0000844881D01*
X0001775342Y0000848630D01*
X0001777358Y0000850505D01*
X0001781623Y0000852380D01*
X0001790387Y0000854255D01*
X0001794652Y0000856130D01*
X0001796668Y0000858004D01*
X0001798449Y0000861754D01*
X0001797980Y0000865503D01*
X0001795262Y0000869253D01*
X0001792778Y0000871128D01*
X0001788044Y0000873002D01*
X0001776795Y0000873002D01*
X0001770280Y0000871128D01*
X0001754720Y0000833632D02*
X0001749799Y0000873002D01*
X0001737566Y0000844881D01*
X0001718303Y0000873002D01*
X0001723224Y0000833632D01*
X0001700727Y0000833632D02*
X0001695805Y0000873002D01*
X0001684557Y0000873002D01*
X0001678042Y0000871128D01*
X0001674011Y0000867378D01*
X0001672230Y0000863629D01*
X0001670918Y0000856130D01*
X0001671621Y0000850505D01*
X0001674808Y0000843006D01*
X0001677526Y0000839257D01*
X0001682494Y0000835507D01*
X0001689478Y0000833632D01*
X0001700727Y0000833632D01*
X0001626017Y0000837382D02*
X0001628501Y0000835507D01*
X0001635485Y0000833632D01*
X0001639984Y0000833632D01*
X0001646499Y0000835507D01*
X0001650530Y0000839257D01*
X0001652311Y0000843006D01*
X0001653623Y0000850505D01*
X0001652920Y0000856130D01*
X0001649733Y0000863629D01*
X0001647015Y0000867378D01*
X0001642046Y0000871128D01*
X0001635063Y0000873002D01*
X0001630563Y0000873002D01*
X0001624049Y0000871128D01*
X0001622033Y0000869253D01*
X0001606238Y0000833632D02*
X0001601317Y0000873002D01*
X0001585991Y0000833632D02*
X0001583413Y0000854255D01*
X0001585194Y0000858004D01*
X0001589459Y0000859879D01*
X0001596208Y0000859879D01*
X0001600942Y0000858004D01*
X0001603426Y0000856130D01*
X0001543246Y0000833632D02*
X0001540668Y0000854255D01*
X0001542450Y0000858004D01*
X0001546715Y0000859879D01*
X0001555713Y0000859879D01*
X0001560447Y0000858004D01*
X0001543012Y0000835507D02*
X0001547746Y0000833632D01*
X0001558994Y0000833632D01*
X0001563259Y0000835507D01*
X0001565040Y0000839257D01*
X0001564572Y0000843006D01*
X0001561853Y0000846756D01*
X0001557120Y0000848630D01*
X0001545871Y0000848630D01*
X0001541137Y0000850505D01*
X0001514000Y0000833632D02*
X0001518265Y0000835507D01*
X0001520046Y0000839257D01*
X0001515828Y0000873002D01*
X0001489253Y0000833632D02*
X0001493518Y0000835507D01*
X0001495299Y0000839257D01*
X0001491081Y0000873002D01*
X0001453023Y0000835507D02*
X0001457757Y0000833632D01*
X0001466756Y0000833632D01*
X0001471021Y0000835507D01*
X0001472802Y0000839257D01*
X0001470927Y0000854255D01*
X0001468209Y0000858004D01*
X0001463475Y0000859879D01*
X0001454476Y0000859879D01*
X0001450211Y0000858004D01*
X0001448430Y0000854255D01*
X0001448899Y0000850505D01*
X0001471865Y0000846756D01*
X0001427480Y0000859879D02*
X0001430760Y0000833632D01*
X0001427948Y0000856130D02*
X0001425464Y0000858004D01*
X0001420730Y0000859879D01*
X0001413981Y0000859879D01*
X0001409716Y0000858004D01*
X0001407935Y0000854255D01*
X0001410513Y0000833632D01*
X0001364487Y0000859879D02*
X0001368471Y0000828008D01*
X0001371190Y0000824258D01*
X0001373674Y0000822384D01*
X0001378408Y0000820509D01*
X0001385157Y0000820509D01*
X0001389422Y0000822384D01*
X0001367534Y0000835507D02*
X0001372268Y0000833632D01*
X0001381267Y0000833632D01*
X0001385532Y0000835507D01*
X0001387547Y0000837382D01*
X0001389328Y0000841131D01*
X0001387922Y0000852380D01*
X0001385204Y0000856130D01*
X0001382720Y0000858004D01*
X0001377986Y0000859879D01*
X0001368987Y0000859879D01*
X0001364722Y0000858004D01*
X0001327039Y0000835507D02*
X0001331773Y0000833632D01*
X0001340772Y0000833632D01*
X0001345037Y0000835507D01*
X0001346818Y0000839257D01*
X0001344943Y0000854255D01*
X0001342225Y0000858004D01*
X0001337491Y0000859879D01*
X0001328492Y0000859879D01*
X0001324227Y0000858004D01*
X0001322446Y0000854255D01*
X0001322915Y0000850505D01*
X0001345880Y0000846756D01*
D26*
X0001811996Y0000065351D02*
X0001814808Y0000062539D01*
X0001823244Y0000059727D01*
X0001828869Y0000059727D01*
X0001837305Y0000062539D01*
X0001842929Y0000068164D01*
X0001845742Y0000073788D01*
X0001848554Y0000085037D01*
X0001848554Y0000093473D01*
X0001845742Y0000104722D01*
X0001842929Y0000110346D01*
X0001837305Y0000115970D01*
X0001828869Y0000118782D01*
X0001823244Y0000118782D01*
X0001814808Y0000115970D01*
X0001811996Y0000113158D01*
X0001752941Y0000059727D02*
X0001772626Y0000087849D01*
X0001786686Y0000059727D02*
X0001786686Y0000118782D01*
X0001764189Y0000118782D01*
X0001758565Y0000115970D01*
X0001755753Y0000113158D01*
X0001752941Y0000107534D01*
X0001752941Y0000099097D01*
X0001755753Y0000093473D01*
X0001758565Y0000090661D01*
X0001764189Y0000087849D01*
X0001786686Y0000087849D01*
X0001730444Y0000113158D02*
X0001727631Y0000115970D01*
X0001722007Y0000118782D01*
X0001707946Y0000118782D01*
X0001702322Y0000115970D01*
X0001699510Y0000113158D01*
X0001696698Y0000107534D01*
X0001696698Y0000101909D01*
X0001699510Y0000093473D01*
X0001733256Y0000059727D01*
X0001696698Y0000059727D01*
X0001660140Y0000118782D02*
X0001654516Y0000118782D01*
X0001648891Y0000115970D01*
X0001646079Y0000113158D01*
X0001643267Y0000107534D01*
X0001640455Y0000096285D01*
X0001640455Y0000082224D01*
X0001643267Y0000070976D01*
X0001646079Y0000065351D01*
X0001648891Y0000062539D01*
X0001654516Y0000059727D01*
X0001660140Y0000059727D01*
X0001665764Y0000062539D01*
X0001668576Y0000065351D01*
X0001671388Y0000070976D01*
X0001674201Y0000082224D01*
X0001674201Y0000096285D01*
X0001671388Y0000107534D01*
X0001668576Y0000113158D01*
X0001665764Y0000115970D01*
X0001660140Y0000118782D01*
X0001620770Y0000118782D02*
X0001584212Y0000118782D01*
X0001603897Y0000096285D01*
X0001595460Y0000096285D01*
X0001589836Y0000093473D01*
X0001587024Y0000090661D01*
X0001584212Y0000085037D01*
X0001584212Y0000070976D01*
X0001587024Y0000065351D01*
X0001589836Y0000062539D01*
X0001595460Y0000059727D01*
X0001612333Y0000059727D01*
X0001617958Y0000062539D01*
X0001620770Y0000065351D01*
X0001561715Y0000113158D02*
X0001558902Y0000115970D01*
X0001553278Y0000118782D01*
X0001539217Y0000118782D01*
X0001533593Y0000115970D01*
X0001530781Y0000113158D01*
X0001527969Y0000107534D01*
X0001527969Y0000101909D01*
X0001530781Y0000093473D01*
X0001564527Y0000059727D01*
X0001527969Y0000059727D01*
D27*
X0001955761Y0000223943D02*
X0002088261Y0000301443D01*
X0001390761Y0000218943D02*
X0001258261Y0000301443D01*
X0001956761Y0000223943D02*
G75*
G02X0001811761Y0000228943I-0000070000J0000075000D01*
G01*
X0001535261Y0000223943D02*
G75*
G02X0001390261Y0000218943I-0000075000J0000070000D01*
G01*
X0001533261Y0000223943D02*
G75*
G02X0001813261Y0000228943I0000142500J-0000137500D01*
G01*
X0001373261Y0000791443D02*
X0001258261Y0000658943D01*
X0002088261Y0000661443D02*
X0001970761Y0000793943D01*
X0001973261Y0000791443D02*
X0001373261Y0000791443D01*
X0002088261Y0000301443D02*
X0002088261Y0000661443D01*
X0001258261Y0000301443D02*
X0001258261Y0000661443D01*
G04 next file*
G04 #@! TF.FileFunction,Legend,Bot*
G04 Gerber Fmt 4.6, Leading zero omitted, Abs format (unit mm)*
G04 Created by KiCad (PCBNEW 4.0.7) date 06/29/18 14:26:30*
G01*
G04 APERTURE LIST*
G04 APERTURE END LIST*
D28*
D29*
X0003166441Y0000833632D02*
X0003161520Y0000873002D01*
X0003163395Y0000858004D02*
X0003158661Y0000859879D01*
X0003149662Y0000859879D01*
X0003145397Y0000858004D01*
X0003143382Y0000856130D01*
X0003141601Y0000852380D01*
X0003143007Y0000841131D01*
X0003145725Y0000837382D01*
X0003148209Y0000835507D01*
X0003152943Y0000833632D01*
X0003161942Y0000833632D01*
X0003166207Y0000835507D01*
X0003123697Y0000833632D02*
X0003120416Y0000859879D01*
X0003118775Y0000873002D02*
X0003121259Y0000871128D01*
X0003119244Y0000869253D01*
X0003116760Y0000871128D01*
X0003118775Y0000873002D01*
X0003119244Y0000869253D01*
X0003104668Y0000859879D02*
X0003086670Y0000859879D01*
X0003096278Y0000873002D02*
X0003100496Y0000839257D01*
X0003098715Y0000835507D01*
X0003094450Y0000833632D01*
X0003089951Y0000833632D01*
X0003073734Y0000837382D02*
X0003071719Y0000835507D01*
X0003074203Y0000833632D01*
X0003076218Y0000835507D01*
X0003073734Y0000837382D01*
X0003074203Y0000833632D01*
X0003044956Y0000833632D02*
X0003049221Y0000835507D01*
X0003051002Y0000839257D01*
X0003046784Y0000873002D01*
X0003028177Y0000859879D02*
X0003020210Y0000833632D01*
X0003005680Y0000859879D02*
X0003020210Y0000833632D01*
X0003025881Y0000824258D01*
X0003028365Y0000822384D01*
X0003033098Y0000820509D01*
X0002952062Y0000874877D02*
X0002998884Y0000824258D01*
X0002943485Y0000835507D02*
X0002936970Y0000833632D01*
X0002925721Y0000833632D01*
X0002920987Y0000835507D01*
X0002918503Y0000837382D01*
X0002915785Y0000841131D01*
X0002915316Y0000844881D01*
X0002917097Y0000848630D01*
X0002919113Y0000850505D01*
X0002923378Y0000852380D01*
X0002932142Y0000854255D01*
X0002936407Y0000856130D01*
X0002938423Y0000858004D01*
X0002940204Y0000861754D01*
X0002939735Y0000865503D01*
X0002937017Y0000869253D01*
X0002934533Y0000871128D01*
X0002929799Y0000873002D01*
X0002918550Y0000873002D01*
X0002912035Y0000871128D01*
X0002896475Y0000833632D02*
X0002891554Y0000873002D01*
X0002879321Y0000844881D01*
X0002860058Y0000873002D01*
X0002864979Y0000833632D01*
X0002842482Y0000833632D02*
X0002837560Y0000873002D01*
X0002826312Y0000873002D01*
X0002819797Y0000871128D01*
X0002815766Y0000867378D01*
X0002813985Y0000863629D01*
X0002812673Y0000856130D01*
X0002813376Y0000850505D01*
X0002816563Y0000843006D01*
X0002819281Y0000839257D01*
X0002824250Y0000835507D01*
X0002831233Y0000833632D01*
X0002842482Y0000833632D01*
X0002767772Y0000837382D02*
X0002770256Y0000835507D01*
X0002777240Y0000833632D01*
X0002781739Y0000833632D01*
X0002788254Y0000835507D01*
X0002792285Y0000839257D01*
X0002794066Y0000843006D01*
X0002795378Y0000850505D01*
X0002794675Y0000856130D01*
X0002791488Y0000863629D01*
X0002788770Y0000867378D01*
X0002783802Y0000871128D01*
X0002776818Y0000873002D01*
X0002772319Y0000873002D01*
X0002765804Y0000871128D01*
X0002763788Y0000869253D01*
X0002747994Y0000833632D02*
X0002743072Y0000873002D01*
X0002727746Y0000833632D02*
X0002725168Y0000854255D01*
X0002726949Y0000858004D01*
X0002731214Y0000859879D01*
X0002737963Y0000859879D01*
X0002742697Y0000858004D01*
X0002745181Y0000856130D01*
X0002685001Y0000833632D02*
X0002682424Y0000854255D01*
X0002684205Y0000858004D01*
X0002688470Y0000859879D01*
X0002697469Y0000859879D01*
X0002702202Y0000858004D01*
X0002684767Y0000835507D02*
X0002689501Y0000833632D01*
X0002700749Y0000833632D01*
X0002705015Y0000835507D01*
X0002706796Y0000839257D01*
X0002706327Y0000843006D01*
X0002703608Y0000846756D01*
X0002698875Y0000848630D01*
X0002687626Y0000848630D01*
X0002682892Y0000850505D01*
X0002655755Y0000833632D02*
X0002660020Y0000835507D01*
X0002661801Y0000839257D01*
X0002657583Y0000873002D01*
X0002631008Y0000833632D02*
X0002635273Y0000835507D01*
X0002637054Y0000839257D01*
X0002632836Y0000873002D01*
X0002594778Y0000835507D02*
X0002599512Y0000833632D01*
X0002608511Y0000833632D01*
X0002612776Y0000835507D01*
X0002614557Y0000839257D01*
X0002612682Y0000854255D01*
X0002609964Y0000858004D01*
X0002605230Y0000859879D01*
X0002596231Y0000859879D01*
X0002591966Y0000858004D01*
X0002590185Y0000854255D01*
X0002590654Y0000850505D01*
X0002613620Y0000846756D01*
X0002569235Y0000859879D02*
X0002572516Y0000833632D01*
X0002569703Y0000856130D02*
X0002567219Y0000858004D01*
X0002562485Y0000859879D01*
X0002555736Y0000859879D01*
X0002551471Y0000858004D01*
X0002549690Y0000854255D01*
X0002552268Y0000833632D01*
X0002506243Y0000859879D02*
X0002510226Y0000828008D01*
X0002512945Y0000824258D01*
X0002515429Y0000822384D01*
X0002520163Y0000820509D01*
X0002526912Y0000820509D01*
X0002531177Y0000822384D01*
X0002509289Y0000835507D02*
X0002514023Y0000833632D01*
X0002523022Y0000833632D01*
X0002527287Y0000835507D01*
X0002529302Y0000837382D01*
X0002531083Y0000841131D01*
X0002529677Y0000852380D01*
X0002526959Y0000856130D01*
X0002524475Y0000858004D01*
X0002519741Y0000859879D01*
X0002510742Y0000859879D01*
X0002506477Y0000858004D01*
X0002468794Y0000835507D02*
X0002473528Y0000833632D01*
X0002482527Y0000833632D01*
X0002486792Y0000835507D01*
X0002488573Y0000839257D01*
X0002486698Y0000854255D01*
X0002483980Y0000858004D01*
X0002479246Y0000859879D01*
X0002470247Y0000859879D01*
X0002465982Y0000858004D01*
X0002464201Y0000854255D01*
X0002464670Y0000850505D01*
X0002487636Y0000846756D01*
D30*
X0002953751Y0000065351D02*
X0002956563Y0000062539D01*
X0002965000Y0000059727D01*
X0002970624Y0000059727D01*
X0002979060Y0000062539D01*
X0002984685Y0000068164D01*
X0002987497Y0000073788D01*
X0002990309Y0000085037D01*
X0002990309Y0000093473D01*
X0002987497Y0000104722D01*
X0002984685Y0000110346D01*
X0002979060Y0000115970D01*
X0002970624Y0000118782D01*
X0002965000Y0000118782D01*
X0002956563Y0000115970D01*
X0002953751Y0000113158D01*
X0002894696Y0000059727D02*
X0002914381Y0000087849D01*
X0002928442Y0000059727D02*
X0002928442Y0000118782D01*
X0002905944Y0000118782D01*
X0002900320Y0000115970D01*
X0002897508Y0000113158D01*
X0002894696Y0000107534D01*
X0002894696Y0000099097D01*
X0002897508Y0000093473D01*
X0002900320Y0000090661D01*
X0002905944Y0000087849D01*
X0002928442Y0000087849D01*
X0002872199Y0000113158D02*
X0002869386Y0000115970D01*
X0002863762Y0000118782D01*
X0002849701Y0000118782D01*
X0002844077Y0000115970D01*
X0002841265Y0000113158D01*
X0002838453Y0000107534D01*
X0002838453Y0000101909D01*
X0002841265Y0000093473D01*
X0002875011Y0000059727D01*
X0002838453Y0000059727D01*
X0002801895Y0000118782D02*
X0002796271Y0000118782D01*
X0002790646Y0000115970D01*
X0002787834Y0000113158D01*
X0002785022Y0000107534D01*
X0002782210Y0000096285D01*
X0002782210Y0000082224D01*
X0002785022Y0000070976D01*
X0002787834Y0000065351D01*
X0002790646Y0000062539D01*
X0002796271Y0000059727D01*
X0002801895Y0000059727D01*
X0002807519Y0000062539D01*
X0002810331Y0000065351D01*
X0002813144Y0000070976D01*
X0002815956Y0000082224D01*
X0002815956Y0000096285D01*
X0002813144Y0000107534D01*
X0002810331Y0000113158D01*
X0002807519Y0000115970D01*
X0002801895Y0000118782D01*
X0002762525Y0000118782D02*
X0002725967Y0000118782D01*
X0002745652Y0000096285D01*
X0002737216Y0000096285D01*
X0002731591Y0000093473D01*
X0002728779Y0000090661D01*
X0002725967Y0000085037D01*
X0002725967Y0000070976D01*
X0002728779Y0000065351D01*
X0002731591Y0000062539D01*
X0002737216Y0000059727D01*
X0002754088Y0000059727D01*
X0002759713Y0000062539D01*
X0002762525Y0000065351D01*
X0002703470Y0000113158D02*
X0002700658Y0000115970D01*
X0002695033Y0000118782D01*
X0002680973Y0000118782D01*
X0002675348Y0000115970D01*
X0002672536Y0000113158D01*
X0002669724Y0000107534D01*
X0002669724Y0000101909D01*
X0002672536Y0000093473D01*
X0002706282Y0000059727D01*
X0002669724Y0000059727D01*
D31*
X0003097516Y0000223943D02*
X0003230016Y0000301443D01*
X0002532516Y0000218943D02*
X0002400016Y0000301443D01*
X0003098516Y0000223943D02*
G75*
G02X0002953516Y0000228943I-0000070000J0000075000D01*
G01*
X0002677016Y0000223943D02*
G75*
G02X0002532016Y0000218943I-0000075000J0000070000D01*
G01*
X0002675016Y0000223943D02*
G75*
G02X0002955016Y0000228943I0000142500J-0000137500D01*
G01*
X0002515016Y0000791443D02*
X0002400016Y0000658943D01*
X0003230016Y0000661443D02*
X0003112516Y0000793943D01*
X0003115016Y0000791443D02*
X0002515016Y0000791443D01*
X0003230016Y0000301443D02*
X0003230016Y0000661443D01*
X0002400016Y0000301443D02*
X0002400016Y0000661443D01*
G04 next file*
G04 #@! TF.FileFunction,Legend,Bot*
G04 Gerber Fmt 4.6, Leading zero omitted, Abs format (unit mm)*
G04 Created by KiCad (PCBNEW 4.0.7) date 06/29/18 14:26:30*
G01*
G04 APERTURE LIST*
G04 APERTURE END LIST*
D32*
D33*
X0000882932Y0001975258D02*
X0000878010Y0002014628D01*
X0000879885Y0001999630D02*
X0000875151Y0002001505D01*
X0000866152Y0002001505D01*
X0000861887Y0001999630D01*
X0000859872Y0001997755D01*
X0000858091Y0001994006D01*
X0000859497Y0001982757D01*
X0000862215Y0001979008D01*
X0000864699Y0001977133D01*
X0000869433Y0001975258D01*
X0000878432Y0001975258D01*
X0000882697Y0001977133D01*
X0000840187Y0001975258D02*
X0000836906Y0002001505D01*
X0000835266Y0002014628D02*
X0000837750Y0002012754D01*
X0000835734Y0002010879D01*
X0000833250Y0002012754D01*
X0000835266Y0002014628D01*
X0000835734Y0002010879D01*
X0000821158Y0002001505D02*
X0000803160Y0002001505D01*
X0000812768Y0002014628D02*
X0000816987Y0001980883D01*
X0000815206Y0001977133D01*
X0000810941Y0001975258D01*
X0000806441Y0001975258D01*
X0000790224Y0001979008D02*
X0000788209Y0001977133D01*
X0000790693Y0001975258D01*
X0000792708Y0001977133D01*
X0000790224Y0001979008D01*
X0000790693Y0001975258D01*
X0000761447Y0001975258D02*
X0000765712Y0001977133D01*
X0000767493Y0001980883D01*
X0000763275Y0002014628D01*
X0000744668Y0002001505D02*
X0000736700Y0001975258D01*
X0000722170Y0002001505D02*
X0000736700Y0001975258D01*
X0000742371Y0001965884D01*
X0000744855Y0001964010D01*
X0000749589Y0001962135D01*
X0000668552Y0002016503D02*
X0000715374Y0001965884D01*
X0000659975Y0001977133D02*
X0000653460Y0001975258D01*
X0000642212Y0001975258D01*
X0000637478Y0001977133D01*
X0000634994Y0001979008D01*
X0000632275Y0001982757D01*
X0000631807Y0001986507D01*
X0000633588Y0001990256D01*
X0000635603Y0001992131D01*
X0000639868Y0001994006D01*
X0000648633Y0001995881D01*
X0000652898Y0001997755D01*
X0000654913Y0001999630D01*
X0000656694Y0002003380D01*
X0000656226Y0002007129D01*
X0000653507Y0002010879D01*
X0000651023Y0002012754D01*
X0000646289Y0002014628D01*
X0000635041Y0002014628D01*
X0000628526Y0002012754D01*
X0000612965Y0001975258D02*
X0000608044Y0002014628D01*
X0000595811Y0001986507D01*
X0000576548Y0002014628D01*
X0000581469Y0001975258D01*
X0000558972Y0001975258D02*
X0000554051Y0002014628D01*
X0000542802Y0002014628D01*
X0000536287Y0002012754D01*
X0000532257Y0002009004D01*
X0000530476Y0002005255D01*
X0000529163Y0001997755D01*
X0000529866Y0001992131D01*
X0000533053Y0001984632D01*
X0000535772Y0001980883D01*
X0000540740Y0001977133D01*
X0000547723Y0001975258D01*
X0000558972Y0001975258D01*
X0000484263Y0001979008D02*
X0000486747Y0001977133D01*
X0000493730Y0001975258D01*
X0000498230Y0001975258D01*
X0000504744Y0001977133D01*
X0000508775Y0001980883D01*
X0000510556Y0001984632D01*
X0000511869Y0001992131D01*
X0000511166Y0001997755D01*
X0000507978Y0002005255D01*
X0000505260Y0002009004D01*
X0000500292Y0002012754D01*
X0000493308Y0002014628D01*
X0000488809Y0002014628D01*
X0000482294Y0002012754D01*
X0000480279Y0002010879D01*
X0000464484Y0001975258D02*
X0000459563Y0002014628D01*
X0000444236Y0001975258D02*
X0000441659Y0001995881D01*
X0000443440Y0001999630D01*
X0000447705Y0002001505D01*
X0000454454Y0002001505D01*
X0000459188Y0001999630D01*
X0000461672Y0001997755D01*
X0000401492Y0001975258D02*
X0000398914Y0001995881D01*
X0000400695Y0001999630D01*
X0000404960Y0002001505D01*
X0000413959Y0002001505D01*
X0000418693Y0001999630D01*
X0000401257Y0001977133D02*
X0000405991Y0001975258D01*
X0000417240Y0001975258D01*
X0000421505Y0001977133D01*
X0000423286Y0001980883D01*
X0000422817Y0001984632D01*
X0000420099Y0001988382D01*
X0000415365Y0001990256D01*
X0000404116Y0001990256D01*
X0000399383Y0001992131D01*
X0000372245Y0001975258D02*
X0000376510Y0001977133D01*
X0000378292Y0001980883D01*
X0000374073Y0002014628D01*
X0000347499Y0001975258D02*
X0000351764Y0001977133D01*
X0000353545Y0001980883D01*
X0000349326Y0002014628D01*
X0000311269Y0001977133D02*
X0000316002Y0001975258D01*
X0000325001Y0001975258D01*
X0000329266Y0001977133D01*
X0000331047Y0001980883D01*
X0000329173Y0001995881D01*
X0000326454Y0001999630D01*
X0000321720Y0002001505D01*
X0000312722Y0002001505D01*
X0000308457Y0001999630D01*
X0000306675Y0001995881D01*
X0000307144Y0001992131D01*
X0000330110Y0001988382D01*
X0000285725Y0002001505D02*
X0000289006Y0001975258D01*
X0000286194Y0001997755D02*
X0000283710Y0001999630D01*
X0000278976Y0002001505D01*
X0000272227Y0002001505D01*
X0000267962Y0001999630D01*
X0000266181Y0001995881D01*
X0000268758Y0001975258D01*
X0000222733Y0002001505D02*
X0000226717Y0001969634D01*
X0000229435Y0001965884D01*
X0000231919Y0001964010D01*
X0000236653Y0001962135D01*
X0000243402Y0001962135D01*
X0000247667Y0001964010D01*
X0000225779Y0001977133D02*
X0000230513Y0001975258D01*
X0000239512Y0001975258D01*
X0000243777Y0001977133D01*
X0000245793Y0001979008D01*
X0000247574Y0001982757D01*
X0000246167Y0001994006D01*
X0000243449Y0001997755D01*
X0000240965Y0001999630D01*
X0000236231Y0002001505D01*
X0000227232Y0002001505D01*
X0000222967Y0001999630D01*
X0000185284Y0001977133D02*
X0000190018Y0001975258D01*
X0000199017Y0001975258D01*
X0000203282Y0001977133D01*
X0000205063Y0001980883D01*
X0000203188Y0001995881D01*
X0000200470Y0001999630D01*
X0000195736Y0002001505D01*
X0000186737Y0002001505D01*
X0000182472Y0001999630D01*
X0000180691Y0001995881D01*
X0000181160Y0001992131D01*
X0000204126Y0001988382D01*
D34*
X0000670241Y0001206977D02*
X0000673053Y0001204165D01*
X0000681490Y0001201353D01*
X0000687114Y0001201353D01*
X0000695551Y0001204165D01*
X0000701175Y0001209790D01*
X0000703987Y0001215414D01*
X0000706799Y0001226662D01*
X0000706799Y0001235099D01*
X0000703987Y0001246347D01*
X0000701175Y0001251972D01*
X0000695551Y0001257596D01*
X0000687114Y0001260408D01*
X0000681490Y0001260408D01*
X0000673053Y0001257596D01*
X0000670241Y0001254784D01*
X0000611186Y0001201353D02*
X0000630871Y0001229475D01*
X0000644932Y0001201353D02*
X0000644932Y0001260408D01*
X0000622435Y0001260408D01*
X0000616810Y0001257596D01*
X0000613998Y0001254784D01*
X0000611186Y0001249160D01*
X0000611186Y0001240723D01*
X0000613998Y0001235099D01*
X0000616810Y0001232287D01*
X0000622435Y0001229475D01*
X0000644932Y0001229475D01*
X0000588689Y0001254784D02*
X0000585877Y0001257596D01*
X0000580253Y0001260408D01*
X0000566192Y0001260408D01*
X0000560567Y0001257596D01*
X0000557755Y0001254784D01*
X0000554943Y0001249160D01*
X0000554943Y0001243535D01*
X0000557755Y0001235099D01*
X0000591501Y0001201353D01*
X0000554943Y0001201353D01*
X0000518385Y0001260408D02*
X0000512761Y0001260408D01*
X0000507137Y0001257596D01*
X0000504325Y0001254784D01*
X0000501512Y0001249160D01*
X0000498700Y0001237911D01*
X0000498700Y0001223850D01*
X0000501512Y0001212602D01*
X0000504325Y0001206977D01*
X0000507137Y0001204165D01*
X0000512761Y0001201353D01*
X0000518385Y0001201353D01*
X0000524010Y0001204165D01*
X0000526822Y0001206977D01*
X0000529634Y0001212602D01*
X0000532446Y0001223850D01*
X0000532446Y0001237911D01*
X0000529634Y0001249160D01*
X0000526822Y0001254784D01*
X0000524010Y0001257596D01*
X0000518385Y0001260408D01*
X0000479015Y0001260408D02*
X0000442457Y0001260408D01*
X0000462142Y0001237911D01*
X0000453706Y0001237911D01*
X0000448082Y0001235099D01*
X0000445269Y0001232287D01*
X0000442457Y0001226662D01*
X0000442457Y0001212602D01*
X0000445269Y0001206977D01*
X0000448082Y0001204165D01*
X0000453706Y0001201353D01*
X0000470579Y0001201353D01*
X0000476203Y0001204165D01*
X0000479015Y0001206977D01*
X0000419960Y0001254784D02*
X0000417148Y0001257596D01*
X0000411524Y0001260408D01*
X0000397463Y0001260408D01*
X0000391839Y0001257596D01*
X0000389026Y0001254784D01*
X0000386214Y0001249160D01*
X0000386214Y0001243535D01*
X0000389026Y0001235099D01*
X0000422772Y0001201353D01*
X0000386214Y0001201353D01*
D35*
X0000814007Y0001365569D02*
X0000946507Y0001443069D01*
X0000249007Y0001360569D02*
X0000116507Y0001443069D01*
X0000815007Y0001365569D02*
G75*
G02X0000670007Y0001370569I-0000070000J0000075000D01*
G01*
X0000393507Y0001365569D02*
G75*
G02X0000248507Y0001360569I-0000075000J0000070000D01*
G01*
X0000391507Y0001365569D02*
G75*
G02X0000671507Y0001370569I0000142500J-0000137500D01*
G01*
X0000231507Y0001933069D02*
X0000116507Y0001800569D01*
X0000946507Y0001803069D02*
X0000829007Y0001935569D01*
X0000831507Y0001933069D02*
X0000231507Y0001933069D01*
X0000946507Y0001443069D02*
X0000946507Y0001803069D01*
X0000116507Y0001443069D02*
X0000116507Y0001803069D01*
G04 next file*
G04 #@! TF.FileFunction,Legend,Bot*
G04 Gerber Fmt 4.6, Leading zero omitted, Abs format (unit mm)*
G04 Created by KiCad (PCBNEW 4.0.7) date 06/29/18 14:26:30*
G01*
G04 APERTURE LIST*
G04 APERTURE END LIST*
D36*
D37*
X0000882932Y0003116885D02*
X0000878010Y0003156255D01*
X0000879885Y0003141257D02*
X0000875151Y0003143132D01*
X0000866152Y0003143132D01*
X0000861887Y0003141257D01*
X0000859872Y0003139382D01*
X0000858091Y0003135632D01*
X0000859497Y0003124384D01*
X0000862215Y0003120634D01*
X0000864699Y0003118760D01*
X0000869433Y0003116885D01*
X0000878432Y0003116885D01*
X0000882697Y0003118760D01*
X0000840187Y0003116885D02*
X0000836906Y0003143132D01*
X0000835266Y0003156255D02*
X0000837750Y0003154380D01*
X0000835734Y0003152505D01*
X0000833250Y0003154380D01*
X0000835266Y0003156255D01*
X0000835734Y0003152505D01*
X0000821158Y0003143132D02*
X0000803160Y0003143132D01*
X0000812768Y0003156255D02*
X0000816987Y0003122509D01*
X0000815206Y0003118760D01*
X0000810941Y0003116885D01*
X0000806441Y0003116885D01*
X0000790224Y0003120634D02*
X0000788209Y0003118760D01*
X0000790693Y0003116885D01*
X0000792708Y0003118760D01*
X0000790224Y0003120634D01*
X0000790693Y0003116885D01*
X0000761447Y0003116885D02*
X0000765712Y0003118760D01*
X0000767493Y0003122509D01*
X0000763275Y0003156255D01*
X0000744668Y0003143132D02*
X0000736700Y0003116885D01*
X0000722170Y0003143132D02*
X0000736700Y0003116885D01*
X0000742371Y0003107511D01*
X0000744855Y0003105636D01*
X0000749589Y0003103761D01*
X0000668552Y0003158130D02*
X0000715374Y0003107511D01*
X0000659975Y0003118760D02*
X0000653460Y0003116885D01*
X0000642212Y0003116885D01*
X0000637478Y0003118760D01*
X0000634994Y0003120634D01*
X0000632275Y0003124384D01*
X0000631807Y0003128133D01*
X0000633588Y0003131883D01*
X0000635603Y0003133758D01*
X0000639868Y0003135632D01*
X0000648633Y0003137507D01*
X0000652898Y0003139382D01*
X0000654913Y0003141257D01*
X0000656694Y0003145006D01*
X0000656226Y0003148756D01*
X0000653507Y0003152505D01*
X0000651023Y0003154380D01*
X0000646289Y0003156255D01*
X0000635041Y0003156255D01*
X0000628526Y0003154380D01*
X0000612965Y0003116885D02*
X0000608044Y0003156255D01*
X0000595811Y0003128133D01*
X0000576548Y0003156255D01*
X0000581469Y0003116885D01*
X0000558972Y0003116885D02*
X0000554051Y0003156255D01*
X0000542802Y0003156255D01*
X0000536287Y0003154380D01*
X0000532257Y0003150631D01*
X0000530476Y0003146881D01*
X0000529163Y0003139382D01*
X0000529866Y0003133758D01*
X0000533053Y0003126259D01*
X0000535772Y0003122509D01*
X0000540740Y0003118760D01*
X0000547723Y0003116885D01*
X0000558972Y0003116885D01*
X0000484263Y0003120634D02*
X0000486747Y0003118760D01*
X0000493730Y0003116885D01*
X0000498230Y0003116885D01*
X0000504744Y0003118760D01*
X0000508775Y0003122509D01*
X0000510556Y0003126259D01*
X0000511869Y0003133758D01*
X0000511166Y0003139382D01*
X0000507978Y0003146881D01*
X0000505260Y0003150631D01*
X0000500292Y0003154380D01*
X0000493308Y0003156255D01*
X0000488809Y0003156255D01*
X0000482294Y0003154380D01*
X0000480279Y0003152505D01*
X0000464484Y0003116885D02*
X0000459563Y0003156255D01*
X0000444236Y0003116885D02*
X0000441659Y0003137507D01*
X0000443440Y0003141257D01*
X0000447705Y0003143132D01*
X0000454454Y0003143132D01*
X0000459188Y0003141257D01*
X0000461672Y0003139382D01*
X0000401492Y0003116885D02*
X0000398914Y0003137507D01*
X0000400695Y0003141257D01*
X0000404960Y0003143132D01*
X0000413959Y0003143132D01*
X0000418693Y0003141257D01*
X0000401257Y0003118760D02*
X0000405991Y0003116885D01*
X0000417240Y0003116885D01*
X0000421505Y0003118760D01*
X0000423286Y0003122509D01*
X0000422817Y0003126259D01*
X0000420099Y0003130008D01*
X0000415365Y0003131883D01*
X0000404116Y0003131883D01*
X0000399383Y0003133758D01*
X0000372245Y0003116885D02*
X0000376510Y0003118760D01*
X0000378292Y0003122509D01*
X0000374073Y0003156255D01*
X0000347499Y0003116885D02*
X0000351764Y0003118760D01*
X0000353545Y0003122509D01*
X0000349326Y0003156255D01*
X0000311269Y0003118760D02*
X0000316002Y0003116885D01*
X0000325001Y0003116885D01*
X0000329266Y0003118760D01*
X0000331047Y0003122509D01*
X0000329173Y0003137507D01*
X0000326454Y0003141257D01*
X0000321720Y0003143132D01*
X0000312722Y0003143132D01*
X0000308457Y0003141257D01*
X0000306675Y0003137507D01*
X0000307144Y0003133758D01*
X0000330110Y0003130008D01*
X0000285725Y0003143132D02*
X0000289006Y0003116885D01*
X0000286194Y0003139382D02*
X0000283710Y0003141257D01*
X0000278976Y0003143132D01*
X0000272227Y0003143132D01*
X0000267962Y0003141257D01*
X0000266181Y0003137507D01*
X0000268758Y0003116885D01*
X0000222733Y0003143132D02*
X0000226717Y0003111260D01*
X0000229435Y0003107511D01*
X0000231919Y0003105636D01*
X0000236653Y0003103761D01*
X0000243402Y0003103761D01*
X0000247667Y0003105636D01*
X0000225779Y0003118760D02*
X0000230513Y0003116885D01*
X0000239512Y0003116885D01*
X0000243777Y0003118760D01*
X0000245793Y0003120634D01*
X0000247574Y0003124384D01*
X0000246167Y0003135632D01*
X0000243449Y0003139382D01*
X0000240965Y0003141257D01*
X0000236231Y0003143132D01*
X0000227232Y0003143132D01*
X0000222967Y0003141257D01*
X0000185284Y0003118760D02*
X0000190018Y0003116885D01*
X0000199017Y0003116885D01*
X0000203282Y0003118760D01*
X0000205063Y0003122509D01*
X0000203188Y0003137507D01*
X0000200470Y0003141257D01*
X0000195736Y0003143132D01*
X0000186737Y0003143132D01*
X0000182472Y0003141257D01*
X0000180691Y0003137507D01*
X0000181160Y0003133758D01*
X0000204126Y0003130008D01*
D38*
X0000670241Y0002348604D02*
X0000673053Y0002345792D01*
X0000681490Y0002342980D01*
X0000687114Y0002342980D01*
X0000695551Y0002345792D01*
X0000701175Y0002351416D01*
X0000703987Y0002357040D01*
X0000706799Y0002368289D01*
X0000706799Y0002376725D01*
X0000703987Y0002387974D01*
X0000701175Y0002393598D01*
X0000695551Y0002399223D01*
X0000687114Y0002402035D01*
X0000681490Y0002402035D01*
X0000673053Y0002399223D01*
X0000670241Y0002396410D01*
X0000611186Y0002342980D02*
X0000630871Y0002371101D01*
X0000644932Y0002342980D02*
X0000644932Y0002402035D01*
X0000622435Y0002402035D01*
X0000616810Y0002399223D01*
X0000613998Y0002396410D01*
X0000611186Y0002390786D01*
X0000611186Y0002382350D01*
X0000613998Y0002376725D01*
X0000616810Y0002373913D01*
X0000622435Y0002371101D01*
X0000644932Y0002371101D01*
X0000588689Y0002396410D02*
X0000585877Y0002399223D01*
X0000580253Y0002402035D01*
X0000566192Y0002402035D01*
X0000560567Y0002399223D01*
X0000557755Y0002396410D01*
X0000554943Y0002390786D01*
X0000554943Y0002385162D01*
X0000557755Y0002376725D01*
X0000591501Y0002342980D01*
X0000554943Y0002342980D01*
X0000518385Y0002402035D02*
X0000512761Y0002402035D01*
X0000507137Y0002399223D01*
X0000504325Y0002396410D01*
X0000501512Y0002390786D01*
X0000498700Y0002379538D01*
X0000498700Y0002365477D01*
X0000501512Y0002354228D01*
X0000504325Y0002348604D01*
X0000507137Y0002345792D01*
X0000512761Y0002342980D01*
X0000518385Y0002342980D01*
X0000524010Y0002345792D01*
X0000526822Y0002348604D01*
X0000529634Y0002354228D01*
X0000532446Y0002365477D01*
X0000532446Y0002379538D01*
X0000529634Y0002390786D01*
X0000526822Y0002396410D01*
X0000524010Y0002399223D01*
X0000518385Y0002402035D01*
X0000479015Y0002402035D02*
X0000442457Y0002402035D01*
X0000462142Y0002379538D01*
X0000453706Y0002379538D01*
X0000448082Y0002376725D01*
X0000445269Y0002373913D01*
X0000442457Y0002368289D01*
X0000442457Y0002354228D01*
X0000445269Y0002348604D01*
X0000448082Y0002345792D01*
X0000453706Y0002342980D01*
X0000470579Y0002342980D01*
X0000476203Y0002345792D01*
X0000479015Y0002348604D01*
X0000419960Y0002396410D02*
X0000417148Y0002399223D01*
X0000411524Y0002402035D01*
X0000397463Y0002402035D01*
X0000391839Y0002399223D01*
X0000389026Y0002396410D01*
X0000386214Y0002390786D01*
X0000386214Y0002385162D01*
X0000389026Y0002376725D01*
X0000422772Y0002342980D01*
X0000386214Y0002342980D01*
D39*
X0000814007Y0002507195D02*
X0000946507Y0002584695D01*
X0000249007Y0002502195D02*
X0000116507Y0002584695D01*
X0000815007Y0002507195D02*
G75*
G02X0000670007Y0002512195I-0000070000J0000075000D01*
G01*
X0000393507Y0002507195D02*
G75*
G02X0000248507Y0002502195I-0000075000J0000070000D01*
G01*
X0000391507Y0002507195D02*
G75*
G02X0000671507Y0002512195I0000142500J-0000137500D01*
G01*
X0000231507Y0003074695D02*
X0000116507Y0002942195D01*
X0000946507Y0002944695D02*
X0000829007Y0003077195D01*
X0000831507Y0003074695D02*
X0000231507Y0003074695D01*
X0000946507Y0002584695D02*
X0000946507Y0002944695D01*
X0000116507Y0002584695D02*
X0000116507Y0002944695D01*
G04 next file*
G04 #@! TF.FileFunction,Legend,Bot*
G04 Gerber Fmt 4.6, Leading zero omitted, Abs format (unit mm)*
G04 Created by KiCad (PCBNEW 4.0.7) date 06/29/18 14:26:30*
G01*
G04 APERTURE LIST*
G04 APERTURE END LIST*
D40*
D41*
X0002024686Y0001975258D02*
X0002019765Y0002014628D01*
X0002021640Y0001999630D02*
X0002016906Y0002001505D01*
X0002007907Y0002001505D01*
X0002003642Y0001999630D01*
X0002001626Y0001997755D01*
X0001999845Y0001994006D01*
X0002001252Y0001982757D01*
X0002003970Y0001979008D01*
X0002006454Y0001977133D01*
X0002011188Y0001975258D01*
X0002020187Y0001975258D01*
X0002024452Y0001977133D01*
X0001981941Y0001975258D02*
X0001978661Y0002001505D01*
X0001977020Y0002014628D02*
X0001979504Y0002012754D01*
X0001977489Y0002010879D01*
X0001975005Y0002012754D01*
X0001977020Y0002014628D01*
X0001977489Y0002010879D01*
X0001962913Y0002001505D02*
X0001944915Y0002001505D01*
X0001954523Y0002014628D02*
X0001958741Y0001980883D01*
X0001956960Y0001977133D01*
X0001952695Y0001975258D01*
X0001948196Y0001975258D01*
X0001931979Y0001979008D02*
X0001929964Y0001977133D01*
X0001932448Y0001975258D01*
X0001934463Y0001977133D01*
X0001931979Y0001979008D01*
X0001932448Y0001975258D01*
X0001903201Y0001975258D02*
X0001907466Y0001977133D01*
X0001909247Y0001980883D01*
X0001905029Y0002014628D01*
X0001886422Y0002001505D02*
X0001878454Y0001975258D01*
X0001863925Y0002001505D02*
X0001878454Y0001975258D01*
X0001884126Y0001965884D01*
X0001886610Y0001964010D01*
X0001891343Y0001962135D01*
X0001810307Y0002016503D02*
X0001857129Y0001965884D01*
X0001801730Y0001977133D02*
X0001795215Y0001975258D01*
X0001783966Y0001975258D01*
X0001779232Y0001977133D01*
X0001776748Y0001979008D01*
X0001774030Y0001982757D01*
X0001773561Y0001986507D01*
X0001775342Y0001990256D01*
X0001777358Y0001992131D01*
X0001781623Y0001994006D01*
X0001790387Y0001995881D01*
X0001794652Y0001997755D01*
X0001796668Y0001999630D01*
X0001798449Y0002003380D01*
X0001797980Y0002007129D01*
X0001795262Y0002010879D01*
X0001792778Y0002012754D01*
X0001788044Y0002014628D01*
X0001776795Y0002014628D01*
X0001770280Y0002012754D01*
X0001754720Y0001975258D02*
X0001749799Y0002014628D01*
X0001737566Y0001986507D01*
X0001718303Y0002014628D01*
X0001723224Y0001975258D01*
X0001700727Y0001975258D02*
X0001695805Y0002014628D01*
X0001684557Y0002014628D01*
X0001678042Y0002012754D01*
X0001674011Y0002009004D01*
X0001672230Y0002005255D01*
X0001670918Y0001997755D01*
X0001671621Y0001992131D01*
X0001674808Y0001984632D01*
X0001677526Y0001980883D01*
X0001682494Y0001977133D01*
X0001689478Y0001975258D01*
X0001700727Y0001975258D01*
X0001626017Y0001979008D02*
X0001628501Y0001977133D01*
X0001635485Y0001975258D01*
X0001639984Y0001975258D01*
X0001646499Y0001977133D01*
X0001650530Y0001980883D01*
X0001652311Y0001984632D01*
X0001653623Y0001992131D01*
X0001652920Y0001997755D01*
X0001649733Y0002005255D01*
X0001647015Y0002009004D01*
X0001642046Y0002012754D01*
X0001635063Y0002014628D01*
X0001630563Y0002014628D01*
X0001624049Y0002012754D01*
X0001622033Y0002010879D01*
X0001606238Y0001975258D02*
X0001601317Y0002014628D01*
X0001585991Y0001975258D02*
X0001583413Y0001995881D01*
X0001585194Y0001999630D01*
X0001589459Y0002001505D01*
X0001596208Y0002001505D01*
X0001600942Y0001999630D01*
X0001603426Y0001997755D01*
X0001543246Y0001975258D02*
X0001540668Y0001995881D01*
X0001542450Y0001999630D01*
X0001546715Y0002001505D01*
X0001555713Y0002001505D01*
X0001560447Y0001999630D01*
X0001543012Y0001977133D02*
X0001547746Y0001975258D01*
X0001558994Y0001975258D01*
X0001563259Y0001977133D01*
X0001565040Y0001980883D01*
X0001564572Y0001984632D01*
X0001561853Y0001988382D01*
X0001557120Y0001990256D01*
X0001545871Y0001990256D01*
X0001541137Y0001992131D01*
X0001514000Y0001975258D02*
X0001518265Y0001977133D01*
X0001520046Y0001980883D01*
X0001515828Y0002014628D01*
X0001489253Y0001975258D02*
X0001493518Y0001977133D01*
X0001495299Y0001980883D01*
X0001491081Y0002014628D01*
X0001453023Y0001977133D02*
X0001457757Y0001975258D01*
X0001466756Y0001975258D01*
X0001471021Y0001977133D01*
X0001472802Y0001980883D01*
X0001470927Y0001995881D01*
X0001468209Y0001999630D01*
X0001463475Y0002001505D01*
X0001454476Y0002001505D01*
X0001450211Y0001999630D01*
X0001448430Y0001995881D01*
X0001448899Y0001992131D01*
X0001471865Y0001988382D01*
X0001427480Y0002001505D02*
X0001430760Y0001975258D01*
X0001427948Y0001997755D02*
X0001425464Y0001999630D01*
X0001420730Y0002001505D01*
X0001413981Y0002001505D01*
X0001409716Y0001999630D01*
X0001407935Y0001995881D01*
X0001410513Y0001975258D01*
X0001364487Y0002001505D02*
X0001368471Y0001969634D01*
X0001371190Y0001965884D01*
X0001373674Y0001964010D01*
X0001378408Y0001962135D01*
X0001385157Y0001962135D01*
X0001389422Y0001964010D01*
X0001367534Y0001977133D02*
X0001372268Y0001975258D01*
X0001381267Y0001975258D01*
X0001385532Y0001977133D01*
X0001387547Y0001979008D01*
X0001389328Y0001982757D01*
X0001387922Y0001994006D01*
X0001385204Y0001997755D01*
X0001382720Y0001999630D01*
X0001377986Y0002001505D01*
X0001368987Y0002001505D01*
X0001364722Y0001999630D01*
X0001327039Y0001977133D02*
X0001331773Y0001975258D01*
X0001340772Y0001975258D01*
X0001345037Y0001977133D01*
X0001346818Y0001980883D01*
X0001344943Y0001995881D01*
X0001342225Y0001999630D01*
X0001337491Y0002001505D01*
X0001328492Y0002001505D01*
X0001324227Y0001999630D01*
X0001322446Y0001995881D01*
X0001322915Y0001992131D01*
X0001345880Y0001988382D01*
D42*
X0001811996Y0001206977D02*
X0001814808Y0001204165D01*
X0001823244Y0001201353D01*
X0001828869Y0001201353D01*
X0001837305Y0001204165D01*
X0001842929Y0001209790D01*
X0001845742Y0001215414D01*
X0001848554Y0001226662D01*
X0001848554Y0001235099D01*
X0001845742Y0001246347D01*
X0001842929Y0001251972D01*
X0001837305Y0001257596D01*
X0001828869Y0001260408D01*
X0001823244Y0001260408D01*
X0001814808Y0001257596D01*
X0001811996Y0001254784D01*
X0001752941Y0001201353D02*
X0001772626Y0001229475D01*
X0001786686Y0001201353D02*
X0001786686Y0001260408D01*
X0001764189Y0001260408D01*
X0001758565Y0001257596D01*
X0001755753Y0001254784D01*
X0001752941Y0001249160D01*
X0001752941Y0001240723D01*
X0001755753Y0001235099D01*
X0001758565Y0001232287D01*
X0001764189Y0001229475D01*
X0001786686Y0001229475D01*
X0001730444Y0001254784D02*
X0001727631Y0001257596D01*
X0001722007Y0001260408D01*
X0001707946Y0001260408D01*
X0001702322Y0001257596D01*
X0001699510Y0001254784D01*
X0001696698Y0001249160D01*
X0001696698Y0001243535D01*
X0001699510Y0001235099D01*
X0001733256Y0001201353D01*
X0001696698Y0001201353D01*
X0001660140Y0001260408D02*
X0001654516Y0001260408D01*
X0001648891Y0001257596D01*
X0001646079Y0001254784D01*
X0001643267Y0001249160D01*
X0001640455Y0001237911D01*
X0001640455Y0001223850D01*
X0001643267Y0001212602D01*
X0001646079Y0001206977D01*
X0001648891Y0001204165D01*
X0001654516Y0001201353D01*
X0001660140Y0001201353D01*
X0001665764Y0001204165D01*
X0001668576Y0001206977D01*
X0001671388Y0001212602D01*
X0001674201Y0001223850D01*
X0001674201Y0001237911D01*
X0001671388Y0001249160D01*
X0001668576Y0001254784D01*
X0001665764Y0001257596D01*
X0001660140Y0001260408D01*
X0001620770Y0001260408D02*
X0001584212Y0001260408D01*
X0001603897Y0001237911D01*
X0001595460Y0001237911D01*
X0001589836Y0001235099D01*
X0001587024Y0001232287D01*
X0001584212Y0001226662D01*
X0001584212Y0001212602D01*
X0001587024Y0001206977D01*
X0001589836Y0001204165D01*
X0001595460Y0001201353D01*
X0001612333Y0001201353D01*
X0001617958Y0001204165D01*
X0001620770Y0001206977D01*
X0001561715Y0001254784D02*
X0001558902Y0001257596D01*
X0001553278Y0001260408D01*
X0001539217Y0001260408D01*
X0001533593Y0001257596D01*
X0001530781Y0001254784D01*
X0001527969Y0001249160D01*
X0001527969Y0001243535D01*
X0001530781Y0001235099D01*
X0001564527Y0001201353D01*
X0001527969Y0001201353D01*
D43*
X0001955761Y0001365569D02*
X0002088261Y0001443069D01*
X0001390761Y0001360569D02*
X0001258261Y0001443069D01*
X0001956761Y0001365569D02*
G75*
G02X0001811761Y0001370569I-0000070000J0000075000D01*
G01*
X0001535261Y0001365569D02*
G75*
G02X0001390261Y0001360569I-0000075000J0000070000D01*
G01*
X0001533261Y0001365569D02*
G75*
G02X0001813261Y0001370569I0000142500J-0000137500D01*
G01*
X0001373261Y0001933069D02*
X0001258261Y0001800569D01*
X0002088261Y0001803069D02*
X0001970761Y0001935569D01*
X0001973261Y0001933069D02*
X0001373261Y0001933069D01*
X0002088261Y0001443069D02*
X0002088261Y0001803069D01*
X0001258261Y0001443069D02*
X0001258261Y0001803069D01*
G04 next file*
G04 #@! TF.FileFunction,Legend,Bot*
G04 Gerber Fmt 4.6, Leading zero omitted, Abs format (unit mm)*
G04 Created by KiCad (PCBNEW 4.0.7) date 06/29/18 14:26:30*
G01*
G04 APERTURE LIST*
G04 APERTURE END LIST*
D44*
D45*
X0003166441Y0001975258D02*
X0003161520Y0002014628D01*
X0003163395Y0001999630D02*
X0003158661Y0002001505D01*
X0003149662Y0002001505D01*
X0003145397Y0001999630D01*
X0003143382Y0001997755D01*
X0003141601Y0001994006D01*
X0003143007Y0001982757D01*
X0003145725Y0001979008D01*
X0003148209Y0001977133D01*
X0003152943Y0001975258D01*
X0003161942Y0001975258D01*
X0003166207Y0001977133D01*
X0003123697Y0001975258D02*
X0003120416Y0002001505D01*
X0003118775Y0002014628D02*
X0003121259Y0002012754D01*
X0003119244Y0002010879D01*
X0003116760Y0002012754D01*
X0003118775Y0002014628D01*
X0003119244Y0002010879D01*
X0003104668Y0002001505D02*
X0003086670Y0002001505D01*
X0003096278Y0002014628D02*
X0003100496Y0001980883D01*
X0003098715Y0001977133D01*
X0003094450Y0001975258D01*
X0003089951Y0001975258D01*
X0003073734Y0001979008D02*
X0003071719Y0001977133D01*
X0003074203Y0001975258D01*
X0003076218Y0001977133D01*
X0003073734Y0001979008D01*
X0003074203Y0001975258D01*
X0003044956Y0001975258D02*
X0003049221Y0001977133D01*
X0003051002Y0001980883D01*
X0003046784Y0002014628D01*
X0003028177Y0002001505D02*
X0003020210Y0001975258D01*
X0003005680Y0002001505D02*
X0003020210Y0001975258D01*
X0003025881Y0001965884D01*
X0003028365Y0001964010D01*
X0003033098Y0001962135D01*
X0002952062Y0002016503D02*
X0002998884Y0001965884D01*
X0002943485Y0001977133D02*
X0002936970Y0001975258D01*
X0002925721Y0001975258D01*
X0002920987Y0001977133D01*
X0002918503Y0001979008D01*
X0002915785Y0001982757D01*
X0002915316Y0001986507D01*
X0002917097Y0001990256D01*
X0002919113Y0001992131D01*
X0002923378Y0001994006D01*
X0002932142Y0001995881D01*
X0002936407Y0001997755D01*
X0002938423Y0001999630D01*
X0002940204Y0002003380D01*
X0002939735Y0002007129D01*
X0002937017Y0002010879D01*
X0002934533Y0002012754D01*
X0002929799Y0002014628D01*
X0002918550Y0002014628D01*
X0002912035Y0002012754D01*
X0002896475Y0001975258D02*
X0002891554Y0002014628D01*
X0002879321Y0001986507D01*
X0002860058Y0002014628D01*
X0002864979Y0001975258D01*
X0002842482Y0001975258D02*
X0002837560Y0002014628D01*
X0002826312Y0002014628D01*
X0002819797Y0002012754D01*
X0002815766Y0002009004D01*
X0002813985Y0002005255D01*
X0002812673Y0001997755D01*
X0002813376Y0001992131D01*
X0002816563Y0001984632D01*
X0002819281Y0001980883D01*
X0002824250Y0001977133D01*
X0002831233Y0001975258D01*
X0002842482Y0001975258D01*
X0002767772Y0001979008D02*
X0002770256Y0001977133D01*
X0002777240Y0001975258D01*
X0002781739Y0001975258D01*
X0002788254Y0001977133D01*
X0002792285Y0001980883D01*
X0002794066Y0001984632D01*
X0002795378Y0001992131D01*
X0002794675Y0001997755D01*
X0002791488Y0002005255D01*
X0002788770Y0002009004D01*
X0002783802Y0002012754D01*
X0002776818Y0002014628D01*
X0002772319Y0002014628D01*
X0002765804Y0002012754D01*
X0002763788Y0002010879D01*
X0002747994Y0001975258D02*
X0002743072Y0002014628D01*
X0002727746Y0001975258D02*
X0002725168Y0001995881D01*
X0002726949Y0001999630D01*
X0002731214Y0002001505D01*
X0002737963Y0002001505D01*
X0002742697Y0001999630D01*
X0002745181Y0001997755D01*
X0002685001Y0001975258D02*
X0002682424Y0001995881D01*
X0002684205Y0001999630D01*
X0002688470Y0002001505D01*
X0002697469Y0002001505D01*
X0002702202Y0001999630D01*
X0002684767Y0001977133D02*
X0002689501Y0001975258D01*
X0002700749Y0001975258D01*
X0002705015Y0001977133D01*
X0002706796Y0001980883D01*
X0002706327Y0001984632D01*
X0002703608Y0001988382D01*
X0002698875Y0001990256D01*
X0002687626Y0001990256D01*
X0002682892Y0001992131D01*
X0002655755Y0001975258D02*
X0002660020Y0001977133D01*
X0002661801Y0001980883D01*
X0002657583Y0002014628D01*
X0002631008Y0001975258D02*
X0002635273Y0001977133D01*
X0002637054Y0001980883D01*
X0002632836Y0002014628D01*
X0002594778Y0001977133D02*
X0002599512Y0001975258D01*
X0002608511Y0001975258D01*
X0002612776Y0001977133D01*
X0002614557Y0001980883D01*
X0002612682Y0001995881D01*
X0002609964Y0001999630D01*
X0002605230Y0002001505D01*
X0002596231Y0002001505D01*
X0002591966Y0001999630D01*
X0002590185Y0001995881D01*
X0002590654Y0001992131D01*
X0002613620Y0001988382D01*
X0002569235Y0002001505D02*
X0002572516Y0001975258D01*
X0002569703Y0001997755D02*
X0002567219Y0001999630D01*
X0002562485Y0002001505D01*
X0002555736Y0002001505D01*
X0002551471Y0001999630D01*
X0002549690Y0001995881D01*
X0002552268Y0001975258D01*
X0002506243Y0002001505D02*
X0002510226Y0001969634D01*
X0002512945Y0001965884D01*
X0002515429Y0001964010D01*
X0002520163Y0001962135D01*
X0002526912Y0001962135D01*
X0002531177Y0001964010D01*
X0002509289Y0001977133D02*
X0002514023Y0001975258D01*
X0002523022Y0001975258D01*
X0002527287Y0001977133D01*
X0002529302Y0001979008D01*
X0002531083Y0001982757D01*
X0002529677Y0001994006D01*
X0002526959Y0001997755D01*
X0002524475Y0001999630D01*
X0002519741Y0002001505D01*
X0002510742Y0002001505D01*
X0002506477Y0001999630D01*
X0002468794Y0001977133D02*
X0002473528Y0001975258D01*
X0002482527Y0001975258D01*
X0002486792Y0001977133D01*
X0002488573Y0001980883D01*
X0002486698Y0001995881D01*
X0002483980Y0001999630D01*
X0002479246Y0002001505D01*
X0002470247Y0002001505D01*
X0002465982Y0001999630D01*
X0002464201Y0001995881D01*
X0002464670Y0001992131D01*
X0002487636Y0001988382D01*
D46*
X0002953751Y0001206977D02*
X0002956563Y0001204165D01*
X0002965000Y0001201353D01*
X0002970624Y0001201353D01*
X0002979060Y0001204165D01*
X0002984685Y0001209790D01*
X0002987497Y0001215414D01*
X0002990309Y0001226662D01*
X0002990309Y0001235099D01*
X0002987497Y0001246347D01*
X0002984685Y0001251972D01*
X0002979060Y0001257596D01*
X0002970624Y0001260408D01*
X0002965000Y0001260408D01*
X0002956563Y0001257596D01*
X0002953751Y0001254784D01*
X0002894696Y0001201353D02*
X0002914381Y0001229475D01*
X0002928442Y0001201353D02*
X0002928442Y0001260408D01*
X0002905944Y0001260408D01*
X0002900320Y0001257596D01*
X0002897508Y0001254784D01*
X0002894696Y0001249160D01*
X0002894696Y0001240723D01*
X0002897508Y0001235099D01*
X0002900320Y0001232287D01*
X0002905944Y0001229475D01*
X0002928442Y0001229475D01*
X0002872199Y0001254784D02*
X0002869386Y0001257596D01*
X0002863762Y0001260408D01*
X0002849701Y0001260408D01*
X0002844077Y0001257596D01*
X0002841265Y0001254784D01*
X0002838453Y0001249160D01*
X0002838453Y0001243535D01*
X0002841265Y0001235099D01*
X0002875011Y0001201353D01*
X0002838453Y0001201353D01*
X0002801895Y0001260408D02*
X0002796271Y0001260408D01*
X0002790646Y0001257596D01*
X0002787834Y0001254784D01*
X0002785022Y0001249160D01*
X0002782210Y0001237911D01*
X0002782210Y0001223850D01*
X0002785022Y0001212602D01*
X0002787834Y0001206977D01*
X0002790646Y0001204165D01*
X0002796271Y0001201353D01*
X0002801895Y0001201353D01*
X0002807519Y0001204165D01*
X0002810331Y0001206977D01*
X0002813144Y0001212602D01*
X0002815956Y0001223850D01*
X0002815956Y0001237911D01*
X0002813144Y0001249160D01*
X0002810331Y0001254784D01*
X0002807519Y0001257596D01*
X0002801895Y0001260408D01*
X0002762525Y0001260408D02*
X0002725967Y0001260408D01*
X0002745652Y0001237911D01*
X0002737216Y0001237911D01*
X0002731591Y0001235099D01*
X0002728779Y0001232287D01*
X0002725967Y0001226662D01*
X0002725967Y0001212602D01*
X0002728779Y0001206977D01*
X0002731591Y0001204165D01*
X0002737216Y0001201353D01*
X0002754088Y0001201353D01*
X0002759713Y0001204165D01*
X0002762525Y0001206977D01*
X0002703470Y0001254784D02*
X0002700658Y0001257596D01*
X0002695033Y0001260408D01*
X0002680973Y0001260408D01*
X0002675348Y0001257596D01*
X0002672536Y0001254784D01*
X0002669724Y0001249160D01*
X0002669724Y0001243535D01*
X0002672536Y0001235099D01*
X0002706282Y0001201353D01*
X0002669724Y0001201353D01*
D47*
X0003097516Y0001365569D02*
X0003230016Y0001443069D01*
X0002532516Y0001360569D02*
X0002400016Y0001443069D01*
X0003098516Y0001365569D02*
G75*
G02X0002953516Y0001370569I-0000070000J0000075000D01*
G01*
X0002677016Y0001365569D02*
G75*
G02X0002532016Y0001360569I-0000075000J0000070000D01*
G01*
X0002675016Y0001365569D02*
G75*
G02X0002955016Y0001370569I0000142500J-0000137500D01*
G01*
X0002515016Y0001933069D02*
X0002400016Y0001800569D01*
X0003230016Y0001803069D02*
X0003112516Y0001935569D01*
X0003115016Y0001933069D02*
X0002515016Y0001933069D01*
X0003230016Y0001443069D02*
X0003230016Y0001803069D01*
X0002400016Y0001443069D02*
X0002400016Y0001803069D01*
G04 next file*
G04 #@! TF.FileFunction,Legend,Bot*
G04 Gerber Fmt 4.6, Leading zero omitted, Abs format (unit mm)*
G04 Created by KiCad (PCBNEW 4.0.7) date 06/29/18 14:26:30*
G01*
G04 APERTURE LIST*
G04 APERTURE END LIST*
D48*
D49*
X0002024686Y0003116885D02*
X0002019765Y0003156255D01*
X0002021640Y0003141257D02*
X0002016906Y0003143132D01*
X0002007907Y0003143132D01*
X0002003642Y0003141257D01*
X0002001626Y0003139382D01*
X0001999845Y0003135632D01*
X0002001252Y0003124384D01*
X0002003970Y0003120634D01*
X0002006454Y0003118760D01*
X0002011188Y0003116885D01*
X0002020187Y0003116885D01*
X0002024452Y0003118760D01*
X0001981941Y0003116885D02*
X0001978661Y0003143132D01*
X0001977020Y0003156255D02*
X0001979504Y0003154380D01*
X0001977489Y0003152505D01*
X0001975005Y0003154380D01*
X0001977020Y0003156255D01*
X0001977489Y0003152505D01*
X0001962913Y0003143132D02*
X0001944915Y0003143132D01*
X0001954523Y0003156255D02*
X0001958741Y0003122509D01*
X0001956960Y0003118760D01*
X0001952695Y0003116885D01*
X0001948196Y0003116885D01*
X0001931979Y0003120634D02*
X0001929964Y0003118760D01*
X0001932448Y0003116885D01*
X0001934463Y0003118760D01*
X0001931979Y0003120634D01*
X0001932448Y0003116885D01*
X0001903201Y0003116885D02*
X0001907466Y0003118760D01*
X0001909247Y0003122509D01*
X0001905029Y0003156255D01*
X0001886422Y0003143132D02*
X0001878454Y0003116885D01*
X0001863925Y0003143132D02*
X0001878454Y0003116885D01*
X0001884126Y0003107511D01*
X0001886610Y0003105636D01*
X0001891343Y0003103761D01*
X0001810307Y0003158130D02*
X0001857129Y0003107511D01*
X0001801730Y0003118760D02*
X0001795215Y0003116885D01*
X0001783966Y0003116885D01*
X0001779232Y0003118760D01*
X0001776748Y0003120634D01*
X0001774030Y0003124384D01*
X0001773561Y0003128133D01*
X0001775342Y0003131883D01*
X0001777358Y0003133758D01*
X0001781623Y0003135632D01*
X0001790387Y0003137507D01*
X0001794652Y0003139382D01*
X0001796668Y0003141257D01*
X0001798449Y0003145006D01*
X0001797980Y0003148756D01*
X0001795262Y0003152505D01*
X0001792778Y0003154380D01*
X0001788044Y0003156255D01*
X0001776795Y0003156255D01*
X0001770280Y0003154380D01*
X0001754720Y0003116885D02*
X0001749799Y0003156255D01*
X0001737566Y0003128133D01*
X0001718303Y0003156255D01*
X0001723224Y0003116885D01*
X0001700727Y0003116885D02*
X0001695805Y0003156255D01*
X0001684557Y0003156255D01*
X0001678042Y0003154380D01*
X0001674011Y0003150631D01*
X0001672230Y0003146881D01*
X0001670918Y0003139382D01*
X0001671621Y0003133758D01*
X0001674808Y0003126259D01*
X0001677526Y0003122509D01*
X0001682494Y0003118760D01*
X0001689478Y0003116885D01*
X0001700727Y0003116885D01*
X0001626017Y0003120634D02*
X0001628501Y0003118760D01*
X0001635485Y0003116885D01*
X0001639984Y0003116885D01*
X0001646499Y0003118760D01*
X0001650530Y0003122509D01*
X0001652311Y0003126259D01*
X0001653623Y0003133758D01*
X0001652920Y0003139382D01*
X0001649733Y0003146881D01*
X0001647015Y0003150631D01*
X0001642046Y0003154380D01*
X0001635063Y0003156255D01*
X0001630563Y0003156255D01*
X0001624049Y0003154380D01*
X0001622033Y0003152505D01*
X0001606238Y0003116885D02*
X0001601317Y0003156255D01*
X0001585991Y0003116885D02*
X0001583413Y0003137507D01*
X0001585194Y0003141257D01*
X0001589459Y0003143132D01*
X0001596208Y0003143132D01*
X0001600942Y0003141257D01*
X0001603426Y0003139382D01*
X0001543246Y0003116885D02*
X0001540668Y0003137507D01*
X0001542450Y0003141257D01*
X0001546715Y0003143132D01*
X0001555713Y0003143132D01*
X0001560447Y0003141257D01*
X0001543012Y0003118760D02*
X0001547746Y0003116885D01*
X0001558994Y0003116885D01*
X0001563259Y0003118760D01*
X0001565040Y0003122509D01*
X0001564572Y0003126259D01*
X0001561853Y0003130008D01*
X0001557120Y0003131883D01*
X0001545871Y0003131883D01*
X0001541137Y0003133758D01*
X0001514000Y0003116885D02*
X0001518265Y0003118760D01*
X0001520046Y0003122509D01*
X0001515828Y0003156255D01*
X0001489253Y0003116885D02*
X0001493518Y0003118760D01*
X0001495299Y0003122509D01*
X0001491081Y0003156255D01*
X0001453023Y0003118760D02*
X0001457757Y0003116885D01*
X0001466756Y0003116885D01*
X0001471021Y0003118760D01*
X0001472802Y0003122509D01*
X0001470927Y0003137507D01*
X0001468209Y0003141257D01*
X0001463475Y0003143132D01*
X0001454476Y0003143132D01*
X0001450211Y0003141257D01*
X0001448430Y0003137507D01*
X0001448899Y0003133758D01*
X0001471865Y0003130008D01*
X0001427480Y0003143132D02*
X0001430760Y0003116885D01*
X0001427948Y0003139382D02*
X0001425464Y0003141257D01*
X0001420730Y0003143132D01*
X0001413981Y0003143132D01*
X0001409716Y0003141257D01*
X0001407935Y0003137507D01*
X0001410513Y0003116885D01*
X0001364487Y0003143132D02*
X0001368471Y0003111260D01*
X0001371190Y0003107511D01*
X0001373674Y0003105636D01*
X0001378408Y0003103761D01*
X0001385157Y0003103761D01*
X0001389422Y0003105636D01*
X0001367534Y0003118760D02*
X0001372268Y0003116885D01*
X0001381267Y0003116885D01*
X0001385532Y0003118760D01*
X0001387547Y0003120634D01*
X0001389328Y0003124384D01*
X0001387922Y0003135632D01*
X0001385204Y0003139382D01*
X0001382720Y0003141257D01*
X0001377986Y0003143132D01*
X0001368987Y0003143132D01*
X0001364722Y0003141257D01*
X0001327039Y0003118760D02*
X0001331773Y0003116885D01*
X0001340772Y0003116885D01*
X0001345037Y0003118760D01*
X0001346818Y0003122509D01*
X0001344943Y0003137507D01*
X0001342225Y0003141257D01*
X0001337491Y0003143132D01*
X0001328492Y0003143132D01*
X0001324227Y0003141257D01*
X0001322446Y0003137507D01*
X0001322915Y0003133758D01*
X0001345880Y0003130008D01*
D50*
X0001811996Y0002348604D02*
X0001814808Y0002345792D01*
X0001823244Y0002342980D01*
X0001828869Y0002342980D01*
X0001837305Y0002345792D01*
X0001842929Y0002351416D01*
X0001845742Y0002357040D01*
X0001848554Y0002368289D01*
X0001848554Y0002376725D01*
X0001845742Y0002387974D01*
X0001842929Y0002393598D01*
X0001837305Y0002399223D01*
X0001828869Y0002402035D01*
X0001823244Y0002402035D01*
X0001814808Y0002399223D01*
X0001811996Y0002396410D01*
X0001752941Y0002342980D02*
X0001772626Y0002371101D01*
X0001786686Y0002342980D02*
X0001786686Y0002402035D01*
X0001764189Y0002402035D01*
X0001758565Y0002399223D01*
X0001755753Y0002396410D01*
X0001752941Y0002390786D01*
X0001752941Y0002382350D01*
X0001755753Y0002376725D01*
X0001758565Y0002373913D01*
X0001764189Y0002371101D01*
X0001786686Y0002371101D01*
X0001730444Y0002396410D02*
X0001727631Y0002399223D01*
X0001722007Y0002402035D01*
X0001707946Y0002402035D01*
X0001702322Y0002399223D01*
X0001699510Y0002396410D01*
X0001696698Y0002390786D01*
X0001696698Y0002385162D01*
X0001699510Y0002376725D01*
X0001733256Y0002342980D01*
X0001696698Y0002342980D01*
X0001660140Y0002402035D02*
X0001654516Y0002402035D01*
X0001648891Y0002399223D01*
X0001646079Y0002396410D01*
X0001643267Y0002390786D01*
X0001640455Y0002379538D01*
X0001640455Y0002365477D01*
X0001643267Y0002354228D01*
X0001646079Y0002348604D01*
X0001648891Y0002345792D01*
X0001654516Y0002342980D01*
X0001660140Y0002342980D01*
X0001665764Y0002345792D01*
X0001668576Y0002348604D01*
X0001671388Y0002354228D01*
X0001674201Y0002365477D01*
X0001674201Y0002379538D01*
X0001671388Y0002390786D01*
X0001668576Y0002396410D01*
X0001665764Y0002399223D01*
X0001660140Y0002402035D01*
X0001620770Y0002402035D02*
X0001584212Y0002402035D01*
X0001603897Y0002379538D01*
X0001595460Y0002379538D01*
X0001589836Y0002376725D01*
X0001587024Y0002373913D01*
X0001584212Y0002368289D01*
X0001584212Y0002354228D01*
X0001587024Y0002348604D01*
X0001589836Y0002345792D01*
X0001595460Y0002342980D01*
X0001612333Y0002342980D01*
X0001617958Y0002345792D01*
X0001620770Y0002348604D01*
X0001561715Y0002396410D02*
X0001558902Y0002399223D01*
X0001553278Y0002402035D01*
X0001539217Y0002402035D01*
X0001533593Y0002399223D01*
X0001530781Y0002396410D01*
X0001527969Y0002390786D01*
X0001527969Y0002385162D01*
X0001530781Y0002376725D01*
X0001564527Y0002342980D01*
X0001527969Y0002342980D01*
D51*
X0001955761Y0002507195D02*
X0002088261Y0002584695D01*
X0001390761Y0002502195D02*
X0001258261Y0002584695D01*
X0001956761Y0002507195D02*
G75*
G02X0001811761Y0002512195I-0000070000J0000075000D01*
G01*
X0001535261Y0002507195D02*
G75*
G02X0001390261Y0002502195I-0000075000J0000070000D01*
G01*
X0001533261Y0002507195D02*
G75*
G02X0001813261Y0002512195I0000142500J-0000137500D01*
G01*
X0001373261Y0003074695D02*
X0001258261Y0002942195D01*
X0002088261Y0002944695D02*
X0001970761Y0003077195D01*
X0001973261Y0003074695D02*
X0001373261Y0003074695D01*
X0002088261Y0002584695D02*
X0002088261Y0002944695D01*
X0001258261Y0002584695D02*
X0001258261Y0002944695D01*
G04 next file*
G04 #@! TF.FileFunction,Legend,Bot*
G04 Gerber Fmt 4.6, Leading zero omitted, Abs format (unit mm)*
G04 Created by KiCad (PCBNEW 4.0.7) date 06/29/18 14:26:30*
G01*
G04 APERTURE LIST*
G04 APERTURE END LIST*
D52*
D53*
X0003166441Y0003116885D02*
X0003161520Y0003156255D01*
X0003163395Y0003141257D02*
X0003158661Y0003143132D01*
X0003149662Y0003143132D01*
X0003145397Y0003141257D01*
X0003143382Y0003139382D01*
X0003141601Y0003135632D01*
X0003143007Y0003124384D01*
X0003145725Y0003120634D01*
X0003148209Y0003118760D01*
X0003152943Y0003116885D01*
X0003161942Y0003116885D01*
X0003166207Y0003118760D01*
X0003123697Y0003116885D02*
X0003120416Y0003143132D01*
X0003118775Y0003156255D02*
X0003121259Y0003154380D01*
X0003119244Y0003152505D01*
X0003116760Y0003154380D01*
X0003118775Y0003156255D01*
X0003119244Y0003152505D01*
X0003104668Y0003143132D02*
X0003086670Y0003143132D01*
X0003096278Y0003156255D02*
X0003100496Y0003122509D01*
X0003098715Y0003118760D01*
X0003094450Y0003116885D01*
X0003089951Y0003116885D01*
X0003073734Y0003120634D02*
X0003071719Y0003118760D01*
X0003074203Y0003116885D01*
X0003076218Y0003118760D01*
X0003073734Y0003120634D01*
X0003074203Y0003116885D01*
X0003044956Y0003116885D02*
X0003049221Y0003118760D01*
X0003051002Y0003122509D01*
X0003046784Y0003156255D01*
X0003028177Y0003143132D02*
X0003020210Y0003116885D01*
X0003005680Y0003143132D02*
X0003020210Y0003116885D01*
X0003025881Y0003107511D01*
X0003028365Y0003105636D01*
X0003033098Y0003103761D01*
X0002952062Y0003158130D02*
X0002998884Y0003107511D01*
X0002943485Y0003118760D02*
X0002936970Y0003116885D01*
X0002925721Y0003116885D01*
X0002920987Y0003118760D01*
X0002918503Y0003120634D01*
X0002915785Y0003124384D01*
X0002915316Y0003128133D01*
X0002917097Y0003131883D01*
X0002919113Y0003133758D01*
X0002923378Y0003135632D01*
X0002932142Y0003137507D01*
X0002936407Y0003139382D01*
X0002938423Y0003141257D01*
X0002940204Y0003145006D01*
X0002939735Y0003148756D01*
X0002937017Y0003152505D01*
X0002934533Y0003154380D01*
X0002929799Y0003156255D01*
X0002918550Y0003156255D01*
X0002912035Y0003154380D01*
X0002896475Y0003116885D02*
X0002891554Y0003156255D01*
X0002879321Y0003128133D01*
X0002860058Y0003156255D01*
X0002864979Y0003116885D01*
X0002842482Y0003116885D02*
X0002837560Y0003156255D01*
X0002826312Y0003156255D01*
X0002819797Y0003154380D01*
X0002815766Y0003150631D01*
X0002813985Y0003146881D01*
X0002812673Y0003139382D01*
X0002813376Y0003133758D01*
X0002816563Y0003126259D01*
X0002819281Y0003122509D01*
X0002824250Y0003118760D01*
X0002831233Y0003116885D01*
X0002842482Y0003116885D01*
X0002767772Y0003120634D02*
X0002770256Y0003118760D01*
X0002777240Y0003116885D01*
X0002781739Y0003116885D01*
X0002788254Y0003118760D01*
X0002792285Y0003122509D01*
X0002794066Y0003126259D01*
X0002795378Y0003133758D01*
X0002794675Y0003139382D01*
X0002791488Y0003146881D01*
X0002788770Y0003150631D01*
X0002783802Y0003154380D01*
X0002776818Y0003156255D01*
X0002772319Y0003156255D01*
X0002765804Y0003154380D01*
X0002763788Y0003152505D01*
X0002747994Y0003116885D02*
X0002743072Y0003156255D01*
X0002727746Y0003116885D02*
X0002725168Y0003137507D01*
X0002726949Y0003141257D01*
X0002731214Y0003143132D01*
X0002737963Y0003143132D01*
X0002742697Y0003141257D01*
X0002745181Y0003139382D01*
X0002685001Y0003116885D02*
X0002682424Y0003137507D01*
X0002684205Y0003141257D01*
X0002688470Y0003143132D01*
X0002697469Y0003143132D01*
X0002702202Y0003141257D01*
X0002684767Y0003118760D02*
X0002689501Y0003116885D01*
X0002700749Y0003116885D01*
X0002705015Y0003118760D01*
X0002706796Y0003122509D01*
X0002706327Y0003126259D01*
X0002703608Y0003130008D01*
X0002698875Y0003131883D01*
X0002687626Y0003131883D01*
X0002682892Y0003133758D01*
X0002655755Y0003116885D02*
X0002660020Y0003118760D01*
X0002661801Y0003122509D01*
X0002657583Y0003156255D01*
X0002631008Y0003116885D02*
X0002635273Y0003118760D01*
X0002637054Y0003122509D01*
X0002632836Y0003156255D01*
X0002594778Y0003118760D02*
X0002599512Y0003116885D01*
X0002608511Y0003116885D01*
X0002612776Y0003118760D01*
X0002614557Y0003122509D01*
X0002612682Y0003137507D01*
X0002609964Y0003141257D01*
X0002605230Y0003143132D01*
X0002596231Y0003143132D01*
X0002591966Y0003141257D01*
X0002590185Y0003137507D01*
X0002590654Y0003133758D01*
X0002613620Y0003130008D01*
X0002569235Y0003143132D02*
X0002572516Y0003116885D01*
X0002569703Y0003139382D02*
X0002567219Y0003141257D01*
X0002562485Y0003143132D01*
X0002555736Y0003143132D01*
X0002551471Y0003141257D01*
X0002549690Y0003137507D01*
X0002552268Y0003116885D01*
X0002506243Y0003143132D02*
X0002510226Y0003111260D01*
X0002512945Y0003107511D01*
X0002515429Y0003105636D01*
X0002520163Y0003103761D01*
X0002526912Y0003103761D01*
X0002531177Y0003105636D01*
X0002509289Y0003118760D02*
X0002514023Y0003116885D01*
X0002523022Y0003116885D01*
X0002527287Y0003118760D01*
X0002529302Y0003120634D01*
X0002531083Y0003124384D01*
X0002529677Y0003135632D01*
X0002526959Y0003139382D01*
X0002524475Y0003141257D01*
X0002519741Y0003143132D01*
X0002510742Y0003143132D01*
X0002506477Y0003141257D01*
X0002468794Y0003118760D02*
X0002473528Y0003116885D01*
X0002482527Y0003116885D01*
X0002486792Y0003118760D01*
X0002488573Y0003122509D01*
X0002486698Y0003137507D01*
X0002483980Y0003141257D01*
X0002479246Y0003143132D01*
X0002470247Y0003143132D01*
X0002465982Y0003141257D01*
X0002464201Y0003137507D01*
X0002464670Y0003133758D01*
X0002487636Y0003130008D01*
D54*
X0002953751Y0002348604D02*
X0002956563Y0002345792D01*
X0002965000Y0002342980D01*
X0002970624Y0002342980D01*
X0002979060Y0002345792D01*
X0002984685Y0002351416D01*
X0002987497Y0002357040D01*
X0002990309Y0002368289D01*
X0002990309Y0002376725D01*
X0002987497Y0002387974D01*
X0002984685Y0002393598D01*
X0002979060Y0002399223D01*
X0002970624Y0002402035D01*
X0002965000Y0002402035D01*
X0002956563Y0002399223D01*
X0002953751Y0002396410D01*
X0002894696Y0002342980D02*
X0002914381Y0002371101D01*
X0002928442Y0002342980D02*
X0002928442Y0002402035D01*
X0002905944Y0002402035D01*
X0002900320Y0002399223D01*
X0002897508Y0002396410D01*
X0002894696Y0002390786D01*
X0002894696Y0002382350D01*
X0002897508Y0002376725D01*
X0002900320Y0002373913D01*
X0002905944Y0002371101D01*
X0002928442Y0002371101D01*
X0002872199Y0002396410D02*
X0002869386Y0002399223D01*
X0002863762Y0002402035D01*
X0002849701Y0002402035D01*
X0002844077Y0002399223D01*
X0002841265Y0002396410D01*
X0002838453Y0002390786D01*
X0002838453Y0002385162D01*
X0002841265Y0002376725D01*
X0002875011Y0002342980D01*
X0002838453Y0002342980D01*
X0002801895Y0002402035D02*
X0002796271Y0002402035D01*
X0002790646Y0002399223D01*
X0002787834Y0002396410D01*
X0002785022Y0002390786D01*
X0002782210Y0002379538D01*
X0002782210Y0002365477D01*
X0002785022Y0002354228D01*
X0002787834Y0002348604D01*
X0002790646Y0002345792D01*
X0002796271Y0002342980D01*
X0002801895Y0002342980D01*
X0002807519Y0002345792D01*
X0002810331Y0002348604D01*
X0002813144Y0002354228D01*
X0002815956Y0002365477D01*
X0002815956Y0002379538D01*
X0002813144Y0002390786D01*
X0002810331Y0002396410D01*
X0002807519Y0002399223D01*
X0002801895Y0002402035D01*
X0002762525Y0002402035D02*
X0002725967Y0002402035D01*
X0002745652Y0002379538D01*
X0002737216Y0002379538D01*
X0002731591Y0002376725D01*
X0002728779Y0002373913D01*
X0002725967Y0002368289D01*
X0002725967Y0002354228D01*
X0002728779Y0002348604D01*
X0002731591Y0002345792D01*
X0002737216Y0002342980D01*
X0002754088Y0002342980D01*
X0002759713Y0002345792D01*
X0002762525Y0002348604D01*
X0002703470Y0002396410D02*
X0002700658Y0002399223D01*
X0002695033Y0002402035D01*
X0002680973Y0002402035D01*
X0002675348Y0002399223D01*
X0002672536Y0002396410D01*
X0002669724Y0002390786D01*
X0002669724Y0002385162D01*
X0002672536Y0002376725D01*
X0002706282Y0002342980D01*
X0002669724Y0002342980D01*
D55*
X0003097516Y0002507195D02*
X0003230016Y0002584695D01*
X0002532516Y0002502195D02*
X0002400016Y0002584695D01*
X0003098516Y0002507195D02*
G75*
G02X0002953516Y0002512195I-0000070000J0000075000D01*
G01*
X0002677016Y0002507195D02*
G75*
G02X0002532016Y0002502195I-0000075000J0000070000D01*
G01*
X0002675016Y0002507195D02*
G75*
G02X0002955016Y0002512195I0000142500J-0000137500D01*
G01*
X0002515016Y0003074695D02*
X0002400016Y0002942195D01*
X0003230016Y0002944695D02*
X0003112516Y0003077195D01*
X0003115016Y0003074695D02*
X0002515016Y0003074695D01*
X0003230016Y0002584695D02*
X0003230016Y0002944695D01*
X0002400016Y0002584695D02*
X0002400016Y0002944695D01*
M02*