%MOIN*%
%OFA0B0*%
%FSLAX46Y46*%
%IPPOS*%
%LPD*%
%ADD10C,0.0039370078740157488*%
%ADD11C,0.15748031496062992*%
%ADD12R,0.015748031496062995X0.015748031496062995*%
%ADD13R,0.027559055118110236X0.023622047244094488*%
%ADD14O,0.062992125984251982X0.062992125984251982*%
%ADD15R,0.062992125984251982X0.062992125984251982*%
%ADD16R,0.066929133858267723X0.0709*%
%ADD17R,0.051181102362204731X0.0472*%
%ADD18R,0.03937007874015748X0.031400000000000004*%
%ADD19R,0.025590551181102365X0.066929133858267723*%
%ADD20O,0.02X0.030000000000000002*%
%ADD21R,0.043307086614173235X0.066929133858267723*%
%ADD22R,0.035433070866141732X0.051181102362204731*%
%ADD23R,0.027559055118110236X0.035433070866141732*%
%ADD24R,0.023622047244094488X0.023622047244094488*%
%ADD25R,0.017716535433070866X0.016929133858267716*%
%ADD36C,0.0039370078740157488*%
%ADD37C,0.15748031496062992*%
%ADD38R,0.015748031496062995X0.015748031496062995*%
%ADD39R,0.027559055118110236X0.023622047244094488*%
%ADD40O,0.062992125984251982X0.062992125984251982*%
%ADD41R,0.062992125984251982X0.062992125984251982*%
%ADD42R,0.066929133858267723X0.0709*%
%ADD43R,0.051181102362204731X0.0472*%
%ADD44R,0.03937007874015748X0.031400000000000004*%
%ADD45R,0.025590551181102365X0.066929133858267723*%
%ADD46O,0.02X0.030000000000000002*%
%ADD47R,0.043307086614173235X0.066929133858267723*%
%ADD48R,0.035433070866141732X0.051181102362204731*%
%ADD49R,0.027559055118110236X0.035433070866141732*%
%ADD50R,0.023622047244094488X0.023622047244094488*%
%ADD51R,0.017716535433070866X0.016929133858267716*%
%ADD52C,0.0039370078740157488*%
%ADD53C,0.15748031496062992*%
%ADD54R,0.015748031496062995X0.015748031496062995*%
%ADD55R,0.027559055118110236X0.023622047244094488*%
%ADD56O,0.062992125984251982X0.062992125984251982*%
%ADD57R,0.062992125984251982X0.062992125984251982*%
%ADD58R,0.066929133858267723X0.0709*%
%ADD59R,0.051181102362204731X0.0472*%
%ADD60R,0.03937007874015748X0.031400000000000004*%
%ADD61R,0.025590551181102365X0.066929133858267723*%
%ADD62O,0.02X0.030000000000000002*%
%ADD63R,0.043307086614173235X0.066929133858267723*%
%ADD64R,0.035433070866141732X0.051181102362204731*%
%ADD65R,0.027559055118110236X0.035433070866141732*%
%ADD66R,0.023622047244094488X0.023622047244094488*%
%ADD67R,0.017716535433070866X0.016929133858267716*%
%ADD68C,0.0039370078740157488*%
%ADD69C,0.15748031496062992*%
%ADD70R,0.015748031496062995X0.015748031496062995*%
%ADD71R,0.027559055118110236X0.023622047244094488*%
%ADD72O,0.062992125984251982X0.062992125984251982*%
%ADD73R,0.062992125984251982X0.062992125984251982*%
%ADD74R,0.066929133858267723X0.0709*%
%ADD75R,0.051181102362204731X0.0472*%
%ADD76R,0.03937007874015748X0.031400000000000004*%
%ADD77R,0.025590551181102365X0.066929133858267723*%
%ADD78O,0.02X0.030000000000000002*%
%ADD79R,0.043307086614173235X0.066929133858267723*%
%ADD80R,0.035433070866141732X0.051181102362204731*%
%ADD81R,0.027559055118110236X0.035433070866141732*%
%ADD82R,0.023622047244094488X0.023622047244094488*%
%ADD83R,0.017716535433070866X0.016929133858267716*%
%ADD84C,0.0039370078740157488*%
%ADD85C,0.15748031496062992*%
%ADD86R,0.015748031496062995X0.015748031496062995*%
%ADD87R,0.027559055118110236X0.023622047244094488*%
%ADD88O,0.062992125984251982X0.062992125984251982*%
%ADD89R,0.062992125984251982X0.062992125984251982*%
%ADD90R,0.066929133858267723X0.0709*%
%ADD91R,0.051181102362204731X0.0472*%
%ADD92R,0.03937007874015748X0.031400000000000004*%
%ADD93R,0.025590551181102365X0.066929133858267723*%
%ADD94O,0.02X0.030000000000000002*%
%ADD95R,0.043307086614173235X0.066929133858267723*%
%ADD96R,0.035433070866141732X0.051181102362204731*%
%ADD97R,0.027559055118110236X0.035433070866141732*%
%ADD98R,0.023622047244094488X0.023622047244094488*%
%ADD99R,0.017716535433070866X0.016929133858267716*%
%ADD100C,0.0039370078740157488*%
%ADD101C,0.15748031496062992*%
%ADD102R,0.015748031496062995X0.015748031496062995*%
%ADD103R,0.027559055118110236X0.023622047244094488*%
%ADD104O,0.062992125984251982X0.062992125984251982*%
%ADD105R,0.062992125984251982X0.062992125984251982*%
%ADD106R,0.066929133858267723X0.0709*%
%ADD107R,0.051181102362204731X0.0472*%
%ADD108R,0.03937007874015748X0.031400000000000004*%
%ADD109R,0.025590551181102365X0.066929133858267723*%
%ADD110O,0.02X0.030000000000000002*%
%ADD111R,0.043307086614173235X0.066929133858267723*%
%ADD112R,0.035433070866141732X0.051181102362204731*%
%ADD113R,0.027559055118110236X0.035433070866141732*%
%ADD114R,0.023622047244094488X0.023622047244094488*%
%ADD115R,0.017716535433070866X0.016929133858267716*%
%ADD116C,0.0039370078740157488*%
%ADD117C,0.15748031496062992*%
%ADD118R,0.015748031496062995X0.015748031496062995*%
%ADD119R,0.027559055118110236X0.023622047244094488*%
%ADD120O,0.062992125984251982X0.062992125984251982*%
%ADD121R,0.062992125984251982X0.062992125984251982*%
%ADD122R,0.066929133858267723X0.0709*%
%ADD123R,0.051181102362204731X0.0472*%
%ADD124R,0.03937007874015748X0.031400000000000004*%
%ADD125R,0.025590551181102365X0.066929133858267723*%
%ADD126O,0.02X0.030000000000000002*%
%ADD127R,0.043307086614173235X0.066929133858267723*%
%ADD128R,0.035433070866141732X0.051181102362204731*%
%ADD129R,0.027559055118110236X0.035433070866141732*%
%ADD130R,0.023622047244094488X0.023622047244094488*%
%ADD131R,0.017716535433070866X0.016929133858267716*%
%ADD132C,0.0039370078740157488*%
%ADD133C,0.15748031496062992*%
%ADD134R,0.015748031496062995X0.015748031496062995*%
%ADD135R,0.027559055118110236X0.023622047244094488*%
%ADD136O,0.062992125984251982X0.062992125984251982*%
%ADD137R,0.062992125984251982X0.062992125984251982*%
%ADD138R,0.066929133858267723X0.0709*%
%ADD139R,0.051181102362204731X0.0472*%
%ADD140R,0.03937007874015748X0.031400000000000004*%
%ADD141R,0.025590551181102365X0.066929133858267723*%
%ADD142O,0.02X0.030000000000000002*%
%ADD143R,0.043307086614173235X0.066929133858267723*%
%ADD144R,0.035433070866141732X0.051181102362204731*%
%ADD145R,0.027559055118110236X0.035433070866141732*%
%ADD146R,0.023622047244094488X0.023622047244094488*%
%ADD147R,0.017716535433070866X0.016929133858267716*%
%ADD148C,0.0039370078740157488*%
%ADD149C,0.15748031496062992*%
%ADD150R,0.015748031496062995X0.015748031496062995*%
%ADD151R,0.027559055118110236X0.023622047244094488*%
%ADD152O,0.062992125984251982X0.062992125984251982*%
%ADD153R,0.062992125984251982X0.062992125984251982*%
%ADD154R,0.066929133858267723X0.0709*%
%ADD155R,0.051181102362204731X0.0472*%
%ADD156R,0.03937007874015748X0.031400000000000004*%
%ADD157R,0.025590551181102365X0.066929133858267723*%
%ADD158O,0.02X0.030000000000000002*%
%ADD159R,0.043307086614173235X0.066929133858267723*%
%ADD160R,0.035433070866141732X0.051181102362204731*%
%ADD161R,0.027559055118110236X0.035433070866141732*%
%ADD162R,0.023622047244094488X0.023622047244094488*%
%ADD163R,0.017716535433070866X0.016929133858267716*%
G01*
D10*
D11*
X-0007643492Y0004156443D02*
X0000531507Y0000956443D03*
D12*
X0000544696Y0000081443D03*
X0000568318Y0000081443D03*
D13*
X0000536822Y0000156443D03*
X0000576192Y0000156443D03*
D10*
G36*
X0000886004Y0000280482D02*
X0000930546Y0000235940D01*
X0000886004Y0000191398D01*
X0000841462Y0000235940D01*
X0000886004Y0000280482D01*
X0000886004Y0000280482D01*
G37*
G36*
X0000787009Y0000181487D02*
X0000831551Y0000136945D01*
X0000787009Y0000092403D01*
X0000742467Y0000136945D01*
X0000787009Y0000181487D01*
X0000787009Y0000181487D01*
G37*
D14*
X0000811507Y0000856443D03*
D15*
X0000811507Y0000756443D03*
D14*
X0000711507Y0000856443D03*
X0000711507Y0000756443D03*
X0000611507Y0000856443D03*
X0000611507Y0000756443D03*
D16*
X0000616507Y0000531443D03*
X0000491507Y0000531443D03*
D17*
X0000601507Y0000381443D03*
X0000506507Y0000381443D03*
D18*
X0000591507Y0000256443D03*
X0000521507Y0000256443D03*
D19*
X0000821507Y0000362742D03*
X0000871507Y0000362742D03*
X0000921507Y0000362742D03*
X0000971507Y0000362742D03*
X0000971507Y0000650143D03*
X0000921507Y0000650143D03*
X0000871507Y0000650143D03*
X0000821507Y0000650143D03*
D20*
X0000706507Y0000531443D03*
X0000686507Y0000381443D03*
X0000671507Y0000256443D03*
X0000656507Y0000156443D03*
X0000646507Y0000081443D03*
X0000161507Y0000531443D03*
X0000179007Y0000381443D03*
X0000226507Y0000256443D03*
X0000299007Y0000156443D03*
X0000394007Y0000081443D03*
D21*
X0000401507Y0000531443D03*
X0000266507Y0000531443D03*
D22*
X0000401507Y0000381443D03*
X0000311507Y0000381443D03*
D23*
X0000416507Y0000256443D03*
X0000341507Y0000256443D03*
D24*
X0000422255Y0000156443D03*
X0000386822Y0000156443D03*
D25*
X0000472255Y0000081443D03*
X0000440759Y0000081443D03*
G04 next file*
G04 #@! TF.FileFunction,Soldermask,Top*
G04 Gerber Fmt 4.6, Leading zero omitted, Abs format (unit mm)*
G04 Created by KiCad (PCBNEW 4.0.7) date 06/29/18 14:26:30*
G01*
G04 APERTURE LIST*
G04 APERTURE END LIST*
D36*
D37*
X-0006501738Y0004156443D02*
X0001673261Y0000956443D03*
D38*
X0001686450Y0000081443D03*
X0001710072Y0000081443D03*
D39*
X0001678576Y0000156443D03*
X0001717946Y0000156443D03*
D36*
G36*
X0002027759Y0000280482D02*
X0002072301Y0000235940D01*
X0002027759Y0000191398D01*
X0001983217Y0000235940D01*
X0002027759Y0000280482D01*
X0002027759Y0000280482D01*
G37*
G36*
X0001928764Y0000181487D02*
X0001973306Y0000136945D01*
X0001928764Y0000092403D01*
X0001884222Y0000136945D01*
X0001928764Y0000181487D01*
X0001928764Y0000181487D01*
G37*
D40*
X0001953261Y0000856443D03*
D41*
X0001953261Y0000756443D03*
D40*
X0001853261Y0000856443D03*
X0001853261Y0000756443D03*
X0001753261Y0000856443D03*
X0001753261Y0000756443D03*
D42*
X0001758261Y0000531443D03*
X0001633261Y0000531443D03*
D43*
X0001743261Y0000381443D03*
X0001648261Y0000381443D03*
D44*
X0001733261Y0000256443D03*
X0001663261Y0000256443D03*
D45*
X0001963261Y0000362742D03*
X0002013261Y0000362742D03*
X0002063261Y0000362742D03*
X0002113261Y0000362742D03*
X0002113261Y0000650143D03*
X0002063261Y0000650143D03*
X0002013261Y0000650143D03*
X0001963261Y0000650143D03*
D46*
X0001848261Y0000531443D03*
X0001828261Y0000381443D03*
X0001813261Y0000256443D03*
X0001798261Y0000156443D03*
X0001788261Y0000081443D03*
X0001303261Y0000531443D03*
X0001320761Y0000381443D03*
X0001368261Y0000256443D03*
X0001440761Y0000156443D03*
X0001535761Y0000081443D03*
D47*
X0001543261Y0000531443D03*
X0001408261Y0000531443D03*
D48*
X0001543261Y0000381443D03*
X0001453261Y0000381443D03*
D49*
X0001558261Y0000256443D03*
X0001483261Y0000256443D03*
D50*
X0001564009Y0000156443D03*
X0001528576Y0000156443D03*
D51*
X0001614009Y0000081443D03*
X0001582513Y0000081443D03*
G04 next file*
G04 #@! TF.FileFunction,Soldermask,Top*
G04 Gerber Fmt 4.6, Leading zero omitted, Abs format (unit mm)*
G04 Created by KiCad (PCBNEW 4.0.7) date 06/29/18 14:26:30*
G01*
G04 APERTURE LIST*
G04 APERTURE END LIST*
D52*
D53*
X-0005359983Y0004156443D02*
X0002815016Y0000956443D03*
D54*
X0002828205Y0000081443D03*
X0002851827Y0000081443D03*
D55*
X0002820331Y0000156443D03*
X0002859701Y0000156443D03*
D52*
G36*
X0003169514Y0000280482D02*
X0003214056Y0000235940D01*
X0003169514Y0000191398D01*
X0003124972Y0000235940D01*
X0003169514Y0000280482D01*
X0003169514Y0000280482D01*
G37*
G36*
X0003070519Y0000181487D02*
X0003115061Y0000136945D01*
X0003070519Y0000092403D01*
X0003025977Y0000136945D01*
X0003070519Y0000181487D01*
X0003070519Y0000181487D01*
G37*
D56*
X0003095016Y0000856443D03*
D57*
X0003095016Y0000756443D03*
D56*
X0002995016Y0000856443D03*
X0002995016Y0000756443D03*
X0002895016Y0000856443D03*
X0002895016Y0000756443D03*
D58*
X0002900016Y0000531443D03*
X0002775016Y0000531443D03*
D59*
X0002885016Y0000381443D03*
X0002790016Y0000381443D03*
D60*
X0002875016Y0000256443D03*
X0002805016Y0000256443D03*
D61*
X0003105016Y0000362742D03*
X0003155016Y0000362742D03*
X0003205016Y0000362742D03*
X0003255016Y0000362742D03*
X0003255016Y0000650143D03*
X0003205016Y0000650143D03*
X0003155016Y0000650143D03*
X0003105016Y0000650143D03*
D62*
X0002990016Y0000531443D03*
X0002970016Y0000381443D03*
X0002955016Y0000256443D03*
X0002940016Y0000156443D03*
X0002930016Y0000081443D03*
X0002445016Y0000531443D03*
X0002462516Y0000381443D03*
X0002510016Y0000256443D03*
X0002582516Y0000156443D03*
X0002677516Y0000081443D03*
D63*
X0002685016Y0000531443D03*
X0002550016Y0000531443D03*
D64*
X0002685016Y0000381443D03*
X0002595016Y0000381443D03*
D65*
X0002700016Y0000256443D03*
X0002625016Y0000256443D03*
D66*
X0002705764Y0000156443D03*
X0002670331Y0000156443D03*
D67*
X0002755764Y0000081443D03*
X0002724268Y0000081443D03*
G04 next file*
G04 #@! TF.FileFunction,Soldermask,Top*
G04 Gerber Fmt 4.6, Leading zero omitted, Abs format (unit mm)*
G04 Created by KiCad (PCBNEW 4.0.7) date 06/29/18 14:26:30*
G01*
G04 APERTURE LIST*
G04 APERTURE END LIST*
D68*
D69*
X-0007643492Y0005298069D02*
X0000531507Y0002098069D03*
D70*
X0000544696Y0001223069D03*
X0000568318Y0001223069D03*
D71*
X0000536822Y0001298069D03*
X0000576192Y0001298069D03*
D68*
G36*
X0000886004Y0001422108D02*
X0000930546Y0001377566D01*
X0000886004Y0001333024D01*
X0000841462Y0001377566D01*
X0000886004Y0001422108D01*
X0000886004Y0001422108D01*
G37*
G36*
X0000787009Y0001323113D02*
X0000831551Y0001278571D01*
X0000787009Y0001234029D01*
X0000742467Y0001278571D01*
X0000787009Y0001323113D01*
X0000787009Y0001323113D01*
G37*
D72*
X0000811507Y0001998069D03*
D73*
X0000811507Y0001898069D03*
D72*
X0000711507Y0001998069D03*
X0000711507Y0001898069D03*
X0000611507Y0001998069D03*
X0000611507Y0001898069D03*
D74*
X0000616507Y0001673069D03*
X0000491507Y0001673069D03*
D75*
X0000601507Y0001523069D03*
X0000506507Y0001523069D03*
D76*
X0000591507Y0001398069D03*
X0000521507Y0001398069D03*
D77*
X0000821507Y0001504368D03*
X0000871507Y0001504368D03*
X0000921507Y0001504368D03*
X0000971507Y0001504368D03*
X0000971507Y0001791769D03*
X0000921507Y0001791769D03*
X0000871507Y0001791769D03*
X0000821507Y0001791769D03*
D78*
X0000706507Y0001673069D03*
X0000686507Y0001523069D03*
X0000671507Y0001398069D03*
X0000656507Y0001298069D03*
X0000646507Y0001223069D03*
X0000161507Y0001673069D03*
X0000179007Y0001523069D03*
X0000226507Y0001398069D03*
X0000299007Y0001298069D03*
X0000394007Y0001223069D03*
D79*
X0000401507Y0001673069D03*
X0000266507Y0001673069D03*
D80*
X0000401507Y0001523069D03*
X0000311507Y0001523069D03*
D81*
X0000416507Y0001398069D03*
X0000341507Y0001398069D03*
D82*
X0000422255Y0001298069D03*
X0000386822Y0001298069D03*
D83*
X0000472255Y0001223069D03*
X0000440759Y0001223069D03*
G04 next file*
G04 #@! TF.FileFunction,Soldermask,Top*
G04 Gerber Fmt 4.6, Leading zero omitted, Abs format (unit mm)*
G04 Created by KiCad (PCBNEW 4.0.7) date 06/29/18 14:26:30*
G01*
G04 APERTURE LIST*
G04 APERTURE END LIST*
D84*
D85*
X-0007643492Y0006439695D02*
X0000531507Y0003239695D03*
D86*
X0000544696Y0002364695D03*
X0000568318Y0002364695D03*
D87*
X0000536822Y0002439695D03*
X0000576192Y0002439695D03*
D84*
G36*
X0000886004Y0002563735D02*
X0000930546Y0002519193D01*
X0000886004Y0002474650D01*
X0000841462Y0002519193D01*
X0000886004Y0002563735D01*
X0000886004Y0002563735D01*
G37*
G36*
X0000787009Y0002464740D02*
X0000831551Y0002420198D01*
X0000787009Y0002375655D01*
X0000742467Y0002420198D01*
X0000787009Y0002464740D01*
X0000787009Y0002464740D01*
G37*
D88*
X0000811507Y0003139695D03*
D89*
X0000811507Y0003039695D03*
D88*
X0000711507Y0003139695D03*
X0000711507Y0003039695D03*
X0000611507Y0003139695D03*
X0000611507Y0003039695D03*
D90*
X0000616507Y0002814695D03*
X0000491507Y0002814695D03*
D91*
X0000601507Y0002664695D03*
X0000506507Y0002664695D03*
D92*
X0000591507Y0002539695D03*
X0000521507Y0002539695D03*
D93*
X0000821507Y0002645994D03*
X0000871507Y0002645994D03*
X0000921507Y0002645994D03*
X0000971507Y0002645994D03*
X0000971507Y0002933396D03*
X0000921507Y0002933396D03*
X0000871507Y0002933396D03*
X0000821507Y0002933396D03*
D94*
X0000706507Y0002814695D03*
X0000686507Y0002664695D03*
X0000671507Y0002539695D03*
X0000656507Y0002439695D03*
X0000646507Y0002364695D03*
X0000161507Y0002814695D03*
X0000179007Y0002664695D03*
X0000226507Y0002539695D03*
X0000299007Y0002439695D03*
X0000394007Y0002364695D03*
D95*
X0000401507Y0002814695D03*
X0000266507Y0002814695D03*
D96*
X0000401507Y0002664695D03*
X0000311507Y0002664695D03*
D97*
X0000416507Y0002539695D03*
X0000341507Y0002539695D03*
D98*
X0000422255Y0002439695D03*
X0000386822Y0002439695D03*
D99*
X0000472255Y0002364695D03*
X0000440759Y0002364695D03*
G04 next file*
G04 #@! TF.FileFunction,Soldermask,Top*
G04 Gerber Fmt 4.6, Leading zero omitted, Abs format (unit mm)*
G04 Created by KiCad (PCBNEW 4.0.7) date 06/29/18 14:26:30*
G01*
G04 APERTURE LIST*
G04 APERTURE END LIST*
D100*
D101*
X-0006501738Y0005298069D02*
X0001673261Y0002098069D03*
D102*
X0001686450Y0001223069D03*
X0001710072Y0001223069D03*
D103*
X0001678576Y0001298069D03*
X0001717946Y0001298069D03*
D100*
G36*
X0002027759Y0001422108D02*
X0002072301Y0001377566D01*
X0002027759Y0001333024D01*
X0001983217Y0001377566D01*
X0002027759Y0001422108D01*
X0002027759Y0001422108D01*
G37*
G36*
X0001928764Y0001323113D02*
X0001973306Y0001278571D01*
X0001928764Y0001234029D01*
X0001884222Y0001278571D01*
X0001928764Y0001323113D01*
X0001928764Y0001323113D01*
G37*
D104*
X0001953261Y0001998069D03*
D105*
X0001953261Y0001898069D03*
D104*
X0001853261Y0001998069D03*
X0001853261Y0001898069D03*
X0001753261Y0001998069D03*
X0001753261Y0001898069D03*
D106*
X0001758261Y0001673069D03*
X0001633261Y0001673069D03*
D107*
X0001743261Y0001523069D03*
X0001648261Y0001523069D03*
D108*
X0001733261Y0001398069D03*
X0001663261Y0001398069D03*
D109*
X0001963261Y0001504368D03*
X0002013261Y0001504368D03*
X0002063261Y0001504368D03*
X0002113261Y0001504368D03*
X0002113261Y0001791769D03*
X0002063261Y0001791769D03*
X0002013261Y0001791769D03*
X0001963261Y0001791769D03*
D110*
X0001848261Y0001673069D03*
X0001828261Y0001523069D03*
X0001813261Y0001398069D03*
X0001798261Y0001298069D03*
X0001788261Y0001223069D03*
X0001303261Y0001673069D03*
X0001320761Y0001523069D03*
X0001368261Y0001398069D03*
X0001440761Y0001298069D03*
X0001535761Y0001223069D03*
D111*
X0001543261Y0001673069D03*
X0001408261Y0001673069D03*
D112*
X0001543261Y0001523069D03*
X0001453261Y0001523069D03*
D113*
X0001558261Y0001398069D03*
X0001483261Y0001398069D03*
D114*
X0001564009Y0001298069D03*
X0001528576Y0001298069D03*
D115*
X0001614009Y0001223069D03*
X0001582513Y0001223069D03*
G04 next file*
G04 #@! TF.FileFunction,Soldermask,Top*
G04 Gerber Fmt 4.6, Leading zero omitted, Abs format (unit mm)*
G04 Created by KiCad (PCBNEW 4.0.7) date 06/29/18 14:26:30*
G01*
G04 APERTURE LIST*
G04 APERTURE END LIST*
D116*
D117*
X-0005359983Y0005298069D02*
X0002815016Y0002098069D03*
D118*
X0002828205Y0001223069D03*
X0002851827Y0001223069D03*
D119*
X0002820331Y0001298069D03*
X0002859701Y0001298069D03*
D116*
G36*
X0003169514Y0001422108D02*
X0003214056Y0001377566D01*
X0003169514Y0001333024D01*
X0003124972Y0001377566D01*
X0003169514Y0001422108D01*
X0003169514Y0001422108D01*
G37*
G36*
X0003070519Y0001323113D02*
X0003115061Y0001278571D01*
X0003070519Y0001234029D01*
X0003025977Y0001278571D01*
X0003070519Y0001323113D01*
X0003070519Y0001323113D01*
G37*
D120*
X0003095016Y0001998069D03*
D121*
X0003095016Y0001898069D03*
D120*
X0002995016Y0001998069D03*
X0002995016Y0001898069D03*
X0002895016Y0001998069D03*
X0002895016Y0001898069D03*
D122*
X0002900016Y0001673069D03*
X0002775016Y0001673069D03*
D123*
X0002885016Y0001523069D03*
X0002790016Y0001523069D03*
D124*
X0002875016Y0001398069D03*
X0002805016Y0001398069D03*
D125*
X0003105016Y0001504368D03*
X0003155016Y0001504368D03*
X0003205016Y0001504368D03*
X0003255016Y0001504368D03*
X0003255016Y0001791769D03*
X0003205016Y0001791769D03*
X0003155016Y0001791769D03*
X0003105016Y0001791769D03*
D126*
X0002990016Y0001673069D03*
X0002970016Y0001523069D03*
X0002955016Y0001398069D03*
X0002940016Y0001298069D03*
X0002930016Y0001223069D03*
X0002445016Y0001673069D03*
X0002462516Y0001523069D03*
X0002510016Y0001398069D03*
X0002582516Y0001298069D03*
X0002677516Y0001223069D03*
D127*
X0002685016Y0001673069D03*
X0002550016Y0001673069D03*
D128*
X0002685016Y0001523069D03*
X0002595016Y0001523069D03*
D129*
X0002700016Y0001398069D03*
X0002625016Y0001398069D03*
D130*
X0002705764Y0001298069D03*
X0002670331Y0001298069D03*
D131*
X0002755764Y0001223069D03*
X0002724268Y0001223069D03*
G04 next file*
G04 #@! TF.FileFunction,Soldermask,Top*
G04 Gerber Fmt 4.6, Leading zero omitted, Abs format (unit mm)*
G04 Created by KiCad (PCBNEW 4.0.7) date 06/29/18 14:26:30*
G01*
G04 APERTURE LIST*
G04 APERTURE END LIST*
D132*
D133*
X-0006501738Y0006439695D02*
X0001673261Y0003239695D03*
D134*
X0001686450Y0002364695D03*
X0001710072Y0002364695D03*
D135*
X0001678576Y0002439695D03*
X0001717946Y0002439695D03*
D132*
G36*
X0002027759Y0002563735D02*
X0002072301Y0002519193D01*
X0002027759Y0002474650D01*
X0001983217Y0002519193D01*
X0002027759Y0002563735D01*
X0002027759Y0002563735D01*
G37*
G36*
X0001928764Y0002464740D02*
X0001973306Y0002420198D01*
X0001928764Y0002375655D01*
X0001884222Y0002420198D01*
X0001928764Y0002464740D01*
X0001928764Y0002464740D01*
G37*
D136*
X0001953261Y0003139695D03*
D137*
X0001953261Y0003039695D03*
D136*
X0001853261Y0003139695D03*
X0001853261Y0003039695D03*
X0001753261Y0003139695D03*
X0001753261Y0003039695D03*
D138*
X0001758261Y0002814695D03*
X0001633261Y0002814695D03*
D139*
X0001743261Y0002664695D03*
X0001648261Y0002664695D03*
D140*
X0001733261Y0002539695D03*
X0001663261Y0002539695D03*
D141*
X0001963261Y0002645994D03*
X0002013261Y0002645994D03*
X0002063261Y0002645994D03*
X0002113261Y0002645994D03*
X0002113261Y0002933396D03*
X0002063261Y0002933396D03*
X0002013261Y0002933396D03*
X0001963261Y0002933396D03*
D142*
X0001848261Y0002814695D03*
X0001828261Y0002664695D03*
X0001813261Y0002539695D03*
X0001798261Y0002439695D03*
X0001788261Y0002364695D03*
X0001303261Y0002814695D03*
X0001320761Y0002664695D03*
X0001368261Y0002539695D03*
X0001440761Y0002439695D03*
X0001535761Y0002364695D03*
D143*
X0001543261Y0002814695D03*
X0001408261Y0002814695D03*
D144*
X0001543261Y0002664695D03*
X0001453261Y0002664695D03*
D145*
X0001558261Y0002539695D03*
X0001483261Y0002539695D03*
D146*
X0001564009Y0002439695D03*
X0001528576Y0002439695D03*
D147*
X0001614009Y0002364695D03*
X0001582513Y0002364695D03*
G04 next file*
G04 #@! TF.FileFunction,Soldermask,Top*
G04 Gerber Fmt 4.6, Leading zero omitted, Abs format (unit mm)*
G04 Created by KiCad (PCBNEW 4.0.7) date 06/29/18 14:26:30*
G01*
G04 APERTURE LIST*
G04 APERTURE END LIST*
D148*
D149*
X-0005359983Y0006439695D02*
X0002815016Y0003239695D03*
D150*
X0002828205Y0002364695D03*
X0002851827Y0002364695D03*
D151*
X0002820331Y0002439695D03*
X0002859701Y0002439695D03*
D148*
G36*
X0003169514Y0002563735D02*
X0003214056Y0002519193D01*
X0003169514Y0002474650D01*
X0003124972Y0002519193D01*
X0003169514Y0002563735D01*
X0003169514Y0002563735D01*
G37*
G36*
X0003070519Y0002464740D02*
X0003115061Y0002420198D01*
X0003070519Y0002375655D01*
X0003025977Y0002420198D01*
X0003070519Y0002464740D01*
X0003070519Y0002464740D01*
G37*
D152*
X0003095016Y0003139695D03*
D153*
X0003095016Y0003039695D03*
D152*
X0002995016Y0003139695D03*
X0002995016Y0003039695D03*
X0002895016Y0003139695D03*
X0002895016Y0003039695D03*
D154*
X0002900016Y0002814695D03*
X0002775016Y0002814695D03*
D155*
X0002885016Y0002664695D03*
X0002790016Y0002664695D03*
D156*
X0002875016Y0002539695D03*
X0002805016Y0002539695D03*
D157*
X0003105016Y0002645994D03*
X0003155016Y0002645994D03*
X0003205016Y0002645994D03*
X0003255016Y0002645994D03*
X0003255016Y0002933396D03*
X0003205016Y0002933396D03*
X0003155016Y0002933396D03*
X0003105016Y0002933396D03*
D158*
X0002990016Y0002814695D03*
X0002970016Y0002664695D03*
X0002955016Y0002539695D03*
X0002940016Y0002439695D03*
X0002930016Y0002364695D03*
X0002445016Y0002814695D03*
X0002462516Y0002664695D03*
X0002510016Y0002539695D03*
X0002582516Y0002439695D03*
X0002677516Y0002364695D03*
D159*
X0002685016Y0002814695D03*
X0002550016Y0002814695D03*
D160*
X0002685016Y0002664695D03*
X0002595016Y0002664695D03*
D161*
X0002700016Y0002539695D03*
X0002625016Y0002539695D03*
D162*
X0002705764Y0002439695D03*
X0002670331Y0002439695D03*
D163*
X0002755764Y0002364695D03*
X0002724268Y0002364695D03*
M02*