%MOIN*%
%OFA0B0*%
%FSLAX36Y36*%
%IPPOS*%
%LPD*%
%ADD10C,0*%
D10*
X002992126Y002089746D02*
X002992126Y002089746D01*
X002992126Y000894896D01*
X002992017Y000891978D01*
X002991693Y000889075D01*
X002991155Y000886205D01*
X002990405Y000883383D01*
X002989448Y000880624D01*
X002988289Y000877944D01*
X002986935Y000875357D01*
X002985393Y000872877D01*
X002983671Y000870519D01*
X002981779Y000868294D01*
X002979728Y000866216D01*
X002977528Y000864296D01*
X002975191Y000862544D01*
X002972732Y000860970D01*
X002970162Y000859583D01*
X002967497Y000858390D01*
X002964751Y000857397D01*
X002961938Y000856611D01*
X002959075Y000856036D01*
X002956178Y000855675D01*
X002936492Y000853957D01*
X002933233Y000853808D01*
X002929973Y000853930D01*
X002926734Y000854321D01*
X002923539Y000854979D01*
X002920409Y000855900D01*
X002917366Y000857076D01*
X002914430Y000858500D01*
X002911623Y000860163D01*
X002908963Y000862052D01*
X002906469Y000864155D01*
X002904157Y000866457D01*
X002902044Y000868942D01*
X002900144Y000871595D01*
X002898470Y000874395D01*
X002897034Y000877324D01*
X002895845Y000880362D01*
X002894911Y000883488D01*
X002894240Y000886681D01*
X002893836Y000889918D01*
X002893700Y000893178D01*
X002893700Y002095400D01*
X002893869Y002099037D01*
X002894373Y002102644D01*
X002895207Y002106188D01*
X002896366Y002109640D01*
X002897839Y002112970D01*
X002899613Y002116150D01*
X002901673Y002119153D01*
X002904002Y002121952D01*
X002906579Y002124524D01*
X002909384Y002126847D01*
X002912390Y002128901D01*
X002915574Y002130668D01*
X002918907Y002132134D01*
X002922362Y002133285D01*
X002925908Y002134113D01*
X002929515Y002134609D01*
X002933153Y002134770D01*
X002936790Y002134594D01*
X002940396Y002134082D01*
X002943938Y002133240D01*
X002963623Y002127587D01*
X002966042Y002126807D01*
X002968405Y002125872D01*
X002970703Y002124788D01*
X002972926Y002123557D01*
X002975065Y002122185D01*
X002977111Y002120678D01*
X002979056Y002119043D01*
X002980891Y002117285D01*
X002982609Y002115412D01*
X002984203Y002113433D01*
X002985666Y002111355D01*
X002986991Y002109187D01*
X002988174Y002106938D01*
X002989209Y002104617D01*
X002990093Y002102235D01*
X002990820Y002099800D01*
X002991390Y002097323D01*
X002991798Y002094815D01*
X002992044Y002092286D01*
X002992126Y002089746D01*
X000500000Y000688806D02*
X000500000Y000688806D01*
X000500136Y000692075D01*
X000500542Y000695320D01*
X000501217Y000698521D01*
X000502155Y000701655D01*
X000503350Y000704700D01*
X000504794Y000707635D01*
X000506477Y000710441D01*
X000508386Y000713097D01*
X000510509Y000715585D01*
X000512832Y000717888D01*
X000515338Y000719991D01*
X000518010Y000721878D01*
X000520829Y000723537D01*
X000523776Y000724957D01*
X000526831Y000726126D01*
X000529972Y000727038D01*
X000533179Y000727687D01*
X000536428Y000728066D01*
X000539697Y000728175D01*
X000542964Y000728012D01*
X000562649Y000726207D01*
X000565537Y000725834D01*
X000568389Y000725249D01*
X000571190Y000724455D01*
X000573925Y000723456D01*
X000576578Y000722257D01*
X000579135Y000720866D01*
X000581583Y000719289D01*
X000583908Y000717536D01*
X000586096Y000715616D01*
X000588137Y000713539D01*
X000590018Y000711317D01*
X000591731Y000708963D01*
X000593264Y000706488D01*
X000594611Y000703906D01*
X000595763Y000701233D01*
X000596714Y000698481D01*
X000597460Y000695667D01*
X000597995Y000692805D01*
X000598317Y000689911D01*
X000598425Y000687002D01*
X000598425Y000649999D01*
X000599041Y000642178D01*
X000600872Y000634549D01*
X000603874Y000627300D01*
X000607974Y000620611D01*
X000613069Y000614644D01*
X000619036Y000609549D01*
X000625726Y000605449D01*
X000632973Y000602447D01*
X000640603Y000600615D01*
X000648425Y000600000D01*
X000656247Y000599384D01*
X000663875Y000597553D01*
X000671124Y000594550D01*
X000677814Y000590451D01*
X000683780Y000585355D01*
X000688875Y000579389D01*
X000692974Y000572699D01*
X000695977Y000565451D01*
X000697809Y000557822D01*
X000698425Y000549999D01*
X000698425Y000099999D01*
X000699280Y000086947D01*
X000701832Y000074118D01*
X000706037Y000061731D01*
X000711822Y000050000D01*
X000719090Y000039123D01*
X000727714Y000029289D01*
X000737548Y000020664D01*
X000748425Y000013397D01*
X000760156Y000007612D01*
X000772543Y000003407D01*
X000785372Y000000855D01*
X000798424Y000000000D01*
X000898425Y000000000D01*
X000911476Y000000855D01*
X000924306Y000003407D01*
X000936692Y000007612D01*
X000948425Y000013397D01*
X000959300Y000020664D01*
X000969135Y000029289D01*
X000977760Y000039123D01*
X000985027Y000050000D01*
X000990812Y000061731D01*
X000995017Y000074118D01*
X000997569Y000086947D01*
X000998424Y000099999D01*
X000998424Y000549999D01*
X000999040Y000557822D01*
X001000872Y000565451D01*
X001003874Y000572699D01*
X001007973Y000579389D01*
X001013069Y000585355D01*
X001019036Y000590451D01*
X001025726Y000594550D01*
X001032974Y000597553D01*
X001040602Y000599384D01*
X001048425Y000600000D01*
X001056247Y000600615D01*
X001063875Y000602447D01*
X001071124Y000605449D01*
X001077813Y000609549D01*
X001083780Y000614644D01*
X001088875Y000620611D01*
X001092974Y000627300D01*
X001095977Y000634549D01*
X001097809Y000642178D01*
X001098425Y000649999D01*
X001098425Y000678747D01*
X001098537Y000681720D01*
X001098874Y000684676D01*
X001099433Y000687599D01*
X001100211Y000690470D01*
X001101204Y000693275D01*
X001102405Y000695997D01*
X001103809Y000698621D01*
X001105407Y000701131D01*
X001107190Y000703513D01*
X001109148Y000705753D01*
X001111269Y000707839D01*
X001113542Y000709760D01*
X001115954Y000711503D01*
X001118490Y000713059D01*
X001121136Y000714419D01*
X001123878Y000715575D01*
X001126699Y000716521D01*
X001129583Y000717251D01*
X001132514Y000717761D01*
X001135476Y000718048D01*
X001155161Y000719210D01*
X001158368Y000719268D01*
X001161569Y000719065D01*
X001164742Y000718603D01*
X001167868Y000717883D01*
X001170924Y000716911D01*
X001173892Y000715694D01*
X001176750Y000714240D01*
X001179481Y000712557D01*
X001182065Y000710658D01*
X001184487Y000708555D01*
X001186729Y000706262D01*
X001188777Y000703794D01*
X001190617Y000701167D01*
X001192238Y000698399D01*
X001193627Y000695509D01*
X001194777Y000692515D01*
X001195680Y000689437D01*
X001196328Y000686296D01*
X001196719Y000683113D01*
X001196850Y000679908D01*
X001196850Y000649999D01*
X001197466Y000642178D01*
X001199297Y000634549D01*
X001202299Y000627300D01*
X001206399Y000620611D01*
X001211494Y000614644D01*
X001217461Y000609549D01*
X001224151Y000605449D01*
X001231399Y000602447D01*
X001239028Y000600615D01*
X001246850Y000600000D01*
X001254672Y000599384D01*
X001262300Y000597553D01*
X001269549Y000594550D01*
X001276239Y000590451D01*
X001282205Y000585355D01*
X001287301Y000579389D01*
X001291399Y000572699D01*
X001294402Y000565451D01*
X001296234Y000557822D01*
X001296850Y000549999D01*
X001296850Y000099999D01*
X001297705Y000086947D01*
X001300257Y000074118D01*
X001304462Y000061731D01*
X001310247Y000050000D01*
X001317515Y000039123D01*
X001326139Y000029289D01*
X001335974Y000020664D01*
X001346850Y000013397D01*
X001358581Y000007612D01*
X001370968Y000003407D01*
X001383797Y000000855D01*
X001396850Y000000000D01*
X001496850Y000000000D01*
X001509902Y000000855D01*
X001522732Y000003407D01*
X001535118Y000007612D01*
X001546850Y000013397D01*
X001557725Y000020664D01*
X001567560Y000029289D01*
X001576185Y000039123D01*
X001583452Y000050000D01*
X001589237Y000061731D01*
X001593442Y000074118D01*
X001595994Y000086947D01*
X001596850Y000099999D01*
X001596850Y000549999D01*
X001597465Y000557822D01*
X001599297Y000565451D01*
X001602300Y000572699D01*
X001606398Y000579389D01*
X001611494Y000585355D01*
X001617461Y000590451D01*
X001624151Y000594550D01*
X001631399Y000597553D01*
X001639028Y000599384D01*
X001646850Y000600000D01*
X001654672Y000600615D01*
X001662300Y000602447D01*
X001669549Y000605449D01*
X001676239Y000609549D01*
X001682205Y000614644D01*
X001687300Y000620611D01*
X001691400Y000627300D01*
X001694403Y000634549D01*
X001696234Y000642178D01*
X001696850Y000649999D01*
X001696850Y000681275D01*
X001697002Y000684731D01*
X001697457Y000688160D01*
X001698211Y000691536D01*
X001699258Y000694833D01*
X001700591Y000698025D01*
X001702199Y000701088D01*
X001704070Y000703998D01*
X001706188Y000706732D01*
X001708539Y000709270D01*
X001711103Y000711592D01*
X001713862Y000713680D01*
X001716793Y000715517D01*
X001719873Y000717091D01*
X001723081Y000718387D01*
X001726389Y000719397D01*
X001729773Y000720113D01*
X001733208Y000720529D01*
X001736665Y000720642D01*
X001740119Y000720451D01*
X001743543Y000719958D01*
X001763228Y000716231D01*
X001765885Y000715632D01*
X001768494Y000714851D01*
X001771042Y000713892D01*
X001773519Y000712758D01*
X001775911Y000711457D01*
X001778207Y000709992D01*
X001780396Y000708373D01*
X001782469Y000706606D01*
X001784414Y000704700D01*
X001786223Y000702665D01*
X001787887Y000700509D01*
X001789397Y000698243D01*
X001790748Y000695878D01*
X001791932Y000693426D01*
X001792943Y000690897D01*
X001793777Y000688305D01*
X001794430Y000685661D01*
X001794899Y000682978D01*
X001795181Y000680270D01*
X001795275Y000677548D01*
X001795275Y000649999D01*
X001795891Y000642178D01*
X001797722Y000634549D01*
X001800725Y000627300D01*
X001804824Y000620611D01*
X001809919Y000614644D01*
X001815886Y000609549D01*
X001822576Y000605449D01*
X001829824Y000602447D01*
X001837453Y000600615D01*
X001845275Y000600000D01*
X001853097Y000599384D01*
X001860725Y000597553D01*
X001867974Y000594550D01*
X001874664Y000590451D01*
X001880630Y000585355D01*
X001885726Y000579389D01*
X001889825Y000572699D01*
X001892828Y000565451D01*
X001894659Y000557822D01*
X001895275Y000549999D01*
X001895275Y000099999D01*
X001896130Y000086947D01*
X001898682Y000074118D01*
X001902887Y000061731D01*
X001908672Y000050000D01*
X001915940Y000039123D01*
X001924564Y000029289D01*
X001934399Y000020664D01*
X001945275Y000013397D01*
X001957006Y000007612D01*
X001969393Y000003407D01*
X001982223Y000000855D01*
X001995275Y000000000D01*
X002095275Y000000000D01*
X002108327Y000000855D01*
X002121157Y000003407D01*
X002133543Y000007612D01*
X002145275Y000013397D01*
X002156150Y000020664D01*
X002165985Y000029289D01*
X002174611Y000039123D01*
X002181877Y000050000D01*
X002187662Y000061731D01*
X002191867Y000074118D01*
X002194419Y000086947D01*
X002195275Y000099999D01*
X002195275Y000549999D01*
X002195891Y000557822D01*
X002197722Y000565451D01*
X002200725Y000572699D01*
X002204824Y000579389D01*
X002209919Y000585355D01*
X002215886Y000590451D01*
X002222576Y000594550D01*
X002229824Y000597553D01*
X002237453Y000599384D01*
X002245275Y000600000D01*
X002253097Y000600615D01*
X002260725Y000602447D01*
X002267975Y000605449D01*
X002274664Y000609549D01*
X002280630Y000614644D01*
X002285725Y000620611D01*
X002289825Y000627300D01*
X002292828Y000634549D01*
X002294659Y000642178D01*
X002295275Y000649999D01*
X002295275Y000683983D01*
X002295403Y000687147D01*
X002295784Y000690291D01*
X002296417Y000693394D01*
X002297297Y000696437D01*
X002298419Y000699398D01*
X002299775Y000702260D01*
X002301357Y000705004D01*
X002303154Y000707611D01*
X002305155Y000710066D01*
X002307347Y000712352D01*
X002309716Y000714454D01*
X002312245Y000716359D01*
X002314920Y000718055D01*
X002317723Y000719530D01*
X002320635Y000720776D01*
X002323637Y000721783D01*
X002326711Y000722545D01*
X002329836Y000723058D01*
X002332992Y000723318D01*
X002336159Y000723324D01*
X002355845Y000722566D01*
X002358851Y000722335D01*
X002361832Y000721874D01*
X002364768Y000721187D01*
X002367643Y000720276D01*
X002370440Y000719149D01*
X002373142Y000717810D01*
X002375734Y000716269D01*
X002378200Y000714534D01*
X002380527Y000712615D01*
X002382700Y000710524D01*
X002384706Y000708272D01*
X002386534Y000705874D01*
X002388173Y000703342D01*
X002389613Y000700693D01*
X002390847Y000697941D01*
X002391866Y000695103D01*
X002392665Y000692195D01*
X002393239Y000689234D01*
X002393585Y000686239D01*
X002393701Y000683225D01*
X002393701Y000649999D01*
X002394316Y000642178D01*
X002396147Y000634549D01*
X002399150Y000627300D01*
X002403249Y000620611D01*
X002408344Y000614644D01*
X002414311Y000609549D01*
X002421001Y000605449D01*
X002428249Y000602447D01*
X002435878Y000600615D01*
X002443700Y000600000D01*
X002451522Y000599384D01*
X002459151Y000597553D01*
X002466400Y000594550D01*
X002473089Y000590451D01*
X002479055Y000585355D01*
X002484151Y000579389D01*
X002488250Y000572699D01*
X002491253Y000565451D01*
X002493085Y000557822D01*
X002493700Y000549999D01*
X002493700Y000099999D01*
X002494555Y000086947D01*
X002497108Y000074118D01*
X002501312Y000061731D01*
X002507097Y000050000D01*
X002514365Y000039123D01*
X002522989Y000029289D01*
X002532824Y000020664D01*
X002543700Y000013397D01*
X002555432Y000007612D01*
X002567818Y000003407D01*
X002580648Y000000855D01*
X002593700Y000000000D01*
X002693700Y000000000D01*
X002706752Y000000855D01*
X002719582Y000003407D01*
X002731968Y000007612D01*
X002743701Y000013397D01*
X002754576Y000020664D01*
X002764410Y000029289D01*
X002773036Y000039123D01*
X002780302Y000050000D01*
X002786087Y000061731D01*
X002790293Y000074118D01*
X002792845Y000086947D01*
X002793700Y000099999D01*
X002793700Y000549999D01*
X002794316Y000557822D01*
X002796147Y000565451D01*
X002799150Y000572699D01*
X002803249Y000579389D01*
X002808344Y000585355D01*
X002814311Y000590451D01*
X002821001Y000594550D01*
X002828249Y000597553D01*
X002835878Y000599384D01*
X002843700Y000600000D01*
X002851522Y000600615D01*
X002859151Y000602447D01*
X002866400Y000605449D01*
X002873089Y000609549D01*
X002879056Y000614644D01*
X002884150Y000620611D01*
X002888250Y000627300D01*
X002891253Y000634549D01*
X002893085Y000642178D01*
X002893700Y000649999D01*
X002893700Y000680197D01*
X002893836Y000683457D01*
X002894240Y000686694D01*
X002894911Y000689887D01*
X002895845Y000693013D01*
X002897034Y000696051D01*
X002898470Y000698980D01*
X002900144Y000701780D01*
X002902044Y000704432D01*
X002904157Y000706918D01*
X002906469Y000709220D01*
X002908963Y000711323D01*
X002911623Y000713212D01*
X002914430Y000714875D01*
X002917366Y000716299D01*
X002920409Y000717475D01*
X002923539Y000718396D01*
X002926734Y000719054D01*
X002929973Y000719445D01*
X002933233Y000719567D01*
X002936492Y000719418D01*
X002956178Y000717700D01*
X002959075Y000717339D01*
X002961938Y000716764D01*
X002964751Y000715978D01*
X002967497Y000714985D01*
X002970162Y000713792D01*
X002972732Y000712405D01*
X002975191Y000710831D01*
X002977528Y000709079D01*
X002979728Y000707159D01*
X002981779Y000705081D01*
X002983671Y000702856D01*
X002985393Y000700498D01*
X002986935Y000698018D01*
X002988289Y000695431D01*
X002989448Y000692751D01*
X002990405Y000689992D01*
X002991155Y000687170D01*
X002991693Y000684300D01*
X002992017Y000681397D01*
X002992126Y000678479D01*
X002992126Y000649999D01*
X002992741Y000642178D01*
X002994573Y000634549D01*
X002997575Y000627300D01*
X003001674Y000620611D01*
X003006769Y000614644D01*
X003012737Y000609549D01*
X003019426Y000605449D01*
X003026674Y000602447D01*
X003034304Y000600615D01*
X003042125Y000600000D01*
X003049948Y000599384D01*
X003057576Y000597553D01*
X003064825Y000594550D01*
X003071515Y000590451D01*
X003077481Y000585355D01*
X003082576Y000579389D01*
X003086675Y000572699D01*
X003089678Y000565451D01*
X003091510Y000557822D01*
X003092125Y000549999D01*
X003092125Y000099999D01*
X003092980Y000086947D01*
X003095533Y000074118D01*
X003099737Y000061731D01*
X003105523Y000050000D01*
X003112790Y000039123D01*
X003121415Y000029289D01*
X003131249Y000020664D01*
X003142126Y000013397D01*
X003153857Y000007612D01*
X003166244Y000003407D01*
X003179073Y000000855D01*
X003192125Y000000000D01*
X003292126Y000000000D01*
X003305177Y000000855D01*
X003318007Y000003407D01*
X003330393Y000007612D01*
X003342126Y000013397D01*
X003353001Y000020664D01*
X003362836Y000029289D01*
X003371461Y000039123D01*
X003378728Y000050000D01*
X003384513Y000061731D01*
X003388718Y000074118D01*
X003391270Y000086947D01*
X003392125Y000099999D01*
X003392125Y000549999D01*
X003392741Y000557822D01*
X003394573Y000565451D01*
X003397575Y000572699D01*
X003401674Y000579389D01*
X003406770Y000585355D01*
X003412737Y000590451D01*
X003419426Y000594550D01*
X003426674Y000597553D01*
X003434303Y000599384D01*
X003442125Y000600000D01*
X003449948Y000600615D01*
X003457576Y000602447D01*
X003464825Y000605449D01*
X003471514Y000609549D01*
X003477481Y000614644D01*
X003482576Y000620611D01*
X003486675Y000627300D01*
X003489678Y000634549D01*
X003491510Y000642178D01*
X003492126Y000649999D01*
X003492126Y002349999D01*
X003491270Y002363052D01*
X003488718Y002375882D01*
X003484513Y002388268D01*
X003478728Y002400000D01*
X003471461Y002410876D01*
X003462836Y002420711D01*
X003453001Y002429335D01*
X003442125Y002436602D01*
X003430393Y002442388D01*
X003418008Y002446592D01*
X003405178Y002449144D01*
X003392125Y002449999D01*
X003092125Y002449999D01*
X003079073Y002449144D01*
X003066244Y002446592D01*
X003053857Y002442388D01*
X003042125Y002436602D01*
X003031249Y002429335D01*
X003021414Y002420711D01*
X003012790Y002410876D01*
X003005522Y002400000D01*
X002999737Y002388268D01*
X002995533Y002375882D01*
X002992981Y002363052D01*
X002992126Y002349999D01*
X002992126Y002309710D01*
X002992044Y002307171D01*
X002991798Y002304641D01*
X002991390Y002302133D01*
X002990820Y002299657D01*
X002990093Y002297222D01*
X002989209Y002294839D01*
X002988174Y002292519D01*
X002986991Y002290270D01*
X002985666Y002288102D01*
X002984203Y002286024D01*
X002982609Y002284044D01*
X002980891Y002282172D01*
X002979056Y002280414D01*
X002977111Y002278778D01*
X002975065Y002277272D01*
X002972926Y002275900D01*
X002970703Y002274669D01*
X002968405Y002273584D01*
X002966042Y002272650D01*
X002963623Y002271870D01*
X002943938Y002266216D01*
X002940396Y002265374D01*
X002936790Y002264863D01*
X002933153Y002264687D01*
X002929515Y002264848D01*
X002925908Y002265344D01*
X002922362Y002266171D01*
X002918907Y002267323D01*
X002915574Y002268788D01*
X002912390Y002270556D01*
X002909384Y002272610D01*
X002906579Y002274933D01*
X002904002Y002277505D01*
X002901673Y002280304D01*
X002899613Y002283306D01*
X002897839Y002286486D01*
X002896366Y002289817D01*
X002895207Y002293269D01*
X002894373Y002296813D01*
X002893869Y002300419D01*
X002893700Y002304057D01*
X002893700Y002349999D01*
X002892844Y002363052D01*
X002890292Y002375882D01*
X002886088Y002388268D01*
X002880303Y002400000D01*
X002873036Y002410876D01*
X002864411Y002420711D01*
X002854576Y002429335D01*
X002843700Y002436602D01*
X002831968Y002442388D01*
X002819582Y002446592D01*
X002806752Y002449144D01*
X002793700Y002449999D01*
X002493700Y002449999D01*
X002480647Y002449144D01*
X002467819Y002446592D01*
X002455432Y002442388D01*
X002443700Y002436602D01*
X002432824Y002429335D01*
X002422989Y002420711D01*
X002414365Y002410876D01*
X002407097Y002400000D01*
X002401312Y002388268D01*
X002397107Y002375882D01*
X002394555Y002363052D01*
X002393701Y002349999D01*
X002393701Y002305013D01*
X002393613Y002302383D01*
X002393349Y002299765D01*
X002392912Y002297171D01*
X002392301Y002294611D01*
X002391522Y002292098D01*
X002390576Y002289642D01*
X002389468Y002287256D01*
X002388204Y002284948D01*
X002386788Y002282730D01*
X002385227Y002280612D01*
X002383528Y002278603D01*
X002381699Y002276711D01*
X002379747Y002274947D01*
X002377682Y002273316D01*
X002375513Y002271827D01*
X002373249Y002270486D01*
X002370900Y002269300D01*
X002368477Y002268273D01*
X002365992Y002267410D01*
X002363454Y002266715D01*
X002343769Y002262025D01*
X002340280Y002261359D01*
X002336746Y002261010D01*
X002333195Y002260980D01*
X002329656Y002261271D01*
X002326157Y002261879D01*
X002322727Y002262801D01*
X002319395Y002264027D01*
X002316186Y002265549D01*
X002313128Y002267354D01*
X002310244Y002269427D01*
X002307559Y002271752D01*
X002305095Y002274309D01*
X002302871Y002277077D01*
X002300906Y002280035D01*
X002299215Y002283158D01*
X002297812Y002286420D01*
X002296709Y002289796D01*
X002295915Y002293257D01*
X002295435Y002296776D01*
X002295275Y002300324D01*
X002295275Y002349999D01*
X002294419Y002363052D01*
X002291867Y002375882D01*
X002287663Y002388268D01*
X002281878Y002400000D01*
X002274610Y002410876D01*
X002265986Y002420711D01*
X002256151Y002429335D01*
X002245275Y002436602D01*
X002233543Y002442388D01*
X002221157Y002446592D01*
X002208327Y002449144D01*
X002195275Y002449999D01*
X001895275Y002449999D01*
X001882222Y002449144D01*
X001869393Y002446592D01*
X001857007Y002442388D01*
X001845275Y002436602D01*
X001834399Y002429335D01*
X001824564Y002420711D01*
X001815940Y002410876D01*
X001808672Y002400000D01*
X001802887Y002388268D01*
X001798682Y002375882D01*
X001796130Y002363052D01*
X001795275Y002349999D01*
X001795275Y002310761D01*
X001795157Y002307715D01*
X001794804Y002304687D01*
X001794217Y002301696D01*
X001793401Y002298759D01*
X001792360Y002295894D01*
X001791101Y002293118D01*
X001789630Y002290448D01*
X001787958Y002287899D01*
X001786093Y002285488D01*
X001784047Y002283228D01*
X001781832Y002281133D01*
X001779462Y002279216D01*
X001776951Y002277488D01*
X001774314Y002275960D01*
X001771566Y002274640D01*
X001768724Y002273536D01*
X001765806Y002272656D01*
X001762828Y002272004D01*
X001759809Y002271585D01*
X001756766Y002271400D01*
X001737081Y002270970D01*
X001733947Y002271026D01*
X001730828Y002271331D01*
X001727743Y002271884D01*
X001724711Y002272680D01*
X001721752Y002273715D01*
X001718886Y002274982D01*
X001716129Y002276473D01*
X001713499Y002278178D01*
X001711013Y002280088D01*
X001708687Y002282189D01*
X001706536Y002284468D01*
X001704573Y002286911D01*
X001702810Y002289503D01*
X001701259Y002292227D01*
X001699930Y002295065D01*
X001698830Y002298001D01*
X001697968Y002301014D01*
X001697348Y002304086D01*
X001696975Y002307198D01*
X001696850Y002310330D01*
X001696850Y002349999D01*
X001695994Y002363052D01*
X001693442Y002375882D01*
X001689237Y002388268D01*
X001683452Y002400000D01*
X001676185Y002410876D01*
X001667560Y002420711D01*
X001657726Y002429335D01*
X001646850Y002436602D01*
X001635117Y002442388D01*
X001622732Y002446592D01*
X001609902Y002449144D01*
X001596850Y002449999D01*
X001296850Y002449999D01*
X001283797Y002449144D01*
X001270968Y002446592D01*
X001258582Y002442388D01*
X001246850Y002436602D01*
X001235973Y002429335D01*
X001226139Y002420711D01*
X001217514Y002410876D01*
X001210247Y002400000D01*
X001204462Y002388268D01*
X001200257Y002375882D01*
X001197705Y002363052D01*
X001196850Y002349999D01*
X001196850Y002312940D01*
X001196687Y002309354D01*
X001196197Y002305799D01*
X001195386Y002302302D01*
X001194259Y002298894D01*
X001192827Y002295603D01*
X001191101Y002292455D01*
X001189096Y002289478D01*
X001186828Y002286697D01*
X001184315Y002284133D01*
X001181580Y002281808D01*
X001178645Y002279743D01*
X001175533Y002277953D01*
X001172272Y002276454D01*
X001168887Y002275259D01*
X001165408Y002274377D01*
X001161863Y002273815D01*
X001158281Y002273578D01*
X001154693Y002273669D01*
X001151128Y002274086D01*
X001147615Y002274826D01*
X001127930Y002279921D01*
X001125443Y002280653D01*
X001123009Y002281547D01*
X001120639Y002282600D01*
X001118343Y002283806D01*
X001116132Y002285161D01*
X001114015Y002286658D01*
X001112001Y002288291D01*
X001110099Y002290054D01*
X001108317Y002291938D01*
X001106663Y002293935D01*
X001105144Y002296037D01*
X001103767Y002298234D01*
X001102537Y002300517D01*
X001101460Y002302876D01*
X001100541Y002305300D01*
X001099784Y002307780D01*
X001099191Y002310305D01*
X001098766Y002312863D01*
X001098510Y002315443D01*
X001098425Y002318035D01*
X001098425Y002349999D01*
X001097569Y002363052D01*
X001095017Y002375882D01*
X001090812Y002388268D01*
X001085027Y002400000D01*
X001077760Y002410876D01*
X001069135Y002420711D01*
X001059300Y002429335D01*
X001048425Y002436602D01*
X001036692Y002442388D01*
X001024307Y002446592D01*
X001011477Y002449144D01*
X000998424Y002449999D01*
X000698425Y002449999D01*
X000685372Y002449144D01*
X000672543Y002446592D01*
X000660156Y002442388D01*
X000648425Y002436602D01*
X000637548Y002429335D01*
X000627713Y002420711D01*
X000619089Y002410876D01*
X000611821Y002400000D01*
X000606036Y002388268D01*
X000601832Y002375882D01*
X000599280Y002363052D01*
X000598425Y002349999D01*
X000598425Y002305466D01*
X000598343Y002302934D01*
X000598099Y002300413D01*
X000597694Y002297912D01*
X000597128Y002295443D01*
X000596405Y002293016D01*
X000595527Y002290640D01*
X000594498Y002288325D01*
X000593322Y002286081D01*
X000592005Y002283918D01*
X000590551Y002281844D01*
X000588967Y002279867D01*
X000587259Y002277997D01*
X000585434Y002276240D01*
X000583500Y002274604D01*
X000581465Y002273096D01*
X000579337Y002271722D01*
X000577125Y002270487D01*
X000574838Y002269398D01*
X000572486Y002268458D01*
X000570078Y002267670D01*
X000550393Y002261929D01*
X000546846Y002261071D01*
X000543235Y002260544D01*
X000539590Y002260355D01*
X000535944Y002260504D01*
X000532327Y002260989D01*
X000528770Y002261808D01*
X000525305Y002262952D01*
X000521960Y002264413D01*
X000518766Y002266176D01*
X000515748Y002268228D01*
X000512933Y002270551D01*
X000510345Y002273124D01*
X000508007Y002275926D01*
X000505938Y002278933D01*
X000504156Y002282118D01*
X000502677Y002285454D01*
X000501513Y002288913D01*
X000500675Y002292465D01*
X000500169Y002296079D01*
X000500000Y002299724D01*
X000500000Y002349999D01*
X000499144Y002363052D01*
X000496592Y002375882D01*
X000492387Y002388268D01*
X000486602Y002400000D01*
X000479335Y002410876D01*
X000470710Y002420711D01*
X000460875Y002429335D01*
X000449999Y002436602D01*
X000438267Y002442388D01*
X000425882Y002446592D01*
X000413052Y002449144D01*
X000399999Y002449999D01*
X000099999Y002449999D01*
X000086947Y002449144D01*
X000074118Y002446592D01*
X000061731Y002442388D01*
X000049999Y002436602D01*
X000039123Y002429335D01*
X000029288Y002420711D01*
X000020664Y002410876D01*
X000013396Y002400000D01*
X000007611Y002388268D01*
X000003407Y002375882D01*
X000000855Y002363052D01*
X000000000Y002349999D01*
X000000000Y000649999D01*
X000000615Y000642178D01*
X000002447Y000634549D01*
X000005449Y000627300D01*
X000009548Y000620611D01*
X000014643Y000614644D01*
X000020611Y000609549D01*
X000027300Y000605449D01*
X000034548Y000602447D01*
X000042178Y000600615D01*
X000049999Y000600000D01*
X000057822Y000599384D01*
X000065450Y000597553D01*
X000072699Y000594550D01*
X000079389Y000590451D01*
X000085355Y000585355D01*
X000090450Y000579389D01*
X000094549Y000572699D01*
X000097552Y000565451D01*
X000099384Y000557822D01*
X000099999Y000549999D01*
X000099999Y000099999D01*
X000100854Y000086947D01*
X000103407Y000074118D01*
X000107611Y000061731D01*
X000113397Y000050000D01*
X000120664Y000039123D01*
X000129289Y000029289D01*
X000139123Y000020664D01*
X000150000Y000013397D01*
X000161731Y000007612D01*
X000174118Y000003407D01*
X000186947Y000000855D01*
X000199999Y000000000D01*
X000300000Y000000000D01*
X000313051Y000000855D01*
X000325881Y000003407D01*
X000338267Y000007612D01*
X000350000Y000013397D01*
X000360875Y000020664D01*
X000370710Y000029289D01*
X000379335Y000039123D01*
X000386602Y000050000D01*
X000392387Y000061731D01*
X000396592Y000074118D01*
X000399144Y000086947D01*
X000399999Y000099999D01*
X000399999Y000549999D01*
X000400615Y000557822D01*
X000402447Y000565451D01*
X000405449Y000572699D01*
X000409548Y000579389D01*
X000414644Y000585355D01*
X000420611Y000590451D01*
X000427301Y000594550D01*
X000434548Y000597553D01*
X000442177Y000599384D01*
X000449999Y000600000D01*
X000457822Y000600615D01*
X000465450Y000602447D01*
X000472699Y000605449D01*
X000479388Y000609549D01*
X000485355Y000614644D01*
X000490450Y000620611D01*
X000494549Y000627300D01*
X000497552Y000634549D01*
X000499384Y000642178D01*
X000500000Y000649999D01*
X000500000Y000688806D01*
X002295275Y002090569D02*
X002295275Y002090569D01*
X002295435Y002094117D01*
X002295915Y002097636D01*
X002296709Y002101097D01*
X002297812Y002104472D01*
X002299215Y002107735D01*
X002300906Y002110858D01*
X002302871Y002113816D01*
X002305095Y002116584D01*
X002307559Y002119141D01*
X002310244Y002121466D01*
X002313128Y002123539D01*
X002316186Y002125344D01*
X002319395Y002126865D01*
X002322727Y002128092D01*
X002326157Y002129013D01*
X002329656Y002129622D01*
X002333195Y002129912D01*
X002336746Y002129883D01*
X002340280Y002129534D01*
X002343769Y002128868D01*
X002363454Y002124178D01*
X002365992Y002123483D01*
X002368477Y002122620D01*
X002370900Y002121593D01*
X002373249Y002120407D01*
X002375513Y002119066D01*
X002377682Y002117577D01*
X002379747Y002115946D01*
X002381699Y002114181D01*
X002383528Y002112290D01*
X002385227Y002110281D01*
X002386788Y002108162D01*
X002388204Y002105945D01*
X002389468Y002103637D01*
X002390576Y002101250D01*
X002391522Y002098795D01*
X002392301Y002096282D01*
X002392912Y002093722D01*
X002393349Y002091128D01*
X002393613Y002088510D01*
X002393701Y002085880D01*
X002393701Y000898714D01*
X002393585Y000895700D01*
X002393239Y000892704D01*
X002392665Y000889744D01*
X002391866Y000886836D01*
X002390847Y000883998D01*
X002389613Y000881246D01*
X002388173Y000878597D01*
X002386534Y000876065D01*
X002384706Y000873667D01*
X002382700Y000871415D01*
X002380527Y000869324D01*
X002378200Y000867405D01*
X002375734Y000865670D01*
X002373142Y000864128D01*
X002370440Y000862790D01*
X002367643Y000861662D01*
X002364768Y000860752D01*
X002361832Y000860065D01*
X002358851Y000859604D01*
X002355845Y000859373D01*
X002336159Y000858615D01*
X002332992Y000858621D01*
X002329836Y000858881D01*
X002326711Y000859394D01*
X002323637Y000860156D01*
X002320635Y000861163D01*
X002317723Y000862408D01*
X002314920Y000863884D01*
X002312245Y000865579D01*
X002309716Y000867484D01*
X002307347Y000869587D01*
X002305155Y000871873D01*
X002303154Y000874327D01*
X002301357Y000876935D01*
X002299775Y000879679D01*
X002298419Y000882541D01*
X002297297Y000885502D01*
X002296417Y000888544D01*
X002295784Y000891648D01*
X002295403Y000894792D01*
X002295275Y000897956D01*
X002295275Y002090569D01*
X001696850Y002096025D02*
X001696850Y002096025D01*
X001696975Y002099157D01*
X001697348Y002102269D01*
X001697968Y002105341D01*
X001698830Y002108355D01*
X001699930Y002111290D01*
X001701259Y002114128D01*
X001702810Y002116852D01*
X001704573Y002119444D01*
X001706536Y002121887D01*
X001708687Y002124167D01*
X001711013Y002126268D01*
X001713499Y002128177D01*
X001716129Y002129882D01*
X001718886Y002131373D01*
X001721752Y002132640D01*
X001724711Y002133675D01*
X001727743Y002134471D01*
X001730828Y002135024D01*
X001733947Y002135329D01*
X001737081Y002135386D01*
X001756766Y002134955D01*
X001759809Y002134770D01*
X001762828Y002134351D01*
X001765806Y002133699D01*
X001768724Y002132819D01*
X001771566Y002131716D01*
X001774314Y002130396D01*
X001776951Y002128867D01*
X001779462Y002127139D01*
X001781832Y002125222D01*
X001784047Y002123127D01*
X001786093Y002120867D01*
X001787958Y002118456D01*
X001789630Y002115908D01*
X001791101Y002113237D01*
X001792360Y002110462D01*
X001793401Y002107597D01*
X001794217Y002104660D01*
X001794804Y002101668D01*
X001795157Y002098640D01*
X001795275Y002095594D01*
X001795275Y000895827D01*
X001795181Y000893105D01*
X001794899Y000890397D01*
X001794430Y000887714D01*
X001793777Y000885070D01*
X001792943Y000882478D01*
X001791932Y000879949D01*
X001790748Y000877497D01*
X001789397Y000875132D01*
X001787887Y000872866D01*
X001786223Y000870710D01*
X001784414Y000868674D01*
X001782469Y000866769D01*
X001780396Y000865002D01*
X001778207Y000863382D01*
X001775911Y000861918D01*
X001773519Y000860617D01*
X001771042Y000859483D01*
X001768494Y000858524D01*
X001765885Y000857743D01*
X001763228Y000857144D01*
X001743543Y000853417D01*
X001740119Y000852924D01*
X001736665Y000852733D01*
X001733208Y000852846D01*
X001729773Y000853262D01*
X001726389Y000853977D01*
X001723081Y000854988D01*
X001719873Y000856284D01*
X001716793Y000857857D01*
X001713862Y000859695D01*
X001711103Y000861783D01*
X001708539Y000864105D01*
X001706188Y000866643D01*
X001704070Y000869377D01*
X001702199Y000872287D01*
X001700591Y000875350D01*
X001699258Y000878542D01*
X001698211Y000881839D01*
X001697457Y000885215D01*
X001697002Y000888644D01*
X001696850Y000892100D01*
X001696850Y002096025D01*
X001098425Y002098549D02*
X001098425Y002098549D01*
X001098510Y002101141D01*
X001098766Y002103721D01*
X001099191Y002106279D01*
X001099784Y002108804D01*
X001100541Y002111284D01*
X001101460Y002113709D01*
X001102537Y002116068D01*
X001103767Y002118351D01*
X001105144Y002120548D01*
X001106663Y002122649D01*
X001108317Y002124646D01*
X001110099Y002126530D01*
X001112001Y002128293D01*
X001114015Y002129926D01*
X001116132Y002131424D01*
X001118343Y002132778D01*
X001120639Y002133985D01*
X001123009Y002135037D01*
X001125443Y002135931D01*
X001127930Y002136663D01*
X001147615Y002141758D01*
X001151128Y002142498D01*
X001154693Y002142915D01*
X001158281Y002143006D01*
X001161863Y002142770D01*
X001165408Y002142208D01*
X001168887Y002141325D01*
X001172272Y002140130D01*
X001175533Y002138631D01*
X001178645Y002136841D01*
X001181580Y002134776D01*
X001184315Y002132452D01*
X001186828Y002129888D01*
X001189096Y002127106D01*
X001191101Y002124129D01*
X001192827Y002120982D01*
X001194259Y002117690D01*
X001195386Y002114282D01*
X001196197Y002110786D01*
X001196687Y002107230D01*
X001196850Y002103644D01*
X001196850Y000893467D01*
X001196719Y000890262D01*
X001196328Y000887079D01*
X001195680Y000883938D01*
X001194777Y000880860D01*
X001193627Y000877866D01*
X001192238Y000874976D01*
X001190617Y000872208D01*
X001188777Y000869581D01*
X001186729Y000867113D01*
X001184487Y000864820D01*
X001182065Y000862717D01*
X001179481Y000860818D01*
X001176750Y000859135D01*
X001173892Y000857681D01*
X001170924Y000856463D01*
X001167868Y000855492D01*
X001164742Y000854772D01*
X001161569Y000854310D01*
X001158368Y000854107D01*
X001155161Y000854165D01*
X001135476Y000855327D01*
X001132514Y000855614D01*
X001129583Y000856124D01*
X001126699Y000856854D01*
X001123878Y000857800D01*
X001121136Y000858956D01*
X001118490Y000860316D01*
X001115954Y000861872D01*
X001113542Y000863615D01*
X001111269Y000865535D01*
X001109148Y000867622D01*
X001107190Y000869862D01*
X001105407Y000872244D01*
X001103809Y000874754D01*
X001102405Y000877378D01*
X001101204Y000880100D01*
X001100211Y000882905D01*
X001099433Y000885776D01*
X001098874Y000888699D01*
X001098537Y000891655D01*
X001098425Y000894628D01*
X001098425Y002098549D01*
X000500000Y002091168D02*
X000500000Y002091168D01*
X000500169Y002094814D01*
X000500675Y002098428D01*
X000501513Y002101980D01*
X000502677Y002105439D01*
X000504156Y002108775D01*
X000505938Y002111960D01*
X000508007Y002114967D01*
X000510345Y002117769D01*
X000512933Y002120342D01*
X000515748Y002122664D01*
X000518766Y002124716D01*
X000521960Y002126480D01*
X000525305Y002127941D01*
X000528770Y002129085D01*
X000532327Y002129903D01*
X000535944Y002130389D01*
X000539590Y002130538D01*
X000543235Y002130348D01*
X000546846Y002129822D01*
X000550393Y002128964D01*
X000570078Y002123222D01*
X000572486Y002122435D01*
X000574838Y002121495D01*
X000577125Y002120405D01*
X000579337Y002119171D01*
X000581465Y002117797D01*
X000583500Y002116289D01*
X000585434Y002114653D01*
X000587259Y002112896D01*
X000588967Y002111026D01*
X000590551Y002109049D01*
X000592005Y002106975D01*
X000593322Y002104811D01*
X000594498Y002102568D01*
X000595527Y002100253D01*
X000596405Y002097877D01*
X000597128Y002095449D01*
X000597694Y002092980D01*
X000598099Y002090480D01*
X000598343Y002087959D01*
X000598425Y002085427D01*
X000598425Y000903501D01*
X000598317Y000900592D01*
X000597995Y000897698D01*
X000597460Y000894836D01*
X000596714Y000892022D01*
X000595763Y000889270D01*
X000594611Y000886596D01*
X000593264Y000884015D01*
X000591731Y000881540D01*
X000590018Y000879185D01*
X000588137Y000876963D01*
X000586096Y000874887D01*
X000583908Y000872967D01*
X000581583Y000871214D01*
X000579135Y000869637D01*
X000576578Y000868246D01*
X000573925Y000867047D01*
X000571190Y000866048D01*
X000568389Y000865253D01*
X000565537Y000864668D01*
X000562649Y000864295D01*
X000542964Y000862491D01*
X000539697Y000862328D01*
X000536428Y000862436D01*
X000533179Y000862816D01*
X000529972Y000863464D01*
X000526831Y000864376D01*
X000523776Y000865546D01*
X000520829Y000866965D01*
X000518010Y000868624D01*
X000515338Y000870512D01*
X000512832Y000872614D01*
X000510509Y000874918D01*
X000508386Y000877406D01*
X000506477Y000880062D01*
X000504794Y000882867D01*
X000503350Y000885803D01*
X000502155Y000888848D01*
X000501217Y000891981D01*
X000500542Y000895182D01*
X000500136Y000898428D01*
X000500000Y000901696D01*
X000500000Y002091168D01*
M02*