%MOIN*%
%OFA0B0*%
%FSLAX46Y46*%
%IPPOS*%
%LPD*%
%ADD10R,0.066929133858267723X0.066929133858267723*%
%ADD11O,0.066929133858267723X0.066929133858267723*%
%ADD12C,0.070866141732283464*%
%ADD13R,0.070866141732283464X0.070866141732283464*%
%ADD14C,0.031496062992125991*%
%ADD15C,0.016*%
%ADD16C,0.01*%
%ADD27R,0.066929133858267723X0.066929133858267723*%
%ADD28O,0.066929133858267723X0.066929133858267723*%
%ADD29C,0.070866141732283464*%
%ADD30R,0.070866141732283464X0.070866141732283464*%
%ADD31C,0.031496062992125991*%
%ADD32C,0.016*%
%ADD33C,0.01*%
%ADD34R,0.066929133858267723X0.066929133858267723*%
%ADD35O,0.066929133858267723X0.066929133858267723*%
%ADD36C,0.070866141732283464*%
%ADD37R,0.070866141732283464X0.070866141732283464*%
%ADD38C,0.031496062992125991*%
%ADD39C,0.016*%
%ADD40C,0.01*%
%ADD41R,0.066929133858267723X0.066929133858267723*%
%ADD42O,0.066929133858267723X0.066929133858267723*%
%ADD43C,0.070866141732283464*%
%ADD44R,0.070866141732283464X0.070866141732283464*%
%ADD45C,0.031496062992125991*%
%ADD46C,0.016*%
%ADD47C,0.01*%
%ADD48R,0.066929133858267723X0.066929133858267723*%
%ADD49O,0.066929133858267723X0.066929133858267723*%
%ADD50C,0.070866141732283464*%
%ADD51R,0.070866141732283464X0.070866141732283464*%
%ADD52C,0.031496062992125991*%
%ADD53C,0.016*%
%ADD54C,0.01*%
%ADD55R,0.066929133858267723X0.066929133858267723*%
%ADD56O,0.066929133858267723X0.066929133858267723*%
%ADD57C,0.070866141732283464*%
%ADD58R,0.070866141732283464X0.070866141732283464*%
%ADD59C,0.031496062992125991*%
%ADD60C,0.016*%
%ADD61C,0.01*%
G01*
D10*
X-0007750000Y0003800000D02*
X0000200000Y0000150000D03*
D11*
X0000300000Y0000150000D03*
X0000300000Y0000050000D03*
D10*
X0000200000Y0000050000D03*
D12*
X0000099999Y0002300000D03*
D13*
X0000099999Y0002200000D03*
X0000399999Y0002300000D03*
D12*
X0000399999Y0002200000D03*
X0000099999Y0002100000D03*
D13*
X0000099999Y0002000000D03*
D12*
X0000399999Y0002000000D03*
D13*
X0000399999Y0002100000D03*
X0000099999Y0001750000D03*
D12*
X0000099999Y0001850000D03*
D13*
X0000399999Y0001850000D03*
D12*
X0000399999Y0001750000D03*
X0000099999Y0001650000D03*
D13*
X0000099999Y0001550000D03*
X0000399999Y0001650000D03*
D12*
X0000399999Y0001550000D03*
X0000099999Y0001450000D03*
D13*
X0000099999Y0001350000D03*
X0000399999Y0001450000D03*
D12*
X0000399999Y0001350000D03*
D13*
X0000099999Y0001150000D03*
D12*
X0000099999Y0001250000D03*
X0000399999Y0001150000D03*
D13*
X0000399999Y0001250000D03*
D12*
X0000099999Y0001050000D03*
D13*
X0000099999Y0000950000D03*
X0000399999Y0001050000D03*
D12*
X0000399999Y0000950000D03*
D14*
X0000159999Y0000500000D03*
X0000309999Y0001850000D03*
X0000300000Y0000830000D03*
X0000320000Y0002100000D03*
X0000330000Y0000790000D03*
X0000320000Y0001650000D03*
X0000320000Y0000890000D03*
X0000369999Y0000890000D03*
X0000350000Y0001190000D03*
X0000339999Y0001400000D03*
X0000380000Y0000685000D03*
X0000324999Y0002300000D03*
X0000360000Y0000620000D03*
X0000129999Y0000679999D03*
X0000180000Y0002200000D03*
X0000189999Y0002000000D03*
X0000110000Y0000890000D03*
X0000140000Y0000860000D03*
X0000189999Y0001750000D03*
X0000189999Y0001550000D03*
X0000169999Y0000830000D03*
X0000180000Y0001350000D03*
X0000180000Y0000880000D03*
X0000260000Y0000670000D03*
X0000169999Y0000580000D03*
D15*
X0000300000Y0000050000D02*
X0000260000Y0000090000D01*
X0000260000Y0000090000D02*
X0000249999Y0000100000D01*
X0000249999Y0000100000D02*
X0000249999Y0000160000D01*
X0000249999Y0000160000D02*
X0000249999Y0000240000D01*
X0000249999Y0000240000D02*
X0000159999Y0000330000D01*
X0000159999Y0000330000D02*
X0000159999Y0000500000D01*
D16*
X0000287874Y0001827874D02*
X0000309999Y0001850000D01*
X0000287874Y0000862125D02*
X0000287874Y0001827874D01*
X0000300000Y0000850000D02*
X0000287874Y0000862125D01*
X0000300000Y0000830000D02*
X0000300000Y0000850000D01*
X0000320000Y0002100000D02*
X0000270000Y0002050000D01*
X0000270000Y0002050000D02*
X0000270000Y0000820000D01*
X0000270000Y0000810000D02*
X0000270000Y0000820000D01*
X0000290000Y0000790000D02*
X0000270000Y0000810000D01*
X0000330000Y0000790000D02*
X0000290000Y0000790000D01*
X0000320000Y0001634251D02*
X0000320000Y0001650000D01*
X0000305748Y0001620000D02*
X0000320000Y0001634251D01*
X0000305748Y0000904251D02*
X0000305748Y0001620000D01*
X0000320000Y0000890000D02*
X0000305748Y0000904251D01*
X0000330000Y0000930000D02*
X0000330000Y0001160000D01*
X0000369999Y0000890000D02*
X0000330000Y0000930000D01*
X0000330000Y0001170000D02*
X0000330000Y0001160000D01*
X0000350000Y0001190000D02*
X0000330000Y0001170000D01*
X0000429999Y0001400000D02*
X0000339999Y0001400000D01*
X0000459999Y0001370000D02*
X0000429999Y0001400000D01*
X0000459999Y0001185000D02*
X0000459999Y0001370000D01*
X0000380000Y0000685000D02*
X0000405000Y0000710000D01*
X0000405000Y0000710000D02*
X0000405000Y0000865000D01*
X0000405000Y0000865000D02*
X0000459999Y0000920000D01*
X0000459999Y0000920000D02*
X0000459999Y0001170000D01*
X0000459999Y0001170000D02*
X0000459999Y0001185000D01*
X0000249999Y0002225000D02*
X0000249999Y0000750000D01*
X0000324999Y0002300000D02*
X0000249999Y0002225000D01*
X0000249999Y0000730000D02*
X0000249999Y0000750000D01*
X0000360000Y0000620000D02*
X0000249999Y0000730000D01*
X0000140000Y0000690000D02*
X0000129999Y0000679999D01*
X0000210000Y0000690000D02*
X0000140000Y0000690000D01*
X0000180000Y0002200000D02*
X0000230000Y0002150000D01*
X0000230000Y0002150000D02*
X0000230000Y0000710000D01*
X0000230000Y0000710000D02*
X0000210000Y0000690000D01*
X0000189999Y0001970000D02*
X0000189999Y0002000000D01*
X0000150000Y0001930000D02*
X0000189999Y0001970000D01*
X0000080000Y0001930000D02*
X0000150000Y0001930000D01*
X0000040000Y0001890000D02*
X0000080000Y0001930000D01*
X0000040000Y0000910000D02*
X0000040000Y0001890000D01*
X0000060000Y0000890000D02*
X0000040000Y0000910000D01*
X0000110000Y0000890000D02*
X0000060000Y0000890000D01*
X0000212125Y0001622125D02*
X0000212125Y0001632125D01*
X0000159999Y0001570000D02*
X0000212125Y0001622125D01*
X0000159999Y0001530000D02*
X0000159999Y0001570000D01*
X0000194251Y0001495748D02*
X0000159999Y0001530000D01*
X0000194251Y0001485748D02*
X0000194251Y0001495748D01*
X0000140000Y0000860000D02*
X0000140000Y0000890000D01*
X0000140000Y0000890000D02*
X0000169999Y0000920000D01*
X0000169999Y0000920000D02*
X0000169999Y0001300000D01*
X0000169999Y0001300000D02*
X0000150000Y0001320000D01*
X0000150000Y0001320000D02*
X0000150000Y0001370000D01*
X0000150000Y0001370000D02*
X0000194251Y0001414251D01*
X0000194251Y0001414251D02*
X0000194251Y0001485748D01*
X0000212125Y0001632125D02*
X0000212125Y0001727874D01*
X0000212125Y0001727874D02*
X0000189999Y0001750000D01*
X0000212125Y0001527874D02*
X0000189999Y0001550000D01*
X0000212125Y0001517874D02*
X0000212125Y0001527874D01*
X0000169999Y0000830000D02*
X0000182125Y0000830000D01*
X0000182125Y0000830000D02*
X0000212125Y0000860000D01*
X0000212125Y0000860000D02*
X0000212125Y0001517874D01*
X0000194251Y0001335748D02*
X0000180000Y0001350000D01*
X0000194251Y0000904251D02*
X0000194251Y0001335748D01*
X0000180000Y0000890000D02*
X0000194251Y0000904251D01*
X0000180000Y0000880000D02*
X0000180000Y0000890000D01*
X0000169999Y0000580000D02*
X0000260000Y0000670000D01*
G04 next file*
G04 #@! TF.GenerationSoftware,KiCad,Pcbnew,(5.1.10)-1*
G04 #@! TF.CreationDate,2021-10-24T19:42:44-07:00*
G04 #@! TF.ProjectId,project,70726f6a-6563-4742-9e6b-696361645f70,rev?*
G04 #@! TF.SameCoordinates,Original*
G04 #@! TF.FileFunction,Copper,L1,Top*
G04 #@! TF.FilePolarity,Positive*
G04 Gerber Fmt 4.6, Leading zero omitted, Abs format (unit mm)*
G04 Created by KiCad (PCBNEW (5.1.10)-1) date 2021-10-24 19:42:44*
G01*
G04 APERTURE LIST*
G04 #@! TA.AperFunction,ComponentPad*
G04 #@! TD*
G04 #@! TA.AperFunction,ComponentPad*
G04 #@! TD*
G04 #@! TA.AperFunction,ComponentPad*
G04 #@! TD*
G04 #@! TA.AperFunction,ComponentPad*
G04 #@! TD*
G04 #@! TA.AperFunction,ViaPad*
G04 #@! TD*
G04 #@! TA.AperFunction,Conductor*
G04 #@! TD*
G04 #@! TA.AperFunction,Conductor*
G04 #@! TD*
G04 APERTURE END LIST*
D27*
X-0007151574Y0003800000D02*
X0000798425Y0000150000D03*
D28*
X0000898425Y0000150000D03*
X0000898425Y0000050000D03*
D27*
X0000798425Y0000050000D03*
D29*
X0000698425Y0002300000D03*
D30*
X0000698425Y0002200000D03*
X0000998425Y0002300000D03*
D29*
X0000998425Y0002200000D03*
X0000698425Y0002100000D03*
D30*
X0000698425Y0002000000D03*
D29*
X0000998425Y0002000000D03*
D30*
X0000998425Y0002100000D03*
X0000698425Y0001750000D03*
D29*
X0000698425Y0001850000D03*
D30*
X0000998425Y0001850000D03*
D29*
X0000998425Y0001750000D03*
X0000698425Y0001650000D03*
D30*
X0000698425Y0001550000D03*
X0000998425Y0001650000D03*
D29*
X0000998425Y0001550000D03*
X0000698425Y0001450000D03*
D30*
X0000698425Y0001350000D03*
X0000998425Y0001450000D03*
D29*
X0000998425Y0001350000D03*
D30*
X0000698425Y0001150000D03*
D29*
X0000698425Y0001250000D03*
X0000998425Y0001150000D03*
D30*
X0000998425Y0001250000D03*
D29*
X0000698425Y0001050000D03*
D30*
X0000698425Y0000950000D03*
X0000998425Y0001050000D03*
D29*
X0000998425Y0000950000D03*
D31*
X0000758425Y0000500000D03*
X0000908425Y0001850000D03*
X0000898425Y0000830000D03*
X0000918425Y0002100000D03*
X0000928425Y0000790000D03*
X0000918425Y0001650000D03*
X0000918425Y0000890000D03*
X0000968425Y0000890000D03*
X0000948425Y0001190000D03*
X0000938425Y0001400000D03*
X0000978425Y0000685000D03*
X0000923425Y0002300000D03*
X0000958425Y0000620000D03*
X0000728425Y0000679999D03*
X0000778425Y0002200000D03*
X0000788425Y0002000000D03*
X0000708425Y0000890000D03*
X0000738425Y0000860000D03*
X0000788425Y0001750000D03*
X0000788425Y0001550000D03*
X0000768425Y0000830000D03*
X0000778425Y0001350000D03*
X0000778425Y0000880000D03*
X0000858425Y0000670000D03*
X0000768425Y0000580000D03*
D32*
X0000898425Y0000050000D02*
X0000858425Y0000090000D01*
X0000858425Y0000090000D02*
X0000848425Y0000100000D01*
X0000848425Y0000100000D02*
X0000848425Y0000160000D01*
X0000848425Y0000160000D02*
X0000848425Y0000240000D01*
X0000848425Y0000240000D02*
X0000758425Y0000330000D01*
X0000758425Y0000330000D02*
X0000758425Y0000500000D01*
D33*
X0000886299Y0001827874D02*
X0000908425Y0001850000D01*
X0000886299Y0000862125D02*
X0000886299Y0001827874D01*
X0000898425Y0000850000D02*
X0000886299Y0000862125D01*
X0000898425Y0000830000D02*
X0000898425Y0000850000D01*
X0000918425Y0002100000D02*
X0000868425Y0002050000D01*
X0000868425Y0002050000D02*
X0000868425Y0000820000D01*
X0000868425Y0000810000D02*
X0000868425Y0000820000D01*
X0000888425Y0000790000D02*
X0000868425Y0000810000D01*
X0000928425Y0000790000D02*
X0000888425Y0000790000D01*
X0000918425Y0001634251D02*
X0000918425Y0001650000D01*
X0000904173Y0001620000D02*
X0000918425Y0001634251D01*
X0000904173Y0000904251D02*
X0000904173Y0001620000D01*
X0000918425Y0000890000D02*
X0000904173Y0000904251D01*
X0000928425Y0000930000D02*
X0000928425Y0001160000D01*
X0000968425Y0000890000D02*
X0000928425Y0000930000D01*
X0000928425Y0001170000D02*
X0000928425Y0001160000D01*
X0000948425Y0001190000D02*
X0000928425Y0001170000D01*
X0001028425Y0001400000D02*
X0000938425Y0001400000D01*
X0001058425Y0001370000D02*
X0001028425Y0001400000D01*
X0001058425Y0001185000D02*
X0001058425Y0001370000D01*
X0000978425Y0000685000D02*
X0001003425Y0000710000D01*
X0001003425Y0000710000D02*
X0001003425Y0000865000D01*
X0001003425Y0000865000D02*
X0001058425Y0000920000D01*
X0001058425Y0000920000D02*
X0001058425Y0001170000D01*
X0001058425Y0001170000D02*
X0001058425Y0001185000D01*
X0000848425Y0002225000D02*
X0000848425Y0000750000D01*
X0000923425Y0002300000D02*
X0000848425Y0002225000D01*
X0000848425Y0000730000D02*
X0000848425Y0000750000D01*
X0000958425Y0000620000D02*
X0000848425Y0000730000D01*
X0000738425Y0000690000D02*
X0000728425Y0000679999D01*
X0000808425Y0000690000D02*
X0000738425Y0000690000D01*
X0000778425Y0002200000D02*
X0000828425Y0002150000D01*
X0000828425Y0002150000D02*
X0000828425Y0000710000D01*
X0000828425Y0000710000D02*
X0000808425Y0000690000D01*
X0000788425Y0001970000D02*
X0000788425Y0002000000D01*
X0000748425Y0001930000D02*
X0000788425Y0001970000D01*
X0000678425Y0001930000D02*
X0000748425Y0001930000D01*
X0000638425Y0001890000D02*
X0000678425Y0001930000D01*
X0000638425Y0000910000D02*
X0000638425Y0001890000D01*
X0000658425Y0000890000D02*
X0000638425Y0000910000D01*
X0000708425Y0000890000D02*
X0000658425Y0000890000D01*
X0000810551Y0001622125D02*
X0000810551Y0001632125D01*
X0000758425Y0001570000D02*
X0000810551Y0001622125D01*
X0000758425Y0001530000D02*
X0000758425Y0001570000D01*
X0000792677Y0001495748D02*
X0000758425Y0001530000D01*
X0000792677Y0001485748D02*
X0000792677Y0001495748D01*
X0000738425Y0000860000D02*
X0000738425Y0000890000D01*
X0000738425Y0000890000D02*
X0000768425Y0000920000D01*
X0000768425Y0000920000D02*
X0000768425Y0001300000D01*
X0000768425Y0001300000D02*
X0000748425Y0001320000D01*
X0000748425Y0001320000D02*
X0000748425Y0001370000D01*
X0000748425Y0001370000D02*
X0000792677Y0001414251D01*
X0000792677Y0001414251D02*
X0000792677Y0001485748D01*
X0000810551Y0001632125D02*
X0000810551Y0001727874D01*
X0000810551Y0001727874D02*
X0000788425Y0001750000D01*
X0000810551Y0001527874D02*
X0000788425Y0001550000D01*
X0000810551Y0001517874D02*
X0000810551Y0001527874D01*
X0000768425Y0000830000D02*
X0000780551Y0000830000D01*
X0000780551Y0000830000D02*
X0000810551Y0000860000D01*
X0000810551Y0000860000D02*
X0000810551Y0001517874D01*
X0000792677Y0001335748D02*
X0000778425Y0001350000D01*
X0000792677Y0000904251D02*
X0000792677Y0001335748D01*
X0000778425Y0000890000D02*
X0000792677Y0000904251D01*
X0000778425Y0000880000D02*
X0000778425Y0000890000D01*
X0000768425Y0000580000D02*
X0000858425Y0000670000D01*
G04 next file*
G04 #@! TF.GenerationSoftware,KiCad,Pcbnew,(5.1.10)-1*
G04 #@! TF.CreationDate,2021-10-24T19:42:44-07:00*
G04 #@! TF.ProjectId,project,70726f6a-6563-4742-9e6b-696361645f70,rev?*
G04 #@! TF.SameCoordinates,Original*
G04 #@! TF.FileFunction,Copper,L1,Top*
G04 #@! TF.FilePolarity,Positive*
G04 Gerber Fmt 4.6, Leading zero omitted, Abs format (unit mm)*
G04 Created by KiCad (PCBNEW (5.1.10)-1) date 2021-10-24 19:42:44*
G01*
G04 APERTURE LIST*
G04 #@! TA.AperFunction,ComponentPad*
G04 #@! TD*
G04 #@! TA.AperFunction,ComponentPad*
G04 #@! TD*
G04 #@! TA.AperFunction,ComponentPad*
G04 #@! TD*
G04 #@! TA.AperFunction,ComponentPad*
G04 #@! TD*
G04 #@! TA.AperFunction,ViaPad*
G04 #@! TD*
G04 #@! TA.AperFunction,Conductor*
G04 #@! TD*
G04 #@! TA.AperFunction,Conductor*
G04 #@! TD*
G04 APERTURE END LIST*
D34*
X-0006553149Y0003800000D02*
X0001396850Y0000150000D03*
D35*
X0001496850Y0000150000D03*
X0001496850Y0000050000D03*
D34*
X0001396850Y0000050000D03*
D36*
X0001296850Y0002300000D03*
D37*
X0001296850Y0002200000D03*
X0001596850Y0002300000D03*
D36*
X0001596850Y0002200000D03*
X0001296850Y0002100000D03*
D37*
X0001296850Y0002000000D03*
D36*
X0001596850Y0002000000D03*
D37*
X0001596850Y0002100000D03*
X0001296850Y0001750000D03*
D36*
X0001296850Y0001850000D03*
D37*
X0001596850Y0001850000D03*
D36*
X0001596850Y0001750000D03*
X0001296850Y0001650000D03*
D37*
X0001296850Y0001550000D03*
X0001596850Y0001650000D03*
D36*
X0001596850Y0001550000D03*
X0001296850Y0001450000D03*
D37*
X0001296850Y0001350000D03*
X0001596850Y0001450000D03*
D36*
X0001596850Y0001350000D03*
D37*
X0001296850Y0001150000D03*
D36*
X0001296850Y0001250000D03*
X0001596850Y0001150000D03*
D37*
X0001596850Y0001250000D03*
D36*
X0001296850Y0001050000D03*
D37*
X0001296850Y0000950000D03*
X0001596850Y0001050000D03*
D36*
X0001596850Y0000950000D03*
D38*
X0001356850Y0000500000D03*
X0001506850Y0001850000D03*
X0001496850Y0000830000D03*
X0001516850Y0002100000D03*
X0001526850Y0000790000D03*
X0001516850Y0001650000D03*
X0001516850Y0000890000D03*
X0001566850Y0000890000D03*
X0001546850Y0001190000D03*
X0001536850Y0001400000D03*
X0001576850Y0000685000D03*
X0001521850Y0002300000D03*
X0001556850Y0000620000D03*
X0001326850Y0000679999D03*
X0001376850Y0002200000D03*
X0001386850Y0002000000D03*
X0001306850Y0000890000D03*
X0001336850Y0000860000D03*
X0001386850Y0001750000D03*
X0001386850Y0001550000D03*
X0001366850Y0000830000D03*
X0001376850Y0001350000D03*
X0001376850Y0000880000D03*
X0001456850Y0000670000D03*
X0001366850Y0000580000D03*
D39*
X0001496850Y0000050000D02*
X0001456850Y0000090000D01*
X0001456850Y0000090000D02*
X0001446850Y0000100000D01*
X0001446850Y0000100000D02*
X0001446850Y0000160000D01*
X0001446850Y0000160000D02*
X0001446850Y0000240000D01*
X0001446850Y0000240000D02*
X0001356850Y0000330000D01*
X0001356850Y0000330000D02*
X0001356850Y0000500000D01*
D40*
X0001484724Y0001827874D02*
X0001506850Y0001850000D01*
X0001484724Y0000862125D02*
X0001484724Y0001827874D01*
X0001496850Y0000850000D02*
X0001484724Y0000862125D01*
X0001496850Y0000830000D02*
X0001496850Y0000850000D01*
X0001516850Y0002100000D02*
X0001466850Y0002050000D01*
X0001466850Y0002050000D02*
X0001466850Y0000820000D01*
X0001466850Y0000810000D02*
X0001466850Y0000820000D01*
X0001486850Y0000790000D02*
X0001466850Y0000810000D01*
X0001526850Y0000790000D02*
X0001486850Y0000790000D01*
X0001516850Y0001634251D02*
X0001516850Y0001650000D01*
X0001502598Y0001620000D02*
X0001516850Y0001634251D01*
X0001502598Y0000904251D02*
X0001502598Y0001620000D01*
X0001516850Y0000890000D02*
X0001502598Y0000904251D01*
X0001526850Y0000930000D02*
X0001526850Y0001160000D01*
X0001566850Y0000890000D02*
X0001526850Y0000930000D01*
X0001526850Y0001170000D02*
X0001526850Y0001160000D01*
X0001546850Y0001190000D02*
X0001526850Y0001170000D01*
X0001626850Y0001400000D02*
X0001536850Y0001400000D01*
X0001656850Y0001370000D02*
X0001626850Y0001400000D01*
X0001656850Y0001185000D02*
X0001656850Y0001370000D01*
X0001576850Y0000685000D02*
X0001601850Y0000710000D01*
X0001601850Y0000710000D02*
X0001601850Y0000865000D01*
X0001601850Y0000865000D02*
X0001656850Y0000920000D01*
X0001656850Y0000920000D02*
X0001656850Y0001170000D01*
X0001656850Y0001170000D02*
X0001656850Y0001185000D01*
X0001446850Y0002225000D02*
X0001446850Y0000750000D01*
X0001521850Y0002300000D02*
X0001446850Y0002225000D01*
X0001446850Y0000730000D02*
X0001446850Y0000750000D01*
X0001556850Y0000620000D02*
X0001446850Y0000730000D01*
X0001336850Y0000690000D02*
X0001326850Y0000679999D01*
X0001406850Y0000690000D02*
X0001336850Y0000690000D01*
X0001376850Y0002200000D02*
X0001426850Y0002150000D01*
X0001426850Y0002150000D02*
X0001426850Y0000710000D01*
X0001426850Y0000710000D02*
X0001406850Y0000690000D01*
X0001386850Y0001970000D02*
X0001386850Y0002000000D01*
X0001346850Y0001930000D02*
X0001386850Y0001970000D01*
X0001276850Y0001930000D02*
X0001346850Y0001930000D01*
X0001236850Y0001890000D02*
X0001276850Y0001930000D01*
X0001236850Y0000910000D02*
X0001236850Y0001890000D01*
X0001256850Y0000890000D02*
X0001236850Y0000910000D01*
X0001306850Y0000890000D02*
X0001256850Y0000890000D01*
X0001408976Y0001622125D02*
X0001408976Y0001632125D01*
X0001356850Y0001570000D02*
X0001408976Y0001622125D01*
X0001356850Y0001530000D02*
X0001356850Y0001570000D01*
X0001391102Y0001495748D02*
X0001356850Y0001530000D01*
X0001391102Y0001485748D02*
X0001391102Y0001495748D01*
X0001336850Y0000860000D02*
X0001336850Y0000890000D01*
X0001336850Y0000890000D02*
X0001366850Y0000920000D01*
X0001366850Y0000920000D02*
X0001366850Y0001300000D01*
X0001366850Y0001300000D02*
X0001346850Y0001320000D01*
X0001346850Y0001320000D02*
X0001346850Y0001370000D01*
X0001346850Y0001370000D02*
X0001391102Y0001414251D01*
X0001391102Y0001414251D02*
X0001391102Y0001485748D01*
X0001408976Y0001632125D02*
X0001408976Y0001727874D01*
X0001408976Y0001727874D02*
X0001386850Y0001750000D01*
X0001408976Y0001527874D02*
X0001386850Y0001550000D01*
X0001408976Y0001517874D02*
X0001408976Y0001527874D01*
X0001366850Y0000830000D02*
X0001378976Y0000830000D01*
X0001378976Y0000830000D02*
X0001408976Y0000860000D01*
X0001408976Y0000860000D02*
X0001408976Y0001517874D01*
X0001391102Y0001335748D02*
X0001376850Y0001350000D01*
X0001391102Y0000904251D02*
X0001391102Y0001335748D01*
X0001376850Y0000890000D02*
X0001391102Y0000904251D01*
X0001376850Y0000880000D02*
X0001376850Y0000890000D01*
X0001366850Y0000580000D02*
X0001456850Y0000670000D01*
G04 next file*
G04 #@! TF.GenerationSoftware,KiCad,Pcbnew,(5.1.10)-1*
G04 #@! TF.CreationDate,2021-10-24T19:42:44-07:00*
G04 #@! TF.ProjectId,project,70726f6a-6563-4742-9e6b-696361645f70,rev?*
G04 #@! TF.SameCoordinates,Original*
G04 #@! TF.FileFunction,Copper,L1,Top*
G04 #@! TF.FilePolarity,Positive*
G04 Gerber Fmt 4.6, Leading zero omitted, Abs format (unit mm)*
G04 Created by KiCad (PCBNEW (5.1.10)-1) date 2021-10-24 19:42:44*
G01*
G04 APERTURE LIST*
G04 #@! TA.AperFunction,ComponentPad*
G04 #@! TD*
G04 #@! TA.AperFunction,ComponentPad*
G04 #@! TD*
G04 #@! TA.AperFunction,ComponentPad*
G04 #@! TD*
G04 #@! TA.AperFunction,ComponentPad*
G04 #@! TD*
G04 #@! TA.AperFunction,ViaPad*
G04 #@! TD*
G04 #@! TA.AperFunction,Conductor*
G04 #@! TD*
G04 #@! TA.AperFunction,Conductor*
G04 #@! TD*
G04 APERTURE END LIST*
D41*
X-0005954724Y0003800000D02*
X0001995275Y0000150000D03*
D42*
X0002095275Y0000150000D03*
X0002095275Y0000050000D03*
D41*
X0001995275Y0000050000D03*
D43*
X0001895275Y0002300000D03*
D44*
X0001895275Y0002200000D03*
X0002195275Y0002300000D03*
D43*
X0002195275Y0002200000D03*
X0001895275Y0002100000D03*
D44*
X0001895275Y0002000000D03*
D43*
X0002195275Y0002000000D03*
D44*
X0002195275Y0002100000D03*
X0001895275Y0001750000D03*
D43*
X0001895275Y0001850000D03*
D44*
X0002195275Y0001850000D03*
D43*
X0002195275Y0001750000D03*
X0001895275Y0001650000D03*
D44*
X0001895275Y0001550000D03*
X0002195275Y0001650000D03*
D43*
X0002195275Y0001550000D03*
X0001895275Y0001450000D03*
D44*
X0001895275Y0001350000D03*
X0002195275Y0001450000D03*
D43*
X0002195275Y0001350000D03*
D44*
X0001895275Y0001150000D03*
D43*
X0001895275Y0001250000D03*
X0002195275Y0001150000D03*
D44*
X0002195275Y0001250000D03*
D43*
X0001895275Y0001050000D03*
D44*
X0001895275Y0000950000D03*
X0002195275Y0001050000D03*
D43*
X0002195275Y0000950000D03*
D45*
X0001955275Y0000500000D03*
X0002105275Y0001850000D03*
X0002095275Y0000830000D03*
X0002115275Y0002100000D03*
X0002125275Y0000790000D03*
X0002115275Y0001650000D03*
X0002115275Y0000890000D03*
X0002165275Y0000890000D03*
X0002145275Y0001190000D03*
X0002135275Y0001400000D03*
X0002175275Y0000685000D03*
X0002120275Y0002300000D03*
X0002155275Y0000620000D03*
X0001925275Y0000679999D03*
X0001975275Y0002200000D03*
X0001985275Y0002000000D03*
X0001905275Y0000890000D03*
X0001935275Y0000860000D03*
X0001985275Y0001750000D03*
X0001985275Y0001550000D03*
X0001965275Y0000830000D03*
X0001975275Y0001350000D03*
X0001975275Y0000880000D03*
X0002055275Y0000670000D03*
X0001965275Y0000580000D03*
D46*
X0002095275Y0000050000D02*
X0002055275Y0000090000D01*
X0002055275Y0000090000D02*
X0002045275Y0000100000D01*
X0002045275Y0000100000D02*
X0002045275Y0000160000D01*
X0002045275Y0000160000D02*
X0002045275Y0000240000D01*
X0002045275Y0000240000D02*
X0001955275Y0000330000D01*
X0001955275Y0000330000D02*
X0001955275Y0000500000D01*
D47*
X0002083149Y0001827874D02*
X0002105275Y0001850000D01*
X0002083149Y0000862125D02*
X0002083149Y0001827874D01*
X0002095275Y0000850000D02*
X0002083149Y0000862125D01*
X0002095275Y0000830000D02*
X0002095275Y0000850000D01*
X0002115275Y0002100000D02*
X0002065275Y0002050000D01*
X0002065275Y0002050000D02*
X0002065275Y0000820000D01*
X0002065275Y0000810000D02*
X0002065275Y0000820000D01*
X0002085275Y0000790000D02*
X0002065275Y0000810000D01*
X0002125275Y0000790000D02*
X0002085275Y0000790000D01*
X0002115275Y0001634251D02*
X0002115275Y0001650000D01*
X0002101023Y0001620000D02*
X0002115275Y0001634251D01*
X0002101023Y0000904251D02*
X0002101023Y0001620000D01*
X0002115275Y0000890000D02*
X0002101023Y0000904251D01*
X0002125275Y0000930000D02*
X0002125275Y0001160000D01*
X0002165275Y0000890000D02*
X0002125275Y0000930000D01*
X0002125275Y0001170000D02*
X0002125275Y0001160000D01*
X0002145275Y0001190000D02*
X0002125275Y0001170000D01*
X0002225275Y0001400000D02*
X0002135275Y0001400000D01*
X0002255275Y0001370000D02*
X0002225275Y0001400000D01*
X0002255275Y0001185000D02*
X0002255275Y0001370000D01*
X0002175275Y0000685000D02*
X0002200275Y0000710000D01*
X0002200275Y0000710000D02*
X0002200275Y0000865000D01*
X0002200275Y0000865000D02*
X0002255275Y0000920000D01*
X0002255275Y0000920000D02*
X0002255275Y0001170000D01*
X0002255275Y0001170000D02*
X0002255275Y0001185000D01*
X0002045275Y0002225000D02*
X0002045275Y0000750000D01*
X0002120275Y0002300000D02*
X0002045275Y0002225000D01*
X0002045275Y0000730000D02*
X0002045275Y0000750000D01*
X0002155275Y0000620000D02*
X0002045275Y0000730000D01*
X0001935275Y0000690000D02*
X0001925275Y0000679999D01*
X0002005275Y0000690000D02*
X0001935275Y0000690000D01*
X0001975275Y0002200000D02*
X0002025275Y0002150000D01*
X0002025275Y0002150000D02*
X0002025275Y0000710000D01*
X0002025275Y0000710000D02*
X0002005275Y0000690000D01*
X0001985275Y0001970000D02*
X0001985275Y0002000000D01*
X0001945275Y0001930000D02*
X0001985275Y0001970000D01*
X0001875275Y0001930000D02*
X0001945275Y0001930000D01*
X0001835275Y0001890000D02*
X0001875275Y0001930000D01*
X0001835275Y0000910000D02*
X0001835275Y0001890000D01*
X0001855275Y0000890000D02*
X0001835275Y0000910000D01*
X0001905275Y0000890000D02*
X0001855275Y0000890000D01*
X0002007401Y0001622125D02*
X0002007401Y0001632125D01*
X0001955275Y0001570000D02*
X0002007401Y0001622125D01*
X0001955275Y0001530000D02*
X0001955275Y0001570000D01*
X0001989527Y0001495748D02*
X0001955275Y0001530000D01*
X0001989527Y0001485748D02*
X0001989527Y0001495748D01*
X0001935275Y0000860000D02*
X0001935275Y0000890000D01*
X0001935275Y0000890000D02*
X0001965275Y0000920000D01*
X0001965275Y0000920000D02*
X0001965275Y0001300000D01*
X0001965275Y0001300000D02*
X0001945275Y0001320000D01*
X0001945275Y0001320000D02*
X0001945275Y0001370000D01*
X0001945275Y0001370000D02*
X0001989527Y0001414251D01*
X0001989527Y0001414251D02*
X0001989527Y0001485748D01*
X0002007401Y0001632125D02*
X0002007401Y0001727874D01*
X0002007401Y0001727874D02*
X0001985275Y0001750000D01*
X0002007401Y0001527874D02*
X0001985275Y0001550000D01*
X0002007401Y0001517874D02*
X0002007401Y0001527874D01*
X0001965275Y0000830000D02*
X0001977401Y0000830000D01*
X0001977401Y0000830000D02*
X0002007401Y0000860000D01*
X0002007401Y0000860000D02*
X0002007401Y0001517874D01*
X0001989527Y0001335748D02*
X0001975275Y0001350000D01*
X0001989527Y0000904251D02*
X0001989527Y0001335748D01*
X0001975275Y0000890000D02*
X0001989527Y0000904251D01*
X0001975275Y0000880000D02*
X0001975275Y0000890000D01*
X0001965275Y0000580000D02*
X0002055275Y0000670000D01*
G04 next file*
G04 #@! TF.GenerationSoftware,KiCad,Pcbnew,(5.1.10)-1*
G04 #@! TF.CreationDate,2021-10-24T19:42:44-07:00*
G04 #@! TF.ProjectId,project,70726f6a-6563-4742-9e6b-696361645f70,rev?*
G04 #@! TF.SameCoordinates,Original*
G04 #@! TF.FileFunction,Copper,L1,Top*
G04 #@! TF.FilePolarity,Positive*
G04 Gerber Fmt 4.6, Leading zero omitted, Abs format (unit mm)*
G04 Created by KiCad (PCBNEW (5.1.10)-1) date 2021-10-24 19:42:44*
G01*
G04 APERTURE LIST*
G04 #@! TA.AperFunction,ComponentPad*
G04 #@! TD*
G04 #@! TA.AperFunction,ComponentPad*
G04 #@! TD*
G04 #@! TA.AperFunction,ComponentPad*
G04 #@! TD*
G04 #@! TA.AperFunction,ComponentPad*
G04 #@! TD*
G04 #@! TA.AperFunction,ViaPad*
G04 #@! TD*
G04 #@! TA.AperFunction,Conductor*
G04 #@! TD*
G04 #@! TA.AperFunction,Conductor*
G04 #@! TD*
G04 APERTURE END LIST*
D48*
X-0005356299Y0003800000D02*
X0002593700Y0000150000D03*
D49*
X0002693700Y0000150000D03*
X0002693700Y0000050000D03*
D48*
X0002593700Y0000050000D03*
D50*
X0002493700Y0002300000D03*
D51*
X0002493700Y0002200000D03*
X0002793700Y0002300000D03*
D50*
X0002793700Y0002200000D03*
X0002493700Y0002100000D03*
D51*
X0002493700Y0002000000D03*
D50*
X0002793700Y0002000000D03*
D51*
X0002793700Y0002100000D03*
X0002493700Y0001750000D03*
D50*
X0002493700Y0001850000D03*
D51*
X0002793700Y0001850000D03*
D50*
X0002793700Y0001750000D03*
X0002493700Y0001650000D03*
D51*
X0002493700Y0001550000D03*
X0002793700Y0001650000D03*
D50*
X0002793700Y0001550000D03*
X0002493700Y0001450000D03*
D51*
X0002493700Y0001350000D03*
X0002793700Y0001450000D03*
D50*
X0002793700Y0001350000D03*
D51*
X0002493700Y0001150000D03*
D50*
X0002493700Y0001250000D03*
X0002793700Y0001150000D03*
D51*
X0002793700Y0001250000D03*
D50*
X0002493700Y0001050000D03*
D51*
X0002493700Y0000950000D03*
X0002793700Y0001050000D03*
D50*
X0002793700Y0000950000D03*
D52*
X0002553700Y0000500000D03*
X0002703700Y0001850000D03*
X0002693700Y0000830000D03*
X0002713700Y0002100000D03*
X0002723700Y0000790000D03*
X0002713700Y0001650000D03*
X0002713700Y0000890000D03*
X0002763700Y0000890000D03*
X0002743700Y0001190000D03*
X0002733700Y0001400000D03*
X0002773700Y0000685000D03*
X0002718700Y0002300000D03*
X0002753700Y0000620000D03*
X0002523700Y0000679999D03*
X0002573700Y0002200000D03*
X0002583700Y0002000000D03*
X0002503700Y0000890000D03*
X0002533700Y0000860000D03*
X0002583700Y0001750000D03*
X0002583700Y0001550000D03*
X0002563700Y0000830000D03*
X0002573700Y0001350000D03*
X0002573700Y0000880000D03*
X0002653700Y0000670000D03*
X0002563700Y0000580000D03*
D53*
X0002693700Y0000050000D02*
X0002653700Y0000090000D01*
X0002653700Y0000090000D02*
X0002643700Y0000100000D01*
X0002643700Y0000100000D02*
X0002643700Y0000160000D01*
X0002643700Y0000160000D02*
X0002643700Y0000240000D01*
X0002643700Y0000240000D02*
X0002553700Y0000330000D01*
X0002553700Y0000330000D02*
X0002553700Y0000500000D01*
D54*
X0002681574Y0001827874D02*
X0002703700Y0001850000D01*
X0002681574Y0000862125D02*
X0002681574Y0001827874D01*
X0002693700Y0000850000D02*
X0002681574Y0000862125D01*
X0002693700Y0000830000D02*
X0002693700Y0000850000D01*
X0002713700Y0002100000D02*
X0002663700Y0002050000D01*
X0002663700Y0002050000D02*
X0002663700Y0000820000D01*
X0002663700Y0000810000D02*
X0002663700Y0000820000D01*
X0002683700Y0000790000D02*
X0002663700Y0000810000D01*
X0002723700Y0000790000D02*
X0002683700Y0000790000D01*
X0002713700Y0001634251D02*
X0002713700Y0001650000D01*
X0002699448Y0001620000D02*
X0002713700Y0001634251D01*
X0002699448Y0000904251D02*
X0002699448Y0001620000D01*
X0002713700Y0000890000D02*
X0002699448Y0000904251D01*
X0002723700Y0000930000D02*
X0002723700Y0001160000D01*
X0002763700Y0000890000D02*
X0002723700Y0000930000D01*
X0002723700Y0001170000D02*
X0002723700Y0001160000D01*
X0002743700Y0001190000D02*
X0002723700Y0001170000D01*
X0002823700Y0001400000D02*
X0002733700Y0001400000D01*
X0002853700Y0001370000D02*
X0002823700Y0001400000D01*
X0002853700Y0001185000D02*
X0002853700Y0001370000D01*
X0002773700Y0000685000D02*
X0002798700Y0000710000D01*
X0002798700Y0000710000D02*
X0002798700Y0000865000D01*
X0002798700Y0000865000D02*
X0002853700Y0000920000D01*
X0002853700Y0000920000D02*
X0002853700Y0001170000D01*
X0002853700Y0001170000D02*
X0002853700Y0001185000D01*
X0002643700Y0002225000D02*
X0002643700Y0000750000D01*
X0002718700Y0002300000D02*
X0002643700Y0002225000D01*
X0002643700Y0000730000D02*
X0002643700Y0000750000D01*
X0002753700Y0000620000D02*
X0002643700Y0000730000D01*
X0002533700Y0000690000D02*
X0002523700Y0000679999D01*
X0002603700Y0000690000D02*
X0002533700Y0000690000D01*
X0002573700Y0002200000D02*
X0002623700Y0002150000D01*
X0002623700Y0002150000D02*
X0002623700Y0000710000D01*
X0002623700Y0000710000D02*
X0002603700Y0000690000D01*
X0002583700Y0001970000D02*
X0002583700Y0002000000D01*
X0002543700Y0001930000D02*
X0002583700Y0001970000D01*
X0002473700Y0001930000D02*
X0002543700Y0001930000D01*
X0002433700Y0001890000D02*
X0002473700Y0001930000D01*
X0002433700Y0000910000D02*
X0002433700Y0001890000D01*
X0002453700Y0000890000D02*
X0002433700Y0000910000D01*
X0002503700Y0000890000D02*
X0002453700Y0000890000D01*
X0002605826Y0001622125D02*
X0002605826Y0001632125D01*
X0002553700Y0001570000D02*
X0002605826Y0001622125D01*
X0002553700Y0001530000D02*
X0002553700Y0001570000D01*
X0002587952Y0001495748D02*
X0002553700Y0001530000D01*
X0002587952Y0001485748D02*
X0002587952Y0001495748D01*
X0002533700Y0000860000D02*
X0002533700Y0000890000D01*
X0002533700Y0000890000D02*
X0002563700Y0000920000D01*
X0002563700Y0000920000D02*
X0002563700Y0001300000D01*
X0002563700Y0001300000D02*
X0002543700Y0001320000D01*
X0002543700Y0001320000D02*
X0002543700Y0001370000D01*
X0002543700Y0001370000D02*
X0002587952Y0001414251D01*
X0002587952Y0001414251D02*
X0002587952Y0001485748D01*
X0002605826Y0001632125D02*
X0002605826Y0001727874D01*
X0002605826Y0001727874D02*
X0002583700Y0001750000D01*
X0002605826Y0001527874D02*
X0002583700Y0001550000D01*
X0002605826Y0001517874D02*
X0002605826Y0001527874D01*
X0002563700Y0000830000D02*
X0002575826Y0000830000D01*
X0002575826Y0000830000D02*
X0002605826Y0000860000D01*
X0002605826Y0000860000D02*
X0002605826Y0001517874D01*
X0002587952Y0001335748D02*
X0002573700Y0001350000D01*
X0002587952Y0000904251D02*
X0002587952Y0001335748D01*
X0002573700Y0000890000D02*
X0002587952Y0000904251D01*
X0002573700Y0000880000D02*
X0002573700Y0000890000D01*
X0002563700Y0000580000D02*
X0002653700Y0000670000D01*
G04 next file*
G04 #@! TF.GenerationSoftware,KiCad,Pcbnew,(5.1.10)-1*
G04 #@! TF.CreationDate,2021-10-24T19:42:44-07:00*
G04 #@! TF.ProjectId,project,70726f6a-6563-4742-9e6b-696361645f70,rev?*
G04 #@! TF.SameCoordinates,Original*
G04 #@! TF.FileFunction,Copper,L1,Top*
G04 #@! TF.FilePolarity,Positive*
G04 Gerber Fmt 4.6, Leading zero omitted, Abs format (unit mm)*
G04 Created by KiCad (PCBNEW (5.1.10)-1) date 2021-10-24 19:42:44*
G01*
G04 APERTURE LIST*
G04 #@! TA.AperFunction,ComponentPad*
G04 #@! TD*
G04 #@! TA.AperFunction,ComponentPad*
G04 #@! TD*
G04 #@! TA.AperFunction,ComponentPad*
G04 #@! TD*
G04 #@! TA.AperFunction,ComponentPad*
G04 #@! TD*
G04 #@! TA.AperFunction,ViaPad*
G04 #@! TD*
G04 #@! TA.AperFunction,Conductor*
G04 #@! TD*
G04 #@! TA.AperFunction,Conductor*
G04 #@! TD*
G04 APERTURE END LIST*
D55*
X-0004757873Y0003800000D02*
X0003192125Y0000150000D03*
D56*
X0003292125Y0000150000D03*
X0003292125Y0000050000D03*
D55*
X0003192125Y0000050000D03*
D57*
X0003092125Y0002300000D03*
D58*
X0003092125Y0002200000D03*
X0003392125Y0002300000D03*
D57*
X0003392125Y0002200000D03*
X0003092125Y0002100000D03*
D58*
X0003092125Y0002000000D03*
D57*
X0003392125Y0002000000D03*
D58*
X0003392125Y0002100000D03*
X0003092125Y0001750000D03*
D57*
X0003092125Y0001850000D03*
D58*
X0003392125Y0001850000D03*
D57*
X0003392125Y0001750000D03*
X0003092125Y0001650000D03*
D58*
X0003092125Y0001550000D03*
X0003392125Y0001650000D03*
D57*
X0003392125Y0001550000D03*
X0003092125Y0001450000D03*
D58*
X0003092125Y0001350000D03*
X0003392125Y0001450000D03*
D57*
X0003392125Y0001350000D03*
D58*
X0003092125Y0001150000D03*
D57*
X0003092125Y0001250000D03*
X0003392125Y0001150000D03*
D58*
X0003392125Y0001250000D03*
D57*
X0003092125Y0001050000D03*
D58*
X0003092125Y0000950000D03*
X0003392125Y0001050000D03*
D57*
X0003392125Y0000950000D03*
D59*
X0003152125Y0000500000D03*
X0003302125Y0001850000D03*
X0003292125Y0000830000D03*
X0003312125Y0002100000D03*
X0003322125Y0000790000D03*
X0003312125Y0001650000D03*
X0003312125Y0000890000D03*
X0003362125Y0000890000D03*
X0003342125Y0001190000D03*
X0003332125Y0001400000D03*
X0003372125Y0000685000D03*
X0003317125Y0002300000D03*
X0003352125Y0000620000D03*
X0003122125Y0000679999D03*
X0003172125Y0002200000D03*
X0003182125Y0002000000D03*
X0003102125Y0000890000D03*
X0003132125Y0000860000D03*
X0003182125Y0001750000D03*
X0003182125Y0001550000D03*
X0003162125Y0000830000D03*
X0003172125Y0001350000D03*
X0003172125Y0000880000D03*
X0003252125Y0000670000D03*
X0003162125Y0000580000D03*
D60*
X0003292125Y0000050000D02*
X0003252125Y0000090000D01*
X0003252125Y0000090000D02*
X0003242125Y0000100000D01*
X0003242125Y0000100000D02*
X0003242125Y0000160000D01*
X0003242125Y0000160000D02*
X0003242125Y0000240000D01*
X0003242125Y0000240000D02*
X0003152125Y0000330000D01*
X0003152125Y0000330000D02*
X0003152125Y0000500000D01*
D61*
X0003280000Y0001827874D02*
X0003302125Y0001850000D01*
X0003280000Y0000862125D02*
X0003280000Y0001827874D01*
X0003292125Y0000850000D02*
X0003280000Y0000862125D01*
X0003292125Y0000830000D02*
X0003292125Y0000850000D01*
X0003312125Y0002100000D02*
X0003262125Y0002050000D01*
X0003262125Y0002050000D02*
X0003262125Y0000820000D01*
X0003262125Y0000810000D02*
X0003262125Y0000820000D01*
X0003282125Y0000790000D02*
X0003262125Y0000810000D01*
X0003322125Y0000790000D02*
X0003282125Y0000790000D01*
X0003312125Y0001634251D02*
X0003312125Y0001650000D01*
X0003297874Y0001620000D02*
X0003312125Y0001634251D01*
X0003297874Y0000904251D02*
X0003297874Y0001620000D01*
X0003312125Y0000890000D02*
X0003297874Y0000904251D01*
X0003322125Y0000930000D02*
X0003322125Y0001160000D01*
X0003362125Y0000890000D02*
X0003322125Y0000930000D01*
X0003322125Y0001170000D02*
X0003322125Y0001160000D01*
X0003342125Y0001190000D02*
X0003322125Y0001170000D01*
X0003422125Y0001400000D02*
X0003332125Y0001400000D01*
X0003452125Y0001370000D02*
X0003422125Y0001400000D01*
X0003452125Y0001185000D02*
X0003452125Y0001370000D01*
X0003372125Y0000685000D02*
X0003397125Y0000710000D01*
X0003397125Y0000710000D02*
X0003397125Y0000865000D01*
X0003397125Y0000865000D02*
X0003452125Y0000920000D01*
X0003452125Y0000920000D02*
X0003452125Y0001170000D01*
X0003452125Y0001170000D02*
X0003452125Y0001185000D01*
X0003242125Y0002225000D02*
X0003242125Y0000750000D01*
X0003317125Y0002300000D02*
X0003242125Y0002225000D01*
X0003242125Y0000730000D02*
X0003242125Y0000750000D01*
X0003352125Y0000620000D02*
X0003242125Y0000730000D01*
X0003132125Y0000690000D02*
X0003122125Y0000679999D01*
X0003202125Y0000690000D02*
X0003132125Y0000690000D01*
X0003172125Y0002200000D02*
X0003222125Y0002150000D01*
X0003222125Y0002150000D02*
X0003222125Y0000710000D01*
X0003222125Y0000710000D02*
X0003202125Y0000690000D01*
X0003182125Y0001970000D02*
X0003182125Y0002000000D01*
X0003142125Y0001930000D02*
X0003182125Y0001970000D01*
X0003072125Y0001930000D02*
X0003142125Y0001930000D01*
X0003032125Y0001890000D02*
X0003072125Y0001930000D01*
X0003032125Y0000910000D02*
X0003032125Y0001890000D01*
X0003052125Y0000890000D02*
X0003032125Y0000910000D01*
X0003102125Y0000890000D02*
X0003052125Y0000890000D01*
X0003204251Y0001622125D02*
X0003204251Y0001632125D01*
X0003152125Y0001570000D02*
X0003204251Y0001622125D01*
X0003152125Y0001530000D02*
X0003152125Y0001570000D01*
X0003186377Y0001495748D02*
X0003152125Y0001530000D01*
X0003186377Y0001485748D02*
X0003186377Y0001495748D01*
X0003132125Y0000860000D02*
X0003132125Y0000890000D01*
X0003132125Y0000890000D02*
X0003162125Y0000920000D01*
X0003162125Y0000920000D02*
X0003162125Y0001300000D01*
X0003162125Y0001300000D02*
X0003142125Y0001320000D01*
X0003142125Y0001320000D02*
X0003142125Y0001370000D01*
X0003142125Y0001370000D02*
X0003186377Y0001414251D01*
X0003186377Y0001414251D02*
X0003186377Y0001485748D01*
X0003204251Y0001632125D02*
X0003204251Y0001727874D01*
X0003204251Y0001727874D02*
X0003182125Y0001750000D01*
X0003204251Y0001527874D02*
X0003182125Y0001550000D01*
X0003204251Y0001517874D02*
X0003204251Y0001527874D01*
X0003162125Y0000830000D02*
X0003174251Y0000830000D01*
X0003174251Y0000830000D02*
X0003204251Y0000860000D01*
X0003204251Y0000860000D02*
X0003204251Y0001517874D01*
X0003186377Y0001335748D02*
X0003172125Y0001350000D01*
X0003186377Y0000904251D02*
X0003186377Y0001335748D01*
X0003172125Y0000890000D02*
X0003186377Y0000904251D01*
X0003172125Y0000880000D02*
X0003172125Y0000890000D01*
X0003162125Y0000580000D02*
X0003252125Y0000670000D01*
M02*