%MOIN*%
%OFA0B0*%
%FSLAX46Y46*%
%IPPOS*%
%LPD*%
%ADD10C,0.005905511811023622*%
%ADD11C,0.0039370078740157488*%
%ADD12C,0.0047244094488188976*%
%ADD23C,0.005905511811023622*%
%ADD24C,0.0039370078740157488*%
%ADD25C,0.0047244094488188976*%
%ADD26C,0.005905511811023622*%
%ADD27C,0.0039370078740157488*%
%ADD28C,0.0047244094488188976*%
%ADD29C,0.005905511811023622*%
%ADD30C,0.0039370078740157488*%
%ADD31C,0.0047244094488188976*%
%ADD32C,0.005905511811023622*%
%ADD33C,0.0039370078740157488*%
%ADD34C,0.0047244094488188976*%
%ADD35C,0.005905511811023622*%
%ADD36C,0.0039370078740157488*%
%ADD37C,0.0047244094488188976*%
G01*
D10*
X0000301485Y0000559983D02*
X0000307953Y0000571231D01*
X0000314983Y0000559983D02*
X0000312030Y0000583605D01*
X0000303031Y0000583605D01*
X0000300922Y0000582480D01*
X0000299938Y0000581355D01*
X0000299094Y0000579105D01*
X0000299516Y0000575731D01*
X0000300922Y0000573481D01*
X0000302188Y0000572356D01*
X0000304578Y0000571231D01*
X0000313577Y0000571231D01*
X0000282221Y0000561107D02*
X0000284612Y0000559983D01*
X0000289111Y0000559983D01*
X0000291220Y0000561107D01*
X0000292064Y0000563357D01*
X0000290939Y0000572356D01*
X0000289533Y0000574606D01*
X0000287143Y0000575731D01*
X0000282643Y0000575731D01*
X0000280534Y0000574606D01*
X0000279690Y0000572356D01*
X0000279972Y0000570106D01*
X0000291502Y0000567857D01*
X0000271395Y0000575731D02*
X0000267739Y0000559983D01*
X0000260146Y0000575731D01*
X0000227666Y0000583605D02*
X0000225416Y0000583605D01*
X0000223307Y0000582480D01*
X0000222323Y0000581355D01*
X0000221479Y0000579105D01*
X0000220917Y0000574606D01*
X0000221620Y0000568982D01*
X0000223307Y0000564482D01*
X0000224713Y0000562232D01*
X0000225978Y0000561107D01*
X0000228369Y0000559983D01*
X0000230618Y0000559983D01*
X0000232728Y0000561107D01*
X0000233712Y0000562232D01*
X0000234556Y0000564482D01*
X0000235118Y0000568982D01*
X0000234415Y0000574606D01*
X0000232728Y0000579105D01*
X0000231322Y0000581355D01*
X0000230056Y0000582480D01*
X0000227666Y0000583605D01*
X0000212340Y0000562232D02*
X0000211355Y0000561107D01*
X0000212621Y0000559983D01*
X0000213605Y0000561107D01*
X0000212340Y0000562232D01*
X0000212621Y0000559983D01*
X0000188999Y0000559983D02*
X0000202497Y0000559983D01*
X0000195748Y0000559983D02*
X0000192795Y0000583605D01*
X0000195467Y0000580230D01*
X0000197998Y0000577980D01*
X0000200388Y0000576856D01*
X0000322716Y0000542266D02*
X0000318217Y0000542266D01*
X0000316108Y0000541141D01*
X0000314139Y0000538892D01*
X0000313577Y0000534392D01*
X0000314561Y0000526518D01*
X0000316248Y0000522019D01*
X0000318779Y0000519769D01*
X0000321170Y0000518644D01*
X0000325669Y0000518644D01*
X0000327778Y0000519769D01*
X0000329747Y0000522019D01*
X0000330309Y0000526518D01*
X0000329325Y0000534392D01*
X0000327638Y0000538892D01*
X0000325107Y0000541141D01*
X0000322716Y0000542266D01*
X0000295157Y0000519769D02*
X0000297548Y0000518644D01*
X0000302047Y0000518644D01*
X0000304156Y0000519769D01*
X0000305140Y0000520894D01*
X0000305984Y0000523144D01*
X0000305140Y0000529893D01*
X0000303734Y0000532142D01*
X0000302469Y0000533267D01*
X0000300079Y0000534392D01*
X0000295579Y0000534392D01*
X0000293470Y0000533267D01*
X0000286580Y0000534392D02*
X0000277581Y0000534392D01*
X0000282221Y0000542266D02*
X0000284752Y0000522019D01*
X0000283909Y0000519769D01*
X0000281800Y0000518644D01*
X0000279550Y0000518644D01*
X0000252131Y0000540016D02*
X0000250866Y0000541141D01*
X0000248476Y0000542266D01*
X0000242851Y0000542266D01*
X0000240742Y0000541141D01*
X0000239758Y0000540016D01*
X0000238914Y0000537767D01*
X0000239196Y0000535517D01*
X0000240742Y0000532142D01*
X0000255928Y0000518644D01*
X0000241305Y0000518644D01*
X0000223729Y0000542266D02*
X0000221479Y0000542266D01*
X0000219370Y0000541141D01*
X0000218386Y0000540016D01*
X0000217542Y0000537767D01*
X0000216980Y0000533267D01*
X0000217683Y0000527643D01*
X0000219370Y0000523144D01*
X0000220776Y0000520894D01*
X0000222041Y0000519769D01*
X0000224432Y0000518644D01*
X0000226681Y0000518644D01*
X0000228791Y0000519769D01*
X0000229775Y0000520894D01*
X0000230618Y0000523144D01*
X0000231181Y0000527643D01*
X0000230478Y0000533267D01*
X0000228791Y0000537767D01*
X0000227385Y0000540016D01*
X0000226119Y0000541141D01*
X0000223729Y0000542266D01*
X0000207137Y0000540016D02*
X0000205872Y0000541141D01*
X0000203481Y0000542266D01*
X0000197857Y0000542266D01*
X0000195748Y0000541141D01*
X0000194764Y0000540016D01*
X0000193920Y0000537767D01*
X0000194201Y0000535517D01*
X0000195748Y0000532142D01*
X0000210933Y0000518644D01*
X0000196310Y0000518644D01*
X0000173813Y0000518644D02*
X0000187311Y0000518644D01*
X0000180562Y0000518644D02*
X0000177609Y0000542266D01*
X0000180281Y0000538892D01*
X0000182812Y0000536642D01*
X0000185202Y0000535517D01*
D11*
X0000319741Y0000260123D02*
X0000316366Y0000258998D01*
X0000310742Y0000258998D01*
X0000308492Y0000260123D01*
X0000307367Y0000261248D01*
X0000306242Y0000263498D01*
X0000306242Y0000265748D01*
X0000307367Y0000267997D01*
X0000308492Y0000269122D01*
X0000310742Y0000270247D01*
X0000315241Y0000271372D01*
X0000317491Y0000272497D01*
X0000318616Y0000273622D01*
X0000319741Y0000275871D01*
X0000319741Y0000278121D01*
X0000318616Y0000280371D01*
X0000317491Y0000281496D01*
X0000315241Y0000282620D01*
X0000309617Y0000282620D01*
X0000306242Y0000281496D01*
X0000282620Y0000261248D02*
X0000283745Y0000260123D01*
X0000287120Y0000258998D01*
X0000289370Y0000258998D01*
X0000292744Y0000260123D01*
X0000294994Y0000262373D01*
X0000296119Y0000264623D01*
X0000297244Y0000269122D01*
X0000297244Y0000272497D01*
X0000296119Y0000276996D01*
X0000294994Y0000279246D01*
X0000292744Y0000281496D01*
X0000289370Y0000282620D01*
X0000287120Y0000282620D01*
X0000283745Y0000281496D01*
X0000282620Y0000280371D01*
X0000272497Y0000258998D02*
X0000272497Y0000282620D01*
X0000258998Y0000258998D02*
X0000269122Y0000272497D01*
X0000258998Y0000282620D02*
X0000272497Y0000269122D01*
X0000201631Y0000282620D02*
X0000212879Y0000282620D01*
X0000214004Y0000271372D01*
X0000212879Y0000272497D01*
X0000210629Y0000273622D01*
X0000205005Y0000273622D01*
X0000202755Y0000272497D01*
X0000201631Y0000271372D01*
X0000200506Y0000269122D01*
X0000200506Y0000263498D01*
X0000201631Y0000261248D01*
X0000202755Y0000260123D01*
X0000205005Y0000258998D01*
X0000210629Y0000258998D01*
X0000212879Y0000260123D01*
X0000214004Y0000261248D01*
X0000193756Y0000282620D02*
X0000185882Y0000258998D01*
X0000178008Y0000282620D01*
X0000310179Y0000242125D02*
X0000312429Y0000243250D01*
X0000315804Y0000243250D01*
X0000319178Y0000242125D01*
X0000321428Y0000239876D01*
X0000322553Y0000237626D01*
X0000323678Y0000233127D01*
X0000323678Y0000229752D01*
X0000322553Y0000225253D01*
X0000321428Y0000223003D01*
X0000319178Y0000220753D01*
X0000315804Y0000219628D01*
X0000313554Y0000219628D01*
X0000310179Y0000220753D01*
X0000309055Y0000221878D01*
X0000309055Y0000229752D01*
X0000313554Y0000229752D01*
X0000298931Y0000219628D02*
X0000298931Y0000243250D01*
X0000285433Y0000219628D01*
X0000285433Y0000243250D01*
X0000274184Y0000219628D02*
X0000274184Y0000243250D01*
X0000268560Y0000243250D01*
X0000265185Y0000242125D01*
X0000262935Y0000239876D01*
X0000261811Y0000237626D01*
X0000260686Y0000233127D01*
X0000260686Y0000229752D01*
X0000261811Y0000225253D01*
X0000262935Y0000223003D01*
X0000265185Y0000220753D01*
X0000268560Y0000219628D01*
X0000274184Y0000219628D01*
X0000233689Y0000220753D02*
X0000230314Y0000219628D01*
X0000224690Y0000219628D01*
X0000222440Y0000220753D01*
X0000221316Y0000221878D01*
X0000220191Y0000224128D01*
X0000220191Y0000226377D01*
X0000221316Y0000228627D01*
X0000222440Y0000229752D01*
X0000224690Y0000230877D01*
X0000229190Y0000232002D01*
X0000231439Y0000233127D01*
X0000232564Y0000234251D01*
X0000233689Y0000236501D01*
X0000233689Y0000238751D01*
X0000232564Y0000241001D01*
X0000231439Y0000242125D01*
X0000229190Y0000243250D01*
X0000223565Y0000243250D01*
X0000220191Y0000242125D01*
X0000210067Y0000219628D02*
X0000210067Y0000243250D01*
X0000204443Y0000243250D01*
X0000201068Y0000242125D01*
X0000198818Y0000239876D01*
X0000197694Y0000237626D01*
X0000196569Y0000233127D01*
X0000196569Y0000229752D01*
X0000197694Y0000225253D01*
X0000198818Y0000223003D01*
X0000201068Y0000220753D01*
X0000204443Y0000219628D01*
X0000210067Y0000219628D01*
X0000187570Y0000226377D02*
X0000176321Y0000226377D01*
X0000189819Y0000219628D02*
X0000181945Y0000243250D01*
X0000174071Y0000219628D01*
D12*
X0000314370Y0000783070D02*
X0000333070Y0000783070D01*
X0000166929Y0000616929D02*
X0000166929Y0000635629D01*
X0000185629Y0000616929D02*
X0000166929Y0000616929D01*
X0000333070Y0000616929D02*
X0000333070Y0000635629D01*
X0000314370Y0000616929D02*
X0000333070Y0000616929D01*
X0000166929Y0000783070D02*
X0000166929Y0000764370D01*
X0000185629Y0000783070D02*
X0000166929Y0000783070D01*
X0000266060Y0000978937D02*
X0000283939Y0000978937D01*
X0000266060Y0000921062D02*
X0000283939Y0000921062D01*
X0000233939Y0001021062D02*
X0000216060Y0001021062D01*
X0000233939Y0001078937D02*
X0000216060Y0001078937D01*
X0000266060Y0001178937D02*
X0000283939Y0001178937D01*
X0000266060Y0001121062D02*
X0000283939Y0001121062D01*
X0000233939Y0001221062D02*
X0000216060Y0001221062D01*
X0000233939Y0001278937D02*
X0000216060Y0001278937D01*
X0000266060Y0001378937D02*
X0000283939Y0001378937D01*
X0000266060Y0001321062D02*
X0000283939Y0001321062D01*
X0000233939Y0001421062D02*
X0000216060Y0001421062D01*
X0000233939Y0001478937D02*
X0000216060Y0001478937D01*
X0000266060Y0001578937D02*
X0000283939Y0001578937D01*
X0000266060Y0001521062D02*
X0000283939Y0001521062D01*
X0000233939Y0001621062D02*
X0000216060Y0001621062D01*
X0000233939Y0001678937D02*
X0000216060Y0001678937D01*
X0000266060Y0001778937D02*
X0000283939Y0001778937D01*
X0000266060Y0001721062D02*
X0000283939Y0001721062D01*
X0000233939Y0001821062D02*
X0000216060Y0001821062D01*
X0000233939Y0001878937D02*
X0000216060Y0001878937D01*
X0000258939Y0000448937D02*
X0000241060Y0000448937D01*
X0000258939Y0000391062D02*
X0000241060Y0000391062D01*
X0000258939Y0000528937D02*
X0000241060Y0000528937D01*
X0000258939Y0000471062D02*
X0000241060Y0000471062D01*
X0000233939Y0002271062D02*
X0000216060Y0002271062D01*
X0000233939Y0002328937D02*
X0000216060Y0002328937D01*
X0000266060Y0002228937D02*
X0000283939Y0002228937D01*
X0000266060Y0002171062D02*
X0000283939Y0002171062D01*
X0000233939Y0002128937D02*
X0000216060Y0002128937D01*
X0000233939Y0002071062D02*
X0000216060Y0002071062D01*
X0000266060Y0001971062D02*
X0000283939Y0001971062D01*
X0000266060Y0002028937D02*
X0000283939Y0002028937D01*
X0000147637Y0000202362D02*
X0000147637Y0000150000D01*
X0000200000Y0000202362D02*
X0000147637Y0000202362D01*
X0000249999Y0000202362D02*
X0000249999Y0000097637D01*
X0000249999Y0000097637D02*
X0000352362Y0000097637D01*
X0000249999Y0000202362D02*
X0000352362Y0000202362D01*
X0000352362Y0000202362D02*
X0000352362Y0000097637D01*
X0000316338Y0000292204D02*
X0000210629Y0000292204D01*
X0000316338Y0000367795D02*
X0000316338Y0000292204D01*
X0000210629Y0000367795D02*
X0000316338Y0000367795D01*
G04 next file*
G04 #@! TF.GenerationSoftware,KiCad,Pcbnew,(5.1.10)-1*
G04 #@! TF.CreationDate,2021-10-24T19:42:44-07:00*
G04 #@! TF.ProjectId,project,70726f6a-6563-4742-9e6b-696361645f70,rev?*
G04 #@! TF.SameCoordinates,Original*
G04 #@! TF.FileFunction,Legend,Bot*
G04 #@! TF.FilePolarity,Positive*
G04 Gerber Fmt 4.6, Leading zero omitted, Abs format (unit mm)*
G04 Created by KiCad (PCBNEW (5.1.10)-1) date 2021-10-24 19:42:44*
G01*
G04 APERTURE LIST*
G04 APERTURE END LIST*
D23*
X0000899910Y0000559983D02*
X0000906378Y0000571231D01*
X0000913408Y0000559983D02*
X0000910455Y0000583605D01*
X0000901457Y0000583605D01*
X0000899347Y0000582480D01*
X0000898363Y0000581355D01*
X0000897520Y0000579105D01*
X0000897941Y0000575731D01*
X0000899347Y0000573481D01*
X0000900613Y0000572356D01*
X0000903003Y0000571231D01*
X0000912002Y0000571231D01*
X0000880647Y0000561107D02*
X0000883037Y0000559983D01*
X0000887536Y0000559983D01*
X0000889645Y0000561107D01*
X0000890489Y0000563357D01*
X0000889364Y0000572356D01*
X0000887958Y0000574606D01*
X0000885568Y0000575731D01*
X0000881068Y0000575731D01*
X0000878959Y0000574606D01*
X0000878116Y0000572356D01*
X0000878397Y0000570106D01*
X0000889927Y0000567857D01*
X0000869820Y0000575731D02*
X0000866164Y0000559983D01*
X0000858571Y0000575731D01*
X0000826091Y0000583605D02*
X0000823841Y0000583605D01*
X0000821732Y0000582480D01*
X0000820748Y0000581355D01*
X0000819904Y0000579105D01*
X0000819342Y0000574606D01*
X0000820045Y0000568982D01*
X0000821732Y0000564482D01*
X0000823138Y0000562232D01*
X0000824404Y0000561107D01*
X0000826794Y0000559983D01*
X0000829044Y0000559983D01*
X0000831153Y0000561107D01*
X0000832137Y0000562232D01*
X0000832981Y0000564482D01*
X0000833543Y0000568982D01*
X0000832840Y0000574606D01*
X0000831153Y0000579105D01*
X0000829747Y0000581355D01*
X0000828481Y0000582480D01*
X0000826091Y0000583605D01*
X0000810765Y0000562232D02*
X0000809780Y0000561107D01*
X0000811046Y0000559983D01*
X0000812030Y0000561107D01*
X0000810765Y0000562232D01*
X0000811046Y0000559983D01*
X0000787424Y0000559983D02*
X0000800922Y0000559983D01*
X0000794173Y0000559983D02*
X0000791220Y0000583605D01*
X0000793892Y0000580230D01*
X0000796423Y0000577980D01*
X0000798813Y0000576856D01*
X0000921142Y0000542266D02*
X0000916642Y0000542266D01*
X0000914533Y0000541141D01*
X0000912565Y0000538892D01*
X0000912002Y0000534392D01*
X0000912986Y0000526518D01*
X0000914674Y0000522019D01*
X0000917205Y0000519769D01*
X0000919595Y0000518644D01*
X0000924094Y0000518644D01*
X0000926203Y0000519769D01*
X0000928172Y0000522019D01*
X0000928734Y0000526518D01*
X0000927750Y0000534392D01*
X0000926063Y0000538892D01*
X0000923532Y0000541141D01*
X0000921142Y0000542266D01*
X0000893582Y0000519769D02*
X0000895973Y0000518644D01*
X0000900472Y0000518644D01*
X0000902581Y0000519769D01*
X0000903566Y0000520894D01*
X0000904409Y0000523144D01*
X0000903566Y0000529893D01*
X0000902160Y0000532142D01*
X0000900894Y0000533267D01*
X0000898504Y0000534392D01*
X0000894004Y0000534392D01*
X0000891895Y0000533267D01*
X0000885005Y0000534392D02*
X0000876007Y0000534392D01*
X0000880647Y0000542266D02*
X0000883178Y0000522019D01*
X0000882334Y0000519769D01*
X0000880225Y0000518644D01*
X0000877975Y0000518644D01*
X0000850557Y0000540016D02*
X0000849291Y0000541141D01*
X0000846901Y0000542266D01*
X0000841277Y0000542266D01*
X0000839167Y0000541141D01*
X0000838183Y0000540016D01*
X0000837340Y0000537767D01*
X0000837621Y0000535517D01*
X0000839167Y0000532142D01*
X0000854353Y0000518644D01*
X0000839730Y0000518644D01*
X0000822154Y0000542266D02*
X0000819904Y0000542266D01*
X0000817795Y0000541141D01*
X0000816811Y0000540016D01*
X0000815967Y0000537767D01*
X0000815405Y0000533267D01*
X0000816108Y0000527643D01*
X0000817795Y0000523144D01*
X0000819201Y0000520894D01*
X0000820467Y0000519769D01*
X0000822857Y0000518644D01*
X0000825107Y0000518644D01*
X0000827216Y0000519769D01*
X0000828200Y0000520894D01*
X0000829044Y0000523144D01*
X0000829606Y0000527643D01*
X0000828903Y0000533267D01*
X0000827216Y0000537767D01*
X0000825810Y0000540016D01*
X0000824544Y0000541141D01*
X0000822154Y0000542266D01*
X0000805562Y0000540016D02*
X0000804297Y0000541141D01*
X0000801906Y0000542266D01*
X0000796282Y0000542266D01*
X0000794173Y0000541141D01*
X0000793189Y0000540016D01*
X0000792345Y0000537767D01*
X0000792626Y0000535517D01*
X0000794173Y0000532142D01*
X0000809359Y0000518644D01*
X0000794735Y0000518644D01*
X0000772238Y0000518644D02*
X0000785737Y0000518644D01*
X0000778987Y0000518644D02*
X0000776035Y0000542266D01*
X0000778706Y0000538892D01*
X0000781237Y0000536642D01*
X0000783627Y0000535517D01*
D24*
X0000918166Y0000260123D02*
X0000914791Y0000258998D01*
X0000909167Y0000258998D01*
X0000906917Y0000260123D01*
X0000905792Y0000261248D01*
X0000904668Y0000263498D01*
X0000904668Y0000265748D01*
X0000905792Y0000267997D01*
X0000906917Y0000269122D01*
X0000909167Y0000270247D01*
X0000913667Y0000271372D01*
X0000915916Y0000272497D01*
X0000917041Y0000273622D01*
X0000918166Y0000275871D01*
X0000918166Y0000278121D01*
X0000917041Y0000280371D01*
X0000915916Y0000281496D01*
X0000913667Y0000282620D01*
X0000908042Y0000282620D01*
X0000904668Y0000281496D01*
X0000881046Y0000261248D02*
X0000882170Y0000260123D01*
X0000885545Y0000258998D01*
X0000887795Y0000258998D01*
X0000891169Y0000260123D01*
X0000893419Y0000262373D01*
X0000894544Y0000264623D01*
X0000895669Y0000269122D01*
X0000895669Y0000272497D01*
X0000894544Y0000276996D01*
X0000893419Y0000279246D01*
X0000891169Y0000281496D01*
X0000887795Y0000282620D01*
X0000885545Y0000282620D01*
X0000882170Y0000281496D01*
X0000881046Y0000280371D01*
X0000870922Y0000258998D02*
X0000870922Y0000282620D01*
X0000857424Y0000258998D02*
X0000867547Y0000272497D01*
X0000857424Y0000282620D02*
X0000870922Y0000269122D01*
X0000800056Y0000282620D02*
X0000811304Y0000282620D01*
X0000812429Y0000271372D01*
X0000811304Y0000272497D01*
X0000809055Y0000273622D01*
X0000803430Y0000273622D01*
X0000801181Y0000272497D01*
X0000800056Y0000271372D01*
X0000798931Y0000269122D01*
X0000798931Y0000263498D01*
X0000800056Y0000261248D01*
X0000801181Y0000260123D01*
X0000803430Y0000258998D01*
X0000809055Y0000258998D01*
X0000811304Y0000260123D01*
X0000812429Y0000261248D01*
X0000792182Y0000282620D02*
X0000784308Y0000258998D01*
X0000776434Y0000282620D01*
X0000908605Y0000242125D02*
X0000910854Y0000243250D01*
X0000914229Y0000243250D01*
X0000917604Y0000242125D01*
X0000919853Y0000239876D01*
X0000920978Y0000237626D01*
X0000922103Y0000233127D01*
X0000922103Y0000229752D01*
X0000920978Y0000225253D01*
X0000919853Y0000223003D01*
X0000917604Y0000220753D01*
X0000914229Y0000219628D01*
X0000911979Y0000219628D01*
X0000908605Y0000220753D01*
X0000907480Y0000221878D01*
X0000907480Y0000229752D01*
X0000911979Y0000229752D01*
X0000897356Y0000219628D02*
X0000897356Y0000243250D01*
X0000883858Y0000219628D01*
X0000883858Y0000243250D01*
X0000872609Y0000219628D02*
X0000872609Y0000243250D01*
X0000866985Y0000243250D01*
X0000863610Y0000242125D01*
X0000861361Y0000239876D01*
X0000860236Y0000237626D01*
X0000859111Y0000233127D01*
X0000859111Y0000229752D01*
X0000860236Y0000225253D01*
X0000861361Y0000223003D01*
X0000863610Y0000220753D01*
X0000866985Y0000219628D01*
X0000872609Y0000219628D01*
X0000832114Y0000220753D02*
X0000828740Y0000219628D01*
X0000823115Y0000219628D01*
X0000820866Y0000220753D01*
X0000819741Y0000221878D01*
X0000818616Y0000224128D01*
X0000818616Y0000226377D01*
X0000819741Y0000228627D01*
X0000820866Y0000229752D01*
X0000823115Y0000230877D01*
X0000827615Y0000232002D01*
X0000829865Y0000233127D01*
X0000830989Y0000234251D01*
X0000832114Y0000236501D01*
X0000832114Y0000238751D01*
X0000830989Y0000241001D01*
X0000829865Y0000242125D01*
X0000827615Y0000243250D01*
X0000821990Y0000243250D01*
X0000818616Y0000242125D01*
X0000808492Y0000219628D02*
X0000808492Y0000243250D01*
X0000802868Y0000243250D01*
X0000799493Y0000242125D01*
X0000797244Y0000239876D01*
X0000796119Y0000237626D01*
X0000794994Y0000233127D01*
X0000794994Y0000229752D01*
X0000796119Y0000225253D01*
X0000797244Y0000223003D01*
X0000799493Y0000220753D01*
X0000802868Y0000219628D01*
X0000808492Y0000219628D01*
X0000785995Y0000226377D02*
X0000774746Y0000226377D01*
X0000788245Y0000219628D02*
X0000780371Y0000243250D01*
X0000772497Y0000219628D01*
D25*
X0000912795Y0000783070D02*
X0000931496Y0000783070D01*
X0000765354Y0000616929D02*
X0000765354Y0000635629D01*
X0000784055Y0000616929D02*
X0000765354Y0000616929D01*
X0000931496Y0000616929D02*
X0000931496Y0000635629D01*
X0000912795Y0000616929D02*
X0000931496Y0000616929D01*
X0000765354Y0000783070D02*
X0000765354Y0000764370D01*
X0000784055Y0000783070D02*
X0000765354Y0000783070D01*
X0000864485Y0000978937D02*
X0000882364Y0000978937D01*
X0000864485Y0000921062D02*
X0000882364Y0000921062D01*
X0000832364Y0001021062D02*
X0000814485Y0001021062D01*
X0000832364Y0001078937D02*
X0000814485Y0001078937D01*
X0000864485Y0001178937D02*
X0000882364Y0001178937D01*
X0000864485Y0001121062D02*
X0000882364Y0001121062D01*
X0000832364Y0001221062D02*
X0000814485Y0001221062D01*
X0000832364Y0001278937D02*
X0000814485Y0001278937D01*
X0000864485Y0001378937D02*
X0000882364Y0001378937D01*
X0000864485Y0001321062D02*
X0000882364Y0001321062D01*
X0000832364Y0001421062D02*
X0000814485Y0001421062D01*
X0000832364Y0001478937D02*
X0000814485Y0001478937D01*
X0000864485Y0001578937D02*
X0000882364Y0001578937D01*
X0000864485Y0001521062D02*
X0000882364Y0001521062D01*
X0000832364Y0001621062D02*
X0000814485Y0001621062D01*
X0000832364Y0001678937D02*
X0000814485Y0001678937D01*
X0000864485Y0001778937D02*
X0000882364Y0001778937D01*
X0000864485Y0001721062D02*
X0000882364Y0001721062D01*
X0000832364Y0001821062D02*
X0000814485Y0001821062D01*
X0000832364Y0001878937D02*
X0000814485Y0001878937D01*
X0000857364Y0000448937D02*
X0000839485Y0000448937D01*
X0000857364Y0000391062D02*
X0000839485Y0000391062D01*
X0000857364Y0000528937D02*
X0000839485Y0000528937D01*
X0000857364Y0000471062D02*
X0000839485Y0000471062D01*
X0000832364Y0002271062D02*
X0000814485Y0002271062D01*
X0000832364Y0002328937D02*
X0000814485Y0002328937D01*
X0000864485Y0002228937D02*
X0000882364Y0002228937D01*
X0000864485Y0002171062D02*
X0000882364Y0002171062D01*
X0000832364Y0002128937D02*
X0000814485Y0002128937D01*
X0000832364Y0002071062D02*
X0000814485Y0002071062D01*
X0000864485Y0001971062D02*
X0000882364Y0001971062D01*
X0000864485Y0002028937D02*
X0000882364Y0002028937D01*
X0000746062Y0000202362D02*
X0000746062Y0000150000D01*
X0000798425Y0000202362D02*
X0000746062Y0000202362D01*
X0000848425Y0000202362D02*
X0000848425Y0000097637D01*
X0000848425Y0000097637D02*
X0000950787Y0000097637D01*
X0000848425Y0000202362D02*
X0000950787Y0000202362D01*
X0000950787Y0000202362D02*
X0000950787Y0000097637D01*
X0000914763Y0000292204D02*
X0000809055Y0000292204D01*
X0000914763Y0000367795D02*
X0000914763Y0000292204D01*
X0000809055Y0000367795D02*
X0000914763Y0000367795D01*
G04 next file*
G04 #@! TF.GenerationSoftware,KiCad,Pcbnew,(5.1.10)-1*
G04 #@! TF.CreationDate,2021-10-24T19:42:44-07:00*
G04 #@! TF.ProjectId,project,70726f6a-6563-4742-9e6b-696361645f70,rev?*
G04 #@! TF.SameCoordinates,Original*
G04 #@! TF.FileFunction,Legend,Bot*
G04 #@! TF.FilePolarity,Positive*
G04 Gerber Fmt 4.6, Leading zero omitted, Abs format (unit mm)*
G04 Created by KiCad (PCBNEW (5.1.10)-1) date 2021-10-24 19:42:44*
G01*
G04 APERTURE LIST*
G04 APERTURE END LIST*
D26*
X0001498335Y0000559983D02*
X0001504803Y0000571231D01*
X0001511833Y0000559983D02*
X0001508881Y0000583605D01*
X0001499882Y0000583605D01*
X0001497773Y0000582480D01*
X0001496788Y0000581355D01*
X0001495945Y0000579105D01*
X0001496367Y0000575731D01*
X0001497773Y0000573481D01*
X0001499038Y0000572356D01*
X0001501428Y0000571231D01*
X0001510427Y0000571231D01*
X0001479072Y0000561107D02*
X0001481462Y0000559983D01*
X0001485962Y0000559983D01*
X0001488071Y0000561107D01*
X0001488914Y0000563357D01*
X0001487790Y0000572356D01*
X0001486383Y0000574606D01*
X0001483993Y0000575731D01*
X0001479494Y0000575731D01*
X0001477385Y0000574606D01*
X0001476541Y0000572356D01*
X0001476822Y0000570106D01*
X0001488352Y0000567857D01*
X0001468245Y0000575731D02*
X0001464589Y0000559983D01*
X0001456996Y0000575731D01*
X0001424516Y0000583605D02*
X0001422266Y0000583605D01*
X0001420157Y0000582480D01*
X0001419173Y0000581355D01*
X0001418329Y0000579105D01*
X0001417767Y0000574606D01*
X0001418470Y0000568982D01*
X0001420157Y0000564482D01*
X0001421563Y0000562232D01*
X0001422829Y0000561107D01*
X0001425219Y0000559983D01*
X0001427469Y0000559983D01*
X0001429578Y0000561107D01*
X0001430562Y0000562232D01*
X0001431406Y0000564482D01*
X0001431968Y0000568982D01*
X0001431265Y0000574606D01*
X0001429578Y0000579105D01*
X0001428172Y0000581355D01*
X0001426906Y0000582480D01*
X0001424516Y0000583605D01*
X0001409190Y0000562232D02*
X0001408206Y0000561107D01*
X0001409471Y0000559983D01*
X0001410455Y0000561107D01*
X0001409190Y0000562232D01*
X0001409471Y0000559983D01*
X0001385849Y0000559983D02*
X0001399347Y0000559983D01*
X0001392598Y0000559983D02*
X0001389645Y0000583605D01*
X0001392317Y0000580230D01*
X0001394848Y0000577980D01*
X0001397238Y0000576856D01*
X0001519567Y0000542266D02*
X0001515067Y0000542266D01*
X0001512958Y0000541141D01*
X0001510990Y0000538892D01*
X0001510427Y0000534392D01*
X0001511412Y0000526518D01*
X0001513099Y0000522019D01*
X0001515630Y0000519769D01*
X0001518020Y0000518644D01*
X0001522520Y0000518644D01*
X0001524629Y0000519769D01*
X0001526597Y0000522019D01*
X0001527160Y0000526518D01*
X0001526175Y0000534392D01*
X0001524488Y0000538892D01*
X0001521957Y0000541141D01*
X0001519567Y0000542266D01*
X0001492008Y0000519769D02*
X0001494398Y0000518644D01*
X0001498897Y0000518644D01*
X0001501007Y0000519769D01*
X0001501991Y0000520894D01*
X0001502834Y0000523144D01*
X0001501991Y0000529893D01*
X0001500585Y0000532142D01*
X0001499319Y0000533267D01*
X0001496929Y0000534392D01*
X0001492430Y0000534392D01*
X0001490320Y0000533267D01*
X0001483431Y0000534392D02*
X0001474432Y0000534392D01*
X0001479072Y0000542266D02*
X0001481603Y0000522019D01*
X0001480759Y0000519769D01*
X0001478650Y0000518644D01*
X0001476400Y0000518644D01*
X0001448982Y0000540016D02*
X0001447716Y0000541141D01*
X0001445326Y0000542266D01*
X0001439702Y0000542266D01*
X0001437593Y0000541141D01*
X0001436608Y0000540016D01*
X0001435765Y0000537767D01*
X0001436046Y0000535517D01*
X0001437593Y0000532142D01*
X0001452778Y0000518644D01*
X0001438155Y0000518644D01*
X0001420579Y0000542266D02*
X0001418329Y0000542266D01*
X0001416220Y0000541141D01*
X0001415236Y0000540016D01*
X0001414392Y0000537767D01*
X0001413830Y0000533267D01*
X0001414533Y0000527643D01*
X0001416220Y0000523144D01*
X0001417626Y0000520894D01*
X0001418892Y0000519769D01*
X0001421282Y0000518644D01*
X0001423532Y0000518644D01*
X0001425641Y0000519769D01*
X0001426625Y0000520894D01*
X0001427469Y0000523144D01*
X0001428031Y0000527643D01*
X0001427328Y0000533267D01*
X0001425641Y0000537767D01*
X0001424235Y0000540016D01*
X0001422969Y0000541141D01*
X0001420579Y0000542266D01*
X0001403987Y0000540016D02*
X0001402722Y0000541141D01*
X0001400332Y0000542266D01*
X0001394707Y0000542266D01*
X0001392598Y0000541141D01*
X0001391614Y0000540016D01*
X0001390770Y0000537767D01*
X0001391052Y0000535517D01*
X0001392598Y0000532142D01*
X0001407784Y0000518644D01*
X0001393161Y0000518644D01*
X0001370664Y0000518644D02*
X0001384162Y0000518644D01*
X0001377413Y0000518644D02*
X0001374460Y0000542266D01*
X0001377131Y0000538892D01*
X0001379662Y0000536642D01*
X0001382053Y0000535517D01*
D27*
X0001516591Y0000260123D02*
X0001513217Y0000258998D01*
X0001507592Y0000258998D01*
X0001505343Y0000260123D01*
X0001504218Y0000261248D01*
X0001503093Y0000263498D01*
X0001503093Y0000265748D01*
X0001504218Y0000267997D01*
X0001505343Y0000269122D01*
X0001507592Y0000270247D01*
X0001512092Y0000271372D01*
X0001514341Y0000272497D01*
X0001515466Y0000273622D01*
X0001516591Y0000275871D01*
X0001516591Y0000278121D01*
X0001515466Y0000280371D01*
X0001514341Y0000281496D01*
X0001512092Y0000282620D01*
X0001506467Y0000282620D01*
X0001503093Y0000281496D01*
X0001479471Y0000261248D02*
X0001480596Y0000260123D01*
X0001483970Y0000258998D01*
X0001486220Y0000258998D01*
X0001489595Y0000260123D01*
X0001491844Y0000262373D01*
X0001492969Y0000264623D01*
X0001494094Y0000269122D01*
X0001494094Y0000272497D01*
X0001492969Y0000276996D01*
X0001491844Y0000279246D01*
X0001489595Y0000281496D01*
X0001486220Y0000282620D01*
X0001483970Y0000282620D01*
X0001480596Y0000281496D01*
X0001479471Y0000280371D01*
X0001469347Y0000258998D02*
X0001469347Y0000282620D01*
X0001455849Y0000258998D02*
X0001465972Y0000272497D01*
X0001455849Y0000282620D02*
X0001469347Y0000269122D01*
X0001398481Y0000282620D02*
X0001409730Y0000282620D01*
X0001410854Y0000271372D01*
X0001409730Y0000272497D01*
X0001407480Y0000273622D01*
X0001401855Y0000273622D01*
X0001399606Y0000272497D01*
X0001398481Y0000271372D01*
X0001397356Y0000269122D01*
X0001397356Y0000263498D01*
X0001398481Y0000261248D01*
X0001399606Y0000260123D01*
X0001401855Y0000258998D01*
X0001407480Y0000258998D01*
X0001409730Y0000260123D01*
X0001410854Y0000261248D01*
X0001390607Y0000282620D02*
X0001382733Y0000258998D01*
X0001374859Y0000282620D01*
X0001507030Y0000242125D02*
X0001509280Y0000243250D01*
X0001512654Y0000243250D01*
X0001516029Y0000242125D01*
X0001518278Y0000239876D01*
X0001519403Y0000237626D01*
X0001520528Y0000233127D01*
X0001520528Y0000229752D01*
X0001519403Y0000225253D01*
X0001518278Y0000223003D01*
X0001516029Y0000220753D01*
X0001512654Y0000219628D01*
X0001510404Y0000219628D01*
X0001507030Y0000220753D01*
X0001505905Y0000221878D01*
X0001505905Y0000229752D01*
X0001510404Y0000229752D01*
X0001495781Y0000219628D02*
X0001495781Y0000243250D01*
X0001482283Y0000219628D01*
X0001482283Y0000243250D01*
X0001471034Y0000219628D02*
X0001471034Y0000243250D01*
X0001465410Y0000243250D01*
X0001462035Y0000242125D01*
X0001459786Y0000239876D01*
X0001458661Y0000237626D01*
X0001457536Y0000233127D01*
X0001457536Y0000229752D01*
X0001458661Y0000225253D01*
X0001459786Y0000223003D01*
X0001462035Y0000220753D01*
X0001465410Y0000219628D01*
X0001471034Y0000219628D01*
X0001430539Y0000220753D02*
X0001427165Y0000219628D01*
X0001421541Y0000219628D01*
X0001419291Y0000220753D01*
X0001418166Y0000221878D01*
X0001417041Y0000224128D01*
X0001417041Y0000226377D01*
X0001418166Y0000228627D01*
X0001419291Y0000229752D01*
X0001421541Y0000230877D01*
X0001426040Y0000232002D01*
X0001428290Y0000233127D01*
X0001429415Y0000234251D01*
X0001430539Y0000236501D01*
X0001430539Y0000238751D01*
X0001429415Y0000241001D01*
X0001428290Y0000242125D01*
X0001426040Y0000243250D01*
X0001420416Y0000243250D01*
X0001417041Y0000242125D01*
X0001406917Y0000219628D02*
X0001406917Y0000243250D01*
X0001401293Y0000243250D01*
X0001397918Y0000242125D01*
X0001395669Y0000239876D01*
X0001394544Y0000237626D01*
X0001393419Y0000233127D01*
X0001393419Y0000229752D01*
X0001394544Y0000225253D01*
X0001395669Y0000223003D01*
X0001397918Y0000220753D01*
X0001401293Y0000219628D01*
X0001406917Y0000219628D01*
X0001384420Y0000226377D02*
X0001373172Y0000226377D01*
X0001386670Y0000219628D02*
X0001378796Y0000243250D01*
X0001370922Y0000219628D01*
D28*
X0001511220Y0000783070D02*
X0001529921Y0000783070D01*
X0001363779Y0000616929D02*
X0001363779Y0000635629D01*
X0001382480Y0000616929D02*
X0001363779Y0000616929D01*
X0001529921Y0000616929D02*
X0001529921Y0000635629D01*
X0001511220Y0000616929D02*
X0001529921Y0000616929D01*
X0001363779Y0000783070D02*
X0001363779Y0000764370D01*
X0001382480Y0000783070D02*
X0001363779Y0000783070D01*
X0001462910Y0000978937D02*
X0001480789Y0000978937D01*
X0001462910Y0000921062D02*
X0001480789Y0000921062D01*
X0001430789Y0001021062D02*
X0001412910Y0001021062D01*
X0001430789Y0001078937D02*
X0001412910Y0001078937D01*
X0001462910Y0001178937D02*
X0001480789Y0001178937D01*
X0001462910Y0001121062D02*
X0001480789Y0001121062D01*
X0001430789Y0001221062D02*
X0001412910Y0001221062D01*
X0001430789Y0001278937D02*
X0001412910Y0001278937D01*
X0001462910Y0001378937D02*
X0001480789Y0001378937D01*
X0001462910Y0001321062D02*
X0001480789Y0001321062D01*
X0001430789Y0001421062D02*
X0001412910Y0001421062D01*
X0001430789Y0001478937D02*
X0001412910Y0001478937D01*
X0001462910Y0001578937D02*
X0001480789Y0001578937D01*
X0001462910Y0001521062D02*
X0001480789Y0001521062D01*
X0001430789Y0001621062D02*
X0001412910Y0001621062D01*
X0001430789Y0001678937D02*
X0001412910Y0001678937D01*
X0001462910Y0001778937D02*
X0001480789Y0001778937D01*
X0001462910Y0001721062D02*
X0001480789Y0001721062D01*
X0001430789Y0001821062D02*
X0001412910Y0001821062D01*
X0001430789Y0001878937D02*
X0001412910Y0001878937D01*
X0001455789Y0000448937D02*
X0001437910Y0000448937D01*
X0001455789Y0000391062D02*
X0001437910Y0000391062D01*
X0001455789Y0000528937D02*
X0001437910Y0000528937D01*
X0001455789Y0000471062D02*
X0001437910Y0000471062D01*
X0001430789Y0002271062D02*
X0001412910Y0002271062D01*
X0001430789Y0002328937D02*
X0001412910Y0002328937D01*
X0001462910Y0002228937D02*
X0001480789Y0002228937D01*
X0001462910Y0002171062D02*
X0001480789Y0002171062D01*
X0001430789Y0002128937D02*
X0001412910Y0002128937D01*
X0001430789Y0002071062D02*
X0001412910Y0002071062D01*
X0001462910Y0001971062D02*
X0001480789Y0001971062D01*
X0001462910Y0002028937D02*
X0001480789Y0002028937D01*
X0001344488Y0000202362D02*
X0001344488Y0000150000D01*
X0001396850Y0000202362D02*
X0001344488Y0000202362D01*
X0001446850Y0000202362D02*
X0001446850Y0000097637D01*
X0001446850Y0000097637D02*
X0001549212Y0000097637D01*
X0001446850Y0000202362D02*
X0001549212Y0000202362D01*
X0001549212Y0000202362D02*
X0001549212Y0000097637D01*
X0001513188Y0000292204D02*
X0001407480Y0000292204D01*
X0001513188Y0000367795D02*
X0001513188Y0000292204D01*
X0001407480Y0000367795D02*
X0001513188Y0000367795D01*
G04 next file*
G04 #@! TF.GenerationSoftware,KiCad,Pcbnew,(5.1.10)-1*
G04 #@! TF.CreationDate,2021-10-24T19:42:44-07:00*
G04 #@! TF.ProjectId,project,70726f6a-6563-4742-9e6b-696361645f70,rev?*
G04 #@! TF.SameCoordinates,Original*
G04 #@! TF.FileFunction,Legend,Bot*
G04 #@! TF.FilePolarity,Positive*
G04 Gerber Fmt 4.6, Leading zero omitted, Abs format (unit mm)*
G04 Created by KiCad (PCBNEW (5.1.10)-1) date 2021-10-24 19:42:44*
G01*
G04 APERTURE LIST*
G04 APERTURE END LIST*
D29*
X0002096760Y0000559983D02*
X0002103228Y0000571231D01*
X0002110259Y0000559983D02*
X0002107306Y0000583605D01*
X0002098307Y0000583605D01*
X0002096198Y0000582480D01*
X0002095214Y0000581355D01*
X0002094370Y0000579105D01*
X0002094792Y0000575731D01*
X0002096198Y0000573481D01*
X0002097463Y0000572356D01*
X0002099854Y0000571231D01*
X0002108852Y0000571231D01*
X0002077497Y0000561107D02*
X0002079887Y0000559983D01*
X0002084387Y0000559983D01*
X0002086496Y0000561107D01*
X0002087340Y0000563357D01*
X0002086215Y0000572356D01*
X0002084809Y0000574606D01*
X0002082418Y0000575731D01*
X0002077919Y0000575731D01*
X0002075810Y0000574606D01*
X0002074966Y0000572356D01*
X0002075247Y0000570106D01*
X0002086777Y0000567857D01*
X0002066670Y0000575731D02*
X0002063014Y0000559983D01*
X0002055422Y0000575731D01*
X0002022941Y0000583605D02*
X0002020692Y0000583605D01*
X0002018582Y0000582480D01*
X0002017598Y0000581355D01*
X0002016755Y0000579105D01*
X0002016192Y0000574606D01*
X0002016895Y0000568982D01*
X0002018582Y0000564482D01*
X0002019989Y0000562232D01*
X0002021254Y0000561107D01*
X0002023644Y0000559983D01*
X0002025894Y0000559983D01*
X0002028003Y0000561107D01*
X0002028987Y0000562232D01*
X0002029831Y0000564482D01*
X0002030394Y0000568982D01*
X0002029690Y0000574606D01*
X0002028003Y0000579105D01*
X0002026597Y0000581355D01*
X0002025332Y0000582480D01*
X0002022941Y0000583605D01*
X0002007615Y0000562232D02*
X0002006631Y0000561107D01*
X0002007896Y0000559983D01*
X0002008881Y0000561107D01*
X0002007615Y0000562232D01*
X0002007896Y0000559983D01*
X0001984274Y0000559983D02*
X0001997773Y0000559983D01*
X0001991023Y0000559983D02*
X0001988071Y0000583605D01*
X0001990742Y0000580230D01*
X0001993273Y0000577980D01*
X0001995664Y0000576856D01*
X0002117992Y0000542266D02*
X0002113493Y0000542266D01*
X0002111383Y0000541141D01*
X0002109415Y0000538892D01*
X0002108852Y0000534392D01*
X0002109837Y0000526518D01*
X0002111524Y0000522019D01*
X0002114055Y0000519769D01*
X0002116445Y0000518644D01*
X0002120945Y0000518644D01*
X0002123054Y0000519769D01*
X0002125022Y0000522019D01*
X0002125585Y0000526518D01*
X0002124601Y0000534392D01*
X0002122913Y0000538892D01*
X0002120382Y0000541141D01*
X0002117992Y0000542266D01*
X0002090433Y0000519769D02*
X0002092823Y0000518644D01*
X0002097323Y0000518644D01*
X0002099432Y0000519769D01*
X0002100416Y0000520894D01*
X0002101260Y0000523144D01*
X0002100416Y0000529893D01*
X0002099010Y0000532142D01*
X0002097745Y0000533267D01*
X0002095354Y0000534392D01*
X0002090855Y0000534392D01*
X0002088746Y0000533267D01*
X0002081856Y0000534392D02*
X0002072857Y0000534392D01*
X0002077497Y0000542266D02*
X0002080028Y0000522019D01*
X0002079184Y0000519769D01*
X0002077075Y0000518644D01*
X0002074825Y0000518644D01*
X0002047407Y0000540016D02*
X0002046142Y0000541141D01*
X0002043751Y0000542266D01*
X0002038127Y0000542266D01*
X0002036018Y0000541141D01*
X0002035034Y0000540016D01*
X0002034190Y0000537767D01*
X0002034471Y0000535517D01*
X0002036018Y0000532142D01*
X0002051203Y0000518644D01*
X0002036580Y0000518644D01*
X0002019004Y0000542266D02*
X0002016755Y0000542266D01*
X0002014645Y0000541141D01*
X0002013661Y0000540016D01*
X0002012818Y0000537767D01*
X0002012255Y0000533267D01*
X0002012958Y0000527643D01*
X0002014645Y0000523144D01*
X0002016052Y0000520894D01*
X0002017317Y0000519769D01*
X0002019707Y0000518644D01*
X0002021957Y0000518644D01*
X0002024066Y0000519769D01*
X0002025050Y0000520894D01*
X0002025894Y0000523144D01*
X0002026457Y0000527643D01*
X0002025753Y0000533267D01*
X0002024066Y0000537767D01*
X0002022660Y0000540016D01*
X0002021395Y0000541141D01*
X0002019004Y0000542266D01*
X0002002413Y0000540016D02*
X0002001147Y0000541141D01*
X0001998757Y0000542266D01*
X0001993133Y0000542266D01*
X0001991023Y0000541141D01*
X0001990039Y0000540016D01*
X0001989196Y0000537767D01*
X0001989477Y0000535517D01*
X0001991023Y0000532142D01*
X0002006209Y0000518644D01*
X0001991586Y0000518644D01*
X0001969089Y0000518644D02*
X0001982587Y0000518644D01*
X0001975838Y0000518644D02*
X0001972885Y0000542266D01*
X0001975557Y0000538892D01*
X0001978088Y0000536642D01*
X0001980478Y0000535517D01*
D30*
X0002115016Y0000260123D02*
X0002111642Y0000258998D01*
X0002106017Y0000258998D01*
X0002103768Y0000260123D01*
X0002102643Y0000261248D01*
X0002101518Y0000263498D01*
X0002101518Y0000265748D01*
X0002102643Y0000267997D01*
X0002103768Y0000269122D01*
X0002106017Y0000270247D01*
X0002110517Y0000271372D01*
X0002112767Y0000272497D01*
X0002113892Y0000273622D01*
X0002115016Y0000275871D01*
X0002115016Y0000278121D01*
X0002113892Y0000280371D01*
X0002112767Y0000281496D01*
X0002110517Y0000282620D01*
X0002104893Y0000282620D01*
X0002101518Y0000281496D01*
X0002077896Y0000261248D02*
X0002079021Y0000260123D01*
X0002082395Y0000258998D01*
X0002084645Y0000258998D01*
X0002088020Y0000260123D01*
X0002090269Y0000262373D01*
X0002091394Y0000264623D01*
X0002092519Y0000269122D01*
X0002092519Y0000272497D01*
X0002091394Y0000276996D01*
X0002090269Y0000279246D01*
X0002088020Y0000281496D01*
X0002084645Y0000282620D01*
X0002082395Y0000282620D01*
X0002079021Y0000281496D01*
X0002077896Y0000280371D01*
X0002067772Y0000258998D02*
X0002067772Y0000282620D01*
X0002054274Y0000258998D02*
X0002064398Y0000272497D01*
X0002054274Y0000282620D02*
X0002067772Y0000269122D01*
X0001996906Y0000282620D02*
X0002008155Y0000282620D01*
X0002009280Y0000271372D01*
X0002008155Y0000272497D01*
X0002005905Y0000273622D01*
X0002000281Y0000273622D01*
X0001998031Y0000272497D01*
X0001996906Y0000271372D01*
X0001995781Y0000269122D01*
X0001995781Y0000263498D01*
X0001996906Y0000261248D01*
X0001998031Y0000260123D01*
X0002000281Y0000258998D01*
X0002005905Y0000258998D01*
X0002008155Y0000260123D01*
X0002009280Y0000261248D01*
X0001989032Y0000282620D02*
X0001981158Y0000258998D01*
X0001973284Y0000282620D01*
X0002105455Y0000242125D02*
X0002107705Y0000243250D01*
X0002111079Y0000243250D01*
X0002114454Y0000242125D01*
X0002116704Y0000239876D01*
X0002117829Y0000237626D01*
X0002118953Y0000233127D01*
X0002118953Y0000229752D01*
X0002117829Y0000225253D01*
X0002116704Y0000223003D01*
X0002114454Y0000220753D01*
X0002111079Y0000219628D01*
X0002108830Y0000219628D01*
X0002105455Y0000220753D01*
X0002104330Y0000221878D01*
X0002104330Y0000229752D01*
X0002108830Y0000229752D01*
X0002094206Y0000219628D02*
X0002094206Y0000243250D01*
X0002080708Y0000219628D01*
X0002080708Y0000243250D01*
X0002069460Y0000219628D02*
X0002069460Y0000243250D01*
X0002063835Y0000243250D01*
X0002060461Y0000242125D01*
X0002058211Y0000239876D01*
X0002057086Y0000237626D01*
X0002055961Y0000233127D01*
X0002055961Y0000229752D01*
X0002057086Y0000225253D01*
X0002058211Y0000223003D01*
X0002060461Y0000220753D01*
X0002063835Y0000219628D01*
X0002069460Y0000219628D01*
X0002028965Y0000220753D02*
X0002025590Y0000219628D01*
X0002019966Y0000219628D01*
X0002017716Y0000220753D01*
X0002016591Y0000221878D01*
X0002015466Y0000224128D01*
X0002015466Y0000226377D01*
X0002016591Y0000228627D01*
X0002017716Y0000229752D01*
X0002019966Y0000230877D01*
X0002024465Y0000232002D01*
X0002026715Y0000233127D01*
X0002027840Y0000234251D01*
X0002028965Y0000236501D01*
X0002028965Y0000238751D01*
X0002027840Y0000241001D01*
X0002026715Y0000242125D01*
X0002024465Y0000243250D01*
X0002018841Y0000243250D01*
X0002015466Y0000242125D01*
X0002005343Y0000219628D02*
X0002005343Y0000243250D01*
X0001999718Y0000243250D01*
X0001996344Y0000242125D01*
X0001994094Y0000239876D01*
X0001992969Y0000237626D01*
X0001991844Y0000233127D01*
X0001991844Y0000229752D01*
X0001992969Y0000225253D01*
X0001994094Y0000223003D01*
X0001996344Y0000220753D01*
X0001999718Y0000219628D01*
X0002005343Y0000219628D01*
X0001982845Y0000226377D02*
X0001971597Y0000226377D01*
X0001985095Y0000219628D02*
X0001977221Y0000243250D01*
X0001969347Y0000219628D01*
D31*
X0002109645Y0000783070D02*
X0002128346Y0000783070D01*
X0001962204Y0000616929D02*
X0001962204Y0000635629D01*
X0001980905Y0000616929D02*
X0001962204Y0000616929D01*
X0002128346Y0000616929D02*
X0002128346Y0000635629D01*
X0002109645Y0000616929D02*
X0002128346Y0000616929D01*
X0001962204Y0000783070D02*
X0001962204Y0000764370D01*
X0001980905Y0000783070D02*
X0001962204Y0000783070D01*
X0002061336Y0000978937D02*
X0002079215Y0000978937D01*
X0002061336Y0000921062D02*
X0002079215Y0000921062D01*
X0002029215Y0001021062D02*
X0002011336Y0001021062D01*
X0002029215Y0001078937D02*
X0002011336Y0001078937D01*
X0002061336Y0001178937D02*
X0002079215Y0001178937D01*
X0002061336Y0001121062D02*
X0002079215Y0001121062D01*
X0002029215Y0001221062D02*
X0002011336Y0001221062D01*
X0002029215Y0001278937D02*
X0002011336Y0001278937D01*
X0002061336Y0001378937D02*
X0002079215Y0001378937D01*
X0002061336Y0001321062D02*
X0002079215Y0001321062D01*
X0002029215Y0001421062D02*
X0002011336Y0001421062D01*
X0002029215Y0001478937D02*
X0002011336Y0001478937D01*
X0002061336Y0001578937D02*
X0002079215Y0001578937D01*
X0002061336Y0001521062D02*
X0002079215Y0001521062D01*
X0002029215Y0001621062D02*
X0002011336Y0001621062D01*
X0002029215Y0001678937D02*
X0002011336Y0001678937D01*
X0002061336Y0001778937D02*
X0002079215Y0001778937D01*
X0002061336Y0001721062D02*
X0002079215Y0001721062D01*
X0002029215Y0001821062D02*
X0002011336Y0001821062D01*
X0002029215Y0001878937D02*
X0002011336Y0001878937D01*
X0002054215Y0000448937D02*
X0002036336Y0000448937D01*
X0002054215Y0000391062D02*
X0002036336Y0000391062D01*
X0002054215Y0000528937D02*
X0002036336Y0000528937D01*
X0002054215Y0000471062D02*
X0002036336Y0000471062D01*
X0002029215Y0002271062D02*
X0002011336Y0002271062D01*
X0002029215Y0002328937D02*
X0002011336Y0002328937D01*
X0002061336Y0002228937D02*
X0002079215Y0002228937D01*
X0002061336Y0002171062D02*
X0002079215Y0002171062D01*
X0002029215Y0002128937D02*
X0002011336Y0002128937D01*
X0002029215Y0002071062D02*
X0002011336Y0002071062D01*
X0002061336Y0001971062D02*
X0002079215Y0001971062D01*
X0002061336Y0002028937D02*
X0002079215Y0002028937D01*
X0001942913Y0000202362D02*
X0001942913Y0000150000D01*
X0001995275Y0000202362D02*
X0001942913Y0000202362D01*
X0002045275Y0000202362D02*
X0002045275Y0000097637D01*
X0002045275Y0000097637D02*
X0002147637Y0000097637D01*
X0002045275Y0000202362D02*
X0002147637Y0000202362D01*
X0002147637Y0000202362D02*
X0002147637Y0000097637D01*
X0002111614Y0000292204D02*
X0002005905Y0000292204D01*
X0002111614Y0000367795D02*
X0002111614Y0000292204D01*
X0002005905Y0000367795D02*
X0002111614Y0000367795D01*
G04 next file*
G04 #@! TF.GenerationSoftware,KiCad,Pcbnew,(5.1.10)-1*
G04 #@! TF.CreationDate,2021-10-24T19:42:44-07:00*
G04 #@! TF.ProjectId,project,70726f6a-6563-4742-9e6b-696361645f70,rev?*
G04 #@! TF.SameCoordinates,Original*
G04 #@! TF.FileFunction,Legend,Bot*
G04 #@! TF.FilePolarity,Positive*
G04 Gerber Fmt 4.6, Leading zero omitted, Abs format (unit mm)*
G04 Created by KiCad (PCBNEW (5.1.10)-1) date 2021-10-24 19:42:44*
G01*
G04 APERTURE LIST*
G04 APERTURE END LIST*
D32*
X0002695185Y0000559983D02*
X0002701653Y0000571231D01*
X0002708684Y0000559983D02*
X0002705731Y0000583605D01*
X0002696732Y0000583605D01*
X0002694623Y0000582480D01*
X0002693639Y0000581355D01*
X0002692795Y0000579105D01*
X0002693217Y0000575731D01*
X0002694623Y0000573481D01*
X0002695888Y0000572356D01*
X0002698279Y0000571231D01*
X0002707278Y0000571231D01*
X0002675922Y0000561107D02*
X0002678313Y0000559983D01*
X0002682812Y0000559983D01*
X0002684921Y0000561107D01*
X0002685765Y0000563357D01*
X0002684640Y0000572356D01*
X0002683234Y0000574606D01*
X0002680843Y0000575731D01*
X0002676344Y0000575731D01*
X0002674235Y0000574606D01*
X0002673391Y0000572356D01*
X0002673672Y0000570106D01*
X0002685202Y0000567857D01*
X0002665095Y0000575731D02*
X0002661440Y0000559983D01*
X0002653847Y0000575731D01*
X0002621367Y0000583605D02*
X0002619117Y0000583605D01*
X0002617008Y0000582480D01*
X0002616023Y0000581355D01*
X0002615180Y0000579105D01*
X0002614617Y0000574606D01*
X0002615320Y0000568982D01*
X0002617008Y0000564482D01*
X0002618414Y0000562232D01*
X0002619679Y0000561107D01*
X0002622070Y0000559983D01*
X0002624319Y0000559983D01*
X0002626428Y0000561107D01*
X0002627413Y0000562232D01*
X0002628256Y0000564482D01*
X0002628819Y0000568982D01*
X0002628116Y0000574606D01*
X0002626428Y0000579105D01*
X0002625022Y0000581355D01*
X0002623757Y0000582480D01*
X0002621367Y0000583605D01*
X0002606040Y0000562232D02*
X0002605056Y0000561107D01*
X0002606322Y0000559983D01*
X0002607306Y0000561107D01*
X0002606040Y0000562232D01*
X0002606322Y0000559983D01*
X0002582700Y0000559983D02*
X0002596198Y0000559983D01*
X0002589449Y0000559983D02*
X0002586496Y0000583605D01*
X0002589167Y0000580230D01*
X0002591698Y0000577980D01*
X0002594089Y0000576856D01*
X0002716417Y0000542266D02*
X0002711918Y0000542266D01*
X0002709809Y0000541141D01*
X0002707840Y0000538892D01*
X0002707278Y0000534392D01*
X0002708262Y0000526518D01*
X0002709949Y0000522019D01*
X0002712480Y0000519769D01*
X0002714870Y0000518644D01*
X0002719370Y0000518644D01*
X0002721479Y0000519769D01*
X0002723448Y0000522019D01*
X0002724010Y0000526518D01*
X0002723026Y0000534392D01*
X0002721338Y0000538892D01*
X0002718807Y0000541141D01*
X0002716417Y0000542266D01*
X0002688858Y0000519769D02*
X0002691248Y0000518644D01*
X0002695748Y0000518644D01*
X0002697857Y0000519769D01*
X0002698841Y0000520894D01*
X0002699685Y0000523144D01*
X0002698841Y0000529893D01*
X0002697435Y0000532142D01*
X0002696170Y0000533267D01*
X0002693779Y0000534392D01*
X0002689280Y0000534392D01*
X0002687171Y0000533267D01*
X0002680281Y0000534392D02*
X0002671282Y0000534392D01*
X0002675922Y0000542266D02*
X0002678453Y0000522019D01*
X0002677610Y0000519769D01*
X0002675500Y0000518644D01*
X0002673251Y0000518644D01*
X0002645832Y0000540016D02*
X0002644567Y0000541141D01*
X0002642176Y0000542266D01*
X0002636552Y0000542266D01*
X0002634443Y0000541141D01*
X0002633459Y0000540016D01*
X0002632615Y0000537767D01*
X0002632896Y0000535517D01*
X0002634443Y0000532142D01*
X0002649629Y0000518644D01*
X0002635005Y0000518644D01*
X0002617430Y0000542266D02*
X0002615180Y0000542266D01*
X0002613071Y0000541141D01*
X0002612086Y0000540016D01*
X0002611243Y0000537767D01*
X0002610680Y0000533267D01*
X0002611383Y0000527643D01*
X0002613071Y0000523144D01*
X0002614477Y0000520894D01*
X0002615742Y0000519769D01*
X0002618133Y0000518644D01*
X0002620382Y0000518644D01*
X0002622491Y0000519769D01*
X0002623476Y0000520894D01*
X0002624319Y0000523144D01*
X0002624882Y0000527643D01*
X0002624179Y0000533267D01*
X0002622491Y0000537767D01*
X0002621085Y0000540016D01*
X0002619820Y0000541141D01*
X0002617430Y0000542266D01*
X0002600838Y0000540016D02*
X0002599572Y0000541141D01*
X0002597182Y0000542266D01*
X0002591558Y0000542266D01*
X0002589449Y0000541141D01*
X0002588464Y0000540016D01*
X0002587621Y0000537767D01*
X0002587902Y0000535517D01*
X0002589449Y0000532142D01*
X0002604634Y0000518644D01*
X0002590011Y0000518644D01*
X0002567514Y0000518644D02*
X0002581012Y0000518644D01*
X0002574263Y0000518644D02*
X0002571310Y0000542266D01*
X0002573982Y0000538892D01*
X0002576513Y0000536642D01*
X0002578903Y0000535517D01*
D33*
X0002713442Y0000260123D02*
X0002710067Y0000258998D01*
X0002704443Y0000258998D01*
X0002702193Y0000260123D01*
X0002701068Y0000261248D01*
X0002699943Y0000263498D01*
X0002699943Y0000265748D01*
X0002701068Y0000267997D01*
X0002702193Y0000269122D01*
X0002704443Y0000270247D01*
X0002708942Y0000271372D01*
X0002711192Y0000272497D01*
X0002712317Y0000273622D01*
X0002713442Y0000275871D01*
X0002713442Y0000278121D01*
X0002712317Y0000280371D01*
X0002711192Y0000281496D01*
X0002708942Y0000282620D01*
X0002703318Y0000282620D01*
X0002699943Y0000281496D01*
X0002676321Y0000261248D02*
X0002677446Y0000260123D01*
X0002680821Y0000258998D01*
X0002683070Y0000258998D01*
X0002686445Y0000260123D01*
X0002688695Y0000262373D01*
X0002689820Y0000264623D01*
X0002690944Y0000269122D01*
X0002690944Y0000272497D01*
X0002689820Y0000276996D01*
X0002688695Y0000279246D01*
X0002686445Y0000281496D01*
X0002683070Y0000282620D01*
X0002680821Y0000282620D01*
X0002677446Y0000281496D01*
X0002676321Y0000280371D01*
X0002666197Y0000258998D02*
X0002666197Y0000282620D01*
X0002652699Y0000258998D02*
X0002662823Y0000272497D01*
X0002652699Y0000282620D02*
X0002666197Y0000269122D01*
X0002595331Y0000282620D02*
X0002606580Y0000282620D01*
X0002607705Y0000271372D01*
X0002606580Y0000272497D01*
X0002604330Y0000273622D01*
X0002598706Y0000273622D01*
X0002596456Y0000272497D01*
X0002595331Y0000271372D01*
X0002594206Y0000269122D01*
X0002594206Y0000263498D01*
X0002595331Y0000261248D01*
X0002596456Y0000260123D01*
X0002598706Y0000258998D01*
X0002604330Y0000258998D01*
X0002606580Y0000260123D01*
X0002607705Y0000261248D01*
X0002587457Y0000282620D02*
X0002579583Y0000258998D01*
X0002571709Y0000282620D01*
X0002703880Y0000242125D02*
X0002706130Y0000243250D01*
X0002709505Y0000243250D01*
X0002712879Y0000242125D01*
X0002715129Y0000239876D01*
X0002716254Y0000237626D01*
X0002717379Y0000233127D01*
X0002717379Y0000229752D01*
X0002716254Y0000225253D01*
X0002715129Y0000223003D01*
X0002712879Y0000220753D01*
X0002709505Y0000219628D01*
X0002707255Y0000219628D01*
X0002703880Y0000220753D01*
X0002702755Y0000221878D01*
X0002702755Y0000229752D01*
X0002707255Y0000229752D01*
X0002692632Y0000219628D02*
X0002692632Y0000243250D01*
X0002679133Y0000219628D01*
X0002679133Y0000243250D01*
X0002667885Y0000219628D02*
X0002667885Y0000243250D01*
X0002662260Y0000243250D01*
X0002658886Y0000242125D01*
X0002656636Y0000239876D01*
X0002655511Y0000237626D01*
X0002654386Y0000233127D01*
X0002654386Y0000229752D01*
X0002655511Y0000225253D01*
X0002656636Y0000223003D01*
X0002658886Y0000220753D01*
X0002662260Y0000219628D01*
X0002667885Y0000219628D01*
X0002627390Y0000220753D02*
X0002624015Y0000219628D01*
X0002618391Y0000219628D01*
X0002616141Y0000220753D01*
X0002615016Y0000221878D01*
X0002613892Y0000224128D01*
X0002613892Y0000226377D01*
X0002615016Y0000228627D01*
X0002616141Y0000229752D01*
X0002618391Y0000230877D01*
X0002622890Y0000232002D01*
X0002625140Y0000233127D01*
X0002626265Y0000234251D01*
X0002627390Y0000236501D01*
X0002627390Y0000238751D01*
X0002626265Y0000241001D01*
X0002625140Y0000242125D01*
X0002622890Y0000243250D01*
X0002617266Y0000243250D01*
X0002613892Y0000242125D01*
X0002603768Y0000219628D02*
X0002603768Y0000243250D01*
X0002598143Y0000243250D01*
X0002594769Y0000242125D01*
X0002592519Y0000239876D01*
X0002591394Y0000237626D01*
X0002590269Y0000233127D01*
X0002590269Y0000229752D01*
X0002591394Y0000225253D01*
X0002592519Y0000223003D01*
X0002594769Y0000220753D01*
X0002598143Y0000219628D01*
X0002603768Y0000219628D01*
X0002581271Y0000226377D02*
X0002570022Y0000226377D01*
X0002583520Y0000219628D02*
X0002575646Y0000243250D01*
X0002567772Y0000219628D01*
D34*
X0002708070Y0000783070D02*
X0002726771Y0000783070D01*
X0002560629Y0000616929D02*
X0002560629Y0000635629D01*
X0002579330Y0000616929D02*
X0002560629Y0000616929D01*
X0002726771Y0000616929D02*
X0002726771Y0000635629D01*
X0002708070Y0000616929D02*
X0002726771Y0000616929D01*
X0002560629Y0000783070D02*
X0002560629Y0000764370D01*
X0002579330Y0000783070D02*
X0002560629Y0000783070D01*
X0002659761Y0000978937D02*
X0002677640Y0000978937D01*
X0002659761Y0000921062D02*
X0002677640Y0000921062D01*
X0002627640Y0001021062D02*
X0002609761Y0001021062D01*
X0002627640Y0001078937D02*
X0002609761Y0001078937D01*
X0002659761Y0001178937D02*
X0002677640Y0001178937D01*
X0002659761Y0001121062D02*
X0002677640Y0001121062D01*
X0002627640Y0001221062D02*
X0002609761Y0001221062D01*
X0002627640Y0001278937D02*
X0002609761Y0001278937D01*
X0002659761Y0001378937D02*
X0002677640Y0001378937D01*
X0002659761Y0001321062D02*
X0002677640Y0001321062D01*
X0002627640Y0001421062D02*
X0002609761Y0001421062D01*
X0002627640Y0001478937D02*
X0002609761Y0001478937D01*
X0002659761Y0001578937D02*
X0002677640Y0001578937D01*
X0002659761Y0001521062D02*
X0002677640Y0001521062D01*
X0002627640Y0001621062D02*
X0002609761Y0001621062D01*
X0002627640Y0001678937D02*
X0002609761Y0001678937D01*
X0002659761Y0001778937D02*
X0002677640Y0001778937D01*
X0002659761Y0001721062D02*
X0002677640Y0001721062D01*
X0002627640Y0001821062D02*
X0002609761Y0001821062D01*
X0002627640Y0001878937D02*
X0002609761Y0001878937D01*
X0002652640Y0000448937D02*
X0002634761Y0000448937D01*
X0002652640Y0000391062D02*
X0002634761Y0000391062D01*
X0002652640Y0000528937D02*
X0002634761Y0000528937D01*
X0002652640Y0000471062D02*
X0002634761Y0000471062D01*
X0002627640Y0002271062D02*
X0002609761Y0002271062D01*
X0002627640Y0002328937D02*
X0002609761Y0002328937D01*
X0002659761Y0002228937D02*
X0002677640Y0002228937D01*
X0002659761Y0002171062D02*
X0002677640Y0002171062D01*
X0002627640Y0002128937D02*
X0002609761Y0002128937D01*
X0002627640Y0002071062D02*
X0002609761Y0002071062D01*
X0002659761Y0001971062D02*
X0002677640Y0001971062D01*
X0002659761Y0002028937D02*
X0002677640Y0002028937D01*
X0002541338Y0000202362D02*
X0002541338Y0000150000D01*
X0002593700Y0000202362D02*
X0002541338Y0000202362D01*
X0002643700Y0000202362D02*
X0002643700Y0000097637D01*
X0002643700Y0000097637D02*
X0002746062Y0000097637D01*
X0002643700Y0000202362D02*
X0002746062Y0000202362D01*
X0002746062Y0000202362D02*
X0002746062Y0000097637D01*
X0002710039Y0000292204D02*
X0002604330Y0000292204D01*
X0002710039Y0000367795D02*
X0002710039Y0000292204D01*
X0002604330Y0000367795D02*
X0002710039Y0000367795D01*
G04 next file*
G04 #@! TF.GenerationSoftware,KiCad,Pcbnew,(5.1.10)-1*
G04 #@! TF.CreationDate,2021-10-24T19:42:44-07:00*
G04 #@! TF.ProjectId,project,70726f6a-6563-4742-9e6b-696361645f70,rev?*
G04 #@! TF.SameCoordinates,Original*
G04 #@! TF.FileFunction,Legend,Bot*
G04 #@! TF.FilePolarity,Positive*
G04 Gerber Fmt 4.6, Leading zero omitted, Abs format (unit mm)*
G04 Created by KiCad (PCBNEW (5.1.10)-1) date 2021-10-24 19:42:44*
G01*
G04 APERTURE LIST*
G04 APERTURE END LIST*
D35*
X0003293611Y0000559983D02*
X0003300079Y0000571231D01*
X0003307109Y0000559983D02*
X0003304156Y0000583605D01*
X0003295157Y0000583605D01*
X0003293048Y0000582480D01*
X0003292064Y0000581355D01*
X0003291220Y0000579105D01*
X0003291642Y0000575731D01*
X0003293048Y0000573481D01*
X0003294314Y0000572356D01*
X0003296704Y0000571231D01*
X0003305703Y0000571231D01*
X0003274347Y0000561107D02*
X0003276738Y0000559983D01*
X0003281237Y0000559983D01*
X0003283346Y0000561107D01*
X0003284190Y0000563357D01*
X0003283065Y0000572356D01*
X0003281659Y0000574606D01*
X0003279269Y0000575731D01*
X0003274769Y0000575731D01*
X0003272660Y0000574606D01*
X0003271816Y0000572356D01*
X0003272098Y0000570106D01*
X0003283627Y0000567857D01*
X0003263521Y0000575731D02*
X0003259865Y0000559983D01*
X0003252272Y0000575731D01*
X0003219792Y0000583605D02*
X0003217542Y0000583605D01*
X0003215433Y0000582480D01*
X0003214449Y0000581355D01*
X0003213605Y0000579105D01*
X0003213043Y0000574606D01*
X0003213746Y0000568982D01*
X0003215433Y0000564482D01*
X0003216839Y0000562232D01*
X0003218104Y0000561107D01*
X0003220495Y0000559983D01*
X0003222744Y0000559983D01*
X0003224854Y0000561107D01*
X0003225838Y0000562232D01*
X0003226682Y0000564482D01*
X0003227244Y0000568982D01*
X0003226541Y0000574606D01*
X0003224854Y0000579105D01*
X0003223448Y0000581355D01*
X0003222182Y0000582480D01*
X0003219792Y0000583605D01*
X0003204466Y0000562232D02*
X0003203481Y0000561107D01*
X0003204747Y0000559983D01*
X0003205731Y0000561107D01*
X0003204466Y0000562232D01*
X0003204747Y0000559983D01*
X0003181125Y0000559983D02*
X0003194623Y0000559983D01*
X0003187874Y0000559983D02*
X0003184921Y0000583605D01*
X0003187593Y0000580230D01*
X0003190124Y0000577980D01*
X0003192514Y0000576856D01*
X0003314842Y0000542266D02*
X0003310343Y0000542266D01*
X0003308234Y0000541141D01*
X0003306265Y0000538892D01*
X0003305703Y0000534392D01*
X0003306687Y0000526518D01*
X0003308374Y0000522019D01*
X0003310905Y0000519769D01*
X0003313296Y0000518644D01*
X0003317795Y0000518644D01*
X0003319904Y0000519769D01*
X0003321873Y0000522019D01*
X0003322435Y0000526518D01*
X0003321451Y0000534392D01*
X0003319764Y0000538892D01*
X0003317233Y0000541141D01*
X0003314842Y0000542266D01*
X0003287283Y0000519769D02*
X0003289674Y0000518644D01*
X0003294173Y0000518644D01*
X0003296282Y0000519769D01*
X0003297266Y0000520894D01*
X0003298110Y0000523144D01*
X0003297266Y0000529893D01*
X0003295860Y0000532142D01*
X0003294595Y0000533267D01*
X0003292205Y0000534392D01*
X0003287705Y0000534392D01*
X0003285596Y0000533267D01*
X0003278706Y0000534392D02*
X0003269707Y0000534392D01*
X0003274347Y0000542266D02*
X0003276878Y0000522019D01*
X0003276035Y0000519769D01*
X0003273926Y0000518644D01*
X0003271676Y0000518644D01*
X0003244257Y0000540016D02*
X0003242992Y0000541141D01*
X0003240602Y0000542266D01*
X0003234977Y0000542266D01*
X0003232868Y0000541141D01*
X0003231884Y0000540016D01*
X0003231040Y0000537767D01*
X0003231322Y0000535517D01*
X0003232868Y0000532142D01*
X0003248054Y0000518644D01*
X0003233431Y0000518644D01*
X0003215855Y0000542266D02*
X0003213605Y0000542266D01*
X0003211496Y0000541141D01*
X0003210512Y0000540016D01*
X0003209668Y0000537767D01*
X0003209106Y0000533267D01*
X0003209809Y0000527643D01*
X0003211496Y0000523144D01*
X0003212902Y0000520894D01*
X0003214167Y0000519769D01*
X0003216558Y0000518644D01*
X0003218807Y0000518644D01*
X0003220917Y0000519769D01*
X0003221901Y0000520894D01*
X0003222744Y0000523144D01*
X0003223307Y0000527643D01*
X0003222604Y0000533267D01*
X0003220917Y0000537767D01*
X0003219511Y0000540016D01*
X0003218245Y0000541141D01*
X0003215855Y0000542266D01*
X0003199263Y0000540016D02*
X0003197998Y0000541141D01*
X0003195607Y0000542266D01*
X0003189983Y0000542266D01*
X0003187874Y0000541141D01*
X0003186890Y0000540016D01*
X0003186046Y0000537767D01*
X0003186327Y0000535517D01*
X0003187874Y0000532142D01*
X0003203059Y0000518644D01*
X0003188436Y0000518644D01*
X0003165939Y0000518644D02*
X0003179437Y0000518644D01*
X0003172688Y0000518644D02*
X0003169735Y0000542266D01*
X0003172407Y0000538892D01*
X0003174938Y0000536642D01*
X0003177328Y0000535517D01*
D36*
X0003311867Y0000260123D02*
X0003308492Y0000258998D01*
X0003302868Y0000258998D01*
X0003300618Y0000260123D01*
X0003299493Y0000261248D01*
X0003298368Y0000263498D01*
X0003298368Y0000265748D01*
X0003299493Y0000267997D01*
X0003300618Y0000269122D01*
X0003302868Y0000270247D01*
X0003307367Y0000271372D01*
X0003309617Y0000272497D01*
X0003310742Y0000273622D01*
X0003311867Y0000275871D01*
X0003311867Y0000278121D01*
X0003310742Y0000280371D01*
X0003309617Y0000281496D01*
X0003307367Y0000282620D01*
X0003301743Y0000282620D01*
X0003298368Y0000281496D01*
X0003274746Y0000261248D02*
X0003275871Y0000260123D01*
X0003279246Y0000258998D01*
X0003281496Y0000258998D01*
X0003284870Y0000260123D01*
X0003287120Y0000262373D01*
X0003288245Y0000264623D01*
X0003289370Y0000269122D01*
X0003289370Y0000272497D01*
X0003288245Y0000276996D01*
X0003287120Y0000279246D01*
X0003284870Y0000281496D01*
X0003281496Y0000282620D01*
X0003279246Y0000282620D01*
X0003275871Y0000281496D01*
X0003274746Y0000280371D01*
X0003264623Y0000258998D02*
X0003264623Y0000282620D01*
X0003251124Y0000258998D02*
X0003261248Y0000272497D01*
X0003251124Y0000282620D02*
X0003264623Y0000269122D01*
X0003193757Y0000282620D02*
X0003205005Y0000282620D01*
X0003206130Y0000271372D01*
X0003205005Y0000272497D01*
X0003202755Y0000273622D01*
X0003197131Y0000273622D01*
X0003194881Y0000272497D01*
X0003193757Y0000271372D01*
X0003192632Y0000269122D01*
X0003192632Y0000263498D01*
X0003193757Y0000261248D01*
X0003194881Y0000260123D01*
X0003197131Y0000258998D01*
X0003202755Y0000258998D01*
X0003205005Y0000260123D01*
X0003206130Y0000261248D01*
X0003185882Y0000282620D02*
X0003178008Y0000258998D01*
X0003170134Y0000282620D01*
X0003302305Y0000242125D02*
X0003304555Y0000243250D01*
X0003307930Y0000243250D01*
X0003311304Y0000242125D01*
X0003313554Y0000239876D01*
X0003314679Y0000237626D01*
X0003315804Y0000233127D01*
X0003315804Y0000229752D01*
X0003314679Y0000225253D01*
X0003313554Y0000223003D01*
X0003311304Y0000220753D01*
X0003307930Y0000219628D01*
X0003305680Y0000219628D01*
X0003302305Y0000220753D01*
X0003301181Y0000221878D01*
X0003301181Y0000229752D01*
X0003305680Y0000229752D01*
X0003291057Y0000219628D02*
X0003291057Y0000243250D01*
X0003277559Y0000219628D01*
X0003277559Y0000243250D01*
X0003266310Y0000219628D02*
X0003266310Y0000243250D01*
X0003260686Y0000243250D01*
X0003257311Y0000242125D01*
X0003255061Y0000239876D01*
X0003253937Y0000237626D01*
X0003252812Y0000233127D01*
X0003252812Y0000229752D01*
X0003253937Y0000225253D01*
X0003255061Y0000223003D01*
X0003257311Y0000220753D01*
X0003260686Y0000219628D01*
X0003266310Y0000219628D01*
X0003225815Y0000220753D02*
X0003222440Y0000219628D01*
X0003216816Y0000219628D01*
X0003214566Y0000220753D01*
X0003213442Y0000221878D01*
X0003212317Y0000224128D01*
X0003212317Y0000226377D01*
X0003213442Y0000228627D01*
X0003214566Y0000229752D01*
X0003216816Y0000230877D01*
X0003221316Y0000232002D01*
X0003223565Y0000233127D01*
X0003224690Y0000234251D01*
X0003225815Y0000236501D01*
X0003225815Y0000238751D01*
X0003224690Y0000241001D01*
X0003223565Y0000242125D01*
X0003221316Y0000243250D01*
X0003215691Y0000243250D01*
X0003212317Y0000242125D01*
X0003202193Y0000219628D02*
X0003202193Y0000243250D01*
X0003196569Y0000243250D01*
X0003193194Y0000242125D01*
X0003190944Y0000239876D01*
X0003189820Y0000237626D01*
X0003188695Y0000233127D01*
X0003188695Y0000229752D01*
X0003189820Y0000225253D01*
X0003190944Y0000223003D01*
X0003193194Y0000220753D01*
X0003196569Y0000219628D01*
X0003202193Y0000219628D01*
X0003179696Y0000226377D02*
X0003168447Y0000226377D01*
X0003181945Y0000219628D02*
X0003174071Y0000243250D01*
X0003166197Y0000219628D01*
D37*
X0003306496Y0000783070D02*
X0003325196Y0000783070D01*
X0003159055Y0000616929D02*
X0003159055Y0000635629D01*
X0003177755Y0000616929D02*
X0003159055Y0000616929D01*
X0003325196Y0000616929D02*
X0003325196Y0000635629D01*
X0003306496Y0000616929D02*
X0003325196Y0000616929D01*
X0003159055Y0000783070D02*
X0003159055Y0000764370D01*
X0003177755Y0000783070D02*
X0003159055Y0000783070D01*
X0003258186Y0000978937D02*
X0003276065Y0000978937D01*
X0003258186Y0000921062D02*
X0003276065Y0000921062D01*
X0003226065Y0001021062D02*
X0003208186Y0001021062D01*
X0003226065Y0001078937D02*
X0003208186Y0001078937D01*
X0003258186Y0001178937D02*
X0003276065Y0001178937D01*
X0003258186Y0001121062D02*
X0003276065Y0001121062D01*
X0003226065Y0001221062D02*
X0003208186Y0001221062D01*
X0003226065Y0001278937D02*
X0003208186Y0001278937D01*
X0003258186Y0001378937D02*
X0003276065Y0001378937D01*
X0003258186Y0001321062D02*
X0003276065Y0001321062D01*
X0003226065Y0001421062D02*
X0003208186Y0001421062D01*
X0003226065Y0001478937D02*
X0003208186Y0001478937D01*
X0003258186Y0001578937D02*
X0003276065Y0001578937D01*
X0003258186Y0001521062D02*
X0003276065Y0001521062D01*
X0003226065Y0001621062D02*
X0003208186Y0001621062D01*
X0003226065Y0001678937D02*
X0003208186Y0001678937D01*
X0003258186Y0001778937D02*
X0003276065Y0001778937D01*
X0003258186Y0001721062D02*
X0003276065Y0001721062D01*
X0003226065Y0001821062D02*
X0003208186Y0001821062D01*
X0003226065Y0001878937D02*
X0003208186Y0001878937D01*
X0003251065Y0000448937D02*
X0003233186Y0000448937D01*
X0003251065Y0000391062D02*
X0003233186Y0000391062D01*
X0003251065Y0000528937D02*
X0003233186Y0000528937D01*
X0003251065Y0000471062D02*
X0003233186Y0000471062D01*
X0003226065Y0002271062D02*
X0003208186Y0002271062D01*
X0003226065Y0002328937D02*
X0003208186Y0002328937D01*
X0003258186Y0002228937D02*
X0003276065Y0002228937D01*
X0003258186Y0002171062D02*
X0003276065Y0002171062D01*
X0003226065Y0002128937D02*
X0003208186Y0002128937D01*
X0003226065Y0002071062D02*
X0003208186Y0002071062D01*
X0003258186Y0001971062D02*
X0003276065Y0001971062D01*
X0003258186Y0002028937D02*
X0003276065Y0002028937D01*
X0003139763Y0000202362D02*
X0003139763Y0000150000D01*
X0003192125Y0000202362D02*
X0003139763Y0000202362D01*
X0003242125Y0000202362D02*
X0003242125Y0000097637D01*
X0003242125Y0000097637D02*
X0003344488Y0000097637D01*
X0003242125Y0000202362D02*
X0003344488Y0000202362D01*
X0003344488Y0000202362D02*
X0003344488Y0000097637D01*
X0003308464Y0000292204D02*
X0003202755Y0000292204D01*
X0003308464Y0000367795D02*
X0003308464Y0000292204D01*
X0003202755Y0000367795D02*
X0003308464Y0000367795D01*
M02*