G04 #@! TF.FileFunction,Legend,Bot*
%FSLAX46Y46*%
G04 Gerber Fmt 4.6, Leading zero omitted, Abs format (unit mm)*
G04 Created by KiCad (PCBNEW (2015-08-15 BZR 6092)-product) date 2/18/2016 8:20:52 PM*
%MOMM*%
G01*
G04 APERTURE LIST*
%ADD10C,0.100000*%
%ADD11C,0.300000*%
%ADD12C,0.285750*%
%ADD13C,0.476250*%
%ADD14C,0.002540*%
G04 APERTURE END LIST*
D10*
D11*
X145351428Y-94849143D02*
X144208571Y-94849143D01*
X144780000Y-95420571D02*
X144780000Y-94277714D01*
X143057142Y-85197143D02*
X141914285Y-85197143D01*
X140128571Y-85697143D02*
X139914285Y-85768571D01*
X139557142Y-85768571D01*
X139414285Y-85697143D01*
X139342856Y-85625714D01*
X139271428Y-85482857D01*
X139271428Y-85340000D01*
X139342856Y-85197143D01*
X139414285Y-85125714D01*
X139557142Y-85054286D01*
X139842856Y-84982857D01*
X139985714Y-84911429D01*
X140057142Y-84840000D01*
X140128571Y-84697143D01*
X140128571Y-84554286D01*
X140057142Y-84411429D01*
X139985714Y-84340000D01*
X139842856Y-84268571D01*
X139485714Y-84268571D01*
X139271428Y-84340000D01*
X137485714Y-85197143D02*
X136342857Y-85197143D01*
X136914286Y-85768571D02*
X136914286Y-84625714D01*
D12*
X138348356Y-107832071D02*
X138729356Y-107287786D01*
X139001499Y-107832071D02*
X139001499Y-106689071D01*
X138566071Y-106689071D01*
X138457213Y-106743500D01*
X138402785Y-106797929D01*
X138348356Y-106906786D01*
X138348356Y-107070071D01*
X138402785Y-107178929D01*
X138457213Y-107233357D01*
X138566071Y-107287786D01*
X139001499Y-107287786D01*
X137423071Y-107777643D02*
X137531928Y-107832071D01*
X137749642Y-107832071D01*
X137858499Y-107777643D01*
X137912928Y-107668786D01*
X137912928Y-107233357D01*
X137858499Y-107124500D01*
X137749642Y-107070071D01*
X137531928Y-107070071D01*
X137423071Y-107124500D01*
X137368642Y-107233357D01*
X137368642Y-107342214D01*
X137912928Y-107451071D01*
X136987642Y-107070071D02*
X136715499Y-107832071D01*
X136443357Y-107070071D01*
X136007928Y-107723214D02*
X135953500Y-107777643D01*
X136007928Y-107832071D01*
X136062357Y-107777643D01*
X136007928Y-107723214D01*
X136007928Y-107832071D01*
X134647214Y-106797929D02*
X134592785Y-106743500D01*
X134483928Y-106689071D01*
X134211785Y-106689071D01*
X134102928Y-106743500D01*
X134048499Y-106797929D01*
X133994071Y-106906786D01*
X133994071Y-107015643D01*
X134048499Y-107178929D01*
X134701642Y-107832071D01*
X133994071Y-107832071D01*
D13*
X145551071Y-88237786D02*
X146458214Y-88237786D01*
X146458214Y-86332786D01*
X144643928Y-88237786D02*
X144825356Y-88147071D01*
X144916071Y-88056357D01*
X145006785Y-87874929D01*
X145006785Y-87330643D01*
X144916071Y-87149214D01*
X144825356Y-87058500D01*
X144643928Y-86967786D01*
X144371785Y-86967786D01*
X144190356Y-87058500D01*
X144099642Y-87149214D01*
X144008928Y-87330643D01*
X144008928Y-87874929D01*
X144099642Y-88056357D01*
X144190356Y-88147071D01*
X144371785Y-88237786D01*
X144643928Y-88237786D01*
X142376071Y-86967786D02*
X142376071Y-88509929D01*
X142466785Y-88691357D01*
X142557500Y-88782071D01*
X142738928Y-88872786D01*
X143011071Y-88872786D01*
X143192500Y-88782071D01*
X142376071Y-88147071D02*
X142557500Y-88237786D01*
X142920357Y-88237786D01*
X143101785Y-88147071D01*
X143192500Y-88056357D01*
X143283214Y-87874929D01*
X143283214Y-87330643D01*
X143192500Y-87149214D01*
X143101785Y-87058500D01*
X142920357Y-86967786D01*
X142557500Y-86967786D01*
X142376071Y-87058500D01*
X141468929Y-88237786D02*
X141468929Y-86967786D01*
X141468929Y-86332786D02*
X141559643Y-86423500D01*
X141468929Y-86514214D01*
X141378214Y-86423500D01*
X141468929Y-86332786D01*
X141468929Y-86514214D01*
X139745357Y-88147071D02*
X139926786Y-88237786D01*
X140289643Y-88237786D01*
X140471071Y-88147071D01*
X140561786Y-88056357D01*
X140652500Y-87874929D01*
X140652500Y-87330643D01*
X140561786Y-87149214D01*
X140471071Y-87058500D01*
X140289643Y-86967786D01*
X139926786Y-86967786D01*
X139745357Y-87058500D01*
X136842500Y-87239929D02*
X136570357Y-87330643D01*
X136479642Y-87421357D01*
X136388928Y-87602786D01*
X136388928Y-87874929D01*
X136479642Y-88056357D01*
X136570357Y-88147071D01*
X136751785Y-88237786D01*
X137477500Y-88237786D01*
X137477500Y-86332786D01*
X136842500Y-86332786D01*
X136661071Y-86423500D01*
X136570357Y-86514214D01*
X136479642Y-86695643D01*
X136479642Y-86877071D01*
X136570357Y-87058500D01*
X136661071Y-87149214D01*
X136842500Y-87239929D01*
X137477500Y-87239929D01*
X135572500Y-88237786D02*
X135572500Y-86967786D01*
X135572500Y-86332786D02*
X135663214Y-86423500D01*
X135572500Y-86514214D01*
X135481785Y-86423500D01*
X135572500Y-86332786D01*
X135572500Y-86514214D01*
X134937499Y-86967786D02*
X134211785Y-86967786D01*
X134665357Y-86332786D02*
X134665357Y-87965643D01*
X134574642Y-88147071D01*
X134393214Y-88237786D01*
X134211785Y-88237786D01*
X133667500Y-88147071D02*
X133486071Y-88237786D01*
X133123214Y-88237786D01*
X132941786Y-88147071D01*
X132851071Y-87965643D01*
X132851071Y-87874929D01*
X132941786Y-87693500D01*
X133123214Y-87602786D01*
X133395357Y-87602786D01*
X133576786Y-87512071D01*
X133667500Y-87330643D01*
X133667500Y-87239929D01*
X133576786Y-87058500D01*
X133395357Y-86967786D01*
X133123214Y-86967786D01*
X132941786Y-87058500D01*
D14*
G36*
X140413740Y-104284780D02*
X140413740Y-104322880D01*
X140416280Y-104348280D01*
X140418820Y-104371140D01*
X140423900Y-104388920D01*
X140434060Y-104409240D01*
X140436600Y-104416860D01*
X140449300Y-104444800D01*
X140459460Y-104470200D01*
X140469620Y-104500680D01*
X140479780Y-104536240D01*
X140489940Y-104581960D01*
X140502640Y-104635300D01*
X140507720Y-104653080D01*
X140522960Y-104726740D01*
X140540740Y-104787700D01*
X140555980Y-104841040D01*
X140576300Y-104886760D01*
X140596620Y-104927400D01*
X140596620Y-104297480D01*
X140596620Y-104282240D01*
X140599160Y-104269540D01*
X140606780Y-104256840D01*
X140619480Y-104241600D01*
X140642340Y-104223820D01*
X140652500Y-104213660D01*
X140680440Y-104190800D01*
X140705840Y-104165400D01*
X140723620Y-104142540D01*
X140731240Y-104134920D01*
X140743940Y-104117140D01*
X140764260Y-104091740D01*
X140789660Y-104061260D01*
X140815060Y-104030780D01*
X140817600Y-104028240D01*
X140840460Y-104000300D01*
X140860780Y-103974900D01*
X140873480Y-103957120D01*
X140881100Y-103946960D01*
X140881100Y-103944420D01*
X140886180Y-103939340D01*
X140903960Y-103939340D01*
X140929360Y-103939340D01*
X140959840Y-103944420D01*
X140990320Y-103949500D01*
X141000480Y-103952040D01*
X141013180Y-103954580D01*
X141025880Y-103959660D01*
X141041120Y-103959660D01*
X141058900Y-103962200D01*
X141084300Y-103964740D01*
X141117320Y-103967280D01*
X141155420Y-103967280D01*
X141203680Y-103969820D01*
X141262100Y-103969820D01*
X141333220Y-103972360D01*
X141417040Y-103974900D01*
X141470380Y-103974900D01*
X141556740Y-103977440D01*
X141643100Y-103977440D01*
X141729460Y-103979980D01*
X141813280Y-103979980D01*
X141892020Y-103982520D01*
X141963140Y-103982520D01*
X142026640Y-103982520D01*
X142074900Y-103982520D01*
X142087600Y-103982520D01*
X142280640Y-103982520D01*
X142341600Y-104043480D01*
X142402560Y-104101900D01*
X142443200Y-104101900D01*
X142471140Y-104101900D01*
X142506700Y-104099360D01*
X142534640Y-104094280D01*
X142567660Y-104091740D01*
X142598140Y-104094280D01*
X142631160Y-104099360D01*
X142671800Y-104109520D01*
X142717520Y-104127300D01*
X142773400Y-104150160D01*
X142788640Y-104155240D01*
X142831820Y-104175560D01*
X142864840Y-104188260D01*
X142892780Y-104195880D01*
X142918180Y-104200960D01*
X142946120Y-104206040D01*
X142963900Y-104208580D01*
X143009620Y-104213660D01*
X143045180Y-104218740D01*
X143073120Y-104226360D01*
X143093440Y-104236520D01*
X143113760Y-104249220D01*
X143134080Y-104269540D01*
X143136620Y-104272080D01*
X143159480Y-104292400D01*
X143184880Y-104310180D01*
X143202660Y-104322880D01*
X143202660Y-104322880D01*
X143222980Y-104327960D01*
X143253460Y-104333040D01*
X143289020Y-104340660D01*
X143327120Y-104343200D01*
X143360140Y-104348280D01*
X143385540Y-104348280D01*
X143400780Y-104345740D01*
X143413480Y-104338120D01*
X143436340Y-104325420D01*
X143456660Y-104307640D01*
X143479520Y-104287320D01*
X143494760Y-104279700D01*
X143504920Y-104277160D01*
X143510000Y-104279700D01*
X143520160Y-104287320D01*
X143540480Y-104300020D01*
X143568420Y-104317800D01*
X143598900Y-104338120D01*
X143606520Y-104343200D01*
X143692880Y-104396540D01*
X143769080Y-104399080D01*
X143804640Y-104401620D01*
X143827500Y-104404160D01*
X143840200Y-104406700D01*
X143850360Y-104411780D01*
X143855440Y-104419400D01*
X143857980Y-104424480D01*
X143878300Y-104447340D01*
X143906240Y-104462580D01*
X143936720Y-104470200D01*
X143941800Y-104470200D01*
X143969740Y-104462580D01*
X143997680Y-104444800D01*
X144025620Y-104414320D01*
X144035780Y-104401620D01*
X144048480Y-104388920D01*
X144056100Y-104378760D01*
X144066260Y-104371140D01*
X144078960Y-104363520D01*
X144099280Y-104360980D01*
X144124680Y-104355900D01*
X144162780Y-104350820D01*
X144211040Y-104348280D01*
X144226280Y-104345740D01*
X144335500Y-104335580D01*
X144365980Y-104363520D01*
X144401540Y-104396540D01*
X144437100Y-104421940D01*
X144467580Y-104442260D01*
X144477740Y-104447340D01*
X144500600Y-104452420D01*
X144533620Y-104457500D01*
X144576800Y-104462580D01*
X144622520Y-104467660D01*
X144673320Y-104472740D01*
X144721580Y-104475280D01*
X144767300Y-104475280D01*
X144769840Y-104475280D01*
X144818100Y-104475280D01*
X144861280Y-104470200D01*
X144904460Y-104465120D01*
X144952720Y-104454960D01*
X144998440Y-104444800D01*
X145031460Y-104434640D01*
X145056860Y-104421940D01*
X145079720Y-104409240D01*
X145102580Y-104388920D01*
X145127980Y-104363520D01*
X145145760Y-104343200D01*
X145161000Y-104322880D01*
X145168620Y-104300020D01*
X145176240Y-104272080D01*
X145183860Y-104236520D01*
X145186400Y-104193340D01*
X145191480Y-104142540D01*
X145199100Y-104063800D01*
X145211800Y-103995220D01*
X145232120Y-103939340D01*
X145257520Y-103893620D01*
X145260060Y-103888540D01*
X145285460Y-103863140D01*
X145323560Y-103835200D01*
X145336260Y-103827580D01*
X145364200Y-103814880D01*
X145387060Y-103804720D01*
X145404840Y-103802180D01*
X145427700Y-103802180D01*
X145430240Y-103802180D01*
X145468340Y-103802180D01*
X145511520Y-103794560D01*
X145542000Y-103786940D01*
X145580100Y-103774240D01*
X145608040Y-103769160D01*
X145625820Y-103766620D01*
X145641060Y-103771700D01*
X145656300Y-103776780D01*
X145663920Y-103781860D01*
X145694400Y-103797100D01*
X145737580Y-103802180D01*
X145785840Y-103797100D01*
X145801080Y-103792020D01*
X145823940Y-103786940D01*
X145844260Y-103781860D01*
X145851880Y-103781860D01*
X145851880Y-103786940D01*
X145854420Y-103807260D01*
X145854420Y-103830120D01*
X145854420Y-103832660D01*
X145854420Y-103860600D01*
X145856960Y-103880920D01*
X145862040Y-103898700D01*
X145874740Y-103916480D01*
X145897600Y-103949500D01*
X145889980Y-104068880D01*
X145887440Y-104114600D01*
X145882360Y-104147620D01*
X145879820Y-104173020D01*
X145874740Y-104190800D01*
X145869660Y-104206040D01*
X145862040Y-104221280D01*
X145856960Y-104228900D01*
X145841720Y-104259380D01*
X145834100Y-104287320D01*
X145834100Y-104307640D01*
X145831560Y-104335580D01*
X145829020Y-104358440D01*
X145826480Y-104366060D01*
X145823940Y-104383840D01*
X145818860Y-104409240D01*
X145818860Y-104442260D01*
X145818860Y-104454960D01*
X145818860Y-104487980D01*
X145818860Y-104508300D01*
X145823940Y-104523540D01*
X145831560Y-104533700D01*
X145841720Y-104546400D01*
X145844260Y-104548940D01*
X145864580Y-104564180D01*
X145884900Y-104571800D01*
X145887440Y-104574340D01*
X145897600Y-104574340D01*
X145902680Y-104579420D01*
X145907760Y-104594660D01*
X145910300Y-104620060D01*
X145912840Y-104653080D01*
X145915380Y-104691180D01*
X145915380Y-104714040D01*
X145917920Y-104757220D01*
X145923000Y-104813100D01*
X145930620Y-104884220D01*
X145943320Y-104970580D01*
X145961100Y-105069640D01*
X145961100Y-105077260D01*
X145968720Y-105120440D01*
X145973800Y-105161080D01*
X145978880Y-105191560D01*
X145981420Y-105214420D01*
X145983960Y-105222040D01*
X145983960Y-105234740D01*
X145981420Y-105257600D01*
X145981420Y-105288080D01*
X145978880Y-105318560D01*
X145978880Y-105351580D01*
X145976340Y-105382060D01*
X145973800Y-105402380D01*
X145971260Y-105410000D01*
X145961100Y-105435400D01*
X145958560Y-105465880D01*
X145961100Y-105496360D01*
X145971260Y-105521760D01*
X145986500Y-105534460D01*
X145994120Y-105547160D01*
X146001740Y-105572560D01*
X146011900Y-105613200D01*
X146019520Y-105669080D01*
X146029680Y-105737660D01*
X146037300Y-105816400D01*
X146042380Y-105877360D01*
X146047460Y-105930700D01*
X146052540Y-105981500D01*
X146057620Y-106024680D01*
X146062700Y-106060240D01*
X146065240Y-106085640D01*
X146067780Y-106098340D01*
X146077940Y-106118660D01*
X146088100Y-106146600D01*
X146098260Y-106172000D01*
X146105880Y-106192320D01*
X146113500Y-106207560D01*
X146116040Y-106225340D01*
X146118580Y-106245660D01*
X146118580Y-106271060D01*
X146116040Y-106304080D01*
X146113500Y-106349800D01*
X146113500Y-106370120D01*
X146110960Y-106415840D01*
X146110960Y-106451400D01*
X146116040Y-106479340D01*
X146123660Y-106504740D01*
X146136360Y-106532680D01*
X146156680Y-106565700D01*
X146174460Y-106603800D01*
X146184620Y-106631740D01*
X146189700Y-106659680D01*
X146184620Y-106687620D01*
X146174460Y-106725720D01*
X146169380Y-106735880D01*
X146156680Y-106773980D01*
X146149060Y-106804460D01*
X146149060Y-106824780D01*
X146151600Y-106842560D01*
X146159220Y-106857800D01*
X146159220Y-106860340D01*
X146174460Y-106875580D01*
X146199860Y-106893360D01*
X146230340Y-106911140D01*
X146263360Y-106923840D01*
X146283680Y-106931460D01*
X146304000Y-106936540D01*
X146304000Y-107025440D01*
X146304000Y-107116880D01*
X146334480Y-107180380D01*
X146367500Y-107248960D01*
X146392900Y-107307380D01*
X146413220Y-107355640D01*
X146425920Y-107391200D01*
X146431000Y-107411520D01*
X146433540Y-107429300D01*
X146433540Y-107444540D01*
X146425920Y-107459780D01*
X146410680Y-107480100D01*
X146410680Y-107482640D01*
X146382740Y-107523280D01*
X146359880Y-107561380D01*
X146342100Y-107607100D01*
X146334480Y-107635040D01*
X146319240Y-107688380D01*
X146342100Y-107787440D01*
X146357340Y-107853480D01*
X146364960Y-107906820D01*
X146370040Y-107952540D01*
X146370040Y-107993180D01*
X146362420Y-108031280D01*
X146352260Y-108069380D01*
X146352260Y-108069380D01*
X146337020Y-108112560D01*
X146324320Y-108150660D01*
X146309080Y-108183680D01*
X146298920Y-108206540D01*
X146288760Y-108216700D01*
X146288760Y-108219240D01*
X146278600Y-108221780D01*
X146258280Y-108229400D01*
X146250660Y-108234480D01*
X146227800Y-108242100D01*
X146192240Y-108249720D01*
X146143980Y-108254800D01*
X146083020Y-108257340D01*
X146006820Y-108259880D01*
X145917920Y-108262420D01*
X145816320Y-108262420D01*
X145806160Y-108262420D01*
X145750280Y-108264960D01*
X145684240Y-108264960D01*
X145610580Y-108267500D01*
X145531840Y-108267500D01*
X145453100Y-108270040D01*
X145379440Y-108275120D01*
X145359120Y-108275120D01*
X145122900Y-108282740D01*
X144896840Y-108292900D01*
X144673320Y-108297980D01*
X144449800Y-108303060D01*
X144228820Y-108308140D01*
X144005300Y-108310680D01*
X143779240Y-108313220D01*
X143545560Y-108313220D01*
X143306800Y-108313220D01*
X143055340Y-108313220D01*
X142793720Y-108310680D01*
X142661640Y-108308140D01*
X142476220Y-108305600D01*
X142306040Y-108303060D01*
X142148560Y-108300520D01*
X142003780Y-108297980D01*
X141869160Y-108295440D01*
X141744700Y-108292900D01*
X141627860Y-108290360D01*
X141521180Y-108287820D01*
X141422120Y-108282740D01*
X141330680Y-108280200D01*
X141241780Y-108277660D01*
X141157960Y-108272580D01*
X141112240Y-108270040D01*
X141048740Y-108267500D01*
X140990320Y-108262420D01*
X140936980Y-108259880D01*
X140891260Y-108257340D01*
X140858240Y-108254800D01*
X140835380Y-108254800D01*
X140822680Y-108254800D01*
X140822680Y-108254800D01*
X140822680Y-108247180D01*
X140825220Y-108224320D01*
X140825220Y-108191300D01*
X140827760Y-108143040D01*
X140830300Y-108084620D01*
X140832840Y-108016040D01*
X140837920Y-107937300D01*
X140840460Y-107850940D01*
X140845540Y-107754420D01*
X140850620Y-107652820D01*
X140853160Y-107546140D01*
X140858240Y-107431840D01*
X140865860Y-107315000D01*
X140865860Y-107299760D01*
X140870940Y-107160060D01*
X140876020Y-107033060D01*
X140881100Y-106918760D01*
X140886180Y-106817160D01*
X140891260Y-106728260D01*
X140893800Y-106649520D01*
X140896340Y-106583480D01*
X140898880Y-106522520D01*
X140898880Y-106474260D01*
X140898880Y-106431080D01*
X140898880Y-106398060D01*
X140898880Y-106367580D01*
X140898880Y-106344720D01*
X140896340Y-106326940D01*
X140893800Y-106311700D01*
X140891260Y-106301540D01*
X140888720Y-106291380D01*
X140883640Y-106283760D01*
X140878560Y-106278680D01*
X140873480Y-106271060D01*
X140868400Y-106263440D01*
X140855700Y-106248200D01*
X140848080Y-106232960D01*
X140845540Y-106217720D01*
X140848080Y-106192320D01*
X140848080Y-106182160D01*
X140848080Y-106146600D01*
X140845540Y-106113580D01*
X140835380Y-106072940D01*
X140835380Y-106070400D01*
X140822680Y-106027220D01*
X140815060Y-105996740D01*
X140812520Y-105973880D01*
X140812520Y-105961180D01*
X140815060Y-105951020D01*
X140822680Y-105945940D01*
X140822680Y-105943400D01*
X140840460Y-105938320D01*
X140863320Y-105930700D01*
X140873480Y-105930700D01*
X140901420Y-105923080D01*
X140924280Y-105912920D01*
X140944600Y-105897680D01*
X140962380Y-105874820D01*
X140985240Y-105839260D01*
X141003020Y-105803700D01*
X141046200Y-105714800D01*
X141038580Y-105636060D01*
X141033500Y-105605580D01*
X141028420Y-105577640D01*
X141020800Y-105552240D01*
X141013180Y-105524300D01*
X141000480Y-105488740D01*
X140980160Y-105445560D01*
X140975080Y-105432860D01*
X140954760Y-105382060D01*
X140931900Y-105331260D01*
X140909040Y-105277920D01*
X140888720Y-105232200D01*
X140878560Y-105214420D01*
X140863320Y-105176320D01*
X140850620Y-105148380D01*
X140843000Y-105128060D01*
X140840460Y-105115360D01*
X140843000Y-105105200D01*
X140843000Y-105095040D01*
X140850620Y-105069640D01*
X140850620Y-105039160D01*
X140840460Y-105006140D01*
X140822680Y-104965500D01*
X140797280Y-104917240D01*
X140794740Y-104914700D01*
X140771880Y-104874060D01*
X140751560Y-104838500D01*
X140736320Y-104808020D01*
X140726160Y-104777540D01*
X140713460Y-104744520D01*
X140703300Y-104703880D01*
X140693140Y-104658160D01*
X140682980Y-104612440D01*
X140667740Y-104548940D01*
X140655040Y-104498140D01*
X140644880Y-104457500D01*
X140634720Y-104424480D01*
X140624560Y-104396540D01*
X140616940Y-104373680D01*
X140609320Y-104363520D01*
X140601700Y-104335580D01*
X140596620Y-104305100D01*
X140596620Y-104297480D01*
X140596620Y-104927400D01*
X140599160Y-104929940D01*
X140604240Y-104945180D01*
X140622020Y-104973120D01*
X140632180Y-104995980D01*
X140637260Y-105008680D01*
X140637260Y-105018840D01*
X140632180Y-105029000D01*
X140629640Y-105046780D01*
X140627100Y-105064560D01*
X140632180Y-105087420D01*
X140639800Y-105115360D01*
X140655040Y-105150920D01*
X140675360Y-105199180D01*
X140690600Y-105229660D01*
X140726160Y-105310940D01*
X140761720Y-105387140D01*
X140789660Y-105455720D01*
X140815060Y-105516680D01*
X140835380Y-105567480D01*
X140848080Y-105608120D01*
X140855700Y-105636060D01*
X140855700Y-105638600D01*
X140860780Y-105666540D01*
X140858240Y-105684320D01*
X140853160Y-105704640D01*
X140845540Y-105717340D01*
X140835380Y-105737660D01*
X140822680Y-105750360D01*
X140807440Y-105757980D01*
X140784580Y-105763060D01*
X140771880Y-105765600D01*
X140756640Y-105768140D01*
X140738860Y-105778300D01*
X140721080Y-105793540D01*
X140693140Y-105818940D01*
X140685520Y-105829100D01*
X140660120Y-105854500D01*
X140642340Y-105872280D01*
X140632180Y-105884980D01*
X140627100Y-105897680D01*
X140627100Y-105912920D01*
X140627100Y-105923080D01*
X140629640Y-105976420D01*
X140642340Y-106037380D01*
X140657580Y-106100880D01*
X140665200Y-106128820D01*
X140667740Y-106151680D01*
X140667740Y-106174540D01*
X140665200Y-106205020D01*
X140662660Y-106210100D01*
X140660120Y-106243120D01*
X140660120Y-106271060D01*
X140667740Y-106293920D01*
X140685520Y-106321860D01*
X140703300Y-106344720D01*
X140726160Y-106372660D01*
X140682980Y-107353100D01*
X140677900Y-107472480D01*
X140672820Y-107589320D01*
X140667740Y-107701080D01*
X140662660Y-107807760D01*
X140660120Y-107906820D01*
X140655040Y-107998260D01*
X140652500Y-108082080D01*
X140649960Y-108155740D01*
X140647420Y-108219240D01*
X140644880Y-108272580D01*
X140644880Y-108313220D01*
X140644880Y-108341160D01*
X140644880Y-108356400D01*
X140644880Y-108356400D01*
X140655040Y-108381800D01*
X140675360Y-108404660D01*
X140698220Y-108419900D01*
X140703300Y-108422440D01*
X140716000Y-108424980D01*
X140743940Y-108427520D01*
X140782040Y-108430060D01*
X140830300Y-108435140D01*
X140888720Y-108437680D01*
X140952220Y-108442760D01*
X141025880Y-108445300D01*
X141102080Y-108450380D01*
X141183360Y-108452920D01*
X141264640Y-108458000D01*
X141348460Y-108460540D01*
X141429740Y-108463080D01*
X141511020Y-108465620D01*
X141587220Y-108468160D01*
X141658340Y-108470700D01*
X141701520Y-108473240D01*
X141762480Y-108473240D01*
X141836140Y-108475780D01*
X141919960Y-108475780D01*
X142011400Y-108478320D01*
X142113000Y-108480860D01*
X142219680Y-108480860D01*
X142328900Y-108483400D01*
X142443200Y-108483400D01*
X142554960Y-108485940D01*
X142664180Y-108488480D01*
X142707360Y-108488480D01*
X142808960Y-108488480D01*
X142910560Y-108491020D01*
X143009620Y-108491020D01*
X143106140Y-108493560D01*
X143195040Y-108493560D01*
X143278860Y-108493560D01*
X143352520Y-108496100D01*
X143416020Y-108496100D01*
X143469360Y-108496100D01*
X143510000Y-108496100D01*
X143532860Y-108496100D01*
X143568420Y-108496100D01*
X143619220Y-108496100D01*
X143680180Y-108496100D01*
X143751300Y-108496100D01*
X143827500Y-108496100D01*
X143908780Y-108493560D01*
X143992600Y-108493560D01*
X144076420Y-108491020D01*
X144111980Y-108491020D01*
X144266920Y-108488480D01*
X144416780Y-108483400D01*
X144564100Y-108480860D01*
X144703800Y-108475780D01*
X144835880Y-108473240D01*
X144960340Y-108468160D01*
X145074640Y-108465620D01*
X145176240Y-108463080D01*
X145262600Y-108458000D01*
X145280380Y-108458000D01*
X145336260Y-108455460D01*
X145402300Y-108452920D01*
X145473420Y-108452920D01*
X145544540Y-108450380D01*
X145613120Y-108450380D01*
X145638520Y-108450380D01*
X145704560Y-108450380D01*
X145778220Y-108447840D01*
X145859500Y-108447840D01*
X145938240Y-108442760D01*
X146014440Y-108440220D01*
X146052540Y-108440220D01*
X146268440Y-108427520D01*
X146339560Y-108394500D01*
X146372580Y-108376720D01*
X146397980Y-108364020D01*
X146415760Y-108351320D01*
X146420840Y-108346240D01*
X146436080Y-108325920D01*
X146451320Y-108295440D01*
X146471640Y-108254800D01*
X146489420Y-108211620D01*
X146507200Y-108168440D01*
X146522440Y-108130340D01*
X146535140Y-108089700D01*
X146542760Y-108056680D01*
X146547840Y-108031280D01*
X146550380Y-108000800D01*
X146550380Y-107980480D01*
X146545300Y-107906820D01*
X146532600Y-107823000D01*
X146517360Y-107749340D01*
X146509740Y-107713780D01*
X146509740Y-107685840D01*
X146517360Y-107655360D01*
X146532600Y-107622340D01*
X146555460Y-107584240D01*
X146570700Y-107566460D01*
X146593560Y-107530900D01*
X146608800Y-107505500D01*
X146616420Y-107480100D01*
X146618960Y-107454700D01*
X146616420Y-107421680D01*
X146608800Y-107383580D01*
X146601180Y-107353100D01*
X146588480Y-107312460D01*
X146570700Y-107266740D01*
X146550380Y-107213400D01*
X146524980Y-107162600D01*
X146504660Y-107119420D01*
X146497040Y-107101640D01*
X146489420Y-107086400D01*
X146486880Y-107068620D01*
X146484340Y-107048300D01*
X146484340Y-107017820D01*
X146484340Y-106977180D01*
X146484340Y-106972100D01*
X146481800Y-106923840D01*
X146479260Y-106883200D01*
X146474180Y-106855260D01*
X146461480Y-106832400D01*
X146443700Y-106812080D01*
X146415760Y-106794300D01*
X146377660Y-106773980D01*
X146357340Y-106763820D01*
X146357340Y-106756200D01*
X146359880Y-106738420D01*
X146364960Y-106713020D01*
X146367500Y-106705400D01*
X146372580Y-106659680D01*
X146372580Y-106629200D01*
X146372580Y-106621580D01*
X146359880Y-106578400D01*
X146339560Y-106532680D01*
X146316700Y-106486960D01*
X146309080Y-106474260D01*
X146301460Y-106461560D01*
X146296380Y-106448860D01*
X146291300Y-106433620D01*
X146291300Y-106415840D01*
X146291300Y-106392980D01*
X146291300Y-106362500D01*
X146296380Y-106319320D01*
X146301460Y-106265980D01*
X146301460Y-106263440D01*
X146301460Y-106238040D01*
X146301460Y-106212640D01*
X146293840Y-106184700D01*
X146286220Y-106156760D01*
X146273520Y-106123740D01*
X146263360Y-106093260D01*
X146253200Y-106070400D01*
X146250660Y-106065320D01*
X146245580Y-106052620D01*
X146240500Y-106032300D01*
X146237960Y-106004360D01*
X146232880Y-105966260D01*
X146227800Y-105915460D01*
X146222720Y-105854500D01*
X146215100Y-105785920D01*
X146207480Y-105719880D01*
X146199860Y-105656380D01*
X146189700Y-105595420D01*
X146182080Y-105542080D01*
X146174460Y-105498900D01*
X146164300Y-105468420D01*
X146161760Y-105458260D01*
X146161760Y-105440480D01*
X146164300Y-105422700D01*
X146166840Y-105397300D01*
X146161760Y-105361740D01*
X146161760Y-105361740D01*
X146156680Y-105328720D01*
X146159220Y-105293160D01*
X146161760Y-105275380D01*
X146164300Y-105252520D01*
X146166840Y-105232200D01*
X146164300Y-105209340D01*
X146161760Y-105181400D01*
X146154140Y-105140760D01*
X146151600Y-105125520D01*
X146133820Y-105031540D01*
X146121120Y-104945180D01*
X146110960Y-104863900D01*
X146103340Y-104782620D01*
X146095720Y-104693720D01*
X146090640Y-104617520D01*
X146088100Y-104551480D01*
X146083020Y-104500680D01*
X146080480Y-104460040D01*
X146075400Y-104429560D01*
X146072860Y-104406700D01*
X146065240Y-104388920D01*
X146057620Y-104376220D01*
X146047460Y-104368600D01*
X146039840Y-104360980D01*
X146027140Y-104350820D01*
X146022060Y-104338120D01*
X146024600Y-104320340D01*
X146032220Y-104294940D01*
X146042380Y-104269540D01*
X146042380Y-104269540D01*
X146050000Y-104256840D01*
X146052540Y-104246680D01*
X146057620Y-104233980D01*
X146060160Y-104216200D01*
X146062700Y-104193340D01*
X146065240Y-104162860D01*
X146067780Y-104119680D01*
X146072860Y-104066340D01*
X146072860Y-104038400D01*
X146083020Y-103886000D01*
X146057620Y-103855520D01*
X146032220Y-103825040D01*
X146039840Y-103748840D01*
X146042380Y-103700580D01*
X146042380Y-103665020D01*
X146039840Y-103639620D01*
X146029680Y-103619300D01*
X146016980Y-103604060D01*
X146014440Y-103601520D01*
X145999200Y-103588820D01*
X145981420Y-103583740D01*
X145958560Y-103581200D01*
X145930620Y-103581200D01*
X145892520Y-103588820D01*
X145841720Y-103598980D01*
X145836640Y-103601520D01*
X145745200Y-103621840D01*
X145709640Y-103601520D01*
X145684240Y-103588820D01*
X145661380Y-103581200D01*
X145633440Y-103581200D01*
X145602960Y-103586280D01*
X145559780Y-103593900D01*
X145529300Y-103601520D01*
X145493740Y-103611680D01*
X145465800Y-103619300D01*
X145448020Y-103621840D01*
X145430240Y-103619300D01*
X145417540Y-103616760D01*
X145397220Y-103614220D01*
X145379440Y-103614220D01*
X145359120Y-103616760D01*
X145333720Y-103626920D01*
X145303240Y-103642160D01*
X145270220Y-103659940D01*
X145229580Y-103682800D01*
X145199100Y-103700580D01*
X145176240Y-103718360D01*
X145158460Y-103733600D01*
X145140680Y-103751380D01*
X145122900Y-103774240D01*
X145102580Y-103797100D01*
X145087340Y-103819960D01*
X145077180Y-103840280D01*
X145067020Y-103865680D01*
X145054320Y-103898700D01*
X145041620Y-103941880D01*
X145039080Y-103952040D01*
X145026380Y-104000300D01*
X145018760Y-104040940D01*
X145013680Y-104079040D01*
X145008600Y-104122220D01*
X145008600Y-104137460D01*
X145006060Y-104183180D01*
X145003520Y-104216200D01*
X144995900Y-104239060D01*
X144983200Y-104254300D01*
X144962880Y-104267000D01*
X144932400Y-104274620D01*
X144904460Y-104282240D01*
X144843500Y-104292400D01*
X144772380Y-104297480D01*
X144693640Y-104294940D01*
X144619980Y-104287320D01*
X144541240Y-104279700D01*
X144475200Y-104221280D01*
X144449800Y-104195880D01*
X144424400Y-104178100D01*
X144404080Y-104162860D01*
X144393920Y-104157780D01*
X144378680Y-104157780D01*
X144353280Y-104157780D01*
X144315180Y-104157780D01*
X144272000Y-104162860D01*
X144221200Y-104165400D01*
X144170400Y-104170480D01*
X144119600Y-104175560D01*
X144076420Y-104180640D01*
X144033240Y-104188260D01*
X144002760Y-104193340D01*
X143982440Y-104203500D01*
X143969740Y-104208580D01*
X143959580Y-104216200D01*
X143949420Y-104221280D01*
X143934180Y-104223820D01*
X143913860Y-104223820D01*
X143885920Y-104223820D01*
X143847820Y-104223820D01*
X143746220Y-104221280D01*
X143642080Y-104152700D01*
X143603980Y-104127300D01*
X143570960Y-104106980D01*
X143543020Y-104089200D01*
X143522700Y-104079040D01*
X143515080Y-104073960D01*
X143487140Y-104066340D01*
X143461740Y-104071420D01*
X143431260Y-104086660D01*
X143395700Y-104117140D01*
X143393160Y-104119680D01*
X143370300Y-104140000D01*
X143352520Y-104152700D01*
X143337280Y-104160320D01*
X143322040Y-104162860D01*
X143316960Y-104162860D01*
X143299180Y-104160320D01*
X143286480Y-104157780D01*
X143268700Y-104145080D01*
X143248380Y-104127300D01*
X143238220Y-104117140D01*
X143207740Y-104091740D01*
X143174720Y-104071420D01*
X143136620Y-104056180D01*
X143093440Y-104046020D01*
X143037560Y-104035860D01*
X143009620Y-104033320D01*
X142971520Y-104028240D01*
X142941040Y-104020620D01*
X142910560Y-104010460D01*
X142875000Y-103997760D01*
X142844520Y-103985060D01*
X142801340Y-103967280D01*
X142753080Y-103949500D01*
X142707360Y-103934260D01*
X142679420Y-103926640D01*
X142641320Y-103919020D01*
X142613380Y-103911400D01*
X142590520Y-103911400D01*
X142567660Y-103911400D01*
X142537180Y-103913940D01*
X142476220Y-103921560D01*
X142417800Y-103868220D01*
X142382240Y-103835200D01*
X142354300Y-103814880D01*
X142336520Y-103809800D01*
X142323820Y-103807260D01*
X142295880Y-103807260D01*
X142260320Y-103804720D01*
X142214600Y-103804720D01*
X142163800Y-103804720D01*
X142107920Y-103804720D01*
X142105380Y-103804720D01*
X142021560Y-103804720D01*
X141932660Y-103802180D01*
X141841220Y-103802180D01*
X141749780Y-103802180D01*
X141658340Y-103799640D01*
X141569440Y-103797100D01*
X141485620Y-103797100D01*
X141404340Y-103794560D01*
X141328140Y-103792020D01*
X141259560Y-103789480D01*
X141201140Y-103786940D01*
X141150340Y-103784400D01*
X141112240Y-103781860D01*
X141086840Y-103779320D01*
X141074140Y-103776780D01*
X141056360Y-103774240D01*
X141023340Y-103769160D01*
X140985240Y-103764080D01*
X140944600Y-103761540D01*
X140924280Y-103759000D01*
X140878560Y-103756460D01*
X140845540Y-103753920D01*
X140822680Y-103753920D01*
X140804900Y-103753920D01*
X140792200Y-103756460D01*
X140782040Y-103761540D01*
X140779500Y-103764080D01*
X140754100Y-103784400D01*
X140731240Y-103817420D01*
X140721080Y-103852980D01*
X140713460Y-103868220D01*
X140698220Y-103891080D01*
X140677900Y-103913940D01*
X140672820Y-103921560D01*
X140647420Y-103952040D01*
X140624560Y-103979980D01*
X140604240Y-104002840D01*
X140601700Y-104007920D01*
X140586460Y-104025700D01*
X140561060Y-104051100D01*
X140533120Y-104079040D01*
X140505180Y-104106980D01*
X140477240Y-104132380D01*
X140451840Y-104155240D01*
X140434060Y-104173020D01*
X140423900Y-104185720D01*
X140423900Y-104185720D01*
X140418820Y-104203500D01*
X140413740Y-104233980D01*
X140413740Y-104274620D01*
X140413740Y-104284780D01*
X140413740Y-104284780D01*
X140413740Y-104284780D01*
G37*
X140413740Y-104284780D02*
X140413740Y-104322880D01*
X140416280Y-104348280D01*
X140418820Y-104371140D01*
X140423900Y-104388920D01*
X140434060Y-104409240D01*
X140436600Y-104416860D01*
X140449300Y-104444800D01*
X140459460Y-104470200D01*
X140469620Y-104500680D01*
X140479780Y-104536240D01*
X140489940Y-104581960D01*
X140502640Y-104635300D01*
X140507720Y-104653080D01*
X140522960Y-104726740D01*
X140540740Y-104787700D01*
X140555980Y-104841040D01*
X140576300Y-104886760D01*
X140596620Y-104927400D01*
X140596620Y-104297480D01*
X140596620Y-104282240D01*
X140599160Y-104269540D01*
X140606780Y-104256840D01*
X140619480Y-104241600D01*
X140642340Y-104223820D01*
X140652500Y-104213660D01*
X140680440Y-104190800D01*
X140705840Y-104165400D01*
X140723620Y-104142540D01*
X140731240Y-104134920D01*
X140743940Y-104117140D01*
X140764260Y-104091740D01*
X140789660Y-104061260D01*
X140815060Y-104030780D01*
X140817600Y-104028240D01*
X140840460Y-104000300D01*
X140860780Y-103974900D01*
X140873480Y-103957120D01*
X140881100Y-103946960D01*
X140881100Y-103944420D01*
X140886180Y-103939340D01*
X140903960Y-103939340D01*
X140929360Y-103939340D01*
X140959840Y-103944420D01*
X140990320Y-103949500D01*
X141000480Y-103952040D01*
X141013180Y-103954580D01*
X141025880Y-103959660D01*
X141041120Y-103959660D01*
X141058900Y-103962200D01*
X141084300Y-103964740D01*
X141117320Y-103967280D01*
X141155420Y-103967280D01*
X141203680Y-103969820D01*
X141262100Y-103969820D01*
X141333220Y-103972360D01*
X141417040Y-103974900D01*
X141470380Y-103974900D01*
X141556740Y-103977440D01*
X141643100Y-103977440D01*
X141729460Y-103979980D01*
X141813280Y-103979980D01*
X141892020Y-103982520D01*
X141963140Y-103982520D01*
X142026640Y-103982520D01*
X142074900Y-103982520D01*
X142087600Y-103982520D01*
X142280640Y-103982520D01*
X142341600Y-104043480D01*
X142402560Y-104101900D01*
X142443200Y-104101900D01*
X142471140Y-104101900D01*
X142506700Y-104099360D01*
X142534640Y-104094280D01*
X142567660Y-104091740D01*
X142598140Y-104094280D01*
X142631160Y-104099360D01*
X142671800Y-104109520D01*
X142717520Y-104127300D01*
X142773400Y-104150160D01*
X142788640Y-104155240D01*
X142831820Y-104175560D01*
X142864840Y-104188260D01*
X142892780Y-104195880D01*
X142918180Y-104200960D01*
X142946120Y-104206040D01*
X142963900Y-104208580D01*
X143009620Y-104213660D01*
X143045180Y-104218740D01*
X143073120Y-104226360D01*
X143093440Y-104236520D01*
X143113760Y-104249220D01*
X143134080Y-104269540D01*
X143136620Y-104272080D01*
X143159480Y-104292400D01*
X143184880Y-104310180D01*
X143202660Y-104322880D01*
X143202660Y-104322880D01*
X143222980Y-104327960D01*
X143253460Y-104333040D01*
X143289020Y-104340660D01*
X143327120Y-104343200D01*
X143360140Y-104348280D01*
X143385540Y-104348280D01*
X143400780Y-104345740D01*
X143413480Y-104338120D01*
X143436340Y-104325420D01*
X143456660Y-104307640D01*
X143479520Y-104287320D01*
X143494760Y-104279700D01*
X143504920Y-104277160D01*
X143510000Y-104279700D01*
X143520160Y-104287320D01*
X143540480Y-104300020D01*
X143568420Y-104317800D01*
X143598900Y-104338120D01*
X143606520Y-104343200D01*
X143692880Y-104396540D01*
X143769080Y-104399080D01*
X143804640Y-104401620D01*
X143827500Y-104404160D01*
X143840200Y-104406700D01*
X143850360Y-104411780D01*
X143855440Y-104419400D01*
X143857980Y-104424480D01*
X143878300Y-104447340D01*
X143906240Y-104462580D01*
X143936720Y-104470200D01*
X143941800Y-104470200D01*
X143969740Y-104462580D01*
X143997680Y-104444800D01*
X144025620Y-104414320D01*
X144035780Y-104401620D01*
X144048480Y-104388920D01*
X144056100Y-104378760D01*
X144066260Y-104371140D01*
X144078960Y-104363520D01*
X144099280Y-104360980D01*
X144124680Y-104355900D01*
X144162780Y-104350820D01*
X144211040Y-104348280D01*
X144226280Y-104345740D01*
X144335500Y-104335580D01*
X144365980Y-104363520D01*
X144401540Y-104396540D01*
X144437100Y-104421940D01*
X144467580Y-104442260D01*
X144477740Y-104447340D01*
X144500600Y-104452420D01*
X144533620Y-104457500D01*
X144576800Y-104462580D01*
X144622520Y-104467660D01*
X144673320Y-104472740D01*
X144721580Y-104475280D01*
X144767300Y-104475280D01*
X144769840Y-104475280D01*
X144818100Y-104475280D01*
X144861280Y-104470200D01*
X144904460Y-104465120D01*
X144952720Y-104454960D01*
X144998440Y-104444800D01*
X145031460Y-104434640D01*
X145056860Y-104421940D01*
X145079720Y-104409240D01*
X145102580Y-104388920D01*
X145127980Y-104363520D01*
X145145760Y-104343200D01*
X145161000Y-104322880D01*
X145168620Y-104300020D01*
X145176240Y-104272080D01*
X145183860Y-104236520D01*
X145186400Y-104193340D01*
X145191480Y-104142540D01*
X145199100Y-104063800D01*
X145211800Y-103995220D01*
X145232120Y-103939340D01*
X145257520Y-103893620D01*
X145260060Y-103888540D01*
X145285460Y-103863140D01*
X145323560Y-103835200D01*
X145336260Y-103827580D01*
X145364200Y-103814880D01*
X145387060Y-103804720D01*
X145404840Y-103802180D01*
X145427700Y-103802180D01*
X145430240Y-103802180D01*
X145468340Y-103802180D01*
X145511520Y-103794560D01*
X145542000Y-103786940D01*
X145580100Y-103774240D01*
X145608040Y-103769160D01*
X145625820Y-103766620D01*
X145641060Y-103771700D01*
X145656300Y-103776780D01*
X145663920Y-103781860D01*
X145694400Y-103797100D01*
X145737580Y-103802180D01*
X145785840Y-103797100D01*
X145801080Y-103792020D01*
X145823940Y-103786940D01*
X145844260Y-103781860D01*
X145851880Y-103781860D01*
X145851880Y-103786940D01*
X145854420Y-103807260D01*
X145854420Y-103830120D01*
X145854420Y-103832660D01*
X145854420Y-103860600D01*
X145856960Y-103880920D01*
X145862040Y-103898700D01*
X145874740Y-103916480D01*
X145897600Y-103949500D01*
X145889980Y-104068880D01*
X145887440Y-104114600D01*
X145882360Y-104147620D01*
X145879820Y-104173020D01*
X145874740Y-104190800D01*
X145869660Y-104206040D01*
X145862040Y-104221280D01*
X145856960Y-104228900D01*
X145841720Y-104259380D01*
X145834100Y-104287320D01*
X145834100Y-104307640D01*
X145831560Y-104335580D01*
X145829020Y-104358440D01*
X145826480Y-104366060D01*
X145823940Y-104383840D01*
X145818860Y-104409240D01*
X145818860Y-104442260D01*
X145818860Y-104454960D01*
X145818860Y-104487980D01*
X145818860Y-104508300D01*
X145823940Y-104523540D01*
X145831560Y-104533700D01*
X145841720Y-104546400D01*
X145844260Y-104548940D01*
X145864580Y-104564180D01*
X145884900Y-104571800D01*
X145887440Y-104574340D01*
X145897600Y-104574340D01*
X145902680Y-104579420D01*
X145907760Y-104594660D01*
X145910300Y-104620060D01*
X145912840Y-104653080D01*
X145915380Y-104691180D01*
X145915380Y-104714040D01*
X145917920Y-104757220D01*
X145923000Y-104813100D01*
X145930620Y-104884220D01*
X145943320Y-104970580D01*
X145961100Y-105069640D01*
X145961100Y-105077260D01*
X145968720Y-105120440D01*
X145973800Y-105161080D01*
X145978880Y-105191560D01*
X145981420Y-105214420D01*
X145983960Y-105222040D01*
X145983960Y-105234740D01*
X145981420Y-105257600D01*
X145981420Y-105288080D01*
X145978880Y-105318560D01*
X145978880Y-105351580D01*
X145976340Y-105382060D01*
X145973800Y-105402380D01*
X145971260Y-105410000D01*
X145961100Y-105435400D01*
X145958560Y-105465880D01*
X145961100Y-105496360D01*
X145971260Y-105521760D01*
X145986500Y-105534460D01*
X145994120Y-105547160D01*
X146001740Y-105572560D01*
X146011900Y-105613200D01*
X146019520Y-105669080D01*
X146029680Y-105737660D01*
X146037300Y-105816400D01*
X146042380Y-105877360D01*
X146047460Y-105930700D01*
X146052540Y-105981500D01*
X146057620Y-106024680D01*
X146062700Y-106060240D01*
X146065240Y-106085640D01*
X146067780Y-106098340D01*
X146077940Y-106118660D01*
X146088100Y-106146600D01*
X146098260Y-106172000D01*
X146105880Y-106192320D01*
X146113500Y-106207560D01*
X146116040Y-106225340D01*
X146118580Y-106245660D01*
X146118580Y-106271060D01*
X146116040Y-106304080D01*
X146113500Y-106349800D01*
X146113500Y-106370120D01*
X146110960Y-106415840D01*
X146110960Y-106451400D01*
X146116040Y-106479340D01*
X146123660Y-106504740D01*
X146136360Y-106532680D01*
X146156680Y-106565700D01*
X146174460Y-106603800D01*
X146184620Y-106631740D01*
X146189700Y-106659680D01*
X146184620Y-106687620D01*
X146174460Y-106725720D01*
X146169380Y-106735880D01*
X146156680Y-106773980D01*
X146149060Y-106804460D01*
X146149060Y-106824780D01*
X146151600Y-106842560D01*
X146159220Y-106857800D01*
X146159220Y-106860340D01*
X146174460Y-106875580D01*
X146199860Y-106893360D01*
X146230340Y-106911140D01*
X146263360Y-106923840D01*
X146283680Y-106931460D01*
X146304000Y-106936540D01*
X146304000Y-107025440D01*
X146304000Y-107116880D01*
X146334480Y-107180380D01*
X146367500Y-107248960D01*
X146392900Y-107307380D01*
X146413220Y-107355640D01*
X146425920Y-107391200D01*
X146431000Y-107411520D01*
X146433540Y-107429300D01*
X146433540Y-107444540D01*
X146425920Y-107459780D01*
X146410680Y-107480100D01*
X146410680Y-107482640D01*
X146382740Y-107523280D01*
X146359880Y-107561380D01*
X146342100Y-107607100D01*
X146334480Y-107635040D01*
X146319240Y-107688380D01*
X146342100Y-107787440D01*
X146357340Y-107853480D01*
X146364960Y-107906820D01*
X146370040Y-107952540D01*
X146370040Y-107993180D01*
X146362420Y-108031280D01*
X146352260Y-108069380D01*
X146352260Y-108069380D01*
X146337020Y-108112560D01*
X146324320Y-108150660D01*
X146309080Y-108183680D01*
X146298920Y-108206540D01*
X146288760Y-108216700D01*
X146288760Y-108219240D01*
X146278600Y-108221780D01*
X146258280Y-108229400D01*
X146250660Y-108234480D01*
X146227800Y-108242100D01*
X146192240Y-108249720D01*
X146143980Y-108254800D01*
X146083020Y-108257340D01*
X146006820Y-108259880D01*
X145917920Y-108262420D01*
X145816320Y-108262420D01*
X145806160Y-108262420D01*
X145750280Y-108264960D01*
X145684240Y-108264960D01*
X145610580Y-108267500D01*
X145531840Y-108267500D01*
X145453100Y-108270040D01*
X145379440Y-108275120D01*
X145359120Y-108275120D01*
X145122900Y-108282740D01*
X144896840Y-108292900D01*
X144673320Y-108297980D01*
X144449800Y-108303060D01*
X144228820Y-108308140D01*
X144005300Y-108310680D01*
X143779240Y-108313220D01*
X143545560Y-108313220D01*
X143306800Y-108313220D01*
X143055340Y-108313220D01*
X142793720Y-108310680D01*
X142661640Y-108308140D01*
X142476220Y-108305600D01*
X142306040Y-108303060D01*
X142148560Y-108300520D01*
X142003780Y-108297980D01*
X141869160Y-108295440D01*
X141744700Y-108292900D01*
X141627860Y-108290360D01*
X141521180Y-108287820D01*
X141422120Y-108282740D01*
X141330680Y-108280200D01*
X141241780Y-108277660D01*
X141157960Y-108272580D01*
X141112240Y-108270040D01*
X141048740Y-108267500D01*
X140990320Y-108262420D01*
X140936980Y-108259880D01*
X140891260Y-108257340D01*
X140858240Y-108254800D01*
X140835380Y-108254800D01*
X140822680Y-108254800D01*
X140822680Y-108254800D01*
X140822680Y-108247180D01*
X140825220Y-108224320D01*
X140825220Y-108191300D01*
X140827760Y-108143040D01*
X140830300Y-108084620D01*
X140832840Y-108016040D01*
X140837920Y-107937300D01*
X140840460Y-107850940D01*
X140845540Y-107754420D01*
X140850620Y-107652820D01*
X140853160Y-107546140D01*
X140858240Y-107431840D01*
X140865860Y-107315000D01*
X140865860Y-107299760D01*
X140870940Y-107160060D01*
X140876020Y-107033060D01*
X140881100Y-106918760D01*
X140886180Y-106817160D01*
X140891260Y-106728260D01*
X140893800Y-106649520D01*
X140896340Y-106583480D01*
X140898880Y-106522520D01*
X140898880Y-106474260D01*
X140898880Y-106431080D01*
X140898880Y-106398060D01*
X140898880Y-106367580D01*
X140898880Y-106344720D01*
X140896340Y-106326940D01*
X140893800Y-106311700D01*
X140891260Y-106301540D01*
X140888720Y-106291380D01*
X140883640Y-106283760D01*
X140878560Y-106278680D01*
X140873480Y-106271060D01*
X140868400Y-106263440D01*
X140855700Y-106248200D01*
X140848080Y-106232960D01*
X140845540Y-106217720D01*
X140848080Y-106192320D01*
X140848080Y-106182160D01*
X140848080Y-106146600D01*
X140845540Y-106113580D01*
X140835380Y-106072940D01*
X140835380Y-106070400D01*
X140822680Y-106027220D01*
X140815060Y-105996740D01*
X140812520Y-105973880D01*
X140812520Y-105961180D01*
X140815060Y-105951020D01*
X140822680Y-105945940D01*
X140822680Y-105943400D01*
X140840460Y-105938320D01*
X140863320Y-105930700D01*
X140873480Y-105930700D01*
X140901420Y-105923080D01*
X140924280Y-105912920D01*
X140944600Y-105897680D01*
X140962380Y-105874820D01*
X140985240Y-105839260D01*
X141003020Y-105803700D01*
X141046200Y-105714800D01*
X141038580Y-105636060D01*
X141033500Y-105605580D01*
X141028420Y-105577640D01*
X141020800Y-105552240D01*
X141013180Y-105524300D01*
X141000480Y-105488740D01*
X140980160Y-105445560D01*
X140975080Y-105432860D01*
X140954760Y-105382060D01*
X140931900Y-105331260D01*
X140909040Y-105277920D01*
X140888720Y-105232200D01*
X140878560Y-105214420D01*
X140863320Y-105176320D01*
X140850620Y-105148380D01*
X140843000Y-105128060D01*
X140840460Y-105115360D01*
X140843000Y-105105200D01*
X140843000Y-105095040D01*
X140850620Y-105069640D01*
X140850620Y-105039160D01*
X140840460Y-105006140D01*
X140822680Y-104965500D01*
X140797280Y-104917240D01*
X140794740Y-104914700D01*
X140771880Y-104874060D01*
X140751560Y-104838500D01*
X140736320Y-104808020D01*
X140726160Y-104777540D01*
X140713460Y-104744520D01*
X140703300Y-104703880D01*
X140693140Y-104658160D01*
X140682980Y-104612440D01*
X140667740Y-104548940D01*
X140655040Y-104498140D01*
X140644880Y-104457500D01*
X140634720Y-104424480D01*
X140624560Y-104396540D01*
X140616940Y-104373680D01*
X140609320Y-104363520D01*
X140601700Y-104335580D01*
X140596620Y-104305100D01*
X140596620Y-104297480D01*
X140596620Y-104927400D01*
X140599160Y-104929940D01*
X140604240Y-104945180D01*
X140622020Y-104973120D01*
X140632180Y-104995980D01*
X140637260Y-105008680D01*
X140637260Y-105018840D01*
X140632180Y-105029000D01*
X140629640Y-105046780D01*
X140627100Y-105064560D01*
X140632180Y-105087420D01*
X140639800Y-105115360D01*
X140655040Y-105150920D01*
X140675360Y-105199180D01*
X140690600Y-105229660D01*
X140726160Y-105310940D01*
X140761720Y-105387140D01*
X140789660Y-105455720D01*
X140815060Y-105516680D01*
X140835380Y-105567480D01*
X140848080Y-105608120D01*
X140855700Y-105636060D01*
X140855700Y-105638600D01*
X140860780Y-105666540D01*
X140858240Y-105684320D01*
X140853160Y-105704640D01*
X140845540Y-105717340D01*
X140835380Y-105737660D01*
X140822680Y-105750360D01*
X140807440Y-105757980D01*
X140784580Y-105763060D01*
X140771880Y-105765600D01*
X140756640Y-105768140D01*
X140738860Y-105778300D01*
X140721080Y-105793540D01*
X140693140Y-105818940D01*
X140685520Y-105829100D01*
X140660120Y-105854500D01*
X140642340Y-105872280D01*
X140632180Y-105884980D01*
X140627100Y-105897680D01*
X140627100Y-105912920D01*
X140627100Y-105923080D01*
X140629640Y-105976420D01*
X140642340Y-106037380D01*
X140657580Y-106100880D01*
X140665200Y-106128820D01*
X140667740Y-106151680D01*
X140667740Y-106174540D01*
X140665200Y-106205020D01*
X140662660Y-106210100D01*
X140660120Y-106243120D01*
X140660120Y-106271060D01*
X140667740Y-106293920D01*
X140685520Y-106321860D01*
X140703300Y-106344720D01*
X140726160Y-106372660D01*
X140682980Y-107353100D01*
X140677900Y-107472480D01*
X140672820Y-107589320D01*
X140667740Y-107701080D01*
X140662660Y-107807760D01*
X140660120Y-107906820D01*
X140655040Y-107998260D01*
X140652500Y-108082080D01*
X140649960Y-108155740D01*
X140647420Y-108219240D01*
X140644880Y-108272580D01*
X140644880Y-108313220D01*
X140644880Y-108341160D01*
X140644880Y-108356400D01*
X140644880Y-108356400D01*
X140655040Y-108381800D01*
X140675360Y-108404660D01*
X140698220Y-108419900D01*
X140703300Y-108422440D01*
X140716000Y-108424980D01*
X140743940Y-108427520D01*
X140782040Y-108430060D01*
X140830300Y-108435140D01*
X140888720Y-108437680D01*
X140952220Y-108442760D01*
X141025880Y-108445300D01*
X141102080Y-108450380D01*
X141183360Y-108452920D01*
X141264640Y-108458000D01*
X141348460Y-108460540D01*
X141429740Y-108463080D01*
X141511020Y-108465620D01*
X141587220Y-108468160D01*
X141658340Y-108470700D01*
X141701520Y-108473240D01*
X141762480Y-108473240D01*
X141836140Y-108475780D01*
X141919960Y-108475780D01*
X142011400Y-108478320D01*
X142113000Y-108480860D01*
X142219680Y-108480860D01*
X142328900Y-108483400D01*
X142443200Y-108483400D01*
X142554960Y-108485940D01*
X142664180Y-108488480D01*
X142707360Y-108488480D01*
X142808960Y-108488480D01*
X142910560Y-108491020D01*
X143009620Y-108491020D01*
X143106140Y-108493560D01*
X143195040Y-108493560D01*
X143278860Y-108493560D01*
X143352520Y-108496100D01*
X143416020Y-108496100D01*
X143469360Y-108496100D01*
X143510000Y-108496100D01*
X143532860Y-108496100D01*
X143568420Y-108496100D01*
X143619220Y-108496100D01*
X143680180Y-108496100D01*
X143751300Y-108496100D01*
X143827500Y-108496100D01*
X143908780Y-108493560D01*
X143992600Y-108493560D01*
X144076420Y-108491020D01*
X144111980Y-108491020D01*
X144266920Y-108488480D01*
X144416780Y-108483400D01*
X144564100Y-108480860D01*
X144703800Y-108475780D01*
X144835880Y-108473240D01*
X144960340Y-108468160D01*
X145074640Y-108465620D01*
X145176240Y-108463080D01*
X145262600Y-108458000D01*
X145280380Y-108458000D01*
X145336260Y-108455460D01*
X145402300Y-108452920D01*
X145473420Y-108452920D01*
X145544540Y-108450380D01*
X145613120Y-108450380D01*
X145638520Y-108450380D01*
X145704560Y-108450380D01*
X145778220Y-108447840D01*
X145859500Y-108447840D01*
X145938240Y-108442760D01*
X146014440Y-108440220D01*
X146052540Y-108440220D01*
X146268440Y-108427520D01*
X146339560Y-108394500D01*
X146372580Y-108376720D01*
X146397980Y-108364020D01*
X146415760Y-108351320D01*
X146420840Y-108346240D01*
X146436080Y-108325920D01*
X146451320Y-108295440D01*
X146471640Y-108254800D01*
X146489420Y-108211620D01*
X146507200Y-108168440D01*
X146522440Y-108130340D01*
X146535140Y-108089700D01*
X146542760Y-108056680D01*
X146547840Y-108031280D01*
X146550380Y-108000800D01*
X146550380Y-107980480D01*
X146545300Y-107906820D01*
X146532600Y-107823000D01*
X146517360Y-107749340D01*
X146509740Y-107713780D01*
X146509740Y-107685840D01*
X146517360Y-107655360D01*
X146532600Y-107622340D01*
X146555460Y-107584240D01*
X146570700Y-107566460D01*
X146593560Y-107530900D01*
X146608800Y-107505500D01*
X146616420Y-107480100D01*
X146618960Y-107454700D01*
X146616420Y-107421680D01*
X146608800Y-107383580D01*
X146601180Y-107353100D01*
X146588480Y-107312460D01*
X146570700Y-107266740D01*
X146550380Y-107213400D01*
X146524980Y-107162600D01*
X146504660Y-107119420D01*
X146497040Y-107101640D01*
X146489420Y-107086400D01*
X146486880Y-107068620D01*
X146484340Y-107048300D01*
X146484340Y-107017820D01*
X146484340Y-106977180D01*
X146484340Y-106972100D01*
X146481800Y-106923840D01*
X146479260Y-106883200D01*
X146474180Y-106855260D01*
X146461480Y-106832400D01*
X146443700Y-106812080D01*
X146415760Y-106794300D01*
X146377660Y-106773980D01*
X146357340Y-106763820D01*
X146357340Y-106756200D01*
X146359880Y-106738420D01*
X146364960Y-106713020D01*
X146367500Y-106705400D01*
X146372580Y-106659680D01*
X146372580Y-106629200D01*
X146372580Y-106621580D01*
X146359880Y-106578400D01*
X146339560Y-106532680D01*
X146316700Y-106486960D01*
X146309080Y-106474260D01*
X146301460Y-106461560D01*
X146296380Y-106448860D01*
X146291300Y-106433620D01*
X146291300Y-106415840D01*
X146291300Y-106392980D01*
X146291300Y-106362500D01*
X146296380Y-106319320D01*
X146301460Y-106265980D01*
X146301460Y-106263440D01*
X146301460Y-106238040D01*
X146301460Y-106212640D01*
X146293840Y-106184700D01*
X146286220Y-106156760D01*
X146273520Y-106123740D01*
X146263360Y-106093260D01*
X146253200Y-106070400D01*
X146250660Y-106065320D01*
X146245580Y-106052620D01*
X146240500Y-106032300D01*
X146237960Y-106004360D01*
X146232880Y-105966260D01*
X146227800Y-105915460D01*
X146222720Y-105854500D01*
X146215100Y-105785920D01*
X146207480Y-105719880D01*
X146199860Y-105656380D01*
X146189700Y-105595420D01*
X146182080Y-105542080D01*
X146174460Y-105498900D01*
X146164300Y-105468420D01*
X146161760Y-105458260D01*
X146161760Y-105440480D01*
X146164300Y-105422700D01*
X146166840Y-105397300D01*
X146161760Y-105361740D01*
X146161760Y-105361740D01*
X146156680Y-105328720D01*
X146159220Y-105293160D01*
X146161760Y-105275380D01*
X146164300Y-105252520D01*
X146166840Y-105232200D01*
X146164300Y-105209340D01*
X146161760Y-105181400D01*
X146154140Y-105140760D01*
X146151600Y-105125520D01*
X146133820Y-105031540D01*
X146121120Y-104945180D01*
X146110960Y-104863900D01*
X146103340Y-104782620D01*
X146095720Y-104693720D01*
X146090640Y-104617520D01*
X146088100Y-104551480D01*
X146083020Y-104500680D01*
X146080480Y-104460040D01*
X146075400Y-104429560D01*
X146072860Y-104406700D01*
X146065240Y-104388920D01*
X146057620Y-104376220D01*
X146047460Y-104368600D01*
X146039840Y-104360980D01*
X146027140Y-104350820D01*
X146022060Y-104338120D01*
X146024600Y-104320340D01*
X146032220Y-104294940D01*
X146042380Y-104269540D01*
X146042380Y-104269540D01*
X146050000Y-104256840D01*
X146052540Y-104246680D01*
X146057620Y-104233980D01*
X146060160Y-104216200D01*
X146062700Y-104193340D01*
X146065240Y-104162860D01*
X146067780Y-104119680D01*
X146072860Y-104066340D01*
X146072860Y-104038400D01*
X146083020Y-103886000D01*
X146057620Y-103855520D01*
X146032220Y-103825040D01*
X146039840Y-103748840D01*
X146042380Y-103700580D01*
X146042380Y-103665020D01*
X146039840Y-103639620D01*
X146029680Y-103619300D01*
X146016980Y-103604060D01*
X146014440Y-103601520D01*
X145999200Y-103588820D01*
X145981420Y-103583740D01*
X145958560Y-103581200D01*
X145930620Y-103581200D01*
X145892520Y-103588820D01*
X145841720Y-103598980D01*
X145836640Y-103601520D01*
X145745200Y-103621840D01*
X145709640Y-103601520D01*
X145684240Y-103588820D01*
X145661380Y-103581200D01*
X145633440Y-103581200D01*
X145602960Y-103586280D01*
X145559780Y-103593900D01*
X145529300Y-103601520D01*
X145493740Y-103611680D01*
X145465800Y-103619300D01*
X145448020Y-103621840D01*
X145430240Y-103619300D01*
X145417540Y-103616760D01*
X145397220Y-103614220D01*
X145379440Y-103614220D01*
X145359120Y-103616760D01*
X145333720Y-103626920D01*
X145303240Y-103642160D01*
X145270220Y-103659940D01*
X145229580Y-103682800D01*
X145199100Y-103700580D01*
X145176240Y-103718360D01*
X145158460Y-103733600D01*
X145140680Y-103751380D01*
X145122900Y-103774240D01*
X145102580Y-103797100D01*
X145087340Y-103819960D01*
X145077180Y-103840280D01*
X145067020Y-103865680D01*
X145054320Y-103898700D01*
X145041620Y-103941880D01*
X145039080Y-103952040D01*
X145026380Y-104000300D01*
X145018760Y-104040940D01*
X145013680Y-104079040D01*
X145008600Y-104122220D01*
X145008600Y-104137460D01*
X145006060Y-104183180D01*
X145003520Y-104216200D01*
X144995900Y-104239060D01*
X144983200Y-104254300D01*
X144962880Y-104267000D01*
X144932400Y-104274620D01*
X144904460Y-104282240D01*
X144843500Y-104292400D01*
X144772380Y-104297480D01*
X144693640Y-104294940D01*
X144619980Y-104287320D01*
X144541240Y-104279700D01*
X144475200Y-104221280D01*
X144449800Y-104195880D01*
X144424400Y-104178100D01*
X144404080Y-104162860D01*
X144393920Y-104157780D01*
X144378680Y-104157780D01*
X144353280Y-104157780D01*
X144315180Y-104157780D01*
X144272000Y-104162860D01*
X144221200Y-104165400D01*
X144170400Y-104170480D01*
X144119600Y-104175560D01*
X144076420Y-104180640D01*
X144033240Y-104188260D01*
X144002760Y-104193340D01*
X143982440Y-104203500D01*
X143969740Y-104208580D01*
X143959580Y-104216200D01*
X143949420Y-104221280D01*
X143934180Y-104223820D01*
X143913860Y-104223820D01*
X143885920Y-104223820D01*
X143847820Y-104223820D01*
X143746220Y-104221280D01*
X143642080Y-104152700D01*
X143603980Y-104127300D01*
X143570960Y-104106980D01*
X143543020Y-104089200D01*
X143522700Y-104079040D01*
X143515080Y-104073960D01*
X143487140Y-104066340D01*
X143461740Y-104071420D01*
X143431260Y-104086660D01*
X143395700Y-104117140D01*
X143393160Y-104119680D01*
X143370300Y-104140000D01*
X143352520Y-104152700D01*
X143337280Y-104160320D01*
X143322040Y-104162860D01*
X143316960Y-104162860D01*
X143299180Y-104160320D01*
X143286480Y-104157780D01*
X143268700Y-104145080D01*
X143248380Y-104127300D01*
X143238220Y-104117140D01*
X143207740Y-104091740D01*
X143174720Y-104071420D01*
X143136620Y-104056180D01*
X143093440Y-104046020D01*
X143037560Y-104035860D01*
X143009620Y-104033320D01*
X142971520Y-104028240D01*
X142941040Y-104020620D01*
X142910560Y-104010460D01*
X142875000Y-103997760D01*
X142844520Y-103985060D01*
X142801340Y-103967280D01*
X142753080Y-103949500D01*
X142707360Y-103934260D01*
X142679420Y-103926640D01*
X142641320Y-103919020D01*
X142613380Y-103911400D01*
X142590520Y-103911400D01*
X142567660Y-103911400D01*
X142537180Y-103913940D01*
X142476220Y-103921560D01*
X142417800Y-103868220D01*
X142382240Y-103835200D01*
X142354300Y-103814880D01*
X142336520Y-103809800D01*
X142323820Y-103807260D01*
X142295880Y-103807260D01*
X142260320Y-103804720D01*
X142214600Y-103804720D01*
X142163800Y-103804720D01*
X142107920Y-103804720D01*
X142105380Y-103804720D01*
X142021560Y-103804720D01*
X141932660Y-103802180D01*
X141841220Y-103802180D01*
X141749780Y-103802180D01*
X141658340Y-103799640D01*
X141569440Y-103797100D01*
X141485620Y-103797100D01*
X141404340Y-103794560D01*
X141328140Y-103792020D01*
X141259560Y-103789480D01*
X141201140Y-103786940D01*
X141150340Y-103784400D01*
X141112240Y-103781860D01*
X141086840Y-103779320D01*
X141074140Y-103776780D01*
X141056360Y-103774240D01*
X141023340Y-103769160D01*
X140985240Y-103764080D01*
X140944600Y-103761540D01*
X140924280Y-103759000D01*
X140878560Y-103756460D01*
X140845540Y-103753920D01*
X140822680Y-103753920D01*
X140804900Y-103753920D01*
X140792200Y-103756460D01*
X140782040Y-103761540D01*
X140779500Y-103764080D01*
X140754100Y-103784400D01*
X140731240Y-103817420D01*
X140721080Y-103852980D01*
X140713460Y-103868220D01*
X140698220Y-103891080D01*
X140677900Y-103913940D01*
X140672820Y-103921560D01*
X140647420Y-103952040D01*
X140624560Y-103979980D01*
X140604240Y-104002840D01*
X140601700Y-104007920D01*
X140586460Y-104025700D01*
X140561060Y-104051100D01*
X140533120Y-104079040D01*
X140505180Y-104106980D01*
X140477240Y-104132380D01*
X140451840Y-104155240D01*
X140434060Y-104173020D01*
X140423900Y-104185720D01*
X140423900Y-104185720D01*
X140418820Y-104203500D01*
X140413740Y-104233980D01*
X140413740Y-104274620D01*
X140413740Y-104284780D01*
X140413740Y-104284780D01*
G36*
X142839440Y-106748580D02*
X142839440Y-106766360D01*
X142841980Y-106771440D01*
X142844520Y-106791760D01*
X142854680Y-106819700D01*
X142867380Y-106852720D01*
X142877540Y-106878120D01*
X142895320Y-106921300D01*
X142908020Y-106954320D01*
X142915640Y-106977180D01*
X142918180Y-106994960D01*
X142913100Y-107010200D01*
X142908020Y-107022900D01*
X142892780Y-107040680D01*
X142877540Y-107055920D01*
X142864840Y-107068620D01*
X142862300Y-107081320D01*
X142867380Y-107096560D01*
X142885160Y-107116880D01*
X142887700Y-107121960D01*
X142910560Y-107147360D01*
X142925800Y-107170220D01*
X142935960Y-107190540D01*
X142941040Y-107218480D01*
X142946120Y-107251500D01*
X142948660Y-107294680D01*
X142948660Y-107307380D01*
X142948660Y-107360720D01*
X142948660Y-107411520D01*
X142943580Y-107464860D01*
X142938500Y-107523280D01*
X142928340Y-107591860D01*
X142918180Y-107668060D01*
X142910560Y-107706160D01*
X142902940Y-107762040D01*
X142895320Y-107805220D01*
X142892780Y-107838240D01*
X142890240Y-107861100D01*
X142892780Y-107878880D01*
X142895320Y-107891580D01*
X142900400Y-107901740D01*
X142900400Y-107904280D01*
X142908020Y-107911900D01*
X142915640Y-107914440D01*
X142928340Y-107916980D01*
X142948660Y-107919520D01*
X142979140Y-107919520D01*
X142996920Y-107919520D01*
X143032480Y-107919520D01*
X143050260Y-107916980D01*
X143050260Y-106987340D01*
X143057880Y-106941620D01*
X143073120Y-106898440D01*
X143095980Y-106862880D01*
X143101060Y-106855260D01*
X143126460Y-106840020D01*
X143156940Y-106837480D01*
X143187420Y-106845100D01*
X143217900Y-106862880D01*
X143248380Y-106890820D01*
X143273780Y-106923840D01*
X143291560Y-106964480D01*
X143296640Y-106974640D01*
X143301720Y-106997500D01*
X143306800Y-107025440D01*
X143311880Y-107055920D01*
X143316960Y-107086400D01*
X143319500Y-107114340D01*
X143322040Y-107132120D01*
X143319500Y-107142280D01*
X143309340Y-107144820D01*
X143289020Y-107149900D01*
X143261080Y-107154980D01*
X143230600Y-107157520D01*
X143202660Y-107160060D01*
X143179800Y-107162600D01*
X143169640Y-107162600D01*
X143146780Y-107154980D01*
X143121380Y-107139740D01*
X143111220Y-107129580D01*
X143090900Y-107106720D01*
X143073120Y-107083860D01*
X143068040Y-107071160D01*
X143052800Y-107033060D01*
X143050260Y-106987340D01*
X143050260Y-107916980D01*
X143065500Y-107916980D01*
X143088360Y-107916980D01*
X143098520Y-107914440D01*
X143136620Y-107906820D01*
X143179800Y-107896660D01*
X143225520Y-107881420D01*
X143266160Y-107868720D01*
X143296640Y-107853480D01*
X143301720Y-107853480D01*
X143339820Y-107830620D01*
X143375380Y-107802680D01*
X143405860Y-107772200D01*
X143426180Y-107744260D01*
X143438880Y-107718860D01*
X143438880Y-107696000D01*
X143438880Y-107696000D01*
X143426180Y-107675680D01*
X143405860Y-107657900D01*
X143385540Y-107650280D01*
X143385540Y-107650280D01*
X143370300Y-107657900D01*
X143347440Y-107673140D01*
X143314420Y-107701080D01*
X143309340Y-107703620D01*
X143266160Y-107741720D01*
X143222980Y-107769660D01*
X143179800Y-107789980D01*
X143139160Y-107802680D01*
X143106140Y-107807760D01*
X143078200Y-107800140D01*
X143070580Y-107795060D01*
X143060420Y-107787440D01*
X143057880Y-107779820D01*
X143057880Y-107764580D01*
X143062960Y-107741720D01*
X143065500Y-107739180D01*
X143068040Y-107718860D01*
X143073120Y-107688380D01*
X143078200Y-107647740D01*
X143080740Y-107596940D01*
X143085820Y-107530900D01*
X143090900Y-107454700D01*
X143095980Y-107363260D01*
X143098520Y-107337860D01*
X143103600Y-107246420D01*
X143238220Y-107246420D01*
X143296640Y-107246420D01*
X143339820Y-107246420D01*
X143375380Y-107243880D01*
X143403320Y-107236260D01*
X143423640Y-107228640D01*
X143441420Y-107213400D01*
X143459200Y-107198160D01*
X143464280Y-107193080D01*
X143479520Y-107172760D01*
X143484600Y-107160060D01*
X143484600Y-107139740D01*
X143482060Y-107129580D01*
X143466820Y-107043220D01*
X143441420Y-106967020D01*
X143408400Y-106900980D01*
X143367760Y-106845100D01*
X143357600Y-106834940D01*
X143322040Y-106801920D01*
X143286480Y-106779060D01*
X143245840Y-106758740D01*
X143212820Y-106746040D01*
X143179800Y-106733340D01*
X143146780Y-106718100D01*
X143131540Y-106710480D01*
X143090900Y-106687620D01*
X143062960Y-106710480D01*
X143040100Y-106728260D01*
X143019780Y-106740960D01*
X142996920Y-106743500D01*
X142968980Y-106740960D01*
X142935960Y-106735880D01*
X142902940Y-106728260D01*
X142880080Y-106728260D01*
X142864840Y-106728260D01*
X142854680Y-106730800D01*
X142841980Y-106738420D01*
X142839440Y-106748580D01*
X142839440Y-106748580D01*
X142839440Y-106748580D01*
G37*
X142839440Y-106748580D02*
X142839440Y-106766360D01*
X142841980Y-106771440D01*
X142844520Y-106791760D01*
X142854680Y-106819700D01*
X142867380Y-106852720D01*
X142877540Y-106878120D01*
X142895320Y-106921300D01*
X142908020Y-106954320D01*
X142915640Y-106977180D01*
X142918180Y-106994960D01*
X142913100Y-107010200D01*
X142908020Y-107022900D01*
X142892780Y-107040680D01*
X142877540Y-107055920D01*
X142864840Y-107068620D01*
X142862300Y-107081320D01*
X142867380Y-107096560D01*
X142885160Y-107116880D01*
X142887700Y-107121960D01*
X142910560Y-107147360D01*
X142925800Y-107170220D01*
X142935960Y-107190540D01*
X142941040Y-107218480D01*
X142946120Y-107251500D01*
X142948660Y-107294680D01*
X142948660Y-107307380D01*
X142948660Y-107360720D01*
X142948660Y-107411520D01*
X142943580Y-107464860D01*
X142938500Y-107523280D01*
X142928340Y-107591860D01*
X142918180Y-107668060D01*
X142910560Y-107706160D01*
X142902940Y-107762040D01*
X142895320Y-107805220D01*
X142892780Y-107838240D01*
X142890240Y-107861100D01*
X142892780Y-107878880D01*
X142895320Y-107891580D01*
X142900400Y-107901740D01*
X142900400Y-107904280D01*
X142908020Y-107911900D01*
X142915640Y-107914440D01*
X142928340Y-107916980D01*
X142948660Y-107919520D01*
X142979140Y-107919520D01*
X142996920Y-107919520D01*
X143032480Y-107919520D01*
X143050260Y-107916980D01*
X143050260Y-106987340D01*
X143057880Y-106941620D01*
X143073120Y-106898440D01*
X143095980Y-106862880D01*
X143101060Y-106855260D01*
X143126460Y-106840020D01*
X143156940Y-106837480D01*
X143187420Y-106845100D01*
X143217900Y-106862880D01*
X143248380Y-106890820D01*
X143273780Y-106923840D01*
X143291560Y-106964480D01*
X143296640Y-106974640D01*
X143301720Y-106997500D01*
X143306800Y-107025440D01*
X143311880Y-107055920D01*
X143316960Y-107086400D01*
X143319500Y-107114340D01*
X143322040Y-107132120D01*
X143319500Y-107142280D01*
X143309340Y-107144820D01*
X143289020Y-107149900D01*
X143261080Y-107154980D01*
X143230600Y-107157520D01*
X143202660Y-107160060D01*
X143179800Y-107162600D01*
X143169640Y-107162600D01*
X143146780Y-107154980D01*
X143121380Y-107139740D01*
X143111220Y-107129580D01*
X143090900Y-107106720D01*
X143073120Y-107083860D01*
X143068040Y-107071160D01*
X143052800Y-107033060D01*
X143050260Y-106987340D01*
X143050260Y-107916980D01*
X143065500Y-107916980D01*
X143088360Y-107916980D01*
X143098520Y-107914440D01*
X143136620Y-107906820D01*
X143179800Y-107896660D01*
X143225520Y-107881420D01*
X143266160Y-107868720D01*
X143296640Y-107853480D01*
X143301720Y-107853480D01*
X143339820Y-107830620D01*
X143375380Y-107802680D01*
X143405860Y-107772200D01*
X143426180Y-107744260D01*
X143438880Y-107718860D01*
X143438880Y-107696000D01*
X143438880Y-107696000D01*
X143426180Y-107675680D01*
X143405860Y-107657900D01*
X143385540Y-107650280D01*
X143385540Y-107650280D01*
X143370300Y-107657900D01*
X143347440Y-107673140D01*
X143314420Y-107701080D01*
X143309340Y-107703620D01*
X143266160Y-107741720D01*
X143222980Y-107769660D01*
X143179800Y-107789980D01*
X143139160Y-107802680D01*
X143106140Y-107807760D01*
X143078200Y-107800140D01*
X143070580Y-107795060D01*
X143060420Y-107787440D01*
X143057880Y-107779820D01*
X143057880Y-107764580D01*
X143062960Y-107741720D01*
X143065500Y-107739180D01*
X143068040Y-107718860D01*
X143073120Y-107688380D01*
X143078200Y-107647740D01*
X143080740Y-107596940D01*
X143085820Y-107530900D01*
X143090900Y-107454700D01*
X143095980Y-107363260D01*
X143098520Y-107337860D01*
X143103600Y-107246420D01*
X143238220Y-107246420D01*
X143296640Y-107246420D01*
X143339820Y-107246420D01*
X143375380Y-107243880D01*
X143403320Y-107236260D01*
X143423640Y-107228640D01*
X143441420Y-107213400D01*
X143459200Y-107198160D01*
X143464280Y-107193080D01*
X143479520Y-107172760D01*
X143484600Y-107160060D01*
X143484600Y-107139740D01*
X143482060Y-107129580D01*
X143466820Y-107043220D01*
X143441420Y-106967020D01*
X143408400Y-106900980D01*
X143367760Y-106845100D01*
X143357600Y-106834940D01*
X143322040Y-106801920D01*
X143286480Y-106779060D01*
X143245840Y-106758740D01*
X143212820Y-106746040D01*
X143179800Y-106733340D01*
X143146780Y-106718100D01*
X143131540Y-106710480D01*
X143090900Y-106687620D01*
X143062960Y-106710480D01*
X143040100Y-106728260D01*
X143019780Y-106740960D01*
X142996920Y-106743500D01*
X142968980Y-106740960D01*
X142935960Y-106735880D01*
X142902940Y-106728260D01*
X142880080Y-106728260D01*
X142864840Y-106728260D01*
X142854680Y-106730800D01*
X142841980Y-106738420D01*
X142839440Y-106748580D01*
X142839440Y-106748580D01*
G36*
X141030960Y-107599480D02*
X141038580Y-107609640D01*
X141038580Y-107612180D01*
X141056360Y-107619800D01*
X141084300Y-107624880D01*
X141119860Y-107627420D01*
X141160500Y-107624880D01*
X141201140Y-107622340D01*
X141218920Y-107617260D01*
X141264640Y-107607100D01*
X141312900Y-107591860D01*
X141356080Y-107571540D01*
X141391640Y-107551220D01*
X141414500Y-107535980D01*
X141429740Y-107523280D01*
X141437360Y-107510580D01*
X141442440Y-107490260D01*
X141447520Y-107464860D01*
X141450060Y-107457240D01*
X141452600Y-107401360D01*
X141447520Y-107345480D01*
X141434820Y-107281980D01*
X141411960Y-107210860D01*
X141406880Y-107193080D01*
X141378940Y-107111800D01*
X141358620Y-107040680D01*
X141345920Y-106977180D01*
X141340840Y-106918760D01*
X141340840Y-106911140D01*
X141343380Y-106862880D01*
X141351000Y-106824780D01*
X141363700Y-106801920D01*
X141384020Y-106791760D01*
X141409420Y-106796840D01*
X141414500Y-106796840D01*
X141432280Y-106809540D01*
X141460220Y-106829860D01*
X141490700Y-106855260D01*
X141523720Y-106883200D01*
X141556740Y-106913680D01*
X141587220Y-106941620D01*
X141594840Y-106951780D01*
X141668500Y-107038140D01*
X141726920Y-107129580D01*
X141772640Y-107221020D01*
X141803120Y-107315000D01*
X141813280Y-107378500D01*
X141818360Y-107408980D01*
X141825980Y-107436920D01*
X141833600Y-107454700D01*
X141833600Y-107454700D01*
X141841220Y-107464860D01*
X141848840Y-107467400D01*
X141864080Y-107469940D01*
X141886940Y-107467400D01*
X141917420Y-107462320D01*
X141952980Y-107457240D01*
X141991080Y-107449620D01*
X141996160Y-107368340D01*
X141998700Y-107325160D01*
X141998700Y-107274360D01*
X142001240Y-107226100D01*
X142001240Y-107205780D01*
X142001240Y-107157520D01*
X142003780Y-107109260D01*
X142008860Y-107061000D01*
X142013940Y-107007660D01*
X142024100Y-106944160D01*
X142034260Y-106873040D01*
X142041880Y-106827320D01*
X142049500Y-106781600D01*
X142054580Y-106740960D01*
X142059660Y-106705400D01*
X142062200Y-106682540D01*
X142062200Y-106669840D01*
X142062200Y-106667300D01*
X142052040Y-106659680D01*
X142034260Y-106657140D01*
X142008860Y-106662220D01*
X141983460Y-106674920D01*
X141963140Y-106690160D01*
X141945360Y-106710480D01*
X141930120Y-106738420D01*
X141914880Y-106776520D01*
X141899640Y-106824780D01*
X141886940Y-106888280D01*
X141884400Y-106893360D01*
X141871700Y-106946700D01*
X141864080Y-106989880D01*
X141853920Y-107020360D01*
X141848840Y-107040680D01*
X141843760Y-107053380D01*
X141838680Y-107058460D01*
X141833600Y-107061000D01*
X141833600Y-107061000D01*
X141825980Y-107055920D01*
X141808200Y-107040680D01*
X141782800Y-107020360D01*
X141752320Y-106992420D01*
X141716760Y-106959400D01*
X141678660Y-106921300D01*
X141676120Y-106918760D01*
X141610080Y-106855260D01*
X141554200Y-106804460D01*
X141508480Y-106761280D01*
X141467840Y-106728260D01*
X141432280Y-106702860D01*
X141404340Y-106685080D01*
X141378940Y-106674920D01*
X141356080Y-106669840D01*
X141333220Y-106672380D01*
X141310360Y-106677460D01*
X141287500Y-106690160D01*
X141267180Y-106702860D01*
X141241780Y-106720640D01*
X141224000Y-106738420D01*
X141213840Y-106763820D01*
X141206220Y-106794300D01*
X141203680Y-106834940D01*
X141201140Y-106880660D01*
X141203680Y-106949240D01*
X141208760Y-107007660D01*
X141221460Y-107058460D01*
X141239240Y-107111800D01*
X141246860Y-107132120D01*
X141269720Y-107193080D01*
X141287500Y-107254040D01*
X141297660Y-107312460D01*
X141305280Y-107365800D01*
X141302740Y-107414060D01*
X141297660Y-107444540D01*
X141290040Y-107462320D01*
X141277340Y-107477560D01*
X141257020Y-107492800D01*
X141229080Y-107505500D01*
X141190980Y-107520740D01*
X141147800Y-107535980D01*
X141112240Y-107548680D01*
X141081760Y-107561380D01*
X141056360Y-107574080D01*
X141046200Y-107581700D01*
X141033500Y-107591860D01*
X141030960Y-107599480D01*
X141030960Y-107599480D01*
X141030960Y-107599480D01*
G37*
X141030960Y-107599480D02*
X141038580Y-107609640D01*
X141038580Y-107612180D01*
X141056360Y-107619800D01*
X141084300Y-107624880D01*
X141119860Y-107627420D01*
X141160500Y-107624880D01*
X141201140Y-107622340D01*
X141218920Y-107617260D01*
X141264640Y-107607100D01*
X141312900Y-107591860D01*
X141356080Y-107571540D01*
X141391640Y-107551220D01*
X141414500Y-107535980D01*
X141429740Y-107523280D01*
X141437360Y-107510580D01*
X141442440Y-107490260D01*
X141447520Y-107464860D01*
X141450060Y-107457240D01*
X141452600Y-107401360D01*
X141447520Y-107345480D01*
X141434820Y-107281980D01*
X141411960Y-107210860D01*
X141406880Y-107193080D01*
X141378940Y-107111800D01*
X141358620Y-107040680D01*
X141345920Y-106977180D01*
X141340840Y-106918760D01*
X141340840Y-106911140D01*
X141343380Y-106862880D01*
X141351000Y-106824780D01*
X141363700Y-106801920D01*
X141384020Y-106791760D01*
X141409420Y-106796840D01*
X141414500Y-106796840D01*
X141432280Y-106809540D01*
X141460220Y-106829860D01*
X141490700Y-106855260D01*
X141523720Y-106883200D01*
X141556740Y-106913680D01*
X141587220Y-106941620D01*
X141594840Y-106951780D01*
X141668500Y-107038140D01*
X141726920Y-107129580D01*
X141772640Y-107221020D01*
X141803120Y-107315000D01*
X141813280Y-107378500D01*
X141818360Y-107408980D01*
X141825980Y-107436920D01*
X141833600Y-107454700D01*
X141833600Y-107454700D01*
X141841220Y-107464860D01*
X141848840Y-107467400D01*
X141864080Y-107469940D01*
X141886940Y-107467400D01*
X141917420Y-107462320D01*
X141952980Y-107457240D01*
X141991080Y-107449620D01*
X141996160Y-107368340D01*
X141998700Y-107325160D01*
X141998700Y-107274360D01*
X142001240Y-107226100D01*
X142001240Y-107205780D01*
X142001240Y-107157520D01*
X142003780Y-107109260D01*
X142008860Y-107061000D01*
X142013940Y-107007660D01*
X142024100Y-106944160D01*
X142034260Y-106873040D01*
X142041880Y-106827320D01*
X142049500Y-106781600D01*
X142054580Y-106740960D01*
X142059660Y-106705400D01*
X142062200Y-106682540D01*
X142062200Y-106669840D01*
X142062200Y-106667300D01*
X142052040Y-106659680D01*
X142034260Y-106657140D01*
X142008860Y-106662220D01*
X141983460Y-106674920D01*
X141963140Y-106690160D01*
X141945360Y-106710480D01*
X141930120Y-106738420D01*
X141914880Y-106776520D01*
X141899640Y-106824780D01*
X141886940Y-106888280D01*
X141884400Y-106893360D01*
X141871700Y-106946700D01*
X141864080Y-106989880D01*
X141853920Y-107020360D01*
X141848840Y-107040680D01*
X141843760Y-107053380D01*
X141838680Y-107058460D01*
X141833600Y-107061000D01*
X141833600Y-107061000D01*
X141825980Y-107055920D01*
X141808200Y-107040680D01*
X141782800Y-107020360D01*
X141752320Y-106992420D01*
X141716760Y-106959400D01*
X141678660Y-106921300D01*
X141676120Y-106918760D01*
X141610080Y-106855260D01*
X141554200Y-106804460D01*
X141508480Y-106761280D01*
X141467840Y-106728260D01*
X141432280Y-106702860D01*
X141404340Y-106685080D01*
X141378940Y-106674920D01*
X141356080Y-106669840D01*
X141333220Y-106672380D01*
X141310360Y-106677460D01*
X141287500Y-106690160D01*
X141267180Y-106702860D01*
X141241780Y-106720640D01*
X141224000Y-106738420D01*
X141213840Y-106763820D01*
X141206220Y-106794300D01*
X141203680Y-106834940D01*
X141201140Y-106880660D01*
X141203680Y-106949240D01*
X141208760Y-107007660D01*
X141221460Y-107058460D01*
X141239240Y-107111800D01*
X141246860Y-107132120D01*
X141269720Y-107193080D01*
X141287500Y-107254040D01*
X141297660Y-107312460D01*
X141305280Y-107365800D01*
X141302740Y-107414060D01*
X141297660Y-107444540D01*
X141290040Y-107462320D01*
X141277340Y-107477560D01*
X141257020Y-107492800D01*
X141229080Y-107505500D01*
X141190980Y-107520740D01*
X141147800Y-107535980D01*
X141112240Y-107548680D01*
X141081760Y-107561380D01*
X141056360Y-107574080D01*
X141046200Y-107581700D01*
X141033500Y-107591860D01*
X141030960Y-107599480D01*
X141030960Y-107599480D01*
G36*
X145206720Y-106504740D02*
X145206720Y-106542840D01*
X145206720Y-106588560D01*
X145209260Y-106644440D01*
X145211800Y-106702860D01*
X145211800Y-106766360D01*
X145214340Y-106829860D01*
X145216880Y-106893360D01*
X145219420Y-106951780D01*
X145221960Y-107005120D01*
X145224500Y-107048300D01*
X145227040Y-107083860D01*
X145229580Y-107101640D01*
X145237200Y-107157520D01*
X145252440Y-107208320D01*
X145262600Y-107241340D01*
X145277840Y-107274360D01*
X145290540Y-107307380D01*
X145295620Y-107322620D01*
X145295620Y-106949240D01*
X145295620Y-106911140D01*
X145298160Y-106862880D01*
X145298160Y-106824780D01*
X145300700Y-106748580D01*
X145305780Y-106682540D01*
X145310860Y-106629200D01*
X145318480Y-106586020D01*
X145326100Y-106547920D01*
X145338800Y-106517440D01*
X145346420Y-106502200D01*
X145366740Y-106469180D01*
X145389600Y-106448860D01*
X145422620Y-106436160D01*
X145463260Y-106433620D01*
X145463260Y-106433620D01*
X145491200Y-106433620D01*
X145508980Y-106428540D01*
X145521680Y-106420920D01*
X145526760Y-106415840D01*
X145547080Y-106398060D01*
X145569940Y-106395520D01*
X145592800Y-106405680D01*
X145620740Y-106428540D01*
X145628360Y-106436160D01*
X145666460Y-106484420D01*
X145702020Y-106545380D01*
X145732500Y-106619040D01*
X145760440Y-106700320D01*
X145783300Y-106791760D01*
X145796000Y-106852720D01*
X145803620Y-106911140D01*
X145811240Y-106974640D01*
X145816320Y-107040680D01*
X145821400Y-107106720D01*
X145823940Y-107170220D01*
X145826480Y-107228640D01*
X145826480Y-107281980D01*
X145823940Y-107325160D01*
X145818860Y-107355640D01*
X145818860Y-107360720D01*
X145803620Y-107393740D01*
X145778220Y-107424220D01*
X145750280Y-107444540D01*
X145737580Y-107447080D01*
X145717260Y-107452160D01*
X145702020Y-107454700D01*
X145684240Y-107454700D01*
X145661380Y-107452160D01*
X145653760Y-107449620D01*
X145602960Y-107434380D01*
X145549620Y-107408980D01*
X145498820Y-107378500D01*
X145455640Y-107342940D01*
X145420080Y-107304840D01*
X145412460Y-107294680D01*
X145399760Y-107271820D01*
X145384520Y-107238800D01*
X145366740Y-107198160D01*
X145348960Y-107154980D01*
X145331180Y-107111800D01*
X145315940Y-107071160D01*
X145305780Y-107040680D01*
X145305780Y-107038140D01*
X145303240Y-107020360D01*
X145298160Y-107000040D01*
X145298160Y-106977180D01*
X145295620Y-106949240D01*
X145295620Y-107322620D01*
X145300700Y-107337860D01*
X145303240Y-107342940D01*
X145323560Y-107375960D01*
X145354040Y-107414060D01*
X145394680Y-107449620D01*
X145442940Y-107485180D01*
X145458180Y-107492800D01*
X145478500Y-107505500D01*
X145498820Y-107515660D01*
X145519140Y-107523280D01*
X145542000Y-107530900D01*
X145572480Y-107535980D01*
X145610580Y-107543600D01*
X145661380Y-107553760D01*
X145669000Y-107553760D01*
X145717260Y-107561380D01*
X145750280Y-107566460D01*
X145778220Y-107569000D01*
X145798540Y-107566460D01*
X145816320Y-107563920D01*
X145834100Y-107556300D01*
X145839180Y-107553760D01*
X145872200Y-107533440D01*
X145907760Y-107505500D01*
X145938240Y-107472480D01*
X145961100Y-107439460D01*
X145963640Y-107434380D01*
X145976340Y-107408980D01*
X145983960Y-107381040D01*
X145989040Y-107353100D01*
X145991580Y-107317540D01*
X145991580Y-107276900D01*
X145989040Y-107228640D01*
X145983960Y-107170220D01*
X145976340Y-107101640D01*
X145966180Y-107020360D01*
X145958560Y-106974640D01*
X145943320Y-106862880D01*
X145923000Y-106763820D01*
X145905220Y-106674920D01*
X145884900Y-106601260D01*
X145864580Y-106535220D01*
X145839180Y-106479340D01*
X145813780Y-106428540D01*
X145785840Y-106387900D01*
X145760440Y-106357420D01*
X145714720Y-106316780D01*
X145663920Y-106288840D01*
X145608040Y-106273600D01*
X145554700Y-106268520D01*
X145526760Y-106271060D01*
X145508980Y-106276140D01*
X145491200Y-106286300D01*
X145491200Y-106288840D01*
X145465800Y-106304080D01*
X145430240Y-106311700D01*
X145422620Y-106314240D01*
X145387060Y-106319320D01*
X145354040Y-106334560D01*
X145321020Y-106357420D01*
X145282920Y-106390440D01*
X145260060Y-106413300D01*
X145234660Y-106438700D01*
X145219420Y-106456480D01*
X145211800Y-106471720D01*
X145206720Y-106484420D01*
X145206720Y-106499660D01*
X145206720Y-106504740D01*
X145206720Y-106504740D01*
X145206720Y-106504740D01*
G37*
X145206720Y-106504740D02*
X145206720Y-106542840D01*
X145206720Y-106588560D01*
X145209260Y-106644440D01*
X145211800Y-106702860D01*
X145211800Y-106766360D01*
X145214340Y-106829860D01*
X145216880Y-106893360D01*
X145219420Y-106951780D01*
X145221960Y-107005120D01*
X145224500Y-107048300D01*
X145227040Y-107083860D01*
X145229580Y-107101640D01*
X145237200Y-107157520D01*
X145252440Y-107208320D01*
X145262600Y-107241340D01*
X145277840Y-107274360D01*
X145290540Y-107307380D01*
X145295620Y-107322620D01*
X145295620Y-106949240D01*
X145295620Y-106911140D01*
X145298160Y-106862880D01*
X145298160Y-106824780D01*
X145300700Y-106748580D01*
X145305780Y-106682540D01*
X145310860Y-106629200D01*
X145318480Y-106586020D01*
X145326100Y-106547920D01*
X145338800Y-106517440D01*
X145346420Y-106502200D01*
X145366740Y-106469180D01*
X145389600Y-106448860D01*
X145422620Y-106436160D01*
X145463260Y-106433620D01*
X145463260Y-106433620D01*
X145491200Y-106433620D01*
X145508980Y-106428540D01*
X145521680Y-106420920D01*
X145526760Y-106415840D01*
X145547080Y-106398060D01*
X145569940Y-106395520D01*
X145592800Y-106405680D01*
X145620740Y-106428540D01*
X145628360Y-106436160D01*
X145666460Y-106484420D01*
X145702020Y-106545380D01*
X145732500Y-106619040D01*
X145760440Y-106700320D01*
X145783300Y-106791760D01*
X145796000Y-106852720D01*
X145803620Y-106911140D01*
X145811240Y-106974640D01*
X145816320Y-107040680D01*
X145821400Y-107106720D01*
X145823940Y-107170220D01*
X145826480Y-107228640D01*
X145826480Y-107281980D01*
X145823940Y-107325160D01*
X145818860Y-107355640D01*
X145818860Y-107360720D01*
X145803620Y-107393740D01*
X145778220Y-107424220D01*
X145750280Y-107444540D01*
X145737580Y-107447080D01*
X145717260Y-107452160D01*
X145702020Y-107454700D01*
X145684240Y-107454700D01*
X145661380Y-107452160D01*
X145653760Y-107449620D01*
X145602960Y-107434380D01*
X145549620Y-107408980D01*
X145498820Y-107378500D01*
X145455640Y-107342940D01*
X145420080Y-107304840D01*
X145412460Y-107294680D01*
X145399760Y-107271820D01*
X145384520Y-107238800D01*
X145366740Y-107198160D01*
X145348960Y-107154980D01*
X145331180Y-107111800D01*
X145315940Y-107071160D01*
X145305780Y-107040680D01*
X145305780Y-107038140D01*
X145303240Y-107020360D01*
X145298160Y-107000040D01*
X145298160Y-106977180D01*
X145295620Y-106949240D01*
X145295620Y-107322620D01*
X145300700Y-107337860D01*
X145303240Y-107342940D01*
X145323560Y-107375960D01*
X145354040Y-107414060D01*
X145394680Y-107449620D01*
X145442940Y-107485180D01*
X145458180Y-107492800D01*
X145478500Y-107505500D01*
X145498820Y-107515660D01*
X145519140Y-107523280D01*
X145542000Y-107530900D01*
X145572480Y-107535980D01*
X145610580Y-107543600D01*
X145661380Y-107553760D01*
X145669000Y-107553760D01*
X145717260Y-107561380D01*
X145750280Y-107566460D01*
X145778220Y-107569000D01*
X145798540Y-107566460D01*
X145816320Y-107563920D01*
X145834100Y-107556300D01*
X145839180Y-107553760D01*
X145872200Y-107533440D01*
X145907760Y-107505500D01*
X145938240Y-107472480D01*
X145961100Y-107439460D01*
X145963640Y-107434380D01*
X145976340Y-107408980D01*
X145983960Y-107381040D01*
X145989040Y-107353100D01*
X145991580Y-107317540D01*
X145991580Y-107276900D01*
X145989040Y-107228640D01*
X145983960Y-107170220D01*
X145976340Y-107101640D01*
X145966180Y-107020360D01*
X145958560Y-106974640D01*
X145943320Y-106862880D01*
X145923000Y-106763820D01*
X145905220Y-106674920D01*
X145884900Y-106601260D01*
X145864580Y-106535220D01*
X145839180Y-106479340D01*
X145813780Y-106428540D01*
X145785840Y-106387900D01*
X145760440Y-106357420D01*
X145714720Y-106316780D01*
X145663920Y-106288840D01*
X145608040Y-106273600D01*
X145554700Y-106268520D01*
X145526760Y-106271060D01*
X145508980Y-106276140D01*
X145491200Y-106286300D01*
X145491200Y-106288840D01*
X145465800Y-106304080D01*
X145430240Y-106311700D01*
X145422620Y-106314240D01*
X145387060Y-106319320D01*
X145354040Y-106334560D01*
X145321020Y-106357420D01*
X145282920Y-106390440D01*
X145260060Y-106413300D01*
X145234660Y-106438700D01*
X145219420Y-106456480D01*
X145211800Y-106471720D01*
X145206720Y-106484420D01*
X145206720Y-106499660D01*
X145206720Y-106504740D01*
X145206720Y-106504740D01*
G36*
X144289780Y-106786680D02*
X144297400Y-106804460D01*
X144310100Y-106819700D01*
X144345660Y-106847640D01*
X144383760Y-106862880D01*
X144429480Y-106865420D01*
X144480280Y-106855260D01*
X144492980Y-106852720D01*
X144538700Y-106840020D01*
X144581880Y-106837480D01*
X144619980Y-106847640D01*
X144660620Y-106870500D01*
X144703800Y-106906060D01*
X144734280Y-106934000D01*
X144797780Y-107007660D01*
X144848580Y-107078780D01*
X144889220Y-107154980D01*
X144919700Y-107233720D01*
X144942560Y-107322620D01*
X144955260Y-107388660D01*
X144962880Y-107439460D01*
X144970500Y-107475020D01*
X144978120Y-107500420D01*
X144985740Y-107513120D01*
X144993360Y-107518200D01*
X145003520Y-107520740D01*
X145026380Y-107523280D01*
X145056860Y-107528360D01*
X145074640Y-107528360D01*
X145148300Y-107533440D01*
X145143220Y-107495340D01*
X145140680Y-107480100D01*
X145140680Y-107449620D01*
X145138140Y-107408980D01*
X145135600Y-107360720D01*
X145135600Y-107302300D01*
X145133060Y-107241340D01*
X145130520Y-107175300D01*
X145130520Y-107154980D01*
X145130520Y-107088940D01*
X145127980Y-107025440D01*
X145125440Y-106969560D01*
X145122900Y-106918760D01*
X145120360Y-106878120D01*
X145120360Y-106847640D01*
X145117820Y-106829860D01*
X145117820Y-106827320D01*
X145105120Y-106794300D01*
X145087340Y-106776520D01*
X145067020Y-106771440D01*
X145046700Y-106779060D01*
X145031460Y-106789220D01*
X145011140Y-106814620D01*
X145000980Y-106840020D01*
X144998440Y-106867960D01*
X145000980Y-106890820D01*
X145000980Y-106916220D01*
X145000980Y-106946700D01*
X144998440Y-106977180D01*
X144995900Y-107010200D01*
X144990820Y-107035600D01*
X144985740Y-107053380D01*
X144980660Y-107061000D01*
X144967960Y-107055920D01*
X144950180Y-107040680D01*
X144929860Y-107020360D01*
X144904460Y-106994960D01*
X144884140Y-106969560D01*
X144863820Y-106944160D01*
X144851120Y-106926380D01*
X144851120Y-106923840D01*
X144828260Y-106885740D01*
X144797780Y-106847640D01*
X144757140Y-106809540D01*
X144711420Y-106773980D01*
X144665700Y-106743500D01*
X144622520Y-106723180D01*
X144614900Y-106720640D01*
X144574260Y-106713020D01*
X144526000Y-106710480D01*
X144470120Y-106715560D01*
X144411700Y-106725720D01*
X144388840Y-106733340D01*
X144343120Y-106746040D01*
X144312640Y-106758740D01*
X144294860Y-106771440D01*
X144289780Y-106786680D01*
X144289780Y-106786680D01*
X144289780Y-106786680D01*
G37*
X144289780Y-106786680D02*
X144297400Y-106804460D01*
X144310100Y-106819700D01*
X144345660Y-106847640D01*
X144383760Y-106862880D01*
X144429480Y-106865420D01*
X144480280Y-106855260D01*
X144492980Y-106852720D01*
X144538700Y-106840020D01*
X144581880Y-106837480D01*
X144619980Y-106847640D01*
X144660620Y-106870500D01*
X144703800Y-106906060D01*
X144734280Y-106934000D01*
X144797780Y-107007660D01*
X144848580Y-107078780D01*
X144889220Y-107154980D01*
X144919700Y-107233720D01*
X144942560Y-107322620D01*
X144955260Y-107388660D01*
X144962880Y-107439460D01*
X144970500Y-107475020D01*
X144978120Y-107500420D01*
X144985740Y-107513120D01*
X144993360Y-107518200D01*
X145003520Y-107520740D01*
X145026380Y-107523280D01*
X145056860Y-107528360D01*
X145074640Y-107528360D01*
X145148300Y-107533440D01*
X145143220Y-107495340D01*
X145140680Y-107480100D01*
X145140680Y-107449620D01*
X145138140Y-107408980D01*
X145135600Y-107360720D01*
X145135600Y-107302300D01*
X145133060Y-107241340D01*
X145130520Y-107175300D01*
X145130520Y-107154980D01*
X145130520Y-107088940D01*
X145127980Y-107025440D01*
X145125440Y-106969560D01*
X145122900Y-106918760D01*
X145120360Y-106878120D01*
X145120360Y-106847640D01*
X145117820Y-106829860D01*
X145117820Y-106827320D01*
X145105120Y-106794300D01*
X145087340Y-106776520D01*
X145067020Y-106771440D01*
X145046700Y-106779060D01*
X145031460Y-106789220D01*
X145011140Y-106814620D01*
X145000980Y-106840020D01*
X144998440Y-106867960D01*
X145000980Y-106890820D01*
X145000980Y-106916220D01*
X145000980Y-106946700D01*
X144998440Y-106977180D01*
X144995900Y-107010200D01*
X144990820Y-107035600D01*
X144985740Y-107053380D01*
X144980660Y-107061000D01*
X144967960Y-107055920D01*
X144950180Y-107040680D01*
X144929860Y-107020360D01*
X144904460Y-106994960D01*
X144884140Y-106969560D01*
X144863820Y-106944160D01*
X144851120Y-106926380D01*
X144851120Y-106923840D01*
X144828260Y-106885740D01*
X144797780Y-106847640D01*
X144757140Y-106809540D01*
X144711420Y-106773980D01*
X144665700Y-106743500D01*
X144622520Y-106723180D01*
X144614900Y-106720640D01*
X144574260Y-106713020D01*
X144526000Y-106710480D01*
X144470120Y-106715560D01*
X144411700Y-106725720D01*
X144388840Y-106733340D01*
X144343120Y-106746040D01*
X144312640Y-106758740D01*
X144294860Y-106771440D01*
X144289780Y-106786680D01*
X144289780Y-106786680D01*
G36*
X143548100Y-107386120D02*
X143548100Y-107401360D01*
X143555720Y-107411520D01*
X143573500Y-107424220D01*
X143576040Y-107426760D01*
X143611600Y-107439460D01*
X143657320Y-107452160D01*
X143710660Y-107462320D01*
X143769080Y-107469940D01*
X143830040Y-107475020D01*
X143891000Y-107477560D01*
X143946880Y-107475020D01*
X143992600Y-107469940D01*
X144007840Y-107467400D01*
X144066260Y-107449620D01*
X144119600Y-107424220D01*
X144165320Y-107393740D01*
X144198340Y-107360720D01*
X144213580Y-107335320D01*
X144221200Y-107312460D01*
X144223740Y-107279440D01*
X144226280Y-107246420D01*
X144228820Y-107208320D01*
X144226280Y-107170220D01*
X144223740Y-107137200D01*
X144218660Y-107111800D01*
X144211040Y-107094020D01*
X144203420Y-107091480D01*
X144198340Y-107083860D01*
X144190720Y-107068620D01*
X144185640Y-107045760D01*
X144183100Y-107025440D01*
X144183100Y-107015280D01*
X144178020Y-106994960D01*
X144167860Y-106964480D01*
X144150080Y-106934000D01*
X144132300Y-106900980D01*
X144111980Y-106875580D01*
X144109440Y-106875580D01*
X144086580Y-106852720D01*
X144056100Y-106827320D01*
X144018000Y-106801920D01*
X143982440Y-106779060D01*
X143949420Y-106763820D01*
X143936720Y-106758740D01*
X143916400Y-106756200D01*
X143888460Y-106756200D01*
X143852900Y-106756200D01*
X143830040Y-106758740D01*
X143776700Y-106761280D01*
X143736060Y-106766360D01*
X143705580Y-106771440D01*
X143682720Y-106781600D01*
X143664940Y-106791760D01*
X143657320Y-106799380D01*
X143629380Y-106829860D01*
X143614140Y-106865420D01*
X143609060Y-106908600D01*
X143609060Y-106928920D01*
X143616680Y-106989880D01*
X143637000Y-107038140D01*
X143667480Y-107076240D01*
X143705580Y-107106720D01*
X143705580Y-106900980D01*
X143718280Y-106878120D01*
X143741140Y-106857800D01*
X143771620Y-106845100D01*
X143807180Y-106837480D01*
X143847820Y-106840020D01*
X143863060Y-106845100D01*
X143896080Y-106860340D01*
X143929100Y-106888280D01*
X143962120Y-106923840D01*
X143992600Y-106967020D01*
X144015460Y-107012740D01*
X144018000Y-107022900D01*
X144025620Y-107048300D01*
X144028160Y-107066080D01*
X144023080Y-107078780D01*
X144010380Y-107086400D01*
X143984980Y-107086400D01*
X143949420Y-107081320D01*
X143901160Y-107071160D01*
X143878300Y-107068620D01*
X143845280Y-107058460D01*
X143814800Y-107048300D01*
X143791940Y-107040680D01*
X143784320Y-107035600D01*
X143764000Y-107017820D01*
X143743680Y-106992420D01*
X143723360Y-106964480D01*
X143710660Y-106939080D01*
X143708120Y-106928920D01*
X143705580Y-106900980D01*
X143705580Y-107106720D01*
X143708120Y-107106720D01*
X143738600Y-107119420D01*
X143758920Y-107127040D01*
X143779240Y-107134660D01*
X143799560Y-107139740D01*
X143827500Y-107144820D01*
X143863060Y-107152440D01*
X143908780Y-107160060D01*
X143926560Y-107162600D01*
X143979900Y-107172760D01*
X144020540Y-107182920D01*
X144048480Y-107198160D01*
X144063720Y-107213400D01*
X144066260Y-107233720D01*
X144058640Y-107256580D01*
X144058640Y-107259120D01*
X144035780Y-107289600D01*
X144000220Y-107317540D01*
X143954500Y-107342940D01*
X143906240Y-107358180D01*
X143850360Y-107365800D01*
X143786860Y-107365800D01*
X143713200Y-107355640D01*
X143697960Y-107353100D01*
X143659860Y-107345480D01*
X143634460Y-107340400D01*
X143616680Y-107340400D01*
X143603980Y-107340400D01*
X143591280Y-107342940D01*
X143578580Y-107350560D01*
X143560800Y-107360720D01*
X143550640Y-107375960D01*
X143548100Y-107386120D01*
X143548100Y-107386120D01*
X143548100Y-107386120D01*
G37*
X143548100Y-107386120D02*
X143548100Y-107401360D01*
X143555720Y-107411520D01*
X143573500Y-107424220D01*
X143576040Y-107426760D01*
X143611600Y-107439460D01*
X143657320Y-107452160D01*
X143710660Y-107462320D01*
X143769080Y-107469940D01*
X143830040Y-107475020D01*
X143891000Y-107477560D01*
X143946880Y-107475020D01*
X143992600Y-107469940D01*
X144007840Y-107467400D01*
X144066260Y-107449620D01*
X144119600Y-107424220D01*
X144165320Y-107393740D01*
X144198340Y-107360720D01*
X144213580Y-107335320D01*
X144221200Y-107312460D01*
X144223740Y-107279440D01*
X144226280Y-107246420D01*
X144228820Y-107208320D01*
X144226280Y-107170220D01*
X144223740Y-107137200D01*
X144218660Y-107111800D01*
X144211040Y-107094020D01*
X144203420Y-107091480D01*
X144198340Y-107083860D01*
X144190720Y-107068620D01*
X144185640Y-107045760D01*
X144183100Y-107025440D01*
X144183100Y-107015280D01*
X144178020Y-106994960D01*
X144167860Y-106964480D01*
X144150080Y-106934000D01*
X144132300Y-106900980D01*
X144111980Y-106875580D01*
X144109440Y-106875580D01*
X144086580Y-106852720D01*
X144056100Y-106827320D01*
X144018000Y-106801920D01*
X143982440Y-106779060D01*
X143949420Y-106763820D01*
X143936720Y-106758740D01*
X143916400Y-106756200D01*
X143888460Y-106756200D01*
X143852900Y-106756200D01*
X143830040Y-106758740D01*
X143776700Y-106761280D01*
X143736060Y-106766360D01*
X143705580Y-106771440D01*
X143682720Y-106781600D01*
X143664940Y-106791760D01*
X143657320Y-106799380D01*
X143629380Y-106829860D01*
X143614140Y-106865420D01*
X143609060Y-106908600D01*
X143609060Y-106928920D01*
X143616680Y-106989880D01*
X143637000Y-107038140D01*
X143667480Y-107076240D01*
X143705580Y-107106720D01*
X143705580Y-106900980D01*
X143718280Y-106878120D01*
X143741140Y-106857800D01*
X143771620Y-106845100D01*
X143807180Y-106837480D01*
X143847820Y-106840020D01*
X143863060Y-106845100D01*
X143896080Y-106860340D01*
X143929100Y-106888280D01*
X143962120Y-106923840D01*
X143992600Y-106967020D01*
X144015460Y-107012740D01*
X144018000Y-107022900D01*
X144025620Y-107048300D01*
X144028160Y-107066080D01*
X144023080Y-107078780D01*
X144010380Y-107086400D01*
X143984980Y-107086400D01*
X143949420Y-107081320D01*
X143901160Y-107071160D01*
X143878300Y-107068620D01*
X143845280Y-107058460D01*
X143814800Y-107048300D01*
X143791940Y-107040680D01*
X143784320Y-107035600D01*
X143764000Y-107017820D01*
X143743680Y-106992420D01*
X143723360Y-106964480D01*
X143710660Y-106939080D01*
X143708120Y-106928920D01*
X143705580Y-106900980D01*
X143705580Y-107106720D01*
X143708120Y-107106720D01*
X143738600Y-107119420D01*
X143758920Y-107127040D01*
X143779240Y-107134660D01*
X143799560Y-107139740D01*
X143827500Y-107144820D01*
X143863060Y-107152440D01*
X143908780Y-107160060D01*
X143926560Y-107162600D01*
X143979900Y-107172760D01*
X144020540Y-107182920D01*
X144048480Y-107198160D01*
X144063720Y-107213400D01*
X144066260Y-107233720D01*
X144058640Y-107256580D01*
X144058640Y-107259120D01*
X144035780Y-107289600D01*
X144000220Y-107317540D01*
X143954500Y-107342940D01*
X143906240Y-107358180D01*
X143850360Y-107365800D01*
X143786860Y-107365800D01*
X143713200Y-107355640D01*
X143697960Y-107353100D01*
X143659860Y-107345480D01*
X143634460Y-107340400D01*
X143616680Y-107340400D01*
X143603980Y-107340400D01*
X143591280Y-107342940D01*
X143578580Y-107350560D01*
X143560800Y-107360720D01*
X143550640Y-107375960D01*
X143548100Y-107386120D01*
X143548100Y-107386120D01*
G36*
X142120620Y-106984800D02*
X142123160Y-107035600D01*
X142123160Y-107083860D01*
X142125700Y-107129580D01*
X142128240Y-107170220D01*
X142133320Y-107200700D01*
X142135860Y-107213400D01*
X142148560Y-107241340D01*
X142179040Y-107276900D01*
X142191740Y-107289600D01*
X142212060Y-107307380D01*
X142212060Y-106946700D01*
X142212060Y-106900980D01*
X142214600Y-106865420D01*
X142217140Y-106862880D01*
X142229840Y-106834940D01*
X142247620Y-106812080D01*
X142270480Y-106796840D01*
X142288260Y-106791760D01*
X142303500Y-106796840D01*
X142323820Y-106807000D01*
X142349220Y-106824780D01*
X142349220Y-106824780D01*
X142372080Y-106845100D01*
X142400020Y-106867960D01*
X142427960Y-106895900D01*
X142458440Y-106923840D01*
X142483840Y-106951780D01*
X142504160Y-106974640D01*
X142519400Y-106994960D01*
X142524480Y-107005120D01*
X142527020Y-107015280D01*
X142542260Y-107022900D01*
X142567660Y-107025440D01*
X142585440Y-107025440D01*
X142623540Y-107027980D01*
X142633700Y-107061000D01*
X142638780Y-107081320D01*
X142643860Y-107114340D01*
X142648940Y-107149900D01*
X142651480Y-107167680D01*
X142654020Y-107218480D01*
X142654020Y-107264200D01*
X142648940Y-107299760D01*
X142641320Y-107327700D01*
X142631160Y-107337860D01*
X142608300Y-107350560D01*
X142577820Y-107355640D01*
X142534640Y-107353100D01*
X142483840Y-107342940D01*
X142440660Y-107332780D01*
X142384780Y-107312460D01*
X142341600Y-107292140D01*
X142306040Y-107264200D01*
X142280640Y-107231180D01*
X142257780Y-107190540D01*
X142245080Y-107152440D01*
X142232380Y-107104180D01*
X142222220Y-107050840D01*
X142214600Y-106997500D01*
X142212060Y-106946700D01*
X142212060Y-107307380D01*
X142234920Y-107327700D01*
X142288260Y-107360720D01*
X142351760Y-107391200D01*
X142425420Y-107416600D01*
X142511780Y-107442000D01*
X142582900Y-107457240D01*
X142621000Y-107464860D01*
X142654020Y-107472480D01*
X142679420Y-107477560D01*
X142694660Y-107480100D01*
X142697200Y-107480100D01*
X142707360Y-107472480D01*
X142720060Y-107459780D01*
X142732760Y-107444540D01*
X142753080Y-107414060D01*
X142765780Y-107378500D01*
X142773400Y-107337860D01*
X142778480Y-107287060D01*
X142778480Y-107266740D01*
X142773400Y-107185460D01*
X142763240Y-107109260D01*
X142745460Y-107035600D01*
X142717520Y-106959400D01*
X142684500Y-106885740D01*
X142669260Y-106852720D01*
X142654020Y-106822240D01*
X142643860Y-106799380D01*
X142638780Y-106786680D01*
X142628620Y-106768900D01*
X142605760Y-106756200D01*
X142580360Y-106751120D01*
X142557500Y-106756200D01*
X142537180Y-106766360D01*
X142537180Y-106766360D01*
X142529560Y-106781600D01*
X142524480Y-106801920D01*
X142524480Y-106804460D01*
X142519400Y-106824780D01*
X142506700Y-106834940D01*
X142491460Y-106829860D01*
X142466060Y-106814620D01*
X142463520Y-106812080D01*
X142405100Y-106768900D01*
X142354300Y-106738420D01*
X142308580Y-106718100D01*
X142267940Y-106710480D01*
X142232380Y-106713020D01*
X142196820Y-106728260D01*
X142186660Y-106733340D01*
X142163800Y-106753660D01*
X142148560Y-106781600D01*
X142135860Y-106817160D01*
X142128240Y-106865420D01*
X142123160Y-106898440D01*
X142123160Y-106939080D01*
X142120620Y-106984800D01*
X142120620Y-106984800D01*
X142120620Y-106984800D01*
G37*
X142120620Y-106984800D02*
X142123160Y-107035600D01*
X142123160Y-107083860D01*
X142125700Y-107129580D01*
X142128240Y-107170220D01*
X142133320Y-107200700D01*
X142135860Y-107213400D01*
X142148560Y-107241340D01*
X142179040Y-107276900D01*
X142191740Y-107289600D01*
X142212060Y-107307380D01*
X142212060Y-106946700D01*
X142212060Y-106900980D01*
X142214600Y-106865420D01*
X142217140Y-106862880D01*
X142229840Y-106834940D01*
X142247620Y-106812080D01*
X142270480Y-106796840D01*
X142288260Y-106791760D01*
X142303500Y-106796840D01*
X142323820Y-106807000D01*
X142349220Y-106824780D01*
X142349220Y-106824780D01*
X142372080Y-106845100D01*
X142400020Y-106867960D01*
X142427960Y-106895900D01*
X142458440Y-106923840D01*
X142483840Y-106951780D01*
X142504160Y-106974640D01*
X142519400Y-106994960D01*
X142524480Y-107005120D01*
X142527020Y-107015280D01*
X142542260Y-107022900D01*
X142567660Y-107025440D01*
X142585440Y-107025440D01*
X142623540Y-107027980D01*
X142633700Y-107061000D01*
X142638780Y-107081320D01*
X142643860Y-107114340D01*
X142648940Y-107149900D01*
X142651480Y-107167680D01*
X142654020Y-107218480D01*
X142654020Y-107264200D01*
X142648940Y-107299760D01*
X142641320Y-107327700D01*
X142631160Y-107337860D01*
X142608300Y-107350560D01*
X142577820Y-107355640D01*
X142534640Y-107353100D01*
X142483840Y-107342940D01*
X142440660Y-107332780D01*
X142384780Y-107312460D01*
X142341600Y-107292140D01*
X142306040Y-107264200D01*
X142280640Y-107231180D01*
X142257780Y-107190540D01*
X142245080Y-107152440D01*
X142232380Y-107104180D01*
X142222220Y-107050840D01*
X142214600Y-106997500D01*
X142212060Y-106946700D01*
X142212060Y-107307380D01*
X142234920Y-107327700D01*
X142288260Y-107360720D01*
X142351760Y-107391200D01*
X142425420Y-107416600D01*
X142511780Y-107442000D01*
X142582900Y-107457240D01*
X142621000Y-107464860D01*
X142654020Y-107472480D01*
X142679420Y-107477560D01*
X142694660Y-107480100D01*
X142697200Y-107480100D01*
X142707360Y-107472480D01*
X142720060Y-107459780D01*
X142732760Y-107444540D01*
X142753080Y-107414060D01*
X142765780Y-107378500D01*
X142773400Y-107337860D01*
X142778480Y-107287060D01*
X142778480Y-107266740D01*
X142773400Y-107185460D01*
X142763240Y-107109260D01*
X142745460Y-107035600D01*
X142717520Y-106959400D01*
X142684500Y-106885740D01*
X142669260Y-106852720D01*
X142654020Y-106822240D01*
X142643860Y-106799380D01*
X142638780Y-106786680D01*
X142628620Y-106768900D01*
X142605760Y-106756200D01*
X142580360Y-106751120D01*
X142557500Y-106756200D01*
X142537180Y-106766360D01*
X142537180Y-106766360D01*
X142529560Y-106781600D01*
X142524480Y-106801920D01*
X142524480Y-106804460D01*
X142519400Y-106824780D01*
X142506700Y-106834940D01*
X142491460Y-106829860D01*
X142466060Y-106814620D01*
X142463520Y-106812080D01*
X142405100Y-106768900D01*
X142354300Y-106738420D01*
X142308580Y-106718100D01*
X142267940Y-106710480D01*
X142232380Y-106713020D01*
X142196820Y-106728260D01*
X142186660Y-106733340D01*
X142163800Y-106753660D01*
X142148560Y-106781600D01*
X142135860Y-106817160D01*
X142128240Y-106865420D01*
X142123160Y-106898440D01*
X142123160Y-106939080D01*
X142120620Y-106984800D01*
X142120620Y-106984800D01*
G36*
X141239240Y-105730040D02*
X141244320Y-105737660D01*
X141249400Y-105742740D01*
X141269720Y-105745280D01*
X141297660Y-105745280D01*
X141333220Y-105742740D01*
X141368780Y-105740200D01*
X141389100Y-105735120D01*
X141429740Y-105722420D01*
X141467840Y-105704640D01*
X141500860Y-105686860D01*
X141518640Y-105671620D01*
X141526260Y-105661460D01*
X141531340Y-105648760D01*
X141533880Y-105628440D01*
X141533880Y-105597960D01*
X141533880Y-105587800D01*
X141531340Y-105547160D01*
X141528800Y-105516680D01*
X141521180Y-105486200D01*
X141511020Y-105463340D01*
X141490700Y-105397300D01*
X141472920Y-105336340D01*
X141462760Y-105283000D01*
X141455140Y-105234740D01*
X141457680Y-105194100D01*
X141462760Y-105166160D01*
X141475460Y-105148380D01*
X141480540Y-105145840D01*
X141495780Y-105145840D01*
X141516100Y-105153460D01*
X141541500Y-105171240D01*
X141574520Y-105199180D01*
X141602460Y-105224580D01*
X141671040Y-105295700D01*
X141721840Y-105369360D01*
X141762480Y-105440480D01*
X141787880Y-105516680D01*
X141795500Y-105557320D01*
X141803120Y-105592880D01*
X141808200Y-105615740D01*
X141818360Y-105628440D01*
X141833600Y-105633520D01*
X141859000Y-105630980D01*
X141884400Y-105625900D01*
X141925040Y-105618280D01*
X141927580Y-105537000D01*
X141932660Y-105394760D01*
X141950440Y-105242360D01*
X141960600Y-105176320D01*
X141965680Y-105138220D01*
X141970760Y-105102660D01*
X141975840Y-105077260D01*
X141978380Y-105062020D01*
X141978380Y-105059480D01*
X141973300Y-105051860D01*
X141958060Y-105051860D01*
X141935200Y-105054400D01*
X141917420Y-105062020D01*
X141904720Y-105072180D01*
X141894560Y-105082340D01*
X141884400Y-105100120D01*
X141874240Y-105125520D01*
X141864080Y-105161080D01*
X141851380Y-105209340D01*
X141848840Y-105224580D01*
X141838680Y-105262680D01*
X141831060Y-105295700D01*
X141823440Y-105321100D01*
X141815820Y-105333800D01*
X141815820Y-105336340D01*
X141808200Y-105333800D01*
X141790420Y-105321100D01*
X141759940Y-105295700D01*
X141721840Y-105262680D01*
X141693900Y-105234740D01*
X141638020Y-105181400D01*
X141592300Y-105140760D01*
X141556740Y-105107740D01*
X141526260Y-105084880D01*
X141500860Y-105069640D01*
X141483080Y-105062020D01*
X141467840Y-105059480D01*
X141434820Y-105064560D01*
X141401800Y-105082340D01*
X141376400Y-105105200D01*
X141368780Y-105115360D01*
X141363700Y-105125520D01*
X141358620Y-105138220D01*
X141358620Y-105156000D01*
X141358620Y-105181400D01*
X141358620Y-105219500D01*
X141361160Y-105227120D01*
X141361160Y-105267760D01*
X141363700Y-105298240D01*
X141368780Y-105323640D01*
X141373860Y-105346500D01*
X141384020Y-105371900D01*
X141389100Y-105392220D01*
X141411960Y-105450640D01*
X141424660Y-105506520D01*
X141432280Y-105554780D01*
X141432280Y-105595420D01*
X141424660Y-105620820D01*
X141409420Y-105641140D01*
X141378940Y-105661460D01*
X141333220Y-105676700D01*
X141295120Y-105689400D01*
X141264640Y-105704640D01*
X141246860Y-105717340D01*
X141239240Y-105730040D01*
X141239240Y-105730040D01*
X141239240Y-105730040D01*
G37*
X141239240Y-105730040D02*
X141244320Y-105737660D01*
X141249400Y-105742740D01*
X141269720Y-105745280D01*
X141297660Y-105745280D01*
X141333220Y-105742740D01*
X141368780Y-105740200D01*
X141389100Y-105735120D01*
X141429740Y-105722420D01*
X141467840Y-105704640D01*
X141500860Y-105686860D01*
X141518640Y-105671620D01*
X141526260Y-105661460D01*
X141531340Y-105648760D01*
X141533880Y-105628440D01*
X141533880Y-105597960D01*
X141533880Y-105587800D01*
X141531340Y-105547160D01*
X141528800Y-105516680D01*
X141521180Y-105486200D01*
X141511020Y-105463340D01*
X141490700Y-105397300D01*
X141472920Y-105336340D01*
X141462760Y-105283000D01*
X141455140Y-105234740D01*
X141457680Y-105194100D01*
X141462760Y-105166160D01*
X141475460Y-105148380D01*
X141480540Y-105145840D01*
X141495780Y-105145840D01*
X141516100Y-105153460D01*
X141541500Y-105171240D01*
X141574520Y-105199180D01*
X141602460Y-105224580D01*
X141671040Y-105295700D01*
X141721840Y-105369360D01*
X141762480Y-105440480D01*
X141787880Y-105516680D01*
X141795500Y-105557320D01*
X141803120Y-105592880D01*
X141808200Y-105615740D01*
X141818360Y-105628440D01*
X141833600Y-105633520D01*
X141859000Y-105630980D01*
X141884400Y-105625900D01*
X141925040Y-105618280D01*
X141927580Y-105537000D01*
X141932660Y-105394760D01*
X141950440Y-105242360D01*
X141960600Y-105176320D01*
X141965680Y-105138220D01*
X141970760Y-105102660D01*
X141975840Y-105077260D01*
X141978380Y-105062020D01*
X141978380Y-105059480D01*
X141973300Y-105051860D01*
X141958060Y-105051860D01*
X141935200Y-105054400D01*
X141917420Y-105062020D01*
X141904720Y-105072180D01*
X141894560Y-105082340D01*
X141884400Y-105100120D01*
X141874240Y-105125520D01*
X141864080Y-105161080D01*
X141851380Y-105209340D01*
X141848840Y-105224580D01*
X141838680Y-105262680D01*
X141831060Y-105295700D01*
X141823440Y-105321100D01*
X141815820Y-105333800D01*
X141815820Y-105336340D01*
X141808200Y-105333800D01*
X141790420Y-105321100D01*
X141759940Y-105295700D01*
X141721840Y-105262680D01*
X141693900Y-105234740D01*
X141638020Y-105181400D01*
X141592300Y-105140760D01*
X141556740Y-105107740D01*
X141526260Y-105084880D01*
X141500860Y-105069640D01*
X141483080Y-105062020D01*
X141467840Y-105059480D01*
X141434820Y-105064560D01*
X141401800Y-105082340D01*
X141376400Y-105105200D01*
X141368780Y-105115360D01*
X141363700Y-105125520D01*
X141358620Y-105138220D01*
X141358620Y-105156000D01*
X141358620Y-105181400D01*
X141358620Y-105219500D01*
X141361160Y-105227120D01*
X141361160Y-105267760D01*
X141363700Y-105298240D01*
X141368780Y-105323640D01*
X141373860Y-105346500D01*
X141384020Y-105371900D01*
X141389100Y-105392220D01*
X141411960Y-105450640D01*
X141424660Y-105506520D01*
X141432280Y-105554780D01*
X141432280Y-105595420D01*
X141424660Y-105620820D01*
X141409420Y-105641140D01*
X141378940Y-105661460D01*
X141333220Y-105676700D01*
X141295120Y-105689400D01*
X141264640Y-105704640D01*
X141246860Y-105717340D01*
X141239240Y-105730040D01*
X141239240Y-105730040D01*
G36*
X144208500Y-105709720D02*
X144208500Y-105717340D01*
X144218660Y-105722420D01*
X144241520Y-105722420D01*
X144272000Y-105722420D01*
X144310100Y-105719880D01*
X144350740Y-105712260D01*
X144360900Y-105712260D01*
X144404080Y-105702100D01*
X144447260Y-105686860D01*
X144472660Y-105676700D01*
X144498060Y-105666540D01*
X144500600Y-105664000D01*
X144500600Y-105267760D01*
X144500600Y-105229660D01*
X144500600Y-105201720D01*
X144503140Y-105183940D01*
X144505680Y-105171240D01*
X144508220Y-105163620D01*
X144513300Y-105158540D01*
X144520920Y-105150920D01*
X144528540Y-105150920D01*
X144538700Y-105161080D01*
X144553940Y-105176320D01*
X144574260Y-105201720D01*
X144594580Y-105232200D01*
X144612360Y-105260140D01*
X144627600Y-105288080D01*
X144647920Y-105326180D01*
X144668240Y-105361740D01*
X144678400Y-105379520D01*
X144703800Y-105422700D01*
X144719040Y-105455720D01*
X144729200Y-105483660D01*
X144734280Y-105509060D01*
X144734280Y-105534460D01*
X144734280Y-105537000D01*
X144731740Y-105557320D01*
X144724120Y-105570020D01*
X144708880Y-105580180D01*
X144686020Y-105585260D01*
X144653000Y-105587800D01*
X144614900Y-105590340D01*
X144576800Y-105587800D01*
X144548860Y-105587800D01*
X144533620Y-105582720D01*
X144526000Y-105577640D01*
X144518380Y-105559860D01*
X144513300Y-105529380D01*
X144508220Y-105481120D01*
X144503140Y-105420160D01*
X144500600Y-105343960D01*
X144500600Y-105318560D01*
X144500600Y-105267760D01*
X144500600Y-105664000D01*
X144515840Y-105658920D01*
X144528540Y-105658920D01*
X144538700Y-105661460D01*
X144566640Y-105671620D01*
X144597120Y-105674160D01*
X144637760Y-105676700D01*
X144686020Y-105674160D01*
X144708880Y-105671620D01*
X144762220Y-105666540D01*
X144800320Y-105661460D01*
X144825720Y-105653840D01*
X144846040Y-105641140D01*
X144856200Y-105625900D01*
X144861280Y-105605580D01*
X144861280Y-105575100D01*
X144861280Y-105564940D01*
X144861280Y-105529380D01*
X144856200Y-105496360D01*
X144846040Y-105463340D01*
X144830800Y-105427780D01*
X144810480Y-105384600D01*
X144782540Y-105336340D01*
X144759680Y-105300780D01*
X144739360Y-105267760D01*
X144719040Y-105234740D01*
X144701260Y-105204260D01*
X144696180Y-105199180D01*
X144670780Y-105158540D01*
X144632680Y-105120440D01*
X144592040Y-105084880D01*
X144553940Y-105056940D01*
X144541240Y-105049320D01*
X144498060Y-105034080D01*
X144462500Y-105029000D01*
X144429480Y-105036620D01*
X144406620Y-105056940D01*
X144391380Y-105084880D01*
X144388840Y-105097580D01*
X144386300Y-105115360D01*
X144386300Y-105143300D01*
X144388840Y-105181400D01*
X144391380Y-105227120D01*
X144393920Y-105277920D01*
X144393920Y-105293160D01*
X144396460Y-105356660D01*
X144399000Y-105407460D01*
X144399000Y-105445560D01*
X144399000Y-105476040D01*
X144393920Y-105498900D01*
X144388840Y-105514140D01*
X144381220Y-105524300D01*
X144373600Y-105534460D01*
X144358360Y-105552240D01*
X144345660Y-105575100D01*
X144345660Y-105575100D01*
X144335500Y-105597960D01*
X144315180Y-105620820D01*
X144289780Y-105641140D01*
X144264380Y-105653840D01*
X144254220Y-105656380D01*
X144241520Y-105664000D01*
X144226280Y-105679240D01*
X144216120Y-105697020D01*
X144208500Y-105709720D01*
X144208500Y-105709720D01*
X144208500Y-105709720D01*
G37*
X144208500Y-105709720D02*
X144208500Y-105717340D01*
X144218660Y-105722420D01*
X144241520Y-105722420D01*
X144272000Y-105722420D01*
X144310100Y-105719880D01*
X144350740Y-105712260D01*
X144360900Y-105712260D01*
X144404080Y-105702100D01*
X144447260Y-105686860D01*
X144472660Y-105676700D01*
X144498060Y-105666540D01*
X144500600Y-105664000D01*
X144500600Y-105267760D01*
X144500600Y-105229660D01*
X144500600Y-105201720D01*
X144503140Y-105183940D01*
X144505680Y-105171240D01*
X144508220Y-105163620D01*
X144513300Y-105158540D01*
X144520920Y-105150920D01*
X144528540Y-105150920D01*
X144538700Y-105161080D01*
X144553940Y-105176320D01*
X144574260Y-105201720D01*
X144594580Y-105232200D01*
X144612360Y-105260140D01*
X144627600Y-105288080D01*
X144647920Y-105326180D01*
X144668240Y-105361740D01*
X144678400Y-105379520D01*
X144703800Y-105422700D01*
X144719040Y-105455720D01*
X144729200Y-105483660D01*
X144734280Y-105509060D01*
X144734280Y-105534460D01*
X144734280Y-105537000D01*
X144731740Y-105557320D01*
X144724120Y-105570020D01*
X144708880Y-105580180D01*
X144686020Y-105585260D01*
X144653000Y-105587800D01*
X144614900Y-105590340D01*
X144576800Y-105587800D01*
X144548860Y-105587800D01*
X144533620Y-105582720D01*
X144526000Y-105577640D01*
X144518380Y-105559860D01*
X144513300Y-105529380D01*
X144508220Y-105481120D01*
X144503140Y-105420160D01*
X144500600Y-105343960D01*
X144500600Y-105318560D01*
X144500600Y-105267760D01*
X144500600Y-105664000D01*
X144515840Y-105658920D01*
X144528540Y-105658920D01*
X144538700Y-105661460D01*
X144566640Y-105671620D01*
X144597120Y-105674160D01*
X144637760Y-105676700D01*
X144686020Y-105674160D01*
X144708880Y-105671620D01*
X144762220Y-105666540D01*
X144800320Y-105661460D01*
X144825720Y-105653840D01*
X144846040Y-105641140D01*
X144856200Y-105625900D01*
X144861280Y-105605580D01*
X144861280Y-105575100D01*
X144861280Y-105564940D01*
X144861280Y-105529380D01*
X144856200Y-105496360D01*
X144846040Y-105463340D01*
X144830800Y-105427780D01*
X144810480Y-105384600D01*
X144782540Y-105336340D01*
X144759680Y-105300780D01*
X144739360Y-105267760D01*
X144719040Y-105234740D01*
X144701260Y-105204260D01*
X144696180Y-105199180D01*
X144670780Y-105158540D01*
X144632680Y-105120440D01*
X144592040Y-105084880D01*
X144553940Y-105056940D01*
X144541240Y-105049320D01*
X144498060Y-105034080D01*
X144462500Y-105029000D01*
X144429480Y-105036620D01*
X144406620Y-105056940D01*
X144391380Y-105084880D01*
X144388840Y-105097580D01*
X144386300Y-105115360D01*
X144386300Y-105143300D01*
X144388840Y-105181400D01*
X144391380Y-105227120D01*
X144393920Y-105277920D01*
X144393920Y-105293160D01*
X144396460Y-105356660D01*
X144399000Y-105407460D01*
X144399000Y-105445560D01*
X144399000Y-105476040D01*
X144393920Y-105498900D01*
X144388840Y-105514140D01*
X144381220Y-105524300D01*
X144373600Y-105534460D01*
X144358360Y-105552240D01*
X144345660Y-105575100D01*
X144345660Y-105575100D01*
X144335500Y-105597960D01*
X144315180Y-105620820D01*
X144289780Y-105641140D01*
X144264380Y-105653840D01*
X144254220Y-105656380D01*
X144241520Y-105664000D01*
X144226280Y-105679240D01*
X144216120Y-105697020D01*
X144208500Y-105709720D01*
X144208500Y-105709720D01*
G36*
X144909540Y-105524300D02*
X144912080Y-105537000D01*
X144912080Y-105539540D01*
X144922240Y-105542080D01*
X144945100Y-105544620D01*
X144970500Y-105549700D01*
X144973040Y-105549700D01*
X145023840Y-105554780D01*
X145028920Y-105506520D01*
X145031460Y-105486200D01*
X145034000Y-105453180D01*
X145036540Y-105410000D01*
X145041620Y-105361740D01*
X145044160Y-105305860D01*
X145049240Y-105249980D01*
X145054320Y-105178860D01*
X145059400Y-105120440D01*
X145064480Y-105074720D01*
X145069560Y-105039160D01*
X145072100Y-105013760D01*
X145077180Y-104998520D01*
X145082260Y-104990900D01*
X145087340Y-104988360D01*
X145089880Y-104988360D01*
X145097500Y-104995980D01*
X145110200Y-105011220D01*
X145130520Y-105036620D01*
X145155920Y-105069640D01*
X145183860Y-105105200D01*
X145188940Y-105110280D01*
X145237200Y-105173780D01*
X145280380Y-105227120D01*
X145315940Y-105267760D01*
X145348960Y-105300780D01*
X145374360Y-105323640D01*
X145399760Y-105338880D01*
X145415000Y-105346500D01*
X145437860Y-105356660D01*
X145455640Y-105364280D01*
X145460720Y-105369360D01*
X145475960Y-105376980D01*
X145496280Y-105379520D01*
X145516600Y-105371900D01*
X145524220Y-105366820D01*
X145534380Y-105354120D01*
X145547080Y-105333800D01*
X145564860Y-105308400D01*
X145564860Y-105308400D01*
X145585180Y-105277920D01*
X145600420Y-105262680D01*
X145608040Y-105260140D01*
X145613120Y-105260140D01*
X145618200Y-105265220D01*
X145620740Y-105272840D01*
X145623280Y-105285540D01*
X145625820Y-105305860D01*
X145630900Y-105336340D01*
X145633440Y-105376980D01*
X145635980Y-105427780D01*
X145638520Y-105481120D01*
X145643600Y-105547160D01*
X145648680Y-105597960D01*
X145653760Y-105636060D01*
X145658840Y-105658920D01*
X145663920Y-105669080D01*
X145676620Y-105674160D01*
X145699480Y-105679240D01*
X145724880Y-105679240D01*
X145747740Y-105679240D01*
X145768060Y-105674160D01*
X145780760Y-105664000D01*
X145785840Y-105648760D01*
X145783300Y-105623360D01*
X145775680Y-105595420D01*
X145768060Y-105567480D01*
X145760440Y-105539540D01*
X145755360Y-105509060D01*
X145750280Y-105476040D01*
X145747740Y-105435400D01*
X145742660Y-105389680D01*
X145740120Y-105336340D01*
X145737580Y-105270300D01*
X145732500Y-105194100D01*
X145729960Y-105105200D01*
X145729960Y-105062020D01*
X145724880Y-104990900D01*
X145722340Y-104935020D01*
X145719800Y-104889300D01*
X145717260Y-104856280D01*
X145712180Y-104828340D01*
X145709640Y-104810560D01*
X145702020Y-104797860D01*
X145694400Y-104790240D01*
X145694400Y-104790240D01*
X145679160Y-104782620D01*
X145653760Y-104782620D01*
X145628360Y-104782620D01*
X145602960Y-104787700D01*
X145600420Y-104790240D01*
X145582640Y-104797860D01*
X145569940Y-104813100D01*
X145559780Y-104835960D01*
X145552160Y-104871520D01*
X145544540Y-104907080D01*
X145529300Y-105001060D01*
X145511520Y-105082340D01*
X145496280Y-105148380D01*
X145478500Y-105199180D01*
X145460720Y-105234740D01*
X145453100Y-105247440D01*
X145442940Y-105257600D01*
X145430240Y-105257600D01*
X145415000Y-105252520D01*
X145397220Y-105242360D01*
X145369280Y-105219500D01*
X145338800Y-105186480D01*
X145303240Y-105150920D01*
X145265140Y-105107740D01*
X145227040Y-105064560D01*
X145191480Y-105018840D01*
X145158460Y-104973120D01*
X145127980Y-104932480D01*
X145105120Y-104896920D01*
X145087340Y-104868980D01*
X145082260Y-104851200D01*
X145069560Y-104808020D01*
X145054320Y-104775000D01*
X145034000Y-104757220D01*
X145013680Y-104754680D01*
X145006060Y-104754680D01*
X144993360Y-104764840D01*
X144983200Y-104780080D01*
X144975580Y-104805480D01*
X144967960Y-104841040D01*
X144962880Y-104886760D01*
X144960340Y-104945180D01*
X144960340Y-105016300D01*
X144960340Y-105059480D01*
X144957800Y-105145840D01*
X144955260Y-105216960D01*
X144950180Y-105277920D01*
X144945100Y-105331260D01*
X144937480Y-105374440D01*
X144929860Y-105402380D01*
X144919700Y-105435400D01*
X144912080Y-105470960D01*
X144909540Y-105501440D01*
X144909540Y-105524300D01*
X144909540Y-105524300D01*
X144909540Y-105524300D01*
G37*
X144909540Y-105524300D02*
X144912080Y-105537000D01*
X144912080Y-105539540D01*
X144922240Y-105542080D01*
X144945100Y-105544620D01*
X144970500Y-105549700D01*
X144973040Y-105549700D01*
X145023840Y-105554780D01*
X145028920Y-105506520D01*
X145031460Y-105486200D01*
X145034000Y-105453180D01*
X145036540Y-105410000D01*
X145041620Y-105361740D01*
X145044160Y-105305860D01*
X145049240Y-105249980D01*
X145054320Y-105178860D01*
X145059400Y-105120440D01*
X145064480Y-105074720D01*
X145069560Y-105039160D01*
X145072100Y-105013760D01*
X145077180Y-104998520D01*
X145082260Y-104990900D01*
X145087340Y-104988360D01*
X145089880Y-104988360D01*
X145097500Y-104995980D01*
X145110200Y-105011220D01*
X145130520Y-105036620D01*
X145155920Y-105069640D01*
X145183860Y-105105200D01*
X145188940Y-105110280D01*
X145237200Y-105173780D01*
X145280380Y-105227120D01*
X145315940Y-105267760D01*
X145348960Y-105300780D01*
X145374360Y-105323640D01*
X145399760Y-105338880D01*
X145415000Y-105346500D01*
X145437860Y-105356660D01*
X145455640Y-105364280D01*
X145460720Y-105369360D01*
X145475960Y-105376980D01*
X145496280Y-105379520D01*
X145516600Y-105371900D01*
X145524220Y-105366820D01*
X145534380Y-105354120D01*
X145547080Y-105333800D01*
X145564860Y-105308400D01*
X145564860Y-105308400D01*
X145585180Y-105277920D01*
X145600420Y-105262680D01*
X145608040Y-105260140D01*
X145613120Y-105260140D01*
X145618200Y-105265220D01*
X145620740Y-105272840D01*
X145623280Y-105285540D01*
X145625820Y-105305860D01*
X145630900Y-105336340D01*
X145633440Y-105376980D01*
X145635980Y-105427780D01*
X145638520Y-105481120D01*
X145643600Y-105547160D01*
X145648680Y-105597960D01*
X145653760Y-105636060D01*
X145658840Y-105658920D01*
X145663920Y-105669080D01*
X145676620Y-105674160D01*
X145699480Y-105679240D01*
X145724880Y-105679240D01*
X145747740Y-105679240D01*
X145768060Y-105674160D01*
X145780760Y-105664000D01*
X145785840Y-105648760D01*
X145783300Y-105623360D01*
X145775680Y-105595420D01*
X145768060Y-105567480D01*
X145760440Y-105539540D01*
X145755360Y-105509060D01*
X145750280Y-105476040D01*
X145747740Y-105435400D01*
X145742660Y-105389680D01*
X145740120Y-105336340D01*
X145737580Y-105270300D01*
X145732500Y-105194100D01*
X145729960Y-105105200D01*
X145729960Y-105062020D01*
X145724880Y-104990900D01*
X145722340Y-104935020D01*
X145719800Y-104889300D01*
X145717260Y-104856280D01*
X145712180Y-104828340D01*
X145709640Y-104810560D01*
X145702020Y-104797860D01*
X145694400Y-104790240D01*
X145694400Y-104790240D01*
X145679160Y-104782620D01*
X145653760Y-104782620D01*
X145628360Y-104782620D01*
X145602960Y-104787700D01*
X145600420Y-104790240D01*
X145582640Y-104797860D01*
X145569940Y-104813100D01*
X145559780Y-104835960D01*
X145552160Y-104871520D01*
X145544540Y-104907080D01*
X145529300Y-105001060D01*
X145511520Y-105082340D01*
X145496280Y-105148380D01*
X145478500Y-105199180D01*
X145460720Y-105234740D01*
X145453100Y-105247440D01*
X145442940Y-105257600D01*
X145430240Y-105257600D01*
X145415000Y-105252520D01*
X145397220Y-105242360D01*
X145369280Y-105219500D01*
X145338800Y-105186480D01*
X145303240Y-105150920D01*
X145265140Y-105107740D01*
X145227040Y-105064560D01*
X145191480Y-105018840D01*
X145158460Y-104973120D01*
X145127980Y-104932480D01*
X145105120Y-104896920D01*
X145087340Y-104868980D01*
X145082260Y-104851200D01*
X145069560Y-104808020D01*
X145054320Y-104775000D01*
X145034000Y-104757220D01*
X145013680Y-104754680D01*
X145006060Y-104754680D01*
X144993360Y-104764840D01*
X144983200Y-104780080D01*
X144975580Y-104805480D01*
X144967960Y-104841040D01*
X144962880Y-104886760D01*
X144960340Y-104945180D01*
X144960340Y-105016300D01*
X144960340Y-105059480D01*
X144957800Y-105145840D01*
X144955260Y-105216960D01*
X144950180Y-105277920D01*
X144945100Y-105331260D01*
X144937480Y-105374440D01*
X144929860Y-105402380D01*
X144919700Y-105435400D01*
X144912080Y-105470960D01*
X144909540Y-105501440D01*
X144909540Y-105524300D01*
X144909540Y-105524300D01*
G36*
X142024100Y-105597960D02*
X142034260Y-105608120D01*
X142054580Y-105620820D01*
X142079980Y-105630980D01*
X142105380Y-105641140D01*
X142128240Y-105643680D01*
X142156180Y-105643680D01*
X142189200Y-105641140D01*
X142196820Y-105641140D01*
X142219680Y-105633520D01*
X142234920Y-105623360D01*
X142240000Y-105620820D01*
X142240000Y-105610660D01*
X142242540Y-105585260D01*
X142245080Y-105552240D01*
X142247620Y-105509060D01*
X142250160Y-105460800D01*
X142252700Y-105407460D01*
X142255240Y-105351580D01*
X142255240Y-105293160D01*
X142257780Y-105239820D01*
X142257780Y-105189020D01*
X142257780Y-105163620D01*
X142257780Y-105130600D01*
X142257780Y-105110280D01*
X142255240Y-105097580D01*
X142250160Y-105092500D01*
X142242540Y-105089960D01*
X142240000Y-105089960D01*
X142212060Y-105089960D01*
X142189200Y-105102660D01*
X142179040Y-105117900D01*
X142176500Y-105130600D01*
X142171420Y-105156000D01*
X142168880Y-105191560D01*
X142163800Y-105234740D01*
X142158720Y-105280460D01*
X142156180Y-105290620D01*
X142151100Y-105356660D01*
X142146020Y-105412540D01*
X142138400Y-105455720D01*
X142133320Y-105488740D01*
X142128240Y-105511600D01*
X142118080Y-105531920D01*
X142107920Y-105544620D01*
X142095220Y-105554780D01*
X142079980Y-105562400D01*
X142062200Y-105572560D01*
X142039340Y-105582720D01*
X142026640Y-105592880D01*
X142024100Y-105597960D01*
X142024100Y-105597960D01*
X142024100Y-105597960D01*
G37*
X142024100Y-105597960D02*
X142034260Y-105608120D01*
X142054580Y-105620820D01*
X142079980Y-105630980D01*
X142105380Y-105641140D01*
X142128240Y-105643680D01*
X142156180Y-105643680D01*
X142189200Y-105641140D01*
X142196820Y-105641140D01*
X142219680Y-105633520D01*
X142234920Y-105623360D01*
X142240000Y-105620820D01*
X142240000Y-105610660D01*
X142242540Y-105585260D01*
X142245080Y-105552240D01*
X142247620Y-105509060D01*
X142250160Y-105460800D01*
X142252700Y-105407460D01*
X142255240Y-105351580D01*
X142255240Y-105293160D01*
X142257780Y-105239820D01*
X142257780Y-105189020D01*
X142257780Y-105163620D01*
X142257780Y-105130600D01*
X142257780Y-105110280D01*
X142255240Y-105097580D01*
X142250160Y-105092500D01*
X142242540Y-105089960D01*
X142240000Y-105089960D01*
X142212060Y-105089960D01*
X142189200Y-105102660D01*
X142179040Y-105117900D01*
X142176500Y-105130600D01*
X142171420Y-105156000D01*
X142168880Y-105191560D01*
X142163800Y-105234740D01*
X142158720Y-105280460D01*
X142156180Y-105290620D01*
X142151100Y-105356660D01*
X142146020Y-105412540D01*
X142138400Y-105455720D01*
X142133320Y-105488740D01*
X142128240Y-105511600D01*
X142118080Y-105531920D01*
X142107920Y-105544620D01*
X142095220Y-105554780D01*
X142079980Y-105562400D01*
X142062200Y-105572560D01*
X142039340Y-105582720D01*
X142026640Y-105592880D01*
X142024100Y-105597960D01*
X142024100Y-105597960D01*
G36*
X143667480Y-105572560D02*
X143708120Y-105592880D01*
X143738600Y-105605580D01*
X143776700Y-105615740D01*
X143819880Y-105625900D01*
X143860520Y-105633520D01*
X143860520Y-105331260D01*
X143863060Y-105300780D01*
X143863060Y-105295700D01*
X143873220Y-105272840D01*
X143888460Y-105262680D01*
X143911320Y-105262680D01*
X143934180Y-105272840D01*
X143962120Y-105295700D01*
X143990060Y-105323640D01*
X144018000Y-105361740D01*
X144028160Y-105382060D01*
X144043400Y-105410000D01*
X144045940Y-105432860D01*
X144040860Y-105450640D01*
X144030700Y-105463340D01*
X144015460Y-105478580D01*
X143995140Y-105496360D01*
X143969740Y-105516680D01*
X143946880Y-105534460D01*
X143924020Y-105547160D01*
X143908780Y-105557320D01*
X143903700Y-105557320D01*
X143896080Y-105549700D01*
X143885920Y-105531920D01*
X143880840Y-105516680D01*
X143873220Y-105491280D01*
X143868140Y-105455720D01*
X143863060Y-105412540D01*
X143860520Y-105369360D01*
X143860520Y-105331260D01*
X143860520Y-105633520D01*
X143863060Y-105633520D01*
X143903700Y-105638600D01*
X143939260Y-105641140D01*
X143964660Y-105638600D01*
X143972280Y-105636060D01*
X143984980Y-105628440D01*
X144005300Y-105615740D01*
X144030700Y-105600500D01*
X144040860Y-105592880D01*
X144086580Y-105557320D01*
X144122140Y-105516680D01*
X144150080Y-105470960D01*
X144155160Y-105463340D01*
X144162780Y-105440480D01*
X144165320Y-105422700D01*
X144162780Y-105399840D01*
X144160240Y-105394760D01*
X144139920Y-105346500D01*
X144109440Y-105298240D01*
X144068800Y-105255060D01*
X144025620Y-105216960D01*
X143984980Y-105191560D01*
X143936720Y-105168700D01*
X143924020Y-105163620D01*
X143896080Y-105153460D01*
X143873220Y-105140760D01*
X143860520Y-105130600D01*
X143852900Y-105115360D01*
X143845280Y-105092500D01*
X143840200Y-105056940D01*
X143835120Y-105011220D01*
X143832580Y-104955340D01*
X143832580Y-104884220D01*
X143830040Y-104835960D01*
X143830040Y-104787700D01*
X143830040Y-104744520D01*
X143830040Y-104708960D01*
X143827500Y-104681020D01*
X143827500Y-104665780D01*
X143827500Y-104665780D01*
X143822420Y-104655620D01*
X143812260Y-104650540D01*
X143794480Y-104648000D01*
X143781780Y-104648000D01*
X143758920Y-104648000D01*
X143743680Y-104648000D01*
X143741140Y-104650540D01*
X143741140Y-104658160D01*
X143741140Y-104678480D01*
X143738600Y-104711500D01*
X143738600Y-104757220D01*
X143738600Y-104810560D01*
X143736060Y-104871520D01*
X143736060Y-104940100D01*
X143736060Y-105016300D01*
X143733520Y-105067100D01*
X143733520Y-105161080D01*
X143730980Y-105247440D01*
X143728440Y-105321100D01*
X143725900Y-105384600D01*
X143725900Y-105435400D01*
X143723360Y-105473500D01*
X143720820Y-105498900D01*
X143718280Y-105509060D01*
X143708120Y-105531920D01*
X143690340Y-105552240D01*
X143687800Y-105554780D01*
X143667480Y-105572560D01*
X143667480Y-105572560D01*
X143667480Y-105572560D01*
G37*
X143667480Y-105572560D02*
X143708120Y-105592880D01*
X143738600Y-105605580D01*
X143776700Y-105615740D01*
X143819880Y-105625900D01*
X143860520Y-105633520D01*
X143860520Y-105331260D01*
X143863060Y-105300780D01*
X143863060Y-105295700D01*
X143873220Y-105272840D01*
X143888460Y-105262680D01*
X143911320Y-105262680D01*
X143934180Y-105272840D01*
X143962120Y-105295700D01*
X143990060Y-105323640D01*
X144018000Y-105361740D01*
X144028160Y-105382060D01*
X144043400Y-105410000D01*
X144045940Y-105432860D01*
X144040860Y-105450640D01*
X144030700Y-105463340D01*
X144015460Y-105478580D01*
X143995140Y-105496360D01*
X143969740Y-105516680D01*
X143946880Y-105534460D01*
X143924020Y-105547160D01*
X143908780Y-105557320D01*
X143903700Y-105557320D01*
X143896080Y-105549700D01*
X143885920Y-105531920D01*
X143880840Y-105516680D01*
X143873220Y-105491280D01*
X143868140Y-105455720D01*
X143863060Y-105412540D01*
X143860520Y-105369360D01*
X143860520Y-105331260D01*
X143860520Y-105633520D01*
X143863060Y-105633520D01*
X143903700Y-105638600D01*
X143939260Y-105641140D01*
X143964660Y-105638600D01*
X143972280Y-105636060D01*
X143984980Y-105628440D01*
X144005300Y-105615740D01*
X144030700Y-105600500D01*
X144040860Y-105592880D01*
X144086580Y-105557320D01*
X144122140Y-105516680D01*
X144150080Y-105470960D01*
X144155160Y-105463340D01*
X144162780Y-105440480D01*
X144165320Y-105422700D01*
X144162780Y-105399840D01*
X144160240Y-105394760D01*
X144139920Y-105346500D01*
X144109440Y-105298240D01*
X144068800Y-105255060D01*
X144025620Y-105216960D01*
X143984980Y-105191560D01*
X143936720Y-105168700D01*
X143924020Y-105163620D01*
X143896080Y-105153460D01*
X143873220Y-105140760D01*
X143860520Y-105130600D01*
X143852900Y-105115360D01*
X143845280Y-105092500D01*
X143840200Y-105056940D01*
X143835120Y-105011220D01*
X143832580Y-104955340D01*
X143832580Y-104884220D01*
X143830040Y-104835960D01*
X143830040Y-104787700D01*
X143830040Y-104744520D01*
X143830040Y-104708960D01*
X143827500Y-104681020D01*
X143827500Y-104665780D01*
X143827500Y-104665780D01*
X143822420Y-104655620D01*
X143812260Y-104650540D01*
X143794480Y-104648000D01*
X143781780Y-104648000D01*
X143758920Y-104648000D01*
X143743680Y-104648000D01*
X143741140Y-104650540D01*
X143741140Y-104658160D01*
X143741140Y-104678480D01*
X143738600Y-104711500D01*
X143738600Y-104757220D01*
X143738600Y-104810560D01*
X143736060Y-104871520D01*
X143736060Y-104940100D01*
X143736060Y-105016300D01*
X143733520Y-105067100D01*
X143733520Y-105161080D01*
X143730980Y-105247440D01*
X143728440Y-105321100D01*
X143725900Y-105384600D01*
X143725900Y-105435400D01*
X143723360Y-105473500D01*
X143720820Y-105498900D01*
X143718280Y-105509060D01*
X143708120Y-105531920D01*
X143690340Y-105552240D01*
X143687800Y-105554780D01*
X143667480Y-105572560D01*
X143667480Y-105572560D01*
G36*
X143129000Y-105575100D02*
X143136620Y-105590340D01*
X143159480Y-105603040D01*
X143195040Y-105615740D01*
X143220440Y-105623360D01*
X143250920Y-105628440D01*
X143289020Y-105633520D01*
X143332200Y-105636060D01*
X143372840Y-105638600D01*
X143408400Y-105638600D01*
X143431260Y-105636060D01*
X143482060Y-105623360D01*
X143530320Y-105605580D01*
X143568420Y-105580180D01*
X143596360Y-105552240D01*
X143603980Y-105542080D01*
X143611600Y-105516680D01*
X143616680Y-105483660D01*
X143619220Y-105443020D01*
X143614140Y-105404920D01*
X143606520Y-105369360D01*
X143601440Y-105354120D01*
X143591280Y-105331260D01*
X143586200Y-105310940D01*
X143583660Y-105308400D01*
X143578580Y-105277920D01*
X143560800Y-105242360D01*
X143532860Y-105209340D01*
X143499840Y-105176320D01*
X143461740Y-105148380D01*
X143421100Y-105128060D01*
X143416020Y-105125520D01*
X143398240Y-105122980D01*
X143367760Y-105120440D01*
X143334740Y-105120440D01*
X143296640Y-105122980D01*
X143263620Y-105128060D01*
X143238220Y-105133140D01*
X143233140Y-105133140D01*
X143215360Y-105145840D01*
X143197580Y-105163620D01*
X143192500Y-105171240D01*
X143179800Y-105189020D01*
X143174720Y-105204260D01*
X143174720Y-105224580D01*
X143174720Y-105249980D01*
X143184880Y-105298240D01*
X143205200Y-105336340D01*
X143238220Y-105366820D01*
X143243300Y-105369360D01*
X143243300Y-105227120D01*
X143248380Y-105214420D01*
X143263620Y-105199180D01*
X143291560Y-105181400D01*
X143327120Y-105178860D01*
X143362680Y-105186480D01*
X143395700Y-105204260D01*
X143418560Y-105227120D01*
X143436340Y-105249980D01*
X143454120Y-105277920D01*
X143466820Y-105305860D01*
X143474440Y-105328720D01*
X143476980Y-105343960D01*
X143476980Y-105346500D01*
X143466820Y-105354120D01*
X143441420Y-105356660D01*
X143405860Y-105354120D01*
X143365220Y-105346500D01*
X143334740Y-105338880D01*
X143314420Y-105328720D01*
X143294100Y-105316020D01*
X143281400Y-105300780D01*
X143263620Y-105280460D01*
X143248380Y-105257600D01*
X143245840Y-105244900D01*
X143243300Y-105227120D01*
X143243300Y-105369360D01*
X143248380Y-105371900D01*
X143268700Y-105379520D01*
X143299180Y-105389680D01*
X143334740Y-105397300D01*
X143375380Y-105404920D01*
X143375380Y-105407460D01*
X143413480Y-105412540D01*
X143446500Y-105420160D01*
X143471900Y-105427780D01*
X143484600Y-105432860D01*
X143487140Y-105432860D01*
X143499840Y-105448100D01*
X143502380Y-105468420D01*
X143492220Y-105491280D01*
X143469360Y-105514140D01*
X143438880Y-105537000D01*
X143431260Y-105539540D01*
X143413480Y-105547160D01*
X143393160Y-105552240D01*
X143367760Y-105554780D01*
X143332200Y-105554780D01*
X143329660Y-105554780D01*
X143291560Y-105554780D01*
X143248380Y-105552240D01*
X143212820Y-105549700D01*
X143205200Y-105547160D01*
X143169640Y-105547160D01*
X143146780Y-105549700D01*
X143134080Y-105557320D01*
X143129000Y-105572560D01*
X143129000Y-105575100D01*
X143129000Y-105575100D01*
X143129000Y-105575100D01*
G37*
X143129000Y-105575100D02*
X143136620Y-105590340D01*
X143159480Y-105603040D01*
X143195040Y-105615740D01*
X143220440Y-105623360D01*
X143250920Y-105628440D01*
X143289020Y-105633520D01*
X143332200Y-105636060D01*
X143372840Y-105638600D01*
X143408400Y-105638600D01*
X143431260Y-105636060D01*
X143482060Y-105623360D01*
X143530320Y-105605580D01*
X143568420Y-105580180D01*
X143596360Y-105552240D01*
X143603980Y-105542080D01*
X143611600Y-105516680D01*
X143616680Y-105483660D01*
X143619220Y-105443020D01*
X143614140Y-105404920D01*
X143606520Y-105369360D01*
X143601440Y-105354120D01*
X143591280Y-105331260D01*
X143586200Y-105310940D01*
X143583660Y-105308400D01*
X143578580Y-105277920D01*
X143560800Y-105242360D01*
X143532860Y-105209340D01*
X143499840Y-105176320D01*
X143461740Y-105148380D01*
X143421100Y-105128060D01*
X143416020Y-105125520D01*
X143398240Y-105122980D01*
X143367760Y-105120440D01*
X143334740Y-105120440D01*
X143296640Y-105122980D01*
X143263620Y-105128060D01*
X143238220Y-105133140D01*
X143233140Y-105133140D01*
X143215360Y-105145840D01*
X143197580Y-105163620D01*
X143192500Y-105171240D01*
X143179800Y-105189020D01*
X143174720Y-105204260D01*
X143174720Y-105224580D01*
X143174720Y-105249980D01*
X143184880Y-105298240D01*
X143205200Y-105336340D01*
X143238220Y-105366820D01*
X143243300Y-105369360D01*
X143243300Y-105227120D01*
X143248380Y-105214420D01*
X143263620Y-105199180D01*
X143291560Y-105181400D01*
X143327120Y-105178860D01*
X143362680Y-105186480D01*
X143395700Y-105204260D01*
X143418560Y-105227120D01*
X143436340Y-105249980D01*
X143454120Y-105277920D01*
X143466820Y-105305860D01*
X143474440Y-105328720D01*
X143476980Y-105343960D01*
X143476980Y-105346500D01*
X143466820Y-105354120D01*
X143441420Y-105356660D01*
X143405860Y-105354120D01*
X143365220Y-105346500D01*
X143334740Y-105338880D01*
X143314420Y-105328720D01*
X143294100Y-105316020D01*
X143281400Y-105300780D01*
X143263620Y-105280460D01*
X143248380Y-105257600D01*
X143245840Y-105244900D01*
X143243300Y-105227120D01*
X143243300Y-105369360D01*
X143248380Y-105371900D01*
X143268700Y-105379520D01*
X143299180Y-105389680D01*
X143334740Y-105397300D01*
X143375380Y-105404920D01*
X143375380Y-105407460D01*
X143413480Y-105412540D01*
X143446500Y-105420160D01*
X143471900Y-105427780D01*
X143484600Y-105432860D01*
X143487140Y-105432860D01*
X143499840Y-105448100D01*
X143502380Y-105468420D01*
X143492220Y-105491280D01*
X143469360Y-105514140D01*
X143438880Y-105537000D01*
X143431260Y-105539540D01*
X143413480Y-105547160D01*
X143393160Y-105552240D01*
X143367760Y-105554780D01*
X143332200Y-105554780D01*
X143329660Y-105554780D01*
X143291560Y-105554780D01*
X143248380Y-105552240D01*
X143212820Y-105549700D01*
X143205200Y-105547160D01*
X143169640Y-105547160D01*
X143146780Y-105549700D01*
X143134080Y-105557320D01*
X143129000Y-105572560D01*
X143129000Y-105575100D01*
X143129000Y-105575100D01*
G36*
X142219680Y-104894380D02*
X142222220Y-104902000D01*
X142232380Y-104914700D01*
X142247620Y-104917240D01*
X142267940Y-104904540D01*
X142290800Y-104881680D01*
X142316200Y-104851200D01*
X142326360Y-104825800D01*
X142323820Y-104805480D01*
X142308580Y-104790240D01*
X142285720Y-104777540D01*
X142270480Y-104769920D01*
X142260320Y-104767380D01*
X142257780Y-104767380D01*
X142250160Y-104775000D01*
X142240000Y-104792780D01*
X142232380Y-104815640D01*
X142224760Y-104843580D01*
X142219680Y-104871520D01*
X142219680Y-104894380D01*
X142219680Y-104894380D01*
X142219680Y-104894380D01*
G37*
X142219680Y-104894380D02*
X142222220Y-104902000D01*
X142232380Y-104914700D01*
X142247620Y-104917240D01*
X142267940Y-104904540D01*
X142290800Y-104881680D01*
X142316200Y-104851200D01*
X142326360Y-104825800D01*
X142323820Y-104805480D01*
X142308580Y-104790240D01*
X142285720Y-104777540D01*
X142270480Y-104769920D01*
X142260320Y-104767380D01*
X142257780Y-104767380D01*
X142250160Y-104775000D01*
X142240000Y-104792780D01*
X142232380Y-104815640D01*
X142224760Y-104843580D01*
X142219680Y-104871520D01*
X142219680Y-104894380D01*
X142219680Y-104894380D01*
M02*
