%MOIN*%
%OFA0B0*%
%FSLAX44Y44*%
%IPPOS*%
%LPD*%
%ADD10C,0*%
D10*
X00008067Y00024015D02*
X00008067Y00024015D01*
X00019477Y00024015D01*
X00019505Y00024014D01*
X00019533Y00024011D01*
X00019561Y00024006D01*
X00019588Y00023999D01*
X00019615Y00023990D01*
X00019641Y00023979D01*
X00019666Y00023967D01*
X00019691Y00023952D01*
X00019714Y00023936D01*
X00019736Y00023918D01*
X00019756Y00023899D01*
X00019775Y00023878D01*
X00019793Y00023856D01*
X00019809Y00023833D01*
X00019823Y00023809D01*
X00019836Y00023784D01*
X00019846Y00023758D01*
X00019855Y00023731D01*
X00019862Y00023703D01*
X00019867Y00023676D01*
X00019899Y00023447D01*
X00019902Y00023414D01*
X00019902Y00023380D01*
X00019900Y00023347D01*
X00019894Y00023313D01*
X00019886Y00023281D01*
X00019875Y00023249D01*
X00019861Y00023218D01*
X00019845Y00023189D01*
X00019827Y00023161D01*
X00019806Y00023135D01*
X00019782Y00023110D01*
X00019757Y00023088D01*
X00019730Y00023068D01*
X00019702Y00023050D01*
X00019672Y00023035D01*
X00019641Y00023022D01*
X00019609Y00023012D01*
X00019576Y00023005D01*
X00019542Y00023001D01*
X00019509Y00023000D01*
X00017641Y00023000D01*
X00017473Y00022990D01*
X00017307Y00022962D01*
X00017146Y00022915D01*
X00016990Y00022851D01*
X00016843Y00022770D01*
X00016706Y00022672D01*
X00016581Y00022560D01*
X00016468Y00022435D01*
X00016371Y00022298D01*
X00016290Y00022150D01*
X00016225Y00021995D01*
X00016179Y00021833D01*
X00016151Y00021667D01*
X00016141Y00021500D01*
X00016141Y00012339D01*
X00016140Y00012308D01*
X00016136Y00012277D01*
X00016130Y00012247D01*
X00016122Y00012217D01*
X00016111Y00012188D01*
X00016098Y00012160D01*
X00016083Y00012133D01*
X00016066Y00012108D01*
X00016047Y00012083D01*
X00016026Y00012061D01*
X00016004Y00012040D01*
X00015980Y00012020D01*
X00015954Y00012003D01*
X00015927Y00011988D01*
X00015899Y00011975D01*
X00015870Y00011964D01*
X00015840Y00011956D01*
X00015810Y00011950D01*
X00015780Y00011946D01*
X00015749Y00011945D01*
X00015394Y00011944D01*
X00015364Y00011945D01*
X00015333Y00011948D01*
X00015302Y00011954D01*
X00015272Y00011963D01*
X00015243Y00011973D01*
X00015215Y00011986D01*
X00015188Y00012001D01*
X00015162Y00012018D01*
X00015138Y00012038D01*
X00015115Y00012059D01*
X00015094Y00012081D01*
X00015075Y00012106D01*
X00015058Y00012131D01*
X00015043Y00012158D01*
X00015030Y00012186D01*
X00015019Y00012216D01*
X00015010Y00012245D01*
X00015004Y00012276D01*
X00015001Y00012306D01*
X00015000Y00012337D01*
X00015000Y00021500D01*
X00014990Y00021667D01*
X00014962Y00021833D01*
X00014915Y00021995D01*
X00014851Y00022150D01*
X00014770Y00022298D01*
X00014672Y00022435D01*
X00014560Y00022560D01*
X00014435Y00022672D01*
X00014298Y00022770D01*
X00014150Y00022851D01*
X00013995Y00022915D01*
X00013833Y00022962D01*
X00013667Y00022990D01*
X00013500Y00023000D01*
X00008035Y00023000D01*
X00008001Y00023001D01*
X00007968Y00023005D01*
X00007935Y00023012D01*
X00007903Y00023022D01*
X00007872Y00023035D01*
X00007842Y00023050D01*
X00007813Y00023068D01*
X00007786Y00023088D01*
X00007761Y00023110D01*
X00007738Y00023135D01*
X00007717Y00023161D01*
X00007699Y00023189D01*
X00007682Y00023218D01*
X00007669Y00023249D01*
X00007658Y00023281D01*
X00007649Y00023313D01*
X00007644Y00023347D01*
X00007642Y00023380D01*
X00007642Y00023414D01*
X00007645Y00023447D01*
X00007677Y00023676D01*
X00007682Y00023703D01*
X00007688Y00023731D01*
X00007697Y00023758D01*
X00007708Y00023784D01*
X00007720Y00023809D01*
X00007735Y00023833D01*
X00007751Y00023856D01*
X00007768Y00023878D01*
X00007788Y00023899D01*
X00007808Y00023918D01*
X00007830Y00023936D01*
X00007853Y00023952D01*
X00007877Y00023967D01*
X00007903Y00023979D01*
X00007929Y00023990D01*
X00007955Y00023999D01*
X00007983Y00024006D01*
X00008011Y00024011D01*
X00008039Y00024014D01*
X00008067Y00024015D01*
X00021640Y00024015D02*
X00021640Y00024015D01*
X00021728Y00024015D01*
X00021896Y00024025D01*
X00022062Y00024053D01*
X00022223Y00024099D01*
X00022379Y00024164D01*
X00022526Y00024245D01*
X00022663Y00024343D01*
X00022789Y00024455D01*
X00022901Y00024580D01*
X00022998Y00024717D01*
X00023079Y00024864D01*
X00023144Y00025020D01*
X00023190Y00025181D01*
X00023218Y00025347D01*
X00023228Y00025515D01*
X00023228Y00037515D01*
X00023218Y00037683D01*
X00023190Y00037849D01*
X00023144Y00038011D01*
X00023079Y00038166D01*
X00022998Y00038313D01*
X00022901Y00038450D01*
X00022789Y00038576D01*
X00022663Y00038688D01*
X00022526Y00038785D01*
X00022379Y00038867D01*
X00022223Y00038931D01*
X00022062Y00038978D01*
X00021896Y00039006D01*
X00021728Y00039015D01*
X00001728Y00039015D01*
X00001560Y00039006D01*
X00001394Y00038978D01*
X00001232Y00038931D01*
X00001077Y00038867D01*
X00000930Y00038785D01*
X00000793Y00038688D01*
X00000667Y00038576D01*
X00000555Y00038450D01*
X00000458Y00038313D01*
X00000376Y00038166D01*
X00000312Y00038011D01*
X00000265Y00037849D01*
X00000237Y00037683D01*
X00000228Y00037515D01*
X00000228Y00025515D01*
X00000237Y00025347D01*
X00000265Y00025181D01*
X00000312Y00025020D01*
X00000376Y00024864D01*
X00000458Y00024717D01*
X00000555Y00024580D01*
X00000667Y00024455D01*
X00000793Y00024343D01*
X00000930Y00024245D01*
X00001077Y00024164D01*
X00001232Y00024099D01*
X00001394Y00024053D01*
X00001560Y00024025D01*
X00001728Y00024015D01*
X00005904Y00024015D01*
X00005932Y00024014D01*
X00005960Y00024011D01*
X00005988Y00024006D01*
X00006015Y00023999D01*
X00006042Y00023990D01*
X00006068Y00023979D01*
X00006093Y00023967D01*
X00006117Y00023952D01*
X00006140Y00023936D01*
X00006162Y00023918D01*
X00006183Y00023899D01*
X00006202Y00023878D01*
X00006220Y00023856D01*
X00006236Y00023833D01*
X00006250Y00023809D01*
X00006262Y00023784D01*
X00006273Y00023758D01*
X00006282Y00023731D01*
X00006289Y00023703D01*
X00006294Y00023676D01*
X00006325Y00023447D01*
X00006328Y00023414D01*
X00006329Y00023380D01*
X00006326Y00023347D01*
X00006321Y00023313D01*
X00006313Y00023281D01*
X00006302Y00023249D01*
X00006288Y00023218D01*
X00006272Y00023189D01*
X00006253Y00023161D01*
X00006232Y00023135D01*
X00006209Y00023110D01*
X00006184Y00023088D01*
X00006157Y00023068D01*
X00006128Y00023050D01*
X00006098Y00023035D01*
X00006067Y00023022D01*
X00006035Y00023012D01*
X00006002Y00023005D01*
X00005969Y00023001D01*
X00005935Y00023000D01*
X00001500Y00023000D01*
X00001332Y00022990D01*
X00001166Y00022962D01*
X00001004Y00022915D01*
X00000849Y00022851D01*
X00000701Y00022770D01*
X00000564Y00022672D01*
X00000439Y00022560D01*
X00000327Y00022435D01*
X00000229Y00022298D01*
X00000148Y00022150D01*
X00000084Y00021995D01*
X00000037Y00021833D01*
X00000009Y00021667D01*
X00000000Y00021500D01*
X00000000Y00001499D01*
X00000009Y00001332D01*
X00000037Y00001166D01*
X00000084Y00001004D01*
X00000148Y00000849D01*
X00000229Y00000701D01*
X00000327Y00000564D01*
X00000439Y00000439D01*
X00000564Y00000327D01*
X00000701Y00000229D01*
X00000849Y00000148D01*
X00001004Y00000084D01*
X00001166Y00000037D01*
X00001332Y00000009D01*
X00001500Y00000000D01*
X00013500Y00000000D01*
X00013667Y00000009D01*
X00013833Y00000037D01*
X00013995Y00000084D01*
X00014150Y00000148D01*
X00014298Y00000229D01*
X00014435Y00000327D01*
X00014560Y00000439D01*
X00014672Y00000564D01*
X00014770Y00000701D01*
X00014851Y00000849D01*
X00014915Y00001004D01*
X00014962Y00001166D01*
X00014990Y00001332D01*
X00015000Y00001499D01*
X00015000Y00010271D01*
X00015001Y00010302D01*
X00015004Y00010332D01*
X00015010Y00010363D01*
X00015019Y00010392D01*
X00015030Y00010422D01*
X00015043Y00010450D01*
X00015058Y00010477D01*
X00015075Y00010502D01*
X00015094Y00010527D01*
X00015115Y00010549D01*
X00015138Y00010570D01*
X00015162Y00010590D01*
X00015188Y00010607D01*
X00015215Y00010622D01*
X00015243Y00010635D01*
X00015272Y00010645D01*
X00015302Y00010654D01*
X00015333Y00010660D01*
X00015364Y00010663D01*
X00015394Y00010664D01*
X00015749Y00010663D01*
X00015780Y00010662D01*
X00015810Y00010658D01*
X00015840Y00010652D01*
X00015870Y00010644D01*
X00015899Y00010633D01*
X00015927Y00010620D01*
X00015954Y00010605D01*
X00015980Y00010588D01*
X00016004Y00010568D01*
X00016026Y00010547D01*
X00016047Y00010525D01*
X00016066Y00010500D01*
X00016083Y00010475D01*
X00016098Y00010448D01*
X00016111Y00010420D01*
X00016122Y00010391D01*
X00016130Y00010361D01*
X00016136Y00010331D01*
X00016140Y00010300D01*
X00016141Y00010269D01*
X00016141Y00001499D01*
X00016151Y00001332D01*
X00016179Y00001166D01*
X00016225Y00001004D01*
X00016290Y00000849D01*
X00016371Y00000701D01*
X00016468Y00000564D01*
X00016581Y00000439D01*
X00016706Y00000327D01*
X00016843Y00000229D01*
X00016990Y00000148D01*
X00017146Y00000084D01*
X00017307Y00000037D01*
X00017473Y00000009D01*
X00017641Y00000000D01*
X00029641Y00000000D01*
X00029809Y00000009D01*
X00029975Y00000037D01*
X00030137Y00000084D01*
X00030292Y00000148D01*
X00030439Y00000229D01*
X00030576Y00000327D01*
X00030702Y00000439D01*
X00030814Y00000564D01*
X00030911Y00000701D01*
X00030993Y00000849D01*
X00031057Y00001004D01*
X00031104Y00001166D01*
X00031132Y00001332D01*
X00031141Y00001499D01*
X00031141Y00021500D01*
X00031132Y00021667D01*
X00031104Y00021833D01*
X00031057Y00021995D01*
X00030993Y00022150D01*
X00030911Y00022298D01*
X00030814Y00022435D01*
X00030702Y00022560D01*
X00030576Y00022672D01*
X00030439Y00022770D01*
X00030292Y00022851D01*
X00030137Y00022915D01*
X00029975Y00022962D01*
X00029809Y00022990D01*
X00029641Y00023000D01*
X00021608Y00023000D01*
X00021575Y00023001D01*
X00021541Y00023005D01*
X00021509Y00023012D01*
X00021477Y00023022D01*
X00021445Y00023035D01*
X00021415Y00023050D01*
X00021387Y00023068D01*
X00021360Y00023088D01*
X00021335Y00023110D01*
X00021312Y00023135D01*
X00021291Y00023161D01*
X00021272Y00023189D01*
X00021256Y00023218D01*
X00021242Y00023249D01*
X00021231Y00023281D01*
X00021223Y00023313D01*
X00021217Y00023347D01*
X00021215Y00023380D01*
X00021215Y00023414D01*
X00021218Y00023447D01*
X00021250Y00023676D01*
X00021255Y00023703D01*
X00021262Y00023731D01*
X00021271Y00023758D01*
X00021281Y00023784D01*
X00021294Y00023809D01*
X00021308Y00023833D01*
X00021324Y00023856D01*
X00021342Y00023878D01*
X00021361Y00023899D01*
X00021382Y00023918D01*
X00021403Y00023936D01*
X00021427Y00023952D01*
X00021451Y00023967D01*
X00021476Y00023979D01*
X00021502Y00023990D01*
X00021529Y00023999D01*
X00021556Y00024006D01*
X00021584Y00024011D01*
X00021612Y00024014D01*
X00021640Y00024015D01*
M02*