%MOIN*%
%OFA0B0*%
%FSLAX46Y46*%
%IPPOS*%
%LPD*%
%ADD10C,0.0039370078740157488*%
%ADD11R,0.070866141732283464X0.070866141732283464*%
%ADD12O,0.070866141732283464X0.070866141732283464*%
%ADD13R,0.03937007874015748X0.03937007874015748*%
%ADD14O,0.03937007874015748X0.03937007874015748*%
%ADD15R,0.066929133858267723X0.066929133858267723*%
%ADD16O,0.066929133858267723X0.066929133858267723*%
%ADD17O,0.07874015748031496X0.07*%
%ADD18R,0.059055118110236227X0.07874015748031496*%
%ADD19O,0.062992125984251982X0.07874015748031496*%
%ADD20R,0.07874015748031496X0.051181102362204731*%
%ADD21O,0.07874015748031496X0.059055118110236227*%
%ADD22R,0.062992125984251982X0.07874015748031496*%
%ADD23O,0.07874015748031496X0.062992125984251982*%
%ADD24R,0.07874015748031496X0.062992125984251982*%
%ADD25O,0.07874015748031496X0.059842519685039376*%
%ADD26R,0.07874015748031496X0.059842519685039376*%
%ADD27R,0.11811023622047245X0.059055118110236227*%
%ADD28O,0.11811023622047245X0.059055118110236227*%
%ADD29R,0.068X0.08*%
%ADD30O,0.068X0.08*%
%ADD31C,0.094488188976377951*%
%ADD32R,0.094488188976377951X0.094488188976377951*%
%ADD33C,0.0905511811023622*%
%ADD34R,0.1141732283464567X0.031496062992125991*%
%ADD35R,0.094488188976377951X0.062992125984251982*%
%ADD36O,0.094488188976377951X0.062992125984251982*%
%ADD37C,0.07874015748031496*%
%ADD38C,0.024000000000000004*%
%ADD49C,0.0039370078740157488*%
%ADD50R,0.070866141732283464X0.070866141732283464*%
%ADD51O,0.070866141732283464X0.070866141732283464*%
%ADD52R,0.03937007874015748X0.03937007874015748*%
%ADD53O,0.03937007874015748X0.03937007874015748*%
%ADD54R,0.066929133858267723X0.066929133858267723*%
%ADD55O,0.066929133858267723X0.066929133858267723*%
%ADD56O,0.07X0.07874015748031496*%
%ADD57R,0.07874015748031496X0.059055118110236227*%
%ADD58O,0.07874015748031496X0.062992125984251982*%
%ADD59R,0.051181102362204731X0.07874015748031496*%
%ADD60O,0.059055118110236227X0.07874015748031496*%
%ADD61R,0.07874015748031496X0.062992125984251982*%
%ADD62O,0.062992125984251982X0.07874015748031496*%
%ADD63R,0.062992125984251982X0.07874015748031496*%
%ADD64O,0.059842519685039376X0.07874015748031496*%
%ADD65R,0.059842519685039376X0.07874015748031496*%
%ADD66R,0.059055118110236227X0.11811023622047245*%
%ADD67O,0.059055118110236227X0.11811023622047245*%
%ADD68R,0.08X0.068*%
%ADD69O,0.08X0.068*%
%ADD70C,0.094488188976377951*%
%ADD71R,0.094488188976377951X0.094488188976377951*%
%ADD72C,0.0905511811023622*%
%ADD73R,0.031496062992125991X0.1141732283464567*%
%ADD74R,0.062992125984251982X0.094488188976377951*%
%ADD75O,0.062992125984251982X0.094488188976377951*%
%ADD76C,0.07874015748031496*%
%ADD77C,0.024000000000000004*%
%ADD78C,0.0039370078740157488*%
%ADD79R,0.070866141732283464X0.070866141732283464*%
%ADD80O,0.070866141732283464X0.070866141732283464*%
%ADD81R,0.03937007874015748X0.03937007874015748*%
%ADD82O,0.03937007874015748X0.03937007874015748*%
%ADD83R,0.066929133858267723X0.066929133858267723*%
%ADD84O,0.066929133858267723X0.066929133858267723*%
%ADD85O,0.07874015748031496X0.07*%
%ADD86R,0.059055118110236227X0.07874015748031496*%
%ADD87O,0.062992125984251982X0.07874015748031496*%
%ADD88R,0.07874015748031496X0.051181102362204731*%
%ADD89O,0.07874015748031496X0.059055118110236227*%
%ADD90R,0.062992125984251982X0.07874015748031496*%
%ADD91O,0.07874015748031496X0.062992125984251982*%
%ADD92R,0.07874015748031496X0.062992125984251982*%
%ADD93O,0.07874015748031496X0.059842519685039376*%
%ADD94R,0.07874015748031496X0.059842519685039376*%
%ADD95R,0.11811023622047245X0.059055118110236227*%
%ADD96O,0.11811023622047245X0.059055118110236227*%
%ADD97R,0.068X0.08*%
%ADD98O,0.068X0.08*%
%ADD99C,0.094488188976377951*%
%ADD100R,0.094488188976377951X0.094488188976377951*%
%ADD101C,0.0905511811023622*%
%ADD102R,0.1141732283464567X0.031496062992125991*%
%ADD103R,0.094488188976377951X0.062992125984251982*%
%ADD104O,0.094488188976377951X0.062992125984251982*%
%ADD105C,0.07874015748031496*%
%ADD106C,0.024000000000000004*%
G01*
D10*
D11*
X-0004799999Y0004650000D02*
X0000650000Y0001350000D03*
D12*
X0000350000Y0001350000D03*
D13*
X0001450000Y0001900000D03*
D14*
X0001450000Y0001825000D03*
X0001450000Y0001750000D03*
D15*
X0001100000Y0001300000D03*
D16*
X0001100000Y0001200000D03*
X0001100000Y0001100000D03*
X0001100000Y0001000000D03*
D15*
X0001425000Y0001300000D03*
D16*
X0001425000Y0001200000D03*
X0001425000Y0001100000D03*
X0001425000Y0001000000D03*
D17*
X0001250000Y0000200000D03*
X0001250000Y0000400000D03*
D18*
X0001150000Y0002200000D03*
D19*
X0001250000Y0002200000D03*
X0001350000Y0002200000D03*
D20*
X0001125000Y0001575000D03*
D21*
X0001125000Y0001476574D03*
D20*
X0001125000Y0002075000D03*
D21*
X0001125000Y0001976574D03*
D22*
X0000600000Y0001950000D03*
D19*
X0000501574Y0001950000D03*
D23*
X0000500000Y0000101574D03*
D24*
X0000500000Y0000200000D03*
D25*
X0001125000Y0001775000D03*
X0001125000Y0001875000D03*
D26*
X0001125000Y0001675000D03*
D25*
X0001125000Y0000725000D03*
X0001125000Y0000825000D03*
D26*
X0001125000Y0000625000D03*
D27*
X0000100000Y0000950000D03*
D28*
X0000100000Y0001048425D03*
X0000100000Y0001146850D03*
X0000100000Y0001245275D03*
X0000100000Y0001343700D03*
D29*
X0000650000Y0002125000D03*
D30*
X0000550000Y0002125000D03*
X0000450000Y0002125000D03*
D31*
X0000250000Y0001812204D03*
D32*
X0000250000Y0001950000D03*
D31*
X0000250000Y0001512204D03*
D32*
X0000250000Y0001650000D03*
D33*
X0000802755Y0002209055D03*
D34*
X0000956299Y0000175000D03*
X0000956299Y0000275000D03*
X0000956299Y0000375000D03*
X0000956299Y0000475000D03*
X0000956299Y0000575000D03*
X0000956299Y0000675000D03*
X0000956299Y0000775000D03*
X0000956299Y0000875000D03*
X0000956299Y0000975000D03*
X0000956299Y0001075000D03*
X0000956299Y0001175000D03*
X0000956299Y0001275000D03*
X0000956299Y0001375000D03*
X0000956299Y0001475000D03*
X0000956299Y0001575000D03*
X0000956299Y0001675000D03*
X0000956299Y0001775000D03*
X0000956299Y0001875000D03*
X0000956299Y0001975000D03*
X0000956299Y0002075000D03*
X0000956299Y0000225000D03*
X0000956299Y0000325000D03*
X0000956299Y0000425000D03*
X0000956299Y0000525000D03*
X0000956299Y0000625000D03*
X0000956299Y0000725000D03*
X0000956299Y0000825000D03*
X0000956299Y0000925000D03*
X0000956299Y0001025000D03*
X0000956299Y0001125000D03*
X0000956299Y0001225000D03*
X0000956299Y0001325000D03*
X0000956299Y0001425000D03*
X0000956299Y0001525000D03*
X0000956299Y0001625000D03*
X0000956299Y0001725000D03*
X0000956299Y0001825000D03*
X0000956299Y0001925000D03*
X0000956299Y0002025000D03*
X0000956299Y0002125000D03*
D33*
X0000802755Y0000090944D03*
D35*
X0000650000Y0000400000D03*
D36*
X0000350000Y0001200000D03*
X0000650000Y0000500000D03*
X0000350000Y0001100000D03*
X0000650000Y0000600000D03*
X0000350000Y0001000000D03*
X0000650000Y0000700000D03*
X0000350000Y0000900000D03*
X0000650000Y0000800000D03*
X0000350000Y0000800000D03*
X0000650000Y0000900000D03*
X0000350000Y0000700000D03*
X0000650000Y0001000000D03*
X0000350000Y0000600000D03*
X0000650000Y0001100000D03*
X0000350000Y0000500000D03*
X0000650000Y0001200000D03*
X0000350000Y0000400000D03*
D27*
X0000100000Y0000350000D03*
D28*
X0000100000Y0000448425D03*
X0000100000Y0000546850D03*
X0000100000Y0000645275D03*
X0000100000Y0000743700D03*
D11*
X0000500000Y0001550000D03*
D12*
X0000500000Y0001650000D03*
X0000500000Y0001750000D03*
D37*
X0000650000Y0001800000D03*
X0000650000Y0001500000D03*
X0001250000Y0000575000D03*
X0001250000Y0000875000D03*
X0001250000Y0001725000D03*
X0001250000Y0001425000D03*
D38*
X0001450000Y0001750000D02*
X0001400000Y0001750000D01*
X0001400000Y0001750000D02*
X0001173425Y0001976574D01*
X0001173425Y0001976574D02*
X0001125000Y0001976574D01*
X0001225000Y0001625000D02*
X0001200000Y0001650000D01*
X0001275000Y0001625000D02*
X0001225000Y0001625000D01*
X0001400000Y0001750000D02*
X0001275000Y0001625000D01*
X0001125000Y0001476574D02*
X0001176574Y0001476574D01*
X0001175000Y0001675000D02*
X0001125000Y0001675000D01*
X0001200000Y0001650000D02*
X0001175000Y0001675000D01*
X0001200000Y0001500000D02*
X0001200000Y0001650000D01*
X0001176574Y0001476574D02*
X0001200000Y0001500000D01*
X0001125000Y0001976574D02*
X0001148425Y0001976574D01*
X0001100000Y0001975000D02*
X0001123425Y0001975000D01*
X0001123425Y0001975000D02*
X0001125000Y0001976574D01*
X0001125000Y0001675000D02*
X0001150000Y0001675000D01*
X0000956299Y0001925000D02*
X0001025000Y0001925000D01*
X0001025000Y0001925000D02*
X0001075000Y0001975000D01*
X0000956299Y0001975000D02*
X0000875000Y0001975000D01*
X0000875000Y0001975000D02*
X0000825000Y0001925000D01*
X0000956299Y0002025000D02*
X0000875000Y0002025000D01*
X0000875000Y0002025000D02*
X0000825000Y0001975000D01*
X0000956299Y0002075000D02*
X0000875000Y0002075000D01*
X0000875000Y0002075000D02*
X0000825000Y0002025000D01*
X0000956299Y0001875000D02*
X0000850000Y0001875000D01*
X0000850000Y0001875000D02*
X0000825000Y0001900000D01*
X0000825000Y0001900000D02*
X0000825000Y0001925000D01*
X0000850000Y0002125000D02*
X0000956299Y0002125000D01*
X0000825000Y0002100000D02*
X0000850000Y0002125000D01*
X0000825000Y0001925000D02*
X0000825000Y0001975000D01*
X0000825000Y0001975000D02*
X0000825000Y0002025000D01*
X0000825000Y0002025000D02*
X0000825000Y0002100000D01*
X0000650000Y0001200000D02*
X0000625000Y0001200000D01*
X0000625000Y0001200000D02*
X0000350000Y0001475000D01*
X0000350000Y0001798425D02*
X0000501574Y0001950000D01*
X0000350000Y0001475000D02*
X0000350000Y0001798425D01*
X0000802755Y0000090944D02*
X0000759055Y0000090944D01*
X0000759055Y0000090944D02*
X0000500000Y0000350000D01*
X0000575000Y0001200000D02*
X0000650000Y0001200000D01*
X0000500000Y0001125000D02*
X0000575000Y0001200000D01*
X0000500000Y0000350000D02*
X0000500000Y0001125000D01*
X0000500000Y0000101574D02*
X0000792126Y0000101574D01*
X0000792126Y0000101574D02*
X0000802755Y0000090944D01*
X0001101574Y0001301574D02*
X0001100000Y0001300000D01*
X0000802755Y0002209055D02*
X0000484055Y0002209055D01*
X0000450000Y0002175000D02*
X0000450000Y0002125000D01*
X0000484055Y0002209055D02*
X0000450000Y0002175000D01*
X0000501574Y0001950000D02*
X0000501574Y0001998425D01*
X0000501574Y0001998425D02*
X0000450000Y0002050000D01*
X0000450000Y0002050000D02*
X0000450000Y0002125000D01*
X0000250000Y0001950000D02*
X0000501574Y0001950000D01*
X0000956299Y0001975000D02*
X0001100000Y0001975000D01*
X0001100000Y0001975000D02*
X0001101574Y0001975000D01*
X0000956299Y0002125000D02*
X0000886811Y0002125000D01*
X0000886811Y0002125000D02*
X0000802755Y0002209055D01*
X0001075000Y0001975000D02*
X0001101574Y0001975000D01*
X0000956299Y0001725000D02*
X0001025000Y0001725000D01*
X0001075000Y0001875000D02*
X0001125000Y0001875000D01*
X0001050000Y0001850000D02*
X0001075000Y0001875000D01*
X0001050000Y0001750000D02*
X0001050000Y0001850000D01*
X0001025000Y0001725000D02*
X0001050000Y0001750000D01*
X0001125000Y0001575000D02*
X0001100000Y0001575000D01*
X0001100000Y0001575000D02*
X0000956299Y0001575000D01*
X0000956299Y0001475000D02*
X0000725000Y0001475000D01*
X0000725000Y0001475000D02*
X0000675000Y0001525000D01*
X0000675000Y0001525000D02*
X0000700000Y0001525000D01*
X0000956299Y0001525000D02*
X0000700000Y0001525000D01*
X0000700000Y0001525000D02*
X0000675000Y0001525000D01*
X0000675000Y0001525000D02*
X0000650000Y0001500000D01*
X0000956299Y0001575000D02*
X0000725000Y0001575000D01*
X0000956299Y0001625000D02*
X0000775000Y0001625000D01*
X0000956299Y0001675000D02*
X0000825000Y0001675000D01*
X0000956299Y0001725000D02*
X0000875000Y0001725000D01*
X0000875000Y0001725000D02*
X0000825000Y0001675000D01*
X0000825000Y0001675000D02*
X0000775000Y0001625000D01*
X0000775000Y0001625000D02*
X0000725000Y0001575000D01*
X0000725000Y0001575000D02*
X0000650000Y0001500000D01*
X0001125000Y0001875000D02*
X0001150000Y0001875000D01*
X0000100000Y0000743700D02*
X0000181299Y0000743700D01*
X0000400000Y0000200000D02*
X0000500000Y0000200000D01*
X0000250000Y0000350000D02*
X0000400000Y0000200000D01*
X0000250000Y0000675000D02*
X0000250000Y0000350000D01*
X0000181299Y0000743700D02*
X0000250000Y0000675000D01*
X0000100000Y0001343700D02*
X0000156299Y0001343700D01*
X0000156299Y0001343700D02*
X0000250000Y0001250000D01*
X0000193700Y0000743700D02*
X0000100000Y0000743700D01*
X0000250000Y0000800000D02*
X0000193700Y0000743700D01*
X0000250000Y0001250000D02*
X0000250000Y0000800000D01*
X0000550000Y0002125000D02*
X0000550000Y0002075000D01*
X0000550000Y0002075000D02*
X0000600000Y0002025000D01*
X0000600000Y0002025000D02*
X0000600000Y0001950000D01*
X0001350000Y0000550000D02*
X0001350000Y0000600000D01*
X0001125000Y0000175000D02*
X0001200000Y0000100000D01*
X0001200000Y0000100000D02*
X0001300000Y0000100000D01*
X0001350000Y0000150000D02*
X0001350000Y0000550000D01*
X0001300000Y0000100000D02*
X0001350000Y0000150000D01*
X0000956299Y0000175000D02*
X0001125000Y0000175000D01*
X0001350000Y0001050000D02*
X0001400000Y0001100000D01*
X0001350000Y0000875000D02*
X0001350000Y0001050000D01*
X0001300000Y0000825000D02*
X0001350000Y0000875000D01*
X0001300000Y0000650000D02*
X0001300000Y0000825000D01*
X0001350000Y0000600000D02*
X0001300000Y0000650000D01*
X0001400000Y0001100000D02*
X0001425000Y0001100000D01*
X0000956299Y0000225000D02*
X0000875000Y0000225000D01*
X0000875000Y0000225000D02*
X0000700000Y0000400000D01*
X0000956299Y0000275000D02*
X0000875000Y0000275000D01*
X0000750000Y0000400000D02*
X0000775000Y0000400000D01*
X0000875000Y0000275000D02*
X0000750000Y0000400000D01*
X0000956299Y0000325000D02*
X0000875000Y0000325000D01*
X0000875000Y0000325000D02*
X0000825000Y0000375000D01*
X0000650000Y0000400000D02*
X0000700000Y0000400000D01*
X0000700000Y0000400000D02*
X0000775000Y0000400000D01*
X0000775000Y0000400000D02*
X0000800000Y0000400000D01*
X0000825000Y0000375000D02*
X0000956299Y0000375000D01*
X0000800000Y0000400000D02*
X0000825000Y0000375000D01*
X0000956299Y0000575000D02*
X0000825000Y0000575000D01*
X0000800000Y0000600000D02*
X0000650000Y0000600000D01*
X0000825000Y0000575000D02*
X0000800000Y0000600000D01*
X0000956299Y0000775000D02*
X0000875000Y0000775000D01*
X0000875000Y0000775000D02*
X0000800000Y0000700000D01*
X0000956299Y0000725000D02*
X0000875000Y0000725000D01*
X0000875000Y0000725000D02*
X0000825000Y0000675000D01*
X0000956299Y0000625000D02*
X0000875000Y0000625000D01*
X0000875000Y0000625000D02*
X0000825000Y0000675000D01*
X0000956299Y0000675000D02*
X0000825000Y0000675000D01*
X0000800000Y0000700000D02*
X0000650000Y0000700000D01*
X0000825000Y0000675000D02*
X0000800000Y0000700000D01*
X0000956299Y0000875000D02*
X0000825000Y0000875000D01*
X0000800000Y0000900000D02*
X0000650000Y0000900000D01*
X0000825000Y0000875000D02*
X0000800000Y0000900000D01*
X0000956299Y0001175000D02*
X0000850000Y0001175000D01*
X0000956299Y0001125000D02*
X0000850000Y0001125000D01*
X0000956299Y0001075000D02*
X0000875000Y0001075000D01*
X0000875000Y0001225000D02*
X0000956299Y0001225000D01*
X0000850000Y0001200000D02*
X0000875000Y0001225000D01*
X0000850000Y0001100000D02*
X0000850000Y0001125000D01*
X0000850000Y0001125000D02*
X0000850000Y0001175000D01*
X0000850000Y0001175000D02*
X0000850000Y0001200000D01*
X0000875000Y0001075000D02*
X0000850000Y0001100000D01*
X0000956299Y0001225000D02*
X0001075000Y0001225000D01*
X0001075000Y0001225000D02*
X0001100000Y0001200000D01*
X0000956299Y0001275000D02*
X0000875000Y0001275000D01*
X0000700000Y0001100000D02*
X0000650000Y0001100000D01*
X0000875000Y0001275000D02*
X0000700000Y0001100000D01*
X0000956299Y0001375000D02*
X0001025000Y0001375000D01*
X0001075000Y0001425000D02*
X0001250000Y0001425000D01*
X0001025000Y0001375000D02*
X0001075000Y0001425000D01*
X0000956299Y0000425000D02*
X0001225000Y0000425000D01*
X0001225000Y0000425000D02*
X0001250000Y0000400000D01*
X0000956299Y0000525000D02*
X0000825000Y0000525000D01*
X0000800000Y0000500000D02*
X0000650000Y0000500000D01*
X0000825000Y0000525000D02*
X0000800000Y0000500000D01*
X0000956299Y0000825000D02*
X0000825000Y0000825000D01*
X0000800000Y0000800000D02*
X0000650000Y0000800000D01*
X0000825000Y0000825000D02*
X0000800000Y0000800000D01*
X0000956299Y0000925000D02*
X0000875000Y0000925000D01*
X0000800000Y0001000000D02*
X0000650000Y0001000000D01*
X0000875000Y0000925000D02*
X0000800000Y0001000000D01*
X0001250000Y0000875000D02*
X0001250000Y0001275000D01*
X0001025000Y0001325000D02*
X0000956299Y0001325000D01*
X0001075000Y0001375000D02*
X0001025000Y0001325000D01*
X0001150000Y0001375000D02*
X0001075000Y0001375000D01*
X0001250000Y0001275000D02*
X0001150000Y0001375000D01*
X0000956299Y0001425000D02*
X0000600000Y0001425000D01*
X0000725000Y0002025000D02*
X0000650000Y0002100000D01*
X0000725000Y0001925000D02*
X0000725000Y0002025000D01*
X0000725000Y0001725000D02*
X0000725000Y0001925000D01*
X0000700000Y0001700000D02*
X0000725000Y0001725000D01*
X0000575000Y0001575000D02*
X0000700000Y0001700000D01*
X0000575000Y0001450000D02*
X0000575000Y0001575000D01*
X0000600000Y0001425000D02*
X0000575000Y0001450000D01*
X0000650000Y0002100000D02*
X0000650000Y0002125000D01*
X0000250000Y0001812204D02*
X0000250000Y0001650000D01*
X0001125000Y0000625000D02*
X0001100000Y0000625000D01*
X0001100000Y0000625000D02*
X0001050000Y0000675000D01*
X0001050000Y0000950000D02*
X0001100000Y0001000000D01*
X0001050000Y0000675000D02*
X0001050000Y0000950000D01*
X0001125000Y0000625000D02*
X0001150000Y0000625000D01*
X0001125000Y0000625000D02*
X0001100000Y0000625000D01*
X0000650000Y0001800000D02*
X0000550000Y0001800000D01*
X0000550000Y0001800000D02*
X0000500000Y0001750000D01*
X0000525000Y0001750000D02*
X0000500000Y0001750000D01*
G04 next file*
G04 #@! TF.FileFunction,Copper,L1,Top,Signal*
G04 Gerber Fmt 4.6, Leading zero omitted, Abs format (unit mm)*
G04 Created by KiCad (PCBNEW 4.0.6) date 09/25/19 08:33:56*
G01*
G04 APERTURE LIST*
G04 APERTURE END LIST*
D49*
D50*
X-0002327165Y-0002398425D02*
X0000972834Y0003051574D03*
D51*
X0000972834Y0002751574D03*
D52*
X0000422834Y0003851574D03*
D53*
X0000497834Y0003851574D03*
X0000572834Y0003851574D03*
D54*
X0001022834Y0003501574D03*
D55*
X0001122834Y0003501574D03*
X0001222834Y0003501574D03*
X0001322834Y0003501574D03*
D54*
X0001022834Y0003826574D03*
D55*
X0001122834Y0003826574D03*
X0001222834Y0003826574D03*
X0001322834Y0003826574D03*
D56*
X0002122834Y0003651574D03*
X0001922834Y0003651574D03*
D57*
X0000122834Y0003551574D03*
D58*
X0000122834Y0003651574D03*
X0000122834Y0003751574D03*
D59*
X0000747834Y0003526574D03*
D60*
X0000846259Y0003526574D03*
D59*
X0000247834Y0003526574D03*
D60*
X0000346259Y0003526574D03*
D61*
X0000372834Y0003001574D03*
D58*
X0000372834Y0002903149D03*
D62*
X0002221259Y0002901574D03*
D63*
X0002122834Y0002901574D03*
D64*
X0000547834Y0003526574D03*
X0000447834Y0003526574D03*
D65*
X0000647834Y0003526574D03*
D64*
X0001597834Y0003526574D03*
X0001497834Y0003526574D03*
D65*
X0001697834Y0003526574D03*
D66*
X0001372834Y0002501574D03*
D67*
X0001274409Y0002501574D03*
X0001175984Y0002501574D03*
X0001077559Y0002501574D03*
X0000979133Y0002501574D03*
D68*
X0000197834Y0003051574D03*
D69*
X0000197834Y0002951574D03*
X0000197834Y0002851574D03*
D70*
X0000510629Y0002651574D03*
D71*
X0000372834Y0002651574D03*
D70*
X0000810629Y0002651574D03*
D71*
X0000672834Y0002651574D03*
D72*
X0000113779Y0003204330D03*
D73*
X0002147834Y0003357874D03*
X0002047834Y0003357874D03*
X0001947834Y0003357874D03*
X0001847834Y0003357874D03*
X0001747834Y0003357874D03*
X0001647834Y0003357874D03*
X0001547834Y0003357874D03*
X0001447834Y0003357874D03*
X0001347834Y0003357874D03*
X0001247834Y0003357874D03*
X0001147834Y0003357874D03*
X0001047834Y0003357874D03*
X0000947834Y0003357874D03*
X0000847834Y0003357874D03*
X0000747834Y0003357874D03*
X0000647834Y0003357874D03*
X0000547834Y0003357874D03*
X0000447834Y0003357874D03*
X0000347834Y0003357874D03*
X0000247834Y0003357874D03*
X0002097834Y0003357874D03*
X0001997834Y0003357874D03*
X0001897834Y0003357874D03*
X0001797834Y0003357874D03*
X0001697834Y0003357874D03*
X0001597834Y0003357874D03*
X0001497834Y0003357874D03*
X0001397834Y0003357874D03*
X0001297834Y0003357874D03*
X0001197834Y0003357874D03*
X0001097834Y0003357874D03*
X0000997834Y0003357874D03*
X0000897834Y0003357874D03*
X0000797834Y0003357874D03*
X0000697834Y0003357874D03*
X0000597834Y0003357874D03*
X0000497834Y0003357874D03*
X0000397834Y0003357874D03*
X0000297834Y0003357874D03*
X0000197834Y0003357874D03*
D72*
X0002231889Y0003204330D03*
D74*
X0001922834Y0003051574D03*
D75*
X0001122834Y0002751574D03*
X0001822834Y0003051574D03*
X0001222834Y0002751574D03*
X0001722834Y0003051574D03*
X0001322834Y0002751574D03*
X0001622834Y0003051574D03*
X0001422834Y0002751574D03*
X0001522834Y0003051574D03*
X0001522834Y0002751574D03*
X0001422834Y0003051574D03*
X0001622834Y0002751574D03*
X0001322834Y0003051574D03*
X0001722834Y0002751574D03*
X0001222834Y0003051574D03*
X0001822834Y0002751574D03*
X0001122834Y0003051574D03*
X0001922834Y0002751574D03*
D66*
X0001972834Y0002501574D03*
D67*
X0001874409Y0002501574D03*
X0001775984Y0002501574D03*
X0001677559Y0002501574D03*
X0001579133Y0002501574D03*
D50*
X0000772834Y0002901574D03*
D51*
X0000672834Y0002901574D03*
X0000572834Y0002901574D03*
D76*
X0000522834Y0003051574D03*
X0000822834Y0003051574D03*
X0001747834Y0003651574D03*
X0001447834Y0003651574D03*
X0000597834Y0003651574D03*
X0000897834Y0003651574D03*
D77*
X0000572834Y0003851574D02*
X0000572834Y0003801574D01*
X0000572834Y0003801574D02*
X0000346259Y0003575000D01*
X0000346259Y0003575000D02*
X0000346259Y0003526574D01*
X0000697834Y0003626574D02*
X0000672834Y0003601574D01*
X0000697834Y0003676574D02*
X0000697834Y0003626574D01*
X0000572834Y0003801574D02*
X0000697834Y0003676574D01*
X0000846259Y0003526574D02*
X0000846259Y0003578149D01*
X0000647834Y0003576574D02*
X0000647834Y0003526574D01*
X0000672834Y0003601574D02*
X0000647834Y0003576574D01*
X0000822834Y0003601574D02*
X0000672834Y0003601574D01*
X0000846259Y0003578149D02*
X0000822834Y0003601574D01*
X0000346259Y0003526574D02*
X0000346259Y0003550000D01*
X0000347834Y0003501574D02*
X0000347834Y0003525000D01*
X0000347834Y0003525000D02*
X0000346259Y0003526574D01*
X0000647834Y0003526574D02*
X0000647834Y0003551574D01*
X0000397834Y0003357874D02*
X0000397834Y0003426574D01*
X0000397834Y0003426574D02*
X0000347834Y0003476574D01*
X0000347834Y0003357874D02*
X0000347834Y0003276574D01*
X0000347834Y0003276574D02*
X0000397834Y0003226574D01*
X0000297834Y0003357874D02*
X0000297834Y0003276574D01*
X0000297834Y0003276574D02*
X0000347834Y0003226574D01*
X0000247834Y0003357874D02*
X0000247834Y0003276574D01*
X0000247834Y0003276574D02*
X0000297834Y0003226574D01*
X0000447834Y0003357874D02*
X0000447834Y0003251574D01*
X0000447834Y0003251574D02*
X0000422834Y0003226574D01*
X0000422834Y0003226574D02*
X0000397834Y0003226574D01*
X0000197834Y0003251574D02*
X0000197834Y0003357874D01*
X0000222834Y0003226574D02*
X0000197834Y0003251574D01*
X0000397834Y0003226574D02*
X0000347834Y0003226574D01*
X0000347834Y0003226574D02*
X0000297834Y0003226574D01*
X0000297834Y0003226574D02*
X0000222834Y0003226574D01*
X0001122834Y0003051574D02*
X0001122834Y0003026574D01*
X0001122834Y0003026574D02*
X0000847834Y0002751574D01*
X0000524409Y0002751574D02*
X0000372834Y0002903149D01*
X0000847834Y0002751574D02*
X0000524409Y0002751574D01*
X0002231889Y0003204330D02*
X0002231889Y0003160629D01*
X0002231889Y0003160629D02*
X0001972834Y0002901574D01*
X0001122834Y0002976574D02*
X0001122834Y0003051574D01*
X0001197834Y0002901574D02*
X0001122834Y0002976574D01*
X0001972834Y0002901574D02*
X0001197834Y0002901574D01*
X0002221259Y0002901574D02*
X0002221259Y0003193700D01*
X0002221259Y0003193700D02*
X0002231889Y0003204330D01*
X0001021259Y0003503149D02*
X0001022834Y0003501574D01*
X0000113779Y0003204330D02*
X0000113779Y0002885629D01*
X0000147834Y0002851574D02*
X0000197834Y0002851574D01*
X0000113779Y0002885629D02*
X0000147834Y0002851574D01*
X0000372834Y0002903149D02*
X0000324409Y0002903149D01*
X0000324409Y0002903149D02*
X0000272834Y0002851574D01*
X0000272834Y0002851574D02*
X0000197834Y0002851574D01*
X0000372834Y0002651574D02*
X0000372834Y0002903149D01*
X0000347834Y0003357874D02*
X0000347834Y0003501574D01*
X0000347834Y0003501574D02*
X0000347834Y0003503149D01*
X0000197834Y0003357874D02*
X0000197834Y0003288385D01*
X0000197834Y0003288385D02*
X0000113779Y0003204330D01*
X0000347834Y0003476574D02*
X0000347834Y0003503149D01*
X0000597834Y0003357874D02*
X0000597834Y0003426574D01*
X0000447834Y0003476574D02*
X0000447834Y0003526574D01*
X0000472834Y0003451574D02*
X0000447834Y0003476574D01*
X0000572834Y0003451574D02*
X0000472834Y0003451574D01*
X0000597834Y0003426574D02*
X0000572834Y0003451574D01*
X0000747834Y0003526574D02*
X0000747834Y0003501574D01*
X0000747834Y0003501574D02*
X0000747834Y0003357874D01*
X0000847834Y0003357874D02*
X0000847834Y0003126574D01*
X0000847834Y0003126574D02*
X0000797834Y0003076574D01*
X0000797834Y0003076574D02*
X0000797834Y0003101574D01*
X0000797834Y0003357874D02*
X0000797834Y0003101574D01*
X0000797834Y0003101574D02*
X0000797834Y0003076574D01*
X0000797834Y0003076574D02*
X0000822834Y0003051574D01*
X0000747834Y0003357874D02*
X0000747834Y0003126574D01*
X0000697834Y0003357874D02*
X0000697834Y0003176574D01*
X0000647834Y0003357874D02*
X0000647834Y0003226574D01*
X0000597834Y0003357874D02*
X0000597834Y0003276574D01*
X0000597834Y0003276574D02*
X0000647834Y0003226574D01*
X0000647834Y0003226574D02*
X0000697834Y0003176574D01*
X0000697834Y0003176574D02*
X0000747834Y0003126574D01*
X0000747834Y0003126574D02*
X0000822834Y0003051574D01*
X0000447834Y0003526574D02*
X0000447834Y0003551574D01*
X0001579133Y0002501574D02*
X0001579133Y0002582874D01*
X0002122834Y0002801574D02*
X0002122834Y0002901574D01*
X0001972834Y0002651574D02*
X0002122834Y0002801574D01*
X0001647834Y0002651574D02*
X0001972834Y0002651574D01*
X0001579133Y0002582874D02*
X0001647834Y0002651574D01*
X0000979133Y0002501574D02*
X0000979133Y0002557874D01*
X0000979133Y0002557874D02*
X0001072834Y0002651574D01*
X0001579133Y0002595275D02*
X0001579133Y0002501574D01*
X0001522834Y0002651574D02*
X0001579133Y0002595275D01*
X0001072834Y0002651574D02*
X0001522834Y0002651574D01*
X0000197834Y0002951574D02*
X0000247834Y0002951574D01*
X0000247834Y0002951574D02*
X0000297834Y0003001574D01*
X0000297834Y0003001574D02*
X0000372834Y0003001574D01*
X0001772834Y0003751574D02*
X0001722834Y0003751574D01*
X0002147834Y0003526574D02*
X0002222834Y0003601574D01*
X0002222834Y0003601574D02*
X0002222834Y0003701574D01*
X0002172834Y0003751574D02*
X0001772834Y0003751574D01*
X0002222834Y0003701574D02*
X0002172834Y0003751574D01*
X0002147834Y0003357874D02*
X0002147834Y0003526574D01*
X0001272834Y0003751574D02*
X0001222834Y0003801574D01*
X0001447834Y0003751574D02*
X0001272834Y0003751574D01*
X0001497834Y0003701574D02*
X0001447834Y0003751574D01*
X0001672834Y0003701574D02*
X0001497834Y0003701574D01*
X0001722834Y0003751574D02*
X0001672834Y0003701574D01*
X0001222834Y0003801574D02*
X0001222834Y0003826574D01*
X0002097834Y0003357874D02*
X0002097834Y0003276574D01*
X0002097834Y0003276574D02*
X0001922834Y0003101574D01*
X0002047834Y0003357874D02*
X0002047834Y0003276574D01*
X0001922834Y0003151574D02*
X0001922834Y0003176574D01*
X0002047834Y0003276574D02*
X0001922834Y0003151574D01*
X0001997834Y0003357874D02*
X0001997834Y0003276574D01*
X0001997834Y0003276574D02*
X0001947834Y0003226574D01*
X0001922834Y0003051574D02*
X0001922834Y0003101574D01*
X0001922834Y0003101574D02*
X0001922834Y0003176574D01*
X0001922834Y0003176574D02*
X0001922834Y0003201574D01*
X0001947834Y0003226574D02*
X0001947834Y0003357874D01*
X0001922834Y0003201574D02*
X0001947834Y0003226574D01*
X0001747834Y0003357874D02*
X0001747834Y0003226574D01*
X0001722834Y0003201574D02*
X0001722834Y0003051574D01*
X0001747834Y0003226574D02*
X0001722834Y0003201574D01*
X0001547834Y0003357874D02*
X0001547834Y0003276574D01*
X0001547834Y0003276574D02*
X0001622834Y0003201574D01*
X0001597834Y0003357874D02*
X0001597834Y0003276574D01*
X0001597834Y0003276574D02*
X0001647834Y0003226574D01*
X0001697834Y0003357874D02*
X0001697834Y0003276574D01*
X0001697834Y0003276574D02*
X0001647834Y0003226574D01*
X0001647834Y0003357874D02*
X0001647834Y0003226574D01*
X0001622834Y0003201574D02*
X0001622834Y0003051574D01*
X0001647834Y0003226574D02*
X0001622834Y0003201574D01*
X0001447834Y0003357874D02*
X0001447834Y0003226574D01*
X0001422834Y0003201574D02*
X0001422834Y0003051574D01*
X0001447834Y0003226574D02*
X0001422834Y0003201574D01*
X0001147834Y0003357874D02*
X0001147834Y0003251574D01*
X0001197834Y0003357874D02*
X0001197834Y0003251574D01*
X0001247834Y0003357874D02*
X0001247834Y0003276574D01*
X0001097834Y0003276574D02*
X0001097834Y0003357874D01*
X0001122834Y0003251574D02*
X0001097834Y0003276574D01*
X0001222834Y0003251574D02*
X0001197834Y0003251574D01*
X0001197834Y0003251574D02*
X0001147834Y0003251574D01*
X0001147834Y0003251574D02*
X0001122834Y0003251574D01*
X0001247834Y0003276574D02*
X0001222834Y0003251574D01*
X0001097834Y0003357874D02*
X0001097834Y0003476574D01*
X0001097834Y0003476574D02*
X0001122834Y0003501574D01*
X0001047834Y0003357874D02*
X0001047834Y0003276574D01*
X0001222834Y0003101574D02*
X0001222834Y0003051574D01*
X0001047834Y0003276574D02*
X0001222834Y0003101574D01*
X0000947834Y0003357874D02*
X0000947834Y0003426574D01*
X0000897834Y0003476574D02*
X0000897834Y0003651574D01*
X0000947834Y0003426574D02*
X0000897834Y0003476574D01*
X0001897834Y0003357874D02*
X0001897834Y0003626574D01*
X0001897834Y0003626574D02*
X0001922834Y0003651574D01*
X0001797834Y0003357874D02*
X0001797834Y0003226574D01*
X0001822834Y0003201574D02*
X0001822834Y0003051574D01*
X0001797834Y0003226574D02*
X0001822834Y0003201574D01*
X0001497834Y0003357874D02*
X0001497834Y0003226574D01*
X0001522834Y0003201574D02*
X0001522834Y0003051574D01*
X0001497834Y0003226574D02*
X0001522834Y0003201574D01*
X0001397834Y0003357874D02*
X0001397834Y0003276574D01*
X0001322834Y0003201574D02*
X0001322834Y0003051574D01*
X0001397834Y0003276574D02*
X0001322834Y0003201574D01*
X0001447834Y0003651574D02*
X0001047834Y0003651574D01*
X0000997834Y0003426574D02*
X0000997834Y0003357874D01*
X0000947834Y0003476574D02*
X0000997834Y0003426574D01*
X0000947834Y0003551574D02*
X0000947834Y0003476574D01*
X0001047834Y0003651574D02*
X0000947834Y0003551574D01*
X0000897834Y0003357874D02*
X0000897834Y0003001574D01*
X0000297834Y0003126574D02*
X0000222834Y0003051574D01*
X0000397834Y0003126574D02*
X0000297834Y0003126574D01*
X0000597834Y0003126574D02*
X0000397834Y0003126574D01*
X0000622834Y0003101574D02*
X0000597834Y0003126574D01*
X0000747834Y0002976574D02*
X0000622834Y0003101574D01*
X0000872834Y0002976574D02*
X0000747834Y0002976574D01*
X0000897834Y0003001574D02*
X0000872834Y0002976574D01*
X0000222834Y0003051574D02*
X0000197834Y0003051574D01*
X0000510629Y0002651574D02*
X0000672834Y0002651574D01*
X0001697834Y0003526574D02*
X0001697834Y0003501574D01*
X0001697834Y0003501574D02*
X0001647834Y0003451574D01*
X0001372834Y0003451574D02*
X0001322834Y0003501574D01*
X0001647834Y0003451574D02*
X0001372834Y0003451574D01*
X0001697834Y0003526574D02*
X0001697834Y0003551574D01*
X0001697834Y0003526574D02*
X0001697834Y0003501574D01*
X0000522834Y0003051574D02*
X0000522834Y0002951574D01*
X0000522834Y0002951574D02*
X0000572834Y0002901574D01*
X0000572834Y0002926574D02*
X0000572834Y0002901574D01*
G04 next file*
G04 #@! TF.FileFunction,Copper,L1,Top,Signal*
G04 Gerber Fmt 4.6, Leading zero omitted, Abs format (unit mm)*
G04 Created by KiCad (PCBNEW 4.0.6) date 09/25/19 08:33:56*
G01*
G04 APERTURE LIST*
G04 APERTURE END LIST*
D78*
D79*
X-0003185826Y0004650000D02*
X0002264173Y0001350000D03*
D80*
X0001964173Y0001350000D03*
D81*
X0003064173Y0001900000D03*
D82*
X0003064173Y0001825000D03*
X0003064173Y0001750000D03*
D83*
X0002714173Y0001300000D03*
D84*
X0002714173Y0001200000D03*
X0002714173Y0001100000D03*
X0002714173Y0001000000D03*
D83*
X0003039173Y0001300000D03*
D84*
X0003039173Y0001200000D03*
X0003039173Y0001100000D03*
X0003039173Y0001000000D03*
D85*
X0002864173Y0000200000D03*
X0002864173Y0000400000D03*
D86*
X0002764173Y0002200000D03*
D87*
X0002864173Y0002200000D03*
X0002964173Y0002200000D03*
D88*
X0002739173Y0001575000D03*
D89*
X0002739173Y0001476574D03*
D88*
X0002739173Y0002075000D03*
D89*
X0002739173Y0001976574D03*
D90*
X0002214173Y0001950000D03*
D87*
X0002115748Y0001950000D03*
D91*
X0002114173Y0000101574D03*
D92*
X0002114173Y0000200000D03*
D93*
X0002739173Y0001775000D03*
X0002739173Y0001875000D03*
D94*
X0002739173Y0001675000D03*
D93*
X0002739173Y0000725000D03*
X0002739173Y0000825000D03*
D94*
X0002739173Y0000625000D03*
D95*
X0001714173Y0000950000D03*
D96*
X0001714173Y0001048425D03*
X0001714173Y0001146850D03*
X0001714173Y0001245275D03*
X0001714173Y0001343700D03*
D97*
X0002264173Y0002125000D03*
D98*
X0002164173Y0002125000D03*
X0002064173Y0002125000D03*
D99*
X0001864173Y0001812204D03*
D100*
X0001864173Y0001950000D03*
D99*
X0001864173Y0001512204D03*
D100*
X0001864173Y0001650000D03*
D101*
X0002416929Y0002209055D03*
D102*
X0002570472Y0000175000D03*
X0002570472Y0000275000D03*
X0002570472Y0000375000D03*
X0002570472Y0000475000D03*
X0002570472Y0000575000D03*
X0002570472Y0000675000D03*
X0002570472Y0000775000D03*
X0002570472Y0000875000D03*
X0002570472Y0000975000D03*
X0002570472Y0001075000D03*
X0002570472Y0001175000D03*
X0002570472Y0001275000D03*
X0002570472Y0001375000D03*
X0002570472Y0001475000D03*
X0002570472Y0001575000D03*
X0002570472Y0001675000D03*
X0002570472Y0001775000D03*
X0002570472Y0001875000D03*
X0002570472Y0001975000D03*
X0002570472Y0002075000D03*
X0002570472Y0000225000D03*
X0002570472Y0000325000D03*
X0002570472Y0000425000D03*
X0002570472Y0000525000D03*
X0002570472Y0000625000D03*
X0002570472Y0000725000D03*
X0002570472Y0000825000D03*
X0002570472Y0000925000D03*
X0002570472Y0001025000D03*
X0002570472Y0001125000D03*
X0002570472Y0001225000D03*
X0002570472Y0001325000D03*
X0002570472Y0001425000D03*
X0002570472Y0001525000D03*
X0002570472Y0001625000D03*
X0002570472Y0001725000D03*
X0002570472Y0001825000D03*
X0002570472Y0001925000D03*
X0002570472Y0002025000D03*
X0002570472Y0002125000D03*
D101*
X0002416929Y0000090944D03*
D103*
X0002264173Y0000400000D03*
D104*
X0001964173Y0001200000D03*
X0002264173Y0000500000D03*
X0001964173Y0001100000D03*
X0002264173Y0000600000D03*
X0001964173Y0001000000D03*
X0002264173Y0000700000D03*
X0001964173Y0000900000D03*
X0002264173Y0000800000D03*
X0001964173Y0000800000D03*
X0002264173Y0000900000D03*
X0001964173Y0000700000D03*
X0002264173Y0001000000D03*
X0001964173Y0000600000D03*
X0002264173Y0001100000D03*
X0001964173Y0000500000D03*
X0002264173Y0001200000D03*
X0001964173Y0000400000D03*
D95*
X0001714173Y0000350000D03*
D96*
X0001714173Y0000448425D03*
X0001714173Y0000546850D03*
X0001714173Y0000645275D03*
X0001714173Y0000743700D03*
D79*
X0002114173Y0001550000D03*
D80*
X0002114173Y0001650000D03*
X0002114173Y0001750000D03*
D105*
X0002264173Y0001800000D03*
X0002264173Y0001500000D03*
X0002864173Y0000575000D03*
X0002864173Y0000875000D03*
X0002864173Y0001725000D03*
X0002864173Y0001425000D03*
D106*
X0003064173Y0001750000D02*
X0003014173Y0001750000D01*
X0003014173Y0001750000D02*
X0002787598Y0001976574D01*
X0002787598Y0001976574D02*
X0002739173Y0001976574D01*
X0002839173Y0001625000D02*
X0002814173Y0001650000D01*
X0002889173Y0001625000D02*
X0002839173Y0001625000D01*
X0003014173Y0001750000D02*
X0002889173Y0001625000D01*
X0002739173Y0001476574D02*
X0002790748Y0001476574D01*
X0002789173Y0001675000D02*
X0002739173Y0001675000D01*
X0002814173Y0001650000D02*
X0002789173Y0001675000D01*
X0002814173Y0001500000D02*
X0002814173Y0001650000D01*
X0002790748Y0001476574D02*
X0002814173Y0001500000D01*
X0002739173Y0001976574D02*
X0002762598Y0001976574D01*
X0002714173Y0001975000D02*
X0002737598Y0001975000D01*
X0002737598Y0001975000D02*
X0002739173Y0001976574D01*
X0002739173Y0001675000D02*
X0002764173Y0001675000D01*
X0002570472Y0001925000D02*
X0002639173Y0001925000D01*
X0002639173Y0001925000D02*
X0002689173Y0001975000D01*
X0002570472Y0001975000D02*
X0002489173Y0001975000D01*
X0002489173Y0001975000D02*
X0002439173Y0001925000D01*
X0002570472Y0002025000D02*
X0002489173Y0002025000D01*
X0002489173Y0002025000D02*
X0002439173Y0001975000D01*
X0002570472Y0002075000D02*
X0002489173Y0002075000D01*
X0002489173Y0002075000D02*
X0002439173Y0002025000D01*
X0002570472Y0001875000D02*
X0002464173Y0001875000D01*
X0002464173Y0001875000D02*
X0002439173Y0001900000D01*
X0002439173Y0001900000D02*
X0002439173Y0001925000D01*
X0002464173Y0002125000D02*
X0002570472Y0002125000D01*
X0002439173Y0002100000D02*
X0002464173Y0002125000D01*
X0002439173Y0001925000D02*
X0002439173Y0001975000D01*
X0002439173Y0001975000D02*
X0002439173Y0002025000D01*
X0002439173Y0002025000D02*
X0002439173Y0002100000D01*
X0002264173Y0001200000D02*
X0002239173Y0001200000D01*
X0002239173Y0001200000D02*
X0001964173Y0001475000D01*
X0001964173Y0001798425D02*
X0002115748Y0001950000D01*
X0001964173Y0001475000D02*
X0001964173Y0001798425D01*
X0002416929Y0000090944D02*
X0002373228Y0000090944D01*
X0002373228Y0000090944D02*
X0002114173Y0000350000D01*
X0002189173Y0001200000D02*
X0002264173Y0001200000D01*
X0002114173Y0001125000D02*
X0002189173Y0001200000D01*
X0002114173Y0000350000D02*
X0002114173Y0001125000D01*
X0002114173Y0000101574D02*
X0002406299Y0000101574D01*
X0002406299Y0000101574D02*
X0002416929Y0000090944D01*
X0002715748Y0001301574D02*
X0002714173Y0001300000D01*
X0002416929Y0002209055D02*
X0002098228Y0002209055D01*
X0002064173Y0002175000D02*
X0002064173Y0002125000D01*
X0002098228Y0002209055D02*
X0002064173Y0002175000D01*
X0002115748Y0001950000D02*
X0002115748Y0001998425D01*
X0002115748Y0001998425D02*
X0002064173Y0002050000D01*
X0002064173Y0002050000D02*
X0002064173Y0002125000D01*
X0001864173Y0001950000D02*
X0002115748Y0001950000D01*
X0002570472Y0001975000D02*
X0002714173Y0001975000D01*
X0002714173Y0001975000D02*
X0002715748Y0001975000D01*
X0002570472Y0002125000D02*
X0002500984Y0002125000D01*
X0002500984Y0002125000D02*
X0002416929Y0002209055D01*
X0002689173Y0001975000D02*
X0002715748Y0001975000D01*
X0002570472Y0001725000D02*
X0002639173Y0001725000D01*
X0002689173Y0001875000D02*
X0002739173Y0001875000D01*
X0002664173Y0001850000D02*
X0002689173Y0001875000D01*
X0002664173Y0001750000D02*
X0002664173Y0001850000D01*
X0002639173Y0001725000D02*
X0002664173Y0001750000D01*
X0002739173Y0001575000D02*
X0002714173Y0001575000D01*
X0002714173Y0001575000D02*
X0002570472Y0001575000D01*
X0002570472Y0001475000D02*
X0002339173Y0001475000D01*
X0002339173Y0001475000D02*
X0002289173Y0001525000D01*
X0002289173Y0001525000D02*
X0002314173Y0001525000D01*
X0002570472Y0001525000D02*
X0002314173Y0001525000D01*
X0002314173Y0001525000D02*
X0002289173Y0001525000D01*
X0002289173Y0001525000D02*
X0002264173Y0001500000D01*
X0002570472Y0001575000D02*
X0002339173Y0001575000D01*
X0002570472Y0001625000D02*
X0002389173Y0001625000D01*
X0002570472Y0001675000D02*
X0002439173Y0001675000D01*
X0002570472Y0001725000D02*
X0002489173Y0001725000D01*
X0002489173Y0001725000D02*
X0002439173Y0001675000D01*
X0002439173Y0001675000D02*
X0002389173Y0001625000D01*
X0002389173Y0001625000D02*
X0002339173Y0001575000D01*
X0002339173Y0001575000D02*
X0002264173Y0001500000D01*
X0002739173Y0001875000D02*
X0002764173Y0001875000D01*
X0001714173Y0000743700D02*
X0001795472Y0000743700D01*
X0002014173Y0000200000D02*
X0002114173Y0000200000D01*
X0001864173Y0000350000D02*
X0002014173Y0000200000D01*
X0001864173Y0000675000D02*
X0001864173Y0000350000D01*
X0001795472Y0000743700D02*
X0001864173Y0000675000D01*
X0001714173Y0001343700D02*
X0001770472Y0001343700D01*
X0001770472Y0001343700D02*
X0001864173Y0001250000D01*
X0001807874Y0000743700D02*
X0001714173Y0000743700D01*
X0001864173Y0000800000D02*
X0001807874Y0000743700D01*
X0001864173Y0001250000D02*
X0001864173Y0000800000D01*
X0002164173Y0002125000D02*
X0002164173Y0002075000D01*
X0002164173Y0002075000D02*
X0002214173Y0002025000D01*
X0002214173Y0002025000D02*
X0002214173Y0001950000D01*
X0002964173Y0000550000D02*
X0002964173Y0000600000D01*
X0002739173Y0000175000D02*
X0002814173Y0000100000D01*
X0002814173Y0000100000D02*
X0002914173Y0000100000D01*
X0002964173Y0000150000D02*
X0002964173Y0000550000D01*
X0002914173Y0000100000D02*
X0002964173Y0000150000D01*
X0002570472Y0000175000D02*
X0002739173Y0000175000D01*
X0002964173Y0001050000D02*
X0003014173Y0001100000D01*
X0002964173Y0000875000D02*
X0002964173Y0001050000D01*
X0002914173Y0000825000D02*
X0002964173Y0000875000D01*
X0002914173Y0000650000D02*
X0002914173Y0000825000D01*
X0002964173Y0000600000D02*
X0002914173Y0000650000D01*
X0003014173Y0001100000D02*
X0003039173Y0001100000D01*
X0002570472Y0000225000D02*
X0002489173Y0000225000D01*
X0002489173Y0000225000D02*
X0002314173Y0000400000D01*
X0002570472Y0000275000D02*
X0002489173Y0000275000D01*
X0002364173Y0000400000D02*
X0002389173Y0000400000D01*
X0002489173Y0000275000D02*
X0002364173Y0000400000D01*
X0002570472Y0000325000D02*
X0002489173Y0000325000D01*
X0002489173Y0000325000D02*
X0002439173Y0000375000D01*
X0002264173Y0000400000D02*
X0002314173Y0000400000D01*
X0002314173Y0000400000D02*
X0002389173Y0000400000D01*
X0002389173Y0000400000D02*
X0002414173Y0000400000D01*
X0002439173Y0000375000D02*
X0002570472Y0000375000D01*
X0002414173Y0000400000D02*
X0002439173Y0000375000D01*
X0002570472Y0000575000D02*
X0002439173Y0000575000D01*
X0002414173Y0000600000D02*
X0002264173Y0000600000D01*
X0002439173Y0000575000D02*
X0002414173Y0000600000D01*
X0002570472Y0000775000D02*
X0002489173Y0000775000D01*
X0002489173Y0000775000D02*
X0002414173Y0000700000D01*
X0002570472Y0000725000D02*
X0002489173Y0000725000D01*
X0002489173Y0000725000D02*
X0002439173Y0000675000D01*
X0002570472Y0000625000D02*
X0002489173Y0000625000D01*
X0002489173Y0000625000D02*
X0002439173Y0000675000D01*
X0002570472Y0000675000D02*
X0002439173Y0000675000D01*
X0002414173Y0000700000D02*
X0002264173Y0000700000D01*
X0002439173Y0000675000D02*
X0002414173Y0000700000D01*
X0002570472Y0000875000D02*
X0002439173Y0000875000D01*
X0002414173Y0000900000D02*
X0002264173Y0000900000D01*
X0002439173Y0000875000D02*
X0002414173Y0000900000D01*
X0002570472Y0001175000D02*
X0002464173Y0001175000D01*
X0002570472Y0001125000D02*
X0002464173Y0001125000D01*
X0002570472Y0001075000D02*
X0002489173Y0001075000D01*
X0002489173Y0001225000D02*
X0002570472Y0001225000D01*
X0002464173Y0001200000D02*
X0002489173Y0001225000D01*
X0002464173Y0001100000D02*
X0002464173Y0001125000D01*
X0002464173Y0001125000D02*
X0002464173Y0001175000D01*
X0002464173Y0001175000D02*
X0002464173Y0001200000D01*
X0002489173Y0001075000D02*
X0002464173Y0001100000D01*
X0002570472Y0001225000D02*
X0002689173Y0001225000D01*
X0002689173Y0001225000D02*
X0002714173Y0001200000D01*
X0002570472Y0001275000D02*
X0002489173Y0001275000D01*
X0002314173Y0001100000D02*
X0002264173Y0001100000D01*
X0002489173Y0001275000D02*
X0002314173Y0001100000D01*
X0002570472Y0001375000D02*
X0002639173Y0001375000D01*
X0002689173Y0001425000D02*
X0002864173Y0001425000D01*
X0002639173Y0001375000D02*
X0002689173Y0001425000D01*
X0002570472Y0000425000D02*
X0002839173Y0000425000D01*
X0002839173Y0000425000D02*
X0002864173Y0000400000D01*
X0002570472Y0000525000D02*
X0002439173Y0000525000D01*
X0002414173Y0000500000D02*
X0002264173Y0000500000D01*
X0002439173Y0000525000D02*
X0002414173Y0000500000D01*
X0002570472Y0000825000D02*
X0002439173Y0000825000D01*
X0002414173Y0000800000D02*
X0002264173Y0000800000D01*
X0002439173Y0000825000D02*
X0002414173Y0000800000D01*
X0002570472Y0000925000D02*
X0002489173Y0000925000D01*
X0002414173Y0001000000D02*
X0002264173Y0001000000D01*
X0002489173Y0000925000D02*
X0002414173Y0001000000D01*
X0002864173Y0000875000D02*
X0002864173Y0001275000D01*
X0002639173Y0001325000D02*
X0002570472Y0001325000D01*
X0002689173Y0001375000D02*
X0002639173Y0001325000D01*
X0002764173Y0001375000D02*
X0002689173Y0001375000D01*
X0002864173Y0001275000D02*
X0002764173Y0001375000D01*
X0002570472Y0001425000D02*
X0002214173Y0001425000D01*
X0002339173Y0002025000D02*
X0002264173Y0002100000D01*
X0002339173Y0001925000D02*
X0002339173Y0002025000D01*
X0002339173Y0001725000D02*
X0002339173Y0001925000D01*
X0002314173Y0001700000D02*
X0002339173Y0001725000D01*
X0002189173Y0001575000D02*
X0002314173Y0001700000D01*
X0002189173Y0001450000D02*
X0002189173Y0001575000D01*
X0002214173Y0001425000D02*
X0002189173Y0001450000D01*
X0002264173Y0002100000D02*
X0002264173Y0002125000D01*
X0001864173Y0001812204D02*
X0001864173Y0001650000D01*
X0002739173Y0000625000D02*
X0002714173Y0000625000D01*
X0002714173Y0000625000D02*
X0002664173Y0000675000D01*
X0002664173Y0000950000D02*
X0002714173Y0001000000D01*
X0002664173Y0000675000D02*
X0002664173Y0000950000D01*
X0002739173Y0000625000D02*
X0002764173Y0000625000D01*
X0002739173Y0000625000D02*
X0002714173Y0000625000D01*
X0002264173Y0001800000D02*
X0002164173Y0001800000D01*
X0002164173Y0001800000D02*
X0002114173Y0001750000D01*
X0002139173Y0001750000D02*
X0002114173Y0001750000D01*
M02*