%MOIN*%
%OFA0B0*%
%FSLAX44Y44*%
%IPPOS*%
%LPD*%
%ADD10C,0*%
D10*
X00007859Y00024015D02*
X00007859Y00024015D01*
X00018602Y00024015D01*
X00018630Y00024014D01*
X00018658Y00024011D01*
X00018685Y00024006D01*
X00018713Y00023999D01*
X00018739Y00023991D01*
X00018765Y00023980D01*
X00018790Y00023967D01*
X00018814Y00023953D01*
X00018837Y00023937D01*
X00018859Y00023920D01*
X00018880Y00023901D01*
X00018899Y00023880D01*
X00018917Y00023858D01*
X00018933Y00023835D01*
X00018947Y00023811D01*
X00018960Y00023786D01*
X00018970Y00023760D01*
X00018979Y00023734D01*
X00018986Y00023707D01*
X00018992Y00023679D01*
X00019025Y00023451D01*
X00019029Y00023417D01*
X00019029Y00023383D01*
X00019027Y00023350D01*
X00019022Y00023316D01*
X00019014Y00023283D01*
X00019003Y00023251D01*
X00018990Y00023220D01*
X00018973Y00023191D01*
X00018955Y00023162D01*
X00018934Y00023136D01*
X00018911Y00023111D01*
X00018886Y00023089D01*
X00018858Y00023069D01*
X00018830Y00023051D01*
X00018800Y00023035D01*
X00018768Y00023023D01*
X00018736Y00023012D01*
X00018703Y00023005D01*
X00018670Y00023001D01*
X00018636Y00023000D01*
X00017641Y00023000D01*
X00017473Y00022990D01*
X00017307Y00022962D01*
X00017146Y00022915D01*
X00016990Y00022851D01*
X00016843Y00022770D01*
X00016706Y00022672D01*
X00016581Y00022560D01*
X00016468Y00022435D01*
X00016371Y00022298D01*
X00016290Y00022150D01*
X00016225Y00021995D01*
X00016179Y00021833D01*
X00016151Y00021667D01*
X00016141Y00021500D01*
X00016141Y00012494D01*
X00016140Y00012461D01*
X00016136Y00012428D01*
X00016129Y00012396D01*
X00016119Y00012364D01*
X00016107Y00012333D01*
X00016092Y00012304D01*
X00016075Y00012275D01*
X00016055Y00012249D01*
X00016034Y00012224D01*
X00016010Y00012201D01*
X00015984Y00012180D01*
X00015957Y00012161D01*
X00015928Y00012144D01*
X00015898Y00012130D01*
X00015867Y00012119D01*
X00015835Y00012110D01*
X00015802Y00012104D01*
X00015769Y00012101D01*
X00015736Y00012101D01*
X00015703Y00012103D01*
X00015349Y00012143D01*
X00015321Y00012147D01*
X00015293Y00012154D01*
X00015265Y00012162D01*
X00015238Y00012172D01*
X00015212Y00012185D01*
X00015187Y00012199D01*
X00015163Y00012215D01*
X00015141Y00012232D01*
X00015119Y00012251D01*
X00015100Y00012272D01*
X00015081Y00012294D01*
X00015065Y00012317D01*
X00015050Y00012342D01*
X00015037Y00012368D01*
X00015025Y00012394D01*
X00015016Y00012421D01*
X00015009Y00012449D01*
X00015004Y00012477D01*
X00015001Y00012506D01*
X00015000Y00012534D01*
X00015000Y00021500D01*
X00014990Y00021667D01*
X00014962Y00021833D01*
X00014915Y00021995D01*
X00014851Y00022150D01*
X00014770Y00022298D01*
X00014672Y00022435D01*
X00014560Y00022560D01*
X00014435Y00022672D01*
X00014298Y00022770D01*
X00014150Y00022851D01*
X00013995Y00022915D01*
X00013833Y00022962D01*
X00013667Y00022990D01*
X00013500Y00023000D01*
X00007877Y00023000D01*
X00007847Y00023001D01*
X00007818Y00023004D01*
X00007789Y00023009D01*
X00007761Y00023017D01*
X00007733Y00023027D01*
X00007706Y00023038D01*
X00007680Y00023052D01*
X00007655Y00023068D01*
X00007631Y00023085D01*
X00007609Y00023105D01*
X00007588Y00023125D01*
X00007569Y00023148D01*
X00007551Y00023171D01*
X00007536Y00023196D01*
X00007522Y00023222D01*
X00007510Y00023249D01*
X00007500Y00023277D01*
X00007493Y00023305D01*
X00007487Y00023334D01*
X00007484Y00023364D01*
X00007467Y00023592D01*
X00007466Y00023624D01*
X00007467Y00023657D01*
X00007471Y00023689D01*
X00007478Y00023720D01*
X00007488Y00023751D01*
X00007500Y00023782D01*
X00007514Y00023811D01*
X00007531Y00023838D01*
X00007550Y00023865D01*
X00007571Y00023889D01*
X00007594Y00023912D01*
X00007618Y00023933D01*
X00007645Y00023952D01*
X00007673Y00023968D01*
X00007702Y00023982D01*
X00007732Y00023994D01*
X00007763Y00024003D01*
X00007795Y00024010D01*
X00007827Y00024014D01*
X00007859Y00024015D01*
X00020767Y00024015D02*
X00020767Y00024015D01*
X00021728Y00024015D01*
X00021896Y00024025D01*
X00022062Y00024053D01*
X00022223Y00024099D01*
X00022379Y00024164D01*
X00022526Y00024245D01*
X00022663Y00024343D01*
X00022789Y00024455D01*
X00022901Y00024580D01*
X00022998Y00024717D01*
X00023079Y00024864D01*
X00023144Y00025020D01*
X00023190Y00025181D01*
X00023218Y00025347D01*
X00023228Y00025515D01*
X00023228Y00037515D01*
X00023218Y00037683D01*
X00023190Y00037849D01*
X00023144Y00038011D01*
X00023079Y00038166D01*
X00022998Y00038313D01*
X00022901Y00038450D01*
X00022789Y00038576D01*
X00022663Y00038688D01*
X00022526Y00038785D01*
X00022379Y00038867D01*
X00022223Y00038931D01*
X00022062Y00038978D01*
X00021896Y00039006D01*
X00021728Y00039015D01*
X00001728Y00039015D01*
X00001560Y00039006D01*
X00001394Y00038978D01*
X00001232Y00038931D01*
X00001077Y00038867D01*
X00000930Y00038785D01*
X00000793Y00038688D01*
X00000667Y00038576D01*
X00000555Y00038450D01*
X00000458Y00038313D01*
X00000376Y00038166D01*
X00000312Y00038011D01*
X00000265Y00037849D01*
X00000237Y00037683D01*
X00000228Y00037515D01*
X00000228Y00025515D01*
X00000237Y00025347D01*
X00000265Y00025181D01*
X00000312Y00025020D01*
X00000376Y00024864D01*
X00000458Y00024717D01*
X00000555Y00024580D01*
X00000667Y00024455D01*
X00000793Y00024343D01*
X00000930Y00024245D01*
X00001077Y00024164D01*
X00001232Y00024099D01*
X00001394Y00024053D01*
X00001560Y00024025D01*
X00001728Y00024015D01*
X00005744Y00024015D01*
X00005777Y00024014D01*
X00005809Y00024010D01*
X00005841Y00024003D01*
X00005872Y00023994D01*
X00005902Y00023982D01*
X00005931Y00023968D01*
X00005959Y00023952D01*
X00005985Y00023933D01*
X00006010Y00023912D01*
X00006033Y00023889D01*
X00006054Y00023865D01*
X00006073Y00023838D01*
X00006090Y00023811D01*
X00006104Y00023782D01*
X00006116Y00023751D01*
X00006125Y00023720D01*
X00006132Y00023689D01*
X00006136Y00023657D01*
X00006138Y00023624D01*
X00006137Y00023592D01*
X00006120Y00023364D01*
X00006116Y00023334D01*
X00006111Y00023305D01*
X00006103Y00023277D01*
X00006093Y00023249D01*
X00006082Y00023222D01*
X00006068Y00023196D01*
X00006052Y00023171D01*
X00006035Y00023148D01*
X00006016Y00023125D01*
X00005995Y00023105D01*
X00005972Y00023085D01*
X00005949Y00023068D01*
X00005924Y00023052D01*
X00005898Y00023038D01*
X00005871Y00023027D01*
X00005843Y00023017D01*
X00005815Y00023009D01*
X00005786Y00023004D01*
X00005756Y00023001D01*
X00005727Y00023000D01*
X00001500Y00023000D01*
X00001332Y00022990D01*
X00001166Y00022962D01*
X00001004Y00022915D01*
X00000849Y00022851D01*
X00000701Y00022770D01*
X00000564Y00022672D01*
X00000439Y00022560D01*
X00000327Y00022435D01*
X00000229Y00022298D01*
X00000148Y00022150D01*
X00000084Y00021995D01*
X00000037Y00021833D01*
X00000009Y00021667D01*
X00000000Y00021500D01*
X00000000Y00001499D01*
X00000009Y00001332D01*
X00000037Y00001166D01*
X00000084Y00001004D01*
X00000148Y00000849D01*
X00000229Y00000701D01*
X00000327Y00000564D01*
X00000439Y00000439D01*
X00000564Y00000327D01*
X00000701Y00000229D01*
X00000849Y00000148D01*
X00001004Y00000084D01*
X00001166Y00000037D01*
X00001332Y00000009D01*
X00001500Y00000000D01*
X00013500Y00000000D01*
X00013667Y00000009D01*
X00013833Y00000037D01*
X00013995Y00000084D01*
X00014150Y00000148D01*
X00014298Y00000229D01*
X00014435Y00000327D01*
X00014560Y00000439D01*
X00014672Y00000564D01*
X00014770Y00000701D01*
X00014851Y00000849D01*
X00014915Y00001004D01*
X00014962Y00001166D01*
X00014990Y00001332D01*
X00015000Y00001499D01*
X00015000Y00010428D01*
X00015001Y00010457D01*
X00015004Y00010485D01*
X00015009Y00010513D01*
X00015016Y00010541D01*
X00015025Y00010568D01*
X00015037Y00010595D01*
X00015050Y00010620D01*
X00015065Y00010645D01*
X00015081Y00010668D01*
X00015100Y00010690D01*
X00015119Y00010711D01*
X00015141Y00010730D01*
X00015163Y00010748D01*
X00015187Y00010763D01*
X00015212Y00010778D01*
X00015238Y00010790D01*
X00015265Y00010800D01*
X00015293Y00010809D01*
X00015321Y00010815D01*
X00015349Y00010819D01*
X00015703Y00010859D01*
X00015736Y00010862D01*
X00015769Y00010861D01*
X00015802Y00010858D01*
X00015835Y00010852D01*
X00015867Y00010843D01*
X00015898Y00010832D01*
X00015928Y00010818D01*
X00015957Y00010801D01*
X00015984Y00010783D01*
X00016010Y00010762D01*
X00016034Y00010739D01*
X00016055Y00010714D01*
X00016075Y00010687D01*
X00016092Y00010659D01*
X00016107Y00010629D01*
X00016119Y00010598D01*
X00016129Y00010566D01*
X00016136Y00010534D01*
X00016140Y00010501D01*
X00016141Y00010468D01*
X00016141Y00001499D01*
X00016151Y00001332D01*
X00016179Y00001166D01*
X00016225Y00001004D01*
X00016290Y00000849D01*
X00016371Y00000701D01*
X00016468Y00000564D01*
X00016581Y00000439D01*
X00016706Y00000327D01*
X00016843Y00000229D01*
X00016990Y00000148D01*
X00017146Y00000084D01*
X00017307Y00000037D01*
X00017473Y00000009D01*
X00017641Y00000000D01*
X00029641Y00000000D01*
X00029809Y00000009D01*
X00029975Y00000037D01*
X00030137Y00000084D01*
X00030292Y00000148D01*
X00030439Y00000229D01*
X00030576Y00000327D01*
X00030702Y00000439D01*
X00030814Y00000564D01*
X00030911Y00000701D01*
X00030993Y00000849D01*
X00031057Y00001004D01*
X00031104Y00001166D01*
X00031132Y00001332D01*
X00031141Y00001499D01*
X00031141Y00021500D01*
X00031132Y00021667D01*
X00031104Y00021833D01*
X00031057Y00021995D01*
X00030993Y00022150D01*
X00030911Y00022298D01*
X00030814Y00022435D01*
X00030702Y00022560D01*
X00030576Y00022672D01*
X00030439Y00022770D01*
X00030292Y00022851D01*
X00030137Y00022915D01*
X00029975Y00022962D01*
X00029809Y00022990D01*
X00029641Y00023000D01*
X00020733Y00023000D01*
X00020699Y00023001D01*
X00020666Y00023005D01*
X00020633Y00023012D01*
X00020601Y00023023D01*
X00020569Y00023035D01*
X00020539Y00023051D01*
X00020511Y00023069D01*
X00020484Y00023089D01*
X00020458Y00023111D01*
X00020435Y00023136D01*
X00020414Y00023162D01*
X00020396Y00023191D01*
X00020380Y00023220D01*
X00020366Y00023251D01*
X00020355Y00023283D01*
X00020347Y00023316D01*
X00020342Y00023350D01*
X00020340Y00023383D01*
X00020340Y00023417D01*
X00020344Y00023451D01*
X00020378Y00023679D01*
X00020383Y00023707D01*
X00020390Y00023734D01*
X00020399Y00023760D01*
X00020409Y00023786D01*
X00020422Y00023811D01*
X00020436Y00023835D01*
X00020452Y00023858D01*
X00020470Y00023880D01*
X00020489Y00023901D01*
X00020510Y00023920D01*
X00020532Y00023937D01*
X00020555Y00023953D01*
X00020579Y00023967D01*
X00020604Y00023980D01*
X00020630Y00023991D01*
X00020656Y00023999D01*
X00020684Y00024006D01*
X00020711Y00024011D01*
X00020739Y00024014D01*
X00020767Y00024015D01*
M02*