%MOIN*%
%OFA0B0*%
%FSLAX44Y44*%
%IPPOS*%
%LPD*%
%ADD10C,0*%
D10*
X00001000Y00000000D02*
X00001000Y00000000D01*
X00026000Y00000000D01*
X00026000Y00000499D01*
X00026999Y00001499D01*
X00026999Y00014999D01*
X00026000Y00015999D01*
X00026000Y00020000D01*
X00025987Y00020156D01*
X00025951Y00020309D01*
X00025891Y00020453D01*
X00025809Y00020587D01*
X00025707Y00020707D01*
X00025587Y00020809D01*
X00025453Y00020891D01*
X00025309Y00020951D01*
X00025156Y00020987D01*
X00024999Y00021000D01*
X00024999Y00020999D01*
X00001000Y00020999D01*
X00000843Y00020987D01*
X00000690Y00020951D01*
X00000546Y00020891D01*
X00000412Y00020809D01*
X00000292Y00020707D01*
X00000190Y00020587D01*
X00000108Y00020453D01*
X00000048Y00020309D01*
X00000012Y00020156D01*
X00000000Y00020000D01*
X00000000Y00000999D01*
X00000012Y00000843D01*
X00000048Y00000690D01*
X00000108Y00000546D01*
X00000190Y00000412D01*
X00000292Y00000292D01*
X00000412Y00000190D01*
X00000546Y00000108D01*
X00000690Y00000048D01*
X00000843Y00000012D01*
X00001000Y00000000D01*
M02*