%MOIN*%
%OFA0B0*%
%FSLAX46Y46*%
%IPPOS*%
%LPD*%
%ADD10C,0.055118110236220472*%
%ADD11O,0.055118110236220472X0.055118110236220472*%
%ADD12O,0.062992125984251982X0.062992125984251982*%
%ADD13R,0.062992125984251982X0.062992125984251982*%
%ADD14C,0.070866141732283464*%
%ADD15R,0.070866141732283464X0.070866141732283464*%
%ADD16R,0.066929133858267723X0.066929133858267723*%
%ADD17O,0.066929133858267723X0.066929133858267723*%
%ADD18O,0.051181102362204731X0.031496062992125991*%
%ADD19C,0.068503937007874022*%
%ADD20R,0.059055118110236227X0.059055118110236227*%
%ADD21C,0.059055118110236227*%
%ADD22C,0.07874015748031496*%
%ADD23C,0.031496062992125991*%
%ADD24C,0.016*%
%ADD25C,0.012000000000000002*%
%ADD36C,0.055118110236220472*%
%ADD37O,0.055118110236220472X0.055118110236220472*%
%ADD38O,0.062992125984251982X0.062992125984251982*%
%ADD39R,0.062992125984251982X0.062992125984251982*%
%ADD40C,0.070866141732283464*%
%ADD41R,0.070866141732283464X0.070866141732283464*%
%ADD42R,0.066929133858267723X0.066929133858267723*%
%ADD43O,0.066929133858267723X0.066929133858267723*%
%ADD44O,0.051181102362204731X0.031496062992125991*%
%ADD45C,0.068503937007874022*%
%ADD46R,0.059055118110236227X0.059055118110236227*%
%ADD47C,0.059055118110236227*%
%ADD48C,0.07874015748031496*%
%ADD49C,0.031496062992125991*%
%ADD50C,0.016*%
%ADD51C,0.012000000000000002*%
%LPD*%
G01*
D10*
X-0005275590Y0005236220D02*
X0000874409Y0000636220D03*
D11*
X0000674409Y0000636220D03*
D10*
X0000174409Y0001136220D03*
D11*
X0000174409Y0000936220D03*
D10*
X0000274409Y0000936220D03*
D11*
X0000274409Y0001136220D03*
D10*
X0000574409Y0000636220D03*
D11*
X0000374409Y0000636220D03*
D10*
X0000574409Y0000736220D03*
D11*
X0000374409Y0000736220D03*
D10*
X0000874409Y0000736220D03*
D11*
X0000674409Y0000736220D03*
D10*
X0000874409Y0001336220D03*
D11*
X0000674409Y0001336220D03*
D10*
X0000574409Y0001336220D03*
D11*
X0000374409Y0001336220D03*
D10*
X0000874409Y0001436220D03*
D11*
X0000674409Y0001436220D03*
D10*
X0000574409Y0001436220D03*
D11*
X0000374409Y0001436220D03*
D12*
X0001574409Y0001986220D03*
X0001674409Y0001986220D03*
X0001674409Y0000086220D03*
X0001574409Y0000086220D03*
X0000314566Y0001986220D03*
X0001474409Y0000086220D03*
X0000414566Y0001986220D03*
X0001374409Y0000086220D03*
X0000514566Y0001986220D03*
X0001274409Y0000086220D03*
X0000614566Y0001986220D03*
X0001174409Y0000086220D03*
X0000714566Y0001986220D03*
X0000974409Y0000086220D03*
X0000814566Y0001986220D03*
X0000874409Y0000086220D03*
X0000974409Y0001986220D03*
X0000774409Y0000086220D03*
X0001074409Y0001986220D03*
X0000674409Y0000086220D03*
X0001174409Y0001986220D03*
X0000574409Y0000086220D03*
X0001274409Y0001986220D03*
X0000474409Y0000086220D03*
X0001374409Y0001986220D03*
X0000374409Y0000086220D03*
X0001474409Y0001986220D03*
D13*
X0000274409Y0000086220D03*
D12*
X0000114566Y0001986220D03*
X0000214566Y0001986220D03*
D14*
X0000174409Y0001286220D03*
D15*
X0000174409Y0001386220D03*
X0000174409Y0000786220D03*
D14*
X0000174409Y0000686220D03*
D16*
X0001474409Y0001086220D03*
D17*
X0001374409Y0001086220D03*
X0001474409Y0000986220D03*
X0001374409Y0000986220D03*
G36*
G01*
X0001556692Y0000651968D02*
X0001592125Y0000651968D01*
G75*
G02*
X0001599999Y0000644094J-0000007874D01*
G01*
X0001599999Y0000628346D01*
G75*
G02*
X0001592125Y0000620472I-0000007874D01*
G01*
X0001556692Y0000620472D01*
G75*
G02*
X0001548818Y0000628346J0000007874D01*
G01*
X0001548818Y0000644094D01*
G75*
G02*
X0001556692Y0000651968I0000007874D01*
G01*
G37*
D18*
X0001574409Y0000587007D03*
X0001574409Y0000537795D03*
X0001574409Y0000488582D03*
X0001574409Y0000439370D03*
X0001574409Y0000390157D03*
G36*
G01*
X0000440157Y0001061810D02*
X0000440157Y0001110629D01*
G75*
G02*
X0000449999Y0001120472I0000009842D01*
G01*
X0000498818Y0001120472D01*
G75*
G02*
X0000508661Y0001110629J-0000009842D01*
G01*
X0000508661Y0001061810D01*
G75*
G02*
X0000498818Y0001051968I-0000009842D01*
G01*
X0000449999Y0001051968D01*
G75*
G02*
X0000440157Y0001061810J0000009842D01*
G01*
G37*
D19*
X0000574409Y0001086220D03*
G36*
G01*
X0000540157Y0000361810D02*
X0000540157Y0000410629D01*
G75*
G02*
X0000549999Y0000420472I0000009842D01*
G01*
X0000598818Y0000420472D01*
G75*
G02*
X0000608661Y0000410629J-0000009842D01*
G01*
X0000608661Y0000361810D01*
G75*
G02*
X0000598818Y0000351968I-0000009842D01*
G01*
X0000549999Y0000351968D01*
G75*
G02*
X0000540157Y0000361810J0000009842D01*
G01*
G37*
X0000674409Y0000386220D03*
X0000774409Y0000386220D03*
X0000574409Y0001686220D03*
X0000674409Y0001686220D03*
G36*
G01*
X0000808661Y0001710629D02*
X0000808661Y0001661810D01*
G75*
G02*
X0000798818Y0001651968I-0000009842D01*
G01*
X0000749999Y0001651968D01*
G75*
G02*
X0000740157Y0001661810J0000009842D01*
G01*
X0000740157Y0001710629D01*
G75*
G02*
X0000749999Y0001720472I0000009842D01*
G01*
X0000798818Y0001720472D01*
G75*
G02*
X0000808661Y0001710629J-0000009842D01*
G01*
G37*
D20*
X0001124409Y0000336220D03*
D21*
X0001024409Y0000386220D03*
X0001124409Y0000436220D03*
X0001024409Y0000486220D03*
X0001124409Y0000536220D03*
X0001024409Y0000586220D03*
X0001124409Y0000636220D03*
X0001024409Y0000686220D03*
X0001024409Y0001736220D03*
X0001124409Y0001686220D03*
X0001024409Y0001636220D03*
X0001124409Y0001586220D03*
X0001024409Y0001536220D03*
X0001124409Y0001486220D03*
X0001024409Y0001436220D03*
D20*
X0001124409Y0001386220D03*
D18*
X0001574409Y0001440157D03*
X0001574409Y0001489370D03*
X0001574409Y0001538582D03*
X0001574409Y0001587795D03*
X0001574409Y0001637007D03*
G36*
G01*
X0001556692Y0001701968D02*
X0001592125Y0001701968D01*
G75*
G02*
X0001599999Y0001694094J-0000007874D01*
G01*
X0001599999Y0001678346D01*
G75*
G02*
X0001592125Y0001670472I-0000007874D01*
G01*
X0001556692Y0001670472D01*
G75*
G02*
X0001548818Y0001678346J0000007874D01*
G01*
X0001548818Y0001694094D01*
G75*
G02*
X0001556692Y0001701968I0000007874D01*
G01*
G37*
D19*
X0000974409Y0001086220D03*
G36*
G01*
X0000840157Y0001061810D02*
X0000840157Y0001110629D01*
G75*
G02*
X0000849999Y0001120472I0000009842D01*
G01*
X0000898818Y0001120472D01*
G75*
G02*
X0000908661Y0001110629J-0000009842D01*
G01*
X0000908661Y0001061810D01*
G75*
G02*
X0000898818Y0001051968I-0000009842D01*
G01*
X0000849999Y0001051968D01*
G75*
G02*
X0000840157Y0001061810J0000009842D01*
G01*
G37*
D22*
X0000097244Y0001836220D03*
X0000274409Y0001836220D03*
X0000097244Y0001580314D03*
X0000274409Y0001580314D03*
X0000324409Y0000230314D03*
X0000147244Y0000230314D03*
X0000324409Y0000486220D03*
X0000147244Y0000486220D03*
D10*
X0001674409Y0000936220D03*
D11*
X0001674409Y0001136220D03*
X0001774409Y0001136220D03*
D10*
X0001774409Y0000936220D03*
D23*
X0001194409Y0001066220D03*
X0000924409Y0001816220D03*
X0000854409Y0001706220D03*
X0000824409Y0001256220D03*
X0000684409Y0001256220D03*
X0001194409Y0000776220D03*
X0001184409Y0000996220D03*
X0000444409Y0001196220D03*
X0001234409Y0000816220D03*
X0001214409Y0000956220D03*
X0001084409Y0000906220D03*
X0001174409Y0000736220D03*
D24*
X0000874409Y0000086220D02*
X0000774409Y0000086220D01*
X0001024409Y0000486220D02*
X0000824409Y0000486220D01*
X0000824409Y0000486220D02*
X0000774409Y0000436220D01*
X0000774409Y0000436220D02*
X0000774409Y0000386220D01*
X0000274409Y0001136220D02*
X0000274409Y0001086220D01*
X0000574409Y0001086220D02*
X0000574409Y0001036220D01*
X0000374409Y0000986220D02*
X0000274409Y0001086220D01*
X0000524409Y0000986220D02*
X0000374409Y0000986220D01*
X0000574409Y0001036220D02*
X0000524409Y0000986220D01*
X0000974409Y0001086220D02*
X0000974409Y0001036220D01*
X0000924409Y0000986220D02*
X0000524409Y0000986220D01*
X0000974409Y0001036220D02*
X0000924409Y0000986220D01*
X0000774409Y0000086220D02*
X0000774409Y0000136220D01*
X0000147244Y0000188385D02*
X0000147244Y0000230314D01*
X0000174409Y0000161220D02*
X0000147244Y0000188385D01*
X0000749409Y0000161220D02*
X0000174409Y0000161220D01*
X0000774409Y0000136220D02*
X0000749409Y0000161220D01*
X0000147244Y0000230314D02*
X0000147244Y0000486220D01*
X0000147244Y0000486220D02*
X0000147244Y0000563385D01*
X0000099409Y0000861220D02*
X0000174409Y0000936220D01*
X0000099409Y0000611220D02*
X0000099409Y0000861220D01*
X0000147244Y0000563385D02*
X0000099409Y0000611220D01*
X0000099409Y0000861220D02*
X0000099409Y0001578149D01*
X0000099409Y0001578149D02*
X0000097244Y0001580314D01*
X0000097244Y0001580314D02*
X0000097244Y0001836220D01*
X0000097244Y0001836220D02*
X0000099409Y0001836220D01*
X0000099409Y0001836220D02*
X0000199409Y0001936220D01*
X0000214566Y0001951377D02*
X0000214566Y0001986220D01*
X0000199409Y0001936220D02*
X0000214566Y0001951377D01*
X0001374409Y0000986220D02*
X0001299409Y0000986220D01*
X0001299409Y0000986220D02*
X0001249409Y0001036220D01*
X0001249409Y0001036220D02*
X0001249409Y0001086220D01*
X0001574409Y0001236220D02*
X0001574409Y0001440157D01*
X0001249409Y0001086220D02*
X0001324409Y0001161220D01*
X0001324409Y0001161220D02*
X0001499409Y0001161220D01*
X0001499409Y0001161220D02*
X0001574409Y0001236220D01*
X0001574409Y0000390157D02*
X0001603346Y0000390157D01*
X0001374409Y0000961220D02*
X0001374409Y0000986220D01*
X0001424409Y0000911220D02*
X0001374409Y0000961220D01*
X0001524409Y0000911220D02*
X0001424409Y0000911220D01*
X0001624409Y0000811220D02*
X0001524409Y0000911220D01*
X0001624409Y0000411220D02*
X0001624409Y0000811220D01*
X0001603346Y0000390157D02*
X0001624409Y0000411220D01*
X0001214409Y0001086220D02*
X0001249409Y0001086220D01*
X0001194409Y0001066220D02*
X0001214409Y0001086220D01*
D25*
X0001024409Y0000386220D02*
X0001177515Y0000386220D01*
X0001574409Y0000283114D02*
X0001574409Y0000086220D01*
X0001416177Y0000441346D02*
X0001574409Y0000283114D01*
X0001232641Y0000441346D02*
X0001416177Y0000441346D01*
X0001177515Y0000386220D02*
X0001232641Y0000441346D01*
X0001374409Y0001086220D02*
X0001424409Y0001036220D01*
X0001674409Y0000961220D02*
X0001674409Y0000936220D01*
X0001599409Y0001036220D02*
X0001674409Y0000961220D01*
X0001424409Y0001036220D02*
X0001599409Y0001036220D01*
X0001674409Y0000086220D02*
X0001674409Y0000211220D01*
X0001199409Y0000436220D02*
X0001124409Y0000436220D01*
X0001224409Y0000461220D02*
X0001199409Y0000436220D01*
X0001424409Y0000461220D02*
X0001224409Y0000461220D01*
X0001674409Y0000211220D02*
X0001424409Y0000461220D01*
X0001474409Y0000986220D02*
X0001499409Y0000986220D01*
X0001774409Y0000886220D02*
X0001774409Y0000936220D01*
X0001749409Y0000861220D02*
X0001774409Y0000886220D01*
X0001624409Y0000861220D02*
X0001749409Y0000861220D01*
X0001499409Y0000986220D02*
X0001624409Y0000861220D01*
X0000874409Y0001436220D02*
X0000874409Y0001536220D01*
X0001074409Y0001636220D02*
X0001124409Y0001686220D01*
X0001074409Y0001611220D02*
X0001074409Y0001636220D01*
X0001049409Y0001586220D02*
X0001074409Y0001611220D01*
X0000924409Y0001586220D02*
X0001049409Y0001586220D01*
X0000874409Y0001536220D02*
X0000924409Y0001586220D01*
X0000574409Y0001436220D02*
X0000574409Y0001461220D01*
X0000974409Y0001736220D02*
X0001024409Y0001736220D01*
X0000849409Y0001611220D02*
X0000974409Y0001736220D01*
X0000724409Y0001611220D02*
X0000849409Y0001611220D01*
X0000574409Y0001461220D02*
X0000724409Y0001611220D01*
D24*
X0001124409Y0000336220D02*
X0001074409Y0000286220D01*
X0001074409Y0000286220D02*
X0000724409Y0000286220D01*
X0000724409Y0000286220D02*
X0000624409Y0000286220D01*
X0000624409Y0000286220D02*
X0000574409Y0000336220D01*
X0000574409Y0000336220D02*
X0000574409Y0000386220D01*
X0000774409Y0001686220D02*
X0000774409Y0001761220D01*
X0001574409Y0001836220D02*
X0001574409Y0001686220D01*
X0001499409Y0001911220D02*
X0001574409Y0001836220D01*
X0000924409Y0001911220D02*
X0001499409Y0001911220D01*
X0000774409Y0001761220D02*
X0000924409Y0001911220D01*
D25*
X0000924409Y0001776220D02*
X0000924409Y0001816220D01*
X0000854409Y0001706220D02*
X0000924409Y0001776220D01*
X0000684409Y0001256220D02*
X0000824409Y0001256220D01*
X0001199409Y0000781220D02*
X0001194409Y0000776220D01*
X0001199409Y0000786220D02*
X0001199409Y0000781220D01*
X0001184409Y0000986220D02*
X0001184409Y0000996220D01*
X0001174409Y0000976220D02*
X0001184409Y0000986220D01*
X0001174409Y0000806220D02*
X0001174409Y0000976220D01*
X0001194409Y0000786220D02*
X0001174409Y0000806220D01*
X0001194409Y0000776220D02*
X0001194409Y0000786220D01*
X0001574409Y0001489370D02*
X0001602559Y0001489370D01*
X0001602559Y0001489370D02*
X0001624409Y0001511220D01*
X0001624409Y0001511220D02*
X0001624409Y0001836220D01*
X0001624409Y0001836220D02*
X0001527535Y0001933094D01*
X0001527535Y0001933094D02*
X0000911283Y0001933094D01*
X0000674409Y0001686220D02*
X0000674409Y0001696220D01*
X0000674409Y0001696220D02*
X0000911283Y0001933094D01*
X0000274409Y0001580314D02*
X0000274409Y0001836220D01*
X0000414566Y0001986220D02*
X0000414566Y0001926377D01*
X0000324409Y0001836220D02*
X0000274409Y0001836220D01*
X0000414566Y0001926377D02*
X0000324409Y0001836220D01*
X0000474409Y0001086220D02*
X0000454409Y0001086220D01*
X0000274409Y0001266220D02*
X0000274409Y0001580314D01*
X0000454409Y0001086220D02*
X0000274409Y0001266220D01*
X0000874409Y0001086220D02*
X0000864409Y0001086220D01*
X0000864409Y0001086220D02*
X0000754409Y0001196220D01*
X0000754409Y0001196220D02*
X0000444409Y0001196220D01*
X0000514566Y0001916377D02*
X0000514566Y0001986220D01*
X0000444409Y0001196220D02*
X0000404409Y0001196220D01*
X0000404409Y0001196220D02*
X0000314409Y0001286220D01*
X0000314409Y0001286220D02*
X0000314409Y0001496220D01*
X0000314409Y0001496220D02*
X0000354409Y0001536220D01*
X0000354409Y0001536220D02*
X0000354409Y0001756220D01*
X0000354409Y0001756220D02*
X0000514566Y0001916377D01*
X0000324409Y0000230314D02*
X0000324409Y0000486220D01*
X0000224409Y0001066220D02*
X0000274409Y0001016220D01*
X0000224409Y0001186220D02*
X0000224409Y0001066220D01*
X0000174409Y0001236220D02*
X0000224409Y0001186220D01*
X0000174409Y0001236220D02*
X0000174409Y0001286220D01*
X0001234409Y0000816220D02*
X0001234409Y0000936220D01*
X0001234409Y0000936220D02*
X0001214409Y0000956220D01*
X0001084409Y0000906220D02*
X0001026283Y0000964346D01*
X0001026283Y0000964346D02*
X0000326283Y0000964346D01*
X0000326283Y0000964346D02*
X0000274409Y0001016220D01*
X0000314566Y0001986220D02*
X0000314566Y0001976377D01*
X0000214409Y0001286220D02*
X0000174409Y0001286220D01*
X0000234409Y0001306220D02*
X0000214409Y0001286220D01*
X0000234409Y0001476220D02*
X0000234409Y0001306220D01*
X0000184409Y0001526220D02*
X0000234409Y0001476220D01*
X0000184409Y0001846220D02*
X0000184409Y0001526220D01*
X0000314566Y0001976377D02*
X0000184409Y0001846220D01*
X0000874409Y0001336220D02*
X0000899409Y0001336220D01*
X0001074409Y0001536220D02*
X0001124409Y0001586220D01*
X0001074409Y0001511220D02*
X0001074409Y0001536220D01*
X0001049409Y0001486220D02*
X0001074409Y0001511220D01*
X0000974409Y0001486220D02*
X0001049409Y0001486220D01*
X0000924409Y0001436220D02*
X0000974409Y0001486220D01*
X0000924409Y0001361220D02*
X0000924409Y0001436220D01*
X0000899409Y0001336220D02*
X0000924409Y0001361220D01*
X0000574409Y0001336220D02*
X0000624409Y0001386220D01*
X0000924409Y0001636220D02*
X0001024409Y0001636220D01*
X0000874409Y0001586220D02*
X0000924409Y0001636220D01*
X0000749409Y0001586220D02*
X0000874409Y0001586220D01*
X0000674409Y0001511220D02*
X0000749409Y0001586220D01*
X0000624409Y0001461220D02*
X0000674409Y0001511220D01*
X0000624409Y0001386220D02*
X0000624409Y0001461220D01*
X0001124409Y0000536220D02*
X0001449409Y0000536220D01*
X0001500196Y0000587007D02*
X0001574409Y0000587007D01*
X0001449409Y0000536220D02*
X0001500196Y0000587007D01*
X0001124409Y0000536220D02*
X0001124409Y0000561220D01*
X0000624409Y0000686220D02*
X0000574409Y0000636220D01*
X0000949409Y0000686220D02*
X0000624409Y0000686220D01*
X0000999409Y0000636220D02*
X0000949409Y0000686220D01*
X0001049409Y0000636220D02*
X0000999409Y0000636220D01*
X0001124409Y0000561220D02*
X0001049409Y0000636220D01*
X0001574409Y0000537795D02*
X0001500984Y0000537795D01*
X0001024409Y0000561220D02*
X0001024409Y0000586220D01*
X0001099409Y0000486220D02*
X0001024409Y0000561220D01*
X0001449409Y0000486220D02*
X0001099409Y0000486220D01*
X0001500984Y0000537795D02*
X0001449409Y0000486220D01*
X0001024409Y0000586220D02*
X0000999409Y0000586220D01*
X0001024409Y0000586220D02*
X0000974409Y0000586220D01*
X0000924409Y0000636220D02*
X0000874409Y0000636220D01*
X0000974409Y0000586220D02*
X0000924409Y0000636220D01*
X0001024409Y0000686220D02*
X0000999409Y0000686220D01*
X0000949409Y0000736220D02*
X0000874409Y0000736220D01*
X0000999409Y0000686220D02*
X0000949409Y0000736220D01*
X0001376728Y0001587795D02*
X0001224409Y0001435476D01*
X0001376728Y0001587795D02*
X0001574409Y0001587795D01*
X0001224409Y0001435476D02*
X0001224409Y0001286220D01*
X0001224409Y0001286220D02*
X0001149409Y0001211220D01*
X0001149409Y0001211220D02*
X0001149409Y0000761220D01*
X0001149409Y0000761220D02*
X0001174409Y0000736220D01*
X0001124409Y0000636220D02*
X0001124409Y0000686220D01*
X0001124409Y0000686220D02*
X0001124409Y0000711220D01*
X0000624409Y0000786220D02*
X0000574409Y0000736220D01*
X0001049409Y0000786220D02*
X0000624409Y0000786220D01*
X0001124409Y0000711220D02*
X0001049409Y0000786220D01*
X0001124409Y0000686220D02*
X0001124409Y0001236220D01*
X0001375196Y0001637007D02*
X0001199409Y0001461220D01*
X0001375196Y0001637007D02*
X0001574409Y0001637007D01*
X0001199409Y0001461220D02*
X0001199409Y0001311220D01*
X0001199409Y0001311220D02*
X0001124409Y0001236220D01*
G04 next file*
%LPD*%
G04 #@! TF.GenerationSoftware,KiCad,Pcbnew,(5.1.10)-1*
G04 #@! TF.CreationDate,2021-10-24T19:50:33-07:00*
G04 #@! TF.ProjectId,project,70726f6a-6563-4742-9e6b-696361645f70,rev?*
G04 #@! TF.SameCoordinates,Original*
G04 #@! TF.FileFunction,Copper,L1,Top*
G04 #@! TF.FilePolarity,Positive*
G04 Gerber Fmt 4.6, Leading zero omitted, Abs format (unit mm)*
G04 Created by KiCad (PCBNEW (5.1.10)-1) date 2021-10-24 19:50:33*
G01*
G04 APERTURE LIST*
G04 #@! TA.AperFunction,ComponentPad*
G04 #@! TD*
G04 #@! TA.AperFunction,ComponentPad*
G04 #@! TD*
G04 #@! TA.AperFunction,ComponentPad*
G04 #@! TD*
G04 #@! TA.AperFunction,ComponentPad*
G04 #@! TD*
G04 #@! TA.AperFunction,ComponentPad*
G04 #@! TD*
G04 #@! TA.AperFunction,ComponentPad*
G04 #@! TD*
G04 #@! TA.AperFunction,ComponentPad*
G04 #@! TD*
G04 #@! TA.AperFunction,ComponentPad*
G04 #@! TD*
G04 #@! TA.AperFunction,ComponentPad*
G04 #@! TD*
G04 #@! TA.AperFunction,ComponentPad*
G04 #@! TD*
G04 #@! TA.AperFunction,ComponentPad*
G04 #@! TD*
G04 #@! TA.AperFunction,ComponentPad*
G04 #@! TD*
G04 #@! TA.AperFunction,ComponentPad*
G04 #@! TD*
G04 #@! TA.AperFunction,ViaPad*
G04 #@! TD*
G04 #@! TA.AperFunction,Conductor*
G04 #@! TD*
G04 #@! TA.AperFunction,Conductor*
G04 #@! TD*
G04 APERTURE END LIST*
D36*
X-0003326771Y0005236220D02*
X0002823228Y0000636220D03*
D37*
X0002623228Y0000636220D03*
D36*
X0002123228Y0001136220D03*
D37*
X0002123228Y0000936220D03*
D36*
X0002223228Y0000936220D03*
D37*
X0002223228Y0001136220D03*
D36*
X0002523228Y0000636220D03*
D37*
X0002323228Y0000636220D03*
D36*
X0002523228Y0000736220D03*
D37*
X0002323228Y0000736220D03*
D36*
X0002823228Y0000736220D03*
D37*
X0002623228Y0000736220D03*
D36*
X0002823228Y0001336220D03*
D37*
X0002623228Y0001336220D03*
D36*
X0002523228Y0001336220D03*
D37*
X0002323228Y0001336220D03*
D36*
X0002823228Y0001436220D03*
D37*
X0002623228Y0001436220D03*
D36*
X0002523228Y0001436220D03*
D37*
X0002323228Y0001436220D03*
D38*
X0003523228Y0001986220D03*
X0003623228Y0001986220D03*
X0003623228Y0000086220D03*
X0003523228Y0000086220D03*
X0002263385Y0001986220D03*
X0003423228Y0000086220D03*
X0002363385Y0001986220D03*
X0003323228Y0000086220D03*
X0002463385Y0001986220D03*
X0003223228Y0000086220D03*
X0002563385Y0001986220D03*
X0003123228Y0000086220D03*
X0002663385Y0001986220D03*
X0002923228Y0000086220D03*
X0002763385Y0001986220D03*
X0002823228Y0000086220D03*
X0002923228Y0001986220D03*
X0002723228Y0000086220D03*
X0003023228Y0001986220D03*
X0002623228Y0000086220D03*
X0003123228Y0001986220D03*
X0002523228Y0000086220D03*
X0003223228Y0001986220D03*
X0002423228Y0000086220D03*
X0003323228Y0001986220D03*
X0002323228Y0000086220D03*
X0003423228Y0001986220D03*
D39*
X0002223228Y0000086220D03*
D38*
X0002063385Y0001986220D03*
X0002163385Y0001986220D03*
D40*
X0002123228Y0001286220D03*
D41*
X0002123228Y0001386220D03*
X0002123228Y0000786220D03*
D40*
X0002123228Y0000686220D03*
D42*
X0003423228Y0001086220D03*
D43*
X0003323228Y0001086220D03*
X0003423228Y0000986220D03*
X0003323228Y0000986220D03*
G04 #@! TA.AperFunction,ComponentPad*
G36*
G01*
X0003505511Y0000651968D02*
X0003540944Y0000651968D01*
G75*
G02*
X0003548818Y0000644094J-0000007874D01*
G01*
X0003548818Y0000628346D01*
G75*
G02*
X0003540944Y0000620472I-0000007874D01*
G01*
X0003505511Y0000620472D01*
G75*
G02*
X0003497637Y0000628346J0000007874D01*
G01*
X0003497637Y0000644094D01*
G75*
G02*
X0003505511Y0000651968I0000007874D01*
G01*
G37*
G04 #@! TD.AperFunction*
D44*
X0003523228Y0000587007D03*
X0003523228Y0000537795D03*
X0003523228Y0000488582D03*
X0003523228Y0000439370D03*
X0003523228Y0000390157D03*
G04 #@! TA.AperFunction,ComponentPad*
G36*
G01*
X0002388976Y0001061810D02*
X0002388976Y0001110629D01*
G75*
G02*
X0002398818Y0001120472I0000009842D01*
G01*
X0002447637Y0001120472D01*
G75*
G02*
X0002457480Y0001110629J-0000009842D01*
G01*
X0002457480Y0001061810D01*
G75*
G02*
X0002447637Y0001051968I-0000009842D01*
G01*
X0002398818Y0001051968D01*
G75*
G02*
X0002388976Y0001061810J0000009842D01*
G01*
G37*
G04 #@! TD.AperFunction*
D45*
X0002523228Y0001086220D03*
G04 #@! TA.AperFunction,ComponentPad*
G36*
G01*
X0002488976Y0000361810D02*
X0002488976Y0000410629D01*
G75*
G02*
X0002498818Y0000420472I0000009842D01*
G01*
X0002547637Y0000420472D01*
G75*
G02*
X0002557480Y0000410629J-0000009842D01*
G01*
X0002557480Y0000361810D01*
G75*
G02*
X0002547637Y0000351968I-0000009842D01*
G01*
X0002498818Y0000351968D01*
G75*
G02*
X0002488976Y0000361810J0000009842D01*
G01*
G37*
G04 #@! TD.AperFunction*
X0002623228Y0000386220D03*
X0002723228Y0000386220D03*
X0002523228Y0001686220D03*
X0002623228Y0001686220D03*
G04 #@! TA.AperFunction,ComponentPad*
G36*
G01*
X0002757480Y0001710629D02*
X0002757480Y0001661810D01*
G75*
G02*
X0002747637Y0001651968I-0000009842D01*
G01*
X0002698818Y0001651968D01*
G75*
G02*
X0002688976Y0001661810J0000009842D01*
G01*
X0002688976Y0001710629D01*
G75*
G02*
X0002698818Y0001720472I0000009842D01*
G01*
X0002747637Y0001720472D01*
G75*
G02*
X0002757480Y0001710629J-0000009842D01*
G01*
G37*
G04 #@! TD.AperFunction*
D46*
X0003073228Y0000336220D03*
D47*
X0002973228Y0000386220D03*
X0003073228Y0000436220D03*
X0002973228Y0000486220D03*
X0003073228Y0000536220D03*
X0002973228Y0000586220D03*
X0003073228Y0000636220D03*
X0002973228Y0000686220D03*
X0002973228Y0001736220D03*
X0003073228Y0001686220D03*
X0002973228Y0001636220D03*
X0003073228Y0001586220D03*
X0002973228Y0001536220D03*
X0003073228Y0001486220D03*
X0002973228Y0001436220D03*
D46*
X0003073228Y0001386220D03*
D44*
X0003523228Y0001440157D03*
X0003523228Y0001489370D03*
X0003523228Y0001538582D03*
X0003523228Y0001587795D03*
X0003523228Y0001637007D03*
G04 #@! TA.AperFunction,ComponentPad*
G36*
G01*
X0003505511Y0001701968D02*
X0003540944Y0001701968D01*
G75*
G02*
X0003548818Y0001694094J-0000007874D01*
G01*
X0003548818Y0001678346D01*
G75*
G02*
X0003540944Y0001670472I-0000007874D01*
G01*
X0003505511Y0001670472D01*
G75*
G02*
X0003497637Y0001678346J0000007874D01*
G01*
X0003497637Y0001694094D01*
G75*
G02*
X0003505511Y0001701968I0000007874D01*
G01*
G37*
G04 #@! TD.AperFunction*
D45*
X0002923228Y0001086220D03*
G04 #@! TA.AperFunction,ComponentPad*
G36*
G01*
X0002788976Y0001061810D02*
X0002788976Y0001110629D01*
G75*
G02*
X0002798818Y0001120472I0000009842D01*
G01*
X0002847637Y0001120472D01*
G75*
G02*
X0002857480Y0001110629J-0000009842D01*
G01*
X0002857480Y0001061810D01*
G75*
G02*
X0002847637Y0001051968I-0000009842D01*
G01*
X0002798818Y0001051968D01*
G75*
G02*
X0002788976Y0001061810J0000009842D01*
G01*
G37*
G04 #@! TD.AperFunction*
D48*
X0002046062Y0001836220D03*
X0002223228Y0001836220D03*
X0002046062Y0001580314D03*
X0002223228Y0001580314D03*
X0002273228Y0000230314D03*
X0002096062Y0000230314D03*
X0002273228Y0000486220D03*
X0002096062Y0000486220D03*
D36*
X0003623228Y0000936220D03*
D37*
X0003623228Y0001136220D03*
X0003723228Y0001136220D03*
D36*
X0003723228Y0000936220D03*
D49*
X0003143228Y0001066220D03*
X0002873228Y0001816220D03*
X0002803228Y0001706220D03*
X0002773228Y0001256220D03*
X0002633228Y0001256220D03*
X0003143228Y0000776220D03*
X0003133228Y0000996220D03*
X0002393228Y0001196220D03*
X0003183228Y0000816220D03*
X0003163228Y0000956220D03*
X0003033228Y0000906220D03*
X0003123228Y0000736220D03*
D50*
X0002823228Y0000086220D02*
X0002723228Y0000086220D01*
X0002973228Y0000486220D02*
X0002773228Y0000486220D01*
X0002773228Y0000486220D02*
X0002723228Y0000436220D01*
X0002723228Y0000436220D02*
X0002723228Y0000386220D01*
X0002223228Y0001136220D02*
X0002223228Y0001086220D01*
X0002523228Y0001086220D02*
X0002523228Y0001036220D01*
X0002323228Y0000986220D02*
X0002223228Y0001086220D01*
X0002473228Y0000986220D02*
X0002323228Y0000986220D01*
X0002523228Y0001036220D02*
X0002473228Y0000986220D01*
X0002923228Y0001086220D02*
X0002923228Y0001036220D01*
X0002873228Y0000986220D02*
X0002473228Y0000986220D01*
X0002923228Y0001036220D02*
X0002873228Y0000986220D01*
X0002723228Y0000086220D02*
X0002723228Y0000136220D01*
X0002096062Y0000188385D02*
X0002096062Y0000230314D01*
X0002123228Y0000161220D02*
X0002096062Y0000188385D01*
X0002698228Y0000161220D02*
X0002123228Y0000161220D01*
X0002723228Y0000136220D02*
X0002698228Y0000161220D01*
X0002096062Y0000230314D02*
X0002096062Y0000486220D01*
X0002096062Y0000486220D02*
X0002096062Y0000563385D01*
X0002048228Y0000861220D02*
X0002123228Y0000936220D01*
X0002048228Y0000611220D02*
X0002048228Y0000861220D01*
X0002096062Y0000563385D02*
X0002048228Y0000611220D01*
X0002048228Y0000861220D02*
X0002048228Y0001578149D01*
X0002048228Y0001578149D02*
X0002046062Y0001580314D01*
X0002046062Y0001580314D02*
X0002046062Y0001836220D01*
X0002046062Y0001836220D02*
X0002048228Y0001836220D01*
X0002048228Y0001836220D02*
X0002148228Y0001936220D01*
X0002163385Y0001951377D02*
X0002163385Y0001986220D01*
X0002148228Y0001936220D02*
X0002163385Y0001951377D01*
X0003323228Y0000986220D02*
X0003248228Y0000986220D01*
X0003248228Y0000986220D02*
X0003198228Y0001036220D01*
X0003198228Y0001036220D02*
X0003198228Y0001086220D01*
X0003523228Y0001236220D02*
X0003523228Y0001440157D01*
X0003198228Y0001086220D02*
X0003273228Y0001161220D01*
X0003273228Y0001161220D02*
X0003448228Y0001161220D01*
X0003448228Y0001161220D02*
X0003523228Y0001236220D01*
X0003523228Y0000390157D02*
X0003552165Y0000390157D01*
X0003323228Y0000961220D02*
X0003323228Y0000986220D01*
X0003373228Y0000911220D02*
X0003323228Y0000961220D01*
X0003473228Y0000911220D02*
X0003373228Y0000911220D01*
X0003573228Y0000811220D02*
X0003473228Y0000911220D01*
X0003573228Y0000411220D02*
X0003573228Y0000811220D01*
X0003552165Y0000390157D02*
X0003573228Y0000411220D01*
X0003163228Y0001086220D02*
X0003198228Y0001086220D01*
X0003143228Y0001066220D02*
X0003163228Y0001086220D01*
D51*
X0002973228Y0000386220D02*
X0003126334Y0000386220D01*
X0003523228Y0000283114D02*
X0003523228Y0000086220D01*
X0003364996Y0000441346D02*
X0003523228Y0000283114D01*
X0003181460Y0000441346D02*
X0003364996Y0000441346D01*
X0003126334Y0000386220D02*
X0003181460Y0000441346D01*
X0003323228Y0001086220D02*
X0003373228Y0001036220D01*
X0003623228Y0000961220D02*
X0003623228Y0000936220D01*
X0003548228Y0001036220D02*
X0003623228Y0000961220D01*
X0003373228Y0001036220D02*
X0003548228Y0001036220D01*
X0003623228Y0000086220D02*
X0003623228Y0000211220D01*
X0003148228Y0000436220D02*
X0003073228Y0000436220D01*
X0003173228Y0000461220D02*
X0003148228Y0000436220D01*
X0003373228Y0000461220D02*
X0003173228Y0000461220D01*
X0003623228Y0000211220D02*
X0003373228Y0000461220D01*
X0003423228Y0000986220D02*
X0003448228Y0000986220D01*
X0003723228Y0000886220D02*
X0003723228Y0000936220D01*
X0003698228Y0000861220D02*
X0003723228Y0000886220D01*
X0003573228Y0000861220D02*
X0003698228Y0000861220D01*
X0003448228Y0000986220D02*
X0003573228Y0000861220D01*
X0002823228Y0001436220D02*
X0002823228Y0001536220D01*
X0003023228Y0001636220D02*
X0003073228Y0001686220D01*
X0003023228Y0001611220D02*
X0003023228Y0001636220D01*
X0002998228Y0001586220D02*
X0003023228Y0001611220D01*
X0002873228Y0001586220D02*
X0002998228Y0001586220D01*
X0002823228Y0001536220D02*
X0002873228Y0001586220D01*
X0002523228Y0001436220D02*
X0002523228Y0001461220D01*
X0002923228Y0001736220D02*
X0002973228Y0001736220D01*
X0002798228Y0001611220D02*
X0002923228Y0001736220D01*
X0002673228Y0001611220D02*
X0002798228Y0001611220D01*
X0002523228Y0001461220D02*
X0002673228Y0001611220D01*
D50*
X0003073228Y0000336220D02*
X0003023228Y0000286220D01*
X0003023228Y0000286220D02*
X0002673228Y0000286220D01*
X0002673228Y0000286220D02*
X0002573228Y0000286220D01*
X0002573228Y0000286220D02*
X0002523228Y0000336220D01*
X0002523228Y0000336220D02*
X0002523228Y0000386220D01*
X0002723228Y0001686220D02*
X0002723228Y0001761220D01*
X0003523228Y0001836220D02*
X0003523228Y0001686220D01*
X0003448228Y0001911220D02*
X0003523228Y0001836220D01*
X0002873228Y0001911220D02*
X0003448228Y0001911220D01*
X0002723228Y0001761220D02*
X0002873228Y0001911220D01*
D51*
X0002873228Y0001776220D02*
X0002873228Y0001816220D01*
X0002803228Y0001706220D02*
X0002873228Y0001776220D01*
X0002633228Y0001256220D02*
X0002773228Y0001256220D01*
X0003148228Y0000781220D02*
X0003143228Y0000776220D01*
X0003148228Y0000786220D02*
X0003148228Y0000781220D01*
X0003133228Y0000986220D02*
X0003133228Y0000996220D01*
X0003123228Y0000976220D02*
X0003133228Y0000986220D01*
X0003123228Y0000806220D02*
X0003123228Y0000976220D01*
X0003143228Y0000786220D02*
X0003123228Y0000806220D01*
X0003143228Y0000776220D02*
X0003143228Y0000786220D01*
X0003523228Y0001489370D02*
X0003551377Y0001489370D01*
X0003551377Y0001489370D02*
X0003573228Y0001511220D01*
X0003573228Y0001511220D02*
X0003573228Y0001836220D01*
X0003573228Y0001836220D02*
X0003476354Y0001933094D01*
X0003476354Y0001933094D02*
X0002860102Y0001933094D01*
X0002623228Y0001686220D02*
X0002623228Y0001696220D01*
X0002623228Y0001696220D02*
X0002860102Y0001933094D01*
X0002223228Y0001580314D02*
X0002223228Y0001836220D01*
X0002363385Y0001986220D02*
X0002363385Y0001926377D01*
X0002273228Y0001836220D02*
X0002223228Y0001836220D01*
X0002363385Y0001926377D02*
X0002273228Y0001836220D01*
X0002423228Y0001086220D02*
X0002403228Y0001086220D01*
X0002223228Y0001266220D02*
X0002223228Y0001580314D01*
X0002403228Y0001086220D02*
X0002223228Y0001266220D01*
X0002823228Y0001086220D02*
X0002813228Y0001086220D01*
X0002813228Y0001086220D02*
X0002703228Y0001196220D01*
X0002703228Y0001196220D02*
X0002393228Y0001196220D01*
X0002463385Y0001916377D02*
X0002463385Y0001986220D01*
X0002393228Y0001196220D02*
X0002353228Y0001196220D01*
X0002353228Y0001196220D02*
X0002263228Y0001286220D01*
X0002263228Y0001286220D02*
X0002263228Y0001496220D01*
X0002263228Y0001496220D02*
X0002303228Y0001536220D01*
X0002303228Y0001536220D02*
X0002303228Y0001756220D01*
X0002303228Y0001756220D02*
X0002463385Y0001916377D01*
X0002273228Y0000230314D02*
X0002273228Y0000486220D01*
X0002173228Y0001066220D02*
X0002223228Y0001016220D01*
X0002173228Y0001186220D02*
X0002173228Y0001066220D01*
X0002123228Y0001236220D02*
X0002173228Y0001186220D01*
X0002123228Y0001236220D02*
X0002123228Y0001286220D01*
X0003183228Y0000816220D02*
X0003183228Y0000936220D01*
X0003183228Y0000936220D02*
X0003163228Y0000956220D01*
X0003033228Y0000906220D02*
X0002975102Y0000964346D01*
X0002975102Y0000964346D02*
X0002275102Y0000964346D01*
X0002275102Y0000964346D02*
X0002223228Y0001016220D01*
X0002263385Y0001986220D02*
X0002263385Y0001976377D01*
X0002163228Y0001286220D02*
X0002123228Y0001286220D01*
X0002183228Y0001306220D02*
X0002163228Y0001286220D01*
X0002183228Y0001476220D02*
X0002183228Y0001306220D01*
X0002133228Y0001526220D02*
X0002183228Y0001476220D01*
X0002133228Y0001846220D02*
X0002133228Y0001526220D01*
X0002263385Y0001976377D02*
X0002133228Y0001846220D01*
X0002823228Y0001336220D02*
X0002848228Y0001336220D01*
X0003023228Y0001536220D02*
X0003073228Y0001586220D01*
X0003023228Y0001511220D02*
X0003023228Y0001536220D01*
X0002998228Y0001486220D02*
X0003023228Y0001511220D01*
X0002923228Y0001486220D02*
X0002998228Y0001486220D01*
X0002873228Y0001436220D02*
X0002923228Y0001486220D01*
X0002873228Y0001361220D02*
X0002873228Y0001436220D01*
X0002848228Y0001336220D02*
X0002873228Y0001361220D01*
X0002523228Y0001336220D02*
X0002573228Y0001386220D01*
X0002873228Y0001636220D02*
X0002973228Y0001636220D01*
X0002823228Y0001586220D02*
X0002873228Y0001636220D01*
X0002698228Y0001586220D02*
X0002823228Y0001586220D01*
X0002623228Y0001511220D02*
X0002698228Y0001586220D01*
X0002573228Y0001461220D02*
X0002623228Y0001511220D01*
X0002573228Y0001386220D02*
X0002573228Y0001461220D01*
X0003073228Y0000536220D02*
X0003398228Y0000536220D01*
X0003449015Y0000587007D02*
X0003523228Y0000587007D01*
X0003398228Y0000536220D02*
X0003449015Y0000587007D01*
X0003073228Y0000536220D02*
X0003073228Y0000561220D01*
X0002573228Y0000686220D02*
X0002523228Y0000636220D01*
X0002898228Y0000686220D02*
X0002573228Y0000686220D01*
X0002948228Y0000636220D02*
X0002898228Y0000686220D01*
X0002998228Y0000636220D02*
X0002948228Y0000636220D01*
X0003073228Y0000561220D02*
X0002998228Y0000636220D01*
X0003523228Y0000537795D02*
X0003449803Y0000537795D01*
X0002973228Y0000561220D02*
X0002973228Y0000586220D01*
X0003048228Y0000486220D02*
X0002973228Y0000561220D01*
X0003398228Y0000486220D02*
X0003048228Y0000486220D01*
X0003449803Y0000537795D02*
X0003398228Y0000486220D01*
X0002973228Y0000586220D02*
X0002948228Y0000586220D01*
X0002973228Y0000586220D02*
X0002923228Y0000586220D01*
X0002873228Y0000636220D02*
X0002823228Y0000636220D01*
X0002923228Y0000586220D02*
X0002873228Y0000636220D01*
X0002973228Y0000686220D02*
X0002948228Y0000686220D01*
X0002898228Y0000736220D02*
X0002823228Y0000736220D01*
X0002948228Y0000686220D02*
X0002898228Y0000736220D01*
X0003325547Y0001587795D02*
X0003173228Y0001435476D01*
X0003325547Y0001587795D02*
X0003523228Y0001587795D01*
X0003173228Y0001435476D02*
X0003173228Y0001286220D01*
X0003173228Y0001286220D02*
X0003098228Y0001211220D01*
X0003098228Y0001211220D02*
X0003098228Y0000761220D01*
X0003098228Y0000761220D02*
X0003123228Y0000736220D01*
X0003073228Y0000636220D02*
X0003073228Y0000686220D01*
X0003073228Y0000686220D02*
X0003073228Y0000711220D01*
X0002573228Y0000786220D02*
X0002523228Y0000736220D01*
X0002998228Y0000786220D02*
X0002573228Y0000786220D01*
X0003073228Y0000711220D02*
X0002998228Y0000786220D01*
X0003073228Y0000686220D02*
X0003073228Y0001236220D01*
X0003324015Y0001637007D02*
X0003148228Y0001461220D01*
X0003324015Y0001637007D02*
X0003523228Y0001637007D01*
X0003148228Y0001461220D02*
X0003148228Y0001311220D01*
X0003148228Y0001311220D02*
X0003073228Y0001236220D01*
M02*