%MOIN*%
%OFA0B0*%
%FSLAX46Y46*%
%IPPOS*%
%LPD*%
%ADD10C,0.0039370078740157488*%
%ADD11R,0.03937007874015748X0.059055118110236227*%
%ADD12C,0.055118110236220472*%
%ADD13O,0.055118110236220472X0.055118110236220472*%
%ADD14O,0.062992125984251982X0.062992125984251982*%
%ADD15R,0.062992125984251982X0.062992125984251982*%
%ADD16C,0.070866141732283464*%
%ADD17R,0.070866141732283464X0.070866141732283464*%
%ADD18R,0.066929133858267723X0.066929133858267723*%
%ADD19O,0.066929133858267723X0.066929133858267723*%
%ADD20O,0.051181102362204731X0.031496062992125991*%
%ADD21C,0.068503937007874022*%
%ADD22C,0.12598425196850396*%
%ADD23R,0.059055118110236227X0.059055118110236227*%
%ADD24C,0.059055118110236227*%
%ADD25C,0.07874015748031496*%
%ADD36C,0.0039370078740157488*%
%ADD37R,0.03937007874015748X0.059055118110236227*%
%ADD38C,0.055118110236220472*%
%ADD39O,0.055118110236220472X0.055118110236220472*%
%ADD40O,0.062992125984251982X0.062992125984251982*%
%ADD41R,0.062992125984251982X0.062992125984251982*%
%ADD42C,0.070866141732283464*%
%ADD43R,0.070866141732283464X0.070866141732283464*%
%ADD44R,0.066929133858267723X0.066929133858267723*%
%ADD45O,0.066929133858267723X0.066929133858267723*%
%ADD46O,0.051181102362204731X0.031496062992125991*%
%ADD47C,0.068503937007874022*%
%ADD48C,0.12598425196850396*%
%ADD49R,0.059055118110236227X0.059055118110236227*%
%ADD50C,0.059055118110236227*%
%ADD51C,0.07874015748031496*%
%LPD*%
G01*
D10*
G36*
X0000509842Y0001573031D02*
G01*
X0000490157Y0001573031D01*
X0000490157Y0001549409D01*
X0000509842Y0001549409D01*
X0000509842Y0001573031D01*
G37*
G36*
X0000534842Y0000873031D02*
G01*
X0000515157Y0000873031D01*
X0000515157Y0000849409D01*
X0000534842Y0000849409D01*
X0000534842Y0000873031D01*
G37*
G36*
X0000503937Y0001590748D02*
G01*
X0000525590Y0001590748D01*
X0000525590Y0001590724D01*
X0000526556Y0001590724D01*
X0000528478Y0001590534D01*
X0000530373Y0001590158D01*
X0000532222Y0001589597D01*
X0000534007Y0001588858D01*
X0000535710Y0001587947D01*
X0000537316Y0001586874D01*
X0000538810Y0001585648D01*
X0000540176Y0001584282D01*
X0000541401Y0001582789D01*
X0000542474Y0001581183D01*
X0000543385Y0001579479D01*
X0000544124Y0001577694D01*
X0000544685Y0001575846D01*
X0000545062Y0001573951D01*
X0000545251Y0001572028D01*
X0000545251Y0001571062D01*
X0000545275Y0001571062D01*
X0000545275Y0001551377D01*
X0000545251Y0001551377D01*
X0000545251Y0001550412D01*
X0000545062Y0001548489D01*
X0000544685Y0001546594D01*
X0000544124Y0001544746D01*
X0000543385Y0001542961D01*
X0000542474Y0001541257D01*
X0000541401Y0001539651D01*
X0000540176Y0001538158D01*
X0000538810Y0001536792D01*
X0000537316Y0001535566D01*
X0000535710Y0001534493D01*
X0000534007Y0001533582D01*
X0000532222Y0001532843D01*
X0000530373Y0001532282D01*
X0000528478Y0001531905D01*
X0000526556Y0001531716D01*
X0000525590Y0001531716D01*
X0000525590Y0001531692D01*
X0000503937Y0001531692D01*
X0000503937Y0001590748D01*
G37*
D11*
X0000474409Y0001561220D03*
D10*
G36*
X0000423228Y0001531716D02*
G01*
X0000422262Y0001531716D01*
X0000420339Y0001531905D01*
X0000418445Y0001532282D01*
X0000416596Y0001532843D01*
X0000414811Y0001533582D01*
X0000413108Y0001534493D01*
X0000411501Y0001535566D01*
X0000410008Y0001536792D01*
X0000408642Y0001538158D01*
X0000407417Y0001539651D01*
X0000406343Y0001541257D01*
X0000405433Y0001542961D01*
X0000404693Y0001544746D01*
X0000404133Y0001546594D01*
X0000403756Y0001548489D01*
X0000403566Y0001550412D01*
X0000403566Y0001551377D01*
X0000403543Y0001551377D01*
X0000403543Y0001571062D01*
X0000403566Y0001571062D01*
X0000403566Y0001572028D01*
X0000403756Y0001573951D01*
X0000404133Y0001575846D01*
X0000404693Y0001577694D01*
X0000405433Y0001579479D01*
X0000406343Y0001581183D01*
X0000407417Y0001582789D01*
X0000408642Y0001584282D01*
X0000410008Y0001585648D01*
X0000411501Y0001586874D01*
X0000413108Y0001587947D01*
X0000414811Y0001588858D01*
X0000416596Y0001589597D01*
X0000418445Y0001590158D01*
X0000420339Y0001590534D01*
X0000422262Y0001590724D01*
X0000423228Y0001590724D01*
X0000423228Y0001590748D01*
X0000444881Y0001590748D01*
X0000444881Y0001531692D01*
X0000423228Y0001531692D01*
X0000423228Y0001531716D01*
G37*
G36*
X0000528937Y0000890748D02*
G01*
X0000550590Y0000890748D01*
X0000550590Y0000890724D01*
X0000551556Y0000890724D01*
X0000553478Y0000890534D01*
X0000555373Y0000890158D01*
X0000557222Y0000889597D01*
X0000559007Y0000888858D01*
X0000560710Y0000887947D01*
X0000562316Y0000886874D01*
X0000563810Y0000885648D01*
X0000565176Y0000884282D01*
X0000566401Y0000882789D01*
X0000567474Y0000881183D01*
X0000568385Y0000879479D01*
X0000569124Y0000877694D01*
X0000569685Y0000875846D01*
X0000570062Y0000873951D01*
X0000570251Y0000872028D01*
X0000570251Y0000871062D01*
X0000570275Y0000871062D01*
X0000570275Y0000851377D01*
X0000570251Y0000851377D01*
X0000570251Y0000850412D01*
X0000570062Y0000848489D01*
X0000569685Y0000846594D01*
X0000569124Y0000844746D01*
X0000568385Y0000842961D01*
X0000567474Y0000841257D01*
X0000566401Y0000839651D01*
X0000565176Y0000838158D01*
X0000563810Y0000836792D01*
X0000562316Y0000835566D01*
X0000560710Y0000834493D01*
X0000559007Y0000833582D01*
X0000557222Y0000832843D01*
X0000555373Y0000832282D01*
X0000553478Y0000831905D01*
X0000551556Y0000831716D01*
X0000550590Y0000831716D01*
X0000550590Y0000831692D01*
X0000528937Y0000831692D01*
X0000528937Y0000890748D01*
G37*
D11*
X0000499409Y0000861220D03*
D10*
G36*
X0000448228Y0000831716D02*
G01*
X0000447262Y0000831716D01*
X0000445339Y0000831905D01*
X0000443445Y0000832282D01*
X0000441596Y0000832843D01*
X0000439811Y0000833582D01*
X0000438108Y0000834493D01*
X0000436501Y0000835566D01*
X0000435008Y0000836792D01*
X0000433642Y0000838158D01*
X0000432417Y0000839651D01*
X0000431343Y0000841257D01*
X0000430433Y0000842961D01*
X0000429694Y0000844746D01*
X0000429133Y0000846594D01*
X0000428756Y0000848489D01*
X0000428567Y0000850412D01*
X0000428567Y0000851377D01*
X0000428543Y0000851377D01*
X0000428543Y0000871062D01*
X0000428567Y0000871062D01*
X0000428567Y0000872028D01*
X0000428756Y0000873951D01*
X0000429133Y0000875846D01*
X0000429694Y0000877694D01*
X0000430433Y0000879479D01*
X0000431343Y0000881183D01*
X0000432417Y0000882789D01*
X0000433642Y0000884282D01*
X0000435008Y0000885648D01*
X0000436501Y0000886874D01*
X0000438108Y0000887947D01*
X0000439811Y0000888858D01*
X0000441596Y0000889597D01*
X0000443445Y0000890158D01*
X0000445339Y0000890534D01*
X0000447262Y0000890724D01*
X0000448228Y0000890724D01*
X0000448228Y0000890748D01*
X0000469881Y0000890748D01*
X0000469881Y0000831692D01*
X0000448228Y0000831692D01*
X0000448228Y0000831716D01*
G37*
D12*
X0000874409Y0000636220D03*
D13*
X0000674409Y0000636220D03*
D12*
X0000174409Y0001136220D03*
D13*
X0000174409Y0000936220D03*
D12*
X0000274409Y0000936220D03*
D13*
X0000274409Y0001136220D03*
D12*
X0000574409Y0000636220D03*
D13*
X0000374409Y0000636220D03*
D12*
X0000574409Y0000736220D03*
D13*
X0000374409Y0000736220D03*
D12*
X0000874409Y0000736220D03*
D13*
X0000674409Y0000736220D03*
D12*
X0000874409Y0001336220D03*
D13*
X0000674409Y0001336220D03*
D12*
X0000574409Y0001336220D03*
D13*
X0000374409Y0001336220D03*
D12*
X0000874409Y0001436220D03*
D13*
X0000674409Y0001436220D03*
D12*
X0000574409Y0001436220D03*
D13*
X0000374409Y0001436220D03*
D14*
X0001574409Y0001986220D03*
X0001674409Y0001986220D03*
X0001674409Y0000086220D03*
X0001574409Y0000086220D03*
X0000314566Y0001986220D03*
X0001474409Y0000086220D03*
X0000414566Y0001986220D03*
X0001374409Y0000086220D03*
X0000514566Y0001986220D03*
X0001274409Y0000086220D03*
X0000614566Y0001986220D03*
X0001174409Y0000086220D03*
X0000714566Y0001986220D03*
X0000974409Y0000086220D03*
X0000814566Y0001986220D03*
X0000874409Y0000086220D03*
X0000974409Y0001986220D03*
X0000774409Y0000086220D03*
X0001074409Y0001986220D03*
X0000674409Y0000086220D03*
X0001174409Y0001986220D03*
X0000574409Y0000086220D03*
X0001274409Y0001986220D03*
X0000474409Y0000086220D03*
X0001374409Y0001986220D03*
X0000374409Y0000086220D03*
X0001474409Y0001986220D03*
D15*
X0000274409Y0000086220D03*
D14*
X0000114566Y0001986220D03*
X0000214566Y0001986220D03*
D16*
X0000174409Y0001286220D03*
D17*
X0000174409Y0001386220D03*
X0000174409Y0000786220D03*
D16*
X0000174409Y0000686220D03*
D18*
X0001474409Y0001086220D03*
D19*
X0001374409Y0001086220D03*
X0001474409Y0000986220D03*
X0001374409Y0000986220D03*
G36*
G01*
X0001556692Y0000651968D02*
X0001592125Y0000651968D01*
G75*
G02*
X0001599999Y0000644094J-0000007874D01*
G01*
X0001599999Y0000628346D01*
G75*
G02*
X0001592125Y0000620472I-0000007874D01*
G01*
X0001556692Y0000620472D01*
G75*
G02*
X0001548818Y0000628346J0000007874D01*
G01*
X0001548818Y0000644094D01*
G75*
G02*
X0001556692Y0000651968I0000007874D01*
G01*
G37*
D20*
X0001574409Y0000587007D03*
X0001574409Y0000537795D03*
X0001574409Y0000488582D03*
X0001574409Y0000439370D03*
X0001574409Y0000390157D03*
G36*
G01*
X0000440157Y0001061810D02*
X0000440157Y0001110629D01*
G75*
G02*
X0000449999Y0001120472I0000009842D01*
G01*
X0000498818Y0001120472D01*
G75*
G02*
X0000508661Y0001110629J-0000009842D01*
G01*
X0000508661Y0001061810D01*
G75*
G02*
X0000498818Y0001051968I-0000009842D01*
G01*
X0000449999Y0001051968D01*
G75*
G02*
X0000440157Y0001061810J0000009842D01*
G01*
G37*
D21*
X0000574409Y0001086220D03*
G36*
G01*
X0000540157Y0000361810D02*
X0000540157Y0000410629D01*
G75*
G02*
X0000549999Y0000420472I0000009842D01*
G01*
X0000598818Y0000420472D01*
G75*
G02*
X0000608661Y0000410629J-0000009842D01*
G01*
X0000608661Y0000361810D01*
G75*
G02*
X0000598818Y0000351968I-0000009842D01*
G01*
X0000549999Y0000351968D01*
G75*
G02*
X0000540157Y0000361810J0000009842D01*
G01*
G37*
X0000674409Y0000386220D03*
X0000774409Y0000386220D03*
X0000574409Y0001686220D03*
X0000674409Y0001686220D03*
G36*
G01*
X0000808661Y0001710629D02*
X0000808661Y0001661810D01*
G75*
G02*
X0000798818Y0001651968I-0000009842D01*
G01*
X0000749999Y0001651968D01*
G75*
G02*
X0000740157Y0001661810J0000009842D01*
G01*
X0000740157Y0001710629D01*
G75*
G02*
X0000749999Y0001720472I0000009842D01*
G01*
X0000798818Y0001720472D01*
G75*
G02*
X0000808661Y0001710629J-0000009842D01*
G01*
G37*
D22*
X0001374409Y0000736220D03*
X0001374409Y0000286220D03*
D23*
X0001124409Y0000336220D03*
D24*
X0001024409Y0000386220D03*
X0001124409Y0000436220D03*
X0001024409Y0000486220D03*
X0001124409Y0000536220D03*
X0001024409Y0000586220D03*
X0001124409Y0000636220D03*
X0001024409Y0000686220D03*
X0001024409Y0001736220D03*
X0001124409Y0001686220D03*
X0001024409Y0001636220D03*
X0001124409Y0001586220D03*
X0001024409Y0001536220D03*
X0001124409Y0001486220D03*
X0001024409Y0001436220D03*
D23*
X0001124409Y0001386220D03*
D22*
X0001374409Y0001336220D03*
X0001374409Y0001786220D03*
D20*
X0001574409Y0001440157D03*
X0001574409Y0001489370D03*
X0001574409Y0001538582D03*
X0001574409Y0001587795D03*
X0001574409Y0001637007D03*
G36*
G01*
X0001556692Y0001701968D02*
X0001592125Y0001701968D01*
G75*
G02*
X0001599999Y0001694094J-0000007874D01*
G01*
X0001599999Y0001678346D01*
G75*
G02*
X0001592125Y0001670472I-0000007874D01*
G01*
X0001556692Y0001670472D01*
G75*
G02*
X0001548818Y0001678346J0000007874D01*
G01*
X0001548818Y0001694094D01*
G75*
G02*
X0001556692Y0001701968I0000007874D01*
G01*
G37*
D21*
X0000974409Y0001086220D03*
G36*
G01*
X0000840157Y0001061810D02*
X0000840157Y0001110629D01*
G75*
G02*
X0000849999Y0001120472I0000009842D01*
G01*
X0000898818Y0001120472D01*
G75*
G02*
X0000908661Y0001110629J-0000009842D01*
G01*
X0000908661Y0001061810D01*
G75*
G02*
X0000898818Y0001051968I-0000009842D01*
G01*
X0000849999Y0001051968D01*
G75*
G02*
X0000840157Y0001061810J0000009842D01*
G01*
G37*
D25*
X0000097244Y0001836220D03*
X0000274409Y0001836220D03*
X0000097244Y0001580314D03*
X0000274409Y0001580314D03*
X0000324409Y0000230314D03*
X0000147244Y0000230314D03*
X0000324409Y0000486220D03*
X0000147244Y0000486220D03*
D12*
X0001674409Y0000936220D03*
D13*
X0001674409Y0001136220D03*
X0001774409Y0001136220D03*
D12*
X0001774409Y0000936220D03*
G04 next file*
%LPD*%
G04 #@! TF.GenerationSoftware,KiCad,Pcbnew,(5.1.10)-1*
G04 #@! TF.CreationDate,2021-10-24T19:50:33-07:00*
G04 #@! TF.ProjectId,project,70726f6a-6563-4742-9e6b-696361645f70,rev?*
G04 #@! TF.SameCoordinates,Original*
G04 #@! TF.FileFunction,Soldermask,Bot*
G04 #@! TF.FilePolarity,Negative*
G04 Gerber Fmt 4.6, Leading zero omitted, Abs format (unit mm)*
G04 Created by KiCad (PCBNEW (5.1.10)-1) date 2021-10-24 19:50:33*
G01*
G04 APERTURE LIST*
G04 APERTURE END LIST*
D36*
G36*
X0002458661Y0001573031D02*
G01*
X0002438976Y0001573031D01*
X0002438976Y0001549409D01*
X0002458661Y0001549409D01*
X0002458661Y0001573031D01*
G37*
G36*
X0002483661Y0000873031D02*
G01*
X0002463976Y0000873031D01*
X0002463976Y0000849409D01*
X0002483661Y0000849409D01*
X0002483661Y0000873031D01*
G37*
G36*
X0002452755Y0001590748D02*
G01*
X0002474409Y0001590748D01*
X0002474409Y0001590724D01*
X0002475375Y0001590724D01*
X0002477297Y0001590534D01*
X0002479192Y0001590158D01*
X0002481041Y0001589597D01*
X0002482825Y0001588858D01*
X0002484529Y0001587947D01*
X0002486135Y0001586874D01*
X0002487629Y0001585648D01*
X0002488995Y0001584282D01*
X0002490220Y0001582789D01*
X0002491293Y0001581183D01*
X0002492204Y0001579479D01*
X0002492943Y0001577694D01*
X0002493504Y0001575846D01*
X0002493881Y0001573951D01*
X0002494070Y0001572028D01*
X0002494070Y0001571062D01*
X0002494094Y0001571062D01*
X0002494094Y0001551377D01*
X0002494070Y0001551377D01*
X0002494070Y0001550412D01*
X0002493881Y0001548489D01*
X0002493504Y0001546594D01*
X0002492943Y0001544746D01*
X0002492204Y0001542961D01*
X0002491293Y0001541257D01*
X0002490220Y0001539651D01*
X0002488995Y0001538158D01*
X0002487629Y0001536792D01*
X0002486135Y0001535566D01*
X0002484529Y0001534493D01*
X0002482825Y0001533582D01*
X0002481041Y0001532843D01*
X0002479192Y0001532282D01*
X0002477297Y0001531905D01*
X0002475375Y0001531716D01*
X0002474409Y0001531716D01*
X0002474409Y0001531692D01*
X0002452755Y0001531692D01*
X0002452755Y0001590748D01*
G37*
D37*
X0002423228Y0001561220D03*
D36*
G36*
X0002372047Y0001531716D02*
G01*
X0002371081Y0001531716D01*
X0002369158Y0001531905D01*
X0002367264Y0001532282D01*
X0002365415Y0001532843D01*
X0002363630Y0001533582D01*
X0002361927Y0001534493D01*
X0002360320Y0001535566D01*
X0002358827Y0001536792D01*
X0002357461Y0001538158D01*
X0002356236Y0001539651D01*
X0002355162Y0001541257D01*
X0002354252Y0001542961D01*
X0002353512Y0001544746D01*
X0002352952Y0001546594D01*
X0002352575Y0001548489D01*
X0002352385Y0001550412D01*
X0002352385Y0001551377D01*
X0002352362Y0001551377D01*
X0002352362Y0001571062D01*
X0002352385Y0001571062D01*
X0002352385Y0001572028D01*
X0002352575Y0001573951D01*
X0002352952Y0001575846D01*
X0002353512Y0001577694D01*
X0002354252Y0001579479D01*
X0002355162Y0001581183D01*
X0002356236Y0001582789D01*
X0002357461Y0001584282D01*
X0002358827Y0001585648D01*
X0002360320Y0001586874D01*
X0002361927Y0001587947D01*
X0002363630Y0001588858D01*
X0002365415Y0001589597D01*
X0002367264Y0001590158D01*
X0002369158Y0001590534D01*
X0002371081Y0001590724D01*
X0002372047Y0001590724D01*
X0002372047Y0001590748D01*
X0002393700Y0001590748D01*
X0002393700Y0001531692D01*
X0002372047Y0001531692D01*
X0002372047Y0001531716D01*
G37*
G36*
X0002477755Y0000890748D02*
G01*
X0002499409Y0000890748D01*
X0002499409Y0000890724D01*
X0002500375Y0000890724D01*
X0002502297Y0000890534D01*
X0002504192Y0000890158D01*
X0002506041Y0000889597D01*
X0002507825Y0000888858D01*
X0002509529Y0000887947D01*
X0002511135Y0000886874D01*
X0002512629Y0000885648D01*
X0002513995Y0000884282D01*
X0002515220Y0000882789D01*
X0002516293Y0000881183D01*
X0002517204Y0000879479D01*
X0002517943Y0000877694D01*
X0002518504Y0000875846D01*
X0002518881Y0000873951D01*
X0002519070Y0000872028D01*
X0002519070Y0000871062D01*
X0002519094Y0000871062D01*
X0002519094Y0000851377D01*
X0002519070Y0000851377D01*
X0002519070Y0000850412D01*
X0002518881Y0000848489D01*
X0002518504Y0000846594D01*
X0002517943Y0000844746D01*
X0002517204Y0000842961D01*
X0002516293Y0000841257D01*
X0002515220Y0000839651D01*
X0002513995Y0000838158D01*
X0002512629Y0000836792D01*
X0002511135Y0000835566D01*
X0002509529Y0000834493D01*
X0002507825Y0000833582D01*
X0002506041Y0000832843D01*
X0002504192Y0000832282D01*
X0002502297Y0000831905D01*
X0002500375Y0000831716D01*
X0002499409Y0000831716D01*
X0002499409Y0000831692D01*
X0002477755Y0000831692D01*
X0002477755Y0000890748D01*
G37*
D37*
X0002448228Y0000861220D03*
D36*
G36*
X0002397047Y0000831716D02*
G01*
X0002396081Y0000831716D01*
X0002394158Y0000831905D01*
X0002392264Y0000832282D01*
X0002390415Y0000832843D01*
X0002388630Y0000833582D01*
X0002386927Y0000834493D01*
X0002385320Y0000835566D01*
X0002383827Y0000836792D01*
X0002382461Y0000838158D01*
X0002381236Y0000839651D01*
X0002380162Y0000841257D01*
X0002379252Y0000842961D01*
X0002378512Y0000844746D01*
X0002377952Y0000846594D01*
X0002377575Y0000848489D01*
X0002377385Y0000850412D01*
X0002377385Y0000851377D01*
X0002377362Y0000851377D01*
X0002377362Y0000871062D01*
X0002377385Y0000871062D01*
X0002377385Y0000872028D01*
X0002377575Y0000873951D01*
X0002377952Y0000875846D01*
X0002378512Y0000877694D01*
X0002379252Y0000879479D01*
X0002380162Y0000881183D01*
X0002381236Y0000882789D01*
X0002382461Y0000884282D01*
X0002383827Y0000885648D01*
X0002385320Y0000886874D01*
X0002386927Y0000887947D01*
X0002388630Y0000888858D01*
X0002390415Y0000889597D01*
X0002392264Y0000890158D01*
X0002394158Y0000890534D01*
X0002396081Y0000890724D01*
X0002397047Y0000890724D01*
X0002397047Y0000890748D01*
X0002418700Y0000890748D01*
X0002418700Y0000831692D01*
X0002397047Y0000831692D01*
X0002397047Y0000831716D01*
G37*
D38*
X0002823228Y0000636220D03*
D39*
X0002623228Y0000636220D03*
D38*
X0002123228Y0001136220D03*
D39*
X0002123228Y0000936220D03*
D38*
X0002223228Y0000936220D03*
D39*
X0002223228Y0001136220D03*
D38*
X0002523228Y0000636220D03*
D39*
X0002323228Y0000636220D03*
D38*
X0002523228Y0000736220D03*
D39*
X0002323228Y0000736220D03*
D38*
X0002823228Y0000736220D03*
D39*
X0002623228Y0000736220D03*
D38*
X0002823228Y0001336220D03*
D39*
X0002623228Y0001336220D03*
D38*
X0002523228Y0001336220D03*
D39*
X0002323228Y0001336220D03*
D38*
X0002823228Y0001436220D03*
D39*
X0002623228Y0001436220D03*
D38*
X0002523228Y0001436220D03*
D39*
X0002323228Y0001436220D03*
D40*
X0003523228Y0001986220D03*
X0003623228Y0001986220D03*
X0003623228Y0000086220D03*
X0003523228Y0000086220D03*
X0002263385Y0001986220D03*
X0003423228Y0000086220D03*
X0002363385Y0001986220D03*
X0003323228Y0000086220D03*
X0002463385Y0001986220D03*
X0003223228Y0000086220D03*
X0002563385Y0001986220D03*
X0003123228Y0000086220D03*
X0002663385Y0001986220D03*
X0002923228Y0000086220D03*
X0002763385Y0001986220D03*
X0002823228Y0000086220D03*
X0002923228Y0001986220D03*
X0002723228Y0000086220D03*
X0003023228Y0001986220D03*
X0002623228Y0000086220D03*
X0003123228Y0001986220D03*
X0002523228Y0000086220D03*
X0003223228Y0001986220D03*
X0002423228Y0000086220D03*
X0003323228Y0001986220D03*
X0002323228Y0000086220D03*
X0003423228Y0001986220D03*
D41*
X0002223228Y0000086220D03*
D40*
X0002063385Y0001986220D03*
X0002163385Y0001986220D03*
D42*
X0002123228Y0001286220D03*
D43*
X0002123228Y0001386220D03*
X0002123228Y0000786220D03*
D42*
X0002123228Y0000686220D03*
D44*
X0003423228Y0001086220D03*
D45*
X0003323228Y0001086220D03*
X0003423228Y0000986220D03*
X0003323228Y0000986220D03*
G36*
G01*
X0003505511Y0000651968D02*
X0003540944Y0000651968D01*
G75*
G02*
X0003548818Y0000644094J-0000007874D01*
G01*
X0003548818Y0000628346D01*
G75*
G02*
X0003540944Y0000620472I-0000007874D01*
G01*
X0003505511Y0000620472D01*
G75*
G02*
X0003497637Y0000628346J0000007874D01*
G01*
X0003497637Y0000644094D01*
G75*
G02*
X0003505511Y0000651968I0000007874D01*
G01*
G37*
D46*
X0003523228Y0000587007D03*
X0003523228Y0000537795D03*
X0003523228Y0000488582D03*
X0003523228Y0000439370D03*
X0003523228Y0000390157D03*
G36*
G01*
X0002388976Y0001061810D02*
X0002388976Y0001110629D01*
G75*
G02*
X0002398818Y0001120472I0000009842D01*
G01*
X0002447637Y0001120472D01*
G75*
G02*
X0002457480Y0001110629J-0000009842D01*
G01*
X0002457480Y0001061810D01*
G75*
G02*
X0002447637Y0001051968I-0000009842D01*
G01*
X0002398818Y0001051968D01*
G75*
G02*
X0002388976Y0001061810J0000009842D01*
G01*
G37*
D47*
X0002523228Y0001086220D03*
G36*
G01*
X0002488976Y0000361810D02*
X0002488976Y0000410629D01*
G75*
G02*
X0002498818Y0000420472I0000009842D01*
G01*
X0002547637Y0000420472D01*
G75*
G02*
X0002557480Y0000410629J-0000009842D01*
G01*
X0002557480Y0000361810D01*
G75*
G02*
X0002547637Y0000351968I-0000009842D01*
G01*
X0002498818Y0000351968D01*
G75*
G02*
X0002488976Y0000361810J0000009842D01*
G01*
G37*
X0002623228Y0000386220D03*
X0002723228Y0000386220D03*
X0002523228Y0001686220D03*
X0002623228Y0001686220D03*
G36*
G01*
X0002757480Y0001710629D02*
X0002757480Y0001661810D01*
G75*
G02*
X0002747637Y0001651968I-0000009842D01*
G01*
X0002698818Y0001651968D01*
G75*
G02*
X0002688976Y0001661810J0000009842D01*
G01*
X0002688976Y0001710629D01*
G75*
G02*
X0002698818Y0001720472I0000009842D01*
G01*
X0002747637Y0001720472D01*
G75*
G02*
X0002757480Y0001710629J-0000009842D01*
G01*
G37*
D48*
X0003323228Y0000736220D03*
X0003323228Y0000286220D03*
D49*
X0003073228Y0000336220D03*
D50*
X0002973228Y0000386220D03*
X0003073228Y0000436220D03*
X0002973228Y0000486220D03*
X0003073228Y0000536220D03*
X0002973228Y0000586220D03*
X0003073228Y0000636220D03*
X0002973228Y0000686220D03*
X0002973228Y0001736220D03*
X0003073228Y0001686220D03*
X0002973228Y0001636220D03*
X0003073228Y0001586220D03*
X0002973228Y0001536220D03*
X0003073228Y0001486220D03*
X0002973228Y0001436220D03*
D49*
X0003073228Y0001386220D03*
D48*
X0003323228Y0001336220D03*
X0003323228Y0001786220D03*
D46*
X0003523228Y0001440157D03*
X0003523228Y0001489370D03*
X0003523228Y0001538582D03*
X0003523228Y0001587795D03*
X0003523228Y0001637007D03*
G36*
G01*
X0003505511Y0001701968D02*
X0003540944Y0001701968D01*
G75*
G02*
X0003548818Y0001694094J-0000007874D01*
G01*
X0003548818Y0001678346D01*
G75*
G02*
X0003540944Y0001670472I-0000007874D01*
G01*
X0003505511Y0001670472D01*
G75*
G02*
X0003497637Y0001678346J0000007874D01*
G01*
X0003497637Y0001694094D01*
G75*
G02*
X0003505511Y0001701968I0000007874D01*
G01*
G37*
D47*
X0002923228Y0001086220D03*
G36*
G01*
X0002788976Y0001061810D02*
X0002788976Y0001110629D01*
G75*
G02*
X0002798818Y0001120472I0000009842D01*
G01*
X0002847637Y0001120472D01*
G75*
G02*
X0002857480Y0001110629J-0000009842D01*
G01*
X0002857480Y0001061810D01*
G75*
G02*
X0002847637Y0001051968I-0000009842D01*
G01*
X0002798818Y0001051968D01*
G75*
G02*
X0002788976Y0001061810J0000009842D01*
G01*
G37*
D51*
X0002046062Y0001836220D03*
X0002223228Y0001836220D03*
X0002046062Y0001580314D03*
X0002223228Y0001580314D03*
X0002273228Y0000230314D03*
X0002096062Y0000230314D03*
X0002273228Y0000486220D03*
X0002096062Y0000486220D03*
D38*
X0003623228Y0000936220D03*
D39*
X0003623228Y0001136220D03*
X0003723228Y0001136220D03*
D38*
X0003723228Y0000936220D03*
M02*