%MOIN*%
%OFA0B0*%
%FSLAX46Y46*%
%IPPOS*%
%LPD*%
%ADD10C,0.0039370078740157488*%
%ADD11C,0.19685039370078741*%
%ADD12C,0.70000000000000007*%
%ADD13R,0.1X0.2*%
%ADD14C,0.062992125984251982*%
%ADD15C,0.062992125984251982*%
%ADD16C,0.035433070866141732*%
%ADD27C,0.0039370078740157488*%
%ADD28C,0.19685039370078741*%
%ADD29C,0.70000000000000007*%
%ADD30R,0.1X0.2*%
%ADD31C,0.062992125984251982*%
%ADD32C,0.062992125984251982*%
%ADD33C,0.035433070866141732*%
%ADD34C,0.0039370078740157488*%
%ADD35C,0.19685039370078741*%
%ADD36C,0.70000000000000007*%
%ADD37R,0.1X0.2*%
%ADD38C,0.062992125984251982*%
%ADD39C,0.062992125984251982*%
%ADD40C,0.035433070866141732*%
%ADD41C,0.0039370078740157488*%
%ADD42C,0.19685039370078741*%
%ADD43C,0.70000000000000007*%
%ADD44R,0.1X0.2*%
%ADD45C,0.062992125984251982*%
%ADD46C,0.062992125984251982*%
%ADD47C,0.035433070866141732*%
%ADD48C,0.0039370078740157488*%
%ADD49C,0.19685039370078741*%
%ADD50C,0.70000000000000007*%
%ADD51R,0.1X0.2*%
%ADD52C,0.062992125984251982*%
%ADD53C,0.062992125984251982*%
%ADD54C,0.035433070866141732*%
%ADD55C,0.0039370078740157488*%
%ADD56C,0.19685039370078741*%
%ADD57C,0.70000000000000007*%
%ADD58R,0.1X0.2*%
%ADD59C,0.062992125984251982*%
%ADD60C,0.062992125984251982*%
%ADD61C,0.035433070866141732*%
%ADD62C,0.0039370078740157488*%
%ADD63C,0.19685039370078741*%
%ADD64C,0.70000000000000007*%
%ADD65R,0.1X0.2*%
%ADD66C,0.062992125984251982*%
%ADD67C,0.062992125984251982*%
%ADD68C,0.035433070866141732*%
%ADD69C,0.0039370078740157488*%
%ADD70C,0.19685039370078741*%
%ADD71C,0.70000000000000007*%
%ADD72R,0.1X0.2*%
%ADD73C,0.062992125984251982*%
%ADD74C,0.062992125984251982*%
%ADD75C,0.035433070866141732*%
%ADD76C,0.0039370078740157488*%
%ADD77C,0.19685039370078741*%
%ADD78C,0.70000000000000007*%
%ADD79R,0.1X0.2*%
%ADD80C,0.062992125984251982*%
%ADD81C,0.062992125984251982*%
%ADD82C,0.035433070866141732*%
G01*
D10*
D11*
X-0007591779Y0004208262D02*
X0000608220Y0001058262D03*
D12*
X0000608220Y0000408262D03*
D13*
X0001058220Y0000408262D03*
X0000158220Y0000408262D03*
D10*
G36*
X0000958220Y0000813720D02*
X0000913677Y0000858262D01*
X0000958220Y0000902804D01*
X0001002762Y0000858262D01*
X0000958220Y0000813720D01*
X0000958220Y0000813720D01*
G37*
D14*
X0001028930Y0000928972D03*
D15*
X0000887509Y0000928972D02*
X0000887509Y0000928972D01*
X0000958220Y0000999683D02*
X0000958220Y0000999683D01*
X0000816798Y0000999683D02*
X0000816798Y0000999683D01*
X0000887509Y0001070394D02*
X0000887509Y0001070394D01*
D16*
X0000296315Y0000969471D03*
D10*
G36*
X0000226718Y0000677163D02*
X0000157121Y0000746760D01*
X0000190527Y0000780167D01*
X0000260124Y0000710569D01*
X0000226718Y0000677163D01*
X0000226718Y0000677163D01*
G37*
G36*
X0000297428Y0000747873D02*
X0000227831Y0000817471D01*
X0000261238Y0000850877D01*
X0000330835Y0000781280D01*
X0000297428Y0000747873D01*
X0000297428Y0000747873D01*
G37*
G36*
X0000365912Y0000816357D02*
X0000296315Y0000885954D01*
X0000329722Y0000919361D01*
X0000399319Y0000849764D01*
X0000365912Y0000816357D01*
X0000365912Y0000816357D01*
G37*
D16*
X0000107011Y0000780167D03*
G04 next file*
G04 #@! TF.FileFunction,Soldermask,Bot*
G04 Gerber Fmt 4.6, Leading zero omitted, Abs format (unit mm)*
G04 Created by KiCad (PCBNEW 4.0.7) date 09/06/18 11:32:53*
G01*
G04 APERTURE LIST*
G04 APERTURE END LIST*
D27*
D28*
X-0007591779Y0005503526D02*
X0000608220Y0002353526D03*
D29*
X0000608220Y0001703526D03*
D30*
X0001058220Y0001703526D03*
X0000158220Y0001703526D03*
D27*
G36*
X0000958220Y0002108984D02*
X0000913677Y0002153526D01*
X0000958220Y0002198068D01*
X0001002762Y0002153526D01*
X0000958220Y0002108984D01*
X0000958220Y0002108984D01*
G37*
D31*
X0001028930Y0002224237D03*
D32*
X0000887509Y0002224237D02*
X0000887509Y0002224237D01*
X0000958220Y0002294948D02*
X0000958220Y0002294948D01*
X0000816798Y0002294948D02*
X0000816798Y0002294948D01*
X0000887509Y0002365658D02*
X0000887509Y0002365658D01*
D33*
X0000296315Y0002264735D03*
D27*
G36*
X0000226718Y0001972427D02*
X0000157121Y0002042024D01*
X0000190527Y0002075431D01*
X0000260124Y0002005834D01*
X0000226718Y0001972427D01*
X0000226718Y0001972427D01*
G37*
G36*
X0000297428Y0002043138D02*
X0000227831Y0002112735D01*
X0000261238Y0002146142D01*
X0000330835Y0002076545D01*
X0000297428Y0002043138D01*
X0000297428Y0002043138D01*
G37*
G36*
X0000365912Y0002111622D02*
X0000296315Y0002181219D01*
X0000329722Y0002214625D01*
X0000399319Y0002145028D01*
X0000365912Y0002111622D01*
X0000365912Y0002111622D01*
G37*
D33*
X0000107011Y0002075431D03*
G04 next file*
G04 #@! TF.FileFunction,Soldermask,Bot*
G04 Gerber Fmt 4.6, Leading zero omitted, Abs format (unit mm)*
G04 Created by KiCad (PCBNEW 4.0.7) date 09/06/18 11:32:53*
G01*
G04 APERTURE LIST*
G04 APERTURE END LIST*
D34*
D35*
X-0007591779Y0006798791D02*
X0000608220Y0003648791D03*
D36*
X0000608220Y0002998791D03*
D37*
X0001058220Y0002998791D03*
X0000158220Y0002998791D03*
D34*
G36*
X0000958220Y0003404249D02*
X0000913677Y0003448791D01*
X0000958220Y0003493333D01*
X0001002762Y0003448791D01*
X0000958220Y0003404249D01*
X0000958220Y0003404249D01*
G37*
D38*
X0001028930Y0003519502D03*
D39*
X0000887509Y0003519502D02*
X0000887509Y0003519502D01*
X0000958220Y0003590212D02*
X0000958220Y0003590212D01*
X0000816798Y0003590212D02*
X0000816798Y0003590212D01*
X0000887509Y0003660923D02*
X0000887509Y0003660923D01*
D40*
X0000296315Y0003560000D03*
D34*
G36*
X0000226718Y0003267692D02*
X0000157121Y0003337289D01*
X0000190527Y0003370696D01*
X0000260124Y0003301098D01*
X0000226718Y0003267692D01*
X0000226718Y0003267692D01*
G37*
G36*
X0000297428Y0003338402D02*
X0000227831Y0003408000D01*
X0000261238Y0003441406D01*
X0000330835Y0003371809D01*
X0000297428Y0003338402D01*
X0000297428Y0003338402D01*
G37*
G36*
X0000365912Y0003406886D02*
X0000296315Y0003476483D01*
X0000329722Y0003509890D01*
X0000399319Y0003440293D01*
X0000365912Y0003406886D01*
X0000365912Y0003406886D01*
G37*
D40*
X0000107011Y0003370696D03*
G04 next file*
G04 #@! TF.FileFunction,Soldermask,Bot*
G04 Gerber Fmt 4.6, Leading zero omitted, Abs format (unit mm)*
G04 Created by KiCad (PCBNEW 4.0.7) date 09/06/18 11:32:53*
G01*
G04 APERTURE LIST*
G04 APERTURE END LIST*
D41*
D42*
X-0006296543Y0004208262D02*
X0001903456Y0001058262D03*
D43*
X0001903456Y0000408262D03*
D44*
X0002353456Y0000408262D03*
X0001453456Y0000408262D03*
D41*
G36*
X0002253456Y0000813720D02*
X0002208914Y0000858262D01*
X0002253456Y0000902804D01*
X0002297998Y0000858262D01*
X0002253456Y0000813720D01*
X0002253456Y0000813720D01*
G37*
D45*
X0002324167Y0000928972D03*
D46*
X0002182745Y0000928972D02*
X0002182745Y0000928972D01*
X0002253456Y0000999683D02*
X0002253456Y0000999683D01*
X0002112035Y0000999683D02*
X0002112035Y0000999683D01*
X0002182745Y0001070394D02*
X0002182745Y0001070394D01*
D47*
X0001591551Y0000969471D03*
D41*
G36*
X0001521954Y0000677163D02*
X0001452357Y0000746760D01*
X0001485764Y0000780167D01*
X0001555361Y0000710569D01*
X0001521954Y0000677163D01*
X0001521954Y0000677163D01*
G37*
G36*
X0001592665Y0000747873D02*
X0001523068Y0000817471D01*
X0001556474Y0000850877D01*
X0001626071Y0000781280D01*
X0001592665Y0000747873D01*
X0001592665Y0000747873D01*
G37*
G36*
X0001661148Y0000816357D02*
X0001591551Y0000885954D01*
X0001624958Y0000919361D01*
X0001694555Y0000849764D01*
X0001661148Y0000816357D01*
X0001661148Y0000816357D01*
G37*
D47*
X0001402247Y0000780167D03*
G04 next file*
G04 #@! TF.FileFunction,Soldermask,Bot*
G04 Gerber Fmt 4.6, Leading zero omitted, Abs format (unit mm)*
G04 Created by KiCad (PCBNEW 4.0.7) date 09/06/18 11:32:53*
G01*
G04 APERTURE LIST*
G04 APERTURE END LIST*
D48*
D49*
X-0005001307Y0004208262D02*
X0003198692Y0001058262D03*
D50*
X0003198692Y0000408262D03*
D51*
X0003648692Y0000408262D03*
X0002748692Y0000408262D03*
D48*
G36*
X0003548692Y0000813720D02*
X0003504150Y0000858262D01*
X0003548692Y0000902804D01*
X0003593234Y0000858262D01*
X0003548692Y0000813720D01*
X0003548692Y0000813720D01*
G37*
D52*
X0003619403Y0000928972D03*
D53*
X0003477982Y0000928972D02*
X0003477982Y0000928972D01*
X0003548692Y0000999683D02*
X0003548692Y0000999683D01*
X0003407271Y0000999683D02*
X0003407271Y0000999683D01*
X0003477982Y0001070394D02*
X0003477982Y0001070394D01*
D54*
X0002886787Y0000969471D03*
D48*
G36*
X0002817190Y0000677163D02*
X0002747593Y0000746760D01*
X0002781000Y0000780167D01*
X0002850597Y0000710569D01*
X0002817190Y0000677163D01*
X0002817190Y0000677163D01*
G37*
G36*
X0002887901Y0000747873D02*
X0002818304Y0000817471D01*
X0002851711Y0000850877D01*
X0002921308Y0000781280D01*
X0002887901Y0000747873D01*
X0002887901Y0000747873D01*
G37*
G36*
X0002956385Y0000816357D02*
X0002886787Y0000885954D01*
X0002920194Y0000919361D01*
X0002989791Y0000849764D01*
X0002956385Y0000816357D01*
X0002956385Y0000816357D01*
G37*
D54*
X0002697483Y0000780167D03*
G04 next file*
G04 #@! TF.FileFunction,Soldermask,Bot*
G04 Gerber Fmt 4.6, Leading zero omitted, Abs format (unit mm)*
G04 Created by KiCad (PCBNEW 4.0.7) date 09/06/18 11:32:53*
G01*
G04 APERTURE LIST*
G04 APERTURE END LIST*
D55*
D56*
X-0006296543Y0005503526D02*
X0001903456Y0002353526D03*
D57*
X0001903456Y0001703526D03*
D58*
X0002353456Y0001703526D03*
X0001453456Y0001703526D03*
D55*
G36*
X0002253456Y0002108984D02*
X0002208914Y0002153526D01*
X0002253456Y0002198068D01*
X0002297998Y0002153526D01*
X0002253456Y0002108984D01*
X0002253456Y0002108984D01*
G37*
D59*
X0002324167Y0002224237D03*
D60*
X0002182745Y0002224237D02*
X0002182745Y0002224237D01*
X0002253456Y0002294948D02*
X0002253456Y0002294948D01*
X0002112035Y0002294948D02*
X0002112035Y0002294948D01*
X0002182745Y0002365658D02*
X0002182745Y0002365658D01*
D61*
X0001591551Y0002264735D03*
D55*
G36*
X0001521954Y0001972427D02*
X0001452357Y0002042024D01*
X0001485764Y0002075431D01*
X0001555361Y0002005834D01*
X0001521954Y0001972427D01*
X0001521954Y0001972427D01*
G37*
G36*
X0001592665Y0002043138D02*
X0001523068Y0002112735D01*
X0001556474Y0002146142D01*
X0001626071Y0002076545D01*
X0001592665Y0002043138D01*
X0001592665Y0002043138D01*
G37*
G36*
X0001661148Y0002111622D02*
X0001591551Y0002181219D01*
X0001624958Y0002214625D01*
X0001694555Y0002145028D01*
X0001661148Y0002111622D01*
X0001661148Y0002111622D01*
G37*
D61*
X0001402247Y0002075431D03*
G04 next file*
G04 #@! TF.FileFunction,Soldermask,Bot*
G04 Gerber Fmt 4.6, Leading zero omitted, Abs format (unit mm)*
G04 Created by KiCad (PCBNEW 4.0.7) date 09/06/18 11:32:53*
G01*
G04 APERTURE LIST*
G04 APERTURE END LIST*
D62*
D63*
X-0006296543Y0006798791D02*
X0001903456Y0003648791D03*
D64*
X0001903456Y0002998791D03*
D65*
X0002353456Y0002998791D03*
X0001453456Y0002998791D03*
D62*
G36*
X0002253456Y0003404249D02*
X0002208914Y0003448791D01*
X0002253456Y0003493333D01*
X0002297998Y0003448791D01*
X0002253456Y0003404249D01*
X0002253456Y0003404249D01*
G37*
D66*
X0002324167Y0003519502D03*
D67*
X0002182745Y0003519502D02*
X0002182745Y0003519502D01*
X0002253456Y0003590212D02*
X0002253456Y0003590212D01*
X0002112035Y0003590212D02*
X0002112035Y0003590212D01*
X0002182745Y0003660923D02*
X0002182745Y0003660923D01*
D68*
X0001591551Y0003560000D03*
D62*
G36*
X0001521954Y0003267692D02*
X0001452357Y0003337289D01*
X0001485764Y0003370696D01*
X0001555361Y0003301098D01*
X0001521954Y0003267692D01*
X0001521954Y0003267692D01*
G37*
G36*
X0001592665Y0003338402D02*
X0001523068Y0003408000D01*
X0001556474Y0003441406D01*
X0001626071Y0003371809D01*
X0001592665Y0003338402D01*
X0001592665Y0003338402D01*
G37*
G36*
X0001661148Y0003406886D02*
X0001591551Y0003476483D01*
X0001624958Y0003509890D01*
X0001694555Y0003440293D01*
X0001661148Y0003406886D01*
X0001661148Y0003406886D01*
G37*
D68*
X0001402247Y0003370696D03*
G04 next file*
G04 #@! TF.FileFunction,Soldermask,Bot*
G04 Gerber Fmt 4.6, Leading zero omitted, Abs format (unit mm)*
G04 Created by KiCad (PCBNEW 4.0.7) date 09/06/18 11:32:53*
G01*
G04 APERTURE LIST*
G04 APERTURE END LIST*
D69*
D70*
X-0005001307Y0005503526D02*
X0003198692Y0002353526D03*
D71*
X0003198692Y0001703526D03*
D72*
X0003648692Y0001703526D03*
X0002748692Y0001703526D03*
D69*
G36*
X0003548692Y0002108984D02*
X0003504150Y0002153526D01*
X0003548692Y0002198068D01*
X0003593234Y0002153526D01*
X0003548692Y0002108984D01*
X0003548692Y0002108984D01*
G37*
D73*
X0003619403Y0002224237D03*
D74*
X0003477982Y0002224237D02*
X0003477982Y0002224237D01*
X0003548692Y0002294948D02*
X0003548692Y0002294948D01*
X0003407271Y0002294948D02*
X0003407271Y0002294948D01*
X0003477982Y0002365658D02*
X0003477982Y0002365658D01*
D75*
X0002886787Y0002264735D03*
D69*
G36*
X0002817190Y0001972427D02*
X0002747593Y0002042024D01*
X0002781000Y0002075431D01*
X0002850597Y0002005834D01*
X0002817190Y0001972427D01*
X0002817190Y0001972427D01*
G37*
G36*
X0002887901Y0002043138D02*
X0002818304Y0002112735D01*
X0002851711Y0002146142D01*
X0002921308Y0002076545D01*
X0002887901Y0002043138D01*
X0002887901Y0002043138D01*
G37*
G36*
X0002956385Y0002111622D02*
X0002886787Y0002181219D01*
X0002920194Y0002214625D01*
X0002989791Y0002145028D01*
X0002956385Y0002111622D01*
X0002956385Y0002111622D01*
G37*
D75*
X0002697483Y0002075431D03*
G04 next file*
G04 #@! TF.FileFunction,Soldermask,Bot*
G04 Gerber Fmt 4.6, Leading zero omitted, Abs format (unit mm)*
G04 Created by KiCad (PCBNEW 4.0.7) date 09/06/18 11:32:53*
G01*
G04 APERTURE LIST*
G04 APERTURE END LIST*
D76*
D77*
X-0005001307Y0006798791D02*
X0003198692Y0003648791D03*
D78*
X0003198692Y0002998791D03*
D79*
X0003648692Y0002998791D03*
X0002748692Y0002998791D03*
D76*
G36*
X0003548692Y0003404249D02*
X0003504150Y0003448791D01*
X0003548692Y0003493333D01*
X0003593234Y0003448791D01*
X0003548692Y0003404249D01*
X0003548692Y0003404249D01*
G37*
D80*
X0003619403Y0003519502D03*
D81*
X0003477982Y0003519502D02*
X0003477982Y0003519502D01*
X0003548692Y0003590212D02*
X0003548692Y0003590212D01*
X0003407271Y0003590212D02*
X0003407271Y0003590212D01*
X0003477982Y0003660923D02*
X0003477982Y0003660923D01*
D82*
X0002886787Y0003560000D03*
D76*
G36*
X0002817190Y0003267692D02*
X0002747593Y0003337289D01*
X0002781000Y0003370696D01*
X0002850597Y0003301098D01*
X0002817190Y0003267692D01*
X0002817190Y0003267692D01*
G37*
G36*
X0002887901Y0003338402D02*
X0002818304Y0003408000D01*
X0002851711Y0003441406D01*
X0002921308Y0003371809D01*
X0002887901Y0003338402D01*
X0002887901Y0003338402D01*
G37*
G36*
X0002956385Y0003406886D02*
X0002886787Y0003476483D01*
X0002920194Y0003509890D01*
X0002989791Y0003440293D01*
X0002956385Y0003406886D01*
X0002956385Y0003406886D01*
G37*
D82*
X0002697483Y0003370696D03*
M02*