%MOIN*%
%OFA0B0*%
%FSLAX46Y46*%
%IPPOS*%
%LPD*%
%AMREC10*
4,1,3,
0.035433070866141732,0.035433070866141739,
-0.035433070866141739,0.035433070866141732,
-0.035433070866141732,-0.035433070866141739,
0.035433070866141739,-0.035433070866141732,
0*%
%AMREC20*
4,1,3,
0.068897637795275579,0.0688976377952756,
-0.0688976377952756,0.068897637795275579,
-0.068897637795275579,-0.0688976377952756,
0.0688976377952756,-0.068897637795275579,
0*%
%AMREC30*
4,1,3,
0.016732283464566927,0.016732283464566931,
-0.016732283464566931,0.016732283464566927,
-0.016732283464566927,-0.016732283464566931,
0.016732283464566931,-0.016732283464566927,
0*%
%AMREC40*
4,1,3,
0.043307086614173228,0.043307086614173242,
-0.043307086614173242,0.043307086614173228,
-0.043307086614173228,-0.043307086614173242,
0.043307086614173242,-0.043307086614173228,
0*%
%AMREC50*
4,1,3,
0.026574803149606297,0.026574803149606308,
-0.026574803149606308,0.026574803149606297,
-0.026574803149606297,-0.026574803149606308,
0.026574803149606308,-0.026574803149606297,
0*%
%ADD10C,0.0039370078740157488*%
%ADD11C,0.19685039370078741*%
%ADD12C,0.07874015748031496*%
%ADD13R,0.070866141732283464X0.070866141732283464*%
%ADD14O,0.070866141732283464X0.070866141732283464*%
%ADD15R,0.13779527559055119X0.13779527559055119*%
%ADD16C,0.13779527559055119*%
%ADD17R,0.033464566929133861X0.033464566929133861*%
%ADD18C,0.033464566929133861*%
%ADD19R,0.086614173228346469X0.086614173228346469*%
%ADD20O,0.086614173228346469X0.086614173228346469*%
%ADD21C,0.055118110236220472*%
%ADD22O,0.055118110236220472X0.055118110236220472*%
%ADD23R,0.053149606299212608X0.053149606299212608*%
%ADD24O,0.053149606299212608X0.053149606299212608*%
%ADD25C,0.08*%
%ADD26C,0.0078740157480314977*%
%ADD37C,0.0039370078740157488*%
%ADD38C,0.19685039370078741*%
%ADD39C,0.07874015748031496*%
%ADD40R,0.070866141732283464X0.070866141732283464*%
%ADD41O,0.070866141732283464X0.070866141732283464*%
%ADD42R,0.13779527559055119X0.13779527559055119*%
%ADD43C,0.13779527559055119*%
%ADD44R,0.033464566929133861X0.033464566929133861*%
%ADD45C,0.033464566929133861*%
%ADD46R,0.086614173228346469X0.086614173228346469*%
%ADD47O,0.086614173228346469X0.086614173228346469*%
%ADD48C,0.055118110236220472*%
%ADD49O,0.055118110236220472X0.055118110236220472*%
%ADD50R,0.053149606299212608X0.053149606299212608*%
%ADD51O,0.053149606299212608X0.053149606299212608*%
%ADD52C,0.08*%
%ADD53C,0.0078740157480314977*%
%ADD54C,0.0039370078740157488*%
%ADD55C,0.19685039370078741*%
%ADD56C,0.07874015748031496*%
%AMCOMP21*
4,1,3,
0.035433070866141732,0.035433070866141739,
-0.035433070866141739,0.035433070866141732,
-0.035433070866141732,-0.035433070866141739,
0.035433070866141739,-0.035433070866141732,
0*%
%ADD57COMP21*%
%ADD58O,0.070866141732283464X0.070866141732283464*%
%AMCOMP22*
4,1,3,
0.068897637795275579,0.0688976377952756,
-0.0688976377952756,0.068897637795275579,
-0.068897637795275579,-0.0688976377952756,
0.0688976377952756,-0.068897637795275579,
0*%
%ADD59COMP22*%
%ADD60C,0.13779527559055119*%
%AMCOMP23*
4,1,3,
0.016732283464566927,0.016732283464566931,
-0.016732283464566931,0.016732283464566927,
-0.016732283464566927,-0.016732283464566931,
0.016732283464566931,-0.016732283464566927,
0*%
%ADD61COMP23*%
%ADD62C,0.033464566929133861*%
%AMCOMP24*
4,1,3,
0.043307086614173228,0.043307086614173242,
-0.043307086614173242,0.043307086614173228,
-0.043307086614173228,-0.043307086614173242,
0.043307086614173242,-0.043307086614173228,
0*%
%ADD63COMP24*%
%ADD64O,0.086614173228346469X0.086614173228346469*%
%ADD65C,0.055118110236220472*%
%ADD66O,0.055118110236220472X0.055118110236220472*%
%AMCOMP25*
4,1,3,
0.026574803149606297,0.026574803149606308,
-0.026574803149606308,0.026574803149606297,
-0.026574803149606297,-0.026574803149606308,
0.026574803149606308,-0.026574803149606297,
0*%
%ADD67COMP25*%
%ADD68O,0.053149606299212608X0.053149606299212608*%
%ADD69C,0.08*%
%ADD70C,0.0078740157480314977*%
%ADD71C,0.0039370078740157488*%
%ADD72C,0.19685039370078741*%
%ADD73C,0.07874015748031496*%
%ADD74R,0.070866141732283464X0.070866141732283464*%
%ADD75O,0.070866141732283464X0.070866141732283464*%
%ADD76R,0.13779527559055119X0.13779527559055119*%
%ADD77C,0.13779527559055119*%
%ADD78R,0.033464566929133861X0.033464566929133861*%
%ADD79C,0.033464566929133861*%
%ADD80R,0.086614173228346469X0.086614173228346469*%
%ADD81O,0.086614173228346469X0.086614173228346469*%
%ADD82C,0.055118110236220472*%
%ADD83O,0.055118110236220472X0.055118110236220472*%
%ADD84R,0.053149606299212608X0.053149606299212608*%
%ADD85O,0.053149606299212608X0.053149606299212608*%
%ADD86C,0.08*%
%ADD87C,0.0078740157480314977*%
%ADD88C,0.0039370078740157488*%
%ADD89C,0.19685039370078741*%
%ADD90C,0.07874015748031496*%
%ADD91R,0.070866141732283464X0.070866141732283464*%
%ADD92O,0.070866141732283464X0.070866141732283464*%
%ADD93R,0.13779527559055119X0.13779527559055119*%
%ADD94C,0.13779527559055119*%
%ADD95R,0.033464566929133861X0.033464566929133861*%
%ADD96C,0.033464566929133861*%
%ADD97R,0.086614173228346469X0.086614173228346469*%
%ADD98O,0.086614173228346469X0.086614173228346469*%
%ADD99C,0.055118110236220472*%
%ADD100O,0.055118110236220472X0.055118110236220472*%
%ADD101R,0.053149606299212608X0.053149606299212608*%
%ADD102O,0.053149606299212608X0.053149606299212608*%
%ADD103C,0.08*%
%ADD104C,0.0078740157480314977*%
%ADD105C,0.0039370078740157488*%
%ADD106C,0.19685039370078741*%
%ADD107C,0.07874015748031496*%
%ADD108R,0.070866141732283464X0.070866141732283464*%
%ADD109O,0.070866141732283464X0.070866141732283464*%
%ADD110R,0.13779527559055119X0.13779527559055119*%
%ADD111C,0.13779527559055119*%
%ADD112R,0.033464566929133861X0.033464566929133861*%
%ADD113C,0.033464566929133861*%
%ADD114R,0.086614173228346469X0.086614173228346469*%
%ADD115O,0.086614173228346469X0.086614173228346469*%
%ADD116C,0.055118110236220472*%
%ADD117O,0.055118110236220472X0.055118110236220472*%
%ADD118R,0.053149606299212608X0.053149606299212608*%
%ADD119O,0.053149606299212608X0.053149606299212608*%
%ADD120C,0.08*%
%ADD121C,0.0078740157480314977*%
G01*
D10*
D11*
X-0004842519Y0004212598D02*
X0001771574Y0000654921D03*
X0000157401Y0001048622D03*
D12*
X0001257480Y0000214173D03*
X0001257480Y0000411023D03*
D13*
X0000857480Y0000412598D03*
D14*
X0000857480Y0000312598D03*
X0000857480Y0000212598D03*
D15*
X0000157480Y0000812598D03*
D16*
X0000354330Y0000812598D03*
D17*
X0001107480Y0000837598D03*
D18*
X0001058267Y0000837598D03*
D19*
X0001032480Y0000087598D03*
D20*
X0001032480Y0000487598D03*
D21*
X0001145275Y0000587598D03*
D22*
X0000869685Y0000587598D03*
D23*
X0000857480Y0000762598D03*
D24*
X0000857480Y0000841338D03*
D15*
X0001557480Y0000812598D03*
D16*
X0001360629Y0000812598D03*
D25*
X0000857480Y0000312598D02*
X0000782480Y0000312598D01*
X0000782480Y0000312598D02*
X0000732480Y0000362598D01*
X0000732480Y0000362598D02*
X0000732480Y0000687598D01*
X0000732480Y0000687598D02*
X0000682480Y0000737598D01*
X0000682480Y0000737598D02*
X0000429330Y0000737598D01*
X0000429330Y0000737598D02*
X0000354330Y0000812598D01*
X0001032480Y0000087598D02*
X0001130905Y0000087598D01*
X0001130905Y0000087598D02*
X0001257480Y0000214173D01*
X0001032480Y0000087598D02*
X0000982480Y0000087598D01*
X0000982480Y0000087598D02*
X0000132480Y0000087598D01*
X0000132480Y0000087598D02*
X0000082480Y0000137598D01*
X0000082480Y0000137598D02*
X0000082480Y0000637598D01*
X0000082480Y0000637598D02*
X0000157480Y0000712598D01*
X0000157480Y0000712598D02*
X0000157480Y0000812598D01*
X0001255905Y0000212598D02*
X0001257480Y0000214173D01*
X0001257480Y0000411023D02*
X0001355905Y0000411023D01*
X0001557480Y0000612598D02*
X0001557480Y0000812598D01*
X0001355905Y0000411023D02*
X0001557480Y0000612598D01*
X0000857480Y0000212598D02*
X0000907480Y0000212598D01*
X0001360629Y0000665747D02*
X0001360629Y0000812598D01*
X0000907480Y0000212598D02*
X0001360629Y0000665747D01*
D26*
G36*
X0000209680Y0001189014D02*
X0000253933Y0001159445D01*
X0000283503Y0001115192D01*
X0000294688Y0001058959D01*
X0000303679Y0001013761D01*
X0000303679Y0001013760D01*
X0000305222Y0001010035D01*
X0000306765Y0001006310D01*
X0000306765Y0001006309D01*
X0000332368Y0000967992D01*
X0000338071Y0000962289D01*
X0000376388Y0000936686D01*
X0000376388Y0000936686D01*
X0000380753Y0000934878D01*
X0000383839Y0000933600D01*
X0000383839Y0000933600D01*
X0000429038Y0000924609D01*
X0000431074Y0000924609D01*
X0000433070Y0000924212D01*
X0001808987Y0000924212D01*
X0001833091Y0000919418D01*
X0001851799Y0000906917D01*
X0001864299Y0000888209D01*
X0001869094Y0000864106D01*
X0001869094Y0000721623D01*
X0001837449Y0000753323D01*
X0001794778Y0000771042D01*
X0001748574Y0000771083D01*
X0001705871Y0000753438D01*
X0001673172Y0000720796D01*
X0001655453Y0000678124D01*
X0001655412Y0000631920D01*
X0001673057Y0000589218D01*
X0001705699Y0000556518D01*
X0001748371Y0000538799D01*
X0001794575Y0000538759D01*
X0001837277Y0000556403D01*
X0001869094Y0000588164D01*
X0001869094Y0000080775D01*
X0001864299Y0000056672D01*
X0001851799Y0000037964D01*
X0001833091Y0000025463D01*
X0001808987Y0000020669D01*
X0000080775Y0000020669D01*
X0000056672Y0000025463D01*
X0000037964Y0000037964D01*
X0000025463Y0000056672D01*
X0000020669Y0000080775D01*
X0000020669Y0000637598D01*
X0000024763Y0000637598D01*
X0000024763Y0000637598D01*
X0000024763Y0000137598D01*
X0000024763Y0000137598D01*
X0000029157Y0000115511D01*
X0000041668Y0000096786D01*
X0000091668Y0000046786D01*
X0000091668Y0000046786D01*
X0000106129Y0000037124D01*
X0000110393Y0000034275D01*
X0000132480Y0000029881D01*
X0000978880Y0000029881D01*
X0000982145Y0000027650D01*
X0000989173Y0000026227D01*
X0001075787Y0000026227D01*
X0001082352Y0000027463D01*
X0001086111Y0000029881D01*
X0001130905Y0000029881D01*
X0001130905Y0000029881D01*
X0001152992Y0000034275D01*
X0001171717Y0000046786D01*
X0001296717Y0000171786D01*
X0001296717Y0000171786D01*
X0001298292Y0000173361D01*
X0001300078Y0000176034D01*
X0001305847Y0000181794D01*
X0001309001Y0000189389D01*
X0001310803Y0000192086D01*
X0001311430Y0000195239D01*
X0001314556Y0000202768D01*
X0001314564Y0000210992D01*
X0001315196Y0000214173D01*
X0001314569Y0000217326D01*
X0001314576Y0000225478D01*
X0001311436Y0000233079D01*
X0001310803Y0000236260D01*
X0001309017Y0000238933D01*
X0001305904Y0000246467D01*
X0001300093Y0000252288D01*
X0001298292Y0000254984D01*
X0001295619Y0000256771D01*
X0001289859Y0000262540D01*
X0001282264Y0000265694D01*
X0001279567Y0000267496D01*
X0001276414Y0000268123D01*
X0001268885Y0000271249D01*
X0001260661Y0000271257D01*
X0001257480Y0000271889D01*
X0001254327Y0000271262D01*
X0001246174Y0000271269D01*
X0001238573Y0000268129D01*
X0001235393Y0000267496D01*
X0001232720Y0000265710D01*
X0001225185Y0000262597D01*
X0001219365Y0000256786D01*
X0001216668Y0000254984D01*
X0001215093Y0000253410D01*
X0001215093Y0000253410D01*
X0001106998Y0000145314D01*
X0001086080Y0000145314D01*
X0001082815Y0000147545D01*
X0001075787Y0000148969D01*
X0000989173Y0000148969D01*
X0000982607Y0000147733D01*
X0000978848Y0000145314D01*
X0000156387Y0000145314D01*
X0000140196Y0000161505D01*
X0000140196Y0000197370D01*
X0000800095Y0000197370D01*
X0000810291Y0000176569D01*
X0000827670Y0000161253D01*
X0000842252Y0000155214D01*
X0000851417Y0000159557D01*
X0000851417Y0000206535D01*
X0000863543Y0000206535D01*
X0000863543Y0000159557D01*
X0000872707Y0000155214D01*
X0000887289Y0000161253D01*
X0000904669Y0000176569D01*
X0000914864Y0000197370D01*
X0000910556Y0000206535D01*
X0000863543Y0000206535D01*
X0000851417Y0000206535D01*
X0000804404Y0000206535D01*
X0000800095Y0000197370D01*
X0000140196Y0000197370D01*
X0000140196Y0000613691D01*
X0000198291Y0000671786D01*
X0000198292Y0000671786D01*
X0000210803Y0000690511D01*
X0000212051Y0000696786D01*
X0000215196Y0000712598D01*
X0000215196Y0000712598D01*
X0000215196Y0000725637D01*
X0000226377Y0000725637D01*
X0000232943Y0000726872D01*
X0000238973Y0000730752D01*
X0000243018Y0000736673D01*
X0000244441Y0000743700D01*
X0000244441Y0000795445D01*
X0000267701Y0000795445D01*
X0000280859Y0000763599D01*
X0000305203Y0000739213D01*
X0000337026Y0000725999D01*
X0000359325Y0000725979D01*
X0000388518Y0000696786D01*
X0000388518Y0000696786D01*
X0000407243Y0000684275D01*
X0000410908Y0000683546D01*
X0000429330Y0000679881D01*
X0000429330Y0000679881D01*
X0000658573Y0000679881D01*
X0000674763Y0000663691D01*
X0000674763Y0000362598D01*
X0000674763Y0000362598D01*
X0000679157Y0000340511D01*
X0000691668Y0000321786D01*
X0000741668Y0000271786D01*
X0000741668Y0000271786D01*
X0000755421Y0000262597D01*
X0000760393Y0000259275D01*
X0000782480Y0000254881D01*
X0000817388Y0000254881D01*
X0000810291Y0000248626D01*
X0000800095Y0000227825D01*
X0000804404Y0000218661D01*
X0000851417Y0000218661D01*
X0000851417Y0000219448D01*
X0000863543Y0000219448D01*
X0000863543Y0000218661D01*
X0000910556Y0000218661D01*
X0000914864Y0000227825D01*
X0000904669Y0000248626D01*
X0000887289Y0000263942D01*
X0000886834Y0000264131D01*
X0000898292Y0000271786D01*
X0000910803Y0000290511D01*
X0000915196Y0000312598D01*
X0000910803Y0000334685D01*
X0000898292Y0000353410D01*
X0000889774Y0000359101D01*
X0000892913Y0000359101D01*
X0000899478Y0000360337D01*
X0000905508Y0000364217D01*
X0000909553Y0000370137D01*
X0000910976Y0000377165D01*
X0000910976Y0000411023D01*
X0001199763Y0000411023D01*
X0001200390Y0000407870D01*
X0001200383Y0000399718D01*
X0001203524Y0000392117D01*
X0001204157Y0000388936D01*
X0001205943Y0000386263D01*
X0001209056Y0000378728D01*
X0001214866Y0000372908D01*
X0001216668Y0000370211D01*
X0001219341Y0000368425D01*
X0001225101Y0000362656D01*
X0001232696Y0000359502D01*
X0001235393Y0000357700D01*
X0001238545Y0000357073D01*
X0001246075Y0000353946D01*
X0001254299Y0000353939D01*
X0001257480Y0000353307D01*
X0001355905Y0000353307D01*
X0001355905Y0000353307D01*
X0001377992Y0000357700D01*
X0001396717Y0000370211D01*
X0001598291Y0000571786D01*
X0001598292Y0000571786D01*
X0001610803Y0000590511D01*
X0001615196Y0000612598D01*
X0001615196Y0000725637D01*
X0001626377Y0000725637D01*
X0001632943Y0000726872D01*
X0001638973Y0000730752D01*
X0001643018Y0000736673D01*
X0001644441Y0000743700D01*
X0001644441Y0000881496D01*
X0001643206Y0000888061D01*
X0001639326Y0000894091D01*
X0001633405Y0000898136D01*
X0001626377Y0000899559D01*
X0001488582Y0000899559D01*
X0001482017Y0000898324D01*
X0001475987Y0000894444D01*
X0001471942Y0000888523D01*
X0001470519Y0000881496D01*
X0001470519Y0000743700D01*
X0001471754Y0000737135D01*
X0001475634Y0000731105D01*
X0001481554Y0000727060D01*
X0001488582Y0000725637D01*
X0001499763Y0000725637D01*
X0001499763Y0000636505D01*
X0001331998Y0000468740D01*
X0001257480Y0000468740D01*
X0001254327Y0000468112D01*
X0001246174Y0000468120D01*
X0001238573Y0000464979D01*
X0001235393Y0000464346D01*
X0001232720Y0000462560D01*
X0001225185Y0000459447D01*
X0001219365Y0000453637D01*
X0001216668Y0000451835D01*
X0001214882Y0000449162D01*
X0001209112Y0000443402D01*
X0001205958Y0000435807D01*
X0001204157Y0000433110D01*
X0001203530Y0000429957D01*
X0001200403Y0000422428D01*
X0001200396Y0000414204D01*
X0001199763Y0000411023D01*
X0000910976Y0000411023D01*
X0000910976Y0000448031D01*
X0000909741Y0000454596D01*
X0000905861Y0000460626D01*
X0000899941Y0000464671D01*
X0000892913Y0000466095D01*
X0000822047Y0000466095D01*
X0000815481Y0000464859D01*
X0000809451Y0000460979D01*
X0000805406Y0000455059D01*
X0000803983Y0000448031D01*
X0000803983Y0000377165D01*
X0000805014Y0000371687D01*
X0000790196Y0000386505D01*
X0000790196Y0000488793D01*
X0000971456Y0000488793D01*
X0000971456Y0000486402D01*
X0000976101Y0000463050D01*
X0000989330Y0000443252D01*
X0001009127Y0000430024D01*
X0001032480Y0000425379D01*
X0001055833Y0000430024D01*
X0001075630Y0000443252D01*
X0001088858Y0000463050D01*
X0001093503Y0000486402D01*
X0001093503Y0000488793D01*
X0001088858Y0000512146D01*
X0001075630Y0000531944D01*
X0001055833Y0000545172D01*
X0001032480Y0000549817D01*
X0001009127Y0000545172D01*
X0000989330Y0000531944D01*
X0000976101Y0000512146D01*
X0000971456Y0000488793D01*
X0000790196Y0000488793D01*
X0000790196Y0000587598D01*
X0000823522Y0000587598D01*
X0000826968Y0000570272D01*
X0000836783Y0000555583D01*
X0000851471Y0000545769D01*
X0000868797Y0000542322D01*
X0000870572Y0000542322D01*
X0000887898Y0000545769D01*
X0000895272Y0000550696D01*
X0001116948Y0000550696D01*
X0001119525Y0000541841D01*
X0001138995Y0000535470D01*
X0001159422Y0000537035D01*
X0001171025Y0000541841D01*
X0001173602Y0000550696D01*
X0001145275Y0000579024D01*
X0001116948Y0000550696D01*
X0000895272Y0000550696D01*
X0000902586Y0000555583D01*
X0000912401Y0000570272D01*
X0000915847Y0000587598D01*
X0000914598Y0000593877D01*
X0001093147Y0000593877D01*
X0001094712Y0000573451D01*
X0001099518Y0000561848D01*
X0001108373Y0000559271D01*
X0001136701Y0000587598D01*
X0001153849Y0000587598D01*
X0001182177Y0000559271D01*
X0001191032Y0000561848D01*
X0001197403Y0000581318D01*
X0001195838Y0000601745D01*
X0001191032Y0000613348D01*
X0001182177Y0000615925D01*
X0001153849Y0000587598D01*
X0001136701Y0000587598D01*
X0001108373Y0000615925D01*
X0001099518Y0000613348D01*
X0001093147Y0000593877D01*
X0000914598Y0000593877D01*
X0000912401Y0000604924D01*
X0000902586Y0000619613D01*
X0000895272Y0000624500D01*
X0001116948Y0000624500D01*
X0001145275Y0000596172D01*
X0001173602Y0000624500D01*
X0001171025Y0000633355D01*
X0001151555Y0000639726D01*
X0001131128Y0000638161D01*
X0001119525Y0000633355D01*
X0001116948Y0000624500D01*
X0000895272Y0000624500D01*
X0000887898Y0000629427D01*
X0000870572Y0000632874D01*
X0000868797Y0000632874D01*
X0000851471Y0000629427D01*
X0000836783Y0000619613D01*
X0000826968Y0000604924D01*
X0000823522Y0000587598D01*
X0000790196Y0000587598D01*
X0000790196Y0000687598D01*
X0000785803Y0000709685D01*
X0000773292Y0000728410D01*
X0000773291Y0000728410D01*
X0000723292Y0000778410D01*
X0000704567Y0000790921D01*
X0000682480Y0000795315D01*
X0000682480Y0000795314D01*
X0000453237Y0000795314D01*
X0000440940Y0000807612D01*
X0000440959Y0000829751D01*
X0000436172Y0000841338D01*
X0000812321Y0000841338D01*
X0000815692Y0000824389D01*
X0000825293Y0000810019D01*
X0000829776Y0000807024D01*
X0000824340Y0000806001D01*
X0000818310Y0000802121D01*
X0000814265Y0000796200D01*
X0000812841Y0000789173D01*
X0000812841Y0000736023D01*
X0000814077Y0000729458D01*
X0000817957Y0000723428D01*
X0000823877Y0000719383D01*
X0000830905Y0000717959D01*
X0000884055Y0000717959D01*
X0000890620Y0000719195D01*
X0000896650Y0000723075D01*
X0000900695Y0000728995D01*
X0000902118Y0000736023D01*
X0000902118Y0000745759D01*
X0001302365Y0000745759D01*
X0001310013Y0000732615D01*
X0001344474Y0000719333D01*
X0001381394Y0000720250D01*
X0001411246Y0000732615D01*
X0001418894Y0000745759D01*
X0001360629Y0000804024D01*
X0001302365Y0000745759D01*
X0000902118Y0000745759D01*
X0000902118Y0000789173D01*
X0000900883Y0000795738D01*
X0000897003Y0000801768D01*
X0000891082Y0000805813D01*
X0000885165Y0000807012D01*
X0000889666Y0000810019D01*
X0000899267Y0000824389D01*
X0000900538Y0000830776D01*
X0001023812Y0000830776D01*
X0001029046Y0000818110D01*
X0001038728Y0000808411D01*
X0001051385Y0000803155D01*
X0001065089Y0000803143D01*
X0001077736Y0000808369D01*
X0001077799Y0000808270D01*
X0001083720Y0000804225D01*
X0001090748Y0000802802D01*
X0001124212Y0000802802D01*
X0001130777Y0000804037D01*
X0001136807Y0000807917D01*
X0001140853Y0000813838D01*
X0001142276Y0000820866D01*
X0001142276Y0000828753D01*
X0001267365Y0000828753D01*
X0001268282Y0000791833D01*
X0001280647Y0000761981D01*
X0001293790Y0000754333D01*
X0001352055Y0000812598D01*
X0001369204Y0000812598D01*
X0001427468Y0000754333D01*
X0001440612Y0000761981D01*
X0001453894Y0000796442D01*
X0001452977Y0000833363D01*
X0001440612Y0000863214D01*
X0001427468Y0000870863D01*
X0001369204Y0000812598D01*
X0001352055Y0000812598D01*
X0001293790Y0000870863D01*
X0001280647Y0000863214D01*
X0001267365Y0000828753D01*
X0001142276Y0000828753D01*
X0001142276Y0000854330D01*
X0001141040Y0000860896D01*
X0001137160Y0000866925D01*
X0001131240Y0000870971D01*
X0001124212Y0000872394D01*
X0001090748Y0000872394D01*
X0001084182Y0000871158D01*
X0001078152Y0000867278D01*
X0001077812Y0000866780D01*
X0001077806Y0000866785D01*
X0001065150Y0000872041D01*
X0001051445Y0000872053D01*
X0001038779Y0000866819D01*
X0001029080Y0000857137D01*
X0001023824Y0000844480D01*
X0001023812Y0000830776D01*
X0000900538Y0000830776D01*
X0000902639Y0000841338D01*
X0000899267Y0000858288D01*
X0000889666Y0000872657D01*
X0000879519Y0000879437D01*
X0001302365Y0000879437D01*
X0001360629Y0000821172D01*
X0001418894Y0000879437D01*
X0001411246Y0000892581D01*
X0001376785Y0000905862D01*
X0001339864Y0000904946D01*
X0001310013Y0000892581D01*
X0001302365Y0000879437D01*
X0000879519Y0000879437D01*
X0000875297Y0000882258D01*
X0000858348Y0000885629D01*
X0000856612Y0000885629D01*
X0000839662Y0000882258D01*
X0000825293Y0000872657D01*
X0000815692Y0000858288D01*
X0000812321Y0000841338D01*
X0000436172Y0000841338D01*
X0000427801Y0000861597D01*
X0000403457Y0000885983D01*
X0000371634Y0000899197D01*
X0000337177Y0000899227D01*
X0000305331Y0000886069D01*
X0000280945Y0000861725D01*
X0000267731Y0000829902D01*
X0000267701Y0000795445D01*
X0000244441Y0000795445D01*
X0000244441Y0000881496D01*
X0000243206Y0000888061D01*
X0000239326Y0000894091D01*
X0000233405Y0000898136D01*
X0000226377Y0000899559D01*
X0000088582Y0000899559D01*
X0000082017Y0000898324D01*
X0000075987Y0000894444D01*
X0000071942Y0000888523D01*
X0000070519Y0000881496D01*
X0000070519Y0000743700D01*
X0000071754Y0000737135D01*
X0000075634Y0000731105D01*
X0000081554Y0000727060D01*
X0000088582Y0000725637D01*
X0000088895Y0000725637D01*
X0000041668Y0000678410D01*
X0000029157Y0000659685D01*
X0000024763Y0000637598D01*
X0000020669Y0000637598D01*
X0000020669Y0001025621D01*
X0000041239Y0001025621D01*
X0000058883Y0000982918D01*
X0000091526Y0000950219D01*
X0000134198Y0000932500D01*
X0000180402Y0000932460D01*
X0000223104Y0000950104D01*
X0000255804Y0000982747D01*
X0000273523Y0001025418D01*
X0000273563Y0001071622D01*
X0000255919Y0001114325D01*
X0000223276Y0001147024D01*
X0000180604Y0001164743D01*
X0000134400Y0001164783D01*
X0000091698Y0001147139D01*
X0000058998Y0001114496D01*
X0000041280Y0001071825D01*
X0000041239Y0001025621D01*
X0000020669Y0001025621D01*
X0000020669Y0001060956D01*
X0000031457Y0001115192D01*
X0000061026Y0001159445D01*
X0000105279Y0001189014D01*
X0000157480Y0001199398D01*
X0000209680Y0001189014D01*
X0000209680Y0001189014D01*
G37*
X0000209680Y0001189014D02*
X0000253933Y0001159445D01*
X0000283503Y0001115192D01*
X0000294688Y0001058959D01*
X0000303679Y0001013761D01*
X0000303679Y0001013760D01*
X0000305222Y0001010035D01*
X0000306765Y0001006310D01*
X0000306765Y0001006309D01*
X0000332368Y0000967992D01*
X0000338071Y0000962289D01*
X0000376388Y0000936686D01*
X0000376388Y0000936686D01*
X0000380753Y0000934878D01*
X0000383839Y0000933600D01*
X0000383839Y0000933600D01*
X0000429038Y0000924609D01*
X0000431074Y0000924609D01*
X0000433070Y0000924212D01*
X0001808987Y0000924212D01*
X0001833091Y0000919418D01*
X0001851799Y0000906917D01*
X0001864299Y0000888209D01*
X0001869094Y0000864106D01*
X0001869094Y0000721623D01*
X0001837449Y0000753323D01*
X0001794778Y0000771042D01*
X0001748574Y0000771083D01*
X0001705871Y0000753438D01*
X0001673172Y0000720796D01*
X0001655453Y0000678124D01*
X0001655412Y0000631920D01*
X0001673057Y0000589218D01*
X0001705699Y0000556518D01*
X0001748371Y0000538799D01*
X0001794575Y0000538759D01*
X0001837277Y0000556403D01*
X0001869094Y0000588164D01*
X0001869094Y0000080775D01*
X0001864299Y0000056672D01*
X0001851799Y0000037964D01*
X0001833091Y0000025463D01*
X0001808987Y0000020669D01*
X0000080775Y0000020669D01*
X0000056672Y0000025463D01*
X0000037964Y0000037964D01*
X0000025463Y0000056672D01*
X0000020669Y0000080775D01*
X0000020669Y0000637598D01*
X0000024763Y0000637598D01*
X0000024763Y0000637598D01*
X0000024763Y0000137598D01*
X0000024763Y0000137598D01*
X0000029157Y0000115511D01*
X0000041668Y0000096786D01*
X0000091668Y0000046786D01*
X0000091668Y0000046786D01*
X0000106129Y0000037124D01*
X0000110393Y0000034275D01*
X0000132480Y0000029881D01*
X0000978880Y0000029881D01*
X0000982145Y0000027650D01*
X0000989173Y0000026227D01*
X0001075787Y0000026227D01*
X0001082352Y0000027463D01*
X0001086111Y0000029881D01*
X0001130905Y0000029881D01*
X0001130905Y0000029881D01*
X0001152992Y0000034275D01*
X0001171717Y0000046786D01*
X0001296717Y0000171786D01*
X0001296717Y0000171786D01*
X0001298292Y0000173361D01*
X0001300078Y0000176034D01*
X0001305847Y0000181794D01*
X0001309001Y0000189389D01*
X0001310803Y0000192086D01*
X0001311430Y0000195239D01*
X0001314556Y0000202768D01*
X0001314564Y0000210992D01*
X0001315196Y0000214173D01*
X0001314569Y0000217326D01*
X0001314576Y0000225478D01*
X0001311436Y0000233079D01*
X0001310803Y0000236260D01*
X0001309017Y0000238933D01*
X0001305904Y0000246467D01*
X0001300093Y0000252288D01*
X0001298292Y0000254984D01*
X0001295619Y0000256771D01*
X0001289859Y0000262540D01*
X0001282264Y0000265694D01*
X0001279567Y0000267496D01*
X0001276414Y0000268123D01*
X0001268885Y0000271249D01*
X0001260661Y0000271257D01*
X0001257480Y0000271889D01*
X0001254327Y0000271262D01*
X0001246174Y0000271269D01*
X0001238573Y0000268129D01*
X0001235393Y0000267496D01*
X0001232720Y0000265710D01*
X0001225185Y0000262597D01*
X0001219365Y0000256786D01*
X0001216668Y0000254984D01*
X0001215093Y0000253410D01*
X0001215093Y0000253410D01*
X0001106998Y0000145314D01*
X0001086080Y0000145314D01*
X0001082815Y0000147545D01*
X0001075787Y0000148969D01*
X0000989173Y0000148969D01*
X0000982607Y0000147733D01*
X0000978848Y0000145314D01*
X0000156387Y0000145314D01*
X0000140196Y0000161505D01*
X0000140196Y0000197370D01*
X0000800095Y0000197370D01*
X0000810291Y0000176569D01*
X0000827670Y0000161253D01*
X0000842252Y0000155214D01*
X0000851417Y0000159557D01*
X0000851417Y0000206535D01*
X0000863543Y0000206535D01*
X0000863543Y0000159557D01*
X0000872707Y0000155214D01*
X0000887289Y0000161253D01*
X0000904669Y0000176569D01*
X0000914864Y0000197370D01*
X0000910556Y0000206535D01*
X0000863543Y0000206535D01*
X0000851417Y0000206535D01*
X0000804404Y0000206535D01*
X0000800095Y0000197370D01*
X0000140196Y0000197370D01*
X0000140196Y0000613691D01*
X0000198291Y0000671786D01*
X0000198292Y0000671786D01*
X0000210803Y0000690511D01*
X0000212051Y0000696786D01*
X0000215196Y0000712598D01*
X0000215196Y0000712598D01*
X0000215196Y0000725637D01*
X0000226377Y0000725637D01*
X0000232943Y0000726872D01*
X0000238973Y0000730752D01*
X0000243018Y0000736673D01*
X0000244441Y0000743700D01*
X0000244441Y0000795445D01*
X0000267701Y0000795445D01*
X0000280859Y0000763599D01*
X0000305203Y0000739213D01*
X0000337026Y0000725999D01*
X0000359325Y0000725979D01*
X0000388518Y0000696786D01*
X0000388518Y0000696786D01*
X0000407243Y0000684275D01*
X0000410908Y0000683546D01*
X0000429330Y0000679881D01*
X0000429330Y0000679881D01*
X0000658573Y0000679881D01*
X0000674763Y0000663691D01*
X0000674763Y0000362598D01*
X0000674763Y0000362598D01*
X0000679157Y0000340511D01*
X0000691668Y0000321786D01*
X0000741668Y0000271786D01*
X0000741668Y0000271786D01*
X0000755421Y0000262597D01*
X0000760393Y0000259275D01*
X0000782480Y0000254881D01*
X0000817388Y0000254881D01*
X0000810291Y0000248626D01*
X0000800095Y0000227825D01*
X0000804404Y0000218661D01*
X0000851417Y0000218661D01*
X0000851417Y0000219448D01*
X0000863543Y0000219448D01*
X0000863543Y0000218661D01*
X0000910556Y0000218661D01*
X0000914864Y0000227825D01*
X0000904669Y0000248626D01*
X0000887289Y0000263942D01*
X0000886834Y0000264131D01*
X0000898292Y0000271786D01*
X0000910803Y0000290511D01*
X0000915196Y0000312598D01*
X0000910803Y0000334685D01*
X0000898292Y0000353410D01*
X0000889774Y0000359101D01*
X0000892913Y0000359101D01*
X0000899478Y0000360337D01*
X0000905508Y0000364217D01*
X0000909553Y0000370137D01*
X0000910976Y0000377165D01*
X0000910976Y0000411023D01*
X0001199763Y0000411023D01*
X0001200390Y0000407870D01*
X0001200383Y0000399718D01*
X0001203524Y0000392117D01*
X0001204157Y0000388936D01*
X0001205943Y0000386263D01*
X0001209056Y0000378728D01*
X0001214866Y0000372908D01*
X0001216668Y0000370211D01*
X0001219341Y0000368425D01*
X0001225101Y0000362656D01*
X0001232696Y0000359502D01*
X0001235393Y0000357700D01*
X0001238545Y0000357073D01*
X0001246075Y0000353946D01*
X0001254299Y0000353939D01*
X0001257480Y0000353307D01*
X0001355905Y0000353307D01*
X0001355905Y0000353307D01*
X0001377992Y0000357700D01*
X0001396717Y0000370211D01*
X0001598291Y0000571786D01*
X0001598292Y0000571786D01*
X0001610803Y0000590511D01*
X0001615196Y0000612598D01*
X0001615196Y0000725637D01*
X0001626377Y0000725637D01*
X0001632943Y0000726872D01*
X0001638973Y0000730752D01*
X0001643018Y0000736673D01*
X0001644441Y0000743700D01*
X0001644441Y0000881496D01*
X0001643206Y0000888061D01*
X0001639326Y0000894091D01*
X0001633405Y0000898136D01*
X0001626377Y0000899559D01*
X0001488582Y0000899559D01*
X0001482017Y0000898324D01*
X0001475987Y0000894444D01*
X0001471942Y0000888523D01*
X0001470519Y0000881496D01*
X0001470519Y0000743700D01*
X0001471754Y0000737135D01*
X0001475634Y0000731105D01*
X0001481554Y0000727060D01*
X0001488582Y0000725637D01*
X0001499763Y0000725637D01*
X0001499763Y0000636505D01*
X0001331998Y0000468740D01*
X0001257480Y0000468740D01*
X0001254327Y0000468112D01*
X0001246174Y0000468120D01*
X0001238573Y0000464979D01*
X0001235393Y0000464346D01*
X0001232720Y0000462560D01*
X0001225185Y0000459447D01*
X0001219365Y0000453637D01*
X0001216668Y0000451835D01*
X0001214882Y0000449162D01*
X0001209112Y0000443402D01*
X0001205958Y0000435807D01*
X0001204157Y0000433110D01*
X0001203530Y0000429957D01*
X0001200403Y0000422428D01*
X0001200396Y0000414204D01*
X0001199763Y0000411023D01*
X0000910976Y0000411023D01*
X0000910976Y0000448031D01*
X0000909741Y0000454596D01*
X0000905861Y0000460626D01*
X0000899941Y0000464671D01*
X0000892913Y0000466095D01*
X0000822047Y0000466095D01*
X0000815481Y0000464859D01*
X0000809451Y0000460979D01*
X0000805406Y0000455059D01*
X0000803983Y0000448031D01*
X0000803983Y0000377165D01*
X0000805014Y0000371687D01*
X0000790196Y0000386505D01*
X0000790196Y0000488793D01*
X0000971456Y0000488793D01*
X0000971456Y0000486402D01*
X0000976101Y0000463050D01*
X0000989330Y0000443252D01*
X0001009127Y0000430024D01*
X0001032480Y0000425379D01*
X0001055833Y0000430024D01*
X0001075630Y0000443252D01*
X0001088858Y0000463050D01*
X0001093503Y0000486402D01*
X0001093503Y0000488793D01*
X0001088858Y0000512146D01*
X0001075630Y0000531944D01*
X0001055833Y0000545172D01*
X0001032480Y0000549817D01*
X0001009127Y0000545172D01*
X0000989330Y0000531944D01*
X0000976101Y0000512146D01*
X0000971456Y0000488793D01*
X0000790196Y0000488793D01*
X0000790196Y0000587598D01*
X0000823522Y0000587598D01*
X0000826968Y0000570272D01*
X0000836783Y0000555583D01*
X0000851471Y0000545769D01*
X0000868797Y0000542322D01*
X0000870572Y0000542322D01*
X0000887898Y0000545769D01*
X0000895272Y0000550696D01*
X0001116948Y0000550696D01*
X0001119525Y0000541841D01*
X0001138995Y0000535470D01*
X0001159422Y0000537035D01*
X0001171025Y0000541841D01*
X0001173602Y0000550696D01*
X0001145275Y0000579024D01*
X0001116948Y0000550696D01*
X0000895272Y0000550696D01*
X0000902586Y0000555583D01*
X0000912401Y0000570272D01*
X0000915847Y0000587598D01*
X0000914598Y0000593877D01*
X0001093147Y0000593877D01*
X0001094712Y0000573451D01*
X0001099518Y0000561848D01*
X0001108373Y0000559271D01*
X0001136701Y0000587598D01*
X0001153849Y0000587598D01*
X0001182177Y0000559271D01*
X0001191032Y0000561848D01*
X0001197403Y0000581318D01*
X0001195838Y0000601745D01*
X0001191032Y0000613348D01*
X0001182177Y0000615925D01*
X0001153849Y0000587598D01*
X0001136701Y0000587598D01*
X0001108373Y0000615925D01*
X0001099518Y0000613348D01*
X0001093147Y0000593877D01*
X0000914598Y0000593877D01*
X0000912401Y0000604924D01*
X0000902586Y0000619613D01*
X0000895272Y0000624500D01*
X0001116948Y0000624500D01*
X0001145275Y0000596172D01*
X0001173602Y0000624500D01*
X0001171025Y0000633355D01*
X0001151555Y0000639726D01*
X0001131128Y0000638161D01*
X0001119525Y0000633355D01*
X0001116948Y0000624500D01*
X0000895272Y0000624500D01*
X0000887898Y0000629427D01*
X0000870572Y0000632874D01*
X0000868797Y0000632874D01*
X0000851471Y0000629427D01*
X0000836783Y0000619613D01*
X0000826968Y0000604924D01*
X0000823522Y0000587598D01*
X0000790196Y0000587598D01*
X0000790196Y0000687598D01*
X0000785803Y0000709685D01*
X0000773292Y0000728410D01*
X0000773291Y0000728410D01*
X0000723292Y0000778410D01*
X0000704567Y0000790921D01*
X0000682480Y0000795315D01*
X0000682480Y0000795314D01*
X0000453237Y0000795314D01*
X0000440940Y0000807612D01*
X0000440959Y0000829751D01*
X0000436172Y0000841338D01*
X0000812321Y0000841338D01*
X0000815692Y0000824389D01*
X0000825293Y0000810019D01*
X0000829776Y0000807024D01*
X0000824340Y0000806001D01*
X0000818310Y0000802121D01*
X0000814265Y0000796200D01*
X0000812841Y0000789173D01*
X0000812841Y0000736023D01*
X0000814077Y0000729458D01*
X0000817957Y0000723428D01*
X0000823877Y0000719383D01*
X0000830905Y0000717959D01*
X0000884055Y0000717959D01*
X0000890620Y0000719195D01*
X0000896650Y0000723075D01*
X0000900695Y0000728995D01*
X0000902118Y0000736023D01*
X0000902118Y0000745759D01*
X0001302365Y0000745759D01*
X0001310013Y0000732615D01*
X0001344474Y0000719333D01*
X0001381394Y0000720250D01*
X0001411246Y0000732615D01*
X0001418894Y0000745759D01*
X0001360629Y0000804024D01*
X0001302365Y0000745759D01*
X0000902118Y0000745759D01*
X0000902118Y0000789173D01*
X0000900883Y0000795738D01*
X0000897003Y0000801768D01*
X0000891082Y0000805813D01*
X0000885165Y0000807012D01*
X0000889666Y0000810019D01*
X0000899267Y0000824389D01*
X0000900538Y0000830776D01*
X0001023812Y0000830776D01*
X0001029046Y0000818110D01*
X0001038728Y0000808411D01*
X0001051385Y0000803155D01*
X0001065089Y0000803143D01*
X0001077736Y0000808369D01*
X0001077799Y0000808270D01*
X0001083720Y0000804225D01*
X0001090748Y0000802802D01*
X0001124212Y0000802802D01*
X0001130777Y0000804037D01*
X0001136807Y0000807917D01*
X0001140853Y0000813838D01*
X0001142276Y0000820866D01*
X0001142276Y0000828753D01*
X0001267365Y0000828753D01*
X0001268282Y0000791833D01*
X0001280647Y0000761981D01*
X0001293790Y0000754333D01*
X0001352055Y0000812598D01*
X0001369204Y0000812598D01*
X0001427468Y0000754333D01*
X0001440612Y0000761981D01*
X0001453894Y0000796442D01*
X0001452977Y0000833363D01*
X0001440612Y0000863214D01*
X0001427468Y0000870863D01*
X0001369204Y0000812598D01*
X0001352055Y0000812598D01*
X0001293790Y0000870863D01*
X0001280647Y0000863214D01*
X0001267365Y0000828753D01*
X0001142276Y0000828753D01*
X0001142276Y0000854330D01*
X0001141040Y0000860896D01*
X0001137160Y0000866925D01*
X0001131240Y0000870971D01*
X0001124212Y0000872394D01*
X0001090748Y0000872394D01*
X0001084182Y0000871158D01*
X0001078152Y0000867278D01*
X0001077812Y0000866780D01*
X0001077806Y0000866785D01*
X0001065150Y0000872041D01*
X0001051445Y0000872053D01*
X0001038779Y0000866819D01*
X0001029080Y0000857137D01*
X0001023824Y0000844480D01*
X0001023812Y0000830776D01*
X0000900538Y0000830776D01*
X0000902639Y0000841338D01*
X0000899267Y0000858288D01*
X0000889666Y0000872657D01*
X0000879519Y0000879437D01*
X0001302365Y0000879437D01*
X0001360629Y0000821172D01*
X0001418894Y0000879437D01*
X0001411246Y0000892581D01*
X0001376785Y0000905862D01*
X0001339864Y0000904946D01*
X0001310013Y0000892581D01*
X0001302365Y0000879437D01*
X0000879519Y0000879437D01*
X0000875297Y0000882258D01*
X0000858348Y0000885629D01*
X0000856612Y0000885629D01*
X0000839662Y0000882258D01*
X0000825293Y0000872657D01*
X0000815692Y0000858288D01*
X0000812321Y0000841338D01*
X0000436172Y0000841338D01*
X0000427801Y0000861597D01*
X0000403457Y0000885983D01*
X0000371634Y0000899197D01*
X0000337177Y0000899227D01*
X0000305331Y0000886069D01*
X0000280945Y0000861725D01*
X0000267731Y0000829902D01*
X0000267701Y0000795445D01*
X0000244441Y0000795445D01*
X0000244441Y0000881496D01*
X0000243206Y0000888061D01*
X0000239326Y0000894091D01*
X0000233405Y0000898136D01*
X0000226377Y0000899559D01*
X0000088582Y0000899559D01*
X0000082017Y0000898324D01*
X0000075987Y0000894444D01*
X0000071942Y0000888523D01*
X0000070519Y0000881496D01*
X0000070519Y0000743700D01*
X0000071754Y0000737135D01*
X0000075634Y0000731105D01*
X0000081554Y0000727060D01*
X0000088582Y0000725637D01*
X0000088895Y0000725637D01*
X0000041668Y0000678410D01*
X0000029157Y0000659685D01*
X0000024763Y0000637598D01*
X0000020669Y0000637598D01*
X0000020669Y0001025621D01*
X0000041239Y0001025621D01*
X0000058883Y0000982918D01*
X0000091526Y0000950219D01*
X0000134198Y0000932500D01*
X0000180402Y0000932460D01*
X0000223104Y0000950104D01*
X0000255804Y0000982747D01*
X0000273523Y0001025418D01*
X0000273563Y0001071622D01*
X0000255919Y0001114325D01*
X0000223276Y0001147024D01*
X0000180604Y0001164743D01*
X0000134400Y0001164783D01*
X0000091698Y0001147139D01*
X0000058998Y0001114496D01*
X0000041280Y0001071825D01*
X0000041239Y0001025621D01*
X0000020669Y0001025621D01*
X0000020669Y0001060956D01*
X0000031457Y0001115192D01*
X0000061026Y0001159445D01*
X0000105279Y0001189014D01*
X0000157480Y0001199398D01*
X0000209680Y0001189014D01*
G04 next file*
G04 #@! TF.FileFunction,Copper,L2,Bot,Signal*
G04 Gerber Fmt 4.6, Leading zero omitted, Abs format (unit mm)*
G04 Created by KiCad (PCBNEW 4.0.7) date 08/24/19 09:27:58*
G01*
G04 APERTURE LIST*
G04 APERTURE END LIST*
D37*
D38*
X-0002874015Y0004212598D02*
X0003740078Y0000654921D03*
X0002125905Y0001048622D03*
D39*
X0003225984Y0000214173D03*
X0003225984Y0000411023D03*
D40*
X0002825984Y0000412598D03*
D41*
X0002825984Y0000312598D03*
X0002825984Y0000212598D03*
D42*
X0002125984Y0000812598D03*
D43*
X0002322834Y0000812598D03*
D44*
X0003075984Y0000837598D03*
D45*
X0003026771Y0000837598D03*
D46*
X0003000984Y0000087598D03*
D47*
X0003000984Y0000487598D03*
D48*
X0003113779Y0000587598D03*
D49*
X0002838188Y0000587598D03*
D50*
X0002825984Y0000762598D03*
D51*
X0002825984Y0000841338D03*
D42*
X0003525984Y0000812598D03*
D43*
X0003329133Y0000812598D03*
D52*
X0002825984Y0000312598D02*
X0002750984Y0000312598D01*
X0002750984Y0000312598D02*
X0002700984Y0000362598D01*
X0002700984Y0000362598D02*
X0002700984Y0000687598D01*
X0002700984Y0000687598D02*
X0002650984Y0000737598D01*
X0002650984Y0000737598D02*
X0002397834Y0000737598D01*
X0002397834Y0000737598D02*
X0002322834Y0000812598D01*
X0003000984Y0000087598D02*
X0003099409Y0000087598D01*
X0003099409Y0000087598D02*
X0003225984Y0000214173D01*
X0003000984Y0000087598D02*
X0002950984Y0000087598D01*
X0002950984Y0000087598D02*
X0002100984Y0000087598D01*
X0002100984Y0000087598D02*
X0002050984Y0000137598D01*
X0002050984Y0000137598D02*
X0002050984Y0000637598D01*
X0002050984Y0000637598D02*
X0002125984Y0000712598D01*
X0002125984Y0000712598D02*
X0002125984Y0000812598D01*
X0003224409Y0000212598D02*
X0003225984Y0000214173D01*
X0003225984Y0000411023D02*
X0003324409Y0000411023D01*
X0003525984Y0000612598D02*
X0003525984Y0000812598D01*
X0003324409Y0000411023D02*
X0003525984Y0000612598D01*
X0002825984Y0000212598D02*
X0002875984Y0000212598D01*
X0003329133Y0000665747D02*
X0003329133Y0000812598D01*
X0002875984Y0000212598D02*
X0003329133Y0000665747D01*
D53*
G36*
X0002178184Y0001189014D02*
X0002222437Y0001159445D01*
X0002252007Y0001115192D01*
X0002263192Y0001058959D01*
X0002272182Y0001013761D01*
X0002272182Y0001013760D01*
X0002273726Y0001010035D01*
X0002275269Y0001006310D01*
X0002275269Y0001006309D01*
X0002300872Y0000967992D01*
X0002306575Y0000962289D01*
X0002344892Y0000936686D01*
X0002344892Y0000936686D01*
X0002349257Y0000934878D01*
X0002352343Y0000933600D01*
X0002352343Y0000933600D01*
X0002397542Y0000924609D01*
X0002399578Y0000924609D01*
X0002401574Y0000924212D01*
X0003777491Y0000924212D01*
X0003801595Y0000919418D01*
X0003820303Y0000906917D01*
X0003832803Y0000888209D01*
X0003837598Y0000864106D01*
X0003837598Y0000721623D01*
X0003805953Y0000753323D01*
X0003763282Y0000771042D01*
X0003717078Y0000771083D01*
X0003674375Y0000753438D01*
X0003641675Y0000720796D01*
X0003623957Y0000678124D01*
X0003623916Y0000631920D01*
X0003641561Y0000589218D01*
X0003674203Y0000556518D01*
X0003716875Y0000538799D01*
X0003763079Y0000538759D01*
X0003805781Y0000556403D01*
X0003837598Y0000588164D01*
X0003837598Y0000080775D01*
X0003832803Y0000056672D01*
X0003820303Y0000037964D01*
X0003801595Y0000025463D01*
X0003777491Y0000020669D01*
X0002049279Y0000020669D01*
X0002025176Y0000025463D01*
X0002006468Y0000037964D01*
X0001993967Y0000056672D01*
X0001989173Y0000080775D01*
X0001989173Y0000637598D01*
X0001993267Y0000637598D01*
X0001993267Y0000637598D01*
X0001993267Y0000137598D01*
X0001993267Y0000137598D01*
X0001997661Y0000115511D01*
X0002010172Y0000096786D01*
X0002060172Y0000046786D01*
X0002060172Y0000046786D01*
X0002074633Y0000037124D01*
X0002078897Y0000034275D01*
X0002100984Y0000029881D01*
X0002947384Y0000029881D01*
X0002950649Y0000027650D01*
X0002957677Y0000026227D01*
X0003044291Y0000026227D01*
X0003050856Y0000027463D01*
X0003054615Y0000029881D01*
X0003099409Y0000029881D01*
X0003099409Y0000029881D01*
X0003121496Y0000034275D01*
X0003140221Y0000046786D01*
X0003265221Y0000171786D01*
X0003265221Y0000171786D01*
X0003266796Y0000173361D01*
X0003268582Y0000176034D01*
X0003274351Y0000181794D01*
X0003277505Y0000189389D01*
X0003279307Y0000192086D01*
X0003279934Y0000195239D01*
X0003283060Y0000202768D01*
X0003283068Y0000210992D01*
X0003283700Y0000214173D01*
X0003283073Y0000217326D01*
X0003283080Y0000225478D01*
X0003279940Y0000233079D01*
X0003279307Y0000236260D01*
X0003277521Y0000238933D01*
X0003274408Y0000246467D01*
X0003268597Y0000252288D01*
X0003266796Y0000254984D01*
X0003264122Y0000256771D01*
X0003258363Y0000262540D01*
X0003250768Y0000265694D01*
X0003248071Y0000267496D01*
X0003244918Y0000268123D01*
X0003237389Y0000271249D01*
X0003229165Y0000271257D01*
X0003225984Y0000271889D01*
X0003222831Y0000271262D01*
X0003214678Y0000271269D01*
X0003207077Y0000268129D01*
X0003203897Y0000267496D01*
X0003201224Y0000265710D01*
X0003193689Y0000262597D01*
X0003187868Y0000256786D01*
X0003185172Y0000254984D01*
X0003183597Y0000253410D01*
X0003183597Y0000253410D01*
X0003075502Y0000145314D01*
X0003054584Y0000145314D01*
X0003051319Y0000147545D01*
X0003044291Y0000148969D01*
X0002957677Y0000148969D01*
X0002951111Y0000147733D01*
X0002947352Y0000145314D01*
X0002124891Y0000145314D01*
X0002108700Y0000161505D01*
X0002108700Y0000197370D01*
X0002768599Y0000197370D01*
X0002778795Y0000176569D01*
X0002796174Y0000161253D01*
X0002810756Y0000155214D01*
X0002819921Y0000159557D01*
X0002819921Y0000206535D01*
X0002832047Y0000206535D01*
X0002832047Y0000159557D01*
X0002841211Y0000155214D01*
X0002855793Y0000161253D01*
X0002873173Y0000176569D01*
X0002883368Y0000197370D01*
X0002879060Y0000206535D01*
X0002832047Y0000206535D01*
X0002819921Y0000206535D01*
X0002772908Y0000206535D01*
X0002768599Y0000197370D01*
X0002108700Y0000197370D01*
X0002108700Y0000613691D01*
X0002166795Y0000671786D01*
X0002166796Y0000671786D01*
X0002179307Y0000690511D01*
X0002180555Y0000696786D01*
X0002183700Y0000712598D01*
X0002183700Y0000712598D01*
X0002183700Y0000725637D01*
X0002194881Y0000725637D01*
X0002201447Y0000726872D01*
X0002207477Y0000730752D01*
X0002211522Y0000736673D01*
X0002212945Y0000743700D01*
X0002212945Y0000795445D01*
X0002236205Y0000795445D01*
X0002249363Y0000763599D01*
X0002273707Y0000739213D01*
X0002305530Y0000725999D01*
X0002327829Y0000725979D01*
X0002357022Y0000696786D01*
X0002357022Y0000696786D01*
X0002375747Y0000684275D01*
X0002379411Y0000683546D01*
X0002397834Y0000679881D01*
X0002397834Y0000679881D01*
X0002627077Y0000679881D01*
X0002643267Y0000663691D01*
X0002643267Y0000362598D01*
X0002643267Y0000362598D01*
X0002647661Y0000340511D01*
X0002660172Y0000321786D01*
X0002710172Y0000271786D01*
X0002710172Y0000271786D01*
X0002723925Y0000262597D01*
X0002728897Y0000259275D01*
X0002750984Y0000254881D01*
X0002785892Y0000254881D01*
X0002778795Y0000248626D01*
X0002768599Y0000227825D01*
X0002772908Y0000218661D01*
X0002819921Y0000218661D01*
X0002819921Y0000219448D01*
X0002832047Y0000219448D01*
X0002832047Y0000218661D01*
X0002879060Y0000218661D01*
X0002883368Y0000227825D01*
X0002873173Y0000248626D01*
X0002855793Y0000263942D01*
X0002855338Y0000264131D01*
X0002866796Y0000271786D01*
X0002879307Y0000290511D01*
X0002883700Y0000312598D01*
X0002879307Y0000334685D01*
X0002866796Y0000353410D01*
X0002858277Y0000359101D01*
X0002861417Y0000359101D01*
X0002867982Y0000360337D01*
X0002874012Y0000364217D01*
X0002878057Y0000370137D01*
X0002879480Y0000377165D01*
X0002879480Y0000411023D01*
X0003168267Y0000411023D01*
X0003168894Y0000407870D01*
X0003168887Y0000399718D01*
X0003172028Y0000392117D01*
X0003172661Y0000388936D01*
X0003174447Y0000386263D01*
X0003177560Y0000378728D01*
X0003183370Y0000372908D01*
X0003185172Y0000370211D01*
X0003187845Y0000368425D01*
X0003193605Y0000362656D01*
X0003201200Y0000359502D01*
X0003203897Y0000357700D01*
X0003207049Y0000357073D01*
X0003214579Y0000353946D01*
X0003222803Y0000353939D01*
X0003225984Y0000353307D01*
X0003324409Y0000353307D01*
X0003324409Y0000353307D01*
X0003346496Y0000357700D01*
X0003365221Y0000370211D01*
X0003566795Y0000571786D01*
X0003566796Y0000571786D01*
X0003579307Y0000590511D01*
X0003583700Y0000612598D01*
X0003583700Y0000725637D01*
X0003594881Y0000725637D01*
X0003601447Y0000726872D01*
X0003607477Y0000730752D01*
X0003611522Y0000736673D01*
X0003612945Y0000743700D01*
X0003612945Y0000881496D01*
X0003611710Y0000888061D01*
X0003607830Y0000894091D01*
X0003601909Y0000898136D01*
X0003594881Y0000899559D01*
X0003457086Y0000899559D01*
X0003450521Y0000898324D01*
X0003444491Y0000894444D01*
X0003440446Y0000888523D01*
X0003439022Y0000881496D01*
X0003439022Y0000743700D01*
X0003440258Y0000737135D01*
X0003444138Y0000731105D01*
X0003450058Y0000727060D01*
X0003457086Y0000725637D01*
X0003468267Y0000725637D01*
X0003468267Y0000636505D01*
X0003300502Y0000468740D01*
X0003225984Y0000468740D01*
X0003222831Y0000468112D01*
X0003214678Y0000468120D01*
X0003207077Y0000464979D01*
X0003203897Y0000464346D01*
X0003201224Y0000462560D01*
X0003193689Y0000459447D01*
X0003187869Y0000453637D01*
X0003185172Y0000451835D01*
X0003183386Y0000449162D01*
X0003177616Y0000443402D01*
X0003174462Y0000435807D01*
X0003172661Y0000433110D01*
X0003172033Y0000429957D01*
X0003168907Y0000422428D01*
X0003168900Y0000414204D01*
X0003168267Y0000411023D01*
X0002879480Y0000411023D01*
X0002879480Y0000448031D01*
X0002878245Y0000454596D01*
X0002874365Y0000460626D01*
X0002868445Y0000464671D01*
X0002861417Y0000466095D01*
X0002790551Y0000466095D01*
X0002783985Y0000464859D01*
X0002777955Y0000460979D01*
X0002773910Y0000455059D01*
X0002772487Y0000448031D01*
X0002772487Y0000377165D01*
X0002773518Y0000371687D01*
X0002758700Y0000386505D01*
X0002758700Y0000488793D01*
X0002939960Y0000488793D01*
X0002939960Y0000486402D01*
X0002944605Y0000463050D01*
X0002957834Y0000443252D01*
X0002977631Y0000430024D01*
X0003000984Y0000425379D01*
X0003024336Y0000430024D01*
X0003044134Y0000443252D01*
X0003057362Y0000463050D01*
X0003062007Y0000486402D01*
X0003062007Y0000488793D01*
X0003057362Y0000512146D01*
X0003044134Y0000531944D01*
X0003024336Y0000545172D01*
X0003000984Y0000549817D01*
X0002977631Y0000545172D01*
X0002957834Y0000531944D01*
X0002944605Y0000512146D01*
X0002939960Y0000488793D01*
X0002758700Y0000488793D01*
X0002758700Y0000587598D01*
X0002792026Y0000587598D01*
X0002795472Y0000570272D01*
X0002805287Y0000555583D01*
X0002819975Y0000545769D01*
X0002837301Y0000542322D01*
X0002839075Y0000542322D01*
X0002856402Y0000545769D01*
X0002863776Y0000550696D01*
X0003085452Y0000550696D01*
X0003088029Y0000541841D01*
X0003107499Y0000535470D01*
X0003127926Y0000537035D01*
X0003139529Y0000541841D01*
X0003142106Y0000550696D01*
X0003113779Y0000579024D01*
X0003085452Y0000550696D01*
X0002863776Y0000550696D01*
X0002871090Y0000555583D01*
X0002880905Y0000570272D01*
X0002884351Y0000587598D01*
X0002883102Y0000593877D01*
X0003061651Y0000593877D01*
X0003063216Y0000573451D01*
X0003068022Y0000561848D01*
X0003076877Y0000559271D01*
X0003105205Y0000587598D01*
X0003122353Y0000587598D01*
X0003150681Y0000559271D01*
X0003159536Y0000561848D01*
X0003165907Y0000581318D01*
X0003164342Y0000601745D01*
X0003159536Y0000613348D01*
X0003150681Y0000615925D01*
X0003122353Y0000587598D01*
X0003105205Y0000587598D01*
X0003076877Y0000615925D01*
X0003068022Y0000613348D01*
X0003061651Y0000593877D01*
X0002883102Y0000593877D01*
X0002880905Y0000604924D01*
X0002871090Y0000619613D01*
X0002863776Y0000624500D01*
X0003085452Y0000624500D01*
X0003113779Y0000596172D01*
X0003142106Y0000624500D01*
X0003139529Y0000633355D01*
X0003120059Y0000639726D01*
X0003099632Y0000638161D01*
X0003088029Y0000633355D01*
X0003085452Y0000624500D01*
X0002863776Y0000624500D01*
X0002856402Y0000629427D01*
X0002839075Y0000632874D01*
X0002837301Y0000632874D01*
X0002819975Y0000629427D01*
X0002805287Y0000619613D01*
X0002795472Y0000604924D01*
X0002792026Y0000587598D01*
X0002758700Y0000587598D01*
X0002758700Y0000687598D01*
X0002754307Y0000709685D01*
X0002741795Y0000728410D01*
X0002741795Y0000728410D01*
X0002691796Y0000778410D01*
X0002673071Y0000790921D01*
X0002650984Y0000795315D01*
X0002650984Y0000795314D01*
X0002421741Y0000795314D01*
X0002409444Y0000807612D01*
X0002409463Y0000829751D01*
X0002404676Y0000841338D01*
X0002780825Y0000841338D01*
X0002784196Y0000824389D01*
X0002793797Y0000810019D01*
X0002798280Y0000807024D01*
X0002792844Y0000806001D01*
X0002786814Y0000802121D01*
X0002782768Y0000796200D01*
X0002781345Y0000789173D01*
X0002781345Y0000736023D01*
X0002782581Y0000729458D01*
X0002786461Y0000723428D01*
X0002792381Y0000719383D01*
X0002799409Y0000717959D01*
X0002852559Y0000717959D01*
X0002859124Y0000719195D01*
X0002865154Y0000723075D01*
X0002869199Y0000728995D01*
X0002870622Y0000736023D01*
X0002870622Y0000745759D01*
X0003270869Y0000745759D01*
X0003278517Y0000732615D01*
X0003312978Y0000719333D01*
X0003349898Y0000720250D01*
X0003379750Y0000732615D01*
X0003387398Y0000745759D01*
X0003329133Y0000804024D01*
X0003270869Y0000745759D01*
X0002870622Y0000745759D01*
X0002870622Y0000789173D01*
X0002869387Y0000795738D01*
X0002865507Y0000801768D01*
X0002859586Y0000805813D01*
X0002853669Y0000807012D01*
X0002858170Y0000810019D01*
X0002867771Y0000824389D01*
X0002869042Y0000830776D01*
X0002992316Y0000830776D01*
X0002997550Y0000818110D01*
X0003007232Y0000808411D01*
X0003019889Y0000803155D01*
X0003033593Y0000803143D01*
X0003046240Y0000808369D01*
X0003046303Y0000808270D01*
X0003052224Y0000804225D01*
X0003059251Y0000802802D01*
X0003092716Y0000802802D01*
X0003099281Y0000804037D01*
X0003105311Y0000807917D01*
X0003109357Y0000813838D01*
X0003110780Y0000820866D01*
X0003110780Y0000828753D01*
X0003235869Y0000828753D01*
X0003236786Y0000791833D01*
X0003249151Y0000761981D01*
X0003262294Y0000754333D01*
X0003320559Y0000812598D01*
X0003337708Y0000812598D01*
X0003395972Y0000754333D01*
X0003409116Y0000761981D01*
X0003422398Y0000796442D01*
X0003421481Y0000833363D01*
X0003409116Y0000863214D01*
X0003395972Y0000870863D01*
X0003337708Y0000812598D01*
X0003320559Y0000812598D01*
X0003262294Y0000870863D01*
X0003249151Y0000863214D01*
X0003235869Y0000828753D01*
X0003110780Y0000828753D01*
X0003110780Y0000854330D01*
X0003109544Y0000860896D01*
X0003105664Y0000866925D01*
X0003099744Y0000870971D01*
X0003092716Y0000872394D01*
X0003059251Y0000872394D01*
X0003052686Y0000871158D01*
X0003046656Y0000867278D01*
X0003046316Y0000866780D01*
X0003046310Y0000866785D01*
X0003033654Y0000872041D01*
X0003019949Y0000872053D01*
X0003007283Y0000866819D01*
X0002997584Y0000857137D01*
X0002992328Y0000844480D01*
X0002992316Y0000830776D01*
X0002869042Y0000830776D01*
X0002871143Y0000841338D01*
X0002867771Y0000858288D01*
X0002858170Y0000872657D01*
X0002848023Y0000879437D01*
X0003270869Y0000879437D01*
X0003329133Y0000821172D01*
X0003387398Y0000879437D01*
X0003379750Y0000892581D01*
X0003345289Y0000905862D01*
X0003308368Y0000904946D01*
X0003278517Y0000892581D01*
X0003270869Y0000879437D01*
X0002848023Y0000879437D01*
X0002843801Y0000882258D01*
X0002826851Y0000885629D01*
X0002825116Y0000885629D01*
X0002808166Y0000882258D01*
X0002793797Y0000872657D01*
X0002784196Y0000858288D01*
X0002780825Y0000841338D01*
X0002404676Y0000841338D01*
X0002396305Y0000861597D01*
X0002371961Y0000885983D01*
X0002340138Y0000899197D01*
X0002305681Y0000899227D01*
X0002273835Y0000886069D01*
X0002249449Y0000861725D01*
X0002236235Y0000829902D01*
X0002236205Y0000795445D01*
X0002212945Y0000795445D01*
X0002212945Y0000881496D01*
X0002211710Y0000888061D01*
X0002207830Y0000894091D01*
X0002201909Y0000898136D01*
X0002194881Y0000899559D01*
X0002057086Y0000899559D01*
X0002050521Y0000898324D01*
X0002044491Y0000894444D01*
X0002040446Y0000888523D01*
X0002039022Y0000881496D01*
X0002039022Y0000743700D01*
X0002040258Y0000737135D01*
X0002044138Y0000731105D01*
X0002050058Y0000727060D01*
X0002057086Y0000725637D01*
X0002057399Y0000725637D01*
X0002010172Y0000678410D01*
X0001997661Y0000659685D01*
X0001993267Y0000637598D01*
X0001989173Y0000637598D01*
X0001989173Y0001025621D01*
X0002009743Y0001025621D01*
X0002027387Y0000982918D01*
X0002060030Y0000950219D01*
X0002102702Y0000932500D01*
X0002148906Y0000932460D01*
X0002191608Y0000950104D01*
X0002224308Y0000982747D01*
X0002242027Y0001025418D01*
X0002242067Y0001071622D01*
X0002224423Y0001114325D01*
X0002191780Y0001147024D01*
X0002149108Y0001164743D01*
X0002102904Y0001164783D01*
X0002060202Y0001147139D01*
X0002027502Y0001114496D01*
X0002009783Y0001071825D01*
X0002009743Y0001025621D01*
X0001989173Y0001025621D01*
X0001989173Y0001060956D01*
X0001999961Y0001115192D01*
X0002029530Y0001159445D01*
X0002073783Y0001189014D01*
X0002125984Y0001199398D01*
X0002178184Y0001189014D01*
X0002178184Y0001189014D01*
G37*
X0002178184Y0001189014D02*
X0002222437Y0001159445D01*
X0002252007Y0001115192D01*
X0002263192Y0001058959D01*
X0002272182Y0001013761D01*
X0002272182Y0001013760D01*
X0002273726Y0001010035D01*
X0002275269Y0001006310D01*
X0002275269Y0001006309D01*
X0002300872Y0000967992D01*
X0002306575Y0000962289D01*
X0002344892Y0000936686D01*
X0002344892Y0000936686D01*
X0002349257Y0000934878D01*
X0002352343Y0000933600D01*
X0002352343Y0000933600D01*
X0002397542Y0000924609D01*
X0002399578Y0000924609D01*
X0002401574Y0000924212D01*
X0003777491Y0000924212D01*
X0003801595Y0000919418D01*
X0003820303Y0000906917D01*
X0003832803Y0000888209D01*
X0003837598Y0000864106D01*
X0003837598Y0000721623D01*
X0003805953Y0000753323D01*
X0003763282Y0000771042D01*
X0003717078Y0000771083D01*
X0003674375Y0000753438D01*
X0003641675Y0000720796D01*
X0003623957Y0000678124D01*
X0003623916Y0000631920D01*
X0003641561Y0000589218D01*
X0003674203Y0000556518D01*
X0003716875Y0000538799D01*
X0003763079Y0000538759D01*
X0003805781Y0000556403D01*
X0003837598Y0000588164D01*
X0003837598Y0000080775D01*
X0003832803Y0000056672D01*
X0003820303Y0000037964D01*
X0003801595Y0000025463D01*
X0003777491Y0000020669D01*
X0002049279Y0000020669D01*
X0002025176Y0000025463D01*
X0002006468Y0000037964D01*
X0001993967Y0000056672D01*
X0001989173Y0000080775D01*
X0001989173Y0000637598D01*
X0001993267Y0000637598D01*
X0001993267Y0000637598D01*
X0001993267Y0000137598D01*
X0001993267Y0000137598D01*
X0001997661Y0000115511D01*
X0002010172Y0000096786D01*
X0002060172Y0000046786D01*
X0002060172Y0000046786D01*
X0002074633Y0000037124D01*
X0002078897Y0000034275D01*
X0002100984Y0000029881D01*
X0002947384Y0000029881D01*
X0002950649Y0000027650D01*
X0002957677Y0000026227D01*
X0003044291Y0000026227D01*
X0003050856Y0000027463D01*
X0003054615Y0000029881D01*
X0003099409Y0000029881D01*
X0003099409Y0000029881D01*
X0003121496Y0000034275D01*
X0003140221Y0000046786D01*
X0003265221Y0000171786D01*
X0003265221Y0000171786D01*
X0003266796Y0000173361D01*
X0003268582Y0000176034D01*
X0003274351Y0000181794D01*
X0003277505Y0000189389D01*
X0003279307Y0000192086D01*
X0003279934Y0000195239D01*
X0003283060Y0000202768D01*
X0003283068Y0000210992D01*
X0003283700Y0000214173D01*
X0003283073Y0000217326D01*
X0003283080Y0000225478D01*
X0003279940Y0000233079D01*
X0003279307Y0000236260D01*
X0003277521Y0000238933D01*
X0003274408Y0000246467D01*
X0003268597Y0000252288D01*
X0003266796Y0000254984D01*
X0003264122Y0000256771D01*
X0003258363Y0000262540D01*
X0003250768Y0000265694D01*
X0003248071Y0000267496D01*
X0003244918Y0000268123D01*
X0003237389Y0000271249D01*
X0003229165Y0000271257D01*
X0003225984Y0000271889D01*
X0003222831Y0000271262D01*
X0003214678Y0000271269D01*
X0003207077Y0000268129D01*
X0003203897Y0000267496D01*
X0003201224Y0000265710D01*
X0003193689Y0000262597D01*
X0003187868Y0000256786D01*
X0003185172Y0000254984D01*
X0003183597Y0000253410D01*
X0003183597Y0000253410D01*
X0003075502Y0000145314D01*
X0003054584Y0000145314D01*
X0003051319Y0000147545D01*
X0003044291Y0000148969D01*
X0002957677Y0000148969D01*
X0002951111Y0000147733D01*
X0002947352Y0000145314D01*
X0002124891Y0000145314D01*
X0002108700Y0000161505D01*
X0002108700Y0000197370D01*
X0002768599Y0000197370D01*
X0002778795Y0000176569D01*
X0002796174Y0000161253D01*
X0002810756Y0000155214D01*
X0002819921Y0000159557D01*
X0002819921Y0000206535D01*
X0002832047Y0000206535D01*
X0002832047Y0000159557D01*
X0002841211Y0000155214D01*
X0002855793Y0000161253D01*
X0002873173Y0000176569D01*
X0002883368Y0000197370D01*
X0002879060Y0000206535D01*
X0002832047Y0000206535D01*
X0002819921Y0000206535D01*
X0002772908Y0000206535D01*
X0002768599Y0000197370D01*
X0002108700Y0000197370D01*
X0002108700Y0000613691D01*
X0002166795Y0000671786D01*
X0002166796Y0000671786D01*
X0002179307Y0000690511D01*
X0002180555Y0000696786D01*
X0002183700Y0000712598D01*
X0002183700Y0000712598D01*
X0002183700Y0000725637D01*
X0002194881Y0000725637D01*
X0002201447Y0000726872D01*
X0002207477Y0000730752D01*
X0002211522Y0000736673D01*
X0002212945Y0000743700D01*
X0002212945Y0000795445D01*
X0002236205Y0000795445D01*
X0002249363Y0000763599D01*
X0002273707Y0000739213D01*
X0002305530Y0000725999D01*
X0002327829Y0000725979D01*
X0002357022Y0000696786D01*
X0002357022Y0000696786D01*
X0002375747Y0000684275D01*
X0002379411Y0000683546D01*
X0002397834Y0000679881D01*
X0002397834Y0000679881D01*
X0002627077Y0000679881D01*
X0002643267Y0000663691D01*
X0002643267Y0000362598D01*
X0002643267Y0000362598D01*
X0002647661Y0000340511D01*
X0002660172Y0000321786D01*
X0002710172Y0000271786D01*
X0002710172Y0000271786D01*
X0002723925Y0000262597D01*
X0002728897Y0000259275D01*
X0002750984Y0000254881D01*
X0002785892Y0000254881D01*
X0002778795Y0000248626D01*
X0002768599Y0000227825D01*
X0002772908Y0000218661D01*
X0002819921Y0000218661D01*
X0002819921Y0000219448D01*
X0002832047Y0000219448D01*
X0002832047Y0000218661D01*
X0002879060Y0000218661D01*
X0002883368Y0000227825D01*
X0002873173Y0000248626D01*
X0002855793Y0000263942D01*
X0002855338Y0000264131D01*
X0002866796Y0000271786D01*
X0002879307Y0000290511D01*
X0002883700Y0000312598D01*
X0002879307Y0000334685D01*
X0002866796Y0000353410D01*
X0002858277Y0000359101D01*
X0002861417Y0000359101D01*
X0002867982Y0000360337D01*
X0002874012Y0000364217D01*
X0002878057Y0000370137D01*
X0002879480Y0000377165D01*
X0002879480Y0000411023D01*
X0003168267Y0000411023D01*
X0003168894Y0000407870D01*
X0003168887Y0000399718D01*
X0003172028Y0000392117D01*
X0003172661Y0000388936D01*
X0003174447Y0000386263D01*
X0003177560Y0000378728D01*
X0003183370Y0000372908D01*
X0003185172Y0000370211D01*
X0003187845Y0000368425D01*
X0003193605Y0000362656D01*
X0003201200Y0000359502D01*
X0003203897Y0000357700D01*
X0003207049Y0000357073D01*
X0003214579Y0000353946D01*
X0003222803Y0000353939D01*
X0003225984Y0000353307D01*
X0003324409Y0000353307D01*
X0003324409Y0000353307D01*
X0003346496Y0000357700D01*
X0003365221Y0000370211D01*
X0003566795Y0000571786D01*
X0003566796Y0000571786D01*
X0003579307Y0000590511D01*
X0003583700Y0000612598D01*
X0003583700Y0000725637D01*
X0003594881Y0000725637D01*
X0003601447Y0000726872D01*
X0003607477Y0000730752D01*
X0003611522Y0000736673D01*
X0003612945Y0000743700D01*
X0003612945Y0000881496D01*
X0003611710Y0000888061D01*
X0003607830Y0000894091D01*
X0003601909Y0000898136D01*
X0003594881Y0000899559D01*
X0003457086Y0000899559D01*
X0003450521Y0000898324D01*
X0003444491Y0000894444D01*
X0003440446Y0000888523D01*
X0003439022Y0000881496D01*
X0003439022Y0000743700D01*
X0003440258Y0000737135D01*
X0003444138Y0000731105D01*
X0003450058Y0000727060D01*
X0003457086Y0000725637D01*
X0003468267Y0000725637D01*
X0003468267Y0000636505D01*
X0003300502Y0000468740D01*
X0003225984Y0000468740D01*
X0003222831Y0000468112D01*
X0003214678Y0000468120D01*
X0003207077Y0000464979D01*
X0003203897Y0000464346D01*
X0003201224Y0000462560D01*
X0003193689Y0000459447D01*
X0003187869Y0000453637D01*
X0003185172Y0000451835D01*
X0003183386Y0000449162D01*
X0003177616Y0000443402D01*
X0003174462Y0000435807D01*
X0003172661Y0000433110D01*
X0003172033Y0000429957D01*
X0003168907Y0000422428D01*
X0003168900Y0000414204D01*
X0003168267Y0000411023D01*
X0002879480Y0000411023D01*
X0002879480Y0000448031D01*
X0002878245Y0000454596D01*
X0002874365Y0000460626D01*
X0002868445Y0000464671D01*
X0002861417Y0000466095D01*
X0002790551Y0000466095D01*
X0002783985Y0000464859D01*
X0002777955Y0000460979D01*
X0002773910Y0000455059D01*
X0002772487Y0000448031D01*
X0002772487Y0000377165D01*
X0002773518Y0000371687D01*
X0002758700Y0000386505D01*
X0002758700Y0000488793D01*
X0002939960Y0000488793D01*
X0002939960Y0000486402D01*
X0002944605Y0000463050D01*
X0002957834Y0000443252D01*
X0002977631Y0000430024D01*
X0003000984Y0000425379D01*
X0003024336Y0000430024D01*
X0003044134Y0000443252D01*
X0003057362Y0000463050D01*
X0003062007Y0000486402D01*
X0003062007Y0000488793D01*
X0003057362Y0000512146D01*
X0003044134Y0000531944D01*
X0003024336Y0000545172D01*
X0003000984Y0000549817D01*
X0002977631Y0000545172D01*
X0002957834Y0000531944D01*
X0002944605Y0000512146D01*
X0002939960Y0000488793D01*
X0002758700Y0000488793D01*
X0002758700Y0000587598D01*
X0002792026Y0000587598D01*
X0002795472Y0000570272D01*
X0002805287Y0000555583D01*
X0002819975Y0000545769D01*
X0002837301Y0000542322D01*
X0002839075Y0000542322D01*
X0002856402Y0000545769D01*
X0002863776Y0000550696D01*
X0003085452Y0000550696D01*
X0003088029Y0000541841D01*
X0003107499Y0000535470D01*
X0003127926Y0000537035D01*
X0003139529Y0000541841D01*
X0003142106Y0000550696D01*
X0003113779Y0000579024D01*
X0003085452Y0000550696D01*
X0002863776Y0000550696D01*
X0002871090Y0000555583D01*
X0002880905Y0000570272D01*
X0002884351Y0000587598D01*
X0002883102Y0000593877D01*
X0003061651Y0000593877D01*
X0003063216Y0000573451D01*
X0003068022Y0000561848D01*
X0003076877Y0000559271D01*
X0003105205Y0000587598D01*
X0003122353Y0000587598D01*
X0003150681Y0000559271D01*
X0003159536Y0000561848D01*
X0003165907Y0000581318D01*
X0003164342Y0000601745D01*
X0003159536Y0000613348D01*
X0003150681Y0000615925D01*
X0003122353Y0000587598D01*
X0003105205Y0000587598D01*
X0003076877Y0000615925D01*
X0003068022Y0000613348D01*
X0003061651Y0000593877D01*
X0002883102Y0000593877D01*
X0002880905Y0000604924D01*
X0002871090Y0000619613D01*
X0002863776Y0000624500D01*
X0003085452Y0000624500D01*
X0003113779Y0000596172D01*
X0003142106Y0000624500D01*
X0003139529Y0000633355D01*
X0003120059Y0000639726D01*
X0003099632Y0000638161D01*
X0003088029Y0000633355D01*
X0003085452Y0000624500D01*
X0002863776Y0000624500D01*
X0002856402Y0000629427D01*
X0002839075Y0000632874D01*
X0002837301Y0000632874D01*
X0002819975Y0000629427D01*
X0002805287Y0000619613D01*
X0002795472Y0000604924D01*
X0002792026Y0000587598D01*
X0002758700Y0000587598D01*
X0002758700Y0000687598D01*
X0002754307Y0000709685D01*
X0002741795Y0000728410D01*
X0002741795Y0000728410D01*
X0002691796Y0000778410D01*
X0002673071Y0000790921D01*
X0002650984Y0000795315D01*
X0002650984Y0000795314D01*
X0002421741Y0000795314D01*
X0002409444Y0000807612D01*
X0002409463Y0000829751D01*
X0002404676Y0000841338D01*
X0002780825Y0000841338D01*
X0002784196Y0000824389D01*
X0002793797Y0000810019D01*
X0002798280Y0000807024D01*
X0002792844Y0000806001D01*
X0002786814Y0000802121D01*
X0002782768Y0000796200D01*
X0002781345Y0000789173D01*
X0002781345Y0000736023D01*
X0002782581Y0000729458D01*
X0002786461Y0000723428D01*
X0002792381Y0000719383D01*
X0002799409Y0000717959D01*
X0002852559Y0000717959D01*
X0002859124Y0000719195D01*
X0002865154Y0000723075D01*
X0002869199Y0000728995D01*
X0002870622Y0000736023D01*
X0002870622Y0000745759D01*
X0003270869Y0000745759D01*
X0003278517Y0000732615D01*
X0003312978Y0000719333D01*
X0003349898Y0000720250D01*
X0003379750Y0000732615D01*
X0003387398Y0000745759D01*
X0003329133Y0000804024D01*
X0003270869Y0000745759D01*
X0002870622Y0000745759D01*
X0002870622Y0000789173D01*
X0002869387Y0000795738D01*
X0002865507Y0000801768D01*
X0002859586Y0000805813D01*
X0002853669Y0000807012D01*
X0002858170Y0000810019D01*
X0002867771Y0000824389D01*
X0002869042Y0000830776D01*
X0002992316Y0000830776D01*
X0002997550Y0000818110D01*
X0003007232Y0000808411D01*
X0003019889Y0000803155D01*
X0003033593Y0000803143D01*
X0003046240Y0000808369D01*
X0003046303Y0000808270D01*
X0003052224Y0000804225D01*
X0003059251Y0000802802D01*
X0003092716Y0000802802D01*
X0003099281Y0000804037D01*
X0003105311Y0000807917D01*
X0003109357Y0000813838D01*
X0003110780Y0000820866D01*
X0003110780Y0000828753D01*
X0003235869Y0000828753D01*
X0003236786Y0000791833D01*
X0003249151Y0000761981D01*
X0003262294Y0000754333D01*
X0003320559Y0000812598D01*
X0003337708Y0000812598D01*
X0003395972Y0000754333D01*
X0003409116Y0000761981D01*
X0003422398Y0000796442D01*
X0003421481Y0000833363D01*
X0003409116Y0000863214D01*
X0003395972Y0000870863D01*
X0003337708Y0000812598D01*
X0003320559Y0000812598D01*
X0003262294Y0000870863D01*
X0003249151Y0000863214D01*
X0003235869Y0000828753D01*
X0003110780Y0000828753D01*
X0003110780Y0000854330D01*
X0003109544Y0000860896D01*
X0003105664Y0000866925D01*
X0003099744Y0000870971D01*
X0003092716Y0000872394D01*
X0003059251Y0000872394D01*
X0003052686Y0000871158D01*
X0003046656Y0000867278D01*
X0003046316Y0000866780D01*
X0003046310Y0000866785D01*
X0003033654Y0000872041D01*
X0003019949Y0000872053D01*
X0003007283Y0000866819D01*
X0002997584Y0000857137D01*
X0002992328Y0000844480D01*
X0002992316Y0000830776D01*
X0002869042Y0000830776D01*
X0002871143Y0000841338D01*
X0002867771Y0000858288D01*
X0002858170Y0000872657D01*
X0002848023Y0000879437D01*
X0003270869Y0000879437D01*
X0003329133Y0000821172D01*
X0003387398Y0000879437D01*
X0003379750Y0000892581D01*
X0003345289Y0000905862D01*
X0003308368Y0000904946D01*
X0003278517Y0000892581D01*
X0003270869Y0000879437D01*
X0002848023Y0000879437D01*
X0002843801Y0000882258D01*
X0002826851Y0000885629D01*
X0002825116Y0000885629D01*
X0002808166Y0000882258D01*
X0002793797Y0000872657D01*
X0002784196Y0000858288D01*
X0002780825Y0000841338D01*
X0002404676Y0000841338D01*
X0002396305Y0000861597D01*
X0002371961Y0000885983D01*
X0002340138Y0000899197D01*
X0002305681Y0000899227D01*
X0002273835Y0000886069D01*
X0002249449Y0000861725D01*
X0002236235Y0000829902D01*
X0002236205Y0000795445D01*
X0002212945Y0000795445D01*
X0002212945Y0000881496D01*
X0002211710Y0000888061D01*
X0002207830Y0000894091D01*
X0002201909Y0000898136D01*
X0002194881Y0000899559D01*
X0002057086Y0000899559D01*
X0002050521Y0000898324D01*
X0002044491Y0000894444D01*
X0002040446Y0000888523D01*
X0002039022Y0000881496D01*
X0002039022Y0000743700D01*
X0002040258Y0000737135D01*
X0002044138Y0000731105D01*
X0002050058Y0000727060D01*
X0002057086Y0000725637D01*
X0002057399Y0000725637D01*
X0002010172Y0000678410D01*
X0001997661Y0000659685D01*
X0001993267Y0000637598D01*
X0001989173Y0000637598D01*
X0001989173Y0001025621D01*
X0002009743Y0001025621D01*
X0002027387Y0000982918D01*
X0002060030Y0000950219D01*
X0002102702Y0000932500D01*
X0002148906Y0000932460D01*
X0002191608Y0000950104D01*
X0002224308Y0000982747D01*
X0002242027Y0001025418D01*
X0002242067Y0001071622D01*
X0002224423Y0001114325D01*
X0002191780Y0001147024D01*
X0002149108Y0001164743D01*
X0002102904Y0001164783D01*
X0002060202Y0001147139D01*
X0002027502Y0001114496D01*
X0002009783Y0001071825D01*
X0002009743Y0001025621D01*
X0001989173Y0001025621D01*
X0001989173Y0001060956D01*
X0001999961Y0001115192D01*
X0002029530Y0001159445D01*
X0002073783Y0001189014D01*
X0002125984Y0001199398D01*
X0002178184Y0001189014D01*
G04 next file*
G04 #@! TF.FileFunction,Copper,L2,Bot,Signal*
G04 Gerber Fmt 4.6, Leading zero omitted, Abs format (unit mm)*
G04 Created by KiCad (PCBNEW 4.0.7) date 08/24/19 09:27:58*
G01*
G04 APERTURE LIST*
G04 APERTURE END LIST*
D54*
D55*
X0008740157Y-0001968503D02*
X0002126062Y0001589173D03*
X0003740236Y0001195472D03*
D56*
X0002640157Y0002029921D03*
X0002640157Y0001833070D03*
D57*
X0003040157Y0001831496D03*
D58*
X0003040157Y0001931496D03*
X0003040157Y0002031496D03*
D59*
X0003740157Y0001431496D03*
D60*
X0003543307Y0001431496D03*
D61*
X0002790157Y0001406496D03*
D62*
X0002839370Y0001406496D03*
D63*
X0002865157Y0002156496D03*
D64*
X0002865157Y0001756496D03*
D65*
X0002752362Y0001656496D03*
D66*
X0003027952Y0001656496D03*
D67*
X0003040157Y0001481496D03*
D68*
X0003040157Y0001402755D03*
D59*
X0002340157Y0001431496D03*
D60*
X0002537007Y0001431496D03*
D69*
X0003040157Y0001931496D02*
X0003115157Y0001931496D01*
X0003115157Y0001931496D02*
X0003165157Y0001881496D01*
X0003165157Y0001881496D02*
X0003165157Y0001556496D01*
X0003165157Y0001556496D02*
X0003215157Y0001506496D01*
X0003215157Y0001506496D02*
X0003468307Y0001506496D01*
X0003468307Y0001506496D02*
X0003543307Y0001431496D01*
X0002865157Y0002156496D02*
X0002766732Y0002156496D01*
X0002766732Y0002156496D02*
X0002640157Y0002029921D01*
X0002865157Y0002156496D02*
X0002915157Y0002156496D01*
X0002915157Y0002156496D02*
X0003765157Y0002156496D01*
X0003765157Y0002156496D02*
X0003815157Y0002106496D01*
X0003815157Y0002106496D02*
X0003815157Y0001606496D01*
X0003815157Y0001606496D02*
X0003740157Y0001531496D01*
X0003740157Y0001531496D02*
X0003740157Y0001431496D01*
X0002641732Y0002031496D02*
X0002640157Y0002029921D01*
X0002640157Y0001833070D02*
X0002541732Y0001833070D01*
X0002340157Y0001631496D02*
X0002340157Y0001431496D01*
X0002541732Y0001833070D02*
X0002340157Y0001631496D01*
X0003040157Y0002031496D02*
X0002990157Y0002031496D01*
X0002537007Y0001578346D02*
X0002537007Y0001431496D01*
X0002990157Y0002031496D02*
X0002537007Y0001578346D01*
D70*
G36*
X0003687957Y0001055079D02*
X0003643703Y0001084648D01*
X0003614134Y0001128902D01*
X0003602949Y0001185134D01*
X0003593958Y0001230333D01*
X0003593958Y0001230333D01*
X0003592415Y0001234058D01*
X0003590872Y0001237784D01*
X0003590872Y0001237784D01*
X0003565269Y0001276102D01*
X0003559566Y0001281804D01*
X0003521249Y0001307407D01*
X0003521248Y0001307407D01*
X0003516884Y0001309215D01*
X0003513798Y0001310494D01*
X0003513798Y0001310494D01*
X0003468599Y0001319484D01*
X0003466563Y0001319484D01*
X0003464566Y0001319881D01*
X0002088649Y0001319881D01*
X0002064546Y0001324676D01*
X0002045838Y0001337176D01*
X0002033337Y0001355884D01*
X0002028543Y0001379988D01*
X0002028543Y0001522470D01*
X0002060188Y0001490770D01*
X0002102859Y0001473051D01*
X0002149063Y0001473011D01*
X0002191766Y0001490655D01*
X0002224465Y0001523298D01*
X0002242184Y0001565969D01*
X0002242224Y0001612173D01*
X0002224580Y0001654876D01*
X0002191937Y0001687575D01*
X0002149266Y0001705294D01*
X0002103062Y0001705335D01*
X0002060359Y0001687690D01*
X0002028543Y0001655929D01*
X0002028543Y0002163318D01*
X0002033337Y0002187422D01*
X0002045838Y0002206130D01*
X0002064546Y0002218630D01*
X0002088649Y0002223425D01*
X0003816861Y0002223425D01*
X0003840965Y0002218630D01*
X0003859673Y0002206130D01*
X0003872173Y0002187422D01*
X0003876968Y0002163318D01*
X0003876968Y0001606496D01*
X0003872874Y0001606496D01*
X0003872873Y0001606496D01*
X0003872873Y0002106495D01*
X0003872874Y0002106496D01*
X0003868480Y0002128583D01*
X0003855969Y0002147307D01*
X0003805969Y0002197307D01*
X0003805969Y0002197307D01*
X0003791508Y0002206970D01*
X0003787244Y0002209819D01*
X0003765157Y0002214212D01*
X0002918757Y0002214212D01*
X0002915492Y0002216443D01*
X0002908464Y0002217866D01*
X0002821850Y0002217866D01*
X0002815285Y0002216631D01*
X0002811526Y0002214212D01*
X0002766732Y0002214212D01*
X0002766732Y0002214212D01*
X0002744645Y0002209819D01*
X0002725920Y0002197307D01*
X0002600920Y0002072307D01*
X0002600920Y0002072307D01*
X0002599345Y0002070732D01*
X0002597559Y0002068060D01*
X0002591790Y0002062300D01*
X0002588636Y0002054704D01*
X0002586834Y0002052008D01*
X0002586207Y0002048855D01*
X0002583080Y0002041326D01*
X0002583073Y0002033102D01*
X0002582440Y0002029921D01*
X0002583068Y0002026768D01*
X0002583060Y0002018615D01*
X0002586201Y0002011014D01*
X0002586834Y0002007834D01*
X0002588620Y0002005161D01*
X0002591733Y0001997626D01*
X0002597543Y0001991806D01*
X0002599345Y0001989109D01*
X0002602018Y0001987323D01*
X0002607778Y0001981553D01*
X0002615373Y0001978399D01*
X0002618070Y0001976598D01*
X0002621223Y0001975970D01*
X0002628752Y0001972844D01*
X0002636976Y0001972837D01*
X0002640157Y0001972204D01*
X0002643310Y0001972831D01*
X0002651462Y0001972824D01*
X0002659063Y0001975965D01*
X0002662244Y0001976598D01*
X0002664917Y0001978384D01*
X0002672452Y0001981497D01*
X0002678272Y0001987307D01*
X0002680969Y0001989109D01*
X0002682544Y0001990684D01*
X0002682544Y0001990684D01*
X0002790639Y0002098779D01*
X0002811557Y0002098779D01*
X0002814822Y0002096548D01*
X0002821850Y0002095125D01*
X0002908464Y0002095125D01*
X0002915029Y0002096360D01*
X0002918788Y0002098779D01*
X0003741250Y0002098779D01*
X0003757440Y0002082589D01*
X0003757440Y0002046723D01*
X0003097542Y0002046723D01*
X0003087346Y0002067524D01*
X0003069967Y0002082840D01*
X0003055384Y0002088880D01*
X0003046220Y0002084536D01*
X0003046220Y0002037559D01*
X0003034094Y0002037559D01*
X0003034094Y0002084536D01*
X0003024930Y0002088880D01*
X0003010347Y0002082840D01*
X0002992968Y0002067524D01*
X0002982772Y0002046723D01*
X0002987081Y0002037559D01*
X0003034094Y0002037559D01*
X0003046220Y0002037559D01*
X0003093233Y0002037559D01*
X0003097542Y0002046723D01*
X0003757440Y0002046723D01*
X0003757440Y0001630403D01*
X0003699345Y0001572307D01*
X0003699345Y0001572307D01*
X0003686834Y0001553583D01*
X0003685586Y0001547307D01*
X0003682440Y0001531496D01*
X0003682440Y0001531495D01*
X0003682440Y0001518457D01*
X0003671259Y0001518457D01*
X0003664694Y0001517221D01*
X0003658664Y0001513341D01*
X0003654619Y0001507421D01*
X0003653196Y0001500393D01*
X0003653196Y0001448649D01*
X0003629936Y0001448649D01*
X0003616777Y0001480494D01*
X0003592434Y0001504881D01*
X0003560611Y0001518095D01*
X0003538312Y0001518114D01*
X0003509118Y0001547307D01*
X0003509118Y0001547307D01*
X0003490394Y0001559819D01*
X0003486729Y0001560548D01*
X0003468307Y0001564212D01*
X0003468306Y0001564212D01*
X0003239064Y0001564212D01*
X0003222873Y0001580402D01*
X0003222873Y0001881495D01*
X0003222874Y0001881496D01*
X0003218480Y0001903583D01*
X0003205969Y0001922307D01*
X0003155969Y0001972307D01*
X0003155969Y0001972307D01*
X0003142216Y0001981497D01*
X0003137244Y0001984819D01*
X0003115157Y0001989212D01*
X0003080248Y0001989212D01*
X0003087346Y0001995467D01*
X0003097542Y0002016268D01*
X0003093233Y0002025433D01*
X0003046220Y0002025433D01*
X0003046220Y0002024645D01*
X0003034094Y0002024645D01*
X0003034094Y0002025433D01*
X0002987081Y0002025433D01*
X0002982772Y0002016268D01*
X0002992968Y0001995467D01*
X0003010347Y0001980151D01*
X0003010802Y0001979963D01*
X0002999345Y0001972307D01*
X0002986834Y0001953583D01*
X0002982440Y0001931496D01*
X0002986834Y0001909408D01*
X0002999345Y0001890684D01*
X0003007863Y0001884992D01*
X0003004724Y0001884992D01*
X0002998159Y0001883757D01*
X0002992129Y0001879877D01*
X0002988083Y0001873956D01*
X0002986660Y0001866929D01*
X0002986660Y0001833070D01*
X0002697874Y0001833070D01*
X0002697246Y0001836223D01*
X0002697253Y0001844376D01*
X0002694113Y0001851977D01*
X0002693480Y0001855157D01*
X0002691694Y0001857830D01*
X0002688581Y0001865365D01*
X0002682771Y0001871186D01*
X0002680969Y0001873882D01*
X0002678296Y0001875668D01*
X0002672536Y0001881438D01*
X0002664941Y0001884592D01*
X0002662244Y0001886393D01*
X0002659091Y0001887021D01*
X0002651562Y0001890147D01*
X0002643338Y0001890154D01*
X0002640157Y0001890787D01*
X0002541732Y0001890787D01*
X0002541732Y0001890787D01*
X0002519645Y0001886393D01*
X0002500920Y0001873882D01*
X0002299345Y0001672307D01*
X0002299345Y0001672307D01*
X0002286834Y0001653583D01*
X0002282440Y0001631496D01*
X0002282440Y0001518457D01*
X0002271259Y0001518457D01*
X0002264694Y0001517221D01*
X0002258664Y0001513341D01*
X0002254619Y0001507421D01*
X0002253196Y0001500393D01*
X0002253196Y0001362598D01*
X0002254431Y0001356033D01*
X0002258311Y0001350003D01*
X0002264232Y0001345957D01*
X0002271259Y0001344534D01*
X0002409055Y0001344534D01*
X0002415620Y0001345770D01*
X0002421650Y0001349650D01*
X0002425695Y0001355570D01*
X0002427118Y0001362598D01*
X0002427118Y0001500393D01*
X0002425883Y0001506959D01*
X0002422003Y0001512988D01*
X0002416082Y0001517034D01*
X0002409055Y0001518457D01*
X0002397874Y0001518457D01*
X0002397874Y0001607589D01*
X0002565639Y0001775354D01*
X0002640157Y0001775354D01*
X0002643310Y0001775981D01*
X0002651462Y0001775974D01*
X0002659063Y0001779115D01*
X0002662244Y0001779747D01*
X0002664917Y0001781533D01*
X0002672452Y0001784646D01*
X0002678272Y0001790457D01*
X0002680969Y0001792259D01*
X0002682755Y0001794932D01*
X0002688524Y0001800691D01*
X0002691678Y0001808287D01*
X0002693480Y0001810983D01*
X0002694107Y0001814136D01*
X0002697234Y0001821665D01*
X0002697241Y0001829890D01*
X0002697874Y0001833070D01*
X0002986660Y0001833070D01*
X0002986660Y0001796062D01*
X0002987896Y0001789497D01*
X0002991776Y0001783467D01*
X0002997696Y0001779422D01*
X0003004724Y0001777999D01*
X0003075590Y0001777999D01*
X0003082155Y0001779234D01*
X0003088185Y0001783114D01*
X0003092230Y0001789035D01*
X0003093654Y0001796062D01*
X0003093654Y0001866929D01*
X0003092623Y0001872406D01*
X0003107440Y0001857589D01*
X0003107440Y0001755300D01*
X0002926181Y0001755300D01*
X0002926181Y0001757691D01*
X0002921535Y0001781044D01*
X0002908307Y0001800841D01*
X0002888510Y0001814070D01*
X0002865157Y0001818715D01*
X0002841804Y0001814070D01*
X0002822007Y0001800841D01*
X0002808779Y0001781044D01*
X0002804133Y0001757691D01*
X0002804133Y0001755300D01*
X0002808779Y0001731947D01*
X0002822007Y0001712150D01*
X0002841804Y0001698922D01*
X0002865157Y0001694276D01*
X0002888510Y0001698922D01*
X0002908307Y0001712150D01*
X0002921535Y0001731947D01*
X0002926181Y0001755300D01*
X0003107440Y0001755300D01*
X0003107440Y0001656496D01*
X0003074115Y0001656496D01*
X0003070668Y0001673822D01*
X0003060854Y0001688510D01*
X0003046165Y0001698325D01*
X0003028839Y0001701771D01*
X0003027065Y0001701771D01*
X0003009739Y0001698325D01*
X0003002365Y0001693397D01*
X0002780689Y0001693397D01*
X0002778112Y0001702252D01*
X0002758641Y0001708624D01*
X0002738215Y0001707059D01*
X0002726612Y0001702252D01*
X0002724034Y0001693397D01*
X0002752362Y0001665070D01*
X0002780689Y0001693397D01*
X0003002365Y0001693397D01*
X0002995051Y0001688510D01*
X0002985236Y0001673822D01*
X0002981790Y0001656496D01*
X0002983039Y0001650216D01*
X0002804490Y0001650216D01*
X0002802925Y0001670642D01*
X0002798119Y0001682246D01*
X0002789263Y0001684823D01*
X0002760936Y0001656496D01*
X0002743787Y0001656496D01*
X0002715460Y0001684823D01*
X0002706605Y0001682246D01*
X0002700234Y0001662775D01*
X0002701799Y0001642349D01*
X0002706605Y0001630745D01*
X0002715460Y0001628168D01*
X0002743787Y0001656496D01*
X0002760936Y0001656496D01*
X0002789263Y0001628168D01*
X0002798119Y0001630745D01*
X0002804490Y0001650216D01*
X0002983039Y0001650216D01*
X0002985236Y0001639169D01*
X0002995051Y0001624481D01*
X0003002365Y0001619594D01*
X0002780689Y0001619594D01*
X0002752362Y0001647921D01*
X0002724034Y0001619594D01*
X0002726612Y0001610739D01*
X0002746082Y0001604367D01*
X0002766509Y0001605932D01*
X0002778112Y0001610739D01*
X0002780689Y0001619594D01*
X0003002365Y0001619594D01*
X0003009739Y0001614666D01*
X0003027065Y0001611220D01*
X0003028839Y0001611220D01*
X0003046165Y0001614666D01*
X0003060854Y0001624481D01*
X0003070668Y0001639169D01*
X0003074115Y0001656496D01*
X0003107440Y0001656496D01*
X0003107440Y0001556496D01*
X0003111834Y0001534408D01*
X0003124345Y0001515684D01*
X0003124345Y0001515684D01*
X0003174345Y0001465684D01*
X0003193070Y0001453172D01*
X0003215157Y0001448779D01*
X0003215157Y0001448779D01*
X0003444400Y0001448779D01*
X0003456697Y0001436482D01*
X0003456677Y0001414342D01*
X0003461465Y0001402755D01*
X0003085316Y0001402755D01*
X0003081945Y0001419705D01*
X0003072343Y0001434074D01*
X0003067860Y0001437069D01*
X0003073297Y0001438092D01*
X0003079327Y0001441973D01*
X0003083372Y0001447893D01*
X0003084795Y0001454921D01*
X0003084795Y0001508070D01*
X0003083560Y0001514636D01*
X0003079680Y0001520666D01*
X0003073760Y0001524711D01*
X0003066732Y0001526134D01*
X0003013582Y0001526134D01*
X0003007017Y0001524899D01*
X0003000987Y0001521018D01*
X0002996942Y0001515098D01*
X0002995519Y0001508070D01*
X0002995519Y0001498335D01*
X0002595272Y0001498335D01*
X0002587624Y0001511478D01*
X0002553163Y0001524760D01*
X0002516242Y0001523843D01*
X0002486391Y0001511478D01*
X0002478743Y0001498335D01*
X0002537007Y0001440070D01*
X0002595272Y0001498335D01*
X0002995519Y0001498335D01*
X0002995519Y0001454921D01*
X0002996754Y0001448355D01*
X0003000634Y0001442325D01*
X0003006554Y0001438280D01*
X0003012472Y0001437082D01*
X0003007971Y0001434074D01*
X0002998369Y0001419705D01*
X0002997099Y0001413318D01*
X0002873824Y0001413318D01*
X0002868591Y0001425984D01*
X0002858909Y0001435683D01*
X0002846252Y0001440938D01*
X0002832547Y0001440950D01*
X0002819901Y0001435725D01*
X0002819837Y0001435823D01*
X0002813917Y0001439868D01*
X0002806889Y0001441291D01*
X0002773425Y0001441291D01*
X0002766859Y0001440056D01*
X0002760829Y0001436176D01*
X0002756784Y0001430256D01*
X0002755361Y0001423228D01*
X0002755361Y0001415340D01*
X0002630272Y0001415340D01*
X0002629355Y0001452260D01*
X0002616990Y0001482112D01*
X0002603846Y0001489760D01*
X0002545582Y0001431496D01*
X0002528433Y0001431496D01*
X0002470168Y0001489760D01*
X0002457025Y0001482112D01*
X0002443743Y0001447651D01*
X0002444660Y0001410731D01*
X0002457025Y0001380879D01*
X0002470168Y0001373231D01*
X0002528433Y0001431496D01*
X0002545582Y0001431496D01*
X0002603846Y0001373231D01*
X0002616990Y0001380879D01*
X0002630272Y0001415340D01*
X0002755361Y0001415340D01*
X0002755361Y0001389763D01*
X0002756596Y0001383198D01*
X0002760477Y0001377168D01*
X0002766397Y0001373123D01*
X0002773425Y0001371700D01*
X0002806889Y0001371700D01*
X0002813455Y0001372935D01*
X0002819484Y0001376815D01*
X0002819825Y0001377314D01*
X0002819830Y0001377308D01*
X0002832487Y0001372053D01*
X0002846192Y0001372041D01*
X0002858858Y0001377274D01*
X0002868557Y0001386956D01*
X0002873812Y0001399613D01*
X0002873824Y0001413318D01*
X0002997099Y0001413318D01*
X0002994998Y0001402755D01*
X0002998369Y0001385806D01*
X0003007971Y0001371437D01*
X0003018118Y0001364657D01*
X0002595272Y0001364657D01*
X0002537007Y0001422921D01*
X0002478743Y0001364657D01*
X0002486391Y0001351513D01*
X0002520852Y0001338231D01*
X0002557772Y0001339148D01*
X0002587624Y0001351513D01*
X0002595272Y0001364657D01*
X0003018118Y0001364657D01*
X0003022340Y0001361836D01*
X0003039289Y0001358464D01*
X0003041025Y0001358464D01*
X0003057974Y0001361836D01*
X0003072343Y0001371437D01*
X0003081945Y0001385806D01*
X0003085316Y0001402755D01*
X0003461465Y0001402755D01*
X0003469836Y0001382497D01*
X0003494180Y0001358110D01*
X0003526002Y0001344896D01*
X0003560460Y0001344866D01*
X0003592305Y0001358025D01*
X0003616692Y0001382368D01*
X0003629906Y0001414191D01*
X0003629936Y0001448649D01*
X0003653196Y0001448649D01*
X0003653196Y0001362598D01*
X0003654431Y0001356033D01*
X0003658311Y0001350003D01*
X0003664232Y0001345957D01*
X0003671259Y0001344534D01*
X0003809055Y0001344534D01*
X0003815620Y0001345770D01*
X0003821650Y0001349650D01*
X0003825695Y0001355570D01*
X0003827118Y0001362598D01*
X0003827118Y0001500393D01*
X0003825883Y0001506959D01*
X0003822003Y0001512988D01*
X0003816082Y0001517034D01*
X0003809055Y0001518457D01*
X0003808742Y0001518457D01*
X0003855969Y0001565684D01*
X0003868480Y0001584408D01*
X0003872874Y0001606496D01*
X0003876968Y0001606496D01*
X0003876968Y0001218473D01*
X0003856398Y0001218473D01*
X0003838753Y0001261175D01*
X0003806111Y0001293875D01*
X0003763439Y0001311593D01*
X0003717235Y0001311634D01*
X0003674533Y0001293990D01*
X0003641833Y0001261347D01*
X0003624114Y0001218675D01*
X0003624074Y0001172471D01*
X0003641718Y0001129769D01*
X0003674361Y0001097069D01*
X0003717032Y0001079350D01*
X0003763236Y0001079310D01*
X0003805939Y0001096954D01*
X0003838638Y0001129597D01*
X0003856357Y0001172269D01*
X0003856398Y0001218473D01*
X0003876968Y0001218473D01*
X0003876968Y0001183137D01*
X0003866180Y0001128902D01*
X0003836611Y0001084648D01*
X0003792357Y0001055079D01*
X0003740157Y0001044696D01*
X0003687957Y0001055079D01*
X0003687957Y0001055079D01*
G37*
X0003687957Y0001055079D02*
X0003643703Y0001084648D01*
X0003614134Y0001128902D01*
X0003602949Y0001185134D01*
X0003593958Y0001230333D01*
X0003593958Y0001230333D01*
X0003592415Y0001234058D01*
X0003590872Y0001237784D01*
X0003590872Y0001237784D01*
X0003565269Y0001276102D01*
X0003559566Y0001281804D01*
X0003521249Y0001307407D01*
X0003521248Y0001307407D01*
X0003516884Y0001309215D01*
X0003513798Y0001310494D01*
X0003513798Y0001310494D01*
X0003468599Y0001319484D01*
X0003466563Y0001319484D01*
X0003464566Y0001319881D01*
X0002088649Y0001319881D01*
X0002064546Y0001324676D01*
X0002045838Y0001337176D01*
X0002033337Y0001355884D01*
X0002028543Y0001379988D01*
X0002028543Y0001522470D01*
X0002060188Y0001490770D01*
X0002102859Y0001473051D01*
X0002149063Y0001473011D01*
X0002191766Y0001490655D01*
X0002224465Y0001523298D01*
X0002242184Y0001565969D01*
X0002242224Y0001612173D01*
X0002224580Y0001654876D01*
X0002191937Y0001687575D01*
X0002149266Y0001705294D01*
X0002103062Y0001705335D01*
X0002060359Y0001687690D01*
X0002028543Y0001655929D01*
X0002028543Y0002163318D01*
X0002033337Y0002187422D01*
X0002045838Y0002206130D01*
X0002064546Y0002218630D01*
X0002088649Y0002223425D01*
X0003816861Y0002223425D01*
X0003840965Y0002218630D01*
X0003859673Y0002206130D01*
X0003872173Y0002187422D01*
X0003876968Y0002163318D01*
X0003876968Y0001606496D01*
X0003872874Y0001606496D01*
X0003872873Y0001606496D01*
X0003872873Y0002106495D01*
X0003872874Y0002106496D01*
X0003868480Y0002128583D01*
X0003855969Y0002147307D01*
X0003805969Y0002197307D01*
X0003805969Y0002197307D01*
X0003791508Y0002206970D01*
X0003787244Y0002209819D01*
X0003765157Y0002214212D01*
X0002918757Y0002214212D01*
X0002915492Y0002216443D01*
X0002908464Y0002217866D01*
X0002821850Y0002217866D01*
X0002815285Y0002216631D01*
X0002811526Y0002214212D01*
X0002766732Y0002214212D01*
X0002766732Y0002214212D01*
X0002744645Y0002209819D01*
X0002725920Y0002197307D01*
X0002600920Y0002072307D01*
X0002600920Y0002072307D01*
X0002599345Y0002070732D01*
X0002597559Y0002068060D01*
X0002591790Y0002062300D01*
X0002588636Y0002054704D01*
X0002586834Y0002052008D01*
X0002586207Y0002048855D01*
X0002583080Y0002041326D01*
X0002583073Y0002033102D01*
X0002582440Y0002029921D01*
X0002583068Y0002026768D01*
X0002583060Y0002018615D01*
X0002586201Y0002011014D01*
X0002586834Y0002007834D01*
X0002588620Y0002005161D01*
X0002591733Y0001997626D01*
X0002597543Y0001991806D01*
X0002599345Y0001989109D01*
X0002602018Y0001987323D01*
X0002607778Y0001981553D01*
X0002615373Y0001978399D01*
X0002618070Y0001976598D01*
X0002621223Y0001975970D01*
X0002628752Y0001972844D01*
X0002636976Y0001972837D01*
X0002640157Y0001972204D01*
X0002643310Y0001972831D01*
X0002651462Y0001972824D01*
X0002659063Y0001975965D01*
X0002662244Y0001976598D01*
X0002664917Y0001978384D01*
X0002672452Y0001981497D01*
X0002678272Y0001987307D01*
X0002680969Y0001989109D01*
X0002682544Y0001990684D01*
X0002682544Y0001990684D01*
X0002790639Y0002098779D01*
X0002811557Y0002098779D01*
X0002814822Y0002096548D01*
X0002821850Y0002095125D01*
X0002908464Y0002095125D01*
X0002915029Y0002096360D01*
X0002918788Y0002098779D01*
X0003741250Y0002098779D01*
X0003757440Y0002082589D01*
X0003757440Y0002046723D01*
X0003097542Y0002046723D01*
X0003087346Y0002067524D01*
X0003069967Y0002082840D01*
X0003055384Y0002088880D01*
X0003046220Y0002084536D01*
X0003046220Y0002037559D01*
X0003034094Y0002037559D01*
X0003034094Y0002084536D01*
X0003024930Y0002088880D01*
X0003010347Y0002082840D01*
X0002992968Y0002067524D01*
X0002982772Y0002046723D01*
X0002987081Y0002037559D01*
X0003034094Y0002037559D01*
X0003046220Y0002037559D01*
X0003093233Y0002037559D01*
X0003097542Y0002046723D01*
X0003757440Y0002046723D01*
X0003757440Y0001630403D01*
X0003699345Y0001572307D01*
X0003699345Y0001572307D01*
X0003686834Y0001553583D01*
X0003685586Y0001547307D01*
X0003682440Y0001531496D01*
X0003682440Y0001531495D01*
X0003682440Y0001518457D01*
X0003671259Y0001518457D01*
X0003664694Y0001517221D01*
X0003658664Y0001513341D01*
X0003654619Y0001507421D01*
X0003653196Y0001500393D01*
X0003653196Y0001448649D01*
X0003629936Y0001448649D01*
X0003616777Y0001480494D01*
X0003592434Y0001504881D01*
X0003560611Y0001518095D01*
X0003538312Y0001518114D01*
X0003509118Y0001547307D01*
X0003509118Y0001547307D01*
X0003490394Y0001559819D01*
X0003486729Y0001560548D01*
X0003468307Y0001564212D01*
X0003468306Y0001564212D01*
X0003239064Y0001564212D01*
X0003222873Y0001580402D01*
X0003222873Y0001881495D01*
X0003222874Y0001881496D01*
X0003218480Y0001903583D01*
X0003205969Y0001922307D01*
X0003155969Y0001972307D01*
X0003155969Y0001972307D01*
X0003142216Y0001981497D01*
X0003137244Y0001984819D01*
X0003115157Y0001989212D01*
X0003080248Y0001989212D01*
X0003087346Y0001995467D01*
X0003097542Y0002016268D01*
X0003093233Y0002025433D01*
X0003046220Y0002025433D01*
X0003046220Y0002024645D01*
X0003034094Y0002024645D01*
X0003034094Y0002025433D01*
X0002987081Y0002025433D01*
X0002982772Y0002016268D01*
X0002992968Y0001995467D01*
X0003010347Y0001980151D01*
X0003010802Y0001979963D01*
X0002999345Y0001972307D01*
X0002986834Y0001953583D01*
X0002982440Y0001931496D01*
X0002986834Y0001909408D01*
X0002999345Y0001890684D01*
X0003007863Y0001884992D01*
X0003004724Y0001884992D01*
X0002998159Y0001883757D01*
X0002992129Y0001879877D01*
X0002988083Y0001873956D01*
X0002986660Y0001866929D01*
X0002986660Y0001833070D01*
X0002697874Y0001833070D01*
X0002697246Y0001836223D01*
X0002697253Y0001844376D01*
X0002694113Y0001851977D01*
X0002693480Y0001855157D01*
X0002691694Y0001857830D01*
X0002688581Y0001865365D01*
X0002682771Y0001871186D01*
X0002680969Y0001873882D01*
X0002678296Y0001875668D01*
X0002672536Y0001881438D01*
X0002664941Y0001884592D01*
X0002662244Y0001886393D01*
X0002659091Y0001887021D01*
X0002651562Y0001890147D01*
X0002643338Y0001890154D01*
X0002640157Y0001890787D01*
X0002541732Y0001890787D01*
X0002541732Y0001890787D01*
X0002519645Y0001886393D01*
X0002500920Y0001873882D01*
X0002299345Y0001672307D01*
X0002299345Y0001672307D01*
X0002286834Y0001653583D01*
X0002282440Y0001631496D01*
X0002282440Y0001518457D01*
X0002271259Y0001518457D01*
X0002264694Y0001517221D01*
X0002258664Y0001513341D01*
X0002254619Y0001507421D01*
X0002253196Y0001500393D01*
X0002253196Y0001362598D01*
X0002254431Y0001356033D01*
X0002258311Y0001350003D01*
X0002264232Y0001345957D01*
X0002271259Y0001344534D01*
X0002409055Y0001344534D01*
X0002415620Y0001345770D01*
X0002421650Y0001349650D01*
X0002425695Y0001355570D01*
X0002427118Y0001362598D01*
X0002427118Y0001500393D01*
X0002425883Y0001506959D01*
X0002422003Y0001512988D01*
X0002416082Y0001517034D01*
X0002409055Y0001518457D01*
X0002397874Y0001518457D01*
X0002397874Y0001607589D01*
X0002565639Y0001775354D01*
X0002640157Y0001775354D01*
X0002643310Y0001775981D01*
X0002651462Y0001775974D01*
X0002659063Y0001779115D01*
X0002662244Y0001779747D01*
X0002664917Y0001781533D01*
X0002672452Y0001784646D01*
X0002678272Y0001790457D01*
X0002680969Y0001792259D01*
X0002682755Y0001794932D01*
X0002688524Y0001800691D01*
X0002691678Y0001808287D01*
X0002693480Y0001810983D01*
X0002694107Y0001814136D01*
X0002697234Y0001821665D01*
X0002697241Y0001829890D01*
X0002697874Y0001833070D01*
X0002986660Y0001833070D01*
X0002986660Y0001796062D01*
X0002987896Y0001789497D01*
X0002991776Y0001783467D01*
X0002997696Y0001779422D01*
X0003004724Y0001777999D01*
X0003075590Y0001777999D01*
X0003082155Y0001779234D01*
X0003088185Y0001783114D01*
X0003092230Y0001789035D01*
X0003093654Y0001796062D01*
X0003093654Y0001866929D01*
X0003092623Y0001872406D01*
X0003107440Y0001857589D01*
X0003107440Y0001755300D01*
X0002926181Y0001755300D01*
X0002926181Y0001757691D01*
X0002921535Y0001781044D01*
X0002908307Y0001800841D01*
X0002888510Y0001814070D01*
X0002865157Y0001818715D01*
X0002841804Y0001814070D01*
X0002822007Y0001800841D01*
X0002808779Y0001781044D01*
X0002804133Y0001757691D01*
X0002804133Y0001755300D01*
X0002808779Y0001731947D01*
X0002822007Y0001712150D01*
X0002841804Y0001698922D01*
X0002865157Y0001694276D01*
X0002888510Y0001698922D01*
X0002908307Y0001712150D01*
X0002921535Y0001731947D01*
X0002926181Y0001755300D01*
X0003107440Y0001755300D01*
X0003107440Y0001656496D01*
X0003074115Y0001656496D01*
X0003070668Y0001673822D01*
X0003060854Y0001688510D01*
X0003046165Y0001698325D01*
X0003028839Y0001701771D01*
X0003027065Y0001701771D01*
X0003009739Y0001698325D01*
X0003002365Y0001693397D01*
X0002780689Y0001693397D01*
X0002778112Y0001702252D01*
X0002758641Y0001708624D01*
X0002738215Y0001707059D01*
X0002726612Y0001702252D01*
X0002724034Y0001693397D01*
X0002752362Y0001665070D01*
X0002780689Y0001693397D01*
X0003002365Y0001693397D01*
X0002995051Y0001688510D01*
X0002985236Y0001673822D01*
X0002981790Y0001656496D01*
X0002983039Y0001650216D01*
X0002804490Y0001650216D01*
X0002802925Y0001670642D01*
X0002798119Y0001682246D01*
X0002789263Y0001684823D01*
X0002760936Y0001656496D01*
X0002743787Y0001656496D01*
X0002715460Y0001684823D01*
X0002706605Y0001682246D01*
X0002700234Y0001662775D01*
X0002701799Y0001642349D01*
X0002706605Y0001630745D01*
X0002715460Y0001628168D01*
X0002743787Y0001656496D01*
X0002760936Y0001656496D01*
X0002789263Y0001628168D01*
X0002798119Y0001630745D01*
X0002804490Y0001650216D01*
X0002983039Y0001650216D01*
X0002985236Y0001639169D01*
X0002995051Y0001624481D01*
X0003002365Y0001619594D01*
X0002780689Y0001619594D01*
X0002752362Y0001647921D01*
X0002724034Y0001619594D01*
X0002726612Y0001610739D01*
X0002746082Y0001604367D01*
X0002766509Y0001605932D01*
X0002778112Y0001610739D01*
X0002780689Y0001619594D01*
X0003002365Y0001619594D01*
X0003009739Y0001614666D01*
X0003027065Y0001611220D01*
X0003028839Y0001611220D01*
X0003046165Y0001614666D01*
X0003060854Y0001624481D01*
X0003070668Y0001639169D01*
X0003074115Y0001656496D01*
X0003107440Y0001656496D01*
X0003107440Y0001556496D01*
X0003111834Y0001534408D01*
X0003124345Y0001515684D01*
X0003124345Y0001515684D01*
X0003174345Y0001465684D01*
X0003193070Y0001453172D01*
X0003215157Y0001448779D01*
X0003215157Y0001448779D01*
X0003444400Y0001448779D01*
X0003456697Y0001436482D01*
X0003456677Y0001414342D01*
X0003461465Y0001402755D01*
X0003085316Y0001402755D01*
X0003081945Y0001419705D01*
X0003072343Y0001434074D01*
X0003067860Y0001437069D01*
X0003073297Y0001438092D01*
X0003079327Y0001441973D01*
X0003083372Y0001447893D01*
X0003084795Y0001454921D01*
X0003084795Y0001508070D01*
X0003083560Y0001514636D01*
X0003079680Y0001520666D01*
X0003073760Y0001524711D01*
X0003066732Y0001526134D01*
X0003013582Y0001526134D01*
X0003007017Y0001524899D01*
X0003000987Y0001521018D01*
X0002996942Y0001515098D01*
X0002995519Y0001508070D01*
X0002995519Y0001498335D01*
X0002595272Y0001498335D01*
X0002587624Y0001511478D01*
X0002553163Y0001524760D01*
X0002516242Y0001523843D01*
X0002486391Y0001511478D01*
X0002478743Y0001498335D01*
X0002537007Y0001440070D01*
X0002595272Y0001498335D01*
X0002995519Y0001498335D01*
X0002995519Y0001454921D01*
X0002996754Y0001448355D01*
X0003000634Y0001442325D01*
X0003006554Y0001438280D01*
X0003012472Y0001437082D01*
X0003007971Y0001434074D01*
X0002998369Y0001419705D01*
X0002997099Y0001413318D01*
X0002873824Y0001413318D01*
X0002868591Y0001425984D01*
X0002858909Y0001435683D01*
X0002846252Y0001440938D01*
X0002832547Y0001440950D01*
X0002819901Y0001435725D01*
X0002819837Y0001435823D01*
X0002813917Y0001439868D01*
X0002806889Y0001441291D01*
X0002773425Y0001441291D01*
X0002766859Y0001440056D01*
X0002760829Y0001436176D01*
X0002756784Y0001430256D01*
X0002755361Y0001423228D01*
X0002755361Y0001415340D01*
X0002630272Y0001415340D01*
X0002629355Y0001452260D01*
X0002616990Y0001482112D01*
X0002603846Y0001489760D01*
X0002545582Y0001431496D01*
X0002528433Y0001431496D01*
X0002470168Y0001489760D01*
X0002457025Y0001482112D01*
X0002443743Y0001447651D01*
X0002444660Y0001410731D01*
X0002457025Y0001380879D01*
X0002470168Y0001373231D01*
X0002528433Y0001431496D01*
X0002545582Y0001431496D01*
X0002603846Y0001373231D01*
X0002616990Y0001380879D01*
X0002630272Y0001415340D01*
X0002755361Y0001415340D01*
X0002755361Y0001389763D01*
X0002756596Y0001383198D01*
X0002760477Y0001377168D01*
X0002766397Y0001373123D01*
X0002773425Y0001371700D01*
X0002806889Y0001371700D01*
X0002813455Y0001372935D01*
X0002819484Y0001376815D01*
X0002819825Y0001377314D01*
X0002819830Y0001377308D01*
X0002832487Y0001372053D01*
X0002846192Y0001372041D01*
X0002858858Y0001377274D01*
X0002868557Y0001386956D01*
X0002873812Y0001399613D01*
X0002873824Y0001413318D01*
X0002997099Y0001413318D01*
X0002994998Y0001402755D01*
X0002998369Y0001385806D01*
X0003007971Y0001371437D01*
X0003018118Y0001364657D01*
X0002595272Y0001364657D01*
X0002537007Y0001422921D01*
X0002478743Y0001364657D01*
X0002486391Y0001351513D01*
X0002520852Y0001338231D01*
X0002557772Y0001339148D01*
X0002587624Y0001351513D01*
X0002595272Y0001364657D01*
X0003018118Y0001364657D01*
X0003022340Y0001361836D01*
X0003039289Y0001358464D01*
X0003041025Y0001358464D01*
X0003057974Y0001361836D01*
X0003072343Y0001371437D01*
X0003081945Y0001385806D01*
X0003085316Y0001402755D01*
X0003461465Y0001402755D01*
X0003469836Y0001382497D01*
X0003494180Y0001358110D01*
X0003526002Y0001344896D01*
X0003560460Y0001344866D01*
X0003592305Y0001358025D01*
X0003616692Y0001382368D01*
X0003629906Y0001414191D01*
X0003629936Y0001448649D01*
X0003653196Y0001448649D01*
X0003653196Y0001362598D01*
X0003654431Y0001356033D01*
X0003658311Y0001350003D01*
X0003664232Y0001345957D01*
X0003671259Y0001344534D01*
X0003809055Y0001344534D01*
X0003815620Y0001345770D01*
X0003821650Y0001349650D01*
X0003825695Y0001355570D01*
X0003827118Y0001362598D01*
X0003827118Y0001500393D01*
X0003825883Y0001506959D01*
X0003822003Y0001512988D01*
X0003816082Y0001517034D01*
X0003809055Y0001518457D01*
X0003808742Y0001518457D01*
X0003855969Y0001565684D01*
X0003868480Y0001584408D01*
X0003872874Y0001606496D01*
X0003876968Y0001606496D01*
X0003876968Y0001218473D01*
X0003856398Y0001218473D01*
X0003838753Y0001261175D01*
X0003806111Y0001293875D01*
X0003763439Y0001311593D01*
X0003717235Y0001311634D01*
X0003674533Y0001293990D01*
X0003641833Y0001261347D01*
X0003624114Y0001218675D01*
X0003624074Y0001172471D01*
X0003641718Y0001129769D01*
X0003674361Y0001097069D01*
X0003717032Y0001079350D01*
X0003763236Y0001079310D01*
X0003805939Y0001096954D01*
X0003838638Y0001129597D01*
X0003856357Y0001172269D01*
X0003856398Y0001218473D01*
X0003876968Y0001218473D01*
X0003876968Y0001183137D01*
X0003866180Y0001128902D01*
X0003836611Y0001084648D01*
X0003792357Y0001055079D01*
X0003740157Y0001044696D01*
X0003687957Y0001055079D01*
G04 next file*
G04 #@! TF.FileFunction,Copper,L2,Bot,Signal*
G04 Gerber Fmt 4.6, Leading zero omitted, Abs format (unit mm)*
G04 Created by KiCad (PCBNEW 4.0.7) date 08/24/19 09:27:58*
G01*
G04 APERTURE LIST*
G04 APERTURE END LIST*
D71*
D72*
X-0002834645Y0006539370D02*
X0003779448Y0002981693D03*
X0002165275Y0003375393D03*
D73*
X0003265354Y0002540945D03*
X0003265354Y0002737795D03*
D74*
X0002865354Y0002739370D03*
D75*
X0002865354Y0002639370D03*
X0002865354Y0002539370D03*
D76*
X0002165354Y0003139370D03*
D77*
X0002362204Y0003139370D03*
D78*
X0003115354Y0003164370D03*
D79*
X0003066141Y0003164370D03*
D80*
X0003040354Y0002414370D03*
D81*
X0003040354Y0002814370D03*
D82*
X0003153149Y0002914370D03*
D83*
X0002877559Y0002914370D03*
D84*
X0002865354Y0003089370D03*
D85*
X0002865354Y0003168110D03*
D76*
X0003565354Y0003139370D03*
D77*
X0003368503Y0003139370D03*
D86*
X0002865354Y0002639370D02*
X0002790354Y0002639370D01*
X0002790354Y0002639370D02*
X0002740354Y0002689370D01*
X0002740354Y0002689370D02*
X0002740354Y0003014370D01*
X0002740354Y0003014370D02*
X0002690354Y0003064370D01*
X0002690354Y0003064370D02*
X0002437204Y0003064370D01*
X0002437204Y0003064370D02*
X0002362204Y0003139370D01*
X0003040354Y0002414370D02*
X0003138779Y0002414370D01*
X0003138779Y0002414370D02*
X0003265354Y0002540945D01*
X0003040354Y0002414370D02*
X0002990354Y0002414370D01*
X0002990354Y0002414370D02*
X0002140354Y0002414370D01*
X0002140354Y0002414370D02*
X0002090354Y0002464370D01*
X0002090354Y0002464370D02*
X0002090354Y0002964370D01*
X0002090354Y0002964370D02*
X0002165354Y0003039370D01*
X0002165354Y0003039370D02*
X0002165354Y0003139370D01*
X0003263779Y0002539370D02*
X0003265354Y0002540945D01*
X0003265354Y0002737795D02*
X0003363779Y0002737795D01*
X0003565354Y0002939370D02*
X0003565354Y0003139370D01*
X0003363779Y0002737795D02*
X0003565354Y0002939370D01*
X0002865354Y0002539370D02*
X0002915354Y0002539370D01*
X0003368503Y0002992519D02*
X0003368503Y0003139370D01*
X0002915354Y0002539370D02*
X0003368503Y0002992519D01*
D87*
G36*
X0002217554Y0003515786D02*
X0002261807Y0003486217D01*
X0002291377Y0003441964D01*
X0002302562Y0003385731D01*
X0002311553Y0003340532D01*
X0002311553Y0003340532D01*
X0002313096Y0003336807D01*
X0002314639Y0003333081D01*
X0002314639Y0003333081D01*
X0002340242Y0003294764D01*
X0002345945Y0003289061D01*
X0002384262Y0003263458D01*
X0002384262Y0003263458D01*
X0002388627Y0003261650D01*
X0002391713Y0003260372D01*
X0002391713Y0003260372D01*
X0002436912Y0003251381D01*
X0002438948Y0003251381D01*
X0002440944Y0003250984D01*
X0003816861Y0003250984D01*
X0003840965Y0003246190D01*
X0003859673Y0003233689D01*
X0003872174Y0003214981D01*
X0003876968Y0003190877D01*
X0003876968Y0003048395D01*
X0003845323Y0003080095D01*
X0003802652Y0003097814D01*
X0003756448Y0003097855D01*
X0003713745Y0003080210D01*
X0003681046Y0003047568D01*
X0003663327Y0003004896D01*
X0003663286Y0002958692D01*
X0003680931Y0002915990D01*
X0003713573Y0002883290D01*
X0003756245Y0002865571D01*
X0003802449Y0002865531D01*
X0003845151Y0002883175D01*
X0003876968Y0002914936D01*
X0003876968Y0002407547D01*
X0003872174Y0002383444D01*
X0003859673Y0002364736D01*
X0003840965Y0002352235D01*
X0003816861Y0002347441D01*
X0002088649Y0002347441D01*
X0002064546Y0002352235D01*
X0002045838Y0002364736D01*
X0002033337Y0002383444D01*
X0002028543Y0002407547D01*
X0002028543Y0002964370D01*
X0002032637Y0002964370D01*
X0002032637Y0002964370D01*
X0002032637Y0002464370D01*
X0002032637Y0002464370D01*
X0002037031Y0002442283D01*
X0002049542Y0002423558D01*
X0002099542Y0002373558D01*
X0002099542Y0002373558D01*
X0002114003Y0002363896D01*
X0002118267Y0002361047D01*
X0002140354Y0002356653D01*
X0002986754Y0002356653D01*
X0002990019Y0002354422D01*
X0002997047Y0002352999D01*
X0003083661Y0002352999D01*
X0003090226Y0002354234D01*
X0003093985Y0002356653D01*
X0003138779Y0002356653D01*
X0003138779Y0002356653D01*
X0003160866Y0002361047D01*
X0003179591Y0002373558D01*
X0003304591Y0002498558D01*
X0003304591Y0002498558D01*
X0003306166Y0002500133D01*
X0003307952Y0002502806D01*
X0003313721Y0002508565D01*
X0003316875Y0002516161D01*
X0003318677Y0002518857D01*
X0003319304Y0002522010D01*
X0003322431Y0002529540D01*
X0003322438Y0002537764D01*
X0003323070Y0002540945D01*
X0003322443Y0002544098D01*
X0003322450Y0002552250D01*
X0003319310Y0002559851D01*
X0003318677Y0002563032D01*
X0003316891Y0002565705D01*
X0003313778Y0002573239D01*
X0003307967Y0002579060D01*
X0003306166Y0002581756D01*
X0003303493Y0002583542D01*
X0003297733Y0002589312D01*
X0003290138Y0002592466D01*
X0003287441Y0002594268D01*
X0003284288Y0002594895D01*
X0003276759Y0002598021D01*
X0003268535Y0002598028D01*
X0003265354Y0002598661D01*
X0003262201Y0002598034D01*
X0003254048Y0002598041D01*
X0003246447Y0002594900D01*
X0003243267Y0002594268D01*
X0003240594Y0002592482D01*
X0003233059Y0002589369D01*
X0003227239Y0002583558D01*
X0003224542Y0002581756D01*
X0003222967Y0002580182D01*
X0003222967Y0002580181D01*
X0003114872Y0002472086D01*
X0003093954Y0002472086D01*
X0003090689Y0002474317D01*
X0003083661Y0002475741D01*
X0002997047Y0002475741D01*
X0002990481Y0002474505D01*
X0002986722Y0002472086D01*
X0002164261Y0002472086D01*
X0002148070Y0002488277D01*
X0002148070Y0002524142D01*
X0002807969Y0002524142D01*
X0002818165Y0002503341D01*
X0002835544Y0002488025D01*
X0002850127Y0002481986D01*
X0002859291Y0002486329D01*
X0002859291Y0002533307D01*
X0002871417Y0002533307D01*
X0002871417Y0002486329D01*
X0002880581Y0002481986D01*
X0002895163Y0002488025D01*
X0002912543Y0002503341D01*
X0002922738Y0002524142D01*
X0002918430Y0002533307D01*
X0002871417Y0002533307D01*
X0002859291Y0002533307D01*
X0002812278Y0002533307D01*
X0002807969Y0002524142D01*
X0002148070Y0002524142D01*
X0002148070Y0002940463D01*
X0002206165Y0002998558D01*
X0002206166Y0002998558D01*
X0002218677Y0003017283D01*
X0002219925Y0003023558D01*
X0002223070Y0003039370D01*
X0002223070Y0003039370D01*
X0002223070Y0003052409D01*
X0002234251Y0003052409D01*
X0002240817Y0003053644D01*
X0002246847Y0003057524D01*
X0002250892Y0003063444D01*
X0002252315Y0003070472D01*
X0002252315Y0003122217D01*
X0002275575Y0003122217D01*
X0002288733Y0003090371D01*
X0002313077Y0003065985D01*
X0002344900Y0003052771D01*
X0002367199Y0003052751D01*
X0002396392Y0003023558D01*
X0002396392Y0003023558D01*
X0002415117Y0003011047D01*
X0002418782Y0003010318D01*
X0002437204Y0003006653D01*
X0002437204Y0003006653D01*
X0002666447Y0003006653D01*
X0002682637Y0002990463D01*
X0002682637Y0002689370D01*
X0002682637Y0002689370D01*
X0002687031Y0002667283D01*
X0002699542Y0002648558D01*
X0002749542Y0002598558D01*
X0002749542Y0002598558D01*
X0002763295Y0002589369D01*
X0002768267Y0002586047D01*
X0002790354Y0002581653D01*
X0002825262Y0002581653D01*
X0002818165Y0002575398D01*
X0002807969Y0002554597D01*
X0002812278Y0002545433D01*
X0002859291Y0002545433D01*
X0002859291Y0002546220D01*
X0002871417Y0002546220D01*
X0002871417Y0002545433D01*
X0002918430Y0002545433D01*
X0002922738Y0002554597D01*
X0002912543Y0002575398D01*
X0002895163Y0002590714D01*
X0002894708Y0002590903D01*
X0002906166Y0002598558D01*
X0002918677Y0002617283D01*
X0002923070Y0002639370D01*
X0002918677Y0002661457D01*
X0002906166Y0002680182D01*
X0002897648Y0002685873D01*
X0002900787Y0002685873D01*
X0002907352Y0002687108D01*
X0002913382Y0002690989D01*
X0002917427Y0002696909D01*
X0002918850Y0002703937D01*
X0002918850Y0002737795D01*
X0003207637Y0002737795D01*
X0003208264Y0002734642D01*
X0003208257Y0002726490D01*
X0003211398Y0002718889D01*
X0003212031Y0002715708D01*
X0003213817Y0002713035D01*
X0003216930Y0002705500D01*
X0003222740Y0002699680D01*
X0003224542Y0002696983D01*
X0003227215Y0002695197D01*
X0003232975Y0002689428D01*
X0003240570Y0002686274D01*
X0003243267Y0002684472D01*
X0003246420Y0002683845D01*
X0003253949Y0002680718D01*
X0003262173Y0002680711D01*
X0003265354Y0002680078D01*
X0003363779Y0002680078D01*
X0003363779Y0002680078D01*
X0003385866Y0002684472D01*
X0003404591Y0002696983D01*
X0003606165Y0002898558D01*
X0003606166Y0002898558D01*
X0003618677Y0002917283D01*
X0003623070Y0002939370D01*
X0003623070Y0003052409D01*
X0003634251Y0003052409D01*
X0003640817Y0003053644D01*
X0003646847Y0003057524D01*
X0003650892Y0003063444D01*
X0003652315Y0003070472D01*
X0003652315Y0003208267D01*
X0003651080Y0003214833D01*
X0003647200Y0003220863D01*
X0003641279Y0003224908D01*
X0003634251Y0003226331D01*
X0003496456Y0003226331D01*
X0003489891Y0003225096D01*
X0003483861Y0003221216D01*
X0003479816Y0003215295D01*
X0003478393Y0003208267D01*
X0003478393Y0003070472D01*
X0003479628Y0003063907D01*
X0003483508Y0003057877D01*
X0003489428Y0003053832D01*
X0003496456Y0003052409D01*
X0003507637Y0003052409D01*
X0003507637Y0002963277D01*
X0003339872Y0002795512D01*
X0003265354Y0002795512D01*
X0003262201Y0002794884D01*
X0003254048Y0002794892D01*
X0003246447Y0002791751D01*
X0003243267Y0002791118D01*
X0003240594Y0002789332D01*
X0003233059Y0002786219D01*
X0003227239Y0002780409D01*
X0003224542Y0002778607D01*
X0003222756Y0002775934D01*
X0003216986Y0002770174D01*
X0003213832Y0002762579D01*
X0003212031Y0002759882D01*
X0003211404Y0002756729D01*
X0003208277Y0002749200D01*
X0003208270Y0002740976D01*
X0003207637Y0002737795D01*
X0002918850Y0002737795D01*
X0002918850Y0002774803D01*
X0002917615Y0002781368D01*
X0002913735Y0002787398D01*
X0002907815Y0002791443D01*
X0002900787Y0002792867D01*
X0002829921Y0002792867D01*
X0002823355Y0002791631D01*
X0002817326Y0002787751D01*
X0002813280Y0002781831D01*
X0002811857Y0002774803D01*
X0002811857Y0002703937D01*
X0002812888Y0002698459D01*
X0002798070Y0002713277D01*
X0002798070Y0002815565D01*
X0002979330Y0002815565D01*
X0002979330Y0002813174D01*
X0002983975Y0002789822D01*
X0002997204Y0002770024D01*
X0003017001Y0002756796D01*
X0003040354Y0002752151D01*
X0003063707Y0002756796D01*
X0003083504Y0002770024D01*
X0003096732Y0002789822D01*
X0003101377Y0002813174D01*
X0003101377Y0002815565D01*
X0003096732Y0002838918D01*
X0003083504Y0002858716D01*
X0003063707Y0002871944D01*
X0003040354Y0002876589D01*
X0003017001Y0002871944D01*
X0002997204Y0002858716D01*
X0002983975Y0002838918D01*
X0002979330Y0002815565D01*
X0002798070Y0002815565D01*
X0002798070Y0002914370D01*
X0002831396Y0002914370D01*
X0002834842Y0002897044D01*
X0002844657Y0002882355D01*
X0002859345Y0002872541D01*
X0002876672Y0002869094D01*
X0002878446Y0002869094D01*
X0002895772Y0002872541D01*
X0002903146Y0002877468D01*
X0003124822Y0002877468D01*
X0003127399Y0002868613D01*
X0003146870Y0002862242D01*
X0003167296Y0002863807D01*
X0003178899Y0002868613D01*
X0003181476Y0002877468D01*
X0003153149Y0002905795D01*
X0003124822Y0002877468D01*
X0002903146Y0002877468D01*
X0002910460Y0002882355D01*
X0002920275Y0002897044D01*
X0002923721Y0002914370D01*
X0002922472Y0002920649D01*
X0003101021Y0002920649D01*
X0003102586Y0002900223D01*
X0003107392Y0002888620D01*
X0003116247Y0002886042D01*
X0003144575Y0002914370D01*
X0003161723Y0002914370D01*
X0003190051Y0002886042D01*
X0003198906Y0002888620D01*
X0003205277Y0002908090D01*
X0003203712Y0002928517D01*
X0003198906Y0002940120D01*
X0003190051Y0002942697D01*
X0003161723Y0002914370D01*
X0003144575Y0002914370D01*
X0003116247Y0002942697D01*
X0003107392Y0002940120D01*
X0003101021Y0002920649D01*
X0002922472Y0002920649D01*
X0002920275Y0002931696D01*
X0002910460Y0002946385D01*
X0002903146Y0002951272D01*
X0003124822Y0002951272D01*
X0003153149Y0002922944D01*
X0003181476Y0002951272D01*
X0003178899Y0002960127D01*
X0003159429Y0002966498D01*
X0003139002Y0002964933D01*
X0003127399Y0002960127D01*
X0003124822Y0002951272D01*
X0002903146Y0002951272D01*
X0002895772Y0002956199D01*
X0002878446Y0002959645D01*
X0002876672Y0002959645D01*
X0002859345Y0002956199D01*
X0002844657Y0002946385D01*
X0002834842Y0002931696D01*
X0002831396Y0002914370D01*
X0002798070Y0002914370D01*
X0002798070Y0003014370D01*
X0002793677Y0003036457D01*
X0002781166Y0003055182D01*
X0002781165Y0003055182D01*
X0002731166Y0003105182D01*
X0002712441Y0003117693D01*
X0002690354Y0003122086D01*
X0002690354Y0003122086D01*
X0002461111Y0003122086D01*
X0002448814Y0003134383D01*
X0002448833Y0003156523D01*
X0002444046Y0003168110D01*
X0002820195Y0003168110D01*
X0002823566Y0003151160D01*
X0002833167Y0003136791D01*
X0002837650Y0003133796D01*
X0002832214Y0003132773D01*
X0002826184Y0003128893D01*
X0002822139Y0003122972D01*
X0002820715Y0003115945D01*
X0002820715Y0003062795D01*
X0002821951Y0003056230D01*
X0002825831Y0003050200D01*
X0002831751Y0003046155D01*
X0002838779Y0003044731D01*
X0002891929Y0003044731D01*
X0002898494Y0003045967D01*
X0002904524Y0003049847D01*
X0002908569Y0003055767D01*
X0002909992Y0003062795D01*
X0002909992Y0003072531D01*
X0003310239Y0003072531D01*
X0003317887Y0003059387D01*
X0003352348Y0003046105D01*
X0003389268Y0003047022D01*
X0003419120Y0003059387D01*
X0003426768Y0003072531D01*
X0003368503Y0003130795D01*
X0003310239Y0003072531D01*
X0002909992Y0003072531D01*
X0002909992Y0003115945D01*
X0002908757Y0003122510D01*
X0002904877Y0003128540D01*
X0002898956Y0003132585D01*
X0002893039Y0003133783D01*
X0002897540Y0003136791D01*
X0002907141Y0003151160D01*
X0002908412Y0003157548D01*
X0003031686Y0003157548D01*
X0003036920Y0003144882D01*
X0003046602Y0003135183D01*
X0003059259Y0003129927D01*
X0003072963Y0003129915D01*
X0003085610Y0003135141D01*
X0003085673Y0003135042D01*
X0003091594Y0003130997D01*
X0003098622Y0003129574D01*
X0003132086Y0003129574D01*
X0003138651Y0003130809D01*
X0003144681Y0003134689D01*
X0003148727Y0003140610D01*
X0003150150Y0003147638D01*
X0003150150Y0003155525D01*
X0003275239Y0003155525D01*
X0003276156Y0003118605D01*
X0003288521Y0003088753D01*
X0003301664Y0003081105D01*
X0003359929Y0003139370D01*
X0003377078Y0003139370D01*
X0003435342Y0003081105D01*
X0003448486Y0003088753D01*
X0003461768Y0003123214D01*
X0003460851Y0003160135D01*
X0003448486Y0003189986D01*
X0003435342Y0003197634D01*
X0003377078Y0003139370D01*
X0003359929Y0003139370D01*
X0003301664Y0003197634D01*
X0003288521Y0003189986D01*
X0003275239Y0003155525D01*
X0003150150Y0003155525D01*
X0003150150Y0003181102D01*
X0003148914Y0003187667D01*
X0003145034Y0003193697D01*
X0003139114Y0003197743D01*
X0003132086Y0003199166D01*
X0003098622Y0003199166D01*
X0003092056Y0003197930D01*
X0003086026Y0003194050D01*
X0003085686Y0003193552D01*
X0003085680Y0003193557D01*
X0003073024Y0003198813D01*
X0003059319Y0003198825D01*
X0003046653Y0003193591D01*
X0003036954Y0003183909D01*
X0003031698Y0003171252D01*
X0003031686Y0003157548D01*
X0002908412Y0003157548D01*
X0002910513Y0003168110D01*
X0002907141Y0003185060D01*
X0002897540Y0003199429D01*
X0002887393Y0003206209D01*
X0003310239Y0003206209D01*
X0003368503Y0003147944D01*
X0003426768Y0003206209D01*
X0003419120Y0003219352D01*
X0003384659Y0003232634D01*
X0003347738Y0003231717D01*
X0003317887Y0003219352D01*
X0003310239Y0003206209D01*
X0002887393Y0003206209D01*
X0002883171Y0003209030D01*
X0002866222Y0003212401D01*
X0002864486Y0003212401D01*
X0002847537Y0003209030D01*
X0002833167Y0003199429D01*
X0002823566Y0003185060D01*
X0002820195Y0003168110D01*
X0002444046Y0003168110D01*
X0002435675Y0003188369D01*
X0002411331Y0003212755D01*
X0002379508Y0003225969D01*
X0002345051Y0003225999D01*
X0002313205Y0003212841D01*
X0002288819Y0003188497D01*
X0002275605Y0003156674D01*
X0002275575Y0003122217D01*
X0002252315Y0003122217D01*
X0002252315Y0003208267D01*
X0002251080Y0003214833D01*
X0002247200Y0003220863D01*
X0002241279Y0003224908D01*
X0002234251Y0003226331D01*
X0002096456Y0003226331D01*
X0002089891Y0003225096D01*
X0002083861Y0003221216D01*
X0002079816Y0003215295D01*
X0002078393Y0003208267D01*
X0002078393Y0003070472D01*
X0002079628Y0003063907D01*
X0002083508Y0003057877D01*
X0002089428Y0003053832D01*
X0002096456Y0003052409D01*
X0002096769Y0003052409D01*
X0002049542Y0003005182D01*
X0002037031Y0002986457D01*
X0002032637Y0002964370D01*
X0002028543Y0002964370D01*
X0002028543Y0003352393D01*
X0002049113Y0003352393D01*
X0002066757Y0003309690D01*
X0002099400Y0003276991D01*
X0002142072Y0003259272D01*
X0002188276Y0003259232D01*
X0002230978Y0003276876D01*
X0002263678Y0003309519D01*
X0002281397Y0003352190D01*
X0002281437Y0003398394D01*
X0002263793Y0003441097D01*
X0002231150Y0003473796D01*
X0002188478Y0003491515D01*
X0002142274Y0003491555D01*
X0002099572Y0003473911D01*
X0002066872Y0003441268D01*
X0002049154Y0003398597D01*
X0002049113Y0003352393D01*
X0002028543Y0003352393D01*
X0002028543Y0003387728D01*
X0002039331Y0003441964D01*
X0002068900Y0003486217D01*
X0002113153Y0003515786D01*
X0002165354Y0003526170D01*
X0002217554Y0003515786D01*
X0002217554Y0003515786D01*
G37*
X0002217554Y0003515786D02*
X0002261807Y0003486217D01*
X0002291377Y0003441964D01*
X0002302562Y0003385731D01*
X0002311553Y0003340532D01*
X0002311553Y0003340532D01*
X0002313096Y0003336807D01*
X0002314639Y0003333081D01*
X0002314639Y0003333081D01*
X0002340242Y0003294764D01*
X0002345945Y0003289061D01*
X0002384262Y0003263458D01*
X0002384262Y0003263458D01*
X0002388627Y0003261650D01*
X0002391713Y0003260372D01*
X0002391713Y0003260372D01*
X0002436912Y0003251381D01*
X0002438948Y0003251381D01*
X0002440944Y0003250984D01*
X0003816861Y0003250984D01*
X0003840965Y0003246190D01*
X0003859673Y0003233689D01*
X0003872174Y0003214981D01*
X0003876968Y0003190877D01*
X0003876968Y0003048395D01*
X0003845323Y0003080095D01*
X0003802652Y0003097814D01*
X0003756448Y0003097855D01*
X0003713745Y0003080210D01*
X0003681046Y0003047568D01*
X0003663327Y0003004896D01*
X0003663286Y0002958692D01*
X0003680931Y0002915990D01*
X0003713573Y0002883290D01*
X0003756245Y0002865571D01*
X0003802449Y0002865531D01*
X0003845151Y0002883175D01*
X0003876968Y0002914936D01*
X0003876968Y0002407547D01*
X0003872174Y0002383444D01*
X0003859673Y0002364736D01*
X0003840965Y0002352235D01*
X0003816861Y0002347441D01*
X0002088649Y0002347441D01*
X0002064546Y0002352235D01*
X0002045838Y0002364736D01*
X0002033337Y0002383444D01*
X0002028543Y0002407547D01*
X0002028543Y0002964370D01*
X0002032637Y0002964370D01*
X0002032637Y0002964370D01*
X0002032637Y0002464370D01*
X0002032637Y0002464370D01*
X0002037031Y0002442283D01*
X0002049542Y0002423558D01*
X0002099542Y0002373558D01*
X0002099542Y0002373558D01*
X0002114003Y0002363896D01*
X0002118267Y0002361047D01*
X0002140354Y0002356653D01*
X0002986754Y0002356653D01*
X0002990019Y0002354422D01*
X0002997047Y0002352999D01*
X0003083661Y0002352999D01*
X0003090226Y0002354234D01*
X0003093985Y0002356653D01*
X0003138779Y0002356653D01*
X0003138779Y0002356653D01*
X0003160866Y0002361047D01*
X0003179591Y0002373558D01*
X0003304591Y0002498558D01*
X0003304591Y0002498558D01*
X0003306166Y0002500133D01*
X0003307952Y0002502806D01*
X0003313721Y0002508565D01*
X0003316875Y0002516161D01*
X0003318677Y0002518857D01*
X0003319304Y0002522010D01*
X0003322431Y0002529540D01*
X0003322438Y0002537764D01*
X0003323070Y0002540945D01*
X0003322443Y0002544098D01*
X0003322450Y0002552250D01*
X0003319310Y0002559851D01*
X0003318677Y0002563032D01*
X0003316891Y0002565705D01*
X0003313778Y0002573239D01*
X0003307967Y0002579060D01*
X0003306166Y0002581756D01*
X0003303493Y0002583542D01*
X0003297733Y0002589312D01*
X0003290138Y0002592466D01*
X0003287441Y0002594268D01*
X0003284288Y0002594895D01*
X0003276759Y0002598021D01*
X0003268535Y0002598028D01*
X0003265354Y0002598661D01*
X0003262201Y0002598034D01*
X0003254048Y0002598041D01*
X0003246447Y0002594900D01*
X0003243267Y0002594268D01*
X0003240594Y0002592482D01*
X0003233059Y0002589369D01*
X0003227239Y0002583558D01*
X0003224542Y0002581756D01*
X0003222967Y0002580182D01*
X0003222967Y0002580181D01*
X0003114872Y0002472086D01*
X0003093954Y0002472086D01*
X0003090689Y0002474317D01*
X0003083661Y0002475741D01*
X0002997047Y0002475741D01*
X0002990481Y0002474505D01*
X0002986722Y0002472086D01*
X0002164261Y0002472086D01*
X0002148070Y0002488277D01*
X0002148070Y0002524142D01*
X0002807969Y0002524142D01*
X0002818165Y0002503341D01*
X0002835544Y0002488025D01*
X0002850127Y0002481986D01*
X0002859291Y0002486329D01*
X0002859291Y0002533307D01*
X0002871417Y0002533307D01*
X0002871417Y0002486329D01*
X0002880581Y0002481986D01*
X0002895163Y0002488025D01*
X0002912543Y0002503341D01*
X0002922738Y0002524142D01*
X0002918430Y0002533307D01*
X0002871417Y0002533307D01*
X0002859291Y0002533307D01*
X0002812278Y0002533307D01*
X0002807969Y0002524142D01*
X0002148070Y0002524142D01*
X0002148070Y0002940463D01*
X0002206165Y0002998558D01*
X0002206166Y0002998558D01*
X0002218677Y0003017283D01*
X0002219925Y0003023558D01*
X0002223070Y0003039370D01*
X0002223070Y0003039370D01*
X0002223070Y0003052409D01*
X0002234251Y0003052409D01*
X0002240817Y0003053644D01*
X0002246847Y0003057524D01*
X0002250892Y0003063444D01*
X0002252315Y0003070472D01*
X0002252315Y0003122217D01*
X0002275575Y0003122217D01*
X0002288733Y0003090371D01*
X0002313077Y0003065985D01*
X0002344900Y0003052771D01*
X0002367199Y0003052751D01*
X0002396392Y0003023558D01*
X0002396392Y0003023558D01*
X0002415117Y0003011047D01*
X0002418782Y0003010318D01*
X0002437204Y0003006653D01*
X0002437204Y0003006653D01*
X0002666447Y0003006653D01*
X0002682637Y0002990463D01*
X0002682637Y0002689370D01*
X0002682637Y0002689370D01*
X0002687031Y0002667283D01*
X0002699542Y0002648558D01*
X0002749542Y0002598558D01*
X0002749542Y0002598558D01*
X0002763295Y0002589369D01*
X0002768267Y0002586047D01*
X0002790354Y0002581653D01*
X0002825262Y0002581653D01*
X0002818165Y0002575398D01*
X0002807969Y0002554597D01*
X0002812278Y0002545433D01*
X0002859291Y0002545433D01*
X0002859291Y0002546220D01*
X0002871417Y0002546220D01*
X0002871417Y0002545433D01*
X0002918430Y0002545433D01*
X0002922738Y0002554597D01*
X0002912543Y0002575398D01*
X0002895163Y0002590714D01*
X0002894708Y0002590903D01*
X0002906166Y0002598558D01*
X0002918677Y0002617283D01*
X0002923070Y0002639370D01*
X0002918677Y0002661457D01*
X0002906166Y0002680182D01*
X0002897648Y0002685873D01*
X0002900787Y0002685873D01*
X0002907352Y0002687108D01*
X0002913382Y0002690989D01*
X0002917427Y0002696909D01*
X0002918850Y0002703937D01*
X0002918850Y0002737795D01*
X0003207637Y0002737795D01*
X0003208264Y0002734642D01*
X0003208257Y0002726490D01*
X0003211398Y0002718889D01*
X0003212031Y0002715708D01*
X0003213817Y0002713035D01*
X0003216930Y0002705500D01*
X0003222740Y0002699680D01*
X0003224542Y0002696983D01*
X0003227215Y0002695197D01*
X0003232975Y0002689428D01*
X0003240570Y0002686274D01*
X0003243267Y0002684472D01*
X0003246420Y0002683845D01*
X0003253949Y0002680718D01*
X0003262173Y0002680711D01*
X0003265354Y0002680078D01*
X0003363779Y0002680078D01*
X0003363779Y0002680078D01*
X0003385866Y0002684472D01*
X0003404591Y0002696983D01*
X0003606165Y0002898558D01*
X0003606166Y0002898558D01*
X0003618677Y0002917283D01*
X0003623070Y0002939370D01*
X0003623070Y0003052409D01*
X0003634251Y0003052409D01*
X0003640817Y0003053644D01*
X0003646847Y0003057524D01*
X0003650892Y0003063444D01*
X0003652315Y0003070472D01*
X0003652315Y0003208267D01*
X0003651080Y0003214833D01*
X0003647200Y0003220863D01*
X0003641279Y0003224908D01*
X0003634251Y0003226331D01*
X0003496456Y0003226331D01*
X0003489891Y0003225096D01*
X0003483861Y0003221216D01*
X0003479816Y0003215295D01*
X0003478393Y0003208267D01*
X0003478393Y0003070472D01*
X0003479628Y0003063907D01*
X0003483508Y0003057877D01*
X0003489428Y0003053832D01*
X0003496456Y0003052409D01*
X0003507637Y0003052409D01*
X0003507637Y0002963277D01*
X0003339872Y0002795512D01*
X0003265354Y0002795512D01*
X0003262201Y0002794884D01*
X0003254048Y0002794892D01*
X0003246447Y0002791751D01*
X0003243267Y0002791118D01*
X0003240594Y0002789332D01*
X0003233059Y0002786219D01*
X0003227239Y0002780409D01*
X0003224542Y0002778607D01*
X0003222756Y0002775934D01*
X0003216986Y0002770174D01*
X0003213832Y0002762579D01*
X0003212031Y0002759882D01*
X0003211404Y0002756729D01*
X0003208277Y0002749200D01*
X0003208270Y0002740976D01*
X0003207637Y0002737795D01*
X0002918850Y0002737795D01*
X0002918850Y0002774803D01*
X0002917615Y0002781368D01*
X0002913735Y0002787398D01*
X0002907815Y0002791443D01*
X0002900787Y0002792867D01*
X0002829921Y0002792867D01*
X0002823355Y0002791631D01*
X0002817326Y0002787751D01*
X0002813280Y0002781831D01*
X0002811857Y0002774803D01*
X0002811857Y0002703937D01*
X0002812888Y0002698459D01*
X0002798070Y0002713277D01*
X0002798070Y0002815565D01*
X0002979330Y0002815565D01*
X0002979330Y0002813174D01*
X0002983975Y0002789822D01*
X0002997204Y0002770024D01*
X0003017001Y0002756796D01*
X0003040354Y0002752151D01*
X0003063707Y0002756796D01*
X0003083504Y0002770024D01*
X0003096732Y0002789822D01*
X0003101377Y0002813174D01*
X0003101377Y0002815565D01*
X0003096732Y0002838918D01*
X0003083504Y0002858716D01*
X0003063707Y0002871944D01*
X0003040354Y0002876589D01*
X0003017001Y0002871944D01*
X0002997204Y0002858716D01*
X0002983975Y0002838918D01*
X0002979330Y0002815565D01*
X0002798070Y0002815565D01*
X0002798070Y0002914370D01*
X0002831396Y0002914370D01*
X0002834842Y0002897044D01*
X0002844657Y0002882355D01*
X0002859345Y0002872541D01*
X0002876672Y0002869094D01*
X0002878446Y0002869094D01*
X0002895772Y0002872541D01*
X0002903146Y0002877468D01*
X0003124822Y0002877468D01*
X0003127399Y0002868613D01*
X0003146870Y0002862242D01*
X0003167296Y0002863807D01*
X0003178899Y0002868613D01*
X0003181476Y0002877468D01*
X0003153149Y0002905795D01*
X0003124822Y0002877468D01*
X0002903146Y0002877468D01*
X0002910460Y0002882355D01*
X0002920275Y0002897044D01*
X0002923721Y0002914370D01*
X0002922472Y0002920649D01*
X0003101021Y0002920649D01*
X0003102586Y0002900223D01*
X0003107392Y0002888620D01*
X0003116247Y0002886042D01*
X0003144575Y0002914370D01*
X0003161723Y0002914370D01*
X0003190051Y0002886042D01*
X0003198906Y0002888620D01*
X0003205277Y0002908090D01*
X0003203712Y0002928517D01*
X0003198906Y0002940120D01*
X0003190051Y0002942697D01*
X0003161723Y0002914370D01*
X0003144575Y0002914370D01*
X0003116247Y0002942697D01*
X0003107392Y0002940120D01*
X0003101021Y0002920649D01*
X0002922472Y0002920649D01*
X0002920275Y0002931696D01*
X0002910460Y0002946385D01*
X0002903146Y0002951272D01*
X0003124822Y0002951272D01*
X0003153149Y0002922944D01*
X0003181476Y0002951272D01*
X0003178899Y0002960127D01*
X0003159429Y0002966498D01*
X0003139002Y0002964933D01*
X0003127399Y0002960127D01*
X0003124822Y0002951272D01*
X0002903146Y0002951272D01*
X0002895772Y0002956199D01*
X0002878446Y0002959645D01*
X0002876672Y0002959645D01*
X0002859345Y0002956199D01*
X0002844657Y0002946385D01*
X0002834842Y0002931696D01*
X0002831396Y0002914370D01*
X0002798070Y0002914370D01*
X0002798070Y0003014370D01*
X0002793677Y0003036457D01*
X0002781166Y0003055182D01*
X0002781165Y0003055182D01*
X0002731166Y0003105182D01*
X0002712441Y0003117693D01*
X0002690354Y0003122086D01*
X0002690354Y0003122086D01*
X0002461111Y0003122086D01*
X0002448814Y0003134383D01*
X0002448833Y0003156523D01*
X0002444046Y0003168110D01*
X0002820195Y0003168110D01*
X0002823566Y0003151160D01*
X0002833167Y0003136791D01*
X0002837650Y0003133796D01*
X0002832214Y0003132773D01*
X0002826184Y0003128893D01*
X0002822139Y0003122972D01*
X0002820715Y0003115945D01*
X0002820715Y0003062795D01*
X0002821951Y0003056230D01*
X0002825831Y0003050200D01*
X0002831751Y0003046155D01*
X0002838779Y0003044731D01*
X0002891929Y0003044731D01*
X0002898494Y0003045967D01*
X0002904524Y0003049847D01*
X0002908569Y0003055767D01*
X0002909992Y0003062795D01*
X0002909992Y0003072531D01*
X0003310239Y0003072531D01*
X0003317887Y0003059387D01*
X0003352348Y0003046105D01*
X0003389268Y0003047022D01*
X0003419120Y0003059387D01*
X0003426768Y0003072531D01*
X0003368503Y0003130795D01*
X0003310239Y0003072531D01*
X0002909992Y0003072531D01*
X0002909992Y0003115945D01*
X0002908757Y0003122510D01*
X0002904877Y0003128540D01*
X0002898956Y0003132585D01*
X0002893039Y0003133783D01*
X0002897540Y0003136791D01*
X0002907141Y0003151160D01*
X0002908412Y0003157548D01*
X0003031686Y0003157548D01*
X0003036920Y0003144882D01*
X0003046602Y0003135183D01*
X0003059259Y0003129927D01*
X0003072963Y0003129915D01*
X0003085610Y0003135141D01*
X0003085673Y0003135042D01*
X0003091594Y0003130997D01*
X0003098622Y0003129574D01*
X0003132086Y0003129574D01*
X0003138651Y0003130809D01*
X0003144681Y0003134689D01*
X0003148727Y0003140610D01*
X0003150150Y0003147638D01*
X0003150150Y0003155525D01*
X0003275239Y0003155525D01*
X0003276156Y0003118605D01*
X0003288521Y0003088753D01*
X0003301664Y0003081105D01*
X0003359929Y0003139370D01*
X0003377078Y0003139370D01*
X0003435342Y0003081105D01*
X0003448486Y0003088753D01*
X0003461768Y0003123214D01*
X0003460851Y0003160135D01*
X0003448486Y0003189986D01*
X0003435342Y0003197634D01*
X0003377078Y0003139370D01*
X0003359929Y0003139370D01*
X0003301664Y0003197634D01*
X0003288521Y0003189986D01*
X0003275239Y0003155525D01*
X0003150150Y0003155525D01*
X0003150150Y0003181102D01*
X0003148914Y0003187667D01*
X0003145034Y0003193697D01*
X0003139114Y0003197743D01*
X0003132086Y0003199166D01*
X0003098622Y0003199166D01*
X0003092056Y0003197930D01*
X0003086026Y0003194050D01*
X0003085686Y0003193552D01*
X0003085680Y0003193557D01*
X0003073024Y0003198813D01*
X0003059319Y0003198825D01*
X0003046653Y0003193591D01*
X0003036954Y0003183909D01*
X0003031698Y0003171252D01*
X0003031686Y0003157548D01*
X0002908412Y0003157548D01*
X0002910513Y0003168110D01*
X0002907141Y0003185060D01*
X0002897540Y0003199429D01*
X0002887393Y0003206209D01*
X0003310239Y0003206209D01*
X0003368503Y0003147944D01*
X0003426768Y0003206209D01*
X0003419120Y0003219352D01*
X0003384659Y0003232634D01*
X0003347738Y0003231717D01*
X0003317887Y0003219352D01*
X0003310239Y0003206209D01*
X0002887393Y0003206209D01*
X0002883171Y0003209030D01*
X0002866222Y0003212401D01*
X0002864486Y0003212401D01*
X0002847537Y0003209030D01*
X0002833167Y0003199429D01*
X0002823566Y0003185060D01*
X0002820195Y0003168110D01*
X0002444046Y0003168110D01*
X0002435675Y0003188369D01*
X0002411331Y0003212755D01*
X0002379508Y0003225969D01*
X0002345051Y0003225999D01*
X0002313205Y0003212841D01*
X0002288819Y0003188497D01*
X0002275605Y0003156674D01*
X0002275575Y0003122217D01*
X0002252315Y0003122217D01*
X0002252315Y0003208267D01*
X0002251080Y0003214833D01*
X0002247200Y0003220863D01*
X0002241279Y0003224908D01*
X0002234251Y0003226331D01*
X0002096456Y0003226331D01*
X0002089891Y0003225096D01*
X0002083861Y0003221216D01*
X0002079816Y0003215295D01*
X0002078393Y0003208267D01*
X0002078393Y0003070472D01*
X0002079628Y0003063907D01*
X0002083508Y0003057877D01*
X0002089428Y0003053832D01*
X0002096456Y0003052409D01*
X0002096769Y0003052409D01*
X0002049542Y0003005182D01*
X0002037031Y0002986457D01*
X0002032637Y0002964370D01*
X0002028543Y0002964370D01*
X0002028543Y0003352393D01*
X0002049113Y0003352393D01*
X0002066757Y0003309690D01*
X0002099400Y0003276991D01*
X0002142072Y0003259272D01*
X0002188276Y0003259232D01*
X0002230978Y0003276876D01*
X0002263678Y0003309519D01*
X0002281397Y0003352190D01*
X0002281437Y0003398394D01*
X0002263793Y0003441097D01*
X0002231150Y0003473796D01*
X0002188478Y0003491515D01*
X0002142274Y0003491555D01*
X0002099572Y0003473911D01*
X0002066872Y0003441268D01*
X0002049154Y0003398597D01*
X0002049113Y0003352393D01*
X0002028543Y0003352393D01*
X0002028543Y0003387728D01*
X0002039331Y0003441964D01*
X0002068900Y0003486217D01*
X0002113153Y0003515786D01*
X0002165354Y0003526170D01*
X0002217554Y0003515786D01*
G04 next file*
G04 #@! TF.FileFunction,Copper,L2,Bot,Signal*
G04 Gerber Fmt 4.6, Leading zero omitted, Abs format (unit mm)*
G04 Created by KiCad (PCBNEW 4.0.7) date 08/24/19 09:27:58*
G01*
G04 APERTURE LIST*
G04 APERTURE END LIST*
D88*
D89*
X-0004842519Y0006539369D02*
X0001771574Y0002981692D03*
X0000157401Y0003375393D03*
D90*
X0001257480Y0002540944D03*
X0001257480Y0002737794D03*
D91*
X0000857480Y0002739369D03*
D92*
X0000857480Y0002639369D03*
X0000857480Y0002539369D03*
D93*
X0000157480Y0003139369D03*
D94*
X0000354330Y0003139369D03*
D95*
X0001107480Y0003164369D03*
D96*
X0001058267Y0003164369D03*
D97*
X0001032480Y0002414369D03*
D98*
X0001032480Y0002814369D03*
D99*
X0001145275Y0002914369D03*
D100*
X0000869685Y0002914369D03*
D101*
X0000857480Y0003089369D03*
D102*
X0000857480Y0003168109D03*
D93*
X0001557480Y0003139369D03*
D94*
X0001360629Y0003139369D03*
D103*
X0000857480Y0002639369D02*
X0000782480Y0002639369D01*
X0000782480Y0002639369D02*
X0000732480Y0002689369D01*
X0000732480Y0002689369D02*
X0000732480Y0003014369D01*
X0000732480Y0003014369D02*
X0000682480Y0003064369D01*
X0000682480Y0003064369D02*
X0000429330Y0003064369D01*
X0000429330Y0003064369D02*
X0000354330Y0003139369D01*
X0001032480Y0002414369D02*
X0001130905Y0002414369D01*
X0001130905Y0002414369D02*
X0001257480Y0002540944D01*
X0001032480Y0002414369D02*
X0000982480Y0002414369D01*
X0000982480Y0002414369D02*
X0000132480Y0002414369D01*
X0000132480Y0002414369D02*
X0000082480Y0002464369D01*
X0000082480Y0002464369D02*
X0000082480Y0002964369D01*
X0000082480Y0002964369D02*
X0000157480Y0003039369D01*
X0000157480Y0003039369D02*
X0000157480Y0003139369D01*
X0001255905Y0002539369D02*
X0001257480Y0002540944D01*
X0001257480Y0002737794D02*
X0001355905Y0002737794D01*
X0001557480Y0002939369D02*
X0001557480Y0003139369D01*
X0001355905Y0002737794D02*
X0001557480Y0002939369D01*
X0000857480Y0002539369D02*
X0000907480Y0002539369D01*
X0001360629Y0002992519D02*
X0001360629Y0003139369D01*
X0000907480Y0002539369D02*
X0001360629Y0002992519D01*
D104*
G36*
X0000209680Y0003515786D02*
X0000253933Y0003486217D01*
X0000283503Y0003441963D01*
X0000294688Y0003385731D01*
X0000303679Y0003340532D01*
X0000303679Y0003340532D01*
X0000305222Y0003336806D01*
X0000306765Y0003333081D01*
X0000306765Y0003333081D01*
X0000332368Y0003294763D01*
X0000338071Y0003289060D01*
X0000376388Y0003263457D01*
X0000376388Y0003263457D01*
X0000380753Y0003261649D01*
X0000383839Y0003260371D01*
X0000383839Y0003260371D01*
X0000429038Y0003251381D01*
X0000431074Y0003251381D01*
X0000433070Y0003250983D01*
X0001808987Y0003250983D01*
X0001833091Y0003246189D01*
X0001851799Y0003233688D01*
X0001864299Y0003214980D01*
X0001869094Y0003190877D01*
X0001869094Y0003048395D01*
X0001837449Y0003080095D01*
X0001794778Y0003097814D01*
X0001748574Y0003097854D01*
X0001705871Y0003080210D01*
X0001673172Y0003047567D01*
X0001655453Y0003004895D01*
X0001655412Y0002958691D01*
X0001673057Y0002915989D01*
X0001705699Y0002883289D01*
X0001748371Y0002865570D01*
X0001794575Y0002865530D01*
X0001837277Y0002883174D01*
X0001869094Y0002914936D01*
X0001869094Y0002407547D01*
X0001864299Y0002383443D01*
X0001851799Y0002364735D01*
X0001833091Y0002352235D01*
X0001808987Y0002347440D01*
X0000080775Y0002347440D01*
X0000056672Y0002352235D01*
X0000037964Y0002364735D01*
X0000025463Y0002383443D01*
X0000020669Y0002407547D01*
X0000020669Y0002964369D01*
X0000024763Y0002964369D01*
X0000024763Y0002964369D01*
X0000024763Y0002464369D01*
X0000024763Y0002464369D01*
X0000029157Y0002442282D01*
X0000041668Y0002423557D01*
X0000091668Y0002373558D01*
X0000091668Y0002373557D01*
X0000106129Y0002363895D01*
X0000110393Y0002361046D01*
X0000132480Y0002356653D01*
X0000978880Y0002356653D01*
X0000982145Y0002354422D01*
X0000989173Y0002352998D01*
X0001075787Y0002352998D01*
X0001082352Y0002354234D01*
X0001086111Y0002356653D01*
X0001130905Y0002356653D01*
X0001130905Y0002356653D01*
X0001152992Y0002361046D01*
X0001171717Y0002373557D01*
X0001296717Y0002498557D01*
X0001296717Y0002498557D01*
X0001298292Y0002500132D01*
X0001300078Y0002502805D01*
X0001305847Y0002508565D01*
X0001309001Y0002516160D01*
X0001310803Y0002518857D01*
X0001311430Y0002522010D01*
X0001314556Y0002529539D01*
X0001314564Y0002537763D01*
X0001315196Y0002540944D01*
X0001314569Y0002544097D01*
X0001314576Y0002552249D01*
X0001311436Y0002559850D01*
X0001310803Y0002563031D01*
X0001309017Y0002565704D01*
X0001305904Y0002573239D01*
X0001300093Y0002579059D01*
X0001298292Y0002581756D01*
X0001295619Y0002583542D01*
X0001289859Y0002589311D01*
X0001282264Y0002592465D01*
X0001279567Y0002594267D01*
X0001276414Y0002594894D01*
X0001268885Y0002598021D01*
X0001260661Y0002598028D01*
X0001257480Y0002598661D01*
X0001254327Y0002598033D01*
X0001246174Y0002598040D01*
X0001238573Y0002594900D01*
X0001235393Y0002594267D01*
X0001232720Y0002592481D01*
X0001225185Y0002589368D01*
X0001219365Y0002583557D01*
X0001216668Y0002581756D01*
X0001215093Y0002580181D01*
X0001215093Y0002580181D01*
X0001106998Y0002472086D01*
X0001086080Y0002472086D01*
X0001082815Y0002474317D01*
X0001075787Y0002475740D01*
X0000989173Y0002475740D01*
X0000982607Y0002474505D01*
X0000978848Y0002472086D01*
X0000156387Y0002472086D01*
X0000140196Y0002488276D01*
X0000140196Y0002524142D01*
X0000800095Y0002524142D01*
X0000810291Y0002503341D01*
X0000827670Y0002488025D01*
X0000842252Y0002481985D01*
X0000851417Y0002486329D01*
X0000851417Y0002533306D01*
X0000863543Y0002533306D01*
X0000863543Y0002486329D01*
X0000872707Y0002481985D01*
X0000887289Y0002488025D01*
X0000904669Y0002503341D01*
X0000914864Y0002524142D01*
X0000910556Y0002533306D01*
X0000863543Y0002533306D01*
X0000851417Y0002533306D01*
X0000804404Y0002533306D01*
X0000800095Y0002524142D01*
X0000140196Y0002524142D01*
X0000140196Y0002940462D01*
X0000198291Y0002998557D01*
X0000198292Y0002998557D01*
X0000210803Y0003017282D01*
X0000212051Y0003023557D01*
X0000215196Y0003039369D01*
X0000215196Y0003039369D01*
X0000215196Y0003052408D01*
X0000226377Y0003052408D01*
X0000232943Y0003053643D01*
X0000238973Y0003057523D01*
X0000243018Y0003063444D01*
X0000244441Y0003070472D01*
X0000244441Y0003122216D01*
X0000267701Y0003122216D01*
X0000280859Y0003090370D01*
X0000305203Y0003065984D01*
X0000337026Y0003052770D01*
X0000359325Y0003052751D01*
X0000388518Y0003023558D01*
X0000388518Y0003023557D01*
X0000407243Y0003011046D01*
X0000410908Y0003010317D01*
X0000429330Y0003006653D01*
X0000429330Y0003006653D01*
X0000658573Y0003006653D01*
X0000674763Y0002990462D01*
X0000674763Y0002689369D01*
X0000674763Y0002689369D01*
X0000679157Y0002667282D01*
X0000691668Y0002648557D01*
X0000741668Y0002598558D01*
X0000741668Y0002598557D01*
X0000755421Y0002589368D01*
X0000760393Y0002586046D01*
X0000782480Y0002581653D01*
X0000817388Y0002581653D01*
X0000810291Y0002575398D01*
X0000800095Y0002554597D01*
X0000804404Y0002545432D01*
X0000851417Y0002545432D01*
X0000851417Y0002546220D01*
X0000863543Y0002546220D01*
X0000863543Y0002545432D01*
X0000910556Y0002545432D01*
X0000914864Y0002554597D01*
X0000904669Y0002575398D01*
X0000887289Y0002590714D01*
X0000886834Y0002590902D01*
X0000898292Y0002598557D01*
X0000910803Y0002617282D01*
X0000915196Y0002639369D01*
X0000910803Y0002661456D01*
X0000898292Y0002680181D01*
X0000889774Y0002685872D01*
X0000892913Y0002685872D01*
X0000899478Y0002687108D01*
X0000905508Y0002690988D01*
X0000909553Y0002696908D01*
X0000910976Y0002703936D01*
X0000910976Y0002737794D01*
X0001199763Y0002737794D01*
X0001200390Y0002734642D01*
X0001200383Y0002726489D01*
X0001203524Y0002718888D01*
X0001204157Y0002715707D01*
X0001205943Y0002713034D01*
X0001209056Y0002705500D01*
X0001214866Y0002699679D01*
X0001216668Y0002696983D01*
X0001219341Y0002695197D01*
X0001225101Y0002689427D01*
X0001232696Y0002686273D01*
X0001235393Y0002684471D01*
X0001238545Y0002683844D01*
X0001246075Y0002680718D01*
X0001254299Y0002680711D01*
X0001257480Y0002680078D01*
X0001355905Y0002680078D01*
X0001355905Y0002680078D01*
X0001377992Y0002684471D01*
X0001396717Y0002696983D01*
X0001598291Y0002898557D01*
X0001598292Y0002898557D01*
X0001610803Y0002917282D01*
X0001615196Y0002939369D01*
X0001615196Y0003052408D01*
X0001626377Y0003052408D01*
X0001632943Y0003053643D01*
X0001638973Y0003057523D01*
X0001643018Y0003063444D01*
X0001644441Y0003070472D01*
X0001644441Y0003208267D01*
X0001643206Y0003214832D01*
X0001639326Y0003220862D01*
X0001633405Y0003224907D01*
X0001626377Y0003226330D01*
X0001488582Y0003226330D01*
X0001482017Y0003225095D01*
X0001475987Y0003221215D01*
X0001471942Y0003215295D01*
X0001470519Y0003208267D01*
X0001470519Y0003070472D01*
X0001471754Y0003063906D01*
X0001475634Y0003057876D01*
X0001481554Y0003053831D01*
X0001488582Y0003052408D01*
X0001499763Y0003052408D01*
X0001499763Y0002963276D01*
X0001331998Y0002795511D01*
X0001257480Y0002795511D01*
X0001254327Y0002794884D01*
X0001246174Y0002794891D01*
X0001238573Y0002791750D01*
X0001235393Y0002791117D01*
X0001232720Y0002789332D01*
X0001225185Y0002786218D01*
X0001219365Y0002780408D01*
X0001216668Y0002778606D01*
X0001214882Y0002775933D01*
X0001209112Y0002770174D01*
X0001205958Y0002762578D01*
X0001204157Y0002759882D01*
X0001203530Y0002756729D01*
X0001200403Y0002749199D01*
X0001200396Y0002740975D01*
X0001199763Y0002737794D01*
X0000910976Y0002737794D01*
X0000910976Y0002774802D01*
X0000909741Y0002781368D01*
X0000905861Y0002787397D01*
X0000899941Y0002791443D01*
X0000892913Y0002792866D01*
X0000822047Y0002792866D01*
X0000815481Y0002791631D01*
X0000809451Y0002787750D01*
X0000805406Y0002781830D01*
X0000803983Y0002774802D01*
X0000803983Y0002703936D01*
X0000805014Y0002698459D01*
X0000790196Y0002713276D01*
X0000790196Y0002815565D01*
X0000971456Y0002815565D01*
X0000971456Y0002813174D01*
X0000976101Y0002789821D01*
X0000989330Y0002770023D01*
X0001009127Y0002756795D01*
X0001032480Y0002752150D01*
X0001055833Y0002756795D01*
X0001075630Y0002770023D01*
X0001088858Y0002789821D01*
X0001093503Y0002813174D01*
X0001093503Y0002815565D01*
X0001088858Y0002838917D01*
X0001075630Y0002858715D01*
X0001055833Y0002871943D01*
X0001032480Y0002876588D01*
X0001009127Y0002871943D01*
X0000989330Y0002858715D01*
X0000976101Y0002838917D01*
X0000971456Y0002815565D01*
X0000790196Y0002815565D01*
X0000790196Y0002914369D01*
X0000823522Y0002914369D01*
X0000826968Y0002897043D01*
X0000836783Y0002882355D01*
X0000851471Y0002872540D01*
X0000868797Y0002869094D01*
X0000870572Y0002869094D01*
X0000887898Y0002872540D01*
X0000895272Y0002877467D01*
X0001116948Y0002877467D01*
X0001119525Y0002868612D01*
X0001138995Y0002862241D01*
X0001159422Y0002863806D01*
X0001171025Y0002868612D01*
X0001173602Y0002877467D01*
X0001145275Y0002905795D01*
X0001116948Y0002877467D01*
X0000895272Y0002877467D01*
X0000902586Y0002882355D01*
X0000912401Y0002897043D01*
X0000915847Y0002914369D01*
X0000914598Y0002920649D01*
X0001093147Y0002920649D01*
X0001094712Y0002900222D01*
X0001099518Y0002888619D01*
X0001108373Y0002886042D01*
X0001136701Y0002914369D01*
X0001153849Y0002914369D01*
X0001182177Y0002886042D01*
X0001191032Y0002888619D01*
X0001197403Y0002908090D01*
X0001195838Y0002928516D01*
X0001191032Y0002940119D01*
X0001182177Y0002942697D01*
X0001153849Y0002914369D01*
X0001136701Y0002914369D01*
X0001108373Y0002942697D01*
X0001099518Y0002940119D01*
X0001093147Y0002920649D01*
X0000914598Y0002920649D01*
X0000912401Y0002931695D01*
X0000902586Y0002946384D01*
X0000895272Y0002951271D01*
X0001116948Y0002951271D01*
X0001145275Y0002922944D01*
X0001173602Y0002951271D01*
X0001171025Y0002960126D01*
X0001151555Y0002966497D01*
X0001131128Y0002964932D01*
X0001119525Y0002960126D01*
X0001116948Y0002951271D01*
X0000895272Y0002951271D01*
X0000887898Y0002956198D01*
X0000870572Y0002959645D01*
X0000868797Y0002959645D01*
X0000851471Y0002956198D01*
X0000836783Y0002946384D01*
X0000826968Y0002931695D01*
X0000823522Y0002914369D01*
X0000790196Y0002914369D01*
X0000790196Y0003014369D01*
X0000785803Y0003036456D01*
X0000773292Y0003055181D01*
X0000773291Y0003055181D01*
X0000723292Y0003105181D01*
X0000704567Y0003117692D01*
X0000682480Y0003122086D01*
X0000682480Y0003122086D01*
X0000453237Y0003122086D01*
X0000440940Y0003134383D01*
X0000440959Y0003156522D01*
X0000436172Y0003168109D01*
X0000812321Y0003168109D01*
X0000815692Y0003151160D01*
X0000825293Y0003136791D01*
X0000829776Y0003133795D01*
X0000824340Y0003132772D01*
X0000818310Y0003128892D01*
X0000814265Y0003122972D01*
X0000812841Y0003115944D01*
X0000812841Y0003062794D01*
X0000814077Y0003056229D01*
X0000817957Y0003050199D01*
X0000823877Y0003046154D01*
X0000830905Y0003044731D01*
X0000884055Y0003044731D01*
X0000890620Y0003045966D01*
X0000896650Y0003049846D01*
X0000900695Y0003055767D01*
X0000902118Y0003062794D01*
X0000902118Y0003072530D01*
X0001302365Y0003072530D01*
X0001310013Y0003059387D01*
X0001344474Y0003046105D01*
X0001381394Y0003047022D01*
X0001411246Y0003059387D01*
X0001418894Y0003072530D01*
X0001360629Y0003130795D01*
X0001302365Y0003072530D01*
X0000902118Y0003072530D01*
X0000902118Y0003115944D01*
X0000900883Y0003122509D01*
X0000897003Y0003128539D01*
X0000891082Y0003132584D01*
X0000885165Y0003133783D01*
X0000889666Y0003136791D01*
X0000899267Y0003151160D01*
X0000900538Y0003157547D01*
X0001023812Y0003157547D01*
X0001029046Y0003144881D01*
X0001038728Y0003135182D01*
X0001051385Y0003129926D01*
X0001065089Y0003129914D01*
X0001077736Y0003135140D01*
X0001077799Y0003135042D01*
X0001083720Y0003130996D01*
X0001090748Y0003129573D01*
X0001124212Y0003129573D01*
X0001130777Y0003130809D01*
X0001136807Y0003134689D01*
X0001140853Y0003140609D01*
X0001142276Y0003147637D01*
X0001142276Y0003155525D01*
X0001267365Y0003155525D01*
X0001268282Y0003118604D01*
X0001280647Y0003088753D01*
X0001293790Y0003081105D01*
X0001352055Y0003139369D01*
X0001369204Y0003139369D01*
X0001427468Y0003081105D01*
X0001440612Y0003088753D01*
X0001453894Y0003123214D01*
X0001452977Y0003160134D01*
X0001440612Y0003189986D01*
X0001427468Y0003197634D01*
X0001369204Y0003139369D01*
X0001352055Y0003139369D01*
X0001293790Y0003197634D01*
X0001280647Y0003189986D01*
X0001267365Y0003155525D01*
X0001142276Y0003155525D01*
X0001142276Y0003181101D01*
X0001141040Y0003187667D01*
X0001137160Y0003193697D01*
X0001131240Y0003197742D01*
X0001124212Y0003199165D01*
X0001090748Y0003199165D01*
X0001084182Y0003197930D01*
X0001078152Y0003194050D01*
X0001077812Y0003193551D01*
X0001077806Y0003193556D01*
X0001065150Y0003198812D01*
X0001051445Y0003198824D01*
X0001038779Y0003193590D01*
X0001029080Y0003183908D01*
X0001023824Y0003171252D01*
X0001023812Y0003157547D01*
X0000900538Y0003157547D01*
X0000902639Y0003168109D01*
X0000899267Y0003185059D01*
X0000889666Y0003199428D01*
X0000879519Y0003206208D01*
X0001302365Y0003206208D01*
X0001360629Y0003147944D01*
X0001418894Y0003206208D01*
X0001411246Y0003219352D01*
X0001376785Y0003232634D01*
X0001339864Y0003231717D01*
X0001310013Y0003219352D01*
X0001302365Y0003206208D01*
X0000879519Y0003206208D01*
X0000875297Y0003209029D01*
X0000858348Y0003212401D01*
X0000856612Y0003212401D01*
X0000839662Y0003209029D01*
X0000825293Y0003199428D01*
X0000815692Y0003185059D01*
X0000812321Y0003168109D01*
X0000436172Y0003168109D01*
X0000427801Y0003188368D01*
X0000403457Y0003212754D01*
X0000371634Y0003225968D01*
X0000337177Y0003225998D01*
X0000305331Y0003212840D01*
X0000280945Y0003188496D01*
X0000267731Y0003156673D01*
X0000267701Y0003122216D01*
X0000244441Y0003122216D01*
X0000244441Y0003208267D01*
X0000243206Y0003214832D01*
X0000239326Y0003220862D01*
X0000233405Y0003224907D01*
X0000226377Y0003226330D01*
X0000088582Y0003226330D01*
X0000082017Y0003225095D01*
X0000075987Y0003221215D01*
X0000071942Y0003215295D01*
X0000070519Y0003208267D01*
X0000070519Y0003070472D01*
X0000071754Y0003063906D01*
X0000075634Y0003057876D01*
X0000081554Y0003053831D01*
X0000088582Y0003052408D01*
X0000088895Y0003052408D01*
X0000041668Y0003005181D01*
X0000029157Y0002986456D01*
X0000024763Y0002964369D01*
X0000020669Y0002964369D01*
X0000020669Y0003352392D01*
X0000041239Y0003352392D01*
X0000058883Y0003309690D01*
X0000091526Y0003276990D01*
X0000134198Y0003259271D01*
X0000180402Y0003259231D01*
X0000223104Y0003276875D01*
X0000255804Y0003309518D01*
X0000273523Y0003352189D01*
X0000273563Y0003398393D01*
X0000255919Y0003441096D01*
X0000223276Y0003473796D01*
X0000180604Y0003491514D01*
X0000134400Y0003491555D01*
X0000091698Y0003473910D01*
X0000058998Y0003441268D01*
X0000041280Y0003398596D01*
X0000041239Y0003352392D01*
X0000020669Y0003352392D01*
X0000020669Y0003387727D01*
X0000031457Y0003441963D01*
X0000061026Y0003486217D01*
X0000105279Y0003515786D01*
X0000157480Y0003526169D01*
X0000209680Y0003515786D01*
X0000209680Y0003515786D01*
G37*
X0000209680Y0003515786D02*
X0000253933Y0003486217D01*
X0000283503Y0003441963D01*
X0000294688Y0003385731D01*
X0000303679Y0003340532D01*
X0000303679Y0003340532D01*
X0000305222Y0003336806D01*
X0000306765Y0003333081D01*
X0000306765Y0003333081D01*
X0000332368Y0003294763D01*
X0000338071Y0003289060D01*
X0000376388Y0003263457D01*
X0000376388Y0003263457D01*
X0000380753Y0003261649D01*
X0000383839Y0003260371D01*
X0000383839Y0003260371D01*
X0000429038Y0003251381D01*
X0000431074Y0003251381D01*
X0000433070Y0003250983D01*
X0001808987Y0003250983D01*
X0001833091Y0003246189D01*
X0001851799Y0003233688D01*
X0001864299Y0003214980D01*
X0001869094Y0003190877D01*
X0001869094Y0003048395D01*
X0001837449Y0003080095D01*
X0001794778Y0003097814D01*
X0001748574Y0003097854D01*
X0001705871Y0003080210D01*
X0001673172Y0003047567D01*
X0001655453Y0003004895D01*
X0001655412Y0002958691D01*
X0001673057Y0002915989D01*
X0001705699Y0002883289D01*
X0001748371Y0002865570D01*
X0001794575Y0002865530D01*
X0001837277Y0002883174D01*
X0001869094Y0002914936D01*
X0001869094Y0002407547D01*
X0001864299Y0002383443D01*
X0001851799Y0002364735D01*
X0001833091Y0002352235D01*
X0001808987Y0002347440D01*
X0000080775Y0002347440D01*
X0000056672Y0002352235D01*
X0000037964Y0002364735D01*
X0000025463Y0002383443D01*
X0000020669Y0002407547D01*
X0000020669Y0002964369D01*
X0000024763Y0002964369D01*
X0000024763Y0002964369D01*
X0000024763Y0002464369D01*
X0000024763Y0002464369D01*
X0000029157Y0002442282D01*
X0000041668Y0002423557D01*
X0000091668Y0002373558D01*
X0000091668Y0002373557D01*
X0000106129Y0002363895D01*
X0000110393Y0002361046D01*
X0000132480Y0002356653D01*
X0000978880Y0002356653D01*
X0000982145Y0002354422D01*
X0000989173Y0002352998D01*
X0001075787Y0002352998D01*
X0001082352Y0002354234D01*
X0001086111Y0002356653D01*
X0001130905Y0002356653D01*
X0001130905Y0002356653D01*
X0001152992Y0002361046D01*
X0001171717Y0002373557D01*
X0001296717Y0002498557D01*
X0001296717Y0002498557D01*
X0001298292Y0002500132D01*
X0001300078Y0002502805D01*
X0001305847Y0002508565D01*
X0001309001Y0002516160D01*
X0001310803Y0002518857D01*
X0001311430Y0002522010D01*
X0001314556Y0002529539D01*
X0001314564Y0002537763D01*
X0001315196Y0002540944D01*
X0001314569Y0002544097D01*
X0001314576Y0002552249D01*
X0001311436Y0002559850D01*
X0001310803Y0002563031D01*
X0001309017Y0002565704D01*
X0001305904Y0002573239D01*
X0001300093Y0002579059D01*
X0001298292Y0002581756D01*
X0001295619Y0002583542D01*
X0001289859Y0002589311D01*
X0001282264Y0002592465D01*
X0001279567Y0002594267D01*
X0001276414Y0002594894D01*
X0001268885Y0002598021D01*
X0001260661Y0002598028D01*
X0001257480Y0002598661D01*
X0001254327Y0002598033D01*
X0001246174Y0002598040D01*
X0001238573Y0002594900D01*
X0001235393Y0002594267D01*
X0001232720Y0002592481D01*
X0001225185Y0002589368D01*
X0001219365Y0002583557D01*
X0001216668Y0002581756D01*
X0001215093Y0002580181D01*
X0001215093Y0002580181D01*
X0001106998Y0002472086D01*
X0001086080Y0002472086D01*
X0001082815Y0002474317D01*
X0001075787Y0002475740D01*
X0000989173Y0002475740D01*
X0000982607Y0002474505D01*
X0000978848Y0002472086D01*
X0000156387Y0002472086D01*
X0000140196Y0002488276D01*
X0000140196Y0002524142D01*
X0000800095Y0002524142D01*
X0000810291Y0002503341D01*
X0000827670Y0002488025D01*
X0000842252Y0002481985D01*
X0000851417Y0002486329D01*
X0000851417Y0002533306D01*
X0000863543Y0002533306D01*
X0000863543Y0002486329D01*
X0000872707Y0002481985D01*
X0000887289Y0002488025D01*
X0000904669Y0002503341D01*
X0000914864Y0002524142D01*
X0000910556Y0002533306D01*
X0000863543Y0002533306D01*
X0000851417Y0002533306D01*
X0000804404Y0002533306D01*
X0000800095Y0002524142D01*
X0000140196Y0002524142D01*
X0000140196Y0002940462D01*
X0000198291Y0002998557D01*
X0000198292Y0002998557D01*
X0000210803Y0003017282D01*
X0000212051Y0003023557D01*
X0000215196Y0003039369D01*
X0000215196Y0003039369D01*
X0000215196Y0003052408D01*
X0000226377Y0003052408D01*
X0000232943Y0003053643D01*
X0000238973Y0003057523D01*
X0000243018Y0003063444D01*
X0000244441Y0003070472D01*
X0000244441Y0003122216D01*
X0000267701Y0003122216D01*
X0000280859Y0003090370D01*
X0000305203Y0003065984D01*
X0000337026Y0003052770D01*
X0000359325Y0003052751D01*
X0000388518Y0003023558D01*
X0000388518Y0003023557D01*
X0000407243Y0003011046D01*
X0000410908Y0003010317D01*
X0000429330Y0003006653D01*
X0000429330Y0003006653D01*
X0000658573Y0003006653D01*
X0000674763Y0002990462D01*
X0000674763Y0002689369D01*
X0000674763Y0002689369D01*
X0000679157Y0002667282D01*
X0000691668Y0002648557D01*
X0000741668Y0002598558D01*
X0000741668Y0002598557D01*
X0000755421Y0002589368D01*
X0000760393Y0002586046D01*
X0000782480Y0002581653D01*
X0000817388Y0002581653D01*
X0000810291Y0002575398D01*
X0000800095Y0002554597D01*
X0000804404Y0002545432D01*
X0000851417Y0002545432D01*
X0000851417Y0002546220D01*
X0000863543Y0002546220D01*
X0000863543Y0002545432D01*
X0000910556Y0002545432D01*
X0000914864Y0002554597D01*
X0000904669Y0002575398D01*
X0000887289Y0002590714D01*
X0000886834Y0002590902D01*
X0000898292Y0002598557D01*
X0000910803Y0002617282D01*
X0000915196Y0002639369D01*
X0000910803Y0002661456D01*
X0000898292Y0002680181D01*
X0000889774Y0002685872D01*
X0000892913Y0002685872D01*
X0000899478Y0002687108D01*
X0000905508Y0002690988D01*
X0000909553Y0002696908D01*
X0000910976Y0002703936D01*
X0000910976Y0002737794D01*
X0001199763Y0002737794D01*
X0001200390Y0002734642D01*
X0001200383Y0002726489D01*
X0001203524Y0002718888D01*
X0001204157Y0002715707D01*
X0001205943Y0002713034D01*
X0001209056Y0002705500D01*
X0001214866Y0002699679D01*
X0001216668Y0002696983D01*
X0001219341Y0002695197D01*
X0001225101Y0002689427D01*
X0001232696Y0002686273D01*
X0001235393Y0002684471D01*
X0001238545Y0002683844D01*
X0001246075Y0002680718D01*
X0001254299Y0002680711D01*
X0001257480Y0002680078D01*
X0001355905Y0002680078D01*
X0001355905Y0002680078D01*
X0001377992Y0002684471D01*
X0001396717Y0002696983D01*
X0001598291Y0002898557D01*
X0001598292Y0002898557D01*
X0001610803Y0002917282D01*
X0001615196Y0002939369D01*
X0001615196Y0003052408D01*
X0001626377Y0003052408D01*
X0001632943Y0003053643D01*
X0001638973Y0003057523D01*
X0001643018Y0003063444D01*
X0001644441Y0003070472D01*
X0001644441Y0003208267D01*
X0001643206Y0003214832D01*
X0001639326Y0003220862D01*
X0001633405Y0003224907D01*
X0001626377Y0003226330D01*
X0001488582Y0003226330D01*
X0001482017Y0003225095D01*
X0001475987Y0003221215D01*
X0001471942Y0003215295D01*
X0001470519Y0003208267D01*
X0001470519Y0003070472D01*
X0001471754Y0003063906D01*
X0001475634Y0003057876D01*
X0001481554Y0003053831D01*
X0001488582Y0003052408D01*
X0001499763Y0003052408D01*
X0001499763Y0002963276D01*
X0001331998Y0002795511D01*
X0001257480Y0002795511D01*
X0001254327Y0002794884D01*
X0001246174Y0002794891D01*
X0001238573Y0002791750D01*
X0001235393Y0002791117D01*
X0001232720Y0002789332D01*
X0001225185Y0002786218D01*
X0001219365Y0002780408D01*
X0001216668Y0002778606D01*
X0001214882Y0002775933D01*
X0001209112Y0002770174D01*
X0001205958Y0002762578D01*
X0001204157Y0002759882D01*
X0001203530Y0002756729D01*
X0001200403Y0002749199D01*
X0001200396Y0002740975D01*
X0001199763Y0002737794D01*
X0000910976Y0002737794D01*
X0000910976Y0002774802D01*
X0000909741Y0002781368D01*
X0000905861Y0002787397D01*
X0000899941Y0002791443D01*
X0000892913Y0002792866D01*
X0000822047Y0002792866D01*
X0000815481Y0002791631D01*
X0000809451Y0002787750D01*
X0000805406Y0002781830D01*
X0000803983Y0002774802D01*
X0000803983Y0002703936D01*
X0000805014Y0002698459D01*
X0000790196Y0002713276D01*
X0000790196Y0002815565D01*
X0000971456Y0002815565D01*
X0000971456Y0002813174D01*
X0000976101Y0002789821D01*
X0000989330Y0002770023D01*
X0001009127Y0002756795D01*
X0001032480Y0002752150D01*
X0001055833Y0002756795D01*
X0001075630Y0002770023D01*
X0001088858Y0002789821D01*
X0001093503Y0002813174D01*
X0001093503Y0002815565D01*
X0001088858Y0002838917D01*
X0001075630Y0002858715D01*
X0001055833Y0002871943D01*
X0001032480Y0002876588D01*
X0001009127Y0002871943D01*
X0000989330Y0002858715D01*
X0000976101Y0002838917D01*
X0000971456Y0002815565D01*
X0000790196Y0002815565D01*
X0000790196Y0002914369D01*
X0000823522Y0002914369D01*
X0000826968Y0002897043D01*
X0000836783Y0002882355D01*
X0000851471Y0002872540D01*
X0000868797Y0002869094D01*
X0000870572Y0002869094D01*
X0000887898Y0002872540D01*
X0000895272Y0002877467D01*
X0001116948Y0002877467D01*
X0001119525Y0002868612D01*
X0001138995Y0002862241D01*
X0001159422Y0002863806D01*
X0001171025Y0002868612D01*
X0001173602Y0002877467D01*
X0001145275Y0002905795D01*
X0001116948Y0002877467D01*
X0000895272Y0002877467D01*
X0000902586Y0002882355D01*
X0000912401Y0002897043D01*
X0000915847Y0002914369D01*
X0000914598Y0002920649D01*
X0001093147Y0002920649D01*
X0001094712Y0002900222D01*
X0001099518Y0002888619D01*
X0001108373Y0002886042D01*
X0001136701Y0002914369D01*
X0001153849Y0002914369D01*
X0001182177Y0002886042D01*
X0001191032Y0002888619D01*
X0001197403Y0002908090D01*
X0001195838Y0002928516D01*
X0001191032Y0002940119D01*
X0001182177Y0002942697D01*
X0001153849Y0002914369D01*
X0001136701Y0002914369D01*
X0001108373Y0002942697D01*
X0001099518Y0002940119D01*
X0001093147Y0002920649D01*
X0000914598Y0002920649D01*
X0000912401Y0002931695D01*
X0000902586Y0002946384D01*
X0000895272Y0002951271D01*
X0001116948Y0002951271D01*
X0001145275Y0002922944D01*
X0001173602Y0002951271D01*
X0001171025Y0002960126D01*
X0001151555Y0002966497D01*
X0001131128Y0002964932D01*
X0001119525Y0002960126D01*
X0001116948Y0002951271D01*
X0000895272Y0002951271D01*
X0000887898Y0002956198D01*
X0000870572Y0002959645D01*
X0000868797Y0002959645D01*
X0000851471Y0002956198D01*
X0000836783Y0002946384D01*
X0000826968Y0002931695D01*
X0000823522Y0002914369D01*
X0000790196Y0002914369D01*
X0000790196Y0003014369D01*
X0000785803Y0003036456D01*
X0000773292Y0003055181D01*
X0000773291Y0003055181D01*
X0000723292Y0003105181D01*
X0000704567Y0003117692D01*
X0000682480Y0003122086D01*
X0000682480Y0003122086D01*
X0000453237Y0003122086D01*
X0000440940Y0003134383D01*
X0000440959Y0003156522D01*
X0000436172Y0003168109D01*
X0000812321Y0003168109D01*
X0000815692Y0003151160D01*
X0000825293Y0003136791D01*
X0000829776Y0003133795D01*
X0000824340Y0003132772D01*
X0000818310Y0003128892D01*
X0000814265Y0003122972D01*
X0000812841Y0003115944D01*
X0000812841Y0003062794D01*
X0000814077Y0003056229D01*
X0000817957Y0003050199D01*
X0000823877Y0003046154D01*
X0000830905Y0003044731D01*
X0000884055Y0003044731D01*
X0000890620Y0003045966D01*
X0000896650Y0003049846D01*
X0000900695Y0003055767D01*
X0000902118Y0003062794D01*
X0000902118Y0003072530D01*
X0001302365Y0003072530D01*
X0001310013Y0003059387D01*
X0001344474Y0003046105D01*
X0001381394Y0003047022D01*
X0001411246Y0003059387D01*
X0001418894Y0003072530D01*
X0001360629Y0003130795D01*
X0001302365Y0003072530D01*
X0000902118Y0003072530D01*
X0000902118Y0003115944D01*
X0000900883Y0003122509D01*
X0000897003Y0003128539D01*
X0000891082Y0003132584D01*
X0000885165Y0003133783D01*
X0000889666Y0003136791D01*
X0000899267Y0003151160D01*
X0000900538Y0003157547D01*
X0001023812Y0003157547D01*
X0001029046Y0003144881D01*
X0001038728Y0003135182D01*
X0001051385Y0003129926D01*
X0001065089Y0003129914D01*
X0001077736Y0003135140D01*
X0001077799Y0003135042D01*
X0001083720Y0003130996D01*
X0001090748Y0003129573D01*
X0001124212Y0003129573D01*
X0001130777Y0003130809D01*
X0001136807Y0003134689D01*
X0001140853Y0003140609D01*
X0001142276Y0003147637D01*
X0001142276Y0003155525D01*
X0001267365Y0003155525D01*
X0001268282Y0003118604D01*
X0001280647Y0003088753D01*
X0001293790Y0003081105D01*
X0001352055Y0003139369D01*
X0001369204Y0003139369D01*
X0001427468Y0003081105D01*
X0001440612Y0003088753D01*
X0001453894Y0003123214D01*
X0001452977Y0003160134D01*
X0001440612Y0003189986D01*
X0001427468Y0003197634D01*
X0001369204Y0003139369D01*
X0001352055Y0003139369D01*
X0001293790Y0003197634D01*
X0001280647Y0003189986D01*
X0001267365Y0003155525D01*
X0001142276Y0003155525D01*
X0001142276Y0003181101D01*
X0001141040Y0003187667D01*
X0001137160Y0003193697D01*
X0001131240Y0003197742D01*
X0001124212Y0003199165D01*
X0001090748Y0003199165D01*
X0001084182Y0003197930D01*
X0001078152Y0003194050D01*
X0001077812Y0003193551D01*
X0001077806Y0003193556D01*
X0001065150Y0003198812D01*
X0001051445Y0003198824D01*
X0001038779Y0003193590D01*
X0001029080Y0003183908D01*
X0001023824Y0003171252D01*
X0001023812Y0003157547D01*
X0000900538Y0003157547D01*
X0000902639Y0003168109D01*
X0000899267Y0003185059D01*
X0000889666Y0003199428D01*
X0000879519Y0003206208D01*
X0001302365Y0003206208D01*
X0001360629Y0003147944D01*
X0001418894Y0003206208D01*
X0001411246Y0003219352D01*
X0001376785Y0003232634D01*
X0001339864Y0003231717D01*
X0001310013Y0003219352D01*
X0001302365Y0003206208D01*
X0000879519Y0003206208D01*
X0000875297Y0003209029D01*
X0000858348Y0003212401D01*
X0000856612Y0003212401D01*
X0000839662Y0003209029D01*
X0000825293Y0003199428D01*
X0000815692Y0003185059D01*
X0000812321Y0003168109D01*
X0000436172Y0003168109D01*
X0000427801Y0003188368D01*
X0000403457Y0003212754D01*
X0000371634Y0003225968D01*
X0000337177Y0003225998D01*
X0000305331Y0003212840D01*
X0000280945Y0003188496D01*
X0000267731Y0003156673D01*
X0000267701Y0003122216D01*
X0000244441Y0003122216D01*
X0000244441Y0003208267D01*
X0000243206Y0003214832D01*
X0000239326Y0003220862D01*
X0000233405Y0003224907D01*
X0000226377Y0003226330D01*
X0000088582Y0003226330D01*
X0000082017Y0003225095D01*
X0000075987Y0003221215D01*
X0000071942Y0003215295D01*
X0000070519Y0003208267D01*
X0000070519Y0003070472D01*
X0000071754Y0003063906D01*
X0000075634Y0003057876D01*
X0000081554Y0003053831D01*
X0000088582Y0003052408D01*
X0000088895Y0003052408D01*
X0000041668Y0003005181D01*
X0000029157Y0002986456D01*
X0000024763Y0002964369D01*
X0000020669Y0002964369D01*
X0000020669Y0003352392D01*
X0000041239Y0003352392D01*
X0000058883Y0003309690D01*
X0000091526Y0003276990D01*
X0000134198Y0003259271D01*
X0000180402Y0003259231D01*
X0000223104Y0003276875D01*
X0000255804Y0003309518D01*
X0000273523Y0003352189D01*
X0000273563Y0003398393D01*
X0000255919Y0003441096D01*
X0000223276Y0003473796D01*
X0000180604Y0003491514D01*
X0000134400Y0003491555D01*
X0000091698Y0003473910D01*
X0000058998Y0003441268D01*
X0000041280Y0003398596D01*
X0000041239Y0003352392D01*
X0000020669Y0003352392D01*
X0000020669Y0003387727D01*
X0000031457Y0003441963D01*
X0000061026Y0003486217D01*
X0000105279Y0003515786D01*
X0000157480Y0003526169D01*
X0000209680Y0003515786D01*
G04 next file*
G04 #@! TF.FileFunction,Copper,L2,Bot,Signal*
G04 Gerber Fmt 4.6, Leading zero omitted, Abs format (unit mm)*
G04 Created by KiCad (PCBNEW 4.0.7) date 08/24/19 09:27:58*
G01*
G04 APERTURE LIST*
G04 APERTURE END LIST*
D105*
D106*
X0006732283Y-0001968503D02*
X0000118188Y0001589173D03*
X0001732362Y0001195472D03*
D107*
X0000632283Y0002029921D03*
X0000632283Y0001833070D03*
D108*
X0001032283Y0001831496D03*
D109*
X0001032283Y0001931496D03*
X0001032283Y0002031496D03*
D110*
X0001732283Y0001431496D03*
D111*
X0001535433Y0001431496D03*
D112*
X0000782283Y0001406496D03*
D113*
X0000831496Y0001406496D03*
D114*
X0000857283Y0002156496D03*
D115*
X0000857283Y0001756496D03*
D116*
X0000744488Y0001656496D03*
D117*
X0001020078Y0001656496D03*
D118*
X0001032283Y0001481496D03*
D119*
X0001032283Y0001402755D03*
D110*
X0000332283Y0001431496D03*
D111*
X0000529133Y0001431496D03*
D120*
X0001032283Y0001931496D02*
X0001107283Y0001931496D01*
X0001107283Y0001931496D02*
X0001157283Y0001881496D01*
X0001157283Y0001881496D02*
X0001157283Y0001556496D01*
X0001157283Y0001556496D02*
X0001207283Y0001506496D01*
X0001207283Y0001506496D02*
X0001460433Y0001506496D01*
X0001460433Y0001506496D02*
X0001535433Y0001431496D01*
X0000857283Y0002156496D02*
X0000758858Y0002156496D01*
X0000758858Y0002156496D02*
X0000632283Y0002029921D01*
X0000857283Y0002156496D02*
X0000907283Y0002156496D01*
X0000907283Y0002156496D02*
X0001757283Y0002156496D01*
X0001757283Y0002156496D02*
X0001807283Y0002106496D01*
X0001807283Y0002106496D02*
X0001807283Y0001606496D01*
X0001807283Y0001606496D02*
X0001732283Y0001531496D01*
X0001732283Y0001531496D02*
X0001732283Y0001431496D01*
X0000633858Y0002031496D02*
X0000632283Y0002029921D01*
X0000632283Y0001833070D02*
X0000533858Y0001833070D01*
X0000332283Y0001631496D02*
X0000332283Y0001431496D01*
X0000533858Y0001833070D02*
X0000332283Y0001631496D01*
X0001032283Y0002031496D02*
X0000982283Y0002031496D01*
X0000529133Y0001578346D02*
X0000529133Y0001431496D01*
X0000982283Y0002031496D02*
X0000529133Y0001578346D01*
D121*
G36*
X0001680083Y0001055079D02*
X0001635829Y0001084648D01*
X0001606260Y0001128902D01*
X0001595075Y0001185134D01*
X0001586084Y0001230333D01*
X0001586084Y0001230333D01*
X0001584541Y0001234059D01*
X0001582998Y0001237784D01*
X0001582998Y0001237784D01*
X0001557395Y0001276102D01*
X0001551692Y0001281804D01*
X0001513375Y0001307407D01*
X0001513374Y0001307407D01*
X0001509010Y0001309215D01*
X0001505924Y0001310494D01*
X0001505924Y0001310494D01*
X0001460725Y0001319484D01*
X0001458689Y0001319484D01*
X0001456692Y0001319881D01*
X0000080775Y0001319881D01*
X0000056672Y0001324676D01*
X0000037964Y0001337176D01*
X0000025463Y0001355885D01*
X0000020669Y0001379988D01*
X0000020669Y0001522470D01*
X0000052314Y0001490770D01*
X0000094985Y0001473051D01*
X0000141189Y0001473011D01*
X0000183892Y0001490655D01*
X0000216591Y0001523298D01*
X0000234310Y0001565969D01*
X0000234350Y0001612173D01*
X0000216706Y0001654876D01*
X0000184063Y0001687575D01*
X0000141392Y0001705294D01*
X0000095188Y0001705335D01*
X0000052485Y0001687690D01*
X0000020669Y0001655929D01*
X0000020669Y0002163318D01*
X0000025463Y0002187422D01*
X0000037964Y0002206130D01*
X0000056672Y0002218630D01*
X0000080775Y0002223425D01*
X0001808987Y0002223425D01*
X0001833091Y0002218630D01*
X0001851799Y0002206130D01*
X0001864300Y0002187422D01*
X0001869094Y0002163318D01*
X0001869094Y0001606496D01*
X0001865000Y0001606496D01*
X0001865000Y0001606496D01*
X0001865000Y0002106495D01*
X0001865000Y0002106496D01*
X0001860606Y0002128583D01*
X0001848095Y0002147307D01*
X0001798095Y0002197307D01*
X0001798095Y0002197307D01*
X0001783634Y0002206970D01*
X0001779370Y0002209819D01*
X0001757283Y0002214212D01*
X0000910883Y0002214212D01*
X0000907618Y0002216443D01*
X0000900590Y0002217866D01*
X0000813976Y0002217866D01*
X0000807411Y0002216631D01*
X0000803652Y0002214212D01*
X0000758858Y0002214212D01*
X0000758858Y0002214212D01*
X0000736771Y0002209819D01*
X0000718046Y0002197307D01*
X0000593046Y0002072307D01*
X0000593046Y0002072307D01*
X0000591471Y0002070732D01*
X0000589685Y0002068060D01*
X0000583916Y0002062300D01*
X0000580762Y0002054704D01*
X0000578960Y0002052008D01*
X0000578333Y0002048855D01*
X0000575206Y0002041326D01*
X0000575199Y0002033102D01*
X0000574566Y0002029921D01*
X0000575194Y0002026768D01*
X0000575186Y0002018615D01*
X0000578327Y0002011014D01*
X0000578960Y0002007834D01*
X0000580746Y0002005161D01*
X0000583859Y0001997626D01*
X0000589669Y0001991806D01*
X0000591471Y0001989109D01*
X0000594144Y0001987323D01*
X0000599904Y0001981553D01*
X0000607499Y0001978399D01*
X0000610196Y0001976598D01*
X0000613349Y0001975970D01*
X0000620878Y0001972844D01*
X0000629102Y0001972837D01*
X0000632283Y0001972204D01*
X0000635436Y0001972831D01*
X0000643588Y0001972824D01*
X0000651189Y0001975965D01*
X0000654370Y0001976598D01*
X0000657043Y0001978384D01*
X0000664578Y0001981497D01*
X0000670398Y0001987307D01*
X0000673095Y0001989109D01*
X0000674670Y0001990684D01*
X0000674670Y0001990684D01*
X0000782765Y0002098779D01*
X0000803683Y0002098779D01*
X0000806948Y0002096548D01*
X0000813976Y0002095125D01*
X0000900590Y0002095125D01*
X0000907155Y0002096360D01*
X0000910914Y0002098779D01*
X0001733376Y0002098779D01*
X0001749566Y0002082589D01*
X0001749566Y0002046723D01*
X0001089668Y0002046723D01*
X0001079472Y0002067524D01*
X0001062093Y0002082840D01*
X0001047510Y0002088880D01*
X0001038346Y0002084536D01*
X0001038346Y0002037559D01*
X0001026220Y0002037559D01*
X0001026220Y0002084536D01*
X0001017056Y0002088880D01*
X0001002473Y0002082840D01*
X0000985094Y0002067524D01*
X0000974898Y0002046723D01*
X0000979207Y0002037559D01*
X0001026220Y0002037559D01*
X0001038346Y0002037559D01*
X0001085359Y0002037559D01*
X0001089668Y0002046723D01*
X0001749566Y0002046723D01*
X0001749566Y0001630403D01*
X0001691471Y0001572307D01*
X0001691471Y0001572307D01*
X0001678960Y0001553583D01*
X0001677712Y0001547307D01*
X0001674566Y0001531496D01*
X0001674566Y0001531495D01*
X0001674566Y0001518457D01*
X0001663385Y0001518457D01*
X0001656820Y0001517221D01*
X0001650790Y0001513341D01*
X0001646745Y0001507421D01*
X0001645322Y0001500393D01*
X0001645322Y0001448649D01*
X0001622062Y0001448649D01*
X0001608903Y0001480494D01*
X0001584560Y0001504881D01*
X0001552737Y0001518095D01*
X0001530438Y0001518114D01*
X0001501244Y0001547307D01*
X0001501244Y0001547307D01*
X0001482520Y0001559819D01*
X0001478855Y0001560548D01*
X0001460433Y0001564212D01*
X0001460432Y0001564212D01*
X0001231190Y0001564212D01*
X0001214999Y0001580403D01*
X0001214999Y0001881495D01*
X0001215000Y0001881496D01*
X0001210606Y0001903583D01*
X0001198095Y0001922307D01*
X0001148095Y0001972307D01*
X0001148095Y0001972307D01*
X0001134342Y0001981497D01*
X0001129370Y0001984819D01*
X0001107283Y0001989212D01*
X0001072374Y0001989212D01*
X0001079472Y0001995467D01*
X0001089668Y0002016268D01*
X0001085359Y0002025433D01*
X0001038346Y0002025433D01*
X0001038346Y0002024645D01*
X0001026220Y0002024645D01*
X0001026220Y0002025433D01*
X0000979207Y0002025433D01*
X0000974898Y0002016268D01*
X0000985094Y0001995467D01*
X0001002473Y0001980151D01*
X0001002928Y0001979963D01*
X0000991471Y0001972307D01*
X0000978960Y0001953583D01*
X0000974566Y0001931496D01*
X0000978960Y0001909408D01*
X0000991471Y0001890684D01*
X0000999989Y0001884992D01*
X0000996850Y0001884992D01*
X0000990285Y0001883757D01*
X0000984255Y0001879877D01*
X0000980209Y0001873956D01*
X0000978786Y0001866929D01*
X0000978786Y0001833070D01*
X0000690000Y0001833070D01*
X0000689372Y0001836223D01*
X0000689379Y0001844376D01*
X0000686239Y0001851977D01*
X0000685606Y0001855158D01*
X0000683820Y0001857830D01*
X0000680707Y0001865365D01*
X0000674896Y0001871186D01*
X0000673095Y0001873882D01*
X0000670422Y0001875668D01*
X0000664662Y0001881438D01*
X0000657067Y0001884592D01*
X0000654370Y0001886393D01*
X0000651217Y0001887021D01*
X0000643688Y0001890147D01*
X0000635464Y0001890154D01*
X0000632283Y0001890787D01*
X0000533858Y0001890787D01*
X0000533858Y0001890787D01*
X0000511771Y0001886393D01*
X0000493046Y0001873882D01*
X0000291471Y0001672307D01*
X0000291471Y0001672307D01*
X0000278960Y0001653583D01*
X0000274566Y0001631496D01*
X0000274566Y0001518457D01*
X0000263385Y0001518457D01*
X0000256820Y0001517221D01*
X0000250790Y0001513341D01*
X0000246745Y0001507421D01*
X0000245322Y0001500393D01*
X0000245322Y0001362598D01*
X0000246557Y0001356033D01*
X0000250437Y0001350003D01*
X0000256358Y0001345957D01*
X0000263385Y0001344534D01*
X0000401181Y0001344534D01*
X0000407746Y0001345770D01*
X0000413776Y0001349650D01*
X0000417821Y0001355570D01*
X0000419244Y0001362598D01*
X0000419244Y0001500393D01*
X0000418009Y0001506959D01*
X0000414129Y0001512988D01*
X0000408208Y0001517034D01*
X0000401181Y0001518457D01*
X0000390000Y0001518457D01*
X0000390000Y0001607589D01*
X0000557765Y0001775354D01*
X0000632283Y0001775354D01*
X0000635436Y0001775981D01*
X0000643588Y0001775974D01*
X0000651189Y0001779115D01*
X0000654370Y0001779747D01*
X0000657043Y0001781533D01*
X0000664578Y0001784646D01*
X0000670398Y0001790457D01*
X0000673095Y0001792259D01*
X0000674881Y0001794932D01*
X0000680650Y0001800691D01*
X0000683804Y0001808287D01*
X0000685606Y0001810983D01*
X0000686233Y0001814136D01*
X0000689360Y0001821665D01*
X0000689367Y0001829890D01*
X0000690000Y0001833070D01*
X0000978786Y0001833070D01*
X0000978786Y0001796062D01*
X0000980022Y0001789497D01*
X0000983902Y0001783467D01*
X0000989822Y0001779422D01*
X0000996850Y0001777999D01*
X0001067716Y0001777999D01*
X0001074281Y0001779234D01*
X0001080311Y0001783114D01*
X0001084356Y0001789035D01*
X0001085780Y0001796062D01*
X0001085780Y0001866929D01*
X0001084749Y0001872406D01*
X0001099566Y0001857589D01*
X0001099566Y0001755300D01*
X0000918307Y0001755300D01*
X0000918307Y0001757691D01*
X0000913661Y0001781044D01*
X0000900433Y0001800841D01*
X0000880636Y0001814070D01*
X0000857283Y0001818715D01*
X0000833930Y0001814070D01*
X0000814133Y0001800841D01*
X0000800904Y0001781044D01*
X0000796259Y0001757691D01*
X0000796259Y0001755300D01*
X0000800904Y0001731947D01*
X0000814133Y0001712150D01*
X0000833930Y0001698922D01*
X0000857283Y0001694276D01*
X0000880636Y0001698922D01*
X0000900433Y0001712150D01*
X0000913661Y0001731947D01*
X0000918307Y0001755300D01*
X0001099566Y0001755300D01*
X0001099566Y0001656496D01*
X0001066241Y0001656496D01*
X0001062794Y0001673822D01*
X0001052980Y0001688510D01*
X0001038291Y0001698325D01*
X0001020965Y0001701771D01*
X0001019191Y0001701771D01*
X0001001865Y0001698325D01*
X0000994491Y0001693397D01*
X0000772815Y0001693397D01*
X0000770238Y0001702253D01*
X0000750767Y0001708624D01*
X0000730341Y0001707059D01*
X0000718738Y0001702253D01*
X0000716160Y0001693397D01*
X0000744488Y0001665070D01*
X0000772815Y0001693397D01*
X0000994491Y0001693397D01*
X0000987177Y0001688510D01*
X0000977362Y0001673822D01*
X0000973916Y0001656496D01*
X0000975165Y0001650216D01*
X0000796616Y0001650216D01*
X0000795051Y0001670643D01*
X0000790245Y0001682246D01*
X0000781389Y0001684823D01*
X0000753062Y0001656496D01*
X0000735913Y0001656496D01*
X0000707586Y0001684823D01*
X0000698731Y0001682246D01*
X0000692360Y0001662775D01*
X0000693925Y0001642349D01*
X0000698731Y0001630745D01*
X0000707586Y0001628168D01*
X0000735913Y0001656496D01*
X0000753062Y0001656496D01*
X0000781389Y0001628168D01*
X0000790245Y0001630745D01*
X0000796616Y0001650216D01*
X0000975165Y0001650216D01*
X0000977362Y0001639169D01*
X0000987177Y0001624481D01*
X0000994490Y0001619594D01*
X0000772815Y0001619594D01*
X0000744488Y0001647921D01*
X0000716160Y0001619594D01*
X0000718738Y0001610739D01*
X0000738208Y0001604368D01*
X0000758635Y0001605932D01*
X0000770238Y0001610739D01*
X0000772815Y0001619594D01*
X0000994490Y0001619594D01*
X0001001865Y0001614666D01*
X0001019191Y0001611220D01*
X0001020965Y0001611220D01*
X0001038291Y0001614666D01*
X0001052980Y0001624481D01*
X0001062794Y0001639169D01*
X0001066241Y0001656496D01*
X0001099566Y0001656496D01*
X0001099566Y0001556496D01*
X0001103960Y0001534408D01*
X0001116471Y0001515684D01*
X0001116471Y0001515684D01*
X0001166471Y0001465684D01*
X0001185196Y0001453172D01*
X0001207283Y0001448779D01*
X0001207283Y0001448779D01*
X0001436526Y0001448779D01*
X0001448823Y0001436482D01*
X0001448803Y0001414343D01*
X0001453591Y0001402755D01*
X0001077442Y0001402755D01*
X0001074071Y0001419705D01*
X0001064469Y0001434074D01*
X0001059986Y0001437070D01*
X0001065423Y0001438092D01*
X0001071453Y0001441973D01*
X0001075498Y0001447893D01*
X0001076921Y0001454921D01*
X0001076921Y0001508070D01*
X0001075686Y0001514636D01*
X0001071806Y0001520666D01*
X0001065886Y0001524711D01*
X0001058858Y0001526134D01*
X0001005708Y0001526134D01*
X0000999143Y0001524899D01*
X0000993113Y0001521019D01*
X0000989068Y0001515098D01*
X0000987645Y0001508070D01*
X0000987645Y0001498335D01*
X0000587398Y0001498335D01*
X0000579750Y0001511478D01*
X0000545289Y0001524760D01*
X0000508368Y0001523843D01*
X0000478517Y0001511478D01*
X0000470869Y0001498335D01*
X0000529133Y0001440070D01*
X0000587398Y0001498335D01*
X0000987645Y0001498335D01*
X0000987645Y0001454921D01*
X0000988880Y0001448355D01*
X0000992760Y0001442326D01*
X0000998680Y0001438280D01*
X0001004598Y0001437082D01*
X0001000097Y0001434074D01*
X0000990495Y0001419705D01*
X0000989225Y0001413318D01*
X0000865950Y0001413318D01*
X0000860717Y0001425984D01*
X0000851035Y0001435683D01*
X0000838378Y0001440938D01*
X0000824673Y0001440950D01*
X0000812027Y0001435725D01*
X0000811963Y0001435823D01*
X0000806043Y0001439868D01*
X0000799015Y0001441291D01*
X0000765551Y0001441291D01*
X0000758985Y0001440056D01*
X0000752955Y0001436176D01*
X0000748910Y0001430256D01*
X0000747487Y0001423228D01*
X0000747487Y0001415340D01*
X0000622398Y0001415340D01*
X0000621481Y0001452261D01*
X0000609116Y0001482112D01*
X0000595972Y0001489760D01*
X0000537708Y0001431496D01*
X0000520559Y0001431496D01*
X0000462294Y0001489760D01*
X0000449151Y0001482112D01*
X0000435869Y0001447651D01*
X0000436786Y0001410731D01*
X0000449151Y0001380879D01*
X0000462294Y0001373231D01*
X0000520559Y0001431496D01*
X0000537708Y0001431496D01*
X0000595972Y0001373231D01*
X0000609116Y0001380879D01*
X0000622398Y0001415340D01*
X0000747487Y0001415340D01*
X0000747487Y0001389763D01*
X0000748722Y0001383198D01*
X0000752603Y0001377168D01*
X0000758523Y0001373123D01*
X0000765551Y0001371700D01*
X0000799015Y0001371700D01*
X0000805581Y0001372935D01*
X0000811610Y0001376815D01*
X0000811951Y0001377314D01*
X0000811956Y0001377308D01*
X0000824613Y0001372053D01*
X0000838318Y0001372041D01*
X0000850984Y0001377274D01*
X0000860683Y0001386956D01*
X0000865938Y0001399613D01*
X0000865950Y0001413318D01*
X0000989225Y0001413318D01*
X0000987124Y0001402755D01*
X0000990495Y0001385806D01*
X0001000097Y0001371437D01*
X0001010244Y0001364657D01*
X0000587398Y0001364657D01*
X0000529133Y0001422921D01*
X0000470869Y0001364657D01*
X0000478517Y0001351513D01*
X0000512978Y0001338231D01*
X0000549898Y0001339148D01*
X0000579750Y0001351513D01*
X0000587398Y0001364657D01*
X0001010244Y0001364657D01*
X0001014466Y0001361836D01*
X0001031415Y0001358464D01*
X0001033151Y0001358464D01*
X0001050100Y0001361836D01*
X0001064469Y0001371437D01*
X0001074071Y0001385806D01*
X0001077442Y0001402755D01*
X0001453591Y0001402755D01*
X0001461962Y0001382497D01*
X0001486306Y0001358110D01*
X0001518128Y0001344896D01*
X0001552586Y0001344866D01*
X0001584431Y0001358025D01*
X0001608818Y0001382369D01*
X0001622032Y0001414191D01*
X0001622062Y0001448649D01*
X0001645322Y0001448649D01*
X0001645322Y0001362598D01*
X0001646557Y0001356033D01*
X0001650437Y0001350003D01*
X0001656358Y0001345957D01*
X0001663385Y0001344534D01*
X0001801181Y0001344534D01*
X0001807746Y0001345770D01*
X0001813776Y0001349650D01*
X0001817821Y0001355570D01*
X0001819244Y0001362598D01*
X0001819244Y0001500393D01*
X0001818009Y0001506959D01*
X0001814129Y0001512988D01*
X0001808208Y0001517034D01*
X0001801181Y0001518457D01*
X0001800868Y0001518457D01*
X0001848095Y0001565684D01*
X0001860606Y0001584408D01*
X0001865000Y0001606496D01*
X0001869094Y0001606496D01*
X0001869094Y0001218473D01*
X0001848524Y0001218473D01*
X0001830879Y0001261175D01*
X0001798237Y0001293875D01*
X0001755565Y0001311593D01*
X0001709361Y0001311634D01*
X0001666659Y0001293990D01*
X0001633959Y0001261347D01*
X0001616240Y0001218675D01*
X0001616200Y0001172471D01*
X0001633844Y0001129769D01*
X0001666487Y0001097069D01*
X0001709158Y0001079350D01*
X0001755362Y0001079310D01*
X0001798065Y0001096954D01*
X0001830764Y0001129597D01*
X0001848483Y0001172269D01*
X0001848524Y0001218473D01*
X0001869094Y0001218473D01*
X0001869094Y0001183138D01*
X0001858306Y0001128902D01*
X0001828737Y0001084648D01*
X0001784483Y0001055079D01*
X0001732283Y0001044696D01*
X0001680083Y0001055079D01*
X0001680083Y0001055079D01*
G37*
X0001680083Y0001055079D02*
X0001635829Y0001084648D01*
X0001606260Y0001128902D01*
X0001595075Y0001185134D01*
X0001586084Y0001230333D01*
X0001586084Y0001230333D01*
X0001584541Y0001234059D01*
X0001582998Y0001237784D01*
X0001582998Y0001237784D01*
X0001557395Y0001276102D01*
X0001551692Y0001281804D01*
X0001513375Y0001307407D01*
X0001513374Y0001307407D01*
X0001509010Y0001309215D01*
X0001505924Y0001310494D01*
X0001505924Y0001310494D01*
X0001460725Y0001319484D01*
X0001458689Y0001319484D01*
X0001456692Y0001319881D01*
X0000080775Y0001319881D01*
X0000056672Y0001324676D01*
X0000037964Y0001337176D01*
X0000025463Y0001355885D01*
X0000020669Y0001379988D01*
X0000020669Y0001522470D01*
X0000052314Y0001490770D01*
X0000094985Y0001473051D01*
X0000141189Y0001473011D01*
X0000183892Y0001490655D01*
X0000216591Y0001523298D01*
X0000234310Y0001565969D01*
X0000234350Y0001612173D01*
X0000216706Y0001654876D01*
X0000184063Y0001687575D01*
X0000141392Y0001705294D01*
X0000095188Y0001705335D01*
X0000052485Y0001687690D01*
X0000020669Y0001655929D01*
X0000020669Y0002163318D01*
X0000025463Y0002187422D01*
X0000037964Y0002206130D01*
X0000056672Y0002218630D01*
X0000080775Y0002223425D01*
X0001808987Y0002223425D01*
X0001833091Y0002218630D01*
X0001851799Y0002206130D01*
X0001864300Y0002187422D01*
X0001869094Y0002163318D01*
X0001869094Y0001606496D01*
X0001865000Y0001606496D01*
X0001865000Y0001606496D01*
X0001865000Y0002106495D01*
X0001865000Y0002106496D01*
X0001860606Y0002128583D01*
X0001848095Y0002147307D01*
X0001798095Y0002197307D01*
X0001798095Y0002197307D01*
X0001783634Y0002206970D01*
X0001779370Y0002209819D01*
X0001757283Y0002214212D01*
X0000910883Y0002214212D01*
X0000907618Y0002216443D01*
X0000900590Y0002217866D01*
X0000813976Y0002217866D01*
X0000807411Y0002216631D01*
X0000803652Y0002214212D01*
X0000758858Y0002214212D01*
X0000758858Y0002214212D01*
X0000736771Y0002209819D01*
X0000718046Y0002197307D01*
X0000593046Y0002072307D01*
X0000593046Y0002072307D01*
X0000591471Y0002070732D01*
X0000589685Y0002068060D01*
X0000583916Y0002062300D01*
X0000580762Y0002054704D01*
X0000578960Y0002052008D01*
X0000578333Y0002048855D01*
X0000575206Y0002041326D01*
X0000575199Y0002033102D01*
X0000574566Y0002029921D01*
X0000575194Y0002026768D01*
X0000575186Y0002018615D01*
X0000578327Y0002011014D01*
X0000578960Y0002007834D01*
X0000580746Y0002005161D01*
X0000583859Y0001997626D01*
X0000589669Y0001991806D01*
X0000591471Y0001989109D01*
X0000594144Y0001987323D01*
X0000599904Y0001981553D01*
X0000607499Y0001978399D01*
X0000610196Y0001976598D01*
X0000613349Y0001975970D01*
X0000620878Y0001972844D01*
X0000629102Y0001972837D01*
X0000632283Y0001972204D01*
X0000635436Y0001972831D01*
X0000643588Y0001972824D01*
X0000651189Y0001975965D01*
X0000654370Y0001976598D01*
X0000657043Y0001978384D01*
X0000664578Y0001981497D01*
X0000670398Y0001987307D01*
X0000673095Y0001989109D01*
X0000674670Y0001990684D01*
X0000674670Y0001990684D01*
X0000782765Y0002098779D01*
X0000803683Y0002098779D01*
X0000806948Y0002096548D01*
X0000813976Y0002095125D01*
X0000900590Y0002095125D01*
X0000907155Y0002096360D01*
X0000910914Y0002098779D01*
X0001733376Y0002098779D01*
X0001749566Y0002082589D01*
X0001749566Y0002046723D01*
X0001089668Y0002046723D01*
X0001079472Y0002067524D01*
X0001062093Y0002082840D01*
X0001047510Y0002088880D01*
X0001038346Y0002084536D01*
X0001038346Y0002037559D01*
X0001026220Y0002037559D01*
X0001026220Y0002084536D01*
X0001017056Y0002088880D01*
X0001002473Y0002082840D01*
X0000985094Y0002067524D01*
X0000974898Y0002046723D01*
X0000979207Y0002037559D01*
X0001026220Y0002037559D01*
X0001038346Y0002037559D01*
X0001085359Y0002037559D01*
X0001089668Y0002046723D01*
X0001749566Y0002046723D01*
X0001749566Y0001630403D01*
X0001691471Y0001572307D01*
X0001691471Y0001572307D01*
X0001678960Y0001553583D01*
X0001677712Y0001547307D01*
X0001674566Y0001531496D01*
X0001674566Y0001531495D01*
X0001674566Y0001518457D01*
X0001663385Y0001518457D01*
X0001656820Y0001517221D01*
X0001650790Y0001513341D01*
X0001646745Y0001507421D01*
X0001645322Y0001500393D01*
X0001645322Y0001448649D01*
X0001622062Y0001448649D01*
X0001608903Y0001480494D01*
X0001584560Y0001504881D01*
X0001552737Y0001518095D01*
X0001530438Y0001518114D01*
X0001501244Y0001547307D01*
X0001501244Y0001547307D01*
X0001482520Y0001559819D01*
X0001478855Y0001560548D01*
X0001460433Y0001564212D01*
X0001460432Y0001564212D01*
X0001231190Y0001564212D01*
X0001214999Y0001580403D01*
X0001214999Y0001881495D01*
X0001215000Y0001881496D01*
X0001210606Y0001903583D01*
X0001198095Y0001922307D01*
X0001148095Y0001972307D01*
X0001148095Y0001972307D01*
X0001134342Y0001981497D01*
X0001129370Y0001984819D01*
X0001107283Y0001989212D01*
X0001072374Y0001989212D01*
X0001079472Y0001995467D01*
X0001089668Y0002016268D01*
X0001085359Y0002025433D01*
X0001038346Y0002025433D01*
X0001038346Y0002024645D01*
X0001026220Y0002024645D01*
X0001026220Y0002025433D01*
X0000979207Y0002025433D01*
X0000974898Y0002016268D01*
X0000985094Y0001995467D01*
X0001002473Y0001980151D01*
X0001002928Y0001979963D01*
X0000991471Y0001972307D01*
X0000978960Y0001953583D01*
X0000974566Y0001931496D01*
X0000978960Y0001909408D01*
X0000991471Y0001890684D01*
X0000999989Y0001884992D01*
X0000996850Y0001884992D01*
X0000990285Y0001883757D01*
X0000984255Y0001879877D01*
X0000980209Y0001873956D01*
X0000978786Y0001866929D01*
X0000978786Y0001833070D01*
X0000690000Y0001833070D01*
X0000689372Y0001836223D01*
X0000689379Y0001844376D01*
X0000686239Y0001851977D01*
X0000685606Y0001855158D01*
X0000683820Y0001857830D01*
X0000680707Y0001865365D01*
X0000674896Y0001871186D01*
X0000673095Y0001873882D01*
X0000670422Y0001875668D01*
X0000664662Y0001881438D01*
X0000657067Y0001884592D01*
X0000654370Y0001886393D01*
X0000651217Y0001887021D01*
X0000643688Y0001890147D01*
X0000635464Y0001890154D01*
X0000632283Y0001890787D01*
X0000533858Y0001890787D01*
X0000533858Y0001890787D01*
X0000511771Y0001886393D01*
X0000493046Y0001873882D01*
X0000291471Y0001672307D01*
X0000291471Y0001672307D01*
X0000278960Y0001653583D01*
X0000274566Y0001631496D01*
X0000274566Y0001518457D01*
X0000263385Y0001518457D01*
X0000256820Y0001517221D01*
X0000250790Y0001513341D01*
X0000246745Y0001507421D01*
X0000245322Y0001500393D01*
X0000245322Y0001362598D01*
X0000246557Y0001356033D01*
X0000250437Y0001350003D01*
X0000256358Y0001345957D01*
X0000263385Y0001344534D01*
X0000401181Y0001344534D01*
X0000407746Y0001345770D01*
X0000413776Y0001349650D01*
X0000417821Y0001355570D01*
X0000419244Y0001362598D01*
X0000419244Y0001500393D01*
X0000418009Y0001506959D01*
X0000414129Y0001512988D01*
X0000408208Y0001517034D01*
X0000401181Y0001518457D01*
X0000390000Y0001518457D01*
X0000390000Y0001607589D01*
X0000557765Y0001775354D01*
X0000632283Y0001775354D01*
X0000635436Y0001775981D01*
X0000643588Y0001775974D01*
X0000651189Y0001779115D01*
X0000654370Y0001779747D01*
X0000657043Y0001781533D01*
X0000664578Y0001784646D01*
X0000670398Y0001790457D01*
X0000673095Y0001792259D01*
X0000674881Y0001794932D01*
X0000680650Y0001800691D01*
X0000683804Y0001808287D01*
X0000685606Y0001810983D01*
X0000686233Y0001814136D01*
X0000689360Y0001821665D01*
X0000689367Y0001829890D01*
X0000690000Y0001833070D01*
X0000978786Y0001833070D01*
X0000978786Y0001796062D01*
X0000980022Y0001789497D01*
X0000983902Y0001783467D01*
X0000989822Y0001779422D01*
X0000996850Y0001777999D01*
X0001067716Y0001777999D01*
X0001074281Y0001779234D01*
X0001080311Y0001783114D01*
X0001084356Y0001789035D01*
X0001085780Y0001796062D01*
X0001085780Y0001866929D01*
X0001084749Y0001872406D01*
X0001099566Y0001857589D01*
X0001099566Y0001755300D01*
X0000918307Y0001755300D01*
X0000918307Y0001757691D01*
X0000913661Y0001781044D01*
X0000900433Y0001800841D01*
X0000880636Y0001814070D01*
X0000857283Y0001818715D01*
X0000833930Y0001814070D01*
X0000814133Y0001800841D01*
X0000800904Y0001781044D01*
X0000796259Y0001757691D01*
X0000796259Y0001755300D01*
X0000800904Y0001731947D01*
X0000814133Y0001712150D01*
X0000833930Y0001698922D01*
X0000857283Y0001694276D01*
X0000880636Y0001698922D01*
X0000900433Y0001712150D01*
X0000913661Y0001731947D01*
X0000918307Y0001755300D01*
X0001099566Y0001755300D01*
X0001099566Y0001656496D01*
X0001066241Y0001656496D01*
X0001062794Y0001673822D01*
X0001052980Y0001688510D01*
X0001038291Y0001698325D01*
X0001020965Y0001701771D01*
X0001019191Y0001701771D01*
X0001001865Y0001698325D01*
X0000994491Y0001693397D01*
X0000772815Y0001693397D01*
X0000770238Y0001702253D01*
X0000750767Y0001708624D01*
X0000730341Y0001707059D01*
X0000718738Y0001702253D01*
X0000716160Y0001693397D01*
X0000744488Y0001665070D01*
X0000772815Y0001693397D01*
X0000994491Y0001693397D01*
X0000987177Y0001688510D01*
X0000977362Y0001673822D01*
X0000973916Y0001656496D01*
X0000975165Y0001650216D01*
X0000796616Y0001650216D01*
X0000795051Y0001670643D01*
X0000790245Y0001682246D01*
X0000781389Y0001684823D01*
X0000753062Y0001656496D01*
X0000735913Y0001656496D01*
X0000707586Y0001684823D01*
X0000698731Y0001682246D01*
X0000692360Y0001662775D01*
X0000693925Y0001642349D01*
X0000698731Y0001630745D01*
X0000707586Y0001628168D01*
X0000735913Y0001656496D01*
X0000753062Y0001656496D01*
X0000781389Y0001628168D01*
X0000790245Y0001630745D01*
X0000796616Y0001650216D01*
X0000975165Y0001650216D01*
X0000977362Y0001639169D01*
X0000987177Y0001624481D01*
X0000994490Y0001619594D01*
X0000772815Y0001619594D01*
X0000744488Y0001647921D01*
X0000716160Y0001619594D01*
X0000718738Y0001610739D01*
X0000738208Y0001604368D01*
X0000758635Y0001605932D01*
X0000770238Y0001610739D01*
X0000772815Y0001619594D01*
X0000994490Y0001619594D01*
X0001001865Y0001614666D01*
X0001019191Y0001611220D01*
X0001020965Y0001611220D01*
X0001038291Y0001614666D01*
X0001052980Y0001624481D01*
X0001062794Y0001639169D01*
X0001066241Y0001656496D01*
X0001099566Y0001656496D01*
X0001099566Y0001556496D01*
X0001103960Y0001534408D01*
X0001116471Y0001515684D01*
X0001116471Y0001515684D01*
X0001166471Y0001465684D01*
X0001185196Y0001453172D01*
X0001207283Y0001448779D01*
X0001207283Y0001448779D01*
X0001436526Y0001448779D01*
X0001448823Y0001436482D01*
X0001448803Y0001414343D01*
X0001453591Y0001402755D01*
X0001077442Y0001402755D01*
X0001074071Y0001419705D01*
X0001064469Y0001434074D01*
X0001059986Y0001437070D01*
X0001065423Y0001438092D01*
X0001071453Y0001441973D01*
X0001075498Y0001447893D01*
X0001076921Y0001454921D01*
X0001076921Y0001508070D01*
X0001075686Y0001514636D01*
X0001071806Y0001520666D01*
X0001065886Y0001524711D01*
X0001058858Y0001526134D01*
X0001005708Y0001526134D01*
X0000999143Y0001524899D01*
X0000993113Y0001521019D01*
X0000989068Y0001515098D01*
X0000987645Y0001508070D01*
X0000987645Y0001498335D01*
X0000587398Y0001498335D01*
X0000579750Y0001511478D01*
X0000545289Y0001524760D01*
X0000508368Y0001523843D01*
X0000478517Y0001511478D01*
X0000470869Y0001498335D01*
X0000529133Y0001440070D01*
X0000587398Y0001498335D01*
X0000987645Y0001498335D01*
X0000987645Y0001454921D01*
X0000988880Y0001448355D01*
X0000992760Y0001442326D01*
X0000998680Y0001438280D01*
X0001004598Y0001437082D01*
X0001000097Y0001434074D01*
X0000990495Y0001419705D01*
X0000989225Y0001413318D01*
X0000865950Y0001413318D01*
X0000860717Y0001425984D01*
X0000851035Y0001435683D01*
X0000838378Y0001440938D01*
X0000824673Y0001440950D01*
X0000812027Y0001435725D01*
X0000811963Y0001435823D01*
X0000806043Y0001439868D01*
X0000799015Y0001441291D01*
X0000765551Y0001441291D01*
X0000758985Y0001440056D01*
X0000752955Y0001436176D01*
X0000748910Y0001430256D01*
X0000747487Y0001423228D01*
X0000747487Y0001415340D01*
X0000622398Y0001415340D01*
X0000621481Y0001452261D01*
X0000609116Y0001482112D01*
X0000595972Y0001489760D01*
X0000537708Y0001431496D01*
X0000520559Y0001431496D01*
X0000462294Y0001489760D01*
X0000449151Y0001482112D01*
X0000435869Y0001447651D01*
X0000436786Y0001410731D01*
X0000449151Y0001380879D01*
X0000462294Y0001373231D01*
X0000520559Y0001431496D01*
X0000537708Y0001431496D01*
X0000595972Y0001373231D01*
X0000609116Y0001380879D01*
X0000622398Y0001415340D01*
X0000747487Y0001415340D01*
X0000747487Y0001389763D01*
X0000748722Y0001383198D01*
X0000752603Y0001377168D01*
X0000758523Y0001373123D01*
X0000765551Y0001371700D01*
X0000799015Y0001371700D01*
X0000805581Y0001372935D01*
X0000811610Y0001376815D01*
X0000811951Y0001377314D01*
X0000811956Y0001377308D01*
X0000824613Y0001372053D01*
X0000838318Y0001372041D01*
X0000850984Y0001377274D01*
X0000860683Y0001386956D01*
X0000865938Y0001399613D01*
X0000865950Y0001413318D01*
X0000989225Y0001413318D01*
X0000987124Y0001402755D01*
X0000990495Y0001385806D01*
X0001000097Y0001371437D01*
X0001010244Y0001364657D01*
X0000587398Y0001364657D01*
X0000529133Y0001422921D01*
X0000470869Y0001364657D01*
X0000478517Y0001351513D01*
X0000512978Y0001338231D01*
X0000549898Y0001339148D01*
X0000579750Y0001351513D01*
X0000587398Y0001364657D01*
X0001010244Y0001364657D01*
X0001014466Y0001361836D01*
X0001031415Y0001358464D01*
X0001033151Y0001358464D01*
X0001050100Y0001361836D01*
X0001064469Y0001371437D01*
X0001074071Y0001385806D01*
X0001077442Y0001402755D01*
X0001453591Y0001402755D01*
X0001461962Y0001382497D01*
X0001486306Y0001358110D01*
X0001518128Y0001344896D01*
X0001552586Y0001344866D01*
X0001584431Y0001358025D01*
X0001608818Y0001382369D01*
X0001622032Y0001414191D01*
X0001622062Y0001448649D01*
X0001645322Y0001448649D01*
X0001645322Y0001362598D01*
X0001646557Y0001356033D01*
X0001650437Y0001350003D01*
X0001656358Y0001345957D01*
X0001663385Y0001344534D01*
X0001801181Y0001344534D01*
X0001807746Y0001345770D01*
X0001813776Y0001349650D01*
X0001817821Y0001355570D01*
X0001819244Y0001362598D01*
X0001819244Y0001500393D01*
X0001818009Y0001506959D01*
X0001814129Y0001512988D01*
X0001808208Y0001517034D01*
X0001801181Y0001518457D01*
X0001800868Y0001518457D01*
X0001848095Y0001565684D01*
X0001860606Y0001584408D01*
X0001865000Y0001606496D01*
X0001869094Y0001606496D01*
X0001869094Y0001218473D01*
X0001848524Y0001218473D01*
X0001830879Y0001261175D01*
X0001798237Y0001293875D01*
X0001755565Y0001311593D01*
X0001709361Y0001311634D01*
X0001666659Y0001293990D01*
X0001633959Y0001261347D01*
X0001616240Y0001218675D01*
X0001616200Y0001172471D01*
X0001633844Y0001129769D01*
X0001666487Y0001097069D01*
X0001709158Y0001079350D01*
X0001755362Y0001079310D01*
X0001798065Y0001096954D01*
X0001830764Y0001129597D01*
X0001848483Y0001172269D01*
X0001848524Y0001218473D01*
X0001869094Y0001218473D01*
X0001869094Y0001183138D01*
X0001858306Y0001128902D01*
X0001828737Y0001084648D01*
X0001784483Y0001055079D01*
X0001732283Y0001044696D01*
X0001680083Y0001055079D01*
M02*