<?xml version="1.0" encoding="UTF-8" standalone="no"?>
<!-- Created with Inkscape (http://www.inkscape.org/) -->

<svg
   xmlns:dc="http://purl.org/dc/elements/1.1/"
   xmlns:cc="http://creativecommons.org/ns#"
   xmlns:rdf="http://www.w3.org/1999/02/22-rdf-syntax-ns#"
   xmlns:svg="http://www.w3.org/2000/svg"
   xmlns="http://www.w3.org/2000/svg"
   xmlns:sodipodi="http://sodipodi.sourceforge.net/DTD/sodipodi-0.dtd"
   xmlns:inkscape="http://www.inkscape.org/namespaces/inkscape"
   width="210mm"
   height="297mm"
   viewBox="0 0 210 297"
   version="1.1"
   id="svg8"
   inkscape:version="0.92.4 (5da689c313, 2019-01-14)"
   sodipodi:docname="MakersBoxMotors.svg"
   inkscape:export-filename="C:\Users\Maker's Box\Pictures\HW\MakersBoxMotors.png"
   inkscape:export-xdpi="150"
   inkscape:export-ydpi="150">
  <defs
     id="defs2" />
  <sodipodi:namedview
     id="base"
     pagecolor="#ffffff"
     bordercolor="#666666"
     borderopacity="1.0"
     inkscape:pageopacity="0.0"
     inkscape:pageshadow="2"
     inkscape:zoom="0.49497475"
     inkscape:cx="-37.933859"
     inkscape:cy="560"
     inkscape:document-units="mm"
     inkscape:current-layer="layer1"
     showgrid="false"
     inkscape:window-width="1531"
     inkscape:window-height="877"
     inkscape:window-x="61"
     inkscape:window-y="-8"
     inkscape:window-maximized="1" />
  <metadata
     id="metadata5">
    <rdf:RDF>
      <cc:Work
         rdf:about="">
        <dc:format>image/svg+xml</dc:format>
        <dc:type
           rdf:resource="http://purl.org/dc/dcmitype/StillImage" />
        <dc:title></dc:title>
      </cc:Work>
    </rdf:RDF>
  </metadata>
  <g
     inkscape:label="Layer 1"
     inkscape:groupmode="layer"
     id="layer1">
    <g
       aria-label="                                    MakerSBox"
       style="font-style:normal;font-variant:normal;font-weight:normal;font-stretch:normal;font-size:12.69999981px;line-height:1.25;font-family:'Brush Script MT';-inkscape-font-specification:'Brush Script MT';letter-spacing:0px;word-spacing:0px;fill:#00a0ff;fill-opacity:1;stroke:none;stroke-width:0.26458332;stroke-opacity:1"
       id="text817">
      <path
         d="m 56.6072,76.4343 2.690983,-1.455194 0.163641,-0.08849 q 0.454558,-0.245809 0.624986,0.06935 0.134376,0.248491 -0.06545,0.45838 -0.163953,0.174825 -0.190485,0.212672 -0.02375,0.02851 -0.03062,0.102721 -0.02029,0.136301 0.09442,0.348428 l 3.280742,6.066833 q 0.114711,0.212127 0.23988,0.26977 0.06586,0.03488 0.105998,0.03668 0.04292,-0.0075 0.278977,-0.04903 0.285038,-0.05231 0.419414,0.196183 0.170428,0.31516 -0.28413,0.56097 l -0.163641,0.08849 -2.697043,1.458472 -0.200005,0.108157 q -0.266674,0.144208 -0.448679,0.1408 -0.179222,-0.01275 -0.267713,-0.176388 -0.144209,-0.266674 0.110656,-0.490661 0.203596,-0.188428 0.239466,-0.223492 0.03259,-0.04112 0.04552,-0.118614 0.03192,-0.158256 -0.0959,-0.394626 z m -2.230364,1.206107 3.03263,2.754433 -0.465784,-2.121554 1.088118,2.012177 1.139997,5.454192 -0.321221,0.173706 -6.123942,-5.704292 q -0.311308,-0.285976 -0.510194,-0.335087 -0.121397,-0.03618 -0.335007,0.03233 -0.439834,0.128185 -0.597153,-0.162732 -0.08521,-0.15758 -0.022,-0.301426 0.06599,-0.153183 0.278119,-0.267894 z m -0.843945,4.059612 1.632236,1.482941 0.986517,1.824293 q 0.150763,0.278795 0.234495,0.390178 0.08979,0.108106 0.241181,0.214235 0.271484,0.197847 0.567837,0.209918 l 0.302908,0.02419 q 0.305691,0.01485 0.39746,0.184556 0.16715,0.309099 -0.287407,0.554909 l -1.521254,0.822644 q -0.454558,0.245809 -0.618431,-0.05723 -0.05244,-0.09697 -0.04229,-0.165123 0.01293,-0.07749 0.09203,-0.20643 0.476098,-0.727445 -0.009,-1.624439 z"
         style="font-size:14.11111069px;stroke:none;stroke-opacity:1;fill:#00a0ff;fill-opacity:1"
         id="path900" />
      <path
         d="m 65.508277,72.909307 2.659988,-0.796736 4.15792,7.205938 q 0.114091,0.188798 0.227544,0.327439 0.09697,0.107616 0.325306,0.125534 0.193359,0.0212 0.281111,0.07404 0.08775,0.05284 0.125315,0.178244 0.102805,0.343224 -0.412032,0.497431 l -3.293632,0.986529 q -0.198014,0.05931 -0.344501,0.0025 -0.148463,-0.06342 -0.195911,-0.221832 -0.03954,-0.132009 -0.0065,-0.21383 0.03303,-0.08182 0.188191,-0.236184 0.112239,-0.105545 0.141319,-0.200566 0.02908,-0.09502 -0.0065,-0.21383 -0.03361,-0.112208 -0.07911,-0.192083 l -0.497882,-0.893803 -1.84153,0.551586 -0.05705,-0.838835 1.478504,-0.442851 -2.821797,-5.002408 z m 0.04673,1.812932 0.745866,1.265469 0.108868,4.613832 q 0.0026,0.20063 0.05,0.359041 0.124552,0.415829 0.567358,0.477398 l 0.262649,0.03641 q 0.247471,0.03377 0.316666,0.264782 0.09885,0.330023 -0.382983,0.474345 l -1.676519,0.502161 q -0.244217,0.07315 -0.419082,0.01764 -0.170242,-0.06409 -0.223622,-0.242303 -0.05733,-0.191413 0.195524,-0.403811 0.235033,-0.199866 0.332764,-0.329835 0.102354,-0.138548 0.171737,-0.339145 0.103755,-0.325976 0.08813,-0.810394 z"
         style="font-size:14.11111069px;stroke:none;stroke-opacity:1;fill:#00a0ff;fill-opacity:1"
         id="path902" />
      <path
         d="m 77.82011,79.634982 -3.033288,0.49259 -0.176828,0.02872 q -0.24484,0.03976 -0.39522,-0.02656 -0.144683,-0.07423 -0.172294,-0.244258 -0.04528,-0.278845 0.212402,-0.411438 0.212287,-0.111259 0.244084,-0.130384 0.03749,-0.02703 0.06836,-0.09487 0.06394,-0.122071 0.02529,-0.36011 l -1.105567,-6.807896 q -0.03866,-0.238038 -0.13794,-0.333602 -0.05075,-0.05458 -0.09376,-0.06156 -0.03732,-0.01488 -0.273904,-0.05325 -0.286401,-0.04424 -0.331684,-0.323081 -0.02761,-0.170027 0.08725,-0.279426 0.120559,-0.117305 0.365399,-0.157065 l 0.176828,-0.02872 3.033288,-0.492591 0.176829,-0.02872 q 0.244839,-0.03976 0.389523,0.03447 0.15038,0.06632 0.177991,0.236353 0.04528,0.278844 -0.212403,0.411437 -0.212287,0.11126 -0.24978,0.13829 -0.0318,0.01912 -0.06266,0.08696 -0.06394,0.122071 -0.02529,0.360109 l 1.105567,6.807896 q 0.06185,0.380861 0.270127,0.416843 l 0.221878,0.03377 q 0.271695,0.03964 0.318083,0.325289 0.05743,0.353657 -0.425446,0.432074 z m 1.62301,-7.027628 2.926456,5.039317 q 0.116956,0.204382 0.224146,0.305642 0.106086,0.09446 0.258849,0.132476 0.153867,0.04482 0.200196,0.0722 0.110678,0.07975 0.136081,0.236178 0.05854,0.360458 -0.451546,0.443293 L 79.316351,79.392 q -0.244839,0.03976 -0.397428,-0.04017 -0.145788,-0.08103 -0.176713,-0.271463 -0.03534,-0.217635 0.196418,-0.380919 0.144276,-0.100215 0.190953,-0.156659 0.04557,-0.06324 0.03802,-0.152763 -0.0077,-0.04761 -0.08975,-0.208799 l -1.292445,-2.456647 q -0.180956,-0.340578 -0.221821,-0.592218 -0.03866,-0.238039 0.113293,-0.548913 l 1.253257,-2.555935 q 0.179328,-0.357204 0.123,-0.704059 -0.03092,-0.190431 -0.159448,-0.33709 -0.128524,-0.14666 -0.309596,-0.187059 l -0.261406,-0.06226 q -0.2467,-0.05766 -0.283147,-0.2821 -0.02982,-0.183629 0.09423,-0.322442 0.08307,-0.09027 0.300701,-0.125617 l 2.42119,-0.393188 q 0.238038,-0.03866 0.38493,0.04918 0.152589,0.07993 0.183514,0.270358 0.04639,0.285646 -0.246582,0.458871 l -0.337265,0.201359 q -0.211182,0.118061 -0.511651,0.460034 -0.223099,0.259605 -0.521125,0.831537 z"
         style="font-size:14.11111069px;stroke:none;stroke-opacity:1;fill:#00a0ff;fill-opacity:1"
         id="path904" />
      <path
         d="m 87.43364,69.126805 0.531594,9.390075 -3.061234,0.173303 -0.178858,0.01013 q -0.247651,0.01402 -0.390297,-0.06762 -0.136157,-0.08891 -0.145893,-0.260888 -0.01597,-0.282046 0.254137,-0.387053 0.222729,-0.08852 0.256346,-0.104229 0.04011,-0.02297 0.07788,-0.08722 0.07632,-0.11474 0.06269,-0.355511 l -0.389835,-6.886055 q -0.01363,-0.240772 -0.102412,-0.346165 -0.04478,-0.05958 -0.08683,-0.071 -0.03556,-0.01869 -0.266861,-0.08151 -0.28023,-0.07385 -0.296197,-0.355898 -0.0097,-0.171979 0.115905,-0.268808 0.132132,-0.104097 0.379782,-0.118117 l 0.178858,-0.01013 z m 0.612246,-0.03466 2.772308,-0.156947 0.137864,2.435228 q 0.01207,0.213255 -0.06503,0.314237 -0.0771,0.100981 -0.255956,0.111107 -0.151342,0.0086 -0.223639,-0.04945 -0.0723,-0.05802 -0.145114,-0.24713 -0.306584,-0.783186 -0.839399,-1.173996 -0.525936,-0.391201 -1.335473,-0.428186 z m 0.249121,5.009987 -0.04518,-0.797984 q 0.388088,-0.215205 0.567853,-0.453122 0.179766,-0.237918 0.247775,-0.621335 0.04023,-0.264524 0.124212,-0.365896 0.08359,-0.10825 0.248688,-0.117597 0.220133,-0.01246 0.31242,0.154844 0.05322,0.0867 0.07113,0.403145 l 0.148379,2.620966 q 0.0183,0.323322 -0.05036,0.451431 -0.06178,0.127719 -0.254399,0.138624 -0.158221,0.009 -0.253102,-0.08229 -0.09488,-0.09125 -0.162767,-0.315143 -0.143818,-0.468042 -0.378361,-0.710109 -0.227664,-0.242457 -0.576296,-0.305535 z m 0.289352,4.379698 -0.04206,-0.742951 q 0.443252,-0.0941 0.725168,-0.234287 0.288794,-0.140571 0.570189,-0.411847 0.281395,-0.271276 0.438186,-0.5493 0.163281,-0.285292 0.296188,-0.741396 0.06321,-0.224418 0.141475,-0.304762 0.07788,-0.08722 0.222339,-0.0954 0.192617,-0.0109 0.274909,0.101758 0.0819,0.105783 0.09787,0.387829 l 0.137475,2.428349 z"
         style="font-size:14.11111069px;stroke:none;stroke-opacity:1;fill:#00a0ff;fill-opacity:1"
         id="path906" />
      <path
         d="m 96.605086,69.017686 -0.297966,8.09049 q -0.0099,0.268535 0.08908,0.389393 0.05255,0.07088 0.09999,0.09332 0.04769,0.01555 0.313691,0.09429 0.327715,0.08791 0.316557,0.390876 -0.0066,0.179023 -0.189674,0.282598 -0.133868,0.07781 -0.436831,0.06665 l -0.234108,-0.0086 -3.070943,-0.1131 -0.179023,-0.0066 q -0.247879,-0.0091 -0.382293,-0.103713 -0.127275,-0.101215 -0.120935,-0.273353 0.0104,-0.282307 0.289115,-0.361675 0.230012,-0.06737 0.264946,-0.07988 0.04207,-0.01914 0.08567,-0.07958 0.08668,-0.107125 0.09556,-0.348118 l 0.253841,-6.892408 q 0.0089,-0.240994 -0.06969,-0.354205 -0.03903,-0.06349 -0.07984,-0.07878 -0.03367,-0.02192 -0.258099,-0.106034 -0.272125,-0.09965 -0.261727,-0.381961 0.0063,-0.172138 0.140461,-0.256832 0.141261,-0.09133 0.389139,-0.0822 l 0.179024,0.0066 z m 1.937358,4.870176 q 0.629918,0.119727 0.962997,0.249207 0.339965,0.129733 0.608029,0.339557 0.28133,0.224102 0.42191,0.525758 0.14746,0.30191 0.13529,0.632415 l -0.0525,1.425303 q -0.008,0.220337 0.13648,0.225662 0.0551,0.002 0.0905,-0.02424 0.0426,-0.03291 0.11473,-0.119882 0.18076,-0.227768 0.35978,-0.221175 0.11706,0.0043 0.22955,0.132562 0.11249,0.12825 0.10792,0.252189 -0.008,0.213452 -0.22584,0.515693 -0.21084,0.295608 -0.52267,0.525444 -0.29068,0.216825 -0.62473,0.30105 -0.334313,0.09111 -0.781872,0.07463 -0.908889,-0.03347 -1.399399,-0.568654 -0.490256,-0.542065 -0.456021,-1.471611 l 0.0426,-1.156767 q 0.0142,-0.38559 0.0096,-0.447813 -0.02428,-0.276689 -0.175297,-0.482201 -0.190805,-0.248348 -0.561101,-0.303355 l 0.02713,-0.736751 q 0.373847,-0.04139 0.537285,-0.173268 0.142275,-0.118868 0.196307,-0.27546 0.06092,-0.156338 0.07233,-0.466186 l 0.0672,-1.824664 q 0.01598,-0.433788 -0.148301,-0.653579 -0.157392,-0.219537 -0.5935,-0.359706 l 0.02815,-0.764293 0.179023,0.0066 q 0.764293,0.02815 1.299335,0.103013 0.795932,0.105156 1.40603,0.575792 0.87842,0.673574 0.8348,1.857883 -0.0357,0.970859 -0.6645,1.56824 -0.264402,0.252268 -0.614764,0.404841 -0.343477,0.152826 -1.046522,0.33378 z"
         style="font-size:14.11111069px;stroke:none;stroke-opacity:1;fill:#00a0ff;fill-opacity:1"
         id="path908" />
      <path
         d="m 106.77905,69.646026 -0.10504,0.785379 q -0.43895,0.05947 -0.6972,0.275184 -0.25051,0.2098 -0.29801,0.564927 -0.0457,0.341469 0.10402,0.625648 0.1506,0.277348 0.53613,0.565265 0.26583,0.195438 1.21721,0.774531 0.57902,0.348552 0.88443,0.611848 0.31315,0.257381 0.57071,0.618551 0.69261,0.954625 0.53642,2.122448 -0.11783,0.880991 -0.65264,1.553277 -0.53482,0.672286 -1.35543,0.986577 -0.43899,0.163737 -0.94714,0.220901 -0.50224,0.06491 -0.92567,0.0083 l 0.10413,-0.778549 q 0.61334,-0.06395 0.90665,-0.28193 0.30106,-0.223894 0.35951,-0.660974 0.0612,-0.457568 -0.30198,-0.860671 -0.24303,-0.261905 -0.96316,-0.698845 -0.7907,-0.481135 -1.08384,-0.680227 -0.28631,-0.198179 -0.54483,-0.448252 -1.16153,-1.086856 -0.95784,-2.609808 0.10413,-0.778549 0.51279,-1.39124 0.40958,-0.61952 1.03714,-0.945728 0.87394,-0.453142 2.06364,-0.356588 z m 0.43448,0.857537 0.10048,-0.751232 q 0.40611,0.08212 0.69564,0.204264 0.29044,0.115313 0.81257,0.421497 0.12928,0.0729 0.21806,0.08478 0.12976,0.01736 0.2031,-0.06321 l 0.17673,-0.177957 q 0.12937,-0.135632 0.28644,-0.114624 0.18439,0.02466 0.24808,0.17221 0.0714,0.141633 0.0331,0.428467 l -0.30142,2.253695 q -0.0265,0.198052 -0.15994,0.312283 -0.12571,0.108314 -0.30328,0.08457 -0.13658,-0.01827 -0.24081,-0.122578 -0.0542,-0.06286 -0.0851,-0.143459 -0.0232,-0.08652 -0.0327,-0.27548 -0.0304,-0.344687 -0.16726,-0.724476 -0.1369,-0.37979 -0.3453,-0.692677 -0.41773,-0.618944 -1.13839,-0.896069 z m -1.98159,8.007307 -0.10413,0.77855 q -0.56001,-0.0749 -1.19319,-0.486306 -0.23716,-0.149896 -0.3282,-0.19683 -0.091,-0.04694 -0.17983,-0.05881 -0.13658,-0.01827 -0.21127,0.0204 -0.0738,0.03184 -0.24777,0.189311 -0.14302,0.133805 -0.28644,0.114624 -0.38245,-0.05115 -0.30389,-0.638477 l 0.33247,-2.485894 q 0.0256,-0.191223 0.1522,-0.306367 0.12754,-0.121973 0.29236,-0.106881 0.15116,0.01327 0.22032,0.119838 0.0769,0.100656 0.10732,0.341075 0.0785,0.608335 0.30368,1.159815 0.23199,0.552393 0.5806,0.960498 0.35361,0.422677 0.86577,0.595449 z"
         style="font-size:14.11111069px;stroke:none;stroke-opacity:1;fill:#00a0ff;fill-opacity:1"
         id="path910" />
      <path
         d="m 116.12536,71.55414 -2.26508,9.128282 -2.97588,-0.738432 -0.17387,-0.04314 q -0.24075,-0.05974 -0.35293,-0.179862 -0.10382,-0.125152 -0.0623,-0.292337 0.068,-0.274182 0.3571,-0.294743 0.23894,-0.0188 0.2757,-0.02388 0.0451,-0.01011 0.10016,-0.06034 0.1068,-0.08709 0.16488,-0.321144 l 1.66105,-6.694073 q 0.0581,-0.234059 0.004,-0.36097 -0.0252,-0.07014 -0.062,-0.09347 -0.0285,-0.02836 -0.23089,-0.15668 -0.24592,-0.153312 -0.17789,-0.427495 0.0415,-0.167185 0.19012,-0.222592 0.15698,-0.06044 0.39772,-6.97e-4 l 0.17388,0.04314 z m 0.9879,4.916373 q 0.57199,0.269718 0.86478,0.463055 0.29947,0.194996 0.51713,0.433585 0.3767,0.398737 0.49294,0.93162 0.12459,0.527855 -0.0198,1.109658 -0.28375,1.143543 -1.28567,1.576448 -0.51765,0.226508 -1.0808,0.235851 -0.5548,0.0043 -1.4041,-0.206429 l -0.7958,-0.197468 0.17424,-0.702176 q 0.27247,0.04631 0.43956,0.03098 0.16874,-0.02202 0.3223,-0.125899 0.28209,-0.192673 0.41152,-0.714289 l 0.37668,-1.518037 q 0.083,-0.334369 0.0692,-0.53655 -0.007,-0.200522 -0.12268,-0.392498 -0.0838,-0.148583 -0.20429,-0.23527 -0.12047,-0.08669 -0.35961,-0.181522 l 0.17258,-0.695488 q 0.25241,0.04134 0.39777,0.02771 0.15205,-0.01196 0.29229,-0.09075 0.13189,-0.07376 0.24528,-0.216004 0.11338,-0.142244 0.15326,-0.274332 l 0.0913,-0.367806 0.28708,-1.156918 q 0.0448,-0.18056 0.0327,-0.389428 -0.0104,-0.215557 -0.0691,-0.350814 -0.0889,-0.185339 -0.23114,-0.298725 -0.13556,-0.111728 -0.39641,-0.204853 l 0.18253,-0.735613 0.76905,0.190831 q 1.52472,0.378343 2.17123,1.206085 0.29645,0.378824 0.38916,0.834877 0.0927,0.456053 -0.0251,0.930858 -0.11615,0.468117 -0.41966,0.832953 -0.29682,0.366495 -0.71928,0.55273 -0.31391,0.14928 -0.68816,0.198398 -0.37424,0.04912 -1.03101,0.03523 z"
         style="font-size:14.11111069px;stroke:none;stroke-opacity:1;fill:#00a0ff;fill-opacity:1"
         id="path912" />
      <path
         d="m 126.17229,75.355891 q -0.37197,-0.02251 -0.58838,0.117936 -0.21641,0.140446 -0.3773,0.521266 l -2.39725,5.674214 q -0.23597,0.558536 -0.18018,0.851384 0.0401,0.241358 0.32264,0.457943 l -0.29496,0.69817 q -1.36077,-0.709536 -1.91328,-2.057461 -0.71745,-1.754207 0.21302,-3.956615 0.46658,-1.104378 1.16569,-1.856201 0.70813,-0.75549 1.61196,-1.106665 0.68983,-0.269551 1.35929,-0.278431 0.66946,-0.0089 1.36835,0.248985 z m 0.52045,0.219882 0.2896,-0.685476 q 0.67207,0.321336 1.13237,0.807521 0.46666,0.488866 0.75426,1.171365 0.76117,1.810076 -0.18807,4.056913 -0.93048,2.202407 -2.68835,2.910835 -1.35427,0.549827 -2.81524,0.05975 l 0.29497,-0.698169 q 0.18111,0.03164 0.2941,0.01205 0.12202,-0.02325 0.24645,-0.105316 0.28131,-0.187826 0.50387,-0.714627 l 2.39725,-5.674215 q 0.14212,-0.336391 0.111,-0.581414 -0.0199,-0.165465 -0.0956,-0.287214 -0.0694,-0.119068 -0.23663,-0.272011 z"
         style="font-size:14.11111069px;stroke:none;stroke-opacity:1;fill:#00a0ff;fill-opacity:1"
         id="path914" />
      <path
         d="m 135.65134,81.354951 -1.52515,7.705136 q -0.0479,0.266924 0.0549,0.484199 0.0893,0.189592 0.0883,0.292941 0.005,0.107532 -0.0833,0.22251 -0.11294,0.14783 -0.28937,0.151774 -0.15164,0.0055 -0.45278,-0.224521 l -2.56786,-1.961808 q -0.29566,-0.22588 -0.35398,-0.331134 -0.12889,-0.228531 0.0217,-0.425637 0.0544,-0.07118 0.13035,-0.09117 0.0802,-0.02547 0.24275,-0.02265 0.29073,0.0053 0.37309,-0.11382 0.0656,-0.09726 0.11478,-0.354528 l 1.44864,-7.468784 q 0.0389,-0.187075 0.0208,-0.322289 -0.0139,-0.140689 -0.0896,-0.302599 -0.0677,-0.138411 -0.0613,-0.237577 0.0119,-0.09498 0.0997,-0.209962 0.12549,-0.164255 0.29066,-0.142115 0.17065,0.02632 0.47179,0.256386 l 2.55143,1.949259 q 0.27923,0.213331 0.34531,0.376534 0.0716,0.167385 -0.0498,0.326165 -0.1213,0.158781 -0.39401,0.141197 -0.12814,-0.0025 -0.19445,0.01619 -0.0567,0.01741 -0.11104,0.08859 -0.0586,0.07665 -0.0817,0.197719 z m 0.0732,2.45779 0.1577,-0.84199 0.70399,-0.285897 q 0.24206,-0.101204 0.34246,-0.232608 0.092,-0.120454 0.10321,-0.293994 0.0167,-0.169358 -0.062,-0.316135 l -0.1247,-0.234006 q -0.0338,-0.06921 -0.0191,-0.179322 0.0202,-0.105933 0.0788,-0.182585 0.10039,-0.131405 0.25203,-0.136947 0.15164,-0.0055 0.30494,0.111581 l 1.58233,1.208875 q 0.1533,0.117123 0.19748,0.263594 0.0538,0.145178 -0.0298,0.254682 -0.10039,0.131404 -0.27424,0.154664 -0.0634,0.0036 -0.33453,-0.03881 -0.55187,-0.08346 -1.11874,0.125106 z m -4.36204,0.352593 -0.17573,0.854233 -0.76194,0.29365 q -0.4204,0.164389 -0.55844,0.34507 -0.20078,0.262808 0.003,0.609142 0.11406,0.191191 0.12409,0.302906 0.01,0.111714 -0.0778,0.226693 -0.11713,0.153305 -0.32382,0.151467 -0.0786,6.8e-4 -0.14715,-0.03438 -0.0686,-0.03506 -0.23833,-0.164734 l -1.41259,-1.079204 q -0.17521,-0.133855 -0.22486,-0.284508 -0.04,-0.151946 0.0604,-0.28335 0.0795,-0.104029 0.1899,-0.123718 0.12008,-0.02098 0.32487,0.0401 0.53195,0.154942 1.03251,-0.03492 z"
         style="font-size:14.11111069px;stroke:none;stroke-opacity:1;fill:#00a0ff;fill-opacity:1"
         id="path916" />
    </g>
    <g
       aria-label="       Motors"
       style="font-style:normal;font-variant:normal;font-weight:normal;font-stretch:normal;font-size:12.69999981px;line-height:1.25;font-family:Stencil;-inkscape-font-specification:Stencil;letter-spacing:0px;word-spacing:0px;fill:#00a0ff;fill-opacity:1;stroke:none;stroke-width:0.26458332;stroke-opacity:1"
       id="text837">
      <path
         d="m 73.877817,105.43459 2.93824,0.85189 0.178676,0.0518 q 0.496325,0.1439 0.396553,0.48802 -0.07867,0.27132 -0.368315,0.2806 -0.239488,0.009 -0.28495,0.0178 -0.03693,0.004 -0.0939,0.0517 -0.110111,0.0829 -0.177265,0.31448 l -1.920603,6.62427 q -0.06715,0.23162 -0.01844,0.36053 0.02244,0.0711 0.04977,0.10051 0.03587,0.0247 0.233146,0.16086 0.239763,0.16278 0.161097,0.4341 -0.09977,0.34412 -0.596096,0.20022 l -0.178676,-0.0518 -2.944858,-0.85382 -0.218382,-0.0633 q -0.291177,-0.0844 -0.41844,-0.21459 -0.118727,-0.13485 -0.06692,-0.31353 0.08442,-0.29118 0.423175,-0.27188 0.277276,0.009 0.327437,0.009 0.05208,-0.006 0.115671,-0.0525 0.133801,-0.0903 0.20863,-0.34842 z m -2.435298,-0.70608 0.227297,4.09049 1.157097,-1.83823 -0.637003,2.19707 -3.015659,4.68546 -0.350736,-0.10169 -0.359245,-8.36137 q -0.02107,-0.4222 -0.128284,-0.59676 -0.06109,-0.11097 -0.26134,-0.21208 -0.403286,-0.21736 -0.311189,-0.53501 0.04989,-0.17205 0.195865,-0.23017 0.154516,-0.0628 0.386134,0.004 z m -3.450245,2.29968 0.122029,2.20191 -0.577524,1.99191 q -0.08826,0.30442 -0.10678,0.44252 -0.0119,0.14003 0.02146,0.32188 0.05455,0.33147 0.257191,0.54805 l 0.198805,0.22981 q 0.207341,0.22512 0.153618,0.41042 -0.09785,0.3375 -0.594177,0.19359 l -1.661032,-0.48159 q -0.496324,-0.1439 -0.40039,-0.47478 0.0307,-0.10588 0.08575,-0.14731 0.06359,-0.0461 0.210433,-0.0825 0.849681,-0.18408 1.133646,-1.1635 z"
         style="font-size:14.11111069px;stroke:none;stroke-opacity:1;fill:#00a0ff;fill-opacity:1"
         id="path886" />
      <path
         d="m 80.819554,107.35074 q -0.365048,0.0749 -0.537566,0.26668 -0.172517,0.19183 -0.228995,0.60136 l -0.841515,6.10208 q -0.08283,0.60066 0.04709,0.86897 0.101448,0.22265 0.43049,0.35845 l -0.103542,0.75081 q -1.498338,-0.33183 -2.381924,-1.49003 -1.14838,-1.50772 -0.821751,-3.8762 0.163785,-1.18765 0.643671,-2.09523 0.487653,-0.91346 1.269284,-1.4873 0.596167,-0.43944 1.240355,-0.62186 0.644188,-0.18242 1.386059,-0.11489 z m 0.559699,0.0772 0.101659,-0.73717 q 0.732458,0.13579 1.303225,0.48576 0.577593,0.35092 1.032566,0.93532 1.205104,1.55031 0.871887,3.96657 -0.326629,2.36848 -1.84023,3.5091 -1.165032,0.88264 -2.703141,0.78877 l 0.103542,-0.75082 q 0.183113,-0.0165 0.287143,-0.0647 0.111797,-0.0541 0.210647,-0.1657 0.222884,-0.25444 0.301011,-0.82096 l 0.841515,-6.10208 q 0.04989,-0.36175 -0.04379,-0.59029 -0.06214,-0.15463 -0.166879,-0.25254 -0.09791,-0.097 -0.299153,-0.20123 z"
         style="font-size:14.11111069px;stroke:none;stroke-opacity:1;fill:#00a0ff;fill-opacity:1"
         id="path888" />
      <path
         d="m 90.405158,107.55406 -0.303749,8.09027 q -0.01008,0.26853 0.0888,0.38946 0.0525,0.0709 0.09992,0.0934 0.04768,0.0156 0.313623,0.0945 0.327653,0.0881 0.316278,0.3911 -0.0067,0.17902 -0.189876,0.28247 -0.133924,0.0777 -0.443764,0.0661 l -0.227216,-0.009 -3.070862,-0.1153 -0.227216,-0.009 q -0.302955,-0.0114 -0.457957,-0.10683 -0.147858,-0.10208 -0.140878,-0.28799 0.01137,-0.30295 0.344714,-0.36628 0.271113,-0.0588 0.319828,-0.0707 0.04897,-0.0189 0.09976,-0.0859 0.107675,-0.11318 0.117757,-0.38171 l 0.303749,-8.09027 z m 2.382327,0.0894 -0.10573,2.81611 q -0.0075,0.19967 -0.129201,0.31921 -0.114819,0.1198 -0.293838,0.11308 -0.172133,-0.006 -0.285048,-0.12102 -0.10577,-0.12119 -0.1327,-0.32215 l -0.05309,-0.4226 q -0.07924,-0.64421 -0.357729,-1.12353 -0.175047,-0.29616 -0.484793,-0.49396 l 0.03128,-0.83312 z m -7.807975,-0.29315 1.810844,0.068 -0.03128,0.83313 q -0.330591,0.17375 -0.520467,0.45621 -0.313649,0.45709 -0.44097,1.09355 l -0.08462,0.41742 q -0.04192,0.19838 -0.163369,0.31104 -0.114301,0.10603 -0.286435,0.0996 -0.179018,-0.007 -0.291416,-0.13506 -0.105512,-0.12807 -0.09802,-0.32774 z"
         style="font-size:14.11111069px;stroke:none;stroke-opacity:1;fill:#00a0ff;fill-opacity:1"
         id="path890" />
      <path
         d="m 96.418341,108.00059 q -0.344022,0.14322 -0.47671,0.36448 -0.132688,0.22125 -0.109878,0.63403 l 0.339872,6.15045 q 0.03345,0.60541 0.212254,0.84396 0.142119,0.19917 0.491046,0.26959 l 0.04182,0.75677 q -1.534135,-0.0394 -2.622735,-1.00749 -1.415293,-1.26052 -1.547212,-3.64778 -0.06615,-1.19706 0.231491,-2.17961 0.30414,-0.98981 0.961732,-1.70241 0.501224,-0.54525 1.09869,-0.8474 0.597466,-0.30214 1.338572,-0.3776 z m 0.564135,-0.0312 -0.04106,-0.74301 q 0.744908,-0.007 1.372028,0.22781 0.633999,0.2341 1.192248,0.7208 1.479107,1.2915 1.613697,3.72692 0.13191,2.38725 -1.135873,3.79604 -0.974929,1.08898 -2.502638,1.29072 l -0.04182,-0.75677 q 0.176591,-0.0512 0.269486,-0.1184 0.09939,-0.0745 0.175107,-0.2029 0.170164,-0.29233 0.13861,-0.86335 l -0.339872,-6.15044 q -0.02015,-0.36463 -0.155769,-0.57105 -0.09054,-0.13992 -0.212057,-0.21601 -0.114637,-0.0765 -0.332089,-0.14036 z"
         style="font-size:14.11111069px;stroke:none;stroke-opacity:1;fill:#00a0ff;fill-opacity:1"
         id="path892" />
      <path
         d="m 104.43244,106.63017 1.30747,7.9897 q 0.0434,0.26519 0.16431,0.3641 0.0655,0.0591 0.11646,0.0717 0.0498,0.006 0.32614,0.0304 0.33863,0.0214 0.38759,0.32058 0.0289,0.17679 -0.13006,0.31452 -0.11584,0.10274 -0.41503,0.1517 l -0.23119,0.0378 -3.03269,0.49628 -0.17679,0.0289 q -0.24479,0.0401 -0.39525,-0.0261 -0.14477,-0.074 -0.17259,-0.24405 -0.0456,-0.27879 0.2119,-0.41169 0.21215,-0.11152 0.24392,-0.13068 0.0375,-0.0271 0.0683,-0.0949 0.0638,-0.12215 0.0249,-0.36014 l -1.11386,-6.80655 q -0.0389,-0.23799 -0.13835,-0.33343 -0.0508,-0.0545 -0.0938,-0.0615 -0.0373,-0.0148 -0.27396,-0.0529 -0.28646,-0.0439 -0.33208,-0.32267 -0.0278,-0.17 0.0869,-0.27954 0.12042,-0.11745 0.36521,-0.15751 l 0.17679,-0.0289 z m 2.86199,4.39101 q 0.64115,-0.007 0.99326,0.0539 0.3589,0.06 0.66316,0.21264 0.32008,0.16406 0.51753,0.43196 0.20424,0.2668 0.25765,0.59319 l 0.23034,1.40754 q 0.0356,0.2176 0.1784,0.19423 0.0544,-0.009 0.084,-0.0417 0.0352,-0.0407 0.0888,-0.14019 0.13216,-0.25901 0.30896,-0.28795 0.11559,-0.0189 0.25122,0.0846 0.13562,0.10347 0.15565,0.22587 0.0345,0.21079 -0.11942,0.55016 -0.14823,0.33146 -0.40848,0.61841 -0.24207,0.27002 -0.55288,0.41863 -0.30969,0.1554 -0.75168,0.22773 -0.89756,0.14688 -1.4842,-0.28075 -0.58775,-0.43444 -0.73797,-1.35241 l -0.18694,-1.14235 q -0.0623,-0.38079 -0.0791,-0.44088 -0.0785,-0.26642 -0.26717,-0.43802 -0.23614,-0.20572 -0.61,-0.18643 l -0.11906,-0.72758 q 0.35828,-0.11448 0.49242,-0.27607 0.11596,-0.14465 0.13797,-0.30883 0.0288,-0.1653 -0.0213,-0.47129 l -0.29488,-1.80193 q -0.0701,-0.42838 -0.27459,-0.61136 -0.19769,-0.18408 -0.6529,-0.23526 l -0.12351,-0.75478 0.17679,-0.0289 q 0.75477,-0.12351 1.29405,-0.15591 0.80101,-0.0543 1.49212,0.28645 0.99425,0.4866 1.18564,1.65616 0.1569,0.95876 -0.34133,1.66866 -0.20931,0.29956 -0.52259,0.51839 -0.30648,0.21772 -0.95987,0.5341 z"
         style="font-size:14.11111069px;stroke:none;stroke-opacity:1;fill:#00a0ff;fill-opacity:1"
         id="path894" />
      <path
         d="m 112.32156,104.73473 0.22251,0.76049 q -0.37711,0.23238 -0.52568,0.53429 -0.14389,0.29337 -0.0433,0.63725 0.0968,0.33064 0.34882,0.52969 0.25014,0.19244 0.71932,0.29925 0.32224,0.0708 1.42672,0.21432 0.67063,0.0838 1.05658,0.20057 0.39063,0.10826 0.77254,0.33393 1.02025,0.59169 1.35111,1.7225 0.2496,0.85307 0.0334,1.68449 -0.2162,0.83141 -0.83882,1.45151 -0.33486,0.32771 -0.77616,0.58605 -0.43276,0.26302 -0.84276,0.38298 l -0.22058,-0.75387 q 0.5347,-0.30721 0.7144,-0.62541 0.18438,-0.32675 0.0606,-0.74998 -0.12964,-0.44307 -0.6251,-0.66424 -0.32836,-0.14083 -1.16382,-0.24816 -0.91788,-0.11911 -1.26657,-0.1822 -0.34209,-0.065 -0.67981,-0.18876 -1.50251,-0.52238 -1.93399,-1.99707 -0.22057,-0.75387 -0.0955,-1.47965 0.12312,-0.7324 0.56445,-1.28509 0.61506,-0.76864 1.74168,-1.16289 z m 0.74494,0.60763 -0.21284,-0.72742 q 0.40452,-0.0896 0.7187,-0.0954 0.31226,-0.0124 0.91369,0.0557 0.14774,0.0142 0.23371,-0.0109 0.12564,-0.0368 0.16001,-0.14014 l 0.0894,-0.23434 q 0.0632,-0.17645 0.21534,-0.22095 0.17855,-0.0522 0.2966,0.0568 0.12273,0.10049 0.204,0.37824 l 0.6385,2.18227 q 0.0561,0.19177 -0.0195,0.35031 -0.071,0.14999 -0.24292,0.2003 -0.13226,0.0387 -0.26983,-0.0144 -0.075,-0.0355 -0.13596,-0.0966 -0.0563,-0.0697 -0.14159,-0.23856 -0.16755,-0.30275 -0.44671,-0.59438 -0.27916,-0.29163 -0.59656,-0.49311 -0.63286,-0.39633 -1.40397,-0.35737 z m 1.4362,8.12287 0.22058,0.75387 q -0.54227,0.15866 -1.28789,0.0394 -0.27757,-0.0408 -0.37982,-0.0468 -0.10226,-0.006 -0.18823,0.0192 -0.13226,0.0387 -0.18484,0.10434 -0.0545,0.059 -0.1497,0.27353 -0.0765,0.18031 -0.21534,0.22094 -0.37032,0.10835 -0.53672,-0.46036 l -0.70429,-2.40711 q -0.0542,-0.18516 0.0149,-0.34177 0.0671,-0.16321 0.22389,-0.21626 0.14355,-0.0492 0.24999,0.0202 0.11112,0.0608 0.23643,0.26824 0.31849,0.52421 0.74797,0.93698 0.43608,0.41084 0.92024,0.64249 0.49465,0.24294 1.03287,0.19315 z"
         style="font-size:14.11111069px;stroke:none;stroke-opacity:1;fill:#00a0ff;fill-opacity:1"
         id="path896" />
    </g>
    <path
       style="color:#000000;font-style:normal;font-variant:normal;font-weight:normal;font-stretch:normal;font-size:medium;line-height:normal;font-family:sans-serif;font-variant-ligatures:normal;font-variant-position:normal;font-variant-caps:normal;font-variant-numeric:normal;font-variant-alternates:normal;font-feature-settings:normal;text-indent:0;text-align:start;text-decoration:none;text-decoration-line:none;text-decoration-style:solid;text-decoration-color:#000000;letter-spacing:normal;word-spacing:normal;text-transform:none;writing-mode:lr-tb;direction:ltr;text-orientation:mixed;dominant-baseline:auto;baseline-shift:baseline;text-anchor:start;white-space:normal;shape-padding:0;clip-rule:nonzero;display:inline;overflow:visible;visibility:visible;opacity:1;isolation:auto;mix-blend-mode:normal;color-interpolation:sRGB;color-interpolation-filters:linearRGB;solid-color:#000000;solid-opacity:1;vector-effect:none;fill:#00a0ff;fill-opacity:1;fill-rule:nonzero;stroke:none;stroke-width:3;stroke-linecap:butt;stroke-linejoin:miter;stroke-miterlimit:4;stroke-dasharray:none;stroke-dashoffset:0;stroke-opacity:1;paint-order:markers fill stroke;color-rendering:auto;image-rendering:auto;shape-rendering:auto;text-rendering:auto;enable-background:accumulate"
       d="m 93.837891,62.310547 c -14.798481,0 -28.209727,3.216864 -38.044922,8.521484 -9.835196,5.30462 -16.251954,12.839902 -16.251953,21.455078 2e-6,8.615171 6.416758,16.152411 16.251953,21.457031 9.835195,5.30462 23.246443,8.51953 38.044922,8.51953 14.798479,0 28.211679,-3.21491 38.046879,-8.51953 9.83519,-5.30462 16.25195,-12.84186 16.25195,-21.457031 0,-8.615176 -6.41676,-16.150458 -16.25195,-21.455078 -9.8352,-5.30462 -23.2484,-8.521484 -38.046879,-8.521484 z m 0,3 c 14.361249,0 27.348989,3.160142 36.623049,8.162109 9.27405,5.001968 14.67578,11.702307 14.67578,18.814453 0,7.112146 -5.40173,13.814441 -14.67578,18.816411 -9.27406,5.00196 -22.2618,8.16015 -36.623049,8.16015 -14.361249,0 -27.347041,-3.15819 -36.621094,-8.16015 -9.274054,-5.00197 -14.67578,-11.704265 -14.675781,-18.816411 -10e-7,-7.112146 5.401727,-13.812485 14.675781,-18.814453 9.274053,-5.001967 22.259843,-8.162109 36.621094,-8.162109 z"
       id="path878"
       inkscape:connector-curvature="0" />
    <g
       id="g971"
       transform="matrix(0.00740593,0.00740593,0.00740593,-0.00740593,56.512991,93.883727)"
       style="fill:#916f6f;stroke:none;stroke-opacity:1">
      <path
         id="path969"
         d="m 4092,5065 c -287,-51 -511,-198 -607,-400 -46,-97 -70,-172 -121,-378 -72,-286 -173,-493 -358,-732 -26,-33 -468,-482 -984,-998 L 1085,1619 980,1566 C 922,1536 798,1480 704,1442 277,1267 151,1179 64,995 10,882 -3,814 2,675 7,548 18,506 74,390 117,299 250,167 347,117 c 315,-163 695,-59 875,239 26,44 92,174 146,289 131,279 156,328 208,405 65,99 1915,1941 2010,2002 163,106 346,183 639,268 325,94 417,140 545,269 101,101 178,202 249,326 68,119 94,188 95,255 1,49 -1,55 -21,58 -14,2 -111,-57 -298,-182 -187,-126 -285,-186 -303,-186 -66,0 -257,126 -330,217 -108,137 -167,399 -106,479 10,15 132,102 269,195 138,93 262,178 278,189 54,40 24,92 -68,120 -64,19 -346,22 -443,5 z M 618,1190 c 41,-25 99,-25 137,0 42,28 70,25 97,-11 55,-73 64,-79 118,-79 68,0 100,-30 100,-93 0,-50 24,-88 71,-113 45,-23 54,-58 28,-103 -28,-46 -28,-101 0,-139 11,-17 21,-35 21,-41 0,-26 -25,-60 -57,-75 -40,-19 -66,-70 -57,-113 4,-20 -1,-36 -16,-56 -18,-23 -29,-27 -69,-27 -54,0 -92,-23 -113,-68 -7,-14 -25,-33 -41,-42 -25,-14 -30,-13 -67,8 -49,28 -91,28 -139,0 -47,-27 -85,-19 -106,22 -28,53 -54,70 -110,70 -70,0 -95,23 -95,88 0,57 -17,83 -71,113 -50,29 -59,58 -30,109 27,48 27,91 -1,139 -28,48 -19,85 25,107 50,25 67,52 67,111 0,69 24,93 93,93 51,0 45,-5 131,93 29,32 41,33 84,7 z"
         inkscape:connector-curvature="0"
         style="stroke:none;stroke-opacity:1;fill:#916f6f" />
    </g>
  </g>
</svg>
