<?xml version="1.0" encoding="UTF-8" standalone="no"?>
<svg
   xmlns:dc="http://purl.org/dc/elements/1.1/"
   xmlns:cc="http://creativecommons.org/ns#"
   xmlns:rdf="http://www.w3.org/1999/02/22-rdf-syntax-ns#"
   xmlns:svg="http://www.w3.org/2000/svg"
   xmlns="http://www.w3.org/2000/svg"
   width="8.5in"
   height="14in"
   viewBox="0 0 215.9 355.6"
   version="1.1"
   id="svg1499">
  <defs
     id="defs1493" />
  <metadata
     id="metadata1496">
    <rdf:RDF>
      <cc:Work
         rdf:about="">
        <dc:format>image/svg+xml</dc:format>
        <dc:type
           rdf:resource="http://purl.org/dc/dcmitype/StillImage" />
        <dc:title></dc:title>
      </cc:Work>
    </rdf:RDF>
  </metadata>
  <g
     id="layer1">
    <path
       style="fill:none;stroke:#000000;stroke-width:0.264583px;stroke-linecap:butt;stroke-linejoin:miter;stroke-opacity:1"
       d="M 39.999999,108 40,101 45,97 h 6 l 5,4 -2e-6,7 L 55,109 v 1 l 1,1 h 0.999999 L 58,110 V 98.999999 99 c -4.571643,-1.784858 -5.000692,-5.977012 -4,-11 -0.334808,-1.313817 -1.315104,-1.352733 -3,0 v 6 c -1.911115,1.223589 -3.895437,1.439416 -6,0 v -6 c -1.708657,-1.377342 -2.663058,-1.288716 -3,0 1.149485,5.293613 0.322359,9.291989 -4,11 v 11 l 0.999998,1 H 40 l 1,-1 v -1 z"
       id="path2076" />
  </g>
</svg>
