<?xml version="1.0" encoding="UTF-8" standalone="no"?>
<svg
   xmlns:dc="http://purl.org/dc/elements/1.1/"
   xmlns:cc="http://creativecommons.org/ns#"
   xmlns:rdf="http://www.w3.org/1999/02/22-rdf-syntax-ns#"
   xmlns:svg="http://www.w3.org/2000/svg"
   xmlns="http://www.w3.org/2000/svg"
   xmlns:sodipodi="http://sodipodi.sourceforge.net/DTD/sodipodi-0.dtd"
   xmlns:inkscape="http://www.inkscape.org/namespaces/inkscape"
   width="8.5in"
   height="14in"
   viewBox="0 0 215.9 355.6"
   version="1.1"
   id="svg1499"
   sodipodi:docname="SpeedDriverClip3.svg"
   inkscape:version="1.0.2-2 (e86c870879, 2021-01-15)">
  <defs
     id="defs1493" />
  <sodipodi:namedview
     id="base"
     pagecolor="#ffffff"
     bordercolor="#666666"
     borderopacity="1.0"
     inkscape:pageopacity="0.0"
     inkscape:pageshadow="2"
     inkscape:zoom="6.8951138"
     inkscape:cx="193.78806"
     inkscape:cy="377.52217"
     inkscape:document-units="mm"
     inkscape:current-layer="layer1"
     inkscape:document-rotation="0"
     showgrid="true"
     units="in"
     inkscape:window-width="1566"
     inkscape:window-height="1033"
     inkscape:window-x="270"
     inkscape:window-y="0"
     inkscape:window-maximized="0">
    <inkscape:grid
       type="xygrid"
       id="grid2062"
       units="mm"
       spacingx="0.5"
       spacingy="1" />
  </sodipodi:namedview>
  <metadata
     id="metadata1496">
    <rdf:RDF>
      <cc:Work
         rdf:about="">
        <dc:format>image/svg+xml</dc:format>
        <dc:type
           rdf:resource="http://purl.org/dc/dcmitype/StillImage" />
        <dc:title></dc:title>
      </cc:Work>
    </rdf:RDF>
  </metadata>
  <g
     inkscape:label="Layer 1"
     inkscape:groupmode="layer"
     id="layer1">
    <path
       style="fill:none;stroke:#000000;stroke-width:0.264583px;stroke-linecap:butt;stroke-linejoin:miter;stroke-opacity:1"
       d="m 39.999999,108 10e-7,-4 3,-1 3,-6 h 4 l 3,6 3,1 -2e-6,4 L 55,109 v 1 l 1,1 H 56.999999 58 v -6 -2 c -0.834447,-2.09873 -1.424698,-1.59831 -2,-2 -3,-1 -3.2503,-3.219403 -2,-7 -0.07273,-0.810868 -0.502012,-1.822015 -2,0 v 0 c -1.870316,1.168168 -5.834561,1.490237 -8,0 v 0 c -0.812056,-0.713652 -1.928072,-1.839081 -2,0 0.865111,3.467545 1,6 -2,7 -0.564899,0.42376 -1.123105,-0.19038 -2,2 v 8 H 38.999998 40 l 1,-1 v -1 z"
       id="path2076"
       sodipodi:nodetypes="cccccccccccccccccccccccccccccc" />
  </g>
</svg>
