<?xml version="1.0" encoding="utf-8"?>
<!-- Generator: Adobe Illustrator 16.0.0, SVG Export Plug-In . SVG Version: 6.00 Build 0)  -->
<!DOCTYPE svg PUBLIC "-//W3C//DTD SVG 1.1//EN" "http://www.w3.org/Graphics/SVG/1.1/DTD/svg11.dtd">
<svg version="1.1" id="Layer_1" xmlns="http://www.w3.org/2000/svg" xmlns:xlink="http://www.w3.org/1999/xlink" x="0px" y="0px"
	 width="56.693px" height="56.693px" viewBox="0 0 56.693 56.693" enable-background="new 0 0 56.693 56.693" xml:space="preserve">
<path fill="#474A56" d="M50.344,26.796l-4.354-1.146c-0.13-0.616-0.294-1.222-0.485-1.811l3.197-3.171
	c1.029-1.09,1.676-2.316,0.955-3.566c-0.721-1.246-2.189-1.303-3.566-0.954l-4.346,1.184c-0.418-0.463-0.859-0.905-1.322-1.323
	l1.186-4.346c0.345-1.46,0.292-2.845-0.957-3.567c-1.248-0.72-2.55-0.032-3.566,0.957l-3.169,3.197
	c-0.588-0.191-1.193-0.342-1.807-0.473l-1.15-4.367C30.526,5.972,29.789,4.8,28.349,4.8c-1.442,0-2.227,1.244-2.612,2.609
	l-1.149,4.367c-0.611,0.129-1.218,0.28-1.807,0.471L19.61,9.049c-1.094-1.024-2.318-1.675-3.567-0.955
	c-1.249,0.724-1.306,2.192-0.955,3.567l1.186,4.344c-0.465,0.418-0.907,0.861-1.325,1.325l-4.345-1.184
	C9.143,15.8,7.757,15.853,7.036,17.1c-0.721,1.25-0.034,2.551,0.956,3.566l3.196,3.169c-0.191,0.591-0.354,1.195-0.485,1.812
	l-4.354,1.146c-1.437,0.433-2.609,1.17-2.609,2.609c0,1.441,1.244,2.227,2.609,2.611l4.354,1.147
	c0.131,0.615,0.294,1.219,0.485,1.81l-3.196,3.17c-1.029,1.092-1.677,2.317-0.956,3.567c0.722,1.248,2.192,1.304,3.567,0.955
	l4.345-1.186c0.418,0.463,0.86,0.905,1.325,1.324l-1.186,4.346c-0.347,1.459-0.294,2.846,0.954,3.565
	c1.25,0.722,2.551,0.035,3.566-0.955l3.17-3.198c0.591,0.192,1.195,0.354,1.811,0.487l1.146,4.354
	c0.432,1.434,1.17,2.606,2.612,2.606c1.439,0,2.224-1.243,2.609-2.606l1.146-4.355c0.615-0.131,1.219-0.293,1.811-0.485l3.17,3.198
	c1.091,1.029,2.317,1.677,3.566,0.955c1.248-0.721,1.303-2.19,0.956-3.565l-1.187-4.346c0.464-0.419,0.905-0.861,1.323-1.324
	l4.346,1.186c1.461,0.344,2.847,0.291,3.567-0.957c0.72-1.25,0.034-2.549-0.956-3.565l-3.197-3.17
	c0.191-0.593,0.355-1.193,0.485-1.81l4.354-1.147c1.438-0.431,2.61-1.17,2.61-2.611C52.954,27.966,51.709,27.181,50.344,26.796z
	 M28.346,36.864c-4.118,0-7.455-3.34-7.455-7.459c0-4.117,3.337-7.455,7.455-7.455c4.117,0,7.455,3.338,7.455,7.455
	C35.802,33.524,32.464,36.864,28.346,36.864z"/>
</svg>
