G04 #@! TF.FileFunction,Soldermask,Top*
%FSLAX46Y46*%
G04 Gerber Fmt 4.6, Leading zero omitted, Abs format (unit mm)*
G04 Created by KiCad (PCBNEW 4.0.7) date 08/17/18 12:34:18*
%MOMM*%
%LPD*%
G01*
G04 APERTURE LIST*
%ADD10C,0.100000*%
%ADD11R,1.900000X1.500000*%
%ADD12R,1.350000X0.400000*%
%ADD13R,1.900000X1.200000*%
%ADD14R,0.800000X0.800000*%
%ADD15R,0.400000X1.800000*%
%ADD16R,1.050000X1.400000*%
%ADD17R,1.250000X1.000000*%
%ADD18R,0.750000X0.800000*%
%ADD19R,1.000000X1.250000*%
%ADD20R,0.900000X0.500000*%
%ADD21R,0.500000X0.900000*%
%ADD22R,1.500000X0.550000*%
%ADD23R,0.550000X1.500000*%
%ADD24R,0.650000X1.060000*%
%ADD25R,0.450000X0.350000*%
%ADD26R,0.350000X0.450000*%
G04 APERTURE END LIST*
D10*
D11*
X143795000Y-103870000D03*
D12*
X146495000Y-102220000D03*
X146495000Y-101570000D03*
X146495000Y-104170000D03*
X146495000Y-103520000D03*
X146495000Y-102870000D03*
D11*
X143795000Y-101870000D03*
D13*
X143795000Y-105770000D03*
X143795000Y-99970000D03*
D14*
X161290000Y-110655000D03*
X161290000Y-109055000D03*
D15*
X157664000Y-106172000D03*
X156464000Y-106172000D03*
X155264000Y-106172000D03*
D16*
X166841000Y-90275000D03*
X166841000Y-93875000D03*
X165416000Y-90275000D03*
X165416000Y-93875000D03*
D17*
X147320000Y-91710000D03*
X147320000Y-93710000D03*
D18*
X147320000Y-95770000D03*
X147320000Y-97270000D03*
D19*
X152130000Y-106045000D03*
X150130000Y-106045000D03*
X145272000Y-96774000D03*
X143272000Y-96774000D03*
D14*
X163195000Y-110655000D03*
X163195000Y-109055000D03*
X165100000Y-110655000D03*
X165100000Y-109055000D03*
D20*
X166116000Y-100342000D03*
X166116000Y-101842000D03*
X166116000Y-103898000D03*
X166116000Y-105398000D03*
X148844000Y-102755000D03*
X148844000Y-104255000D03*
X148844000Y-99580000D03*
X148844000Y-101080000D03*
X166116000Y-98286000D03*
X166116000Y-96786000D03*
D21*
X143141000Y-90297000D03*
X144641000Y-90297000D03*
D22*
X151145000Y-93790000D03*
X151145000Y-94590000D03*
X151145000Y-95390000D03*
X151145000Y-96190000D03*
X151145000Y-96990000D03*
X151145000Y-97790000D03*
X151145000Y-98590000D03*
X151145000Y-99390000D03*
X151145000Y-100190000D03*
X151145000Y-100990000D03*
X151145000Y-101790000D03*
D23*
X152845000Y-103490000D03*
X153645000Y-103490000D03*
X154445000Y-103490000D03*
X155245000Y-103490000D03*
X156045000Y-103490000D03*
X156845000Y-103490000D03*
X157645000Y-103490000D03*
X158445000Y-103490000D03*
X159245000Y-103490000D03*
X160045000Y-103490000D03*
X160845000Y-103490000D03*
D22*
X162545000Y-101790000D03*
X162545000Y-100990000D03*
X162545000Y-100190000D03*
X162545000Y-99390000D03*
X162545000Y-98590000D03*
X162545000Y-97790000D03*
X162545000Y-96990000D03*
X162545000Y-96190000D03*
X162545000Y-95390000D03*
X162545000Y-94590000D03*
X162545000Y-93790000D03*
D23*
X160845000Y-92090000D03*
X160045000Y-92090000D03*
X159245000Y-92090000D03*
X158445000Y-92090000D03*
X157645000Y-92090000D03*
X156845000Y-92090000D03*
X156045000Y-92090000D03*
X155245000Y-92090000D03*
X154445000Y-92090000D03*
X153645000Y-92090000D03*
X152845000Y-92090000D03*
D24*
X145095000Y-92245000D03*
X144145000Y-92245000D03*
X143195000Y-92245000D03*
X143195000Y-94445000D03*
X145095000Y-94445000D03*
D25*
X155620000Y-97790000D03*
X158070000Y-97790000D03*
X155620000Y-97290000D03*
X158070000Y-97290000D03*
X155620000Y-96790000D03*
X158070000Y-96790000D03*
X158070000Y-98790000D03*
X158070000Y-98290000D03*
D26*
X156845000Y-99015000D03*
D25*
X155620000Y-98290000D03*
X155620000Y-98790000D03*
D26*
X157345000Y-99015000D03*
X156345000Y-99015000D03*
X156845000Y-96565000D03*
X157345000Y-96565000D03*
X156345000Y-96565000D03*
M02*
