G04 #@! TF.FileFunction,Soldermask,Top*
%FSLAX46Y46*%
G04 Gerber Fmt 4.6, Leading zero omitted, Abs format (unit mm)*
G04 Created by KiCad (PCBNEW 4.0.7) date 09/05/18 22:20:03*
%MOMM*%
%LPD*%
G01*
G04 APERTURE LIST*
%ADD10C,0.100000*%
%ADD11R,1.550000X1.300000*%
%ADD12R,0.400000X1.800000*%
%ADD13R,1.500000X1.250000*%
%ADD14R,1.250000X1.500000*%
%ADD15R,2.000000X1.600000*%
%ADD16R,3.500000X3.500000*%
%ADD17R,0.900000X0.800000*%
%ADD18R,1.500000X1.300000*%
%ADD19R,1.060000X0.650000*%
%ADD20R,1.450000X0.450000*%
%ADD21R,1.500000X0.550000*%
%ADD22R,0.550000X1.500000*%
%ADD23R,1.900000X1.500000*%
%ADD24C,1.450000*%
%ADD25R,1.350000X0.400000*%
%ADD26O,1.900000X1.200000*%
%ADD27R,1.900000X1.200000*%
%ADD28O,1.727200X1.727200*%
%ADD29C,3.200000*%
%ADD30R,2.000000X3.800000*%
%ADD31R,2.000000X1.500000*%
%ADD32R,1.700000X2.000000*%
%ADD33R,1.300000X1.500000*%
%ADD34R,0.500000X0.900000*%
%ADD35R,1.600000X2.000000*%
G04 APERTURE END LIST*
D10*
D11*
X109050000Y-83530000D03*
X109050000Y-79030000D03*
X117010000Y-79030000D03*
X117010000Y-83530000D03*
D12*
X157296000Y-98425000D03*
X158496000Y-98425000D03*
X159696000Y-98425000D03*
D13*
X138450000Y-105410000D03*
X140950000Y-105410000D03*
D14*
X128270000Y-87650000D03*
X128270000Y-90150000D03*
D15*
X129000000Y-116840000D03*
X125000000Y-116840000D03*
D13*
X135870000Y-84455000D03*
X133370000Y-84455000D03*
X140950000Y-115570000D03*
X138450000Y-115570000D03*
D15*
X125000000Y-101600000D03*
X129000000Y-101600000D03*
D16*
X118618000Y-121666000D03*
X112618000Y-121666000D03*
X115618000Y-126366000D03*
D17*
X129270000Y-96200000D03*
X129270000Y-94300000D03*
X127270000Y-95250000D03*
D18*
X118190000Y-95250000D03*
X115490000Y-95250000D03*
X118190000Y-87630000D03*
X115490000Y-87630000D03*
D19*
X138600000Y-109540000D03*
X138600000Y-110490000D03*
X138600000Y-111440000D03*
X140800000Y-111440000D03*
X140800000Y-109540000D03*
D20*
X132420000Y-88560000D03*
X132420000Y-89210000D03*
X132420000Y-89860000D03*
X132420000Y-90510000D03*
X136820000Y-90510000D03*
X136820000Y-89860000D03*
X136820000Y-89210000D03*
X136820000Y-88560000D03*
D21*
X163180000Y-113220000D03*
X163180000Y-112420000D03*
X163180000Y-111620000D03*
X163180000Y-110820000D03*
X163180000Y-110020000D03*
X163180000Y-109220000D03*
X163180000Y-108420000D03*
X163180000Y-107620000D03*
X163180000Y-106820000D03*
X163180000Y-106020000D03*
X163180000Y-105220000D03*
D22*
X161480000Y-103520000D03*
X160680000Y-103520000D03*
X159880000Y-103520000D03*
X159080000Y-103520000D03*
X158280000Y-103520000D03*
X157480000Y-103520000D03*
X156680000Y-103520000D03*
X155880000Y-103520000D03*
X155080000Y-103520000D03*
X154280000Y-103520000D03*
X153480000Y-103520000D03*
D21*
X151780000Y-105220000D03*
X151780000Y-106020000D03*
X151780000Y-106820000D03*
X151780000Y-107620000D03*
X151780000Y-108420000D03*
X151780000Y-109220000D03*
X151780000Y-110020000D03*
X151780000Y-110820000D03*
X151780000Y-111620000D03*
X151780000Y-112420000D03*
X151780000Y-113220000D03*
D22*
X153480000Y-114920000D03*
X154280000Y-114920000D03*
X155080000Y-114920000D03*
X155880000Y-114920000D03*
X156680000Y-114920000D03*
X157480000Y-114920000D03*
X158280000Y-114920000D03*
X159080000Y-114920000D03*
X159880000Y-114920000D03*
X160680000Y-114920000D03*
X161480000Y-114920000D03*
D23*
X108870000Y-92440000D03*
D24*
X111570000Y-88940000D03*
D25*
X111570000Y-90790000D03*
X111570000Y-90140000D03*
X111570000Y-92740000D03*
X111570000Y-92090000D03*
X111570000Y-91440000D03*
D24*
X111570000Y-93940000D03*
D23*
X108870000Y-90440000D03*
D26*
X108870000Y-87940000D03*
X108870000Y-94940000D03*
D27*
X108870000Y-94340000D03*
X108870000Y-88540000D03*
D28*
X170307000Y-104140000D03*
X172847000Y-104140000D03*
X172847000Y-101600000D03*
X170307000Y-101600000D03*
X172847000Y-99060000D03*
X157480000Y-127000000D03*
X152400000Y-127000000D03*
X149860000Y-127000000D03*
X147320000Y-127000000D03*
X144780000Y-127000000D03*
X142240000Y-127000000D03*
X139700000Y-127000000D03*
X137160000Y-127000000D03*
X170180000Y-78740000D03*
X167640000Y-78740000D03*
X165100000Y-78740000D03*
X162560000Y-78740000D03*
X160020000Y-78740000D03*
X157480000Y-78740000D03*
X154940000Y-78740000D03*
X152400000Y-78740000D03*
X133096000Y-78740000D03*
X148336000Y-78740000D03*
X145796000Y-78740000D03*
X143256000Y-78740000D03*
D29*
X172720000Y-121920000D03*
X172720000Y-93980000D03*
X121920000Y-78740000D03*
X120650000Y-127000000D03*
D28*
X125476000Y-78740000D03*
X128016000Y-78740000D03*
X130556000Y-78740000D03*
X135636000Y-78740000D03*
X138176000Y-78740000D03*
X140716000Y-78740000D03*
X134620000Y-127000000D03*
X160020000Y-127000000D03*
X162560000Y-127000000D03*
X165100000Y-127000000D03*
X167640000Y-127000000D03*
X170180000Y-127000000D03*
X170307000Y-99060000D03*
D30*
X123850000Y-109220000D03*
D31*
X130150000Y-109220000D03*
X130150000Y-106920000D03*
X130150000Y-111520000D03*
D18*
X111840000Y-111760000D03*
X109140000Y-111760000D03*
X111840000Y-100330000D03*
X109140000Y-100330000D03*
X111840000Y-104140000D03*
X109140000Y-104140000D03*
X111840000Y-107950000D03*
X109140000Y-107950000D03*
D32*
X123190000Y-93440000D03*
X123190000Y-89440000D03*
D33*
X134620000Y-100250000D03*
X134620000Y-102950000D03*
X134620000Y-94535000D03*
X134620000Y-97235000D03*
D18*
X115490000Y-111760000D03*
X118190000Y-111760000D03*
X118190000Y-92710000D03*
X115490000Y-92710000D03*
X118190000Y-90170000D03*
X115490000Y-90170000D03*
X118190000Y-100330000D03*
X115490000Y-100330000D03*
X118190000Y-104140000D03*
X115490000Y-104140000D03*
X115490000Y-107950000D03*
X118190000Y-107950000D03*
D34*
X158865000Y-101219000D03*
X157365000Y-101219000D03*
D35*
X147320000Y-113570000D03*
X147320000Y-117570000D03*
M02*
