G04 #@! TF.FileFunction,Copper,L1,Top,Signal*
%FSLAX46Y46*%
G04 Gerber Fmt 4.6, Leading zero omitted, Abs format (unit mm)*
G04 Created by KiCad (PCBNEW 4.0.7) date 09/05/18 22:20:03*
%MOMM*%
%LPD*%
G01*
G04 APERTURE LIST*
%ADD10C,0.100000*%
%ADD11R,1.550000X1.300000*%
%ADD12R,0.400000X1.800000*%
%ADD13R,1.500000X1.250000*%
%ADD14R,1.250000X1.500000*%
%ADD15R,2.000000X1.600000*%
%ADD16R,3.500000X3.500000*%
%ADD17R,0.900000X0.800000*%
%ADD18R,1.500000X1.300000*%
%ADD19R,1.060000X0.650000*%
%ADD20R,1.450000X0.450000*%
%ADD21R,1.500000X0.550000*%
%ADD22R,0.550000X1.500000*%
%ADD23R,1.900000X1.500000*%
%ADD24C,1.450000*%
%ADD25R,1.350000X0.400000*%
%ADD26O,1.900000X1.200000*%
%ADD27R,1.900000X1.200000*%
%ADD28O,1.727200X1.727200*%
%ADD29R,2.000000X3.800000*%
%ADD30R,2.000000X1.500000*%
%ADD31R,1.700000X2.000000*%
%ADD32R,1.300000X1.500000*%
%ADD33R,0.500000X0.900000*%
%ADD34R,1.600000X2.000000*%
%ADD35C,0.600000*%
%ADD36C,0.406400*%
%ADD37C,0.609600*%
%ADD38C,0.304800*%
%ADD39C,0.200000*%
G04 APERTURE END LIST*
D10*
D11*
X109050000Y-83530000D03*
X109050000Y-79030000D03*
X117010000Y-79030000D03*
X117010000Y-83530000D03*
D12*
X157296000Y-98425000D03*
X158496000Y-98425000D03*
X159696000Y-98425000D03*
D13*
X138450000Y-105410000D03*
X140950000Y-105410000D03*
D14*
X128270000Y-87650000D03*
X128270000Y-90150000D03*
D15*
X129000000Y-116840000D03*
X125000000Y-116840000D03*
D13*
X135870000Y-84455000D03*
X133370000Y-84455000D03*
X140950000Y-115570000D03*
X138450000Y-115570000D03*
D15*
X125000000Y-101600000D03*
X129000000Y-101600000D03*
D16*
X118618000Y-121666000D03*
X112618000Y-121666000D03*
X115618000Y-126366000D03*
D17*
X129270000Y-96200000D03*
X129270000Y-94300000D03*
X127270000Y-95250000D03*
D18*
X118190000Y-95250000D03*
X115490000Y-95250000D03*
X118190000Y-87630000D03*
X115490000Y-87630000D03*
D19*
X138600000Y-109540000D03*
X138600000Y-110490000D03*
X138600000Y-111440000D03*
X140800000Y-111440000D03*
X140800000Y-109540000D03*
D20*
X132420000Y-88560000D03*
X132420000Y-89210000D03*
X132420000Y-89860000D03*
X132420000Y-90510000D03*
X136820000Y-90510000D03*
X136820000Y-89860000D03*
X136820000Y-89210000D03*
X136820000Y-88560000D03*
D21*
X163180000Y-113220000D03*
X163180000Y-112420000D03*
X163180000Y-111620000D03*
X163180000Y-110820000D03*
X163180000Y-110020000D03*
X163180000Y-109220000D03*
X163180000Y-108420000D03*
X163180000Y-107620000D03*
X163180000Y-106820000D03*
X163180000Y-106020000D03*
X163180000Y-105220000D03*
D22*
X161480000Y-103520000D03*
X160680000Y-103520000D03*
X159880000Y-103520000D03*
X159080000Y-103520000D03*
X158280000Y-103520000D03*
X157480000Y-103520000D03*
X156680000Y-103520000D03*
X155880000Y-103520000D03*
X155080000Y-103520000D03*
X154280000Y-103520000D03*
X153480000Y-103520000D03*
D21*
X151780000Y-105220000D03*
X151780000Y-106020000D03*
X151780000Y-106820000D03*
X151780000Y-107620000D03*
X151780000Y-108420000D03*
X151780000Y-109220000D03*
X151780000Y-110020000D03*
X151780000Y-110820000D03*
X151780000Y-111620000D03*
X151780000Y-112420000D03*
X151780000Y-113220000D03*
D22*
X153480000Y-114920000D03*
X154280000Y-114920000D03*
X155080000Y-114920000D03*
X155880000Y-114920000D03*
X156680000Y-114920000D03*
X157480000Y-114920000D03*
X158280000Y-114920000D03*
X159080000Y-114920000D03*
X159880000Y-114920000D03*
X160680000Y-114920000D03*
X161480000Y-114920000D03*
D23*
X108870000Y-92440000D03*
D24*
X111570000Y-88940000D03*
D25*
X111570000Y-90790000D03*
X111570000Y-90140000D03*
X111570000Y-92740000D03*
X111570000Y-92090000D03*
X111570000Y-91440000D03*
D24*
X111570000Y-93940000D03*
D23*
X108870000Y-90440000D03*
D26*
X108870000Y-87940000D03*
X108870000Y-94940000D03*
D27*
X108870000Y-94340000D03*
X108870000Y-88540000D03*
D28*
X170307000Y-104140000D03*
X172847000Y-104140000D03*
X172847000Y-101600000D03*
X170307000Y-101600000D03*
X172847000Y-99060000D03*
X157480000Y-127000000D03*
X152400000Y-127000000D03*
X149860000Y-127000000D03*
X147320000Y-127000000D03*
X144780000Y-127000000D03*
X142240000Y-127000000D03*
X139700000Y-127000000D03*
X137160000Y-127000000D03*
X170180000Y-78740000D03*
X167640000Y-78740000D03*
X165100000Y-78740000D03*
X162560000Y-78740000D03*
X160020000Y-78740000D03*
X157480000Y-78740000D03*
X154940000Y-78740000D03*
X152400000Y-78740000D03*
X133096000Y-78740000D03*
X148336000Y-78740000D03*
X145796000Y-78740000D03*
X143256000Y-78740000D03*
X125476000Y-78740000D03*
X128016000Y-78740000D03*
X130556000Y-78740000D03*
X135636000Y-78740000D03*
X138176000Y-78740000D03*
X140716000Y-78740000D03*
X134620000Y-127000000D03*
X160020000Y-127000000D03*
X162560000Y-127000000D03*
X165100000Y-127000000D03*
X167640000Y-127000000D03*
X170180000Y-127000000D03*
X170307000Y-99060000D03*
D29*
X123850000Y-109220000D03*
D30*
X130150000Y-109220000D03*
X130150000Y-106920000D03*
X130150000Y-111520000D03*
D18*
X111840000Y-111760000D03*
X109140000Y-111760000D03*
X111840000Y-100330000D03*
X109140000Y-100330000D03*
X111840000Y-104140000D03*
X109140000Y-104140000D03*
X111840000Y-107950000D03*
X109140000Y-107950000D03*
D31*
X123190000Y-93440000D03*
X123190000Y-89440000D03*
D32*
X134620000Y-100250000D03*
X134620000Y-102950000D03*
X134620000Y-94535000D03*
X134620000Y-97235000D03*
D18*
X115490000Y-111760000D03*
X118190000Y-111760000D03*
X118190000Y-92710000D03*
X115490000Y-92710000D03*
X118190000Y-90170000D03*
X115490000Y-90170000D03*
X118190000Y-100330000D03*
X115490000Y-100330000D03*
X118190000Y-104140000D03*
X115490000Y-104140000D03*
X115490000Y-107950000D03*
X118190000Y-107950000D03*
D33*
X158865000Y-101219000D03*
X157365000Y-101219000D03*
D34*
X147320000Y-113570000D03*
X147320000Y-117570000D03*
D35*
X157480000Y-109220000D03*
X160147000Y-109220000D03*
X154305000Y-109093000D03*
X157353000Y-112903000D03*
X157480000Y-105220000D03*
X168719500Y-96583500D03*
X161798000Y-97409000D03*
X162560000Y-118237000D03*
X125984000Y-83185000D03*
X168529000Y-108458000D03*
X117221000Y-97536000D03*
X149733000Y-82042000D03*
X163703000Y-80264000D03*
X171577000Y-113284000D03*
X147320000Y-90043000D03*
X161798000Y-82931000D03*
X160147000Y-87757000D03*
X160909000Y-88392000D03*
X141859000Y-80264000D03*
X166497000Y-107569000D03*
X122682000Y-100330000D03*
X153416000Y-100838000D03*
X120142000Y-100330000D03*
X119888000Y-84709000D03*
X139700000Y-120523000D03*
X161798000Y-100076000D03*
X166624000Y-111633000D03*
X120015000Y-93726000D03*
X165354000Y-111633000D03*
X120015000Y-91440000D03*
X152527000Y-114300000D03*
X149987000Y-98552000D03*
X149987000Y-102997000D03*
X169291000Y-109982000D03*
X163703000Y-119253000D03*
X141351000Y-113538000D03*
X161163000Y-98171000D03*
X136525000Y-105410000D03*
X132715000Y-104775000D03*
X127254000Y-113030000D03*
X127000000Y-110998000D03*
X127000000Y-106172000D03*
X127000000Y-109220000D03*
X132715000Y-109220000D03*
X132715000Y-113030000D03*
X123952000Y-113030000D03*
X121285000Y-109220000D03*
X121285000Y-106045000D03*
X121285000Y-113030000D03*
X123850000Y-106172000D03*
X136906000Y-96647000D03*
X129159000Y-85725000D03*
X142494000Y-115443000D03*
X142240000Y-111760000D03*
X133985000Y-86487000D03*
X140970000Y-91440000D03*
X115443000Y-106045000D03*
X139065000Y-88519000D03*
X131064000Y-86233000D03*
X131064000Y-94869000D03*
D36*
X157480000Y-109220000D02*
X160147000Y-109220000D01*
X157480000Y-109220000D02*
X154432000Y-109220000D01*
X154432000Y-109220000D02*
X154305000Y-109093000D01*
X157480000Y-109220000D02*
X157480000Y-105220000D01*
X157353000Y-109347000D02*
X157480000Y-109220000D01*
X157353000Y-112903000D02*
X157353000Y-109347000D01*
D37*
X147320000Y-119888000D02*
X147320000Y-117570000D01*
X147320000Y-127000000D02*
X147320000Y-119888000D01*
D36*
X154280000Y-114920000D02*
X154280000Y-116738000D01*
X154280000Y-116738000D02*
X153448000Y-117570000D01*
X153448000Y-117570000D02*
X147320000Y-117570000D01*
D38*
X168719500Y-96583500D02*
X168783000Y-96647000D01*
X160782000Y-97409000D02*
X160655000Y-97409000D01*
X159004000Y-96901000D02*
X158496000Y-97409000D01*
X160147000Y-96901000D02*
X159004000Y-96901000D01*
X160655000Y-97409000D02*
X160147000Y-96901000D01*
X161798000Y-97409000D02*
X160782000Y-97409000D01*
X160782000Y-97409000D02*
X160401000Y-97790000D01*
D37*
X134620000Y-94535000D02*
X136699000Y-94535000D01*
X140950000Y-98786000D02*
X140950000Y-105410000D01*
X136699000Y-94535000D02*
X140950000Y-98786000D01*
X132334000Y-98933000D02*
X132334000Y-95377000D01*
X129000000Y-100997000D02*
X132334000Y-98933000D01*
X133176000Y-94535000D02*
X134620000Y-94535000D01*
X132334000Y-95377000D02*
X133176000Y-94535000D01*
D36*
X133370000Y-84455000D02*
X127889000Y-84455000D01*
X127361000Y-90150000D02*
X125984000Y-88773000D01*
X125984000Y-88773000D02*
X125984000Y-86360000D01*
X127361000Y-90150000D02*
X128270000Y-90150000D01*
X127889000Y-84455000D02*
X125984000Y-86360000D01*
X132420000Y-90510000D02*
X130388000Y-90510000D01*
X130388000Y-90510000D02*
X130028000Y-90150000D01*
X130028000Y-90150000D02*
X128270000Y-90150000D01*
D38*
X158496000Y-98425000D02*
X158496000Y-97409000D01*
X160401000Y-98298000D02*
X160401000Y-97790000D01*
X159080000Y-102413000D02*
X159080000Y-103520000D01*
X160401000Y-101092000D02*
X160401000Y-98298000D01*
X159080000Y-102413000D02*
X160401000Y-101092000D01*
D37*
X138450000Y-115570000D02*
X138450000Y-114955000D01*
X138450000Y-114955000D02*
X137160000Y-113665000D01*
X137795000Y-110490000D02*
X138600000Y-110490000D01*
X137160000Y-111125000D02*
X137795000Y-110490000D01*
X137160000Y-113665000D02*
X137160000Y-111125000D01*
X132715000Y-114935000D02*
X133477000Y-114935000D01*
X127000000Y-114935000D02*
X132715000Y-114935000D01*
X125095000Y-116840000D02*
X127000000Y-114935000D01*
X133618000Y-111520000D02*
X130150000Y-111520000D01*
X134366000Y-112268000D02*
X133618000Y-111520000D01*
X134366000Y-114046000D02*
X134366000Y-112268000D01*
X133477000Y-114935000D02*
X134366000Y-114046000D01*
X125000000Y-116840000D02*
X125095000Y-116840000D01*
X125000000Y-116840000D02*
X113919000Y-116840000D01*
X113665000Y-116840000D02*
X113665000Y-117094000D01*
X113919000Y-116840000D02*
X113665000Y-116840000D01*
X129000000Y-101600000D02*
X129000000Y-100997000D01*
X125000000Y-116840000D02*
X125000000Y-116808000D01*
X112618000Y-121666000D02*
X112618000Y-118141000D01*
X112618000Y-118141000D02*
X113665000Y-117094000D01*
X113665000Y-117094000D02*
X118190000Y-112569000D01*
X138450000Y-115570000D02*
X138303000Y-115570000D01*
X115618000Y-126366000D02*
X117347000Y-126366000D01*
X117347000Y-126366000D02*
X119253000Y-124460000D01*
X129560000Y-124460000D02*
X138450000Y-115570000D01*
X119253000Y-124460000D02*
X129560000Y-124460000D01*
D36*
X163180000Y-110020000D02*
X167043000Y-110020000D01*
X167043000Y-110020000D02*
X168148000Y-110998000D01*
X168148000Y-110998000D02*
X170307000Y-110998000D01*
X170307000Y-110998000D02*
X172847000Y-107823000D01*
X172847000Y-107823000D02*
X172847000Y-104140000D01*
X151780000Y-105220000D02*
X158559000Y-105220000D01*
X158559000Y-105220000D02*
X159080000Y-104699000D01*
X159080000Y-104699000D02*
X159080000Y-103520000D01*
X154280000Y-114920000D02*
X154280000Y-113690000D01*
X160680000Y-114071000D02*
X160680000Y-114920000D01*
X159512000Y-112903000D02*
X160680000Y-114071000D01*
X155067000Y-112903000D02*
X157353000Y-112903000D01*
X157353000Y-112903000D02*
X159512000Y-112903000D01*
X154280000Y-113690000D02*
X155067000Y-112903000D01*
D37*
X115618000Y-126366000D02*
X116966000Y-126366000D01*
X112618000Y-121666000D02*
X112618000Y-123366000D01*
X112618000Y-123366000D02*
X115618000Y-126366000D01*
X138600000Y-110490000D02*
X139446000Y-110490000D01*
X139446000Y-110490000D02*
X139700000Y-110236000D01*
X139700000Y-110236000D02*
X139700000Y-106660000D01*
X139700000Y-106660000D02*
X140950000Y-105410000D01*
D36*
X109050000Y-79030000D02*
X117010000Y-79030000D01*
X108870000Y-87940000D02*
X108870000Y-86899000D01*
X107569000Y-80511000D02*
X109050000Y-79030000D01*
X107569000Y-85598000D02*
X107569000Y-80511000D01*
X108870000Y-86899000D02*
X107569000Y-85598000D01*
X108870000Y-90440000D02*
X108870000Y-88540000D01*
X108870000Y-88540000D02*
X108870000Y-87940000D01*
X108870000Y-92440000D02*
X108870000Y-90440000D01*
X108870000Y-94940000D02*
X108870000Y-92440000D01*
X111570000Y-92740000D02*
X111570000Y-93940000D01*
X115490000Y-95250000D02*
X112880000Y-95250000D01*
X112880000Y-95250000D02*
X111570000Y-93940000D01*
X111570000Y-88940000D02*
X112482000Y-88940000D01*
X113792000Y-87630000D02*
X115490000Y-87630000D01*
X112482000Y-88940000D02*
X113792000Y-87630000D01*
X133370000Y-84455000D02*
X133370000Y-79014000D01*
X133370000Y-79014000D02*
X133096000Y-78740000D01*
X118190000Y-111760000D02*
X118190000Y-107950000D01*
D37*
X118190000Y-112569000D02*
X118190000Y-111760000D01*
D38*
X159880000Y-114920000D02*
X159880000Y-115811000D01*
X162306000Y-118237000D02*
X162560000Y-118237000D01*
X159880000Y-115811000D02*
X162306000Y-118237000D01*
X129540000Y-82550000D02*
X130556000Y-81534000D01*
X130556000Y-78740000D02*
X130556000Y-81534000D01*
X126619000Y-82550000D02*
X129540000Y-82550000D01*
X125984000Y-83185000D02*
X126619000Y-82550000D01*
D36*
X167348000Y-108420000D02*
X168529000Y-108458000D01*
X163180000Y-108420000D02*
X167348000Y-108420000D01*
X117221000Y-97536000D02*
X117221000Y-97409000D01*
X117221000Y-97409000D02*
X117221000Y-97536000D01*
X117221000Y-97536000D02*
X117221000Y-97409000D01*
X127270000Y-95250000D02*
X123571000Y-95250000D01*
X123571000Y-95250000D02*
X123190000Y-95631000D01*
X123190000Y-93440000D02*
X123190000Y-95631000D01*
X121412000Y-97409000D02*
X123190000Y-95631000D01*
X117221000Y-97409000D02*
X121412000Y-97409000D01*
D38*
X160020000Y-78740000D02*
X160020000Y-80391000D01*
X150508000Y-106820000D02*
X149098000Y-105410000D01*
X149098000Y-105410000D02*
X149098000Y-97282000D01*
X150508000Y-106820000D02*
X151780000Y-106820000D01*
X149098000Y-96901000D02*
X149098000Y-97282000D01*
X149733000Y-96266000D02*
X149098000Y-96901000D01*
X149733000Y-83058000D02*
X149733000Y-96266000D01*
X151130000Y-81661000D02*
X149733000Y-83058000D01*
X158750000Y-81661000D02*
X151130000Y-81661000D01*
X160020000Y-80391000D02*
X158750000Y-81661000D01*
X154940000Y-78740000D02*
X154940000Y-80264000D01*
X149822000Y-108420000D02*
X151780000Y-108420000D01*
X147828000Y-106426000D02*
X147828000Y-96266000D01*
X149822000Y-108420000D02*
X147828000Y-106426000D01*
X147828000Y-96266000D02*
X147828000Y-96139000D01*
X148209000Y-95758000D02*
X147828000Y-96139000D01*
X148209000Y-82550000D02*
X148209000Y-95758000D01*
X149609198Y-81149802D02*
X148209000Y-82550000D01*
X154054198Y-81149802D02*
X149609198Y-81149802D01*
X154940000Y-80264000D02*
X154054198Y-81149802D01*
X151780000Y-109220000D02*
X149479000Y-109220000D01*
X148336000Y-80137000D02*
X148336000Y-78740000D01*
X146558000Y-81915000D02*
X148336000Y-80137000D01*
X146558000Y-106299000D02*
X146558000Y-81915000D01*
X149479000Y-109220000D02*
X146558000Y-106299000D01*
X136820000Y-90510000D02*
X141056000Y-90510000D01*
X141056000Y-90510000D02*
X143510000Y-92964000D01*
X143510000Y-88392000D02*
X143510000Y-83566000D01*
X143510000Y-92329000D02*
X143510000Y-91567000D01*
X143510000Y-88392000D02*
X143510000Y-91567000D01*
X135636000Y-79629000D02*
X135636000Y-78740000D01*
X136398000Y-80391000D02*
X135636000Y-79629000D01*
X140335000Y-80391000D02*
X136398000Y-80391000D01*
X143510000Y-83566000D02*
X140335000Y-80391000D01*
X151780000Y-112420000D02*
X148488000Y-112420000D01*
X143510000Y-107442000D02*
X143510000Y-92964000D01*
X143510000Y-92964000D02*
X143510000Y-92329000D01*
X148488000Y-112420000D02*
X143510000Y-107442000D01*
X148971000Y-82804000D02*
X148971000Y-85979000D01*
X149733000Y-82042000D02*
X148971000Y-82804000D01*
X148463000Y-96647000D02*
X148463000Y-96520000D01*
X150165000Y-107620000D02*
X148463000Y-105918000D01*
X148463000Y-105918000D02*
X148463000Y-96647000D01*
X151780000Y-107620000D02*
X150165000Y-107620000D01*
X148971000Y-96012000D02*
X148971000Y-85979000D01*
X148463000Y-96520000D02*
X148971000Y-96012000D01*
X163449000Y-80518000D02*
X163449000Y-87376000D01*
X163703000Y-80264000D02*
X163449000Y-80518000D01*
X161480000Y-103520000D02*
X161480000Y-102934000D01*
X161480000Y-102934000D02*
X162560000Y-101854000D01*
X163449000Y-90424000D02*
X163449000Y-87376000D01*
X162560000Y-91313000D02*
X163449000Y-90424000D01*
X162560000Y-101854000D02*
X162560000Y-91313000D01*
X163449000Y-87376000D02*
X163449000Y-86360000D01*
X151780000Y-110820000D02*
X148920000Y-110820000D01*
X143256000Y-80264000D02*
X143256000Y-78740000D01*
X145034000Y-82042000D02*
X143256000Y-80264000D01*
X145034000Y-106934000D02*
X145034000Y-82042000D01*
X148920000Y-110820000D02*
X145034000Y-106934000D01*
X151780000Y-110020000D02*
X149136000Y-110020000D01*
X145669000Y-106553000D02*
X145669000Y-78867000D01*
X149136000Y-110020000D02*
X145669000Y-106553000D01*
X145669000Y-78867000D02*
X145796000Y-78740000D01*
X171577000Y-113284000D02*
X171513000Y-113220000D01*
X163180000Y-113220000D02*
X171513000Y-113220000D01*
X151765000Y-80645000D02*
X152400000Y-80010000D01*
X152400000Y-78740000D02*
X152400000Y-80010000D01*
X147320000Y-82550000D02*
X147320000Y-90043000D01*
X149225000Y-80645000D02*
X147320000Y-82550000D01*
X149225000Y-80645000D02*
X151765000Y-80645000D01*
X156680000Y-103520000D02*
X156680000Y-96050000D01*
X162560000Y-90170000D02*
X162560000Y-78740000D01*
X156680000Y-96050000D02*
X162560000Y-90170000D01*
X155880000Y-96266000D02*
X155880000Y-95961000D01*
X155880000Y-103520000D02*
X155880000Y-96266000D01*
X161798000Y-90043000D02*
X161798000Y-82931000D01*
X155880000Y-95961000D02*
X161798000Y-90043000D01*
X128016000Y-78740000D02*
X128016000Y-78232000D01*
X128016000Y-78232000D02*
X129159000Y-77089000D01*
X129159000Y-77089000D02*
X163449000Y-77089000D01*
X163449000Y-77089000D02*
X165100000Y-78740000D01*
X154305000Y-97409000D02*
X154305000Y-95631000D01*
X160147000Y-89789000D02*
X160147000Y-87757000D01*
X154305000Y-95631000D02*
X160147000Y-89789000D01*
X154305000Y-97409000D02*
X154280000Y-97409000D01*
X154280000Y-97409000D02*
X154305000Y-97409000D01*
X154305000Y-97409000D02*
X154280000Y-97409000D01*
X154280000Y-103520000D02*
X154280000Y-97409000D01*
X155080000Y-95745000D02*
X160909000Y-89916000D01*
X160909000Y-89916000D02*
X160909000Y-88392000D01*
X155080000Y-103520000D02*
X155080000Y-98031000D01*
X155080000Y-98031000D02*
X155080000Y-95745000D01*
D36*
X155080000Y-114920000D02*
X155080000Y-118377000D01*
X157480000Y-120777000D02*
X157480000Y-127000000D01*
X155080000Y-118377000D02*
X157480000Y-120777000D01*
X155880000Y-114920000D02*
X155880000Y-117907000D01*
X160020000Y-122047000D02*
X160020000Y-127000000D01*
X155880000Y-117907000D02*
X160020000Y-122047000D01*
X156680000Y-114920000D02*
X156680000Y-117564000D01*
X162560000Y-123444000D02*
X162560000Y-127000000D01*
X156680000Y-117564000D02*
X162560000Y-123444000D01*
X157480000Y-114920000D02*
X157480000Y-117094000D01*
X165100000Y-124714000D02*
X165100000Y-127000000D01*
X157480000Y-117094000D02*
X165100000Y-124714000D01*
X158280000Y-114920000D02*
X158280000Y-116497000D01*
X167640000Y-125857000D02*
X167640000Y-127000000D01*
X158280000Y-116497000D02*
X167640000Y-125857000D01*
X159080000Y-114920000D02*
X159080000Y-115900000D01*
X159080000Y-115900000D02*
X170180000Y-127000000D01*
X163180000Y-106820000D02*
X165087000Y-106820000D01*
X165087000Y-106820000D02*
X170307000Y-101600000D01*
X163180000Y-106020000D02*
X164617000Y-106020000D01*
X171577000Y-100330000D02*
X172847000Y-101600000D01*
X168783000Y-100330000D02*
X171577000Y-100330000D01*
X167513000Y-101600000D02*
X168783000Y-100330000D01*
X167513000Y-103124000D02*
X167513000Y-101600000D01*
X164617000Y-106020000D02*
X167513000Y-103124000D01*
X163180000Y-105220000D02*
X164147000Y-105220000D01*
X168529000Y-99060000D02*
X170307000Y-99060000D01*
X166624000Y-100965000D02*
X168529000Y-99060000D01*
X166624000Y-102743000D02*
X166624000Y-100965000D01*
X164147000Y-105220000D02*
X166624000Y-102743000D01*
D38*
X144399000Y-84836000D02*
X144399000Y-82804000D01*
X148704000Y-111620000D02*
X144399000Y-107315000D01*
X144399000Y-107315000D02*
X144399000Y-84836000D01*
X151780000Y-111620000D02*
X148704000Y-111620000D01*
X144399000Y-82804000D02*
X141859000Y-80264000D01*
D36*
X166497000Y-107569000D02*
X166446000Y-107620000D01*
X163180000Y-107620000D02*
X166446000Y-107620000D01*
X122682000Y-100330000D02*
X118872000Y-104140000D01*
X118872000Y-104140000D02*
X118190000Y-104140000D01*
X153416000Y-100838000D02*
X153607000Y-101029000D01*
X153607000Y-101029000D02*
X153480000Y-103520000D01*
X118190000Y-100330000D02*
X120142000Y-100330000D01*
D38*
X118709000Y-83530000D02*
X119888000Y-84709000D01*
X117010000Y-83530000D02*
X118709000Y-83530000D01*
X139700000Y-120523000D02*
X139700000Y-127000000D01*
X160680000Y-103520000D02*
X160680000Y-102718000D01*
X161798000Y-101600000D02*
X161798000Y-100076000D01*
X160680000Y-102718000D02*
X161798000Y-101600000D01*
D36*
X109050000Y-83530000D02*
X117010000Y-83530000D01*
X163180000Y-110820000D02*
X165811000Y-110820000D01*
X166624000Y-111633000D02*
X165811000Y-110820000D01*
X118190000Y-92710000D02*
X118999000Y-92710000D01*
X118999000Y-92710000D02*
X120015000Y-93726000D01*
X165354000Y-111633000D02*
X165341000Y-111620000D01*
X163180000Y-111620000D02*
X165341000Y-111620000D01*
X120015000Y-91440000D02*
X118745000Y-90170000D01*
X118190000Y-90170000D02*
X118745000Y-90170000D01*
X111570000Y-90140000D02*
X110968000Y-90140000D01*
X110968000Y-90140000D02*
X110236000Y-89408000D01*
X110236000Y-89408000D02*
X110236000Y-88138000D01*
X110236000Y-88138000D02*
X112141000Y-86233000D01*
X112141000Y-86233000D02*
X121031000Y-86233000D01*
X121031000Y-86233000D02*
X123190000Y-88392000D01*
X123190000Y-88392000D02*
X123190000Y-89440000D01*
X111840000Y-104140000D02*
X115490000Y-104140000D01*
X151780000Y-106020000D02*
X150597000Y-106020000D01*
X149987000Y-105410000D02*
X149987000Y-102997000D01*
X150597000Y-106020000D02*
X149987000Y-105410000D01*
X152527000Y-114300000D02*
X151780000Y-113553000D01*
X151780000Y-113220000D02*
X151780000Y-113553000D01*
X149987000Y-102997000D02*
X149987000Y-98552000D01*
X161480000Y-114920000D02*
X161480000Y-116141000D01*
X163703000Y-118364000D02*
X163703000Y-119253000D01*
X161480000Y-116141000D02*
X163703000Y-118364000D01*
X163703000Y-119253000D02*
X163576000Y-119126000D01*
D37*
X141351000Y-113538000D02*
X141351000Y-113570000D01*
X141351000Y-113570000D02*
X141351000Y-113538000D01*
X141351000Y-113538000D02*
X141351000Y-113570000D01*
X144780000Y-116586000D02*
X144780000Y-114935000D01*
X144780000Y-127000000D02*
X144780000Y-116586000D01*
X144780000Y-114935000D02*
X146145000Y-113570000D01*
X147320000Y-113570000D02*
X146145000Y-113570000D01*
X146145000Y-113570000D02*
X141351000Y-113570000D01*
X141351000Y-113570000D02*
X140240000Y-113570000D01*
X138600000Y-111930000D02*
X138600000Y-111440000D01*
X139700000Y-113030000D02*
X138600000Y-111930000D01*
X140240000Y-113570000D02*
X139700000Y-113030000D01*
X149352000Y-113220000D02*
X147670000Y-113220000D01*
X147670000Y-113220000D02*
X147320000Y-113570000D01*
D36*
X159880000Y-103520000D02*
X159880000Y-102629000D01*
X159880000Y-102629000D02*
X161036000Y-101473000D01*
X161036000Y-101473000D02*
X161036000Y-98298000D01*
X161036000Y-98298000D02*
X161163000Y-98171000D01*
D37*
X126365000Y-103505000D02*
X131064000Y-103505000D01*
X125000000Y-102140000D02*
X126365000Y-103505000D01*
X138450000Y-102890000D02*
X138450000Y-105410000D01*
X137160000Y-101600000D02*
X138450000Y-102890000D01*
X132969000Y-101600000D02*
X137160000Y-101600000D01*
X132207000Y-102362000D02*
X132969000Y-101600000D01*
X131064000Y-103505000D02*
X132207000Y-102362000D01*
D36*
X129270000Y-94300000D02*
X129270000Y-93869000D01*
X135468000Y-88560000D02*
X136820000Y-88560000D01*
X134874000Y-89154000D02*
X135468000Y-88560000D01*
X134874000Y-90805000D02*
X134874000Y-89154000D01*
X133858000Y-91821000D02*
X134874000Y-90805000D01*
X131318000Y-91821000D02*
X133858000Y-91821000D01*
X129270000Y-93869000D02*
X131318000Y-91821000D01*
X128270000Y-96012000D02*
X128270000Y-94869000D01*
X125000000Y-101600000D02*
X128270000Y-99600000D01*
X128270000Y-96012000D02*
X128270000Y-99600000D01*
X128270000Y-94869000D02*
X128839000Y-94300000D01*
X128839000Y-94300000D02*
X129270000Y-94300000D01*
D37*
X138450000Y-105410000D02*
X136525000Y-105410000D01*
X127000000Y-110998000D02*
X127000000Y-109220000D01*
X127000000Y-112776000D02*
X127254000Y-113030000D01*
X127000000Y-112776000D02*
X127000000Y-110998000D01*
X130150000Y-109220000D02*
X132715000Y-109220000D01*
X121285000Y-113030000D02*
X123952000Y-113030000D01*
X121285000Y-106045000D02*
X121285000Y-113030000D01*
X123850000Y-109220000D02*
X121285000Y-109220000D01*
D36*
X119380000Y-102235000D02*
X119507000Y-102235000D01*
X119380000Y-102235000D02*
X110490000Y-102235000D01*
X109140000Y-103585000D02*
X110490000Y-102235000D01*
X125000000Y-99854000D02*
X125000000Y-101600000D01*
X124206000Y-99060000D02*
X125000000Y-99854000D01*
X122682000Y-99060000D02*
X124206000Y-99060000D01*
X119507000Y-102235000D02*
X122682000Y-99060000D01*
X109140000Y-103585000D02*
X109140000Y-104140000D01*
D37*
X125000000Y-102140000D02*
X125000000Y-101600000D01*
D36*
X129270000Y-94300000D02*
X129270000Y-94377000D01*
D37*
X125000000Y-101600000D02*
X125000000Y-101632000D01*
D36*
X163180000Y-109220000D02*
X167767000Y-109220000D01*
X173736000Y-99060000D02*
X172847000Y-99060000D01*
X174498000Y-99822000D02*
X173736000Y-99060000D01*
X174498000Y-102235000D02*
X174498000Y-99822000D01*
X173863000Y-102870000D02*
X174498000Y-102235000D01*
X172085000Y-102870000D02*
X173863000Y-102870000D01*
X171577000Y-103378000D02*
X172085000Y-102870000D01*
X171577000Y-108204000D02*
X171577000Y-103378000D01*
X169799000Y-109982000D02*
X171577000Y-108204000D01*
X168529000Y-109982000D02*
X169291000Y-109982000D01*
X169291000Y-109982000D02*
X169799000Y-109982000D01*
X167767000Y-109220000D02*
X168529000Y-109982000D01*
X153480000Y-114920000D02*
X153480000Y-113602000D01*
X153098000Y-113220000D02*
X151780000Y-113220000D01*
X153480000Y-113602000D02*
X153098000Y-113220000D01*
D37*
X151780000Y-113220000D02*
X149352000Y-113220000D01*
X149352000Y-113220000D02*
X149289000Y-113220000D01*
X138600000Y-109540000D02*
X138600000Y-105560000D01*
X138600000Y-105560000D02*
X138450000Y-105410000D01*
X125000000Y-101600000D02*
X125000000Y-101314000D01*
D36*
X138600000Y-105560000D02*
X138450000Y-105410000D01*
X109140000Y-104140000D02*
X109140000Y-103585000D01*
X109140000Y-103585000D02*
X110363000Y-102362000D01*
X124492000Y-101092000D02*
X125000000Y-101600000D01*
X109140000Y-104140000D02*
X109140000Y-104474000D01*
X109140000Y-104474000D02*
X107569000Y-106045000D01*
X107569000Y-110189000D02*
X109140000Y-111760000D01*
X107569000Y-106045000D02*
X107569000Y-110189000D01*
X109140000Y-100330000D02*
X109140000Y-104140000D01*
X135870000Y-84455000D02*
X135870000Y-86594000D01*
X136820000Y-87544000D02*
X136820000Y-88560000D01*
X135870000Y-86594000D02*
X136820000Y-87544000D01*
D37*
X123850000Y-109220000D02*
X123850000Y-106172000D01*
X123850000Y-106172000D02*
X123850000Y-106020000D01*
X123850000Y-106020000D02*
X125000000Y-104870000D01*
X125000000Y-104870000D02*
X125000000Y-101600000D01*
X130150000Y-109220000D02*
X123850000Y-109220000D01*
D36*
X134620000Y-97235000D02*
X136318000Y-97235000D01*
X136318000Y-97235000D02*
X136906000Y-96647000D01*
X132420000Y-89860000D02*
X131262000Y-89860000D01*
X129433000Y-87650000D02*
X128270000Y-87650000D01*
X130175000Y-88392000D02*
X129433000Y-87650000D01*
X130175000Y-88773000D02*
X130175000Y-88392000D01*
X131262000Y-89860000D02*
X130175000Y-88773000D01*
X128270000Y-87650000D02*
X128270000Y-86614000D01*
X128270000Y-86614000D02*
X129159000Y-85725000D01*
X136906000Y-96647000D02*
X136859000Y-96600000D01*
X134620000Y-98425000D02*
X134620000Y-97235000D01*
X134620000Y-100250000D02*
X134620000Y-98425000D01*
D37*
X134620000Y-106172000D02*
X134620000Y-102950000D01*
X135382000Y-108430000D02*
X133872000Y-106920000D01*
X135382000Y-114808000D02*
X135382000Y-108430000D01*
X132320000Y-106920000D02*
X133872000Y-106920000D01*
X133872000Y-106920000D02*
X134620000Y-106172000D01*
X134620000Y-115570000D02*
X135382000Y-114808000D01*
X134620000Y-115570000D02*
X133350000Y-116840000D01*
X129000000Y-116840000D02*
X133350000Y-116840000D01*
X130150000Y-106920000D02*
X132320000Y-106920000D01*
X118618000Y-121666000D02*
X127254000Y-121666000D01*
X127254000Y-121666000D02*
X129000000Y-119920000D01*
X129000000Y-119920000D02*
X129000000Y-116840000D01*
D36*
X140800000Y-109540000D02*
X141163000Y-109540000D01*
X141163000Y-109540000D02*
X142240000Y-110617000D01*
D37*
X142367000Y-115570000D02*
X142494000Y-115443000D01*
X140950000Y-115570000D02*
X142367000Y-115570000D01*
D36*
X142240000Y-110617000D02*
X142240000Y-111760000D01*
X132420000Y-89210000D02*
X133449598Y-89210000D01*
X133985000Y-88674598D02*
X133985000Y-86487000D01*
X133449598Y-89210000D02*
X133985000Y-88674598D01*
X133985000Y-86487000D02*
X134112000Y-86614000D01*
X142621000Y-93091000D02*
X140970000Y-91440000D01*
X142621000Y-108077000D02*
X142621000Y-93091000D01*
X142621000Y-108077000D02*
X141158000Y-109540000D01*
X140800000Y-109540000D02*
X141158000Y-109540000D01*
D37*
X142240000Y-127000000D02*
X142240000Y-116860000D01*
X142240000Y-116860000D02*
X140950000Y-115570000D01*
D36*
X111840000Y-111760000D02*
X115490000Y-111760000D01*
X111840000Y-100330000D02*
X115490000Y-100330000D01*
D38*
X113919000Y-106045000D02*
X115443000Y-106045000D01*
X109140000Y-107141000D02*
X110236000Y-106045000D01*
X110236000Y-106045000D02*
X113919000Y-106045000D01*
X109140000Y-107950000D02*
X109140000Y-107141000D01*
D36*
X136820000Y-89210000D02*
X138374000Y-89210000D01*
X138374000Y-89210000D02*
X139065000Y-88519000D01*
X136820000Y-89860000D02*
X138740000Y-89860000D01*
X139065000Y-89535000D02*
X139065000Y-88519000D01*
X138740000Y-89860000D02*
X139065000Y-89535000D01*
D38*
X139065000Y-88519000D02*
X139009000Y-88575000D01*
D36*
X111840000Y-107950000D02*
X115490000Y-107950000D01*
X132420000Y-88560000D02*
X132420000Y-87589000D01*
X129733000Y-96200000D02*
X131064000Y-94869000D01*
X129733000Y-96200000D02*
X129270000Y-96200000D01*
X132420000Y-87589000D02*
X131064000Y-86233000D01*
X111570000Y-91440000D02*
X113665000Y-91440000D01*
X115490000Y-92710000D02*
X115650000Y-92710000D01*
X115650000Y-92710000D02*
X118190000Y-95250000D01*
X113665000Y-91440000D02*
X114935000Y-92710000D01*
X114935000Y-92710000D02*
X115490000Y-92710000D01*
X115490000Y-90170000D02*
X115650000Y-90170000D01*
X115650000Y-90170000D02*
X118190000Y-87630000D01*
X114427000Y-90170000D02*
X115490000Y-90170000D01*
X113807000Y-90790000D02*
X114427000Y-90170000D01*
X111570000Y-90790000D02*
X113807000Y-90790000D01*
D38*
X158865000Y-101219000D02*
X158865000Y-100469000D01*
X159696000Y-99638000D02*
X159696000Y-98425000D01*
X158865000Y-100469000D02*
X159696000Y-99638000D01*
X158280000Y-103520000D02*
X158280000Y-102451000D01*
X158865000Y-101866000D02*
X158865000Y-101219000D01*
X158280000Y-102451000D02*
X158865000Y-101866000D01*
X157365000Y-101219000D02*
X157365000Y-98494000D01*
X157365000Y-98494000D02*
X157296000Y-98425000D01*
X157480000Y-103520000D02*
X157480000Y-102235000D01*
X157365000Y-102120000D02*
X157365000Y-101219000D01*
X157480000Y-102235000D02*
X157365000Y-102120000D01*
X157238000Y-98864000D02*
X157296000Y-98806000D01*
D39*
G36*
X123879061Y-103008000D02*
X124694000Y-103008000D01*
X124732000Y-102970000D01*
X125268000Y-102970000D01*
X125306000Y-103008000D01*
X126120939Y-103008000D01*
X126212679Y-102970000D01*
X133511184Y-102970000D01*
X133511184Y-103700000D01*
X133542562Y-103866760D01*
X133641117Y-104019919D01*
X133791495Y-104122668D01*
X133865200Y-104137594D01*
X133865200Y-105859352D01*
X133559352Y-106165200D01*
X131607913Y-106165200D01*
X131577438Y-106003240D01*
X131478883Y-105850081D01*
X131328505Y-105747332D01*
X131150000Y-105711184D01*
X129150000Y-105711184D01*
X128983240Y-105742562D01*
X128830081Y-105841117D01*
X128727332Y-105991495D01*
X128691184Y-106170000D01*
X128691184Y-107670000D01*
X128722562Y-107836760D01*
X128801196Y-107958962D01*
X128634562Y-108125596D01*
X128542000Y-108349062D01*
X128542000Y-108914000D01*
X128694000Y-109066000D01*
X129996000Y-109066000D01*
X129996000Y-109046000D01*
X130304000Y-109046000D01*
X130304000Y-109066000D01*
X131606000Y-109066000D01*
X131758000Y-108914000D01*
X131758000Y-108349062D01*
X131665438Y-108125596D01*
X131497849Y-107958007D01*
X131572668Y-107848505D01*
X131607844Y-107674800D01*
X133559352Y-107674800D01*
X134520000Y-108635449D01*
X134520000Y-111354552D01*
X134151724Y-110986276D01*
X133906850Y-110822656D01*
X133618000Y-110765200D01*
X131607913Y-110765200D01*
X131577438Y-110603240D01*
X131498804Y-110481038D01*
X131665438Y-110314404D01*
X131758000Y-110090938D01*
X131758000Y-109526000D01*
X131606000Y-109374000D01*
X130304000Y-109374000D01*
X130304000Y-109394000D01*
X129996000Y-109394000D01*
X129996000Y-109374000D01*
X128694000Y-109374000D01*
X128542000Y-109526000D01*
X128542000Y-110090938D01*
X128634562Y-110314404D01*
X128802151Y-110481993D01*
X128727332Y-110591495D01*
X128691184Y-110770000D01*
X128691184Y-112270000D01*
X128722562Y-112436760D01*
X128821117Y-112589919D01*
X128971495Y-112692668D01*
X129150000Y-112728816D01*
X131150000Y-112728816D01*
X131316760Y-112697438D01*
X131469919Y-112598883D01*
X131572668Y-112448505D01*
X131607844Y-112274800D01*
X133305352Y-112274800D01*
X133611200Y-112580648D01*
X133611200Y-113733352D01*
X133164352Y-114180200D01*
X127000000Y-114180200D01*
X126900459Y-114200000D01*
X119480000Y-114200000D01*
X119480000Y-109526000D01*
X122242000Y-109526000D01*
X122242000Y-111240938D01*
X122334562Y-111464404D01*
X122505595Y-111635437D01*
X122729061Y-111728000D01*
X123544000Y-111728000D01*
X123696000Y-111576000D01*
X123696000Y-109374000D01*
X124004000Y-109374000D01*
X124004000Y-111576000D01*
X124156000Y-111728000D01*
X124970939Y-111728000D01*
X125194405Y-111635437D01*
X125365438Y-111464404D01*
X125458000Y-111240938D01*
X125458000Y-109526000D01*
X125306000Y-109374000D01*
X124004000Y-109374000D01*
X123696000Y-109374000D01*
X122394000Y-109374000D01*
X122242000Y-109526000D01*
X119480000Y-109526000D01*
X119480000Y-107199062D01*
X122242000Y-107199062D01*
X122242000Y-108914000D01*
X122394000Y-109066000D01*
X123696000Y-109066000D01*
X123696000Y-106864000D01*
X124004000Y-106864000D01*
X124004000Y-109066000D01*
X125306000Y-109066000D01*
X125458000Y-108914000D01*
X125458000Y-107199062D01*
X125365438Y-106975596D01*
X125194405Y-106804563D01*
X124970939Y-106712000D01*
X124156000Y-106712000D01*
X124004000Y-106864000D01*
X123696000Y-106864000D01*
X123544000Y-106712000D01*
X122729061Y-106712000D01*
X122505595Y-106804563D01*
X122334562Y-106975596D01*
X122242000Y-107199062D01*
X119480000Y-107199062D01*
X119480000Y-104455764D01*
X120965764Y-102970000D01*
X123787321Y-102970000D01*
X123879061Y-103008000D01*
X123879061Y-103008000D01*
G37*
X123879061Y-103008000D02*
X124694000Y-103008000D01*
X124732000Y-102970000D01*
X125268000Y-102970000D01*
X125306000Y-103008000D01*
X126120939Y-103008000D01*
X126212679Y-102970000D01*
X133511184Y-102970000D01*
X133511184Y-103700000D01*
X133542562Y-103866760D01*
X133641117Y-104019919D01*
X133791495Y-104122668D01*
X133865200Y-104137594D01*
X133865200Y-105859352D01*
X133559352Y-106165200D01*
X131607913Y-106165200D01*
X131577438Y-106003240D01*
X131478883Y-105850081D01*
X131328505Y-105747332D01*
X131150000Y-105711184D01*
X129150000Y-105711184D01*
X128983240Y-105742562D01*
X128830081Y-105841117D01*
X128727332Y-105991495D01*
X128691184Y-106170000D01*
X128691184Y-107670000D01*
X128722562Y-107836760D01*
X128801196Y-107958962D01*
X128634562Y-108125596D01*
X128542000Y-108349062D01*
X128542000Y-108914000D01*
X128694000Y-109066000D01*
X129996000Y-109066000D01*
X129996000Y-109046000D01*
X130304000Y-109046000D01*
X130304000Y-109066000D01*
X131606000Y-109066000D01*
X131758000Y-108914000D01*
X131758000Y-108349062D01*
X131665438Y-108125596D01*
X131497849Y-107958007D01*
X131572668Y-107848505D01*
X131607844Y-107674800D01*
X133559352Y-107674800D01*
X134520000Y-108635449D01*
X134520000Y-111354552D01*
X134151724Y-110986276D01*
X133906850Y-110822656D01*
X133618000Y-110765200D01*
X131607913Y-110765200D01*
X131577438Y-110603240D01*
X131498804Y-110481038D01*
X131665438Y-110314404D01*
X131758000Y-110090938D01*
X131758000Y-109526000D01*
X131606000Y-109374000D01*
X130304000Y-109374000D01*
X130304000Y-109394000D01*
X129996000Y-109394000D01*
X129996000Y-109374000D01*
X128694000Y-109374000D01*
X128542000Y-109526000D01*
X128542000Y-110090938D01*
X128634562Y-110314404D01*
X128802151Y-110481993D01*
X128727332Y-110591495D01*
X128691184Y-110770000D01*
X128691184Y-112270000D01*
X128722562Y-112436760D01*
X128821117Y-112589919D01*
X128971495Y-112692668D01*
X129150000Y-112728816D01*
X131150000Y-112728816D01*
X131316760Y-112697438D01*
X131469919Y-112598883D01*
X131572668Y-112448505D01*
X131607844Y-112274800D01*
X133305352Y-112274800D01*
X133611200Y-112580648D01*
X133611200Y-113733352D01*
X133164352Y-114180200D01*
X127000000Y-114180200D01*
X126900459Y-114200000D01*
X119480000Y-114200000D01*
X119480000Y-109526000D01*
X122242000Y-109526000D01*
X122242000Y-111240938D01*
X122334562Y-111464404D01*
X122505595Y-111635437D01*
X122729061Y-111728000D01*
X123544000Y-111728000D01*
X123696000Y-111576000D01*
X123696000Y-109374000D01*
X124004000Y-109374000D01*
X124004000Y-111576000D01*
X124156000Y-111728000D01*
X124970939Y-111728000D01*
X125194405Y-111635437D01*
X125365438Y-111464404D01*
X125458000Y-111240938D01*
X125458000Y-109526000D01*
X125306000Y-109374000D01*
X124004000Y-109374000D01*
X123696000Y-109374000D01*
X122394000Y-109374000D01*
X122242000Y-109526000D01*
X119480000Y-109526000D01*
X119480000Y-107199062D01*
X122242000Y-107199062D01*
X122242000Y-108914000D01*
X122394000Y-109066000D01*
X123696000Y-109066000D01*
X123696000Y-106864000D01*
X124004000Y-106864000D01*
X124004000Y-109066000D01*
X125306000Y-109066000D01*
X125458000Y-108914000D01*
X125458000Y-107199062D01*
X125365438Y-106975596D01*
X125194405Y-106804563D01*
X124970939Y-106712000D01*
X124156000Y-106712000D01*
X124004000Y-106864000D01*
X123696000Y-106864000D01*
X123544000Y-106712000D01*
X122729061Y-106712000D01*
X122505595Y-106804563D01*
X122334562Y-106975596D01*
X122242000Y-107199062D01*
X119480000Y-107199062D01*
X119480000Y-104455764D01*
X120965764Y-102970000D01*
X123787321Y-102970000D01*
X123879061Y-103008000D01*
G36*
X170947171Y-76887885D02*
X171597548Y-77322453D01*
X172032115Y-77972829D01*
X172195000Y-78791706D01*
X172195000Y-88900000D01*
X172234963Y-89100909D01*
X172348769Y-89271231D01*
X174735000Y-91657462D01*
X174735000Y-93488453D01*
X174458919Y-92820285D01*
X173882748Y-92243108D01*
X173129559Y-91930357D01*
X172314019Y-91929645D01*
X171560285Y-92241081D01*
X170983108Y-92817252D01*
X170670357Y-93570441D01*
X170669645Y-94385981D01*
X170981081Y-95139715D01*
X171557252Y-95716892D01*
X172310441Y-96029643D01*
X173125981Y-96030355D01*
X173879715Y-95718919D01*
X174456892Y-95142748D01*
X174735000Y-94472989D01*
X174735000Y-99135236D01*
X174197882Y-98598118D01*
X174045643Y-98496395D01*
X173801590Y-98131145D01*
X173375428Y-97846392D01*
X172872735Y-97746400D01*
X172821265Y-97746400D01*
X172318572Y-97846392D01*
X171892410Y-98131145D01*
X171607657Y-98557307D01*
X171577000Y-98711430D01*
X171546343Y-98557307D01*
X171261590Y-98131145D01*
X170835428Y-97846392D01*
X170332735Y-97746400D01*
X170281265Y-97746400D01*
X169778572Y-97846392D01*
X169352410Y-98131145D01*
X169168223Y-98406800D01*
X168529000Y-98406800D01*
X168279031Y-98456522D01*
X168128196Y-98557307D01*
X168067118Y-98598118D01*
X166162118Y-100503118D01*
X166020522Y-100715031D01*
X165970800Y-100965000D01*
X165970800Y-102472436D01*
X163952496Y-104490740D01*
X163930000Y-104486184D01*
X162430000Y-104486184D01*
X162263240Y-104517562D01*
X162110081Y-104616117D01*
X162007332Y-104766495D01*
X161971184Y-104945000D01*
X161971184Y-105495000D01*
X161995568Y-105624589D01*
X161971184Y-105745000D01*
X161971184Y-106295000D01*
X161995568Y-106424589D01*
X161971184Y-106545000D01*
X161971184Y-107095000D01*
X161995568Y-107224589D01*
X161971184Y-107345000D01*
X161971184Y-107895000D01*
X161995568Y-108024589D01*
X161971184Y-108145000D01*
X161971184Y-108695000D01*
X161995568Y-108824589D01*
X161971184Y-108945000D01*
X161971184Y-109343974D01*
X161914562Y-109400596D01*
X161822000Y-109624062D01*
X161822000Y-109730500D01*
X161974000Y-109882500D01*
X162200025Y-109882500D01*
X162251495Y-109917668D01*
X162430000Y-109953816D01*
X163930000Y-109953816D01*
X164096760Y-109922438D01*
X164158825Y-109882500D01*
X164386000Y-109882500D01*
X164395300Y-109873200D01*
X167496436Y-109873200D01*
X168067118Y-110443882D01*
X168279031Y-110585478D01*
X168529000Y-110635200D01*
X168908357Y-110635200D01*
X169141161Y-110731869D01*
X169439530Y-110732130D01*
X169674117Y-110635200D01*
X169799000Y-110635200D01*
X170048969Y-110585478D01*
X170260882Y-110443882D01*
X172038882Y-108665882D01*
X172093720Y-108583811D01*
X172180478Y-108453969D01*
X172230200Y-108204000D01*
X172230200Y-105445130D01*
X172465949Y-105561423D01*
X172693000Y-105451532D01*
X172693000Y-104294000D01*
X173001000Y-104294000D01*
X173001000Y-105451532D01*
X173228051Y-105561423D01*
X173743000Y-105307402D01*
X174121541Y-104875654D01*
X174268411Y-104521049D01*
X174157583Y-104294000D01*
X173001000Y-104294000D01*
X172693000Y-104294000D01*
X172673000Y-104294000D01*
X172673000Y-103986000D01*
X172693000Y-103986000D01*
X172693000Y-103966000D01*
X173001000Y-103966000D01*
X173001000Y-103986000D01*
X174157583Y-103986000D01*
X174268411Y-103758951D01*
X174142110Y-103454007D01*
X174324882Y-103331882D01*
X174735000Y-102921764D01*
X174735000Y-121428453D01*
X174458919Y-120760285D01*
X173882748Y-120183108D01*
X173129559Y-119870357D01*
X172314019Y-119869645D01*
X171560285Y-120181081D01*
X170983108Y-120757252D01*
X170670357Y-121510441D01*
X170669645Y-122325981D01*
X170981081Y-123079715D01*
X171557252Y-123656892D01*
X172310441Y-123969643D01*
X173125981Y-123970355D01*
X173879715Y-123658919D01*
X174456892Y-123082748D01*
X174735000Y-122412989D01*
X174735000Y-125512538D01*
X172348769Y-127898769D01*
X172234963Y-128069091D01*
X172195000Y-128270000D01*
X172195000Y-129015000D01*
X121141547Y-129015000D01*
X121809715Y-128738919D01*
X122386892Y-128162748D01*
X122699643Y-127409559D01*
X122700355Y-126594019D01*
X122388919Y-125840285D01*
X121812748Y-125263108D01*
X121059559Y-124950357D01*
X120244019Y-124949645D01*
X119490285Y-125261081D01*
X118913108Y-125837252D01*
X118600357Y-126590441D01*
X118599645Y-127405981D01*
X118911081Y-128159715D01*
X119487252Y-128736892D01*
X120157011Y-129015000D01*
X109271706Y-129015000D01*
X108452829Y-128852115D01*
X107802453Y-128417548D01*
X107367885Y-127767171D01*
X107205000Y-126948294D01*
X107205000Y-126672000D01*
X113260000Y-126672000D01*
X113260000Y-128236938D01*
X113352562Y-128460404D01*
X113523595Y-128631437D01*
X113747061Y-128724000D01*
X115312000Y-128724000D01*
X115464000Y-128572000D01*
X115464000Y-126520000D01*
X115772000Y-126520000D01*
X115772000Y-128572000D01*
X115924000Y-128724000D01*
X117488939Y-128724000D01*
X117712405Y-128631437D01*
X117883438Y-128460404D01*
X117976000Y-128236938D01*
X117976000Y-126672000D01*
X117824000Y-126520000D01*
X115772000Y-126520000D01*
X115464000Y-126520000D01*
X113412000Y-126520000D01*
X113260000Y-126672000D01*
X107205000Y-126672000D01*
X107205000Y-121972000D01*
X110260000Y-121972000D01*
X110260000Y-123536938D01*
X110352562Y-123760404D01*
X110523595Y-123931437D01*
X110747061Y-124024000D01*
X112312000Y-124024000D01*
X112464000Y-123872000D01*
X112464000Y-121820000D01*
X112772000Y-121820000D01*
X112772000Y-123872000D01*
X112924000Y-124024000D01*
X113708434Y-124024000D01*
X113523595Y-124100563D01*
X113352562Y-124271596D01*
X113260000Y-124495062D01*
X113260000Y-126060000D01*
X113412000Y-126212000D01*
X115464000Y-126212000D01*
X115464000Y-124160000D01*
X115772000Y-124160000D01*
X115772000Y-126212000D01*
X117824000Y-126212000D01*
X117976000Y-126060000D01*
X117976000Y-124495062D01*
X117883438Y-124271596D01*
X117712405Y-124100563D01*
X117488939Y-124008000D01*
X115924000Y-124008000D01*
X115772000Y-124160000D01*
X115464000Y-124160000D01*
X115312000Y-124008000D01*
X114527566Y-124008000D01*
X114712405Y-123931437D01*
X114883438Y-123760404D01*
X114976000Y-123536938D01*
X114976000Y-121972000D01*
X114824000Y-121820000D01*
X112772000Y-121820000D01*
X112464000Y-121820000D01*
X110412000Y-121820000D01*
X110260000Y-121972000D01*
X107205000Y-121972000D01*
X107205000Y-119795062D01*
X110260000Y-119795062D01*
X110260000Y-121360000D01*
X110412000Y-121512000D01*
X112464000Y-121512000D01*
X112464000Y-119460000D01*
X112772000Y-119460000D01*
X112772000Y-121512000D01*
X114824000Y-121512000D01*
X114976000Y-121360000D01*
X114976000Y-119795062D01*
X114883438Y-119571596D01*
X114712405Y-119400563D01*
X114488939Y-119308000D01*
X112924000Y-119308000D01*
X112772000Y-119460000D01*
X112464000Y-119460000D01*
X112312000Y-119308000D01*
X110747061Y-119308000D01*
X110523595Y-119400563D01*
X110352562Y-119571596D01*
X110260000Y-119795062D01*
X107205000Y-119795062D01*
X107205000Y-110748764D01*
X107931184Y-111474948D01*
X107931184Y-112410000D01*
X107962562Y-112576760D01*
X108061117Y-112729919D01*
X108211495Y-112832668D01*
X108390000Y-112868816D01*
X109890000Y-112868816D01*
X110056760Y-112837438D01*
X110209919Y-112738883D01*
X110312668Y-112588505D01*
X110348816Y-112410000D01*
X110348816Y-111110000D01*
X110631184Y-111110000D01*
X110631184Y-112410000D01*
X110662562Y-112576760D01*
X110761117Y-112729919D01*
X110911495Y-112832668D01*
X111090000Y-112868816D01*
X112590000Y-112868816D01*
X112756760Y-112837438D01*
X112909919Y-112738883D01*
X113012668Y-112588505D01*
X113048168Y-112413200D01*
X114281786Y-112413200D01*
X114312562Y-112576760D01*
X114411117Y-112729919D01*
X114561495Y-112832668D01*
X114740000Y-112868816D01*
X116240000Y-112868816D01*
X116406760Y-112837438D01*
X116559919Y-112738883D01*
X116662668Y-112588505D01*
X116698816Y-112410000D01*
X116698816Y-111110000D01*
X116667438Y-110943240D01*
X116568883Y-110790081D01*
X116418505Y-110687332D01*
X116240000Y-110651184D01*
X114740000Y-110651184D01*
X114573240Y-110682562D01*
X114420081Y-110781117D01*
X114317332Y-110931495D01*
X114281832Y-111106800D01*
X113048214Y-111106800D01*
X113017438Y-110943240D01*
X112918883Y-110790081D01*
X112768505Y-110687332D01*
X112590000Y-110651184D01*
X111090000Y-110651184D01*
X110923240Y-110682562D01*
X110770081Y-110781117D01*
X110667332Y-110931495D01*
X110631184Y-111110000D01*
X110348816Y-111110000D01*
X110317438Y-110943240D01*
X110218883Y-110790081D01*
X110068505Y-110687332D01*
X109890000Y-110651184D01*
X108954948Y-110651184D01*
X108222200Y-109918436D01*
X108222200Y-109024836D01*
X108390000Y-109058816D01*
X109890000Y-109058816D01*
X110056760Y-109027438D01*
X110209919Y-108928883D01*
X110312668Y-108778505D01*
X110348816Y-108600000D01*
X110348816Y-107300000D01*
X110631184Y-107300000D01*
X110631184Y-108600000D01*
X110662562Y-108766760D01*
X110761117Y-108919919D01*
X110911495Y-109022668D01*
X111090000Y-109058816D01*
X112590000Y-109058816D01*
X112756760Y-109027438D01*
X112909919Y-108928883D01*
X113012668Y-108778505D01*
X113048168Y-108603200D01*
X114281786Y-108603200D01*
X114312562Y-108766760D01*
X114411117Y-108919919D01*
X114561495Y-109022668D01*
X114740000Y-109058816D01*
X116240000Y-109058816D01*
X116406760Y-109027438D01*
X116559919Y-108928883D01*
X116662668Y-108778505D01*
X116698816Y-108600000D01*
X116698816Y-107300000D01*
X116667438Y-107133240D01*
X116568883Y-106980081D01*
X116418505Y-106877332D01*
X116240000Y-106841184D01*
X114740000Y-106841184D01*
X114573240Y-106872562D01*
X114420081Y-106971117D01*
X114317332Y-107121495D01*
X114281832Y-107296800D01*
X113048214Y-107296800D01*
X113017438Y-107133240D01*
X112918883Y-106980081D01*
X112768505Y-106877332D01*
X112590000Y-106841184D01*
X111090000Y-106841184D01*
X110923240Y-106872562D01*
X110770081Y-106971117D01*
X110667332Y-107121495D01*
X110631184Y-107300000D01*
X110348816Y-107300000D01*
X110317438Y-107133240D01*
X110218883Y-106980081D01*
X110179649Y-106953273D01*
X110485522Y-106647400D01*
X114984615Y-106647400D01*
X115017605Y-106680448D01*
X115293161Y-106794869D01*
X115591530Y-106795130D01*
X115867286Y-106681189D01*
X116078448Y-106470395D01*
X116192869Y-106194839D01*
X116193130Y-105896470D01*
X116079189Y-105620714D01*
X115868395Y-105409552D01*
X115592839Y-105295131D01*
X115294470Y-105294870D01*
X115018714Y-105408811D01*
X114984866Y-105442600D01*
X110236000Y-105442600D01*
X110005471Y-105488455D01*
X109810039Y-105619039D01*
X108714039Y-106715039D01*
X108629751Y-106841184D01*
X108390000Y-106841184D01*
X108223240Y-106872562D01*
X108222200Y-106873231D01*
X108222200Y-106315564D01*
X109288948Y-105248816D01*
X109890000Y-105248816D01*
X110056760Y-105217438D01*
X110209919Y-105118883D01*
X110312668Y-104968505D01*
X110348816Y-104790000D01*
X110348816Y-103490000D01*
X110631184Y-103490000D01*
X110631184Y-104790000D01*
X110662562Y-104956760D01*
X110761117Y-105109919D01*
X110911495Y-105212668D01*
X111090000Y-105248816D01*
X112590000Y-105248816D01*
X112756760Y-105217438D01*
X112909919Y-105118883D01*
X113012668Y-104968505D01*
X113048168Y-104793200D01*
X114281786Y-104793200D01*
X114312562Y-104956760D01*
X114411117Y-105109919D01*
X114561495Y-105212668D01*
X114740000Y-105248816D01*
X116240000Y-105248816D01*
X116406760Y-105217438D01*
X116559919Y-105118883D01*
X116662668Y-104968505D01*
X116698816Y-104790000D01*
X116698816Y-103490000D01*
X116667438Y-103323240D01*
X116568883Y-103170081D01*
X116418505Y-103067332D01*
X116240000Y-103031184D01*
X114740000Y-103031184D01*
X114573240Y-103062562D01*
X114420081Y-103161117D01*
X114317332Y-103311495D01*
X114281832Y-103486800D01*
X113048214Y-103486800D01*
X113017438Y-103323240D01*
X112918883Y-103170081D01*
X112768505Y-103067332D01*
X112590000Y-103031184D01*
X111090000Y-103031184D01*
X110923240Y-103062562D01*
X110770081Y-103161117D01*
X110667332Y-103311495D01*
X110631184Y-103490000D01*
X110348816Y-103490000D01*
X110318719Y-103330045D01*
X110760564Y-102888200D01*
X116740000Y-102888200D01*
X116740000Y-116840000D01*
X116747879Y-116878906D01*
X116770273Y-116911681D01*
X116803654Y-116933161D01*
X116840000Y-116940000D01*
X123392000Y-116940000D01*
X123392000Y-116994002D01*
X123543998Y-116994002D01*
X123392000Y-117146000D01*
X123392000Y-117760938D01*
X123484562Y-117984404D01*
X123655595Y-118155437D01*
X123879061Y-118248000D01*
X124694000Y-118248000D01*
X124846000Y-118096000D01*
X124846000Y-116994000D01*
X124826000Y-116994000D01*
X124826000Y-116940000D01*
X125174000Y-116940000D01*
X125174000Y-116994000D01*
X125154000Y-116994000D01*
X125154000Y-118096000D01*
X125306000Y-118248000D01*
X126120939Y-118248000D01*
X126344405Y-118155437D01*
X126515438Y-117984404D01*
X126608000Y-117760938D01*
X126608000Y-117146000D01*
X126456002Y-116994002D01*
X126608000Y-116994002D01*
X126608000Y-116940000D01*
X127541184Y-116940000D01*
X127541184Y-117640000D01*
X127572562Y-117806760D01*
X127671117Y-117959919D01*
X127821495Y-118062668D01*
X128000000Y-118098816D01*
X128245200Y-118098816D01*
X128245200Y-119607352D01*
X126941352Y-120911200D01*
X120826816Y-120911200D01*
X120826816Y-119916000D01*
X120795438Y-119749240D01*
X120696883Y-119596081D01*
X120546505Y-119493332D01*
X120368000Y-119457184D01*
X116868000Y-119457184D01*
X116701240Y-119488562D01*
X116548081Y-119587117D01*
X116445332Y-119737495D01*
X116409184Y-119916000D01*
X116409184Y-123416000D01*
X116440562Y-123582760D01*
X116539117Y-123735919D01*
X116689495Y-123838668D01*
X116868000Y-123874816D01*
X120368000Y-123874816D01*
X120534760Y-123843438D01*
X120687919Y-123744883D01*
X120790668Y-123594505D01*
X120826816Y-123416000D01*
X120826816Y-122420800D01*
X127254000Y-122420800D01*
X127542850Y-122363344D01*
X127787724Y-122199724D01*
X129533724Y-120453724D01*
X129697344Y-120208849D01*
X129754800Y-119920000D01*
X129754800Y-118098816D01*
X130000000Y-118098816D01*
X130166760Y-118067438D01*
X130319919Y-117968883D01*
X130422668Y-117818505D01*
X130458816Y-117640000D01*
X130458816Y-117594800D01*
X133350000Y-117594800D01*
X133638850Y-117537344D01*
X133883724Y-117373724D01*
X134317448Y-116940000D01*
X137160000Y-116940000D01*
X137198906Y-116932121D01*
X137231681Y-116909727D01*
X137253161Y-116876346D01*
X137260000Y-116840000D01*
X137260000Y-116614842D01*
X137355595Y-116710437D01*
X137579061Y-116803000D01*
X138144000Y-116803000D01*
X138296000Y-116651000D01*
X138296000Y-115724000D01*
X138276000Y-115724000D01*
X138276000Y-115416000D01*
X138296000Y-115416000D01*
X138296000Y-114489000D01*
X138144000Y-114337000D01*
X137579061Y-114337000D01*
X137355595Y-114429563D01*
X137260000Y-114525158D01*
X137260000Y-106164800D01*
X137265608Y-106164800D01*
X137272562Y-106201760D01*
X137371117Y-106354919D01*
X137521495Y-106457668D01*
X137700000Y-106493816D01*
X137845200Y-106493816D01*
X137845200Y-108824910D01*
X137750081Y-108886117D01*
X137647332Y-109036495D01*
X137611184Y-109215000D01*
X137611184Y-109763974D01*
X137554562Y-109820596D01*
X137462000Y-110044062D01*
X137462000Y-110184000D01*
X137614000Y-110336000D01*
X138446000Y-110336000D01*
X138446000Y-110323816D01*
X138754000Y-110323816D01*
X138754000Y-110336000D01*
X139586000Y-110336000D01*
X139738000Y-110184000D01*
X139738000Y-110044062D01*
X139645438Y-109820596D01*
X139588816Y-109763974D01*
X139588816Y-109215000D01*
X139557438Y-109048240D01*
X139458883Y-108895081D01*
X139354800Y-108823964D01*
X139354800Y-106464688D01*
X139366760Y-106462438D01*
X139519919Y-106363883D01*
X139618420Y-106219722D01*
X139684562Y-106379404D01*
X139855595Y-106550437D01*
X140079061Y-106643000D01*
X140644000Y-106643000D01*
X140796000Y-106491000D01*
X140796000Y-105564000D01*
X140776000Y-105564000D01*
X140776000Y-105256000D01*
X140796000Y-105256000D01*
X140796000Y-104329000D01*
X140644000Y-104177000D01*
X140079061Y-104177000D01*
X139855595Y-104269563D01*
X139684562Y-104440596D01*
X139617425Y-104602680D01*
X139528883Y-104465081D01*
X139378505Y-104362332D01*
X139204800Y-104327156D01*
X139204800Y-102890000D01*
X139147344Y-102601151D01*
X139058643Y-102468400D01*
X138983724Y-102356275D01*
X137693724Y-101066276D01*
X137448850Y-100902656D01*
X137160000Y-100845200D01*
X135728816Y-100845200D01*
X135728816Y-99500000D01*
X135697438Y-99333240D01*
X135598883Y-99180081D01*
X135448505Y-99077332D01*
X135273200Y-99041832D01*
X135273200Y-98443214D01*
X135436760Y-98412438D01*
X135589919Y-98313883D01*
X135692668Y-98163505D01*
X135728816Y-97985000D01*
X135728816Y-97888200D01*
X136318000Y-97888200D01*
X136567969Y-97838478D01*
X136779882Y-97696882D01*
X137097311Y-97379453D01*
X137330286Y-97283189D01*
X137541448Y-97072395D01*
X137655869Y-96796839D01*
X137656130Y-96498470D01*
X137542189Y-96222714D01*
X137331395Y-96011552D01*
X137055839Y-95897131D01*
X136757470Y-95896870D01*
X136481714Y-96010811D01*
X136270552Y-96221605D01*
X136173213Y-96456023D01*
X136047436Y-96581800D01*
X135728816Y-96581800D01*
X135728816Y-96485000D01*
X135697438Y-96318240D01*
X135598883Y-96165081D01*
X135448505Y-96062332D01*
X135270000Y-96026184D01*
X133970000Y-96026184D01*
X133803240Y-96057562D01*
X133650081Y-96156117D01*
X133547332Y-96306495D01*
X133511184Y-96485000D01*
X133511184Y-97985000D01*
X133542562Y-98151760D01*
X133641117Y-98304919D01*
X133791495Y-98407668D01*
X133966800Y-98443168D01*
X133966800Y-99041786D01*
X133803240Y-99072562D01*
X133650081Y-99171117D01*
X133547332Y-99321495D01*
X133511184Y-99500000D01*
X133511184Y-100845200D01*
X132969000Y-100845200D01*
X132680151Y-100902656D01*
X132435276Y-101066276D01*
X132001552Y-101500000D01*
X130608000Y-101500000D01*
X130608000Y-101445998D01*
X130456002Y-101445998D01*
X130608000Y-101294000D01*
X130608000Y-100679062D01*
X130515438Y-100455596D01*
X130344405Y-100284563D01*
X130120939Y-100192000D01*
X129306000Y-100192000D01*
X129154000Y-100344000D01*
X129154000Y-101446000D01*
X129174000Y-101446000D01*
X129174000Y-101500000D01*
X128826000Y-101500000D01*
X128826000Y-101446000D01*
X128846000Y-101446000D01*
X128846000Y-100344000D01*
X128694000Y-100192000D01*
X128553980Y-100192000D01*
X128610818Y-100157237D01*
X128667619Y-100104822D01*
X128731882Y-100061882D01*
X128760398Y-100019205D01*
X128798120Y-99984395D01*
X128830538Y-99914233D01*
X128873478Y-99849969D01*
X128883492Y-99799626D01*
X128905021Y-99753031D01*
X128908122Y-99675803D01*
X128923200Y-99600000D01*
X128923200Y-97058816D01*
X129720000Y-97058816D01*
X129886760Y-97027438D01*
X130039919Y-96928883D01*
X130142668Y-96778505D01*
X130161810Y-96683980D01*
X130194882Y-96661882D01*
X131255311Y-95601453D01*
X131488286Y-95505189D01*
X131699448Y-95294395D01*
X131813869Y-95018839D01*
X131814024Y-94841000D01*
X133362000Y-94841000D01*
X133362000Y-95405939D01*
X133454563Y-95629405D01*
X133625596Y-95800438D01*
X133849062Y-95893000D01*
X134314000Y-95893000D01*
X134466000Y-95741000D01*
X134466000Y-94689000D01*
X134774000Y-94689000D01*
X134774000Y-95741000D01*
X134926000Y-95893000D01*
X135390938Y-95893000D01*
X135614404Y-95800438D01*
X135785437Y-95629405D01*
X135878000Y-95405939D01*
X135878000Y-94841000D01*
X135726000Y-94689000D01*
X134774000Y-94689000D01*
X134466000Y-94689000D01*
X133514000Y-94689000D01*
X133362000Y-94841000D01*
X131814024Y-94841000D01*
X131814130Y-94720470D01*
X131700189Y-94444714D01*
X131489395Y-94233552D01*
X131213839Y-94119131D01*
X130915470Y-94118870D01*
X130639714Y-94232811D01*
X130428552Y-94443605D01*
X130331213Y-94678023D01*
X130145699Y-94863537D01*
X130178816Y-94700000D01*
X130178816Y-93900000D01*
X130176274Y-93886490D01*
X130398703Y-93664061D01*
X133362000Y-93664061D01*
X133362000Y-94229000D01*
X133514000Y-94381000D01*
X134466000Y-94381000D01*
X134466000Y-93329000D01*
X134774000Y-93329000D01*
X134774000Y-94381000D01*
X135726000Y-94381000D01*
X135878000Y-94229000D01*
X135878000Y-93664061D01*
X135785437Y-93440595D01*
X135614404Y-93269562D01*
X135390938Y-93177000D01*
X134926000Y-93177000D01*
X134774000Y-93329000D01*
X134466000Y-93329000D01*
X134314000Y-93177000D01*
X133849062Y-93177000D01*
X133625596Y-93269562D01*
X133454563Y-93440595D01*
X133362000Y-93664061D01*
X130398703Y-93664061D01*
X131588564Y-92474200D01*
X133858000Y-92474200D01*
X134107969Y-92424478D01*
X134319882Y-92282882D01*
X135335882Y-91266882D01*
X135477478Y-91054969D01*
X135527200Y-90805000D01*
X135527200Y-89424564D01*
X135636184Y-89315580D01*
X135636184Y-89435000D01*
X135655691Y-89538671D01*
X135636184Y-89635000D01*
X135636184Y-90085000D01*
X135655691Y-90188671D01*
X135636184Y-90285000D01*
X135636184Y-90735000D01*
X135667562Y-90901760D01*
X135766117Y-91054919D01*
X135916495Y-91157668D01*
X136095000Y-91193816D01*
X137545000Y-91193816D01*
X137711760Y-91162438D01*
X137789521Y-91112400D01*
X140293944Y-91112400D01*
X140220131Y-91290161D01*
X140219870Y-91588530D01*
X140333811Y-91864286D01*
X140544605Y-92075448D01*
X140779023Y-92172787D01*
X141967800Y-93361564D01*
X141967800Y-104237832D01*
X141820939Y-104177000D01*
X141256000Y-104177000D01*
X141104000Y-104329000D01*
X141104000Y-105256000D01*
X141124000Y-105256000D01*
X141124000Y-105564000D01*
X141104000Y-105564000D01*
X141104000Y-106491000D01*
X141256000Y-106643000D01*
X141820939Y-106643000D01*
X141967800Y-106582168D01*
X141967800Y-107806436D01*
X141018052Y-108756184D01*
X140270000Y-108756184D01*
X140103240Y-108787562D01*
X139950081Y-108886117D01*
X139847332Y-109036495D01*
X139811184Y-109215000D01*
X139811184Y-109865000D01*
X139842562Y-110031760D01*
X139941117Y-110184919D01*
X140091495Y-110287668D01*
X140270000Y-110323816D01*
X141023052Y-110323816D01*
X141361875Y-110662639D01*
X141330000Y-110656184D01*
X140270000Y-110656184D01*
X140103240Y-110687562D01*
X139950081Y-110786117D01*
X139847332Y-110936495D01*
X139811184Y-111115000D01*
X139811184Y-111765000D01*
X139842562Y-111931760D01*
X139941117Y-112084919D01*
X140091495Y-112187668D01*
X140270000Y-112223816D01*
X141330000Y-112223816D01*
X141496760Y-112192438D01*
X141583987Y-112136309D01*
X141603811Y-112184286D01*
X141814605Y-112395448D01*
X142090161Y-112509869D01*
X142388530Y-112510130D01*
X142664286Y-112396189D01*
X142875448Y-112185395D01*
X142989869Y-111909839D01*
X142990130Y-111611470D01*
X142893200Y-111376883D01*
X142893200Y-110617000D01*
X142843478Y-110367031D01*
X142701882Y-110155118D01*
X142084264Y-109537500D01*
X143082882Y-108538882D01*
X143224478Y-108326969D01*
X143235173Y-108273200D01*
X143274200Y-108077000D01*
X143274200Y-108058122D01*
X147327262Y-112111184D01*
X146520000Y-112111184D01*
X146353240Y-112142562D01*
X146200081Y-112241117D01*
X146097332Y-112391495D01*
X146061184Y-112570000D01*
X146061184Y-112815200D01*
X141566028Y-112815200D01*
X141500839Y-112788131D01*
X141375237Y-112788021D01*
X141351000Y-112783200D01*
X141326975Y-112787979D01*
X141202470Y-112787870D01*
X141136327Y-112815200D01*
X140552648Y-112815200D01*
X139574271Y-111836823D01*
X139588816Y-111765000D01*
X139588816Y-111216026D01*
X139645438Y-111159404D01*
X139738000Y-110935938D01*
X139738000Y-110796000D01*
X139586000Y-110644000D01*
X138754000Y-110644000D01*
X138754000Y-110656184D01*
X138446000Y-110656184D01*
X138446000Y-110644000D01*
X137614000Y-110644000D01*
X137462000Y-110796000D01*
X137462000Y-110935938D01*
X137554562Y-111159404D01*
X137611184Y-111216026D01*
X137611184Y-111765000D01*
X137642562Y-111931760D01*
X137741117Y-112084919D01*
X137891495Y-112187668D01*
X137896662Y-112188714D01*
X137902656Y-112218850D01*
X138066276Y-112463724D01*
X139706276Y-114103724D01*
X139951150Y-114267344D01*
X139986000Y-114274276D01*
X140240000Y-114324800D01*
X144322752Y-114324800D01*
X144246276Y-114401276D01*
X144082656Y-114646150D01*
X144050551Y-114807552D01*
X144025200Y-114935000D01*
X144025200Y-125937649D01*
X143825410Y-126071145D01*
X143540657Y-126497307D01*
X143510000Y-126651430D01*
X143479343Y-126497307D01*
X143194590Y-126071145D01*
X142994800Y-125937649D01*
X142994800Y-116860000D01*
X142937344Y-116571151D01*
X142855766Y-116449061D01*
X142773724Y-116326275D01*
X142691184Y-116243735D01*
X142900724Y-116103724D01*
X143027724Y-115976724D01*
X143041334Y-115956356D01*
X143129448Y-115868395D01*
X143177614Y-115752398D01*
X143191344Y-115731850D01*
X143196123Y-115707824D01*
X143243869Y-115592839D01*
X143243979Y-115467237D01*
X143248800Y-115443000D01*
X143244021Y-115418975D01*
X143244130Y-115294470D01*
X143196165Y-115178386D01*
X143191344Y-115154151D01*
X143177736Y-115133784D01*
X143130189Y-115018714D01*
X143041453Y-114929823D01*
X143027724Y-114909276D01*
X143007356Y-114895667D01*
X142919395Y-114807552D01*
X142803396Y-114759385D01*
X142782849Y-114745656D01*
X142758824Y-114740877D01*
X142643839Y-114693131D01*
X142518237Y-114693021D01*
X142494000Y-114688200D01*
X142469975Y-114692979D01*
X142345470Y-114692870D01*
X142229387Y-114740835D01*
X142205150Y-114745656D01*
X142184782Y-114759265D01*
X142128262Y-114782619D01*
X142127438Y-114778240D01*
X142028883Y-114625081D01*
X141878505Y-114522332D01*
X141700000Y-114486184D01*
X140200000Y-114486184D01*
X140033240Y-114517562D01*
X139880081Y-114616117D01*
X139781580Y-114760278D01*
X139715438Y-114600596D01*
X139544405Y-114429563D01*
X139320939Y-114337000D01*
X138756000Y-114337000D01*
X138604000Y-114489000D01*
X138604000Y-115416000D01*
X138624000Y-115416000D01*
X138624000Y-115724000D01*
X138604000Y-115724000D01*
X138604000Y-116651000D01*
X138756000Y-116803000D01*
X139320939Y-116803000D01*
X139544405Y-116710437D01*
X139715438Y-116539404D01*
X139782575Y-116377320D01*
X139871117Y-116514919D01*
X140021495Y-116617668D01*
X140200000Y-116653816D01*
X140966368Y-116653816D01*
X141485200Y-117172649D01*
X141485200Y-125937649D01*
X141285410Y-126071145D01*
X141000657Y-126497307D01*
X140970000Y-126651430D01*
X140939343Y-126497307D01*
X140654590Y-126071145D01*
X140302400Y-125835819D01*
X140302400Y-120981385D01*
X140335448Y-120948395D01*
X140449869Y-120672839D01*
X140450130Y-120374470D01*
X140336189Y-120098714D01*
X140125395Y-119887552D01*
X139849839Y-119773131D01*
X139551470Y-119772870D01*
X139275714Y-119886811D01*
X139064552Y-120097605D01*
X138950131Y-120373161D01*
X138949870Y-120671530D01*
X139063811Y-120947286D01*
X139097600Y-120981134D01*
X139097600Y-125835819D01*
X138745410Y-126071145D01*
X138460657Y-126497307D01*
X138430000Y-126651430D01*
X138399343Y-126497307D01*
X138114590Y-126071145D01*
X137688428Y-125786392D01*
X137185735Y-125686400D01*
X137134265Y-125686400D01*
X136631572Y-125786392D01*
X136205410Y-126071145D01*
X135920657Y-126497307D01*
X135890000Y-126651430D01*
X135859343Y-126497307D01*
X135574590Y-126071145D01*
X135148428Y-125786392D01*
X134645735Y-125686400D01*
X134594265Y-125686400D01*
X134091572Y-125786392D01*
X133665410Y-126071145D01*
X133380657Y-126497307D01*
X133280665Y-127000000D01*
X133380657Y-127502693D01*
X133665410Y-127928855D01*
X134091572Y-128213608D01*
X134594265Y-128313600D01*
X134645735Y-128313600D01*
X135148428Y-128213608D01*
X135574590Y-127928855D01*
X135859343Y-127502693D01*
X135890000Y-127348570D01*
X135920657Y-127502693D01*
X136205410Y-127928855D01*
X136631572Y-128213608D01*
X137134265Y-128313600D01*
X137185735Y-128313600D01*
X137688428Y-128213608D01*
X138114590Y-127928855D01*
X138399343Y-127502693D01*
X138430000Y-127348570D01*
X138460657Y-127502693D01*
X138745410Y-127928855D01*
X139171572Y-128213608D01*
X139674265Y-128313600D01*
X139725735Y-128313600D01*
X140228428Y-128213608D01*
X140654590Y-127928855D01*
X140939343Y-127502693D01*
X140970000Y-127348570D01*
X141000657Y-127502693D01*
X141285410Y-127928855D01*
X141711572Y-128213608D01*
X142214265Y-128313600D01*
X142265735Y-128313600D01*
X142768428Y-128213608D01*
X143194590Y-127928855D01*
X143479343Y-127502693D01*
X143510000Y-127348570D01*
X143540657Y-127502693D01*
X143825410Y-127928855D01*
X144251572Y-128213608D01*
X144754265Y-128313600D01*
X144805735Y-128313600D01*
X145308428Y-128213608D01*
X145734590Y-127928855D01*
X145975900Y-127567710D01*
X146045459Y-127735654D01*
X146424000Y-128167402D01*
X146938949Y-128421423D01*
X147166000Y-128311532D01*
X147166000Y-127154000D01*
X147474000Y-127154000D01*
X147474000Y-128311532D01*
X147701051Y-128421423D01*
X148216000Y-128167402D01*
X148590000Y-127740833D01*
X148964000Y-128167402D01*
X149478949Y-128421423D01*
X149706000Y-128311532D01*
X149706000Y-127154000D01*
X147474000Y-127154000D01*
X147166000Y-127154000D01*
X147146000Y-127154000D01*
X147146000Y-126846000D01*
X147166000Y-126846000D01*
X147166000Y-125688468D01*
X147474000Y-125688468D01*
X147474000Y-126846000D01*
X149706000Y-126846000D01*
X149706000Y-125688468D01*
X150014000Y-125688468D01*
X150014000Y-126846000D01*
X150034000Y-126846000D01*
X150034000Y-127154000D01*
X150014000Y-127154000D01*
X150014000Y-128311532D01*
X150241051Y-128421423D01*
X150756000Y-128167402D01*
X151134541Y-127735654D01*
X151204100Y-127567710D01*
X151445410Y-127928855D01*
X151871572Y-128213608D01*
X152374265Y-128313600D01*
X152425735Y-128313600D01*
X152928428Y-128213608D01*
X153354590Y-127928855D01*
X153639343Y-127502693D01*
X153739335Y-127000000D01*
X153639343Y-126497307D01*
X153354590Y-126071145D01*
X152928428Y-125786392D01*
X152425735Y-125686400D01*
X152374265Y-125686400D01*
X151871572Y-125786392D01*
X151445410Y-126071145D01*
X151204100Y-126432290D01*
X151134541Y-126264346D01*
X150756000Y-125832598D01*
X150241051Y-125578577D01*
X150014000Y-125688468D01*
X149706000Y-125688468D01*
X149478949Y-125578577D01*
X148964000Y-125832598D01*
X148590000Y-126259167D01*
X148216000Y-125832598D01*
X147701051Y-125578577D01*
X147474000Y-125688468D01*
X147166000Y-125688468D01*
X146938949Y-125578577D01*
X146424000Y-125832598D01*
X146045459Y-126264346D01*
X145975900Y-126432290D01*
X145734590Y-126071145D01*
X145534800Y-125937649D01*
X145534800Y-117876000D01*
X145912000Y-117876000D01*
X145912000Y-118690939D01*
X146004563Y-118914405D01*
X146175596Y-119085438D01*
X146399062Y-119178000D01*
X147014000Y-119178000D01*
X147166000Y-119026000D01*
X147166000Y-117724000D01*
X147474000Y-117724000D01*
X147474000Y-119026000D01*
X147626000Y-119178000D01*
X148240938Y-119178000D01*
X148464404Y-119085438D01*
X148635437Y-118914405D01*
X148728000Y-118690939D01*
X148728000Y-117876000D01*
X148576000Y-117724000D01*
X147474000Y-117724000D01*
X147166000Y-117724000D01*
X146064000Y-117724000D01*
X145912000Y-117876000D01*
X145534800Y-117876000D01*
X145534800Y-116449061D01*
X145912000Y-116449061D01*
X145912000Y-117264000D01*
X146064000Y-117416000D01*
X147166000Y-117416000D01*
X147166000Y-116114000D01*
X147474000Y-116114000D01*
X147474000Y-117416000D01*
X148576000Y-117416000D01*
X148728000Y-117264000D01*
X148728000Y-116449061D01*
X148635437Y-116225595D01*
X148464404Y-116054562D01*
X148240938Y-115962000D01*
X147626000Y-115962000D01*
X147474000Y-116114000D01*
X147166000Y-116114000D01*
X147014000Y-115962000D01*
X146399062Y-115962000D01*
X146175596Y-116054562D01*
X146004563Y-116225595D01*
X145912000Y-116449061D01*
X145534800Y-116449061D01*
X145534800Y-115247648D01*
X146085139Y-114697310D01*
X146092562Y-114736760D01*
X146191117Y-114889919D01*
X146341495Y-114992668D01*
X146520000Y-115028816D01*
X148120000Y-115028816D01*
X148286760Y-114997438D01*
X148439919Y-114898883D01*
X148542668Y-114748505D01*
X148578816Y-114570000D01*
X148578816Y-113974800D01*
X151291336Y-113974800D01*
X151318118Y-114014882D01*
X151794547Y-114491311D01*
X151890811Y-114724286D01*
X152101605Y-114935448D01*
X152377161Y-115049869D01*
X152675530Y-115050130D01*
X152746184Y-115020936D01*
X152746184Y-115670000D01*
X152777562Y-115836760D01*
X152876117Y-115989919D01*
X153026495Y-116092668D01*
X153205000Y-116128816D01*
X153603974Y-116128816D01*
X153660596Y-116185438D01*
X153884062Y-116278000D01*
X153990500Y-116278000D01*
X154142500Y-116126000D01*
X154142500Y-115899975D01*
X154177668Y-115848505D01*
X154213816Y-115670000D01*
X154213816Y-114170000D01*
X154346184Y-114170000D01*
X154346184Y-115670000D01*
X154377562Y-115836760D01*
X154417500Y-115898825D01*
X154417500Y-116126000D01*
X154426800Y-116135300D01*
X154426800Y-118377000D01*
X154476522Y-118626969D01*
X154618118Y-118838882D01*
X156826800Y-121047564D01*
X156826800Y-125869762D01*
X156525410Y-126071145D01*
X156240657Y-126497307D01*
X156140665Y-127000000D01*
X156240657Y-127502693D01*
X156525410Y-127928855D01*
X156951572Y-128213608D01*
X157454265Y-128313600D01*
X157505735Y-128313600D01*
X158008428Y-128213608D01*
X158434590Y-127928855D01*
X158719343Y-127502693D01*
X158750000Y-127348570D01*
X158780657Y-127502693D01*
X159065410Y-127928855D01*
X159491572Y-128213608D01*
X159994265Y-128313600D01*
X160045735Y-128313600D01*
X160548428Y-128213608D01*
X160974590Y-127928855D01*
X161259343Y-127502693D01*
X161290000Y-127348570D01*
X161320657Y-127502693D01*
X161605410Y-127928855D01*
X162031572Y-128213608D01*
X162534265Y-128313600D01*
X162585735Y-128313600D01*
X163088428Y-128213608D01*
X163514590Y-127928855D01*
X163799343Y-127502693D01*
X163830000Y-127348570D01*
X163860657Y-127502693D01*
X164145410Y-127928855D01*
X164571572Y-128213608D01*
X165074265Y-128313600D01*
X165125735Y-128313600D01*
X165628428Y-128213608D01*
X166054590Y-127928855D01*
X166339343Y-127502693D01*
X166370000Y-127348570D01*
X166400657Y-127502693D01*
X166685410Y-127928855D01*
X167111572Y-128213608D01*
X167614265Y-128313600D01*
X167665735Y-128313600D01*
X168168428Y-128213608D01*
X168594590Y-127928855D01*
X168879343Y-127502693D01*
X168910000Y-127348570D01*
X168940657Y-127502693D01*
X169225410Y-127928855D01*
X169651572Y-128213608D01*
X170154265Y-128313600D01*
X170205735Y-128313600D01*
X170708428Y-128213608D01*
X171134590Y-127928855D01*
X171419343Y-127502693D01*
X171519335Y-127000000D01*
X171419343Y-126497307D01*
X171134590Y-126071145D01*
X170708428Y-125786392D01*
X170205735Y-125686400D01*
X170154265Y-125686400D01*
X169850572Y-125746808D01*
X164032230Y-119928466D01*
X164127286Y-119889189D01*
X164338448Y-119678395D01*
X164452869Y-119402839D01*
X164453130Y-119104470D01*
X164356200Y-118869883D01*
X164356200Y-118364000D01*
X164306478Y-118114031D01*
X164164882Y-117902118D01*
X162150715Y-115887951D01*
X162177668Y-115848505D01*
X162213816Y-115670000D01*
X162213816Y-114170000D01*
X162182438Y-114003240D01*
X162083883Y-113850081D01*
X161933505Y-113747332D01*
X161755000Y-113711184D01*
X161356026Y-113711184D01*
X161299404Y-113654562D01*
X161075938Y-113562000D01*
X160969500Y-113562000D01*
X160817500Y-113714000D01*
X160817500Y-113940025D01*
X160782332Y-113991495D01*
X160746184Y-114170000D01*
X160746184Y-115094000D01*
X160613816Y-115094000D01*
X160613816Y-114170000D01*
X160582438Y-114003240D01*
X160542500Y-113941175D01*
X160542500Y-113714000D01*
X160390500Y-113562000D01*
X160284062Y-113562000D01*
X160060596Y-113654562D01*
X160003974Y-113711184D01*
X159605000Y-113711184D01*
X159475411Y-113735568D01*
X159355000Y-113711184D01*
X158805000Y-113711184D01*
X158675411Y-113735568D01*
X158555000Y-113711184D01*
X158005000Y-113711184D01*
X157875411Y-113735568D01*
X157755000Y-113711184D01*
X157205000Y-113711184D01*
X157075411Y-113735568D01*
X156955000Y-113711184D01*
X156405000Y-113711184D01*
X156275411Y-113735568D01*
X156155000Y-113711184D01*
X155605000Y-113711184D01*
X155475411Y-113735568D01*
X155355000Y-113711184D01*
X154956026Y-113711184D01*
X154899404Y-113654562D01*
X154675938Y-113562000D01*
X154569500Y-113562000D01*
X154417500Y-113714000D01*
X154417500Y-113940025D01*
X154382332Y-113991495D01*
X154346184Y-114170000D01*
X154213816Y-114170000D01*
X154182438Y-114003240D01*
X154142500Y-113941175D01*
X154142500Y-113714000D01*
X154133200Y-113704700D01*
X154133200Y-113602000D01*
X154083478Y-113352031D01*
X153941882Y-113140118D01*
X153559882Y-112758118D01*
X153347969Y-112616522D01*
X153098000Y-112566800D01*
X152988816Y-112566800D01*
X152988816Y-112145000D01*
X152964432Y-112015411D01*
X152988816Y-111895000D01*
X152988816Y-111345000D01*
X152964432Y-111215411D01*
X152988816Y-111095000D01*
X152988816Y-110545000D01*
X152964432Y-110415411D01*
X152985879Y-110309500D01*
X161822000Y-110309500D01*
X161822000Y-110415938D01*
X161914562Y-110639404D01*
X161971184Y-110696026D01*
X161971184Y-111095000D01*
X161995568Y-111224589D01*
X161971184Y-111345000D01*
X161971184Y-111895000D01*
X161995568Y-112024589D01*
X161971184Y-112145000D01*
X161971184Y-112695000D01*
X161995568Y-112824589D01*
X161971184Y-112945000D01*
X161971184Y-113495000D01*
X162002562Y-113661760D01*
X162101117Y-113814919D01*
X162251495Y-113917668D01*
X162430000Y-113953816D01*
X163930000Y-113953816D01*
X164096760Y-113922438D01*
X164249919Y-113823883D01*
X164250932Y-113822400D01*
X171054726Y-113822400D01*
X171151605Y-113919448D01*
X171427161Y-114033869D01*
X171725530Y-114034130D01*
X172001286Y-113920189D01*
X172212448Y-113709395D01*
X172326869Y-113433839D01*
X172327130Y-113135470D01*
X172213189Y-112859714D01*
X172002395Y-112648552D01*
X171726839Y-112534131D01*
X171428470Y-112533870D01*
X171225830Y-112617600D01*
X164388816Y-112617600D01*
X164388816Y-112273200D01*
X164940049Y-112273200D01*
X165204161Y-112382869D01*
X165502530Y-112383130D01*
X165778286Y-112269189D01*
X165989183Y-112058660D01*
X166198605Y-112268448D01*
X166474161Y-112382869D01*
X166772530Y-112383130D01*
X167048286Y-112269189D01*
X167259448Y-112058395D01*
X167373869Y-111782839D01*
X167374130Y-111484470D01*
X167260189Y-111208714D01*
X167049395Y-110997552D01*
X166814977Y-110900213D01*
X166272882Y-110358118D01*
X166060969Y-110216522D01*
X165811000Y-110166800D01*
X164395300Y-110166800D01*
X164386000Y-110157500D01*
X164159975Y-110157500D01*
X164108505Y-110122332D01*
X163930000Y-110086184D01*
X162430000Y-110086184D01*
X162263240Y-110117562D01*
X162201175Y-110157500D01*
X161974000Y-110157500D01*
X161822000Y-110309500D01*
X152985879Y-110309500D01*
X152988816Y-110295000D01*
X152988816Y-109745000D01*
X152964432Y-109615411D01*
X152988816Y-109495000D01*
X152988816Y-108945000D01*
X152964432Y-108815411D01*
X152988816Y-108695000D01*
X152988816Y-108145000D01*
X152964432Y-108015411D01*
X152988816Y-107895000D01*
X152988816Y-107345000D01*
X152964432Y-107215411D01*
X152988816Y-107095000D01*
X152988816Y-106545000D01*
X152964432Y-106415411D01*
X152988816Y-106295000D01*
X152988816Y-105896026D01*
X153045438Y-105839404D01*
X153138000Y-105615938D01*
X153138000Y-105509500D01*
X152986000Y-105357500D01*
X152759975Y-105357500D01*
X152708505Y-105322332D01*
X152530000Y-105286184D01*
X151606000Y-105286184D01*
X151606000Y-105082500D01*
X151626000Y-105082500D01*
X151626000Y-104489000D01*
X151474000Y-104337000D01*
X150909061Y-104337000D01*
X150685595Y-104429563D01*
X150640200Y-104474958D01*
X150640200Y-103379643D01*
X150736869Y-103146839D01*
X150737130Y-102848470D01*
X150640200Y-102613883D01*
X150640200Y-98934643D01*
X150736869Y-98701839D01*
X150737130Y-98403470D01*
X150623189Y-98127714D01*
X150412395Y-97916552D01*
X150136839Y-97802131D01*
X149838470Y-97801870D01*
X149700400Y-97858920D01*
X149700400Y-97150522D01*
X150158961Y-96691961D01*
X150289545Y-96496529D01*
X150335400Y-96266000D01*
X150335400Y-83307522D01*
X151379522Y-82263400D01*
X158750000Y-82263400D01*
X158980529Y-82217545D01*
X159175961Y-82086961D01*
X160445961Y-80816961D01*
X160576545Y-80621528D01*
X160622400Y-80391000D01*
X160622400Y-79904181D01*
X160974590Y-79668855D01*
X161259343Y-79242693D01*
X161290000Y-79088570D01*
X161320657Y-79242693D01*
X161605410Y-79668855D01*
X161957600Y-79904181D01*
X161957600Y-82185184D01*
X161947839Y-82181131D01*
X161649470Y-82180870D01*
X161373714Y-82294811D01*
X161162552Y-82505605D01*
X161048131Y-82781161D01*
X161047870Y-83079530D01*
X161161811Y-83355286D01*
X161195600Y-83389134D01*
X161195600Y-87698919D01*
X161058839Y-87642131D01*
X160897101Y-87641990D01*
X160897130Y-87608470D01*
X160783189Y-87332714D01*
X160572395Y-87121552D01*
X160296839Y-87007131D01*
X159998470Y-87006870D01*
X159722714Y-87120811D01*
X159511552Y-87331605D01*
X159397131Y-87607161D01*
X159396870Y-87905530D01*
X159510811Y-88181286D01*
X159544600Y-88215134D01*
X159544600Y-89539478D01*
X153879039Y-95205039D01*
X153748455Y-95400471D01*
X153737518Y-95455456D01*
X153702600Y-95631000D01*
X153702600Y-97283317D01*
X153677600Y-97409000D01*
X153677600Y-100134538D01*
X153565839Y-100088131D01*
X153267470Y-100087870D01*
X152991714Y-100201811D01*
X152780552Y-100412605D01*
X152666131Y-100688161D01*
X152665870Y-100986530D01*
X152779811Y-101262286D01*
X152933222Y-101415965D01*
X152880624Y-102447640D01*
X152782332Y-102591495D01*
X152746184Y-102770000D01*
X152746184Y-104270000D01*
X152767907Y-104385450D01*
X152650939Y-104337000D01*
X152086000Y-104337000D01*
X151934000Y-104489000D01*
X151934000Y-105082500D01*
X152986000Y-105082500D01*
X153138000Y-104930500D01*
X153138000Y-104824062D01*
X153088801Y-104705285D01*
X153205000Y-104728816D01*
X153755000Y-104728816D01*
X153884589Y-104704432D01*
X154005000Y-104728816D01*
X154555000Y-104728816D01*
X154684589Y-104704432D01*
X154805000Y-104728816D01*
X155355000Y-104728816D01*
X155484589Y-104704432D01*
X155605000Y-104728816D01*
X156155000Y-104728816D01*
X156284589Y-104704432D01*
X156405000Y-104728816D01*
X156955000Y-104728816D01*
X157084589Y-104704432D01*
X157205000Y-104728816D01*
X157755000Y-104728816D01*
X157884589Y-104704432D01*
X158005000Y-104728816D01*
X158403974Y-104728816D01*
X158460596Y-104785438D01*
X158684062Y-104878000D01*
X158790500Y-104878000D01*
X158942500Y-104726000D01*
X158942500Y-104499975D01*
X158977668Y-104448505D01*
X159013816Y-104270000D01*
X159013816Y-103346000D01*
X159146184Y-103346000D01*
X159146184Y-104270000D01*
X159177562Y-104436760D01*
X159217500Y-104498825D01*
X159217500Y-104726000D01*
X159369500Y-104878000D01*
X159475938Y-104878000D01*
X159699404Y-104785438D01*
X159756026Y-104728816D01*
X160155000Y-104728816D01*
X160284589Y-104704432D01*
X160405000Y-104728816D01*
X160955000Y-104728816D01*
X161084589Y-104704432D01*
X161205000Y-104728816D01*
X161755000Y-104728816D01*
X161921760Y-104697438D01*
X162074919Y-104598883D01*
X162177668Y-104448505D01*
X162213816Y-104270000D01*
X162213816Y-103052106D01*
X162985961Y-102279961D01*
X163116545Y-102084529D01*
X163162400Y-101854000D01*
X163162400Y-91562522D01*
X163874961Y-90849961D01*
X164005545Y-90654529D01*
X164051400Y-90424000D01*
X164051400Y-80931545D01*
X164127286Y-80900189D01*
X164338448Y-80689395D01*
X164452869Y-80413839D01*
X164453130Y-80115470D01*
X164339189Y-79839714D01*
X164215136Y-79715445D01*
X164571572Y-79953608D01*
X165074265Y-80053600D01*
X165125735Y-80053600D01*
X165628428Y-79953608D01*
X166054590Y-79668855D01*
X166339343Y-79242693D01*
X166370000Y-79088570D01*
X166400657Y-79242693D01*
X166685410Y-79668855D01*
X167111572Y-79953608D01*
X167614265Y-80053600D01*
X167665735Y-80053600D01*
X168168428Y-79953608D01*
X168594590Y-79668855D01*
X168879343Y-79242693D01*
X168910000Y-79088570D01*
X168940657Y-79242693D01*
X169225410Y-79668855D01*
X169651572Y-79953608D01*
X170154265Y-80053600D01*
X170205735Y-80053600D01*
X170708428Y-79953608D01*
X171134590Y-79668855D01*
X171419343Y-79242693D01*
X171519335Y-78740000D01*
X171419343Y-78237307D01*
X171134590Y-77811145D01*
X170708428Y-77526392D01*
X170205735Y-77426400D01*
X170154265Y-77426400D01*
X169651572Y-77526392D01*
X169225410Y-77811145D01*
X168940657Y-78237307D01*
X168910000Y-78391430D01*
X168879343Y-78237307D01*
X168594590Y-77811145D01*
X168168428Y-77526392D01*
X167665735Y-77426400D01*
X167614265Y-77426400D01*
X167111572Y-77526392D01*
X166685410Y-77811145D01*
X166400657Y-78237307D01*
X166370000Y-78391430D01*
X166339343Y-78237307D01*
X166054590Y-77811145D01*
X165628428Y-77526392D01*
X165125735Y-77426400D01*
X165074265Y-77426400D01*
X164710650Y-77498728D01*
X163936922Y-76725000D01*
X170128294Y-76725000D01*
X170947171Y-76887885D01*
X170947171Y-76887885D01*
G37*
X170947171Y-76887885D02*
X171597548Y-77322453D01*
X172032115Y-77972829D01*
X172195000Y-78791706D01*
X172195000Y-88900000D01*
X172234963Y-89100909D01*
X172348769Y-89271231D01*
X174735000Y-91657462D01*
X174735000Y-93488453D01*
X174458919Y-92820285D01*
X173882748Y-92243108D01*
X173129559Y-91930357D01*
X172314019Y-91929645D01*
X171560285Y-92241081D01*
X170983108Y-92817252D01*
X170670357Y-93570441D01*
X170669645Y-94385981D01*
X170981081Y-95139715D01*
X171557252Y-95716892D01*
X172310441Y-96029643D01*
X173125981Y-96030355D01*
X173879715Y-95718919D01*
X174456892Y-95142748D01*
X174735000Y-94472989D01*
X174735000Y-99135236D01*
X174197882Y-98598118D01*
X174045643Y-98496395D01*
X173801590Y-98131145D01*
X173375428Y-97846392D01*
X172872735Y-97746400D01*
X172821265Y-97746400D01*
X172318572Y-97846392D01*
X171892410Y-98131145D01*
X171607657Y-98557307D01*
X171577000Y-98711430D01*
X171546343Y-98557307D01*
X171261590Y-98131145D01*
X170835428Y-97846392D01*
X170332735Y-97746400D01*
X170281265Y-97746400D01*
X169778572Y-97846392D01*
X169352410Y-98131145D01*
X169168223Y-98406800D01*
X168529000Y-98406800D01*
X168279031Y-98456522D01*
X168128196Y-98557307D01*
X168067118Y-98598118D01*
X166162118Y-100503118D01*
X166020522Y-100715031D01*
X165970800Y-100965000D01*
X165970800Y-102472436D01*
X163952496Y-104490740D01*
X163930000Y-104486184D01*
X162430000Y-104486184D01*
X162263240Y-104517562D01*
X162110081Y-104616117D01*
X162007332Y-104766495D01*
X161971184Y-104945000D01*
X161971184Y-105495000D01*
X161995568Y-105624589D01*
X161971184Y-105745000D01*
X161971184Y-106295000D01*
X161995568Y-106424589D01*
X161971184Y-106545000D01*
X161971184Y-107095000D01*
X161995568Y-107224589D01*
X161971184Y-107345000D01*
X161971184Y-107895000D01*
X161995568Y-108024589D01*
X161971184Y-108145000D01*
X161971184Y-108695000D01*
X161995568Y-108824589D01*
X161971184Y-108945000D01*
X161971184Y-109343974D01*
X161914562Y-109400596D01*
X161822000Y-109624062D01*
X161822000Y-109730500D01*
X161974000Y-109882500D01*
X162200025Y-109882500D01*
X162251495Y-109917668D01*
X162430000Y-109953816D01*
X163930000Y-109953816D01*
X164096760Y-109922438D01*
X164158825Y-109882500D01*
X164386000Y-109882500D01*
X164395300Y-109873200D01*
X167496436Y-109873200D01*
X168067118Y-110443882D01*
X168279031Y-110585478D01*
X168529000Y-110635200D01*
X168908357Y-110635200D01*
X169141161Y-110731869D01*
X169439530Y-110732130D01*
X169674117Y-110635200D01*
X169799000Y-110635200D01*
X170048969Y-110585478D01*
X170260882Y-110443882D01*
X172038882Y-108665882D01*
X172093720Y-108583811D01*
X172180478Y-108453969D01*
X172230200Y-108204000D01*
X172230200Y-105445130D01*
X172465949Y-105561423D01*
X172693000Y-105451532D01*
X172693000Y-104294000D01*
X173001000Y-104294000D01*
X173001000Y-105451532D01*
X173228051Y-105561423D01*
X173743000Y-105307402D01*
X174121541Y-104875654D01*
X174268411Y-104521049D01*
X174157583Y-104294000D01*
X173001000Y-104294000D01*
X172693000Y-104294000D01*
X172673000Y-104294000D01*
X172673000Y-103986000D01*
X172693000Y-103986000D01*
X172693000Y-103966000D01*
X173001000Y-103966000D01*
X173001000Y-103986000D01*
X174157583Y-103986000D01*
X174268411Y-103758951D01*
X174142110Y-103454007D01*
X174324882Y-103331882D01*
X174735000Y-102921764D01*
X174735000Y-121428453D01*
X174458919Y-120760285D01*
X173882748Y-120183108D01*
X173129559Y-119870357D01*
X172314019Y-119869645D01*
X171560285Y-120181081D01*
X170983108Y-120757252D01*
X170670357Y-121510441D01*
X170669645Y-122325981D01*
X170981081Y-123079715D01*
X171557252Y-123656892D01*
X172310441Y-123969643D01*
X173125981Y-123970355D01*
X173879715Y-123658919D01*
X174456892Y-123082748D01*
X174735000Y-122412989D01*
X174735000Y-125512538D01*
X172348769Y-127898769D01*
X172234963Y-128069091D01*
X172195000Y-128270000D01*
X172195000Y-129015000D01*
X121141547Y-129015000D01*
X121809715Y-128738919D01*
X122386892Y-128162748D01*
X122699643Y-127409559D01*
X122700355Y-126594019D01*
X122388919Y-125840285D01*
X121812748Y-125263108D01*
X121059559Y-124950357D01*
X120244019Y-124949645D01*
X119490285Y-125261081D01*
X118913108Y-125837252D01*
X118600357Y-126590441D01*
X118599645Y-127405981D01*
X118911081Y-128159715D01*
X119487252Y-128736892D01*
X120157011Y-129015000D01*
X109271706Y-129015000D01*
X108452829Y-128852115D01*
X107802453Y-128417548D01*
X107367885Y-127767171D01*
X107205000Y-126948294D01*
X107205000Y-126672000D01*
X113260000Y-126672000D01*
X113260000Y-128236938D01*
X113352562Y-128460404D01*
X113523595Y-128631437D01*
X113747061Y-128724000D01*
X115312000Y-128724000D01*
X115464000Y-128572000D01*
X115464000Y-126520000D01*
X115772000Y-126520000D01*
X115772000Y-128572000D01*
X115924000Y-128724000D01*
X117488939Y-128724000D01*
X117712405Y-128631437D01*
X117883438Y-128460404D01*
X117976000Y-128236938D01*
X117976000Y-126672000D01*
X117824000Y-126520000D01*
X115772000Y-126520000D01*
X115464000Y-126520000D01*
X113412000Y-126520000D01*
X113260000Y-126672000D01*
X107205000Y-126672000D01*
X107205000Y-121972000D01*
X110260000Y-121972000D01*
X110260000Y-123536938D01*
X110352562Y-123760404D01*
X110523595Y-123931437D01*
X110747061Y-124024000D01*
X112312000Y-124024000D01*
X112464000Y-123872000D01*
X112464000Y-121820000D01*
X112772000Y-121820000D01*
X112772000Y-123872000D01*
X112924000Y-124024000D01*
X113708434Y-124024000D01*
X113523595Y-124100563D01*
X113352562Y-124271596D01*
X113260000Y-124495062D01*
X113260000Y-126060000D01*
X113412000Y-126212000D01*
X115464000Y-126212000D01*
X115464000Y-124160000D01*
X115772000Y-124160000D01*
X115772000Y-126212000D01*
X117824000Y-126212000D01*
X117976000Y-126060000D01*
X117976000Y-124495062D01*
X117883438Y-124271596D01*
X117712405Y-124100563D01*
X117488939Y-124008000D01*
X115924000Y-124008000D01*
X115772000Y-124160000D01*
X115464000Y-124160000D01*
X115312000Y-124008000D01*
X114527566Y-124008000D01*
X114712405Y-123931437D01*
X114883438Y-123760404D01*
X114976000Y-123536938D01*
X114976000Y-121972000D01*
X114824000Y-121820000D01*
X112772000Y-121820000D01*
X112464000Y-121820000D01*
X110412000Y-121820000D01*
X110260000Y-121972000D01*
X107205000Y-121972000D01*
X107205000Y-119795062D01*
X110260000Y-119795062D01*
X110260000Y-121360000D01*
X110412000Y-121512000D01*
X112464000Y-121512000D01*
X112464000Y-119460000D01*
X112772000Y-119460000D01*
X112772000Y-121512000D01*
X114824000Y-121512000D01*
X114976000Y-121360000D01*
X114976000Y-119795062D01*
X114883438Y-119571596D01*
X114712405Y-119400563D01*
X114488939Y-119308000D01*
X112924000Y-119308000D01*
X112772000Y-119460000D01*
X112464000Y-119460000D01*
X112312000Y-119308000D01*
X110747061Y-119308000D01*
X110523595Y-119400563D01*
X110352562Y-119571596D01*
X110260000Y-119795062D01*
X107205000Y-119795062D01*
X107205000Y-110748764D01*
X107931184Y-111474948D01*
X107931184Y-112410000D01*
X107962562Y-112576760D01*
X108061117Y-112729919D01*
X108211495Y-112832668D01*
X108390000Y-112868816D01*
X109890000Y-112868816D01*
X110056760Y-112837438D01*
X110209919Y-112738883D01*
X110312668Y-112588505D01*
X110348816Y-112410000D01*
X110348816Y-111110000D01*
X110631184Y-111110000D01*
X110631184Y-112410000D01*
X110662562Y-112576760D01*
X110761117Y-112729919D01*
X110911495Y-112832668D01*
X111090000Y-112868816D01*
X112590000Y-112868816D01*
X112756760Y-112837438D01*
X112909919Y-112738883D01*
X113012668Y-112588505D01*
X113048168Y-112413200D01*
X114281786Y-112413200D01*
X114312562Y-112576760D01*
X114411117Y-112729919D01*
X114561495Y-112832668D01*
X114740000Y-112868816D01*
X116240000Y-112868816D01*
X116406760Y-112837438D01*
X116559919Y-112738883D01*
X116662668Y-112588505D01*
X116698816Y-112410000D01*
X116698816Y-111110000D01*
X116667438Y-110943240D01*
X116568883Y-110790081D01*
X116418505Y-110687332D01*
X116240000Y-110651184D01*
X114740000Y-110651184D01*
X114573240Y-110682562D01*
X114420081Y-110781117D01*
X114317332Y-110931495D01*
X114281832Y-111106800D01*
X113048214Y-111106800D01*
X113017438Y-110943240D01*
X112918883Y-110790081D01*
X112768505Y-110687332D01*
X112590000Y-110651184D01*
X111090000Y-110651184D01*
X110923240Y-110682562D01*
X110770081Y-110781117D01*
X110667332Y-110931495D01*
X110631184Y-111110000D01*
X110348816Y-111110000D01*
X110317438Y-110943240D01*
X110218883Y-110790081D01*
X110068505Y-110687332D01*
X109890000Y-110651184D01*
X108954948Y-110651184D01*
X108222200Y-109918436D01*
X108222200Y-109024836D01*
X108390000Y-109058816D01*
X109890000Y-109058816D01*
X110056760Y-109027438D01*
X110209919Y-108928883D01*
X110312668Y-108778505D01*
X110348816Y-108600000D01*
X110348816Y-107300000D01*
X110631184Y-107300000D01*
X110631184Y-108600000D01*
X110662562Y-108766760D01*
X110761117Y-108919919D01*
X110911495Y-109022668D01*
X111090000Y-109058816D01*
X112590000Y-109058816D01*
X112756760Y-109027438D01*
X112909919Y-108928883D01*
X113012668Y-108778505D01*
X113048168Y-108603200D01*
X114281786Y-108603200D01*
X114312562Y-108766760D01*
X114411117Y-108919919D01*
X114561495Y-109022668D01*
X114740000Y-109058816D01*
X116240000Y-109058816D01*
X116406760Y-109027438D01*
X116559919Y-108928883D01*
X116662668Y-108778505D01*
X116698816Y-108600000D01*
X116698816Y-107300000D01*
X116667438Y-107133240D01*
X116568883Y-106980081D01*
X116418505Y-106877332D01*
X116240000Y-106841184D01*
X114740000Y-106841184D01*
X114573240Y-106872562D01*
X114420081Y-106971117D01*
X114317332Y-107121495D01*
X114281832Y-107296800D01*
X113048214Y-107296800D01*
X113017438Y-107133240D01*
X112918883Y-106980081D01*
X112768505Y-106877332D01*
X112590000Y-106841184D01*
X111090000Y-106841184D01*
X110923240Y-106872562D01*
X110770081Y-106971117D01*
X110667332Y-107121495D01*
X110631184Y-107300000D01*
X110348816Y-107300000D01*
X110317438Y-107133240D01*
X110218883Y-106980081D01*
X110179649Y-106953273D01*
X110485522Y-106647400D01*
X114984615Y-106647400D01*
X115017605Y-106680448D01*
X115293161Y-106794869D01*
X115591530Y-106795130D01*
X115867286Y-106681189D01*
X116078448Y-106470395D01*
X116192869Y-106194839D01*
X116193130Y-105896470D01*
X116079189Y-105620714D01*
X115868395Y-105409552D01*
X115592839Y-105295131D01*
X115294470Y-105294870D01*
X115018714Y-105408811D01*
X114984866Y-105442600D01*
X110236000Y-105442600D01*
X110005471Y-105488455D01*
X109810039Y-105619039D01*
X108714039Y-106715039D01*
X108629751Y-106841184D01*
X108390000Y-106841184D01*
X108223240Y-106872562D01*
X108222200Y-106873231D01*
X108222200Y-106315564D01*
X109288948Y-105248816D01*
X109890000Y-105248816D01*
X110056760Y-105217438D01*
X110209919Y-105118883D01*
X110312668Y-104968505D01*
X110348816Y-104790000D01*
X110348816Y-103490000D01*
X110631184Y-103490000D01*
X110631184Y-104790000D01*
X110662562Y-104956760D01*
X110761117Y-105109919D01*
X110911495Y-105212668D01*
X111090000Y-105248816D01*
X112590000Y-105248816D01*
X112756760Y-105217438D01*
X112909919Y-105118883D01*
X113012668Y-104968505D01*
X113048168Y-104793200D01*
X114281786Y-104793200D01*
X114312562Y-104956760D01*
X114411117Y-105109919D01*
X114561495Y-105212668D01*
X114740000Y-105248816D01*
X116240000Y-105248816D01*
X116406760Y-105217438D01*
X116559919Y-105118883D01*
X116662668Y-104968505D01*
X116698816Y-104790000D01*
X116698816Y-103490000D01*
X116667438Y-103323240D01*
X116568883Y-103170081D01*
X116418505Y-103067332D01*
X116240000Y-103031184D01*
X114740000Y-103031184D01*
X114573240Y-103062562D01*
X114420081Y-103161117D01*
X114317332Y-103311495D01*
X114281832Y-103486800D01*
X113048214Y-103486800D01*
X113017438Y-103323240D01*
X112918883Y-103170081D01*
X112768505Y-103067332D01*
X112590000Y-103031184D01*
X111090000Y-103031184D01*
X110923240Y-103062562D01*
X110770081Y-103161117D01*
X110667332Y-103311495D01*
X110631184Y-103490000D01*
X110348816Y-103490000D01*
X110318719Y-103330045D01*
X110760564Y-102888200D01*
X116740000Y-102888200D01*
X116740000Y-116840000D01*
X116747879Y-116878906D01*
X116770273Y-116911681D01*
X116803654Y-116933161D01*
X116840000Y-116940000D01*
X123392000Y-116940000D01*
X123392000Y-116994002D01*
X123543998Y-116994002D01*
X123392000Y-117146000D01*
X123392000Y-117760938D01*
X123484562Y-117984404D01*
X123655595Y-118155437D01*
X123879061Y-118248000D01*
X124694000Y-118248000D01*
X124846000Y-118096000D01*
X124846000Y-116994000D01*
X124826000Y-116994000D01*
X124826000Y-116940000D01*
X125174000Y-116940000D01*
X125174000Y-116994000D01*
X125154000Y-116994000D01*
X125154000Y-118096000D01*
X125306000Y-118248000D01*
X126120939Y-118248000D01*
X126344405Y-118155437D01*
X126515438Y-117984404D01*
X126608000Y-117760938D01*
X126608000Y-117146000D01*
X126456002Y-116994002D01*
X126608000Y-116994002D01*
X126608000Y-116940000D01*
X127541184Y-116940000D01*
X127541184Y-117640000D01*
X127572562Y-117806760D01*
X127671117Y-117959919D01*
X127821495Y-118062668D01*
X128000000Y-118098816D01*
X128245200Y-118098816D01*
X128245200Y-119607352D01*
X126941352Y-120911200D01*
X120826816Y-120911200D01*
X120826816Y-119916000D01*
X120795438Y-119749240D01*
X120696883Y-119596081D01*
X120546505Y-119493332D01*
X120368000Y-119457184D01*
X116868000Y-119457184D01*
X116701240Y-119488562D01*
X116548081Y-119587117D01*
X116445332Y-119737495D01*
X116409184Y-119916000D01*
X116409184Y-123416000D01*
X116440562Y-123582760D01*
X116539117Y-123735919D01*
X116689495Y-123838668D01*
X116868000Y-123874816D01*
X120368000Y-123874816D01*
X120534760Y-123843438D01*
X120687919Y-123744883D01*
X120790668Y-123594505D01*
X120826816Y-123416000D01*
X120826816Y-122420800D01*
X127254000Y-122420800D01*
X127542850Y-122363344D01*
X127787724Y-122199724D01*
X129533724Y-120453724D01*
X129697344Y-120208849D01*
X129754800Y-119920000D01*
X129754800Y-118098816D01*
X130000000Y-118098816D01*
X130166760Y-118067438D01*
X130319919Y-117968883D01*
X130422668Y-117818505D01*
X130458816Y-117640000D01*
X130458816Y-117594800D01*
X133350000Y-117594800D01*
X133638850Y-117537344D01*
X133883724Y-117373724D01*
X134317448Y-116940000D01*
X137160000Y-116940000D01*
X137198906Y-116932121D01*
X137231681Y-116909727D01*
X137253161Y-116876346D01*
X137260000Y-116840000D01*
X137260000Y-116614842D01*
X137355595Y-116710437D01*
X137579061Y-116803000D01*
X138144000Y-116803000D01*
X138296000Y-116651000D01*
X138296000Y-115724000D01*
X138276000Y-115724000D01*
X138276000Y-115416000D01*
X138296000Y-115416000D01*
X138296000Y-114489000D01*
X138144000Y-114337000D01*
X137579061Y-114337000D01*
X137355595Y-114429563D01*
X137260000Y-114525158D01*
X137260000Y-106164800D01*
X137265608Y-106164800D01*
X137272562Y-106201760D01*
X137371117Y-106354919D01*
X137521495Y-106457668D01*
X137700000Y-106493816D01*
X137845200Y-106493816D01*
X137845200Y-108824910D01*
X137750081Y-108886117D01*
X137647332Y-109036495D01*
X137611184Y-109215000D01*
X137611184Y-109763974D01*
X137554562Y-109820596D01*
X137462000Y-110044062D01*
X137462000Y-110184000D01*
X137614000Y-110336000D01*
X138446000Y-110336000D01*
X138446000Y-110323816D01*
X138754000Y-110323816D01*
X138754000Y-110336000D01*
X139586000Y-110336000D01*
X139738000Y-110184000D01*
X139738000Y-110044062D01*
X139645438Y-109820596D01*
X139588816Y-109763974D01*
X139588816Y-109215000D01*
X139557438Y-109048240D01*
X139458883Y-108895081D01*
X139354800Y-108823964D01*
X139354800Y-106464688D01*
X139366760Y-106462438D01*
X139519919Y-106363883D01*
X139618420Y-106219722D01*
X139684562Y-106379404D01*
X139855595Y-106550437D01*
X140079061Y-106643000D01*
X140644000Y-106643000D01*
X140796000Y-106491000D01*
X140796000Y-105564000D01*
X140776000Y-105564000D01*
X140776000Y-105256000D01*
X140796000Y-105256000D01*
X140796000Y-104329000D01*
X140644000Y-104177000D01*
X140079061Y-104177000D01*
X139855595Y-104269563D01*
X139684562Y-104440596D01*
X139617425Y-104602680D01*
X139528883Y-104465081D01*
X139378505Y-104362332D01*
X139204800Y-104327156D01*
X139204800Y-102890000D01*
X139147344Y-102601151D01*
X139058643Y-102468400D01*
X138983724Y-102356275D01*
X137693724Y-101066276D01*
X137448850Y-100902656D01*
X137160000Y-100845200D01*
X135728816Y-100845200D01*
X135728816Y-99500000D01*
X135697438Y-99333240D01*
X135598883Y-99180081D01*
X135448505Y-99077332D01*
X135273200Y-99041832D01*
X135273200Y-98443214D01*
X135436760Y-98412438D01*
X135589919Y-98313883D01*
X135692668Y-98163505D01*
X135728816Y-97985000D01*
X135728816Y-97888200D01*
X136318000Y-97888200D01*
X136567969Y-97838478D01*
X136779882Y-97696882D01*
X137097311Y-97379453D01*
X137330286Y-97283189D01*
X137541448Y-97072395D01*
X137655869Y-96796839D01*
X137656130Y-96498470D01*
X137542189Y-96222714D01*
X137331395Y-96011552D01*
X137055839Y-95897131D01*
X136757470Y-95896870D01*
X136481714Y-96010811D01*
X136270552Y-96221605D01*
X136173213Y-96456023D01*
X136047436Y-96581800D01*
X135728816Y-96581800D01*
X135728816Y-96485000D01*
X135697438Y-96318240D01*
X135598883Y-96165081D01*
X135448505Y-96062332D01*
X135270000Y-96026184D01*
X133970000Y-96026184D01*
X133803240Y-96057562D01*
X133650081Y-96156117D01*
X133547332Y-96306495D01*
X133511184Y-96485000D01*
X133511184Y-97985000D01*
X133542562Y-98151760D01*
X133641117Y-98304919D01*
X133791495Y-98407668D01*
X133966800Y-98443168D01*
X133966800Y-99041786D01*
X133803240Y-99072562D01*
X133650081Y-99171117D01*
X133547332Y-99321495D01*
X133511184Y-99500000D01*
X133511184Y-100845200D01*
X132969000Y-100845200D01*
X132680151Y-100902656D01*
X132435276Y-101066276D01*
X132001552Y-101500000D01*
X130608000Y-101500000D01*
X130608000Y-101445998D01*
X130456002Y-101445998D01*
X130608000Y-101294000D01*
X130608000Y-100679062D01*
X130515438Y-100455596D01*
X130344405Y-100284563D01*
X130120939Y-100192000D01*
X129306000Y-100192000D01*
X129154000Y-100344000D01*
X129154000Y-101446000D01*
X129174000Y-101446000D01*
X129174000Y-101500000D01*
X128826000Y-101500000D01*
X128826000Y-101446000D01*
X128846000Y-101446000D01*
X128846000Y-100344000D01*
X128694000Y-100192000D01*
X128553980Y-100192000D01*
X128610818Y-100157237D01*
X128667619Y-100104822D01*
X128731882Y-100061882D01*
X128760398Y-100019205D01*
X128798120Y-99984395D01*
X128830538Y-99914233D01*
X128873478Y-99849969D01*
X128883492Y-99799626D01*
X128905021Y-99753031D01*
X128908122Y-99675803D01*
X128923200Y-99600000D01*
X128923200Y-97058816D01*
X129720000Y-97058816D01*
X129886760Y-97027438D01*
X130039919Y-96928883D01*
X130142668Y-96778505D01*
X130161810Y-96683980D01*
X130194882Y-96661882D01*
X131255311Y-95601453D01*
X131488286Y-95505189D01*
X131699448Y-95294395D01*
X131813869Y-95018839D01*
X131814024Y-94841000D01*
X133362000Y-94841000D01*
X133362000Y-95405939D01*
X133454563Y-95629405D01*
X133625596Y-95800438D01*
X133849062Y-95893000D01*
X134314000Y-95893000D01*
X134466000Y-95741000D01*
X134466000Y-94689000D01*
X134774000Y-94689000D01*
X134774000Y-95741000D01*
X134926000Y-95893000D01*
X135390938Y-95893000D01*
X135614404Y-95800438D01*
X135785437Y-95629405D01*
X135878000Y-95405939D01*
X135878000Y-94841000D01*
X135726000Y-94689000D01*
X134774000Y-94689000D01*
X134466000Y-94689000D01*
X133514000Y-94689000D01*
X133362000Y-94841000D01*
X131814024Y-94841000D01*
X131814130Y-94720470D01*
X131700189Y-94444714D01*
X131489395Y-94233552D01*
X131213839Y-94119131D01*
X130915470Y-94118870D01*
X130639714Y-94232811D01*
X130428552Y-94443605D01*
X130331213Y-94678023D01*
X130145699Y-94863537D01*
X130178816Y-94700000D01*
X130178816Y-93900000D01*
X130176274Y-93886490D01*
X130398703Y-93664061D01*
X133362000Y-93664061D01*
X133362000Y-94229000D01*
X133514000Y-94381000D01*
X134466000Y-94381000D01*
X134466000Y-93329000D01*
X134774000Y-93329000D01*
X134774000Y-94381000D01*
X135726000Y-94381000D01*
X135878000Y-94229000D01*
X135878000Y-93664061D01*
X135785437Y-93440595D01*
X135614404Y-93269562D01*
X135390938Y-93177000D01*
X134926000Y-93177000D01*
X134774000Y-93329000D01*
X134466000Y-93329000D01*
X134314000Y-93177000D01*
X133849062Y-93177000D01*
X133625596Y-93269562D01*
X133454563Y-93440595D01*
X133362000Y-93664061D01*
X130398703Y-93664061D01*
X131588564Y-92474200D01*
X133858000Y-92474200D01*
X134107969Y-92424478D01*
X134319882Y-92282882D01*
X135335882Y-91266882D01*
X135477478Y-91054969D01*
X135527200Y-90805000D01*
X135527200Y-89424564D01*
X135636184Y-89315580D01*
X135636184Y-89435000D01*
X135655691Y-89538671D01*
X135636184Y-89635000D01*
X135636184Y-90085000D01*
X135655691Y-90188671D01*
X135636184Y-90285000D01*
X135636184Y-90735000D01*
X135667562Y-90901760D01*
X135766117Y-91054919D01*
X135916495Y-91157668D01*
X136095000Y-91193816D01*
X137545000Y-91193816D01*
X137711760Y-91162438D01*
X137789521Y-91112400D01*
X140293944Y-91112400D01*
X140220131Y-91290161D01*
X140219870Y-91588530D01*
X140333811Y-91864286D01*
X140544605Y-92075448D01*
X140779023Y-92172787D01*
X141967800Y-93361564D01*
X141967800Y-104237832D01*
X141820939Y-104177000D01*
X141256000Y-104177000D01*
X141104000Y-104329000D01*
X141104000Y-105256000D01*
X141124000Y-105256000D01*
X141124000Y-105564000D01*
X141104000Y-105564000D01*
X141104000Y-106491000D01*
X141256000Y-106643000D01*
X141820939Y-106643000D01*
X141967800Y-106582168D01*
X141967800Y-107806436D01*
X141018052Y-108756184D01*
X140270000Y-108756184D01*
X140103240Y-108787562D01*
X139950081Y-108886117D01*
X139847332Y-109036495D01*
X139811184Y-109215000D01*
X139811184Y-109865000D01*
X139842562Y-110031760D01*
X139941117Y-110184919D01*
X140091495Y-110287668D01*
X140270000Y-110323816D01*
X141023052Y-110323816D01*
X141361875Y-110662639D01*
X141330000Y-110656184D01*
X140270000Y-110656184D01*
X140103240Y-110687562D01*
X139950081Y-110786117D01*
X139847332Y-110936495D01*
X139811184Y-111115000D01*
X139811184Y-111765000D01*
X139842562Y-111931760D01*
X139941117Y-112084919D01*
X140091495Y-112187668D01*
X140270000Y-112223816D01*
X141330000Y-112223816D01*
X141496760Y-112192438D01*
X141583987Y-112136309D01*
X141603811Y-112184286D01*
X141814605Y-112395448D01*
X142090161Y-112509869D01*
X142388530Y-112510130D01*
X142664286Y-112396189D01*
X142875448Y-112185395D01*
X142989869Y-111909839D01*
X142990130Y-111611470D01*
X142893200Y-111376883D01*
X142893200Y-110617000D01*
X142843478Y-110367031D01*
X142701882Y-110155118D01*
X142084264Y-109537500D01*
X143082882Y-108538882D01*
X143224478Y-108326969D01*
X143235173Y-108273200D01*
X143274200Y-108077000D01*
X143274200Y-108058122D01*
X147327262Y-112111184D01*
X146520000Y-112111184D01*
X146353240Y-112142562D01*
X146200081Y-112241117D01*
X146097332Y-112391495D01*
X146061184Y-112570000D01*
X146061184Y-112815200D01*
X141566028Y-112815200D01*
X141500839Y-112788131D01*
X141375237Y-112788021D01*
X141351000Y-112783200D01*
X141326975Y-112787979D01*
X141202470Y-112787870D01*
X141136327Y-112815200D01*
X140552648Y-112815200D01*
X139574271Y-111836823D01*
X139588816Y-111765000D01*
X139588816Y-111216026D01*
X139645438Y-111159404D01*
X139738000Y-110935938D01*
X139738000Y-110796000D01*
X139586000Y-110644000D01*
X138754000Y-110644000D01*
X138754000Y-110656184D01*
X138446000Y-110656184D01*
X138446000Y-110644000D01*
X137614000Y-110644000D01*
X137462000Y-110796000D01*
X137462000Y-110935938D01*
X137554562Y-111159404D01*
X137611184Y-111216026D01*
X137611184Y-111765000D01*
X137642562Y-111931760D01*
X137741117Y-112084919D01*
X137891495Y-112187668D01*
X137896662Y-112188714D01*
X137902656Y-112218850D01*
X138066276Y-112463724D01*
X139706276Y-114103724D01*
X139951150Y-114267344D01*
X139986000Y-114274276D01*
X140240000Y-114324800D01*
X144322752Y-114324800D01*
X144246276Y-114401276D01*
X144082656Y-114646150D01*
X144050551Y-114807552D01*
X144025200Y-114935000D01*
X144025200Y-125937649D01*
X143825410Y-126071145D01*
X143540657Y-126497307D01*
X143510000Y-126651430D01*
X143479343Y-126497307D01*
X143194590Y-126071145D01*
X142994800Y-125937649D01*
X142994800Y-116860000D01*
X142937344Y-116571151D01*
X142855766Y-116449061D01*
X142773724Y-116326275D01*
X142691184Y-116243735D01*
X142900724Y-116103724D01*
X143027724Y-115976724D01*
X143041334Y-115956356D01*
X143129448Y-115868395D01*
X143177614Y-115752398D01*
X143191344Y-115731850D01*
X143196123Y-115707824D01*
X143243869Y-115592839D01*
X143243979Y-115467237D01*
X143248800Y-115443000D01*
X143244021Y-115418975D01*
X143244130Y-115294470D01*
X143196165Y-115178386D01*
X143191344Y-115154151D01*
X143177736Y-115133784D01*
X143130189Y-115018714D01*
X143041453Y-114929823D01*
X143027724Y-114909276D01*
X143007356Y-114895667D01*
X142919395Y-114807552D01*
X142803396Y-114759385D01*
X142782849Y-114745656D01*
X142758824Y-114740877D01*
X142643839Y-114693131D01*
X142518237Y-114693021D01*
X142494000Y-114688200D01*
X142469975Y-114692979D01*
X142345470Y-114692870D01*
X142229387Y-114740835D01*
X142205150Y-114745656D01*
X142184782Y-114759265D01*
X142128262Y-114782619D01*
X142127438Y-114778240D01*
X142028883Y-114625081D01*
X141878505Y-114522332D01*
X141700000Y-114486184D01*
X140200000Y-114486184D01*
X140033240Y-114517562D01*
X139880081Y-114616117D01*
X139781580Y-114760278D01*
X139715438Y-114600596D01*
X139544405Y-114429563D01*
X139320939Y-114337000D01*
X138756000Y-114337000D01*
X138604000Y-114489000D01*
X138604000Y-115416000D01*
X138624000Y-115416000D01*
X138624000Y-115724000D01*
X138604000Y-115724000D01*
X138604000Y-116651000D01*
X138756000Y-116803000D01*
X139320939Y-116803000D01*
X139544405Y-116710437D01*
X139715438Y-116539404D01*
X139782575Y-116377320D01*
X139871117Y-116514919D01*
X140021495Y-116617668D01*
X140200000Y-116653816D01*
X140966368Y-116653816D01*
X141485200Y-117172649D01*
X141485200Y-125937649D01*
X141285410Y-126071145D01*
X141000657Y-126497307D01*
X140970000Y-126651430D01*
X140939343Y-126497307D01*
X140654590Y-126071145D01*
X140302400Y-125835819D01*
X140302400Y-120981385D01*
X140335448Y-120948395D01*
X140449869Y-120672839D01*
X140450130Y-120374470D01*
X140336189Y-120098714D01*
X140125395Y-119887552D01*
X139849839Y-119773131D01*
X139551470Y-119772870D01*
X139275714Y-119886811D01*
X139064552Y-120097605D01*
X138950131Y-120373161D01*
X138949870Y-120671530D01*
X139063811Y-120947286D01*
X139097600Y-120981134D01*
X139097600Y-125835819D01*
X138745410Y-126071145D01*
X138460657Y-126497307D01*
X138430000Y-126651430D01*
X138399343Y-126497307D01*
X138114590Y-126071145D01*
X137688428Y-125786392D01*
X137185735Y-125686400D01*
X137134265Y-125686400D01*
X136631572Y-125786392D01*
X136205410Y-126071145D01*
X135920657Y-126497307D01*
X135890000Y-126651430D01*
X135859343Y-126497307D01*
X135574590Y-126071145D01*
X135148428Y-125786392D01*
X134645735Y-125686400D01*
X134594265Y-125686400D01*
X134091572Y-125786392D01*
X133665410Y-126071145D01*
X133380657Y-126497307D01*
X133280665Y-127000000D01*
X133380657Y-127502693D01*
X133665410Y-127928855D01*
X134091572Y-128213608D01*
X134594265Y-128313600D01*
X134645735Y-128313600D01*
X135148428Y-128213608D01*
X135574590Y-127928855D01*
X135859343Y-127502693D01*
X135890000Y-127348570D01*
X135920657Y-127502693D01*
X136205410Y-127928855D01*
X136631572Y-128213608D01*
X137134265Y-128313600D01*
X137185735Y-128313600D01*
X137688428Y-128213608D01*
X138114590Y-127928855D01*
X138399343Y-127502693D01*
X138430000Y-127348570D01*
X138460657Y-127502693D01*
X138745410Y-127928855D01*
X139171572Y-128213608D01*
X139674265Y-128313600D01*
X139725735Y-128313600D01*
X140228428Y-128213608D01*
X140654590Y-127928855D01*
X140939343Y-127502693D01*
X140970000Y-127348570D01*
X141000657Y-127502693D01*
X141285410Y-127928855D01*
X141711572Y-128213608D01*
X142214265Y-128313600D01*
X142265735Y-128313600D01*
X142768428Y-128213608D01*
X143194590Y-127928855D01*
X143479343Y-127502693D01*
X143510000Y-127348570D01*
X143540657Y-127502693D01*
X143825410Y-127928855D01*
X144251572Y-128213608D01*
X144754265Y-128313600D01*
X144805735Y-128313600D01*
X145308428Y-128213608D01*
X145734590Y-127928855D01*
X145975900Y-127567710D01*
X146045459Y-127735654D01*
X146424000Y-128167402D01*
X146938949Y-128421423D01*
X147166000Y-128311532D01*
X147166000Y-127154000D01*
X147474000Y-127154000D01*
X147474000Y-128311532D01*
X147701051Y-128421423D01*
X148216000Y-128167402D01*
X148590000Y-127740833D01*
X148964000Y-128167402D01*
X149478949Y-128421423D01*
X149706000Y-128311532D01*
X149706000Y-127154000D01*
X147474000Y-127154000D01*
X147166000Y-127154000D01*
X147146000Y-127154000D01*
X147146000Y-126846000D01*
X147166000Y-126846000D01*
X147166000Y-125688468D01*
X147474000Y-125688468D01*
X147474000Y-126846000D01*
X149706000Y-126846000D01*
X149706000Y-125688468D01*
X150014000Y-125688468D01*
X150014000Y-126846000D01*
X150034000Y-126846000D01*
X150034000Y-127154000D01*
X150014000Y-127154000D01*
X150014000Y-128311532D01*
X150241051Y-128421423D01*
X150756000Y-128167402D01*
X151134541Y-127735654D01*
X151204100Y-127567710D01*
X151445410Y-127928855D01*
X151871572Y-128213608D01*
X152374265Y-128313600D01*
X152425735Y-128313600D01*
X152928428Y-128213608D01*
X153354590Y-127928855D01*
X153639343Y-127502693D01*
X153739335Y-127000000D01*
X153639343Y-126497307D01*
X153354590Y-126071145D01*
X152928428Y-125786392D01*
X152425735Y-125686400D01*
X152374265Y-125686400D01*
X151871572Y-125786392D01*
X151445410Y-126071145D01*
X151204100Y-126432290D01*
X151134541Y-126264346D01*
X150756000Y-125832598D01*
X150241051Y-125578577D01*
X150014000Y-125688468D01*
X149706000Y-125688468D01*
X149478949Y-125578577D01*
X148964000Y-125832598D01*
X148590000Y-126259167D01*
X148216000Y-125832598D01*
X147701051Y-125578577D01*
X147474000Y-125688468D01*
X147166000Y-125688468D01*
X146938949Y-125578577D01*
X146424000Y-125832598D01*
X146045459Y-126264346D01*
X145975900Y-126432290D01*
X145734590Y-126071145D01*
X145534800Y-125937649D01*
X145534800Y-117876000D01*
X145912000Y-117876000D01*
X145912000Y-118690939D01*
X146004563Y-118914405D01*
X146175596Y-119085438D01*
X146399062Y-119178000D01*
X147014000Y-119178000D01*
X147166000Y-119026000D01*
X147166000Y-117724000D01*
X147474000Y-117724000D01*
X147474000Y-119026000D01*
X147626000Y-119178000D01*
X148240938Y-119178000D01*
X148464404Y-119085438D01*
X148635437Y-118914405D01*
X148728000Y-118690939D01*
X148728000Y-117876000D01*
X148576000Y-117724000D01*
X147474000Y-117724000D01*
X147166000Y-117724000D01*
X146064000Y-117724000D01*
X145912000Y-117876000D01*
X145534800Y-117876000D01*
X145534800Y-116449061D01*
X145912000Y-116449061D01*
X145912000Y-117264000D01*
X146064000Y-117416000D01*
X147166000Y-117416000D01*
X147166000Y-116114000D01*
X147474000Y-116114000D01*
X147474000Y-117416000D01*
X148576000Y-117416000D01*
X148728000Y-117264000D01*
X148728000Y-116449061D01*
X148635437Y-116225595D01*
X148464404Y-116054562D01*
X148240938Y-115962000D01*
X147626000Y-115962000D01*
X147474000Y-116114000D01*
X147166000Y-116114000D01*
X147014000Y-115962000D01*
X146399062Y-115962000D01*
X146175596Y-116054562D01*
X146004563Y-116225595D01*
X145912000Y-116449061D01*
X145534800Y-116449061D01*
X145534800Y-115247648D01*
X146085139Y-114697310D01*
X146092562Y-114736760D01*
X146191117Y-114889919D01*
X146341495Y-114992668D01*
X146520000Y-115028816D01*
X148120000Y-115028816D01*
X148286760Y-114997438D01*
X148439919Y-114898883D01*
X148542668Y-114748505D01*
X148578816Y-114570000D01*
X148578816Y-113974800D01*
X151291336Y-113974800D01*
X151318118Y-114014882D01*
X151794547Y-114491311D01*
X151890811Y-114724286D01*
X152101605Y-114935448D01*
X152377161Y-115049869D01*
X152675530Y-115050130D01*
X152746184Y-115020936D01*
X152746184Y-115670000D01*
X152777562Y-115836760D01*
X152876117Y-115989919D01*
X153026495Y-116092668D01*
X153205000Y-116128816D01*
X153603974Y-116128816D01*
X153660596Y-116185438D01*
X153884062Y-116278000D01*
X153990500Y-116278000D01*
X154142500Y-116126000D01*
X154142500Y-115899975D01*
X154177668Y-115848505D01*
X154213816Y-115670000D01*
X154213816Y-114170000D01*
X154346184Y-114170000D01*
X154346184Y-115670000D01*
X154377562Y-115836760D01*
X154417500Y-115898825D01*
X154417500Y-116126000D01*
X154426800Y-116135300D01*
X154426800Y-118377000D01*
X154476522Y-118626969D01*
X154618118Y-118838882D01*
X156826800Y-121047564D01*
X156826800Y-125869762D01*
X156525410Y-126071145D01*
X156240657Y-126497307D01*
X156140665Y-127000000D01*
X156240657Y-127502693D01*
X156525410Y-127928855D01*
X156951572Y-128213608D01*
X157454265Y-128313600D01*
X157505735Y-128313600D01*
X158008428Y-128213608D01*
X158434590Y-127928855D01*
X158719343Y-127502693D01*
X158750000Y-127348570D01*
X158780657Y-127502693D01*
X159065410Y-127928855D01*
X159491572Y-128213608D01*
X159994265Y-128313600D01*
X160045735Y-128313600D01*
X160548428Y-128213608D01*
X160974590Y-127928855D01*
X161259343Y-127502693D01*
X161290000Y-127348570D01*
X161320657Y-127502693D01*
X161605410Y-127928855D01*
X162031572Y-128213608D01*
X162534265Y-128313600D01*
X162585735Y-128313600D01*
X163088428Y-128213608D01*
X163514590Y-127928855D01*
X163799343Y-127502693D01*
X163830000Y-127348570D01*
X163860657Y-127502693D01*
X164145410Y-127928855D01*
X164571572Y-128213608D01*
X165074265Y-128313600D01*
X165125735Y-128313600D01*
X165628428Y-128213608D01*
X166054590Y-127928855D01*
X166339343Y-127502693D01*
X166370000Y-127348570D01*
X166400657Y-127502693D01*
X166685410Y-127928855D01*
X167111572Y-128213608D01*
X167614265Y-128313600D01*
X167665735Y-128313600D01*
X168168428Y-128213608D01*
X168594590Y-127928855D01*
X168879343Y-127502693D01*
X168910000Y-127348570D01*
X168940657Y-127502693D01*
X169225410Y-127928855D01*
X169651572Y-128213608D01*
X170154265Y-128313600D01*
X170205735Y-128313600D01*
X170708428Y-128213608D01*
X171134590Y-127928855D01*
X171419343Y-127502693D01*
X171519335Y-127000000D01*
X171419343Y-126497307D01*
X171134590Y-126071145D01*
X170708428Y-125786392D01*
X170205735Y-125686400D01*
X170154265Y-125686400D01*
X169850572Y-125746808D01*
X164032230Y-119928466D01*
X164127286Y-119889189D01*
X164338448Y-119678395D01*
X164452869Y-119402839D01*
X164453130Y-119104470D01*
X164356200Y-118869883D01*
X164356200Y-118364000D01*
X164306478Y-118114031D01*
X164164882Y-117902118D01*
X162150715Y-115887951D01*
X162177668Y-115848505D01*
X162213816Y-115670000D01*
X162213816Y-114170000D01*
X162182438Y-114003240D01*
X162083883Y-113850081D01*
X161933505Y-113747332D01*
X161755000Y-113711184D01*
X161356026Y-113711184D01*
X161299404Y-113654562D01*
X161075938Y-113562000D01*
X160969500Y-113562000D01*
X160817500Y-113714000D01*
X160817500Y-113940025D01*
X160782332Y-113991495D01*
X160746184Y-114170000D01*
X160746184Y-115094000D01*
X160613816Y-115094000D01*
X160613816Y-114170000D01*
X160582438Y-114003240D01*
X160542500Y-113941175D01*
X160542500Y-113714000D01*
X160390500Y-113562000D01*
X160284062Y-113562000D01*
X160060596Y-113654562D01*
X160003974Y-113711184D01*
X159605000Y-113711184D01*
X159475411Y-113735568D01*
X159355000Y-113711184D01*
X158805000Y-113711184D01*
X158675411Y-113735568D01*
X158555000Y-113711184D01*
X158005000Y-113711184D01*
X157875411Y-113735568D01*
X157755000Y-113711184D01*
X157205000Y-113711184D01*
X157075411Y-113735568D01*
X156955000Y-113711184D01*
X156405000Y-113711184D01*
X156275411Y-113735568D01*
X156155000Y-113711184D01*
X155605000Y-113711184D01*
X155475411Y-113735568D01*
X155355000Y-113711184D01*
X154956026Y-113711184D01*
X154899404Y-113654562D01*
X154675938Y-113562000D01*
X154569500Y-113562000D01*
X154417500Y-113714000D01*
X154417500Y-113940025D01*
X154382332Y-113991495D01*
X154346184Y-114170000D01*
X154213816Y-114170000D01*
X154182438Y-114003240D01*
X154142500Y-113941175D01*
X154142500Y-113714000D01*
X154133200Y-113704700D01*
X154133200Y-113602000D01*
X154083478Y-113352031D01*
X153941882Y-113140118D01*
X153559882Y-112758118D01*
X153347969Y-112616522D01*
X153098000Y-112566800D01*
X152988816Y-112566800D01*
X152988816Y-112145000D01*
X152964432Y-112015411D01*
X152988816Y-111895000D01*
X152988816Y-111345000D01*
X152964432Y-111215411D01*
X152988816Y-111095000D01*
X152988816Y-110545000D01*
X152964432Y-110415411D01*
X152985879Y-110309500D01*
X161822000Y-110309500D01*
X161822000Y-110415938D01*
X161914562Y-110639404D01*
X161971184Y-110696026D01*
X161971184Y-111095000D01*
X161995568Y-111224589D01*
X161971184Y-111345000D01*
X161971184Y-111895000D01*
X161995568Y-112024589D01*
X161971184Y-112145000D01*
X161971184Y-112695000D01*
X161995568Y-112824589D01*
X161971184Y-112945000D01*
X161971184Y-113495000D01*
X162002562Y-113661760D01*
X162101117Y-113814919D01*
X162251495Y-113917668D01*
X162430000Y-113953816D01*
X163930000Y-113953816D01*
X164096760Y-113922438D01*
X164249919Y-113823883D01*
X164250932Y-113822400D01*
X171054726Y-113822400D01*
X171151605Y-113919448D01*
X171427161Y-114033869D01*
X171725530Y-114034130D01*
X172001286Y-113920189D01*
X172212448Y-113709395D01*
X172326869Y-113433839D01*
X172327130Y-113135470D01*
X172213189Y-112859714D01*
X172002395Y-112648552D01*
X171726839Y-112534131D01*
X171428470Y-112533870D01*
X171225830Y-112617600D01*
X164388816Y-112617600D01*
X164388816Y-112273200D01*
X164940049Y-112273200D01*
X165204161Y-112382869D01*
X165502530Y-112383130D01*
X165778286Y-112269189D01*
X165989183Y-112058660D01*
X166198605Y-112268448D01*
X166474161Y-112382869D01*
X166772530Y-112383130D01*
X167048286Y-112269189D01*
X167259448Y-112058395D01*
X167373869Y-111782839D01*
X167374130Y-111484470D01*
X167260189Y-111208714D01*
X167049395Y-110997552D01*
X166814977Y-110900213D01*
X166272882Y-110358118D01*
X166060969Y-110216522D01*
X165811000Y-110166800D01*
X164395300Y-110166800D01*
X164386000Y-110157500D01*
X164159975Y-110157500D01*
X164108505Y-110122332D01*
X163930000Y-110086184D01*
X162430000Y-110086184D01*
X162263240Y-110117562D01*
X162201175Y-110157500D01*
X161974000Y-110157500D01*
X161822000Y-110309500D01*
X152985879Y-110309500D01*
X152988816Y-110295000D01*
X152988816Y-109745000D01*
X152964432Y-109615411D01*
X152988816Y-109495000D01*
X152988816Y-108945000D01*
X152964432Y-108815411D01*
X152988816Y-108695000D01*
X152988816Y-108145000D01*
X152964432Y-108015411D01*
X152988816Y-107895000D01*
X152988816Y-107345000D01*
X152964432Y-107215411D01*
X152988816Y-107095000D01*
X152988816Y-106545000D01*
X152964432Y-106415411D01*
X152988816Y-106295000D01*
X152988816Y-105896026D01*
X153045438Y-105839404D01*
X153138000Y-105615938D01*
X153138000Y-105509500D01*
X152986000Y-105357500D01*
X152759975Y-105357500D01*
X152708505Y-105322332D01*
X152530000Y-105286184D01*
X151606000Y-105286184D01*
X151606000Y-105082500D01*
X151626000Y-105082500D01*
X151626000Y-104489000D01*
X151474000Y-104337000D01*
X150909061Y-104337000D01*
X150685595Y-104429563D01*
X150640200Y-104474958D01*
X150640200Y-103379643D01*
X150736869Y-103146839D01*
X150737130Y-102848470D01*
X150640200Y-102613883D01*
X150640200Y-98934643D01*
X150736869Y-98701839D01*
X150737130Y-98403470D01*
X150623189Y-98127714D01*
X150412395Y-97916552D01*
X150136839Y-97802131D01*
X149838470Y-97801870D01*
X149700400Y-97858920D01*
X149700400Y-97150522D01*
X150158961Y-96691961D01*
X150289545Y-96496529D01*
X150335400Y-96266000D01*
X150335400Y-83307522D01*
X151379522Y-82263400D01*
X158750000Y-82263400D01*
X158980529Y-82217545D01*
X159175961Y-82086961D01*
X160445961Y-80816961D01*
X160576545Y-80621528D01*
X160622400Y-80391000D01*
X160622400Y-79904181D01*
X160974590Y-79668855D01*
X161259343Y-79242693D01*
X161290000Y-79088570D01*
X161320657Y-79242693D01*
X161605410Y-79668855D01*
X161957600Y-79904181D01*
X161957600Y-82185184D01*
X161947839Y-82181131D01*
X161649470Y-82180870D01*
X161373714Y-82294811D01*
X161162552Y-82505605D01*
X161048131Y-82781161D01*
X161047870Y-83079530D01*
X161161811Y-83355286D01*
X161195600Y-83389134D01*
X161195600Y-87698919D01*
X161058839Y-87642131D01*
X160897101Y-87641990D01*
X160897130Y-87608470D01*
X160783189Y-87332714D01*
X160572395Y-87121552D01*
X160296839Y-87007131D01*
X159998470Y-87006870D01*
X159722714Y-87120811D01*
X159511552Y-87331605D01*
X159397131Y-87607161D01*
X159396870Y-87905530D01*
X159510811Y-88181286D01*
X159544600Y-88215134D01*
X159544600Y-89539478D01*
X153879039Y-95205039D01*
X153748455Y-95400471D01*
X153737518Y-95455456D01*
X153702600Y-95631000D01*
X153702600Y-97283317D01*
X153677600Y-97409000D01*
X153677600Y-100134538D01*
X153565839Y-100088131D01*
X153267470Y-100087870D01*
X152991714Y-100201811D01*
X152780552Y-100412605D01*
X152666131Y-100688161D01*
X152665870Y-100986530D01*
X152779811Y-101262286D01*
X152933222Y-101415965D01*
X152880624Y-102447640D01*
X152782332Y-102591495D01*
X152746184Y-102770000D01*
X152746184Y-104270000D01*
X152767907Y-104385450D01*
X152650939Y-104337000D01*
X152086000Y-104337000D01*
X151934000Y-104489000D01*
X151934000Y-105082500D01*
X152986000Y-105082500D01*
X153138000Y-104930500D01*
X153138000Y-104824062D01*
X153088801Y-104705285D01*
X153205000Y-104728816D01*
X153755000Y-104728816D01*
X153884589Y-104704432D01*
X154005000Y-104728816D01*
X154555000Y-104728816D01*
X154684589Y-104704432D01*
X154805000Y-104728816D01*
X155355000Y-104728816D01*
X155484589Y-104704432D01*
X155605000Y-104728816D01*
X156155000Y-104728816D01*
X156284589Y-104704432D01*
X156405000Y-104728816D01*
X156955000Y-104728816D01*
X157084589Y-104704432D01*
X157205000Y-104728816D01*
X157755000Y-104728816D01*
X157884589Y-104704432D01*
X158005000Y-104728816D01*
X158403974Y-104728816D01*
X158460596Y-104785438D01*
X158684062Y-104878000D01*
X158790500Y-104878000D01*
X158942500Y-104726000D01*
X158942500Y-104499975D01*
X158977668Y-104448505D01*
X159013816Y-104270000D01*
X159013816Y-103346000D01*
X159146184Y-103346000D01*
X159146184Y-104270000D01*
X159177562Y-104436760D01*
X159217500Y-104498825D01*
X159217500Y-104726000D01*
X159369500Y-104878000D01*
X159475938Y-104878000D01*
X159699404Y-104785438D01*
X159756026Y-104728816D01*
X160155000Y-104728816D01*
X160284589Y-104704432D01*
X160405000Y-104728816D01*
X160955000Y-104728816D01*
X161084589Y-104704432D01*
X161205000Y-104728816D01*
X161755000Y-104728816D01*
X161921760Y-104697438D01*
X162074919Y-104598883D01*
X162177668Y-104448505D01*
X162213816Y-104270000D01*
X162213816Y-103052106D01*
X162985961Y-102279961D01*
X163116545Y-102084529D01*
X163162400Y-101854000D01*
X163162400Y-91562522D01*
X163874961Y-90849961D01*
X164005545Y-90654529D01*
X164051400Y-90424000D01*
X164051400Y-80931545D01*
X164127286Y-80900189D01*
X164338448Y-80689395D01*
X164452869Y-80413839D01*
X164453130Y-80115470D01*
X164339189Y-79839714D01*
X164215136Y-79715445D01*
X164571572Y-79953608D01*
X165074265Y-80053600D01*
X165125735Y-80053600D01*
X165628428Y-79953608D01*
X166054590Y-79668855D01*
X166339343Y-79242693D01*
X166370000Y-79088570D01*
X166400657Y-79242693D01*
X166685410Y-79668855D01*
X167111572Y-79953608D01*
X167614265Y-80053600D01*
X167665735Y-80053600D01*
X168168428Y-79953608D01*
X168594590Y-79668855D01*
X168879343Y-79242693D01*
X168910000Y-79088570D01*
X168940657Y-79242693D01*
X169225410Y-79668855D01*
X169651572Y-79953608D01*
X170154265Y-80053600D01*
X170205735Y-80053600D01*
X170708428Y-79953608D01*
X171134590Y-79668855D01*
X171419343Y-79242693D01*
X171519335Y-78740000D01*
X171419343Y-78237307D01*
X171134590Y-77811145D01*
X170708428Y-77526392D01*
X170205735Y-77426400D01*
X170154265Y-77426400D01*
X169651572Y-77526392D01*
X169225410Y-77811145D01*
X168940657Y-78237307D01*
X168910000Y-78391430D01*
X168879343Y-78237307D01*
X168594590Y-77811145D01*
X168168428Y-77526392D01*
X167665735Y-77426400D01*
X167614265Y-77426400D01*
X167111572Y-77526392D01*
X166685410Y-77811145D01*
X166400657Y-78237307D01*
X166370000Y-78391430D01*
X166339343Y-78237307D01*
X166054590Y-77811145D01*
X165628428Y-77526392D01*
X165125735Y-77426400D01*
X165074265Y-77426400D01*
X164710650Y-77498728D01*
X163936922Y-76725000D01*
X170128294Y-76725000D01*
X170947171Y-76887885D01*
G36*
X120760285Y-77001081D02*
X120183108Y-77577252D01*
X119870357Y-78330441D01*
X119869645Y-79145981D01*
X120181081Y-79899715D01*
X120757252Y-80476892D01*
X121510441Y-80789643D01*
X122325981Y-80790355D01*
X123079715Y-80478919D01*
X123656892Y-79902748D01*
X123969643Y-79149559D01*
X123970355Y-78334019D01*
X123658919Y-77580285D01*
X123082748Y-77003108D01*
X122412989Y-76725000D01*
X128671078Y-76725000D01*
X127964566Y-77431512D01*
X127487572Y-77526392D01*
X127061410Y-77811145D01*
X126776657Y-78237307D01*
X126746000Y-78391430D01*
X126715343Y-78237307D01*
X126430590Y-77811145D01*
X126004428Y-77526392D01*
X125501735Y-77426400D01*
X125450265Y-77426400D01*
X124947572Y-77526392D01*
X124521410Y-77811145D01*
X124236657Y-78237307D01*
X124136665Y-78740000D01*
X124236657Y-79242693D01*
X124521410Y-79668855D01*
X124947572Y-79953608D01*
X125450265Y-80053600D01*
X125501735Y-80053600D01*
X126004428Y-79953608D01*
X126430590Y-79668855D01*
X126715343Y-79242693D01*
X126746000Y-79088570D01*
X126776657Y-79242693D01*
X127061410Y-79668855D01*
X127487572Y-79953608D01*
X127990265Y-80053600D01*
X128041735Y-80053600D01*
X128544428Y-79953608D01*
X128970590Y-79668855D01*
X129255343Y-79242693D01*
X129286000Y-79088570D01*
X129316657Y-79242693D01*
X129601410Y-79668855D01*
X129953600Y-79904181D01*
X129953600Y-81284478D01*
X129290478Y-81947600D01*
X126619000Y-81947600D01*
X126388471Y-81993455D01*
X126193039Y-82124039D01*
X125882167Y-82434911D01*
X125835470Y-82434870D01*
X125559714Y-82548811D01*
X125348552Y-82759605D01*
X125234131Y-83035161D01*
X125233870Y-83333530D01*
X125347811Y-83609286D01*
X125558605Y-83820448D01*
X125834161Y-83934869D01*
X126132530Y-83935130D01*
X126408286Y-83821189D01*
X126520608Y-83709062D01*
X132012000Y-83709062D01*
X132012000Y-84149000D01*
X132164000Y-84301000D01*
X133216000Y-84301000D01*
X133216000Y-83374000D01*
X133064000Y-83222000D01*
X132499061Y-83222000D01*
X132275595Y-83314563D01*
X132104562Y-83485596D01*
X132012000Y-83709062D01*
X126520608Y-83709062D01*
X126619448Y-83610395D01*
X126733869Y-83334839D01*
X126733911Y-83287011D01*
X126868522Y-83152400D01*
X129540000Y-83152400D01*
X129770529Y-83106545D01*
X129965961Y-82975961D01*
X130981961Y-81959961D01*
X131112545Y-81764529D01*
X131158400Y-81534000D01*
X131158400Y-79904181D01*
X131510590Y-79668855D01*
X131751900Y-79307710D01*
X131821459Y-79475654D01*
X132200000Y-79907402D01*
X132714949Y-80161423D01*
X132942000Y-80051532D01*
X132942000Y-78894000D01*
X132922000Y-78894000D01*
X132922000Y-78586000D01*
X132942000Y-78586000D01*
X132942000Y-78566000D01*
X133250000Y-78566000D01*
X133250000Y-78586000D01*
X133270000Y-78586000D01*
X133270000Y-78894000D01*
X133250000Y-78894000D01*
X133250000Y-80051532D01*
X133477051Y-80161423D01*
X133992000Y-79907402D01*
X134370541Y-79475654D01*
X134440100Y-79307710D01*
X134681410Y-79668855D01*
X135107572Y-79953608D01*
X135147643Y-79961579D01*
X135210039Y-80054961D01*
X135972039Y-80816961D01*
X136167471Y-80947545D01*
X136398000Y-80993400D01*
X140085478Y-80993400D01*
X142907600Y-83815522D01*
X142907600Y-91509678D01*
X141481961Y-90084039D01*
X141286529Y-89953455D01*
X141056000Y-89907600D01*
X139586538Y-89907600D01*
X139668478Y-89784969D01*
X139718200Y-89535000D01*
X139718200Y-88901643D01*
X139814869Y-88668839D01*
X139815130Y-88370470D01*
X139701189Y-88094714D01*
X139490395Y-87883552D01*
X139214839Y-87769131D01*
X138916470Y-87768870D01*
X138640714Y-87882811D01*
X138429552Y-88093605D01*
X138332213Y-88328023D01*
X138103436Y-88556800D01*
X138003816Y-88556800D01*
X138003816Y-88335000D01*
X137972438Y-88168240D01*
X137873883Y-88015081D01*
X137723505Y-87912332D01*
X137545000Y-87876184D01*
X137473200Y-87876184D01*
X137473200Y-87544000D01*
X137423478Y-87294031D01*
X137281882Y-87082118D01*
X136523200Y-86323436D01*
X136523200Y-85538816D01*
X136620000Y-85538816D01*
X136786760Y-85507438D01*
X136939919Y-85408883D01*
X137042668Y-85258505D01*
X137078816Y-85080000D01*
X137078816Y-83830000D01*
X137047438Y-83663240D01*
X136948883Y-83510081D01*
X136798505Y-83407332D01*
X136620000Y-83371184D01*
X135120000Y-83371184D01*
X134953240Y-83402562D01*
X134800081Y-83501117D01*
X134701580Y-83645278D01*
X134635438Y-83485596D01*
X134464405Y-83314563D01*
X134240939Y-83222000D01*
X133676000Y-83222000D01*
X133524000Y-83374000D01*
X133524000Y-84301000D01*
X133544000Y-84301000D01*
X133544000Y-84609000D01*
X133524000Y-84609000D01*
X133524000Y-85536000D01*
X133676000Y-85688000D01*
X134240939Y-85688000D01*
X134464405Y-85595437D01*
X134635438Y-85424404D01*
X134702575Y-85262320D01*
X134791117Y-85399919D01*
X134941495Y-85502668D01*
X135120000Y-85538816D01*
X135216800Y-85538816D01*
X135216800Y-86594000D01*
X135266522Y-86843969D01*
X135408118Y-87055882D01*
X136166800Y-87814564D01*
X136166800Y-87876184D01*
X136095000Y-87876184D01*
X135932290Y-87906800D01*
X135468000Y-87906800D01*
X135218031Y-87956522D01*
X135006118Y-88098118D01*
X134638200Y-88466036D01*
X134638200Y-86979623D01*
X134715478Y-86863969D01*
X134765200Y-86614000D01*
X134735022Y-86462284D01*
X134735130Y-86338470D01*
X134621189Y-86062714D01*
X134410395Y-85851552D01*
X134134839Y-85737131D01*
X133836470Y-85736870D01*
X133560714Y-85850811D01*
X133349552Y-86061605D01*
X133235131Y-86337161D01*
X133234870Y-86635530D01*
X133331800Y-86870117D01*
X133331800Y-87918000D01*
X133323505Y-87912332D01*
X133145000Y-87876184D01*
X133073200Y-87876184D01*
X133073200Y-87589000D01*
X133023478Y-87339031D01*
X132881882Y-87127118D01*
X131796453Y-86041689D01*
X131700189Y-85808714D01*
X131489395Y-85597552D01*
X131213839Y-85483131D01*
X130915470Y-85482870D01*
X130639714Y-85596811D01*
X130428552Y-85807605D01*
X130314131Y-86083161D01*
X130313870Y-86381530D01*
X130427811Y-86657286D01*
X130638605Y-86868448D01*
X130873023Y-86965787D01*
X131766800Y-87859564D01*
X131766800Y-87876184D01*
X131695000Y-87876184D01*
X131528240Y-87907562D01*
X131375081Y-88006117D01*
X131272332Y-88156495D01*
X131236184Y-88335000D01*
X131236184Y-88785000D01*
X131255691Y-88888671D01*
X131248743Y-88922979D01*
X130828200Y-88502436D01*
X130828200Y-88392000D01*
X130778478Y-88142031D01*
X130636882Y-87930118D01*
X129894882Y-87188118D01*
X129682969Y-87046522D01*
X129433000Y-86996800D01*
X129353816Y-86996800D01*
X129353816Y-86900000D01*
X129322438Y-86733240D01*
X129225371Y-86582393D01*
X129350311Y-86457453D01*
X129583286Y-86361189D01*
X129794448Y-86150395D01*
X129908869Y-85874839D01*
X129909130Y-85576470D01*
X129795189Y-85300714D01*
X129584395Y-85089552D01*
X129308839Y-84975131D01*
X129010470Y-84974870D01*
X128734714Y-85088811D01*
X128523552Y-85299605D01*
X128426213Y-85534023D01*
X127808118Y-86152118D01*
X127666522Y-86364031D01*
X127651175Y-86441184D01*
X127645000Y-86441184D01*
X127478240Y-86472562D01*
X127325081Y-86571117D01*
X127222332Y-86721495D01*
X127186184Y-86900000D01*
X127186184Y-88400000D01*
X127217562Y-88566760D01*
X127316117Y-88719919D01*
X127460278Y-88818420D01*
X127300596Y-88884562D01*
X127129563Y-89055595D01*
X127037000Y-89279061D01*
X127037000Y-89844000D01*
X127189000Y-89996000D01*
X128116000Y-89996000D01*
X128116000Y-89976000D01*
X128424000Y-89976000D01*
X128424000Y-89996000D01*
X129351000Y-89996000D01*
X129503000Y-89844000D01*
X129503000Y-89279061D01*
X129410437Y-89055595D01*
X129239404Y-88884562D01*
X129077320Y-88817425D01*
X129214919Y-88728883D01*
X129317668Y-88578505D01*
X129337889Y-88478653D01*
X129521800Y-88662564D01*
X129521800Y-88773000D01*
X129571522Y-89022969D01*
X129713118Y-89234882D01*
X130800118Y-90321882D01*
X131012031Y-90463478D01*
X131262000Y-90513200D01*
X131543813Y-90513200D01*
X131695000Y-90543816D01*
X133145000Y-90543816D01*
X133311760Y-90512438D01*
X133464919Y-90413883D01*
X133476113Y-90397500D01*
X133601000Y-90397500D01*
X133753000Y-90245500D01*
X133753000Y-90164061D01*
X133660437Y-89940595D01*
X133603816Y-89883974D01*
X133603816Y-89832524D01*
X133699567Y-89813478D01*
X133911480Y-89671882D01*
X134220800Y-89362562D01*
X134220800Y-90534436D01*
X133587436Y-91167800D01*
X133572042Y-91167800D01*
X133660437Y-91079405D01*
X133753000Y-90855939D01*
X133753000Y-90774500D01*
X133601000Y-90622500D01*
X132574000Y-90622500D01*
X132574000Y-90684000D01*
X132266000Y-90684000D01*
X132266000Y-90622500D01*
X131239000Y-90622500D01*
X131087000Y-90774500D01*
X131087000Y-90855939D01*
X131179563Y-91079405D01*
X131276261Y-91176103D01*
X131068031Y-91217522D01*
X130856118Y-91359118D01*
X128808118Y-93407118D01*
X128780374Y-93448640D01*
X128653240Y-93472562D01*
X128500081Y-93571117D01*
X128397332Y-93721495D01*
X128372851Y-93842385D01*
X127808118Y-94407118D01*
X127806994Y-94408801D01*
X127720000Y-94391184D01*
X126820000Y-94391184D01*
X126653240Y-94422562D01*
X126500081Y-94521117D01*
X126448369Y-94596800D01*
X124467063Y-94596800D01*
X124498816Y-94440000D01*
X124498816Y-92440000D01*
X124467438Y-92273240D01*
X124368883Y-92120081D01*
X124218505Y-92017332D01*
X124040000Y-91981184D01*
X122340000Y-91981184D01*
X122173240Y-92012562D01*
X122020081Y-92111117D01*
X121917332Y-92261495D01*
X121881184Y-92440000D01*
X121881184Y-94440000D01*
X121912562Y-94606760D01*
X122011117Y-94759919D01*
X122161495Y-94862668D01*
X122340000Y-94898816D01*
X122536800Y-94898816D01*
X122536800Y-95360436D01*
X121141436Y-96755800D01*
X117221000Y-96755800D01*
X116971031Y-96805522D01*
X116883724Y-96863859D01*
X116796714Y-96899811D01*
X116585552Y-97110605D01*
X116471131Y-97386161D01*
X116470870Y-97684530D01*
X116584811Y-97960286D01*
X116795605Y-98171448D01*
X117071161Y-98285869D01*
X117369530Y-98286130D01*
X117645286Y-98172189D01*
X117755467Y-98062200D01*
X121412000Y-98062200D01*
X121661969Y-98012478D01*
X121873882Y-97870882D01*
X123841564Y-95903200D01*
X126448185Y-95903200D01*
X126491117Y-95969919D01*
X126641495Y-96072668D01*
X126820000Y-96108816D01*
X127616800Y-96108816D01*
X127616800Y-99233822D01*
X125806264Y-100341184D01*
X125653200Y-100341184D01*
X125653200Y-99854000D01*
X125603478Y-99604031D01*
X125461882Y-99392118D01*
X124667882Y-98598118D01*
X124455969Y-98456522D01*
X124206000Y-98406800D01*
X122682000Y-98406800D01*
X122432031Y-98456522D01*
X122220118Y-98598118D01*
X120817466Y-100000770D01*
X120778189Y-99905714D01*
X120567395Y-99694552D01*
X120291839Y-99580131D01*
X119993470Y-99579870D01*
X119758883Y-99676800D01*
X119398214Y-99676800D01*
X119367438Y-99513240D01*
X119268883Y-99360081D01*
X119118505Y-99257332D01*
X118940000Y-99221184D01*
X117440000Y-99221184D01*
X117273240Y-99252562D01*
X117120081Y-99351117D01*
X117017332Y-99501495D01*
X116981184Y-99680000D01*
X116981184Y-100980000D01*
X117012562Y-101146760D01*
X117111117Y-101299919D01*
X117261495Y-101402668D01*
X117440000Y-101438816D01*
X118940000Y-101438816D01*
X119106760Y-101407438D01*
X119259919Y-101308883D01*
X119362668Y-101158505D01*
X119398168Y-100983200D01*
X119759357Y-100983200D01*
X119812831Y-101005405D01*
X119318236Y-101500000D01*
X116840000Y-101500000D01*
X116801094Y-101507879D01*
X116768319Y-101530273D01*
X116746839Y-101563654D01*
X116743425Y-101581800D01*
X110490000Y-101581800D01*
X110240031Y-101631522D01*
X110028118Y-101773118D01*
X109793200Y-102008036D01*
X109793200Y-101438816D01*
X109890000Y-101438816D01*
X110056760Y-101407438D01*
X110209919Y-101308883D01*
X110312668Y-101158505D01*
X110348816Y-100980000D01*
X110348816Y-99680000D01*
X110631184Y-99680000D01*
X110631184Y-100980000D01*
X110662562Y-101146760D01*
X110761117Y-101299919D01*
X110911495Y-101402668D01*
X111090000Y-101438816D01*
X112590000Y-101438816D01*
X112756760Y-101407438D01*
X112909919Y-101308883D01*
X113012668Y-101158505D01*
X113048168Y-100983200D01*
X114281786Y-100983200D01*
X114312562Y-101146760D01*
X114411117Y-101299919D01*
X114561495Y-101402668D01*
X114740000Y-101438816D01*
X116240000Y-101438816D01*
X116406760Y-101407438D01*
X116559919Y-101308883D01*
X116662668Y-101158505D01*
X116698816Y-100980000D01*
X116698816Y-99680000D01*
X116667438Y-99513240D01*
X116568883Y-99360081D01*
X116418505Y-99257332D01*
X116240000Y-99221184D01*
X114740000Y-99221184D01*
X114573240Y-99252562D01*
X114420081Y-99351117D01*
X114317332Y-99501495D01*
X114281832Y-99676800D01*
X113048214Y-99676800D01*
X113017438Y-99513240D01*
X112918883Y-99360081D01*
X112768505Y-99257332D01*
X112590000Y-99221184D01*
X111090000Y-99221184D01*
X110923240Y-99252562D01*
X110770081Y-99351117D01*
X110667332Y-99501495D01*
X110631184Y-99680000D01*
X110348816Y-99680000D01*
X110317438Y-99513240D01*
X110218883Y-99360081D01*
X110068505Y-99257332D01*
X109890000Y-99221184D01*
X108390000Y-99221184D01*
X108223240Y-99252562D01*
X108070081Y-99351117D01*
X107967332Y-99501495D01*
X107931184Y-99680000D01*
X107931184Y-100980000D01*
X107962562Y-101146760D01*
X108061117Y-101299919D01*
X108211495Y-101402668D01*
X108390000Y-101438816D01*
X108486800Y-101438816D01*
X108486800Y-103031184D01*
X108390000Y-103031184D01*
X108223240Y-103062562D01*
X108070081Y-103161117D01*
X107967332Y-103311495D01*
X107931184Y-103490000D01*
X107931184Y-104759052D01*
X107205000Y-105485236D01*
X107205000Y-92746000D01*
X107312000Y-92746000D01*
X107312000Y-93310939D01*
X107375814Y-93465000D01*
X107312000Y-93619061D01*
X107312000Y-94034000D01*
X107464000Y-94186000D01*
X107566935Y-94186000D01*
X107556921Y-94194710D01*
X107363660Y-94594340D01*
X107312000Y-94646000D01*
X107312000Y-95060939D01*
X107385747Y-95238979D01*
X107360698Y-95279535D01*
X107556921Y-95685290D01*
X107915441Y-95997113D01*
X108366000Y-96148000D01*
X108716000Y-96148000D01*
X108716000Y-92594000D01*
X107464000Y-92594000D01*
X107312000Y-92746000D01*
X107205000Y-92746000D01*
X107205000Y-90746000D01*
X107312000Y-90746000D01*
X107312000Y-91310939D01*
X107365459Y-91440000D01*
X107312000Y-91569061D01*
X107312000Y-92134000D01*
X107464000Y-92286000D01*
X108716000Y-92286000D01*
X108716000Y-90594000D01*
X107464000Y-90594000D01*
X107312000Y-90746000D01*
X107205000Y-90746000D01*
X107205000Y-87819061D01*
X107312000Y-87819061D01*
X107312000Y-88234000D01*
X107363660Y-88285660D01*
X107556921Y-88685290D01*
X107566935Y-88694000D01*
X107464000Y-88694000D01*
X107312000Y-88846000D01*
X107312000Y-89260939D01*
X107375814Y-89415000D01*
X107312000Y-89569061D01*
X107312000Y-90134000D01*
X107464000Y-90286000D01*
X108716000Y-90286000D01*
X108716000Y-86732000D01*
X109024000Y-86732000D01*
X109024000Y-90286000D01*
X109044000Y-90286000D01*
X109044000Y-90594000D01*
X109024000Y-90594000D01*
X109024000Y-92286000D01*
X109044000Y-92286000D01*
X109044000Y-92594000D01*
X109024000Y-92594000D01*
X109024000Y-96148000D01*
X109374000Y-96148000D01*
X109824559Y-95997113D01*
X110183079Y-95685290D01*
X110245603Y-95556000D01*
X114132000Y-95556000D01*
X114132000Y-96020938D01*
X114224562Y-96244404D01*
X114395595Y-96415437D01*
X114619061Y-96508000D01*
X115184000Y-96508000D01*
X115336000Y-96356000D01*
X115336000Y-95404000D01*
X115644000Y-95404000D01*
X115644000Y-96356000D01*
X115796000Y-96508000D01*
X116360939Y-96508000D01*
X116584405Y-96415437D01*
X116755438Y-96244404D01*
X116848000Y-96020938D01*
X116848000Y-95556000D01*
X116696000Y-95404000D01*
X115644000Y-95404000D01*
X115336000Y-95404000D01*
X114284000Y-95404000D01*
X114132000Y-95556000D01*
X110245603Y-95556000D01*
X110379302Y-95279535D01*
X110354253Y-95238979D01*
X110428000Y-95060939D01*
X110428000Y-94895479D01*
X110832310Y-94895479D01*
X110900866Y-95122985D01*
X111404509Y-95289002D01*
X111933348Y-95249646D01*
X112239134Y-95122985D01*
X112307690Y-94895479D01*
X111570000Y-94157789D01*
X110832310Y-94895479D01*
X110428000Y-94895479D01*
X110428000Y-94646000D01*
X110392911Y-94610911D01*
X110614521Y-94677690D01*
X111352211Y-93940000D01*
X111338069Y-93925858D01*
X111555858Y-93708069D01*
X111570000Y-93722211D01*
X111584142Y-93708069D01*
X111801931Y-93925858D01*
X111787789Y-93940000D01*
X112525479Y-94677690D01*
X112752985Y-94609134D01*
X112795860Y-94479062D01*
X114132000Y-94479062D01*
X114132000Y-94944000D01*
X114284000Y-95096000D01*
X115336000Y-95096000D01*
X115336000Y-94144000D01*
X115184000Y-93992000D01*
X114619061Y-93992000D01*
X114395595Y-94084563D01*
X114224562Y-94255596D01*
X114132000Y-94479062D01*
X112795860Y-94479062D01*
X112919002Y-94105491D01*
X112879646Y-93576652D01*
X112759133Y-93285709D01*
X112760437Y-93284405D01*
X112853000Y-93060939D01*
X112853000Y-92992000D01*
X112701000Y-92840000D01*
X112264140Y-92840000D01*
X112239134Y-92757015D01*
X112214261Y-92748816D01*
X112245000Y-92748816D01*
X112411760Y-92717438D01*
X112532102Y-92640000D01*
X112701000Y-92640000D01*
X112853000Y-92488000D01*
X112853000Y-92419061D01*
X112760437Y-92195595D01*
X112703816Y-92138974D01*
X112703816Y-92093200D01*
X113394436Y-92093200D01*
X114281184Y-92979948D01*
X114281184Y-93360000D01*
X114312562Y-93526760D01*
X114411117Y-93679919D01*
X114561495Y-93782668D01*
X114740000Y-93818816D01*
X115835052Y-93818816D01*
X116008236Y-93992000D01*
X115796000Y-93992000D01*
X115644000Y-94144000D01*
X115644000Y-95096000D01*
X116696000Y-95096000D01*
X116848000Y-94944000D01*
X116848000Y-94831764D01*
X116981184Y-94964948D01*
X116981184Y-95900000D01*
X117012562Y-96066760D01*
X117111117Y-96219919D01*
X117261495Y-96322668D01*
X117440000Y-96358816D01*
X118940000Y-96358816D01*
X119106760Y-96327438D01*
X119259919Y-96228883D01*
X119362668Y-96078505D01*
X119398816Y-95900000D01*
X119398816Y-94600000D01*
X119367438Y-94433240D01*
X119268883Y-94280081D01*
X119118505Y-94177332D01*
X118940000Y-94141184D01*
X118004948Y-94141184D01*
X117682580Y-93818816D01*
X118940000Y-93818816D01*
X119106760Y-93787438D01*
X119134697Y-93769461D01*
X119282547Y-93917311D01*
X119378811Y-94150286D01*
X119589605Y-94361448D01*
X119865161Y-94475869D01*
X120163530Y-94476130D01*
X120439286Y-94362189D01*
X120650448Y-94151395D01*
X120764869Y-93875839D01*
X120765130Y-93577470D01*
X120651189Y-93301714D01*
X120440395Y-93090552D01*
X120205977Y-92993213D01*
X119460882Y-92248118D01*
X119398816Y-92206647D01*
X119398816Y-92060000D01*
X119367438Y-91893240D01*
X119268883Y-91740081D01*
X119118505Y-91637332D01*
X118940000Y-91601184D01*
X117440000Y-91601184D01*
X117273240Y-91632562D01*
X117120081Y-91731117D01*
X117017332Y-91881495D01*
X116981184Y-92060000D01*
X116981184Y-93117420D01*
X116698816Y-92835052D01*
X116698816Y-92060000D01*
X116667438Y-91893240D01*
X116568883Y-91740081D01*
X116418505Y-91637332D01*
X116240000Y-91601184D01*
X114749948Y-91601184D01*
X114334764Y-91186000D01*
X114399264Y-91121500D01*
X114411117Y-91139919D01*
X114561495Y-91242668D01*
X114740000Y-91278816D01*
X116240000Y-91278816D01*
X116406760Y-91247438D01*
X116559919Y-91148883D01*
X116662668Y-90998505D01*
X116698816Y-90820000D01*
X116698816Y-90044948D01*
X116981184Y-89762580D01*
X116981184Y-90820000D01*
X117012562Y-90986760D01*
X117111117Y-91139919D01*
X117261495Y-91242668D01*
X117440000Y-91278816D01*
X118930052Y-91278816D01*
X119282547Y-91631311D01*
X119378811Y-91864286D01*
X119589605Y-92075448D01*
X119865161Y-92189869D01*
X120163530Y-92190130D01*
X120439286Y-92076189D01*
X120650448Y-91865395D01*
X120764869Y-91589839D01*
X120765130Y-91291470D01*
X120651189Y-91015714D01*
X120440395Y-90804552D01*
X120205977Y-90707213D01*
X119398816Y-89900052D01*
X119398816Y-89520000D01*
X119367438Y-89353240D01*
X119268883Y-89200081D01*
X119118505Y-89097332D01*
X118940000Y-89061184D01*
X117682580Y-89061184D01*
X118004948Y-88738816D01*
X118940000Y-88738816D01*
X119106760Y-88707438D01*
X119259919Y-88608883D01*
X119362668Y-88458505D01*
X119398816Y-88280000D01*
X119398816Y-86980000D01*
X119381166Y-86886200D01*
X120760436Y-86886200D01*
X122005984Y-88131748D01*
X121917332Y-88261495D01*
X121881184Y-88440000D01*
X121881184Y-90440000D01*
X121912562Y-90606760D01*
X122011117Y-90759919D01*
X122161495Y-90862668D01*
X122340000Y-90898816D01*
X124040000Y-90898816D01*
X124206760Y-90867438D01*
X124359919Y-90768883D01*
X124462668Y-90618505D01*
X124495575Y-90456000D01*
X127037000Y-90456000D01*
X127037000Y-91020939D01*
X127129563Y-91244405D01*
X127300596Y-91415438D01*
X127524062Y-91508000D01*
X127964000Y-91508000D01*
X128116000Y-91356000D01*
X128116000Y-90304000D01*
X128424000Y-90304000D01*
X128424000Y-91356000D01*
X128576000Y-91508000D01*
X129015938Y-91508000D01*
X129239404Y-91415438D01*
X129410437Y-91244405D01*
X129503000Y-91020939D01*
X129503000Y-90456000D01*
X129351000Y-90304000D01*
X128424000Y-90304000D01*
X128116000Y-90304000D01*
X127189000Y-90304000D01*
X127037000Y-90456000D01*
X124495575Y-90456000D01*
X124498816Y-90440000D01*
X124498816Y-88440000D01*
X124467438Y-88273240D01*
X124368883Y-88120081D01*
X124218505Y-88017332D01*
X124040000Y-87981184D01*
X123686003Y-87981184D01*
X123651882Y-87930118D01*
X121492882Y-85771118D01*
X121280969Y-85629522D01*
X121031000Y-85579800D01*
X112141000Y-85579800D01*
X111891031Y-85629522D01*
X111730374Y-85736870D01*
X111679118Y-85771118D01*
X110206694Y-87243542D01*
X110183079Y-87194710D01*
X109824559Y-86882887D01*
X109374000Y-86732000D01*
X109024000Y-86732000D01*
X108716000Y-86732000D01*
X108366000Y-86732000D01*
X107915441Y-86882887D01*
X107556921Y-87194710D01*
X107360698Y-87600465D01*
X107385747Y-87641021D01*
X107312000Y-87819061D01*
X107205000Y-87819061D01*
X107205000Y-82880000D01*
X107816184Y-82880000D01*
X107816184Y-84180000D01*
X107847562Y-84346760D01*
X107946117Y-84499919D01*
X108096495Y-84602668D01*
X108275000Y-84638816D01*
X109825000Y-84638816D01*
X109991760Y-84607438D01*
X110144919Y-84508883D01*
X110247668Y-84358505D01*
X110283168Y-84183200D01*
X115776786Y-84183200D01*
X115807562Y-84346760D01*
X115906117Y-84499919D01*
X116056495Y-84602668D01*
X116235000Y-84638816D01*
X117785000Y-84638816D01*
X117951760Y-84607438D01*
X118104919Y-84508883D01*
X118207668Y-84358505D01*
X118243816Y-84180000D01*
X118243816Y-84132400D01*
X118459478Y-84132400D01*
X119137911Y-84810833D01*
X119137870Y-84857530D01*
X119251811Y-85133286D01*
X119462605Y-85344448D01*
X119738161Y-85458869D01*
X120036530Y-85459130D01*
X120312286Y-85345189D01*
X120523448Y-85134395D01*
X120637869Y-84858839D01*
X120637954Y-84761000D01*
X132012000Y-84761000D01*
X132012000Y-85200938D01*
X132104562Y-85424404D01*
X132275595Y-85595437D01*
X132499061Y-85688000D01*
X133064000Y-85688000D01*
X133216000Y-85536000D01*
X133216000Y-84609000D01*
X132164000Y-84609000D01*
X132012000Y-84761000D01*
X120637954Y-84761000D01*
X120638130Y-84560470D01*
X120524189Y-84284714D01*
X120313395Y-84073552D01*
X120037839Y-83959131D01*
X119990011Y-83959089D01*
X119134961Y-83104039D01*
X118939529Y-82973455D01*
X118709000Y-82927600D01*
X118243816Y-82927600D01*
X118243816Y-82880000D01*
X118212438Y-82713240D01*
X118113883Y-82560081D01*
X117963505Y-82457332D01*
X117785000Y-82421184D01*
X116235000Y-82421184D01*
X116068240Y-82452562D01*
X115915081Y-82551117D01*
X115812332Y-82701495D01*
X115776832Y-82876800D01*
X110283214Y-82876800D01*
X110252438Y-82713240D01*
X110153883Y-82560081D01*
X110003505Y-82457332D01*
X109825000Y-82421184D01*
X108275000Y-82421184D01*
X108108240Y-82452562D01*
X107955081Y-82551117D01*
X107852332Y-82701495D01*
X107816184Y-82880000D01*
X107205000Y-82880000D01*
X107205000Y-79336000D01*
X107667000Y-79336000D01*
X107667000Y-79800938D01*
X107759562Y-80024404D01*
X107930595Y-80195437D01*
X108154061Y-80288000D01*
X108744000Y-80288000D01*
X108896000Y-80136000D01*
X108896000Y-79184000D01*
X109204000Y-79184000D01*
X109204000Y-80136000D01*
X109356000Y-80288000D01*
X109945939Y-80288000D01*
X110169405Y-80195437D01*
X110340438Y-80024404D01*
X110433000Y-79800938D01*
X110433000Y-79336000D01*
X115627000Y-79336000D01*
X115627000Y-79800938D01*
X115719562Y-80024404D01*
X115890595Y-80195437D01*
X116114061Y-80288000D01*
X116704000Y-80288000D01*
X116856000Y-80136000D01*
X116856000Y-79184000D01*
X117164000Y-79184000D01*
X117164000Y-80136000D01*
X117316000Y-80288000D01*
X117905939Y-80288000D01*
X118129405Y-80195437D01*
X118300438Y-80024404D01*
X118393000Y-79800938D01*
X118393000Y-79336000D01*
X118241000Y-79184000D01*
X117164000Y-79184000D01*
X116856000Y-79184000D01*
X115779000Y-79184000D01*
X115627000Y-79336000D01*
X110433000Y-79336000D01*
X110281000Y-79184000D01*
X109204000Y-79184000D01*
X108896000Y-79184000D01*
X107819000Y-79184000D01*
X107667000Y-79336000D01*
X107205000Y-79336000D01*
X107205000Y-78791706D01*
X107310949Y-78259062D01*
X107667000Y-78259062D01*
X107667000Y-78724000D01*
X107819000Y-78876000D01*
X108896000Y-78876000D01*
X108896000Y-77924000D01*
X109204000Y-77924000D01*
X109204000Y-78876000D01*
X110281000Y-78876000D01*
X110433000Y-78724000D01*
X110433000Y-78259062D01*
X115627000Y-78259062D01*
X115627000Y-78724000D01*
X115779000Y-78876000D01*
X116856000Y-78876000D01*
X116856000Y-77924000D01*
X117164000Y-77924000D01*
X117164000Y-78876000D01*
X118241000Y-78876000D01*
X118393000Y-78724000D01*
X118393000Y-78259062D01*
X118300438Y-78035596D01*
X118129405Y-77864563D01*
X117905939Y-77772000D01*
X117316000Y-77772000D01*
X117164000Y-77924000D01*
X116856000Y-77924000D01*
X116704000Y-77772000D01*
X116114061Y-77772000D01*
X115890595Y-77864563D01*
X115719562Y-78035596D01*
X115627000Y-78259062D01*
X110433000Y-78259062D01*
X110340438Y-78035596D01*
X110169405Y-77864563D01*
X109945939Y-77772000D01*
X109356000Y-77772000D01*
X109204000Y-77924000D01*
X108896000Y-77924000D01*
X108744000Y-77772000D01*
X108154061Y-77772000D01*
X107930595Y-77864563D01*
X107759562Y-78035596D01*
X107667000Y-78259062D01*
X107310949Y-78259062D01*
X107367885Y-77972829D01*
X107802453Y-77322452D01*
X108452829Y-76887885D01*
X109271706Y-76725000D01*
X121428453Y-76725000D01*
X120760285Y-77001081D01*
X120760285Y-77001081D01*
G37*
X120760285Y-77001081D02*
X120183108Y-77577252D01*
X119870357Y-78330441D01*
X119869645Y-79145981D01*
X120181081Y-79899715D01*
X120757252Y-80476892D01*
X121510441Y-80789643D01*
X122325981Y-80790355D01*
X123079715Y-80478919D01*
X123656892Y-79902748D01*
X123969643Y-79149559D01*
X123970355Y-78334019D01*
X123658919Y-77580285D01*
X123082748Y-77003108D01*
X122412989Y-76725000D01*
X128671078Y-76725000D01*
X127964566Y-77431512D01*
X127487572Y-77526392D01*
X127061410Y-77811145D01*
X126776657Y-78237307D01*
X126746000Y-78391430D01*
X126715343Y-78237307D01*
X126430590Y-77811145D01*
X126004428Y-77526392D01*
X125501735Y-77426400D01*
X125450265Y-77426400D01*
X124947572Y-77526392D01*
X124521410Y-77811145D01*
X124236657Y-78237307D01*
X124136665Y-78740000D01*
X124236657Y-79242693D01*
X124521410Y-79668855D01*
X124947572Y-79953608D01*
X125450265Y-80053600D01*
X125501735Y-80053600D01*
X126004428Y-79953608D01*
X126430590Y-79668855D01*
X126715343Y-79242693D01*
X126746000Y-79088570D01*
X126776657Y-79242693D01*
X127061410Y-79668855D01*
X127487572Y-79953608D01*
X127990265Y-80053600D01*
X128041735Y-80053600D01*
X128544428Y-79953608D01*
X128970590Y-79668855D01*
X129255343Y-79242693D01*
X129286000Y-79088570D01*
X129316657Y-79242693D01*
X129601410Y-79668855D01*
X129953600Y-79904181D01*
X129953600Y-81284478D01*
X129290478Y-81947600D01*
X126619000Y-81947600D01*
X126388471Y-81993455D01*
X126193039Y-82124039D01*
X125882167Y-82434911D01*
X125835470Y-82434870D01*
X125559714Y-82548811D01*
X125348552Y-82759605D01*
X125234131Y-83035161D01*
X125233870Y-83333530D01*
X125347811Y-83609286D01*
X125558605Y-83820448D01*
X125834161Y-83934869D01*
X126132530Y-83935130D01*
X126408286Y-83821189D01*
X126520608Y-83709062D01*
X132012000Y-83709062D01*
X132012000Y-84149000D01*
X132164000Y-84301000D01*
X133216000Y-84301000D01*
X133216000Y-83374000D01*
X133064000Y-83222000D01*
X132499061Y-83222000D01*
X132275595Y-83314563D01*
X132104562Y-83485596D01*
X132012000Y-83709062D01*
X126520608Y-83709062D01*
X126619448Y-83610395D01*
X126733869Y-83334839D01*
X126733911Y-83287011D01*
X126868522Y-83152400D01*
X129540000Y-83152400D01*
X129770529Y-83106545D01*
X129965961Y-82975961D01*
X130981961Y-81959961D01*
X131112545Y-81764529D01*
X131158400Y-81534000D01*
X131158400Y-79904181D01*
X131510590Y-79668855D01*
X131751900Y-79307710D01*
X131821459Y-79475654D01*
X132200000Y-79907402D01*
X132714949Y-80161423D01*
X132942000Y-80051532D01*
X132942000Y-78894000D01*
X132922000Y-78894000D01*
X132922000Y-78586000D01*
X132942000Y-78586000D01*
X132942000Y-78566000D01*
X133250000Y-78566000D01*
X133250000Y-78586000D01*
X133270000Y-78586000D01*
X133270000Y-78894000D01*
X133250000Y-78894000D01*
X133250000Y-80051532D01*
X133477051Y-80161423D01*
X133992000Y-79907402D01*
X134370541Y-79475654D01*
X134440100Y-79307710D01*
X134681410Y-79668855D01*
X135107572Y-79953608D01*
X135147643Y-79961579D01*
X135210039Y-80054961D01*
X135972039Y-80816961D01*
X136167471Y-80947545D01*
X136398000Y-80993400D01*
X140085478Y-80993400D01*
X142907600Y-83815522D01*
X142907600Y-91509678D01*
X141481961Y-90084039D01*
X141286529Y-89953455D01*
X141056000Y-89907600D01*
X139586538Y-89907600D01*
X139668478Y-89784969D01*
X139718200Y-89535000D01*
X139718200Y-88901643D01*
X139814869Y-88668839D01*
X139815130Y-88370470D01*
X139701189Y-88094714D01*
X139490395Y-87883552D01*
X139214839Y-87769131D01*
X138916470Y-87768870D01*
X138640714Y-87882811D01*
X138429552Y-88093605D01*
X138332213Y-88328023D01*
X138103436Y-88556800D01*
X138003816Y-88556800D01*
X138003816Y-88335000D01*
X137972438Y-88168240D01*
X137873883Y-88015081D01*
X137723505Y-87912332D01*
X137545000Y-87876184D01*
X137473200Y-87876184D01*
X137473200Y-87544000D01*
X137423478Y-87294031D01*
X137281882Y-87082118D01*
X136523200Y-86323436D01*
X136523200Y-85538816D01*
X136620000Y-85538816D01*
X136786760Y-85507438D01*
X136939919Y-85408883D01*
X137042668Y-85258505D01*
X137078816Y-85080000D01*
X137078816Y-83830000D01*
X137047438Y-83663240D01*
X136948883Y-83510081D01*
X136798505Y-83407332D01*
X136620000Y-83371184D01*
X135120000Y-83371184D01*
X134953240Y-83402562D01*
X134800081Y-83501117D01*
X134701580Y-83645278D01*
X134635438Y-83485596D01*
X134464405Y-83314563D01*
X134240939Y-83222000D01*
X133676000Y-83222000D01*
X133524000Y-83374000D01*
X133524000Y-84301000D01*
X133544000Y-84301000D01*
X133544000Y-84609000D01*
X133524000Y-84609000D01*
X133524000Y-85536000D01*
X133676000Y-85688000D01*
X134240939Y-85688000D01*
X134464405Y-85595437D01*
X134635438Y-85424404D01*
X134702575Y-85262320D01*
X134791117Y-85399919D01*
X134941495Y-85502668D01*
X135120000Y-85538816D01*
X135216800Y-85538816D01*
X135216800Y-86594000D01*
X135266522Y-86843969D01*
X135408118Y-87055882D01*
X136166800Y-87814564D01*
X136166800Y-87876184D01*
X136095000Y-87876184D01*
X135932290Y-87906800D01*
X135468000Y-87906800D01*
X135218031Y-87956522D01*
X135006118Y-88098118D01*
X134638200Y-88466036D01*
X134638200Y-86979623D01*
X134715478Y-86863969D01*
X134765200Y-86614000D01*
X134735022Y-86462284D01*
X134735130Y-86338470D01*
X134621189Y-86062714D01*
X134410395Y-85851552D01*
X134134839Y-85737131D01*
X133836470Y-85736870D01*
X133560714Y-85850811D01*
X133349552Y-86061605D01*
X133235131Y-86337161D01*
X133234870Y-86635530D01*
X133331800Y-86870117D01*
X133331800Y-87918000D01*
X133323505Y-87912332D01*
X133145000Y-87876184D01*
X133073200Y-87876184D01*
X133073200Y-87589000D01*
X133023478Y-87339031D01*
X132881882Y-87127118D01*
X131796453Y-86041689D01*
X131700189Y-85808714D01*
X131489395Y-85597552D01*
X131213839Y-85483131D01*
X130915470Y-85482870D01*
X130639714Y-85596811D01*
X130428552Y-85807605D01*
X130314131Y-86083161D01*
X130313870Y-86381530D01*
X130427811Y-86657286D01*
X130638605Y-86868448D01*
X130873023Y-86965787D01*
X131766800Y-87859564D01*
X131766800Y-87876184D01*
X131695000Y-87876184D01*
X131528240Y-87907562D01*
X131375081Y-88006117D01*
X131272332Y-88156495D01*
X131236184Y-88335000D01*
X131236184Y-88785000D01*
X131255691Y-88888671D01*
X131248743Y-88922979D01*
X130828200Y-88502436D01*
X130828200Y-88392000D01*
X130778478Y-88142031D01*
X130636882Y-87930118D01*
X129894882Y-87188118D01*
X129682969Y-87046522D01*
X129433000Y-86996800D01*
X129353816Y-86996800D01*
X129353816Y-86900000D01*
X129322438Y-86733240D01*
X129225371Y-86582393D01*
X129350311Y-86457453D01*
X129583286Y-86361189D01*
X129794448Y-86150395D01*
X129908869Y-85874839D01*
X129909130Y-85576470D01*
X129795189Y-85300714D01*
X129584395Y-85089552D01*
X129308839Y-84975131D01*
X129010470Y-84974870D01*
X128734714Y-85088811D01*
X128523552Y-85299605D01*
X128426213Y-85534023D01*
X127808118Y-86152118D01*
X127666522Y-86364031D01*
X127651175Y-86441184D01*
X127645000Y-86441184D01*
X127478240Y-86472562D01*
X127325081Y-86571117D01*
X127222332Y-86721495D01*
X127186184Y-86900000D01*
X127186184Y-88400000D01*
X127217562Y-88566760D01*
X127316117Y-88719919D01*
X127460278Y-88818420D01*
X127300596Y-88884562D01*
X127129563Y-89055595D01*
X127037000Y-89279061D01*
X127037000Y-89844000D01*
X127189000Y-89996000D01*
X128116000Y-89996000D01*
X128116000Y-89976000D01*
X128424000Y-89976000D01*
X128424000Y-89996000D01*
X129351000Y-89996000D01*
X129503000Y-89844000D01*
X129503000Y-89279061D01*
X129410437Y-89055595D01*
X129239404Y-88884562D01*
X129077320Y-88817425D01*
X129214919Y-88728883D01*
X129317668Y-88578505D01*
X129337889Y-88478653D01*
X129521800Y-88662564D01*
X129521800Y-88773000D01*
X129571522Y-89022969D01*
X129713118Y-89234882D01*
X130800118Y-90321882D01*
X131012031Y-90463478D01*
X131262000Y-90513200D01*
X131543813Y-90513200D01*
X131695000Y-90543816D01*
X133145000Y-90543816D01*
X133311760Y-90512438D01*
X133464919Y-90413883D01*
X133476113Y-90397500D01*
X133601000Y-90397500D01*
X133753000Y-90245500D01*
X133753000Y-90164061D01*
X133660437Y-89940595D01*
X133603816Y-89883974D01*
X133603816Y-89832524D01*
X133699567Y-89813478D01*
X133911480Y-89671882D01*
X134220800Y-89362562D01*
X134220800Y-90534436D01*
X133587436Y-91167800D01*
X133572042Y-91167800D01*
X133660437Y-91079405D01*
X133753000Y-90855939D01*
X133753000Y-90774500D01*
X133601000Y-90622500D01*
X132574000Y-90622500D01*
X132574000Y-90684000D01*
X132266000Y-90684000D01*
X132266000Y-90622500D01*
X131239000Y-90622500D01*
X131087000Y-90774500D01*
X131087000Y-90855939D01*
X131179563Y-91079405D01*
X131276261Y-91176103D01*
X131068031Y-91217522D01*
X130856118Y-91359118D01*
X128808118Y-93407118D01*
X128780374Y-93448640D01*
X128653240Y-93472562D01*
X128500081Y-93571117D01*
X128397332Y-93721495D01*
X128372851Y-93842385D01*
X127808118Y-94407118D01*
X127806994Y-94408801D01*
X127720000Y-94391184D01*
X126820000Y-94391184D01*
X126653240Y-94422562D01*
X126500081Y-94521117D01*
X126448369Y-94596800D01*
X124467063Y-94596800D01*
X124498816Y-94440000D01*
X124498816Y-92440000D01*
X124467438Y-92273240D01*
X124368883Y-92120081D01*
X124218505Y-92017332D01*
X124040000Y-91981184D01*
X122340000Y-91981184D01*
X122173240Y-92012562D01*
X122020081Y-92111117D01*
X121917332Y-92261495D01*
X121881184Y-92440000D01*
X121881184Y-94440000D01*
X121912562Y-94606760D01*
X122011117Y-94759919D01*
X122161495Y-94862668D01*
X122340000Y-94898816D01*
X122536800Y-94898816D01*
X122536800Y-95360436D01*
X121141436Y-96755800D01*
X117221000Y-96755800D01*
X116971031Y-96805522D01*
X116883724Y-96863859D01*
X116796714Y-96899811D01*
X116585552Y-97110605D01*
X116471131Y-97386161D01*
X116470870Y-97684530D01*
X116584811Y-97960286D01*
X116795605Y-98171448D01*
X117071161Y-98285869D01*
X117369530Y-98286130D01*
X117645286Y-98172189D01*
X117755467Y-98062200D01*
X121412000Y-98062200D01*
X121661969Y-98012478D01*
X121873882Y-97870882D01*
X123841564Y-95903200D01*
X126448185Y-95903200D01*
X126491117Y-95969919D01*
X126641495Y-96072668D01*
X126820000Y-96108816D01*
X127616800Y-96108816D01*
X127616800Y-99233822D01*
X125806264Y-100341184D01*
X125653200Y-100341184D01*
X125653200Y-99854000D01*
X125603478Y-99604031D01*
X125461882Y-99392118D01*
X124667882Y-98598118D01*
X124455969Y-98456522D01*
X124206000Y-98406800D01*
X122682000Y-98406800D01*
X122432031Y-98456522D01*
X122220118Y-98598118D01*
X120817466Y-100000770D01*
X120778189Y-99905714D01*
X120567395Y-99694552D01*
X120291839Y-99580131D01*
X119993470Y-99579870D01*
X119758883Y-99676800D01*
X119398214Y-99676800D01*
X119367438Y-99513240D01*
X119268883Y-99360081D01*
X119118505Y-99257332D01*
X118940000Y-99221184D01*
X117440000Y-99221184D01*
X117273240Y-99252562D01*
X117120081Y-99351117D01*
X117017332Y-99501495D01*
X116981184Y-99680000D01*
X116981184Y-100980000D01*
X117012562Y-101146760D01*
X117111117Y-101299919D01*
X117261495Y-101402668D01*
X117440000Y-101438816D01*
X118940000Y-101438816D01*
X119106760Y-101407438D01*
X119259919Y-101308883D01*
X119362668Y-101158505D01*
X119398168Y-100983200D01*
X119759357Y-100983200D01*
X119812831Y-101005405D01*
X119318236Y-101500000D01*
X116840000Y-101500000D01*
X116801094Y-101507879D01*
X116768319Y-101530273D01*
X116746839Y-101563654D01*
X116743425Y-101581800D01*
X110490000Y-101581800D01*
X110240031Y-101631522D01*
X110028118Y-101773118D01*
X109793200Y-102008036D01*
X109793200Y-101438816D01*
X109890000Y-101438816D01*
X110056760Y-101407438D01*
X110209919Y-101308883D01*
X110312668Y-101158505D01*
X110348816Y-100980000D01*
X110348816Y-99680000D01*
X110631184Y-99680000D01*
X110631184Y-100980000D01*
X110662562Y-101146760D01*
X110761117Y-101299919D01*
X110911495Y-101402668D01*
X111090000Y-101438816D01*
X112590000Y-101438816D01*
X112756760Y-101407438D01*
X112909919Y-101308883D01*
X113012668Y-101158505D01*
X113048168Y-100983200D01*
X114281786Y-100983200D01*
X114312562Y-101146760D01*
X114411117Y-101299919D01*
X114561495Y-101402668D01*
X114740000Y-101438816D01*
X116240000Y-101438816D01*
X116406760Y-101407438D01*
X116559919Y-101308883D01*
X116662668Y-101158505D01*
X116698816Y-100980000D01*
X116698816Y-99680000D01*
X116667438Y-99513240D01*
X116568883Y-99360081D01*
X116418505Y-99257332D01*
X116240000Y-99221184D01*
X114740000Y-99221184D01*
X114573240Y-99252562D01*
X114420081Y-99351117D01*
X114317332Y-99501495D01*
X114281832Y-99676800D01*
X113048214Y-99676800D01*
X113017438Y-99513240D01*
X112918883Y-99360081D01*
X112768505Y-99257332D01*
X112590000Y-99221184D01*
X111090000Y-99221184D01*
X110923240Y-99252562D01*
X110770081Y-99351117D01*
X110667332Y-99501495D01*
X110631184Y-99680000D01*
X110348816Y-99680000D01*
X110317438Y-99513240D01*
X110218883Y-99360081D01*
X110068505Y-99257332D01*
X109890000Y-99221184D01*
X108390000Y-99221184D01*
X108223240Y-99252562D01*
X108070081Y-99351117D01*
X107967332Y-99501495D01*
X107931184Y-99680000D01*
X107931184Y-100980000D01*
X107962562Y-101146760D01*
X108061117Y-101299919D01*
X108211495Y-101402668D01*
X108390000Y-101438816D01*
X108486800Y-101438816D01*
X108486800Y-103031184D01*
X108390000Y-103031184D01*
X108223240Y-103062562D01*
X108070081Y-103161117D01*
X107967332Y-103311495D01*
X107931184Y-103490000D01*
X107931184Y-104759052D01*
X107205000Y-105485236D01*
X107205000Y-92746000D01*
X107312000Y-92746000D01*
X107312000Y-93310939D01*
X107375814Y-93465000D01*
X107312000Y-93619061D01*
X107312000Y-94034000D01*
X107464000Y-94186000D01*
X107566935Y-94186000D01*
X107556921Y-94194710D01*
X107363660Y-94594340D01*
X107312000Y-94646000D01*
X107312000Y-95060939D01*
X107385747Y-95238979D01*
X107360698Y-95279535D01*
X107556921Y-95685290D01*
X107915441Y-95997113D01*
X108366000Y-96148000D01*
X108716000Y-96148000D01*
X108716000Y-92594000D01*
X107464000Y-92594000D01*
X107312000Y-92746000D01*
X107205000Y-92746000D01*
X107205000Y-90746000D01*
X107312000Y-90746000D01*
X107312000Y-91310939D01*
X107365459Y-91440000D01*
X107312000Y-91569061D01*
X107312000Y-92134000D01*
X107464000Y-92286000D01*
X108716000Y-92286000D01*
X108716000Y-90594000D01*
X107464000Y-90594000D01*
X107312000Y-90746000D01*
X107205000Y-90746000D01*
X107205000Y-87819061D01*
X107312000Y-87819061D01*
X107312000Y-88234000D01*
X107363660Y-88285660D01*
X107556921Y-88685290D01*
X107566935Y-88694000D01*
X107464000Y-88694000D01*
X107312000Y-88846000D01*
X107312000Y-89260939D01*
X107375814Y-89415000D01*
X107312000Y-89569061D01*
X107312000Y-90134000D01*
X107464000Y-90286000D01*
X108716000Y-90286000D01*
X108716000Y-86732000D01*
X109024000Y-86732000D01*
X109024000Y-90286000D01*
X109044000Y-90286000D01*
X109044000Y-90594000D01*
X109024000Y-90594000D01*
X109024000Y-92286000D01*
X109044000Y-92286000D01*
X109044000Y-92594000D01*
X109024000Y-92594000D01*
X109024000Y-96148000D01*
X109374000Y-96148000D01*
X109824559Y-95997113D01*
X110183079Y-95685290D01*
X110245603Y-95556000D01*
X114132000Y-95556000D01*
X114132000Y-96020938D01*
X114224562Y-96244404D01*
X114395595Y-96415437D01*
X114619061Y-96508000D01*
X115184000Y-96508000D01*
X115336000Y-96356000D01*
X115336000Y-95404000D01*
X115644000Y-95404000D01*
X115644000Y-96356000D01*
X115796000Y-96508000D01*
X116360939Y-96508000D01*
X116584405Y-96415437D01*
X116755438Y-96244404D01*
X116848000Y-96020938D01*
X116848000Y-95556000D01*
X116696000Y-95404000D01*
X115644000Y-95404000D01*
X115336000Y-95404000D01*
X114284000Y-95404000D01*
X114132000Y-95556000D01*
X110245603Y-95556000D01*
X110379302Y-95279535D01*
X110354253Y-95238979D01*
X110428000Y-95060939D01*
X110428000Y-94895479D01*
X110832310Y-94895479D01*
X110900866Y-95122985D01*
X111404509Y-95289002D01*
X111933348Y-95249646D01*
X112239134Y-95122985D01*
X112307690Y-94895479D01*
X111570000Y-94157789D01*
X110832310Y-94895479D01*
X110428000Y-94895479D01*
X110428000Y-94646000D01*
X110392911Y-94610911D01*
X110614521Y-94677690D01*
X111352211Y-93940000D01*
X111338069Y-93925858D01*
X111555858Y-93708069D01*
X111570000Y-93722211D01*
X111584142Y-93708069D01*
X111801931Y-93925858D01*
X111787789Y-93940000D01*
X112525479Y-94677690D01*
X112752985Y-94609134D01*
X112795860Y-94479062D01*
X114132000Y-94479062D01*
X114132000Y-94944000D01*
X114284000Y-95096000D01*
X115336000Y-95096000D01*
X115336000Y-94144000D01*
X115184000Y-93992000D01*
X114619061Y-93992000D01*
X114395595Y-94084563D01*
X114224562Y-94255596D01*
X114132000Y-94479062D01*
X112795860Y-94479062D01*
X112919002Y-94105491D01*
X112879646Y-93576652D01*
X112759133Y-93285709D01*
X112760437Y-93284405D01*
X112853000Y-93060939D01*
X112853000Y-92992000D01*
X112701000Y-92840000D01*
X112264140Y-92840000D01*
X112239134Y-92757015D01*
X112214261Y-92748816D01*
X112245000Y-92748816D01*
X112411760Y-92717438D01*
X112532102Y-92640000D01*
X112701000Y-92640000D01*
X112853000Y-92488000D01*
X112853000Y-92419061D01*
X112760437Y-92195595D01*
X112703816Y-92138974D01*
X112703816Y-92093200D01*
X113394436Y-92093200D01*
X114281184Y-92979948D01*
X114281184Y-93360000D01*
X114312562Y-93526760D01*
X114411117Y-93679919D01*
X114561495Y-93782668D01*
X114740000Y-93818816D01*
X115835052Y-93818816D01*
X116008236Y-93992000D01*
X115796000Y-93992000D01*
X115644000Y-94144000D01*
X115644000Y-95096000D01*
X116696000Y-95096000D01*
X116848000Y-94944000D01*
X116848000Y-94831764D01*
X116981184Y-94964948D01*
X116981184Y-95900000D01*
X117012562Y-96066760D01*
X117111117Y-96219919D01*
X117261495Y-96322668D01*
X117440000Y-96358816D01*
X118940000Y-96358816D01*
X119106760Y-96327438D01*
X119259919Y-96228883D01*
X119362668Y-96078505D01*
X119398816Y-95900000D01*
X119398816Y-94600000D01*
X119367438Y-94433240D01*
X119268883Y-94280081D01*
X119118505Y-94177332D01*
X118940000Y-94141184D01*
X118004948Y-94141184D01*
X117682580Y-93818816D01*
X118940000Y-93818816D01*
X119106760Y-93787438D01*
X119134697Y-93769461D01*
X119282547Y-93917311D01*
X119378811Y-94150286D01*
X119589605Y-94361448D01*
X119865161Y-94475869D01*
X120163530Y-94476130D01*
X120439286Y-94362189D01*
X120650448Y-94151395D01*
X120764869Y-93875839D01*
X120765130Y-93577470D01*
X120651189Y-93301714D01*
X120440395Y-93090552D01*
X120205977Y-92993213D01*
X119460882Y-92248118D01*
X119398816Y-92206647D01*
X119398816Y-92060000D01*
X119367438Y-91893240D01*
X119268883Y-91740081D01*
X119118505Y-91637332D01*
X118940000Y-91601184D01*
X117440000Y-91601184D01*
X117273240Y-91632562D01*
X117120081Y-91731117D01*
X117017332Y-91881495D01*
X116981184Y-92060000D01*
X116981184Y-93117420D01*
X116698816Y-92835052D01*
X116698816Y-92060000D01*
X116667438Y-91893240D01*
X116568883Y-91740081D01*
X116418505Y-91637332D01*
X116240000Y-91601184D01*
X114749948Y-91601184D01*
X114334764Y-91186000D01*
X114399264Y-91121500D01*
X114411117Y-91139919D01*
X114561495Y-91242668D01*
X114740000Y-91278816D01*
X116240000Y-91278816D01*
X116406760Y-91247438D01*
X116559919Y-91148883D01*
X116662668Y-90998505D01*
X116698816Y-90820000D01*
X116698816Y-90044948D01*
X116981184Y-89762580D01*
X116981184Y-90820000D01*
X117012562Y-90986760D01*
X117111117Y-91139919D01*
X117261495Y-91242668D01*
X117440000Y-91278816D01*
X118930052Y-91278816D01*
X119282547Y-91631311D01*
X119378811Y-91864286D01*
X119589605Y-92075448D01*
X119865161Y-92189869D01*
X120163530Y-92190130D01*
X120439286Y-92076189D01*
X120650448Y-91865395D01*
X120764869Y-91589839D01*
X120765130Y-91291470D01*
X120651189Y-91015714D01*
X120440395Y-90804552D01*
X120205977Y-90707213D01*
X119398816Y-89900052D01*
X119398816Y-89520000D01*
X119367438Y-89353240D01*
X119268883Y-89200081D01*
X119118505Y-89097332D01*
X118940000Y-89061184D01*
X117682580Y-89061184D01*
X118004948Y-88738816D01*
X118940000Y-88738816D01*
X119106760Y-88707438D01*
X119259919Y-88608883D01*
X119362668Y-88458505D01*
X119398816Y-88280000D01*
X119398816Y-86980000D01*
X119381166Y-86886200D01*
X120760436Y-86886200D01*
X122005984Y-88131748D01*
X121917332Y-88261495D01*
X121881184Y-88440000D01*
X121881184Y-90440000D01*
X121912562Y-90606760D01*
X122011117Y-90759919D01*
X122161495Y-90862668D01*
X122340000Y-90898816D01*
X124040000Y-90898816D01*
X124206760Y-90867438D01*
X124359919Y-90768883D01*
X124462668Y-90618505D01*
X124495575Y-90456000D01*
X127037000Y-90456000D01*
X127037000Y-91020939D01*
X127129563Y-91244405D01*
X127300596Y-91415438D01*
X127524062Y-91508000D01*
X127964000Y-91508000D01*
X128116000Y-91356000D01*
X128116000Y-90304000D01*
X128424000Y-90304000D01*
X128424000Y-91356000D01*
X128576000Y-91508000D01*
X129015938Y-91508000D01*
X129239404Y-91415438D01*
X129410437Y-91244405D01*
X129503000Y-91020939D01*
X129503000Y-90456000D01*
X129351000Y-90304000D01*
X128424000Y-90304000D01*
X128116000Y-90304000D01*
X127189000Y-90304000D01*
X127037000Y-90456000D01*
X124495575Y-90456000D01*
X124498816Y-90440000D01*
X124498816Y-88440000D01*
X124467438Y-88273240D01*
X124368883Y-88120081D01*
X124218505Y-88017332D01*
X124040000Y-87981184D01*
X123686003Y-87981184D01*
X123651882Y-87930118D01*
X121492882Y-85771118D01*
X121280969Y-85629522D01*
X121031000Y-85579800D01*
X112141000Y-85579800D01*
X111891031Y-85629522D01*
X111730374Y-85736870D01*
X111679118Y-85771118D01*
X110206694Y-87243542D01*
X110183079Y-87194710D01*
X109824559Y-86882887D01*
X109374000Y-86732000D01*
X109024000Y-86732000D01*
X108716000Y-86732000D01*
X108366000Y-86732000D01*
X107915441Y-86882887D01*
X107556921Y-87194710D01*
X107360698Y-87600465D01*
X107385747Y-87641021D01*
X107312000Y-87819061D01*
X107205000Y-87819061D01*
X107205000Y-82880000D01*
X107816184Y-82880000D01*
X107816184Y-84180000D01*
X107847562Y-84346760D01*
X107946117Y-84499919D01*
X108096495Y-84602668D01*
X108275000Y-84638816D01*
X109825000Y-84638816D01*
X109991760Y-84607438D01*
X110144919Y-84508883D01*
X110247668Y-84358505D01*
X110283168Y-84183200D01*
X115776786Y-84183200D01*
X115807562Y-84346760D01*
X115906117Y-84499919D01*
X116056495Y-84602668D01*
X116235000Y-84638816D01*
X117785000Y-84638816D01*
X117951760Y-84607438D01*
X118104919Y-84508883D01*
X118207668Y-84358505D01*
X118243816Y-84180000D01*
X118243816Y-84132400D01*
X118459478Y-84132400D01*
X119137911Y-84810833D01*
X119137870Y-84857530D01*
X119251811Y-85133286D01*
X119462605Y-85344448D01*
X119738161Y-85458869D01*
X120036530Y-85459130D01*
X120312286Y-85345189D01*
X120523448Y-85134395D01*
X120637869Y-84858839D01*
X120637954Y-84761000D01*
X132012000Y-84761000D01*
X132012000Y-85200938D01*
X132104562Y-85424404D01*
X132275595Y-85595437D01*
X132499061Y-85688000D01*
X133064000Y-85688000D01*
X133216000Y-85536000D01*
X133216000Y-84609000D01*
X132164000Y-84609000D01*
X132012000Y-84761000D01*
X120637954Y-84761000D01*
X120638130Y-84560470D01*
X120524189Y-84284714D01*
X120313395Y-84073552D01*
X120037839Y-83959131D01*
X119990011Y-83959089D01*
X119134961Y-83104039D01*
X118939529Y-82973455D01*
X118709000Y-82927600D01*
X118243816Y-82927600D01*
X118243816Y-82880000D01*
X118212438Y-82713240D01*
X118113883Y-82560081D01*
X117963505Y-82457332D01*
X117785000Y-82421184D01*
X116235000Y-82421184D01*
X116068240Y-82452562D01*
X115915081Y-82551117D01*
X115812332Y-82701495D01*
X115776832Y-82876800D01*
X110283214Y-82876800D01*
X110252438Y-82713240D01*
X110153883Y-82560081D01*
X110003505Y-82457332D01*
X109825000Y-82421184D01*
X108275000Y-82421184D01*
X108108240Y-82452562D01*
X107955081Y-82551117D01*
X107852332Y-82701495D01*
X107816184Y-82880000D01*
X107205000Y-82880000D01*
X107205000Y-79336000D01*
X107667000Y-79336000D01*
X107667000Y-79800938D01*
X107759562Y-80024404D01*
X107930595Y-80195437D01*
X108154061Y-80288000D01*
X108744000Y-80288000D01*
X108896000Y-80136000D01*
X108896000Y-79184000D01*
X109204000Y-79184000D01*
X109204000Y-80136000D01*
X109356000Y-80288000D01*
X109945939Y-80288000D01*
X110169405Y-80195437D01*
X110340438Y-80024404D01*
X110433000Y-79800938D01*
X110433000Y-79336000D01*
X115627000Y-79336000D01*
X115627000Y-79800938D01*
X115719562Y-80024404D01*
X115890595Y-80195437D01*
X116114061Y-80288000D01*
X116704000Y-80288000D01*
X116856000Y-80136000D01*
X116856000Y-79184000D01*
X117164000Y-79184000D01*
X117164000Y-80136000D01*
X117316000Y-80288000D01*
X117905939Y-80288000D01*
X118129405Y-80195437D01*
X118300438Y-80024404D01*
X118393000Y-79800938D01*
X118393000Y-79336000D01*
X118241000Y-79184000D01*
X117164000Y-79184000D01*
X116856000Y-79184000D01*
X115779000Y-79184000D01*
X115627000Y-79336000D01*
X110433000Y-79336000D01*
X110281000Y-79184000D01*
X109204000Y-79184000D01*
X108896000Y-79184000D01*
X107819000Y-79184000D01*
X107667000Y-79336000D01*
X107205000Y-79336000D01*
X107205000Y-78791706D01*
X107310949Y-78259062D01*
X107667000Y-78259062D01*
X107667000Y-78724000D01*
X107819000Y-78876000D01*
X108896000Y-78876000D01*
X108896000Y-77924000D01*
X109204000Y-77924000D01*
X109204000Y-78876000D01*
X110281000Y-78876000D01*
X110433000Y-78724000D01*
X110433000Y-78259062D01*
X115627000Y-78259062D01*
X115627000Y-78724000D01*
X115779000Y-78876000D01*
X116856000Y-78876000D01*
X116856000Y-77924000D01*
X117164000Y-77924000D01*
X117164000Y-78876000D01*
X118241000Y-78876000D01*
X118393000Y-78724000D01*
X118393000Y-78259062D01*
X118300438Y-78035596D01*
X118129405Y-77864563D01*
X117905939Y-77772000D01*
X117316000Y-77772000D01*
X117164000Y-77924000D01*
X116856000Y-77924000D01*
X116704000Y-77772000D01*
X116114061Y-77772000D01*
X115890595Y-77864563D01*
X115719562Y-78035596D01*
X115627000Y-78259062D01*
X110433000Y-78259062D01*
X110340438Y-78035596D01*
X110169405Y-77864563D01*
X109945939Y-77772000D01*
X109356000Y-77772000D01*
X109204000Y-77924000D01*
X108896000Y-77924000D01*
X108744000Y-77772000D01*
X108154061Y-77772000D01*
X107930595Y-77864563D01*
X107759562Y-78035596D01*
X107667000Y-78259062D01*
X107310949Y-78259062D01*
X107367885Y-77972829D01*
X107802453Y-77322452D01*
X108452829Y-76887885D01*
X109271706Y-76725000D01*
X121428453Y-76725000D01*
X120760285Y-77001081D01*
G36*
X114132000Y-87324000D02*
X114284000Y-87476000D01*
X115336000Y-87476000D01*
X115336000Y-87456000D01*
X115644000Y-87456000D01*
X115644000Y-87476000D01*
X116696000Y-87476000D01*
X116848000Y-87324000D01*
X116848000Y-86886200D01*
X117000179Y-86886200D01*
X116981184Y-86980000D01*
X116981184Y-87915052D01*
X116848000Y-88048236D01*
X116848000Y-87936000D01*
X116696000Y-87784000D01*
X115644000Y-87784000D01*
X115644000Y-88736000D01*
X115796000Y-88888000D01*
X116008236Y-88888000D01*
X115835052Y-89061184D01*
X114740000Y-89061184D01*
X114573240Y-89092562D01*
X114420081Y-89191117D01*
X114317332Y-89341495D01*
X114281184Y-89520000D01*
X114281184Y-89545805D01*
X114177031Y-89566522D01*
X113965118Y-89708118D01*
X113536436Y-90136800D01*
X112703816Y-90136800D01*
X112703816Y-89940000D01*
X112672438Y-89773240D01*
X112597071Y-89656117D01*
X112752985Y-89609134D01*
X112919002Y-89105491D01*
X112879646Y-88576652D01*
X112752985Y-88270866D01*
X112525479Y-88202310D01*
X111787789Y-88940000D01*
X111801931Y-88954142D01*
X111584142Y-89171931D01*
X111570000Y-89157789D01*
X111555858Y-89171931D01*
X111338069Y-88954142D01*
X111352211Y-88940000D01*
X111338069Y-88925858D01*
X111555858Y-88708069D01*
X111570000Y-88722211D01*
X112307690Y-87984521D01*
X112293069Y-87936000D01*
X114132000Y-87936000D01*
X114132000Y-88400938D01*
X114224562Y-88624404D01*
X114395595Y-88795437D01*
X114619061Y-88888000D01*
X115184000Y-88888000D01*
X115336000Y-88736000D01*
X115336000Y-87784000D01*
X114284000Y-87784000D01*
X114132000Y-87936000D01*
X112293069Y-87936000D01*
X112239134Y-87757015D01*
X111735491Y-87590998D01*
X111704456Y-87593308D01*
X112411564Y-86886200D01*
X114132000Y-86886200D01*
X114132000Y-87324000D01*
X114132000Y-87324000D01*
G37*
X114132000Y-87324000D02*
X114284000Y-87476000D01*
X115336000Y-87476000D01*
X115336000Y-87456000D01*
X115644000Y-87456000D01*
X115644000Y-87476000D01*
X116696000Y-87476000D01*
X116848000Y-87324000D01*
X116848000Y-86886200D01*
X117000179Y-86886200D01*
X116981184Y-86980000D01*
X116981184Y-87915052D01*
X116848000Y-88048236D01*
X116848000Y-87936000D01*
X116696000Y-87784000D01*
X115644000Y-87784000D01*
X115644000Y-88736000D01*
X115796000Y-88888000D01*
X116008236Y-88888000D01*
X115835052Y-89061184D01*
X114740000Y-89061184D01*
X114573240Y-89092562D01*
X114420081Y-89191117D01*
X114317332Y-89341495D01*
X114281184Y-89520000D01*
X114281184Y-89545805D01*
X114177031Y-89566522D01*
X113965118Y-89708118D01*
X113536436Y-90136800D01*
X112703816Y-90136800D01*
X112703816Y-89940000D01*
X112672438Y-89773240D01*
X112597071Y-89656117D01*
X112752985Y-89609134D01*
X112919002Y-89105491D01*
X112879646Y-88576652D01*
X112752985Y-88270866D01*
X112525479Y-88202310D01*
X111787789Y-88940000D01*
X111801931Y-88954142D01*
X111584142Y-89171931D01*
X111570000Y-89157789D01*
X111555858Y-89171931D01*
X111338069Y-88954142D01*
X111352211Y-88940000D01*
X111338069Y-88925858D01*
X111555858Y-88708069D01*
X111570000Y-88722211D01*
X112307690Y-87984521D01*
X112293069Y-87936000D01*
X114132000Y-87936000D01*
X114132000Y-88400938D01*
X114224562Y-88624404D01*
X114395595Y-88795437D01*
X114619061Y-88888000D01*
X115184000Y-88888000D01*
X115336000Y-88736000D01*
X115336000Y-87784000D01*
X114284000Y-87784000D01*
X114132000Y-87936000D01*
X112293069Y-87936000D01*
X112239134Y-87757015D01*
X111735491Y-87590998D01*
X111704456Y-87593308D01*
X112411564Y-86886200D01*
X114132000Y-86886200D01*
X114132000Y-87324000D01*
G36*
X161957600Y-99330184D02*
X161947839Y-99326131D01*
X161689200Y-99325905D01*
X161689200Y-98705453D01*
X161798448Y-98596395D01*
X161912869Y-98320839D01*
X161913130Y-98022470D01*
X161799189Y-97746714D01*
X161588395Y-97535552D01*
X161312839Y-97421131D01*
X161014470Y-97420870D01*
X160738714Y-97534811D01*
X160527552Y-97745605D01*
X160413131Y-98021161D01*
X160413022Y-98146065D01*
X160382800Y-98298000D01*
X160382800Y-101202436D01*
X159423236Y-102162000D01*
X159377799Y-102162000D01*
X159421545Y-102096529D01*
X159443733Y-101984984D01*
X159537668Y-101847505D01*
X159573816Y-101669000D01*
X159573816Y-100769000D01*
X159548970Y-100636952D01*
X160121961Y-100063961D01*
X160252544Y-99868529D01*
X160252545Y-99868528D01*
X160298400Y-99638000D01*
X160298400Y-99533168D01*
X160318668Y-99503505D01*
X160354816Y-99325000D01*
X160354816Y-97525000D01*
X160323438Y-97358240D01*
X160224883Y-97205081D01*
X160074505Y-97102332D01*
X159896000Y-97066184D01*
X159496000Y-97066184D01*
X159329240Y-97097562D01*
X159207038Y-97176196D01*
X159040405Y-97009563D01*
X158816939Y-96917000D01*
X158748000Y-96917000D01*
X158596000Y-97069000D01*
X158596000Y-98271000D01*
X158670000Y-98271000D01*
X158670000Y-98579000D01*
X158596000Y-98579000D01*
X158596000Y-99781000D01*
X158648539Y-99833539D01*
X158439039Y-100043039D01*
X158308455Y-100238471D01*
X158293869Y-100311800D01*
X158262600Y-100469000D01*
X158262600Y-100487654D01*
X158192332Y-100590495D01*
X158156184Y-100769000D01*
X158156184Y-101669000D01*
X158164719Y-101714359D01*
X158039216Y-101839862D01*
X158073816Y-101669000D01*
X158073816Y-100769000D01*
X158042438Y-100602240D01*
X157967400Y-100485627D01*
X157967400Y-99846984D01*
X158175061Y-99933000D01*
X158244000Y-99933000D01*
X158396000Y-99781000D01*
X158396000Y-98579000D01*
X158322000Y-98579000D01*
X158322000Y-98271000D01*
X158396000Y-98271000D01*
X158396000Y-97069000D01*
X158244000Y-96917000D01*
X158175061Y-96917000D01*
X157951595Y-97009563D01*
X157784007Y-97177151D01*
X157674505Y-97102332D01*
X157496000Y-97066184D01*
X157282400Y-97066184D01*
X157282400Y-96299522D01*
X161957600Y-91624322D01*
X161957600Y-99330184D01*
X161957600Y-99330184D01*
G37*
X161957600Y-99330184D02*
X161947839Y-99326131D01*
X161689200Y-99325905D01*
X161689200Y-98705453D01*
X161798448Y-98596395D01*
X161912869Y-98320839D01*
X161913130Y-98022470D01*
X161799189Y-97746714D01*
X161588395Y-97535552D01*
X161312839Y-97421131D01*
X161014470Y-97420870D01*
X160738714Y-97534811D01*
X160527552Y-97745605D01*
X160413131Y-98021161D01*
X160413022Y-98146065D01*
X160382800Y-98298000D01*
X160382800Y-101202436D01*
X159423236Y-102162000D01*
X159377799Y-102162000D01*
X159421545Y-102096529D01*
X159443733Y-101984984D01*
X159537668Y-101847505D01*
X159573816Y-101669000D01*
X159573816Y-100769000D01*
X159548970Y-100636952D01*
X160121961Y-100063961D01*
X160252544Y-99868529D01*
X160252545Y-99868528D01*
X160298400Y-99638000D01*
X160298400Y-99533168D01*
X160318668Y-99503505D01*
X160354816Y-99325000D01*
X160354816Y-97525000D01*
X160323438Y-97358240D01*
X160224883Y-97205081D01*
X160074505Y-97102332D01*
X159896000Y-97066184D01*
X159496000Y-97066184D01*
X159329240Y-97097562D01*
X159207038Y-97176196D01*
X159040405Y-97009563D01*
X158816939Y-96917000D01*
X158748000Y-96917000D01*
X158596000Y-97069000D01*
X158596000Y-98271000D01*
X158670000Y-98271000D01*
X158670000Y-98579000D01*
X158596000Y-98579000D01*
X158596000Y-99781000D01*
X158648539Y-99833539D01*
X158439039Y-100043039D01*
X158308455Y-100238471D01*
X158293869Y-100311800D01*
X158262600Y-100469000D01*
X158262600Y-100487654D01*
X158192332Y-100590495D01*
X158156184Y-100769000D01*
X158156184Y-101669000D01*
X158164719Y-101714359D01*
X158039216Y-101839862D01*
X158073816Y-101669000D01*
X158073816Y-100769000D01*
X158042438Y-100602240D01*
X157967400Y-100485627D01*
X157967400Y-99846984D01*
X158175061Y-99933000D01*
X158244000Y-99933000D01*
X158396000Y-99781000D01*
X158396000Y-98579000D01*
X158322000Y-98579000D01*
X158322000Y-98271000D01*
X158396000Y-98271000D01*
X158396000Y-97069000D01*
X158244000Y-96917000D01*
X158175061Y-96917000D01*
X157951595Y-97009563D01*
X157784007Y-97177151D01*
X157674505Y-97102332D01*
X157496000Y-97066184D01*
X157282400Y-97066184D01*
X157282400Y-96299522D01*
X161957600Y-91624322D01*
X161957600Y-99330184D01*
M02*
