G04 #@! TF.FileFunction,Copper,L2,Bot,Signal*
%FSLAX46Y46*%
G04 Gerber Fmt 4.6, Leading zero omitted, Abs format (unit mm)*
G04 Created by KiCad (PCBNEW 4.0.6) date 06/26/19 15:12:34*
%MOMM*%
%LPD*%
G01*
G04 APERTURE LIST*
%ADD10C,0.100000*%
%ADD11R,0.850000X0.850000*%
%ADD12C,0.850000*%
%ADD13C,1.400000*%
%ADD14O,1.400000X1.400000*%
%ADD15C,1.600000*%
%ADD16R,1.600000X1.600000*%
%ADD17O,1.600000X1.600000*%
%ADD18R,1.350000X1.350000*%
%ADD19O,1.350000X1.350000*%
%ADD20C,0.406400*%
%ADD21C,0.304800*%
G04 APERTURE END LIST*
D10*
D11*
X231648000Y-113665000D03*
D12*
X231648000Y-114915000D03*
X231648000Y-116165000D03*
X231648000Y-117415000D03*
X231648000Y-118665000D03*
X231648000Y-119915000D03*
D13*
X250498000Y-115365000D03*
D14*
X255578000Y-115365000D03*
D13*
X250498000Y-121365000D03*
D14*
X255578000Y-121365000D03*
D13*
X250498000Y-118365000D03*
D14*
X255578000Y-118365000D03*
D13*
X242498000Y-115365000D03*
D14*
X247578000Y-115365000D03*
D13*
X242498000Y-118365000D03*
D14*
X247578000Y-118365000D03*
D13*
X242498000Y-121365000D03*
D14*
X247578000Y-121365000D03*
D15*
X235998000Y-108365000D03*
X238498000Y-108365000D03*
X235998000Y-103365000D03*
X238498000Y-103365000D03*
X235998000Y-98365000D03*
X238498000Y-98365000D03*
X235998000Y-93365000D03*
X238498000Y-93365000D03*
D13*
X242498000Y-112365000D03*
D14*
X247578000Y-112365000D03*
D13*
X250498000Y-112365000D03*
D14*
X255578000Y-112365000D03*
D16*
X232998000Y-108365000D03*
D17*
X225378000Y-93125000D03*
X232998000Y-105825000D03*
X225378000Y-95665000D03*
X232998000Y-103285000D03*
X225378000Y-98205000D03*
X232998000Y-100745000D03*
X225378000Y-100745000D03*
X232998000Y-98205000D03*
X225378000Y-103285000D03*
X232998000Y-95665000D03*
X225378000Y-105825000D03*
X232998000Y-93125000D03*
X225378000Y-108365000D03*
D18*
X248158000Y-95885000D03*
D19*
X250158000Y-95885000D03*
D18*
X243078000Y-95885000D03*
D19*
X245078000Y-95885000D03*
D18*
X253238000Y-95885000D03*
D19*
X255238000Y-95885000D03*
D11*
X237998000Y-118745000D03*
D12*
X236748000Y-118745000D03*
D20*
X232998000Y-93125000D02*
X232998000Y-93171000D01*
X232998000Y-93171000D02*
X238192000Y-98365000D01*
X238192000Y-98365000D02*
X238498000Y-98365000D01*
X231648000Y-119915000D02*
X235578000Y-119915000D01*
X235578000Y-119915000D02*
X236748000Y-118745000D01*
X231648000Y-114915000D02*
X230866000Y-114915000D01*
X231868000Y-105825000D02*
X232998000Y-105825000D01*
X230378000Y-107315000D02*
X231868000Y-105825000D01*
X230378000Y-114427000D02*
X230378000Y-107315000D01*
X230866000Y-114915000D02*
X230378000Y-114427000D01*
X232998000Y-108365000D02*
X235998000Y-108365000D01*
X247578000Y-121365000D02*
X246714000Y-121365000D01*
X235998000Y-109633000D02*
X235998000Y-108365000D01*
X236982000Y-110617000D02*
X235998000Y-109633000D01*
X243586000Y-110617000D02*
X236982000Y-110617000D01*
X244306794Y-111337794D02*
X243586000Y-110617000D01*
X244306794Y-118957794D02*
X244306794Y-111337794D01*
X246714000Y-121365000D02*
X244306794Y-118957794D01*
X232998000Y-103285000D02*
X235918000Y-103285000D01*
X235918000Y-103285000D02*
X235998000Y-103365000D01*
X247578000Y-118365000D02*
X247270000Y-118365000D01*
X247270000Y-118365000D02*
X244913196Y-116008196D01*
X235998000Y-104299000D02*
X235998000Y-103365000D01*
X237236000Y-105537000D02*
X235998000Y-104299000D01*
X242824000Y-105537000D02*
X237236000Y-105537000D01*
X244913196Y-107626196D02*
X242824000Y-105537000D01*
X244913196Y-116008196D02*
X244913196Y-107626196D01*
D21*
X235918000Y-103285000D02*
X235998000Y-103365000D01*
X235998000Y-103365000D02*
X236248000Y-103365000D01*
D20*
X232998000Y-98205000D02*
X235838000Y-98205000D01*
X235838000Y-98205000D02*
X235998000Y-98365000D01*
X247578000Y-115365000D02*
X247064000Y-115365000D01*
X247064000Y-115365000D02*
X245519598Y-113820598D01*
X235998000Y-99219000D02*
X235998000Y-98365000D01*
X237236000Y-100457000D02*
X235998000Y-99219000D01*
X242728418Y-100457000D02*
X237236000Y-100457000D01*
X245519598Y-103248180D02*
X242728418Y-100457000D01*
X245519598Y-113820598D02*
X245519598Y-103248180D01*
D21*
X235838000Y-98205000D02*
X235998000Y-98365000D01*
D20*
X247578000Y-112365000D02*
X247366000Y-112365000D01*
X247366000Y-112365000D02*
X246126000Y-111125000D01*
X235998000Y-94901000D02*
X235998000Y-93365000D01*
X236728000Y-95631000D02*
X235998000Y-94901000D01*
X238760000Y-95631000D02*
X236728000Y-95631000D01*
X246126000Y-102997000D02*
X238760000Y-95631000D01*
X246126000Y-111125000D02*
X246126000Y-102997000D01*
X237998000Y-118745000D02*
X237998000Y-115443000D01*
X241076000Y-112365000D02*
X242498000Y-112365000D01*
X237998000Y-115443000D02*
X241076000Y-112365000D01*
X231648000Y-116165000D02*
X230846000Y-116165000D01*
X231868000Y-100745000D02*
X232998000Y-100745000D01*
X229771598Y-102841402D02*
X231868000Y-100745000D01*
X229771598Y-115090598D02*
X229771598Y-102841402D01*
X230846000Y-116165000D02*
X229771598Y-115090598D01*
D21*
X232998000Y-100745000D02*
X232618000Y-100745000D01*
D20*
X231648000Y-117415000D02*
X230572000Y-117415000D01*
X231868000Y-95665000D02*
X232998000Y-95665000D01*
X229165196Y-98367804D02*
X231868000Y-95665000D01*
X229165196Y-116008196D02*
X229165196Y-98367804D01*
X230572000Y-117415000D02*
X229165196Y-116008196D01*
X231648000Y-118665000D02*
X230298000Y-118665000D01*
X227110000Y-93125000D02*
X225378000Y-93125000D01*
X228558794Y-94573794D02*
X227110000Y-93125000D01*
X228558794Y-116925794D02*
X228558794Y-94573794D01*
X230298000Y-118665000D02*
X228558794Y-116925794D01*
M02*
