G04 #@! TF.FileFunction,Copper,L1,Top,Signal*
%FSLAX46Y46*%
G04 Gerber Fmt 4.6, Leading zero omitted, Abs format (unit mm)*
G04 Created by KiCad (PCBNEW 4.0.7) date 06/26/19 20:58:35*
%MOMM*%
%LPD*%
G01*
G04 APERTURE LIST*
%ADD10C,0.100000*%
%ADD11C,1.400000*%
%ADD12O,1.400000X1.400000*%
%ADD13R,1.600000X1.600000*%
%ADD14O,1.600000X1.600000*%
%ADD15R,0.850000X0.850000*%
%ADD16C,0.850000*%
%ADD17C,1.600000*%
%ADD18R,1.350000X1.350000*%
%ADD19O,1.350000X1.350000*%
%ADD20C,0.406400*%
G04 APERTURE END LIST*
D10*
D11*
X250738000Y-113665000D03*
D12*
X255818000Y-113665000D03*
D13*
X226568000Y-102235000D03*
D14*
X241808000Y-94615000D03*
X229108000Y-102235000D03*
X239268000Y-94615000D03*
X231648000Y-102235000D03*
X236728000Y-94615000D03*
X234188000Y-102235000D03*
X234188000Y-94615000D03*
X236728000Y-102235000D03*
X231648000Y-94615000D03*
X239268000Y-102235000D03*
X229108000Y-94615000D03*
X241808000Y-102235000D03*
X226568000Y-94615000D03*
D15*
X234188000Y-113665000D03*
D16*
X234188000Y-114915000D03*
X234188000Y-116165000D03*
X234188000Y-117415000D03*
X234188000Y-118665000D03*
X234188000Y-119915000D03*
D11*
X250738000Y-116205000D03*
D12*
X255818000Y-116205000D03*
D11*
X250738000Y-121285000D03*
D12*
X255818000Y-121285000D03*
D11*
X250738000Y-118745000D03*
D12*
X255818000Y-118745000D03*
D11*
X243118000Y-116205000D03*
D12*
X248198000Y-116205000D03*
D11*
X243118000Y-118745000D03*
D12*
X248198000Y-118745000D03*
D11*
X243118000Y-121285000D03*
D12*
X248198000Y-121285000D03*
D17*
X240538000Y-121285000D03*
X238038000Y-121285000D03*
X240538000Y-118745000D03*
X238038000Y-118745000D03*
X240538000Y-116205000D03*
X238038000Y-116205000D03*
X240538000Y-113665000D03*
X238038000Y-113665000D03*
D11*
X243118000Y-113665000D03*
D12*
X248198000Y-113665000D03*
D18*
X248158000Y-111125000D03*
D19*
X250158000Y-111125000D03*
D18*
X253238000Y-111125000D03*
D19*
X255238000Y-111125000D03*
D18*
X243078000Y-111125000D03*
D19*
X245078000Y-111125000D03*
D15*
X232918000Y-108585000D03*
D16*
X231668000Y-108585000D03*
D20*
X238038000Y-113665000D02*
X238038000Y-112435000D01*
X231668000Y-109875000D02*
X231668000Y-108585000D01*
X232283000Y-110490000D02*
X231668000Y-109875000D01*
X236093000Y-110490000D02*
X232283000Y-110490000D01*
X238038000Y-112435000D02*
X236093000Y-110490000D01*
X241808000Y-102235000D02*
X242443000Y-102235000D01*
X242443000Y-102235000D02*
X243713000Y-103505000D01*
X243713000Y-103505000D02*
X243713000Y-108585000D01*
X243713000Y-108585000D02*
X245078000Y-109950000D01*
X245078000Y-109950000D02*
X245078000Y-111125000D01*
X250158000Y-111125000D02*
X250158000Y-110585000D01*
X250158000Y-110585000D02*
X249428000Y-109855000D01*
X246348000Y-109855000D02*
X245078000Y-111125000D01*
X249428000Y-109855000D02*
X246348000Y-109855000D01*
X255238000Y-111125000D02*
X255238000Y-110585000D01*
X255238000Y-110585000D02*
X254508000Y-109855000D01*
X254508000Y-109855000D02*
X251428000Y-109855000D01*
X251428000Y-109855000D02*
X250158000Y-111125000D01*
X234188000Y-113665000D02*
X233553000Y-113665000D01*
X253238000Y-121285000D02*
X255818000Y-121285000D01*
X251333000Y-123190000D02*
X253238000Y-121285000D01*
X235458000Y-123190000D02*
X251333000Y-123190000D01*
X232918000Y-120650000D02*
X235458000Y-123190000D01*
X232918000Y-114300000D02*
X232918000Y-120650000D01*
X233553000Y-113665000D02*
X232918000Y-114300000D01*
X234188000Y-113665000D02*
X229743000Y-113665000D01*
X224663000Y-96520000D02*
X226568000Y-94615000D01*
X224663000Y-108585000D02*
X224663000Y-96520000D01*
X229743000Y-113665000D02*
X224663000Y-108585000D01*
X255818000Y-116205000D02*
X255818000Y-113665000D01*
X255818000Y-118745000D02*
X255818000Y-116205000D01*
X255818000Y-121285000D02*
X255818000Y-118745000D01*
X255578000Y-121365000D02*
X255444000Y-121365000D01*
X240538000Y-121285000D02*
X239268000Y-120015000D01*
X226568000Y-108585000D02*
X226568000Y-102235000D01*
X230378000Y-112395000D02*
X226568000Y-108585000D01*
X234823000Y-112395000D02*
X230378000Y-112395000D01*
X235458000Y-113030000D02*
X234823000Y-112395000D01*
X235458000Y-118745000D02*
X235458000Y-113030000D01*
X236728000Y-120015000D02*
X235458000Y-118745000D01*
X239268000Y-120015000D02*
X236728000Y-120015000D01*
X226568000Y-102870000D02*
X226568000Y-102235000D01*
X248198000Y-121285000D02*
X245618000Y-121285000D01*
X241808000Y-122555000D02*
X240538000Y-121285000D01*
X244348000Y-122555000D02*
X241808000Y-122555000D01*
X245618000Y-121285000D02*
X244348000Y-122555000D01*
X248198000Y-121285000D02*
X248158000Y-121285000D01*
X250738000Y-121285000D02*
X248198000Y-121285000D01*
X240538000Y-118745000D02*
X239268000Y-117475000D01*
X229108000Y-104775000D02*
X231648000Y-102235000D01*
X229108000Y-109855000D02*
X229108000Y-104775000D01*
X231013000Y-111760000D02*
X229108000Y-109855000D01*
X235458000Y-111760000D02*
X231013000Y-111760000D01*
X236093000Y-112395000D02*
X235458000Y-111760000D01*
X236093000Y-116840000D02*
X236093000Y-112395000D01*
X236728000Y-117475000D02*
X236093000Y-116840000D01*
X239268000Y-117475000D02*
X236728000Y-117475000D01*
X248198000Y-118745000D02*
X245618000Y-118745000D01*
X241808000Y-120015000D02*
X240538000Y-118745000D01*
X244348000Y-120015000D02*
X241808000Y-120015000D01*
X245618000Y-118745000D02*
X244348000Y-120015000D01*
X248198000Y-118745000D02*
X248158000Y-118745000D01*
X250738000Y-118745000D02*
X248198000Y-118745000D01*
X240538000Y-116205000D02*
X239268000Y-114935000D01*
X236728000Y-108585000D02*
X236728000Y-102235000D01*
X239268000Y-111125000D02*
X236728000Y-108585000D01*
X239268000Y-114935000D02*
X239268000Y-111125000D01*
X248198000Y-116205000D02*
X245618000Y-116205000D01*
X241808000Y-117475000D02*
X240538000Y-116205000D01*
X244348000Y-117475000D02*
X241808000Y-117475000D01*
X245618000Y-116205000D02*
X244348000Y-117475000D01*
X248198000Y-116205000D02*
X248158000Y-116205000D01*
X250738000Y-116205000D02*
X248198000Y-116205000D01*
X240538000Y-113665000D02*
X240538000Y-95885000D01*
X240538000Y-95885000D02*
X239268000Y-94615000D01*
X248198000Y-113665000D02*
X245618000Y-113665000D01*
X241808000Y-114935000D02*
X240538000Y-113665000D01*
X244348000Y-114935000D02*
X241808000Y-114935000D01*
X245618000Y-113665000D02*
X244348000Y-114935000D01*
X248198000Y-113665000D02*
X248158000Y-113665000D01*
X250738000Y-113665000D02*
X248198000Y-113665000D01*
X243118000Y-118745000D02*
X244348000Y-118745000D01*
X249428000Y-112395000D02*
X248158000Y-111125000D01*
X251968000Y-112395000D02*
X249428000Y-112395000D01*
X253238000Y-113665000D02*
X251968000Y-112395000D01*
X253238000Y-116205000D02*
X253238000Y-113665000D01*
X251968000Y-117475000D02*
X253238000Y-116205000D01*
X245618000Y-117475000D02*
X251968000Y-117475000D01*
X244348000Y-118745000D02*
X245618000Y-117475000D01*
X243118000Y-121285000D02*
X244348000Y-121285000D01*
X254508000Y-112395000D02*
X253238000Y-111125000D01*
X254508000Y-113665000D02*
X254508000Y-112395000D01*
X254508000Y-118745000D02*
X254508000Y-113665000D01*
X253238000Y-120015000D02*
X254508000Y-118745000D01*
X245618000Y-120015000D02*
X253238000Y-120015000D01*
X244348000Y-121285000D02*
X245618000Y-120015000D01*
M02*
