<?xml version="1.0" standalone="no"?>
 <!DOCTYPE svg PUBLIC "-//W3C//DTD SVG 1.1//EN" 
 "http://www.w3.org/Graphics/SVG/1.1/DTD/svg11.dtd"> 
<svg xmlns="http://www.w3.org/2000/svg" version="1.1" 
    width="2.89052cm" height="2.8829cm" viewBox="0 0 11380 11350 ">
<title>SVG Picture created as base-brd.svg date 2017/05/12 16:13:14 </title>
  <desc>Picture generated by PCBNEW </desc>
<g style="fill:#000000; fill-opacity:1;stroke:#000000; stroke-opacity:1;
stroke-linecap:round; stroke-linejoin:round; "
 transform="translate(0 0) scale(1 1)">
</g>
<g style="fill:#000000; fill-opacity:0.0; 
stroke:#000000; stroke-width:-0.000393701; stroke-opacity:1; 
stroke-linecap:round; stroke-linejoin:round;">
</g>
<g style="fill:#000000; fill-opacity:0.0; 
stroke:#000000; stroke-width:0; stroke-opacity:1; 
stroke-linecap:round; stroke-linejoin:round;">
</g>
<g style="fill:#000000; fill-opacity:1.0; 
stroke:#000000; stroke-width:0; stroke-opacity:1; 
stroke-linecap:round; stroke-linejoin:round;">
<polyline style="fill-rule:evenodd;"
points="8879,8059
9325,8505
8879,8950
8434,8505
8879,8059
" /> 
<polyline style="fill-rule:evenodd;"
points="7889,9049
8335,9494
7889,9940
7444,9494
7889,9049
" /> 
<polyline style="fill-rule:evenodd;"
points="8362,7571
8106,7571
8106,6902
8362,6902
8362,7571
" /> 
<polyline style="fill-rule:evenodd;"
points="8862,7571
8606,7571
8606,6902
8862,6902
8862,7571
" /> 
<polyline style="fill-rule:evenodd;"
points="9362,7571
9106,7571
9106,6902
9362,6902
9362,7571
" /> 
<polyline style="fill-rule:evenodd;"
points="9862,7571
9606,7571
9606,6902
9862,6902
9862,7571
" /> 
<polyline style="fill-rule:evenodd;"
points="9862,4697
9606,4697
9606,4028
9862,4028
9862,4697
" /> 
<polyline style="fill-rule:evenodd;"
points="9362,4697
9106,4697
9106,4028
9362,4028
9362,4697
" /> 
<polyline style="fill-rule:evenodd;"
points="8862,4697
8606,4697
8606,4028
8862,4028
8862,4697
" /> 
<polyline style="fill-rule:evenodd;"
points="8362,4697
8106,4697
8106,4028
8362,4028
8362,4697
" /> 
<circle cx="6884.76" cy="7050" r="200" /> 
</g>
<g style="fill:#000000; fill-opacity:1.0; 
stroke:#000000; stroke-width:39.3701; stroke-opacity:1; 
stroke-linecap:round; stroke-linejoin:round;">
</g>
<g style="fill:#000000; fill-opacity:1.0; 
stroke:#000000; stroke-width:0; stroke-opacity:1; 
stroke-linecap:round; stroke-linejoin:round;">
<polyline style="fill-rule:evenodd;"
points="5899,9162
5899,9437
5663,9437
5663,9162
5899,9162
" /> 
<polyline style="fill-rule:evenodd;"
points="5466,9162
5466,9437
5230,9437
5230,9162
5466,9162
" /> 
<polyline style="fill-rule:evenodd;"
points="4360,9181
4360,9418
4124,9418
4124,9181
4360,9181
" /> 
<polyline style="fill-rule:evenodd;"
points="4006,9181
4006,9418
3769,9418
3769,9181
4006,9181
" /> 
<polyline style="fill-rule:evenodd;"
points="6131,8143
6131,8457
5737,8457
5737,8143
6131,8143
" /> 
<polyline style="fill-rule:evenodd;"
points="5431,8143
5431,8457
5037,8457
5037,8143
5431,8143
" /> 
<polyline style="fill-rule:evenodd;"
points="6290,6814
6290,7286
5778,7286
5778,6814
6290,6814
" /> 
<polyline style="fill-rule:evenodd;"
points="5340,6814
5340,7286
4828,7286
4828,6814
5340,6814
" /> 
<polyline style="fill-rule:evenodd;"
points="6519,5195
6519,5904
5850,5904
5850,5195
6519,5195
" /> 
<polyline style="fill-rule:evenodd;"
points="5269,5195
5269,5904
4600,5904
4600,5195
5269,5195
" /> 
<polyline style="fill-rule:evenodd;"
points="4322,8122
4322,8477
4046,8477
4046,8122
4322,8122
" /> 
<polyline style="fill-rule:evenodd;"
points="3572,8122
3572,8477
3296,8477
3296,8122
3572,8122
" /> 
<polyline style="fill-rule:evenodd;"
points="4251,5215
4251,5884
3818,5884
3818,5215
4251,5215
" /> 
<polyline style="fill-rule:evenodd;"
points="2901,5215
2901,5884
2468,5884
2468,5215
2901,5215
" /> 
<polyline style="fill-rule:evenodd;"
points="4211,6794
4211,7305
3857,7305
3857,6794
4211,6794
" /> 
<polyline style="fill-rule:evenodd;"
points="3311,6794
3311,7305
2957,7305
2957,6794
3311,6794
" /> 
<circle cx="5334.76" cy="1300" r="590.551" /> 
</g>
<g style="fill:#000000; fill-opacity:1.0; 
stroke:#000000; stroke-width:39.3701; stroke-opacity:1; 
stroke-linecap:round; stroke-linejoin:round;">
</g>
<g style="fill:#000000; fill-opacity:1.0; 
stroke:#000000; stroke-width:629.921; stroke-opacity:1; 
stroke-linecap:round; stroke-linejoin:round;">
</g>
<g style="fill:#000000; fill-opacity:0.0; 
stroke:#000000; stroke-width:629.921; stroke-opacity:1; 
stroke-linecap:round; stroke-linejoin:round;">
<path d="M8134 2300
L8134 2300
" />
</g>
<g style="fill:#000000; fill-opacity:0.0; 
stroke:#000000; stroke-width:0; stroke-opacity:1; 
stroke-linecap:round; stroke-linejoin:round;">
</g>
<g style="fill:#000000; fill-opacity:1.0; 
stroke:#000000; stroke-width:0; stroke-opacity:1; 
stroke-linecap:round; stroke-linejoin:round;">
<polyline style="fill-rule:evenodd;"
points="7819,2985
8449,2985
8449,3614
7819,3614
7819,2985
" /> 
</g>
<g style="fill:#000000; fill-opacity:1.0; 
stroke:#000000; stroke-width:629.921; stroke-opacity:1; 
stroke-linecap:round; stroke-linejoin:round;">
</g>
<g style="fill:#000000; fill-opacity:0.0; 
stroke:#000000; stroke-width:629.921; stroke-opacity:1; 
stroke-linecap:round; stroke-linejoin:round;">
<path d="M7134 2300
L7134 2300
" />
<path d="M7134 3300
L7134 3300
" />
<path d="M6134 2300
L6134 2300
" />
<path d="M6134 3300
L6134 3300
" />
</g>
<g style="fill:#000000; fill-opacity:0.0; 
stroke:#000000; stroke-width:0; stroke-opacity:1; 
stroke-linecap:round; stroke-linejoin:round;">
</g>
<g style="fill:#000000; fill-opacity:1.0; 
stroke:#000000; stroke-width:0; stroke-opacity:1; 
stroke-linecap:round; stroke-linejoin:round;">
<polyline style="fill-rule:evenodd;"
points="4740,9965
4740,10134
4630,10134
4630,9965
4740,9965
" /> 
<polyline style="fill-rule:evenodd;"
points="4539,9965
4539,10134
4429,10134
4429,9965
4539,9965
" /> 
<polyline style="fill-rule:evenodd;"
points="5429,10134
5429,9965
5539,9965
5539,10134
5429,10134
" /> 
<polyline style="fill-rule:evenodd;"
points="5630,10134
5630,9965
5740,9965
5740,10134
5630,10134
" /> 
<circle cx="7084.76" cy="5550" r="225" /> 
</g>
<g style="fill:#000000; fill-opacity:1.0; 
stroke:#000000; stroke-width:39.3701; stroke-opacity:1; 
stroke-linecap:round; stroke-linejoin:round;">
</g>
<g style="fill:#000000; fill-opacity:1.0; 
stroke:#000000; stroke-width:0; stroke-opacity:1; 
stroke-linecap:round; stroke-linejoin:round;">
<circle cx="6734.76" cy="8300" r="175" /> 
</g>
<g style="fill:#000000; fill-opacity:1.0; 
stroke:#000000; stroke-width:39.3701; stroke-opacity:1; 
stroke-linecap:round; stroke-linejoin:round;">
</g>
<g style="fill:#000000; fill-opacity:1.0; 
stroke:#000000; stroke-width:0; stroke-opacity:1; 
stroke-linecap:round; stroke-linejoin:round;">
<circle cx="6584.76" cy="9300" r="150" /> 
</g>
<g style="fill:#000000; fill-opacity:1.0; 
stroke:#000000; stroke-width:39.3701; stroke-opacity:1; 
stroke-linecap:round; stroke-linejoin:round;">
</g>
<g style="fill:#000000; fill-opacity:1.0; 
stroke:#000000; stroke-width:0; stroke-opacity:1; 
stroke-linecap:round; stroke-linejoin:round;">
<circle cx="6484.76" cy="10050" r="125" /> 
</g>
<g style="fill:#000000; fill-opacity:1.0; 
stroke:#000000; stroke-width:39.3701; stroke-opacity:1; 
stroke-linecap:round; stroke-linejoin:round;">
</g>
<g style="fill:#000000; fill-opacity:1.0; 
stroke:#000000; stroke-width:300; stroke-opacity:1; 
stroke-linecap:round; stroke-linejoin:round;">
</g>
<g style="fill:#000000; fill-opacity:0.0; 
stroke:#000000; stroke-width:300; stroke-opacity:1; 
stroke-linecap:round; stroke-linejoin:round;">
<path d="M1634 5424
L1634 5675
" />
<path d="M1809 6983
L1809 7116
" />
</g>
<g style="fill:#000000; fill-opacity:0.0; 
stroke:#000000; stroke-width:250; stroke-opacity:1; 
stroke-linecap:round; stroke-linejoin:round;">
<path d="M2284 8250
L2284 8350
" />
</g>
<g style="fill:#000000; fill-opacity:0.0; 
stroke:#000000; stroke-width:200; stroke-opacity:1; 
stroke-linecap:round; stroke-linejoin:round;">
<path d="M3009 9250
L3009 9350
" />
<path d="M3959 10000
L3959 10100
" />
</g> 
</svg>
