<?xml version="1.0" encoding="UTF-8" standalone="no"?>
<svg
   xmlns:dc="http://purl.org/dc/elements/1.1/"
   xmlns:cc="http://creativecommons.org/ns#"
   xmlns:rdf="http://www.w3.org/1999/02/22-rdf-syntax-ns#"
   xmlns:svg="http://www.w3.org/2000/svg"
   xmlns="http://www.w3.org/2000/svg"
   xmlns:sodipodi="http://sodipodi.sourceforge.net/DTD/sodipodi-0.dtd"
   xmlns:inkscape="http://www.inkscape.org/namespaces/inkscape"
   version="1.1"
   width="2.89052cm"
   height="2.8829cm"
   viewBox="0 0 11380 11350 "
   id="svg2"
   inkscape:version="0.91 r13725"
   sodipodi:docname="base-brd.svg">
  <metadata
     id="metadata160">
    <rdf:RDF>
      <cc:Work
         rdf:about="">
        <dc:format>image/svg+xml</dc:format>
        <dc:type
           rdf:resource="http://purl.org/dc/dcmitype/StillImage" />
      </cc:Work>
    </rdf:RDF>
  </metadata>
  <defs
     id="defs158" />
  <sodipodi:namedview
     pagecolor="#ffffff"
     bordercolor="#666666"
     borderopacity="1"
     objecttolerance="10"
     gridtolerance="10"
     guidetolerance="10"
     inkscape:pageopacity="0"
     inkscape:pageshadow="2"
     inkscape:window-width="779"
     inkscape:window-height="480"
     id="namedview156"
     showgrid="false"
     inkscape:zoom="2.3103279"
     inkscape:cx="51.210002"
     inkscape:cy="51.075"
     inkscape:window-x="445"
     inkscape:window-y="55"
     inkscape:window-maximized="0"
     inkscape:current-layer="svg2" />
  <title
     id="title4">SVG Picture created as base-brd.svg date 2017/06/02 16:45:37 </title>
  <desc
     id="desc6">Picture generated by PCBNEW </desc>
  <g
     style="fill:#000000; fill-opacity:1;stroke:#000000; stroke-opacity:1; stroke-linecap:round; stroke-linejoin:round; "
     transform="translate(0 0) scale(1 1)"
     id="g8" />
  <g
     style="fill:#000000; fill-opacity:0.0;  stroke:#000000; stroke-width:-0.000393701; stroke-opacity:1;  stroke-linecap:round; stroke-linejoin:round;"
     id="g10" />
  <g
     style="fill:#840000; fill-opacity:0.0;  stroke:#840000; stroke-width:-0.000393701; stroke-opacity:1;  stroke-linecap:round; stroke-linejoin:round;"
     id="g12" />
  <g
     style="fill:#840000; fill-opacity:0.0;  stroke:#840000; stroke-width:0; stroke-opacity:1;  stroke-linecap:round; stroke-linejoin:round;"
     id="g14" />
  <g
     style="fill:#000000;fill-opacity:1;stroke:#000000;stroke-width:0;stroke-opacity:1;stroke-linecap:round;stroke-linejoin:round"
     id="g16">
    <polyline
       style="fill-rule:evenodd;fill:#000000;stroke:#000000"
       points="8879,8059 9325,8505 8879,8950 8434,8505 8879,8059 "
       id="polyline18" />
    <polyline
       style="fill-rule:evenodd;fill:#000000;stroke:#000000"
       points="7889,9049 8335,9494 7889,9940 7444,9494 7889,9049 "
       id="polyline20" />
    <polyline
       style="fill-rule:evenodd;fill:#000000;stroke:#000000"
       points="8362,7571 8106,7571 8106,6902 8362,6902 8362,7571 "
       id="polyline22" />
    <polyline
       style="fill-rule:evenodd;fill:#000000;stroke:#000000"
       points="8862,7571 8606,7571 8606,6902 8862,6902 8862,7571 "
       id="polyline24" />
    <polyline
       style="fill-rule:evenodd;fill:#000000;stroke:#000000"
       points="9362,7571 9106,7571 9106,6902 9362,6902 9362,7571 "
       id="polyline26" />
    <polyline
       style="fill-rule:evenodd;fill:#000000;stroke:#000000"
       points="9862,7571 9606,7571 9606,6902 9862,6902 9862,7571 "
       id="polyline28" />
    <polyline
       style="fill-rule:evenodd;fill:#000000;stroke:#000000"
       points="9862,4697 9606,4697 9606,4028 9862,4028 9862,4697 "
       id="polyline30" />
    <polyline
       style="fill-rule:evenodd;fill:#000000;stroke:#000000"
       points="9362,4697 9106,4697 9106,4028 9362,4028 9362,4697 "
       id="polyline32" />
    <polyline
       style="fill-rule:evenodd;fill:#000000;stroke:#000000"
       points="8862,4697 8606,4697 8606,4028 8862,4028 8862,4697 "
       id="polyline34" />
    <polyline
       style="fill-rule:evenodd;fill:#000000;stroke:#000000"
       points="8362,4697 8106,4697 8106,4028 8362,4028 8362,4697 "
       id="polyline36" />
  </g>
  <g
     style="fill:#840000; fill-opacity:1.0;  stroke:#840000; stroke-width:39.3701; stroke-opacity:1;  stroke-linecap:round; stroke-linejoin:round;"
     id="g40" />
  <g
     style="fill:#000000;fill-opacity:1;stroke:#000000;stroke-width:0;stroke-opacity:1;stroke-linecap:round;stroke-linejoin:round"
     id="g42">
    <polyline
       style="fill-rule:evenodd;fill:#000000;stroke:#000000"
       points="5899,9162 5899,9437 5663,9437 5663,9162 5899,9162 "
       id="polyline44" />
    <polyline
       style="fill-rule:evenodd;fill:#000000;stroke:#000000"
       points="5466,9162 5466,9437 5230,9437 5230,9162 5466,9162 "
       id="polyline46" />
    <polyline
       style="fill-rule:evenodd;fill:#000000;stroke:#000000"
       points="4360,9181 4360,9418 4124,9418 4124,9181 4360,9181 "
       id="polyline48" />
    <polyline
       style="fill-rule:evenodd;fill:#000000;stroke:#000000"
       points="4006,9181 4006,9418 3769,9418 3769,9181 4006,9181 "
       id="polyline50" />
    <polyline
       style="fill-rule:evenodd;fill:#000000;stroke:#000000"
       points="6131,8143 6131,8457 5737,8457 5737,8143 6131,8143 "
       id="polyline52" />
    <polyline
       style="fill-rule:evenodd;fill:#000000;stroke:#000000"
       points="5431,8143 5431,8457 5037,8457 5037,8143 5431,8143 "
       id="polyline54" />
    <polyline
       style="fill-rule:evenodd;fill:#000000;stroke:#000000"
       points="6290,6814 6290,7286 5778,7286 5778,6814 6290,6814 "
       id="polyline56" />
    <polyline
       style="fill-rule:evenodd;fill:#000000;stroke:#000000"
       points="5340,6814 5340,7286 4828,7286 4828,6814 5340,6814 "
       id="polyline58" />
    <polyline
       style="fill-rule:evenodd;fill:#000000;stroke:#000000"
       points="6519,5195 6519,5904 5850,5904 5850,5195 6519,5195 "
       id="polyline60" />
    <polyline
       style="fill-rule:evenodd;fill:#000000;stroke:#000000"
       points="5269,5195 5269,5904 4600,5904 4600,5195 5269,5195 "
       id="polyline62" />
    <polyline
       style="fill-rule:evenodd;fill:#000000;stroke:#000000"
       points="4322,8122 4322,8477 4046,8477 4046,8122 4322,8122 "
       id="polyline64" />
    <polyline
       style="fill-rule:evenodd;fill:#000000;stroke:#000000"
       points="3572,8122 3572,8477 3296,8477 3296,8122 3572,8122 "
       id="polyline66" />
    <polyline
       style="fill-rule:evenodd;fill:#000000;stroke:#000000"
       points="4251,5215 4251,5884 3818,5884 3818,5215 4251,5215 "
       id="polyline68" />
    <polyline
       style="fill-rule:evenodd;fill:#000000;stroke:#000000"
       points="2901,5215 2901,5884 2468,5884 2468,5215 2901,5215 "
       id="polyline70" />
    <polyline
       style="fill-rule:evenodd;fill:#000000;stroke:#000000"
       points="4211,6794 4211,7305 3857,7305 3857,6794 4211,6794 "
       id="polyline72" />
    <polyline
       style="fill-rule:evenodd;fill:#000000;stroke:#000000"
       points="3311,6794 3311,7305 2957,7305 2957,6794 3311,6794 "
       id="polyline74" />
  </g>
  <g
     style="fill:#840000; fill-opacity:1.0;  stroke:#840000; stroke-width:39.3701; stroke-opacity:1;  stroke-linecap:round; stroke-linejoin:round;"
     id="g78" />
  <g
     style="fill:#840000; fill-opacity:1.0;  stroke:#840000; stroke-width:629.921; stroke-opacity:1;  stroke-linecap:round; stroke-linejoin:round;"
     id="g80" />
  <g
     style="fill:#840000; fill-opacity:0.0;  stroke:#840000; stroke-width:0; stroke-opacity:1;  stroke-linecap:round; stroke-linejoin:round;"
     id="g86" />
  <g
     style="fill:#840000; fill-opacity:1.0;  stroke:#840000; stroke-width:629.921; stroke-opacity:1;  stroke-linecap:round; stroke-linejoin:round;"
     id="g92" />
  <g
     style="fill:#840000; fill-opacity:0.0;  stroke:#840000; stroke-width:0; stroke-opacity:1;  stroke-linecap:round; stroke-linejoin:round;"
     id="g104" />
  <g
     style="fill:#000000;fill-opacity:1;stroke:#000000;stroke-width:0;stroke-opacity:1;stroke-linecap:round;stroke-linejoin:round"
     id="g106">
    <polyline
       style="fill-rule:evenodd;fill:#000000;stroke:#000000"
       points="4740,9965 4740,10134 4630,10134 4630,9965 4740,9965 "
       id="polyline108" />
    <polyline
       style="fill-rule:evenodd;fill:#000000;stroke:#000000"
       points="4539,9965 4539,10134 4429,10134 4429,9965 4539,9965 "
       id="polyline110" />
    <polyline
       style="fill-rule:evenodd;fill:#000000;stroke:#000000"
       points="5429,10134 5429,9965 5539,9965 5539,10134 5429,10134 "
       id="polyline112" />
    <polyline
       style="fill-rule:evenodd;fill:#000000;stroke:#000000"
       points="5630,10134 5630,9965 5740,9965 5740,10134 5630,10134 "
       id="polyline114" />
  </g>
  <g
     style="fill:#840000; fill-opacity:1.0;  stroke:#840000; stroke-width:39.3701; stroke-opacity:1;  stroke-linecap:round; stroke-linejoin:round;"
     id="g118" />
  <g
     style="fill:#840000; fill-opacity:1.0;  stroke:#840000; stroke-width:0; stroke-opacity:1;  stroke-linecap:round; stroke-linejoin:round;"
     id="g120" />
  <g
     style="fill:#840000; fill-opacity:1.0;  stroke:#840000; stroke-width:39.3701; stroke-opacity:1;  stroke-linecap:round; stroke-linejoin:round;"
     id="g124" />
  <g
     style="fill:#840000; fill-opacity:1.0;  stroke:#840000; stroke-width:39.3701; stroke-opacity:1;  stroke-linecap:round; stroke-linejoin:round;"
     id="g130" />
  <g
     style="fill:#840000; fill-opacity:1.0;  stroke:#840000; stroke-width:39.3701; stroke-opacity:1;  stroke-linecap:round; stroke-linejoin:round;"
     id="g136" />
  <g
     style="fill:#840000; fill-opacity:1.0;  stroke:#840000; stroke-width:300; stroke-opacity:1;  stroke-linecap:round; stroke-linejoin:round;"
     id="g138" />
</svg>
