<?xml version="1.0" encoding="utf-8"?>
<!-- Generator: Adobe Illustrator 15.0.0, SVG Export Plug-In . SVG Version: 6.00 Build 0)  -->
<!DOCTYPE svg PUBLIC "-//W3C//DTD SVG 1.1//EN" "http://www.w3.org/Graphics/SVG/1.1/DTD/svg11.dtd">
<svg version="1.1" id="Layer_1" xmlns="http://www.w3.org/2000/svg" xmlns:xlink="http://www.w3.org/1999/xlink" x="0px" y="0px"
	 width="760px" height="863px" viewBox="0 0 760 863" style="enable-background:new 0 0 760 863;" xml:space="preserve">
<g>
	
		<circle style="fill:#FFFFFF;stroke:#000000;stroke-width:15.2699;stroke-linecap:round;stroke-linejoin:round;stroke-miterlimit:10;" cx="376.214" cy="98.033" r="84.834"/>
	<g>
		
			<path style="fill:#FFFFFF;stroke:#000000;stroke-width:8.513;stroke-linecap:round;stroke-linejoin:round;stroke-miterlimit:10;" d="
			M209.882,606.494c0,0-43.311,100.793,41.736,136.23l6.299-109.461L209.882,606.494z"/>
		
			<path style="fill:#FFFFFF;stroke:#000000;stroke-width:12.9408;stroke-linecap:round;stroke-linejoin:round;stroke-miterlimit:10;" d="
			M262.644,565.545c0,0-58.275,1.574-64.574,60.633c0,0,13.385,28.352,56.697,30.707L262.644,565.545z"/>
		<path style="fill:none;stroke:#000000;stroke-width:8.513;stroke-linecap:round;stroke-linejoin:round;stroke-miterlimit:10;" d="
			M201.147,681.15c0,0,13.332,8.633,37.645,5.492"/>
	</g>
	<g>
		
			<path style="fill:#FFFFFF;stroke:#000000;stroke-width:8.513;stroke-linecap:round;stroke-linejoin:round;stroke-miterlimit:10;" d="
			M562.194,606.494c0,0,43.311,100.793-41.736,136.23l-6.299-109.461L562.194,606.494z"/>
		
			<path style="fill:#FFFFFF;stroke:#000000;stroke-width:12.9408;stroke-linecap:round;stroke-linejoin:round;stroke-miterlimit:10;" d="
			M509.433,565.545c0,0,58.275,1.574,64.574,60.633c0,0-13.385,28.352-56.697,30.707L509.433,565.545z"/>
		<path style="fill:none;stroke:#000000;stroke-width:8.513;stroke-linecap:round;stroke-linejoin:round;stroke-miterlimit:10;" d="
			M570.931,681.15c0,0-13.334,8.633-37.646,5.492"/>
	</g>
	
		<path style="fill:#FFFFFF;stroke:#000000;stroke-width:12.9408;stroke-linecap:round;stroke-linejoin:round;stroke-miterlimit:10;" d="
		M494.259,851.928c78.711-145.5,0-338.703,0-338.703H274.884c0,0-78.715,193.203,0,338.703H494.259z"/>
	
		<line style="fill:none;stroke:#000000;stroke-width:8.513;stroke-linecap:round;stroke-linejoin:round;stroke-miterlimit:10;" x1="386.284" y1="789.189" x2="386.284" y2="851.4"/>
	<g>
		
			<path style="fill:#FFFFFF;stroke:#000000;stroke-width:12.9408;stroke-linecap:round;stroke-linejoin:round;stroke-miterlimit:10;" d="
			M354.862,851.928c0,0-13.389-63.793-99.223-50.402l-18.898,50.402H354.862z"/>
		
			<path style="fill:#FFFFFF;stroke:#000000;stroke-width:12.9408;stroke-linecap:round;stroke-linejoin:round;stroke-miterlimit:10;" d="
			M414.278,851.928c0,0,13.389-63.793,99.223-50.402l18.896,50.402H414.278z"/>
	</g>
	<path style="stroke:#000000;stroke-width:14.9649;stroke-linecap:round;stroke-linejoin:round;stroke-miterlimit:10;" d="
		M498.769,680.236c0,62.617-50.762,113.387-113.389,113.387c-62.623,0-113.383-50.77-113.383-113.387
		c0-62.625,50.76-113.383,113.383-113.383C448.007,566.854,498.769,617.611,498.769,680.236z"/>
	<g>
		<g>
			
				<path style="fill:#FFFFFF;stroke:#000000;stroke-width:12.9408;stroke-linecap:round;stroke-linejoin:round;stroke-miterlimit:10;" d="
				M182.812,340.443c0,38.344-38.18,69.43-85.275,69.43s-85.275-31.086-85.275-69.43c0-38.355,38.18-69.445,85.275-69.445
				S182.812,302.088,182.812,340.443z"/>
			
				<line style="fill:none;stroke:#000000;stroke-width:8.513;stroke-linecap:round;stroke-linejoin:round;stroke-miterlimit:10;" x1="57.147" y1="397.529" x2="57.147" y2="283.736"/>
		</g>
		<g>
			
				<path style="fill:#FFFFFF;stroke:#000000;stroke-width:12.9408;stroke-linecap:round;stroke-linejoin:round;stroke-miterlimit:10;" d="
				M579.823,340.443c0,38.344,38.176,69.43,85.273,69.43c47.096,0,85.273-31.086,85.273-69.43c0-38.355-38.178-69.445-85.273-69.445
				C617.999,270.998,579.823,302.088,579.823,340.443z"/>
			
				<line style="fill:none;stroke:#000000;stroke-width:8.513;stroke-linecap:round;stroke-linejoin:round;stroke-miterlimit:10;" x1="705.483" y1="397.529" x2="705.483" y2="283.736"/>
		</g>
	</g>
	
		<path style="fill:#FFFFFF;stroke:#000000;stroke-width:12.9408;stroke-linecap:round;stroke-linejoin:round;stroke-miterlimit:10;" d="
		M664.88,455.064c0,41.094-33.324,74.422-74.428,74.422H172.177c-41.105,0-74.428-33.328-74.428-74.422V225.818
		c0-41.102,33.322-74.422,74.428-74.422h418.275c41.104,0,74.428,33.32,74.428,74.422V455.064z"/>
	<path style="stroke:#000000;stroke-width:14.3376;stroke-linecap:round;stroke-linejoin:round;stroke-miterlimit:10;" d="
		M626.667,423.553c0,37.41-30.326,67.734-67.736,67.734H203.942c-37.41,0-67.738-30.324-67.738-67.734V261.857
		c0-37.41,30.328-67.738,67.738-67.738h354.988c37.41,0,67.736,30.328,67.736,67.738V423.553z"/>
	<g>
		
			<path style="fill:#FFFFFF;stroke:#000000;stroke-width:2.1568;stroke-linecap:round;stroke-linejoin:round;stroke-miterlimit:10;" d="
			M312.806,337.748c0,33.773-27.371,61.141-61.139,61.141c-33.766,0-61.137-27.367-61.137-61.141
			c0-33.762,27.371-61.133,61.137-61.133C285.435,276.615,312.806,303.986,312.806,337.748z"/>
		<g>
			
				<path style="fill:none;stroke:#000000;stroke-width:2.1568;stroke-linecap:round;stroke-linejoin:round;stroke-miterlimit:10;" d="
				M244.067,337.756c0,8.969-7.289,16.25-16.268,16.25c-8.98,0-16.256-7.281-16.256-16.25c0-8.984,7.275-16.27,16.256-16.27
				C236.778,321.486,244.067,328.771,244.067,337.756z"/>
			
				<path style="fill:none;stroke:#000000;stroke-width:2.1568;stroke-linecap:round;stroke-linejoin:round;stroke-miterlimit:10;" d="
				M236.821,337.756c0,4.984-4.039,9.027-9.021,9.027c-4.984,0-9.027-4.043-9.027-9.027c0-4.992,4.043-9.023,9.027-9.023
				C232.782,328.732,236.821,332.764,236.821,337.756z"/>
			
				<path style="fill:none;stroke:#000000;stroke-width:2.1568;stroke-linecap:round;stroke-linejoin:round;stroke-miterlimit:10;" d="
				M284.548,337.756c0,4.984-4.041,9.027-9.025,9.027c-4.988,0-9.02-4.043-9.02-9.027c0-4.992,4.031-9.023,9.02-9.023
				C280.507,328.732,284.548,332.764,284.548,337.756z"/>
			
				<rect x="259.263" y="321.486" style="fill:none;stroke:#000000;stroke-width:2.1568;stroke-linecap:round;stroke-linejoin:round;stroke-miterlimit:10;" width="32.525" height="32.52"/>
		</g>
	</g>
	<g>
		
			<path style="fill:#FFFFFF;stroke:#000000;stroke-width:2.1568;stroke-linecap:round;stroke-linejoin:round;stroke-miterlimit:10;" d="
			M569.14,337.748c0,33.773-27.371,61.141-61.139,61.141c-33.766,0-61.139-27.367-61.139-61.141
			c0-33.762,27.373-61.133,61.139-61.133C541.769,276.615,569.14,303.986,569.14,337.748z"/>
		<g>
			
				<path style="fill:none;stroke:#000000;stroke-width:2.1568;stroke-linecap:round;stroke-linejoin:round;stroke-miterlimit:10;" d="
				M500.399,337.756c0,8.969-7.287,16.25-16.266,16.25s-16.256-7.281-16.256-16.25c0-8.984,7.277-16.27,16.256-16.27
				S500.399,328.771,500.399,337.756z"/>
			
				<path style="fill:none;stroke:#000000;stroke-width:2.1568;stroke-linecap:round;stroke-linejoin:round;stroke-miterlimit:10;" d="
				M493.155,337.756c0,4.984-4.037,9.027-9.021,9.027s-9.025-4.043-9.025-9.027c0-4.992,4.041-9.023,9.025-9.023
				S493.155,332.764,493.155,337.756z"/>
			
				<path style="fill:none;stroke:#000000;stroke-width:2.1568;stroke-linecap:round;stroke-linejoin:round;stroke-miterlimit:10;" d="
				M540.882,337.756c0,4.984-4.041,9.027-9.025,9.027c-4.988,0-9.02-4.043-9.02-9.027c0-4.992,4.031-9.023,9.02-9.023
				C536.841,328.732,540.882,332.764,540.882,337.756z"/>
			
				<rect x="515.597" y="321.486" style="fill:none;stroke:#000000;stroke-width:2.1568;stroke-linecap:round;stroke-linejoin:round;stroke-miterlimit:10;" width="32.525" height="32.52"/>
		</g>
	</g>
</g>
</svg>
