G04 #@! TF.FileFunction,Copper,L1,Top,Signal*
%FSLAX46Y46*%
G04 Gerber Fmt 4.6, Leading zero omitted, Abs format (unit mm)*
G04 Created by KiCad (PCBNEW 4.0.7) date 06/15/19 08:14:29*
%MOMM*%
%LPD*%
G01*
G04 APERTURE LIST*
%ADD10C,0.100000*%
%ADD11R,1.700000X1.700000*%
%ADD12O,1.700000X1.700000*%
%ADD13C,1.400000*%
%ADD14O,1.400000X1.400000*%
%ADD15C,1.750000*%
%ADD16R,1.750000X1.750000*%
%ADD17C,1.778000*%
%ADD18R,1.600000X1.600000*%
%ADD19O,1.600000X1.600000*%
%ADD20C,1.600000*%
%ADD21C,1.700000*%
%ADD22R,1.800000X1.800000*%
%ADD23C,1.800000*%
%ADD24R,0.850000X0.850000*%
%ADD25C,0.850000*%
%ADD26O,0.900000X1.500000*%
%ADD27R,0.900000X1.500000*%
%ADD28R,1.350000X1.350000*%
%ADD29C,1.520000*%
%ADD30R,1.520000X1.520000*%
%ADD31C,0.600000*%
%ADD32C,0.304800*%
%ADD33C,0.406400*%
%ADD34C,0.609600*%
G04 APERTURE END LIST*
D10*
D11*
X202498000Y-97865000D03*
D12*
X199958000Y-97865000D03*
X197418000Y-97865000D03*
X194878000Y-97865000D03*
X192338000Y-97865000D03*
X189798000Y-97865000D03*
D13*
X169505000Y-112395000D03*
D14*
X164425000Y-112395000D03*
D15*
X156578000Y-107365000D03*
X154038000Y-107365000D03*
D16*
X151498000Y-107365000D03*
D17*
X139192000Y-95631000D03*
X139192000Y-90551000D03*
D18*
X179998000Y-92365000D03*
D19*
X146978000Y-99985000D03*
X177458000Y-92365000D03*
X149518000Y-99985000D03*
X174918000Y-92365000D03*
X152058000Y-99985000D03*
X172378000Y-92365000D03*
X154598000Y-99985000D03*
X169838000Y-92365000D03*
X157138000Y-99985000D03*
X167298000Y-92365000D03*
X159678000Y-99985000D03*
X164758000Y-92365000D03*
X162218000Y-99985000D03*
X162218000Y-92365000D03*
X164758000Y-99985000D03*
X159678000Y-92365000D03*
X167298000Y-99985000D03*
X157138000Y-92365000D03*
X169838000Y-99985000D03*
X154598000Y-92365000D03*
X172378000Y-99985000D03*
X152058000Y-92365000D03*
X174918000Y-99985000D03*
X149518000Y-92365000D03*
X177458000Y-99985000D03*
X146978000Y-92365000D03*
X179998000Y-99985000D03*
D20*
X161248000Y-116365000D03*
X152998000Y-116365000D03*
D21*
X156998000Y-89365000D03*
X159498000Y-89365000D03*
X161998000Y-89365000D03*
D20*
X150998000Y-103365000D03*
X153498000Y-103365000D03*
X144998000Y-109365000D03*
X147498000Y-109365000D03*
D22*
X208998000Y-95365000D03*
D23*
X206458000Y-95365000D03*
D24*
X196998000Y-108365000D03*
D25*
X195748000Y-108365000D03*
D26*
X146728000Y-104365000D03*
X145458000Y-104365000D03*
D27*
X147998000Y-104365000D03*
D24*
X205998000Y-112365000D03*
D25*
X204748000Y-112365000D03*
X203498000Y-112365000D03*
X202248000Y-112365000D03*
D20*
X166998000Y-89365000D03*
X164498000Y-89365000D03*
X163748000Y-116365000D03*
X171998000Y-116365000D03*
X209498000Y-109115000D03*
X209498000Y-100865000D03*
X186498000Y-88865000D03*
X183998000Y-88865000D03*
D13*
X181498000Y-88865000D03*
D14*
X176418000Y-88865000D03*
D15*
X169578000Y-107365000D03*
X167038000Y-107365000D03*
D16*
X164498000Y-107365000D03*
D15*
X189578000Y-107365000D03*
X187038000Y-107365000D03*
D16*
X184498000Y-107365000D03*
D13*
X169505000Y-114427000D03*
D14*
X164425000Y-114427000D03*
D24*
X161998000Y-112365000D03*
D25*
X160748000Y-112365000D03*
X159498000Y-112365000D03*
D28*
X150498000Y-112365000D03*
D24*
X140998000Y-112365000D03*
D25*
X139748000Y-112365000D03*
X138498000Y-112365000D03*
X137248000Y-112365000D03*
X135998000Y-112365000D03*
D24*
X179998000Y-112365000D03*
D25*
X178748000Y-112365000D03*
X177498000Y-112365000D03*
X176248000Y-112365000D03*
X174998000Y-112365000D03*
X173748000Y-112365000D03*
D29*
X187198000Y-102235000D03*
X189738000Y-102235000D03*
D30*
X184658000Y-102235000D03*
D13*
X177379000Y-102235000D03*
D14*
X172299000Y-102235000D03*
D11*
X174752000Y-94996000D03*
D12*
X174752000Y-97536000D03*
X177292000Y-94996000D03*
X177292000Y-97536000D03*
X179832000Y-94996000D03*
X179832000Y-97536000D03*
D31*
X179798000Y-118665000D03*
D32*
X179832000Y-94996000D02*
X179832000Y-92531000D01*
X179832000Y-92531000D02*
X179998000Y-92365000D01*
D33*
X181498000Y-88865000D02*
X183998000Y-88865000D01*
X179998000Y-92365000D02*
X181998000Y-92365000D01*
X181998000Y-92365000D02*
X183998000Y-90365000D01*
X183998000Y-90365000D02*
X183998000Y-88865000D01*
X179832000Y-97536000D02*
X185143000Y-97536000D01*
X185143000Y-97536000D02*
X185472000Y-97865000D01*
X195748000Y-108365000D02*
X195748000Y-109007000D01*
X202248000Y-111062000D02*
X202248000Y-112365000D01*
X201041000Y-109855000D02*
X202248000Y-111062000D01*
X196596000Y-109855000D02*
X201041000Y-109855000D01*
X195748000Y-109007000D02*
X196596000Y-109855000D01*
X192338000Y-97865000D02*
X192338000Y-96841000D01*
X208998000Y-96437000D02*
X208998000Y-95365000D01*
X208026000Y-97409000D02*
X208998000Y-96437000D01*
X205232000Y-97409000D02*
X208026000Y-97409000D01*
X203454000Y-95631000D02*
X205232000Y-97409000D01*
X193548000Y-95631000D02*
X203454000Y-95631000D01*
X192338000Y-96841000D02*
X193548000Y-95631000D01*
X189798000Y-97865000D02*
X192338000Y-97865000D01*
X164758000Y-101131000D02*
X164758000Y-99985000D01*
X173748000Y-112365000D02*
X173748000Y-111415000D01*
X173748000Y-111415000D02*
X172198000Y-109865000D01*
D34*
X153498000Y-103365000D02*
X161378000Y-103365000D01*
X161378000Y-103365000D02*
X164758000Y-99985000D01*
D33*
X202248000Y-112365000D02*
X202248000Y-112015000D01*
X195748000Y-108815000D02*
X195748000Y-108365000D01*
X187038000Y-107365000D02*
X187038000Y-108405000D01*
X195748000Y-108815000D02*
X195748000Y-108365000D01*
X194598000Y-109965000D02*
X195748000Y-108815000D01*
X188598000Y-109965000D02*
X194598000Y-109965000D01*
X187038000Y-108405000D02*
X188598000Y-109965000D01*
D34*
X147998000Y-104365000D02*
X148398000Y-104365000D01*
X148398000Y-104365000D02*
X149198000Y-105165000D01*
X151698000Y-105165000D02*
X153498000Y-103365000D01*
X149198000Y-105165000D02*
X151698000Y-105165000D01*
D33*
X167038000Y-107365000D02*
X167038000Y-108905000D01*
X167038000Y-108905000D02*
X167998000Y-109865000D01*
X167998000Y-109865000D02*
X172198000Y-109865000D01*
X187038000Y-108825000D02*
X187038000Y-107365000D01*
X172198000Y-109865000D02*
X185998000Y-109865000D01*
X185998000Y-109865000D02*
X187038000Y-108825000D01*
X147498000Y-109365000D02*
X151498000Y-109365000D01*
X167038000Y-108825000D02*
X167038000Y-107365000D01*
X165498000Y-110365000D02*
X167038000Y-108825000D01*
X152498000Y-110365000D02*
X165498000Y-110365000D01*
X151498000Y-109365000D02*
X152498000Y-110365000D01*
X154038000Y-107365000D02*
X154038000Y-106405000D01*
X153498000Y-105865000D02*
X153498000Y-103365000D01*
X154038000Y-106405000D02*
X153498000Y-105865000D01*
D34*
X135998000Y-112365000D02*
X135998000Y-112865000D01*
X147498000Y-110365000D02*
X147498000Y-109365000D01*
X146498000Y-111365000D02*
X147498000Y-110365000D01*
X145498000Y-111365000D02*
X146498000Y-111365000D01*
X142998000Y-113865000D02*
X145498000Y-111365000D01*
X136998000Y-113865000D02*
X142998000Y-113865000D01*
X135998000Y-112865000D02*
X136998000Y-113865000D01*
X147498000Y-109365000D02*
X147498000Y-106865000D01*
X147998000Y-106365000D02*
X147998000Y-104365000D01*
X147498000Y-106865000D02*
X147998000Y-106365000D01*
D33*
X167498000Y-102365000D02*
X167516000Y-102365000D01*
X167516000Y-102365000D02*
X169164000Y-104013000D01*
X185472000Y-97865000D02*
X189798000Y-97865000D01*
X179324000Y-104013000D02*
X185472000Y-97865000D01*
X169164000Y-104013000D02*
X179324000Y-104013000D01*
X167498000Y-102365000D02*
X165992000Y-102365000D01*
X165992000Y-102365000D02*
X164758000Y-101131000D01*
X172418000Y-100025000D02*
X172378000Y-99985000D01*
D32*
X166498000Y-118665000D02*
X164198000Y-116365000D01*
X179798000Y-118665000D02*
X166498000Y-118665000D01*
X164198000Y-116365000D02*
X163748000Y-116365000D01*
X161998000Y-112365000D02*
X164395000Y-112365000D01*
X164395000Y-112365000D02*
X164425000Y-112395000D01*
X167298000Y-92365000D02*
X167298000Y-92163000D01*
X167298000Y-92163000D02*
X168402000Y-91059000D01*
X168402000Y-91059000D02*
X168402000Y-88519000D01*
X168402000Y-88519000D02*
X167386000Y-87503000D01*
X167386000Y-87503000D02*
X155194000Y-87503000D01*
X155194000Y-87503000D02*
X153162000Y-89535000D01*
X153162000Y-89535000D02*
X140208000Y-89535000D01*
X140208000Y-89535000D02*
X139192000Y-90551000D01*
X157138000Y-99985000D02*
X157138000Y-99148000D01*
X176784000Y-96266000D02*
X177292000Y-95758000D01*
X160020000Y-96266000D02*
X176784000Y-96266000D01*
X157138000Y-99148000D02*
X160020000Y-96266000D01*
X177292000Y-95758000D02*
X177292000Y-94996000D01*
X157138000Y-99985000D02*
X157138000Y-100672000D01*
X157138000Y-100672000D02*
X156464000Y-101346000D01*
X156464000Y-101346000D02*
X144018000Y-101346000D01*
X144018000Y-101346000D02*
X143129000Y-102235000D01*
X143129000Y-102235000D02*
X143129000Y-102234000D01*
X182398000Y-121865000D02*
X200998000Y-121865000D01*
X140698000Y-121865000D02*
X182398000Y-121865000D01*
X134398000Y-115565000D02*
X140698000Y-121865000D01*
X134398000Y-110965000D02*
X134398000Y-115565000D01*
X143129000Y-102234000D02*
X134398000Y-110965000D01*
X209498000Y-113365000D02*
X209498000Y-109115000D01*
X200998000Y-121865000D02*
X209498000Y-113365000D01*
D33*
X174752000Y-94996000D02*
X158496000Y-94996000D01*
X154598000Y-98894000D02*
X154598000Y-99985000D01*
X158496000Y-94996000D02*
X154598000Y-98894000D01*
X159678000Y-99985000D02*
X159678000Y-99021000D01*
X161163000Y-97536000D02*
X174752000Y-97536000D01*
X159678000Y-99021000D02*
X161163000Y-97536000D01*
X184498000Y-107365000D02*
X184498000Y-106205000D01*
X186563000Y-105410000D02*
X189738000Y-102235000D01*
X185293000Y-105410000D02*
X186563000Y-105410000D01*
X184498000Y-106205000D02*
X185293000Y-105410000D01*
X151498000Y-107365000D02*
X151498000Y-108365000D01*
X162498000Y-109365000D02*
X164498000Y-107365000D01*
X152498000Y-109365000D02*
X162498000Y-109365000D01*
X151498000Y-108365000D02*
X152498000Y-109365000D01*
X184498000Y-107365000D02*
X184498000Y-106865000D01*
X184498000Y-106865000D02*
X182998000Y-105365000D01*
X164498000Y-106365000D02*
X164498000Y-107365000D01*
X165498000Y-105365000D02*
X164498000Y-106365000D01*
X182998000Y-105365000D02*
X165498000Y-105365000D01*
X145458000Y-104365000D02*
X145458000Y-103905000D01*
X145458000Y-103905000D02*
X147244000Y-102108000D01*
X159678000Y-101185000D02*
X159678000Y-99985000D01*
X158744000Y-102108000D02*
X159678000Y-101185000D01*
X147244000Y-102108000D02*
X158744000Y-102108000D01*
D34*
X139748000Y-112365000D02*
X139748000Y-111115000D01*
X145458000Y-105405000D02*
X145458000Y-104365000D01*
X139748000Y-111115000D02*
X145458000Y-105405000D01*
D33*
X161998000Y-89365000D02*
X161998000Y-90045000D01*
X161998000Y-90045000D02*
X159678000Y-92365000D01*
X156998000Y-89365000D02*
X156998000Y-92225000D01*
X156998000Y-92225000D02*
X157138000Y-92365000D01*
X177292000Y-97536000D02*
X177419000Y-97536000D01*
X177419000Y-97536000D02*
X178562000Y-96393000D01*
X178562000Y-96393000D02*
X178562000Y-94234000D01*
X178562000Y-94234000D02*
X178054000Y-93726000D01*
X178054000Y-93726000D02*
X156210000Y-93726000D01*
X156210000Y-93726000D02*
X152058000Y-97878000D01*
X152058000Y-97878000D02*
X152058000Y-99985000D01*
X146728000Y-104365000D02*
X146728000Y-103635000D01*
X146728000Y-103635000D02*
X147498000Y-102865000D01*
X147498000Y-102865000D02*
X150498000Y-102865000D01*
X150498000Y-102865000D02*
X150998000Y-103365000D01*
D34*
X140998000Y-112365000D02*
X140998000Y-111365000D01*
X146728000Y-105635000D02*
X146728000Y-104365000D01*
X140998000Y-111365000D02*
X146728000Y-105635000D01*
D32*
X164425000Y-114427000D02*
X161671000Y-114427000D01*
X160748000Y-113504000D02*
X160748000Y-112365000D01*
X161671000Y-114427000D02*
X160748000Y-113504000D01*
D33*
X203498000Y-112365000D02*
X203498000Y-117558000D01*
X178627000Y-114365000D02*
X169505000Y-114427000D01*
X185166000Y-120904000D02*
X178627000Y-114365000D01*
X200152000Y-120904000D02*
X185166000Y-120904000D01*
X203498000Y-117558000D02*
X200152000Y-120904000D01*
X184658000Y-102235000D02*
X184658000Y-101727000D01*
X184658000Y-101727000D02*
X186055000Y-100330000D01*
X186055000Y-100330000D02*
X196977000Y-100330000D01*
X196977000Y-100330000D02*
X203498000Y-106851000D01*
X203498000Y-106851000D02*
X203498000Y-112365000D01*
D32*
X169505000Y-114427000D02*
X169505000Y-112395000D01*
M02*
