%TF.GenerationSoftware,KiCad,Pcbnew,(5.1.10)-1*%
%TF.CreationDate,2022-04-30T13:51:09-07:00*%
%TF.ProjectId,project,70726f6a-6563-4742-9e6b-696361645f70,0.0*%
%TF.SameCoordinates,Original*%
%TF.FileFunction,Copper,L1,Top*%
%TF.FilePolarity,Positive*%
%FSLAX46Y46*%
G04 Gerber Fmt 4.6, Leading zero omitted, Abs format (unit mm)*
G04 Created by KiCad (PCBNEW (5.1.10)-1) date 2022-04-30 13:51:09*
%MOMM*%
%LPD*%
G01*
G04 APERTURE LIST*
%TA.AperFunction,SMDPad,CuDef*%
%ADD10R,0.900000X0.700000*%
%TD*%
%TA.AperFunction,ComponentPad*%
%ADD11C,5.000000*%
%TD*%
%TA.AperFunction,ComponentPad*%
%ADD12C,1.450000*%
%TD*%
%TA.AperFunction,ComponentPad*%
%ADD13O,1.900000X1.200000*%
%TD*%
%TA.AperFunction,SMDPad,CuDef*%
%ADD14C,0.100000*%
%TD*%
%TA.AperFunction,SMDPad,CuDef*%
%ADD15R,1.700000X1.700000*%
%TD*%
%TA.AperFunction,SMDPad,CuDef*%
%ADD16R,1.000000X1.250000*%
%TD*%
%TA.AperFunction,SMDPad,CuDef*%
%ADD17R,0.800000X0.750000*%
%TD*%
%TA.AperFunction,ComponentPad*%
%ADD18O,1.350000X1.350000*%
%TD*%
%TA.AperFunction,ComponentPad*%
%ADD19R,1.350000X1.350000*%
%TD*%
%TA.AperFunction,ViaPad*%
%ADD20C,0.600000*%
%TD*%
%TA.AperFunction,Conductor*%
%ADD21C,0.200000*%
%TD*%
%TA.AperFunction,Conductor*%
%ADD22C,0.254000*%
%TD*%
%TA.AperFunction,Conductor*%
%ADD23C,0.304800*%
%TD*%
%TA.AperFunction,Conductor*%
%ADD24C,0.100000*%
%TD*%
G04 APERTURE END LIST*
%TO.P,D5,2*%
%TO.N,Net-(D5-Pad2)*%
%TA.AperFunction,SMDPad,CuDef*%
G36*
G01*
X190084000Y-71046500D02*
X190084000Y-71391500D01*
G75*
G02*
X189936500Y-71539000I-147500J0D01*
G01*
X189641500Y-71539000D01*
G75*
G02*
X189494000Y-71391500I0J147500D01*
G01*
X189494000Y-71046500D01*
G75*
G02*
X189641500Y-70899000I147500J0D01*
G01*
X189936500Y-70899000D01*
G75*
G02*
X190084000Y-71046500I0J-147500D01*
G01*
G37*
%TD.AperFunction*%
%TO.P,D5,1*%
%TO.N,GND*%
%TA.AperFunction,SMDPad,CuDef*%
G36*
G01*
X191054000Y-71046500D02*
X191054000Y-71391500D01*
G75*
G02*
X190906500Y-71539000I-147500J0D01*
G01*
X190611500Y-71539000D01*
G75*
G02*
X190464000Y-71391500I0J147500D01*
G01*
X190464000Y-71046500D01*
G75*
G02*
X190611500Y-70899000I147500J0D01*
G01*
X190906500Y-70899000D01*
G75*
G02*
X191054000Y-71046500I0J-147500D01*
G01*
G37*
%TD.AperFunction*%
%TD*%
D10*
%TO.P,D1,3*%
%TO.N,GND*%
X182509000Y-72669000D03*
%TO.P,D1,4*%
%TO.N,/D8*%
X182509000Y-73769000D03*
%TO.P,D1,2*%
%TO.N,N/C*%
X184574000Y-72669000D03*
%TO.P,D1,1*%
%TO.N,VCC*%
X184574000Y-73769000D03*
%TD*%
D11*
%TO.P,J4,1*%
%TO.N,N/C*%
X148274000Y-61219000D03*
%TD*%
D12*
%TO.P,J1,6*%
%TO.N,GND*%
X108624000Y-107719000D03*
X108624000Y-102719000D03*
D13*
X105924000Y-108719000D03*
X105924000Y-101719000D03*
%TD*%
%TA.AperFunction,SMDPad,CuDef*%
D14*
%TO.P,U1,1*%
%TO.N,/D15*%
G36*
X181574961Y-94809956D02*
G01*
X181577806Y-94800577D01*
X181582427Y-94791932D01*
X181588645Y-94784356D01*
X181639356Y-94733645D01*
X181646932Y-94727427D01*
X181655577Y-94722806D01*
X181664956Y-94719961D01*
X181674711Y-94719000D01*
X181724000Y-94719000D01*
X181733755Y-94719961D01*
X181743134Y-94722806D01*
X181751779Y-94727427D01*
X181759355Y-94733645D01*
X181765573Y-94741221D01*
X181770194Y-94749866D01*
X181773039Y-94759245D01*
X181774000Y-94769000D01*
X181774000Y-95469000D01*
X181773039Y-95478755D01*
X181770194Y-95488134D01*
X181765573Y-95496779D01*
X181759355Y-95504355D01*
X181751779Y-95510573D01*
X181743134Y-95515194D01*
X181733755Y-95518039D01*
X181724000Y-95519000D01*
X181624000Y-95519000D01*
X181614245Y-95518039D01*
X181604866Y-95515194D01*
X181596221Y-95510573D01*
X181588645Y-95504355D01*
X181582427Y-95496779D01*
X181577806Y-95488134D01*
X181574961Y-95478755D01*
X181574000Y-95469000D01*
X181574000Y-94819711D01*
X181574961Y-94809956D01*
G37*
%TD.AperFunction*%
%TO.P,U1,2*%
%TO.N,/D16*%
%TA.AperFunction,SMDPad,CuDef*%
G36*
G01*
X182124000Y-95519000D02*
X182024000Y-95519000D01*
G75*
G02*
X181974000Y-95469000I0J50000D01*
G01*
X181974000Y-94769000D01*
G75*
G02*
X182024000Y-94719000I50000J0D01*
G01*
X182124000Y-94719000D01*
G75*
G02*
X182174000Y-94769000I0J-50000D01*
G01*
X182174000Y-95469000D01*
G75*
G02*
X182124000Y-95519000I-50000J0D01*
G01*
G37*
%TD.AperFunction*%
%TO.P,U1,3*%
%TO.N,GND*%
%TA.AperFunction,SMDPad,CuDef*%
G36*
G01*
X182524000Y-95519000D02*
X182424000Y-95519000D01*
G75*
G02*
X182374000Y-95469000I0J50000D01*
G01*
X182374000Y-94769000D01*
G75*
G02*
X182424000Y-94719000I50000J0D01*
G01*
X182524000Y-94719000D01*
G75*
G02*
X182574000Y-94769000I0J-50000D01*
G01*
X182574000Y-95469000D01*
G75*
G02*
X182524000Y-95519000I-50000J0D01*
G01*
G37*
%TD.AperFunction*%
%TO.P,U1,4*%
%TO.N,VCC*%
%TA.AperFunction,SMDPad,CuDef*%
G36*
G01*
X182924000Y-95519000D02*
X182824000Y-95519000D01*
G75*
G02*
X182774000Y-95469000I0J50000D01*
G01*
X182774000Y-94769000D01*
G75*
G02*
X182824000Y-94719000I50000J0D01*
G01*
X182924000Y-94719000D01*
G75*
G02*
X182974000Y-94769000I0J-50000D01*
G01*
X182974000Y-95469000D01*
G75*
G02*
X182924000Y-95519000I-50000J0D01*
G01*
G37*
%TD.AperFunction*%
%TA.AperFunction,SMDPad,CuDef*%
%TO.P,U1,5*%
%TO.N,/D0*%
G36*
X183174961Y-94759245D02*
G01*
X183177806Y-94749866D01*
X183182427Y-94741221D01*
X183188645Y-94733645D01*
X183196221Y-94727427D01*
X183204866Y-94722806D01*
X183214245Y-94719961D01*
X183224000Y-94719000D01*
X183273289Y-94719000D01*
X183283044Y-94719961D01*
X183292423Y-94722806D01*
X183301068Y-94727427D01*
X183308644Y-94733645D01*
X183359355Y-94784356D01*
X183365573Y-94791932D01*
X183370194Y-94800577D01*
X183373039Y-94809956D01*
X183374000Y-94819711D01*
X183374000Y-95469000D01*
X183373039Y-95478755D01*
X183370194Y-95488134D01*
X183365573Y-95496779D01*
X183359355Y-95504355D01*
X183351779Y-95510573D01*
X183343134Y-95515194D01*
X183333755Y-95518039D01*
X183324000Y-95519000D01*
X183224000Y-95519000D01*
X183214245Y-95518039D01*
X183204866Y-95515194D01*
X183196221Y-95510573D01*
X183188645Y-95504355D01*
X183182427Y-95496779D01*
X183177806Y-95488134D01*
X183174961Y-95478755D01*
X183174000Y-95469000D01*
X183174000Y-94769000D01*
X183174961Y-94759245D01*
G37*
%TD.AperFunction*%
%TA.AperFunction,SMDPad,CuDef*%
%TO.P,U1,6*%
%TO.N,N/C*%
G36*
X183524961Y-94409245D02*
G01*
X183527806Y-94399866D01*
X183532427Y-94391221D01*
X183538645Y-94383645D01*
X183546221Y-94377427D01*
X183554866Y-94372806D01*
X183564245Y-94369961D01*
X183574000Y-94369000D01*
X184274000Y-94369000D01*
X184283755Y-94369961D01*
X184293134Y-94372806D01*
X184301779Y-94377427D01*
X184309355Y-94383645D01*
X184315573Y-94391221D01*
X184320194Y-94399866D01*
X184323039Y-94409245D01*
X184324000Y-94419000D01*
X184324000Y-94519000D01*
X184323039Y-94528755D01*
X184320194Y-94538134D01*
X184315573Y-94546779D01*
X184309355Y-94554355D01*
X184301779Y-94560573D01*
X184293134Y-94565194D01*
X184283755Y-94568039D01*
X184274000Y-94569000D01*
X183624711Y-94569000D01*
X183614956Y-94568039D01*
X183605577Y-94565194D01*
X183596932Y-94560573D01*
X183589356Y-94554355D01*
X183538645Y-94503644D01*
X183532427Y-94496068D01*
X183527806Y-94487423D01*
X183524961Y-94478044D01*
X183524000Y-94468289D01*
X183524000Y-94419000D01*
X183524961Y-94409245D01*
G37*
%TD.AperFunction*%
%TO.P,U1,7*%
%TA.AperFunction,SMDPad,CuDef*%
G36*
G01*
X184274000Y-94169000D02*
X183574000Y-94169000D01*
G75*
G02*
X183524000Y-94119000I0J50000D01*
G01*
X183524000Y-94019000D01*
G75*
G02*
X183574000Y-93969000I50000J0D01*
G01*
X184274000Y-93969000D01*
G75*
G02*
X184324000Y-94019000I0J-50000D01*
G01*
X184324000Y-94119000D01*
G75*
G02*
X184274000Y-94169000I-50000J0D01*
G01*
G37*
%TD.AperFunction*%
%TO.P,U1,8*%
%TA.AperFunction,SMDPad,CuDef*%
G36*
G01*
X184274000Y-93769000D02*
X183574000Y-93769000D01*
G75*
G02*
X183524000Y-93719000I0J50000D01*
G01*
X183524000Y-93619000D01*
G75*
G02*
X183574000Y-93569000I50000J0D01*
G01*
X184274000Y-93569000D01*
G75*
G02*
X184324000Y-93619000I0J-50000D01*
G01*
X184324000Y-93719000D01*
G75*
G02*
X184274000Y-93769000I-50000J0D01*
G01*
G37*
%TD.AperFunction*%
%TO.P,U1,9*%
%TO.N,/D4*%
%TA.AperFunction,SMDPad,CuDef*%
G36*
G01*
X184274000Y-93369000D02*
X183574000Y-93369000D01*
G75*
G02*
X183524000Y-93319000I0J50000D01*
G01*
X183524000Y-93219000D01*
G75*
G02*
X183574000Y-93169000I50000J0D01*
G01*
X184274000Y-93169000D01*
G75*
G02*
X184324000Y-93219000I0J-50000D01*
G01*
X184324000Y-93319000D01*
G75*
G02*
X184274000Y-93369000I-50000J0D01*
G01*
G37*
%TD.AperFunction*%
%TA.AperFunction,SMDPad,CuDef*%
%TO.P,U1,10*%
%TO.N,/D5*%
G36*
X183524961Y-92859956D02*
G01*
X183527806Y-92850577D01*
X183532427Y-92841932D01*
X183538645Y-92834356D01*
X183589356Y-92783645D01*
X183596932Y-92777427D01*
X183605577Y-92772806D01*
X183614956Y-92769961D01*
X183624711Y-92769000D01*
X184274000Y-92769000D01*
X184283755Y-92769961D01*
X184293134Y-92772806D01*
X184301779Y-92777427D01*
X184309355Y-92783645D01*
X184315573Y-92791221D01*
X184320194Y-92799866D01*
X184323039Y-92809245D01*
X184324000Y-92819000D01*
X184324000Y-92919000D01*
X184323039Y-92928755D01*
X184320194Y-92938134D01*
X184315573Y-92946779D01*
X184309355Y-92954355D01*
X184301779Y-92960573D01*
X184293134Y-92965194D01*
X184283755Y-92968039D01*
X184274000Y-92969000D01*
X183574000Y-92969000D01*
X183564245Y-92968039D01*
X183554866Y-92965194D01*
X183546221Y-92960573D01*
X183538645Y-92954355D01*
X183532427Y-92946779D01*
X183527806Y-92938134D01*
X183524961Y-92928755D01*
X183524000Y-92919000D01*
X183524000Y-92869711D01*
X183524961Y-92859956D01*
G37*
%TD.AperFunction*%
%TA.AperFunction,SMDPad,CuDef*%
%TO.P,U1,11*%
%TO.N,/D6*%
G36*
X183174961Y-91859245D02*
G01*
X183177806Y-91849866D01*
X183182427Y-91841221D01*
X183188645Y-91833645D01*
X183196221Y-91827427D01*
X183204866Y-91822806D01*
X183214245Y-91819961D01*
X183224000Y-91819000D01*
X183324000Y-91819000D01*
X183333755Y-91819961D01*
X183343134Y-91822806D01*
X183351779Y-91827427D01*
X183359355Y-91833645D01*
X183365573Y-91841221D01*
X183370194Y-91849866D01*
X183373039Y-91859245D01*
X183374000Y-91869000D01*
X183374000Y-92518289D01*
X183373039Y-92528044D01*
X183370194Y-92537423D01*
X183365573Y-92546068D01*
X183359355Y-92553644D01*
X183308644Y-92604355D01*
X183301068Y-92610573D01*
X183292423Y-92615194D01*
X183283044Y-92618039D01*
X183273289Y-92619000D01*
X183224000Y-92619000D01*
X183214245Y-92618039D01*
X183204866Y-92615194D01*
X183196221Y-92610573D01*
X183188645Y-92604355D01*
X183182427Y-92596779D01*
X183177806Y-92588134D01*
X183174961Y-92578755D01*
X183174000Y-92569000D01*
X183174000Y-91869000D01*
X183174961Y-91859245D01*
G37*
%TD.AperFunction*%
%TO.P,U1,12*%
%TO.N,/D7*%
%TA.AperFunction,SMDPad,CuDef*%
G36*
G01*
X182924000Y-92619000D02*
X182824000Y-92619000D01*
G75*
G02*
X182774000Y-92569000I0J50000D01*
G01*
X182774000Y-91869000D01*
G75*
G02*
X182824000Y-91819000I50000J0D01*
G01*
X182924000Y-91819000D01*
G75*
G02*
X182974000Y-91869000I0J-50000D01*
G01*
X182974000Y-92569000D01*
G75*
G02*
X182924000Y-92619000I-50000J0D01*
G01*
G37*
%TD.AperFunction*%
%TO.P,U1,13*%
%TO.N,/D8*%
%TA.AperFunction,SMDPad,CuDef*%
G36*
G01*
X182524000Y-92619000D02*
X182424000Y-92619000D01*
G75*
G02*
X182374000Y-92569000I0J50000D01*
G01*
X182374000Y-91869000D01*
G75*
G02*
X182424000Y-91819000I50000J0D01*
G01*
X182524000Y-91819000D01*
G75*
G02*
X182574000Y-91869000I0J-50000D01*
G01*
X182574000Y-92569000D01*
G75*
G02*
X182524000Y-92619000I-50000J0D01*
G01*
G37*
%TD.AperFunction*%
%TO.P,U1,14*%
%TO.N,/D9*%
%TA.AperFunction,SMDPad,CuDef*%
G36*
G01*
X182124000Y-92619000D02*
X182024000Y-92619000D01*
G75*
G02*
X181974000Y-92569000I0J50000D01*
G01*
X181974000Y-91869000D01*
G75*
G02*
X182024000Y-91819000I50000J0D01*
G01*
X182124000Y-91819000D01*
G75*
G02*
X182174000Y-91869000I0J-50000D01*
G01*
X182174000Y-92569000D01*
G75*
G02*
X182124000Y-92619000I-50000J0D01*
G01*
G37*
%TD.AperFunction*%
%TA.AperFunction,SMDPad,CuDef*%
%TO.P,U1,15*%
%TO.N,/D10*%
G36*
X181574961Y-91859245D02*
G01*
X181577806Y-91849866D01*
X181582427Y-91841221D01*
X181588645Y-91833645D01*
X181596221Y-91827427D01*
X181604866Y-91822806D01*
X181614245Y-91819961D01*
X181624000Y-91819000D01*
X181724000Y-91819000D01*
X181733755Y-91819961D01*
X181743134Y-91822806D01*
X181751779Y-91827427D01*
X181759355Y-91833645D01*
X181765573Y-91841221D01*
X181770194Y-91849866D01*
X181773039Y-91859245D01*
X181774000Y-91869000D01*
X181774000Y-92569000D01*
X181773039Y-92578755D01*
X181770194Y-92588134D01*
X181765573Y-92596779D01*
X181759355Y-92604355D01*
X181751779Y-92610573D01*
X181743134Y-92615194D01*
X181733755Y-92618039D01*
X181724000Y-92619000D01*
X181674711Y-92619000D01*
X181664956Y-92618039D01*
X181655577Y-92615194D01*
X181646932Y-92610573D01*
X181639356Y-92604355D01*
X181588645Y-92553644D01*
X181582427Y-92546068D01*
X181577806Y-92537423D01*
X181574961Y-92528044D01*
X181574000Y-92518289D01*
X181574000Y-91869000D01*
X181574961Y-91859245D01*
G37*
%TD.AperFunction*%
%TA.AperFunction,SMDPad,CuDef*%
%TO.P,U1,16*%
%TO.N,/D11*%
G36*
X180624961Y-92809245D02*
G01*
X180627806Y-92799866D01*
X180632427Y-92791221D01*
X180638645Y-92783645D01*
X180646221Y-92777427D01*
X180654866Y-92772806D01*
X180664245Y-92769961D01*
X180674000Y-92769000D01*
X181323289Y-92769000D01*
X181333044Y-92769961D01*
X181342423Y-92772806D01*
X181351068Y-92777427D01*
X181358644Y-92783645D01*
X181409355Y-92834356D01*
X181415573Y-92841932D01*
X181420194Y-92850577D01*
X181423039Y-92859956D01*
X181424000Y-92869711D01*
X181424000Y-92919000D01*
X181423039Y-92928755D01*
X181420194Y-92938134D01*
X181415573Y-92946779D01*
X181409355Y-92954355D01*
X181401779Y-92960573D01*
X181393134Y-92965194D01*
X181383755Y-92968039D01*
X181374000Y-92969000D01*
X180674000Y-92969000D01*
X180664245Y-92968039D01*
X180654866Y-92965194D01*
X180646221Y-92960573D01*
X180638645Y-92954355D01*
X180632427Y-92946779D01*
X180627806Y-92938134D01*
X180624961Y-92928755D01*
X180624000Y-92919000D01*
X180624000Y-92819000D01*
X180624961Y-92809245D01*
G37*
%TD.AperFunction*%
%TO.P,U1,17*%
%TO.N,/D12*%
%TA.AperFunction,SMDPad,CuDef*%
G36*
G01*
X181374000Y-93369000D02*
X180674000Y-93369000D01*
G75*
G02*
X180624000Y-93319000I0J50000D01*
G01*
X180624000Y-93219000D01*
G75*
G02*
X180674000Y-93169000I50000J0D01*
G01*
X181374000Y-93169000D01*
G75*
G02*
X181424000Y-93219000I0J-50000D01*
G01*
X181424000Y-93319000D01*
G75*
G02*
X181374000Y-93369000I-50000J0D01*
G01*
G37*
%TD.AperFunction*%
%TO.P,U1,18*%
%TO.N,/D13*%
%TA.AperFunction,SMDPad,CuDef*%
G36*
G01*
X181374000Y-93769000D02*
X180674000Y-93769000D01*
G75*
G02*
X180624000Y-93719000I0J50000D01*
G01*
X180624000Y-93619000D01*
G75*
G02*
X180674000Y-93569000I50000J0D01*
G01*
X181374000Y-93569000D01*
G75*
G02*
X181424000Y-93619000I0J-50000D01*
G01*
X181424000Y-93719000D01*
G75*
G02*
X181374000Y-93769000I-50000J0D01*
G01*
G37*
%TD.AperFunction*%
%TO.P,U1,19*%
%TO.N,/UPDI*%
%TA.AperFunction,SMDPad,CuDef*%
G36*
G01*
X181374000Y-94169000D02*
X180674000Y-94169000D01*
G75*
G02*
X180624000Y-94119000I0J50000D01*
G01*
X180624000Y-94019000D01*
G75*
G02*
X180674000Y-93969000I50000J0D01*
G01*
X181374000Y-93969000D01*
G75*
G02*
X181424000Y-94019000I0J-50000D01*
G01*
X181424000Y-94119000D01*
G75*
G02*
X181374000Y-94169000I-50000J0D01*
G01*
G37*
%TD.AperFunction*%
%TA.AperFunction,SMDPad,CuDef*%
%TO.P,U1,20*%
%TO.N,/D14*%
G36*
X180624961Y-94409245D02*
G01*
X180627806Y-94399866D01*
X180632427Y-94391221D01*
X180638645Y-94383645D01*
X180646221Y-94377427D01*
X180654866Y-94372806D01*
X180664245Y-94369961D01*
X180674000Y-94369000D01*
X181374000Y-94369000D01*
X181383755Y-94369961D01*
X181393134Y-94372806D01*
X181401779Y-94377427D01*
X181409355Y-94383645D01*
X181415573Y-94391221D01*
X181420194Y-94399866D01*
X181423039Y-94409245D01*
X181424000Y-94419000D01*
X181424000Y-94468289D01*
X181423039Y-94478044D01*
X181420194Y-94487423D01*
X181415573Y-94496068D01*
X181409355Y-94503644D01*
X181358644Y-94554355D01*
X181351068Y-94560573D01*
X181342423Y-94565194D01*
X181333044Y-94568039D01*
X181323289Y-94569000D01*
X180674000Y-94569000D01*
X180664245Y-94568039D01*
X180654866Y-94565194D01*
X180646221Y-94560573D01*
X180638645Y-94554355D01*
X180632427Y-94546779D01*
X180627806Y-94538134D01*
X180624961Y-94528755D01*
X180624000Y-94519000D01*
X180624000Y-94419000D01*
X180624961Y-94409245D01*
G37*
%TD.AperFunction*%
D15*
%TO.P,U1,21*%
%TO.N,GND*%
X182474000Y-93669000D03*
%TD*%
D16*
%TO.P,C1,1*%
%TO.N,VCC*%
X183774000Y-102719000D03*
%TO.P,C1,2*%
%TO.N,GND*%
X181774000Y-102719000D03*
%TD*%
D17*
%TO.P,C2,2*%
%TO.N,GND*%
X182274000Y-100719000D03*
%TO.P,C2,1*%
%TO.N,VCC*%
X183774000Y-100719000D03*
%TD*%
D18*
%TO.P,J3,4*%
%TO.N,GND*%
X191274000Y-89219000D03*
%TO.P,J3,3*%
%TO.N,Net-(J3-Pad3)*%
X191274000Y-91219000D03*
D19*
%TO.P,J3,1*%
%TO.N,VCC*%
X191274000Y-95219000D03*
%TD*%
%TO.P,D4,1*%
%TO.N,GND*%
%TA.AperFunction,SMDPad,CuDef*%
G36*
G01*
X189539000Y-82046500D02*
X189539000Y-82391500D01*
G75*
G02*
X189391500Y-82539000I-147500J0D01*
G01*
X189096500Y-82539000D01*
G75*
G02*
X188949000Y-82391500I0J147500D01*
G01*
X188949000Y-82046500D01*
G75*
G02*
X189096500Y-81899000I147500J0D01*
G01*
X189391500Y-81899000D01*
G75*
G02*
X189539000Y-82046500I0J-147500D01*
G01*
G37*
%TD.AperFunction*%
%TO.P,D4,2*%
%TO.N,Net-(D4-Pad2)*%
%TA.AperFunction,SMDPad,CuDef*%
G36*
G01*
X188569000Y-82046500D02*
X188569000Y-82391500D01*
G75*
G02*
X188421500Y-82539000I-147500J0D01*
G01*
X188126500Y-82539000D01*
G75*
G02*
X187979000Y-82391500I0J147500D01*
G01*
X187979000Y-82046500D01*
G75*
G02*
X188126500Y-81899000I147500J0D01*
G01*
X188421500Y-81899000D01*
G75*
G02*
X188569000Y-82046500I0J-147500D01*
G01*
G37*
%TD.AperFunction*%
%TD*%
%TO.P,D6,1*%
%TO.N,GND*%
%TA.AperFunction,SMDPad,CuDef*%
G36*
G01*
X189446500Y-64999000D02*
X189101500Y-64999000D01*
G75*
G02*
X188954000Y-64851500I0J147500D01*
G01*
X188954000Y-64556500D01*
G75*
G02*
X189101500Y-64409000I147500J0D01*
G01*
X189446500Y-64409000D01*
G75*
G02*
X189594000Y-64556500I0J-147500D01*
G01*
X189594000Y-64851500D01*
G75*
G02*
X189446500Y-64999000I-147500J0D01*
G01*
G37*
%TD.AperFunction*%
%TO.P,D6,2*%
%TO.N,Net-(D6-Pad2)*%
%TA.AperFunction,SMDPad,CuDef*%
G36*
G01*
X189446500Y-64029000D02*
X189101500Y-64029000D01*
G75*
G02*
X188954000Y-63881500I0J147500D01*
G01*
X188954000Y-63586500D01*
G75*
G02*
X189101500Y-63439000I147500J0D01*
G01*
X189446500Y-63439000D01*
G75*
G02*
X189594000Y-63586500I0J-147500D01*
G01*
X189594000Y-63881500D01*
G75*
G02*
X189446500Y-64029000I-147500J0D01*
G01*
G37*
%TD.AperFunction*%
%TD*%
%TO.P,D7,2*%
%TO.N,Net-(D7-Pad2)*%
%TA.AperFunction,SMDPad,CuDef*%
G36*
G01*
X180446500Y-61029000D02*
X180101500Y-61029000D01*
G75*
G02*
X179954000Y-60881500I0J147500D01*
G01*
X179954000Y-60586500D01*
G75*
G02*
X180101500Y-60439000I147500J0D01*
G01*
X180446500Y-60439000D01*
G75*
G02*
X180594000Y-60586500I0J-147500D01*
G01*
X180594000Y-60881500D01*
G75*
G02*
X180446500Y-61029000I-147500J0D01*
G01*
G37*
%TD.AperFunction*%
%TO.P,D7,1*%
%TO.N,GND*%
%TA.AperFunction,SMDPad,CuDef*%
G36*
G01*
X180446500Y-61999000D02*
X180101500Y-61999000D01*
G75*
G02*
X179954000Y-61851500I0J147500D01*
G01*
X179954000Y-61556500D01*
G75*
G02*
X180101500Y-61409000I147500J0D01*
G01*
X180446500Y-61409000D01*
G75*
G02*
X180594000Y-61556500I0J-147500D01*
G01*
X180594000Y-61851500D01*
G75*
G02*
X180446500Y-61999000I-147500J0D01*
G01*
G37*
%TD.AperFunction*%
%TD*%
%TO.P,D9,2*%
%TO.N,Net-(D9-Pad2)*%
%TA.AperFunction,SMDPad,CuDef*%
G36*
G01*
X175084000Y-71046500D02*
X175084000Y-71391500D01*
G75*
G02*
X174936500Y-71539000I-147500J0D01*
G01*
X174641500Y-71539000D01*
G75*
G02*
X174494000Y-71391500I0J147500D01*
G01*
X174494000Y-71046500D01*
G75*
G02*
X174641500Y-70899000I147500J0D01*
G01*
X174936500Y-70899000D01*
G75*
G02*
X175084000Y-71046500I0J-147500D01*
G01*
G37*
%TD.AperFunction*%
%TO.P,D9,1*%
%TO.N,GND*%
%TA.AperFunction,SMDPad,CuDef*%
G36*
G01*
X176054000Y-71046500D02*
X176054000Y-71391500D01*
G75*
G02*
X175906500Y-71539000I-147500J0D01*
G01*
X175611500Y-71539000D01*
G75*
G02*
X175464000Y-71391500I0J147500D01*
G01*
X175464000Y-71046500D01*
G75*
G02*
X175611500Y-70899000I147500J0D01*
G01*
X175906500Y-70899000D01*
G75*
G02*
X176054000Y-71046500I0J-147500D01*
G01*
G37*
%TD.AperFunction*%
%TD*%
%TO.P,D10,1*%
%TO.N,GND*%
%TA.AperFunction,SMDPad,CuDef*%
G36*
G01*
X178054000Y-85046500D02*
X178054000Y-85391500D01*
G75*
G02*
X177906500Y-85539000I-147500J0D01*
G01*
X177611500Y-85539000D01*
G75*
G02*
X177464000Y-85391500I0J147500D01*
G01*
X177464000Y-85046500D01*
G75*
G02*
X177611500Y-84899000I147500J0D01*
G01*
X177906500Y-84899000D01*
G75*
G02*
X178054000Y-85046500I0J-147500D01*
G01*
G37*
%TD.AperFunction*%
%TO.P,D10,2*%
%TO.N,Net-(D10-Pad2)*%
%TA.AperFunction,SMDPad,CuDef*%
G36*
G01*
X177084000Y-85046500D02*
X177084000Y-85391500D01*
G75*
G02*
X176936500Y-85539000I-147500J0D01*
G01*
X176641500Y-85539000D01*
G75*
G02*
X176494000Y-85391500I0J147500D01*
G01*
X176494000Y-85046500D01*
G75*
G02*
X176641500Y-84899000I147500J0D01*
G01*
X176936500Y-84899000D01*
G75*
G02*
X177084000Y-85046500I0J-147500D01*
G01*
G37*
%TD.AperFunction*%
%TD*%
%TO.P,D11,1*%
%TO.N,GND*%
%TA.AperFunction,SMDPad,CuDef*%
G36*
G01*
X113054000Y-106046500D02*
X113054000Y-106391500D01*
G75*
G02*
X112906500Y-106539000I-147500J0D01*
G01*
X112611500Y-106539000D01*
G75*
G02*
X112464000Y-106391500I0J147500D01*
G01*
X112464000Y-106046500D01*
G75*
G02*
X112611500Y-105899000I147500J0D01*
G01*
X112906500Y-105899000D01*
G75*
G02*
X113054000Y-106046500I0J-147500D01*
G01*
G37*
%TD.AperFunction*%
%TO.P,D11,2*%
%TO.N,Net-(D11-Pad2)*%
%TA.AperFunction,SMDPad,CuDef*%
G36*
G01*
X112084000Y-106046500D02*
X112084000Y-106391500D01*
G75*
G02*
X111936500Y-106539000I-147500J0D01*
G01*
X111641500Y-106539000D01*
G75*
G02*
X111494000Y-106391500I0J147500D01*
G01*
X111494000Y-106046500D01*
G75*
G02*
X111641500Y-105899000I147500J0D01*
G01*
X111936500Y-105899000D01*
G75*
G02*
X112084000Y-106046500I0J-147500D01*
G01*
G37*
%TD.AperFunction*%
%TD*%
%TO.P,D12,1*%
%TO.N,GND*%
%TA.AperFunction,SMDPad,CuDef*%
G36*
G01*
X121054000Y-109046500D02*
X121054000Y-109391500D01*
G75*
G02*
X120906500Y-109539000I-147500J0D01*
G01*
X120611500Y-109539000D01*
G75*
G02*
X120464000Y-109391500I0J147500D01*
G01*
X120464000Y-109046500D01*
G75*
G02*
X120611500Y-108899000I147500J0D01*
G01*
X120906500Y-108899000D01*
G75*
G02*
X121054000Y-109046500I0J-147500D01*
G01*
G37*
%TD.AperFunction*%
%TO.P,D12,2*%
%TO.N,Net-(D12-Pad2)*%
%TA.AperFunction,SMDPad,CuDef*%
G36*
G01*
X120084000Y-109046500D02*
X120084000Y-109391500D01*
G75*
G02*
X119936500Y-109539000I-147500J0D01*
G01*
X119641500Y-109539000D01*
G75*
G02*
X119494000Y-109391500I0J147500D01*
G01*
X119494000Y-109046500D01*
G75*
G02*
X119641500Y-108899000I147500J0D01*
G01*
X119936500Y-108899000D01*
G75*
G02*
X120084000Y-109046500I0J-147500D01*
G01*
G37*
%TD.AperFunction*%
%TD*%
%TO.P,D13,2*%
%TO.N,Net-(D13-Pad2)*%
%TA.AperFunction,SMDPad,CuDef*%
G36*
G01*
X132084000Y-106046500D02*
X132084000Y-106391500D01*
G75*
G02*
X131936500Y-106539000I-147500J0D01*
G01*
X131641500Y-106539000D01*
G75*
G02*
X131494000Y-106391500I0J147500D01*
G01*
X131494000Y-106046500D01*
G75*
G02*
X131641500Y-105899000I147500J0D01*
G01*
X131936500Y-105899000D01*
G75*
G02*
X132084000Y-106046500I0J-147500D01*
G01*
G37*
%TD.AperFunction*%
%TO.P,D13,1*%
%TO.N,GND*%
%TA.AperFunction,SMDPad,CuDef*%
G36*
G01*
X133054000Y-106046500D02*
X133054000Y-106391500D01*
G75*
G02*
X132906500Y-106539000I-147500J0D01*
G01*
X132611500Y-106539000D01*
G75*
G02*
X132464000Y-106391500I0J147500D01*
G01*
X132464000Y-106046500D01*
G75*
G02*
X132611500Y-105899000I147500J0D01*
G01*
X132906500Y-105899000D01*
G75*
G02*
X133054000Y-106046500I0J-147500D01*
G01*
G37*
%TD.AperFunction*%
%TD*%
%TO.P,D14,1*%
%TO.N,GND*%
%TA.AperFunction,SMDPad,CuDef*%
G36*
G01*
X146539000Y-105046500D02*
X146539000Y-105391500D01*
G75*
G02*
X146391500Y-105539000I-147500J0D01*
G01*
X146096500Y-105539000D01*
G75*
G02*
X145949000Y-105391500I0J147500D01*
G01*
X145949000Y-105046500D01*
G75*
G02*
X146096500Y-104899000I147500J0D01*
G01*
X146391500Y-104899000D01*
G75*
G02*
X146539000Y-105046500I0J-147500D01*
G01*
G37*
%TD.AperFunction*%
%TO.P,D14,2*%
%TO.N,Net-(D14-Pad2)*%
%TA.AperFunction,SMDPad,CuDef*%
G36*
G01*
X145569000Y-105046500D02*
X145569000Y-105391500D01*
G75*
G02*
X145421500Y-105539000I-147500J0D01*
G01*
X145126500Y-105539000D01*
G75*
G02*
X144979000Y-105391500I0J147500D01*
G01*
X144979000Y-105046500D01*
G75*
G02*
X145126500Y-104899000I147500J0D01*
G01*
X145421500Y-104899000D01*
G75*
G02*
X145569000Y-105046500I0J-147500D01*
G01*
G37*
%TD.AperFunction*%
%TD*%
%TO.P,D15,2*%
%TO.N,Net-(D15-Pad2)*%
%TA.AperFunction,SMDPad,CuDef*%
G36*
G01*
X160599000Y-108046500D02*
X160599000Y-108391500D01*
G75*
G02*
X160451500Y-108539000I-147500J0D01*
G01*
X160156500Y-108539000D01*
G75*
G02*
X160009000Y-108391500I0J147500D01*
G01*
X160009000Y-108046500D01*
G75*
G02*
X160156500Y-107899000I147500J0D01*
G01*
X160451500Y-107899000D01*
G75*
G02*
X160599000Y-108046500I0J-147500D01*
G01*
G37*
%TD.AperFunction*%
%TO.P,D15,1*%
%TO.N,GND*%
%TA.AperFunction,SMDPad,CuDef*%
G36*
G01*
X161569000Y-108046500D02*
X161569000Y-108391500D01*
G75*
G02*
X161421500Y-108539000I-147500J0D01*
G01*
X161126500Y-108539000D01*
G75*
G02*
X160979000Y-108391500I0J147500D01*
G01*
X160979000Y-108046500D01*
G75*
G02*
X161126500Y-107899000I147500J0D01*
G01*
X161421500Y-107899000D01*
G75*
G02*
X161569000Y-108046500I0J-147500D01*
G01*
G37*
%TD.AperFunction*%
%TD*%
%TO.P,D16,2*%
%TO.N,Net-(D16-Pad2)*%
%TA.AperFunction,SMDPad,CuDef*%
G36*
G01*
X173099000Y-103046500D02*
X173099000Y-103391500D01*
G75*
G02*
X172951500Y-103539000I-147500J0D01*
G01*
X172656500Y-103539000D01*
G75*
G02*
X172509000Y-103391500I0J147500D01*
G01*
X172509000Y-103046500D01*
G75*
G02*
X172656500Y-102899000I147500J0D01*
G01*
X172951500Y-102899000D01*
G75*
G02*
X173099000Y-103046500I0J-147500D01*
G01*
G37*
%TD.AperFunction*%
%TO.P,D16,1*%
%TO.N,GND*%
%TA.AperFunction,SMDPad,CuDef*%
G36*
G01*
X174069000Y-103046500D02*
X174069000Y-103391500D01*
G75*
G02*
X173921500Y-103539000I-147500J0D01*
G01*
X173626500Y-103539000D01*
G75*
G02*
X173479000Y-103391500I0J147500D01*
G01*
X173479000Y-103046500D01*
G75*
G02*
X173626500Y-102899000I147500J0D01*
G01*
X173921500Y-102899000D01*
G75*
G02*
X174069000Y-103046500I0J-147500D01*
G01*
G37*
%TD.AperFunction*%
%TD*%
%TO.P,R4,2*%
%TO.N,Net-(D4-Pad2)*%
%TA.AperFunction,SMDPad,CuDef*%
G36*
G01*
X188524000Y-83034000D02*
X188524000Y-83404000D01*
G75*
G02*
X188389000Y-83539000I-135000J0D01*
G01*
X188119000Y-83539000D01*
G75*
G02*
X187984000Y-83404000I0J135000D01*
G01*
X187984000Y-83034000D01*
G75*
G02*
X188119000Y-82899000I135000J0D01*
G01*
X188389000Y-82899000D01*
G75*
G02*
X188524000Y-83034000I0J-135000D01*
G01*
G37*
%TD.AperFunction*%
%TO.P,R4,1*%
%TO.N,/D4*%
%TA.AperFunction,SMDPad,CuDef*%
G36*
G01*
X189544000Y-83034000D02*
X189544000Y-83404000D01*
G75*
G02*
X189409000Y-83539000I-135000J0D01*
G01*
X189139000Y-83539000D01*
G75*
G02*
X189004000Y-83404000I0J135000D01*
G01*
X189004000Y-83034000D01*
G75*
G02*
X189139000Y-82899000I135000J0D01*
G01*
X189409000Y-82899000D01*
G75*
G02*
X189544000Y-83034000I0J-135000D01*
G01*
G37*
%TD.AperFunction*%
%TD*%
%TO.P,R5,1*%
%TO.N,/D5*%
%TA.AperFunction,SMDPad,CuDef*%
G36*
G01*
X191054000Y-72034000D02*
X191054000Y-72404000D01*
G75*
G02*
X190919000Y-72539000I-135000J0D01*
G01*
X190649000Y-72539000D01*
G75*
G02*
X190514000Y-72404000I0J135000D01*
G01*
X190514000Y-72034000D01*
G75*
G02*
X190649000Y-71899000I135000J0D01*
G01*
X190919000Y-71899000D01*
G75*
G02*
X191054000Y-72034000I0J-135000D01*
G01*
G37*
%TD.AperFunction*%
%TO.P,R5,2*%
%TO.N,Net-(D5-Pad2)*%
%TA.AperFunction,SMDPad,CuDef*%
G36*
G01*
X190034000Y-72034000D02*
X190034000Y-72404000D01*
G75*
G02*
X189899000Y-72539000I-135000J0D01*
G01*
X189629000Y-72539000D01*
G75*
G02*
X189494000Y-72404000I0J135000D01*
G01*
X189494000Y-72034000D01*
G75*
G02*
X189629000Y-71899000I135000J0D01*
G01*
X189899000Y-71899000D01*
G75*
G02*
X190034000Y-72034000I0J-135000D01*
G01*
G37*
%TD.AperFunction*%
%TD*%
%TO.P,R6,2*%
%TO.N,Net-(D6-Pad2)*%
%TA.AperFunction,SMDPad,CuDef*%
G36*
G01*
X188459000Y-63979000D02*
X188089000Y-63979000D01*
G75*
G02*
X187954000Y-63844000I0J135000D01*
G01*
X187954000Y-63574000D01*
G75*
G02*
X188089000Y-63439000I135000J0D01*
G01*
X188459000Y-63439000D01*
G75*
G02*
X188594000Y-63574000I0J-135000D01*
G01*
X188594000Y-63844000D01*
G75*
G02*
X188459000Y-63979000I-135000J0D01*
G01*
G37*
%TD.AperFunction*%
%TO.P,R6,1*%
%TO.N,/D6*%
%TA.AperFunction,SMDPad,CuDef*%
G36*
G01*
X188459000Y-64999000D02*
X188089000Y-64999000D01*
G75*
G02*
X187954000Y-64864000I0J135000D01*
G01*
X187954000Y-64594000D01*
G75*
G02*
X188089000Y-64459000I135000J0D01*
G01*
X188459000Y-64459000D01*
G75*
G02*
X188594000Y-64594000I0J-135000D01*
G01*
X188594000Y-64864000D01*
G75*
G02*
X188459000Y-64999000I-135000J0D01*
G01*
G37*
%TD.AperFunction*%
%TD*%
%TO.P,R7,1*%
%TO.N,/D7*%
%TA.AperFunction,SMDPad,CuDef*%
G36*
G01*
X181459000Y-61999000D02*
X181089000Y-61999000D01*
G75*
G02*
X180954000Y-61864000I0J135000D01*
G01*
X180954000Y-61594000D01*
G75*
G02*
X181089000Y-61459000I135000J0D01*
G01*
X181459000Y-61459000D01*
G75*
G02*
X181594000Y-61594000I0J-135000D01*
G01*
X181594000Y-61864000D01*
G75*
G02*
X181459000Y-61999000I-135000J0D01*
G01*
G37*
%TD.AperFunction*%
%TO.P,R7,2*%
%TO.N,Net-(D7-Pad2)*%
%TA.AperFunction,SMDPad,CuDef*%
G36*
G01*
X181459000Y-60979000D02*
X181089000Y-60979000D01*
G75*
G02*
X180954000Y-60844000I0J135000D01*
G01*
X180954000Y-60574000D01*
G75*
G02*
X181089000Y-60439000I135000J0D01*
G01*
X181459000Y-60439000D01*
G75*
G02*
X181594000Y-60574000I0J-135000D01*
G01*
X181594000Y-60844000D01*
G75*
G02*
X181459000Y-60979000I-135000J0D01*
G01*
G37*
%TD.AperFunction*%
%TD*%
%TO.P,R9,1*%
%TO.N,/D9*%
%TA.AperFunction,SMDPad,CuDef*%
G36*
G01*
X176054000Y-72034000D02*
X176054000Y-72404000D01*
G75*
G02*
X175919000Y-72539000I-135000J0D01*
G01*
X175649000Y-72539000D01*
G75*
G02*
X175514000Y-72404000I0J135000D01*
G01*
X175514000Y-72034000D01*
G75*
G02*
X175649000Y-71899000I135000J0D01*
G01*
X175919000Y-71899000D01*
G75*
G02*
X176054000Y-72034000I0J-135000D01*
G01*
G37*
%TD.AperFunction*%
%TO.P,R9,2*%
%TO.N,Net-(D9-Pad2)*%
%TA.AperFunction,SMDPad,CuDef*%
G36*
G01*
X175034000Y-72034000D02*
X175034000Y-72404000D01*
G75*
G02*
X174899000Y-72539000I-135000J0D01*
G01*
X174629000Y-72539000D01*
G75*
G02*
X174494000Y-72404000I0J135000D01*
G01*
X174494000Y-72034000D01*
G75*
G02*
X174629000Y-71899000I135000J0D01*
G01*
X174899000Y-71899000D01*
G75*
G02*
X175034000Y-72034000I0J-135000D01*
G01*
G37*
%TD.AperFunction*%
%TD*%
%TO.P,R10,2*%
%TO.N,Net-(D10-Pad2)*%
%TA.AperFunction,SMDPad,CuDef*%
G36*
G01*
X177034000Y-86034000D02*
X177034000Y-86404000D01*
G75*
G02*
X176899000Y-86539000I-135000J0D01*
G01*
X176629000Y-86539000D01*
G75*
G02*
X176494000Y-86404000I0J135000D01*
G01*
X176494000Y-86034000D01*
G75*
G02*
X176629000Y-85899000I135000J0D01*
G01*
X176899000Y-85899000D01*
G75*
G02*
X177034000Y-86034000I0J-135000D01*
G01*
G37*
%TD.AperFunction*%
%TO.P,R10,1*%
%TO.N,/D10*%
%TA.AperFunction,SMDPad,CuDef*%
G36*
G01*
X178054000Y-86034000D02*
X178054000Y-86404000D01*
G75*
G02*
X177919000Y-86539000I-135000J0D01*
G01*
X177649000Y-86539000D01*
G75*
G02*
X177514000Y-86404000I0J135000D01*
G01*
X177514000Y-86034000D01*
G75*
G02*
X177649000Y-85899000I135000J0D01*
G01*
X177919000Y-85899000D01*
G75*
G02*
X178054000Y-86034000I0J-135000D01*
G01*
G37*
%TD.AperFunction*%
%TD*%
%TO.P,R11,2*%
%TO.N,Net-(D11-Pad2)*%
%TA.AperFunction,SMDPad,CuDef*%
G36*
G01*
X112034000Y-105034000D02*
X112034000Y-105404000D01*
G75*
G02*
X111899000Y-105539000I-135000J0D01*
G01*
X111629000Y-105539000D01*
G75*
G02*
X111494000Y-105404000I0J135000D01*
G01*
X111494000Y-105034000D01*
G75*
G02*
X111629000Y-104899000I135000J0D01*
G01*
X111899000Y-104899000D01*
G75*
G02*
X112034000Y-105034000I0J-135000D01*
G01*
G37*
%TD.AperFunction*%
%TO.P,R11,1*%
%TO.N,/D11*%
%TA.AperFunction,SMDPad,CuDef*%
G36*
G01*
X113054000Y-105034000D02*
X113054000Y-105404000D01*
G75*
G02*
X112919000Y-105539000I-135000J0D01*
G01*
X112649000Y-105539000D01*
G75*
G02*
X112514000Y-105404000I0J135000D01*
G01*
X112514000Y-105034000D01*
G75*
G02*
X112649000Y-104899000I135000J0D01*
G01*
X112919000Y-104899000D01*
G75*
G02*
X113054000Y-105034000I0J-135000D01*
G01*
G37*
%TD.AperFunction*%
%TD*%
%TO.P,R12,1*%
%TO.N,/D12*%
%TA.AperFunction,SMDPad,CuDef*%
G36*
G01*
X121054000Y-108034000D02*
X121054000Y-108404000D01*
G75*
G02*
X120919000Y-108539000I-135000J0D01*
G01*
X120649000Y-108539000D01*
G75*
G02*
X120514000Y-108404000I0J135000D01*
G01*
X120514000Y-108034000D01*
G75*
G02*
X120649000Y-107899000I135000J0D01*
G01*
X120919000Y-107899000D01*
G75*
G02*
X121054000Y-108034000I0J-135000D01*
G01*
G37*
%TD.AperFunction*%
%TO.P,R12,2*%
%TO.N,Net-(D12-Pad2)*%
%TA.AperFunction,SMDPad,CuDef*%
G36*
G01*
X120034000Y-108034000D02*
X120034000Y-108404000D01*
G75*
G02*
X119899000Y-108539000I-135000J0D01*
G01*
X119629000Y-108539000D01*
G75*
G02*
X119494000Y-108404000I0J135000D01*
G01*
X119494000Y-108034000D01*
G75*
G02*
X119629000Y-107899000I135000J0D01*
G01*
X119899000Y-107899000D01*
G75*
G02*
X120034000Y-108034000I0J-135000D01*
G01*
G37*
%TD.AperFunction*%
%TD*%
%TO.P,R13,1*%
%TO.N,/D13*%
%TA.AperFunction,SMDPad,CuDef*%
G36*
G01*
X133054000Y-105034000D02*
X133054000Y-105404000D01*
G75*
G02*
X132919000Y-105539000I-135000J0D01*
G01*
X132649000Y-105539000D01*
G75*
G02*
X132514000Y-105404000I0J135000D01*
G01*
X132514000Y-105034000D01*
G75*
G02*
X132649000Y-104899000I135000J0D01*
G01*
X132919000Y-104899000D01*
G75*
G02*
X133054000Y-105034000I0J-135000D01*
G01*
G37*
%TD.AperFunction*%
%TO.P,R13,2*%
%TO.N,Net-(D13-Pad2)*%
%TA.AperFunction,SMDPad,CuDef*%
G36*
G01*
X132034000Y-105034000D02*
X132034000Y-105404000D01*
G75*
G02*
X131899000Y-105539000I-135000J0D01*
G01*
X131629000Y-105539000D01*
G75*
G02*
X131494000Y-105404000I0J135000D01*
G01*
X131494000Y-105034000D01*
G75*
G02*
X131629000Y-104899000I135000J0D01*
G01*
X131899000Y-104899000D01*
G75*
G02*
X132034000Y-105034000I0J-135000D01*
G01*
G37*
%TD.AperFunction*%
%TD*%
%TO.P,R14,2*%
%TO.N,Net-(D14-Pad2)*%
%TA.AperFunction,SMDPad,CuDef*%
G36*
G01*
X145524000Y-104034000D02*
X145524000Y-104404000D01*
G75*
G02*
X145389000Y-104539000I-135000J0D01*
G01*
X145119000Y-104539000D01*
G75*
G02*
X144984000Y-104404000I0J135000D01*
G01*
X144984000Y-104034000D01*
G75*
G02*
X145119000Y-103899000I135000J0D01*
G01*
X145389000Y-103899000D01*
G75*
G02*
X145524000Y-104034000I0J-135000D01*
G01*
G37*
%TD.AperFunction*%
%TO.P,R14,1*%
%TO.N,/D14*%
%TA.AperFunction,SMDPad,CuDef*%
G36*
G01*
X146544000Y-104034000D02*
X146544000Y-104404000D01*
G75*
G02*
X146409000Y-104539000I-135000J0D01*
G01*
X146139000Y-104539000D01*
G75*
G02*
X146004000Y-104404000I0J135000D01*
G01*
X146004000Y-104034000D01*
G75*
G02*
X146139000Y-103899000I135000J0D01*
G01*
X146409000Y-103899000D01*
G75*
G02*
X146544000Y-104034000I0J-135000D01*
G01*
G37*
%TD.AperFunction*%
%TD*%
%TO.P,R15,1*%
%TO.N,/D15*%
%TA.AperFunction,SMDPad,CuDef*%
G36*
G01*
X161564000Y-107034000D02*
X161564000Y-107404000D01*
G75*
G02*
X161429000Y-107539000I-135000J0D01*
G01*
X161159000Y-107539000D01*
G75*
G02*
X161024000Y-107404000I0J135000D01*
G01*
X161024000Y-107034000D01*
G75*
G02*
X161159000Y-106899000I135000J0D01*
G01*
X161429000Y-106899000D01*
G75*
G02*
X161564000Y-107034000I0J-135000D01*
G01*
G37*
%TD.AperFunction*%
%TO.P,R15,2*%
%TO.N,Net-(D15-Pad2)*%
%TA.AperFunction,SMDPad,CuDef*%
G36*
G01*
X160544000Y-107034000D02*
X160544000Y-107404000D01*
G75*
G02*
X160409000Y-107539000I-135000J0D01*
G01*
X160139000Y-107539000D01*
G75*
G02*
X160004000Y-107404000I0J135000D01*
G01*
X160004000Y-107034000D01*
G75*
G02*
X160139000Y-106899000I135000J0D01*
G01*
X160409000Y-106899000D01*
G75*
G02*
X160544000Y-107034000I0J-135000D01*
G01*
G37*
%TD.AperFunction*%
%TD*%
%TO.P,R16,2*%
%TO.N,Net-(D16-Pad2)*%
%TA.AperFunction,SMDPad,CuDef*%
G36*
G01*
X173034000Y-102034000D02*
X173034000Y-102404000D01*
G75*
G02*
X172899000Y-102539000I-135000J0D01*
G01*
X172629000Y-102539000D01*
G75*
G02*
X172494000Y-102404000I0J135000D01*
G01*
X172494000Y-102034000D01*
G75*
G02*
X172629000Y-101899000I135000J0D01*
G01*
X172899000Y-101899000D01*
G75*
G02*
X173034000Y-102034000I0J-135000D01*
G01*
G37*
%TD.AperFunction*%
%TO.P,R16,1*%
%TO.N,/D16*%
%TA.AperFunction,SMDPad,CuDef*%
G36*
G01*
X174054000Y-102034000D02*
X174054000Y-102404000D01*
G75*
G02*
X173919000Y-102539000I-135000J0D01*
G01*
X173649000Y-102539000D01*
G75*
G02*
X173514000Y-102404000I0J135000D01*
G01*
X173514000Y-102034000D01*
G75*
G02*
X173649000Y-101899000I135000J0D01*
G01*
X173919000Y-101899000D01*
G75*
G02*
X174054000Y-102034000I0J-135000D01*
G01*
G37*
%TD.AperFunction*%
%TD*%
%TO.P,RD1,1*%
%TO.N,VCC*%
%TA.AperFunction,SMDPad,CuDef*%
G36*
G01*
X187554000Y-101534000D02*
X187554000Y-101904000D01*
G75*
G02*
X187419000Y-102039000I-135000J0D01*
G01*
X187149000Y-102039000D01*
G75*
G02*
X187014000Y-101904000I0J135000D01*
G01*
X187014000Y-101534000D01*
G75*
G02*
X187149000Y-101399000I135000J0D01*
G01*
X187419000Y-101399000D01*
G75*
G02*
X187554000Y-101534000I0J-135000D01*
G01*
G37*
%TD.AperFunction*%
%TO.P,RD1,2*%
%TO.N,/D0*%
%TA.AperFunction,SMDPad,CuDef*%
G36*
G01*
X186534000Y-101534000D02*
X186534000Y-101904000D01*
G75*
G02*
X186399000Y-102039000I-135000J0D01*
G01*
X186129000Y-102039000D01*
G75*
G02*
X185994000Y-101904000I0J135000D01*
G01*
X185994000Y-101534000D01*
G75*
G02*
X186129000Y-101399000I135000J0D01*
G01*
X186399000Y-101399000D01*
G75*
G02*
X186534000Y-101534000I0J-135000D01*
G01*
G37*
%TD.AperFunction*%
%TD*%
%TO.P,RD2,2*%
%TO.N,GND*%
%TA.AperFunction,SMDPad,CuDef*%
G36*
G01*
X187024000Y-103404000D02*
X187024000Y-103034000D01*
G75*
G02*
X187159000Y-102899000I135000J0D01*
G01*
X187429000Y-102899000D01*
G75*
G02*
X187564000Y-103034000I0J-135000D01*
G01*
X187564000Y-103404000D01*
G75*
G02*
X187429000Y-103539000I-135000J0D01*
G01*
X187159000Y-103539000D01*
G75*
G02*
X187024000Y-103404000I0J135000D01*
G01*
G37*
%TD.AperFunction*%
%TO.P,RD2,1*%
%TO.N,/D0*%
%TA.AperFunction,SMDPad,CuDef*%
G36*
G01*
X186004000Y-103404000D02*
X186004000Y-103034000D01*
G75*
G02*
X186139000Y-102899000I135000J0D01*
G01*
X186409000Y-102899000D01*
G75*
G02*
X186544000Y-103034000I0J-135000D01*
G01*
X186544000Y-103404000D01*
G75*
G02*
X186409000Y-103539000I-135000J0D01*
G01*
X186139000Y-103539000D01*
G75*
G02*
X186004000Y-103404000I0J135000D01*
G01*
G37*
%TD.AperFunction*%
%TD*%
%TO.P,RP3,1*%
%TO.N,/UPDI*%
%TA.AperFunction,SMDPad,CuDef*%
G36*
G01*
X185984000Y-100404000D02*
X185984000Y-100034000D01*
G75*
G02*
X186119000Y-99899000I135000J0D01*
G01*
X186389000Y-99899000D01*
G75*
G02*
X186524000Y-100034000I0J-135000D01*
G01*
X186524000Y-100404000D01*
G75*
G02*
X186389000Y-100539000I-135000J0D01*
G01*
X186119000Y-100539000D01*
G75*
G02*
X185984000Y-100404000I0J135000D01*
G01*
G37*
%TD.AperFunction*%
%TO.P,RP3,2*%
%TO.N,Net-(J3-Pad3)*%
%TA.AperFunction,SMDPad,CuDef*%
G36*
G01*
X187004000Y-100404000D02*
X187004000Y-100034000D01*
G75*
G02*
X187139000Y-99899000I135000J0D01*
G01*
X187409000Y-99899000D01*
G75*
G02*
X187544000Y-100034000I0J-135000D01*
G01*
X187544000Y-100404000D01*
G75*
G02*
X187409000Y-100539000I-135000J0D01*
G01*
X187139000Y-100539000D01*
G75*
G02*
X187004000Y-100404000I0J135000D01*
G01*
G37*
%TD.AperFunction*%
%TD*%
D20*
%TO.N,VCC*%
X183274000Y-75219000D03*
X189024000Y-105219000D03*
%TO.N,/UPDI*%
X179274000Y-94592000D03*
X186274000Y-99219000D03*
%TD*%
D21*
%TO.N,/D4*%
X183924000Y-93269000D02*
X184974000Y-93269000D01*
X184974000Y-93269000D02*
X185274000Y-92969000D01*
%TO.N,*%
X183924000Y-93669000D02*
X185474000Y-93669000D01*
X183924000Y-94069000D02*
X184874000Y-94069000D01*
X184874000Y-94069000D02*
X185274000Y-94469000D01*
X183924000Y-94469000D02*
X184524000Y-94469000D01*
X184524000Y-94469000D02*
X184774000Y-94719000D01*
%TO.N,GND*%
X182474000Y-95119000D02*
X182474000Y-96919000D01*
D22*
X181774000Y-102719000D02*
X181774000Y-101969000D01*
X182274000Y-101469000D02*
X182274000Y-100719000D01*
X181774000Y-101969000D02*
X182274000Y-101469000D01*
X182474000Y-96919000D02*
X182474000Y-99519000D01*
X182274000Y-99719000D02*
X182274000Y-100719000D01*
X182474000Y-99519000D02*
X182274000Y-99719000D01*
D23*
X191274000Y-89219000D02*
X191274000Y-83469000D01*
X190024000Y-82219000D02*
X189244000Y-82219000D01*
X191274000Y-83469000D02*
X190024000Y-82219000D01*
X191054000Y-71219000D02*
X191406410Y-71571410D01*
X190759000Y-71219000D02*
X191054000Y-71219000D01*
X191406410Y-83336590D02*
X191274000Y-83469000D01*
X191406410Y-71571410D02*
X191406410Y-83336590D01*
X190759000Y-71219000D02*
X190759000Y-67704000D01*
X189274000Y-66219000D02*
X189274000Y-64704000D01*
X190759000Y-67704000D02*
X189274000Y-66219000D01*
X189274000Y-64704000D02*
X189789000Y-64704000D01*
X189789000Y-64704000D02*
X190274000Y-64219000D01*
X190274000Y-64219000D02*
X190274000Y-62219000D01*
X190274000Y-62219000D02*
X187274000Y-59219000D01*
X187274000Y-59219000D02*
X180274000Y-59219000D01*
X180274000Y-59219000D02*
X179274000Y-60219000D01*
X180217018Y-61704000D02*
X180274000Y-61704000D01*
X179274000Y-60760982D02*
X180217018Y-61704000D01*
X179274000Y-60219000D02*
X179274000Y-60760982D01*
X179274000Y-60760982D02*
X179274000Y-67219000D01*
X175759000Y-70734000D02*
X175759000Y-71219000D01*
X182509000Y-72669000D02*
X181724000Y-72669000D01*
X179274000Y-70219000D02*
X179274000Y-67219000D01*
X181724000Y-72669000D02*
X179274000Y-70219000D01*
X177274000Y-69219000D02*
X173274000Y-69219000D01*
X179274000Y-67219000D02*
X177274000Y-69219000D01*
X177274000Y-69219000D02*
X175759000Y-70734000D01*
X173274000Y-69219000D02*
X172274000Y-70219000D01*
X172274000Y-70219000D02*
X172274000Y-79219000D01*
X177759000Y-84704000D02*
X177759000Y-85219000D01*
X172274000Y-79219000D02*
X177759000Y-84704000D01*
D21*
X182474000Y-95119000D02*
X182474000Y-93669000D01*
%TO.N,VCC*%
X182874000Y-95119000D02*
X182874000Y-96319000D01*
X182874000Y-96319000D02*
X183274000Y-96719000D01*
D22*
X183774000Y-102719000D02*
X183774000Y-100719000D01*
X183774000Y-97219000D02*
X183274000Y-96719000D01*
X183774000Y-100719000D02*
X183774000Y-97219000D01*
X187284000Y-101719000D02*
X187284000Y-101709000D01*
X187284000Y-101709000D02*
X189274000Y-99719000D01*
X189274000Y-99719000D02*
X189274000Y-96469000D01*
X190524000Y-95219000D02*
X191274000Y-95219000D01*
X189274000Y-96469000D02*
X190524000Y-95219000D01*
D23*
X184574000Y-73919000D02*
X183274000Y-75219000D01*
X184574000Y-73769000D02*
X184574000Y-73919000D01*
X189024000Y-105219000D02*
X185274000Y-105219000D01*
X183774000Y-103719000D02*
X183774000Y-102719000D01*
X185274000Y-105219000D02*
X183774000Y-103719000D01*
D21*
%TO.N,/UPDI*%
X181024000Y-94069000D02*
X179924000Y-94069000D01*
X179924000Y-94069000D02*
X179524000Y-94469000D01*
D22*
X179397000Y-94469000D02*
X179274000Y-94592000D01*
X179524000Y-94469000D02*
X179397000Y-94469000D01*
X186274000Y-100199000D02*
X186254000Y-100219000D01*
X186274000Y-99219000D02*
X186274000Y-100199000D01*
%TO.N,Net-(D4-Pad2)*%
X188254000Y-82239000D02*
X188274000Y-82219000D01*
X188254000Y-83219000D02*
X188254000Y-82239000D01*
%TO.N,Net-(D5-Pad2)*%
X189789000Y-71244000D02*
X189764000Y-71219000D01*
X189789000Y-72194000D02*
X189764000Y-72219000D01*
X189789000Y-71219000D02*
X189789000Y-72194000D01*
%TO.N,Net-(D6-Pad2)*%
X189249000Y-63709000D02*
X189274000Y-63734000D01*
X188274000Y-63709000D02*
X189249000Y-63709000D01*
%TO.N,Net-(D7-Pad2)*%
X181249000Y-60734000D02*
X181274000Y-60709000D01*
X180274000Y-60734000D02*
X181249000Y-60734000D01*
D21*
%TO.N,/D0*%
X183274000Y-95119000D02*
X183274000Y-95969000D01*
X183274000Y-95969000D02*
X183774000Y-96469000D01*
D22*
X186274000Y-101729000D02*
X186264000Y-101719000D01*
X186274000Y-103219000D02*
X186274000Y-101729000D01*
X186264000Y-101719000D02*
X185774000Y-101719000D01*
X185774000Y-101719000D02*
X184774000Y-100719000D01*
X184774000Y-100719000D02*
X184774000Y-97469000D01*
X184774000Y-97469000D02*
X183774000Y-96469000D01*
D21*
%TO.N,/D7*%
X182874000Y-92219000D02*
X182874000Y-91119000D01*
X182874000Y-91119000D02*
X183274000Y-90719000D01*
%TO.N,/D8*%
X182474000Y-92219000D02*
X182474000Y-90419000D01*
D22*
X182474000Y-73804000D02*
X182509000Y-73769000D01*
X182474000Y-90419000D02*
X182474000Y-73804000D01*
%TO.N,/D7*%
X183274000Y-78219000D02*
X183274000Y-90719000D01*
X181274000Y-61729000D02*
X181274000Y-67219000D01*
X181274000Y-67219000D02*
X186274000Y-72219000D01*
X186274000Y-72219000D02*
X186274000Y-74219000D01*
X183274000Y-77219000D02*
X183274000Y-78219000D01*
X186274000Y-74219000D02*
X183274000Y-77219000D01*
D21*
%TO.N,/D9*%
X182074000Y-92219000D02*
X182074000Y-91019000D01*
X182074000Y-91019000D02*
X181774000Y-90719000D01*
D22*
X181774000Y-90719000D02*
X181774000Y-75719000D01*
X178274000Y-72219000D02*
X175784000Y-72219000D01*
X181774000Y-75719000D02*
X178274000Y-72219000D01*
D21*
%TO.N,/D16*%
X182074000Y-95119000D02*
X182074000Y-96419000D01*
X182074000Y-96419000D02*
X181774000Y-96719000D01*
D22*
X173784000Y-100709000D02*
X173784000Y-102219000D01*
X177274000Y-97219000D02*
X173784000Y-100709000D01*
X181274000Y-97219000D02*
X177274000Y-97219000D01*
X181774000Y-96719000D02*
X181274000Y-97219000D01*
D21*
%TO.N,/D15*%
X181674000Y-95119000D02*
X181674000Y-96069000D01*
X181674000Y-96069000D02*
X181274000Y-96469000D01*
D22*
X161294000Y-107219000D02*
X166274000Y-107219000D01*
X166274000Y-107219000D02*
X172274000Y-101219000D01*
X181274000Y-96469000D02*
X177024000Y-96469000D01*
X177024000Y-96469000D02*
X172274000Y-101219000D01*
%TO.N,Net-(D9-Pad2)*%
X174764000Y-71244000D02*
X174789000Y-71219000D01*
X174764000Y-72219000D02*
X174764000Y-71244000D01*
%TO.N,Net-(J3-Pad3)*%
X187274000Y-100219000D02*
X187524000Y-100219000D01*
X187524000Y-100219000D02*
X188274000Y-99469000D01*
X188274000Y-99469000D02*
X188274000Y-93469000D01*
X190524000Y-91219000D02*
X191274000Y-91219000D01*
X188274000Y-93469000D02*
X190524000Y-91219000D01*
D21*
%TO.N,/D6*%
X183274000Y-92219000D02*
X183274000Y-91719000D01*
X183274000Y-91719000D02*
X183774000Y-91219000D01*
D22*
X184274000Y-90719000D02*
X183774000Y-91219000D01*
X184274000Y-77219000D02*
X184274000Y-90719000D01*
X188274000Y-73219000D02*
X184274000Y-77219000D01*
X188274000Y-64729000D02*
X188274000Y-73219000D01*
D21*
%TO.N,/D14*%
X181024000Y-94469000D02*
X180524000Y-94469000D01*
X180524000Y-94469000D02*
X180274000Y-94719000D01*
D22*
X153274000Y-104219000D02*
X146274000Y-104219000D01*
X166274000Y-106219000D02*
X155274000Y-106219000D01*
X155274000Y-106219000D02*
X153274000Y-104219000D01*
X177274000Y-95219000D02*
X166274000Y-106219000D01*
X179774000Y-95219000D02*
X177274000Y-95219000D01*
X180274000Y-94719000D02*
X179774000Y-95219000D01*
D21*
%TO.N,/D10*%
X181674000Y-92219000D02*
X181674000Y-91619000D01*
X181674000Y-91619000D02*
X181274000Y-91219000D01*
D22*
X181274000Y-91219000D02*
X180274000Y-90219000D01*
X180274000Y-90219000D02*
X180274000Y-87219000D01*
X180274000Y-87219000D02*
X179274000Y-86219000D01*
X179274000Y-86219000D02*
X177784000Y-86219000D01*
D21*
%TO.N,/D11*%
X181024000Y-92869000D02*
X180424000Y-92869000D01*
X180424000Y-92869000D02*
X180024000Y-92469000D01*
D22*
X112784000Y-105219000D02*
X114274000Y-105219000D01*
X114274000Y-105219000D02*
X116274000Y-107219000D01*
X130274000Y-103219000D02*
X126274000Y-107219000D01*
X138274000Y-103219000D02*
X130274000Y-103219000D01*
X153274000Y-101219000D02*
X140274000Y-101219000D01*
X155274000Y-103219000D02*
X153274000Y-101219000D01*
X166274000Y-103219000D02*
X155274000Y-103219000D01*
X180024000Y-92469000D02*
X177024000Y-92469000D01*
X177024000Y-92469000D02*
X166274000Y-103219000D01*
X140274000Y-101219000D02*
X138274000Y-103219000D01*
X116274000Y-107219000D02*
X126274000Y-107219000D01*
D21*
%TO.N,/D12*%
X181024000Y-93269000D02*
X179824000Y-93269000D01*
X179824000Y-93269000D02*
X179524000Y-92969000D01*
D22*
X120784000Y-108219000D02*
X126274000Y-108219000D01*
X130274000Y-104219000D02*
X138274000Y-104219000D01*
X126274000Y-108219000D02*
X130274000Y-104219000D01*
X138274000Y-104219000D02*
X140274000Y-102219000D01*
X140274000Y-102219000D02*
X153274000Y-102219000D01*
X155274000Y-104219000D02*
X166274000Y-104219000D01*
X153274000Y-102219000D02*
X155274000Y-104219000D01*
X177524000Y-92969000D02*
X179524000Y-92969000D01*
X166274000Y-104219000D02*
X177524000Y-92969000D01*
D21*
%TO.N,/D13*%
X181024000Y-93669000D02*
X179324000Y-93669000D01*
D22*
X178824000Y-93669000D02*
X179324000Y-93669000D01*
X177824000Y-93669000D02*
X178824000Y-93669000D01*
X155274000Y-105219000D02*
X166274000Y-105219000D01*
X153274000Y-103219000D02*
X155274000Y-105219000D01*
X166274000Y-105219000D02*
X177824000Y-93669000D01*
X140274000Y-103219000D02*
X153274000Y-103219000D01*
X138274000Y-105219000D02*
X140274000Y-103219000D01*
X132784000Y-105219000D02*
X138274000Y-105219000D01*
D21*
%TO.N,Net-(D10-Pad2)*%
X176764000Y-85244000D02*
X176789000Y-85219000D01*
X176764000Y-86219000D02*
X176764000Y-85244000D01*
D22*
%TO.N,Net-(D11-Pad2)*%
X111789000Y-105244000D02*
X111764000Y-105219000D01*
X111789000Y-106219000D02*
X111789000Y-105244000D01*
%TO.N,Net-(D12-Pad2)*%
X119789000Y-108244000D02*
X119764000Y-108219000D01*
X119789000Y-109219000D02*
X119789000Y-108244000D01*
%TO.N,Net-(D13-Pad2)*%
X131789000Y-105244000D02*
X131764000Y-105219000D01*
X131789000Y-106219000D02*
X131789000Y-105244000D01*
%TO.N,Net-(D14-Pad2)*%
X145254000Y-105199000D02*
X145274000Y-105219000D01*
X145254000Y-104219000D02*
X145254000Y-105199000D01*
D21*
%TO.N,/D5*%
X183924000Y-92869000D02*
X184624000Y-92869000D01*
X184624000Y-92869000D02*
X185024000Y-92469000D01*
D22*
X190784000Y-72219000D02*
X190784000Y-72709000D01*
X190784000Y-72709000D02*
X185274000Y-78219000D01*
X185274000Y-92219000D02*
X185024000Y-92469000D01*
X185274000Y-78219000D02*
X185274000Y-92219000D01*
%TO.N,Net-(D15-Pad2)*%
X160304000Y-107249000D02*
X160274000Y-107219000D01*
X160304000Y-108219000D02*
X160304000Y-107249000D01*
%TO.N,Net-(D16-Pad2)*%
X172804000Y-102259000D02*
X172764000Y-102219000D01*
X172804000Y-103219000D02*
X172804000Y-102259000D01*
%TO.N,/D4*%
X189274000Y-83219000D02*
X189274000Y-84219000D01*
X189274000Y-84219000D02*
X188274000Y-85219000D01*
X188274000Y-85219000D02*
X187274000Y-85219000D01*
X187274000Y-85219000D02*
X186274000Y-86219000D01*
X186274000Y-91969000D02*
X185274000Y-92969000D01*
X186274000Y-86219000D02*
X186274000Y-91969000D01*
%TD*%
%TO.N,GND*%
X189943209Y-56839264D02*
X190586922Y-57033613D01*
X191180630Y-57349293D01*
X191701713Y-57774278D01*
X192130325Y-58292381D01*
X192450144Y-58883872D01*
X192648983Y-59526216D01*
X192722000Y-60220927D01*
X192722001Y-116191988D01*
X192653736Y-116888209D01*
X192459388Y-117531920D01*
X192143709Y-118125627D01*
X191718724Y-118646711D01*
X191200619Y-119075326D01*
X190609128Y-119395144D01*
X189966782Y-119593983D01*
X189272073Y-119667000D01*
X107301002Y-119667000D01*
X106604791Y-119598736D01*
X105961080Y-119404388D01*
X105367373Y-119088709D01*
X104846289Y-118663724D01*
X104417674Y-118145619D01*
X104097856Y-117554128D01*
X103899017Y-116911782D01*
X103826000Y-116217073D01*
X103826000Y-109036609D01*
X104380538Y-109036609D01*
X104384409Y-109074282D01*
X104476579Y-109299533D01*
X104610922Y-109502474D01*
X104782275Y-109675307D01*
X104984054Y-109811390D01*
X105208504Y-109905493D01*
X105447000Y-109954000D01*
X105797000Y-109954000D01*
X105797000Y-108846000D01*
X106051000Y-108846000D01*
X106051000Y-109954000D01*
X106401000Y-109954000D01*
X106639496Y-109905493D01*
X106863946Y-109811390D01*
X107065725Y-109675307D01*
X107237078Y-109502474D01*
X107371421Y-109299533D01*
X107463591Y-109074282D01*
X107467462Y-109036609D01*
X107342731Y-108846000D01*
X106051000Y-108846000D01*
X105797000Y-108846000D01*
X104505269Y-108846000D01*
X104380538Y-109036609D01*
X103826000Y-109036609D01*
X103826000Y-108658133D01*
X107864472Y-108658133D01*
X107926965Y-108894450D01*
X108169678Y-109007850D01*
X108429849Y-109071719D01*
X108697482Y-109083604D01*
X108962291Y-109043048D01*
X109214100Y-108951609D01*
X109321035Y-108894450D01*
X109383528Y-108658133D01*
X108624000Y-107898605D01*
X107864472Y-108658133D01*
X103826000Y-108658133D01*
X103826000Y-108401391D01*
X104380538Y-108401391D01*
X104505269Y-108592000D01*
X105797000Y-108592000D01*
X105797000Y-107484000D01*
X106051000Y-107484000D01*
X106051000Y-108592000D01*
X107342731Y-108592000D01*
X107456503Y-108418138D01*
X107684867Y-108478528D01*
X108444395Y-107719000D01*
X108803605Y-107719000D01*
X109563133Y-108478528D01*
X109799450Y-108416035D01*
X109912850Y-108173322D01*
X109976719Y-107913151D01*
X109988604Y-107645518D01*
X109948048Y-107380709D01*
X109856609Y-107128900D01*
X109799450Y-107021965D01*
X109563133Y-106959472D01*
X108803605Y-107719000D01*
X108444395Y-107719000D01*
X107684867Y-106959472D01*
X107448550Y-107021965D01*
X107335150Y-107264678D01*
X107271281Y-107524849D01*
X107259396Y-107792482D01*
X107294615Y-108022442D01*
X107237078Y-107935526D01*
X107065725Y-107762693D01*
X106863946Y-107626610D01*
X106639496Y-107532507D01*
X106401000Y-107484000D01*
X106051000Y-107484000D01*
X105797000Y-107484000D01*
X105447000Y-107484000D01*
X105208504Y-107532507D01*
X104984054Y-107626610D01*
X104782275Y-107762693D01*
X104610922Y-107935526D01*
X104476579Y-108138467D01*
X104384409Y-108363718D01*
X104380538Y-108401391D01*
X103826000Y-108401391D01*
X103826000Y-106779867D01*
X107864472Y-106779867D01*
X108624000Y-107539395D01*
X109383528Y-106779867D01*
X109321035Y-106543550D01*
X109078322Y-106430150D01*
X108818151Y-106366281D01*
X108550518Y-106354396D01*
X108285709Y-106394952D01*
X108033900Y-106486391D01*
X107926965Y-106543550D01*
X107864472Y-106779867D01*
X103826000Y-106779867D01*
X103826000Y-105034000D01*
X111014693Y-105034000D01*
X111014693Y-105404000D01*
X111026497Y-105523845D01*
X111061454Y-105639085D01*
X111106708Y-105723749D01*
X111062406Y-105806631D01*
X111026737Y-105924216D01*
X111014693Y-106046500D01*
X111014693Y-106391500D01*
X111026737Y-106513784D01*
X111062406Y-106631369D01*
X111120329Y-106739735D01*
X111198281Y-106834719D01*
X111293265Y-106912671D01*
X111401631Y-106970594D01*
X111519216Y-107006263D01*
X111641500Y-107018307D01*
X111936500Y-107018307D01*
X112035233Y-107008583D01*
X112109506Y-107069537D01*
X112219820Y-107128502D01*
X112339518Y-107164812D01*
X112464000Y-107177072D01*
X112473250Y-107174000D01*
X112632000Y-107015250D01*
X112632000Y-106346000D01*
X112886000Y-106346000D01*
X112886000Y-107015250D01*
X113044750Y-107174000D01*
X113054000Y-107177072D01*
X113178482Y-107164812D01*
X113298180Y-107128502D01*
X113408494Y-107069537D01*
X113505185Y-106990185D01*
X113584537Y-106893494D01*
X113643502Y-106783180D01*
X113679812Y-106663482D01*
X113692072Y-106539000D01*
X113689000Y-106504750D01*
X113530250Y-106346000D01*
X112886000Y-106346000D01*
X112632000Y-106346000D01*
X112612000Y-106346000D01*
X112612000Y-106092000D01*
X112632000Y-106092000D01*
X112632000Y-106072000D01*
X112886000Y-106072000D01*
X112886000Y-106092000D01*
X113530250Y-106092000D01*
X113689000Y-105933250D01*
X113692072Y-105899000D01*
X113684587Y-105823000D01*
X114023816Y-105823000D01*
X115825927Y-107625112D01*
X115844841Y-107648159D01*
X115936812Y-107723637D01*
X116041741Y-107779723D01*
X116155595Y-107814260D01*
X116273999Y-107825922D01*
X116303666Y-107823000D01*
X119054148Y-107823000D01*
X119026497Y-107914155D01*
X119014693Y-108034000D01*
X119014693Y-108404000D01*
X119026497Y-108523845D01*
X119061454Y-108639085D01*
X119106708Y-108723749D01*
X119062406Y-108806631D01*
X119026737Y-108924216D01*
X119014693Y-109046500D01*
X119014693Y-109391500D01*
X119026737Y-109513784D01*
X119062406Y-109631369D01*
X119120329Y-109739735D01*
X119198281Y-109834719D01*
X119293265Y-109912671D01*
X119401631Y-109970594D01*
X119519216Y-110006263D01*
X119641500Y-110018307D01*
X119936500Y-110018307D01*
X120035233Y-110008583D01*
X120109506Y-110069537D01*
X120219820Y-110128502D01*
X120339518Y-110164812D01*
X120464000Y-110177072D01*
X120473250Y-110174000D01*
X120632000Y-110015250D01*
X120632000Y-109346000D01*
X120886000Y-109346000D01*
X120886000Y-110015250D01*
X121044750Y-110174000D01*
X121054000Y-110177072D01*
X121178482Y-110164812D01*
X121298180Y-110128502D01*
X121408494Y-110069537D01*
X121505185Y-109990185D01*
X121584537Y-109893494D01*
X121643502Y-109783180D01*
X121679812Y-109663482D01*
X121692072Y-109539000D01*
X121689000Y-109504750D01*
X121530250Y-109346000D01*
X120886000Y-109346000D01*
X120632000Y-109346000D01*
X120612000Y-109346000D01*
X120612000Y-109092000D01*
X120632000Y-109092000D01*
X120632000Y-109072000D01*
X120886000Y-109072000D01*
X120886000Y-109092000D01*
X121530250Y-109092000D01*
X121689000Y-108933250D01*
X121692072Y-108899000D01*
X121684587Y-108823000D01*
X126244333Y-108823000D01*
X126274000Y-108825922D01*
X126303667Y-108823000D01*
X126392405Y-108814260D01*
X126506259Y-108779723D01*
X126611188Y-108723637D01*
X126703159Y-108648159D01*
X126722078Y-108625106D01*
X130524185Y-104823000D01*
X131054148Y-104823000D01*
X131026497Y-104914155D01*
X131014693Y-105034000D01*
X131014693Y-105404000D01*
X131026497Y-105523845D01*
X131061454Y-105639085D01*
X131106708Y-105723749D01*
X131062406Y-105806631D01*
X131026737Y-105924216D01*
X131014693Y-106046500D01*
X131014693Y-106391500D01*
X131026737Y-106513784D01*
X131062406Y-106631369D01*
X131120329Y-106739735D01*
X131198281Y-106834719D01*
X131293265Y-106912671D01*
X131401631Y-106970594D01*
X131519216Y-107006263D01*
X131641500Y-107018307D01*
X131936500Y-107018307D01*
X132035233Y-107008583D01*
X132109506Y-107069537D01*
X132219820Y-107128502D01*
X132339518Y-107164812D01*
X132464000Y-107177072D01*
X132473250Y-107174000D01*
X132632000Y-107015250D01*
X132632000Y-106346000D01*
X132886000Y-106346000D01*
X132886000Y-107015250D01*
X133044750Y-107174000D01*
X133054000Y-107177072D01*
X133178482Y-107164812D01*
X133298180Y-107128502D01*
X133408494Y-107069537D01*
X133505185Y-106990185D01*
X133584537Y-106893494D01*
X133643502Y-106783180D01*
X133679812Y-106663482D01*
X133692072Y-106539000D01*
X133689000Y-106504750D01*
X133530250Y-106346000D01*
X132886000Y-106346000D01*
X132632000Y-106346000D01*
X132612000Y-106346000D01*
X132612000Y-106092000D01*
X132632000Y-106092000D01*
X132632000Y-106072000D01*
X132886000Y-106072000D01*
X132886000Y-106092000D01*
X133530250Y-106092000D01*
X133689000Y-105933250D01*
X133692072Y-105899000D01*
X133684587Y-105823000D01*
X138244333Y-105823000D01*
X138274000Y-105825922D01*
X138303667Y-105823000D01*
X138392405Y-105814260D01*
X138506259Y-105779723D01*
X138611188Y-105723637D01*
X138703159Y-105648159D01*
X138722078Y-105625106D01*
X140524185Y-103823000D01*
X144544148Y-103823000D01*
X144516497Y-103914155D01*
X144504693Y-104034000D01*
X144504693Y-104404000D01*
X144516497Y-104523845D01*
X144551454Y-104639085D01*
X144594208Y-104719072D01*
X144547406Y-104806631D01*
X144511737Y-104924216D01*
X144499693Y-105046500D01*
X144499693Y-105391500D01*
X144511737Y-105513784D01*
X144547406Y-105631369D01*
X144605329Y-105739735D01*
X144683281Y-105834719D01*
X144778265Y-105912671D01*
X144886631Y-105970594D01*
X145004216Y-106006263D01*
X145126500Y-106018307D01*
X145421500Y-106018307D01*
X145520233Y-106008583D01*
X145594506Y-106069537D01*
X145704820Y-106128502D01*
X145824518Y-106164812D01*
X145949000Y-106177072D01*
X145958250Y-106174000D01*
X146117000Y-106015250D01*
X146117000Y-105346000D01*
X146371000Y-105346000D01*
X146371000Y-106015250D01*
X146529750Y-106174000D01*
X146539000Y-106177072D01*
X146663482Y-106164812D01*
X146783180Y-106128502D01*
X146893494Y-106069537D01*
X146990185Y-105990185D01*
X147069537Y-105893494D01*
X147128502Y-105783180D01*
X147164812Y-105663482D01*
X147177072Y-105539000D01*
X147174000Y-105504750D01*
X147015250Y-105346000D01*
X146371000Y-105346000D01*
X146117000Y-105346000D01*
X146097000Y-105346000D01*
X146097000Y-105092000D01*
X146117000Y-105092000D01*
X146117000Y-105072000D01*
X146371000Y-105072000D01*
X146371000Y-105092000D01*
X147015250Y-105092000D01*
X147174000Y-104933250D01*
X147177072Y-104899000D01*
X147169587Y-104823000D01*
X153023816Y-104823000D01*
X154825927Y-106625112D01*
X154844841Y-106648159D01*
X154936812Y-106723637D01*
X155041741Y-106779723D01*
X155155595Y-106814260D01*
X155273999Y-106825922D01*
X155303666Y-106823000D01*
X159564148Y-106823000D01*
X159536497Y-106914155D01*
X159524693Y-107034000D01*
X159524693Y-107404000D01*
X159536497Y-107523845D01*
X159571454Y-107639085D01*
X159619208Y-107728426D01*
X159577406Y-107806631D01*
X159541737Y-107924216D01*
X159529693Y-108046500D01*
X159529693Y-108391500D01*
X159541737Y-108513784D01*
X159577406Y-108631369D01*
X159635329Y-108739735D01*
X159713281Y-108834719D01*
X159808265Y-108912671D01*
X159916631Y-108970594D01*
X160034216Y-109006263D01*
X160156500Y-109018307D01*
X160451500Y-109018307D01*
X160550233Y-109008583D01*
X160624506Y-109069537D01*
X160734820Y-109128502D01*
X160854518Y-109164812D01*
X160979000Y-109177072D01*
X160988250Y-109174000D01*
X161147000Y-109015250D01*
X161147000Y-108346000D01*
X161401000Y-108346000D01*
X161401000Y-109015250D01*
X161559750Y-109174000D01*
X161569000Y-109177072D01*
X161693482Y-109164812D01*
X161813180Y-109128502D01*
X161923494Y-109069537D01*
X162020185Y-108990185D01*
X162099537Y-108893494D01*
X162158502Y-108783180D01*
X162194812Y-108663482D01*
X162207072Y-108539000D01*
X162206059Y-108527699D01*
X188097000Y-108527699D01*
X188097000Y-108710301D01*
X188132624Y-108889396D01*
X188202504Y-109058099D01*
X188303952Y-109209928D01*
X188433072Y-109339048D01*
X188584901Y-109440496D01*
X188753604Y-109510376D01*
X188932699Y-109546000D01*
X189115301Y-109546000D01*
X189294396Y-109510376D01*
X189463099Y-109440496D01*
X189614928Y-109339048D01*
X189744048Y-109209928D01*
X189845496Y-109058099D01*
X189915376Y-108889396D01*
X189951000Y-108710301D01*
X189951000Y-108527699D01*
X189915376Y-108348604D01*
X189845496Y-108179901D01*
X189744048Y-108028072D01*
X189614928Y-107898952D01*
X189463099Y-107797504D01*
X189294396Y-107727624D01*
X189115301Y-107692000D01*
X188932699Y-107692000D01*
X188753604Y-107727624D01*
X188584901Y-107797504D01*
X188433072Y-107898952D01*
X188303952Y-108028072D01*
X188202504Y-108179901D01*
X188132624Y-108348604D01*
X188097000Y-108527699D01*
X162206059Y-108527699D01*
X162204000Y-108504750D01*
X162045250Y-108346000D01*
X161401000Y-108346000D01*
X161147000Y-108346000D01*
X161127000Y-108346000D01*
X161127000Y-108092000D01*
X161147000Y-108092000D01*
X161147000Y-108072000D01*
X161401000Y-108072000D01*
X161401000Y-108092000D01*
X162045250Y-108092000D01*
X162204000Y-107933250D01*
X162207072Y-107899000D01*
X162199587Y-107823000D01*
X166244333Y-107823000D01*
X166274000Y-107825922D01*
X166303667Y-107823000D01*
X166392405Y-107814260D01*
X166506259Y-107779723D01*
X166611188Y-107723637D01*
X166703159Y-107648159D01*
X166722078Y-107625106D01*
X172014693Y-102332492D01*
X172014693Y-102404000D01*
X172026497Y-102523845D01*
X172061454Y-102639085D01*
X172114208Y-102737780D01*
X172077406Y-102806631D01*
X172041737Y-102924216D01*
X172029693Y-103046500D01*
X172029693Y-103391500D01*
X172041737Y-103513784D01*
X172077406Y-103631369D01*
X172135329Y-103739735D01*
X172213281Y-103834719D01*
X172308265Y-103912671D01*
X172416631Y-103970594D01*
X172534216Y-104006263D01*
X172656500Y-104018307D01*
X172951500Y-104018307D01*
X173050233Y-104008583D01*
X173124506Y-104069537D01*
X173234820Y-104128502D01*
X173354518Y-104164812D01*
X173479000Y-104177072D01*
X173488250Y-104174000D01*
X173647000Y-104015250D01*
X173647000Y-103346000D01*
X173901000Y-103346000D01*
X173901000Y-104015250D01*
X174059750Y-104174000D01*
X174069000Y-104177072D01*
X174193482Y-104164812D01*
X174313180Y-104128502D01*
X174423494Y-104069537D01*
X174520185Y-103990185D01*
X174599537Y-103893494D01*
X174658502Y-103783180D01*
X174694812Y-103663482D01*
X174707072Y-103539000D01*
X174704000Y-103504750D01*
X174545250Y-103346000D01*
X173901000Y-103346000D01*
X173647000Y-103346000D01*
X173627000Y-103346000D01*
X173627000Y-103344000D01*
X180635928Y-103344000D01*
X180648188Y-103468482D01*
X180684498Y-103588180D01*
X180743463Y-103698494D01*
X180822815Y-103795185D01*
X180919506Y-103874537D01*
X181029820Y-103933502D01*
X181149518Y-103969812D01*
X181274000Y-103982072D01*
X181488250Y-103979000D01*
X181647000Y-103820250D01*
X181647000Y-102846000D01*
X180797750Y-102846000D01*
X180639000Y-103004750D01*
X180635928Y-103344000D01*
X173627000Y-103344000D01*
X173627000Y-103092000D01*
X173647000Y-103092000D01*
X173647000Y-103072000D01*
X173901000Y-103072000D01*
X173901000Y-103092000D01*
X174545250Y-103092000D01*
X174704000Y-102933250D01*
X174707072Y-102899000D01*
X174694812Y-102774518D01*
X174658502Y-102654820D01*
X174599537Y-102544506D01*
X174528048Y-102457396D01*
X174533307Y-102404000D01*
X174533307Y-102034000D01*
X174521503Y-101914155D01*
X174486546Y-101798915D01*
X174429778Y-101692709D01*
X174388000Y-101641802D01*
X174388000Y-100959184D01*
X175003184Y-100344000D01*
X181235928Y-100344000D01*
X181239000Y-100433250D01*
X181397750Y-100592000D01*
X182147000Y-100592000D01*
X182147000Y-99867750D01*
X181988250Y-99709000D01*
X181874000Y-99705928D01*
X181749518Y-99718188D01*
X181629820Y-99754498D01*
X181519506Y-99813463D01*
X181422815Y-99892815D01*
X181343463Y-99989506D01*
X181284498Y-100099820D01*
X181248188Y-100219518D01*
X181235928Y-100344000D01*
X175003184Y-100344000D01*
X177524184Y-97823000D01*
X181244333Y-97823000D01*
X181274000Y-97825922D01*
X181303667Y-97823000D01*
X181392405Y-97814260D01*
X181506259Y-97779723D01*
X181611188Y-97723637D01*
X181703159Y-97648159D01*
X181722077Y-97625107D01*
X182222070Y-97125115D01*
X182278637Y-97056188D01*
X182308290Y-97000711D01*
X182461962Y-96847039D01*
X182483974Y-96828974D01*
X182521837Y-96782838D01*
X182739711Y-97000712D01*
X182769363Y-97056187D01*
X182825930Y-97125114D01*
X183170001Y-97469186D01*
X183170000Y-99912177D01*
X183149894Y-99922923D01*
X183125185Y-99892815D01*
X183028494Y-99813463D01*
X182918180Y-99754498D01*
X182798482Y-99718188D01*
X182674000Y-99705928D01*
X182559750Y-99709000D01*
X182401000Y-99867750D01*
X182401000Y-100592000D01*
X182421000Y-100592000D01*
X182421000Y-100846000D01*
X182401000Y-100846000D01*
X182401000Y-100866000D01*
X182147000Y-100866000D01*
X182147000Y-100846000D01*
X181397750Y-100846000D01*
X181239000Y-101004750D01*
X181235928Y-101094000D01*
X181248188Y-101218482D01*
X181284498Y-101338180D01*
X181343463Y-101448494D01*
X181350464Y-101457024D01*
X181274000Y-101455928D01*
X181149518Y-101468188D01*
X181029820Y-101504498D01*
X180919506Y-101563463D01*
X180822815Y-101642815D01*
X180743463Y-101739506D01*
X180684498Y-101849820D01*
X180648188Y-101969518D01*
X180635928Y-102094000D01*
X180639000Y-102433250D01*
X180797750Y-102592000D01*
X181647000Y-102592000D01*
X181647000Y-102572000D01*
X181901000Y-102572000D01*
X181901000Y-102592000D01*
X181921000Y-102592000D01*
X181921000Y-102846000D01*
X181901000Y-102846000D01*
X181901000Y-103820250D01*
X182059750Y-103979000D01*
X182274000Y-103982072D01*
X182398482Y-103969812D01*
X182518180Y-103933502D01*
X182628494Y-103874537D01*
X182725185Y-103795185D01*
X182804537Y-103698494D01*
X182863502Y-103588180D01*
X182863557Y-103587999D01*
X182875471Y-103610289D01*
X182935079Y-103682921D01*
X183007711Y-103742529D01*
X183090577Y-103786822D01*
X183150010Y-103804851D01*
X183153707Y-103842383D01*
X183189697Y-103961025D01*
X183248141Y-104070367D01*
X183326794Y-104166206D01*
X183350813Y-104185918D01*
X184807086Y-105642192D01*
X184826794Y-105666206D01*
X184922632Y-105744859D01*
X185031974Y-105803303D01*
X185150616Y-105839293D01*
X185243083Y-105848400D01*
X185243092Y-105848400D01*
X185273999Y-105851444D01*
X185304906Y-105848400D01*
X188567399Y-105848400D01*
X188655952Y-105907569D01*
X188797357Y-105966141D01*
X188947472Y-105996000D01*
X189100528Y-105996000D01*
X189250643Y-105966141D01*
X189392048Y-105907569D01*
X189519309Y-105822536D01*
X189627536Y-105714309D01*
X189712569Y-105587048D01*
X189771141Y-105445643D01*
X189801000Y-105295528D01*
X189801000Y-105142472D01*
X189771141Y-104992357D01*
X189712569Y-104850952D01*
X189627536Y-104723691D01*
X189519309Y-104615464D01*
X189392048Y-104530431D01*
X189250643Y-104471859D01*
X189100528Y-104442000D01*
X188947472Y-104442000D01*
X188797357Y-104471859D01*
X188655952Y-104530431D01*
X188567399Y-104589600D01*
X185534706Y-104589600D01*
X184619730Y-103674625D01*
X184672529Y-103610289D01*
X184716822Y-103527423D01*
X184744097Y-103437508D01*
X184753307Y-103344000D01*
X184753307Y-102094000D01*
X184744097Y-102000492D01*
X184716822Y-101910577D01*
X184672529Y-101827711D01*
X184612921Y-101755079D01*
X184540289Y-101695471D01*
X184457423Y-101651178D01*
X184378000Y-101627086D01*
X184378000Y-101525823D01*
X184440289Y-101492529D01*
X184512921Y-101432921D01*
X184567379Y-101366564D01*
X185325927Y-102125112D01*
X185344841Y-102148159D01*
X185424627Y-102213637D01*
X185436812Y-102223637D01*
X185541741Y-102279723D01*
X185655595Y-102314260D01*
X185670001Y-102315679D01*
X185670000Y-102641802D01*
X185628222Y-102692709D01*
X185571454Y-102798915D01*
X185536497Y-102914155D01*
X185524693Y-103034000D01*
X185524693Y-103404000D01*
X185536497Y-103523845D01*
X185571454Y-103639085D01*
X185628222Y-103745291D01*
X185704619Y-103838381D01*
X185797709Y-103914778D01*
X185903915Y-103971546D01*
X186019155Y-104006503D01*
X186139000Y-104018307D01*
X186409000Y-104018307D01*
X186528845Y-104006503D01*
X186576244Y-103992125D01*
X186662980Y-104065118D01*
X186772558Y-104125441D01*
X186891798Y-104163226D01*
X187008250Y-104174000D01*
X187167000Y-104015250D01*
X187167000Y-103346000D01*
X187421000Y-103346000D01*
X187421000Y-104015250D01*
X187579750Y-104174000D01*
X187696202Y-104163226D01*
X187815442Y-104125441D01*
X187925020Y-104065118D01*
X188020724Y-103984578D01*
X188098876Y-103886914D01*
X188156473Y-103775879D01*
X188191301Y-103655742D01*
X188202023Y-103531119D01*
X188199000Y-103504750D01*
X188040250Y-103346000D01*
X187421000Y-103346000D01*
X187167000Y-103346000D01*
X187147000Y-103346000D01*
X187147000Y-103092000D01*
X187167000Y-103092000D01*
X187167000Y-103072000D01*
X187421000Y-103072000D01*
X187421000Y-103092000D01*
X188040250Y-103092000D01*
X188199000Y-102933250D01*
X188202023Y-102906881D01*
X188191301Y-102782258D01*
X188156473Y-102662121D01*
X188098876Y-102551086D01*
X188020724Y-102453422D01*
X187925020Y-102372882D01*
X187856172Y-102334981D01*
X187929778Y-102245291D01*
X187986546Y-102139085D01*
X188021503Y-102023845D01*
X188033307Y-101904000D01*
X188033307Y-101813877D01*
X188097000Y-101750184D01*
X188097000Y-101910301D01*
X188132624Y-102089396D01*
X188202504Y-102258099D01*
X188303952Y-102409928D01*
X188433072Y-102539048D01*
X188584901Y-102640496D01*
X188753604Y-102710376D01*
X188932699Y-102746000D01*
X189115301Y-102746000D01*
X189294396Y-102710376D01*
X189463099Y-102640496D01*
X189614928Y-102539048D01*
X189744048Y-102409928D01*
X189845496Y-102258099D01*
X189915376Y-102089396D01*
X189951000Y-101910301D01*
X189951000Y-101727699D01*
X189915376Y-101548604D01*
X189845496Y-101379901D01*
X189744048Y-101228072D01*
X189614928Y-101098952D01*
X189463099Y-100997504D01*
X189294396Y-100927624D01*
X189115301Y-100892000D01*
X188955185Y-100892000D01*
X189680113Y-100167072D01*
X189703159Y-100148159D01*
X189778637Y-100056188D01*
X189834723Y-99951259D01*
X189869260Y-99837405D01*
X189878000Y-99748667D01*
X189878000Y-99748666D01*
X189880922Y-99719000D01*
X189878000Y-99689333D01*
X189878000Y-96719184D01*
X190317302Y-96279883D01*
X190332711Y-96292529D01*
X190415577Y-96336822D01*
X190505492Y-96364097D01*
X190599000Y-96373307D01*
X191949000Y-96373307D01*
X192042508Y-96364097D01*
X192132423Y-96336822D01*
X192215289Y-96292529D01*
X192287921Y-96232921D01*
X192347529Y-96160289D01*
X192391822Y-96077423D01*
X192419097Y-95987508D01*
X192428307Y-95894000D01*
X192428307Y-94544000D01*
X192419097Y-94450492D01*
X192391822Y-94360577D01*
X192347529Y-94277711D01*
X192287921Y-94205079D01*
X192215289Y-94145471D01*
X192132423Y-94101178D01*
X192042508Y-94073903D01*
X191949000Y-94064693D01*
X190599000Y-94064693D01*
X190505492Y-94073903D01*
X190415577Y-94101178D01*
X190332711Y-94145471D01*
X190260079Y-94205079D01*
X190200471Y-94277711D01*
X190156178Y-94360577D01*
X190128903Y-94450492D01*
X190119693Y-94544000D01*
X190119693Y-94769446D01*
X190094841Y-94789841D01*
X190075929Y-94812886D01*
X188878000Y-96010816D01*
X188878000Y-93719184D01*
X190511505Y-92085679D01*
X190539643Y-92113817D01*
X190728323Y-92239889D01*
X190937974Y-92326729D01*
X191160538Y-92371000D01*
X191387462Y-92371000D01*
X191610026Y-92326729D01*
X191819677Y-92239889D01*
X192008357Y-92113817D01*
X192168817Y-91953357D01*
X192294889Y-91764677D01*
X192381729Y-91555026D01*
X192426000Y-91332462D01*
X192426000Y-91105538D01*
X192381729Y-90882974D01*
X192294889Y-90673323D01*
X192168817Y-90484643D01*
X192008357Y-90324183D01*
X191987954Y-90310550D01*
X192063537Y-90264344D01*
X192252303Y-90090227D01*
X192403473Y-89882629D01*
X192511238Y-89649528D01*
X192541910Y-89548400D01*
X192418224Y-89346000D01*
X191401000Y-89346000D01*
X191401000Y-89366000D01*
X191147000Y-89366000D01*
X191147000Y-89346000D01*
X190129776Y-89346000D01*
X190006090Y-89548400D01*
X190036762Y-89649528D01*
X190144527Y-89882629D01*
X190295697Y-90090227D01*
X190484463Y-90264344D01*
X190560046Y-90310550D01*
X190539643Y-90324183D01*
X190379183Y-90484643D01*
X190253111Y-90673323D01*
X190250131Y-90680518D01*
X190186812Y-90714363D01*
X190094841Y-90789841D01*
X190075929Y-90812886D01*
X187867889Y-93020927D01*
X187844842Y-93039841D01*
X187798755Y-93095999D01*
X187769363Y-93131813D01*
X187713278Y-93236741D01*
X187678740Y-93350596D01*
X187667078Y-93469000D01*
X187670001Y-93498677D01*
X187670000Y-99218815D01*
X187463732Y-99425084D01*
X187409000Y-99419693D01*
X187139000Y-99419693D01*
X187024051Y-99431015D01*
X187051000Y-99295528D01*
X187051000Y-99142472D01*
X187021141Y-98992357D01*
X186962569Y-98850952D01*
X186877536Y-98723691D01*
X186769309Y-98615464D01*
X186642048Y-98530431D01*
X186500643Y-98471859D01*
X186350528Y-98442000D01*
X186197472Y-98442000D01*
X186047357Y-98471859D01*
X185905952Y-98530431D01*
X185778691Y-98615464D01*
X185670464Y-98723691D01*
X185585431Y-98850952D01*
X185526859Y-98992357D01*
X185497000Y-99142472D01*
X185497000Y-99295528D01*
X185526859Y-99445643D01*
X185585431Y-99587048D01*
X185634575Y-99660598D01*
X185608222Y-99692709D01*
X185551454Y-99798915D01*
X185516497Y-99914155D01*
X185504693Y-100034000D01*
X185504693Y-100404000D01*
X185516497Y-100523845D01*
X185551454Y-100639085D01*
X185555111Y-100645926D01*
X185378000Y-100468816D01*
X185378000Y-97498667D01*
X185380922Y-97469000D01*
X185369260Y-97350595D01*
X185334723Y-97236741D01*
X185278637Y-97131812D01*
X185253018Y-97100595D01*
X185203159Y-97039841D01*
X185180112Y-97020927D01*
X184180114Y-96020930D01*
X184111187Y-95964363D01*
X184055712Y-95934711D01*
X183851000Y-95729999D01*
X183851000Y-95515971D01*
X183853308Y-95469000D01*
X183853308Y-95048308D01*
X184274000Y-95048308D01*
X184286684Y-95047685D01*
X184386036Y-95147036D01*
X184451886Y-95201078D01*
X184552123Y-95254656D01*
X184660888Y-95287650D01*
X184773999Y-95298790D01*
X184887111Y-95287650D01*
X184995876Y-95254656D01*
X185096113Y-95201078D01*
X185183973Y-95128973D01*
X185251589Y-95046583D01*
X185273999Y-95048790D01*
X185387111Y-95037650D01*
X185495876Y-95004656D01*
X185596113Y-94951078D01*
X185683973Y-94878973D01*
X185756078Y-94791113D01*
X185809656Y-94690876D01*
X185842650Y-94582111D01*
X185853790Y-94468999D01*
X185842650Y-94355888D01*
X185809656Y-94247123D01*
X185766718Y-94166792D01*
X185796115Y-94151079D01*
X185883974Y-94078974D01*
X185956079Y-93991115D01*
X186009657Y-93890876D01*
X186042650Y-93782112D01*
X186053791Y-93669000D01*
X186042650Y-93555888D01*
X186009657Y-93447124D01*
X185956079Y-93346885D01*
X185883974Y-93259026D01*
X185858810Y-93238374D01*
X186680112Y-92417073D01*
X186703159Y-92398159D01*
X186778637Y-92306188D01*
X186834723Y-92201259D01*
X186869260Y-92087405D01*
X186878000Y-91998667D01*
X186880922Y-91969000D01*
X186878000Y-91939333D01*
X186878000Y-88889600D01*
X190006090Y-88889600D01*
X190129776Y-89092000D01*
X191147000Y-89092000D01*
X191147000Y-88073915D01*
X191401000Y-88073915D01*
X191401000Y-89092000D01*
X192418224Y-89092000D01*
X192541910Y-88889600D01*
X192511238Y-88788472D01*
X192403473Y-88555371D01*
X192252303Y-88347773D01*
X192063537Y-88173656D01*
X191844430Y-88039711D01*
X191603401Y-87951085D01*
X191401000Y-88073915D01*
X191147000Y-88073915D01*
X190944599Y-87951085D01*
X190703570Y-88039711D01*
X190484463Y-88173656D01*
X190295697Y-88347773D01*
X190144527Y-88555371D01*
X190036762Y-88788472D01*
X190006090Y-88889600D01*
X186878000Y-88889600D01*
X186878000Y-86469184D01*
X187524185Y-85823000D01*
X188244333Y-85823000D01*
X188274000Y-85825922D01*
X188303667Y-85823000D01*
X188392405Y-85814260D01*
X188506259Y-85779723D01*
X188611188Y-85723637D01*
X188703159Y-85648159D01*
X188722078Y-85625107D01*
X189680112Y-84667073D01*
X189703159Y-84648159D01*
X189778637Y-84556188D01*
X189834723Y-84451259D01*
X189869260Y-84337405D01*
X189878000Y-84248667D01*
X189880922Y-84219000D01*
X189878000Y-84189333D01*
X189878000Y-83796198D01*
X189919778Y-83745291D01*
X189976546Y-83639085D01*
X190011503Y-83523845D01*
X190023307Y-83404000D01*
X190023307Y-83034000D01*
X190015905Y-82958845D01*
X190069537Y-82893494D01*
X190128502Y-82783180D01*
X190164812Y-82663482D01*
X190177072Y-82539000D01*
X190174000Y-82504750D01*
X190015250Y-82346000D01*
X189371000Y-82346000D01*
X189371000Y-82366000D01*
X189117000Y-82366000D01*
X189117000Y-82346000D01*
X189097000Y-82346000D01*
X189097000Y-82092000D01*
X189117000Y-82092000D01*
X189117000Y-81422750D01*
X189371000Y-81422750D01*
X189371000Y-82092000D01*
X190015250Y-82092000D01*
X190174000Y-81933250D01*
X190177072Y-81899000D01*
X190164812Y-81774518D01*
X190128502Y-81654820D01*
X190069537Y-81544506D01*
X189990185Y-81447815D01*
X189893494Y-81368463D01*
X189783180Y-81309498D01*
X189663482Y-81273188D01*
X189539000Y-81260928D01*
X189529750Y-81264000D01*
X189371000Y-81422750D01*
X189117000Y-81422750D01*
X188958250Y-81264000D01*
X188949000Y-81260928D01*
X188824518Y-81273188D01*
X188704820Y-81309498D01*
X188594506Y-81368463D01*
X188520233Y-81429417D01*
X188421500Y-81419693D01*
X188126500Y-81419693D01*
X188004216Y-81431737D01*
X187886631Y-81467406D01*
X187778265Y-81525329D01*
X187683281Y-81603281D01*
X187605329Y-81698265D01*
X187547406Y-81806631D01*
X187511737Y-81924216D01*
X187499693Y-82046500D01*
X187499693Y-82391500D01*
X187511737Y-82513784D01*
X187547406Y-82631369D01*
X187594208Y-82718928D01*
X187551454Y-82798915D01*
X187516497Y-82914155D01*
X187504693Y-83034000D01*
X187504693Y-83404000D01*
X187516497Y-83523845D01*
X187551454Y-83639085D01*
X187608222Y-83745291D01*
X187684619Y-83838381D01*
X187777709Y-83914778D01*
X187883915Y-83971546D01*
X187999155Y-84006503D01*
X188119000Y-84018307D01*
X188389000Y-84018307D01*
X188508845Y-84006503D01*
X188624085Y-83971546D01*
X188670001Y-83947004D01*
X188670001Y-83968814D01*
X188023816Y-84615000D01*
X187303667Y-84615000D01*
X187274000Y-84612078D01*
X187244333Y-84615000D01*
X187155595Y-84623740D01*
X187041741Y-84658277D01*
X186936812Y-84714363D01*
X186844841Y-84789841D01*
X186825929Y-84812886D01*
X185878000Y-85760816D01*
X185878000Y-78469184D01*
X191190112Y-73157073D01*
X191213159Y-73138159D01*
X191288637Y-73046188D01*
X191344723Y-72941259D01*
X191379260Y-72827405D01*
X191381561Y-72804044D01*
X191429778Y-72745291D01*
X191486546Y-72639085D01*
X191521503Y-72523845D01*
X191533307Y-72404000D01*
X191533307Y-72034000D01*
X191526441Y-71964285D01*
X191584537Y-71893494D01*
X191643502Y-71783180D01*
X191679812Y-71663482D01*
X191692072Y-71539000D01*
X191689000Y-71504750D01*
X191530250Y-71346000D01*
X190886000Y-71346000D01*
X190886000Y-71366000D01*
X190632000Y-71366000D01*
X190632000Y-71346000D01*
X190612000Y-71346000D01*
X190612000Y-71092000D01*
X190632000Y-71092000D01*
X190632000Y-70422750D01*
X190886000Y-70422750D01*
X190886000Y-71092000D01*
X191530250Y-71092000D01*
X191689000Y-70933250D01*
X191692072Y-70899000D01*
X191679812Y-70774518D01*
X191643502Y-70654820D01*
X191584537Y-70544506D01*
X191505185Y-70447815D01*
X191408494Y-70368463D01*
X191298180Y-70309498D01*
X191178482Y-70273188D01*
X191054000Y-70260928D01*
X191044750Y-70264000D01*
X190886000Y-70422750D01*
X190632000Y-70422750D01*
X190473250Y-70264000D01*
X190464000Y-70260928D01*
X190339518Y-70273188D01*
X190219820Y-70309498D01*
X190109506Y-70368463D01*
X190035233Y-70429417D01*
X189936500Y-70419693D01*
X189641500Y-70419693D01*
X189519216Y-70431737D01*
X189401631Y-70467406D01*
X189293265Y-70525329D01*
X189198281Y-70603281D01*
X189120329Y-70698265D01*
X189062406Y-70806631D01*
X189026737Y-70924216D01*
X189014693Y-71046500D01*
X189014693Y-71391500D01*
X189026737Y-71513784D01*
X189062406Y-71631369D01*
X189106708Y-71714251D01*
X189061454Y-71798915D01*
X189026497Y-71914155D01*
X189014693Y-72034000D01*
X189014693Y-72404000D01*
X189026497Y-72523845D01*
X189061454Y-72639085D01*
X189118222Y-72745291D01*
X189194619Y-72838381D01*
X189287709Y-72914778D01*
X189393915Y-72971546D01*
X189509155Y-73006503D01*
X189621270Y-73017546D01*
X184878000Y-77760816D01*
X184878000Y-77469184D01*
X188680112Y-73667073D01*
X188703159Y-73648159D01*
X188778637Y-73556188D01*
X188834723Y-73451259D01*
X188869260Y-73337405D01*
X188878000Y-73248667D01*
X188878000Y-73248665D01*
X188880922Y-73219001D01*
X188878000Y-73189336D01*
X188878000Y-65629587D01*
X188954000Y-65637072D01*
X188988250Y-65634000D01*
X189147000Y-65475250D01*
X189147000Y-64831000D01*
X189401000Y-64831000D01*
X189401000Y-65475250D01*
X189559750Y-65634000D01*
X189594000Y-65637072D01*
X189718482Y-65624812D01*
X189838180Y-65588502D01*
X189948494Y-65529537D01*
X190045185Y-65450185D01*
X190124537Y-65353494D01*
X190183502Y-65243180D01*
X190219812Y-65123482D01*
X190232072Y-64999000D01*
X190229000Y-64989750D01*
X190070250Y-64831000D01*
X189401000Y-64831000D01*
X189147000Y-64831000D01*
X189127000Y-64831000D01*
X189127000Y-64577000D01*
X189147000Y-64577000D01*
X189147000Y-64557000D01*
X189401000Y-64557000D01*
X189401000Y-64577000D01*
X190070250Y-64577000D01*
X190229000Y-64418250D01*
X190232072Y-64409000D01*
X190219812Y-64284518D01*
X190183502Y-64164820D01*
X190124537Y-64054506D01*
X190063583Y-63980233D01*
X190073307Y-63881500D01*
X190073307Y-63586500D01*
X190061263Y-63464216D01*
X190025594Y-63346631D01*
X189967671Y-63238265D01*
X189889719Y-63143281D01*
X189794735Y-63065329D01*
X189686369Y-63007406D01*
X189568784Y-62971737D01*
X189446500Y-62959693D01*
X189101500Y-62959693D01*
X188979216Y-62971737D01*
X188861631Y-63007406D01*
X188778749Y-63051708D01*
X188694085Y-63006454D01*
X188578845Y-62971497D01*
X188459000Y-62959693D01*
X188089000Y-62959693D01*
X187969155Y-62971497D01*
X187853915Y-63006454D01*
X187747709Y-63063222D01*
X187654619Y-63139619D01*
X187578222Y-63232709D01*
X187521454Y-63338915D01*
X187486497Y-63454155D01*
X187474693Y-63574000D01*
X187474693Y-63844000D01*
X187486497Y-63963845D01*
X187521454Y-64079085D01*
X187578222Y-64185291D01*
X187605886Y-64219000D01*
X187578222Y-64252709D01*
X187521454Y-64358915D01*
X187486497Y-64474155D01*
X187474693Y-64594000D01*
X187474693Y-64864000D01*
X187486497Y-64983845D01*
X187521454Y-65099085D01*
X187578222Y-65205291D01*
X187654619Y-65298381D01*
X187670000Y-65311004D01*
X187670001Y-72968814D01*
X186878000Y-73760815D01*
X186878000Y-72248666D01*
X186880922Y-72219000D01*
X186869260Y-72100595D01*
X186834723Y-71986741D01*
X186778637Y-71881812D01*
X186753286Y-71850922D01*
X186703159Y-71789841D01*
X186680113Y-71770928D01*
X181878000Y-66968816D01*
X181878000Y-62311004D01*
X181893381Y-62298381D01*
X181969778Y-62205291D01*
X182026546Y-62099085D01*
X182061503Y-61983845D01*
X182073307Y-61864000D01*
X182073307Y-61594000D01*
X182061503Y-61474155D01*
X182026546Y-61358915D01*
X181969778Y-61252709D01*
X181942114Y-61219000D01*
X181969778Y-61185291D01*
X182026546Y-61079085D01*
X182061503Y-60963845D01*
X182073307Y-60844000D01*
X182073307Y-60574000D01*
X182061503Y-60454155D01*
X182026546Y-60338915D01*
X181969778Y-60232709D01*
X181893381Y-60139619D01*
X181800291Y-60063222D01*
X181694085Y-60006454D01*
X181578845Y-59971497D01*
X181459000Y-59959693D01*
X181089000Y-59959693D01*
X180969155Y-59971497D01*
X180853915Y-60006454D01*
X180769251Y-60051708D01*
X180686369Y-60007406D01*
X180568784Y-59971737D01*
X180446500Y-59959693D01*
X180101500Y-59959693D01*
X179979216Y-59971737D01*
X179861631Y-60007406D01*
X179753265Y-60065329D01*
X179658281Y-60143281D01*
X179580329Y-60238265D01*
X179522406Y-60346631D01*
X179486737Y-60464216D01*
X179474693Y-60586500D01*
X179474693Y-60881500D01*
X179484417Y-60980233D01*
X179423463Y-61054506D01*
X179364498Y-61164820D01*
X179328188Y-61284518D01*
X179315928Y-61409000D01*
X179319000Y-61418250D01*
X179477750Y-61577000D01*
X180147000Y-61577000D01*
X180147000Y-61557000D01*
X180401000Y-61557000D01*
X180401000Y-61577000D01*
X180421000Y-61577000D01*
X180421000Y-61831000D01*
X180401000Y-61831000D01*
X180401000Y-62475250D01*
X180559750Y-62634000D01*
X180594000Y-62637072D01*
X180670000Y-62629587D01*
X180670001Y-67189323D01*
X180667078Y-67219000D01*
X180678740Y-67337404D01*
X180713278Y-67451259D01*
X180769364Y-67556188D01*
X180844842Y-67648159D01*
X180867889Y-67667073D01*
X185042312Y-71841497D01*
X185024000Y-71839693D01*
X184124000Y-71839693D01*
X184030492Y-71848903D01*
X183940577Y-71876178D01*
X183857711Y-71920471D01*
X183785079Y-71980079D01*
X183725471Y-72052711D01*
X183681178Y-72135577D01*
X183653903Y-72225492D01*
X183644693Y-72319000D01*
X183644693Y-73019000D01*
X183653903Y-73112508D01*
X183681178Y-73202423D01*
X183690039Y-73219000D01*
X183681178Y-73235577D01*
X183653903Y-73325492D01*
X183644693Y-73419000D01*
X183644693Y-73958201D01*
X183433326Y-74169568D01*
X183438307Y-74119000D01*
X183438307Y-73435918D01*
X183489537Y-73373494D01*
X183548502Y-73263180D01*
X183584812Y-73143482D01*
X183597072Y-73019000D01*
X183594000Y-72954750D01*
X183435250Y-72796000D01*
X182636000Y-72796000D01*
X182636000Y-72816000D01*
X182382000Y-72816000D01*
X182382000Y-72796000D01*
X181582750Y-72796000D01*
X181424000Y-72954750D01*
X181420928Y-73019000D01*
X181433188Y-73143482D01*
X181469498Y-73263180D01*
X181528463Y-73373494D01*
X181579693Y-73435918D01*
X181579693Y-74119000D01*
X181588903Y-74212508D01*
X181616178Y-74302423D01*
X181660471Y-74385289D01*
X181720079Y-74457921D01*
X181792711Y-74517529D01*
X181870001Y-74558842D01*
X181870001Y-74960816D01*
X179228185Y-72319000D01*
X181420928Y-72319000D01*
X181424000Y-72383250D01*
X181582750Y-72542000D01*
X182382000Y-72542000D01*
X182382000Y-71842750D01*
X182636000Y-71842750D01*
X182636000Y-72542000D01*
X183435250Y-72542000D01*
X183594000Y-72383250D01*
X183597072Y-72319000D01*
X183584812Y-72194518D01*
X183548502Y-72074820D01*
X183489537Y-71964506D01*
X183410185Y-71867815D01*
X183313494Y-71788463D01*
X183203180Y-71729498D01*
X183083482Y-71693188D01*
X182959000Y-71680928D01*
X182794750Y-71684000D01*
X182636000Y-71842750D01*
X182382000Y-71842750D01*
X182223250Y-71684000D01*
X182059000Y-71680928D01*
X181934518Y-71693188D01*
X181814820Y-71729498D01*
X181704506Y-71788463D01*
X181607815Y-71867815D01*
X181528463Y-71964506D01*
X181469498Y-72074820D01*
X181433188Y-72194518D01*
X181420928Y-72319000D01*
X179228185Y-72319000D01*
X178722078Y-71812894D01*
X178703159Y-71789841D01*
X178611188Y-71714363D01*
X178506259Y-71658277D01*
X178392405Y-71623740D01*
X178303667Y-71615000D01*
X178274000Y-71612078D01*
X178244333Y-71615000D01*
X176684587Y-71615000D01*
X176692072Y-71539000D01*
X176689000Y-71504750D01*
X176530250Y-71346000D01*
X175886000Y-71346000D01*
X175886000Y-71366000D01*
X175632000Y-71366000D01*
X175632000Y-71346000D01*
X175612000Y-71346000D01*
X175612000Y-71092000D01*
X175632000Y-71092000D01*
X175632000Y-70422750D01*
X175886000Y-70422750D01*
X175886000Y-71092000D01*
X176530250Y-71092000D01*
X176689000Y-70933250D01*
X176692072Y-70899000D01*
X176679812Y-70774518D01*
X176643502Y-70654820D01*
X176584537Y-70544506D01*
X176505185Y-70447815D01*
X176408494Y-70368463D01*
X176298180Y-70309498D01*
X176178482Y-70273188D01*
X176054000Y-70260928D01*
X176044750Y-70264000D01*
X175886000Y-70422750D01*
X175632000Y-70422750D01*
X175473250Y-70264000D01*
X175464000Y-70260928D01*
X175339518Y-70273188D01*
X175219820Y-70309498D01*
X175109506Y-70368463D01*
X175035233Y-70429417D01*
X174936500Y-70419693D01*
X174641500Y-70419693D01*
X174519216Y-70431737D01*
X174401631Y-70467406D01*
X174293265Y-70525329D01*
X174198281Y-70603281D01*
X174120329Y-70698265D01*
X174062406Y-70806631D01*
X174026737Y-70924216D01*
X174014693Y-71046500D01*
X174014693Y-71391500D01*
X174026737Y-71513784D01*
X174062406Y-71631369D01*
X174106708Y-71714251D01*
X174061454Y-71798915D01*
X174026497Y-71914155D01*
X174014693Y-72034000D01*
X174014693Y-72404000D01*
X174026497Y-72523845D01*
X174061454Y-72639085D01*
X174118222Y-72745291D01*
X174194619Y-72838381D01*
X174287709Y-72914778D01*
X174393915Y-72971546D01*
X174509155Y-73006503D01*
X174629000Y-73018307D01*
X174899000Y-73018307D01*
X175018845Y-73006503D01*
X175134085Y-72971546D01*
X175240291Y-72914778D01*
X175274000Y-72887114D01*
X175307709Y-72914778D01*
X175413915Y-72971546D01*
X175529155Y-73006503D01*
X175649000Y-73018307D01*
X175919000Y-73018307D01*
X176038845Y-73006503D01*
X176154085Y-72971546D01*
X176260291Y-72914778D01*
X176353381Y-72838381D01*
X176366004Y-72823000D01*
X178023816Y-72823000D01*
X181170001Y-75969186D01*
X181170000Y-90260816D01*
X180878000Y-89968816D01*
X180878000Y-87248667D01*
X180880922Y-87219000D01*
X180869260Y-87100595D01*
X180834723Y-86986741D01*
X180778637Y-86881812D01*
X180742994Y-86838381D01*
X180703159Y-86789841D01*
X180680112Y-86770927D01*
X179722078Y-85812893D01*
X179703159Y-85789841D01*
X179611188Y-85714363D01*
X179506259Y-85658277D01*
X179392405Y-85623740D01*
X179303667Y-85615000D01*
X179274000Y-85612078D01*
X179244333Y-85615000D01*
X178684587Y-85615000D01*
X178692072Y-85539000D01*
X178689000Y-85504750D01*
X178530250Y-85346000D01*
X177886000Y-85346000D01*
X177886000Y-85366000D01*
X177632000Y-85366000D01*
X177632000Y-85346000D01*
X177612000Y-85346000D01*
X177612000Y-85092000D01*
X177632000Y-85092000D01*
X177632000Y-84422750D01*
X177886000Y-84422750D01*
X177886000Y-85092000D01*
X178530250Y-85092000D01*
X178689000Y-84933250D01*
X178692072Y-84899000D01*
X178679812Y-84774518D01*
X178643502Y-84654820D01*
X178584537Y-84544506D01*
X178505185Y-84447815D01*
X178408494Y-84368463D01*
X178298180Y-84309498D01*
X178178482Y-84273188D01*
X178054000Y-84260928D01*
X178044750Y-84264000D01*
X177886000Y-84422750D01*
X177632000Y-84422750D01*
X177473250Y-84264000D01*
X177464000Y-84260928D01*
X177339518Y-84273188D01*
X177219820Y-84309498D01*
X177109506Y-84368463D01*
X177035233Y-84429417D01*
X176936500Y-84419693D01*
X176641500Y-84419693D01*
X176519216Y-84431737D01*
X176401631Y-84467406D01*
X176293265Y-84525329D01*
X176198281Y-84603281D01*
X176120329Y-84698265D01*
X176062406Y-84806631D01*
X176026737Y-84924216D01*
X176014693Y-85046500D01*
X176014693Y-85391500D01*
X176026737Y-85513784D01*
X176062406Y-85631369D01*
X176106708Y-85714251D01*
X176061454Y-85798915D01*
X176026497Y-85914155D01*
X176014693Y-86034000D01*
X176014693Y-86404000D01*
X176026497Y-86523845D01*
X176061454Y-86639085D01*
X176118222Y-86745291D01*
X176194619Y-86838381D01*
X176287709Y-86914778D01*
X176393915Y-86971546D01*
X176509155Y-87006503D01*
X176629000Y-87018307D01*
X176899000Y-87018307D01*
X177018845Y-87006503D01*
X177134085Y-86971546D01*
X177240291Y-86914778D01*
X177274000Y-86887114D01*
X177307709Y-86914778D01*
X177413915Y-86971546D01*
X177529155Y-87006503D01*
X177649000Y-87018307D01*
X177919000Y-87018307D01*
X178038845Y-87006503D01*
X178154085Y-86971546D01*
X178260291Y-86914778D01*
X178353381Y-86838381D01*
X178366004Y-86823000D01*
X179023816Y-86823000D01*
X179670001Y-87469186D01*
X179670000Y-90189333D01*
X179667078Y-90219000D01*
X179674166Y-90290963D01*
X179678740Y-90337404D01*
X179713277Y-90451258D01*
X179769363Y-90556187D01*
X179844841Y-90648159D01*
X179867893Y-90667078D01*
X180867885Y-91667070D01*
X180936812Y-91723637D01*
X180992289Y-91753290D01*
X181095315Y-91856316D01*
X181094692Y-91869000D01*
X181094692Y-92289692D01*
X180674000Y-92289692D01*
X180661316Y-92290315D01*
X180558290Y-92187289D01*
X180528637Y-92131812D01*
X180453159Y-92039841D01*
X180361188Y-91964363D01*
X180256259Y-91908277D01*
X180142405Y-91873740D01*
X180053667Y-91865000D01*
X177053667Y-91865000D01*
X177024000Y-91862078D01*
X176994333Y-91865000D01*
X176905595Y-91873740D01*
X176791741Y-91908277D01*
X176686812Y-91964363D01*
X176594841Y-92039841D01*
X176575929Y-92062886D01*
X166023816Y-102615000D01*
X155524185Y-102615000D01*
X153722078Y-100812894D01*
X153703159Y-100789841D01*
X153611188Y-100714363D01*
X153506259Y-100658277D01*
X153392405Y-100623740D01*
X153303667Y-100615000D01*
X153274000Y-100612078D01*
X153244333Y-100615000D01*
X140303666Y-100615000D01*
X140273999Y-100612078D01*
X140155595Y-100623740D01*
X140041741Y-100658277D01*
X139936812Y-100714363D01*
X139844841Y-100789841D01*
X139825929Y-100812886D01*
X138023816Y-102615000D01*
X130303664Y-102615000D01*
X130273999Y-102612078D01*
X130244335Y-102615000D01*
X130244333Y-102615000D01*
X130155595Y-102623740D01*
X130041741Y-102658277D01*
X129936812Y-102714363D01*
X129844841Y-102789841D01*
X129825929Y-102812886D01*
X126023816Y-106615000D01*
X116524185Y-106615000D01*
X114722078Y-104812894D01*
X114703159Y-104789841D01*
X114611188Y-104714363D01*
X114506259Y-104658277D01*
X114392405Y-104623740D01*
X114303667Y-104615000D01*
X114274000Y-104612078D01*
X114244333Y-104615000D01*
X113366004Y-104615000D01*
X113353381Y-104599619D01*
X113260291Y-104523222D01*
X113154085Y-104466454D01*
X113038845Y-104431497D01*
X112919000Y-104419693D01*
X112649000Y-104419693D01*
X112529155Y-104431497D01*
X112413915Y-104466454D01*
X112307709Y-104523222D01*
X112274000Y-104550886D01*
X112240291Y-104523222D01*
X112134085Y-104466454D01*
X112018845Y-104431497D01*
X111899000Y-104419693D01*
X111629000Y-104419693D01*
X111509155Y-104431497D01*
X111393915Y-104466454D01*
X111287709Y-104523222D01*
X111194619Y-104599619D01*
X111118222Y-104692709D01*
X111061454Y-104798915D01*
X111026497Y-104914155D01*
X111014693Y-105034000D01*
X103826000Y-105034000D01*
X103826000Y-103658133D01*
X107864472Y-103658133D01*
X107926965Y-103894450D01*
X108169678Y-104007850D01*
X108429849Y-104071719D01*
X108697482Y-104083604D01*
X108962291Y-104043048D01*
X109214100Y-103951609D01*
X109321035Y-103894450D01*
X109383528Y-103658133D01*
X108624000Y-102898605D01*
X107864472Y-103658133D01*
X103826000Y-103658133D01*
X103826000Y-102036609D01*
X104380538Y-102036609D01*
X104384409Y-102074282D01*
X104476579Y-102299533D01*
X104610922Y-102502474D01*
X104782275Y-102675307D01*
X104984054Y-102811390D01*
X105208504Y-102905493D01*
X105447000Y-102954000D01*
X105797000Y-102954000D01*
X105797000Y-101846000D01*
X106051000Y-101846000D01*
X106051000Y-102954000D01*
X106401000Y-102954000D01*
X106639496Y-102905493D01*
X106863946Y-102811390D01*
X107065725Y-102675307D01*
X107237078Y-102502474D01*
X107300171Y-102407164D01*
X107271281Y-102524849D01*
X107259396Y-102792482D01*
X107299952Y-103057291D01*
X107391391Y-103309100D01*
X107448550Y-103416035D01*
X107684867Y-103478528D01*
X108444395Y-102719000D01*
X108803605Y-102719000D01*
X109563133Y-103478528D01*
X109799450Y-103416035D01*
X109912850Y-103173322D01*
X109976719Y-102913151D01*
X109988604Y-102645518D01*
X109948048Y-102380709D01*
X109856609Y-102128900D01*
X109799450Y-102021965D01*
X109563133Y-101959472D01*
X108803605Y-102719000D01*
X108444395Y-102719000D01*
X107684867Y-101959472D01*
X107456503Y-102019862D01*
X107342731Y-101846000D01*
X106051000Y-101846000D01*
X105797000Y-101846000D01*
X104505269Y-101846000D01*
X104380538Y-102036609D01*
X103826000Y-102036609D01*
X103826000Y-101779867D01*
X107864472Y-101779867D01*
X108624000Y-102539395D01*
X109383528Y-101779867D01*
X109321035Y-101543550D01*
X109078322Y-101430150D01*
X108818151Y-101366281D01*
X108550518Y-101354396D01*
X108285709Y-101394952D01*
X108033900Y-101486391D01*
X107926965Y-101543550D01*
X107864472Y-101779867D01*
X103826000Y-101779867D01*
X103826000Y-101401391D01*
X104380538Y-101401391D01*
X104505269Y-101592000D01*
X105797000Y-101592000D01*
X105797000Y-100484000D01*
X106051000Y-100484000D01*
X106051000Y-101592000D01*
X107342731Y-101592000D01*
X107467462Y-101401391D01*
X107463591Y-101363718D01*
X107371421Y-101138467D01*
X107237078Y-100935526D01*
X107065725Y-100762693D01*
X106863946Y-100626610D01*
X106639496Y-100532507D01*
X106401000Y-100484000D01*
X106051000Y-100484000D01*
X105797000Y-100484000D01*
X105447000Y-100484000D01*
X105208504Y-100532507D01*
X104984054Y-100626610D01*
X104782275Y-100762693D01*
X104610922Y-100935526D01*
X104476579Y-101138467D01*
X104384409Y-101363718D01*
X104380538Y-101401391D01*
X103826000Y-101401391D01*
X103826000Y-60925791D01*
X145297000Y-60925791D01*
X145297000Y-61512209D01*
X145411405Y-62087359D01*
X145635817Y-62629138D01*
X145961613Y-63116727D01*
X146376273Y-63531387D01*
X146863862Y-63857183D01*
X147405641Y-64081595D01*
X147980791Y-64196000D01*
X148567209Y-64196000D01*
X149142359Y-64081595D01*
X149684138Y-63857183D01*
X150171727Y-63531387D01*
X150586387Y-63116727D01*
X150912183Y-62629138D01*
X151136595Y-62087359D01*
X151154170Y-61999000D01*
X179315928Y-61999000D01*
X179328188Y-62123482D01*
X179364498Y-62243180D01*
X179423463Y-62353494D01*
X179502815Y-62450185D01*
X179599506Y-62529537D01*
X179709820Y-62588502D01*
X179829518Y-62624812D01*
X179954000Y-62637072D01*
X179988250Y-62634000D01*
X180147000Y-62475250D01*
X180147000Y-61831000D01*
X179477750Y-61831000D01*
X179319000Y-61989750D01*
X179315928Y-61999000D01*
X151154170Y-61999000D01*
X151251000Y-61512209D01*
X151251000Y-60925791D01*
X151136595Y-60350641D01*
X150912183Y-59808862D01*
X150586387Y-59321273D01*
X150171727Y-58906613D01*
X149684138Y-58580817D01*
X149142359Y-58356405D01*
X148567209Y-58242000D01*
X147980791Y-58242000D01*
X147405641Y-58356405D01*
X146863862Y-58580817D01*
X146376273Y-58906613D01*
X145961613Y-59321273D01*
X145635817Y-59808862D01*
X145411405Y-60350641D01*
X145297000Y-60925791D01*
X103826000Y-60925791D01*
X103826000Y-60246002D01*
X103894264Y-59549791D01*
X104088613Y-58906078D01*
X104404293Y-58312370D01*
X104829278Y-57791287D01*
X105347381Y-57362675D01*
X105938872Y-57042856D01*
X106581216Y-56844017D01*
X107275927Y-56771000D01*
X189246998Y-56771000D01*
X189943209Y-56839264D01*
%TA.AperFunction,Conductor*%
D24*
G36*
X189943209Y-56839264D02*
G01*
X190586922Y-57033613D01*
X191180630Y-57349293D01*
X191701713Y-57774278D01*
X192130325Y-58292381D01*
X192450144Y-58883872D01*
X192648983Y-59526216D01*
X192722000Y-60220927D01*
X192722001Y-116191988D01*
X192653736Y-116888209D01*
X192459388Y-117531920D01*
X192143709Y-118125627D01*
X191718724Y-118646711D01*
X191200619Y-119075326D01*
X190609128Y-119395144D01*
X189966782Y-119593983D01*
X189272073Y-119667000D01*
X107301002Y-119667000D01*
X106604791Y-119598736D01*
X105961080Y-119404388D01*
X105367373Y-119088709D01*
X104846289Y-118663724D01*
X104417674Y-118145619D01*
X104097856Y-117554128D01*
X103899017Y-116911782D01*
X103826000Y-116217073D01*
X103826000Y-109036609D01*
X104380538Y-109036609D01*
X104384409Y-109074282D01*
X104476579Y-109299533D01*
X104610922Y-109502474D01*
X104782275Y-109675307D01*
X104984054Y-109811390D01*
X105208504Y-109905493D01*
X105447000Y-109954000D01*
X105797000Y-109954000D01*
X105797000Y-108846000D01*
X106051000Y-108846000D01*
X106051000Y-109954000D01*
X106401000Y-109954000D01*
X106639496Y-109905493D01*
X106863946Y-109811390D01*
X107065725Y-109675307D01*
X107237078Y-109502474D01*
X107371421Y-109299533D01*
X107463591Y-109074282D01*
X107467462Y-109036609D01*
X107342731Y-108846000D01*
X106051000Y-108846000D01*
X105797000Y-108846000D01*
X104505269Y-108846000D01*
X104380538Y-109036609D01*
X103826000Y-109036609D01*
X103826000Y-108658133D01*
X107864472Y-108658133D01*
X107926965Y-108894450D01*
X108169678Y-109007850D01*
X108429849Y-109071719D01*
X108697482Y-109083604D01*
X108962291Y-109043048D01*
X109214100Y-108951609D01*
X109321035Y-108894450D01*
X109383528Y-108658133D01*
X108624000Y-107898605D01*
X107864472Y-108658133D01*
X103826000Y-108658133D01*
X103826000Y-108401391D01*
X104380538Y-108401391D01*
X104505269Y-108592000D01*
X105797000Y-108592000D01*
X105797000Y-107484000D01*
X106051000Y-107484000D01*
X106051000Y-108592000D01*
X107342731Y-108592000D01*
X107456503Y-108418138D01*
X107684867Y-108478528D01*
X108444395Y-107719000D01*
X108803605Y-107719000D01*
X109563133Y-108478528D01*
X109799450Y-108416035D01*
X109912850Y-108173322D01*
X109976719Y-107913151D01*
X109988604Y-107645518D01*
X109948048Y-107380709D01*
X109856609Y-107128900D01*
X109799450Y-107021965D01*
X109563133Y-106959472D01*
X108803605Y-107719000D01*
X108444395Y-107719000D01*
X107684867Y-106959472D01*
X107448550Y-107021965D01*
X107335150Y-107264678D01*
X107271281Y-107524849D01*
X107259396Y-107792482D01*
X107294615Y-108022442D01*
X107237078Y-107935526D01*
X107065725Y-107762693D01*
X106863946Y-107626610D01*
X106639496Y-107532507D01*
X106401000Y-107484000D01*
X106051000Y-107484000D01*
X105797000Y-107484000D01*
X105447000Y-107484000D01*
X105208504Y-107532507D01*
X104984054Y-107626610D01*
X104782275Y-107762693D01*
X104610922Y-107935526D01*
X104476579Y-108138467D01*
X104384409Y-108363718D01*
X104380538Y-108401391D01*
X103826000Y-108401391D01*
X103826000Y-106779867D01*
X107864472Y-106779867D01*
X108624000Y-107539395D01*
X109383528Y-106779867D01*
X109321035Y-106543550D01*
X109078322Y-106430150D01*
X108818151Y-106366281D01*
X108550518Y-106354396D01*
X108285709Y-106394952D01*
X108033900Y-106486391D01*
X107926965Y-106543550D01*
X107864472Y-106779867D01*
X103826000Y-106779867D01*
X103826000Y-105034000D01*
X111014693Y-105034000D01*
X111014693Y-105404000D01*
X111026497Y-105523845D01*
X111061454Y-105639085D01*
X111106708Y-105723749D01*
X111062406Y-105806631D01*
X111026737Y-105924216D01*
X111014693Y-106046500D01*
X111014693Y-106391500D01*
X111026737Y-106513784D01*
X111062406Y-106631369D01*
X111120329Y-106739735D01*
X111198281Y-106834719D01*
X111293265Y-106912671D01*
X111401631Y-106970594D01*
X111519216Y-107006263D01*
X111641500Y-107018307D01*
X111936500Y-107018307D01*
X112035233Y-107008583D01*
X112109506Y-107069537D01*
X112219820Y-107128502D01*
X112339518Y-107164812D01*
X112464000Y-107177072D01*
X112473250Y-107174000D01*
X112632000Y-107015250D01*
X112632000Y-106346000D01*
X112886000Y-106346000D01*
X112886000Y-107015250D01*
X113044750Y-107174000D01*
X113054000Y-107177072D01*
X113178482Y-107164812D01*
X113298180Y-107128502D01*
X113408494Y-107069537D01*
X113505185Y-106990185D01*
X113584537Y-106893494D01*
X113643502Y-106783180D01*
X113679812Y-106663482D01*
X113692072Y-106539000D01*
X113689000Y-106504750D01*
X113530250Y-106346000D01*
X112886000Y-106346000D01*
X112632000Y-106346000D01*
X112612000Y-106346000D01*
X112612000Y-106092000D01*
X112632000Y-106092000D01*
X112632000Y-106072000D01*
X112886000Y-106072000D01*
X112886000Y-106092000D01*
X113530250Y-106092000D01*
X113689000Y-105933250D01*
X113692072Y-105899000D01*
X113684587Y-105823000D01*
X114023816Y-105823000D01*
X115825927Y-107625112D01*
X115844841Y-107648159D01*
X115936812Y-107723637D01*
X116041741Y-107779723D01*
X116155595Y-107814260D01*
X116273999Y-107825922D01*
X116303666Y-107823000D01*
X119054148Y-107823000D01*
X119026497Y-107914155D01*
X119014693Y-108034000D01*
X119014693Y-108404000D01*
X119026497Y-108523845D01*
X119061454Y-108639085D01*
X119106708Y-108723749D01*
X119062406Y-108806631D01*
X119026737Y-108924216D01*
X119014693Y-109046500D01*
X119014693Y-109391500D01*
X119026737Y-109513784D01*
X119062406Y-109631369D01*
X119120329Y-109739735D01*
X119198281Y-109834719D01*
X119293265Y-109912671D01*
X119401631Y-109970594D01*
X119519216Y-110006263D01*
X119641500Y-110018307D01*
X119936500Y-110018307D01*
X120035233Y-110008583D01*
X120109506Y-110069537D01*
X120219820Y-110128502D01*
X120339518Y-110164812D01*
X120464000Y-110177072D01*
X120473250Y-110174000D01*
X120632000Y-110015250D01*
X120632000Y-109346000D01*
X120886000Y-109346000D01*
X120886000Y-110015250D01*
X121044750Y-110174000D01*
X121054000Y-110177072D01*
X121178482Y-110164812D01*
X121298180Y-110128502D01*
X121408494Y-110069537D01*
X121505185Y-109990185D01*
X121584537Y-109893494D01*
X121643502Y-109783180D01*
X121679812Y-109663482D01*
X121692072Y-109539000D01*
X121689000Y-109504750D01*
X121530250Y-109346000D01*
X120886000Y-109346000D01*
X120632000Y-109346000D01*
X120612000Y-109346000D01*
X120612000Y-109092000D01*
X120632000Y-109092000D01*
X120632000Y-109072000D01*
X120886000Y-109072000D01*
X120886000Y-109092000D01*
X121530250Y-109092000D01*
X121689000Y-108933250D01*
X121692072Y-108899000D01*
X121684587Y-108823000D01*
X126244333Y-108823000D01*
X126274000Y-108825922D01*
X126303667Y-108823000D01*
X126392405Y-108814260D01*
X126506259Y-108779723D01*
X126611188Y-108723637D01*
X126703159Y-108648159D01*
X126722078Y-108625106D01*
X130524185Y-104823000D01*
X131054148Y-104823000D01*
X131026497Y-104914155D01*
X131014693Y-105034000D01*
X131014693Y-105404000D01*
X131026497Y-105523845D01*
X131061454Y-105639085D01*
X131106708Y-105723749D01*
X131062406Y-105806631D01*
X131026737Y-105924216D01*
X131014693Y-106046500D01*
X131014693Y-106391500D01*
X131026737Y-106513784D01*
X131062406Y-106631369D01*
X131120329Y-106739735D01*
X131198281Y-106834719D01*
X131293265Y-106912671D01*
X131401631Y-106970594D01*
X131519216Y-107006263D01*
X131641500Y-107018307D01*
X131936500Y-107018307D01*
X132035233Y-107008583D01*
X132109506Y-107069537D01*
X132219820Y-107128502D01*
X132339518Y-107164812D01*
X132464000Y-107177072D01*
X132473250Y-107174000D01*
X132632000Y-107015250D01*
X132632000Y-106346000D01*
X132886000Y-106346000D01*
X132886000Y-107015250D01*
X133044750Y-107174000D01*
X133054000Y-107177072D01*
X133178482Y-107164812D01*
X133298180Y-107128502D01*
X133408494Y-107069537D01*
X133505185Y-106990185D01*
X133584537Y-106893494D01*
X133643502Y-106783180D01*
X133679812Y-106663482D01*
X133692072Y-106539000D01*
X133689000Y-106504750D01*
X133530250Y-106346000D01*
X132886000Y-106346000D01*
X132632000Y-106346000D01*
X132612000Y-106346000D01*
X132612000Y-106092000D01*
X132632000Y-106092000D01*
X132632000Y-106072000D01*
X132886000Y-106072000D01*
X132886000Y-106092000D01*
X133530250Y-106092000D01*
X133689000Y-105933250D01*
X133692072Y-105899000D01*
X133684587Y-105823000D01*
X138244333Y-105823000D01*
X138274000Y-105825922D01*
X138303667Y-105823000D01*
X138392405Y-105814260D01*
X138506259Y-105779723D01*
X138611188Y-105723637D01*
X138703159Y-105648159D01*
X138722078Y-105625106D01*
X140524185Y-103823000D01*
X144544148Y-103823000D01*
X144516497Y-103914155D01*
X144504693Y-104034000D01*
X144504693Y-104404000D01*
X144516497Y-104523845D01*
X144551454Y-104639085D01*
X144594208Y-104719072D01*
X144547406Y-104806631D01*
X144511737Y-104924216D01*
X144499693Y-105046500D01*
X144499693Y-105391500D01*
X144511737Y-105513784D01*
X144547406Y-105631369D01*
X144605329Y-105739735D01*
X144683281Y-105834719D01*
X144778265Y-105912671D01*
X144886631Y-105970594D01*
X145004216Y-106006263D01*
X145126500Y-106018307D01*
X145421500Y-106018307D01*
X145520233Y-106008583D01*
X145594506Y-106069537D01*
X145704820Y-106128502D01*
X145824518Y-106164812D01*
X145949000Y-106177072D01*
X145958250Y-106174000D01*
X146117000Y-106015250D01*
X146117000Y-105346000D01*
X146371000Y-105346000D01*
X146371000Y-106015250D01*
X146529750Y-106174000D01*
X146539000Y-106177072D01*
X146663482Y-106164812D01*
X146783180Y-106128502D01*
X146893494Y-106069537D01*
X146990185Y-105990185D01*
X147069537Y-105893494D01*
X147128502Y-105783180D01*
X147164812Y-105663482D01*
X147177072Y-105539000D01*
X147174000Y-105504750D01*
X147015250Y-105346000D01*
X146371000Y-105346000D01*
X146117000Y-105346000D01*
X146097000Y-105346000D01*
X146097000Y-105092000D01*
X146117000Y-105092000D01*
X146117000Y-105072000D01*
X146371000Y-105072000D01*
X146371000Y-105092000D01*
X147015250Y-105092000D01*
X147174000Y-104933250D01*
X147177072Y-104899000D01*
X147169587Y-104823000D01*
X153023816Y-104823000D01*
X154825927Y-106625112D01*
X154844841Y-106648159D01*
X154936812Y-106723637D01*
X155041741Y-106779723D01*
X155155595Y-106814260D01*
X155273999Y-106825922D01*
X155303666Y-106823000D01*
X159564148Y-106823000D01*
X159536497Y-106914155D01*
X159524693Y-107034000D01*
X159524693Y-107404000D01*
X159536497Y-107523845D01*
X159571454Y-107639085D01*
X159619208Y-107728426D01*
X159577406Y-107806631D01*
X159541737Y-107924216D01*
X159529693Y-108046500D01*
X159529693Y-108391500D01*
X159541737Y-108513784D01*
X159577406Y-108631369D01*
X159635329Y-108739735D01*
X159713281Y-108834719D01*
X159808265Y-108912671D01*
X159916631Y-108970594D01*
X160034216Y-109006263D01*
X160156500Y-109018307D01*
X160451500Y-109018307D01*
X160550233Y-109008583D01*
X160624506Y-109069537D01*
X160734820Y-109128502D01*
X160854518Y-109164812D01*
X160979000Y-109177072D01*
X160988250Y-109174000D01*
X161147000Y-109015250D01*
X161147000Y-108346000D01*
X161401000Y-108346000D01*
X161401000Y-109015250D01*
X161559750Y-109174000D01*
X161569000Y-109177072D01*
X161693482Y-109164812D01*
X161813180Y-109128502D01*
X161923494Y-109069537D01*
X162020185Y-108990185D01*
X162099537Y-108893494D01*
X162158502Y-108783180D01*
X162194812Y-108663482D01*
X162207072Y-108539000D01*
X162206059Y-108527699D01*
X188097000Y-108527699D01*
X188097000Y-108710301D01*
X188132624Y-108889396D01*
X188202504Y-109058099D01*
X188303952Y-109209928D01*
X188433072Y-109339048D01*
X188584901Y-109440496D01*
X188753604Y-109510376D01*
X188932699Y-109546000D01*
X189115301Y-109546000D01*
X189294396Y-109510376D01*
X189463099Y-109440496D01*
X189614928Y-109339048D01*
X189744048Y-109209928D01*
X189845496Y-109058099D01*
X189915376Y-108889396D01*
X189951000Y-108710301D01*
X189951000Y-108527699D01*
X189915376Y-108348604D01*
X189845496Y-108179901D01*
X189744048Y-108028072D01*
X189614928Y-107898952D01*
X189463099Y-107797504D01*
X189294396Y-107727624D01*
X189115301Y-107692000D01*
X188932699Y-107692000D01*
X188753604Y-107727624D01*
X188584901Y-107797504D01*
X188433072Y-107898952D01*
X188303952Y-108028072D01*
X188202504Y-108179901D01*
X188132624Y-108348604D01*
X188097000Y-108527699D01*
X162206059Y-108527699D01*
X162204000Y-108504750D01*
X162045250Y-108346000D01*
X161401000Y-108346000D01*
X161147000Y-108346000D01*
X161127000Y-108346000D01*
X161127000Y-108092000D01*
X161147000Y-108092000D01*
X161147000Y-108072000D01*
X161401000Y-108072000D01*
X161401000Y-108092000D01*
X162045250Y-108092000D01*
X162204000Y-107933250D01*
X162207072Y-107899000D01*
X162199587Y-107823000D01*
X166244333Y-107823000D01*
X166274000Y-107825922D01*
X166303667Y-107823000D01*
X166392405Y-107814260D01*
X166506259Y-107779723D01*
X166611188Y-107723637D01*
X166703159Y-107648159D01*
X166722078Y-107625106D01*
X172014693Y-102332492D01*
X172014693Y-102404000D01*
X172026497Y-102523845D01*
X172061454Y-102639085D01*
X172114208Y-102737780D01*
X172077406Y-102806631D01*
X172041737Y-102924216D01*
X172029693Y-103046500D01*
X172029693Y-103391500D01*
X172041737Y-103513784D01*
X172077406Y-103631369D01*
X172135329Y-103739735D01*
X172213281Y-103834719D01*
X172308265Y-103912671D01*
X172416631Y-103970594D01*
X172534216Y-104006263D01*
X172656500Y-104018307D01*
X172951500Y-104018307D01*
X173050233Y-104008583D01*
X173124506Y-104069537D01*
X173234820Y-104128502D01*
X173354518Y-104164812D01*
X173479000Y-104177072D01*
X173488250Y-104174000D01*
X173647000Y-104015250D01*
X173647000Y-103346000D01*
X173901000Y-103346000D01*
X173901000Y-104015250D01*
X174059750Y-104174000D01*
X174069000Y-104177072D01*
X174193482Y-104164812D01*
X174313180Y-104128502D01*
X174423494Y-104069537D01*
X174520185Y-103990185D01*
X174599537Y-103893494D01*
X174658502Y-103783180D01*
X174694812Y-103663482D01*
X174707072Y-103539000D01*
X174704000Y-103504750D01*
X174545250Y-103346000D01*
X173901000Y-103346000D01*
X173647000Y-103346000D01*
X173627000Y-103346000D01*
X173627000Y-103344000D01*
X180635928Y-103344000D01*
X180648188Y-103468482D01*
X180684498Y-103588180D01*
X180743463Y-103698494D01*
X180822815Y-103795185D01*
X180919506Y-103874537D01*
X181029820Y-103933502D01*
X181149518Y-103969812D01*
X181274000Y-103982072D01*
X181488250Y-103979000D01*
X181647000Y-103820250D01*
X181647000Y-102846000D01*
X180797750Y-102846000D01*
X180639000Y-103004750D01*
X180635928Y-103344000D01*
X173627000Y-103344000D01*
X173627000Y-103092000D01*
X173647000Y-103092000D01*
X173647000Y-103072000D01*
X173901000Y-103072000D01*
X173901000Y-103092000D01*
X174545250Y-103092000D01*
X174704000Y-102933250D01*
X174707072Y-102899000D01*
X174694812Y-102774518D01*
X174658502Y-102654820D01*
X174599537Y-102544506D01*
X174528048Y-102457396D01*
X174533307Y-102404000D01*
X174533307Y-102034000D01*
X174521503Y-101914155D01*
X174486546Y-101798915D01*
X174429778Y-101692709D01*
X174388000Y-101641802D01*
X174388000Y-100959184D01*
X175003184Y-100344000D01*
X181235928Y-100344000D01*
X181239000Y-100433250D01*
X181397750Y-100592000D01*
X182147000Y-100592000D01*
X182147000Y-99867750D01*
X181988250Y-99709000D01*
X181874000Y-99705928D01*
X181749518Y-99718188D01*
X181629820Y-99754498D01*
X181519506Y-99813463D01*
X181422815Y-99892815D01*
X181343463Y-99989506D01*
X181284498Y-100099820D01*
X181248188Y-100219518D01*
X181235928Y-100344000D01*
X175003184Y-100344000D01*
X177524184Y-97823000D01*
X181244333Y-97823000D01*
X181274000Y-97825922D01*
X181303667Y-97823000D01*
X181392405Y-97814260D01*
X181506259Y-97779723D01*
X181611188Y-97723637D01*
X181703159Y-97648159D01*
X181722077Y-97625107D01*
X182222070Y-97125115D01*
X182278637Y-97056188D01*
X182308290Y-97000711D01*
X182461962Y-96847039D01*
X182483974Y-96828974D01*
X182521837Y-96782838D01*
X182739711Y-97000712D01*
X182769363Y-97056187D01*
X182825930Y-97125114D01*
X183170001Y-97469186D01*
X183170000Y-99912177D01*
X183149894Y-99922923D01*
X183125185Y-99892815D01*
X183028494Y-99813463D01*
X182918180Y-99754498D01*
X182798482Y-99718188D01*
X182674000Y-99705928D01*
X182559750Y-99709000D01*
X182401000Y-99867750D01*
X182401000Y-100592000D01*
X182421000Y-100592000D01*
X182421000Y-100846000D01*
X182401000Y-100846000D01*
X182401000Y-100866000D01*
X182147000Y-100866000D01*
X182147000Y-100846000D01*
X181397750Y-100846000D01*
X181239000Y-101004750D01*
X181235928Y-101094000D01*
X181248188Y-101218482D01*
X181284498Y-101338180D01*
X181343463Y-101448494D01*
X181350464Y-101457024D01*
X181274000Y-101455928D01*
X181149518Y-101468188D01*
X181029820Y-101504498D01*
X180919506Y-101563463D01*
X180822815Y-101642815D01*
X180743463Y-101739506D01*
X180684498Y-101849820D01*
X180648188Y-101969518D01*
X180635928Y-102094000D01*
X180639000Y-102433250D01*
X180797750Y-102592000D01*
X181647000Y-102592000D01*
X181647000Y-102572000D01*
X181901000Y-102572000D01*
X181901000Y-102592000D01*
X181921000Y-102592000D01*
X181921000Y-102846000D01*
X181901000Y-102846000D01*
X181901000Y-103820250D01*
X182059750Y-103979000D01*
X182274000Y-103982072D01*
X182398482Y-103969812D01*
X182518180Y-103933502D01*
X182628494Y-103874537D01*
X182725185Y-103795185D01*
X182804537Y-103698494D01*
X182863502Y-103588180D01*
X182863557Y-103587999D01*
X182875471Y-103610289D01*
X182935079Y-103682921D01*
X183007711Y-103742529D01*
X183090577Y-103786822D01*
X183150010Y-103804851D01*
X183153707Y-103842383D01*
X183189697Y-103961025D01*
X183248141Y-104070367D01*
X183326794Y-104166206D01*
X183350813Y-104185918D01*
X184807086Y-105642192D01*
X184826794Y-105666206D01*
X184922632Y-105744859D01*
X185031974Y-105803303D01*
X185150616Y-105839293D01*
X185243083Y-105848400D01*
X185243092Y-105848400D01*
X185273999Y-105851444D01*
X185304906Y-105848400D01*
X188567399Y-105848400D01*
X188655952Y-105907569D01*
X188797357Y-105966141D01*
X188947472Y-105996000D01*
X189100528Y-105996000D01*
X189250643Y-105966141D01*
X189392048Y-105907569D01*
X189519309Y-105822536D01*
X189627536Y-105714309D01*
X189712569Y-105587048D01*
X189771141Y-105445643D01*
X189801000Y-105295528D01*
X189801000Y-105142472D01*
X189771141Y-104992357D01*
X189712569Y-104850952D01*
X189627536Y-104723691D01*
X189519309Y-104615464D01*
X189392048Y-104530431D01*
X189250643Y-104471859D01*
X189100528Y-104442000D01*
X188947472Y-104442000D01*
X188797357Y-104471859D01*
X188655952Y-104530431D01*
X188567399Y-104589600D01*
X185534706Y-104589600D01*
X184619730Y-103674625D01*
X184672529Y-103610289D01*
X184716822Y-103527423D01*
X184744097Y-103437508D01*
X184753307Y-103344000D01*
X184753307Y-102094000D01*
X184744097Y-102000492D01*
X184716822Y-101910577D01*
X184672529Y-101827711D01*
X184612921Y-101755079D01*
X184540289Y-101695471D01*
X184457423Y-101651178D01*
X184378000Y-101627086D01*
X184378000Y-101525823D01*
X184440289Y-101492529D01*
X184512921Y-101432921D01*
X184567379Y-101366564D01*
X185325927Y-102125112D01*
X185344841Y-102148159D01*
X185424627Y-102213637D01*
X185436812Y-102223637D01*
X185541741Y-102279723D01*
X185655595Y-102314260D01*
X185670001Y-102315679D01*
X185670000Y-102641802D01*
X185628222Y-102692709D01*
X185571454Y-102798915D01*
X185536497Y-102914155D01*
X185524693Y-103034000D01*
X185524693Y-103404000D01*
X185536497Y-103523845D01*
X185571454Y-103639085D01*
X185628222Y-103745291D01*
X185704619Y-103838381D01*
X185797709Y-103914778D01*
X185903915Y-103971546D01*
X186019155Y-104006503D01*
X186139000Y-104018307D01*
X186409000Y-104018307D01*
X186528845Y-104006503D01*
X186576244Y-103992125D01*
X186662980Y-104065118D01*
X186772558Y-104125441D01*
X186891798Y-104163226D01*
X187008250Y-104174000D01*
X187167000Y-104015250D01*
X187167000Y-103346000D01*
X187421000Y-103346000D01*
X187421000Y-104015250D01*
X187579750Y-104174000D01*
X187696202Y-104163226D01*
X187815442Y-104125441D01*
X187925020Y-104065118D01*
X188020724Y-103984578D01*
X188098876Y-103886914D01*
X188156473Y-103775879D01*
X188191301Y-103655742D01*
X188202023Y-103531119D01*
X188199000Y-103504750D01*
X188040250Y-103346000D01*
X187421000Y-103346000D01*
X187167000Y-103346000D01*
X187147000Y-103346000D01*
X187147000Y-103092000D01*
X187167000Y-103092000D01*
X187167000Y-103072000D01*
X187421000Y-103072000D01*
X187421000Y-103092000D01*
X188040250Y-103092000D01*
X188199000Y-102933250D01*
X188202023Y-102906881D01*
X188191301Y-102782258D01*
X188156473Y-102662121D01*
X188098876Y-102551086D01*
X188020724Y-102453422D01*
X187925020Y-102372882D01*
X187856172Y-102334981D01*
X187929778Y-102245291D01*
X187986546Y-102139085D01*
X188021503Y-102023845D01*
X188033307Y-101904000D01*
X188033307Y-101813877D01*
X188097000Y-101750184D01*
X188097000Y-101910301D01*
X188132624Y-102089396D01*
X188202504Y-102258099D01*
X188303952Y-102409928D01*
X188433072Y-102539048D01*
X188584901Y-102640496D01*
X188753604Y-102710376D01*
X188932699Y-102746000D01*
X189115301Y-102746000D01*
X189294396Y-102710376D01*
X189463099Y-102640496D01*
X189614928Y-102539048D01*
X189744048Y-102409928D01*
X189845496Y-102258099D01*
X189915376Y-102089396D01*
X189951000Y-101910301D01*
X189951000Y-101727699D01*
X189915376Y-101548604D01*
X189845496Y-101379901D01*
X189744048Y-101228072D01*
X189614928Y-101098952D01*
X189463099Y-100997504D01*
X189294396Y-100927624D01*
X189115301Y-100892000D01*
X188955185Y-100892000D01*
X189680113Y-100167072D01*
X189703159Y-100148159D01*
X189778637Y-100056188D01*
X189834723Y-99951259D01*
X189869260Y-99837405D01*
X189878000Y-99748667D01*
X189878000Y-99748666D01*
X189880922Y-99719000D01*
X189878000Y-99689333D01*
X189878000Y-96719184D01*
X190317302Y-96279883D01*
X190332711Y-96292529D01*
X190415577Y-96336822D01*
X190505492Y-96364097D01*
X190599000Y-96373307D01*
X191949000Y-96373307D01*
X192042508Y-96364097D01*
X192132423Y-96336822D01*
X192215289Y-96292529D01*
X192287921Y-96232921D01*
X192347529Y-96160289D01*
X192391822Y-96077423D01*
X192419097Y-95987508D01*
X192428307Y-95894000D01*
X192428307Y-94544000D01*
X192419097Y-94450492D01*
X192391822Y-94360577D01*
X192347529Y-94277711D01*
X192287921Y-94205079D01*
X192215289Y-94145471D01*
X192132423Y-94101178D01*
X192042508Y-94073903D01*
X191949000Y-94064693D01*
X190599000Y-94064693D01*
X190505492Y-94073903D01*
X190415577Y-94101178D01*
X190332711Y-94145471D01*
X190260079Y-94205079D01*
X190200471Y-94277711D01*
X190156178Y-94360577D01*
X190128903Y-94450492D01*
X190119693Y-94544000D01*
X190119693Y-94769446D01*
X190094841Y-94789841D01*
X190075929Y-94812886D01*
X188878000Y-96010816D01*
X188878000Y-93719184D01*
X190511505Y-92085679D01*
X190539643Y-92113817D01*
X190728323Y-92239889D01*
X190937974Y-92326729D01*
X191160538Y-92371000D01*
X191387462Y-92371000D01*
X191610026Y-92326729D01*
X191819677Y-92239889D01*
X192008357Y-92113817D01*
X192168817Y-91953357D01*
X192294889Y-91764677D01*
X192381729Y-91555026D01*
X192426000Y-91332462D01*
X192426000Y-91105538D01*
X192381729Y-90882974D01*
X192294889Y-90673323D01*
X192168817Y-90484643D01*
X192008357Y-90324183D01*
X191987954Y-90310550D01*
X192063537Y-90264344D01*
X192252303Y-90090227D01*
X192403473Y-89882629D01*
X192511238Y-89649528D01*
X192541910Y-89548400D01*
X192418224Y-89346000D01*
X191401000Y-89346000D01*
X191401000Y-89366000D01*
X191147000Y-89366000D01*
X191147000Y-89346000D01*
X190129776Y-89346000D01*
X190006090Y-89548400D01*
X190036762Y-89649528D01*
X190144527Y-89882629D01*
X190295697Y-90090227D01*
X190484463Y-90264344D01*
X190560046Y-90310550D01*
X190539643Y-90324183D01*
X190379183Y-90484643D01*
X190253111Y-90673323D01*
X190250131Y-90680518D01*
X190186812Y-90714363D01*
X190094841Y-90789841D01*
X190075929Y-90812886D01*
X187867889Y-93020927D01*
X187844842Y-93039841D01*
X187798755Y-93095999D01*
X187769363Y-93131813D01*
X187713278Y-93236741D01*
X187678740Y-93350596D01*
X187667078Y-93469000D01*
X187670001Y-93498677D01*
X187670000Y-99218815D01*
X187463732Y-99425084D01*
X187409000Y-99419693D01*
X187139000Y-99419693D01*
X187024051Y-99431015D01*
X187051000Y-99295528D01*
X187051000Y-99142472D01*
X187021141Y-98992357D01*
X186962569Y-98850952D01*
X186877536Y-98723691D01*
X186769309Y-98615464D01*
X186642048Y-98530431D01*
X186500643Y-98471859D01*
X186350528Y-98442000D01*
X186197472Y-98442000D01*
X186047357Y-98471859D01*
X185905952Y-98530431D01*
X185778691Y-98615464D01*
X185670464Y-98723691D01*
X185585431Y-98850952D01*
X185526859Y-98992357D01*
X185497000Y-99142472D01*
X185497000Y-99295528D01*
X185526859Y-99445643D01*
X185585431Y-99587048D01*
X185634575Y-99660598D01*
X185608222Y-99692709D01*
X185551454Y-99798915D01*
X185516497Y-99914155D01*
X185504693Y-100034000D01*
X185504693Y-100404000D01*
X185516497Y-100523845D01*
X185551454Y-100639085D01*
X185555111Y-100645926D01*
X185378000Y-100468816D01*
X185378000Y-97498667D01*
X185380922Y-97469000D01*
X185369260Y-97350595D01*
X185334723Y-97236741D01*
X185278637Y-97131812D01*
X185253018Y-97100595D01*
X185203159Y-97039841D01*
X185180112Y-97020927D01*
X184180114Y-96020930D01*
X184111187Y-95964363D01*
X184055712Y-95934711D01*
X183851000Y-95729999D01*
X183851000Y-95515971D01*
X183853308Y-95469000D01*
X183853308Y-95048308D01*
X184274000Y-95048308D01*
X184286684Y-95047685D01*
X184386036Y-95147036D01*
X184451886Y-95201078D01*
X184552123Y-95254656D01*
X184660888Y-95287650D01*
X184773999Y-95298790D01*
X184887111Y-95287650D01*
X184995876Y-95254656D01*
X185096113Y-95201078D01*
X185183973Y-95128973D01*
X185251589Y-95046583D01*
X185273999Y-95048790D01*
X185387111Y-95037650D01*
X185495876Y-95004656D01*
X185596113Y-94951078D01*
X185683973Y-94878973D01*
X185756078Y-94791113D01*
X185809656Y-94690876D01*
X185842650Y-94582111D01*
X185853790Y-94468999D01*
X185842650Y-94355888D01*
X185809656Y-94247123D01*
X185766718Y-94166792D01*
X185796115Y-94151079D01*
X185883974Y-94078974D01*
X185956079Y-93991115D01*
X186009657Y-93890876D01*
X186042650Y-93782112D01*
X186053791Y-93669000D01*
X186042650Y-93555888D01*
X186009657Y-93447124D01*
X185956079Y-93346885D01*
X185883974Y-93259026D01*
X185858810Y-93238374D01*
X186680112Y-92417073D01*
X186703159Y-92398159D01*
X186778637Y-92306188D01*
X186834723Y-92201259D01*
X186869260Y-92087405D01*
X186878000Y-91998667D01*
X186880922Y-91969000D01*
X186878000Y-91939333D01*
X186878000Y-88889600D01*
X190006090Y-88889600D01*
X190129776Y-89092000D01*
X191147000Y-89092000D01*
X191147000Y-88073915D01*
X191401000Y-88073915D01*
X191401000Y-89092000D01*
X192418224Y-89092000D01*
X192541910Y-88889600D01*
X192511238Y-88788472D01*
X192403473Y-88555371D01*
X192252303Y-88347773D01*
X192063537Y-88173656D01*
X191844430Y-88039711D01*
X191603401Y-87951085D01*
X191401000Y-88073915D01*
X191147000Y-88073915D01*
X190944599Y-87951085D01*
X190703570Y-88039711D01*
X190484463Y-88173656D01*
X190295697Y-88347773D01*
X190144527Y-88555371D01*
X190036762Y-88788472D01*
X190006090Y-88889600D01*
X186878000Y-88889600D01*
X186878000Y-86469184D01*
X187524185Y-85823000D01*
X188244333Y-85823000D01*
X188274000Y-85825922D01*
X188303667Y-85823000D01*
X188392405Y-85814260D01*
X188506259Y-85779723D01*
X188611188Y-85723637D01*
X188703159Y-85648159D01*
X188722078Y-85625107D01*
X189680112Y-84667073D01*
X189703159Y-84648159D01*
X189778637Y-84556188D01*
X189834723Y-84451259D01*
X189869260Y-84337405D01*
X189878000Y-84248667D01*
X189880922Y-84219000D01*
X189878000Y-84189333D01*
X189878000Y-83796198D01*
X189919778Y-83745291D01*
X189976546Y-83639085D01*
X190011503Y-83523845D01*
X190023307Y-83404000D01*
X190023307Y-83034000D01*
X190015905Y-82958845D01*
X190069537Y-82893494D01*
X190128502Y-82783180D01*
X190164812Y-82663482D01*
X190177072Y-82539000D01*
X190174000Y-82504750D01*
X190015250Y-82346000D01*
X189371000Y-82346000D01*
X189371000Y-82366000D01*
X189117000Y-82366000D01*
X189117000Y-82346000D01*
X189097000Y-82346000D01*
X189097000Y-82092000D01*
X189117000Y-82092000D01*
X189117000Y-81422750D01*
X189371000Y-81422750D01*
X189371000Y-82092000D01*
X190015250Y-82092000D01*
X190174000Y-81933250D01*
X190177072Y-81899000D01*
X190164812Y-81774518D01*
X190128502Y-81654820D01*
X190069537Y-81544506D01*
X189990185Y-81447815D01*
X189893494Y-81368463D01*
X189783180Y-81309498D01*
X189663482Y-81273188D01*
X189539000Y-81260928D01*
X189529750Y-81264000D01*
X189371000Y-81422750D01*
X189117000Y-81422750D01*
X188958250Y-81264000D01*
X188949000Y-81260928D01*
X188824518Y-81273188D01*
X188704820Y-81309498D01*
X188594506Y-81368463D01*
X188520233Y-81429417D01*
X188421500Y-81419693D01*
X188126500Y-81419693D01*
X188004216Y-81431737D01*
X187886631Y-81467406D01*
X187778265Y-81525329D01*
X187683281Y-81603281D01*
X187605329Y-81698265D01*
X187547406Y-81806631D01*
X187511737Y-81924216D01*
X187499693Y-82046500D01*
X187499693Y-82391500D01*
X187511737Y-82513784D01*
X187547406Y-82631369D01*
X187594208Y-82718928D01*
X187551454Y-82798915D01*
X187516497Y-82914155D01*
X187504693Y-83034000D01*
X187504693Y-83404000D01*
X187516497Y-83523845D01*
X187551454Y-83639085D01*
X187608222Y-83745291D01*
X187684619Y-83838381D01*
X187777709Y-83914778D01*
X187883915Y-83971546D01*
X187999155Y-84006503D01*
X188119000Y-84018307D01*
X188389000Y-84018307D01*
X188508845Y-84006503D01*
X188624085Y-83971546D01*
X188670001Y-83947004D01*
X188670001Y-83968814D01*
X188023816Y-84615000D01*
X187303667Y-84615000D01*
X187274000Y-84612078D01*
X187244333Y-84615000D01*
X187155595Y-84623740D01*
X187041741Y-84658277D01*
X186936812Y-84714363D01*
X186844841Y-84789841D01*
X186825929Y-84812886D01*
X185878000Y-85760816D01*
X185878000Y-78469184D01*
X191190112Y-73157073D01*
X191213159Y-73138159D01*
X191288637Y-73046188D01*
X191344723Y-72941259D01*
X191379260Y-72827405D01*
X191381561Y-72804044D01*
X191429778Y-72745291D01*
X191486546Y-72639085D01*
X191521503Y-72523845D01*
X191533307Y-72404000D01*
X191533307Y-72034000D01*
X191526441Y-71964285D01*
X191584537Y-71893494D01*
X191643502Y-71783180D01*
X191679812Y-71663482D01*
X191692072Y-71539000D01*
X191689000Y-71504750D01*
X191530250Y-71346000D01*
X190886000Y-71346000D01*
X190886000Y-71366000D01*
X190632000Y-71366000D01*
X190632000Y-71346000D01*
X190612000Y-71346000D01*
X190612000Y-71092000D01*
X190632000Y-71092000D01*
X190632000Y-70422750D01*
X190886000Y-70422750D01*
X190886000Y-71092000D01*
X191530250Y-71092000D01*
X191689000Y-70933250D01*
X191692072Y-70899000D01*
X191679812Y-70774518D01*
X191643502Y-70654820D01*
X191584537Y-70544506D01*
X191505185Y-70447815D01*
X191408494Y-70368463D01*
X191298180Y-70309498D01*
X191178482Y-70273188D01*
X191054000Y-70260928D01*
X191044750Y-70264000D01*
X190886000Y-70422750D01*
X190632000Y-70422750D01*
X190473250Y-70264000D01*
X190464000Y-70260928D01*
X190339518Y-70273188D01*
X190219820Y-70309498D01*
X190109506Y-70368463D01*
X190035233Y-70429417D01*
X189936500Y-70419693D01*
X189641500Y-70419693D01*
X189519216Y-70431737D01*
X189401631Y-70467406D01*
X189293265Y-70525329D01*
X189198281Y-70603281D01*
X189120329Y-70698265D01*
X189062406Y-70806631D01*
X189026737Y-70924216D01*
X189014693Y-71046500D01*
X189014693Y-71391500D01*
X189026737Y-71513784D01*
X189062406Y-71631369D01*
X189106708Y-71714251D01*
X189061454Y-71798915D01*
X189026497Y-71914155D01*
X189014693Y-72034000D01*
X189014693Y-72404000D01*
X189026497Y-72523845D01*
X189061454Y-72639085D01*
X189118222Y-72745291D01*
X189194619Y-72838381D01*
X189287709Y-72914778D01*
X189393915Y-72971546D01*
X189509155Y-73006503D01*
X189621270Y-73017546D01*
X184878000Y-77760816D01*
X184878000Y-77469184D01*
X188680112Y-73667073D01*
X188703159Y-73648159D01*
X188778637Y-73556188D01*
X188834723Y-73451259D01*
X188869260Y-73337405D01*
X188878000Y-73248667D01*
X188878000Y-73248665D01*
X188880922Y-73219001D01*
X188878000Y-73189336D01*
X188878000Y-65629587D01*
X188954000Y-65637072D01*
X188988250Y-65634000D01*
X189147000Y-65475250D01*
X189147000Y-64831000D01*
X189401000Y-64831000D01*
X189401000Y-65475250D01*
X189559750Y-65634000D01*
X189594000Y-65637072D01*
X189718482Y-65624812D01*
X189838180Y-65588502D01*
X189948494Y-65529537D01*
X190045185Y-65450185D01*
X190124537Y-65353494D01*
X190183502Y-65243180D01*
X190219812Y-65123482D01*
X190232072Y-64999000D01*
X190229000Y-64989750D01*
X190070250Y-64831000D01*
X189401000Y-64831000D01*
X189147000Y-64831000D01*
X189127000Y-64831000D01*
X189127000Y-64577000D01*
X189147000Y-64577000D01*
X189147000Y-64557000D01*
X189401000Y-64557000D01*
X189401000Y-64577000D01*
X190070250Y-64577000D01*
X190229000Y-64418250D01*
X190232072Y-64409000D01*
X190219812Y-64284518D01*
X190183502Y-64164820D01*
X190124537Y-64054506D01*
X190063583Y-63980233D01*
X190073307Y-63881500D01*
X190073307Y-63586500D01*
X190061263Y-63464216D01*
X190025594Y-63346631D01*
X189967671Y-63238265D01*
X189889719Y-63143281D01*
X189794735Y-63065329D01*
X189686369Y-63007406D01*
X189568784Y-62971737D01*
X189446500Y-62959693D01*
X189101500Y-62959693D01*
X188979216Y-62971737D01*
X188861631Y-63007406D01*
X188778749Y-63051708D01*
X188694085Y-63006454D01*
X188578845Y-62971497D01*
X188459000Y-62959693D01*
X188089000Y-62959693D01*
X187969155Y-62971497D01*
X187853915Y-63006454D01*
X187747709Y-63063222D01*
X187654619Y-63139619D01*
X187578222Y-63232709D01*
X187521454Y-63338915D01*
X187486497Y-63454155D01*
X187474693Y-63574000D01*
X187474693Y-63844000D01*
X187486497Y-63963845D01*
X187521454Y-64079085D01*
X187578222Y-64185291D01*
X187605886Y-64219000D01*
X187578222Y-64252709D01*
X187521454Y-64358915D01*
X187486497Y-64474155D01*
X187474693Y-64594000D01*
X187474693Y-64864000D01*
X187486497Y-64983845D01*
X187521454Y-65099085D01*
X187578222Y-65205291D01*
X187654619Y-65298381D01*
X187670000Y-65311004D01*
X187670001Y-72968814D01*
X186878000Y-73760815D01*
X186878000Y-72248666D01*
X186880922Y-72219000D01*
X186869260Y-72100595D01*
X186834723Y-71986741D01*
X186778637Y-71881812D01*
X186753286Y-71850922D01*
X186703159Y-71789841D01*
X186680113Y-71770928D01*
X181878000Y-66968816D01*
X181878000Y-62311004D01*
X181893381Y-62298381D01*
X181969778Y-62205291D01*
X182026546Y-62099085D01*
X182061503Y-61983845D01*
X182073307Y-61864000D01*
X182073307Y-61594000D01*
X182061503Y-61474155D01*
X182026546Y-61358915D01*
X181969778Y-61252709D01*
X181942114Y-61219000D01*
X181969778Y-61185291D01*
X182026546Y-61079085D01*
X182061503Y-60963845D01*
X182073307Y-60844000D01*
X182073307Y-60574000D01*
X182061503Y-60454155D01*
X182026546Y-60338915D01*
X181969778Y-60232709D01*
X181893381Y-60139619D01*
X181800291Y-60063222D01*
X181694085Y-60006454D01*
X181578845Y-59971497D01*
X181459000Y-59959693D01*
X181089000Y-59959693D01*
X180969155Y-59971497D01*
X180853915Y-60006454D01*
X180769251Y-60051708D01*
X180686369Y-60007406D01*
X180568784Y-59971737D01*
X180446500Y-59959693D01*
X180101500Y-59959693D01*
X179979216Y-59971737D01*
X179861631Y-60007406D01*
X179753265Y-60065329D01*
X179658281Y-60143281D01*
X179580329Y-60238265D01*
X179522406Y-60346631D01*
X179486737Y-60464216D01*
X179474693Y-60586500D01*
X179474693Y-60881500D01*
X179484417Y-60980233D01*
X179423463Y-61054506D01*
X179364498Y-61164820D01*
X179328188Y-61284518D01*
X179315928Y-61409000D01*
X179319000Y-61418250D01*
X179477750Y-61577000D01*
X180147000Y-61577000D01*
X180147000Y-61557000D01*
X180401000Y-61557000D01*
X180401000Y-61577000D01*
X180421000Y-61577000D01*
X180421000Y-61831000D01*
X180401000Y-61831000D01*
X180401000Y-62475250D01*
X180559750Y-62634000D01*
X180594000Y-62637072D01*
X180670000Y-62629587D01*
X180670001Y-67189323D01*
X180667078Y-67219000D01*
X180678740Y-67337404D01*
X180713278Y-67451259D01*
X180769364Y-67556188D01*
X180844842Y-67648159D01*
X180867889Y-67667073D01*
X185042312Y-71841497D01*
X185024000Y-71839693D01*
X184124000Y-71839693D01*
X184030492Y-71848903D01*
X183940577Y-71876178D01*
X183857711Y-71920471D01*
X183785079Y-71980079D01*
X183725471Y-72052711D01*
X183681178Y-72135577D01*
X183653903Y-72225492D01*
X183644693Y-72319000D01*
X183644693Y-73019000D01*
X183653903Y-73112508D01*
X183681178Y-73202423D01*
X183690039Y-73219000D01*
X183681178Y-73235577D01*
X183653903Y-73325492D01*
X183644693Y-73419000D01*
X183644693Y-73958201D01*
X183433326Y-74169568D01*
X183438307Y-74119000D01*
X183438307Y-73435918D01*
X183489537Y-73373494D01*
X183548502Y-73263180D01*
X183584812Y-73143482D01*
X183597072Y-73019000D01*
X183594000Y-72954750D01*
X183435250Y-72796000D01*
X182636000Y-72796000D01*
X182636000Y-72816000D01*
X182382000Y-72816000D01*
X182382000Y-72796000D01*
X181582750Y-72796000D01*
X181424000Y-72954750D01*
X181420928Y-73019000D01*
X181433188Y-73143482D01*
X181469498Y-73263180D01*
X181528463Y-73373494D01*
X181579693Y-73435918D01*
X181579693Y-74119000D01*
X181588903Y-74212508D01*
X181616178Y-74302423D01*
X181660471Y-74385289D01*
X181720079Y-74457921D01*
X181792711Y-74517529D01*
X181870001Y-74558842D01*
X181870001Y-74960816D01*
X179228185Y-72319000D01*
X181420928Y-72319000D01*
X181424000Y-72383250D01*
X181582750Y-72542000D01*
X182382000Y-72542000D01*
X182382000Y-71842750D01*
X182636000Y-71842750D01*
X182636000Y-72542000D01*
X183435250Y-72542000D01*
X183594000Y-72383250D01*
X183597072Y-72319000D01*
X183584812Y-72194518D01*
X183548502Y-72074820D01*
X183489537Y-71964506D01*
X183410185Y-71867815D01*
X183313494Y-71788463D01*
X183203180Y-71729498D01*
X183083482Y-71693188D01*
X182959000Y-71680928D01*
X182794750Y-71684000D01*
X182636000Y-71842750D01*
X182382000Y-71842750D01*
X182223250Y-71684000D01*
X182059000Y-71680928D01*
X181934518Y-71693188D01*
X181814820Y-71729498D01*
X181704506Y-71788463D01*
X181607815Y-71867815D01*
X181528463Y-71964506D01*
X181469498Y-72074820D01*
X181433188Y-72194518D01*
X181420928Y-72319000D01*
X179228185Y-72319000D01*
X178722078Y-71812894D01*
X178703159Y-71789841D01*
X178611188Y-71714363D01*
X178506259Y-71658277D01*
X178392405Y-71623740D01*
X178303667Y-71615000D01*
X178274000Y-71612078D01*
X178244333Y-71615000D01*
X176684587Y-71615000D01*
X176692072Y-71539000D01*
X176689000Y-71504750D01*
X176530250Y-71346000D01*
X175886000Y-71346000D01*
X175886000Y-71366000D01*
X175632000Y-71366000D01*
X175632000Y-71346000D01*
X175612000Y-71346000D01*
X175612000Y-71092000D01*
X175632000Y-71092000D01*
X175632000Y-70422750D01*
X175886000Y-70422750D01*
X175886000Y-71092000D01*
X176530250Y-71092000D01*
X176689000Y-70933250D01*
X176692072Y-70899000D01*
X176679812Y-70774518D01*
X176643502Y-70654820D01*
X176584537Y-70544506D01*
X176505185Y-70447815D01*
X176408494Y-70368463D01*
X176298180Y-70309498D01*
X176178482Y-70273188D01*
X176054000Y-70260928D01*
X176044750Y-70264000D01*
X175886000Y-70422750D01*
X175632000Y-70422750D01*
X175473250Y-70264000D01*
X175464000Y-70260928D01*
X175339518Y-70273188D01*
X175219820Y-70309498D01*
X175109506Y-70368463D01*
X175035233Y-70429417D01*
X174936500Y-70419693D01*
X174641500Y-70419693D01*
X174519216Y-70431737D01*
X174401631Y-70467406D01*
X174293265Y-70525329D01*
X174198281Y-70603281D01*
X174120329Y-70698265D01*
X174062406Y-70806631D01*
X174026737Y-70924216D01*
X174014693Y-71046500D01*
X174014693Y-71391500D01*
X174026737Y-71513784D01*
X174062406Y-71631369D01*
X174106708Y-71714251D01*
X174061454Y-71798915D01*
X174026497Y-71914155D01*
X174014693Y-72034000D01*
X174014693Y-72404000D01*
X174026497Y-72523845D01*
X174061454Y-72639085D01*
X174118222Y-72745291D01*
X174194619Y-72838381D01*
X174287709Y-72914778D01*
X174393915Y-72971546D01*
X174509155Y-73006503D01*
X174629000Y-73018307D01*
X174899000Y-73018307D01*
X175018845Y-73006503D01*
X175134085Y-72971546D01*
X175240291Y-72914778D01*
X175274000Y-72887114D01*
X175307709Y-72914778D01*
X175413915Y-72971546D01*
X175529155Y-73006503D01*
X175649000Y-73018307D01*
X175919000Y-73018307D01*
X176038845Y-73006503D01*
X176154085Y-72971546D01*
X176260291Y-72914778D01*
X176353381Y-72838381D01*
X176366004Y-72823000D01*
X178023816Y-72823000D01*
X181170001Y-75969186D01*
X181170000Y-90260816D01*
X180878000Y-89968816D01*
X180878000Y-87248667D01*
X180880922Y-87219000D01*
X180869260Y-87100595D01*
X180834723Y-86986741D01*
X180778637Y-86881812D01*
X180742994Y-86838381D01*
X180703159Y-86789841D01*
X180680112Y-86770927D01*
X179722078Y-85812893D01*
X179703159Y-85789841D01*
X179611188Y-85714363D01*
X179506259Y-85658277D01*
X179392405Y-85623740D01*
X179303667Y-85615000D01*
X179274000Y-85612078D01*
X179244333Y-85615000D01*
X178684587Y-85615000D01*
X178692072Y-85539000D01*
X178689000Y-85504750D01*
X178530250Y-85346000D01*
X177886000Y-85346000D01*
X177886000Y-85366000D01*
X177632000Y-85366000D01*
X177632000Y-85346000D01*
X177612000Y-85346000D01*
X177612000Y-85092000D01*
X177632000Y-85092000D01*
X177632000Y-84422750D01*
X177886000Y-84422750D01*
X177886000Y-85092000D01*
X178530250Y-85092000D01*
X178689000Y-84933250D01*
X178692072Y-84899000D01*
X178679812Y-84774518D01*
X178643502Y-84654820D01*
X178584537Y-84544506D01*
X178505185Y-84447815D01*
X178408494Y-84368463D01*
X178298180Y-84309498D01*
X178178482Y-84273188D01*
X178054000Y-84260928D01*
X178044750Y-84264000D01*
X177886000Y-84422750D01*
X177632000Y-84422750D01*
X177473250Y-84264000D01*
X177464000Y-84260928D01*
X177339518Y-84273188D01*
X177219820Y-84309498D01*
X177109506Y-84368463D01*
X177035233Y-84429417D01*
X176936500Y-84419693D01*
X176641500Y-84419693D01*
X176519216Y-84431737D01*
X176401631Y-84467406D01*
X176293265Y-84525329D01*
X176198281Y-84603281D01*
X176120329Y-84698265D01*
X176062406Y-84806631D01*
X176026737Y-84924216D01*
X176014693Y-85046500D01*
X176014693Y-85391500D01*
X176026737Y-85513784D01*
X176062406Y-85631369D01*
X176106708Y-85714251D01*
X176061454Y-85798915D01*
X176026497Y-85914155D01*
X176014693Y-86034000D01*
X176014693Y-86404000D01*
X176026497Y-86523845D01*
X176061454Y-86639085D01*
X176118222Y-86745291D01*
X176194619Y-86838381D01*
X176287709Y-86914778D01*
X176393915Y-86971546D01*
X176509155Y-87006503D01*
X176629000Y-87018307D01*
X176899000Y-87018307D01*
X177018845Y-87006503D01*
X177134085Y-86971546D01*
X177240291Y-86914778D01*
X177274000Y-86887114D01*
X177307709Y-86914778D01*
X177413915Y-86971546D01*
X177529155Y-87006503D01*
X177649000Y-87018307D01*
X177919000Y-87018307D01*
X178038845Y-87006503D01*
X178154085Y-86971546D01*
X178260291Y-86914778D01*
X178353381Y-86838381D01*
X178366004Y-86823000D01*
X179023816Y-86823000D01*
X179670001Y-87469186D01*
X179670000Y-90189333D01*
X179667078Y-90219000D01*
X179674166Y-90290963D01*
X179678740Y-90337404D01*
X179713277Y-90451258D01*
X179769363Y-90556187D01*
X179844841Y-90648159D01*
X179867893Y-90667078D01*
X180867885Y-91667070D01*
X180936812Y-91723637D01*
X180992289Y-91753290D01*
X181095315Y-91856316D01*
X181094692Y-91869000D01*
X181094692Y-92289692D01*
X180674000Y-92289692D01*
X180661316Y-92290315D01*
X180558290Y-92187289D01*
X180528637Y-92131812D01*
X180453159Y-92039841D01*
X180361188Y-91964363D01*
X180256259Y-91908277D01*
X180142405Y-91873740D01*
X180053667Y-91865000D01*
X177053667Y-91865000D01*
X177024000Y-91862078D01*
X176994333Y-91865000D01*
X176905595Y-91873740D01*
X176791741Y-91908277D01*
X176686812Y-91964363D01*
X176594841Y-92039841D01*
X176575929Y-92062886D01*
X166023816Y-102615000D01*
X155524185Y-102615000D01*
X153722078Y-100812894D01*
X153703159Y-100789841D01*
X153611188Y-100714363D01*
X153506259Y-100658277D01*
X153392405Y-100623740D01*
X153303667Y-100615000D01*
X153274000Y-100612078D01*
X153244333Y-100615000D01*
X140303666Y-100615000D01*
X140273999Y-100612078D01*
X140155595Y-100623740D01*
X140041741Y-100658277D01*
X139936812Y-100714363D01*
X139844841Y-100789841D01*
X139825929Y-100812886D01*
X138023816Y-102615000D01*
X130303664Y-102615000D01*
X130273999Y-102612078D01*
X130244335Y-102615000D01*
X130244333Y-102615000D01*
X130155595Y-102623740D01*
X130041741Y-102658277D01*
X129936812Y-102714363D01*
X129844841Y-102789841D01*
X129825929Y-102812886D01*
X126023816Y-106615000D01*
X116524185Y-106615000D01*
X114722078Y-104812894D01*
X114703159Y-104789841D01*
X114611188Y-104714363D01*
X114506259Y-104658277D01*
X114392405Y-104623740D01*
X114303667Y-104615000D01*
X114274000Y-104612078D01*
X114244333Y-104615000D01*
X113366004Y-104615000D01*
X113353381Y-104599619D01*
X113260291Y-104523222D01*
X113154085Y-104466454D01*
X113038845Y-104431497D01*
X112919000Y-104419693D01*
X112649000Y-104419693D01*
X112529155Y-104431497D01*
X112413915Y-104466454D01*
X112307709Y-104523222D01*
X112274000Y-104550886D01*
X112240291Y-104523222D01*
X112134085Y-104466454D01*
X112018845Y-104431497D01*
X111899000Y-104419693D01*
X111629000Y-104419693D01*
X111509155Y-104431497D01*
X111393915Y-104466454D01*
X111287709Y-104523222D01*
X111194619Y-104599619D01*
X111118222Y-104692709D01*
X111061454Y-104798915D01*
X111026497Y-104914155D01*
X111014693Y-105034000D01*
X103826000Y-105034000D01*
X103826000Y-103658133D01*
X107864472Y-103658133D01*
X107926965Y-103894450D01*
X108169678Y-104007850D01*
X108429849Y-104071719D01*
X108697482Y-104083604D01*
X108962291Y-104043048D01*
X109214100Y-103951609D01*
X109321035Y-103894450D01*
X109383528Y-103658133D01*
X108624000Y-102898605D01*
X107864472Y-103658133D01*
X103826000Y-103658133D01*
X103826000Y-102036609D01*
X104380538Y-102036609D01*
X104384409Y-102074282D01*
X104476579Y-102299533D01*
X104610922Y-102502474D01*
X104782275Y-102675307D01*
X104984054Y-102811390D01*
X105208504Y-102905493D01*
X105447000Y-102954000D01*
X105797000Y-102954000D01*
X105797000Y-101846000D01*
X106051000Y-101846000D01*
X106051000Y-102954000D01*
X106401000Y-102954000D01*
X106639496Y-102905493D01*
X106863946Y-102811390D01*
X107065725Y-102675307D01*
X107237078Y-102502474D01*
X107300171Y-102407164D01*
X107271281Y-102524849D01*
X107259396Y-102792482D01*
X107299952Y-103057291D01*
X107391391Y-103309100D01*
X107448550Y-103416035D01*
X107684867Y-103478528D01*
X108444395Y-102719000D01*
X108803605Y-102719000D01*
X109563133Y-103478528D01*
X109799450Y-103416035D01*
X109912850Y-103173322D01*
X109976719Y-102913151D01*
X109988604Y-102645518D01*
X109948048Y-102380709D01*
X109856609Y-102128900D01*
X109799450Y-102021965D01*
X109563133Y-101959472D01*
X108803605Y-102719000D01*
X108444395Y-102719000D01*
X107684867Y-101959472D01*
X107456503Y-102019862D01*
X107342731Y-101846000D01*
X106051000Y-101846000D01*
X105797000Y-101846000D01*
X104505269Y-101846000D01*
X104380538Y-102036609D01*
X103826000Y-102036609D01*
X103826000Y-101779867D01*
X107864472Y-101779867D01*
X108624000Y-102539395D01*
X109383528Y-101779867D01*
X109321035Y-101543550D01*
X109078322Y-101430150D01*
X108818151Y-101366281D01*
X108550518Y-101354396D01*
X108285709Y-101394952D01*
X108033900Y-101486391D01*
X107926965Y-101543550D01*
X107864472Y-101779867D01*
X103826000Y-101779867D01*
X103826000Y-101401391D01*
X104380538Y-101401391D01*
X104505269Y-101592000D01*
X105797000Y-101592000D01*
X105797000Y-100484000D01*
X106051000Y-100484000D01*
X106051000Y-101592000D01*
X107342731Y-101592000D01*
X107467462Y-101401391D01*
X107463591Y-101363718D01*
X107371421Y-101138467D01*
X107237078Y-100935526D01*
X107065725Y-100762693D01*
X106863946Y-100626610D01*
X106639496Y-100532507D01*
X106401000Y-100484000D01*
X106051000Y-100484000D01*
X105797000Y-100484000D01*
X105447000Y-100484000D01*
X105208504Y-100532507D01*
X104984054Y-100626610D01*
X104782275Y-100762693D01*
X104610922Y-100935526D01*
X104476579Y-101138467D01*
X104384409Y-101363718D01*
X104380538Y-101401391D01*
X103826000Y-101401391D01*
X103826000Y-60925791D01*
X145297000Y-60925791D01*
X145297000Y-61512209D01*
X145411405Y-62087359D01*
X145635817Y-62629138D01*
X145961613Y-63116727D01*
X146376273Y-63531387D01*
X146863862Y-63857183D01*
X147405641Y-64081595D01*
X147980791Y-64196000D01*
X148567209Y-64196000D01*
X149142359Y-64081595D01*
X149684138Y-63857183D01*
X150171727Y-63531387D01*
X150586387Y-63116727D01*
X150912183Y-62629138D01*
X151136595Y-62087359D01*
X151154170Y-61999000D01*
X179315928Y-61999000D01*
X179328188Y-62123482D01*
X179364498Y-62243180D01*
X179423463Y-62353494D01*
X179502815Y-62450185D01*
X179599506Y-62529537D01*
X179709820Y-62588502D01*
X179829518Y-62624812D01*
X179954000Y-62637072D01*
X179988250Y-62634000D01*
X180147000Y-62475250D01*
X180147000Y-61831000D01*
X179477750Y-61831000D01*
X179319000Y-61989750D01*
X179315928Y-61999000D01*
X151154170Y-61999000D01*
X151251000Y-61512209D01*
X151251000Y-60925791D01*
X151136595Y-60350641D01*
X150912183Y-59808862D01*
X150586387Y-59321273D01*
X150171727Y-58906613D01*
X149684138Y-58580817D01*
X149142359Y-58356405D01*
X148567209Y-58242000D01*
X147980791Y-58242000D01*
X147405641Y-58356405D01*
X146863862Y-58580817D01*
X146376273Y-58906613D01*
X145961613Y-59321273D01*
X145635817Y-59808862D01*
X145411405Y-60350641D01*
X145297000Y-60925791D01*
X103826000Y-60925791D01*
X103826000Y-60246002D01*
X103894264Y-59549791D01*
X104088613Y-58906078D01*
X104404293Y-58312370D01*
X104829278Y-57791287D01*
X105347381Y-57362675D01*
X105938872Y-57042856D01*
X106581216Y-56844017D01*
X107275927Y-56771000D01*
X189246998Y-56771000D01*
X189943209Y-56839264D01*
G37*
%TD.AperFunction*%
D22*
X182601000Y-93542000D02*
X182621000Y-93542000D01*
X182621000Y-93796000D01*
X182601000Y-93796000D01*
X182601000Y-93816000D01*
X182347000Y-93816000D01*
X182347000Y-93796000D01*
X182327000Y-93796000D01*
X182327000Y-93542000D01*
X182347000Y-93542000D01*
X182347000Y-93522000D01*
X182601000Y-93522000D01*
X182601000Y-93542000D01*
%TA.AperFunction,Conductor*%
D24*
G36*
X182601000Y-93542000D02*
G01*
X182621000Y-93542000D01*
X182621000Y-93796000D01*
X182601000Y-93796000D01*
X182601000Y-93816000D01*
X182347000Y-93816000D01*
X182347000Y-93796000D01*
X182327000Y-93796000D01*
X182327000Y-93542000D01*
X182347000Y-93542000D01*
X182347000Y-93522000D01*
X182601000Y-93522000D01*
X182601000Y-93542000D01*
G37*
%TD.AperFunction*%
%TD*%
M02*
