%TF.GenerationSoftware,KiCad,Pcbnew,(5.1.10)-1*%
%TF.CreationDate,2022-04-30T13:51:09-07:00*%
%TF.ProjectId,project,70726f6a-6563-4742-9e6b-696361645f70,0.0*%
%TF.SameCoordinates,Original*%
%TF.FileFunction,Copper,L2,Bot*%
%TF.FilePolarity,Positive*%
%FSLAX46Y46*%
G04 Gerber Fmt 4.6, Leading zero omitted, Abs format (unit mm)*
G04 Created by KiCad (PCBNEW (5.1.10)-1) date 2022-04-30 13:51:09*
%MOMM*%
%LPD*%
G01*
G04 APERTURE LIST*
%TA.AperFunction,SMDPad,CuDef*%
%ADD10R,1.400000X0.300000*%
%TD*%
%TA.AperFunction,ComponentPad*%
%ADD11C,5.000000*%
%TD*%
%TA.AperFunction,SMDPad,CuDef*%
%ADD12R,2.500000X1.200000*%
%TD*%
%TA.AperFunction,SMDPad,CuDef*%
%ADD13R,1.250000X1.000000*%
%TD*%
%TA.AperFunction,SMDPad,CuDef*%
%ADD14R,1.900000X1.500000*%
%TD*%
%TA.AperFunction,ComponentPad*%
%ADD15C,1.450000*%
%TD*%
%TA.AperFunction,SMDPad,CuDef*%
%ADD16R,1.350000X0.400000*%
%TD*%
%TA.AperFunction,ComponentPad*%
%ADD17O,1.900000X1.200000*%
%TD*%
%TA.AperFunction,SMDPad,CuDef*%
%ADD18R,1.900000X1.200000*%
%TD*%
%TA.AperFunction,ComponentPad*%
%ADD19O,1.350000X1.350000*%
%TD*%
%TA.AperFunction,ComponentPad*%
%ADD20R,1.350000X1.350000*%
%TD*%
%TA.AperFunction,SMDPad,CuDef*%
%ADD21R,0.800000X0.800000*%
%TD*%
%TA.AperFunction,SMDPad,CuDef*%
%ADD22R,0.500000X0.900000*%
%TD*%
%TA.AperFunction,SMDPad,CuDef*%
%ADD23R,1.550000X0.600000*%
%TD*%
%TA.AperFunction,SMDPad,CuDef*%
%ADD24R,1.800000X1.200000*%
%TD*%
%TA.AperFunction,SMDPad,CuDef*%
%ADD25C,1.000000*%
%TD*%
%TA.AperFunction,SMDPad,CuDef*%
%ADD26R,0.900000X0.800000*%
%TD*%
%TA.AperFunction,SMDPad,CuDef*%
%ADD27R,0.700000X0.450000*%
%TD*%
%TA.AperFunction,SMDPad,CuDef*%
%ADD28R,2.000000X3.800000*%
%TD*%
%TA.AperFunction,SMDPad,CuDef*%
%ADD29R,2.000000X1.500000*%
%TD*%
%TA.AperFunction,SMDPad,CuDef*%
%ADD30C,0.100000*%
%TD*%
%TA.AperFunction,SMDPad,CuDef*%
%ADD31R,1.700000X1.700000*%
%TD*%
%TA.AperFunction,SMDPad,CuDef*%
%ADD32C,0.250000*%
%TD*%
%TA.AperFunction,SMDPad,CuDef*%
%ADD33R,2.600000X2.600000*%
%TD*%
%TA.AperFunction,SMDPad,CuDef*%
%ADD34R,1.060000X0.650000*%
%TD*%
%TA.AperFunction,SMDPad,CuDef*%
%ADD35R,1.300000X1.400000*%
%TD*%
%TA.AperFunction,SMDPad,CuDef*%
%ADD36R,1.950000X2.150000*%
%TD*%
%TA.AperFunction,ViaPad*%
%ADD37C,0.600000*%
%TD*%
%TA.AperFunction,Conductor*%
%ADD38C,0.254000*%
%TD*%
%TA.AperFunction,Conductor*%
%ADD39C,0.406400*%
%TD*%
%TA.AperFunction,Conductor*%
%ADD40C,0.304800*%
%TD*%
%TA.AperFunction,Conductor*%
%ADD41C,0.200000*%
%TD*%
G04 APERTURE END LIST*
%TO.P,F1,1*%
%TO.N,+BATT*%
%TA.AperFunction,SMDPad,CuDef*%
G36*
G01*
X110136500Y-90262750D02*
X110136500Y-91175250D01*
G75*
G02*
X109892750Y-91419000I-243750J0D01*
G01*
X109405250Y-91419000D01*
G75*
G02*
X109161500Y-91175250I0J243750D01*
G01*
X109161500Y-90262750D01*
G75*
G02*
X109405250Y-90019000I243750J0D01*
G01*
X109892750Y-90019000D01*
G75*
G02*
X110136500Y-90262750I0J-243750D01*
G01*
G37*
%TD.AperFunction*%
%TO.P,F1,2*%
%TO.N,Net-(F1-Pad2)*%
%TA.AperFunction,SMDPad,CuDef*%
G36*
G01*
X108261500Y-90262750D02*
X108261500Y-91175250D01*
G75*
G02*
X108017750Y-91419000I-243750J0D01*
G01*
X107530250Y-91419000D01*
G75*
G02*
X107286500Y-91175250I0J243750D01*
G01*
X107286500Y-90262750D01*
G75*
G02*
X107530250Y-90019000I243750J0D01*
G01*
X108017750Y-90019000D01*
G75*
G02*
X108261500Y-90262750I0J-243750D01*
G01*
G37*
%TD.AperFunction*%
%TD*%
D10*
%TO.P,U2,10*%
%TO.N,+BATT*%
X115474000Y-83219000D03*
%TO.P,U2,9*%
X115474000Y-82719000D03*
%TO.P,U2,8*%
%TO.N,Net-(RP2-Pad1)*%
X115474000Y-82219000D03*
%TO.P,U2,7*%
%TO.N,N/C*%
X115474000Y-81719000D03*
%TO.P,U2,6*%
%TO.N,Net-(RP1-Pad1)*%
X115474000Y-81219000D03*
%TO.P,U2,5*%
%TO.N,GND*%
X111074000Y-81219000D03*
%TO.P,U2,4*%
%TO.N,Net-(RL2-Pad1)*%
X111074000Y-81719000D03*
%TO.P,U2,3*%
%TO.N,Net-(RL1-Pad1)*%
X111074000Y-82219000D03*
%TO.P,U2,2*%
%TO.N,VBUS*%
X111074000Y-82719000D03*
%TO.P,U2,1*%
X111074000Y-83219000D03*
%TD*%
D11*
%TO.P,J4,1*%
%TO.N,N/C*%
X148274000Y-61219000D03*
%TD*%
D12*
%TO.P,SW1,1*%
%TO.N,+BATT*%
X186274000Y-102719000D03*
%TO.P,SW1,2*%
%TO.N,VCC*%
X186274000Y-105259000D03*
%TO.P,SW1,3*%
%TO.N,N/C*%
X186274000Y-107719000D03*
%TD*%
D13*
%TO.P,C3,1*%
%TO.N,VBUS*%
X108274000Y-83219000D03*
%TO.P,C3,2*%
%TO.N,GND*%
X108274000Y-81219000D03*
%TD*%
%TO.P,C4,2*%
%TO.N,GND*%
X118274000Y-81219000D03*
%TO.P,C4,1*%
%TO.N,+BATT*%
X118274000Y-83219000D03*
%TD*%
D14*
%TO.P,J1,6*%
%TO.N,GND*%
X105924000Y-104219000D03*
D15*
X108624000Y-107719000D03*
D16*
%TO.P,J1,2*%
%TO.N,N/C*%
X108624000Y-105869000D03*
%TO.P,J1,1*%
%TO.N,VBUS*%
X108624000Y-106519000D03*
%TO.P,J1,5*%
%TO.N,GND*%
X108624000Y-103919000D03*
%TO.P,J1,4*%
%TO.N,N/C*%
X108624000Y-104569000D03*
%TO.P,J1,3*%
X108624000Y-105219000D03*
D15*
%TO.P,J1,6*%
%TO.N,GND*%
X108624000Y-102719000D03*
D14*
X105924000Y-106219000D03*
D17*
X105924000Y-108719000D03*
X105924000Y-101719000D03*
D18*
X105924000Y-102319000D03*
X105924000Y-108119000D03*
%TD*%
D19*
%TO.P,J3,4*%
%TO.N,GND*%
X191274000Y-89219000D03*
%TO.P,J3,3*%
%TO.N,Net-(J3-Pad3)*%
X191274000Y-91219000D03*
D20*
%TO.P,J3,1*%
%TO.N,VCC*%
X191274000Y-95219000D03*
%TD*%
D21*
%TO.P,DL1,1*%
%TO.N,Net-(DL1-Pad1)*%
X106274000Y-85219000D03*
%TO.P,DL1,2*%
%TO.N,VBUS*%
X106274000Y-83619000D03*
%TD*%
%TO.P,DL2,1*%
%TO.N,Net-(DL2-Pad1)*%
X106274000Y-79219000D03*
%TO.P,DL2,2*%
%TO.N,VBUS*%
X106274000Y-80819000D03*
%TD*%
D22*
%TO.P,RL1,2*%
%TO.N,Net-(DL1-Pad1)*%
X108524000Y-85219000D03*
%TO.P,RL1,1*%
%TO.N,Net-(RL1-Pad1)*%
X110024000Y-85219000D03*
%TD*%
%TO.P,RL2,1*%
%TO.N,Net-(RL2-Pad1)*%
X110024000Y-79219000D03*
%TO.P,RL2,2*%
%TO.N,Net-(DL2-Pad1)*%
X108524000Y-79219000D03*
%TD*%
%TO.P,RP1,2*%
%TO.N,GND*%
X112524000Y-79219000D03*
%TO.P,RP1,1*%
%TO.N,Net-(RP1-Pad1)*%
X114024000Y-79219000D03*
%TD*%
%TO.P,RP2,1*%
%TO.N,Net-(RP2-Pad1)*%
X114024000Y-85219000D03*
%TO.P,RP2,2*%
%TO.N,GND*%
X112524000Y-85219000D03*
%TD*%
D23*
%TO.P,J2,1*%
%TO.N,Net-(F1-Pad2)*%
X107336500Y-94719000D03*
%TO.P,J2,2*%
%TO.N,GND*%
X107336500Y-95719000D03*
D24*
%TO.P,J2,1*%
%TO.N,Net-(F1-Pad2)*%
X111211500Y-93419000D03*
%TO.P,J2,2*%
%TO.N,GND*%
X111211500Y-97019000D03*
%TD*%
%TO.P,R19,1*%
%TO.N,Net-(R19-Pad1)*%
%TA.AperFunction,SMDPad,CuDef*%
G36*
G01*
X123004000Y-81154000D02*
X123004000Y-80784000D01*
G75*
G02*
X123139000Y-80649000I135000J0D01*
G01*
X123409000Y-80649000D01*
G75*
G02*
X123544000Y-80784000I0J-135000D01*
G01*
X123544000Y-81154000D01*
G75*
G02*
X123409000Y-81289000I-135000J0D01*
G01*
X123139000Y-81289000D01*
G75*
G02*
X123004000Y-81154000I0J135000D01*
G01*
G37*
%TD.AperFunction*%
%TO.P,R19,2*%
%TO.N,Net-(R17-Pad2)*%
%TA.AperFunction,SMDPad,CuDef*%
G36*
G01*
X124024000Y-81154000D02*
X124024000Y-80784000D01*
G75*
G02*
X124159000Y-80649000I135000J0D01*
G01*
X124429000Y-80649000D01*
G75*
G02*
X124564000Y-80784000I0J-135000D01*
G01*
X124564000Y-81154000D01*
G75*
G02*
X124429000Y-81289000I-135000J0D01*
G01*
X124159000Y-81289000D01*
G75*
G02*
X124024000Y-81154000I0J135000D01*
G01*
G37*
%TD.AperFunction*%
%TD*%
%TO.P,R1,1*%
%TO.N,Net-(R1-Pad1)*%
%TA.AperFunction,SMDPad,CuDef*%
G36*
G01*
X128611500Y-79018999D02*
X128611500Y-79919001D01*
G75*
G02*
X128361501Y-80169000I-249999J0D01*
G01*
X127836499Y-80169000D01*
G75*
G02*
X127586500Y-79919001I0J249999D01*
G01*
X127586500Y-79018999D01*
G75*
G02*
X127836499Y-78769000I249999J0D01*
G01*
X128361501Y-78769000D01*
G75*
G02*
X128611500Y-79018999I0J-249999D01*
G01*
G37*
%TD.AperFunction*%
%TO.P,R1,2*%
%TO.N,Net-(R1-Pad2)*%
%TA.AperFunction,SMDPad,CuDef*%
G36*
G01*
X126786500Y-79018999D02*
X126786500Y-79919001D01*
G75*
G02*
X126536501Y-80169000I-249999J0D01*
G01*
X126011499Y-80169000D01*
G75*
G02*
X125761500Y-79919001I0J249999D01*
G01*
X125761500Y-79018999D01*
G75*
G02*
X126011499Y-78769000I249999J0D01*
G01*
X126536501Y-78769000D01*
G75*
G02*
X126786500Y-79018999I0J-249999D01*
G01*
G37*
%TD.AperFunction*%
%TD*%
%TO.P,R2,1*%
%TO.N,Net-(R19-Pad1)*%
%TA.AperFunction,SMDPad,CuDef*%
G36*
G01*
X123224000Y-79069000D02*
X123224000Y-78869000D01*
G75*
G02*
X123324000Y-78769000I100000J0D01*
G01*
X123584000Y-78769000D01*
G75*
G02*
X123684000Y-78869000I0J-100000D01*
G01*
X123684000Y-79069000D01*
G75*
G02*
X123584000Y-79169000I-100000J0D01*
G01*
X123324000Y-79169000D01*
G75*
G02*
X123224000Y-79069000I0J100000D01*
G01*
G37*
%TD.AperFunction*%
%TO.P,R2,2*%
%TO.N,Net-(R2-Pad2)*%
%TA.AperFunction,SMDPad,CuDef*%
G36*
G01*
X123864000Y-79069000D02*
X123864000Y-78869000D01*
G75*
G02*
X123964000Y-78769000I100000J0D01*
G01*
X124224000Y-78769000D01*
G75*
G02*
X124324000Y-78869000I0J-100000D01*
G01*
X124324000Y-79069000D01*
G75*
G02*
X124224000Y-79169000I-100000J0D01*
G01*
X123964000Y-79169000D01*
G75*
G02*
X123864000Y-79069000I0J100000D01*
G01*
G37*
%TD.AperFunction*%
%TD*%
%TO.P,R3,1*%
%TO.N,Net-(R3-Pad1)*%
%TA.AperFunction,SMDPad,CuDef*%
G36*
G01*
X129799000Y-76093999D02*
X129799000Y-77344001D01*
G75*
G02*
X129549001Y-77594000I-249999J0D01*
G01*
X128923999Y-77594000D01*
G75*
G02*
X128674000Y-77344001I0J249999D01*
G01*
X128674000Y-76093999D01*
G75*
G02*
X128923999Y-75844000I249999J0D01*
G01*
X129549001Y-75844000D01*
G75*
G02*
X129799000Y-76093999I0J-249999D01*
G01*
G37*
%TD.AperFunction*%
%TO.P,R3,2*%
%TO.N,Net-(R1-Pad2)*%
%TA.AperFunction,SMDPad,CuDef*%
G36*
G01*
X126874000Y-76093999D02*
X126874000Y-77344001D01*
G75*
G02*
X126624001Y-77594000I-249999J0D01*
G01*
X125998999Y-77594000D01*
G75*
G02*
X125749000Y-77344001I0J249999D01*
G01*
X125749000Y-76093999D01*
G75*
G02*
X125998999Y-75844000I249999J0D01*
G01*
X126624001Y-75844000D01*
G75*
G02*
X126874000Y-76093999I0J-249999D01*
G01*
G37*
%TD.AperFunction*%
%TD*%
%TO.P,R8,1*%
%TO.N,Net-(R8-Pad1)*%
%TA.AperFunction,SMDPad,CuDef*%
G36*
G01*
X123049000Y-76794000D02*
X123049000Y-76644000D01*
G75*
G02*
X123124000Y-76569000I75000J0D01*
G01*
X123374000Y-76569000D01*
G75*
G02*
X123449000Y-76644000I0J-75000D01*
G01*
X123449000Y-76794000D01*
G75*
G02*
X123374000Y-76869000I-75000J0D01*
G01*
X123124000Y-76869000D01*
G75*
G02*
X123049000Y-76794000I0J75000D01*
G01*
G37*
%TD.AperFunction*%
%TO.P,R8,2*%
%TO.N,Net-(R2-Pad2)*%
%TA.AperFunction,SMDPad,CuDef*%
G36*
G01*
X123549000Y-76794000D02*
X123549000Y-76644000D01*
G75*
G02*
X123624000Y-76569000I75000J0D01*
G01*
X123874000Y-76569000D01*
G75*
G02*
X123949000Y-76644000I0J-75000D01*
G01*
X123949000Y-76794000D01*
G75*
G02*
X123874000Y-76869000I-75000J0D01*
G01*
X123624000Y-76869000D01*
G75*
G02*
X123549000Y-76794000I0J75000D01*
G01*
G37*
%TD.AperFunction*%
%TD*%
%TO.P,R17,1*%
%TO.N,Net-(R1-Pad1)*%
%TA.AperFunction,SMDPad,CuDef*%
G36*
G01*
X128324000Y-81444000D02*
X128324000Y-81994000D01*
G75*
G02*
X128124000Y-82194000I-200000J0D01*
G01*
X127724000Y-82194000D01*
G75*
G02*
X127524000Y-81994000I0J200000D01*
G01*
X127524000Y-81444000D01*
G75*
G02*
X127724000Y-81244000I200000J0D01*
G01*
X128124000Y-81244000D01*
G75*
G02*
X128324000Y-81444000I0J-200000D01*
G01*
G37*
%TD.AperFunction*%
%TO.P,R17,2*%
%TO.N,Net-(R17-Pad2)*%
%TA.AperFunction,SMDPad,CuDef*%
G36*
G01*
X126674000Y-81444000D02*
X126674000Y-81994000D01*
G75*
G02*
X126474000Y-82194000I-200000J0D01*
G01*
X126074000Y-82194000D01*
G75*
G02*
X125874000Y-81994000I0J200000D01*
G01*
X125874000Y-81444000D01*
G75*
G02*
X126074000Y-81244000I200000J0D01*
G01*
X126474000Y-81244000D01*
G75*
G02*
X126674000Y-81444000I0J-200000D01*
G01*
G37*
%TD.AperFunction*%
%TD*%
D25*
%TO.P,TP1,1*%
%TO.N,Net-(R8-Pad1)*%
X123274000Y-74469000D03*
%TD*%
%TO.P,TP2,1*%
%TO.N,Net-(R3-Pad1)*%
X128024000Y-74469000D03*
%TD*%
D26*
%TO.P,Q1,1*%
%TO.N,N/C*%
X142274000Y-68169000D03*
%TO.P,Q1,2*%
X142274000Y-66269000D03*
%TO.P,Q1,3*%
X144274000Y-67219000D03*
%TD*%
D27*
%TO.P,Q2,1*%
%TO.N,N/C*%
X149274000Y-73869000D03*
%TO.P,Q2,2*%
X149274000Y-72569000D03*
%TO.P,Q2,3*%
X151274000Y-73219000D03*
%TD*%
D28*
%TO.P,Q3,4*%
%TO.N,Net-(Q3-Pad2)*%
X151424000Y-80719000D03*
D29*
%TO.P,Q3,2*%
X145124000Y-80719000D03*
%TO.P,Q3,3*%
%TO.N,N/C*%
X145124000Y-78419000D03*
%TO.P,Q3,1*%
X145124000Y-83019000D03*
%TD*%
%TA.AperFunction,SMDPad,CuDef*%
D30*
%TO.P,U3,1*%
%TO.N,N/C*%
G36*
X140183755Y-89419961D02*
G01*
X140193134Y-89422806D01*
X140201779Y-89427427D01*
X140209355Y-89433645D01*
X140215573Y-89441221D01*
X140220194Y-89449866D01*
X140223039Y-89459245D01*
X140224000Y-89469000D01*
X140224000Y-89518289D01*
X140223039Y-89528044D01*
X140220194Y-89537423D01*
X140215573Y-89546068D01*
X140209355Y-89553644D01*
X140158644Y-89604355D01*
X140151068Y-89610573D01*
X140142423Y-89615194D01*
X140133044Y-89618039D01*
X140123289Y-89619000D01*
X139474000Y-89619000D01*
X139464245Y-89618039D01*
X139454866Y-89615194D01*
X139446221Y-89610573D01*
X139438645Y-89604355D01*
X139432427Y-89596779D01*
X139427806Y-89588134D01*
X139424961Y-89578755D01*
X139424000Y-89569000D01*
X139424000Y-89469000D01*
X139424961Y-89459245D01*
X139427806Y-89449866D01*
X139432427Y-89441221D01*
X139438645Y-89433645D01*
X139446221Y-89427427D01*
X139454866Y-89422806D01*
X139464245Y-89419961D01*
X139474000Y-89419000D01*
X140174000Y-89419000D01*
X140183755Y-89419961D01*
G37*
%TD.AperFunction*%
%TO.P,U3,2*%
%TA.AperFunction,SMDPad,CuDef*%
G36*
G01*
X139424000Y-89169000D02*
X139424000Y-89069000D01*
G75*
G02*
X139474000Y-89019000I50000J0D01*
G01*
X140174000Y-89019000D01*
G75*
G02*
X140224000Y-89069000I0J-50000D01*
G01*
X140224000Y-89169000D01*
G75*
G02*
X140174000Y-89219000I-50000J0D01*
G01*
X139474000Y-89219000D01*
G75*
G02*
X139424000Y-89169000I0J50000D01*
G01*
G37*
%TD.AperFunction*%
%TO.P,U3,3*%
%TO.N,Net-(U3-Pad21)*%
%TA.AperFunction,SMDPad,CuDef*%
G36*
G01*
X139424000Y-88769000D02*
X139424000Y-88669000D01*
G75*
G02*
X139474000Y-88619000I50000J0D01*
G01*
X140174000Y-88619000D01*
G75*
G02*
X140224000Y-88669000I0J-50000D01*
G01*
X140224000Y-88769000D01*
G75*
G02*
X140174000Y-88819000I-50000J0D01*
G01*
X139474000Y-88819000D01*
G75*
G02*
X139424000Y-88769000I0J50000D01*
G01*
G37*
%TD.AperFunction*%
%TO.P,U3,4*%
%TO.N,N/C*%
%TA.AperFunction,SMDPad,CuDef*%
G36*
G01*
X139424000Y-88369000D02*
X139424000Y-88269000D01*
G75*
G02*
X139474000Y-88219000I50000J0D01*
G01*
X140174000Y-88219000D01*
G75*
G02*
X140224000Y-88269000I0J-50000D01*
G01*
X140224000Y-88369000D01*
G75*
G02*
X140174000Y-88419000I-50000J0D01*
G01*
X139474000Y-88419000D01*
G75*
G02*
X139424000Y-88369000I0J50000D01*
G01*
G37*
%TD.AperFunction*%
%TA.AperFunction,SMDPad,CuDef*%
%TO.P,U3,5*%
G36*
X140133044Y-87819961D02*
G01*
X140142423Y-87822806D01*
X140151068Y-87827427D01*
X140158644Y-87833645D01*
X140209355Y-87884356D01*
X140215573Y-87891932D01*
X140220194Y-87900577D01*
X140223039Y-87909956D01*
X140224000Y-87919711D01*
X140224000Y-87969000D01*
X140223039Y-87978755D01*
X140220194Y-87988134D01*
X140215573Y-87996779D01*
X140209355Y-88004355D01*
X140201779Y-88010573D01*
X140193134Y-88015194D01*
X140183755Y-88018039D01*
X140174000Y-88019000D01*
X139474000Y-88019000D01*
X139464245Y-88018039D01*
X139454866Y-88015194D01*
X139446221Y-88010573D01*
X139438645Y-88004355D01*
X139432427Y-87996779D01*
X139427806Y-87988134D01*
X139424961Y-87978755D01*
X139424000Y-87969000D01*
X139424000Y-87869000D01*
X139424961Y-87859245D01*
X139427806Y-87849866D01*
X139432427Y-87841221D01*
X139438645Y-87833645D01*
X139446221Y-87827427D01*
X139454866Y-87822806D01*
X139464245Y-87819961D01*
X139474000Y-87819000D01*
X140123289Y-87819000D01*
X140133044Y-87819961D01*
G37*
%TD.AperFunction*%
%TA.AperFunction,SMDPad,CuDef*%
%TO.P,U3,6*%
G36*
X140533755Y-86869961D02*
G01*
X140543134Y-86872806D01*
X140551779Y-86877427D01*
X140559355Y-86883645D01*
X140565573Y-86891221D01*
X140570194Y-86899866D01*
X140573039Y-86909245D01*
X140574000Y-86919000D01*
X140574000Y-87619000D01*
X140573039Y-87628755D01*
X140570194Y-87638134D01*
X140565573Y-87646779D01*
X140559355Y-87654355D01*
X140551779Y-87660573D01*
X140543134Y-87665194D01*
X140533755Y-87668039D01*
X140524000Y-87669000D01*
X140474711Y-87669000D01*
X140464956Y-87668039D01*
X140455577Y-87665194D01*
X140446932Y-87660573D01*
X140439356Y-87654355D01*
X140388645Y-87603644D01*
X140382427Y-87596068D01*
X140377806Y-87587423D01*
X140374961Y-87578044D01*
X140374000Y-87568289D01*
X140374000Y-86919000D01*
X140374961Y-86909245D01*
X140377806Y-86899866D01*
X140382427Y-86891221D01*
X140388645Y-86883645D01*
X140396221Y-86877427D01*
X140404866Y-86872806D01*
X140414245Y-86869961D01*
X140424000Y-86869000D01*
X140524000Y-86869000D01*
X140533755Y-86869961D01*
G37*
%TD.AperFunction*%
%TO.P,U3,7*%
%TA.AperFunction,SMDPad,CuDef*%
G36*
G01*
X140774000Y-87619000D02*
X140774000Y-86919000D01*
G75*
G02*
X140824000Y-86869000I50000J0D01*
G01*
X140924000Y-86869000D01*
G75*
G02*
X140974000Y-86919000I0J-50000D01*
G01*
X140974000Y-87619000D01*
G75*
G02*
X140924000Y-87669000I-50000J0D01*
G01*
X140824000Y-87669000D01*
G75*
G02*
X140774000Y-87619000I0J50000D01*
G01*
G37*
%TD.AperFunction*%
%TO.P,U3,8*%
%TA.AperFunction,SMDPad,CuDef*%
G36*
G01*
X141174000Y-87619000D02*
X141174000Y-86919000D01*
G75*
G02*
X141224000Y-86869000I50000J0D01*
G01*
X141324000Y-86869000D01*
G75*
G02*
X141374000Y-86919000I0J-50000D01*
G01*
X141374000Y-87619000D01*
G75*
G02*
X141324000Y-87669000I-50000J0D01*
G01*
X141224000Y-87669000D01*
G75*
G02*
X141174000Y-87619000I0J50000D01*
G01*
G37*
%TD.AperFunction*%
%TO.P,U3,9*%
%TA.AperFunction,SMDPad,CuDef*%
G36*
G01*
X141574000Y-87619000D02*
X141574000Y-86919000D01*
G75*
G02*
X141624000Y-86869000I50000J0D01*
G01*
X141724000Y-86869000D01*
G75*
G02*
X141774000Y-86919000I0J-50000D01*
G01*
X141774000Y-87619000D01*
G75*
G02*
X141724000Y-87669000I-50000J0D01*
G01*
X141624000Y-87669000D01*
G75*
G02*
X141574000Y-87619000I0J50000D01*
G01*
G37*
%TD.AperFunction*%
%TA.AperFunction,SMDPad,CuDef*%
%TO.P,U3,10*%
G36*
X142133755Y-86869961D02*
G01*
X142143134Y-86872806D01*
X142151779Y-86877427D01*
X142159355Y-86883645D01*
X142165573Y-86891221D01*
X142170194Y-86899866D01*
X142173039Y-86909245D01*
X142174000Y-86919000D01*
X142174000Y-87568289D01*
X142173039Y-87578044D01*
X142170194Y-87587423D01*
X142165573Y-87596068D01*
X142159355Y-87603644D01*
X142108644Y-87654355D01*
X142101068Y-87660573D01*
X142092423Y-87665194D01*
X142083044Y-87668039D01*
X142073289Y-87669000D01*
X142024000Y-87669000D01*
X142014245Y-87668039D01*
X142004866Y-87665194D01*
X141996221Y-87660573D01*
X141988645Y-87654355D01*
X141982427Y-87646779D01*
X141977806Y-87638134D01*
X141974961Y-87628755D01*
X141974000Y-87619000D01*
X141974000Y-86919000D01*
X141974961Y-86909245D01*
X141977806Y-86899866D01*
X141982427Y-86891221D01*
X141988645Y-86883645D01*
X141996221Y-86877427D01*
X142004866Y-86872806D01*
X142014245Y-86869961D01*
X142024000Y-86869000D01*
X142124000Y-86869000D01*
X142133755Y-86869961D01*
G37*
%TD.AperFunction*%
%TA.AperFunction,SMDPad,CuDef*%
%TO.P,U3,11*%
G36*
X143083755Y-87819961D02*
G01*
X143093134Y-87822806D01*
X143101779Y-87827427D01*
X143109355Y-87833645D01*
X143115573Y-87841221D01*
X143120194Y-87849866D01*
X143123039Y-87859245D01*
X143124000Y-87869000D01*
X143124000Y-87969000D01*
X143123039Y-87978755D01*
X143120194Y-87988134D01*
X143115573Y-87996779D01*
X143109355Y-88004355D01*
X143101779Y-88010573D01*
X143093134Y-88015194D01*
X143083755Y-88018039D01*
X143074000Y-88019000D01*
X142374000Y-88019000D01*
X142364245Y-88018039D01*
X142354866Y-88015194D01*
X142346221Y-88010573D01*
X142338645Y-88004355D01*
X142332427Y-87996779D01*
X142327806Y-87988134D01*
X142324961Y-87978755D01*
X142324000Y-87969000D01*
X142324000Y-87919711D01*
X142324961Y-87909956D01*
X142327806Y-87900577D01*
X142332427Y-87891932D01*
X142338645Y-87884356D01*
X142389356Y-87833645D01*
X142396932Y-87827427D01*
X142405577Y-87822806D01*
X142414956Y-87819961D01*
X142424711Y-87819000D01*
X143074000Y-87819000D01*
X143083755Y-87819961D01*
G37*
%TD.AperFunction*%
%TO.P,U3,12*%
%TA.AperFunction,SMDPad,CuDef*%
G36*
G01*
X142324000Y-88369000D02*
X142324000Y-88269000D01*
G75*
G02*
X142374000Y-88219000I50000J0D01*
G01*
X143074000Y-88219000D01*
G75*
G02*
X143124000Y-88269000I0J-50000D01*
G01*
X143124000Y-88369000D01*
G75*
G02*
X143074000Y-88419000I-50000J0D01*
G01*
X142374000Y-88419000D01*
G75*
G02*
X142324000Y-88369000I0J50000D01*
G01*
G37*
%TD.AperFunction*%
%TO.P,U3,13*%
%TA.AperFunction,SMDPad,CuDef*%
G36*
G01*
X142324000Y-88769000D02*
X142324000Y-88669000D01*
G75*
G02*
X142374000Y-88619000I50000J0D01*
G01*
X143074000Y-88619000D01*
G75*
G02*
X143124000Y-88669000I0J-50000D01*
G01*
X143124000Y-88769000D01*
G75*
G02*
X143074000Y-88819000I-50000J0D01*
G01*
X142374000Y-88819000D01*
G75*
G02*
X142324000Y-88769000I0J50000D01*
G01*
G37*
%TD.AperFunction*%
%TO.P,U3,14*%
%TA.AperFunction,SMDPad,CuDef*%
G36*
G01*
X142324000Y-89169000D02*
X142324000Y-89069000D01*
G75*
G02*
X142374000Y-89019000I50000J0D01*
G01*
X143074000Y-89019000D01*
G75*
G02*
X143124000Y-89069000I0J-50000D01*
G01*
X143124000Y-89169000D01*
G75*
G02*
X143074000Y-89219000I-50000J0D01*
G01*
X142374000Y-89219000D01*
G75*
G02*
X142324000Y-89169000I0J50000D01*
G01*
G37*
%TD.AperFunction*%
%TA.AperFunction,SMDPad,CuDef*%
%TO.P,U3,15*%
G36*
X143083755Y-89419961D02*
G01*
X143093134Y-89422806D01*
X143101779Y-89427427D01*
X143109355Y-89433645D01*
X143115573Y-89441221D01*
X143120194Y-89449866D01*
X143123039Y-89459245D01*
X143124000Y-89469000D01*
X143124000Y-89569000D01*
X143123039Y-89578755D01*
X143120194Y-89588134D01*
X143115573Y-89596779D01*
X143109355Y-89604355D01*
X143101779Y-89610573D01*
X143093134Y-89615194D01*
X143083755Y-89618039D01*
X143074000Y-89619000D01*
X142424711Y-89619000D01*
X142414956Y-89618039D01*
X142405577Y-89615194D01*
X142396932Y-89610573D01*
X142389356Y-89604355D01*
X142338645Y-89553644D01*
X142332427Y-89546068D01*
X142327806Y-89537423D01*
X142324961Y-89528044D01*
X142324000Y-89518289D01*
X142324000Y-89469000D01*
X142324961Y-89459245D01*
X142327806Y-89449866D01*
X142332427Y-89441221D01*
X142338645Y-89433645D01*
X142346221Y-89427427D01*
X142354866Y-89422806D01*
X142364245Y-89419961D01*
X142374000Y-89419000D01*
X143074000Y-89419000D01*
X143083755Y-89419961D01*
G37*
%TD.AperFunction*%
%TA.AperFunction,SMDPad,CuDef*%
%TO.P,U3,16*%
G36*
X142083044Y-89769961D02*
G01*
X142092423Y-89772806D01*
X142101068Y-89777427D01*
X142108644Y-89783645D01*
X142159355Y-89834356D01*
X142165573Y-89841932D01*
X142170194Y-89850577D01*
X142173039Y-89859956D01*
X142174000Y-89869711D01*
X142174000Y-90519000D01*
X142173039Y-90528755D01*
X142170194Y-90538134D01*
X142165573Y-90546779D01*
X142159355Y-90554355D01*
X142151779Y-90560573D01*
X142143134Y-90565194D01*
X142133755Y-90568039D01*
X142124000Y-90569000D01*
X142024000Y-90569000D01*
X142014245Y-90568039D01*
X142004866Y-90565194D01*
X141996221Y-90560573D01*
X141988645Y-90554355D01*
X141982427Y-90546779D01*
X141977806Y-90538134D01*
X141974961Y-90528755D01*
X141974000Y-90519000D01*
X141974000Y-89819000D01*
X141974961Y-89809245D01*
X141977806Y-89799866D01*
X141982427Y-89791221D01*
X141988645Y-89783645D01*
X141996221Y-89777427D01*
X142004866Y-89772806D01*
X142014245Y-89769961D01*
X142024000Y-89769000D01*
X142073289Y-89769000D01*
X142083044Y-89769961D01*
G37*
%TD.AperFunction*%
%TO.P,U3,17*%
%TA.AperFunction,SMDPad,CuDef*%
G36*
G01*
X141574000Y-90519000D02*
X141574000Y-89819000D01*
G75*
G02*
X141624000Y-89769000I50000J0D01*
G01*
X141724000Y-89769000D01*
G75*
G02*
X141774000Y-89819000I0J-50000D01*
G01*
X141774000Y-90519000D01*
G75*
G02*
X141724000Y-90569000I-50000J0D01*
G01*
X141624000Y-90569000D01*
G75*
G02*
X141574000Y-90519000I0J50000D01*
G01*
G37*
%TD.AperFunction*%
%TO.P,U3,18*%
%TA.AperFunction,SMDPad,CuDef*%
G36*
G01*
X141174000Y-90519000D02*
X141174000Y-89819000D01*
G75*
G02*
X141224000Y-89769000I50000J0D01*
G01*
X141324000Y-89769000D01*
G75*
G02*
X141374000Y-89819000I0J-50000D01*
G01*
X141374000Y-90519000D01*
G75*
G02*
X141324000Y-90569000I-50000J0D01*
G01*
X141224000Y-90569000D01*
G75*
G02*
X141174000Y-90519000I0J50000D01*
G01*
G37*
%TD.AperFunction*%
%TO.P,U3,19*%
%TA.AperFunction,SMDPad,CuDef*%
G36*
G01*
X140774000Y-90519000D02*
X140774000Y-89819000D01*
G75*
G02*
X140824000Y-89769000I50000J0D01*
G01*
X140924000Y-89769000D01*
G75*
G02*
X140974000Y-89819000I0J-50000D01*
G01*
X140974000Y-90519000D01*
G75*
G02*
X140924000Y-90569000I-50000J0D01*
G01*
X140824000Y-90569000D01*
G75*
G02*
X140774000Y-90519000I0J50000D01*
G01*
G37*
%TD.AperFunction*%
%TA.AperFunction,SMDPad,CuDef*%
%TO.P,U3,20*%
G36*
X140533755Y-89769961D02*
G01*
X140543134Y-89772806D01*
X140551779Y-89777427D01*
X140559355Y-89783645D01*
X140565573Y-89791221D01*
X140570194Y-89799866D01*
X140573039Y-89809245D01*
X140574000Y-89819000D01*
X140574000Y-90519000D01*
X140573039Y-90528755D01*
X140570194Y-90538134D01*
X140565573Y-90546779D01*
X140559355Y-90554355D01*
X140551779Y-90560573D01*
X140543134Y-90565194D01*
X140533755Y-90568039D01*
X140524000Y-90569000D01*
X140424000Y-90569000D01*
X140414245Y-90568039D01*
X140404866Y-90565194D01*
X140396221Y-90560573D01*
X140388645Y-90554355D01*
X140382427Y-90546779D01*
X140377806Y-90538134D01*
X140374961Y-90528755D01*
X140374000Y-90519000D01*
X140374000Y-89869711D01*
X140374961Y-89859956D01*
X140377806Y-89850577D01*
X140382427Y-89841932D01*
X140388645Y-89834356D01*
X140439356Y-89783645D01*
X140446932Y-89777427D01*
X140455577Y-89772806D01*
X140464956Y-89769961D01*
X140474711Y-89769000D01*
X140524000Y-89769000D01*
X140533755Y-89769961D01*
G37*
%TD.AperFunction*%
D31*
%TO.P,U3,21*%
%TO.N,Net-(U3-Pad21)*%
X141274000Y-88719000D03*
%TD*%
D32*
%TO.P,U4,B1*%
%TO.N,N/C*%
X136299000Y-72544000D03*
%TO.P,U4,C1*%
X136299000Y-71894000D03*
%TO.P,U4,D1*%
X136299000Y-71244000D03*
%TO.P,U4,A2*%
X136949000Y-73194000D03*
%TO.P,U4,B2*%
X136949000Y-72544000D03*
%TO.P,U4,C2*%
X136949000Y-71894000D03*
%TO.P,U4,D2*%
%TO.N,Net-(U4-PadD2)*%
X136949000Y-71244000D03*
%TO.P,U4,A3*%
%TO.N,N/C*%
X137599000Y-73194000D03*
%TO.P,U4,B3*%
X137599000Y-72544000D03*
%TO.P,U4,C3*%
X137599000Y-71894000D03*
%TO.P,U4,D3*%
%TO.N,Net-(U4-PadD2)*%
X137599000Y-71244000D03*
%TO.P,U4,A4*%
%TO.N,N/C*%
X138249000Y-73194000D03*
%TO.P,U4,B4*%
X138249000Y-72544000D03*
%TO.P,U4,C4*%
X138249000Y-71894000D03*
%TO.P,U4,D4*%
X138249000Y-71244000D03*
%TD*%
%TO.P,U5,1*%
%TO.N,N/C*%
%TA.AperFunction,SMDPad,CuDef*%
G36*
G01*
X131424000Y-89281500D02*
X131424000Y-89156500D01*
G75*
G02*
X131486500Y-89094000I62500J0D01*
G01*
X132211500Y-89094000D01*
G75*
G02*
X132274000Y-89156500I0J-62500D01*
G01*
X132274000Y-89281500D01*
G75*
G02*
X132211500Y-89344000I-62500J0D01*
G01*
X131486500Y-89344000D01*
G75*
G02*
X131424000Y-89281500I0J62500D01*
G01*
G37*
%TD.AperFunction*%
%TO.P,U5,2*%
%TA.AperFunction,SMDPad,CuDef*%
G36*
G01*
X131424000Y-88781500D02*
X131424000Y-88656500D01*
G75*
G02*
X131486500Y-88594000I62500J0D01*
G01*
X132211500Y-88594000D01*
G75*
G02*
X132274000Y-88656500I0J-62500D01*
G01*
X132274000Y-88781500D01*
G75*
G02*
X132211500Y-88844000I-62500J0D01*
G01*
X131486500Y-88844000D01*
G75*
G02*
X131424000Y-88781500I0J62500D01*
G01*
G37*
%TD.AperFunction*%
%TO.P,U5,3*%
%TA.AperFunction,SMDPad,CuDef*%
G36*
G01*
X131424000Y-88281500D02*
X131424000Y-88156500D01*
G75*
G02*
X131486500Y-88094000I62500J0D01*
G01*
X132211500Y-88094000D01*
G75*
G02*
X132274000Y-88156500I0J-62500D01*
G01*
X132274000Y-88281500D01*
G75*
G02*
X132211500Y-88344000I-62500J0D01*
G01*
X131486500Y-88344000D01*
G75*
G02*
X131424000Y-88281500I0J62500D01*
G01*
G37*
%TD.AperFunction*%
%TO.P,U5,4*%
%TA.AperFunction,SMDPad,CuDef*%
G36*
G01*
X131424000Y-87781500D02*
X131424000Y-87656500D01*
G75*
G02*
X131486500Y-87594000I62500J0D01*
G01*
X132211500Y-87594000D01*
G75*
G02*
X132274000Y-87656500I0J-62500D01*
G01*
X132274000Y-87781500D01*
G75*
G02*
X132211500Y-87844000I-62500J0D01*
G01*
X131486500Y-87844000D01*
G75*
G02*
X131424000Y-87781500I0J62500D01*
G01*
G37*
%TD.AperFunction*%
%TO.P,U5,5*%
%TA.AperFunction,SMDPad,CuDef*%
G36*
G01*
X131424000Y-87281500D02*
X131424000Y-87156500D01*
G75*
G02*
X131486500Y-87094000I62500J0D01*
G01*
X132211500Y-87094000D01*
G75*
G02*
X132274000Y-87156500I0J-62500D01*
G01*
X132274000Y-87281500D01*
G75*
G02*
X132211500Y-87344000I-62500J0D01*
G01*
X131486500Y-87344000D01*
G75*
G02*
X131424000Y-87281500I0J62500D01*
G01*
G37*
%TD.AperFunction*%
%TO.P,U5,6*%
%TA.AperFunction,SMDPad,CuDef*%
G36*
G01*
X132649000Y-86656500D02*
X132649000Y-85931500D01*
G75*
G02*
X132711500Y-85869000I62500J0D01*
G01*
X132836500Y-85869000D01*
G75*
G02*
X132899000Y-85931500I0J-62500D01*
G01*
X132899000Y-86656500D01*
G75*
G02*
X132836500Y-86719000I-62500J0D01*
G01*
X132711500Y-86719000D01*
G75*
G02*
X132649000Y-86656500I0J62500D01*
G01*
G37*
%TD.AperFunction*%
%TO.P,U5,7*%
%TA.AperFunction,SMDPad,CuDef*%
G36*
G01*
X133149000Y-86656500D02*
X133149000Y-85931500D01*
G75*
G02*
X133211500Y-85869000I62500J0D01*
G01*
X133336500Y-85869000D01*
G75*
G02*
X133399000Y-85931500I0J-62500D01*
G01*
X133399000Y-86656500D01*
G75*
G02*
X133336500Y-86719000I-62500J0D01*
G01*
X133211500Y-86719000D01*
G75*
G02*
X133149000Y-86656500I0J62500D01*
G01*
G37*
%TD.AperFunction*%
%TO.P,U5,8*%
%TO.N,Net-(U5-Pad21)*%
%TA.AperFunction,SMDPad,CuDef*%
G36*
G01*
X133649000Y-86656500D02*
X133649000Y-85931500D01*
G75*
G02*
X133711500Y-85869000I62500J0D01*
G01*
X133836500Y-85869000D01*
G75*
G02*
X133899000Y-85931500I0J-62500D01*
G01*
X133899000Y-86656500D01*
G75*
G02*
X133836500Y-86719000I-62500J0D01*
G01*
X133711500Y-86719000D01*
G75*
G02*
X133649000Y-86656500I0J62500D01*
G01*
G37*
%TD.AperFunction*%
%TO.P,U5,9*%
%TO.N,N/C*%
%TA.AperFunction,SMDPad,CuDef*%
G36*
G01*
X134149000Y-86656500D02*
X134149000Y-85931500D01*
G75*
G02*
X134211500Y-85869000I62500J0D01*
G01*
X134336500Y-85869000D01*
G75*
G02*
X134399000Y-85931500I0J-62500D01*
G01*
X134399000Y-86656500D01*
G75*
G02*
X134336500Y-86719000I-62500J0D01*
G01*
X134211500Y-86719000D01*
G75*
G02*
X134149000Y-86656500I0J62500D01*
G01*
G37*
%TD.AperFunction*%
%TO.P,U5,10*%
%TA.AperFunction,SMDPad,CuDef*%
G36*
G01*
X134649000Y-86656500D02*
X134649000Y-85931500D01*
G75*
G02*
X134711500Y-85869000I62500J0D01*
G01*
X134836500Y-85869000D01*
G75*
G02*
X134899000Y-85931500I0J-62500D01*
G01*
X134899000Y-86656500D01*
G75*
G02*
X134836500Y-86719000I-62500J0D01*
G01*
X134711500Y-86719000D01*
G75*
G02*
X134649000Y-86656500I0J62500D01*
G01*
G37*
%TD.AperFunction*%
%TO.P,U5,11*%
%TA.AperFunction,SMDPad,CuDef*%
G36*
G01*
X135274000Y-87281500D02*
X135274000Y-87156500D01*
G75*
G02*
X135336500Y-87094000I62500J0D01*
G01*
X136061500Y-87094000D01*
G75*
G02*
X136124000Y-87156500I0J-62500D01*
G01*
X136124000Y-87281500D01*
G75*
G02*
X136061500Y-87344000I-62500J0D01*
G01*
X135336500Y-87344000D01*
G75*
G02*
X135274000Y-87281500I0J62500D01*
G01*
G37*
%TD.AperFunction*%
%TO.P,U5,12*%
%TA.AperFunction,SMDPad,CuDef*%
G36*
G01*
X135274000Y-87781500D02*
X135274000Y-87656500D01*
G75*
G02*
X135336500Y-87594000I62500J0D01*
G01*
X136061500Y-87594000D01*
G75*
G02*
X136124000Y-87656500I0J-62500D01*
G01*
X136124000Y-87781500D01*
G75*
G02*
X136061500Y-87844000I-62500J0D01*
G01*
X135336500Y-87844000D01*
G75*
G02*
X135274000Y-87781500I0J62500D01*
G01*
G37*
%TD.AperFunction*%
%TO.P,U5,13*%
%TA.AperFunction,SMDPad,CuDef*%
G36*
G01*
X135274000Y-88281500D02*
X135274000Y-88156500D01*
G75*
G02*
X135336500Y-88094000I62500J0D01*
G01*
X136061500Y-88094000D01*
G75*
G02*
X136124000Y-88156500I0J-62500D01*
G01*
X136124000Y-88281500D01*
G75*
G02*
X136061500Y-88344000I-62500J0D01*
G01*
X135336500Y-88344000D01*
G75*
G02*
X135274000Y-88281500I0J62500D01*
G01*
G37*
%TD.AperFunction*%
%TO.P,U5,14*%
%TA.AperFunction,SMDPad,CuDef*%
G36*
G01*
X135274000Y-88781500D02*
X135274000Y-88656500D01*
G75*
G02*
X135336500Y-88594000I62500J0D01*
G01*
X136061500Y-88594000D01*
G75*
G02*
X136124000Y-88656500I0J-62500D01*
G01*
X136124000Y-88781500D01*
G75*
G02*
X136061500Y-88844000I-62500J0D01*
G01*
X135336500Y-88844000D01*
G75*
G02*
X135274000Y-88781500I0J62500D01*
G01*
G37*
%TD.AperFunction*%
%TO.P,U5,15*%
%TA.AperFunction,SMDPad,CuDef*%
G36*
G01*
X135274000Y-89281500D02*
X135274000Y-89156500D01*
G75*
G02*
X135336500Y-89094000I62500J0D01*
G01*
X136061500Y-89094000D01*
G75*
G02*
X136124000Y-89156500I0J-62500D01*
G01*
X136124000Y-89281500D01*
G75*
G02*
X136061500Y-89344000I-62500J0D01*
G01*
X135336500Y-89344000D01*
G75*
G02*
X135274000Y-89281500I0J62500D01*
G01*
G37*
%TD.AperFunction*%
%TO.P,U5,16*%
%TA.AperFunction,SMDPad,CuDef*%
G36*
G01*
X134649000Y-90506500D02*
X134649000Y-89781500D01*
G75*
G02*
X134711500Y-89719000I62500J0D01*
G01*
X134836500Y-89719000D01*
G75*
G02*
X134899000Y-89781500I0J-62500D01*
G01*
X134899000Y-90506500D01*
G75*
G02*
X134836500Y-90569000I-62500J0D01*
G01*
X134711500Y-90569000D01*
G75*
G02*
X134649000Y-90506500I0J62500D01*
G01*
G37*
%TD.AperFunction*%
%TO.P,U5,17*%
%TA.AperFunction,SMDPad,CuDef*%
G36*
G01*
X134149000Y-90506500D02*
X134149000Y-89781500D01*
G75*
G02*
X134211500Y-89719000I62500J0D01*
G01*
X134336500Y-89719000D01*
G75*
G02*
X134399000Y-89781500I0J-62500D01*
G01*
X134399000Y-90506500D01*
G75*
G02*
X134336500Y-90569000I-62500J0D01*
G01*
X134211500Y-90569000D01*
G75*
G02*
X134149000Y-90506500I0J62500D01*
G01*
G37*
%TD.AperFunction*%
%TO.P,U5,18*%
%TA.AperFunction,SMDPad,CuDef*%
G36*
G01*
X133649000Y-90506500D02*
X133649000Y-89781500D01*
G75*
G02*
X133711500Y-89719000I62500J0D01*
G01*
X133836500Y-89719000D01*
G75*
G02*
X133899000Y-89781500I0J-62500D01*
G01*
X133899000Y-90506500D01*
G75*
G02*
X133836500Y-90569000I-62500J0D01*
G01*
X133711500Y-90569000D01*
G75*
G02*
X133649000Y-90506500I0J62500D01*
G01*
G37*
%TD.AperFunction*%
%TO.P,U5,19*%
%TA.AperFunction,SMDPad,CuDef*%
G36*
G01*
X133149000Y-90506500D02*
X133149000Y-89781500D01*
G75*
G02*
X133211500Y-89719000I62500J0D01*
G01*
X133336500Y-89719000D01*
G75*
G02*
X133399000Y-89781500I0J-62500D01*
G01*
X133399000Y-90506500D01*
G75*
G02*
X133336500Y-90569000I-62500J0D01*
G01*
X133211500Y-90569000D01*
G75*
G02*
X133149000Y-90506500I0J62500D01*
G01*
G37*
%TD.AperFunction*%
%TO.P,U5,20*%
%TA.AperFunction,SMDPad,CuDef*%
G36*
G01*
X132649000Y-90506500D02*
X132649000Y-89781500D01*
G75*
G02*
X132711500Y-89719000I62500J0D01*
G01*
X132836500Y-89719000D01*
G75*
G02*
X132899000Y-89781500I0J-62500D01*
G01*
X132899000Y-90506500D01*
G75*
G02*
X132836500Y-90569000I-62500J0D01*
G01*
X132711500Y-90569000D01*
G75*
G02*
X132649000Y-90506500I0J62500D01*
G01*
G37*
%TD.AperFunction*%
D33*
%TO.P,U5,21*%
%TO.N,Net-(U5-Pad21)*%
X133774000Y-88219000D03*
%TD*%
%TO.P,U6,1*%
%TO.N,N/C*%
%TA.AperFunction,SMDPad,CuDef*%
G36*
G01*
X121674000Y-90244000D02*
X121674000Y-90044000D01*
G75*
G02*
X121774000Y-89944000I100000J0D01*
G01*
X123049000Y-89944000D01*
G75*
G02*
X123149000Y-90044000I0J-100000D01*
G01*
X123149000Y-90244000D01*
G75*
G02*
X123049000Y-90344000I-100000J0D01*
G01*
X121774000Y-90344000D01*
G75*
G02*
X121674000Y-90244000I0J100000D01*
G01*
G37*
%TD.AperFunction*%
%TO.P,U6,2*%
%TA.AperFunction,SMDPad,CuDef*%
G36*
G01*
X121674000Y-89594000D02*
X121674000Y-89394000D01*
G75*
G02*
X121774000Y-89294000I100000J0D01*
G01*
X123049000Y-89294000D01*
G75*
G02*
X123149000Y-89394000I0J-100000D01*
G01*
X123149000Y-89594000D01*
G75*
G02*
X123049000Y-89694000I-100000J0D01*
G01*
X121774000Y-89694000D01*
G75*
G02*
X121674000Y-89594000I0J100000D01*
G01*
G37*
%TD.AperFunction*%
%TO.P,U6,3*%
%TA.AperFunction,SMDPad,CuDef*%
G36*
G01*
X121674000Y-88944000D02*
X121674000Y-88744000D01*
G75*
G02*
X121774000Y-88644000I100000J0D01*
G01*
X123049000Y-88644000D01*
G75*
G02*
X123149000Y-88744000I0J-100000D01*
G01*
X123149000Y-88944000D01*
G75*
G02*
X123049000Y-89044000I-100000J0D01*
G01*
X121774000Y-89044000D01*
G75*
G02*
X121674000Y-88944000I0J100000D01*
G01*
G37*
%TD.AperFunction*%
%TO.P,U6,4*%
%TA.AperFunction,SMDPad,CuDef*%
G36*
G01*
X121674000Y-88294000D02*
X121674000Y-88094000D01*
G75*
G02*
X121774000Y-87994000I100000J0D01*
G01*
X123049000Y-87994000D01*
G75*
G02*
X123149000Y-88094000I0J-100000D01*
G01*
X123149000Y-88294000D01*
G75*
G02*
X123049000Y-88394000I-100000J0D01*
G01*
X121774000Y-88394000D01*
G75*
G02*
X121674000Y-88294000I0J100000D01*
G01*
G37*
%TD.AperFunction*%
%TO.P,U6,5*%
%TA.AperFunction,SMDPad,CuDef*%
G36*
G01*
X121674000Y-87644000D02*
X121674000Y-87444000D01*
G75*
G02*
X121774000Y-87344000I100000J0D01*
G01*
X123049000Y-87344000D01*
G75*
G02*
X123149000Y-87444000I0J-100000D01*
G01*
X123149000Y-87644000D01*
G75*
G02*
X123049000Y-87744000I-100000J0D01*
G01*
X121774000Y-87744000D01*
G75*
G02*
X121674000Y-87644000I0J100000D01*
G01*
G37*
%TD.AperFunction*%
%TO.P,U6,6*%
%TA.AperFunction,SMDPad,CuDef*%
G36*
G01*
X121674000Y-86994000D02*
X121674000Y-86794000D01*
G75*
G02*
X121774000Y-86694000I100000J0D01*
G01*
X123049000Y-86694000D01*
G75*
G02*
X123149000Y-86794000I0J-100000D01*
G01*
X123149000Y-86994000D01*
G75*
G02*
X123049000Y-87094000I-100000J0D01*
G01*
X121774000Y-87094000D01*
G75*
G02*
X121674000Y-86994000I0J100000D01*
G01*
G37*
%TD.AperFunction*%
%TO.P,U6,7*%
%TA.AperFunction,SMDPad,CuDef*%
G36*
G01*
X121674000Y-86344000D02*
X121674000Y-86144000D01*
G75*
G02*
X121774000Y-86044000I100000J0D01*
G01*
X123049000Y-86044000D01*
G75*
G02*
X123149000Y-86144000I0J-100000D01*
G01*
X123149000Y-86344000D01*
G75*
G02*
X123049000Y-86444000I-100000J0D01*
G01*
X121774000Y-86444000D01*
G75*
G02*
X121674000Y-86344000I0J100000D01*
G01*
G37*
%TD.AperFunction*%
%TO.P,U6,8*%
%TA.AperFunction,SMDPad,CuDef*%
G36*
G01*
X121674000Y-85694000D02*
X121674000Y-85494000D01*
G75*
G02*
X121774000Y-85394000I100000J0D01*
G01*
X123049000Y-85394000D01*
G75*
G02*
X123149000Y-85494000I0J-100000D01*
G01*
X123149000Y-85694000D01*
G75*
G02*
X123049000Y-85794000I-100000J0D01*
G01*
X121774000Y-85794000D01*
G75*
G02*
X121674000Y-85694000I0J100000D01*
G01*
G37*
%TD.AperFunction*%
%TO.P,U6,9*%
%TA.AperFunction,SMDPad,CuDef*%
G36*
G01*
X121674000Y-85044000D02*
X121674000Y-84844000D01*
G75*
G02*
X121774000Y-84744000I100000J0D01*
G01*
X123049000Y-84744000D01*
G75*
G02*
X123149000Y-84844000I0J-100000D01*
G01*
X123149000Y-85044000D01*
G75*
G02*
X123049000Y-85144000I-100000J0D01*
G01*
X121774000Y-85144000D01*
G75*
G02*
X121674000Y-85044000I0J100000D01*
G01*
G37*
%TD.AperFunction*%
%TO.P,U6,10*%
%TA.AperFunction,SMDPad,CuDef*%
G36*
G01*
X121674000Y-84394000D02*
X121674000Y-84194000D01*
G75*
G02*
X121774000Y-84094000I100000J0D01*
G01*
X123049000Y-84094000D01*
G75*
G02*
X123149000Y-84194000I0J-100000D01*
G01*
X123149000Y-84394000D01*
G75*
G02*
X123049000Y-84494000I-100000J0D01*
G01*
X121774000Y-84494000D01*
G75*
G02*
X121674000Y-84394000I0J100000D01*
G01*
G37*
%TD.AperFunction*%
%TO.P,U6,11*%
%TA.AperFunction,SMDPad,CuDef*%
G36*
G01*
X127399000Y-84394000D02*
X127399000Y-84194000D01*
G75*
G02*
X127499000Y-84094000I100000J0D01*
G01*
X128774000Y-84094000D01*
G75*
G02*
X128874000Y-84194000I0J-100000D01*
G01*
X128874000Y-84394000D01*
G75*
G02*
X128774000Y-84494000I-100000J0D01*
G01*
X127499000Y-84494000D01*
G75*
G02*
X127399000Y-84394000I0J100000D01*
G01*
G37*
%TD.AperFunction*%
%TO.P,U6,12*%
%TA.AperFunction,SMDPad,CuDef*%
G36*
G01*
X127399000Y-85044000D02*
X127399000Y-84844000D01*
G75*
G02*
X127499000Y-84744000I100000J0D01*
G01*
X128774000Y-84744000D01*
G75*
G02*
X128874000Y-84844000I0J-100000D01*
G01*
X128874000Y-85044000D01*
G75*
G02*
X128774000Y-85144000I-100000J0D01*
G01*
X127499000Y-85144000D01*
G75*
G02*
X127399000Y-85044000I0J100000D01*
G01*
G37*
%TD.AperFunction*%
%TO.P,U6,13*%
%TA.AperFunction,SMDPad,CuDef*%
G36*
G01*
X127399000Y-85694000D02*
X127399000Y-85494000D01*
G75*
G02*
X127499000Y-85394000I100000J0D01*
G01*
X128774000Y-85394000D01*
G75*
G02*
X128874000Y-85494000I0J-100000D01*
G01*
X128874000Y-85694000D01*
G75*
G02*
X128774000Y-85794000I-100000J0D01*
G01*
X127499000Y-85794000D01*
G75*
G02*
X127399000Y-85694000I0J100000D01*
G01*
G37*
%TD.AperFunction*%
%TO.P,U6,14*%
%TA.AperFunction,SMDPad,CuDef*%
G36*
G01*
X127399000Y-86344000D02*
X127399000Y-86144000D01*
G75*
G02*
X127499000Y-86044000I100000J0D01*
G01*
X128774000Y-86044000D01*
G75*
G02*
X128874000Y-86144000I0J-100000D01*
G01*
X128874000Y-86344000D01*
G75*
G02*
X128774000Y-86444000I-100000J0D01*
G01*
X127499000Y-86444000D01*
G75*
G02*
X127399000Y-86344000I0J100000D01*
G01*
G37*
%TD.AperFunction*%
%TO.P,U6,15*%
%TA.AperFunction,SMDPad,CuDef*%
G36*
G01*
X127399000Y-86994000D02*
X127399000Y-86794000D01*
G75*
G02*
X127499000Y-86694000I100000J0D01*
G01*
X128774000Y-86694000D01*
G75*
G02*
X128874000Y-86794000I0J-100000D01*
G01*
X128874000Y-86994000D01*
G75*
G02*
X128774000Y-87094000I-100000J0D01*
G01*
X127499000Y-87094000D01*
G75*
G02*
X127399000Y-86994000I0J100000D01*
G01*
G37*
%TD.AperFunction*%
%TO.P,U6,16*%
%TA.AperFunction,SMDPad,CuDef*%
G36*
G01*
X127399000Y-87644000D02*
X127399000Y-87444000D01*
G75*
G02*
X127499000Y-87344000I100000J0D01*
G01*
X128774000Y-87344000D01*
G75*
G02*
X128874000Y-87444000I0J-100000D01*
G01*
X128874000Y-87644000D01*
G75*
G02*
X128774000Y-87744000I-100000J0D01*
G01*
X127499000Y-87744000D01*
G75*
G02*
X127399000Y-87644000I0J100000D01*
G01*
G37*
%TD.AperFunction*%
%TO.P,U6,17*%
%TA.AperFunction,SMDPad,CuDef*%
G36*
G01*
X127399000Y-88294000D02*
X127399000Y-88094000D01*
G75*
G02*
X127499000Y-87994000I100000J0D01*
G01*
X128774000Y-87994000D01*
G75*
G02*
X128874000Y-88094000I0J-100000D01*
G01*
X128874000Y-88294000D01*
G75*
G02*
X128774000Y-88394000I-100000J0D01*
G01*
X127499000Y-88394000D01*
G75*
G02*
X127399000Y-88294000I0J100000D01*
G01*
G37*
%TD.AperFunction*%
%TO.P,U6,18*%
%TA.AperFunction,SMDPad,CuDef*%
G36*
G01*
X127399000Y-88944000D02*
X127399000Y-88744000D01*
G75*
G02*
X127499000Y-88644000I100000J0D01*
G01*
X128774000Y-88644000D01*
G75*
G02*
X128874000Y-88744000I0J-100000D01*
G01*
X128874000Y-88944000D01*
G75*
G02*
X128774000Y-89044000I-100000J0D01*
G01*
X127499000Y-89044000D01*
G75*
G02*
X127399000Y-88944000I0J100000D01*
G01*
G37*
%TD.AperFunction*%
%TO.P,U6,19*%
%TA.AperFunction,SMDPad,CuDef*%
G36*
G01*
X127399000Y-89594000D02*
X127399000Y-89394000D01*
G75*
G02*
X127499000Y-89294000I100000J0D01*
G01*
X128774000Y-89294000D01*
G75*
G02*
X128874000Y-89394000I0J-100000D01*
G01*
X128874000Y-89594000D01*
G75*
G02*
X128774000Y-89694000I-100000J0D01*
G01*
X127499000Y-89694000D01*
G75*
G02*
X127399000Y-89594000I0J100000D01*
G01*
G37*
%TD.AperFunction*%
%TO.P,U6,20*%
%TA.AperFunction,SMDPad,CuDef*%
G36*
G01*
X127399000Y-90244000D02*
X127399000Y-90044000D01*
G75*
G02*
X127499000Y-89944000I100000J0D01*
G01*
X128774000Y-89944000D01*
G75*
G02*
X128874000Y-90044000I0J-100000D01*
G01*
X128874000Y-90244000D01*
G75*
G02*
X128774000Y-90344000I-100000J0D01*
G01*
X127499000Y-90344000D01*
G75*
G02*
X127399000Y-90244000I0J100000D01*
G01*
G37*
%TD.AperFunction*%
%TD*%
D34*
%TO.P,U7,1*%
%TO.N,N/C*%
X149274000Y-68169000D03*
%TO.P,U7,2*%
X149274000Y-67219000D03*
%TO.P,U7,3*%
X149274000Y-66269000D03*
%TO.P,U7,4*%
X151474000Y-66269000D03*
%TO.P,U7,5*%
X151474000Y-68169000D03*
%TD*%
%TO.P,U8,1*%
%TO.N,Net-(U8-Pad1)*%
%TA.AperFunction,SMDPad,CuDef*%
G36*
G01*
X142424000Y-74031500D02*
X142424000Y-73906500D01*
G75*
G02*
X142486500Y-73844000I62500J0D01*
G01*
X143136500Y-73844000D01*
G75*
G02*
X143199000Y-73906500I0J-62500D01*
G01*
X143199000Y-74031500D01*
G75*
G02*
X143136500Y-74094000I-62500J0D01*
G01*
X142486500Y-74094000D01*
G75*
G02*
X142424000Y-74031500I0J62500D01*
G01*
G37*
%TD.AperFunction*%
%TO.P,U8,2*%
%TO.N,N/C*%
%TA.AperFunction,SMDPad,CuDef*%
G36*
G01*
X142424000Y-73531500D02*
X142424000Y-73406500D01*
G75*
G02*
X142486500Y-73344000I62500J0D01*
G01*
X143136500Y-73344000D01*
G75*
G02*
X143199000Y-73406500I0J-62500D01*
G01*
X143199000Y-73531500D01*
G75*
G02*
X143136500Y-73594000I-62500J0D01*
G01*
X142486500Y-73594000D01*
G75*
G02*
X142424000Y-73531500I0J62500D01*
G01*
G37*
%TD.AperFunction*%
%TO.P,U8,3*%
%TA.AperFunction,SMDPad,CuDef*%
G36*
G01*
X142424000Y-73031500D02*
X142424000Y-72906500D01*
G75*
G02*
X142486500Y-72844000I62500J0D01*
G01*
X143136500Y-72844000D01*
G75*
G02*
X143199000Y-72906500I0J-62500D01*
G01*
X143199000Y-73031500D01*
G75*
G02*
X143136500Y-73094000I-62500J0D01*
G01*
X142486500Y-73094000D01*
G75*
G02*
X142424000Y-73031500I0J62500D01*
G01*
G37*
%TD.AperFunction*%
%TO.P,U8,4*%
%TO.N,Net-(U8-Pad4)*%
%TA.AperFunction,SMDPad,CuDef*%
G36*
G01*
X142424000Y-72531500D02*
X142424000Y-72406500D01*
G75*
G02*
X142486500Y-72344000I62500J0D01*
G01*
X143136500Y-72344000D01*
G75*
G02*
X143199000Y-72406500I0J-62500D01*
G01*
X143199000Y-72531500D01*
G75*
G02*
X143136500Y-72594000I-62500J0D01*
G01*
X142486500Y-72594000D01*
G75*
G02*
X142424000Y-72531500I0J62500D01*
G01*
G37*
%TD.AperFunction*%
%TO.P,U8,5*%
%TA.AperFunction,SMDPad,CuDef*%
G36*
G01*
X145349000Y-72531500D02*
X145349000Y-72406500D01*
G75*
G02*
X145411500Y-72344000I62500J0D01*
G01*
X146061500Y-72344000D01*
G75*
G02*
X146124000Y-72406500I0J-62500D01*
G01*
X146124000Y-72531500D01*
G75*
G02*
X146061500Y-72594000I-62500J0D01*
G01*
X145411500Y-72594000D01*
G75*
G02*
X145349000Y-72531500I0J62500D01*
G01*
G37*
%TD.AperFunction*%
%TO.P,U8,6*%
%TO.N,Net-(U8-Pad6)*%
%TA.AperFunction,SMDPad,CuDef*%
G36*
G01*
X145349000Y-73031500D02*
X145349000Y-72906500D01*
G75*
G02*
X145411500Y-72844000I62500J0D01*
G01*
X146061500Y-72844000D01*
G75*
G02*
X146124000Y-72906500I0J-62500D01*
G01*
X146124000Y-73031500D01*
G75*
G02*
X146061500Y-73094000I-62500J0D01*
G01*
X145411500Y-73094000D01*
G75*
G02*
X145349000Y-73031500I0J62500D01*
G01*
G37*
%TD.AperFunction*%
%TO.P,U8,7*%
%TA.AperFunction,SMDPad,CuDef*%
G36*
G01*
X145349000Y-73531500D02*
X145349000Y-73406500D01*
G75*
G02*
X145411500Y-73344000I62500J0D01*
G01*
X146061500Y-73344000D01*
G75*
G02*
X146124000Y-73406500I0J-62500D01*
G01*
X146124000Y-73531500D01*
G75*
G02*
X146061500Y-73594000I-62500J0D01*
G01*
X145411500Y-73594000D01*
G75*
G02*
X145349000Y-73531500I0J62500D01*
G01*
G37*
%TD.AperFunction*%
%TO.P,U8,8*%
%TO.N,Net-(U8-Pad1)*%
%TA.AperFunction,SMDPad,CuDef*%
G36*
G01*
X145349000Y-74031500D02*
X145349000Y-73906500D01*
G75*
G02*
X145411500Y-73844000I62500J0D01*
G01*
X146061500Y-73844000D01*
G75*
G02*
X146124000Y-73906500I0J-62500D01*
G01*
X146124000Y-74031500D01*
G75*
G02*
X146061500Y-74094000I-62500J0D01*
G01*
X145411500Y-74094000D01*
G75*
G02*
X145349000Y-74031500I0J62500D01*
G01*
G37*
%TD.AperFunction*%
D35*
%TO.P,U8,9*%
%TO.N,Net-(U8-Pad4)*%
X144274000Y-73219000D03*
%TD*%
%TO.P,U9,1*%
%TO.N,N/C*%
%TA.AperFunction,SMDPad,CuDef*%
G36*
G01*
X146399000Y-89794000D02*
X146399000Y-89594000D01*
G75*
G02*
X146499000Y-89494000I100000J0D01*
G01*
X147749000Y-89494000D01*
G75*
G02*
X147849000Y-89594000I0J-100000D01*
G01*
X147849000Y-89794000D01*
G75*
G02*
X147749000Y-89894000I-100000J0D01*
G01*
X146499000Y-89894000D01*
G75*
G02*
X146399000Y-89794000I0J100000D01*
G01*
G37*
%TD.AperFunction*%
%TO.P,U9,2*%
%TA.AperFunction,SMDPad,CuDef*%
G36*
G01*
X146399000Y-89144000D02*
X146399000Y-88944000D01*
G75*
G02*
X146499000Y-88844000I100000J0D01*
G01*
X147749000Y-88844000D01*
G75*
G02*
X147849000Y-88944000I0J-100000D01*
G01*
X147849000Y-89144000D01*
G75*
G02*
X147749000Y-89244000I-100000J0D01*
G01*
X146499000Y-89244000D01*
G75*
G02*
X146399000Y-89144000I0J100000D01*
G01*
G37*
%TD.AperFunction*%
%TO.P,U9,3*%
%TA.AperFunction,SMDPad,CuDef*%
G36*
G01*
X146399000Y-88494000D02*
X146399000Y-88294000D01*
G75*
G02*
X146499000Y-88194000I100000J0D01*
G01*
X147749000Y-88194000D01*
G75*
G02*
X147849000Y-88294000I0J-100000D01*
G01*
X147849000Y-88494000D01*
G75*
G02*
X147749000Y-88594000I-100000J0D01*
G01*
X146499000Y-88594000D01*
G75*
G02*
X146399000Y-88494000I0J100000D01*
G01*
G37*
%TD.AperFunction*%
%TO.P,U9,4*%
%TA.AperFunction,SMDPad,CuDef*%
G36*
G01*
X146399000Y-87844000D02*
X146399000Y-87644000D01*
G75*
G02*
X146499000Y-87544000I100000J0D01*
G01*
X147749000Y-87544000D01*
G75*
G02*
X147849000Y-87644000I0J-100000D01*
G01*
X147849000Y-87844000D01*
G75*
G02*
X147749000Y-87944000I-100000J0D01*
G01*
X146499000Y-87944000D01*
G75*
G02*
X146399000Y-87844000I0J100000D01*
G01*
G37*
%TD.AperFunction*%
%TO.P,U9,5*%
%TA.AperFunction,SMDPad,CuDef*%
G36*
G01*
X150699000Y-87844000D02*
X150699000Y-87644000D01*
G75*
G02*
X150799000Y-87544000I100000J0D01*
G01*
X152049000Y-87544000D01*
G75*
G02*
X152149000Y-87644000I0J-100000D01*
G01*
X152149000Y-87844000D01*
G75*
G02*
X152049000Y-87944000I-100000J0D01*
G01*
X150799000Y-87944000D01*
G75*
G02*
X150699000Y-87844000I0J100000D01*
G01*
G37*
%TD.AperFunction*%
%TO.P,U9,6*%
%TA.AperFunction,SMDPad,CuDef*%
G36*
G01*
X150699000Y-88494000D02*
X150699000Y-88294000D01*
G75*
G02*
X150799000Y-88194000I100000J0D01*
G01*
X152049000Y-88194000D01*
G75*
G02*
X152149000Y-88294000I0J-100000D01*
G01*
X152149000Y-88494000D01*
G75*
G02*
X152049000Y-88594000I-100000J0D01*
G01*
X150799000Y-88594000D01*
G75*
G02*
X150699000Y-88494000I0J100000D01*
G01*
G37*
%TD.AperFunction*%
%TO.P,U9,7*%
%TA.AperFunction,SMDPad,CuDef*%
G36*
G01*
X150699000Y-89144000D02*
X150699000Y-88944000D01*
G75*
G02*
X150799000Y-88844000I100000J0D01*
G01*
X152049000Y-88844000D01*
G75*
G02*
X152149000Y-88944000I0J-100000D01*
G01*
X152149000Y-89144000D01*
G75*
G02*
X152049000Y-89244000I-100000J0D01*
G01*
X150799000Y-89244000D01*
G75*
G02*
X150699000Y-89144000I0J100000D01*
G01*
G37*
%TD.AperFunction*%
%TO.P,U9,8*%
%TA.AperFunction,SMDPad,CuDef*%
G36*
G01*
X150699000Y-89794000D02*
X150699000Y-89594000D01*
G75*
G02*
X150799000Y-89494000I100000J0D01*
G01*
X152049000Y-89494000D01*
G75*
G02*
X152149000Y-89594000I0J-100000D01*
G01*
X152149000Y-89794000D01*
G75*
G02*
X152049000Y-89894000I-100000J0D01*
G01*
X150799000Y-89894000D01*
G75*
G02*
X150699000Y-89794000I0J100000D01*
G01*
G37*
%TD.AperFunction*%
D36*
%TO.P,U9,9*%
X149274000Y-88719000D03*
%TD*%
%TO.P,U10,1*%
%TO.N,N/C*%
%TA.AperFunction,SMDPad,CuDef*%
G36*
G01*
X134824000Y-82774000D02*
X134824000Y-82474000D01*
G75*
G02*
X134974000Y-82324000I150000J0D01*
G01*
X136624000Y-82324000D01*
G75*
G02*
X136774000Y-82474000I0J-150000D01*
G01*
X136774000Y-82774000D01*
G75*
G02*
X136624000Y-82924000I-150000J0D01*
G01*
X134974000Y-82924000D01*
G75*
G02*
X134824000Y-82774000I0J150000D01*
G01*
G37*
%TD.AperFunction*%
%TO.P,U10,2*%
%TA.AperFunction,SMDPad,CuDef*%
G36*
G01*
X134824000Y-81504000D02*
X134824000Y-81204000D01*
G75*
G02*
X134974000Y-81054000I150000J0D01*
G01*
X136624000Y-81054000D01*
G75*
G02*
X136774000Y-81204000I0J-150000D01*
G01*
X136774000Y-81504000D01*
G75*
G02*
X136624000Y-81654000I-150000J0D01*
G01*
X134974000Y-81654000D01*
G75*
G02*
X134824000Y-81504000I0J150000D01*
G01*
G37*
%TD.AperFunction*%
%TO.P,U10,3*%
%TA.AperFunction,SMDPad,CuDef*%
G36*
G01*
X134824000Y-80234000D02*
X134824000Y-79934000D01*
G75*
G02*
X134974000Y-79784000I150000J0D01*
G01*
X136624000Y-79784000D01*
G75*
G02*
X136774000Y-79934000I0J-150000D01*
G01*
X136774000Y-80234000D01*
G75*
G02*
X136624000Y-80384000I-150000J0D01*
G01*
X134974000Y-80384000D01*
G75*
G02*
X134824000Y-80234000I0J150000D01*
G01*
G37*
%TD.AperFunction*%
%TO.P,U10,4*%
%TA.AperFunction,SMDPad,CuDef*%
G36*
G01*
X134824000Y-78964000D02*
X134824000Y-78664000D01*
G75*
G02*
X134974000Y-78514000I150000J0D01*
G01*
X136624000Y-78514000D01*
G75*
G02*
X136774000Y-78664000I0J-150000D01*
G01*
X136774000Y-78964000D01*
G75*
G02*
X136624000Y-79114000I-150000J0D01*
G01*
X134974000Y-79114000D01*
G75*
G02*
X134824000Y-78964000I0J150000D01*
G01*
G37*
%TD.AperFunction*%
%TO.P,U10,5*%
%TA.AperFunction,SMDPad,CuDef*%
G36*
G01*
X139774000Y-78964000D02*
X139774000Y-78664000D01*
G75*
G02*
X139924000Y-78514000I150000J0D01*
G01*
X141574000Y-78514000D01*
G75*
G02*
X141724000Y-78664000I0J-150000D01*
G01*
X141724000Y-78964000D01*
G75*
G02*
X141574000Y-79114000I-150000J0D01*
G01*
X139924000Y-79114000D01*
G75*
G02*
X139774000Y-78964000I0J150000D01*
G01*
G37*
%TD.AperFunction*%
%TO.P,U10,6*%
%TA.AperFunction,SMDPad,CuDef*%
G36*
G01*
X139774000Y-80234000D02*
X139774000Y-79934000D01*
G75*
G02*
X139924000Y-79784000I150000J0D01*
G01*
X141574000Y-79784000D01*
G75*
G02*
X141724000Y-79934000I0J-150000D01*
G01*
X141724000Y-80234000D01*
G75*
G02*
X141574000Y-80384000I-150000J0D01*
G01*
X139924000Y-80384000D01*
G75*
G02*
X139774000Y-80234000I0J150000D01*
G01*
G37*
%TD.AperFunction*%
%TO.P,U10,7*%
%TA.AperFunction,SMDPad,CuDef*%
G36*
G01*
X139774000Y-81504000D02*
X139774000Y-81204000D01*
G75*
G02*
X139924000Y-81054000I150000J0D01*
G01*
X141574000Y-81054000D01*
G75*
G02*
X141724000Y-81204000I0J-150000D01*
G01*
X141724000Y-81504000D01*
G75*
G02*
X141574000Y-81654000I-150000J0D01*
G01*
X139924000Y-81654000D01*
G75*
G02*
X139774000Y-81504000I0J150000D01*
G01*
G37*
%TD.AperFunction*%
%TO.P,U10,8*%
%TA.AperFunction,SMDPad,CuDef*%
G36*
G01*
X139774000Y-82774000D02*
X139774000Y-82474000D01*
G75*
G02*
X139924000Y-82324000I150000J0D01*
G01*
X141574000Y-82324000D01*
G75*
G02*
X141724000Y-82474000I0J-150000D01*
G01*
X141724000Y-82774000D01*
G75*
G02*
X141574000Y-82924000I-150000J0D01*
G01*
X139924000Y-82924000D01*
G75*
G02*
X139774000Y-82774000I0J150000D01*
G01*
G37*
%TD.AperFunction*%
%TD*%
D37*
%TO.N,VCC*%
X183274000Y-75219000D03*
X189024000Y-105219000D03*
%TO.N,/UPDI*%
X179274000Y-94592000D03*
X186274000Y-99219000D03*
%TD*%
D38*
%TO.N,GND*%
X111074000Y-81219000D02*
X108274000Y-81219000D01*
X111074000Y-81219000D02*
X112024000Y-81219000D01*
X112524000Y-80719000D02*
X112524000Y-79219000D01*
X112024000Y-81219000D02*
X112524000Y-80719000D01*
D39*
X109911500Y-95719000D02*
X111211500Y-97019000D01*
X107336500Y-95719000D02*
X109911500Y-95719000D01*
X105924000Y-104219000D02*
X105024000Y-104219000D01*
X105024000Y-104219000D02*
X104274000Y-103469000D01*
X104274000Y-103469000D02*
X104274000Y-78719000D01*
X104274000Y-78719000D02*
X105774000Y-77219000D01*
X118274000Y-78969000D02*
X118274000Y-81219000D01*
X116524000Y-77219000D02*
X118274000Y-78969000D01*
X109274000Y-78219000D02*
X110274000Y-77219000D01*
X108274000Y-81219000D02*
X109274000Y-80219000D01*
X110274000Y-77219000D02*
X116524000Y-77219000D01*
X109274000Y-80219000D02*
X109274000Y-78219000D01*
X105774000Y-77219000D02*
X110274000Y-77219000D01*
X111211500Y-97019000D02*
X111211500Y-100656500D01*
X111211500Y-100656500D02*
X111774000Y-101219000D01*
X111774000Y-101219000D02*
X111774000Y-106969000D01*
X111024000Y-107719000D02*
X108624000Y-107719000D01*
X111774000Y-106969000D02*
X111024000Y-107719000D01*
X105524000Y-95469000D02*
X105774000Y-95719000D01*
X105524000Y-88969000D02*
X105524000Y-95469000D01*
X107274000Y-87219000D02*
X105524000Y-88969000D01*
X105774000Y-95719000D02*
X107336500Y-95719000D01*
X111274000Y-87219000D02*
X107274000Y-87219000D01*
X112524000Y-85969000D02*
X111274000Y-87219000D01*
X112524000Y-85219000D02*
X112524000Y-85969000D01*
X105924000Y-108119000D02*
X105924000Y-108719000D01*
X108224000Y-108119000D02*
X108624000Y-107719000D01*
X105924000Y-108119000D02*
X108224000Y-108119000D01*
X105924000Y-106219000D02*
X105924000Y-108719000D01*
X105924000Y-106219000D02*
X105924000Y-104219000D01*
X108624000Y-103919000D02*
X108624000Y-102719000D01*
X105924000Y-102319000D02*
X105924000Y-101719000D01*
X105924000Y-102319000D02*
X105924000Y-104219000D01*
D40*
%TO.N,VCC*%
X183274000Y-75219000D02*
X189274000Y-81219000D01*
X189274000Y-81219000D02*
X189274000Y-94219000D01*
X190274000Y-95219000D02*
X191274000Y-95219000D01*
X189274000Y-94219000D02*
X190274000Y-95219000D01*
X188984000Y-105259000D02*
X189024000Y-105219000D01*
X186274000Y-105259000D02*
X188984000Y-105259000D01*
X191274000Y-95219000D02*
X191274000Y-103969000D01*
X190024000Y-105219000D02*
X189024000Y-105219000D01*
X191274000Y-103969000D02*
X190024000Y-105219000D01*
D38*
%TO.N,/UPDI*%
X179274000Y-94592000D02*
X183397000Y-94592000D01*
X186274000Y-97469000D02*
X186274000Y-99219000D01*
X183397000Y-94592000D02*
X186274000Y-97469000D01*
%TO.N,VBUS*%
X111074000Y-83219000D02*
X108274000Y-83219000D01*
X108774000Y-82719000D02*
X108274000Y-83219000D01*
X111074000Y-82719000D02*
X108774000Y-82719000D01*
X106274000Y-83619000D02*
X107124000Y-83619000D01*
X107524000Y-83219000D02*
X108274000Y-83219000D01*
X107124000Y-83619000D02*
X107524000Y-83219000D01*
X106274000Y-83619000D02*
X106274000Y-80819000D01*
D39*
X106274000Y-83619000D02*
X105874000Y-83619000D01*
X104917590Y-84575410D02*
X104917590Y-95470183D01*
X105874000Y-83619000D02*
X104917590Y-84575410D01*
X108624000Y-106519000D02*
X109974000Y-106519000D01*
X109974000Y-106519000D02*
X110524000Y-105969000D01*
X110524000Y-102181820D02*
X104917590Y-96575410D01*
X110524000Y-105969000D02*
X110524000Y-102181820D01*
X104917590Y-95470183D02*
X104917590Y-96575410D01*
%TO.N,+BATT*%
X109649000Y-90719000D02*
X112024000Y-90719000D01*
X118274000Y-84469000D02*
X118274000Y-83219000D01*
X112024000Y-90719000D02*
X118274000Y-84469000D01*
X115274000Y-93969000D02*
X112024000Y-90719000D01*
X115274000Y-95969000D02*
X115274000Y-93969000D01*
X122024000Y-102719000D02*
X115274000Y-95969000D01*
X186274000Y-102719000D02*
X122024000Y-102719000D01*
D38*
X117774000Y-82719000D02*
X118274000Y-83219000D01*
X115474000Y-82719000D02*
X117774000Y-82719000D01*
X115474000Y-83219000D02*
X118274000Y-83219000D01*
%TO.N,Net-(DL1-Pad1)*%
X108524000Y-85219000D02*
X106274000Y-85219000D01*
%TO.N,Net-(DL2-Pad1)*%
X108524000Y-79219000D02*
X106274000Y-79219000D01*
%TO.N,Net-(RL1-Pad1)*%
X112028000Y-82219000D02*
X112524000Y-82715000D01*
X111074000Y-82219000D02*
X112028000Y-82219000D01*
X112524000Y-82715000D02*
X112524000Y-83469000D01*
X110774000Y-85219000D02*
X110024000Y-85219000D01*
X112524000Y-83469000D02*
X110774000Y-85219000D01*
%TO.N,Net-(RL2-Pad1)*%
X111074000Y-81719000D02*
X112774000Y-81719000D01*
X112774000Y-81719000D02*
X113274000Y-81219000D01*
X113274000Y-81219000D02*
X113274000Y-78469000D01*
X113274000Y-78469000D02*
X113024000Y-78219000D01*
X111024000Y-78219000D02*
X110024000Y-79219000D01*
X113024000Y-78219000D02*
X111024000Y-78219000D01*
%TO.N,Net-(RP1-Pad1)*%
X115474000Y-81219000D02*
X114524000Y-81219000D01*
X114024000Y-80719000D02*
X114024000Y-79219000D01*
X114524000Y-81219000D02*
X114024000Y-80719000D01*
%TO.N,Net-(RP2-Pad1)*%
X114274000Y-82219000D02*
X115474000Y-82219000D01*
X114024000Y-82469000D02*
X114274000Y-82219000D01*
X114024000Y-85219000D02*
X114024000Y-82469000D01*
%TO.N,Net-(R1-Pad2)*%
X126311500Y-79431500D02*
X126274000Y-79469000D01*
X126311500Y-76719000D02*
X126311500Y-79431500D01*
%TO.N,Net-(R1-Pad1)*%
X128099000Y-79469000D02*
X128099000Y-80644000D01*
X127924000Y-80819000D02*
X127924000Y-81719000D01*
X128099000Y-80644000D02*
X127924000Y-80819000D01*
%TO.N,Net-(R2-Pad2)*%
X124094000Y-78969000D02*
X124524000Y-78969000D01*
X124524000Y-78969000D02*
X124774000Y-78719000D01*
X124774000Y-78719000D02*
X124774000Y-76969000D01*
X124774000Y-76969000D02*
X124524000Y-76719000D01*
D41*
X123749000Y-76719000D02*
X124524000Y-76719000D01*
D38*
%TO.N,Net-(R17-Pad2)*%
X126274000Y-81719000D02*
X125774000Y-81719000D01*
X125024000Y-80969000D02*
X124294000Y-80969000D01*
X125774000Y-81719000D02*
X125024000Y-80969000D01*
%TO.N,Net-(R19-Pad1)*%
X122524000Y-78969000D02*
X123454000Y-78969000D01*
X122274000Y-79219000D02*
X122524000Y-78969000D01*
X122274000Y-80719000D02*
X122274000Y-79219000D01*
X122524000Y-80969000D02*
X122274000Y-80719000D01*
X123274000Y-80969000D02*
X122524000Y-80969000D01*
%TO.N,Net-(R3-Pad1)*%
X128024000Y-74469000D02*
X128774000Y-74469000D01*
X129236500Y-74931500D02*
X129236500Y-76719000D01*
X128774000Y-74469000D02*
X129236500Y-74931500D01*
D41*
%TO.N,Net-(R8-Pad1)*%
X123249000Y-76719000D02*
X122774000Y-76719000D01*
D38*
X122774000Y-76719000D02*
X122524000Y-76719000D01*
X122524000Y-76719000D02*
X122274000Y-76469000D01*
X122274000Y-75469000D02*
X123274000Y-74469000D01*
X122274000Y-76469000D02*
X122274000Y-75469000D01*
D39*
%TO.N,Net-(F1-Pad2)*%
X109911500Y-94719000D02*
X111211500Y-93419000D01*
X107336500Y-94719000D02*
X109911500Y-94719000D01*
X107774000Y-90719000D02*
X107774000Y-91969000D01*
X109224000Y-93419000D02*
X111211500Y-93419000D01*
X107774000Y-91969000D02*
X109224000Y-93419000D01*
%TD*%
M02*
