%TF.GenerationSoftware,KiCad,Pcbnew,(5.1.10)-1*%
%TF.CreationDate,2022-04-30T13:51:09-07:00*%
%TF.ProjectId,project,70726f6a-6563-4742-9e6b-696361645f70,0.0*%
%TF.SameCoordinates,Original*%
%TF.FileFunction,Legend,Top*%
%TF.FilePolarity,Positive*%
%FSLAX46Y46*%
G04 Gerber Fmt 4.6, Leading zero omitted, Abs format (unit mm)*
G04 Created by KiCad (PCBNEW (5.1.10)-1) date 2022-04-30 13:51:09*
%MOMM*%
%LPD*%
G01*
G04 APERTURE LIST*
%ADD10C,0.100000*%
%ADD11C,0.120000*%
%ADD12C,0.010000*%
%ADD13C,0.150000*%
G04 APERTURE END LIST*
D10*
%TO.C,D5*%
X191414000Y-71219000D02*
G75*
G03*
X191414000Y-71219000I-50000J0D01*
G01*
D11*
%TO.C,D1*%
X182424000Y-73219000D02*
X182424000Y-72119000D01*
X184024000Y-74019000D02*
G75*
G03*
X184024000Y-74019000I-100000J0D01*
G01*
X182424000Y-74319000D02*
X182424000Y-73219000D01*
X184624000Y-74319000D02*
X182424000Y-74319000D01*
X184624000Y-74319000D02*
X184624000Y-73219000D01*
X184624000Y-73219000D02*
X184624000Y-72119000D01*
X182424000Y-72119000D02*
X184624000Y-72119000D01*
%TO.C,J4*%
X149525000Y-61219000D02*
G75*
G03*
X149525000Y-61219000I-1251000J0D01*
G01*
%TO.C,U1*%
X180864000Y-92509000D02*
X180864000Y-92059000D01*
X180864000Y-92059000D02*
X181314000Y-92059000D01*
X184084000Y-94829000D02*
X184084000Y-95279000D01*
X184084000Y-95279000D02*
X183634000Y-95279000D01*
X184084000Y-92509000D02*
X184084000Y-92059000D01*
X184084000Y-92059000D02*
X183634000Y-92059000D01*
X180864000Y-94829000D02*
X180864000Y-95279000D01*
%TO.C,C1*%
X182274000Y-103569000D02*
X183274000Y-103569000D01*
X183274000Y-101869000D02*
X182274000Y-101869000D01*
%TO.C,C2*%
X182674000Y-100119000D02*
X183374000Y-100119000D01*
X183374000Y-101319000D02*
X182674000Y-101319000D01*
D10*
%TO.C,D4*%
X189899000Y-82219000D02*
G75*
G03*
X189899000Y-82219000I-50000J0D01*
G01*
%TO.C,D6*%
X189324000Y-65309000D02*
G75*
G03*
X189324000Y-65309000I-50000J0D01*
G01*
%TO.C,D7*%
X180324000Y-62309000D02*
G75*
G03*
X180324000Y-62309000I-50000J0D01*
G01*
%TO.C,D9*%
X176414000Y-71219000D02*
G75*
G03*
X176414000Y-71219000I-50000J0D01*
G01*
%TO.C,D10*%
X178414000Y-85219000D02*
G75*
G03*
X178414000Y-85219000I-50000J0D01*
G01*
%TO.C,D11*%
X113414000Y-106219000D02*
G75*
G03*
X113414000Y-106219000I-50000J0D01*
G01*
%TO.C,D12*%
X121414000Y-109219000D02*
G75*
G03*
X121414000Y-109219000I-50000J0D01*
G01*
%TO.C,D13*%
X133414000Y-106219000D02*
G75*
G03*
X133414000Y-106219000I-50000J0D01*
G01*
%TO.C,D14*%
X146899000Y-105219000D02*
G75*
G03*
X146899000Y-105219000I-50000J0D01*
G01*
%TO.C,D15*%
X161929000Y-108219000D02*
G75*
G03*
X161929000Y-108219000I-50000J0D01*
G01*
%TO.C,D16*%
X174429000Y-103219000D02*
G75*
G03*
X174429000Y-103219000I-50000J0D01*
G01*
D11*
%TO.C,R4*%
X188917641Y-82839000D02*
X188610359Y-82839000D01*
X188917641Y-83599000D02*
X188610359Y-83599000D01*
%TO.C,R5*%
X190427641Y-72599000D02*
X190120359Y-72599000D01*
X190427641Y-71839000D02*
X190120359Y-71839000D01*
%TO.C,R6*%
X188654000Y-64372641D02*
X188654000Y-64065359D01*
X187894000Y-64372641D02*
X187894000Y-64065359D01*
%TO.C,R7*%
X180894000Y-61372641D02*
X180894000Y-61065359D01*
X181654000Y-61372641D02*
X181654000Y-61065359D01*
%TO.C,R9*%
X175427641Y-72599000D02*
X175120359Y-72599000D01*
X175427641Y-71839000D02*
X175120359Y-71839000D01*
%TO.C,R10*%
X177427641Y-85839000D02*
X177120359Y-85839000D01*
X177427641Y-86599000D02*
X177120359Y-86599000D01*
%TO.C,R11*%
X112427641Y-104839000D02*
X112120359Y-104839000D01*
X112427641Y-105599000D02*
X112120359Y-105599000D01*
%TO.C,R12*%
X120427641Y-108599000D02*
X120120359Y-108599000D01*
X120427641Y-107839000D02*
X120120359Y-107839000D01*
%TO.C,R13*%
X132427641Y-105599000D02*
X132120359Y-105599000D01*
X132427641Y-104839000D02*
X132120359Y-104839000D01*
%TO.C,R14*%
X145917641Y-103839000D02*
X145610359Y-103839000D01*
X145917641Y-104599000D02*
X145610359Y-104599000D01*
%TO.C,R15*%
X160937641Y-107599000D02*
X160630359Y-107599000D01*
X160937641Y-106839000D02*
X160630359Y-106839000D01*
%TO.C,R16*%
X173427641Y-101839000D02*
X173120359Y-101839000D01*
X173427641Y-102599000D02*
X173120359Y-102599000D01*
%TO.C,RD1*%
X186927641Y-102099000D02*
X186620359Y-102099000D01*
X186927641Y-101339000D02*
X186620359Y-101339000D01*
%TO.C,RD2*%
X186630359Y-103599000D02*
X186937641Y-103599000D01*
X186630359Y-102839000D02*
X186937641Y-102839000D01*
%TO.C,RP3*%
X186610359Y-99839000D02*
X186917641Y-99839000D01*
X186610359Y-100599000D02*
X186917641Y-100599000D01*
D12*
%TO.C,J5*%
G36*
X165418077Y-66643392D02*
G01*
X166616907Y-66936962D01*
X167709323Y-67430272D01*
X168650348Y-68119486D01*
X169395004Y-69000768D01*
X169497326Y-69166840D01*
X169689541Y-69519118D01*
X169850580Y-69883759D01*
X169983163Y-70290892D01*
X170090015Y-70770648D01*
X170173857Y-71353157D01*
X170237413Y-72068548D01*
X170283405Y-72946953D01*
X170314555Y-74018500D01*
X170333587Y-75313320D01*
X170343223Y-76861544D01*
X170346141Y-78560105D01*
X170348847Y-85143847D01*
X165206515Y-85143847D01*
X165203747Y-80040473D01*
X165196635Y-78170492D01*
X165176411Y-76588955D01*
X165141450Y-75272863D01*
X165090127Y-74199216D01*
X165020817Y-73345012D01*
X164931896Y-72687253D01*
X164821740Y-72202938D01*
X164688724Y-71869067D01*
X164618775Y-71758817D01*
X163979519Y-71140447D01*
X163208264Y-70776479D01*
X162356916Y-70669702D01*
X161477382Y-70822908D01*
X160621567Y-71238884D01*
X160244879Y-71523744D01*
X159961500Y-71773277D01*
X159727486Y-72012652D01*
X159537780Y-72273426D01*
X159387327Y-72587158D01*
X159271068Y-72985406D01*
X159183947Y-73499728D01*
X159120907Y-74161683D01*
X159076892Y-75002830D01*
X159046845Y-76054726D01*
X159025708Y-77348929D01*
X159008426Y-78916999D01*
X159005035Y-79261332D01*
X158947493Y-85143847D01*
X153675227Y-85143847D01*
X153675227Y-66911945D01*
X158661730Y-66911945D01*
X158661730Y-68964199D01*
X159401914Y-68305882D01*
X160458158Y-67543219D01*
X161632873Y-66999474D01*
X162881083Y-66670812D01*
X164157810Y-66553397D01*
X165418077Y-66643392D01*
G37*
X165418077Y-66643392D02*
X166616907Y-66936962D01*
X167709323Y-67430272D01*
X168650348Y-68119486D01*
X169395004Y-69000768D01*
X169497326Y-69166840D01*
X169689541Y-69519118D01*
X169850580Y-69883759D01*
X169983163Y-70290892D01*
X170090015Y-70770648D01*
X170173857Y-71353157D01*
X170237413Y-72068548D01*
X170283405Y-72946953D01*
X170314555Y-74018500D01*
X170333587Y-75313320D01*
X170343223Y-76861544D01*
X170346141Y-78560105D01*
X170348847Y-85143847D01*
X165206515Y-85143847D01*
X165203747Y-80040473D01*
X165196635Y-78170492D01*
X165176411Y-76588955D01*
X165141450Y-75272863D01*
X165090127Y-74199216D01*
X165020817Y-73345012D01*
X164931896Y-72687253D01*
X164821740Y-72202938D01*
X164688724Y-71869067D01*
X164618775Y-71758817D01*
X163979519Y-71140447D01*
X163208264Y-70776479D01*
X162356916Y-70669702D01*
X161477382Y-70822908D01*
X160621567Y-71238884D01*
X160244879Y-71523744D01*
X159961500Y-71773277D01*
X159727486Y-72012652D01*
X159537780Y-72273426D01*
X159387327Y-72587158D01*
X159271068Y-72985406D01*
X159183947Y-73499728D01*
X159120907Y-74161683D01*
X159076892Y-75002830D01*
X159046845Y-76054726D01*
X159025708Y-77348929D01*
X159008426Y-78916999D01*
X159005035Y-79261332D01*
X158947493Y-85143847D01*
X153675227Y-85143847D01*
X153675227Y-66911945D01*
X158661730Y-66911945D01*
X158661730Y-68964199D01*
X159401914Y-68305882D01*
X160458158Y-67543219D01*
X161632873Y-66999474D01*
X162881083Y-66670812D01*
X164157810Y-66553397D01*
X165418077Y-66643392D01*
G36*
X115845826Y-65382596D02*
G01*
X115886883Y-70553861D01*
X120624976Y-65382596D01*
X125363069Y-60211332D01*
X132663559Y-60211332D01*
X131521233Y-61444166D01*
X131124201Y-61867263D01*
X130547429Y-62474466D01*
X129828540Y-63226537D01*
X129005159Y-64084239D01*
X128114908Y-65008332D01*
X127195413Y-65959580D01*
X126830142Y-66336533D01*
X123281375Y-69996066D01*
X127517424Y-76518116D01*
X128375840Y-77840028D01*
X129203567Y-79115150D01*
X129980898Y-80313096D01*
X130688129Y-81403474D01*
X131305554Y-82355895D01*
X131813467Y-83139972D01*
X132192163Y-83725314D01*
X132421936Y-84081533D01*
X132430542Y-84094934D01*
X133107612Y-85149702D01*
X129581067Y-85107818D01*
X126054522Y-85065933D01*
X123496407Y-80702743D01*
X122837573Y-79578515D01*
X122195455Y-78481880D01*
X121596119Y-77457423D01*
X121065631Y-76549730D01*
X120630058Y-75803388D01*
X120315467Y-75262983D01*
X120227538Y-75111352D01*
X119516785Y-73883151D01*
X117662877Y-75732229D01*
X115808969Y-77581306D01*
X115808969Y-85143847D01*
X110354982Y-85143847D01*
X110354982Y-60211332D01*
X115804768Y-60211332D01*
X115845826Y-65382596D01*
G37*
X115845826Y-65382596D02*
X115886883Y-70553861D01*
X120624976Y-65382596D01*
X125363069Y-60211332D01*
X132663559Y-60211332D01*
X131521233Y-61444166D01*
X131124201Y-61867263D01*
X130547429Y-62474466D01*
X129828540Y-63226537D01*
X129005159Y-64084239D01*
X128114908Y-65008332D01*
X127195413Y-65959580D01*
X126830142Y-66336533D01*
X123281375Y-69996066D01*
X127517424Y-76518116D01*
X128375840Y-77840028D01*
X129203567Y-79115150D01*
X129980898Y-80313096D01*
X130688129Y-81403474D01*
X131305554Y-82355895D01*
X131813467Y-83139972D01*
X132192163Y-83725314D01*
X132421936Y-84081533D01*
X132430542Y-84094934D01*
X133107612Y-85149702D01*
X129581067Y-85107818D01*
X126054522Y-85065933D01*
X123496407Y-80702743D01*
X122837573Y-79578515D01*
X122195455Y-78481880D01*
X121596119Y-77457423D01*
X121065631Y-76549730D01*
X120630058Y-75803388D01*
X120315467Y-75262983D01*
X120227538Y-75111352D01*
X119516785Y-73883151D01*
X117662877Y-75732229D01*
X115808969Y-77581306D01*
X115808969Y-85143847D01*
X110354982Y-85143847D01*
X110354982Y-60211332D01*
X115804768Y-60211332D01*
X115845826Y-65382596D01*
G36*
X143432115Y-66672211D02*
G01*
X144744995Y-66938096D01*
X145909394Y-67407089D01*
X146985869Y-68102567D01*
X147877082Y-68889363D01*
X148687806Y-69826834D01*
X149334546Y-70893335D01*
X149830830Y-72125958D01*
X150190186Y-73561799D01*
X150426141Y-75237950D01*
X150494742Y-76066853D01*
X150603215Y-77664092D01*
X138871546Y-77664092D01*
X138871546Y-78034071D01*
X139006833Y-78843956D01*
X139372766Y-79669843D01*
X139909454Y-80414961D01*
X140557005Y-80982540D01*
X140774849Y-81109334D01*
X141493938Y-81352557D01*
X142311244Y-81439359D01*
X143104177Y-81368292D01*
X143739057Y-81144318D01*
X144097703Y-80829757D01*
X144492039Y-80314935D01*
X144858306Y-79694958D01*
X145132354Y-79066064D01*
X145296595Y-79032922D01*
X145702708Y-79057583D01*
X146288641Y-79128880D01*
X146992336Y-79235642D01*
X147751739Y-79366701D01*
X148504795Y-79510887D01*
X149189450Y-79657031D01*
X149743647Y-79793963D01*
X150105331Y-79910516D01*
X150214102Y-79980718D01*
X150184669Y-80275665D01*
X149998661Y-80748938D01*
X149693411Y-81334875D01*
X149306251Y-81967816D01*
X148874515Y-82582100D01*
X148435535Y-83112065D01*
X148430790Y-83117198D01*
X147341863Y-84078030D01*
X146081426Y-84790075D01*
X144642889Y-85255405D01*
X143019662Y-85476091D01*
X141205158Y-85454205D01*
X141040573Y-85441114D01*
X139426613Y-85165809D01*
X137983702Y-84632206D01*
X136721517Y-83848631D01*
X135649735Y-82823411D01*
X134778031Y-81564872D01*
X134116083Y-80081341D01*
X133870314Y-79271297D01*
X133658961Y-78136076D01*
X133552496Y-76823305D01*
X133550888Y-75448898D01*
X133654106Y-74128772D01*
X133726624Y-73727879D01*
X138910935Y-73727879D01*
X138918482Y-73943970D01*
X139043537Y-74088671D01*
X139320907Y-74176138D01*
X139785400Y-74220523D01*
X140471825Y-74235981D01*
X141414991Y-74236666D01*
X142087205Y-74235871D01*
X145302865Y-74235871D01*
X145206383Y-73531959D01*
X144939225Y-72562819D01*
X144453736Y-71764328D01*
X143793840Y-71162355D01*
X143003465Y-70782767D01*
X142126538Y-70651433D01*
X141206985Y-70794219D01*
X140812952Y-70944727D01*
X140031289Y-71466303D01*
X139441877Y-72226141D01*
X139109131Y-73024918D01*
X138986087Y-73426247D01*
X138910935Y-73727879D01*
X133726624Y-73727879D01*
X133862119Y-72978839D01*
X133872018Y-72940323D01*
X134433116Y-71328775D01*
X135221507Y-69927202D01*
X136234627Y-68739369D01*
X137331428Y-67859536D01*
X138447217Y-67232081D01*
X139613385Y-66827144D01*
X140910301Y-66622372D01*
X141910196Y-66586059D01*
X143432115Y-66672211D01*
G37*
X143432115Y-66672211D02*
X144744995Y-66938096D01*
X145909394Y-67407089D01*
X146985869Y-68102567D01*
X147877082Y-68889363D01*
X148687806Y-69826834D01*
X149334546Y-70893335D01*
X149830830Y-72125958D01*
X150190186Y-73561799D01*
X150426141Y-75237950D01*
X150494742Y-76066853D01*
X150603215Y-77664092D01*
X138871546Y-77664092D01*
X138871546Y-78034071D01*
X139006833Y-78843956D01*
X139372766Y-79669843D01*
X139909454Y-80414961D01*
X140557005Y-80982540D01*
X140774849Y-81109334D01*
X141493938Y-81352557D01*
X142311244Y-81439359D01*
X143104177Y-81368292D01*
X143739057Y-81144318D01*
X144097703Y-80829757D01*
X144492039Y-80314935D01*
X144858306Y-79694958D01*
X145132354Y-79066064D01*
X145296595Y-79032922D01*
X145702708Y-79057583D01*
X146288641Y-79128880D01*
X146992336Y-79235642D01*
X147751739Y-79366701D01*
X148504795Y-79510887D01*
X149189450Y-79657031D01*
X149743647Y-79793963D01*
X150105331Y-79910516D01*
X150214102Y-79980718D01*
X150184669Y-80275665D01*
X149998661Y-80748938D01*
X149693411Y-81334875D01*
X149306251Y-81967816D01*
X148874515Y-82582100D01*
X148435535Y-83112065D01*
X148430790Y-83117198D01*
X147341863Y-84078030D01*
X146081426Y-84790075D01*
X144642889Y-85255405D01*
X143019662Y-85476091D01*
X141205158Y-85454205D01*
X141040573Y-85441114D01*
X139426613Y-85165809D01*
X137983702Y-84632206D01*
X136721517Y-83848631D01*
X135649735Y-82823411D01*
X134778031Y-81564872D01*
X134116083Y-80081341D01*
X133870314Y-79271297D01*
X133658961Y-78136076D01*
X133552496Y-76823305D01*
X133550888Y-75448898D01*
X133654106Y-74128772D01*
X133726624Y-73727879D01*
X138910935Y-73727879D01*
X138918482Y-73943970D01*
X139043537Y-74088671D01*
X139320907Y-74176138D01*
X139785400Y-74220523D01*
X140471825Y-74235981D01*
X141414991Y-74236666D01*
X142087205Y-74235871D01*
X145302865Y-74235871D01*
X145206383Y-73531959D01*
X144939225Y-72562819D01*
X144453736Y-71764328D01*
X143793840Y-71162355D01*
X143003465Y-70782767D01*
X142126538Y-70651433D01*
X141206985Y-70794219D01*
X140812952Y-70944727D01*
X140031289Y-71466303D01*
X139441877Y-72226141D01*
X139109131Y-73024918D01*
X138986087Y-73426247D01*
X138910935Y-73727879D01*
X133726624Y-73727879D01*
X133862119Y-72978839D01*
X133872018Y-72940323D01*
X134433116Y-71328775D01*
X135221507Y-69927202D01*
X136234627Y-68739369D01*
X137331428Y-67859536D01*
X138447217Y-67232081D01*
X139613385Y-66827144D01*
X140910301Y-66622372D01*
X141910196Y-66586059D01*
X143432115Y-66672211D01*
G36*
X164910139Y-91867689D02*
G01*
X167310196Y-95474966D01*
X167352025Y-91867689D01*
X167393854Y-88260411D01*
X170348847Y-88260411D01*
X170348847Y-100726669D01*
X168829521Y-100722936D01*
X167310196Y-100719203D01*
X164972773Y-97193422D01*
X162635350Y-93667640D01*
X162593467Y-97197155D01*
X162551584Y-100726669D01*
X159596699Y-100726669D01*
X159596699Y-88260411D01*
X162510082Y-88260411D01*
X164910139Y-91867689D01*
G37*
X164910139Y-91867689D02*
X167310196Y-95474966D01*
X167352025Y-91867689D01*
X167393854Y-88260411D01*
X170348847Y-88260411D01*
X170348847Y-100726669D01*
X168829521Y-100722936D01*
X167310196Y-100719203D01*
X164972773Y-97193422D01*
X162635350Y-93667640D01*
X162593467Y-97197155D01*
X162551584Y-100726669D01*
X159596699Y-100726669D01*
X159596699Y-88260411D01*
X162510082Y-88260411D01*
X164910139Y-91867689D01*
G36*
X157726761Y-90909491D02*
G01*
X150870319Y-90909491D01*
X150870319Y-92935258D01*
X157259276Y-92935258D01*
X157259276Y-95428509D01*
X150870319Y-95428509D01*
X150870319Y-98233417D01*
X158051527Y-98233417D01*
X157960503Y-100648755D01*
X152853057Y-100689846D01*
X151393260Y-100699127D01*
X150218538Y-100700510D01*
X149302391Y-100693197D01*
X148618320Y-100676390D01*
X148139824Y-100649289D01*
X147840403Y-100611095D01*
X147693558Y-100561009D01*
X147669881Y-100533587D01*
X147654026Y-100338284D01*
X147641388Y-99866451D01*
X147632163Y-99153200D01*
X147626550Y-98233644D01*
X147624745Y-97142895D01*
X147626947Y-95916064D01*
X147633353Y-94588264D01*
X147634995Y-94337280D01*
X147675840Y-88338325D01*
X152701301Y-88297210D01*
X157726761Y-88256094D01*
X157726761Y-90909491D01*
G37*
X157726761Y-90909491D02*
X150870319Y-90909491D01*
X150870319Y-92935258D01*
X157259276Y-92935258D01*
X157259276Y-95428509D01*
X150870319Y-95428509D01*
X150870319Y-98233417D01*
X158051527Y-98233417D01*
X157960503Y-100648755D01*
X152853057Y-100689846D01*
X151393260Y-100699127D01*
X150218538Y-100700510D01*
X149302391Y-100693197D01*
X148618320Y-100676390D01*
X148139824Y-100649289D01*
X147840403Y-100611095D01*
X147693558Y-100561009D01*
X147669881Y-100533587D01*
X147654026Y-100338284D01*
X147641388Y-99866451D01*
X147632163Y-99153200D01*
X147626550Y-98233644D01*
X147624745Y-97142895D01*
X147626947Y-95916064D01*
X147633353Y-94588264D01*
X147634995Y-94337280D01*
X147675840Y-88338325D01*
X152701301Y-88297210D01*
X157726761Y-88256094D01*
X157726761Y-90909491D01*
G36*
X128000307Y-93285871D02*
G01*
X128041485Y-98155503D01*
X131281418Y-98197642D01*
X134521351Y-98239780D01*
X134475896Y-99444267D01*
X134430442Y-100648755D01*
X124847006Y-100731173D01*
X124847006Y-88416239D01*
X127959130Y-88416239D01*
X128000307Y-93285871D01*
G37*
X128000307Y-93285871D02*
X128041485Y-98155503D01*
X131281418Y-98197642D01*
X134521351Y-98239780D01*
X134475896Y-99444267D01*
X134430442Y-100648755D01*
X124847006Y-100731173D01*
X124847006Y-88416239D01*
X127959130Y-88416239D01*
X128000307Y-93285871D01*
G36*
X141404549Y-88169616D02*
G01*
X142512582Y-88376913D01*
X143520847Y-88743980D01*
X144371463Y-89268685D01*
X144987399Y-89920749D01*
X145274930Y-90431800D01*
X145493568Y-90995647D01*
X145623222Y-91530114D01*
X145643800Y-91953026D01*
X145539640Y-92179512D01*
X145302055Y-92236082D01*
X144834801Y-92280368D01*
X144219812Y-92305884D01*
X143897006Y-92309559D01*
X143205869Y-92302579D01*
X142771948Y-92272880D01*
X142541109Y-92211481D01*
X142459214Y-92109402D01*
X142455595Y-92070464D01*
X142310784Y-91505613D01*
X141918411Y-91039903D01*
X141341570Y-90747485D01*
X141326412Y-90743327D01*
X140642266Y-90638287D01*
X139958862Y-90666531D01*
X139344571Y-90808547D01*
X138867763Y-91044825D01*
X138596807Y-91355854D01*
X138559889Y-91532804D01*
X138624957Y-91778116D01*
X138844041Y-91998988D01*
X139252967Y-92212917D01*
X139887558Y-92437397D01*
X140783638Y-92689926D01*
X141092178Y-92769544D01*
X142263052Y-93086210D01*
X143177503Y-93382349D01*
X143887639Y-93681470D01*
X144445568Y-94007080D01*
X144903397Y-94382686D01*
X145089269Y-94572790D01*
X145682200Y-95419583D01*
X145992827Y-96330871D01*
X146031143Y-97263013D01*
X145807138Y-98172367D01*
X145330805Y-99015290D01*
X144612135Y-99748142D01*
X143785331Y-100268253D01*
X143293770Y-100495933D01*
X142865258Y-100645522D01*
X142403490Y-100736799D01*
X141812167Y-100789539D01*
X141098067Y-100820118D01*
X140053503Y-100825273D01*
X139187592Y-100768745D01*
X138637804Y-100673778D01*
X137458030Y-100229254D01*
X136501594Y-99572967D01*
X135777650Y-98714386D01*
X135295354Y-97662980D01*
X135146784Y-97063120D01*
X135090448Y-96756165D01*
X135087264Y-96543093D01*
X135183333Y-96400948D01*
X135424754Y-96306774D01*
X135857629Y-96237616D01*
X136528059Y-96170517D01*
X137031480Y-96124640D01*
X138074237Y-96028962D01*
X138238979Y-96640767D01*
X138588376Y-97402561D01*
X139160069Y-97950080D01*
X139817060Y-98236257D01*
X140586289Y-98342817D01*
X141341723Y-98273231D01*
X142013085Y-98051645D01*
X142530096Y-97702205D01*
X142822477Y-97249056D01*
X142836695Y-97198805D01*
X142822793Y-96775189D01*
X142541590Y-96412860D01*
X141978742Y-96100404D01*
X141119904Y-95826401D01*
X141108774Y-95823563D01*
X139652856Y-95429700D01*
X138480969Y-95061856D01*
X137601137Y-94722851D01*
X137021387Y-94415507D01*
X136943577Y-94359191D01*
X136201213Y-93616834D01*
X135733554Y-92777479D01*
X135545429Y-91882894D01*
X135641668Y-90974846D01*
X136027100Y-90095103D01*
X136393826Y-89604290D01*
X137132432Y-88980763D01*
X138060691Y-88527663D01*
X139120720Y-88242860D01*
X140254634Y-88124221D01*
X141404549Y-88169616D01*
G37*
X141404549Y-88169616D02*
X142512582Y-88376913D01*
X143520847Y-88743980D01*
X144371463Y-89268685D01*
X144987399Y-89920749D01*
X145274930Y-90431800D01*
X145493568Y-90995647D01*
X145623222Y-91530114D01*
X145643800Y-91953026D01*
X145539640Y-92179512D01*
X145302055Y-92236082D01*
X144834801Y-92280368D01*
X144219812Y-92305884D01*
X143897006Y-92309559D01*
X143205869Y-92302579D01*
X142771948Y-92272880D01*
X142541109Y-92211481D01*
X142459214Y-92109402D01*
X142455595Y-92070464D01*
X142310784Y-91505613D01*
X141918411Y-91039903D01*
X141341570Y-90747485D01*
X141326412Y-90743327D01*
X140642266Y-90638287D01*
X139958862Y-90666531D01*
X139344571Y-90808547D01*
X138867763Y-91044825D01*
X138596807Y-91355854D01*
X138559889Y-91532804D01*
X138624957Y-91778116D01*
X138844041Y-91998988D01*
X139252967Y-92212917D01*
X139887558Y-92437397D01*
X140783638Y-92689926D01*
X141092178Y-92769544D01*
X142263052Y-93086210D01*
X143177503Y-93382349D01*
X143887639Y-93681470D01*
X144445568Y-94007080D01*
X144903397Y-94382686D01*
X145089269Y-94572790D01*
X145682200Y-95419583D01*
X145992827Y-96330871D01*
X146031143Y-97263013D01*
X145807138Y-98172367D01*
X145330805Y-99015290D01*
X144612135Y-99748142D01*
X143785331Y-100268253D01*
X143293770Y-100495933D01*
X142865258Y-100645522D01*
X142403490Y-100736799D01*
X141812167Y-100789539D01*
X141098067Y-100820118D01*
X140053503Y-100825273D01*
X139187592Y-100768745D01*
X138637804Y-100673778D01*
X137458030Y-100229254D01*
X136501594Y-99572967D01*
X135777650Y-98714386D01*
X135295354Y-97662980D01*
X135146784Y-97063120D01*
X135090448Y-96756165D01*
X135087264Y-96543093D01*
X135183333Y-96400948D01*
X135424754Y-96306774D01*
X135857629Y-96237616D01*
X136528059Y-96170517D01*
X137031480Y-96124640D01*
X138074237Y-96028962D01*
X138238979Y-96640767D01*
X138588376Y-97402561D01*
X139160069Y-97950080D01*
X139817060Y-98236257D01*
X140586289Y-98342817D01*
X141341723Y-98273231D01*
X142013085Y-98051645D01*
X142530096Y-97702205D01*
X142822477Y-97249056D01*
X142836695Y-97198805D01*
X142822793Y-96775189D01*
X142541590Y-96412860D01*
X141978742Y-96100404D01*
X141119904Y-95826401D01*
X141108774Y-95823563D01*
X139652856Y-95429700D01*
X138480969Y-95061856D01*
X137601137Y-94722851D01*
X137021387Y-94415507D01*
X136943577Y-94359191D01*
X136201213Y-93616834D01*
X135733554Y-92777479D01*
X135545429Y-91882894D01*
X135641668Y-90974846D01*
X136027100Y-90095103D01*
X136393826Y-89604290D01*
X137132432Y-88980763D01*
X138060691Y-88527663D01*
X139120720Y-88242860D01*
X140254634Y-88124221D01*
X141404549Y-88169616D01*
G36*
X118515827Y-88307840D02*
G01*
X119790526Y-88720398D01*
X120909184Y-89360981D01*
X121845505Y-90213772D01*
X122573197Y-91262956D01*
X123065965Y-92492715D01*
X123134247Y-92759947D01*
X123273424Y-93772632D01*
X123272592Y-94904346D01*
X123141776Y-96035431D01*
X122891004Y-97046229D01*
X122743231Y-97426538D01*
X122168083Y-98388210D01*
X121374810Y-99267509D01*
X120447192Y-99984913D01*
X119593192Y-100416564D01*
X118869763Y-100612702D01*
X117953307Y-100752250D01*
X116958629Y-100827283D01*
X116000536Y-100829879D01*
X115193833Y-100752114D01*
X115071855Y-100728607D01*
X113843582Y-100318510D01*
X112729712Y-99656775D01*
X111783844Y-98785911D01*
X111059579Y-97748424D01*
X110896303Y-97417243D01*
X110651839Y-96789073D01*
X110499218Y-96153943D01*
X110411464Y-95384606D01*
X110389255Y-95025684D01*
X110392048Y-94485179D01*
X113630796Y-94485179D01*
X113688642Y-95510478D01*
X113873833Y-96312450D01*
X114212793Y-96962633D01*
X114731944Y-97532565D01*
X114768292Y-97564798D01*
X115269560Y-97909249D01*
X115801653Y-98133579D01*
X115922509Y-98160578D01*
X116344438Y-98234297D01*
X116633643Y-98290349D01*
X116663285Y-98297208D01*
X116948646Y-98294323D01*
X117403882Y-98224174D01*
X117901557Y-98112973D01*
X118314236Y-97986930D01*
X118438906Y-97932006D01*
X118880016Y-97586374D01*
X119328189Y-97064751D01*
X119691526Y-96486676D01*
X119851133Y-96095039D01*
X119933216Y-95639785D01*
X119992184Y-95008499D01*
X120015449Y-94336626D01*
X120015462Y-94326697D01*
X119993571Y-93622943D01*
X119907311Y-93091710D01*
X119727650Y-92595873D01*
X119587804Y-92306753D01*
X119104648Y-91576708D01*
X118503929Y-91094230D01*
X117740367Y-90835812D01*
X116768686Y-90777948D01*
X116652027Y-90782584D01*
X115636138Y-90942151D01*
X114834245Y-91318539D01*
X114240665Y-91918714D01*
X113849713Y-92749641D01*
X113655707Y-93818285D01*
X113630796Y-94485179D01*
X110392048Y-94485179D01*
X110396465Y-93630573D01*
X110589440Y-92439895D01*
X110987161Y-91394812D01*
X111608607Y-90436484D01*
X112025187Y-89954284D01*
X112894991Y-89199891D01*
X113911072Y-88660757D01*
X115126158Y-88311473D01*
X115603479Y-88230062D01*
X117111380Y-88139122D01*
X118515827Y-88307840D01*
G37*
X118515827Y-88307840D02*
X119790526Y-88720398D01*
X120909184Y-89360981D01*
X121845505Y-90213772D01*
X122573197Y-91262956D01*
X123065965Y-92492715D01*
X123134247Y-92759947D01*
X123273424Y-93772632D01*
X123272592Y-94904346D01*
X123141776Y-96035431D01*
X122891004Y-97046229D01*
X122743231Y-97426538D01*
X122168083Y-98388210D01*
X121374810Y-99267509D01*
X120447192Y-99984913D01*
X119593192Y-100416564D01*
X118869763Y-100612702D01*
X117953307Y-100752250D01*
X116958629Y-100827283D01*
X116000536Y-100829879D01*
X115193833Y-100752114D01*
X115071855Y-100728607D01*
X113843582Y-100318510D01*
X112729712Y-99656775D01*
X111783844Y-98785911D01*
X111059579Y-97748424D01*
X110896303Y-97417243D01*
X110651839Y-96789073D01*
X110499218Y-96153943D01*
X110411464Y-95384606D01*
X110389255Y-95025684D01*
X110392048Y-94485179D01*
X113630796Y-94485179D01*
X113688642Y-95510478D01*
X113873833Y-96312450D01*
X114212793Y-96962633D01*
X114731944Y-97532565D01*
X114768292Y-97564798D01*
X115269560Y-97909249D01*
X115801653Y-98133579D01*
X115922509Y-98160578D01*
X116344438Y-98234297D01*
X116633643Y-98290349D01*
X116663285Y-98297208D01*
X116948646Y-98294323D01*
X117403882Y-98224174D01*
X117901557Y-98112973D01*
X118314236Y-97986930D01*
X118438906Y-97932006D01*
X118880016Y-97586374D01*
X119328189Y-97064751D01*
X119691526Y-96486676D01*
X119851133Y-96095039D01*
X119933216Y-95639785D01*
X119992184Y-95008499D01*
X120015449Y-94336626D01*
X120015462Y-94326697D01*
X119993571Y-93622943D01*
X119907311Y-93091710D01*
X119727650Y-92595873D01*
X119587804Y-92306753D01*
X119104648Y-91576708D01*
X118503929Y-91094230D01*
X117740367Y-90835812D01*
X116768686Y-90777948D01*
X116652027Y-90782584D01*
X115636138Y-90942151D01*
X114834245Y-91318539D01*
X114240665Y-91918714D01*
X113849713Y-92749641D01*
X113655707Y-93818285D01*
X113630796Y-94485179D01*
X110392048Y-94485179D01*
X110396465Y-93630573D01*
X110589440Y-92439895D01*
X110987161Y-91394812D01*
X111608607Y-90436484D01*
X112025187Y-89954284D01*
X112894991Y-89199891D01*
X113911072Y-88660757D01*
X115126158Y-88311473D01*
X115603479Y-88230062D01*
X117111380Y-88139122D01*
X118515827Y-88307840D01*
%TO.C,D1*%
D13*
X183752571Y-73580904D02*
X183295428Y-73580904D01*
X183524000Y-73580904D02*
X183524000Y-72780904D01*
X183447809Y-72895190D01*
X183371619Y-72971380D01*
X183295428Y-73009476D01*
%TD*%
M02*
